<?xml version="1.0" encoding="UTF-8" standalone="no"?>
<svg xmlns:xlink="http://www.w3.org/1999/xlink" height="434.9px" width="399.95px" xmlns="http://www.w3.org/2000/svg">
  <g transform="matrix(1, 0, 0, 1, 210.75, 443.1)">
    <use height="191.15" transform="matrix(1.0, 0.0, 0.0, 1.0, -181.3, -380.25)" width="327.7" xlink:href="#shape0"/>
  </g>
  <defs>
    <g id="shape0" transform="matrix(1, 0, 0, 1, 181.3, 380.25)">
      <path d="M71.75 -304.4 Q65.35 -302.4 60.5 -299.4 55.65 -301.0 47.25 -302.45 33.6 -304.7 14.4 -306.0 15.1 -310.1 14.35 -312.9 L13.6 -315.15 Q12.6 -317.6 11.1 -319.4 L10.75 -319.8 11.25 -320.4 13.2 -320.7 28.55 -323.55 30.45 -323.85 64.4 -326.65 66.7 -326.65 68.15 -326.65 80.55 -326.4 85.85 -326.1 82.1 -323.85 72.4 -318.0 71.2 -317.25 70.05 -316.5 67.9 -314.7 Q66.05 -312.65 66.65 -310.35 66.9 -309.4 71.85 -305.3 L71.55 -304.95 71.75 -304.4 M23.65 -328.85 L23.2 -329.5 Q34.1 -335.8 50.9 -340.3 L60.85 -342.4 61.95 -340.05 60.0 -336.75 Q59.6 -335.9 59.5 -335.0 42.75 -333.95 23.65 -328.85 M0.25 -312.45 Q0.6 -313.9 1.05 -314.0 5.75 -315.25 7.0 -310.55 7.2 -308.1 6.45 -306.5 L4.35 -306.6 0.05 -306.8 -0.7 -309.65 Q-0.2 -310.5 0.25 -312.45 M-43.9 -307.15 Q-68.3 -306.3 -79.6 -303.25 -91.5 -300.1 -91.4 -299.6 L-108.05 -295.0 -106.7 -297.85 -104.65 -298.1 Q-84.6 -306.05 -82.1 -306.7 -47.7 -315.95 -21.55 -315.45 L-8.05 -314.6 Q-9.65 -309.3 -9.1 -307.15 -27.3 -307.75 -43.9 -307.15" fill="#eed189" fill-rule="evenodd" stroke="none"/>
      <path d="M71.85 -305.3 Q66.9 -309.4 66.65 -310.35 66.05 -312.65 67.9 -314.7 L70.05 -316.5 71.2 -317.25 72.4 -318.0 82.1 -323.85 85.85 -326.1 80.55 -326.4 68.15 -326.65 66.7 -326.65 64.4 -326.65 30.45 -323.85 28.55 -323.55 13.2 -320.7 11.25 -320.4 10.75 -319.8 11.1 -319.4 Q12.6 -317.6 13.6 -315.15 L14.35 -312.9 Q15.1 -310.1 14.4 -306.0 33.6 -304.7 47.25 -302.45 55.65 -301.0 60.5 -299.4 65.35 -302.4 71.75 -304.4 L72.65 -304.7 72.1 -305.1 72.05 -305.15 71.85 -305.3 M89.0 -308.3 L89.65 -305.65 Q92.0 -304.8 93.65 -303.05 95.35 -301.25 96.1 -298.6 L96.5 -296.25 96.7 -295.1 Q105.55 -295.15 126.5 -287.55 L140.45 -282.3 Q144.45 -280.1 145.85 -274.9 147.5 -268.7 144.15 -264.4 138.0 -256.5 115.9 -250.55 107.35 -248.3 104.2 -249.6 L104.15 -249.6 101.05 -248.2 98.75 -251.3 98.1 -252.15 96.6 -254.1 96.5 -254.65 Q94.75 -256.3 91.45 -256.45 88.25 -256.55 84.3 -257.55 79.95 -258.7 78.25 -260.15 76.8 -261.4 73.9 -268.4 70.6 -274.4 65.5 -273.0 60.25 -271.65 56.85 -268.25 53.45 -264.9 47.6 -263.3 42.25 -261.9 35.55 -265.8 32.25 -267.75 29.6 -269.9 24.75 -268.6 22.15 -265.8 19.5 -263.05 18.5 -262.75 7.0 -259.7 0.65 -264.95 L-3.5 -268.65 Q-5.7 -270.25 -8.35 -269.55 -11.0 -268.85 -13.15 -265.75 L-16.95 -259.2 Q-22.25 -249.8 -30.1 -247.65 -35.65 -246.2 -47.45 -248.45 -59.3 -250.75 -62.6 -249.85 -66.0 -248.95 -69.75 -240.9 -73.95 -232.0 -75.35 -230.9 -79.2 -227.85 -83.45 -227.15 -84.6 -226.9 -91.55 -223.45 -98.5 -220.05 -98.3 -216.3 -98.1 -212.6 -101.55 -202.6 -110.55 -203.35 -116.25 -204.55 -117.25 -202.25 -123.1 -196.4 -130.35 -189.1 -133.35 -189.1 -136.95 -189.1 -137.65 -194.9 -137.95 -197.8 -137.6 -200.85 L-137.65 -209.1 Q-137.3 -212.8 -136.1 -214.65 -140.95 -215.25 -148.3 -217.3 -162.2 -221.2 -167.9 -225.5 -176.3 -232.0 -177.7 -234.35 -178.4 -235.55 -178.85 -237.7 L-180.0 -242.85 Q-181.75 -249.25 -181.1 -253.25 -180.05 -259.95 -173.1 -266.25 -158.6 -279.45 -116.7 -292.4 L-116.7 -292.45 Q-92.1 -355.8 -77.7 -359.65 -75.25 -360.35 -67.5 -359.4 L-51.1 -357.2 Q-26.85 -354.15 -15.35 -357.25 -13.2 -357.8 3.8 -366.75 20.8 -375.75 29.6 -378.05 41.3 -381.2 47.55 -379.8 52.95 -378.6 55.85 -373.4 57.2 -371.1 60.5 -361.3 62.4 -355.75 64.55 -351.35 68.8 -351.85 71.1 -351.4 73.0 -351.05 73.6 -349.9 L74.05 -348.3 71.45 -340.2 74.9 -335.05 78.7 -334.8 Q86.95 -334.1 93.0 -332.3 97.85 -330.95 98.05 -330.15 99.05 -326.5 92.9 -322.15 L85.8 -316.85 Q87.95 -312.25 89.0 -308.3 M57.2 -350.05 Q51.7 -360.7 46.85 -365.4 39.65 -372.5 31.2 -370.2 25.2 -368.6 8.15 -359.65 -8.95 -350.65 -13.25 -349.5 -26.9 -345.85 -50.3 -348.9 L-65.8 -351.15 -75.0 -351.6 Q-82.6 -349.55 -96.9 -319.35 L-101.9 -308.4 Q-98.1 -309.9 -92.5 -311.7 -92.65 -312.2 -84.7 -314.3 -66.55 -319.2 -36.1 -322.65 -10.2 -325.7 -0.5 -323.3 L3.85 -323.45 5.05 -324.95 Q8.15 -328.55 13.55 -332.45 26.8 -342.15 41.05 -345.4 40.9 -345.9 48.85 -348.0 L57.2 -350.05 M23.2 -329.5 L20.9 -328.1 23.65 -328.85 Q42.75 -333.95 59.5 -335.0 59.6 -335.9 60.0 -336.75 L61.95 -340.05 60.85 -342.4 50.9 -340.3 Q34.1 -335.8 23.2 -329.5 M0.25 -312.45 Q-0.2 -310.5 -0.7 -309.65 L0.05 -306.8 4.35 -306.6 6.45 -306.5 Q7.2 -308.1 7.0 -310.55 5.75 -315.25 1.05 -314.0 0.6 -313.9 0.25 -312.45 M106.1 -257.45 Q108.7 -259.65 111.5 -263.1 109.35 -264.3 94.8 -270.7 87.0 -274.1 86.05 -277.65 85.45 -279.85 87.6 -285.85 89.7 -291.85 89.05 -294.35 87.35 -300.65 82.9 -299.4 L74.8 -298.9 Q73.05 -298.15 70.35 -296.2 L56.45 -286.45 Q53.85 -284.65 48.65 -283.25 39.6 -280.85 33.25 -282.75 29.5 -283.95 23.8 -288.25 18.15 -292.55 14.15 -293.7 7.55 -295.55 -1.85 -293.05 -9.0 -291.15 -25.7 -278.6 -42.35 -266.15 -44.5 -265.55 -52.45 -263.45 -62.25 -265.7 -72.1 -268.0 -81.2 -265.55 -95.05 -261.85 -99.05 -252.95 -100.3 -250.1 -100.5 -246.65 L-100.55 -243.05 Q-101.2 -237.9 -103.55 -235.7 -105.3 -234.1 -109.0 -233.6 L-115.6 -232.7 Q-119.5 -231.75 -122.05 -229.0 -125.8 -225.1 -122.65 -216.8 -120.05 -209.95 -105.65 -207.15 L-105.4 -208.05 Q-106.6 -210.45 -106.35 -216.1 -106.1 -221.75 -98.7 -228.6 -88.75 -234.3 -86.45 -234.75 -82.55 -235.5 -79.9 -237.95 -78.5 -239.25 -77.55 -242.3 L-75.8 -247.95 Q-73.0 -255.35 -64.7 -257.55 -57.75 -259.45 -47.0 -256.85 -36.3 -254.3 -32.7 -255.25 -29.15 -256.25 -26.5 -259.4 -25.15 -261.05 -22.4 -266.05 -17.15 -275.5 -9.9 -277.4 L-2.75 -277.2 Q-1.1 -276.5 2.05 -273.9 5.0 -271.4 7.25 -270.65 10.65 -269.45 15.3 -270.7 L19.25 -273.85 Q23.15 -276.95 28.15 -278.3 31.3 -279.15 36.95 -274.8 42.5 -270.5 46.2 -271.5 50.45 -272.65 54.55 -275.9 58.6 -279.2 62.25 -280.2 72.6 -282.95 77.55 -276.6 78.95 -274.8 80.35 -271.45 81.65 -268.45 82.25 -267.95 88.1 -262.8 97.4 -262.5 L102.6 -261.9 Q104.9 -260.95 105.7 -257.9 L105.85 -257.25 106.1 -257.45 M48.9 -291.75 L45.5 -292.25 29.05 -294.65 Q32.6 -291.95 34.05 -291.25 39.15 -289.0 46.55 -291.0 L48.9 -291.75 M130.25 -277.85 Q125.45 -279.45 114.2 -281.75 102.3 -284.2 98.25 -285.4 L95.6 -286.25 Q93.8 -280.55 94.05 -279.65 94.6 -277.45 98.4 -276.05 99.75 -275.55 106.5 -273.8 118.2 -270.85 119.7 -265.2 120.3 -263.05 119.2 -260.5 L120.8 -261.1 Q139.7 -268.0 138.45 -272.65 137.7 -275.45 130.25 -277.85 M-43.9 -307.15 Q-27.3 -307.75 -9.1 -307.15 -9.65 -309.3 -8.05 -314.6 L-21.55 -315.45 Q-47.7 -315.95 -82.1 -306.7 -84.6 -306.05 -104.65 -298.1 L-106.7 -297.85 -108.05 -295.0 -91.4 -299.6 Q-91.5 -300.1 -79.6 -303.25 -68.3 -306.3 -43.9 -307.15 M-106.1 -257.8 Q-100.8 -268.6 -83.25 -273.3 -72.15 -276.25 -63.2 -273.75 -58.5 -272.45 -56.2 -272.25 -51.8 -271.9 -46.05 -273.4 -44.65 -273.8 -39.95 -277.55 L-29.75 -285.8 Q-17.95 -295.1 -8.9 -298.95 -52.3 -302.3 -77.55 -295.55 -147.1 -276.9 -166.25 -261.9 -173.0 -256.65 -173.7 -251.65 -173.95 -249.95 -172.6 -244.95 -169.35 -232.9 -148.2 -227.35 L-133.75 -223.9 -132.75 -223.6 Q-132.8 -227.2 -131.25 -229.65 -129.35 -232.8 -123.9 -235.1 -117.55 -237.45 -114.75 -239.0 -109.85 -241.7 -108.55 -246.05 L-108.25 -250.35 Q-107.8 -254.4 -106.1 -257.8 M-127.85 -210.9 L-128.35 -211.55 -128.45 -210.4 Q-130.1 -203.4 -130.1 -201.85 L-130.1 -201.35 -129.9 -201.4 Q-128.8 -201.95 -125.5 -205.8 L-124.05 -207.3 -125.25 -208.2 -127.85 -210.9" fill="#000000" fill-rule="evenodd" stroke="none"/>
      <path d="M57.2 -350.05 L48.85 -348.0 Q40.9 -345.9 41.05 -345.4 26.8 -342.15 13.55 -332.45 8.15 -328.55 5.05 -324.95 L3.85 -323.45 -0.5 -323.3 Q-10.2 -325.7 -36.1 -322.65 -66.55 -319.2 -84.7 -314.3 -92.65 -312.2 -92.5 -311.7 -98.1 -309.9 -101.9 -308.4 L-96.9 -319.35 Q-82.6 -349.55 -75.0 -351.6 L-65.8 -351.15 -50.3 -348.9 Q-26.9 -345.85 -13.25 -349.5 -8.95 -350.65 8.15 -359.65 25.2 -368.6 31.2 -370.2 39.65 -372.5 46.85 -365.4 51.7 -360.7 57.2 -350.05 M130.25 -277.85 Q137.7 -275.45 138.45 -272.65 139.7 -268.0 120.8 -261.1 L119.2 -260.5 Q120.3 -263.05 119.7 -265.2 118.2 -270.85 106.5 -273.8 99.75 -275.55 98.4 -276.05 94.6 -277.45 94.05 -279.65 93.8 -280.55 95.6 -286.25 L98.25 -285.4 Q102.3 -284.2 114.2 -281.75 125.45 -279.45 130.25 -277.85 M48.9 -291.75 L46.55 -291.0 Q39.15 -289.0 34.05 -291.25 32.6 -291.95 29.05 -294.65 L45.5 -292.25 48.9 -291.75 M-106.1 -257.8 Q-107.8 -254.4 -108.25 -250.35 L-108.55 -246.05 Q-109.85 -241.7 -114.75 -239.0 -117.55 -237.45 -123.9 -235.1 -129.35 -232.8 -131.25 -229.65 -132.8 -227.2 -132.75 -223.6 L-133.75 -223.9 -148.2 -227.35 Q-169.35 -232.9 -172.6 -244.95 -173.95 -249.95 -173.7 -251.65 -173.0 -256.65 -166.25 -261.9 -147.1 -276.9 -77.55 -295.55 -52.3 -302.3 -8.9 -298.95 -17.95 -295.1 -29.75 -285.8 L-39.95 -277.55 Q-44.65 -273.8 -46.05 -273.4 -51.8 -271.9 -56.2 -272.25 -58.5 -272.45 -63.2 -273.75 -72.15 -276.25 -83.25 -273.3 -100.8 -268.6 -106.1 -257.8 M-128.45 -210.4 L-127.85 -210.9 -125.25 -208.2 -124.05 -207.3 -125.5 -205.8 Q-128.8 -201.95 -129.9 -201.4 L-130.1 -201.85 Q-130.1 -203.4 -128.45 -210.4" fill="#222222" fill-rule="evenodd" stroke="none"/>
      <path d="M71.55 -304.95 L71.85 -305.3 72.05 -305.15 72.1 -305.1 71.55 -304.95" fill="#9afecb" fill-rule="evenodd" stroke="none"/>
      <path d="M105.7 -257.9 Q104.9 -260.95 102.6 -261.9 L97.4 -262.5 Q88.1 -262.8 82.25 -267.95 81.65 -268.45 80.35 -271.45 78.95 -274.8 77.55 -276.6 72.6 -282.95 62.25 -280.2 58.6 -279.2 54.55 -275.9 50.45 -272.65 46.2 -271.5 42.5 -270.5 36.95 -274.8 31.3 -279.15 28.15 -278.3 23.15 -276.95 19.25 -273.85 L15.3 -270.7 Q10.65 -269.45 7.25 -270.65 5.0 -271.4 2.05 -273.9 -1.1 -276.5 -2.75 -277.2 L-9.9 -277.4 Q-17.15 -275.5 -22.4 -266.05 -25.15 -261.05 -26.5 -259.4 -29.15 -256.25 -32.7 -255.25 -36.3 -254.3 -47.0 -256.85 -57.75 -259.45 -64.7 -257.55 -73.0 -255.35 -75.8 -247.95 L-77.55 -242.3 Q-78.5 -239.25 -79.9 -237.95 -82.55 -235.5 -86.45 -234.75 -88.75 -234.3 -98.7 -228.6 -106.1 -221.75 -106.35 -216.1 -106.6 -210.45 -105.4 -208.05 L-105.65 -207.15 Q-120.05 -209.95 -122.65 -216.8 -125.8 -225.1 -122.05 -229.0 -119.5 -231.75 -115.6 -232.7 L-109.0 -233.6 Q-105.3 -234.1 -103.55 -235.7 -101.2 -237.9 -100.55 -243.05 L-100.5 -246.65 Q-100.3 -250.1 -99.05 -252.95 -95.05 -261.85 -81.2 -265.55 -72.1 -268.0 -62.25 -265.7 -52.45 -263.45 -44.5 -265.55 -42.35 -266.15 -25.7 -278.6 -9.0 -291.15 -1.85 -293.05 7.55 -295.55 14.15 -293.7 18.15 -292.55 23.8 -288.25 29.5 -283.95 33.25 -282.75 39.6 -280.85 48.65 -283.25 53.85 -284.65 56.45 -286.45 L70.35 -296.2 Q73.05 -298.15 74.8 -298.9 L82.9 -299.4 Q87.35 -300.65 89.05 -294.35 89.7 -291.85 87.6 -285.85 85.45 -279.85 86.05 -277.65 87.0 -274.1 94.8 -270.7 109.35 -264.3 111.5 -263.1 108.7 -259.65 106.1 -257.45 L105.7 -257.9" fill="#ffeef3" fill-rule="evenodd" stroke="none"/>
      <path d="M-58.3 -365.55 L-58.2 -365.45 -58.1 -365.4 -57.25 -364.7 Q-56.9 -364.05 -56.9 -363.35 L-56.9 -363.4 Q-57.0 -362.7 -57.35 -362.1 L-57.4 -361.95 -57.45 -361.95 -67.3 -349.15 -58.8 -335.25 -58.85 -335.3 -58.75 -335.25 -58.4 -333.95 -58.45 -333.7 Q-58.55 -333.15 -58.9 -332.7 L-58.95 -332.6 Q-59.4 -332.05 -60.1 -331.9 L-61.45 -331.95 -76.85 -337.35 -87.45 -325.0 Q-87.9 -324.4 -88.55 -324.25 L-88.6 -324.25 -89.95 -324.3 -90.05 -324.35 -90.95 -325.05 -91.0 -325.2 Q-91.45 -325.8 -91.35 -326.5 L-91.4 -326.6 -91.35 -326.55 -90.95 -342.8 -106.05 -349.0 -106.1 -349.05 Q-106.65 -349.25 -106.95 -349.75 L-107.05 -349.9 Q-107.5 -350.5 -107.4 -351.25 -107.45 -351.85 -107.1 -352.3 L-107.1 -352.35 -107.05 -352.45 -106.95 -352.55 Q-106.5 -353.1 -105.85 -353.3 L-90.25 -357.9 -88.95 -374.1 -88.9 -374.2 -88.65 -375.1 -88.45 -375.4 -88.4 -375.45 -87.25 -376.2 -87.2 -376.2 -85.9 -376.15 -85.85 -376.1 -85.55 -376.0 -85.55 -375.95 Q-85.1 -375.75 -84.8 -375.35 L-84.75 -375.25 -75.55 -361.85 -59.65 -365.65 -58.3 -365.55 M-71.95 -350.45 L-71.85 -350.65 -64.8 -359.8 -76.05 -357.1 -77.35 -357.15 -78.4 -357.95 -78.35 -357.85 -78.5 -358.05 -84.9 -367.45 -85.8 -356.1 -85.75 -356.0 Q-85.85 -355.3 -86.35 -354.75 L-86.45 -354.6 Q-86.85 -354.2 -87.45 -354.05 L-98.45 -350.75 -87.85 -346.35 -87.8 -346.35 -86.8 -345.5 -86.7 -345.3 -86.7 -345.35 Q-86.4 -344.8 -86.45 -344.15 L-86.4 -344.05 -86.45 -344.1 -86.8 -332.7 -79.25 -341.5 -79.0 -341.65 -78.2 -342.2 -78.05 -342.25 -76.8 -342.15 -65.9 -338.3 -71.9 -348.0 -71.85 -347.95 -71.95 -348.05 Q-72.3 -348.6 -72.3 -349.2 L-72.3 -349.15 -72.3 -349.4 -71.95 -350.45" fill="#000000" fill-rule="evenodd" stroke="none"/>
      <path d="M-71.95 -350.45 L-72.3 -349.4 -72.3 -349.15 -72.3 -349.2 Q-72.3 -348.6 -71.95 -348.05 L-71.85 -347.95 -71.9 -348.0 -65.9 -338.3 -76.8 -342.15 -78.05 -342.25 -78.2 -342.2 -79.0 -341.65 -79.25 -341.5 -86.8 -332.7 -86.45 -344.1 -86.4 -344.05 -86.45 -344.15 Q-86.4 -344.8 -86.7 -345.35 L-86.7 -345.3 -86.8 -345.5 -87.8 -346.35 -87.85 -346.35 -98.45 -350.75 -87.45 -354.05 Q-86.85 -354.2 -86.45 -354.6 L-86.35 -354.75 Q-85.85 -355.3 -85.75 -356.0 L-85.8 -356.1 -84.9 -367.45 -78.5 -358.05 -78.35 -357.85 -78.4 -357.95 -77.35 -357.15 -76.05 -357.1 -64.8 -359.8 -71.85 -350.65 -71.95 -350.45" fill="#ff0000" fill-rule="evenodd" stroke="none"/>
    </g>
  </defs>
</svg>
