<?xml version="1.0" encoding="UTF-8" standalone="no"?>
<svg xmlns:xlink="http://www.w3.org/1999/xlink" height="434.9px" width="399.95px" xmlns="http://www.w3.org/2000/svg">
  <g transform="matrix(1, 0, 0, 1, 210.75, 443.1)">
    <use height="87.4" transform="matrix(1.0, 0.0, 0.0, 1.0, -96.55, -354.2)" width="187.4" xlink:href="#shape0"/>
  </g>
  <defs>
    <g id="shape0" transform="matrix(1, 0, 0, 1, 96.55, 354.2)">
      <path d="M30.1 -330.1 L30.25 -328.55 29.5 -327.25 15.7 -314.8 24.2 -299.35 Q24.6 -298.65 24.5 -297.85 24.4 -297.1 23.9 -296.45 23.35 -295.9 22.55 -295.7 L21.05 -295.85 2.6 -303.5 -12.3 -291.4 Q-12.95 -290.9 -13.7 -290.85 L-15.15 -291.15 Q-15.8 -291.55 -16.15 -292.25 -16.5 -293.0 -16.35 -293.75 L-13.7 -310.8 -31.35 -319.1 Q-32.1 -319.45 -32.5 -320.15 -32.9 -320.9 -32.75 -321.7 -32.65 -322.5 -32.05 -323.1 -31.5 -323.7 -30.65 -323.8 L-10.65 -326.95 -6.95 -343.95 Q-6.7 -345.0 -5.8 -345.55 -4.95 -346.1 -3.9 -345.85 -2.9 -345.65 -2.35 -344.75 L7.2 -329.3 27.55 -331.55 29.05 -331.25 Q29.75 -330.85 30.1 -330.1 M3.4 -326.0 L0.1 -331.3 -3.35 -336.85 -6.15 -324.2 Q-6.35 -323.45 -6.9 -322.9 -7.45 -322.4 -8.2 -322.25 L-21.85 -320.15 -9.85 -314.5 Q-9.15 -314.15 -8.75 -313.4 -8.35 -312.7 -8.45 -311.85 L-10.4 -299.35 -5.3 -303.55 0.6 -308.3 0.95 -308.55 Q1.3 -308.8 1.8 -308.85 L3.1 -308.7 4.15 -308.25 6.35 -307.3 16.4 -303.15 10.35 -314.15 Q9.95 -314.9 10.1 -315.75 10.25 -316.6 10.9 -317.2 L20.4 -325.75 9.1 -324.5 6.3 -324.2 6.2 -324.15 4.8 -324.4 Q4.15 -324.7 3.8 -325.3 L3.4 -326.0" fill="#000000" fill-rule="evenodd" stroke="none"/>
      <path d="M0.1 -331.3 L3.4 -326.0 0.95 -308.55 0.6 -308.3 -5.3 -303.55 0.1 -331.3 M6.3 -324.2 L9.1 -324.5 6.35 -307.3 4.15 -308.25 6.3 -324.2" fill="#fef3de" fill-rule="evenodd" stroke="none"/>
      <path d="M3.4 -326.0 L3.8 -325.3 Q4.15 -324.7 4.8 -324.4 L6.2 -324.15 6.3 -324.2 4.15 -308.25 3.1 -308.7 1.8 -308.85 Q1.3 -308.8 0.95 -308.55 L3.4 -326.0 M9.1 -324.5 L20.4 -325.75 10.9 -317.2 Q10.25 -316.6 10.1 -315.75 9.95 -314.9 10.35 -314.15 L16.4 -303.15 6.35 -307.3 9.1 -324.5 M-5.3 -303.55 L-10.4 -299.35 -8.45 -311.85 Q-8.35 -312.7 -8.75 -313.4 -9.15 -314.15 -9.85 -314.5 L-21.85 -320.15 -8.2 -322.25 Q-7.45 -322.4 -6.9 -322.9 -6.35 -323.45 -6.15 -324.2 L-3.35 -336.85 0.1 -331.3 -5.3 -303.55" fill="#fcde8b" fill-rule="evenodd" stroke="none"/>
      <path d="M30.1 -330.1 Q29.75 -330.85 29.05 -331.25 L27.55 -331.55 7.2 -329.3 -2.35 -344.75 Q-2.9 -345.65 -3.9 -345.85 -4.95 -346.1 -5.8 -345.55 -6.7 -345.0 -6.95 -343.95 L-10.65 -326.95 -30.65 -323.8 Q-31.5 -323.7 -32.05 -323.1 -32.65 -322.5 -32.75 -321.7 -32.9 -320.9 -32.5 -320.15 -32.1 -319.45 -31.35 -319.1 L-13.7 -310.8 -16.35 -293.75 Q-16.5 -293.0 -16.15 -292.25 -15.8 -291.55 -15.15 -291.15 L-13.7 -290.85 Q-12.95 -290.9 -12.3 -291.4 L2.6 -303.5 21.05 -295.85 22.55 -295.7 Q23.35 -295.9 23.9 -296.45 24.4 -297.1 24.5 -297.85 24.6 -298.65 24.2 -299.35 L15.7 -314.8 29.5 -327.25 30.25 -328.55 30.1 -330.1 M-85.85 -269.8 Q-109.3 -313.2 -61.3 -335.85 -13.3 -358.5 44.25 -347.7 101.75 -336.95 83.45 -287.8 6.55 -297.95 -85.85 -269.8" fill="#652d6c" fill-rule="evenodd" stroke="none"/>
      <path d="M83.45 -287.8 Q7.85 -271.15 -85.85 -269.8 6.55 -297.95 83.45 -287.8" fill="#45204f" fill-rule="evenodd" stroke="none"/>
      <path d="M-85.85 -269.8 Q-109.3 -313.2 -61.3 -335.85 -13.3 -358.5 44.25 -347.7 101.75 -336.95 83.45 -287.8 7.85 -271.15 -85.85 -269.8 6.55 -297.95 83.45 -287.8" fill="none" stroke="#000000" stroke-linecap="round" stroke-linejoin="round" stroke-width="6.0"/>
      <path d="M1.05 -323.15 L1.15 -322.2 5.75 -322.95 5.85 -322.0 1.35 -321.35 1.5 -320.4 5.5 -321.0 5.9 -318.15 1.9 -317.5 2.05 -316.65 5.75 -317.25 5.9 -316.35 2.25 -315.75 2.3 -315.1 6.0 -315.65 6.15 -314.7 2.4 -314.15 2.55 -313.45 6.55 -314.1 6.75 -313.15 2.65 -312.5 2.8 -311.75 Q2.85 -311.4 3.3 -311.45 L6.3 -311.9 Q6.55 -311.95 6.6 -312.35 L6.6 -312.95 7.75 -312.9 7.65 -311.85 Q7.65 -311.15 6.85 -311.0 L3.0 -310.45 Q2.05 -310.35 1.9 -311.2 L0.8 -318.35 4.8 -318.95 4.65 -319.9 0.65 -319.25 0.0 -323.4 0.9 -323.5 Q1.4 -323.5 1.05 -323.15 M0.35 -318.45 L-6.65 -317.35 -6.8 -318.25 -4.95 -318.6 -5.7 -320.15 -6.65 -320.0 -6.8 -320.95 -4.3 -321.35 -4.55 -322.7 -3.4 -322.9 Q-2.95 -322.9 -3.3 -322.5 L-3.15 -321.5 -0.65 -321.9 -0.55 -320.95 -1.6 -320.75 -1.8 -319.0 0.15 -319.35 0.35 -318.45 M-0.1 -309.75 L-1.45 -309.6 -1.7 -310.45 -0.8 -310.6 -0.6 -310.9 -0.85 -312.45 -3.9 -311.95 -3.45 -309.2 -4.45 -309.0 -5.65 -316.6 -0.6 -317.35 0.4 -310.7 Q0.55 -309.9 -0.1 -309.75 M-2.65 -320.65 L-4.6 -320.35 -3.9 -318.7 -2.8 -318.9 -2.65 -320.65 M-1.4 -316.25 L-4.55 -315.75 -4.35 -314.75 -1.3 -315.25 -1.4 -316.25 M-1.15 -314.35 L-4.2 -313.9 -4.1 -312.9 -0.95 -313.35 -1.15 -314.35" fill="#d6a432" fill-rule="evenodd" stroke="none"/>
    </g>
  </defs>
</svg>
