<?xml version="1.0" encoding="UTF-8" standalone="no"?>
<svg xmlns:xlink="http://www.w3.org/1999/xlink" height="434.9px" width="399.95px" xmlns="http://www.w3.org/2000/svg">
  <g transform="matrix(1, 0, 0, 1, 210.75, 443.1)">
    <use height="105.75" transform="matrix(1.0, 0.0, 0.0, 1.0, -112.9, -343.85)" width="243.4" xlink:href="#shape0"/>
  </g>
  <defs>
    <g id="shape0" transform="matrix(1, 0, 0, 1, 112.9, 343.85)">
      <path d="M60.9 -278.3 L62.15 -279.45 Q64.1 -280.85 66.2 -280.6 69.15 -280.35 72.45 -276.85 75.5 -273.55 78.8 -267.4 L79.05 -267.1 78.8 -267.4 Q75.5 -273.55 72.45 -276.85 83.7 -271.25 86.3 -282.05 L86.45 -282.95 87.3 -282.2 87.35 -282.1 91.05 -278.55 Q116.95 -252.7 79.05 -267.1 64.35 -269.85 50.45 -254.9 52.15 -258.15 53.6 -262.75 56.9 -274.25 60.9 -278.3 56.9 -274.25 53.6 -262.75 52.15 -258.15 50.45 -254.9 47.9 -252.15 45.35 -248.8 L44.4 -248.3 44.15 -248.15 Q37.15 -245.45 27.4 -258.35 21.35 -265.4 16.35 -268.5 21.35 -265.4 27.4 -258.35 9.65 -263.25 -7.15 -247.9 L-11.65 -243.4 Q-12.3 -243.05 -12.9 -242.85 L-14.25 -242.6 Q-20.1 -242.2 -27.95 -251.45 -41.35 -259.85 -57.8 -244.2 L-61.1 -240.9 -61.95 -240.6 -62.25 -240.6 Q-67.05 -240.1 -73.35 -251.8 -84.15 -261.3 -98.85 -245.2 L-98.9 -245.15 Q-121.85 -232.55 -98.95 -269.35 L-93.25 -258.95 Q-89.7 -268.85 -85.05 -267.65 -83.05 -267.15 -80.8 -264.5 -65.35 -254.75 -49.3 -265.4 -47.75 -267.4 -45.9 -267.9 L-44.5 -268.1 Q-42.0 -268.1 -39.0 -265.45 -17.5 -256.45 1.9 -267.35 4.3 -270.05 7.15 -270.65 L8.4 -270.85 Q12.0 -271.15 16.35 -268.5 42.1 -262.3 60.9 -278.3 M91.45 -296.55 Q-9.45 -262.75 -101.65 -281.85 L-102.3 -281.75 Q-104.8 -296.95 -97.3 -306.55 -87.0 -319.9 -72.95 -327.15 -58.95 -334.35 -46.95 -334.25 L-33.75 -334.0 Q8.6 -341.55 30.2 -341.35 51.7 -341.15 72.65 -327.35 93.55 -313.6 92.6 -303.25 92.25 -299.85 91.45 -296.55 M2.35 -332.3 Q-25.1 -328.1 -33.75 -334.0 -25.1 -328.1 2.35 -332.3 M87.3 -282.2 L86.95 -282.1 87.35 -282.1 86.95 -282.1 87.3 -282.2 M-27.95 -251.45 L-32.55 -257.45 Q-36.0 -262.85 -39.0 -265.45 -36.0 -262.85 -32.55 -257.45 L-27.95 -251.45 M-93.25 -258.95 L-98.85 -245.2 -93.25 -258.95 M-73.35 -251.8 L-75.05 -255.1 Q-78.05 -261.4 -80.8 -264.5 -78.05 -261.4 -75.05 -255.1 L-73.35 -251.8 M-49.3 -265.4 Q-52.15 -261.95 -54.3 -253.7 -55.9 -247.45 -57.8 -244.2 -55.9 -247.45 -54.3 -253.7 -52.15 -261.95 -49.3 -265.4 M1.9 -267.35 Q-1.25 -263.7 -3.5 -256.35 -5.1 -251.15 -7.15 -247.9 -5.1 -251.15 -3.5 -256.35 -1.25 -263.7 1.9 -267.35" fill="#ffeeee" fill-rule="evenodd" stroke="none"/>
      <path d="M72.45 -276.85 Q69.15 -280.35 66.2 -280.6 64.1 -280.85 62.15 -279.45 L60.9 -278.3 Q42.1 -262.3 16.35 -268.5 12.0 -271.15 8.4 -270.85 L7.15 -270.65 Q4.3 -270.05 1.9 -267.35 -17.5 -256.45 -39.0 -265.45 -42.0 -268.1 -44.5 -268.1 L-45.9 -267.9 Q-47.75 -267.4 -49.3 -265.4 -65.35 -254.75 -80.8 -264.5 -83.05 -267.15 -85.05 -267.65 -89.7 -268.85 -93.25 -258.95 L-98.95 -269.35 Q-101.35 -275.95 -102.3 -281.75 L-101.65 -281.85 Q-9.45 -262.75 91.45 -296.55 L117.75 -322.95 114.65 -307.15 124.8 -303.85 108.35 -293.1 128.0 -296.35 113.75 -285.25 126.1 -274.45 91.05 -278.55 87.35 -282.1 87.35 -282.2 87.3 -282.2 Q86.7 -283.2 86.5 -283.0 L86.45 -282.95 86.3 -282.05 Q83.7 -271.25 72.45 -276.85 M91.45 -296.55 L86.5 -283.0 91.45 -296.55 M87.35 -282.2 L108.35 -293.1 87.35 -282.2" fill="#ff3c3c" fill-rule="evenodd" stroke="none"/>
      <path d="M72.45 -276.85 Q69.15 -280.35 66.2 -280.6 64.1 -280.85 62.15 -279.45 L60.9 -278.3 Q56.9 -274.25 53.6 -262.75 52.15 -258.15 50.45 -254.9 64.35 -269.85 79.05 -267.1 L78.8 -267.4 Q75.5 -273.55 72.45 -276.85 83.7 -271.25 86.3 -282.05 M86.45 -282.95 L86.5 -283.0 91.45 -296.55 Q-9.45 -262.75 -101.65 -281.85 M-102.3 -281.75 Q-101.35 -275.95 -98.95 -269.35 L-93.25 -258.95 Q-89.7 -268.85 -85.05 -267.65 -83.05 -267.15 -80.8 -264.5 -65.35 -254.75 -49.3 -265.4 -47.75 -267.4 -45.9 -267.9 L-44.5 -268.1 Q-42.0 -268.1 -39.0 -265.45 -17.5 -256.45 1.9 -267.35 4.3 -270.05 7.15 -270.65 L8.4 -270.85 Q12.0 -271.15 16.35 -268.5 42.1 -262.3 60.9 -278.3 M27.4 -258.35 Q37.15 -245.45 44.15 -248.15 L44.4 -248.3 45.35 -248.8 Q47.9 -252.15 50.45 -254.9 48.15 -250.5 45.35 -248.8 M16.35 -268.5 Q21.35 -265.4 27.4 -258.35 9.65 -263.25 -7.15 -247.9 -9.15 -244.65 -11.65 -243.4 -12.3 -243.05 -12.9 -242.85 L-14.25 -242.6 Q-20.1 -242.2 -27.95 -251.45 -41.35 -259.85 -57.8 -244.2 -59.4 -241.7 -61.1 -240.9 L-61.95 -240.6 -62.25 -240.6 Q-67.05 -240.1 -73.35 -251.8 -84.15 -261.3 -98.85 -245.2 L-98.85 -245.15 -98.9 -245.15 Q-121.85 -232.55 -98.95 -269.35 M108.35 -293.1 L124.8 -303.85 114.65 -307.15 117.75 -322.95 91.45 -296.55 Q92.25 -299.85 92.6 -303.25 93.55 -313.6 72.65 -327.35 51.7 -341.15 30.2 -341.35 8.6 -341.55 -33.75 -334.0 L-46.95 -334.25 Q-58.95 -334.35 -72.95 -327.15 -87.0 -319.9 -97.3 -306.55 -104.8 -296.95 -102.3 -281.75 M91.05 -278.55 L126.1 -274.45 113.75 -285.25 128.0 -296.35 108.35 -293.1 87.35 -282.2 M87.35 -282.1 L91.05 -278.55 Q116.95 -252.7 79.05 -267.1 M87.35 -282.1 L86.95 -282.1 87.3 -282.2 M-98.9 -245.15 L-98.85 -245.2 -93.25 -258.95 M-39.0 -265.45 Q-36.0 -262.85 -32.55 -257.45 L-27.95 -251.45 M-61.1 -240.9 L-57.8 -244.2 Q-55.9 -247.45 -54.3 -253.7 -52.15 -261.95 -49.3 -265.4 M-80.8 -264.5 Q-78.05 -261.4 -75.05 -255.1 L-73.35 -251.8 M-7.15 -247.9 L-11.65 -243.4 M-7.15 -247.9 Q-5.1 -251.15 -3.5 -256.35 -1.25 -263.7 1.9 -267.35" fill="none" stroke="#000000" stroke-linecap="round" stroke-linejoin="round" stroke-width="5.0"/>
      <path d="M-33.75 -334.0 Q-25.1 -328.1 2.35 -332.3" fill="none" stroke="#000000" stroke-linecap="round" stroke-linejoin="round" stroke-width="3.0"/>
    </g>
  </defs>
</svg>
