<?xml version="1.0" encoding="UTF-8" standalone="no"?>
<svg xmlns:xlink="http://www.w3.org/1999/xlink" height="434.9px" width="399.95px" xmlns="http://www.w3.org/2000/svg">
  <g transform="matrix(1, 0, 0, 1, 210.75, 443.1)">
    <use height="146.65" transform="matrix(1.0, 0.0, 0.0, 1.0, -156.15, -392.25)" width="269.8" xlink:href="#shape0"/>
  </g>
  <defs>
    <g id="shape0" transform="matrix(1, 0, 0, 1, 156.15, 392.25)">
      <path d="M104.5 -355.7 Q97.5 -355.15 88.2 -370.45 97.5 -355.15 104.5 -355.7 96.55 -350.05 89.95 -356.15 79.5 -353.1 74.8 -369.7 76.75 -370.5 78.25 -372.2 80.55 -375.0 80.3 -378.6 79.95 -382.25 77.2 -384.6 L75.75 -385.65 77.2 -384.6 Q79.95 -382.25 80.3 -378.6 80.55 -375.0 78.25 -372.2 76.75 -370.5 74.8 -369.7 73.6 -369.25 72.3 -369.15 L69.9 -369.25 Q67.8 -369.65 66.1 -371.0 L65.85 -371.2 Q63.1 -373.55 62.8 -377.15 62.5 -380.8 64.85 -383.55 67.15 -386.35 70.8 -386.6 73.5 -386.85 75.75 -385.65 91.95 -397.9 98.45 -373.55 102.05 -359.9 111.15 -360.65 108.15 -356.05 104.5 -355.7 M83.7 -365.1 Q86.65 -359.2 89.95 -356.15 86.65 -359.2 83.7 -365.1 M-115.25 -344.95 Q-117.05 -343.6 -119.45 -343.4 L-120.9 -343.35 Q-117.8 -326.0 -130.35 -320.05 -133.75 -315.35 -141.05 -313.85 -146.0 -309.2 -153.65 -313.65 -144.05 -316.55 -143.5 -336.9 -143.0 -357.3 -125.0 -358.25 -123.2 -359.6 -120.8 -359.8 -117.4 -360.1 -114.8 -357.9 -112.2 -355.7 -111.9 -352.25 -111.65 -349.1 -113.55 -346.65 L-113.85 -346.3 -115.25 -344.95 M-130.35 -320.05 Q-126.1 -325.95 -128.05 -337.0 -126.1 -325.95 -130.35 -320.05 M-134.3 -330.65 Q-136.45 -318.2 -141.05 -313.85 -136.45 -318.2 -134.3 -330.65 M-125.0 -358.25 L-126.45 -356.95 Q-128.6 -354.3 -128.3 -350.9 -128.05 -347.5 -125.45 -345.3 -123.45 -343.6 -120.9 -343.35 -123.45 -343.6 -125.45 -345.3 -128.05 -347.5 -128.3 -350.9 -128.6 -354.3 -126.45 -356.95 L-125.0 -358.25" fill="#fdf9fd" fill-rule="evenodd" stroke="none"/>
      <path d="M66.1 -371.0 Q67.8 -369.65 69.9 -369.25 76.7 -353.65 78.85 -336.25 L47.15 -326.45 53.85 -298.8 79.15 -307.2 Q78.2 -297.0 75.9 -286.25 85.15 -289.4 87.3 -282.3 72.4 -271.15 61.2 -280.95 49.95 -290.8 36.5 -280.6 19.2 -269.05 4.6 -276.2 -10.05 -283.45 -22.25 -268.8 -29.4 -260.35 -45.95 -262.95 -61.85 -266.8 -76.95 -253.8 -87.2 -243.85 -101.95 -251.2 -103.15 -258.75 -94.65 -258.15 -99.0 -267.3 -102.4 -276.95 L-68.3 -270.7 -65.4 -300.75 -111.15 -309.5 Q-114.35 -326.5 -115.25 -344.95 L-113.85 -346.3 -113.55 -346.65 Q-90.6 -346.2 -67.55 -338.8 L-51.65 -319.95 -37.25 -326.1 -27.9 -321.0 -23.2 -322.85 Q-12.7 -326.4 -1.8 -324.55 5.0 -330.85 11.65 -336.35 L27.55 -328.85 56.75 -357.95 50.1 -363.3 Q58.25 -367.85 66.1 -371.0 M5.45 -322.75 Q1.8 -323.95 -1.8 -324.55 1.8 -323.95 5.45 -322.75 M-31.7 -319.1 L-27.9 -321.0 -31.7 -319.1" fill="#f7e8f3" fill-rule="evenodd" stroke="none"/>
      <path d="M50.1 -363.3 L56.75 -357.95 27.55 -328.85 11.65 -336.35 Q25.95 -348.35 39.35 -356.9 44.8 -360.4 50.1 -363.3 M43.2 -353.1 L39.35 -356.9 43.2 -353.1 M79.15 -307.2 L53.85 -298.8 47.15 -326.45 78.85 -336.25 Q80.5 -322.3 79.15 -307.2 M37.5 -349.1 L25.95 -337.6 37.5 -349.1 M74.15 -313.05 L70.95 -327.3 63.2 -324.15 66.15 -312.85 63.2 -324.15 70.95 -327.3 74.15 -313.05 M59.4 -309.15 L56.4 -321.6 59.4 -309.15 M-102.4 -276.95 L-104.1 -281.9 Q-108.45 -295.2 -111.15 -309.5 L-65.4 -300.75 -68.3 -270.7 -102.4 -276.95 M-67.55 -338.8 Q-52.45 -333.95 -37.25 -326.1 L-51.65 -319.95 -67.55 -338.8 M-93.6 -297.5 L-103.25 -299.2 -93.6 -297.5 M-77.1 -280.3 L-75.6 -295.85 -87.05 -297.2 -75.6 -295.85 -77.1 -280.3 M-102.25 -287.25 L-95.85 -282.25 -102.25 -287.25 M-84.4 -289.3 L-85.8 -282.0 -95.5 -290.3 -85.8 -282.0 -84.4 -289.3" fill="#fffe01" fill-rule="evenodd" stroke="none"/>
      <path d="M88.2 -370.45 Q97.5 -355.15 104.5 -355.7 108.15 -356.05 111.15 -360.65 102.05 -359.9 98.45 -373.55 91.95 -397.9 75.75 -385.65 L77.2 -384.6 Q79.95 -382.25 80.3 -378.6 80.55 -375.0 78.25 -372.2 76.75 -370.5 74.8 -369.7 79.5 -353.1 89.95 -356.15 86.65 -359.2 83.7 -365.1 M104.5 -355.7 Q96.55 -350.05 89.95 -356.15 M75.75 -385.65 Q73.5 -386.85 70.8 -386.6 67.15 -386.35 64.85 -383.55 62.5 -380.8 62.8 -377.15 63.1 -373.55 65.85 -371.2 L66.1 -371.0 Q67.8 -369.65 69.9 -369.25 L72.3 -369.15 Q73.6 -369.25 74.8 -369.7 M11.65 -336.35 Q5.0 -330.85 -1.8 -324.55 1.8 -323.95 5.45 -322.75 M66.1 -371.0 Q58.25 -367.85 50.1 -363.3 44.8 -360.4 39.35 -356.9 M79.15 -307.2 Q80.5 -322.3 78.85 -336.25 76.7 -353.65 69.9 -369.25 M11.65 -336.35 Q25.95 -348.35 39.35 -356.9 M79.15 -307.2 Q78.2 -297.0 75.9 -286.25 85.15 -289.4 87.3 -282.3 72.4 -271.15 61.2 -280.95 49.95 -290.8 36.5 -280.6 19.2 -269.05 4.6 -276.2 -10.05 -283.45 -22.25 -268.8 -29.4 -260.35 -45.95 -262.95 -61.85 -266.8 -76.95 -253.8 -87.2 -243.85 -101.95 -251.2 -103.15 -258.75 -94.65 -258.15 -99.0 -267.3 -102.4 -276.95 L-104.1 -281.9 Q-108.45 -295.2 -111.15 -309.5 -114.35 -326.5 -115.25 -344.95 -117.05 -343.6 -119.45 -343.4 L-120.9 -343.35 Q-117.8 -326.0 -130.35 -320.05 -133.75 -315.35 -141.05 -313.85 -146.0 -309.2 -153.65 -313.65 -144.05 -316.55 -143.5 -336.9 -143.0 -357.3 -125.0 -358.25 -123.2 -359.6 -120.8 -359.8 -117.4 -360.1 -114.8 -357.9 -112.2 -355.7 -111.9 -352.25 -111.65 -349.1 -113.55 -346.65 -90.6 -346.2 -67.55 -338.8 -52.45 -333.95 -37.25 -326.1 L-27.9 -321.0 -23.2 -322.85 Q-12.7 -326.4 -1.8 -324.55 M-27.9 -321.0 L-31.7 -319.1 M-120.9 -343.35 Q-123.45 -343.6 -125.45 -345.3 -128.05 -347.5 -128.3 -350.9 -128.6 -354.3 -126.45 -356.95 L-125.0 -358.25 M-141.05 -313.85 Q-136.45 -318.2 -134.3 -330.65 M-128.05 -337.0 Q-126.1 -325.95 -130.35 -320.05 M-115.25 -344.95 L-113.85 -346.3 -113.55 -346.65" fill="none" stroke="#000000" stroke-linecap="round" stroke-linejoin="round" stroke-width="5.0"/>
      <path d="M56.4 -321.6 L59.4 -309.15 M66.15 -312.85 L63.2 -324.15 70.95 -327.3 74.15 -313.05 M25.95 -337.6 L37.5 -349.1 M-103.25 -299.2 L-93.6 -297.5 M-95.5 -290.3 L-85.8 -282.0 -84.4 -289.3 M-95.85 -282.25 L-102.25 -287.25 M-87.05 -297.2 L-75.6 -295.85 -77.1 -280.3" fill="none" stroke="#a7a603" stroke-linecap="square" stroke-linejoin="miter" stroke-miterlimit="768" stroke-width="4.0"/>
      <path d="M50.1 -363.3 L56.75 -357.95 27.55 -328.85 11.65 -336.35 M78.85 -336.25 L47.15 -326.45 53.85 -298.8 79.15 -307.2 M-67.55 -338.8 L-51.65 -319.95 -37.25 -326.1 M-102.4 -276.95 L-68.3 -270.7 -65.4 -300.75 -111.15 -309.5" fill="none" stroke="#000000" stroke-linecap="round" stroke-linejoin="miter" stroke-miterlimit="768" stroke-width="5.0"/>
      <path d="M39.35 -356.9 L43.2 -353.1" fill="none" stroke="#a7a603" stroke-linecap="round" stroke-linejoin="miter" stroke-miterlimit="768" stroke-width="4.0"/>
    </g>
  </defs>
</svg>
