<?xml version="1.0" encoding="UTF-8" standalone="no"?>
<svg xmlns:xlink="http://www.w3.org/1999/xlink" height="434.9px" width="399.95px" xmlns="http://www.w3.org/2000/svg">
  <g transform="matrix(1, 0, 0, 1, 210.75, 443.1)">
    <use height="62.65" transform="matrix(1.0, 0.0, 0.0, 1.0, -44.7, -351.05)" width="92.5" xlink:href="#shape0"/>
  </g>
  <defs>
    <g id="shape0" transform="matrix(1, 0, 0, 1, 44.7, 351.05)">
      <path d="M20.8 -331.05 Q30.0 -335.75 34.45 -348.4 L34.45 -336.05 37.1 -340.55 Q40.65 -332.75 38.65 -323.15 L29.75 -317.5 Q30.8 -321.3 32.6 -324.05 L19.0 -314.25 Q21.85 -322.55 20.8 -331.05 21.85 -322.55 19.0 -314.25 L32.6 -324.05 Q30.8 -321.3 29.75 -317.5 L38.65 -323.15 46.3 -328.05 Q39.45 -305.2 27.4 -305.75 L27.35 -306.05 27.25 -305.75 Q24.6 -297.8 12.3 -298.45 11.7 -295.45 9.35 -293.05 6.2 -289.9 1.75 -289.9 L1.3 -289.9 Q-3.1 -289.9 -6.25 -293.05 -8.6 -295.45 -9.2 -298.45 -21.5 -297.8 -24.15 -305.75 L-24.25 -306.05 -24.3 -305.75 Q-36.35 -305.2 -43.2 -328.05 L-35.55 -323.15 Q-37.55 -332.75 -34.0 -340.55 L-31.4 -336.05 -31.4 -348.4 Q-26.95 -335.75 -17.7 -331.05 -16.65 -339.3 -12.25 -349.55 -13.0 -340.0 -5.9 -330.1 -2.9 -326.0 -2.35 -323.9 -1.5 -320.65 -3.8 -310.1 -1.5 -311.35 1.3 -311.35 L1.75 -311.35 Q4.6 -311.35 6.9 -310.1 4.55 -320.65 5.45 -323.9 5.95 -326.0 8.95 -330.1 16.1 -340.0 15.35 -349.55 19.7 -339.3 20.8 -331.05 M9.85 -307.65 Q12.5 -304.7 12.5 -300.65 L12.3 -298.45 12.5 -300.65 Q12.5 -304.7 9.85 -307.65 L9.35 -308.2 6.9 -310.1 9.35 -308.2 9.85 -307.65 19.0 -314.25 9.85 -307.65 M27.35 -306.05 Q28.1 -308.6 29.05 -314.6 L29.75 -317.5 29.05 -314.6 Q28.1 -308.6 27.35 -306.05 M-17.7 -331.05 Q-18.8 -322.55 -15.9 -314.25 L-6.5 -307.45 -5.8 -308.2 -3.9 -309.75 Q-1.6 -311.25 1.3 -311.35 -1.6 -311.25 -3.9 -309.75 L-5.8 -308.2 -6.5 -307.45 Q-8.95 -304.55 -8.95 -300.65 L-8.75 -298.5 Q-8.15 -295.4 -5.8 -293.05 -2.85 -290.1 1.3 -289.9 -2.85 -290.1 -5.8 -293.05 -8.15 -295.4 -8.75 -298.5 L-8.95 -300.65 Q-8.95 -304.55 -6.5 -307.45 L-15.9 -314.25 -29.5 -324.05 Q-27.75 -321.3 -26.65 -317.5 -27.75 -321.3 -29.5 -324.05 L-15.9 -314.25 Q-18.8 -322.55 -17.7 -331.05 M-3.9 -309.75 L-3.8 -310.1 -3.9 -309.75 M-8.75 -298.5 L-9.2 -298.45 -8.75 -298.5 M-35.55 -323.15 L-26.65 -317.5 -26.0 -314.6 Q-25.0 -308.6 -24.25 -306.05 -25.0 -308.6 -26.0 -314.6 L-26.65 -317.5 -35.55 -323.15" fill="#c75727" fill-rule="evenodd" stroke="none"/>
      <path d="M27.4 -305.75 L27.25 -305.75 27.35 -306.05 27.4 -305.75 M-24.15 -305.75 L-24.3 -305.75 -24.25 -306.05 -24.15 -305.75" fill="#da6f41" fill-rule="evenodd" stroke="none"/>
      <path d="M38.65 -323.15 Q40.65 -332.75 37.1 -340.55 L34.45 -336.05 34.45 -348.4 Q30.0 -335.75 20.8 -331.05 21.85 -322.55 19.0 -314.25 L32.6 -324.05 Q30.8 -321.3 29.75 -317.5 L38.65 -323.15 46.3 -328.05 Q39.45 -305.2 27.4 -305.75 L27.25 -305.75 Q24.6 -297.8 12.3 -298.45 11.7 -295.45 9.35 -293.05 6.2 -289.9 1.75 -289.9 L1.3 -289.9 Q-3.1 -289.9 -6.25 -293.05 -8.6 -295.45 -9.2 -298.45 -21.5 -297.8 -24.15 -305.75 L-24.3 -305.75 Q-36.35 -305.2 -43.2 -328.05 L-35.55 -323.15 Q-37.55 -332.75 -34.0 -340.55 L-31.4 -336.05 -31.4 -348.4 Q-26.95 -335.75 -17.7 -331.05 -16.65 -339.3 -12.25 -349.55 -13.0 -340.0 -5.9 -330.1 -2.9 -326.0 -2.35 -323.9 -1.5 -320.65 -3.8 -310.1 -1.5 -311.35 1.3 -311.35 L1.75 -311.35 Q4.6 -311.35 6.9 -310.1 4.55 -320.65 5.45 -323.9 5.95 -326.0 8.95 -330.1 16.1 -340.0 15.35 -349.55 19.7 -339.3 20.8 -331.05 M6.9 -310.1 L9.35 -308.2 9.85 -307.65 19.0 -314.25 M12.3 -298.45 L12.5 -300.65 Q12.5 -304.7 9.85 -307.65 M27.35 -306.05 L27.25 -305.75 M29.75 -317.5 L29.05 -314.6 Q28.1 -308.6 27.35 -306.05 M-24.25 -306.05 L-24.15 -305.75 M-24.25 -306.05 Q-25.0 -308.6 -26.0 -314.6 L-26.65 -317.5 -35.55 -323.15 M1.3 -311.35 Q-1.6 -311.25 -3.9 -309.75 L-5.8 -308.2 -6.5 -307.45 Q-8.95 -304.55 -8.95 -300.65 L-8.75 -298.5 Q-8.15 -295.4 -5.8 -293.05 -2.85 -290.1 1.3 -289.9 M-9.2 -298.45 L-8.75 -298.5 M-3.8 -310.1 L-3.9 -309.75 M-6.5 -307.45 L-15.9 -314.25 -29.5 -324.05 Q-27.75 -321.3 -26.65 -317.5 M-15.9 -314.25 Q-18.8 -322.55 -17.7 -331.05" fill="none" stroke="#000000" stroke-linecap="round" stroke-linejoin="round" stroke-width="3.0"/>
      <path d="M5.6 -313.0 Q5.6 -314.65 6.75 -315.85 7.95 -317.0 9.6 -317.0 11.25 -317.0 12.35 -315.85 13.55 -314.65 13.55 -313.0 13.55 -311.35 12.35 -310.25 11.25 -309.05 9.6 -309.05 7.95 -309.05 6.75 -310.25 5.6 -311.35 5.6 -313.0 M12.35 -308.35 Q13.55 -309.5 15.2 -309.5 16.85 -309.5 18.0 -308.35 19.2 -307.15 19.2 -305.5 19.2 -303.85 18.0 -302.75 16.85 -301.55 15.2 -301.55 13.55 -301.55 12.35 -302.75 11.25 -303.85 11.25 -305.5 11.25 -307.15 12.35 -308.35" fill="#c75727" fill-rule="evenodd" stroke="none"/>
      <path d="M5.6 -313.0 Q5.6 -314.65 6.75 -315.85 7.95 -317.0 9.6 -317.0 11.25 -317.0 12.35 -315.85 13.55 -314.65 13.55 -313.0 13.55 -311.35 12.35 -310.25 11.25 -309.05 9.6 -309.05 7.95 -309.05 6.75 -310.25 5.6 -311.35 5.6 -313.0 M12.35 -308.35 Q13.55 -309.5 15.2 -309.5 16.85 -309.5 18.0 -308.35 19.2 -307.15 19.2 -305.5 19.2 -303.85 18.0 -302.75 16.85 -301.55 15.2 -301.55 13.55 -301.55 12.35 -302.75 11.25 -303.85 11.25 -305.5 11.25 -307.15 12.35 -308.35" fill="none" stroke="#000000" stroke-linecap="round" stroke-linejoin="round" stroke-width="2.0"/>
      <path d="M-3.6 -315.85 Q-4.8 -317.0 -6.45 -317.0 -8.1 -317.0 -9.25 -315.85 -10.45 -314.65 -10.45 -313.0 -10.45 -311.35 -9.25 -310.25 -8.1 -309.05 -6.45 -309.05 -4.8 -309.05 -3.6 -310.25 -2.5 -311.35 -2.5 -313.0 -2.5 -314.65 -3.6 -315.85 M-9.25 -308.35 Q-10.45 -309.5 -12.1 -309.5 -13.75 -309.5 -14.85 -308.35 -16.05 -307.15 -16.05 -305.5 -16.05 -303.85 -14.85 -302.75 -13.75 -301.55 -12.1 -301.55 -10.45 -301.55 -9.25 -302.75 -8.1 -303.85 -8.1 -305.5 -8.1 -307.15 -9.25 -308.35" fill="#c75727" fill-rule="evenodd" stroke="none"/>
      <path d="M-3.6 -315.85 Q-4.8 -317.0 -6.45 -317.0 -8.1 -317.0 -9.25 -315.85 -10.45 -314.65 -10.45 -313.0 -10.45 -311.35 -9.25 -310.25 -8.1 -309.05 -6.45 -309.05 -4.8 -309.05 -3.6 -310.25 -2.5 -311.35 -2.5 -313.0 -2.5 -314.65 -3.6 -315.85 M-9.25 -308.35 Q-10.45 -309.5 -12.1 -309.5 -13.75 -309.5 -14.85 -308.35 -16.05 -307.15 -16.05 -305.5 -16.05 -303.85 -14.85 -302.75 -13.75 -301.55 -12.1 -301.55 -10.45 -301.55 -9.25 -302.75 -8.1 -303.85 -8.1 -305.5 -8.1 -307.15 -9.25 -308.35" fill="none" stroke="#000000" stroke-linecap="round" stroke-linejoin="round" stroke-width="2.0"/>
    </g>
  </defs>
</svg>
