<?xml version="1.0" encoding="UTF-8" standalone="no"?>
<svg xmlns:xlink="http://www.w3.org/1999/xlink" height="434.9px" width="399.95px" xmlns="http://www.w3.org/2000/svg">
  <g transform="matrix(1, 0, 0, 1, 210.75, 443.1)">
    <use height="148.0" transform="matrix(1.0, 0.0, 0.0, 1.0, -120.05, -357.25)" width="242.2" xlink:href="#shape0"/>
  </g>
  <defs>
    <g id="shape0" transform="matrix(1, 0, 0, 1, 120.05, 357.25)">
      <path d="M73.9 -290.3 L71.5 -287.5 Q71.4 -291.2 72.6 -294.15 L73.7 -296.35 Q77.7 -302.9 89.2 -305.05 105.25 -308.05 116.55 -309.05 117.7 -298.1 111.05 -287.35 L121.25 -288.5 Q121.45 -268.0 110.9 -257.4 106.65 -253.1 104.1 -251.05 L104.0 -250.95 Q100.3 -248.0 100.25 -249.75 L103.8 -256.05 Q109.85 -267.5 116.0 -282.35 L106.5 -282.35 103.95 -280.25 103.0 -279.9 Q108.35 -295.25 111.7 -301.9 L112.0 -303.25 Q90.75 -302.05 78.5 -293.65 L73.9 -290.3 M100.8 -280.45 L100.85 -280.35 100.85 -280.3 100.8 -280.45 M-68.05 -289.4 Q-73.9 -291.9 -75.2 -292.25 L-83.4 -294.7 Q-99.0 -299.5 -112.95 -296.5 L-109.9 -290.35 Q-106.95 -284.55 -102.55 -279.7 L-102.15 -279.2 Q-106.15 -275.0 -114.45 -277.2 L-114.95 -276.5 Q-113.0 -265.95 -106.5 -257.35 -100.55 -249.4 -92.55 -245.05 L-91.45 -244.45 -89.95 -243.75 -91.9 -243.75 -92.45 -243.8 Q-111.7 -244.85 -118.85 -268.05 -120.85 -274.6 -119.45 -281.5 L-118.95 -281.95 -118.65 -282.15 -111.55 -281.95 Q-120.2 -294.0 -119.55 -302.05 -91.5 -305.0 -71.7 -296.1 L-71.55 -296.0 Q-66.5 -293.75 -67.25 -288.4 L-67.25 -288.35 -68.05 -289.4" fill="#000000" fill-rule="evenodd" stroke="none"/>
      <path d="M73.9 -290.3 L78.5 -293.65 Q90.75 -302.05 112.0 -303.25 L111.7 -301.9 Q108.35 -295.25 103.0 -279.9 L103.95 -280.25 106.5 -282.35 116.0 -282.35 Q109.85 -267.5 103.8 -256.05 L100.25 -249.75 Q97.4 -254.95 93.2 -258.65 L93.35 -258.9 Q98.6 -260.1 102.75 -266.4 106.4 -271.9 109.8 -277.9 L108.2 -277.6 Q99.95 -276.0 93.55 -280.2 101.05 -287.65 100.0 -296.75 86.4 -291.95 76.1 -282.2 74.95 -287.4 73.9 -290.3 M104.0 -250.95 L104.1 -251.05 104.0 -250.95 M76.1 -282.05 Q77.9 -277.85 77.2 -276.6 L76.55 -280.1 76.1 -282.05 M100.8 -280.45 L100.85 -280.3 100.85 -280.35 100.8 -280.45 M-70.2 -279.1 Q-84.6 -285.35 -99.5 -290.25 -101.05 -286.6 -97.1 -281.3 -92.45 -275.0 -87.7 -271.75 L-104.0 -269.75 Q-104.7 -268.35 -103.85 -267.15 -95.85 -255.75 -84.25 -255.4 L-85.0 -254.2 -85.55 -253.35 -86.1 -252.5 -86.85 -251.35 -91.45 -244.45 -92.55 -245.05 Q-100.55 -249.4 -106.5 -257.35 -113.0 -265.95 -114.95 -276.5 L-114.45 -277.2 Q-106.15 -275.0 -102.15 -279.2 L-102.55 -279.7 Q-106.95 -284.55 -109.9 -290.35 L-112.95 -296.5 Q-99.0 -299.5 -83.4 -294.7 L-75.2 -292.25 Q-73.9 -291.9 -68.05 -289.4 -67.75 -285.15 -70.2 -279.1 M-98.75 -265.0 L-98.65 -265.0 -98.65 -264.9 -98.75 -265.0 M-92.9 -243.75 L-93.45 -243.45 -93.45 -243.8 -92.9 -243.75" fill="#fbfbfb" fill-rule="evenodd" stroke="none"/>
      <path d="M76.1 -282.05 L76.05 -282.2 76.1 -282.2 Q86.4 -291.95 100.0 -296.75 101.05 -287.65 93.55 -280.2 99.95 -276.0 108.2 -277.6 L109.8 -277.9 Q106.4 -271.9 102.75 -266.4 98.6 -260.1 93.35 -258.9 L93.2 -258.65 Q85.05 -265.8 76.1 -282.05 M-84.25 -255.4 Q-95.85 -255.75 -103.85 -267.15 -104.7 -268.35 -104.0 -269.75 L-87.7 -271.75 Q-92.45 -275.0 -97.1 -281.3 -101.05 -286.6 -99.5 -290.25 -84.6 -285.35 -70.2 -279.1 -76.0 -268.55 -84.25 -255.4 M-86.85 -251.35 L-86.1 -252.5 -84.75 -251.4 -86.85 -251.35 M-98.75 -265.0 L-98.65 -264.9 -98.65 -265.0 -98.75 -265.0 M-71.65 -273.7 L-71.75 -273.5 Q-72.15 -274.05 -71.05 -276.9 -71.95 -274.4 -71.65 -273.7" fill="#eaeaea" fill-rule="evenodd" stroke="none"/>
      <path d="M35.7 -317.15 L35.7 -311.45 35.7 -317.15 Q90.75 -296.35 110.4 -236.55 L103.55 -234.5 110.4 -236.55 Q116.9 -232.6 118.5 -227.55 120.05 -222.5 120.15 -220.15 114.15 -226.4 112.85 -218.7 112.95 -222.9 108.1 -225.9 109.05 -222.7 106.5 -219.25 101.05 -224.05 103.55 -234.5 78.65 -294.75 35.7 -311.45 L9.35 -304.1 7.6 -321.6 35.7 -325.9 7.6 -321.6 -4.0 -355.25 35.7 -325.9 35.7 -317.15" fill="#760101" fill-rule="evenodd" stroke="none"/>
      <path d="M7.6 -321.6 L9.35 -304.1 -39.1 -312.75 -39.1 -317.45 -39.1 -312.75 Q-77.95 -285.1 -79.4 -251.5 -79.5 -249.35 -84.45 -229.7 -81.75 -225.0 -81.75 -219.65 -81.75 -214.3 -84.6 -211.25 -85.75 -214.15 -85.85 -215.5 -90.3 -214.75 -92.05 -211.7 -90.9 -215.7 -91.5 -219.55 -94.7 -216.55 -96.3 -214.0 -96.6 -222.3 -91.25 -229.65 L-84.45 -229.7 -91.25 -229.65 Q-86.15 -249.35 -85.95 -251.5 -82.35 -293.85 -39.1 -317.45 L-39.1 -328.25 -4.0 -355.25 7.6 -321.6 -39.1 -328.25 7.6 -321.6" fill="#540101" fill-rule="evenodd" stroke="none"/>
      <path d="M35.7 -311.45 L35.7 -317.15 35.7 -325.9 7.6 -321.6 9.35 -304.1 35.7 -311.45 Q78.65 -294.75 103.55 -234.5 L110.4 -236.55 Q90.75 -296.35 35.7 -317.15 M103.55 -234.5 Q101.05 -224.05 106.5 -219.25 109.05 -222.7 108.1 -225.9 112.95 -222.9 112.85 -218.7 114.15 -226.4 120.15 -220.15 120.05 -222.5 118.5 -227.55 116.9 -232.6 110.4 -236.55 M-39.1 -328.25 L-39.1 -317.45 -39.1 -312.75 9.35 -304.1 M-39.1 -328.25 L-4.0 -355.25 35.7 -325.9 M-91.25 -229.65 Q-96.6 -222.3 -96.3 -214.0 -94.7 -216.55 -91.5 -219.55 -90.9 -215.7 -92.05 -211.7 -90.3 -214.75 -85.85 -215.5 -85.75 -214.15 -84.6 -211.25 -81.75 -214.3 -81.75 -219.65 -81.75 -225.0 -84.45 -229.7 L-91.25 -229.65 Q-86.15 -249.35 -85.95 -251.5 -82.35 -293.85 -39.1 -317.45 M-39.1 -312.75 Q-77.95 -285.1 -79.4 -251.5 -79.5 -249.35 -84.45 -229.7 M7.6 -321.6 L-39.1 -328.25 M-4.0 -355.25 L7.6 -321.6" fill="none" stroke="#000000" stroke-linecap="round" stroke-linejoin="round" stroke-width="4.0"/>
    </g>
  </defs>
</svg>
