<?xml version="1.0" encoding="UTF-8" standalone="no"?>
<svg xmlns:xlink="http://www.w3.org/1999/xlink" height="434.9px" width="399.95px" xmlns="http://www.w3.org/2000/svg">
  <g transform="matrix(1, 0, 0, 1, 210.75, 443.1)">
    <use height="60.65" transform="matrix(1.0, 0.0, 0.0, 1.0, -156.45, -334.95)" width="318.8" xlink:href="#shape0"/>
  </g>
  <defs>
    <g id="shape0" transform="matrix(1, 0, 0, 1, 156.45, 334.95)">
      <path d="M129.5 -292.05 Q110.8 -315.0 109.15 -288.95 96.15 -316.55 70.5 -287.7 L66.9 -290.95 Q88.85 -316.25 86.9 -333.1 144.6 -320.5 159.6 -285.85 122.5 -316.35 129.5 -292.05" fill="#5b1c1c" fill-rule="evenodd" stroke="none"/>
      <path d="M129.5 -292.05 Q110.8 -315.0 109.15 -288.95 96.15 -316.55 70.5 -287.7 L66.9 -290.95 Q88.85 -316.25 86.9 -333.1 144.6 -320.5 159.6 -285.85 122.5 -316.35 129.5 -292.05" fill="none" stroke="#000000" stroke-linecap="round" stroke-linejoin="miter" stroke-miterlimit="768" stroke-width="3.0"/>
      <path d="M-124.55 -286.95 Q-107.95 -311.4 -104.05 -285.6 -93.5 -314.2 -65.35 -287.7 L-62.05 -291.3 Q-86.15 -314.55 -85.7 -331.55 -142.1 -313.95 -154.05 -278.1 -119.7 -311.75 -124.55 -286.95" fill="#5b1c1c" fill-rule="evenodd" stroke="none"/>
      <path d="M-124.55 -286.95 Q-107.95 -311.4 -104.05 -285.6 -93.5 -314.2 -65.35 -287.7 L-62.05 -291.3 Q-86.15 -314.55 -85.7 -331.55 -142.1 -313.95 -154.05 -278.1 -119.7 -311.75 -124.55 -286.95" fill="none" stroke="#000000" stroke-linecap="round" stroke-linejoin="miter" stroke-miterlimit="768" stroke-width="3.0"/>
    </g>
  </defs>
</svg>
