<?xml version="1.0" encoding="UTF-8" standalone="no"?>
<svg xmlns:xlink="http://www.w3.org/1999/xlink" height="434.9px" width="399.95px" xmlns="http://www.w3.org/2000/svg">
  <g transform="matrix(1, 0, 0, 1, 210.75, 443.1)">
    <use height="148.6" transform="matrix(1.0, 0.0, 0.0, 1.0, -125.45, -343.3)" width="229.15" xlink:href="#shape0"/>
  </g>
  <defs>
    <g id="shape0" transform="matrix(1, 0, 0, 1, 125.45, 343.3)">
      <path d="M-104.45 -245.1 Q-117.05 -268.65 -99.1 -292.15 -81.2 -315.65 -59.5 -324.45 -37.8 -333.3 2.3 -339.75 42.4 -346.25 50.9 -313.05 26.5 -296.55 1.1 -283.5 26.5 -296.55 50.9 -313.05 73.5 -306.65 99.1 -294.4 86.95 -294.55 76.85 -291.6 72.7 -290.35 68.9 -288.6 64.2 -286.45 60.05 -283.5 34.05 -290.05 1.1 -283.5 L-3.6 -281.1 Q-17.25 -274.3 -31.2 -268.45 -17.25 -274.3 -3.6 -281.1 L37.1 -252.05 Q-15.4 -268.85 -26.65 -259.55 L-26.65 -259.5 -31.2 -268.45 -39.95 -264.9 Q-71.45 -252.55 -104.45 -245.1 -71.45 -252.55 -39.95 -264.9 L-46.5 -235.55 -51.75 -231.85 Q-69.25 -220.4 -89.65 -218.95 -93.95 -218.7 -98.4 -218.8 L-107.4 -219.55 -119.05 -222.25 Q-115.2 -236.0 -104.45 -245.1" fill="#f02d2d" fill-rule="evenodd" stroke="none"/>
      <path d="M99.1 -294.4 Q104.05 -288.4 97.35 -268.15 88.4 -278.15 68.9 -288.6 72.7 -290.35 76.85 -291.6 86.95 -294.55 99.1 -294.4 M-89.65 -218.95 Q-100.6 -216.1 -105.45 -197.2 -122.25 -202.65 -119.05 -222.25 L-107.4 -219.55 -98.4 -218.8 Q-93.95 -218.7 -89.65 -218.95" fill="#ae0d0d" fill-rule="evenodd" stroke="none"/>
      <path d="M-39.95 -264.9 L-31.2 -268.45 -26.65 -259.5 Q-35.05 -244.45 -46.5 -235.55 L-39.95 -264.9 M-3.6 -281.1 L1.1 -283.5 Q34.05 -290.05 60.05 -283.5 52.75 -262.05 37.1 -252.05 L-3.6 -281.1" fill="#e71010" fill-rule="evenodd" stroke="none"/>
      <path d="M50.9 -313.05 Q42.4 -346.25 2.3 -339.75 -37.8 -333.3 -59.5 -324.45 -81.2 -315.65 -99.1 -292.15 -117.05 -268.65 -104.45 -245.1 -71.45 -252.55 -39.95 -264.9 L-31.2 -268.45 Q-17.25 -274.3 -3.6 -281.1 L1.1 -283.5 Q26.5 -296.55 50.9 -313.05 73.5 -306.65 99.1 -294.4 104.05 -288.4 97.35 -268.15 88.4 -278.15 68.9 -288.6 64.2 -286.45 60.05 -283.5 52.75 -262.05 37.1 -252.05 -15.4 -268.85 -26.65 -259.55 L-26.65 -259.5 Q-35.05 -244.45 -46.5 -235.55 L-51.75 -231.85 Q-69.25 -220.4 -89.65 -218.95 -100.6 -216.1 -105.45 -197.2 -122.25 -202.65 -119.05 -222.25 -115.2 -236.0 -104.45 -245.1 M68.9 -288.6 Q72.7 -290.35 76.85 -291.6 86.95 -294.55 99.1 -294.4 M-119.05 -222.25 L-107.4 -219.55 -98.4 -218.8 Q-93.95 -218.7 -89.65 -218.95" fill="none" stroke="#000000" stroke-linecap="round" stroke-linejoin="round" stroke-width="5.0"/>
      <path d="M60.05 -283.5 Q34.05 -290.05 1.1 -283.5 M-26.65 -259.5 L-31.2 -268.45 M-46.5 -235.55 L-39.95 -264.9 M-3.6 -281.1 L37.1 -252.05" fill="none" stroke="#010101" stroke-linecap="round" stroke-linejoin="round" stroke-opacity="0.0" stroke-width="5.0"/>
      <path d="M-114.85 -275.0 L-115.9 -273.55 -114.45 -272.65 -113.4 -271.8 -114.85 -275.0 M20.45 -331.15 L20.5 -331.1 Q28.35 -328.1 30.5 -319.7 L30.55 -319.6 Q32.4 -312.1 28.85 -303.6 L28.85 -303.55 Q26.15 -297.35 19.15 -298.05 14.3 -298.4 6.6 -303.5 L6.5 -303.55 Q1.65 -306.7 -1.35 -306.05 -4.05 -304.8 -5.45 -299.7 -8.0 -290.6 -12.85 -287.5 -18.1 -283.7 -25.75 -286.8 L-29.85 -287.0 Q-31.5 -284.8 -31.45 -278.95 -31.5 -259.6 -47.85 -258.1 L-47.95 -258.05 Q-97.3 -252.0 -105.7 -261.6 L-105.75 -261.65 Q-110.15 -266.1 -112.7 -270.5 L-112.65 -270.35 Q-112.2 -268.85 -112.95 -267.5 -113.75 -266.1 -115.25 -265.65 -116.75 -265.25 -118.1 -266.0 -125.5 -270.15 -123.15 -275.85 -122.4 -279.3 -116.95 -283.1 -118.6 -287.8 -122.65 -291.3 -123.85 -292.35 -123.95 -293.9 -124.1 -295.45 -123.05 -296.65 -122.0 -297.85 -120.45 -297.95 -118.9 -298.1 -117.7 -297.05 -110.75 -291.05 -108.85 -282.6 L-108.7 -281.35 -108.6 -281.0 Q-107.4 -274.1 -100.3 -266.95 L-100.25 -266.9 Q-92.8 -260.15 -48.75 -265.6 L-48.65 -265.65 Q-39.05 -266.95 -39.0 -278.95 -39.1 -288.8 -35.25 -292.25 -31.25 -297.05 -22.95 -293.8 L-22.9 -293.75 Q-19.5 -292.45 -17.15 -293.8 -14.4 -295.95 -12.75 -301.75 -10.0 -311.5 -3.8 -313.2 2.0 -315.55 10.7 -309.85 L10.75 -309.85 Q16.45 -306.05 19.95 -305.55 21.25 -305.45 21.8 -306.5 24.3 -312.55 23.15 -317.85 L23.15 -317.9 Q21.95 -322.4 17.8 -324.05 L12.5 -324.25 12.5 -324.2 Q11.9 -323.1 13.85 -319.7 14.6 -318.35 14.2 -316.8 13.8 -315.3 12.45 -314.55 11.05 -313.8 9.55 -314.2 8.0 -314.6 7.25 -315.9 1.4 -326.2 7.8 -330.25 L7.8 -330.2 Q12.3 -334.2 20.45 -331.15" fill="#aa8d4d" fill-rule="evenodd" stroke="none"/>
      <path d="M20.45 -331.15 Q12.3 -334.2 7.8 -330.2 L7.8 -330.25 Q1.4 -326.2 7.25 -315.9 8.0 -314.6 9.55 -314.2 11.05 -313.8 12.45 -314.55 13.8 -315.3 14.2 -316.8 14.6 -318.35 13.85 -319.7 11.9 -323.1 12.5 -324.2 L12.5 -324.25 17.8 -324.05 Q21.95 -322.4 23.15 -317.9 L23.15 -317.85 Q24.3 -312.55 21.8 -306.5 21.25 -305.45 19.95 -305.55 16.45 -306.05 10.75 -309.85 L10.7 -309.85 Q2.0 -315.55 -3.8 -313.2 -10.0 -311.5 -12.75 -301.75 -14.4 -295.95 -17.15 -293.8 -19.5 -292.45 -22.9 -293.75 L-22.95 -293.8 Q-31.25 -297.05 -35.25 -292.25 -39.1 -288.8 -39.0 -278.95 -39.05 -266.95 -48.65 -265.65 L-48.75 -265.6 Q-92.8 -260.15 -100.25 -266.9 L-100.3 -266.95 Q-107.4 -274.1 -108.6 -281.0 L-108.7 -281.35 -108.85 -282.6 Q-110.75 -291.05 -117.7 -297.05 -118.9 -298.1 -120.45 -297.95 -122.0 -297.85 -123.05 -296.65 -124.1 -295.45 -123.95 -293.9 -123.85 -292.35 -122.65 -291.3 -118.6 -287.8 -116.95 -283.1 -122.4 -279.3 -123.15 -275.85 -125.5 -270.15 -118.1 -266.0 -116.75 -265.25 -115.25 -265.65 -113.75 -266.1 -112.95 -267.5 -112.2 -268.85 -112.65 -270.35 L-112.7 -270.5 Q-110.15 -266.1 -105.75 -261.65 L-105.7 -261.6 Q-97.3 -252.0 -47.95 -258.05 L-47.85 -258.1 Q-31.5 -259.6 -31.45 -278.95 -31.5 -284.8 -29.85 -287.0 L-25.75 -286.8 Q-18.1 -283.7 -12.85 -287.5 -8.0 -290.6 -5.45 -299.7 -4.05 -304.8 -1.35 -306.05 1.65 -306.7 6.5 -303.55 L6.6 -303.5 Q14.3 -298.4 19.15 -298.05 26.15 -297.35 28.85 -303.55 L28.85 -303.6 Q32.4 -312.1 30.55 -319.6 L30.5 -319.7 Q28.35 -328.1 20.5 -331.1 L20.45 -331.15 M-114.85 -275.0 L-113.4 -271.8 -114.45 -272.65 -115.9 -273.55 -114.85 -275.0" fill="none" stroke="#000000" stroke-linecap="round" stroke-linejoin="round" stroke-width="3.0"/>
      <path d="M-99.4 -280.3 Q-97.15 -282.6 -93.9 -282.55 -90.6 -282.55 -88.3 -280.25 -86.3 -278.3 -86.05 -275.5 L-85.7 -275.85 Q-83.4 -278.2 -80.05 -278.2 -76.7 -278.2 -74.35 -275.85 -72.9 -274.45 -72.35 -272.65 -70.45 -274.4 -67.8 -274.4 -64.95 -274.4 -62.95 -272.4 -60.95 -270.45 -60.95 -267.6 -60.95 -266.75 -61.1 -266.0 -60.65 -266.95 -59.85 -267.7 -57.9 -269.7 -55.05 -269.7 -52.2 -269.7 -50.2 -267.7 -48.2 -265.75 -48.2 -262.9 -48.2 -260.05 -50.15 -258.05 -52.15 -256.1 -55.0 -256.1 -57.9 -256.1 -59.85 -258.05 L-60.1 -258.25 -60.05 -257.55 Q-60.05 -254.7 -62.0 -252.7 -64.0 -250.75 -66.85 -250.75 -69.65 -250.75 -71.6 -252.6 -72.1 -250.55 -73.65 -249.0 -75.85 -246.8 -79.0 -246.8 -82.2 -246.8 -84.4 -248.95 -86.55 -251.2 -86.55 -254.35 -86.55 -256.0 -85.9 -257.4 L-86.4 -256.85 Q-87.9 -255.4 -89.85 -255.05 L-89.1 -254.35 Q-86.6 -251.9 -86.55 -248.35 -86.55 -244.8 -89.05 -242.3 -91.55 -239.85 -95.1 -239.85 -98.7 -239.85 -101.15 -242.3 -103.1 -244.25 -103.5 -246.8 -104.8 -246.25 -106.3 -246.25 -109.2 -246.25 -111.15 -248.2 -113.15 -250.2 -113.1 -253.05 -113.15 -255.9 -111.15 -257.85 -109.9 -259.1 -108.3 -259.55 L-108.6 -259.85 Q-110.75 -262.0 -110.7 -265.05 -110.7 -268.1 -108.6 -270.2 -106.5 -272.35 -103.45 -272.35 L-101.25 -272.05 Q-101.7 -273.3 -101.7 -274.7 -101.7 -278.0 -99.4 -280.3 M-96.2 -266.4 L-96.1 -266.5 -95.45 -267.05 -96.45 -267.3 -96.2 -266.4 Q-98.1 -264.45 -98.05 -261.7 L-97.9 -260.2 -98.05 -261.7 Q-98.1 -264.45 -96.2 -266.4 M-96.1 -256.8 L-96.1 -256.85 Q-97.55 -258.3 -97.9 -260.2 L-98.25 -259.85 Q-99.7 -258.4 -101.65 -257.95 L-101.5 -257.85 Q-100.4 -256.8 -99.9 -255.4 -98.2 -256.6 -96.1 -256.8 -94.1 -254.9 -91.25 -254.9 L-89.85 -255.05 -91.25 -254.9 Q-94.1 -254.9 -96.1 -256.8 M-95.45 -267.05 Q-93.7 -268.5 -91.3 -268.5 L-89.4 -268.25 -91.3 -268.5 Q-93.7 -268.5 -95.45 -267.05 M-101.25 -272.05 Q-100.7 -270.45 -99.45 -269.15 -98.1 -267.85 -96.45 -267.3 -98.1 -267.85 -99.45 -269.15 -100.7 -270.45 -101.25 -272.05 M-88.0 -269.4 Q-86.0 -271.65 -86.0 -274.7 L-86.05 -275.5 -86.0 -274.7 Q-86.0 -271.65 -88.0 -269.4 L-88.25 -269.15 -89.4 -268.25 Q-88.45 -268.0 -87.6 -267.45 L-88.0 -269.4 M-103.5 -246.8 L-103.6 -248.35 Q-103.6 -251.9 -101.1 -254.4 L-99.9 -255.4 -101.1 -254.4 Q-103.6 -251.9 -103.6 -248.35 L-103.5 -246.8 M-108.3 -259.55 Q-106.3 -257.75 -103.4 -257.8 L-101.65 -257.95 -103.4 -257.8 Q-106.3 -257.75 -108.3 -259.55 M-84.7 -263.6 Q-85.2 -265.25 -86.45 -266.5 L-87.6 -267.45 -86.45 -266.5 Q-85.2 -265.25 -84.7 -263.6 L-84.45 -261.7 Q-84.45 -260.25 -84.95 -259.0 L-84.35 -259.7 Q-82.2 -261.9 -79.05 -261.85 -75.9 -261.85 -73.7 -259.65 L-73.45 -259.4 Q-73.05 -260.95 -71.9 -262.15 L-72.6 -262.75 Q-73.55 -263.7 -74.0 -264.8 L-74.3 -264.5 Q-76.65 -262.2 -80.0 -262.2 -82.7 -262.2 -84.7 -263.6 M-62.75 -262.95 Q-64.5 -264.35 -66.9 -264.35 -69.75 -264.35 -71.7 -262.35 L-71.9 -262.15 -71.7 -262.35 Q-69.75 -264.35 -66.9 -264.35 -64.5 -264.35 -62.75 -262.95 L-62.05 -262.35 -61.75 -262.05 -61.8 -262.9 -61.65 -264.5 -62.75 -262.95 M-72.35 -272.65 Q-72.0 -271.5 -71.95 -270.2 -71.95 -267.05 -74.0 -264.8 -71.95 -267.05 -71.95 -270.2 -72.0 -271.5 -72.35 -272.65 M-61.1 -266.0 Q-61.3 -265.2 -61.65 -264.5 -61.3 -265.2 -61.1 -266.0 M-71.6 -252.6 L-71.7 -252.7 Q-73.7 -254.7 -73.65 -257.55 L-73.45 -259.4 -73.65 -257.55 Q-73.7 -254.7 -71.7 -252.7 L-71.6 -252.6 M-85.9 -257.4 L-84.95 -259.0 -85.9 -257.4 M-61.75 -262.05 Q-60.3 -260.45 -60.1 -258.25 -60.3 -260.45 -61.75 -262.05" fill="#8855ff" fill-rule="evenodd" stroke="none"/>
      <path d="M-99.4 -280.3 Q-97.15 -282.6 -93.9 -282.55 -90.6 -282.55 -88.3 -280.25 -86.3 -278.3 -86.05 -275.5 L-85.7 -275.85 Q-83.4 -278.2 -80.05 -278.2 -76.7 -278.2 -74.35 -275.85 -72.9 -274.45 -72.35 -272.65 -70.45 -274.4 -67.8 -274.4 -64.95 -274.4 -62.95 -272.4 -60.95 -270.45 -60.95 -267.6 -60.95 -266.75 -61.1 -266.0 -60.65 -266.95 -59.85 -267.7 -57.9 -269.7 -55.05 -269.7 -52.2 -269.7 -50.2 -267.7 -48.2 -265.75 -48.2 -262.9 -48.2 -260.05 -50.15 -258.05 -52.15 -256.1 -55.0 -256.1 -57.9 -256.1 -59.85 -258.05 L-60.1 -258.25 -60.05 -257.55 Q-60.05 -254.7 -62.0 -252.7 -64.0 -250.75 -66.85 -250.75 -69.65 -250.75 -71.6 -252.6 -72.1 -250.55 -73.65 -249.0 -75.85 -246.8 -79.0 -246.8 -82.2 -246.8 -84.4 -248.95 -86.55 -251.2 -86.55 -254.35 -86.55 -256.0 -85.9 -257.4 L-86.4 -256.85 Q-87.9 -255.4 -89.85 -255.05 L-89.1 -254.35 Q-86.6 -251.9 -86.55 -248.35 -86.55 -244.8 -89.05 -242.3 -91.55 -239.85 -95.1 -239.85 -98.7 -239.85 -101.15 -242.3 -103.1 -244.25 -103.5 -246.8 -104.8 -246.25 -106.3 -246.25 -109.2 -246.25 -111.15 -248.2 -113.15 -250.2 -113.1 -253.05 -113.15 -255.9 -111.15 -257.85 -109.9 -259.1 -108.3 -259.55 L-108.6 -259.85 Q-110.75 -262.0 -110.7 -265.05 -110.7 -268.1 -108.6 -270.2 -106.5 -272.35 -103.45 -272.35 L-101.25 -272.05 Q-101.7 -273.3 -101.7 -274.7 -101.7 -278.0 -99.4 -280.3 M-95.45 -267.05 L-96.1 -266.5 -96.2 -266.4 Q-98.1 -264.45 -98.05 -261.7 L-97.9 -260.2 Q-97.55 -258.3 -96.1 -256.85 L-96.1 -256.8 Q-94.1 -254.9 -91.25 -254.9 L-89.85 -255.05 M-95.45 -267.05 L-96.45 -267.3 -96.2 -266.4 M-96.45 -267.3 Q-98.1 -267.85 -99.45 -269.15 -100.7 -270.45 -101.25 -272.05 M-89.4 -268.25 L-91.3 -268.5 Q-93.7 -268.5 -95.45 -267.05 M-97.9 -260.2 L-98.25 -259.85 Q-99.7 -258.4 -101.65 -257.95 L-101.5 -257.85 Q-100.4 -256.8 -99.9 -255.4 -98.2 -256.6 -96.1 -256.8 M-101.65 -257.95 L-103.4 -257.8 Q-106.3 -257.75 -108.3 -259.55 M-99.9 -255.4 L-101.1 -254.4 Q-103.6 -251.9 -103.6 -248.35 L-103.5 -246.8 M-86.05 -275.5 L-86.0 -274.7 Q-86.0 -271.65 -88.0 -269.4 L-87.6 -267.45 -86.45 -266.5 Q-85.2 -265.25 -84.7 -263.6 -82.7 -262.2 -80.0 -262.2 -76.65 -262.2 -74.3 -264.5 L-74.0 -264.8 Q-71.95 -267.05 -71.95 -270.2 -72.0 -271.5 -72.35 -272.65 M-71.9 -262.15 L-71.7 -262.35 Q-69.75 -264.35 -66.9 -264.35 -64.5 -264.35 -62.75 -262.95 L-61.65 -264.5 Q-61.3 -265.2 -61.1 -266.0 M-84.7 -263.6 L-84.45 -261.7 Q-84.45 -260.25 -84.95 -259.0 L-84.35 -259.7 Q-82.2 -261.9 -79.05 -261.85 -75.9 -261.85 -73.7 -259.65 L-73.45 -259.4 Q-73.05 -260.95 -71.9 -262.15 L-72.6 -262.75 Q-73.55 -263.7 -74.0 -264.8 M-88.0 -269.4 L-88.25 -269.15 -89.4 -268.25 Q-88.45 -268.0 -87.6 -267.45 M-84.95 -259.0 L-85.9 -257.4 M-73.45 -259.4 L-73.65 -257.55 Q-73.7 -254.7 -71.7 -252.7 L-71.6 -252.6 M-62.75 -262.95 L-62.05 -262.35 -61.75 -262.05 -61.8 -262.9 -61.65 -264.5 M-60.1 -258.25 Q-60.3 -260.45 -61.75 -262.05" fill="none" stroke="#000000" stroke-linecap="round" stroke-linejoin="round" stroke-width="3.0"/>
    </g>
  </defs>
</svg>
