<?xml version="1.0" encoding="UTF-8" standalone="no"?>
<svg xmlns:xlink="http://www.w3.org/1999/xlink" height="434.9px" width="399.95px" xmlns="http://www.w3.org/2000/svg">
  <g transform="matrix(1, 0, 0, 1, 210.75, 443.1)">
    <use height="233.7" transform="matrix(1.0, 0.0, 0.0, 1.0, -130.85, -338.35)" width="249.85" xlink:href="#shape0"/>
  </g>
  <defs>
    <g id="shape0" transform="matrix(1, 0, 0, 1, 130.85, 338.35)">
      <path d="M98.0 -229.7 Q78.45 -269.2 25.05 -275.4 13.3 -278.55 4.9 -253.65 L-3.9 -329.5 4.9 -253.65 Q13.3 -278.55 25.05 -275.4 78.45 -269.2 98.0 -229.7 113.2 -198.95 116.5 -148.0 95.05 -134.3 70.0 -145.5 L74.6 -155.7 75.95 -158.75 74.6 -155.7 Q65.55 -138.85 20.2 -128.0 L25.7 -114.1 Q3.6 -100.85 -43.95 -112.8 L-38.05 -133.0 Q1.3 -117.7 20.2 -128.0 1.3 -117.7 -38.05 -133.0 -64.75 -138.25 -77.35 -157.9 L-69.0 -143.5 Q-109.3 -132.05 -128.35 -152.5 -126.1 -176.6 -121.25 -195.9 L-121.95 -196.05 Q-126.1 -269.0 -87.6 -299.35 -49.1 -329.7 -24.4 -328.8 -14.25 -342.55 -3.9 -329.5 18.1 -327.1 43.05 -315.3 67.95 -303.5 80.6 -286.45 93.25 -269.45 98.0 -229.7 M10.95 -191.25 Q12.95 -197.35 13.95 -203.4 L-3.65 -201.2 Q-6.55 -207.8 -8.35 -214.7 L14.9 -217.45 Q14.65 -224.75 13.0 -232.05 11.7 -237.85 9.45 -243.65 7.5 -248.65 4.9 -253.65 L-10.75 -251.55 -24.4 -328.8 -10.75 -251.55 4.9 -253.65 Q7.5 -248.65 9.45 -243.65 L16.5 -244.5 9.45 -243.65 Q11.7 -237.85 13.0 -232.05 L18.0 -232.5 13.0 -232.05 Q14.65 -224.75 14.9 -217.45 L-8.35 -214.7 Q-6.55 -207.8 -3.65 -201.2 L13.95 -203.4 Q12.95 -197.35 10.95 -191.25 8.7 -193.0 5.75 -193.0 3.2 -193.0 1.2 -191.7 L-0.45 -190.45 Q-3.0 -187.85 -3.0 -184.25 -3.0 -180.65 -0.45 -178.1 L0.2 -177.5 -7.5 -167.65 -18.5 -153.5 -9.2 -146.05 1.25 -137.6 9.0 -131.4 17.05 -139.65 26.6 -149.45 33.5 -156.5 22.5 -167.9 12.0 -177.95 Q14.5 -180.9 14.5 -184.25 14.5 -187.85 11.9 -190.45 L10.95 -191.25 M18.5 -204.0 L13.95 -203.4 Q15.1 -210.45 14.9 -217.45 L19.5 -218.0 14.9 -217.45 Q15.1 -210.45 13.95 -203.4 L18.5 -204.0 M25.05 -275.4 Q77.55 -261.3 97.0 -205.65 L91.65 -183.95 Q88.0 -169.05 75.95 -158.75 54.75 -149.7 33.5 -156.5 54.75 -149.7 75.95 -158.75 88.0 -169.05 91.65 -183.95 L97.0 -205.65 Q77.55 -261.3 25.05 -275.4 M41.65 -228.85 Q41.1 -228.75 40.7 -228.2 35.15 -220.75 35.15 -210.25 35.15 -199.75 40.7 -192.3 46.25 -184.85 55.1 -183.35 63.1 -182.0 75.55 -186.8 L90.0 -193.15 Q80.4 -250.85 41.65 -228.85 M-16.9 -240.45 L-11.45 -241.1 Q-11.55 -235.5 -11.05 -230.0 L-17.0 -229.5 -11.05 -230.0 Q-11.55 -235.5 -11.45 -241.1 L-16.9 -240.45 M107.5 -151.0 Q105.2 -182.05 97.0 -205.65 105.2 -182.05 107.5 -151.0 M-61.8 -181.55 L-40.2 -180.6 Q-32.35 -180.6 -26.8 -188.05 -21.25 -195.45 -21.25 -205.95 -21.25 -216.5 -26.8 -223.95 L-29.05 -227.75 Q-75.4 -245.6 -79.7 -191.55 L-61.8 -181.55 M-41.7 -273.8 Q-87.65 -261.45 -107.1 -209.15 -115.75 -185.9 -119.15 -154.75 -115.75 -185.9 -107.1 -209.15 -87.65 -261.45 -41.7 -273.8 -102.05 -272.65 -121.25 -195.9 -102.05 -272.65 -41.7 -273.8 -29.45 -277.1 -10.75 -251.55 -11.35 -246.25 -11.45 -241.1 L9.45 -243.65 -11.45 -241.1 Q-11.35 -246.25 -10.75 -251.55 -29.45 -277.1 -41.7 -273.8 M13.0 -232.05 L-11.05 -230.0 Q-10.35 -222.15 -8.35 -214.7 L-14.5 -214.0 -8.35 -214.7 Q-10.35 -222.15 -11.05 -230.0 L13.0 -232.05 M1.2 -191.7 Q-1.5 -196.4 -3.65 -201.2 L-9.5 -200.5 -3.65 -201.2 Q-1.5 -196.4 1.2 -191.7 M-77.35 -157.95 Q-47.95 -148.25 -18.5 -153.5 -47.95 -148.25 -77.35 -157.95 L-77.4 -157.95 -77.35 -157.9 -77.35 -157.95 M-107.1 -209.15 Q-103.35 -197.35 -97.65 -186.05 -89.7 -170.15 -77.4 -157.95 -89.7 -170.15 -97.65 -186.05 -103.35 -197.35 -107.1 -209.15" fill="#333333" fill-rule="evenodd" stroke="none"/>
      <path d="M41.65 -228.85 Q43.65 -229.15 47.6 -223.8 77.0 -242.95 75.55 -186.8 63.1 -182.0 55.1 -183.35 46.25 -184.85 40.7 -192.3 35.15 -199.75 35.15 -210.25 35.15 -220.75 40.7 -228.2 41.1 -228.75 41.65 -228.85 M-29.05 -227.75 L-26.8 -223.95 Q-21.25 -216.5 -21.25 -205.95 -21.25 -195.45 -26.8 -188.05 -32.35 -180.6 -40.2 -180.6 L-61.8 -181.55 Q-73.15 -239.65 -31.5 -222.45 L-29.05 -227.75" fill="#2f2f2f" fill-opacity="0.9529412" fill-rule="evenodd" stroke="none"/>
      <path d="M47.6 -223.8 Q43.65 -229.15 41.65 -228.85 80.4 -250.85 90.0 -193.15 L75.55 -186.8 Q77.0 -242.95 47.6 -223.8 M-61.8 -181.55 L-79.7 -191.55 Q-75.4 -245.6 -29.05 -227.75 L-31.5 -222.45 Q-73.15 -239.65 -61.8 -181.55" fill="#222222" fill-rule="evenodd" stroke="none"/>
      <path d="M10.95 -191.25 L11.9 -190.45 Q14.5 -187.85 14.5 -184.25 14.5 -180.9 12.0 -177.95 L22.5 -167.9 33.5 -156.5 26.6 -149.45 -9.2 -146.05 26.6 -149.45 17.05 -139.65 9.0 -131.4 1.25 -137.6 -9.2 -146.05 -18.5 -153.5 33.5 -156.5 -18.5 -153.5 -7.5 -167.65 0.2 -177.5 -0.45 -178.1 Q-3.0 -180.65 -3.0 -184.25 -3.0 -187.85 -0.45 -190.45 L1.2 -191.7 Q3.2 -193.0 5.75 -193.0 8.7 -193.0 10.95 -191.25 M22.5 -162.5 L22.5 -167.9 22.5 -162.5 M12.0 -177.95 L12.0 -176.3 2.0 -176.3 0.2 -177.5 2.0 -176.3 12.0 -176.3 12.0 -177.95 M1.25 -137.6 L17.05 -139.65 1.25 -137.6 M12.0 -176.3 L12.0 -161.5 12.0 -176.3 M2.0 -161.0 L2.0 -176.3 2.0 -161.0 M-7.5 -160.0 L-7.5 -167.65 -7.5 -160.0" fill="#888888" fill-rule="evenodd" stroke="none"/>
      <path d="M-3.9 -329.5 L4.9 -253.65 Q13.3 -278.55 25.05 -275.4 78.45 -269.2 98.0 -229.7 93.25 -269.45 80.6 -286.45 67.95 -303.5 43.05 -315.3 18.1 -327.1 -3.9 -329.5 -14.25 -342.55 -24.4 -328.8 L-10.75 -251.55 4.9 -253.65 Q7.5 -248.65 9.45 -243.65 L16.5 -244.5 M9.45 -243.65 Q11.7 -237.85 13.0 -232.05 L18.0 -232.5 M19.5 -218.0 L14.9 -217.45 Q15.1 -210.45 13.95 -203.4 L18.5 -204.0 M13.0 -232.05 Q14.65 -224.75 14.9 -217.45 L-8.35 -214.7 Q-6.55 -207.8 -3.65 -201.2 L13.95 -203.4 Q12.95 -197.35 10.95 -191.25 L11.9 -190.45 Q14.5 -187.85 14.5 -184.25 14.5 -180.9 12.0 -177.95 L22.5 -167.9 33.5 -156.5 Q54.75 -149.7 75.95 -158.75 88.0 -169.05 91.65 -183.95 L97.0 -205.65 Q77.55 -261.3 25.05 -275.4 M75.55 -186.8 Q77.0 -242.95 47.6 -223.8 M75.95 -158.75 L74.6 -155.7 70.0 -145.5 Q95.05 -134.3 116.5 -148.0 113.2 -198.95 98.0 -229.7 M10.95 -191.25 Q8.7 -193.0 5.75 -193.0 3.2 -193.0 1.2 -191.7 L-0.45 -190.45 Q-3.0 -187.85 -3.0 -184.25 -3.0 -180.65 -0.45 -178.1 L0.2 -177.5 2.0 -176.3 12.0 -176.3 12.0 -177.95 M22.5 -167.9 L22.5 -162.5 M26.6 -149.45 L33.5 -156.5 -18.5 -153.5 -9.2 -146.05 26.6 -149.45 17.05 -139.65 9.0 -131.4 1.25 -137.6 -9.2 -146.05 M2.0 -176.3 L2.0 -161.0 M12.0 -161.5 L12.0 -176.3 M17.05 -139.65 L1.25 -137.6 M-38.05 -133.0 L-43.95 -112.8 Q3.6 -100.85 25.7 -114.1 L20.2 -128.0 Q1.3 -117.7 -38.05 -133.0 -64.75 -138.25 -77.35 -157.9 L-69.0 -143.5 Q-109.3 -132.05 -128.35 -152.5 -126.1 -176.6 -121.25 -195.9 -102.05 -272.65 -41.7 -273.8 -29.45 -277.1 -10.75 -251.55 -11.35 -246.25 -11.45 -241.1 L9.45 -243.65 M-121.95 -196.05 Q-126.1 -269.0 -87.6 -299.35 -49.1 -329.7 -24.4 -328.8 M20.2 -128.0 Q65.55 -138.85 74.6 -155.7 M75.55 -186.8 L90.0 -193.15 Q80.4 -250.85 41.65 -228.85 M97.0 -205.65 Q105.2 -182.05 107.5 -151.0 M-17.0 -229.5 L-11.05 -230.0 Q-11.55 -235.5 -11.45 -241.1 L-16.9 -240.45 M-61.8 -181.55 L-79.7 -191.55 Q-75.4 -245.6 -29.05 -227.75 M-31.5 -222.45 Q-73.15 -239.65 -61.8 -181.55 M-8.35 -214.7 L-14.5 -214.0 M-9.5 -200.5 L-3.65 -201.2 Q-1.5 -196.4 1.2 -191.7 M-8.35 -214.7 Q-10.35 -222.15 -11.05 -230.0 L13.0 -232.05 M-119.15 -154.75 Q-115.75 -185.9 -107.1 -209.15 -87.65 -261.45 -41.7 -273.8 M-7.5 -167.65 L-7.5 -160.0 M-7.5 -167.65 L-18.5 -153.5 Q-47.95 -148.25 -77.35 -157.95 M-77.35 -157.9 L-77.4 -157.95 Q-89.7 -170.15 -97.65 -186.05 -103.35 -197.35 -107.1 -209.15 M-77.4 -157.95 L-77.35 -157.95 M0.2 -177.5 L-7.5 -167.65" fill="none" stroke="#000000" stroke-linecap="round" stroke-linejoin="round" stroke-width="5.0"/>
      <path d="M47.6 -223.8 Q43.65 -229.15 41.65 -228.85 41.1 -228.75 40.7 -228.2 35.15 -220.75 35.15 -210.25 35.15 -199.75 40.7 -192.3 46.25 -184.85 55.1 -183.35 63.1 -182.0 75.55 -186.8 M-29.05 -227.75 L-26.8 -223.95 Q-21.25 -216.5 -21.25 -205.95 -21.25 -195.45 -26.8 -188.05 -32.35 -180.6 -40.2 -180.6 L-61.8 -181.55 M-29.05 -227.75 L-31.5 -222.45" fill="none" stroke="#000000" stroke-linecap="round" stroke-linejoin="round" stroke-width="4.0"/>
    </g>
  </defs>
</svg>
