<?xml version="1.0" encoding="UTF-8" standalone="no"?>
<svg xmlns:xlink="http://www.w3.org/1999/xlink" height="434.9px" width="399.95px" xmlns="http://www.w3.org/2000/svg">
  <g transform="matrix(1, 0, 0, 1, 210.75, 443.1)">
    <use height="225.05" transform="matrix(1.0, 0.0, 0.0, 1.0, -114.85, -332.9)" width="229.4" xlink:href="#shape0"/>
  </g>
  <defs>
    <g id="shape0" transform="matrix(1, 0, 0, 1, 114.85, 332.9)">
      <path d="M111.3 -236.95 Q115.95 -201.75 103.4 -158.25 96.65 -151.75 81.7 -159.45 102.05 -176.2 86.7 -230.75 7.1 -279.2 -55.7 -229.35 -71.3 -204.6 -56.0 -155.9 -83.75 -136.1 -99.5 -154.7 -114.85 -194.4 -112.55 -228.5 -110.4 -259.3 -94.1 -282.95 -79.15 -304.65 -54.5 -317.3 -31.05 -329.35 -3.9 -330.7 23.3 -332.1 47.4 -322.35 72.85 -312.05 89.2 -291.35 107.05 -268.75 111.3 -236.95" fill="#444444" fill-rule="evenodd" stroke="none"/>
      <path d="M111.3 -236.95 Q115.95 -201.75 103.4 -158.25 96.65 -151.75 81.7 -159.45 102.05 -176.2 86.7 -230.75 7.1 -279.2 -55.7 -229.35 -71.3 -204.6 -56.0 -155.9 -83.75 -136.1 -99.5 -154.7 -114.85 -194.4 -112.55 -228.5 -110.4 -259.3 -94.1 -282.95 -79.15 -304.65 -54.5 -317.3 -31.05 -329.35 -3.9 -330.7 23.3 -332.1 47.4 -322.35 72.85 -312.05 89.2 -291.35 107.05 -268.75 111.3 -236.95" fill="none" stroke="#000000" stroke-linecap="round" stroke-linejoin="round" stroke-width="4.0"/>
      <path d="M-14.1 -120.25 L-15.95 -134.6 Q-28.75 -137.4 -42.3 -142.4 -37.7 -130.75 -21.95 -123.4 -18.15 -121.65 -14.1 -120.25 M-53.55 -166.4 Q-65.8 -172.0 -78.3 -179.5 L-83.75 -168.75 Q-66.8 -159.05 -50.8 -152.25 L-53.55 -166.4 M-46.85 -163.5 L-44.15 -149.55 Q-30.05 -144.05 -16.75 -140.95 L-18.45 -154.4 Q-32.5 -157.6 -46.85 -163.5 M-75.55 -184.85 Q-65.2 -178.6 -54.95 -173.65 L-62.2 -211.4 -75.55 -184.85 M50.85 -142.2 L51.75 -155.85 Q38.65 -152.1 25.25 -151.0 L25.25 -137.25 Q38.55 -138.25 50.85 -142.2 M19.25 -136.95 L19.25 -150.65 Q3.75 -150.05 -12.25 -153.05 L-10.55 -139.6 Q4.95 -136.6 19.25 -136.95 M61.85 -125.8 Q76.2 -134.6 77.9 -148.4 67.6 -142.0 56.6 -137.9 L55.6 -122.45 Q58.85 -124.0 61.85 -125.8 M19.25 -115.35 L19.25 -130.95 Q5.25 -130.65 -9.75 -133.35 L-7.8 -118.35 Q4.6 -115.15 19.25 -115.35 M25.25 -131.2 L25.25 -115.55 Q38.65 -116.35 49.4 -120.0 L50.45 -135.85 Q38.3 -132.15 25.25 -131.2 M54.15 -162.85 L54.3 -162.9 Q67.7 -167.3 80.8 -174.65 L86.75 -219.05 Q19.8 -259.45 -57.55 -218.95 L-48.25 -170.6 Q-31.6 -163.4 -15.4 -159.85 L-14.8 -159.7 Q3.95 -155.7 22.0 -156.8 L22.15 -156.8 Q38.25 -157.8 53.9 -162.75 L54.15 -162.85 M78.25 -155.8 L79.8 -167.25 Q68.95 -161.55 57.95 -157.8 L57.0 -144.5 Q68.05 -148.9 78.25 -155.8 M101.25 -175.9 L100.0 -179.85 Q93.2 -175.0 86.35 -170.95 L85.0 -160.75 Q93.4 -167.4 101.25 -175.9 M87.35 -178.6 L98.05 -185.85 91.2 -207.1 87.35 -178.6 M92.7 -221.85 L92.9 -221.25 104.3 -185.95 104.5 -185.35 107.45 -176.1 Q107.7 -175.35 107.55 -174.55 107.35 -173.8 106.85 -173.2 96.05 -161.2 84.15 -152.6 84.55 -132.7 65.0 -120.7 59.7 -117.5 53.6 -115.15 L53.0 -114.9 Q39.7 -110.05 22.45 -109.4 L22.35 -109.4 22.25 -109.4 22.15 -109.4 21.05 -109.4 Q3.55 -108.95 -11.05 -113.0 L-11.15 -113.05 -11.25 -113.05 -11.45 -113.15 Q-18.3 -115.05 -24.5 -117.95 -46.05 -128.05 -49.4 -145.25 -68.6 -153.0 -89.2 -165.0 -90.25 -165.6 -90.55 -166.75 -90.9 -167.9 -90.35 -168.95 L-82.3 -184.85 -82.15 -185.1 -63.7 -221.6 Q-63.35 -222.7 -62.3 -223.25 L-62.25 -223.25 Q20.2 -267.45 91.35 -223.25 L91.5 -223.15 91.75 -223.0 92.7 -221.85" fill="#ffffff" fill-rule="evenodd" stroke="none"/>
      <path d="M92.7 -221.85 L91.75 -223.0 91.5 -223.15 91.35 -223.25 Q20.2 -267.45 -62.25 -223.25 L-62.3 -223.25 Q-63.35 -222.7 -63.7 -221.6 L-82.15 -185.1 -82.3 -184.85 -90.35 -168.95 Q-90.9 -167.9 -90.55 -166.75 -90.25 -165.6 -89.2 -165.0 -68.6 -153.0 -49.4 -145.25 -46.05 -128.05 -24.5 -117.95 -18.3 -115.05 -11.45 -113.15 L-11.25 -113.05 -11.15 -113.05 -11.05 -113.0 Q3.55 -108.95 21.05 -109.4 L22.15 -109.4 22.25 -109.4 22.35 -109.4 22.45 -109.4 Q39.7 -110.05 53.0 -114.9 L53.6 -115.15 Q59.7 -117.5 65.0 -120.7 84.55 -132.7 84.15 -152.6 96.05 -161.2 106.85 -173.2 107.35 -173.8 107.55 -174.55 107.7 -175.35 107.45 -176.1 L104.5 -185.35 104.3 -185.95 92.9 -221.25 92.7 -221.85 M87.35 -178.6 L91.2 -207.1 98.05 -185.85 87.35 -178.6 M101.25 -175.9 Q93.4 -167.4 85.0 -160.75 L86.35 -170.95 Q93.2 -175.0 100.0 -179.85 L101.25 -175.9 M78.25 -155.8 Q68.05 -148.9 57.0 -144.5 L57.95 -157.8 Q68.95 -161.55 79.8 -167.25 L78.25 -155.8 M54.15 -162.85 L53.9 -162.75 Q38.25 -157.8 22.15 -156.8 L22.0 -156.8 Q3.95 -155.7 -14.8 -159.7 L-15.4 -159.85 Q-31.6 -163.4 -48.25 -170.6 L-57.55 -218.95 Q19.8 -259.45 86.75 -219.05 L80.8 -174.65 Q67.7 -167.3 54.3 -162.9 L54.15 -162.85 M25.25 -131.2 Q38.3 -132.15 50.45 -135.85 L49.4 -120.0 Q38.65 -116.35 25.25 -115.55 L25.25 -131.2 M19.25 -115.35 Q4.6 -115.15 -7.8 -118.35 L-9.75 -133.35 Q5.25 -130.65 19.25 -130.95 L19.25 -115.35 M61.85 -125.8 Q58.85 -124.0 55.6 -122.45 L56.6 -137.9 Q67.6 -142.0 77.9 -148.4 76.2 -134.6 61.85 -125.8 M19.25 -136.95 Q4.95 -136.6 -10.55 -139.6 L-12.25 -153.05 Q3.75 -150.05 19.25 -150.65 L19.25 -136.95 M50.85 -142.2 Q38.55 -138.25 25.25 -137.25 L25.25 -151.0 Q38.65 -152.1 51.75 -155.85 L50.85 -142.2 M-75.55 -184.85 L-62.2 -211.4 -54.95 -173.65 Q-65.2 -178.6 -75.55 -184.85 M-46.85 -163.5 Q-32.5 -157.6 -18.45 -154.4 L-16.75 -140.95 Q-30.05 -144.05 -44.15 -149.55 L-46.85 -163.5 M-53.55 -166.4 L-50.8 -152.25 Q-66.8 -159.05 -83.75 -168.75 L-78.3 -179.5 Q-65.8 -172.0 -53.55 -166.4 M-14.1 -120.25 Q-18.15 -121.65 -21.95 -123.4 -37.7 -130.75 -42.3 -142.4 -28.75 -137.4 -15.95 -134.6 L-14.1 -120.25" fill="none" stroke="#000000" stroke-linecap="round" stroke-linejoin="round" stroke-width="3.0"/>
    </g>
  </defs>
</svg>
