<?xml version="1.0" encoding="UTF-8" standalone="no"?>
<svg xmlns:xlink="http://www.w3.org/1999/xlink" height="434.9px" width="399.95px" xmlns="http://www.w3.org/2000/svg">
  <g transform="matrix(1, 0, 0, 1, 210.75, 443.1)">
    <use height="77.8" transform="matrix(1.0, 0.0, 0.0, 1.0, 45.2, -320.0)" width="117.25" xlink:href="#shape0"/>
  </g>
  <defs>
    <g id="shape0" transform="matrix(1, 0, 0, 1, -45.2, 320.0)">
      <path d="M159.95 -317.5 Q146.75 -296.2 114.3 -291.85 L152.0 -278.3 Q133.55 -273.75 114.0 -279.45 130.75 -268.1 145.25 -262.65 124.05 -262.65 104.55 -272.4 L126.35 -244.7 Q109.2 -251.35 95.7 -267.1 74.8 -270.1 71.5 -280.8 68.2 -291.5 62.45 -296.85 56.7 -302.25 47.7 -305.1 61.0 -308.9 77.45 -309.55 71.85 -293.85 86.1 -287.75 100.3 -281.7 105.15 -303.35 132.55 -307.15 159.95 -317.5" fill="#de6d6d" fill-rule="evenodd" stroke="none"/>
      <path d="M159.95 -317.5 Q146.75 -296.2 114.3 -291.85 L152.0 -278.3 Q133.55 -273.75 114.0 -279.45 130.75 -268.1 145.25 -262.65 124.05 -262.65 104.55 -272.4 L126.35 -244.7 Q109.2 -251.35 95.7 -267.1 74.8 -270.1 71.5 -280.8 68.2 -291.5 62.45 -296.85 56.7 -302.25 47.7 -305.1 61.0 -308.9 77.45 -309.55 71.85 -293.85 86.1 -287.75 100.3 -281.7 105.15 -303.35 132.55 -307.15 159.95 -317.5" fill="none" stroke="#000000" stroke-linecap="round" stroke-linejoin="round" stroke-width="5.0"/>
    </g>
  </defs>
</svg>
