<?xml version="1.0" encoding="UTF-8" standalone="no"?>
<svg xmlns:xlink="http://www.w3.org/1999/xlink" height="434.9px" width="399.95px" xmlns="http://www.w3.org/2000/svg">
  <g transform="matrix(1, 0, 0, 1, 210.75, 443.1)">
    <use height="66.5" transform="matrix(1.0, 0.0, 0.0, 1.0, -115.25, -350.75)" width="219.4" xlink:href="#shape0"/>
  </g>
  <defs>
    <g id="shape0" transform="matrix(1, 0, 0, 1, 115.25, 350.75)">
      <path d="M36.7 -319.4 L36.7 -303.95 14.65 -294.6 14.65 -316.0 36.7 -319.4 14.65 -316.0 -3.0 -348.75 36.7 -319.4" fill="#a2327f" fill-rule="evenodd" stroke="none"/>
      <path d="M14.65 -316.0 L14.65 -294.6 -13.6 -294.6 -13.6 -315.15 -3.0 -348.75 14.65 -316.0 -13.6 -315.15 14.65 -316.0" fill="#8d2e72" fill-rule="evenodd" stroke="none"/>
      <path d="M-13.6 -294.6 L-38.1 -303.75 -38.1 -321.75 -3.0 -348.75 -13.6 -315.15 -13.6 -294.6 M-38.1 -321.75 Q-27.05 -320.55 -13.6 -315.15 -27.05 -320.55 -38.1 -321.75" fill="#7a2762" fill-rule="evenodd" stroke="none"/>
      <path d="M85.0 -314.2 L87.75 -317.25 93.0 -306.1 81.45 -294.9 77.7 -290.55 81.45 -294.9 100.9 -302.4 102.15 -290.95 81.4 -286.25 77.7 -290.55 Q74.2 -294.35 69.85 -298.0 L63.85 -302.65 71.3 -320.1 85.0 -314.2 69.85 -298.0 85.0 -314.2 M-64.55 -297.7 L-72.0 -289.25 -113.25 -292.8 -110.6 -302.9 -81.1 -299.9 -92.65 -311.1 -87.45 -322.25 -84.65 -319.2 -69.45 -329.1 -60.9 -301.6 -64.55 -297.7 -84.65 -319.2 -64.55 -297.7 M-81.1 -299.9 L-72.0 -289.25 -81.1 -299.9" fill="#7c4181" fill-rule="evenodd" stroke="none"/>
      <path d="M81.45 -294.9 L93.0 -306.1 87.75 -317.25 85.0 -314.2 69.85 -298.0 Q74.2 -294.35 77.7 -290.55 L81.45 -294.9 100.9 -302.4 102.15 -290.95 81.4 -286.25 77.7 -290.55 M14.65 -294.6 L36.7 -303.95 36.7 -319.4 14.65 -316.0 14.65 -294.6 -13.6 -294.6 -38.1 -303.75 -38.1 -321.75 -3.0 -348.75 36.7 -319.4 M85.0 -314.2 L71.3 -320.1 63.85 -302.65 69.85 -298.0 M-64.55 -297.7 L-72.0 -289.25 -113.25 -292.8 -110.6 -302.9 -81.1 -299.9 -92.65 -311.1 -87.45 -322.25 -84.65 -319.2 -69.45 -329.1 -60.9 -301.6 -64.55 -297.7 -84.65 -319.2 M-13.6 -315.15 Q-27.05 -320.55 -38.1 -321.75 M-3.0 -348.75 L-13.6 -315.15 14.65 -316.0 -3.0 -348.75 M-72.0 -289.25 L-81.1 -299.9 M-13.6 -315.15 L-13.6 -294.6" fill="none" stroke="#000000" stroke-linecap="round" stroke-linejoin="round" stroke-width="4.0"/>
    </g>
  </defs>
</svg>
