<?xml version="1.0" encoding="UTF-8" standalone="no"?>
<svg xmlns:xlink="http://www.w3.org/1999/xlink" height="434.9px" width="399.95px" xmlns="http://www.w3.org/2000/svg">
  <g transform="matrix(1, 0, 0, 1, 210.75, 443.1)">
    <use height="170.95" transform="matrix(1.0, 0.0, 0.0, 1.0, -148.75, -338.2)" width="244.8" xlink:href="#shape0"/>
  </g>
  <defs>
    <g id="shape0" transform="matrix(1, 0, 0, 1, 148.75, 338.2)">
      <path d="M-101.0 -222.55 L-101.05 -222.55 -101.3 -222.85 -101.4 -222.95 Q-105.0 -226.8 -111.0 -229.75 -125.5 -229.9 -137.9 -233.85 -116.25 -293.6 -78.3 -318.4 -46.3 -339.25 -5.8 -335.65 28.4 -332.65 58.85 -314.1 70.4 -307.1 79.0 -299.05 L81.5 -296.65 Q90.7 -287.4 94.05 -278.95 L79.0 -281.9 Q-30.4 -301.3 -82.0 -247.95 -90.2 -239.45 -96.95 -229.1 L-100.9 -222.65 -101.0 -222.55 M-101.75 -222.5 L-146.75 -176.0 Q-143.25 -209.5 -101.75 -222.5 -103.35 -188.25 -138.95 -169.25 L-101.75 -222.5" fill="#800000" fill-rule="evenodd" stroke="none"/>
      <path d="M74.5 -252.1 Q74.5 -247.5 41.3 -225.6 10.9 -205.55 1.35 -203.7 3.35 -197.2 3.6 -190.65 3.55 -182.25 0.9 -177.8 -4.95 -168.0 -22.45 -167.95 -44.1 -167.95 -51.4 -179.25 -54.85 -177.0 -61.65 -175.3 -66.85 -175.35 -66.85 -179.6 -66.85 -181.6 -63.2 -185.05 -59.3 -188.8 -54.65 -189.35 L-54.6 -193.9 Q-54.6 -195.75 -53.3 -200.45 -51.55 -206.6 -48.75 -211.8 -40.45 -227.4 -26.75 -227.4 -9.35 -227.4 -1.35 -210.55 68.85 -256.8 69.25 -256.8 74.65 -256.8 74.5 -252.1" fill="#000000" fill-rule="evenodd" stroke="none"/>
      <path d="M-101.0 -222.55 L-101.05 -222.55 -101.3 -222.85 -101.4 -222.95 Q-105.0 -226.8 -111.0 -229.75 -125.5 -229.9 -137.9 -233.85 -116.25 -293.6 -78.3 -318.4 -46.3 -339.25 -5.8 -335.65 28.4 -332.65 58.85 -314.1 70.4 -307.1 79.0 -299.05 L81.5 -296.65 Q90.7 -287.4 94.05 -278.95 L79.0 -281.9 Q-30.4 -301.3 -82.0 -247.95 -90.2 -239.45 -96.95 -229.1 L-100.9 -222.65 -101.0 -222.5 -101.0 -222.55 M-101.75 -222.5 L-146.75 -176.0 Q-143.25 -209.5 -101.75 -222.5 -103.35 -188.25 -138.95 -169.25 L-101.75 -222.5" fill="none" stroke="#000000" stroke-linecap="round" stroke-linejoin="round" stroke-width="4.0"/>
    </g>
  </defs>
</svg>
