<?xml version="1.0" encoding="UTF-8" standalone="no"?>
<svg xmlns:xlink="http://www.w3.org/1999/xlink" height="434.9px" width="399.95px" xmlns="http://www.w3.org/2000/svg">
  <g transform="matrix(1, 0, 0, 1, 210.75, 443.1)">
    <use height="110.95" transform="matrix(1.0, 0.0, 0.0, 1.0, -108.7, -333.75)" width="218.5" xlink:href="#shape0"/>
  </g>
  <defs>
    <g id="shape0" transform="matrix(1, 0, 0, 1, 108.7, 333.75)">
      <path d="M-0.15 -273.45 Q6.55 -275.0 15.05 -278.95 25.7 -284.0 32.9 -284.85 L34.85 -285.0 Q39.45 -285.15 42.45 -283.3 L42.8 -283.05 Q44.2 -282.1 45.25 -280.65 51.9 -271.15 54.4 -266.85 56.1 -263.95 60.35 -261.9 56.1 -263.95 54.4 -266.85 51.9 -271.15 45.25 -280.65 44.2 -282.1 42.8 -283.05 L42.45 -283.3 Q39.45 -285.15 34.85 -285.0 L32.9 -284.85 Q25.7 -284.0 15.05 -278.95 6.55 -275.0 -0.15 -273.45 L-5.75 -272.55 -7.9 -272.5 Q-49.2 -269.3 -67.6 -253.1 L-68.0 -252.75 Q-70.3 -250.9 -73.65 -250.25 -94.55 -240.15 -103.2 -225.3 -111.55 -242.35 -96.65 -250.1 L-96.4 -250.25 Q-100.05 -252.0 -101.5 -254.55 -106.3 -262.75 -102.9 -275.7 -96.1 -301.2 -66.7 -316.4 -39.7 -330.35 -3.45 -331.2 32.8 -332.0 61.25 -319.3 92.3 -305.4 101.95 -280.05 106.3 -268.6 103.6 -259.65 102.25 -255.35 99.3 -251.65 111.25 -245.6 105.4 -227.4 86.85 -249.15 64.1 -260.45 L63.75 -260.55 62.7 -260.9 60.35 -261.9 Q27.6 -275.3 -0.15 -273.45 M42.8 -283.05 L89.85 -256.05 Q84.45 -257.6 77.0 -258.1 69.3 -258.85 64.1 -260.45 69.3 -258.85 77.0 -258.1 84.45 -257.6 89.85 -256.05 L42.8 -283.05 M-40.9 -279.15 Q-37.6 -278.95 -33.75 -277.8 -16.6 -272.6 -7.9 -272.5 -16.6 -272.6 -33.75 -277.8 -37.6 -278.95 -40.9 -279.15 L-47.25 -278.65 -40.9 -279.15 32.9 -284.85 -40.9 -279.15 M-96.65 -250.1 L-96.4 -250.25 Q-95.25 -250.95 -93.85 -251.35 -89.85 -252.4 -84.0 -250.75 -77.95 -249.45 -73.65 -250.25 -77.95 -249.45 -84.0 -250.75 -89.85 -252.4 -93.85 -251.35 -95.25 -250.95 -96.4 -250.25 L-96.65 -250.1 M99.3 -251.65 Q93.15 -255.1 89.85 -256.05 93.15 -255.1 99.3 -251.65 M-50.25 -277.6 L-47.25 -278.65 -50.25 -277.6 Q-53.6 -276.05 -56.2 -272.95 -52.5 -275.55 -50.25 -277.6 M-67.6 -253.1 Q-66.5 -254.15 -65.65 -255.55 -60.95 -263.35 -60.5 -265.5 -58.7 -269.95 -56.2 -272.95 -58.7 -269.95 -60.5 -265.5 -60.95 -263.35 -65.65 -255.55 -66.5 -254.15 -67.6 -253.1 M-93.85 -251.35 Q-67.9 -264.75 -56.2 -272.95 -67.9 -264.75 -93.85 -251.35" fill="#ffffff" fill-rule="evenodd" stroke="none"/>
      <path d="M60.35 -261.9 Q56.1 -263.95 54.4 -266.85 51.9 -271.15 45.25 -280.65 44.2 -282.1 42.8 -283.05 L42.45 -283.3 Q39.45 -285.15 34.85 -285.0 L32.9 -284.85 Q25.7 -284.0 15.05 -278.95 6.55 -275.0 -0.15 -273.45 27.6 -275.3 60.35 -261.9 L62.7 -260.9 63.75 -260.55 64.1 -260.45 Q69.3 -258.85 77.0 -258.1 84.45 -257.6 89.85 -256.05 L42.8 -283.05 M-0.15 -273.45 L-5.75 -272.55 -7.9 -272.5 Q-49.2 -269.3 -67.6 -253.1 L-68.0 -252.75 Q-70.3 -250.9 -73.65 -250.25 -94.55 -240.15 -103.2 -225.3 -111.55 -242.35 -96.65 -250.1 L-96.4 -250.25 Q-100.05 -252.0 -101.5 -254.55 -106.3 -262.75 -102.9 -275.7 -96.1 -301.2 -66.7 -316.4 -39.7 -330.35 -3.45 -331.2 32.8 -332.0 61.25 -319.3 92.3 -305.4 101.95 -280.05 106.3 -268.6 103.6 -259.65 102.25 -255.35 99.3 -251.65 111.25 -245.6 105.4 -227.4 86.85 -249.15 64.1 -260.45 M89.85 -256.05 Q93.15 -255.1 99.3 -251.65 M-73.65 -250.25 Q-77.95 -249.45 -84.0 -250.75 -89.85 -252.4 -93.85 -251.35 -95.25 -250.95 -96.4 -250.25 L-96.65 -250.1 M-7.9 -272.5 Q-16.6 -272.6 -33.75 -277.8 -37.6 -278.95 -40.9 -279.15 L-47.25 -278.65 -50.25 -277.6 Q-52.5 -275.55 -56.2 -272.95 -58.7 -269.95 -60.5 -265.5 -60.95 -263.35 -65.65 -255.55 -66.5 -254.15 -67.6 -253.1 M-40.9 -279.15 L-47.25 -278.65 M-50.25 -277.6 Q-53.6 -276.05 -56.2 -272.95 -67.9 -264.75 -93.85 -251.35 M32.9 -284.85 L-40.9 -279.15" fill="none" stroke="#000000" stroke-linecap="round" stroke-linejoin="round" stroke-width="5.0"/>
    </g>
  </defs>
</svg>
