<?xml version="1.0" encoding="UTF-8" standalone="no"?>
<svg xmlns:xlink="http://www.w3.org/1999/xlink" height="434.9px" width="399.95px" xmlns="http://www.w3.org/2000/svg">
  <g transform="matrix(1, 0, 0, 1, 210.75, 443.1)">
    <use height="146.85" transform="matrix(1.0, 0.0, 0.0, 1.0, -143.05, -378.5)" width="286.15" xlink:href="#shape0"/>
  </g>
  <defs>
    <g id="shape0" transform="matrix(1, 0, 0, 1, 143.05, 378.5)">
      <path d="M-95.3 -284.75 L-95.3 -286.05 -95.3 -287.4 -95.3 -327.05 -95.3 -366.55 -95.3 -366.6 Q-95.3 -370.5 -67.4 -373.25 -39.45 -376.0 -0.05 -376.0 39.45 -376.0 67.35 -373.25 95.3 -370.5 95.3 -366.6 L95.3 -366.55 95.3 -327.05 95.3 -284.75 95.3 -258.6 99.4 -258.2 Q140.6 -254.05 140.6 -248.25 140.6 -242.4 99.4 -238.3 58.25 -234.15 0.0 -234.15 -58.2 -234.15 -99.4 -238.3 -140.55 -242.4 -140.55 -248.25 -140.55 -254.05 -99.4 -258.2 L-95.3 -258.6 -95.3 -284.75 M-95.3 -366.55 Q-95.2 -362.7 -67.4 -359.95 -39.45 -357.2 -0.05 -357.2 39.45 -357.2 67.35 -359.95 95.15 -362.7 95.3 -366.55 95.15 -362.7 67.35 -359.95 39.45 -357.2 -0.05 -357.2 -39.45 -357.2 -67.4 -359.95 -95.2 -362.7 -95.3 -366.55 M-95.3 -258.6 L-95.3 -253.75 Q-95.1 -249.9 -67.4 -247.15 -39.45 -244.4 -0.05 -244.4 39.45 -244.4 67.35 -247.15 95.1 -249.9 95.3 -253.75 L95.3 -258.6 95.3 -253.75 Q95.1 -249.9 67.35 -247.15 39.45 -244.4 -0.05 -244.4 -39.45 -244.4 -67.4 -247.15 -95.1 -249.9 -95.3 -253.75 L-95.3 -258.6" fill="#3c3c3c" fill-rule="evenodd" stroke="none"/>
      <path d="M-95.3 -284.75 L-95.3 -286.05 -95.3 -287.4 -95.3 -327.05 -95.3 -366.55 -95.3 -366.6 Q-95.3 -370.5 -67.4 -373.25 -39.45 -376.0 -0.05 -376.0 39.45 -376.0 67.35 -373.25 95.3 -370.5 95.3 -366.6 L95.3 -366.55 95.3 -327.05 95.3 -284.75 95.3 -258.6 99.4 -258.2 Q140.6 -254.05 140.6 -248.25 140.6 -242.4 99.4 -238.3 58.25 -234.15 0.0 -234.15 -58.2 -234.15 -99.4 -238.3 -140.55 -242.4 -140.55 -248.25 -140.55 -254.05 -99.4 -258.2 L-95.3 -258.6 -95.3 -284.75 M95.3 -258.6 L95.3 -253.75 Q95.1 -249.9 67.35 -247.15 39.45 -244.4 -0.05 -244.4 -39.45 -244.4 -67.4 -247.15 -95.1 -249.9 -95.3 -253.75 L-95.3 -258.6 M95.3 -366.55 Q95.15 -362.7 67.35 -359.95 39.45 -357.2 -0.05 -357.2 -39.45 -357.2 -67.4 -359.95 -95.2 -362.7 -95.3 -366.55" fill="none" stroke="#000000" stroke-linecap="round" stroke-linejoin="round" stroke-width="5.0"/>
    </g>
  </defs>
</svg>
