<?xml version="1.0" encoding="UTF-8" standalone="no"?>
<svg xmlns:xlink="http://www.w3.org/1999/xlink" height="434.9px" width="399.95px" xmlns="http://www.w3.org/2000/svg">
  <g transform="matrix(1, 0, 0, 1, 210.75, 443.1)">
    <use height="86.8" transform="matrix(1.0, 0.0, 0.0, 1.0, -84.95, -318.45)" width="172.0" xlink:href="#shape0"/>
  </g>
  <defs>
    <g id="shape0" transform="matrix(1, 0, 0, 1, 84.95, 318.45)">
      <path d="M50.95 -252.4 L42.75 -264.9 50.95 -252.4 Q13.45 -258.7 -26.05 -252.4 -54.75 -248.3 -79.5 -234.15 L-82.45 -244.75 Q-55.3 -260.7 -18.9 -265.25 L9.25 -315.95 42.75 -264.9 84.55 -255.3 84.55 -244.15 50.95 -252.4 M-26.05 -252.4 L-18.9 -265.25 -26.05 -252.4" fill="#ffffff" fill-rule="evenodd" stroke="none"/>
      <path d="M42.75 -264.9 L50.95 -252.4 84.55 -244.15 84.55 -255.3 42.75 -264.9 9.25 -315.95 -18.9 -265.25 -26.05 -252.4 Q13.45 -258.7 50.95 -252.4 M-26.05 -252.4 Q-54.75 -248.3 -79.5 -234.15 L-82.45 -244.75 Q-55.3 -260.7 -18.9 -265.25" fill="none" stroke="#000000" stroke-linecap="round" stroke-linejoin="round" stroke-width="5.0"/>
    </g>
  </defs>
</svg>
