<?xml version="1.0" encoding="UTF-8" standalone="no"?>
<svg xmlns:xlink="http://www.w3.org/1999/xlink" height="434.9px" width="399.95px" xmlns="http://www.w3.org/2000/svg">
  <g transform="matrix(1, 0, 0, 1, 210.75, 443.1)">
    <use height="212.9" transform="matrix(1.0, 0.0, 0.0, 1.0, -111.8, -333.05)" width="226.15" xlink:href="#shape0"/>
  </g>
  <defs>
    <g id="shape0" transform="matrix(1, 0, 0, 1, 111.8, 333.05)">
      <path d="M30.85 -328.15 L28.65 -328.5 30.85 -328.15 45.3 -324.65 46.7 -324.2 Q54.1 -321.8 60.65 -318.45 68.5 -314.45 75.1 -309.1 L81.35 -303.45 Q85.65 -299.15 89.45 -294.05 L92.55 -289.65 Q97.8 -281.75 102.05 -272.1 L103.75 -268.1 104.2 -267.05 105.95 -262.45 111.25 -244.85 111.35 -244.55 111.85 -242.55 111.25 -236.15 Q110.2 -226.95 107.8 -220.55 103.1 -207.95 93.35 -206.15 L93.35 -239.05 92.15 -238.85 88.55 -238.3 71.95 -236.05 47.0 -233.8 15.15 -232.6 7.2 -232.55 Q-11.45 -232.55 -31.25 -233.55 L-46.15 -234.5 -62.9 -235.85 Q-79.45 -231.05 -84.25 -217.1 L-85.25 -214.7 Q-89.3 -206.35 -99.9 -203.3 -104.0 -202.15 -109.1 -201.8 L-109.3 -210.6 Q-109.5 -231.55 -106.25 -248.85 L-98.6 -274.75 -98.4 -275.15 Q-86.0 -304.05 -59.35 -317.85 L-40.65 -325.25 -40.5 -325.3 -40.3 -325.35 -40.15 -325.4 -39.95 -325.45 -39.75 -325.5 -39.45 -325.55 -39.15 -325.65 -38.85 -325.7 Q-23.8 -329.8 -5.5 -330.4 L0.4 -330.5 3.8 -330.5 4.7 -330.5 6.75 -330.45 26.8 -328.8 28.65 -328.5 30.85 -328.15 M111.85 -242.55 L107.85 -241.75 93.35 -239.05 107.85 -241.75 111.85 -242.55" fill="#595959" fill-rule="evenodd" stroke="none"/>
      <path d="M28.65 -328.5 L30.85 -328.15 M28.65 -328.5 L26.8 -328.8 6.75 -330.45 4.7 -330.5 3.8 -330.5 0.4 -330.5 -5.5 -330.4 Q-23.8 -329.8 -38.85 -325.7 L-39.15 -325.65 -39.45 -325.55 -39.75 -325.5 -39.95 -325.45 -40.15 -325.4 -40.3 -325.35 -40.5 -325.3 -40.65 -325.25 -59.35 -317.85 Q-86.0 -304.05 -98.4 -275.15 L-98.6 -274.75 -106.25 -248.85 Q-109.5 -231.55 -109.3 -210.6 L-109.1 -201.8 Q-104.0 -202.15 -99.9 -203.3 -89.3 -206.35 -85.25 -214.7 L-84.25 -217.1 Q-79.45 -231.05 -62.9 -235.85 L-46.15 -234.5 -31.25 -233.55 Q-11.45 -232.55 7.2 -232.55 L15.15 -232.6 47.0 -233.8 71.95 -236.05 88.55 -238.3 92.15 -238.85 93.35 -239.05 107.85 -241.75 111.85 -242.55 111.35 -244.55 M111.25 -244.85 L105.95 -262.45 104.2 -267.05 103.75 -268.1 102.05 -272.1 Q97.8 -281.75 92.55 -289.65 L89.45 -294.05 Q85.65 -299.15 81.35 -303.45 L75.1 -309.1 Q68.5 -314.45 60.65 -318.45 54.1 -321.8 46.7 -324.2 L45.3 -324.65 30.85 -328.15 M111.85 -242.55 L111.25 -236.15 Q110.2 -226.95 107.8 -220.55 103.1 -207.95 93.35 -206.15 L93.35 -239.05" fill="none" stroke="#000000" stroke-linecap="round" stroke-linejoin="round" stroke-width="5.0"/>
      <path d="M-99.9 -214.6 Q-96.95 -162.0 -70.85 -144.15 -44.75 -126.35 -22.8 -123.15 -0.85 -119.95 19.15 -123.55 39.15 -127.15 58.5 -134.05 77.85 -140.95 88.6 -154.8 99.35 -168.7 100.0 -184.55 L100.95 -220.4" fill="none" stroke="#000000" stroke-linecap="round" stroke-linejoin="round" stroke-width="3.0"/>
    </g>
  </defs>
</svg>
