<?xml version="1.0" encoding="UTF-8" standalone="no"?>
<svg xmlns:xlink="http://www.w3.org/1999/xlink" height="434.9px" width="399.95px" xmlns="http://www.w3.org/2000/svg">
  <g transform="matrix(1, 0, 0, 1, 210.75, 443.1)">
    <use height="157.6" transform="matrix(1.0, 0.0, 0.0, 1.0, -122.5, -350.5)" width="228.0" xlink:href="#shape0"/>
  </g>
  <defs>
    <g id="shape0" transform="matrix(1, 0, 0, 1, 122.5, 350.5)">
      <path d="M97.6 -196.5 L101.3 -196.35 97.6 -195.7 Q91.4 -194.6 91.4 -193.9 L91.4 -192.9 90.4 -195.3 Q90.2 -195.8 81.9 -196.5 L70.25 -197.35 81.7 -197.05 97.6 -196.5" fill="#ffffff" fill-rule="evenodd" stroke="none"/>
      <path d="M73.85 -236.15 L74.1 -236.65 73.85 -236.15" fill="url(#gradient0)" fill-rule="evenodd" stroke="none"/>
      <path d="M74.1 -236.65 L73.9 -236.15 73.85 -236.15 74.1 -236.65" fill="#3f271f" fill-rule="evenodd" stroke="none"/>
      <path d="M-24.7 -240.2 L-24.8 -239.95 -24.7 -240.2" fill="#402f1e" fill-rule="evenodd" stroke="none"/>
      <path d="M77.9 -242.5 Q86.6 -235.35 97.5 -201.0 L97.6 -196.5 81.7 -197.05 Q76.1 -211.55 76.1 -224.15 L77.9 -242.5 M89.4 -209.2 L89.2 -210.9 88.55 -216.8 88.55 -219.7 88.4 -219.95 87.3 -221.4 86.9 -221.9 86.65 -222.25 85.9 -223.2 84.4 -225.15 84.35 -225.2 84.35 -225.15 84.35 -224.1 84.3 -221.7 84.25 -218.2 Q84.15 -212.5 84.6 -210.0 L84.6 -209.95 84.75 -209.4 85.05 -208.6 85.15 -208.2 85.65 -206.9 85.85 -206.35 86.6 -204.5 86.65 -204.3 86.75 -204.05 89.85 -204.35 89.85 -204.45 89.8 -204.75 89.8 -204.8 89.8 -205.15 89.7 -205.9 89.75 -205.9 89.4 -209.15 89.4 -209.2 M-81.85 -210.45 L-82.5 -232.85 Q-83.25 -241.45 -81.6 -244.5 -82.25 -247.1 -82.5 -251.0 -82.5 -254.7 -78.45 -254.7 -76.15 -254.7 -75.85 -252.3 -72.9 -252.3 -71.45 -250.35 -67.65 -253.5 -59.4 -257.35 L-59.35 -257.35 Q-61.6 -249.25 -62.75 -239.45 -59.15 -243.25 -54.7 -248.35 -54.85 -231.4 -55.35 -211.25 L-55.55 -205.35 Q-55.9 -205.4 -56.0 -202.5 -58.75 -201.55 -62.15 -199.8 -63.65 -199.95 -64.4 -200.9 L-65.1 -202.35 -66.05 -201.15 Q-66.65 -200.6 -67.95 -200.6 -70.45 -200.6 -71.85 -203.4 L-73.15 -202.1 Q-74.25 -201.2 -76.3 -201.2 -76.55 -201.2 -82.4 -208.6 L-81.85 -210.45 M-75.75 -249.65 Q-75.5 -248.35 -74.75 -248.4 L-73.1 -248.55 Q-73.9 -249.45 -75.75 -249.65 M-69.35 -249.15 L-69.35 -248.95 -69.3 -248.95 -67.45 -249.0 -67.4 -249.35 -67.05 -250.75 Q-68.85 -250.2 -69.35 -249.15 M-69.65 -239.85 L-69.3 -241.3 -75.1 -240.45 -75.1 -240.35 -75.1 -240.25 -75.0 -238.95 -75.0 -238.4 -74.95 -237.85 -74.95 -237.55 -74.95 -236.35 -74.95 -235.1 -74.95 -233.95 -74.95 -233.2 -74.95 -232.6 -74.95 -232.15 -74.6 -217.8 -74.5 -215.45 -74.45 -213.6 Q-66.55 -210.85 -62.6 -212.7 L-62.65 -216.05 -62.7 -218.65 -62.7 -221.8 -62.7 -231.1 Q-65.65 -228.95 -67.2 -228.95 -71.25 -228.95 -71.25 -232.15 L-70.75 -235.0 -70.25 -237.3 -70.0 -238.45 -69.65 -239.85 M-73.0 -206.3 Q-74.5 -206.85 -75.6 -207.6 L-76.4 -203.55 Q-74.3 -203.75 -73.35 -205.65 L-73.0 -206.3 M-63.4 -205.55 L-63.3 -204.15 Q-63.15 -203.5 -62.0 -202.55 L-61.75 -205.7 -63.4 -205.55 M-69.8 -205.65 Q-70.55 -202.35 -68.1 -202.95 -67.4 -203.35 -66.7 -205.45 L-69.8 -205.65" fill="#000000" fill-rule="evenodd" stroke="none"/>
      <path d="M84.4 -225.15 L84.35 -225.15 84.35 -225.2 84.4 -225.15 M-74.95 -237.85 L-74.85 -237.7 -74.95 -237.55 -74.95 -237.85" fill="#2e5ac0" fill-rule="evenodd" stroke="none"/>
      <path d="M84.4 -225.15 L85.9 -223.2 86.65 -222.25 86.9 -221.9 87.3 -221.4 88.4 -219.95 88.55 -219.7 88.55 -216.8 89.2 -210.9 89.4 -209.2 Q87.75 -211.05 87.0 -211.05 L85.05 -208.6 84.75 -209.4 84.6 -209.95 84.6 -210.0 Q84.15 -212.5 84.25 -218.2 L84.3 -221.7 84.35 -224.1 84.35 -225.15 84.4 -225.15 M89.7 -205.9 L89.8 -205.15 89.8 -204.8 89.8 -204.75 89.85 -204.45 89.85 -204.35 86.75 -204.05 86.65 -204.3 86.6 -204.5 85.85 -206.35 85.65 -206.9 Q86.05 -207.9 87.2 -209.0 L89.0 -206.75 89.7 -205.9 M87.3 -206.55 L86.55 -206.4 86.55 -205.7 Q86.9 -205.25 87.3 -205.1 88.05 -205.45 88.05 -206.0 L87.3 -206.55 M-69.65 -239.85 Q-70.4 -239.6 -70.4 -239.15 L-70.35 -238.7 -70.0 -238.45 -70.25 -237.3 -70.5 -237.6 Q-72.4 -239.55 -72.9 -239.55 L-74.85 -237.7 -74.95 -237.85 -75.0 -238.4 -75.0 -238.95 -75.1 -240.25 -75.1 -240.35 -75.1 -240.45 -69.3 -241.3 -69.65 -239.85 M-74.95 -235.1 L-73.05 -237.75 -70.75 -235.0 -71.25 -232.15 Q-71.25 -228.95 -67.2 -228.95 -65.65 -228.95 -62.7 -231.1 L-62.7 -221.8 -62.7 -218.65 Q-63.95 -219.9 -64.6 -219.9 L-66.35 -217.8 Q-67.85 -215.65 -68.25 -215.55 L-69.8 -218.3 Q-70.95 -220.5 -71.6 -220.5 -72.05 -220.5 -74.6 -217.8 L-74.95 -232.15 -74.95 -232.6 -74.95 -233.2 -74.95 -233.95 -74.95 -235.1 M-73.2 -235.1 Q-73.95 -234.95 -73.95 -234.2 -73.75 -233.75 -73.2 -233.7 -72.45 -233.95 -72.45 -234.5 -72.65 -234.8 -73.2 -235.1 M-74.5 -215.45 L-72.0 -218.25 -70.4 -215.15 Q-69.4 -213.05 -68.1 -213.05 -67.2 -213.05 -64.2 -217.55 L-62.65 -216.05 -62.6 -212.7 Q-66.55 -210.85 -74.45 -213.6 L-74.5 -215.45 M-67.95 -217.8 L-67.25 -218.1 -67.2 -218.7 Q-67.2 -219.5 -67.95 -219.5 -68.7 -219.5 -68.7 -218.7 L-67.95 -217.8 M-72.15 -215.4 Q-72.9 -215.15 -72.9 -214.5 L-72.15 -213.9 Q-71.4 -214.3 -71.4 -214.8 L-72.15 -215.4 M-64.5 -213.05 Q-63.75 -213.4 -63.75 -213.9 -64.05 -214.5 -64.5 -214.5 L-65.25 -214.35 -65.25 -213.65 -64.5 -213.05" fill="#c40000" fill-rule="evenodd" stroke="none"/>
      <path d="M85.05 -208.6 L87.0 -211.05 Q87.75 -211.05 89.4 -209.2 L89.4 -209.15 89.75 -205.9 89.7 -205.9 89.0 -206.75 87.2 -209.0 Q86.05 -207.9 85.65 -206.9 L85.15 -208.2 85.05 -208.6 M87.3 -206.55 L88.05 -206.0 Q88.05 -205.45 87.3 -205.1 86.9 -205.25 86.55 -205.7 L86.55 -206.4 87.3 -206.55 M-75.75 -249.65 Q-73.9 -249.45 -73.1 -248.55 L-74.75 -248.4 Q-75.5 -248.35 -75.75 -249.65 M-69.3 -248.95 L-69.35 -249.15 Q-68.85 -250.2 -67.05 -250.75 L-67.4 -249.35 -67.45 -249.0 -69.3 -248.95 M-70.0 -238.45 L-70.35 -238.7 -70.4 -239.15 Q-70.4 -239.6 -69.65 -239.85 L-70.0 -238.45 M-74.85 -237.7 L-72.9 -239.55 Q-72.4 -239.55 -70.5 -237.6 L-70.25 -237.3 -70.75 -235.0 -73.05 -237.75 -74.95 -235.1 -74.95 -236.35 -74.95 -237.55 -74.85 -237.7 M-73.2 -235.1 Q-72.65 -234.8 -72.45 -234.5 -72.45 -233.95 -73.2 -233.7 -73.75 -233.75 -73.95 -234.2 -73.95 -234.95 -73.2 -235.1 M-74.6 -217.8 Q-72.05 -220.5 -71.6 -220.5 -70.95 -220.5 -69.8 -218.3 L-68.25 -215.55 Q-67.85 -215.65 -66.35 -217.8 L-64.6 -219.9 Q-63.95 -219.9 -62.7 -218.65 L-62.65 -216.05 -64.2 -217.55 Q-67.2 -213.05 -68.1 -213.05 -69.4 -213.05 -70.4 -215.15 L-72.0 -218.25 -74.5 -215.45 -74.6 -217.8 M-67.95 -217.8 L-68.7 -218.7 Q-68.7 -219.5 -67.95 -219.5 -67.2 -219.5 -67.2 -218.7 L-67.25 -218.1 -67.95 -217.8 M-64.5 -213.05 L-65.25 -213.65 -65.25 -214.35 -64.5 -214.5 Q-64.05 -214.5 -63.75 -213.9 -63.75 -213.4 -64.5 -213.05 M-72.15 -215.4 L-71.4 -214.8 Q-71.4 -214.3 -72.15 -213.9 L-72.9 -214.5 Q-72.9 -215.15 -72.15 -215.4 M-69.8 -205.65 L-66.7 -205.45 Q-67.4 -203.35 -68.1 -202.95 -70.55 -202.35 -69.8 -205.65 M-63.4 -205.55 L-61.75 -205.7 -62.0 -202.55 Q-63.15 -203.5 -63.3 -204.15 L-63.4 -205.55 M-73.0 -206.3 L-73.35 -205.65 Q-74.3 -203.75 -76.4 -203.55 L-75.6 -207.6 Q-74.5 -206.85 -73.0 -206.3" fill="#ffffff" fill-rule="evenodd" stroke="none"/>
      <path d="M-69.3 -248.95 L-69.35 -248.95 -69.35 -249.15 -69.3 -248.95" fill="#3f271f" fill-rule="evenodd" stroke="none"/>
      <path d="M67.5 -348.0 Q74.45 -347.15 78.05 -344.45 81.25 -342.0 81.45 -338.75 81.6 -335.45 78.6 -333.4 75.25 -331.1 67.8 -329.9 75.6 -329.15 78.6 -325.6 81.25 -322.5 80.6 -319.3 80.0 -316.2 76.65 -314.5 74.6 -313.45 71.2 -312.5 L65.55 -311.2 66.3 -315.2 Q67.45 -322.25 67.8 -329.9 68.15 -338.55 67.5 -348.0 M72.25 -294.1 Q68.05 -298.55 63.15 -301.8 64.55 -306.35 65.55 -311.15 L65.55 -311.2 Q77.5 -303.55 74.5 -296.8 73.75 -295.1 72.25 -294.1 M-99.55 -288.7 Q-99.4 -293.85 -91.95 -299.25 L-91.45 -297.15 Q-89.55 -289.35 -86.0 -284.35 L-84.55 -282.5 -86.0 -282.05 Q-90.55 -280.8 -93.9 -281.55 -97.6 -282.35 -98.9 -285.3 -99.65 -287.0 -99.55 -288.7 M-91.95 -299.3 Q-97.5 -301.2 -101.05 -303.0 -104.4 -304.7 -105.0 -307.8 -105.65 -311.0 -103.0 -314.1 -100.0 -317.65 -93.75 -319.85 -93.8 -308.0 -91.95 -299.3 M-93.75 -319.9 Q-99.65 -319.6 -103.0 -321.9 -106.0 -323.95 -105.85 -327.25 -105.65 -330.5 -102.45 -332.95 -98.85 -335.65 -93.0 -336.0 -93.75 -327.35 -93.75 -319.9 M62.0 -334.75 Q63.05 -333.7 63.25 -331.85 L62.0 -331.25 Q60.75 -332.35 60.75 -333.0 60.75 -334.35 62.0 -334.75 M63.25 -319.25 Q62.15 -317.75 61.75 -317.75 L60.75 -318.0 Q60.25 -318.4 60.25 -319.1 60.25 -319.95 60.55 -320.15 L61.75 -320.25 Q62.55 -320.25 63.25 -319.25 M56.0 -334.75 Q57.15 -334.75 62.75 -326.4 62.75 -325.4 60.4 -323.0 57.95 -320.55 56.5 -320.25 57.25 -319.8 59.45 -316.85 61.75 -313.75 61.75 -312.85 61.75 -312.25 60.0 -310.75 58.25 -309.25 57.5 -309.25 55.25 -309.25 55.25 -311.0 55.25 -311.95 56.3 -312.1 57.7 -312.35 58.3 -313.1 58.3 -313.85 56.0 -316.9 53.75 -319.9 53.75 -320.4 53.75 -321.15 56.65 -323.55 59.55 -326.0 59.55 -326.5 L57.15 -329.25 Q54.75 -331.9 54.75 -333.05 54.75 -334.75 56.0 -334.75 M56.55 -325.25 Q56.0 -324.85 55.5 -324.75 54.25 -325.85 54.25 -326.3 54.25 -327.75 55.5 -327.75 56.75 -327.75 56.75 -326.35 L56.55 -325.25 M54.5 -315.75 L55.75 -314.75 Q55.75 -313.8 54.5 -313.25 L53.3 -313.85 53.25 -314.6 Q53.25 -315.35 54.5 -315.75 M-78.95 -318.15 L-77.75 -318.25 Q-76.95 -318.25 -76.25 -317.25 -77.15 -315.75 -77.75 -315.75 L-78.75 -316.0 Q-79.25 -316.5 -79.25 -317.1 -79.25 -317.95 -78.95 -318.15 M-77.25 -309.4 L-82.75 -301.0 -79.8 -299.4 Q-77.9 -298.35 -78.25 -296.85 L-79.75 -296.25 Q-81.05 -296.25 -86.0 -300.3 L-86.25 -300.5 -86.0 -301.05 -80.6 -309.1 Q-81.2 -310.15 -84.75 -312.05 L-86.0 -312.85 Q-87.75 -314.15 -87.75 -315.6 -87.75 -317.15 -86.0 -319.5 L-85.5 -320.15 -82.0 -324.25 Q-80.75 -323.75 -80.75 -322.85 -80.75 -321.6 -82.5 -319.55 -84.55 -317.15 -85.0 -315.75 L-80.6 -313.05 Q-77.25 -310.8 -77.25 -309.4 M-76.5 -300.75 Q-77.75 -301.85 -77.75 -302.3 -77.75 -303.75 -76.5 -303.75 -75.25 -303.75 -75.25 -302.35 L-75.35 -301.25 -76.5 -300.75 M-86.0 -323.0 L-86.5 -322.75 Q-87.75 -323.95 -87.75 -324.3 -87.75 -325.75 -86.5 -325.75 L-86.0 -325.65 Q-85.25 -325.45 -85.25 -324.35 L-85.35 -323.25 -86.0 -323.0 M-86.0 -306.3 L-86.25 -307.1 -86.0 -308.1 -85.95 -308.15 -84.75 -308.25 Q-83.95 -308.25 -83.25 -307.25 -84.25 -305.75 -84.75 -305.75 L-85.75 -306.0 -86.0 -306.3 M-82.75 -293.85 L-82.85 -292.75 -84.0 -292.25 Q-85.25 -293.35 -85.25 -293.8 -85.25 -295.25 -84.0 -295.25 -82.75 -295.25 -82.75 -293.85" fill="#ffffff" fill-rule="evenodd" stroke="none"/>
      <path d="M71.2 -312.5 L103.0 -295.0 Q83.25 -296.3 81.0 -282.0 77.15 -288.9 72.25 -294.1 73.75 -295.1 74.5 -296.8 77.5 -303.55 65.55 -311.2 L65.55 -311.15 Q64.55 -306.35 63.15 -301.8 20.4 -321.85 -1.0 -315.55 -1.25 -315.25 -2.75 -314.95 L-6.75 -314.0 Q-9.2 -313.3 -11.05 -315.0 -58.95 -316.75 -84.55 -282.5 L-95.75 -254.85 -97.25 -257.95 Q-105.15 -272.8 -120.0 -267.5 L-99.55 -288.7 Q-99.65 -287.0 -98.9 -285.3 -97.6 -282.35 -93.9 -281.55 -90.55 -280.8 -86.0 -282.05 L-84.55 -282.5 -86.0 -284.35 Q-89.55 -289.35 -91.45 -297.15 L-91.95 -299.25 -91.9 -299.3 -91.95 -299.3 Q-93.8 -308.0 -93.75 -319.85 L-93.7 -319.9 -93.75 -319.9 Q-93.75 -327.35 -93.0 -336.0 -90.4 -333.7 -86.0 -331.7 -66.7 -322.95 -13.0 -319.75 -13.0 -322.55 -11.0 -323.25 L-6.25 -324.5 Q-3.45 -325.05 -1.8 -324.1 -0.15 -323.2 0.3 -321.45 L0.3 -321.5 Q56.25 -333.45 67.5 -348.0 68.15 -338.55 67.8 -329.9 67.45 -322.25 66.3 -315.2 L65.55 -311.2 71.2 -312.5 M-1.0 -315.55 Q-0.05 -317.0 0.2 -319.75 L0.3 -321.4 0.3 -321.45 0.3 -321.4 0.2 -319.75 Q-0.05 -317.0 -1.0 -315.55 M54.5 -315.75 Q53.25 -315.35 53.25 -314.6 L53.3 -313.85 54.5 -313.25 Q55.75 -313.8 55.75 -314.75 L54.5 -315.75 M56.55 -325.25 L56.75 -326.35 Q56.75 -327.75 55.5 -327.75 54.25 -327.75 54.25 -326.3 54.25 -325.85 55.5 -324.75 56.0 -324.85 56.55 -325.25 M56.0 -334.75 Q54.75 -334.75 54.75 -333.05 54.75 -331.9 57.15 -329.25 L59.55 -326.5 Q59.55 -326.0 56.65 -323.55 53.75 -321.15 53.75 -320.4 53.75 -319.9 56.0 -316.9 58.3 -313.85 58.3 -313.1 57.7 -312.35 56.3 -312.1 55.25 -311.95 55.25 -311.0 55.25 -309.25 57.5 -309.25 58.25 -309.25 60.0 -310.75 61.75 -312.25 61.75 -312.85 61.75 -313.75 59.45 -316.85 57.25 -319.8 56.5 -320.25 57.95 -320.55 60.4 -323.0 62.75 -325.4 62.75 -326.4 57.15 -334.75 56.0 -334.75 M63.25 -319.25 Q62.55 -320.25 61.75 -320.25 L60.55 -320.15 Q60.25 -319.95 60.25 -319.1 60.25 -318.4 60.75 -318.0 L61.75 -317.75 Q62.15 -317.75 63.25 -319.25 M62.0 -334.75 Q60.75 -334.35 60.75 -333.0 60.75 -332.35 62.0 -331.25 L63.25 -331.85 Q63.05 -333.7 62.0 -334.75 M-76.5 -300.75 L-75.35 -301.25 -75.25 -302.35 Q-75.25 -303.75 -76.5 -303.75 -77.75 -303.75 -77.75 -302.3 -77.75 -301.85 -76.5 -300.75 M-77.25 -309.4 Q-77.25 -310.8 -80.6 -313.05 L-85.0 -315.75 Q-84.55 -317.15 -82.5 -319.55 -80.75 -321.6 -80.75 -322.85 -80.75 -323.75 -82.0 -324.25 L-85.5 -320.15 -86.0 -319.5 Q-87.75 -317.15 -87.75 -315.6 -87.75 -314.15 -86.0 -312.85 L-84.75 -312.05 Q-81.2 -310.15 -80.6 -309.1 L-86.0 -301.05 -86.25 -300.5 -86.0 -300.3 Q-81.05 -296.25 -79.75 -296.25 L-78.25 -296.85 Q-77.9 -298.35 -79.8 -299.4 L-82.75 -301.0 -77.25 -309.4 M-78.95 -318.15 Q-79.25 -317.95 -79.25 -317.1 -79.25 -316.5 -78.75 -316.0 L-77.75 -315.75 Q-77.15 -315.75 -76.25 -317.25 -76.95 -318.25 -77.75 -318.25 L-78.95 -318.15 M-13.0 -319.75 Q-13.0 -316.95 -11.05 -315.0 -13.0 -316.95 -13.0 -319.75 M-86.0 -323.0 L-85.35 -323.25 -85.25 -324.35 Q-85.25 -325.45 -86.0 -325.65 L-86.5 -325.75 Q-87.75 -325.75 -87.75 -324.3 -87.75 -323.95 -86.5 -322.75 L-86.0 -323.0 M-82.75 -293.85 Q-82.75 -295.25 -84.0 -295.25 -85.25 -295.25 -85.25 -293.8 -85.25 -293.35 -84.0 -292.25 L-82.85 -292.75 -82.75 -293.85 M-86.0 -306.3 L-85.75 -306.0 -84.75 -305.75 Q-84.25 -305.75 -83.25 -307.25 -83.95 -308.25 -84.75 -308.25 L-85.95 -308.15 -86.0 -308.1 -86.25 -307.1 -86.0 -306.3" fill="#c40000" fill-rule="evenodd" stroke="none"/>
      <path d="M67.5 -348.0 Q74.45 -347.15 78.05 -344.45 81.25 -342.0 81.45 -338.75 81.6 -335.45 78.6 -333.4 75.25 -331.1 67.8 -329.9 75.6 -329.15 78.6 -325.6 81.25 -322.5 80.6 -319.3 80.0 -316.2 76.65 -314.5 74.6 -313.45 71.2 -312.5 L103.0 -295.0 Q83.25 -296.3 81.0 -282.0 77.15 -288.9 72.25 -294.1 68.05 -298.55 63.15 -301.8 20.4 -321.85 -1.0 -315.55 -1.25 -315.25 -2.75 -314.95 L-6.75 -314.0 Q-9.2 -313.3 -11.05 -315.0 -58.95 -316.75 -84.55 -282.5 L-95.75 -254.85 -97.25 -257.95 Q-105.15 -272.8 -120.0 -267.5 L-99.55 -288.7 Q-99.4 -293.85 -91.95 -299.25 L-91.95 -299.3 Q-97.5 -301.2 -101.05 -303.0 -104.4 -304.7 -105.0 -307.8 -105.65 -311.0 -103.0 -314.1 -100.0 -317.65 -93.75 -319.85 L-93.75 -319.9 Q-99.65 -319.6 -103.0 -321.9 -106.0 -323.95 -105.85 -327.25 -105.65 -330.5 -102.45 -332.95 -98.85 -335.65 -93.0 -336.0 -90.4 -333.7 -86.0 -331.7 -66.7 -322.95 -13.0 -319.75 -13.0 -322.55 -11.0 -323.25 L-6.25 -324.5 Q-3.45 -325.05 -1.8 -324.1 -0.15 -323.2 0.3 -321.45 L0.3 -321.5 Q56.25 -333.45 67.5 -348.0 68.15 -338.55 67.8 -329.9 67.45 -322.25 66.3 -315.2 L65.55 -311.2 71.2 -312.5 M0.3 -321.45 L0.3 -321.4 0.2 -319.75 Q-0.05 -317.0 -1.0 -315.55 M65.55 -311.2 Q77.5 -303.55 74.5 -296.8 73.75 -295.1 72.25 -294.1 M65.55 -311.2 L65.55 -311.15 Q64.55 -306.35 63.15 -301.8 M-11.05 -315.0 Q-13.0 -316.95 -13.0 -319.75 M-93.75 -319.9 L-93.7 -319.9 -93.75 -319.85 Q-93.8 -308.0 -91.95 -299.3 L-91.9 -299.3 -91.95 -299.25 -91.45 -297.15 Q-89.55 -289.35 -86.0 -284.35 L-84.55 -282.5 -86.0 -282.05 Q-90.55 -280.8 -93.9 -281.55 -97.6 -282.35 -98.9 -285.3 -99.65 -287.0 -99.55 -288.7 M-93.75 -319.9 Q-93.75 -327.35 -93.0 -336.0" fill="none" stroke="#000000" stroke-linecap="round" stroke-linejoin="round" stroke-width="5.0"/>
    </g>
    <linearGradient gradientTransform="matrix(1.0, 0.0, 0.0, 1.0, 0.0, 0.0)" gradientUnits="userSpaceOnUse" id="gradient0" spreadMethod="pad" x1="-819.2" x2="819.2">
      <stop offset="0.0" stop-color="#24658e"/>
      <stop offset="1.0" stop-color="#234154"/>
    </linearGradient>
  </defs>
</svg>
