<?xml version="1.0" encoding="UTF-8" standalone="no"?>
<svg xmlns:xlink="http://www.w3.org/1999/xlink" height="434.9px" width="399.95px" xmlns="http://www.w3.org/2000/svg">
  <g transform="matrix(1, 0, 0, 1, 210.75, 443.1)">
    <use height="121.6" transform="matrix(1.0, 0.0, 0.0, 1.0, -110.1, -343.4)" width="222.95" xlink:href="#shape0"/>
  </g>
  <defs>
    <g id="shape0" transform="matrix(1, 0, 0, 1, 110.1, 343.4)">
      <path d="M9.7 -301.55 Q7.95 -312.3 5.85 -312.3 3.35 -312.3 2.9 -309.8 L2.85 -305.25 Q3.0 -299.15 4.1 -293.3 6.3 -281.7 11.1 -281.7 17.85 -281.7 23.6 -284.15 28.8 -286.35 28.8 -288.3 28.8 -291.3 28.2 -290.55 L24.6 -291.15 Q23.1 -291.15 18.45 -289.8 13.8 -288.45 12.3 -288.45 9.3 -288.45 11.1 -288.75 11.1 -293.0 9.7 -301.55 M-12.9 -270.5 Q-23.1 -278.75 -23.1 -290.15 -23.1 -302.1 -11.9 -310.55 -0.65 -319.0 15.15 -319.0 31.0 -319.0 42.2 -310.55 53.4 -302.1 53.4 -290.15 53.4 -281.5 47.55 -274.7 L47.0 -274.7 Q12.55 -276.05 -12.9 -270.5" fill="#ffffff" fill-rule="evenodd" stroke="none"/>
      <path d="M9.7 -301.55 Q11.1 -293.0 11.1 -288.75 9.3 -288.45 12.3 -288.45 13.8 -288.45 18.45 -289.8 23.1 -291.15 24.6 -291.15 L28.2 -290.55 Q28.8 -291.3 28.8 -288.3 28.8 -286.35 23.6 -284.15 17.85 -281.7 11.1 -281.7 6.3 -281.7 4.1 -293.3 3.0 -299.15 2.85 -305.25 L2.9 -309.8 Q3.35 -312.3 5.85 -312.3 7.95 -312.3 9.7 -301.55 M80.7 -322.3 Q90.4 -311.65 91.05 -298.35 91.7 -284.35 82.05 -271.6 117.55 -265.55 108.5 -249.35 -35.25 -259.75 -77.2 -224.3 -80.3 -226.55 -90.5 -231.35 -99.25 -235.4 -102.8 -239.05 -108.1 -244.45 -107.55 -252.75 -106.95 -262.5 -98.25 -277.6 -89.95 -292.1 -80.6 -301.65 -70.9 -311.55 -57.9 -318.4 -34.95 -330.45 16.75 -339.45 37.3 -343.0 54.75 -337.9 70.85 -333.2 80.7 -322.3 M47.55 -274.7 Q53.4 -281.5 53.4 -290.15 53.4 -302.1 42.2 -310.55 31.0 -319.0 15.15 -319.0 -0.65 -319.0 -11.9 -310.55 -23.1 -302.1 -23.1 -290.15 -23.1 -278.75 -12.9 -270.5 12.55 -276.05 47.0 -274.7 L47.55 -274.7 75.15 -272.65 82.05 -271.6 75.15 -272.65 47.55 -274.7 M-77.2 -224.3 Q-61.55 -259.95 -12.9 -270.5 -61.55 -259.95 -77.2 -224.3" fill="#44aa3a" fill-rule="evenodd" stroke="none"/>
      <path d="M80.7 -322.3 Q90.4 -311.65 91.05 -298.35 91.7 -284.35 82.05 -271.6 117.55 -265.55 108.5 -249.35 -35.25 -259.75 -77.2 -224.3 -80.3 -226.55 -90.5 -231.35 -99.25 -235.4 -102.8 -239.05 -108.1 -244.45 -107.55 -252.75 -106.95 -262.5 -98.25 -277.6 -89.95 -292.1 -80.6 -301.65 -70.9 -311.55 -57.9 -318.4 -34.95 -330.45 16.75 -339.45 37.3 -343.0 54.75 -337.9 70.85 -333.2 80.7 -322.3 M-12.9 -270.5 Q12.55 -276.05 47.0 -274.7 L47.55 -274.7 75.15 -272.65 82.05 -271.6 M-12.9 -270.5 Q-61.55 -259.95 -77.2 -224.3" fill="none" stroke="#000000" stroke-linecap="round" stroke-linejoin="round" stroke-width="5.0"/>
    </g>
  </defs>
</svg>
