<?xml version="1.0" encoding="UTF-8" standalone="no"?>
<svg xmlns:xlink="http://www.w3.org/1999/xlink" height="434.9px" width="399.95px" xmlns="http://www.w3.org/2000/svg">
  <g transform="matrix(1, 0, 0, 1, 210.75, 443.1)">
    <use height="110.25" transform="matrix(1.0, 0.0, 0.0, 1.0, -109.05, -378.45)" width="200.4" xlink:href="#shape0"/>
  </g>
  <defs>
    <g id="shape0" transform="matrix(1, 0, 0, 1, 109.05, 378.45)">
      <path d="M48.75 -353.9 Q50.4 -359.7 49.95 -365.5 50.4 -359.7 48.75 -353.9 M-7.1 -321.05 Q2.8 -337.9 21.3 -346.55 38.7 -354.5 47.55 -375.95 49.6 -370.75 49.95 -365.5 54.6 -358.4 54.8 -353.55 L54.8 -352.7 Q59.45 -346.55 54.2 -340.4 L60.45 -341.35 Q58.5 -333.6 50.9 -328.7 L58.05 -329.9 Q57.45 -327.1 55.55 -324.7 56.15 -321.0 55.85 -317.9 71.85 -320.1 88.85 -308.5 74.7 -307.5 70.8 -303.15 L73.0 -294.35 Q60.95 -301.75 50.25 -307.95 29.4 -319.2 4.4 -318.55 16.25 -322.45 24.25 -332.5 L-7.1 -321.05 M-31.3 -313.2 Q-56.85 -304.35 -70.2 -286.4 L-83.55 -270.7 -83.55 -282.2 -106.55 -277.9 Q-103.85 -283.7 -79.15 -297.85 L-76.25 -300.6 -86.85 -302.75 -78.25 -309.25 -89.25 -312.3 -83.15 -316.5 Q-89.65 -317.3 -94.55 -318.55 L-93.35 -320.0 -88.2 -323.1 Q-94.7 -323.2 -99.2 -330.0 L-88.2 -330.85 Q-97.85 -335.7 -99.05 -345.7 -79.8 -333.3 -55.35 -331.45 -30.95 -329.65 -19.5 -319.55 L-19.7 -319.35 -20.65 -318.55 Q-41.85 -321.5 -56.5 -321.0 -49.3 -314.5 -31.3 -313.2 M50.25 -307.95 Q55.2 -311.3 55.85 -317.9 55.2 -311.3 50.25 -307.95 M49.85 -320.05 Q53.45 -322.15 55.55 -324.7 53.45 -322.15 49.85 -320.05 M52.1 -347.1 Q54.7 -349.25 54.8 -352.7 54.7 -349.25 52.1 -347.1 M-70.2 -286.4 Q-70.75 -289.2 -68.25 -295.3 L-81.8 -295.3 -79.15 -297.85 -81.8 -295.3 -68.25 -295.3 Q-70.75 -289.2 -70.2 -286.4" fill="#6cab8c" fill-rule="evenodd" stroke="none"/>
      <path d="M4.4 -318.55 L-4.0 -318.0 Q-3.65 -316.15 -5.85 -314.55 -8.1 -312.85 -11.6 -312.35 L-12.15 -312.3 Q-15.4 -312.0 -17.9 -312.95 -20.65 -313.9 -21.0 -315.8 -21.4 -317.75 -19.2 -319.45 -17.15 -320.95 -13.95 -321.45 L-13.4 -321.5 -7.15 -321.05 -7.1 -321.05 24.25 -332.5 Q16.25 -322.45 4.4 -318.55 M-21.65 -316.1 L-31.3 -313.2 Q-49.3 -314.5 -56.5 -321.0 -41.85 -321.5 -20.65 -318.55 -21.7 -317.4 -21.65 -316.1 M-7.1 -321.05 Q-4.4 -319.95 -4.0 -318.05 L-4.0 -318.0 -4.0 -318.05 Q-4.4 -319.95 -7.1 -321.05" fill="#579776" fill-rule="evenodd" stroke="none"/>
      <path d="M-12.15 -312.3 Q-15.7 -311.85 -18.45 -312.85 -21.2 -313.85 -21.55 -315.75 L-21.65 -316.1 Q-21.7 -317.4 -20.65 -318.55 L-19.7 -319.35 -19.45 -319.5 Q-17.3 -321.0 -13.95 -321.45 -17.15 -320.95 -19.2 -319.45 -21.4 -317.75 -21.0 -315.8 -20.65 -313.9 -17.9 -312.95 -15.4 -312.0 -12.15 -312.3" fill="#000000" fill-rule="evenodd" stroke="none"/>
      <path d="M49.95 -365.5 Q50.4 -359.7 48.75 -353.9 M-7.1 -321.05 Q2.8 -337.9 21.3 -346.55 38.7 -354.5 47.55 -375.95 49.6 -370.75 49.95 -365.5 54.6 -358.4 54.8 -353.55 L54.8 -352.7 Q59.45 -346.55 54.2 -340.4 L60.45 -341.35 Q58.5 -333.6 50.9 -328.7 L58.05 -329.9 Q57.45 -327.1 55.55 -324.7 56.15 -321.0 55.85 -317.9 71.85 -320.1 88.85 -308.5 74.7 -307.5 70.8 -303.15 L73.0 -294.35 Q60.95 -301.75 50.25 -307.95 29.4 -319.2 4.4 -318.55 L-4.0 -318.0 Q-3.65 -316.15 -5.85 -314.55 -8.1 -312.85 -11.6 -312.35 L-12.15 -312.3 Q-15.4 -312.0 -17.9 -312.95 -20.65 -313.9 -21.0 -315.8 -21.4 -317.75 -19.2 -319.45 -17.15 -320.95 -13.95 -321.45 L-13.4 -321.5 -7.15 -321.05 -7.1 -321.05 M-21.65 -316.1 L-31.3 -313.2 Q-56.85 -304.35 -70.2 -286.4 L-83.55 -270.7 -83.55 -282.2 -106.55 -277.9 Q-103.85 -283.7 -79.15 -297.85 L-76.25 -300.6 -86.85 -302.75 -78.25 -309.25 -89.25 -312.3 -83.15 -316.5 Q-89.65 -317.3 -94.55 -318.55 L-93.35 -320.0 -88.2 -323.1 Q-94.7 -323.2 -99.2 -330.0 L-88.2 -330.85 Q-97.85 -335.7 -99.05 -345.7 -79.8 -333.3 -55.35 -331.45 -30.95 -329.65 -19.5 -319.55 L-19.45 -319.5 M54.8 -352.7 Q54.7 -349.25 52.1 -347.1 M55.55 -324.7 Q53.45 -322.15 49.85 -320.05 M55.85 -317.9 Q55.2 -311.3 50.25 -307.95 M-4.0 -318.0 L-4.0 -318.05 Q-4.4 -319.95 -7.1 -321.05 M-79.15 -297.85 L-81.8 -295.3 -68.25 -295.3 Q-70.75 -289.2 -70.2 -286.4" fill="none" stroke="#000000" stroke-linecap="round" stroke-linejoin="round" stroke-width="5.0"/>
      <path d="M-7.1 -321.05 L24.25 -332.5 Q16.25 -322.45 4.4 -318.55 M-20.65 -318.55 Q-41.85 -321.5 -56.5 -321.0 -49.3 -314.5 -31.3 -313.2" fill="none" stroke="#010101" stroke-linecap="round" stroke-linejoin="round" stroke-opacity="0.0" stroke-width="5.0"/>
    </g>
  </defs>
</svg>
