<?xml version="1.0" encoding="UTF-8" standalone="no"?>
<svg xmlns:xlink="http://www.w3.org/1999/xlink" height="434.9px" width="399.95px" xmlns="http://www.w3.org/2000/svg">
  <g transform="matrix(1, 0, 0, 1, 210.75, 443.1)">
    <use height="97.15" transform="matrix(1.0, 0.0, 0.0, 1.0, -119.05, -346.0)" width="229.15" xlink:href="#shape0"/>
  </g>
  <defs>
    <g id="shape0" transform="matrix(1, 0, 0, 1, 119.05, 346.0)">
      <path d="M59.6 -304.35 Q52.15 -308.7 43.35 -312.65 68.05 -317.6 89.0 -328.25 L101.0 -340.5 Q101.05 -334.0 99.3 -329.95 101.75 -333.25 107.6 -336.35 104.25 -301.05 94.2 -272.15 90.35 -278.85 84.65 -284.95 88.95 -294.7 91.8 -317.7 84.4 -312.0 59.6 -304.35 M-82.8 -279.4 Q-85.75 -274.95 -88.1 -270.05 -106.15 -299.85 -105.6 -323.4 L-109.5 -338.5 -100.5 -332.0 -103.5 -343.5 -91.5 -334.05 Q-65.45 -322.8 -37.05 -314.65 -45.05 -311.45 -52.0 -307.5 L-92.5 -320.0 Q-90.5 -296.15 -82.8 -279.4" fill="#3d1010" fill-rule="evenodd" stroke="none"/>
      <path d="M84.65 -284.95 Q75.25 -295.1 60.75 -303.7 L59.6 -304.35 Q84.4 -312.0 91.8 -317.7 88.95 -294.7 84.65 -284.95 M-82.8 -279.4 Q-90.5 -296.15 -92.5 -320.0 L-52.0 -307.5 Q-71.65 -296.4 -82.8 -279.4" fill="#d76464" fill-rule="evenodd" stroke="none"/>
      <path d="M59.6 -304.35 Q52.15 -308.7 43.35 -312.65 68.05 -317.6 89.0 -328.25 L101.0 -340.5 Q101.05 -334.0 99.3 -329.95 101.75 -333.25 107.6 -336.35 104.25 -301.05 94.2 -272.15 90.35 -278.85 84.65 -284.95 75.25 -295.1 60.75 -303.7 L59.6 -304.35 Q84.4 -312.0 91.8 -317.7 88.95 -294.7 84.65 -284.95 M-52.0 -307.5 Q-45.05 -311.45 -37.05 -314.65 -65.45 -322.8 -91.5 -334.05 L-103.5 -343.5 -100.5 -332.0 -109.5 -338.5 -105.6 -323.4 Q-106.15 -299.85 -88.1 -270.05 -85.75 -274.95 -82.8 -279.4 -90.5 -296.15 -92.5 -320.0 L-52.0 -307.5 Q-71.65 -296.4 -82.8 -279.4" fill="none" stroke="#000000" stroke-linecap="round" stroke-linejoin="round" stroke-width="5.0"/>
      <path d="M-89.5 -284.8 Q-83.3 -285.4 -79.0 -282.05 -69.15 -282.75 -53.65 -275.25 -58.2 -261.65 -63.3 -256.7 L-63.5 -256.45 Q-67.1 -253.15 -70.75 -250.85 -76.2 -256.1 -79.25 -261.65 -81.2 -265.3 -82.25 -269.1 L-82.3 -269.1 -83.3 -268.45 Q-84.75 -267.8 -86.35 -268.0 -87.75 -268.2 -89.25 -269.1 L-89.85 -269.4 -92.2 -271.2 Q-95.55 -267.95 -101.25 -265.0 -105.9 -262.7 -112.0 -260.55 -115.1 -265.7 -116.0 -267.75 L-116.35 -268.55 Q-118.3 -274.85 -114.8 -291.6 -97.75 -290.4 -89.5 -284.8 -91.1 -281.25 -91.75 -278.0 -92.55 -274.45 -92.2 -271.2 -92.55 -274.45 -91.75 -278.0 -91.1 -281.25 -89.5 -284.8 M-79.95 -274.85 Q-79.2 -277.9 -79.0 -282.05 -79.2 -277.9 -79.95 -274.85 L-70.15 -269.6 -79.95 -274.85 Q-80.8 -271.35 -82.5 -269.25 L-83.3 -268.45 -82.5 -269.25 Q-80.8 -271.35 -79.95 -274.85 M-101.7 -277.6 L-91.75 -278.0 -101.7 -277.6" fill="#333333" fill-rule="evenodd" stroke="none"/>
      <path d="M-89.5 -284.8 Q-83.3 -285.4 -79.0 -282.05 -69.15 -282.75 -53.65 -275.25 -58.2 -261.65 -63.3 -256.7 L-63.5 -256.45 Q-67.1 -253.15 -70.75 -250.85 -76.2 -256.1 -79.25 -261.65 -81.2 -265.3 -82.25 -269.1 L-82.3 -269.1 -83.3 -268.45 Q-84.75 -267.8 -86.35 -268.0 -87.75 -268.2 -89.25 -269.1 L-89.85 -269.4 -92.2 -271.2 Q-95.55 -267.95 -101.25 -265.0 -105.9 -262.7 -112.0 -260.55 -115.1 -265.7 -116.0 -267.75 L-116.35 -268.55 Q-118.3 -274.85 -114.8 -291.6 -97.75 -290.4 -89.5 -284.8 -91.1 -281.25 -91.75 -278.0 -92.55 -274.45 -92.2 -271.2 M-91.75 -278.0 L-101.7 -277.6 M-70.15 -269.6 L-79.95 -274.85 Q-80.8 -271.35 -82.5 -269.25 L-83.3 -268.45 M-79.0 -282.05 Q-79.2 -277.9 -79.95 -274.85" fill="none" stroke="#000000" stroke-linecap="round" stroke-linejoin="round" stroke-width="4.0"/>
    </g>
  </defs>
</svg>
