<?xml version="1.0" encoding="UTF-8" standalone="no"?>
<svg xmlns:xlink="http://www.w3.org/1999/xlink" height="434.9px" width="399.95px" xmlns="http://www.w3.org/2000/svg">
  <g transform="matrix(1, 0, 0, 1, 210.75, 443.1)">
    <use height="111.2" transform="matrix(1.0, 0.0, 0.0, 1.0, -105.6, -343.5)" width="232.35" xlink:href="#shape0"/>
  </g>
  <defs>
    <g id="shape0" transform="matrix(1, 0, 0, 1, 105.6, 343.5)">
      <path d="M6.25 -325.45 Q6.4 -324.0 5.1 -323.15 1.9 -321.05 -1.45 -323.2 -3.35 -324.45 -5.2 -325.05 -33.25 -333.35 -61.45 -324.5 -82.3 -318.1 -92.45 -298.85 -102.7 -279.35 -93.7 -259.8 -65.7 -279.5 -30.95 -281.55 L-13.6 -281.85 Q45.1 -284.55 100.0 -264.35 L104.9 -277.25 104.4 -284.35 Q104.1 -288.4 97.25 -300.8 90.4 -313.25 73.85 -314.9 57.25 -316.55 51.1 -317.8 36.0 -320.8 23.65 -330.45 8.85 -339.05 -6.9 -333.2 L6.25 -325.45 M5.55 -343.5 Q16.95 -343.25 26.2 -336.95 45.8 -323.4 69.7 -322.85 94.6 -322.25 106.8 -301.0 110.4 -294.45 110.6 -286.95 L110.85 -280.05 Q111.0 -276.0 108.95 -271.0 106.9 -266.0 108.45 -260.35 119.75 -256.0 124.75 -245.9 L126.65 -243.7 Q126.9 -242.8 126.5 -242.05 124.55 -238.15 119.85 -237.25 86.7 -231.1 52.8 -232.6 L5.25 -234.7 -27.2 -237.25 Q-61.2 -238.6 -94.0 -246.9 L-95.2 -245.85 -96.35 -245.85 Q-98.2 -245.9 -98.95 -247.7 -99.85 -249.75 -99.0 -252.25 -100.6 -253.2 -101.35 -254.9 -105.6 -264.7 -105.6 -275.6 -105.55 -302.7 -85.3 -320.3 -82.15 -323.05 -78.45 -324.95 -48.9 -340.5 -15.5 -335.35 -14.6 -337.3 -12.6 -338.5 -4.3 -343.75 5.55 -343.5 M57.2 -270.5 Q35.1 -274.95 12.5 -274.7 -1.0 -274.45 -14.7 -274.55 -35.45 -276.0 -55.1 -269.95 L-72.85 -264.3 Q-81.7 -261.15 -87.45 -253.7 -82.0 -252.15 -76.4 -251.15 -13.05 -239.5 51.35 -239.55 L105.35 -241.3 Q112.45 -241.2 116.35 -244.5 110.15 -251.85 101.3 -255.85 80.0 -265.75 57.2 -270.5" fill="#000000" fill-rule="evenodd" stroke="none"/>
      <path d="M6.25 -325.45 L-6.9 -333.2 Q8.85 -339.05 23.65 -330.45 36.0 -320.8 51.1 -317.8 57.25 -316.55 73.85 -314.9 90.4 -313.25 97.25 -300.8 104.1 -288.4 104.4 -284.35 L104.9 -277.25 100.0 -264.35 Q45.1 -284.55 -13.6 -281.85 L-30.95 -281.55 Q-65.7 -279.5 -93.7 -259.8 -102.7 -279.35 -92.45 -298.85 -82.3 -318.1 -61.45 -324.5 -33.25 -333.35 -5.2 -325.05 -3.35 -324.45 -1.45 -323.2 1.9 -321.05 5.1 -323.15 6.4 -324.0 6.25 -325.45 M26.9 -301.0 L26.85 -301.2 26.95 -301.1 26.9 -301.0 M6.15 -302.2 Q5.45 -300.85 3.1 -298.0 2.7 -297.3 1.5 -296.35 L-0.15 -294.95 -6.6 -294.15 Q-12.65 -293.75 -17.1 -296.2 -21.5 -298.7 -24.4 -298.7 -30.3 -298.7 -33.6 -294.75 -35.85 -292.05 -35.85 -289.9 L-35.85 -288.6 Q-35.55 -287.45 -33.9 -287.45 -32.9 -287.45 -32.4 -288.6 L-31.35 -291.1 Q-29.4 -294.75 -22.35 -294.75 L-15.35 -292.35 Q-7.8 -289.95 -4.65 -289.95 3.25 -289.95 7.95 -297.7 L10.7 -303.05 Q11.95 -305.45 12.85 -305.45 16.25 -305.45 19.2 -302.85 L24.4 -297.2 Q31.85 -288.95 42.85 -288.95 49.45 -288.95 51.65 -290.95 52.9 -292.05 52.9 -294.5 52.0 -303.2 47.1 -303.2 46.2 -303.2 42.85 -300.95 39.45 -298.75 35.15 -298.75 L28.35 -304.7 Q25.35 -306.6 23.2 -307.7 19.15 -309.7 14.6 -309.7 10.1 -309.7 7.7 -306.0 L6.15 -302.2 M57.2 -270.5 Q80.0 -265.75 101.3 -255.85 110.15 -251.85 116.35 -244.5 112.45 -241.2 105.35 -241.3 L51.35 -239.55 Q-13.05 -239.5 -76.4 -251.15 -82.0 -252.15 -87.45 -253.7 -81.7 -261.15 -72.85 -264.3 L-55.1 -269.95 Q-35.45 -276.0 -14.7 -274.55 -1.0 -274.45 12.5 -274.7 35.1 -274.95 57.2 -270.5" fill="#52b966" fill-rule="evenodd" stroke="none"/>
      <path d="M6.15 -302.2 L7.7 -306.0 Q10.1 -309.7 14.6 -309.7 19.15 -309.7 23.2 -307.7 25.35 -306.6 28.35 -304.7 L35.15 -298.75 Q39.45 -298.75 42.85 -300.95 46.2 -303.2 47.1 -303.2 52.0 -303.2 52.9 -294.5 52.9 -292.05 51.65 -290.95 49.45 -288.95 42.85 -288.95 31.85 -288.95 24.4 -297.2 L19.2 -302.85 Q16.25 -305.45 12.85 -305.45 11.95 -305.45 10.7 -303.05 L7.95 -297.7 Q3.25 -289.95 -4.65 -289.95 -7.8 -289.95 -15.35 -292.35 L-22.35 -294.75 Q-29.4 -294.75 -31.35 -291.1 L-32.4 -288.6 Q-32.9 -287.45 -33.9 -287.45 -35.55 -287.45 -35.85 -288.6 L-35.85 -289.9 Q-35.85 -292.05 -33.6 -294.75 -30.3 -298.7 -24.4 -298.7 -21.5 -298.7 -17.1 -296.2 -12.65 -293.75 -6.6 -294.15 L-0.15 -294.95 1.5 -296.35 Q2.7 -297.3 3.1 -298.0 5.45 -300.85 6.15 -302.2 M26.9 -301.0 L26.95 -301.1 26.85 -301.2 26.9 -301.0" fill="#cdedd8" fill-rule="evenodd" stroke="none"/>
    </g>
  </defs>
</svg>
