<?xml version="1.0" encoding="UTF-8" standalone="no"?>
<svg xmlns:xlink="http://www.w3.org/1999/xlink" height="434.9px" width="399.95px" xmlns="http://www.w3.org/2000/svg">
  <g transform="matrix(1, 0, 0, 1, 210.75, 443.1)">
    <use height="50.35" transform="matrix(1.0, 0.0, 0.0, 1.0, -79.9, -298.7)" width="174.8" xlink:href="#shape0"/>
  </g>
  <defs>
    <g id="shape0" transform="matrix(1, 0, 0, 1, 79.9, 298.7)">
      <path d="M48.5 -287.5 Q71.2 -278.45 83.15 -254.7 -0.4 -308.3 -77.9 -250.35 -65.7 -274.3 -41.55 -285.55 -17.45 -296.8 4.2 -296.7 25.8 -296.6 48.5 -287.5" fill="#555555" fill-rule="evenodd" stroke="none"/>
      <path d="M48.5 -287.5 Q71.2 -278.45 83.15 -254.7 -0.4 -308.3 -77.9 -250.35 -65.7 -274.3 -41.55 -285.55 -17.45 -296.8 4.2 -296.7 25.8 -296.6 48.5 -287.5" fill="none" stroke="#000000" stroke-linecap="round" stroke-linejoin="round" stroke-width="4.0"/>
      <path d="M68.6 -253.45 Q66.1 -264.05 67.9 -270.7 69.4 -276.65 73.65 -278.25 77.45 -279.75 81.05 -277.2 84.75 -274.75 83.5 -268.1 89.35 -269.75 91.9 -266.0 94.35 -262.45 92.85 -258.6 91.25 -254.4 85.35 -252.9 78.85 -251.15 68.6 -253.45" fill="#ffe788" fill-rule="evenodd" stroke="none"/>
      <path d="M68.6 -253.45 Q78.85 -251.15 85.35 -252.9 91.25 -254.4 92.85 -258.6 94.35 -262.45 91.9 -266.0 89.35 -269.75 83.5 -268.1 84.75 -274.75 81.05 -277.2 77.45 -279.75 73.65 -278.25 69.4 -276.65 67.9 -270.7 66.1 -264.05 68.6 -253.45" fill="none" stroke="#000000" stroke-linecap="round" stroke-linejoin="round" stroke-width="3.0"/>
    </g>
  </defs>
</svg>
