<?xml version="1.0" encoding="UTF-8" standalone="no"?>
<svg xmlns:xlink="http://www.w3.org/1999/xlink" height="434.9px" width="399.95px" xmlns="http://www.w3.org/2000/svg">
  <g transform="matrix(1, 0, 0, 1, 210.75, 443.1)">
    <use height="221.2" transform="matrix(1.0, 0.0, 0.0, 1.0, -104.05, -333.2)" width="214.65" xlink:href="#shape0"/>
  </g>
  <defs>
    <g id="shape0" transform="matrix(1, 0, 0, 1, 104.05, 333.2)">
      <path d="M12.75 -222.55 L18.7 -221.75 28.0 -222.9 -3.0 -164.55 Q-8.85 -166.6 -14.4 -168.95 L12.75 -222.55 M36.35 -224.5 Q47.35 -227.1 56.9 -231.55 L61.5 -233.85 Q71.25 -239.1 79.3 -246.5 L84.6 -201.8 Q64.05 -172.85 26.95 -160.45 L19.95 -158.3 10.7 -160.45 5.4 -161.9 36.35 -224.5 M-24.75 -230.7 Q-12.95 -227.2 0.3 -224.65 L-26.95 -174.95 Q-45.0 -184.7 -59.55 -198.8 L-52.5 -241.2 Q-39.75 -235.15 -24.75 -230.7" fill="#49fd35" fill-opacity="0.5019608" fill-rule="evenodd" stroke="none"/>
      <path d="M12.75 -222.55 L0.3 -224.65 Q-12.95 -227.2 -24.75 -230.7 -12.35 -259.2 15.8 -263.1 49.8 -261.75 56.9 -231.55 49.8 -261.75 15.8 -263.1 -12.35 -259.2 -24.75 -230.7 -39.75 -235.15 -52.5 -241.2 L-59.55 -198.8 Q-45.0 -184.7 -26.95 -174.95 -20.9 -171.7 -14.4 -168.95 -8.85 -166.6 -3.0 -164.55 1.1 -163.15 5.4 -161.9 L10.7 -160.45 10.7 -142.95 Q18.85 -138.25 26.95 -142.95 L26.95 -160.45 Q64.05 -172.85 84.6 -201.8 L79.3 -246.5 Q71.25 -239.1 61.5 -233.85 L56.9 -231.55 Q47.35 -227.1 36.35 -224.5 L28.0 -222.9 18.7 -221.75 12.75 -222.55 M105.7 -238.15 Q112.95 -191.45 98.4 -169.85 90.15 -157.65 77.3 -141.2 L26.5 -114.5 -9.9 -114.5 -72.1 -144.2 Q-103.05 -174.65 -101.5 -225.1 -101.25 -234.3 -100.25 -242.6 -99.45 -249.15 -98.2 -255.15 -92.3 -283.45 -76.3 -299.85 -52.6 -324.15 -11.85 -329.7 L-1.85 -330.6 Q33.2 -332.15 63.65 -310.05 91.65 -289.75 101.85 -255.5 104.25 -247.25 105.7 -238.15 M73.0 -149.15 Q85.9 -159.1 91.05 -171.2 L68.25 -154.65 50.5 -141.75 33.4 -129.4 Q45.0 -133.35 54.4 -137.9 65.1 -143.1 73.0 -149.15 M-75.65 -253.9 Q-48.45 -299.75 -5.8 -322.25 -83.7 -295.65 -75.65 -253.9 M-60.65 -161.8 L-80.7 -172.4 Q-75.7 -161.85 -64.15 -153.35 -55.25 -146.8 -42.4 -141.45 -33.35 -137.7 -22.35 -134.55 -11.3 -131.35 1.7 -128.8 L-20.3 -140.4 -38.25 -149.95 -60.65 -161.8 M15.8 -263.1 Q9.65 -310.95 -1.85 -330.6 9.65 -310.95 15.8 -263.1" fill="#bb0000" fill-rule="evenodd" stroke="none"/>
      <path d="M26.95 -160.45 L26.95 -142.95 Q18.85 -138.25 10.7 -142.95 L10.7 -160.45 19.95 -158.3 26.95 -160.45 M73.0 -149.15 L68.25 -154.65 73.0 -149.15 Q65.1 -143.1 54.4 -137.9 45.0 -133.35 33.4 -129.4 L50.5 -141.75 68.25 -154.65 91.05 -171.2 Q85.9 -159.1 73.0 -149.15 M54.4 -137.9 L50.5 -141.75 54.4 -137.9 M-60.65 -161.8 L-64.15 -153.35 -60.65 -161.8 -38.25 -149.95 -42.4 -141.45 -38.25 -149.95 -20.3 -140.4 -22.35 -134.55 -20.3 -140.4 1.7 -128.8 Q-11.3 -131.35 -22.35 -134.55 -33.35 -137.7 -42.4 -141.45 -55.25 -146.8 -64.15 -153.35 -75.7 -161.85 -80.7 -172.4 L-60.65 -161.8" fill="#bfbfbf" fill-rule="evenodd" stroke="none"/>
      <path d="M-1.05 -208.2 L-1.0 -208.25 -1.0 -208.15 -1.05 -208.2 M-75.65 -253.9 Q-83.7 -295.65 -5.8 -322.25 -48.45 -299.75 -75.65 -253.9" fill="#ffffff" fill-rule="evenodd" stroke="none"/>
      <path d="M0.3 -224.65 L12.75 -222.55 -14.4 -168.95 Q-20.9 -171.7 -26.95 -174.95 L0.3 -224.65 M28.0 -222.9 L36.35 -224.5 5.4 -161.9 Q1.1 -163.15 -3.0 -164.55 L28.0 -222.9 M-1.05 -208.2 L-1.0 -208.15 -1.0 -208.25 -1.05 -208.2" fill="#ffffff" fill-opacity="0.5019608" fill-rule="evenodd" stroke="none"/>
      <path d="M0.3 -224.65 L12.75 -222.55 18.7 -221.75 28.0 -222.9 36.35 -224.5 Q47.35 -227.1 56.9 -231.55 49.8 -261.75 15.8 -263.1 -12.35 -259.2 -24.75 -230.7 -12.95 -227.2 0.3 -224.65 M-26.95 -174.95 Q-20.9 -171.7 -14.4 -168.95 M56.9 -231.55 L61.5 -233.85 Q71.25 -239.1 79.3 -246.5 L84.6 -201.8 Q64.05 -172.85 26.95 -160.45 L26.95 -142.95 Q18.85 -138.25 10.7 -142.95 L10.7 -160.45 5.4 -161.9 Q1.1 -163.15 -3.0 -164.55 -8.85 -166.6 -14.4 -168.95 M105.7 -238.15 Q112.95 -191.45 98.4 -169.85 90.15 -157.65 77.3 -141.2 L26.5 -114.5 -9.9 -114.5 -72.1 -144.2 Q-103.05 -174.65 -101.5 -225.1 -101.25 -234.3 -100.25 -242.6 -99.45 -249.15 -98.2 -255.15 -92.3 -283.45 -76.3 -299.85 -52.6 -324.15 -11.85 -329.7 L-1.85 -330.6 Q33.2 -332.15 63.65 -310.05 91.65 -289.75 101.85 -255.5 104.25 -247.25 105.7 -238.15 M68.25 -154.65 L73.0 -149.15 Q85.9 -159.1 91.05 -171.2 L68.25 -154.65 50.5 -141.75 54.4 -137.9 Q65.1 -143.1 73.0 -149.15 M26.95 -160.45 L19.95 -158.3 10.7 -160.45 M54.4 -137.9 Q45.0 -133.35 33.4 -129.4 L50.5 -141.75 M-26.95 -174.95 Q-45.0 -184.7 -59.55 -198.8 L-52.5 -241.2 Q-39.75 -235.15 -24.75 -230.7 M-64.15 -153.35 L-60.65 -161.8 -80.7 -172.4 Q-75.7 -161.85 -64.15 -153.35 -55.25 -146.8 -42.4 -141.45 L-38.25 -149.95 -60.65 -161.8 M-22.35 -134.55 L-20.3 -140.4 -38.25 -149.95 M-42.4 -141.45 Q-33.35 -137.7 -22.35 -134.55 -11.3 -131.35 1.7 -128.8 L-20.3 -140.4 M-1.85 -330.6 Q9.65 -310.95 15.8 -263.1" fill="none" stroke="#000000" stroke-linecap="round" stroke-linejoin="round" stroke-width="5.0"/>
    </g>
  </defs>
</svg>
