<?xml version="1.0" encoding="UTF-8" standalone="no"?>
<svg xmlns:xlink="http://www.w3.org/1999/xlink" height="434.9px" width="399.95px" xmlns="http://www.w3.org/2000/svg">
  <g transform="matrix(1, 0, 0, 1, 210.75, 443.1)">
    <use height="182.05" transform="matrix(1.0, 0.0, 0.0, 1.0, -134.2, -443.1)" width="158.45" xlink:href="#shape0"/>
  </g>
  <defs>
    <g id="shape0" transform="matrix(1, 0, 0, 1, 134.2, 443.1)">
      <path d="M-92.4 -408.8 Q-108.1 -399.6 -131.7 -410.0 -132.0 -419.85 -123.05 -422.85 -124.5 -425.35 -125.25 -428.25 -119.25 -436.7 -108.75 -435.9 L-107.5 -439.4 Q-97.6 -442.65 -92.3 -437.0 -102.3 -423.55 -92.4 -408.8 -113.85 -418.15 -108.75 -435.9 -113.85 -418.15 -92.4 -408.8 -116.0 -410.55 -123.05 -422.85 -116.0 -410.55 -92.4 -408.8" fill="#ffffff" fill-rule="evenodd" stroke="none"/>
      <path d="M-92.2 -386.05 L-92.4 -408.8 -80.25 -398.45 Q-84.1 -386.75 -92.2 -386.05" fill="#ff1a1a" fill-rule="evenodd" stroke="none"/>
      <path d="M-92.0 -359.05 L-92.2 -386.05 Q-84.1 -386.75 -80.25 -398.45 L-65.8 -386.15 Q-77.8 -366.0 -92.0 -359.05" fill="#ffd01a" fill-rule="evenodd" stroke="none"/>
      <path d="M-91.75 -330.6 L-92.0 -359.05 Q-77.8 -366.0 -65.8 -386.15 L-50.55 -373.2 Q-67.95 -345.4 -91.75 -330.6" fill="#e9ff1a" fill-rule="evenodd" stroke="none"/>
      <path d="M-91.55 -302.4 L-91.75 -330.6 Q-67.95 -345.4 -50.55 -373.2 L-35.5 -360.4 Q-59.25 -327.1 -91.55 -302.4" fill="#1aff30" fill-rule="evenodd" stroke="none"/>
      <path d="M-91.3 -273.75 L-91.55 -302.4 Q-59.25 -327.1 -35.5 -360.4 L-20.15 -347.35 Q-52.25 -304.7 -91.3 -273.75" fill="#1ae9ff" fill-rule="evenodd" stroke="none"/>
      <path d="M-72.05 -264.25 L-91.25 -263.55 -91.3 -273.75 Q-52.25 -304.7 -20.15 -347.35 L-4.55 -334.1 Q-31.8 -297.1 -72.05 -264.25" fill="#1a5fff" fill-rule="evenodd" stroke="none"/>
      <path d="M-38.6 -269.7 Q-53.8 -265.65 -72.05 -264.25 -31.8 -297.1 -4.55 -334.1 L10.9 -320.95 Q-8.05 -292.5 -38.6 -269.7" fill="#8c1aff" fill-rule="evenodd" stroke="none"/>
      <path d="M10.9 -320.95 L21.75 -311.75 Q2.85 -280.8 -38.6 -269.7 -8.05 -292.5 10.9 -320.95" fill="#ff1ae9" fill-rule="evenodd" stroke="none"/>
      <path d="M10.9 -320.95 L21.75 -311.75 Q2.85 -280.8 -38.6 -269.7 -53.8 -265.65 -72.05 -264.25 L-91.25 -263.55 -91.3 -273.75 -91.55 -302.4 -91.75 -330.6 -92.0 -359.05 -92.2 -386.05 -92.4 -408.8 Q-108.1 -399.6 -131.7 -410.0 -132.0 -419.85 -123.05 -422.85 -124.5 -425.35 -125.25 -428.25 -119.25 -436.7 -108.75 -435.9 L-107.5 -439.4 Q-97.6 -442.65 -92.3 -437.0 -102.3 -423.55 -92.4 -408.8 L-80.25 -398.45 -65.8 -386.15 -50.55 -373.2 -35.5 -360.4 -20.15 -347.35 -4.55 -334.1 10.9 -320.95 M-108.75 -435.9 Q-113.85 -418.15 -92.4 -408.8 -116.0 -410.55 -123.05 -422.85" fill="none" stroke="#000000" stroke-linecap="round" stroke-linejoin="round" stroke-width="5.0"/>
      <path d="M10.9 -320.95 Q-8.05 -292.5 -38.6 -269.7 M-4.55 -334.1 Q-31.8 -297.1 -72.05 -264.25 M-20.15 -347.35 Q-52.25 -304.7 -91.3 -273.75 M-35.5 -360.4 Q-59.25 -327.1 -91.55 -302.4 M-65.8 -386.15 Q-77.8 -366.0 -92.0 -359.05 M-50.55 -373.2 Q-67.95 -345.4 -91.75 -330.6 M-80.25 -398.45 Q-84.1 -386.75 -92.2 -386.05" fill="none" stroke="#000000" stroke-linecap="round" stroke-linejoin="round" stroke-width="3.0"/>
    </g>
  </defs>
</svg>
