<?xml version="1.0" encoding="UTF-8" standalone="no"?>
<svg xmlns:xlink="http://www.w3.org/1999/xlink" height="434.9px" width="399.95px" xmlns="http://www.w3.org/2000/svg">
  <g transform="matrix(1, 0, 0, 1, 210.75, 443.1)">
    <use height="62.95" transform="matrix(1.0, 0.0, 0.0, 1.0, -87.75, -342.55)" width="167.9" xlink:href="#shape0"/>
  </g>
  <defs>
    <g id="shape0" transform="matrix(1, 0, 0, 1, 87.75, 342.55)">
      <path d="M36.15 -322.05 Q64.65 -340.9 60.35 -311.75 70.35 -311.15 73.85 -308.45 77.35 -305.75 77.65 -302.65 77.95 -299.6 74.45 -296.65 70.95 -293.8 63.8 -290.8 -26.1 -299.55 -65.3 -282.1 -81.55 -282.05 -84.7 -289.15 -87.9 -296.3 -73.25 -301.15 -79.2 -315.15 -73.5 -319.0 -67.85 -322.85 -55.0 -318.25 -53.0 -333.4 -43.3 -335.4 -33.6 -337.4 -25.05 -324.7 -9.2 -354.8 6.9 -325.8 17.1 -339.55 26.5 -338.0 35.85 -336.45 36.15 -322.05 M-65.3 -282.1 Q-76.05 -319.1 0.15 -320.1 70.25 -319.2 63.8 -290.8 70.25 -319.2 0.15 -320.1 -76.05 -319.1 -65.3 -282.1" fill="#ffeeee" fill-rule="evenodd" stroke="none"/>
      <path d="M36.15 -322.05 Q64.65 -340.9 60.35 -311.75 70.35 -311.15 73.85 -308.45 77.35 -305.75 77.65 -302.65 77.95 -299.6 74.45 -296.65 70.95 -293.8 63.8 -290.8 -26.1 -299.55 -65.3 -282.1 -81.55 -282.05 -84.7 -289.15 -87.9 -296.3 -73.25 -301.15 -79.2 -315.15 -73.5 -319.0 -67.85 -322.85 -55.0 -318.25 -53.0 -333.4 -43.3 -335.4 -33.6 -337.4 -25.05 -324.7 -9.2 -354.8 6.9 -325.8 17.1 -339.55 26.5 -338.0 35.85 -336.45 36.15 -322.05 M63.8 -290.8 Q70.25 -319.2 0.15 -320.1 -76.05 -319.1 -65.3 -282.1" fill="none" stroke="#000000" stroke-linecap="round" stroke-linejoin="round" stroke-width="5.0"/>
    </g>
  </defs>
</svg>
