<?xml version="1.0" encoding="UTF-8" standalone="no"?>
<svg xmlns:xlink="http://www.w3.org/1999/xlink" height="434.9px" width="399.95px" xmlns="http://www.w3.org/2000/svg">
  <g transform="matrix(1, 0, 0, 1, 210.75, 443.1)">
    <use height="100.25" transform="matrix(1.0, 0.0, 0.0, 1.0, -126.75, -354.25)" width="237.7" xlink:href="#shape0"/>
  </g>
  <defs>
    <g id="shape0" transform="matrix(1, 0, 0, 1, 126.75, 354.25)">
      <path d="M-81.05 -280.0 L-96.55 -256.75 Q-95.1 -266.5 -111.6 -271.75 -106.0 -279.75 -115.0 -281.95 L-124.0 -283.0 Q-106.8 -297.65 -82.4 -300.7 L-81.85 -302.15 Q-75.6 -318.95 -95.0 -337.0 -76.9 -341.25 -13.0 -323.25 -13.0 -326.05 -11.0 -326.75 L-6.25 -328.0 Q-3.45 -328.55 -1.8 -327.6 -0.15 -326.7 0.3 -324.95 L0.3 -325.0 Q46.8 -350.9 67.5 -351.5 56.45 -333.85 62.8 -321.6 65.05 -317.25 66.05 -313.2 86.35 -318.5 108.2 -313.2 L95.6 -303.5 Q102.85 -298.75 98.3 -295.6 93.75 -292.5 93.65 -291.75 92.8 -286.1 94.6 -280.05 87.7 -284.05 65.65 -299.55 18.45 -316.0 -0.75 -317.55 -1.25 -318.75 -2.35 -318.15 -3.5 -317.6 -6.75 -317.5 -10.0 -317.35 -11.05 -318.0 -56.95 -310.25 -81.05 -280.0 -87.8 -285.15 -82.4 -300.7 -87.8 -285.15 -81.05 -280.0 M-13.0 -323.25 Q-13.0 -320.45 -11.05 -318.0 -13.0 -320.45 -13.0 -323.25 M66.05 -313.2 Q67.9 -305.9 65.65 -299.55 67.9 -305.9 66.05 -313.2 M-0.75 -317.55 Q-0.05 -320.5 0.2 -323.25 L0.3 -324.9 0.3 -324.95 0.3 -324.9 0.2 -323.25 Q-0.05 -320.5 -0.75 -317.55" fill="#fbeaef" fill-rule="evenodd" stroke="none"/>
      <path d="M-81.05 -280.0 L-96.55 -256.75 Q-95.1 -266.5 -111.6 -271.75 -106.0 -279.75 -115.0 -281.95 L-124.0 -283.0 Q-106.8 -297.65 -82.4 -300.7 L-81.85 -302.15 Q-75.6 -318.95 -95.0 -337.0 -76.9 -341.25 -13.0 -323.25 -13.0 -326.05 -11.0 -326.75 L-6.25 -328.0 Q-3.45 -328.55 -1.8 -327.6 -0.15 -326.7 0.3 -324.95 L0.3 -325.0 Q46.8 -350.9 67.5 -351.5 56.45 -333.85 62.8 -321.6 65.05 -317.25 66.05 -313.2 86.35 -318.5 108.2 -313.2 L95.6 -303.5 Q102.85 -298.75 98.3 -295.6 93.75 -292.5 93.65 -291.75 92.8 -286.1 94.6 -280.05 87.7 -284.05 65.65 -299.55 67.9 -305.9 66.05 -313.2 M-0.75 -317.55 Q-1.25 -318.75 -2.35 -318.15 -3.5 -317.6 -6.75 -317.5 -10.0 -317.35 -11.05 -318.0 -13.0 -320.45 -13.0 -323.25 M-81.05 -280.0 Q-87.8 -285.15 -82.4 -300.7 M0.3 -324.95 L0.3 -324.9 0.2 -323.25 Q-0.05 -320.5 -0.75 -317.55" fill="none" stroke="#000000" stroke-linecap="round" stroke-linejoin="round" stroke-width="5.5"/>
      <path d="M65.65 -299.55 Q18.45 -316.0 -0.75 -317.55 M-11.05 -318.0 Q-56.95 -310.25 -81.05 -280.0" fill="none" stroke="#000000" stroke-linecap="round" stroke-linejoin="round" stroke-width="5.5"/>
    </g>
  </defs>
</svg>
