<?xml version="1.0" encoding="UTF-8" standalone="no"?>
<svg xmlns:xlink="http://www.w3.org/1999/xlink" height="434.9px" width="399.95px" xmlns="http://www.w3.org/2000/svg">
  <g transform="matrix(1, 0, 0, 1, 210.75, 443.1)">
    <use height="145.8" transform="matrix(1.0, 0.0, 0.0, 1.0, -105.35, -390.8)" width="189.3" xlink:href="#shape0"/>
  </g>
  <defs>
    <g id="shape0" transform="matrix(1, 0, 0, 1, 105.35, 390.8)">
      <path d="M83.8 -299.0 L83.95 -287.15 Q83.95 -272.0 83.5 -264.05 L79.9 -262.55 Q78.3 -263.1 77.85 -263.45 L70.1 -264.45 Q40.0 -267.0 -33.5 -259.7 -51.8 -257.9 -54.45 -255.95 L-55.05 -254.85 Q-55.2 -254.45 -57.05 -254.45 L-57.8 -254.45 Q-59.0 -252.9 -61.9 -250.0 -66.95 -245.0 -68.9 -245.0 L-69.5 -245.1 -71.15 -245.0 Q-79.3 -245.0 -91.3 -259.7 -95.2 -264.5 -98.8 -270.0 L-100.4 -272.55 -100.95 -272.75 Q-101.65 -273.3 -101.75 -274.95 L-101.75 -275.3 -101.75 -275.85 Q-104.25 -276.45 -105.05 -278.15 -105.35 -278.8 -105.35 -281.75 -105.35 -282.95 -104.05 -285.8 -102.35 -289.6 -99.55 -292.7 -94.6 -298.2 -87.65 -300.0 L-87.65 -300.05 Q-87.65 -301.3 -63.95 -325.6 -40.45 -349.7 -39.95 -349.7 -38.55 -349.7 -36.95 -351.2 L-30.85 -351.55 -23.0 -352.1 Q-14.15 -352.1 1.65 -348.7 17.0 -345.4 32.45 -340.25 48.85 -334.85 58.7 -329.5 68.4 -324.3 69.65 -320.25 77.3 -320.0 80.8 -315.75 81.95 -314.3 82.55 -312.6 L82.9 -311.0 82.8 -308.65 83.95 -307.4 83.2 -304.5 83.1 -304.4 83.8 -299.0 M13.45 -312.05 Q10.7 -312.05 4.45 -315.25 -1.75 -318.5 -3.2 -318.5 -8.0 -318.5 -11.15 -314.05 L-13.4 -311.05 16.45 -312.05 29.95 -311.6 Q28.75 -312.25 28.15 -313.3 L27.25 -315.05 Q26.55 -315.8 25.15 -315.8 23.6 -315.8 19.3 -313.9 15.05 -312.05 13.45 -312.05 M19.2 -320.6 Q23.75 -322.7 25.15 -322.7 28.6 -322.7 31.1 -320.0 33.6 -317.3 34.0 -317.3 36.25 -317.3 37.15 -317.95 L38.45 -319.4 Q40.35 -321.5 48.1 -321.5 53.55 -321.5 57.4 -319.4 L61.0 -317.3 Q61.9 -317.3 63.15 -317.85 43.5 -329.7 25.75 -336.8 14.6 -341.25 1.35 -343.55 L-34.9 -349.85 Q-37.1 -344.1 -50.75 -329.95 -65.05 -315.15 -72.05 -308.4 L-63.2 -309.05 Q-62.65 -312.9 -60.5 -316.45 -57.5 -321.5 -53.0 -321.5 -50.5 -321.5 -45.8 -317.95 -41.15 -314.45 -39.65 -314.45 -38.6 -314.45 -35.3 -317.35 -32.05 -320.3 -28.85 -320.3 -22.55 -320.3 -21.65 -318.65 L-20.85 -317.5 Q-20.1 -317.0 -17.9 -317.0 -16.55 -317.0 -15.05 -318.25 L-12.25 -320.95 Q-8.15 -324.95 -3.05 -324.95 4.15 -324.95 12.7 -318.5 14.65 -318.5 19.2 -320.6 M36.95 -311.4 L58.0 -310.7 Q56.8 -311.35 55.35 -312.35 51.45 -315.05 48.55 -315.05 42.9 -315.05 39.8 -312.95 38.35 -311.95 36.95 -311.4 M68.65 -313.85 Q66.75 -313.85 64.7 -311.75 64.0 -311.0 63.3 -310.5 L76.3 -310.0 Q74.9 -313.85 68.65 -313.85 M15.4 -305.6 Q-37.35 -305.6 -38.9 -305.2 L-39.55 -304.65 -39.65 -303.7 Q-40.35 -302.15 -47.15 -300.35 -53.1 -298.8 -60.4 -295.7 L-63.85 -294.25 Q-62.25 -290.05 -60.4 -281.0 L-56.8 -261.5 Q-54.45 -262.7 -50.6 -263.75 -33.2 -268.55 8.2 -268.55 66.75 -267.55 76.9 -266.95 76.8 -274.0 75.25 -290.35 75.0 -299.1 77.15 -304.25 49.0 -305.6 15.4 -305.6 M-77.15 -300.8 L-77.8 -302.95 -80.05 -300.9 -77.15 -300.8 M-66.4 -300.7 L-65.2 -301.2 -66.3 -301.25 -71.15 -302.0 Q-71.15 -300.65 -69.8 -298.85 L-66.4 -300.7 M-56.85 -312.6 L-57.45 -306.95 Q-57.75 -304.9 -58.7 -303.6 L-51.2 -305.65 -41.2 -307.75 Q-43.35 -308.55 -45.95 -311.35 -49.6 -315.35 -53.3 -315.35 -56.15 -315.35 -56.85 -312.6 M-35.9 -308.6 L-19.8 -310.55 Q-22.3 -311.65 -25.85 -314.15 -31.15 -314.15 -33.95 -310.75 L-35.9 -308.6 M-94.5 -274.35 L-71.0 -251.15 Q-66.55 -255.95 -62.5 -258.05 -64.95 -262.95 -67.1 -274.45 -68.65 -282.9 -69.6 -291.5 -72.8 -288.25 -81.25 -282.6 -88.85 -277.55 -94.5 -274.35 M-98.3 -282.35 Q-96.35 -281.75 -95.4 -280.4 -88.9 -285.2 -75.8 -294.3 L-90.95 -293.75 Q-91.4 -287.85 -91.7 -287.05 -93.1 -283.1 -98.3 -282.35" fill="#000000" fill-rule="evenodd" stroke="none"/>
      <path d="M13.45 -312.05 Q15.05 -312.05 19.3 -313.9 23.6 -315.8 25.15 -315.8 26.55 -315.8 27.25 -315.05 L28.15 -313.3 Q28.75 -312.25 29.95 -311.6 L16.45 -312.05 -13.4 -311.05 -11.15 -314.05 Q-8.0 -318.5 -3.2 -318.5 -1.75 -318.5 4.45 -315.25 10.7 -312.05 13.45 -312.05 M68.65 -313.85 Q74.9 -313.85 76.3 -310.0 L63.3 -310.5 Q64.0 -311.0 64.7 -311.75 66.75 -313.85 68.65 -313.85 M36.95 -311.4 Q38.35 -311.95 39.8 -312.95 42.9 -315.05 48.55 -315.05 51.45 -315.05 55.35 -312.35 56.8 -311.35 58.0 -310.7 L36.95 -311.4 M-66.4 -300.7 L-69.8 -298.85 Q-71.15 -300.65 -71.15 -302.0 L-66.3 -301.25 -66.4 -300.7 M-35.9 -308.6 L-33.95 -310.75 Q-31.15 -314.15 -25.85 -314.15 -22.3 -311.65 -19.8 -310.55 L-35.9 -308.6 M-56.85 -312.6 Q-56.15 -315.35 -53.3 -315.35 -49.6 -315.35 -45.95 -311.35 -43.35 -308.55 -41.2 -307.75 L-51.2 -305.65 -58.7 -303.6 Q-57.75 -304.9 -57.45 -306.95 L-56.85 -312.6 M-98.3 -282.35 Q-93.1 -283.1 -91.7 -287.05 -91.4 -287.85 -90.95 -293.75 L-75.8 -294.3 Q-88.9 -285.2 -95.4 -280.4 -96.35 -281.75 -98.3 -282.35" fill="#ffffff" fill-rule="evenodd" stroke="none"/>
      <path d="M19.2 -320.6 Q14.65 -318.5 12.7 -318.5 4.15 -324.95 -3.05 -324.95 -8.15 -324.95 -12.25 -320.95 L-15.05 -318.25 Q-16.55 -317.0 -17.9 -317.0 -20.1 -317.0 -20.85 -317.5 L-21.65 -318.65 Q-22.55 -320.3 -28.85 -320.3 -32.05 -320.3 -35.3 -317.35 -38.6 -314.45 -39.65 -314.45 -41.15 -314.45 -45.8 -317.95 -50.5 -321.5 -53.0 -321.5 -57.5 -321.5 -60.5 -316.45 -62.65 -312.9 -63.2 -309.05 L-72.05 -308.4 Q-65.05 -315.15 -50.75 -329.95 -37.1 -344.1 -34.9 -349.85 L1.35 -343.55 Q14.6 -341.25 25.75 -336.8 43.5 -329.7 63.15 -317.85 61.9 -317.3 61.0 -317.3 L57.4 -319.4 Q53.55 -321.5 48.1 -321.5 40.35 -321.5 38.45 -319.4 L37.15 -317.95 Q36.25 -317.3 34.0 -317.3 33.6 -317.3 31.1 -320.0 28.6 -322.7 25.15 -322.7 23.75 -322.7 19.2 -320.6 M-77.15 -300.8 L-80.05 -300.9 -77.8 -302.95 -77.15 -300.8 M15.4 -305.6 Q49.0 -305.6 77.15 -304.25 75.0 -299.1 75.25 -290.35 76.8 -274.0 76.9 -266.95 66.75 -267.55 8.2 -268.55 -33.2 -268.55 -50.6 -263.75 -54.45 -262.7 -56.8 -261.5 L-60.4 -281.0 Q-62.25 -290.05 -63.85 -294.25 L-60.4 -295.7 Q-53.1 -298.8 -47.15 -300.35 -40.35 -302.15 -39.65 -303.7 L-39.55 -304.65 -38.9 -305.2 Q-37.35 -305.6 15.4 -305.6 M-94.5 -274.35 Q-88.85 -277.55 -81.25 -282.6 -72.8 -288.25 -69.6 -291.5 -68.65 -282.9 -67.1 -274.45 -64.95 -262.95 -62.5 -258.05 -66.55 -255.95 -71.0 -251.15 L-94.5 -274.35" fill="#2f2f2f" fill-rule="evenodd" stroke="none"/>
      <path d="M-34.65 -360.35 Q-37.0 -364.8 -36.75 -369.75 L-36.7 -370.7 Q-36.7 -374.0 -36.15 -377.8 L-38.5 -374.65 Q-46.15 -364.05 -46.15 -358.85 -46.15 -353.9 -44.95 -351.65 L-44.2 -350.45 -43.65 -349.85 Q-41.75 -347.85 -38.4 -347.1 L-34.0 -346.7 Q-24.75 -346.7 -17.45 -349.9 L-17.25 -349.95 -17.45 -350.0 Q-29.55 -351.7 -34.25 -359.6 L-34.65 -360.35 M-27.6 -390.35 Q-27.25 -389.95 -27.25 -387.65 -30.85 -372.5 -30.85 -370.85 -30.85 -358.85 -16.75 -356.45 L-7.05 -355.25 Q-3.55 -354.75 -2.8 -353.4 -11.7 -346.3 -16.7 -344.25 -26.65 -340.25 -34.45 -340.25 -47.1 -340.25 -50.8 -349.15 -52.65 -353.6 -52.0 -358.25 -52.0 -368.1 -48.3 -373.4 -46.9 -375.45 -33.6 -387.85 L-30.45 -390.8 -30.25 -390.8 -30.1 -390.8 -27.6 -390.35" fill="#000000" fill-rule="evenodd" stroke="none"/>
      <path d="M-44.95 -351.65 L-43.95 -351.75 -43.65 -349.85 -44.2 -350.45 -44.95 -351.65 M-34.25 -359.6 L-34.9 -359.9 -34.65 -360.35 -34.25 -359.6" fill="#fb6a6a" fill-rule="evenodd" stroke="none"/>
      <path d="M-44.95 -351.65 Q-46.15 -353.9 -46.15 -358.85 -46.15 -364.05 -38.5 -374.65 L-36.15 -377.8 Q-36.7 -374.0 -36.7 -370.7 L-36.75 -369.75 Q-37.0 -364.8 -34.65 -360.35 L-34.9 -359.9 -34.25 -359.6 Q-29.55 -351.7 -17.45 -350.0 L-17.45 -349.9 Q-24.75 -346.7 -34.0 -346.7 L-38.4 -347.1 Q-41.75 -347.85 -43.65 -349.85 L-43.95 -351.75 -44.95 -351.65" fill="#d20202" fill-rule="evenodd" stroke="none"/>
    </g>
  </defs>
</svg>
