<?xml version="1.0" encoding="UTF-8" standalone="no"?>
<svg xmlns:xlink="http://www.w3.org/1999/xlink" height="434.9px" width="399.95px" xmlns="http://www.w3.org/2000/svg">
  <g transform="matrix(1, 0, 0, 1, 210.75, 443.1)">
    <use height="70.25" transform="matrix(1.0, 0.0, 0.0, 1.0, -97.6, -284.5)" width="46.1" xlink:href="#shape0"/>
  </g>
  <defs>
    <g id="shape0" transform="matrix(1, 0, 0, 1, 97.6, 284.5)">
      <path d="M-90.3 -225.85 Q-91.45 -231.4 -86.85 -242.85 L-82.85 -252.1 -78.4 -261.5 -82.85 -252.1 -86.85 -242.85 Q-91.45 -231.4 -90.3 -225.85 -92.95 -228.55 -96.35 -231.1 -90.35 -246.95 -80.8 -258.65 L-78.4 -261.5 -76.6 -261.5 -76.35 -262.35 Q-76.65 -260.5 -76.1 -258.65 L-76.05 -258.4 -75.7 -257.6 -77.55 -252.1 -79.95 -244.75 Q-81.3 -239.4 -81.3 -230.6 -81.3 -226.0 -79.85 -220.5 -81.3 -226.0 -81.3 -230.6 -81.3 -239.4 -79.95 -244.75 L-77.55 -252.1 -75.7 -257.6 Q-74.3 -256.1 -72.45 -255.95 L-71.6 -256.0 -70.05 -256.4 Q-69.55 -257.45 -69.2 -258.55 L-69.15 -258.65 -68.95 -259.8 -67.8 -259.4 -67.9 -258.65 Q-70.05 -243.75 -64.3 -231.5 L-74.45 -229.45 Q-74.0 -226.6 -72.55 -224.45 -74.15 -223.85 -79.85 -220.5 L-78.4 -215.7 -82.8 -216.0 -89.4 -218.1 -90.3 -225.85 M-74.45 -229.45 L-74.6 -230.4 Q-76.05 -243.9 -72.45 -255.95 -76.05 -243.9 -74.6 -230.4 L-74.45 -229.45" fill="#007224" fill-rule="evenodd" stroke="none"/>
      <path d="M-75.7 -257.6 L-76.05 -258.4 -76.1 -258.65 Q-76.65 -260.5 -76.35 -262.35 L-76.6 -261.5 -78.4 -261.5 -79.15 -261.8 Q-85.1 -265.25 -78.75 -271.3 L-79.55 -272.0 -80.0 -272.6 Q-80.7 -273.4 -80.7 -276.45 L-73.7 -276.05 Q-74.45 -277.9 -73.85 -280.85 L-73.85 -280.9 -73.35 -282.45 Q-70.4 -282.3 -68.65 -280.9 -67.05 -279.6 -66.5 -277.25 -66.3 -279.65 -65.35 -280.9 L-64.85 -281.4 -62.8 -283.25 Q-60.9 -282.2 -60.1 -280.9 -59.2 -279.25 -60.05 -277.2 L-58.0 -278.25 Q-55.5 -279.15 -53.65 -278.0 -51.6 -274.25 -54.2 -271.2 -55.6 -269.55 -57.55 -269.65 -56.85 -267.2 -56.55 -264.2 -56.25 -261.25 -58.0 -258.7 -62.3 -258.3 -63.85 -261.0 L-64.25 -260.55 Q-65.85 -259.05 -67.8 -259.4 L-68.95 -259.8 -69.4 -260.45 Q-70.35 -262.0 -70.15 -263.85 -70.35 -262.0 -69.4 -260.45 L-68.95 -259.8 -69.15 -258.65 -69.2 -258.55 Q-69.55 -257.45 -70.05 -256.4 L-71.6 -256.0 -72.45 -255.95 Q-74.3 -256.1 -75.7 -257.6 M-70.55 -273.3 Q-72.9 -274.05 -73.7 -276.05 -72.9 -274.05 -70.55 -273.3 L-66.8 -272.9 -66.15 -274.05 -66.25 -275.75 -66.5 -277.25 -66.25 -275.75 -66.15 -274.05 -62.55 -274.25 Q-61.2 -275.1 -60.5 -276.35 L-60.05 -277.2 -60.5 -276.35 Q-61.2 -275.1 -62.55 -274.25 L-66.15 -274.05 -66.8 -272.9 Q-66.5 -268.85 -67.5 -267.65 -65.6 -265.1 -63.4 -265.1 L-62.4 -265.15 -61.35 -266.15 Q-57.7 -270.55 -62.55 -274.25 -57.7 -270.55 -61.35 -266.15 L-62.4 -265.15 -63.4 -265.1 Q-65.6 -265.1 -67.5 -267.65 -66.5 -268.85 -66.8 -272.9 L-70.55 -273.3 -76.0 -272.1 Q-77.65 -269.35 -76.3 -266.55 -75.75 -265.4 -74.6 -264.45 -70.05 -263.25 -67.65 -267.2 L-67.5 -267.65 -67.65 -267.2 Q-70.05 -263.25 -74.6 -264.45 -75.75 -265.4 -76.3 -266.55 -77.65 -269.35 -76.0 -272.1 L-70.55 -273.3 M-76.35 -262.35 L-74.6 -264.45 -76.35 -262.35 M-77.8 -270.9 L-78.75 -271.3 -77.8 -270.9 M-62.4 -265.15 L-63.85 -261.0 -62.4 -265.15" fill="#fffff7" fill-rule="evenodd" stroke="none"/>
      <path d="M-78.4 -261.5 L-82.85 -252.1 -86.85 -242.85 Q-91.45 -231.4 -90.3 -225.85 L-89.4 -218.1 -82.8 -216.0 -78.4 -215.7 -79.85 -220.5 Q-81.3 -226.0 -81.3 -230.6 -81.3 -239.4 -79.95 -244.75 L-77.55 -252.1 -75.7 -257.6 -76.05 -258.4 -76.1 -258.65 Q-76.65 -260.5 -76.35 -262.35 L-76.6 -261.5 -78.4 -261.5 -79.15 -261.8 Q-85.1 -265.25 -78.75 -271.3 L-79.55 -272.0 -80.0 -272.6 Q-80.7 -273.4 -80.7 -276.45 L-73.7 -276.05 Q-74.45 -277.9 -73.85 -280.85 L-73.85 -280.9 -73.35 -282.45 Q-70.4 -282.3 -68.65 -280.9 -67.05 -279.6 -66.5 -277.25 -66.3 -279.65 -65.35 -280.9 L-64.85 -281.4 -62.8 -283.25 Q-60.9 -282.2 -60.1 -280.9 -59.2 -279.25 -60.05 -277.2 L-58.0 -278.25 Q-55.5 -279.15 -53.65 -278.0 -51.6 -274.25 -54.2 -271.2 -55.6 -269.55 -57.55 -269.65 -56.85 -267.2 -56.55 -264.2 -56.25 -261.25 -58.0 -258.7 -62.3 -258.3 -63.85 -261.0 L-64.25 -260.55 Q-65.85 -259.05 -67.8 -259.4 L-67.9 -258.65 Q-70.05 -243.75 -64.3 -231.5 L-74.45 -229.45 Q-74.0 -226.6 -72.55 -224.45 -74.15 -223.85 -79.85 -220.5 M-90.3 -225.85 Q-92.95 -228.55 -96.35 -231.1 -90.35 -246.95 -80.8 -258.65 L-78.4 -261.5 M-66.5 -277.25 L-66.25 -275.75 -66.15 -274.05 -62.55 -274.25 Q-61.2 -275.1 -60.5 -276.35 L-60.05 -277.2 M-66.15 -274.05 L-66.8 -272.9 Q-66.5 -268.85 -67.5 -267.65 -65.6 -265.1 -63.4 -265.1 L-62.4 -265.15 -61.35 -266.15 Q-57.7 -270.55 -62.55 -274.25 M-66.8 -272.9 L-70.55 -273.3 -76.0 -272.1 Q-77.65 -269.35 -76.3 -266.55 -75.75 -265.4 -74.6 -264.45 -70.05 -263.25 -67.65 -267.2 L-67.5 -267.65 M-73.7 -276.05 Q-72.9 -274.05 -70.55 -273.3 M-70.15 -263.85 Q-70.35 -262.0 -69.4 -260.45 L-68.95 -259.8 -67.8 -259.4 M-63.85 -261.0 L-62.4 -265.15 M-78.75 -271.3 L-77.8 -270.9 M-74.6 -264.45 L-76.35 -262.35 M-72.45 -255.95 Q-74.3 -256.1 -75.7 -257.6 M-68.95 -259.8 L-69.15 -258.65 -69.2 -258.55 Q-69.55 -257.45 -70.05 -256.4 L-71.6 -256.0 -72.45 -255.95 Q-76.05 -243.9 -74.6 -230.4 L-74.45 -229.45" fill="none" stroke="#000000" stroke-linecap="round" stroke-linejoin="round" stroke-width="2.5"/>
    </g>
  </defs>
</svg>
