<?xml version="1.0" encoding="UTF-8" standalone="no"?>
<svg xmlns:xlink="http://www.w3.org/1999/xlink" height="434.9px" width="399.95px" xmlns="http://www.w3.org/2000/svg">
  <g transform="matrix(1, 0, 0, 1, 210.75, 443.1)">
    <use height="52.15" transform="matrix(1.0, 0.0, 0.0, 1.0, 25.3, -334.2)" width="62.65" xlink:href="#shape0"/>
  </g>
  <defs>
    <g id="shape0" transform="matrix(1, 0, 0, 1, -25.3, 334.2)">
      <path d="M63.95 -312.45 L76.15 -309.4 84.5 -304.7 Q82.85 -300.25 81.85 -298.5 72.5 -285.65 67.85 -288.3 66.8 -288.9 63.6 -298.0 L60.85 -305.75 61.85 -307.55 63.8 -311.75 63.85 -311.95 63.85 -312.0 63.95 -312.45 M55.55 -310.3 L53.1 -311.7 Q53.25 -314.6 52.75 -315.35 53.75 -317.1 53.75 -316.7 L57.6 -315.2 Q59.65 -314.1 59.25 -311.6 58.9 -309.85 58.05 -308.9 L57.95 -308.95 58.0 -309.2 56.6 -310.2 55.55 -310.3 M33.55 -298.1 Q34.05 -299.05 38.05 -300.85 42.0 -302.7 42.9 -304.3 L43.15 -304.65 Q47.45 -305.9 50.0 -306.9 L46.1 -303.35 Q36.7 -294.4 34.15 -293.65 L33.7 -296.05 Q33.25 -297.6 33.55 -298.1 M32.15 -323.6 L34.5 -327.65 Q37.55 -331.3 41.15 -329.3 45.15 -327.05 49.05 -322.35 L51.45 -319.45 Q50.1 -318.65 49.3 -317.2 47.9 -315.75 47.9 -313.75 47.8 -312.25 48.7 -310.8 L42.8 -309.25 Q33.5 -306.65 32.95 -306.95 28.45 -309.5 29.65 -316.3 30.3 -320.35 32.15 -323.6 M51.05 -288.5 Q52.2 -290.8 53.85 -298.0 55.2 -303.75 55.15 -305.2 L55.4 -305.5 56.7 -304.95 56.55 -304.7 Q55.9 -303.5 55.85 -295.2 L55.9 -287.15 Q55.3 -286.05 55.0 -286.1 L54.8 -286.4 51.5 -287.7 Q50.5 -288.25 50.65 -288.4 L51.05 -288.5" fill="#ffff55" fill-rule="evenodd" stroke="none"/>
      <path d="M87.75 -301.35 Q87.35 -299.55 86.2 -297.75 L85.05 -296.2 Q72.2 -278.85 65.25 -282.75 63.65 -283.7 60.55 -290.55 60.5 -284.7 59.6 -283.1 59.45 -282.85 47.75 -282.85 46.2 -283.7 47.3 -290.05 L48.75 -298.45 Q36.1 -285.75 32.6 -287.75 30.7 -288.85 29.85 -294.35 29.1 -299.2 29.5 -299.85 30.25 -301.15 32.65 -302.55 L31.6 -302.75 Q24.05 -307.05 25.55 -316.5 26.3 -321.3 28.8 -325.5 31.35 -330.1 33.25 -331.75 37.95 -336.05 43.7 -332.75 52.35 -327.85 55.35 -323.15 L56.5 -320.35 Q58.25 -320.05 60.2 -318.95 62.1 -317.85 63.05 -316.4 L68.8 -315.9 Q75.8 -314.55 82.15 -310.95 88.95 -307.1 87.75 -301.35 M63.85 -312.0 L63.85 -311.95 63.8 -311.75 61.85 -307.55 60.85 -305.75 63.6 -298.0 Q66.8 -288.9 67.85 -288.3 72.5 -285.65 81.85 -298.5 82.85 -300.25 84.5 -304.7 L76.15 -309.4 63.95 -312.45 63.95 -312.5 63.85 -312.0 M32.15 -323.6 Q30.3 -320.35 29.65 -316.3 28.45 -309.5 32.95 -306.95 33.5 -306.65 42.8 -309.25 L48.7 -310.8 Q47.8 -312.25 47.9 -313.75 47.9 -315.75 49.3 -317.2 50.1 -318.65 51.45 -319.45 L49.05 -322.35 Q45.15 -327.05 41.15 -329.3 37.55 -331.3 34.5 -327.65 L32.15 -323.6 M33.55 -298.1 Q33.25 -297.6 33.7 -296.05 L34.15 -293.65 Q36.7 -294.4 46.1 -303.35 L50.0 -306.9 Q47.45 -305.9 43.15 -304.65 L42.9 -304.3 Q42.0 -302.7 38.05 -300.85 34.05 -299.05 33.55 -298.1 M55.55 -310.3 L56.6 -310.2 58.0 -309.2 57.95 -308.95 58.05 -308.9 Q58.9 -309.85 59.25 -311.6 59.65 -314.1 57.6 -315.2 L53.75 -316.7 Q53.75 -317.1 52.75 -315.35 53.25 -314.6 53.1 -311.7 L55.55 -310.3 M56.7 -304.95 L55.4 -305.5 55.15 -305.2 Q55.2 -303.75 53.85 -298.0 52.2 -290.8 51.05 -288.5 L50.7 -288.45 50.65 -288.4 Q50.5 -288.25 51.5 -287.7 L54.8 -286.4 55.0 -286.1 Q55.3 -286.05 55.9 -287.15 L55.85 -295.2 Q55.9 -303.5 56.55 -304.7 L56.75 -304.95 56.7 -304.95" fill="#000000" fill-rule="evenodd" stroke="none"/>
    </g>
  </defs>
</svg>
