<?xml version="1.0" encoding="UTF-8" standalone="no"?>
<svg xmlns:xlink="http://www.w3.org/1999/xlink" height="434.9px" width="399.95px" xmlns="http://www.w3.org/2000/svg">
  <g transform="matrix(1, 0, 0, 1, 210.75, 443.1)">
    <use height="78.4" transform="matrix(1.0, 0.0, 0.0, 1.0, 10.45, -351.1)" width="87.4" xlink:href="#shape0"/>
  </g>
  <defs>
    <g id="shape0" transform="matrix(1, 0, 0, 1, -10.45, 351.1)">
      <path d="M39.9 -345.55 L32.25 -335.9 Q32.15 -335.75 33.5 -331.25 L34.55 -327.05 34.75 -326.5 34.55 -326.4 34.45 -326.1 34.2 -325.75 33.75 -325.0 Q33.25 -324.75 32.0 -325.25 L31.6 -325.35 31.55 -325.45 30.8 -325.85 27.75 -327.7 27.65 -327.55 Q25.85 -324.0 21.45 -323.95 L18.8 -324.1 Q17.7 -322.2 17.7 -321.7 23.8 -316.85 22.65 -313.9 22.35 -313.0 21.1 -311.9 L19.5 -310.25 Q21.65 -310.6 24.05 -309.7 25.5 -308.05 25.3 -306.75 L24.95 -304.0 32.75 -305.8 Q39.15 -307.25 41.2 -305.85 42.2 -305.2 42.15 -304.7 L42.1 -303.85 42.1 -303.8 Q42.8 -302.35 42.35 -300.0 41.75 -296.75 43.0 -295.6 L43.2 -295.9 43.7 -299.8 Q43.95 -302.25 44.8 -303.6 L44.95 -303.8 Q44.55 -304.65 45.25 -305.65 L45.45 -305.85 Q46.4 -306.7 49.85 -305.4 55.3 -303.4 58.6 -303.25 56.65 -304.6 56.65 -305.9 56.55 -306.6 56.85 -307.65 L58.2 -307.6 60.9 -308.6 Q63.55 -309.4 68.1 -310.2 64.85 -314.85 62.05 -316.75 61.0 -316.1 59.95 -315.9 L58.9 -317.75 Q59.8 -319.65 62.3 -322.6 64.05 -325.2 63.3 -327.25 L58.05 -326.15 Q55.65 -325.65 54.95 -323.5 L53.45 -324.1 52.95 -323.9 Q52.5 -323.9 51.55 -324.3 50.45 -325.7 51.3 -330.3 52.05 -334.7 50.65 -335.65 L46.2 -338.3 Q44.9 -339.4 40.4 -345.95 L40.35 -345.95 39.9 -345.55 M28.55 -341.5 L30.05 -341.3 Q32.35 -341.25 34.7 -344.8 L37.05 -349.35 Q39.05 -352.2 41.8 -350.4 42.65 -349.85 45.5 -345.5 48.3 -341.15 49.2 -340.55 49.85 -340.1 51.6 -341.4 53.3 -342.75 54.7 -341.8 55.85 -341.05 55.45 -333.45 L55.25 -330.9 Q58.8 -334.4 60.45 -333.35 L64.8 -333.25 Q66.95 -334.6 68.5 -333.6 69.5 -332.95 67.6 -326.8 65.9 -321.25 64.9 -319.75 L63.85 -318.35 Q67.0 -316.8 72.6 -313.05 74.7 -311.65 75.0 -310.75 75.25 -310.05 74.4 -308.75 73.9 -308.0 67.55 -305.4 L64.5 -304.3 65.3 -303.45 Q65.75 -302.75 65.05 -301.7 63.15 -299.85 60.4 -298.85 54.85 -296.8 49.65 -300.25 L48.5 -301.0 48.3 -299.3 Q47.7 -295.4 46.45 -293.4 45.7 -292.35 44.7 -291.85 42.5 -290.9 39.6 -292.8 37.7 -294.1 37.55 -298.5 L37.65 -300.55 Q34.75 -299.4 30.45 -298.8 L21.65 -298.35 Q20.35 -299.2 20.55 -302.1 20.75 -305.0 19.85 -305.55 19.0 -306.15 17.35 -306.05 15.7 -305.95 14.85 -306.5 13.2 -307.6 13.55 -308.6 L18.2 -316.0 Q12.5 -319.0 11.1 -320.4 9.95 -321.6 10.85 -322.95 11.65 -324.2 14.45 -325.95 L15.4 -326.55 14.75 -327.55 Q13.2 -330.05 13.55 -331.25 L19.75 -331.1 23.95 -329.0 Q22.45 -331.2 23.9 -332.65 23.85 -335.05 29.6 -331.35 L28.9 -333.8 Q27.05 -340.3 27.3 -340.65 27.8 -341.45 28.55 -341.5" fill="#000000" fill-rule="evenodd" stroke="none"/>
      <path d="M52.1 -310.55 L51.65 -311.0 52.45 -311.25 52.1 -310.55 M40.4 -345.95 L39.9 -345.55 40.35 -345.95 40.4 -345.95 M53.7 -314.85 L53.8 -314.7 53.75 -314.7 53.7 -314.85" fill="#e88728" fill-rule="evenodd" stroke="none"/>
      <path d="M52.45 -311.25 Q53.1 -311.45 56.5 -315.5 57.15 -316.5 56.9 -317.4 56.0 -317.1 54.95 -316.0 L54.2 -316.7 Q54.7 -317.5 58.55 -320.75 59.4 -322.05 58.8 -322.45 57.7 -323.15 53.0 -317.55 L51.95 -315.85 Q51.75 -315.2 52.3 -313.2 L52.15 -313.05 Q51.75 -312.75 50.4 -312.4 L49.8 -312.25 48.45 -311.9 Q46.4 -311.45 45.6 -310.95 L43.5 -322.7 44.6 -323.5 45.5 -324.8 Q46.7 -326.65 46.55 -329.15 46.5 -330.0 47.15 -331.45 47.65 -332.75 47.35 -333.6 46.3 -333.4 45.8 -332.6 45.05 -331.55 44.8 -329.15 44.55 -326.85 43.1 -324.5 L39.95 -338.9 Q39.2 -339.1 38.95 -338.65 38.7 -338.3 39.85 -332.2 35.95 -334.75 35.45 -334.0 35.05 -333.4 36.05 -332.8 38.05 -331.8 39.65 -329.55 40.45 -328.6 40.65 -327.65 40.7 -327.25 40.9 -327.0 L41.15 -326.1 43.35 -314.2 43.15 -314.2 Q41.6 -315.25 34.4 -317.05 L34.45 -317.1 Q34.65 -317.45 30.3 -324.85 29.45 -324.95 29.1 -324.4 28.95 -324.2 32.65 -317.5 L26.1 -319.05 Q26.05 -319.3 25.65 -318.7 L25.35 -318.2 26.4 -317.2 Q27.25 -316.65 31.5 -315.5 L32.85 -315.15 31.45 -315.05 Q26.9 -315.1 25.4 -313.95 L24.15 -312.15 24.6 -311.45 26.9 -313.0 Q28.2 -313.9 30.6 -313.75 L36.85 -314.1 43.55 -312.7 44.05 -306.75 44.35 -306.4 45.05 -306.45 45.6 -307.05 Q45.9 -307.5 45.8 -309.35 L49.85 -310.35 51.1 -309.25 Q52.65 -308.25 56.95 -308.8 L60.7 -309.4 61.05 -309.65 Q61.4 -310.2 60.65 -310.65 L56.75 -310.35 52.1 -310.55 52.45 -311.25 M39.9 -345.55 L40.4 -345.95 Q44.9 -339.4 46.2 -338.3 L50.65 -335.65 Q52.05 -334.7 51.3 -330.3 50.45 -325.7 51.55 -324.3 52.5 -323.9 52.95 -323.9 L53.45 -324.1 54.95 -323.5 Q55.65 -325.65 58.05 -326.15 L63.3 -327.25 Q64.05 -325.2 62.3 -322.6 59.8 -319.65 58.9 -317.75 L59.95 -315.9 Q61.0 -316.1 62.05 -316.75 64.85 -314.85 68.1 -310.2 63.55 -309.4 60.9 -308.6 L58.2 -307.6 56.85 -307.65 Q56.55 -306.6 56.65 -305.9 56.65 -304.6 58.6 -303.25 55.3 -303.4 49.85 -305.4 46.4 -306.7 45.45 -305.85 L45.25 -305.65 Q44.55 -304.65 44.95 -303.8 L44.8 -303.6 Q43.95 -302.25 43.7 -299.8 L43.2 -295.9 43.0 -295.6 Q41.75 -296.75 42.35 -300.0 42.8 -302.35 42.1 -303.8 L42.1 -303.85 42.15 -304.7 Q42.2 -305.2 41.2 -305.85 39.15 -307.25 32.75 -305.8 L24.95 -304.0 25.3 -306.75 Q25.5 -308.05 24.05 -309.7 21.65 -310.6 19.5 -310.25 L21.1 -311.9 Q22.35 -313.0 22.65 -313.9 23.8 -316.85 17.7 -321.7 17.7 -322.2 18.8 -324.1 L21.45 -323.95 Q25.85 -324.0 27.65 -327.55 L27.75 -327.7 30.8 -325.85 31.55 -325.45 31.6 -325.35 32.0 -325.25 Q33.25 -324.75 33.75 -325.0 L34.2 -325.75 34.45 -326.1 34.55 -326.4 34.75 -326.5 34.55 -327.05 33.5 -331.25 Q32.15 -335.75 32.25 -335.9 L39.9 -345.55" fill="#ec5757" fill-rule="evenodd" stroke="none"/>
      <path d="M39.85 -332.2 Q38.7 -338.3 38.95 -338.65 39.2 -339.1 39.95 -338.9 L43.1 -324.5 Q44.55 -326.85 44.8 -329.15 45.05 -331.55 45.8 -332.6 46.3 -333.4 47.35 -333.6 47.65 -332.75 47.15 -331.45 46.5 -330.0 46.55 -329.15 46.7 -326.65 45.5 -324.8 L44.6 -323.5 43.5 -322.7 45.6 -310.95 Q46.4 -311.45 48.45 -311.9 L49.8 -312.25 50.4 -312.4 Q51.75 -312.75 52.15 -313.05 L52.3 -313.2 Q51.75 -315.2 51.95 -315.85 L53.0 -317.55 Q57.7 -323.15 58.8 -322.45 59.4 -322.05 58.55 -320.75 54.7 -317.5 54.2 -316.7 L54.95 -316.0 Q56.0 -317.1 56.9 -317.4 57.15 -316.5 56.5 -315.5 53.1 -311.45 52.45 -311.25 L51.65 -311.0 52.1 -310.55 56.75 -310.35 60.65 -310.65 Q61.4 -310.2 61.05 -309.65 L60.7 -309.4 56.95 -308.8 Q52.65 -308.25 51.1 -309.25 L49.85 -310.35 45.8 -309.35 Q45.9 -307.5 45.6 -307.05 L45.05 -306.45 44.35 -306.4 44.05 -306.75 43.55 -312.7 36.85 -314.1 30.6 -313.75 Q28.2 -313.9 26.9 -313.0 L24.6 -311.45 24.15 -312.15 25.4 -313.95 Q26.9 -315.1 31.45 -315.05 L32.85 -315.15 31.5 -315.5 Q27.25 -316.65 26.4 -317.2 L25.35 -318.2 25.65 -318.7 Q26.05 -319.3 26.1 -319.05 L32.65 -317.5 Q28.95 -324.2 29.1 -324.4 29.45 -324.95 30.3 -324.85 34.65 -317.45 34.45 -317.1 L34.4 -317.1 34.4 -317.05 Q41.6 -315.25 43.15 -314.2 L43.35 -314.05 43.35 -314.2 41.15 -326.1 40.9 -327.0 Q40.7 -327.25 40.65 -327.65 40.45 -328.6 39.65 -329.55 38.05 -331.8 36.05 -332.8 35.05 -333.4 35.45 -334.0 35.95 -334.75 39.85 -332.2 L39.9 -332.1 39.85 -332.2 M53.7 -314.85 L53.65 -314.55 53.75 -314.7 53.8 -314.7 53.7 -314.85" fill="#ec833e" fill-rule="evenodd" stroke="none"/>
      <path d="M83.5 -322.05 Q83.15 -319.9 83.85 -319.5 84.75 -319.0 89.95 -318.45 95.15 -317.9 96.05 -317.35 98.9 -315.8 97.25 -312.65 L94.3 -308.5 Q92.2 -304.8 93.3 -302.75 L94.15 -301.5 Q94.45 -300.8 94.0 -300.0 93.75 -299.65 87.1 -298.25 L84.6 -297.8 Q90.5 -294.35 88.4 -293.25 87.75 -291.35 85.1 -291.7 85.9 -291.0 88.9 -288.85 91.55 -286.45 91.9 -283.4 90.95 -282.55 88.0 -282.8 L86.8 -282.95 86.75 -281.75 Q86.35 -278.5 85.65 -277.15 84.85 -275.8 83.3 -276.25 81.4 -276.9 76.1 -280.6 L71.65 -273.0 Q70.85 -272.3 69.15 -273.25 68.25 -273.75 67.6 -275.3 66.9 -276.85 66.0 -277.3 65.1 -277.85 62.6 -276.3 60.1 -274.8 58.75 -275.55 57.7 -276.15 55.1 -283.65 53.65 -287.8 53.4 -290.85 L51.6 -289.85 Q47.6 -288.0 45.6 -289.1 42.55 -290.8 42.45 -293.25 42.35 -294.35 43.0 -295.5 44.15 -297.55 47.4 -299.85 L48.85 -300.8 47.65 -301.5 Q42.15 -304.55 41.45 -310.45 41.1 -313.4 41.9 -315.9 42.5 -317.0 43.35 -316.95 L44.45 -316.6 44.05 -319.8 Q43.45 -326.65 43.9 -327.5 44.65 -328.85 45.4 -328.95 46.35 -329.1 48.6 -327.85 L57.35 -322.4 58.1 -324.0 Q59.0 -325.6 63.15 -329.65 67.75 -334.15 68.85 -333.55 70.4 -332.7 70.2 -330.1 69.95 -327.55 72.3 -326.25 73.95 -325.3 72.45 -320.5 L74.65 -321.85 Q81.25 -325.7 82.5 -325.0 83.9 -324.2 83.5 -322.05 M92.6 -313.45 L92.75 -314.05 92.7 -314.1 Q84.8 -315.15 83.2 -315.8 L78.85 -318.55 Q77.3 -319.4 73.75 -316.7 70.0 -313.85 68.3 -314.15 67.45 -314.85 67.3 -315.25 L67.2 -315.8 66.0 -316.85 Q67.55 -318.45 66.95 -320.8 L65.55 -326.0 Q63.3 -325.75 61.85 -323.0 60.3 -319.45 59.05 -317.75 L56.9 -317.8 Q56.6 -318.9 56.75 -320.1 53.75 -321.75 48.1 -322.5 49.45 -318.1 50.0 -315.35 L50.3 -312.5 50.95 -311.3 49.5 -310.3 Q48.3 -309.75 46.25 -310.85 47.85 -308.0 52.15 -304.05 54.85 -301.55 54.6 -300.3 L54.5 -300.05 Q53.9 -298.95 52.95 -298.9 L52.85 -298.7 Q52.05 -297.3 49.95 -295.95 L46.75 -293.75 46.55 -293.4 Q48.1 -292.85 50.75 -294.85 52.6 -296.35 54.25 -296.35 L54.3 -296.4 55.05 -296.85 Q55.45 -297.1 56.5 -296.5 58.7 -295.3 60.3 -288.85 L62.3 -281.1 64.6 -282.7 Q65.65 -283.5 67.8 -282.95 69.7 -281.2 70.35 -279.1 L71.1 -281.25 Q71.5 -282.95 72.2 -283.65 74.3 -286.0 81.45 -282.75 L83.05 -284.85 81.7 -287.1 Q79.7 -291.1 82.1 -294.3 L82.2 -294.45 79.15 -296.35 78.45 -296.85 78.35 -296.85 78.05 -297.15 Q77.0 -298.05 77.05 -298.6 L77.5 -299.3 77.7 -299.75 77.95 -299.95 77.95 -300.15 78.5 -300.25 82.75 -301.25 87.45 -302.25 92.6 -313.45" fill="#000000" fill-rule="evenodd" stroke="none"/>
      <path d="M92.7 -314.1 L92.75 -314.05 92.6 -313.45 92.7 -314.1 M55.7 -308.4 L56.2 -309.0 56.3 -308.15 55.7 -308.4 M59.3 -313.45 L60.25 -313.05 58.85 -311.75 58.65 -311.8 59.05 -312.7 59.3 -313.45" fill="#e88728" fill-rule="evenodd" stroke="none"/>
      <path d="M92.7 -314.1 L92.6 -313.45 87.45 -302.25 82.75 -301.25 78.5 -300.25 77.95 -300.15 77.95 -299.95 77.7 -299.75 77.5 -299.3 77.05 -298.6 Q77.0 -298.05 78.05 -297.15 L78.35 -296.85 78.45 -296.85 79.15 -296.35 82.2 -294.45 82.1 -294.3 Q79.7 -291.1 81.7 -287.1 L83.05 -284.85 81.45 -282.75 Q74.3 -286.0 72.2 -283.65 71.5 -282.95 71.1 -281.25 L70.35 -279.1 Q69.7 -281.2 67.8 -282.95 65.65 -283.5 64.6 -282.7 L62.3 -281.1 60.3 -288.85 Q58.7 -295.3 56.5 -296.5 55.45 -297.1 55.05 -296.85 L54.3 -296.4 54.25 -296.35 Q52.6 -296.35 50.75 -294.85 48.1 -292.85 46.55 -293.4 L46.75 -293.75 49.95 -295.95 Q52.05 -297.3 52.85 -298.7 L52.95 -298.9 Q53.9 -298.95 54.5 -300.05 L54.6 -300.3 Q54.85 -301.55 52.15 -304.05 47.85 -308.0 46.25 -310.85 48.3 -309.75 49.5 -310.3 L50.95 -311.3 50.3 -312.5 50.0 -315.35 Q49.45 -318.1 48.1 -322.5 53.75 -321.75 56.75 -320.1 56.6 -318.9 56.9 -317.8 L59.05 -317.75 Q60.3 -319.45 61.85 -323.0 63.3 -325.75 65.55 -326.0 L66.95 -320.8 Q67.55 -318.45 66.0 -316.85 L67.2 -315.8 67.3 -315.25 Q67.45 -314.85 68.3 -314.15 70.0 -313.85 73.75 -316.7 77.3 -319.4 78.85 -318.55 L83.2 -315.8 Q84.8 -315.15 92.7 -314.1 M80.7 -307.35 Q86.65 -309.1 86.9 -309.45 87.1 -309.9 86.65 -310.45 L72.3 -306.75 Q73.7 -309.15 75.65 -310.4 77.7 -311.7 78.35 -312.8 78.8 -313.65 78.5 -314.65 77.55 -314.55 76.65 -313.5 L74.9 -311.95 Q72.55 -310.9 71.5 -309.0 L70.7 -307.6 Q70.35 -306.75 70.5 -306.25 62.8 -304.15 59.05 -302.75 59.1 -303.7 58.6 -305.75 L58.3 -307.1 58.15 -307.7 57.95 -309.55 58.0 -309.8 Q60.0 -310.2 60.55 -310.65 L61.6 -312.35 Q64.4 -319.15 63.3 -319.75 62.65 -320.15 61.9 -318.8 L60.25 -313.05 59.3 -313.45 Q59.8 -314.85 59.7 -315.8 58.7 -315.65 58.15 -314.6 56.05 -309.7 56.2 -309.0 L55.7 -308.4 Q54.4 -309.15 53.4 -312.45 52.4 -315.8 51.95 -316.05 L50.85 -315.95 Q50.75 -315.85 50.8 -315.55 50.9 -314.65 51.95 -311.9 53.35 -307.85 55.05 -306.9 55.95 -306.4 56.6 -306.3 57.15 -303.15 57.55 -302.15 55.8 -301.45 55.55 -301.0 L55.3 -300.2 Q55.3 -299.85 55.55 -299.55 L56.0 -299.45 61.55 -301.7 Q62.65 -300.15 65.9 -296.4 66.05 -294.5 68.4 -290.65 69.65 -288.6 69.45 -286.95 69.0 -285.25 69.1 -284.2 L69.95 -284.15 71.0 -286.05 Q71.3 -287.95 69.15 -292.0 L68.65 -293.25 69.55 -292.25 Q72.55 -289.0 73.45 -288.5 74.1 -288.15 74.8 -287.95 L75.1 -288.45 75.25 -289.0 70.85 -294.2 Q78.5 -293.95 78.65 -294.15 78.95 -294.75 78.5 -295.45 69.85 -295.95 69.7 -295.55 L69.65 -295.55 Q64.7 -301.15 63.05 -302.05 L63.0 -302.2 74.6 -305.7 75.55 -305.9 76.25 -305.95 Q77.15 -306.2 78.4 -305.95 81.1 -305.55 82.95 -304.2 83.9 -303.55 84.3 -304.2 84.75 -305.05 80.7 -307.3 L80.7 -307.35" fill="#f19941" fill-rule="evenodd" stroke="none"/>
      <path d="M60.25 -313.05 L61.9 -318.8 Q62.65 -320.15 63.3 -319.75 64.4 -319.15 61.6 -312.35 L60.55 -310.65 Q60.0 -310.2 58.0 -309.8 L57.95 -309.55 58.15 -307.7 58.3 -307.1 58.6 -305.75 Q59.1 -303.7 59.05 -302.75 62.8 -304.15 70.5 -306.25 70.35 -306.75 70.7 -307.6 L71.5 -309.0 Q72.55 -310.9 74.9 -311.95 L76.65 -313.5 Q77.55 -314.55 78.5 -314.65 78.8 -313.65 78.35 -312.8 77.7 -311.7 75.65 -310.4 73.7 -309.15 72.3 -306.75 L86.65 -310.45 Q87.1 -309.9 86.9 -309.45 86.65 -309.1 80.7 -307.35 L80.6 -307.3 80.7 -307.3 Q84.75 -305.05 84.3 -304.2 83.9 -303.55 82.95 -304.2 81.1 -305.55 78.4 -305.95 77.15 -306.2 76.25 -305.95 L75.55 -305.9 74.6 -305.7 63.0 -302.2 62.85 -302.15 63.05 -302.05 Q64.7 -301.15 69.65 -295.55 L69.7 -295.55 Q69.85 -295.95 78.5 -295.45 78.95 -294.75 78.65 -294.15 78.5 -293.95 70.85 -294.2 L75.25 -289.0 75.1 -288.45 74.8 -287.95 Q74.1 -288.15 73.45 -288.5 72.55 -289.0 69.55 -292.25 L68.65 -293.25 69.15 -292.0 Q71.3 -287.95 71.0 -286.05 L69.95 -284.15 69.1 -284.2 Q69.0 -285.25 69.45 -286.95 69.65 -288.6 68.4 -290.65 66.05 -294.5 65.9 -296.4 62.65 -300.15 61.55 -301.7 L56.0 -299.45 55.55 -299.55 Q55.3 -299.85 55.3 -300.2 L55.55 -301.0 Q55.8 -301.45 57.55 -302.15 57.15 -303.15 56.6 -306.3 55.95 -306.4 55.05 -306.9 53.35 -307.85 51.95 -311.9 50.9 -314.65 50.8 -315.55 50.75 -315.85 50.85 -315.95 L51.95 -316.05 Q52.4 -315.8 53.4 -312.45 54.4 -309.15 55.7 -308.4 L56.3 -308.15 56.2 -309.0 Q56.05 -309.7 58.15 -314.6 58.7 -315.65 59.7 -315.8 59.8 -314.85 59.3 -313.45 L59.05 -312.7 58.65 -311.8 58.6 -311.6 58.85 -311.75 60.25 -313.05" fill="#e87931" fill-rule="evenodd" stroke="none"/>
    </g>
  </defs>
</svg>
