<?xml version="1.0" encoding="UTF-8" standalone="no"?>
<svg xmlns:xlink="http://www.w3.org/1999/xlink" height="434.9px" width="399.95px" xmlns="http://www.w3.org/2000/svg">
  <g transform="matrix(1, 0, 0, 1, 210.75, 443.1)">
    <use height="87.7" transform="matrix(1.0, 0.0, 0.0, 1.0, -69.6, -331.65)" width="143.9" xlink:href="#shape0"/>
  </g>
  <defs>
    <g id="shape0" transform="matrix(1, 0, 0, 1, 69.6, 331.65)">
      <path d="M37.85 -322.2 Q38.65 -321.15 39.1 -321.0 39.25 -323.25 40.7 -325.35 42.65 -328.1 45.7 -328.1 48.4 -328.1 49.6 -326.9 L52.55 -329.6 Q55.25 -331.65 58.35 -331.65 62.7 -331.65 64.0 -328.55 L64.45 -325.6 Q66.5 -324.35 68.9 -321.0 73.9 -313.95 74.1 -308.6 L74.3 -294.15 Q74.3 -285.6 71.95 -276.8 68.0 -261.95 59.25 -261.95 58.4 -261.95 52.5 -267.1 L51.95 -264.9 46.15 -255.6 Q46.35 -255.15 44.85 -255.15 22.85 -282.05 14.85 -284.7 10.95 -283.6 4.3 -283.6 L2.0 -283.65 -4.1 -269.85 Q-10.6 -254.7 -10.85 -244.4 L-12.7 -243.95 Q-16.15 -243.95 -23.05 -247.05 -28.85 -249.7 -31.05 -252.8 -47.85 -256.3 -56.7 -267.15 -65.85 -278.35 -67.75 -284.8 -69.65 -291.3 -69.6 -298.7 -69.55 -304.75 -68.3 -307.6 -68.9 -308.95 -68.9 -311.0 -68.9 -314.35 -68.45 -315.45 -67.15 -318.65 -62.45 -318.65 -59.15 -318.65 -56.15 -316.05 L-55.8 -315.75 -54.95 -317.1 Q-52.45 -320.45 -47.45 -320.45 -42.35 -320.45 -41.05 -318.25 -40.7 -317.7 -40.7 -315.75 -33.15 -317.7 -29.5 -315.35 -27.95 -314.35 -27.35 -312.95 L-27.35 -312.9 -27.3 -313.0 Q-24.05 -315.75 -20.05 -315.75 L-19.25 -315.75 Q-15.85 -313.0 -15.35 -312.05 -11.0 -313.35 -9.8 -313.35 -6.45 -313.35 -5.7 -311.7 -5.35 -309.6 -4.75 -308.7 L-4.75 -304.0 Q-0.65 -305.3 6.65 -305.3 12.45 -305.3 15.75 -303.8 15.55 -305.4 15.8 -307.95 15.8 -311.45 16.25 -312.4 17.35 -314.55 21.6 -314.55 23.1 -314.55 26.95 -313.1 26.05 -322.8 34.2 -322.8 37.35 -322.8 37.85 -322.2 M19.45 -300.5 L19.55 -299.25 19.55 -297.1 19.6 -296.45 19.6 -296.35 19.75 -294.35 19.75 -294.25 19.8 -294.15 19.85 -293.7 20.15 -291.5 20.2 -291.15 20.2 -291.0 60.2 -269.2 Q65.3 -271.8 67.8 -281.0 69.55 -287.45 69.55 -294.15 69.55 -319.55 60.05 -319.55 59.7 -319.55 19.7 -300.55 L19.45 -300.55 19.45 -300.5 M18.95 -305.8 Q21.05 -307.55 25.5 -310.0 23.75 -310.35 22.05 -311.45 18.8 -311.45 18.75 -307.35 L18.95 -305.8 M29.8 -314.7 L29.85 -312.3 Q34.5 -314.7 40.85 -317.6 L39.85 -317.55 Q37.4 -317.55 36.6 -318.55 35.8 -319.55 33.9 -319.55 29.5 -319.55 29.8 -314.7 M47.35 -325.05 Q42.7 -325.05 42.25 -322.5 L42.75 -319.8 42.6 -318.4 49.9 -321.6 49.1 -322.75 47.35 -325.05 M52.85 -325.4 L53.0 -322.95 60.2 -326.0 60.65 -326.2 Q59.65 -328.5 59.1 -328.5 53.55 -328.5 52.85 -325.4 M49.85 -269.05 Q42.45 -274.2 35.35 -277.5 L27.15 -281.3 Q34.4 -274.55 44.25 -261.15 46.7 -262.0 48.25 -266.3 48.9 -268.05 49.85 -269.05 M15.65 -291.0 Q15.65 -293.6 15.8 -293.7 L15.9 -296.4 Q16.0 -297.5 14.35 -298.8 12.7 -300.1 -1.75 -300.1 -5.55 -300.1 -4.6 -294.25 L-4.85 -292.5 Q-4.95 -291.6 -4.7 -291.0 L-4.6 -291.05 Q-2.95 -289.9 -1.75 -289.5 L-1.75 -289.3 4.15 -288.8 Q11.75 -288.8 15.5 -291.0 L15.65 -291.0 M-66.65 -312.1 L-66.25 -309.95 Q-63.55 -311.55 -57.0 -311.8 L-57.85 -312.65 Q-60.55 -315.45 -62.45 -315.45 -66.5 -315.45 -66.65 -312.1 M-9.45 -297.15 L-9.65 -300.0 Q-38.1 -307.0 -42.25 -307.0 -53.05 -307.65 -62.9 -306.6 -64.05 -306.95 -64.5 -300.8 -64.95 -294.7 -64.75 -289.5 -64.6 -284.3 -56.1 -273.7 -47.6 -263.1 -31.45 -257.7 -27.9 -264.8 -16.45 -278.4 L-8.55 -287.45 -9.05 -288.45 -9.35 -289.75 Q-9.65 -291.45 -9.4 -293.15 L-9.3 -295.15 -9.35 -295.95 -9.4 -296.95 -9.45 -297.15 M-44.9 -317.4 Q-51.2 -317.4 -53.2 -314.65 L-53.85 -313.35 -53.6 -312.3 -53.6 -311.85 -43.1 -311.25 -43.4 -314.3 Q-43.45 -317.4 -44.9 -317.4 M-30.15 -310.95 Q-30.35 -313.25 -32.6 -313.25 -39.6 -313.25 -40.45 -311.85 L-40.65 -310.95 -29.95 -309.35 -29.85 -309.7 -30.15 -310.95 M-23.7 -308.15 L-16.35 -306.5 Q-17.6 -308.15 -19.1 -312.65 -23.2 -312.6 -25.75 -310.0 L-26.65 -308.75 -23.7 -308.15 M-14.9 -306.15 L-7.9 -304.05 Q-9.5 -306.5 -9.5 -310.35 -13.1 -310.05 -13.9 -308.95 -14.2 -308.55 -14.2 -306.45 L-14.9 -306.15 M-5.4 -283.25 L-13.5 -273.65 Q-24.6 -260.45 -26.2 -254.3 -20.15 -251.05 -13.75 -248.25 -12.3 -258.05 -8.1 -270.5 -4.7 -280.75 -1.85 -284.1 L-4.25 -284.7 -5.4 -283.25" fill="#000000" fill-rule="evenodd" stroke="none"/>
      <path d="M19.55 -297.1 L19.55 -299.25 19.45 -300.5 19.7 -300.55 Q59.7 -319.55 60.05 -319.55 69.55 -319.55 69.55 -294.15 69.55 -287.45 67.8 -281.0 65.3 -271.8 60.2 -269.2 L20.2 -291.0 20.2 -291.15 Q22.95 -289.7 30.85 -289.7 37.6 -289.7 37.6 -291.3 L37.45 -291.9 26.05 -294.9 Q28.05 -295.85 30.35 -298.2 32.65 -300.55 32.65 -301.8 32.65 -303.0 31.75 -303.0 L19.55 -297.1 M49.85 -269.05 Q48.9 -268.05 48.25 -266.3 46.7 -262.0 44.25 -261.15 34.4 -274.55 27.15 -281.3 L35.35 -277.5 Q42.45 -274.2 49.85 -269.05 M19.6 -296.45 L19.65 -296.4 19.6 -296.35 19.6 -296.45 M19.75 -294.35 L19.95 -294.4 19.75 -294.25 19.75 -294.35 M-9.05 -288.45 L-8.55 -287.45 -16.45 -278.4 Q-27.9 -264.8 -31.45 -257.7 -47.6 -263.1 -56.1 -273.7 -64.6 -284.3 -64.75 -289.5 -64.95 -294.7 -64.5 -300.8 -64.05 -306.95 -62.9 -306.6 -53.05 -307.65 -42.25 -307.0 -38.1 -307.0 -9.65 -300.0 L-9.45 -297.15 -17.75 -297.65 Q-19.3 -297.7 -19.85 -298.15 -20.4 -298.55 -21.55 -298.55 L-22.55 -298.4 -22.6 -297.65 Q-22.6 -296.65 -19.35 -294.8 -15.45 -292.55 -11.6 -293.15 -18.2 -288.15 -18.2 -283.1 L-17.45 -282.05 -17.0 -282.2 Q-16.3 -284.75 -11.65 -286.95 L-9.05 -288.45 M-15.25 -286.85 L-15.4 -286.8 -15.25 -286.95 -15.25 -286.85 M-5.4 -283.25 L-4.25 -284.7 -1.85 -284.1 Q-4.7 -280.75 -8.1 -270.5 -12.3 -258.05 -13.75 -248.25 -20.15 -251.05 -26.2 -254.3 -24.6 -260.45 -13.5 -273.65 L-5.4 -283.25" fill="#245e97" fill-rule="evenodd" stroke="none"/>
      <path d="M19.55 -297.1 L31.75 -303.0 Q32.65 -303.0 32.65 -301.8 32.65 -300.55 30.35 -298.2 28.05 -295.85 26.05 -294.9 L37.45 -291.9 37.6 -291.3 Q37.6 -289.7 30.85 -289.7 22.95 -289.7 20.2 -291.15 L20.15 -291.5 19.85 -293.7 19.8 -294.15 19.75 -294.25 19.95 -294.4 19.75 -294.35 19.6 -296.35 19.65 -296.4 19.6 -296.45 19.55 -297.1 M15.5 -291.0 Q11.75 -288.8 4.15 -288.8 L-1.75 -289.3 -1.75 -289.5 Q-2.95 -289.9 -4.6 -291.05 L-4.7 -291.0 Q-4.95 -291.6 -4.85 -292.5 L-4.6 -294.25 Q-5.55 -300.1 -1.75 -300.1 12.7 -300.1 14.35 -298.8 16.0 -297.5 15.9 -296.4 L15.8 -293.7 Q15.65 -293.6 15.65 -291.0 L15.5 -291.0 M-9.05 -288.45 L-11.65 -286.95 Q-16.3 -284.75 -17.0 -282.2 L-17.45 -282.05 -18.2 -283.1 Q-18.2 -288.15 -11.6 -293.15 -15.45 -292.55 -19.35 -294.8 -22.6 -296.65 -22.6 -297.65 L-22.55 -298.4 -21.55 -298.55 Q-20.4 -298.55 -19.85 -298.15 -19.3 -297.7 -17.75 -297.65 L-9.45 -297.15 -9.4 -296.95 -9.35 -295.95 -9.3 -295.15 -9.4 -293.15 Q-9.65 -291.45 -9.35 -289.75 L-9.05 -288.45 M-15.25 -286.85 L-15.25 -286.95 -15.4 -286.8 -15.25 -286.85" fill="#1f4e7a" fill-rule="evenodd" stroke="none"/>
      <path d="M52.85 -325.4 Q53.55 -328.5 59.1 -328.5 59.65 -328.5 60.65 -326.2 L60.2 -326.0 53.0 -322.95 52.85 -325.4 M47.35 -325.05 L49.1 -322.75 49.9 -321.6 42.6 -318.4 42.75 -319.8 42.25 -322.5 Q42.7 -325.05 47.35 -325.05 M29.8 -314.7 Q29.5 -319.55 33.9 -319.55 35.8 -319.55 36.6 -318.55 37.4 -317.55 39.85 -317.55 L40.85 -317.6 Q34.5 -314.7 29.85 -312.3 L29.8 -314.7 M18.95 -305.8 L18.75 -307.35 Q18.8 -311.45 22.05 -311.45 23.75 -310.35 25.5 -310.0 21.05 -307.55 18.95 -305.8 M-66.65 -312.1 Q-66.5 -315.45 -62.45 -315.45 -60.55 -315.45 -57.85 -312.65 L-57.0 -311.8 Q-63.55 -311.55 -66.25 -309.95 L-66.65 -312.1 M-14.9 -306.15 L-14.2 -306.45 Q-14.2 -308.55 -13.9 -308.95 -13.1 -310.05 -9.5 -310.35 -9.5 -306.5 -7.9 -304.05 L-14.9 -306.15 M-23.7 -308.15 L-26.65 -308.75 -25.75 -310.0 Q-23.2 -312.6 -19.1 -312.65 -17.6 -308.15 -16.35 -306.5 L-23.7 -308.15 M-30.15 -310.95 L-29.85 -309.7 -29.95 -309.35 -40.65 -310.95 -40.45 -311.85 Q-39.6 -313.25 -32.6 -313.25 -30.35 -313.25 -30.15 -310.95 M-44.9 -317.4 Q-43.45 -317.4 -43.4 -314.3 L-43.1 -311.25 -53.6 -311.85 -53.6 -312.3 -53.85 -313.35 -53.2 -314.65 Q-51.2 -317.4 -44.9 -317.4" fill="#ffffff" fill-rule="evenodd" stroke="none"/>
    </g>
  </defs>
</svg>
