<?xml version="1.0" encoding="UTF-8" standalone="no"?>
<svg xmlns:xlink="http://www.w3.org/1999/xlink" height="434.9px" width="399.95px" xmlns="http://www.w3.org/2000/svg">
  <g transform="matrix(1, 0, 0, 1, 210.75, 443.1)">
    <use height="107.25" transform="matrix(1.0, 0.0, 0.0, 1.0, -141.05, -343.9)" width="289.7" xlink:href="#shape0"/>
  </g>
  <defs>
    <g id="shape0" transform="matrix(1, 0, 0, 1, 141.05, 343.9)">
      <path d="M83.9 -304.0 L84.45 -303.25 84.65 -302.95 84.95 -302.55 87.0 -299.7 94.5 -287.45 94.7 -287.05 83.8 -287.9 Q77.5 -287.9 72.05 -285.05 70.65 -284.3 62.55 -278.75 56.3 -274.45 50.4 -272.45 42.0 -269.6 30.7 -269.6 20.35 -269.6 14.05 -271.0 12.35 -271.35 2.5 -275.35 -7.4 -279.4 -30.8 -280.5 -54.25 -281.6 -62.05 -278.4 -69.85 -275.25 -72.2 -274.0 -74.6 -272.75 -76.4 -271.35 -78.2 -270.0 -83.05 -269.4 L-93.95 -268.9 -102.65 -269.35 -102.55 -270.15 -99.65 -280.3 -99.55 -280.65 -99.0 -282.1 Q-95.8 -290.45 -75.4 -312.6 -55.05 -334.75 0.05 -337.0 55.15 -339.3 82.25 -306.05 L83.9 -304.0 M72.1 -261.55 Q65.8 -256.5 60.0 -253.8 54.2 -251.1 30.05 -250.7 5.9 -250.35 -4.8 -255.1 -15.6 -259.85 -29.8 -260.35 -37.3 -261.3 -53.55 -253.3 -69.85 -245.3 -78.05 -244.2 -86.25 -243.1 -103.95 -244.3 -121.65 -245.5 -128.05 -251.75 -131.5 -255.2 -133.65 -258.3 -117.4 -263.5 -110.95 -266.65 L-109.1 -267.6 -109.1 -267.55 Q-109.0 -266.6 -108.55 -265.6 L-108.3 -265.1 Q-101.85 -263.3 -94.05 -263.0 -82.1 -262.5 -76.7 -263.95 -71.3 -265.45 -65.75 -269.4 -60.2 -273.4 -35.95 -273.6 -11.7 -273.8 -0.75 -269.4 10.2 -265.05 12.6 -264.55 19.05 -263.15 30.85 -263.15 50.15 -263.15 63.5 -272.3 L72.8 -278.6 Q77.95 -281.45 83.8 -281.45 91.7 -281.45 98.15 -279.35 L98.85 -279.1 Q102.0 -273.15 102.9 -272.85 L105.75 -271.2 Q123.2 -263.25 135.25 -261.6 135.35 -258.15 125.8 -256.65 116.2 -255.15 111.25 -256.7 106.25 -258.2 97.65 -264.0 89.0 -269.85 85.35 -268.8 81.65 -267.8 80.0 -267.2 78.35 -266.65 72.1 -261.55 M-39.05 -262.85 L-39.3 -262.95 -39.05 -262.85" fill="#ffffff" fill-rule="evenodd" stroke="none"/>
      <path d="M83.9 -304.0 L82.25 -306.05 Q55.15 -339.3 0.05 -337.0 -55.05 -334.75 -75.4 -312.6 -95.8 -290.45 -99.0 -282.1 L-99.55 -280.65 -99.65 -280.3 -102.55 -270.15 -102.65 -269.35 -93.95 -268.9 -83.05 -269.4 Q-78.2 -270.0 -76.4 -271.35 -74.6 -272.75 -72.2 -274.0 -69.85 -275.25 -62.05 -278.4 -54.25 -281.6 -30.8 -280.5 -7.4 -279.4 2.5 -275.35 12.35 -271.35 14.05 -271.0 20.35 -269.6 30.7 -269.6 42.0 -269.6 50.4 -272.45 56.3 -274.45 62.55 -278.75 70.65 -284.3 72.05 -285.05 77.5 -287.9 83.8 -287.9 L94.7 -287.05 94.5 -287.45 87.0 -299.7 84.95 -302.55 84.65 -302.95 84.45 -303.25 83.9 -304.0 M71.15 -323.35 Q94.65 -303.9 99.2 -293.25 L99.25 -293.1 99.4 -292.8 99.65 -292.15 102.8 -285.0 102.85 -284.85 103.05 -284.35 105.85 -278.25 106.35 -278.25 Q106.6 -277.6 119.15 -273.15 131.7 -268.75 148.65 -265.8 145.6 -259.7 139.8 -254.2 133.95 -248.7 119.55 -249.5 105.1 -250.35 100.5 -254.55 95.9 -258.75 89.85 -260.3 L86.1 -260.55 Q82.85 -260.1 77.2 -254.95 71.55 -249.85 67.1 -247.65 60.85 -244.65 36.55 -242.8 12.25 -240.95 -12.8 -250.2 -22.2 -253.7 -27.55 -253.5 -32.55 -253.85 -40.65 -249.95 -67.65 -236.95 -95.1 -236.65 -122.55 -236.4 -135.1 -250.5 -139.35 -255.3 -141.05 -260.3 -138.75 -263.3 -126.05 -267.9 -113.35 -272.5 -108.65 -274.85 -100.4 -296.25 -83.3 -314.95 -65.35 -334.65 -38.0 -339.65 -10.7 -344.7 18.5 -343.75 47.65 -342.8 71.15 -323.35 M72.1 -261.55 Q78.35 -266.65 80.0 -267.2 81.65 -267.8 85.35 -268.8 89.0 -269.85 97.65 -264.0 106.25 -258.2 111.25 -256.7 116.2 -255.15 125.8 -256.65 135.35 -258.15 135.25 -261.6 123.2 -263.25 105.75 -271.2 L102.9 -272.85 Q102.0 -273.15 98.85 -279.1 L98.15 -279.35 Q91.7 -281.45 83.8 -281.45 77.95 -281.45 72.8 -278.6 L63.5 -272.3 Q50.15 -263.15 30.85 -263.15 19.05 -263.15 12.6 -264.55 10.2 -265.05 -0.75 -269.4 -11.7 -273.8 -35.95 -273.6 -60.2 -273.4 -65.75 -269.4 -71.3 -265.45 -76.7 -263.95 -82.1 -262.5 -94.05 -263.0 -101.85 -263.3 -108.3 -265.1 L-108.55 -265.6 Q-109.0 -266.6 -109.1 -267.55 L-109.1 -267.6 -110.95 -266.65 Q-117.4 -263.5 -133.65 -258.3 -131.5 -255.2 -128.05 -251.75 -121.65 -245.5 -103.95 -244.3 -86.25 -243.1 -78.05 -244.2 -69.85 -245.3 -53.55 -253.3 -37.3 -261.3 -29.8 -260.35 -15.6 -259.85 -4.8 -255.1 5.9 -250.35 30.05 -250.7 54.2 -251.1 60.0 -253.8 65.8 -256.5 72.1 -261.55 M105.85 -274.25 L105.75 -274.45 105.75 -274.25 105.85 -274.25" fill="#000000" fill-rule="evenodd" stroke="none"/>
      <path d="M-39.05 -262.85 L-39.3 -262.95 -39.05 -262.85" fill="#00b347" fill-rule="evenodd" stroke="none"/>
      <path d="M112.45 -315.65 Q115.85 -307.2 116.25 -302.05 L116.4 -297.55 Q116.4 -292.1 112.65 -283.05 107.7 -271.0 100.5 -271.0 94.25 -271.0 83.2 -276.95 78.05 -279.7 76.5 -280.95 76.35 -278.4 67.7 -271.15 59.0 -263.8 56.4 -263.8 41.15 -263.8 33.2 -279.45 29.2 -287.3 28.2 -295.75 L27.9 -299.05 Q27.7 -301.55 28.2 -303.3 29.85 -308.65 38.7 -308.65 50.05 -308.65 61.05 -304.6 66.45 -302.6 69.4 -300.85 71.45 -301.85 73.9 -301.85 L73.95 -301.85 Q76.65 -306.05 92.85 -315.1 109.0 -324.15 112.45 -315.65 M93.8 -309.1 Q83.3 -304.1 79.7 -300.1 L81.25 -298.8 Q84.25 -295.8 84.25 -291.5 84.25 -288.25 81.95 -283.95 L88.7 -279.5 Q95.15 -275.4 100.75 -276.7 106.35 -278.05 109.05 -287.65 110.45 -292.5 110.55 -299.8 110.6 -307.15 108.95 -309.9 107.3 -312.65 106.9 -312.85 104.3 -314.1 93.8 -309.1 M34.05 -302.05 Q33.55 -291.05 36.35 -286.35 L37.75 -283.25 Q39.9 -278.0 44.35 -274.15 48.75 -270.3 52.8 -270.35 56.8 -270.4 64.3 -277.15 L69.85 -281.9 Q68.05 -282.7 66.6 -284.15 63.55 -287.2 63.55 -291.5 63.55 -294.15 64.75 -296.35 62.55 -296.95 55.45 -300.05 48.3 -303.15 34.05 -302.05 M73.9 -296.65 Q71.75 -296.65 70.25 -295.15 68.75 -293.65 68.75 -291.5 68.75 -289.35 70.25 -287.8 71.75 -286.3 73.9 -286.3 76.05 -286.3 77.6 -287.8 79.1 -289.35 79.1 -291.5 79.1 -293.65 77.6 -295.15 76.05 -296.65 73.9 -296.65" fill="#000000" fill-rule="evenodd" stroke="none"/>
      <path d="M73.9 -296.65 Q76.05 -296.65 77.6 -295.15 79.1 -293.65 79.1 -291.5 79.1 -289.35 77.6 -287.8 76.05 -286.3 73.9 -286.3 71.75 -286.3 70.25 -287.8 68.75 -289.35 68.75 -291.5 68.75 -293.65 70.25 -295.15 71.75 -296.65 73.9 -296.65 M34.05 -302.05 Q48.3 -303.15 55.45 -300.05 62.55 -296.95 64.75 -296.35 63.55 -294.15 63.55 -291.5 63.55 -287.2 66.6 -284.15 68.05 -282.7 69.85 -281.9 L64.3 -277.15 Q56.8 -270.4 52.8 -270.35 48.75 -270.3 44.35 -274.15 39.9 -278.0 37.75 -283.25 L36.35 -286.35 Q33.55 -291.05 34.05 -302.05 M93.8 -309.1 Q104.3 -314.1 106.9 -312.85 107.3 -312.65 108.95 -309.9 110.6 -307.15 110.55 -299.8 110.45 -292.5 109.05 -287.65 106.35 -278.05 100.75 -276.7 95.15 -275.4 88.7 -279.5 L81.95 -283.95 Q84.25 -288.25 84.25 -291.5 84.25 -295.8 81.25 -298.8 L79.7 -300.1 Q83.3 -304.1 93.8 -309.1" fill="#dc6897" fill-rule="evenodd" stroke="none"/>
    </g>
  </defs>
</svg>
