<?xml version="1.0" encoding="UTF-8" standalone="no"?>
<svg xmlns:xlink="http://www.w3.org/1999/xlink" height="434.9px" width="399.95px" xmlns="http://www.w3.org/2000/svg">
  <g transform="matrix(1, 0, 0, 1, 210.75, 443.1)">
    <use height="132.0" transform="matrix(1.0, 0.0, 0.0, 1.0, -91.15, -327.0)" width="191.05" xlink:href="#shape0"/>
  </g>
  <defs>
    <g id="shape0" transform="matrix(1, 0, 0, 1, 91.15, 327.0)">
      <path d="M73.75 -270.0 Q61.95 -278.95 47.4 -283.15 32.2 -287.75 16.35 -288.45 1.3 -289.3 -13.4 -286.9 -29.15 -284.65 -43.75 -278.55 -56.8 -273.05 -67.2 -263.75 -70.55 -268.7 -82.0 -280.6 L-62.0 -281.4 -60.0 -281.0 Q-59.1 -281.0 -57.95 -282.3 -57.1 -282.85 -57.0 -283.7 -55.15 -286.7 -52.85 -292.95 -47.5 -307.5 -46.6 -308.8 -42.7 -304.9 -33.7 -299.9 -27.65 -296.55 -25.2 -295.65 L-25.2 -295.6 -24.0 -294.85 -22.4 -294.6 -16.7 -301.85 Q-9.9 -310.75 -4.8 -316.4 L5.45 -304.85 Q13.55 -296.2 17.6 -296.2 19.6 -296.2 20.2 -297.2 L20.25 -297.4 31.3 -302.65 Q43.8 -308.75 47.6 -311.4 L48.0 -311.0 52.6 -291.65 53.15 -291.0 59.6 -289.75 87.4 -288.8 Q77.95 -276.2 74.4 -269.6 L73.75 -270.0 M-69.4 -277.55 Q-70.15 -279.0 -72.0 -279.0 -75.0 -279.0 -75.0 -275.8 -75.0 -273.0 -72.0 -273.0 -70.95 -273.0 -70.0 -273.8 -69.0 -274.7 -69.0 -275.9 -69.0 -276.8 -69.4 -277.55 M-4.8 -311.0 Q-7.8 -311.0 -7.8 -307.8 -7.8 -305.0 -4.8 -305.0 -3.75 -305.0 -2.8 -305.8 -1.8 -306.7 -1.8 -307.9 -1.9 -311.0 -4.8 -311.0 M-41.0 -297.5 Q-41.0 -298.4 -41.4 -299.15 -42.15 -300.6 -44.0 -300.6 -47.0 -300.6 -47.0 -297.4 -47.0 -294.6 -44.0 -294.6 -42.95 -294.6 -42.0 -295.4 -41.0 -296.3 -41.0 -297.5 M78.2 -283.9 Q78.2 -287.0 75.2 -287.0 72.2 -287.0 72.2 -283.8 72.2 -281.0 75.2 -281.0 76.3 -281.0 77.25 -281.8 78.2 -282.7 78.2 -283.9 M47.0 -303.1 Q47.0 -306.2 44.0 -306.2 41.0 -306.2 41.0 -303.0 41.0 -300.2 44.0 -300.2 45.1 -300.2 46.05 -301.0 47.0 -301.9 47.0 -303.1" fill="#ffffff" fill-rule="evenodd" stroke="none"/>
      <path d="M30.55 -309.95 L42.35 -316.35 Q47.1 -319.0 49.6 -319.0 53.1 -319.0 59.0 -295.2 L59.0 -294.5 75.2 -295.0 93.4 -294.0 94.0 -292.8 94.2 -291.3 Q94.2 -289.9 85.2 -275.4 81.65 -269.65 75.3 -260.5 73.1 -260.5 71.15 -262.4 60.2 -273.0 45.7 -277.25 22.45 -283.9 -1.85 -281.9 -15.15 -281.4 -28.0 -278.5 -36.7 -276.55 -44.1 -271.65 L-51.4 -267.15 Q-59.85 -262.4 -67.3 -256.7 L-68.1 -257.05 -68.8 -257.0 Q-71.0 -257.0 -81.2 -270.15 -91.0 -282.75 -91.0 -283.5 L-91.15 -285.1 Q-91.15 -285.85 -90.05 -286.2 L-74.0 -287.0 -62.45 -286.55 Q-52.05 -316.6 -49.2 -316.6 -45.5 -316.6 -24.3 -301.2 -22.15 -304.65 -15.6 -313.6 -5.9 -327.0 -5.6 -327.0 L17.55 -302.55 Q18.75 -303.7 21.15 -304.9 L30.55 -309.95 M74.4 -269.6 Q77.95 -276.2 87.4 -288.8 L59.6 -289.75 53.15 -291.0 52.6 -291.65 48.0 -311.0 47.6 -311.4 Q43.8 -308.75 31.3 -302.65 L20.25 -297.4 20.2 -297.2 Q19.6 -296.2 17.6 -296.2 13.55 -296.2 5.45 -304.85 L-4.8 -316.4 Q-9.9 -310.75 -16.7 -301.85 L-22.4 -294.6 -24.0 -294.85 -25.2 -295.6 -25.2 -295.65 Q-27.65 -296.55 -33.7 -299.9 -42.7 -304.9 -46.6 -308.8 -47.5 -307.5 -52.85 -292.95 -55.15 -286.7 -57.0 -283.7 -57.1 -282.85 -57.95 -282.3 -59.1 -281.0 -60.0 -281.0 L-62.0 -281.4 -82.0 -280.6 Q-70.55 -268.7 -67.2 -263.75 -56.8 -273.05 -43.75 -278.55 -29.15 -284.65 -13.4 -286.9 1.3 -289.3 16.35 -288.45 32.2 -287.75 47.4 -283.15 61.95 -278.95 73.75 -270.0 L74.35 -269.5 74.4 -269.6" fill="#000000" fill-rule="evenodd" stroke="none"/>
      <path d="M47.0 -303.1 Q47.0 -301.9 46.05 -301.0 45.1 -300.2 44.0 -300.2 41.0 -300.2 41.0 -303.0 41.0 -306.2 44.0 -306.2 47.0 -306.2 47.0 -303.1 M78.2 -283.9 Q78.2 -282.7 77.25 -281.8 76.3 -281.0 75.2 -281.0 72.2 -281.0 72.2 -283.8 72.2 -287.0 75.2 -287.0 78.2 -287.0 78.2 -283.9 M-41.0 -297.5 Q-41.0 -296.3 -42.0 -295.4 -42.95 -294.6 -44.0 -294.6 -47.0 -294.6 -47.0 -297.4 -47.0 -300.6 -44.0 -300.6 -42.15 -300.6 -41.4 -299.15 -41.0 -298.4 -41.0 -297.5 M-4.8 -311.0 Q-1.9 -311.0 -1.8 -307.9 -1.8 -306.7 -2.8 -305.8 -3.75 -305.0 -4.8 -305.0 -7.8 -305.0 -7.8 -307.8 -7.8 -311.0 -4.8 -311.0 M-69.4 -277.55 Q-69.0 -276.8 -69.0 -275.9 -69.0 -274.7 -70.0 -273.8 -70.95 -273.0 -72.0 -273.0 -75.0 -273.0 -75.0 -275.8 -75.0 -279.0 -72.0 -279.0 -70.15 -279.0 -69.4 -277.55" fill="#d9d9d9" fill-rule="evenodd" stroke="none"/>
      <path d="M77.4 -211.85 Q77.3 -213.1 78.35 -213.85 L78.85 -214.05 79.6 -214.15 Q85.65 -218.25 92.5 -220.85 L94.05 -221.0 94.1 -221.0 Q96.0 -220.3 97.05 -218.45 98.6 -215.75 99.35 -212.75 L99.35 -212.65 Q100.45 -206.05 99.35 -202.85 98.0 -198.85 95.4 -199.4 L90.25 -200.35 84.3 -201.65 80.95 -202.4 Q80.65 -202.5 80.45 -202.65 L79.4 -203.65 79.1 -204.1 78.7 -205.55 Q77.7 -208.65 77.4 -211.8 L77.4 -211.85 M92.65 -215.5 Q87.4 -213.85 82.6 -210.6 L83.6 -207.1 Q88.95 -205.15 94.65 -205.1 95.2 -207.85 94.85 -209.7 L94.1 -212.65 92.65 -215.5 M-76.5 -217.0 Q-75.85 -217.5 -75.0 -217.3 -67.6 -216.6 -58.75 -213.55 L-58.4 -213.3 -58.15 -212.95 -58.05 -212.5 Q-57.5 -209.35 -57.65 -206.1 L-57.65 -203.9 -57.75 -203.45 -58.1 -203.1 Q-60.25 -201.6 -61.5 -200.85 L-61.45 -200.85 -66.25 -198.0 Q-69.75 -195.95 -73.75 -195.05 L-73.85 -195.05 Q-74.95 -194.85 -75.6 -195.85 -79.15 -201.1 -79.45 -207.65 L-79.45 -207.7 Q-79.5 -210.8 -78.7 -213.8 -78.2 -215.85 -76.5 -217.0 M-72.45 -201.55 Q-67.45 -202.65 -62.75 -206.3 L-62.7 -209.9 -73.7 -212.0 -74.35 -208.95 -74.3 -207.8 Q-73.7 -204.65 -72.45 -201.55" fill="#000000" fill-rule="evenodd" stroke="none"/>
      <path d="M92.65 -215.5 L94.1 -212.65 94.85 -209.7 Q95.2 -207.85 94.65 -205.1 88.95 -205.15 83.6 -207.1 L82.6 -210.6 Q87.4 -213.85 92.65 -215.5 M-72.45 -201.55 Q-73.7 -204.65 -74.3 -207.8 L-74.35 -208.95 -73.7 -212.0 -62.7 -209.9 -62.75 -206.3 Q-67.45 -202.65 -72.45 -201.55" fill="#ffffff" fill-rule="evenodd" stroke="none"/>
    </g>
  </defs>
</svg>
