<?xml version="1.0" encoding="UTF-8" standalone="no"?>
<svg xmlns:xlink="http://www.w3.org/1999/xlink" height="434.9px" width="399.95px" xmlns="http://www.w3.org/2000/svg">
  <g transform="matrix(1, 0, 0, 1, 210.75, 443.1)">
    <use height="110.1" transform="matrix(1.0, 0.0, 0.0, 1.0, -123.15, -332.7)" width="132.3" xlink:href="#shape0"/>
  </g>
  <defs>
    <g id="shape0" transform="matrix(1, 0, 0, 1, 123.15, 332.7)">
      <path d="M7.15 -310.4 Q5.75 -309.75 3.45 -309.75 L-2.7 -310.35 Q-41.45 -310.2 -58.4 -266.45 -62.2 -256.65 -67.2 -236.3 -70.5 -222.6 -72.9 -222.6 -79.65 -222.6 -86.7 -230.25 -86.7 -232.45 -85.6 -233.55 -85.8 -235.4 -85.5 -237.45 -85.5 -241.0 -82.75 -252.2 L-82.25 -254.2 Q-86.4 -251.2 -92.25 -247.35 -111.95 -234.45 -115.8 -234.45 L-116.25 -234.45 -116.4 -234.45 -118.85 -234.85 -119.1 -235.0 -119.75 -235.35 -120.6 -235.8 -120.6 -236.35 -120.9 -238.5 Q-120.9 -241.55 -116.15 -247.8 -111.45 -254.0 -111.45 -255.3 -111.45 -255.85 -113.75 -261.3 -116.1 -266.7 -116.1 -270.3 -116.1 -272.3 -115.7 -274.35 L-115.95 -274.35 Q-121.5 -274.35 -122.85 -276.3 -123.15 -276.7 -123.15 -278.55 L-122.85 -279.05 -123.15 -282.3 Q-123.15 -290.5 -113.25 -298.5 -116.1 -302.3 -116.1 -304.8 -116.1 -308.25 -102.0 -320.55 -106.4 -324.95 -106.6 -328.15 L-106.65 -328.2 -106.65 -328.45 -106.65 -328.5 Q-106.5 -332.7 -101.7 -332.7 L-101.45 -332.7 Q-89.85 -332.5 -72.9 -314.1 -67.25 -308.0 -62.15 -301.1 L-61.3 -299.9 Q-44.05 -322.05 -18.75 -322.05 -5.05 -322.05 2.3 -319.4 6.65 -318.9 8.3 -317.1 9.15 -316.2 9.15 -314.25 L9.15 -314.05 9.15 -313.95 9.05 -312.75 Q8.65 -311.2 7.15 -310.4 M-104.9 -301.35 Q-103.8 -299.55 -103.8 -298.05 -103.8 -297.45 -113.7 -283.7 -109.45 -285.45 -104.1 -287.1 L-99.65 -288.4 -99.6 -288.9 Q-99.6 -290.1 -97.1 -292.8 -94.65 -295.5 -94.65 -296.7 -94.65 -298.2 -96.0 -300.05 -97.35 -301.95 -97.35 -303.45 -97.35 -306.3 -93.5 -312.6 L-92.3 -314.4 -94.1 -316.05 Q-95.9 -313.95 -99.0 -311.65 -106.05 -306.45 -106.05 -304.65 -106.05 -303.15 -104.9 -301.35 M-84.9 -297.15 Q-84.9 -295.7 -87.6 -291.3 -77.9 -293.3 -68.75 -293.7 -74.55 -298.25 -85.15 -307.85 L-87.6 -304.05 Q-87.6 -302.55 -86.25 -300.6 -84.9 -298.65 -84.9 -297.15 M-103.05 -278.3 Q-103.95 -277.95 -105.0 -277.5 -105.1 -276.05 -106.1 -273.8 -107.25 -271.35 -107.25 -269.85 -107.25 -269.1 -104.9 -262.85 -102.6 -256.6 -102.6 -254.4 -102.6 -253.35 -104.05 -250.45 L-95.4 -256.5 -95.05 -260.4 Q-94.7 -262.9 -94.95 -263.55 -96.75 -268.5 -100.35 -271.25 -103.2 -273.4 -103.2 -276.3 L-103.05 -278.3 M-86.5 -262.75 L-77.8 -268.6 Q-75.5 -275.1 -72.65 -281.1 L-70.55 -285.25 Q-81.5 -284.05 -92.9 -281.4 -89.7 -275.8 -86.5 -262.75" fill="#000000" fill-rule="evenodd" stroke="none"/>
      <path d="M-104.9 -301.35 Q-106.05 -303.15 -106.05 -304.65 -106.05 -306.45 -99.0 -311.65 -95.9 -313.95 -94.1 -316.05 L-92.3 -314.4 -93.5 -312.6 Q-97.35 -306.3 -97.35 -303.45 -97.35 -301.95 -96.0 -300.05 -94.65 -298.2 -94.65 -296.7 -94.65 -295.5 -97.1 -292.8 -99.6 -290.1 -99.6 -288.9 L-99.65 -288.4 -104.1 -287.1 Q-109.45 -285.45 -113.7 -283.7 -103.8 -297.45 -103.8 -298.05 -103.8 -299.55 -104.9 -301.35 M-103.05 -278.3 L-103.2 -276.3 Q-103.2 -273.4 -100.35 -271.25 -96.75 -268.5 -94.95 -263.55 -94.7 -262.9 -95.05 -260.4 L-95.4 -256.5 -104.05 -250.45 Q-102.6 -253.35 -102.6 -254.4 -102.6 -256.6 -104.9 -262.85 -107.25 -269.1 -107.25 -269.85 -107.25 -271.35 -106.1 -273.8 -105.1 -276.05 -105.0 -277.5 -103.95 -277.95 -103.05 -278.3" fill="#ffffff" fill-rule="evenodd" stroke="none"/>
      <path d="M-84.9 -297.15 Q-84.9 -298.65 -86.25 -300.6 -87.6 -302.55 -87.6 -304.05 L-85.15 -307.85 Q-74.55 -298.25 -68.75 -293.7 -77.9 -293.3 -87.6 -291.3 -84.9 -295.7 -84.9 -297.15 M-86.5 -262.75 Q-89.7 -275.8 -92.9 -281.4 -81.5 -284.05 -70.55 -285.25 L-72.65 -281.1 Q-75.5 -275.1 -77.8 -268.6 L-86.5 -262.75" fill="#444444" fill-rule="evenodd" stroke="none"/>
    </g>
  </defs>
</svg>
