<?xml version="1.0" encoding="UTF-8" standalone="no"?>
<svg xmlns:xlink="http://www.w3.org/1999/xlink" height="434.9px" width="399.95px" xmlns="http://www.w3.org/2000/svg">
  <g transform="matrix(1, 0, 0, 1, 210.75, 443.1)">
    <use height="192.55" transform="matrix(1.0, 0.0, 0.0, 1.0, -148.3, -340.95)" width="305.9" xlink:href="#shape0"/>
  </g>
  <defs>
    <g id="shape0" transform="matrix(1, 0, 0, 1, 148.3, 340.95)">
      <path d="M18.05 -284.95 L7.8 -284.45 Q-38.2 -280.85 -66.7 -269.65 -93.4 -259.15 -93.4 -247.05 -93.8 -245.6 -93.55 -244.55 -93.8 -243.0 -93.4 -240.7 -92.45 -225.25 -90.3 -210.0 -88.4 -196.2 -81.7 -165.9 -82.3 -166.1 -86.4 -169.3 -90.5 -172.5 -98.15 -184.25 -105.8 -195.95 -108.75 -209.95 -111.7 -223.95 -110.75 -248.05 -109.8 -272.15 -86.95 -299.45 -58.95 -332.95 -1.45 -332.95 67.8 -332.95 95.25 -281.45 104.2 -264.7 107.15 -250.25 110.05 -235.85 111.7 -215.4 113.3 -195.05 104.15 -180.8 95.0 -166.55 93.45 -165.4 96.95 -175.6 96.5 -185.6 96.0 -195.65 95.85 -219.2 95.65 -242.8 93.25 -249.55 92.1 -259.1 72.5 -272.0 52.8 -284.95 18.05 -284.95" fill="#ffffff" fill-rule="evenodd" stroke="none"/>
      <path d="M18.05 -284.95 Q52.8 -284.95 72.5 -272.0 92.1 -259.1 93.25 -249.55 95.65 -242.8 95.85 -219.2 96.0 -195.65 96.5 -185.6 96.95 -175.6 93.45 -165.4 95.0 -166.55 104.15 -180.8 113.3 -195.05 111.7 -215.4 110.05 -235.85 107.15 -250.25 104.2 -264.7 95.25 -281.45 67.8 -332.95 -1.45 -332.95 -58.95 -332.95 -86.95 -299.45 -109.8 -272.15 -110.75 -248.05 -111.7 -223.95 -108.75 -209.95 -105.8 -195.95 -98.15 -184.25 -90.5 -172.5 -86.4 -169.3 -82.3 -166.1 -81.7 -165.9 -88.4 -196.2 -90.3 -210.0 -92.45 -225.25 -93.4 -240.7 -93.8 -243.0 -93.55 -244.55 -93.8 -245.6 -93.4 -247.05 -93.4 -259.15 -66.7 -269.65 -38.2 -280.85 7.8 -284.45 L18.05 -284.95 M18.55 -276.95 Q-16.35 -276.95 -41.85 -269.6 -55.0 -265.8 -64.15 -260.95 -70.3 -258.6 -86.4 -248.3 -86.1 -238.2 -81.3 -207.85 L-78.1 -187.75 -72.15 -148.4 Q-104.7 -174.75 -111.1 -196.25 -117.5 -217.75 -118.0 -228.7 -118.0 -265.1 -102.55 -291.35 -75.85 -336.8 -8.65 -340.45 L-1.95 -340.95 Q39.9 -340.95 67.9 -323.45 90.55 -309.35 103.2 -284.45 117.3 -256.8 118.35 -225.3 118.75 -211.05 116.9 -196.3 115.05 -181.75 101.45 -164.5 89.9 -154.45 86.8 -155.05 92.35 -176.45 88.75 -197.85 87.5 -245.1 88.1 -247.4 L85.5 -250.35 Q79.75 -256.3 72.55 -261.2 49.2 -276.95 18.55 -276.95" fill="#000000" fill-rule="evenodd" stroke="none"/>
      <path d="M84.4 -303.15 L81.3 -305.25 79.55 -306.45 70.7 -294.75 73.2 -292.25 75.2 -290.35 86.9 -279.3 Q95.25 -271.45 99.9 -265.55 104.6 -259.6 108.1 -253.1 111.55 -246.55 113.05 -239.25 114.5 -231.95 113.8 -226.35 L111.4 -208.55 Q109.75 -196.3 113.55 -179.5 117.3 -162.75 126.75 -159.35 136.2 -156.0 140.95 -164.25 145.65 -172.5 150.0 -190.15 154.35 -207.8 148.8 -230.2 143.2 -252.65 118.8 -274.75 98.35 -293.3 84.4 -303.15 M77.6 -313.35 L77.85 -313.4 Q84.05 -313.05 101.6 -297.85 L129.25 -273.7 Q139.35 -264.75 150.5 -243.8 161.6 -222.9 155.35 -191.95 149.1 -161.0 140.35 -156.1 131.55 -151.25 124.0 -153.65 116.4 -156.05 110.5 -169.75 106.4 -179.3 104.35 -189.85 L104.35 -189.9 Q103.45 -197.45 105.65 -213.05 107.8 -228.55 106.95 -236.0 104.75 -254.3 84.45 -273.35 L72.2 -284.35 Q64.6 -291.0 63.8 -294.05 L63.7 -294.6 63.55 -295.85 63.55 -296.05 Q64.0 -298.15 76.9 -312.55 L77.45 -313.2 77.6 -313.35 M-64.1 -297.65 Q-64.55 -294.5 -71.3 -287.0 -78.5 -279.1 -82.15 -274.65 -100.1 -253.25 -100.15 -234.85 -100.15 -227.35 -96.15 -212.2 -92.1 -197.0 -92.1 -189.35 L-92.1 -189.3 Q-92.95 -178.55 -95.9 -168.6 -100.15 -154.3 -107.4 -151.0 -114.65 -147.75 -123.9 -151.55 -133.2 -155.35 -143.05 -185.35 -152.9 -215.4 -144.3 -237.5 -135.75 -259.6 -126.75 -269.7 L-102.1 -296.95 Q-86.45 -314.15 -80.35 -315.2 L-80.1 -315.2 -79.9 -315.05 -79.25 -314.5 Q-64.8 -301.65 -64.05 -299.6 L-64.05 -299.45 -64.05 -298.15 -64.1 -297.65 M-75.0 -292.6 L-73.2 -294.7 -71.0 -297.5 -81.2 -308.1 -82.8 -306.7 -85.65 -304.25 Q-98.4 -292.85 -116.45 -272.0 -138.1 -247.15 -141.05 -224.15 -143.95 -201.25 -137.55 -184.2 -131.15 -167.2 -125.5 -159.55 -119.85 -151.9 -110.8 -156.35 -101.8 -160.85 -100.0 -177.95 -98.25 -195.05 -101.35 -207.05 L-105.8 -224.45 Q-107.2 -229.9 -106.55 -237.35 L-106.55 -237.4 Q-105.95 -244.8 -103.25 -251.7 -100.6 -258.6 -96.6 -265.05 -92.7 -271.5 -85.3 -280.25 L-75.0 -292.6" fill="#000000" fill-rule="evenodd" stroke="none"/>
      <path d="M75.2 -290.35 L73.2 -292.25 70.7 -294.75 79.55 -306.45 81.3 -305.25 84.4 -303.15 80.95 -297.55 Q77.2 -291.65 75.2 -290.35 M-85.65 -304.25 L-82.8 -306.7 -81.2 -308.1 -71.0 -297.5 -73.2 -294.7 -75.0 -292.6 Q-77.15 -293.65 -81.55 -299.1 L-85.65 -304.25" fill="#dddddd" fill-rule="evenodd" stroke="none"/>
      <path d="M84.4 -303.15 Q98.35 -293.3 118.8 -274.75 143.2 -252.65 148.8 -230.2 154.35 -207.8 150.0 -190.15 145.65 -172.5 140.95 -164.25 136.2 -156.0 126.75 -159.35 117.3 -162.75 113.55 -179.5 109.75 -196.3 111.4 -208.55 L113.8 -226.35 Q114.5 -231.95 113.05 -239.25 111.55 -246.55 108.1 -253.1 104.6 -259.6 99.9 -265.55 95.25 -271.45 86.9 -279.3 L75.2 -290.35 Q77.2 -291.65 80.95 -297.55 L84.4 -303.15 M-85.65 -304.25 L-81.55 -299.1 Q-77.15 -293.65 -75.0 -292.6 L-85.3 -280.25 Q-92.7 -271.5 -96.6 -265.05 -100.6 -258.6 -103.25 -251.7 -105.95 -244.8 -106.55 -237.4 L-106.55 -237.35 Q-107.2 -229.9 -105.8 -224.45 L-101.35 -207.05 Q-98.25 -195.05 -100.0 -177.95 -101.8 -160.85 -110.8 -156.35 -119.85 -151.9 -125.5 -159.55 -131.15 -167.2 -137.55 -184.2 -143.95 -201.25 -141.05 -224.15 -138.1 -247.15 -116.45 -272.0 -98.4 -292.85 -85.65 -304.25" fill="#ffffff" fill-rule="evenodd" stroke="none"/>
    </g>
  </defs>
</svg>
