<?xml version="1.0" encoding="UTF-8" standalone="no"?>
<svg xmlns:xlink="http://www.w3.org/1999/xlink" height="434.9px" width="399.95px" xmlns="http://www.w3.org/2000/svg">
  <g transform="matrix(1, 0, 0, 1, 210.75, 443.1)">
    <use height="275.7" transform="matrix(1.0, 0.0, 0.0, 1.0, -123.2, -348.6)" width="232.95" xlink:href="#shape0"/>
  </g>
  <defs>
    <g id="shape0" transform="matrix(1, 0, 0, 1, 123.2, 348.6)">
      <path d="M91.6 -302.95 Q95.85 -295.4 101.5 -276.4 107.1 -257.45 105.75 -246.85 106.1 -243.55 104.85 -242.15 87.1 -259.75 85.05 -262.85 70.15 -285.6 -9.0 -285.6 -58.55 -285.6 -77.75 -250.35 -83.85 -239.2 -86.15 -225.6 -87.25 -219.0 -87.75 -204.05 -88.25 -189.15 -72.3 -172.85 L-53.25 -153.6 -33.1 -135.4 Q-16.15 -120.2 -8.0 -114.1 -7.5 -114.4 1.75 -125.0 10.95 -135.6 29.35 -140.65 47.75 -145.7 56.8 -151.45 L72.45 -161.35 Q79.05 -165.5 85.25 -172.65 91.45 -179.85 93.85 -188.8 96.25 -197.8 99.9 -223.1 100.75 -223.6 102.0 -223.6 107.0 -223.6 109.75 -153.75 109.75 -145.25 107.85 -133.05 104.9 -114.2 103.95 -103.05 L102.5 -86.1 Q102.35 -84.55 101.4 -81.2 91.15 -77.5 80.1 -77.9 68.2 -78.4 66.3 -80.05 63.45 -86.3 62.35 -104.35 60.5 -81.4 59.6 -79.8 58.6 -78.2 53.9 -77.25 L40.5 -76.0 22.9 -76.1 Q17.3 -76.1 14.95 -101.7 L13.5 -79.25 Q13.2 -76.6 0.8 -75.55 -11.6 -74.5 -18.6 -75.1 -25.6 -75.7 -28.9 -97.05 -29.35 -82.15 -29.2 -79.15 -29.1 -76.2 -31.7 -74.7 -34.3 -73.2 -41.55 -73.0 -48.8 -72.75 -59.9 -73.15 -71.1 -73.55 -71.6 -78.0 L-73.6 -93.2 -76.55 -76.2 Q-80.9 -73.4 -93.4 -74.4 -114.85 -76.1 -115.75 -76.8 -116.7 -77.5 -117.6 -79.35 -118.55 -81.2 -114.75 -129.5 -114.75 -153.7 -117.3 -167.55 L-121.7 -191.5 Q-123.55 -201.65 -123.15 -208.35 -122.75 -215.1 -118.15 -242.85 -113.85 -269.0 -111.5 -276.1 -103.45 -300.6 -76.15 -324.25 -65.1 -333.8 -54.6 -339.75 -44.8 -345.35 -39.45 -345.6 -30.55 -348.6 -16.0 -348.6 12.7 -348.6 35.4 -341.55 58.1 -334.5 67.1 -329.05 76.05 -323.65 81.7 -317.05 87.35 -310.5 91.6 -302.95 M23.0 -339.0 Q11.05 -340.85 -19.65 -341.5 -33.1 -341.8 -52.2 -333.4 L-52.05 -333.5 Q-69.75 -323.4 -83.45 -308.15 -97.15 -292.9 -102.35 -279.75 -107.6 -266.6 -111.4 -241.1 -115.25 -215.6 -115.25 -205.0 -115.25 -202.3 -111.25 -174.25 -107.25 -146.15 -107.25 -130.0 -107.75 -115.1 -109.2 -102.5 -110.7 -89.95 -109.9 -83.15 L-86.25 -82.1 -82.0 -82.1 -75.8 -111.4 Q-71.5 -116.4 -68.1 -100.45 L-64.0 -79.85 Q-55.85 -80.75 -36.15 -80.25 -35.45 -105.3 -33.9 -113.1 -33.1 -113.6 -32.0 -113.6 L-29.9 -113.65 Q-28.45 -113.7 -24.3 -99.6 -20.2 -85.55 -17.5 -81.35 -4.85 -79.9 7.75 -82.35 10.75 -106.55 11.45 -115.1 L13.5 -116.6 15.0 -116.7 Q15.55 -113.6 17.15 -107.65 L19.0 -101.2 Q21.0 -93.05 22.9 -87.0 24.8 -80.95 33.6 -81.6 L47.4 -82.8 Q52.4 -83.35 53.55 -85.85 54.7 -88.35 55.5 -98.4 56.3 -108.45 57.5 -116.35 57.65 -116.35 58.6 -116.95 59.55 -117.6 61.0 -117.6 63.5 -117.6 64.45 -115.55 66.2 -112.95 68.0 -103.95 69.75 -95.35 71.0 -85.1 L95.8 -86.5 96.0 -89.05 96.1 -90.8 Q96.55 -96.1 99.1 -116.55 102.25 -142.25 102.95 -153.3 103.6 -164.4 101.3 -193.85 93.05 -164.65 75.7 -154.15 58.35 -143.75 43.1 -138.75 27.8 -133.75 23.3 -132.5 18.75 -131.25 8.25 -119.85 -1.85 -105.1 -7.8 -105.1 -13.75 -105.1 -21.0 -113.8 -28.25 -122.6 -37.15 -129.45 -46.0 -136.35 -59.65 -149.65 -73.3 -162.95 -82.45 -176.65 -91.65 -190.35 -93.2 -195.0 -94.75 -199.65 -94.75 -212.85 -94.75 -237.35 -83.5 -256.35 -61.5 -293.6 -4.0 -293.6 58.35 -293.6 86.0 -272.1 90.95 -268.3 98.55 -258.3 95.6 -276.3 87.4 -296.2 79.2 -316.15 57.2 -326.6 35.2 -337.1 23.0 -339.0" fill="#000000" fill-rule="evenodd" stroke="none"/>
      <path d="M23.0 -339.0 Q35.2 -337.1 57.2 -326.6 79.2 -316.15 87.4 -296.2 95.6 -276.3 98.55 -258.3 90.95 -268.3 86.0 -272.1 58.35 -293.6 -4.0 -293.6 -61.5 -293.6 -83.5 -256.35 -94.75 -237.35 -94.75 -212.85 -94.75 -199.65 -93.2 -195.0 -91.65 -190.35 -82.45 -176.65 -73.3 -162.95 -59.65 -149.65 -46.0 -136.35 -37.15 -129.45 -28.25 -122.6 -21.0 -113.8 -13.75 -105.1 -7.8 -105.1 -1.85 -105.1 8.25 -119.85 18.75 -131.25 23.3 -132.5 27.8 -133.75 43.1 -138.75 58.35 -143.75 75.7 -154.15 93.05 -164.65 101.3 -193.85 103.6 -164.4 102.95 -153.3 102.25 -142.25 99.1 -116.55 96.55 -96.1 96.1 -90.8 L96.0 -89.05 95.8 -86.5 71.0 -85.1 Q69.75 -95.35 68.0 -103.95 66.2 -112.95 64.45 -115.55 63.5 -117.6 61.0 -117.6 59.55 -117.6 58.6 -116.95 57.65 -116.35 57.5 -116.35 56.3 -108.45 55.5 -98.4 54.7 -88.35 53.55 -85.85 52.4 -83.35 47.4 -82.8 L33.6 -81.6 Q24.8 -80.95 22.9 -87.0 21.0 -93.05 19.0 -101.2 L17.15 -107.65 Q15.55 -113.6 15.0 -116.7 L13.5 -116.6 11.45 -115.1 Q10.75 -106.55 7.75 -82.35 -4.85 -79.9 -17.5 -81.35 -20.2 -85.55 -24.3 -99.6 -28.45 -113.7 -29.9 -113.65 L-32.0 -113.6 Q-33.1 -113.6 -33.9 -113.1 -35.45 -105.3 -36.15 -80.25 -55.85 -80.75 -64.0 -79.85 L-68.1 -100.45 Q-71.5 -116.4 -75.8 -111.4 L-82.0 -82.1 -86.25 -82.1 -109.9 -83.15 Q-110.7 -89.95 -109.2 -102.5 -107.75 -115.1 -107.25 -130.0 -107.25 -146.15 -111.25 -174.25 -115.25 -202.3 -115.25 -205.0 -115.25 -215.6 -111.4 -241.1 -107.6 -266.6 -102.35 -279.75 -97.15 -292.9 -83.45 -308.15 -69.75 -323.4 -52.05 -333.5 L-52.2 -333.4 Q-33.1 -341.8 -19.65 -341.5 11.05 -340.85 23.0 -339.0" fill="#113e80" fill-rule="evenodd" stroke="none"/>
    </g>
  </defs>
</svg>
