<?xml version="1.0" encoding="UTF-8" standalone="no"?>
<svg xmlns:xlink="http://www.w3.org/1999/xlink" height="434.9px" width="399.95px" xmlns="http://www.w3.org/2000/svg">
  <g transform="matrix(1, 0, 0, 1, 210.75, 443.1)">
    <use height="211.3" transform="matrix(1.0, 0.0, 0.0, 1.0, -113.95, -334.7)" width="230.65" xlink:href="#shape0"/>
  </g>
  <defs>
    <g id="shape0" transform="matrix(1, 0, 0, 1, 113.95, 334.7)">
      <path d="M60.7 -243.1 L52.3 -244.8 39.15 -246.75 11.1 -247.8 Q-31.2 -246.15 -69.5 -224.3 L-66.1 -169.75 Q-40.4 -162.3 -15.35 -160.1 -0.7 -158.85 13.7 -159.4 L28.6 -160.45 37.65 -161.6 Q64.3 -165.5 90.15 -175.8 L92.55 -233.7 Q76.35 -239.65 60.7 -243.1 M83.3 -298.95 Q100.55 -272.05 110.0 -250.65 119.4 -229.25 104.85 -159.75 6.75 -96.65 -99.0 -153.0 -120.4 -220.3 -103.5 -269.3 -86.6 -318.3 -0.05 -331.7 66.05 -325.85 83.3 -298.95" fill="#650101" fill-rule="evenodd" stroke="none"/>
      <path d="M52.3 -244.8 L60.7 -243.1 37.65 -161.6 28.6 -160.45 52.3 -244.8 M13.7 -159.4 Q-0.7 -158.85 -15.35 -160.1 L11.1 -247.8 39.15 -246.75 13.7 -159.4" fill="#ffffff" fill-opacity="0.5019608" fill-rule="evenodd" stroke="none"/>
      <path d="M60.7 -243.1 Q76.35 -239.65 92.55 -233.7 L90.15 -175.8 Q64.3 -165.5 37.65 -161.6 L60.7 -243.1 M28.6 -160.45 L13.7 -159.4 39.15 -246.75 52.3 -244.8 28.6 -160.45 M-15.35 -160.1 Q-40.4 -162.3 -66.1 -169.75 L-69.5 -224.3 Q-31.2 -246.15 11.1 -247.8 L-15.35 -160.1" fill="#000000" fill-opacity="0.7529412" fill-rule="evenodd" stroke="none"/>
      <path d="M52.3 -244.8 L60.7 -243.1 Q76.35 -239.65 92.55 -233.7 L90.15 -175.8 Q64.3 -165.5 37.65 -161.6 L28.6 -160.45 13.7 -159.4 Q-0.7 -158.85 -15.35 -160.1 -40.4 -162.3 -66.1 -169.75 L-69.5 -224.3 Q-31.2 -246.15 11.1 -247.8 L39.15 -246.75 52.3 -244.8 M83.3 -298.95 Q66.05 -325.85 -0.05 -331.7 -86.6 -318.3 -103.5 -269.3 -120.4 -220.3 -99.0 -153.0 6.75 -96.65 104.85 -159.75 119.4 -229.25 110.0 -250.65 100.55 -272.05 83.3 -298.95" fill="none" stroke="#000000" stroke-linecap="round" stroke-linejoin="round" stroke-width="6.0"/>
      <path d="M52.3 -244.8 L28.6 -160.45 M39.15 -246.75 L13.7 -159.4 M60.7 -243.1 L37.65 -161.6 M11.1 -247.8 L-15.35 -160.1" fill="none" stroke="#ffffff" stroke-linecap="round" stroke-linejoin="round" stroke-opacity="0.0" stroke-width="6.0"/>
    </g>
  </defs>
</svg>
