<?xml version="1.0" encoding="UTF-8" standalone="no"?>
<svg xmlns:xlink="http://www.w3.org/1999/xlink" height="434.9px" width="399.95px" xmlns="http://www.w3.org/2000/svg">
  <g transform="matrix(1, 0, 0, 1, 210.75, 443.1)">
    <use height="87.35" transform="matrix(1.0, 0.0, 0.0, 1.0, -101.35, -339.25)" width="207.55" xlink:href="#shape0"/>
  </g>
  <defs>
    <g id="shape0" transform="matrix(1, 0, 0, 1, 101.35, 339.25)">
      <path d="M13.6 -330.05 L19.25 -336.75 26.75 -329.3 Q58.85 -296.6 71.35 -268.65 62.85 -264.2 51.0 -269.3 49.05 -279.65 45.0 -282.5 40.95 -285.35 36.0 -282.4 30.95 -279.45 27.6 -276.5 L26.0 -274.65 25.9 -274.55 Q14.75 -263.5 2.8 -271.85 L2.6 -272.4 Q1.75 -274.55 -1.8 -279.7 -5.4 -284.85 -10.35 -284.7 -15.35 -284.6 -17.35 -278.75 -19.3 -272.95 -19.15 -268.8 -25.0 -265.35 -31.25 -265.5 -17.0 -293.2 13.6 -330.05" fill="#ffffff" fill-rule="evenodd" stroke="none"/>
      <path d="M-69.55 -261.0 L-70.05 -260.25 Q-71.15 -258.8 -74.6 -257.15 -78.1 -255.5 -85.15 -254.55 -92.15 -253.65 -94.0 -257.55 -95.85 -261.45 -94.35 -264.65 L-95.4 -269.15 -95.4 -269.1 Q-102.55 -285.25 -94.85 -297.3 -87.1 -309.35 -72.5 -316.25 -57.95 -323.15 -37.75 -326.65 -18.55 -330.0 2.9 -330.15 L13.6 -330.05 Q-17.0 -293.2 -31.25 -265.5 -25.0 -265.35 -19.15 -268.8 L-19.05 -267.3 -18.95 -266.95 Q-18.3 -263.1 -22.25 -260.65 -25.8 -258.45 -31.25 -258.25 -36.7 -258.1 -40.15 -260.15 -44.1 -262.45 -43.35 -266.45 -43.15 -267.75 -43.3 -268.9 -43.55 -270.4 -44.45 -271.75 L-47.55 -276.05 Q-49.9 -279.2 -57.7 -281.35 -65.5 -283.5 -69.35 -275.2 -73.15 -266.9 -71.1 -264.9 -69.05 -262.9 -69.1 -262.4 -69.25 -261.65 -69.55 -261.0 M26.75 -329.3 L43.4 -327.3 Q63.3 -324.15 77.45 -317.75 91.6 -311.3 99.8 -300.85 108.0 -290.4 98.9 -271.45 L98.85 -271.5 Q99.35 -264.3 94.0 -260.75 L88.35 -268.6 Q89.6 -269.25 87.95 -273.5 86.3 -277.8 81.45 -279.05 76.6 -280.3 75.35 -275.85 L73.8 -270.2 Q73.5 -268.85 73.95 -267.2 74.35 -265.8 73.7 -264.55 73.05 -263.4 71.55 -262.35 68.55 -260.3 64.05 -259.95 59.25 -259.6 55.75 -261.4 L54.55 -262.15 53.0 -263.5 Q51.35 -265.4 50.85 -268.1 L51.0 -269.3 Q62.85 -264.2 71.35 -268.65 L73.8 -270.2 71.35 -268.65 Q58.85 -296.6 26.75 -329.3 M25.9 -274.55 Q24.15 -271.6 25.55 -267.35 26.7 -263.75 23.45 -261.3 20.6 -259.15 15.75 -258.95 10.8 -258.8 7.3 -260.9 3.35 -263.25 3.15 -267.6 3.35 -269.95 2.8 -271.85 14.75 -263.5 25.9 -274.55 M-95.4 -269.1 Q-84.2 -260.45 -69.1 -262.4 -84.2 -260.45 -95.4 -269.1 M88.35 -268.6 Q95.0 -267.15 98.85 -271.5 95.0 -267.15 88.35 -268.6 M-43.3 -268.9 Q-37.15 -265.65 -31.25 -265.5 -37.15 -265.65 -43.3 -268.9" fill="#b4e1fe" fill-rule="evenodd" stroke="none"/>
      <path d="M94.0 -260.75 Q79.5 -270.55 73.7 -264.55 74.35 -265.8 73.95 -267.2 73.5 -268.85 73.8 -270.2 L75.35 -275.85 Q76.6 -280.3 81.45 -279.05 86.3 -277.8 87.95 -273.5 89.6 -269.25 88.35 -268.6 L94.0 -260.75 M53.0 -263.5 Q43.2 -271.8 26.0 -274.65 L27.6 -276.5 Q30.95 -279.45 36.0 -282.4 40.95 -285.35 45.0 -282.5 49.05 -279.65 51.0 -269.3 L50.85 -268.1 Q51.35 -265.4 53.0 -263.5 M1.55 -272.75 Q-7.3 -275.0 -19.05 -267.3 L-19.15 -268.8 Q-19.3 -272.95 -17.35 -278.75 -15.35 -284.6 -10.35 -284.7 -5.4 -284.85 -1.8 -279.7 1.75 -274.55 2.6 -272.4 L1.55 -272.75 M-44.45 -271.75 Q-60.2 -272.95 -68.45 -262.45 L-69.1 -262.4 Q-69.05 -262.9 -71.1 -264.9 -73.15 -266.9 -69.35 -275.2 -65.5 -283.5 -57.7 -281.35 -49.9 -279.2 -47.55 -276.05 L-44.45 -271.75" fill="#79c9fd" fill-rule="evenodd" stroke="none"/>
      <path d="M-69.55 -261.0 L-70.05 -260.25 Q-71.15 -258.8 -74.6 -257.15 -78.1 -255.5 -85.15 -254.55 -92.15 -253.65 -94.0 -257.55 -95.85 -261.45 -94.35 -264.65 L-95.4 -269.15 -95.4 -269.1 Q-102.55 -285.25 -94.85 -297.3 -87.1 -309.35 -72.5 -316.25 -57.95 -323.15 -37.75 -326.65 -18.55 -330.0 2.9 -330.15 L13.6 -330.05 19.25 -336.75 26.75 -329.3 43.4 -327.3 Q63.3 -324.15 77.45 -317.75 91.6 -311.3 99.8 -300.85 108.0 -290.4 98.9 -271.45 L98.85 -271.5 Q99.35 -264.3 94.0 -260.75 79.5 -270.55 73.7 -264.55 73.05 -263.4 71.55 -262.35 68.55 -260.3 64.05 -259.95 59.25 -259.6 55.75 -261.4 L54.55 -262.15 53.0 -263.5 Q43.2 -271.8 26.0 -274.65 L25.9 -274.55 Q24.15 -271.6 25.55 -267.35 26.7 -263.75 23.45 -261.3 20.6 -259.15 15.75 -258.95 10.8 -258.8 7.3 -260.9 3.35 -263.25 3.15 -267.6 3.35 -269.95 2.8 -271.85 L1.55 -272.75 Q-7.3 -275.0 -19.05 -267.3 L-18.95 -266.95 Q-18.3 -263.1 -22.25 -260.65 -25.8 -258.45 -31.25 -258.25 -36.7 -258.1 -40.15 -260.15 -44.1 -262.45 -43.35 -266.45 -43.15 -267.75 -43.3 -268.9 -43.55 -270.4 -44.45 -271.75 -60.2 -272.95 -68.45 -262.45 L-69.55 -261.0 Q-69.25 -261.65 -69.1 -262.4 -84.2 -260.45 -95.4 -269.1 M53.0 -263.5 Q51.35 -265.4 50.85 -268.1 L51.0 -269.3 Q49.05 -279.65 45.0 -282.5 40.95 -285.35 36.0 -282.4 30.95 -279.45 27.6 -276.5 L26.0 -274.65 M94.0 -260.75 L88.35 -268.6 Q89.6 -269.25 87.95 -273.5 86.3 -277.8 81.45 -279.05 76.6 -280.3 75.35 -275.85 L73.8 -270.2 Q73.5 -268.85 73.95 -267.2 74.35 -265.8 73.7 -264.55 M73.8 -270.2 L71.35 -268.65 Q62.85 -264.2 51.0 -269.3 M1.55 -272.75 L2.6 -272.4 Q1.75 -274.55 -1.8 -279.7 -5.4 -284.85 -10.35 -284.7 -15.35 -284.6 -17.35 -278.75 -19.3 -272.95 -19.15 -268.8 L-19.05 -267.3 M25.9 -274.55 Q14.75 -263.5 2.8 -271.85 L2.6 -272.4 M98.85 -271.5 Q95.0 -267.15 88.35 -268.6 M26.75 -329.3 Q58.85 -296.6 71.35 -268.65 M-19.15 -268.8 Q-25.0 -265.35 -31.25 -265.5 -37.15 -265.65 -43.3 -268.9 M-44.45 -271.75 L-47.55 -276.05 Q-49.9 -279.2 -57.7 -281.35 -65.5 -283.5 -69.35 -275.2 -73.15 -266.9 -71.1 -264.9 -69.05 -262.9 -69.1 -262.4 L-68.45 -262.45 M13.6 -330.05 Q-17.0 -293.2 -31.25 -265.5" fill="none" stroke="#000000" stroke-linecap="round" stroke-linejoin="round" stroke-width="5.0"/>
      <path d="M19.95 -309.35 Q16.65 -303.25 21.95 -301.7 27.25 -300.1 30.45 -306.75 33.65 -313.35 23.0 -318.05 12.35 -322.7 6.95 -308.05 1.5 -293.35 19.1 -289.15 30.75 -288.75 34.2 -290.65 37.65 -292.5 38.8 -291.85 L41.1 -290.45" fill="none" stroke="#ff1111" stroke-linecap="round" stroke-linejoin="round" stroke-width="6.0"/>
    </g>
  </defs>
</svg>
