<?xml version="1.0" encoding="UTF-8" standalone="no"?>
<svg xmlns:xlink="http://www.w3.org/1999/xlink" height="434.9px" width="399.95px" xmlns="http://www.w3.org/2000/svg">
  <g transform="matrix(1, 0, 0, 1, 210.75, 443.1)">
    <use height="105.45" transform="matrix(1.0, 0.0, 0.0, 1.0, -129.7, -348.45)" width="262.95" xlink:href="#shape0"/>
  </g>
  <defs>
    <g id="shape0" transform="matrix(1, 0, 0, 1, 129.7, 348.45)">
      <path d="M91.9 -305.65 L106.0 -306.3 Q108.65 -291.95 105.25 -281.0 L130.75 -271.25 103.85 -247.1 93.3 -263.25 Q61.9 -269.75 25.45 -269.6 9.85 -266.45 0.2 -271.0 -46.75 -274.45 -87.95 -255.45 L-97.95 -245.5 -127.2 -264.0 -103.0 -277.55 Q-106.9 -288.85 -105.45 -302.35 L-88.0 -301.8 Q-43.35 -299.8 -3.55 -281.8 -2.2 -297.3 -1.3 -298.8 17.35 -305.35 28.75 -297.25 L28.5 -281.05 Q59.95 -303.3 91.9 -305.65 M93.3 -263.25 Q102.0 -270.6 105.25 -281.0 102.0 -270.6 93.3 -263.25 M25.45 -269.6 L28.5 -281.05 25.45 -269.6 M-87.95 -255.45 Q-98.7 -265.1 -103.0 -277.55 -98.7 -265.1 -87.95 -255.45 M0.2 -271.0 Q-3.7 -280.25 -3.55 -281.8 -3.7 -280.25 0.2 -271.0" fill="#8dc5fa" fill-rule="evenodd" stroke="none"/>
      <path d="M-88.0 -301.8 Q-47.7 -359.3 15.0 -341.9 63.4 -344.25 91.9 -305.65 59.95 -303.3 28.5 -281.05 L28.75 -297.25 Q17.35 -305.35 -1.3 -298.8 -2.2 -297.3 -3.55 -281.8 -43.35 -299.8 -88.0 -301.8" fill="#ddeeff" fill-rule="evenodd" stroke="none"/>
      <path d="M91.9 -305.65 L106.0 -306.3 Q108.65 -291.95 105.25 -281.0 L130.75 -271.25 103.85 -247.1 93.3 -263.25 Q61.9 -269.75 25.45 -269.6 9.85 -266.45 0.2 -271.0 -46.75 -274.45 -87.95 -255.45 L-97.95 -245.5 -127.2 -264.0 -103.0 -277.55 Q-106.9 -288.85 -105.45 -302.35 L-88.0 -301.8 Q-47.7 -359.3 15.0 -341.9 63.4 -344.25 91.9 -305.65 59.95 -303.3 28.5 -281.05 L25.45 -269.6 M105.25 -281.0 Q102.0 -270.6 93.3 -263.25 M28.5 -281.05 L28.75 -297.25 Q17.35 -305.35 -1.3 -298.8 -2.2 -297.3 -3.55 -281.8 -3.7 -280.25 0.2 -271.0 M-103.0 -277.55 Q-98.7 -265.1 -87.95 -255.45 M-3.55 -281.8 Q-43.35 -299.8 -88.0 -301.8" fill="none" stroke="#000000" stroke-linecap="round" stroke-linejoin="round" stroke-width="5.0"/>
    </g>
  </defs>
</svg>
