<?xml version="1.0" encoding="UTF-8" standalone="no"?>
<svg xmlns:xlink="http://www.w3.org/1999/xlink" height="434.9px" width="399.95px" xmlns="http://www.w3.org/2000/svg">
  <g transform="matrix(1, 0, 0, 1, 210.75, 443.1)">
    <use height="112.25" transform="matrix(1.0, 0.0, 0.0, 1.0, -174.45, -373.25)" width="354.85" xlink:href="#shape0"/>
  </g>
  <defs>
    <g id="shape0" transform="matrix(1, 0, 0, 1, 174.45, 373.25)">
      <path d="M69.75 -297.5 Q19.4 -322.45 -1.65 -318.5 -2.15 -319.7 -3.25 -319.1 -4.4 -318.55 -7.65 -318.45 -10.9 -318.3 -11.95 -318.95 -57.85 -314.55 -81.95 -280.95 -79.05 -292.45 -91.7 -299.25 -88.55 -309.65 -94.6 -310.25 -96.2 -310.45 -97.55 -311.1 -101.25 -312.9 -102.9 -318.45 -105.2 -326.0 -112.9 -328.45 -77.8 -342.2 -13.9 -324.2 -13.9 -327.0 -11.9 -327.7 L-7.15 -328.95 Q-4.35 -329.5 -2.7 -328.55 -1.05 -327.65 -0.6 -325.9 L-0.6 -325.95 Q45.9 -351.85 78.6 -350.45 66.9 -339.7 67.8 -333.35 L69.3 -323.75 Q69.85 -320.5 69.7 -319.45 69.5 -318.45 64.65 -315.65 L64.65 -315.6 Q63.65 -310.8 69.75 -297.5 M-13.9 -324.2 Q-13.9 -321.4 -11.95 -318.95 -13.9 -321.4 -13.9 -324.2 M-0.6 -325.9 L-0.6 -325.85 -0.7 -324.2 Q-0.95 -321.45 -1.65 -318.5 -0.95 -321.45 -0.7 -324.2 L-0.6 -325.85 -0.6 -325.9" fill="#fd3535" fill-rule="evenodd" stroke="none"/>
      <path d="M69.75 -297.5 Q19.4 -322.45 -1.65 -318.5 -2.15 -319.7 -3.25 -319.1 -4.4 -318.55 -7.65 -318.45 -10.9 -318.3 -11.95 -318.95 -57.85 -314.55 -81.95 -280.95 -79.05 -292.45 -91.7 -299.25 -88.55 -309.65 -94.6 -310.25 -96.2 -310.45 -97.55 -311.1 -101.25 -312.9 -102.9 -318.45 -105.2 -326.0 -112.9 -328.45 -77.8 -342.2 -13.9 -324.2 -13.9 -327.0 -11.9 -327.7 L-7.15 -328.95 Q-4.35 -329.5 -2.7 -328.55 -1.05 -327.65 -0.6 -325.9 L-0.6 -325.95 Q45.9 -351.85 78.6 -350.45 66.9 -339.7 67.8 -333.35 L69.3 -323.75 Q69.85 -320.5 69.7 -319.45 69.5 -318.45 64.65 -315.65 L64.65 -315.6 Q63.65 -310.8 69.75 -297.5 M-1.65 -318.5 Q-0.95 -321.45 -0.7 -324.2 L-0.6 -325.85 -0.6 -325.9 M-11.95 -318.95 Q-13.9 -321.4 -13.9 -324.2" fill="none" stroke="#000000" stroke-linecap="round" stroke-linejoin="round" stroke-width="5.0"/>
      <path d="M177.7 -357.85 L165.9 -357.5 Q153.05 -356.0 144.0 -332.7 L143.9 -332.45 142.4 -328.7 Q134.45 -309.1 130.85 -304.95 127.25 -300.8 123.8 -298.6 120.3 -296.35 119.0 -295.75 L112.55 -292.05 Q107.45 -288.85 103.9 -287.45 100.35 -286.1 99.5 -285.3 L97.35 -283.4 Q91.0 -277.45 85.25 -269.25 L83.9 -273.5 Q82.85 -276.05 81.5 -278.25 77.95 -284.05 72.1 -287.8 77.7 -294.9 85.3 -299.8 88.2 -301.7 97.65 -306.9 L99.4 -307.85 101.4 -308.95 Q108.65 -313.1 112.6 -316.2 117.25 -319.95 119.9 -324.15 L121.6 -327.2 121.7 -327.35 121.75 -327.5 Q133.3 -353.45 150.95 -360.55 168.0 -367.45 177.7 -357.85 M-118.25 -295.65 L-125.9 -301.0 Q-130.15 -304.2 -137.55 -324.0 -127.25 -317.75 -115.15 -318.85 -112.65 -314.6 -108.05 -310.7 -104.25 -307.5 -97.1 -303.15 -106.2 -297.95 -118.25 -295.65 M-138.85 -327.8 L-139.0 -328.05 Q-147.45 -351.65 -160.2 -353.45 -172.95 -355.3 -172.45 -357.75 -162.75 -363.75 -145.2 -356.1 -127.8 -348.55 -116.9 -322.25 -127.9 -322.55 -138.85 -327.8 M-93.4 -301.0 Q-84.05 -295.55 -81.2 -293.6 -73.8 -288.45 -68.35 -281.2 -74.35 -277.65 -78.0 -271.95 -82.1 -283.6 -97.65 -281.1 -102.4 -285.1 -110.55 -290.45 L-114.1 -292.8 Q-101.25 -295.1 -93.4 -301.0 M-80.5 -267.2 L-82.0 -263.0 Q-87.55 -271.4 -93.7 -277.45 -84.25 -279.55 -80.5 -267.2" fill="#ebd094" fill-rule="evenodd" stroke="none"/>
      <path d="M-137.55 -324.0 L-138.85 -327.8 Q-127.9 -322.55 -116.9 -322.25 L-116.85 -322.1 -116.75 -321.95 -116.7 -321.95 -115.15 -318.85 Q-127.25 -317.75 -137.55 -324.0 M-97.1 -303.15 L-95.1 -302.0 -93.4 -301.0 Q-101.25 -295.1 -114.1 -292.8 L-118.25 -295.65 Q-106.2 -297.95 -97.1 -303.15 M-78.0 -271.95 Q-79.45 -269.75 -80.5 -267.2 -84.25 -279.55 -93.7 -277.45 L-95.8 -279.5 -97.65 -281.1 Q-82.1 -283.6 -78.0 -271.95" fill="#fff7f7" fill-rule="evenodd" stroke="none"/>
      <path d="M177.7 -357.85 L165.9 -357.5 Q153.05 -356.0 144.0 -332.7 L143.9 -332.45 142.4 -328.7 Q134.45 -309.1 130.85 -304.95 127.25 -300.8 123.8 -298.6 120.3 -296.35 119.0 -295.75 L112.55 -292.05 Q107.45 -288.85 103.9 -287.45 100.35 -286.1 99.5 -285.3 L97.35 -283.4 Q91.0 -277.45 85.25 -269.25 L83.9 -273.5 Q82.85 -276.05 81.5 -278.25 77.95 -284.05 72.1 -287.8 77.7 -294.9 85.3 -299.8 88.2 -301.7 97.65 -306.9 L99.4 -307.85 101.4 -308.95 Q108.65 -313.1 112.6 -316.2 117.25 -319.95 119.9 -324.15 L121.6 -327.2 121.7 -327.35 M121.75 -327.5 Q133.3 -353.45 150.95 -360.55 168.0 -367.45 177.7 -357.85 178.5 -357.6 178.4 -357.1 M-118.25 -295.65 L-125.9 -301.0 Q-130.15 -304.2 -137.55 -324.0 L-138.85 -327.8 -139.0 -328.05 Q-147.45 -351.65 -160.2 -353.45 -172.95 -355.3 -172.45 -357.75 -162.75 -363.75 -145.2 -356.1 -127.8 -348.55 -116.9 -322.25 M-116.85 -322.1 L-116.75 -321.95 -116.7 -321.95 -115.15 -318.85 Q-112.65 -314.6 -108.05 -310.7 -104.25 -307.5 -97.1 -303.15 L-95.1 -302.0 -93.4 -301.0 Q-84.05 -295.55 -81.2 -293.6 -73.8 -288.45 -68.35 -281.2 -74.35 -277.65 -78.0 -271.95 -79.45 -269.75 -80.5 -267.2 L-82.0 -263.0 Q-87.55 -271.4 -93.7 -277.45 L-95.8 -279.5 -97.65 -281.1 Q-102.4 -285.1 -110.55 -290.45 L-114.1 -292.8 -118.25 -295.65" fill="none" stroke="#000000" stroke-linecap="round" stroke-linejoin="round" stroke-width="4.0"/>
      <path d="M-116.9 -322.25 L-116.85 -322.1 M-118.25 -295.65 Q-106.2 -297.95 -97.1 -303.15 M-137.55 -324.0 Q-127.25 -317.75 -115.15 -318.85 M-116.9 -322.25 Q-127.9 -322.55 -138.85 -327.8 M-78.0 -271.95 Q-82.1 -283.6 -97.65 -281.1 M-93.7 -277.45 Q-84.25 -279.55 -80.5 -267.2 M-114.1 -292.8 Q-101.25 -295.1 -93.4 -301.0" fill="none" stroke="#000000" stroke-linecap="round" stroke-linejoin="round" stroke-width="2.0"/>
      <path d="M124.7 -333.7 L92.6 -340.3 Q92.1 -361.35 107.5 -359.25 122.9 -357.15 127.45 -371.75 L127.5 -338.5 124.7 -333.7 127.5 -338.5 Q131.7 -328.3 141.6 -326.75 L138.9 -320.35 Q126.25 -326.05 124.7 -333.7" fill="#8000ff" fill-rule="evenodd" stroke="none"/>
      <path d="M127.5 -338.5 L127.45 -371.75 Q122.9 -357.15 107.5 -359.25 92.1 -361.35 92.6 -340.3 L124.7 -333.7 127.5 -338.5 Q131.7 -328.3 141.6 -326.75 L138.9 -320.35 Q126.25 -326.05 124.7 -333.7" fill="none" stroke="#000000" stroke-linecap="round" stroke-linejoin="round" stroke-width="3.0"/>
    </g>
  </defs>
</svg>
