<?xml version="1.0" encoding="UTF-8" standalone="no"?>
<svg xmlns:xlink="http://www.w3.org/1999/xlink" height="434.9px" width="399.95px" xmlns="http://www.w3.org/2000/svg">
  <g transform="matrix(1, 0, 0, 1, 210.75, 443.1)">
    <use height="95.1" transform="matrix(1.0, 0.0, 0.0, 1.0, -106.3, -341.85)" width="228.95" xlink:href="#shape0"/>
  </g>
  <defs>
    <g id="shape0" transform="matrix(1, 0, 0, 1, 106.3, 341.85)">
      <path d="M36.1 -337.9 Q50.55 -335.0 64.2 -328.7 77.8 -322.45 83.05 -313.0 88.3 -303.6 81.8 -286.85 119.1 -276.8 120.15 -261.95 105.05 -261.0 98.05 -257.65 91.05 -254.35 68.55 -250.75 46.05 -247.15 29.65 -252.2 13.25 -257.25 -28.65 -253.8 -70.6 -250.4 -77.05 -261.4 L-85.8 -256.15 Q-92.75 -261.2 -97.0 -266.4 -113.75 -287.0 -89.15 -311.15 -58.4 -341.5 12.2 -337.9 21.65 -340.8 36.1 -337.9 M-2.25 -329.15 Q4.6 -334.6 12.2 -337.9 4.6 -334.6 -2.25 -329.15 M-77.05 -261.4 Q-61.15 -271.15 -53.0 -274.1 -28.65 -282.9 -2.45 -279.6 41.8 -274.05 81.8 -286.85 41.8 -274.05 -2.45 -279.6 -28.65 -282.9 -53.0 -274.1 -61.15 -271.15 -77.05 -261.4" fill="#52b966" fill-rule="evenodd" stroke="none"/>
      <path d="M36.1 -337.9 Q50.55 -335.0 64.2 -328.7 77.8 -322.45 83.05 -313.0 88.3 -303.6 81.8 -286.85 119.1 -276.8 120.15 -261.95 105.05 -261.0 98.05 -257.65 91.05 -254.35 68.55 -250.75 46.05 -247.15 29.65 -252.2 13.25 -257.25 -28.65 -253.8 -70.6 -250.4 -77.05 -261.4 L-85.8 -256.15 Q-92.75 -261.2 -97.0 -266.4 -113.75 -287.0 -89.15 -311.15 -58.4 -341.5 12.2 -337.9 21.65 -340.8 36.1 -337.9 M81.8 -286.85 Q41.8 -274.05 -2.45 -279.6 -28.65 -282.9 -53.0 -274.1 -61.15 -271.15 -77.05 -261.4 M12.2 -337.9 Q4.6 -334.6 -2.25 -329.15" fill="none" stroke="#000000" stroke-linecap="round" stroke-linejoin="round" stroke-width="5.0"/>
      <path d="M2.55 -309.9 Q3.4 -310.65 7.7 -311.05 12.0 -311.45 15.65 -301.75 19.25 -292.0 21.1 -291.05 L22.95 -291.3 Q24.05 -291.55 27.35 -297.15 30.6 -302.8 22.7 -307.2 14.75 -311.6 14.5 -320.6 14.3 -324.85 23.05 -328.75 33.1 -331.45 38.2 -323.7 43.25 -316.0 42.8 -314.8 42.35 -313.6 41.2 -313.05 L37.55 -312.55 Q35.05 -312.6 32.85 -317.5 30.6 -322.4 24.6 -321.25 L24.55 -321.2 Q22.0 -320.5 21.65 -319.8 22.25 -317.6 27.1 -313.75 L27.05 -313.75 Q34.4 -308.3 35.8 -302.45 37.15 -296.6 30.55 -289.85 L30.5 -289.85 Q24.2 -283.45 19.5 -285.1 14.65 -285.95 12.9 -297.15 11.2 -307.65 2.55 -309.9" fill="#ffffff" fill-rule="evenodd" stroke="none"/>
    </g>
  </defs>
</svg>
