<?xml version="1.0" encoding="UTF-8" standalone="no"?>
<svg xmlns:xlink="http://www.w3.org/1999/xlink" height="434.9px" width="399.95px" xmlns="http://www.w3.org/2000/svg">
  <g transform="matrix(1, 0, 0, 1, 210.75, 443.1)">
    <use height="73.3" transform="matrix(1.0, 0.0, 0.0, 1.0, -12.6, -338.55)" width="110.2" xlink:href="#shape0"/>
  </g>
  <defs>
    <g id="shape0" transform="matrix(1, 0, 0, 1, 12.6, 338.55)">
      <path d="M62.35 -304.3 Q64.65 -312.35 72.7 -321.65 71.75 -314.0 73.05 -306.7 74.0 -303.7 73.25 -300.8 79.95 -304.85 86.8 -304.85 91.65 -304.3 96.1 -306.55 92.65 -299.35 86.4 -292.1 83.65 -289.15 78.9 -288.0 L79.35 -287.95 Q85.55 -286.8 95.15 -274.55 90.45 -277.3 85.35 -276.4 78.7 -275.65 71.5 -279.4 72.7 -274.15 69.1 -266.75 59.9 -280.65 63.6 -288.65 60.25 -288.4 56.6 -291.1 55.25 -294.15 53.8 -295.75 L54.2 -296.05 53.3 -297.05 Q57.15 -297.7 61.5 -300.4 L61.55 -300.35 61.55 -300.45 Q64.2 -302.1 67.05 -304.55 L62.35 -304.3 M53.45 -306.25 L55.9 -305.05 52.75 -304.95 53.45 -306.25" fill="#f19941" fill-rule="evenodd" stroke="none"/>
      <path d="M39.4 -297.75 Q25.35 -294.05 16.95 -299.95 11.8 -292.75 -4.8 -293.75 -0.25 -300.55 4.95 -302.15 -1.95 -306.5 -4.55 -312.65 -6.4 -317.55 -11.1 -320.2 4.3 -318.05 8.4 -313.2 L8.7 -312.9 Q7.3 -317.55 8.5 -321.45 11.6 -330.45 16.2 -337.05 16.4 -332.05 19.35 -328.1 22.75 -322.2 22.65 -314.4 24.75 -316.45 27.85 -317.15 34.75 -319.7 40.95 -324.3 39.6 -320.45 38.05 -317.2 L36.05 -313.35 Q32.5 -307.25 28.1 -304.0 29.7 -303.95 31.75 -303.1 35.25 -301.7 39.95 -297.9 L39.4 -297.75" fill="#ff4444" fill-rule="evenodd" stroke="none"/>
      <path d="M62.35 -304.3 L67.05 -304.55 Q64.2 -302.1 61.55 -300.45 L61.5 -300.4 Q57.15 -297.7 53.3 -297.05 L52.45 -296.9 53.8 -295.75 Q55.25 -294.15 56.6 -291.1 L57.4 -289.2 Q47.45 -291.85 44.4 -298.35 42.2 -297.35 39.4 -297.75 L39.95 -297.9 Q35.25 -301.7 31.75 -303.1 35.3 -304.4 38.05 -303.75 35.45 -308.7 36.05 -313.25 L36.05 -313.35 38.05 -317.2 Q43.3 -312.45 43.9 -309.15 L43.95 -308.85 Q44.75 -312.1 46.8 -314.0 51.7 -318.3 56.7 -320.65 55.1 -317.6 55.5 -314.25 55.5 -310.25 53.45 -306.25 L52.75 -304.95 55.9 -305.05 56.8 -304.8 62.35 -304.3" fill="#e30202" fill-rule="evenodd" stroke="none"/>
      <path d="M56.6 -291.1 Q60.25 -288.4 63.6 -288.65 59.9 -280.65 69.1 -266.75 72.7 -274.15 71.5 -279.4 78.7 -275.65 85.35 -276.4 90.45 -277.3 95.15 -274.55 85.55 -286.8 79.35 -287.95 L78.9 -288.0 Q83.65 -289.15 86.4 -292.1 92.65 -299.35 96.1 -306.55 91.65 -304.3 86.8 -304.85 79.95 -304.85 73.25 -300.8 74.0 -303.7 73.05 -306.7 71.75 -314.0 72.7 -321.65 64.65 -312.35 62.35 -304.3 L67.05 -304.55 Q64.2 -302.1 61.55 -300.45 L61.55 -300.35 61.5 -300.4 Q57.15 -297.7 53.3 -297.05 L54.2 -296.05 53.8 -295.75 Q55.25 -294.15 56.6 -291.1 L57.4 -289.2 Q47.45 -291.85 44.4 -298.35 42.2 -297.35 39.4 -297.75 25.35 -294.05 16.95 -299.95 11.8 -292.75 -4.8 -293.75 -0.25 -300.55 4.95 -302.15 -1.95 -306.5 -4.55 -312.65 -6.4 -317.55 -11.1 -320.2 4.3 -318.05 8.4 -313.2 L8.7 -312.9 Q7.3 -317.55 8.5 -321.45 11.6 -330.45 16.2 -337.05 16.4 -332.05 19.35 -328.1 22.75 -322.2 22.65 -314.4 24.75 -316.45 27.85 -317.15 34.75 -319.7 40.95 -324.3 39.6 -320.45 38.05 -317.2 43.3 -312.45 43.9 -309.15 L43.95 -308.85 Q44.75 -312.1 46.8 -314.0 51.7 -318.3 56.7 -320.65 55.1 -317.6 55.5 -314.25 55.5 -310.25 53.45 -306.25 L55.9 -305.05 56.8 -304.8 62.35 -304.3 M38.05 -317.2 L36.05 -313.35 36.05 -313.25 Q35.45 -308.7 38.05 -303.75 35.3 -304.4 31.75 -303.1 35.25 -301.7 39.95 -297.9 L39.4 -297.75 M36.05 -313.35 Q32.5 -307.25 28.1 -304.0 29.7 -303.95 31.75 -303.1 M55.9 -305.05 L52.75 -304.95 53.45 -306.25 M61.55 -300.45 L61.5 -300.4 M53.3 -297.05 L52.45 -296.9 53.8 -295.75" fill="none" stroke="#000000" stroke-linecap="round" stroke-linejoin="round" stroke-width="3.0"/>
    </g>
  </defs>
</svg>
