<?xml version="1.0" encoding="UTF-8" standalone="no"?>
<svg xmlns:xlink="http://www.w3.org/1999/xlink" height="434.9px" width="399.95px" xmlns="http://www.w3.org/2000/svg">
  <g transform="matrix(1, 0, 0, 1, 210.75, 443.1)">
    <use height="163.55" transform="matrix(1.0, 0.0, 0.0, 1.0, -163.25, -374.95)" width="319.7" xlink:href="#shape0"/>
  </g>
  <defs>
    <g id="shape0" transform="matrix(1, 0, 0, 1, 163.25, 374.95)">
      <path d="M-119.1 -223.35 L-114.7 -219.8 Q-122.65 -215.35 -130.35 -213.15 -140.5 -210.3 -148.3 -212.15 L-148.35 -212.15 Q-156.1 -214.05 -159.95 -219.9 -163.95 -225.65 -163.1 -233.45 L-163.1 -233.5 Q-162.25 -241.3 -156.6 -249.1 -145.85 -264.45 -114.3 -274.6 -121.35 -283.1 -121.4 -295.65 -121.4 -296.45 -120.9 -297.1 L-119.65 -298.0 Q-116.0 -299.3 -106.05 -299.55 -107.7 -334.95 -98.6 -372.95 -98.45 -373.8 -97.75 -374.35 -97.1 -374.9 -96.25 -374.9 -29.55 -376.05 18.55 -351.4 L18.75 -351.3 18.8 -351.3 Q42.0 -339.4 61.3 -321.2 71.1 -328.1 88.0 -332.25 L89.4 -332.2 Q90.1 -332.0 90.55 -331.4 91.0 -330.85 91.1 -330.1 93.0 -313.1 92.25 -305.3 130.2 -305.15 145.45 -292.35 152.35 -286.6 155.05 -279.8 L155.05 -279.75 Q157.65 -272.95 155.45 -266.8 L155.5 -266.8 Q153.35 -260.6 146.85 -256.95 L146.8 -256.95 Q140.15 -253.4 130.45 -253.5 L130.4 -253.5 Q115.5 -253.7 96.8 -262.85 L94.6 -268.6 Q114.65 -258.8 130.5 -258.5 138.75 -258.4 144.4 -261.3 L144.45 -261.35 Q149.15 -264.0 150.75 -268.45 152.25 -272.95 150.4 -277.95 L150.35 -278.0 Q148.05 -283.7 142.25 -288.5 131.45 -297.25 108.8 -299.5 L108.5 -298.25 107.05 -295.7 Q117.5 -294.5 127.3 -290.9 L127.25 -290.9 Q145.9 -284.05 143.9 -274.35 142.8 -264.15 122.5 -266.45 L122.45 -266.45 Q109.55 -267.95 95.55 -277.95 94.2 -276.15 92.15 -274.55 L89.7 -278.7 92.95 -282.9 93.15 -283.15 Q96.7 -288.2 100.75 -294.9 L100.9 -295.1 102.55 -297.9 91.65 -300.3 91.35 -300.3 91.3 -300.3 89.6 -300.5 89.55 -300.5 Q81.65 -299.85 74.2 -297.8 L69.35 -301.55 Q78.0 -304.35 87.25 -305.3 87.95 -311.95 86.45 -326.7 71.3 -322.6 62.7 -316.0 L62.5 -315.85 Q58.35 -313.05 54.6 -310.25 L54.4 -310.3 44.55 -308.65 Q50.3 -313.5 57.15 -318.25 39.15 -335.05 17.75 -346.2 13.3 -343.3 9.3 -339.25 -6.0 -323.95 -6.0 -302.35 -6.0 -284.3 4.7 -270.65 L7.1 -271.0 5.75 -266.15 Q0.55 -279.05 -8.1 -284.0 -11.0 -292.6 -11.0 -302.35 -11.0 -326.05 5.75 -342.8 9.05 -346.15 12.65 -348.75 -7.7 -358.6 -31.35 -363.85 L-31.25 -363.8 -8.55 -338.1 Q-8.0 -337.45 -7.95 -336.55 -7.9 -335.7 -8.45 -334.95 -8.95 -334.25 -9.8 -334.0 L-11.45 -334.15 -42.95 -348.25 Q-43.7 -348.6 -44.05 -349.25 -44.5 -349.9 -44.45 -350.65 -44.4 -351.45 -43.95 -352.05 L-35.15 -363.65 -34.1 -364.45 Q-61.9 -370.3 -94.2 -369.9 -102.65 -333.55 -101.05 -299.6 -60.7 -299.75 -33.2 -284.0 L-35.75 -282.6 Q-38.7 -284.3 -43.05 -283.45 -68.25 -295.1 -103.3 -294.6 L-103.4 -294.6 -103.5 -294.6 -116.35 -293.7 Q-115.7 -282.5 -108.15 -275.3 L-108.1 -275.25 -107.95 -275.15 -107.9 -275.1 -107.3 -274.55 -101.6 -275.45 Q-83.25 -278.1 -63.4 -277.85 -62.4 -277.85 -61.65 -277.1 -60.95 -276.35 -60.95 -275.3 -60.95 -274.3 -61.7 -273.55 -62.45 -272.85 -63.45 -272.85 -82.95 -273.1 -100.9 -270.5 L-107.3 -269.5 -107.6 -269.4 -107.65 -269.4 -107.8 -269.4 Q-112.0 -268.65 -121.05 -265.85 L-119.35 -260.3 -119.3 -260.2 Q-115.55 -250.8 -107.15 -245.5 L-107.05 -245.45 -106.85 -245.35 -98.4 -240.85 Q-98.95 -240.85 -99.4 -241.2 L-99.45 -241.2 -99.5 -241.2 -99.5 -240.75 -99.95 -240.5 Q-101.1 -239.95 -104.35 -239.1 -107.6 -238.3 -114.2 -241.0 L-112.15 -242.9 Q-119.15 -248.05 -122.9 -256.0 -130.05 -252.55 -136.0 -247.85 -148.75 -238.0 -146.6 -232.45 L-146.6 -232.4 Q-143.7 -227.55 -127.95 -233.0 L-124.6 -234.15 -123.25 -229.65 Q-125.15 -228.7 -126.3 -228.3 -147.25 -221.05 -151.1 -230.25 -155.9 -238.8 -139.05 -251.8 L-139.1 -251.8 Q-132.6 -256.9 -124.75 -260.65 L-125.95 -264.95 Q-144.8 -256.9 -152.55 -246.2 -157.35 -239.5 -158.15 -232.9 -158.75 -227.05 -155.8 -222.7 -152.9 -218.45 -147.15 -217.0 -140.4 -215.5 -131.7 -217.95 -125.75 -219.7 -119.1 -223.35 M125.55 -286.2 Q115.3 -289.95 104.25 -290.95 L98.45 -282.0 Q111.25 -272.85 123.05 -271.4 137.55 -269.75 138.95 -275.15 139.35 -281.15 125.55 -286.2 M-49.4 -317.8 L-50.45 -309.5 -30.7 -311.55 -49.4 -317.8 M-33.0 -358.2 L-38.05 -351.55 -19.95 -343.45 -33.0 -358.2 M-54.5 -304.5 L-55.5 -305.55 Q-55.85 -306.25 -55.75 -307.0 L-53.95 -321.45 Q-53.9 -322.2 -53.35 -322.75 -52.9 -323.35 -52.15 -323.55 L-50.7 -323.5 -18.15 -312.6 Q-17.3 -312.35 -16.85 -311.6 -16.35 -310.85 -16.45 -309.95 -16.55 -309.1 -17.2 -308.45 -17.8 -307.85 -18.7 -307.75 L-53.05 -304.2 -54.5 -304.5 M-11.15 -285.4 Q-14.95 -286.9 -19.35 -287.0 L-13.95 -289.4 -12.3 -289.55 Q-11.5 -289.35 -10.95 -288.6 -10.4 -287.9 -10.45 -287.05 -10.5 -286.15 -11.05 -285.5 L-11.15 -285.4" fill="#000000" fill-rule="evenodd" stroke="none"/>
      <path d="M-98.4 -240.85 L-106.85 -245.35 -107.05 -245.45 -107.15 -245.5 Q-115.55 -250.8 -119.3 -260.2 L-119.35 -260.3 -121.05 -265.85 Q-112.0 -268.65 -107.8 -269.4 L-107.65 -269.4 -107.6 -269.4 -107.3 -269.5 -100.9 -270.5 Q-82.95 -273.1 -63.45 -272.85 -62.45 -272.85 -61.7 -273.55 -60.95 -274.3 -60.95 -275.3 -60.95 -276.35 -61.65 -277.1 -62.4 -277.85 -63.4 -277.85 -83.25 -278.1 -101.6 -275.45 L-107.3 -274.55 -107.9 -275.1 -107.95 -275.15 -108.1 -275.25 -108.15 -275.3 Q-115.7 -282.5 -116.35 -293.7 L-103.5 -294.6 -103.4 -294.6 -103.3 -294.6 Q-68.25 -295.1 -43.05 -283.45 -46.8 -282.7 -51.55 -280.1 -61.95 -274.5 -64.05 -267.3 -78.85 -267.35 -83.35 -260.6 -85.8 -256.2 -87.8 -253.05 -91.5 -247.1 -93.95 -244.3 -96.45 -241.55 -97.55 -241.05 L-98.4 -240.85 M54.6 -310.25 Q58.35 -313.05 62.5 -315.85 L62.7 -316.0 Q71.3 -322.6 86.45 -326.7 87.95 -311.95 87.25 -305.3 78.0 -304.35 69.35 -301.55 62.55 -306.5 54.6 -310.25 M74.2 -297.8 Q81.65 -299.85 89.55 -300.5 L89.6 -300.5 91.3 -300.3 91.35 -300.3 91.65 -300.3 102.55 -297.9 100.9 -295.1 100.75 -294.9 Q96.7 -288.2 93.15 -283.15 L92.95 -282.9 89.7 -278.7 Q87.75 -283.05 84.1 -287.95 79.55 -293.3 74.2 -297.8" fill="#ffffff" fill-rule="evenodd" stroke="none"/>
      <path d="M-119.1 -223.35 Q-125.75 -219.7 -131.7 -217.95 -140.4 -215.5 -147.15 -217.0 -152.9 -218.45 -155.8 -222.7 -158.75 -227.05 -158.15 -232.9 -157.35 -239.5 -152.55 -246.2 -144.8 -256.9 -125.95 -264.95 L-124.75 -260.65 Q-132.6 -256.9 -139.1 -251.8 L-139.05 -251.8 Q-155.9 -238.8 -151.1 -230.25 -147.25 -221.05 -126.3 -228.3 -125.15 -228.7 -123.25 -229.65 -123.05 -228.1 -122.05 -226.4 -121.1 -224.75 -119.1 -223.35 M-33.2 -284.0 Q-60.7 -299.75 -101.05 -299.6 -102.65 -333.55 -94.2 -369.9 -61.9 -370.3 -34.1 -364.45 L-35.15 -363.65 -43.95 -352.05 Q-44.4 -351.45 -44.45 -350.65 -44.5 -349.9 -44.05 -349.25 -43.7 -348.6 -42.95 -348.25 L-11.45 -334.15 -9.8 -334.0 Q-8.95 -334.25 -8.45 -334.95 -7.9 -335.7 -7.95 -336.55 -8.0 -337.45 -8.55 -338.1 L-31.25 -363.8 -31.35 -363.85 Q-7.7 -358.6 12.65 -348.75 9.05 -346.15 5.75 -342.8 -11.0 -326.05 -11.0 -302.35 -11.0 -292.6 -8.1 -284.0 L-11.15 -285.4 -11.05 -285.5 Q-10.5 -286.15 -10.45 -287.05 -10.4 -287.9 -10.95 -288.6 -11.5 -289.35 -12.3 -289.55 L-13.95 -289.4 -19.35 -287.0 -26.0 -286.5 Q-30.55 -285.25 -33.2 -284.0 M92.15 -274.55 Q94.2 -276.15 95.55 -277.95 109.55 -267.95 122.45 -266.45 L122.5 -266.45 Q142.8 -264.15 143.9 -274.35 145.9 -284.05 127.25 -290.9 L127.3 -290.9 Q117.5 -294.5 107.05 -295.7 L108.5 -298.25 108.8 -299.5 Q131.45 -297.25 142.25 -288.5 148.05 -283.7 150.35 -278.0 L150.4 -277.95 Q152.25 -272.95 150.75 -268.45 149.15 -264.0 144.45 -261.35 L144.4 -261.3 Q138.75 -258.4 130.5 -258.5 114.65 -258.8 94.6 -268.6 L93.45 -271.15 92.15 -274.55 M-54.5 -304.5 L-53.05 -304.2 -18.7 -307.75 Q-17.8 -307.85 -17.2 -308.45 -16.55 -309.1 -16.45 -309.95 -16.35 -310.85 -16.85 -311.6 -17.3 -312.35 -18.15 -312.6 L-50.7 -323.5 -52.15 -323.55 Q-52.9 -323.35 -53.35 -322.75 -53.9 -322.2 -53.95 -321.45 L-55.75 -307.0 Q-55.85 -306.25 -55.5 -305.55 L-54.5 -304.5" fill="#344c88" fill-rule="evenodd" stroke="none"/>
      <path d="M7.1 -271.0 L4.7 -270.65 Q-6.0 -284.3 -6.0 -302.35 -6.0 -323.95 9.3 -339.25 13.3 -343.3 17.75 -346.2 39.15 -335.05 57.15 -318.25 50.3 -313.5 44.55 -308.65 34.75 -306.8 30.4 -304.9 20.85 -300.8 16.3 -294.5 11.8 -288.2 8.95 -277.65 L7.1 -271.0 M-33.0 -358.2 L-19.95 -343.45 -38.05 -351.55 -33.0 -358.2 M-49.4 -317.8 L-30.7 -311.55 -50.45 -309.5 -49.4 -317.8" fill="#ffff1a" fill-rule="evenodd" stroke="none"/>
    </g>
  </defs>
</svg>
