<?xml version="1.0" encoding="UTF-8" standalone="no"?>
<svg xmlns:xlink="http://www.w3.org/1999/xlink" height="434.9px" width="399.95px" xmlns="http://www.w3.org/2000/svg">
  <g transform="matrix(1, 0, 0, 1, 210.75, 443.1)">
    <use height="126.8" transform="matrix(1.0, 0.0, 0.0, 1.0, -113.7, -365.5)" width="219.05" xlink:href="#shape0"/>
  </g>
  <defs>
    <g id="shape0" transform="matrix(1, 0, 0, 1, 113.7, 365.5)">
      <path d="M88.7 -353.5 L87.0 -353.5 88.7 -353.5 M12.85 -313.5 Q44.55 -349.75 87.0 -363.0 L87.0 -353.5 94.35 -357.5 Q104.85 -305.15 91.05 -271.2 L102.85 -268.25 89.9 -264.15 99.3 -255.9 85.8 -255.9 Q83.95 -271.75 78.05 -285.8 83.65 -311.3 81.65 -339.45 51.95 -330.1 33.2 -309.8 L32.95 -309.85 Q23.7 -312.05 12.85 -313.5 M-12.5 -313.5 Q-27.6 -311.75 -39.45 -308.05 -59.6 -328.05 -90.15 -335.3 -92.65 -302.8 -80.45 -272.4 -84.0 -261.2 -82.75 -247.0 L-97.15 -241.2 -94.2 -250.6 -106.0 -253.5 -97.15 -258.2 Q-111.25 -301.4 -111.2 -349.2 L-101.9 -345.85 -105.3 -356.3 Q-43.1 -342.0 -12.5 -313.5" fill="#fee170" fill-rule="evenodd" stroke="none"/>
      <path d="M78.05 -285.8 Q61.05 -297.8 33.2 -309.8 51.95 -330.1 81.65 -339.45 83.65 -311.3 78.05 -285.8 M-80.45 -272.4 Q-92.65 -302.8 -90.15 -335.3 -59.6 -328.05 -39.45 -308.05 -72.35 -297.8 -80.45 -272.4" fill="url(#gradient0)" fill-rule="evenodd" stroke="none"/>
      <path d="M87.0 -353.5 L88.7 -353.5 M12.85 -313.5 Q44.55 -349.75 87.0 -363.0 L87.0 -353.5 94.35 -357.5 Q104.85 -305.15 91.05 -271.2 L102.85 -268.25 89.9 -264.15 99.3 -255.9 85.8 -255.9 M33.2 -309.8 L32.95 -309.85 M78.05 -285.8 Q83.65 -311.3 81.65 -339.45 51.95 -330.1 33.2 -309.8 M-12.5 -313.5 Q-43.1 -342.0 -105.3 -356.3 L-101.9 -345.85 -111.2 -349.2 Q-111.25 -301.4 -97.15 -258.2 L-106.0 -253.5 -94.2 -250.6 -97.15 -241.2 -82.75 -247.0 M-80.45 -272.4 Q-92.65 -302.8 -90.15 -335.3 -59.6 -328.05 -39.45 -308.05" fill="none" stroke="#000000" stroke-linecap="round" stroke-linejoin="round" stroke-width="5.0"/>
      <path d="M85.8 -255.9 Q83.95 -271.75 78.05 -285.8 61.05 -297.8 33.2 -309.8 M32.95 -309.85 Q23.7 -312.05 12.85 -313.5 M-39.45 -308.05 Q-27.6 -311.75 -12.5 -313.5 M-82.75 -247.0 Q-84.0 -261.2 -80.45 -272.4 M-39.45 -308.05 Q-72.35 -297.8 -80.45 -272.4" fill="none" stroke="#010101" stroke-linecap="round" stroke-linejoin="round" stroke-opacity="0.0" stroke-width="5.0"/>
    </g>
    <radialGradient cx="0" cy="0" gradientTransform="matrix(0.1256, -3.0E-4, 1.0E-4, 0.0548, -4.7, -284.65)" gradientUnits="userSpaceOnUse" id="gradient0" r="819.2" spreadMethod="pad">
      <stop offset="0.0" stop-color="#fee170"/>
      <stop offset="0.6274509803921569" stop-color="#fee172"/>
      <stop offset="1.0" stop-color="#ffcccc"/>
    </radialGradient>
  </defs>
</svg>
