<?xml version="1.0" encoding="UTF-8" standalone="no"?>
<svg xmlns:xlink="http://www.w3.org/1999/xlink" height="434.9px" width="399.95px" xmlns="http://www.w3.org/2000/svg">
  <g transform="matrix(1, 0, 0, 1, 210.75, 443.1)">
    <use height="228.3" transform="matrix(1.0, 0.0, 0.0, 1.0, -118.5, -339.6)" width="232.15" xlink:href="#shape0"/>
  </g>
  <defs>
    <g id="shape0" transform="matrix(1, 0, 0, 1, 118.5, 339.6)">
      <path d="M96.4 -198.8 L81.0 -238.85 56.9 -238.85 53.4 -192.95 39.9 -182.9 73.4 -161.2 96.4 -198.8 M107.5 -316.45 L111.15 -116.9 94.0 -130.5 82.2 -114.45 61.25 -127.4 47.0 -113.85 27.85 -127.4 12.4 -114.4 -10.5 -127.4 -27.8 -113.8 -53.75 -127.95 -68.55 -113.8 -79.7 -127.45 -94.5 -113.8 -97.6 -312.1 107.5 -316.45 M-40.1 -240.55 L-40.1 -200.6 -55.4 -164.15 -40.7 -172.95 -14.85 -158.85 6.3 -188.85 -1.25 -235.3 -14.25 -227.05 -40.1 -240.55" fill="#b0993e" fill-rule="evenodd" stroke="none"/>
      <path d="M-116.0 -334.1 L76.35 -337.1 107.5 -316.45 -97.6 -312.1 -116.0 -334.1" fill="#d1bf7a" fill-rule="evenodd" stroke="none"/>
      <path d="M-94.5 -113.8 L-113.05 -125.9 -116.0 -334.1 -97.6 -312.1 -94.5 -113.8" fill="#c4ad55" fill-rule="evenodd" stroke="none"/>
      <path d="M96.4 -198.8 L73.4 -161.2 39.9 -182.9 53.4 -192.95 56.9 -238.85 81.0 -238.85 96.4 -198.8 M-116.0 -334.1 L76.35 -337.1 107.5 -316.45 111.15 -116.9 94.0 -130.5 82.2 -114.45 61.25 -127.4 47.0 -113.85 27.85 -127.4 12.4 -114.4 -10.5 -127.4 -27.8 -113.8 -53.75 -127.95 -68.55 -113.8 -79.7 -127.45 -94.5 -113.8 -113.05 -125.9 -116.0 -334.1 -97.6 -312.1 107.5 -316.45 M-40.1 -240.55 L-14.25 -227.05 -1.25 -235.3 6.3 -188.85 -14.85 -158.85 -40.7 -172.95 -55.4 -164.15 -40.1 -200.6 -40.1 -240.55 M-97.6 -312.1 L-94.5 -113.8" fill="none" stroke="#000000" stroke-linecap="round" stroke-linejoin="round" stroke-width="5.0"/>
    </g>
  </defs>
</svg>
