<?xml version="1.0" encoding="UTF-8" standalone="no"?>
<svg xmlns:xlink="http://www.w3.org/1999/xlink" height="434.9px" width="399.95px" xmlns="http://www.w3.org/2000/svg">
  <g transform="matrix(1, 0, 0, 1, 210.75, 443.1)">
    <use height="116.95" transform="matrix(1.0, 0.0, 0.0, 1.0, -132.3, -379.95)" width="233.25" xlink:href="#shape0"/>
  </g>
  <defs>
    <g id="shape0" transform="matrix(1, 0, 0, 1, 132.3, 379.95)">
      <path d="M37.9 -320.05 L37.85 -320.0 37.95 -320.0 41.2 -316.95 Q66.7 -316.9 87.9 -308.15 81.15 -297.0 64.3 -290.15 3.85 -316.55 -81.8 -267.0 -118.15 -260.1 -87.8 -284.5 L-76.7 -292.9 Q-75.1 -297.45 -73.0 -301.6 -66.75 -313.7 -55.8 -322.3 -42.1 -332.95 -24.0 -336.1 -6.25 -339.25 10.95 -334.4 L16.85 -332.5 Q21.05 -330.9 24.9 -328.85 31.95 -325.2 37.9 -320.05" fill="#484848" fill-rule="evenodd" stroke="none"/>
      <path d="M37.9 -320.05 Q31.95 -325.2 24.9 -328.85 21.05 -330.9 16.85 -332.5 2.45 -359.85 19.9 -378.45 21.8 -359.95 33.55 -346.3 50.65 -366.45 93.4 -354.4 78.0 -348.5 64.95 -340.7 49.8 -331.65 37.9 -320.05 49.8 -331.65 64.95 -340.7 92.7 -336.05 99.45 -315.1 68.7 -325.5 37.95 -320.0 L37.9 -320.05 M-73.0 -301.6 Q-75.1 -297.45 -76.7 -292.9 L-87.8 -284.5 Q-109.3 -302.9 -130.8 -284.5 -118.85 -305.95 -101.3 -304.35 -113.6 -325.35 -87.3 -344.7 -92.1 -317.95 -73.0 -301.6 M24.9 -328.85 Q27.75 -339.5 33.55 -346.3 27.75 -339.5 24.9 -328.85 M-76.7 -292.9 Q-90.15 -303.3 -101.3 -304.35 -90.15 -303.3 -76.7 -292.9" fill="#80f291" fill-rule="evenodd" stroke="none"/>
      <path d="M37.9 -320.05 Q31.95 -325.2 24.9 -328.85 21.05 -330.9 16.85 -332.5 L10.95 -334.4 Q-6.25 -339.25 -24.0 -336.1 -42.1 -332.95 -55.8 -322.3 -66.75 -313.7 -73.0 -301.6 -75.1 -297.45 -76.7 -292.9 L-87.8 -284.5 Q-118.15 -260.1 -81.8 -267.0 3.85 -316.55 64.3 -290.15 81.15 -297.0 87.9 -308.15 66.7 -316.9 41.2 -316.95 L37.95 -320.0 37.9 -320.05" fill="none" stroke="#000000" stroke-linecap="round" stroke-linejoin="round" stroke-width="5.0"/>
      <path d="M37.95 -320.0 L37.85 -320.0 37.9 -320.05 Q49.8 -331.65 64.95 -340.7 78.0 -348.5 93.4 -354.4 50.65 -366.45 33.55 -346.3 27.75 -339.5 24.9 -328.85 M33.55 -346.3 Q21.8 -359.95 19.9 -378.45 2.45 -359.85 16.85 -332.5 M37.95 -320.0 Q68.7 -325.5 99.45 -315.1 92.7 -336.05 64.95 -340.7 M-73.0 -301.6 Q-92.1 -317.95 -87.3 -344.7 -113.6 -325.35 -101.3 -304.35 -90.15 -303.3 -76.7 -292.9 M-101.3 -304.35 Q-118.85 -305.95 -130.8 -284.5 -109.3 -302.9 -87.8 -284.5" fill="none" stroke="#000000" stroke-linecap="round" stroke-linejoin="round" stroke-width="3.0"/>
      <path d="M-74.2 -322.25 Q-58.85 -320.0 -43.4 -324.8 -38.25 -320.45 -38.5 -310.95 L-39.1 -305.05 Q-59.9 -281.65 -88.25 -294.75 -91.6 -300.4 -91.75 -307.15 L-91.7 -311.05 Q-91.15 -318.7 -86.85 -323.05 -81.7 -328.5 -73.4 -330.35 -65.05 -332.2 -62.95 -331.95 -70.7 -328.6 -74.2 -322.25 -76.8 -317.7 -77.15 -311.4 -76.8 -317.7 -74.2 -322.25" fill="#f9c397" fill-rule="evenodd" stroke="none"/>
      <path d="M-88.25 -294.75 Q-59.9 -281.65 -39.1 -305.05 -40.75 -295.05 -46.75 -289.05 -54.5 -281.35 -65.35 -281.35 -76.15 -281.35 -83.8 -289.05 -86.5 -291.7 -88.25 -294.75" fill="#f3af83" fill-rule="evenodd" stroke="none"/>
      <path d="M-43.4 -324.8 Q-58.85 -320.0 -74.2 -322.25 -70.7 -328.6 -62.95 -331.95 -62.0 -330.25 -50.0 -327.8 -46.1 -326.95 -43.4 -324.8" fill="#fbd7bf" fill-rule="evenodd" stroke="none"/>
      <path d="M-43.4 -324.8 Q-46.1 -326.95 -50.0 -327.8 -62.0 -330.25 -62.95 -331.95 -65.05 -332.2 -73.4 -330.35 -81.7 -328.5 -86.85 -323.05 -91.15 -318.7 -91.7 -311.05 L-91.75 -307.15 Q-91.6 -300.4 -88.25 -294.75 -86.5 -291.7 -83.8 -289.05 -76.15 -281.35 -65.35 -281.35 -54.5 -281.35 -46.75 -289.05 -40.75 -295.05 -39.1 -305.05 L-38.5 -310.95 Q-38.25 -320.45 -43.4 -324.8" fill="none" stroke="#000000" stroke-linecap="round" stroke-linejoin="round" stroke-width="3.0"/>
      <path d="M-43.4 -324.8 Q-58.85 -320.0 -74.2 -322.25 M-88.25 -294.75 Q-59.9 -281.65 -39.1 -305.05" fill="none" stroke="#010101" stroke-linecap="round" stroke-linejoin="round" stroke-opacity="0.0" stroke-width="3.0"/>
      <path d="M-74.2 -322.25 Q-76.8 -317.7 -77.15 -311.4 M-62.95 -331.95 Q-70.7 -328.6 -74.2 -322.25" fill="none" stroke="#000000" stroke-linecap="round" stroke-linejoin="round" stroke-width="2.0"/>
      <path d="M-21.4 -299.75 L-21.15 -295.95 -14.3 -306.05 Q-11.15 -301.25 -12.0 -296.45 -12.8 -291.7 -16.6 -288.95 -20.4 -286.25 -24.65 -286.15 L-23.25 -288.3 Q-21.5 -291.65 -21.15 -295.95 -21.5 -291.65 -23.25 -288.3 -31.75 -289.85 -41.95 -302.25 -41.5 -306.7 -38.5 -310.1 -23.35 -313.25 -21.4 -299.75" fill="#f9c397" fill-rule="evenodd" stroke="none"/>
      <path d="M-21.15 -295.95 L-21.4 -299.75 Q-23.35 -313.25 -38.5 -310.1 L-37.8 -310.95 Q-33.45 -315.2 -27.45 -315.2 -21.4 -315.2 -16.15 -308.55 L-14.3 -306.05 -21.15 -295.95" fill="#fbd7bf" fill-rule="evenodd" stroke="none"/>
      <path d="M-24.65 -286.15 L-30.2 -286.0 Q-34.35 -286.0 -38.15 -290.25 -42.05 -294.6 -42.05 -300.6 L-41.95 -302.25 Q-31.75 -289.85 -23.25 -288.3 L-24.65 -286.15" fill="#f88477" fill-rule="evenodd" stroke="none"/>
      <path d="M-14.3 -306.05 L-16.15 -308.55 Q-21.4 -315.2 -27.45 -315.2 -33.45 -315.2 -37.8 -310.95 L-38.5 -310.1 M-24.65 -286.15 Q-20.4 -286.25 -16.6 -288.95 -12.8 -291.7 -12.0 -296.45 -11.15 -301.25 -14.3 -306.05 M-24.65 -286.15 L-30.2 -286.0 Q-34.35 -286.0 -38.15 -290.25 -42.05 -294.6 -42.05 -300.6 L-41.95 -302.25 Q-41.5 -306.7 -38.5 -310.1" fill="none" stroke="#000000" stroke-linecap="round" stroke-linejoin="round" stroke-width="3.0"/>
      <path d="M-21.4 -299.75 L-21.15 -295.95 Q-21.5 -291.65 -23.25 -288.3 L-24.65 -286.15" fill="none" stroke="#000000" stroke-linecap="round" stroke-linejoin="round" stroke-width="2.0"/>
      <path d="M-21.15 -295.95 L-14.3 -306.05 M-38.5 -310.1 Q-23.35 -313.25 -21.4 -299.75 M-23.25 -288.3 Q-31.75 -289.85 -41.95 -302.25" fill="none" stroke="#010101" stroke-linecap="round" stroke-linejoin="round" stroke-opacity="0.0" stroke-width="2.0"/>
    </g>
  </defs>
</svg>
