<?xml version="1.0" encoding="UTF-8" standalone="no"?>
<svg xmlns:xlink="http://www.w3.org/1999/xlink" height="434.9px" width="399.95px" xmlns="http://www.w3.org/2000/svg">
  <g transform="matrix(1, 0, 0, 1, 210.75, 443.1)">
    <use height="205.65" transform="matrix(1.0, 0.0, 0.0, 1.0, -151.75, -360.5)" width="262.75" xlink:href="#shape0"/>
  </g>
  <defs>
    <g id="shape0" transform="matrix(1, 0, 0, 1, 151.75, 360.5)">
      <path d="M102.6 -239.95 Q100.9 -243.0 98.35 -245.35 97.05 -246.55 86.8 -250.6 78.25 -253.95 78.25 -256.75 L78.3 -258.2 78.75 -258.75 79.0 -259.0 80.75 -259.25 Q92.6 -259.25 102.0 -249.25 L104.9 -245.8 Q105.75 -250.55 105.75 -253.1 105.75 -259.8 92.9 -282.9 86.25 -294.85 77.25 -309.85 77.65 -310.2 77.85 -310.9 78.2 -311.35 79.75 -311.35 82.2 -311.35 84.8 -309.5 L84.15 -312.5 Q81.8 -321.0 74.35 -326.0 72.8 -327.05 67.85 -331.8 62.35 -336.55 56.75 -339.0 54.8 -339.8 38.45 -343.25 28.95 -345.25 24.5 -346.7 L23.5 -346.1 Q21.5 -346.75 21.0 -348.25 21.0 -349.55 21.8 -350.3 L18.85 -350.25 Q13.1 -350.25 11.45 -351.0 10.5 -351.45 9.65 -352.65 6.5 -355.1 -17.25 -355.1 -56.6 -355.1 -80.5 -335.8 -90.1 -328.05 -100.55 -314.75 L-119.6 -288.85 -121.4 -289.55 Q-122.1 -290.1 -122.1 -291.75 -122.1 -295.45 -108.75 -311.9 L-108.2 -312.65 -93.0 -330.75 Q-85.05 -341.35 -65.7 -349.95 -42.55 -360.25 -16.25 -360.25 L-6.1 -360.5 Q2.0 -360.5 25.0 -352.85 L24.85 -351.25 Q47.65 -351.15 68.8 -337.7 78.7 -331.4 84.4 -323.95 90.5 -315.95 90.5 -308.25 L90.45 -303.6 Q95.65 -296.35 101.3 -282.3 104.95 -273.15 108.35 -262.25 L111.0 -253.0 Q110.4 -243.9 109.15 -238.15 109.85 -236.2 109.85 -234.75 109.85 -232.55 106.35 -229.5 L106.05 -230.4 102.45 -226.6 102.25 -226.2 101.55 -225.65 100.25 -225.5 98.1 -225.7 Q95.9 -224.15 97.0 -225.8 L87.35 -226.5 87.15 -226.55 87.15 -226.5 87.1 -226.25 Q86.85 -225.5 84.35 -225.5 L54.75 -252.6 Q51.2 -255.8 35.4 -261.6 21.45 -266.75 14.95 -269.85 L5.45 -265.6 Q-25.0 -252.05 -41.85 -242.85 L-59.1 -233.85 Q-69.25 -228.55 -75.1 -224.65 -91.65 -213.65 -93.5 -201.25 L-93.65 -201.2 -93.75 -200.75 -94.4 -200.3 Q-94.95 -199.95 -95.95 -199.85 L-96.0 -199.85 -96.6 -199.85 -97.6 -200.0 Q-97.55 -195.15 -95.55 -190.75 -93.5 -186.25 -93.5 -183.75 -93.5 -180.6 -96.2 -175.7 -95.7 -175.25 -95.5 -174.35 L-95.5 -172.1 Q-95.5 -166.0 -99.6 -161.45 -105.6 -154.85 -118.6 -154.85 -126.8 -154.85 -130.85 -159.0 -133.35 -161.55 -133.35 -163.6 L-133.3 -165.05 -132.85 -165.6 Q-132.85 -166.1 -130.35 -166.1 -128.0 -166.1 -126.35 -163.15 L-126.25 -163.0 -123.65 -165.95 Q-120.1 -169.9 -120.1 -172.1 -120.1 -172.8 -129.0 -182.0 -138.6 -191.9 -140.75 -197.1 -141.75 -199.6 -143.25 -209.85 -144.6 -219.3 -144.6 -221.6 L-144.6 -222.45 -146.45 -225.75 Q-149.95 -232.5 -151.75 -239.25 -151.75 -257.95 -142.1 -279.35 -130.7 -304.65 -112.5 -314.5 L-109.35 -314.0 Q-108.85 -314.5 -108.85 -312.0 -113.9 -307.55 -120.15 -301.1 -132.85 -288.05 -139.0 -275.1 -140.7 -271.3 -143.85 -255.55 -146.75 -240.9 -146.75 -238.6 -146.75 -234.75 -141.4 -228.4 L-141.3 -228.25 -139.5 -226.25 -128.25 -215.25 Q-128.25 -214.5 -128.55 -213.75 -129.2 -212.25 -130.85 -212.25 -135.0 -212.25 -138.8 -215.4 -137.05 -202.6 -136.5 -200.35 -134.75 -193.85 -130.95 -189.65 -128.45 -186.95 -123.8 -184.1 -119.0 -181.2 -117.6 -179.7 -115.0 -176.9 -115.0 -172.5 -115.0 -169.05 -117.7 -164.6 -119.5 -161.7 -121.5 -160.3 -114.3 -160.55 -109.55 -162.4 -108.1 -163.0 -106.85 -163.75 -108.25 -163.15 -109.6 -163.1 L-109.85 -163.1 Q-111.45 -163.1 -111.95 -163.45 L-112.75 -164.35 -112.85 -164.15 -113.0 -165.85 -105.8 -172.4 Q-98.6 -179.35 -98.6 -183.75 -98.6 -184.3 -100.65 -190.5 -102.75 -196.65 -102.75 -200.25 L-102.6 -206.55 -105.85 -212.75 Q-108.95 -218.6 -109.65 -223.05 -111.5 -224.4 -112.0 -228.25 -112.35 -231.2 -112.0 -234.5 -112.0 -250.35 -106.9 -265.2 -103.9 -274.05 -99.45 -280.95 L-99.6 -282.25 Q-99.6 -289.15 -93.65 -298.6 -86.7 -309.7 -74.45 -319.0 -41.75 -343.7 12.25 -344.1 L14.25 -343.6 Q14.75 -343.25 14.75 -341.6 14.75 -339.65 10.6 -338.55 7.55 -337.7 -0.85 -336.65 -26.4 -333.55 -40.35 -330.25 -61.6 -325.15 -75.1 -314.0 -83.1 -307.35 -88.15 -298.3 -90.3 -294.45 -91.6 -290.65 L-87.85 -294.0 -86.15 -293.55 Q-85.35 -293.15 -85.35 -291.6 -85.35 -289.95 -88.7 -284.7 L-96.05 -272.7 Q-106.5 -253.85 -106.75 -235.25 L-105.25 -235.75 -103.05 -235.45 Q-102.75 -235.1 -102.75 -233.25 -102.75 -232.0 -103.75 -229.25 L-104.45 -227.05 -103.75 -225.25 Q-103.2 -224.4 -104.25 -223.4 L-104.35 -223.25 Q-103.35 -220.0 -99.4 -213.5 L-99.35 -213.4 -98.7 -213.9 Q-98.95 -216.75 -98.6 -219.85 -98.6 -228.45 -92.6 -235.5 -87.4 -241.55 -72.5 -252.0 L-70.8 -251.55 Q-70.0 -251.15 -70.0 -249.6 -70.0 -247.8 -73.65 -244.9 L-81.75 -238.95 Q-93.5 -229.8 -93.5 -220.1 -93.5 -218.95 -92.65 -215.9 -79.85 -229.6 -39.35 -250.25 -19.6 -260.35 3.25 -270.25 19.95 -277.5 25.6 -279.45 L31.15 -284.0 Q41.0 -292.4 44.0 -297.0 44.5 -297.75 45.7 -308.7 46.75 -318.5 49.0 -318.5 52.5 -318.5 51.6 -308.85 51.6 -298.25 46.35 -290.75 40.15 -281.9 24.5 -273.5 L23.55 -273.8 23.25 -273.7 24.45 -273.45 24.5 -273.45 Q40.5 -269.95 61.65 -254.85 72.55 -247.1 79.95 -239.5 84.35 -235.0 86.15 -231.95 86.45 -232.15 86.85 -232.35 89.45 -233.6 93.5 -233.6 L94.5 -233.55 Q99.05 -233.4 101.05 -231.7 L101.35 -231.45 102.75 -233.3 Q102.85 -235.2 103.4 -238.35 L102.7 -239.75 102.6 -239.95 M-3.0 -312.85 Q-2.5 -313.5 -2.5 -311.0 L-56.75 -291.5 Q-68.3 -287.3 -72.65 -282.55 -76.95 -277.9 -76.1 -270.75 L-78.75 -269.5 Q-81.25 -272.0 -81.25 -275.35 -81.25 -282.0 -76.3 -286.8 -71.8 -291.2 -61.75 -295.3 -49.0 -300.55 -6.1 -313.5 L-3.0 -312.85" fill="#000000" fill-rule="evenodd" stroke="none"/>
      <path d="M-108.75 -311.9 Q-122.1 -295.45 -122.1 -291.75 -122.1 -290.1 -121.4 -289.55 L-119.6 -288.85 -100.55 -314.75 Q-90.1 -328.05 -80.5 -335.8 -56.6 -355.1 -17.25 -355.1 6.5 -355.1 9.65 -352.65 10.5 -351.45 11.45 -351.0 13.1 -350.25 18.85 -350.25 L21.8 -350.3 Q21.0 -349.55 21.0 -348.25 21.5 -346.75 23.5 -346.1 L24.5 -346.7 Q28.95 -345.25 38.45 -343.25 54.8 -339.8 56.75 -339.0 62.35 -336.55 67.85 -331.8 72.8 -327.05 74.35 -326.0 81.8 -321.0 84.15 -312.5 L84.8 -309.5 Q82.2 -311.35 79.75 -311.35 78.2 -311.35 77.85 -310.9 77.65 -310.2 77.25 -309.85 86.25 -294.85 92.9 -282.9 105.75 -259.8 105.75 -253.1 105.75 -250.55 104.9 -245.8 L102.0 -249.25 Q92.6 -259.25 80.75 -259.25 L79.0 -259.0 78.75 -258.75 78.3 -258.2 78.25 -256.75 Q78.25 -253.95 86.8 -250.6 97.05 -246.55 98.35 -245.35 100.9 -243.0 102.6 -239.95 L102.25 -239.75 102.7 -239.75 103.4 -238.35 Q102.85 -235.2 102.75 -233.3 L101.75 -232.3 101.05 -231.7 Q99.05 -233.4 94.5 -233.55 L93.5 -233.6 Q89.45 -233.6 86.85 -232.35 86.45 -232.15 86.15 -231.95 84.35 -235.0 79.95 -239.5 72.55 -247.1 61.65 -254.85 40.5 -269.95 24.5 -273.45 L24.5 -273.5 Q40.15 -281.9 46.35 -290.75 51.6 -298.25 51.6 -308.85 52.5 -318.5 49.0 -318.5 46.75 -318.5 45.7 -308.7 44.5 -297.75 44.0 -297.0 41.0 -292.4 31.15 -284.0 L25.6 -279.45 Q19.95 -277.5 3.25 -270.25 -19.6 -260.35 -39.35 -250.25 -79.85 -229.6 -92.65 -215.9 -93.5 -218.95 -93.5 -220.1 -93.5 -229.8 -81.75 -238.95 L-73.65 -244.9 Q-70.0 -247.8 -70.0 -249.6 -70.0 -251.15 -70.8 -251.55 L-72.5 -252.0 Q-87.4 -241.55 -92.6 -235.5 -98.6 -228.45 -98.6 -219.85 -98.95 -216.75 -98.7 -213.9 L-99.4 -213.5 Q-103.35 -220.0 -104.35 -223.25 L-104.25 -223.4 Q-103.2 -224.4 -103.75 -225.25 L-104.45 -227.05 -103.75 -229.25 Q-102.75 -232.0 -102.75 -233.25 -102.75 -235.1 -103.05 -235.45 L-105.25 -235.75 -106.75 -235.25 Q-106.5 -253.85 -96.05 -272.7 L-88.7 -284.7 Q-85.35 -289.95 -85.35 -291.6 -85.35 -293.15 -86.15 -293.55 L-87.85 -294.0 -91.6 -290.65 Q-90.3 -294.45 -88.15 -298.3 -83.1 -307.35 -75.1 -314.0 -61.6 -325.15 -40.35 -330.25 -26.4 -333.55 -0.85 -336.65 7.55 -337.7 10.6 -338.55 14.75 -339.65 14.75 -341.6 14.75 -343.25 14.25 -343.6 L12.25 -344.1 Q-41.75 -343.7 -74.45 -319.0 -86.7 -309.7 -93.65 -298.6 -99.6 -289.15 -99.6 -282.25 L-99.45 -280.95 Q-103.9 -274.05 -106.9 -265.2 -112.0 -250.35 -112.0 -234.5 -112.35 -231.2 -112.0 -228.25 -111.5 -224.4 -109.65 -223.05 -108.95 -218.6 -105.85 -212.75 L-102.6 -206.55 -102.75 -200.25 Q-102.75 -196.65 -100.65 -190.5 -98.6 -184.3 -98.6 -183.75 -98.6 -179.35 -105.8 -172.4 L-113.0 -165.85 -112.85 -164.15 -112.75 -164.35 -111.95 -163.45 Q-111.45 -163.1 -109.85 -163.1 L-109.6 -163.1 -109.55 -162.4 Q-114.3 -160.55 -121.5 -160.3 -119.5 -161.7 -117.7 -164.6 -115.0 -169.05 -115.0 -172.5 -115.0 -176.9 -117.6 -179.7 -119.0 -181.2 -123.8 -184.1 -128.45 -186.95 -130.95 -189.65 -134.75 -193.85 -136.5 -200.35 -137.05 -202.6 -138.8 -215.4 -135.0 -212.25 -130.85 -212.25 -129.2 -212.25 -128.55 -213.75 -128.25 -214.5 -128.25 -215.25 L-139.5 -226.25 -141.3 -228.25 -141.4 -228.4 Q-146.75 -234.75 -146.75 -238.6 -146.75 -240.9 -143.85 -255.55 -140.7 -271.3 -139.0 -275.1 -132.85 -288.05 -120.15 -301.1 -113.9 -307.55 -108.85 -312.0 L-108.75 -311.9 M-3.0 -312.85 L-6.1 -313.5 Q-49.0 -300.55 -61.75 -295.3 -71.8 -291.2 -76.3 -286.8 -81.25 -282.0 -81.25 -275.35 -81.25 -272.0 -78.75 -269.5 L-76.1 -270.75 Q-76.95 -277.9 -72.65 -282.55 -68.3 -287.3 -56.75 -291.5 L-2.5 -311.0 Q-2.5 -313.5 -3.0 -312.85" fill="#ffffff" fill-rule="evenodd" stroke="none"/>
    </g>
  </defs>
</svg>
