<?xml version="1.0" encoding="UTF-8" standalone="no"?>
<svg xmlns:xlink="http://www.w3.org/1999/xlink" height="434.9px" width="399.95px" xmlns="http://www.w3.org/2000/svg">
  <g transform="matrix(1, 0, 0, 1, 210.75, 443.1)">
    <use height="41.8" transform="matrix(1.0, 0.0, 0.0, 1.0, -79.0, -332.85)" width="135.95" xlink:href="#shape0"/>
  </g>
  <defs>
    <g id="shape0" transform="matrix(1, 0, 0, 1, 79.0, 332.85)">
      <path d="M34.0 -327.95 Q41.6 -334.95 50.75 -329.6 54.7 -327.25 56.1 -322.75 59.25 -312.95 50.85 -306.8 49.85 -306.1 48.6 -305.9 44.05 -304.85 39.9 -307.25 36.25 -309.35 34.25 -313.0 27.45 -308.55 20.35 -312.2 19.35 -312.7 18.75 -313.65 14.05 -321.15 18.6 -328.8 21.6 -333.9 27.55 -332.6 31.85 -331.85 34.0 -327.95 M20.95 -323.55 Q19.5 -319.1 22.6 -315.25 27.75 -314.05 31.45 -317.7 32.8 -319.0 32.35 -320.75 31.05 -326.3 25.35 -327.3 22.1 -327.0 20.95 -323.55 M36.8 -318.25 L36.6 -316.85 Q40.15 -311.85 45.75 -310.45 L47.45 -310.5 Q50.2 -310.9 51.35 -313.6 52.1 -315.35 52.15 -317.25 52.4 -324.45 46.35 -327.1 L43.8 -327.55 Q39.65 -327.1 36.8 -324.1 35.25 -322.8 36.3 -320.7 36.85 -319.6 36.8 -318.25 M-42.1 -323.65 Q-41.45 -323.3 -41.0 -322.6 -37.3 -317.1 -40.55 -311.1 -45.4 -302.1 -55.5 -302.9 -56.35 -293.2 -65.35 -291.2 L-67.75 -291.05 Q-75.2 -291.6 -78.0 -298.6 -80.85 -305.7 -75.5 -311.3 -73.9 -312.9 -71.95 -313.6 L-63.55 -313.85 Q-63.4 -318.0 -60.65 -321.0 -59.0 -322.8 -56.7 -323.8 -49.3 -327.0 -42.1 -323.65 M-74.7 -302.95 Q-74.95 -298.5 -71.05 -296.5 -66.9 -294.55 -63.85 -297.15 -60.35 -300.1 -59.9 -304.6 -62.95 -309.95 -69.1 -309.45 -74.45 -308.35 -74.7 -302.95 M-44.05 -320.7 Q-49.9 -321.25 -55.1 -318.95 -57.6 -317.75 -59.05 -315.45 -59.6 -310.9 -56.05 -308.4 -53.9 -306.85 -51.45 -307.55 -45.45 -309.35 -43.45 -315.25 L-44.05 -320.7" fill="#000000" fill-rule="evenodd" stroke="none"/>
      <path d="M36.8 -318.25 Q36.85 -319.6 36.3 -320.7 35.25 -322.8 36.8 -324.1 39.65 -327.1 43.8 -327.55 L46.35 -327.1 Q52.4 -324.45 52.15 -317.25 52.1 -315.35 51.35 -313.6 50.2 -310.9 47.45 -310.5 L45.75 -310.45 Q40.15 -311.85 36.6 -316.85 L36.8 -318.25 M20.95 -323.55 Q22.1 -327.0 25.35 -327.3 31.05 -326.3 32.35 -320.75 32.8 -319.0 31.45 -317.7 27.75 -314.05 22.6 -315.25 19.5 -319.1 20.95 -323.55 M-44.05 -320.7 L-43.45 -315.25 Q-45.45 -309.35 -51.45 -307.55 -53.9 -306.85 -56.05 -308.4 -59.6 -310.9 -59.05 -315.45 -57.6 -317.75 -55.1 -318.95 -49.9 -321.25 -44.05 -320.7 M-74.7 -302.95 Q-74.45 -308.35 -69.1 -309.45 -62.95 -309.95 -59.9 -304.6 -60.35 -300.1 -63.85 -297.15 -66.9 -294.55 -71.05 -296.5 -74.95 -298.5 -74.7 -302.95" fill="#c7200e" fill-rule="evenodd" stroke="none"/>
    </g>
  </defs>
</svg>
