<?xml version="1.0" encoding="UTF-8" standalone="no"?>
<svg xmlns:xlink="http://www.w3.org/1999/xlink" height="434.9px" width="399.95px" xmlns="http://www.w3.org/2000/svg">
  <g transform="matrix(1, 0, 0, 1, 210.75, 443.1)">
    <use height="154.05" transform="matrix(1.0, 0.0, 0.0, 1.0, -149.95, -340.1)" width="249.05" xlink:href="#shape0"/>
  </g>
  <defs>
    <g id="shape0" transform="matrix(1, 0, 0, 1, 149.95, 340.1)">
      <path d="M5.25 -332.0 Q73.25 -332.35 96.6 -271.3 79.8 -272.25 63.95 -272.15 54.6 -310.3 5.25 -332.0 54.6 -310.3 63.95 -272.15 5.8 -271.8 -39.0 -256.8 -58.35 -250.35 -77.75 -241.5 -88.6 -236.5 -102.0 -231.85 L-100.25 -212.4 Q-120.6 -197.8 -147.45 -188.55 -136.75 -216.7 -102.0 -231.85 -106.15 -310.05 -33.85 -327.3 L-27.25 -328.75 Q-26.95 -332.1 -24.35 -334.55 -22.0 -336.85 -18.7 -337.4 -15.3 -338.05 -12.75 -336.55 -9.95 -334.95 -9.25 -331.25 L5.25 -332.0 M19.25 -279.5 Q16.95 -286.0 12.75 -289.05 9.0 -291.8 5.05 -290.95 1.1 -290.15 -0.95 -286.3 -3.25 -282.1 -2.25 -276.0 L19.25 -279.5 M-39.0 -256.8 Q-45.1 -290.3 -33.85 -327.3 -45.1 -290.3 -39.0 -256.8 M-27.25 -328.75 L-18.6 -330.15 -9.25 -331.25 -18.6 -330.15 -27.25 -328.75" fill="#2b2b2b" fill-rule="evenodd" stroke="none"/>
      <path d="M19.25 -279.5 L-2.25 -276.0 Q-3.25 -282.1 -0.95 -286.3 1.1 -290.15 5.05 -290.95 9.0 -291.8 12.75 -289.05 16.95 -286.0 19.25 -279.5 M63.95 -272.15 Q79.8 -272.25 96.6 -271.3 73.25 -332.35 5.25 -332.0 54.6 -310.3 63.95 -272.15 5.8 -271.8 -39.0 -256.8 -58.35 -250.35 -77.75 -241.5 -88.6 -236.5 -102.0 -231.85 L-100.25 -212.4 Q-120.6 -197.8 -147.45 -188.55 -136.75 -216.7 -102.0 -231.85 -106.15 -310.05 -33.85 -327.3 L-27.25 -328.75 Q-26.95 -332.1 -24.35 -334.55 -22.0 -336.85 -18.7 -337.4 -15.3 -338.05 -12.75 -336.55 -9.95 -334.95 -9.25 -331.25 L5.25 -332.0 M-9.25 -331.25 L-18.6 -330.15 -27.25 -328.75 M-33.85 -327.3 Q-45.1 -290.3 -39.0 -256.8" fill="none" stroke="#000000" stroke-linecap="round" stroke-linejoin="round" stroke-width="5.0"/>
    </g>
  </defs>
</svg>
