<?xml version="1.0" encoding="UTF-8" standalone="no"?>
<svg xmlns:xlink="http://www.w3.org/1999/xlink" height="434.9px" width="399.95px" xmlns="http://www.w3.org/2000/svg">
  <g transform="matrix(1, 0, 0, 1, 210.75, 443.1)">
    <use height="81.15" transform="matrix(1.0, 0.0, 0.0, 1.0, -96.5, -335.9)" width="191.0" xlink:href="#shape0"/>
  </g>
  <defs>
    <g id="shape0" transform="matrix(1, 0, 0, 1, 96.5, 335.9)">
      <path d="M28.05 -318.2 L11.45 -304.85 Q28.5 -305.1 34.15 -314.75 39.8 -324.45 31.9 -323.2 28.55 -321.7 28.05 -318.2 M11.35 -303.35 L11.45 -304.85 Q12.05 -318.8 24.15 -327.75 36.85 -337.25 48.05 -330.75 59.25 -324.3 68.55 -312.55 76.7 -302.25 71.55 -294.5 L69.85 -292.3 Q65.35 -287.6 58.75 -282.5 65.35 -287.6 69.85 -292.3 L71.55 -294.5 Q84.2 -287.85 92.0 -280.3 76.55 -279.3 76.55 -261.3 71.9 -274.4 58.75 -282.5 43.15 -292.8 16.95 -295.05 14.45 -300.8 11.35 -303.35 14.45 -300.8 16.95 -295.05 10.95 -285.45 -9.0 -284.8 -16.75 -284.05 -18.8 -286.05 -36.85 -288.8 -56.55 -277.05 L-68.2 -292.25 -56.55 -277.05 Q-69.65 -266.95 -75.8 -257.25 -73.1 -272.4 -94.0 -273.0 -88.35 -284.3 -68.2 -292.25 -71.5 -302.05 -65.5 -311.3 -59.6 -320.6 -42.75 -323.45 -25.95 -326.3 -19.5 -321.95 -9.35 -315.0 -8.65 -306.6 -20.55 -302.2 -21.05 -293.75 L-21.2 -292.4 -23.7 -292.8 -21.2 -292.4 -21.05 -293.75 Q-20.55 -302.2 -8.65 -306.6 -7.3 -306.5 -5.85 -307.35 2.5 -310.7 11.35 -303.35 M-24.2 -309.05 Q-38.75 -314.95 -41.8 -311.0 -44.1 -308.05 -40.8 -302.35 -34.55 -294.9 -23.7 -292.8 -36.75 -301.85 -24.2 -309.05 M-21.2 -292.4 Q-21.5 -288.7 -18.8 -286.05 -21.5 -288.7 -21.2 -292.4" fill="#fe4545" fill-rule="evenodd" stroke="none"/>
      <path d="M11.45 -304.85 L28.05 -318.2 Q28.55 -321.7 31.9 -323.2 39.8 -324.45 34.15 -314.75 28.5 -305.1 11.45 -304.85 M-23.7 -292.8 Q-34.55 -294.9 -40.8 -302.35 -44.1 -308.05 -41.8 -311.0 -38.75 -314.95 -24.2 -309.05 -36.75 -301.85 -23.7 -292.8" fill="#d20202" fill-rule="evenodd" stroke="none"/>
      <path d="M28.05 -318.2 Q28.55 -321.7 31.9 -323.2 39.8 -324.45 34.15 -314.75 28.5 -305.1 11.45 -304.85 L11.35 -303.35 Q14.45 -300.8 16.95 -295.05 43.15 -292.8 58.75 -282.5 65.35 -287.6 69.85 -292.3 L71.55 -294.5 Q76.7 -302.25 68.55 -312.55 59.25 -324.3 48.05 -330.75 36.85 -337.25 24.15 -327.75 12.05 -318.8 11.45 -304.85 M58.75 -282.5 Q71.9 -274.4 76.55 -261.3 76.55 -279.3 92.0 -280.3 84.2 -287.85 71.55 -294.5 M-23.7 -292.8 Q-34.55 -294.9 -40.8 -302.35 -44.1 -308.05 -41.8 -311.0 -38.75 -314.95 -24.2 -309.05 M-23.7 -292.8 L-21.2 -292.4 -21.05 -293.75 Q-20.55 -302.2 -8.65 -306.6 -9.35 -315.0 -19.5 -321.95 -25.95 -326.3 -42.75 -323.45 -59.6 -320.6 -65.5 -311.3 -71.5 -302.05 -68.2 -292.25 L-56.55 -277.05 Q-36.85 -288.8 -18.8 -286.05 -21.5 -288.7 -21.2 -292.4 M11.35 -303.35 Q2.5 -310.7 -5.85 -307.35 -7.3 -306.5 -8.65 -306.6 M-18.8 -286.05 Q-16.75 -284.05 -9.0 -284.8 10.95 -285.45 16.95 -295.05 M-68.2 -292.25 Q-88.35 -284.3 -94.0 -273.0 -73.1 -272.4 -75.8 -257.25 -69.65 -266.95 -56.55 -277.05" fill="none" stroke="#000000" stroke-linecap="round" stroke-linejoin="round" stroke-width="5.0"/>
    </g>
  </defs>
</svg>
