<?xml version="1.0" encoding="UTF-8" standalone="no"?>
<svg xmlns:xlink="http://www.w3.org/1999/xlink" height="434.9px" width="399.95px" xmlns="http://www.w3.org/2000/svg">
  <g transform="matrix(1, 0, 0, 1, 210.75, 443.1)">
    <use height="85.0" transform="matrix(1.0, 0.0, 0.0, 1.0, -145.45, -311.0)" width="224.0" xlink:href="#shape0"/>
  </g>
  <defs>
    <g id="shape0" transform="matrix(1, 0, 0, 1, 145.45, 311.0)">
      <path d="M-76.5 -256.9 Q-82.05 -253.45 -87.45 -249.5 L-133.25 -228.5 Q-143.35 -261.9 -142.95 -271.75 -139.05 -272.25 -132.5 -271.85 -114.55 -270.8 -76.5 -256.9 -114.55 -270.8 -132.5 -271.85 -133.4 -290.4 -124.5 -308.5 -92.15 -291.3 -71.3 -268.3 6.8 -316.45 76.05 -268.8 -14.1 -295.85 -76.5 -256.9 L-71.3 -268.3 -76.5 -256.9" fill="#ffffff" fill-rule="evenodd" stroke="none"/>
      <path d="M-132.5 -271.85 Q-139.05 -272.25 -142.95 -271.75 -143.35 -261.9 -133.25 -228.5 L-87.45 -249.5 Q-82.05 -253.45 -76.5 -256.9 -114.55 -270.8 -132.5 -271.85 -133.4 -290.4 -124.5 -308.5 -92.15 -291.3 -71.3 -268.3 6.8 -316.45 76.05 -268.8 -14.1 -295.85 -76.5 -256.9 L-71.3 -268.3" fill="none" stroke="#000000" stroke-linecap="round" stroke-linejoin="round" stroke-width="5.0"/>
    </g>
  </defs>
</svg>
