<?xml version="1.0" encoding="UTF-8" standalone="no"?>
<svg xmlns:xlink="http://www.w3.org/1999/xlink" height="434.9px" width="399.95px" xmlns="http://www.w3.org/2000/svg">
  <g transform="matrix(1, 0, 0, 1, 210.75, 443.1)">
    <use height="103.15" transform="matrix(1.0, 0.0, 0.0, 1.0, -149.1, -351.55)" width="284.55" xlink:href="#shape0"/>
  </g>
  <defs>
    <g id="shape0" transform="matrix(1, 0, 0, 1, 149.1, 351.55)">
      <path d="M-79.25 -327.2 L-79.2 -327.2 -79.15 -327.15 -79.15 -327.1 -79.25 -327.2" fill="#880000" fill-rule="evenodd" stroke="none"/>
      <path d="M-79.15 -327.1 L-79.15 -327.15 -79.2 -327.2 -79.25 -327.2 Q-81.9 -324.85 -83.45 -321.6 -85.0 -318.35 -103.95 -308.05 -122.9 -297.8 -132.15 -285.95 -141.45 -274.1 -128.8 -250.9 -154.2 -274.65 -143.4 -287.5 -132.6 -300.35 -128.1 -312.7 -123.65 -325.05 -113.0 -328.8 -102.4 -332.6 -103.85 -336.3 -105.3 -340.0 -96.25 -337.8 -86.6 -349.15 -82.25 -344.85 -64.4 -331.15 -55.45 -310.25 -50.35 -303.65 -63.75 -300.75 L-78.6 -320.15 -78.6 -320.45 Q-78.4 -323.5 -79.15 -327.1" fill="#2b2b2b" fill-rule="evenodd" stroke="none"/>
      <path d="M-79.15 -327.1 Q-78.4 -323.5 -78.6 -320.45 -79.05 -314.7 -82.95 -311.2 -85.25 -309.3 -100.65 -298.75 -116.1 -288.2 -122.85 -277.2 -129.6 -266.2 -128.8 -250.9 -141.45 -274.1 -132.15 -285.95 -122.9 -297.8 -103.95 -308.05 -85.0 -318.35 -83.45 -321.6 -81.9 -324.85 -79.25 -327.2 L-79.15 -327.1" fill="#444444" fill-rule="evenodd" stroke="none"/>
      <path d="M-79.15 -327.1 Q-78.4 -323.5 -78.6 -320.45 M-78.6 -320.15 L-63.75 -300.75 Q-50.35 -303.65 -55.45 -310.25 -64.4 -331.15 -82.25 -344.85 -86.6 -349.15 -96.25 -337.8 -105.3 -340.0 -103.85 -336.3 -102.4 -332.6 -113.0 -328.8 -123.65 -325.05 -128.1 -312.7 -132.6 -300.35 -143.4 -287.5 -154.2 -274.65 -128.8 -250.9 -129.6 -266.2 -122.85 -277.2 -116.1 -288.2 -100.65 -298.75 -85.25 -309.3 -82.95 -311.2 -79.05 -314.7 -78.6 -320.45" fill="none" stroke="#000000" stroke-linecap="round" stroke-linejoin="round" stroke-width="5.0"/>
      <path d="M72.6 -330.2 L72.5 -330.1 72.5 -330.15 72.55 -330.2 72.6 -330.2" fill="#880000" fill-rule="evenodd" stroke="none"/>
      <path d="M71.9 -323.15 L57.1 -303.75 Q43.65 -306.65 48.75 -313.25 57.7 -334.15 75.6 -347.85 79.9 -352.15 89.6 -340.8 L96.65 -333.3 Q95.75 -334.35 106.3 -331.2 116.95 -328.05 124.2 -313.9 131.4 -299.8 129.8 -294.7 128.2 -289.6 131.4 -285.4 134.55 -281.25 131.4 -275.95 124.0 -263.55 122.15 -253.9 118.95 -267.9 119.0 -281.45 119.0 -294.95 98.65 -308.15 78.3 -321.35 76.75 -324.6 75.2 -327.85 72.6 -330.2 L72.55 -330.2 72.5 -330.15 72.5 -330.1 Q71.7 -326.5 71.95 -323.45 L71.9 -323.15" fill="#2b2b2b" fill-rule="evenodd" stroke="none"/>
      <path d="M122.15 -253.9 Q104.45 -270.95 105.65 -281.2 106.85 -291.45 92.7 -301.85 L76.3 -314.2 Q72.35 -317.7 71.95 -323.45 71.7 -326.5 72.5 -330.1 L72.6 -330.2 Q75.2 -327.85 76.75 -324.6 78.3 -321.35 98.65 -308.15 119.0 -294.95 119.0 -281.45 118.95 -267.9 122.15 -253.9" fill="#444444" fill-rule="evenodd" stroke="none"/>
      <path d="M71.9 -323.15 L57.1 -303.75 Q43.65 -306.65 48.75 -313.25 57.7 -334.15 75.6 -347.85 79.9 -352.15 89.6 -340.8 L96.65 -333.3 Q95.75 -334.35 106.3 -331.2 116.95 -328.05 124.2 -313.9 131.4 -299.8 129.8 -294.7 128.2 -289.6 131.4 -285.4 134.55 -281.25 131.4 -275.95 124.0 -263.55 122.15 -253.9 104.45 -270.95 105.65 -281.2 106.85 -291.45 92.7 -301.85 L76.3 -314.2 Q72.35 -317.7 71.95 -323.45 M72.5 -330.1 Q71.7 -326.5 71.95 -323.45" fill="none" stroke="#000000" stroke-linecap="round" stroke-linejoin="round" stroke-width="5.0"/>
    </g>
  </defs>
</svg>
