<?xml version="1.0" encoding="UTF-8" standalone="no"?>
<svg xmlns:xlink="http://www.w3.org/1999/xlink" height="434.9px" width="399.95px" xmlns="http://www.w3.org/2000/svg">
  <g transform="matrix(1, 0, 0, 1, 210.75, 443.1)">
    <use height="204.8" transform="matrix(1.0, 0.0, 0.0, 1.0, -139.3, -377.3)" width="238.9" xlink:href="#shape0"/>
  </g>
  <defs>
    <g id="shape0" transform="matrix(1, 0, 0, 1, 139.3, 377.3)">
      <path d="M-105.2 -253.95 Q-102.55 -273.6 -98.0 -294.0 -102.55 -273.6 -105.2 -253.95 -109.4 -223.3 -109.0 -194.5 -142.4 -229.8 -135.7 -274.05 -120.85 -372.45 -29.1 -374.8 44.65 -374.6 83.85 -302.4 11.75 -270.7 -105.2 -253.95" fill="#fbc8c8" fill-rule="evenodd" stroke="none"/>
      <path d="M-98.0 -294.0 Q-102.55 -273.6 -105.2 -253.95 11.75 -270.7 83.85 -302.4 44.65 -374.6 -29.1 -374.8 -120.85 -372.45 -135.7 -274.05 -142.4 -229.8 -109.0 -194.5 -109.4 -223.3 -105.2 -253.95" fill="none" stroke="#000000" stroke-linecap="round" stroke-linejoin="round" stroke-width="5.0"/>
      <path d="M97.1 -297.65 Q96.8 -293.5 92.95 -290.35 89.15 -287.2 84.05 -286.95 81.0 -286.8 78.55 -287.65 77.7 -284.6 74.75 -282.15 70.95 -279.0 65.85 -278.75 60.9 -278.5 57.5 -281.05 56.7 -277.9 53.7 -275.45 49.9 -272.3 44.75 -272.0 39.65 -271.75 36.2 -274.5 L35.35 -275.25 Q34.4 -272.5 31.7 -270.25 27.9 -267.1 22.8 -266.85 17.95 -266.6 14.6 -269.05 14.0 -265.5 10.6 -262.75 6.8 -259.6 1.7 -259.3 -3.45 -259.05 -6.9 -261.8 L-8.1 -262.95 Q-9.15 -260.9 -11.25 -259.15 -15.05 -256.0 -20.15 -255.75 -24.15 -255.55 -27.1 -257.15 -28.15 -255.1 -30.3 -253.35 -34.1 -250.2 -39.25 -249.9 -44.35 -249.65 -47.8 -252.4 L-48.95 -253.55 Q-49.85 -252.45 -51.05 -251.45 -54.85 -248.3 -59.95 -248.0 -63.65 -247.8 -66.45 -249.2 -67.4 -246.3 -70.2 -244.0 -74.0 -240.85 -79.1 -240.55 -84.25 -240.3 -87.7 -243.05 L-87.8 -243.15 -87.95 -243.05 Q-91.75 -239.9 -96.85 -239.6 -102.0 -239.35 -105.45 -242.15 -108.85 -244.85 -108.6 -249.0 -108.3 -253.2 -104.5 -256.35 -105.05 -257.85 -104.95 -259.6 -104.65 -263.8 -100.85 -266.95 -97.05 -270.1 -91.9 -270.35 -87.95 -270.6 -85.0 -269.0 L-82.9 -271.15 Q-79.1 -274.3 -73.95 -274.55 -68.85 -274.8 -65.4 -272.05 L-64.5 -271.25 Q-63.6 -272.6 -62.1 -273.85 -58.3 -277.0 -53.15 -277.25 -49.85 -277.45 -47.2 -276.35 -46.2 -278.55 -44.0 -280.4 -40.15 -283.55 -35.0 -283.8 -29.9 -284.1 -26.5 -281.35 L-25.0 -279.85 -23.3 -281.5 Q-19.45 -284.65 -14.3 -284.9 -9.2 -285.2 -5.8 -282.45 L-5.2 -281.95 -5.2 -282.55 Q-4.9 -286.75 -1.1 -289.9 2.7 -293.05 7.85 -293.3 12.7 -293.6 16.05 -291.1 16.65 -294.65 20.0 -297.45 23.85 -300.6 28.95 -300.85 34.1 -301.15 37.5 -298.4 38.45 -299.75 39.9 -300.9 43.7 -304.05 48.85 -304.3 53.95 -304.6 57.4 -301.85 L58.2 -301.1 Q59.15 -303.85 61.85 -306.05 65.65 -309.2 70.8 -309.5 L73.5 -309.4 73.75 -309.7 Q75.8 -311.75 78.35 -312.4 L81.35 -312.8 Q85.75 -312.85 88.9 -309.7 90.45 -308.1 91.25 -306.15 L93.9 -304.6 Q97.35 -301.85 97.1 -297.65 M79.5 -311.55 L78.35 -312.4 79.5 -311.55" fill="#fde8e8" fill-rule="evenodd" stroke="none"/>
      <path d="M97.1 -297.65 Q96.8 -293.5 92.95 -290.35 89.15 -287.2 84.05 -286.95 81.0 -286.8 78.55 -287.65 77.7 -284.6 74.75 -282.15 70.95 -279.0 65.85 -278.75 60.9 -278.5 57.5 -281.05 56.7 -277.9 53.7 -275.45 49.9 -272.3 44.75 -272.0 39.65 -271.75 36.2 -274.5 L35.35 -275.25 Q34.4 -272.5 31.7 -270.25 27.9 -267.1 22.8 -266.85 17.95 -266.6 14.6 -269.05 14.0 -265.5 10.6 -262.75 6.8 -259.6 1.7 -259.3 -3.45 -259.05 -6.9 -261.8 L-8.1 -262.95 Q-9.15 -260.9 -11.25 -259.15 -15.05 -256.0 -20.15 -255.75 -24.15 -255.55 -27.1 -257.15 -28.15 -255.1 -30.3 -253.35 -34.1 -250.2 -39.25 -249.9 -44.35 -249.65 -47.8 -252.4 L-48.95 -253.55 Q-49.85 -252.45 -51.05 -251.45 -54.85 -248.3 -59.95 -248.0 -63.65 -247.8 -66.45 -249.2 -67.4 -246.3 -70.2 -244.0 -74.0 -240.85 -79.1 -240.55 -84.25 -240.3 -87.7 -243.05 L-87.8 -243.15 -87.95 -243.05 Q-91.75 -239.9 -96.85 -239.6 -102.0 -239.35 -105.45 -242.15 -108.85 -244.85 -108.6 -249.0 -108.3 -253.2 -104.5 -256.35 -105.05 -257.85 -104.95 -259.6 -104.65 -263.8 -100.85 -266.95 -97.05 -270.1 -91.9 -270.35 -87.95 -270.6 -85.0 -269.0 L-82.9 -271.15 Q-79.1 -274.3 -73.95 -274.55 -68.85 -274.8 -65.4 -272.05 L-64.5 -271.25 Q-63.6 -272.6 -62.1 -273.85 -58.3 -277.0 -53.15 -277.25 -49.85 -277.45 -47.2 -276.35 -46.2 -278.55 -44.0 -280.4 -40.15 -283.55 -35.0 -283.8 -29.9 -284.1 -26.5 -281.35 L-25.0 -279.85 -23.3 -281.5 Q-19.45 -284.65 -14.3 -284.9 -9.2 -285.2 -5.8 -282.45 L-5.2 -281.95 -5.2 -282.55 Q-4.9 -286.75 -1.1 -289.9 2.7 -293.05 7.85 -293.3 12.7 -293.6 16.05 -291.1 16.65 -294.65 20.0 -297.45 23.85 -300.6 28.95 -300.85 34.1 -301.15 37.5 -298.4 38.45 -299.75 39.9 -300.9 43.7 -304.05 48.85 -304.3 53.95 -304.6 57.4 -301.85 L58.2 -301.1 Q59.15 -303.85 61.85 -306.05 65.65 -309.2 70.8 -309.5 L73.5 -309.4 73.75 -309.7 Q75.8 -311.75 78.35 -312.4 L81.35 -312.8 Q85.75 -312.85 88.9 -309.7 90.45 -308.1 91.25 -306.15 L93.9 -304.6 Q97.35 -301.85 97.1 -297.65 M78.35 -312.4 L79.5 -311.55" fill="none" stroke="#000000" stroke-linecap="round" stroke-linejoin="round" stroke-width="5.0"/>
      <path d="M-2.25 -365.05 Q-4.9 -363.7 -7.2 -361.4 -12.7 -355.95 -12.7 -348.1 -12.7 -340.25 -7.2 -334.8 -1.7 -329.3 6.1 -329.25 13.9 -329.3 19.4 -334.8 L21.35 -337.0 Q20.9 -326.85 13.55 -319.55 5.7 -311.75 -5.35 -311.7 -16.35 -311.75 -24.15 -319.6 -32.0 -327.45 -32.05 -338.5 -32.0 -349.5 -24.25 -357.35 -16.4 -365.15 -5.35 -365.2 L-2.25 -365.05" fill="#f9ffbb" fill-rule="evenodd" stroke="none"/>
      <path d="M-70.7 -297.35 L-61.35 -288.9 -73.9 -289.6 -79.0 -278.05 -82.3 -290.25 -94.8 -291.55 -84.25 -298.35 -86.85 -310.7 -77.05 -302.8 -66.15 -309.05 -70.7 -297.35" fill="#f9ffbb" fill-rule="evenodd" stroke="none"/>
      <path d="M-103.45 -201.75 L-102.35 -200.45 Q-98.9 -200.2 -96.45 -197.75 -93.65 -194.95 -93.65 -191.0 -93.65 -187.05 -96.45 -184.3 L-98.25 -182.8 Q-98.75 -179.95 -100.95 -177.8 -103.7 -175.0 -107.65 -175.0 -111.6 -175.0 -114.4 -177.8 L-115.55 -179.15 Q-118.3 -179.7 -120.4 -181.8 -123.15 -184.55 -123.15 -188.5 -123.15 -192.45 -120.4 -195.25 L-119.6 -195.95 Q-119.3 -199.3 -116.9 -201.75 -114.1 -204.5 -110.15 -204.5 -106.2 -204.5 -103.45 -201.75" fill="#fde8e8" fill-rule="evenodd" stroke="none"/>
      <path d="M-103.45 -201.75 L-102.35 -200.45 Q-98.9 -200.2 -96.45 -197.75 -93.65 -194.95 -93.65 -191.0 -93.65 -187.05 -96.45 -184.3 L-98.25 -182.8 Q-98.75 -179.95 -100.95 -177.8 -103.7 -175.0 -107.65 -175.0 -111.6 -175.0 -114.4 -177.8 L-115.55 -179.15 Q-118.3 -179.7 -120.4 -181.8 -123.15 -184.55 -123.15 -188.5 -123.15 -192.45 -120.4 -195.25 L-119.6 -195.95 Q-119.3 -199.3 -116.9 -201.75 -114.1 -204.5 -110.15 -204.5 -106.2 -204.5 -103.45 -201.75" fill="none" stroke="#000000" stroke-linecap="round" stroke-linejoin="round" stroke-width="5.0"/>
    </g>
  </defs>
</svg>
