<?xml version="1.0" encoding="UTF-8" standalone="no"?>
<svg xmlns:xlink="http://www.w3.org/1999/xlink" height="434.9px" width="399.95px" xmlns="http://www.w3.org/2000/svg">
  <g transform="matrix(1, 0, 0, 1, 210.75, 443.1)">
    <use height="58.7" transform="matrix(1.0, 0.0, 0.0, 1.0, -82.8, -339.05)" width="167.4" xlink:href="#shape0"/>
  </g>
  <defs>
    <g id="shape0" transform="matrix(1, 0, 0, 1, 82.8, 339.05)">
      <path d="M75.4 -293.9 Q78.9 -307.2 77.65 -321.2 L63.25 -302.3 Q60.55 -303.55 57.65 -304.4 L80.85 -335.1 Q84.95 -309.35 79.4 -289.05 L75.4 -293.9 M-66.5 -288.95 Q-68.95 -285.55 -70.2 -282.35 -85.4 -306.0 -78.85 -337.05 L-50.2 -306.75 Q-54.5 -303.9 -57.85 -300.7 L-74.9 -320.95 Q-74.75 -302.0 -66.5 -288.95" fill="#592f2f" fill-rule="evenodd" stroke="none"/>
      <path d="M63.25 -302.3 L77.65 -321.2 Q78.9 -307.2 75.4 -293.9 70.25 -299.15 63.25 -302.3 M-66.5 -288.95 Q-74.75 -302.0 -74.9 -320.95 L-57.85 -300.7 Q-63.55 -295.3 -66.5 -288.95" fill="#280000" fill-rule="evenodd" stroke="none"/>
      <path d="M63.25 -302.3 L77.65 -321.2 Q78.9 -307.2 75.4 -293.9 L79.4 -289.05 Q84.95 -309.35 80.85 -335.1 L57.65 -304.4 Q60.55 -303.55 63.25 -302.3 70.25 -299.15 75.4 -293.9 M-57.85 -300.7 Q-54.5 -303.9 -50.2 -306.75 L-78.85 -337.05 Q-85.4 -306.0 -70.2 -282.35 -68.95 -285.55 -66.5 -288.95 -74.75 -302.0 -74.9 -320.95 L-57.85 -300.7 Q-63.55 -295.3 -66.5 -288.95" fill="none" stroke="#000000" stroke-linecap="round" stroke-linejoin="round" stroke-width="4.0"/>
    </g>
  </defs>
</svg>
