<?xml version="1.0" encoding="UTF-8" standalone="no"?>
<svg xmlns:xlink="http://www.w3.org/1999/xlink" height="434.9px" width="399.95px" xmlns="http://www.w3.org/2000/svg">
  <g transform="matrix(1, 0, 0, 1, 210.75, 443.1)">
    <use height="123.8" transform="matrix(1.0, 0.0, 0.0, 1.0, -105.05, -367.95)" width="196.7" xlink:href="#shape0"/>
  </g>
  <defs>
    <g id="shape0" transform="matrix(1, 0, 0, 1, 105.05, 367.95)">
      <path d="M90.5 -311.7 Q91.65 -310.0 91.65 -308.15 L91.4 -305.3 Q91.6 -304.55 90.15 -304.35 90.7 -303.5 90.7 -301.7 L90.7 -285.2 90.45 -265.75 Q89.45 -265.15 88.65 -264.85 L88.8 -264.1 Q88.8 -263.0 86.45 -263.0 83.35 -265.0 77.1 -266.95 64.5 -270.95 47.35 -270.95 -2.55 -270.95 -36.3 -262.35 -64.15 -255.25 -75.25 -244.15 -77.2 -244.85 -77.45 -246.5 L-93.35 -264.85 Q-95.25 -265.6 -95.4 -267.35 L-100.15 -273.35 -100.2 -273.35 -102.0 -273.8 -102.75 -274.25 Q-102.95 -274.45 -102.95 -275.95 L-102.8 -276.55 Q-104.5 -277.6 -104.9 -280.45 -105.25 -282.65 -104.85 -285.1 -104.85 -289.65 -104.1 -290.75 -101.6 -294.5 -91.65 -294.5 -91.4 -295.55 -91.6 -297.8 -91.75 -299.75 -91.3 -300.65 -90.4 -302.65 -85.1 -303.2 L-79.65 -311.8 -71.25 -324.4 Q-63.25 -339.25 -52.55 -342.65 -48.5 -343.95 -42.85 -344.05 L-32.85 -343.9 Q-5.4 -343.9 17.3 -336.9 32.1 -332.3 62.85 -317.75 66.4 -317.0 68.85 -315.3 L71.5 -313.15 Q72.7 -312.15 73.7 -312.15 78.15 -312.15 80.7 -313.4 83.25 -314.65 83.7 -314.65 88.45 -314.65 90.5 -311.7 M86.4 -306.25 L86.8 -306.2 86.4 -306.95 Q85.2 -309.55 83.6 -309.55 81.75 -309.55 80.05 -307.9 79.1 -307.0 77.3 -306.55 L86.4 -306.25 M-72.8 -309.9 Q-66.35 -309.9 -62.8 -311.2 L-57.25 -314.4 Q-52.85 -316.55 -46.05 -316.55 -33.1 -314.3 -30.75 -314.3 L-13.65 -316.55 8.3 -314.3 Q11.7 -314.3 16.35 -316.85 20.95 -319.4 25.25 -319.4 31.7 -319.4 33.45 -317.6 L34.25 -316.4 Q34.6 -315.85 35.35 -315.85 46.7 -315.85 48.8 -317.15 49.85 -317.8 51.6 -318.1 L52.0 -318.2 51.55 -318.4 Q41.75 -323.15 32.25 -326.7 -0.2 -338.75 -33.0 -338.75 -46.1 -338.75 -53.4 -335.45 -59.45 -332.75 -63.7 -326.6 L-71.3 -313.55 -73.35 -310.25 -73.8 -309.6 -72.8 -309.9 M71.5 -307.35 Q70.6 -308.0 68.25 -309.8 63.1 -313.35 56.75 -313.35 43.2 -311.0 40.85 -311.0 33.1 -311.0 31.15 -312.7 30.5 -314.45 29.3 -314.45 20.7 -314.45 16.95 -311.75 14.75 -310.2 14.2 -309.95 12.35 -309.1 9.25 -309.1 L-12.8 -311.45 -30.0 -309.1 Q-37.5 -309.1 -41.05 -311.7 L-55.65 -311.15 Q-56.2 -310.9 -56.75 -309.95 -57.4 -308.7 -58.75 -307.65 L-59.15 -307.25 Q-59.0 -307.45 -59.4 -307.5 -61.25 -307.75 -72.9 -303.85 -72.9 -303.25 -71.95 -301.45 L-71.65 -300.85 -66.8 -301.8 -20.65 -306.7 Q-20.65 -306.95 32.85 -307.2 L71.5 -306.7 72.55 -306.65 71.5 -307.35 M16.5 -292.75 Q-43.85 -291.3 -49.4 -288.9 -54.95 -286.5 -61.15 -286.5 L-64.4 -286.75 -52.25 -264.2 -52.4 -262.15 -46.95 -263.95 Q-8.4 -276.05 46.9 -276.05 74.65 -276.05 83.9 -271.05 86.05 -269.9 87.2 -268.45 85.75 -274.4 85.75 -282.95 L85.7 -292.35 Q83.0 -292.15 79.95 -293.15 76.85 -294.2 16.5 -292.75 M85.7 -295.9 L85.7 -302.1 -21.1 -302.1 Q-37.0 -301.6 -55.4 -298.2 L-69.7 -295.55 -65.9 -289.4 Q-62.9 -290.9 -30.95 -296.4 -30.95 -296.6 27.65 -296.85 75.65 -296.5 85.7 -295.9 M-77.65 -299.05 L-83.5 -297.95 -83.7 -297.8 -83.95 -297.9 -87.0 -297.35 Q-87.0 -296.6 -86.05 -294.25 -85.4 -292.5 -85.5 -291.45 L-77.0 -297.25 Q-77.5 -298.0 -77.65 -299.05 M-78.5 -303.35 L-77.45 -303.25 -77.3 -304.85 -78.5 -303.35 M-95.8 -275.95 Q-95.0 -274.3 -92.95 -271.6 -90.65 -274.05 -86.25 -277.65 -76.6 -285.6 -70.4 -286.45 L-74.3 -293.7 Q-77.75 -290.65 -84.65 -284.85 -91.9 -278.85 -95.8 -275.95 M-99.05 -281.05 Q-95.7 -284.15 -89.35 -288.75 L-100.2 -287.95 -100.2 -283.65 -99.05 -281.05 M-86.95 -264.3 L-75.3 -250.5 Q-73.45 -252.2 -69.95 -254.3 -63.8 -257.95 -54.9 -261.25 -57.2 -262.75 -66.1 -278.65 L-68.8 -283.5 -70.8 -282.25 Q-76.95 -278.25 -89.75 -267.6 L-86.95 -264.3" fill="#000000" fill-rule="evenodd" stroke="none"/>
      <path d="M51.6 -318.1 Q49.85 -317.8 48.8 -317.15 46.7 -315.85 35.35 -315.85 34.6 -315.85 34.25 -316.4 L33.45 -317.6 Q31.7 -319.4 25.25 -319.4 20.95 -319.4 16.35 -316.85 11.7 -314.3 8.3 -314.3 L-13.65 -316.55 -30.75 -314.3 Q-33.1 -314.3 -46.05 -316.55 -52.85 -316.55 -57.25 -314.4 L-62.8 -311.2 Q-66.35 -309.9 -72.8 -309.9 L-73.35 -310.25 -71.3 -313.55 -63.7 -326.6 Q-59.45 -332.75 -53.4 -335.45 -46.1 -338.75 -33.0 -338.75 -0.2 -338.75 32.25 -326.7 41.75 -323.15 51.55 -318.4 L51.6 -318.1 M16.5 -292.75 Q76.85 -294.2 79.95 -293.15 83.0 -292.15 85.7 -292.35 L85.75 -282.95 Q85.75 -274.4 87.2 -268.45 86.05 -269.9 83.9 -271.05 74.65 -276.05 46.9 -276.05 -8.4 -276.05 -46.95 -263.95 L-52.4 -262.15 -52.25 -264.2 -64.4 -286.75 -61.15 -286.5 Q-54.95 -286.5 -49.4 -288.9 -43.85 -291.3 16.5 -292.75 M-86.95 -264.3 L-89.75 -267.6 Q-76.95 -278.25 -70.8 -282.25 L-68.8 -283.5 -66.1 -278.65 Q-57.2 -262.75 -54.9 -261.25 -63.8 -257.95 -69.95 -254.3 -73.45 -252.2 -75.3 -250.5 L-86.95 -264.3" fill="#ee0000" fill-rule="evenodd" stroke="none"/>
      <path d="M86.4 -306.95 L86.4 -306.25 77.3 -306.55 Q79.1 -307.0 80.05 -307.9 81.75 -309.55 83.6 -309.55 85.2 -309.55 86.4 -306.95 M71.5 -306.7 L32.85 -307.2 Q-20.65 -306.95 -20.65 -306.7 L-66.8 -301.8 -71.65 -300.85 -71.95 -301.45 Q-72.9 -303.25 -72.9 -303.85 -61.25 -307.75 -59.4 -307.5 -59.0 -307.45 -59.15 -307.25 L-58.75 -307.65 Q-57.4 -308.7 -56.75 -309.95 -56.2 -310.9 -55.65 -311.15 L-41.05 -311.7 Q-37.5 -309.1 -30.0 -309.1 L-12.8 -311.45 9.25 -309.1 Q12.35 -309.1 14.2 -309.95 14.75 -310.2 16.95 -311.75 20.7 -314.45 29.3 -314.45 30.5 -314.45 31.15 -312.7 33.1 -311.0 40.85 -311.0 43.2 -311.0 56.75 -313.35 63.1 -313.35 68.25 -309.8 70.6 -308.0 71.5 -307.35 L71.5 -306.7 M-77.65 -299.05 Q-77.5 -298.0 -77.0 -297.25 L-85.5 -291.45 Q-85.4 -292.5 -86.05 -294.25 -87.0 -296.6 -87.0 -297.35 L-83.95 -297.9 -83.7 -297.8 -83.5 -297.95 -77.65 -299.05 M-99.05 -281.05 L-100.2 -283.65 -100.2 -287.95 -89.35 -288.75 Q-95.7 -284.15 -99.05 -281.05" fill="#ffffff" fill-rule="evenodd" stroke="none"/>
      <path d="M85.7 -295.9 Q75.65 -296.5 27.65 -296.85 -30.95 -296.6 -30.95 -296.4 -62.9 -290.9 -65.9 -289.4 L-69.7 -295.55 -55.4 -298.2 Q-37.0 -301.6 -21.1 -302.1 L85.7 -302.1 85.7 -295.9 M-95.8 -275.95 Q-91.9 -278.85 -84.65 -284.85 -77.75 -290.65 -74.3 -293.7 L-70.4 -286.45 Q-76.6 -285.6 -86.25 -277.65 -90.65 -274.05 -92.95 -271.6 -95.0 -274.3 -95.8 -275.95" fill="#2b2b2b" fill-rule="evenodd" stroke="none"/>
      <path d="M-37.05 -355.75 L-36.85 -356.2 -37.05 -356.2 Q-39.8 -356.35 -44.75 -355.0 -49.95 -353.65 -50.45 -353.65 L-51.25 -353.8 -52.1 -353.8 Q-52.7 -353.85 -56.25 -357.6 L-61.6 -363.1 Q-62.2 -355.25 -62.7 -351.05 L-63.2 -350.8 -63.75 -349.95 Q-64.75 -349.05 -73.65 -347.95 L-74.1 -347.75 -73.95 -347.6 Q-72.05 -345.7 -67.45 -343.35 -62.75 -340.95 -62.35 -340.55 L-61.85 -339.9 -61.2 -339.35 Q-60.85 -338.95 -60.75 -333.75 L-60.45 -326.1 Q-55.8 -330.55 -51.55 -334.0 -51.4 -334.65 -49.7 -335.6 L-49.25 -335.9 -48.9 -336.05 -48.8 -336.0 -48.55 -336.0 Q-45.2 -336.7 -33.1 -335.9 L-31.95 -336.55 -41.55 -345.35 Q-42.55 -345.75 -42.9 -346.55 L-43.15 -346.7 -43.05 -346.95 -43.05 -347.65 Q-43.0 -349.0 -37.05 -355.75 M-38.15 -347.4 Q-34.15 -344.35 -25.8 -333.95 L-25.8 -333.15 Q-25.95 -332.7 -27.0 -332.4 -29.95 -331.75 -41.1 -332.55 L-48.3 -333.55 Q-48.75 -332.7 -49.75 -332.65 -50.7 -330.85 -51.7 -329.65 L-55.1 -326.25 -61.25 -320.6 -62.85 -321.8 Q-63.6 -322.6 -64.05 -324.0 -65.2 -321.85 -68.25 -317.45 L-73.85 -309.2 Q-74.2 -309.0 -74.9 -308.95 -76.7 -311.65 -76.3 -315.9 L-75.65 -323.0 Q-77.75 -321.5 -80.95 -317.25 -84.1 -313.1 -86.0 -311.8 -87.55 -316.25 -87.0 -323.05 -86.75 -326.85 -85.3 -334.3 L-87.65 -331.25 -88.7 -331.0 Q-90.45 -332.05 -90.05 -337.6 -89.45 -345.65 -82.0 -352.7 -77.2 -357.25 -65.0 -364.9 L-64.7 -367.75 -62.7 -367.95 Q-58.35 -367.6 -50.9 -357.25 L-45.45 -358.8 Q-38.3 -360.5 -35.85 -360.3 -32.15 -360.05 -33.3 -356.65 -33.45 -354.75 -36.0 -350.45 -37.1 -348.6 -38.15 -347.4 M-65.45 -359.45 L-65.4 -359.8 -65.9 -359.5 -73.95 -354.3 Q-85.8 -346.75 -86.3 -339.95 L-86.35 -338.9 -86.0 -338.95 Q-83.4 -340.45 -82.05 -340.35 L-80.35 -339.9 Q-79.95 -340.15 -80.05 -338.35 -80.15 -337.25 -81.05 -334.95 -81.95 -332.65 -82.7 -331.6 L-82.85 -330.45 -82.95 -328.75 -83.55 -320.85 -78.9 -325.15 Q-76.05 -327.75 -74.4 -328.35 L-73.45 -328.55 -73.35 -328.5 -73.3 -328.55 Q-72.5 -328.45 -72.05 -327.7 L-71.75 -327.05 -71.8 -327.0 -71.6 -325.9 -71.6 -325.25 -71.6 -324.9 -71.6 -324.85 -72.3 -320.2 -71.95 -320.0 Q-71.5 -320.9 -68.5 -323.6 -64.4 -328.55 -64.8 -329.3 L-64.85 -329.35 Q-64.95 -331.85 -64.65 -335.1 L-64.4 -337.6 -64.5 -337.6 -65.3 -337.95 Q-66.95 -338.7 -69.4 -340.0 L-69.5 -340.05 -70.65 -340.7 -73.0 -342.1 -76.4 -344.35 -76.8 -344.6 -77.1 -344.95 -77.6 -345.35 -77.65 -345.45 -77.7 -345.5 Q-78.45 -346.3 -78.65 -347.0 L-78.7 -348.1 Q-78.45 -349.05 -77.05 -349.8 -76.0 -350.85 -72.7 -352.0 L-70.9 -352.6 -70.8 -352.6 -70.55 -352.7 -67.65 -353.3 -66.8 -353.45 -66.25 -353.45 -65.7 -353.45 -65.6 -353.45 -65.6 -353.5 -65.65 -353.85 -65.65 -354.2 -65.7 -354.55 -65.7 -354.65 -65.65 -356.35 -65.5 -358.75 -65.45 -358.95 -65.45 -359.2 -65.45 -359.4 -65.45 -359.45 M-66.35 -329.1 L-65.9 -329.2 -66.45 -329.0 -66.35 -329.1" fill="#000000" fill-rule="evenodd" stroke="none"/>
      <path d="M-37.05 -356.2 L-37.05 -355.75 Q-43.0 -349.0 -43.05 -347.65 L-43.05 -346.95 -43.15 -346.7 -42.9 -346.55 Q-42.55 -345.75 -41.55 -345.35 L-31.95 -336.55 -33.1 -335.9 Q-45.2 -336.7 -48.55 -336.0 L-48.9 -336.05 -49.25 -335.9 -49.7 -335.6 Q-51.4 -334.65 -51.55 -334.0 -55.8 -330.55 -60.45 -326.1 L-60.75 -333.75 Q-60.85 -338.95 -61.2 -339.35 L-61.85 -339.9 -62.35 -340.55 Q-62.75 -340.95 -67.45 -343.35 -72.05 -345.7 -73.95 -347.6 L-73.65 -347.95 Q-64.75 -349.05 -63.75 -349.95 L-63.2 -350.8 -62.7 -351.05 Q-62.2 -355.25 -61.6 -363.1 L-56.25 -357.6 Q-52.7 -353.85 -52.1 -353.8 L-51.25 -353.8 -50.45 -353.65 Q-49.95 -353.65 -44.75 -355.0 -39.8 -356.35 -37.05 -356.2" fill="#33ff00" fill-rule="evenodd" stroke="none"/>
      <path d="M-65.45 -359.45 L-65.45 -359.4 -65.45 -359.2 -65.45 -358.95 -65.5 -358.75 -65.65 -356.35 Q-68.95 -354.75 -72.7 -352.0 -76.0 -350.85 -77.05 -349.8 -78.45 -349.05 -78.7 -348.1 L-78.65 -347.0 Q-82.05 -343.7 -82.2 -341.5 -82.25 -340.95 -81.9 -340.55 L-81.05 -340.3 Q-79.7 -340.2 -76.8 -344.6 L-76.4 -344.35 -73.0 -342.1 -78.15 -336.5 -82.85 -330.45 -82.7 -331.6 Q-81.95 -332.65 -81.05 -334.95 -80.15 -337.25 -80.05 -338.35 -79.95 -340.15 -80.35 -339.9 L-82.05 -340.35 Q-83.4 -340.45 -86.0 -338.95 L-86.35 -338.9 -86.3 -339.95 Q-85.8 -346.75 -73.95 -354.3 L-65.9 -359.5 -65.45 -359.45 M-65.65 -354.2 L-65.65 -353.85 -65.6 -353.5 -65.6 -353.45 -65.7 -353.45 -66.25 -353.45 -66.8 -353.45 -65.65 -354.2 M-70.65 -340.7 L-69.5 -340.05 -69.4 -340.0 Q-66.95 -338.7 -65.3 -337.95 -67.45 -336.15 -70.9 -332.25 L-74.4 -328.35 Q-76.05 -327.75 -78.9 -325.15 L-83.55 -320.85 -82.95 -328.75 -81.95 -328.45 Q-73.35 -337.25 -70.65 -340.7 M-64.65 -335.1 Q-64.95 -331.85 -64.85 -329.35 L-64.8 -329.3 Q-64.4 -328.55 -68.5 -323.6 -71.5 -320.9 -71.95 -320.0 L-72.3 -320.2 -71.6 -324.85 -71.6 -324.9 -71.6 -325.25 -71.6 -325.9 -71.8 -327.0 -71.75 -327.05 -72.05 -327.7 Q-67.0 -332.55 -64.65 -335.1 M-64.85 -329.25 L-64.95 -329.25 -64.85 -329.25 M-66.35 -329.1 L-66.45 -329.0 -65.9 -329.2 -66.35 -329.1" fill="#71fe4e" fill-rule="evenodd" stroke="none"/>
      <path d="M-65.65 -356.35 L-65.7 -354.65 -65.7 -354.55 -65.65 -354.2 -66.8 -353.45 -67.65 -353.3 -70.55 -352.7 -70.8 -352.6 -70.9 -352.6 -72.7 -352.0 Q-68.95 -354.75 -65.65 -356.35 M-78.65 -347.0 Q-78.45 -346.3 -77.7 -345.5 L-77.65 -345.45 -77.6 -345.35 -77.1 -344.95 -76.8 -344.6 Q-79.7 -340.2 -81.05 -340.3 L-81.9 -340.55 Q-82.25 -340.95 -82.2 -341.5 -82.05 -343.7 -78.65 -347.0 M-73.0 -342.1 L-70.65 -340.7 Q-73.35 -337.25 -81.95 -328.45 L-82.95 -328.75 -82.85 -330.45 -78.15 -336.5 -73.0 -342.1 M-65.3 -337.95 L-64.5 -337.6 -64.4 -337.6 -64.65 -335.1 Q-67.0 -332.55 -72.05 -327.7 -72.5 -328.45 -73.3 -328.55 L-73.35 -328.5 -73.45 -328.55 -74.4 -328.35 -70.9 -332.25 Q-67.45 -336.15 -65.3 -337.95" fill="#a2fe89" fill-rule="evenodd" stroke="none"/>
    </g>
  </defs>
</svg>
