<?xml version="1.0" encoding="UTF-8" standalone="no"?>
<svg xmlns:xlink="http://www.w3.org/1999/xlink" height="434.9px" width="399.95px" xmlns="http://www.w3.org/2000/svg">
  <g transform="matrix(1, 0, 0, 1, 210.75, 443.1)">
    <use height="74.35" transform="matrix(1.0, 0.0, 0.0, 1.0, -127.25, -378.9)" width="175.15" xlink:href="#shape0"/>
  </g>
  <defs>
    <g id="shape0" transform="matrix(1, 0, 0, 1, 127.25, 378.9)">
      <path d="M-15.05 -331.05 L-13.7 -334.8 Q-9.35 -347.3 -8.4 -349.1 -5.85 -354.0 -4.45 -355.7 -1.05 -359.85 4.6 -361.8 L14.95 -367.35 Q19.75 -369.45 30.7 -371.4 L42.5 -373.5 41.9 -371.6 Q39.05 -361.75 36.15 -355.8 24.55 -332.4 -2.1 -328.1 L-6.95 -327.5 Q0.55 -330.0 5.6 -342.4 5.5 -345.15 2.95 -344.7 1.65 -344.5 0.2 -342.65 -2.1 -339.8 -5.0 -337.5 -5.7 -336.95 -12.4 -332.85 L-15.05 -331.05 M-44.3 -317.2 L-44.6 -317.05 -44.9 -316.85 Q-55.45 -311.3 -64.1 -309.9 -90.05 -305.8 -109.35 -328.2 -114.75 -334.45 -120.4 -344.0 L-122.7 -347.75 -120.85 -347.75 Q-105.4 -347.9 -84.4 -346.75 -67.9 -345.95 -58.4 -340.85 -50.0 -336.35 -40.65 -327.7 L-40.4 -327.45 -38.0 -325.1 -37.3 -324.45 -44.5 -326.15 -54.8 -328.4 Q-57.25 -328.0 -56.8 -325.2 -56.45 -322.75 -53.1 -320.15 -49.55 -317.5 -44.3 -317.2 M-30.65 -324.1 L-30.7 -325.2 Q-30.85 -327.45 -26.0 -328.2 -24.35 -328.5 -22.75 -327.7 L-21.5 -327.15 -21.65 -326.6 Q-22.65 -325.35 -29.85 -324.15 L-30.65 -324.1" fill="#ffde8f" fill-rule="evenodd" stroke="none"/>
      <path d="M47.85 -376.3 Q48.1 -374.75 45.9 -368.05 42.95 -359.3 38.25 -351.5 23.6 -327.45 -1.4 -323.5 -12.85 -321.7 -18.4 -323.5 -19.95 -321.15 -25.8 -320.2 L-31.75 -319.85 Q-33.4 -317.65 -41.85 -313.1 -53.65 -306.85 -63.95 -305.2 -86.5 -301.6 -106.85 -318.25 -115.15 -325.05 -120.75 -333.5 -126.05 -341.55 -127.1 -348.25 L-127.15 -348.55 -127.2 -348.7 Q-127.4 -349.95 -126.65 -350.55 -126.2 -351.0 -125.35 -351.15 L-125.3 -351.15 -125.05 -351.2 Q-82.2 -358.0 -53.15 -343.45 -43.05 -338.35 -36.35 -331.5 L-34.5 -329.5 Q-32.5 -331.95 -26.35 -332.9 -22.15 -333.6 -20.05 -332.0 L-17.35 -339.25 Q-13.4 -349.5 -12.15 -351.5 L-10.65 -355.05 Q-8.55 -358.85 -4.0 -362.35 10.2 -373.3 44.0 -378.65 L44.95 -378.75 45.15 -378.85 Q47.7 -379.25 47.85 -376.3 M-6.95 -327.5 L-2.1 -328.1 Q24.55 -332.4 36.15 -355.8 39.05 -361.75 41.9 -371.6 L42.5 -373.5 30.7 -371.4 Q19.75 -369.45 14.95 -367.35 L4.6 -361.8 Q-1.05 -359.85 -4.45 -355.7 -5.85 -354.0 -8.4 -349.1 -9.35 -347.3 -13.7 -334.8 L-15.05 -331.05 -16.3 -328.05 -13.6 -327.6 Q-11.15 -327.15 -6.95 -327.5 M-37.3 -324.45 L-38.0 -325.1 -40.4 -327.45 -40.65 -327.7 Q-50.0 -336.35 -58.4 -340.85 -67.9 -345.95 -84.4 -346.75 -105.4 -347.9 -120.85 -347.75 L-122.7 -347.75 -120.4 -344.0 Q-114.75 -334.45 -109.35 -328.2 -90.05 -305.8 -64.1 -309.9 -55.45 -311.3 -44.9 -316.85 L-44.6 -317.05 -44.3 -317.2 -35.2 -322.45 -37.3 -324.45 M-30.65 -324.1 L-29.85 -324.15 Q-22.65 -325.35 -21.65 -326.6 L-21.5 -327.15 -22.75 -327.7 Q-24.35 -328.5 -26.0 -328.2 -30.85 -327.45 -30.7 -325.2 L-30.65 -324.1" fill="#000000" fill-rule="evenodd" stroke="none"/>
      <path d="M-15.05 -331.05 L-12.4 -332.85 Q-5.7 -336.95 -5.0 -337.5 -2.1 -339.8 0.2 -342.65 1.65 -344.5 2.95 -344.7 5.5 -345.15 5.6 -342.4 0.55 -330.0 -6.95 -327.5 -11.15 -327.15 -13.6 -327.6 L-16.3 -328.05 -15.05 -331.05 M-44.3 -317.2 Q-49.55 -317.5 -53.1 -320.15 -56.45 -322.75 -56.8 -325.2 -57.25 -328.0 -54.8 -328.4 L-44.5 -326.15 -37.3 -324.45 -35.2 -322.45 -44.3 -317.2" fill="#fecb56" fill-rule="evenodd" stroke="none"/>
    </g>
  </defs>
</svg>
