<?xml version="1.0" encoding="UTF-8" standalone="no"?>
<svg xmlns:xlink="http://www.w3.org/1999/xlink" height="434.9px" width="399.95px" xmlns="http://www.w3.org/2000/svg">
  <g transform="matrix(1, 0, 0, 1, 210.75, 443.1)">
    <use height="39.3" transform="matrix(1.0, 0.0, 0.0, 1.0, -60.4, -353.95)" width="115.35" xlink:href="#shape0"/>
  </g>
  <defs>
    <g id="shape0" transform="matrix(1, 0, 0, 1, 60.4, 353.95)">
      <path d="M36.65 -319.65 Q20.35 -314.65 -2.75 -314.65 -25.85 -314.65 -42.15 -319.65 -61.0 -325.4 -60.4 -334.25 L-60.4 -334.35 Q-61.0 -343.2 -42.15 -348.95 -25.85 -354.0 -2.75 -353.95 20.35 -354.0 36.65 -348.95 55.55 -343.2 54.95 -334.35 L54.95 -334.25 Q55.5 -325.4 36.65 -319.65 M31.2 -340.35 Q17.15 -344.0 -2.75 -344.0 -22.65 -344.0 -36.7 -340.35 -47.75 -337.5 -48.6 -334.25 -47.75 -331.0 -36.7 -328.15 -22.65 -324.5 -2.75 -324.45 17.15 -324.5 31.2 -328.15 42.25 -331.0 43.15 -334.25 42.25 -337.5 31.2 -340.35 M51.2 -334.3 Q51.2 -341.15 35.4 -345.95 19.6 -350.8 -2.75 -350.8 -25.1 -350.8 -40.9 -345.95 -56.7 -341.15 -56.7 -334.3 -56.7 -327.5 -40.9 -322.65 -25.1 -317.85 -2.75 -317.85 19.6 -317.85 35.4 -322.65 51.2 -327.5 51.2 -334.3 M46.9 -334.25 Q46.85 -328.9 32.35 -325.1 17.8 -321.3 -2.75 -321.3 -23.3 -321.3 -37.8 -325.1 -52.35 -328.9 -52.35 -334.25 -52.35 -339.6 -37.8 -343.35 -23.3 -347.15 -2.75 -347.15 17.8 -347.15 32.35 -343.35 46.85 -339.6 46.9 -334.25" fill="#000000" fill-rule="evenodd" stroke="none"/>
      <path d="M46.9 -334.25 Q46.85 -339.6 32.35 -343.35 17.8 -347.15 -2.75 -347.15 -23.3 -347.15 -37.8 -343.35 -52.35 -339.6 -52.35 -334.25 -52.35 -328.9 -37.8 -325.1 -23.3 -321.3 -2.75 -321.3 17.8 -321.3 32.35 -325.1 46.85 -328.9 46.9 -334.25 M51.2 -334.3 Q51.2 -327.5 35.4 -322.65 19.6 -317.85 -2.75 -317.85 -25.1 -317.85 -40.9 -322.65 -56.7 -327.5 -56.7 -334.3 -56.7 -341.15 -40.9 -345.95 -25.1 -350.8 -2.75 -350.8 19.6 -350.8 35.4 -345.95 51.2 -341.15 51.2 -334.3" fill="#ffff09" fill-rule="evenodd" stroke="none"/>
    </g>
  </defs>
</svg>
