<?xml version="1.0" encoding="utf-8"?>
<!-- Generator: flash2svg, http://dissentgraphics.com/tools/flash2svg -->
<svg xmlns:xlink="http://www.w3.org/1999/xlink" id="sprite.__201571.__20(Items).__2F100" image-rendering="optimizeSpeed" baseProfile="basic" version="1.1" style="background-color:#ffffff" x="0px" y="0px" width="550px" height="400px" viewBox="0 0 550 400" enable-background="new 0 0 550 400" xmlns="http://www.w3.org/2000/svg">
  <defs transform="matrix(1 0 0 1 0 0) ">
    <radialGradient gradientUnits="userSpaceOnUse" color-interpolation="sRGB" r="15.315" cx="-17.387" cy="67.829" fx="-17.387" fy="67.829" gradientTransform="matrix(1 0 0 1 0 0.05)" id="radialGradient13">
      <stop stop-color="#2340F3" stop-opacity="1" offset="0"/>
      <stop stop-color="#5369EB" stop-opacity="1" offset="0.11373"/>
      <stop stop-color="#F2F3CF" stop-opacity="1" offset="0.45882"/>
      <stop stop-color="#FFFFCC" stop-opacity="1" offset="1"/>
    </radialGradient>
  </defs>
  <g id="sprite.__201571.__20(Items).__2F100">
    <g id="Layer.__201">
      <g id="MovieClip.__2Fsprite.__201420_1" overflow="visible">
        <g id="Layer.__255">
          <g id="Graphic.__2Fshape.__201439_2" overflow="visible">
            <g id="Layer.__256">
              <g id="shape118">
                <path id="path215" fill="url(#radialGradient13)" fill-opacity="1" d="M-3.836,68.126 Q-3.836,62.617 -7.734,58.719 C-10.319,56.135 -13.412,54.864 -17.098,54.864 -20.784,54.864 -23.92,56.135 -26.505,58.719 -29.089,61.304 -30.36,64.439 -30.36,68.126 -30.36,71.812 -29.089,74.905 -26.505,77.49 -23.92,80.074 -20.784,81.388 -17.098,81.388 -13.412,81.388 -10.319,80.074 -7.734,77.49 -5.149,74.905 -3.836,71.812 -3.836,68.126z"/>
                <path id="path216" fill="none" stroke="#000000" stroke-opacity="1" stroke-width="1.695" stroke-linecap="round" stroke-linejoin="round" d="M-3.836,68.126 Q-3.836,62.617 -7.734,58.719 C-10.319,56.135 -13.412,54.864 -17.098,54.864 -20.784,54.864 -23.92,56.135 -26.505,58.719 -29.089,61.304 -30.36,64.439 -30.36,68.126 -30.36,71.812 -29.089,74.905 -26.505,77.49 -23.92,80.074 -20.784,81.388 -17.098,81.388 -13.412,81.388 -10.319,80.074 -7.734,77.49 -5.149,74.905 -3.836,71.812 -3.836,68.126z"/>
              </g>
            </g>
            <g id="Layer.__257">
              <g id="shape119">
                <path id="path217" fill="none" stroke="#000000" stroke-opacity="1" stroke-width="1.695" stroke-linecap="round" stroke-linejoin="round" d="M-17.225,38.119 Q-13.031,48.415 -1.336,50.619 C-5.022,55.237 -9.683,58.415 -15.319,60.152 -25.445,58.457 -31.801,56 -34.386,52.737 -26.632,50.915 -20.912,46.043 -17.225,38.119z"/>
                <path id="path218" fill="#402B00" fill-opacity="1" d="M-1.336,50.619 Q-13.031,48.415 -17.225,38.119 C-16.59,47.314 -15.954,54.644 -15.319,60.152 -11.717,56.212 -7.056,53.034 -1.336,50.619z"/>
                <path id="path219" fill="none" stroke="#000000" stroke-opacity="1" stroke-width="1.695" stroke-linecap="round" stroke-linejoin="round" d="M-1.336,50.619 Q-13.031,48.415 -17.225,38.119 C-16.59,47.314 -15.954,54.644 -15.319,60.152 -11.717,56.212 -7.056,53.034 -1.336,50.619z"/>
                <path id="path220" fill="#402B00" fill-opacity="1" d="M-15.319,60.152 C-9.683,58.415 -5.022,55.237 -1.336,50.619 -7.056,53.034 -11.717,56.212 -15.319,60.152"/>
                <path id="path221" fill="none" stroke="#000000" stroke-opacity="1" stroke-width="1.695" stroke-linecap="round" stroke-linejoin="round" d="M-15.319,60.152 C-9.683,58.415 -5.022,55.237 -1.336,50.619 -7.056,53.034 -11.717,56.212 -15.319,60.152"/>
                <path id="path222" fill="#795000" fill-opacity="1" d="M-15.319,60.152 C-15.954,54.644 -16.59,47.314 -17.225,38.119 -20.912,46.043 -26.632,50.915 -34.386,52.737 -26.166,53.881 -19.81,56.381 -15.319,60.152z"/>
                <path id="path223" fill="none" stroke="#000000" stroke-opacity="1" stroke-width="1.695" stroke-linecap="round" stroke-linejoin="round" d="M-15.319,60.152 C-15.954,54.644 -16.59,47.314 -17.225,38.119 -20.912,46.043 -26.632,50.915 -34.386,52.737 -26.166,53.881 -19.81,56.381 -15.319,60.152z"/>
                <path id="path224" fill="#795000" fill-opacity="1" d="M-15.319,60.152 C-25.445,58.457 -31.801,56 -34.386,52.737 -26.166,53.881 -19.81,56.381 -15.319,60.152"/>
                <path id="path225" fill="none" stroke="#000000" stroke-opacity="1" stroke-width="1.695" stroke-linecap="round" stroke-linejoin="round" d="M-15.319,60.152 C-25.445,58.457 -31.801,56 -34.386,52.737 -26.166,53.881 -19.81,56.381 -15.319,60.152"/>
              </g>
            </g>
            <g id="Layer.__258">
              <g id="shape120">
                <path id="path226" fill="#FFEF66" fill-opacity="1" d="M-15.107,31.949 L-15.107,30.678 -19.556,30.678 -19.556,31.949 -15.107,31.949z M-15.107,29.83 L-15.107,28.559 -19.556,28.559 -19.556,29.83 -15.107,29.83z M-15.107,36.186 L-15.107,34.915 -19.556,34.915 -19.556,36.186 -15.107,36.186z M-15.53,27.712 L-15.53,26.441 -19.132,26.441 -19.132,27.712 -15.53,27.712z M-15.53,25.593 L-15.53,24.322 -19.132,24.322 -19.132,25.593 -15.53,25.593z M-15.107,34.068 L-15.107,32.796 -19.556,32.796 -19.556,34.068 -15.107,34.068z"/>
                <path id="path227" fill="none" stroke="#000000" stroke-opacity="1" stroke-width="0.847" stroke-linecap="round" stroke-linejoin="round" d="M-15.107,31.949 L-15.107,30.678 -19.556,30.678 -19.556,31.949 -15.107,31.949z"/>
                <path id="path228" fill="none" stroke="#000000" stroke-opacity="1" stroke-width="0.847" stroke-linecap="round" stroke-linejoin="round" d="M-15.107,29.83 L-15.107,28.559 -19.556,28.559 -19.556,29.83 -15.107,29.83z"/>
                <path id="path229" fill="none" stroke="#000000" stroke-opacity="1" stroke-width="0.847" stroke-linecap="round" stroke-linejoin="round" d="M-15.107,36.186 L-15.107,34.915 -19.556,34.915 -19.556,36.186 -15.107,36.186z"/>
                <path id="path230" fill="none" stroke="#000000" stroke-opacity="1" stroke-width="0.847" stroke-linecap="round" stroke-linejoin="round" d="M-15.53,27.712 L-15.53,26.441 -19.132,26.441 -19.132,27.712 -15.53,27.712z"/>
                <path id="path231" fill="none" stroke="#000000" stroke-opacity="1" stroke-width="0.847" stroke-linecap="round" stroke-linejoin="round" d="M-15.53,25.593 L-15.53,24.322 -19.132,24.322 -19.132,25.593 -15.53,25.593z"/>
                <path id="path232" fill="none" stroke="#000000" stroke-opacity="1" stroke-width="0.847" stroke-linecap="round" stroke-linejoin="round" d="M-15.107,34.068 L-15.107,32.796 -19.556,32.796 -19.556,34.068 -15.107,34.068z"/>
                <path id="path233" fill="#A7A27A" fill-opacity="1" d="M-18.751,78.219 C-18.963,77.837 -19.429,77.541 -20.234,77.371 L-22.352,76.82 -23.835,76.778 -24.005,76.608 C-24.556,76.058 -25.233,75.761 -26.039,75.761 -26.632,75.761 -27.14,75.931 -27.606,76.27 -27.691,75.634 -28.03,75.168 -28.581,74.829 -29.174,74.448 -29.894,74.363 -30.784,74.532 -31.674,74.702 -32.267,74.914 -32.564,75.125 -32.903,75.337 -33.03,75.803 -32.903,76.439 -32.776,77.075 -32.521,77.753 -32.098,78.43 -31.716,79.066 -31.165,79.405 -30.53,79.405 L-28.877,79.024 -28.793,80.888 C-28.835,81.481 -28.411,81.778 -27.564,81.735 L-24.81,81.269 C-24.979,81.439 -24.979,81.693 -24.81,82.074 -24.64,82.456 -23.878,82.71 -22.522,82.837 -21.251,82.922 -20.276,82.668 -19.64,82.074 L-19.598,82.074 -19.513,81.947 -19.598,82.159 -19.556,82.964 C-19.513,83.346 -18.751,83.557 -17.352,83.684 -15.954,83.812 -14.937,83.6 -14.344,83.091 L-13.624,83.303 -12.268,83.515 -10.065,83.261 C-9.132,82.964 -8.582,82.625 -8.412,82.202 L-6.251,82.371 C-5.319,82.244 -4.683,81.947 -4.344,81.481 -4.005,81.015 -3.836,80.337 -3.836,79.49 L-3.836,79.236 -3.116,79.193 C-2.65,79.151 -2.141,78.812 -1.506,78.176 -0.87,77.541 -0.743,77.075 -1.039,76.736 L-1.59,75.803 -2.565,74.871 -5.022,74.744 C-6.082,75.041 -6.632,75.549 -6.632,76.354 L-6.632,76.439 -6.929,76.397 C-7.776,76.397 -8.497,76.693 -9.132,77.286 L-9.683,78.091 C-10.234,77.795 -10.954,77.668 -11.759,77.71 -12.564,77.753 -13.327,77.964 -13.963,78.388 L-14.132,78.219 C-14.768,77.583 -15.573,77.244 -16.463,77.244 -17.352,77.244 -18.115,77.583 -18.751,78.219z"/>
                <path id="path234" fill="none" stroke="#000000" stroke-opacity="1" stroke-width="1.695" stroke-linecap="round" stroke-linejoin="round" d="M-18.751,78.219 C-18.963,77.837 -19.429,77.541 -20.234,77.371 L-22.352,76.82 -23.835,76.778 -24.005,76.608 C-24.556,76.058 -25.233,75.761 -26.039,75.761 -26.632,75.761 -27.14,75.931 -27.606,76.27 -27.691,75.634 -28.03,75.168 -28.581,74.829 -29.174,74.448 -29.894,74.363 -30.784,74.532 -31.674,74.702 -32.267,74.914 -32.564,75.125 -32.903,75.337 -33.03,75.803 -32.903,76.439 -32.776,77.075 -32.521,77.753 -32.098,78.43 -31.716,79.066 -31.165,79.405 -30.53,79.405 L-28.877,79.024 -28.793,80.888 C-28.835,81.481 -28.411,81.778 -27.564,81.735 L-24.81,81.269 C-24.979,81.439 -24.979,81.693 -24.81,82.074 -24.64,82.456 -23.878,82.71 -22.522,82.837 -21.251,82.922 -20.276,82.668 -19.64,82.074 L-19.598,82.074 -19.513,81.947 -19.598,82.159 -19.556,82.964 C-19.513,83.346 -18.751,83.557 -17.352,83.684 -15.954,83.812 -14.937,83.6 -14.344,83.091 L-13.624,83.303 -12.268,83.515 -10.065,83.261 C-9.132,82.964 -8.582,82.625 -8.412,82.202 L-6.251,82.371 C-5.319,82.244 -4.683,81.947 -4.344,81.481 -4.005,81.015 -3.836,80.337 -3.836,79.49 L-3.836,79.236 -3.116,79.193 C-2.65,79.151 -2.141,78.812 -1.506,78.176 -0.87,77.541 -0.743,77.075 -1.039,76.736 L-1.59,75.803 -2.565,74.871 -5.022,74.744 C-6.082,75.041 -6.632,75.549 -6.632,76.354 L-6.632,76.439 -6.929,76.397 C-7.776,76.397 -8.497,76.693 -9.132,77.286 L-9.683,78.091 C-10.234,77.795 -10.954,77.668 -11.759,77.71 -12.564,77.753 -13.327,77.964 -13.963,78.388 L-14.132,78.219 C-14.768,77.583 -15.573,77.244 -16.463,77.244 -17.352,77.244 -18.115,77.583 -18.751,78.219z"/>
              </g>
            </g>
          </g>
        </g>
      </g>
    </g>
    <g id="Layer.__202">
      <g id="MovieClip.__2Fsprite.__201422_1" overflow="visible">
        <g id="Layer.__259">
          <g id="Graphic.__2Fshape.__201441_2" overflow="visible">
            <g id="Layer.__260">
              <g id="shape121">
                <path id="path235" fill="none" stroke="#000000" stroke-opacity="1" stroke-width="1.689" stroke-linecap="round" stroke-linejoin="round" d="M193.395,-171.599 C189.06,-161.972 188.422,-154.423 191.501,-148.896 186.75,-147.551 182.02,-141.524 177.236,-130.754 L58.625,119.18 C55.587,121.15 53.641,120.227 52.751,116.392 L171.362,-133.542 C176.122,-142.687 177.973,-150.034 176.933,-155.622 L176.704,-156.618 C181.605,-156.209 187.206,-161.216 193.395,-171.599z"/>
                <path id="path236" fill="#C2C2C2" fill-opacity="1" d="M183.619,-151 L191.501,-148.896 C188.422,-154.423 189.06,-161.972 193.395,-171.599 L183.619,-151z"/>
                <path id="path237" fill="none" stroke="#010101" stroke-opacity="0" stroke-width="1.689" stroke-linecap="round" stroke-linejoin="round" d="M193.395,-171.599 L183.619,-151 L191.501,-148.896"/>
                <path id="path238" fill="none" stroke="#000000" stroke-opacity="1" stroke-width="1.689" stroke-linecap="round" stroke-linejoin="round" d="M191.501,-148.896 C188.422,-154.423 189.06,-161.972 193.395,-171.599"/>
                <path id="path239" fill="#7F7B7A" fill-opacity="1" d="M191.501,-148.896 L183.619,-151 173.862,-130.439 C174.793,-130.137 175.906,-130.217 177.236,-130.754 182.02,-141.524 186.75,-147.551 191.501,-148.896z"/>
                <path id="path240" fill="none" stroke="#010101" stroke-opacity="0" stroke-width="1.689" stroke-linecap="round" stroke-linejoin="round" d="M191.501,-148.896 L183.619,-151 173.862,-130.439"/>
                <path id="path241" fill="none" stroke="#000000" stroke-opacity="1" stroke-width="1.689" stroke-linecap="round" stroke-linejoin="round" d="M173.862,-130.439 C174.793,-130.137 175.906,-130.217 177.236,-130.754 182.02,-141.524 186.75,-147.551 191.501,-148.896"/>
                <path id="path242" fill="#FFFFFF" fill-opacity="1" d="M183.619,-151 L193.395,-171.599 C187.206,-161.216 181.605,-156.209 176.704,-156.618 L176.933,-155.622 183.619,-151z"/>
                <path id="path243" fill="none" stroke="#010101" stroke-opacity="0" stroke-width="1.689" stroke-linecap="round" stroke-linejoin="round" d="M176.933,-155.622 L183.619,-151 L193.395,-171.599"/>
                <path id="path244" fill="none" stroke="#000000" stroke-opacity="1" stroke-width="1.689" stroke-linecap="round" stroke-linejoin="round" d="M193.395,-171.599 C187.206,-161.216 181.605,-156.209 176.704,-156.618 L176.933,-155.622"/>
                <path id="path245" fill="#2B2B2B" fill-opacity="1" d="M177.236,-130.754 C175.906,-130.217 174.793,-130.137 173.862,-130.439 172.739,-130.832 171.925,-131.873 171.362,-133.542 L52.751,116.392 C53.641,120.227 55.587,121.15 58.625,119.18 L177.236,-130.754z"/>
                <path id="path246" fill="none" stroke="#000000" stroke-opacity="1" stroke-width="1.689" stroke-linecap="round" stroke-linejoin="round" d="M177.236,-130.754 C175.906,-130.217 174.793,-130.137 173.862,-130.439 172.739,-130.832 171.925,-131.873 171.362,-133.542 L52.751,116.392 C53.641,120.227 55.587,121.15 58.625,119.18 L177.236,-130.754z"/>
                <path id="path247" fill="#D2D2D2" fill-opacity="1" d="M173.862,-130.439 L183.619,-151 176.933,-155.622 C177.973,-150.034 176.122,-142.687 171.362,-133.542 171.925,-131.873 172.739,-130.832 173.862,-130.439z"/>
                <path id="path248" fill="none" stroke="#010101" stroke-opacity="0" stroke-width="1.689" stroke-linecap="round" stroke-linejoin="round" d="M173.862,-130.439 L183.619,-151 176.933,-155.622"/>
                <path id="path249" fill="none" stroke="#000000" stroke-opacity="1" stroke-width="1.689" stroke-linecap="round" stroke-linejoin="round" d="M176.933,-155.622 C177.973,-150.034 176.122,-142.687 171.362,-133.542 171.925,-131.873 172.739,-130.832 173.862,-130.439"/>
              </g>
            </g>
          </g>
        </g>
      </g>
    </g>
  </g>
</svg>