<?xml version="1.0" encoding="utf-8"?>
<!-- Generator: flash2svg, http://dissentgraphics.com/tools/flash2svg -->
<svg xmlns:xlink="http://www.w3.org/1999/xlink" id="sprite.__201571.__20(Items).__2F108" image-rendering="optimizeSpeed" baseProfile="basic" version="1.1" style="background-color:#ffffff" x="0px" y="0px" width="550px" height="400px" viewBox="0 0 550 400" enable-background="new 0 0 550 400" xmlns="http://www.w3.org/2000/svg">
  <defs transform="matrix(1 0 0 1 0 0) "/>
  <g id="sprite.__201571.__20(Items).__2F108">
    <g id="Layer.__214">
      <g id="MovieClip.__2Fsprite.__201434_1" overflow="visible">
        <g id="Layer.__386">
          <g id="Graphic.__2Fshape.__201451_10" overflow="visible">
            <g id="Layer.__387">
              <g id="shape241">
                <path id="path933" fill="none" stroke="#000000" stroke-opacity="1" stroke-width="5" stroke-linecap="round" stroke-linejoin="round" d="M152.128,48.686 L130.745,64.51 91.625,74.993 L93.113,80.547 L91.625,74.993 73.514,79.846 70.99,70.428 89.102,65.575 L87.484,59.537 L89.102,65.575 152.128,48.686z"/>
                <path id="path934" fill="#FFFFFF" fill-opacity="1" d="M130.745,64.51 L152.128,48.686 89.102,65.575 91.625,74.993 130.745,64.51z"/>
                <path id="path935" fill="none" stroke="#000000" stroke-opacity="1" stroke-width="5" stroke-linecap="round" stroke-linejoin="round" d="M130.745,64.51 L152.128,48.686 89.102,65.575 91.625,74.993 130.745,64.51z"/>
                <path id="path936" fill="#0042C6" fill-opacity="1" d="M73.514,79.846 L91.625,74.993 89.102,65.575 70.99,70.428 73.514,79.846z"/>
                <path id="path937" fill="none" stroke="#000000" stroke-opacity="1" stroke-width="5" stroke-linecap="round" stroke-linejoin="round" d="M73.514,79.846 L91.625,74.993 89.102,65.575 70.99,70.428 73.514,79.846z"/>
              </g>
            </g>
          </g>
        </g>
      </g>
    </g>
  </g>
</svg>