<?xml version="1.0" encoding="utf-8"?>
<!-- Generator: flash2svg, http://dissentgraphics.com/tools/flash2svg -->
<svg xmlns:xlink="http://www.w3.org/1999/xlink" id="sprite.__201571.__20(Items).__2F118" image-rendering="optimizeSpeed" baseProfile="basic" version="1.1" style="background-color:#ffffff" x="0px" y="0px" width="550px" height="400px" viewBox="0 0 550 400" enable-background="new 0 0 550 400" xmlns="http://www.w3.org/2000/svg">
  <defs transform="matrix(1 0 0 1 0 0) "/>
  <g id="sprite.__201571.__20(Items).__2F118">
    <g id="Layer.__209">
      <g id="Graphic.__2Fshape.__201473_1" overflow="visible">
        <g id="Layer.__359">
          <g id="shape666">
            <path id="path3352" fill="none" stroke="#000000" stroke-opacity="1" stroke-width="3" stroke-linecap="round" stroke-linejoin="round" d="M262.4,-110.95 L268.65,-117.7 C267.25,-101.75 213.5,-45.3 107.35,51.7 L73.2,80.05 C70.3,79.15 69.05,77.35 69.45,74.6 L102.75,46.15 103.25,45.7 C157.15,-2.25 210.2,-54.5 262.4,-110.95z"/>
            <path id="path3353" fill="#AEAEAE" fill-opacity="1" d="M268.65,-117.7 L262.4,-110.95 C248.55,-87.6 196.7,-34.95 106.75,47 L107.35,51.7 C213.5,-45.3 267.25,-101.75 268.65,-117.7z"/>
            <path id="path3354" fill="none" stroke="#000000" stroke-opacity="1" stroke-width="3" stroke-linecap="round" stroke-linejoin="round" d="M106.75,47 L107.35,51.7 C213.5,-45.3 267.25,-101.75 268.65,-117.7 L262.4,-110.95"/>
            <path id="path3355" fill="none" stroke="#010101" stroke-opacity="0" stroke-width="3" stroke-linecap="round" stroke-linejoin="round" d="M262.4,-110.95 C248.55,-87.6 196.7,-34.95 106.75,47"/>
            <path id="path3356" fill="#FFFFFF" fill-opacity="1" d="M103.25,45.7 L106.75,47 C196.7,-34.95 248.55,-87.6 262.4,-110.95 210.2,-54.5 157.15,-2.25 103.25,45.7z"/>
            <path id="path3357" fill="none" stroke="#000000" stroke-opacity="1" stroke-width="3" stroke-linecap="round" stroke-linejoin="round" d="M262.4,-110.95 C210.2,-54.5 157.15,-2.25 103.25,45.7 L106.75,47"/>
            <path id="path3358" fill="none" stroke="#010101" stroke-opacity="0" stroke-width="3" stroke-linecap="round" stroke-linejoin="round" d="M106.75,47 C196.7,-34.95 248.55,-87.6 262.4,-110.95"/>
            <path id="path3359" fill="#333333" fill-opacity="1" d="M106.75,47 L103.25,45.7 102.75,46.15 69.45,74.6 C69.05,77.35 70.3,79.15 73.2,80.05 L107.35,51.7 106.75,47z"/>
            <path id="path3360" fill="none" stroke="#000000" stroke-opacity="1" stroke-width="3" stroke-linecap="round" stroke-linejoin="round" d="M106.75,47 L103.25,45.7 102.75,46.15 69.45,74.6 C69.05,77.35 70.3,79.15 73.2,80.05 L107.35,51.7 106.75,47z"/>
          </g>
        </g>
        <g id="Layer.__360">
          <g id="shape667">
            <path id="path3361" fill="none" stroke="#000000" stroke-opacity="1" stroke-width="3" stroke-linecap="round" stroke-linejoin="round" d="M-87.05,-26.1 Q-107.8,-55.15 -107.4,-65.55 C-79.85,-27.5 -51.65,8.2 -22.85,41.65 -19.8,40.3 -16.4,39.5 -12.6,39.15 -14.3,41.8 -16.55,44.65 -19.35,47.6 L-13.15,56 -8.6,61.75 -4.1,67.25 1.5,73.8 3.8,76.2 C5.65,79.55 5.45,81.9 3.15,83.15 2.1,83.7 0.85,83.8 -0.55,83.5 -2.1,83.15 -3.45,82.45 -4.6,81.3 L-8.65,76.15 -8.45,76.1 -13.95,69.1 -18.65,63.15 -23.15,57.45 -26.5,53.2 C-30.15,55.25 -33.65,56.35 -37,56.55 -35.95,53.1 -34,50.05 -31.15,47.3 L-62.95,6 C-73.65,-7.95 -81.7,-18.65 -87.05,-26.1z"/>
            <path id="path3362" fill="#626262" fill-opacity="1" d="M-107.4,-65.55 Q-107.8,-55.15 -87.05,-26.1 C-81.7,-18.65 -73.65,-7.95 -62.95,6 L-31.15,47.3 C-28.65,44.85 -25.9,42.95 -22.85,41.65 -51.65,8.2 -79.85,-27.5 -107.4,-65.55z"/>
            <path id="path3363" fill="none" stroke="#000000" stroke-opacity="1" stroke-width="3" stroke-linecap="round" stroke-linejoin="round" d="M-107.4,-65.55 Q-107.8,-55.15 -87.05,-26.1 C-81.7,-18.65 -73.65,-7.95 -62.95,6 L-31.15,47.3 C-28.65,44.85 -25.9,42.95 -22.85,41.65 -51.65,8.2 -79.85,-27.5 -107.4,-65.55z"/>
            <path id="path3364" fill="#756A13" fill-opacity="1" d="M-19.35,47.6 C-16.55,44.65 -14.3,41.8 -12.6,39.15 -21.85,43.7 -30,49.5 -37,56.55 -33.65,56.35 -30.15,55.25 -26.5,53.2 -23.25,51.35 -20.9,49.45 -19.35,47.6z"/>
            <path id="path3365" fill="none" stroke="#000000" stroke-opacity="1" stroke-width="3" stroke-linecap="round" stroke-linejoin="round" d="M-37,56.55 C-33.65,56.35 -30.15,55.25 -26.5,53.2 -23.25,51.35 -20.9,49.45 -19.35,47.6 C-16.55,44.65 -14.3,41.8 -12.6,39.15"/>
            <path id="path3366" fill="none" stroke="#000000" stroke-opacity="1" stroke-width="1" stroke-linecap="round" stroke-linejoin="round" d="M-12.6,39.15 C-21.85,43.7 -30,49.5 -37,56.55"/>
            <path id="path3367" fill="#EADE7B" fill-opacity="1" d="M-12.6,39.15 C-16.4,39.5 -19.8,40.3 -22.85,41.65 -25.9,42.95 -28.65,44.85 -31.15,47.3 -34,50.05 -35.95,53.1 -37,56.55 -30,49.5 -21.85,43.7 -12.6,39.15z"/>
            <path id="path3368" fill="none" stroke="#000000" stroke-opacity="1" stroke-width="3" stroke-linecap="round" stroke-linejoin="round" d="M-12.6,39.15 C-16.4,39.5 -19.8,40.3 -22.85,41.65 -25.9,42.95 -28.65,44.85 -31.15,47.3 -34,50.05 -35.95,53.1 -37,56.55"/>
            <path id="path3369" fill="none" stroke="#000000" stroke-opacity="1" stroke-width="1" stroke-linecap="round" stroke-linejoin="round" d="M-37,56.55 C-30,49.5 -21.85,43.7 -12.6,39.15"/>
            <path id="path3370" fill="#333333" fill-opacity="1" d="M-8.6,61.75 L-18.65,63.15 -13.95,69.1 -4.1,67.25 -8.6,61.75z"/>
            <path id="path3371" fill="none" stroke="#000000" stroke-opacity="1" stroke-width="3" stroke-linecap="round" stroke-linejoin="round" d="M-8.6,61.75 L-18.65,63.15 -13.95,69.1 -4.1,67.25 -8.6,61.75z"/>
            <path id="path3372" fill="#333333" fill-opacity="1" d="M-18.65,63.15 L-8.6,61.75 -13.15,56 -23.15,57.45 -18.65,63.15z M-4.1,67.25 L-13.95,69.1 -8.45,76.1 1.5,73.8 -4.1,67.25z"/>
            <path id="path3373" fill="none" stroke="#000000" stroke-opacity="1" stroke-width="3" stroke-linecap="round" stroke-linejoin="round" d="M-18.65,63.15 L-8.6,61.75 -13.15,56 -23.15,57.45 -18.65,63.15z"/>
            <path id="path3374" fill="none" stroke="#000000" stroke-opacity="1" stroke-width="3" stroke-linecap="round" stroke-linejoin="round" d="M-4.1,67.25 L-13.95,69.1 -8.45,76.1 1.5,73.8 -4.1,67.25z"/>
            <path id="path3375" fill="#333333" fill-opacity="1" d="M-26.5,53.2 L-23.15,57.45 -13.15,56 -19.35,47.6 C-20.9,49.45 -23.25,51.35 -26.5,53.2z M-4.6,81.3 C-3.45,82.45 -2.1,83.15 -0.55,83.5 0.85,83.8 2.1,83.7 3.15,83.15 5.45,81.9 5.65,79.55 3.8,76.2 3.05,79.15 0.25,80.85 -4.6,81.3z M-8.65,76.15 L-4.6,81.3 C0.25,80.85 3.05,79.15 3.8,76.2 L1.5,73.8 -8.45,76.1 -8.65,76.15z"/>
            <path id="path3376" fill="none" stroke="#000000" stroke-opacity="1" stroke-width="3" stroke-linecap="round" stroke-linejoin="round" d="M-26.5,53.2 L-23.15,57.45 -13.15,56 -19.35,47.6 C-20.9,49.45 -23.25,51.35 -26.5,53.2z"/>
            <path id="path3377" fill="none" stroke="#000000" stroke-opacity="1" stroke-width="3" stroke-linecap="round" stroke-linejoin="round" d="M-4.6,81.3 C-3.45,82.45 -2.1,83.15 -0.55,83.5 0.85,83.8 2.1,83.7 3.15,83.15 5.45,81.9 5.65,79.55 3.8,76.2 3.05,79.15 0.25,80.85 -4.6,81.3z"/>
            <path id="path3378" fill="none" stroke="#000000" stroke-opacity="1" stroke-width="3" stroke-linecap="round" stroke-linejoin="round" d="M-8.65,76.15 L-4.6,81.3 C0.25,80.85 3.05,79.15 3.8,76.2 L1.5,73.8 -8.45,76.1 -8.65,76.15z"/>
          </g>
        </g>
      </g>
    </g>
  </g>
</svg>