<?xml version="1.0" encoding="utf-8"?>
<!-- Generator: flash2svg, http://dissentgraphics.com/tools/flash2svg -->
<svg xmlns:xlink="http://www.w3.org/1999/xlink" id="sprite.__201571.__20(Items).__2F122" image-rendering="optimizeSpeed" baseProfile="basic" version="1.1" style="background-color:#ffffff" x="0px" y="0px" width="550px" height="400px" viewBox="0 0 550 400" enable-background="new 0 0 550 400" xmlns="http://www.w3.org/2000/svg">
  <defs transform="matrix(1 0 0 1 0 0) "/>
  <g id="sprite.__201571.__20(Items).__2F122">
    <g id="Layer.__203">
      <g id="MovieClip.__2Fsprite.__201481_1" overflow="visible">
        <g id="Layer.__386">
          <g id="Graphic.__2Fshape.__201514_4" overflow="visible">
            <g id="Layer.__387">
              <g id="shape479">
                <path id="path1325" fill="none" stroke="#000000" stroke-opacity="1" stroke-width="5" stroke-linecap="round" stroke-linejoin="round" d="M192.739,-33.89 Q211.878,-46.441 223.591,-88.653 C255.753,-42.847 219.95,5.941 116.096,57.76 L121.557,64.018 C126.549,69.565 132.742,73.091 140.066,74.578 L121.929,76.563 109.775,58.812 81.239,75.287 C80.966,76.714 80.314,77.784 79.281,78.495 77.927,79.45 76.228,79.508 74.234,78.754 72.24,78 70.54,76.556 69.092,74.448 67.669,72.383 66.959,70.252 66.943,68.125 66.927,65.998 67.597,64.457 68.95,63.502 70.304,62.547 71.978,62.447 73.904,63.182 L73.991,63.132 102.24,47.862 90.093,30.222 99.216,17.623 C98.314,25.36 100.647,34.002 106.104,43.553 157.33,16.98 186.246,-8.837 192.739,-33.89z"/>
                <path id="path1326" fill="#D9D9D9" fill-opacity="1" d="M223.591,-88.653 Q211.878,-46.441 192.739,-33.89 C186.246,-8.837 157.33,16.98 106.104,43.553 108.729,48.1 112.037,52.829 116.096,57.76 219.95,5.941 255.753,-42.847 223.591,-88.653z"/>
                <path id="path1327" fill="none" stroke="#000000" stroke-opacity="1" stroke-width="5" stroke-linecap="round" stroke-linejoin="round" d="M223.591,-88.653 Q211.878,-46.441 192.739,-33.89 C186.246,-8.837 157.33,16.98 106.104,43.553 108.729,48.1 112.037,52.829 116.096,57.76 219.95,5.941 255.753,-42.847 223.591,-88.653z"/>
                <path id="path1328" fill="#A2A2A2" fill-opacity="1" d="M99.216,17.623 L90.093,30.222 102.24,47.862 109.775,58.812 121.929,76.563 140.066,74.578 C132.742,73.091 126.549,69.565 121.557,64.018 L116.096,57.76 C112.037,52.829 108.729,48.1 106.104,43.553 100.647,34.002 98.314,25.36 99.216,17.623z"/>
                <path id="path1329" fill="none" stroke="#000000" stroke-opacity="1" stroke-width="5" stroke-linecap="round" stroke-linejoin="round" d="M99.216,17.623 L90.093,30.222 102.24,47.862 109.775,58.812 121.929,76.563 140.066,74.578 C132.742,73.091 126.549,69.565 121.557,64.018 L116.096,57.76 C112.037,52.829 108.729,48.1 106.104,43.553 100.647,34.002 98.314,25.36 99.216,17.623z"/>
                <path id="path1330" fill="#444444" fill-opacity="1" d="M74.041,63.219 L73.904,63.182 C71.978,62.447 70.304,62.547 68.95,63.502 67.597,64.457 66.927,65.998 66.943,68.125 66.959,70.252 67.669,72.383 69.092,74.448 70.54,76.556 72.24,78 74.234,78.754 76.228,79.508 77.927,79.45 79.281,78.495 80.314,77.784 80.966,76.714 81.239,75.287 81.324,74.833 81.34,74.362 81.332,73.847 81.316,71.72 80.606,69.59 79.139,67.55 77.735,65.416 76.035,63.973 74.041,63.219z"/>
                <path id="path1331" fill="none" stroke="#000000" stroke-opacity="1" stroke-width="5" stroke-linecap="round" stroke-linejoin="round" d="M74.041,63.219 L73.904,63.182 C71.978,62.447 70.304,62.547 68.95,63.502 67.597,64.457 66.927,65.998 66.943,68.125 66.959,70.252 67.669,72.383 69.092,74.448 70.54,76.556 72.24,78 74.234,78.754 76.228,79.508 77.927,79.45 79.281,78.495 80.314,77.784 80.966,76.714 81.239,75.287 81.324,74.833 81.34,74.362 81.332,73.847 81.316,71.72 80.606,69.59 79.139,67.55 77.735,65.416 76.035,63.973 74.041,63.219z"/>
                <path id="path1332" fill="none" stroke="#000000" stroke-opacity="1" stroke-width="5" stroke-linecap="round" stroke-linejoin="round" d="M73.991,63.132 L73.904,63.182 L74.041,63.219"/>
                <path id="path1333" fill="#444444" fill-opacity="1" d="M79.139,67.55 C80.606,69.59 81.316,71.72 81.332,73.847 81.34,74.362 81.324,74.833 81.239,75.287 L109.775,58.812 102.24,47.862 73.991,63.132 74.041,63.219 C76.035,63.973 77.735,65.416 79.139,67.55z"/>
                <path id="path1334" fill="none" stroke="#000000" stroke-opacity="1" stroke-width="5" stroke-linecap="round" stroke-linejoin="round" d="M74.041,63.219 C76.035,63.973 77.735,65.416 79.139,67.55 C80.606,69.59 81.316,71.72 81.332,73.847 81.34,74.362 81.324,74.833 81.239,75.287 L109.775,58.812 102.24,47.862 73.991,63.132"/>
              </g>
            </g>
          </g>
        </g>
      </g>
    </g>
  </g>
</svg>