<?xml version="1.0" encoding="utf-8"?>
<!-- Generator: flash2svg, http://dissentgraphics.com/tools/flash2svg -->
<svg xmlns:xlink="http://www.w3.org/1999/xlink" id="sprite.__201571.__20(Items).__2F133" image-rendering="optimizeSpeed" baseProfile="basic" version="1.1" style="background-color:#ffffff" x="0px" y="0px" width="550px" height="400px" viewBox="0 0 550 400" enable-background="new 0 0 550 400" xmlns="http://www.w3.org/2000/svg">
  <defs transform="matrix(1 0 0 1 0 0) "/>
  <g id="sprite.__201571.__20(Items).__2F133">
    <g id="Layer.__204">
      <g id="MovieClip.__2Fsprite.__201521_1" overflow="visible">
        <g id="Layer.__291">
          <g id="Graphic.__2Fshape.__201538_5" overflow="visible">
            <g id="Layer.__292">
              <g id="shape274">
                <path id="path779" fill="#000000" fill-opacity="1" d="M133.043,104.928 Q134.501,104.652 135.151,103.468 L134.961,102.649 132.68,98.348 106.097,57.275 C103.217,52.916 99.894,50.591 96.142,50.252 95.797,50.006 95.468,49.995 95.156,50.295 L94.88,50.657 94.854,50.753 95.036,50.648 C95.599,50.363 96.078,50.491 96.436,50.971 L95.055,52.011 C91.307,54.619 86.949,56.731 81.981,58.347 76.723,60.089 71.597,62.2 66.572,64.697 66.312,64.807 66.065,64.869 65.765,64.84 L67.226,68.28 C70.66,66.459 74.391,64.871 78.401,63.485 L91.38,59.225 91.991,58.953 96.32,64.981 C94.498,66.235 92.266,67.201 89.59,67.816 84.751,68.953 80.055,70.411 75.505,72.19 73.62,72.914 71.738,73.435 69.855,73.673 L69.57,73.11 67.48,68.861 67.226,68.28 L94.854,50.753 C89.807,53.141 84.668,55.3 79.441,57.307 74.076,59.354 68.833,61.613 63.712,64.085 65.287,69.682 67.633,74.795 70.749,79.422 L71.378,79.462 71.474,79.488 71.4,79.571 C77.312,77.209 81.299,75.715 83.345,75.059 L87.438,73.747 92.729,83.261 100.351,85.893 C102.903,86.885 104.657,86.842 105.594,85.735 L106.285,86.791 C110.486,93.298 114.833,99.356 119.299,105.063 L119.037,105.659 119.991,107.452 120.218,107.564 C122.019,107.534 123.776,107.287 125.502,106.776 128.012,106.014 130.514,105.377 133.043,104.928z M93.247,72.05 L94.596,71.796 C94.173,72.323 93.916,72.998 93.841,73.849 93.636,76.433 94.227,78.436 95.626,79.81 L95.808,78.655 C95.869,77.851 95.856,76.848 95.811,75.581 95.749,74.283 95.935,73.206 96.375,72.427 L104.939,84.74 C102.458,84.434 99.137,83.441 95.036,81.727 L93.431,81.118 C91.999,78.428 90.525,75.804 89.05,73.18 L89.31,73.07 89.544,73.056 C89.844,73.085 90.139,73.036 90.394,72.848 L90.624,72.756 91.149,72.615 91.656,72.443 92.41,72.21 92.736,72.143 93.247,72.05z"/>
              </g>
            </g>
            <g id="Layer.__293">
              <g id="shape275">
                <path id="path780" fill="#000000" fill-opacity="1" d="M149.908,84.157 L149.367,82.449 C148.502,81.372 147.409,80.669 146.101,80.293 L144.289,79.885 C143.702,79.779 143.203,79.824 142.87,80.017 L142.545,79.315 142.948,78.961 C144.825,76.544 145.109,73.955 143.738,71.23 L140.476,64.95 C135.329,61.495 129.809,60.964 123.915,63.356 L123.885,63.374 122.618,59.781 121.163,56.7 C119.361,54.629 117.425,52.675 115.415,50.804 L115.332,50.731 115.411,50.726 115.519,50.704 C117.011,50.489 117.837,49.608 117.982,48.11 L118.018,47.402 118.473,47.14 119.624,46.475 C119.837,46.352 120.014,46.169 120.156,45.925 L120.306,45.556 120.116,44.736 118.36,41.345 C117.841,40.795 117.175,40.412 116.362,40.194 115.645,40.002 114.907,39.984 114.148,40.139 L113.818,40.127 113.464,39.725 112.438,38.297 112.29,38.181 112.068,38.147 C110.649,38.279 109.314,38.767 108.028,39.55 106.682,40.368 105.553,41.423 104.656,42.669 L104.127,43.783 C104.042,44.195 104.083,44.616 104.184,45.002 99.792,44.184 95.64,44.762 91.711,46.707 87.782,48.652 85.156,50.896 83.852,53.467 L83.969,54.37 C84.212,55.28 84.736,55.907 85.588,56.264 L87.737,57.045 C89.11,57.464 90.475,57.727 91.842,57.786 93.445,61.751 100.693,73.046 113.587,91.669 113.082,92.405 112.721,93.179 112.599,94.018 112.274,96.185 112.219,98.4 112.416,100.63 112.565,102.08 113.135,103.206 114.124,104.009 L115.315,104.251 C116.269,104.225 117.18,103.982 118.077,103.505 L118.605,103.16 C119.554,104.875 120.925,106.549 122.76,108.117 L122.135,110.255 C121.286,114.383 122.721,116.869 126.41,117.73 L126.717,117.35 C127.298,116.328 127.998,115.439 128.858,114.619 129.809,113.746 130.443,112.815 130.73,111.841 L130.743,111.793 C130.625,111.659 130.433,111.608 130.182,111.591 129.005,111.584 128.091,112.031 127.414,113.028 L127.069,113.55 125.459,115.732 C124.071,115.079 123.529,114.139 123.814,112.883 124.389,110.449 124.358,108.366 123.704,106.602 124.982,108.046 126.481,109.242 128.218,110.22 L130.988,111.449 C132.606,112.01 134.418,112.419 136.36,112.632 138.966,112.946 141.227,112.732 143.129,112.037 143.276,113.691 144.157,115.567 145.725,117.652 146.318,118.401 146.927,118.615 147.52,118.313 151.189,116.477 154.856,114.078 158.489,111.131 164.455,106.273 167.068,100.439 166.348,93.661 163.857,90.047 160.478,87.835 156.181,87.043 153.787,86.606 151.683,86.811 149.837,87.674 L149.249,86.236 149.581,85.761 C149.913,85.286 150.054,84.76 149.908,84.157z M151.846,90.314 C151.513,89.738 151.129,89.353 150.707,89.112 L151.159,89.053 C153.249,88.614 155.247,88.714 157.156,89.43 165.161,92.447 167.009,96.836 162.667,102.617 158.589,108.083 153.818,112.98 148.367,117.258 147.88,117.256 147.445,117.063 147.049,116.726 144.552,114.571 144.1,112.528 145.68,110.645 L147.059,109.324 C148.279,108.216 148.977,107.045 149.171,105.841 L149.75,104.254 149.962,104.132 150.382,103.809 150.524,103.565 150.644,103.213 150.508,102.766 150.008,101.761 C150.915,100.672 151.935,99.638 153.098,98.643 155.382,96.719 155.42,94.474 153.229,91.94 Q152.458,91.374 151.846,90.314z M147.875,84.766 C147.654,85.014 147.452,85.293 147.362,85.627 L147.138,86.08 147.018,86.432 C147.836,87.779 148.359,89.174 148.665,90.614 148.766,91 148.993,91.112 149.379,91.01 L149.595,90.966 C150.015,91.694 150.683,92.359 151.584,93.011 153.335,94.223 153.656,95.129 152.595,95.741 L150.597,97.461 C149.113,98.6 148.182,100.068 147.725,101.867 147.615,102.375 147.703,102.809 147.996,103.246 L147.721,103.89 147.737,105.457 147.716,105.631 C145.585,106.7 144.188,107.991 143.539,109.457 L143.478,109.492 C142.759,109.786 142.205,110.227 141.835,110.845 L136.597,110.313 C133.404,109.893 130.655,108.772 128.272,106.955 125.35,104.762 122.776,102.894 120.563,101.302 L121.589,103.498 C120.944,102.941 120.19,102.406 119.333,101.971 L119.326,101.329 119.216,101.069 C118.807,100.78 118.416,100.803 117.979,101.096 L116.858,101.744 C116.368,101.946 115.826,102.057 115.279,102.089 L115.027,102.073 C114.182,100.54 113.958,98.891 114.306,97.114 114.603,95.528 114.995,93.968 115.549,92.476 L115.776,91.82 115.657,91.404 113.267,87.125 C105.518,77.413 98.827,67.293 93.192,56.764 L93.1,56.534 C92.877,56.219 92.538,56.051 92.004,56.036 90.636,55.977 89.241,55.731 87.85,55.281 87.211,55.085 86.658,54.757 86.144,54.286 L85.826,53.945 C86.204,53.201 86.666,52.53 87.241,51.915 88.783,50.176 90.709,48.822 92.94,47.857 99.253,45.141 105.003,45.58 110.164,49.269 115.848,53.303 120.076,58.177 122.784,63.848 119.868,65.167 117.284,66.781 115.048,68.718 110.849,72.436 109.913,76.695 112.222,81.464 L114.047,81.825 118.31,82.839 117.781,83.953 C117.081,85.61 116.733,87.387 116.737,89.285 116.751,95.258 118.906,99.551 123.189,102.21 122.586,100.255 121.448,98.285 119.751,96.395 120.392,95.055 120.512,93.653 120.14,92.169 119.715,90.313 119.56,88.504 119.686,86.693 119.78,85.386 120.07,84.208 120.539,83.129 121.02,83.053 121.527,82.881 121.965,82.589 L122.172,82.388 121.555,81.249 C122.06,80.513 122.634,79.898 123.304,79.309 L123.226,79.314 C121.946,79.407 120.845,79.88 119.925,80.735 L119.799,80.727 C112.999,80.571 111.502,77.838 115.308,72.529 119.39,66.858 124.955,63.968 131.957,63.846 133.885,63.824 135.55,64.399 136.971,65.599 141.429,69.33 143.174,73.334 142.13,77.615 141.974,76.856 141.589,76.189 140.957,75.584 140.674,75.303 140.299,75.075 139.839,74.977 L139.113,74.911 136.434,74.679 C136.134,74.65 135.869,74.682 135.609,74.792 L135.23,74.485 C133.214,73.022 131.33,72.979 129.517,74.389 128.361,75.258 127.017,75.59 125.501,75.414 125.072,75.581 124.791,75.864 124.646,76.312 L123.892,77.596 C123.408,78.158 123.254,78.732 123.413,79.287 123.462,79.582 123.637,79.885 123.92,80.166 L124.177,80.261 124.772,80.241 124.984,80.118 125.156,79.857 C125.149,78.164 126.091,77.135 127.934,76.758 L131.018,76.149 C132.428,75.861 133.765,75.937 135.048,76.409 L135.448,76.542 136.579,77.101 136.686,76.797 136.712,76.701 137.841,76.696 138.483,76.689 C139.113,76.73 139.613,76.966 139.941,77.464 139.604,78.911 140.135,80.181 141.534,81.273 L142.204,81.735 C142.483,81.937 142.753,81.984 143.043,81.857 143.46,82.02 143.916,82.039 144.411,81.916 144.844,81.827 145.288,81.894 145.753,82.07 147.071,82.603 147.873,83.433 148.1,84.595 L147.875,84.766z"/>
                <path id="path781" fill="#FFE6E6" fill-opacity="1" d="M151.846,90.314 Q152.458,91.374 153.229,91.94 C155.42,94.474 155.382,96.719 153.098,98.643 151.935,99.638 150.915,100.672 150.008,101.761 L150.508,102.766 150.644,103.213 150.524,103.565 150.382,103.809 149.962,104.132 149.75,104.254 149.171,105.841 C148.977,107.045 148.279,108.216 147.059,109.324 L145.68,110.645 C144.1,112.528 144.552,114.571 147.049,116.726 147.445,117.063 147.88,117.256 148.367,117.258 153.818,112.98 158.589,108.083 162.667,102.617 167.009,96.836 165.161,92.447 157.156,89.43 155.247,88.714 153.249,88.614 151.159,89.053 L150.707,89.112 C151.129,89.353 151.513,89.738 151.846,90.314z"/>
                <path id="path782" fill="#FFE6E6" fill-opacity="1" d="M147.875,84.766 L148.1,84.595 C147.873,83.433 147.071,82.603 145.753,82.07 145.288,81.894 144.844,81.827 144.411,81.916 143.916,82.039 143.46,82.02 143.043,81.857 142.753,81.984 142.483,81.937 142.204,81.735 L141.534,81.273 C140.135,80.181 139.604,78.911 139.941,77.464 139.613,76.966 139.113,76.73 138.483,76.689 L137.841,76.696 136.712,76.701 136.686,76.797 136.579,77.101 135.448,76.542 135.048,76.409 C133.765,75.937 132.428,75.861 131.018,76.149 L127.934,76.758 C126.091,77.135 125.149,78.164 125.156,79.857 L124.984,80.118 124.772,80.241 124.177,80.261 123.92,80.166 C123.637,79.885 123.462,79.582 123.413,79.287 123.254,78.732 123.408,78.158 123.892,77.596 L124.646,76.312 C124.791,75.864 125.072,75.581 125.501,75.414 127.017,75.59 128.361,75.258 129.517,74.389 131.33,72.979 133.214,73.022 135.23,74.485 L135.609,74.792 C135.869,74.682 136.134,74.65 136.434,74.679 L139.113,74.911 139.839,74.977 C140.299,75.075 140.674,75.303 140.957,75.584 141.589,76.189 141.974,76.856 142.13,77.615 143.174,73.334 141.429,69.33 136.971,65.599 135.55,64.399 133.885,63.824 131.957,63.846 124.955,63.968 119.39,66.858 115.308,72.529 111.502,77.838 112.999,80.571 119.799,80.727 L119.925,80.735 C120.845,79.88 121.946,79.407 123.226,79.314 L123.304,79.309 C122.634,79.898 122.06,80.513 121.555,81.249 L122.172,82.388 121.965,82.589 C121.527,82.881 121.02,83.053 120.539,83.129 120.07,84.208 119.78,85.386 119.686,86.693 119.56,88.504 119.715,90.313 120.14,92.169 120.512,93.653 120.392,95.055 119.751,96.395 121.448,98.285 122.586,100.255 123.189,102.21 118.906,99.551 116.751,95.258 116.737,89.285 116.733,87.387 117.081,85.61 117.781,83.953 L118.31,82.839 114.047,81.825 112.222,81.464 C109.913,76.695 110.849,72.436 115.048,68.718 117.284,66.781 119.868,65.167 122.784,63.848 120.076,58.177 115.848,53.303 110.164,49.269 105.003,45.58 99.253,45.141 92.94,47.857 90.709,48.822 88.783,50.176 87.241,51.915 86.666,52.53 86.204,53.201 85.826,53.945 L86.144,54.286 C86.658,54.757 87.211,55.085 87.85,55.281 89.241,55.731 90.636,55.977 92.004,56.036 92.538,56.051 92.877,56.219 93.1,56.534 L93.192,56.764 C98.827,67.293 105.518,77.413 113.267,87.125 L115.657,91.404 115.776,91.82 115.549,92.476 C114.995,93.968 114.603,95.528 114.306,97.114 113.958,98.891 114.182,100.54 115.027,102.073 L115.279,102.089 C115.826,102.057 116.368,101.946 116.858,101.744 L117.979,101.096 C118.416,100.803 118.807,100.78 119.216,101.069 L119.326,101.329 119.333,101.971 C120.19,102.406 120.944,102.941 121.589,103.498 L120.563,101.302 C122.776,102.894 125.35,104.762 128.272,106.955 130.655,108.772 133.404,109.893 136.597,110.313 L141.835,110.845 C142.205,110.227 142.759,109.786 143.478,109.492 L143.539,109.457 C144.188,107.991 145.585,106.7 147.716,105.631 L147.737,105.457 147.721,103.89 147.996,103.246 C147.703,102.809 147.615,102.375 147.725,101.867 148.182,100.068 149.113,98.6 150.597,97.461 L152.595,95.741 C153.656,95.129 153.335,94.223 151.584,93.011 150.683,92.359 150.015,91.694 149.595,90.966 L149.379,91.01 C148.993,91.112 148.766,91 148.665,90.614 148.359,89.174 147.836,87.779 147.018,86.432 L147.138,86.08 147.362,85.627 C147.452,85.293 147.654,85.014 147.875,84.766z M145.448,95.543 L147.951,97.008 148.217,97.258 148.458,97.887 148.505,98.668 148.398,98.973 C147.527,99.354 146.78,99.179 146.13,98.544 L145.781,98.22 C145.304,99.143 144.504,99.928 143.382,100.575 L139.555,102.906 139.086,102.934 C138.875,101.238 139.667,99.81 141.494,98.634 142.598,97.956 143.699,97.483 144.783,97.261 L144.151,96.656 C143.819,96.362 143.818,96.08 144.129,95.779 144.532,95.425 144.965,95.337 145.448,95.543z M137.345,83.328 L137.967,84.545 C138.147,84.926 138.105,85.274 137.841,85.587 L137.664,85.77 C136.832,85.24 136.044,84.645 135.329,83.966 134.669,84.994 133.806,86.018 132.816,87.034 131.528,88.303 130.095,89.251 128.483,89.818 L128.261,89.785 C128.397,88.13 129.271,86.494 130.918,84.937 132.003,83.946 133.155,83.281 134.409,83.002 L132.531,80.449 132.259,79.838 C132.132,79.548 132.082,79.253 132.111,78.953 132.782,78.364 133.442,78.387 134.187,79.048 135.394,80.089 136.316,81.335 136.987,82.847 L137.345,83.328z M133.98,97.799 C134.371,98.827 134.1,99.548 133.186,99.995 L131.234,101.163 131.403,102.157 C131.506,102.825 131.495,103.437 131.329,104.058 L131.105,104.511 C129.929,104.503 129.261,103.838 129.164,102.479 L129.272,101.406 128.426,101.41 C127.501,101.419 126.896,101 126.675,100.198 126.877,99.637 127.266,99.331 127.886,99.216 128.663,99.091 129.449,99.122 130.231,99.357 L130.383,99.27 131.69,98.313 C132.001,98.012 132.317,97.789 132.703,97.688 132.401,97.094 132.673,96.937 133.526,97.293 L133.805,97.496 133.814,97.653 133.98,97.799z M116.253,42.035 L115.906,41.994 C115.198,41.958 114.525,41.982 113.844,42.133 L111.736,42.542 111.467,42.495 111.231,42.227 C110.913,41.886 110.841,41.482 111.052,41.077 L111.309,40.121 111.087,40.087 108.796,41.37 C108.069,41.79 107.424,42.283 106.91,42.863 L106.193,43.721 106.151,44.069 C106.188,44.412 106.284,44.719 106.442,44.992 L106.459,45.022 C107.975,45.198 109.406,45.786 110.77,46.818 L113.327,48.938 113.401,48.855 113.643,48.715 C113.899,48.528 114.168,48.574 114.452,48.855 114.901,49.283 115.313,49.368 115.716,49.014 L115.888,48.753 116.008,48.401 C115.801,47.833 115.751,47.256 115.905,46.682 L116.1,46.529 116.537,46.237 117.234,45.834 117.901,45.449 118.048,45.283 C118.315,43.997 117.733,42.919 116.253,42.035z M125.459,115.732 L127.069,113.55 127.414,113.028 C128.091,112.031 129.005,111.584 130.182,111.591 130.433,111.608 130.625,111.659 130.743,111.793 L130.73,111.841 130.988,111.449 128.218,110.22 C126.481,109.242 124.982,108.046 123.704,106.602 124.358,108.366 124.389,110.449 123.814,112.883 123.529,114.139 124.071,115.079 125.459,115.732z"/>
                <path id="path783" fill="#000000" fill-opacity="1" d="M145.448,95.543 C144.965,95.337 144.532,95.425 144.129,95.779 143.818,96.08 143.819,96.362 144.151,96.656 L144.783,97.261 C143.699,97.483 142.598,97.956 141.494,98.634 139.667,99.81 138.875,101.238 139.086,102.934 L139.555,102.906 143.382,100.575 C144.504,99.928 145.304,99.143 145.781,98.22 L146.13,98.544 C146.78,99.179 147.527,99.354 148.398,98.973 L148.505,98.668 148.458,97.887 148.217,97.258 147.951,97.008 145.448,95.543z"/>
                <path id="path784" fill="#000000" fill-opacity="1" d="M137.345,83.328 L136.987,82.847 C136.316,81.335 135.394,80.089 134.187,79.048 133.442,78.387 132.782,78.364 132.111,78.953 132.082,79.253 132.132,79.548 132.259,79.838 L132.531,80.449 134.409,83.002 C133.155,83.281 132.003,83.946 130.918,84.937 129.271,86.494 128.397,88.13 128.261,89.785 L128.483,89.818 C130.095,89.251 131.528,88.303 132.816,87.034 133.806,86.018 134.669,84.994 135.329,83.966 136.044,84.645 136.832,85.24 137.664,85.77 L137.841,85.587 C138.105,85.274 138.147,84.926 137.967,84.545 L137.345,83.328z"/>
                <path id="path785" fill="#000000" fill-opacity="1" d="M133.98,97.799 L133.814,97.653 133.805,97.496 133.526,97.293 C132.673,96.937 132.401,97.094 132.703,97.688 132.317,97.789 132.001,98.012 131.69,98.313 L130.383,99.27 130.231,99.357 C129.449,99.122 128.663,99.091 127.886,99.216 127.266,99.331 126.877,99.637 126.675,100.198 126.896,101 127.501,101.419 128.426,101.41 L129.272,101.406 129.164,102.479 C129.261,103.838 129.929,104.503 131.105,104.511 L131.329,104.058 C131.495,103.437 131.506,102.825 131.403,102.157 L131.234,101.163 133.186,99.995 C134.1,99.548 134.371,98.827 133.98,97.799z M113.393,48.981 L113.327,48.938 113.401,48.855 113.393,48.981z M111.299,39.965 L111.309,40.121 111.087,40.087 111.299,39.965z"/>
              </g>
            </g>
          </g>
        </g>
      </g>
    </g>
    <g id="Layer.__205">
      <g id="MovieClip.__2Fsprite.__201521_2" overflow="visible">
        <g id="Layer.__294">
          <g id="Graphic.__2Fshape.__201538_6" overflow="visible">
            <g id="Layer.__295">
              <g id="shape276">
                <path id="path786" fill="#000000" fill-opacity="1" d="M-61.842,104.928 Q-63.3,104.652 -63.95,103.468 L-63.76,102.649 -61.479,98.348 -34.896,57.275 C-32.016,52.916 -28.693,50.591 -24.941,50.252 -24.596,50.006 -24.267,49.995 -23.955,50.295 L-23.679,50.657 -23.653,50.753 -23.835,50.648 C-24.398,50.363 -24.877,50.491 -25.235,50.971 L-23.854,52.011 C-20.106,54.619 -15.748,56.731 -10.78,58.347 -5.522,60.089 -0.396,62.2 4.629,64.697 4.889,64.807 5.136,64.869 5.436,64.84 L3.975,68.28 C0.541,66.459 -3.19,64.871 -7.2,63.485 L-20.179,59.225 -20.79,58.953 -25.119,64.981 C-23.297,66.235 -21.065,67.201 -18.389,67.816 -13.55,68.953 -8.854,70.411 -4.304,72.19 -2.419,72.914 -0.537,73.435 1.346,73.673 L1.631,73.11 3.721,68.861 3.975,68.28 L-23.653,50.753 C-18.606,53.141 -13.467,55.3 -8.24,57.307 -2.875,59.354 2.368,61.613 7.489,64.085 5.914,69.682 3.568,74.795 0.452,79.422 L-0.177,79.462 -0.273,79.488 -0.199,79.571 C-6.111,77.209 -10.098,75.715 -12.144,75.059 L-16.237,73.747 -21.528,83.261 -29.15,85.893 C-31.702,86.885 -33.456,86.842 -34.393,85.735 L-35.084,86.791 C-39.285,93.298 -43.632,99.356 -48.098,105.063 L-47.836,105.659 -48.79,107.452 -49.017,107.564 C-50.818,107.534 -52.575,107.287 -54.301,106.776 -56.811,106.014 -59.313,105.377 -61.842,104.928z M-22.046,72.05 L-23.395,71.796 C-22.972,72.323 -22.715,72.998 -22.64,73.849 -22.435,76.433 -23.026,78.436 -24.425,79.81 L-24.607,78.655 C-24.668,77.851 -24.655,76.848 -24.61,75.581 -24.548,74.283 -24.734,73.206 -25.174,72.427 L-33.738,84.74 C-31.257,84.434 -27.936,83.441 -23.835,81.727 L-22.23,81.118 C-20.798,78.428 -19.324,75.804 -17.849,73.18 L-18.109,73.07 -18.343,73.056 C-18.643,73.085 -18.938,73.036 -19.193,72.848 L-19.423,72.756 -19.948,72.615 -20.455,72.443 -21.209,72.21 -21.535,72.143 -22.046,72.05z"/>
              </g>
            </g>
            <g id="Layer.__296">
              <g id="shape277">
                <path id="path787" fill="#000000" fill-opacity="1" d="M-78.707,84.157 L-78.166,82.449 C-77.301,81.372 -76.208,80.669 -74.9,80.293 L-73.088,79.885 C-72.501,79.779 -72.002,79.824 -71.669,80.017 L-71.344,79.315 -71.747,78.961 C-73.624,76.544 -73.908,73.955 -72.537,71.23 L-69.275,64.95 C-64.128,61.495 -58.608,60.964 -52.714,63.356 L-52.684,63.374 -51.417,59.781 -49.962,56.7 C-48.16,54.629 -46.224,52.675 -44.214,50.804 L-44.131,50.731 -44.21,50.726 -44.318,50.704 C-45.81,50.489 -46.636,49.608 -46.781,48.11 L-46.817,47.402 -47.272,47.14 -48.423,46.475 C-48.636,46.352 -48.813,46.169 -48.955,45.925 L-49.105,45.556 -48.915,44.736 -47.159,41.345 C-46.64,40.795 -45.974,40.412 -45.161,40.194 -44.444,40.002 -43.706,39.984 -42.947,40.139 L-42.617,40.127 -42.263,39.725 -41.237,38.297 -41.089,38.181 -40.867,38.147 C-39.448,38.279 -38.113,38.767 -36.827,39.55 -35.481,40.368 -34.352,41.423 -33.455,42.669 L-32.926,43.783 C-32.841,44.195 -32.882,44.616 -32.983,45.002 -28.591,44.184 -24.439,44.762 -20.51,46.707 -16.581,48.652 -13.955,50.896 -12.651,53.467 L-12.768,54.37 C-13.011,55.28 -13.535,55.907 -14.387,56.264 L-16.536,57.045 C-17.909,57.464 -19.274,57.727 -20.641,57.786 -22.244,61.751 -29.492,73.046 -42.386,91.669 -41.881,92.405 -41.52,93.179 -41.398,94.018 -41.073,96.185 -41.018,98.4 -41.215,100.63 -41.364,102.08 -41.934,103.206 -42.923,104.009 L-44.114,104.251 C-45.068,104.225 -45.979,103.982 -46.876,103.505 L-47.404,103.16 C-48.353,104.875 -49.724,106.549 -51.559,108.117 L-50.934,110.255 C-50.085,114.383 -51.52,116.869 -55.209,117.73 L-55.516,117.35 C-56.097,116.328 -56.797,115.439 -57.657,114.619 -58.608,113.746 -59.242,112.815 -59.529,111.841 L-59.542,111.793 C-59.424,111.659 -59.232,111.608 -58.981,111.591 -57.804,111.584 -56.89,112.031 -56.213,113.028 L-55.868,113.55 -54.258,115.732 C-52.87,115.079 -52.328,114.139 -52.613,112.883 -53.188,110.449 -53.157,108.366 -52.503,106.602 -53.781,108.046 -55.28,109.242 -57.017,110.22 L-59.787,111.449 C-61.405,112.01 -63.217,112.419 -65.159,112.632 -67.765,112.946 -70.026,112.732 -71.928,112.037 -72.075,113.691 -72.956,115.567 -74.524,117.652 -75.117,118.401 -75.726,118.615 -76.319,118.313 -79.988,116.477 -83.655,114.078 -87.288,111.131 -93.254,106.273 -95.867,100.439 -95.147,93.661 -92.656,90.047 -89.277,87.835 -84.98,87.043 -82.586,86.606 -80.482,86.811 -78.636,87.674 L-78.048,86.236 -78.38,85.761 C-78.712,85.286 -78.853,84.76 -78.707,84.157z M-80.645,90.314 C-80.312,89.738 -79.928,89.353 -79.506,89.112 L-79.958,89.053 C-82.048,88.614 -84.046,88.714 -85.955,89.43 -93.96,92.447 -95.808,96.836 -91.466,102.617 -87.388,108.083 -82.617,112.98 -77.166,117.258 -76.679,117.256 -76.244,117.063 -75.848,116.726 -73.351,114.571 -72.899,112.528 -74.479,110.645 L-75.858,109.324 C-77.078,108.216 -77.776,107.045 -77.97,105.841 L-78.549,104.254 -78.761,104.132 -79.181,103.809 -79.323,103.565 -79.443,103.213 -79.307,102.766 -78.807,101.761 C-79.714,100.672 -80.734,99.638 -81.897,98.643 -84.181,96.719 -84.219,94.474 -82.028,91.94 Q-81.257,91.374 -80.645,90.314z M-76.674,84.766 C-76.453,85.014 -76.251,85.293 -76.161,85.627 L-75.937,86.08 -75.817,86.432 C-76.635,87.779 -77.158,89.174 -77.464,90.614 -77.565,91 -77.792,91.112 -78.178,91.01 L-78.394,90.966 C-78.814,91.694 -79.482,92.359 -80.383,93.011 -82.134,94.223 -82.455,95.129 -81.394,95.741 L-79.396,97.461 C-77.912,98.6 -76.981,100.068 -76.524,101.867 -76.414,102.375 -76.502,102.809 -76.795,103.246 L-76.52,103.89 -76.536,105.457 -76.515,105.631 C-74.384,106.7 -72.987,107.991 -72.338,109.457 L-72.277,109.492 C-71.558,109.786 -71.004,110.227 -70.634,110.845 L-65.396,110.313 C-62.203,109.893 -59.454,108.772 -57.071,106.955 -54.149,104.762 -51.575,102.894 -49.362,101.302 L-50.388,103.498 C-49.743,102.941 -48.989,102.406 -48.132,101.971 L-48.125,101.329 -48.015,101.069 C-47.606,100.78 -47.215,100.803 -46.778,101.096 L-45.657,101.744 C-45.167,101.946 -44.625,102.057 -44.078,102.089 L-43.826,102.073 C-42.981,100.54 -42.757,98.891 -43.105,97.114 -43.402,95.528 -43.794,93.968 -44.348,92.476 L-44.575,91.82 -44.456,91.404 -42.066,87.125 C-34.317,77.413 -27.626,67.293 -21.991,56.764 L-21.899,56.534 C-21.676,56.219 -21.337,56.051 -20.803,56.036 -19.435,55.977 -18.04,55.731 -16.649,55.281 -16.01,55.085 -15.457,54.757 -14.943,54.286 L-14.625,53.945 C-15.003,53.201 -15.465,52.53 -16.04,51.915 -17.582,50.176 -19.508,48.822 -21.739,47.857 -28.052,45.141 -33.802,45.58 -38.963,49.269 -44.647,53.303 -48.875,58.177 -51.583,63.848 -48.667,65.167 -46.083,66.781 -43.847,68.718 -39.648,72.436 -38.712,76.695 -41.021,81.464 L-42.846,81.825 -47.109,82.839 -46.58,83.953 C-45.88,85.61 -45.532,87.387 -45.536,89.285 -45.55,95.258 -47.705,99.551 -51.988,102.21 -51.385,100.255 -50.247,98.285 -48.55,96.395 -49.191,95.055 -49.311,93.653 -48.939,92.169 -48.514,90.313 -48.359,88.504 -48.485,86.693 -48.579,85.386 -48.869,84.208 -49.338,83.129 -49.819,83.053 -50.326,82.881 -50.764,82.589 L-50.971,82.388 -50.354,81.249 C-50.859,80.513 -51.433,79.898 -52.103,79.309 L-52.025,79.314 C-50.745,79.407 -49.644,79.88 -48.724,80.735 L-48.598,80.727 C-41.798,80.571 -40.301,77.838 -44.107,72.529 -48.189,66.858 -53.754,63.968 -60.756,63.846 -62.684,63.824 -64.349,64.399 -65.77,65.599 -70.228,69.33 -71.973,73.334 -70.929,77.615 -70.773,76.856 -70.388,76.189 -69.756,75.584 -69.473,75.303 -69.098,75.075 -68.638,74.977 L-67.912,74.911 -65.233,74.679 C-64.933,74.65 -64.668,74.682 -64.408,74.792 L-64.029,74.485 C-62.013,73.022 -60.129,72.979 -58.316,74.389 -57.16,75.258 -55.816,75.59 -54.3,75.414 -53.871,75.581 -53.59,75.864 -53.445,76.312 L-52.691,77.596 C-52.207,78.158 -52.053,78.732 -52.212,79.287 -52.261,79.582 -52.436,79.885 -52.719,80.166 L-52.976,80.261 -53.571,80.241 -53.783,80.118 -53.955,79.857 C-53.948,78.164 -54.89,77.135 -56.733,76.758 L-59.817,76.149 C-61.227,75.861 -62.564,75.937 -63.847,76.409 L-64.247,76.542 -65.378,77.101 -65.485,76.797 -65.511,76.701 -66.64,76.696 -67.282,76.689 C-67.912,76.73 -68.412,76.966 -68.74,77.464 -68.403,78.911 -68.934,80.181 -70.333,81.273 L-71.003,81.735 C-71.282,81.937 -71.552,81.984 -71.842,81.857 -72.259,82.02 -72.715,82.039 -73.21,81.916 -73.643,81.827 -74.087,81.894 -74.552,82.07 -75.87,82.603 -76.672,83.433 -76.899,84.595 L-76.674,84.766z"/>
                <path id="path788" fill="#FFE6E6" fill-opacity="1" d="M-80.645,90.314 Q-81.257,91.374 -82.028,91.94 C-84.219,94.474 -84.181,96.719 -81.897,98.643 -80.734,99.638 -79.714,100.672 -78.807,101.761 L-79.307,102.766 -79.443,103.213 -79.323,103.565 -79.181,103.809 -78.761,104.132 -78.549,104.254 -77.97,105.841 C-77.776,107.045 -77.078,108.216 -75.858,109.324 L-74.479,110.645 C-72.899,112.528 -73.351,114.571 -75.848,116.726 -76.244,117.063 -76.679,117.256 -77.166,117.258 -82.617,112.98 -87.388,108.083 -91.466,102.617 -95.808,96.836 -93.96,92.447 -85.955,89.43 -84.046,88.714 -82.048,88.614 -79.958,89.053 L-79.506,89.112 C-79.928,89.353 -80.312,89.738 -80.645,90.314z"/>
                <path id="path789" fill="#FFE6E6" fill-opacity="1" d="M-76.674,84.766 L-76.899,84.595 C-76.672,83.433 -75.87,82.603 -74.552,82.07 -74.087,81.894 -73.643,81.827 -73.21,81.916 -72.715,82.039 -72.259,82.02 -71.842,81.857 -71.552,81.984 -71.282,81.937 -71.003,81.735 L-70.333,81.273 C-68.934,80.181 -68.403,78.911 -68.74,77.464 -68.412,76.966 -67.912,76.73 -67.282,76.689 L-66.64,76.696 -65.511,76.701 -65.485,76.797 -65.378,77.101 -64.247,76.542 -63.847,76.409 C-62.564,75.937 -61.227,75.861 -59.817,76.149 L-56.733,76.758 C-54.89,77.135 -53.948,78.164 -53.955,79.857 L-53.783,80.118 -53.571,80.241 -52.976,80.261 -52.719,80.166 C-52.436,79.885 -52.261,79.582 -52.212,79.287 -52.053,78.732 -52.207,78.158 -52.691,77.596 L-53.445,76.312 C-53.59,75.864 -53.871,75.581 -54.3,75.414 -55.816,75.59 -57.16,75.258 -58.316,74.389 -60.129,72.979 -62.013,73.022 -64.029,74.485 L-64.408,74.792 C-64.668,74.682 -64.933,74.65 -65.233,74.679 L-67.912,74.911 -68.638,74.977 C-69.098,75.075 -69.473,75.303 -69.756,75.584 -70.388,76.189 -70.773,76.856 -70.929,77.615 -71.973,73.334 -70.228,69.33 -65.77,65.599 -64.349,64.399 -62.684,63.824 -60.756,63.846 -53.754,63.968 -48.189,66.858 -44.107,72.529 -40.301,77.838 -41.798,80.571 -48.598,80.727 L-48.724,80.735 C-49.644,79.88 -50.745,79.407 -52.025,79.314 L-52.103,79.309 C-51.433,79.898 -50.859,80.513 -50.354,81.249 L-50.971,82.388 -50.764,82.589 C-50.326,82.881 -49.819,83.053 -49.338,83.129 -48.869,84.208 -48.579,85.386 -48.485,86.693 -48.359,88.504 -48.514,90.313 -48.939,92.169 -49.311,93.653 -49.191,95.055 -48.55,96.395 -50.247,98.285 -51.385,100.255 -51.988,102.21 -47.705,99.551 -45.55,95.258 -45.536,89.285 -45.532,87.387 -45.88,85.61 -46.58,83.953 L-47.109,82.839 -42.846,81.825 -41.021,81.464 C-38.712,76.695 -39.648,72.436 -43.847,68.718 -46.083,66.781 -48.667,65.167 -51.583,63.848 -48.875,58.177 -44.647,53.303 -38.963,49.269 -33.802,45.58 -28.052,45.141 -21.739,47.857 -19.508,48.822 -17.582,50.176 -16.04,51.915 -15.465,52.53 -15.003,53.201 -14.625,53.945 L-14.943,54.286 C-15.457,54.757 -16.01,55.085 -16.649,55.281 -18.04,55.731 -19.435,55.977 -20.803,56.036 -21.337,56.051 -21.676,56.219 -21.899,56.534 L-21.991,56.764 C-27.626,67.293 -34.317,77.413 -42.066,87.125 L-44.456,91.404 -44.575,91.82 -44.348,92.476 C-43.794,93.968 -43.402,95.528 -43.105,97.114 -42.757,98.891 -42.981,100.54 -43.826,102.073 L-44.078,102.089 C-44.625,102.057 -45.167,101.946 -45.657,101.744 L-46.778,101.096 C-47.215,100.803 -47.606,100.78 -48.015,101.069 L-48.125,101.329 -48.132,101.971 C-48.989,102.406 -49.743,102.941 -50.388,103.498 L-49.362,101.302 C-51.575,102.894 -54.149,104.762 -57.071,106.955 -59.454,108.772 -62.203,109.893 -65.396,110.313 L-70.634,110.845 C-71.004,110.227 -71.558,109.786 -72.277,109.492 L-72.338,109.457 C-72.987,107.991 -74.384,106.7 -76.515,105.631 L-76.536,105.457 -76.52,103.89 -76.795,103.246 C-76.502,102.809 -76.414,102.375 -76.524,101.867 -76.981,100.068 -77.912,98.6 -79.396,97.461 L-81.394,95.741 C-82.455,95.129 -82.134,94.223 -80.383,93.011 -79.482,92.359 -78.814,91.694 -78.394,90.966 L-78.178,91.01 C-77.792,91.112 -77.565,91 -77.464,90.614 -77.158,89.174 -76.635,87.779 -75.817,86.432 L-75.937,86.08 -76.161,85.627 C-76.251,85.293 -76.453,85.014 -76.674,84.766z M-74.247,95.543 L-76.75,97.008 -77.016,97.258 -77.257,97.887 -77.304,98.668 -77.197,98.973 C-76.326,99.354 -75.579,99.179 -74.929,98.544 L-74.58,98.22 C-74.103,99.143 -73.303,99.928 -72.181,100.575 L-68.354,102.906 -67.885,102.934 C-67.674,101.238 -68.466,99.81 -70.293,98.634 -71.397,97.956 -72.498,97.483 -73.582,97.261 L-72.95,96.656 C-72.618,96.362 -72.617,96.08 -72.928,95.779 -73.331,95.425 -73.764,95.337 -74.247,95.543z M-66.144,83.328 L-66.766,84.545 C-66.946,84.926 -66.904,85.274 -66.64,85.587 L-66.463,85.77 C-65.631,85.24 -64.843,84.645 -64.128,83.966 -63.468,84.994 -62.605,86.018 -61.615,87.034 -60.327,88.303 -58.894,89.251 -57.282,89.818 L-57.06,89.785 C-57.196,88.13 -58.07,86.494 -59.717,84.937 -60.802,83.946 -61.954,83.281 -63.208,83.002 L-61.33,80.449 -61.058,79.838 C-60.931,79.548 -60.881,79.253 -60.91,78.953 -61.581,78.364 -62.241,78.387 -62.986,79.048 -64.193,80.089 -65.115,81.335 -65.786,82.847 L-66.144,83.328z M-62.779,97.799 C-63.17,98.827 -62.899,99.548 -61.985,99.995 L-60.033,101.163 -60.202,102.157 C-60.305,102.825 -60.294,103.437 -60.128,104.058 L-59.904,104.511 C-58.728,104.503 -58.06,103.838 -57.963,102.479 L-58.071,101.406 -57.225,101.41 C-56.3,101.419 -55.695,101 -55.474,100.198 -55.676,99.637 -56.065,99.331 -56.685,99.216 -57.462,99.091 -58.248,99.122 -59.03,99.357 L-59.182,99.27 -60.489,98.313 C-60.8,98.012 -61.116,97.789 -61.502,97.688 -61.2,97.094 -61.472,96.937 -62.325,97.293 L-62.604,97.496 -62.613,97.653 -62.779,97.799z M-45.052,42.035 L-44.705,41.994 C-43.997,41.958 -43.324,41.982 -42.643,42.133 L-40.535,42.542 -40.266,42.495 -40.03,42.227 C-39.712,41.886 -39.64,41.482 -39.851,41.077 L-40.108,40.121 -39.886,40.087 -37.595,41.37 C-36.868,41.79 -36.223,42.283 -35.709,42.863 L-34.992,43.721 -34.95,44.069 C-34.987,44.412 -35.083,44.719 -35.241,44.992 L-35.258,45.022 C-36.774,45.198 -38.205,45.786 -39.569,46.818 L-42.126,48.938 -42.2,48.855 -42.442,48.715 C-42.698,48.528 -42.967,48.574 -43.251,48.855 -43.7,49.283 -44.112,49.368 -44.515,49.014 L-44.687,48.753 -44.807,48.401 C-44.6,47.833 -44.55,47.256 -44.704,46.682 L-44.899,46.529 -45.336,46.237 -46.033,45.834 -46.7,45.449 -46.847,45.283 C-47.114,43.997 -46.532,42.919 -45.052,42.035z M-54.258,115.732 L-55.868,113.55 -56.213,113.028 C-56.89,112.031 -57.804,111.584 -58.981,111.591 -59.232,111.608 -59.424,111.659 -59.542,111.793 L-59.529,111.841 -59.787,111.449 -57.017,110.22 C-55.28,109.242 -53.781,108.046 -52.503,106.602 -53.157,108.366 -53.188,110.449 -52.613,112.883 -52.328,114.139 -52.87,115.079 -54.258,115.732z"/>
                <path id="path790" fill="#000000" fill-opacity="1" d="M-74.247,95.543 C-73.764,95.337 -73.331,95.425 -72.928,95.779 -72.617,96.08 -72.618,96.362 -72.95,96.656 L-73.582,97.261 C-72.498,97.483 -71.397,97.956 -70.293,98.634 -68.466,99.81 -67.674,101.238 -67.885,102.934 L-68.354,102.906 -72.181,100.575 C-73.303,99.928 -74.103,99.143 -74.58,98.22 L-74.929,98.544 C-75.579,99.179 -76.326,99.354 -77.197,98.973 L-77.304,98.668 -77.257,97.887 -77.016,97.258 -76.75,97.008 -74.247,95.543z"/>
                <path id="path791" fill="#000000" fill-opacity="1" d="M-66.144,83.328 L-65.786,82.847 C-65.115,81.335 -64.193,80.089 -62.986,79.048 -62.241,78.387 -61.581,78.364 -60.91,78.953 -60.881,79.253 -60.931,79.548 -61.058,79.838 L-61.33,80.449 -63.208,83.002 C-61.954,83.281 -60.802,83.946 -59.717,84.937 -58.07,86.494 -57.196,88.13 -57.06,89.785 L-57.282,89.818 C-58.894,89.251 -60.327,88.303 -61.615,87.034 -62.605,86.018 -63.468,84.994 -64.128,83.966 -64.843,84.645 -65.631,85.24 -66.463,85.77 L-66.64,85.587 C-66.904,85.274 -66.946,84.926 -66.766,84.545 L-66.144,83.328z"/>
                <path id="path792" fill="#000000" fill-opacity="1" d="M-62.779,97.799 L-62.613,97.653 -62.604,97.496 -62.325,97.293 C-61.472,96.937 -61.2,97.094 -61.502,97.688 -61.116,97.789 -60.8,98.012 -60.489,98.313 L-59.182,99.27 -59.03,99.357 C-58.248,99.122 -57.462,99.091 -56.685,99.216 -56.065,99.331 -55.676,99.637 -55.474,100.198 -55.695,101 -56.3,101.419 -57.225,101.41 L-58.071,101.406 -57.963,102.479 C-58.06,103.838 -58.728,104.503 -59.904,104.511 L-60.128,104.058 C-60.294,103.437 -60.305,102.825 -60.202,102.157 L-60.033,101.163 -61.985,99.995 C-62.899,99.548 -63.17,98.827 -62.779,97.799z M-42.192,48.981 L-42.126,48.938 -42.2,48.855 -42.192,48.981z M-40.098,39.965 L-40.108,40.121 -39.886,40.087 -40.098,39.965z"/>
              </g>
            </g>
          </g>
        </g>
      </g>
    </g>
  </g>
</svg>