<?xml version="1.0" encoding="utf-8"?>
<!-- Generator: flash2svg, http://dissentgraphics.com/tools/flash2svg -->
<svg xmlns:xlink="http://www.w3.org/1999/xlink" id="sprite.__201571.__20(Items).__2F141" image-rendering="optimizeSpeed" baseProfile="basic" version="1.1" style="background-color:#ffffff" x="0px" y="0px" width="550px" height="400px" viewBox="0 0 550 400" enable-background="new 0 0 550 400" xmlns="http://www.w3.org/2000/svg">
  <defs transform="matrix(1 0 0 1 0 0) "/>
  <g id="sprite.__201571.__20(Items).__2F141">
    <g id="Layer.__202">
      <g id="MovieClip.__2Fsprite.__201545_1" overflow="visible">
        <g id="Layer.__254">
          <g id="Graphic.__2Fshape.__201558_3" overflow="visible">
            <g id="Layer.__255">
              <g id="shape335">
                <path id="path768" fill="#000000" fill-opacity="1" d="M9.451,59.2 L9.301,55.6 9.151,55.3 8.851,55.05 7.201,54.4 5.601,54.1 5.401,54.15 C3.901,54.65 2.401,55.3 0.901,56.1 L0.951,56.1 C-0.599,56.9 -2.149,57.65 -3.649,58.35 L-2.849,55.15 -2.849,55.1 C-2.549,53.8 -2.149,52.55 -1.599,51.35 L-1.549,51.15 -1.599,50.95 -2.349,50 C-4.499,48.35 -6.899,47.2 -9.449,46.6 L-16.849,45.1 -17.099,45.15 -17.299,45.3 C-17.949,45.95 -18.349,47 -18.449,48.35 -18.549,49.3 -18.749,50.2 -19.099,51.1 L-20.199,48.95 -20.399,48.75 -21.049,48.45 -21.099,48.4 -21.949,48.35 -22.099,48.4 -25.599,49.5 -25.599,49.45 C-27.549,49.9 -29.299,50.55 -30.749,51.5 -31.599,50 -32.199,48.45 -32.649,46.8 L-32.799,46.55 -33.099,46.3 -33.249,46.25 -33.549,46.15 -33.699,46.1 -34.199,46.1 -34.749,46.35 -34.799,46.4 C-36.649,48.7 -38.799,50.6 -41.349,52.15 -43.899,53.7 -45.299,55.5 -45.549,57.65 L-48.599,57.1 -48.849,57.15 -49.799,57.45 -49.749,57.4 -50.599,57.65 -50.549,57.65 -51.799,58.1 -51.749,58.1 -52.299,58.5 -52.349,58.6 -52.699,59.5 -52.699,59.55 C-52.799,61.05 -52.999,62.5 -53.299,63.95 L-53.349,63.95 C-53.599,65.25 -53.699,66.6 -53.649,68.05 -53.599,69.05 -53.649,70.05 -53.899,71.05 L-53.949,71.55 C-56.399,72 -58.749,72.75 -61.049,73.8 -63.699,74.95 -64.799,76.95 -64.349,79.75 L-62.849,88.6 C-62.349,91.3 -61.399,93.35 -60.049,94.7 -59.999,95.05 -59.799,95.2 -59.499,95.15 L-59.449,95.2 -59.299,95.3 -58.899,95.4 -58.749,95.35 C-57.449,95.6 -56.149,95.6 -54.899,95.35 -57.049,97.1 -58.849,99.1 -60.199,101.35 L-60.299,101.6 -60.199,101.85 -53.849,111.5 C-50.999,115.45 -47.399,118.25 -43.099,120 L-42.749,120 -42.099,119.35 -42.099,119.3 C-41.849,118.35 -41.449,117.45 -40.849,116.65 -41.199,117.9 -41.399,119.15 -41.499,120.45 L-41.399,120.8 -41.149,121 -39.599,121.6 C-32.799,124.9 -25.749,126.65 -18.449,126.85 L-18.149,126.75 -17.949,126.45 -17.799,125.25 C-17.649,126.35 -17.349,127.4 -16.949,128.45 L-16.799,128.65 -16.499,128.75 C-9.949,129.05 -3.649,127.85 2.301,125.15 L2.501,125.05 2.601,124.85 2.651,124.35 2.401,116.85 2.251,113.3 5.251,116.75 C7.401,119 9.751,120.55 12.301,121.45 L12.601,121.45 C12.651,121.4 12.751,121.35 12.851,121.3 16.301,117.35 20.301,113.75 24.751,110.5 25.501,109.95 25.901,109.45 26.051,108.9 26.201,108.25 26.001,107.65 25.501,107.05 L22.451,103.6 C23.851,101.75 24.851,99.55 25.501,97 L27.051,90.2 C27.201,89.45 27.451,88.7 27.701,88.05 L27.751,88.05 C28.101,87.2 28.101,86.35 27.801,85.5 L27.651,85.3 C27.101,84.75 26.451,84.5 25.601,84.55 L22.551,84.6 C23.201,83.25 23.551,81.7 23.501,79.95 23.451,77.3 23.651,74.7 24.201,72.2 24.401,71.15 24.251,70.25 23.801,69.4 L23.601,69.25 22.951,68.95 19.451,67.95 15.501,67.6 11.651,67.75 11.601,67.75 9.601,67.75 9.651,67.6 9.701,67.25 9.601,66.85 9.501,66.7 9.401,66.55 9.251,66.4 C9.501,65.8 9.601,65.15 9.551,64.45 L9.451,59.2z M7.151,58.5 L7.151,58.55 C7.251,60.45 7.151,62.4 6.851,64.4 6.601,65.7 6.701,66.85 7.101,67.9 L2.851,68.7 2.601,68.8 2.501,69.05 C2.401,69.35 2.401,69.55 2.551,69.7 2.651,69.95 2.901,70 3.251,69.95 9.701,69.45 15.901,69.9 21.851,71.25 21.401,72.9 21.251,74.65 21.401,76.5 21.601,78.9 21.251,81.15 20.301,83.25 20.101,83.7 20.001,84.1 20.051,84.5 L15.201,84 C11.801,83.55 8.451,82.9 5.201,82.15 L4.951,82.15 C4.301,82.3 4.001,82.5 4.051,82.75 3.851,83.1 4.101,83.4 4.751,83.65 9.001,85.15 13.401,86.15 17.951,86.65 L25.151,87.3 24.951,88.05 23.251,96.85 C22.951,97.95 22.451,99 21.751,100.05 L20.751,101.65 20.701,101.7 20.651,101.8 C17.701,98.95 14.551,96.45 11.101,94.2 L10.901,94.1 10.701,94.15 10.501,94.2 10.251,94.35 10.101,94.6 10.151,94.9 C11.551,97.55 13.851,99.9 17.001,101.95 19.451,103.55 21.701,105.4 23.751,107.55 L17.701,113.15 11.201,118.8 10.401,118.2 5.751,113.2 C3.901,111.25 2.251,109.65 0.701,108.4 0.551,108.3 0.451,108.25 0.301,108.25 0.151,108.25 0.051,108.3 0.001,108.45 -0.449,108.9 -0.499,109.45 -0.099,110.05 L0.201,110.5 C-0.249,112.5 -0.399,114.6 -0.149,116.85 0.101,119 0.201,121.2 0.201,123.45 -4.649,125.55 -9.749,126.5 -15.099,126.25 -15.249,124.9 -15.299,123.55 -15.199,122.25 -15.149,121.1 -15.249,120.2 -15.499,119.45 L-15.249,119.25 C-13.549,117.65 -13.149,116.2 -13.999,114.85 L-14.199,114.7 -14.449,114.6 -14.949,114.85 -14.999,114.85 -17.999,118 -17.999,117.9 C-17.949,115.75 -18.099,113.9 -18.449,112.25 L-18.599,112 -18.849,111.85 -19.149,111.9 C-20.149,112.35 -20.649,113.2 -20.649,114.35 L-20.499,119.8 -20.299,124.75 C-20.449,125.1 -20.899,125.2 -21.699,125.05 -27.799,123.8 -33.599,121.75 -39.099,119 -38.699,117.45 -38.099,115.9 -37.349,114.45 -35.749,111.45 -33.949,108.6 -31.999,105.85 -30.649,103.95 -30.099,102.35 -30.449,101 L-30.649,100.7 -30.999,100.6 C-31.449,100.65 -31.799,100.85 -32.099,101.25 -34.149,103.95 -36.049,106.8 -37.799,109.75 L-38.249,110.4 -38.299,110.55 -38.299,110.65 -38.499,111 -38.649,111.25 -41.399,114 -43.849,117.05 -44.499,116.7 C-47.549,114.8 -50.149,112.35 -52.349,109.4 L-57.649,101.65 -54.999,99 C-52.799,97.1 -50.549,95.25 -48.249,93.45 -46.549,92.1 -45.849,90.9 -46.149,89.85 L-44.449,88.2 -44.299,87.85 C-44.299,87.7 -44.349,87.6 -44.449,87.5 L-44.499,87.45 -44.699,87.25 C-44.899,87.1 -45.099,87 -45.249,86.95 L-45.349,86.9 -45.949,86.85 -46.249,86.95 -51.099,90.45 -51.049,90.45 C-53.499,92.15 -56.049,93.25 -58.649,93.8 L-59.099,91.4 C-59.649,88.8 -60.349,86.25 -61.199,83.7 -61.499,82.8 -61.649,81.85 -61.599,80.85 -61.549,79.6 -61.549,78.4 -61.649,77.35 L-60.749,76.75 -60.799,76.75 C-59.249,75.8 -57.599,75.2 -55.799,74.95 -51.749,74.3 -47.899,73.6 -44.199,72.75 L-43.899,72.55 -43.799,72.25 C-43.799,72.05 -43.849,71.9 -43.949,71.8 -44.299,71.25 -44.749,71 -45.349,70.95 L-46.649,70.85 -46.699,70.85 -51.299,71.1 -51.349,68.55 -51.349,68.5 -51.049,65.1 -50.549,62.25 -50.299,60.2 C-48.549,60.1 -46.849,60.15 -45.149,60.3 L-45.099,60.3 -44.849,60.35 -44.799,60.35 C-40.949,60.8 -37.199,61.9 -33.499,63.7 -30.849,65 -28.299,65.85 -25.749,66.25 L-25.499,66.25 -25.299,66.1 C-25.049,65.8 -24.999,65.55 -25.099,65.3 L-25.599,64.75 -25.599,64.7 C-29.149,62.8 -32.899,61.2 -36.849,59.95 L-43.499,58.1 C-42.799,56.55 -41.699,55.3 -40.149,54.35 -37.849,52.85 -35.899,51.2 -34.249,49.4 -33.599,51.45 -32.599,53.35 -31.149,55.15 L-31.099,55.2 -28.599,58.3 C-25.849,61.65 -23.049,64.35 -20.249,66.4 L-19.949,66.5 -19.699,66.45 -19.499,66.25 C-19.149,65.65 -19.199,65.1 -19.649,64.55 -22.099,61.55 -24.699,58.7 -27.349,55.95 L-29.299,53.7 -28.549,53.45 -21.849,50.9 -20.399,53.65 C-19.549,55.2 -18.399,55.7 -17.049,55.25 L-16.799,55.1 C-16.449,54.65 -16.449,54.25 -16.799,53.85 L-16.799,53.6 -16.849,53.35 -17.049,53.15 C-17.299,53.05 -17.399,52.95 -17.449,52.8 L-17.249,52.25 C-16.799,51.45 -16.449,50.6 -16.199,49.75 L-16.049,48.95 -16.049,48.85 -15.949,48.2 -15.849,47.55 -12.099,48.1 C-9.899,48.35 -7.899,48.95 -6.099,50 L-4.249,51.5 C-4.599,54.05 -5.249,56.5 -6.199,58.9 L-6.199,58.85 C-7.299,61.5 -8.249,64.15 -8.999,66.75 L-8.999,66.8 -10.199,70.05 -10.249,70.3 -10.149,70.55 C-9.899,70.85 -9.649,71 -9.399,71 -9.149,71.05 -8.899,70.95 -8.649,70.6 -7.099,68.65 -5.949,66.45 -5.199,64 L-4.249,60.65 C-3.099,60.8 -1.849,60.4 -0.499,59.4 2.001,57.5 4.551,56.75 7.201,57.1 L7.151,58.5z"/>
                <path id="path769" fill="#FFE600" fill-opacity="1" d="M7.151,58.5 L7.201,57.1 C4.551,56.75 2.001,57.5 -0.499,59.4 -1.849,60.4 -3.099,60.8 -4.249,60.65 L-5.199,64 C-5.949,66.45 -7.099,68.65 -8.649,70.6 -8.899,70.95 -9.149,71.05 -9.399,71 -9.649,71 -9.899,70.85 -10.149,70.55 L-10.249,70.3 -10.199,70.05 -8.999,66.8 -8.999,66.75 C-8.249,64.15 -7.299,61.5 -6.199,58.85 L-6.199,58.9 C-5.249,56.5 -4.599,54.05 -4.249,51.5 L-6.099,50 C-7.899,48.95 -9.899,48.35 -12.099,48.1 L-15.849,47.55 -15.949,48.2 -16.049,48.85 -16.049,48.95 -16.199,49.75 C-16.449,50.6 -16.799,51.45 -17.249,52.25 L-17.449,52.8 C-17.399,52.95 -17.299,53.05 -17.049,53.15 L-16.849,53.35 -16.799,53.6 -16.799,53.85 C-16.449,54.25 -16.449,54.65 -16.799,55.1 L-17.049,55.25 C-18.399,55.7 -19.549,55.2 -20.399,53.65 L-21.849,50.9 -28.549,53.45 -29.299,53.7 -27.349,55.95 C-24.699,58.7 -22.099,61.55 -19.649,64.55 -19.199,65.1 -19.149,65.65 -19.499,66.25 L-19.699,66.45 -19.949,66.5 -20.249,66.4 C-23.049,64.35 -25.849,61.65 -28.599,58.3 L-31.099,55.2 -31.149,55.15 C-32.599,53.35 -33.599,51.45 -34.249,49.4 -35.899,51.2 -37.849,52.85 -40.149,54.35 -41.699,55.3 -42.799,56.55 -43.499,58.1 L-36.849,59.95 C-32.899,61.2 -29.149,62.8 -25.599,64.7 L-25.599,64.75 -25.099,65.3 C-24.999,65.55 -25.049,65.8 -25.299,66.1 L-25.499,66.25 -25.749,66.25 C-28.299,65.85 -30.849,65 -33.499,63.7 -37.199,61.9 -40.949,60.8 -44.799,60.35 L-44.849,60.35 -45.099,60.3 -45.149,60.3 C-46.849,60.15 -48.549,60.1 -50.299,60.2 L-50.549,62.25 -51.049,65.1 -51.349,68.5 -51.349,68.55 -51.299,71.1 -46.699,70.85 -46.649,70.85 -45.349,70.95 C-44.749,71 -44.299,71.25 -43.949,71.8 -43.849,71.9 -43.799,72.05 -43.799,72.25 L-43.899,72.55 -44.199,72.75 C-47.899,73.6 -51.749,74.3 -55.799,74.95 -57.599,75.2 -59.249,75.8 -60.799,76.75 L-60.749,76.75 -61.649,77.35 C-61.549,78.4 -61.549,79.6 -61.599,80.85 -61.649,81.85 -61.499,82.8 -61.199,83.7 -60.349,86.25 -59.649,88.8 -59.099,91.4 L-58.649,93.8 C-56.049,93.25 -53.499,92.15 -51.049,90.45 L-51.099,90.45 -46.249,86.95 -45.949,86.85 -45.349,86.9 -45.249,86.95 C-45.099,87 -44.899,87.1 -44.699,87.25 L-44.499,87.45 -44.449,87.5 C-44.349,87.6 -44.299,87.7 -44.299,87.85 L-44.449,88.2 -46.149,89.85 C-45.849,90.9 -46.549,92.1 -48.249,93.45 -50.549,95.25 -52.799,97.1 -54.999,99 L-57.649,101.65 -52.349,109.4 C-50.149,112.35 -47.549,114.8 -44.499,116.7 L-43.849,117.05 -41.399,114 -38.649,111.25 -38.499,111 -38.299,110.65 -38.299,110.55 -38.249,110.4 -37.799,109.75 C-36.049,106.8 -34.149,103.95 -32.099,101.25 -31.799,100.85 -31.449,100.65 -30.999,100.6 L-30.649,100.7 -30.449,101 C-30.099,102.35 -30.649,103.95 -31.999,105.85 -33.949,108.6 -35.749,111.45 -37.349,114.45 -38.099,115.9 -38.699,117.45 -39.099,119 -33.599,121.75 -27.799,123.8 -21.699,125.05 -20.899,125.2 -20.449,125.1 -20.299,124.75 L-20.499,119.8 -20.649,114.35 C-20.649,113.2 -20.149,112.35 -19.149,111.9 L-18.849,111.85 -18.599,112 -18.449,112.25 C-18.099,113.9 -17.949,115.75 -17.999,117.9 L-17.999,118 -14.999,114.85 -14.949,114.85 -14.449,114.6 -14.199,114.7 -13.999,114.85 C-13.149,116.2 -13.549,117.65 -15.249,119.25 L-15.499,119.45 C-15.249,120.2 -15.149,121.1 -15.199,122.25 -15.299,123.55 -15.249,124.9 -15.099,126.25 -9.749,126.5 -4.649,125.55 0.201,123.45 0.201,121.2 0.101,119 -0.149,116.85 -0.399,114.6 -0.249,112.5 0.201,110.5 L-0.099,110.05 C-0.499,109.45 -0.449,108.9 0.001,108.45 0.051,108.3 0.151,108.25 0.301,108.25 0.451,108.25 0.551,108.3 0.701,108.4 2.251,109.65 3.901,111.25 5.751,113.2 L10.401,118.2 11.201,118.8 17.701,113.15 23.751,107.55 C21.701,105.4 19.451,103.55 17.001,101.95 13.851,99.9 11.551,97.55 10.151,94.9 L10.101,94.6 10.251,94.35 10.501,94.2 10.701,94.15 10.901,94.1 11.101,94.2 C14.551,96.45 17.701,98.95 20.651,101.8 L20.701,101.7 20.751,101.65 21.751,100.05 C22.451,99 22.951,97.95 23.251,96.85 L24.951,88.05 25.151,87.3 17.951,86.65 C13.401,86.15 9.001,85.15 4.751,83.65 4.101,83.4 3.851,83.1 4.051,82.75 4.001,82.5 4.301,82.3 4.951,82.15 L5.201,82.15 C8.451,82.9 11.801,83.55 15.201,84 L20.051,84.5 C20.001,84.1 20.101,83.7 20.301,83.25 21.251,81.15 21.601,78.9 21.401,76.5 21.251,74.65 21.401,72.9 21.851,71.25 15.901,69.9 9.701,69.45 3.251,69.95 2.901,70 2.651,69.95 2.551,69.7 2.401,69.55 2.401,69.35 2.501,69.05 L2.601,68.8 2.851,68.7 7.101,67.9 C6.701,66.85 6.601,65.7 6.851,64.4 7.151,62.4 7.251,60.45 7.151,58.55 L7.151,58.5z M-17.149,73.85 L-17.049,74.25 -17.099,74.5 -17.299,74.7 C-21.199,76.7 -23.649,79.95 -24.599,84.5 L-24.599,84.55 C-25.049,86.3 -25.599,88 -26.299,89.7 -27.549,92.7 -27.899,95.85 -27.349,99.1 -20.899,98.05 -14.499,97.5 -8.149,97.4 -8.149,95.05 -8.349,92.75 -8.699,90.5 L-10.249,80.85 C-10.499,79.1 -10.199,77.65 -9.349,76.55 L-9.149,76.4 -8.949,76.35 -8.349,76.4 -8.249,76.45 -7.649,76.85 -7.549,76.95 -7.349,77.25 -7.299,77.55 C-7.649,83.45 -7.299,89.4 -6.349,95.35 -6.049,97.15 -6.249,98.5 -6.949,99.45 -7.599,100.3 -8.599,100.75 -10.049,100.9 L-10.349,103.35 C-10.699,104.8 -10.849,106.3 -10.749,107.8 L-10.699,108.4 C-7.249,106.45 -3.799,104.25 -0.349,101.9 2.151,100.15 4.051,98.05 5.301,95.6 2.751,93.95 0.851,91.7 -0.349,88.85 L-3.299,81.85 C-3.449,81.45 -3.449,81.15 -3.249,81 -3.149,80.75 -2.899,80.65 -2.499,80.6 L-2.249,80.65 -2.049,80.8 C-0.449,82.85 0.901,85.15 1.951,87.8 2.901,90.35 4.551,92.35 6.901,93.85 L6.851,93.85 7.401,94.25 7.551,94.45 7.551,94.65 C7.301,98.2 5.451,101.1 2.101,103.4 L2.101,103.35 C-2.299,106.4 -6.849,108.95 -11.599,111.05 L-11.649,111.1 -12.499,110.95 -12.649,110.8 -12.749,110.6 C-12.999,108.95 -13.149,107.25 -13.199,105.5 L-13.199,105.45 C-13.249,103.8 -13.149,102.25 -12.849,100.75 L-28.399,101.35 -29.249,101.2 -29.399,101.05 -29.499,100.85 C-30.249,96.7 -29.999,92.7 -28.649,88.85 -27.749,86.15 -26.649,83.55 -25.399,81.1 -26.449,81.75 -27.699,82.25 -29.099,82.7 L-36.699,85.15 -36.649,85.15 C-38.799,85.9 -40.849,86.1 -42.799,85.75 L-43.099,85.6 -43.249,85.3 C-43.399,83.7 -43.299,82.15 -42.999,80.65 L-42.199,76.7 -41.499,72.45 C-41.149,69.6 -40.399,66.85 -39.349,64.3 L-39.349,64.35 C-39.149,63.8 -38.799,63.45 -38.299,63.35 L-38.099,63.35 C-35.249,63.75 -32.449,64.5 -29.699,65.55 -27.049,66.6 -24.249,67.3 -21.399,67.65 -20.699,67.7 -20.349,68.05 -20.299,68.7 L-20.399,69.05 -20.649,69.25 C-23.349,69.95 -26.199,69.7 -29.149,68.5 L-29.099,68.5 -35.799,66 -37.499,65.8 -38.449,69.3 -39.199,73.15 -39.799,76.75 -40.549,81.25 -40.899,83.35 C-38.399,82.9 -35.949,82.15 -33.549,81.1 -31.149,80 -28.699,78.95 -26.249,78 -25.249,77.55 -24.349,77.45 -23.549,77.65 L-21.749,74.75 C-21.149,73.8 -20.299,73.25 -19.249,73.1 L-19.199,73.1 -18.149,73.15 C-17.649,73.2 -17.299,73.45 -17.149,73.85z"/>
                <path id="path770" fill="#000000" fill-opacity="1" d="M-17.149,73.85 C-17.299,73.45 -17.649,73.2 -18.149,73.15 L-19.199,73.1 -19.249,73.1 C-20.299,73.25 -21.149,73.8 -21.749,74.75 L-23.549,77.65 C-24.349,77.45 -25.249,77.55 -26.249,78 -28.699,78.95 -31.149,80 -33.549,81.1 -35.949,82.15 -38.399,82.9 -40.899,83.35 L-40.549,81.25 -39.799,76.75 -39.199,73.15 -38.449,69.3 -37.499,65.8 -35.799,66 -29.099,68.5 -29.149,68.5 C-26.199,69.7 -23.349,69.95 -20.649,69.25 L-20.399,69.05 -20.299,68.7 C-20.349,68.05 -20.699,67.7 -21.399,67.65 -24.249,67.3 -27.049,66.6 -29.699,65.55 -32.449,64.5 -35.249,63.75 -38.099,63.35 L-38.299,63.35 C-38.799,63.45 -39.149,63.8 -39.349,64.35 L-39.349,64.3 C-40.399,66.85 -41.149,69.6 -41.499,72.45 L-42.199,76.7 -42.999,80.65 C-43.299,82.15 -43.399,83.7 -43.249,85.3 L-43.099,85.6 -42.799,85.75 C-40.849,86.1 -38.799,85.9 -36.649,85.15 L-36.699,85.15 -29.099,82.7 C-27.699,82.25 -26.449,81.75 -25.399,81.1 -26.649,83.55 -27.749,86.15 -28.649,88.85 -29.999,92.7 -30.249,96.7 -29.499,100.85 L-29.399,101.05 -29.249,101.2 -28.399,101.35 -12.849,100.75 C-13.149,102.25 -13.249,103.8 -13.199,105.45 L-13.199,105.5 C-13.149,107.25 -12.999,108.95 -12.749,110.6 L-12.649,110.8 -12.499,110.95 -11.649,111.1 -11.599,111.05 C-6.849,108.95 -2.299,106.4 2.101,103.35 L2.101,103.4 C5.451,101.1 7.301,98.2 7.551,94.65 L7.551,94.45 7.401,94.25 6.851,93.85 6.901,93.85 C4.551,92.35 2.901,90.35 1.951,87.8 0.901,85.15 -0.449,82.85 -2.049,80.8 L-2.249,80.65 -2.499,80.6 C-2.899,80.65 -3.149,80.75 -3.249,81 -3.449,81.15 -3.449,81.45 -3.299,81.85 L-0.349,88.85 C0.851,91.7 2.751,93.95 5.301,95.6 4.051,98.05 2.151,100.15 -0.349,101.9 -3.799,104.25 -7.249,106.45 -10.699,108.4 L-10.749,107.8 C-10.849,106.3 -10.699,104.8 -10.349,103.35 L-10.049,100.9 C-8.599,100.75 -7.599,100.3 -6.949,99.45 -6.249,98.5 -6.049,97.15 -6.349,95.35 -7.299,89.4 -7.649,83.45 -7.299,77.55 L-7.349,77.25 -7.549,76.95 -7.649,76.85 -8.249,76.45 -8.349,76.4 -8.949,76.35 -9.149,76.4 -9.349,76.55 C-10.199,77.65 -10.499,79.1 -10.249,80.85 L-8.699,90.5 C-8.349,92.75 -8.149,95.05 -8.149,97.4 -14.499,97.5 -20.899,98.05 -27.349,99.1 -27.899,95.85 -27.549,92.7 -26.299,89.7 -25.599,88 -25.049,86.3 -24.599,84.55 L-24.599,84.5 C-23.649,79.95 -21.199,76.7 -17.299,74.7 L-17.099,74.5 -17.049,74.25 -17.149,73.85z"/>
              </g>
            </g>
          </g>
        </g>
      </g>
    </g>
    <g id="Layer.__203">
      <g id="MovieClip.__2Fsprite.__201545_2" overflow="visible">
        <g id="Layer.__256">
          <g id="Graphic.__2Fshape.__201558_4" overflow="visible">
            <g id="Layer.__257">
              <g id="shape336">
                <path id="path771" fill="#000000" fill-opacity="1" d="M62.85,58.2 L63,54.6 63.15,54.3 63.45,54.05 65.1,53.4 66.7,53.1 66.9,53.15 C68.4,53.65 69.9,54.3 71.4,55.1 L71.35,55.1 C72.9,55.9 74.45,56.65 75.95,57.35 L75.15,54.15 75.15,54.1 C74.85,52.8 74.45,51.55 73.9,50.35 L73.85,50.15 73.9,49.95 74.65,49 C76.8,47.35 79.2,46.2 81.75,45.6 L89.15,44.1 89.4,44.15 89.6,44.3 C90.25,44.95 90.65,46 90.75,47.35 90.85,48.3 91.05,49.2 91.4,50.1 L92.5,47.95 92.7,47.75 93.35,47.45 93.4,47.4 94.25,47.35 94.4,47.4 97.9,48.5 97.9,48.45 C99.85,48.9 101.6,49.55 103.05,50.5 103.9,49 104.5,47.45 104.95,45.8 L105.1,45.55 105.4,45.3 105.55,45.25 105.85,45.15 106,45.1 106.5,45.1 107.05,45.35 107.1,45.4 C108.95,47.7 111.1,49.6 113.65,51.15 116.2,52.7 117.6,54.5 117.85,56.65 L120.9,56.1 121.15,56.15 122.1,56.45 122.05,56.4 122.9,56.65 122.85,56.65 124.1,57.1 124.05,57.1 124.6,57.5 124.65,57.6 125,58.5 125,58.55 C125.1,60.05 125.3,61.5 125.6,62.95 L125.65,62.95 C125.9,64.25 126,65.6 125.95,67.05 125.9,68.05 125.95,69.05 126.2,70.05 L126.25,70.55 C128.7,71 131.05,71.75 133.35,72.8 136,73.95 137.1,75.95 136.65,78.75 L135.15,87.6 C134.65,90.3 133.7,92.35 132.35,93.7 132.3,94.05 132.1,94.2 131.8,94.15 L131.75,94.2 131.6,94.3 131.2,94.4 131.05,94.35 C129.75,94.6 128.45,94.6 127.2,94.35 129.35,96.1 131.15,98.1 132.5,100.35 L132.6,100.6 132.5,100.85 126.15,110.5 C123.3,114.45 119.7,117.25 115.4,119 L115.05,119 114.4,118.35 114.4,118.3 C114.15,117.35 113.75,116.45 113.15,115.65 113.5,116.9 113.7,118.15 113.8,119.45 L113.7,119.8 113.45,120 111.9,120.6 C105.1,123.9 98.05,125.65 90.75,125.85 L90.45,125.75 90.25,125.45 90.1,124.25 C89.95,125.35 89.65,126.4 89.25,127.45 L89.1,127.65 88.8,127.75 C82.25,128.05 75.95,126.85 70,124.15 L69.8,124.05 69.7,123.85 69.65,123.35 69.9,115.85 70.05,112.3 67.05,115.75 C64.9,118 62.55,119.55 60,120.45 L59.7,120.45 C59.65,120.4 59.55,120.35 59.45,120.3 56,116.35 52,112.75 47.55,109.5 46.8,108.95 46.4,108.45 46.25,107.9 46.1,107.25 46.3,106.65 46.8,106.05 L49.85,102.6 C48.45,100.75 47.45,98.55 46.8,96 L45.25,89.2 C45.1,88.45 44.85,87.7 44.6,87.05 L44.55,87.05 C44.2,86.2 44.2,85.35 44.5,84.5 L44.65,84.3 C45.2,83.75 45.85,83.5 46.7,83.55 L49.75,83.6 C49.1,82.25 48.75,80.7 48.8,78.95 48.85,76.3 48.65,73.7 48.1,71.2 47.9,70.15 48.05,69.25 48.5,68.4 L48.7,68.25 49.35,67.95 52.85,66.95 56.8,66.6 60.65,66.75 60.7,66.75 62.7,66.75 62.65,66.6 62.6,66.25 62.7,65.85 62.8,65.7 62.9,65.55 63.05,65.4 C62.8,64.8 62.7,64.15 62.75,63.45 L62.85,58.2z M65.15,57.5 L65.15,57.55 C65.05,59.45 65.15,61.4 65.45,63.4 65.7,64.7 65.6,65.85 65.2,66.9 L69.45,67.7 69.7,67.8 69.8,68.05 C69.9,68.35 69.9,68.55 69.75,68.7 69.65,68.95 69.4,69 69.05,68.95 62.6,68.45 56.4,68.9 50.45,70.25 50.9,71.9 51.05,73.65 50.9,75.5 50.7,77.9 51.05,80.15 52,82.25 52.2,82.7 52.3,83.1 52.25,83.5 L57.1,83 C60.5,82.55 63.85,81.9 67.1,81.15 L67.35,81.15 C68,81.3 68.3,81.5 68.25,81.75 68.45,82.1 68.2,82.4 67.55,82.65 63.3,84.15 58.9,85.15 54.35,85.65 L47.15,86.3 47.35,87.05 49.05,95.85 C49.35,96.95 49.85,98 50.55,99.05 L51.55,100.65 51.6,100.7 51.65,100.8 C54.6,97.95 57.75,95.45 61.2,93.2 L61.4,93.1 61.6,93.15 61.8,93.2 62.05,93.35 62.2,93.6 62.15,93.9 C60.75,96.55 58.45,98.9 55.3,100.95 52.85,102.55 50.6,104.4 48.55,106.55 L54.6,112.15 61.1,117.8 61.9,117.2 66.55,112.2 C68.4,110.25 70.05,108.65 71.6,107.4 71.75,107.3 71.85,107.25 72,107.25 72.15,107.25 72.25,107.3 72.3,107.45 72.75,107.9 72.8,108.45 72.4,109.05 L72.1,109.5 C72.55,111.5 72.7,113.6 72.45,115.85 72.2,118 72.1,120.2 72.1,122.45 76.95,124.55 82.05,125.5 87.4,125.25 87.55,123.9 87.6,122.55 87.5,121.25 87.45,120.1 87.55,119.2 87.8,118.45 L87.55,118.25 C85.85,116.65 85.45,115.2 86.3,113.85 L86.5,113.7 86.75,113.6 87.25,113.85 87.3,113.85 90.3,117 90.3,116.9 C90.25,114.75 90.4,112.9 90.75,111.25 L90.9,111 91.15,110.85 91.45,110.9 C92.45,111.35 92.95,112.2 92.95,113.35 L92.8,118.8 92.6,123.75 C92.75,124.1 93.2,124.2 94,124.05 100.1,122.8 105.9,120.75 111.4,118 111,116.45 110.4,114.9 109.65,113.45 108.05,110.45 106.25,107.6 104.3,104.85 102.95,102.95 102.4,101.35 102.75,100 L102.95,99.7 103.3,99.6 C103.75,99.65 104.1,99.85 104.4,100.25 106.45,102.95 108.35,105.8 110.1,108.75 L110.55,109.4 110.6,109.55 110.6,109.65 110.8,110 110.95,110.25 113.7,113 116.15,116.05 116.8,115.7 C119.85,113.8 122.45,111.35 124.65,108.4 L129.95,100.65 127.3,98 C125.1,96.1 122.85,94.25 120.55,92.45 118.85,91.1 118.15,89.9 118.45,88.85 L116.75,87.2 116.6,86.85 C116.6,86.7 116.65,86.6 116.75,86.5 L116.8,86.45 117,86.25 C117.2,86.1 117.4,86 117.55,85.95 L117.65,85.9 118.25,85.85 118.55,85.95 123.4,89.45 123.35,89.45 C125.8,91.15 128.35,92.25 130.95,92.8 L131.4,90.4 C131.95,87.8 132.65,85.25 133.5,82.7 133.8,81.8 133.95,80.85 133.9,79.85 133.85,78.6 133.85,77.4 133.95,76.35 L133.05,75.75 133.1,75.75 C131.55,74.8 129.9,74.2 128.1,73.95 124.05,73.3 120.2,72.6 116.5,71.75 L116.2,71.55 116.1,71.25 C116.1,71.05 116.15,70.9 116.25,70.8 116.6,70.25 117.05,70 117.65,69.95 L118.95,69.85 119,69.85 123.6,70.1 123.65,67.55 123.65,67.5 123.35,64.1 122.85,61.25 122.6,59.2 C120.85,59.1 119.15,59.15 117.45,59.3 L117.4,59.3 117.15,59.35 117.1,59.35 C113.25,59.8 109.5,60.9 105.8,62.7 103.15,64 100.6,64.85 98.05,65.25 L97.8,65.25 97.6,65.1 C97.35,64.8 97.3,64.55 97.4,64.3 L97.9,63.75 97.9,63.7 C101.45,61.8 105.2,60.2 109.15,58.95 L115.8,57.1 C115.1,55.55 114,54.3 112.45,53.35 110.15,51.85 108.2,50.2 106.55,48.4 105.9,50.45 104.9,52.35 103.45,54.15 L103.4,54.2 100.9,57.3 C98.15,60.65 95.35,63.35 92.55,65.4 L92.25,65.5 92,65.45 91.8,65.25 C91.45,64.65 91.5,64.1 91.95,63.55 94.4,60.55 97,57.7 99.65,54.95 L101.6,52.7 100.85,52.45 94.15,49.9 92.7,52.65 C91.85,54.2 90.7,54.7 89.35,54.25 L89.1,54.1 C88.75,53.65 88.75,53.25 89.1,52.85 L89.1,52.6 89.15,52.35 89.35,52.15 C89.6,52.05 89.7,51.95 89.75,51.8 L89.55,51.25 C89.1,50.45 88.75,49.6 88.5,48.75 L88.35,47.95 88.35,47.85 88.25,47.2 88.15,46.55 84.4,47.1 C82.2,47.35 80.2,47.95 78.4,49 L76.55,50.5 C76.9,53.05 77.55,55.5 78.5,57.9 L78.5,57.85 C79.6,60.5 80.55,63.15 81.3,65.75 L81.3,65.8 82.5,69.05 82.55,69.3 82.45,69.55 C82.2,69.85 81.95,70 81.7,70 81.45,70.05 81.2,69.95 80.95,69.6 79.4,67.65 78.25,65.45 77.5,63 L76.55,59.65 C75.4,59.8 74.15,59.4 72.8,58.4 70.3,56.5 67.75,55.75 65.1,56.1 L65.15,57.5z"/>
                <path id="path772" fill="#FFE600" fill-opacity="1" d="M65.15,57.5 L65.1,56.1 C67.75,55.75 70.3,56.5 72.8,58.4 74.15,59.4 75.4,59.8 76.55,59.65 L77.5,63 C78.25,65.45 79.4,67.65 80.95,69.6 81.2,69.95 81.45,70.05 81.7,70 81.95,70 82.2,69.85 82.45,69.55 L82.55,69.3 82.5,69.05 81.3,65.8 81.3,65.75 C80.55,63.15 79.6,60.5 78.5,57.85 L78.5,57.9 C77.55,55.5 76.9,53.05 76.55,50.5 L78.4,49 C80.2,47.95 82.2,47.35 84.4,47.1 L88.15,46.55 88.25,47.2 88.35,47.85 88.35,47.95 88.5,48.75 C88.75,49.6 89.1,50.45 89.55,51.25 L89.75,51.8 C89.7,51.95 89.6,52.05 89.35,52.15 L89.15,52.35 89.1,52.6 89.1,52.85 C88.75,53.25 88.75,53.65 89.1,54.1 L89.35,54.25 C90.7,54.7 91.85,54.2 92.7,52.65 L94.15,49.9 100.85,52.45 101.6,52.7 99.65,54.95 C97,57.7 94.4,60.55 91.95,63.55 91.5,64.1 91.45,64.65 91.8,65.25 L92,65.45 92.25,65.5 92.55,65.4 C95.35,63.35 98.15,60.65 100.9,57.3 L103.4,54.2 103.45,54.15 C104.9,52.35 105.9,50.45 106.55,48.4 108.2,50.2 110.15,51.85 112.45,53.35 114,54.3 115.1,55.55 115.8,57.1 L109.15,58.95 C105.2,60.2 101.45,61.8 97.9,63.7 L97.9,63.75 97.4,64.3 C97.3,64.55 97.35,64.8 97.6,65.1 L97.8,65.25 98.05,65.25 C100.6,64.85 103.15,64 105.8,62.7 109.5,60.9 113.25,59.8 117.1,59.35 L117.15,59.35 117.4,59.3 117.45,59.3 C119.15,59.15 120.85,59.1 122.6,59.2 L122.85,61.25 123.35,64.1 123.65,67.5 123.65,67.55 123.6,70.1 119,69.85 118.95,69.85 117.65,69.95 C117.05,70 116.6,70.25 116.25,70.8 116.15,70.9 116.1,71.05 116.1,71.25 L116.2,71.55 116.5,71.75 C120.2,72.6 124.05,73.3 128.1,73.95 129.9,74.2 131.55,74.8 133.1,75.75 L133.05,75.75 133.95,76.35 C133.85,77.4 133.85,78.6 133.9,79.85 133.95,80.85 133.8,81.8 133.5,82.7 132.65,85.25 131.95,87.8 131.4,90.4 L130.95,92.8 C128.35,92.25 125.8,91.15 123.35,89.45 L123.4,89.45 118.55,85.95 118.25,85.85 117.65,85.9 117.55,85.95 C117.4,86 117.2,86.1 117,86.25 L116.8,86.45 116.75,86.5 C116.65,86.6 116.6,86.7 116.6,86.85 L116.75,87.2 118.45,88.85 C118.15,89.9 118.85,91.1 120.55,92.45 122.85,94.25 125.1,96.1 127.3,98 L129.95,100.65 124.65,108.4 C122.45,111.35 119.85,113.8 116.8,115.7 L116.15,116.05 113.7,113 110.95,110.25 110.8,110 110.6,109.65 110.6,109.55 110.55,109.4 110.1,108.75 C108.35,105.8 106.45,102.95 104.4,100.25 104.1,99.85 103.75,99.65 103.3,99.6 L102.95,99.7 102.75,100 C102.4,101.35 102.95,102.95 104.3,104.85 106.25,107.6 108.05,110.45 109.65,113.45 110.4,114.9 111,116.45 111.4,118 105.9,120.75 100.1,122.8 94,124.05 93.2,124.2 92.75,124.1 92.6,123.75 L92.8,118.8 92.95,113.35 C92.95,112.2 92.45,111.35 91.45,110.9 L91.15,110.85 90.9,111 90.75,111.25 C90.4,112.9 90.25,114.75 90.3,116.9 L90.3,117 87.3,113.85 87.25,113.85 86.75,113.6 86.5,113.7 86.3,113.85 C85.45,115.2 85.85,116.65 87.55,118.25 L87.8,118.45 C87.55,119.2 87.45,120.1 87.5,121.25 87.6,122.55 87.55,123.9 87.4,125.25 82.05,125.5 76.95,124.55 72.1,122.45 72.1,120.2 72.2,118 72.45,115.85 72.7,113.6 72.55,111.5 72.1,109.5 L72.4,109.05 C72.8,108.45 72.75,107.9 72.3,107.45 72.25,107.3 72.15,107.25 72,107.25 71.85,107.25 71.75,107.3 71.6,107.4 70.05,108.65 68.4,110.25 66.55,112.2 L61.9,117.2 61.1,117.8 54.6,112.15 48.55,106.55 C50.6,104.4 52.85,102.55 55.3,100.95 58.45,98.9 60.75,96.55 62.15,93.9 L62.2,93.6 62.05,93.35 61.8,93.2 61.6,93.15 61.4,93.1 61.2,93.2 C57.75,95.45 54.6,97.95 51.65,100.8 L51.6,100.7 51.55,100.65 50.55,99.05 C49.85,98 49.35,96.95 49.05,95.85 L47.35,87.05 47.15,86.3 54.35,85.65 C58.9,85.15 63.3,84.15 67.55,82.65 68.2,82.4 68.45,82.1 68.25,81.75 68.3,81.5 68,81.3 67.35,81.15 L67.1,81.15 C63.85,81.9 60.5,82.55 57.1,83 L52.25,83.5 C52.3,83.1 52.2,82.7 52,82.25 51.05,80.15 50.7,77.9 50.9,75.5 51.05,73.65 50.9,71.9 50.45,70.25 56.4,68.9 62.6,68.45 69.05,68.95 69.4,69 69.65,68.95 69.75,68.7 69.9,68.55 69.9,68.35 69.8,68.05 L69.7,67.8 69.45,67.7 65.2,66.9 C65.6,65.85 65.7,64.7 65.45,63.4 65.15,61.4 65.05,59.45 65.15,57.55 L65.15,57.5z M89.45,72.85 L89.35,73.25 89.4,73.5 89.6,73.7 C93.5,75.7 95.95,78.95 96.9,83.5 L96.9,83.55 C97.35,85.3 97.9,87 98.6,88.7 99.85,91.7 100.2,94.85 99.65,98.1 93.2,97.05 86.8,96.5 80.45,96.4 80.45,94.05 80.65,91.75 81,89.5 L82.55,79.85 C82.8,78.1 82.5,76.65 81.65,75.55 L81.45,75.4 81.25,75.35 80.65,75.4 80.55,75.45 79.95,75.85 79.85,75.95 79.65,76.25 79.6,76.55 C79.95,82.45 79.6,88.4 78.65,94.35 78.35,96.15 78.55,97.5 79.25,98.45 79.9,99.3 80.9,99.75 82.35,99.9 L82.65,102.35 C83,103.8 83.15,105.3 83.05,106.8 L83,107.4 C79.55,105.45 76.1,103.25 72.65,100.9 70.15,99.15 68.25,97.05 67,94.6 69.55,92.95 71.45,90.7 72.65,87.85 L75.6,80.85 C75.75,80.45 75.75,80.15 75.55,80 75.45,79.75 75.2,79.65 74.8,79.6 L74.55,79.65 74.35,79.8 C72.75,81.85 71.4,84.15 70.35,86.8 69.4,89.35 67.75,91.35 65.4,92.85 L65.45,92.85 64.9,93.25 64.75,93.45 64.75,93.65 C65,97.2 66.85,100.1 70.2,102.4 L70.2,102.35 C74.6,105.4 79.15,107.95 83.9,110.05 L83.95,110.1 84.8,109.95 84.95,109.8 85.05,109.6 C85.3,107.95 85.45,106.25 85.5,104.5 L85.5,104.45 C85.55,102.8 85.45,101.25 85.15,99.75 L100.7,100.35 101.55,100.2 101.7,100.05 101.8,99.85 C102.55,95.7 102.3,91.7 100.95,87.85 100.05,85.15 98.95,82.55 97.7,80.1 98.75,80.75 100,81.25 101.4,81.7 L109,84.15 108.95,84.15 C111.1,84.9 113.15,85.1 115.1,84.75 L115.4,84.6 115.55,84.3 C115.7,82.7 115.6,81.15 115.3,79.65 L114.5,75.7 113.8,71.45 C113.45,68.6 112.7,65.85 111.65,63.3 L111.65,63.35 C111.45,62.8 111.1,62.45 110.6,62.35 L110.4,62.35 C107.55,62.75 104.75,63.5 102,64.55 99.35,65.6 96.55,66.3 93.7,66.65 93,66.7 92.65,67.05 92.6,67.7 L92.7,68.05 92.95,68.25 C95.65,68.95 98.5,68.7 101.45,67.5 L101.4,67.5 108.1,65 109.8,64.8 110.75,68.3 111.5,72.15 112.1,75.75 112.85,80.25 113.2,82.35 C110.7,81.9 108.25,81.15 105.85,80.1 103.45,79 101,77.95 98.55,77 97.55,76.55 96.65,76.45 95.85,76.65 L94.05,73.75 C93.45,72.8 92.6,72.25 91.55,72.1 L91.5,72.1 90.45,72.15 C89.95,72.2 89.6,72.45 89.45,72.85z"/>
                <path id="path773" fill="#000000" fill-opacity="1" d="M89.45,72.85 C89.6,72.45 89.95,72.2 90.45,72.15 L91.5,72.1 91.55,72.1 C92.6,72.25 93.45,72.8 94.05,73.75 L95.85,76.65 C96.65,76.45 97.55,76.55 98.55,77 101,77.95 103.45,79 105.85,80.1 108.25,81.15 110.7,81.9 113.2,82.35 L112.85,80.25 112.1,75.75 111.5,72.15 110.75,68.3 109.8,64.8 108.1,65 101.4,67.5 101.45,67.5 C98.5,68.7 95.65,68.95 92.95,68.25 L92.7,68.05 92.6,67.7 C92.65,67.05 93,66.7 93.7,66.65 96.55,66.3 99.35,65.6 102,64.55 104.75,63.5 107.55,62.75 110.4,62.35 L110.6,62.35 C111.1,62.45 111.45,62.8 111.65,63.35 L111.65,63.3 C112.7,65.85 113.45,68.6 113.8,71.45 L114.5,75.7 115.3,79.65 C115.6,81.15 115.7,82.7 115.55,84.3 L115.4,84.6 115.1,84.75 C113.15,85.1 111.1,84.9 108.95,84.15 L109,84.15 101.4,81.7 C100,81.25 98.75,80.75 97.7,80.1 98.95,82.55 100.05,85.15 100.95,87.85 102.3,91.7 102.55,95.7 101.8,99.85 L101.7,100.05 101.55,100.2 100.7,100.35 85.15,99.75 C85.45,101.25 85.55,102.8 85.5,104.45 L85.5,104.5 C85.45,106.25 85.3,107.95 85.05,109.6 L84.95,109.8 84.8,109.95 83.95,110.1 83.9,110.05 C79.15,107.95 74.6,105.4 70.2,102.35 L70.2,102.4 C66.85,100.1 65,97.2 64.75,93.65 L64.75,93.45 64.9,93.25 65.45,92.85 65.4,92.85 C67.75,91.35 69.4,89.35 70.35,86.8 71.4,84.15 72.75,81.85 74.35,79.8 L74.55,79.65 74.8,79.6 C75.2,79.65 75.45,79.75 75.55,80 75.75,80.15 75.75,80.45 75.6,80.85 L72.65,87.85 C71.45,90.7 69.55,92.95 67,94.6 68.25,97.05 70.15,99.15 72.65,100.9 76.1,103.25 79.55,105.45 83,107.4 L83.05,106.8 C83.15,105.3 83,103.8 82.65,102.35 L82.35,99.9 C80.9,99.75 79.9,99.3 79.25,98.45 78.55,97.5 78.35,96.15 78.65,94.35 79.6,88.4 79.95,82.45 79.6,76.55 L79.65,76.25 79.85,75.95 79.95,75.85 80.55,75.45 80.65,75.4 81.25,75.35 81.45,75.4 81.65,75.55 C82.5,76.65 82.8,78.1 82.55,79.85 L81,89.5 C80.65,91.75 80.45,94.05 80.45,96.4 86.8,96.5 93.2,97.05 99.65,98.1 100.2,94.85 99.85,91.7 98.6,88.7 97.9,87 97.35,85.3 96.9,83.55 L96.9,83.5 C95.95,78.95 93.5,75.7 89.6,73.7 L89.4,73.5 89.35,73.25 89.45,72.85z"/>
              </g>
            </g>
          </g>
        </g>
      </g>
    </g>
  </g>
</svg>