<?xml version="1.0" encoding="utf-8"?>
<!-- Generator: flash2svg, http://dissentgraphics.com/tools/flash2svg -->
<svg xmlns:xlink="http://www.w3.org/1999/xlink" id="sprite.__201571.__20(Items).__2F142" image-rendering="optimizeSpeed" baseProfile="basic" version="1.1" style="background-color:#ffffff" x="0px" y="0px" width="550px" height="400px" viewBox="0 0 550 400" enable-background="new 0 0 550 400" xmlns="http://www.w3.org/2000/svg">
  <defs transform="matrix(1 0 0 1 0 0) ">
    <linearGradient gradientUnits="userSpaceOnUse" color-interpolation="sRGB" x1="127.645" y1="68.642" x2="148.976" y2="42.245" id="linearGradient23">
      <stop stop-color="#F7DD00" stop-opacity="1" offset="0"/>
      <stop stop-color="#D5D5D5" stop-opacity="1" offset="1"/>
    </linearGradient>
    <linearGradient gradientUnits="userSpaceOnUse" color-interpolation="sRGB" x1="127.645" y1="68.642" x2="148.976" y2="42.245" id="linearGradient24">
      <stop stop-color="#F7DD00" stop-opacity="1" offset="0"/>
      <stop stop-color="#D5D5D5" stop-opacity="1" offset="1"/>
    </linearGradient>
  </defs>
  <g id="sprite.__201571.__20(Items).__2F142">
    <g id="Layer.__204">
      <g id="MovieClip.__2Fsprite.__201548_1" overflow="visible">
        <g id="Layer.__268">
          <g id="Graphic.__2Fshape.__201560_4" overflow="visible">
            <g id="Layer.__269">
              <g id="shape347">
                <path id="path942" fill="none" stroke="#000000" stroke-opacity="1" stroke-width="2.545" stroke-linecap="round" stroke-linejoin="round" d="M200.862,-86.22 Q186.562,-62.922 169.496,-37.551 C158.11,-20.626 135.74,8.204 102.366,49.032 L107.942,53.538 107.276,54.363 109.585,56.23 106.919,59.529 97.915,51.435 95.755,54.108 90.796,60.245 85.57,66.712 82.983,69.913 76.717,77.667 75.525,77.522 73.038,76.821 C70.856,75.876 69.619,74.167 69.293,71.668 L75.186,64.376 75.292,64.244 79.985,58.436 85.798,51.243 90.491,45.436 80.687,38.331 83.353,35.032 85.663,36.898 86.33,36.073 92.5,41.06 C99.65,32.819 106.52,24.79 113.025,17.011 133.505,-7.456 150.641,-29.607 164.526,-49.422 186.398,-80.673 202.722,-108.771 213.498,-133.716 213.733,-130.362 213.73,-126.983 213.482,-123.638 212.591,-110.995 208.363,-98.54 200.862,-86.22z"/>
                <path id="path943" fill="url(#linearGradient23)" fill-opacity="1" d="M169.496,-37.551 Q186.562,-62.922 200.862,-86.22 C208.363,-98.54 212.591,-110.995 213.482,-123.638 202.748,-100.568 187.549,-74.943 167.826,-46.755 153.941,-26.941 136.804,-4.79 116.324,19.677 109.819,27.456 102.949,35.486 95.8,43.726 L102.366,49.032 C135.74,8.204 158.11,-20.626 169.496,-37.551z"/>
                <path id="path944" fill="none" stroke="#000000" stroke-opacity="1" stroke-width="2.545" stroke-linecap="round" stroke-linejoin="round" d="M95.8,43.726 L102.366,49.032 C135.74,8.204 158.11,-20.626 169.496,-37.551 Q186.562,-62.922 200.862,-86.22 C208.363,-98.54 212.591,-110.995 213.482,-123.638"/>
                <path id="path945" fill="none" stroke="#000000" stroke-opacity="1" stroke-width="0.848" stroke-linecap="round" stroke-linejoin="round" d="M213.482,-123.638 C202.748,-100.568 187.549,-74.943 167.826,-46.755 153.941,-26.941 136.804,-4.79 116.324,19.677 109.819,27.456 102.949,35.486 95.8,43.726"/>
                <path id="path946" fill="url(#linearGradient24)" fill-opacity="1" d="M213.482,-123.638 C213.73,-126.983 213.733,-130.362 213.498,-133.716 202.722,-108.771 186.398,-80.673 164.526,-49.422 150.641,-29.607 133.505,-7.456 113.025,17.011 L116.324,19.677 C136.804,-4.79 153.941,-26.941 167.826,-46.755 187.549,-74.943 202.748,-100.568 213.482,-123.638z"/>
                <path id="path947" fill="none" stroke="#000000" stroke-opacity="1" stroke-width="2.545" stroke-linecap="round" stroke-linejoin="round" d="M213.482,-123.638 C213.73,-126.983 213.733,-130.362 213.498,-133.716 202.722,-108.771 186.398,-80.673 164.526,-49.422 150.641,-29.607 133.505,-7.456 113.025,17.011"/>
                <path id="path948" fill="none" stroke="#000000" stroke-opacity="1" stroke-width="0.848" stroke-linecap="round" stroke-linejoin="round" d="M113.025,17.011 L116.324,19.677 C136.804,-4.79 153.941,-26.941 167.826,-46.755 187.549,-74.943 202.748,-100.568 213.482,-123.638"/>
                <path id="path949" fill="#626262" fill-opacity="1" d="M113.025,17.011 C106.52,24.79 99.65,32.819 92.5,41.06 L95.8,43.726 C102.949,35.486 109.819,27.456 116.324,19.677 L113.025,17.011z"/>
                <path id="path950" fill="none" stroke="#000000" stroke-opacity="1" stroke-width="2.545" stroke-linecap="round" stroke-linejoin="round" d="M113.025,17.011 C106.52,24.79 99.65,32.819 92.5,41.06 L95.8,43.726"/>
                <path id="path951" fill="none" stroke="#000000" stroke-opacity="1" stroke-width="0.848" stroke-linecap="round" stroke-linejoin="round" d="M95.8,43.726 C102.949,35.486 109.819,27.456 116.324,19.677 L113.025,17.011"/>
                <path id="path952" fill="#F7DD00" fill-opacity="1" d="M92.5,41.06 L86.33,36.073 85.663,36.898 83.353,35.032 80.687,38.331 90.491,45.436 97.915,51.435 106.919,59.529 109.585,56.23 107.276,54.363 107.942,53.538 102.366,49.032 95.8,43.726 92.5,41.06z M75.278,64.396 L75.186,64.376 75.292,64.244 75.278,64.396z M75.278,64.396 L75.186,64.376 69.293,71.668 C69.619,74.167 70.856,75.876 73.038,76.821 L75.525,77.522 76.717,77.667 82.983,69.913 C78.054,69.803 75.506,67.962 75.278,64.396z M74.778,74.464 L73.548,73.961 73.449,73.881 C73.047,73.502 72.824,73.103 72.767,72.566 72.71,72.029 72.865,71.5 73.238,71.038 73.611,70.576 74.096,70.313 74.633,70.256 75.17,70.199 75.7,70.354 76.162,70.728 76.623,71.101 76.886,71.586 76.943,72.123 77,72.66 76.845,73.189 76.505,73.678 76.099,74.113 75.614,74.376 75.077,74.433 L74.778,74.464z"/>
                <path id="path953" fill="none" stroke="#000000" stroke-opacity="1" stroke-width="2.545" stroke-linecap="round" stroke-linejoin="round" d="M92.5,41.06 L86.33,36.073 85.663,36.898 83.353,35.032 80.687,38.331 90.491,45.436 97.915,51.435 106.919,59.529 109.585,56.23 107.276,54.363 107.942,53.538 102.366,49.032 95.8,43.726 92.5,41.06z"/>
                <path id="path954" fill="none" stroke="#000000" stroke-opacity="1" stroke-width="2.545" stroke-linecap="round" stroke-linejoin="round" d="M75.278,64.396 L75.292,64.244 75.186,64.376 75.278,64.396z"/>
                <path id="path955" fill="#D20202" fill-opacity="1" d="M75.292,64.244 L75.278,64.396 85.57,66.712 90.796,60.245 79.985,58.436 75.292,64.244z"/>
                <path id="path956" fill="none" stroke="#000000" stroke-opacity="1" stroke-width="2.545" stroke-linecap="round" stroke-linejoin="round" d="M75.292,64.244 L75.278,64.396 85.57,66.712 90.796,60.245 79.985,58.436 75.292,64.244z"/>
                <path id="path957" fill="none" stroke="#000000" stroke-opacity="1" stroke-width="2.545" stroke-linecap="round" stroke-linejoin="round" d="M75.278,64.396 L75.186,64.376 69.293,71.668 C69.619,74.167 70.856,75.876 73.038,76.821 L75.525,77.522 76.717,77.667 82.983,69.913 C78.054,69.803 75.506,67.962 75.278,64.396z"/>
                <path id="path958" fill="none" stroke="#000000" stroke-opacity="1" stroke-width="1.697" stroke-linecap="round" stroke-linejoin="round" d="M74.778,74.464 L75.077,74.433 C75.614,74.376 76.099,74.113 76.505,73.678 76.845,73.189 77,72.66 76.943,72.123 76.886,71.586 76.623,71.101 76.162,70.728 75.7,70.354 75.17,70.199 74.633,70.256 74.096,70.313 73.611,70.576 73.238,71.038 72.865,71.5 72.71,72.029 72.767,72.566 72.824,73.103 73.047,73.502 73.449,73.881 L73.548,73.961 74.778,74.464z"/>
                <path id="path959" fill="#D20202" fill-opacity="1" d="M85.798,51.243 L79.985,58.436 90.796,60.245 95.755,54.108 85.798,51.243z"/>
                <path id="path960" fill="none" stroke="#000000" stroke-opacity="1" stroke-width="2.545" stroke-linecap="round" stroke-linejoin="round" d="M85.798,51.243 L79.985,58.436 90.796,60.245 95.755,54.108 85.798,51.243z"/>
                <path id="path961" fill="#D20202" fill-opacity="1" d="M90.491,45.436 L85.798,51.243 95.755,54.108 97.915,51.435 90.491,45.436z M82.983,69.913 L85.57,66.712 75.278,64.396 C75.506,67.962 78.054,69.803 82.983,69.913z"/>
                <path id="path962" fill="none" stroke="#000000" stroke-opacity="1" stroke-width="2.545" stroke-linecap="round" stroke-linejoin="round" d="M90.491,45.436 L85.798,51.243 95.755,54.108 97.915,51.435 90.491,45.436z"/>
                <path id="path963" fill="none" stroke="#000000" stroke-opacity="1" stroke-width="2.545" stroke-linecap="round" stroke-linejoin="round" d="M82.983,69.913 L85.57,66.712 75.278,64.396 C75.506,67.962 78.054,69.803 82.983,69.913z"/>
              </g>
            </g>
            <g id="Layer.__270">
              <g id="shape348">
                <path id="path964" fill="none" stroke="#000000" stroke-opacity="1" stroke-width="1.697" stroke-linecap="round" stroke-linejoin="round" d="M73.399,73.231 C72.997,72.852 72.774,72.453 72.717,71.916 72.66,71.379 72.815,70.85 73.188,70.388 73.561,69.926 74.046,69.663 74.583,69.606 75.12,69.549 75.65,69.704 76.112,70.078 76.573,70.451 76.836,70.936 76.893,71.473 76.95,72.01 76.795,72.539 76.455,73.028 76.049,73.463 75.564,73.726 75.027,73.783 L74.728,73.814 75.475,76.872 C76.323,80.885 76.485,84.397 76.02,87.403 75.508,90.534 74.302,93.106 72.404,95.117 L72.419,88.147 C70.434,90.198 68.579,91.481 66.801,92.062 68.505,89.075 69.917,86.18 70.971,83.323 71.891,80.903 72.572,78.508 72.988,76.171 L73.399,73.231z"/>
                <path id="path965" fill="#D20202" fill-opacity="1" d="M73.498,73.311 L73.399,73.231 72.988,76.171 C72.572,78.508 71.891,80.903 70.971,83.323 69.917,86.18 68.505,89.075 66.801,92.062 68.579,91.481 70.434,90.198 72.419,88.147 L72.404,95.117 C74.302,93.106 75.508,90.534 76.02,87.403 76.485,84.397 76.323,80.885 75.475,76.872 L74.728,73.814 73.498,73.311z"/>
                <path id="path966" fill="none" stroke="#000000" stroke-opacity="1" stroke-width="1.697" stroke-linecap="round" stroke-linejoin="round" d="M73.498,73.311 L73.399,73.231 72.988,76.171 C72.572,78.508 71.891,80.903 70.971,83.323 69.917,86.18 68.505,89.075 66.801,92.062 68.579,91.481 70.434,90.198 72.419,88.147 L72.404,95.117 C74.302,93.106 75.508,90.534 76.02,87.403 76.485,84.397 76.323,80.885 75.475,76.872 L74.728,73.814 73.498,73.311z"/>
                <path id="path967" fill="none" stroke="#000000" stroke-opacity="1" stroke-width="1.697" stroke-linecap="round" stroke-linejoin="round" d="M73.399,73.231 L73.498,73.311 74.728,73.814 75.027,73.783 C75.564,73.726 76.049,73.463 76.455,73.028 76.795,72.539 76.95,72.01 76.893,71.473 76.836,70.936 76.573,70.451 76.112,70.078 75.65,69.704 75.12,69.549 74.583,69.606 74.046,69.663 73.561,69.926 73.188,70.388 72.815,70.85 72.66,71.379 72.717,71.916 72.774,72.453 72.997,72.852 73.399,73.231z"/>
              </g>
            </g>
          </g>
        </g>
      </g>
    </g>
  </g>
</svg>