<?xml version="1.0" encoding="utf-8"?>
<!-- Generator: flash2svg, http://dissentgraphics.com/tools/flash2svg -->
<svg xmlns:xlink="http://www.w3.org/1999/xlink" id="sprite.__201571.__20(Items).__2F29" image-rendering="optimizeSpeed" baseProfile="basic" version="1.1" style="background-color:#ffffff" x="0px" y="0px" width="550px" height="400px" viewBox="0 0 550 400" enable-background="new 0 0 550 400" xmlns="http://www.w3.org/2000/svg">
  <defs>
    <symbol id="Graphic.__2Fshape.__201270" viewBox="66.6 -61.4 136.1 136.4">
      <g id="Layer.__283">
        <g id="shape658" transform="matrix(1 0 0 1 66.6 -61.399)">
          <path id="path598" transform="matrix(1 0 0 1 -66.599 61.35)" fill="#6F5800" fill-opacity="1" d="M171.8,-58.3 Q171.8,-61.4 168.8,-61.4 C167.15,-61.4 159.75,-52.35 146.6,-34.2 130.35,-11.7 120.65,1.35 117.6,5 110.55,13.25 100.45,26.05 87.3,43.3 73.5,61.35 66.6,70.95 66.6,72.2 66.6,73.55 66.65,74.15 66.8,74 L68,74.75 69.6,75 C71.5,75 89.1,52.85 122.4,8.6 143.3,-19.25 157.55,-38.4 165.2,-48.85 166.8,-55.95 168.15,-59.5 169.2,-59.5 170.35,-59.5 170.85,-58.85 170.7,-57.5 L170.6,-56.35 171.8,-58.3z "/>
          <path id="path599" transform="matrix(1 0 0 1 -66.599 61.35)" fill="#000000" fill-opacity="1" d="M170.6,-56.35 L170.7,-57.5 C170.85,-58.85 170.35,-59.5 169.2,-59.5 168.15,-59.5 166.8,-55.95 165.2,-48.85 164.35,-45 163.4,-40.15 162.4,-34.3 160.95,-25.85 159.65,-17.35 158.5,-8.8 158.5,-3.95 159.3,1.8 160.9,8.4 162.5,15 163.3,21.8 163.3,28.85 L163.1,31.35 C160.05,33.35 156.6,36.3 152.65,40.25 147.8,45 143.4,50.05 139.45,55.3 L138,58.55 C137.5,60.8 138.3,62.4 140.45,63.35 147.4,66.4 156.95,64.75 169.05,58.3 173.6,55.85 177.75,53.15 181.5,50.15 183.95,48.2 185.7,46.55 186.8,45.2 L188.2,46.05 C197,43.5 201.8,41.4 202.55,39.65 202.8,39 202.7,38.35 202.25,37.7 L200.45,35.75 C198.7,33.8 198.3,31.7 199.25,29.35 200.6,27.5 201.5,25.9 202.05,24.65 203,22.2 202.3,20.45 199.95,19.4 L195.4,19.7 189.7,19.9 C189.55,19.55 189.65,17.75 189.95,14.4 190.15,12 189.25,10.35 187.3,9.5 185.1,8.55 182.6,9.25 179.85,11.65 177.7,13.45 176.3,15.2 175.55,16.95 L173.2,24.7 C172.85,26.05 172.6,27.3 172.45,28.35 170.6,28 168.35,28.5 165.75,29.85 165.4,22.8 164.75,15.85 163.7,9.1 162.25,-0.4 161.5,-6.4 161.5,-8.9 161.5,-17 163.05,-26.65 166.1,-37.9 168.7,-47.45 170.2,-53.6 170.6,-56.35z M182.8,22.6 C183.05,25.7 184.05,27.65 185.9,28.5 187.3,29.1 188.8,28.8 190.45,27.65 192.55,26.05 193.8,25.2 194.15,25.15 L194.35,25.65 C194.45,26.4 194.15,27.3 193.5,28.25 L191.85,30.5 C190.8,32.4 192.1,34.7 195.7,37.4 L195.2,37.6 189.55,39.75 C188.4,40.15 187.55,40.6 186.95,41.15 185.4,37 182.3,33.55 177.65,30.8 L177.95,30.2 C179.35,24.45 180.3,20.95 180.85,19.7 L182.95,16.95 182.8,22.6zM171.4,35.15 C175.25,37.3 177.8,38.9 179.05,39.9 180.5,41.05 181,42.1 180.65,42.95 180.15,44.05 177.15,46 171.65,48.85 L169.3,46.05 C167.05,43.45 165.9,40.9 165.9,38.35 L165.9,37.8 C168.75,35.8 170.6,35 171.35,35.35 L171.4,35.15zM162.9,40.4 C163.05,41.6 163.5,42.95 164.25,44.5 L160.8,41.6 162.85,40 162.9,40.4zM165.9,51.7 L165.5,51.2 162.6,48 C163.05,48.05 164.3,48.95 166.35,50.65 L167,51.2 166.55,51.4 165.9,51.7zM159.3,47.9 C160.6,50.1 161.75,51.85 162.7,53.15 155.05,56.5 149.3,57.95 145.45,57.5 L145.4,56.6 C147.95,53.05 151.95,49.05 157.3,44.5 L159.3,47.9z"/>
          <path id="path600" transform="matrix(1 0 0 1 -66.599 61.35)" fill="#00BB00" fill-opacity="1" d="M182.8,22.6 L182.95,16.95 180.85,19.7 C180.3,20.95 179.35,24.45 177.95,30.2 L177.65,30.8 C182.3,33.55 185.4,37 186.95,41.15 187.55,40.6 188.4,40.15 189.55,39.75 L195.2,37.6 195.7,37.4 C192.1,34.7 190.8,32.4 191.85,30.5 L193.5,28.25 C194.15,27.3 194.45,26.4 194.35,25.65 L194.15,25.15 C193.8,25.2 192.55,26.05 190.45,27.65 188.8,28.8 187.3,29.1 185.9,28.5 184.05,27.65 183.05,25.7 182.8,22.6z "/>
          <path id="path603" transform="matrix(1 0 0 1 -66.599 61.35)" fill="#FF9F11" fill-opacity="1" d="M171.4,35.15 L171.35,35.35 C170.6,35 168.75,35.8 165.9,37.8 L165.9,38.35 C165.9,40.9 167.05,43.45 169.3,46.05 L171.65,48.85 C177.15,46 180.15,44.05 180.65,42.95 181,42.1 180.5,41.05 179.05,39.9 177.8,38.9 175.25,37.3 171.4,35.15z "/>
          <path id="path606" transform="matrix(1 0 0 1 -66.599 61.35)" fill="#FF9F11" fill-opacity="1" d="M162.9,40.4 L162.85,40 160.8,41.6 164.25,44.5 C163.5,42.95 163.05,41.6 162.9,40.4z "/>
          <path id="path609" transform="matrix(1 0 0 1 -66.599 61.35)" fill="#FF9F11" fill-opacity="1" d="M165.9,51.7 L166.55,51.4 167,51.2 166.35,50.65 C164.3,48.95 163.05,48.05 162.6,48 L165.5,51.2 165.9,51.7z "/>
          <path id="path612" transform="matrix(1 0 0 1 -66.599 61.35)" fill="#FF9F11" fill-opacity="1" d="M159.3,47.9 L157.3,44.5 C151.95,49.05 147.95,53.05 145.4,56.6 L145.45,57.5 C149.3,57.95 155.05,56.5 162.7,53.15 161.75,51.85 160.6,50.1 159.3,47.9z "/>
        </g>
      </g>
    </symbol>
  </defs>
  <g id="sprite.__201571.__20(Items).__2F29">
    <g id="Layer.__230">
      <use xlink:href="#Graphic.__2Fshape.__201270" id="Graphic.__2Fshape.__201271" width="136.1" height="136.4" x="66.6" y="-61.4" transform="matrix(1 0 0 1 0 0)" overflow="visible"/>
    </g>
  </g>
</svg>