<?xml version="1.0" encoding="utf-8"?>
<!-- Generator: flash2svg, http://dissentgraphics.com/tools/flash2svg -->
<svg xmlns:xlink="http://www.w3.org/1999/xlink" id="sprite.__201571.__20(Items).__2F69" image-rendering="optimizeSpeed" baseProfile="basic" version="1.1" style="background-color:#ffffff" x="0px" y="0px" width="550px" height="400px" viewBox="0 0 550 400" enable-background="new 0 0 550 400" xmlns="http://www.w3.org/2000/svg">
  <defs>
    <symbol id="Graphic.__2Fshape.__201336" viewBox="-166.1 -67.85 426.9 155.15">
      <g id="Layer.__275">
        <g id="shape812" transform="matrix(1 0 0 1 -166.099 -67.849)">
          <path id="path751" transform="matrix(1 0 0 1 166.05 67.8)" fill="#000000" fill-opacity="1" d="M195.15,-24.5 L174.55,-11.1 C158.25,-1.55 143.6,7.3 130.6,15.35 109.15,28.65 96.75,37.35 93.45,41.5 91.8,37.2 90.45,35.05 89.5,35.05 88.45,35.05 86.55,35.8 83.8,37.25 80.95,38.75 79.55,39.85 79.55,40.6 79.55,41.4 79.9,41.9 80.65,42.15 L82.75,48.6 C80.45,49.85 75.3,53.3 67.3,59.05 59.8,64.45 55.05,68 53.1,69.65 L52.75,69.55 C51.3,69.55 50.55,70.3 50.55,71.75 L53.05,75.8 C54.8,78.45 55.95,79.8 56.5,79.8 57.05,79.8 57.5,79.6 57.85,79.25 63.95,78.7 73.6,72.15 86.8,59.5 L86.75,58.95 C88.55,62.5 90.2,64.7 91.75,65.5 L92.35,65.7 93,65.8 93.15,65.8 93.25,65.8 C94,65.8 95.15,65.15 96.75,63.8 98.45,62.35 99.3,61.2 99.3,60.25 L96.7,51.2 C98.7,50.45 105.45,45.85 117,37.5 L141.55,22.8 C145.85,20.35 154.45,16.3 167.4,10.55 182.45,3.9 193.25,-1.1 199.8,-4.35 208.65,-8.8 216.7,-13.8 223.9,-19.4 231.1,-24.95 236.05,-30.05 238.8,-34.6 L250.4,-50.05 C257.35,-59.3 260.8,-64.55 260.8,-65.75 260.75,-67.15 260.15,-67.85 259,-67.85 258.85,-67.85 257.7,-66.4 255.65,-63.5 L254.25,-63.85 C233.5,-48.35 221.5,-39.75 218.3,-38.1 211,-34.25 203.3,-29.75 195.15,-24.5z M88.05,39.5 C88.35,39.5 89.7,42.85 92.05,49.5 L95.5,59.55 C95.5,60.1 94.9,60.75 93.7,61.4 L92.05,58.75 C89.7,55.2 88.3,52.95 87.8,52 L86.15,45.15 C85.65,43.3 85.05,41.95 84.4,41.1 L88.05,39.5zM84.75,57.55 C84.45,57.55 79.5,60.6 69.85,66.75 63.65,70.7 59.4,73.55 57.1,75.3 L55.25,72.15 C57.4,70.75 62.45,67.2 70.3,61.55 L83.8,51.7 84.55,54 86.35,58.1 C86,57.75 85.45,57.55 84.75,57.55zM14.2,82.65 C14.9,81.25 13.25,78.45 9.2,74.25 5.15,70 -0.35,65.35 -7.25,60.3 -10.3,58.05 -11.95,56.1 -12.2,54.45 -12.35,53.5 -11.85,52.3 -10.8,50.9 -9.75,49.6 -9.35,48.55 -9.6,47.8 -10.05,46.55 -11.9,45.05 -15.25,43.4 -19,41.5 -22.15,42.4 -24.7,46.05 L-25.65,47.5 C-29,41.85 -50.05,26.55 -88.8,1.55 -103.65,-8 -119.25,-17.8 -135.7,-27.9 L-159.9,-42.4 -163.3,-43.95 -163.45,-44.2 C-164.6,-44.75 -165.4,-44.5 -165.95,-43.35 L-166.05,-43.2 -166.05,-43.05 C-166.65,-40.65 -162.6,-34.55 -153.85,-24.8 -145.65,-15.6 -139.05,-9.1 -134.05,-5.3 -128.8,-0.6 -121.05,5.35 -110.7,12.55 -90.15,26.85 -65.65,41.15 -37.25,55.5 L-31.15,58.55 -37.15,67.9 -38.1,69.7 C-38.05,71.15 -36.45,72.65 -33.3,74.25 -29.35,76.2 -26.35,75.9 -24.3,73.35 -23.65,72.5 -23.05,71.35 -22.55,70 L-21.65,67.55 -18.3,69.25 C-1.85,80.35 7.2,86.3 8.8,87.1 10.45,87.95 12.25,86.45 14.2,82.65zM9.4,82.6 C-1,76.25 -10.45,70.15 -18.95,64.4 L-17.9,62.4 C-17.25,61.85 -16.55,60.8 -15.8,59.3 -9.75,63.25 -4.6,67.2 -0.4,71.15 L10.3,81.4 C10.05,81.6 9.75,82 9.4,82.6zM-158.2,-36.5 C-152.05,-32.3 -142.35,-26.15 -129,-18.1 -100.2,-0.65 -83.95,9.6 -80.25,12.6 L-54.85,30.1 C-52.6,31.55 -47.65,35.25 -40,41.2 -32.95,46.65 -28.95,49.6 -28.05,50.05 L-27.1,50.4 -28.6,54.2 -29.7,56.2 C-33.35,53.25 -43,47.4 -58.65,38.55 L-95.75,17.85 C-105.1,12.25 -111.75,7.9 -115.8,4.8 L-125.9,-3.45 -138.35,-12.9 C-141.05,-15.05 -144.25,-18.2 -147.95,-22.4 -149.5,-24.2 -152.95,-28.9 -158.2,-36.5zM-13.75,49.15 C-17.1,53.9 -22.2,61.45 -29.15,71.9 L-33.8,69.5 -24.9,55.05 C-21.25,48.9 -19.15,45.9 -18.65,46.15 -15.55,47.7 -13.9,48.7 -13.75,49.15z"/>
          <path id="path752" transform="matrix(1 0 0 1 166.05 67.8)" fill="#E6E6E6" fill-opacity="1" d="M221,-22.85 C224.95,-26.2 230.15,-31.15 236.5,-37.6 238.75,-39.85 243.1,-45.7 249.65,-55.05 L249.5,-55.3 C243.75,-50.95 234.4,-44.55 221.35,-36.1 L177.05,-8.25 C173.45,-6 165.8,-1.5 154.05,5.15 143,11.4 135.3,15.9 131.05,18.75 127.1,21.35 119.8,26.6 109.15,34.45 L94.8,45.15 95.35,46.9 C99.85,41.35 115.9,31.75 143.55,18 160.3,9.65 178.3,1.2 197.5,-7.35 205.25,-11.05 213.1,-16.2 221,-22.85z "/>
          <path id="path756" transform="matrix(1 0 0 1 166.05 67.8)" fill="#4D3D00" fill-opacity="1" d="M88.05,39.5 L84.4,41.1 C85.05,41.95 85.65,43.3 86.15,45.15 L87.8,52 C88.3,52.95 89.7,55.2 92.05,58.75 L93.7,61.4 C94.9,60.75 95.5,60.1 95.5,59.55 L92.05,49.5 C89.7,42.85 88.35,39.5 88.05,39.5z "/>
          <path id="path759" transform="matrix(1 0 0 1 166.05 67.8)" fill="#4D3D00" fill-opacity="1" d="M84.75,57.55 C85.45,57.55 86,57.75 86.35,58.1 L84.55,54 83.8,51.7 70.3,61.55 C62.45,67.2 57.4,70.75 55.25,72.15 L57.1,75.3 C59.4,73.55 63.65,70.7 69.85,66.75 79.5,60.6 84.45,57.55 84.75,57.55z "/>
          <path id="path764" transform="matrix(1 0 0 1 166.05 67.8)" fill="#3C2300" fill-opacity="1" d="M9.4,82.6 C9.75,82 10.05,81.6 10.3,81.4 L-0.4,71.15 C-4.6,67.2 -9.75,63.25 -15.8,59.3 -16.55,60.8 -17.25,61.85 -17.9,62.4 L-18.95,64.4 C-10.45,70.15 -1,76.25 9.4,82.6z "/>
          <path id="path767" transform="matrix(1 0 0 1 166.05 67.8)" fill="#E6E6E6" fill-opacity="1" d="M-158.2,-36.5 C-152.95,-28.9 -149.5,-24.2 -147.95,-22.4 -144.25,-18.2 -141.05,-15.05 -138.35,-12.9 L-125.9,-3.45 -115.8,4.8 C-111.75,7.9 -105.1,12.25 -95.75,17.85 L-58.65,38.55 C-43,47.4 -33.35,53.25 -29.7,56.2 L-28.6,54.2 -27.1,50.4 -28.05,50.05 C-28.95,49.6 -32.95,46.65 -40,41.2 -47.65,35.25 -52.6,31.55 -54.85,30.1 L-80.25,12.6 C-83.95,9.6 -100.2,-0.65 -129,-18.1 -142.35,-26.15 -152.05,-32.3 -158.2,-36.5z "/>
          <path id="path770" transform="matrix(1 0 0 1 166.05 67.8)" fill="#3C2300" fill-opacity="1" d="M-13.75,49.15 C-13.9,48.7 -15.55,47.7 -18.65,46.15 -19.15,45.9 -21.25,48.9 -24.9,55.05 L-33.8,69.5 -29.15,71.9 C-22.2,61.45 -17.1,53.9 -13.75,49.15z "/>
        </g>
      </g>
    </symbol>
  </defs>
  <g id="sprite.__201571.__20(Items).__2F69">
    <g id="Layer.__221">
      <use xlink:href="#Graphic.__2Fshape.__201336" id="Graphic.__2Fshape.__201337" width="426.9" height="155.15" x="-166.1" y="-67.85" transform="matrix(1 0 0 1 0 0)" overflow="visible"/>
    </g>
  </g>
</svg>