<?xml version="1.0" encoding="utf-8"?>
<!-- Generator: flash2svg, http://dissentgraphics.com/tools/flash2svg -->
<svg xmlns:xlink="http://www.w3.org/1999/xlink" id="sprite.__201571.__20(Items).__2F75" image-rendering="optimizeSpeed" baseProfile="basic" version="1.1" style="background-color:#ffffff" x="0px" y="0px" width="550px" height="400px" viewBox="0 0 550 400" enable-background="new 0 0 550 400" xmlns="http://www.w3.org/2000/svg">
  <defs>
    <symbol id="Graphic.__2Fshape.__201342" viewBox="58.3 -73.65 176.75 153.9">
      <g id="Layer.__282">
        <g id="shape905" transform="matrix(1 0 0 1 58.3 -73.649)">
          <path id="path836" transform="matrix(1 0 0 1 -58.299 73.6)" fill="#000000" fill-opacity="1" d="M205.65,-66.2 L204,-65.85 C203.35,-65.7 203.15,-65.55 203.4,-65.5 202.35,-64.85 198.05,-61.25 190.55,-54.7 L148.95,-18.4 123.05,4.15 109.65,15.6 97.05,27.45 C97.35,26.65 97.25,25.95 96.7,25.35 L96.85,25.8 C96.6,25.95 96.45,26 96.4,25.9 95.25,26.95 93.5,28.25 91.15,29.9 L96,14.8 95.2,14.25 95,14.1 94.9,14 92.45,16.25 C86.2,21.55 82.55,24.9 81.45,26.35 L76.55,30.65 76.3,31.15 76.3,30.95 C75.65,34 77,37.85 80.3,42.6 L84,47.45 C82.65,48.25 80.4,49.85 77.25,52.25 73,55.5 68.5,59.25 63.8,63.55 60.6,66.5 59.3,67.75 59.9,67.35 L59.75,67.5 C59.8,67.9 59.75,67.8 59.7,67.25 59.05,70.45 58.6,74.8 58.3,80.25 L69.35,79.75 69.8,79.85 70.1,79.7 70.55,79.55 75.6,75.15 85.55,65.8 93.15,58.2 93.65,58.75 C99,64.9 102.9,68.65 105.35,70 106.7,70.8 107.85,70.8 108.8,69.95 L129.3,52.1 C129.5,51.45 129.5,50.85 129.25,50.4 L129.2,50.3 129.2,50.35 129,50.05 C128.2,49.15 124.95,49.7 119.2,51.65 L113.9,53.65 114.3,53.3 C116.95,51.45 118,50.45 117.4,50.3 116.75,50.15 116.25,49.85 115.9,49.5 L218.7,-40 223.35,-43.95 234.9,-73.1 235.05,-73.65 233.1,-73.35 C229.4,-73.1 220.25,-70.7 205.65,-66.2z M212.6,-65.5 C201.2,-56.65 182.55,-40.95 156.7,-18.4 L128.3,6.35 113.75,18.55 C108.3,23.3 104.05,27.75 100.95,32 L98.85,29.45 98.65,29.15 200.7,-60.25 202.5,-61.7 204.3,-63.2 212.6,-65.5zM213.1,-39.05 L165.9,2.35 139.8,25.15 126.5,36.75 C119.55,42.85 115.45,46.75 114.15,48.4 L112.4,46 168.8,-3 C199.85,-29.8 218.2,-46.15 223.8,-52.05 L221.15,-45.75 213.1,-39.05zM88.95,24.6 C87.35,28.95 87,31.6 87.9,32.65 L88.25,32.95 89.15,34.1 97.2,43.5 98.45,45.15 103.6,51.4 109.3,57.85 109.3,58 C109.55,58.2 109.8,58.35 110.05,58.45 L110.15,58.5 C110.5,58.6 110.95,58.45 111.4,58.05 L111.45,57.9 123.75,53.05 116.5,59.45 108.55,67.55 107.45,67.45 106.35,67 C104.8,66.35 101.3,62.85 95.75,56.5 85.8,45.05 80.4,37.85 79.65,34.9 L79.25,33.15 C79.1,32.6 79.2,32.1 79.65,31.65 L81.25,30.25 83.55,28.15 90.25,21.4 88.95,24.6zM93.3,34.15 L92.3,33 94.65,31.25 96.2,29.85 C97.55,32.25 100.45,36 104.9,41.1 L113.3,50.55 109.75,53.9 109.35,54.35 100.45,43.2 95.1,36.35 93.3,34.15zM88.7,59.4 L82.7,51.3 85.15,48.9 92.05,56.95 88.7,59.4zM85.45,62.15 C81,66 77.4,69.35 74.6,72.2 L71.25,67.9 67.5,63.65 80.1,53.4 83.6,58 86.3,61.4 85.45,62.15zM63.55,66.9 L65.65,65.15 C66.2,66.2 67.4,67.7 69.15,69.7 L72.95,73.95 71.05,76.15 C70.45,76.8 69.8,76.75 69.1,76.05 L63.2,69.05 62.7,68.15 C62.65,67.9 62.95,67.45 63.55,66.9zM66,77.05 L61.75,76.95 C61.95,75.3 62,73.75 61.85,72.3 L63.45,74.3 66,77.05z"/>
          <path id="path837" transform="matrix(1 0 0 1 -58.299 73.6)" fill="#6A6A6A" fill-opacity="1" d="M214.75,-66.15 L214.7,-65.3 102.15,32.9 101.9,33.2 111.1,44.4 C112.25,42.65 113.9,40.85 116.05,39 L123.5,32.8 166.95,-5.1 C200.95,-35.1 220.15,-51.4 224.6,-54.05 L225.3,-55.8 C228.05,-62.55 230.1,-67.4 231.45,-70.35 226.45,-69.3 220.9,-67.9 214.75,-66.15z "/>
          <path id="path841" transform="matrix(1 0 0 1 -58.299 73.6)" fill="#484848" fill-opacity="1" d="M212.6,-65.5 L204.3,-63.2 202.5,-61.7 200.7,-60.25 98.65,29.15 98.85,29.45 100.95,32 C104.05,27.75 108.3,23.3 113.75,18.55 L128.3,6.35 156.7,-18.4 C182.55,-40.95 201.2,-56.65 212.6,-65.5z "/>
          <path id="path844" transform="matrix(1 0 0 1 -58.299 73.6)" fill="#484848" fill-opacity="1" d="M213.1,-39.05 L221.15,-45.75 223.8,-52.05 C218.2,-46.15 199.85,-29.8 168.8,-3 L112.4,46 114.15,48.4 C115.45,46.75 119.55,42.85 126.5,36.75 L139.8,25.15 165.9,2.35 213.1,-39.05z "/>
          <path id="path847" transform="matrix(1 0 0 1 -58.299 73.6)" fill="#373737" fill-opacity="1" d="M88.95,24.6 L90.25,21.4 83.55,28.15 81.25,30.25 79.65,31.65 C79.2,32.1 79.1,32.6 79.25,33.15 L79.65,34.9 C80.4,37.85 85.8,45.05 95.75,56.5 101.3,62.85 104.8,66.35 106.35,67 L107.45,67.45 108.55,67.55 116.5,59.45 123.75,53.05 111.45,57.9 111.4,58.05 C110.95,58.45 110.5,58.6 110.15,58.5 L110.05,58.45 C109.8,58.35 109.55,58.2 109.3,58 L109.3,57.85 103.6,51.4 98.45,45.15 97.2,43.5 89.15,34.1 88.25,32.95 87.9,32.65 C87,31.6 87.35,28.95 88.95,24.6z "/>
          <path id="path850" transform="matrix(1 0 0 1 -58.299 73.6)" fill="#5E5E5E" fill-opacity="1" d="M93.3,34.15 L95.1,36.35 100.45,43.2 109.35,54.35 109.75,53.9 113.3,50.55 104.9,41.1 C100.45,36 97.55,32.25 96.2,29.85 L94.65,31.25 92.3,33 93.3,34.15z "/>
          <path id="path853" transform="matrix(1 0 0 1 -58.299 73.6)" fill="#484426" fill-opacity="1" d="M88.7,59.4 L92.05,56.95 85.15,48.9 82.7,51.3 88.7,59.4z "/>
          <path id="path856" transform="matrix(1 0 0 1 -58.299 73.6)" fill="#70693A" fill-opacity="1" d="M85.45,62.15 L86.3,61.4 83.6,58 80.1,53.4 67.5,63.65 71.25,67.9 74.6,72.2 C77.4,69.35 81,66 85.45,62.15z "/>
          <path id="path859" transform="matrix(1 0 0 1 -58.299 73.6)" fill="#484426" fill-opacity="1" d="M63.55,66.9 C62.95,67.45 62.65,67.9 62.7,68.15 L63.2,69.05 69.1,76.05 C69.8,76.75 70.45,76.8 71.05,76.15 L72.95,73.95 69.15,69.7 C67.4,67.7 66.2,66.2 65.65,65.15 L63.55,66.9z "/>
          <path id="path862" transform="matrix(1 0 0 1 -58.299 73.6)" fill="#16140C" fill-opacity="1" d="M66,77.05 L63.45,74.3 61.85,72.3 C62,73.75 61.95,75.3 61.75,76.95 L66,77.05z "/>
        </g>
      </g>
    </symbol>
  </defs>
  <g id="sprite.__201571.__20(Items).__2F75">
    <g id="Layer.__227">
      <use xlink:href="#Graphic.__2Fshape.__201342" id="Graphic.__2Fshape.__201343" width="176.75" height="153.9" x="58.3" y="-73.65" transform="matrix(1 0 0 1 0 0)" overflow="visible"/>
    </g>
  </g>
</svg>