<?xml version="1.0" encoding="utf-8"?>
<!-- Generator: flash2svg, http://dissentgraphics.com/tools/flash2svg -->
<svg xmlns:xlink="http://www.w3.org/1999/xlink" id="sprite.__201571.__20(Items).__2F92" image-rendering="optimizeSpeed" baseProfile="basic" version="1.1" style="background-color:#ffffff" x="0px" y="0px" width="550px" height="400px" viewBox="0 0 550 400" enable-background="new 0 0 550 400" xmlns="http://www.w3.org/2000/svg">
  <defs>
    <symbol id="Graphic.__2Fshape.__201348" viewBox="-115.2 -9.75 277.75 128.9">
      <g id="Layer.__302">
        <g id="shape961" transform="matrix(1 0 0 1 -76.049 -9.749)">
          <path id="path885" transform="matrix(1 0 0 1 76 9.7)" fill="#000000" fill-opacity="1" d="M144.95,15.85 L143.5,16.15 134.9,18.1 122.05,21.1 123.15,26.1 125.25,27 141.55,34.15 138.85,34.8 138.85,34.75 -41.7,76.2 -56.85,9.55 -53.95,2 -46.15,11.6 -42.85,8.5 -56.9,-9.75 -61.75,2.1 -71.25,-6.5 -76.05,16.05 -71.8,17.45 -68.9,5.35 -62.55,11.4 -46.1,82.8 -46.05,82.8 -45.95,83.2 158.1,36.85 157.2,32.9 C152.8,30.95 146.2,28.05 137.45,24.3 L142.85,22.95 162.55,18.45 161.15,12.2 159.2,12.65 152.9,14.05 152.65,14.1 150.7,14.5 150.75,14.55 147.6,15.25 145.65,15.65 145.4,15.75 144.95,15.85z "/>
        </g>
      </g>
      <g id="Layer.__303">
        <g id="shape963" transform="matrix(1 0 0 1 -115.199 17.9)"/>
      </g>
    </symbol>
  </defs>
  <g id="sprite.__201571.__20(Items).__2F92">
    <g id="Layer.__245">
      <use xlink:href="#Graphic.__2Fshape.__201348" id="Graphic.__2Fshape.__201349" width="277.75" height="128.9" x="-115.2" y="-9.75" transform="matrix(1 0 0 1 0 0)" overflow="visible"/>
    </g>
  </g>
</svg>