<?xml version="1.0" encoding="UTF-8" standalone="no"?>
<svg xmlns:xlink="http://www.w3.org/1999/xlink" height="228.25px" width="250.6px" xmlns="http://www.w3.org/2000/svg">
  <g transform="matrix(1, 0, 0, 1, 130.7, 221.95)">
    <use height="144.05" transform="matrix(1.0, 0.0, 0.0, 1.0, -82.6, -137.75)" width="148.7" xlink:href="#shape0"/>
  </g>
  <defs>
    <g id="shape0" transform="matrix(1, 0, 0, 1, 82.6, 137.75)">
      <path d="M16.8 -131.95 L17.75 -130.05 Q20.35 -124.7 24.45 -114.45 34.1 -89.2 37.1 -81.6 38.6 -77.75 53.05 -53.6 L58.15 -44.85 59.9 -41.75 60.55 -40.55 Q65.1 -32.25 65.95 -29.3 L66.0 -29.2 66.0 -29.05 66.05 -28.95 66.05 -28.9 66.05 -28.75 66.1 -28.65 66.1 -28.55 66.1 -28.3 66.1 -28.25 Q66.1 -26.85 64.25 -19.7 L64.05 -19.9 63.2 -20.6 Q61.55 -21.95 59.55 -24.5 62.25 -18.6 62.2 -18.2 62.1 -17.85 62.15 -16.35 L61.0 -16.75 57.4 -19.8 59.85 -14.1 60.0 -13.75 58.3 -11.25 Q55.5 -6.2 52.25 -2.3 50.25 -3.6 48.4 -6.6 50.55 -1.6 50.1 0.5 48.3 3.4 47.5 3.4 L46.1 3.6 Q40.95 1.8 36.0 -7.3 L34.3 -10.6 Q31.85 -15.75 29.45 -22.6 24.7 -36.25 20.1 -60.25 12.55 -99.8 11.8 -123.35 L11.9 -135.2 Q12.6 -135.9 13.8 -135.9 14.7 -135.9 16.8 -131.95 M16.65 -117.95 L15.95 -119.9 16.5 -113.95 16.85 -109.6 16.9 -109.25 Q18.5 -88.8 23.75 -64.55 29.0 -40.15 32.15 -31.3 35.1 -22.8 37.7 -17.9 L37.95 -17.5 38.95 -15.7 40.4 -13.2 41.05 -12.15 42.7 -9.6 43.7 -8.1 Q45.15 -6.0 46.45 -5.6 L47.3 -5.55 47.2 -5.9 45.55 -11.35 Q45.55 -12.6 46.3 -12.6 L49.0 -8.45 Q50.85 -6.4 53.2 -10.4 55.6 -14.4 56.8 -17.0 L54.45 -22.7 Q54.45 -23.95 55.3 -23.9 56.0 -23.9 59.0 -21.9 L58.2 -25.5 Q58.2 -26.3 59.05 -26.3 61.55 -24.9 61.5 -25.1 L61.35 -25.3 Q62.0 -24.75 59.75 -29.4 L56.4 -36.15 55.05 -38.65 53.8 -40.95 52.1 -44.0 50.4 -46.85 50.15 -47.25 49.9 -47.65 49.45 -48.45 Q44.0 -57.3 34.9 -75.05 28.25 -88.0 21.3 -105.75 L16.65 -117.95 M-72.9 -20.25 L-74.05 -18.75 -76.65 -15.45 -76.85 -15.25 Q-79.55 -21.4 -80.5 -24.25 -82.6 -30.55 -82.6 -31.75 L-82.6 -31.9 -82.55 -32.05 -82.55 -32.15 -82.5 -32.25 -82.5 -32.35 -82.45 -32.5 -82.3 -32.9 -82.25 -33.15 -82.15 -33.35 -82.1 -33.55 -82.05 -33.65 -82.0 -33.8 -74.1 -50.95 -73.7 -51.8 -71.8 -55.65 -71.7 -55.85 Q-58.95 -81.9 -57.7 -84.9 -54.75 -91.75 -44.95 -116.5 -36.3 -137.8 -34.9 -137.75 -33.35 -137.8 -32.55 -136.55 -29.5 -134.25 -30.4 -113.25 -30.4 -106.2 -32.15 -87.25 -34.1 -65.65 -36.9 -46.0 L-37.2 -43.9 -37.4 -42.6 -37.45 -42.1 -42.15 -15.45 -42.45 -14.05 -42.75 -12.9 -43.95 -8.0 -44.1 -7.5 Q-47.65 5.3 -51.15 6.3 -55.5 4.35 -61.7 1.9 L-61.6 0.9 -61.55 -0.1 -61.15 -5.4 -61.2 -6.15 -62.35 -2.55 -63.35 -0.2 -64.2 0.9 Q-64.95 0.0 -64.95 -0.8 L-64.9 -1.25 -63.85 -8.4 -63.45 -10.8 -63.55 -11.95 -64.8 -9.35 Q-66.7 -5.25 -67.1 -3.55 L-67.2 -3.0 -67.6 -2.8 -72.5 -9.45 Q-74.15 -11.85 -74.0 -12.4 L-73.35 -14.65 -72.05 -18.7 -70.8 -22.1 -70.8 -22.45 -72.9 -20.25 M-34.7 -122.6 L-34.95 -123.35 Q-35.15 -123.6 -35.35 -123.45 -39.85 -111.15 -46.7 -94.7 L-52.4 -81.35 -55.05 -75.6 -57.05 -71.45 -66.6 -52.25 -68.6 -48.25 -68.8 -47.85 -70.6 -44.15 -71.75 -41.75 -73.2 -38.75 -73.15 -38.7 -74.05 -36.7 -75.65 -33.05 -76.1 -31.75 Q-76.1 -28.15 -74.7 -24.3 L-74.35 -23.4 -68.05 -28.0 Q-66.65 -27.1 -68.1 -21.7 L-69.8 -15.3 -69.05 -14.35 -68.0 -13.0 -67.1 -11.95 Q-59.05 -24.95 -60.2 -19.5 -61.45 -13.9 -61.25 -10.5 -60.7 -12.2 -60.1 -12.6 -58.4 -16.4 -58.35 -4.4 -56.1 -3.15 -53.2 -1.85 L-51.6 -1.15 -51.6 -1.1 -51.6 -1.15 -51.35 -1.95 -49.75 -7.25 -49.4 -8.4 -48.8 -10.45 -48.2 -12.6 -48.0 -13.2 -47.9 -13.5 -47.05 -16.65 -46.8 -17.6 -46.45 -18.75 -45.65 -21.85 -45.45 -22.75 -45.3 -23.35 -44.7 -25.9 -44.65 -26.15 -44.65 -26.25 -42.95 -34.9 Q-40.25 -51.05 -38.55 -63.9 -36.85 -76.85 -35.2 -100.7 L-35.15 -101.65 -34.65 -110.75 -34.55 -112.65 -34.7 -122.45 -34.7 -122.6" fill="#000000" fill-rule="evenodd" stroke="none"/>
      <path d="M16.65 -117.95 Q16.5 -116.2 16.5 -113.95 L15.95 -119.9 16.65 -117.95 M43.7 -26.85 Q37.85 -44.9 32.35 -63.5 23.6 -92.9 21.3 -105.75 28.25 -88.0 34.9 -75.05 44.0 -57.3 49.45 -48.45 L49.9 -47.65 50.15 -47.25 50.4 -46.85 52.1 -44.0 53.8 -40.95 Q50.65 -37.15 43.7 -26.85 M46.45 -5.6 L47.2 -5.9 47.3 -5.55 46.45 -5.6 M-63.85 -8.4 L-64.8 -9.35 -63.55 -11.95 -63.45 -10.8 -63.85 -8.4 M-72.05 -18.7 L-72.9 -20.25 -70.8 -22.45 -70.8 -22.1 -72.05 -18.7 M-52.4 -81.35 L-46.7 -94.7 Q-39.85 -111.15 -35.35 -123.45 -35.15 -123.6 -34.95 -123.35 L-34.7 -122.6 -46.65 -94.6 -52.05 -81.15 -52.4 -81.35 M-34.55 -112.65 L-34.65 -110.75 -35.15 -101.65 -35.2 -100.7 Q-36.85 -76.85 -38.55 -63.9 -40.25 -51.05 -42.95 -34.9 L-44.65 -26.25 -44.65 -26.15 -44.7 -25.9 -45.3 -23.35 -45.45 -22.75 -45.65 -21.85 -46.45 -18.75 -46.8 -17.6 Q-55.45 -25.4 -62.3 -36.5 -60.75 -40.75 -57.5 -51.4 L-49.8 -76.8 -39.85 -100.15 Q-36.55 -107.65 -34.55 -112.65 M-51.35 -1.95 L-51.6 -1.15 -51.6 -1.1 -51.6 -1.15 -51.35 -1.95" fill="#ffffff" fill-rule="evenodd" stroke="none"/>
      <path d="M16.5 -113.95 Q16.5 -116.2 16.65 -117.95 L21.3 -105.75 Q23.6 -92.9 32.35 -63.5 37.85 -44.9 43.7 -26.85 L41.25 -23.2 37.7 -17.9 Q35.1 -22.8 32.15 -31.3 29.0 -40.15 23.75 -64.55 18.5 -88.8 16.9 -109.25 L16.85 -109.6 16.5 -113.95 M-52.4 -81.35 L-52.05 -81.15 -46.65 -94.6 -34.7 -122.6 -34.7 -122.45 -34.55 -112.65 Q-36.55 -107.65 -39.85 -100.15 L-49.8 -76.8 -57.5 -51.4 Q-60.75 -40.75 -62.3 -36.5 L-65.25 -41.6 -67.0 -44.95 -68.6 -48.25 -66.6 -52.25 -57.05 -71.45 -55.05 -75.6 -52.4 -81.35" fill="#d9ddff" fill-rule="evenodd" stroke="none"/>
      <path d="M37.7 -17.9 L41.25 -23.2 43.7 -26.85 Q50.65 -37.15 53.8 -40.95 L55.05 -38.65 56.4 -36.15 49.85 -26.5 40.4 -13.2 38.95 -15.7 37.95 -17.5 37.7 -17.9 M-46.8 -17.6 L-47.05 -16.65 -47.9 -13.5 -48.0 -13.2 -48.2 -12.6 -48.8 -10.45 Q-57.4 -17.25 -66.1 -34.4 -68.45 -39.1 -70.6 -44.15 L-68.8 -47.85 -68.6 -48.25 -67.0 -44.95 -65.25 -41.6 -62.3 -36.5 Q-55.45 -25.4 -46.8 -17.6" fill="#000001" fill-rule="evenodd" stroke="none"/>
      <path d="M40.4 -13.2 L49.85 -26.5 56.4 -36.15 59.75 -29.4 Q62.0 -24.75 61.35 -25.3 L61.5 -25.1 Q61.55 -24.9 59.05 -26.3 58.2 -26.3 58.2 -25.5 L59.0 -21.9 Q56.0 -23.9 55.3 -23.9 54.45 -23.95 54.45 -22.7 L56.8 -17.0 Q55.6 -14.4 53.2 -10.4 50.85 -6.4 49.0 -8.45 L46.3 -12.6 Q45.55 -12.6 45.55 -11.35 L47.2 -5.9 46.45 -5.6 Q45.15 -6.0 43.7 -8.1 L42.7 -9.6 41.05 -12.15 40.4 -13.2 M-48.8 -10.45 L-49.4 -8.4 -49.75 -7.25 -51.35 -1.95 -51.6 -1.15 -53.2 -1.85 Q-56.1 -3.15 -58.35 -4.4 -58.4 -16.4 -60.1 -12.6 -60.7 -12.2 -61.25 -10.5 -61.45 -13.9 -60.2 -19.5 -59.05 -24.95 -67.1 -11.95 L-68.0 -13.0 -69.05 -14.35 -69.8 -15.3 -68.1 -21.7 Q-66.65 -27.1 -68.05 -28.0 L-74.35 -23.4 -74.7 -24.3 Q-76.1 -28.15 -76.1 -31.75 L-75.65 -33.05 -74.05 -36.7 -73.15 -38.7 -73.2 -38.75 -71.75 -41.75 -70.6 -44.15 Q-68.45 -39.1 -66.1 -34.4 -57.4 -17.25 -48.8 -10.45" fill="#eef0ff" fill-rule="evenodd" stroke="none"/>
    </g>
  </defs>
</svg>
