<?xml version="1.0" encoding="UTF-8" standalone="no"?>
<svg xmlns:xlink="http://www.w3.org/1999/xlink" height="228.25px" width="250.6px" xmlns="http://www.w3.org/2000/svg">
  <g transform="matrix(1, 0, 0, 1, 130.7, 221.95)">
    <use height="94.4" transform="matrix(1.0, 0.0, 0.0, 1.0, -63.9, -135.8)" width="112.35" xlink:href="#shape0"/>
    <use height="57.05" transform="matrix(1.0, 0.0, 0.0, 1.0, -71.9, -107.75)" width="127.3" xlink:href="#shape1"/>
  </g>
  <defs>
    <g id="shape0" transform="matrix(1, 0, 0, 1, 63.9, 135.8)">
      <path d="M7.25 -129.85 Q9.7 -135.35 12.15 -129.85 36.55 -86.7 43.3 -70.0 L46.95 -59.75 Q47.9 -56.45 48.25 -54.05 49.35 -46.3 45.0 -44.45 39.6 -42.15 36.35 -44.5 29.85 -49.35 24.7 -59.75 20.45 -68.3 17.15 -80.65 9.8 -108.0 7.0 -127.0 7.0 -129.05 7.3 -129.6 L7.35 -129.6 7.25 -129.85 M25.15 -104.05 L25.0 -104.25 25.1 -104.05 25.15 -104.05 M27.35 -101.25 L27.2 -101.45 27.2 -101.05 27.2 -100.7 27.35 -101.25 M20.65 -105.45 Q16.15 -112.85 12.5 -119.9 14.55 -107.35 17.2 -95.3 19.85 -83.25 25.5 -69.7 27.8 -64.25 30.45 -59.75 34.25 -53.2 38.8 -48.85 41.55 -46.2 44.15 -50.25 45.6 -52.5 42.85 -59.75 41.5 -63.25 39.15 -67.95 31.9 -82.35 28.55 -90.2 25.15 -98.05 20.65 -105.45 M-35.2 -131.25 L-32.0 -135.75 Q-25.7 -137.35 -34.75 -82.05 -36.9 -70.1 -42.35 -50.95 -45.0 -41.8 -51.8 -41.4 -56.05 -41.2 -60.45 -44.0 -65.05 -46.9 -63.55 -58.25 L-58.5 -74.75 -57.35 -78.15 Q-53.8 -88.55 -35.2 -131.25 M-33.6 -122.8 Q-38.2 -114.05 -50.5 -80.95 -62.85 -47.95 -57.7 -47.1 -56.7 -45.75 -52.85 -46.45 -48.6 -47.25 -46.45 -52.25 -44.35 -57.25 -43.05 -63.05 -41.75 -68.9 -37.75 -92.45 -33.75 -116.0 -33.8 -118.35 L-33.8 -121.05 -33.6 -122.8" fill="#000000" fill-rule="evenodd" stroke="none"/>
      <path d="M20.65 -105.45 Q25.15 -98.05 28.55 -90.2 31.9 -82.35 39.15 -67.95 41.5 -63.25 42.85 -59.75 45.6 -52.5 44.15 -50.25 41.55 -46.2 38.8 -48.85 34.25 -53.2 30.45 -59.75 27.8 -64.25 25.5 -69.7 19.85 -83.25 17.2 -95.3 14.55 -107.35 12.5 -119.9 16.15 -112.85 20.65 -105.45 M-33.6 -122.8 L-33.8 -121.05 -33.8 -118.35 Q-33.75 -116.0 -37.75 -92.45 -41.75 -68.9 -43.05 -63.05 -44.35 -57.25 -46.45 -52.25 -48.6 -47.25 -52.85 -46.45 -56.7 -45.75 -57.7 -47.1 -62.85 -47.95 -50.5 -80.95 -38.2 -114.05 -33.6 -122.8" fill="#fff1dd" fill-rule="evenodd" stroke="none"/>
    </g>
    <g id="shape1" transform="matrix(1, 0, 0, 1, 71.9, 107.75)">
      <path d="M13.4 -100.85 Q22.55 -97.45 25.0 -105.0 L52.9 -69.05 Q37.1 -50.35 19.95 -53.8 L13.4 -100.85 M22.85 -58.9 Q24.25 -58.8 27.7 -59.7 24.25 -58.8 22.85 -58.9 M33.2 -61.6 Q35.95 -61.75 38.1 -63.65 35.95 -61.75 33.2 -61.6 M43.05 -66.8 Q45.1 -67.75 46.2 -69.5 45.1 -67.75 43.05 -66.8 M-31.9 -100.85 L-38.45 -53.8 Q-55.6 -50.35 -69.4 -67.3 L-46.45 -105.25 Q-41.05 -97.45 -31.9 -100.85 M-39.6 -59.95 Q-40.75 -58.6 -44.2 -59.5 -40.75 -58.6 -39.6 -59.95 M-50.5 -60.9 Q-53.25 -61.05 -55.4 -62.95 -53.25 -61.05 -50.5 -60.9 M-60.85 -66.35 Q-62.9 -67.3 -64.0 -69.05 -62.9 -67.3 -60.85 -66.35" fill="#ffffff" fill-rule="evenodd" stroke="none"/>
      <path d="M13.4 -100.85 L19.95 -53.8 Q37.1 -50.35 52.9 -69.05 L25.0 -105.0 Q22.55 -97.45 13.4 -100.85 M-31.9 -100.85 L-38.45 -53.8 Q-55.6 -50.35 -69.4 -67.3 L-46.45 -105.25 Q-41.05 -97.45 -31.9 -100.85" fill="none" stroke="#000000" stroke-linecap="round" stroke-linejoin="round" stroke-width="5.0"/>
      <path d="M46.2 -69.5 Q45.1 -67.75 43.05 -66.8 M38.1 -63.65 Q35.95 -61.75 33.2 -61.6 M27.7 -59.7 Q24.25 -58.8 22.85 -58.9 M-64.0 -69.05 Q-62.9 -67.3 -60.85 -66.35 M-55.4 -62.95 Q-53.25 -61.05 -50.5 -60.9 M-44.2 -59.5 Q-40.75 -58.6 -39.6 -59.95" fill="none" stroke="#ff0000" stroke-linecap="round" stroke-linejoin="round" stroke-width="2.0"/>
    </g>
  </defs>
</svg>
