<?xml version="1.0" encoding="UTF-8" standalone="no"?>
<svg xmlns:xlink="http://www.w3.org/1999/xlink" height="228.25px" width="250.6px" xmlns="http://www.w3.org/2000/svg">
  <g transform="matrix(1, 0, 0, 1, 130.7, 221.95)">
    <use height="94.5" transform="matrix(1.0, 0.0, 0.0, 1.0, -66.1, -135.75)" width="115.85" xlink:href="#shape0"/>
  </g>
  <defs>
    <g id="shape0" transform="matrix(1, 0, 0, 1, 66.1, 135.75)">
      <path d="M11.95 -119.9 Q11.1 -122.15 11.1 -122.7 L11.15 -123.25 Q7.1 -129.1 7.1 -130.9 7.1 -134.6 9.3 -135.45 36.85 -88.55 41.65 -76.7 46.1 -65.65 49.6 -54.4 L49.75 -50.9 Q49.7 -49.05 48.85 -48.0 46.65 -45.25 36.35 -45.25 32.1 -45.25 32.1 -48.75 32.1 -51.35 35.75 -52.8 38.1 -53.75 42.1 -54.25 41.0 -59.35 32.35 -76.7 L29.0 -83.3 22.05 -96.7 22.3 -96.9 Q20.0 -100.55 16.8 -108.0 13.25 -116.25 11.95 -119.9 M27.2 -101.45 L27.35 -102.0 27.2 -102.2 27.2 -101.8 27.2 -101.45 M25.1 -104.8 L25.15 -104.8 25.0 -105.0 25.1 -104.8 M-32.45 -121.25 Q-34.3 -114.8 -36.6 -108.4 -39.25 -101.05 -41.2 -97.75 L-41.2 -97.7 -47.3 -80.6 -49.4 -75.15 -49.8 -74.1 Q-57.05 -56.05 -58.25 -49.5 L-58.25 -49.0 -58.2 -49.0 -50.0 -49.75 -49.25 -49.7 Q-46.25 -49.3 -46.25 -45.5 -46.25 -43.15 -47.2 -42.5 -49.0 -41.25 -55.5 -41.25 -63.95 -41.25 -65.7 -45.1 -66.25 -46.35 -66.05 -47.85 L-65.75 -49.25 Q-65.75 -50.2 -63.65 -57.85 -61.2 -66.6 -58.5 -74.75 L-57.35 -78.15 Q-53.8 -88.55 -35.2 -131.25 L-32.0 -135.75 Q-28.25 -135.75 -28.25 -131.5 -28.25 -129.05 -32.3 -122.3 L-32.3 -121.9 -32.45 -121.25" fill="#000000" fill-rule="evenodd" stroke="none"/>
      <path d="M35.75 -52.8 L35.05 -54.15 Q30.4 -63.65 27.6 -71.25 25.65 -76.6 22.15 -88.0 L22.85 -88.25 21.35 -92.05 19.55 -97.35 18.0 -101.2 15.4 -108.4 12.2 -115.5 14.45 -111.25 11.9 -119.3 11.95 -119.9 Q13.25 -116.25 16.8 -108.0 20.0 -100.55 22.3 -96.9 L22.05 -96.7 29.0 -83.3 32.35 -76.7 Q41.0 -59.35 42.1 -54.25 38.1 -53.75 35.75 -52.8 M-32.45 -121.25 L-32.25 -120.6 -32.3 -118.1 Q-32.3 -115.75 -37.8 -98.45 -40.75 -89.2 -42.65 -84.6 L-44.7 -74.1 -45.75 -68.5 -49.25 -49.7 -50.0 -49.75 -58.2 -49.0 -58.25 -49.5 Q-57.05 -56.05 -49.8 -74.1 L-49.4 -75.15 -47.3 -80.6 -41.2 -97.7 -41.2 -97.75 Q-39.25 -101.05 -36.6 -108.4 -34.3 -114.8 -32.45 -121.25" fill="#fff1dd" fill-rule="evenodd" stroke="none"/>
    </g>
  </defs>
</svg>
