<?xml version="1.0" encoding="UTF-8" standalone="no"?>
<svg xmlns:xlink="http://www.w3.org/1999/xlink" height="228.25px" width="250.6px" xmlns="http://www.w3.org/2000/svg">
  <g transform="matrix(1, 0, 0, 1, 130.7, 221.95)">
    <use height="126.25" transform="matrix(1.0, 0.0, 0.0, 1.0, -87.55, -174.8)" width="191.65" xlink:href="#shape0"/>
  </g>
  <defs>
    <g id="shape0" transform="matrix(1, 0, 0, 1, 87.55, 174.8)">
      <path d="M-30.85 -134.65 L-31.15 -134.55 -30.9 -134.75 Q-29.0 -134.7 -29.7 -130.15 -30.1 -132.45 -30.85 -134.65 M-60.6 -59.35 L-62.85 -55.5 Q-67.8 -47.4 -74.5 -48.75 -78.65 -49.65 -82.15 -53.5 -85.85 -57.5 -81.45 -68.05 L-80.15 -70.15 -75.1 -68.3 Q-81.65 -57.1 -78.7 -55.8 -78.05 -54.25 -74.2 -53.9 -69.85 -53.6 -66.5 -57.8 L-63.6 -61.85 -60.6 -59.35" fill="#000000" fill-rule="evenodd" stroke="none"/>
      <path d="M-31.15 -134.55 L-30.85 -134.65 Q-30.1 -132.45 -29.7 -130.15 -26.8 -114.25 -42.95 -93.85 L-44.7 -89.5 -48.1 -81.1 -49.15 -78.55 -53.05 -69.0 -55.5 -62.9 -58.0 -56.95 -60.6 -59.35 -63.6 -61.85 Q-68.75 -65.75 -75.1 -68.3 L-80.15 -70.15 -85.05 -71.45 -81.5 -75.75 -78.1 -79.95 -72.4 -86.75 -70.15 -89.5 -62.85 -98.4 -59.75 -102.15 Q-52.2 -132.35 -31.6 -134.45 L-31.15 -134.55 M-42.95 -93.85 Q-44.25 -96.15 -46.1 -97.8 -48.8 -100.25 -52.4 -101.3 L-58.1 -102.15 -59.75 -102.15 -58.1 -102.15 -52.4 -101.3 Q-48.8 -100.25 -46.1 -97.8 -44.25 -96.15 -42.95 -93.85 M-72.4 -86.75 L-71.2 -84.35 Q-69.75 -81.8 -67.95 -79.55 L-66.95 -78.45 -68.55 -78.55 -74.45 -79.35 -78.1 -79.95 -74.45 -79.35 -68.55 -78.55 -66.95 -78.45 -67.95 -79.55 Q-69.75 -81.8 -71.2 -84.35 L-72.4 -86.75 M-81.5 -75.75 L-77.15 -75.1 Q-74.75 -74.5 -72.05 -73.3 -66.9 -71.1 -60.75 -66.8 L-57.6 -64.5 -55.5 -62.9 -57.6 -64.5 -60.75 -66.8 Q-66.9 -71.1 -72.05 -73.3 -74.75 -74.5 -77.15 -75.1 L-81.5 -75.75 M-70.15 -89.5 L-68.25 -88.65 Q-65.3 -87.55 -62.75 -87.0 L-54.65 -86.55 -52.5 -84.55 -52.3 -84.35 -48.55 -81.4 -48.1 -81.1 -48.55 -81.4 -52.3 -84.35 -52.5 -84.55 -54.65 -86.55 -62.75 -87.0 Q-65.3 -87.55 -68.25 -88.65 L-70.15 -89.5 M-53.05 -69.0 L-54.65 -69.7 Q-56.65 -70.5 -58.3 -71.5 -63.35 -74.4 -66.95 -78.45 -60.6 -78.0 -55.2 -78.15 L-50.0 -78.5 -49.15 -78.55 -50.0 -78.5 -55.2 -78.15 Q-60.6 -78.0 -66.95 -78.45 -63.35 -74.4 -58.3 -71.5 -56.65 -70.5 -54.65 -69.7 L-53.05 -69.0 M-44.7 -89.5 L-44.9 -89.4 Q-47.25 -88.3 -50.9 -87.4 L-54.45 -86.6 -54.65 -86.55 Q-57.4 -89.2 -59.25 -91.85 -61.05 -94.3 -62.15 -96.8 L-62.85 -98.4 -62.15 -96.8 Q-61.05 -94.3 -59.25 -91.85 -57.4 -89.2 -54.65 -86.55 L-54.45 -86.6 -50.9 -87.4 Q-47.25 -88.3 -44.9 -89.4 L-44.7 -89.5" fill="#262626" fill-rule="evenodd" stroke="none"/>
      <path d="M-63.6 -61.85 L-66.5 -57.8 Q-69.85 -53.6 -74.2 -53.9 -78.05 -54.25 -78.7 -55.8 -81.65 -57.1 -75.1 -68.3 -68.75 -65.75 -63.6 -61.85" fill="#fff1dd" fill-rule="evenodd" stroke="none"/>
      <path d="M-30.85 -134.65 Q-30.1 -132.45 -29.7 -130.15 M-31.6 -134.45 Q-52.2 -132.35 -59.75 -102.15 M-42.95 -93.85 Q-26.8 -114.25 -29.7 -130.15 M-42.95 -93.85 L-44.7 -89.5 -48.1 -81.1 -49.15 -78.55 -53.05 -69.0 -55.5 -62.9 -58.0 -56.95 -60.6 -59.35 -63.6 -61.85 Q-68.75 -65.75 -75.1 -68.3 L-80.15 -70.15 -85.05 -71.45 -81.5 -75.75 -78.1 -79.95 -72.4 -86.75 -70.15 -89.5 -62.85 -98.4 -59.75 -102.15" fill="none" stroke="#000000" stroke-linecap="round" stroke-linejoin="round" stroke-width="5.0"/>
      <path d="M-59.75 -102.15 L-58.1 -102.15 -52.4 -101.3 Q-48.8 -100.25 -46.1 -97.8 -44.25 -96.15 -42.95 -93.85 M-62.85 -98.4 L-62.15 -96.8 Q-61.05 -94.3 -59.25 -91.85 -57.4 -89.2 -54.65 -86.55 L-54.45 -86.6 -50.9 -87.4 Q-47.25 -88.3 -44.9 -89.4 L-44.7 -89.5 M-49.15 -78.55 L-50.0 -78.5 -55.2 -78.15 Q-60.6 -78.0 -66.95 -78.45 -63.35 -74.4 -58.3 -71.5 -56.65 -70.5 -54.65 -69.7 L-53.05 -69.0 M-48.1 -81.1 L-48.55 -81.4 -52.3 -84.35 -52.5 -84.55 -54.65 -86.55 -62.75 -87.0 Q-65.3 -87.55 -68.25 -88.65 L-70.15 -89.5 M-55.5 -62.9 L-57.6 -64.5 -60.75 -66.8 Q-66.9 -71.1 -72.05 -73.3 -74.75 -74.5 -77.15 -75.1 L-81.5 -75.75 M-78.1 -79.95 L-74.45 -79.35 -68.55 -78.55 -66.95 -78.45 -67.95 -79.55 Q-69.75 -81.8 -71.2 -84.35 L-72.4 -86.75" fill="none" stroke="#ffffff" stroke-linecap="round" stroke-linejoin="round" stroke-width="2.0"/>
      <path d="M93.8 -147.55 Q95.7 -142.5 98.25 -137.15 90.15 -133.5 81.65 -130.8 L81.5 -130.75 79.65 -133.6 77.15 -137.95 Q74.55 -143.0 72.8 -148.65 L71.6 -152.85 70.85 -156.05 71.6 -152.85 72.8 -148.65 Q74.55 -143.0 77.15 -137.95 L79.65 -133.6 81.5 -130.75 74.9 -128.8 73.9 -130.9 71.65 -135.15 Q69.45 -139.1 67.15 -142.2 L66.75 -142.75 66.5 -139.65 Q66.2 -135.7 65.0 -132.35 63.85 -129.25 61.95 -126.65 L61.6 -125.9 61.95 -126.65 Q63.85 -129.25 65.0 -132.35 66.2 -135.7 66.5 -139.65 L66.75 -142.75 67.15 -142.2 Q69.45 -139.1 71.65 -135.15 L73.9 -130.9 74.9 -128.8 Q68.35 -127.1 61.6 -125.9 L56.9 -125.15 55.75 -129.0 55.25 -130.25 54.3 -132.45 Q54.95 -133.6 56.3 -137.7 56.8 -139.15 56.95 -140.9 57.1 -143.3 56.7 -146.35 L56.4 -148.15 56.7 -146.35 Q57.1 -143.3 56.95 -140.9 56.8 -139.15 56.3 -137.7 54.95 -133.6 54.3 -132.45 L55.25 -130.25 55.75 -129.0 56.9 -125.15 50.35 -124.35 Q50.9 -125.95 51.8 -127.75 52.8 -129.95 54.3 -132.45 52.85 -135.55 50.95 -138.1 L47.7 -141.85 46.05 -143.45 47.7 -141.85 50.95 -138.1 Q52.85 -135.55 54.3 -132.45 52.8 -129.95 51.8 -127.75 50.9 -125.95 50.35 -124.35 L47.8 -124.1 46.8 -123.5 46.75 -123.45 Q15.5 -105.0 8.95 -130.65 29.75 -136.6 46.05 -143.45 51.45 -145.75 56.4 -148.15 L59.9 -149.9 Q63.6 -151.8 67.05 -153.8 L70.85 -156.05 Q81.55 -162.7 88.8 -170.05 89.4 -159.55 93.8 -147.55 M67.05 -153.8 L67.05 -151.05 66.9 -145.75 66.75 -142.75 65.05 -144.85 61.45 -148.6 59.9 -149.9 61.45 -148.6 65.05 -144.85 66.75 -142.75 66.9 -145.75 67.05 -151.05 67.05 -153.8 M42.4 -141.25 Q42.2 -140.1 42.15 -138.95 41.95 -136.5 42.25 -134.15 42.8 -129.8 45.1 -125.95 L46.75 -123.45 45.1 -125.95 Q42.8 -129.8 42.25 -134.15 41.95 -136.5 42.15 -138.95 42.2 -140.1 42.4 -141.25" fill="#262626" fill-rule="evenodd" stroke="none"/>
      <path d="M93.8 -147.55 Q89.4 -159.55 88.8 -170.05 111.55 -179.7 93.8 -147.55" fill="#fff1dd" fill-rule="evenodd" stroke="none"/>
      <path d="M81.65 -130.8 Q90.15 -133.5 98.25 -137.15 95.7 -142.5 93.8 -147.55 89.4 -159.55 88.8 -170.05 81.55 -162.7 70.85 -156.05 M93.8 -147.55 Q111.55 -179.7 88.8 -170.05 M67.05 -153.8 Q63.6 -151.8 59.9 -149.9 L56.4 -148.15 M56.9 -125.15 L61.6 -125.9 M74.9 -128.8 L81.5 -130.75 M67.05 -153.8 L70.85 -156.05 M74.9 -128.8 Q68.35 -127.1 61.6 -125.9 M50.35 -124.35 L56.9 -125.15 M50.35 -124.35 L47.8 -124.1 46.8 -123.5 M46.75 -123.45 Q15.5 -105.0 8.95 -130.65 29.75 -136.6 46.05 -143.45 51.45 -145.75 56.4 -148.15" fill="none" stroke="#000000" stroke-linecap="round" stroke-linejoin="round" stroke-width="5.0"/>
      <path d="M70.85 -156.05 L71.6 -152.85 72.8 -148.65 Q74.55 -143.0 77.15 -137.95 L79.65 -133.6 81.5 -130.75 81.65 -130.8 M59.9 -149.9 L59.2 -150.4 M70.85 -156.05 L70.7 -156.75 M59.9 -149.9 L61.45 -148.6 65.05 -144.85 66.75 -142.75 66.9 -145.75 67.05 -151.05 67.05 -153.8 67.05 -154.75 M56.4 -148.15 L56.7 -146.35 Q57.1 -143.3 56.95 -140.9 56.8 -139.15 56.3 -137.7 54.95 -133.6 54.3 -132.45 L55.25 -130.25 55.75 -129.0 56.9 -125.15 M61.6 -125.9 L61.95 -126.65 Q63.85 -129.25 65.0 -132.35 66.2 -135.7 66.5 -139.65 L66.75 -142.75 67.15 -142.2 Q69.45 -139.1 71.65 -135.15 L73.9 -130.9 74.9 -128.8 M46.05 -143.45 L47.7 -141.85 50.95 -138.1 Q52.85 -135.55 54.3 -132.45 52.8 -129.95 51.8 -127.75 50.9 -125.95 50.35 -124.35 L50.1 -123.75 M46.75 -123.45 L45.1 -125.95 Q42.8 -129.8 42.25 -134.15 41.95 -136.5 42.15 -138.95 42.2 -140.1 42.4 -141.25 M46.8 -123.5 L46.75 -123.45 M56.4 -148.15 L56.25 -148.8" fill="none" stroke="#ffffff" stroke-linecap="round" stroke-linejoin="round" stroke-width="2.0"/>
    </g>
  </defs>
</svg>
