<?xml version="1.0" encoding="UTF-8" standalone="no"?>
<svg xmlns:xlink="http://www.w3.org/1999/xlink" height="228.25px" width="250.6px" xmlns="http://www.w3.org/2000/svg">
  <g transform="matrix(1, 0, 0, 1, 130.7, 221.95)">
    <use height="94.4" transform="matrix(1.0, 0.0, 0.0, 1.0, -63.9, -135.8)" width="112.35" xlink:href="#shape0"/>
    <use height="88.55" transform="matrix(1.0, 0.0, 0.0, 1.0, -69.55, -138.05)" width="122.65" xlink:href="#shape1"/>
  </g>
  <defs>
    <g id="shape0" transform="matrix(1, 0, 0, 1, 63.9, 135.8)">
      <path d="M12.15 -129.85 Q36.55 -86.7 43.3 -70.0 L46.95 -59.75 Q47.9 -56.45 48.25 -54.05 49.35 -46.3 45.0 -44.45 39.6 -42.15 36.35 -44.5 29.85 -49.35 24.7 -59.75 20.45 -68.3 17.15 -80.65 9.8 -108.0 7.0 -127.0 7.0 -129.05 7.3 -129.6 L7.35 -129.6 7.25 -129.85 Q9.7 -135.35 12.15 -129.85 M27.35 -101.25 L27.2 -101.45 27.2 -101.05 27.2 -100.7 27.35 -101.25 M25.0 -104.25 L25.1 -104.05 25.15 -104.05 25.0 -104.25 M20.65 -105.45 Q16.15 -112.85 12.5 -119.9 14.55 -107.35 17.2 -95.3 19.85 -83.25 25.5 -69.7 27.8 -64.25 30.45 -59.75 34.25 -53.2 38.8 -48.85 41.55 -46.2 44.15 -50.25 45.6 -52.5 42.85 -59.75 41.5 -63.25 39.15 -67.95 31.9 -82.35 28.55 -90.2 25.15 -98.05 20.65 -105.45 M-33.6 -122.8 Q-38.2 -114.05 -50.5 -80.95 -62.85 -47.95 -57.7 -47.1 -56.7 -45.75 -52.85 -46.45 -48.6 -47.25 -46.45 -52.25 -44.35 -57.25 -43.05 -63.05 -41.75 -68.9 -37.75 -92.45 -33.75 -116.0 -33.8 -118.35 L-33.8 -121.05 -33.6 -122.8 M-35.2 -131.25 L-32.0 -135.75 Q-25.7 -137.35 -34.75 -82.05 -36.9 -70.1 -42.35 -50.95 -45.0 -41.8 -51.8 -41.4 -56.05 -41.2 -60.45 -44.0 -65.05 -46.9 -63.55 -58.25 L-58.5 -74.75 -57.35 -78.15 Q-53.8 -88.55 -35.2 -131.25" fill="#000000" fill-rule="evenodd" stroke="none"/>
      <path d="M20.65 -105.45 Q25.15 -98.05 28.55 -90.2 31.9 -82.35 39.15 -67.95 41.5 -63.25 42.85 -59.75 45.6 -52.5 44.15 -50.25 41.55 -46.2 38.8 -48.85 34.25 -53.2 30.45 -59.75 27.8 -64.25 25.5 -69.7 19.85 -83.25 17.2 -95.3 14.55 -107.35 12.5 -119.9 16.15 -112.85 20.65 -105.45 M-33.6 -122.8 L-33.8 -121.05 -33.8 -118.35 Q-33.75 -116.0 -37.75 -92.45 -41.75 -68.9 -43.05 -63.05 -44.35 -57.25 -46.45 -52.25 -48.6 -47.25 -52.85 -46.45 -56.7 -45.75 -57.7 -47.1 -62.85 -47.95 -50.5 -80.95 -38.2 -114.05 -33.6 -122.8" fill="#fff1dd" fill-rule="evenodd" stroke="none"/>
    </g>
    <g id="shape1" transform="matrix(1, 0, 0, 1, 69.55, 138.05)">
      <path d="M12.15 -130.6 L51.1 -65.2 Q35.1 -54.9 24.55 -51.8 L7.05 -127.75 Q8.1 -135.45 12.15 -130.6 M-30.15 -130.2 L-38.05 -51.5 Q-58.3 -57.0 -67.55 -63.2 L-36.0 -129.55 Q-29.0 -142.25 -30.15 -130.2" fill="#ffffff" fill-rule="evenodd" stroke="none"/>
      <path d="M12.15 -130.6 L51.1 -65.2 Q35.1 -54.9 24.55 -51.8 L7.05 -127.75 Q8.1 -135.45 12.15 -130.6 M-30.15 -130.2 L-38.05 -51.5 Q-58.3 -57.0 -67.55 -63.2 L-36.0 -129.55 Q-29.0 -142.25 -30.15 -130.2" fill="none" stroke="#000000" stroke-linecap="round" stroke-linejoin="round" stroke-width="4.0"/>
      <path d="M-59.05 -81.4 Q-54.6 -86.4 -50.7 -94.95 -51.75 -94.25 -53.45 -94.2 L-55.7 -94.45 Q-56.25 -94.75 -56.6 -95.4 -54.15 -97.4 -57.15 -102.4 -52.7 -103.6 -50.6 -99.3 -48.35 -100.75 -47.5 -97.85 -42.15 -99.25 -39.9 -95.35 -42.25 -92.7 -41.4 -89.15 -45.3 -89.1 -47.45 -94.05 L-47.45 -94.1 -47.7 -93.9 -47.9 -93.85 Q-47.65 -80.65 -46.25 -77.3 L-49.35 -76.45 Q-50.35 -83.1 -49.4 -94.4 -52.7 -84.4 -57.15 -77.3 L-59.05 -81.4 M-50.6 -99.3 Q-52.1 -96.6 -50.35 -95.2 L-49.4 -94.4 -50.35 -95.2 -50.7 -94.95 -50.35 -95.2 Q-52.1 -96.6 -50.6 -99.3 M-49.4 -94.4 Q-48.5 -93.8 -47.9 -93.85 -48.5 -93.8 -49.4 -94.4 M-47.45 -94.1 Q-46.9 -94.8 -47.5 -97.85 -46.9 -94.8 -47.45 -94.1" fill="#d02f2f" fill-rule="evenodd" stroke="none"/>
      <path d="M-59.05 -81.4 Q-54.6 -86.4 -50.7 -94.95 -51.75 -94.25 -53.45 -94.2 L-55.7 -94.45 Q-56.25 -94.75 -56.6 -95.4 -54.15 -97.4 -57.15 -102.4 -52.7 -103.6 -50.6 -99.3 -48.35 -100.75 -47.5 -97.85 -42.15 -99.25 -39.9 -95.35 -42.25 -92.7 -41.4 -89.15 -45.3 -89.1 -47.45 -94.05 L-47.45 -94.1 -47.7 -93.9 -47.9 -93.85 Q-48.5 -93.8 -49.4 -94.4 -52.7 -84.4 -57.15 -77.3 M-49.35 -76.45 Q-50.35 -83.1 -49.4 -94.4 L-50.35 -95.2 -50.7 -94.95 M-47.5 -97.85 Q-46.9 -94.8 -47.45 -94.1 M-50.35 -95.2 Q-52.1 -96.6 -50.6 -99.3" fill="none" stroke="#000000" stroke-linecap="round" stroke-linejoin="round" stroke-width="1.0"/>
      <path d="M-47.9 -93.85 Q-47.65 -80.65 -46.25 -77.3 L-49.35 -76.45 M-57.15 -77.3 L-59.05 -81.4" fill="none" stroke="#000000" stroke-linecap="round" stroke-linejoin="round" stroke-width="1.0"/>
      <path d="M39.4 -80.7 Q34.95 -85.7 31.05 -94.25 32.1 -93.55 33.8 -93.5 L36.05 -93.75 Q36.6 -94.05 36.95 -94.7 34.5 -96.7 37.5 -101.7 33.05 -102.9 30.95 -98.6 28.7 -100.05 27.85 -97.15 22.5 -98.55 20.25 -94.65 22.6 -92.0 21.75 -88.45 25.65 -88.4 27.8 -93.35 L27.8 -93.4 28.05 -93.2 28.25 -93.15 Q28.0 -79.95 26.6 -76.6 L29.7 -75.75 Q30.7 -82.4 29.75 -93.7 33.05 -83.7 37.5 -76.6 L39.4 -80.7 M30.95 -98.6 Q32.45 -95.9 30.7 -94.5 L29.75 -93.7 30.7 -94.5 31.05 -94.25 30.7 -94.5 Q32.45 -95.9 30.95 -98.6 M29.75 -93.7 Q28.85 -93.1 28.25 -93.15 28.85 -93.1 29.75 -93.7 M27.8 -93.4 Q27.25 -94.1 27.85 -97.15 27.25 -94.1 27.8 -93.4" fill="#d02f2f" fill-rule="evenodd" stroke="none"/>
      <path d="M39.4 -80.7 Q34.95 -85.7 31.05 -94.25 32.1 -93.55 33.8 -93.5 L36.05 -93.75 Q36.6 -94.05 36.95 -94.7 34.5 -96.7 37.5 -101.7 33.05 -102.9 30.95 -98.6 28.7 -100.05 27.85 -97.15 22.5 -98.55 20.25 -94.65 22.6 -92.0 21.75 -88.45 25.65 -88.4 27.8 -93.35 L27.8 -93.4 28.05 -93.2 28.25 -93.15 Q28.85 -93.1 29.75 -93.7 33.05 -83.7 37.5 -76.6 M29.7 -75.75 Q30.7 -82.4 29.75 -93.7 L30.7 -94.5 31.05 -94.25 M27.85 -97.15 Q27.25 -94.1 27.8 -93.4 M30.7 -94.5 Q32.45 -95.9 30.95 -98.6" fill="none" stroke="#000000" stroke-linecap="round" stroke-linejoin="round" stroke-width="1.0"/>
      <path d="M28.25 -93.15 Q28.0 -79.95 26.6 -76.6 L29.7 -75.75 M37.5 -76.6 L39.4 -80.7" fill="none" stroke="#000000" stroke-linecap="round" stroke-linejoin="round" stroke-width="1.0"/>
      <path d="M-51.6 -119.4 Q-56.05 -120.15 -56.75 -122.7 -57.4 -125.25 -53.95 -128.1 -50.5 -130.95 -44.9 -132.4 -39.3 -133.95 -34.9 -133.2 -30.45 -132.45 -29.8 -129.9 L-29.65 -129.25 -29.65 -129.0 -29.7 -128.4 Q-30.1 -126.55 -32.55 -124.5 -35.25 -122.3 -39.15 -120.9 L-41.6 -120.15 Q-47.2 -118.65 -51.6 -119.4" fill="url(#gradient0)" fill-rule="evenodd" stroke="none"/>
      <path d="M-51.6 -119.4 Q-56.05 -120.15 -56.75 -122.7 -57.4 -125.25 -53.95 -128.1 -50.5 -130.95 -44.9 -132.4 -39.3 -133.95 -34.9 -133.2 -30.45 -132.45 -29.8 -129.9 L-29.65 -129.25 -29.65 -129.0 -29.7 -128.4 Q-30.1 -126.55 -32.55 -124.5 -35.25 -122.3 -39.15 -120.9 L-41.6 -120.15 Q-47.2 -118.65 -51.6 -119.4" fill="none" stroke="#000000" stroke-linecap="round" stroke-linejoin="round" stroke-width="4.0"/>
      <path d="M28.9 -119.55 Q33.35 -120.3 34.05 -122.85 34.7 -125.4 31.25 -128.25 27.8 -131.1 22.2 -132.55 16.6 -134.1 12.2 -133.35 7.75 -132.6 7.1 -130.05 L6.95 -129.4 6.95 -129.15 7.0 -128.55 Q7.4 -126.7 9.85 -124.65 12.55 -122.45 16.45 -121.05 L18.9 -120.3 Q24.5 -118.8 28.9 -119.55" fill="url(#gradient1)" fill-rule="evenodd" stroke="none"/>
      <path d="M28.9 -119.55 Q33.35 -120.3 34.05 -122.85 34.7 -125.4 31.25 -128.25 27.8 -131.1 22.2 -132.55 16.6 -134.1 12.2 -133.35 7.75 -132.6 7.1 -130.05 L6.95 -129.4 6.95 -129.15 7.0 -128.55 Q7.4 -126.7 9.85 -124.65 12.55 -122.45 16.45 -121.05 L18.9 -120.3 Q24.5 -118.8 28.9 -119.55" fill="none" stroke="#000000" stroke-linecap="round" stroke-linejoin="round" stroke-width="4.0"/>
    </g>
    <radialGradient cx="0" cy="0" gradientTransform="matrix(0.0013, 0.0048, -0.0121, 0.0032, -40.35, -129.4)" gradientUnits="userSpaceOnUse" id="gradient0" r="819.2" spreadMethod="pad">
      <stop offset="0.0" stop-color="#b3b3b3"/>
      <stop offset="1.0" stop-color="#775f00"/>
    </radialGradient>
    <radialGradient cx="0" cy="0" gradientTransform="matrix(-0.0013, 0.0048, 0.0121, 0.0032, 17.65, -129.55)" gradientUnits="userSpaceOnUse" id="gradient1" r="819.2" spreadMethod="pad">
      <stop offset="0.0" stop-color="#b3b3b3"/>
      <stop offset="1.0" stop-color="#775f00"/>
    </radialGradient>
  </defs>
</svg>
