<?xml version="1.0" encoding="UTF-8" standalone="no"?>
<svg xmlns:xlink="http://www.w3.org/1999/xlink" height="228.25px" width="250.6px" xmlns="http://www.w3.org/2000/svg">
  <g transform="matrix(1, 0, 0, 1, 130.7, 221.95)">
    <use height="95.45" transform="matrix(1.0, 0.0, 0.0, 1.0, -66.1, -136.7)" width="119.0" xlink:href="#shape0"/>
  </g>
  <defs>
    <g id="shape0" transform="matrix(1, 0, 0, 1, 66.1, 136.7)">
      <path d="M14.0 -102.45 Q14.8 -104.3 16.15 -106.05 L16.2 -106.1 16.7 -106.65 17.15 -107.2 Q19.6 -109.9 21.95 -109.9 20.2 -112.65 14.15 -119.85 8.95 -126.5 8.95 -129.6 L9.05 -131.05 8.15 -129.95 8.8 -126.8 Q7.1 -129.75 7.1 -130.9 7.1 -134.6 9.3 -135.45 L10.4 -133.55 11.95 -134.0 30.55 -107.1 Q30.55 -106.0 29.3 -105.85 L26.4 -105.8 Q38.6 -84.2 41.65 -76.7 46.1 -65.65 49.6 -54.4 L49.75 -50.9 Q49.7 -49.05 48.85 -48.0 46.65 -45.25 36.35 -45.25 32.1 -45.25 32.1 -48.75 32.1 -51.35 35.75 -52.8 38.1 -53.75 42.1 -54.25 41.0 -59.35 32.35 -76.7 L29.0 -83.3 22.05 -96.7 22.3 -96.9 20.35 -100.35 20.35 -100.2 20.3 -99.45 20.3 -99.3 19.95 -96.9 19.8 -96.5 19.8 -96.45 19.75 -96.3 Q18.9 -93.6 15.85 -93.6 L14.25 -93.85 13.05 -94.6 12.85 -96.9 Q12.85 -99.8 14.0 -102.45 M25.15 -104.8 L25.0 -105.0 25.1 -104.8 25.15 -104.8 M27.2 -101.45 L27.35 -102.0 27.2 -102.2 27.2 -101.8 27.2 -101.45 M-49.25 -49.7 Q-46.25 -49.3 -46.25 -45.5 -46.25 -43.15 -47.2 -42.5 -49.0 -41.25 -55.5 -41.25 -63.95 -41.25 -65.7 -45.1 -66.25 -46.35 -66.05 -47.85 L-65.75 -49.25 Q-65.75 -50.2 -63.65 -57.85 -61.2 -66.6 -58.5 -74.75 L-57.35 -78.15 Q-55.45 -83.7 -49.3 -98.4 L-49.9 -98.85 -50.4 -99.25 Q-53.1 -101.5 -53.1 -103.4 -53.1 -108.7 -36.85 -127.45 L-35.2 -131.25 -32.0 -135.75 -29.9 -135.25 -28.6 -136.7 Q-26.5 -136.7 -25.7 -135.25 -25.3 -134.5 -25.3 -133.6 L-25.5 -132.7 -25.65 -132.35 -25.75 -132.15 -25.9 -131.75 -25.95 -131.7 -25.95 -131.65 -32.1 -121.5 -32.4 -121.05 -32.65 -120.65 -32.95 -120.2 Q-39.6 -110.05 -43.4 -105.85 L-45.4 -102.85 -45.3 -102.8 Q-44.5 -102.4 -43.6 -102.15 L-40.45 -102.25 -40.4 -102.25 -39.65 -102.3 -38.95 -102.3 -37.85 -101.9 -37.0 -101.2 -36.95 -101.15 -36.95 -101.1 Q-36.45 -100.45 -36.2 -99.4 L-36.25 -96.7 Q-35.35 -93.95 -34.7 -90.9 L-34.0 -88.3 -33.9 -87.35 -33.9 -87.15 -33.9 -87.1 Q-33.9 -86.25 -34.35 -85.3 -35.1 -83.7 -36.8 -83.7 -40.0 -83.7 -41.25 -88.15 -42.05 -90.85 -42.1 -95.2 L-47.3 -80.6 -49.4 -75.15 -49.8 -74.1 Q-57.05 -56.05 -58.25 -49.5 L-58.25 -49.0 -58.2 -49.0 -50.0 -49.75 -49.25 -49.7" fill="#000000" fill-rule="evenodd" stroke="none"/>
      <path d="M19.8 -96.45 L19.8 -96.5 19.95 -96.9 20.3 -99.3 20.3 -99.45 20.35 -100.2 20.35 -100.35 22.3 -96.9 22.05 -96.7 29.0 -83.3 32.35 -76.7 Q41.0 -59.35 42.1 -54.25 38.1 -53.75 35.75 -52.8 L35.05 -54.15 Q30.4 -63.65 27.6 -71.25 25.65 -76.6 22.15 -88.0 L22.85 -88.25 21.35 -92.05 19.8 -96.45 M-49.25 -49.7 L-50.0 -49.75 -58.2 -49.0 -58.25 -49.5 Q-57.05 -56.05 -49.8 -74.1 L-49.4 -75.15 -47.3 -80.6 -42.1 -95.2 Q-42.05 -90.85 -41.25 -88.15 L-42.65 -84.6 -44.7 -74.1 -45.75 -68.5 -49.25 -49.7" fill="#fff1dd" fill-rule="evenodd" stroke="none"/>
      <path d="M8.8 -126.8 L8.15 -129.95 9.05 -131.05 8.95 -129.6 Q8.95 -126.5 14.15 -119.85 20.2 -112.65 21.95 -109.9 19.6 -109.9 17.15 -107.2 L16.7 -106.65 16.2 -106.1 16.15 -106.05 Q14.8 -104.3 14.0 -102.45 L8.8 -126.8 M-34.7 -90.9 Q-35.35 -93.95 -36.25 -96.7 L-36.2 -99.4 Q-36.45 -100.45 -36.95 -101.1 L-36.95 -101.15 -37.0 -101.2 -37.85 -101.9 -38.95 -102.3 -39.65 -102.3 -40.4 -102.25 -40.45 -102.25 -43.6 -102.15 Q-44.5 -102.4 -45.3 -102.8 L-45.4 -102.85 -43.4 -105.85 Q-39.6 -110.05 -32.95 -120.2 L-32.65 -120.65 -32.4 -121.05 -32.1 -121.5 -25.95 -131.65 -25.95 -131.7 -25.9 -131.75 -25.75 -132.15 -25.65 -132.35 -25.5 -132.7 -34.7 -90.9" fill="#ffffff" fill-rule="evenodd" stroke="none"/>
      <path d="M27.8 -72.1 Q29.5 -70.5 30.0 -68.7 L31.35 -69.45 Q34.55 -70.9 39.2 -70.9 L41.9 -70.75 Q41.95 -71.9 42.15 -72.15 L43.5 -72.5 46.6 -78.7 46.0 -79.4 43.05 -76.85 Q41.55 -75.6 39.5 -75.6 37.2 -75.6 36.2 -77.6 35.7 -76.85 35.45 -75.2 L34.85 -72.85 Q33.65 -70.65 28.2 -72.5 L27.6 -72.3 27.8 -72.1 M50.6 -79.6 Q50.6 -76.95 49.25 -73.95 48.2 -71.7 46.75 -70.2 49.2 -67.0 52.9 -59.2 L52.7 -57.4 Q52.9 -56.8 50.9 -56.8 49.3 -56.8 46.0 -59.65 42.7 -62.5 40.9 -62.5 40.25 -62.5 39.1 -59.65 38.0 -56.8 35.6 -56.8 32.25 -56.8 29.45 -60.95 27.6 -63.65 27.15 -65.85 L24.1 -69.5 19.2 -75.6 20.3 -77.35 Q20.9 -78.0 22.7 -78.0 L26.35 -77.1 Q29.0 -76.2 30.0 -76.2 L33.3 -80.25 Q36.65 -84.3 38.0 -84.3 40.1 -84.3 40.45 -82.95 L40.4 -81.1 Q40.9 -81.2 42.25 -82.35 44.0 -83.5 46.6 -83.5 51.9 -83.5 50.6 -79.6 M42.2 -69.15 Q38.65 -69.25 33.9 -65.8 L33.55 -65.35 35.3 -62.3 Q36.2 -64.1 36.85 -64.8 38.9 -67.0 42.5 -67.2 L42.2 -69.15 M-39.25 -72.1 L-39.05 -72.3 -39.65 -72.5 Q-45.1 -70.65 -46.3 -72.85 L-46.9 -75.2 Q-47.15 -76.85 -47.65 -77.6 -48.65 -75.6 -50.95 -75.6 -53.0 -75.6 -54.5 -76.85 L-57.45 -79.4 -58.05 -78.7 -54.95 -72.5 Q-53.85 -72.45 -53.6 -72.15 -53.4 -71.9 -53.35 -70.75 L-50.65 -70.9 Q-46.0 -70.9 -42.8 -69.45 L-41.45 -68.7 Q-40.95 -70.5 -39.25 -72.1 M-35.55 -69.5 L-38.6 -65.85 Q-39.05 -63.65 -40.9 -60.95 -43.7 -56.8 -47.05 -56.8 -49.45 -56.8 -50.55 -59.65 -51.7 -62.5 -52.35 -62.5 -54.15 -62.5 -57.45 -59.65 -60.75 -56.8 -62.35 -56.8 -64.35 -56.8 -64.15 -57.4 L-64.35 -59.2 Q-60.65 -67.0 -58.2 -70.2 -59.65 -71.7 -60.7 -73.95 -62.05 -76.95 -62.05 -79.6 -63.35 -83.5 -58.05 -83.5 -55.45 -83.5 -53.7 -82.35 L-51.85 -81.1 -51.9 -82.95 Q-51.55 -84.3 -49.45 -84.3 -48.1 -84.3 -44.75 -80.25 L-41.45 -76.2 Q-40.45 -76.2 -37.8 -77.1 L-34.15 -78.0 Q-32.35 -78.0 -31.75 -77.35 L-30.65 -75.6 -35.55 -69.5 M-48.3 -64.8 Q-47.65 -64.1 -46.75 -62.3 L-45.0 -65.35 -45.35 -65.8 Q-50.1 -69.25 -53.65 -69.15 L-53.95 -67.2 Q-50.35 -67.0 -48.3 -64.8" fill="#000000" fill-rule="evenodd" stroke="none"/>
      <path d="M28.2 -72.5 Q33.65 -70.65 34.85 -72.85 L35.45 -75.2 Q35.7 -76.85 36.2 -77.6 37.2 -75.6 39.5 -75.6 41.55 -75.6 43.05 -76.85 L46.0 -79.4 46.6 -78.7 43.5 -72.5 42.15 -72.15 Q41.95 -71.9 41.9 -70.75 L39.2 -70.9 Q34.55 -70.9 31.35 -69.45 L30.0 -68.7 Q29.5 -70.5 27.8 -72.1 L28.2 -72.5 M42.2 -69.15 L42.5 -67.2 Q38.9 -67.0 36.85 -64.8 36.2 -64.1 35.3 -62.3 L33.55 -65.35 33.9 -65.8 Q38.65 -69.25 42.2 -69.15 M-39.65 -72.5 L-39.25 -72.1 Q-40.95 -70.5 -41.45 -68.7 L-42.8 -69.45 Q-46.0 -70.9 -50.65 -70.9 L-53.35 -70.75 Q-53.4 -71.9 -53.6 -72.15 -53.85 -72.45 -54.95 -72.5 L-58.05 -78.7 -57.45 -79.4 -54.5 -76.85 Q-53.0 -75.6 -50.95 -75.6 -48.65 -75.6 -47.65 -77.6 -47.15 -76.85 -46.9 -75.2 L-46.3 -72.85 Q-45.1 -70.65 -39.65 -72.5 M-48.3 -64.8 Q-50.35 -67.0 -53.95 -67.2 L-53.65 -69.15 Q-50.1 -69.25 -45.35 -65.8 L-45.0 -65.35 -46.75 -62.3 Q-47.65 -64.1 -48.3 -64.8" fill="#ffffff" fill-rule="evenodd" stroke="none"/>
    </g>
  </defs>
</svg>
