<?xml version="1.0" encoding="UTF-8" standalone="no"?>
<svg xmlns:xlink="http://www.w3.org/1999/xlink" height="228.25px" width="250.6px" xmlns="http://www.w3.org/2000/svg">
  <g transform="matrix(1, 0, 0, 1, 130.7, 221.95)">
    <use height="95.5" transform="matrix(1.0, 0.0, 0.0, 1.0, -69.75, -135.75)" width="127.35" xlink:href="#shape0"/>
  </g>
  <defs>
    <g id="shape0" transform="matrix(1, 0, 0, 1, 69.75, 135.75)">
      <path d="M32.4 -72.6 L20.35 -108.7 27.1 -99.9 Q36.75 -87.55 43.65 -79.35 41.45 -77.75 41.45 -77.25 41.45 -76.5 42.0 -75.9 L43.2 -75.6 Q43.75 -75.6 45.5 -77.1 L48.35 -73.85 35.5 -66.05 34.6 -65.75 33.45 -69.35 Q34.1 -69.65 34.95 -70.1 38.55 -71.95 38.55 -73.55 38.55 -75.05 38.25 -74.7 L36.75 -75.0 Q35.4 -74.4 32.55 -72.7 L32.4 -72.6 M-58.35 -81.75 Q-54.05 -88.65 -43.85 -102.95 L-33.4 -118.05 -35.65 -96.8 Q-36.2 -92.4 -41.2 -77.15 L-43.65 -70.35 Q-47.1 -73.8 -49.95 -73.8 -51.05 -73.8 -52.05 -72.05 -51.15 -70.85 -48.9 -69.05 -46.6 -67.2 -45.1 -66.85 -47.25 -62.1 -48.55 -62.3 L-51.35 -64.2 Q-61.5 -70.95 -61.5 -75.6 L-61.45 -75.8 -60.8 -77.55 Q-58.75 -75.0 -55.55 -75.0 -54.35 -75.0 -53.95 -75.5 L-53.15 -76.8 -58.35 -81.75" fill="#ffffff" fill-rule="evenodd" stroke="none"/>
      <path d="M43.65 -79.35 Q36.75 -87.55 27.1 -99.9 L20.35 -108.7 32.4 -72.6 33.45 -69.35 34.6 -65.75 34.7 -65.5 35.5 -66.05 48.35 -73.85 45.5 -77.1 43.65 -79.35 M32.65 -55.85 L32.5 -55.85 31.9 -56.0 Q29.35 -56.6 29.25 -59.1 25.05 -66.4 18.25 -89.9 13.3 -106.95 9.25 -124.2 L9.3 -125.05 Q7.25 -128.8 7.25 -130.45 7.25 -135.35 11.0 -135.35 13.55 -135.35 21.85 -122.55 30.95 -107.9 33.75 -104.1 36.4 -100.5 48.15 -86.2 57.6 -74.65 57.6 -73.7 57.6 -71.55 45.9 -63.7 48.1 -60.05 50.6 -52.6 50.6 -44.85 40.35 -44.85 34.0 -44.85 32.5 -46.9 31.75 -47.9 32.25 -49.1 L32.45 -50.55 Q33.0 -51.35 34.5 -51.95 35.7 -52.5 37.6 -52.85 L42.35 -52.85 Q41.6 -55.2 39.65 -58.4 L39.1 -59.3 36.1 -57.45 Q35.4 -56.25 33.65 -55.95 L33.5 -55.85 33.0 -55.85 32.65 -55.85 M-48.7 -49.05 Q-47.25 -48.15 -47.25 -45.85 -47.25 -43.5 -50.25 -41.8 -53.0 -40.25 -56.0 -40.25 -63.75 -40.25 -66.0 -44.4 -67.15 -46.5 -66.75 -48.85 -66.75 -51.65 -64.5 -57.5 L-62.6 -61.5 -64.5 -64.3 Q-68.25 -70.35 -69.75 -76.6 -69.75 -78.7 -51.2 -107.0 -32.45 -135.75 -30.0 -135.75 L-28.15 -135.3 Q-27.6 -135.75 -27.0 -135.75 -24.7 -135.75 -23.75 -133.75 -23.25 -132.7 -23.25 -131.5 -23.25 -119.15 -31.25 -87.25 -37.15 -63.85 -41.4 -56.55 L-41.25 -55.85 Q-41.25 -53.65 -43.3 -52.75 -44.35 -52.25 -45.5 -52.25 L-48.35 -52.45 Q-52.6 -53.05 -56.25 -55.45 L-59.0 -49.25 -55.15 -49.1 -51.5 -49.75 Q-49.75 -49.75 -48.7 -49.05 M-43.65 -70.35 L-41.2 -77.15 Q-36.2 -92.4 -35.65 -96.8 L-33.4 -118.05 -43.85 -102.95 Q-54.05 -88.65 -58.35 -81.75 L-60.8 -77.55 -61.45 -75.8 -61.5 -75.6 Q-61.5 -70.95 -51.35 -64.2 L-48.55 -62.3 Q-47.25 -62.1 -45.1 -66.85 L-43.65 -70.35" fill="#000000" fill-rule="evenodd" stroke="none"/>
      <path d="M34.5 -51.95 Q33.05 -53.4 32.65 -55.85 L33.0 -55.85 33.5 -55.85 33.65 -55.95 Q35.4 -56.25 36.1 -57.45 L39.1 -59.3 39.65 -58.4 Q41.6 -55.2 42.35 -52.85 L37.6 -52.85 Q35.7 -52.5 34.5 -51.95 M-48.35 -52.45 Q-48.35 -50.2 -48.7 -49.05 -49.75 -49.75 -51.5 -49.75 L-55.15 -49.1 -59.0 -49.25 -56.25 -55.45 Q-52.6 -53.05 -48.35 -52.45" fill="#fff1dd" fill-rule="evenodd" stroke="none"/>
      <path d="M32.4 -72.6 L32.55 -72.7 Q35.4 -74.4 36.75 -75.0 L38.25 -74.7 Q38.55 -75.05 38.55 -73.55 38.55 -71.95 34.95 -70.1 34.1 -69.65 33.45 -69.35 L32.4 -72.6 M45.5 -77.1 Q43.75 -75.6 43.2 -75.6 L42.0 -75.9 Q41.45 -76.5 41.45 -77.25 41.45 -77.75 43.65 -79.35 L45.5 -77.1 M-58.35 -81.75 L-53.15 -76.8 -53.95 -75.5 Q-54.35 -75.0 -55.55 -75.0 -58.75 -75.0 -60.8 -77.55 L-58.35 -81.75 M-45.1 -66.85 Q-46.6 -67.2 -48.9 -69.05 -51.15 -70.85 -52.05 -72.05 -51.05 -73.8 -49.95 -73.8 -47.1 -73.8 -43.65 -70.35 L-45.1 -66.85" fill="#222222" fill-rule="evenodd" stroke="none"/>
    </g>
  </defs>
</svg>
