<?xml version="1.0" encoding="UTF-8" standalone="no"?>
<svg xmlns:xlink="http://www.w3.org/1999/xlink" height="228.25px" width="250.6px" xmlns="http://www.w3.org/2000/svg">
  <g transform="matrix(1, 0, 0, 1, 130.7, 221.95)">
    <use height="95.5" transform="matrix(1.0, 0.0, 0.0, 1.0, -69.75, -135.75)" width="127.35" xlink:href="#shape0"/>
  </g>
  <defs>
    <g id="shape0" transform="matrix(1, 0, 0, 1, 69.75, 135.75)">
      <path d="M20.35 -108.7 L24.7 -95.9 26.2 -97.4 28.0 -98.8 27.1 -99.9 20.35 -108.7 M32.65 -55.85 L32.5 -55.85 31.9 -56.0 Q29.35 -56.6 29.25 -59.1 25.05 -66.4 18.25 -89.9 13.3 -106.95 9.25 -124.2 L9.3 -125.05 Q7.25 -128.8 7.25 -130.45 7.25 -135.35 11.0 -135.35 13.55 -135.35 21.85 -122.55 30.95 -107.9 33.75 -104.1 36.4 -100.5 48.15 -86.2 57.6 -74.65 57.6 -73.7 57.6 -71.55 45.9 -63.7 48.1 -60.05 50.6 -52.6 50.6 -44.85 40.35 -44.85 34.0 -44.85 32.5 -46.9 31.75 -47.9 32.25 -49.1 L32.45 -50.55 Q33.0 -51.35 34.5 -51.95 35.7 -52.5 37.6 -52.85 L42.35 -52.85 Q41.6 -55.2 39.65 -58.4 L39.1 -59.3 36.1 -57.45 Q35.4 -56.25 33.65 -55.95 L33.5 -55.85 33.0 -55.85 32.65 -55.85 M35.5 -66.05 L48.35 -73.85 44.05 -78.85 41.25 -82.2 35.85 -88.8 34.3 -87.15 Q31.5 -84.35 28.95 -83.0 L31.35 -75.75 32.55 -72.0 34.6 -65.75 34.7 -65.5 35.5 -66.05 M31.4 -94.4 L30.0 -93.15 26.5 -90.4 27.15 -88.5 28.8 -89.7 32.85 -92.55 31.4 -94.4 M-48.7 -49.05 Q-47.25 -48.15 -47.25 -45.85 -47.25 -43.5 -50.25 -41.8 -53.0 -40.25 -56.0 -40.25 -63.75 -40.25 -66.0 -44.4 -67.15 -46.5 -66.75 -48.85 -66.75 -51.65 -64.5 -57.5 L-62.6 -61.5 -64.5 -64.3 Q-68.25 -70.35 -69.75 -76.6 -69.75 -78.7 -51.2 -107.0 -32.45 -135.75 -30.0 -135.75 L-28.15 -135.3 Q-27.6 -135.75 -27.0 -135.75 -24.7 -135.75 -23.75 -133.75 -23.25 -132.7 -23.25 -131.5 -23.25 -119.15 -31.25 -87.25 -37.15 -63.85 -41.4 -56.55 L-41.25 -55.85 Q-41.25 -53.65 -43.3 -52.75 -44.35 -52.25 -45.5 -52.25 L-48.35 -52.45 Q-52.6 -53.05 -56.25 -55.45 L-59.0 -49.25 -55.15 -49.1 -51.5 -49.75 Q-49.75 -49.75 -48.7 -49.05 M-43.55 -103.3 Q-41.7 -101.75 -39.1 -98.5 L-36.05 -94.5 -35.65 -96.8 -33.4 -118.05 Q-37.4 -112.0 -43.55 -103.3 M-37.75 -88.15 L-41.85 -92.1 Q-45.25 -95.5 -47.1 -98.35 L-49.2 -95.4 Q-47.0 -93.65 -43.95 -90.3 L-38.9 -84.4 -37.75 -88.15 M-43.95 -69.55 Q-42.7 -72.7 -41.2 -77.15 L-40.45 -79.5 -52.25 -90.95 -57.15 -83.65 -60.3 -78.45 Q-61.5 -76.3 -61.5 -75.6 -61.5 -70.95 -51.35 -64.2 L-48.55 -62.3 Q-46.95 -62.05 -43.95 -69.55" fill="#000000" fill-rule="evenodd" stroke="none"/>
      <path d="M-51.0 -79.65 L-50.85 -79.25 -51.1 -79.5 -51.0 -79.65 M-43.95 -69.55 L-44.2 -69.65 -43.95 -69.55 M-57.3 -78.1 L-57.15 -78.1 -57.3 -77.9 -57.3 -78.1 M-48.95 -71.15 L-49.05 -71.15 -48.95 -71.15" fill="#ce350f" fill-rule="evenodd" stroke="none"/>
      <path d="M41.15 -73.8 L42.0 -74.1 Q42.65 -73.8 41.15 -73.8" fill="#e66a1a" fill-rule="evenodd" stroke="none"/>
      <path d="M34.5 -51.95 Q33.05 -53.4 32.65 -55.85 L33.0 -55.85 33.5 -55.85 33.65 -55.95 Q35.4 -56.25 36.1 -57.45 L39.1 -59.3 39.65 -58.4 Q41.6 -55.2 42.35 -52.85 L37.6 -52.85 Q35.7 -52.5 34.5 -51.95 M-48.35 -52.45 Q-48.35 -50.2 -48.7 -49.05 -49.75 -49.75 -51.5 -49.75 L-55.15 -49.1 -59.0 -49.25 -56.25 -55.45 Q-52.6 -53.05 -48.35 -52.45" fill="#fff1dd" fill-rule="evenodd" stroke="none"/>
      <path d="M20.35 -108.7 L27.1 -99.9 28.0 -98.8 26.2 -97.4 24.7 -95.9 20.35 -108.7 M41.15 -73.8 Q42.65 -73.8 42.0 -74.1 L41.15 -73.8 M34.6 -65.75 L32.55 -72.0 31.35 -75.75 28.95 -83.0 Q31.5 -84.35 34.3 -87.15 L35.85 -88.8 41.25 -82.2 44.05 -78.85 48.35 -73.85 35.5 -66.05 34.6 -65.75 M-43.55 -103.3 Q-37.4 -112.0 -33.4 -118.05 L-35.65 -96.8 -36.05 -94.5 -39.1 -98.5 Q-41.7 -101.75 -43.55 -103.3 M-51.0 -79.65 L-51.1 -79.5 -50.85 -79.25 -51.0 -79.65 M-43.95 -69.55 Q-46.95 -62.05 -48.55 -62.3 L-51.35 -64.2 Q-61.5 -70.95 -61.5 -75.6 -61.5 -76.3 -60.3 -78.45 L-57.15 -83.65 -52.25 -90.95 -40.45 -79.5 -41.2 -77.15 Q-42.7 -72.7 -43.95 -69.55 L-44.2 -69.65 -43.95 -69.55 M-48.95 -71.15 L-49.05 -71.15 -48.95 -71.15 M-57.3 -78.1 L-57.3 -77.9 -57.15 -78.1 -57.3 -78.1" fill="#f7f7f7" fill-rule="evenodd" stroke="none"/>
      <path d="M31.4 -94.4 L32.85 -92.55 28.8 -89.7 27.15 -88.5 26.5 -90.4 30.0 -93.15 31.4 -94.4 M-37.75 -88.15 L-38.9 -84.4 -43.95 -90.3 Q-47.0 -93.65 -49.2 -95.4 L-47.1 -98.35 Q-45.25 -95.5 -41.85 -92.1 L-37.75 -88.15" fill="#444444" fill-rule="evenodd" stroke="none"/>
    </g>
  </defs>
</svg>
