<?xml version="1.0" encoding="UTF-8" standalone="no"?>
<svg xmlns:xlink="http://www.w3.org/1999/xlink" height="228.25px" width="250.6px" xmlns="http://www.w3.org/2000/svg">
  <g transform="matrix(1, 0, 0, 1, 130.7, 221.95)">
    <use height="94.5" transform="matrix(1.0, 0.0, 0.0, 1.0, -66.1, -135.75)" width="115.85" xlink:href="#shape0"/>
  </g>
  <defs>
    <g id="shape0" transform="matrix(1, 0, 0, 1, 66.1, 135.75)">
      <path d="M12.05 -121.95 Q7.1 -128.9 7.1 -130.9 7.1 -135.75 10.85 -135.75 13.25 -135.75 24.65 -119.35 35.6 -103.55 35.6 -102.65 35.6 -100.3 32.3 -95.35 36.2 -90.1 41.65 -76.7 46.1 -65.65 49.6 -54.4 L49.75 -50.9 Q49.7 -49.05 48.85 -48.0 46.65 -45.25 36.35 -45.25 32.1 -45.25 32.1 -48.75 32.1 -51.35 35.75 -52.8 38.1 -53.75 42.1 -54.25 41.0 -59.35 32.35 -76.7 L26.3 -89.15 Q24.6 -88.25 22.85 -88.25 L22.15 -88.25 22.1 -88.25 Q18.1 -88.55 18.1 -91.75 18.1 -93.0 20.05 -94.9 L22.75 -97.25 Q27.35 -100.85 27.35 -102.0 L25.15 -104.8 22.6 -102.3 18.85 -98.95 17.55 -97.95 Q16.1 -98.45 16.1 -99.75 L17.95 -102.0 19.25 -103.6 Q21.45 -106.05 23.2 -107.3 L17.25 -114.95 12.05 -121.95 M-49.25 -49.7 Q-46.25 -49.3 -46.25 -45.5 -46.25 -43.15 -47.2 -42.5 -49.0 -41.25 -55.5 -41.25 -63.95 -41.25 -65.7 -45.1 -66.25 -46.35 -66.05 -47.85 L-65.75 -49.25 Q-65.75 -50.2 -63.65 -57.85 -61.2 -66.6 -58.5 -74.75 -53.4 -89.9 -49.75 -95.5 -51.05 -98.35 -52.0 -101.65 L-52.75 -104.9 Q-52.75 -106.65 -32.0 -135.75 -28.25 -135.75 -28.25 -131.5 -28.25 -128.05 -36.3 -116.1 L-36.35 -116.05 -41.5 -108.65 -38.7 -104.45 -37.95 -103.25 Q-37.95 -102.15 -38.1 -101.25 L-39.45 -100.8 -43.3 -106.15 -44.5 -104.5 Q-44.5 -101.35 -40.3 -96.7 L-39.35 -95.7 Q-34.25 -90.4 -34.25 -89.5 -34.25 -85.25 -38.0 -85.25 -40.3 -85.25 -42.35 -86.3 L-44.45 -87.75 -49.4 -75.15 Q-57.0 -56.25 -58.25 -49.5 L-58.25 -49.0 -58.2 -49.0 -50.0 -49.75 -49.25 -49.7" fill="#000000" fill-rule="evenodd" stroke="none"/>
      <path d="M17.95 -102.0 L15.65 -109.8 12.05 -121.95 17.25 -114.95 23.2 -107.3 Q21.45 -106.05 19.25 -103.6 L17.95 -102.0 M-38.7 -104.45 L-41.5 -108.65 -36.35 -116.05 -36.2 -116.0 -38.7 -104.45" fill="#fcf8fe" fill-rule="evenodd" stroke="none"/>
      <path d="M20.05 -94.9 L19.45 -96.85 19.6 -97.9 18.95 -98.6 18.85 -98.95 22.6 -102.3 25.15 -104.8 27.35 -102.0 Q27.35 -100.85 22.75 -97.25 L20.05 -94.9 M-40.3 -96.7 Q-44.5 -101.35 -44.5 -104.5 L-43.3 -106.15 -39.45 -100.8 -40.3 -96.7" fill="#7b1496" fill-rule="evenodd" stroke="none"/>
      <path d="M35.75 -52.8 L35.05 -54.15 Q30.4 -63.65 27.6 -71.25 25.65 -76.6 22.15 -88.0 L22.85 -88.25 Q24.6 -88.25 26.3 -89.15 L32.35 -76.7 Q41.0 -59.35 42.1 -54.25 38.1 -53.75 35.75 -52.8 M-49.25 -49.7 L-50.0 -49.75 -58.2 -49.0 -58.25 -49.5 Q-57.0 -56.25 -49.4 -75.15 L-44.45 -87.75 -42.35 -86.3 -45.75 -68.5 -49.25 -49.7" fill="#fff1dd" fill-rule="evenodd" stroke="none"/>
      <path d="M-36.35 -116.05 L-36.3 -116.05 -36.2 -116.0 -36.35 -116.05" fill="#65c789" fill-rule="evenodd" stroke="none"/>
    </g>
  </defs>
</svg>
