<?xml version="1.0" encoding="UTF-8" standalone="no"?>
<svg xmlns:xlink="http://www.w3.org/1999/xlink" height="228.25px" width="250.6px" xmlns="http://www.w3.org/2000/svg">
  <g transform="matrix(1, 0, 0, 1, 130.7, 221.95)">
    <use height="123.15" transform="matrix(1.0, 0.0, 0.0, 1.0, -79.8, -137.8)" width="143.1" xlink:href="#shape0"/>
  </g>
  <defs>
    <g id="shape0" transform="matrix(1, 0, 0, 1, 79.8, 137.8)">
      <path d="M14.0 -132.8 L14.95 -131.2 Q17.55 -126.65 21.65 -117.9 L34.3 -89.9 Q35.8 -86.6 50.25 -66.0 63.3 -47.3 63.3 -44.4 63.3 -41.95 55.5 -29.9 47.4 -17.4 44.7 -17.4 43.05 -17.4 42.3 -18.3 34.75 -19.8 26.65 -39.6 21.9 -51.2 15.5 -72.1 9.75 -105.4 9.0 -125.5 L8.9 -129.5 Q8.0 -131.7 8.0 -132.5 8.0 -134.5 8.9 -135.45 L9.1 -135.6 Q9.8 -136.2 11.0 -136.2 11.9 -136.2 14.0 -132.8 M15.55 -110.4 Q15.9 -97.7 21.25 -77.15 26.55 -56.6 29.75 -49.35 32.9 -42.15 37.2 -33.35 L38.65 -30.5 42.85 -36.95 Q48.55 -45.1 52.85 -49.6 42.15 -65.65 33.1 -81.65 22.35 -100.6 17.25 -112.75 15.1 -123.1 15.55 -110.4 M56.8 -43.7 L55.6 -45.45 Q51.4 -39.3 40.9 -27.2 42.9 -24.75 44.55 -25.0 L56.8 -43.7 M-27.6 -116.9 Q-27.6 -110.85 -29.35 -94.7 -31.3 -76.3 -34.1 -59.55 -41.25 -16.6 -49.55 -14.65 -66.95 -20.3 -72.7 -30.3 -75.75 -35.5 -78.0 -41.6 -79.8 -46.35 -79.8 -47.4 -79.8 -49.0 -68.9 -67.95 -56.15 -90.15 -54.9 -92.7 -51.95 -98.55 -42.15 -119.65 -33.5 -137.8 -32.1 -137.8 -30.55 -137.8 -29.75 -136.75 -26.7 -134.75 -27.6 -116.9 M-33.75 -121.75 Q-38.8 -111.0 -49.6 -89.7 -52.45 -84.1 -63.8 -64.85 L-70.4 -53.35 -62.2 -43.75 Q-52.85 -33.15 -46.8 -29.2 L-41.85 -47.85 Q-37.55 -63.9 -36.25 -73.2 -35.0 -82.55 -34.1 -113.35 L-33.75 -121.75 M-61.05 -27.45 Q-58.0 -24.75 -52.65 -20.85 L-49.05 -20.45 -47.75 -25.4 Q-57.35 -25.9 -72.25 -49.9 L-73.3 -47.4 Q-73.3 -38.1 -61.05 -27.45" fill="#000000" fill-rule="evenodd" stroke="none"/>
      <path d="M56.8 -43.7 L44.55 -25.0 Q42.9 -24.75 40.9 -27.2 51.4 -39.3 55.6 -45.45 L56.8 -43.7 M15.55 -110.4 Q15.1 -123.1 17.25 -112.75 22.35 -100.6 33.1 -81.65 42.15 -65.65 52.85 -49.6 48.55 -45.1 42.85 -36.95 L38.65 -30.5 37.2 -33.35 Q32.9 -42.15 29.75 -49.35 26.55 -56.6 21.25 -77.15 15.9 -97.7 15.55 -110.4 M-61.05 -27.45 Q-73.3 -38.1 -73.3 -47.4 L-72.25 -49.9 Q-57.35 -25.9 -47.75 -25.4 L-49.05 -20.45 -52.65 -20.85 Q-58.0 -24.75 -61.05 -27.45 M-33.75 -121.75 L-34.1 -113.35 Q-35.0 -82.55 -36.25 -73.2 -37.55 -63.9 -41.85 -47.85 L-46.8 -29.2 Q-52.85 -33.15 -62.2 -43.75 L-70.4 -53.35 -63.8 -64.85 Q-52.45 -84.1 -49.6 -89.7 -38.8 -111.0 -33.75 -121.75" fill="#ffffff" fill-rule="evenodd" stroke="none"/>
      <path d="M13.5 -84.4 Q11.85 -89.7 10.55 -105.9 9.15 -122.1 9.35 -124.55 9.45 -126.75 10.1 -128.6 L10.3 -129.1 Q12.4 -127.8 15.85 -126.65 19.25 -125.55 23.5 -123.35 27.75 -121.15 28.05 -120.75 28.5 -120.15 28.5 -116.85 28.5 -110.75 24.0 -102.7 L23.85 -102.35 23.35 -101.45 22.75 -100.35 18.25 -91.05 17.65 -90.1 13.5 -84.4 M-30.3 -86.0 Q-34.0 -88.65 -36.5 -90.85 -40.1 -93.95 -41.3 -96.1 L-41.4 -96.25 -41.75 -96.9 -47.7 -107.3 Q-51.5 -114.75 -51.5 -123.25 -51.5 -126.4 -48.05 -127.85 -45.8 -128.8 -40.5 -129.35 L-40.15 -129.4 -35.35 -130.0 -34.2 -130.2 -34.2 -130.25 -32.95 -130.55 Q-30.8 -131.2 -30.0 -132.4 -28.6 -132.65 -27.5 -127.8 -26.4 -122.95 -26.4 -112.7 -26.4 -102.45 -30.3 -86.0" fill="#de4343" fill-rule="evenodd" stroke="none"/>
      <path d="M13.5 -84.4 L17.65 -90.1 18.25 -91.05 22.75 -100.35 23.35 -101.45 23.85 -102.35 24.0 -102.7 Q28.5 -110.75 28.5 -116.85 28.5 -120.15 28.05 -120.75 27.75 -121.15 23.5 -123.35 19.25 -125.55 15.85 -126.65 12.4 -127.8 10.3 -129.1 L8.5 -130.5 Q10.2 -133.5 12.0 -133.5 28.1 -133.5 32.25 -127.0 33.65 -124.85 33.7 -121.85 L33.5 -118.0 Q33.5 -109.55 30.3 -101.95 L29.4 -100.15 22.0 -84.5 20.3 -85.2 20.15 -85.0 20.2 -85.3 Q19.5 -85.9 15.35 -82.75 14.6 -83.2 13.5 -84.4 M15.4 -82.75 Q17.1 -83.2 15.6 -82.75 L15.4 -82.75 M-30.3 -86.0 L-30.85 -81.8 Q-34.25 -83.65 -37.55 -84.35 -39.85 -84.8 -42.85 -88.35 -45.4 -90.05 -48.35 -95.3 L-53.0 -104.4 -53.75 -106.0 Q-55.9 -109.75 -56.4 -114.9 L-56.5 -124.0 -56.65 -128.1 Q-56.55 -130.15 -55.0 -131.4 -51.2 -134.5 -33.0 -136.5 L-30.0 -136.0 Q-29.5 -136.6 -29.5 -134.1 L-29.5 -134.0 Q-29.5 -133.15 -30.0 -132.4 -30.8 -131.2 -32.95 -130.55 L-34.2 -130.25 -34.2 -130.2 -35.35 -130.0 -40.15 -129.4 -40.5 -129.35 Q-45.8 -128.8 -48.05 -127.85 -51.5 -126.4 -51.5 -123.25 -51.5 -114.75 -47.7 -107.3 L-41.75 -96.9 -41.4 -96.25 -41.3 -96.1 Q-40.1 -93.95 -36.5 -90.85 -34.0 -88.65 -30.3 -86.0" fill="#000000" fill-rule="evenodd" stroke="none"/>
    </g>
  </defs>
</svg>
