<?xml version="1.0" encoding="UTF-8" standalone="no"?>
<svg xmlns:xlink="http://www.w3.org/1999/xlink" height="244.35px" width="255.3px" xmlns="http://www.w3.org/2000/svg">
  <g transform="matrix(1, 0, 0, 1, 75.9, 228.3)">
    <use height="28.25" transform="matrix(1.0, 0.0, 0.0, 1.0, -19.65, -159.6)" width="63.75" xlink:href="#shape0"/>
  </g>
  <defs>
    <g id="shape0" transform="matrix(1, 0, 0, 1, 19.65, 159.6)">
      <path d="M-13.85 -135.55 L-13.85 -133.25 -14.35 -132.05 Q-14.75 -131.35 -16.25 -131.35 -20.5 -131.35 -19.45 -143.95 -19.45 -150.15 -19.25 -151.7 -18.9 -154.85 -17.9 -156.35 -6.0 -158.0 5.8 -158.2 L26.0 -159.6 Q40.6 -159.6 43.45 -158.15 44.35 -157.65 44.0 -157.05 L43.45 -156.4 Q38.6 -139.55 35.35 -137.05 33.1 -137.75 33.1 -140.0 L33.5 -142.3 Q33.85 -143.55 34.55 -145.15 L35.0 -146.2 Q37.15 -151.1 37.75 -154.4 L-4.95 -153.1 -13.85 -153.45 -13.85 -135.55" fill="#000000" fill-rule="evenodd" stroke="none"/>
      <path d="M33.5 -142.3 Q29.2 -140.8 24.9 -139.55 9.35 -135.0 -1.4 -135.0 L-13.85 -135.55 -13.85 -153.45 -4.95 -153.1 37.75 -154.4 Q37.15 -151.1 35.0 -146.2 L34.55 -145.15 Q33.85 -143.55 33.5 -142.3" fill="#ffc4c4" fill-rule="evenodd" stroke="none"/>
    </g>
  </defs>
</svg>
