<?xml version="1.0" encoding="UTF-8" standalone="no"?>
<svg xmlns:xlink="http://www.w3.org/1999/xlink" height="244.35px" width="255.3px" xmlns="http://www.w3.org/2000/svg">
  <g transform="matrix(1, 0, 0, 1, 75.9, 228.3)">
    <use height="22.5" transform="matrix(1.0, 0.0, 0.0, 1.0, 0.25, -162.75)" width="30.5" xlink:href="#shape0"/>
  </g>
  <defs>
    <g id="shape0" transform="matrix(1, 0, 0, 1, -0.25, 162.75)">
      <path d="M26.5 -162.75 Q30.75 -162.75 30.75 -158.85 30.75 -156.4 24.65 -151.0 L30.75 -145.85 Q30.75 -142.25 25.5 -142.25 21.9 -142.25 16.7 -144.8 10.2 -140.25 7.0 -140.25 3.45 -140.25 2.5 -141.85 2.25 -142.3 2.25 -143.75 2.25 -144.95 8.35 -149.75 4.6 -152.3 0.25 -155.75 0.25 -159.75 4.5 -159.75 10.1 -159.75 16.85 -156.1 25.9 -162.75 26.5 -162.75" fill="#000000" fill-rule="evenodd" stroke="none"/>
    </g>
  </defs>
</svg>
