<?xml version="1.0" encoding="UTF-8" standalone="no"?>
<svg xmlns:xlink="http://www.w3.org/1999/xlink" height="244.35px" width="255.3px" xmlns="http://www.w3.org/2000/svg">
  <g transform="matrix(1, 0, 0, 1, 75.9, 228.3)">
    <use height="39.15" transform="matrix(1.0, 0.0, 0.0, 1.0, -33.95, -180.5)" width="83.4" xlink:href="#shape0"/>
  </g>
  <defs>
    <g id="shape0" transform="matrix(1, 0, 0, 1, 33.95, 180.5)">
      <path d="M40.75 -172.1 Q43.1 -169.15 44.7 -165.95 L25.65 -164.7 Q17.05 -164.35 8.5 -164.35 L8.5 -172.15 8.5 -164.35 Q0.2 -164.35 -8.1 -164.7 L-8.1 -172.7 -8.1 -164.7 -26.75 -165.95 Q-24.35 -170.3 -20.85 -175.15 -21.55 -173.5 -8.1 -172.7 L8.5 -172.15 25.65 -172.05 25.65 -164.7 25.65 -172.05 40.75 -172.1 M47.5 -157.3 Q48.05 -154.15 47.9 -150.85 L44.3 -150.35 44.3 -155.8 44.3 -150.35 25.85 -148.3 7.4 -147.05 7.4 -152.8 25.85 -153.4 Q38.85 -154.2 44.3 -155.8 46.55 -156.5 47.5 -157.3 M-31.95 -153.1 L-23.55 -152.95 -8.1 -152.75 7.4 -152.8 7.4 -147.05 -8.1 -146.5 -23.55 -146.4 -32.3 -146.5 Q-32.7 -149.55 -31.95 -153.1 M25.85 -153.4 L25.85 -148.3 25.85 -153.4 M-23.55 -146.4 L-23.55 -152.95 -23.55 -146.4 M-8.1 -146.5 L-8.1 -152.75 -8.1 -146.5" fill="#ffffff" fill-rule="evenodd" stroke="none"/>
      <path d="M44.7 -165.95 Q46.75 -161.8 47.5 -157.3 46.55 -156.5 44.3 -155.8 38.85 -154.2 25.85 -153.4 L7.4 -152.8 -8.1 -152.75 -23.55 -152.95 -31.95 -153.1 Q-30.8 -158.85 -26.75 -165.95 L-8.1 -164.7 Q0.2 -164.35 8.5 -164.35 17.05 -164.35 25.65 -164.7 L44.7 -165.95" fill="#ffc4c4" fill-rule="evenodd" stroke="none"/>
      <path d="M40.75 -172.1 Q43.1 -169.15 44.7 -165.95 46.75 -161.8 47.5 -157.3 48.05 -154.15 47.9 -150.85 L47.65 -148.1 M44.3 -155.8 L44.3 -150.35 47.9 -150.85 M-31.95 -153.1 L-23.55 -152.95 -8.1 -152.75 7.4 -152.8 25.85 -153.4 Q38.85 -154.2 44.3 -155.8 46.55 -156.5 47.5 -157.3 M25.65 -164.7 L25.65 -172.05 8.5 -172.15 8.5 -164.35 Q17.05 -164.35 25.65 -164.7 L44.7 -165.95 M7.4 -147.05 L25.85 -148.3 25.85 -153.4 M7.4 -152.8 L7.4 -147.05 -8.1 -146.5 -23.55 -146.4 -32.3 -146.5 Q-32.1 -144.6 -31.4 -142.85 M40.75 -172.1 L38.5 -174.75 M25.65 -172.05 L40.75 -172.1 M44.3 -150.35 L25.85 -148.3 M-8.1 -172.7 L-8.1 -164.7 Q0.2 -164.35 8.5 -164.35 M-8.1 -172.7 Q-21.55 -173.5 -20.85 -175.15 -24.35 -170.3 -26.75 -165.95 L-8.1 -164.7 M-17.95 -179.0 L-20.85 -175.15 M-26.75 -165.95 Q-30.8 -158.85 -31.95 -153.1 -32.7 -149.55 -32.3 -146.5 M-8.1 -152.75 L-8.1 -146.5 M-23.55 -152.95 L-23.55 -146.4 M-8.1 -172.7 L8.5 -172.15" fill="none" stroke="#000000" stroke-linecap="round" stroke-linejoin="round" stroke-width="3.0"/>
    </g>
  </defs>
</svg>
