<?xml version="1.0" encoding="UTF-8" standalone="no"?>
<svg xmlns:xlink="http://www.w3.org/1999/xlink" height="244.35px" width="255.3px" xmlns="http://www.w3.org/2000/svg">
  <g transform="matrix(1, 0, 0, 1, 75.9, 228.3)">
    <use height="60.4" transform="matrix(1.0, 0.0, 0.0, 1.0, -26.8, -196.4)" width="79.3" xlink:href="#shape0"/>
  </g>
  <defs>
    <g id="shape0" transform="matrix(1, 0, 0, 1, 26.8, 196.4)">
      <path d="M46.7 -183.7 L46.7 -179.3 46.4 -174.9 Q45.95 -170.7 44.95 -166.8 L44.7 -165.9 44.1 -164.0 Q42.4 -159.1 39.7 -154.8 26.0 -133.4 -1.25 -138.45 -22.15 -142.35 -24.85 -173.25 -25.75 -182.8 -24.85 -194.9 -3.55 -187.5 26.0 -184.85 L34.05 -184.25 37.0 -184.1 38.6 -184.0 46.7 -183.7 M0.55 -165.25 L-1.25 -163.0 -3.75 -170.55 Q-5.6 -166.0 -5.5 -159.5 -10.45 -168.5 -13.05 -179.05 -15.1 -167.5 -13.05 -156.7 -19.85 -162.75 -24.85 -173.25 -19.85 -162.75 -13.05 -156.7 -15.1 -167.5 -13.05 -179.05 -10.45 -168.5 -5.5 -159.5 -5.6 -166.0 -3.75 -170.55 L-1.25 -163.0 0.55 -165.25 M26.15 -164.25 Q32.0 -163.95 35.4 -165.9 38.1 -167.5 39.2 -170.55 L39.2 -161.5 44.95 -166.8 39.2 -161.5 39.2 -170.55 Q38.1 -167.5 35.4 -165.9 32.0 -163.95 26.15 -164.25" fill="#ffffff" fill-rule="evenodd" stroke="none"/>
      <path d="M46.7 -183.7 L51.0 -183.6 M46.7 -183.7 L46.7 -179.3 46.4 -174.9 Q45.95 -170.7 44.95 -166.8 L44.7 -165.9 44.1 -164.0 Q42.4 -159.1 39.7 -154.8 26.0 -133.4 -1.25 -138.45 -22.15 -142.35 -24.85 -173.25 -25.75 -182.8 -24.85 -194.9 -3.55 -187.5 26.0 -184.85 L34.05 -184.25 37.0 -184.1 38.6 -184.0 46.7 -183.7 M44.95 -166.8 L39.2 -161.5 39.2 -170.55 Q38.1 -167.5 35.4 -165.9 32.0 -163.95 26.15 -164.25 M-24.85 -173.25 Q-19.85 -162.75 -13.05 -156.7 -15.1 -167.5 -13.05 -179.05 -10.45 -168.5 -5.5 -159.5 -5.6 -166.0 -3.75 -170.55 L-1.25 -163.0 0.55 -165.25" fill="none" stroke="#000000" stroke-linecap="round" stroke-linejoin="round" stroke-width="3.0"/>
    </g>
  </defs>
</svg>
