<?xml version="1.0" encoding="UTF-8" standalone="no"?>
<svg xmlns:xlink="http://www.w3.org/1999/xlink" height="244.35px" width="255.3px" xmlns="http://www.w3.org/2000/svg">
  <g transform="matrix(1, 0, 0, 1, 75.9, 228.3)">
    <use height="31.8" transform="matrix(1.0, 0.0, 0.0, 1.0, -29.8, -166.8)" width="77.4" xlink:href="#shape0"/>
  </g>
  <defs>
    <g id="shape0" transform="matrix(1, 0, 0, 1, 29.8, 166.8)">
      <path d="M-24.4 -137.15 Q-25.15 -135.0 -26.6 -135.0 -30.6 -135.0 -29.6 -140.2 -29.6 -143.45 -28.7 -146.35 -27.0 -151.85 -22.05 -156.0 -13.55 -163.2 3.6 -165.6 L22.7 -166.8 Q32.65 -166.8 35.1 -166.6 40.25 -166.25 42.75 -164.6 45.45 -162.8 46.55 -158.55 47.6 -154.45 47.6 -146.2 47.6 -140.5 44.7 -140.5 41.4 -140.5 41.0 -144.4 L40.95 -145.05 Q40.8 -146.85 40.95 -149.85 L41.0 -150.9 39.4 -156.2 38.6 -159.1 38.0 -160.3 21.2 -160.7 3.6 -159.65 Q-15.75 -157.05 -21.25 -147.85 L-22.0 -146.35 Q-23.25 -143.55 -23.95 -139.0 -24.1 -137.95 -24.4 -137.15" fill="#000000" fill-rule="evenodd" stroke="none"/>
      <path d="M-24.4 -137.15 Q-24.1 -137.95 -23.95 -139.0 -23.25 -143.55 -22.0 -146.35 L-21.25 -147.85 Q-15.75 -157.05 3.6 -159.65 L21.2 -160.7 38.0 -160.3 38.6 -159.1 39.4 -156.2 41.0 -150.9 40.95 -149.85 Q40.8 -146.85 40.95 -145.05 33.0 -141.9 24.9 -139.55 9.35 -135.0 -1.4 -135.0 -14.45 -135.0 -24.4 -137.15" fill="#ffcccc" fill-rule="evenodd" stroke="none"/>
    </g>
  </defs>
</svg>
