<?xml version="1.0" encoding="UTF-8" standalone="no"?>
<svg xmlns:xlink="http://www.w3.org/1999/xlink" height="149.35px" width="236.25px" xmlns="http://www.w3.org/2000/svg">
  <g transform="matrix(1, 0, 0, 1, 155.3, 26.35)">
    <use height="99.65" transform="matrix(1.0, 0.0, 0.0, 1.0, -155.3, -26.35)" width="227.15" xlink:href="#shape0"/>
  </g>
  <defs>
    <g id="shape0" transform="matrix(1, 0, 0, 1, 155.3, 26.35)">
      <path d="M24.9 -3.8 Q35.0 -4.25 44.7 -7.0 L45.35 -7.15 Q44.45 -8.8 43.9 -10.15 50.85 -14.3 64.65 10.45 78.4 35.2 65.85 53.55 53.25 71.9 1.3 73.25 -50.65 74.55 -100.15 48.75 -109.15 44.1 -117.7 36.35 -126.25 28.6 -125.7 12.85 -138.9 12.25 -145.15 8.8 -151.35 5.35 -155.3 -0.3 -140.15 -18.1 -111.35 -23.6 -97.35 -26.3 -87.85 -26.35 L-75.55 -25.95 Q-77.95 -10.35 -91.55 3.6 -76.05 30.7 -58.45 5.5 -53.9 -1.0 -54.15 -8.5 -54.25 -11.25 -51.75 -11.45 L-50.35 -10.75 -49.15 -9.9 -48.5 -9.35 Q-28.1 -10.35 -8.0 -7.1 L1.9 -5.4 Q13.25 -3.35 24.9 -3.8 M9.05 -3.2 L-17.4 -6.6 -23.1 -7.05 -48.4 -8.3 Q-54.5 26.55 -71.3 23.35 -88.35 20.05 -93.5 13.7 -98.65 7.3 -103.2 2.85 -88.45 -5.85 -84.1 -19.95 -115.65 -20.4 -139.0 -2.65 L-143.55 0.35 Q-139.8 4.35 -136.2 4.8 L-117.2 5.85 Q-118.8 18.6 -113.7 28.25 -110.1 35.1 -102.95 39.1 -31.6 78.95 16.95 67.4 65.45 55.85 63.65 36.25 61.85 16.6 54.05 5.95 49.05 -0.85 46.35 -5.5 28.5 -0.75 9.05 -3.2" fill="#000000" fill-rule="evenodd" stroke="none"/>
      <path d="M9.05 -3.2 Q28.5 -0.75 46.35 -5.5 49.05 -0.85 54.05 5.95 61.85 16.6 63.65 36.25 65.45 55.85 16.95 67.4 -31.6 78.95 -102.95 39.1 -110.1 35.1 -113.7 28.25 -118.8 18.6 -117.2 5.85 L-136.2 4.8 Q-139.8 4.35 -143.55 0.35 L-139.0 -2.65 Q-115.65 -20.4 -84.1 -19.95 -88.45 -5.85 -103.2 2.85 -98.65 7.3 -93.5 13.7 -88.35 20.05 -71.3 23.35 -54.5 26.55 -48.4 -8.3 L-23.1 -7.05 -17.4 -6.6 9.05 -3.2" fill="#2b4199" fill-rule="evenodd" stroke="none"/>
    </g>
  </defs>
</svg>
