<?xml version="1.0" encoding="UTF-8" standalone="no"?>
<svg xmlns:xlink="http://www.w3.org/1999/xlink" height="342.0px" width="237.9px" xmlns="http://www.w3.org/2000/svg">
  <g transform="matrix(1, 0, 0, 1, 118.05, 273.9)">
    <use height="151.95" transform="matrix(1.0, 0.0, 0.0, 1.0, -60.75, -140.2)" width="112.35" xlink:href="#shape0"/>
  </g>
  <defs>
    <g id="shape0" transform="matrix(1, 0, 0, 1, 60.75, 140.2)">
      <path d="M27.95 -140.2 L27.95 -133.05 23.9 -131.95 Q17.25 -130.2 10.85 -129.0 L16.65 -109.8 20.45 -96.85 20.8 -95.7 21.15 -94.5 21.15 -94.55 Q26.1 -78.0 28.6 -71.25 31.4 -63.65 36.05 -54.15 L43.55 -39.05 Q51.6 -22.0 51.6 -8.65 51.6 -2.85 50.7 -0.45 49.2 3.6 44.15 6.0 32.15 11.75 -9.15 11.75 -43.85 11.75 -50.65 10.55 -52.85 10.2 -53.45 9.35 -54.15 8.4 -55.25 8.0 -60.75 6.0 -60.75 3.5 -60.75 -0.1 -57.7 -0.65 -57.05 -8.2 -45.75 -68.5 -36.15 -119.65 -32.05 -131.9 L-32.05 -138.6 Q-19.9 -134.55 -2.0 -134.55 8.75 -134.55 24.3 -139.1 L27.95 -140.2 M1.7 -127.65 Q1.3 -126.05 -2.05 -119.05 L-2.9 -117.25 Q1.45 -110.9 7.75 -88.1 7.75 -85.55 1.45 -75.0 -4.95 -64.25 -7.0 -64.25 -13.35 -64.25 -21.75 -94.35 -21.75 -98.75 -17.25 -108.25 -15.45 -112.1 -13.55 -114.6 -16.35 -118.85 -19.2 -127.1 L-26.25 -128.3 Q-26.45 -123.2 -32.7 -90.3 -32.35 -90.25 -32.75 -90.25 L-39.0 -62.5 -40.25 -54.7 -29.25 -52.25 -1.7 -52.35 Q26.1 -52.55 27.5 -53.0 L27.8 -53.35 28.4 -53.55 Q5.4 -121.45 5.15 -128.1 L1.7 -127.65 M44.0 -7.9 L44.1 -8.75 Q44.1 -11.85 38.0 -27.7 L34.15 -37.45 33.95 -37.15 31.0 -45.8 30.7 -45.75 Q24.7 -44.25 -1.0 -44.25 -30.8 -44.25 -41.45 -46.8 L-42.8 -37.8 -42.8 -37.75 -43.65 -31.45 -43.7 -31.5 -44.35 -26.8 -45.25 -20.95 Q-48.15 -4.2 -50.95 1.65 L-50.9 1.65 -48.15 2.25 Q-36.05 4.0 20.3 4.0 30.75 2.15 35.6 -0.5 43.1 -4.55 44.0 -7.85 L44.0 -7.9 M-10.6 -126.8 Q-9.65 -123.9 -9.25 -123.5 L-7.25 -126.9 -10.6 -126.8 M-8.4 -108.55 L-8.5 -108.75 -8.5 -108.5 Q-14.25 -96.55 -14.25 -93.5 -14.25 -91.7 -10.65 -84.95 L-6.75 -78.0 -1.05 -84.0 Q0.25 -85.3 0.25 -88.35 0.25 -89.7 -2.95 -97.25 -6.15 -104.8 -8.4 -108.55" fill="#000000" fill-rule="evenodd" stroke="none"/>
      <path d="M44.0 -7.85 L44.0 -7.9 44.0 -7.85 M-42.7 -28.2 L-42.3 -30.45 -42.7 -28.2" fill="#ffffff" fill-rule="evenodd" stroke="none"/>
      <path d="M-43.65 -31.45 L-44.35 -26.8 -43.7 -31.5 -43.65 -31.45" fill="#90a446" fill-rule="evenodd" stroke="none"/>
      <path d="M-43.65 -31.45 L-42.8 -37.75 -42.8 -37.8 -41.45 -46.8 Q-30.8 -44.25 -1.0 -44.25 24.7 -44.25 30.7 -45.75 L31.0 -45.8 33.95 -37.15 34.15 -37.45 38.0 -27.7 Q44.1 -11.85 44.1 -8.75 L44.0 -7.9 44.0 -7.85 Q43.1 -4.55 35.6 -0.5 30.75 2.15 20.3 4.0 -36.05 4.0 -48.15 2.25 L-50.9 1.65 -50.95 1.65 Q-48.15 -4.2 -45.25 -20.95 L-44.35 -26.8 -43.65 -31.45 M1.7 -127.65 L5.15 -128.1 Q5.4 -121.45 28.4 -53.55 L27.8 -53.35 27.5 -53.0 Q26.1 -52.55 -1.7 -52.35 L-29.25 -52.25 -40.25 -54.7 -39.0 -62.5 -32.75 -90.25 Q-32.35 -90.25 -32.7 -90.3 -26.45 -123.2 -26.25 -128.3 L-19.2 -127.1 Q-16.35 -118.85 -13.55 -114.6 -15.45 -112.1 -17.25 -108.25 -21.75 -98.75 -21.75 -94.35 -13.35 -64.25 -7.0 -64.25 -4.95 -64.25 1.45 -75.0 7.75 -85.55 7.75 -88.1 1.45 -110.9 -2.9 -117.25 L-2.05 -119.05 Q1.3 -126.05 1.7 -127.65 M-8.5 -108.5 L-8.5 -108.75 -8.4 -108.55 -8.5 -108.5 M-42.7 -28.2 L-42.3 -30.45 -42.7 -28.2" fill="#e60000" fill-rule="evenodd" stroke="none"/>
      <path d="M-10.6 -126.8 L-7.25 -126.9 -9.25 -123.5 Q-9.65 -123.9 -10.6 -126.8 M-8.5 -108.5 L-8.4 -108.55 Q-6.15 -104.8 -2.95 -97.25 0.25 -89.7 0.25 -88.35 0.25 -85.3 -1.05 -84.0 L-6.75 -78.0 -10.65 -84.95 Q-14.25 -91.7 -14.25 -93.5 -14.25 -96.55 -8.5 -108.5" fill="#ffc133" fill-rule="evenodd" stroke="none"/>
    </g>
  </defs>
</svg>
