<?xml version="1.0" encoding="UTF-8" standalone="no"?>
<svg xmlns:xlink="http://www.w3.org/1999/xlink" height="342.0px" width="237.9px" xmlns="http://www.w3.org/2000/svg">
  <g transform="matrix(1, 0, 0, 1, 118.05, 273.9)">
    <use height="151.95" transform="matrix(1.0, 0.0, 0.0, 1.0, -60.75, -140.2)" width="112.35" xlink:href="#shape0"/>
  </g>
  <defs>
    <g id="shape0" transform="matrix(1, 0, 0, 1, 60.75, 140.2)">
      <path d="M23.9 -131.95 Q17.5 -130.25 11.35 -129.1 L11.4 -128.1 11.35 -127.55 15.2 -114.8 Q16.25 -113.7 16.2 -111.6 L16.15 -111.5 16.65 -109.8 19.95 -98.6 20.6 -97.9 20.45 -96.85 Q25.95 -78.5 28.6 -71.25 31.4 -63.65 36.05 -54.15 L43.55 -39.05 Q51.6 -22.0 51.6 -8.65 51.6 -2.85 50.7 -0.45 49.2 3.6 44.15 6.0 32.15 11.75 -9.15 11.75 -43.85 11.75 -50.65 10.55 -52.85 10.2 -53.45 9.35 -54.15 8.4 -55.25 8.0 -60.75 6.0 -60.75 3.5 -60.75 -0.1 -57.7 -0.65 -57.05 -8.2 -45.75 -68.5 -36.15 -119.65 -32.05 -131.9 L-32.05 -138.6 Q-19.9 -134.55 -2.0 -134.55 8.75 -134.55 24.3 -139.1 L27.95 -140.2 27.95 -133.05 23.9 -131.95 M3.85 -103.5 L-1.35 -103.2 Q-0.7 -100.75 2.55 -96.45 3.35 -97.85 4.05 -103.35 L3.85 -103.5 M2.9 -117.05 L-0.65 -113.5 5.5 -112.85 5.6 -112.95 8.35 -115.2 6.7 -121.0 2.9 -117.05 M12.3 -92.55 Q9.95 -82.65 4.65 -82.65 2.4 -82.65 0.3 -83.95 L2.1 -74.45 Q4.05 -63.05 5.3 -51.65 L12.8 -45.3 Q21.9 -36.75 24.9 -36.75 26.8 -36.75 29.1 -40.55 30.35 -42.7 31.75 -43.65 19.95 -78.3 13.4 -98.8 L12.3 -92.55 M-43.65 -31.45 L-43.7 -31.5 -44.35 -26.8 -45.25 -20.95 Q-48.15 -4.2 -50.95 1.65 L-50.9 1.65 -48.15 2.25 Q-36.05 4.0 20.3 4.0 30.75 2.15 35.6 -0.5 43.1 -4.55 44.0 -7.85 L44.0 -7.9 44.1 -8.75 Q44.1 -11.85 38.0 -27.7 L36.05 -32.65 35.75 -33.4 34.95 -32.25 Q30.5 -26.1 25.8 -26.1 16.6 -26.1 0.45 -43.6 -2.8 -41.05 -8.1 -37.35 -22.6 -27.3 -29.4 -27.3 -38.25 -27.3 -43.45 -31.7 L-43.6 -31.8 -43.65 -31.45 M-16.65 -126.9 Q-8.35 -119.7 -7.65 -119.7 -5.95 -119.7 -1.7 -126.15 L-0.85 -127.4 -1.8 -127.3 -12.75 -126.8 -16.65 -126.9 M-27.8 -107.05 L-29.05 -108.05 -29.45 -105.7 -27.8 -107.05 M-16.95 -103.8 Q-17.65 -103.2 -18.45 -102.85 L-18.45 -102.3 Q-18.45 -100.65 -18.15 -100.05 -17.85 -99.5 -17.85 -98.85 -17.55 -97.95 -16.95 -97.65 -15.0 -102.5 -15.0 -104.4 L-16.5 -104.2 -16.95 -103.8 M-18.9 -112.05 L-16.4 -113.0 Q-20.9 -116.85 -26.7 -123.95 L-27.5 -118.1 Q-23.15 -117.0 -19.35 -112.7 L-18.9 -112.05 M-9.45 -86.4 L-9.75 -87.5 -10.15 -86.2 Q-11.9 -80.25 -15.3 -80.25 -21.6 -80.25 -29.85 -103.05 L-31.95 -90.3 -32.75 -90.25 -39.0 -62.5 -42.15 -41.95 Q-39.9 -41.6 -36.9 -39.2 -33.4 -36.45 -32.55 -36.45 -23.75 -36.45 -13.2 -44.4 -9.8 -46.95 -6.8 -49.95 -4.35 -52.35 -4.35 -52.65 -4.35 -55.65 -6.75 -73.8 -7.05 -77.35 -9.3 -85.7 L-9.45 -86.4" fill="#000000" fill-rule="evenodd" stroke="none"/>
      <path d="M3.85 -103.5 L4.05 -103.35 Q3.35 -97.85 2.55 -96.45 -0.7 -100.75 -1.35 -103.2 L3.85 -103.5 M-16.95 -103.8 L-16.5 -104.2 -15.0 -104.4 Q-15.0 -102.5 -16.95 -97.65 -17.55 -97.95 -17.85 -98.85 -17.85 -99.5 -18.15 -100.05 -18.45 -100.65 -18.45 -102.3 L-18.45 -102.85 Q-17.65 -103.2 -16.95 -103.8" fill="#444444" fill-rule="evenodd" stroke="none"/>
      <path d="M2.9 -117.05 L6.7 -121.0 8.35 -115.2 5.6 -112.95 5.5 -112.85 -0.65 -113.5 2.9 -117.05 M-18.9 -112.05 L-19.35 -112.7 Q-23.15 -117.0 -27.5 -118.1 L-26.7 -123.95 Q-20.9 -116.85 -16.4 -113.0 L-18.9 -112.05" fill="#ffffff" fill-rule="evenodd" stroke="none"/>
      <path d="M-9.45 -86.4 L-9.3 -85.7 -9.5 -86.4 -9.45 -86.4" fill="#02a001" fill-rule="evenodd" stroke="none"/>
      <path d="M-9.3 -85.7 L-9.5 -86.4 -9.3 -85.7" fill="#4bbb00" fill-rule="evenodd" stroke="none"/>
      <path d="M-16.65 -126.9 L-12.75 -126.8 -1.8 -127.3 -0.85 -127.4 -1.7 -126.15 Q-5.95 -119.7 -7.65 -119.7 -8.35 -119.7 -16.65 -126.9" fill="#fff1dd" fill-rule="evenodd" stroke="none"/>
      <path d="M-43.45 -31.7 Q-38.25 -27.3 -29.4 -27.3 -22.6 -27.3 -8.1 -37.35 -2.8 -41.05 0.45 -43.6 16.6 -26.1 25.8 -26.1 30.5 -26.1 34.95 -32.25 L35.75 -33.4 36.05 -32.65 38.0 -27.7 Q44.1 -11.85 44.1 -8.75 L44.0 -7.9 44.0 -7.85 Q43.1 -4.55 35.6 -0.5 30.75 2.15 20.3 4.0 -36.05 4.0 -48.15 2.25 L-50.9 1.65 -50.95 1.65 Q-48.15 -4.2 -45.25 -20.95 L-44.35 -26.8 -43.7 -31.5 -43.65 -31.45 -43.45 -31.7 M12.3 -92.55 L13.4 -98.8 Q19.95 -78.3 31.75 -43.65 30.35 -42.7 29.1 -40.55 26.8 -36.75 24.9 -36.75 21.9 -36.75 12.8 -45.3 L5.3 -51.65 Q4.05 -63.05 2.1 -74.45 L0.3 -83.95 Q2.4 -82.65 4.65 -82.65 9.95 -82.65 12.3 -92.55 M-27.8 -107.05 L-29.45 -105.7 -29.05 -108.05 -27.8 -107.05 M-9.3 -85.7 Q-7.05 -77.35 -6.75 -73.8 -4.35 -55.65 -4.35 -52.65 -4.35 -52.35 -6.8 -49.95 -9.8 -46.95 -13.2 -44.4 -23.75 -36.45 -32.55 -36.45 -33.4 -36.45 -36.9 -39.2 -39.9 -41.6 -42.15 -41.95 L-39.0 -62.5 -32.75 -90.25 -31.95 -90.3 -29.85 -103.05 Q-21.6 -80.25 -15.3 -80.25 -11.9 -80.25 -10.15 -86.2 L-9.75 -87.5 -9.45 -86.4 -9.5 -86.4 -9.3 -85.7" fill="#65c789" fill-rule="evenodd" stroke="none"/>
    </g>
  </defs>
</svg>
