<?xml version="1.0" encoding="UTF-8" standalone="no"?>
<svg xmlns:xlink="http://www.w3.org/1999/xlink" height="342.0px" width="237.9px" xmlns="http://www.w3.org/2000/svg">
  <g transform="matrix(1, 0, 0, 1, 118.05, 273.9)">
    <use height="151.95" transform="matrix(1.0, 0.0, 0.0, 1.0, -60.4, -140.2)" width="112.0" xlink:href="#shape0"/>
  </g>
  <defs>
    <g id="shape0" transform="matrix(1, 0, 0, 1, 60.4, 140.2)">
      <path d="M4.35 -128.0 L5.15 -128.1 Q5.3 -124.05 14.0 -97.0 L16.6 -89.0 Q20.45 -77.05 27.45 -57.3 28.45 -56.25 25.65 -54.8 22.85 -53.35 16.35 -50.85 9.85 -48.35 -10.55 -48.35 L-15.7 -48.45 Q-14.65 -51.9 -12.65 -61.55 -10.15 -73.4 -9.85 -77.4 L-9.7 -77.35 Q-9.1 -76.4 -2.45 -76.75 4.5 -77.2 5.1 -77.6 5.9 -78.2 5.9 -79.8 L5.9 -84.5 Q5.9 -92.1 5.1 -107.35 4.4 -120.4 4.35 -128.0 M-43.65 -31.45 L-42.8 -37.75 -42.8 -37.8 -41.1 -49.0 -37.5 -47.5 Q-27.1 -43.65 -10.85 -43.65 9.25 -43.65 21.25 -47.9 26.95 -49.9 29.3 -52.05 L38.25 -27.1 38.65 -26.05 Q44.1 -11.7 44.1 -8.75 L44.0 -7.9 44.0 -7.85 Q43.1 -4.55 35.6 -0.5 30.75 2.15 20.3 4.0 -36.05 4.0 -48.15 2.25 L-49.0 2.05 Q-47.65 -2.7 -45.25 -20.95 L-44.35 -26.8 -43.7 -31.45 -43.65 -31.45 M-26.25 -128.3 L-22.25 -127.6 -20.7 -102.9 Q-20.55 -100.5 -21.15 -94.35 -21.65 -88.85 -21.25 -86.1 -20.3 -80.05 -13.6 -78.1 -15.5 -71.3 -18.4 -49.4 L-18.1 -48.6 Q-27.05 -49.25 -34.45 -51.4 -37.95 -52.45 -40.4 -53.45 L-39.0 -62.5 -33.55 -86.6 -33.2 -89.0 -31.85 -97.0 -26.25 -128.3 M-4.05 -71.9 Q-4.65 -72.5 -5.45 -72.5 -6.25 -72.5 -6.8 -71.9 -7.4 -71.35 -7.4 -70.55 -7.4 -69.75 -6.8 -69.15 -6.25 -68.6 -5.45 -68.6 -4.65 -68.6 -4.05 -69.15 -3.5 -69.75 -3.5 -70.55 -3.5 -71.35 -4.05 -71.9 M-8.2 -61.95 Q-8.2 -61.15 -7.6 -60.55 -7.05 -60.0 -6.25 -60.0 -5.45 -60.0 -4.85 -60.55 -4.3 -61.15 -4.3 -61.95 -4.3 -62.75 -4.85 -63.3 -5.45 -63.9 -6.25 -63.9 -7.05 -63.9 -7.6 -63.3 -8.2 -62.75 -8.2 -61.95" fill="#222222" fill-rule="evenodd" stroke="none"/>
      <path d="M4.35 -128.0 Q4.4 -120.4 5.1 -107.35 5.9 -92.1 5.9 -84.5 L5.9 -79.8 Q5.9 -78.2 5.1 -77.6 4.5 -77.2 -2.45 -76.75 -9.1 -76.4 -9.7 -77.35 L-9.85 -77.4 Q-10.15 -73.4 -12.65 -61.55 -14.65 -51.9 -15.7 -48.45 L-10.55 -48.35 Q9.85 -48.35 16.35 -50.85 22.85 -53.35 25.65 -54.8 28.45 -56.25 27.45 -57.3 20.45 -77.05 16.6 -89.0 L14.0 -97.0 Q5.3 -124.05 5.15 -128.1 L4.35 -128.0 M27.95 -140.2 L27.95 -133.05 23.9 -131.95 Q17.25 -130.2 10.85 -129.0 L16.65 -109.8 21.05 -94.8 21.05 -94.9 22.85 -89.0 Q26.55 -76.8 28.6 -71.25 L49.95 -12.9 51.6 -8.3 Q51.6 -2.8 50.7 -0.45 49.2 3.6 44.15 6.0 32.15 11.75 -9.15 11.75 -43.85 11.75 -50.65 10.55 -52.7 10.25 -56.6 5.65 -58.65 3.3 -52.05 -33.15 L-41.8 -89.0 -40.2 -97.0 Q-34.85 -123.55 -32.05 -131.9 L-32.05 -138.6 Q-19.9 -134.55 -2.0 -134.55 8.75 -134.55 24.3 -139.1 L27.95 -140.2 M1.9 -87.4 Q1.2 -89.2 0.4 -93.3 L0.4 -127.55 -12.75 -126.8 -17.6 -126.95 -16.0 -82.3 -7.6 -81.5 1.9 -81.5 1.9 -87.4 M-48.15 2.25 Q-36.05 4.0 20.3 4.0 30.75 2.15 35.6 -0.5 43.1 -4.55 44.0 -7.85 L44.0 -7.9 44.1 -8.75 Q44.1 -11.7 38.65 -26.05 L38.25 -27.1 29.3 -52.05 Q26.95 -49.9 21.25 -47.9 9.25 -43.65 -10.85 -43.65 -27.1 -43.65 -37.5 -47.5 L-41.1 -49.0 -42.8 -37.8 -42.8 -37.75 -43.65 -31.45 -43.7 -31.5 -43.7 -31.45 -44.35 -26.8 -45.25 -20.95 Q-47.65 -2.7 -49.0 2.05 L-49.1 2.3 -48.15 2.25 M-26.25 -128.3 L-31.85 -97.0 -33.2 -89.0 -33.55 -86.6 -39.0 -62.5 -40.4 -53.45 Q-37.95 -52.45 -34.45 -51.4 -27.05 -49.25 -18.1 -48.6 L-18.4 -49.4 Q-15.5 -71.3 -13.6 -78.1 -20.3 -80.05 -21.25 -86.1 -21.65 -88.85 -21.15 -94.35 -20.55 -100.5 -20.7 -102.9 L-22.25 -127.6 -26.25 -128.3 M-7.05 -87.4 Q-6.25 -87.4 -5.65 -86.8 -5.1 -86.25 -5.1 -85.45 -5.1 -84.65 -5.65 -84.05 -6.25 -83.5 -7.05 -83.5 -7.85 -83.5 -8.4 -84.05 -9.0 -84.65 -9.0 -85.45 -9.0 -86.25 -8.4 -86.8 -7.85 -87.4 -7.05 -87.4 M-9.0 -94.05 Q-9.0 -94.85 -8.4 -95.4 -7.85 -96.0 -7.05 -96.0 -6.25 -96.0 -5.65 -95.4 -5.1 -94.85 -5.1 -94.05 -5.1 -93.25 -5.65 -92.65 -6.25 -92.1 -7.05 -92.1 -7.85 -92.1 -8.4 -92.65 -9.0 -93.25 -9.0 -94.05" fill="#000000" fill-rule="evenodd" stroke="none"/>
      <path d="M1.9 -87.4 L1.9 -81.5 -7.6 -81.5 -16.0 -82.3 -17.6 -126.95 -12.75 -126.8 0.4 -127.55 0.4 -93.3 Q1.2 -89.2 1.9 -87.4 M-9.0 -94.05 Q-9.0 -93.25 -8.4 -92.65 -7.85 -92.1 -7.05 -92.1 -6.25 -92.1 -5.65 -92.65 -5.1 -93.25 -5.1 -94.05 -5.1 -94.85 -5.65 -95.4 -6.25 -96.0 -7.05 -96.0 -7.85 -96.0 -8.4 -95.4 -9.0 -94.85 -9.0 -94.05 M-7.05 -87.4 Q-7.85 -87.4 -8.4 -86.8 -9.0 -86.25 -9.0 -85.45 -9.0 -84.65 -8.4 -84.05 -7.85 -83.5 -7.05 -83.5 -6.25 -83.5 -5.65 -84.05 -5.1 -84.65 -5.1 -85.45 -5.1 -86.25 -5.65 -86.8 -6.25 -87.4 -7.05 -87.4" fill="#ffeef3" fill-rule="evenodd" stroke="none"/>
      <path d="M-8.2 -61.95 Q-8.2 -62.75 -7.6 -63.3 -7.05 -63.9 -6.25 -63.9 -5.45 -63.9 -4.85 -63.3 -4.3 -62.75 -4.3 -61.95 -4.3 -61.15 -4.85 -60.55 -5.45 -60.0 -6.25 -60.0 -7.05 -60.0 -7.6 -60.55 -8.2 -61.15 -8.2 -61.95 M-4.05 -71.9 Q-3.5 -71.35 -3.5 -70.55 -3.5 -69.75 -4.05 -69.15 -4.65 -68.6 -5.45 -68.6 -6.25 -68.6 -6.8 -69.15 -7.4 -69.75 -7.4 -70.55 -7.4 -71.35 -6.8 -71.9 -6.25 -72.5 -5.45 -72.5 -4.65 -72.5 -4.05 -71.9" fill="#ff0000" fill-rule="evenodd" stroke="none"/>
      <path d="M-49.0 2.05 L-48.15 2.25 -49.1 2.3 -49.0 2.05" fill="#ffeef2" fill-rule="evenodd" stroke="none"/>
      <path d="M28.15 -110.85 L9.5 -126.55 9.15 -126.85 8.9 -127.0 8.6 -126.95 8.4 -126.7 Q7.2 -124.4 1.45 -119.3 -1.85 -116.45 -4.4 -114.85 L-5.15 -114.4 Q-5.9 -113.95 -6.6 -113.6 L-6.85 -113.35 -6.8 -112.95 -6.75 -112.8 -6.75 -112.75 -0.9 -99.75 0.75 -95.95 0.7 -95.95 0.9 -95.55 1.1 -95.35 1.4 -95.25 1.65 -95.4 Q3.5 -97.1 6.05 -97.1 9.0 -97.1 11.65 -95.7 14.5 -94.2 14.95 -94.25 16.4 -94.2 18.3 -96.65 L18.3 -96.6 21.8 -101.5 Q25.65 -106.9 32.95 -105.7 L33.25 -105.75 33.45 -106.0 33.5 -106.3 33.35 -106.55 29.75 -109.5 29.05 -110.1 28.35 -110.7 28.15 -110.85 M-49.65 -104.05 L-49.85 -104.35 -49.95 -104.45 -50.65 -104.6 Q-58.05 -104.6 -59.95 -106.4 L-59.9 -106.4 Q-60.4 -107.0 -60.4 -109.35 -60.4 -109.8 -59.4 -110.95 -55.0 -116.25 -30.75 -136.5 -28.8 -136.45 -28.2 -135.05 L-28.0 -134.8 Q-25.5 -133.15 -19.65 -128.35 -10.35 -120.75 -9.85 -120.85 L-9.55 -120.95 Q2.45 -129.55 5.15 -130.8 L5.35 -130.95 5.45 -131.15 Q5.8 -133.8 8.4 -133.8 14.1 -133.7 41.25 -105.35 L42.45 -104.05 Q42.4 -102.1 41.55 -101.15 L41.4 -100.9 Q41.2 -100.0 40.45 -99.35 L40.5 -99.35 Q39.55 -98.65 36.4 -99.8 32.65 -101.2 28.65 -98.9 L28.45 -98.7 25.1 -94.3 Q19.45 -87.35 14.45 -87.3 12.35 -87.3 10.8 -88.45 8.8 -89.95 6.0 -88.05 L2.75 -85.55 2.5 -85.35 2.35 -85.4 2.15 -85.45 Q-3.1 -86.4 -5.35 -91.35 L-8.85 -99.65 -9.05 -99.9 -9.35 -100.0 -9.65 -99.85 -9.85 -99.6 Q-11.1 -94.0 -12.0 -90.85 -12.8 -88.25 -13.75 -86.85 L-13.8 -86.65 -13.8 -86.45 Q-13.85 -84.95 -15.25 -84.1 -16.3 -83.5 -17.3 -83.5 -19.55 -83.55 -22.25 -86.8 -25.4 -90.6 -25.65 -90.5 -27.95 -90.5 -32.8 -88.85 -37.4 -87.3 -39.5 -87.3 -47.35 -87.3 -49.1 -94.35 -49.95 -97.75 -49.45 -101.3 L-49.35 -101.9 -49.35 -102.0 -49.55 -103.85 -49.65 -104.05 M9.55 -49.95 L12.9 -39.0 18.75 -33.9 Q23.3 -29.65 27.25 -26.6 33.75 -29.55 38.15 -33.6 L40.1 -35.35 34.7 -46.5 Q31.55 -52.7 29.45 -55.95 26.25 -54.3 18.5 -51.8 15.1 -50.7 9.55 -49.95 M-18.35 -50.9 L-17.05 -50.85 -7.1 -50.95 Q9.7 -51.65 20.95 -55.75 26.25 -57.7 28.2 -59.65 L27.05 -62.85 Q24.5 -60.75 19.15 -58.65 7.0 -53.95 -10.9 -53.95 -28.1 -53.95 -38.0 -57.85 -41.4 -59.15 -43.15 -60.4 L-43.95 -57.3 Q-40.85 -55.75 -32.35 -53.0 L-31.45 -52.7 -29.9 -52.3 Q-26.15 -51.45 -21.15 -51.05 L-19.75 -50.95 -18.35 -50.9 M29.95 -66.05 L44.4 -35.3 44.9 -34.1 Q45.9 -33.5 46.35 -30.0 46.35 -28.1 44.5 -27.0 42.5 -25.75 36.8 -24.45 L34.8 -21.8 Q32.85 -19.25 30.7 -19.25 28.65 -19.25 26.75 -20.4 L25.1 -21.75 25.35 -22.15 Q19.4 -28.7 15.75 -31.55 L18.35 -19.65 18.65 -18.7 Q18.65 -16.75 17.3 -14.8 15.65 -12.45 13.05 -12.45 10.3 -12.45 8.35 -14.55 L7.45 -15.65 Q7.25 -14.55 6.45 -13.1 5.15 -10.7 3.5 -10.7 0.3 -10.7 -2.2 -12.25 L-5.25 -14.75 -6.85 -13.0 Q-8.3 -11.6 -9.65 -11.6 -13.65 -11.6 -16.15 -14.55 L-17.7 -16.85 -18.65 -15.45 Q-20.1 -13.65 -21.6 -13.65 -23.95 -13.65 -26.25 -15.45 L-28.5 -17.25 -29.65 -16.2 Q-30.45 -15.15 -32.3 -15.15 -35.65 -15.15 -37.75 -17.6 L-40.15 -20.1 Q-40.45 -20.1 -41.4 -19.2 -42.35 -18.35 -45.0 -18.35 -49.1 -18.35 -49.2 -23.2 L-49.2 -23.35 -49.65 -23.1 Q-51.5 -22.2 -53.5 -22.2 -57.2 -22.2 -56.85 -27.4 L-56.6 -31.4 Q-56.65 -32.6 -56.2 -33.95 L-51.15 -49.1 -45.8 -64.45 Q-44.4 -63.7 -42.1 -62.7 -32.25 -58.5 -22.9 -57.7 -13.5 -56.9 -4.2 -57.25 5.1 -57.7 19.25 -62.9 27.6 -66.0 29.2 -67.55 L29.95 -66.05 M34.35 -25.7 L27.45 -22.5 27.05 -22.3 27.95 -21.8 Q29.6 -20.85 30.65 -20.85 33.15 -20.85 35.1 -24.6 L35.7 -26.3 34.35 -25.7 M39.2 -27.0 Q44.7 -27.0 44.85 -29.8 44.85 -30.65 44.15 -32.15 42.75 -30.15 39.15 -28.15 L37.4 -27.2 39.2 -27.0 M4.8 -49.45 L1.15 -49.15 0.35 -49.1 -10.4 -35.9 -21.3 -48.85 -22.45 -48.9 -29.5 -49.75 -38.8 -24.95 -37.45 -24.65 -36.7 -24.5 -35.95 -24.35 -35.85 -24.3 -31.75 -23.5 -24.7 -41.1 -10.7 -29.15 2.9 -41.0 7.4 -20.85 Q11.35 -21.25 14.8 -22.2 L5.95 -49.55 4.8 -49.45 M17.1 -18.5 Q13.05 -17.45 8.4 -16.95 L9.5 -15.7 Q10.75 -14.0 12.3 -14.0 15.45 -14.0 16.45 -16.9 L17.1 -18.5 M5.4 -14.5 Q5.95 -16.2 6.45 -16.8 1.45 -16.45 -4.2 -16.7 0.15 -12.45 3.2 -12.45 4.7 -12.45 5.4 -14.5 M4.05 -20.5 L1.0 -35.0 Q-4.3 -30.7 -10.4 -24.8 L-23.3 -35.6 -27.85 -22.85 Q-18.35 -21.3 -9.25 -20.8 -1.05 -20.4 4.05 -20.5 M-12.65 -111.55 L-12.45 -112.1 -12.1 -112.95 -12.1 -113.0 -12.05 -113.05 -12.0 -113.2 -12.0 -113.3 -12.0 -113.6 -12.2 -113.85 -13.3 -114.6 -13.8 -115.0 -14.0 -115.15 -20.75 -120.75 -21.1 -121.1 -22.2 -122.05 -22.7 -122.5 -29.9 -129.15 -30.25 -129.3 -30.6 -129.15 Q-33.1 -126.5 -37.95 -122.2 L-45.45 -115.9 -46.0 -115.45 -46.65 -114.95 -49.7 -112.6 -49.85 -112.3 -49.85 -111.95 -49.6 -111.75 Q-43.75 -109.1 -42.75 -103.3 L-41.45 -95.7 Q-41.15 -93.75 -38.95 -93.75 -35.6 -93.75 -33.05 -95.5 -31.0 -96.9 -26.6 -97.05 L-25.65 -97.1 -25.4 -97.1 Q-22.75 -97.05 -19.1 -93.2 L-18.8 -93.05 -18.45 -93.15 -18.25 -93.45 -17.55 -95.95 -17.5 -96.15 -17.4 -96.55 -12.75 -111.3 -12.75 -111.25 -12.65 -111.5 -12.65 -111.55 M-34.15 -50.95 L-44.65 -54.8 -49.55 -41.9 Q-51.65 -36.25 -52.5 -30.4 -50.4 -28.05 -42.65 -25.9 L-32.9 -50.55 -34.15 -50.95 M-50.5 -24.55 Q-53.1 -25.65 -54.3 -26.8 L-55.3 -27.9 -55.4 -27.3 -54.95 -25.35 Q-54.35 -23.85 -53.55 -23.85 L-50.55 -24.45 -50.4 -24.5 -50.5 -24.55 M-47.75 -23.25 Q-47.75 -19.95 -44.85 -19.95 -42.6 -19.95 -41.15 -21.2 L-40.75 -21.55 Q-44.8 -22.5 -47.65 -23.45 L-47.7 -23.45 -47.75 -23.25 M-7.85 -48.75 L-16.25 -48.65 -9.9 -41.55 -3.7 -48.9 -7.85 -48.75 M-38.45 -20.8 L-37.55 -19.65 Q-35.15 -16.8 -32.15 -16.8 -30.1 -16.8 -29.45 -18.55 L-29.15 -19.3 -29.85 -19.4 -32.3 -19.8 -38.2 -20.95 -38.6 -21.05 -38.45 -20.8 M-21.6 -15.3 Q-20.3 -15.3 -19.6 -16.8 L-18.9 -17.95 -27.35 -19.0 Q-25.35 -15.3 -21.6 -15.3 M-6.95 -15.15 L-5.55 -16.75 -7.05 -16.85 -16.55 -17.7 Q-14.05 -13.2 -9.75 -13.2 -8.3 -13.2 -6.95 -15.15" fill="#000000" fill-rule="evenodd" stroke="none"/>
      <path d="M-6.85 -113.35 L-6.6 -113.6 Q-5.9 -113.95 -5.15 -114.4 L-4.4 -114.85 Q-1.85 -116.45 1.45 -119.3 7.2 -124.4 8.4 -126.7 L8.6 -126.95 8.9 -127.0 9.15 -126.85 9.5 -126.55 28.15 -110.85 28.2 -110.65 26.45 -110.15 Q23.7 -109.15 21.8 -106.45 L18.3 -101.55 18.3 -101.6 Q16.4 -99.15 14.95 -99.2 14.5 -99.15 11.65 -100.65 9.0 -102.05 6.05 -102.05 4.55 -102.05 0.7 -100.9 L-0.9 -99.75 -6.75 -112.75 -6.85 -113.35 M-46.65 -114.95 L-46.0 -115.45 -45.45 -115.9 -37.95 -122.2 Q-33.1 -126.5 -30.6 -129.15 L-30.25 -129.3 -29.9 -129.15 -22.7 -122.5 -22.2 -122.05 -21.1 -121.1 -20.75 -120.75 -14.0 -115.15 -13.8 -115.0 -13.3 -114.6 -12.2 -113.85 -12.0 -113.6 -12.0 -113.3 -12.0 -113.2 -12.05 -113.05 -12.1 -113.0 -12.1 -112.95 -12.45 -112.1 -12.65 -111.55 -12.75 -111.3 -17.4 -96.55 -17.65 -96.25 -20.1 -99.0 Q-21.65 -100.75 -23.15 -101.45 -29.65 -103.7 -38.3 -98.7 -38.75 -101.25 -40.15 -105.2 -42.2 -110.85 -44.1 -112.6 L-46.65 -114.95" fill="#222222" fill-rule="evenodd" stroke="none"/>
      <path d="M-0.9 -99.75 L0.7 -100.9 Q4.55 -102.05 6.05 -102.05 9.0 -102.05 11.65 -100.65 14.5 -99.15 14.95 -99.2 16.4 -99.15 18.3 -101.6 L18.3 -101.55 21.8 -106.45 Q23.7 -109.15 26.45 -110.15 L28.2 -110.65 28.35 -110.7 29.05 -110.1 29.75 -109.5 33.35 -106.55 33.5 -106.3 33.45 -106.0 33.25 -105.75 32.95 -105.7 Q25.65 -106.9 21.8 -101.5 L18.3 -96.6 18.3 -96.65 Q16.4 -94.2 14.95 -94.25 14.5 -94.2 11.65 -95.7 9.0 -97.1 6.05 -97.1 3.5 -97.1 1.65 -95.4 L1.4 -95.25 1.1 -95.35 0.9 -95.55 0.7 -95.95 0.75 -95.95 -0.9 -99.75 M-49.45 -101.3 L-49.55 -101.75 -49.65 -104.05 -49.55 -103.85 -49.35 -102.0 -49.35 -101.9 -49.45 -101.3 M-46.65 -114.95 L-44.1 -112.6 Q-42.2 -110.85 -40.15 -105.2 -38.75 -101.25 -38.3 -98.7 -29.65 -103.7 -23.15 -101.45 -21.65 -100.75 -20.1 -99.0 L-17.65 -96.25 -17.5 -96.15 -17.55 -95.95 -18.25 -93.45 -18.45 -93.15 -18.8 -93.05 -19.1 -93.2 Q-22.75 -97.05 -25.4 -97.1 L-25.65 -97.1 -26.6 -97.05 Q-31.0 -96.9 -33.05 -95.5 -35.6 -93.75 -38.95 -93.75 -41.15 -93.75 -41.45 -95.7 L-42.75 -103.3 Q-43.75 -109.1 -49.6 -111.75 L-49.85 -111.95 -49.85 -112.3 -49.7 -112.6 -46.65 -114.95" fill="#ff0000" fill-rule="evenodd" stroke="none"/>
      <path d="M-31.45 -52.7 L-32.35 -53.0 Q-40.85 -55.75 -43.95 -57.3 L-43.15 -60.4 Q-41.4 -59.15 -38.0 -57.85 -28.1 -53.95 -10.9 -53.95 7.0 -53.95 19.15 -58.65 24.5 -60.75 27.05 -62.85 L28.2 -59.65 Q26.25 -57.7 20.95 -55.75 9.7 -51.65 -7.1 -50.95 L-17.05 -50.85 -18.35 -50.9 Q-18.85 -51.3 -19.2 -51.3 L-21.15 -51.05 Q-26.15 -51.45 -29.9 -52.3 L-30.0 -52.4 -31.3 -52.9 -31.45 -52.7 M9.55 -49.95 Q15.1 -50.7 18.5 -51.8 26.25 -54.3 29.45 -55.95 31.55 -52.7 34.7 -46.5 L40.1 -35.35 38.15 -33.6 Q33.75 -29.55 27.25 -26.6 23.3 -29.65 18.75 -33.9 L12.9 -39.0 9.55 -49.95 M4.05 -20.5 Q-1.05 -20.4 -9.25 -20.8 -18.35 -21.3 -27.85 -22.85 L-23.3 -35.6 -10.4 -24.8 Q-4.3 -30.7 1.0 -35.0 L4.05 -20.5 M-34.15 -50.95 L-32.9 -50.55 -42.65 -25.9 Q-50.4 -28.05 -52.5 -30.4 -51.65 -36.25 -49.55 -41.9 L-44.65 -54.8 -34.15 -50.95 M-7.85 -48.75 L-3.7 -48.9 -9.9 -41.55 -16.25 -48.65 -7.85 -48.75" fill="#eed189" fill-rule="evenodd" stroke="none"/>
      <path d="M39.2 -27.0 L37.4 -27.2 39.15 -28.15 Q42.75 -30.15 44.15 -32.15 44.85 -30.65 44.85 -29.8 44.7 -27.0 39.2 -27.0 M34.35 -25.7 L35.7 -26.3 35.1 -24.6 Q33.15 -20.85 30.65 -20.85 29.6 -20.85 27.95 -21.8 L27.05 -22.3 27.45 -22.5 34.35 -25.7 M5.4 -14.5 Q4.7 -12.45 3.2 -12.45 0.15 -12.45 -4.2 -16.7 1.45 -16.45 6.45 -16.8 5.95 -16.2 5.4 -14.5 M17.1 -18.5 L16.45 -16.9 Q15.45 -14.0 12.3 -14.0 10.75 -14.0 9.5 -15.7 L8.4 -16.95 Q13.05 -17.45 17.1 -18.5 M-50.55 -24.45 L-53.55 -23.85 Q-54.35 -23.85 -54.95 -25.35 L-55.4 -27.3 -55.3 -27.9 -54.3 -26.8 Q-53.1 -25.65 -50.5 -24.55 L-50.55 -24.45 M-47.65 -23.45 Q-44.8 -22.5 -40.75 -21.55 L-41.15 -21.2 Q-42.6 -19.95 -44.85 -19.95 -47.75 -19.95 -47.75 -23.25 L-47.65 -23.45 M-38.2 -20.95 L-32.3 -19.8 -29.85 -19.4 -29.15 -19.3 -29.45 -18.55 Q-30.1 -16.8 -32.15 -16.8 -35.15 -16.8 -37.55 -19.65 L-38.45 -20.8 -38.2 -20.95 M-6.95 -15.15 Q-8.3 -13.2 -9.75 -13.2 -14.05 -13.2 -16.55 -17.7 L-7.05 -16.85 -5.55 -16.75 -6.95 -15.15 M-21.6 -15.3 Q-25.35 -15.3 -27.35 -19.0 L-18.9 -17.95 -19.6 -16.8 Q-20.3 -15.3 -21.6 -15.3" fill="#ffeef3" fill-rule="evenodd" stroke="none"/>
      <path d="M4.8 -49.45 L5.95 -49.55 14.8 -22.2 Q11.35 -21.25 7.4 -20.85 L2.9 -41.0 -10.7 -29.15 -24.7 -41.1 -31.75 -23.5 -35.85 -24.3 -35.95 -24.35 -36.7 -24.5 -37.45 -24.65 -38.8 -24.95 -29.5 -49.75 -22.45 -48.9 -21.3 -48.85 -10.4 -35.9 0.35 -49.1 1.15 -49.15 4.8 -49.45" fill="#aa872c" fill-rule="evenodd" stroke="none"/>
      <path d="M-6.85 -113.35 L-6.75 -112.75 -6.75 -112.8 -6.8 -112.95 -6.85 -113.35 M-17.65 -96.25 L-17.4 -96.55 -17.5 -96.15 -17.65 -96.25 M-12.75 -111.3 L-12.65 -111.55 -12.65 -111.5 -12.75 -111.25 -12.75 -111.3" fill="#333333" fill-rule="evenodd" stroke="none"/>
      <path d="M-31.45 -52.7 L-31.3 -52.9 -30.0 -52.4 -29.9 -52.3 -31.45 -52.7 M-21.15 -51.05 L-19.2 -51.3 Q-18.85 -51.3 -18.35 -50.9 L-19.75 -50.95 -21.15 -51.05" fill="#a58130" fill-rule="evenodd" stroke="none"/>
      <path d="M-3.55 -122.05 Q0.7 -124.2 6.8 -124.2 L10.7 -123.95 Q11.2 -123.75 11.2 -123.0 11.2 -122.35 10.0 -121.1 8.8 -119.8 8.8 -119.35 L9.8 -116.55 Q10.85 -114.0 10.85 -113.15 L9.75 -110.1 8.8 -108.25 Q9.85 -108.0 9.85 -106.9 9.85 -105.95 8.95 -105.55 7.9 -105.0 4.15 -104.45 L4.25 -104.15 Q5.25 -101.9 5.25 -101.2 L5.25 -100.3 Q5.0 -99.55 3.7 -99.55 -1.45 -99.55 -8.25 -114.15 L-8.35 -114.15 -8.65 -114.15 Q-15.45 -99.55 -20.6 -99.55 -21.9 -99.55 -22.15 -100.3 L-22.15 -101.2 Q-22.15 -101.9 -21.15 -104.15 L-21.05 -104.45 Q-24.8 -105.0 -25.85 -105.55 -26.75 -105.95 -26.75 -106.9 -26.75 -108.0 -25.7 -108.25 L-26.65 -110.1 -27.75 -113.15 -26.7 -116.55 -25.7 -119.35 Q-25.7 -119.8 -26.9 -121.1 -28.1 -122.35 -28.1 -123.0 -28.1 -123.75 -27.6 -123.95 L-23.7 -124.2 Q-17.6 -124.2 -13.35 -122.05 L-11.2 -120.75 Q-10.5 -121.9 -9.0 -121.9 L-8.45 -121.85 -7.9 -121.9 Q-6.4 -121.9 -5.7 -120.75 L-3.55 -122.05 M-13.95 -113.0 L-11.6 -115.9 Q-12.0 -116.75 -11.9 -117.6 L-11.9 -118.0 -20.85 -121.55 -23.95 -121.55 Q-22.95 -120.5 -22.95 -119.2 -25.3 -113.7 -25.3 -113.0 L-23.3 -109.45 -22.45 -108.75 Q-17.9 -108.75 -13.95 -113.0 M-5.0 -117.6 Q-4.9 -116.75 -5.3 -115.9 L-2.95 -113.0 Q1.0 -108.75 5.55 -108.75 L6.4 -109.45 8.4 -113.0 Q8.4 -113.7 6.05 -119.2 6.05 -120.5 7.05 -121.55 L3.95 -121.55 -5.0 -118.0 -5.0 -117.6 M-8.6 -119.15 L-8.9 -119.1 -9.1 -119.0 -9.1 -119.05 -9.35 -118.6 -9.4 -117.65 -9.35 -117.2 -9.1 -116.95 -9.1 -117.3 Q-8.85 -117.0 -8.45 -116.9 L-7.8 -117.3 -7.8 -116.95 -7.55 -117.2 -7.5 -117.65 -7.55 -118.6 -7.8 -119.05 -7.8 -119.0 -8.0 -119.1 -8.25 -119.15 -8.45 -119.15 -8.6 -119.15 M1.75 -103.6 Q1.15 -104.95 1.15 -105.6 L2.65 -106.35 Q0.35 -106.75 -1.6 -108.0 0.75 -104.45 1.75 -103.6 M-18.05 -105.6 Q-18.05 -104.95 -18.65 -103.6 -17.65 -104.45 -15.25 -108.0 -17.25 -106.75 -19.55 -106.35 L-18.05 -105.6" fill="#000000" fill-rule="evenodd" stroke="none"/>
      <path d="M-13.95 -113.0 Q-17.9 -108.75 -22.45 -108.75 L-23.3 -109.45 -25.3 -113.0 Q-25.3 -113.7 -22.95 -119.2 -22.95 -120.5 -23.95 -121.55 L-20.85 -121.55 -11.9 -118.0 -11.9 -117.6 Q-12.0 -116.75 -11.6 -115.9 L-13.95 -113.0 M-5.0 -117.6 L-5.0 -118.0 3.95 -121.55 7.05 -121.55 Q6.05 -120.5 6.05 -119.2 8.4 -113.7 8.4 -113.0 L6.4 -109.45 5.55 -108.75 Q1.0 -108.75 -2.95 -113.0 L-5.3 -115.9 Q-4.9 -116.75 -5.0 -117.6 M-8.6 -119.15 L-8.45 -119.15 -8.25 -119.15 -8.0 -119.1 -7.8 -119.0 -7.8 -119.05 -7.55 -118.6 -7.5 -117.65 -7.55 -117.2 -7.8 -116.95 -7.8 -117.3 -8.45 -116.9 Q-8.85 -117.0 -9.1 -117.3 L-9.1 -116.95 -9.35 -117.2 -9.4 -117.65 -9.35 -118.6 -9.1 -119.05 -9.1 -119.0 -8.9 -119.1 -8.6 -119.15 M1.75 -103.6 Q0.75 -104.45 -1.6 -108.0 0.35 -106.75 2.65 -106.35 L1.15 -105.6 Q1.15 -104.95 1.75 -103.6 M-18.05 -105.6 L-19.55 -106.35 Q-17.25 -106.75 -15.25 -108.0 -17.65 -104.45 -18.65 -103.6 -18.05 -104.95 -18.05 -105.6" fill="#f90000" fill-rule="evenodd" stroke="none"/>
      <path d="M5.55 -46.45 L5.25 -45.7 Q4.95 -45.4 4.5 -45.4 4.1 -45.4 3.8 -45.7 3.5 -46.05 3.5 -46.45 3.5 -46.9 3.8 -47.2 4.1 -47.5 4.5 -47.5 L5.25 -47.2 5.55 -46.45" fill="#765301" fill-rule="evenodd" stroke="none"/>
      <path d="M5.95 -47.9 Q6.55 -47.3 6.55 -46.45 6.55 -45.6 5.95 -44.95 5.35 -44.35 4.5 -44.35 3.65 -44.35 3.05 -44.95 2.45 -45.6 2.45 -46.45 2.45 -47.3 3.05 -47.9 3.65 -48.55 4.5 -48.55 5.35 -48.55 5.95 -47.9 M5.55 -46.45 L5.25 -47.2 4.5 -47.5 Q4.1 -47.5 3.8 -47.2 3.5 -46.9 3.5 -46.45 3.5 -46.05 3.8 -45.7 4.1 -45.4 4.5 -45.4 4.95 -45.4 5.25 -45.7 L5.55 -46.45" fill="#000000" fill-rule="evenodd" stroke="none"/>
      <path d="M17.25 -39.35 L16.95 -38.6 Q16.65 -38.3 16.2 -38.3 15.8 -38.3 15.5 -38.6 15.2 -38.95 15.2 -39.35 15.2 -39.8 15.5 -40.1 L16.2 -40.4 16.95 -40.1 17.25 -39.35" fill="#765301" fill-rule="evenodd" stroke="none"/>
      <path d="M17.25 -39.35 L16.95 -40.1 16.2 -40.4 15.5 -40.1 Q15.2 -39.8 15.2 -39.35 15.2 -38.95 15.5 -38.6 15.8 -38.3 16.2 -38.3 16.65 -38.3 16.95 -38.6 L17.25 -39.35 M17.65 -40.8 Q18.25 -40.2 18.25 -39.35 18.25 -38.5 17.65 -37.85 17.05 -37.25 16.2 -37.25 15.35 -37.25 14.75 -37.85 14.15 -38.5 14.15 -39.35 14.15 -40.2 14.75 -40.8 15.35 -41.45 16.2 -41.45 17.05 -41.45 17.65 -40.8" fill="#000000" fill-rule="evenodd" stroke="none"/>
      <path d="M25.85 -32.6 L26.15 -31.85 25.85 -31.1 Q25.55 -30.8 25.1 -30.8 24.7 -30.8 24.4 -31.1 24.1 -31.45 24.1 -31.85 24.1 -32.3 24.4 -32.6 24.7 -32.9 25.1 -32.9 L25.85 -32.6" fill="#765301" fill-rule="evenodd" stroke="none"/>
      <path d="M26.55 -33.3 Q27.15 -32.7 27.15 -31.85 27.15 -31.0 26.55 -30.35 25.95 -29.75 25.1 -29.75 24.25 -29.75 23.65 -30.35 23.05 -31.0 23.05 -31.85 23.05 -32.7 23.65 -33.3 24.25 -33.95 25.1 -33.95 25.95 -33.95 26.55 -33.3 M25.85 -32.6 L25.1 -32.9 Q24.7 -32.9 24.4 -32.6 24.1 -32.3 24.1 -31.85 24.1 -31.45 24.4 -31.1 24.7 -30.8 25.1 -30.8 25.55 -30.8 25.85 -31.1 L26.15 -31.85 25.85 -32.6" fill="#000000" fill-rule="evenodd" stroke="none"/>
    </g>
  </defs>
</svg>
