<?xml version="1.0" encoding="UTF-8" standalone="no"?>
<svg xmlns:xlink="http://www.w3.org/1999/xlink" height="342.0px" width="237.9px" xmlns="http://www.w3.org/2000/svg">
  <g transform="matrix(1, 0, 0, 1, 118.05, 273.9)">
    <use height="151.95" transform="matrix(1.0, 0.0, 0.0, 1.0, -58.65, -140.2)" width="110.25" xlink:href="#shape0"/>
  </g>
  <defs>
    <g id="shape0" transform="matrix(1, 0, 0, 1, 58.65, 140.2)">
      <path d="M23.9 -131.95 L19.2 -130.7 Q19.8 -128.5 25.75 -121.55 31.7 -114.6 40.85 -101.25 40.65 -100.8 40.85 -98.4 40.85 -95.8 39.55 -93.8 38.05 -91.65 35.7 -91.65 34.35 -91.65 28.85 -94.25 L25.3 -89.1 Q24.45 -87.75 23.35 -87.25 26.7 -76.4 28.6 -71.25 L49.95 -12.9 51.6 -8.3 Q51.6 -2.8 50.7 -0.45 49.2 3.6 44.15 6.0 32.15 11.75 -9.15 11.75 -43.85 11.75 -50.65 10.55 -52.7 10.25 -56.6 5.65 -58.65 3.3 -52.05 -33.15 L-41.8 -89.0 -41.65 -89.75 Q-46.7 -89.9 -47.55 -93.45 -48.05 -95.4 -47.5 -98.4 L-49.05 -97.85 -52.1 -97.35 Q-58.0 -97.35 -58.65 -104.85 -50.05 -118.65 -32.05 -136.65 L-32.05 -138.6 Q-19.9 -134.55 -2.0 -134.55 8.75 -134.55 24.3 -139.1 L27.95 -140.2 27.95 -133.05 23.9 -131.95 M3.6 -103.6 L3.65 -103.55 3.85 -103.05 8.65 -93.05 9.0 -92.45 9.15 -92.25 9.15 -92.2 9.15 -92.35 9.2 -92.35 9.2 -92.45 9.6 -93.75 9.85 -94.25 10.15 -94.75 10.25 -94.9 11.35 -96.6 11.8 -97.25 11.85 -97.3 11.95 -97.4 12.0 -97.5 12.05 -97.6 12.95 -98.45 13.85 -99.0 14.7 -99.15 Q16.0 -99.2 17.5 -97.95 L17.95 -97.55 21.6 -94.05 21.7 -94.1 21.75 -94.15 23.15 -95.3 23.8 -95.95 24.4 -96.6 24.85 -97.05 24.85 -97.1 24.95 -97.2 Q26.45 -98.85 28.8 -99.15 L30.0 -99.25 30.25 -99.25 30.75 -99.2 30.95 -99.2 31.05 -99.2 31.5 -99.1 33.8 -97.95 33.9 -97.85 34.3 -97.4 34.3 -97.35 34.45 -97.3 35.25 -97.35 35.35 -97.35 35.6 -97.45 35.8 -97.55 35.95 -97.7 36.0 -97.7 36.25 -98.1 36.3 -98.2 36.35 -98.35 36.6 -99.85 35.25 -101.4 Q29.45 -108.1 13.15 -128.2 11.2 -125.9 6.5 -121.85 0.75 -116.85 -1.35 -115.55 1.45 -108.6 3.6 -103.6 M6.7 -128.5 Q-5.65 -126.8 -12.75 -126.8 L-15.5 -126.9 Q-5.15 -119.8 -3.75 -119.85 -2.35 -119.9 1.6 -123.65 L6.7 -128.5 M32.5 -43.05 L30.4 -48.95 29.05 -52.8 28.35 -54.7 27.9 -56.0 16.85 -88.2 16.6 -89.0 15.85 -91.2 14.45 -93.1 13.5 -92.2 Q12.2 -86.65 8.75 -87.95 5.3 -89.25 1.65 -98.45 L-1.45 -106.0 -2.1 -107.45 -2.4 -108.15 -3.6 -110.55 -3.7 -110.7 -3.75 -110.8 Q-5.5 -107.5 -8.6 -102.35 -11.1 -98.2 -18.15 -87.55 -18.25 -87.5 -18.45 -87.4 -19.1 -87.05 -20.65 -86.4 -22.65 -85.55 -25.3 -85.8 -28.0 -86.05 -30.65 -89.5 L-30.85 -89.75 -32.45 -92.2 -32.6 -92.5 -32.7 -92.05 -33.2 -89.0 -33.55 -86.6 -39.0 -62.5 -39.0 -62.4 -39.95 -56.45 -41.55 -45.8 -41.6 -45.8 -41.85 -43.95 -42.8 -37.8 -42.8 -37.75 -42.85 -36.9 -43.0 -35.75 -43.45 -32.65 -43.5 -32.5 -43.55 -32.1 -43.65 -31.45 -43.7 -31.5 -43.75 -31.2 -43.75 -31.25 -43.9 -30.15 -44.9 -23.2 -45.25 -20.95 -45.6 -18.3 -46.9 -9.15 -47.2 -7.15 -47.95 -2.7 -49.1 2.3 -48.15 2.25 Q-36.05 4.0 20.3 4.0 30.75 2.15 35.6 -0.5 42.9 -4.45 43.95 -7.65 L44.0 -7.85 44.0 -7.9 44.1 -8.75 44.1 -8.9 44.05 -9.55 43.95 -10.0 43.95 -10.05 43.9 -10.4 43.8 -10.7 42.7 -14.7 38.65 -26.05 38.25 -27.05 38.25 -27.1 38.1 -27.5 36.85 -31.0 36.7 -31.35 36.65 -31.5 35.25 -35.4 35.0 -36.1 34.75 -36.8 34.6 -37.25 33.85 -39.35 33.75 -39.55 32.5 -43.05 M-53.15 -104.55 L-53.1 -103.7 -53.1 -103.65 -53.05 -103.2 -53.05 -103.15 -52.9 -103.1 -50.65 -103.35 -47.0 -103.9 Q-43.45 -103.9 -42.3 -102.25 -41.85 -101.6 -41.75 -100.7 L-41.9 -99.8 Q-43.1 -96.5 -41.05 -94.95 -39.2 -93.55 -37.15 -95.45 L-36.85 -95.75 -36.75 -95.85 Q-34.55 -98.3 -32.9 -99.25 L-32.85 -99.25 -31.5 -99.05 Q-29.3 -98.5 -27.7 -95.95 -25.9 -92.3 -25.25 -91.65 -21.3 -88.25 -6.2 -116.0 -13.0 -118.6 -26.35 -128.7 L-27.95 -129.05 -31.85 -130.05 -33.05 -128.6 -34.6 -126.7 -53.15 -105.05 -53.15 -104.55" fill="#000000" fill-rule="evenodd" stroke="none"/>
      <path d="M3.6 -103.6 Q1.8 -109.2 0.3 -114.95 0.3 -117.3 1.8 -117.3 2.0 -117.3 10.25 -94.9 L10.15 -94.75 9.85 -94.25 9.6 -93.75 9.2 -92.45 9.2 -92.35 9.15 -92.35 9.15 -92.2 9.15 -92.25 9.0 -92.45 8.65 -93.05 3.85 -103.05 3.65 -103.55 3.6 -103.6 M13.85 -99.0 L13.8 -99.05 Q13.8 -100.8 15.6 -100.8 17.4 -100.8 23.8 -95.95 L23.15 -95.3 21.75 -94.15 21.7 -94.1 21.6 -94.05 17.95 -97.55 17.5 -97.95 Q16.0 -99.2 14.7 -99.15 L13.85 -99.0 M28.8 -99.15 L32.85 -100.65 35.25 -101.4 36.6 -99.85 36.35 -98.35 36.3 -98.2 36.25 -98.1 36.0 -97.7 35.95 -97.7 35.8 -97.55 34.3 -97.4 33.9 -97.85 33.8 -97.95 31.5 -99.1 31.05 -99.2 30.95 -99.2 30.75 -99.2 30.25 -99.25 30.0 -99.25 28.8 -99.15 M-2.1 -107.45 Q-2.9 -103.55 -7.45 -97.0 -13.25 -88.7 -18.15 -87.3 L-18.45 -87.4 Q-18.25 -87.5 -18.15 -87.55 -11.1 -98.2 -8.6 -102.35 -5.5 -107.5 -3.75 -110.8 L-3.7 -110.7 -3.6 -110.55 -2.4 -108.15 -2.1 -107.45 M-30.85 -89.75 Q-31.25 -84.55 -34.5 -64.1 L-37.85 -42.4 -42.85 -36.9 -42.8 -37.75 -42.8 -37.8 -41.85 -43.95 -41.6 -45.8 -41.55 -45.8 -39.95 -56.45 -39.0 -62.4 -39.0 -62.5 -33.55 -86.6 -33.2 -89.0 -32.7 -92.05 -32.6 -91.8 -32.45 -92.2 -30.85 -89.75 M33.85 -39.35 L34.6 -37.25 34.75 -36.8 Q31.65 -31.5 30.6 -30.8 30.25 -30.9 30.0 -31.1 L33.85 -39.35 M36.7 -31.35 L36.85 -31.0 38.1 -27.5 38.25 -27.1 38.25 -27.05 36.2 -24.6 34.15 -22.35 32.65 -20.85 31.8 -20.25 31.1 -20.6 34.65 -27.55 36.2 -30.55 36.7 -31.35 M43.95 -7.65 Q42.9 -4.45 35.6 -0.5 30.75 2.15 20.3 4.0 -36.05 4.0 -48.15 2.25 L-49.1 2.3 -47.95 -2.7 Q-46.65 -4.15 -43.7 -4.15 L-43.15 -3.95 -42.85 -2.2 Q-41.55 2.9 -31.8 2.9 -29.55 2.9 -22.1 1.3 L-12.9 -0.3 Q-10.75 -0.3 -3.2 1.3 4.4 2.9 7.55 2.9 L14.65 2.25 Q16.5 1.2 19.95 0.35 L23.3 -0.3 27.9 -2.3 33.2 -4.1 Q35.05 -3.2 36.2 -3.2 39.65 -3.2 43.75 -7.5 L43.95 -7.65 M-46.9 -9.15 L-45.6 -18.3 -33.25 -30.7 -30.4 -27.75 Q-31.8 -25.85 -35.75 -22.2 L-40.25 -18.1 -40.7 -11.55 Q-31.6 -5.9 -26.65 -5.3 L-27.0 -5.15 -27.55 -4.9 -31.5 -3.65 -31.85 -3.65 -31.9 -3.65 Q-33.95 -3.65 -37.6 -6.65 -40.65 -9.2 -42.5 -9.6 L-43.2 -9.7 -43.5 -9.7 -46.9 -9.15 M-44.9 -23.2 L-43.9 -30.15 -43.75 -31.25 -34.1 -41.4 -33.05 -41.25 -31.75 -40.05 Q-32.65 -38.2 -35.8 -33.65 L-44.8 -23.8 -44.9 -23.2 M18.55 -39.25 L16.6 -36.75 16.55 -36.8 16.15 -36.25 16.1 -36.15 14.45 -34.3 Q10.05 -29.35 8.85 -28.5 7.85 -28.85 7.55 -29.6 L14.95 -40.85 15.6 -41.35 16.3 -41.1 18.55 -39.25 M-4.4 -39.2 Q-5.3 -38.4 -7.35 -36.85 L-10.0 -34.5 Q-12.6 -32.35 -14.55 -31.15 L-14.8 -31.0 -18.75 -28.5 Q-19.8 -28.85 -20.1 -29.55 L-20.1 -29.6 -19.95 -29.45 -7.75 -40.6 -7.7 -40.6 -7.2 -41.1 -6.3 -40.9 -4.4 -39.2 M-0.6 -30.6 L-0.5 -30.6 -0.35 -30.35 -0.65 -30.6 -0.6 -30.6 M8.2 -19.35 L15.8 -30.75 15.95 -30.95 17.05 -30.9 19.1 -29.35 Q18.1 -27.7 15.15 -24.3 10.65 -19.1 9.65 -19.1 L9.15 -19.2 8.85 -19.05 8.2 -19.35 M-1.9 -27.45 Q-4.05 -25.7 -8.95 -22.5 -17.55 -16.8 -19.05 -16.8 -19.85 -16.8 -20.7 -17.45 L-20.75 -17.7 -20.7 -17.65 -6.45 -30.9 -5.55 -30.7 -1.9 -27.45 M-13.7 -10.55 Q-13.3 -11.4 -11.15 -11.4 -4.1 -11.4 1.35 -8.75 L6.95 -8.4 Q9.3 -8.55 10.85 -7.4 L9.2 -6.0 Q7.2 -4.6 4.5 -4.6 2.05 -4.6 -5.45 -7.6 -11.6 -10.1 -13.7 -10.55 M21.5 -13.5 L21.65 -14.1 22.95 -14.4 Q29.3 -14.4 39.6 -11.5 L37.05 -9.15 33.35 -9.95 33.15 -10.05 31.6 -10.85 31.35 -10.95 31.2 -11.05 31.1 -11.1 Q26.5 -13.5 21.6 -13.5 L21.5 -13.5 M-52.9 -103.1 L-52.35 -104.2 -53.15 -104.55 -53.15 -105.05 -34.6 -126.7 -33.05 -128.6 -31.85 -130.05 -27.95 -129.05 Q-29.55 -124.85 -38.8 -113.3 L-44.6 -106.1 -45.0 -104.9 Q-44.35 -106.05 -43.2 -106.75 L-39.85 -101.45 Q-37.05 -97.2 -37.05 -96.05 L-37.15 -95.45 Q-39.2 -93.55 -41.05 -94.95 -43.1 -96.5 -41.9 -99.8 L-41.75 -100.7 Q-41.85 -101.6 -42.3 -102.25 -43.45 -103.9 -47.0 -103.9 L-50.65 -103.35 -52.9 -103.1" fill="#d9ddff" fill-rule="evenodd" stroke="none"/>
      <path d="M10.25 -94.9 Q2.0 -117.3 1.8 -117.3 0.3 -117.3 0.3 -114.95 1.8 -109.2 3.6 -103.6 1.45 -108.6 -1.35 -115.55 0.75 -116.85 6.5 -121.85 11.2 -125.9 13.15 -128.2 29.45 -108.1 35.25 -101.4 L32.85 -100.65 28.8 -99.15 Q26.45 -98.85 24.95 -97.2 L24.85 -97.1 24.85 -97.05 24.4 -96.6 23.8 -95.95 Q17.4 -100.8 15.6 -100.8 13.8 -100.8 13.8 -99.05 L13.85 -99.0 12.95 -98.45 12.05 -97.6 12.0 -97.5 11.95 -97.4 11.85 -97.3 11.8 -97.25 11.35 -96.6 10.25 -94.9 M34.3 -97.4 L35.8 -97.55 35.6 -97.45 35.35 -97.35 35.25 -97.35 34.45 -97.3 34.3 -97.35 34.3 -97.4 M6.7 -128.5 L1.6 -123.65 Q-2.35 -119.9 -3.75 -119.85 -5.15 -119.8 -15.5 -126.9 L-12.75 -126.8 Q-5.65 -126.8 6.7 -128.5 M-2.1 -107.45 L-1.45 -106.0 1.65 -98.45 Q5.3 -89.25 8.75 -87.95 12.2 -86.65 13.5 -92.2 L14.45 -93.1 15.85 -91.2 16.6 -89.0 16.85 -88.2 27.9 -56.0 28.35 -54.7 29.05 -52.8 30.4 -48.95 32.5 -43.05 28.85 -36.05 14.7 -47.0 6.9 -34.15 -7.25 -46.25 -19.95 -34.05 -34.05 -46.55 -37.85 -42.4 -34.5 -64.1 Q-31.25 -84.55 -30.85 -89.75 L-30.65 -89.5 Q-28.0 -86.05 -25.3 -85.8 -22.65 -85.55 -20.65 -86.4 -19.1 -87.05 -18.45 -87.4 L-18.15 -87.3 Q-13.25 -88.7 -7.45 -97.0 -2.9 -103.55 -2.1 -107.45 M34.75 -36.8 L35.0 -36.1 35.25 -35.4 30.25 -25.45 16.6 -36.75 18.55 -39.25 29.65 -30.35 30.0 -31.1 Q30.25 -30.9 30.6 -30.8 31.65 -31.5 34.75 -36.8 M36.65 -31.5 L36.7 -31.35 36.2 -30.55 36.65 -31.5 M38.25 -27.05 L38.65 -26.05 42.7 -14.7 40.05 -12.0 39.6 -11.5 Q29.3 -14.4 22.95 -14.4 L21.65 -14.1 21.5 -13.5 Q16.25 -13.45 12.35 -9.05 L10.85 -7.4 Q9.3 -8.55 6.95 -8.4 L1.35 -8.75 Q-4.1 -11.4 -11.15 -11.4 -13.3 -11.4 -13.7 -10.55 L-14.45 -10.65 Q-15.9 -10.65 -22.8 -7.15 L-22.9 -7.1 -23.7 -6.7 -24.45 -6.3 -26.65 -5.3 Q-31.6 -5.9 -40.7 -11.55 L-40.25 -18.1 -35.75 -22.2 Q-31.8 -25.85 -30.4 -27.75 L-20.75 -17.7 -20.7 -17.45 Q-19.85 -16.8 -19.05 -16.8 -17.55 -16.8 -8.95 -22.5 -4.05 -25.7 -1.9 -27.45 L7.8 -18.75 8.2 -19.35 8.85 -19.05 9.15 -19.2 9.65 -19.1 Q10.65 -19.1 15.15 -24.3 18.1 -27.7 19.1 -29.35 L31.0 -20.45 31.1 -20.6 31.8 -20.25 32.65 -20.85 34.15 -22.35 36.2 -24.6 38.25 -27.05 M-32.7 -92.05 L-32.6 -92.5 -32.45 -92.2 -32.6 -91.8 -32.7 -92.05 M7.55 -29.6 Q7.85 -28.85 8.85 -28.5 10.05 -29.35 14.45 -34.3 L16.1 -36.15 7.5 -24.0 6.35 -24.15 -0.35 -30.35 -0.5 -30.6 -0.6 -30.6 -6.5 -36.05 -20.15 -22.0 -33.4 -36.3 -35.8 -33.65 Q-32.65 -38.2 -31.75 -40.05 L-20.1 -29.55 Q-19.8 -28.85 -18.75 -28.5 L-14.8 -31.0 -14.55 -31.15 Q-12.6 -32.35 -10.0 -34.5 L-7.35 -36.85 Q-5.3 -38.4 -4.4 -39.2 L7.1 -28.9 7.55 -29.6 M-43.15 -3.95 L-42.35 -3.3 -40.4 -1.35 Q-37.1 1.4 -31.9 1.4 -28.3 1.4 -22.5 -1.95 -16.75 -5.3 -14.45 -5.3 -11.55 -5.3 -6.1 -2.4 -0.6 0.45 4.15 0.45 11.1 0.45 15.05 -3.95 L17.8 -7.0 Q19.45 -8.4 21.6 -8.4 26.4 -8.4 30.35 -5.8 31.9 -4.75 33.2 -4.1 L27.9 -2.3 23.3 -0.3 19.95 0.35 Q16.5 1.2 14.65 2.25 L7.55 2.9 Q4.4 2.9 -3.2 1.3 -10.75 -0.3 -12.9 -0.3 L-22.1 1.3 Q-29.55 2.9 -31.8 2.9 -41.55 2.9 -42.85 -2.2 L-43.15 -3.95 M33.35 -9.95 L37.05 -9.15 Q36.4 -8.75 35.95 -8.75 L35.85 -8.75 35.7 -8.8 34.75 -9.25 34.5 -9.4 33.8 -9.7 Q33.6 -9.85 33.35 -9.95 M-52.9 -103.1 L-53.05 -103.15 -53.05 -103.2 -53.1 -103.65 -53.1 -103.7 -53.15 -104.55 -52.35 -104.2 -52.9 -103.1 M-27.95 -129.05 L-26.35 -128.7 Q-13.0 -118.6 -6.2 -116.0 -21.3 -88.25 -25.25 -91.65 -25.9 -92.3 -27.7 -95.95 -29.3 -98.5 -31.5 -99.05 L-32.85 -99.25 -32.9 -99.25 Q-34.55 -98.3 -36.75 -95.85 L-36.85 -95.75 -37.15 -95.45 -37.05 -96.05 Q-37.05 -97.2 -39.85 -101.45 L-43.2 -106.75 Q-44.35 -106.05 -45.0 -104.9 L-44.6 -106.1 -38.8 -113.3 Q-29.55 -124.85 -27.95 -129.05" fill="#ffffff" fill-rule="evenodd" stroke="none"/>
      <path d="M-37.85 -42.4 L-34.05 -46.55 -19.95 -34.05 -7.25 -46.25 6.9 -34.15 14.7 -47.0 28.85 -36.05 32.5 -43.05 33.75 -39.55 33.85 -39.35 30.0 -31.1 29.65 -30.35 18.55 -39.25 16.3 -41.1 15.6 -41.35 14.95 -40.85 7.55 -29.6 7.1 -28.9 -4.4 -39.2 -6.3 -40.9 -7.2 -41.1 -7.7 -40.6 -7.75 -40.6 -19.95 -29.45 -20.1 -29.6 -20.1 -29.55 -31.75 -40.05 -33.05 -41.25 -34.1 -41.4 -43.75 -31.25 -43.75 -31.2 -43.7 -31.5 -43.65 -31.45 -43.55 -32.1 -43.5 -32.5 -43.45 -32.65 -43.0 -35.75 -42.85 -36.9 -37.85 -42.4 M35.25 -35.4 L36.65 -31.5 36.2 -30.55 34.65 -27.55 31.1 -20.6 31.0 -20.45 19.1 -29.35 17.05 -30.9 15.95 -30.95 15.8 -30.75 8.2 -19.35 7.8 -18.75 -1.9 -27.45 -5.55 -30.7 -6.45 -30.9 -20.7 -17.65 -20.75 -17.7 -30.4 -27.75 -33.25 -30.7 -45.6 -18.3 -45.25 -20.95 -44.9 -23.2 -44.8 -23.8 -35.8 -33.65 -33.4 -36.3 -20.15 -22.0 -6.5 -36.05 -0.6 -30.6 -0.65 -30.6 -0.35 -30.35 6.35 -24.15 7.5 -24.0 16.1 -36.15 16.15 -36.25 16.55 -36.8 16.6 -36.75 30.25 -25.45 35.25 -35.4 M42.7 -14.7 L43.8 -10.7 43.9 -10.4 43.95 -10.05 43.95 -10.0 44.05 -9.55 44.1 -8.9 44.1 -8.75 44.0 -7.9 44.0 -7.85 43.95 -7.65 43.75 -7.5 Q39.65 -3.2 36.2 -3.2 35.05 -3.2 33.2 -4.1 31.9 -4.75 30.35 -5.8 26.4 -8.4 21.6 -8.4 19.45 -8.4 17.8 -7.0 L15.05 -3.95 Q11.1 0.45 4.15 0.45 -0.6 0.45 -6.1 -2.4 -11.55 -5.3 -14.45 -5.3 -16.75 -5.3 -22.5 -1.95 -28.3 1.4 -31.9 1.4 -37.1 1.4 -40.4 -1.35 L-42.35 -3.3 -43.15 -3.95 -43.7 -4.15 Q-46.65 -4.15 -47.95 -2.7 L-47.2 -7.15 -46.9 -9.15 -43.5 -9.7 -43.2 -9.7 -42.5 -9.6 Q-40.65 -9.2 -37.6 -6.65 -33.95 -3.65 -31.9 -3.65 L-31.85 -3.65 -31.5 -3.65 -27.55 -4.9 -27.0 -5.15 -26.65 -5.3 -24.45 -6.3 -23.7 -6.7 -23.35 -6.85 -22.8 -7.15 Q-15.9 -10.65 -14.45 -10.65 L-13.7 -10.55 Q-11.6 -10.1 -5.45 -7.6 2.05 -4.6 4.5 -4.6 7.2 -4.6 9.2 -6.0 L10.85 -7.4 12.35 -9.05 Q16.25 -13.45 21.5 -13.5 L21.6 -13.5 Q26.5 -13.5 31.1 -11.1 L31.2 -11.05 31.35 -10.95 31.6 -10.85 33.15 -10.05 33.35 -9.95 Q33.6 -9.85 33.8 -9.7 L34.5 -9.4 34.75 -9.25 35.7 -8.8 35.85 -8.75 35.95 -8.75 Q36.4 -8.75 37.05 -9.15 L39.6 -11.5 40.05 -12.0 42.7 -14.7" fill="#000001" fill-rule="evenodd" stroke="none"/>
    </g>
  </defs>
</svg>
