<?xml version="1.0" encoding="UTF-8" standalone="no"?>
<svg xmlns:xlink="http://www.w3.org/1999/xlink" height="342.0px" width="237.9px" xmlns="http://www.w3.org/2000/svg">
  <g transform="matrix(1, 0, 0, 1, 118.05, 273.9)">
    <use height="151.95" transform="matrix(1.0, 0.0, 0.0, 1.0, -62.7, -140.2)" width="117.65" xlink:href="#shape0"/>
  </g>
  <defs>
    <g id="shape0" transform="matrix(1, 0, 0, 1, 62.7, 140.2)">
      <path d="M27.95 -140.2 L27.95 -133.05 23.9 -131.95 Q17.25 -130.2 10.85 -129.0 L16.65 -109.8 21.05 -94.8 21.05 -94.9 22.85 -89.0 Q26.55 -76.8 28.6 -71.25 L28.8 -70.7 31.95 -62.15 Q37.1 -54.75 51.4 -31.8 L51.75 -30.8 Q54.45 -30.8 54.95 -25.35 54.8 -19.85 52.05 -19.8 49.3 -19.75 46.95 -21.3 48.1 -19.6 48.35 -17.5 L48.35 -16.65 49.95 -12.9 51.6 -8.3 Q51.6 -2.8 50.7 -0.45 49.2 3.6 44.15 6.0 32.15 11.75 -9.15 11.75 -43.85 11.75 -50.65 10.55 -52.7 10.25 -56.6 5.65 -57.65 4.4 -56.0 -11.7 -56.5 -13.35 -55.9 -15.4 -61.2 -13.45 -62.3 -15.7 -62.85 -16.85 -62.6 -18.2 -62.6 -19.75 -61.55 -24.3 -61.0 -26.9 -60.4 -27.7 L-60.25 -28.25 Q-58.5 -34.1 -53.3 -44.85 L-48.05 -55.15 -41.8 -89.0 -40.2 -97.0 Q-34.85 -123.55 -32.05 -131.9 L-32.05 -138.6 Q-19.9 -134.55 -2.0 -134.55 8.75 -134.55 24.3 -139.1 L27.95 -140.2 M7.4 -118.35 Q5.2 -126.1 5.15 -128.1 L4.85 -128.05 Q4.0 -125.3 0.6 -119.7 L-1.5 -116.4 -0.2 -114.8 2.45 -111.55 4.85 -108.65 Q5.2 -109.35 7.3 -111.75 8.4 -113.4 8.4 -115.0 L7.4 -118.35 M-11.6 -103.85 L-13.8 -101.5 Q-13.95 -99.65 -16.35 -97.65 -18.85 -95.55 -20.85 -95.55 -24.95 -95.55 -24.95 -100.85 L-24.9 -101.15 -27.05 -100.85 Q-30.35 -100.85 -31.0 -102.0 L-31.85 -97.0 -33.2 -89.0 -33.55 -86.6 -39.0 -62.5 -39.05 -62.2 -38.6 -62.05 -35.15 -60.9 Q-28.65 -59.25 -11.85 -59.25 8.8 -59.25 23.85 -67.6 19.4 -80.35 16.6 -89.0 L14.0 -97.0 13.0 -100.15 Q11.8 -98.55 9.9 -98.55 7.5 -98.55 5.3 -100.5 L0.2 -103.9 Q-1.55 -105.25 -3.2 -107.6 L-4.4 -109.4 -5.6 -111.5 -8.05 -108.05 -9.15 -106.75 -11.5 -103.95 -11.6 -103.85 M10.35 -107.0 Q9.05 -104.45 7.75 -103.2 L9.35 -102.0 Q10.6 -102.45 11.2 -103.95 L11.55 -104.65 10.8 -107.1 10.65 -107.55 10.35 -107.0 M25.2 -62.8 Q23.0 -60.8 14.0 -58.05 5.4 -55.4 -2.95 -54.45 0.3 -46.6 11.65 -12.3 17.4 -9.9 26.35 -15.55 35.3 -21.3 39.4 -24.4 43.5 -27.5 45.15 -29.15 46.8 -30.85 46.5 -31.7 42.45 -36.65 40.05 -40.0 L34.9 -47.25 Q28.8 -55.9 26.45 -60.25 25.55 -61.85 25.2 -62.8 M-49.0 2.05 L-49.05 2.2 Q-33.7 4.0 20.3 4.0 47.4 2.15 45.3 -5.45 L42.7 -13.45 39.95 -14.4 Q40.15 -8.55 36.5 -8.25 32.8 -7.95 30.95 -10.6 31.25 -3.9 26.35 -3.2 22.6 -3.35 19.35 -6.15 18.0 -1.4 14.75 -1.4 11.5 -1.4 7.25 -9.65 L7.0 -10.1 Q4.0 -17.1 -0.2 -30.75 L-4.7 -46.2 -7.75 -32.65 Q-11.15 -17.85 -13.2 -10.95 L-13.05 -11.3 -13.45 -9.25 Q-14.3 -4.85 -16.1 -2.25 -17.9 0.3 -20.95 -0.15 -24.0 -0.6 -26.15 -4.9 -28.25 0.3 -31.9 -0.5 -35.55 -1.35 -36.1 -3.1 L-36.9 -5.5 Q-37.7 -4.8 -40.2 -4.4 -44.5 -3.75 -44.65 -10.15 -45.8 -8.65 -47.25 -7.9 -48.55 0.3 -49.0 2.05 L-50.35 2.05 -49.0 2.05 M9.2 -5.55 L9.2 -5.45 9.05 -5.7 9.2 -5.55 M14.4 -4.65 Q15.9 -4.5 16.8 -6.65 14.05 -6.25 12.05 -6.6 13.05 -4.75 14.4 -4.65 M39.7 -16.9 Q40.6 -16.4 41.6 -16.05 L43.75 -15.45 Q45.8 -15.05 45.7 -17.3 45.6 -18.95 45.15 -19.9 L44.35 -21.0 39.4 -17.0 39.7 -16.9 M37.95 -16.1 L32.2 -12.65 33.15 -11.9 Q35.15 -10.3 36.35 -11.45 37.5 -12.65 37.95 -16.1 M28.5 -10.6 L25.3 -9.05 21.3 -7.65 Q22.9 -6.2 25.25 -6.0 27.8 -5.8 28.15 -8.4 L28.5 -10.6 M51.4 -27.2 Q50.5 -25.15 48.1 -23.1 53.4 -22.25 51.7 -26.4 L51.4 -27.2 M-11.25 -126.8 Q-8.1 -121.9 -4.85 -118.2 -3.2 -121.15 -2.15 -123.7 L-0.45 -127.4 -11.25 -126.8 M-27.25 -122.95 L-27.95 -119.1 -24.9 -115.2 Q-18.95 -107.7 -16.15 -107.7 -15.45 -107.7 -12.1 -112.35 L-10.05 -115.35 Q-12.35 -117.7 -15.45 -121.9 L-19.2 -127.1 -26.25 -128.3 -27.25 -122.95 M-29.15 -109.75 L-28.05 -110.25 -29.2 -112.05 -29.65 -109.5 -29.15 -109.75 M-27.15 -108.05 Q-27.75 -107.35 -27.3 -104.4 L-27.45 -103.95 Q-25.7 -104.1 -24.25 -105.0 L-23.75 -105.25 -25.9 -107.5 Q-26.6 -108.8 -27.15 -108.05 M-21.6 -100.7 Q-21.6 -99.65 -21.15 -98.75 -19.2 -98.65 -17.95 -100.9 L-17.55 -101.5 Q-19.2 -102.0 -20.8 -103.0 L-20.85 -102.9 -21.6 -100.7 M-11.75 -54.0 Q-32.7 -54.0 -41.1 -55.95 L-43.0 -52.6 Q-44.9 -49.35 -53.7 -26.35 -50.9 -21.55 -45.5 -18.95 L-43.4 -17.95 Q-30.0 -11.75 -18.1 -11.6 -17.45 -17.0 -13.55 -32.75 -9.85 -47.55 -7.25 -54.1 L-11.75 -54.0 M-45.55 -12.15 Q-49.0 -13.25 -53.8 -16.7 L-53.8 -16.45 -53.45 -12.35 Q-53.0 -9.3 -50.1 -9.7 -48.4 -9.95 -47.15 -10.75 L-47.0 -10.85 -46.8 -10.95 -45.6 -12.1 -45.55 -12.15 M-59.35 -22.65 Q-62.0 -16.8 -57.3 -16.65 -55.4 -17.4 -55.45 -18.15 L-59.35 -22.65 M-42.4 -8.95 Q-42.55 -6.8 -40.1 -6.95 -38.05 -7.15 -36.8 -9.0 L-42.25 -10.7 -42.4 -8.95 M-31.35 -3.3 Q-29.6 -3.3 -28.5 -5.65 L-27.95 -6.65 -28.3 -6.7 -34.45 -8.35 Q-35.15 -7.75 -34.4 -6.05 -33.2 -3.3 -31.35 -3.3 M-21.45 -6.05 L-24.8 -6.2 -23.95 -4.8 Q-22.8 -2.8 -19.95 -2.85 -17.15 -2.9 -16.1 -6.2 L-15.75 -7.25 Q-18.5 -6.3 -21.45 -6.05" fill="#000000" fill-rule="evenodd" stroke="none"/>
      <path d="M2.45 -111.55 L-0.2 -114.8 -1.5 -116.4 0.6 -119.7 Q4.0 -125.3 4.85 -128.05 L5.15 -128.1 Q5.2 -126.1 7.4 -118.35 L5.5 -115.05 Q3.95 -112.8 2.45 -111.55 M0.2 -103.9 L5.3 -100.5 Q7.5 -98.55 9.9 -98.55 11.8 -98.55 13.0 -100.15 L14.0 -97.0 16.6 -89.0 Q19.4 -80.35 23.85 -67.6 8.8 -59.25 -11.85 -59.25 -28.65 -59.25 -35.15 -60.9 L-38.6 -62.05 -39.05 -62.2 -39.0 -62.5 -33.55 -86.6 -33.2 -89.0 -31.85 -97.0 -31.0 -102.0 Q-30.35 -100.85 -27.05 -100.85 L-24.9 -101.15 -24.95 -100.85 Q-24.95 -95.55 -20.85 -95.55 -18.85 -95.55 -16.35 -97.65 -13.95 -99.65 -13.8 -101.5 L-11.6 -103.85 -11.1 -103.4 Q-12.75 -101.05 -14.95 -96.4 -19.2 -87.45 -19.2 -84.75 -19.45 -82.4 -18.25 -80.15 -15.95 -75.6 -8.9 -75.6 -6.5 -75.6 -5.3 -76.35 L-4.7 -86.65 Q-1.3 -76.75 0.8 -76.6 2.85 -76.45 6.3 -80.25 9.75 -84.05 7.95 -87.95 3.1 -98.85 -0.35 -103.4 L0.2 -103.9 M-8.05 -108.05 L-5.6 -111.5 -4.4 -109.4 -3.2 -107.6 Q-4.55 -106.75 -5.8 -106.75 L-8.05 -108.05 M10.8 -107.1 L11.55 -104.65 11.2 -103.95 Q10.6 -102.45 9.35 -102.0 L7.75 -103.2 Q9.05 -104.45 10.35 -107.0 L10.8 -107.1 M1.4 -92.3 Q3.25 -88.35 4.0 -86.95 4.7 -85.55 1.75 -82.3 L-1.0 -90.15 Q-1.85 -92.65 -3.25 -100.15 -0.45 -96.3 1.4 -92.3 M25.2 -62.8 Q25.55 -61.85 26.45 -60.25 28.8 -55.9 34.9 -47.25 L40.05 -40.0 Q42.45 -36.65 46.5 -31.7 46.8 -30.85 45.15 -29.15 43.5 -27.5 39.4 -24.4 35.3 -21.3 26.35 -15.55 17.4 -9.9 11.65 -12.3 0.3 -46.6 -2.95 -54.45 5.4 -55.4 14.0 -58.05 23.0 -60.8 25.2 -62.8 M39.7 -16.9 L39.4 -17.0 44.35 -21.0 45.15 -19.9 Q45.6 -18.95 45.7 -17.3 45.8 -15.05 43.75 -15.45 L41.6 -16.05 Q40.6 -16.4 39.7 -16.9 M14.4 -4.65 Q13.05 -4.75 12.05 -6.6 14.05 -6.25 16.8 -6.65 15.9 -4.5 14.4 -4.65 M37.95 -16.1 Q37.5 -12.65 36.35 -11.45 35.15 -10.3 33.15 -11.9 L32.2 -12.65 37.95 -16.1 M51.4 -27.2 L51.7 -26.4 Q53.4 -22.25 48.1 -23.1 50.5 -25.15 51.4 -27.2 M28.5 -10.6 L28.15 -8.4 Q27.8 -5.8 25.25 -6.0 22.9 -6.2 21.3 -7.65 L25.3 -9.05 28.5 -10.6 M-12.1 -112.35 Q-14.45 -109.25 -14.45 -109.6 -25.6 -119.35 -27.25 -122.95 L-26.25 -128.3 -19.2 -127.1 -15.45 -121.9 Q-12.35 -117.7 -10.05 -115.35 L-12.1 -112.35 M-21.6 -100.7 L-20.85 -102.9 -20.8 -103.0 Q-19.2 -102.0 -17.55 -101.5 L-17.95 -100.9 Q-19.2 -98.65 -21.15 -98.75 -21.6 -99.65 -21.6 -100.7 M-27.15 -108.05 Q-26.6 -108.8 -25.9 -107.5 L-23.75 -105.25 -24.25 -105.0 Q-25.7 -104.1 -27.45 -103.95 L-27.3 -104.4 Q-27.75 -107.35 -27.15 -108.05 M-29.15 -109.75 L-29.65 -109.5 -29.2 -112.05 -28.05 -110.25 -29.15 -109.75 M-12.8 -82.3 Q-14.25 -83.35 -14.25 -84.4 L-8.55 -98.25 Q-7.45 -100.85 -7.85 -98.9 L-10.05 -81.3 Q-11.35 -81.3 -12.8 -82.3 M-11.75 -54.0 L-7.25 -54.1 Q-9.85 -47.55 -13.55 -32.75 -17.45 -17.0 -18.1 -11.6 -30.0 -11.75 -43.4 -17.95 L-45.5 -18.95 Q-50.9 -21.55 -53.7 -26.35 -44.9 -49.35 -43.0 -52.6 L-41.1 -55.95 Q-32.7 -54.0 -11.75 -54.0 M-45.6 -12.1 L-46.8 -10.95 -47.0 -10.85 -47.15 -10.75 Q-48.4 -9.95 -50.1 -9.7 -53.0 -9.3 -53.45 -12.35 L-53.8 -16.45 -53.8 -16.7 Q-49.0 -13.25 -45.55 -12.15 L-45.6 -12.1 M-59.35 -22.65 L-55.45 -18.15 Q-55.4 -17.4 -57.3 -16.65 -62.0 -16.8 -59.35 -22.65 M-31.35 -3.3 Q-33.2 -3.3 -34.4 -6.05 -35.15 -7.75 -34.45 -8.35 L-28.3 -6.7 -27.95 -6.65 -28.5 -5.65 Q-29.6 -3.3 -31.35 -3.3 M-42.4 -8.95 L-42.25 -10.7 -36.8 -9.0 Q-38.05 -7.15 -40.1 -6.95 -42.55 -6.8 -42.4 -8.95 M-21.45 -6.05 Q-18.5 -6.3 -15.75 -7.25 L-16.1 -6.2 Q-17.15 -2.9 -19.95 -2.85 -22.8 -2.8 -23.95 -4.8 L-24.8 -6.2 -21.45 -6.05" fill="#ffeeee" fill-rule="evenodd" stroke="none"/>
      <path d="M2.45 -111.55 Q3.95 -112.8 5.5 -115.05 L7.4 -118.35 8.4 -115.0 Q8.4 -113.4 7.3 -111.75 5.2 -109.35 4.85 -108.65 L2.45 -111.55 M0.2 -103.9 L-0.35 -103.4 Q3.1 -98.85 7.95 -87.95 9.75 -84.05 6.3 -80.25 2.85 -76.45 0.8 -76.6 -1.3 -76.75 -4.7 -86.65 L-5.3 -76.35 Q-6.5 -75.6 -8.9 -75.6 -15.95 -75.6 -18.25 -80.15 -19.45 -82.4 -19.2 -84.75 -19.2 -87.45 -14.95 -96.4 -12.75 -101.05 -11.1 -103.4 L-11.5 -103.95 -9.15 -106.75 -8.05 -108.05 -5.8 -106.75 Q-4.55 -106.75 -3.2 -107.6 -1.55 -105.25 0.2 -103.9 M1.4 -92.3 Q-0.45 -96.3 -3.25 -100.15 -1.85 -92.65 -1.0 -90.15 L1.75 -82.3 Q4.7 -85.55 4.0 -86.95 3.25 -88.35 1.4 -92.3 M-49.0 2.05 Q-48.55 0.3 -47.25 -7.9 -45.8 -8.65 -44.65 -10.15 -44.5 -3.75 -40.2 -4.4 -37.7 -4.8 -36.9 -5.5 L-36.1 -3.1 Q-35.55 -1.35 -31.9 -0.5 -28.25 0.3 -26.15 -4.9 -24.0 -0.6 -20.95 -0.15 -17.9 0.3 -16.1 -2.25 -14.3 -4.85 -13.45 -9.25 L-13.05 -11.3 -13.2 -10.95 Q-11.15 -17.85 -7.75 -32.65 L-4.7 -46.2 -0.2 -30.75 Q4.0 -17.1 7.0 -10.1 L7.25 -9.65 Q11.5 -1.4 14.75 -1.4 18.0 -1.4 19.35 -6.15 22.6 -3.35 26.35 -3.2 31.25 -3.9 30.95 -10.6 32.8 -7.95 36.5 -8.25 40.15 -8.55 39.95 -14.4 L42.7 -13.45 45.3 -5.45 Q47.4 2.15 20.3 4.0 -33.7 4.0 -49.05 2.2 L-49.0 2.05 M9.2 -5.55 L9.05 -5.7 9.2 -5.45 9.2 -5.55 M-12.1 -112.35 Q-15.45 -107.7 -16.15 -107.7 -18.95 -107.7 -24.9 -115.2 L-27.95 -119.1 -27.25 -122.95 Q-25.6 -119.35 -14.45 -109.6 -14.45 -109.25 -12.1 -112.35 M-12.8 -82.3 Q-11.35 -81.3 -10.05 -81.3 L-7.85 -98.9 Q-7.45 -100.85 -8.55 -98.25 L-14.25 -84.4 Q-14.25 -83.35 -12.8 -82.3 M-45.55 -12.15 L-45.6 -12.1 -45.55 -12.15" fill="#ec1a02" fill-rule="evenodd" stroke="none"/>
      <path d="M-11.25 -126.8 L-0.45 -127.4 -2.15 -123.7 Q-3.2 -121.15 -4.85 -118.2 -8.1 -121.9 -11.25 -126.8" fill="#fff1dd" fill-rule="evenodd" stroke="none"/>
    </g>
  </defs>
</svg>
