<?xml version="1.0" encoding="UTF-8" standalone="no"?>
<svg xmlns:xlink="http://www.w3.org/1999/xlink" height="342.0px" width="237.9px" xmlns="http://www.w3.org/2000/svg">
  <g transform="matrix(1, 0, 0, 1, 118.05, 273.9)">
    <use height="150.35" transform="matrix(1.0, 0.0, 0.0, 1.0, -57.1, -138.6)" width="108.7" xlink:href="#shape0"/>
  </g>
  <defs>
    <g id="shape0" transform="matrix(1, 0, 0, 1, 57.1, 138.6)">
      <path d="M11.45 -105.0 Q7.3 -118.2 5.9 -124.1 L5.35 -126.4 5.15 -128.1 Q-4.1 -126.8 -12.75 -126.8 -19.65 -126.8 -26.25 -128.3 L-26.45 -127.3 -26.8 -125.45 -29.55 -110.05 -31.85 -97.0 -33.2 -89.0 -33.55 -86.6 -39.0 -62.5 -39.5 -59.25 -40.85 -50.6 -41.8 -44.4 Q-43.9 -39.2 -42.95 -36.05 -43.9 -39.2 -41.8 -44.4 L-42.8 -37.8 -42.8 -37.75 -42.95 -36.05 -43.65 -31.45 -43.7 -31.5 -43.7 -31.45 -44.35 -26.8 -45.25 -20.95 Q-47.7 -2.25 -49.1 2.3 L-42.95 3.95 Q-37.1 5.5 20.3 4.0 48.25 1.1 45.65 -6.75 L38.65 -26.05 38.25 -27.1 34.7 -36.9 Q36.2 -42.15 29.7 -50.95 36.2 -42.15 34.7 -36.9 L29.7 -50.95 29.15 -52.5 25.8 -62.0 16.6 -89.0 14.0 -97.0 11.45 -105.0 M16.65 -109.8 L21.05 -94.8 21.05 -94.9 22.85 -89.0 Q26.55 -76.8 28.6 -71.25 L49.95 -12.9 51.6 -8.3 Q51.6 -2.8 50.7 -0.45 49.2 3.6 44.15 6.0 32.15 11.75 -9.15 11.75 -43.85 11.75 -50.65 10.55 -52.7 10.25 -56.6 5.65 -58.65 3.3 -52.05 -33.15 L-41.8 -89.0 -40.2 -97.0 Q-34.85 -123.55 -32.05 -131.9 L-32.05 -138.6 Q-19.9 -134.55 -2.0 -134.55 L9.35 -135.55 16.65 -109.8" fill="#000000" fill-rule="evenodd" stroke="none"/>
      <path d="M5.35 -126.4 L5.9 -124.1 Q7.3 -118.2 11.45 -105.0 L10.15 -97.8 8.25 -99.7 4.4 -81.3 -12.1 -80.15 -19.35 -99.4 -14.35 -104.65 -19.35 -99.4 -21.0 -97.7 -29.55 -110.05 -26.8 -125.45 -26.45 -127.3 -5.7 -113.7 5.35 -126.4 M0.4 -107.6 L-5.7 -113.7 0.4 -107.6 1.1 -107.9 0.4 -107.6 Q-4.95 -105.6 -11.25 -107.9 L-5.7 -113.7 -11.25 -107.9 -14.35 -104.65 Q-11.5 -103.8 -8.75 -103.45 L-11.1 -92.75 -5.3 -86.5 -4.8 -103.2 -1.6 -86.85 2.6 -92.45 -1.05 -103.55 Q1.2 -103.9 3.35 -104.6 L3.4 -104.6 3.35 -104.6 2.8 -105.15 2.6 -105.35 0.4 -107.6 M3.4 -104.6 L2.8 -105.15 3.4 -104.6 4.2 -104.9 3.4 -104.6 8.25 -99.7 3.4 -104.6 M25.8 -62.0 L29.15 -52.5 28.5 -52.5 29.7 -50.95 34.7 -36.9 Q33.45 -32.65 26.95 -30.8 29.1 -40.35 28.5 -52.5 0.7 -44.1 -40.3 -50.5 0.7 -44.1 28.5 -52.5 29.1 -40.35 26.95 -30.8 25.15 -23.15 21.6 -17.15 L20.5 -15.4 Q24.25 2.9 5.7 -3.9 -4.2 10.5 -13.7 -5.55 L-13.05 -5.8 Q-5.85 -2.05 2.0 -3.15 L5.7 -3.9 2.0 -3.15 Q-5.85 -2.05 -13.05 -5.8 L-14.1 -6.35 Q-17.7 -8.35 -21.15 -11.6 -23.5 -13.75 -25.75 -16.9 -23.5 -13.75 -21.15 -11.6 -17.7 -8.35 -14.1 -6.35 L-13.7 -5.55 Q-29.35 0.45 -25.75 -16.9 -29.15 -21.55 -32.4 -28.35 L-33.8 -31.35 -32.4 -28.35 Q-29.15 -21.55 -25.75 -16.9 -41.75 -16.5 -34.75 -31.4 -41.7 -31.8 -42.95 -36.05 L-42.8 -37.75 -42.8 -37.8 -41.8 -44.4 -39.8 -48.55 Q-37.65 -40.3 -34.25 -32.4 -37.65 -40.3 -39.8 -48.55 L-40.3 -50.5 -40.85 -50.6 -39.5 -59.25 Q-0.2 -54.25 25.8 -62.0 M20.5 -15.4 L21.6 -17.15 Q25.15 -23.15 26.95 -30.8 37.55 -14.05 20.5 -15.4 14.55 -6.5 5.7 -3.9 14.55 -6.5 20.5 -15.4 M-15.15 -104.9 L-14.35 -104.65 -15.15 -104.9 M-34.25 -32.4 L-34.75 -31.4 -33.8 -31.35 -34.25 -32.4" fill="#ffffff" fill-rule="evenodd" stroke="none"/>
      <path d="M5.35 -126.4 L-5.7 -113.7 -26.45 -127.3 -26.25 -128.3 Q-19.65 -126.8 -12.75 -126.8 -4.1 -126.8 5.15 -128.1 L5.35 -126.4" fill="#fff1dd" fill-rule="evenodd" stroke="none"/>
      <path d="M-11.25 -107.9 Q-4.95 -105.6 0.4 -107.6 L2.6 -105.35 2.8 -105.15 3.35 -104.6 Q1.2 -103.9 -1.05 -103.55 L2.6 -92.45 -1.6 -86.85 -4.8 -103.2 -5.3 -86.5 -11.1 -92.75 -8.75 -103.45 Q-11.5 -103.8 -14.35 -104.65 L-11.25 -107.9 M-4.8 -103.2 L-1.05 -103.55 -4.8 -103.2 -8.75 -103.45 -4.8 -103.2" fill="#404040" fill-rule="evenodd" stroke="none"/>
      <path d="M-19.35 -99.4 L-12.1 -80.15 4.4 -81.3 8.25 -99.7 10.15 -97.8 11.45 -105.0 14.0 -97.0 16.6 -89.0 25.8 -62.0 Q-0.2 -54.25 -39.5 -59.25 L-39.0 -62.5 -33.55 -86.6 -33.2 -89.0 -31.85 -97.0 -29.55 -110.05 -21.0 -97.7 -19.35 -99.4 M34.7 -36.9 L38.25 -27.1 38.65 -26.05 45.65 -6.75 Q48.25 1.1 20.3 4.0 -37.1 5.5 -42.95 3.95 L-49.1 2.3 Q-47.7 -2.25 -45.25 -20.95 L-44.35 -26.8 -43.7 -31.45 -43.65 -31.45 -42.95 -36.05 Q-41.7 -31.8 -34.75 -31.4 -41.75 -16.5 -25.75 -16.9 -29.35 0.45 -13.7 -5.55 -4.2 10.5 5.7 -3.9 24.25 2.9 20.5 -15.4 37.55 -14.05 26.95 -30.8 33.45 -32.65 34.7 -36.9" fill="#18398c" fill-rule="evenodd" stroke="none"/>
      <path d="M5.35 -126.4 L-5.7 -113.7 0.4 -107.6 2.6 -105.35 2.8 -105.15 3.4 -104.6 M-26.45 -127.3 L-5.7 -113.7 -11.25 -107.9 M8.25 -99.7 L3.4 -104.6 M-14.35 -104.65 L-19.35 -99.4 -12.1 -80.15 4.4 -81.3 8.25 -99.7 10.15 -97.8 11.45 -105.0 M-40.3 -50.5 Q0.7 -44.1 28.5 -52.5 L29.15 -52.5 M26.95 -30.8 Q29.1 -40.35 28.5 -52.5 M5.7 -3.9 L2.0 -3.15 Q-5.85 -2.05 -13.05 -5.8 M20.5 -15.4 Q14.55 -6.5 5.7 -3.9 M26.95 -30.8 Q25.15 -23.15 21.6 -17.15 L20.5 -15.4 M-14.35 -104.65 L-11.25 -107.9 M-34.25 -32.4 Q-37.65 -40.3 -39.8 -48.55 M-25.75 -16.9 Q-29.15 -21.55 -32.4 -28.35 L-33.8 -31.35 -34.25 -32.4 M-25.75 -16.9 Q-23.5 -13.75 -21.15 -11.6 -17.7 -8.35 -14.1 -6.35 L-13.05 -5.8 M-40.85 -50.6 L-40.3 -50.5 -39.8 -48.55 M-29.55 -110.05 L-21.0 -97.7 -19.35 -99.4 M25.8 -62.0 Q-0.2 -54.25 -39.5 -59.25" fill="none" stroke="#000000" stroke-linecap="round" stroke-linejoin="round" stroke-width="5.0"/>
      <path d="M0.4 -107.6 L1.1 -107.9 M-11.25 -107.9 Q-4.95 -105.6 0.4 -107.6 M3.4 -104.6 L4.2 -104.9 M3.4 -104.6 L3.35 -104.6 Q1.2 -103.9 -1.05 -103.55 L2.6 -92.45 -1.6 -86.85 -4.8 -103.2 -5.3 -86.5 -11.1 -92.75 -8.75 -103.45 Q-11.5 -103.8 -14.35 -104.65 L-15.15 -104.9 M-1.05 -103.55 L-4.8 -103.2 -8.75 -103.45" fill="none" stroke="#000000" stroke-linecap="round" stroke-linejoin="round" stroke-width="2.0"/>
      <path d="M29.7 -50.95 Q36.2 -42.15 34.7 -36.9 M-42.95 -36.05 Q-43.9 -39.2 -41.8 -44.4 M29.7 -50.95 L28.5 -52.5 M26.95 -30.8 Q33.45 -32.65 34.7 -36.9 M-13.05 -5.8 L-13.7 -5.55 Q-4.2 10.5 5.7 -3.9 24.25 2.9 20.5 -15.4 37.55 -14.05 26.95 -30.8 M-42.95 -36.05 Q-41.7 -31.8 -34.75 -31.4 L-34.25 -32.4 M-39.8 -48.55 L-41.8 -44.4 M-33.8 -31.35 L-34.75 -31.4 Q-41.75 -16.5 -25.75 -16.9 M-13.7 -5.55 L-14.1 -6.35 M-13.7 -5.55 Q-29.35 0.45 -25.75 -16.9" fill="none" stroke="#000000" stroke-linecap="round" stroke-linejoin="round" stroke-width="3.0"/>
    </g>
  </defs>
</svg>
