<?xml version="1.0" encoding="UTF-8" standalone="no"?>
<svg xmlns:xlink="http://www.w3.org/1999/xlink" height="342.0px" width="237.9px" xmlns="http://www.w3.org/2000/svg">
  <g transform="matrix(1, 0, 0, 1, 118.05, 273.9)">
    <use height="151.95" transform="matrix(1.0, 0.0, 0.0, 1.0, -60.75, -140.2)" width="112.35" xlink:href="#shape0"/>
  </g>
  <defs>
    <g id="shape0" transform="matrix(1, 0, 0, 1, 60.75, 140.2)">
      <path d="M27.95 -140.2 L27.95 -133.05 23.9 -131.95 17.05 -130.25 38.2 -107.55 Q38.2 -105.65 35.0 -102.2 31.75 -98.65 26.7 -95.25 24.25 -93.6 21.85 -92.25 26.3 -77.55 28.6 -71.25 31.4 -63.65 36.05 -54.15 L43.55 -39.05 Q51.6 -22.0 51.6 -8.65 51.6 -2.85 50.7 -0.45 49.2 3.6 44.15 6.0 32.15 11.75 -9.15 11.75 -43.85 11.75 -50.65 10.55 -52.85 10.2 -53.45 9.35 -54.15 8.4 -55.25 8.0 -60.75 6.0 -60.75 3.5 -60.75 -0.1 -57.7 -0.65 -57.05 -8.2 -45.75 -68.5 L-40.15 -97.35 -43.7 -100.9 Q-47.4 -105.0 -50.15 -109.7 -52.35 -113.45 -52.35 -114.35 L-32.05 -134.2 -32.05 -138.6 Q-19.9 -134.55 -2.0 -134.55 8.75 -134.55 24.3 -139.1 L27.95 -140.2 M4.85 -129.05 L3.45 -128.75 1.55 -128.4 1.5 -127.05 Q-0.2 -111.0 -0.2 -108.65 1.5 -94.75 1.5 -92.35 L1.5 -91.5 1.75 -91.6 6.25 -93.05 Q19.8 -97.7 29.05 -106.95 L25.65 -110.4 24.05 -111.95 23.9 -112.1 23.25 -112.7 17.2 -118.55 Q10.05 -125.95 8.9 -129.85 L4.85 -129.05 M2.25 -86.65 L-0.9 -86.8 -1.9 -86.65 Q-2.65 -86.65 -3.3 -87.2 L-5.05 -88.2 Q-5.3 -88.45 -5.3 -90.0 L-4.9 -90.05 Q-6.8 -95.25 -7.2 -108.4 -6.95 -116.3 -6.3 -121.6 L-10.3 -107.2 Q-13.05 -97.6 -14.65 -92.7 -13.3 -92.05 -13.3 -92.0 -13.3 -89.55 -16.05 -88.8 -16.6 -87.6 -16.85 -87.6 -18.25 -87.6 -18.75 -87.95 L-19.65 -88.55 Q-26.0 -88.75 -31.75 -91.6 -31.85 -90.95 -32.7 -90.3 -32.35 -90.25 -32.75 -90.25 L-39.0 -62.5 -39.25 -60.8 Q-25.9 -60.8 -13.3 -58.3 6.25 -58.3 18.1 -60.95 22.9 -62.05 25.25 -63.15 19.9 -79.5 16.95 -89.85 9.4 -86.65 2.25 -86.65 M28.6 -51.4 L29.15 -51.35 27.5 -56.35 Q25.45 -55.0 21.55 -53.8 12.1 -50.9 -4.25 -50.9 -28.6 -50.9 -37.6 -52.85 L-40.4 -53.65 -41.2 -48.45 -29.7 -46.5 Q-17.2 -44.4 1.9 -44.4 14.85 -44.4 22.0 -47.9 23.45 -48.6 26.0 -50.3 27.65 -51.4 28.6 -51.4 M33.95 -37.15 L31.35 -44.9 Q29.15 -42.55 23.5 -40.4 14.0 -36.8 2.25 -36.8 -20.5 -36.8 -34.75 -39.7 L-42.2 -41.6 -42.8 -37.8 -42.8 -37.75 -43.65 -31.45 -43.7 -31.5 -44.35 -26.8 -45.25 -20.95 Q-48.15 -4.2 -50.95 1.65 L-50.9 1.65 -48.15 2.25 Q-36.05 4.0 20.3 4.0 30.75 2.15 35.6 -0.5 43.1 -4.55 44.0 -7.85 L44.0 -7.9 44.1 -8.75 Q44.1 -11.85 38.0 -27.7 L34.15 -37.45 33.95 -37.15 M-40.4 -116.15 L-41.55 -115.4 -42.4 -114.9 -44.65 -113.75 Q-35.95 -103.8 -23.7 -97.0 L-20.05 -95.3 Q-16.45 -118.0 -12.9 -126.8 L-15.65 -126.95 -16.05 -127.0 -16.9 -127.1 -17.05 -127.1 -27.55 -129.05 Q-28.95 -126.5 -32.35 -123.0 -36.25 -118.9 -40.4 -116.15" fill="#000000" fill-rule="evenodd" stroke="none"/>
      <path d="M23.25 -112.7 Q19.3 -107.45 17.7 -106.35 14.8 -104.4 11.65 -102.55 L9.05 -101.6 4.5 -99.75 4.5 -100.35 5.15 -106.2 5.75 -116.1 Q6.25 -124.55 4.8 -126.0 L4.9 -127.75 4.85 -129.05 8.9 -129.85 Q10.05 -125.95 17.2 -118.55 L23.25 -112.7 M3.45 -128.75 L3.65 -127.3 3.7 -126.3 Q3.0 -126.1 3.0 -125.05 L3.6 -116.1 Q3.6 -110.05 2.85 -105.75 2.1 -101.45 2.1 -99.15 L2.15 -98.2 2.1 -98.15 Q2.0 -97.8 2.15 -97.55 L2.15 -96.9 3.2 -96.5 3.75 -97.1 Q6.9 -97.25 15.1 -101.1 24.5 -105.6 25.65 -110.4 L29.05 -106.95 Q19.8 -97.7 6.25 -93.05 L1.75 -91.6 1.5 -92.35 Q1.5 -94.75 -0.2 -108.65 -0.2 -111.0 1.5 -127.05 L1.55 -128.4 3.45 -128.75 M17.65 -105.0 L17.3 -104.75 16.95 -104.55 17.65 -105.0 M-42.4 -114.9 L-42.3 -114.75 Q-34.95 -102.45 -24.35 -101.4 L-22.5 -101.0 Q-22.25 -101.0 -21.95 -101.3 L-21.9 -101.3 -21.75 -101.35 Q-20.9 -101.55 -20.9 -102.4 L-21.15 -102.5 Q-20.2 -105.1 -18.3 -113.05 -15.6 -124.35 -15.6 -125.75 L-15.6 -126.7 -15.65 -126.95 -12.9 -126.8 Q-16.45 -118.0 -20.05 -95.3 L-23.7 -97.0 Q-35.95 -103.8 -44.65 -113.75 L-42.4 -114.9 M-17.05 -127.1 L-18.05 -124.1 -18.1 -123.8 Q-19.75 -117.95 -22.95 -103.0 L-24.25 -103.35 Q-28.75 -105.05 -34.2 -109.05 -35.25 -109.8 -38.5 -113.9 L-40.4 -116.15 Q-36.25 -118.9 -32.35 -123.0 -28.95 -126.5 -27.55 -129.05 L-17.05 -127.1" fill="#ffffff" fill-rule="evenodd" stroke="none"/>
      <path d="M4.85 -129.05 L4.9 -127.75 4.8 -126.0 Q6.25 -124.55 5.75 -116.1 L5.15 -106.2 4.5 -100.35 4.5 -99.75 9.05 -101.6 11.65 -102.55 Q14.8 -104.4 17.7 -106.35 19.3 -107.45 23.25 -112.7 L23.9 -112.1 24.05 -111.95 25.65 -110.4 Q24.5 -105.6 15.1 -101.1 6.9 -97.25 3.75 -97.1 L3.2 -96.5 2.15 -96.9 2.15 -97.55 Q2.0 -97.8 2.1 -98.15 L2.15 -98.2 2.1 -99.15 Q2.1 -101.45 2.85 -105.75 3.6 -110.05 3.6 -116.1 L3.0 -125.05 Q3.0 -126.1 3.7 -126.3 L3.65 -127.3 3.45 -128.75 4.85 -129.05 M17.65 -105.0 L16.95 -104.55 17.3 -104.75 17.65 -105.0 M2.25 -86.65 Q9.4 -86.65 16.95 -89.85 19.9 -79.5 25.25 -63.15 22.9 -62.05 18.1 -60.95 6.25 -58.3 -13.3 -58.3 -25.9 -60.8 -39.25 -60.8 L-39.0 -62.5 -32.75 -90.25 Q-32.35 -90.25 -32.7 -90.3 -31.85 -90.95 -31.75 -91.6 -26.0 -88.75 -19.65 -88.55 L-18.75 -87.95 Q-18.25 -87.6 -16.85 -87.6 -16.6 -87.6 -16.05 -88.8 -13.3 -89.55 -13.3 -92.0 -13.3 -92.05 -14.65 -92.7 -13.05 -97.6 -10.3 -107.2 L-6.3 -121.6 Q-6.95 -116.3 -7.2 -108.4 -6.8 -95.25 -4.9 -90.05 L-5.3 -90.0 Q-5.3 -88.45 -5.05 -88.2 L-3.3 -87.2 Q-2.65 -86.65 -1.9 -86.65 L-0.9 -86.8 2.25 -86.65 M-42.4 -114.9 L-41.55 -115.4 -40.4 -116.15 -38.5 -113.9 Q-35.25 -109.8 -34.2 -109.05 -28.75 -105.05 -24.25 -103.35 L-22.95 -103.0 Q-19.75 -117.95 -18.1 -123.8 L-18.05 -124.1 -17.05 -127.1 -16.9 -127.1 -16.05 -127.0 -15.65 -126.95 -15.6 -126.7 -15.6 -125.75 Q-15.6 -124.35 -18.3 -113.05 -20.2 -105.1 -21.15 -102.5 L-20.9 -102.4 Q-20.9 -101.55 -21.75 -101.35 L-21.9 -101.3 -21.95 -101.3 Q-22.25 -101.0 -22.5 -101.0 L-24.35 -101.4 Q-34.95 -102.45 -42.3 -114.75 L-42.4 -114.9 M33.95 -37.15 L34.15 -37.45 38.0 -27.7 Q44.1 -11.85 44.1 -8.75 L44.0 -7.9 44.0 -7.85 Q43.1 -4.55 35.6 -0.5 30.75 2.15 20.3 4.0 -36.05 4.0 -48.15 2.25 L-50.9 1.65 -50.95 1.65 Q-48.15 -4.2 -45.25 -20.95 L-44.35 -26.8 -43.7 -31.5 -43.65 -31.45 -42.8 -37.75 -42.8 -37.8 -42.2 -41.6 -34.75 -39.7 Q-20.5 -36.8 2.25 -36.8 14.0 -36.8 23.5 -40.4 29.15 -42.55 31.35 -44.9 L33.95 -37.15" fill="#88a0ff" fill-rule="evenodd" stroke="none"/>
      <path d="M28.6 -51.4 Q27.65 -51.4 26.0 -50.3 23.45 -48.6 22.0 -47.9 14.85 -44.4 1.9 -44.4 -17.2 -44.4 -29.7 -46.5 L-41.2 -48.45 -40.4 -53.65 -37.6 -52.85 Q-28.6 -50.9 -4.25 -50.9 12.1 -50.9 21.55 -53.8 25.45 -55.0 27.5 -56.35 L29.15 -51.35 28.6 -51.4" fill="#ff4444" fill-rule="evenodd" stroke="none"/>
      <path d="M0.1 -113.9 Q2.15 -109.3 4.0 -100.6 L7.05 -81.7 7.45 -78.1 Q7.7 -75.0 7.05 -72.8 4.9 -66.0 -6.3 -66.0 -15.9 -66.0 -18.4 -73.5 -19.6 -77.0 -19.6 -89.15 L-18.55 -94.3 Q-17.25 -99.8 -15.55 -104.6 -13.95 -109.15 -12.3 -112.3 -16.8 -117.8 -22.45 -129.4 -22.45 -132.15 -21.3 -133.35 -19.65 -135.1 -15.2 -135.1 0.9 -135.1 4.2 -133.85 5.8 -133.25 6.05 -132.0 L6.1 -129.2 Q6.1 -125.95 1.6 -116.85 L0.1 -113.9 M-13.4 -127.15 L-13.45 -127.15 -13.45 -126.9 -10.65 -122.3 Q-9.2 -119.85 -7.4 -118.4 -6.25 -119.1 -5.0 -119.2 L-3.8 -121.9 Q-2.6 -124.9 -2.4 -126.2 L-13.4 -127.15 M-6.85 -107.75 L-6.9 -107.75 -6.9 -107.7 -10.9 -98.65 Q-12.6 -94.1 -12.6 -89.4 -12.6 -73.35 -10.7 -73.35 L-0.15 -73.5 -0.05 -82.75 Q-0.05 -92.15 -0.45 -93.45 -1.15 -95.7 -6.8 -107.75 L-6.85 -107.75" fill="#000000" fill-rule="evenodd" stroke="none"/>
      <path d="M-13.4 -127.15 L-2.4 -126.2 Q-2.6 -124.9 -3.8 -121.9 L-5.0 -119.2 Q-6.25 -119.1 -7.4 -118.4 -9.2 -119.85 -10.65 -122.3 L-13.45 -126.9 -13.4 -127.15 M-6.85 -107.75 L-6.8 -107.75 Q-1.15 -95.7 -0.45 -93.45 -0.05 -92.15 -0.05 -82.75 L-0.15 -73.5 -10.7 -73.35 Q-12.6 -73.35 -12.6 -89.4 -12.6 -94.1 -10.9 -98.65 L-6.9 -107.7 -6.85 -107.75" fill="#ff4444" fill-rule="evenodd" stroke="none"/>
    </g>
  </defs>
</svg>
