<?xml version="1.0" encoding="UTF-8" standalone="no"?>
<svg xmlns:xlink="http://www.w3.org/1999/xlink" height="342.0px" width="237.9px" xmlns="http://www.w3.org/2000/svg">
  <g transform="matrix(1, 0, 0, 1, 118.05, 273.9)">
    <use height="150.35" transform="matrix(1.0, 0.0, 0.0, 1.0, -57.1, -138.6)" width="109.4" xlink:href="#shape0"/>
  </g>
  <defs>
    <g id="shape0" transform="matrix(1, 0, 0, 1, 57.1, 138.6)">
      <path d="M3.05 -127.8 L4.45 -129.5 3.05 -127.8 -9.75 -126.85 -12.75 -126.8 -21.8 -127.45 -26.25 -128.3 -26.85 -125.0 -27.4 -126.3 -26.85 -125.0 -31.5 -100.5 -33.6 -90.8 -34.35 -87.5 -37.7 -87.5 -34.35 -87.5 -35.05 -83.95 -35.5 -81.45 -36.45 -76.45 -36.5 -76.2 -36.5 -76.1 -37.3 -71.8 -37.85 -68.85 -39.0 -62.5 -39.2 -61.3 -39.6 -58.7 -40.25 -54.65 -40.35 -53.75 -40.7 -51.55 -41.5 -46.5 -42.8 -37.8 -42.8 -37.75 -43.65 -31.45 -43.7 -31.5 -43.7 -31.45 -44.35 -26.8 -45.25 -20.95 Q-47.7 -2.25 -49.1 2.3 -48.7 2.15 -43.8 3.4 -38.95 4.6 20.3 4.0 49.1 0.1 46.05 -7.25 43.0 -14.6 38.65 -26.05 L38.25 -27.1 30.35 -49.1 30.35 -49.15 28.35 -54.8 27.35 -57.65 27.3 -57.75 27.15 -58.2 25.8 -61.95 25.6 -62.6 24.8 -64.9 23.75 -67.95 22.2 -72.35 21.7 -73.8 21.25 -75.2 21.2 -75.3 18.25 -83.95 18.25 -84.05 16.6 -89.0 16.45 -89.4 16.4 -89.5 14.0 -97.0 12.7 -101.0 Q8.1 -115.45 6.3 -122.4 5.2 -126.65 5.15 -128.1 L3.05 -127.8 M7.3 -123.05 L6.3 -122.4 7.3 -123.05 M18.75 -89.8 L16.45 -89.4 18.75 -89.8 M19.25 -101.0 L21.05 -94.9 21.05 -94.8 22.7 -89.5 22.85 -89.0 24.4 -83.95 27.45 -74.5 27.6 -74.1 28.2 -72.45 28.25 -72.2 28.6 -71.25 32.25 -61.3 49.95 -12.9 51.6 -8.3 Q53.2 -2.4 51.2 0.6 49.2 3.6 44.15 6.0 32.15 11.75 -9.15 11.75 -43.85 11.75 -50.65 10.55 -52.7 10.25 -56.6 5.65 -58.65 3.3 -52.05 -33.15 L-46.95 -61.3 -46.9 -61.55 -46.55 -63.35 -46.4 -64.15 -46.25 -64.95 -43.1 -82.2 -42.8 -83.95 -42.75 -83.95 -41.8 -89.0 -40.2 -97.0 Q-34.85 -123.55 -32.05 -131.9 L-32.05 -138.6 Q-19.9 -134.55 -2.0 -134.55 L9.2 -135.55 16.65 -109.8 19.25 -101.0 M-41.8 -58.9 L-40.7 -58.8 -39.6 -58.7 -40.7 -58.8 -41.8 -58.9 M20.85 -84.4 L18.25 -84.05 20.85 -84.4 M-23.25 -130.45 L-21.8 -127.45 -23.25 -130.45" fill="#000000" fill-rule="evenodd" stroke="none"/>
      <path d="M3.05 -127.8 L5.15 -128.1 Q5.2 -126.65 6.3 -122.4 0.4 -118.3 -4.65 -109.55 -10.1 -100.15 -6.25 -83.0 L-9.45 -81.6 -9.5 -81.6 -12.35 -82.95 Q-15.7 -96.1 -10.75 -110.25 -22.4 -114.95 -26.85 -125.0 L-26.25 -128.3 -21.8 -127.45 Q-17.85 -120.95 -7.7 -114.9 L3.05 -127.8 M-7.7 -114.9 L-10.75 -110.25 -7.7 -114.9" fill="#694727" fill-rule="evenodd" stroke="none"/>
      <path d="M6.3 -122.4 Q8.1 -115.45 12.7 -101.0 L14.0 -97.0 16.4 -89.5 16.45 -89.4 Q4.1 -87.3 -6.25 -83.0 -10.1 -100.15 -4.65 -109.55 0.4 -118.3 6.3 -122.4 M25.6 -62.6 L25.8 -61.95 27.15 -58.2 27.3 -57.75 27.35 -57.65 28.35 -54.8 30.35 -49.15 30.35 -49.1 38.25 -27.1 38.65 -26.05 Q43.0 -14.6 46.05 -7.25 49.1 0.1 20.3 4.0 -38.95 4.6 -43.8 3.4 -48.7 2.15 -49.1 2.3 -47.7 -2.25 -45.25 -20.95 L-44.35 -26.8 -43.7 -31.45 -43.7 -31.5 -43.65 -31.45 -42.8 -37.75 -42.8 -37.8 -41.5 -46.5 -40.7 -51.55 -40.35 -53.75 -40.25 -54.65 -39.6 -58.7 -37.2 -58.45 -37.2 -3.3 Q3.5 -1.05 36.0 -7.1 L23.95 -62.3 25.6 -62.6 M-26.85 -125.0 Q-22.4 -114.95 -10.75 -110.25 -15.7 -96.1 -12.35 -82.95 -21.95 -87.15 -34.35 -87.5 L-33.6 -90.8 -31.5 -100.5 -26.85 -125.0" fill="#8c6635" fill-rule="evenodd" stroke="none"/>
      <path d="M18.25 -84.05 L18.25 -83.95 21.2 -75.3 21.25 -75.2 21.7 -73.8 21.2 -75.2 Q7.35 -71.65 -7.5 -70.8 L-9.0 -72.9 Q-9.4 -73.45 -10.0 -73.5 -10.6 -73.65 -11.1 -73.25 -11.65 -72.9 -11.7 -72.3 -11.85 -71.7 -11.45 -71.15 L-11.1 -70.65 -12.4 -70.6 -13.95 -73.35 Q-14.25 -73.9 -14.85 -74.05 L-16.0 -73.9 Q-16.55 -73.6 -16.7 -73.0 L-16.55 -71.85 -15.8 -70.55 -37.3 -71.8 -36.5 -76.1 -36.5 -76.2 -36.45 -76.45 -35.5 -81.45 Q-23.0 -81.1 -9.5 -81.6 L-9.45 -81.6 Q5.0 -82.2 18.25 -84.05 M22.2 -72.35 L23.75 -67.95 24.8 -64.9 25.6 -62.6 23.95 -62.3 Q-7.6 -56.0 -37.2 -58.45 L-39.6 -58.7 -39.2 -61.3 -39.0 -62.5 -37.85 -68.85 -14.1 -67.55 -13.05 -65.7 -12.15 -65.0 -11.0 -65.15 Q-10.5 -65.45 -10.3 -66.05 -10.15 -66.65 -10.45 -67.15 L-10.7 -67.65 -9.05 -67.7 -7.95 -66.15 Q-7.6 -65.65 -6.95 -65.55 -6.35 -65.5 -5.85 -65.85 -5.35 -66.2 -5.25 -66.8 -5.15 -67.4 -5.5 -67.9 8.85 -68.9 22.2 -72.35" fill="#973b50" fill-rule="evenodd" stroke="none"/>
      <path d="M-6.25 -83.0 Q4.1 -87.3 16.45 -89.4 L16.6 -89.0 18.25 -84.05 Q5.0 -82.2 -9.45 -81.6 L-6.25 -83.0 M-9.5 -81.6 Q-23.0 -81.1 -35.5 -81.45 L-35.05 -83.95 -34.35 -87.5 Q-21.95 -87.15 -12.35 -82.95 L-9.5 -81.6" fill="#fafcfb" fill-rule="evenodd" stroke="none"/>
      <path d="M-37.3 -71.8 L-15.8 -70.55 -16.55 -71.85 -16.7 -73.0 Q-16.55 -73.6 -16.0 -73.9 L-14.85 -74.05 Q-14.25 -73.9 -13.95 -73.35 L-12.4 -70.6 -11.1 -70.65 -11.45 -71.15 Q-11.85 -71.7 -11.7 -72.3 -11.65 -72.9 -11.1 -73.25 -10.6 -73.65 -10.0 -73.5 -9.4 -73.45 -9.0 -72.9 L-7.5 -70.8 Q7.35 -71.65 21.2 -75.2 L21.7 -73.8 22.2 -72.35 Q8.85 -68.9 -5.5 -67.9 -5.15 -67.4 -5.25 -66.8 -5.35 -66.2 -5.85 -65.85 -6.35 -65.5 -6.95 -65.55 -7.6 -65.65 -7.95 -66.15 L-9.05 -67.7 -10.7 -67.65 -10.45 -67.15 Q-10.15 -66.65 -10.3 -66.05 -10.5 -65.45 -11.0 -65.15 L-12.15 -65.0 -13.05 -65.7 -14.1 -67.55 -37.85 -68.85 -37.3 -71.8" fill="#ffffff" fill-rule="evenodd" stroke="none"/>
      <path d="M23.95 -62.3 L36.0 -7.1 Q3.5 -1.05 -37.2 -3.3 L-37.2 -58.45 Q-7.6 -56.0 23.95 -62.3" fill="#1e2a64" fill-rule="evenodd" stroke="none"/>
      <path d="M-21.8 -127.45 L-12.75 -126.8 -9.75 -126.85 3.05 -127.8 -7.7 -114.9 Q-17.85 -120.95 -21.8 -127.45" fill="#fff1dd" fill-rule="evenodd" stroke="none"/>
      <path d="M4.45 -129.5 L3.05 -127.8 M6.3 -122.4 L7.3 -123.05 M6.3 -122.4 Q0.4 -118.3 -4.65 -109.55 -10.1 -100.15 -6.25 -83.0 L-9.45 -81.6 -9.5 -81.6 Q-23.0 -81.1 -35.5 -81.45 M18.25 -84.05 Q5.0 -82.2 -9.45 -81.6 M-39.6 -58.7 L-40.7 -58.8 -41.8 -58.9 M18.25 -84.05 L20.85 -84.4 M25.6 -62.6 L23.95 -62.3 36.0 -7.1 Q3.5 -1.05 -37.2 -3.3 L-37.2 -58.45 -39.6 -58.7 M-21.8 -127.45 Q-17.85 -120.95 -7.7 -114.9 L3.05 -127.8 M-26.85 -125.0 Q-22.4 -114.95 -10.75 -110.25 L-7.7 -114.9 M-26.85 -125.0 L-27.4 -126.3 M-21.8 -127.45 L-23.25 -130.45 M-12.35 -82.95 Q-15.7 -96.1 -10.75 -110.25 M-9.5 -81.6 L-12.35 -82.95 M23.95 -62.3 Q-7.6 -56.0 -37.2 -58.45" fill="none" stroke="#000000" stroke-linecap="round" stroke-linejoin="round" stroke-width="3.0"/>
      <path d="M-37.3 -71.8 L-15.8 -70.55 -16.55 -71.85 -16.7 -73.0 Q-16.55 -73.6 -16.0 -73.9 L-14.85 -74.05 Q-14.25 -73.9 -13.95 -73.35 L-12.4 -70.6 -11.1 -70.65 -11.45 -71.15 Q-11.85 -71.7 -11.7 -72.3 -11.65 -72.9 -11.1 -73.25 -10.6 -73.65 -10.0 -73.5 -9.4 -73.45 -9.0 -72.9 L-7.5 -70.8 Q7.35 -71.65 21.2 -75.2 M22.2 -72.35 Q8.85 -68.9 -5.5 -67.9 -5.15 -67.4 -5.25 -66.8 -5.35 -66.2 -5.85 -65.85 -6.35 -65.5 -6.95 -65.55 -7.6 -65.65 -7.95 -66.15 L-9.05 -67.7 -10.7 -67.65 -10.45 -67.15 Q-10.15 -66.65 -10.3 -66.05 -10.5 -65.45 -11.0 -65.15 L-12.15 -65.0 -13.05 -65.7 -14.1 -67.55 -37.85 -68.85" fill="none" stroke="#000000" stroke-linecap="round" stroke-linejoin="round" stroke-width="1.0"/>
      <path d="M-6.25 -83.0 Q4.1 -87.3 16.45 -89.4 L18.75 -89.8 M-34.35 -87.5 Q-21.95 -87.15 -12.35 -82.95 M-34.35 -87.5 L-37.7 -87.5" fill="none" stroke="#000000" stroke-linecap="round" stroke-linejoin="round" stroke-width="2.0"/>
      <path d="M19.9 -23.3 Q20.9 -24.05 21.65 -24.2 L19.45 -24.1 Q19.5 -23.55 19.9 -23.3 M18.75 -24.4 L22.55 -24.5 Q24.1 -26.15 25.7 -26.05 25.95 -25.3 25.35 -24.15 26.55 -23.6 27.35 -22.3 L27.35 -22.25 28.15 -21.8 27.8 -19.85 27.75 -19.8 28.3 -17.65 30.9 -16.7 28.4 -14.8 28.4 -14.5 Q28.4 -11.8 26.85 -10.5 25.4 -9.3 22.3 -9.05 16.5 -8.6 14.75 -11.85 13.35 -14.35 13.65 -14.5 L15.55 -15.0 19.25 -15.85 19.1 -17.85 18.1 -19.25 Q18.1 -19.75 18.75 -20.35 L18.65 -20.85 Q18.6 -21.9 19.5 -22.9 18.85 -23.5 18.75 -24.4 M15.85 -22.95 Q16.2 -22.95 16.2 -22.45 16.2 -21.65 15.15 -21.65 L14.7 -21.65 15.8 -19.15 15.9 -18.9 15.9 -18.65 Q15.75 -17.75 14.55 -17.75 13.3 -17.75 13.3 -18.8 13.3 -19.75 14.55 -20.0 L13.5 -22.6 15.55 -22.3 Q15.1 -22.85 15.85 -22.95 M19.35 -18.8 L20.05 -19.3 21.8 -20.15 26.3 -20.75 26.55 -20.75 27.1 -20.65 27.15 -20.95 27.25 -21.25 26.6 -21.55 24.8 -21.7 24.6 -21.7 Q22.6 -21.65 21.55 -21.05 L19.9 -20.2 19.15 -19.7 18.95 -19.5 19.05 -19.25 19.35 -18.8 M19.8 -21.1 L21.1 -21.75 Q22.2 -22.25 23.9 -22.4 L24.9 -22.45 26.25 -22.4 25.8 -22.8 Q24.8 -23.75 23.4 -23.75 19.7 -23.75 19.4 -20.85 L19.8 -21.1 M19.95 -15.35 L14.55 -14.1 Q14.85 -11.95 17.05 -10.7 18.65 -9.8 20.3 -9.8 24.25 -9.8 25.75 -10.65 27.55 -11.65 27.65 -14.45 L27.55 -17.5 Q27.4 -18.9 26.9 -19.8 L26.55 -19.85 Q22.7 -19.85 20.8 -18.8 19.65 -18.25 19.85 -18.05 L19.95 -15.35 M25.8 -18.6 Q25.9 -18.8 26.05 -18.8 26.2 -18.8 26.35 -18.6 L26.45 -18.15 26.35 -17.65 26.05 -17.45 25.8 -17.65 25.7 -18.15 25.8 -18.6 M24.8 -24.55 L25.3 -25.45 Q24.05 -25.3 23.5 -24.55 L24.45 -24.45 24.8 -24.55 M23.5 -14.4 L23.65 -13.9 18.95 -13.2 Q19.3 -12.1 21.6 -11.9 23.9 -11.75 23.9 -13.1 L24.25 -12.7 Q24.25 -11.45 22.2 -11.45 18.5 -11.45 18.2 -13.5 L22.8 -14.25 23.5 -14.4 M28.95 -16.1 L29.65 -16.55 28.4 -16.75 28.45 -15.75 28.95 -16.1" fill="#ffffff" fill-rule="evenodd" stroke="none"/>
    </g>
  </defs>
</svg>
