<?xml version="1.0" encoding="UTF-8" standalone="no"?>
<svg xmlns:xlink="http://www.w3.org/1999/xlink" height="342.0px" width="237.9px" xmlns="http://www.w3.org/2000/svg">
  <g transform="matrix(1, 0, 0, 1, 118.05, 273.9)">
    <use height="150.35" transform="matrix(1.0, 0.0, 0.0, 1.0, -57.05, -138.6)" width="109.35" xlink:href="#shape0"/>
  </g>
  <defs>
    <g id="shape0" transform="matrix(1, 0, 0, 1, 57.05, 138.6)">
      <path d="M5.2 -127.4 L5.15 -128.1 -9.75 -126.85 -12.75 -126.8 -18.5 -127.05 -18.85 -128.35 -18.5 -127.05 -26.25 -128.3 -27.4 -122.0 -28.05 -118.45 -30.35 -106.25 -31.5 -100.5 -33.6 -90.8 -35.05 -83.95 -36.45 -76.45 -39.0 -62.5 -39.2 -61.3 -40.25 -54.65 -41.5 -46.5 -42.8 -37.8 -42.8 -37.75 -43.65 -31.45 -43.7 -31.45 -44.35 -26.8 -45.25 -20.95 Q-47.7 -2.25 -49.1 2.3 -48.7 2.15 -43.8 3.4 -38.95 4.6 20.3 4.0 49.1 0.1 46.05 -7.25 43.0 -14.6 38.65 -26.05 L38.25 -27.1 30.35 -49.1 30.35 -49.15 27.35 -57.65 26.05 -61.3 Q21.4 -74.55 18.25 -83.95 L16.6 -89.0 16.4 -89.5 14.0 -97.0 12.7 -101.0 12.1 -102.95 Q11.85 -107.95 11.75 -113.0 11.85 -107.95 12.1 -102.95 9.3 -111.7 7.65 -117.5 5.55 -124.85 5.2 -127.4 L6.3 -129.9 5.2 -127.4 M19.25 -101.0 L21.05 -94.9 21.05 -94.8 22.7 -89.5 22.85 -89.0 24.4 -83.95 Q27.0 -75.6 28.6 -71.25 L32.25 -61.3 41.4 -36.25 45.7 -24.5 47.9 -18.45 49.95 -12.9 51.6 -8.3 Q52.6 -4.7 52.2 -2.15 51.95 -0.55 51.2 0.6 49.2 3.6 44.15 6.0 32.15 11.75 -9.15 11.75 -43.85 11.75 -50.65 10.55 -52.15 10.3 -54.55 7.85 L-56.6 5.65 -56.95 4.6 -57.0 4.3 Q-57.55 -0.6 -54.05 -21.6 L-53.85 -22.85 -52.65 -29.8 -52.05 -33.15 -46.95 -61.3 -42.8 -83.95 -41.8 -89.0 -40.2 -97.0 Q-34.85 -123.55 -32.05 -131.9 L-32.05 -138.6 Q-19.9 -134.55 -2.0 -134.55 L9.15 -135.55 16.65 -109.8 19.25 -101.0 M9.1 -119.9 Q8.65 -118.7 7.65 -117.5 8.65 -118.7 9.1 -119.9 M-43.7 -31.45 L-43.7 -31.5 -43.7 -31.45 M-31.15 -117.05 Q-30.6 -112.3 -30.35 -106.25 -30.6 -112.3 -31.15 -117.05 M-28.3 -124.8 L-27.4 -122.0 -28.3 -124.8" fill="#000000" fill-rule="evenodd" stroke="none"/>
      <path d="M-18.5 -127.05 L-12.75 -126.8 -9.75 -126.85 5.15 -128.1 5.2 -127.4 Q3.7 -124.75 1.1 -122.85 -1.3 -121.1 -6.15 -119.15 L-6.95 -118.8 Q-16.1 -119.7 -18.5 -127.05" fill="#fff1dd" fill-rule="evenodd" stroke="none"/>
      <path d="M12.1 -102.95 L12.7 -101.0 14.0 -97.0 16.4 -89.5 16.6 -89.0 18.25 -83.95 Q21.4 -74.55 26.05 -61.3 L27.35 -57.65 30.35 -49.15 30.35 -49.1 38.25 -27.1 38.65 -26.05 Q43.0 -14.6 46.05 -7.25 49.1 0.1 20.3 4.0 -38.95 4.6 -43.8 3.4 -48.7 2.15 -49.1 2.3 -47.7 -2.25 -45.25 -20.95 L-44.35 -26.8 -43.7 -31.45 -43.65 -31.45 -42.8 -37.75 -42.8 -37.8 -41.5 -46.5 -40.25 -54.65 -39.2 -61.3 -39.0 -62.5 -36.45 -76.45 -35.05 -83.95 -33.6 -90.8 -31.5 -100.5 -30.35 -106.25 Q-29.3 -75.15 -37.85 -7.25 L-38.5 -2.45 Q-10.25 7.15 28.5 -4.8 L27.2 -9.4 Q14.2 -55.5 12.1 -102.95" fill="#fdf9fd" fill-rule="evenodd" stroke="none"/>
      <path d="M-43.7 -31.45 L-43.7 -31.5 -43.7 -31.45 M7.65 -117.5 Q9.3 -111.7 12.1 -102.95 14.2 -55.5 27.2 -9.4 L28.5 -4.8 Q-10.25 7.15 -38.5 -2.45 L-37.85 -7.25 Q-29.3 -75.15 -30.35 -106.25 L-28.05 -118.45 Q-21.25 -97.6 -32.45 -5.65 -8.7 0.25 21.9 -7.9 6.3 -59.0 7.65 -117.5" fill="#ffffff" fill-rule="evenodd" stroke="none"/>
      <path d="M-18.5 -127.05 Q-16.1 -119.7 -6.95 -118.8 L-6.15 -119.15 Q-1.3 -121.1 1.1 -122.85 3.7 -124.75 5.2 -127.4 5.55 -124.85 7.65 -117.5 L5.5 -115.5 Q2.85 -112.75 -2.0 -110.85 -6.9 -108.95 -5.55 -102.75 -4.25 -96.55 -6.5 -94.8 -8.8 -93.05 -11.35 -93.2 -13.9 -93.35 -15.55 -95.05 -17.1 -96.65 -17.0 -98.95 -17.55 -104.55 -17.2 -107.15 -16.8 -110.05 -15.95 -112.1 -23.95 -112.65 -27.4 -122.0 L-26.25 -128.3 -18.5 -127.05 M-6.95 -118.8 Q-11.45 -116.95 -13.0 -115.95 -14.85 -114.75 -15.95 -112.1 -14.85 -114.75 -13.0 -115.95 -11.45 -116.95 -6.95 -118.8" fill="#f7e8f3" fill-rule="evenodd" stroke="none"/>
      <path d="M-17.2 -107.15 Q-17.55 -104.55 -17.0 -98.95 -17.1 -96.65 -15.55 -95.05 -13.9 -93.35 -11.35 -93.2 -8.8 -93.05 -6.5 -94.8 -4.25 -96.55 -5.55 -102.75 -6.9 -108.95 -2.0 -110.85 2.85 -112.75 5.5 -115.5 L7.65 -117.5 Q6.3 -59.0 21.9 -7.9 -8.7 0.25 -32.45 -5.65 -21.25 -97.6 -28.05 -118.45 L-27.4 -122.0 Q-23.95 -112.65 -15.95 -112.1 -16.8 -110.05 -17.2 -107.15" fill="#007bcc" fill-rule="evenodd" stroke="none"/>
      <path d="M-43.7 -31.45 L-43.65 -31.45 -43.7 -31.45" fill="#f9ecf7" fill-rule="evenodd" stroke="none"/>
      <path d="M-6.95 -118.8 L-6.15 -119.15 Q-1.3 -121.1 1.1 -122.85 3.7 -124.75 5.2 -127.4 L6.3 -129.9 M7.65 -117.5 Q6.3 -59.0 21.9 -7.9 -8.7 0.25 -32.45 -5.65 -21.25 -97.6 -28.05 -118.45 M-30.35 -106.25 Q-29.3 -75.15 -37.85 -7.25 L-38.5 -2.45 Q-10.25 7.15 28.5 -4.8 L27.2 -9.4 Q14.2 -55.5 12.1 -102.95 M-15.95 -112.1 Q-14.85 -114.75 -13.0 -115.95 -11.45 -116.95 -6.95 -118.8 M-15.95 -112.1 Q-16.8 -110.05 -17.2 -107.15" fill="none" stroke="#000000" stroke-linecap="round" stroke-linejoin="round" stroke-width="3.0"/>
      <path d="M-18.5 -127.05 Q-16.1 -119.7 -6.95 -118.8 M-17.2 -107.15 Q-17.55 -104.55 -17.0 -98.95 -17.1 -96.65 -15.55 -95.05 -13.9 -93.35 -11.35 -93.2 -8.8 -93.05 -6.5 -94.8 -4.25 -96.55 -5.55 -102.75 -6.9 -108.95 -2.0 -110.85 2.85 -112.75 5.5 -115.5 L7.65 -117.5 Q8.65 -118.7 9.1 -119.9 M12.1 -102.95 Q11.85 -107.95 11.75 -113.0 M-30.35 -106.25 Q-30.6 -112.3 -31.15 -117.05 M-18.5 -127.05 L-18.85 -128.35 M-27.4 -122.0 L-28.3 -124.8 M-27.4 -122.0 Q-23.95 -112.65 -15.95 -112.1" fill="none" stroke="#000000" stroke-linecap="round" stroke-linejoin="round" stroke-width="3.0"/>
      <path d="M-8.55 -102.3 Q-7.55 -101.25 -7.55 -99.8 -7.55 -98.35 -8.55 -97.3 -9.6 -96.25 -11.05 -96.25 -12.5 -96.25 -13.5 -97.3 -14.55 -98.35 -14.55 -99.8 -14.55 -101.25 -13.5 -102.3 -12.5 -103.35 -11.05 -103.35 -9.6 -103.35 -8.55 -102.3" fill="url(#gradient0)" fill-rule="evenodd" stroke="none"/>
      <path d="M-8.55 -102.3 Q-9.6 -103.35 -11.05 -103.35 -12.5 -103.35 -13.5 -102.3 -14.55 -101.25 -14.55 -99.8 -14.55 -98.35 -13.5 -97.3 -12.5 -96.25 -11.05 -96.25 -9.6 -96.25 -8.55 -97.3 -7.55 -98.35 -7.55 -99.8 -7.55 -101.25 -8.55 -102.3" fill="none" stroke="#000000" stroke-linecap="round" stroke-linejoin="round" stroke-width="1.0"/>
      <path d="M5.2 -81.95 Q5.55 -79.85 4.45 -77.2 3.35 -74.55 -0.25 -74.7 2.35 -76.05 2.35 -79.4 2.35 -82.8 -0.85 -84.45 -4.05 -86.15 -4.05 -89.1 -4.05 -92.45 0.5 -94.65 -3.45 -88.85 0.7 -86.45 4.85 -84.05 5.2 -81.95 M2.0 -57.65 Q1.15 -56.8 -0.05 -56.8 -1.2 -56.8 -2.05 -57.65 -2.9 -58.5 -2.85 -59.65 -2.9 -60.8 -2.05 -61.65 -1.2 -62.5 -0.05 -62.45 1.15 -62.5 2.0 -61.65 2.85 -60.8 2.85 -59.65 2.85 -58.5 2.0 -57.65 M-16.7 -88.05 L-16.8 -87.9 -16.7 -87.85 -16.7 -88.05 M-14.4 -90.85 Q-16.0 -88.6 -16.7 -85.85 -17.4 -83.05 -15.7 -81.75 -14.05 -80.45 -11.25 -79.1 L-6.0 -76.4 Q-3.55 -75.05 -3.55 -72.05 -3.55 -69.05 -5.45 -67.65 -7.4 -66.25 -11.9 -66.6 -16.45 -67.0 -18.7 -65.5 -20.95 -64.05 -20.75 -62.25 -20.55 -60.45 -19.0 -59.3 -17.55 -58.2 -15.35 -58.6 L-15.65 -58.2 Q-16.35 -57.55 -17.9 -57.5 -21.0 -57.55 -22.3 -59.95 -23.0 -61.3 -23.0 -62.8 -23.0 -66.8 -20.45 -68.3 -18.6 -69.4 -14.85 -69.4 -10.8 -69.15 -9.25 -69.3 -6.7 -69.6 -6.7 -71.45 -6.7 -73.25 -8.65 -74.6 L-12.85 -76.75 Q-15.9 -78.1 -17.1 -79.1 -19.05 -80.65 -19.05 -82.8 -19.05 -85.5 -18.5 -86.85 -17.95 -88.2 -14.4 -90.85 M-10.35 -86.25 Q-9.4 -87.2 -8.05 -87.2 -6.7 -87.2 -5.75 -86.25 -4.85 -85.3 -4.85 -83.95 -4.85 -82.65 -5.75 -81.7 -6.7 -80.75 -8.05 -80.75 -9.4 -80.75 -10.35 -81.7 -11.3 -82.65 -11.3 -83.95 -11.3 -85.3 -10.35 -86.25 M-10.65 -61.75 Q-9.75 -62.6 -8.5 -62.6 -7.2 -62.6 -6.35 -61.75 -5.5 -60.9 -5.45 -59.6 -5.5 -58.35 -6.35 -57.45 -7.2 -56.55 -8.5 -56.55 -9.75 -56.55 -10.65 -57.45 -11.5 -58.35 -11.5 -59.6 -11.5 -60.9 -10.65 -61.75" fill="#ffffff" fill-rule="evenodd" stroke="none"/>
      <path d="M6.8 -23.05 Q6.75 -21.8 5.9 -20.9 5.05 -20.0 3.75 -20.0 2.5 -20.0 1.6 -20.9 0.75 -21.8 0.75 -23.05 0.75 -24.35 1.6 -25.2 2.5 -26.05 3.75 -26.05 5.05 -26.05 5.9 -25.2 6.75 -24.35 6.8 -23.05 M8.2 -10.3 Q6.9 -8.7 5.05 -8.6 3.2 -8.5 3.3 -10.05 3.45 -11.65 4.75 -12.2 6.05 -12.75 5.85 -14.15 5.65 -15.55 3.25 -15.0 L-1.25 -14.45 Q-5.95 -14.5 -6.05 -20.55 -5.85 -18.95 -3.15 -17.25 -0.4 -15.6 3.85 -17.1 8.1 -18.6 8.8 -15.3 9.45 -11.95 8.2 -10.3 M4.7 -10.05 L4.85 -10.0 4.75 -10.2 4.7 -10.05 M-11.8 -14.7 Q-10.9 -15.55 -9.65 -15.55 -8.4 -15.55 -7.55 -14.7 -6.65 -13.85 -6.65 -12.55 -6.65 -11.3 -7.55 -10.45 -8.4 -9.55 -9.65 -9.55 -10.9 -9.55 -11.8 -10.45 -12.7 -11.3 -12.65 -12.6 -12.7 -13.85 -11.8 -14.7" fill="#ffffff" fill-rule="evenodd" stroke="none"/>
      <path d="M4.8 -41.55 L-4.9 -41.55 -4.9 -51.25 4.8 -51.25 4.8 -41.55 M-9.85 -41.55 L-19.55 -41.55 -19.55 -51.25 -9.85 -51.25 -9.85 -41.55 M-9.85 -36.65 L-9.85 -26.95 -19.55 -26.95 -19.55 -36.65 -9.85 -36.65" fill="none" stroke="#ffffff" stroke-linecap="square" stroke-linejoin="miter" stroke-miterlimit="768" stroke-width="2.5"/>
      <path d="M-19.95 -8.4 L-19.95 -22.7 -4.8 -22.7 -4.8 -36.25 8.35 -36.25" fill="none" stroke="#ffffff" stroke-linecap="square" stroke-linejoin="miter" stroke-miterlimit="768" stroke-width="2.5"/>
    </g>
    <radialGradient cx="0" cy="0" gradientTransform="matrix(0.0029, -1.0E-4, 1.0E-4, 0.0029, -12.2, -100.95)" gradientUnits="userSpaceOnUse" id="gradient0" r="819.2" spreadMethod="pad">
      <stop offset="0.0" stop-color="#ffb3b3"/>
      <stop offset="1.0" stop-color="#d50000"/>
    </radialGradient>
  </defs>
</svg>
