<?xml version="1.0" encoding="UTF-8" standalone="no"?>
<svg xmlns:xlink="http://www.w3.org/1999/xlink" height="342.0px" width="237.9px" xmlns="http://www.w3.org/2000/svg">
  <g transform="matrix(1, 0, 0, 1, 118.05, 273.9)">
    <use height="150.35" transform="matrix(1.0, 0.0, 0.0, 1.0, -57.05, -138.6)" width="109.35" xlink:href="#shape0"/>
  </g>
  <defs>
    <g id="shape0" transform="matrix(1, 0, 0, 1, 57.05, 138.6)">
      <path d="M-1.0 -127.35 L5.15 -128.1 Q5.2 -125.9 7.8 -117.1 9.6 -110.75 12.7 -101.0 L14.0 -97.0 16.4 -89.5 16.6 -89.0 18.25 -83.95 Q21.4 -74.55 26.05 -61.3 L27.35 -57.65 28.05 -55.65 Q11.7 -52.25 -6.7 -51.4 L-10.0 -118.9 -6.7 -51.4 Q-22.55 -50.55 -40.55 -52.6 L-40.25 -54.65 -39.2 -61.3 -39.0 -62.5 -36.45 -76.45 -35.05 -83.95 -33.6 -90.8 -31.5 -100.5 -28.05 -118.65 Q-27.6 -116.05 -26.25 -113.75 L-23.2 -120.75 Q-24.95 -112.1 -19.85 -111.6 -14.75 -111.1 -14.3 -107.2 L-10.0 -118.9 -14.3 -107.2 Q-14.75 -111.1 -19.85 -111.6 -24.95 -112.1 -23.2 -120.75 L-26.25 -113.75 Q-27.6 -116.05 -28.05 -118.65 L-26.25 -128.3 -21.55 -127.4 Q-18.3 -118.25 -10.0 -118.9 -2.45 -119.7 -1.0 -127.35 M-10.0 -118.9 L-4.85 -107.45 Q-2.4 -112.35 1.65 -111.2 5.7 -110.05 3.0 -120.15 L7.3 -113.2 7.8 -117.1 7.3 -113.2 3.0 -120.15 Q5.7 -110.05 1.65 -111.2 -2.4 -112.35 -4.85 -107.45 L-10.0 -118.9 M12.2 -98.5 L11.0 -101.35 -1.2 -99.9 -1.2 -97.05 12.2 -98.5 -1.2 -97.05 -1.2 -99.9 11.0 -101.35 12.2 -98.5" fill="#ffffff" fill-rule="evenodd" stroke="none"/>
      <path d="M16.65 -109.8 L19.25 -101.0 21.05 -94.9 21.05 -94.8 22.7 -89.5 22.85 -89.0 24.4 -83.95 Q27.0 -75.6 28.6 -71.25 L32.25 -61.3 41.4 -36.25 45.7 -24.5 47.9 -18.45 49.95 -12.9 51.6 -8.3 Q52.6 -4.7 52.2 -2.15 51.95 -0.55 51.2 0.6 49.2 3.6 44.15 6.0 32.15 11.75 -9.15 11.75 L-21.25 11.7 -50.65 10.55 Q-52.15 10.3 -54.55 7.85 L-56.6 5.65 -56.95 4.6 -57.0 4.3 Q-57.55 -0.6 -54.05 -21.6 L-53.85 -22.85 -52.65 -29.8 -52.55 -30.4 -52.05 -33.15 -46.95 -61.3 -42.8 -83.95 -41.8 -89.0 -40.2 -97.0 Q-34.85 -123.55 -32.05 -131.9 L-32.05 -138.6 Q-19.9 -134.55 -2.0 -134.55 L8.95 -135.5 16.65 -109.8 M5.05 -129.8 Q8.15 -124.05 7.8 -117.1 8.15 -124.05 5.05 -129.8 M28.05 -55.65 L27.35 -57.65 26.05 -61.3 Q21.4 -74.55 18.25 -83.95 L16.6 -89.0 16.4 -89.5 14.0 -97.0 12.7 -101.0 Q9.6 -110.75 7.8 -117.1 5.2 -125.9 5.15 -128.1 L-1.0 -127.35 -9.75 -126.85 -12.75 -126.8 -21.55 -127.4 -26.25 -128.3 -28.05 -118.65 -31.5 -100.5 -33.6 -90.8 -35.05 -83.95 -36.45 -76.45 -39.0 -62.5 -39.2 -61.3 -40.25 -54.65 -40.55 -52.6 -42.05 -52.8 -40.55 -52.6 -41.25 -48.1 -41.5 -46.5 -42.8 -37.8 -42.8 -37.75 -43.65 -31.45 -43.7 -31.5 -43.7 -31.45 -43.85 -30.4 -44.35 -26.8 -45.25 -20.95 Q-47.0 -7.65 -48.2 -1.5 L-52.1 -1.9 -48.2 -1.5 -49.1 2.3 Q-48.7 2.15 -43.8 3.4 L-21.25 4.2 -2.05 4.2 20.3 4.0 Q49.1 0.1 46.05 -7.25 L46.0 -7.35 Q42.95 -14.7 38.65 -26.05 L38.25 -27.1 30.35 -49.1 30.35 -49.15 29.55 -51.3 29.55 -51.35 28.05 -55.65 29.9 -56.05 28.05 -55.65 M47.9 -8.35 L46.0 -7.35 47.9 -8.35 M-2.1 6.35 L-2.05 4.2 -2.1 6.35 M-26.25 -129.9 Q-28.85 -123.7 -28.05 -118.65 -28.85 -123.7 -26.25 -129.9 M-42.05 -48.2 L-41.25 -48.1 -42.05 -48.2" fill="#000000" fill-rule="evenodd" stroke="none"/>
      <path d="M29.55 -51.35 L29.55 -51.3 30.35 -49.15 30.35 -49.1 38.25 -27.1 38.65 -26.05 Q42.95 -14.7 46.0 -7.35 32.9 -1.2 6.3 0.15 L-2.0 0.45 Q-23.1 0.95 -48.2 -1.5 -47.0 -7.65 -45.25 -20.95 L-44.35 -26.8 -43.85 -30.4 -43.7 -31.45 -43.65 -31.45 -42.8 -37.75 -42.8 -37.8 -41.5 -46.5 -41.25 -48.1 Q-5.3 -43.85 29.55 -51.35 M-3.6 -31.6 Q-1.95 -17.75 -2.0 0.45 -1.95 -17.75 -3.6 -31.6" fill="#185378" fill-rule="evenodd" stroke="none"/>
      <path d="M-6.7 -51.4 Q11.7 -52.25 28.05 -55.65 L29.55 -51.35 Q-5.3 -43.85 -41.25 -48.1 L-40.55 -52.6 Q-22.55 -50.55 -6.7 -51.4" fill="#1d5b85" fill-rule="evenodd" stroke="none"/>
      <path d="M46.0 -7.35 L46.05 -7.25 Q49.1 0.1 20.3 4.0 L-2.05 4.2 -2.0 0.45 -2.05 4.2 -21.25 4.2 -43.8 3.4 Q-48.7 2.15 -49.1 2.3 L-48.2 -1.5 Q-23.1 0.95 -2.0 0.45 L6.3 0.15 Q32.9 -1.2 46.0 -7.35" fill="#164869" fill-rule="evenodd" stroke="none"/>
      <path d="M-21.55 -127.4 L-12.75 -126.8 -9.75 -126.85 -1.0 -127.35 Q-2.45 -119.7 -10.0 -118.9 -18.3 -118.25 -21.55 -127.4" fill="#fff1dd" fill-rule="evenodd" stroke="none"/>
      <path d="M7.8 -117.1 Q8.15 -124.05 5.05 -129.8 M28.05 -55.65 L29.9 -56.05 M7.8 -117.1 L7.3 -113.2 3.0 -120.15 Q5.7 -110.05 1.65 -111.2 -2.4 -112.35 -4.85 -107.45 L-10.0 -118.9 -14.3 -107.2 Q-14.75 -111.1 -19.85 -111.6 -24.95 -112.1 -23.2 -120.75 L-26.25 -113.75 Q-27.6 -116.05 -28.05 -118.65 -28.85 -123.7 -26.25 -129.9 M-6.7 -51.4 Q11.7 -52.25 28.05 -55.65 M29.55 -51.35 L29.55 -51.3 M46.0 -7.35 L47.9 -8.35 M46.0 -7.35 Q32.9 -1.2 6.3 0.15 L-2.0 0.45 M-40.55 -52.6 L-42.05 -52.8 M-48.2 -1.5 Q-23.1 0.95 -2.0 0.45 M-41.25 -48.1 L-42.05 -48.2 M-48.2 -1.5 L-52.1 -1.9 M-41.25 -48.1 Q-5.3 -43.85 29.55 -51.35 M-6.7 -51.4 Q-22.55 -50.55 -40.55 -52.6" fill="none" stroke="#000000" stroke-linecap="round" stroke-linejoin="round" stroke-width="3.0"/>
      <path d="M12.2 -98.5 L-1.2 -97.05 -1.2 -99.9 11.0 -101.35 12.2 -98.5" fill="none" stroke="#000000" stroke-linecap="round" stroke-linejoin="round" stroke-width="2.0"/>
      <path d="M-10.0 -118.9 L-6.7 -51.4 M-2.0 0.45 L-2.05 4.2 -2.1 6.35 M-21.55 -127.4 Q-18.3 -118.25 -10.0 -118.9 -2.45 -119.7 -1.0 -127.35 M-2.0 0.45 Q-1.95 -17.75 -3.6 -31.6" fill="none" stroke="#000000" stroke-linecap="round" stroke-linejoin="round" stroke-width="3.0"/>
      <path d="M-3.85 -102.55 Q-3.4 -102.1 -3.4 -101.45 -3.4 -100.8 -3.85 -100.4 -4.25 -99.95 -4.9 -99.95 -5.55 -99.95 -6.0 -100.4 -6.45 -100.8 -6.45 -101.45 -6.45 -102.1 -6.0 -102.55 -5.55 -103.0 -4.9 -103.0 -4.25 -103.0 -3.85 -102.55" fill="#ffffff" fill-rule="evenodd" stroke="none"/>
      <path d="M-3.85 -102.55 Q-3.4 -102.1 -3.4 -101.45 -3.4 -100.8 -3.85 -100.4 -4.25 -99.95 -4.9 -99.95 -5.55 -99.95 -6.0 -100.4 -6.45 -100.8 -6.45 -101.45 -6.45 -102.1 -6.0 -102.55 -5.55 -103.0 -4.9 -103.0 -4.25 -103.0 -3.85 -102.55" fill="none" stroke="#000000" stroke-linecap="round" stroke-linejoin="round" stroke-width="1.0"/>
      <path d="M-3.15 -92.3 Q-2.7 -91.85 -2.7 -91.2 -2.7 -90.55 -3.15 -90.15 -3.55 -89.7 -4.2 -89.7 -4.85 -89.7 -5.3 -90.15 -5.75 -90.55 -5.75 -91.2 -5.75 -91.85 -5.3 -92.3 -4.85 -92.75 -4.2 -92.75 -3.55 -92.75 -3.15 -92.3" fill="#ffffff" fill-rule="evenodd" stroke="none"/>
      <path d="M-3.15 -92.3 Q-2.7 -91.85 -2.7 -91.2 -2.7 -90.55 -3.15 -90.15 -3.55 -89.7 -4.2 -89.7 -4.85 -89.7 -5.3 -90.15 -5.75 -90.55 -5.75 -91.2 -5.75 -91.85 -5.3 -92.3 -4.85 -92.75 -4.2 -92.75 -3.55 -92.75 -3.15 -92.3" fill="none" stroke="#000000" stroke-linecap="round" stroke-linejoin="round" stroke-width="1.0"/>
      <path d="M-2.45 -81.65 Q-2.0 -81.2 -2.0 -80.55 -2.0 -79.9 -2.45 -79.5 -2.85 -79.05 -3.5 -79.05 -4.15 -79.05 -4.6 -79.5 -5.05 -79.9 -5.05 -80.55 -5.05 -81.2 -4.6 -81.65 -4.15 -82.1 -3.5 -82.1 -2.85 -82.1 -2.45 -81.65" fill="#ffffff" fill-rule="evenodd" stroke="none"/>
      <path d="M-2.45 -81.65 Q-2.0 -81.2 -2.0 -80.55 -2.0 -79.9 -2.45 -79.5 -2.85 -79.05 -3.5 -79.05 -4.15 -79.05 -4.6 -79.5 -5.05 -79.9 -5.05 -80.55 -5.05 -81.2 -4.6 -81.65 -4.15 -82.1 -3.5 -82.1 -2.85 -82.1 -2.45 -81.65" fill="none" stroke="#000000" stroke-linecap="round" stroke-linejoin="round" stroke-width="1.0"/>
      <path d="M-1.75 -70.7 Q-1.3 -70.25 -1.3 -69.6 -1.3 -68.95 -1.75 -68.55 -2.15 -68.1 -2.8 -68.1 -3.45 -68.1 -3.9 -68.55 -4.35 -68.95 -4.35 -69.6 -4.35 -70.25 -3.9 -70.7 -3.45 -71.15 -2.8 -71.15 -2.15 -71.15 -1.75 -70.7" fill="#ffffff" fill-rule="evenodd" stroke="none"/>
      <path d="M-1.75 -70.7 Q-1.3 -70.25 -1.3 -69.6 -1.3 -68.95 -1.75 -68.55 -2.15 -68.1 -2.8 -68.1 -3.45 -68.1 -3.9 -68.55 -4.35 -68.95 -4.35 -69.6 -4.35 -70.25 -3.9 -70.7 -3.45 -71.15 -2.8 -71.15 -2.15 -71.15 -1.75 -70.7" fill="none" stroke="#000000" stroke-linecap="round" stroke-linejoin="round" stroke-width="1.0"/>
      <path d="M-1.05 -60.4 Q-0.6 -59.95 -0.6 -59.3 -0.6 -58.65 -1.05 -58.25 -1.45 -57.8 -2.1 -57.8 -2.75 -57.8 -3.2 -58.25 -3.65 -58.65 -3.65 -59.3 -3.65 -59.95 -3.2 -60.4 -2.75 -60.85 -2.1 -60.85 -1.45 -60.85 -1.05 -60.4" fill="#ffffff" fill-rule="evenodd" stroke="none"/>
      <path d="M-1.05 -60.4 Q-0.6 -59.95 -0.6 -59.3 -0.6 -58.65 -1.05 -58.25 -1.45 -57.8 -2.1 -57.8 -2.75 -57.8 -3.2 -58.25 -3.65 -58.65 -3.65 -59.3 -3.65 -59.95 -3.2 -60.4 -2.75 -60.85 -2.1 -60.85 -1.45 -60.85 -1.05 -60.4" fill="none" stroke="#000000" stroke-linecap="round" stroke-linejoin="round" stroke-width="1.0"/>
    </g>
  </defs>
</svg>
