<?xml version="1.0" encoding="UTF-8" standalone="no"?>
<svg xmlns:xlink="http://www.w3.org/1999/xlink" height="342.0px" width="237.9px" xmlns="http://www.w3.org/2000/svg">
  <g transform="matrix(1, 0, 0, 1, 118.05, 273.9)">
    <use height="150.35" transform="matrix(1.0, 0.0, 0.0, 1.0, -57.1, -138.6)" width="109.4" xlink:href="#shape0"/>
  </g>
  <defs>
    <g id="shape0" transform="matrix(1, 0, 0, 1, 57.1, 138.6)">
      <path d="M2.45 -127.75 L5.15 -128.1 Q5.2 -126.85 6.0 -123.5 5.3 -122.75 5.4 -121.7 6.05 -113.6 -1.25 -109.65 -2.15 -109.15 -2.45 -108.15 -2.7 -107.35 -2.35 -106.55 L-2.25 -106.25 Q-0.5 -101.4 1.95 -101.85 4.45 -102.35 4.65 -103.75 4.8 -105.2 4.25 -107.2 6.35 -104.3 8.6 -105.75 10.3 -106.85 9.45 -108.8 L10.2 -109.05 12.7 -101.0 14.0 -97.0 16.4 -89.5 16.6 -89.0 18.25 -83.95 24.75 -65.1 26.05 -61.3 25.85 -61.05 Q11.9 -52.7 4.15 -52.55 -2.65 -52.55 -4.1 -59.7 L-6.75 -114.9 Q0.35 -119.8 2.45 -127.75 M29.3 -52.05 L30.35 -49.15 30.35 -49.1 38.25 -27.1 38.65 -26.05 Q43.0 -14.6 46.05 -7.25 49.1 0.1 20.3 4.0 L20.2 4.0 20.45 -0.7 Q21.5 -22.95 17.85 -45.2 L17.75 -45.55 Q23.55 -48.2 29.3 -52.05 M17.15 4.05 L-21.25 4.2 -43.8 3.4 Q-48.7 2.15 -49.1 2.3 -47.7 -2.25 -45.25 -20.95 L-44.35 -26.8 -43.85 -30.4 -43.7 -31.45 -43.65 -31.45 -42.8 -37.75 -42.8 -37.8 -41.5 -46.5 -41.1 -49.15 Q-12.1 -33.7 14.95 -44.4 18.5 -22.3 17.4 -0.2 L17.15 4.05 M-39.7 -57.95 L-39.2 -61.3 -39.0 -62.5 -38.7 -64.0 -36.45 -76.45 -35.05 -83.95 -33.6 -90.8 -31.5 -100.5 -29.4 -111.4 Q-28.1 -111.4 -25.7 -112.45 L-25.7 -112.4 Q-28.55 -108.5 -26.35 -106.55 -24.2 -104.65 -20.85 -107.6 -21.55 -105.6 -21.55 -104.3 -21.6 -103.05 -19.35 -102.35 -17.15 -101.65 -14.7 -105.15 L-14.65 -105.2 Q-13.75 -105.6 -13.35 -106.5 -12.95 -107.45 -13.3 -108.4 -13.7 -109.35 -14.65 -109.75 -22.75 -113.5 -25.9 -124.35 -26.15 -125.15 -26.75 -125.6 L-26.25 -128.3 -21.25 -127.35 Q-18.45 -119.55 -9.75 -114.75 L-7.15 -60.65 -8.05 -58.5 Q-11.5 -51.6 -18.95 -51.25 -26.95 -51.0 -39.25 -57.75 L-39.7 -57.95" fill="#2b2b2b" fill-rule="evenodd" stroke="none"/>
      <path d="M6.0 -123.5 Q5.2 -126.85 5.15 -128.1 L2.45 -127.75 -0.85 -127.4 -9.75 -126.85 -12.75 -126.8 -17.8 -127.0 -21.25 -127.35 -26.25 -128.3 -26.75 -125.6 -28.35 -116.9 -29.4 -111.4 -31.5 -100.5 -33.6 -90.8 -35.05 -83.95 -36.45 -76.45 -38.7 -64.0 -39.0 -62.5 -39.2 -61.3 -39.7 -57.95 -40.2 -54.85 -40.25 -54.65 -40.6 -52.25 -41.1 -49.15 -41.5 -46.5 -42.8 -37.8 -42.8 -37.75 -43.65 -31.45 -43.7 -31.5 -43.7 -31.45 -43.85 -30.4 -44.35 -26.8 -45.25 -20.95 Q-47.7 -2.25 -49.1 2.3 -48.7 2.15 -43.8 3.4 L-21.25 4.2 17.15 4.05 20.2 4.0 20.3 4.0 Q49.1 0.1 46.05 -7.25 43.0 -14.6 38.65 -26.05 L38.25 -27.1 30.35 -49.1 30.35 -49.15 29.3 -52.05 28.3 -54.95 27.35 -57.65 27.1 -58.25 26.1 -61.15 26.05 -61.3 24.75 -65.1 18.25 -83.95 16.6 -89.0 16.4 -89.5 14.0 -97.0 12.7 -101.0 10.2 -109.05 9.95 -109.8 9.0 -113.0 Q6.95 -119.7 6.0 -123.5 M19.25 -101.0 L21.05 -94.9 21.05 -94.8 22.7 -89.5 22.85 -89.0 24.4 -83.95 Q27.0 -75.6 28.6 -71.25 L32.25 -61.3 41.4 -36.25 45.7 -24.5 47.9 -18.45 49.95 -12.9 51.6 -8.3 Q52.6 -4.7 52.2 -2.15 51.95 -0.55 51.2 0.6 49.2 3.6 44.15 6.0 32.15 11.75 -9.15 11.75 L-21.25 11.7 -50.65 10.55 Q-52.15 10.3 -54.55 7.85 L-56.6 5.65 -56.95 4.6 -57.0 4.3 Q-57.55 -0.6 -54.05 -21.6 L-53.85 -22.85 -52.65 -29.8 -52.55 -30.4 -52.05 -33.15 -46.95 -61.3 -42.8 -83.95 -41.8 -89.0 -40.2 -97.0 Q-34.85 -123.55 -32.05 -131.9 L-32.05 -138.6 Q-19.9 -134.55 -2.0 -134.55 2.9 -134.55 8.8 -135.5 L16.65 -109.8 19.25 -101.0" fill="#000000" fill-rule="evenodd" stroke="none"/>
      <path d="M2.45 -127.75 Q0.35 -119.8 -6.75 -114.9 L-4.1 -59.7 Q-2.65 -52.55 4.15 -52.55 11.9 -52.7 25.85 -61.05 L26.1 -61.15 27.1 -58.25 27.35 -57.65 28.3 -54.95 29.3 -52.05 Q23.55 -48.2 17.75 -45.55 L17.85 -45.2 Q21.5 -22.95 20.45 -0.7 L20.2 4.0 17.15 4.05 17.4 -0.2 Q18.5 -22.3 14.95 -44.4 L16.35 -44.95 17.75 -45.55 16.35 -44.95 14.95 -44.4 Q-12.1 -33.7 -41.1 -49.15 L-40.6 -52.25 -40.25 -54.65 -40.15 -54.8 Q-27.3 -47.85 -18.8 -48.25 -10.35 -48.6 -6.05 -55.85 L-5.35 -54.4 Q-2.5 -49.5 4.15 -49.55 12.4 -49.55 27.1 -58.25 12.4 -49.55 4.15 -49.55 -2.5 -49.5 -5.35 -54.4 L-6.05 -55.85 Q-10.35 -48.6 -18.8 -48.25 -27.3 -47.85 -40.15 -54.8 L-40.2 -54.85 -39.7 -57.95 -39.25 -57.75 Q-26.95 -51.0 -18.95 -51.25 -11.5 -51.6 -8.05 -58.5 L-7.15 -60.65 -9.75 -114.75 Q-18.45 -119.55 -21.25 -127.35 L-17.8 -127.0 Q-15.1 -121.2 -8.4 -117.45 -2.8 -121.35 -0.85 -127.4 L2.45 -127.75 M9.45 -108.8 Q10.3 -106.85 8.6 -105.75 6.35 -104.3 4.25 -107.2 4.8 -105.2 4.65 -103.75 4.45 -102.35 1.95 -101.85 -0.5 -101.4 -2.25 -106.25 -1.75 -105.35 -0.75 -105.05 L1.15 -105.25 4.25 -107.25 Q6.25 -108.8 7.6 -110.7 L8.65 -110.2 8.05 -111.3 7.6 -110.7 Q6.25 -108.8 4.25 -107.25 L1.15 -105.25 -0.75 -105.05 Q-1.75 -105.35 -2.25 -106.25 L-2.35 -106.55 Q-2.7 -107.35 -2.45 -108.15 -2.15 -109.15 -1.25 -109.65 6.05 -113.6 5.4 -121.7 5.3 -122.75 6.0 -123.5 6.95 -119.7 9.0 -113.0 L9.95 -109.8 8.65 -110.2 9.45 -108.8 M4.25 -107.25 L4.25 -107.2 4.25 -107.25 M9.0 -113.0 L8.05 -111.3 9.0 -113.0 M-29.4 -111.4 L-28.35 -116.9 -26.75 -125.6 Q-26.15 -125.15 -25.9 -124.35 -22.75 -113.5 -14.65 -109.75 -13.7 -109.35 -13.3 -108.4 -12.95 -107.45 -13.35 -106.5 -13.75 -105.6 -14.65 -105.2 L-14.75 -105.15 -14.7 -105.15 Q-17.15 -101.65 -19.35 -102.35 -21.6 -103.05 -21.55 -104.3 -21.55 -105.6 -20.85 -107.6 -24.2 -104.65 -26.35 -106.55 -28.55 -108.5 -25.7 -112.4 L-25.7 -112.45 Q-28.1 -111.4 -29.4 -111.4 M-40.6 -52.25 Q-11.7 -36.5 15.2 -47.7 L15.15 -47.7 Q21.75 -50.55 28.3 -54.95 21.75 -50.55 15.15 -47.7 L15.2 -47.7 Q-11.7 -36.5 -40.6 -52.25 M-25.7 -112.45 Q-26.95 -114.1 -28.35 -116.9 -26.95 -114.1 -25.7 -112.45 M-14.75 -105.15 L-16.65 -105.2 Q-18.9 -106.2 -20.85 -107.6 -23.6 -109.6 -25.7 -112.4 -23.6 -109.6 -20.85 -107.6 -18.9 -106.2 -16.65 -105.2 L-14.75 -105.15 M-7.15 -60.65 Q-6.7 -57.35 -6.05 -55.85 -6.7 -57.35 -7.15 -60.65 L-7.3 -59.35 -7.1 -59.4 -7.15 -60.65" fill="#ffffff" fill-rule="evenodd" stroke="none"/>
      <path d="M25.85 -61.05 L26.05 -61.3 26.1 -61.15 25.85 -61.05 M10.2 -109.05 L9.45 -108.8 8.65 -110.2 9.95 -109.8 10.2 -109.05" fill="#1a1a1a" fill-rule="evenodd" stroke="none"/>
      <path d="M-17.8 -127.0 L-12.75 -126.8 -9.75 -126.85 -0.85 -127.4 Q-2.8 -121.35 -8.4 -117.45 -15.1 -121.2 -17.8 -127.0" fill="#fff1dd" fill-rule="evenodd" stroke="none"/>
      <path d="M2.45 -127.75 Q0.35 -119.8 -6.75 -114.9 L-4.1 -59.7 Q-2.65 -52.55 4.15 -52.55 11.9 -52.7 25.85 -61.05 L26.1 -61.15 M-2.25 -106.25 L-2.35 -106.55 Q-2.7 -107.35 -2.45 -108.15 -2.15 -109.15 -1.25 -109.65 6.05 -113.6 5.4 -121.7 5.3 -122.75 6.0 -123.5 M8.65 -110.2 L8.05 -111.3 7.6 -110.7 8.65 -110.2 M4.25 -107.25 Q6.25 -108.8 7.6 -110.7 M4.25 -107.25 L1.15 -105.25 -0.75 -105.05 Q-1.75 -105.35 -2.25 -106.25 M8.05 -111.3 L9.0 -113.0 M27.1 -58.25 Q12.4 -49.55 4.15 -49.55 -2.5 -49.5 -5.35 -54.4 L-6.05 -55.85 Q-10.35 -48.6 -18.8 -48.25 -27.3 -47.85 -40.15 -54.8 M28.3 -54.95 Q21.75 -50.55 15.15 -47.7 L15.2 -47.7 Q-11.7 -36.5 -40.6 -52.25 M20.2 4.0 L20.45 -0.7 Q21.5 -22.95 17.85 -45.2 L17.75 -45.55 16.35 -44.95 14.95 -44.4 Q18.5 -22.3 17.4 -0.2 L17.15 4.05 M29.3 -52.05 Q23.55 -48.2 17.75 -45.55 M-26.75 -125.6 Q-26.15 -125.15 -25.9 -124.35 -22.75 -113.5 -14.65 -109.75 -13.7 -109.35 -13.3 -108.4 -12.95 -107.45 -13.35 -106.5 -13.75 -105.6 -14.65 -105.2 L-14.7 -105.15 M-25.7 -112.4 L-25.7 -112.45 -25.7 -112.4 Q-23.6 -109.6 -20.85 -107.6 -18.9 -106.2 -16.65 -105.2 L-14.75 -105.15 -14.65 -105.2 M-28.35 -116.9 Q-26.95 -114.1 -25.7 -112.45 M-2.35 -106.55 L-2.25 -106.25 M-0.85 -127.4 Q-2.8 -121.35 -8.4 -117.45 -15.1 -121.2 -17.8 -127.0 M-39.7 -57.95 L-39.25 -57.75 Q-26.95 -51.0 -18.95 -51.25 -11.5 -51.6 -8.05 -58.5 L-7.15 -60.65 -9.75 -114.75 Q-18.45 -119.55 -21.25 -127.35 M-40.2 -54.85 L-40.15 -54.8 M-6.05 -55.85 Q-6.7 -57.35 -7.15 -60.65 L-7.1 -59.4 M14.95 -44.4 Q-12.1 -33.7 -41.1 -49.15" fill="none" stroke="#000000" stroke-linecap="round" stroke-linejoin="round" stroke-width="2.0"/>
      <path d="M9.45 -108.8 Q10.3 -106.85 8.6 -105.75 6.35 -104.3 4.25 -107.2 4.8 -105.2 4.65 -103.75 4.45 -102.35 1.95 -101.85 -0.5 -101.4 -2.25 -106.25 M8.65 -110.2 L9.95 -109.8 M8.65 -110.2 L9.45 -108.8 M-14.7 -105.15 Q-17.15 -101.65 -19.35 -102.35 -21.6 -103.05 -21.55 -104.3 -21.55 -105.6 -20.85 -107.6 -24.2 -104.65 -26.35 -106.55 -28.55 -108.5 -25.7 -112.4 M-25.7 -112.45 Q-28.1 -111.4 -29.4 -111.4" fill="none" stroke="#000000" stroke-linecap="round" stroke-linejoin="round" stroke-width="1.5"/>
      <path d="M-1.8 -60.5 Q-0.7 -60.2 0.1 -59.55 0.95 -58.9 2.15 -59.35 3.35 -59.75 4.7 -58.85 6.05 -57.9 6.45 -58.25 L8.15 -58.6 10.25 -58.3 Q11.05 -57.9 12.2 -58.3 L14.15 -58.8 Q15.0 -58.95 15.75 -59.65 L17.45 -60.85 Q18.4 -61.35 19.45 -61.65 20.5 -61.95 21.3 -62.45 L23.3 -63.55 24.95 -64.3 Q25.4 -64.4 24.75 -65.1 M14.9 -0.2 L12.85 -0.1 11.45 0.35 9.55 0.25 7.5 0.5 Q6.65 0.95 5.65 0.8 L3.6 1.0 1.4 1.2 -0.8 0.7 -3.0 0.45 Q-4.1 0.5 -5.05 1.05 -6.0 1.6 -7.3 1.05 L-9.35 1.0 -10.9 1.5 -12.8 1.3 Q-13.95 1.15 -14.8 1.3 L-17.2 1.45 -19.65 1.55 Q-20.55 1.65 -21.55 0.95 -22.55 0.25 -23.3 0.8 -24.0 1.35 -24.6 1.35 L-26.9 1.15 -28.9 0.7 -30.75 0.0 -33.25 0.1 Q-34.3 0.8 -35.3 -0.15 -36.3 -1.05 -36.8 -0.7 -37.25 -0.3 -38.5 -0.5 L-40.9 -0.75 -43.4 -1.1 -44.85 -1.45 -45.75 -1.5 M43.0 -6.85 L41.2 -5.9 39.4 -4.75 Q38.45 -4.0 37.5 -3.55 36.55 -3.05 35.6 -3.05 L33.45 -2.85 Q32.2 -2.65 31.75 -2.2 31.3 -1.75 30.05 -1.75 L27.4 -1.45 Q25.95 -1.2 25.85 -0.9 L24.0 -0.7 M-12.4 -59.8 Q-13.3 -59.05 -14.15 -59.2 -15.0 -59.3 -16.35 -58.65 L-17.8 -57.6 Q-17.9 -57.15 -19.1 -56.55 -20.3 -55.95 -21.6 -56.15 L-23.85 -56.45 -25.9 -56.6 Q-26.9 -56.65 -27.85 -57.4 -28.8 -58.15 -29.6 -58.2 L-31.3 -58.5 Q-32.2 -58.8 -32.9 -59.55 L-34.2 -61.2 Q-34.8 -62.05 -36.0 -61.85 -37.2 -61.65 -37.45 -62.3 -37.7 -62.95 -38.7 -64.0" fill="none" stroke="#660000" stroke-linecap="round" stroke-linejoin="round" stroke-width="2.0"/>
      <path d="M-2.35 -76.6 Q-0.85 -75.05 -0.85 -72.85 -0.85 -70.7 -2.35 -69.1 -3.9 -67.55 -6.1 -67.55 -8.25 -67.55 -9.8 -69.1 -11.35 -70.7 -11.35 -72.85 -11.35 -75.05 -9.8 -76.6 -8.25 -78.2 -6.1 -78.2 -3.9 -78.2 -2.35 -76.6" fill="url(#gradient0)" fill-rule="evenodd" stroke="none"/>
      <path d="M-2.35 -76.6 Q-3.9 -78.2 -6.1 -78.2 -8.25 -78.2 -9.8 -76.6 -11.35 -75.05 -11.35 -72.85 -11.35 -70.7 -9.8 -69.1 -8.25 -67.55 -6.1 -67.55 -3.9 -67.55 -2.35 -69.1 -0.85 -70.7 -0.85 -72.85 -0.85 -75.05 -2.35 -76.6" fill="none" stroke="#000000" stroke-linecap="round" stroke-linejoin="round" stroke-width="1.0"/>
      <path d="M-3.4 -101.45 Q-1.9 -99.9 -1.9 -97.7 -1.9 -95.55 -3.4 -93.95 -4.95 -92.4 -7.15 -92.4 -9.3 -92.4 -10.85 -93.95 -12.4 -95.55 -12.4 -97.7 -12.4 -99.9 -10.85 -101.45 -9.3 -103.05 -7.15 -103.05 -4.95 -103.05 -3.4 -101.45" fill="url(#gradient1)" fill-rule="evenodd" stroke="none"/>
      <path d="M-3.4 -101.45 Q-4.95 -103.05 -7.15 -103.05 -9.3 -103.05 -10.85 -101.45 -12.4 -99.9 -12.4 -97.7 -12.4 -95.55 -10.85 -93.95 -9.3 -92.4 -7.15 -92.4 -4.95 -92.4 -3.4 -93.95 -1.9 -95.55 -1.9 -97.7 -1.9 -99.9 -3.4 -101.45" fill="none" stroke="#000000" stroke-linecap="round" stroke-linejoin="round" stroke-width="1.0"/>
      <path d="M23.0 -23.55 Q24.5 -22.0 24.5 -19.8 24.5 -17.65 23.0 -16.05 21.45 -14.5 19.25 -14.5 17.1 -14.5 15.55 -16.05 14.0 -17.65 14.0 -19.8 14.0 -22.0 15.55 -23.55 17.1 -25.15 19.25 -25.15 21.45 -25.15 23.0 -23.55" fill="url(#gradient2)" fill-rule="evenodd" stroke="none"/>
      <path d="M23.0 -23.55 Q21.45 -25.15 19.25 -25.15 17.1 -25.15 15.55 -23.55 14.0 -22.0 14.0 -19.8 14.0 -17.65 15.55 -16.05 17.1 -14.5 19.25 -14.5 21.45 -14.5 23.0 -16.05 24.5 -17.65 24.5 -19.8 24.5 -22.0 23.0 -23.55" fill="none" stroke="#000000" stroke-linecap="round" stroke-linejoin="round" stroke-width="1.0"/>
      <path d="M21.95 -38.8 Q23.45 -37.25 23.45 -35.05 23.45 -32.9 21.95 -31.3 20.4 -29.75 18.2 -29.75 16.05 -29.75 14.5 -31.3 12.95 -32.9 12.95 -35.05 12.95 -37.25 14.5 -38.8 16.05 -40.4 18.2 -40.4 20.4 -40.4 21.95 -38.8" fill="url(#gradient3)" fill-rule="evenodd" stroke="none"/>
      <path d="M21.95 -38.8 Q20.4 -40.4 18.2 -40.4 16.05 -40.4 14.5 -38.8 12.95 -37.25 12.95 -35.05 12.95 -32.9 14.5 -31.3 16.05 -29.75 18.2 -29.75 20.4 -29.75 21.95 -31.3 23.45 -32.9 23.45 -35.05 23.45 -37.25 21.95 -38.8" fill="none" stroke="#000000" stroke-linecap="round" stroke-linejoin="round" stroke-width="1.0"/>
    </g>
    <radialGradient cx="0" cy="0" gradientTransform="matrix(0.0122, -2.0E-4, 2.0E-4, 0.0122, -8.6, -75.15)" gradientUnits="userSpaceOnUse" id="gradient0" r="819.2" spreadMethod="pad">
      <stop offset="0.0" stop-color="#ffffff"/>
      <stop offset="0.09411764705882353" stop-color="#ffffff"/>
      <stop offset="0.5882352941176471" stop-color="#e30202"/>
      <stop offset="1.0" stop-color="#ff1a1a"/>
    </radialGradient>
    <radialGradient cx="0" cy="0" gradientTransform="matrix(0.0122, -2.0E-4, 2.0E-4, 0.0122, -9.65, -100.0)" gradientUnits="userSpaceOnUse" id="gradient1" r="819.2" spreadMethod="pad">
      <stop offset="0.0" stop-color="#ffffff"/>
      <stop offset="0.09411764705882353" stop-color="#ffffff"/>
      <stop offset="0.5882352941176471" stop-color="#e30202"/>
      <stop offset="1.0" stop-color="#ff1a1a"/>
    </radialGradient>
    <radialGradient cx="0" cy="0" gradientTransform="matrix(0.0122, -2.0E-4, 2.0E-4, 0.0122, 16.75, -22.1)" gradientUnits="userSpaceOnUse" id="gradient2" r="819.2" spreadMethod="pad">
      <stop offset="0.0" stop-color="#ffffff"/>
      <stop offset="0.09411764705882353" stop-color="#ffffff"/>
      <stop offset="0.5882352941176471" stop-color="#e30202"/>
      <stop offset="1.0" stop-color="#ff1a1a"/>
    </radialGradient>
    <radialGradient cx="0" cy="0" gradientTransform="matrix(0.0122, -2.0E-4, 2.0E-4, 0.0122, 15.7, -37.35)" gradientUnits="userSpaceOnUse" id="gradient3" r="819.2" spreadMethod="pad">
      <stop offset="0.0" stop-color="#ffffff"/>
      <stop offset="0.09411764705882353" stop-color="#ffffff"/>
      <stop offset="0.5882352941176471" stop-color="#e30202"/>
      <stop offset="1.0" stop-color="#ff1a1a"/>
    </radialGradient>
  </defs>
</svg>
