<?xml version="1.0" encoding="UTF-8" standalone="no"?>
<svg xmlns:xlink="http://www.w3.org/1999/xlink" height="342.0px" width="237.9px" xmlns="http://www.w3.org/2000/svg">
  <g transform="matrix(1, 0, 0, 1, 118.05, 273.9)">
    <use height="150.35" transform="matrix(1.0, 0.0, 0.0, 1.0, -57.05, -138.6)" width="109.35" xlink:href="#shape0"/>
  </g>
  <defs>
    <g id="shape0" transform="matrix(1, 0, 0, 1, 57.05, 138.6)">
      <path d="M19.25 -101.0 L21.05 -94.9 21.05 -94.8 22.7 -89.5 22.85 -89.0 24.4 -83.95 Q27.0 -75.6 28.6 -71.25 L32.25 -61.3 41.4 -36.25 45.7 -24.5 47.9 -18.45 49.95 -12.9 51.6 -8.3 Q52.6 -4.7 52.2 -2.15 51.95 -0.55 51.2 0.6 49.2 3.6 44.15 6.0 32.15 11.75 -9.15 11.75 L-21.25 11.7 -50.65 10.55 Q-52.15 10.3 -54.55 7.85 L-56.6 5.65 -56.95 4.6 -57.0 4.3 Q-57.55 -0.6 -54.05 -21.6 L-53.85 -22.85 -52.65 -29.8 -52.55 -30.4 -52.05 -33.15 -46.95 -61.3 -42.8 -83.95 -41.8 -89.0 -40.2 -97.0 Q-34.85 -123.55 -32.05 -131.9 L-32.05 -138.6 Q-19.9 -134.55 -2.0 -134.55 L8.75 -135.5 16.65 -109.8 19.25 -101.0 M5.15 -128.0 L5.15 -128.1 -9.75 -126.85 -12.75 -126.8 Q-19.65 -126.8 -26.25 -128.3 L-30.2 -107.15 -31.5 -100.5 -33.6 -90.8 -35.05 -83.95 -36.45 -76.45 -39.0 -62.5 -39.2 -61.3 -40.15 -55.25 -40.25 -54.65 -41.5 -46.5 -42.8 -37.8 -42.8 -37.75 -43.65 -31.45 -43.7 -31.5 -43.7 -31.45 -43.85 -30.4 -44.35 -26.8 -45.25 -20.95 -47.35 -6.15 -47.4 -6.0 -47.75 -3.85 -47.8 -3.7 -48.25 -1.2 -49.1 2.3 Q-48.7 2.15 -43.8 3.4 L-21.25 4.2 20.3 4.0 Q46.85 0.4 46.35 -6.1 L46.05 -7.25 45.55 -8.5 45.4 -8.85 44.6 -10.8 38.65 -26.05 38.25 -27.1 30.35 -49.1 30.35 -49.15 27.4 -57.45 27.35 -57.65 26.05 -61.3 Q21.4 -74.55 18.25 -83.95 L16.6 -89.0 16.4 -89.5 14.0 -97.0 12.7 -101.0 10.7 -107.45 Q5.35 -124.65 5.15 -128.0" fill="#000000" fill-rule="evenodd" stroke="none"/>
      <path d="M-26.25 -128.3 Q-19.65 -126.8 -12.75 -126.8 L-9.75 -126.85 5.15 -128.1 5.15 -128.0 Q3.2 -118.05 -8.95 -109.1 -22.2 -116.6 -26.25 -128.3" fill="#fff1dd" fill-rule="evenodd" stroke="none"/>
      <path d="M10.7 -107.45 L12.7 -101.0 14.0 -97.0 16.4 -89.5 16.6 -89.0 18.25 -83.95 Q21.4 -74.55 26.05 -61.3 L27.35 -57.65 27.4 -57.45 30.35 -49.15 30.35 -49.1 38.25 -27.1 38.65 -26.05 44.6 -10.8 Q10.75 2.45 -47.35 -6.15 L-45.25 -20.95 -44.35 -26.8 -43.85 -30.4 -43.7 -31.45 -43.65 -31.45 -42.8 -37.75 -42.8 -37.8 -41.5 -46.5 -40.25 -54.65 -40.15 -55.25 -39.2 -61.3 -39.0 -62.5 -36.45 -76.45 -35.05 -83.95 -33.6 -90.8 -31.5 -100.5 -30.2 -107.15 -21.25 -96.55 Q-13.2 -102.25 -8.95 -109.1 -3.7 -102.8 3.15 -95.35 L10.7 -107.45 M46.35 -6.1 Q46.85 0.4 20.3 4.0 L-21.25 4.2 -43.8 3.4 Q-48.7 2.15 -49.1 2.3 L-48.25 -1.2 -48.2 -1.2 -48.15 -1.2 Q11.5 7.65 46.35 -6.1 M27.4 -57.45 Q-5.35 -49.0 -40.15 -55.25 -5.35 -49.0 27.4 -57.45" fill="#88c4ff" fill-rule="evenodd" stroke="none"/>
      <path d="M5.15 -128.0 Q5.35 -124.65 10.7 -107.45 L3.15 -95.35 Q-3.7 -102.8 -8.95 -109.1 -13.2 -102.25 -21.25 -96.55 L-30.2 -107.15 -26.25 -128.3 Q-22.2 -116.6 -8.95 -109.1 3.2 -118.05 5.15 -128.0 M44.6 -10.8 L45.4 -8.85 45.55 -8.5 46.05 -7.25 46.35 -6.1 Q11.5 7.65 -48.15 -1.2 L-48.2 -1.2 -48.25 -1.2 -47.8 -3.7 -47.75 -3.85 -47.4 -6.0 -47.35 -6.15 Q10.75 2.45 44.6 -10.8" fill="#ffffff" fill-rule="evenodd" stroke="none"/>
      <path d="M-26.25 -128.3 Q-22.2 -116.6 -8.95 -109.1 3.2 -118.05 5.15 -128.0 M10.7 -107.45 L3.15 -95.35 Q-3.7 -102.8 -8.95 -109.1 -13.2 -102.25 -21.25 -96.55 L-30.2 -107.15 M-40.15 -55.25 Q-5.35 -49.0 27.4 -57.45" fill="none" stroke="#000000" stroke-linecap="round" stroke-linejoin="round" stroke-width="5.0"/>
      <path d="M12.0 -104.9 Q12.25 -98.3 7.5 -93.45 L6.25 -93.85 Q4.15 -94.7 2.05 -96.0 L0.3 -97.15 Q-2.4 -99.05 -5.1 -101.65 0.05 -87.2 12.05 -79.55 7.7 -76.75 3.1 -78.25 1.05 -73.65 -3.65 -73.55 -8.2 -85.95 -7.15 -102.0 L-7.6 -101.9 -8.05 -101.9 -8.1 -101.9 -8.6 -101.9 -9.0 -102.0 Q-7.55 -85.2 -12.05 -73.65 -16.95 -75.1 -17.25 -80.0 -23.4 -78.25 -27.15 -81.3 -15.0 -87.25 -10.2 -102.6 -13.5 -99.3 -16.45 -97.15 L-18.25 -96.0 Q-20.35 -94.7 -22.45 -93.85 L-23.7 -93.4 Q-28.45 -98.3 -28.2 -104.9 L-28.1 -106.15 Q-27.85 -108.5 -27.0 -111.05 -21.3 -112.0 -16.45 -111.05 -13.1 -110.35 -9.8 -108.2 L-10.5 -107.65 Q-11.5 -106.65 -11.5 -105.25 -11.5 -103.85 -10.5 -102.85 L-10.2 -102.6 Q-9.65 -102.15 -9.0 -102.0 -9.8 -102.25 -10.45 -102.85 -11.35 -103.75 -11.4 -104.9 L-11.4 -105.25 -11.3 -106.15 Q-11.1 -107.0 -10.45 -107.65 L-8.75 -108.6 -8.05 -108.65 -7.4 -108.55 Q-6.45 -108.35 -5.75 -107.65 -5.1 -107.0 -4.85 -106.1 L-4.75 -105.25 -4.75 -104.9 Q-4.85 -103.75 -5.7 -102.85 -6.35 -102.25 -7.15 -102.0 -6.55 -102.15 -5.8 -102.7 L-5.65 -102.85 Q-4.7 -103.85 -4.65 -105.25 -4.7 -106.65 -5.65 -107.65 L-6.15 -108.05 Q-3.1 -110.35 0.3 -111.05 5.1 -112.0 10.8 -111.05 11.65 -108.5 11.9 -106.1 L12.0 -104.9 M-5.8 -102.7 L-5.1 -101.65 -5.8 -102.7" fill="#ffff55" fill-rule="evenodd" stroke="none"/>
      <path d="M12.0 -104.9 Q12.25 -98.3 7.5 -93.45 L6.25 -93.85 Q4.15 -94.7 2.05 -96.0 L0.3 -97.15 Q-2.4 -99.05 -5.1 -101.65 0.05 -87.2 12.05 -79.55 7.7 -76.75 3.1 -78.25 1.05 -73.65 -3.65 -73.55 -8.2 -85.95 -7.15 -102.0 L-7.6 -101.9 -8.05 -101.9 -8.1 -101.9 -8.6 -101.9 -9.0 -102.0 Q-7.55 -85.2 -12.05 -73.65 -16.95 -75.1 -17.25 -80.0 -23.4 -78.25 -27.15 -81.3 -15.0 -87.25 -10.2 -102.6 -13.5 -99.3 -16.45 -97.15 L-18.25 -96.0 Q-20.35 -94.7 -22.45 -93.85 L-23.7 -93.4 Q-28.45 -98.3 -28.2 -104.9 L-28.1 -106.15 Q-27.85 -108.5 -27.0 -111.05 -21.3 -112.0 -16.45 -111.05 -13.1 -110.35 -9.8 -108.2 L-10.5 -107.65 Q-11.5 -106.65 -11.5 -105.25 -11.5 -103.85 -10.5 -102.85 L-10.2 -102.6 Q-9.65 -102.15 -9.0 -102.0 -9.8 -102.25 -10.45 -102.85 -11.35 -103.75 -11.4 -104.9 L-11.4 -105.25 -11.3 -106.15 Q-11.1 -107.0 -10.45 -107.65 L-8.75 -108.6 -8.05 -108.65 -7.4 -108.55 Q-6.45 -108.35 -5.75 -107.65 -5.1 -107.0 -4.85 -106.1 L-4.75 -105.25 -4.75 -104.9 Q-4.85 -103.75 -5.7 -102.85 -6.35 -102.25 -7.15 -102.0 -6.55 -102.15 -5.8 -102.7 L-5.65 -102.85 Q-4.7 -103.85 -4.65 -105.25 -4.7 -106.65 -5.65 -107.65 L-6.15 -108.05 Q-3.1 -110.35 0.3 -111.05 5.1 -112.0 10.8 -111.05 11.65 -108.5 11.9 -106.1 L12.0 -104.9 M-5.1 -101.65 L-5.8 -102.7" fill="none" stroke="#000000" stroke-linecap="round" stroke-linejoin="round" stroke-width="3.0"/>
    </g>
  </defs>
</svg>
