<?xml version="1.0" encoding="UTF-8" standalone="no"?>
<svg xmlns:xlink="http://www.w3.org/1999/xlink" height="342.0px" width="237.9px" xmlns="http://www.w3.org/2000/svg">
  <g transform="matrix(1, 0, 0, 1, 118.05, 273.9)">
    <use height="150.35" transform="matrix(1.0, 0.0, 0.0, 1.0, -57.05, -138.6)" width="109.35" xlink:href="#shape0"/>
  </g>
  <defs>
    <g id="shape0" transform="matrix(1, 0, 0, 1, 57.05, 138.6)">
      <path d="M25.3 -63.45 L18.25 -83.95 16.6 -89.0 16.4 -89.5 14.0 -97.0 12.7 -101.0 Q9.35 -111.55 7.5 -118.1 6.2 -122.6 5.65 -125.2 5.15 -127.2 5.15 -128.1 L-9.75 -126.85 -12.75 -126.8 Q-19.65 -126.8 -26.25 -128.3 L-27.1 -123.75 -28.05 -118.65 -31.5 -100.5 -33.6 -90.8 -35.05 -83.95 -36.45 -76.45 -39.0 -62.5 -39.2 -61.3 -39.4 -59.9 -40.25 -54.65 -41.5 -46.5 -42.8 -37.8 -42.8 -37.75 -43.65 -31.45 -43.7 -31.5 -43.7 -31.45 -43.85 -30.4 -44.35 -26.8 -45.25 -20.95 -47.2 -7.3 -48.05 -2.35 -49.1 2.3 Q-48.7 2.15 -43.8 3.4 L-21.25 4.2 20.3 4.0 Q49.1 0.1 46.05 -7.25 L44.3 -11.55 44.15 -11.85 38.65 -26.05 38.25 -27.1 30.35 -49.1 30.35 -49.15 27.35 -57.65 26.05 -61.3 25.3 -63.45 M19.25 -101.0 L21.05 -94.9 21.05 -94.8 22.7 -89.5 22.85 -89.0 24.4 -83.95 Q27.0 -75.6 28.6 -71.25 L32.25 -61.3 41.4 -36.25 45.7 -24.5 47.9 -18.45 49.95 -12.9 51.6 -8.3 Q52.6 -4.7 52.2 -2.15 51.95 -0.55 51.2 0.6 49.2 3.6 44.15 6.0 32.15 11.75 -9.15 11.75 L-21.25 11.7 -50.65 10.55 Q-52.15 10.3 -54.55 7.85 L-56.6 5.65 -56.95 4.6 -57.0 4.3 Q-57.55 -0.6 -54.05 -21.6 L-53.85 -22.85 -52.65 -29.8 -52.55 -30.4 -52.05 -33.15 -46.95 -61.3 -42.8 -83.95 -41.8 -89.0 -40.2 -97.0 Q-34.85 -123.55 -32.05 -131.9 L-32.05 -138.6 Q-19.9 -134.55 -2.0 -134.55 L8.9 -135.5 16.65 -109.8 19.25 -101.0" fill="#000000" fill-rule="evenodd" stroke="none"/>
      <path d="M7.5 -118.1 Q-9.85 -113.35 -28.05 -118.65 L-27.1 -123.75 -26.25 -128.3 Q-19.65 -126.8 -12.75 -126.8 L-9.75 -126.85 5.15 -128.1 Q5.15 -127.2 5.65 -125.2 6.2 -122.6 7.5 -118.1 M-15.65 -121.25 Q-23.6 -121.4 -27.1 -123.75 -23.6 -121.4 -15.65 -121.25 M-2.75 -123.75 Q2.1 -123.55 5.65 -125.2 2.1 -123.55 -2.75 -123.75" fill="#ffffff" fill-rule="evenodd" stroke="none"/>
      <path d="M7.5 -118.1 Q9.35 -111.55 12.7 -101.0 L14.0 -97.0 16.4 -89.5 16.6 -89.0 18.25 -83.95 25.3 -63.45 Q-5.8 -55.15 -39.4 -59.9 -5.8 -55.15 25.3 -63.45 L26.05 -61.3 27.35 -57.65 30.35 -49.15 30.35 -49.1 38.25 -27.1 38.65 -26.05 44.15 -11.85 44.3 -11.55 46.05 -7.25 Q49.1 0.1 20.3 4.0 L-21.25 4.2 -43.8 3.4 Q-48.7 2.15 -49.1 2.3 L-48.05 -2.35 -47.2 -7.3 -45.25 -20.95 -44.35 -26.8 -43.85 -30.4 -43.65 -31.45 -42.8 -37.75 -42.8 -37.8 -41.5 -46.5 -40.25 -54.65 -39.4 -59.9 -39.2 -61.3 -39.0 -62.5 -36.45 -76.45 -35.05 -83.95 -33.6 -90.8 -31.5 -100.5 -28.05 -118.65 Q-9.85 -113.35 7.5 -118.1" fill="#925ad2" fill-rule="evenodd" stroke="none"/>
      <path d="M-43.85 -30.4 L-43.7 -31.45 -43.7 -31.5 -43.65 -31.45 -43.85 -30.4" fill="#824efe" fill-rule="evenodd" stroke="none"/>
      <path d="M-27.1 -123.75 Q-23.6 -121.4 -15.65 -121.25 M5.65 -125.2 Q2.1 -123.55 -2.75 -123.75" fill="none" stroke="#d5d5d5" stroke-linecap="round" stroke-linejoin="round" stroke-width="2.0"/>
      <path d="M7.5 -118.1 Q-9.85 -113.35 -28.05 -118.65 M-39.4 -59.9 Q-5.8 -55.15 25.3 -63.45" fill="none" stroke="#000000" stroke-linecap="round" stroke-linejoin="round" stroke-width="4.0"/>
      <path d="M-15.5 -84.5 L-16.5 -84.05 -16.9 -84.3 -16.95 -84.35 -16.75 -85.45 -16.55 -87.55 Q-16.35 -89.9 -16.9 -91.8 L-16.95 -92.3 -17.25 -92.85 -17.4 -93.15 -17.5 -93.15 -17.55 -93.15 -17.1 -94.85 -16.7 -94.4 Q-15.25 -91.6 -14.95 -88.45 -14.8 -86.85 -15.2 -85.35 L-15.5 -84.5 M-11.45 -88.0 Q-9.4 -89.1 -7.65 -90.8 -7.55 -90.95 -7.5 -90.7 -7.0 -88.3 -8.95 -86.5 -11.65 -84.2 -14.3 -84.25 L-14.25 -84.5 Q-13.7 -86.95 -11.45 -88.0" fill="#4da958" fill-rule="evenodd" stroke="none"/>
      <path d="M-23.85 -90.55 Q-21.75 -88.0 -20.55 -84.55 -19.4 -81.2 -20.1 -77.75 L-20.2 -77.5 -19.85 -77.2 -19.75 -76.8 -19.8 -76.7 Q-25.75 -77.15 -23.7 -83.2 -23.3 -84.5 -23.45 -85.9 -23.85 -88.75 -23.85 -90.55 M-16.95 -84.35 L-17.4 -81.95 -17.55 -81.8 -17.65 -82.2 -17.75 -82.15 -18.0 -82.15 -17.55 -80.9 Q-17.45 -80.6 -17.75 -80.45 -21.45 -83.4 -19.65 -88.45 -18.2 -92.6 -18.7 -96.6 -18.8 -97.35 -18.1 -97.55 -15.35 -94.85 -14.4 -91.05 -13.9 -88.95 -14.05 -86.9 -13.1 -88.1 -11.4 -88.85 -8.6 -90.2 -7.85 -92.9 L-7.6 -93.15 Q-5.05 -89.55 -8.2 -86.2 -11.15 -83.1 -15.1 -83.3 L-15.15 -83.3 -15.3 -83.25 Q-15.75 -83.15 -16.0 -83.45 L-15.5 -84.5 -15.2 -85.35 Q-14.8 -86.85 -14.95 -88.45 -15.25 -91.6 -16.7 -94.4 L-17.1 -94.85 -17.55 -93.15 -17.55 -93.05 -17.5 -93.05 -17.5 -93.15 -17.4 -93.15 -17.25 -92.85 -16.95 -92.3 -16.9 -91.8 Q-16.35 -89.9 -16.55 -87.55 L-16.75 -85.45 -16.95 -84.35 M-11.45 -88.0 Q-13.7 -86.95 -14.25 -84.5 L-14.3 -84.25 Q-11.65 -84.2 -8.95 -86.5 -7.0 -88.3 -7.5 -90.7 -7.55 -90.95 -7.65 -90.8 -9.4 -89.1 -11.45 -88.0 M-22.2 -79.45 Q-22.7 -80.25 -22.5 -81.85 L-22.4 -84.45 Q-22.55 -82.95 -22.95 -81.45 L-23.15 -80.6 Q-23.25 -79.5 -22.65 -78.55 L-22.65 -78.5 Q-22.3 -77.9 -21.75 -77.75 L-21.3 -77.75 -21.25 -77.85 -21.15 -78.7 Q-21.9 -78.85 -22.2 -79.45" fill="#46974e" fill-rule="evenodd" stroke="none"/>
      <path d="M-22.2 -79.45 Q-21.9 -78.85 -21.15 -78.7 L-21.25 -77.85 -21.3 -77.75 -21.75 -77.75 Q-22.3 -77.9 -22.65 -78.5 L-22.65 -78.55 Q-23.25 -79.5 -23.15 -80.6 L-22.95 -81.45 Q-22.55 -82.95 -22.4 -84.45 L-22.5 -81.85 Q-22.7 -80.25 -22.2 -79.45" fill="#256529" fill-rule="evenodd" stroke="none"/>
      <path d="M-16.8 -86.25 Q-14.8 -86.35 -13.4 -84.85 -11.95 -83.35 -10.2 -82.35 L-10.15 -82.15 -10.35 -82.05 Q-10.2 -80.65 -11.65 -79.4 -10.15 -77.7 -10.0 -76.0 -9.4 -76.45 -8.6 -76.6 L-8.3 -76.65 Q-3.05 -74.0 -7.6 -69.1 -10.2 -66.35 -13.6 -66.1 L-13.8 -66.1 -15.85 -66.25 -16.2 -66.2 Q-20.25 -61.55 -26.7 -65.65 -28.1 -66.5 -27.5 -68.1 -26.85 -70.0 -25.1 -71.05 L-24.5 -71.0 Q-24.75 -71.5 -24.6 -72.25 L-24.35 -73.5 Q-26.35 -74.8 -25.95 -76.85 -25.55 -78.95 -24.7 -80.4 L-23.05 -83.05 -20.45 -85.8 -20.4 -85.8 Q-20.65 -86.95 -19.4 -87.8 L-17.55 -87.55 Q-16.85 -87.0 -16.85 -86.25 L-16.85 -86.0 -16.8 -86.25 M-19.4 -85.3 L-18.7 -85.05 Q-18.3 -85.05 -18.0 -85.3 -17.7 -85.65 -17.7 -86.05 -17.7 -86.45 -18.0 -86.75 L-18.7 -87.05 Q-19.15 -87.05 -19.4 -86.75 L-19.7 -86.05 -19.4 -85.3 M-16.2 -85.65 L-16.2 -85.55 Q-16.45 -84.65 -15.8 -84.0 -14.5 -82.75 -13.4 -83.6 L-13.75 -83.9 -16.2 -85.65 M-8.05 -70.8 Q-7.35 -71.9 -6.8 -73.25 -6.1 -75.0 -8.1 -75.35 L-10.05 -75.1 Q-10.25 -73.8 -11.25 -72.45 -12.2 -71.25 -13.3 -70.8 -13.55 -70.25 -14.7 -69.6 L-16.45 -68.15 -16.55 -67.95 -16.65 -67.8 -16.8 -67.65 -16.9 -67.4 -16.9 -67.3 -16.2 -66.85 -16.0 -66.75 -15.65 -66.75 -15.35 -66.65 -13.55 -66.95 Q-10.1 -67.85 -8.05 -70.8 M-14.05 -76.05 L-14.15 -75.25 -14.1 -75.25 -13.85 -75.85 -14.05 -76.05 M-16.5 -71.9 L-15.5 -71.85 Q-13.9 -71.85 -12.3 -72.85 -9.95 -74.3 -11.3 -76.6 L-11.45 -76.8 -11.9 -77.55 -12.2 -78.65 -12.2 -79.0 -12.4 -78.85 -12.7 -78.65 -12.85 -78.55 -13.1 -78.4 Q-13.75 -77.85 -13.9 -77.05 -12.1 -75.7 -14.1 -73.95 -15.55 -72.65 -17.25 -72.1 L-16.5 -71.9 M-19.0 -77.4 L-19.45 -74.9 Q-20.1 -72.65 -21.7 -71.0 L-21.45 -70.55 -21.35 -70.35 -20.3 -70.1 Q-18.3 -69.8 -17.05 -68.5 L-15.5 -70.55 Q-16.6 -70.75 -17.85 -71.45 -18.35 -71.75 -18.35 -72.3 L-18.35 -72.35 -18.35 -72.6 -18.35 -73.0 -18.3 -73.25 Q-16.05 -73.25 -14.75 -74.5 -15.4 -75.75 -14.5 -77.6 -13.35 -80.0 -11.4 -81.75 -14.1 -81.0 -17.55 -81.0 -18.45 -81.0 -19.05 -80.35 -18.8 -79.15 -19.0 -77.4 M-17.5 -67.7 L-17.55 -67.8 -17.85 -68.15 -17.95 -68.25 -18.7 -68.45 -21.9 -69.3 -22.4 -69.4 -23.25 -69.7 -23.85 -70.2 Q-25.15 -69.9 -25.75 -69.25 L-26.2 -68.15 Q-26.45 -67.4 -26.05 -66.55 L-25.6 -65.65 -25.0 -65.3 -24.65 -65.15 -22.4 -64.7 Q-19.45 -64.45 -17.0 -66.25 -17.8 -66.5 -17.4 -67.65 L-17.5 -67.7 M-20.4 -76.8 L-20.35 -77.8 -19.85 -80.15 -19.9 -80.2 Q-19.75 -81.45 -18.45 -81.95 L-22.0 -81.3 -22.25 -81.25 -22.85 -81.4 -24.15 -79.05 -24.3 -78.6 -24.4 -78.2 -24.6 -77.25 Q-24.75 -76.0 -24.3 -75.05 L-23.95 -74.5 -23.9 -74.55 -23.8 -74.45 -23.55 -74.25 -23.25 -73.8 Q-22.7 -73.35 -21.85 -73.05 L-21.7 -73.3 -21.6 -73.4 -20.75 -74.2 Q-20.3 -74.65 -20.35 -75.35 L-20.4 -76.8 M-23.25 -72.9 L-23.35 -72.65 -23.65 -71.75 -23.65 -71.1 -23.65 -71.05 -23.55 -70.65 -23.6 -70.45 -23.7 -70.45 -23.5 -70.35 -23.45 -70.3 -23.2 -70.15 -22.5 -70.05 -21.95 -70.2 -22.3 -70.6 -22.55 -71.35 Q-22.6 -72.05 -22.1 -72.8 L-23.25 -72.9" fill="#5e875f" fill-rule="evenodd" stroke="none"/>
      <path d="M-16.2 -85.65 L-13.75 -83.9 -13.4 -83.6 Q-14.5 -82.75 -15.8 -84.0 -16.45 -84.65 -16.2 -85.55 L-16.2 -85.65" fill="#355e3c" fill-rule="evenodd" stroke="none"/>
      <path d="M-16.85 -86.25 L-16.8 -86.25 -16.85 -86.0 -16.85 -86.25" fill="#375941" fill-rule="evenodd" stroke="none"/>
      <path d="M-19.4 -85.3 L-19.7 -86.05 -19.4 -86.75 Q-19.15 -87.05 -18.7 -87.05 L-18.0 -86.75 Q-17.7 -86.45 -17.7 -86.05 -17.7 -85.65 -18.0 -85.3 -18.3 -85.05 -18.7 -85.05 L-19.4 -85.3" fill="#ffffff" fill-rule="evenodd" stroke="none"/>
      <path d="M-19.0 -77.4 Q-18.8 -79.15 -19.05 -80.35 -18.45 -81.0 -17.55 -81.0 -14.1 -81.0 -11.4 -81.75 -13.35 -80.0 -14.5 -77.6 -15.4 -75.75 -14.75 -74.5 -16.05 -73.25 -18.3 -73.25 L-18.35 -73.0 -18.35 -72.6 -18.35 -72.35 -18.35 -72.3 Q-18.35 -71.75 -17.85 -71.45 -16.6 -70.75 -15.5 -70.55 L-17.05 -68.5 Q-18.3 -69.8 -20.3 -70.1 L-21.35 -70.35 -21.45 -70.55 -21.7 -71.0 Q-20.1 -72.65 -19.45 -74.9 L-19.0 -77.4" fill="#dad1cf" fill-rule="evenodd" stroke="none"/>
      <path d="M-22.25 -81.25 L-22.0 -81.3 -18.45 -81.95 Q-19.75 -81.45 -19.9 -80.2 L-19.85 -80.15 -20.35 -77.8 -20.4 -76.8 Q-20.9 -76.7 -21.6 -77.2 L-21.6 -77.3 Q-21.45 -77.95 -21.55 -78.55 L-22.0 -79.85 Q-22.45 -80.6 -22.25 -81.25" fill="#62906a" fill-rule="evenodd" stroke="none"/>
      <path d="M-13.1 -78.4 L-12.85 -78.55 -12.7 -78.65 -12.4 -78.85 -12.2 -79.0 -12.2 -78.65 -11.9 -77.55 -11.45 -76.8 -11.3 -76.6 Q-9.95 -74.3 -12.3 -72.85 -13.9 -71.85 -15.5 -71.85 L-16.5 -71.9 -13.65 -74.05 Q-12.45 -75.0 -12.05 -76.4 -12.2 -77.1 -12.65 -77.55 L-13.1 -78.4 M-22.25 -81.25 Q-22.45 -80.6 -22.0 -79.85 L-21.55 -78.55 Q-21.45 -77.95 -21.6 -77.3 L-21.6 -77.2 -21.7 -76.65 -22.3 -76.15 -22.5 -76.1 -23.6 -76.2 Q-24.2 -77.15 -24.25 -78.15 L-24.3 -78.6 -24.15 -79.05 -22.85 -81.4 -22.25 -81.25" fill="#4b7152" fill-rule="evenodd" stroke="none"/>
      <path d="M-21.6 -77.2 Q-20.9 -76.7 -20.4 -76.8 L-20.35 -75.35 Q-20.3 -74.65 -20.75 -74.2 L-21.15 -75.0 -22.5 -76.1 -22.75 -75.95 -23.1 -75.25 Q-23.2 -74.75 -22.85 -74.2 L-21.7 -73.3 -21.85 -73.05 Q-22.7 -73.35 -23.25 -73.8 L-23.55 -74.25 -23.8 -74.45 -23.9 -74.55 -23.95 -74.5 -24.3 -75.05 Q-24.75 -76.0 -24.6 -77.25 L-24.4 -78.2 -24.25 -78.15 Q-24.2 -77.15 -23.6 -76.2 L-22.5 -76.1 -22.3 -76.15 -21.7 -76.65 -21.6 -77.2" fill="#4da958" fill-rule="evenodd" stroke="none"/>
      <path d="M-20.75 -74.2 L-21.6 -73.4 -21.7 -73.3 -22.85 -74.2 Q-23.2 -74.75 -23.1 -75.25 L-22.75 -75.95 -22.5 -76.1 -21.15 -75.0 -20.75 -74.2" fill="#3e903f" fill-rule="evenodd" stroke="none"/>
      <path d="M-23.25 -72.9 L-22.1 -72.8 Q-22.6 -72.05 -22.55 -71.35 L-22.3 -70.6 -21.95 -70.2 -22.5 -70.05 -23.2 -70.15 -23.45 -70.3 -23.5 -70.35 -23.7 -70.45 -23.6 -70.45 -23.55 -70.65 -23.65 -71.05 -23.65 -71.1 -23.65 -71.75 -23.35 -72.65 -23.25 -72.9" fill="#0f5e0f" fill-rule="evenodd" stroke="none"/>
      <path d="M-16.45 -68.15 Q-14.05 -69.05 -12.15 -70.95 L-8.85 -73.65 -7.8 -73.6 -7.45 -73.45 Q-7.45 -72.05 -8.05 -70.8 -10.1 -67.85 -13.55 -66.95 L-15.35 -66.65 -15.65 -66.75 -16.0 -66.75 -16.2 -66.85 -16.9 -67.3 -16.9 -67.4 -16.8 -67.65 -16.65 -67.8 -16.55 -67.95 -16.45 -68.15 M-20.6 -65.25 Q-21.5 -64.75 -22.4 -64.7 L-24.65 -65.15 -25.55 -65.65 -25.55 -65.7 -25.6 -65.65 -26.05 -66.55 Q-26.45 -67.4 -26.2 -68.15 L-25.75 -69.25 Q-24.55 -68.15 -22.9 -67.85 -20.95 -67.45 -19.9 -66.05 L-19.75 -65.85 -20.6 -65.25" fill="#1b761b" fill-rule="evenodd" stroke="none"/>
      <path d="M-21.9 -69.3 L-18.7 -68.45 -17.95 -68.25 -17.85 -68.15 -17.55 -67.8 -17.5 -67.7 -17.4 -67.65 Q-17.8 -66.5 -17.0 -66.25 -19.45 -64.45 -22.4 -64.7 -21.5 -64.75 -20.6 -65.25 -19.45 -64.85 -18.65 -65.8 L-18.6 -66.05 -18.65 -66.35 Q-18.95 -67.3 -19.7 -67.95 -20.15 -68.35 -20.75 -68.6 L-21.9 -69.3" fill="#86a57f" fill-rule="evenodd" stroke="none"/>
      <path d="M-21.9 -69.3 L-20.75 -68.6 Q-20.15 -68.35 -19.7 -67.95 -18.95 -67.3 -18.65 -66.35 L-18.6 -66.05 -18.65 -65.8 Q-19.45 -64.85 -20.6 -65.25 L-19.75 -65.85 -19.9 -66.05 Q-20.95 -67.45 -22.9 -67.85 -24.55 -68.15 -25.75 -69.25 -25.15 -69.9 -23.85 -70.2 L-23.25 -69.7 -22.4 -69.4 -21.9 -69.3" fill="#649874" fill-rule="evenodd" stroke="none"/>
      <path d="M-8.05 -70.8 Q-7.45 -72.05 -7.45 -73.45 L-7.8 -73.6 -8.85 -73.65 -12.15 -70.95 Q-14.05 -69.05 -16.45 -68.15 L-14.7 -69.6 Q-13.55 -70.25 -13.3 -70.8 -12.2 -71.25 -11.25 -72.45 -10.25 -73.8 -10.05 -75.1 L-8.1 -75.35 Q-6.1 -75.0 -6.8 -73.25 -7.35 -71.9 -8.05 -70.8" fill="#4f825d" fill-rule="evenodd" stroke="none"/>
      <path d="M-13.1 -78.4 L-12.65 -77.55 Q-12.2 -77.1 -12.05 -76.4 -12.45 -75.0 -13.65 -74.05 L-16.5 -71.9 -17.25 -72.1 Q-15.55 -72.65 -14.1 -73.95 -12.1 -75.7 -13.9 -77.05 -13.75 -77.85 -13.1 -78.4" fill="#b5a59f" fill-rule="evenodd" stroke="none"/>
      <path d="M29.15 -33.05 L29.2 -33.1 29.15 -33.25 Q28.35 -34.8 27.0 -36.2 25.8 -37.45 25.5 -39.15 25.4 -39.85 25.95 -39.95 29.3 -37.9 31.5 -34.55 33.4 -31.65 30.15 -30.3 L28.4 -30.2 28.0 -30.1 28.0 -30.5 27.9 -30.8 27.7 -31.15 27.35 -31.5 28.95 -31.65 29.3 -31.9 29.4 -32.15 29.25 -32.55 29.15 -33.0 29.15 -33.05 M8.1 -24.6 L5.95 -24.7 5.95 -24.85 5.95 -25.0 5.95 -25.1 6.15 -25.35 6.3 -25.5 6.15 -25.75 6.1 -26.2 6.2 -26.65 6.35 -27.1 6.4 -27.25 8.75 -27.15 11.1 -27.5 11.5 -27.4 Q11.2 -27.25 11.25 -26.9 L11.35 -26.5 11.4 -26.35 11.55 -26.25 12.2 -26.35 12.3 -26.65 12.15 -27.25 13.85 -26.8 13.7 -26.75 Q13.3 -26.55 13.45 -26.05 L13.55 -25.85 13.95 -25.5 11.6 -25.75 11.35 -25.75 8.65 -25.55 8.45 -25.4 8.1 -24.85 8.1 -24.6 M14.1 -26.75 L14.85 -26.55 15.8 -26.25 Q15.4 -26.0 15.45 -25.5 L15.45 -25.2 15.0 -25.3 14.35 -25.55 14.4 -25.55 14.45 -25.7 14.45 -26.4 14.1 -26.75 M16.35 -26.05 L17.7 -25.65 18.35 -25.4 Q18.35 -25.4 18.45 -25.35 L18.75 -25.25 18.85 -25.2 18.9 -25.05 18.9 -25.0 18.45 -24.9 16.35 -25.0 16.5 -25.7 16.35 -26.05" fill="#69973f" fill-rule="evenodd" stroke="none"/>
      <path d="M29.15 -33.05 L29.15 -33.0 29.25 -32.55 29.4 -32.15 29.3 -31.9 28.95 -31.65 27.35 -31.5 Q26.5 -31.7 25.95 -32.45 L25.95 -32.5 25.9 -32.75 25.9 -32.65 25.9 -32.8 25.95 -32.9 25.95 -32.65 26.85 -32.7 29.15 -33.25 29.15 -33.05 M30.35 -13.8 L30.3 -13.7 Q28.7 -11.45 28.0 -10.95 L25.6 -10.8 Q25.3 -11.25 25.15 -11.75 L25.1 -12.75 25.1 -12.9 25.1 -13.3 25.5 -15.1 25.55 -15.2 25.7 -15.5 26.4 -12.3 Q27.15 -11.8 27.6 -12.15 28.0 -12.55 29.1 -12.9 L29.35 -12.95 30.3 -13.7 30.3 -13.75 30.35 -13.8 M19.75 -11.45 Q18.05 -8.6 14.95 -7.05 13.15 -6.15 11.25 -5.4 8.2 -4.35 7.7 -6.45 L9.35 -6.85 Q11.5 -7.45 13.5 -8.4 L16.35 -10.1 18.65 -11.95 19.3 -12.65 Q19.3 -11.65 19.75 -11.45 M17.0 -15.05 Q15.1 -16.5 14.6 -18.95 13.85 -22.1 16.75 -23.35 15.9 -24.35 14.4 -24.55 11.15 -25.05 8.1 -24.6 L8.1 -24.85 8.45 -25.4 8.65 -25.55 11.35 -25.75 11.6 -25.75 13.95 -25.5 14.0 -25.5 15.0 -25.3 15.45 -25.2 15.5 -25.2 Q15.6 -24.75 16.15 -24.8 L16.3 -24.9 16.35 -24.95 Q18.1 -24.35 19.0 -22.5 L18.95 -22.15 Q19.55 -21.2 19.05 -19.65 L17.9 -15.85 17.55 -14.9 17.2 -15.0 17.0 -15.05 M18.15 -27.1 Q16.85 -27.25 15.9 -28.3 14.8 -29.45 15.25 -30.2 L15.95 -30.15 20.5 -29.5 20.65 -29.5 21.2 -29.4 20.8 -29.9 20.9 -29.9 Q21.85 -29.05 21.5 -28.4 L21.45 -28.35 Q21.1 -27.75 19.7 -27.3 L18.9 -27.15 18.15 -27.1 M19.95 -36.35 L20.7 -36.95 Q22.0 -36.35 22.1 -35.65 22.15 -35.15 21.7 -34.65 L21.0 -34.0 Q20.15 -33.45 19.75 -34.35 L19.55 -35.3 Q19.55 -35.9 19.95 -36.35 M26.65 -15.75 L26.65 -15.7 26.65 -15.75 M29.65 -13.05 L29.8 -13.2 29.6 -13.05 29.65 -13.05 29.6 -13.0 29.65 -13.0 Q29.95 -13.15 29.65 -13.05" fill="#f1e8e2" fill-rule="evenodd" stroke="none"/>
      <path d="M28.65 -20.4 Q30.25 -19.55 29.5 -17.55 L29.1 -16.4 29.8 -16.65 30.35 -16.65 30.55 -16.6 Q31.45 -15.35 30.6 -14.05 L30.35 -13.8 30.3 -13.75 30.3 -13.7 29.35 -12.95 29.1 -12.9 Q28.0 -12.55 27.6 -12.15 27.15 -11.8 26.4 -12.3 L25.7 -15.5 25.55 -15.2 Q25.55 -16.4 25.2 -17.5 L24.8 -18.55 Q26.0 -19.0 26.45 -20.55 L26.65 -21.95 28.1 -22.25 Q27.85 -20.7 27.1 -19.3 L27.2 -18.75 27.7 -18.4 27.9 -18.6 28.4 -19.6 28.65 -20.4 M26.65 -15.75 L26.65 -15.7 26.65 -15.75 M29.65 -13.05 Q29.95 -13.15 29.65 -13.0 L29.6 -13.0 29.65 -13.05" fill="#426e15" fill-rule="evenodd" stroke="none"/>
      <path d="M17.4 -33.2 L16.9 -33.75 16.35 -34.1 14.35 -35.7 Q14.3 -35.95 14.6 -36.0 L17.9 -36.6 19.95 -36.35 Q19.55 -35.9 19.55 -35.3 L16.85 -35.35 17.15 -35.05 18.3 -33.15 18.55 -32.7 18.1 -33.2 17.9 -33.3 17.55 -33.3 17.4 -33.2 M18.7 -33.6 L18.7 -33.55 19.15 -33.3 21.1 -32.85 19.35 -33.2 18.7 -33.6" fill="#587a53" fill-rule="evenodd" stroke="none"/>
      <path d="M27.55 -29.5 L27.35 -29.55 27.0 -29.8 26.85 -30.1 26.7 -30.25 26.5 -30.3 26.15 -30.3 Q25.95 -30.3 25.85 -30.1 L25.1 -29.05 24.9 -28.8 Q24.5 -30.5 23.35 -31.9 L23.0 -31.65 22.9 -31.15 22.9 -30.75 23.0 -30.6 Q24.9 -27.85 23.7 -24.65 L22.65 -21.6 22.25 -23.4 Q21.8 -25.0 20.25 -25.95 22.1 -26.2 22.15 -27.7 L22.15 -27.85 22.05 -28.55 21.6 -29.8 22.8 -29.0 22.8 -29.2 Q21.95 -31.45 19.85 -32.85 L18.8 -32.85 18.55 -32.7 18.3 -33.15 17.15 -35.05 16.85 -35.35 19.55 -35.3 19.75 -34.35 Q20.15 -33.45 21.0 -34.0 L21.7 -34.65 Q23.3 -33.95 24.75 -32.6 L27.5 -30.0 27.55 -29.5 M19.15 -33.3 L18.7 -33.6 19.35 -33.2 21.1 -32.85 19.15 -33.3" fill="#426a26" fill-rule="evenodd" stroke="none"/>
      <path d="M15.25 -30.2 L14.85 -30.25 15.45 -30.9 17.4 -33.2 17.55 -33.3 17.9 -33.3 18.1 -33.2 18.55 -32.7 19.7 -31.2 19.75 -31.2 20.8 -29.9 21.2 -29.4 20.65 -29.5 20.5 -29.5 15.95 -30.15 15.25 -30.2" fill="#d32b0f" fill-rule="evenodd" stroke="none"/>
      <path d="M17.7 -25.65 L17.9 -25.8 18.1 -25.9 18.0 -26.3 18.15 -27.1 18.9 -27.15 19.7 -27.3 Q21.1 -27.75 21.45 -28.35 L21.5 -28.35 21.5 -28.4 Q21.85 -29.05 20.9 -29.9 L20.8 -29.9 19.75 -31.2 19.7 -31.2 18.55 -32.7 18.8 -32.85 19.85 -32.85 Q21.95 -31.45 22.8 -29.2 L22.8 -29.0 21.6 -29.8 22.05 -28.55 22.15 -27.85 22.15 -27.7 Q22.1 -26.2 20.25 -25.95 L20.0 -25.95 19.9 -25.9 19.75 -25.85 19.5 -25.15 Q19.1 -24.65 18.55 -24.85 18.45 -24.9 18.45 -24.9 L18.9 -25.0 18.9 -25.05 18.85 -25.2 18.75 -25.25 18.45 -25.35 Q18.35 -25.4 18.35 -25.4 L17.7 -25.65 M18.7 -33.6 L19.15 -33.3 18.7 -33.55 18.7 -33.6" fill="#456e2c" fill-rule="evenodd" stroke="none"/>
      <path d="M27.95 -30.1 Q29.2 -27.75 29.3 -24.85 29.35 -22.55 28.65 -20.4 L28.4 -19.6 27.9 -18.6 27.7 -18.4 27.2 -18.75 27.1 -19.3 Q27.85 -20.7 28.1 -22.25 L28.15 -22.85 28.1 -24.75 28.05 -24.9 27.85 -26.5 27.8 -27.0 27.7 -27.75 27.6 -28.8 27.55 -29.5 27.5 -30.0 27.5 -30.25 27.45 -30.8 27.55 -30.85 27.95 -30.1 M13.75 -10.3 L14.0 -10.8 14.25 -10.9 14.3 -10.85 14.8 -10.45 Q14.95 -10.15 14.75 -9.9 L14.6 -9.75 Q13.9 -9.5 13.8 -10.15 L13.75 -10.3 M11.5 -27.4 L11.6 -27.45 11.8 -27.5 12.15 -27.25 12.3 -26.65 12.2 -26.35 11.55 -26.25 11.4 -26.35 11.35 -26.5 11.25 -26.9 Q11.2 -27.25 11.5 -27.4 M13.85 -26.8 L13.9 -26.8 14.1 -26.75 14.45 -26.4 14.45 -25.7 14.4 -25.55 14.35 -25.55 14.0 -25.5 13.95 -25.5 13.55 -25.85 13.45 -26.05 Q13.3 -26.55 13.7 -26.75 L13.85 -26.8 M15.8 -26.25 L16.0 -26.3 16.35 -26.05 16.5 -25.7 16.35 -25.0 16.35 -24.95 16.3 -24.9 16.15 -24.8 Q15.6 -24.75 15.5 -25.2 L15.45 -25.2 15.45 -25.5 Q15.4 -26.0 15.8 -26.25 M22.65 -21.6 L23.7 -24.65 Q24.9 -27.85 23.0 -30.6 L22.9 -30.75 22.9 -31.15 23.0 -31.65 23.35 -31.9 Q24.5 -30.5 24.9 -28.8 L25.1 -27.7 25.1 -26.1 24.95 -25.2 24.95 -25.15 24.6 -23.75 24.3 -22.9 23.45 -21.0 23.0 -20.2 22.8 -19.85 22.55 -19.5 22.15 -18.9 21.95 -18.7 21.7 -18.7 21.95 -19.55 22.3 -20.6 22.65 -21.6 M24.8 -18.55 L24.65 -18.5 24.65 -18.85 Q24.65 -19.85 25.2 -20.95 L25.65 -22.1 25.8 -23.25 25.95 -23.3 26.15 -23.25 26.35 -23.1 26.5 -22.95 26.65 -21.95 26.45 -20.55 Q26.0 -19.0 24.8 -18.55 M17.45 -14.65 L17.65 -14.5 17.75 -14.3 17.8 -14.0 17.75 -13.45 17.65 -13.25 Q17.15 -13.15 16.9 -13.4 L16.65 -13.75 Q16.4 -14.35 16.9 -14.65 L17.05 -14.7 17.45 -14.65" fill="#1e350f" fill-rule="evenodd" stroke="none"/>
      <path d="M27.35 -31.5 L27.7 -31.15 27.9 -30.8 28.0 -30.5 28.0 -30.1 27.95 -30.1 27.55 -30.85 27.45 -30.8 27.5 -30.25 27.5 -30.0 24.75 -32.6 Q23.3 -33.95 21.7 -34.65 22.15 -35.15 22.1 -35.65 L23.9 -34.6 25.95 -32.9 25.9 -32.8 25.9 -32.75 25.95 -32.5 25.95 -32.45 Q26.5 -31.7 27.35 -31.5 M25.15 -11.75 Q23.9 -12.4 22.3 -12.2 L21.35 -12.2 21.05 -12.55 20.4 -13.7 20.15 -14.7 Q20.0 -15.85 20.5 -17.05 21.35 -19.2 21.55 -21.5 L21.7 -19.8 21.85 -19.6 21.95 -19.55 21.7 -18.7 21.95 -18.7 22.15 -18.9 22.55 -19.5 22.65 -19.55 22.8 -19.8 22.8 -19.85 23.0 -20.2 23.45 -21.0 24.3 -22.9 24.6 -23.75 24.95 -25.15 25.0 -25.15 24.95 -25.2 25.1 -26.1 25.1 -27.7 24.9 -28.8 25.1 -29.05 25.85 -30.1 Q25.95 -30.3 26.15 -30.3 L26.5 -30.3 26.7 -30.25 26.85 -30.1 27.0 -29.8 27.35 -29.55 27.55 -29.5 27.6 -28.8 27.55 -28.75 27.6 -28.8 27.7 -27.75 27.8 -27.0 27.85 -26.5 28.05 -24.9 28.1 -24.75 28.15 -22.85 28.1 -22.25 26.65 -21.95 26.5 -22.95 26.35 -23.1 26.15 -23.25 25.95 -23.3 25.8 -23.25 25.65 -22.1 25.2 -20.95 Q24.65 -19.85 24.65 -18.85 L24.65 -18.5 24.8 -18.55 25.2 -17.5 Q25.55 -16.4 25.55 -15.2 L25.5 -15.1 25.1 -13.3 25.1 -12.9 25.1 -12.75 25.15 -11.75 M20.15 -14.7 L20.45 -14.7 20.15 -14.7" fill="#365720" fill-rule="evenodd" stroke="none"/>
      <path d="M21.05 -12.55 L20.7 -12.75 Q20.1 -12.2 19.75 -11.45 19.3 -11.65 19.3 -12.65 L18.65 -11.95 16.35 -10.1 13.5 -8.4 Q11.5 -7.45 9.35 -6.85 L8.65 -6.8 7.7 -6.45 Q10.1 -8.2 12.75 -9.6 13.3 -9.9 13.75 -10.3 L13.8 -10.15 Q13.9 -9.5 14.6 -9.75 L14.75 -9.9 Q14.95 -10.15 14.8 -10.45 L14.3 -10.85 14.9 -11.85 Q15.75 -13.65 17.0 -15.05 L17.2 -15.0 17.55 -14.9 17.9 -15.85 19.05 -19.65 Q19.55 -21.2 18.95 -22.15 L19.0 -22.5 Q18.1 -24.35 16.35 -24.95 L16.35 -25.0 18.45 -24.9 Q18.45 -24.9 18.55 -24.85 19.1 -24.65 19.5 -25.15 L19.75 -25.85 19.9 -25.9 21.35 -22.35 21.55 -21.55 21.55 -21.5 Q21.35 -19.2 20.5 -17.05 20.0 -15.85 20.15 -14.7 L20.4 -13.7 21.05 -12.55 M17.45 -14.65 L17.05 -14.7 16.9 -14.65 Q16.4 -14.35 16.65 -13.75 L16.9 -13.4 Q17.15 -13.15 17.65 -13.25 L17.75 -13.45 17.8 -14.0 17.75 -14.3 17.65 -14.5 17.45 -14.65" fill="#416c23" fill-rule="evenodd" stroke="none"/>
      <path d="M20.25 -25.95 Q21.8 -25.0 22.25 -23.4 L22.65 -21.6 22.3 -20.6 21.95 -19.55 21.85 -19.6 21.7 -19.8 21.55 -21.5 21.55 -21.55 21.35 -22.35 19.9 -25.9 20.0 -25.95 20.25 -25.95 M22.8 -19.85 L22.8 -19.8 22.65 -19.55 22.55 -19.5 22.8 -19.85" fill="#44681b" fill-rule="evenodd" stroke="none"/>
      <path d="M7.8 -35.15 Q6.4 -31.95 2.4 -33.35 -0.45 -34.4 0.55 -36.8 L0.75 -36.95 Q1.85 -35.15 3.65 -34.85 5.5 -34.55 7.3 -35.3 L7.8 -35.15 M11.7 -40.35 Q11.9 -39.7 11.35 -39.35 9.5 -42.5 5.4 -41.7 3.3 -41.3 1.4 -42.4 L0.3 -44.65 Q-0.1 -45.45 -0.1 -46.35 -0.1 -46.9 0.45 -46.95 1.85 -43.45 5.35 -43.95 10.55 -44.75 11.7 -40.35 M-7.5 -41.95 Q-7.45 -37.9 -6.1 -33.4 -5.5 -31.45 -3.85 -30.35 -1.85 -28.95 0.9 -29.7 4.95 -30.85 8.55 -30.45 1.75 -25.9 -5.25 -30.0 -9.65 -32.65 -9.25 -37.85 -9.05 -40.45 -7.5 -41.95" fill="#c9deb1" fill-opacity="0.5019608" fill-rule="evenodd" stroke="none"/>
      <path d="M-31.75 -44.25 L-31.8 -44.4 -31.7 -44.75 -31.45 -45.05 Q-30.4 -44.95 -29.9 -45.7 -29.6 -46.25 -29.05 -46.35 -28.45 -46.1 -28.7 -45.45 -29.0 -44.6 -28.8 -44.45 L-28.75 -44.5 -28.55 -44.75 -27.85 -44.6 -27.7 -44.45 Q-28.3 -43.1 -29.3 -41.85 L-31.15 -40.05 -31.2 -39.85 -31.2 -39.75 -31.45 -40.2 -31.7 -40.25 -32.05 -40.25 -32.05 -40.2 -32.1 -40.1 -32.05 -40.5 -32.05 -40.6 Q-31.0 -41.35 -30.2 -42.35 -29.6 -43.1 -29.8 -44.15 L-31.2 -43.9 -31.35 -43.9 Q-31.7 -43.8 -31.75 -44.1 L-31.75 -44.25" fill="#525b46" fill-rule="evenodd" stroke="none"/>
      <path d="M-28.4 -37.95 Q-26.95 -38.3 -25.6 -39.15 L-24.0 -39.9 -23.35 -39.95 -23.4 -39.85 -23.15 -39.45 -23.0 -39.35 -22.05 -39.3 -21.9 -39.35 -21.85 -39.5 -21.75 -39.7 Q-20.7 -39.35 -20.0 -38.5 L-19.6 -37.9 -19.35 -37.4 -19.3 -36.75 Q-19.35 -36.35 -19.55 -36.0 L-19.85 -35.75 -20.3 -35.35 -20.5 -35.25 -21.9 -35.55 -22.15 -35.65 -24.5 -36.05 -24.7 -36.0 -24.8 -35.95 -24.9 -35.8 -24.9 -35.65 -25.05 -35.7 -25.75 -35.15 -26.0 -35.55 Q-25.95 -35.9 -26.35 -36.2 L-26.45 -36.35 -26.6 -36.5 -26.8 -36.9 -26.9 -37.15 -27.55 -37.05 -27.65 -37.15 -27.7 -37.25 -28.4 -37.95 M-29.25 -36.9 L-29.3 -36.9 -29.35 -36.9 -29.45 -37.0 -29.25 -36.9" fill="#5a8d2f" fill-rule="evenodd" stroke="none"/>
      <path d="M-23.35 -39.95 L-23.3 -40.45 -22.95 -40.75 Q-22.4 -40.9 -22.0 -40.45 -21.7 -40.15 -21.75 -39.7 L-21.85 -39.5 -21.9 -39.35 -22.05 -39.3 -23.0 -39.35 -23.15 -39.45 -23.4 -39.85 -23.35 -39.95 M-19.65 -38.45 L-19.8 -38.55 -19.85 -38.7 -19.9 -39.1 Q-19.95 -39.5 -19.6 -39.7 L-19.45 -39.7 -18.9 -39.7 -18.5 -39.5 -18.4 -39.35 -18.3 -39.15 -18.3 -38.75 -18.35 -38.6 -18.6 -38.45 -19.2 -38.3 -19.65 -38.45 M-35.75 -21.55 L-35.95 -21.65 -36.1 -21.75 -36.25 -21.9 -36.35 -22.3 -36.25 -22.8 -36.25 -22.9 -36.1 -23.05 -35.95 -23.15 -35.7 -23.25 -35.2 -23.25 -35.1 -23.2 -34.85 -23.05 -34.75 -22.9 -34.7 -22.55 -34.8 -21.9 -34.85 -21.75 -34.95 -21.65 -35.75 -21.55" fill="#f1e8e2" fill-rule="evenodd" stroke="none"/>
      <path d="M-30.65 -35.5 Q-32.05 -35.65 -33.55 -37.4 -34.7 -38.7 -34.2 -40.2 L-34.05 -40.55 -33.95 -40.6 -33.55 -39.7 -33.45 -39.7 -32.4 -39.35 Q-32.4 -38.55 -31.2 -37.8 L-30.5 -37.4 Q-30.0 -37.15 -29.45 -37.0 L-29.35 -36.9 -29.3 -36.9 -29.25 -36.9 -29.0 -36.9 -28.9 -36.85 -28.2 -36.8 -27.65 -36.8 -27.55 -37.05 -26.9 -37.15 -26.8 -36.9 -26.6 -36.5 -26.45 -36.35 -26.35 -36.2 Q-25.95 -35.9 -26.0 -35.55 -26.1 -35.15 -26.7 -34.7 L-27.05 -34.45 -27.1 -34.45 Q-27.6 -34.2 -28.05 -34.1 L-29.6 -34.35 -29.95 -34.55 -30.1 -34.75 -30.1 -35.55 -30.6 -35.5 -30.65 -35.5" fill="#9fa472" fill-rule="evenodd" stroke="none"/>
      <path d="M-31.2 -39.75 Q-30.65 -39.1 -29.7 -38.75 -29.0 -38.45 -28.4 -37.95 L-27.7 -37.25 -27.65 -37.15 -27.55 -37.05 -27.65 -36.8 -28.2 -36.8 -28.9 -36.85 -29.0 -36.9 -29.25 -36.9 -29.45 -37.0 Q-30.0 -37.15 -30.5 -37.4 L-31.2 -37.8 Q-32.4 -38.55 -32.4 -39.35 L-32.1 -40.1 -32.05 -40.2 -32.05 -40.25 -31.7 -40.25 -31.45 -40.2 -31.2 -39.75" fill="#25440f" fill-rule="evenodd" stroke="none"/>
      <path d="M-19.45 -22.0 L-20.15 -21.5 -21.9 -21.3 -22.55 -21.5 -22.7 -21.65 -23.3 -22.1 -23.3 -22.2 -23.4 -22.65 -23.3 -22.9 -23.15 -23.3 Q-23.0 -23.6 -24.9 -25.0 L-24.95 -25.0 -25.05 -25.05 -25.25 -25.0 -25.25 -25.25 -25.3 -26.05 Q-25.55 -27.15 -26.6 -27.95 -28.55 -29.3 -27.7 -31.35 L-27.2 -32.9 -27.0 -34.05 -27.0 -34.35 -27.05 -34.45 -26.7 -34.7 Q-26.1 -35.15 -26.0 -35.55 L-25.75 -35.15 -26.2 -34.6 -26.3 -33.75 -26.25 -33.6 Q-26.1 -32.95 -25.35 -32.15 -24.8 -31.6 -24.2 -31.5 -22.1 -31.1 -21.55 -32.1 L-21.15 -31.5 Q-21.2 -30.1 -20.4 -28.35 -19.75 -27.0 -19.75 -25.5 L-19.45 -23.25 -19.6 -23.25 -19.45 -23.05 -19.3 -22.7 -19.2 -22.5 -19.4 -22.0 -19.45 -22.0" fill="#d2c3a7" fill-rule="evenodd" stroke="none"/>
      <path d="M-27.05 -34.45 L-27.0 -34.35 -27.0 -34.05 -27.2 -32.9 -27.7 -31.35 Q-28.55 -29.3 -26.6 -27.95 -25.55 -27.15 -25.3 -26.05 L-25.25 -25.25 -25.25 -25.0 -25.05 -25.05 -25.0 -25.0 -24.95 -25.0 -24.9 -25.0 Q-23.0 -23.6 -23.15 -23.3 L-23.3 -22.9 -23.4 -22.65 -23.3 -22.2 -23.65 -22.05 -24.0 -22.15 -24.25 -21.05 -24.5 -20.35 Q-25.05 -19.2 -26.0 -18.7 L-26.2 -18.65 -26.3 -18.6 -26.6 -18.5 -26.65 -18.5 -26.7 -18.5 -27.1 -18.4 Q-25.15 -20.0 -25.15 -22.55 L-25.4 -24.4 -25.4 -24.45 -25.55 -24.4 -25.9 -24.2 -26.15 -24.1 -26.35 -23.35 -26.45 -22.45 -26.95 -21.65 Q-27.45 -21.2 -27.95 -21.2 L-28.05 -21.2 -27.95 -21.4 Q-27.25 -22.35 -27.8 -23.4 L-28.1 -23.9 -28.2 -23.95 -28.9 -23.25 -28.95 -23.35 -28.7 -24.5 Q-28.65 -25.85 -29.35 -27.25 L-29.8 -28.05 -30.45 -29.55 -30.1 -29.55 Q-29.8 -29.65 -29.65 -29.9 L-29.45 -30.75 -29.6 -31.1 -29.7 -31.2 -29.95 -31.3 -30.3 -31.3 -30.4 -31.3 -30.1 -34.75 -29.95 -34.55 -29.6 -34.35 -28.05 -34.1 Q-27.6 -34.2 -27.1 -34.45 L-27.05 -34.45 M-26.2 -25.25 L-26.6 -25.35 -26.75 -25.3 -26.95 -24.85 -26.5 -24.9 Q-25.75 -25.0 -26.2 -25.25 M-28.2 -27.1 L-28.15 -27.25 Q-28.0 -27.55 -28.3 -27.7 L-28.9 -27.8 -29.1 -27.7 -29.25 -27.3 Q-29.25 -27.1 -29.05 -27.0 L-28.2 -27.1 M-28.7 -30.0 L-28.7 -29.8 -28.4 -29.8 Q-27.5 -29.8 -28.35 -30.25 L-28.5 -30.2 -28.7 -30.0 M-29.55 -33.2 Q-30.2 -32.6 -29.45 -32.65 -28.55 -32.7 -29.4 -33.25 L-29.55 -33.2" fill="#6f9546" fill-rule="evenodd" stroke="none"/>
      <path d="M-30.45 -22.0 L-29.95 -22.4 -29.0 -23.15 -28.9 -23.25 -28.2 -23.95 -28.1 -23.9 -27.8 -23.4 Q-27.25 -22.35 -27.95 -21.4 L-28.05 -21.2 -27.95 -21.2 Q-28.05 -20.8 -28.45 -20.6 L-28.55 -20.7 -28.9 -20.4 -29.45 -20.05 Q-30.35 -19.6 -31.45 -19.45 L-32.05 -19.55 -32.6 -19.85 -32.15 -20.4 -32.05 -20.6 Q-30.85 -20.9 -30.45 -22.0 M-25.75 -35.15 L-25.05 -35.7 -24.9 -35.65 -24.9 -35.4 -24.9 -35.3 -24.9 -35.15 -24.9 -35.05 -24.9 -34.9 -24.75 -34.8 Q-24.9 -34.6 -25.35 -34.5 L-25.45 -34.45 -24.8 -33.2 -23.85 -32.0 -23.65 -31.65 Q-22.95 -32.15 -22.6 -32.85 L-22.0 -33.65 -21.6 -33.4 -21.55 -33.4 -21.45 -33.3 -21.4 -33.3 -21.4 -33.2 -21.4 -32.9 Q-21.4 -32.45 -21.55 -32.1 -22.1 -31.1 -24.2 -31.5 -24.8 -31.6 -25.35 -32.15 -26.1 -32.95 -26.25 -33.6 L-26.3 -33.75 -26.2 -34.6 -25.75 -35.15" fill="#e2dfdf" fill-rule="evenodd" stroke="none"/>
      <path d="M-19.4 -34.8 L-19.4 -34.75 -19.3 -34.65 -19.35 -34.4 -19.45 -34.15 -19.45 -34.1 -19.65 -33.75 -19.65 -33.6 -19.75 -33.35 -19.8 -33.3 -19.9 -33.05 -20.1 -32.85 -20.3 -32.7 -21.4 -33.3 -21.45 -33.3 -21.55 -33.4 -21.6 -33.4 -22.0 -33.65 -22.45 -33.9 -24.75 -34.8 -24.9 -34.9 -24.9 -35.05 -24.9 -35.15 -24.9 -35.3 -24.9 -35.4 -24.9 -35.65 -24.9 -35.8 -24.8 -35.95 -24.7 -36.0 -24.5 -36.05 -22.15 -35.65 -21.9 -35.55 -20.5 -35.25 -19.8 -35.05 -19.4 -34.8 M-30.9 -26.05 L-30.8 -26.05 -30.75 -25.95 -30.55 -25.6 -30.2 -24.2 -30.3 -22.65 -30.45 -22.0 Q-30.85 -20.9 -32.05 -20.6 L-32.25 -20.5 -32.65 -20.45 -32.75 -20.55 -32.75 -20.9 -32.15 -22.95 -31.55 -25.1 -31.5 -25.4 -31.3 -25.8 -31.15 -25.9 -31.05 -25.95 -30.9 -26.05" fill="#d32b0f" fill-rule="evenodd" stroke="none"/>
      <path d="M-24.75 -34.8 L-22.45 -33.9 -22.0 -33.65 -22.6 -32.85 Q-22.95 -32.15 -23.65 -31.65 L-23.85 -32.0 -24.8 -33.2 -25.45 -34.45 -25.35 -34.5 Q-24.9 -34.6 -24.75 -34.8" fill="#dfdfe7" fill-rule="evenodd" stroke="none"/>
      <path d="M-20.0 -38.5 L-19.65 -38.45 -19.2 -38.3 -18.65 -37.95 -18.0 -37.45 -17.8 -37.4 -17.7 -37.2 -17.3 -36.9 -17.15 -36.75 -17.1 -36.5 -17.05 -36.0 -17.1 -35.45 -17.15 -35.15 -19.3 -34.8 -19.4 -34.8 -19.8 -35.05 -20.5 -35.25 -20.3 -35.35 -19.85 -35.75 -19.55 -36.0 Q-19.35 -36.35 -19.3 -36.75 L-19.35 -37.4 -19.6 -37.9 -20.0 -38.5" fill="#679e49" fill-rule="evenodd" stroke="none"/>
      <path d="M-14.0 -30.6 Q-16.85 -29.3 -20.25 -30.9 L-20.25 -30.95 -20.45 -31.0 -20.7 -31.15 -21.15 -31.5 -21.55 -32.1 Q-21.4 -32.45 -21.4 -32.9 L-21.4 -33.2 -21.4 -33.3 -20.3 -32.7 -20.1 -32.85 -19.9 -33.05 -19.55 -32.6 -19.25 -32.25 -18.0 -31.3 Q-17.75 -31.15 -17.5 -31.1 L-15.45 -31.2 -14.2 -31.1 -13.2 -31.1 -14.0 -30.6" fill="#b1a387" fill-rule="evenodd" stroke="none"/>
      <path d="M-19.45 -34.1 Q-18.4 -32.65 -16.4 -32.6 -14.05 -32.5 -12.1 -31.75 -11.75 -31.6 -11.85 -31.3 L-11.9 -31.2 -13.2 -31.1 -14.2 -31.1 -15.45 -31.2 -17.5 -31.1 Q-17.75 -31.15 -18.0 -31.3 L-19.25 -32.25 -19.55 -32.6 -19.9 -33.05 -19.8 -33.3 -19.75 -33.35 -19.65 -33.6 -19.65 -33.75 -19.45 -34.1" fill="#1e4e0f" fill-rule="evenodd" stroke="none"/>
      <path d="M-20.25 -30.9 Q-19.0 -29.05 -18.2 -26.75 -17.45 -24.7 -18.25 -23.15 L-18.5 -22.75 -18.65 -22.2 -18.75 -22.05 -18.9 -21.95 -18.95 -22.05 -19.0 -22.1 -19.05 -22.05 -19.25 -21.85 -19.3 -21.8 -19.4 -21.75 -19.5 -21.8 -19.4 -22.0 -19.2 -22.5 -19.3 -22.7 -19.45 -23.05 -19.45 -23.25 -19.75 -25.5 Q-19.75 -27.0 -20.4 -28.35 -21.2 -30.1 -21.15 -31.5 L-20.7 -31.15 -20.45 -31.0 -20.25 -30.95 -20.25 -30.9" fill="#5a544f" fill-rule="evenodd" stroke="none"/>
      <path d="M-29.95 -22.4 L-30.05 -24.2 -30.2 -26.05 Q-30.3 -27.05 -30.75 -28.0 -32.6 -31.5 -30.85 -35.25 L-30.65 -35.5 -30.6 -35.5 -30.1 -35.55 -30.1 -34.75 -30.4 -31.3 -30.4 -31.25 -30.3 -31.3 -29.95 -31.3 -29.7 -31.2 -29.6 -31.1 -29.45 -30.75 -29.65 -29.9 Q-29.8 -29.65 -30.1 -29.55 L-30.45 -29.55 -29.8 -28.05 -29.35 -27.25 Q-28.65 -25.85 -28.7 -24.5 L-28.95 -23.35 -29.0 -23.15 -29.95 -22.4 M-28.7 -30.0 L-28.5 -30.2 -28.35 -30.25 Q-27.5 -29.8 -28.4 -29.8 L-28.7 -29.8 -28.7 -30.0 M-28.2 -27.1 L-29.05 -27.0 Q-29.25 -27.1 -29.25 -27.3 L-29.1 -27.7 -28.9 -27.8 -28.3 -27.7 Q-28.0 -27.55 -28.15 -27.25 L-28.2 -27.1 M-26.2 -25.25 Q-25.75 -25.0 -26.5 -24.9 L-26.95 -24.85 -26.75 -25.3 -26.6 -25.35 -26.2 -25.25 M-29.55 -33.2 L-29.4 -33.25 Q-28.55 -32.7 -29.45 -32.65 -30.2 -32.6 -29.55 -33.2" fill="#162f14" fill-rule="evenodd" stroke="none"/>
      <path d="M-36.15 -20.65 L-35.9 -20.65 -35.8 -19.7 -35.45 -18.7 Q-34.85 -17.55 -33.75 -18.1 -33.55 -16.25 -34.85 -14.75 -36.45 -12.8 -36.05 -10.3 L-34.6 -9.5 Q-36.95 -8.85 -36.9 -11.7 -36.85 -13.25 -37.2 -14.6 L-37.2 -14.65 -37.75 -16.25 -37.75 -16.5 -36.7 -16.55 -36.75 -16.75 -38.3 -19.15 -37.3 -19.65 Q-37.1 -19.8 -36.95 -20.45 L-36.15 -20.65 M-27.95 -21.2 Q-27.45 -21.2 -26.95 -21.65 L-26.45 -22.45 -26.35 -23.35 -26.15 -24.1 -25.9 -24.2 -25.55 -24.4 -25.4 -24.4 -25.15 -22.55 Q-25.15 -20.0 -27.1 -18.4 L-27.35 -18.35 -27.5 -18.35 -27.55 -18.35 -27.75 -18.35 -28.05 -19.65 -28.45 -20.6 Q-28.05 -20.8 -27.95 -21.2 M-26.6 -18.5 L-26.3 -18.6 -26.45 -18.35 -26.6 -18.5 M-36.75 -15.55 L-37.1 -15.35 -37.2 -15.0 -37.15 -14.7 -37.15 -14.65 Q-36.55 -14.1 -36.25 -14.85 -36.0 -15.55 -36.75 -15.55 M-36.1 -16.4 L-36.1 -16.25 -36.1 -15.6 Q-36.0 -15.2 -35.55 -15.2 L-35.4 -15.3 Q-35.0 -15.55 -35.0 -16.05 -34.95 -16.6 -35.55 -16.8 L-35.75 -16.7 -36.0 -16.5 -36.1 -16.4" fill="#61963c" fill-rule="evenodd" stroke="none"/>
      <path d="M-21.9 -21.3 Q-22.0 -20.05 -23.35 -18.9 L-26.55 -16.05 -26.65 -16.0 -26.8 -15.9 -26.85 -16.4 Q-27.4 -16.55 -27.6 -17.1 L-27.7 -17.35 -27.7 -17.65 -27.7 -18.0 -27.55 -18.35 -27.5 -18.35 -27.35 -18.35 -27.1 -18.4 -26.7 -18.5 -26.65 -18.5 -26.6 -18.5 -26.45 -18.35 -26.3 -18.6 -26.2 -18.65 -26.0 -18.7 Q-25.05 -19.2 -24.5 -20.35 L-24.25 -21.05 -24.0 -22.15 -23.65 -22.05 -23.3 -22.2 -23.3 -22.1 -22.7 -21.65 -22.55 -21.5 -21.9 -21.3" fill="#cbaf91" fill-rule="evenodd" stroke="none"/>
      <path d="M-26.65 -15.9 Q-26.6 -14.2 -27.25 -12.55 L-27.55 -11.8 -28.4 -10.65 -28.8 -10.3 -29.5 -9.9 -30.15 -9.7 -30.35 -9.65 -30.4 -9.65 Q-30.6 -9.6 -30.75 -9.5 L-31.5 -9.3 -31.95 -9.2 -32.85 -9.15 -33.2 -9.15 -33.65 -9.25 -33.9 -9.3 -34.6 -9.5 -36.05 -10.3 Q-36.45 -12.8 -34.85 -14.75 -33.55 -16.25 -33.75 -18.1 -33.55 -18.15 -33.35 -18.3 L-33.1 -18.45 Q-32.25 -19.05 -32.05 -19.55 L-31.45 -19.45 Q-30.35 -19.6 -29.45 -20.05 L-28.9 -20.4 -28.55 -20.7 -28.45 -20.6 -28.05 -19.65 -27.75 -18.35 -27.55 -18.35 -27.7 -18.0 -27.7 -17.65 -27.7 -17.35 -27.6 -17.1 Q-27.4 -16.55 -26.85 -16.4 L-26.8 -15.9 -26.65 -15.9" fill="#dfc8b9" fill-rule="evenodd" stroke="none"/>
      <path d="M-26.65 -16.0 L-26.65 -15.9 -26.8 -15.9 -26.65 -16.0" fill="#d2b49b" fill-rule="evenodd" stroke="none"/>
      <path d="M-18.25 -23.15 Q-16.75 -22.45 -16.35 -20.85 -15.95 -19.2 -17.0 -17.65 L-17.05 -17.6 -16.75 -17.45 -16.3 -17.0 -16.25 -17.0 Q-15.85 -16.95 -15.6 -16.6 L-15.55 -16.5 -15.5 -16.4 -15.45 -16.25 -15.45 -16.1 -15.45 -16.0 -18.15 -15.9 Q-18.95 -16.25 -19.15 -17.8 -19.4 -19.3 -18.45 -20.6 L-18.5 -20.75 -19.1 -21.2 Q-19.65 -21.4 -19.4 -21.75 L-19.3 -21.8 -19.25 -21.85 -19.05 -22.05 -19.0 -22.1 -18.95 -22.05 -18.9 -21.95 -18.75 -22.05 -18.65 -22.2 -18.5 -22.75 -18.25 -23.15 M-19.4 -22.0 L-19.45 -22.0 -19.4 -22.0" fill="#4c763e" fill-rule="evenodd" stroke="none"/>
      <path d="M-11.85 -31.3 Q-10.85 -30.95 -10.0 -30.35 L-9.85 -30.15 -10.05 -29.95 Q-10.45 -29.65 -10.9 -29.55 L-10.9 -29.4 -10.85 -28.85 -10.75 -28.5 -10.75 -27.95 Q-10.75 -27.75 -10.9 -27.6 -11.25 -27.25 -11.75 -27.3 L-12.25 -27.7 -12.45 -28.05 -12.55 -27.95 -12.7 -27.7 -12.8 -27.4 -13.05 -27.1 -13.3 -26.95 Q-14.1 -27.05 -13.95 -27.95 -13.75 -28.75 -13.85 -29.55 L-14.0 -30.6 -13.2 -31.1 -11.9 -31.2 -11.85 -31.3 M-12.45 -30.4 L-12.4 -30.45 -12.45 -30.45 -12.45 -30.4 M-11.8 -29.6 L-11.8 -29.7 -11.85 -29.6 -11.8 -29.6" fill="#88bf6a" fill-rule="evenodd" stroke="none"/>
      <path d="M-27.55 -11.8 Q-25.4 -12.05 -23.8 -10.85 L-23.4 -10.55 -21.9 -10.55 -19.9 -10.55 -19.75 -10.75 -19.6 -10.8 -19.45 -10.85 -19.25 -10.85 -18.9 -10.65 -18.8 -10.5 -18.95 -9.95 -19.0 -9.9 -19.05 -9.75 -19.1 -9.65 -19.15 -9.5 -19.2 -9.4 -19.3 -9.25 Q-20.65 -8.6 -22.2 -8.9 L-27.35 -9.85 -27.95 -9.95 Q-28.7 -10.1 -28.55 -10.35 L-28.3 -10.6 -28.4 -10.65 -27.55 -11.8" fill="#415a38" fill-rule="evenodd" stroke="none"/>
      <path d="M-27.35 -9.85 Q-28.3 -8.95 -29.7 -9.1 L-29.9 -9.15 Q-30.4 -8.5 -31.35 -8.2 L-31.95 -8.1 -33.55 -8.1 -33.3 -8.85 -32.85 -9.15 -31.95 -9.2 -31.5 -9.3 -30.75 -9.5 Q-30.6 -9.6 -30.4 -9.65 L-30.35 -9.65 -30.15 -9.7 -29.5 -9.9 -28.8 -10.3 -28.55 -10.35 Q-28.7 -10.1 -27.95 -9.95 L-27.35 -9.85" fill="#a9a77f" fill-rule="evenodd" stroke="none"/>
      <path d="M-34.2 -40.2 Q-34.4 -41.05 -33.65 -42.05 L-31.75 -44.25 -31.75 -44.1 Q-31.7 -43.8 -31.35 -43.9 L-31.2 -43.9 -29.8 -44.15 Q-29.6 -43.1 -30.2 -42.35 -31.0 -41.35 -32.05 -40.6 L-32.05 -40.5 -32.1 -40.1 -32.4 -39.35 -33.45 -39.7 -33.5 -39.75 -33.55 -39.7 -33.95 -40.6 -34.05 -40.55 -34.2 -40.2" fill="#62a33e" fill-rule="evenodd" stroke="none"/>
      <path d="M-35.9 -20.65 L-35.75 -21.55 -34.95 -21.65 -34.85 -21.75 -34.8 -21.9 -34.7 -22.55 -34.75 -22.9 -34.85 -23.05 -35.1 -23.2 Q-34.0 -25.25 -31.7 -26.05 L-31.0 -26.05 -30.9 -26.05 -31.05 -25.95 -31.15 -25.9 -31.3 -25.8 -31.5 -25.4 -31.55 -25.1 -32.15 -22.95 -32.75 -20.9 -32.75 -20.55 -32.65 -20.45 -32.25 -20.5 -32.15 -20.4 -32.6 -19.85 -32.05 -19.55 Q-32.25 -19.05 -33.1 -18.45 L-33.35 -18.3 Q-33.55 -18.15 -33.75 -18.1 -34.85 -17.55 -35.45 -18.7 L-35.8 -19.7 -35.9 -20.65 M-30.75 -25.95 L-30.55 -25.7 -30.5 -25.6 -30.55 -25.6 -30.75 -25.95" fill="#29480f" fill-rule="evenodd" stroke="none"/>
      <path d="M-38.9 -16.35 L-41.0 -18.6 Q-42.4 -19.7 -41.5 -22.1 L-41.4 -22.2 -41.35 -22.3 -41.35 -22.4 -41.25 -22.65 -41.2 -22.8 -40.65 -24.05 -40.65 -23.95 -40.8 -21.5 -40.3 -20.1 Q-39.65 -18.7 -38.3 -19.15 L-36.75 -16.75 -36.7 -16.55 -37.75 -16.5 -37.75 -16.25 -37.85 -16.4 -38.4 -17.3 -38.7 -17.65 -38.9 -17.6 -39.05 -17.45 -39.1 -16.95 -39.05 -16.75 -38.9 -16.4 -38.9 -16.35 M-40.6 -24.45 L-40.65 -24.05 -40.6 -24.45 M-38.35 -15.9 L-38.3 -15.9 -38.25 -15.8 -38.2 -15.55 -38.25 -15.35 -38.35 -15.9" fill="#3b6223" fill-rule="evenodd" stroke="none"/>
      <path d="M-39.35 -23.75 L-39.4 -21.85 Q-39.4 -21.5 -39.0 -21.25 -38.35 -20.9 -36.75 -20.7 L-36.45 -20.65 -36.25 -20.65 -36.15 -20.65 -36.95 -20.45 Q-37.1 -19.8 -37.3 -19.65 L-38.3 -19.15 Q-39.65 -18.7 -40.3 -20.1 L-40.8 -21.5 -40.65 -23.95 -40.65 -24.05 -40.6 -24.45 -40.65 -23.9 -40.4 -24.35 -39.75 -25.0 -39.4 -24.1 -39.35 -23.75 M-40.65 -23.85 L-40.65 -23.75 -40.65 -23.85" fill="#9fb075" fill-rule="evenodd" stroke="none"/>
      <path d="M-40.65 -24.05 Q-40.7 -24.5 -40.35 -24.85 L-40.15 -25.05 -39.5 -25.9 Q-38.55 -26.8 -38.0 -28.0 L-37.8 -28.15 Q-36.65 -26.95 -37.7 -25.35 -38.35 -24.35 -39.35 -23.75 L-39.4 -24.1 -39.75 -25.0 -40.4 -24.35 -40.65 -23.9 -40.6 -24.45 -40.65 -24.05 M-40.65 -23.85 L-40.65 -23.75 -40.65 -23.85" fill="#314519" fill-rule="evenodd" stroke="none"/>
      <path d="M-33.55 -8.1 Q-34.5 -6.25 -37.4 -7.7 -39.05 -8.55 -39.3 -10.45 -39.7 -13.4 -38.95 -16.25 L-38.9 -16.35 -38.9 -16.4 -39.05 -16.75 -39.1 -16.95 -39.05 -17.45 -38.9 -17.6 -38.7 -17.65 -38.4 -17.3 -37.85 -16.4 -37.75 -16.25 -37.2 -14.65 -37.2 -14.6 Q-36.85 -13.25 -36.9 -11.7 -36.95 -8.85 -34.6 -9.5 L-33.9 -9.3 -33.65 -9.25 -33.2 -9.15 -32.85 -9.15 -33.3 -8.85 -33.55 -8.1 M-38.35 -15.9 L-38.25 -15.35 -38.2 -15.55 -38.25 -15.8 -38.3 -15.9 -38.35 -15.9 M-36.75 -15.55 Q-36.0 -15.55 -36.25 -14.85 -36.55 -14.1 -37.15 -14.65 L-37.15 -14.7 -37.2 -15.0 -37.1 -15.35 -36.75 -15.55 M-36.1 -16.4 L-36.0 -16.5 -35.75 -16.7 -35.55 -16.8 Q-34.95 -16.6 -35.0 -16.05 -35.0 -15.55 -35.4 -15.3 L-35.55 -15.2 Q-36.0 -15.2 -36.1 -15.6 L-36.1 -16.25 -36.1 -16.4" fill="#22420f" fill-rule="evenodd" stroke="none"/>
      <path d="M-29.7 -9.1 L-29.6 -8.55 Q-29.55 -7.75 -29.9 -7.15 L-30.1 -6.9 Q-31.35 -6.95 -31.95 -8.05 L-31.95 -8.1 -31.35 -8.2 Q-30.4 -8.5 -29.9 -9.15 L-29.7 -9.1" fill="#7cb35d" fill-rule="evenodd" stroke="none"/>
      <path d="M-36.2 -65.55 L-36.25 -65.15 -36.5 -64.9 -36.9 -64.95 -37.15 -65.2 -38.05 -67.7 -37.65 -69.75 -36.2 -65.55 M-35.05 -83.95 L-34.95 -84.4 -34.05 -83.15 -33.9 -83.55 -33.65 -83.8 -33.25 -83.8 -33.0 -83.55 -33.0 -83.15 -33.4 -82.2 -33.0 -81.55 -32.95 -81.2 -33.15 -80.85 -33.55 -80.8 -33.85 -81.0 -33.95 -81.1 -36.2 -76.4 -34.9 -74.3 -34.1 -75.15 -33.75 -75.3 -33.4 -75.15 Q-33.25 -75.05 -33.25 -74.8 L-33.35 -74.45 -34.35 -73.4 -33.9 -72.7 -33.85 -72.35 -34.05 -72.0 -34.45 -71.95 -34.75 -72.15 -35.4 -73.15 -35.4 -73.2 -35.45 -73.25 -36.65 -75.2 -36.45 -76.45 -35.9 -79.25 -34.55 -82.1 -35.2 -83.0 -35.05 -83.95 M-32.15 -90.5 L-31.8 -91.0 -31.45 -91.2 -31.1 -91.1 -30.9 -90.75 -31.0 -90.4 -31.65 -89.45 -31.55 -89.15 -31.5 -88.8 -31.75 -88.5 -32.15 -88.45 -32.3 -88.55 -34.85 -84.95 -34.35 -87.3 -32.8 -89.55 -33.5 -91.05 -33.15 -92.65 -32.15 -90.5 M-30.05 -100.3 L-29.65 -100.2 -29.45 -99.9 Q-29.4 -99.7 -29.5 -99.5 L-30.9 -97.3 -30.9 -97.25 -30.95 -97.2 -31.05 -97.1 -31.1 -97.1 -31.25 -97.05 -31.45 -97.05 -31.6 -97.1 -31.7 -97.2 -31.5 -96.85 -31.3 -96.7 -32.75 -94.3 -32.15 -97.15 -31.95 -97.5 -32.05 -97.7 -31.75 -99.05 -31.35 -98.45 -30.35 -100.05 -30.05 -100.3 M-30.7 -103.8 L-30.75 -104.1 -30.05 -107.95 -29.75 -107.9 -29.45 -107.6 Q-29.4 -107.45 -29.5 -107.25 L-30.15 -105.9 -29.75 -104.05 Q-29.7 -103.9 -29.8 -103.7 L-30.1 -103.45 -30.5 -103.5 -30.7 -103.8 M23.8 -67.7 L23.2 -66.3 22.95 -66.0 22.55 -66.05 Q22.35 -66.1 22.3 -66.3 L22.3 -66.7 23.3 -69.1 23.8 -67.7 M20.2 -72.25 L20.2 -72.6 20.5 -72.85 20.9 -72.85 21.6 -72.45 21.8 -73.4 22.8 -70.6 21.75 -71.2 21.7 -71.25 20.45 -71.95 20.2 -72.25 M14.8 -88.7 L15.2 -88.8 15.5 -88.6 16.15 -87.7 16.6 -88.9 17.1 -87.35 16.9 -86.75 17.65 -85.7 18.25 -83.95 18.7 -82.65 16.45 -85.7 16.15 -85.45 15.8 -85.4 15.5 -85.7 15.5 -86.05 15.75 -86.65 14.7 -88.0 14.6 -88.35 14.8 -88.7 M12.05 -94.1 Q12.15 -94.3 12.35 -94.3 L12.7 -94.25 13.75 -93.65 14.55 -95.2 15.0 -93.85 14.65 -93.2 15.35 -92.8 15.8 -91.4 14.15 -92.3 14.05 -92.15 13.75 -91.9 13.4 -91.95 Q13.2 -92.05 13.15 -92.25 L13.15 -92.6 13.3 -92.8 12.2 -93.4 12.0 -93.7 12.05 -94.1 M20.55 -77.2 L20.95 -75.95 Q20.1 -76.35 19.2 -76.7 L19.1 -76.4 18.9 -76.05 18.5 -76.0 18.2 -76.2 18.1 -76.6 18.25 -77.1 17.25 -77.55 17.0 -77.8 17.0 -78.2 17.3 -78.45 17.65 -78.45 18.55 -78.05 19.3 -80.9 19.85 -79.2 19.45 -77.65 20.55 -77.2 M11.2 -100.55 Q11.05 -100.7 11.05 -100.9 L11.2 -101.25 11.55 -101.4 11.95 -101.25 13.0 -100.15 13.7 -97.95 13.55 -98.1 13.2 -98.05 12.9 -98.3 Q12.75 -98.5 12.85 -98.65 L12.9 -98.8 11.2 -100.55 M11.65 -104.3 Q11.45 -104.4 11.4 -104.6 L11.4 -104.95 11.45 -105.0 11.7 -104.25 11.65 -104.3 M9.9 -107.0 L10.0 -107.35 Q10.1 -107.55 10.3 -107.6 L10.65 -107.5 11.15 -106.0 10.15 -106.7 Q9.95 -106.8 9.9 -107.0" fill="#c10202" fill-rule="evenodd" stroke="none"/>
    </g>
  </defs>
</svg>
