<?xml version="1.0" encoding="UTF-8" standalone="no"?>
<svg xmlns:xlink="http://www.w3.org/1999/xlink" height="342.0px" width="237.9px" xmlns="http://www.w3.org/2000/svg">
  <g transform="matrix(1, 0, 0, 1, 118.05, 273.9)">
    <use height="150.35" transform="matrix(1.0, 0.0, 0.0, 1.0, -57.05, -138.6)" width="109.35" xlink:href="#shape0"/>
  </g>
  <defs>
    <g id="shape0" transform="matrix(1, 0, 0, 1, 57.05, 138.6)">
      <path d="M-3.45 -127.15 L-0.95 -127.35 5.15 -128.1 5.15 -128.05 Q5.2 -126.75 6.15 -123.1 L6.55 -121.5 Q0.1 -114.35 -9.15 -113.65 0.1 -114.35 6.55 -121.5 7.65 -117.25 9.7 -110.55 L10.05 -109.45 10.1 -109.3 12.7 -101.0 13.0 -100.05 14.0 -97.0 16.4 -89.5 16.6 -89.0 18.25 -83.95 24.85 -64.7 26.05 -61.3 27.35 -57.65 27.6 -56.9 27.65 -56.7 Q-4.25 -50.3 -40.3 -54.15 L-40.25 -54.65 -40.15 -55.2 -39.2 -61.3 -39.0 -62.5 -38.8 -63.55 -36.45 -76.45 -35.05 -83.95 -33.6 -90.8 -31.5 -100.45 -31.5 -100.5 -29.85 -108.95 -29.7 -109.8 -27.55 -121.15 -27.1 -123.8 -26.25 -128.3 -19.75 -127.2 -18.6 -127.05 Q-16.15 -119.3 -9.15 -113.65 -3.9 -119.9 -3.45 -127.15 M-41.1 -48.95 Q-3.6 -44.8 29.45 -51.65 L30.35 -49.15 30.35 -49.1 38.25 -27.1 38.65 -26.05 44.15 -11.85 44.3 -11.55 46.05 -7.25 Q49.1 0.1 20.3 4.0 L-21.25 4.2 -43.8 3.4 Q-48.7 2.15 -49.1 2.3 L-48.05 -2.35 -47.2 -7.3 -45.25 -20.95 -44.35 -26.8 -43.85 -30.4 -43.7 -31.45 -43.7 -31.5 -43.65 -31.45 -42.8 -37.75 -42.8 -37.8 -41.5 -46.5 -41.1 -48.95 M-27.55 -121.15 Q-21.15 -112.9 -9.15 -113.65 -21.15 -112.9 -27.55 -121.15" fill="#ffff6b" fill-rule="evenodd" stroke="none"/>
      <path d="M6.55 -121.5 L6.15 -123.1 Q5.2 -126.75 5.15 -128.05 L5.15 -128.1 -0.95 -127.35 -3.45 -127.15 -9.75 -126.85 -12.75 -126.8 -18.6 -127.05 -19.75 -127.2 -26.25 -128.3 -27.1 -123.8 -27.55 -121.15 -29.7 -109.8 -29.85 -108.95 -31.5 -100.5 -31.5 -100.45 -33.6 -90.8 -35.05 -83.95 -36.45 -76.45 -38.8 -63.55 -39.0 -62.5 -39.2 -61.3 -40.15 -55.2 -40.25 -54.65 -40.3 -54.15 -41.1 -48.95 -41.5 -46.5 -42.8 -37.8 -42.8 -37.75 -43.65 -31.45 -43.7 -31.5 -43.7 -31.45 -43.85 -30.4 -44.35 -26.8 -45.25 -20.95 -47.2 -7.3 -48.05 -2.35 -49.1 2.3 Q-48.7 2.15 -43.8 3.4 L-21.25 4.2 20.3 4.0 Q49.1 0.1 46.05 -7.25 L44.3 -11.55 44.15 -11.85 38.65 -26.05 38.25 -27.1 30.35 -49.1 30.35 -49.15 29.45 -51.65 30.0 -51.8 29.45 -51.65 27.65 -56.7 27.6 -56.9 27.35 -57.65 26.05 -61.3 24.85 -64.7 18.25 -83.95 16.6 -89.0 16.4 -89.5 14.0 -97.0 13.0 -100.05 12.7 -101.0 10.1 -109.3 10.05 -109.45 9.7 -110.55 Q7.65 -117.25 6.55 -121.5 L7.85 -123.05 6.55 -121.5 M19.25 -101.0 L21.05 -94.9 21.05 -94.8 22.7 -89.5 22.85 -89.0 24.4 -83.95 Q27.0 -75.6 28.6 -71.25 L32.25 -61.3 41.4 -36.25 45.7 -24.5 47.9 -18.45 49.95 -12.9 51.6 -8.3 Q52.6 -4.7 52.2 -2.15 51.95 -0.55 51.2 0.6 49.2 3.6 44.15 6.0 32.15 11.75 -9.15 11.75 L-21.25 11.7 -50.65 10.55 Q-52.15 10.3 -54.55 7.85 L-56.6 5.65 -56.95 4.6 -57.0 4.3 Q-57.55 -0.6 -54.05 -21.6 L-53.85 -22.85 -52.65 -29.8 -52.55 -30.4 -52.05 -33.15 -46.95 -61.3 -42.8 -83.95 -41.8 -89.0 -40.2 -97.0 Q-34.85 -123.55 -32.05 -131.9 L-32.05 -138.6 Q-19.9 -134.55 -2.0 -134.55 L9.35 -135.55 16.65 -109.8 19.25 -101.0 M29.65 -57.1 L27.65 -56.7 29.65 -57.1 M-42.65 -49.15 L-41.1 -48.95 -42.65 -49.15 M-43.0 -54.45 L-40.3 -54.15 -43.0 -54.45" fill="#000000" fill-rule="evenodd" stroke="none"/>
      <path d="M27.65 -56.7 L29.45 -51.65 Q-3.6 -44.8 -41.1 -48.95 L-40.3 -54.15 Q-4.25 -50.3 27.65 -56.7" fill="#dcf20d" fill-rule="evenodd" stroke="none"/>
      <path d="M-3.45 -127.15 Q-3.9 -119.9 -9.15 -113.65 -16.15 -119.3 -18.6 -127.05 L-12.75 -126.8 -9.75 -126.85 -3.45 -127.15" fill="#fff1dd" fill-rule="evenodd" stroke="none"/>
      <path d="M-3.45 -127.15 Q-3.9 -119.9 -9.15 -113.65 0.1 -114.35 6.55 -121.5 L7.85 -123.05 M29.45 -51.65 L30.0 -51.8 M27.65 -56.7 Q-4.25 -50.3 -40.3 -54.15 L-43.0 -54.45 M-41.1 -48.95 Q-3.6 -44.8 29.45 -51.65 M-41.1 -48.95 L-42.65 -49.15 M27.65 -56.7 L29.65 -57.1 M-18.6 -127.05 Q-16.15 -119.3 -9.15 -113.65 -21.15 -112.9 -27.55 -121.15" fill="none" stroke="#000000" stroke-linecap="round" stroke-linejoin="round" stroke-width="4.0"/>
      <path d="M33.6 -129.8 Q33.35 -116.5 28.3 -110.3 35.65 -99.3 35.1 -87.9 18.2 -88.65 6.85 -95.45 0.05 -99.6 -4.3 -106.05 0.05 -99.6 6.85 -95.45 L23.85 -71.4 Q15.85 -71.35 10.25 -73.05 8.0 -65.0 2.0 -59.6 L-6.85 -103.45 Q-8.3 -102.65 -10.0 -102.65 L-12.25 -103.05 -19.8 -56.65 Q-26.7 -59.3 -29.5 -74.8 -37.65 -70.85 -41.75 -74.8 L-29.2 -93.1 Q-36.9 -88.75 -46.95 -85.85 -55.5 -98.1 -47.2 -110.9 -55.05 -117.6 -48.15 -132.75 -29.6 -129.65 -15.35 -115.85 L-14.9 -116.35 Q-12.9 -118.7 -10.0 -118.7 -7.15 -118.7 -5.05 -116.35 7.6 -130.25 33.6 -129.8 M-3.2 -110.65 Q-3.55 -114.55 -5.05 -116.35 -3.55 -114.55 -3.2 -110.65 9.15 -106.3 18.1 -110.5 6.85 -115.05 -3.2 -110.65 -3.45 -107.45 -4.3 -106.05 L-5.05 -105.0 Q-5.9 -104.05 -6.85 -103.45 -5.9 -104.05 -5.05 -105.0 L-4.3 -106.05 Q-3.45 -107.45 -3.2 -110.65 M-12.25 -103.05 L-14.2 -104.3 -14.9 -105.0 Q-16.8 -107.15 -16.95 -110.0 L-17.0 -110.65 Q-17.0 -113.65 -15.35 -115.85 -17.0 -113.65 -17.0 -110.65 L-16.95 -110.0 Q-16.8 -107.15 -14.9 -105.0 L-14.2 -104.3 -12.25 -103.05 M-37.65 -109.9 Q-26.75 -106.6 -16.95 -110.0 -24.7 -116.5 -37.65 -109.9 M-29.2 -93.1 Q-21.4 -97.5 -14.2 -104.3 -21.4 -97.5 -29.2 -93.1" fill="#1dad1d" fill-rule="evenodd" stroke="none"/>
      <path d="M-3.2 -110.65 Q6.85 -115.05 18.1 -110.5 9.15 -106.3 -3.2 -110.65 M-37.65 -109.9 Q-24.7 -116.5 -16.95 -110.0 -26.75 -106.6 -37.65 -109.9" fill="#189218" fill-rule="evenodd" stroke="none"/>
      <path d="M6.85 -95.45 Q18.2 -88.65 35.1 -87.9 35.65 -99.3 28.3 -110.3 33.35 -116.5 33.6 -129.8 M-4.3 -106.05 Q0.05 -99.6 6.85 -95.45 M23.85 -71.4 Q15.85 -71.35 10.25 -73.05 8.0 -65.0 2.0 -59.6 L-6.85 -103.45 M-12.25 -103.05 L-19.8 -56.65 M-41.75 -74.8 L-29.2 -93.1 Q-36.9 -88.75 -46.95 -85.85 -55.5 -98.1 -47.2 -110.9 -55.05 -117.6 -48.15 -132.75 -29.6 -129.65 -15.35 -115.85 M-14.2 -104.3 Q-21.4 -97.5 -29.2 -93.1" fill="none" stroke="#000000" stroke-linecap="round" stroke-linejoin="round" stroke-width="3.0"/>
      <path d="M33.6 -129.8 Q7.6 -130.25 -5.05 -116.35 -3.55 -114.55 -3.2 -110.65 -3.45 -107.45 -4.3 -106.05 M6.85 -95.45 L23.85 -71.4 M-6.85 -103.45 Q-8.3 -102.65 -10.0 -102.65 L-12.25 -103.05 M-19.8 -56.65 Q-26.7 -59.3 -29.5 -74.8 -37.65 -70.85 -41.75 -74.8 M-15.35 -115.85 L-14.9 -116.35 Q-12.9 -118.7 -10.0 -118.7 -7.15 -118.7 -5.05 -116.35 M-15.35 -115.85 Q-17.0 -113.65 -17.0 -110.65 L-16.95 -110.0 Q-16.8 -107.15 -14.9 -105.0 L-14.2 -104.3 -12.25 -103.05 M-6.85 -103.45 Q-5.9 -104.05 -5.05 -105.0 L-4.3 -106.05" fill="none" stroke="#000000" stroke-linecap="round" stroke-linejoin="round" stroke-width="3.0"/>
      <path d="M-3.2 -110.65 Q6.85 -115.05 18.1 -110.5 9.15 -106.3 -3.2 -110.65 M-37.65 -109.9 Q-26.75 -106.6 -16.95 -110.0 -24.7 -116.5 -37.65 -109.9" fill="none" stroke="#ffffff" stroke-linecap="round" stroke-linejoin="round" stroke-opacity="0.0" stroke-width="3.0"/>
    </g>
  </defs>
</svg>
