<?xml version="1.0" encoding="UTF-8" standalone="no"?>
<svg xmlns:xlink="http://www.w3.org/1999/xlink" height="342.0px" width="237.9px" xmlns="http://www.w3.org/2000/svg">
  <g transform="matrix(1, 0, 0, 1, 118.05, 273.9)">
    <use height="150.35" transform="matrix(1.0, 0.0, 0.0, 1.0, -57.1, -138.6)" width="108.7" xlink:href="#shape0"/>
  </g>
  <defs>
    <g id="shape0" transform="matrix(1, 0, 0, 1, 57.1, 138.6)">
      <path d="M6.7 -128.95 L5.3 -126.75 6.7 -128.95 M5.3 -126.75 L5.15 -128.1 Q-4.1 -126.8 -12.75 -126.8 -19.25 -126.8 -25.55 -128.15 L-26.25 -128.3 -28.2 -117.6 -29.65 -109.55 -29.7 -109.25 Q-30.85 -105.75 -30.7 -103.6 -30.85 -105.75 -29.7 -109.25 L-30.7 -103.6 -31.25 -100.6 -31.85 -97.0 -33.2 -89.0 -33.55 -86.6 -39.0 -62.5 -40.55 -52.65 -41.6 -45.7 -42.8 -37.8 -42.8 -37.75 -43.65 -31.45 -43.7 -31.5 -43.7 -31.45 -44.35 -26.8 -45.25 -20.95 Q-47.7 -2.25 -49.1 2.3 L-48.15 2.25 Q-36.05 4.0 20.3 4.0 51.2 0.1 43.9 -10.4 43.0 -14.6 38.65 -26.05 L38.25 -27.1 30.0 -50.1 27.45 -57.35 Q20.45 -77.1 16.6 -89.0 L16.35 -89.65 14.45 -95.5 14.05 -96.8 14.0 -97.0 12.35 -102.2 10.25 -108.9 Q6.05 -122.4 5.3 -126.75 M13.15 -107.75 Q13.35 -106.0 13.05 -104.4 L12.35 -102.2 13.05 -104.4 Q13.35 -106.0 13.15 -107.75 M16.65 -109.8 L21.05 -94.8 21.05 -94.9 22.85 -89.0 Q26.55 -76.8 28.6 -71.25 L49.95 -12.9 51.6 -8.3 Q51.6 -2.8 50.7 -0.45 49.2 3.6 44.15 6.0 32.15 11.75 -9.15 11.75 -43.85 11.75 -50.65 10.55 -52.7 10.25 -56.6 5.65 -58.65 3.3 -52.05 -33.15 L-41.8 -89.0 -40.2 -97.0 Q-34.85 -123.55 -32.05 -131.9 L-32.05 -138.6 Q-19.9 -134.55 -2.0 -134.55 L8.95 -135.5 16.65 -109.8 M29.65 -58.95 L27.45 -57.35 29.65 -58.95 M13.05 -104.4 Q16.35 -97.95 14.05 -96.8 16.35 -97.95 13.05 -104.4 M-28.0 -130.1 L-25.55 -128.15 -28.0 -130.1 M-32.6 -115.3 Q-31.5 -112.25 -29.65 -109.55 -31.5 -112.25 -32.6 -115.3 M-45.05 -53.65 L-40.55 -52.65 -45.05 -53.65" fill="#000000" fill-rule="evenodd" stroke="none"/>
      <path d="M-25.55 -128.15 Q-19.25 -126.8 -12.75 -126.8 -4.1 -126.8 5.15 -128.1 L5.3 -126.75 -4.5 -111.3 -24.9 -127.6 -25.55 -128.15" fill="#fff1dd" fill-rule="evenodd" stroke="none"/>
      <path d="M-25.55 -128.15 L-24.9 -127.6 -4.5 -111.3 5.3 -126.75 Q6.05 -122.4 10.25 -108.9 L12.35 -102.2 14.0 -97.0 14.05 -96.8 Q12.5 -96.05 8.4 -97.75 L10.15 -78.25 -14.85 -78.25 -13.35 -96.6 -9.65 -102.75 -13.35 -96.6 Q-18.35 -98.95 -22.15 -101.8 -18.35 -98.95 -13.35 -96.6 -22.75 -89.85 -22.15 -101.8 L-22.15 -101.85 -22.15 -101.8 -22.15 -101.85 Q-26.8 -105.3 -29.65 -109.5 L-29.65 -109.55 -28.2 -117.6 -26.25 -128.3 -25.55 -128.15 -24.9 -127.6 -25.55 -128.15 M4.6 -103.7 L8.15 -104.5 7.55 -108.05 10.25 -108.9 7.55 -108.05 8.15 -104.5 4.6 -103.7 M2.0 -104.5 L8.4 -97.75 2.0 -104.5 -4.5 -111.3 -9.65 -102.75 -4.65 -97.45 -7.4 -84.75 3.1 -84.75 -0.65 -97.45 2.0 -104.5 M8.4 -97.75 Q11.15 -99.7 12.35 -102.2 11.15 -99.7 8.4 -97.75 M-11.8 -102.8 L-16.1 -102.8 -16.1 -105.85 -19.65 -105.85 -19.65 -108.95 -23.55 -108.95 -23.55 -113.35 -27.3 -113.35 -28.2 -117.6 -27.3 -113.35 -23.55 -113.35 -23.55 -108.95 -19.65 -108.95 -19.65 -105.85 -16.1 -105.85 -16.1 -102.8 -11.8 -102.8 M-29.7 -109.25 L-29.65 -109.55 -29.65 -109.5 Q-26.8 -105.3 -22.15 -101.85 -30.4 -98.25 -30.7 -103.6 L-29.7 -109.25" fill="#ffffff" fill-rule="evenodd" stroke="none"/>
      <path d="M-13.35 -96.6 L-14.85 -78.25 10.15 -78.25 8.4 -97.75 Q12.5 -96.05 14.05 -96.8 L14.45 -95.5 16.35 -89.65 16.6 -89.0 Q20.45 -77.1 27.45 -57.35 5.35 -42.75 -40.55 -52.65 L-39.0 -62.5 -33.55 -86.6 -33.2 -89.0 -31.85 -97.0 -31.25 -100.6 -30.7 -103.6 Q-30.4 -98.25 -22.15 -101.85 L-22.15 -101.8 Q-22.75 -89.85 -13.35 -96.6 M2.0 -104.5 L-0.65 -97.45 3.1 -84.75 -7.4 -84.75 -4.65 -97.45 -9.65 -102.75 -4.5 -111.3 2.0 -104.5 M-41.6 -45.7 Q-1.45 -33.2 30.0 -50.1 L38.25 -27.1 38.65 -26.05 Q43.0 -14.6 43.9 -10.4 51.2 0.1 20.3 4.0 -36.05 4.0 -48.15 2.25 L-49.1 2.3 Q-47.7 -2.25 -45.25 -20.95 L-44.35 -26.8 -43.7 -31.45 -43.65 -31.45 -42.8 -37.75 -42.8 -37.8 -41.6 -45.7 M-0.65 -97.45 L-4.65 -97.45 -0.65 -97.45" fill="#ff0000" fill-rule="evenodd" stroke="none"/>
      <path d="M27.45 -57.35 L30.0 -50.1 Q-1.45 -33.2 -41.6 -45.7 L-40.55 -52.65 Q5.35 -42.75 27.45 -57.35" fill="#db0202" fill-rule="evenodd" stroke="none"/>
      <path d="M5.3 -126.75 L6.7 -128.95 M-24.9 -127.6 L-4.5 -111.3 5.3 -126.75 M12.35 -102.2 L13.05 -104.4 Q13.35 -106.0 13.15 -107.75 M-13.35 -96.6 L-14.85 -78.25 10.15 -78.25 8.4 -97.75 2.0 -104.5 -0.65 -97.45 3.1 -84.75 -7.4 -84.75 -4.65 -97.45 -9.65 -102.75 -13.35 -96.6 Q-18.35 -98.95 -22.15 -101.8 M12.35 -102.2 Q11.15 -99.7 8.4 -97.75 M27.45 -57.35 L29.65 -58.95 M27.45 -57.35 Q5.35 -42.75 -40.55 -52.65 L-45.05 -53.65 M-41.6 -45.7 Q-1.45 -33.2 30.0 -50.1 M-25.55 -128.15 L-28.0 -130.1 M-25.55 -128.15 L-24.9 -127.6 M-29.65 -109.55 Q-31.5 -112.25 -32.6 -115.3 M-22.15 -101.85 L-22.15 -101.8 M-22.15 -101.85 Q-26.8 -105.3 -29.65 -109.5 L-29.65 -109.55 M2.0 -104.5 L-4.5 -111.3 -9.65 -102.75 M-4.65 -97.45 L-0.65 -97.45" fill="none" stroke="#000000" stroke-linecap="round" stroke-linejoin="round" stroke-width="5.0"/>
      <path d="M10.25 -108.9 L7.55 -108.05 8.15 -104.5 4.6 -103.7 M-28.2 -117.6 L-27.3 -113.35 -23.55 -113.35 -23.55 -108.95 -19.65 -108.95 -19.65 -105.85 -16.1 -105.85 -16.1 -102.8 -11.8 -102.8" fill="none" stroke="#ff0000" stroke-linecap="round" stroke-linejoin="round" stroke-width="2.0"/>
      <path d="M-22.15 -101.8 Q-22.75 -89.85 -13.35 -96.6 M8.4 -97.75 Q12.5 -96.05 14.05 -96.8 16.35 -97.95 13.05 -104.4 M-30.7 -103.6 Q-30.85 -105.75 -29.7 -109.25 M-22.15 -101.8 L-22.15 -101.85 Q-30.4 -98.25 -30.7 -103.6" fill="none" stroke="#000000" stroke-linecap="round" stroke-linejoin="round" stroke-width="3.0"/>
      <path d="M16.0 -84.7 L16.9 -81.8 M13.6 -92.4 L14.5 -89.5 M-30.2 -89.2 L-29.7 -92.2 M-31.5 -81.25 L-31.0 -84.25" fill="none" stroke="#ffffff" stroke-linecap="round" stroke-linejoin="round" stroke-width="3.0"/>
    </g>
  </defs>
</svg>
