<?xml version="1.0" encoding="UTF-8" standalone="no"?>
<svg xmlns:xlink="http://www.w3.org/1999/xlink" height="342.0px" width="237.9px" xmlns="http://www.w3.org/2000/svg">
  <g transform="matrix(1, 0, 0, 1, 118.05, 273.9)">
    <use height="150.35" transform="matrix(1.0, 0.0, 0.0, 1.0, -57.1, -138.6)" width="108.7" xlink:href="#shape0"/>
  </g>
  <defs>
    <g id="shape0" transform="matrix(1, 0, 0, 1, 57.1, 138.6)">
      <path d="M6.7 -128.95 L5.3 -126.75 6.7 -128.95 M5.3 -126.75 L5.15 -128.1 Q-4.1 -126.8 -12.75 -126.8 -19.25 -126.8 -25.55 -128.15 L-26.25 -128.3 -28.2 -117.6 -29.65 -109.55 -29.7 -109.25 -30.7 -103.6 -31.85 -97.0 -33.2 -89.0 -33.55 -86.6 -39.0 -62.5 -40.55 -52.65 -45.05 -53.65 -40.55 -52.65 -41.6 -45.7 -42.8 -37.8 -42.8 -37.75 -43.65 -31.45 -43.7 -31.5 -43.7 -31.45 -44.35 -26.8 -45.25 -20.95 Q-47.7 -2.25 -49.1 2.3 L-48.15 2.25 -27.85 3.5 Q-10.35 4.0 20.3 4.0 51.2 0.1 43.9 -10.4 43.0 -14.6 38.65 -26.05 L38.25 -27.1 30.0 -50.1 27.45 -57.35 Q20.45 -77.1 16.6 -89.0 L14.05 -96.8 14.0 -97.0 12.35 -102.2 10.25 -108.9 Q6.05 -122.4 5.3 -126.75 M13.15 -107.75 Q13.35 -106.0 13.05 -104.4 L12.35 -102.2 13.05 -104.4 Q13.35 -106.0 13.15 -107.75 M16.65 -109.8 L21.05 -94.8 21.05 -94.9 22.85 -89.0 Q26.55 -76.8 28.6 -71.25 L49.95 -12.9 51.6 -8.3 Q51.6 -2.8 50.7 -0.45 49.2 3.6 44.15 6.0 32.15 11.75 -9.15 11.75 -43.85 11.75 -50.65 10.55 -52.7 10.25 -56.6 5.65 -58.65 3.3 -52.05 -33.15 L-41.8 -89.0 -40.2 -97.0 Q-34.85 -123.55 -32.05 -131.9 L-32.05 -138.6 Q-19.9 -134.55 -2.0 -134.55 L8.95 -135.5 16.65 -109.8 M13.05 -104.4 Q16.35 -97.95 14.05 -96.8 16.35 -97.95 13.05 -104.4 M29.65 -58.95 L27.45 -57.35 29.65 -58.95 M-28.0 4.5 L-27.85 3.5 -28.0 4.5 M-28.0 -130.1 L-25.55 -128.15 -28.0 -130.1 M-29.7 -109.25 Q-30.85 -105.75 -30.7 -103.6 -30.85 -105.75 -29.7 -109.25 M-32.6 -115.3 Q-31.5 -112.25 -29.65 -109.55 -31.5 -112.25 -32.6 -115.3" fill="#000000" fill-rule="evenodd" stroke="none"/>
      <path d="M-25.55 -128.15 Q-19.25 -126.8 -12.75 -126.8 -4.1 -126.8 5.15 -128.1 L5.3 -126.75 -4.5 -111.3 -24.9 -127.6 -25.55 -128.15" fill="#fff1dd" fill-rule="evenodd" stroke="none"/>
      <path d="M-25.55 -128.15 L-24.9 -127.6 -4.5 -111.3 5.3 -126.75 Q6.05 -122.4 10.25 -108.9 L12.35 -102.2 14.0 -97.0 14.05 -96.8 Q12.5 -96.05 8.4 -97.75 L2.35 -104.1 -4.5 -111.3 -9.45 -103.1 -13.35 -96.6 Q-22.75 -89.85 -22.15 -101.8 L-22.15 -101.85 Q-30.4 -98.25 -30.7 -103.6 L-29.7 -109.25 -29.65 -109.55 -29.65 -109.5 Q-26.8 -105.3 -22.15 -101.85 -26.8 -105.3 -29.65 -109.5 L-29.65 -109.55 -28.2 -117.6 -26.25 -128.3 -25.55 -128.15 -24.9 -127.6 -25.55 -128.15 M4.6 -103.7 L8.15 -104.5 7.55 -108.05 10.25 -108.9 7.55 -108.05 8.15 -104.5 4.6 -103.7 M5.6 -81.5 L5.8 -77.5 Q1.4 -72.65 -7.45 -76.75 L-7.8 -80.4 Q-0.7 -79.3 5.6 -81.5 M8.4 -97.75 Q11.15 -99.7 12.35 -102.2 11.15 -99.7 8.4 -97.75 M-11.8 -102.8 L-16.1 -102.8 -16.1 -105.85 -19.65 -105.85 -19.65 -108.95 -23.55 -108.95 -23.55 -113.35 -27.3 -113.35 -28.2 -117.6 -27.3 -113.35 -23.55 -113.35 -23.55 -108.95 -19.65 -108.95 -19.65 -105.85 -16.1 -105.85 -16.1 -102.8 -11.8 -102.8 M-22.15 -101.8 L-22.15 -101.85 -22.15 -101.8 Q-18.35 -98.95 -13.35 -96.6 -18.35 -98.95 -22.15 -101.8" fill="#ffffff" fill-rule="evenodd" stroke="none"/>
      <path d="M-7.8 -80.4 L-7.45 -76.75 Q1.4 -72.65 5.8 -77.5 L5.6 -81.5 Q4.8 -89.6 0.55 -97.65 L2.35 -104.1 8.4 -97.75 Q12.5 -96.05 14.05 -96.8 L16.6 -89.0 Q20.45 -77.1 27.45 -57.35 5.35 -42.75 -40.55 -52.65 L-39.0 -62.5 -33.55 -86.6 -33.2 -89.0 -31.85 -97.0 -30.7 -103.6 Q-30.4 -98.25 -22.15 -101.85 L-22.15 -101.8 Q-22.75 -89.85 -13.35 -96.6 L-9.45 -103.1 -5.95 -97.65 Q-8.3 -88.45 -7.8 -80.4 M30.0 -50.1 L38.25 -27.1 38.65 -26.05 Q43.0 -14.6 43.9 -10.4 51.2 0.1 20.3 4.0 -10.35 4.0 -27.85 3.5 L-48.15 2.25 -49.1 2.3 Q-47.7 -2.25 -45.25 -20.95 L-44.35 -26.8 -43.7 -31.45 -43.65 -31.45 -42.8 -37.75 -42.8 -37.8 -41.6 -45.7 Q-32.05 -42.7 -22.95 -41.4 L-27.85 3.5 -22.95 -41.4 Q6.05 -37.25 30.0 -50.1" fill="#ff0000" fill-rule="evenodd" stroke="none"/>
      <path d="M-7.8 -80.4 Q-8.3 -88.45 -5.95 -97.65 L-9.45 -103.1 -4.5 -111.3 2.35 -104.1 0.55 -97.65 Q4.8 -89.6 5.6 -81.5 -0.7 -79.3 -7.8 -80.4 M0.55 -97.65 Q-1.75 -96.2 -5.95 -97.65 -1.75 -96.2 0.55 -97.65" fill="#2c08ff" fill-rule="evenodd" stroke="none"/>
      <path d="M-40.55 -52.65 Q5.35 -42.75 27.45 -57.35 L30.0 -50.1 Q6.05 -37.25 -22.95 -41.4 -32.05 -42.7 -41.6 -45.7 L-40.55 -52.65" fill="#db0202" fill-rule="evenodd" stroke="none"/>
      <path d="M5.3 -126.75 L6.7 -128.95 M-24.9 -127.6 L-4.5 -111.3 5.3 -126.75 M12.35 -102.2 L13.05 -104.4 Q13.35 -106.0 13.15 -107.75 M-9.45 -103.1 L-13.35 -96.6 M-22.15 -101.8 L-22.15 -101.85 M-40.55 -52.65 Q5.35 -42.75 27.45 -57.35 L29.65 -58.95 M8.4 -97.75 L2.35 -104.1 -4.5 -111.3 -9.45 -103.1 M12.35 -102.2 Q11.15 -99.7 8.4 -97.75 M-25.55 -128.15 L-24.9 -127.6 M-25.55 -128.15 L-28.0 -130.1 M-29.65 -109.55 L-29.65 -109.5 Q-26.8 -105.3 -22.15 -101.85 M-22.15 -101.8 Q-18.35 -98.95 -13.35 -96.6 M-29.65 -109.55 Q-31.5 -112.25 -32.6 -115.3 M-40.55 -52.65 L-45.05 -53.65 M-22.95 -41.4 Q-32.05 -42.7 -41.6 -45.7 M30.0 -50.1 Q6.05 -37.25 -22.95 -41.4" fill="none" stroke="#000000" stroke-linecap="round" stroke-linejoin="round" stroke-width="5.0"/>
      <path d="M10.25 -108.9 L7.55 -108.05 8.15 -104.5 4.6 -103.7 M-28.2 -117.6 L-27.3 -113.35 -23.55 -113.35 -23.55 -108.95 -19.65 -108.95 -19.65 -105.85 -16.1 -105.85 -16.1 -102.8 -11.8 -102.8" fill="none" stroke="#ff0000" stroke-linecap="round" stroke-linejoin="round" stroke-width="2.0"/>
      <path d="M5.6 -81.5 L5.8 -77.5 Q1.4 -72.65 -7.45 -76.75 L-7.8 -80.4 Q-8.3 -88.45 -5.95 -97.65 L-9.45 -103.1 M2.35 -104.1 L0.55 -97.65 Q4.8 -89.6 5.6 -81.5 M-5.95 -97.65 Q-1.75 -96.2 0.55 -97.65" fill="none" stroke="#000000" stroke-linecap="round" stroke-linejoin="round" stroke-width="4.0"/>
      <path d="M-13.35 -96.6 Q-22.75 -89.85 -22.15 -101.8 M-22.15 -101.85 Q-30.4 -98.25 -30.7 -103.6 -30.85 -105.75 -29.7 -109.25 M14.05 -96.8 Q12.5 -96.05 8.4 -97.75 M5.6 -81.5 Q-0.7 -79.3 -7.8 -80.4 M14.05 -96.8 Q16.35 -97.95 13.05 -104.4 M-27.85 3.5 L-28.0 4.5 M-22.15 -101.85 L-22.15 -101.8 M-27.85 3.5 L-22.95 -41.4" fill="none" stroke="#000000" stroke-linecap="round" stroke-linejoin="round" stroke-width="3.0"/>
      <path d="M20.85 -1.15 L15.85 -0.5 M30.75 -3.0 L25.8 -2.0 M40.5 -5.75 L35.65 -4.25 M10.85 0.0 L5.85 0.35 M-19.45 -35.0 L-19.25 -36.5 M-20.5 -25.0 L-19.95 -30.0 M-21.5 -15.0 L-21.0 -20.0 M-22.5 -5.0 L-22.0 -10.0 M-30.1 -0.1 L-35.1 -0.5 M-40.15 -0.95 L-45.2 -1.5 M-19.15 0.55 L-24.2 0.3 M-9.15 0.75 L-14.15 0.7 M0.85 0.6 L-4.15 0.75" fill="none" stroke="#ffffff" stroke-linecap="round" stroke-linejoin="round" stroke-width="2.5"/>
      <path d="M6.7 -87.05 Q3.8 -88.7 1.9 -90.7 0.65 -92.05 -0.2 -93.5 L-0.25 -93.5 -0.6 -93.1 Q-1.15 -92.7 -1.85 -92.6 L-3.2 -92.7 -3.5 -92.8 -4.7 -93.3 Q-5.75 -91.5 -7.85 -89.6 -9.55 -88.1 -11.9 -86.5 L-14.4 -89.1 -14.6 -89.4 Q-16.2 -91.85 -16.6 -99.35 -9.25 -100.8 -5.1 -99.35 -2.5 -100.35 -0.35 -99.35 3.8 -100.8 11.2 -99.35 10.8 -93.1 9.25 -90.4 L9.15 -90.3 6.7 -87.05 M4.85 -95.1 L0.1 -96.2 Q0.1 -94.6 -0.35 -93.55 L-0.6 -93.1 -0.35 -93.55 Q0.1 -94.6 0.1 -96.2 0.05 -97.6 -0.35 -99.35 0.05 -97.6 0.1 -96.2 L4.85 -95.1 M-5.1 -99.35 Q-5.4 -97.7 -5.3 -96.2 -5.2 -94.6 -4.7 -93.3 -5.2 -94.6 -5.3 -96.2 L-9.45 -94.9 -5.3 -96.2 Q-5.4 -97.7 -5.1 -99.35" fill="#ffeb3c" fill-rule="evenodd" stroke="none"/>
      <path d="M6.7 -87.05 Q3.8 -88.7 1.9 -90.7 0.65 -92.05 -0.2 -93.5 L-0.25 -93.5 -0.6 -93.1 Q-1.15 -92.7 -1.85 -92.6 L-3.2 -92.7 -3.5 -92.8 -4.7 -93.3 Q-5.75 -91.5 -7.85 -89.6 -9.55 -88.1 -11.9 -86.5 L-14.4 -89.1 -14.6 -89.4 Q-16.2 -91.85 -16.6 -99.35 -9.25 -100.8 -5.1 -99.35 -2.5 -100.35 -0.35 -99.35 3.8 -100.8 11.2 -99.35 10.8 -93.1 9.25 -90.4 L9.15 -90.3 6.7 -87.05 M-4.7 -93.3 Q-5.2 -94.6 -5.3 -96.2 L-9.45 -94.9 M-0.6 -93.1 L-0.35 -93.55 Q0.1 -94.6 0.1 -96.2 0.05 -97.6 -0.35 -99.35 M-5.3 -96.2 Q-5.4 -97.7 -5.1 -99.35 M0.1 -96.2 L4.85 -95.1" fill="none" stroke="#000000" stroke-linecap="round" stroke-linejoin="round" stroke-width="2.5"/>
    </g>
  </defs>
</svg>
