<?xml version="1.0" encoding="UTF-8" standalone="no"?>
<svg xmlns:xlink="http://www.w3.org/1999/xlink" height="342.0px" width="237.9px" xmlns="http://www.w3.org/2000/svg">
  <g transform="matrix(1, 0, 0, 1, 118.05, 273.9)">
    <use height="151.95" transform="matrix(1.0, 0.0, 0.0, 1.0, -60.75, -140.2)" width="112.35" xlink:href="#shape0"/>
  </g>
  <defs>
    <g id="shape0" transform="matrix(1, 0, 0, 1, 60.75, 140.2)">
      <path d="M27.95 -140.2 L27.95 -133.05 23.9 -131.95 Q17.25 -130.2 10.85 -129.0 L16.65 -109.8 20.5 -97.0 20.45 -96.85 Q25.95 -78.5 28.6 -71.25 31.4 -63.65 36.05 -54.15 L43.55 -39.05 Q51.6 -22.0 51.6 -8.65 51.6 -2.85 50.7 -0.45 49.2 3.6 44.15 6.0 32.15 11.75 -9.15 11.75 -43.85 11.75 -50.65 10.55 -52.85 10.2 -53.45 9.35 -54.15 8.4 -55.25 8.0 -60.75 6.0 -60.75 3.5 -60.75 -0.1 -57.7 -0.65 -57.05 -8.2 -45.75 -68.5 -37.65 -111.7 -33.45 -127.1 L-33.5 -127.2 Q-33.5 -128.3 -32.95 -128.9 L-32.05 -131.9 -32.05 -138.6 Q-19.9 -134.55 -2.0 -134.55 8.75 -134.55 24.3 -139.1 L27.95 -140.2 M2.8 -109.3 Q6.0 -106.9 9.0 -100.9 10.6 -97.75 11.9 -94.0 L12.9 -90.7 12.9 -90.05 12.9 -89.5 12.85 -89.0 12.7 -88.0 12.25 -87.8 Q11.25 -86.4 8.9 -84.3 5.25 -81.1 4.7 -81.1 2.5 -81.1 -2.25 -94.4 L-6.2 -106.2 -7.4 -106.2 -11.3 -106.55 -11.3 -105.5 Q-11.3 -100.15 -13.35 -94.55 -15.9 -87.5 -16.8 -80.5 L-17.4 -80.05 Q-18.0 -79.6 -19.2 -79.6 -23.2 -79.6 -30.2 -93.2 -30.2 -97.4 -26.2 -103.5 -23.3 -107.95 -19.95 -109.7 -23.95 -111.65 -27.7 -116.85 -29.8 -103.2 -32.7 -90.3 -32.35 -90.25 -32.75 -90.25 L-37.8 -67.9 -37.05 -67.0 Q-33.85 -64.7 -11.95 -63.95 L-12.1 -63.7 -6.7 -63.7 7.2 -64.2 7.0 -64.0 12.65 -64.4 14.45 -64.5 13.9 -64.55 Q19.65 -65.3 20.5 -66.65 L23.15 -69.65 23.65 -70.25 22.85 -70.0 Q15.1 -93.2 8.75 -113.35 L7.2 -112.1 Q4.75 -110.15 2.8 -109.3 M-0.85 -113.65 L7.35 -117.8 5.4 -123.95 3.15 -121.9 Q0.0 -119.15 -2.25 -118.0 -1.55 -117.35 -1.2 -116.45 -0.7 -115.25 -0.9 -113.75 L-0.9 -113.6 -0.85 -113.65 M5.15 -98.05 Q2.25 -103.1 -1.35 -106.3 L0.4 -101.7 5.1 -88.0 9.1 -90.5 Q7.45 -93.4 5.15 -98.05 M26.75 -58.4 L25.35 -62.65 Q19.3 -57.4 -5.9 -57.4 -28.65 -57.4 -38.2 -61.7 L-39.05 -62.1 -39.6 -58.65 -39.35 -58.3 Q-38.4 -56.5 -37.6 -55.95 -32.5 -52.5 -5.3 -52.5 19.25 -52.5 24.6 -55.95 25.55 -56.55 26.65 -58.3 L26.75 -58.4 M41.1 -19.35 L38.0 -27.7 34.15 -37.45 33.95 -37.15 28.85 -52.15 Q27.45 -51.3 25.5 -50.4 17.0 -46.4 6.6 -46.4 L-19.8 -47.65 Q-35.45 -48.95 -38.6 -50.2 L-40.8 -51.1 -42.8 -37.8 -42.8 -37.75 -43.65 -31.45 -43.7 -31.5 -43.7 -31.45 -44.35 -26.8 -45.25 -20.95 -46.75 -13.0 Q-48.05 -6.7 -49.35 -2.6 -50.15 -0.05 -50.95 1.65 L-50.9 1.65 -48.15 2.25 -30.85 3.4 -29.9 3.4 -28.95 3.45 -25.9 3.55 -5.2 3.9 0.35 3.95 17.5 4.0 18.5 4.0 19.55 4.0 20.0 4.0 20.3 4.0 21.15 3.85 21.6 3.75 22.3 3.65 33.1 0.65 33.7 0.4 35.6 -0.5 Q39.45 -2.6 41.6 -4.5 43.55 -6.25 44.0 -7.85 L44.0 -7.9 44.1 -8.75 Q44.1 -10.9 41.1 -19.35 M-17.75 -126.5 L-10.1 -120.3 -7.65 -120.15 -3.75 -123.5 1.9 -127.75 -6.05 -127.65 Q-14.4 -127.6 -19.3 -127.7 L-17.75 -126.5 M-26.05 -128.0 L-26.25 -128.25 -26.3 -127.35 -26.15 -127.2 -26.9 -122.15 -15.3 -113.35 Q-15.2 -116.05 -14.5 -117.7 -17.05 -119.35 -21.1 -123.1 L-25.7 -127.65 -26.05 -128.0 M-10.4 -110.3 L-6.2 -110.45 Q-5.85 -110.8 -5.1 -110.85 L-5.1 -115.2 Q-10.2 -116.4 -11.0 -114.8 L-11.3 -110.7 Q-12.4 -110.3 -10.4 -110.3 M-7.8 -100.0 Q-6.65 -99.55 -5.9 -98.4 -5.9 -97.6 -6.4 -96.6 -5.8 -96.0 -7.8 -96.0 L-9.2 -96.25 -9.6 -97.0 -9.8 -98.2 Q-9.8 -99.45 -9.1 -99.75 L-7.8 -100.0 M-21.85 -101.05 Q-26.1 -96.5 -26.1 -93.5 -26.1 -91.65 -24.6 -89.75 L-20.6 -85.4 Q-17.45 -93.25 -16.7 -95.7 -14.65 -102.6 -15.7 -107.0 L-21.85 -101.05 M-7.8 -86.2 Q-6.65 -85.75 -5.9 -84.6 -5.9 -83.85 -6.35 -83.3 -6.85 -82.7 -7.8 -82.3 L-9.6 -83.2 -9.8 -84.4 Q-9.8 -85.65 -9.1 -85.95 L-7.8 -86.2 M-6.3 -71.4 Q-5.9 -71.2 -5.9 -69.9 L-6.1 -68.4 -7.8 -67.8 -9.25 -68.3 Q-9.8 -68.7 -9.8 -70.0 -9.8 -71.25 -9.1 -71.5 L-7.8 -71.7 -6.3 -71.4" fill="#000000" fill-rule="evenodd" stroke="none"/>
      <path d="M2.8 -109.3 Q4.75 -110.15 7.2 -112.1 L8.75 -113.35 Q15.1 -93.2 22.85 -70.0 L23.65 -70.25 23.15 -69.65 20.5 -66.65 Q19.65 -65.3 13.9 -64.55 L14.45 -64.5 12.65 -64.4 7.0 -64.0 7.2 -64.2 -6.7 -63.7 -12.1 -63.7 -11.95 -63.95 Q-33.85 -64.7 -37.05 -67.0 L-37.8 -67.9 -32.75 -90.25 Q-32.35 -90.25 -32.7 -90.3 -29.8 -103.2 -27.7 -116.85 -23.95 -111.65 -19.95 -109.7 -23.3 -107.95 -26.2 -103.5 -30.2 -97.4 -30.2 -93.2 -23.2 -79.6 -19.2 -79.6 -18.0 -79.6 -17.4 -80.05 L-16.8 -80.5 Q-15.9 -87.5 -13.35 -94.55 -11.3 -100.15 -11.3 -105.5 L-11.3 -106.55 -7.4 -106.2 -6.2 -106.2 -2.25 -94.4 Q2.5 -81.1 4.7 -81.1 5.25 -81.1 8.9 -84.3 11.25 -86.4 12.25 -87.8 L12.7 -88.0 12.85 -89.0 12.9 -89.5 12.9 -90.05 12.9 -90.7 11.9 -94.0 Q10.6 -97.75 9.0 -100.9 6.0 -106.9 2.8 -109.3 M-0.9 -113.75 L-0.85 -113.65 -0.9 -113.6 -0.9 -113.75 M-7.8 -100.0 L-9.1 -99.75 Q-9.8 -99.45 -9.8 -98.2 L-9.6 -97.0 -9.2 -96.25 -7.8 -96.0 Q-5.8 -96.0 -6.4 -96.6 -5.9 -97.6 -5.9 -98.4 -6.65 -99.55 -7.8 -100.0 M-6.3 -71.4 L-7.8 -71.7 -9.1 -71.5 Q-9.8 -71.25 -9.8 -70.0 -9.8 -68.7 -9.25 -68.3 L-7.8 -67.8 -6.1 -68.4 -5.9 -69.9 Q-5.9 -71.2 -6.3 -71.4 M-7.8 -86.2 L-9.1 -85.95 Q-9.8 -85.65 -9.8 -84.4 L-9.6 -83.2 -7.8 -82.3 Q-6.85 -82.7 -6.35 -83.3 -5.9 -83.85 -5.9 -84.6 -6.65 -85.75 -7.8 -86.2" fill="#ffffff" fill-rule="evenodd" stroke="none"/>
      <path d="M-0.9 -113.75 Q-0.7 -115.25 -1.2 -116.45 -1.55 -117.35 -2.25 -118.0 0.0 -119.15 3.15 -121.9 L5.4 -123.95 7.35 -117.8 -0.85 -113.65 -0.9 -113.75 M5.15 -98.05 Q7.45 -93.4 9.1 -90.5 L5.1 -88.0 0.4 -101.7 -1.35 -106.3 Q2.25 -103.1 5.15 -98.05 M-10.4 -110.3 Q-12.4 -110.3 -11.3 -110.7 L-11.0 -114.8 Q-10.2 -116.4 -5.1 -115.2 L-5.1 -110.85 Q-5.85 -110.8 -6.2 -110.45 L-10.4 -110.3 M-26.05 -128.0 L-25.7 -127.65 -21.1 -123.1 Q-17.05 -119.35 -14.5 -117.7 -15.2 -116.05 -15.3 -113.35 L-26.9 -122.15 -26.15 -127.2 -26.3 -127.35 -26.25 -128.25 -26.05 -128.0 M-21.85 -101.05 L-15.7 -107.0 Q-14.65 -102.6 -16.7 -95.7 -17.45 -93.25 -20.6 -85.4 L-24.6 -89.75 Q-26.1 -91.65 -26.1 -93.5 -26.1 -96.5 -21.85 -101.05" fill="#fd3535" fill-rule="evenodd" stroke="none"/>
      <path d="M26.75 -58.4 L26.65 -58.3 Q25.55 -56.55 24.6 -55.95 19.25 -52.5 -5.3 -52.5 -32.5 -52.5 -37.6 -55.95 -38.4 -56.5 -39.35 -58.3 L-39.6 -58.65 -39.05 -62.1 -38.2 -61.7 Q-28.65 -57.4 -5.9 -57.4 19.3 -57.4 25.35 -62.65 L26.75 -58.4" fill="#4d2e1c" fill-rule="evenodd" stroke="none"/>
      <path d="M-43.65 -31.45 L-42.8 -37.75 -42.8 -37.8 -40.8 -51.1 -38.6 -50.2 Q-35.45 -48.95 -19.8 -47.65 L6.6 -46.4 Q17.0 -46.4 25.5 -50.4 27.45 -51.3 28.85 -52.15 L33.95 -37.15 34.15 -37.45 38.0 -27.7 41.1 -19.35 40.9 -9.8 Q39.05 -10.85 32.9 -17.6 27.15 -23.9 26.6 -23.9 25.4 -23.9 25.0 -23.4 L24.7 -22.9 Q24.1 -19.05 22.0 -13.1 L19.0 -4.7 Q18.25 -7.85 13.95 -14.8 9.85 -21.5 9.0 -21.5 8.0 -21.5 3.55 -13.65 L-2.7 -2.5 Q-10.4 -23.9 -12.9 -23.9 -25.5 -5.7 -27.6 -2.9 -29.9 -6.0 -32.7 -16.3 -35.15 -25.4 -36.0 -25.4 L-46.75 -13.0 -45.25 -20.95 -44.35 -26.8 -43.7 -31.45 -43.65 -31.45 M21.6 3.75 L21.15 3.85 20.3 4.0 20.0 4.0 20.0 3.5 21.55 3.35 21.6 3.75 M-28.95 3.45 L-29.9 3.4 -30.85 3.4 -30.8 3.1 -28.95 3.45" fill="#7f52bb" fill-rule="evenodd" stroke="none"/>
      <path d="M-17.75 -126.5 L-19.3 -127.7 Q-14.4 -127.6 -6.05 -127.65 L1.9 -127.75 -3.75 -123.5 -7.65 -120.15 -10.1 -120.3 -17.75 -126.5" fill="#fff1dd" fill-rule="evenodd" stroke="none"/>
      <path d="M-46.75 -13.0 L-36.0 -25.4 Q-35.15 -25.4 -32.7 -16.3 -29.9 -6.0 -27.6 -2.9 -25.5 -5.7 -12.9 -23.9 -10.4 -23.9 -2.7 -2.5 L3.55 -13.65 Q8.0 -21.5 9.0 -21.5 9.85 -21.5 13.95 -14.8 18.25 -7.85 19.0 -4.7 L22.0 -13.1 Q24.1 -19.05 24.7 -22.9 L25.0 -23.4 Q25.4 -23.9 26.6 -23.9 27.15 -23.9 32.9 -17.6 39.05 -10.85 40.9 -9.8 L41.1 -19.35 Q44.1 -10.9 44.1 -8.75 L44.0 -7.9 44.0 -7.85 Q43.55 -6.25 41.6 -4.5 39.45 -2.6 35.6 -0.5 L33.7 0.4 33.1 0.65 22.3 3.65 21.6 3.75 21.55 3.35 20.0 3.5 20.0 4.0 19.55 4.0 18.5 4.0 17.5 4.0 0.35 3.95 -5.2 3.9 -25.9 3.55 -28.95 3.45 -30.8 3.1 -30.85 3.4 -48.15 2.25 -50.9 1.65 -50.95 1.65 Q-50.15 -0.05 -49.35 -2.6 -48.05 -6.7 -46.75 -13.0" fill="#d8c1ef" fill-rule="evenodd" stroke="none"/>
      <path d="M2.3 -56.35 Q1.95 -58.7 -0.2 -59.75 -1.3 -60.35 -2.2 -58.9 L-3.6 -56.0 -5.5 -51.95 Q-7.0 -51.7 -5.2 -50.75 -2.7 -49.45 -0.25 -51.0 L0.3 -51.4 0.3 -51.65 0.75 -51.8 1.95 -53.25 Q2.6 -54.55 2.3 -56.35 M6.35 -52.85 L5.55 -51.5 4.9 -50.4 Q7.9 -48.0 7.5 -43.75 7.3 -42.15 6.6 -40.35 L5.85 -38.65 5.45 -37.8 7.65 -36.85 Q12.25 -34.45 11.5 -30.6 L10.65 -28.95 13.1 -27.85 16.05 -25.75 16.6 -27.0 Q18.25 -30.25 22.95 -32.65 29.55 -36.05 36.6 -32.45 L37.2 -32.15 Q38.15 -32.85 40.25 -33.35 43.35 -34.2 45.05 -33.35 50.0 -30.8 50.85 -25.9 51.45 -22.7 50.5 -20.85 49.5 -18.9 48.8 -18.4 L44.8 -18.5 44.7 -18.6 Q44.55 -14.5 42.85 -11.2 40.15 -6.1 37.15 -4.65 32.95 -2.75 26.25 -5.4 25.85 -3.65 24.55 -1.25 L22.95 2.15 Q21.4 5.0 19.5 6.8 13.6 12.1 4.2 7.25 -8.05 0.9 -8.25 -7.85 -8.35 -11.15 -5.65 -16.4 -3.35 -20.85 -2.45 -21.75 L-1.1 -22.95 Q-3.9 -25.05 -5.15 -29.05 L-2.55 -34.1 -3.0 -34.35 Q-9.1 -37.5 -8.4 -41.75 -8.1 -43.9 -6.4 -45.55 L-5.95 -46.45 Q-10.55 -48.8 -9.2 -53.5 -8.6 -55.9 -6.95 -58.0 L-4.5 -62.6 Q-2.35 -64.9 2.35 -62.5 7.6 -59.8 7.2 -55.55 7.05 -54.25 6.35 -52.85 M23.25 -70.8 Q24.0 -70.8 24.5 -68.6 L24.45 -67.95 Q24.6 -67.85 24.2 -67.85 L23.85 -67.95 Q23.65 -69.0 22.85 -70.65 L23.25 -70.8 M31.5 -29.8 Q36.65 -19.7 36.5 -19.45 35.75 -18.05 30.9 -17.35 26.15 -16.7 24.9 -17.35 22.75 -18.45 21.25 -23.1 L20.65 -25.55 19.35 -23.8 18.15 -21.75 17.75 -21.7 17.6 -20.25 17.05 -18.6 17.5 -17.85 18.05 -16.2 Q19.25 -13.65 24.5 -10.95 32.5 -6.8 36.45 -9.1 37.7 -9.8 39.35 -12.9 41.0 -16.15 40.5 -20.3 39.75 -25.95 34.55 -28.65 33.0 -29.5 31.5 -29.8 M27.4 -29.95 Q25.85 -29.65 24.35 -28.75 25.35 -26.45 26.85 -21.15 L28.9 -20.95 30.1 -21.6 30.65 -21.8 Q28.95 -22.75 27.95 -26.35 27.35 -28.5 27.4 -29.95 M1.5 -46.75 Q0.0 -45.75 -1.55 -45.55 L-2.1 -44.8 Q-4.5 -41.9 -3.4 -39.4 L0.6 -37.35 2.25 -40.15 Q3.6 -42.8 1.9 -45.9 L1.5 -46.75 M3.35 -34.65 Q2.5 -33.9 1.45 -33.6 L0.95 -32.3 Q-0.8 -28.9 0.45 -26.85 L3.45 -25.3 Q4.5 -25.95 5.6 -27.9 L5.85 -28.4 6.0 -28.7 Q7.15 -31.0 7.15 -32.45 4.75 -33.75 3.35 -34.7 L3.35 -34.65 M12.0 -18.05 Q13.3 -20.65 13.35 -21.45 13.4 -24.1 8.8 -24.55 L6.9 -20.65 Q5.45 -17.85 7.25 -16.9 L10.4 -15.5 12.0 -18.05 M1.8 -17.8 Q-1.6 -15.55 -2.35 -14.0 -4.7 -9.55 -4.3 -7.0 -3.4 -1.5 6.4 3.55 9.2 5.0 11.7 4.95 L8.5 3.3 Q1.8 -0.15 1.9 -3.55 1.9 -4.6 2.6 -5.6 L3.4 -6.45 Q4.7 -9.0 5.8 -9.5 9.2 -11.1 16.5 -7.05 16.7 -7.45 19.8 -5.8 L21.45 -4.9 21.6 -5.95 21.9 -7.45 Q16.0 -10.65 14.25 -13.75 L13.4 -12.1 Q11.35 -10.2 6.85 -12.5 3.25 -14.4 3.15 -18.75 L1.8 -17.8 M5.85 -2.7 Q13.7 1.0 16.3 3.3 L17.4 2.4 Q19.0 0.8 20.05 -1.1 16.55 -2.3 7.7 -6.35 L5.85 -2.7 M44.05 -29.25 L40.9 -29.35 Q43.7 -26.55 44.45 -22.6 L44.8 -22.65 47.05 -22.85 Q47.05 -24.4 46.25 -26.4 45.3 -28.6 44.05 -29.25" fill="#000000" fill-rule="evenodd" stroke="none"/>
      <path d="M27.4 -29.95 Q27.35 -28.5 27.95 -26.35 28.95 -22.75 30.65 -21.8 L30.1 -21.6 28.9 -20.95 26.85 -21.15 Q25.35 -26.45 24.35 -28.75 25.85 -29.65 27.4 -29.95 M5.85 -2.7 L7.7 -6.35 Q16.55 -2.3 20.05 -1.1 19.0 0.8 17.4 2.4 L16.3 3.3 Q13.7 1.0 5.85 -2.7" fill="#ffffff" fill-rule="evenodd" stroke="none"/>
      <path d="M31.5 -29.8 Q33.0 -29.5 34.55 -28.65 39.75 -25.95 40.5 -20.3 41.0 -16.15 39.35 -12.9 37.7 -9.8 36.45 -9.1 32.5 -6.8 24.5 -10.95 19.25 -13.65 18.05 -16.2 L17.5 -17.85 17.05 -18.6 17.6 -20.25 17.75 -21.7 18.15 -21.75 19.35 -23.8 20.65 -25.55 21.25 -23.1 Q22.75 -18.45 24.9 -17.35 26.15 -16.7 30.9 -17.35 35.75 -18.05 36.5 -19.45 36.65 -19.7 31.5 -29.8 M1.8 -17.8 L3.15 -18.75 Q3.25 -14.4 6.85 -12.5 11.35 -10.2 13.4 -12.1 L14.25 -13.75 Q16.0 -10.65 21.9 -7.45 L21.6 -5.95 21.45 -4.9 19.8 -5.8 Q16.7 -7.45 16.5 -7.05 9.2 -11.1 5.8 -9.5 4.7 -9.0 3.4 -6.45 L2.6 -5.6 Q1.9 -4.6 1.9 -3.55 1.8 -0.15 8.5 3.3 L11.7 4.95 Q9.2 5.0 6.4 3.55 -3.4 -1.5 -4.3 -7.0 -4.7 -9.55 -2.35 -14.0 -1.6 -15.55 1.8 -17.8 M12.0 -18.05 L10.4 -15.5 7.25 -16.9 Q5.45 -17.85 6.9 -20.65 L8.8 -24.55 Q13.4 -24.1 13.35 -21.45 13.3 -20.65 12.0 -18.05" fill="#7a5978" fill-rule="evenodd" stroke="none"/>
      <path d="M44.05 -29.25 Q45.3 -28.6 46.25 -26.4 47.05 -24.4 47.05 -22.85 L44.8 -22.65 44.45 -22.6 Q43.7 -26.55 40.9 -29.35 L44.05 -29.25" fill="#a48861" fill-rule="evenodd" stroke="none"/>
    </g>
  </defs>
</svg>
