<?xml version="1.0" encoding="UTF-8" standalone="no"?>
<svg xmlns:xlink="http://www.w3.org/1999/xlink" height="342.0px" width="237.9px" xmlns="http://www.w3.org/2000/svg">
  <g transform="matrix(1, 0, 0, 1, 118.05, 273.9)">
    <use height="150.35" transform="matrix(1.0, 0.0, 0.0, 1.0, -57.05, -138.6)" width="109.35" xlink:href="#shape0"/>
    <use height="7.45" transform="matrix(-0.3977, 1.4843, -1.4843, -0.3977, -1.3994, -61.4029)" width="11.9" xlink:href="#sprite0"/>
    <use height="7.45" transform="matrix(-0.7683, 1.3308, -1.3308, -0.7683, -4.0175, -48.4961)" width="11.9" xlink:href="#sprite0"/>
    <use height="7.45" transform="matrix(-1.3308, 0.7684, -0.7684, -1.3308, -11.5987, -35.4839)" width="11.9" xlink:href="#sprite0"/>
    <use height="7.45" transform="matrix(-0.7683, 1.3309, -1.3308, -0.7683, -21.2176, -31.9962)" width="11.9" xlink:href="#sprite0"/>
    <use height="7.45" transform="matrix(-1.0866, 1.0867, -1.0866, -1.0866, -26.6592, -20.4262)" width="11.9" xlink:href="#sprite0"/>
    <use height="7.45" transform="matrix(-1.0866, 1.0867, -1.0866, -1.0866, -34.1092, -11.9262)" width="11.9" xlink:href="#sprite0"/>
    <use height="7.45" transform="matrix(0.6111, 1.4093, -1.4093, 0.6111, -7.3995, -48.1452)" width="11.9" xlink:href="#sprite0"/>
    <use height="7.45" transform="matrix(1.0423, 1.1252, -1.1252, 1.0423, -3.6687, -40.2822)" width="11.9" xlink:href="#sprite0"/>
    <use height="7.45" transform="matrix(1.0423, 1.1252, -1.1252, 1.0423, 4.3813, -32.1322)" width="11.9" xlink:href="#sprite0"/>
  </g>
  <defs>
    <g id="shape0" transform="matrix(1, 0, 0, 1, 57.05, 138.6)">
      <path d="M19.25 -101.0 L21.05 -94.9 21.05 -94.8 22.7 -89.5 22.85 -89.0 24.4 -83.95 Q27.0 -75.6 28.6 -71.25 L32.25 -61.3 41.4 -36.25 45.7 -24.5 47.9 -18.45 49.95 -12.9 51.6 -8.3 Q52.6 -4.7 52.2 -2.15 51.95 -0.55 51.2 0.6 49.2 3.6 44.15 6.0 32.15 11.75 -9.15 11.75 -43.85 11.75 -50.65 10.55 -52.15 10.3 -54.55 7.85 L-56.6 5.65 -56.95 4.6 -57.0 4.3 Q-57.55 -0.6 -54.05 -21.6 L-53.85 -22.85 -52.65 -29.8 -52.05 -33.15 -46.95 -61.3 -42.8 -83.95 -41.8 -89.0 -40.2 -97.0 Q-34.85 -123.55 -32.05 -131.9 L-32.05 -138.6 Q-19.9 -134.55 -2.0 -134.55 L9.05 -135.5 16.65 -109.8 19.25 -101.0 M22.4 -71.75 L18.25 -83.95 16.6 -89.0 16.4 -89.5 14.0 -97.0 12.7 -101.0 Q9.0 -112.65 7.1 -119.4 L8.5 -120.7 7.1 -119.4 Q5.2 -126.2 5.15 -128.1 L4.55 -128.0 5.15 -129.55 4.55 -128.0 -9.75 -126.85 -12.75 -126.8 Q-19.0 -126.8 -25.0 -128.0 L-26.25 -129.75 -25.0 -128.0 -26.25 -128.3 -27.6 -120.95 -31.5 -100.5 -33.6 -90.8 -35.05 -83.95 -36.45 -76.45 -37.6 -70.15 -40.0 -70.65 -37.6 -70.15 -39.0 -62.5 -39.2 -61.3 -39.5 -59.35 -40.25 -54.65 -41.5 -46.5 -42.8 -37.8 -42.8 -37.75 -43.65 -31.45 -43.7 -31.45 -43.7 -31.5 -43.7 -31.45 -44.2 -28.05 -44.35 -26.8 -45.25 -20.95 Q-47.7 -2.25 -49.1 2.3 -48.7 2.15 -43.8 3.4 -38.95 4.6 20.3 4.0 49.1 0.1 46.05 -7.25 43.0 -14.6 38.65 -26.05 L38.25 -27.1 35.4 -35.05 30.35 -49.1 30.35 -49.15 27.35 -57.65 26.3 -60.55 28.2 -61.05 26.3 -60.55 26.05 -61.3 22.4 -71.75 24.9 -72.4 22.4 -71.75 M41.0 -32.15 L35.4 -35.05 41.0 -32.15 M-48.35 -28.6 L-44.2 -28.05 -48.35 -28.6 M-30.3 -122.65 L-27.6 -120.95 -30.3 -122.65 M-41.8 -59.85 L-39.5 -59.35 -41.8 -59.85" fill="#000000" fill-rule="evenodd" stroke="none"/>
      <path d="M7.1 -119.4 Q9.0 -112.65 12.7 -101.0 L14.0 -97.0 16.4 -89.5 16.6 -89.0 18.25 -83.95 22.4 -71.75 Q10.45 -68.7 -1.8 -67.9 -0.3 -79.55 -1.25 -95.6 -0.3 -79.55 -1.8 -67.9 L-9.5 -67.6 Q-23.35 -67.5 -37.6 -70.15 L-36.45 -76.45 -35.05 -83.95 -33.6 -90.8 -31.5 -100.5 -27.6 -120.95 -26.25 -128.3 -25.0 -128.0 Q-19.85 -121.6 -10.35 -119.3 -11.1 -118.85 -11.1 -117.6 L-11.05 -116.95 Q-19.95 -116.6 -27.6 -120.95 -19.95 -116.6 -11.05 -116.95 L-10.85 -116.2 Q-20.3 -112.2 -20.65 -100.1 L-17.1 -97.9 Q-18.0 -90.8 -22.1 -87.1 L-11.5 -84.5 Q-8.95 -92.3 -8.7 -103.35 L-8.65 -103.6 -8.6 -103.6 -8.6 -103.75 Q-8.0 -107.7 -7.75 -113.55 L-7.05 -113.5 -5.95 -113.65 Q-5.6 -106.6 -3.55 -102.65 L-1.25 -95.6 2.3 -84.75 10.3 -89.15 Q6.25 -92.05 4.95 -97.75 L8.2 -102.45 Q4.2 -113.0 -3.3 -116.0 -3.0 -116.75 -3.0 -117.6 -3.0 -119.3 -4.0 -119.55 L-4.05 -119.6 Q2.0 -122.5 4.55 -128.0 L5.15 -128.1 Q5.2 -126.2 7.1 -119.4 4.05 -117.2 -1.25 -118.05 4.05 -117.2 7.1 -119.4 M-9.5 -67.6 Q-6.25 -83.1 -8.6 -103.6 -6.25 -83.1 -9.5 -67.6" fill="#fff7f7" fill-rule="evenodd" stroke="none"/>
      <path d="M26.3 -60.55 L27.35 -57.65 30.35 -49.15 30.35 -49.1 35.4 -35.05 Q23.45 -39.85 15.8 -30.55 6.35 -19.1 -8.05 -28.2 -22.5 -37.3 -31.35 -31.9 L-31.55 -31.8 Q-38.05 -27.9 -44.2 -28.05 L-43.7 -31.45 -43.65 -31.45 -42.8 -37.75 -42.8 -37.8 -41.5 -46.5 -40.25 -54.65 -39.5 -59.35 Q-5.3 -52.7 26.3 -60.55" fill="#d8c1ef" fill-rule="evenodd" stroke="none"/>
      <path d="M-1.8 -67.9 Q10.45 -68.7 22.4 -71.75 L26.05 -61.3 26.3 -60.55 Q-5.3 -52.7 -39.5 -59.35 L-39.2 -61.3 -39.0 -62.5 -37.6 -70.15 Q-23.35 -67.5 -9.5 -67.6 L-1.8 -67.9" fill="#4a122f" fill-rule="evenodd" stroke="none"/>
      <path d="M-44.2 -28.05 Q-38.05 -27.9 -31.55 -31.8 L-31.35 -31.9 Q-22.5 -37.3 -8.05 -28.2 6.35 -19.1 15.8 -30.55 23.45 -39.85 35.4 -35.05 L38.25 -27.1 38.65 -26.05 Q43.0 -14.6 46.05 -7.25 49.1 0.1 20.3 4.0 -38.95 4.6 -43.8 3.4 -48.7 2.15 -49.1 2.3 -47.7 -2.25 -45.25 -20.95 L-44.35 -26.8 -44.2 -28.05" fill="#7f52bb" fill-rule="evenodd" stroke="none"/>
      <path d="M4.55 -128.0 Q2.0 -122.5 -4.05 -119.6 L-4.1 -119.6 -6.75 -119.85 -9.75 -119.55 -10.35 -119.3 Q-19.85 -121.6 -25.0 -128.0 -19.0 -126.8 -12.75 -126.8 L-9.75 -126.85 4.55 -128.0" fill="#fff1dd" fill-rule="evenodd" stroke="none"/>
      <path d="M-43.65 -31.45 L-43.7 -31.45 -43.65 -31.45" fill="#a05f8a" fill-rule="evenodd" stroke="none"/>
      <path d="M7.1 -119.4 Q4.05 -117.2 -1.25 -118.05 M7.1 -119.4 L8.5 -120.7 M5.15 -129.55 L4.55 -128.0 Q2.0 -122.5 -4.05 -119.6 M-1.8 -67.9 Q10.45 -68.7 22.4 -71.75 L24.9 -72.4 M26.3 -60.55 L28.2 -61.05 M26.3 -60.55 Q-5.3 -52.7 -39.5 -59.35 L-41.8 -59.85 M-25.0 -128.0 Q-19.85 -121.6 -10.35 -119.3 M-4.1 -119.6 L-4.05 -119.6 M-25.0 -128.0 L-26.25 -129.75 M-27.6 -120.95 Q-19.95 -116.6 -11.05 -116.95 M-27.6 -120.95 L-30.3 -122.65 M-3.55 -102.65 L-1.25 -95.6 M-37.6 -70.15 L-40.0 -70.65 M-9.5 -67.6 L-1.8 -67.9 M-9.5 -67.6 Q-23.35 -67.5 -37.6 -70.15" fill="none" stroke="#000000" stroke-linecap="round" stroke-linejoin="round" stroke-width="3.0"/>
      <path d="M-44.2 -28.05 Q-38.05 -27.9 -31.55 -31.8 L-31.35 -31.9 Q-22.5 -37.3 -8.05 -28.2 6.35 -19.1 15.8 -30.55 23.45 -39.85 35.4 -35.05" fill="none" stroke="#010101" stroke-linecap="round" stroke-linejoin="round" stroke-opacity="0.7529412" stroke-width="2.0"/>
      <path d="M35.4 -35.05 L41.0 -32.15 M-44.2 -28.05 L-48.35 -28.6" fill="none" stroke="#010101" stroke-linecap="round" stroke-linejoin="round" stroke-opacity="0.38039216" stroke-width="1.0"/>
      <path d="M-1.25 -95.6 Q-0.3 -79.55 -1.8 -67.9 M-8.6 -103.6 L-8.6 -103.75 M-8.6 -103.6 Q-6.25 -83.1 -9.5 -67.6" fill="none" stroke="#000000" stroke-linecap="round" stroke-linejoin="round" stroke-width="2.0"/>
      <path d="M3.5 -97.75 L4.95 -97.75 3.5 -97.75 Q2.5 -107.25 -5.95 -113.65 -4.95 -113.9 -4.2 -114.7 -3.6 -115.3 -3.3 -116.0 4.2 -113.0 8.2 -102.45 L4.95 -97.75 Q6.25 -92.05 10.3 -89.15 L2.3 -84.75 -1.25 -95.6 -1.5 -99.85 Q0.5 -97.95 3.5 -97.75 M-10.85 -116.2 Q-10.6 -115.35 -9.95 -114.7 -9.0 -113.75 -7.75 -113.55 -15.75 -105.05 -13.6 -95.7 L-17.1 -97.9 -13.6 -95.7 Q-10.15 -95.15 -8.7 -103.35 -8.95 -92.3 -11.5 -84.5 L-22.1 -87.1 Q-18.0 -90.8 -17.1 -97.9 L-20.65 -100.1 Q-20.3 -112.2 -10.85 -116.2" fill="#fd3535" fill-rule="evenodd" stroke="none"/>
      <path d="M3.5 -97.75 Q0.5 -97.95 -1.5 -99.85 -2.7 -101.0 -3.55 -102.65 -5.6 -106.6 -5.95 -113.65 L-7.05 -113.5 -7.75 -113.55 Q-8.0 -107.7 -8.6 -103.75 L-8.65 -103.6 -8.7 -103.35 Q-10.15 -95.15 -13.6 -95.7 -15.75 -105.05 -7.75 -113.55 -9.0 -113.75 -9.95 -114.7 -10.6 -115.35 -10.85 -116.2 L-11.05 -116.95 -11.1 -117.6 Q-11.1 -118.85 -10.35 -119.3 L-9.75 -119.55 -6.75 -119.85 -4.1 -119.6 -4.0 -119.55 Q-3.0 -119.3 -3.0 -117.6 -3.0 -116.75 -3.3 -116.0 -3.6 -115.3 -4.2 -114.7 -4.95 -113.9 -5.95 -113.65 2.5 -107.25 3.5 -97.75" fill="#c90303" fill-rule="evenodd" stroke="none"/>
      <path d="M4.95 -97.75 L3.5 -97.75 Q0.5 -97.95 -1.5 -99.85 M-1.25 -95.6 L2.3 -84.75 10.3 -89.15 Q6.25 -92.05 4.95 -97.75 L8.2 -102.45 Q4.2 -113.0 -3.3 -116.0 -3.6 -115.3 -4.2 -114.7 -4.95 -113.9 -5.95 -113.65 2.5 -107.25 3.5 -97.75 M-10.85 -116.2 L-11.05 -116.95 -11.1 -117.6 Q-11.1 -118.85 -10.35 -119.3 L-9.75 -119.55 -6.75 -119.85 -4.1 -119.6 -4.0 -119.55 Q-3.0 -119.3 -3.0 -117.6 -3.0 -116.75 -3.3 -116.0 M-13.6 -95.7 Q-15.75 -105.05 -7.75 -113.55 -9.0 -113.75 -9.95 -114.7 -10.6 -115.35 -10.85 -116.2 -20.3 -112.2 -20.65 -100.1 L-17.1 -97.9 -13.6 -95.7 Q-10.15 -95.15 -8.7 -103.35 L-8.65 -103.6 -8.6 -103.75 Q-8.0 -107.7 -7.75 -113.55 L-7.05 -113.5 -5.95 -113.65 Q-5.6 -106.6 -3.55 -102.65 -2.7 -101.0 -1.5 -99.85 M-17.1 -97.9 Q-18.0 -90.8 -22.1 -87.1 L-11.5 -84.5 Q-8.95 -92.3 -8.7 -103.35" fill="none" stroke="#000000" stroke-linecap="round" stroke-linejoin="round" stroke-width="3.0"/>
      <path d="M-1.5 -99.85 L-1.25 -95.6" fill="none" stroke="#000000" stroke-linecap="round" stroke-linejoin="round" stroke-width="2.0"/>
      <path d="M-4.25 -75.0 Q-4.5 -74.75 -4.85 -74.75 -5.2 -74.75 -5.45 -75.0 L-5.7 -75.6 -5.45 -76.2 -4.85 -76.45 -4.25 -76.2 -4.0 -75.6 Q-4.0 -75.25 -4.25 -75.0" fill="#ffffff" fill-rule="evenodd" stroke="none"/>
      <path d="M-4.25 -75.0 Q-4.5 -74.75 -4.85 -74.75 -5.2 -74.75 -5.45 -75.0 L-5.7 -75.6 -5.45 -76.2 -4.85 -76.45 -4.25 -76.2 -4.0 -75.6 Q-4.0 -75.25 -4.25 -75.0" fill="none" stroke="#000000" stroke-linecap="round" stroke-linejoin="round" stroke-width="1.0"/>
      <path d="M-32.45 -62.55 Q-33.1 -61.9 -34.05 -61.9 -34.95 -61.9 -35.6 -62.55 -36.25 -63.15 -36.25 -64.1 -36.25 -65.05 -35.6 -65.7 -34.95 -66.35 -34.05 -66.35 -33.1 -66.35 -32.45 -65.7 -31.8 -65.05 -31.8 -64.1 -31.8 -63.15 -32.45 -62.55" fill="#ffffff" fill-rule="evenodd" stroke="none"/>
      <path d="M-32.45 -62.55 Q-33.1 -61.9 -34.05 -61.9 -34.95 -61.9 -35.6 -62.55 -36.25 -63.15 -36.25 -64.1 -36.25 -65.05 -35.6 -65.7 -34.95 -66.35 -34.05 -66.35 -33.1 -66.35 -32.45 -65.7 -31.8 -65.05 -31.8 -64.1 -31.8 -63.15 -32.45 -62.55" fill="none" stroke="#000000" stroke-linecap="round" stroke-linejoin="round" stroke-width="2.0"/>
      <path d="M-20.05 -61.15 Q-20.7 -60.5 -21.65 -60.5 -22.55 -60.5 -23.2 -61.15 -23.85 -61.75 -23.85 -62.7 -23.85 -63.65 -23.2 -64.3 -22.55 -64.95 -21.65 -64.95 -20.7 -64.95 -20.05 -64.3 -19.4 -63.65 -19.4 -62.7 -19.4 -61.75 -20.05 -61.15" fill="#ffffff" fill-rule="evenodd" stroke="none"/>
      <path d="M-20.05 -61.15 Q-20.7 -60.5 -21.65 -60.5 -22.55 -60.5 -23.2 -61.15 -23.85 -61.75 -23.85 -62.7 -23.85 -63.65 -23.2 -64.3 -22.55 -64.95 -21.65 -64.95 -20.7 -64.95 -20.05 -64.3 -19.4 -63.65 -19.4 -62.7 -19.4 -61.75 -20.05 -61.15" fill="none" stroke="#000000" stroke-linecap="round" stroke-linejoin="round" stroke-width="2.0"/>
      <path d="M7.0 -61.5 Q6.35 -60.85 5.4 -60.85 4.5 -60.85 3.85 -61.5 3.2 -62.1 3.2 -63.05 3.2 -64.0 3.85 -64.65 4.5 -65.3 5.4 -65.3 6.35 -65.3 7.0 -64.65 7.65 -64.0 7.65 -63.05 7.65 -62.1 7.0 -61.5" fill="#ffffff" fill-rule="evenodd" stroke="none"/>
      <path d="M7.0 -61.5 Q6.35 -60.85 5.4 -60.85 4.5 -60.85 3.85 -61.5 3.2 -62.1 3.2 -63.05 3.2 -64.0 3.85 -64.65 4.5 -65.3 5.4 -65.3 6.35 -65.3 7.0 -64.65 7.65 -64.0 7.65 -63.05 7.65 -62.1 7.0 -61.5" fill="none" stroke="#000000" stroke-linecap="round" stroke-linejoin="round" stroke-width="2.0"/>
      <path d="M20.1 -63.6 Q19.45 -62.95 18.5 -62.95 17.6 -62.95 16.95 -63.6 16.3 -64.2 16.3 -65.15 16.3 -66.1 16.95 -66.75 17.6 -67.4 18.5 -67.4 19.45 -67.4 20.1 -66.75 20.75 -66.1 20.75 -65.15 20.75 -64.2 20.1 -63.6" fill="#ffffff" fill-rule="evenodd" stroke="none"/>
      <path d="M20.1 -63.6 Q19.45 -62.95 18.5 -62.95 17.6 -62.95 16.95 -63.6 16.3 -64.2 16.3 -65.15 16.3 -66.1 16.95 -66.75 17.6 -67.4 18.5 -67.4 19.45 -67.4 20.1 -66.75 20.75 -66.1 20.75 -65.15 20.75 -64.2 20.1 -63.6" fill="none" stroke="#000000" stroke-linecap="round" stroke-linejoin="round" stroke-width="2.0"/>
      <path d="M-5.85 -60.8 Q-6.5 -60.15 -7.45 -60.15 -8.35 -60.15 -9.0 -60.8 -9.65 -61.4 -9.65 -62.35 -9.65 -63.3 -9.0 -63.95 -8.35 -64.6 -7.45 -64.6 -6.5 -64.6 -5.85 -63.95 -5.2 -63.3 -5.2 -62.35 -5.2 -61.4 -5.85 -60.8" fill="#ffffff" fill-rule="evenodd" stroke="none"/>
      <path d="M-5.85 -60.8 Q-6.5 -60.15 -7.45 -60.15 -8.35 -60.15 -9.0 -60.8 -9.65 -61.4 -9.65 -62.35 -9.65 -63.3 -9.0 -63.95 -8.35 -64.6 -7.45 -64.6 -6.5 -64.6 -5.85 -63.95 -5.2 -63.3 -5.2 -62.35 -5.2 -61.4 -5.85 -60.8" fill="none" stroke="#000000" stroke-linecap="round" stroke-linejoin="round" stroke-width="2.0"/>
      <path d="M-4.05 -96.1 Q-4.3 -95.85 -4.65 -95.85 L-5.25 -96.1 -5.5 -96.7 -5.25 -97.3 -4.65 -97.55 -4.05 -97.3 -3.8 -96.7 -4.05 -96.1" fill="#ffffff" fill-rule="evenodd" stroke="none"/>
      <path d="M-4.05 -96.1 Q-4.3 -95.85 -4.65 -95.85 L-5.25 -96.1 -5.5 -96.7 -5.25 -97.3 -4.65 -97.55 -4.05 -97.3 -3.8 -96.7 -4.05 -96.1" fill="none" stroke="#000000" stroke-linecap="round" stroke-linejoin="round" stroke-width="1.0"/>
      <path d="M-3.7 -85.3 Q-3.95 -85.05 -4.3 -85.05 L-4.9 -85.3 -5.15 -85.9 -4.9 -86.5 -4.3 -86.75 Q-3.95 -86.75 -3.7 -86.5 L-3.45 -85.9 Q-3.45 -85.55 -3.7 -85.3" fill="#ffffff" fill-rule="evenodd" stroke="none"/>
      <path d="M-3.7 -85.3 Q-3.95 -85.05 -4.3 -85.05 L-4.9 -85.3 -5.15 -85.9 -4.9 -86.5 -4.3 -86.75 Q-3.95 -86.75 -3.7 -86.5 L-3.45 -85.9 Q-3.45 -85.55 -3.7 -85.3" fill="none" stroke="#000000" stroke-linecap="round" stroke-linejoin="round" stroke-width="1.0"/>
    </g>
    <g id="sprite0" transform="matrix(1, 0, 0, 1, 3.85, 3.55)">
      <use height="7.45" transform="matrix(1.0, 0.0, 0.0, 1.0, -3.85, -3.55)" width="11.9" xlink:href="#shape1"/>
    </g>
    <g id="shape1" transform="matrix(1, 0, 0, 1, 3.85, 3.55)">
      <path d="M-1.6 -2.6 L-0.1 -3.05 4.3 -3.05 Q5.65 -3.05 6.6 -2.1 7.55 -1.2 7.55 0.15 7.55 1.5 6.6 2.45 5.65 3.4 4.3 3.4 L-0.1 3.4 Q-1.45 3.4 -2.4 2.45 -3.35 1.5 -3.35 0.15 L-3.1 -0.8 -1.75 0.0 -1.75 0.2 Q-1.75 0.85 -1.1 1.3 L0.55 1.75 3.65 1.75 5.3 1.3 Q5.95 0.85 5.95 0.2 5.95 -0.45 5.3 -0.85 L3.65 -1.25 0.55 -1.25 -0.5 -1.2 -1.6 -2.6" fill="#eeeeee" fill-rule="evenodd" stroke="none"/>
      <path d="M-1.6 -2.6 L-0.1 -3.05 4.3 -3.05 Q5.65 -3.05 6.6 -2.1 7.55 -1.2 7.55 0.15 7.55 1.5 6.6 2.45 5.65 3.4 4.3 3.4 L-0.1 3.4 Q-1.45 3.4 -2.4 2.45 -3.35 1.5 -3.35 0.15 L-3.1 -0.8 M-1.75 0.0 L-1.75 0.2 Q-1.75 0.85 -1.1 1.3 L0.55 1.75 3.65 1.75 5.3 1.3 Q5.95 0.85 5.95 0.2 5.95 -0.45 5.3 -0.85 L3.65 -1.25 0.55 -1.25 -0.5 -1.2" fill="none" stroke="#000000" stroke-linecap="round" stroke-linejoin="round" stroke-width="1.0"/>
    </g>
  </defs>
</svg>
