<?xml version="1.0" encoding="UTF-8" standalone="no"?>
<svg xmlns:xlink="http://www.w3.org/1999/xlink" height="342.0px" width="237.9px" xmlns="http://www.w3.org/2000/svg">
  <g transform="matrix(1, 0, 0, 1, 118.05, 273.9)">
    <use height="150.35" transform="matrix(1.0, 0.0, 0.0, 1.0, -57.1, -138.6)" width="109.4" xlink:href="#shape0"/>
  </g>
  <defs>
    <g id="shape0" transform="matrix(1, 0, 0, 1, 57.1, 138.6)">
      <path d="M11.5 -127.0 L16.65 -109.8 19.25 -101.0 21.05 -94.9 21.05 -94.8 22.7 -89.5 22.85 -89.0 Q26.55 -76.8 28.6 -71.25 L39.7 -41.0 49.95 -12.9 51.6 -8.3 Q53.2 -2.4 51.2 0.6 49.2 3.6 44.15 6.0 32.15 11.75 -9.15 11.75 -43.85 11.75 -50.65 10.55 -52.7 10.25 -56.6 5.65 -58.65 3.3 -52.05 -33.15 L-50.6 -41.0 -41.8 -89.0 -40.2 -97.0 Q-36.1 -117.35 -33.5 -127.0 L-32.05 -131.9 -32.05 -138.6 Q-19.9 -134.55 -2.0 -134.55 L9.4 -135.55 11.5 -127.0 M2.3 -127.7 L1.65 -127.65 -6.0 -127.0 -9.75 -126.85 -12.75 -126.8 -17.75 -127.0 -20.05 -127.2 -21.55 -127.4 -21.65 -127.45 -26.25 -128.3 -26.5 -127.0 -26.7 -125.9 -27.0 -124.15 -28.85 -114.3 -31.35 -101.1 -31.5 -100.5 -32.9 -93.75 -33.6 -90.8 -36.45 -76.45 -39.0 -62.5 -40.25 -54.65 -41.5 -46.5 -42.3 -41.0 -42.8 -37.8 -42.8 -37.75 -43.65 -31.45 -43.7 -31.45 -44.35 -26.8 -45.25 -20.95 Q-47.7 -2.25 -49.1 2.3 -48.7 2.15 -43.8 3.4 L-43.0 3.55 -28.3 4.1 -14.15 4.2 0.3 4.15 15.25 4.05 20.3 4.0 28.5 2.7 Q36.4 1.25 40.8 -0.6 47.6 -3.5 46.05 -7.25 43.0 -14.6 38.65 -26.05 L38.25 -27.1 33.25 -41.0 33.15 -41.25 32.85 -42.15 30.35 -49.1 30.35 -49.15 27.35 -57.65 20.75 -76.6 19.25 -80.9 16.6 -89.0 16.4 -89.5 14.55 -95.3 14.0 -97.0 12.7 -101.0 12.55 -101.5 12.35 -102.05 9.05 -112.75 Q7.35 -118.35 6.4 -122.0 5.55 -125.3 5.25 -127.0 L5.15 -128.05 5.15 -128.1 2.3 -127.7 2.9 -130.3 2.3 -127.7 M-43.7 -31.45 L-43.7 -31.5 -43.7 -31.45 M-44.75 -40.65 L-42.8 -37.8 -44.75 -40.65 M-22.8 -129.7 L-21.65 -127.45 -22.8 -129.7 M-34.4 -92.95 L-32.9 -93.75 -34.4 -92.95" fill="#000000" fill-rule="evenodd" stroke="none"/>
      <path d="M-21.55 -127.4 L-21.6 -127.4 Q-18.25 -120.95 -12.6 -114.0 L-14.25 -111.2 -12.1 -103.3 -14.95 -89.75 Q-17.9 -93.05 -20.4 -96.65 -22.4 -99.55 -24.05 -102.7 -25.5 -100.2 -27.35 -98.2 -29.8 -95.6 -32.9 -93.75 L-31.5 -100.5 -31.15 -100.9 -31.35 -101.1 -28.85 -114.3 -27.0 -124.15 -26.7 -125.9 -26.5 -127.0 -26.25 -128.3 -21.65 -127.45 -21.55 -127.4 M-3.5 -114.0 Q0.05 -118.95 2.3 -127.7 L5.15 -128.1 5.15 -128.05 5.25 -127.0 Q5.55 -125.3 6.4 -122.0 7.35 -118.35 9.05 -112.75 L12.35 -102.05 12.55 -101.5 12.7 -101.0 14.0 -97.0 14.55 -95.3 Q11.35 -96.35 9.1 -98.5 7.3 -100.2 6.1 -102.55 L3.4 -96.0 1.5 -92.3 -3.3 -103.3 -1.8 -111.1 1.5 -113.25 Q3.55 -107.3 6.1 -102.55 3.55 -107.3 1.5 -113.25 L-1.8 -111.1 -3.5 -114.0 M9.25 -107.85 L5.25 -112.0 6.25 -117.0 3.25 -121.0 4.5 -124.75 3.25 -121.0 6.25 -117.0 5.25 -112.0 9.25 -107.85 9.25 -103.5 11.75 -99.5 9.25 -103.5 9.25 -107.85 M-21.6 -127.4 L-21.65 -127.45 -21.6 -127.4 M-30.5 -98.95 L-27.0 -104.0 -28.25 -108.0 -24.75 -111.25 -27.0 -116.75 -23.5 -120.5 -25.0 -125.5 -23.5 -120.5 -27.0 -116.75 -24.75 -111.25 -28.25 -108.0 -27.0 -104.0 -30.5 -98.95 M-14.25 -111.2 L-19.0 -112.75 Q-21.15 -107.55 -24.05 -102.7 -21.15 -107.55 -19.0 -112.75 L-14.25 -111.2" fill="#ffffff" fill-rule="evenodd" stroke="none"/>
      <path d="M-21.55 -127.4 L-20.05 -127.2 -17.75 -127.0 -12.75 -126.8 -9.75 -126.85 -6.0 -127.0 1.65 -127.65 2.3 -127.7 Q0.05 -118.95 -3.5 -114.0 -8.05 -109.8 -12.6 -114.0 -18.25 -120.95 -21.6 -127.4 L-21.55 -127.4" fill="#fff1dd" fill-rule="evenodd" stroke="none"/>
      <path d="M32.85 -42.15 L33.15 -41.25 33.25 -41.0 32.85 -41.15 32.45 -41.0 32.55 -41.25 32.85 -42.15 M-31.35 -101.1 L-31.15 -100.9 -31.5 -100.5 -31.35 -101.1" fill="#13406c" fill-rule="evenodd" stroke="none"/>
      <path d="M30.35 -49.15 L30.35 -49.1 30.35 -49.15" fill="#2b2b2b" fill-rule="evenodd" stroke="none"/>
      <path d="M-43.7 -31.45 L-43.65 -31.45 -43.7 -31.45 M-42.75 -37.75 L-42.8 -37.75 -42.75 -37.75" fill="#ffd5d5" fill-rule="evenodd" stroke="none"/>
      <path d="M-12.6 -114.0 Q-8.05 -109.8 -3.5 -114.0 L-1.8 -111.1 -3.3 -103.3 1.5 -92.3 4.3 -85.8 7.25 -79.0 Q2.45 -75.1 -3.3 -75.0 L-3.3 -72.9 -5.4 -72.7 Q-12.3 -72.3 -17.9 -75.7 L-16.25 -83.6 -14.95 -89.75 -12.1 -103.3 -14.25 -111.2 -12.6 -114.0 M-3.3 -103.3 Q-7.7 -101.3 -12.1 -103.3 -7.7 -101.3 -3.3 -103.3 L-3.3 -75.0 -3.3 -103.3" fill="#ffba00" fill-rule="evenodd" stroke="none"/>
      <path d="M14.55 -95.3 L16.4 -89.5 16.6 -89.0 19.25 -80.9 20.75 -76.6 27.35 -57.65 30.35 -49.15 30.35 -49.1 32.85 -42.15 32.55 -41.25 32.45 -41.0 Q26.2 -23.25 13.95 -30.0 1.3 -37.05 -5.05 -38.3 L-4.75 -41.0 Q-3.3 -56.85 -5.4 -72.7 -3.3 -56.85 -4.75 -41.0 L-5.05 -38.3 Q1.3 -37.05 13.95 -30.0 26.2 -23.25 32.45 -41.0 L32.85 -41.15 33.25 -41.0 38.25 -27.1 38.65 -26.05 Q43.0 -14.6 46.05 -7.25 47.6 -3.5 40.8 -0.6 36.4 1.25 28.5 2.7 L20.3 4.0 15.25 4.05 0.3 4.15 -14.15 4.2 -28.3 4.1 -43.0 3.55 -43.8 3.4 Q-48.7 2.15 -49.1 2.3 -47.7 -2.25 -45.25 -20.95 L-44.35 -26.8 -43.7 -31.45 -43.65 -31.45 -42.8 -37.75 -42.75 -37.75 -42.8 -37.8 -42.3 -41.0 -41.5 -46.5 -40.25 -54.65 -39.0 -62.5 -36.45 -76.45 -33.6 -90.8 -32.9 -93.75 Q-29.8 -95.6 -27.35 -98.2 -25.5 -100.2 -24.05 -102.7 -22.4 -99.55 -20.4 -96.65 -17.9 -93.05 -14.95 -89.75 L-16.25 -83.6 -17.9 -75.7 Q-12.3 -72.3 -5.4 -72.7 L-3.3 -72.9 -3.3 -75.0 Q2.45 -75.1 7.25 -79.0 L4.3 -85.8 1.5 -92.3 3.4 -96.0 6.1 -102.55 Q7.3 -100.2 9.1 -98.5 11.35 -96.35 14.55 -95.3 M4.3 -85.8 Q8.3 -88.6 11.1 -93.55 L3.4 -96.0 Q6.75 -96.8 9.1 -98.5 6.75 -96.8 3.4 -96.0 L11.1 -93.55 Q8.3 -88.6 4.3 -85.8 M-27.35 -98.2 Q-24.45 -96.9 -20.4 -96.65 L-27.4 -91.75 Q-22.25 -85.8 -16.25 -83.6 -22.25 -85.8 -27.4 -91.75 L-20.4 -96.65 Q-24.45 -96.9 -27.35 -98.2 M-5.05 -38.3 Q-10.0 -35.95 -22.75 -27.65 -35.5 -19.4 -42.75 -37.75 -35.5 -19.4 -22.75 -27.65 -10.0 -35.95 -5.05 -38.3" fill="#bb4444" fill-rule="evenodd" stroke="none"/>
      <path d="M-12.6 -114.0 Q-8.05 -109.8 -3.5 -114.0 M6.1 -102.55 Q3.55 -107.3 1.5 -113.25 L-1.8 -111.1 -3.3 -103.3 1.5 -92.3 3.4 -96.0 6.1 -102.55 Q7.3 -100.2 9.1 -98.5 11.35 -96.35 14.55 -95.3 M9.1 -98.5 Q6.75 -96.8 3.4 -96.0 L11.1 -93.55 Q8.3 -88.6 4.3 -85.8 L7.25 -79.0 Q2.45 -75.1 -3.3 -75.0 L-3.3 -72.9 -5.4 -72.7 M1.5 -92.3 L4.3 -85.8 M-32.9 -93.75 Q-29.8 -95.6 -27.35 -98.2 -25.5 -100.2 -24.05 -102.7 -21.15 -107.55 -19.0 -112.75 L-14.25 -111.2 -12.6 -114.0 M-14.25 -111.2 L-12.1 -103.3 Q-7.7 -101.3 -3.3 -103.3 L-3.3 -75.0 M-1.8 -111.1 L-3.5 -114.0 M-14.95 -89.75 L-16.25 -83.6 -17.9 -75.7 Q-12.3 -72.3 -5.4 -72.7 M-16.25 -83.6 Q-22.25 -85.8 -27.4 -91.75 L-20.4 -96.65 Q-24.45 -96.9 -27.35 -98.2 M-32.9 -93.75 L-34.4 -92.95 M-14.95 -89.75 Q-17.9 -93.05 -20.4 -96.65 -22.4 -99.55 -24.05 -102.7 M-12.1 -103.3 L-14.95 -89.75" fill="none" stroke="#000000" stroke-linecap="round" stroke-linejoin="round" stroke-width="3.0"/>
      <path d="M-21.6 -127.4 Q-18.25 -120.95 -12.6 -114.0 M-3.5 -114.0 Q0.05 -118.95 2.3 -127.7 L2.9 -130.3 M-42.8 -37.8 L-44.75 -40.65 M-5.4 -72.7 Q-3.3 -56.85 -4.75 -41.0 L-5.05 -38.3 Q1.3 -37.05 13.95 -30.0 26.2 -23.25 32.45 -41.0 L32.55 -41.25 32.85 -42.15 M-21.65 -127.45 L-22.8 -129.7 M-21.65 -127.45 L-21.6 -127.4 M-42.8 -37.8 L-42.75 -37.75 Q-35.5 -19.4 -22.75 -27.65 -10.0 -35.95 -5.05 -38.3" fill="none" stroke="#000000" stroke-linecap="round" stroke-linejoin="round" stroke-width="3.0"/>
      <path d="M9.25 -107.85 L9.25 -103.5 11.75 -99.5 M-25.0 -125.5 L-23.5 -120.5 -27.0 -116.75 -24.75 -111.25 -28.25 -108.0 -27.0 -104.0 -30.5 -98.95" fill="none" stroke="#ff0000" stroke-linecap="round" stroke-linejoin="round" stroke-width="2.0"/>
      <path d="M4.5 -124.75 L3.25 -121.0 6.25 -117.0 5.25 -112.0 9.25 -107.85" fill="none" stroke="#ff0000" stroke-linecap="round" stroke-linejoin="round" stroke-width="2.0"/>
    </g>
  </defs>
</svg>
