<?xml version="1.0" encoding="UTF-8" standalone="no"?>
<svg xmlns:xlink="http://www.w3.org/1999/xlink" height="342.0px" width="237.9px" xmlns="http://www.w3.org/2000/svg">
  <g transform="matrix(1, 0, 0, 1, 118.05, 273.9)">
    <use height="150.35" transform="matrix(1.0, 0.0, 0.0, 1.0, -57.05, -138.6)" width="109.35" xlink:href="#shape0"/>
  </g>
  <defs>
    <g id="shape0" transform="matrix(1, 0, 0, 1, 57.05, 138.6)">
      <path d="M-2.35 -127.25 L-0.95 -127.35 5.15 -128.1 5.15 -128.05 Q5.2 -126.75 6.15 -123.1 L6.5 -121.65 Q-0.35 -113.2 -8.4 -113.0 -4.45 -119.1 -2.35 -127.25 M8.8 -113.55 L9.7 -110.55 10.05 -109.45 10.1 -109.3 12.7 -101.0 13.0 -100.05 14.0 -97.0 16.4 -89.5 16.6 -89.0 18.25 -83.95 24.85 -64.7 26.05 -61.3 27.35 -57.65 27.6 -56.9 30.35 -49.15 30.35 -49.1 38.25 -27.1 38.65 -26.05 44.15 -11.85 44.3 -11.55 45.05 -9.7 Q5.85 1.65 -47.5 -5.3 L-47.2 -7.3 -45.25 -20.95 -44.35 -26.8 -43.85 -30.4 -43.7 -31.45 -43.7 -31.5 -43.65 -31.45 -42.8 -37.75 -42.8 -37.8 -41.5 -46.5 -40.25 -54.65 -40.15 -55.2 -39.2 -61.3 -39.0 -62.5 -38.8 -63.55 -36.45 -76.45 -35.05 -83.95 -33.6 -90.8 -31.5 -100.45 -31.5 -100.5 -29.85 -108.95 -29.7 -109.8 -29.05 -113.1 Q-17.2 -105.7 -8.45 -105.9 L-8.4 -105.9 Q-0.1 -106.1 8.8 -113.55 M-27.4 -122.2 L-27.1 -123.8 -26.25 -128.3 -19.75 -127.2 -15.85 -126.85 Q-13.35 -120.45 -8.45 -113.0 -17.2 -112.8 -27.4 -122.2" fill="#1d2723" fill-rule="evenodd" stroke="none"/>
      <path d="M6.5 -121.65 L6.15 -123.1 Q5.2 -126.75 5.15 -128.05 L5.15 -128.1 -0.95 -127.35 -2.35 -127.25 -9.75 -126.85 -12.75 -126.8 -15.85 -126.85 -19.75 -127.2 -26.25 -128.3 -27.1 -123.8 -27.4 -122.2 -29.05 -113.1 -29.7 -109.8 -29.85 -108.95 -31.5 -100.5 -31.5 -100.45 -33.6 -90.8 -35.05 -83.95 -36.45 -76.45 -38.8 -63.55 -39.0 -62.5 -39.2 -61.3 -40.15 -55.2 -40.25 -54.65 -41.5 -46.5 -42.8 -37.8 -42.8 -37.75 -43.65 -31.45 -43.7 -31.5 -43.7 -31.45 -43.85 -30.4 -44.35 -26.8 -45.25 -20.95 -47.2 -7.3 -47.5 -5.3 -50.35 -5.7 -47.5 -5.3 -48.05 -2.35 -49.1 2.3 Q-48.7 2.15 -43.8 3.4 L-43.55 3.45 -34.45 4.0 -25.6 4.15 -21.25 4.2 -17.0 4.2 -8.25 4.2 -8.25 5.4 -8.25 4.2 0.5 4.15 9.25 4.1 9.25 5.2 9.25 4.1 17.95 4.05 20.3 4.0 26.6 3.05 35.25 1.2 35.5 2.45 35.25 1.2 Q40.45 -0.2 43.25 -1.8 47.3 -4.25 46.05 -7.25 L45.05 -9.7 44.3 -11.55 44.15 -11.85 38.65 -26.05 38.25 -27.1 30.35 -49.1 30.35 -49.15 27.6 -56.9 27.35 -57.65 26.05 -61.3 24.85 -64.7 18.25 -83.95 16.6 -89.0 16.4 -89.5 14.0 -97.0 13.0 -100.05 12.7 -101.0 10.1 -109.3 10.05 -109.45 9.7 -110.55 8.8 -113.55 6.5 -121.65 8.2 -123.95 6.5 -121.65 M47.35 -10.4 L45.05 -9.7 47.35 -10.4 M19.25 -101.0 L21.05 -94.9 21.05 -94.8 22.7 -89.5 22.85 -89.0 24.4 -83.95 Q27.0 -75.6 28.6 -71.25 L32.25 -61.3 41.4 -36.25 45.7 -24.5 47.9 -18.45 49.95 -12.9 51.6 -8.3 Q52.6 -4.7 52.2 -2.15 51.95 -0.55 51.2 0.6 49.2 3.6 44.15 6.0 32.15 11.75 -9.15 11.75 L-21.25 11.7 -50.65 10.55 Q-52.15 10.3 -54.55 7.85 L-56.6 5.65 -56.95 4.6 -57.0 4.3 Q-57.55 -0.6 -54.05 -21.6 L-53.85 -22.85 -52.65 -29.8 -52.55 -30.4 -52.05 -33.15 -46.95 -61.3 -42.8 -83.95 -41.8 -89.0 -40.2 -97.0 Q-34.85 -123.55 -32.05 -131.9 L-32.05 -138.6 Q-19.9 -134.55 -2.0 -134.55 3.25 -134.55 9.6 -135.6 14.05 -118.6 16.65 -109.8 L19.25 -101.0 M10.55 -115.1 L8.8 -113.55 10.55 -115.1 M43.5 -0.45 L43.25 -1.8 43.5 -0.45 M26.75 4.2 L26.6 3.05 26.75 4.2 M18.0 5.2 L17.95 4.05 18.0 5.2 M0.5 5.2 L0.5 4.15 0.5 5.2 M-16.55 -128.7 L-15.85 -126.85 -16.55 -128.7 M-29.05 -113.1 L-31.25 -114.5 -29.05 -113.1 M-1.8 -129.55 L-2.35 -127.25 -1.8 -129.55 M-29.2 -123.95 L-27.4 -122.2 -29.2 -123.95 M-17.0 5.4 L-17.0 4.2 -17.0 5.4 M-25.75 5.4 L-25.6 4.15 -25.75 5.4 M-34.5 5.2 L-34.45 4.0 -34.5 5.2 M-43.85 4.6 L-43.55 3.45 -43.85 4.6" fill="#000000" fill-rule="evenodd" stroke="none"/>
      <path d="M-8.4 -113.0 Q-0.35 -113.2 6.5 -121.65 L8.8 -113.55 Q-0.1 -106.1 -8.4 -105.9 L-8.45 -105.9 Q-17.2 -105.7 -29.05 -113.1 L-27.4 -122.2 Q-17.2 -112.8 -8.45 -113.0 L-8.45 -112.95 -8.4 -113.0" fill="#b81d1d" fill-rule="evenodd" stroke="none"/>
      <path d="M-47.5 -5.3 Q5.85 1.65 45.05 -9.7 L46.05 -7.25 Q47.3 -4.25 43.25 -1.8 L42.95 -3.25 43.25 -1.8 Q40.45 -0.2 35.25 1.2 L26.6 3.05 26.3 1.1 26.6 3.05 20.3 4.0 17.95 4.05 9.25 4.1 0.5 4.15 0.5 2.65 0.5 4.15 -8.25 4.2 -8.25 2.45 -8.25 4.2 -17.0 4.2 -17.0 2.45 -17.0 4.2 -21.25 4.2 -25.6 4.15 -34.45 4.0 -34.35 2.25 -34.45 4.0 -43.55 3.45 -43.8 3.4 Q-48.7 2.15 -49.1 2.3 L-48.05 -2.35 -47.5 -5.3 M34.9 -0.6 L35.25 1.2 34.9 -0.6 M9.25 2.4 L9.25 4.1 9.25 2.4 M17.85 2.25 L17.95 4.05 17.85 2.25 M-43.1 1.35 L-43.55 3.45 -43.1 1.35 M-25.45 2.6 L-25.6 4.15 -25.45 2.6" fill="#394f46" fill-rule="evenodd" stroke="none"/>
      <path d="M-2.35 -127.25 Q-4.45 -119.1 -8.4 -113.0 L-8.45 -113.0 Q-13.35 -120.45 -15.85 -126.85 L-12.75 -126.8 -9.75 -126.85 -2.35 -127.25" fill="#fff1dd" fill-rule="evenodd" stroke="none"/>
      <path d="M-2.35 -127.25 Q-4.45 -119.1 -8.4 -113.0 -0.35 -113.2 6.5 -121.65 L8.2 -123.95 M8.8 -113.55 Q-0.1 -106.1 -8.4 -105.9 L-8.45 -105.9 Q-17.2 -105.7 -29.05 -113.1 M-47.5 -5.3 Q5.85 1.65 45.05 -9.7 L47.35 -10.4 M8.8 -113.55 L10.55 -115.1 M42.95 -3.25 L43.25 -1.8 43.5 -0.45 M35.25 1.2 L35.5 2.45 M35.25 1.2 L34.9 -0.6 M26.6 3.05 L26.75 4.2 M26.3 1.1 L26.6 3.05 M17.95 4.05 L18.0 5.2 M0.5 2.65 L0.5 4.15 0.5 5.2 M9.25 4.1 L9.25 2.4 M9.25 4.1 L9.25 5.2 M17.95 4.05 L17.85 2.25 M-27.4 -122.2 Q-17.2 -112.8 -8.45 -113.0 -13.35 -120.45 -15.85 -126.85 L-16.55 -128.7 M-2.35 -127.25 L-1.8 -129.55 M-31.25 -114.5 L-29.05 -113.1 M-27.4 -122.2 L-29.2 -123.95 M-8.4 -113.0 L-8.45 -112.95 -8.45 -113.0 -8.4 -113.0 M-47.5 -5.3 L-50.35 -5.7 M-43.55 3.45 L-43.1 1.35 M-8.25 4.2 L-8.25 2.45 M-8.25 4.2 L-8.25 5.4 M-17.0 4.2 L-17.0 5.4 M-17.0 4.2 L-17.0 2.45 M-25.6 4.15 L-25.45 2.6 M-34.35 2.25 L-34.45 4.0 -34.5 5.2 M-43.55 3.45 L-43.85 4.6 M-25.6 4.15 L-25.75 5.4" fill="none" stroke="#000000" stroke-linecap="round" stroke-linejoin="round" stroke-width="3.0"/>
      <path d="M3.5 -90.65 L3.5 -91.2 4.4 -94.05 5.1 -95.6 2.0 -90.5 1.7 -89.85 3.5 -90.65 M1.1 -92.55 L3.45 -95.8 Q0.75 -93.6 -1.55 -91.05 L0.75 -90.25 Q0.3 -91.35 1.1 -92.55 M0.7 -87.25 L5.05 -81.45 4.4 -82.7 3.75 -84.05 Q3.05 -85.4 3.25 -86.95 L1.55 -87.7 0.7 -87.25 M6.65 -87.0 Q9.15 -85.4 11.65 -86.55 L13.4 -87.85 3.5 -88.9 5.55 -87.75 6.65 -87.0 M4.9 -89.55 L11.95 -89.15 Q10.65 -90.05 8.45 -90.05 L4.9 -89.55 M4.9 -91.2 Q10.1 -91.75 14.65 -89.3 14.45 -86.65 12.7 -85.45 10.9 -84.3 8.3 -84.75 5.65 -85.2 4.45 -86.4 6.4 -81.75 8.9 -77.4 3.95 -78.35 -0.1 -81.4 -2.6 -83.3 -3.15 -86.3 L-5.5 -87.25 -8.1 -88.5 -7.1 -88.45 -7.0 -88.9 -5.75 -89.85 -3.0 -91.4 -2.45 -91.25 Q-2.2 -92.75 -1.15 -93.8 L1.55 -96.35 8.0 -100.4 Q8.6 -96.55 6.1 -93.0 L4.9 -91.2 M0.5 -85.35 L0.0 -86.9 -2.35 -86.3 2.1 -82.05 0.5 -85.35 M15.7 -75.25 Q16.65 -75.25 17.35 -74.55 18.0 -73.85 18.0 -72.9 18.0 -71.95 17.35 -71.25 16.65 -70.55 15.7 -70.55 14.75 -70.55 14.1 -71.25 13.4 -71.95 13.4 -72.9 13.4 -73.85 14.1 -74.55 14.75 -75.25 15.7 -75.25 M16.75 -72.75 Q16.8 -74.05 14.85 -74.0 14.1 -72.65 14.8 -71.9 L15.3 -71.5 Q16.4 -71.55 16.75 -72.75 M11.7 -63.55 L7.7 -63.35 8.7 -59.95 6.35 -60.0 5.25 -60.3 4.1 -60.75 4.95 -58.75 Q2.65 -58.05 0.65 -59.45 -2.7 -61.9 -2.1 -66.0 L-1.65 -67.8 Q-3.15 -69.25 -3.15 -71.0 -0.3 -71.05 0.1 -69.55 2.35 -70.25 5.85 -69.05 9.3 -67.85 11.55 -64.0 L11.7 -63.55 M9.1 -64.9 Q6.15 -69.4 0.55 -68.65 L9.1 -64.9 M2.35 -60.15 Q0.1 -63.5 -0.6 -65.25 L-0.75 -63.2 Q-0.5 -61.05 1.5 -60.45 1.9 -60.25 2.35 -60.15 M15.25 -54.95 L14.75 -57.35 Q13.65 -53.9 13.65 -50.25 L13.5 -48.55 5.6 -47.25 Q8.45 -45.65 11.9 -45.45 L13.6 -45.55 Q14.8 -44.0 15.15 -41.65 L15.95 -38.05 17.15 -45.65 17.25 -45.75 24.3 -47.05 Q21.3 -47.75 18.25 -48.6 L17.05 -48.6 Q16.4 -49.45 16.1 -50.55 15.5 -52.85 15.25 -54.95 M14.8 -60.1 Q17.85 -55.45 18.1 -49.85 22.7 -49.75 26.55 -46.9 22.85 -44.7 19.35 -44.4 L18.65 -44.45 Q18.95 -43.5 18.15 -39.85 17.3 -36.2 16.5 -35.35 12.85 -39.4 12.95 -44.3 8.25 -44.05 4.35 -46.4 L3.35 -47.35 Q8.05 -49.75 11.95 -50.0 11.85 -51.0 12.45 -54.0 12.7 -57.05 14.25 -59.4 L14.8 -60.1 M6.95 -61.4 Q5.75 -64.5 2.85 -66.2 L-0.25 -68.55 Q-0.05 -66.7 2.75 -64.0 5.55 -61.35 6.95 -61.4 M26.55 -38.35 Q26.55 -38.95 27.0 -39.35 27.4 -39.8 27.95 -39.8 L28.95 -39.35 Q29.35 -38.95 29.35 -38.35 29.35 -37.8 28.95 -37.35 28.55 -36.95 27.95 -36.95 27.4 -36.95 27.0 -37.35 26.55 -37.8 26.55 -38.35 M27.45 -37.75 L27.75 -37.5 Q28.4 -37.55 28.6 -38.25 28.65 -39.1 27.45 -39.05 27.0 -38.25 27.45 -37.75 M25.15 -36.05 Q28.5 -30.9 29.8 -25.05 30.3 -26.55 31.4 -27.5 L32.45 -27.45 Q34.3 -23.9 32.7 -20.35 L34.4 -21.55 35.2 -21.45 Q37.15 -16.8 33.2 -14.0 31.6 -9.9 27.1 -8.9 L21.4 -8.55 Q16.75 -13.5 17.0 -20.45 17.2 -26.6 18.2 -32.7 21.7 -27.9 23.5 -21.95 24.85 -28.0 24.3 -34.05 24.3 -34.95 24.8 -35.6 L25.15 -36.05 M26.1 -29.9 L25.25 -21.05 24.85 -19.0 24.55 -16.9 Q28.0 -20.85 28.05 -26.2 28.1 -29.0 26.3 -31.2 L26.1 -29.9 M2.45 -26.35 Q4.2 -29.05 7.05 -30.65 L8.35 -30.35 8.45 -30.1 8.7 -27.15 9.55 -26.85 10.2 -26.3 10.65 -25.8 Q10.65 -24.0 9.05 -22.75 8.15 -21.95 6.85 -21.8 11.85 -20.6 11.0 -15.85 L10.85 -15.55 Q9.4 -14.65 7.85 -15.7 L5.45 -17.4 Q6.65 -11.75 4.3 -7.4 3.85 -6.6 3.05 -6.4 0.95 -10.25 1.45 -14.85 -1.65 -16.1 -3.25 -19.1 -10.3 -18.25 -16.55 -21.6 -9.3 -25.8 -1.4 -23.3 -2.6 -24.15 -3.1 -26.55 -3.6 -29.0 -1.85 -29.6 0.65 -29.45 1.9 -27.35 L2.45 -26.35 M7.35 -29.15 Q4.8 -27.9 3.8 -25.05 L3.3 -23.4 Q6.1 -22.4 8.6 -23.85 L9.7 -24.55 9.5 -25.3 6.75 -25.5 7.35 -28.35 7.35 -29.15 M19.05 -14.7 Q19.95 -12.55 21.15 -10.55 22.4 -14.65 21.55 -18.75 20.75 -22.45 18.9 -25.8 L18.05 -22.4 Q17.45 -18.45 19.05 -14.7 M10.15 -17.65 L9.4 -18.85 8.7 -19.45 5.3 -20.65 Q6.35 -18.5 8.2 -17.0 L10.3 -16.9 10.15 -17.65 M3.8 -18.4 L3.3 -19.75 Q2.65 -15.45 2.85 -11.35 2.95 -9.85 3.2 -8.3 4.2 -10.05 4.45 -12.15 L4.55 -14.1 Q4.35 -16.4 3.8 -18.4 M2.2 -20.4 L-1.95 -19.3 1.55 -16.9 2.2 -20.4 M34.3 -19.95 Q31.2 -15.75 26.25 -14.9 L24.35 -14.5 24.1 -13.45 Q28.6 -12.75 32.0 -15.35 34.4 -17.15 34.3 -19.95 M31.95 -24.55 L31.65 -25.4 Q29.65 -19.75 25.2 -15.9 28.15 -16.35 29.9 -18.35 L30.4 -18.95 Q32.55 -21.3 31.95 -24.55 M30.25 -12.65 L30.3 -12.5 30.75 -12.8 30.25 -12.65 M0.2 -27.4 L-0.85 -28.55 -1.3 -28.55 Q-2.1 -27.2 -1.05 -25.9 -0.15 -24.7 1.3 -24.4 1.3 -26.05 0.2 -27.4 M-5.75 -100.35 Q-5.7 -101.65 -7.65 -101.6 -8.4 -100.25 -7.7 -99.5 L-7.2 -99.1 Q-6.1 -99.15 -5.75 -100.35 M-5.15 -102.15 Q-4.5 -101.45 -4.5 -100.5 -4.5 -99.55 -5.15 -98.85 -5.85 -98.15 -6.8 -98.15 -7.75 -98.15 -8.4 -98.85 -9.1 -99.55 -9.1 -100.5 -9.1 -101.45 -8.4 -102.15 -7.75 -102.85 -6.8 -102.85 -5.85 -102.85 -5.15 -102.15 M-6.1 -88.45 Q-2.85 -87.5 -1.05 -88.9 -3.15 -90.05 -5.35 -88.95 L-6.1 -88.45 M-16.05 -97.2 Q-16.45 -94.9 -18.35 -93.6 -15.9 -94.2 -14.05 -92.6 -14.6 -90.85 -18.65 -89.3 L-17.9 -88.4 -17.4 -87.5 -18.15 -87.05 -18.75 -87.15 -19.25 -87.5 -20.1 -88.45 -23.0 -87.65 Q-21.05 -83.55 -23.05 -79.5 -24.6 -83.0 -23.9 -86.55 L-23.8 -87.25 -24.45 -87.8 -25.15 -88.3 Q-25.85 -88.9 -25.8 -89.6 L-25.8 -90.1 Q-28.15 -90.7 -30.25 -91.9 -31.1 -92.3 -31.75 -93.2 -29.15 -93.3 -27.0 -92.3 L-25.55 -91.6 -25.2 -92.5 -24.65 -93.35 -23.2 -94.7 Q-23.7 -95.85 -22.3 -97.0 L-22.0 -96.9 -21.8 -96.65 -21.65 -96.35 Q-21.6 -96.2 -21.8 -96.1 L-19.25 -96.75 -16.05 -97.2 M-18.85 -95.2 L-20.3 -94.6 -21.05 -94.05 -20.25 -93.45 -18.85 -95.2 M-19.1 -90.65 L-15.85 -91.95 -19.4 -92.1 -19.1 -90.65 M-16.55 -78.05 L-16.1 -79.05 -15.15 -79.5 Q-14.55 -79.5 -14.15 -79.05 -13.75 -78.65 -13.75 -78.05 -13.75 -77.5 -14.15 -77.05 -14.55 -76.65 -15.15 -76.65 -15.7 -76.65 -16.1 -77.05 L-16.55 -78.05 M-15.35 -77.2 Q-14.7 -77.25 -14.5 -77.95 -14.45 -78.8 -15.65 -78.75 -16.1 -77.95 -15.65 -77.45 L-15.35 -77.2 M-23.1 -93.2 Q-24.7 -91.3 -24.15 -89.25 -21.8 -89.0 -20.0 -90.5 -20.35 -92.35 -22.15 -93.05 L-23.1 -93.2 M-21.25 -68.7 L-21.65 -67.15 Q-18.85 -66.8 -17.2 -64.75 L-15.85 -63.35 -18.5 -62.75 Q-16.7 -60.65 -17.05 -57.3 -20.75 -58.7 -21.6 -59.95 L-22.4 -57.7 Q-23.9 -58.6 -24.2 -59.65 L-24.9 -61.75 -26.3 -61.7 -26.0 -62.95 -25.45 -63.95 Q-30.6 -64.35 -35.85 -63.85 -32.35 -65.6 -28.2 -66.1 -27.25 -68.25 -25.9 -69.15 -25.6 -69.4 -25.25 -69.6 -25.25 -72.4 -24.65 -75.25 -23.15 -71.7 -23.3 -67.45 L-21.75 -69.1 -21.25 -68.7 M-23.05 -63.45 Q-23.75 -62.5 -22.95 -60.3 -22.55 -61.8 -22.95 -63.15 L-23.05 -63.45 M-21.0 -62.15 Q-20.85 -60.05 -19.05 -59.2 L-18.2 -58.95 Q-19.25 -61.1 -21.0 -62.65 L-21.0 -62.15 M-24.35 -65.75 L-25.05 -68.15 -26.85 -66.25 -24.35 -65.75 M-33.15 -50.35 Q-32.55 -50.35 -32.15 -49.9 -31.75 -49.5 -31.75 -48.9 -31.75 -48.35 -32.15 -47.9 -32.55 -47.5 -33.15 -47.5 -33.7 -47.5 -34.1 -47.9 L-34.55 -48.9 -34.1 -49.9 Q-33.7 -50.35 -33.15 -50.35 M-1.0 -69.45 L-1.7 -70.2 -1.85 -70.25 Q-2.15 -69.15 -1.0 -69.45 M-18.45 -64.25 Q-20.15 -65.55 -22.45 -65.5 -21.25 -63.95 -19.5 -64.0 L-18.45 -64.25 M-13.75 -50.1 L-14.7 -50.35 Q-18.9 -48.65 -20.0 -44.7 -17.65 -44.9 -16.3 -46.9 L-13.85 -49.95 -13.75 -50.1 M-13.0 -51.95 L-12.55 -50.8 Q-12.8 -46.7 -16.95 -44.6 L-18.1 -43.85 Q-11.95 -44.8 -6.6 -42.2 -9.6 -39.2 -13.65 -39.4 -15.6 -39.6 -17.35 -40.6 -14.25 -37.55 -14.4 -33.65 L-14.5 -33.3 Q-19.5 -33.15 -21.4 -37.65 L-22.35 -40.45 Q-27.65 -39.65 -31.6 -41.4 -27.95 -45.25 -21.6 -45.3 -19.7 -49.85 -15.05 -51.3 L-13.0 -51.95 M-42.35 -28.7 Q-39.7 -30.15 -37.7 -27.95 L-35.5 -25.05 Q-36.55 -30.5 -32.25 -33.3 -29.85 -33.45 -29.3 -32.3 -27.6 -28.4 -29.95 -24.65 L-30.8 -23.25 Q-25.0 -25.9 -20.1 -21.95 -24.8 -16.0 -32.1 -18.2 -30.85 -14.0 -34.75 -13.0 -38.45 -12.25 -39.45 -15.5 -39.65 -16.2 -39.2 -17.75 -38.75 -19.3 -36.75 -20.3 -41.55 -22.75 -42.3 -27.7 L-42.35 -28.7 M-0.55 -47.85 Q0.1 -47.15 0.1 -46.2 0.1 -45.25 -0.55 -44.55 -1.25 -43.85 -2.2 -43.85 -3.15 -43.85 -3.8 -44.55 -4.5 -45.25 -4.5 -46.2 -4.5 -47.15 -3.8 -47.85 -3.15 -48.55 -2.2 -48.55 -1.25 -48.55 -0.55 -47.85 M-2.6 -44.8 Q-1.5 -44.85 -1.15 -46.05 -1.1 -47.35 -3.05 -47.3 -3.8 -45.95 -3.1 -45.2 L-2.6 -44.8 M-16.05 -41.35 L-10.95 -40.65 Q-9.7 -40.85 -8.85 -41.85 L-16.95 -42.6 Q-18.2 -41.95 -16.05 -41.35 M-16.8 -34.8 L-15.45 -34.55 Q-16.85 -37.65 -19.0 -40.3 L-20.5 -41.95 Q-21.85 -37.8 -17.9 -35.3 L-16.8 -34.8 M-22.25 -43.85 Q-25.05 -43.2 -27.8 -42.15 -24.55 -41.9 -21.7 -42.95 L-21.45 -43.55 -22.25 -43.85 M-33.35 -48.05 Q-32.7 -48.1 -32.5 -48.8 -32.45 -49.65 -33.65 -49.6 -34.1 -48.8 -33.65 -48.3 L-33.35 -48.05 M-34.15 -25.05 L-33.45 -22.0 Q-29.25 -25.7 -30.35 -30.9 L-30.65 -31.25 Q-31.15 -32.2 -32.0 -31.9 -35.25 -29.3 -34.15 -25.05 M-39.7 -27.95 Q-41.0 -28.55 -41.35 -27.3 -39.6 -22.65 -34.7 -20.95 -36.25 -24.35 -38.6 -27.1 L-39.7 -27.95 M-21.7 -22.2 Q-25.75 -23.9 -30.05 -22.05 -31.5 -21.4 -32.3 -20.15 -28.95 -17.9 -25.3 -19.55 -23.3 -20.5 -21.7 -22.2 M-20.9 -14.55 Q-20.25 -15.25 -19.3 -15.25 -18.35 -15.25 -17.65 -14.55 -17.0 -13.85 -17.0 -12.9 -17.0 -11.95 -17.65 -11.25 -18.35 -10.55 -19.3 -10.55 -20.25 -10.55 -20.9 -11.25 -21.6 -11.95 -21.6 -12.9 -21.6 -13.85 -20.9 -14.55 M-36.8 -14.2 Q-33.55 -13.65 -33.35 -16.6 -33.4 -18.35 -35.0 -18.95 L-35.7 -19.2 Q-38.1 -18.25 -38.25 -16.55 -38.05 -14.95 -36.8 -14.2 M-1.7 -21.0 Q-4.9 -22.2 -8.2 -22.5 L-11.6 -22.4 -14.4 -21.75 Q-9.95 -20.2 -5.2 -20.35 L-1.7 -21.0 M-20.15 -14.0 Q-20.9 -12.65 -20.2 -11.9 L-19.7 -11.5 Q-18.6 -11.55 -18.25 -12.75 -18.2 -14.05 -20.15 -14.0" fill="#2c3a34" fill-rule="evenodd" stroke="none"/>
    </g>
  </defs>
</svg>
