<?xml version="1.0" encoding="UTF-8" standalone="no"?>
<svg xmlns:xlink="http://www.w3.org/1999/xlink" height="342.0px" width="237.9px" xmlns="http://www.w3.org/2000/svg">
  <g transform="matrix(1, 0, 0, 1, 118.05, 273.9)">
    <use height="150.35" transform="matrix(1.0, 0.0, 0.0, 1.0, -57.1, -138.6)" width="109.4" xlink:href="#shape0"/>
  </g>
  <defs>
    <g id="shape0" transform="matrix(1, 0, 0, 1, 57.1, 138.6)">
      <path d="M1.95 -128.95 L1.75 -127.65 1.95 -128.95 M5.15 -128.05 L5.15 -128.1 1.75 -127.65 -0.95 -127.35 -1.65 -127.3 -3.3 -127.15 -3.35 -127.15 -9.75 -126.85 -12.75 -126.8 -16.45 -126.9 -16.85 -128.35 -16.45 -126.9 -18.7 -127.05 -19.75 -127.2 -22.3 -127.55 -26.25 -128.3 -27.1 -123.8 -29.7 -109.8 -29.85 -108.95 -31.5 -100.5 -31.5 -100.45 -33.6 -90.8 -35.05 -83.95 -36.45 -76.45 -37.7 -69.6 -38.65 -64.4 -38.8 -63.55 -39.0 -62.5 -39.2 -61.3 -40.15 -55.2 -40.25 -54.7 -40.25 -54.65 -40.65 -51.95 -41.5 -46.5 -42.8 -37.8 -42.8 -37.75 -43.65 -31.45 -43.7 -31.5 -43.7 -31.45 -43.85 -30.4 -44.35 -26.8 -45.25 -20.95 -47.2 -7.3 -47.85 -3.5 -48.05 -2.35 -49.1 2.3 Q-48.7 2.15 -43.8 3.4 L-21.25 4.2 -3.3 4.2 20.3 4.0 Q49.1 0.1 46.05 -7.25 L44.3 -11.55 44.15 -11.85 38.65 -26.05 38.25 -27.1 30.35 -49.1 30.35 -49.15 28.4 -54.55 27.6 -56.9 27.5 -57.15 27.35 -57.65 26.05 -61.3 24.85 -64.75 22.9 -70.3 18.25 -83.95 16.6 -89.0 16.4 -89.5 14.0 -97.0 13.0 -100.05 12.7 -101.0 10.1 -109.3 10.05 -109.45 9.7 -110.55 Q7.25 -118.6 6.15 -123.1 L6.05 -123.4 Q5.2 -126.8 5.15 -128.05 M19.25 -101.0 L21.05 -94.9 21.05 -94.8 22.7 -89.5 22.85 -89.0 24.4 -83.95 Q27.0 -75.6 28.6 -71.25 L32.25 -61.3 41.4 -36.25 45.7 -24.5 47.9 -18.45 49.95 -12.9 51.6 -8.3 Q52.6 -4.7 52.2 -2.15 51.95 -0.55 51.2 0.6 49.2 3.6 44.15 6.0 32.15 11.75 -9.15 11.75 L-21.25 11.7 -50.65 10.55 Q-52.15 10.3 -54.55 7.85 L-56.6 5.65 -56.95 4.6 -57.0 4.3 Q-57.55 -0.6 -54.05 -21.6 L-53.85 -22.85 -52.65 -29.8 -52.55 -30.4 -52.05 -33.15 -46.95 -61.3 -45.9 -66.95 -42.8 -83.95 -41.8 -89.0 -40.2 -97.0 Q-34.85 -123.55 -32.05 -131.9 L-32.05 -138.6 Q-19.9 -134.55 -2.0 -134.55 3.25 -134.55 9.6 -135.6 14.05 -118.6 16.65 -109.8 L19.25 -101.0 M28.8 -60.1 L27.5 -57.15 28.8 -60.1 M-41.8 -56.9 L-40.25 -54.7 -41.8 -56.9 M-3.0 -128.6 L-3.3 -127.15 -3.0 -128.6 M-22.75 -128.95 L-22.3 -127.55 -22.75 -128.95" fill="#000000" fill-rule="evenodd" stroke="none"/>
      <path d="M1.75 -127.65 L5.15 -128.1 5.15 -128.05 Q5.2 -126.8 6.05 -123.4 L16.5 -69.35 17.4 -64.55 20.7 -47.4 26.15 -18.95 Q-2.25 -10.05 -33.0 -16.6 L-31.0 -49.5 -30.2 -63.1 -29.8 -69.05 -26.25 -128.3 -22.3 -127.55 -19.75 -127.2 -18.7 -127.05 -16.45 -126.9 Q-14.55 -120.25 -8.95 -114.5 -17.05 -112.45 -21.8 -125.95 -25.55 -70.8 -26.85 -20.85 -2.2 -17.8 19.8 -23.0 11.4 -70.7 1.0 -124.5 L1.75 -127.65 1.0 -124.5 Q-1.9 -113.8 -8.95 -114.5 -4.8 -120.85 -3.3 -127.15 L-1.65 -127.3 -0.95 -127.35 1.75 -127.65 M-22.3 -127.55 L-21.8 -125.95 -22.3 -127.55" fill="#ffe81a" fill-rule="evenodd" stroke="none"/>
      <path d="M-26.25 -128.3 L-29.8 -69.05 -30.2 -63.1 -31.0 -49.5 -33.0 -16.6 Q-2.25 -10.05 26.15 -18.95 L20.7 -47.4 17.4 -64.55 16.5 -69.35 6.05 -123.4 6.15 -123.1 Q7.25 -118.6 9.7 -110.55 L10.05 -109.45 10.1 -109.3 12.7 -101.0 13.0 -100.05 14.0 -97.0 16.4 -89.5 16.6 -89.0 18.25 -83.95 22.9 -70.3 24.85 -64.75 26.05 -61.3 27.35 -57.65 27.5 -57.15 27.6 -56.9 28.4 -54.55 30.35 -49.15 30.35 -49.1 38.25 -27.1 38.65 -26.05 44.15 -11.85 44.3 -11.55 46.05 -7.25 Q49.1 0.1 20.3 4.0 L-3.3 4.2 -21.25 4.2 -43.8 3.4 Q-48.7 2.15 -49.1 2.3 L-48.05 -2.35 -47.85 -3.5 -47.2 -7.3 -45.25 -20.95 -44.35 -26.8 -43.85 -30.4 -43.7 -31.45 -43.65 -31.45 -42.8 -37.75 -42.8 -37.8 -41.5 -46.5 -40.65 -51.95 -40.25 -54.65 -40.25 -54.7 -40.15 -55.2 -39.2 -61.3 -39.0 -62.5 -38.8 -63.55 -38.65 -64.4 -37.7 -69.6 -36.45 -76.45 -35.05 -83.95 -33.6 -90.8 -31.5 -100.45 -31.5 -100.5 -29.85 -108.95 -29.7 -109.8 -27.1 -123.8 -26.25 -128.3 M27.5 -57.15 Q24.45 -50.9 20.7 -47.4 24.45 -50.9 27.5 -57.15 M-31.0 -49.5 Q-37.05 -51.05 -40.25 -54.7 -37.05 -51.05 -31.0 -49.5" fill="#ffeeee" fill-rule="evenodd" stroke="none"/>
      <path d="M1.0 -124.5 Q11.4 -70.7 19.8 -23.0 -2.2 -17.8 -26.85 -20.85 -25.55 -70.8 -21.8 -125.95 -17.05 -112.45 -8.95 -114.5 -1.9 -113.8 1.0 -124.5" fill="#3c3c3c" fill-rule="evenodd" stroke="none"/>
      <path d="M-16.45 -126.9 L-12.75 -126.8 -9.75 -126.85 -3.35 -127.15 -3.3 -127.15 Q-4.8 -120.85 -8.95 -114.5 -14.55 -120.25 -16.45 -126.9" fill="#fff1dd" fill-rule="evenodd" stroke="none"/>
      <path d="M1.75 -127.65 L1.95 -128.95 M1.75 -127.65 L1.0 -124.5 Q11.4 -70.7 19.8 -23.0 -2.2 -17.8 -26.85 -20.85 -25.55 -70.8 -21.8 -125.95 L-22.3 -127.55 -22.75 -128.95 M-26.25 -128.3 L-29.8 -69.05 -30.2 -63.1 -31.0 -49.5 -33.0 -16.6 Q-2.25 -10.05 26.15 -18.95 L20.7 -47.4 17.4 -64.55 16.5 -69.35 6.05 -123.4 Q5.2 -126.8 5.15 -128.05 M-40.25 -54.7 L-41.8 -56.9 M27.5 -57.15 L28.8 -60.1 M20.7 -47.4 Q24.45 -50.9 27.5 -57.15 M-3.3 -127.15 L-3.0 -128.6 M-16.45 -126.9 L-16.85 -128.35 M-3.3 -127.15 Q-4.8 -120.85 -8.95 -114.5 -1.9 -113.8 1.0 -124.5 M-40.25 -54.7 Q-37.05 -51.05 -31.0 -49.5 M-8.95 -114.5 Q-14.55 -120.25 -16.45 -126.9 M-21.8 -125.95 Q-17.05 -112.45 -8.95 -114.5" fill="none" stroke="#000000" stroke-linecap="round" stroke-linejoin="round" stroke-width="3.0"/>
      <path d="M22.25 -2.05 L12.3 -0.65 M41.8 -7.15 Q37.2 -5.45 32.15 -4.15 M-37.85 -1.15 L-44.1 -1.85 M-17.85 0.25 L-27.85 -0.3 M2.25 0.15 L-7.8 0.4" fill="none" stroke="#e60000" stroke-linecap="round" stroke-linejoin="round" stroke-width="4.0"/>
      <path d="M-0.3 -89.25 Q1.25 -86.9 2.2 -84.55 3.5 -81.3 2.1 -78.8 L1.95 -78.6 Q-1.45 -73.25 -6.35 -75.05 L-7.7 -75.65 Q-11.0 -77.5 -11.0 -81.1 L-10.95 -81.65 Q-10.8 -82.85 -9.65 -83.7 -8.3 -84.8 -6.8 -84.5 M6.0 -45.1 L3.95 -43.95 Q1.7 -42.35 2.05 -40.3 L2.4 -39.2 Q3.4 -37.0 6.05 -36.0 L9.25 -35.3 12.7 -34.45 Q16.55 -32.95 16.0 -28.1 M-7.2 -107.75 Q-10.6 -100.95 -5.15 -95.2 -2.25 -92.2 -0.3 -89.25 M-3.15 -61.7 Q-3.45 -59.45 -4.65 -57.9 -6.8 -55.25 -11.65 -54.85 L-12.95 -54.7 Q-17.7 -53.85 -21.25 -49.1 -23.4 -46.25 -23.65 -42.3" fill="none" stroke="#347e01" stroke-linecap="round" stroke-linejoin="round" stroke-width="2.0"/>
      <path d="M-7.7 -75.65 L-8.3 -73.5 M6.05 -36.0 Q7.85 -37.3 7.25 -39.6 M3.0 -46.35 L3.95 -43.95 M-10.95 -81.65 Q-12.35 -81.6 -13.1 -82.35 M-0.3 -89.25 Q2.3 -88.95 2.2 -91.05 M-12.95 -54.7 L-12.0 -52.45 M-6.7 -58.6 L-4.65 -57.9 M-21.25 -49.1 Q-18.85 -47.0 -17.45 -48.35 M2.05 -40.3 Q0.65 -39.05 -0.7 -39.7 M2.1 -78.8 Q0.9 -80.85 -0.8 -80.15" fill="none" stroke="#347e01" stroke-linecap="round" stroke-linejoin="round" stroke-width="1.5"/>
      <path d="M12.7 -34.45 Q14.05 -32.35 11.7 -31.5" fill="none" stroke="#347e01" stroke-linecap="round" stroke-linejoin="round" stroke-width="1.5"/>
      <path d="M-20.0 -103.35 Q-21.05 -104.45 -20.95 -105.7 -22.25 -108.5 -20.7 -109.2 -21.45 -110.95 -21.15 -113.5 -21.0 -114.8 -19.15 -114.8 -19.25 -115.25 -18.65 -115.75 -18.5 -117.05 -16.75 -117.55 -15.8 -119.15 -14.1 -120.45 -12.45 -121.7 -11.7 -121.45 -7.8 -121.8 -4.9 -117.75 L-3.1 -118.15 Q-2.4 -118.1 -2.1 -117.55 L-2.1 -117.5 Q-0.4 -117.7 0.05 -117.15 L0.2 -116.9 Q1.7 -116.7 2.85 -115.35 3.95 -114.05 4.2 -112.3 4.5 -110.45 3.65 -108.8 L2.7 -107.4 Q6.6 -99.8 -2.55 -98.25 L-2.95 -97.7 Q-5.3 -95.3 -9.7 -97.2 L-10.25 -97.45 Q-20.1 -96.15 -20.0 -103.35 L-18.25 -102.15 Q-17.85 -103.25 -17.95 -105.05 -17.85 -103.25 -18.25 -102.15 L-20.0 -103.35 M-18.0 -105.5 L-17.95 -105.05 -17.9 -105.1 -18.0 -105.5 Q-18.4 -107.0 -19.1 -107.25 -18.4 -107.0 -18.0 -105.5 M-15.3 -115.5 L-18.65 -115.75 -15.3 -115.5 Q-11.4 -118.5 -8.65 -114.5 -12.3 -114.85 -13.1 -112.4 L-13.3 -113.0 Q-13.95 -114.45 -15.0 -115.35 L-15.3 -115.5 -15.0 -115.35 Q-13.95 -114.45 -13.3 -113.0 L-13.1 -112.4 -12.9 -111.7 Q-9.45 -111.85 -7.4 -112.5 -5.9 -113.0 -5.1 -113.8 L-8.65 -114.5 -5.1 -113.8 Q-5.9 -113.0 -7.4 -112.5 -9.45 -111.85 -12.9 -111.7 L-13.1 -112.4 Q-12.3 -114.85 -8.65 -114.5 -11.4 -118.5 -15.3 -115.5 M-11.7 -121.45 Q-11.15 -121.25 -10.8 -120.55 -11.15 -121.25 -11.7 -121.45 M-12.9 -111.7 Q-12.65 -110.5 -12.7 -109.15 L-13.15 -106.65 -12.7 -109.15 Q-12.65 -110.5 -12.9 -111.7 M-13.15 -106.65 L-13.65 -105.1 Q-12.4 -103.45 -10.2 -103.75 -11.8 -104.85 -13.15 -106.65 M-3.65 -114.15 L-3.35 -114.5 Q0.8 -110.85 -2.15 -107.8 -1.45 -106.7 -2.05 -105.7 -2.75 -104.65 -5.1 -103.65 L-5.85 -104.85 -5.1 -103.65 Q-2.75 -104.65 -2.05 -105.7 -1.45 -106.7 -2.15 -107.8 0.8 -110.85 -3.35 -114.5 L-3.65 -114.15 Q-4.45 -116.7 -8.55 -116.6 -4.45 -116.7 -3.65 -114.15 M-12.7 -109.15 Q-11.85 -107.95 -9.15 -107.5 -7.3 -107.25 -7.0 -105.55 L-7.1 -104.0 -9.05 -104.05 -10.2 -103.75 -9.05 -104.05 -7.1 -104.0 -7.0 -105.55 Q-7.3 -107.25 -9.15 -107.5 -11.85 -107.95 -12.7 -109.15 M-7.25 -111.4 L-7.4 -112.5 -7.25 -111.4 Q-1.85 -109.75 -5.85 -104.85 -1.85 -109.75 -7.25 -111.4 -7.15 -109.65 -8.45 -109.1 L-11.0 -109.2 -8.45 -109.1 Q-7.15 -109.65 -7.25 -111.4 M-0.55 -115.95 Q0.2 -116.5 0.2 -116.9 0.2 -116.5 -0.55 -115.95 M-1.45 -103.9 Q-0.25 -105.8 -2.05 -105.7 -0.25 -105.8 -1.45 -103.9 M-10.25 -97.45 Q-13.3 -98.95 -12.1 -99.9 -16.7 -98.55 -17.9 -105.1 -16.7 -98.55 -12.1 -99.9 -13.3 -98.95 -10.25 -97.45 M-7.85 -101.15 Q-4.35 -100.75 -2.75 -101.8 L-1.7 -102.9 Q0.75 -103.2 0.55 -105.8 1.85 -106.5 2.7 -107.4 1.85 -106.5 0.55 -105.8 0.75 -103.2 -1.7 -102.9 L-2.75 -101.8 Q-3.15 -100.45 -2.45 -99.7 -1.95 -99.15 -2.55 -98.25 -1.95 -99.15 -2.45 -99.7 -3.15 -100.45 -2.75 -101.8 -4.35 -100.75 -7.85 -101.15 -8.75 -99.85 -10.55 -99.85 -8.75 -99.85 -7.85 -101.15 L-7.45 -101.85 -7.05 -102.95 Q-6.9 -103.65 -7.1 -104.0 -6.9 -103.65 -7.05 -102.95 L-7.45 -101.85 -7.85 -101.15 M-5.1 -103.65 L-7.05 -102.95 -5.1 -103.65 M-19.6 -107.5 Q-20.35 -108.25 -20.7 -109.2 -20.35 -108.25 -19.6 -107.5 M-3.35 -114.5 Q-1.6 -116.35 -2.1 -117.5 -1.6 -116.35 -3.35 -114.5 M-7.0 -105.55 L-5.85 -104.85 -7.0 -105.55" fill="#feabab" fill-rule="evenodd" stroke="none"/>
      <path d="M-10.2 -103.75 Q-12.4 -103.45 -13.65 -105.1 L-13.15 -106.65 Q-11.8 -104.85 -10.2 -103.75" fill="#fe9a9a" fill-rule="evenodd" stroke="none"/>
      <path d="M-20.0 -103.35 Q-21.05 -104.45 -20.95 -105.7 -22.25 -108.5 -20.7 -109.2 -21.45 -110.95 -21.15 -113.5 -21.0 -114.8 -19.15 -114.8 -19.25 -115.25 -18.65 -115.75 -18.5 -117.05 -16.75 -117.55 -15.8 -119.15 -14.1 -120.45 -12.45 -121.7 -11.7 -121.45 -7.8 -121.8 -4.9 -117.75 L-3.1 -118.15 Q-2.4 -118.1 -2.1 -117.55 L-2.1 -117.5 Q-0.4 -117.7 0.05 -117.15 L0.2 -116.9 Q1.7 -116.7 2.85 -115.35 3.95 -114.05 4.2 -112.3 4.5 -110.45 3.65 -108.8 L2.7 -107.4 Q1.85 -106.5 0.55 -105.8 0.75 -103.2 -1.7 -102.9 L-2.75 -101.8 Q-3.15 -100.45 -2.45 -99.7 -1.95 -99.15 -2.55 -98.25 L-2.95 -97.7 Q-5.3 -95.3 -9.7 -97.2 L-10.25 -97.45 M-20.0 -103.35 L-18.25 -102.15 Q-17.85 -103.25 -17.95 -105.05 L-18.0 -105.5 Q-18.4 -107.0 -19.1 -107.25 M-10.8 -120.55 Q-11.15 -121.25 -11.7 -121.45 M-13.1 -112.4 Q-12.3 -114.85 -8.65 -114.5 -11.4 -118.5 -15.3 -115.5 L-15.0 -115.35 Q-13.95 -114.45 -13.3 -113.0 L-13.1 -112.4 -12.9 -111.7 Q-9.45 -111.85 -7.4 -112.5 -5.9 -113.0 -5.1 -113.8 L-8.65 -114.5 M-18.65 -115.75 L-15.3 -115.5 M-17.9 -105.1 L-18.0 -105.5 M-13.15 -106.65 L-12.7 -109.15 Q-12.65 -110.5 -12.9 -111.7 M-10.2 -103.75 Q-12.4 -103.45 -13.65 -105.1 L-13.15 -106.65 M-10.2 -103.75 L-9.05 -104.05 -7.1 -104.0 -7.0 -105.55 Q-7.3 -107.25 -9.15 -107.5 -11.85 -107.95 -12.7 -109.15 M-5.85 -104.85 L-5.1 -103.65 Q-2.75 -104.65 -2.05 -105.7 -1.45 -106.7 -2.15 -107.8 0.8 -110.85 -3.35 -114.5 L-3.65 -114.15 M0.2 -116.9 Q0.2 -116.5 -0.55 -115.95 M-7.4 -112.5 L-7.25 -111.4 Q-7.15 -109.65 -8.45 -109.1 L-11.0 -109.2 M-5.85 -104.85 L-7.0 -105.55 M-2.1 -117.5 Q-1.6 -116.35 -3.35 -114.5 M-20.7 -109.2 Q-20.35 -108.25 -19.6 -107.5 M-10.55 -99.85 Q-8.75 -99.85 -7.85 -101.15 L-7.45 -101.85 -7.05 -102.95 Q-6.9 -103.65 -7.1 -104.0 M-7.05 -102.95 L-5.1 -103.65 M-2.75 -101.8 Q-4.35 -100.75 -7.85 -101.15 M-17.9 -105.1 Q-16.7 -98.55 -12.1 -99.9 -13.3 -98.95 -10.25 -97.45 M-2.05 -105.7 Q-0.25 -105.8 -1.45 -103.9" fill="none" stroke="#000000" stroke-linecap="round" stroke-linejoin="round" stroke-width="1.5"/>
      <path d="M2.7 -107.4 Q6.6 -99.8 -2.55 -98.25 M-10.25 -97.45 Q-20.1 -96.15 -20.0 -103.35 M-3.65 -114.15 Q-4.45 -116.7 -8.55 -116.6 M-7.25 -111.4 Q-1.85 -109.75 -5.85 -104.85" fill="none" stroke="#000000" stroke-linecap="round" stroke-linejoin="round" stroke-width="1.5"/>
      <path d="M-13.15 -106.65 Q-11.8 -104.85 -10.2 -103.75" fill="none" stroke="#010101" stroke-linecap="round" stroke-linejoin="round" stroke-opacity="0.0" stroke-width="1.5"/>
    </g>
  </defs>
</svg>
