<?xml version="1.0" encoding="UTF-8" standalone="no"?>
<svg xmlns:xlink="http://www.w3.org/1999/xlink" height="342.0px" width="237.9px" xmlns="http://www.w3.org/2000/svg">
  <g transform="matrix(1, 0, 0, 1, 118.05, 273.9)">
    <use height="150.35" transform="matrix(1.0, 0.0, 0.0, 1.0, -57.05, -138.6)" width="109.35" xlink:href="#shape0"/>
    <use height="39.15" transform="matrix(1.0, 0.0, 0.0, 1.0, -27.25, -102.7)" width="39.15" xlink:href="#shape1"/>
  </g>
  <defs>
    <g id="shape0" transform="matrix(1, 0, 0, 1, 57.05, 138.6)">
      <path d="M28.4 -54.55 L27.6 -56.9 27.35 -57.65 26.05 -61.3 24.85 -64.7 18.25 -83.95 16.6 -89.0 16.4 -89.5 14.0 -97.0 13.0 -100.05 12.7 -101.0 10.1 -109.3 10.05 -109.45 9.7 -110.55 Q7.25 -118.6 6.15 -123.1 5.2 -126.75 5.15 -128.05 L5.15 -128.1 -0.95 -127.35 -1.65 -127.3 -3.35 -127.15 -9.75 -126.85 -12.75 -126.8 -18.7 -127.05 -19.75 -127.2 -26.25 -128.3 -27.1 -123.8 -29.7 -109.8 -29.85 -108.95 -31.5 -100.5 -31.5 -100.45 -33.6 -90.8 -35.05 -83.95 -36.45 -76.45 -38.8 -63.55 -39.0 -62.5 -39.2 -61.3 -40.15 -55.2 -40.25 -54.65 -40.65 -51.95 -41.5 -46.5 -42.8 -37.8 -42.8 -37.75 -43.65 -31.45 -43.7 -31.5 -43.7 -31.45 -43.85 -30.4 -44.35 -26.8 -45.25 -20.95 -47.2 -7.3 -48.05 -2.35 -49.1 2.3 Q-48.7 2.15 -43.8 3.4 L-21.25 4.2 -3.3 4.2 20.3 4.0 Q49.1 0.1 46.05 -7.25 L44.3 -11.55 44.15 -11.85 38.65 -26.05 38.25 -27.1 30.35 -49.1 30.35 -49.15 28.4 -54.55 30.6 -55.4 28.4 -54.55 M19.25 -101.0 L21.05 -94.9 21.05 -94.8 22.7 -89.5 22.85 -89.0 24.4 -83.95 Q27.0 -75.6 28.6 -71.25 L32.25 -61.3 41.4 -36.25 45.7 -24.5 47.9 -18.45 49.95 -12.9 51.6 -8.3 Q52.6 -4.7 52.2 -2.15 51.95 -0.55 51.2 0.6 49.2 3.6 44.15 6.0 32.15 11.75 -9.15 11.75 L-21.25 11.7 -50.65 10.55 Q-52.15 10.3 -54.55 7.85 L-56.6 5.65 -56.95 4.6 -57.0 4.3 Q-57.55 -0.6 -54.05 -21.6 L-53.85 -22.85 -52.65 -29.8 -52.55 -30.4 -52.05 -33.15 -46.95 -61.3 -42.8 -83.95 -41.8 -89.0 -40.2 -97.0 Q-34.85 -123.55 -32.05 -131.9 L-32.05 -138.6 Q-19.9 -134.55 -2.0 -134.55 3.25 -134.55 9.6 -135.6 14.05 -118.6 16.65 -109.8 L19.25 -101.0 M-41.7 -52.25 L-40.65 -51.95 -41.7 -52.25" fill="#000000" fill-rule="evenodd" stroke="none"/>
      <path d="M-1.65 -127.3 Q-2.45 -118.1 -8.6 -112.55 -18.2 -119.8 -18.7 -127.05 L-12.75 -126.8 -9.75 -126.85 -3.35 -127.15 -1.65 -127.3" fill="#fff1dd" fill-rule="evenodd" stroke="none"/>
      <path d="M-40.65 -51.95 Q-4.15 -42.6 28.4 -54.55 L30.35 -49.15 30.35 -49.1 38.25 -27.1 38.65 -26.05 44.15 -11.85 44.3 -11.55 46.05 -7.25 Q49.1 0.1 20.3 4.0 L-3.3 4.2 -21.25 4.2 -43.8 3.4 Q-48.7 2.15 -49.1 2.3 L-48.05 -2.35 -47.2 -7.3 -45.25 -20.95 -44.35 -26.8 -43.85 -30.4 -43.7 -31.45 -43.65 -31.45 -42.8 -37.75 -42.8 -37.8 -41.5 -46.5 -40.65 -51.95 M42.05 -6.25 L27.95 -47.4 42.05 -6.25 M39.0 -3.3 L23.7 -47.4 39.0 -3.3 M-41.4 1.4 L-35.5 -47.4 -41.4 1.4 M-45.65 -0.7 L-39.75 -45.4 -45.65 -0.7" fill="#4ba541" fill-rule="evenodd" stroke="none"/>
      <path d="M-1.65 -127.3 L-0.95 -127.35 5.15 -128.1 5.15 -128.05 Q5.2 -126.75 6.15 -123.1 7.25 -118.6 9.7 -110.55 L10.05 -109.45 10.1 -109.3 12.7 -101.0 13.0 -100.05 14.0 -97.0 16.4 -89.5 16.6 -89.0 18.25 -83.95 24.85 -64.7 26.05 -61.3 27.35 -57.65 27.6 -56.9 28.4 -54.55 Q-4.15 -42.6 -40.65 -51.95 L-40.25 -54.65 -40.15 -55.2 -39.2 -61.3 -39.0 -62.5 -38.8 -63.55 -36.45 -76.45 -35.05 -83.95 -33.6 -90.8 -31.5 -100.45 -31.5 -100.5 -29.85 -108.95 -29.7 -109.8 -27.1 -123.8 -26.25 -128.3 -19.75 -127.2 -18.7 -127.05 Q-18.2 -119.8 -8.6 -112.55 -2.45 -118.1 -1.65 -127.3" fill="#51cd43" fill-rule="evenodd" stroke="none"/>
      <path d="M28.4 -54.55 L30.6 -55.4 M-40.65 -51.95 L-41.7 -52.25" fill="none" stroke="#000000" stroke-linecap="round" stroke-linejoin="round" stroke-width="3.0"/>
      <path d="M23.7 -47.4 L39.0 -3.3 M27.95 -47.4 L42.05 -6.25 M-39.75 -45.4 L-45.65 -0.7 M-35.5 -47.4 L-41.4 1.4" fill="none" stroke="#ffffff" stroke-linecap="round" stroke-linejoin="round" stroke-width="2.0"/>
      <path d="M-1.65 -127.3 Q-2.45 -118.1 -8.6 -112.55 -18.2 -119.8 -18.7 -127.05 M-40.65 -51.95 Q-4.15 -42.6 28.4 -54.55 M-3.3 7.55 L-3.3 -29.5" fill="none" stroke="#000000" stroke-linecap="round" stroke-linejoin="round" stroke-width="5.0"/>
    </g>
    <g id="shape1" transform="matrix(1, 0, 0, 1, 27.25, 102.7)">
      <path d="M-25.85 -90.6 Q-24.75 -93.2 -22.9 -95.45 L-21.5 -96.95 Q-15.8 -102.7 -7.65 -102.7 0.45 -102.7 6.15 -96.95 11.9 -91.25 11.9 -83.15 11.9 -75.0 6.15 -69.3 0.45 -63.55 -7.65 -63.55 L-11.75 -63.95 Q-14.4 -64.45 -16.75 -65.7 -19.3 -67.05 -21.5 -69.3 -27.25 -75.0 -27.25 -83.15 -27.25 -87.15 -25.85 -90.6 M-20.4 -70.45 L-17.65 -68.1 Q-15.2 -66.45 -12.35 -65.7 L-7.65 -65.15 Q-0.2 -65.15 5.05 -70.45 10.3 -75.65 10.3 -83.15 10.3 -90.6 5.05 -95.85 -0.2 -101.1 -7.65 -101.1 -15.15 -101.1 -20.4 -95.85 L-22.25 -93.7 Q-24.1 -91.15 -24.95 -88.2 -25.65 -85.8 -25.65 -83.15 -25.65 -75.65 -20.4 -70.45 M-10.7 -73.45 Q-9.45 -72.15 -7.5 -72.15 -5.6 -72.15 -4.2 -73.6 -2.6 -75.2 -2.6 -77.75 -2.6 -80.4 -4.2 -82.0 -5.45 -83.25 -7.65 -83.3 -9.6 -83.3 -11.0 -81.9 -12.45 -80.4 -12.45 -77.75 -12.45 -75.2 -10.7 -73.45 M-13.75 -71.85 Q-16.55 -74.7 -16.55 -82.65 -16.55 -91.25 -13.55 -94.25 -10.85 -96.95 -7.2 -96.95 -3.55 -96.95 -1.3 -94.75 0.25 -93.15 0.75 -90.45 L-3.25 -90.45 Q-3.55 -92.05 -4.65 -93.15 -5.45 -93.9 -7.2 -93.95 -9.45 -93.95 -10.85 -92.55 -12.9 -90.45 -12.95 -84.7 L-12.95 -83.3 Q-10.7 -85.95 -6.9 -86.0 -3.25 -85.95 -0.85 -83.6 1.25 -81.55 1.25 -78.2 1.25 -74.05 -1.15 -71.7 -3.7 -69.15 -7.65 -69.15 -11.0 -69.15 -13.75 -71.85" fill="#ffffff" fill-rule="evenodd" stroke="none"/>
    </g>
  </defs>
</svg>
