<?xml version="1.0" encoding="UTF-8" standalone="no"?>
<svg xmlns:xlink="http://www.w3.org/1999/xlink" height="342.0px" width="237.9px" xmlns="http://www.w3.org/2000/svg">
  <g transform="matrix(1, 0, 0, 1, 118.05, 273.9)">
    <use height="150.35" transform="matrix(1.0, 0.0, 0.0, 1.0, -57.05, -138.6)" width="109.35" xlink:href="#shape0"/>
  </g>
  <defs>
    <g id="shape0" transform="matrix(1, 0, 0, 1, 57.05, 138.6)">
      <path d="M-1.35 -127.35 L-0.95 -127.35 1.1 -127.6 5.15 -128.1 5.15 -128.05 Q5.2 -126.75 6.15 -123.1 L6.35 -122.2 Q4.95 -117.5 1.85 -113.1 L-1.2 -109.4 Q-4.95 -110.55 -7.9 -112.7 -4.95 -110.55 -1.2 -109.4 L1.85 -113.1 5.8 -71.15 6.15 -67.05 Q13.35 -70.75 21.85 -73.4 L24.35 -66.15 24.85 -64.7 26.05 -61.3 27.35 -57.65 27.6 -56.9 28.4 -54.55 30.35 -49.15 30.35 -49.1 30.5 -48.75 38.25 -27.1 38.65 -26.05 44.15 -11.85 44.25 -11.6 44.3 -11.55 45.8 -7.9 44.85 -7.9 Q39.55 -7.9 36.5 -5.45 33.45 -3.05 29.35 -2.15 25.25 -1.25 19.25 -3.3 13.2 -5.4 5.25 -1.3 2.4 0.35 -0.6 0.8 L-6.75 0.55 Q-9.25 0.0 -11.8 -1.3 -20.6 -5.75 -28.3 -1.6 -35.65 1.3 -42.45 -1.75 -45.0 -2.95 -47.5 -3.4 L-47.85 -3.5 -47.2 -7.3 -45.55 -18.75 -45.25 -20.95 -44.35 -26.8 -43.85 -30.4 -43.7 -31.45 -43.65 -31.45 -42.8 -37.75 -42.8 -37.8 -41.5 -46.5 -40.65 -51.95 -40.25 -54.65 -40.15 -55.2 -39.2 -61.3 -39.0 -62.5 -38.8 -63.55 -38.4 -65.65 -37.25 -72.05 Q-28.85 -70.25 -21.3 -65.85 L-21.25 -69.9 Q-6.15 -68.55 5.8 -71.15 -6.15 -68.55 -21.25 -69.9 L-20.95 -112.65 Q-25.35 -116.25 -27.5 -121.15 L-27.55 -121.25 -27.1 -123.8 -26.25 -128.3 -24.75 -127.95 -22.6 -127.6 -22.1 -127.5 -19.75 -127.2 -18.7 -127.05 -18.3 -127.05 Q-16.35 -118.1 -7.9 -112.7 -2.6 -119.75 -1.35 -127.25 L-1.35 -127.35 M24.35 -66.15 Q-13.1 -58.55 -38.4 -65.65 -13.1 -58.55 24.35 -66.15 M-7.9 -112.7 Q-11.2 -110.8 -15.2 -109.05 -18.45 -110.65 -20.95 -112.65 -18.45 -110.65 -15.2 -109.05 -11.2 -110.8 -7.9 -112.7" fill="#ffeeee" fill-rule="evenodd" stroke="none"/>
      <path d="M6.35 -122.2 L6.15 -123.1 Q5.2 -126.75 5.15 -128.05 L5.15 -128.1 1.1 -127.6 -0.95 -127.35 -1.35 -127.35 -1.65 -127.3 -3.35 -127.15 -9.75 -126.85 -12.75 -126.8 -18.3 -127.05 -18.7 -127.05 -19.75 -127.2 -22.1 -127.5 -22.6 -127.6 -24.75 -127.95 -26.25 -128.3 -27.1 -123.8 -27.55 -121.25 -27.6 -121.1 -29.7 -109.8 -29.85 -108.95 -31.5 -100.5 -31.5 -100.45 -33.6 -90.8 -35.05 -83.95 -36.45 -76.45 -37.25 -72.05 -38.4 -65.65 -38.8 -63.55 -39.0 -62.5 -39.2 -61.3 -40.15 -55.2 -40.25 -54.65 -40.65 -51.95 -41.5 -46.5 -42.8 -37.8 -42.8 -37.75 -43.65 -31.45 -43.7 -31.5 -43.7 -31.45 -43.85 -30.4 -44.35 -26.8 -45.25 -20.95 -45.55 -18.75 -47.2 -7.3 -47.85 -3.5 -48.05 -2.35 -49.1 2.3 -49.05 2.3 Q-48.6 2.2 -43.8 3.4 L-21.25 4.2 -3.3 4.2 20.3 4.0 Q49.1 0.1 46.05 -7.25 L45.8 -7.9 44.3 -11.55 44.25 -11.6 44.15 -11.85 38.65 -26.05 38.25 -27.1 30.5 -48.75 30.35 -49.1 30.35 -49.15 28.4 -54.55 27.6 -56.9 27.35 -57.65 26.05 -61.3 24.85 -64.7 24.35 -66.15 21.85 -73.4 18.25 -83.95 16.6 -89.0 16.4 -89.5 14.0 -97.0 13.0 -100.05 12.7 -101.0 11.2 -105.75 10.1 -109.3 10.05 -109.45 9.7 -110.55 6.7 -120.9 6.35 -122.2 7.1 -125.4 6.35 -122.2 M19.25 -101.0 L21.05 -94.9 21.05 -94.8 22.7 -89.5 22.85 -89.0 24.4 -83.95 Q27.0 -75.6 28.6 -71.25 L32.25 -61.3 41.4 -36.25 45.7 -24.5 47.9 -18.45 49.95 -12.9 51.6 -8.3 Q52.6 -4.7 52.2 -2.15 51.95 -0.55 51.2 0.6 49.2 3.6 44.15 6.0 32.15 11.75 -9.15 11.75 L-21.25 11.7 -50.65 10.55 Q-52.15 10.3 -54.55 7.85 L-56.6 5.65 -56.95 4.6 -57.0 4.3 Q-57.55 -0.6 -54.05 -21.6 L-53.85 -22.85 -52.65 -29.8 -52.55 -30.4 -52.05 -33.15 -46.95 -61.3 -42.8 -83.95 -41.8 -89.0 -40.2 -97.0 Q-34.85 -123.55 -32.05 -131.9 L-32.05 -138.6 Q-19.9 -134.55 -2.0 -134.55 3.25 -134.55 9.6 -135.6 14.05 -118.6 16.65 -109.8 L19.25 -101.0 M23.05 -73.8 L21.85 -73.4 23.05 -73.8 M25.35 -66.35 L24.35 -66.15 25.35 -66.35 M-18.7 -129.3 L-18.3 -127.05 -18.7 -129.3 M-1.25 -128.25 L-1.35 -127.35 -1.25 -128.25 M-29.1 -126.15 Q-28.55 -123.55 -27.55 -121.25 -28.55 -123.55 -29.1 -126.15" fill="#000000" fill-rule="evenodd" stroke="none"/>
      <path d="M1.85 -113.1 Q4.95 -117.5 6.35 -122.2 L6.7 -120.9 9.7 -110.55 10.05 -109.45 10.1 -109.3 11.2 -105.75 12.7 -101.0 13.0 -100.05 14.0 -97.0 16.4 -89.5 16.6 -89.0 18.25 -83.95 21.85 -73.4 Q13.35 -70.75 6.15 -67.05 L5.8 -71.15 1.85 -113.1 M-21.25 -69.9 L-21.3 -65.85 Q-28.85 -70.25 -37.25 -72.05 L-36.45 -76.45 -35.05 -83.95 -33.6 -90.8 -31.5 -100.45 -31.5 -100.5 -29.85 -108.95 -29.7 -109.8 -27.6 -121.1 -27.5 -121.15 Q-25.35 -116.25 -20.95 -112.65 L-21.25 -69.9" fill="#6b0c0c" fill-rule="evenodd" stroke="none"/>
      <path d="M-47.85 -3.5 L-47.5 -3.4 Q-45.0 -2.95 -42.45 -1.75 -35.65 1.3 -28.3 -1.6 -20.6 -5.75 -11.8 -1.3 -9.25 0.0 -6.75 0.55 L-0.6 0.8 Q2.4 0.35 5.25 -1.3 13.2 -5.4 19.25 -3.3 25.25 -1.25 29.35 -2.15 33.45 -3.05 36.5 -5.45 39.55 -7.9 44.85 -7.9 L45.8 -7.9 46.05 -7.25 Q49.1 0.1 20.3 4.0 L-3.3 4.2 -21.25 4.2 -43.8 3.4 Q-48.6 2.2 -49.05 2.3 L-49.1 2.3 -48.05 -2.35 -47.85 -3.5" fill="#ffffff" fill-rule="evenodd" stroke="none"/>
      <path d="M-1.35 -127.25 Q-2.6 -119.75 -7.9 -112.7 -16.35 -118.1 -18.3 -127.05 L-12.75 -126.8 -9.75 -126.85 -3.35 -127.15 -1.65 -127.3 -1.35 -127.25" fill="#fff1dd" fill-rule="evenodd" stroke="none"/>
      <path d="M-1.35 -127.25 Q-2.6 -119.75 -7.9 -112.7 -4.95 -110.55 -1.2 -109.4 L1.85 -113.1 Q4.95 -117.5 6.35 -122.2 L7.1 -125.4 M21.85 -73.4 Q13.35 -70.75 6.15 -67.05 L5.8 -71.15 Q-6.15 -68.55 -21.25 -69.9 L-21.3 -65.85 Q-28.85 -70.25 -37.25 -72.05 M-38.4 -65.65 Q-13.1 -58.55 24.35 -66.15 L25.35 -66.35 M21.85 -73.4 L23.05 -73.8 M-47.85 -3.5 L-47.5 -3.4 Q-45.0 -2.95 -42.45 -1.75 -35.65 1.3 -28.3 -1.6 -20.6 -5.75 -11.8 -1.3 -9.25 0.0 -6.75 0.55 L-0.6 0.8 Q2.4 0.35 5.25 -1.3 13.2 -5.4 19.25 -3.3 25.25 -1.25 29.35 -2.15 33.45 -3.05 36.5 -5.45 39.55 -7.9 44.85 -7.9 L45.8 -7.9 M5.8 -71.15 L1.85 -113.1 M-27.55 -121.25 L-27.5 -121.15 Q-25.35 -116.25 -20.95 -112.65 -18.45 -110.65 -15.2 -109.05 -11.2 -110.8 -7.9 -112.7 -16.35 -118.1 -18.3 -127.05 L-18.7 -129.3 M-1.35 -127.35 L-1.25 -128.25 M-27.55 -121.25 Q-28.55 -123.55 -29.1 -126.15 M-20.95 -112.65 L-21.25 -69.9" fill="none" stroke="#000000" stroke-linecap="round" stroke-linejoin="round" stroke-width="3.5"/>
      <path d="M6.3 -100.65 Q2.65 -101.35 -0.65 -102.95 -2.55 -100.15 -6.3 -98.9 -6.25 -105.45 -8.95 -114.0 L-9.85 -113.8 -10.05 -113.8 Q-12.85 -104.95 -11.2 -98.9 L-16.3 -101.25 -22.6 -98.5 Q-22.9 -101.3 -20.8 -104.3 -23.35 -103.75 -25.9 -105.15 -34.5 -113.55 -26.6 -119.75 -18.75 -125.95 -13.15 -119.15 L-12.85 -119.6 Q-11.9 -120.7 -10.45 -120.8 -9.0 -120.95 -7.9 -120.0 L-7.0 -118.85 Q-2.9 -125.3 6.85 -119.7 16.6 -114.15 6.8 -108.1 L4.2 -106.7 6.3 -100.65 M-2.2 -111.85 Q-2.25 -110.75 -0.65 -110.55 0.9 -110.35 1.4 -110.9 1.85 -111.5 1.85 -112.5 1.75 -115.65 -2.85 -117.15 L-4.3 -117.55 -6.7 -118.0 -6.65 -117.6 Q-6.6 -116.75 -6.85 -116.05 L-2.2 -111.85 M-13.6 -117.6 Q-19.75 -116.15 -20.95 -113.15 -22.2 -110.15 -20.55 -109.5 -19.0 -108.9 -17.85 -110.9 -18.2 -113.35 -13.35 -115.85 L-13.6 -117.0 -13.6 -117.6 Q-13.6 -118.45 -13.15 -119.15 -13.6 -118.45 -13.6 -117.6 M-8.3 -114.35 Q-3.55 -103.05 4.2 -106.7 -3.55 -103.05 -8.3 -114.35 L-8.95 -114.0 -8.3 -114.35 Q-7.85 -114.65 -7.5 -115.05 L-6.85 -116.05 -7.5 -115.05 Q-7.85 -114.65 -8.3 -114.35 M-20.8 -104.3 Q-15.8 -105.35 -11.1 -113.95 -11.8 -114.15 -12.45 -114.65 L-13.35 -115.85 -12.45 -114.65 Q-11.8 -114.15 -11.1 -113.95 L-10.05 -113.8 -11.1 -113.95 Q-15.8 -105.35 -20.8 -104.3 M-7.0 -118.85 L-6.7 -118.0 -7.0 -118.85" fill="#fe4545" fill-rule="evenodd" stroke="none"/>
      <path d="M-6.7 -118.0 L-4.3 -117.55 -2.85 -117.15 Q1.75 -115.65 1.85 -112.5 1.85 -111.5 1.4 -110.9 0.9 -110.35 -0.65 -110.55 -2.25 -110.75 -2.2 -111.85 L-6.85 -116.05 Q-6.6 -116.75 -6.65 -117.6 L-6.7 -118.0 M-17.85 -110.9 Q-19.0 -108.9 -20.55 -109.5 -22.2 -110.15 -20.95 -113.15 -19.75 -116.15 -13.6 -117.6 L-13.6 -117.0 -13.35 -115.85 Q-18.2 -113.35 -17.85 -110.9" fill="#d20202" fill-rule="evenodd" stroke="none"/>
      <path d="M6.3 -100.65 Q2.65 -101.35 -0.65 -102.95 -2.55 -100.15 -6.3 -98.9 -6.25 -105.45 -8.95 -114.0 L-9.85 -113.8 -10.05 -113.8 Q-12.85 -104.95 -11.2 -98.9 L-16.3 -101.25 -22.6 -98.5 Q-22.9 -101.3 -20.8 -104.3 -23.35 -103.75 -25.9 -105.15 -34.5 -113.55 -26.6 -119.75 -18.75 -125.95 -13.15 -119.15 L-12.85 -119.6 Q-11.9 -120.7 -10.45 -120.8 -9.0 -120.95 -7.9 -120.0 L-7.0 -118.85 Q-2.9 -125.3 6.85 -119.7 16.6 -114.15 6.8 -108.1 L4.2 -106.7 6.3 -100.65 M-6.7 -118.0 L-6.65 -117.6 Q-6.6 -116.75 -6.85 -116.05 M-13.35 -115.85 L-13.6 -117.0 -13.6 -117.6 Q-13.6 -118.45 -13.15 -119.15 M-6.7 -118.0 L-7.0 -118.85 M-8.95 -114.0 L-8.3 -114.35 Q-7.85 -114.65 -7.5 -115.05 L-6.85 -116.05 M-13.35 -115.85 L-12.45 -114.65 Q-11.8 -114.15 -11.1 -113.95 L-10.05 -113.8 M-11.1 -113.95 Q-15.8 -105.35 -20.8 -104.3 M4.2 -106.7 Q-3.55 -103.05 -8.3 -114.35" fill="none" stroke="#000000" stroke-linecap="round" stroke-linejoin="round" stroke-width="2.0"/>
      <path d="M-2.2 -111.85 Q-2.25 -110.75 -0.65 -110.55 0.9 -110.35 1.4 -110.9 1.85 -111.5 1.85 -112.5 1.75 -115.65 -2.85 -117.15 L-4.3 -117.55 -6.7 -118.0 M-13.6 -117.6 Q-19.75 -116.15 -20.95 -113.15 -22.2 -110.15 -20.55 -109.5 -19.0 -108.9 -17.85 -110.9" fill="none" stroke="#000000" stroke-linecap="round" stroke-linejoin="round" stroke-width="1.5"/>
    </g>
  </defs>
</svg>
