<?xml version="1.0" encoding="UTF-8" standalone="no"?>
<svg xmlns:xlink="http://www.w3.org/1999/xlink" height="342.0px" width="237.9px" xmlns="http://www.w3.org/2000/svg">
  <g transform="matrix(1, 0, 0, 1, 118.05, 273.9)">
    <use height="150.35" transform="matrix(1.0, 0.0, 0.0, 1.0, -57.05, -138.6)" width="109.35" xlink:href="#shape0"/>
    <use height="33.6" transform="matrix(1.0, 0.0, 0.0, 1.0, -27.8, -121.75)" width="37.15" xlink:href="#shape1"/>
  </g>
  <defs>
    <g id="shape0" transform="matrix(1, 0, 0, 1, 57.05, 138.6)">
      <path d="M4.2 -127.95 L5.15 -128.1 5.15 -128.05 Q5.2 -127.0 5.85 -124.3 -3.0 -110.7 -8.9 -98.95 -21.5 -109.7 -27.0 -123.8 -21.5 -109.7 -8.9 -98.95 -3.0 -110.7 5.85 -124.3 L6.15 -123.1 6.7 -120.9 9.7 -110.55 10.05 -109.45 10.1 -109.3 11.2 -105.75 12.7 -101.0 13.0 -100.1 13.0 -100.05 14.0 -97.0 16.4 -89.5 16.6 -89.0 18.25 -83.95 24.85 -64.7 26.05 -61.3 27.35 -57.65 27.6 -56.9 28.4 -54.55 30.35 -49.15 30.35 -49.1 30.5 -48.75 33.9 -39.2 Q25.9 -23.6 13.0 -13.9 -6.25 -27.25 -17.7 -38.35 -21.35 -46.7 -21.2 -56.9 -14.55 -69.1 -3.6 -77.9 -14.55 -69.1 -21.2 -56.9 -21.35 -46.7 -17.7 -38.35 -23.55 -23.6 -34.4 -13.65 -41.1 -19.8 -43.95 -29.7 L-43.85 -30.4 -43.7 -31.45 -43.65 -31.45 -42.8 -37.75 -42.8 -37.8 -41.5 -46.5 -40.65 -51.95 -40.25 -54.65 -40.15 -55.2 -39.2 -61.3 -39.0 -62.5 -38.8 -63.55 -36.45 -76.45 -35.05 -83.95 -33.6 -90.8 -31.5 -100.45 -31.5 -100.5 -31.25 -101.75 -29.85 -108.95 -29.7 -109.8 -27.6 -121.1 -27.1 -123.8 -27.0 -123.8 -27.05 -123.9 -26.25 -128.3 -25.7 -128.15 Q-20.3 -123.2 -8.85 -117.45 0.1 -121.9 4.2 -127.95 M-3.6 -77.9 L14.6 -77.8 14.1 -84.0 4.6 -83.6 14.1 -84.0 14.6 -77.8 -3.6 -77.9 -2.55 -78.75 Q0.8 -81.35 4.6 -83.6 7.95 -85.7 11.7 -87.5 L4.9 -95.5 Q9.35 -96.65 13.0 -100.1 9.35 -96.65 4.9 -95.5 L11.7 -87.5 Q7.95 -85.7 4.6 -83.6 0.8 -81.35 -2.55 -78.75 L-3.6 -77.9 M-17.45 -78.85 Q-21.35 -66.9 -21.2 -57.55 L-21.2 -56.9 -21.2 -57.55 Q-21.35 -66.9 -17.45 -78.85 -20.85 -82.85 -29.6 -86.2 L-22.6 -96.05 Q-27.8 -98.4 -31.25 -101.75 -27.8 -98.4 -22.6 -96.05 L-29.6 -86.2 Q-20.85 -82.85 -17.45 -78.85 -14.4 -88.1 -8.9 -98.95 -14.4 -88.1 -17.45 -78.85 M-8.3 -58.7 Q-9.15 -59.55 -10.35 -59.55 -11.55 -59.55 -12.4 -58.7 -13.25 -57.85 -13.25 -56.65 -13.25 -55.45 -12.4 -54.6 -11.55 -53.75 -10.35 -53.75 -9.15 -53.75 -8.3 -54.6 -7.45 -55.45 -7.45 -56.65 -7.45 -57.85 -8.3 -58.7 -7.45 -57.85 -7.45 -56.65 -7.45 -55.45 -8.3 -54.6 -9.15 -53.75 -10.35 -53.75 -11.55 -53.75 -12.4 -54.6 -13.25 -55.45 -13.25 -56.65 -13.25 -57.85 -12.4 -58.7 -11.55 -59.55 -10.35 -59.55 -9.15 -59.55 -8.3 -58.7 M-10.1 -39.5 Q-8.9 -39.5 -8.05 -40.35 -7.2 -41.2 -7.2 -42.4 -7.2 -43.6 -8.05 -44.45 -8.9 -45.3 -10.1 -45.3 -11.3 -45.3 -12.15 -44.45 -13.0 -43.6 -13.0 -42.4 -13.0 -41.2 -12.15 -40.35 -11.3 -39.5 -10.1 -39.5 -11.3 -39.5 -12.15 -40.35 -13.0 -41.2 -13.0 -42.4 -13.0 -43.6 -12.15 -44.45 -11.3 -45.3 -10.1 -45.3 -8.9 -45.3 -8.05 -44.45 -7.2 -43.6 -7.2 -42.4 -7.2 -41.2 -8.05 -40.35 -8.9 -39.5 -10.1 -39.5" fill="#ffffff" fill-rule="evenodd" stroke="none"/>
      <path d="M5.85 -124.3 Q5.2 -127.0 5.15 -128.05 L5.15 -128.1 4.2 -127.95 -0.95 -127.35 -1.65 -127.3 -3.35 -127.15 -9.75 -126.85 -12.75 -126.8 -18.7 -127.05 -19.75 -127.2 -24.75 -127.95 -25.7 -128.15 -26.25 -128.3 -27.05 -123.9 -27.1 -123.8 -27.6 -121.1 -29.7 -109.8 -29.85 -108.95 -31.25 -101.75 -32.35 -102.9 -31.25 -101.75 -31.5 -100.5 -31.5 -100.45 -33.6 -90.8 -35.05 -83.95 -36.45 -76.45 -38.8 -63.55 -39.0 -62.5 -39.2 -61.3 -40.15 -55.2 -40.25 -54.65 -40.65 -51.95 -41.5 -46.5 -42.8 -37.8 -42.8 -37.75 -43.65 -31.45 -43.7 -31.5 -43.7 -31.45 -43.85 -30.4 -43.95 -29.7 -44.35 -26.8 -45.25 -20.95 -45.55 -18.75 -47.2 -7.3 -48.05 -2.35 -49.1 2.3 -49.05 2.3 Q-48.6 2.2 -43.8 3.4 L-21.25 4.2 -3.3 4.2 20.3 4.0 Q49.1 0.1 46.05 -7.25 L44.3 -11.55 44.25 -11.6 44.15 -11.85 38.65 -26.05 38.25 -27.1 33.9 -39.2 30.5 -48.75 30.35 -49.1 30.35 -49.15 28.4 -54.55 27.6 -56.9 27.35 -57.65 26.05 -61.3 24.85 -64.7 18.25 -83.95 16.6 -89.0 16.4 -89.5 14.0 -97.0 13.0 -100.05 13.0 -100.1 12.7 -101.0 11.2 -105.75 10.1 -109.3 10.05 -109.45 9.7 -110.55 6.7 -120.9 6.15 -123.1 5.85 -124.3 6.8 -125.8 5.85 -124.3 M14.3 -101.45 L13.0 -100.1 14.3 -101.45 M-47.5 -34.5 L-43.95 -29.7 -47.5 -34.5 M19.25 -101.0 L21.05 -94.9 21.05 -94.8 22.7 -89.5 22.85 -89.0 24.4 -83.95 Q27.0 -75.6 28.6 -71.25 L32.25 -61.3 41.4 -36.25 45.7 -24.5 47.9 -18.45 49.95 -12.9 51.6 -8.3 Q52.6 -4.7 52.2 -2.15 51.95 -0.55 51.2 0.6 49.2 3.6 44.15 6.0 32.15 11.75 -9.15 11.75 L-21.25 11.7 -50.65 10.55 Q-52.15 10.3 -54.55 7.85 L-56.6 5.65 -56.95 4.6 -57.0 4.3 Q-57.55 -0.6 -54.05 -21.6 L-53.85 -22.85 -52.65 -29.8 -52.55 -30.4 -52.05 -33.15 -46.95 -61.3 -42.8 -83.95 -41.8 -89.0 -40.2 -97.0 Q-34.85 -123.55 -32.05 -131.9 L-32.05 -138.6 Q-19.9 -134.55 -2.0 -134.55 3.25 -134.55 9.6 -135.6 14.05 -118.6 16.65 -109.8 L19.25 -101.0 M-27.6 -125.4 L-27.05 -123.9 -27.6 -125.4" fill="#000000" fill-rule="evenodd" stroke="none"/>
      <path d="M33.9 -39.2 L38.25 -27.1 38.65 -26.05 44.15 -11.85 44.25 -11.6 44.3 -11.55 46.05 -7.25 Q49.1 0.1 20.3 4.0 L-3.3 4.2 -21.25 4.2 -43.8 3.4 Q-48.6 2.2 -49.05 2.3 L-49.1 2.3 -48.05 -2.35 -47.2 -7.3 -45.55 -18.75 -45.25 -20.95 -44.35 -26.8 -43.95 -29.7 Q-41.1 -19.8 -34.4 -13.65 -23.55 -23.6 -17.7 -38.35 -6.25 -27.25 13.0 -13.9 25.9 -23.6 33.9 -39.2" fill="#333333" fill-rule="evenodd" stroke="none"/>
      <path d="M4.2 -127.95 Q0.1 -121.9 -8.85 -117.45 -20.3 -123.2 -25.7 -128.15 L-24.75 -127.95 -19.75 -127.2 -18.7 -127.05 -12.75 -126.8 -9.75 -126.85 -3.35 -127.15 -1.65 -127.3 -0.95 -127.35 4.2 -127.95" fill="#fff1dd" fill-rule="evenodd" stroke="none"/>
      <path d="M4.2 -127.95 Q0.1 -121.9 -8.85 -117.45 -20.3 -123.2 -25.7 -128.15 M-27.05 -123.9 L-27.0 -123.8 Q-21.5 -109.7 -8.9 -98.95 -3.0 -110.7 5.85 -124.3 L6.8 -125.8 M13.0 -100.1 L14.3 -101.45 M-43.95 -29.7 L-47.5 -34.5 M-3.6 -77.9 Q-14.55 -69.1 -21.2 -56.9 -21.35 -46.7 -17.7 -38.35 -6.25 -27.25 13.0 -13.9 25.9 -23.6 33.9 -39.2 M13.0 -100.1 Q9.35 -96.65 4.9 -95.5 L11.7 -87.5 Q7.95 -85.7 4.6 -83.6 0.8 -81.35 -2.55 -78.75 L-3.6 -77.9 M-27.05 -123.9 L-27.6 -125.4 M-31.25 -101.75 L-32.35 -102.9 M-43.95 -29.7 Q-41.1 -19.8 -34.4 -13.65 -23.55 -23.6 -17.7 -38.35 M-31.25 -101.75 Q-27.8 -98.4 -22.6 -96.05 L-29.6 -86.2 Q-20.85 -82.85 -17.45 -78.85 -14.4 -88.1 -8.9 -98.95 M-21.2 -56.9 L-21.2 -57.55 Q-21.35 -66.9 -17.45 -78.85" fill="none" stroke="#000000" stroke-linecap="round" stroke-linejoin="round" stroke-width="4.0"/>
      <path d="M4.6 -83.6 L14.1 -84.0 14.6 -77.8 -3.6 -77.9 M-8.3 -58.7 Q-7.45 -57.85 -7.45 -56.65 -7.45 -55.45 -8.3 -54.6 -9.15 -53.75 -10.35 -53.75 -11.55 -53.75 -12.4 -54.6 -13.25 -55.45 -13.25 -56.65 -13.25 -57.85 -12.4 -58.7 -11.55 -59.55 -10.35 -59.55 -9.15 -59.55 -8.3 -58.7 M-10.1 -39.5 Q-11.3 -39.5 -12.15 -40.35 -13.0 -41.2 -13.0 -42.4 -13.0 -43.6 -12.15 -44.45 -11.3 -45.3 -10.1 -45.3 -8.9 -45.3 -8.05 -44.45 -7.2 -43.6 -7.2 -42.4 -7.2 -41.2 -8.05 -40.35 -8.9 -39.5 -10.1 -39.5" fill="none" stroke="#000000" stroke-linecap="round" stroke-linejoin="round" stroke-width="3.0"/>
    </g>
    <g id="shape1" transform="matrix(1, 0, 0, 1, 27.8, 121.75)">
      <path d="M2.5 -102.75 Q-1.1 -104.9 -3.5 -107.6 -1.8 -102.2 2.65 -94.45 -3.3 -99.15 -3.35 -89.4 -8.5 -100.45 -8.85 -109.95 -10.1 -100.65 -14.35 -89.4 -14.7 -99.25 -21.15 -95.4 -16.8 -101.05 -15.6 -106.15 -17.7 -104.1 -20.65 -102.0 L-23.75 -105.45 Q-25.95 -108.4 -26.55 -119.15 -17.35 -121.05 -12.2 -119.15 -9.25 -121.85 -6.3 -119.15 -1.15 -121.05 8.1 -119.15 7.6 -110.55 5.5 -107.0 4.15 -104.6 2.5 -102.75 M-6.1 -111.25 L-6.15 -111.35 Q-5.05 -109.35 -3.5 -107.6 -5.05 -109.35 -6.15 -111.35 L-6.1 -111.25 Q-7.25 -110.2 -8.85 -109.95 -10.65 -109.8 -11.7 -111.0 -12.3 -112.65 -12.4 -114.6 -12.6 -116.7 -12.2 -119.15 -12.6 -116.7 -12.4 -114.6 -12.3 -112.65 -11.7 -111.0 -10.65 -109.8 -8.85 -109.95 -7.25 -110.2 -6.1 -111.25 -6.4 -111.1 -6.3 -111.4 -5.7 -112.8 -5.7 -114.95 -5.75 -116.8 -6.3 -119.15 -5.75 -116.8 -5.7 -114.95 -5.7 -112.8 -6.3 -111.4 -6.4 -111.1 -6.1 -111.25 M-15.6 -106.15 Q-13.0 -108.65 -11.7 -111.0 -13.0 -108.65 -15.6 -106.15 M-0.5 -113.45 Q-2.85 -115.0 -5.7 -114.95 -2.85 -115.0 -0.5 -113.45 M-17.9 -112.85 Q-16.05 -114.8 -12.4 -114.6 -16.05 -114.8 -17.9 -112.85" fill="#ffed4d" fill-rule="evenodd" stroke="none"/>
      <path d="M2.5 -102.75 Q-1.1 -104.9 -3.5 -107.6 -1.8 -102.2 2.65 -94.45 -3.3 -99.15 -3.35 -89.4 -8.5 -100.45 -8.85 -109.95 -10.1 -100.65 -14.35 -89.4 -14.7 -99.25 -21.15 -95.4 -16.8 -101.05 -15.6 -106.15 -17.7 -104.1 -20.65 -102.0 L-23.75 -105.45 Q-25.95 -108.4 -26.55 -119.15 -17.35 -121.05 -12.2 -119.15 -9.25 -121.85 -6.3 -119.15 -1.15 -121.05 8.1 -119.15 7.6 -110.55 5.5 -107.0 4.15 -104.6 2.5 -102.75 M-12.2 -119.15 Q-12.6 -116.7 -12.4 -114.6 -12.3 -112.65 -11.7 -111.0 -10.65 -109.8 -8.85 -109.95 -7.25 -110.2 -6.1 -111.25 -6.4 -111.1 -6.3 -111.4 -5.7 -112.8 -5.7 -114.95 -5.75 -116.8 -6.3 -119.15 M-11.7 -111.0 Q-13.0 -108.65 -15.6 -106.15 M-3.5 -107.6 Q-5.05 -109.35 -6.15 -111.35 L-6.1 -111.25" fill="none" stroke="#000000" stroke-linecap="round" stroke-linejoin="round" stroke-width="2.5"/>
      <path d="M-12.4 -114.6 Q-16.05 -114.8 -17.9 -112.85 M-5.7 -114.95 Q-2.85 -115.0 -0.5 -113.45" fill="none" stroke="#000000" stroke-linecap="round" stroke-linejoin="round" stroke-width="2.0"/>
    </g>
  </defs>
</svg>
