<?xml version="1.0" encoding="UTF-8" standalone="no"?>
<svg xmlns:xlink="http://www.w3.org/1999/xlink" height="342.0px" width="237.9px" xmlns="http://www.w3.org/2000/svg">
  <g transform="matrix(1, 0, 0, 1, 118.05, 273.9)">
    <use height="151.95" transform="matrix(1.0, 0.0, 0.0, 1.0, -60.75, -140.2)" width="112.35" xlink:href="#shape0"/>
  </g>
  <defs>
    <g id="shape0" transform="matrix(1, 0, 0, 1, 60.75, 140.2)">
      <path d="M27.95 -133.05 L23.9 -131.95 Q17.25 -130.2 10.85 -129.0 L13.9 -119.05 14.7 -116.4 16.65 -109.8 19.95 -98.6 20.6 -97.9 20.45 -96.85 Q25.95 -78.5 28.6 -71.25 31.4 -63.65 36.05 -54.15 L43.55 -39.05 Q51.6 -22.0 51.6 -8.65 51.6 -2.85 50.7 -0.45 49.2 3.6 44.15 6.0 32.15 11.75 -9.15 11.75 -43.85 11.75 -50.65 10.55 -52.85 10.2 -53.45 9.35 -54.15 8.4 -55.25 8.0 -60.75 6.0 -60.75 3.5 -60.75 -0.1 -57.7 -0.65 -57.05 -8.2 -45.75 -68.5 -36.15 -119.65 -32.05 -131.9 L-32.05 -138.6 Q-19.9 -134.55 -2.0 -134.55 8.75 -134.55 24.3 -139.1 L27.95 -140.2 27.95 -133.05 M7.7 -118.35 Q5.55 -125.6 5.15 -128.1 L-1.55 -127.3 -0.45 -125.5 Q2.75 -120.2 4.15 -116.35 5.65 -116.9 7.7 -118.35 M2.0 -100.8 Q2.0 -99.7 0.6 -99.05 L-0.75 -99.8 -0.9 -100.65 Q-0.9 -101.6 -0.35 -101.85 L0.6 -102.0 Q1.4 -101.65 2.0 -100.8 M3.2 -106.5 Q2.45 -106.5 -3.4 -116.8 L-6.0 -121.45 Q-5.15 -112.15 -4.15 -88.1 -4.15 -66.6 -4.3 -53.8 L4.15 -53.75 27.65 -56.1 Q15.7 -92.05 10.1 -110.35 5.45 -106.5 3.2 -106.5 M0.3 -86.7 Q0.3 -88.1 1.7 -88.5 2.65 -88.1 3.2 -87.3 3.2 -86.15 1.7 -85.5 0.55 -85.95 0.3 -86.7 M4.35 -60.3 Q4.35 -59.15 2.9 -58.5 L1.55 -59.25 1.4 -60.15 Q1.4 -61.1 1.95 -61.3 L2.9 -61.4 4.35 -60.3 M2.3 -71.4 Q1.2 -71.75 0.9 -72.6 0.9 -74.05 2.3 -74.4 3.25 -74.0 3.8 -73.2 3.8 -72.05 2.3 -71.4 M43.25 -12.85 L42.55 -15.15 42.5 -15.25 42.15 -16.4 38.35 -26.75 38.0 -27.7 34.15 -37.45 33.95 -37.15 29.95 -49.2 Q24.0 -46.3 5.1 -46.3 L-41.2 -48.35 -42.8 -37.8 -42.8 -37.75 -43.65 -31.45 -43.7 -31.5 -43.7 -31.45 -44.35 -26.8 -45.25 -20.8 -45.3 -20.45 -45.95 -16.85 -46.2 -15.75 -47.7 -8.65 -48.85 -4.15 Q-49.85 -0.85 -50.75 1.25 L-50.9 1.65 -50.85 1.65 -45.75 2.5 -45.7 2.55 -39.25 3.05 -38.9 3.05 -31.15 3.4 -29.05 3.45 -28.9 3.45 -28.75 3.45 -28.05 3.5 -27.75 3.5 -23.4 3.6 -11.8 3.8 -11.8 3.85 -5.05 3.9 -3.7 3.9 6.3 4.0 12.95 4.0 15.7 4.0 25.2 2.25 26.1 1.75 29.3 1.95 29.85 1.1 34.2 -0.25 37.35 -1.45 37.5 -1.55 Q43.2 -5.0 44.0 -7.85 L44.0 -7.9 44.1 -8.75 Q44.1 -9.9 43.25 -12.85 M-16.1 -126.9 Q-21.25 -127.15 -26.25 -128.3 -26.35 -126.3 -27.35 -120.0 -25.25 -119.65 -23.7 -118.3 L-20.65 -114.95 Q-19.65 -115.95 -18.6 -119.15 L-16.65 -125.35 -16.1 -126.9 M-28.6 -112.55 L-32.8 -90.15 -32.75 -90.15 -39.0 -62.5 -40.2 -54.8 -8.3 -53.85 Q-9.05 -57.4 -9.0 -61.85 L-8.9 -75.6 Q-9.85 -86.45 -9.85 -103.15 L-9.85 -116.6 -9.7 -119.35 Q-14.3 -105.55 -18.25 -105.55 -19.4 -105.55 -26.6 -111.0 L-28.6 -112.55" fill="#000000" fill-rule="evenodd" stroke="none"/>
      <path d="M7.7 -118.35 Q5.65 -116.9 4.15 -116.35 2.75 -120.2 -0.45 -125.5 L-1.55 -127.3 5.15 -128.1 Q5.55 -125.6 7.7 -118.35 M-16.1 -126.9 L-16.65 -125.35 -18.6 -119.15 Q-19.65 -115.95 -20.65 -114.95 L-23.7 -118.3 Q-25.25 -119.65 -27.35 -120.0 -26.35 -126.3 -26.25 -128.3 -21.25 -127.15 -16.1 -126.9" fill="#f7fbff" fill-rule="evenodd" stroke="none"/>
      <path d="M2.3 -71.4 Q3.8 -72.05 3.8 -73.2 3.25 -74.0 2.3 -74.4 0.9 -74.05 0.9 -72.6 1.2 -71.75 2.3 -71.4 M4.35 -60.3 L2.9 -61.4 1.95 -61.3 Q1.4 -61.1 1.4 -60.15 L1.55 -59.25 2.9 -58.5 Q4.35 -59.15 4.35 -60.3 M0.3 -86.7 Q0.55 -85.95 1.7 -85.5 3.2 -86.15 3.2 -87.3 2.65 -88.1 1.7 -88.5 0.3 -88.1 0.3 -86.7 M3.2 -106.5 Q5.45 -106.5 10.1 -110.35 15.7 -92.05 27.65 -56.1 L4.15 -53.75 -4.3 -53.8 Q-4.15 -66.6 -4.15 -88.1 -5.15 -112.15 -6.0 -121.45 L-3.4 -116.8 Q2.45 -106.5 3.2 -106.5 M2.0 -100.8 Q1.4 -101.65 0.6 -102.0 L-0.35 -101.85 Q-0.9 -101.6 -0.9 -100.65 L-0.75 -99.8 0.6 -99.05 Q2.0 -99.7 2.0 -100.8 M-28.6 -112.55 L-26.6 -111.0 Q-19.4 -105.55 -18.25 -105.55 -14.3 -105.55 -9.7 -119.35 L-9.85 -116.6 -9.85 -103.15 Q-9.85 -86.45 -8.9 -75.6 L-9.0 -61.85 Q-9.05 -57.4 -8.3 -53.85 L-40.2 -54.8 -39.0 -62.5 -32.75 -90.15 -32.8 -90.15 -28.6 -112.55" fill="#ffffff" fill-rule="evenodd" stroke="none"/>
      <path d="M-47.7 -8.65 L-42.75 1.0 -30.75 -10.6 -25.5 1.25 -17.3 -9.05 -7.7 3.35 0.4 -9.0 10.2 3.65 19.15 -11.95 26.65 -1.0 34.35 -12.0 40.65 -4.55 43.25 -12.85 Q44.1 -9.9 44.1 -8.75 L44.0 -7.9 44.0 -7.85 Q43.2 -5.0 37.5 -1.55 L37.35 -1.45 34.2 -0.25 29.85 1.1 29.3 1.95 26.1 1.75 25.2 2.25 15.7 4.0 12.95 4.0 6.3 4.0 -3.7 3.9 -5.05 3.9 -11.8 3.85 -11.8 3.8 -23.4 3.6 -27.75 3.5 -28.05 3.5 -28.75 3.45 -28.9 3.45 -29.05 3.45 -31.15 3.4 -38.9 3.05 -39.25 3.05 -45.7 2.55 -45.75 2.5 -50.85 1.65 -50.75 1.25 Q-49.85 -0.85 -48.85 -4.15 L-47.7 -8.65" fill="#a00101" fill-rule="evenodd" stroke="none"/>
      <path d="M-43.65 -31.45 L-42.8 -37.75 -42.8 -37.8 -41.2 -48.35 5.1 -46.3 Q24.0 -46.3 29.95 -49.2 L33.95 -37.15 34.15 -37.45 38.0 -27.7 38.35 -26.75 42.15 -16.4 42.5 -15.25 42.55 -15.15 43.25 -12.85 40.65 -4.55 34.35 -12.0 26.65 -1.0 19.15 -11.95 10.2 3.65 0.4 -9.0 -7.7 3.35 -17.3 -9.05 -25.5 1.25 -30.75 -10.6 -42.75 1.0 -47.7 -8.65 -46.2 -15.75 -45.95 -16.85 -45.3 -20.45 -45.25 -20.8 -44.35 -26.8 -43.7 -31.45 -43.65 -31.45" fill="#222222" fill-rule="evenodd" stroke="none"/>
    </g>
  </defs>
</svg>
