<?xml version="1.0" encoding="UTF-8" standalone="no"?>
<svg xmlns:xlink="http://www.w3.org/1999/xlink" height="342.0px" width="237.9px" xmlns="http://www.w3.org/2000/svg">
  <g transform="matrix(1, 0, 0, 1, 118.05, 273.9)">
    <use height="150.35" transform="matrix(1.0, 0.0, 0.0, 1.0, -57.05, -138.6)" width="109.35" xlink:href="#shape0"/>
  </g>
  <defs>
    <g id="shape0" transform="matrix(1, 0, 0, 1, 57.05, 138.6)">
      <path d="M5.15 -128.1 L5.15 -128.05 Q5.2 -126.75 6.15 -123.1 L6.7 -120.9 9.7 -110.55 9.85 -110.1 10.05 -109.45 10.1 -109.3 11.2 -105.75 12.3 -102.25 12.7 -101.0 13.0 -100.05 14.0 -97.0 16.4 -89.5 16.6 -89.0 18.25 -83.95 24.85 -64.7 26.05 -61.3 27.35 -57.65 27.6 -56.9 28.4 -54.55 30.35 -49.15 30.35 -49.1 30.5 -48.75 38.25 -27.1 38.65 -26.05 44.15 -11.85 44.25 -11.6 44.3 -11.55 46.05 -7.25 Q49.1 0.1 20.3 4.0 L-3.3 4.2 -21.25 4.2 -43.8 3.4 Q-48.6 2.2 -49.05 2.3 L-49.1 2.3 -48.05 -2.35 -47.2 -7.3 -45.55 -18.75 -45.25 -20.95 -44.35 -26.8 -43.85 -30.4 -43.7 -31.45 -43.65 -31.45 -42.8 -37.75 -42.8 -37.8 -41.5 -46.5 -40.65 -51.95 -40.25 -54.65 -40.15 -55.2 -39.2 -61.3 -39.0 -62.5 -38.8 -63.55 -36.45 -76.45 -35.05 -83.95 -33.6 -90.8 -31.5 -100.45 -31.5 -100.5 -29.85 -108.95 -29.7 -109.8 -27.6 -121.1 -27.1 -123.8 -26.25 -128.3 -24.75 -127.95 -19.75 -127.2 -18.7 -127.05 -12.75 -126.8 -9.75 -126.85 -3.35 -127.15 -1.65 -127.3 -0.95 -127.35 5.15 -128.1" fill="url(#gradient0)" fill-rule="evenodd" stroke="none"/>
      <path d="M-0.85 -127.35 L5.15 -128.1 5.15 -128.05 5.15 -128.0 Q5.2 -126.65 6.15 -123.1 L6.7 -120.9 6.85 -120.45 6.1 -118.6 5.8 -117.9 4.55 -114.85 3.9 -113.7 3.55 -113.05 2.25 -110.5 1.6 -109.3 1.45 -108.95 1.35 -108.8 1.25 -108.6 0.8 -107.8 -0.9 -105.0 -0.95 -104.95 -0.9 -104.95 -1.05 -104.7 -1.45 -104.2 -1.45 -104.15 -1.45 -104.1 -1.7 -103.8 -4.45 -99.65 -17.1 -99.65 -4.45 -99.65 Q-2.25 -101.3 -2.3 -99.5 L-4.45 -99.65 -4.55 -97.9 -4.9 -92.65 -4.9 -92.35 -4.95 -91.45 -5.15 -87.1 -5.15 -86.65 -5.15 -86.35 -5.15 -86.2 -5.3 -81.95 -5.3 -81.15 -5.3 -81.0 Q-5.55 -68.3 -4.8 -55.9 L-4.75 -55.1 -4.5 -51.25 -3.75 -43.25 -3.75 -42.95 -3.75 -42.9 -2.7 -34.1 -2.55 -33.2 -1.95 -28.95 -1.3 -24.9 -1.2 -24.3 -0.55 -20.8 -0.6 -20.8 -0.55 -20.75 0.3 -16.25 -13.25 -15.45 Q-18.65 -34.8 -17.25 -92.9 L-17.1 -99.65 -18.55 -99.8 -15.65 -103.95 -8.75 -112.4 -15.65 -103.95 -17.65 -105.85 -17.85 -106.1 -20.05 -108.5 -20.75 -109.35 -22.9 -112.25 -23.0 -112.45 -23.35 -112.95 -23.95 -113.95 -24.25 -114.5 -25.75 -117.45 -25.95 -118.0 -26.3 -118.85 -26.45 -119.25 -26.5 -119.4 -27.4 -122.15 -27.1 -123.8 -26.25 -128.3 -25.15 -128.05 -24.75 -127.95 -19.75 -127.2 -18.7 -127.05 -17.5 -126.95 Q-17.0 -123.85 -15.55 -120.95 -13.25 -116.4 -8.75 -112.4 -5.5 -116.35 -3.3 -120.95 -1.85 -124.0 -0.85 -127.3 L-0.85 -127.35" fill="#d5baba" fill-rule="evenodd" stroke="none"/>
      <path d="M6.85 -120.45 L6.7 -120.9 6.15 -123.1 Q5.2 -126.65 5.15 -128.0 L5.15 -128.05 5.15 -128.1 -0.85 -127.35 -0.95 -127.35 -1.65 -127.3 -3.35 -127.15 -9.75 -126.85 -12.75 -126.8 -17.5 -126.95 -18.7 -127.05 -19.75 -127.2 -24.75 -127.95 -25.15 -128.05 -26.25 -128.3 -27.1 -123.8 -27.4 -122.15 -27.6 -121.1 -28.0 -118.75 -28.15 -118.0 -28.85 -114.3 -28.95 -113.8 -29.5 -110.75 -29.7 -109.8 -29.85 -108.95 -30.35 -106.2 -31.5 -100.5 -31.5 -100.45 -31.55 -100.1 -32.0 -98.0 -32.15 -97.2 -32.85 -93.95 -33.6 -90.8 -33.6 -90.7 -33.65 -90.55 -33.85 -89.75 -35.05 -83.95 -35.9 -79.45 -36.45 -76.45 -36.8 -74.45 -38.55 -64.95 -38.8 -63.55 -38.9 -62.9 -39.0 -62.5 -39.2 -61.3 -40.15 -55.2 -40.25 -54.65 -40.3 -54.15 -40.65 -51.95 -41.5 -46.5 -42.8 -37.8 -42.8 -37.75 -43.65 -31.45 -43.7 -31.5 -43.7 -31.45 -43.85 -30.4 -44.35 -26.8 -45.25 -20.95 -45.55 -18.75 -45.7 -17.65 -45.95 -15.65 -46.65 -10.8 -47.2 -7.3 -47.65 -4.5 -47.9 -3.05 -48.05 -2.35 -48.1 -1.95 -48.45 -0.35 -49.1 2.3 -49.05 2.3 -46.75 2.7 -45.25 3.05 -43.8 3.4 -39.05 4.05 -38.7 4.1 -33.95 4.5 -33.65 4.5 -33.15 4.55 -33.1 4.55 -28.85 4.85 -28.35 4.9 -27.45 4.95 -24.0 5.15 -23.45 5.2 -18.4 5.45 -17.45 5.5 -14.1 5.6 -12.8 5.65 -3.5 5.85 16.7 4.5 18.25 4.3 20.3 4.0 26.45 3.1 27.3 2.95 30.7 2.3 31.35 2.15 Q37.6 0.8 41.25 -0.8 L41.35 -0.85 44.2 -2.45 44.45 -2.6 Q46.25 -4.05 46.35 -5.65 46.4 -6.45 46.05 -7.25 L44.3 -11.55 44.25 -11.6 44.15 -11.85 39.9 -22.75 39.1 -24.85 38.65 -26.05 38.25 -27.1 36.7 -31.45 30.5 -48.75 30.35 -49.1 30.35 -49.15 28.4 -54.55 28.0 -55.75 27.6 -56.9 27.35 -57.65 26.05 -61.3 25.5 -62.9 24.85 -64.7 24.75 -65.0 23.65 -68.25 19.85 -79.25 18.4 -83.45 18.35 -83.7 18.25 -83.95 16.6 -89.0 16.4 -89.5 14.0 -97.0 13.0 -100.05 12.7 -101.0 12.3 -102.25 11.2 -105.75 10.8 -107.05 10.55 -107.8 10.45 -108.1 10.25 -108.75 10.2 -109.0 10.1 -109.3 10.05 -109.45 10.0 -109.6 10.0 -109.65 9.85 -110.1 9.7 -110.55 8.85 -113.4 8.8 -113.6 8.6 -114.2 8.35 -115.05 6.85 -120.45 M9.55 -115.6 L8.8 -113.6 9.55 -115.6 M-46.65 -17.8 L-45.7 -17.65 -46.65 -17.8 M19.25 -101.0 L21.05 -94.9 21.05 -94.8 22.7 -89.5 22.85 -89.0 24.4 -83.95 Q27.0 -75.6 28.6 -71.25 L32.25 -61.3 41.4 -36.25 45.7 -24.5 47.9 -18.45 49.95 -12.9 51.6 -8.3 Q52.6 -4.7 52.2 -2.15 51.95 -0.55 51.2 0.6 49.2 3.6 44.15 6.0 32.15 11.75 -9.15 11.75 L-21.25 11.7 -50.65 10.55 Q-52.15 10.3 -54.55 7.85 L-56.6 5.65 -56.95 4.6 -57.0 4.3 Q-57.55 -0.6 -54.05 -21.6 L-53.85 -22.85 -52.65 -29.8 -52.55 -30.4 -52.05 -33.15 -46.95 -61.3 -42.8 -83.95 -41.8 -89.0 -40.2 -97.0 Q-34.85 -123.55 -32.05 -131.9 L-32.05 -138.6 Q-19.9 -134.55 -2.0 -134.55 3.25 -134.55 9.6 -135.6 14.05 -118.6 16.65 -109.8 L19.25 -101.0 M-30.0 -116.75 L-28.85 -114.3 -30.0 -116.75" fill="#000000" fill-rule="evenodd" stroke="none"/>
      <path d="M-1.7 -103.8 L-1.45 -104.1 -1.45 -104.15 -1.45 -104.2 -1.05 -104.7 -0.9 -104.95 -0.9 -105.0 1.9 -105.8 0.8 -107.8 1.25 -108.6 1.35 -108.8 1.45 -108.95 1.6 -109.3 5.25 -109.95 3.55 -113.05 3.9 -113.7 4.55 -114.85 6.45 -114.75 6.95 -114.85 6.85 -115.1 5.8 -117.9 6.1 -118.6 7.9 -115.0 8.35 -115.05 8.6 -114.2 8.3 -114.15 8.65 -113.3 8.25 -112.3 7.3 -114.0 3.9 -113.7 5.95 -110.1 7.4 -110.4 7.15 -109.85 7.0 -109.55 6.3 -109.35 6.6 -108.75 6.55 -108.65 6.25 -108.15 5.65 -109.25 1.65 -108.6 2.8 -106.55 Q3.5 -105.35 3.3 -106.2 L5.3 -106.55 4.85 -105.75 3.25 -105.2 3.75 -103.95 3.6 -103.7 3.55 -103.65 3.35 -103.3 2.45 -104.9 -0.7 -103.85 0.8 -99.7 0.25 -99.2 0.2 -99.2 0.2 -99.5 0.05 -99.5 -0.4 -100.8 -1.6 -103.55 -1.65 -103.55 -1.85 -103.55 -1.7 -103.8 M44.45 -2.6 L44.2 -2.45 42.6 -3.6 Q41.75 -1.15 41.35 -0.85 L41.25 -0.8 Q41.1 -0.8 38.7 -2.55 L37.1 0.6 34.85 -0.6 Q34.55 1.4 33.65 1.4 33.0 1.4 31.85 0.0 31.75 1.6 31.35 2.15 L30.7 2.3 27.9 0.6 Q27.3 1.85 27.3 2.95 L26.45 3.1 Q25.8 2.9 24.8 2.25 L23.5 1.1 Q22.8 2.55 22.65 3.5 L22.05 3.6 Q21.05 3.6 19.8 3.0 L18.45 2.25 18.25 4.3 16.7 4.5 15.3 3.4 14.3 2.45 13.2 4.8 Q11.7 4.8 9.75 2.75 8.6 4.1 8.5 5.3 L7.0 5.45 6.05 4.6 4.9 3.15 3.45 5.45 1.75 4.75 Q0.35 4.0 0.0 3.3 -0.85 5.45 -1.4 5.45 -2.85 5.45 -4.95 3.35 -7.35 5.75 -7.8 5.75 -8.2 5.75 -10.4 2.7 L-12.8 5.65 -14.1 5.6 -16.35 3.05 Q-17.55 4.5 -17.45 5.5 L-18.4 5.45 Q-19.3 4.9 -20.7 2.9 L-23.45 5.2 -24.0 5.15 -26.3 2.4 -28.35 4.9 -28.85 4.85 -30.9 2.55 -33.1 4.55 -33.15 4.55 -33.65 4.5 -33.95 4.5 Q-34.9 3.9 -36.2 1.4 L-38.7 4.1 -39.05 4.05 -40.65 2.7 -42.45 0.6 -45.25 3.05 -46.75 2.7 -47.35 1.85 -48.35 -0.35 -47.4 -0.2 -45.9 2.4 -44.3 0.9 -43.4 0.25 -41.85 0.45 -39.0 3.05 -37.6 1.75 -36.9 1.0 -35.7 1.1 Q-33.85 3.6 -33.3 3.6 -31.45 1.7 -30.85 1.55 L-30.7 1.55 Q-29.1 3.05 -28.65 3.9 -27.75 2.4 -26.55 1.85 L-26.05 1.85 -23.55 4.35 -21.1 2.2 -20.15 2.25 -18.2 4.5 -16.75 2.4 -15.65 2.45 -13.2 5.0 -11.9 3.0 -11.5 2.55 -10.5 2.55 -9.4 2.55 -7.8 4.65 -5.35 2.6 -4.55 2.6 -1.65 4.55 -0.45 2.5 0.45 2.5 Q2.2 4.05 3.0 4.4 3.8 3.0 4.45 2.35 L4.6 2.35 5.1 2.3 5.15 2.45 5.15 2.5 7.8 4.8 Q8.35 2.8 8.95 2.1 L9.0 2.05 10.25 1.95 10.3 2.0 12.9 3.75 Q12.75 2.6 13.55 1.7 L13.95 1.65 14.35 1.6 14.55 1.6 14.65 1.55 14.65 1.65 17.3 3.75 Q17.6 1.95 18.2 1.2 L18.8 1.1 Q21.15 2.55 21.9 2.75 22.2 1.05 22.75 0.55 L23.25 0.45 23.45 0.45 23.8 0.4 24.25 0.3 26.55 2.1 26.6 2.1 26.85 0.85 Q27.25 -0.3 27.9 -0.3 L30.6 1.2 31.3 -1.1 32.2 -1.3 33.6 0.3 Q33.95 -1.05 34.5 -1.85 L35.05 -2.0 35.55 -1.2 Q36.05 -0.4 36.9 -0.3 37.05 -1.3 37.7 -2.65 L37.75 -2.75 38.0 -2.8 39.55 -3.3 40.95 -1.95 42.0 -4.05 43.2 -4.5 43.95 -3.45 44.6 -5.0 45.25 -5.25 45.7 -5.4 44.45 -2.6 M-4.55 -97.9 L-4.35 -98.0 -1.7 -95.5 -1.5 -95.7 -1.1 -95.25 -1.2 -95.1 Q-1.2 -94.65 -1.55 -94.65 L-1.7 -94.65 -3.9 -92.5 -2.05 -90.3 -1.8 -90.05 -1.8 -89.95 -1.1 -88.8 -1.2 -88.55 -1.5 -88.5 -2.15 -89.3 -4.2 -86.8 -2.15 -85.15 -2.15 -85.2 -1.8 -84.9 -1.8 -84.85 -1.35 -84.5 Q-1.35 -84.05 -1.7 -84.05 L-2.35 -84.25 -4.6 -81.65 Q-3.75 -81.4 -2.5 -80.2 L-2.05 -79.8 -1.55 -80.1 -1.2 -79.8 -1.55 -79.2 -0.95 -78.35 Q-0.95 -78.15 -1.35 -78.15 L-2.0 -78.5 -4.05 -75.8 -3.4 -75.35 -2.45 -74.4 -2.25 -74.4 -2.1 -74.0 Q-2.1 -73.85 -3.05 -72.65 L-4.1 -71.3 -3.15 -70.5 Q-1.6 -69.15 -1.2 -68.25 L-1.65 -68.1 -2.05 -68.45 -3.9 -66.05 -0.95 -63.75 -1.05 -63.5 Q-1.2 -63.35 -1.4 -63.35 L-2.05 -63.5 -2.9 -62.35 -3.75 -61.35 -1.35 -59.15 -1.5 -58.8 Q-1.25 -58.7 -1.65 -58.7 L-2.0 -58.75 -4.1 -55.85 Q-3.6 -55.65 -3.05 -55.1 L-1.7 -53.55 -1.95 -53.0 -2.9 -51.25 -0.45 -48.95 -0.95 -48.5 -1.45 -48.85 -2.8 -47.6 -1.1 -46.6 -1.05 -46.65 -0.65 -46.3 -0.3 -46.05 -0.75 -45.5 -1.05 -45.55 -1.75 -44.7 -3.05 -43.25 Q0.15 -42.2 0.45 -40.8 0.5 -40.55 0.15 -40.55 L-0.15 -40.6 -1.05 -39.45 -2.1 -38.2 -0.6 -37.5 0.0 -37.2 0.15 -37.35 0.45 -37.05 0.45 -36.95 1.2 -36.2 0.9 -36.0 0.05 -36.35 -0.8 -35.25 -1.7 -34.1 Q0.2 -33.4 0.95 -32.6 L1.05 -32.45 1.35 -31.8 Q1.35 -31.65 0.95 -31.65 L0.7 -31.8 -1.3 -29.45 Q0.15 -29.3 2.4 -27.2 L2.4 -26.9 2.0 -26.85 1.55 -27.05 -0.65 -24.75 0.85 -24.05 2.7 -22.95 2.7 -22.65 2.25 -22.5 1.95 -22.65 Q1.75 -21.8 0.65 -21.05 L3.6 -18.65 Q3.4 -18.2 3.0 -18.2 1.6 -18.2 -0.55 -20.75 L-0.6 -20.8 -0.55 -20.8 Q0.15 -21.2 1.15 -23.05 L-1.2 -24.3 -1.3 -24.9 -1.3 -25.1 Q-0.2 -26.8 0.75 -27.45 L-1.95 -28.95 -1.85 -29.75 -0.85 -31.2 0.05 -32.2 Q-1.55 -33.2 -2.55 -33.2 L-2.7 -34.1 -1.55 -35.5 -0.55 -36.65 -2.65 -37.7 -2.75 -37.65 Q-3.05 -37.85 -3.15 -38.0 L-3.15 -38.05 -2.35 -39.7 -1.1 -41.05 -1.7 -41.35 -3.75 -42.9 -3.75 -42.95 -3.75 -43.25 -3.7 -43.25 -3.75 -43.4 -2.65 -45.0 -1.8 -45.95 -2.55 -46.4 -4.05 -47.45 -3.95 -47.75 -3.85 -47.8 -2.75 -48.9 -2.2 -49.45 -4.5 -51.25 -4.25 -51.55 -4.1 -51.6 -3.55 -52.4 -2.65 -53.3 -4.75 -55.1 -4.8 -55.9 -4.75 -55.95 -4.8 -56.0 -3.75 -57.8 -2.7 -59.1 -3.35 -59.55 Q-4.8 -60.5 -4.95 -61.35 L-4.75 -61.5 -2.7 -63.8 -5.1 -65.85 -4.8 -66.2 -2.65 -68.95 -5.25 -71.3 -4.8 -71.75 Q-4.0 -73.3 -3.25 -73.95 L-5.3 -75.45 Q-5.5 -76.05 -4.75 -76.05 -3.75 -78.05 -2.8 -79.05 L-5.25 -81.0 -5.3 -81.0 -5.3 -81.15 -5.3 -81.95 -2.8 -84.55 -4.75 -86.25 -4.95 -86.1 -5.15 -86.2 -5.15 -86.35 -5.15 -86.65 -5.15 -87.1 -4.9 -87.15 -4.85 -87.15 -2.65 -89.85 -4.4 -92.0 -4.95 -91.45 -4.9 -92.35 -4.9 -92.65 -2.4 -94.9 Q-3.4 -95.5 -4.6 -97.4 L-4.55 -97.9 M-28.0 -118.75 L-26.5 -119.4 -26.45 -119.25 -26.3 -118.85 -25.95 -118.0 -25.75 -117.45 -26.0 -114.05 -26.1 -113.8 -24.25 -114.5 -23.95 -113.95 -26.7 -112.8 -27.15 -112.95 -27.3 -113.25 -26.7 -113.55 -26.75 -114.65 -26.5 -118.75 -28.15 -118.0 -28.0 -118.75 M-22.9 -112.25 L-23.5 -109.5 -21.45 -110.25 -21.1 -109.75 -23.65 -108.65 -23.9 -107.7 Q-24.05 -107.55 -24.15 -107.55 L-24.6 -107.6 -24.6 -108.2 -24.55 -108.5 -24.6 -108.5 -24.75 -108.9 -24.5 -109.05 -24.2 -111.2 -23.65 -113.45 -23.35 -112.95 -23.0 -112.45 -22.9 -112.25 M-17.65 -105.85 L-17.3 -105.5 -18.65 -105.05 -20.5 -104.35 -20.55 -103.65 -20.85 -103.5 Q-21.25 -103.7 -21.3 -104.25 L-21.45 -104.6 -21.3 -104.85 Q-21.25 -107.75 -20.75 -109.35 L-20.05 -108.5 -20.45 -105.3 -19.4 -105.7 -17.85 -106.1 -17.65 -105.85" fill="#1e849d" fill-rule="evenodd" stroke="none"/>
      <path d="M-15.65 -103.95 L-18.55 -99.8 -21.05 -102.45 Q-26.25 -108.2 -28.95 -113.8 L-28.85 -114.3 Q-25.6 -107.75 -21.05 -102.45 -25.6 -107.75 -28.85 -114.3 L-28.15 -118.0 -26.5 -118.75 -26.75 -114.65 -26.7 -113.55 -27.3 -113.25 -27.15 -112.95 -26.7 -112.8 -23.95 -113.95 -23.35 -112.95 -23.65 -113.45 -24.2 -111.2 -24.5 -109.05 -24.75 -108.9 -24.6 -108.5 -24.55 -108.5 -24.6 -108.2 -24.6 -107.6 -24.15 -107.55 Q-24.05 -107.55 -23.9 -107.7 L-23.65 -108.65 -21.1 -109.75 -21.45 -110.25 -23.5 -109.5 -22.9 -112.25 -20.75 -109.35 Q-21.25 -107.75 -21.3 -104.85 L-21.45 -104.6 -21.3 -104.25 Q-21.25 -103.7 -20.85 -103.5 L-20.55 -103.65 -20.5 -104.35 -18.65 -105.05 -17.3 -105.5 -17.65 -105.85 -15.65 -103.95 M-4.45 -99.65 L-1.7 -103.8 -1.85 -103.55 -1.65 -103.55 -1.6 -103.55 -0.4 -100.8 0.05 -99.5 0.2 -99.15 0.1 -97.55 0.05 -51.4 0.35 -47.45 0.4 -47.2 Q1.7 -32.45 4.55 -18.8 L4.75 -17.8 4.95 -16.8 0.3 -16.25 -0.55 -20.75 Q1.6 -18.2 3.0 -18.2 3.4 -18.2 3.6 -18.65 L0.65 -21.05 Q1.75 -21.8 1.95 -22.65 L2.25 -22.5 2.7 -22.65 2.7 -22.95 0.85 -24.05 -0.65 -24.75 1.55 -27.05 2.0 -26.85 2.4 -26.9 2.4 -27.2 Q0.15 -29.3 -1.3 -29.45 L0.7 -31.8 0.95 -31.65 Q1.35 -31.65 1.35 -31.8 L1.05 -32.45 0.95 -32.6 Q0.2 -33.4 -1.7 -34.1 L-0.8 -35.25 0.05 -36.35 0.9 -36.0 1.2 -36.2 0.45 -36.95 0.45 -37.05 0.15 -37.35 0.0 -37.2 -0.6 -37.5 -2.1 -38.2 -1.05 -39.45 -0.15 -40.6 0.15 -40.55 Q0.5 -40.55 0.45 -40.8 0.15 -42.2 -3.05 -43.25 L-1.75 -44.7 -1.05 -45.55 -0.75 -45.5 -0.3 -46.05 -0.65 -46.3 -1.05 -46.65 -1.1 -46.6 -2.8 -47.6 -1.45 -48.85 -0.95 -48.5 -0.45 -48.95 -2.9 -51.25 -1.95 -53.0 -1.7 -53.55 -3.05 -55.1 Q-3.6 -55.65 -4.1 -55.85 L-2.0 -58.75 -1.65 -58.7 Q-1.25 -58.7 -1.5 -58.8 L-1.35 -59.15 -3.75 -61.35 -2.9 -62.35 -2.05 -63.5 -1.4 -63.35 Q-1.2 -63.35 -1.05 -63.5 L-0.95 -63.75 -3.9 -66.05 -2.05 -68.45 -1.65 -68.1 -1.2 -68.25 Q-1.6 -69.15 -3.15 -70.5 L-4.1 -71.3 -3.05 -72.65 Q-2.1 -73.85 -2.1 -74.0 L-2.25 -74.4 -2.45 -74.4 -3.4 -75.35 -4.05 -75.8 -2.0 -78.5 -1.35 -78.15 Q-0.95 -78.15 -0.95 -78.35 L-1.55 -79.2 -1.2 -79.8 -1.55 -80.1 -2.05 -79.8 -2.5 -80.2 Q-3.75 -81.4 -4.6 -81.65 L-2.35 -84.25 -1.7 -84.05 Q-1.35 -84.05 -1.35 -84.5 L-1.8 -84.85 -1.8 -84.9 -2.15 -85.2 -2.15 -85.15 -4.2 -86.8 -2.15 -89.3 -1.5 -88.5 -1.2 -88.55 -1.1 -88.8 -1.8 -89.95 -1.8 -90.05 -2.05 -90.3 -3.9 -92.5 -1.7 -94.65 -1.55 -94.65 Q-1.2 -94.65 -1.2 -95.1 L-1.1 -95.25 -1.5 -95.7 -1.7 -95.5 -4.35 -98.0 -4.55 -97.9 -4.45 -99.65 -2.3 -99.5 Q-2.25 -101.3 -4.45 -99.65 M-0.9 -105.0 L0.8 -107.8 1.9 -105.8 -0.9 -105.0 M1.6 -109.3 L2.25 -110.5 3.55 -113.05 5.25 -109.95 1.6 -109.3 M4.55 -114.85 L5.8 -117.9 6.85 -115.1 6.95 -114.85 6.45 -114.75 4.55 -114.85 M6.1 -118.6 L6.85 -120.45 8.35 -115.05 7.9 -115.0 6.1 -118.6 M8.6 -114.2 L8.8 -113.6 8.85 -113.4 Q7.95 -111.2 6.65 -108.9 L7.0 -109.55 6.65 -108.9 6.6 -108.75 6.3 -109.35 7.0 -109.55 7.15 -109.85 7.4 -110.4 8.25 -112.3 7.4 -110.4 5.95 -110.1 3.9 -113.7 7.3 -114.0 8.25 -112.3 8.65 -113.3 8.8 -113.6 8.65 -113.3 8.3 -114.15 8.6 -114.2 M46.35 -5.65 Q46.25 -4.05 44.45 -2.6 L45.7 -5.4 46.35 -5.65 M44.2 -2.45 L41.35 -0.85 Q41.75 -1.15 42.6 -3.6 L44.2 -2.45 M41.25 -0.8 Q37.6 0.8 31.35 2.15 31.75 1.6 31.85 0.0 33.0 1.4 33.65 1.4 34.55 1.4 34.85 -0.6 L37.1 0.6 38.7 -2.55 Q41.1 -0.8 41.25 -0.8 M30.7 2.3 L27.3 2.95 Q27.3 1.85 27.9 0.6 L30.7 2.3 M26.45 3.1 L20.3 4.0 18.25 4.3 18.45 2.25 19.8 3.0 Q21.05 3.6 22.05 3.6 L22.65 3.5 Q22.8 2.55 23.5 1.1 L24.8 2.25 Q25.8 2.9 26.45 3.1 M16.7 4.5 L-3.5 5.85 -12.8 5.65 -10.4 2.7 Q-8.2 5.75 -7.8 5.75 -7.35 5.75 -4.95 3.35 -2.85 5.45 -1.4 5.45 -0.85 5.45 0.0 3.3 0.35 4.0 1.75 4.75 L3.45 5.45 4.9 3.15 6.05 4.6 7.0 5.45 8.5 5.3 Q8.6 4.1 9.75 2.75 11.7 4.8 13.2 4.8 L14.3 2.45 15.3 3.4 16.7 4.5 M-14.1 5.6 L-17.45 5.5 Q-17.55 4.5 -16.35 3.05 L-14.1 5.6 M-18.4 5.45 L-23.45 5.2 -20.7 2.9 Q-19.3 4.9 -18.4 5.45 M-24.0 5.15 L-27.45 4.95 -28.35 4.9 -26.3 2.4 -24.0 5.15 M-28.85 4.85 L-33.1 4.55 -30.9 2.55 -28.85 4.85 M-33.95 4.5 L-38.7 4.1 -36.2 1.4 Q-34.9 3.9 -33.95 4.5 M-39.05 4.05 L-43.8 3.4 -45.25 3.05 -42.45 0.6 -40.65 2.7 -39.05 4.05 M-46.75 2.7 L-49.05 2.3 -49.1 2.3 -48.45 -0.35 -48.35 -0.35 -47.35 1.85 -46.75 2.7 M6.25 -108.15 L6.15 -107.95 5.3 -106.55 3.3 -106.2 Q3.5 -105.35 2.8 -106.55 L1.65 -108.6 5.65 -109.25 6.25 -108.15 M4.85 -105.75 L3.75 -103.95 3.25 -105.2 4.85 -105.75 M3.35 -103.3 L1.45 -100.5 0.8 -99.7 -0.7 -103.85 2.45 -104.9 3.35 -103.3 M8.65 2.1 L8.95 2.1 Q8.35 2.8 7.8 4.8 L5.15 2.5 5.15 2.45 5.1 2.3 6.65 2.25 8.65 2.1 M10.3 2.0 L13.55 1.7 Q12.75 2.6 12.9 3.75 L10.3 2.0 M14.7 1.6 L18.2 1.2 Q17.6 1.95 17.3 3.75 L14.65 1.65 14.7 1.6 M18.8 1.1 L22.75 0.55 Q22.2 1.05 21.9 2.75 21.15 2.55 18.8 1.1 M24.25 0.3 L26.75 -0.15 28.4 -0.45 31.3 -1.1 30.6 1.2 27.9 -0.3 Q27.25 -0.3 26.85 0.85 L26.6 2.1 26.55 2.1 24.25 0.3 M32.2 -1.3 L34.5 -1.85 Q33.95 -1.05 33.6 0.3 L32.2 -1.3 M35.05 -2.0 L37.75 -2.75 37.7 -2.65 Q37.05 -1.3 36.9 -0.3 36.05 -0.4 35.55 -1.2 L35.05 -2.0 M39.55 -3.3 L42.0 -4.05 40.95 -1.95 39.55 -3.3 M43.2 -4.5 L45.25 -5.25 44.6 -5.0 43.95 -3.45 43.2 -4.5 M4.45 2.35 Q3.8 3.0 3.0 4.4 2.2 4.05 0.45 2.5 L4.45 2.35 M-0.45 2.5 L-1.65 4.55 -4.55 2.6 -5.35 2.6 -7.8 4.65 -9.4 2.55 -0.45 2.5 M-10.5 2.55 L-11.5 2.55 -11.9 3.0 -13.2 5.0 -15.65 2.45 -16.75 2.4 -18.2 4.5 -20.15 2.25 -21.1 2.2 -23.55 4.35 -26.05 1.85 -10.5 2.55 M-26.55 1.85 Q-27.75 2.4 -28.65 3.9 -29.1 3.05 -30.7 1.55 L-30.85 1.55 Q-31.45 1.7 -33.3 3.6 -33.85 3.6 -35.7 1.1 L-36.9 1.0 -37.6 1.75 -39.0 3.05 -41.85 0.45 -33.85 1.25 -32.65 1.35 -26.55 1.85 M-43.4 0.25 L-44.3 0.9 -45.9 2.4 -47.4 -0.2 -43.4 0.25 M-28.0 -118.75 L-27.6 -121.1 -27.4 -122.15 -26.5 -119.4 -28.0 -118.75 M-24.25 -114.5 L-26.1 -113.8 -26.0 -114.05 -25.75 -117.45 -24.25 -114.5 M-17.85 -106.1 L-19.4 -105.7 -20.45 -105.3 -20.05 -108.5 -17.85 -106.1 M0.05 -99.5 L-2.3 -99.5 0.05 -99.5 M-4.55 -97.9 L-4.6 -97.4 Q-3.4 -95.5 -2.4 -94.9 L-4.9 -92.65 -4.55 -97.9 M-4.95 -91.45 L-4.4 -92.0 -2.65 -89.85 -4.85 -87.15 -4.9 -87.15 -5.15 -87.1 -4.95 -91.45 M-5.15 -86.65 L-5.15 -86.35 -5.15 -86.65 M-5.15 -86.2 L-4.95 -86.1 -4.75 -86.25 -2.8 -84.55 -5.3 -81.95 -5.15 -86.2 M-5.3 -81.0 L-5.25 -81.0 -2.8 -79.05 Q-3.75 -78.05 -4.75 -76.05 -5.5 -76.05 -5.3 -75.45 L-3.25 -73.95 Q-4.0 -73.3 -4.8 -71.75 L-5.25 -71.3 -2.65 -68.95 -4.8 -66.2 -5.1 -65.85 -2.7 -63.8 -4.75 -61.5 -4.95 -61.35 Q-4.8 -60.5 -3.35 -59.55 L-2.7 -59.1 -3.75 -57.8 -4.8 -56.0 -4.75 -55.95 -4.8 -55.9 Q-5.55 -68.3 -5.3 -81.0 M-4.75 -55.1 L-2.65 -53.3 -3.55 -52.4 -4.1 -51.6 -4.25 -51.55 -4.5 -51.25 -2.2 -49.45 -2.75 -48.9 -3.85 -47.8 -3.95 -47.75 -4.05 -47.45 -2.55 -46.4 -1.8 -45.95 -2.65 -45.0 -3.75 -43.4 -3.7 -43.25 -3.75 -43.25 -4.5 -51.25 -4.75 -55.1 M-3.75 -42.9 L-1.7 -41.35 -1.1 -41.05 -2.35 -39.7 -3.15 -38.05 -3.15 -38.0 Q-3.05 -37.85 -2.75 -37.65 L-2.65 -37.7 -0.55 -36.65 -1.55 -35.5 -2.7 -34.1 -3.75 -42.9 M-2.55 -33.2 Q-1.55 -33.2 0.05 -32.2 L-0.85 -31.2 -1.85 -29.75 -1.95 -28.95 0.75 -27.45 Q-0.2 -26.8 -1.3 -25.1 L-1.3 -24.9 -1.95 -28.95 -2.55 -33.2 M-1.2 -24.3 L1.15 -23.05 Q0.15 -21.2 -0.55 -20.8 L-1.2 -24.3" fill="#262626" fill-rule="evenodd" stroke="none"/>
      <path d="M-18.55 -99.8 L-17.1 -99.65 -17.25 -92.9 Q-18.65 -34.8 -13.25 -15.45 -29.15 -15.15 -45.7 -17.65 L-45.55 -18.75 -45.25 -20.95 -44.35 -26.8 -43.85 -30.4 -43.7 -31.45 -43.65 -31.45 -42.8 -37.75 -42.8 -37.8 -41.5 -46.5 -40.65 -51.95 -40.3 -54.15 -40.25 -54.65 -40.15 -55.2 -39.2 -61.3 Q-38.65 -60.8 -37.85 -60.8 -36.95 -60.8 -36.15 -62.0 L-36.6 -63.45 Q-37.3 -64.95 -38.45 -64.95 L-38.55 -64.95 -36.8 -74.45 Q-36.05 -73.8 -35.25 -73.8 -34.3 -73.8 -33.75 -75.05 -33.75 -76.3 -34.85 -78.15 L-35.9 -79.45 -35.05 -83.95 -33.85 -89.75 -32.7 -90.2 Q-32.55 -91.1 -32.55 -92.45 L-32.85 -93.95 -32.15 -97.2 -32.0 -98.0 -32.0 -97.2 Q-30.15 -95.55 -29.7 -95.55 -28.35 -95.55 -27.9 -96.9 -29.55 -100.2 -30.5 -100.2 L-31.55 -100.1 -31.5 -100.45 -31.5 -100.5 -30.35 -106.2 -29.4 -106.1 -28.05 -106.55 -27.9 -107.9 Q-27.9 -108.5 -28.35 -109.45 -28.8 -110.55 -29.5 -110.75 L-28.95 -113.8 Q-26.25 -108.2 -21.05 -102.45 L-18.55 -99.8 M6.65 -108.9 Q7.95 -111.2 8.85 -113.4 L9.7 -110.55 9.85 -110.1 10.0 -109.65 10.0 -109.6 9.95 -109.65 Q7.35 -108.0 7.35 -106.8 7.35 -105.35 8.85 -105.0 10.4 -105.15 11.05 -106.3 L10.8 -107.05 11.2 -105.75 12.3 -102.25 12.7 -101.0 13.0 -100.05 14.0 -97.0 16.4 -89.5 16.6 -89.0 18.25 -83.95 18.35 -83.7 18.4 -83.45 19.85 -79.25 23.65 -68.25 22.65 -67.65 Q21.45 -66.7 21.45 -65.6 L21.6 -64.05 23.25 -63.75 Q24.35 -63.75 24.9 -64.6 L24.85 -64.7 25.5 -62.9 26.05 -61.3 27.35 -57.65 27.6 -56.9 28.0 -55.75 28.4 -54.55 30.35 -49.15 30.35 -49.1 30.5 -48.75 36.7 -31.45 38.25 -27.1 38.65 -26.05 39.1 -24.85 Q22.45 -19.05 4.95 -16.8 L4.75 -17.8 4.55 -18.8 Q1.7 -32.45 0.4 -47.2 1.05 -46.7 2.1 -46.7 3.6 -46.7 3.5 -47.0 L3.8 -48.6 2.4 -50.25 Q1.0 -51.45 0.6 -51.45 L0.05 -51.4 0.1 -97.55 0.2 -99.15 0.2 -99.2 0.25 -99.2 0.8 -99.65 0.8 -99.7 1.45 -100.5 3.35 -103.3 3.55 -103.65 3.6 -103.7 3.75 -103.95 4.85 -105.75 5.3 -106.55 6.15 -107.95 6.25 -108.15 6.55 -108.65 6.6 -108.75 6.65 -108.9 M21.9 -40.1 L22.05 -42.05 Q22.05 -43.45 20.55 -44.4 19.1 -44.05 19.1 -42.15 19.1 -40.15 20.55 -39.65 L21.9 -40.1 M29.85 -43.5 L28.8 -43.8 Q27.9 -43.75 26.1 -42.1 24.45 -40.5 24.45 -40.1 24.45 -39.4 24.95 -38.75 L26.15 -38.45 Q26.75 -38.45 28.3 -39.5 30.3 -40.85 30.3 -42.35 30.3 -43.3 29.85 -43.5 M24.6 -51.75 Q24.45 -50.85 24.45 -49.95 24.45 -49.25 25.85 -47.85 L27.05 -49.05 Q27.9 -49.85 27.9 -50.6 27.9 -52.1 27.6 -51.75 L26.15 -52.05 24.6 -51.75 M23.55 -59.9 L22.35 -60.2 Q19.7 -59.2 19.7 -56.4 19.7 -54.85 21.15 -54.35 22.3 -54.65 23.2 -56.4 23.85 -57.8 23.85 -58.65 23.85 -59.7 23.55 -59.9 M13.2 -55.05 Q13.2 -56.35 11.75 -57.3 10.25 -56.9 10.25 -55.1 10.25 -53.1 11.75 -52.65 L13.05 -53.0 13.2 -55.05 M3.4 -58.15 Q3.2 -57.9 3.2 -56.7 3.8 -53.75 5.25 -53.75 6.75 -53.75 6.6 -54.2 L6.75 -55.8 Q7.05 -58.5 4.7 -58.5 3.65 -58.5 3.4 -58.15 M7.65 -67.85 Q6.15 -67.85 6.15 -65.55 5.55 -62.6 8.25 -62.6 9.75 -62.6 9.6 -63.15 L9.75 -64.5 Q8.85 -67.85 7.65 -67.85 M18.5 -63.3 Q18.5 -64.3 17.1 -64.95 16.3 -64.35 15.3 -62.75 14.4 -61.3 14.4 -60.9 14.4 -59.6 15.9 -59.1 17.05 -59.4 17.9 -61.15 18.5 -62.5 18.5 -63.3 M13.35 -68.15 L15.0 -67.85 Q16.5 -67.85 16.5 -68.15 L16.8 -70.7 Q16.8 -73.2 15.3 -73.2 13.2 -73.2 13.2 -70.4 L13.35 -68.15 M15.6 -78.0 Q15.6 -76.6 17.1 -76.1 19.7 -76.6 19.7 -79.2 19.7 -80.25 18.2 -80.85 15.6 -79.2 15.6 -78.0 M4.1 -75.0 Q2.6 -75.0 2.75 -74.7 L2.6 -73.1 Q2.6 -70.8 4.95 -70.8 6.45 -70.8 6.75 -71.55 L5.7 -73.6 Q4.75 -75.0 4.1 -75.0 M4.4 -83.7 Q4.4 -86.1 2.9 -86.1 1.5 -86.1 1.5 -83.55 1.8 -82.05 2.9 -80.85 3.5 -81.0 4.25 -81.45 L4.4 -83.7 M8.25 -81.45 L6.9 -81.15 6.75 -79.55 7.05 -78.0 Q8.45 -77.3 8.85 -77.3 9.8 -77.3 10.0 -77.7 L10.25 -78.45 Q10.25 -81.45 8.25 -81.45 M7.35 -91.4 L5.9 -91.25 Q5.55 -91.05 5.55 -90.0 5.55 -87.9 7.65 -87.9 9.15 -87.9 9.0 -88.5 L9.15 -89.85 Q9.0 -91.4 7.35 -91.4 M2.4 -96.15 Q0.9 -95.65 0.9 -94.05 L1.05 -92.3 2.6 -92.0 Q3.65 -92.0 4.4 -93.15 4.2 -94.35 2.4 -96.15 M5.1 -96.45 L6.75 -96.15 Q7.8 -96.15 8.4 -97.05 L8.55 -97.7 Q7.7 -100.8 6.45 -100.8 4.95 -100.8 4.95 -98.7 L5.1 -96.45 M12.9 -91.4 Q13.65 -91.7 14.4 -92.15 14.2 -94.25 12.9 -95.55 11.45 -95.05 11.45 -93.45 11.45 -92.85 12.9 -91.4 M13.05 -87.65 L11.75 -87.9 Q11.25 -87.9 10.25 -86.85 9.15 -85.65 9.15 -84.45 L9.3 -82.85 10.85 -82.55 Q11.75 -82.55 12.45 -83.6 13.2 -84.7 13.2 -86.25 L13.05 -87.65 M26.4 -33.35 L24.1 -33.8 21.8 -33.35 Q20.85 -32.9 20.85 -32.3 20.85 -31.7 21.8 -31.25 22.75 -30.8 24.1 -30.8 25.45 -30.8 26.4 -31.25 27.35 -31.7 27.35 -32.3 27.35 -32.9 26.4 -33.35 M10.7 -43.8 L10.85 -45.15 Q10.85 -45.7 10.15 -46.45 9.3 -47.3 8.25 -47.3 L7.2 -47.1 Q7.15 -46.75 6.9 -46.55 6.75 -46.1 6.75 -45.65 L7.65 -44.4 Q8.7 -43.2 9.45 -43.2 10.95 -43.2 10.7 -43.8 M11.75 -38.75 Q11.45 -38.0 11.45 -37.65 11.45 -35.55 13.8 -35.55 14.5 -35.55 15.6 -37.35 15.35 -38.0 12.9 -39.05 L11.75 -38.75 M14.4 -47.45 Q14.4 -45.45 15.9 -45.0 L17.25 -45.35 17.4 -47.4 Q17.4 -48.7 15.9 -49.65 14.4 -49.25 14.4 -47.45 M29.7 -28.05 Q29.7 -27.65 30.3 -26.7 31.05 -25.5 32.0 -25.5 33.5 -25.5 33.8 -26.25 L32.8 -28.3 Q31.85 -29.7 31.2 -29.7 L29.85 -29.4 29.7 -28.05 M18.5 -25.5 Q17.4 -27.3 15.3 -27.3 L13.7 -27.2 Q13.2 -26.95 13.2 -25.95 L13.35 -25.1 Q14.7 -23.75 16.8 -23.75 17.4 -23.75 18.5 -25.5 M6.45 -29.1 Q4.95 -29.1 5.25 -28.8 L4.95 -27.6 Q6.9 -23.75 8.85 -23.75 L9.9 -23.95 9.95 -24.35 10.25 -25.25 Q8.55 -29.1 6.45 -29.1 M7.15 -33.65 L7.95 -34.95 Q6.95 -36.75 4.65 -36.75 L3.05 -36.65 Q2.6 -36.4 2.6 -35.4 L2.75 -34.5 Q4.1 -33.15 5.85 -33.15 6.75 -33.15 7.15 -33.65 M-25.2 -99.05 L-23.9 -99.5 -23.15 -103.5 Q-23.15 -104.0 -24.65 -105.5 -26.7 -104.2 -26.7 -101.75 -26.4 -100.2 -25.2 -99.05 M-18.15 -74.55 L-17.85 -76.25 Q-17.85 -77.25 -18.15 -77.5 L-19.35 -77.85 Q-19.35 -77.25 -20.4 -76.7 -21.45 -76.15 -21.45 -75.65 -21.45 -74.3 -19.95 -73.8 -18.6 -74.55 -18.15 -74.55 M-20.1 -79.4 L-19.65 -79.8 Q-19.8 -81.15 -19.05 -83.3 -19.05 -84.35 -20.55 -84.95 -23.15 -83.05 -23.15 -81.15 L-23.0 -79.35 -21.45 -79.05 Q-20.55 -79.05 -20.1 -79.4 M-18.9 -90.65 Q-17.3 -91.8 -17.3 -92.9 -17.3 -94.35 -18.75 -94.95 -22.55 -92.1 -22.55 -91.25 -22.55 -90.5 -22.05 -90.0 L-20.85 -89.7 Q-20.25 -89.7 -18.9 -90.65 M-25.1 -91.3 L-26.4 -91.4 Q-27.05 -91.4 -28.05 -90.35 -29.1 -89.25 -29.1 -88.2 L-28.95 -86.4 -27.3 -86.1 -25.8 -86.4 -24.9 -90.05 Q-24.9 -91.15 -25.1 -91.3 M-33.15 -83.4 L-33.0 -81.15 -31.4 -80.85 -29.85 -81.3 -29.7 -82.4 Q-29.7 -82.9 -30.25 -84.05 -30.9 -85.5 -31.7 -85.5 -33.15 -85.5 -33.15 -83.4 M-30.8 -69.2 Q-30.8 -70.8 -32.6 -70.8 -34.95 -70.8 -34.95 -68.0 -34.95 -66.65 -33.45 -66.15 -30.8 -66.7 -30.8 -69.2 M-26.1 -62.6 L-27.55 -62.5 Q-27.9 -62.3 -27.9 -61.25 L-27.75 -60.35 Q-26.15 -59.1 -25.2 -59.1 -24.25 -59.1 -23.95 -59.65 L-23.75 -60.5 Q-25.2 -62.6 -26.1 -62.6 M-25.8 -68.9 Q-26.1 -68.7 -26.1 -67.65 -26.1 -65.55 -23.75 -65.55 L-22.35 -65.85 -22.05 -67.05 Q-22.05 -69.05 -24.35 -69.05 L-25.8 -68.9 M-26.1 -79.05 Q-28.5 -79.05 -28.5 -76.4 L-28.35 -74.7 -26.7 -74.4 Q-24.35 -74.4 -24.35 -77.7 -24.35 -78.75 -24.65 -78.95 L-26.1 -79.05 M-29.4 -51.45 Q-28.35 -51.7 -27.3 -53.75 -28.1 -54.95 -29.1 -54.95 -30.8 -54.95 -30.8 -53.3 -30.8 -51.95 -29.4 -51.45 M-22.35 -49.95 L-24.05 -50.25 -25.3 -50.1 Q-26.1 -49.85 -26.1 -48.9 L-25.95 -48.0 Q-25.15 -47.3 -24.05 -47.3 L-22.2 -47.7 -22.05 -48.8 Q-22.05 -50.3 -22.35 -49.95 M-33.15 -56.7 Q-33.95 -57.9 -34.95 -57.9 -37.85 -57.45 -37.85 -55.95 -37.85 -55.3 -37.35 -54.65 L-35.85 -54.35 Q-34.3 -54.35 -33.15 -56.7 M-42.6 -35.4 Q-42.6 -34.25 -41.1 -33.75 -39.05 -35.3 -39.05 -36.45 -39.05 -38.05 -40.5 -38.45 -42.6 -36.6 -42.6 -35.4 M-42.6 -24.65 Q-43.8 -23.25 -43.8 -22.5 L-43.65 -21.6 Q-42.9 -20.85 -42.0 -20.85 -41.45 -20.85 -40.35 -21.9 -39.05 -23.15 -39.05 -24.5 -39.05 -25.65 -39.2 -25.85 L-40.5 -26.1 Q-41.35 -26.1 -42.6 -24.65 M-18.45 -38.25 Q-18.45 -39.75 -18.75 -39.35 L-20.85 -39.65 -22.35 -39.5 Q-23.15 -39.25 -23.15 -38.3 L-23.0 -37.5 Q-22.25 -36.75 -20.85 -36.75 -18.45 -36.75 -18.45 -38.25 M-32.7 -18.75 Q-32.55 -19.65 -32.55 -21.2 -32.55 -22.95 -34.05 -24.35 -36.15 -23.0 -36.15 -20.85 -36.8 -17.85 -34.05 -17.85 -33.1 -17.85 -32.9 -18.15 L-32.7 -18.75 M-29.7 -24.95 L-31.1 -24.85 Q-31.4 -24.65 -31.4 -23.6 -30.65 -20.25 -28.8 -20.25 L-27.45 -20.7 -27.3 -22.05 Q-27.3 -22.65 -27.75 -23.55 -28.45 -24.95 -29.7 -24.95 M-21.45 -25.5 Q-21.9 -26.15 -24.95 -27.3 -25.85 -27.3 -26.7 -25.35 L-25.95 -24.45 Q-25.15 -23.75 -23.75 -23.75 -22.7 -23.75 -22.25 -24.3 L-21.45 -25.5 M-22.55 -32.4 Q-22.55 -33.9 -22.85 -33.45 L-25.55 -33.75 -27.55 -33.6 Q-28.5 -33.4 -28.5 -32.45 L-28.35 -31.55 Q-27.6 -30.8 -25.55 -30.8 -22.55 -30.8 -22.55 -32.4 M-35.55 -33.15 Q-37.35 -33.15 -37.35 -31.5 -37.35 -31.15 -35.85 -29.7 -34.7 -29.95 -33.75 -32.0 -34.5 -33.15 -35.55 -33.15 M-31.7 -47.6 L-33.45 -47.85 Q-36.15 -47.5 -36.15 -45.95 -36.15 -45.0 -35.75 -44.7 L-34.65 -44.4 -32.35 -45.15 Q-31.4 -45.45 -31.4 -46.5 -31.4 -48.0 -31.7 -47.6 M-29.4 -37.85 Q-28.4 -37.85 -27.9 -39.35 -29.35 -41.4 -30.2 -41.4 -31.0 -41.4 -32.0 -39.65 L-29.4 -37.85" fill="url(#gradient1)" fill-rule="evenodd" stroke="none"/>
      <path d="M-0.9 -104.95 L-0.95 -104.95 -0.9 -105.0 -0.9 -104.95 M7.4 -110.4 L7.15 -109.85 7.4 -110.4 M0.8 -99.7 L0.8 -99.65 0.25 -99.2 0.8 -99.7 M0.2 -99.2 L0.2 -99.15 0.05 -99.5 0.2 -99.5 0.2 -99.2 M14.65 1.55 L14.7 1.55 14.7 1.6 14.65 1.65 14.65 1.55" fill="#4981a5" fill-rule="evenodd" stroke="none"/>
      <path d="M-3.3 -120.95 Q-5.5 -116.35 -8.75 -112.4 -13.25 -116.4 -15.55 -120.95 L-3.3 -120.95 M39.1 -24.85 L39.9 -22.75 44.15 -11.85 44.25 -11.6 44.3 -11.55 46.05 -7.25 Q46.4 -6.45 46.35 -5.65 L45.7 -5.4 45.25 -5.25 43.2 -4.5 42.0 -4.05 39.55 -3.3 38.0 -2.8 37.75 -2.75 35.05 -2.0 34.5 -1.85 32.2 -1.3 31.3 -1.1 28.4 -0.45 Q24.4 -15.5 23.75 -15.5 23.1 -15.5 23.1 -14.8 L25.9 -3.35 26.75 -0.15 24.25 0.3 23.8 0.4 23.45 0.45 23.25 0.45 22.75 0.55 18.8 1.1 18.2 1.2 14.7 1.6 14.7 1.55 14.65 1.55 14.55 1.6 14.35 1.6 13.95 1.65 13.55 1.7 10.3 2.0 10.25 1.95 9.0 2.05 8.95 2.1 8.65 2.1 8.0 -0.9 Q6.75 -7.0 4.95 -11.0 L4.2 -9.55 Q5.55 -2.35 6.65 2.25 L5.1 2.3 4.6 2.35 4.45 2.35 0.45 2.5 -0.45 2.5 -9.4 2.55 -10.5 2.55 -26.05 1.85 -26.55 1.85 -32.65 1.35 -32.45 -8.5 -33.2 -10.5 Q-34.2 -8.95 -34.2 1.2 L-33.85 1.25 -41.85 0.45 -43.4 0.25 -47.4 -0.2 -48.35 -0.35 -48.45 -0.35 -48.1 -1.95 -48.05 -2.35 -47.9 -3.05 -47.65 -4.5 -47.2 -7.3 -46.65 -10.8 -45.95 -15.65 -45.7 -17.65 Q-29.15 -15.15 -13.25 -15.45 L0.3 -16.25 4.95 -16.8 Q22.45 -19.05 39.1 -24.85 M-14.7 -11.0 Q-15.45 -11.0 -15.45 -8.55 L-14.4 2.45 -12.5 2.5 -14.7 -11.0" fill="#ffffff" fill-rule="evenodd" stroke="none"/>
      <path d="M6.65 2.25 Q5.55 -2.35 4.2 -9.55 L4.95 -11.0 Q6.75 -7.0 8.0 -0.9 L8.65 2.1 6.65 2.25 M26.75 -0.15 L25.9 -3.35 23.1 -14.8 Q23.1 -15.5 23.75 -15.5 24.4 -15.5 28.4 -0.45 L26.75 -0.15 M-33.85 1.25 L-34.2 1.2 Q-34.2 -8.95 -33.2 -10.5 L-32.45 -8.5 -32.65 1.35 -33.85 1.25 M-14.7 -11.0 L-12.5 2.5 -14.4 2.45 -15.45 -8.55 Q-15.45 -11.0 -14.7 -11.0" fill="#e1e1e1" fill-rule="evenodd" stroke="none"/>
      <path d="M-0.85 -127.3 Q-1.85 -124.0 -3.3 -120.95 L-15.55 -120.95 Q-17.0 -123.85 -17.5 -126.95 L-12.75 -126.8 -9.75 -126.85 -3.35 -127.15 -1.65 -127.3 -0.95 -127.35 -0.85 -127.3" fill="#fff1dd" fill-rule="evenodd" stroke="none"/>
      <path d="M-43.65 -31.45 L-43.7 -31.45 -43.7 -31.5 -43.65 -31.45" fill="url(#gradient2)" fill-rule="evenodd" stroke="none"/>
      <path d="M-0.85 -127.35 L-0.85 -127.3 Q-1.85 -124.0 -3.3 -120.95 -5.5 -116.35 -8.75 -112.4 L-15.65 -103.95 -18.55 -99.8 -17.1 -99.65 -4.45 -99.65 M8.8 -113.6 L9.55 -115.6 M8.8 -113.6 L8.65 -113.3 8.25 -112.3 7.4 -110.4 7.15 -109.85 7.0 -109.55 6.65 -108.9 M6.15 -107.95 L5.3 -106.55 4.85 -105.75 3.75 -103.95 3.6 -103.7 M3.35 -103.3 L1.45 -100.5 0.8 -99.7 M0.1 -97.55 L0.05 -51.4 0.35 -47.45 M0.4 -47.2 Q1.7 -32.45 4.55 -18.8 L4.75 -17.8 4.95 -16.8 Q22.45 -19.05 39.1 -24.85 M0.2 -99.2 L0.2 -99.5 0.05 -99.5 M0.25 -99.2 L0.8 -99.7 M0.3 -16.25 L4.95 -16.8 M-17.5 -126.95 Q-17.0 -123.85 -15.55 -120.95 L-3.3 -120.95 M-21.05 -102.45 Q-25.6 -107.75 -28.85 -114.3 L-30.0 -116.75 M-45.7 -17.65 Q-29.15 -15.15 -13.25 -15.45 -18.65 -34.8 -17.25 -92.9 L-17.1 -99.65 M-2.3 -99.5 L0.05 -99.5 M-2.3 -99.5 L-4.45 -99.65 M-15.55 -120.95 Q-13.25 -116.4 -8.75 -112.4 M-21.05 -102.45 L-18.55 -99.8 M0.3 -16.25 L-13.25 -15.45" fill="none" stroke="#000000" stroke-linecap="round" stroke-linejoin="miter" stroke-miterlimit="768" stroke-width="3.0"/>
      <path d="M-45.7 -17.65 L-46.65 -17.8" fill="none" stroke="#000000" stroke-linecap="round" stroke-linejoin="round" stroke-width="3.0"/>
      <path d="M-21.85 -101.35 Q-22.45 -101.35 -22.85 -101.75 -23.25 -102.15 -23.25 -102.75 -23.25 -103.35 -22.85 -103.75 -22.45 -104.15 -21.85 -104.15 -21.25 -104.15 -20.85 -103.75 -20.45 -103.35 -20.45 -102.75 -20.45 -102.15 -20.85 -101.75 -21.25 -101.35 -21.85 -101.35" fill="#22c4c2" fill-rule="evenodd" stroke="none"/>
      <path d="M-21.85 -101.35 Q-22.45 -101.35 -22.85 -101.75 -23.25 -102.15 -23.25 -102.75 -23.25 -103.35 -22.85 -103.75 -22.45 -104.15 -21.85 -104.15 -21.25 -104.15 -20.85 -103.75 -20.25 -106.3 -20.65 -106.95 -21.2 -107.85 -21.9 -107.85 -22.65 -107.85 -23.15 -106.95 -23.55 -106.35 -23.2 -103.95 -24.4 -105.8 -25.15 -105.75 -26.2 -105.75 -26.55 -105.1 -26.95 -104.45 -26.55 -103.2 -26.2 -102.05 -23.25 -102.45 -25.7 -101.0 -25.9 -100.05 -26.15 -99.1 -25.6 -98.55 -25.15 -98.1 -24.2 -98.35 -23.25 -98.65 -22.8 -99.3 L-21.85 -101.35 Q-21.25 -101.35 -20.85 -101.75 -20.45 -102.15 -20.45 -102.75 -20.45 -103.35 -20.85 -103.75 -19.3 -105.85 -18.55 -105.8 -17.5 -105.8 -17.15 -105.15 -16.8 -104.55 -17.45 -103.35 -18.1 -102.2 -20.45 -102.55 -18.0 -101.15 -17.7 -100.15 -17.45 -99.15 -17.95 -98.65 -18.5 -98.15 -19.4 -98.4 -20.4 -98.7 -20.9 -99.25 -21.45 -99.85 -21.85 -101.35" fill="none" stroke="#22c4c2" stroke-linecap="round" stroke-linejoin="round" stroke-width="1.0"/>
      <path d="M-16.25 -95.75 Q-16.85 -95.75 -17.25 -96.15 -17.65 -96.55 -17.65 -97.15 -17.65 -97.75 -17.25 -98.15 -16.85 -98.55 -16.25 -98.55 -15.65 -98.55 -15.25 -98.15 -14.85 -97.75 -14.85 -97.15 -14.85 -96.55 -15.25 -96.15 -15.65 -95.75 -16.25 -95.75" fill="#22c4c2" fill-rule="evenodd" stroke="none"/>
      <path d="M-15.25 -98.15 Q-14.65 -100.7 -15.05 -101.35 -15.6 -102.25 -16.3 -102.25 -17.05 -102.25 -17.55 -101.35 -17.95 -100.75 -17.6 -98.35 -18.8 -100.2 -19.55 -100.15 -20.6 -100.15 -20.95 -99.5 -21.35 -98.85 -20.95 -97.6 -20.6 -96.45 -17.65 -96.85 -20.1 -95.4 -20.3 -94.45 -20.55 -93.5 -20.0 -92.95 -19.55 -92.5 -18.6 -92.75 -17.65 -93.05 -17.2 -93.7 L-16.25 -95.75 Q-16.85 -95.75 -17.25 -96.15 -17.65 -96.55 -17.65 -97.15 -17.65 -97.75 -17.25 -98.15 -16.85 -98.55 -16.25 -98.55 -15.65 -98.55 -15.25 -98.15 -13.7 -100.25 -12.95 -100.2 -11.9 -100.2 -11.55 -99.55 -11.2 -98.95 -11.85 -97.75 -12.5 -96.6 -14.85 -96.95 -12.4 -95.55 -12.1 -94.55 -11.85 -93.55 -12.35 -93.05 -12.9 -92.55 -13.8 -92.8 -14.8 -93.1 -15.3 -93.65 -15.85 -94.25 -16.25 -95.75 -15.65 -95.75 -15.25 -96.15 -14.85 -96.55 -14.85 -97.15 -14.85 -97.75 -15.25 -98.15" fill="none" stroke="#22c4c2" stroke-linecap="round" stroke-linejoin="round" stroke-width="1.0"/>
      <path d="M-20.65 -54.45 Q-21.2 -54.25 -21.65 -54.45 L-22.45 -55.25 Q-22.65 -55.8 -22.4 -56.35 -22.2 -56.85 -21.65 -57.05 -21.05 -57.25 -20.55 -57.05 -20.0 -56.8 -19.8 -56.25 -19.55 -55.7 -19.8 -55.15 -20.05 -54.65 -20.65 -54.45" fill="#22c4c2" fill-rule="evenodd" stroke="none"/>
      <path d="M-20.55 -57.05 Q-20.9 -59.65 -21.5 -60.1 -22.35 -60.75 -23.0 -60.5 -23.7 -60.2 -23.85 -59.2 -24.0 -58.5 -22.8 -56.35 -24.6 -57.7 -25.25 -57.35 -26.25 -57.0 -26.35 -56.25 -26.45 -55.5 -25.65 -54.45 -24.95 -53.55 -22.35 -54.95 -24.05 -52.7 -23.9 -51.8 -23.8 -50.8 -23.05 -50.5 -22.5 -50.2 -21.7 -50.8 -20.95 -51.45 -20.75 -52.2 L-20.65 -54.45 Q-21.2 -54.25 -21.65 -54.45 L-22.45 -55.25 Q-22.65 -55.8 -22.4 -56.35 -22.2 -56.85 -21.65 -57.05 -21.05 -57.25 -20.55 -57.05 -19.85 -59.6 -19.15 -59.8 L-17.6 -59.7 Q-17.1 -59.25 -17.25 -57.9 -17.45 -56.6 -19.7 -56.05 -16.95 -55.65 -16.3 -54.85 -15.75 -54.0 -16.0 -53.35 -16.3 -52.65 -17.25 -52.6 L-18.95 -52.85 Q-19.7 -53.2 -20.65 -54.45 -20.05 -54.65 -19.8 -55.15 -19.55 -55.7 -19.8 -56.25 -20.0 -56.8 -20.55 -57.05" fill="none" stroke="#22c4c2" stroke-linecap="round" stroke-linejoin="round" stroke-width="1.0"/>
      <path d="M-13.8 -50.8 Q-14.4 -50.7 -14.8 -51.05 -15.25 -51.4 -15.3 -52.0 -15.4 -52.6 -15.05 -53.0 L-14.15 -53.55 -13.1 -53.3 Q-12.65 -53.0 -12.55 -52.4 -12.5 -51.8 -12.85 -51.35 -13.2 -50.85 -13.8 -50.8" fill="#22c4c2" fill-rule="evenodd" stroke="none"/>
      <path d="M-13.8 -50.8 Q-14.4 -50.7 -14.8 -51.05 -15.25 -51.4 -15.3 -52.0 -15.4 -52.6 -15.05 -53.0 L-14.15 -53.55 -13.1 -53.3 Q-12.85 -55.9 -13.35 -56.5 -14.0 -57.35 -14.7 -57.25 -15.45 -57.15 -15.8 -56.15 -16.1 -55.5 -15.45 -53.15 -16.9 -54.85 -17.6 -54.7 -18.65 -54.55 -18.95 -53.85 -19.25 -53.15 -18.7 -52.0 -18.2 -50.9 -15.3 -51.7 -17.55 -49.95 -17.6 -48.95 -17.75 -47.95 -17.1 -47.55 -16.6 -47.15 -15.7 -47.55 -14.75 -47.95 -14.4 -48.6 L-13.8 -50.8 Q-13.2 -50.85 -12.85 -51.35 -12.5 -51.8 -12.55 -52.4 -12.65 -53.0 -13.1 -53.3 -11.85 -55.6 -11.1 -55.65 -10.1 -55.8 -9.65 -55.15 -9.2 -54.6 -9.7 -53.4 -10.2 -52.15 -12.55 -52.2 -9.95 -51.1 -9.5 -50.15 -9.15 -49.2 -9.55 -48.65 -10.0 -48.1 -10.95 -48.2 -12.0 -48.4 -12.55 -48.8 -13.2 -49.35 -13.8 -50.8" fill="none" stroke="#22c4c2" stroke-linecap="round" stroke-linejoin="round" stroke-width="1.0"/>
      <path d="M-21.45 -40.25 L-22.4 -40.8 -22.65 -41.85 Q-22.55 -42.45 -22.1 -42.75 -21.6 -43.1 -21.0 -43.0 -20.4 -42.9 -20.1 -42.45 -19.75 -42.0 -19.85 -41.4 -19.95 -40.85 -20.4 -40.5 -20.85 -40.15 -21.45 -40.25" fill="#22c4c2" fill-rule="evenodd" stroke="none"/>
      <path d="M-21.45 -40.25 L-22.4 -40.8 -22.65 -41.85 Q-22.55 -42.45 -22.1 -42.75 -21.6 -43.1 -21.0 -43.0 -20.4 -42.9 -20.1 -42.45 -19.15 -44.85 -19.4 -45.55 -19.8 -46.55 -20.5 -46.65 -21.25 -46.8 -21.9 -45.95 -22.35 -45.45 -22.4 -43.0 -23.25 -45.05 -24.0 -45.15 -25.05 -45.3 -25.5 -44.7 -26.0 -44.1 -25.8 -42.8 -25.65 -41.65 -22.7 -41.6 -25.3 -40.5 -25.65 -39.6 -26.05 -38.75 -25.6 -38.1 -25.2 -37.6 -24.25 -37.7 -23.3 -37.85 -22.75 -38.35 L-21.45 -40.25 Q-20.85 -40.15 -20.4 -40.5 -19.95 -40.85 -19.85 -41.4 -19.75 -42.0 -20.1 -42.45 -18.25 -44.3 -17.5 -44.15 -16.45 -44.0 -16.2 -43.25 -16.0 -42.6 -16.8 -41.5 -17.6 -40.5 -19.85 -41.25 -17.7 -39.45 -17.55 -38.4 -17.45 -37.4 -18.05 -37.0 -18.65 -36.6 -19.5 -37.0 L-20.85 -38.0 Q-21.3 -38.7 -21.45 -40.25" fill="none" stroke="#22c4c2" stroke-linecap="round" stroke-linejoin="round" stroke-width="1.0"/>
      <path d="M-12.85 -37.05 L-13.9 -37.15 -14.55 -38.0 -14.5 -39.05 Q-14.2 -39.55 -13.65 -39.7 L-12.6 -39.65 Q-12.05 -39.4 -11.9 -38.85 -11.7 -38.25 -12.0 -37.75 -12.25 -37.25 -12.85 -37.05" fill="#22c4c2" fill-rule="evenodd" stroke="none"/>
      <path d="M-12.6 -39.65 Q-12.75 -42.25 -13.35 -42.75 -14.1 -43.45 -14.8 -43.25 -15.5 -43.05 -15.7 -42.05 -15.9 -41.3 -14.85 -39.15 -16.55 -40.55 -17.3 -40.3 -18.3 -40.0 -18.4 -39.25 -18.6 -38.5 -17.85 -37.4 -17.2 -36.45 -14.45 -37.7 -16.35 -35.55 -16.3 -34.6 -16.25 -33.65 -15.55 -33.3 L-14.15 -33.5 Q-13.35 -34.05 -13.1 -34.85 -12.9 -35.55 -12.85 -37.05 L-13.9 -37.15 -14.55 -38.0 -14.5 -39.05 Q-14.2 -39.55 -13.65 -39.7 L-12.6 -39.65 Q-11.7 -42.1 -11.0 -42.3 L-9.45 -42.05 Q-8.95 -41.6 -9.2 -40.25 -9.5 -39.0 -11.85 -38.65 -9.05 -38.0 -8.45 -37.15 -8.0 -36.25 -8.3 -35.6 -8.7 -35.0 -9.6 -35.0 -10.65 -34.95 -11.25 -35.35 -12.0 -35.75 -12.85 -37.05 -12.25 -37.25 -12.0 -37.75 -11.7 -38.25 -11.9 -38.85 -12.05 -39.4 -12.6 -39.65" fill="none" stroke="#22c4c2" stroke-linecap="round" stroke-linejoin="round" stroke-width="1.0"/>
      <path d="M-20.65 -26.25 Q-21.2 -26.05 -21.65 -26.25 L-22.45 -27.05 Q-22.65 -27.6 -22.4 -28.15 -22.2 -28.65 -21.65 -28.85 -21.05 -29.05 -20.55 -28.85 -20.0 -28.6 -19.8 -28.05 -19.55 -27.5 -19.8 -26.95 -20.05 -26.45 -20.65 -26.25" fill="#22c4c2" fill-rule="evenodd" stroke="none"/>
      <path d="M-20.55 -28.85 Q-20.9 -31.45 -21.5 -31.9 -22.35 -32.55 -23.0 -32.3 -23.7 -32.0 -23.85 -31.0 -24.0 -30.3 -22.8 -28.15 -24.6 -29.5 -25.25 -29.15 -26.25 -28.8 -26.35 -28.05 -26.45 -27.3 -25.65 -26.25 -24.95 -25.35 -22.35 -26.75 -24.05 -24.5 -23.9 -23.6 -23.8 -22.6 -23.05 -22.3 -22.5 -22.0 -21.7 -22.6 -20.95 -23.25 -20.75 -24.0 L-20.65 -26.25 Q-21.2 -26.05 -21.65 -26.25 L-22.45 -27.05 Q-22.65 -27.6 -22.4 -28.15 -22.2 -28.65 -21.65 -28.85 -21.05 -29.05 -20.55 -28.85 -19.85 -31.4 -19.15 -31.6 L-17.6 -31.5 Q-17.1 -31.05 -17.25 -29.7 -17.45 -28.4 -19.7 -27.85 -16.95 -27.45 -16.3 -26.65 -15.75 -25.8 -16.0 -25.15 -16.3 -24.45 -17.25 -24.4 L-18.95 -24.65 Q-19.7 -25.0 -20.65 -26.25 -20.05 -26.45 -19.8 -26.95 -19.55 -27.5 -19.8 -28.05 -20.0 -28.6 -20.55 -28.85" fill="none" stroke="#22c4c2" stroke-linecap="round" stroke-linejoin="round" stroke-width="1.0"/>
      <path d="M-13.85 -22.9 Q-14.45 -22.8 -14.85 -23.15 -15.3 -23.5 -15.4 -24.1 L-15.15 -25.15 Q-14.85 -25.6 -14.25 -25.7 -13.65 -25.8 -13.2 -25.45 -12.75 -25.1 -12.65 -24.5 -12.55 -23.9 -12.9 -23.45 -13.25 -23.0 -13.85 -22.9" fill="#22c4c2" fill-rule="evenodd" stroke="none"/>
      <path d="M-13.85 -22.9 Q-14.45 -22.8 -14.85 -23.15 -15.3 -23.5 -15.4 -24.1 L-15.15 -25.15 Q-14.85 -25.6 -14.25 -25.7 -13.65 -25.8 -13.2 -25.45 -13.0 -28.05 -13.5 -28.6 -14.15 -29.45 -14.85 -29.35 -15.55 -29.2 -15.95 -28.25 -16.25 -27.6 -15.55 -25.3 -17.0 -26.9 -17.75 -26.75 -18.8 -26.6 -19.0 -25.9 -19.3 -25.2 -18.7 -24.05 -18.25 -22.95 -15.35 -23.8 -17.6 -22.0 -17.65 -21.05 -17.75 -20.05 -17.1 -19.55 L-15.7 -19.6 Q-14.8 -20.05 -14.45 -20.75 L-13.85 -22.9 Q-13.25 -23.0 -12.9 -23.45 -12.55 -23.9 -12.65 -24.5 -12.75 -25.1 -13.2 -25.45 -11.95 -27.75 -11.25 -27.8 -10.2 -27.95 -9.75 -27.35 -9.3 -26.85 -9.8 -25.55 -10.25 -24.3 -12.6 -24.3 -10.0 -23.25 -9.55 -22.35 -9.15 -21.4 -9.6 -20.85 -10.05 -20.25 -10.95 -20.35 -12.0 -20.5 -12.55 -21.0 -13.2 -21.5 -13.85 -22.9" fill="none" stroke="#22c4c2" stroke-linecap="round" stroke-linejoin="round" stroke-width="1.0"/>
    </g>
    <linearGradient gradientTransform="matrix(0.0018, 0.0574, -0.0808, 0.0025, -7.2, -61.85)" gradientUnits="userSpaceOnUse" id="gradient0" spreadMethod="pad" x1="-819.2" x2="819.2">
      <stop offset="0.0" stop-color="#e2c7c7"/>
      <stop offset="1.0" stop-color="#ad6b6b"/>
    </linearGradient>
    <linearGradient gradientTransform="matrix(0.0023, 0.038, -0.9979, 0.0612, -55.4, -48.15)" gradientUnits="userSpaceOnUse" id="gradient1" spreadMethod="pad" x1="-819.2" x2="819.2">
      <stop offset="0.0" stop-color="#d0a1a0"/>
      <stop offset="1.0" stop-color="#a95f5f"/>
    </linearGradient>
    <linearGradient gradientTransform="matrix(0.0, 0.0402, -1.0, 0.0, -61.05, -69.85)" gradientUnits="userSpaceOnUse" id="gradient2" spreadMethod="pad" x1="-819.2" x2="819.2">
      <stop offset="0.0" stop-color="#d0a1a0"/>
      <stop offset="0.3803921568627451" stop-color="#c99695"/>
      <stop offset="0.7215686274509804" stop-color="#bd8584"/>
      <stop offset="1.0" stop-color="#954b4a"/>
    </linearGradient>
  </defs>
</svg>
