<?xml version="1.0" encoding="UTF-8" standalone="no"?>
<svg xmlns:xlink="http://www.w3.org/1999/xlink" height="342.0px" width="237.9px" xmlns="http://www.w3.org/2000/svg">
  <g transform="matrix(1, 0, 0, 1, 118.05, 273.9)">
    <use height="151.95" transform="matrix(1.0, 0.0, 0.0, 1.0, -60.75, -140.2)" width="112.35" xlink:href="#shape0"/>
  </g>
  <defs>
    <g id="shape0" transform="matrix(1, 0, 0, 1, 60.75, 140.2)">
      <path d="M27.95 -133.05 L23.9 -131.95 Q17.25 -130.2 10.85 -129.0 L16.65 -109.8 19.95 -98.6 20.6 -97.9 20.45 -96.85 Q25.95 -78.5 28.6 -71.25 31.4 -63.65 36.05 -54.15 L43.55 -39.05 Q51.6 -22.0 51.6 -8.65 51.6 -2.85 50.7 -0.45 49.2 3.6 44.15 6.0 32.15 11.75 -9.15 11.75 -43.85 11.75 -50.65 10.55 -52.85 10.2 -53.45 9.35 -54.15 8.4 -55.25 8.0 -60.75 6.0 -60.75 3.5 -60.75 -0.1 -57.7 -0.65 -57.05 -8.2 -45.75 -68.5 -36.15 -119.65 -32.05 -131.9 L-32.05 -138.6 Q-19.9 -134.55 -2.0 -134.55 8.75 -134.55 24.3 -139.1 L27.95 -140.2 27.95 -133.05 M13.35 -100.0 L11.25 -106.65 9.45 -105.0 Q5.2 -101.3 3.9 -101.3 1.7 -101.3 -2.25 -107.3 L-2.7 -108.0 Q-4.55 -110.85 -6.6 -114.6 -8.2 -110.35 -9.7 -107.25 -12.65 -101.3 -16.9 -101.3 -21.05 -101.3 -29.2 -109.4 L-31.1 -99.05 -31.95 -94.6 -32.8 -90.15 -32.75 -90.15 -39.0 -62.5 -39.8 -57.45 -12.2 -57.4 -5.9 -57.4 -2.9 -57.45 -1.95 -57.45 -1.05 -57.45 18.7 -58.5 18.9 -58.55 19.65 -58.65 20.7 -58.9 21.25 -59.05 21.45 -59.1 21.5 -59.15 23.0 -60.35 Q23.55 -60.8 26.05 -60.85 19.1 -81.9 14.45 -96.5 L13.35 -100.0 M7.2 -111.7 L9.15 -113.45 Q5.7 -124.8 5.15 -128.1 -4.1 -126.8 -12.75 -126.8 -19.65 -126.8 -26.25 -128.3 -26.35 -125.8 -27.9 -116.6 L-24.1 -113.45 Q-18.45 -108.25 -17.2 -107.8 -10.9 -122.9 -6.6 -122.9 -3.85 -122.9 -0.65 -117.15 3.5 -109.7 4.1 -109.1 4.85 -109.2 7.2 -111.7 M5.95 -51.55 L0.35 -51.3 Q3.5 -48.35 5.3 -47.8 5.7 -48.4 5.95 -51.1 L6.1 -51.55 5.95 -51.55 M17.0 -50.1 Q18.9 -51.2 20.0 -52.95 L15.1 -52.3 Q16.05 -50.8 17.0 -50.1 M29.25 -51.3 L28.0 -55.0 25.05 -54.05 Q25.75 -53.65 26.05 -52.95 26.7 -51.5 29.25 -51.3 M44.1 -9.1 L44.05 -9.3 39.25 -24.5 38.0 -27.7 34.15 -37.45 33.95 -37.15 30.75 -46.85 27.8 -46.6 Q24.75 -46.6 24.15 -47.45 L23.1 -49.4 Q21.55 -47.3 20.85 -46.7 19.8 -45.8 17.2 -45.8 13.6 -45.8 11.25 -50.4 11.0 -48.55 10.2 -46.8 8.7 -43.5 5.8 -43.5 3.3 -43.5 0.2 -46.05 L-3.05 -48.55 -3.5 -48.8 Q-4.1 -47.05 -4.95 -46.1 L-5.95 -45.25 Q-7.55 -44.3 -10.2 -44.3 -13.5 -44.3 -16.95 -48.0 L-18.05 -49.25 Q-18.8 -48.2 -20.0 -47.0 -23.45 -43.5 -26.3 -43.5 -31.4 -43.5 -32.3 -47.4 -33.3 -45.65 -33.6 -45.5 L-38.4 -45.0 -41.7 -45.25 -42.8 -37.8 -42.8 -37.75 -43.65 -31.45 -43.7 -31.5 -43.7 -31.45 -44.35 -26.8 -45.25 -20.95 Q-46.8 -12.1 -48.3 -6.3 L-49.15 -3.15 -50.95 1.65 -50.9 1.65 -48.15 2.25 -48.0 2.3 -47.85 2.3 -46.65 2.45 -46.25 2.5 -45.65 2.55 -7.5 3.9 -5.65 3.9 -1.9 3.95 -1.9 3.9 0.45 3.95 18.4 4.0 20.3 4.0 Q30.75 2.15 35.6 -0.5 41.05 -3.45 43.0 -6.0 43.75 -6.95 44.0 -7.85 L44.0 -7.9 44.1 -8.75 44.1 -9.1 M-34.6 -51.05 L-34.35 -51.65 -34.6 -51.65 -39.4 -52.1 -40.5 -53.0 -41.0 -49.7 -40.4 -49.2 Q-35.45 -49.2 -34.6 -51.05 M-21.85 -51.15 L-21.8 -51.25 -21.85 -51.25 -26.3 -51.35 -30.15 -51.45 -29.2 -50.35 Q-27.25 -47.8 -25.9 -47.8 -23.85 -47.8 -21.85 -51.15 M-7.25 -51.1 L-12.6 -51.1 -14.15 -51.1 Q-12.55 -48.6 -10.3 -48.6 -8.25 -48.6 -7.25 -51.0 L-7.2 -51.1 -7.25 -51.1" fill="#000000" fill-rule="evenodd" stroke="none"/>
      <path d="M7.2 -111.7 Q4.85 -109.2 4.1 -109.1 3.5 -109.7 -0.65 -117.15 -3.85 -122.9 -6.6 -122.9 -10.9 -122.9 -17.2 -107.8 -18.45 -108.25 -24.1 -113.45 L-27.9 -116.6 Q-26.35 -125.8 -26.25 -128.3 -19.65 -126.8 -12.75 -126.8 -4.1 -126.8 5.15 -128.1 5.7 -124.8 9.15 -113.45 L7.2 -111.7" fill="#ffffff" fill-rule="evenodd" stroke="none"/>
      <path d="M-2.7 -108.0 L-2.25 -107.3 Q1.7 -101.3 3.9 -101.3 5.2 -101.3 9.45 -105.0 L11.25 -106.65 13.35 -100.0 13.3 -100.0 Q7.0 -98.6 3.5 -95.8 3.35 -95.0 3.7 -94.55 4.4 -93.7 7.8 -93.7 9.55 -93.7 12.3 -95.1 13.7 -95.8 14.45 -96.5 19.1 -81.9 26.05 -60.85 23.55 -60.8 23.0 -60.35 L21.5 -59.15 21.45 -59.1 21.25 -59.05 20.7 -58.9 19.65 -58.65 18.9 -58.55 18.7 -58.5 -1.05 -57.45 -1.95 -57.45 -1.9 -60.9 Q-1.3 -66.2 -3.9 -66.2 -5.9 -66.2 -5.9 -65.7 L-5.9 -57.4 -12.2 -57.4 -39.8 -57.45 -39.0 -62.5 -32.75 -90.15 -32.8 -90.15 -31.95 -94.6 -30.6 -94.5 Q-29.35 -94.5 -29.0 -94.9 L-28.8 -95.3 -28.6 -97.0 Q-28.6 -99.0 -29.0 -98.8 L-31.1 -99.05 -29.2 -109.4 Q-21.05 -101.3 -16.9 -101.3 -12.65 -101.3 -9.7 -107.25 -8.2 -110.35 -6.6 -114.6 L-6.6 -103.9 Q-6.2 -102.65 -4.7 -102.3 L-2.9 -102.9 -2.7 -108.0 M0.0 -93.1 Q1.2 -93.45 1.2 -95.0 1.2 -96.4 -2.7 -96.7 L-2.7 -97.6 Q-3.45 -98.7 -4.7 -99.2 -5.65 -98.4 -6.1 -96.8 -10.3 -96.7 -11.3 -95.7 -11.0 -95.3 -11.2 -94.65 L-11.3 -93.75 Q-10.9 -93.0 -6.6 -92.9 -6.6 -88.6 -4.7 -86.6 L-2.7 -87.6 -2.7 -92.9 0.0 -93.1 M5.95 -51.1 Q5.7 -48.4 5.3 -47.8 3.5 -48.35 0.35 -51.3 L5.95 -51.55 5.95 -51.1 M29.25 -51.3 Q26.7 -51.5 26.05 -52.95 25.75 -53.65 25.05 -54.05 L28.0 -55.0 29.25 -51.3 M17.0 -50.1 Q16.05 -50.8 15.1 -52.3 L20.0 -52.95 Q18.9 -51.2 17.0 -50.1 M-3.05 -48.55 L-2.3 -46.55 -1.9 -44.4 -2.1 -39.4 -3.9 -38.8 Q-5.7 -40.5 -5.9 -44.5 L-5.95 -45.25 -4.95 -46.1 Q-4.1 -47.05 -3.5 -48.8 L-3.05 -48.55 M-48.3 -6.3 L-44.7 -6.7 Q-39.6 -6.7 -39.6 -4.8 -39.6 -3.2 -40.7 -2.9 L-44.7 -2.7 -49.15 -3.15 -48.3 -6.3 M-5.65 3.9 L-5.9 1.1 Q-5.9 -3.5 -3.9 -5.1 -2.65 -4.6 -1.9 -3.5 L-1.9 3.9 -1.9 3.95 -5.65 3.9 M43.0 -6.0 L38.8 -5.9 Q33.1 -5.9 32.6 -6.75 32.95 -7.95 32.5 -8.6 33.7 -9.8 38.8 -9.8 42.55 -9.8 44.1 -9.1 L44.1 -8.75 44.0 -7.9 44.0 -7.85 Q43.75 -6.95 43.0 -6.0 M16.8 -7.0 Q18.0 -8.2 22.7 -8.2 28.6 -8.2 28.6 -6.4 28.6 -4.85 27.45 -4.5 L22.7 -4.3 Q17.45 -4.3 16.9 -5.2 17.2 -6.4 16.8 -7.0 M12.9 -5.6 Q12.9 -4.05 11.7 -3.7 L6.6 -3.5 Q1.1 -3.5 0.5 -4.35 0.15 -4.9 0.4 -6.3 1.5 -7.4 6.6 -7.4 13.9 -7.4 12.9 -5.6 M-3.9 -83.5 Q-5.6 -82.45 -5.9 -79.85 L-5.9 -77.0 Q-5.9 -71.7 -3.9 -70.2 L-2.1 -70.8 -1.9 -76.9 Q-1.9 -81.6 -3.9 -83.5 M-15.7 -93.1 Q-14.5 -93.45 -14.5 -95.0 -14.5 -97.6 -24.3 -97.6 -25.75 -97.6 -26.0 -97.25 -26.2 -97.0 -26.2 -95.4 -26.7 -94.6 -26.2 -94.05 -25.3 -92.9 -20.4 -92.9 L-15.7 -93.1 M-34.6 -51.65 L-34.6 -51.05 Q-35.45 -49.2 -40.4 -49.2 L-41.0 -49.7 -40.5 -53.0 -39.4 -52.1 -34.6 -51.65 M-21.85 -51.25 L-21.85 -51.15 Q-23.85 -47.8 -25.9 -47.8 -27.25 -47.8 -29.2 -50.35 L-30.15 -51.45 -26.3 -51.35 -21.85 -51.25 M-7.25 -51.0 Q-8.25 -48.6 -10.3 -48.6 -12.55 -48.6 -14.15 -51.1 L-12.6 -51.1 -7.25 -51.1 -7.25 -51.0 M-1.9 -34.1 L-1.9 -24.1 -3.9 -23.1 Q-5.9 -25.1 -5.9 -29.4 -5.9 -34.1 -3.9 -35.7 -2.65 -35.2 -1.9 -34.1 M-23.1 -5.6 Q-23.1 -4.1 -24.3 -3.7 L-28.2 -3.5 Q-32.6 -3.5 -33.2 -4.35 -33.5 -4.9 -33.3 -6.3 -32.2 -7.4 -28.2 -7.4 -23.1 -7.4 -23.1 -5.6 M-4.7 -19.2 Q-3.45 -18.7 -2.7 -17.6 L-2.7 -7.6 -4.7 -6.7 Q-6.6 -8.7 -6.6 -12.9 -6.6 -17.6 -4.7 -19.2 M-18.35 -4.35 Q-18.7 -4.9 -18.4 -6.3 -17.3 -7.4 -12.5 -7.4 -5.8 -7.4 -6.6 -5.6 -6.6 -4.05 -7.8 -3.7 L-12.5 -3.5 Q-17.85 -3.5 -18.35 -4.35" fill="#333333" fill-rule="evenodd" stroke="none"/>
      <path d="M13.35 -100.0 L14.45 -96.5 Q13.7 -95.8 12.3 -95.1 9.55 -93.7 7.8 -93.7 4.4 -93.7 3.7 -94.55 3.35 -95.0 3.5 -95.8 7.0 -98.6 13.3 -100.0 L13.35 -100.0 M-1.95 -57.45 L-2.9 -57.45 -5.9 -57.4 -5.9 -65.7 Q-5.9 -66.2 -3.9 -66.2 -1.3 -66.2 -1.9 -60.9 L-1.95 -57.45 M-31.95 -94.6 L-31.1 -99.05 -29.0 -98.8 Q-28.6 -99.0 -28.6 -97.0 L-28.8 -95.3 -29.0 -94.9 Q-29.35 -94.5 -30.6 -94.5 L-31.95 -94.6 M-6.6 -114.6 Q-4.55 -110.85 -2.7 -108.0 L-2.9 -102.9 -4.7 -102.3 Q-6.2 -102.65 -6.6 -103.9 L-6.6 -114.6 M0.0 -93.1 L-2.7 -92.9 -2.7 -87.6 -4.7 -86.6 Q-6.6 -88.6 -6.6 -92.9 -10.9 -93.0 -11.3 -93.75 L-11.2 -94.65 Q-11.0 -95.3 -11.3 -95.7 -10.3 -96.7 -6.1 -96.8 -5.65 -98.4 -4.7 -99.2 -3.45 -98.7 -2.7 -97.6 L-2.7 -96.7 Q1.2 -96.4 1.2 -95.0 1.2 -93.45 0.0 -93.1 M-3.05 -48.55 L0.2 -46.05 Q3.3 -43.5 5.8 -43.5 8.7 -43.5 10.2 -46.8 11.0 -48.55 11.25 -50.4 13.6 -45.8 17.2 -45.8 19.8 -45.8 20.85 -46.7 21.55 -47.3 23.1 -49.4 L24.15 -47.45 Q24.75 -46.6 27.8 -46.6 L30.75 -46.85 33.95 -37.15 34.15 -37.45 38.0 -27.7 39.25 -24.5 44.05 -9.3 44.1 -9.1 Q42.55 -9.8 38.8 -9.8 33.7 -9.8 32.5 -8.6 32.95 -7.95 32.6 -6.75 33.1 -5.9 38.8 -5.9 L43.0 -6.0 Q41.05 -3.45 35.6 -0.5 30.75 2.15 20.3 4.0 L18.4 4.0 0.45 3.95 -1.9 3.9 -1.9 -3.5 Q-2.65 -4.6 -3.9 -5.1 -5.9 -3.5 -5.9 1.1 L-5.65 3.9 -7.5 3.9 -45.65 2.55 -46.25 2.5 -46.65 2.45 -47.85 2.3 -48.0 2.3 -48.15 2.25 -50.9 1.65 -50.95 1.65 -49.15 -3.15 -44.7 -2.7 -40.7 -2.9 Q-39.6 -3.2 -39.6 -4.8 -39.6 -6.7 -44.7 -6.7 L-48.3 -6.3 Q-46.8 -12.1 -45.25 -20.95 L-44.35 -26.8 -43.7 -31.45 -43.65 -31.45 -42.8 -37.75 -42.8 -37.8 -41.7 -45.25 -38.4 -45.0 -33.6 -45.5 Q-33.3 -45.65 -32.3 -47.4 -31.4 -43.5 -26.3 -43.5 -23.45 -43.5 -20.0 -47.0 -18.8 -48.2 -18.05 -49.25 L-16.95 -48.0 Q-13.5 -44.3 -10.2 -44.3 -7.55 -44.3 -5.95 -45.25 L-5.9 -44.5 Q-5.7 -40.5 -3.9 -38.8 L-2.1 -39.4 -1.9 -44.4 -2.3 -46.55 -3.05 -48.55 M12.9 -5.6 Q13.9 -7.4 6.6 -7.4 1.5 -7.4 0.4 -6.3 0.15 -4.9 0.5 -4.35 1.1 -3.5 6.6 -3.5 L11.7 -3.7 Q12.9 -4.05 12.9 -5.6 M16.8 -7.0 Q17.2 -6.4 16.9 -5.2 17.45 -4.3 22.7 -4.3 L27.45 -4.5 Q28.6 -4.85 28.6 -6.4 28.6 -8.2 22.7 -8.2 18.0 -8.2 16.8 -7.0 M-15.7 -93.1 L-20.4 -92.9 Q-25.3 -92.9 -26.2 -94.05 -26.7 -94.6 -26.2 -95.4 -26.2 -97.0 -26.0 -97.25 -25.75 -97.6 -24.3 -97.6 -14.5 -97.6 -14.5 -95.0 -14.5 -93.45 -15.7 -93.1 M-3.9 -83.5 Q-1.9 -81.6 -1.9 -76.9 L-2.1 -70.8 -3.9 -70.2 Q-5.9 -71.7 -5.9 -77.0 L-5.9 -79.85 Q-5.6 -82.45 -3.9 -83.5 M-18.35 -4.35 Q-17.85 -3.5 -12.5 -3.5 L-7.8 -3.7 Q-6.6 -4.05 -6.6 -5.6 -5.8 -7.4 -12.5 -7.4 -17.3 -7.4 -18.4 -6.3 -18.7 -4.9 -18.35 -4.35 M-4.7 -19.2 Q-6.6 -17.6 -6.6 -12.9 -6.6 -8.7 -4.7 -6.7 L-2.7 -7.6 -2.7 -17.6 Q-3.45 -18.7 -4.7 -19.2 M-23.1 -5.6 Q-23.1 -7.4 -28.2 -7.4 -32.2 -7.4 -33.3 -6.3 -33.5 -4.9 -33.2 -4.35 -32.6 -3.5 -28.2 -3.5 L-24.3 -3.7 Q-23.1 -4.1 -23.1 -5.6 M-1.9 -34.1 Q-2.65 -35.2 -3.9 -35.7 -5.9 -34.1 -5.9 -29.4 -5.9 -25.1 -3.9 -23.1 L-1.9 -24.1 -1.9 -34.1" fill="#b30000" fill-rule="evenodd" stroke="none"/>
      <path d="M10.4 -124.3 Q10.9 -124.1 10.9 -123.5 10.9 -122.4 8.95 -118.2 6.95 -113.95 6.4 -113.95 L0.8 -115.45 1.8 -113.7 Q3.1 -111.2 3.85 -108.65 3.85 -107.8 1.5 -105.65 -0.9 -103.4 -2.05 -103.4 L-3.1 -103.6 Q-3.15 -105.55 -4.45 -109.3 L-5.6 -112.75 Q-6.8 -102.6 -8.3 -102.6 -12.95 -102.6 -14.6 -105.15 -15.4 -106.35 -15.4 -107.95 -15.4 -111.2 -14.4 -113.25 -13.85 -114.35 -12.9 -115.35 L-13.7 -115.15 Q-19.2 -113.6 -19.9 -113.6 L-21.15 -113.8 Q-21.25 -116.15 -22.05 -120.7 -22.05 -122.9 -21.85 -123.45 -21.55 -124.5 -20.45 -125.45 -20.35 -125.9 -19.9 -126.05 L-19.55 -126.1 -19.5 -126.15 -19.4 -126.1 -18.35 -126.15 Q-14.25 -126.15 -10.1 -123.7 L-6.9 -121.35 -6.75 -121.4 -6.35 -121.35 Q-6.3 -122.15 -2.05 -123.6 1.95 -124.95 3.25 -124.95 L10.4 -124.3 M8.15 -122.5 L3.25 -122.8 Q2.35 -122.8 -0.9 -121.5 L-4.2 -120.35 -3.7 -119.65 -3.45 -118.7 -3.25 -118.65 -2.65 -118.7 6.1 -116.6 Q7.15 -118.3 8.15 -122.5 M1.85 -109.1 Q1.85 -110.0 -1.1 -113.5 L-3.65 -116.4 Q-3.95 -116.05 -4.4 -115.85 -3.55 -114.95 -2.75 -112.3 -1.7 -107.65 -1.25 -106.45 -0.45 -107.2 1.05 -107.7 1.85 -107.95 1.85 -109.1 M-18.85 -124.0 L-19.3 -123.0 Q-20.1 -121.2 -20.1 -120.65 -20.1 -119.25 -19.1 -116.15 -15.9 -117.25 -9.1 -118.6 -9.05 -119.5 -8.4 -120.3 -9.3 -120.45 -10.35 -121.25 L-12.45 -122.6 -18.35 -123.9 -18.85 -124.0 M-6.55 -119.05 Q-7.15 -119.05 -7.1 -118.85 L-7.15 -118.5 -6.65 -117.6 -6.1 -117.65 -5.5 -118.0 -6.15 -119.05 -6.55 -119.05 M-8.6 -116.55 Q-13.4 -110.4 -13.4 -108.1 -13.4 -107.25 -12.9 -106.95 -11.3 -106.25 -9.1 -104.95 L-8.15 -110.75 Q-7.6 -113.55 -7.55 -115.75 -8.25 -116.0 -8.6 -116.55" fill="#000000" fill-rule="evenodd" stroke="none"/>
      <path d="M-8.6 -116.55 Q-8.25 -116.0 -7.55 -115.75 -7.6 -113.55 -8.15 -110.75 L-9.1 -104.95 Q-11.3 -106.25 -12.9 -106.95 -13.4 -107.25 -13.4 -108.1 -13.4 -110.4 -8.6 -116.55 M-6.55 -119.05 L-6.15 -119.05 -5.5 -118.0 -6.1 -117.65 -6.65 -117.6 -7.15 -118.5 -7.1 -118.85 Q-7.15 -119.05 -6.55 -119.05 M-18.85 -124.0 L-18.35 -123.9 -12.45 -122.6 -10.35 -121.25 Q-9.3 -120.45 -8.4 -120.3 -9.05 -119.5 -9.1 -118.6 -15.9 -117.25 -19.1 -116.15 -20.1 -119.25 -20.1 -120.65 -20.1 -121.2 -19.3 -123.0 L-18.85 -124.0 M1.85 -109.1 Q1.85 -107.95 1.05 -107.7 -0.45 -107.2 -1.25 -106.45 -1.7 -107.65 -2.75 -112.3 -3.55 -114.95 -4.4 -115.85 -3.95 -116.05 -3.65 -116.4 L-1.1 -113.5 Q1.85 -110.0 1.85 -109.1 M8.15 -122.5 Q7.15 -118.3 6.1 -116.6 L-2.65 -118.7 -3.25 -118.65 -3.45 -118.7 -3.7 -119.65 -4.2 -120.35 -0.9 -121.5 Q2.35 -122.8 3.25 -122.8 L8.15 -122.5" fill="#b30000" fill-rule="evenodd" stroke="none"/>
    </g>
  </defs>
</svg>
