<?xml version="1.0" encoding="UTF-8" standalone="no"?>
<svg xmlns:xlink="http://www.w3.org/1999/xlink" height="342.0px" width="237.9px" xmlns="http://www.w3.org/2000/svg">
  <g transform="matrix(1, 0, 0, 1, 118.05, 273.9)">
    <use height="151.95" transform="matrix(1.0, 0.0, 0.0, 1.0, -60.75, -140.2)" width="112.35" xlink:href="#shape0"/>
  </g>
  <defs>
    <g id="shape0" transform="matrix(1, 0, 0, 1, 60.75, 140.2)">
      <path d="M23.9 -131.95 Q17.25 -130.2 10.85 -129.0 L16.65 -109.8 19.95 -98.6 20.6 -97.9 20.45 -96.85 Q25.95 -78.5 28.6 -71.25 31.4 -63.65 36.05 -54.15 L43.55 -39.05 Q51.6 -22.0 51.6 -8.65 51.6 -2.85 50.7 -0.45 49.2 3.6 44.15 6.0 32.15 11.75 -9.15 11.75 -43.85 11.75 -50.65 10.55 -52.85 10.2 -53.45 9.35 -54.15 8.4 -55.25 8.0 -60.75 6.0 -60.75 3.5 -60.75 -0.1 -57.7 -0.65 -57.05 -8.2 -45.75 -68.5 -36.15 -119.65 -32.05 -131.9 L-32.05 -138.6 Q-19.9 -134.55 -2.0 -134.55 8.75 -134.55 24.3 -139.1 L27.95 -140.2 27.95 -133.05 23.9 -131.95 M5.3 -127.15 L5.15 -128.1 Q-4.1 -126.8 -12.75 -126.8 L-23.2 -127.7 -20.5 -125.25 Q-15.8 -121.5 -6.9 -121.5 1.0 -121.5 3.6 -124.65 L5.3 -127.15 M5.25 -120.9 L4.5 -120.4 2.85 -115.9 Q4.65 -116.5 5.6 -117.4 6.35 -118.1 7.15 -119.65 L7.25 -119.8 6.65 -121.95 5.25 -120.9 M2.45 -119.25 Q-0.35 -117.9 -3.55 -117.45 L-4.45 -115.9 -5.2 -114.75 1.0 -115.4 Q1.15 -116.4 2.05 -118.4 L2.45 -119.25 M6.0 -113.1 Q0.65 -110.1 -8.3 -110.1 -18.95 -110.1 -25.5 -114.5 L-27.95 -116.35 Q-29.6 -106.8 -32.8 -90.15 L-32.75 -90.15 -39.0 -62.5 -40.45 -53.35 -31.05 -53.65 -10.1 -54.65 3.3 -56.1 6.75 -57.0 Q11.3 -57.95 17.25 -60.1 21.95 -61.85 25.55 -62.45 13.65 -98.4 8.65 -115.05 L6.0 -113.1 M2.0 -51.2 Q0.85 -49.0 0.55 -47.8 L3.15 -48.15 Q4.7 -48.3 8.95 -49.4 9.1 -50.45 10.0 -52.85 L10.75 -54.7 10.45 -54.65 3.0 -53.25 2.0 -51.2 M1.1 -52.95 L-6.05 -51.95 -7.15 -49.4 Q-8.05 -47.75 -8.85 -46.75 L-0.9 -47.65 -1.05 -48.25 Q-1.05 -49.05 0.5 -51.9 L1.1 -52.95 M19.2 -52.75 Q19.2 -54.2 20.15 -56.05 L20.7 -57.1 12.65 -55.1 Q11.75 -51.8 10.9 -49.95 L14.1 -50.85 19.3 -52.35 19.2 -52.75 M20.65 -52.75 L28.05 -54.95 26.6 -59.25 Q25.15 -58.5 22.65 -57.7 L21.45 -55.05 Q20.8 -53.7 20.65 -52.75 M28.75 -52.45 L26.45 -51.6 30.05 -48.9 28.85 -52.45 28.75 -52.45 M32.4 -41.8 L28.45 -45.4 23.75 -49.95 Q24.3 -47.65 23.15 -41.6 23.15 -40.6 26.65 -37.25 29.6 -34.35 30.95 -33.45 L32.6 -37.3 33.2 -39.4 32.4 -41.8 M35.25 -34.35 Q34.1 -32.1 33.6 -27.9 33.8 -27.3 32.3 -27.3 30.15 -27.3 25.0 -34.15 20.25 -40.45 20.25 -41.15 20.25 -43.05 20.85 -46.85 L21.5 -50.0 16.75 -48.75 7.6 -46.7 Q10.6 -44.5 16.7 -34.4 16.7 -32.1 15.6 -27.85 14.4 -23.3 14.25 -20.7 14.4 -20.25 12.9 -20.25 9.05 -20.25 1.4 -36.2 1.4 -38.05 3.6 -45.95 L-11.8 -43.85 Q-9.0 -40.9 -3.8 -32.45 -7.35 -20.9 -7.5 -17.9 L-7.65 -17.6 Q-7.95 -17.3 -8.85 -17.3 L-18.5 -31.95 Q-16.35 -40.4 -15.15 -43.55 L-25.45 -42.95 -34.45 -42.75 Q-26.15 -31.8 -26.15 -28.7 -26.15 -27.35 -29.0 -22.1 -31.95 -16.75 -32.0 -15.65 L-32.45 -15.3 -33.8 -15.0 Q-38.9 -15.0 -42.0 -30.9 -42.0 -32.45 -39.35 -37.6 -37.5 -41.2 -36.25 -42.75 L-42.0 -43.0 -42.8 -37.8 -42.8 -37.75 -43.65 -31.45 -43.7 -31.5 -43.7 -31.45 -44.35 -26.8 -45.25 -20.95 Q-48.15 -4.2 -50.95 1.65 L-50.9 1.65 -48.15 2.25 Q-36.05 4.0 20.3 4.0 30.75 2.15 35.6 -0.5 43.1 -4.55 44.0 -7.85 L44.0 -7.9 44.1 -8.75 Q44.1 -11.85 38.0 -27.7 L35.4 -34.4 35.35 -34.5 35.25 -34.35 M7.4 -30.95 Q10.25 -27.45 11.25 -26.85 L12.7 -30.4 Q13.8 -33.4 13.8 -34.25 13.8 -35.6 10.4 -39.2 7.35 -42.4 6.3 -42.9 L4.35 -35.85 Q4.35 -34.75 7.4 -30.95 M-24.2 -121.25 L-26.25 -119.25 -25.6 -118.55 Q-24.55 -117.45 -22.7 -116.7 L-20.9 -118.35 -20.0 -119.05 Q-22.25 -119.9 -24.0 -121.1 L-24.2 -121.25 M-27.25 -120.7 L-27.3 -120.25 -26.25 -121.4 -25.3 -122.3 -26.75 -124.0 -27.2 -121.0 -27.25 -120.7 M-7.1 -117.2 L-11.0 -117.3 Q-11.75 -116.3 -13.0 -115.2 L-13.4 -114.85 -9.75 -114.7 -7.35 -114.7 -6.0 -117.2 -7.1 -117.2 M-13.95 -117.35 L-13.7 -117.6 -13.9 -117.6 -17.6 -118.35 Q-18.7 -117.4 -20.7 -115.95 L-15.8 -115.05 -13.95 -117.35 M-25.1 -50.85 Q-25.1 -49.4 -30.0 -45.0 L-20.65 -45.6 Q-20.5 -46.65 -19.1 -48.95 L-17.7 -51.0 -23.85 -50.85 -25.1 -50.85 M-34.0 -50.95 Q-35.6 -48.95 -39.5 -45.0 L-39.3 -45.0 Q-36.15 -44.85 -31.65 -44.95 L-31.65 -45.0 Q-31.65 -45.6 -29.2 -48.6 L-27.15 -50.85 -34.0 -50.95 M-7.95 -51.75 L-16.05 -51.05 Q-16.1 -50.45 -17.35 -48.15 L-18.75 -45.75 -10.35 -46.6 -10.4 -46.9 Q-10.4 -47.65 -8.85 -50.3 L-7.95 -51.75 M-41.2 -45.15 L-35.85 -51.0 -40.75 -51.35 -41.7 -45.2 -41.2 -45.15 M-13.1 -39.75 L-13.2 -39.8 -13.2 -39.65 Q-15.0 -33.35 -15.0 -32.6 -15.0 -31.3 -12.4 -27.8 -9.65 -24.15 -9.5 -23.45 -7.2 -27.2 -7.2 -32.0 -7.2 -32.6 -9.45 -35.7 -11.8 -38.85 -13.1 -39.75 M-37.05 -25.0 Q-35.25 -21.0 -34.65 -20.1 -33.65 -20.6 -31.55 -24.4 -29.55 -28.05 -29.55 -28.95 -29.55 -30.55 -32.25 -34.0 -34.45 -36.85 -36.0 -38.15 -37.2 -37.0 -38.2 -34.7 -39.15 -32.45 -39.15 -30.95 -39.15 -29.6 -37.05 -25.0" fill="#000000" fill-rule="evenodd" stroke="none"/>
      <path d="M2.45 -119.25 L2.05 -118.4 Q1.15 -116.4 1.0 -115.4 L-5.2 -114.75 -4.45 -115.9 -3.55 -117.45 Q-0.35 -117.9 2.45 -119.25 M5.25 -120.9 L6.65 -121.95 7.25 -119.8 7.15 -119.65 Q6.35 -118.1 5.6 -117.4 4.65 -116.5 2.85 -115.9 L4.5 -120.4 5.25 -120.9 M20.65 -52.75 Q20.8 -53.7 21.45 -55.05 L22.65 -57.7 Q25.15 -58.5 26.6 -59.25 L28.05 -54.95 20.65 -52.75 M19.2 -52.75 L19.3 -52.35 14.1 -50.85 10.9 -49.95 Q11.75 -51.8 12.65 -55.1 L20.7 -57.1 20.15 -56.05 Q19.2 -54.2 19.2 -52.75 M1.1 -52.95 L0.5 -51.9 Q-1.05 -49.05 -1.05 -48.25 L-0.9 -47.65 -8.85 -46.75 Q-8.05 -47.75 -7.15 -49.4 L-6.05 -51.95 1.1 -52.95 M2.0 -51.2 L3.0 -53.25 10.45 -54.65 10.75 -54.7 10.0 -52.85 Q9.1 -50.45 8.95 -49.4 4.7 -48.3 3.15 -48.15 L0.55 -47.8 Q0.85 -49.0 2.0 -51.2 M-7.1 -117.2 L-6.0 -117.2 -7.35 -114.7 -9.75 -114.7 -13.4 -114.85 -13.0 -115.2 Q-11.75 -116.3 -11.0 -117.3 L-7.1 -117.2 M-27.25 -120.7 L-27.2 -121.0 -26.75 -124.0 -25.3 -122.3 -26.25 -121.4 -27.3 -120.25 -27.25 -120.7 M-24.2 -121.25 L-24.0 -121.1 Q-22.25 -119.9 -20.0 -119.05 L-20.9 -118.35 -22.7 -116.7 Q-24.55 -117.45 -25.6 -118.55 L-26.25 -119.25 -24.2 -121.25 M-13.9 -117.6 L-13.95 -117.35 -15.8 -115.05 -20.7 -115.95 Q-18.7 -117.4 -17.6 -118.35 L-13.9 -117.6 M-7.95 -51.75 L-8.85 -50.3 Q-10.4 -47.65 -10.4 -46.9 L-10.35 -46.6 -18.75 -45.75 -17.35 -48.15 Q-16.1 -50.45 -16.05 -51.05 L-7.95 -51.75 M-34.0 -50.95 L-27.15 -50.85 -29.2 -48.6 Q-31.65 -45.6 -31.65 -45.0 L-31.65 -44.95 Q-36.15 -44.85 -39.3 -45.0 L-39.5 -45.0 Q-35.6 -48.95 -34.0 -50.95 M-25.1 -50.85 L-23.85 -50.85 -17.7 -51.0 -19.1 -48.95 Q-20.5 -46.65 -20.65 -45.6 L-30.0 -45.0 Q-25.1 -49.4 -25.1 -50.85 M-41.2 -45.15 L-41.7 -45.2 -40.75 -51.35 -35.85 -51.0 -41.2 -45.15" fill="#f3e3a5" fill-rule="evenodd" stroke="none"/>
      <path d="M32.4 -41.8 L33.2 -39.4 32.6 -37.3 30.95 -33.45 Q29.6 -34.35 26.65 -37.25 23.15 -40.6 23.15 -41.6 24.3 -47.65 23.75 -49.95 L28.45 -45.4 32.4 -41.8 M7.4 -30.95 Q4.35 -34.75 4.35 -35.85 L6.3 -42.9 Q7.35 -42.4 10.4 -39.2 13.8 -35.6 13.8 -34.25 13.8 -33.4 12.7 -30.4 L11.25 -26.85 Q10.25 -27.45 7.4 -30.95 M-13.2 -39.65 L-13.1 -39.75 Q-11.8 -38.85 -9.45 -35.7 -7.2 -32.6 -7.2 -32.0 -7.2 -27.2 -9.5 -23.45 -9.65 -24.15 -12.4 -27.8 -15.0 -31.3 -15.0 -32.6 -15.0 -33.35 -13.2 -39.65 M-37.05 -25.0 Q-39.15 -29.6 -39.15 -30.95 -39.15 -32.45 -38.2 -34.7 -37.2 -37.0 -36.0 -38.15 -34.45 -36.85 -32.25 -34.0 -29.55 -30.55 -29.55 -28.95 -29.55 -28.05 -31.55 -24.4 -33.65 -20.6 -34.65 -20.1 -35.25 -21.0 -37.05 -25.0" fill="#ffffff" fill-rule="evenodd" stroke="none"/>
      <path d="M5.3 -127.15 L3.6 -124.65 Q1.0 -121.5 -6.9 -121.5 -15.8 -121.5 -20.5 -125.25 L-23.2 -127.7 -12.75 -126.8 Q-4.1 -126.8 5.15 -128.1 L5.3 -127.15 M6.0 -113.1 L8.65 -115.05 Q13.65 -98.4 25.55 -62.45 21.95 -61.85 17.25 -60.1 11.3 -57.95 6.75 -57.0 L3.3 -56.1 -10.1 -54.65 -31.05 -53.65 -40.45 -53.35 -39.0 -62.5 -32.75 -90.15 -32.8 -90.15 Q-29.6 -106.8 -27.95 -116.35 L-25.5 -114.5 Q-18.95 -110.1 -8.3 -110.1 0.65 -110.1 6.0 -113.1" fill="#dd0000" fill-rule="evenodd" stroke="none"/>
      <path d="M28.75 -52.45 L28.85 -52.45 30.05 -48.9 26.45 -51.6 28.75 -52.45 M-43.65 -31.45 L-42.8 -37.75 -42.8 -37.8 -42.0 -43.0 -36.25 -42.75 Q-37.5 -41.2 -39.35 -37.6 -42.0 -32.45 -42.0 -30.9 -38.9 -15.0 -33.8 -15.0 L-32.45 -15.3 -32.0 -15.65 Q-31.95 -16.75 -29.0 -22.1 -26.15 -27.35 -26.15 -28.7 -26.15 -31.8 -34.45 -42.75 L-25.45 -42.95 -15.15 -43.55 Q-16.35 -40.4 -18.5 -31.95 L-8.85 -17.3 Q-7.95 -17.3 -7.65 -17.6 L-7.5 -17.9 Q-7.35 -20.9 -3.8 -32.45 -9.0 -40.9 -11.8 -43.85 L3.6 -45.95 Q1.4 -38.05 1.4 -36.2 9.05 -20.25 12.9 -20.25 14.4 -20.25 14.25 -20.7 14.4 -23.3 15.6 -27.85 16.7 -32.1 16.7 -34.4 10.6 -44.5 7.6 -46.7 L16.75 -48.75 21.5 -50.0 20.85 -46.85 Q20.25 -43.05 20.25 -41.15 20.25 -40.45 25.0 -34.15 30.15 -27.3 32.3 -27.3 33.8 -27.3 33.6 -27.9 34.1 -32.1 35.25 -34.35 L35.4 -34.4 38.0 -27.7 Q44.1 -11.85 44.1 -8.75 L44.0 -7.9 44.0 -7.85 Q43.1 -4.55 35.6 -0.5 30.75 2.15 20.3 4.0 -36.05 4.0 -48.15 2.25 L-50.9 1.65 -50.95 1.65 Q-48.15 -4.2 -45.25 -20.95 L-44.35 -26.8 -43.7 -31.45 -43.65 -31.45" fill="#333333" fill-rule="evenodd" stroke="none"/>
      <path d="M7.4 -112.65 Q7.4 -111.1 3.7 -109.55 L3.6 -109.6 Q2.85 -107.7 1.15 -106.15 -0.55 -104.65 -2.6 -104.0 L-2.6 -103.95 Q-2.6 -103.25 -3.45 -101.95 -4.15 -100.95 -4.7 -100.65 L-4.8 -100.45 -5.4 -100.3 Q-6.9 -100.3 -8.35 -103.6 -11.3 -104.15 -13.55 -106.15 -15.3 -107.7 -16.05 -109.6 L-16.2 -109.55 Q-16.9 -109.55 -18.2 -110.45 -19.25 -111.15 -19.5 -111.7 L-19.75 -111.8 -19.9 -112.4 Q-19.9 -113.9 -16.2 -115.45 L-16.1 -115.45 Q-15.4 -117.5 -13.55 -119.15 -11.5 -121.0 -8.8 -121.55 -8.75 -122.25 -7.95 -123.4 -7.3 -124.45 -6.7 -124.7 L-6.6 -124.95 -6.0 -125.1 Q-4.5 -125.1 -2.95 -121.4 -0.7 -120.75 1.15 -119.15 2.95 -117.5 3.7 -115.45 4.4 -115.45 5.7 -114.6 L7.0 -113.3 7.25 -113.25 7.4 -112.65 M-6.05 -105.5 Q-2.65 -105.55 -0.25 -107.55 2.2 -109.6 2.2 -112.55 2.2 -114.15 1.45 -115.5 L0.7 -116.55 -0.25 -117.5 -1.75 -118.55 -3.25 -119.15 -5.7 -119.55 -6.2 -119.6 -7.55 -119.5 Q-10.2 -119.15 -12.15 -117.5 -14.65 -115.45 -14.65 -112.55 L-14.65 -112.25 -14.5 -111.3 -14.25 -110.4 -13.55 -109.0 -12.15 -107.55 -12.1 -107.5 -10.65 -106.5 -8.15 -105.65 -6.2 -105.5 -6.05 -105.5" fill="#000000" fill-rule="evenodd" stroke="none"/>
      <path d="M1.45 -115.5 Q2.2 -114.15 2.2 -112.55 2.2 -109.6 -0.25 -107.55 -2.65 -105.55 -6.05 -105.5 -3.75 -108.0 1.45 -115.5 M-12.1 -107.5 L-12.15 -107.55 -13.55 -109.0 Q-6.7 -117.6 -5.7 -119.55 L-3.25 -119.15 Q-5.3 -117.0 -8.55 -112.55 L-12.1 -107.5 M-14.25 -110.4 L-14.5 -111.3 -14.65 -112.25 -14.65 -112.55 Q-14.65 -115.45 -12.15 -117.5 -10.2 -119.15 -7.55 -119.5 L-11.15 -114.95 -14.25 -110.4" fill="#ddffff" fill-rule="evenodd" stroke="none"/>
      <path d="M-6.05 -105.5 L-6.2 -105.5 -8.15 -105.65 -10.65 -106.5 -12.1 -107.5 -8.55 -112.55 Q-5.3 -117.0 -3.25 -119.15 L-1.75 -118.55 -0.25 -117.5 0.7 -116.55 1.45 -115.5 Q-3.75 -108.0 -6.05 -105.5 M-13.55 -109.0 L-14.25 -110.4 -11.15 -114.95 -7.55 -119.5 -6.2 -119.6 -5.7 -119.55 Q-6.7 -117.6 -13.55 -109.0" fill="#ffffff" fill-rule="evenodd" stroke="none"/>
    </g>
  </defs>
</svg>
