<?xml version="1.0" encoding="UTF-8" standalone="no"?>
<svg xmlns:xlink="http://www.w3.org/1999/xlink" height="342.0px" width="237.9px" xmlns="http://www.w3.org/2000/svg">
  <g transform="matrix(1, 0, 0, 1, 118.05, 273.9)">
    <use height="151.95" transform="matrix(1.0, 0.0, 0.0, 1.0, -60.75, -140.2)" width="112.8" xlink:href="#shape0"/>
  </g>
  <defs>
    <g id="shape0" transform="matrix(1, 0, 0, 1, 60.75, 140.2)">
      <path d="M27.95 -140.2 L27.95 -133.05 23.9 -131.95 17.45 -130.35 Q24.3 -122.45 43.9 -93.3 43.9 -92.3 40.65 -89.3 37.15 -86.1 32.4 -83.0 29.05 -80.8 25.95 -79.15 L28.6 -71.25 Q31.4 -63.65 36.05 -54.15 L43.55 -39.05 Q49.85 -25.75 51.2 -14.7 L52.05 -13.8 51.4 -13.1 51.6 -8.65 Q51.6 -2.85 50.7 -0.45 49.2 3.6 44.15 6.0 32.15 11.75 -9.15 11.75 -43.85 11.75 -50.65 10.55 -52.85 10.2 -53.45 9.35 -54.15 8.4 -55.25 8.0 -60.75 6.0 -60.75 3.5 -60.75 -0.1 -57.7 -0.65 -57.05 -8.2 -45.75 -68.5 L-43.2 -81.8 -42.0 -81.8 Q-44.95 -83.7 -47.7 -86.1 -52.15 -89.95 -55.45 -94.35 -58.05 -97.9 -58.05 -98.8 L-32.05 -132.75 -32.05 -138.6 Q-19.9 -134.55 -2.0 -134.55 8.75 -134.55 24.3 -139.1 L27.95 -140.2 M14.55 -116.0 Q9.65 -109.7 5.4 -109.4 8.2 -105.35 8.2 -104.1 8.2 -102.9 4.95 -101.1 L2.95 -100.1 6.3 -97.0 Q11.5 -91.8 12.95 -87.45 L31.3 -98.3 Q21.55 -111.05 16.4 -118.5 L14.55 -116.0 M13.7 -122.5 L11.55 -126.1 Q10.35 -123.8 6.6 -120.0 3.45 -116.8 0.95 -115.3 L3.25 -112.4 5.35 -113.7 Q9.5 -116.2 11.9 -119.0 12.75 -120.0 13.7 -122.5 M8.4 -128.2 L-12.75 -126.8 -21.05 -127.7 -18.35 -125.25 Q-10.6 -118.4 -2.9 -118.4 1.5 -118.4 4.7 -123.2 6.9 -126.55 8.4 -128.2 M-45.9 -103.95 L-46.65 -103.1 Q-49.6 -99.75 -49.6 -98.8 -49.6 -93.0 -29.6 -85.5 L-29.4 -85.4 -29.3 -85.4 -23.8 -83.4 -21.65 -82.65 -16.05 -80.7 -15.9 -80.95 -15.85 -81.05 -15.75 -81.2 -14.3 -83.55 -13.75 -84.3 Q-10.65 -88.55 -4.15 -95.7 L-3.9 -95.7 5.4 -85.65 6.5 -84.4 6.45 -84.4 7.2 -83.5 9.2 -81.15 9.3 -81.15 9.35 -81.15 9.4 -81.1 9.45 -81.1 9.7 -81.1 14.4 -82.05 15.6 -82.5 Q18.4 -83.5 22.35 -85.25 32.9 -90.0 34.75 -93.8 L32.9 -96.25 Q30.2 -93.8 23.95 -90.0 15.65 -84.95 13.8 -84.95 L12.0 -85.2 11.75 -85.5 11.7 -85.5 10.95 -86.3 10.85 -86.45 -0.9 -99.2 -1.2 -99.2 -2.25 -99.3 Q-3.2 -99.5 -4.05 -100.05 L-16.3 -87.9 -16.5 -87.3 Q-16.95 -86.85 -17.55 -86.75 L-17.6 -86.7 -17.65 -86.7 -17.9 -86.7 -19.15 -86.75 -19.85 -86.85 Q-26.25 -87.8 -35.7 -94.8 -44.2 -101.15 -45.4 -103.6 L-45.6 -104.25 -45.9 -103.95 M8.4 -74.55 Q6.25 -74.55 3.45 -76.95 4.7 -70.2 5.2 -62.9 L5.85 -41.85 6.1 -30.3 6.45 -30.3 20.25 -19.35 Q21.4 -19.35 27.85 -25.0 33.5 -29.9 36.4 -31.75 L34.15 -37.45 33.95 -37.15 Q26.35 -59.9 21.65 -77.1 15.45 -74.55 10.3 -74.55 L8.95 -74.6 8.4 -74.55 M37.65 -28.6 L30.8 -22.95 Q22.05 -16.2 20.25 -16.2 17.85 -16.2 6.15 -26.1 L6.15 -25.3 6.2 -23.1 6.25 -22.3 Q9.2 -19.7 12.45 -17.0 19.4 -11.4 21.6 -11.4 23.1 -11.4 32.5 -18.45 36.95 -21.8 39.6 -23.55 L38.0 -27.7 37.65 -28.6 M5.3 -19.35 Q2.8 -17.0 -6.6 -11.3 -19.1 -3.8 -21.75 -3.8 -26.0 -3.8 -37.65 -11.45 -43.05 -15.0 -45.9 -17.35 -47.1 -11.0 -48.25 -6.5 -45.75 -5.5 -43.95 -5.05 -34.6 -2.75 -10.95 -2.75 15.55 -2.75 34.85 -8.85 L43.5 -12.05 40.8 -20.25 Q37.15 -17.1 31.55 -13.45 23.2 -7.95 21.95 -7.95 17.7 -7.95 10.95 -13.55 6.85 -16.95 5.3 -19.35 M3.35 -32.8 Q3.3 -41.5 2.6 -52.35 2.45 -59.9 -0.1 -80.65 -2.2 -83.25 -2.95 -85.6 L-4.55 -84.3 Q-3.05 -79.9 -2.6 -69.0 L-2.6 -50.45 Q-2.6 -34.85 -2.95 -21.55 -5.6 -19.8 -11.7 -16.9 -22.0 -12.05 -23.25 -12.05 -26.45 -12.05 -44.6 -25.2 L-45.2 -21.35 Q-43.0 -19.2 -34.8 -12.85 -26.65 -6.55 -22.2 -6.8 -17.8 -7.05 -10.15 -12.05 -2.55 -17.05 3.3 -21.3 L3.35 -32.8 M44.1 -8.75 L44.1 -8.9 Q39.8 -7.1 33.45 -5.3 14.0 0.3 -10.95 0.3 -30.0 0.3 -42.8 -2.15 L-49.05 -3.55 Q-50.0 -0.35 -50.95 1.65 L-50.9 1.65 -48.15 2.25 Q-36.05 4.0 20.3 4.0 30.75 2.15 35.6 -0.5 43.1 -4.55 44.0 -7.85 L44.0 -7.9 44.1 -8.75 M-28.7 -127.6 L-23.0 -121.05 Q-20.05 -117.75 -15.65 -114.75 L-13.25 -117.05 Q-20.1 -120.65 -28.15 -128.5 L-28.7 -127.6 M-25.5 -104.0 L-19.15 -111.1 Q-24.9 -113.75 -30.9 -124.15 L-36.8 -114.95 Q-39.15 -111.35 -43.95 -106.0 L-38.7 -101.7 -31.85 -95.7 Q-27.05 -90.95 -20.95 -89.7 L-18.35 -89.25 Q-11.0 -98.7 -6.05 -102.05 L-6.4 -102.6 -7.55 -104.9 Q-11.15 -97.6 -12.6 -97.6 -19.7 -97.6 -23.3 -100.7 -25.1 -102.3 -25.5 -104.0 M-15.7 -109.35 Q-19.1 -105.85 -20.4 -103.9 -20.1 -103.45 -17.85 -102.85 L-14.1 -102.3 Q-12.9 -102.3 -10.4 -108.75 -8.9 -112.6 -7.55 -114.75 L-9.65 -115.45 -15.65 -109.45 -16.9 -108.25 -15.7 -109.35 M-3.55 -114.1 L-4.75 -110.8 -3.5 -108.35 -1.2 -103.3 2.3 -104.1 -0.8 -109.3 Q-2.55 -112.35 -3.15 -114.1 L-3.55 -114.1 M-43.7 -31.45 L-44.25 -27.75 -32.45 -19.6 Q-25.15 -14.3 -22.8 -14.85 -20.45 -15.4 -14.15 -18.7 L-5.6 -23.15 Q-5.5 -26.15 -5.55 -31.4 L-5.55 -54.3 -5.55 -70.1 Q-5.55 -73.45 -7.05 -78.25 L-7.75 -80.65 -11.6 -75.6 -12.15 -74.85 -12.45 -74.8 Q-12.8 -74.55 -13.05 -74.55 L-14.2 -74.65 -17.8 -74.55 Q-27.15 -74.55 -35.45 -78.25 L-39.0 -62.5 -42.8 -37.8 -42.8 -37.75 -43.65 -31.45 -43.7 -31.5 -43.7 -31.45" fill="#000000" fill-rule="evenodd" stroke="none"/>
      <path d="M10.95 -86.3 L11.7 -85.5 11.75 -85.5 12.0 -85.2 13.8 -84.95 Q15.65 -84.95 23.95 -90.0 30.2 -93.8 32.9 -96.25 L34.75 -93.8 Q32.9 -90.0 22.35 -85.25 18.4 -83.5 15.6 -82.5 L14.4 -82.05 9.7 -81.1 9.45 -81.1 9.4 -81.1 9.35 -81.15 9.3 -81.15 9.2 -81.15 7.2 -83.5 6.45 -84.4 6.5 -84.4 5.4 -85.65 -3.9 -95.7 -4.15 -95.7 Q-10.65 -88.55 -13.75 -84.3 L-14.3 -83.55 -15.75 -81.2 -15.85 -81.05 -15.9 -80.95 -16.05 -80.7 -21.65 -82.65 -23.8 -83.4 -29.3 -85.4 -29.4 -85.4 -29.6 -85.5 Q-49.6 -93.0 -49.6 -98.8 -49.6 -99.75 -46.65 -103.1 L-45.9 -103.95 -45.4 -103.6 Q-44.2 -101.15 -35.7 -94.8 -26.25 -87.8 -19.85 -86.85 L-19.3 -86.6 -19.15 -86.75 -17.9 -86.7 -17.65 -86.7 -17.6 -86.7 -17.55 -86.75 Q-16.95 -86.85 -16.5 -87.3 L-16.3 -87.9 -4.05 -100.05 Q-3.2 -99.5 -2.25 -99.3 L-1.2 -99.2 -0.9 -99.2 10.85 -86.45 10.35 -86.05 10.95 -86.3 M37.65 -28.6 L38.0 -27.7 39.6 -23.55 Q36.95 -21.8 32.5 -18.45 23.1 -11.4 21.6 -11.4 19.4 -11.4 12.45 -17.0 9.2 -19.7 6.25 -22.3 L6.2 -23.1 6.15 -25.3 6.15 -26.1 Q17.85 -16.2 20.25 -16.2 22.05 -16.2 30.8 -22.95 L37.65 -28.6 M44.1 -8.75 L44.0 -7.9 44.0 -7.85 Q43.1 -4.55 35.6 -0.5 30.75 2.15 20.3 4.0 -36.05 4.0 -48.15 2.25 L-50.9 1.65 -50.95 1.65 Q-50.0 -0.35 -49.05 -3.55 L-42.8 -2.15 Q-30.0 0.3 -10.95 0.3 14.0 0.3 33.45 -5.3 39.8 -7.1 44.1 -8.9 L44.1 -8.75 M3.35 -32.8 L3.3 -21.3 Q-2.55 -17.05 -10.15 -12.05 -17.8 -7.05 -22.2 -6.8 -26.65 -6.55 -34.8 -12.85 -43.0 -19.2 -45.2 -21.35 L-44.6 -25.2 Q-26.45 -12.05 -23.25 -12.05 -22.0 -12.05 -11.7 -16.9 -5.6 -19.8 -2.95 -21.55 -2.6 -34.85 -2.6 -50.45 L-2.6 -69.0 Q-3.05 -79.9 -4.55 -84.3 L-2.95 -85.6 Q-2.2 -83.25 -0.1 -80.65 2.45 -59.9 2.6 -52.35 3.3 -41.5 3.35 -32.8" fill="#ffffff" fill-rule="evenodd" stroke="none"/>
      <path d="M-19.15 -86.75 L-19.3 -86.6 -19.85 -86.85 -19.15 -86.75 M-45.4 -103.6 L-45.9 -103.95 -45.6 -104.25 -45.4 -103.6 M-43.65 -31.45 L-43.7 -31.45 -43.7 -31.5 -43.65 -31.45" fill="#fd2d2d" fill-rule="evenodd" stroke="none"/>
      <path d="M13.7 -122.5 Q12.75 -120.0 11.9 -119.0 9.5 -116.2 5.35 -113.7 L3.25 -112.4 0.95 -115.3 Q3.45 -116.8 6.6 -120.0 10.35 -123.8 11.55 -126.1 L13.7 -122.5 M-28.7 -127.6 L-28.15 -128.5 Q-20.1 -120.65 -13.25 -117.05 L-15.65 -114.75 Q-20.05 -117.75 -23.0 -121.05 L-28.7 -127.6 M-15.65 -109.45 L-9.65 -115.45 -7.55 -114.75 Q-8.9 -112.6 -10.4 -108.75 -12.9 -102.3 -14.1 -102.3 L-17.85 -102.85 Q-20.1 -103.45 -20.4 -103.9 -19.1 -105.85 -15.7 -109.35 L-15.65 -109.45 M-3.55 -114.1 L-3.15 -114.1 Q-2.55 -112.35 -0.8 -109.3 L2.3 -104.1 -1.2 -103.3 -3.5 -108.35 -4.75 -110.8 -3.55 -114.1" fill="#a52323" fill-rule="evenodd" stroke="none"/>
      <path d="M14.55 -116.0 L16.4 -118.5 Q21.55 -111.05 31.3 -98.3 L12.95 -87.45 Q11.5 -91.8 6.3 -97.0 L2.95 -100.1 4.95 -101.1 Q8.2 -102.9 8.2 -104.1 8.2 -105.35 5.4 -109.4 9.65 -109.7 14.55 -116.0 M8.4 -74.55 L8.95 -74.6 10.3 -74.55 Q15.45 -74.55 21.65 -77.1 26.35 -59.9 33.95 -37.15 L34.15 -37.45 36.4 -31.75 Q33.5 -29.9 27.85 -25.0 21.4 -19.35 20.25 -19.35 L6.45 -30.3 6.1 -30.3 5.85 -41.85 5.2 -62.9 Q4.7 -70.2 3.45 -76.95 6.25 -74.55 8.4 -74.55 M5.3 -19.35 Q6.85 -16.95 10.95 -13.55 17.7 -7.95 21.95 -7.95 23.2 -7.95 31.55 -13.45 37.15 -17.1 40.8 -20.25 L43.5 -12.05 34.85 -8.85 Q15.55 -2.75 -10.95 -2.75 -34.6 -2.75 -43.95 -5.05 -45.75 -5.5 -48.25 -6.5 -47.1 -11.0 -45.9 -17.35 -43.05 -15.0 -37.65 -11.45 -26.0 -3.8 -21.75 -3.8 -19.1 -3.8 -6.6 -11.3 2.8 -17.0 5.3 -19.35 M-25.5 -104.0 Q-25.1 -102.3 -23.3 -100.7 -19.7 -97.6 -12.6 -97.6 -11.15 -97.6 -7.55 -104.9 L-6.4 -102.6 -6.05 -102.05 Q-11.0 -98.7 -18.35 -89.25 L-20.95 -89.7 Q-27.05 -90.95 -31.85 -95.7 L-38.7 -101.7 -43.95 -106.0 Q-39.15 -111.35 -36.8 -114.95 L-30.9 -124.15 Q-24.9 -113.75 -19.15 -111.1 L-25.5 -104.0 M-43.65 -31.45 L-42.8 -37.75 -42.8 -37.8 -39.0 -62.5 -35.45 -78.25 Q-27.15 -74.55 -17.8 -74.55 L-14.2 -74.65 -13.05 -74.55 Q-12.8 -74.55 -12.45 -74.8 L-12.15 -74.85 -11.6 -75.6 -7.75 -80.65 -7.05 -78.25 Q-5.55 -73.45 -5.55 -70.1 L-5.55 -54.3 -5.55 -31.4 Q-5.5 -26.15 -5.6 -23.15 L-14.15 -18.7 Q-20.45 -15.4 -22.8 -14.85 -25.15 -14.3 -32.45 -19.6 L-44.25 -27.75 -43.7 -31.45 -43.65 -31.45" fill="#fc5858" fill-rule="evenodd" stroke="none"/>
      <path d="M8.4 -128.2 Q6.9 -126.55 4.7 -123.2 1.5 -118.4 -2.9 -118.4 -10.6 -118.4 -18.35 -125.25 L-21.05 -127.7 -12.75 -126.8 8.4 -128.2" fill="#fff1dd" fill-rule="evenodd" stroke="none"/>
    </g>
  </defs>
</svg>
