<?xml version="1.0" encoding="UTF-8" standalone="no"?>
<svg xmlns:xlink="http://www.w3.org/1999/xlink" height="342.0px" width="237.9px" xmlns="http://www.w3.org/2000/svg">
  <g transform="matrix(1, 0, 0, 1, 118.05, 273.9)">
    <use height="151.95" transform="matrix(1.0, 0.0, 0.0, 1.0, -60.75, -140.2)" width="112.35" xlink:href="#shape0"/>
  </g>
  <defs>
    <g id="shape0" transform="matrix(1, 0, 0, 1, 60.75, 140.2)">
      <path d="M23.9 -131.95 Q17.25 -130.2 10.85 -129.0 L16.65 -109.8 21.3 -93.85 21.25 -94.25 Q26.15 -77.95 28.6 -71.25 31.4 -63.65 36.05 -54.15 L43.55 -39.05 Q51.6 -22.0 51.6 -8.65 51.6 -2.85 50.7 -0.45 49.2 3.6 44.15 6.0 32.15 11.75 -9.15 11.75 -43.85 11.75 -50.65 10.55 -52.85 10.2 -53.45 9.35 -54.15 8.4 -55.25 8.0 -60.75 6.0 -60.75 3.5 -60.75 -0.1 -57.7 -0.65 -57.4 -3.95 -53.7 -28.75 -44.7 -75.65 -44.5 -75.05 -35.9 -120.45 -32.05 -131.9 L-32.05 -138.6 Q-19.9 -134.55 -2.0 -134.55 8.75 -134.55 24.3 -139.1 L27.95 -140.2 27.95 -133.05 23.9 -131.95 M2.75 -108.75 Q0.95 -108.75 -0.7 -108.15 -2.3 -107.6 -2.5 -107.0 3.45 -99.9 5.75 -96.5 L6.25 -96.5 6.25 -109.0 2.75 -108.75 M8.0 -116.4 L6.6 -121.35 3.75 -118.5 1.5 -116.55 5.5 -116.75 8.0 -116.4 M13.7 -89.25 Q12.95 -82.25 9.0 -82.25 7.1 -82.25 -3.0 -95.55 L-5.2 -98.45 Q-4.75 -92.55 -5.25 -82.85 -4.7 -71.6 -5.4 -65.45 -5.0 -64.25 -5.25 -62.35 L-5.45 -60.2 8.0 -60.25 18.0 -60.75 26.1 -60.35 Q18.55 -82.7 13.75 -97.7 L13.7 -89.25 M25.95 -53.75 Q13.65 -52.9 -40.3 -54.15 L-41.15 -48.85 Q-32.55 -49.75 -5.0 -49.75 L29.25 -51.1 28.25 -53.95 25.95 -53.75 M44.0 -7.9 L44.1 -8.75 Q44.1 -11.85 38.0 -27.7 L34.15 -37.45 33.95 -37.15 32.1 -42.7 Q25.65 -42.4 -41.0 -41.25 L-42.25 -41.35 -42.8 -37.8 -42.8 -37.75 -43.65 -31.45 -43.7 -31.5 -44.35 -26.8 -45.25 -20.95 Q-48.15 -4.2 -50.95 1.65 L-50.9 1.65 -48.15 2.25 Q-36.05 4.0 20.3 4.0 30.75 2.15 35.6 -0.5 43.1 -4.55 44.0 -7.85 L44.0 -7.9 M-16.3 -126.9 Q-9.95 -120.25 -8.75 -120.25 -6.35 -120.25 -1.15 -126.0 L0.25 -127.5 -12.75 -126.8 -16.3 -126.9 M-26.3 -110.8 Q-26.6 -113.1 -25.7 -114.5 -24.2 -116.9 -18.85 -117.9 -22.3 -121.45 -26.35 -127.2 -26.95 -120.4 -33.0 -90.15 L-32.75 -90.2 -39.0 -62.5 -39.65 -58.35 Q-32.3 -59.65 -12.95 -60.05 -13.05 -61.0 -12.75 -62.25 L-12.5 -64.75 Q-13.35 -70.85 -12.75 -82.75 L-12.75 -96.3 Q-18.15 -86.25 -19.0 -86.25 -22.95 -86.25 -24.75 -96.65 -25.65 -101.9 -25.75 -107.35 -25.75 -108.3 -26.3 -110.8 M-14.5 -109.5 L-14.25 -110.0 -14.5 -110.0 -18.25 -109.75 -18.25 -102.5 Q-17.35 -103.35 -14.5 -109.5" fill="#000000" fill-rule="evenodd" stroke="none"/>
      <path d="M44.0 -7.85 L44.0 -7.9 44.0 -7.85 M-42.7 -28.2 L-42.3 -30.45 -42.7 -28.2" fill="#ffffff" fill-rule="evenodd" stroke="none"/>
      <path d="M-43.65 -31.45 L-44.35 -26.8 -43.7 -31.5 -43.65 -31.45" fill="#90a446" fill-rule="evenodd" stroke="none"/>
      <path d="M2.75 -108.75 L6.25 -109.0 6.25 -96.5 5.75 -96.5 Q3.45 -99.9 -2.5 -107.0 -2.3 -107.6 -0.7 -108.15 0.95 -108.75 2.75 -108.75 M-14.5 -109.5 Q-17.35 -103.35 -18.25 -102.5 L-18.25 -109.75 -14.5 -110.0 -14.5 -109.5" fill="#ffff91" fill-rule="evenodd" stroke="none"/>
      <path d="M25.95 -53.75 L28.25 -53.95 29.25 -51.1 -5.0 -49.75 Q-32.55 -49.75 -41.15 -48.85 L-40.3 -54.15 Q13.65 -52.9 25.95 -53.75" fill="#ffaaaa" fill-rule="evenodd" stroke="none"/>
      <path d="M13.7 -89.25 L13.75 -97.7 Q18.55 -82.7 26.1 -60.35 L18.0 -60.75 8.0 -60.25 -5.45 -60.2 -5.25 -62.35 Q-5.0 -64.25 -5.4 -65.45 -4.7 -71.6 -5.25 -82.85 -4.75 -92.55 -5.2 -98.45 L-3.0 -95.55 Q7.1 -82.25 9.0 -82.25 12.95 -82.25 13.7 -89.25 M8.0 -116.4 L5.5 -116.75 1.5 -116.55 3.75 -118.5 6.6 -121.35 8.0 -116.4 M-43.65 -31.45 L-42.8 -37.75 -42.8 -37.8 -42.25 -41.35 -41.0 -41.25 Q25.65 -42.4 32.1 -42.7 L33.95 -37.15 34.15 -37.45 38.0 -27.7 Q44.1 -11.85 44.1 -8.75 L44.0 -7.9 44.0 -7.85 Q43.1 -4.55 35.6 -0.5 30.75 2.15 20.3 4.0 -36.05 4.0 -48.15 2.25 L-50.9 1.65 -50.95 1.65 Q-48.15 -4.2 -45.25 -20.95 L-44.35 -26.8 -43.65 -31.45 M-26.3 -110.8 Q-25.75 -108.3 -25.75 -107.35 -25.65 -101.9 -24.75 -96.65 -22.95 -86.25 -19.0 -86.25 -18.15 -86.25 -12.75 -96.3 L-12.75 -82.75 Q-13.35 -70.85 -12.5 -64.75 L-12.75 -62.25 Q-13.05 -61.0 -12.95 -60.05 -32.3 -59.65 -39.65 -58.35 L-39.0 -62.5 -32.75 -90.2 -33.0 -90.15 Q-26.95 -120.4 -26.35 -127.2 -22.3 -121.45 -18.85 -117.9 -24.2 -116.9 -25.7 -114.5 -26.6 -113.1 -26.3 -110.8 M-42.7 -28.2 L-42.3 -30.45 -42.7 -28.2" fill="#ff3c3c" fill-rule="evenodd" stroke="none"/>
      <path d="M-16.3 -126.9 L-12.75 -126.8 0.25 -127.5 -1.15 -126.0 Q-6.35 -120.25 -8.75 -120.25 -9.95 -120.25 -16.3 -126.9" fill="#fff1dd" fill-rule="evenodd" stroke="none"/>
    </g>
  </defs>
</svg>
