<?xml version="1.0" encoding="UTF-8" standalone="no"?>
<svg xmlns:xlink="http://www.w3.org/1999/xlink" height="342.0px" width="237.9px" xmlns="http://www.w3.org/2000/svg">
  <g transform="matrix(1, 0, 0, 1, 118.05, 273.9)">
    <use height="151.95" transform="matrix(1.0, 0.0, 0.0, 1.0, -60.75, -140.2)" width="112.35" xlink:href="#shape0"/>
  </g>
  <defs>
    <g id="shape0" transform="matrix(1, 0, 0, 1, 60.75, 140.2)">
      <path d="M23.9 -131.95 Q17.25 -130.2 10.85 -129.0 L16.65 -109.8 16.7 -109.6 16.75 -109.45 16.8 -109.3 19.05 -101.6 20.0 -98.55 20.6 -97.9 20.5 -97.0 20.5 -96.9 20.45 -96.85 22.85 -89.0 24.65 -83.2 25.1 -81.75 27.0 -75.85 27.15 -75.35 28.15 -72.45 28.45 -71.65 28.6 -71.25 28.8 -70.7 Q31.55 -63.3 36.05 -54.15 L43.55 -39.05 Q51.6 -22.0 51.6 -8.65 51.6 -2.85 50.7 -0.45 49.2 3.6 44.15 6.0 32.15 11.75 -9.15 11.75 -43.85 11.75 -50.65 10.55 -52.85 10.2 -53.45 9.35 -54.15 8.4 -55.25 8.0 -60.75 6.0 -60.75 3.5 -60.75 -0.1 -57.7 -0.65 -57.05 -8.2 -45.75 -68.5 L-45.55 -69.6 -45.1 -71.8 -43.1 -82.45 -41.8 -89.0 -40.2 -97.0 Q-34.85 -123.55 -32.05 -131.9 L-32.05 -138.6 Q-19.9 -134.55 -2.0 -134.55 8.75 -134.55 24.3 -139.1 L27.95 -140.2 27.95 -133.05 23.9 -131.95 M8.45 -114.85 Q5.25 -125.65 5.15 -128.1 L-3.0 -127.2 -4.7 -127.05 -5.7 -127.0 -5.7 -126.9 -4.75 -125.6 0.25 -118.6 Q4.35 -112.9 8.0 -109.2 L9.65 -110.85 8.85 -113.4 8.45 -114.85 M11.55 -103.1 L10.55 -102.0 Q9.7 -100.85 7.95 -96.15 6.15 -91.45 4.0 -87.95 L4.0 -87.9 3.9 -87.9 3.85 -87.8 3.8 -87.9 0.25 -87.35 -0.6 -87.25 -0.6 -87.0 -0.7 -86.9 -0.95 -86.65 -1.05 -86.55 -1.1 -86.45 -1.2 -86.35 -5.25 -81.75 -5.35 -81.65 Q-5.15 -77.35 -5.1 -65.5 L-5.1 -58.7 -4.9 -45.0 Q14.7 -44.75 27.75 -47.9 L30.05 -48.55 29.95 -48.95 22.65 -70.7 19.3 -80.7 19.05 -80.75 16.95 -87.9 16.6 -88.9 16.6 -88.95 16.6 -89.0 14.0 -97.0 11.9 -103.5 11.55 -103.1 M2.1 -90.75 L6.6 -102.05 -0.4 -111.05 -0.45 -90.15 0.8 -90.35 Q1.5 -90.4 2.1 -90.75 M0.7 -62.2 Q0.7 -61.6 0.25 -61.15 -0.2 -60.75 -0.75 -60.75 -1.4 -60.75 -1.8 -61.15 -2.25 -61.6 -2.25 -62.2 L-1.8 -63.25 Q-1.4 -63.7 -0.75 -63.65 -0.2 -63.7 0.25 -63.25 L0.7 -62.2 M-17.5 -33.4 L-10.2 -33.3 -4.45 -33.3 -0.75 -33.35 Q31.05 -33.8 32.95 -35.7 L34.6 -36.3 Q34.1 -36.7 34.1 -36.95 L34.2 -36.9 34.4 -36.9 34.15 -37.45 33.95 -37.15 33.85 -37.55 31.7 -43.8 Q26.5 -41.0 -4.4 -41.3 L-4.9 -41.3 -9.0 -41.35 -9.65 -41.35 -9.95 -41.35 -11.7 -41.35 -12.55 -41.35 -17.35 -41.45 Q-18.1 -43.1 -19.45 -44.45 L-20.75 -45.55 -11.05 -45.15 -9.0 -45.05 -9.0 -63.7 Q-8.85 -67.3 -9.25 -75.15 L-9.25 -76.1 -9.15 -82.7 -14.45 -89.0 -14.45 -89.05 Q-17.35 -87.65 -23.7 -85.2 -32.65 -81.75 -34.85 -81.0 L-37.2 -70.7 -39.0 -62.5 -41.35 -47.4 -30.8 -46.2 -33.15 -44.45 Q-34.35 -43.25 -35.0 -41.9 L-35.9 -41.9 -38.5 -42.05 -41.6 -42.3 -42.1 -42.35 -42.8 -37.8 -42.8 -37.75 -43.0 -35.75 -42.0 -35.45 -35.45 -34.4 Q-34.8 -32.4 -33.15 -30.75 L-31.55 -29.45 Q-39.5 -30.2 -43.6 -31.65 L-43.65 -31.45 -43.7 -31.5 -44.35 -26.8 -45.25 -20.95 Q-48.15 -4.2 -50.95 1.65 L-50.9 1.65 -48.15 2.25 -47.4 2.35 -31.35 3.4 -29.85 3.45 -26.9 -1.35 Q-22.15 -8.55 -19.6 -12.85 -14.4 -21.6 -11.75 -28.6 L-22.1 -28.8 Q-20.65 -29.55 -19.45 -30.75 -18.2 -32.0 -17.5 -33.4 M37.25 -29.6 L36.6 -31.35 Q29.3 -28.85 -2.7 -28.6 0.4 -21.4 6.9 -12.35 L18.4 4.0 20.3 4.0 Q30.75 2.15 35.6 -0.5 43.1 -4.55 44.0 -7.85 L44.0 -7.9 44.1 -8.75 Q44.1 -11.85 38.0 -27.7 L37.85 -28.1 37.25 -29.6 M15.8 -6.9 Q16.2 -7.35 16.85 -7.3 L17.85 -6.9 18.3 -5.85 Q18.3 -5.25 17.85 -4.8 17.4 -4.4 16.85 -4.4 16.2 -4.4 15.8 -4.8 15.35 -5.25 15.35 -5.85 15.35 -6.45 15.8 -6.9 M9.1 -19.95 Q9.65 -20.0 10.1 -19.55 10.55 -19.1 10.55 -18.5 10.55 -17.9 10.1 -17.45 9.65 -17.05 9.1 -17.05 8.45 -17.05 8.05 -17.45 7.6 -17.9 7.6 -18.5 7.6 -19.1 8.05 -19.55 8.45 -20.0 9.1 -19.95 M0.95 -49.15 L1.4 -48.1 Q1.4 -47.5 0.95 -47.05 0.5 -46.65 -0.05 -46.65 -0.7 -46.65 -1.1 -47.05 -1.55 -47.5 -1.55 -48.1 -1.55 -48.7 -1.1 -49.15 -0.7 -49.6 -0.05 -49.55 L0.95 -49.15 M10.9 0.8 L9.65 -1.05 1.5 -13.5 Q-1.5 -17.45 -4.5 -23.8 L-6.55 -28.6 -7.3 -28.6 Q-9.05 -24.95 -13.25 -18.15 L-23.65 -0.95 -24.5 0.5 -25.3 1.8 -26.15 3.2 -26.35 3.55 Q-11.2 3.95 13.15 4.0 L11.8 2.15 10.9 0.8 M-28.6 -115.55 L-28.8 -114.45 -28.95 -113.4 -28.45 -112.8 -26.3 -109.3 Q-25.5 -109.9 -17.45 -120.15 L-12.1 -126.8 -12.75 -126.8 -13.35 -126.8 -15.05 -126.85 Q-20.75 -127.05 -26.25 -128.3 L-28.2 -117.65 -28.6 -115.55 M-15.25 -112.5 L-15.3 -112.5 Q-19.55 -107.1 -25.7 -100.55 L-26.7 -100.75 Q-27.6 -101.0 -30.45 -105.1 L-31.05 -101.85 -31.85 -97.0 -33.2 -89.0 -33.55 -86.6 -33.6 -86.35 -33.95 -84.8 -14.6 -91.9 -14.8 -94.6 -15.3 -109.8 -15.25 -112.5 -15.25 -112.55 -15.25 -112.5 M-9.2 -116.6 Q-8.65 -117.2 -7.85 -117.2 -7.05 -117.2 -6.45 -116.6 -5.9 -116.05 -5.9 -115.25 -5.9 -114.45 -6.45 -113.85 -7.05 -113.3 -7.85 -113.3 -8.65 -113.3 -9.2 -113.85 -9.8 -114.45 -9.8 -115.25 -9.8 -116.05 -9.2 -116.6 M-8.5 -121.55 L-11.4 -117.55 -11.4 -92.05 Q-9.7 -89.15 -6.9 -86.8 -5.35 -87.35 -3.65 -91.4 L-3.7 -93.6 -4.2 -108.25 -4.25 -116.05 -8.5 -121.55 M-9.8 -93.95 Q-9.8 -94.75 -9.2 -95.3 -8.65 -95.9 -7.85 -95.9 -7.05 -95.9 -6.45 -95.3 -5.9 -94.75 -5.9 -93.95 -5.9 -93.15 -6.45 -92.55 -7.05 -92.0 -7.85 -92.0 -8.65 -92.0 -9.2 -92.55 -9.8 -93.15 -9.8 -93.95 M-9.8 -104.6 Q-9.8 -105.4 -9.2 -105.95 -8.65 -106.55 -7.85 -106.55 -7.05 -106.55 -6.45 -105.95 -5.9 -105.4 -5.9 -104.6 -5.9 -103.8 -6.45 -103.2 -7.05 -102.65 -7.85 -102.65 -8.65 -102.65 -9.2 -103.2 -9.8 -103.8 -9.8 -104.6 M0.0 -76.3 Q0.0 -75.7 -0.45 -75.25 -0.9 -74.85 -1.45 -74.85 -2.1 -74.85 -2.5 -75.25 -2.95 -75.7 -2.95 -76.3 L-2.5 -77.35 Q-2.1 -77.8 -1.45 -77.75 -0.9 -77.8 -0.45 -77.35 0.0 -76.9 0.0 -76.3 M-28.5 -33.85 L-29.4 -31.8 -31.0 -33.05 -31.85 -34.05 -28.5 -33.85 M-31.75 -41.75 L-31.0 -42.65 Q-29.05 -44.65 -26.25 -44.65 -23.45 -44.65 -21.45 -42.65 L-20.55 -41.5 -23.25 -41.55 -24.3 -41.55 -24.55 -41.55 -25.0 -41.55 -31.75 -41.75 M-21.05 -33.5 L-21.45 -33.05 Q-23.45 -31.05 -26.25 -31.05 L-28.3 -31.35 -27.15 -33.75 -21.05 -33.5" fill="#000000" fill-rule="evenodd" stroke="none"/>
      <path d="M8.45 -114.85 L7.2 -114.15 Q5.65 -116.6 4.95 -116.6 4.2 -116.6 4.2 -115.7 4.2 -115.35 5.45 -113.7 6.8 -111.9 7.65 -111.9 L8.85 -113.4 9.65 -110.85 8.0 -109.2 Q4.35 -112.9 0.25 -118.6 L-4.75 -125.6 -5.7 -126.9 -5.7 -127.0 -4.7 -127.05 Q-2.6 -123.05 -1.65 -123.05 -0.9 -123.05 -0.75 -123.75 -0.95 -124.45 -2.1 -126.1 L-3.0 -127.2 5.15 -128.1 Q5.25 -125.65 8.45 -114.85 M2.45 -117.75 Q3.3 -117.75 3.3 -118.4 L2.25 -120.45 Q1.2 -121.95 0.45 -121.95 -0.2 -121.95 -0.2 -121.25 1.25 -117.75 2.45 -117.75 M2.1 -90.75 Q1.5 -90.4 0.8 -90.35 L-0.45 -90.15 -0.4 -111.05 6.6 -102.05 2.1 -90.75 M-24.5 0.5 L-23.65 -0.95 -13.25 -18.15 Q-9.05 -24.95 -7.3 -28.6 L-6.55 -28.6 -4.5 -23.8 Q-1.5 -17.45 1.5 -13.5 L9.65 -1.05 10.9 0.8 10.2 0.75 8.0 1.1 8.05 1.85 10.2 2.15 11.8 2.15 13.15 4.0 Q-11.2 3.95 -26.35 3.55 L-26.15 3.2 -25.3 1.8 -23.4 1.85 -20.9 1.8 Q-20.7 1.85 -20.7 1.1 L-20.85 0.8 -23.4 0.45 -24.5 0.5 M2.7 1.85 L5.45 1.8 5.7 1.1 Q6.3 0.45 2.7 0.45 -0.2 0.45 -0.2 1.05 -0.2 1.85 2.7 1.85 M-13.35 -126.8 L-12.75 -126.8 -12.1 -126.8 -17.45 -120.15 Q-25.5 -109.9 -26.3 -109.3 L-28.45 -112.8 -28.95 -113.4 -28.8 -114.45 -28.6 -115.55 -28.55 -115.5 -26.55 -113.45 -26.55 -113.25 -26.1 -113.15 -25.85 -113.1 -25.75 -113.1 -25.7 -113.1 -25.65 -113.1 -25.1 -113.65 -22.2 -116.9 -23.1 -117.45 Q-25.0 -116.1 -25.9 -115.15 L-27.35 -116.8 -28.2 -117.65 -26.25 -128.3 Q-20.75 -127.05 -15.05 -126.85 L-15.15 -126.7 -15.75 -125.75 Q-15.75 -125.05 -15.0 -124.8 -13.5 -126.1 -13.35 -126.8 M-15.25 -112.5 L-15.3 -109.8 -14.8 -94.6 -14.6 -91.9 -33.95 -84.8 -33.6 -86.35 -33.55 -86.6 -33.2 -89.0 -31.85 -97.0 -31.05 -101.85 -30.45 -105.1 Q-27.6 -101.0 -26.7 -100.75 L-25.7 -100.55 Q-19.55 -107.1 -15.3 -112.5 L-15.25 -112.5 M-9.2 -116.6 Q-9.8 -116.05 -9.8 -115.25 -9.8 -114.45 -9.2 -113.85 -8.65 -113.3 -7.85 -113.3 -7.05 -113.3 -6.45 -113.85 -5.9 -114.45 -5.9 -115.25 -5.9 -116.05 -6.45 -116.6 -7.05 -117.2 -7.85 -117.2 -8.65 -117.2 -9.2 -116.6 M-8.5 -121.55 L-4.25 -116.05 -4.2 -108.25 -3.7 -93.6 -3.65 -91.4 Q-5.35 -87.35 -6.9 -86.8 -9.7 -89.15 -11.4 -92.05 L-11.4 -117.55 -8.5 -121.55 M-18.35 -122.85 L-19.8 -121.8 Q-20.7 -120.8 -20.7 -120.3 -20.7 -119.5 -19.95 -119.25 -17.75 -121.35 -17.45 -122.25 -17.9 -122.85 -18.35 -122.85 M-9.8 -104.6 Q-9.8 -103.8 -9.2 -103.2 -8.65 -102.65 -7.85 -102.65 -7.05 -102.65 -6.45 -103.2 -5.9 -103.8 -5.9 -104.6 -5.9 -105.4 -6.45 -105.95 -7.05 -106.55 -7.85 -106.55 -8.65 -106.55 -9.2 -105.95 -9.8 -105.4 -9.8 -104.6 M-9.8 -93.95 Q-9.8 -93.15 -9.2 -92.55 -8.65 -92.0 -7.85 -92.0 -7.05 -92.0 -6.45 -92.55 -5.9 -93.15 -5.9 -93.95 -5.9 -94.75 -6.45 -95.3 -7.05 -95.9 -7.85 -95.9 -8.65 -95.9 -9.2 -95.3 -9.8 -94.75 -9.8 -93.95 M-18.0 1.5 L-15.0 1.85 -12.15 1.8 -11.9 1.1 Q-11.3 0.45 -15.0 0.45 -18.05 0.45 -18.05 1.05 L-18.0 1.5 M-5.85 0.45 Q-8.55 0.45 -9.0 0.9 L-9.2 1.6 -5.85 1.85 -3.2 1.8 Q-2.75 1.75 -2.75 1.1 -2.1 0.45 -5.85 0.45" fill="#ffffff" fill-rule="evenodd" stroke="none"/>
      <path d="M2.45 -117.75 Q1.25 -117.75 -0.2 -121.25 -0.2 -121.95 0.45 -121.95 1.2 -121.95 2.25 -120.45 L3.3 -118.4 Q3.3 -117.75 2.45 -117.75 M8.85 -113.4 L7.65 -111.9 Q6.8 -111.9 5.45 -113.7 4.2 -115.35 4.2 -115.7 4.2 -116.6 4.95 -116.6 5.65 -116.6 7.2 -114.15 L8.45 -114.85 8.85 -113.4 M-3.0 -127.2 L-2.1 -126.1 Q-0.95 -124.45 -0.75 -123.75 -0.9 -123.05 -1.65 -123.05 -2.6 -123.05 -4.7 -127.05 L-3.0 -127.2 M11.55 -103.1 L11.9 -103.5 14.0 -97.0 16.6 -89.0 16.6 -88.95 16.6 -88.9 16.95 -87.9 19.05 -80.75 19.3 -80.7 22.65 -70.7 29.95 -48.95 30.05 -48.55 27.75 -47.9 Q14.7 -44.75 -4.9 -45.0 L-5.1 -58.7 -5.1 -65.5 Q-5.15 -77.35 -5.35 -81.65 L-5.25 -81.75 -1.2 -86.35 -1.1 -86.45 -1.05 -86.55 -0.95 -86.65 -0.7 -86.9 -0.6 -87.0 -0.6 -87.25 0.25 -87.35 3.8 -87.9 3.85 -87.8 3.9 -87.9 4.0 -87.9 4.0 -87.95 Q6.15 -91.45 7.95 -96.15 9.7 -100.85 10.55 -102.0 L11.55 -103.1 M0.7 -62.2 L0.25 -63.25 Q-0.2 -63.7 -0.75 -63.65 -1.4 -63.7 -1.8 -63.25 L-2.25 -62.2 Q-2.25 -61.6 -1.8 -61.15 -1.4 -60.75 -0.75 -60.75 -0.2 -60.75 0.25 -61.15 0.7 -61.6 0.7 -62.2 M-22.1 -28.8 L-11.75 -28.6 Q-14.4 -21.6 -19.6 -12.85 -22.15 -8.55 -26.9 -1.35 L-29.85 3.45 -31.35 3.4 -47.4 2.35 -48.15 2.25 -50.9 1.65 -50.95 1.65 Q-48.15 -4.2 -45.25 -20.95 L-44.35 -26.8 -43.7 -31.5 -43.65 -31.45 -43.6 -31.65 Q-39.5 -30.2 -31.55 -29.45 L-30.6 -28.9 -31.7 -26.3 -30.8 -26.0 -29.65 -28.45 Q-28.1 -27.9 -26.3 -27.9 -24.0 -27.9 -22.1 -28.8 M-30.8 -46.2 L-41.35 -47.4 -39.0 -62.5 -37.2 -70.7 -34.85 -81.0 Q-32.65 -81.75 -23.7 -85.2 -17.35 -87.65 -14.45 -89.05 L-14.45 -89.0 -9.15 -82.7 -9.25 -76.1 -9.25 -75.15 Q-8.85 -67.3 -9.0 -63.7 L-9.0 -45.05 -11.05 -45.15 -20.75 -45.55 Q-23.2 -47.3 -26.3 -47.3 -28.75 -47.3 -30.8 -46.2 M37.25 -29.6 L37.85 -28.1 38.0 -27.7 Q44.1 -11.85 44.1 -8.75 L44.0 -7.9 44.0 -7.85 Q43.1 -4.55 35.6 -0.5 30.75 2.15 20.3 4.0 L18.4 4.0 6.9 -12.35 Q0.4 -21.4 -2.7 -28.6 29.3 -28.85 36.6 -31.35 L37.25 -29.6 M0.95 -49.15 L-0.05 -49.55 Q-0.7 -49.6 -1.1 -49.15 -1.55 -48.7 -1.55 -48.1 -1.55 -47.5 -1.1 -47.05 -0.7 -46.65 -0.05 -46.65 0.5 -46.65 0.95 -47.05 1.4 -47.5 1.4 -48.1 L0.95 -49.15 M9.1 -19.95 Q8.45 -20.0 8.05 -19.55 7.6 -19.1 7.6 -18.5 7.6 -17.9 8.05 -17.45 8.45 -17.05 9.1 -17.05 9.65 -17.05 10.1 -17.45 10.55 -17.9 10.55 -18.5 10.55 -19.1 10.1 -19.55 9.65 -20.0 9.1 -19.95 M15.8 -6.9 Q15.35 -6.45 15.35 -5.85 15.35 -5.25 15.8 -4.8 16.2 -4.4 16.85 -4.4 17.4 -4.4 17.85 -4.8 18.3 -5.25 18.3 -5.85 L17.85 -6.9 16.85 -7.3 Q16.2 -7.35 15.8 -6.9 M-24.5 0.5 L-23.4 0.45 -20.85 0.8 -20.7 1.1 Q-20.7 1.85 -20.9 1.8 L-23.4 1.85 -25.3 1.8 -24.5 0.5 M11.8 2.15 L10.2 2.15 8.05 1.85 8.0 1.1 10.2 0.75 10.9 0.8 11.8 2.15 M2.7 1.85 Q-0.2 1.85 -0.2 1.05 -0.2 0.45 2.7 0.45 6.3 0.45 5.7 1.1 L5.45 1.8 2.7 1.85 M-13.35 -126.8 Q-13.5 -126.1 -15.0 -124.8 -15.75 -125.05 -15.75 -125.75 L-15.15 -126.7 -15.05 -126.85 -13.35 -126.8 M-28.2 -117.65 L-27.35 -116.8 -25.9 -115.15 Q-25.0 -116.1 -23.1 -117.45 L-22.2 -116.9 -25.1 -113.65 -25.65 -113.1 -25.7 -113.1 -25.75 -113.1 -25.85 -113.1 -26.1 -113.15 -26.55 -113.25 -26.55 -113.45 -28.55 -115.5 -28.6 -115.55 -28.2 -117.65 M-18.35 -122.85 Q-17.9 -122.85 -17.45 -122.25 -17.75 -121.35 -19.95 -119.25 -20.7 -119.5 -20.7 -120.3 -20.7 -120.8 -19.8 -121.8 L-18.35 -122.85 M0.0 -76.3 Q0.0 -76.9 -0.45 -77.35 -0.9 -77.8 -1.45 -77.75 -2.1 -77.8 -2.5 -77.35 L-2.95 -76.3 Q-2.95 -75.7 -2.5 -75.25 -2.1 -74.85 -1.45 -74.85 -0.9 -74.85 -0.45 -75.25 0.0 -75.7 0.0 -76.3 M-5.85 0.45 Q-2.1 0.45 -2.75 1.1 -2.75 1.75 -3.2 1.8 L-5.85 1.85 -9.2 1.6 -9.0 0.9 Q-8.55 0.45 -5.85 0.45 M-18.0 1.5 L-18.05 1.05 Q-18.05 0.45 -15.0 0.45 -11.3 0.45 -11.9 1.1 L-12.15 1.8 -15.0 1.85 -18.0 1.5" fill="#7e688f" fill-rule="evenodd" stroke="none"/>
      <path d="M-17.35 -41.45 L-12.55 -41.35 -11.7 -41.35 -9.95 -41.35 -9.65 -41.35 -9.0 -41.35 -4.9 -41.3 -4.4 -41.3 Q26.5 -41.0 31.7 -43.8 L33.85 -37.55 33.95 -37.15 34.15 -37.45 34.4 -36.9 34.2 -36.9 34.1 -36.95 Q34.1 -36.7 34.6 -36.3 L32.95 -35.7 Q31.05 -33.8 -0.75 -33.35 L-4.45 -33.3 -10.2 -33.3 -17.5 -33.4 Q-16.6 -35.35 -16.6 -37.6 -16.6 -39.7 -17.35 -41.45 M-35.45 -34.4 L-42.0 -35.45 -43.0 -35.75 -42.8 -37.75 -42.8 -37.8 -42.1 -42.35 -41.6 -42.3 -38.5 -42.05 -35.9 -41.9 -35.0 -41.9 Q-36.0 -39.95 -36.0 -37.6 -36.0 -35.9 -35.45 -34.4 M-28.3 -37.7 Q-28.3 -38.55 -27.7 -39.15 L-27.55 -39.3 -27.0 -37.85 -28.25 -37.25 -28.3 -37.7 M-26.25 -39.75 Q-25.4 -39.75 -24.8 -39.15 L-24.6 -38.9 -26.15 -38.2 -26.85 -39.65 -26.25 -39.75 M-27.15 -33.75 L-27.0 -34.1 -26.2 -34.05 Q-24.65 -34.05 -23.55 -35.15 -22.5 -36.25 -22.5 -37.8 -22.5 -39.35 -23.55 -40.45 -24.65 -41.55 -26.2 -41.55 -27.75 -41.55 -28.8 -40.45 -29.9 -39.35 -29.9 -37.8 -29.9 -36.25 -28.8 -35.15 L-28.2 -34.6 -28.5 -33.85 -31.85 -34.05 Q-33.0 -35.75 -33.0 -37.85 -33.0 -40.05 -31.75 -41.75 L-25.0 -41.55 -24.55 -41.55 -24.3 -41.55 -23.25 -41.55 -20.55 -41.5 Q-19.5 -39.9 -19.5 -37.85 -19.5 -35.35 -21.05 -33.5 L-27.15 -33.75 M-24.2 -37.7 Q-24.2 -36.85 -24.8 -36.25 L-25.05 -36.0 -25.65 -37.15 -24.2 -37.9 -24.2 -37.7 M-25.95 -35.65 L-26.25 -35.65 Q-27.1 -35.65 -27.7 -36.25 L-27.85 -36.45 -26.55 -36.85 -25.95 -35.65" fill="#55444b" fill-rule="evenodd" stroke="none"/>
      <path d="M-17.35 -41.45 Q-16.6 -39.7 -16.6 -37.6 -16.6 -35.35 -17.5 -33.4 -18.2 -32.0 -19.45 -30.75 -20.65 -29.55 -22.1 -28.8 -24.0 -27.9 -26.3 -27.9 -28.1 -27.9 -29.65 -28.45 L-30.8 -26.0 -31.7 -26.3 -30.6 -28.9 -31.55 -29.45 -33.15 -30.75 Q-34.8 -32.4 -35.45 -34.4 -36.0 -35.9 -36.0 -37.6 -36.0 -39.95 -35.0 -41.9 -34.35 -43.25 -33.15 -44.45 L-30.8 -46.2 Q-28.75 -47.3 -26.3 -47.3 -23.2 -47.3 -20.75 -45.55 L-19.45 -44.45 Q-18.1 -43.1 -17.35 -41.45 M-28.5 -33.85 L-28.2 -34.6 -28.8 -35.15 Q-29.9 -36.25 -29.9 -37.8 -29.9 -39.35 -28.8 -40.45 -27.75 -41.55 -26.2 -41.55 -24.65 -41.55 -23.55 -40.45 -22.5 -39.35 -22.5 -37.8 -22.5 -36.25 -23.55 -35.15 -24.65 -34.05 -26.2 -34.05 L-27.0 -34.1 -27.15 -33.75 -28.3 -31.35 -26.25 -31.05 Q-23.45 -31.05 -21.45 -33.05 L-21.05 -33.5 Q-19.5 -35.35 -19.5 -37.85 -19.5 -39.9 -20.55 -41.5 L-21.45 -42.65 Q-23.45 -44.65 -26.25 -44.65 -29.05 -44.65 -31.0 -42.65 L-31.75 -41.75 Q-33.0 -40.05 -33.0 -37.85 -33.0 -35.75 -31.85 -34.05 L-31.0 -33.05 -29.4 -31.8 -28.5 -33.85 M-26.25 -39.75 L-26.85 -39.65 -26.15 -38.2 -24.6 -38.9 -24.8 -39.15 Q-25.4 -39.75 -26.25 -39.75 M-28.3 -37.7 L-28.25 -37.25 -27.0 -37.85 -27.55 -39.3 -27.7 -39.15 Q-28.3 -38.55 -28.3 -37.7 M-24.2 -37.7 L-24.2 -37.9 -25.65 -37.15 -25.05 -36.0 -24.8 -36.25 Q-24.2 -36.85 -24.2 -37.7 M-25.95 -35.65 L-26.55 -36.85 -27.85 -36.45 -27.7 -36.25 Q-27.1 -35.65 -26.25 -35.65 L-25.95 -35.65" fill="#fff7b3" fill-rule="evenodd" stroke="none"/>
    </g>
  </defs>
</svg>
