<?xml version="1.0" encoding="UTF-8" standalone="no"?>
<svg xmlns:xlink="http://www.w3.org/1999/xlink" height="342.0px" width="237.9px" xmlns="http://www.w3.org/2000/svg">
  <g transform="matrix(1, 0, 0, 1, 118.05, 273.9)">
    <use height="151.95" transform="matrix(1.0, 0.0, 0.0, 1.0, -60.75, -140.2)" width="112.35" xlink:href="#shape0"/>
  </g>
  <defs>
    <g id="shape0" transform="matrix(1, 0, 0, 1, 60.75, 140.2)">
      <path d="M23.9 -131.95 Q17.3 -130.2 11.0 -129.05 L11.0 -128.7 11.0 -128.6 16.65 -109.8 21.05 -94.8 21.05 -94.9 22.85 -89.0 Q26.55 -76.8 28.6 -71.25 31.4 -63.65 36.05 -54.15 L43.55 -39.05 Q51.6 -22.0 51.6 -8.65 51.6 -2.85 50.7 -0.45 49.2 3.6 44.15 6.0 32.15 11.75 -9.15 11.75 -43.85 11.75 -50.65 10.55 -52.85 10.2 -53.45 9.35 -54.15 8.4 -55.25 8.0 -60.75 6.0 -60.75 3.5 -60.75 -0.1 -57.7 -0.65 -57.05 -8.2 -45.75 -68.5 L-41.8 -89.0 -40.2 -97.0 Q-34.85 -123.55 -32.05 -131.9 L-32.05 -138.6 Q-19.9 -134.55 -2.0 -134.55 8.75 -134.55 24.3 -139.1 L27.95 -140.2 27.95 -133.05 23.9 -131.95 M0.05 -127.0 L0.65 -127.55 0.0 -127.45 -12.75 -126.8 -14.55 -126.8 -6.5 -121.6 Q-5.65 -121.6 0.05 -127.0 M6.2 -122.85 L4.15 -120.65 -0.05 -116.3 0.35 -115.55 Q1.95 -116.05 3.15 -116.8 5.55 -118.4 7.3 -118.8 L6.2 -122.85 M6.8 -113.05 L4.4 -112.1 1.45 -111.05 1.5 -110.05 Q1.5 -105.7 -0.8 -102.65 -3.15 -99.65 -6.4 -99.65 -9.65 -99.65 -11.95 -102.65 -14.3 -105.7 -14.25 -110.05 L-14.25 -110.1 Q-18.5 -110.75 -23.3 -112.05 L-21.1 -98.45 -15.6 -98.25 -5.75 -98.2 4.85 -98.85 Q5.65 -103.0 6.05 -107.0 6.4 -111.0 6.8 -113.05 M14.0 -97.0 L10.75 -107.2 8.9 -95.7 7.95 -95.15 -6.4 -94.65 -23.85 -95.15 Q-25.05 -95.65 -25.15 -96.7 L-26.1 -101.35 -27.55 -113.8 -28.8 -114.2 -31.85 -97.0 -33.2 -89.0 -33.55 -86.6 -39.0 -62.5 -42.8 -37.8 -42.8 -37.75 -43.65 -31.45 -43.7 -31.5 -44.35 -26.8 -45.25 -20.95 Q-48.15 -4.2 -50.95 1.65 L-50.9 1.65 -48.15 2.25 Q-36.05 4.0 20.3 4.0 30.75 2.15 35.6 -0.5 43.1 -4.55 44.0 -7.85 L44.0 -7.9 44.1 -8.75 Q44.1 -11.85 38.0 -27.7 L34.15 -37.45 33.95 -37.15 Q23.3 -68.4 16.6 -89.0 L14.0 -97.0 M-21.9 -117.75 Q-17.2 -116.15 -13.2 -115.35 L-12.45 -116.7 Q-17.9 -120.3 -26.45 -127.3 L-27.8 -119.95 -21.9 -117.75 M-6.25 -114.5 Q-7.45 -114.5 -8.25 -113.05 -9.1 -111.65 -9.1 -109.55 -9.1 -107.45 -8.25 -106.0 -7.45 -104.55 -6.25 -104.55 -5.1 -104.55 -4.25 -106.0 -3.45 -107.45 -3.45 -109.55 L-3.45 -109.7 Q-3.5 -111.7 -4.25 -113.05 -5.1 -114.5 -6.25 -114.5" fill="#000000" fill-rule="evenodd" stroke="none"/>
      <path d="M0.0 -127.45 L0.05 -127.0 Q-5.65 -121.6 -6.5 -121.6 L-14.55 -126.8 -12.75 -126.8 0.0 -127.45" fill="#fff1dd" fill-rule="evenodd" stroke="none"/>
      <path d="M6.2 -122.85 L7.3 -118.8 Q5.55 -118.4 3.15 -116.8 1.95 -116.05 0.35 -115.55 L-0.05 -116.3 4.15 -120.65 6.2 -122.85 M15.7 -69.4 L16.1 -70.05 Q19.05 -74.55 19.05 -76.25 19.05 -77.75 18.75 -77.55 L15.6 -77.85 15.95 -84.35 Q15.9 -89.1 13.8 -89.1 12.35 -89.1 11.3 -87.5 L9.95 -87.85 Q-5.95 -78.9 -21.35 -88.2 L-22.8 -88.2 -23.0 -87.45 Q-24.8 -89.7 -26.7 -89.7 -28.5 -89.7 -28.5 -87.3 -28.5 -85.7 -27.5 -83.35 L-25.85 -79.35 -28.4 -78.3 Q-29.1 -77.8 -29.1 -76.35 -29.1 -75.65 -27.6 -72.5 -26.15 -69.35 -26.15 -66.65 -28.5 -64.5 -28.5 -64.05 -28.5 -62.75 -26.15 -60.55 -23.75 -58.3 -20.95 -57.95 L-20.6 -57.5 -20.2 -57.1 -20.15 -57.05 Q-17.25 -54.0 -12.5 -52.85 L-10.0 -52.4 -4.95 -52.2 -3.1 -52.3 -3.0 -52.3 -1.15 -52.5 3.9 -53.35 4.0 -53.4 4.35 -53.45 Q7.45 -54.2 9.75 -55.65 L9.8 -55.65 10.4 -56.1 Q13.1 -56.2 16.1 -59.75 19.05 -63.15 19.05 -65.4 L19.0 -66.75 Q18.45 -67.8 15.7 -67.85 L15.7 -68.6 15.7 -69.4 M14.0 -97.0 L16.6 -89.0 Q23.3 -68.4 33.95 -37.15 L34.15 -37.45 38.0 -27.7 Q44.1 -11.85 44.1 -8.75 L44.0 -7.9 44.0 -7.85 Q43.1 -4.55 35.6 -0.5 30.75 2.15 20.3 4.0 -36.05 4.0 -48.15 2.25 L-50.9 1.65 -50.95 1.65 Q-48.15 -4.2 -45.25 -20.95 L-44.35 -26.8 -43.7 -31.5 -43.65 -31.45 -42.8 -37.75 -42.8 -37.8 -39.0 -62.5 -33.55 -86.6 -33.2 -89.0 -31.85 -97.0 -28.8 -114.2 -27.55 -113.8 -26.1 -101.35 -25.15 -96.7 Q-25.05 -95.65 -23.85 -95.15 L-6.4 -94.65 7.95 -95.15 8.9 -95.7 10.75 -107.2 14.0 -97.0 M15.45 -64.8 L15.75 -64.8 15.6 -64.65 15.4 -64.45 15.45 -64.6 15.45 -64.8 M-21.9 -117.75 L-27.8 -119.95 -26.45 -127.3 Q-17.9 -120.3 -12.45 -116.7 L-13.2 -115.35 Q-17.2 -116.15 -21.9 -117.75 M-24.8 -76.15 L-24.9 -75.05 -25.2 -76.05 -24.8 -76.15" fill="#6754ba" fill-rule="evenodd" stroke="none"/>
      <path d="M6.8 -113.05 Q6.4 -111.0 6.05 -107.0 5.65 -103.0 4.85 -98.85 L-5.75 -98.2 -15.6 -98.25 -21.1 -98.45 -23.3 -112.05 Q-18.5 -110.75 -14.25 -110.1 L-14.25 -110.05 Q-14.3 -105.7 -11.95 -102.65 -9.65 -99.65 -6.4 -99.65 -3.15 -99.65 -0.8 -102.65 1.5 -105.7 1.5 -110.05 L1.45 -111.05 4.4 -112.1 6.8 -113.05" fill="#ffffff" fill-rule="evenodd" stroke="none"/>
      <path d="M11.3 -87.5 Q12.35 -89.1 13.8 -89.1 15.9 -89.1 15.95 -84.35 L15.6 -77.85 18.75 -77.55 Q19.05 -77.75 19.05 -76.25 19.05 -74.55 16.1 -70.05 L15.7 -69.4 Q15.35 -78.9 11.3 -87.5 M15.7 -67.85 Q18.45 -67.8 19.0 -66.75 L19.05 -65.4 Q19.05 -63.15 16.1 -59.75 13.1 -56.2 10.4 -56.1 L11.4 -56.9 13.8 -59.85 Q14.95 -61.9 15.4 -64.45 L15.6 -64.65 15.75 -64.8 15.45 -64.8 15.65 -66.65 15.7 -67.85 M-20.95 -57.95 Q-23.75 -58.3 -26.15 -60.55 -28.5 -62.75 -28.5 -64.05 -28.5 -64.5 -26.15 -66.65 -26.15 -69.35 -27.6 -72.5 -29.1 -75.65 -29.1 -76.35 -29.1 -77.8 -28.4 -78.3 L-25.85 -79.35 -27.5 -83.35 Q-28.5 -85.7 -28.5 -87.3 -28.5 -89.7 -26.7 -89.7 -24.8 -89.7 -23.0 -87.45 L-23.3 -86.0 Q-24.45 -80.65 -24.8 -76.15 L-25.2 -76.05 -24.9 -75.05 Q-25.45 -65.35 -22.2 -59.75 L-21.6 -58.8 -20.95 -57.95 M10.4 -65.9 L10.25 -67.2 10.6 -67.75 10.6 -67.45 10.45 -66.2 10.45 -66.05 10.4 -65.9" fill="#8575c6" fill-rule="evenodd" stroke="none"/>
      <path d="M15.7 -69.4 L15.7 -68.6 15.7 -67.85 15.65 -66.65 15.45 -64.8 15.45 -64.6 15.4 -64.45 Q14.95 -61.9 13.8 -59.85 L11.4 -56.9 10.4 -56.1 9.8 -55.65 9.75 -55.65 Q7.45 -54.2 4.35 -53.45 L4.0 -53.4 3.9 -53.35 -1.15 -52.5 -3.0 -52.3 -3.1 -52.3 -4.95 -52.2 -10.0 -52.4 -12.5 -52.85 Q-17.25 -54.0 -20.15 -57.05 L-20.2 -57.1 -20.6 -57.5 -20.95 -57.95 -21.6 -58.8 -22.2 -59.75 Q-25.45 -65.35 -24.9 -75.05 L-24.8 -76.15 Q-24.45 -80.65 -23.3 -86.0 L-23.0 -87.45 -22.8 -88.2 -21.35 -88.2 Q-5.95 -78.9 9.95 -87.85 L11.3 -87.5 Q15.35 -78.9 15.7 -69.4 M10.6 -67.75 L10.65 -68.2 10.65 -69.0 Q10.5 -76.45 7.35 -83.15 L6.3 -83.45 Q3.3 -81.75 0.3 -80.9 0.3 -77.3 -2.0 -70.35 L-2.0 -69.95 Q4.65 -70.2 3.75 -67.2 L-7.7 -56.6 1.75 -57.55 Q9.2 -59.2 10.4 -65.9 L10.45 -66.05 10.45 -66.2 10.6 -67.45 10.6 -67.75 M-18.25 -83.7 Q-23.45 -61.8 -12.1 -57.65 L-7.35 -65.7 -7.35 -66.6 -11.0 -66.8 -11.15 -66.75 -11.4 -66.9 Q-12.6 -67.35 -12.6 -68.3 L-12.4 -68.7 -9.25 -73.0 Q-6.3 -77.1 -2.2 -80.95 -12.65 -81.0 -17.15 -83.7 L-18.25 -83.7" fill="#7968c1" fill-rule="evenodd" stroke="none"/>
      <path d="M10.4 -65.9 Q9.2 -59.2 1.75 -57.55 L-7.7 -56.6 3.75 -67.2 Q4.65 -70.2 -2.0 -69.95 L-2.0 -70.35 Q0.3 -77.3 0.3 -80.9 3.3 -81.75 6.3 -83.45 L7.35 -83.15 Q10.5 -76.45 10.65 -69.0 L10.65 -68.2 10.6 -67.75 10.25 -67.2 10.4 -65.9 M-18.25 -83.7 L-17.15 -83.7 Q-12.65 -81.0 -2.2 -80.95 -6.3 -77.1 -9.25 -73.0 L-12.4 -68.7 -12.6 -68.3 Q-12.6 -67.35 -11.4 -66.9 L-11.15 -66.75 -11.0 -66.8 -7.35 -66.6 -7.35 -65.7 -12.1 -57.65 Q-23.45 -61.8 -18.25 -83.7" fill="#6956ba" fill-rule="evenodd" stroke="none"/>
      <path d="M-6.25 -114.5 Q-5.1 -114.5 -4.25 -113.05 -3.5 -111.7 -3.45 -109.7 L-3.45 -109.55 Q-3.45 -107.45 -4.25 -106.0 -5.1 -104.55 -6.25 -104.55 -7.45 -104.55 -8.25 -106.0 -9.1 -107.45 -9.1 -109.55 -9.1 -111.65 -8.25 -113.05 -7.45 -114.5 -6.25 -114.5" fill="#cbbfe9" fill-rule="evenodd" stroke="none"/>
    </g>
  </defs>
</svg>
