<?xml version="1.0" encoding="UTF-8" standalone="no"?>
<svg xmlns:xlink="http://www.w3.org/1999/xlink" height="342.0px" width="237.9px" xmlns="http://www.w3.org/2000/svg">
  <g transform="matrix(1, 0, 0, 1, 118.05, 273.9)">
    <use height="151.95" transform="matrix(1.0, 0.0, 0.0, 1.0, -60.75, -140.2)" width="112.35" xlink:href="#shape0"/>
  </g>
  <defs>
    <g id="shape0" transform="matrix(1, 0, 0, 1, 60.75, 140.2)">
      <path d="M27.95 -140.2 L27.95 -133.05 23.9 -131.95 Q17.25 -130.2 10.85 -129.0 L16.65 -109.8 21.05 -94.8 21.05 -94.9 22.85 -89.0 Q26.55 -76.8 28.6 -71.25 31.4 -63.65 36.05 -54.15 L43.55 -39.05 Q51.6 -22.0 51.6 -8.65 51.6 -2.85 50.7 -0.45 49.2 3.6 44.15 6.0 32.15 11.75 -9.15 11.75 -43.85 11.75 -50.65 10.55 -52.85 10.2 -53.45 9.35 -54.15 8.4 -55.25 8.0 -60.75 6.0 -60.75 3.5 -60.75 -0.1 -57.7 -0.65 -57.05 -8.2 -45.75 -68.5 L-41.8 -89.0 -40.2 -97.0 Q-34.85 -123.55 -32.05 -131.9 L-32.05 -138.6 Q-19.9 -134.55 -2.0 -134.55 8.75 -134.55 24.3 -139.1 L27.95 -140.2 M-27.85 -119.45 L-28.5 -115.9 -28.7 -115.05 -28.85 -114.2 -19.4 -105.0 Q-7.95 -93.75 -4.5 -93.75 -2.3 -93.75 4.7 -103.5 L9.8 -110.25 9.75 -110.45 9.15 -112.45 9.0 -112.85 8.85 -113.5 8.3 -115.25 7.75 -117.25 7.7 -117.4 6.35 -122.3 Q0.35 -109.55 -4.3 -108.4 L-5.25 -108.3 -5.5 -108.3 Q-11.05 -108.55 -20.25 -118.35 L-26.7 -125.85 -27.85 -119.55 -27.85 -119.45 M4.4 -128.0 L-12.75 -126.8 -23.25 -127.7 -17.6 -122.1 Q-8.45 -113.3 -5.85 -113.3 -2.85 -113.3 1.15 -121.8 3.05 -125.85 4.4 -128.0 M2.3 -83.55 Q-14.05 -92.8 -20.05 -98.75 -26.45 -105.1 -29.75 -109.0 L-31.85 -97.0 -33.2 -89.0 -33.55 -86.6 -38.8 -63.5 -36.7 -62.75 Q-32.3 -61.0 -29.95 -60.2 -18.7 -56.55 -4.4 -56.55 2.7 -56.55 8.35 -57.7 7.2 -61.0 3.25 -79.0 L2.3 -83.55 M4.25 -82.4 L4.25 -82.45 4.25 -82.4 M14.0 -97.0 L11.5 -104.75 Q4.2 -94.4 -0.45 -90.8 L5.75 -86.5 12.1 -58.7 Q15.85 -59.9 18.85 -61.7 L23.35 -65.3 24.3 -66.15 16.6 -89.0 14.0 -97.0 M28.35 -19.85 Q27.5 -23.45 26.0 -40.05 L24.4 -60.0 18.95 -57.0 Q8.25 -51.9 -4.4 -51.9 -21.55 -51.9 -33.9 -56.25 -36.7 -57.25 -38.9 -58.3 -38.85 -52.4 -37.15 -36.95 -35.4 -20.8 -35.4 -19.35 -35.4 -18.9 -33.6 -16.8 L-33.8 -17.05 -32.7 -16.1 Q-28.15 -13.65 -4.5 -13.95 19.15 -14.3 24.15 -17.15 27.8 -19.3 28.0 -19.8 L28.4 -19.8 28.35 -19.85 M25.45 2.95 Q32.0 1.45 35.6 -0.5 43.1 -4.55 44.0 -7.85 L44.0 -7.9 44.1 -8.75 Q44.1 -11.85 38.0 -27.7 L35.65 -33.75 36.25 -32.3 29.65 -50.9 Q30.45 -42.35 31.05 -28.65 L31.05 -18.65 Q30.35 -14.2 21.65 -11.85 L18.5 -11.15 Q10.55 -9.6 -2.35 -9.3 -2.25 -7.8 -2.45 -5.6 -2.45 -2.7 -3.0 1.2 L-3.5 3.9 20.3 4.0 22.7 3.55 25.45 2.95 M-43.65 -31.45 L-43.7 -31.5 -43.7 -31.45 -44.35 -26.8 -45.25 -20.95 Q-48.15 -4.2 -50.95 1.65 L-50.9 1.65 -48.15 2.25 -47.55 2.35 -47.45 2.35 -47.4 2.35 -47.25 2.35 -47.05 2.4 -46.9 2.4 -46.7 2.45 -46.55 2.45 -33.25 3.3 -30.65 3.4 -28.7 3.45 -7.5 3.85 Q-7.85 1.75 -7.5 -1.8 -7.95 -6.6 -7.45 -9.25 L-26.15 -10.15 -29.45 -10.65 Q-36.25 -11.95 -38.0 -14.3 -40.15 -24.75 -41.4 -37.05 L-42.0 -43.15 -42.8 -37.8 -42.8 -37.75 -43.65 -31.45" fill="#000000" fill-rule="evenodd" stroke="none"/>
      <path d="M7.75 -117.25 L7.4 -117.15 7.7 -117.4 7.75 -117.25" fill="#0d2273" fill-rule="evenodd" stroke="none"/>
      <path d="M7.4 -117.15 L7.35 -117.15 Q6.4 -113.9 1.75 -107.4 -3.35 -100.2 -6.15 -100.75 -9.0 -101.35 -18.9 -110.7 L-27.85 -119.45 -27.85 -119.55 -26.7 -125.85 -20.25 -118.35 Q-11.05 -108.55 -5.5 -108.3 L-5.25 -108.3 -4.3 -108.4 Q0.35 -109.55 6.35 -122.3 L7.7 -117.4 7.4 -117.15 M-28.5 -115.9 Q-24.3 -111.1 -17.7 -105.2 -8.15 -96.75 -5.25 -96.75 -0.05 -96.75 9.0 -112.85 L9.15 -112.45 9.75 -110.45 9.8 -110.25 4.7 -103.5 Q-2.3 -93.75 -4.5 -93.75 -7.95 -93.75 -19.4 -105.0 L-28.85 -114.2 -28.7 -115.05 -28.5 -115.9 M2.3 -83.55 L3.25 -79.0 Q7.2 -61.0 8.35 -57.7 2.7 -56.55 -4.4 -56.55 -18.7 -56.55 -29.95 -60.2 -32.3 -61.0 -36.7 -62.75 L-38.8 -63.5 -33.55 -86.6 -33.2 -89.0 -31.85 -97.0 -29.75 -109.0 Q-26.45 -105.1 -20.05 -98.75 -14.05 -92.8 2.3 -83.55 M28.0 -19.8 Q27.8 -19.3 24.15 -17.15 19.15 -14.3 -4.5 -13.95 -28.15 -13.65 -32.7 -16.1 L-33.8 -17.05 -33.6 -16.8 Q-35.4 -18.9 -35.4 -19.35 -35.4 -20.8 -37.15 -36.95 -38.85 -52.4 -38.9 -58.3 -36.7 -57.25 -33.9 -56.25 -21.55 -51.9 -4.4 -51.9 8.25 -51.9 18.95 -57.0 L24.4 -60.0 26.0 -40.05 Q27.5 -23.45 28.35 -19.85 L28.0 -19.8 M14.0 -97.0 L16.6 -89.0 24.3 -66.15 23.35 -65.3 18.85 -61.7 Q15.85 -59.9 12.1 -58.7 L5.75 -86.5 -0.45 -90.8 Q4.2 -94.4 11.5 -104.75 L14.0 -97.0" fill="#ffffff" fill-rule="evenodd" stroke="none"/>
      <path d="M4.4 -128.0 Q3.05 -125.85 1.15 -121.8 -2.85 -113.3 -5.85 -113.3 -8.45 -113.3 -17.6 -122.1 L-23.25 -127.7 -12.75 -126.8 4.4 -128.0" fill="#fff1dd" fill-rule="evenodd" stroke="none"/>
      <path d="M7.4 -117.15 L7.75 -117.25 8.3 -115.25 8.85 -113.5 9.0 -112.85 Q-0.05 -96.75 -5.25 -96.75 -8.15 -96.75 -17.7 -105.2 -24.3 -111.1 -28.5 -115.9 L-27.85 -119.45 -18.9 -110.7 Q-9.0 -101.35 -6.15 -100.75 -3.35 -100.2 1.75 -107.4 6.4 -113.9 7.35 -117.15 L7.4 -117.15 M21.65 -11.85 Q30.35 -14.2 31.05 -18.65 L31.05 -28.65 Q30.45 -42.35 29.65 -50.9 L36.25 -32.3 35.65 -33.75 38.0 -27.7 Q44.1 -11.85 44.1 -8.75 L44.0 -7.9 44.0 -7.85 Q43.1 -4.55 35.6 -0.5 32.0 1.45 25.45 2.95 23.15 -7.3 21.65 -11.85 M22.7 3.55 L20.3 4.0 -3.5 3.9 -3.0 1.2 Q-2.45 -2.7 -2.45 -5.6 -2.25 -7.8 -2.35 -9.3 10.55 -9.6 18.5 -11.15 L20.25 -4.2 Q21.65 1.15 22.7 3.55 M-43.7 -31.45 L-43.65 -31.45 -42.8 -37.75 -42.8 -37.8 -42.0 -43.15 -41.4 -37.05 Q-40.15 -24.75 -38.0 -14.3 -36.25 -11.95 -29.45 -10.65 -30.3 -8.75 -30.6 -5.8 -30.8 -4.15 -30.8 2.9 L-30.65 3.4 -33.25 3.3 -46.55 2.45 -46.7 2.45 -46.9 2.4 -47.05 2.4 -47.25 2.35 -47.4 2.35 -47.45 2.35 -47.55 2.35 -48.15 2.25 -50.9 1.65 -50.95 1.65 Q-48.15 -4.2 -45.25 -20.95 L-44.35 -26.8 -43.7 -31.45 M-26.15 -10.15 L-7.45 -9.25 Q-7.95 -6.6 -7.5 -1.8 -7.85 1.75 -7.5 3.85 L-28.7 3.45 -27.3 -2.7 Q-26.4 -7.6 -26.15 -10.15" fill="#1b3676" fill-rule="evenodd" stroke="none"/>
      <path d="M21.65 -11.85 Q23.15 -7.3 25.45 2.95 L22.7 3.55 Q21.65 1.15 20.25 -4.2 L18.5 -11.15 21.65 -11.85 M-29.45 -10.65 L-26.15 -10.15 Q-26.4 -7.6 -27.3 -2.7 L-28.7 3.45 -30.65 3.4 -30.8 2.9 Q-30.8 -4.15 -30.6 -5.8 -30.3 -8.75 -29.45 -10.65" fill="#14295a" fill-rule="evenodd" stroke="none"/>
      <path d="M22.0 -34.3 Q24.9 -31.4 24.9 -27.35 24.9 -23.25 22.0 -20.35 19.8 -18.15 16.9 -17.6 16.35 -17.35 15.85 -17.35 L15.25 -17.45 15.0 -17.45 Q10.95 -17.45 8.05 -20.35 5.15 -23.25 5.15 -27.35 5.15 -31.4 8.05 -34.3 10.95 -37.2 15.0 -37.2 19.1 -37.2 22.0 -34.3 M12.3 -34.35 Q10.75 -33.8 9.6 -32.6 7.35 -30.4 7.35 -27.2 7.35 -24.0 9.6 -21.75 11.8 -19.55 15.0 -19.55 L15.35 -19.55 16.2 -20.2 Q17.75 -21.4 17.75 -22.05 L14.55 -25.25 Q11.4 -28.3 11.4 -31.1 11.4 -33.0 12.3 -34.35" fill="#010000" fill-rule="evenodd" stroke="none"/>
      <path d="M12.3 -34.35 Q11.4 -33.0 11.4 -31.1 11.4 -28.3 14.55 -25.25 L17.75 -22.05 Q17.75 -21.4 16.2 -20.2 L15.35 -19.55 15.0 -19.55 Q11.8 -19.55 9.6 -21.75 7.35 -24.0 7.35 -27.2 7.35 -30.4 9.6 -32.6 10.75 -33.8 12.3 -34.35" fill="#ffffff" fill-rule="evenodd" stroke="none"/>
    </g>
  </defs>
</svg>
