<?xml version="1.0" encoding="UTF-8" standalone="no"?>
<svg xmlns:xlink="http://www.w3.org/1999/xlink" height="842.55px" width="1337.95px" xmlns="http://www.w3.org/2000/svg">
  <g transform="matrix(1, 0, 0, 1, 407.45, 285.05)">
    <use height="4.5" transform="matrix(5.4867, 0.0, 0.0, 81.5667, 3.2875, 23.0167)" width="99.75" xlink:href="#shape0"/>
    <use height="436.35" transform="matrix(1.0, 0.0, 0.0, 1.0, -8.75, -3.75)" width="567.7" xlink:href="#shape1"/>
  </g>
  <defs>
    <g id="shape0" transform="matrix(1, 0, 0, 1, 49.85, -2.5)">
      <path d="M49.9 7.0 L-49.85 7.0 -49.85 2.5 49.9 2.5 49.9 7.0" fill="#ffffff" fill-rule="evenodd" stroke="none"/>
    </g>
    <g id="shape1" transform="matrix(1, 0, 0, 1, 8.75, 3.75)">
      <path d="M-5.5 25.5 Q-6.4 21.3 -5.75 13.1 -6.1 7.65 -5.8 3.75 L-5.45 1.15 -5.75 0.25 Q-5.75 -1.35 -4.1 -2.6 -3.25 -3.75 -2.0 -3.75 L547.85 -3.75 Q551.6 -2.75 551.6 0.1 L551.3 1.4 Q552.2 5.45 551.6 13.5 552.2 21.2 551.4 25.25 L-5.0 25.25 -5.5 25.5" fill="#b3b3b3" fill-rule="evenodd" stroke="none"/>
      <path d="M551.4 25.25 L558.95 25.25 558.95 32.75 554.45 32.75 -5.0 32.75 -5.05 32.75 -5.95 32.1 -7.7 30.9 -7.75 30.85 -7.8 30.8 -7.85 30.75 -7.9 30.7 Q-8.75 30.05 -8.75 29.25 -8.75 27.05 -5.5 25.5 L-5.0 25.25 551.4 25.25 M554.6 110.25 L558.95 110.25 558.95 117.75 550.75 117.75 -0.75 117.75 -4.0 117.75 -6.8 115.7 Q-7.75 115.0 -7.75 114.25 L-7.75 114.2 -7.75 114.1 -5.95 111.3 -4.65 110.55 -4.0 110.25 48.35 110.25 48.25 109.25 Q48.25 107.2 92.45 70.25 136.75 33.25 139.5 33.25 143.85 33.25 143.75 37.1 143.75 41.2 55.7 110.25 L248.25 110.25 248.1 109.25 Q248.1 107.95 283.35 73.3 318.95 38.25 321.85 38.25 325.6 38.25 325.6 42.5 325.6 44.8 255.55 110.25 L440.1 110.25 Q440.1 107.0 454.0 91.2 L469.35 74.25 482.6 56.45 Q495.25 40.25 499.35 40.25 503.75 40.25 503.6 44.5 503.6 48.15 447.55 110.25 L554.6 110.25 M552.75 208.9 L555.35 208.95 556.95 209.0 556.95 216.1 554.85 216.1 552.75 216.05 545.0 215.95 543.55 215.95 499.0 215.05 497.5 215.05 494.35 214.95 Q492.85 217.7 485.35 225.15 L543.4 225.8 545.05 225.8 552.65 225.9 556.95 225.95 556.95 231.2 554.05 231.2 552.6 231.2 552.6 231.15 545.1 231.1 543.25 231.1 486.4 230.05 480.45 229.9 479.5 230.75 Q477.5 230.75 476.45 230.0 L476.3 229.9 476.2 229.8 475.5 229.75 Q475.25 230.75 475.25 228.25 L475.3 227.75 475.25 227.25 Q475.25 225.45 481.3 217.5 484.8 212.9 487.1 210.9 L487.5 210.3 Q489.0 208.25 491.0 208.25 L491.75 208.25 492.3 208.25 492.8 208.25 543.9 208.8 552.75 208.9 M551.1 343.25 L556.95 343.25 556.95 350.75 455.5 350.75 Q454.3 355.95 438.1 388.85 L423.75 418.25 Q420.6 424.75 420.6 425.0 L420.6 425.75 Q420.4 428.25 418.9 429.9 417.35 431.6 415.35 431.6 411.9 431.6 411.15 429.45 L411.1 427.0 411.1 426.95 411.5 425.75 414.9 418.25 Q419.8 407.95 431.1 385.55 L448.85 350.75 195.65 350.75 151.6 418.25 146.65 425.75 142.0 432.6 132.5 432.35 136.75 425.75 141.6 418.25 Q174.8 366.95 187.1 350.75 L-2.0 350.75 -4.9 348.7 -5.45 348.1 -5.75 347.25 Q-5.75 345.05 -2.5 343.5 L-2.0 343.25 551.1 343.25 M-2.75 231.1 L-6.0 231.05 -6.0 225.8 -2.8 225.85 4.8 225.95 10.85 226.0 Q68.05 226.7 68.15 224.9 72.2 218.95 73.4 217.5 L74.3 216.45 36.7 216.35 4.9 216.1 -2.85 216.0 -6.0 215.95 -6.0 208.8 -2.85 208.85 4.9 208.95 Q80.95 209.85 81.6 210.5 L82.35 211.1 82.6 212.25 Q83.6 213.3 83.6 215.5 83.6 216.85 78.35 223.8 L73.3 231.3 66.15 231.45 30.35 231.4 25.7 231.35 24.15 231.35 5.95 231.2 -2.75 231.1 M362.35 211.1 L362.6 212.25 Q363.6 213.3 363.6 215.5 363.6 216.85 358.35 223.8 L353.3 231.3 346.15 231.45 310.35 231.4 305.7 231.35 Q256.7 231.05 210.45 229.9 L209.5 230.75 Q207.5 230.75 206.45 230.0 L206.3 229.9 206.2 229.8 205.5 229.75 Q205.25 230.75 205.25 228.25 L205.3 227.75 205.25 227.25 Q205.25 225.45 211.3 217.5 214.8 212.9 217.1 210.9 L217.5 210.3 Q219.0 208.25 221.0 208.25 360.75 209.6 361.6 210.5 L362.35 211.1 M354.3 216.45 L316.7 216.35 Q269.25 216.05 224.35 214.95 222.85 217.7 215.35 225.15 L290.85 226.0 Q348.05 226.7 348.15 224.9 352.2 218.95 353.4 217.5 L354.3 216.45" fill="#000000" fill-rule="evenodd" stroke="none"/>
      <path d="M554.45 32.75 Q556.45 42.25 555.6 71.85 556.4 100.2 554.6 110.25 L447.55 110.25 Q503.6 48.15 503.6 44.5 503.75 40.25 499.35 40.25 495.25 40.25 482.6 56.45 L469.35 74.25 454.0 91.2 Q440.1 107.0 440.1 110.25 L255.55 110.25 Q325.6 44.8 325.6 42.5 325.6 38.25 321.85 38.25 318.95 38.25 283.35 73.3 248.1 107.95 248.1 109.25 L248.25 110.25 55.7 110.25 Q143.75 41.2 143.75 37.1 143.85 33.25 139.5 33.25 136.75 33.25 92.45 70.25 48.25 107.2 48.25 109.25 L48.35 110.25 -4.0 110.25 -4.65 110.55 Q-5.5 104.9 -5.8 94.15 L-5.75 71.25 Q-6.55 43.8 -5.05 32.75 L-5.0 32.75 554.45 32.75 M556.95 350.75 L556.95 425.75 420.6 425.75 420.6 425.0 Q420.6 424.75 423.75 418.25 L438.1 388.85 Q454.3 355.95 455.5 350.75 L556.95 350.75 M411.5 425.75 L146.65 425.75 151.6 418.25 195.65 350.75 448.85 350.75 431.1 385.55 Q419.8 407.95 414.9 418.25 L411.5 425.75 M136.75 425.75 L-1.0 425.75 -3.05 425.4 -4.5 424.5 -4.5 423.0 -4.75 422.25 -4.55 421.2 -5.75 351.0 Q-5.85 349.3 -5.45 348.1 L-4.9 348.7 -2.0 350.75 187.1 350.75 Q174.8 366.95 141.6 418.25 L136.75 425.75" fill="#cccccc" fill-rule="evenodd" stroke="none"/>
      <path d="M550.75 117.75 Q552.2 131.5 552.6 170.55 L552.75 208.9 543.9 208.8 492.8 208.25 492.3 208.25 491.75 208.25 491.0 208.25 Q489.0 208.25 487.5 210.3 L487.1 210.9 Q484.8 212.9 481.3 217.5 475.25 225.45 475.25 227.25 L475.3 227.75 475.25 228.25 Q475.25 230.75 475.5 229.75 L476.2 229.8 476.3 229.9 476.45 230.0 Q477.5 230.75 479.5 230.75 L480.45 229.9 486.4 230.05 543.25 231.1 545.1 231.1 552.6 231.15 552.6 231.2 Q553.5 319.75 551.1 343.25 L-2.0 343.25 -2.5 343.5 -2.75 231.1 5.95 231.2 24.15 231.35 25.7 231.35 30.35 231.4 66.15 231.45 73.3 231.3 78.35 223.8 Q83.6 216.85 83.6 215.5 83.6 213.3 82.6 212.25 L82.35 211.1 81.6 210.5 Q80.95 209.85 4.9 208.95 L-2.85 208.85 -2.75 171.0 Q-2.3 130.95 -0.75 117.75 L550.75 117.75 M362.35 211.1 L361.6 210.5 Q360.75 209.6 221.0 208.25 219.0 208.25 217.5 210.3 L217.1 210.9 Q214.8 212.9 211.3 217.5 205.25 225.45 205.25 227.25 L205.3 227.75 205.25 228.25 Q205.25 230.75 205.5 229.75 L206.2 229.8 206.3 229.9 206.45 230.0 Q207.5 230.75 209.5 230.75 L210.45 229.9 Q256.7 231.05 305.7 231.35 L310.35 231.4 346.15 231.45 353.3 231.3 358.35 223.8 Q363.6 216.85 363.6 215.5 363.6 213.3 362.6 212.25 L362.35 211.1" fill="#4d4d4d" fill-rule="evenodd" stroke="none"/>
      <path d="M556.95 216.1 L556.95 225.95 552.65 225.9 545.05 225.8 543.4 225.8 485.35 225.15 Q492.85 217.7 494.35 214.95 L497.5 215.05 499.0 215.05 543.55 215.95 545.0 215.95 552.75 216.05 554.85 216.1 556.95 216.1 M-6.0 225.8 L-6.0 215.95 -2.85 216.0 4.9 216.1 36.7 216.35 74.3 216.45 73.4 217.5 Q72.2 218.95 68.15 224.9 68.05 226.7 10.85 226.0 L4.8 225.95 -2.8 225.85 -6.0 225.8 M354.3 216.45 L353.4 217.5 Q352.2 218.95 348.15 224.9 348.05 226.7 290.85 226.0 L215.35 225.15 Q222.85 217.7 224.35 214.95 269.25 216.05 316.7 216.35 L354.3 216.45" fill="#ffff91" fill-rule="evenodd" stroke="none"/>
    </g>
  </defs>
</svg>
