<?xml version="1.0" encoding="UTF-8" standalone="no"?>
<svg xmlns:xlink="http://www.w3.org/1999/xlink" height="842.55px" width="1337.95px" xmlns="http://www.w3.org/2000/svg">
  <g transform="matrix(1, 0, 0, 1, 407.45, 285.05)">
    <use height="4.5" transform="matrix(5.4867, 0.0, 0.0, 81.5667, 3.2875, 23.0167)" width="99.75" xlink:href="#shape0"/>
    <use height="438.6" transform="matrix(1.0, 0.0, 0.0, 1.0, -26.75, -29.75)" width="585.7" xlink:href="#shape1"/>
  </g>
  <defs>
    <g id="shape0" transform="matrix(1, 0, 0, 1, 49.85, -2.5)">
      <path d="M49.9 7.0 L-49.85 7.0 -49.85 2.5 49.9 2.5 49.9 7.0" fill="#ffffff" fill-rule="evenodd" stroke="none"/>
    </g>
    <g id="shape1" transform="matrix(1, 0, 0, 1, 26.75, 29.75)">
      <path d="M36.65 -7.75 Q33.55 -17.6 33.55 -18.5 33.55 -19.15 34.3 -20.0 34.9 -20.65 35.6 -20.9 L36.25 -21.3 Q37.4 -21.3 38.75 -20.5 L46.0 -20.05 46.5 -20.5 46.8 -19.7 46.85 -19.5 46.85 -19.45 50.75 -7.75 59.7 19.35 Q60.15 17.2 61.6 15.25 64.75 11.0 71.5 11.0 76.4 11.0 81.8 16.4 85.6 20.15 88.0 24.5 88.75 25.85 98.6 31.7 L108.25 37.35 Q88.8 69.8 76.75 69.8 69.7 69.8 65.0 66.3 L62.85 64.45 Q59.15 80.8 56.7 85.3 59.25 89.85 66.25 108.5 L75.25 133.15 Q75.25 136.2 73.1 136.25 L73.0 136.25 Q72.6 136.25 71.9 135.0 L63.65 136.05 63.7 136.25 58.15 136.25 56.65 131.1 Q53.6 117.15 52.25 113.05 L52.15 112.8 51.45 111.05 48.95 104.55 47.65 101.1 47.5 100.7 Q47.2 103.95 43.05 108.3 37.2 114.5 28.25 114.5 11.95 114.5 6.8 97.75 L5.9 93.4 Q5.25 90.55 4.0 89.05 2.3 87.0 -3.15 85.25 -6.35 84.2 -7.2 82.7 -9.45 82.2 -8.75 80.85 -8.75 79.7 -4.0 78.25 2.05 76.45 4.8 74.25 9.8 68.65 11.55 67.05 22.65 54.05 30.5 54.05 39.5 54.05 44.0 60.5 L45.6 63.15 46.15 61.45 Q51.05 46.85 51.05 40.85 51.05 36.25 42.3 9.65 L36.65 -7.75 M330.35 -7.75 Q329.05 -9.5 329.05 -10.85 329.05 -13.1 332.3 -17.95 336.4 -24.1 341.25 -24.1 345.95 -24.1 352.9 -14.5 355.3 -14.4 355.0 -11.8 355.0 -11.25 354.0 -9.75 L353.0 -7.85 353.0 -7.75 Q353.0 -6.05 353.75 -4.6 L353.8 -4.5 354.75 -3.05 355.25 -2.55 Q357.5 -0.45 357.5 2.0 357.5 3.6 356.3 6.3 355.5 8.2 354.6 9.0 L355.55 10.55 Q358.75 10.75 359.3 16.05 359.3 17.3 356.75 20.55 354.1 23.95 351.75 24.3 351.75 27.5 350.5 30.55 348.2 36.25 342.75 36.25 338.75 36.25 337.8 35.4 L336.85 34.5 334.7 36.55 Q332.7 38.55 330.25 38.55 324.85 38.55 323.3 35.0 322.8 33.85 322.75 32.45 L322.8 31.15 Q322.8 27.2 324.75 25.75 318.3 22.8 316.75 21.3 315.3 19.9 315.3 16.85 315.3 12.9 320.95 10.6 323.9 9.45 327.75 8.55 L324.8 5.5 Q323.8 4.45 323.8 2.9 323.8 1.15 325.3 -1.1 327.35 -4.1 330.5 -4.1 331.75 -4.1 334.8 -3.0 L331.0 -6.9 330.35 -7.75 M374.2 -7.75 Q373.6 -8.95 371.9 -10.6 369.25 -13.15 369.25 -16.1 369.25 -18.1 371.0 -18.1 372.55 -18.1 377.55 -11.6 L382.55 -14.55 Q387.7 -17.1 391.5 -17.1 399.25 -17.1 400.9 -13.0 401.75 -10.9 401.05 -8.35 L407.5 -9.1 Q412.2 -9.1 415.45 -7.75 417.2 -7.0 418.55 -5.85 L418.35 -0.25 418.1 12.25 418.1 13.25 416.85 13.35 414.7 14.0 Q413.75 14.45 413.0 15.15 L411.5 16.7 410.85 17.7 408.0 12.35 415.5 10.6 413.5 8.5 410.05 8.2 408.1 9.1 Q407.05 9.75 406.2 10.65 L405.25 11.6 399.6 8.15 Q401.65 2.95 406.85 3.65 L411.55 4.6 412.45 4.6 Q412.5 1.35 409.4 0.75 404.35 -0.3 400.35 2.75 398.7 4.05 397.4 5.75 L391.55 3.35 392.55 2.1 Q394.55 -0.3 397.5 -1.05 L402.2 -1.65 402.65 -1.7 Q401.95 -2.6 401.05 -2.75 397.2 -3.75 393.5 -1.8 L389.0 0.8 384.0 -1.55 395.45 -8.75 395.3 -9.05 Q394.2 -10.1 392.65 -9.9 389.05 -9.15 386.2 -6.95 L382.3 -3.85 380.75 -4.4 378.35 -1.25 Q375.5 2.3 374.55 6.7 L374.3 8.15 378.6 8.35 377.1 6.75 380.4 1.25 385.45 4.1 383.6 7.6 385.85 8.35 388.15 5.85 392.75 8.7 Q389.1 11.0 388.25 15.15 387.75 17.75 388.55 20.15 L388.8 20.75 392.5 19.8 391.15 17.3 390.9 16.2 391.15 14.2 391.4 13.4 Q392.25 12.35 393.55 11.95 L396.1 11.9 399.1 12.65 400.6 13.25 395.9 20.65 398.95 27.2 398.25 23.0 403.75 14.95 407.05 17.45 404.9 19.65 Q403.55 21.25 403.55 23.1 403.6 25.05 404.65 26.75 L404.85 27.0 407.0 26.6 405.75 23.6 408.25 20.4 410.65 22.5 408.4 26.85 410.35 28.6 412.35 26.2 417.95 36.5 418.0 46.65 Q411.1 45.65 407.25 33.55 407.75 33.25 406.5 33.25 405.8 33.25 403.35 35.25 400.9 37.25 399.25 37.25 392.95 37.25 392.05 33.0 391.75 31.6 391.95 29.3 L392.25 26.05 392.05 25.5 387.0 26.55 Q381.4 26.55 378.8 23.5 377.3 21.7 377.3 20.05 377.3 18.7 378.4 16.5 379.55 14.25 380.8 13.3 L381.05 13.0 Q378.85 14.0 376.75 14.0 372.8 14.0 369.8 11.25 367.5 9.1 367.5 8.0 367.5 3.2 371.0 -1.6 L374.5 -6.55 374.2 -7.75 M347.65 -11.65 L348.0 -12.4 345.95 -14.9 342.8 -10.75 338.3 -11.1 336.8 -8.85 338.65 -7.45 341.0 -8.1 341.35 -5.05 341.95 -4.15 342.35 -3.4 342.6 -2.55 342.55 -1.0 341.95 0.6 340.95 1.9 339.9 2.55 338.3 3.15 341.2 4.25 342.25 6.95 334.55 3.85 332.35 5.25 333.5 7.5 334.8 6.6 343.15 10.85 341.0 16.0 333.8 11.5 328.1 14.6 Q330.45 14.45 332.65 15.2 334.05 15.6 335.4 16.25 337.4 17.3 339.1 18.95 L337.0 21.75 328.1 21.3 329.9 23.3 334.25 24.15 331.05 30.6 338.4 25.15 341.2 20.8 345.75 23.7 344.0 18.25 345.4 13.25 347.25 14.45 349.75 11.85 345.75 10.2 344.65 5.4 347.3 5.2 348.95 1.3 343.8 2.25 343.45 -1.25 344.5 -1.5 346.25 -8.7 346.45 -8.6 346.65 -9.4 347.65 -11.65 M417.95 31.85 L413.85 23.8 414.15 21.6 412.4 20.5 413.1 19.15 Q414.75 16.4 418.05 16.05 L417.95 31.85 M522.6 57.95 L521.5 57.75 Q521.3 57.75 508.8 64.7 L516.1 59.4 Q521.25 55.45 521.25 54.1 521.25 52.75 519.75 52.75 509.6 57.7 504.85 60.75 L504.75 60.55 Q505.75 58.45 505.75 57.6 L505.65 57.05 Q511.9 51.55 512.75 50.25 512.2 49.25 511.25 49.25 508.85 49.25 501.25 57.5 497.95 61.05 496.15 63.4 496.8 61.3 498.0 58.9 500.75 53.3 500.75 51.85 500.75 51.0 500.45 50.85 L499.25 50.75 Q497.55 50.75 495.0 59.25 493.0 66.0 492.8 67.95 L492.75 68.35 492.95 68.3 492.8 67.95 493.05 68.3 Q498.6 76.15 501.75 77.25 504.9 78.3 506.75 79.65 508.2 78.7 511.2 77.25 L516.1 74.9 516.0 74.75 522.15 70.75 522.2 70.8 522.55 70.5 Q526.45 67.65 527.15 66.05 L527.35 65.85 527.25 65.75 Q526.7 64.75 525.75 64.75 516.55 67.85 513.75 68.55 L513.75 68.5 Q514.3 67.3 513.1 65.85 522.75 61.6 522.75 59.1 L522.6 57.95 M491.0 50.8 Q496.5 40.0 510.5 40.0 517.45 40.0 526.5 46.3 527.65 47.15 548.25 50.8 548.25 51.25 548.55 52.0 548.55 52.65 547.95 53.0 547.3 53.4 547.3 54.0 L547.0 59.85 545.25 71.1 Q545.25 72.15 546.3 76.75 547.3 81.3 547.3 82.65 547.3 84.15 546.15 87.25 544.6 91.3 542.05 94.75 534.55 104.8 521.75 104.8 507.5 104.8 504.45 95.45 503.5 92.45 503.75 88.55 L504.25 84.5 Q495.95 81.75 491.5 74.7 488.05 69.25 488.05 63.75 488.05 56.55 491.0 50.8 M513.8 79.05 L513.85 79.2 513.95 79.05 513.75 79.05 Q513.75 79.4 513.8 79.05 M517.95 78.55 L516.5 79.4 Q511.55 82.1 509.1 82.45 L509.3 83.25 Q509.65 85.4 508.55 90.0 508.55 92.7 511.05 95.55 514.7 99.8 521.75 99.8 L523.5 99.75 523.75 99.75 525.65 99.55 Q527.6 99.0 528.75 97.3 527.4 94.9 525.5 93.45 529.25 92.75 529.25 90.6 529.25 90.2 525.05 88.5 L524.15 88.15 Q527.35 87.8 529.5 86.75 531.75 85.6 531.75 84.6 531.75 82.25 522.75 81.85 525.45 81.1 528.1 79.8 533.25 77.3 533.25 76.1 L533.1 74.95 532.0 74.75 528.0 76.3 Q520.55 79.65 516.7 79.4 L517.95 78.55 M425.6 22.2 L425.6 13.5 425.7 11.6 425.75 10.6 426.5 11.1 Q428.25 12.6 428.25 16.05 428.25 18.3 426.65 20.8 L425.6 22.2 M425.6 28.8 L428.15 30.3 Q432.25 32.95 432.25 34.8 432.25 38.25 430.0 41.55 428.25 44.15 425.6 45.45 L425.6 28.8 M275.55 72.75 L275.45 72.85 Q274.5 73.8 271.15 79.2 267.8 84.5 267.0 84.5 265.75 84.5 265.5 83.2 L265.5 81.75 Q265.5 78.75 267.5 70.75 262.85 81.5 262.25 81.5 259.75 81.5 258.9 77.35 L258.3 71.8 Q257.95 79.55 256.0 79.55 254.95 79.55 253.2 76.25 251.55 73.2 251.55 72.25 250.15 75.85 250.15 76.95 L250.5 80.8 250.25 82.3 249.9 82.7 Q251.65 85.05 255.8 87.9 L268.1 96.35 278.1 84.25 283.45 78.05 271.0 86.5 Q269.75 86.5 269.25 85.5 269.0 85.0 269.0 84.35 269.0 83.3 272.0 78.4 274.7 74.0 275.55 73.05 L275.55 72.75 M280.8 73.0 L280.75 72.8 280.5 73.05 280.8 73.0 M244.5 79.1 Q244.5 71.6 250.0 64.8 258.7 54.0 277.5 54.0 281.05 54.0 298.8 58.25 300.75 58.25 305.3 57.0 309.85 55.75 311.0 55.75 313.35 55.75 313.25 58.0 L310.5 64.25 Q307.75 70.75 307.75 73.0 307.75 73.95 309.55 81.0 311.3 88.05 311.3 94.0 311.3 102.05 308.35 109.25 303.05 122.05 290.5 122.05 278.1 122.05 270.55 113.5 268.05 110.65 266.5 107.3 265.6 105.45 265.4 104.5 L257.0 112.15 Q246.3 121.35 243.4 124.7 242.3 129.3 239.0 135.55 237.8 134.3 237.8 133.8 241.0 122.35 241.0 119.15 241.0 109.25 232.9 98.75 L227.35 92.1 225.9 90.3 Q224.75 92.7 221.55 95.5 215.75 100.55 208.75 100.55 199.3 100.55 194.05 92.75 190.55 87.5 190.55 83.65 190.55 79.95 192.05 77.3 192.65 76.3 195.4 73.05 200.25 67.35 200.25 58.0 200.25 54.05 202.0 54.05 L202.95 54.35 Q203.35 54.0 204.0 54.0 204.95 54.0 205.3 54.65 L206.0 56.0 Q207.6 58.0 215.0 58.0 L225.75 57.05 Q236.4 57.05 240.45 63.5 242.55 66.75 242.55 70.9 242.55 75.95 240.25 80.75 236.85 87.8 229.9 88.25 233.25 91.4 239.05 99.75 244.25 107.0 244.25 113.0 L244.05 119.85 Q247.25 114.5 254.9 107.35 259.85 102.7 264.8 98.95 256.1 98.0 249.75 89.55 247.4 86.4 245.75 82.75 244.5 79.9 244.5 79.1 M281.75 89.6 Q281.75 88.5 283.75 84.0 L281.3 86.7 Q271.2 97.7 268.7 101.6 L268.85 101.95 Q270.55 105.35 272.55 107.9 279.45 116.55 290.35 116.55 L294.8 115.95 294.8 115.85 Q294.8 115.05 297.65 112.1 L300.75 109.05 300.55 108.8 Q292.25 113.3 289.5 113.3 L287.75 112.75 Q287.55 112.5 287.55 111.25 287.55 111.05 293.1 107.6 299.25 103.75 301.75 98.8 L301.8 98.5 Q299.15 99.0 294.3 101.75 289.75 104.3 288.75 104.3 286.55 104.3 286.55 102.6 286.55 101.5 291.9 96.25 L297.55 90.75 297.55 90.55 297.45 90.65 Q287.85 98.55 286.5 98.55 284.8 98.55 284.8 96.6 284.8 96.15 288.3 91.6 292.1 86.6 293.05 83.75 285.5 92.75 283.5 92.75 282.95 92.75 281.8 92.05 L281.75 89.6 M305.75 61.75 L305.75 62.0 305.75 61.75 M289.25 82.3 L289.35 82.25 289.25 82.0 289.25 82.3 M207.65 89.25 L208.3 89.1 207.65 89.25 M202.25 95.25 L202.2 95.35 202.25 95.4 Q203.7 96.2 205.35 96.65 204.9 96.1 211.3 96.05 L212.0 96.8 212.65 96.65 214.1 96.25 214.6 96.05 214.7 96.05 214.65 96.05 215.3 95.8 219.2 93.3 219.75 92.75 220.4 92.1 223.45 88.5 225.05 87.05 Q225.5 86.3 226.75 86.3 L226.8 86.3 Q227.25 85.8 231.0 83.1 L232.55 82.0 236.25 77.2 236.25 76.2 236.25 75.0 236.1 70.95 233.5 65.25 Q232.25 66.15 232.25 67.5 232.25 69.15 233.0 70.85 L233.6 72.7 Q229.0 63.25 226.25 63.25 L225.05 63.35 Q224.75 63.5 224.75 64.35 L229.65 71.5 230.2 72.35 228.95 71.3 227.0 69.6 Q220.1 63.75 219.25 63.75 L218.05 63.85 Q217.75 64.0 217.75 64.85 217.75 65.55 223.0 70.95 L223.05 71.05 223.1 71.05 227.4 75.4 Q224.35 74.7 220.65 71.65 L220.5 71.55 219.9 71.05 218.65 69.85 Q216.4 67.75 215.25 67.75 L214.05 67.85 Q213.75 68.0 213.75 68.85 213.75 69.4 214.5 70.4 215.1 71.5 217.05 73.35 L217.8 74.05 220.1 75.9 218.4 76.95 224.25 83.05 226.3 85.0 Q226.3 86.0 225.75 86.05 L225.1 85.8 Q222.05 84.4 219.25 82.25 L219.75 82.25 219.95 82.25 Q216.15 79.1 211.3 73.75 L211.45 74.05 209.8 71.7 209.45 71.1 209.3 71.2 206.5 68.75 205.3 69.0 205.25 70.25 Q205.25 71.65 209.75 76.5 L211.35 78.1 214.55 80.6 214.15 81.0 Q212.15 80.75 209.95 79.7 L208.55 79.0 Q207.45 78.4 205.35 76.2 203.5 74.25 203.0 74.25 201.75 74.25 201.75 76.0 201.75 77.6 206.35 81.05 L207.7 82.05 202.5 81.75 201.4 81.95 Q201.25 82.15 201.25 83.1 201.25 83.9 204.3 85.75 L205.4 86.4 206.25 86.8 205.25 87.0 205.05 87.05 Q199.75 88.35 199.75 88.75 199.75 89.45 203.7 93.05 L204.55 93.8 204.9 94.1 203.95 93.85 203.5 93.75 202.3 94.0 202.25 95.25 M299.75 94.3 L299.75 94.55 299.8 94.55 299.75 94.3 M83.55 28.1 L81.65 25.8 81.6 25.7 69.25 25.25 74.55 17.9 Q72.35 16.15 70.3 15.85 L65.9 17.35 64.65 17.85 Q64.1 18.5 63.7 19.4 L62.7 21.9 62.65 22.0 Q62.1 23.0 61.25 23.0 L60.9 22.95 60.95 23.1 65.9 38.5 66.15 38.4 70.8 37.7 75.5 37.25 79.7 36.95 Q85.25 35.25 85.25 34.6 85.25 33.25 81.35 32.15 L76.0 30.75 Q79.4 29.55 82.45 28.85 83.2 28.6 83.55 28.1 M87.95 42.1 L82.0 42.25 75.3 42.15 75.45 42.2 75.3 42.2 74.05 42.15 67.0 41.5 66.85 41.45 67.25 43.05 63.9 59.6 65.25 59.95 68.2 61.45 Q67.75 59.45 67.8 58.3 68.9 58.85 69.85 60.1 70.4 60.75 72.5 60.75 73.25 60.75 74.25 59.25 L71.55 55.5 72.25 55.5 79.5 55.75 Q79.75 56.25 79.75 55.0 79.75 53.4 77.55 52.0 87.75 53.25 87.75 50.1 87.75 49.05 83.25 47.15 79.3 45.55 76.9 45.5 89.75 45.05 89.75 43.0 L87.95 42.1 M75.45 42.2 L79.75 42.5 75.45 42.65 75.45 42.2 M16.3 94.25 L19.75 94.75 30.9 93.95 Q28.85 95.75 25.75 98.6 25.75 99.85 27.0 100.25 L32.35 96.4 32.85 96.05 32.7 96.5 30.75 101.35 Q30.75 102.0 31.25 102.5 L32.25 102.75 Q32.8 102.75 34.05 101.35 L35.55 99.55 Q35.75 100.3 35.35 102.75 35.15 104.05 37.0 104.75 L40.15 102.6 Q44.75 99.2 44.75 97.6 44.75 96.55 43.5 96.25 L41.4 98.0 42.0 93.7 Q42.4 91.0 43.8 90.85 L42.0 85.8 41.65 84.7 41.65 84.65 41.25 84.85 41.0 83.2 41.25 83.15 41.25 83.05 41.0 83.1 41.0 83.0 39.75 82.75 32.25 83.8 24.0 83.15 18.0 82.75 Q11.25 82.75 11.25 84.35 L11.3 85.05 Q14.3 86.8 27.25 88.75 L31.5 88.7 Q30.3 89.6 29.05 90.05 L22.35 91.45 Q17.6 92.25 16.25 93.3 16.45 93.6 16.3 94.25 M35.8 59.35 L35.75 60.25 Q35.75 62.75 37.05 65.0 30.55 62.1 23.25 61.8 L23.05 61.95 20.95 63.9 26.75 64.6 Q33.45 66.0 35.75 69.5 L21.1 68.8 Q18.75 68.65 18.75 69.85 L18.8 70.55 24.1 70.85 Q29.05 70.8 31.75 73.5 L22.7 74.5 Q20.75 74.85 20.75 75.85 20.75 77.95 29.0 76.9 L29.05 76.9 29.05 77.05 24.85 78.85 Q22.75 79.9 22.75 81.1 22.75 82.35 24.0 82.75 L25.1 82.1 30.25 82.25 35.55 82.0 41.3 81.45 41.55 79.35 Q42.1 74.8 44.0 68.25 42.9 66.2 41.3 64.15 L39.6 62.2 39.0 61.6 Q37.45 60.2 35.8 59.35" fill="#fa8f63" fill-rule="evenodd" stroke="none"/>
      <path d="M50.75 -7.75 L151.3 -7.75 Q151.0 -4.45 150.85 -0.25 L150.25 19.5 Q149.95 39.6 150.25 60.0 150.25 110.05 150.5 136.25 L73.1 136.25 Q75.25 136.2 75.25 133.15 L66.25 108.5 Q59.25 89.85 56.7 85.3 59.15 80.8 62.85 64.45 L65.0 66.3 Q69.7 69.8 76.75 69.8 88.8 69.8 108.25 37.35 L98.6 31.7 Q88.75 25.85 88.0 24.5 85.6 20.15 81.8 16.4 76.4 11.0 71.5 11.0 64.75 11.0 61.6 15.25 60.15 17.2 59.7 19.35 L50.75 -7.75 M157.0 -7.75 L330.35 -7.75 331.0 -6.9 334.8 -3.0 Q331.75 -4.1 330.5 -4.1 327.35 -4.1 325.3 -1.1 323.8 1.15 323.8 2.9 323.8 4.45 324.8 5.5 L327.75 8.55 Q323.9 9.45 320.95 10.6 315.3 12.9 315.3 16.85 315.3 19.9 316.75 21.3 318.3 22.8 324.75 25.75 322.8 27.2 322.8 31.15 L322.75 32.45 Q322.8 33.85 323.3 35.0 324.85 38.55 330.25 38.55 332.7 38.55 334.7 36.55 L336.85 34.5 337.8 35.4 Q338.75 36.25 342.75 36.25 348.2 36.25 350.5 30.55 351.75 27.5 351.75 24.3 354.1 23.95 356.75 20.55 359.3 17.3 359.3 16.05 358.75 10.75 355.55 10.55 L354.6 9.0 Q355.5 8.2 356.3 6.3 357.5 3.6 357.5 2.0 357.5 -0.45 355.25 -2.55 L354.75 -3.05 353.8 -4.5 353.75 -4.6 Q353.0 -6.05 353.0 -7.75 L374.2 -7.75 374.5 -6.55 371.0 -1.6 Q367.5 3.2 367.5 8.0 367.5 9.1 369.8 11.25 372.8 14.0 376.75 14.0 378.85 14.0 381.05 13.0 L380.8 13.3 Q379.55 14.25 378.4 16.5 377.3 18.7 377.3 20.05 377.3 21.7 378.8 23.5 381.4 26.55 387.0 26.55 L392.05 25.5 392.25 26.05 391.95 29.3 Q391.75 31.6 392.05 33.0 392.95 37.25 399.25 37.25 400.9 37.25 403.35 35.25 405.8 33.25 406.5 33.25 407.75 33.25 407.25 33.55 411.1 45.65 418.0 46.65 L418.1 56.1 Q417.8 78.95 418.1 100.0 418.5 126.6 419.9 136.25 L156.0 136.25 Q158.7 121.7 157.75 60.0 158.35 19.95 157.45 -0.25 L157.0 -7.75 M415.45 -7.75 L418.65 -7.75 418.55 -5.85 Q417.2 -7.0 415.45 -7.75 M426.3 -7.75 L540.3 -7.75 540.35 -7.8 Q541.9 -8.75 546.85 -8.75 552.5 -8.75 554.1 -6.95 L554.35 -6.55 Q555.6 -5.55 555.6 -3.85 555.6 -2.45 554.15 -1.3 552.95 -0.35 551.85 -0.25 L551.15 -0.25 Q553.5 14.15 552.6 66.35 553.6 125.3 550.5 136.25 L424.0 136.25 Q426.55 120.0 425.6 55.85 L425.6 45.45 Q428.25 44.15 430.0 41.55 432.25 38.25 432.25 34.8 432.25 32.95 428.15 30.3 L425.6 28.8 425.6 22.2 426.65 20.8 Q428.25 18.3 428.25 16.05 428.25 12.6 426.5 11.1 L425.75 10.6 426.1 1.1 426.3 -7.75 M-7.9 136.25 Q-10.7 123.85 -9.75 67.6 -10.9 0.45 -6.65 -4.35 -6.25 -6.4 -3.0 -7.75 L36.65 -7.75 42.3 9.65 Q51.05 36.25 51.05 40.85 51.05 46.85 46.15 61.45 L45.6 63.15 44.0 60.5 Q39.5 54.05 30.5 54.05 22.65 54.05 11.55 67.05 9.8 68.65 4.8 74.25 2.05 76.45 -4.0 78.25 -8.75 79.7 -8.75 80.85 -9.45 82.2 -7.2 82.7 -6.35 84.2 -3.15 85.25 2.3 87.0 4.0 89.05 5.25 90.55 5.9 93.4 L6.8 97.75 Q11.95 114.5 28.25 114.5 37.2 114.5 43.05 108.3 47.2 103.95 47.5 100.7 L47.65 101.1 48.95 104.55 51.45 111.05 52.15 112.8 52.25 113.05 Q53.6 117.15 56.65 131.1 L58.15 136.25 -7.9 136.25 M63.7 136.25 L63.65 136.05 71.9 135.0 Q72.6 136.25 73.0 136.25 L63.7 136.25 M346.25 -8.7 L344.5 -1.5 343.45 -1.25 343.8 2.25 348.95 1.3 347.3 5.2 344.65 5.4 345.75 10.2 349.75 11.85 347.25 14.45 345.4 13.25 344.0 18.25 345.75 23.7 341.2 20.8 338.4 25.15 331.05 30.6 334.25 24.15 329.9 23.3 328.1 21.3 337.0 21.75 339.1 18.95 Q337.4 17.3 335.4 16.25 334.05 15.6 332.65 15.2 330.45 14.45 328.1 14.6 L333.8 11.5 341.0 16.0 343.15 10.85 334.8 6.6 333.5 7.5 332.35 5.25 334.55 3.85 342.25 6.95 341.2 4.25 338.3 3.15 339.9 2.55 340.95 1.9 341.95 0.6 342.55 -1.0 342.6 -2.55 342.35 -3.4 341.95 -4.15 341.35 -5.05 341.0 -8.1 338.65 -7.45 336.8 -8.85 338.3 -11.1 342.8 -10.75 345.95 -14.9 348.0 -12.4 347.65 -11.65 346.25 -8.7 M417.95 36.5 L412.35 26.2 410.35 28.6 408.4 26.85 410.65 22.5 408.25 20.4 405.75 23.6 407.0 26.6 404.85 27.0 404.65 26.75 Q403.6 25.05 403.55 23.1 403.55 21.25 404.9 19.65 L407.05 17.45 403.75 14.95 398.25 23.0 398.95 27.2 395.9 20.65 400.6 13.25 399.1 12.65 396.1 11.9 393.55 11.95 Q392.25 12.35 391.4 13.4 L391.15 14.2 390.9 16.2 391.15 17.3 392.5 19.8 388.8 20.75 388.55 20.15 Q387.75 17.75 388.25 15.15 389.1 11.0 392.75 8.7 L388.15 5.85 385.85 8.35 383.6 7.6 385.45 4.1 380.4 1.25 377.1 6.75 378.6 8.35 374.3 8.15 374.55 6.7 Q375.5 2.3 378.35 -1.25 L380.75 -4.4 382.3 -3.85 386.2 -6.95 Q389.05 -9.15 392.65 -9.9 394.2 -10.1 395.3 -9.05 L395.45 -8.75 384.0 -1.55 389.0 0.8 393.5 -1.8 Q397.2 -3.75 401.05 -2.75 401.95 -2.6 402.65 -1.7 L402.2 -1.65 397.5 -1.05 Q394.55 -0.3 392.55 2.1 L391.55 3.35 397.4 5.75 Q398.7 4.05 400.35 2.75 404.35 -0.3 409.4 0.75 412.5 1.35 412.45 4.6 L411.55 4.6 406.85 3.65 Q401.65 2.95 399.6 8.15 L405.25 11.6 406.2 10.65 Q407.05 9.75 408.1 9.1 L410.05 8.2 413.5 8.5 415.5 10.6 408.0 12.35 410.85 17.7 411.5 16.7 413.0 15.15 Q413.75 14.45 414.7 14.0 L416.85 13.35 418.1 13.25 418.05 16.05 Q414.75 16.4 413.1 19.15 L412.4 20.5 414.15 21.6 413.85 23.8 417.95 31.85 417.95 36.5 M522.6 57.95 L522.75 59.1 Q522.75 61.6 513.1 65.85 514.3 67.3 513.75 68.5 L513.75 68.55 Q516.55 67.85 525.75 64.75 526.7 64.75 527.25 65.75 L527.35 65.85 527.15 66.05 Q526.45 67.65 522.55 70.5 L522.2 70.8 522.15 70.75 516.0 74.75 516.1 74.9 511.2 77.25 Q508.2 78.7 506.75 79.65 504.9 78.3 501.75 77.25 498.6 76.15 493.05 68.3 L492.8 67.95 492.95 68.3 492.75 68.35 492.8 67.95 Q493.0 66.0 495.0 59.25 497.55 50.75 499.25 50.75 L500.45 50.85 Q500.75 51.0 500.75 51.85 500.75 53.3 498.0 58.9 496.8 61.3 496.15 63.4 497.95 61.05 501.25 57.5 508.85 49.25 511.25 49.25 512.2 49.25 512.75 50.25 511.9 51.55 505.65 57.05 L505.75 57.6 Q505.75 58.45 504.75 60.55 L504.85 60.75 Q509.6 57.7 519.75 52.75 521.25 52.75 521.25 54.1 521.25 55.45 516.1 59.4 L508.8 64.7 Q521.3 57.75 521.5 57.75 L522.6 57.95 M491.0 50.8 Q488.05 56.55 488.05 63.75 488.05 69.25 491.5 74.7 495.95 81.75 504.25 84.5 L503.75 88.55 Q503.5 92.45 504.45 95.45 507.5 104.8 521.75 104.8 534.55 104.8 542.05 94.75 544.6 91.3 546.15 87.25 547.3 84.15 547.3 82.65 547.3 81.3 546.3 76.75 545.25 72.15 545.25 71.1 L547.0 59.85 547.3 54.0 Q547.3 53.4 547.95 53.0 548.55 52.65 548.55 52.0 548.25 51.25 548.25 50.8 527.65 47.15 526.5 46.3 517.45 40.0 510.5 40.0 496.5 40.0 491.0 50.8 M517.95 78.55 L516.7 79.4 Q520.55 79.65 528.0 76.3 L532.0 74.75 533.1 74.95 533.25 76.1 Q533.25 77.3 528.1 79.8 525.45 81.1 522.75 81.85 531.75 82.25 531.75 84.6 531.75 85.6 529.5 86.75 527.35 87.8 524.15 88.15 L525.05 88.5 Q529.25 90.2 529.25 90.6 529.25 92.75 525.5 93.45 527.4 94.9 528.75 97.3 527.6 99.0 525.65 99.55 L523.75 99.75 523.5 99.75 521.75 99.8 Q514.7 99.8 511.05 95.55 508.55 92.7 508.55 90.0 509.65 85.4 509.3 83.25 L509.1 82.45 Q511.55 82.1 516.5 79.4 L517.95 78.55 M513.8 79.05 Q513.75 79.4 513.75 79.05 L513.95 79.05 513.85 79.2 513.8 79.05 M275.55 72.75 L275.55 73.05 Q274.7 74.0 272.0 78.4 269.0 83.3 269.0 84.35 269.0 85.0 269.25 85.5 269.75 86.5 271.0 86.5 L283.45 78.05 278.1 84.25 268.1 96.35 255.8 87.9 Q251.65 85.05 249.9 82.7 L250.25 82.3 250.5 80.8 250.15 76.95 Q250.15 75.85 251.55 72.25 251.55 73.2 253.2 76.25 254.95 79.55 256.0 79.55 257.95 79.55 258.3 71.8 L258.9 77.35 Q259.75 81.5 262.25 81.5 262.85 81.5 267.5 70.75 265.5 78.75 265.5 81.75 L265.5 83.2 Q265.75 84.5 267.0 84.5 267.8 84.5 271.15 79.2 274.5 73.8 275.45 72.85 L275.55 72.75 M280.8 73.0 L280.5 73.05 280.75 72.8 280.8 73.0 M289.25 82.3 L289.25 82.0 289.35 82.25 289.25 82.3 M305.75 61.75 L305.75 62.0 305.75 61.75 M281.75 89.6 L281.8 92.05 Q282.95 92.75 283.5 92.75 285.5 92.75 293.05 83.75 292.1 86.6 288.3 91.6 284.8 96.15 284.8 96.6 284.8 98.55 286.5 98.55 287.85 98.55 297.45 90.65 L297.55 90.55 297.55 90.75 291.9 96.25 Q286.55 101.5 286.55 102.6 286.55 104.3 288.75 104.3 289.75 104.3 294.3 101.75 299.15 99.0 301.8 98.5 L301.75 98.8 Q299.25 103.75 293.1 107.6 287.55 111.05 287.55 111.25 287.55 112.5 287.75 112.75 L289.5 113.3 Q292.25 113.3 300.55 108.8 L300.75 109.05 297.65 112.1 Q294.8 115.05 294.8 115.85 L294.8 115.95 290.35 116.55 Q279.45 116.55 272.55 107.9 270.55 105.35 268.85 101.95 L268.7 101.6 Q271.2 97.7 281.3 86.7 L283.75 84.0 Q281.75 88.5 281.75 89.6 M244.5 79.1 Q244.5 79.9 245.75 82.75 247.4 86.4 249.75 89.55 256.1 98.0 264.8 98.95 259.85 102.7 254.9 107.35 247.25 114.5 244.05 119.85 L244.25 113.0 Q244.25 107.0 239.05 99.75 233.25 91.4 229.9 88.25 236.85 87.8 240.25 80.75 242.55 75.95 242.55 70.9 242.55 66.75 240.45 63.5 236.4 57.05 225.75 57.05 L215.0 58.0 Q207.6 58.0 206.0 56.0 L205.3 54.65 Q204.95 54.0 204.0 54.0 203.35 54.0 202.95 54.35 L202.0 54.05 Q200.25 54.05 200.25 58.0 200.25 67.35 195.4 73.05 192.65 76.3 192.05 77.3 190.55 79.95 190.55 83.65 190.55 87.5 194.05 92.75 199.3 100.55 208.75 100.55 215.75 100.55 221.55 95.5 224.75 92.7 225.9 90.3 L227.35 92.1 232.9 98.75 Q241.0 109.25 241.0 119.15 241.0 122.35 237.8 133.8 237.8 134.3 239.0 135.55 242.3 129.3 243.4 124.7 246.3 121.35 257.0 112.15 L265.4 104.5 Q265.6 105.45 266.5 107.3 268.05 110.65 270.55 113.5 278.1 122.05 290.5 122.05 303.05 122.05 308.35 109.25 311.3 102.05 311.3 94.0 311.3 88.05 309.55 81.0 307.75 73.95 307.75 73.0 307.75 70.75 310.5 64.25 L313.25 58.0 Q313.35 55.75 311.0 55.75 309.85 55.75 305.3 57.0 300.75 58.25 298.8 58.25 281.05 54.0 277.5 54.0 258.7 54.0 250.0 64.8 244.5 71.6 244.5 79.1 M299.75 94.3 L299.8 94.55 299.75 94.55 299.75 94.3 M202.25 95.25 L202.3 94.0 203.5 93.75 203.95 93.85 204.9 94.1 204.55 93.8 203.7 93.05 Q199.75 89.45 199.75 88.75 199.75 88.35 205.05 87.05 L205.25 87.0 206.25 86.8 205.4 86.4 204.3 85.75 Q201.25 83.9 201.25 83.1 201.25 82.15 201.4 81.95 L202.5 81.75 207.7 82.05 206.35 81.05 Q201.75 77.6 201.75 76.0 201.75 74.25 203.0 74.25 203.5 74.25 205.35 76.2 207.45 78.4 208.55 79.0 L209.95 79.7 Q212.15 80.75 214.15 81.0 L214.55 80.6 211.35 78.1 209.75 76.5 Q205.25 71.65 205.25 70.25 L205.3 69.0 206.5 68.75 209.3 71.2 209.45 71.1 209.8 71.7 211.45 74.05 211.3 73.75 Q216.15 79.1 219.95 82.25 L219.75 82.25 219.25 82.25 Q222.05 84.4 225.1 85.8 L225.75 86.05 Q226.3 86.0 226.3 85.0 L224.25 83.05 218.4 76.95 220.1 75.9 217.8 74.05 217.05 73.35 Q215.1 71.5 214.5 70.4 213.75 69.4 213.75 68.85 213.75 68.0 214.05 67.85 L215.25 67.75 Q216.4 67.75 218.65 69.85 L219.9 71.05 220.5 71.55 220.65 71.65 Q224.35 74.7 227.4 75.4 L223.1 71.05 223.05 71.05 223.0 70.95 Q217.75 65.55 217.75 64.85 217.75 64.0 218.05 63.85 L219.25 63.75 Q220.1 63.75 227.0 69.6 L228.95 71.3 230.2 72.35 229.65 71.5 224.75 64.35 Q224.75 63.5 225.05 63.35 L226.25 63.25 Q229.0 63.25 233.6 72.7 L233.0 70.85 Q232.25 69.15 232.25 67.5 232.25 66.15 233.5 65.25 L236.1 70.95 236.25 75.0 236.25 76.2 236.25 77.2 232.55 82.0 231.0 83.1 Q227.25 85.8 226.8 86.3 L226.75 86.3 Q225.5 86.3 225.05 87.05 L223.45 88.5 220.4 92.1 219.75 92.75 219.2 93.3 215.3 95.8 214.65 96.05 214.7 96.05 214.6 96.05 214.1 96.25 212.65 96.65 212.0 96.8 211.3 96.05 Q204.9 96.1 205.35 96.65 203.7 96.2 202.25 95.4 L202.2 95.35 202.25 95.25 M207.65 89.25 L208.3 89.1 207.65 89.25 M83.55 28.1 Q83.2 28.6 82.45 28.85 79.4 29.55 76.0 30.75 L81.35 32.15 Q85.25 33.25 85.25 34.6 85.25 35.25 79.7 36.95 L75.5 37.25 70.8 37.7 66.15 38.4 65.9 38.5 60.95 23.1 60.9 22.95 61.25 23.0 Q62.1 23.0 62.65 22.0 L62.7 21.9 63.7 19.4 Q64.1 18.5 64.65 17.85 L65.9 17.35 70.3 15.85 Q72.35 16.15 74.55 17.9 L69.25 25.25 81.6 25.7 81.65 25.8 83.55 28.1 M87.95 42.1 L89.75 43.0 Q89.75 45.05 76.9 45.5 79.3 45.55 83.25 47.15 87.75 49.05 87.75 50.1 87.75 53.25 77.55 52.0 79.75 53.4 79.75 55.0 79.75 56.25 79.5 55.75 L72.25 55.5 71.55 55.5 74.25 59.25 Q73.25 60.75 72.5 60.75 70.4 60.75 69.85 60.1 68.9 58.85 67.8 58.3 67.75 59.45 68.2 61.45 L65.25 59.95 63.9 59.6 67.25 43.05 66.85 41.45 67.0 41.5 74.05 42.15 75.3 42.2 75.45 42.2 75.3 42.15 82.0 42.25 87.95 42.1 M75.45 42.2 L75.45 42.65 79.75 42.5 75.45 42.2 M35.8 59.35 Q37.45 60.2 39.0 61.6 L39.6 62.2 41.3 64.15 Q42.9 66.2 44.0 68.25 42.1 74.8 41.55 79.35 L41.3 81.45 35.55 82.0 30.25 82.25 25.1 82.1 24.0 82.75 Q22.75 82.35 22.75 81.1 22.75 79.9 24.85 78.85 L29.05 77.05 29.05 76.9 29.0 76.9 Q20.75 77.95 20.75 75.85 20.75 74.85 22.7 74.5 L31.75 73.5 Q29.05 70.8 24.1 70.85 L18.8 70.55 18.75 69.85 Q18.75 68.65 21.1 68.8 L35.75 69.5 Q33.45 66.0 26.75 64.6 L20.95 63.9 23.05 61.95 23.25 61.8 Q30.55 62.1 37.05 65.0 35.75 62.75 35.75 60.25 L35.8 59.35 M16.3 94.25 Q16.45 93.6 16.25 93.3 17.6 92.25 22.35 91.45 L29.05 90.05 Q30.3 89.6 31.5 88.7 L27.25 88.75 Q14.3 86.8 11.3 85.05 L11.25 84.35 Q11.25 82.75 18.0 82.75 L24.0 83.15 32.25 83.8 39.75 82.75 41.0 83.0 41.0 83.1 41.25 83.05 41.25 83.15 41.0 83.2 41.25 84.85 41.65 84.65 41.65 84.7 42.0 85.8 43.8 90.85 Q42.4 91.0 42.0 93.7 L41.4 98.0 43.5 96.25 Q44.75 96.55 44.75 97.6 44.75 99.2 40.15 102.6 L37.0 104.75 Q35.15 104.05 35.35 102.75 35.75 100.3 35.55 99.55 L34.05 101.35 Q32.8 102.75 32.25 102.75 L31.25 102.5 Q30.75 102.0 30.75 101.35 L32.7 96.5 32.85 96.05 32.35 96.4 27.0 100.25 Q25.75 99.85 25.75 98.6 28.85 95.75 30.9 93.95 L19.75 94.75 16.3 94.25" fill="#eedc44" fill-rule="evenodd" stroke="none"/>
      <path d="M151.3 -7.75 Q152.1 -18.6 153.45 -20.4 L154.0 -20.75 Q156.0 -20.75 157.0 -7.75 L157.45 -0.25 Q158.35 19.95 157.75 60.0 158.7 121.7 156.0 136.25 L419.9 136.25 Q418.5 126.6 418.1 100.0 417.8 78.95 418.1 56.1 L418.0 46.65 417.95 36.5 417.95 31.85 418.05 16.05 418.1 13.25 418.1 12.25 418.35 -0.25 418.55 -5.85 418.65 -7.75 Q419.55 -29.75 421.85 -29.75 426.2 -29.75 426.3 -12.8 L426.3 -7.75 426.1 1.1 425.75 10.6 425.7 11.6 425.6 13.5 425.6 22.2 425.6 28.8 425.6 45.45 425.6 55.85 Q426.55 120.0 424.0 136.25 L550.5 136.25 558.95 136.25 558.95 143.75 554.7 143.75 547.15 143.75 547.1 143.75 -7.5 143.75 -20.0 143.75 -22.9 141.7 Q-23.75 141.05 -23.75 140.25 -23.75 137.9 -20.0 136.25 L-7.9 136.25 58.15 136.25 63.7 136.25 73.0 136.25 73.1 136.25 150.5 136.25 Q150.25 110.05 150.25 60.0 149.95 39.6 150.25 19.5 L150.85 -0.25 Q151.0 -4.45 151.3 -7.75 M553.7 166.25 L558.95 166.25 558.95 173.8 521.9 173.85 Q530.0 188.2 554.35 239.6 L558.95 239.4 558.95 246.55 557.6 246.5 558.95 249.35 558.95 271.45 Q548.65 250.35 536.75 225.1 515.85 180.7 514.4 173.85 L432.0 174.0 Q441.65 191.2 473.95 259.95 505.65 327.45 524.05 366.0 532.5 365.35 558.95 365.25 L558.95 371.5 526.4 370.9 534.15 387.0 538.6 396.1 539.0 397.0 542.25 403.6 544.75 408.6 542.95 408.85 542.0 408.85 539.0 408.25 537.45 408.3 534.65 403.6 530.3 396.1 525.8 388.15 525.65 387.85 524.85 386.4 524.05 384.75 523.85 384.3 521.75 379.1 Q519.45 373.8 514.25 364.35 508.8 354.5 506.75 350.0 488.2 309.9 478.5 290.75 L460.4 253.75 455.15 254.05 Q446.85 254.25 380.65 252.85 L383.95 259.95 Q425.45 348.25 444.15 387.0 L448.6 396.1 449.0 397.0 452.25 403.6 454.75 408.6 452.95 408.85 452.0 408.85 449.0 408.25 447.45 408.3 444.65 403.6 440.3 396.1 435.8 388.15 435.65 387.85 434.85 386.4 434.05 384.75 433.85 384.3 431.75 379.1 429.25 373.75 423.9 374.05 Q415.35 374.25 347.4 372.9 L354.15 387.0 358.6 396.1 359.0 397.0 362.25 403.6 364.75 408.6 362.95 408.85 362.0 408.85 359.0 408.25 357.45 408.3 354.65 403.6 350.3 396.1 345.8 388.15 345.65 387.85 344.85 386.4 344.05 384.75 343.85 384.3 341.75 379.1 Q339.45 373.8 334.25 364.35 328.8 354.5 326.75 350.0 308.2 309.9 298.5 290.75 L280.95 254.95 278.8 255.0 Q269.25 255.2 201.15 253.95 L203.95 259.95 Q236.5 329.2 255.0 367.95 L256.2 367.75 255.5 369.0 264.15 387.0 268.6 396.1 269.0 397.0 272.25 403.6 274.75 408.6 272.95 408.85 272.0 408.85 269.0 408.25 267.45 408.3 264.65 403.6 260.3 396.1 255.8 388.15 255.65 387.85 254.85 386.4 254.05 384.75 253.85 384.3 251.75 379.1 250.8 376.95 248.15 377.05 Q239.45 377.25 168.8 375.85 L174.15 387.0 178.6 396.1 179.0 397.0 182.25 403.6 184.75 408.6 182.95 408.85 182.0 408.85 179.0 408.25 177.45 408.3 174.65 403.6 170.3 396.1 165.8 388.15 165.65 387.85 164.85 386.4 164.05 384.75 163.85 384.3 161.75 379.1 Q159.45 373.8 154.25 364.35 148.8 354.5 146.75 350.0 128.2 309.9 118.5 290.75 L103.4 260.0 101.2 260.05 Q92.65 260.25 23.45 258.85 L23.95 259.95 Q65.45 348.25 84.15 387.0 L88.6 396.1 89.0 397.0 92.25 403.6 94.75 408.6 92.95 408.85 92.0 408.85 89.0 408.25 87.45 408.3 84.65 403.6 80.3 396.1 75.8 388.15 75.65 387.85 74.85 386.4 74.05 384.75 73.85 384.3 73.2 382.65 68.15 382.9 Q58.55 383.1 -14.5 381.75 -14.75 382.75 -14.75 380.25 L-14.75 380.2 -14.85 380.1 -15.0 379.8 -15.7 378.5 Q-15.95 377.95 -14.9 377.6 L-13.5 377.25 Q-7.2 376.25 30.5 376.25 L69.7 374.65 64.25 364.35 Q58.8 354.5 56.75 350.0 38.2 309.9 28.5 290.75 14.35 262.5 -3.25 225.1 L-14.8 200.2 -20.6 187.0 Q-25.75 175.05 -25.75 173.0 L-25.75 172.95 Q-26.75 171.75 -26.75 169.75 -26.75 165.95 -23.0 166.25 L-7.8 166.25 553.7 166.25 M342.05 174.15 Q350.95 189.9 378.35 248.05 386.95 247.25 418.85 247.25 L456.55 245.75 446.75 225.1 Q426.1 181.25 424.4 174.0 L342.05 174.15 M356.75 225.1 Q336.3 181.65 334.45 174.15 L252.15 174.3 Q261.95 191.8 293.95 259.95 L344.95 367.85 Q355.55 367.25 385.35 367.25 L425.0 365.7 424.25 364.35 Q418.8 354.5 416.75 350.0 398.2 309.9 388.5 290.75 374.35 262.5 356.75 225.1 M162.25 174.45 Q171.25 190.6 198.75 248.85 209.7 248.25 239.35 248.25 L277.1 246.9 266.75 225.1 Q246.5 182.15 244.5 174.3 L162.25 174.45 M72.35 174.6 Q82.25 192.4 113.95 259.95 147.9 332.15 166.6 371.25 173.05 370.25 210.5 370.25 L246.75 369.0 244.25 364.35 Q238.8 354.5 236.75 350.0 218.2 309.9 208.5 290.75 194.35 262.5 176.75 225.1 156.7 182.55 154.55 174.5 L72.35 174.6 M86.75 225.1 Q66.9 182.95 64.55 174.65 L-17.6 174.75 -16.2 177.35 Q-6.05 196.2 21.25 254.15 28.6 253.25 64.0 253.25 L99.55 252.05 86.75 225.1" fill="#000000" fill-rule="evenodd" stroke="none"/>
      <path d="M554.7 143.75 Q555.05 147.4 554.6 153.1 L554.6 161.75 Q554.35 164.55 553.7 166.25 L-7.8 166.25 Q-8.25 162.25 -7.75 155.75 L-7.75 146.0 -7.5 143.75 547.1 143.75 547.1 144.25 547.15 143.75 554.7 143.75" fill="#b68001" fill-rule="evenodd" stroke="none"/>
      <path d="M558.95 173.8 L558.95 239.4 554.35 239.6 Q530.0 188.2 521.9 173.85 L558.95 173.8 M558.95 246.55 L558.95 249.35 557.6 246.5 558.95 246.55 M558.95 271.45 L558.95 365.25 Q532.5 365.35 524.05 366.0 505.65 327.45 473.95 259.95 441.65 191.2 432.0 174.0 L514.4 173.85 Q515.85 180.7 536.75 225.1 548.65 250.35 558.95 271.45 M558.95 371.5 L558.95 403.6 542.25 403.6 539.0 397.0 538.6 396.1 534.15 387.0 526.4 370.9 558.95 371.5 M534.65 403.6 L452.25 403.6 449.0 397.0 448.6 396.1 444.15 387.0 Q425.45 348.25 383.95 259.95 L380.65 252.85 Q446.85 254.25 455.15 254.05 L460.4 253.75 478.5 290.75 Q488.2 309.9 506.75 350.0 508.8 354.5 514.25 364.35 519.45 373.8 521.75 379.1 L523.85 384.3 524.05 384.75 524.85 386.4 525.65 387.85 525.8 388.15 530.3 396.1 534.65 403.6 M444.65 403.6 L362.25 403.6 359.0 397.0 358.6 396.1 354.15 387.0 347.4 372.9 Q415.35 374.25 423.9 374.05 L429.25 373.75 431.75 379.1 433.85 384.3 434.05 384.75 434.85 386.4 435.65 387.85 435.8 388.15 440.3 396.1 444.65 403.6 M354.65 403.6 L272.25 403.6 269.0 397.0 268.6 396.1 264.15 387.0 255.5 369.0 256.2 367.75 255.0 367.95 Q236.5 329.2 203.95 259.95 L201.15 253.95 Q269.25 255.2 278.8 255.0 L280.95 254.95 298.5 290.75 Q308.2 309.9 326.75 350.0 328.8 354.5 334.25 364.35 339.45 373.8 341.75 379.1 L343.85 384.3 344.05 384.75 344.85 386.4 345.65 387.85 345.8 388.15 350.3 396.1 354.65 403.6 M264.65 403.6 L182.25 403.6 179.0 397.0 178.6 396.1 174.15 387.0 168.8 375.85 Q239.45 377.25 248.15 377.05 L250.8 376.95 251.75 379.1 253.85 384.3 254.05 384.75 254.85 386.4 255.65 387.85 255.8 388.15 260.3 396.1 264.65 403.6 M174.65 403.6 L92.25 403.6 89.0 397.0 88.6 396.1 84.15 387.0 Q65.45 348.25 23.95 259.95 L23.45 258.85 Q92.65 260.25 101.2 260.05 L103.4 260.0 118.5 290.75 Q128.2 309.9 146.75 350.0 148.8 354.5 154.25 364.35 159.45 373.8 161.75 379.1 L163.85 384.3 164.05 384.75 164.85 386.4 165.65 387.85 165.8 388.15 170.3 396.1 174.65 403.6 M84.65 403.6 L-15.0 403.6 Q-18.75 400.85 -18.75 400.1 -18.75 398.65 -17.35 397.5 L-17.5 397.35 -18.0 397.6 Q-23.0 397.6 -21.75 284.6 -22.05 255.0 -21.75 227.0 -21.45 200.9 -20.6 187.0 L-14.8 200.2 -3.25 225.1 Q14.35 262.5 28.5 290.75 38.2 309.9 56.75 350.0 58.8 354.5 64.25 364.35 L69.7 374.65 30.5 376.25 Q-7.2 376.25 -13.5 377.25 L-14.9 377.6 Q-15.95 377.95 -15.7 378.5 L-15.0 379.8 -15.05 380.25 -14.75 380.25 Q-14.75 382.75 -14.5 381.75 58.55 383.1 68.15 382.9 L73.2 382.65 73.85 384.3 74.05 384.75 74.85 386.4 75.65 387.85 75.8 388.15 80.3 396.1 84.65 403.6 M356.75 225.1 Q374.35 262.5 388.5 290.75 398.2 309.9 416.75 350.0 418.8 354.5 424.25 364.35 L425.0 365.7 385.35 367.25 Q355.55 367.25 344.95 367.85 L293.95 259.95 Q261.95 191.8 252.15 174.3 L334.45 174.15 Q336.3 181.65 356.75 225.1 M342.05 174.15 L424.4 174.0 Q426.1 181.25 446.75 225.1 L456.55 245.75 418.85 247.25 Q386.95 247.25 378.35 248.05 350.95 189.9 342.05 174.15 M162.25 174.45 L244.5 174.3 Q246.5 182.15 266.75 225.1 L277.1 246.9 239.35 248.25 Q209.7 248.25 198.75 248.85 171.25 190.6 162.25 174.45 M86.75 225.1 L99.55 252.05 64.0 253.25 Q28.6 253.25 21.25 254.15 -6.05 196.2 -16.2 177.35 L-17.6 174.75 64.55 174.65 Q66.9 182.95 86.75 225.1 M72.35 174.6 L154.55 174.5 Q156.7 182.55 176.75 225.1 194.35 262.5 208.5 290.75 218.2 309.9 236.75 350.0 238.8 354.5 244.25 364.35 L246.75 369.0 210.5 370.25 Q173.05 370.25 166.6 371.25 147.9 332.15 113.95 259.95 82.25 192.4 72.35 174.6" fill="#8f712c" fill-rule="evenodd" stroke="none"/>
    </g>
  </defs>
</svg>
