<?xml version="1.0" encoding="UTF-8" standalone="no"?>
<svg xmlns:xlink="http://www.w3.org/1999/xlink" height="842.55px" width="1337.95px" xmlns="http://www.w3.org/2000/svg">
  <g transform="matrix(1, 0, 0, 1, 407.45, 285.05)">
    <use height="4.5" transform="matrix(5.4867, 0.0, 0.0, 81.5667, 3.2875, 23.0167)" width="99.75" xlink:href="#shape0"/>
    <use height="422.35" transform="matrix(1.0, 0.0, 0.0, 1.0, -10.5, -3.0)" width="569.85" xlink:href="#shape1"/>
  </g>
  <defs>
    <g id="shape0" transform="matrix(1, 0, 0, 1, 49.85, -2.5)">
      <path d="M49.9 7.0 L-49.85 7.0 -49.85 2.5 49.9 2.5 49.9 7.0" fill="#ffffff" fill-rule="evenodd" stroke="none"/>
    </g>
    <g id="shape1" transform="matrix(1, 0, 0, 1, 10.5, 3.0)">
      <path d="M437.25 216.25 Q422.7 216.25 408.05 211.4 400.2 208.75 397.1 208.0 390.7 206.5 383.85 206.5 L374.85 206.75 Q365.25 206.95 356.4 211.75 348.35 216.2 348.35 219.6 348.35 222.7 351.85 223.5 352.95 223.05 353.9 220.85 355.05 218.3 356.65 216.9 362.65 211.75 383.85 211.75 394.6 211.75 409.3 216.65 423.95 221.5 436.85 221.5 449.35 221.5 468.6 217.75 483.45 214.85 496.85 213.9 L502.0 213.35 Q503.35 213.0 503.35 211.85 503.35 210.85 502.9 210.55 501.25 209.5 494.85 209.5 486.9 209.5 465.45 212.9 443.95 216.25 437.25 216.25 M553.95 240.6 L551.85 240.5 Q545.75 240.5 542.0 246.25 L539.15 250.2 Q537.35 252.0 534.75 252.0 529.0 252.0 526.85 250.85 525.8 250.25 524.7 248.25 522.65 244.5 510.35 244.5 502.55 244.5 495.15 247.7 492.0 249.05 482.3 254.75 473.95 259.6 467.4 261.8 457.8 265.0 446.25 265.0 439.7 265.0 434.65 263.05 431.55 261.85 426.95 258.75 422.2 255.6 419.4 254.45 414.55 252.5 408.35 252.5 402.75 252.5 397.15 254.9 394.95 255.9 387.25 260.25 373.55 268.0 359.75 268.0 348.7 268.0 338.05 261.75 L330.95 257.45 Q327.35 255.5 324.85 255.5 317.0 255.5 311.15 257.75 307.4 259.2 302.35 262.75 297.05 266.5 294.2 267.75 289.0 270.0 282.25 270.0 275.65 270.0 268.25 266.65 263.6 264.5 255.4 259.25 246.85 253.75 243.0 251.85 236.15 248.5 230.35 248.5 205.3 248.5 196.0 252.25 L188.75 254.85 Q183.6 256.0 173.85 256.0 157.0 256.0 143.4 249.05 139.05 246.8 135.15 243.85 L131.25 240.75 Q128.75 238.75 117.0 238.0 105.3 237.25 102.25 234.75 L96.6 228.65 Q92.2 224.5 87.0 224.5 83.35 224.5 77.05 228.75 70.75 233.0 68.85 233.0 66.35 233.0 63.3 229.8 61.75 228.15 57.85 222.75 50.4 212.5 45.5 212.5 42.1 212.5 39.15 213.9 36.2 215.25 27.75 215.25 25.9 215.25 23.15 212.5 L17.75 206.4 Q9.55 197.5 1.0 197.5 -0.3 197.5 -3.0 198.25 L-3.0 -3.0 553.95 -3.0 553.95 240.6 M429.35 293.85 L429.4 294.8 429.25 294.8 429.35 293.85 M247.85 61.9 Q247.95 62.5 250.85 62.5 253.35 62.5 253.35 59.5 252.65 58.95 251.8 57.4 251.05 56.1 249.85 55.45 246.1 53.5 230.85 53.5 223.4 53.5 214.9 55.35 210.75 56.25 199.7 59.4 179.0 65.25 163.5 65.25 150.1 65.25 142.55 62.9 135.0 60.5 129.5 60.5 120.25 60.5 111.65 63.6 105.8 65.7 97.9 70.4 L85.75 77.15 Q79.1 80.25 73.0 80.25 71.9 80.25 71.05 78.1 L69.3 73.4 Q66.25 66.5 58.5 66.5 43.75 66.5 31.3 81.3 27.1 86.25 24.0 91.9 21.5 96.55 21.5 97.75 21.5 99.4 22.2 99.9 L24.0 100.5 Q25.6 99.1 28.45 93.75 31.85 87.25 34.3 84.1 43.7 71.75 61.25 71.75 63.2 71.75 64.25 73.9 L65.9 78.65 Q68.35 85.5 75.5 85.5 80.15 85.5 86.4 82.4 L98.4 75.65 Q115.55 65.75 129.5 65.75 137.8 65.75 144.25 68.15 150.65 70.5 163.5 70.5 178.1 70.5 199.15 64.65 L213.0 60.6 Q219.5 58.75 221.85 58.75 245.45 58.75 247.6 60.65 248.15 61.1 247.85 61.9" fill="#abeefe" fill-rule="evenodd" stroke="none"/>
      <path d="M437.25 216.25 Q443.95 216.25 465.45 212.9 486.9 209.5 494.85 209.5 501.25 209.5 502.9 210.55 503.35 210.85 503.35 211.85 503.35 213.0 502.0 213.35 L496.85 213.9 Q483.45 214.85 468.6 217.75 449.35 221.5 436.85 221.5 423.95 221.5 409.3 216.65 394.6 211.75 383.85 211.75 362.65 211.75 356.65 216.9 355.05 218.3 353.9 220.85 352.95 223.05 351.85 223.5 348.35 222.7 348.35 219.6 348.35 216.2 356.4 211.75 365.25 206.95 374.85 206.75 L383.85 206.5 Q390.7 206.5 397.1 208.0 400.2 208.75 408.05 211.4 422.7 216.25 437.25 216.25 M247.85 61.9 Q248.15 61.1 247.6 60.65 245.45 58.75 221.85 58.75 219.5 58.75 213.0 60.6 L199.15 64.65 Q178.1 70.5 163.5 70.5 150.65 70.5 144.25 68.15 137.8 65.75 129.5 65.75 115.55 65.75 98.4 75.65 L86.4 82.4 Q80.15 85.5 75.5 85.5 68.35 85.5 65.9 78.65 L64.25 73.9 Q63.2 71.75 61.25 71.75 43.7 71.75 34.3 84.1 31.85 87.25 28.45 93.75 25.6 99.1 24.0 100.5 L22.2 99.9 Q21.5 99.4 21.5 97.75 21.5 96.55 24.0 91.9 27.1 86.25 31.3 81.3 43.75 66.5 58.5 66.5 66.25 66.5 69.3 73.4 L71.05 78.1 Q71.9 80.25 73.0 80.25 79.1 80.25 85.75 77.15 L97.9 70.4 Q105.8 65.7 111.65 63.6 120.25 60.5 129.5 60.5 135.0 60.5 142.55 62.9 150.1 65.25 163.5 65.25 179.0 65.25 199.7 59.4 210.75 56.25 214.9 55.35 223.4 53.5 230.85 53.5 246.1 53.5 249.85 55.45 251.05 56.1 251.8 57.4 252.65 58.95 253.35 59.5 253.35 62.5 250.85 62.5 247.95 62.5 247.85 61.9" fill="#cdf4fe" fill-rule="evenodd" stroke="none"/>
      <path d="M-3.0 204.6 Q3.9 204.95 8.5 207.0 12.3 208.7 15.95 212.5 20.2 216.9 21.9 218.0 25.85 220.5 32.0 220.5 L38.45 219.25 44.85 218.0 Q46.55 218.0 49.15 221.2 L54.35 228.25 Q62.05 238.5 69.0 238.5 72.1 238.5 78.3 234.15 84.55 229.75 88.5 229.75 L99.25 238.75 Q104.25 243.9 112.35 243.25 L119.25 242.8 Q123.4 242.9 127.0 244.5 L131.9 247.8 Q136.75 251.2 141.3 253.55 156.6 261.5 174.0 261.5 184.35 261.5 189.4 260.35 191.4 259.85 196.0 257.75 204.2 254.0 229.85 254.0 236.15 254.0 243.05 257.35 246.85 259.25 255.15 264.75 263.0 270.0 267.7 272.15 275.1 275.5 282.35 275.5 289.35 275.5 294.6 273.25 297.65 271.9 302.8 268.25 307.75 264.65 311.2 263.25 316.75 261.0 324.25 261.0 326.15 261.0 329.65 262.95 L337.1 267.25 Q348.5 273.5 359.85 273.5 373.55 273.5 387.3 265.75 395.2 261.3 397.15 260.4 402.6 258.0 407.85 258.0 414.8 258.0 419.35 259.95 421.95 261.05 426.05 264.25 429.95 267.3 433.1 268.55 438.15 270.5 445.85 270.5 458.1 270.5 468.15 267.3 475.3 265.05 483.5 260.25 494.25 254.05 496.0 253.2 502.9 250.0 509.75 250.0 515.6 250.0 518.7 251.15 520.65 251.9 522.65 253.75 524.65 255.65 526.4 256.35 529.35 257.5 534.85 257.5 539.9 257.5 544.25 251.75 L547.55 247.8 Q549.5 246.0 551.85 246.0 L553.95 246.2 553.95 280.2 557.95 279.45 557.95 286.35 556.65 286.6 Q557.6 290.65 557.65 296.15 L557.65 297.85 554.85 297.5 553.95 297.5 Q534.4 297.7 526.1 306.0 L525.85 306.25 521.0 312.25 Q518.65 315.0 515.75 315.0 513.65 315.0 512.2 313.65 511.55 313.1 509.85 310.75 506.85 306.5 501.85 306.5 498.7 306.5 491.15 312.25 483.65 318.0 479.25 318.0 476.2 318.0 472.0 313.75 467.8 309.5 464.35 309.5 458.3 311.7 449.95 313.9 433.2 318.25 420.6 318.25 415.5 318.25 410.35 320.15 405.15 322.0 403.25 322.0 400.9 322.0 397.7 319.25 394.5 316.5 392.35 316.5 391.15 316.5 388.15 319.75 385.2 323.0 382.75 323.0 379.45 323.0 376.85 321.2 375.35 320.15 372.8 317.25 367.75 311.5 362.35 311.5 361.25 311.5 358.1 313.3 L351.25 317.25 Q340.45 323.0 330.75 323.0 314.55 323.0 305.35 314.25 L299.6 308.25 Q297.95 306.65 296.35 306.0 295.1 305.5 293.85 305.5 292.15 305.5 290.4 306.0 286.45 307.1 282.3 310.75 276.25 316.0 270.25 316.0 266.25 316.0 257.85 313.3 250.55 311.0 249.6 310.25 246.85 308.15 241.6 306.0 L238.7 304.9 Q232.05 302.5 229.85 302.5 226.8 302.5 222.85 304.75 L220.0 306.0 Q213.8 308.0 200.25 308.0 197.4 308.0 193.5 306.25 L192.9 306.0 Q188.9 304.5 179.5 304.5 L162.9 306.0 149.85 307.0 Q142.55 307.0 137.35 306.0 130.0 304.6 126.7 301.25 124.4 298.4 122.95 297.3 120.6 295.5 116.0 295.5 112.8 295.5 107.55 299.15 102.25 302.75 100.5 302.75 97.35 302.75 95.8 300.85 L93.45 296.65 Q89.9 290.5 78.0 290.5 69.35 290.5 63.9 294.0 61.2 295.75 60.0 297.5 50.35 297.5 45.0 294.05 41.15 291.6 38.75 286.5 36.65 281.0 35.25 278.95 32.95 275.5 28.5 275.5 25.35 275.5 22.45 277.75 19.6 280.0 17.0 280.0 15.55 280.0 13.5 277.75 L9.4 272.75 Q3.5 265.75 -3.0 265.5 L-3.5 265.5 -6.15 265.65 -6.45 237.65 -7.0 237.4 -7.0 231.55 -7.0 229.5 -6.7 229.65 -3.0 204.6 M429.35 293.85 Q429.35 292.3 428.55 291.95 L426.85 291.5 Q425.45 292.55 423.6 293.4 420.05 295.0 413.25 295.0 408.0 295.0 406.7 293.25 405.4 291.5 403.35 291.5 400.05 291.5 394.5 294.9 L394.0 295.25 Q388.95 298.25 387.6 298.25 387.05 298.25 385.8 296.9 384.55 295.5 383.35 295.5 L381.2 295.9 380.35 296.25 Q380.35 297.95 381.65 300.05 383.7 303.5 387.85 303.5 390.0 303.5 395.25 300.5 400.55 297.5 402.35 297.5 402.55 297.5 404.95 299.0 408.35 300.5 413.35 300.5 420.3 300.5 424.9 298.55 428.6 297.0 429.25 294.8 L429.4 294.8 429.35 293.85 M267.6 282.25 Q268.85 283.5 270.85 283.5 281.6 283.5 283.9 284.5 286.15 285.5 289.85 285.5 292.2 285.5 296.85 283.55 302.35 281.25 302.35 278.85 L302.1 277.25 301.85 277.0 298.85 276.5 Q297.55 276.5 296.8 277.1 L295.5 278.4 Q293.45 280.25 287.6 280.25 286.8 280.25 286.4 279.8 L285.5 278.9 Q283.7 277.5 277.35 277.5 267.35 277.5 267.35 280.75 267.35 283.25 267.6 282.25 M22.5 259.35 Q22.5 261.05 23.2 261.7 23.55 262.0 25.0 262.5 L27.9 261.05 Q30.0 260.0 31.5 260.0 36.5 260.0 41.9 262.75 47.25 265.5 50.0 265.5 52.0 265.5 59.5 259.25 L59.25 257.45 59.05 257.15 59.0 257.0 55.0 256.5 Q52.65 256.5 51.15 258.0 49.7 259.5 48.75 259.5 46.9 259.5 42.0 257.0 37.1 254.5 31.0 254.5 22.5 254.5 22.5 259.35 M-2.95 231.6 L-2.95 231.55 -3.0 231.55 -2.95 231.6 M-6.7 229.65 L-7.0 231.55 -5.75 231.55 Q-5.9 230.05 -6.7 229.65" fill="#b37b2b" fill-rule="evenodd" stroke="none"/>
      <path d="M-3.0 198.25 Q-0.3 197.5 1.0 197.5 9.55 197.5 17.75 206.4 L23.15 212.5 Q25.9 215.25 27.75 215.25 36.2 215.25 39.15 213.9 42.1 212.5 45.5 212.5 50.4 212.5 57.85 222.75 61.75 228.15 63.3 229.8 66.35 233.0 68.85 233.0 70.75 233.0 77.05 228.75 83.35 224.5 87.0 224.5 92.2 224.5 96.6 228.65 L102.25 234.75 Q105.3 237.25 117.0 238.0 128.75 238.75 131.25 240.75 L135.15 243.85 Q139.05 246.8 143.4 249.05 157.0 256.0 173.85 256.0 183.6 256.0 188.75 254.85 L196.0 252.25 Q205.3 248.5 230.35 248.5 236.15 248.5 243.0 251.85 246.85 253.75 255.4 259.25 263.6 264.5 268.25 266.65 275.65 270.0 282.25 270.0 289.0 270.0 294.2 267.75 297.05 266.5 302.35 262.75 307.4 259.2 311.15 257.75 317.0 255.5 324.85 255.5 327.35 255.5 330.95 257.45 L338.05 261.75 Q348.7 268.0 359.75 268.0 373.55 268.0 387.25 260.25 394.95 255.9 397.15 254.9 402.75 252.5 408.35 252.5 414.55 252.5 419.4 254.45 422.2 255.6 426.95 258.75 431.55 261.85 434.65 263.05 439.7 265.0 446.25 265.0 457.8 265.0 467.4 261.8 473.95 259.6 482.3 254.75 492.0 249.05 495.15 247.7 502.55 244.5 510.35 244.5 522.65 244.5 524.7 248.25 525.8 250.25 526.85 250.85 529.0 252.0 534.75 252.0 537.35 252.0 539.15 250.2 L542.0 246.25 Q545.75 240.5 551.85 240.5 L553.95 240.6 Q559.35 241.05 559.35 244.25 L559.1 246.5 556.15 246.45 553.95 246.2 551.85 246.0 Q549.5 246.0 547.55 247.8 L544.25 251.75 Q539.9 257.5 534.85 257.5 529.35 257.5 526.4 256.35 524.65 255.65 522.65 253.75 520.65 251.9 518.7 251.15 515.6 250.0 509.75 250.0 502.9 250.0 496.0 253.2 494.25 254.05 483.5 260.25 475.3 265.05 468.15 267.3 458.1 270.5 445.85 270.5 438.15 270.5 433.1 268.55 429.95 267.3 426.05 264.25 421.95 261.05 419.35 259.95 414.8 258.0 407.85 258.0 402.6 258.0 397.15 260.4 395.2 261.3 387.3 265.75 373.55 273.5 359.85 273.5 348.5 273.5 337.1 267.25 L329.65 262.95 Q326.15 261.0 324.25 261.0 316.75 261.0 311.2 263.25 307.75 264.65 302.8 268.25 297.65 271.9 294.6 273.25 289.35 275.5 282.35 275.5 275.1 275.5 267.7 272.15 263.0 270.0 255.15 264.75 246.85 259.25 243.05 257.35 236.15 254.0 229.85 254.0 204.2 254.0 196.0 257.75 191.4 259.85 189.4 260.35 184.35 261.5 174.0 261.5 156.6 261.5 141.3 253.55 136.75 251.2 131.9 247.8 L127.0 244.5 Q123.4 242.9 119.25 242.8 L112.35 243.25 Q104.25 243.9 99.25 238.75 L88.5 229.75 Q84.55 229.75 78.3 234.15 72.1 238.5 69.0 238.5 62.05 238.5 54.35 228.25 L49.15 221.2 Q46.55 218.0 44.85 218.0 L38.45 219.25 32.0 220.5 Q25.85 220.5 21.9 218.0 20.2 216.9 15.95 212.5 12.3 208.7 8.5 207.0 3.9 204.95 -3.0 204.6 L-6.0 204.5 Q-9.0 204.5 -10.25 203.25 -10.5 204.25 -10.5 201.75 -10.5 200.6 -5.45 198.95 L-3.0 198.25 M429.25 294.8 Q428.6 297.0 424.9 298.55 420.3 300.5 413.35 300.5 408.35 300.5 404.95 299.0 402.55 297.5 402.35 297.5 400.55 297.5 395.25 300.5 390.0 303.5 387.85 303.5 383.7 303.5 381.65 300.05 380.35 297.95 380.35 296.25 L381.2 295.9 383.35 295.5 Q384.55 295.5 385.8 296.9 387.05 298.25 387.6 298.25 388.95 298.25 394.0 295.25 L394.5 294.9 Q400.05 291.5 403.35 291.5 405.4 291.5 406.7 293.25 408.0 295.0 413.25 295.0 420.05 295.0 423.6 293.4 425.45 292.55 426.85 291.5 L428.55 291.95 Q429.35 292.3 429.35 293.85 L429.25 294.8 M-6.15 265.65 L-3.5 265.5 -3.0 265.5 Q3.5 265.75 9.4 272.75 L13.5 277.75 Q15.55 280.0 17.0 280.0 19.6 280.0 22.45 277.75 25.35 275.5 28.5 275.5 32.95 275.5 35.25 278.95 36.65 281.0 38.75 286.5 41.15 291.6 45.0 294.05 50.35 297.5 60.0 297.5 61.2 295.75 63.9 294.0 69.35 290.5 78.0 290.5 89.9 290.5 93.45 296.65 L95.8 300.85 Q97.35 302.75 100.5 302.75 102.25 302.75 107.55 299.15 112.8 295.5 116.0 295.5 120.6 295.5 122.95 297.3 124.4 298.4 126.7 301.25 130.0 304.6 137.35 306.0 142.55 307.0 149.85 307.0 L162.9 306.0 179.5 304.5 Q188.9 304.5 192.9 306.0 L193.5 306.25 Q197.4 308.0 200.25 308.0 213.8 308.0 220.0 306.0 L222.85 304.75 Q226.8 302.5 229.85 302.5 232.05 302.5 238.7 304.9 L241.6 306.0 Q246.85 308.15 249.6 310.25 250.55 311.0 257.85 313.3 266.25 316.0 270.25 316.0 276.25 316.0 282.3 310.75 286.45 307.1 290.4 306.0 292.15 305.5 293.85 305.5 295.1 305.5 296.35 306.0 297.95 306.65 299.6 308.25 L305.35 314.25 Q314.55 323.0 330.75 323.0 340.45 323.0 351.25 317.25 L358.1 313.3 Q361.25 311.5 362.35 311.5 367.75 311.5 372.8 317.25 375.35 320.15 376.85 321.2 379.45 323.0 382.75 323.0 385.2 323.0 388.15 319.75 391.15 316.5 392.35 316.5 394.5 316.5 397.7 319.25 400.9 322.0 403.25 322.0 405.15 322.0 410.35 320.15 415.5 318.25 420.6 318.25 433.2 318.25 449.95 313.9 458.3 311.7 464.35 309.5 467.8 309.5 472.0 313.75 476.2 318.0 479.25 318.0 483.65 318.0 491.15 312.25 498.7 306.5 501.85 306.5 506.85 306.5 509.85 310.75 511.55 313.1 512.2 313.65 513.65 315.0 515.75 315.0 518.65 315.0 521.0 312.25 L525.85 306.25 526.1 306.0 Q534.4 297.7 553.95 297.5 L554.85 297.5 557.65 297.85 558.85 298.0 559.1 298.25 559.35 299.85 Q559.35 300.8 557.65 301.75 556.3 302.45 553.95 303.15 L546.7 304.75 540.75 306.0 Q532.45 308.0 530.85 310.25 528.95 312.95 524.7 316.2 519.2 320.5 515.35 320.5 512.0 320.5 507.45 316.15 503.5 311.75 503.1 311.75 500.9 311.75 498.1 313.6 L492.8 317.65 Q485.4 323.5 479.35 323.5 473.35 323.5 469.15 319.15 466.0 314.75 465.35 314.75 461.4 314.75 457.15 317.4 452.1 320.55 450.1 321.0 L440.35 320.85 Q431.0 320.8 425.6 322.75 L419.95 322.55 415.6 321.75 Q414.8 321.75 411.35 324.65 407.95 327.5 403.35 327.5 399.9 327.5 397.2 325.5 L393.85 322.5 Q392.7 322.9 388.7 326.0 385.45 328.5 382.35 328.5 374.35 328.5 370.1 322.9 L367.0 319.0 Q365.1 317.25 362.35 317.25 361.2 317.25 357.95 319.0 353.65 321.45 350.85 322.9 339.8 328.5 330.35 328.5 314.1 328.5 304.1 319.75 L298.15 313.75 Q295.45 311.0 293.6 311.0 291.3 311.0 288.55 312.65 L283.45 316.25 Q276.3 321.5 269.85 321.5 262.35 321.5 254.65 318.5 L247.35 315.0 244.2 314.5 Q241.45 314.3 234.85 311.5 233.55 311.0 231.9 309.4 230.5 308.0 229.75 308.0 227.05 308.0 224.85 309.55 222.5 311.2 221.85 311.25 L200.35 313.5 Q196.15 313.5 192.05 311.75 187.9 310.0 178.6 310.0 L149.5 312.5 Q132.6 312.5 124.7 306.65 L123.9 306.0 120.4 302.6 Q118.65 300.75 117.25 300.75 113.0 300.75 108.3 304.65 L106.6 306.0 Q103.15 308.5 101.0 308.5 96.4 308.5 93.85 306.55 L93.25 306.0 Q92.05 304.8 90.45 302.25 88.6 299.2 86.7 297.95 83.7 296.0 78.35 296.0 70.75 296.0 65.85 299.75 L62.9 302.35 Q61.5 303.5 60.5 303.5 42.4 303.5 35.6 292.15 L32.05 284.3 Q30.55 280.75 28.75 280.75 26.35 280.75 24.3 283.15 22.3 285.5 17.0 285.5 11.2 285.5 4.25 278.55 L-1.25 273.1 -3.0 271.65 Q-4.6 270.45 -6.1 269.75 L-7.25 269.25 Q-7.5 270.25 -7.5 267.75 -7.5 266.1 -6.45 265.7 L-6.15 265.65 M22.5 259.35 Q22.5 254.5 31.0 254.5 37.1 254.5 42.0 257.0 46.9 259.5 48.75 259.5 49.7 259.5 51.15 258.0 52.65 256.5 55.0 256.5 L59.0 257.0 59.05 257.15 59.25 257.45 59.5 259.25 Q52.0 265.5 50.0 265.5 47.25 265.5 41.9 262.75 36.5 260.0 31.5 260.0 30.0 260.0 27.9 261.05 L25.0 262.5 Q23.55 262.0 23.2 261.7 22.5 261.05 22.5 259.35 M267.6 282.25 Q267.35 283.25 267.35 280.75 267.35 277.5 277.35 277.5 283.7 277.5 285.5 278.9 L286.4 279.8 Q286.8 280.25 287.6 280.25 293.45 280.25 295.5 278.4 L296.8 277.1 Q297.55 276.5 298.85 276.5 L301.85 277.0 302.1 277.25 302.35 278.85 Q302.35 281.25 296.85 283.55 292.2 285.5 289.85 285.5 286.15 285.5 283.9 284.5 281.6 283.5 270.85 283.5 268.85 283.5 267.6 282.25" fill="#533913" fill-rule="evenodd" stroke="none"/>
      <path d="M-6.1 269.75 Q-4.6 270.45 -3.0 271.65 L-1.25 273.1 4.25 278.55 Q11.2 285.5 17.0 285.5 22.3 285.5 24.3 283.15 26.35 280.75 28.75 280.75 30.55 280.75 32.05 284.3 L35.6 292.15 Q42.4 303.5 60.5 303.5 61.5 303.5 62.9 302.35 L65.85 299.75 Q70.75 296.0 78.35 296.0 83.7 296.0 86.7 297.95 88.6 299.2 90.45 302.25 92.05 304.8 93.25 306.0 L93.85 306.55 Q96.4 308.5 101.0 308.5 103.15 308.5 106.6 306.0 L108.3 304.65 Q113.0 300.75 117.25 300.75 118.65 300.75 120.4 302.6 L123.9 306.0 124.7 306.65 Q132.6 312.5 149.5 312.5 L178.6 310.0 Q187.9 310.0 192.05 311.75 196.15 313.5 200.35 313.5 L221.85 311.25 Q222.5 311.2 224.85 309.55 227.05 308.0 229.75 308.0 230.5 308.0 231.9 309.4 233.55 311.0 234.85 311.5 241.45 314.3 244.2 314.5 L247.35 315.0 254.65 318.5 Q262.35 321.5 269.85 321.5 276.3 321.5 283.45 316.25 L288.55 312.65 Q291.3 311.0 293.6 311.0 295.45 311.0 298.15 313.75 L304.1 319.75 Q314.1 328.5 330.35 328.5 339.8 328.5 350.85 322.9 353.65 321.45 357.95 319.0 361.2 317.25 362.35 317.25 365.1 317.25 367.0 319.0 L370.1 322.9 Q374.35 328.5 382.35 328.5 385.45 328.5 388.7 326.0 392.7 322.9 393.85 322.5 L397.2 325.5 Q399.9 327.5 403.35 327.5 407.95 327.5 411.35 324.65 414.8 321.75 415.6 321.75 L419.95 322.55 425.6 322.75 Q431.0 320.8 440.35 320.85 L450.1 321.0 Q452.1 320.55 457.15 317.4 461.4 314.75 465.35 314.75 466.0 314.75 469.15 319.15 473.35 323.5 479.35 323.5 485.4 323.5 492.8 317.65 L498.1 313.6 Q500.9 311.75 503.1 311.75 503.5 311.75 507.45 316.15 512.0 320.5 515.35 320.5 519.2 320.5 524.7 316.2 528.95 312.95 530.85 310.25 532.45 308.0 540.75 306.0 L546.7 304.75 553.95 303.15 Q556.3 302.45 557.65 301.75 L557.35 312.0 Q557.75 321.75 557.35 342.25 L557.1 402.6 554.85 403.35 553.95 401.25 553.15 401.5 553.35 402.75 Q553.35 404.35 552.5 404.9 L550.85 405.35 1.25 405.35 Q0.0 406.1 -1.0 406.35 -4.5 402.85 -4.5 395.35 L-4.25 394.1 Q-5.75 387.6 -5.8 378.1 -5.3 363.75 -5.5 357.5 L-5.5 317.0 -6.1 269.75 M-2.95 231.6 L-3.0 231.55 -2.95 231.55 -2.95 231.6" fill="#c4ffc4" fill-rule="evenodd" stroke="none"/>
      <path d="M402.35 335.0 Q402.35 331.05 405.4 326.05 409.3 319.5 415.35 319.5 424.1 319.5 426.35 332.85 L426.1 337.0 Q424.95 340.9 417.55 339.75 L412.8 338.5 402.6 338.0 Q402.35 337.5 402.35 335.0 M418.3 328.8 Q416.25 326.45 415.45 325.0 L414.1 325.0 Q412.25 325.0 410.55 327.9 409.1 330.45 409.1 332.25 L412.1 333.0 421.35 333.0 Q420.55 331.35 418.3 328.8 M156.0 239.5 Q170.0 239.5 175.65 246.2 177.55 248.45 178.8 251.9 L180.5 256.75 Q184.75 266.25 190.0 269.75 191.9 271.05 192.5 271.75 L194.25 270.25 Q197.05 268.5 200.85 268.5 206.55 268.5 209.4 270.75 L212.3 273.3 Q214.4 275.1 216.85 276.5 219.35 277.9 219.35 286.0 219.35 288.5 219.9 292.35 220.1 295.2 218.4 296.5 214.5 299.5 190.0 299.5 188.15 299.5 186.4 297.65 L185.2 295.9 Q178.25 301.5 166.0 301.5 118.85 297.5 109.5 292.0 99.1 285.9 97.95 284.15 97.25 283.05 97.3 281.1 L97.5 276.0 Q97.5 265.25 108.15 261.85 111.1 260.9 117.5 259.45 123.05 257.95 126.0 255.75 133.05 249.25 137.85 245.8 146.65 239.5 156.0 239.5 M105.75 266.75 Q102.6 269.2 102.3 271.25 102.1 272.5 102.5 275.25 102.5 275.75 108.25 281.75 114.5 288.3 117.25 289.0 124.55 291.05 143.65 293.65 L165.85 296.0 Q180.6 296.0 186.0 286.5 187.7 283.5 188.25 279.8 L188.5 276.35 Q188.5 273.75 187.1 272.2 L183.75 269.7 Q177.95 266.05 175.5 259.25 L174.45 255.65 Q173.5 252.85 171.95 250.9 167.25 245.0 156.25 245.0 146.3 245.0 137.75 251.4 133.1 254.85 127.75 260.75 123.5 264.45 115.8 264.7 108.0 264.95 105.75 266.75 M194.0 277.5 L193.5 277.35 193.5 277.5 Q193.25 285.25 189.55 291.0 L187.65 293.5 190.0 293.5 199.8 293.05 Q208.8 292.7 213.35 293.0 213.35 292.25 214.35 290.75 L214.35 281.75 Q210.35 282.9 207.0 278.5 L204.6 275.3 Q203.3 273.75 202.1 273.75 198.05 273.75 196.85 275.05 195.05 277.1 194.0 277.5" fill="#000000" fill-rule="evenodd" stroke="none"/>
      <path d="M337.35 308.25 Q337.35 310.75 336.1 318.75 L333.85 319.5 Q331.35 318.05 331.35 313.35 331.35 307.7 334.85 305.5 L336.55 306.15 Q337.35 306.65 337.35 308.25 M324.85 318.5 Q321.95 318.5 321.4 307.9 L321.35 297.0 Q321.35 282.8 323.85 278.5 326.55 285.4 326.4 297.25 326.25 311.45 327.35 317.25 327.35 318.5 324.85 318.5 M373.35 368.25 Q373.35 395.7 367.35 412.85 L365.85 413.35 Q363.35 412.45 363.35 409.1 363.35 403.25 365.4 386.6 367.95 365.5 370.85 365.5 372.65 365.5 373.05 365.95 373.35 366.3 373.35 368.25 M482.35 382.75 Q482.35 378.1 484.85 376.5 488.35 380.15 488.35 389.25 L488.1 392.6 Q488.35 393.35 485.85 393.35 483.05 393.35 482.4 388.2 L482.35 382.75 M525.35 247.25 L521.35 271.75 Q517.35 295.4 517.35 301.25 L514.85 302.5 Q513.55 301.25 512.8 298.2 512.35 296.25 512.35 295.25 512.35 289.55 516.85 268.25 521.25 247.25 522.85 244.5 L524.55 245.15 Q525.35 245.65 525.35 247.25 M498.4 276.0 Q498.8 273.5 500.85 273.5 L509.35 298.0 509.2 299.4 Q508.9 299.3 508.85 299.5 L508.35 300.2 506.35 300.5 Q501.8 300.5 499.65 290.45 L498.35 280.1 498.4 276.0 M509.05 331.75 Q509.35 332.0 509.35 333.85 509.35 340.2 505.35 359.75 502.4 374.2 499.2 382.7 L501.0 380.45 Q505.15 375.35 507.85 374.5 L509.55 374.95 Q510.35 375.3 510.35 376.85 510.35 379.45 506.4 383.95 502.6 388.35 500.85 388.35 L498.35 387.85 497.55 387.4 497.45 386.95 494.85 391.35 Q493.4 390.85 493.05 390.55 492.35 389.9 492.35 388.25 492.35 385.25 506.85 331.5 L509.05 331.75 M58.5 268.25 Q58.5 269.7 55.5 282.75 52.5 295.75 52.5 299.75 L52.5 331.25 50.0 332.5 Q48.1 328.45 47.65 322.65 47.5 320.55 47.5 312.5 47.5 293.45 48.05 288.45 49.6 273.9 56.0 265.5 L57.7 266.15 Q58.5 266.65 58.5 268.25 M41.35 315.15 Q41.1 325.5 45.5 330.25 44.75 332.5 42.0 332.5 37.45 332.5 36.55 322.65 L36.5 312.5 Q36.5 307.1 36.65 305.7 37.15 301.7 39.0 300.5 40.9 303.25 41.3 307.4 41.5 309.3 41.35 315.15 M85.0 390.35 Q87.45 392.35 87.25 395.7 L86.5 401.35 Q86.5 404.4 88.5 410.5 L90.5 416.75 90.25 417.85 Q90.0 418.25 89.9 418.9 89.55 419.35 88.0 419.35 84.75 419.35 81.5 401.6 81.5 397.1 81.75 395.55 82.45 391.3 85.0 390.35 M202.35 304.5 L200.95 323.05 Q199.5 339.95 199.5 345.0 199.5 357.2 202.35 362.25 201.6 364.5 199.35 364.5 195.75 364.5 194.75 354.65 L194.5 344.5 Q195.25 308.35 199.85 299.5 202.35 302.15 202.35 304.5 M189.0 347.5 Q192.1 349.65 192.55 354.0 192.85 356.6 192.5 362.25 192.5 363.5 190.0 363.5 187.2 363.5 186.55 358.9 L186.5 354.0 Q186.5 349.45 189.0 347.5 M210.35 352.35 Q210.35 354.85 209.35 362.85 L209.1 364.0 208.5 365.05 206.35 365.5 203.6 365.0 Q203.35 363.5 203.35 360.85 203.35 357.6 205.0 353.35 206.55 349.3 207.85 348.5 L209.85 349.95 Q210.35 350.6 210.35 352.35 M312.35 312.0 Q312.35 310.2 312.9 309.8 L315.35 309.5 Q318.0 309.5 319.35 316.0 319.35 318.5 318.85 318.0 318.85 318.5 316.35 318.5 314.7 318.5 313.4 315.4 312.35 313.0 312.35 312.0 M351.35 398.85 Q351.35 397.05 351.9 396.65 L354.35 396.35 Q356.55 396.35 358.55 402.15 359.55 405.1 360.35 408.85 L359.95 410.65 Q359.5 411.35 357.85 411.35 355.8 411.35 353.4 405.25 351.35 400.15 351.35 398.85" fill="#9ef295" fill-rule="evenodd" stroke="none"/>
      <path d="M418.3 328.8 Q420.55 331.35 421.35 333.0 L412.1 333.0 409.1 332.25 Q409.1 330.45 410.55 327.9 412.25 325.0 414.1 325.0 L415.45 325.0 Q416.25 326.45 418.3 328.8 M105.75 266.75 Q108.0 264.95 115.8 264.7 123.5 264.45 127.75 260.75 133.1 254.85 137.75 251.4 146.3 245.0 156.25 245.0 167.25 245.0 171.95 250.9 173.5 252.85 174.45 255.65 L175.5 259.25 Q177.95 266.05 183.75 269.7 L187.1 272.2 Q188.5 273.75 188.5 276.35 L188.25 279.8 Q187.7 283.5 186.0 286.5 180.6 296.0 165.85 296.0 L143.65 293.65 Q124.55 291.05 117.25 289.0 114.5 288.3 108.25 281.75 102.5 275.75 102.5 275.25 102.1 272.5 102.3 271.25 102.6 269.2 105.75 266.75 M193.5 277.5 L194.0 277.5 Q195.05 277.1 196.85 275.05 198.05 273.75 202.1 273.75 203.3 273.75 204.6 275.3 L207.0 278.5 Q210.35 282.9 214.35 281.75 L214.35 290.75 Q213.35 292.25 213.35 293.0 208.8 292.7 199.8 293.05 L190.0 293.5 187.65 293.5 189.55 291.0 Q193.25 285.25 193.5 277.5" fill="#b7b7b7" fill-rule="evenodd" stroke="none"/>
    </g>
  </defs>
</svg>
