<?xml version="1.0" encoding="UTF-8" standalone="no"?>
<svg xmlns:xlink="http://www.w3.org/1999/xlink" height="842.55px" width="1337.95px" xmlns="http://www.w3.org/2000/svg">
  <g transform="matrix(1, 0, 0, 1, 407.45, 285.05)">
    <use height="4.5" transform="matrix(5.4867, 0.0, 0.0, 81.5667, 3.2875, 23.0167)" width="99.75" xlink:href="#shape0"/>
    <use height="405.0" transform="matrix(1.0, 0.0, 0.0, 1.0, -5.0, 0.0)" width="557.95" xlink:href="#shape1"/>
  </g>
  <defs>
    <g id="shape0" transform="matrix(1, 0, 0, 1, 49.85, -2.5)">
      <path d="M49.9 7.0 L-49.85 7.0 -49.85 2.5 49.9 2.5 49.9 7.0" fill="#ffffff" fill-rule="evenodd" stroke="none"/>
    </g>
    <g id="shape1" transform="matrix(1, 0, 0, 1, 5.0, 0.0)">
      <path d="M0.0 400.0 L0.0 0.0 550.0 0.0 550.0 400.0 0.0 400.0" fill="url(#gradient0)" fill-rule="evenodd" stroke="none"/>
      <path d="M550.0 188.1 L550.0 400.0 0.0 400.0 0.0 116.5 Q15.95 113.55 29.5 116.5 L34.35 142.0 Q53.4 133.1 78.3 159.85 75.7 136.1 108.95 144.5 L118.5 181.85 Q319.55 235.65 431.55 175.15 L444.95 146.4 Q465.0 139.5 469.85 149.3 474.4 178.85 485.2 149.3 493.5 145.5 506.25 154.45 502.35 186.2 527.3 179.95 538.65 190.25 550.0 188.1" fill="#000000" fill-rule="evenodd" stroke="none"/>
      <path d="M550.0 188.1 L550.0 400.0 0.0 400.0 0.0 116.5 Q15.95 113.55 29.5 116.5 L34.35 142.0 Q53.4 133.1 78.3 159.85 75.7 136.1 108.95 144.5 L118.5 181.85 Q319.55 235.65 431.55 175.15 L444.95 146.4 Q465.0 139.5 469.85 149.3 474.4 178.85 485.2 149.3 493.5 145.5 506.25 154.45 502.35 186.2 527.3 179.95 538.65 190.25 550.0 188.1" fill="none" stroke="#cc6600" stroke-linecap="round" stroke-linejoin="round" stroke-opacity="0.0" stroke-width="3.0"/>
      <path d="M519.05 348.75 L521.5 354.2 533.8 354.2 531.35 348.75 519.05 348.75 M509.6 346.0 L515.1 346.0 513.45 342.35 504.8 342.35 510.1 354.2 511.9 354.2 508.85 347.35 Q508.6 346.8 508.85 346.4 509.05 346.0 509.6 346.0 M529.8 340.05 L530.6 341.0 532.85 346.0 550.15 346.0 542.45 328.7 510.05 328.7 514.95 339.6 528.65 339.6 Q529.2 339.6 529.8 340.05 M530.1 346.0 L528.5 342.35 516.2 342.35 517.8 346.0 530.1 346.0 M476.2 391.55 Q475.65 391.55 475.05 391.15 L474.35 390.45 469.8 390.45 475.2 402.5 483.4 402.5 478.5 391.55 476.2 391.55 M463.85 366.95 L454.9 346.9 448.5 346.9 457.5 367.05 457.9 366.95 463.85 366.95 M465.05 369.7 L460.5 369.7 468.55 387.7 473.1 387.7 465.05 369.7 M466.55 366.95 L480.25 366.95 471.3 346.9 457.6 346.9 466.55 366.95 M474.0 346.9 L481.55 363.75 489.75 363.75 482.2 346.9 474.0 346.9 M482.8 366.5 L483.0 366.95 491.2 366.95 491.0 366.5 482.8 366.5 M481.45 369.7 L467.8 369.7 475.85 387.7 489.5 387.7 481.45 369.7 M476.8 328.7 L481.7 339.6 512.25 339.6 507.35 328.7 476.8 328.7 M482.95 342.35 L483.75 344.2 489.45 344.2 Q490.0 344.15 490.55 344.6 491.15 344.95 491.4 345.55 L499.55 363.75 500.7 363.75 497.05 355.55 Q496.8 355.0 497.0 354.6 497.2 354.2 497.8 354.2 L507.35 354.2 502.05 342.35 482.95 342.35 M472.0 342.35 L472.8 344.2 481.0 344.2 480.2 342.35 472.0 342.35 M473.45 326.35 Q473.65 325.95 474.25 325.95 L506.15 325.95 504.5 322.3 463.0 322.3 470.75 339.6 478.95 339.6 473.45 327.3 Q473.2 326.75 473.45 326.35 M455.6 342.35 L456.4 344.2 470.05 344.2 469.25 342.35 455.6 342.35 M459.65 320.0 Q459.85 319.55 460.45 319.55 L504.65 319.55 Q505.2 319.55 505.8 320.0 L506.6 320.95 508.85 325.95 542.6 325.95 543.75 326.35 Q544.3 326.75 544.55 327.3 L552.9 346.0 552.95 346.0 552.95 352.2 551.4 348.75 534.1 348.75 536.55 354.2 542.45 354.2 543.6 354.6 544.45 355.55 552.95 374.65 552.95 380.75 542.3 356.95 537.75 356.95 552.95 390.95 552.95 397.05 543.85 397.05 544.0 397.5 552.95 397.5 552.95 401.6 545.85 401.6 547.4 405.0 543.75 405.0 542.2 401.6 535.85 401.6 537.35 405.0 534.65 405.0 533.1 401.6 510.3 401.6 511.35 403.9 Q511.55 404.45 511.35 404.85 L511.2 405.0 474.15 405.0 473.9 404.85 473.05 403.9 467.05 390.45 466.6 390.45 Q466.0 390.4 465.45 390.0 L464.6 389.05 445.15 345.55 Q444.9 344.95 445.15 344.6 445.35 344.15 445.9 344.2 L453.65 344.2 452.25 341.0 Q452.0 340.4 452.2 340.05 452.4 339.6 453.0 339.6 L468.05 339.6 459.65 320.95 Q459.4 320.35 459.65 320.0 M514.65 354.2 L518.75 354.2 516.3 348.75 512.2 348.75 514.65 354.2 M518.95 363.75 L523.05 363.75 520.0 356.95 515.9 356.95 518.95 363.75 M512.85 366.5 L508.3 366.5 511.35 373.35 515.95 373.35 512.85 366.5 M513.15 356.95 L511.3 356.95 514.4 363.75 516.2 363.75 513.15 356.95 M525.75 363.75 L538.1 363.75 535.0 356.95 522.7 356.95 525.75 363.75 M492.5 363.75 L496.85 363.75 489.3 346.9 484.95 346.9 492.5 363.75 M505.6 366.5 L504.65 366.5 507.7 373.35 508.65 373.35 505.6 366.5 M501.95 366.5 L500.8 366.5 503.85 373.35 505.0 373.35 501.95 366.5 M493.95 367.05 L494.6 367.35 495.45 368.35 497.7 373.35 501.1 373.35 498.05 366.5 493.75 366.5 493.95 367.05 M517.45 366.5 L515.6 366.5 518.65 373.35 520.5 373.35 517.45 366.5 M511.65 363.75 L508.6 356.95 500.4 356.95 503.45 363.75 511.65 363.75 M505.05 376.1 L510.25 387.7 511.4 387.7 506.2 376.1 505.05 376.1 M498.9 376.1 L504.1 387.7 507.5 387.7 502.3 376.1 498.9 376.1 M521.7 376.1 L519.85 376.1 525.05 387.7 526.9 387.7 521.7 376.1 M501.25 391.55 L494.0 391.55 497.25 398.85 504.55 398.85 501.25 391.55 M493.75 373.75 L494.05 373.4 492.4 369.7 484.2 369.7 492.25 387.7 499.55 387.7 493.75 374.7 Q493.5 374.15 493.75 373.75 M508.95 376.1 L514.15 387.7 515.05 387.7 509.85 376.1 508.95 376.1 M514.35 394.3 L513.1 391.55 505.85 391.55 507.05 394.3 514.35 394.3 M522.35 387.7 L517.15 376.1 512.6 376.1 517.75 387.7 522.35 387.7 M525.45 391.55 L519.5 391.55 520.75 394.3 529.85 394.3 528.1 390.45 526.25 390.45 526.2 391.15 Q526.0 391.55 525.45 391.55 M517.1 394.3 L518.0 394.3 516.75 391.55 515.85 391.55 517.1 394.3 M523.2 373.35 L531.9 373.35 Q532.45 373.35 533.0 373.75 533.6 374.15 533.85 374.7 L542.6 394.3 551.7 394.3 539.3 366.5 520.15 366.5 523.2 373.35 M491.25 391.55 L481.2 391.55 486.1 402.5 506.15 402.5 505.75 401.6 497.1 401.6 Q496.55 401.6 495.95 401.2 495.35 400.8 495.1 400.25 L491.25 391.55 M529.6 387.7 L536.9 387.7 531.7 376.1 524.45 376.1 529.6 387.7 M530.85 390.45 L532.6 394.3 538.95 394.3 537.25 390.45 530.85 390.45 M531.25 397.5 L531.1 397.05 521.95 397.05 522.15 397.5 531.25 397.5 M540.4 397.5 L540.2 397.05 533.8 397.05 534.0 397.5 540.4 397.5 M518.3 397.05 L519.1 398.85 520.05 398.85 519.25 397.05 518.3 397.05 M508.3 397.05 L509.1 398.85 516.4 398.85 515.6 397.05 508.3 397.05" fill="url(#gradient1)" fill-rule="evenodd" stroke="none"/>
      <path d="M71.2 333.25 Q71.7 333.2 71.9 333.6 72.1 333.95 71.95 334.45 L64.95 351.4 82.7 351.4 Q83.2 351.4 83.4 351.75 83.6 352.1 83.45 352.6 L78.1 365.55 91.05 365.55 Q91.5 365.55 91.75 365.9 91.95 366.25 91.75 366.75 L88.9 373.7 89.35 373.65 111.15 373.65 Q111.6 373.6 111.85 374.0 112.05 374.35 111.85 374.85 L102.9 396.65 102.15 397.5 101.15 397.85 91.05 397.85 88.1 405.0 85.7 405.0 88.65 397.85 79.35 397.85 Q78.85 397.85 78.65 397.5 78.4 397.15 78.65 396.65 L80.5 392.15 80.05 392.2 63.5 392.2 62.85 393.85 72.95 393.85 Q73.4 393.8 73.65 394.2 73.85 394.55 73.65 395.05 L69.55 405.0 67.1 405.0 70.7 396.25 61.85 396.25 58.25 405.0 55.8 405.0 59.4 396.25 55.35 396.25 51.75 405.0 49.35 405.0 52.95 396.25 44.85 396.25 41.25 405.0 38.85 405.0 40.05 402.1 33.55 402.1 32.35 405.0 29.95 405.0 31.15 402.1 29.5 402.1 28.3 405.0 25.9 405.0 27.1 402.1 23.05 402.1 21.85 405.0 19.45 405.0 20.65 402.1 19.85 402.1 18.65 405.0 16.2 405.0 17.4 402.1 16.4 402.1 15.2 405.0 12.75 405.0 13.95 402.1 10.95 402.1 9.75 405.0 5.7 405.0 6.9 402.1 0.45 402.1 -0.75 405.0 -3.2 405.0 -2.0 402.1 -5.0 402.1 -5.0 398.7 -0.6 398.7 2.6 391.0 Q2.8 390.5 3.3 390.15 3.75 389.8 4.3 389.8 L11.95 389.8 12.3 389.0 -5.0 389.0 -5.0 381.9 4.75 358.3 2.7 358.3 Q2.2 358.25 2.05 357.9 1.8 357.55 2.0 357.05 L14.65 326.35 Q14.85 325.85 15.35 325.5 15.85 325.15 16.35 325.15 L47.05 325.15 Q47.55 325.15 47.75 325.5 47.95 325.85 47.8 326.35 L44.95 333.25 71.2 333.25 M43.95 335.65 L39.2 347.15 63.05 347.15 Q63.55 347.15 63.75 347.55 63.95 347.85 63.8 348.35 L69.0 335.65 43.95 335.65 M44.85 327.55 L16.6 327.55 4.95 355.85 5.75 355.85 8.8 348.4 Q9.0 347.9 9.55 347.55 10.0 347.15 10.55 347.15 L26.3 347.15 31.55 334.45 Q31.75 333.95 32.25 333.6 32.7 333.2 33.25 333.25 L42.55 333.25 44.85 327.55 M35.8 349.6 L27.7 349.6 25.15 355.85 33.2 355.85 35.8 349.6 M33.45 358.3 L24.15 358.3 23.3 360.3 35.45 360.3 Q35.9 360.3 36.15 360.65 36.35 361.0 36.15 361.5 L32.15 371.2 43.85 371.2 51.5 352.6 Q51.7 352.1 52.25 351.75 52.7 351.4 53.25 351.4 L60.1 351.4 60.85 349.6 38.2 349.6 35.15 357.05 34.45 357.9 33.45 358.3 M25.3 349.6 L10.75 349.6 8.15 355.85 22.7 355.85 25.3 349.6 M33.2 362.7 L22.3 362.7 18.8 371.2 29.7 371.2 33.2 362.7 M21.7 358.3 L7.15 358.3 -4.5 386.55 13.3 386.55 14.3 384.15 4.2 384.15 Q3.7 384.1 3.5 383.75 3.25 383.4 3.5 382.9 L12.3 361.5 Q12.5 361.0 13.0 360.65 13.5 360.3 14.0 360.3 L20.9 360.3 21.7 358.3 M36.8 347.15 L41.55 335.65 33.45 335.65 28.7 347.15 36.8 347.15 M14.25 362.7 L6.4 381.7 15.3 381.7 15.8 380.5 Q16.0 380.0 16.5 379.65 17.0 379.25 17.5 379.3 L26.4 379.3 28.75 373.65 16.6 373.65 Q16.1 373.6 15.9 373.25 15.7 372.9 15.9 372.4 L19.9 362.7 14.25 362.7 M14.35 393.85 L20.8 393.85 21.5 392.2 15.0 392.2 14.35 393.85 M16.0 389.8 L36.2 389.8 39.55 381.7 27.8 381.7 27.3 382.9 26.6 383.75 25.6 384.15 16.7 384.15 15.75 386.55 16.15 386.55 Q16.6 386.55 16.85 386.9 17.05 387.25 16.85 387.75 L16.0 389.8 M4.5 392.2 L1.85 398.7 8.3 398.7 10.95 392.2 4.5 392.2 M23.25 393.85 L24.05 393.85 24.7 392.2 23.9 392.2 23.25 393.85 M26.65 393.45 L26.45 393.85 34.55 393.85 34.7 393.45 26.65 393.45 M36.95 393.85 L42.65 393.85 42.8 393.45 37.15 393.45 36.95 393.85 M28.8 379.3 L40.55 379.3 42.85 373.65 31.15 373.65 28.8 379.3 M66.8 365.55 L75.7 365.55 80.5 353.85 63.95 353.85 56.3 372.4 55.6 373.25 54.6 373.65 53.35 373.65 51.0 379.35 51.35 379.65 Q51.55 380.0 51.35 380.5 L51.2 380.9 59.25 380.9 65.1 366.75 Q65.3 366.25 65.8 365.9 66.3 365.55 66.8 365.55 M67.0 367.95 L61.7 380.9 69.35 380.9 74.7 367.95 67.0 367.95 M46.3 371.2 L51.95 371.2 59.1 353.85 53.45 353.85 46.3 371.2 M48.6 379.3 L50.95 373.65 45.3 373.65 42.95 379.3 48.6 379.3 M41.3 383.35 L38.65 389.8 44.3 389.8 46.95 383.35 41.3 383.35 M45.85 393.85 L53.95 393.85 54.1 393.45 46.05 393.45 45.85 393.85 M56.35 393.85 L60.4 393.85 61.05 392.2 57.05 392.2 56.35 393.85 M55.6 389.8 L58.25 383.35 50.2 383.35 47.5 389.8 55.6 389.8 M58.05 389.8 L79.85 389.8 82.5 383.35 60.7 383.35 58.05 389.8 M77.1 367.95 L71.8 380.9 83.5 380.9 88.85 367.95 77.1 367.95 M97.55 381.25 Q97.75 381.6 97.55 382.1 L92.05 395.45 100.95 395.45 108.95 376.05 89.55 376.05 87.55 380.9 96.85 380.9 Q97.3 380.9 97.55 381.25 M89.65 395.45 L94.65 383.35 86.55 383.35 81.55 395.45 89.65 395.45 M30.5 399.7 L32.15 399.7 33.55 396.25 25.45 396.25 24.45 398.7 29.7 398.7 Q30.2 398.65 30.4 399.05 L30.5 399.7 M34.55 399.7 L40.2 399.7 41.65 396.25 35.95 396.25 34.55 399.7 M22.25 396.25 L21.25 398.7 22.05 398.7 23.05 396.25 22.25 396.25 M19.8 396.25 L13.35 396.25 12.35 398.7 18.8 398.7 19.8 396.25" fill="url(#gradient2)" fill-rule="evenodd" stroke="none"/>
    </g>
    <radialGradient cx="0" cy="0" gradientTransform="matrix(0.3258, 0.0, 0.0, 0.3258, 275.95, 117.0)" gradientUnits="userSpaceOnUse" id="gradient0" r="819.2" spreadMethod="pad">
      <stop offset="0.0" stop-color="#ffffff"/>
      <stop offset="0.11764705882352941" stop-color="#ffe7c4"/>
      <stop offset="0.2235294117647059" stop-color="#ffb323"/>
      <stop offset="0.3686274509803922" stop-color="#ff6107"/>
      <stop offset="0.5215686274509804" stop-color="#c82a17"/>
      <stop offset="0.8705882352941177" stop-color="#491402"/>
      <stop offset="1.0" stop-color="#280c00"/>
    </radialGradient>
    <linearGradient gradientTransform="matrix(0.0, 0.094, -0.0668, 0.0, 292.3, 367.0)" gradientUnits="userSpaceOnUse" id="gradient1" spreadMethod="pad" x1="-819.2" x2="819.2">
      <stop offset="0.0" stop-color="#e60000"/>
      <stop offset="1.0" stop-color="#1700ee"/>
    </linearGradient>
    <linearGradient gradientTransform="matrix(0.0, 0.094, -0.0668, 0.0, 250.3, 364.0)" gradientUnits="userSpaceOnUse" id="gradient2" spreadMethod="pad" x1="-819.2" x2="819.2">
      <stop offset="0.0" stop-color="#e60000"/>
      <stop offset="1.0" stop-color="#1700ee"/>
    </linearGradient>
  </defs>
</svg>
