<?xml version="1.0" encoding="UTF-8" standalone="no"?>
<svg xmlns:xlink="http://www.w3.org/1999/xlink" height="842.55px" width="1337.95px" xmlns="http://www.w3.org/2000/svg">
  <g transform="matrix(1, 0, 0, 1, 407.45, 285.05)">
    <use height="4.5" transform="matrix(5.4867, 0.0, 0.0, 81.5667, 3.2875, 23.0167)" width="99.75" xlink:href="#shape0"/>
    <use height="403.0" transform="matrix(1.0, 0.0, 0.0, 1.0, -2.0, -4.0)" width="553.8" xlink:href="#shape1"/>
  </g>
  <defs>
    <g id="shape0" transform="matrix(1, 0, 0, 1, 49.85, -2.5)">
      <path d="M49.9 7.0 L-49.85 7.0 -49.85 2.5 49.9 2.5 49.9 7.0" fill="#ffffff" fill-rule="evenodd" stroke="none"/>
    </g>
    <g id="shape1" transform="matrix(1, 0, 0, 1, 2.0, 4.0)">
      <path d="M472.55 15.9 L475.45 17.05 Q470.95 17.9 466.9 19.7 L470.6 17.25 Q471.5 16.6 472.55 15.9 M461.15 22.8 Q457.45 25.25 454.1 28.55 441.8 40.85 441.8 58.25 441.8 75.65 454.1 87.95 465.85 99.7 482.3 100.25 471.0 107.75 456.55 107.75 L451.25 107.5 Q444.45 106.8 438.4 104.3 430.05 100.8 423.15 93.9 409.3 80.1 409.3 60.5 409.3 50.2 413.15 41.5 415.85 42.55 419.4 42.2 429.4 41.2 451.1 28.0 L451.9 27.6 Q454.1 26.35 460.45 23.15 L461.15 22.8" fill="#ffffd5" fill-rule="evenodd" stroke="none"/>
      <path d="M33.5 -2.9 Q28.15 -2.2 24.55 -0.55 L22.55 0.5 Q21.75 1.0 21.05 1.55 16.5 5.15 16.5 12.0 L16.7 13.15 Q17.2 14.4 18.55 15.4 20.75 17.0 24.8 17.8 L30.4 18.4 34.0 18.5 37.45 18.45 41.05 18.15 Q48.3 17.25 53.05 14.5 58.5 11.25 58.5 7.35 52.5 -0.65 46.95 -2.75 44.95 -3.5 43.0 -3.5 L35.6 -3.15 33.5 -2.9 M80.55 -4.0 Q81.1 -3.0 80.65 -2.6 80.25 -2.3 78.8 -2.0 61.9 17.6 53.35 28.4 52.3 23.05 44.6 22.55 L43.0 22.5 40.8 22.8 35.6 24.0 34.35 24.35 30.0 25.65 Q23.95 27.6 18.55 30.05 L18.0 30.3 13.8 32.45 Q6.7 36.25 2.55 40.55 0.85 42.25 -0.35 44.1 L-0.5 44.3 -2.0 47.05 -2.0 -3.35 -1.5 -4.0 80.55 -4.0 M-1.45 277.0 Q-1.1 273.5 7.5 273.5 L8.3 273.5 Q11.55 273.6 14.45 274.4 21.45 276.35 26.0 282.7 27.75 285.1 29.1 288.15 L29.8 289.75 32.2 296.1 33.35 299.6 33.8 300.8 Q35.9 305.95 38.25 307.75 L40.85 309.5 45.4 312.1 Q52.65 316.15 66.55 323.25 88.2 334.35 91.6 339.25 103.8 356.7 124.85 373.0 127.25 374.75 152.1 384.0 155.1 385.25 156.4 388.0 158.05 391.6 159.6 393.0 165.8 398.55 174.45 398.25 L179.45 397.9 Q181.35 397.85 181.35 398.85 L181.35 399.0 113.05 399.0 112.6 398.0 Q112.15 397.35 111.5 397.0 110.0 396.15 103.65 395.45 L92.25 393.95 86.65 393.05 Q71.4 390.4 56.0 386.25 47.9 384.1 42.15 381.15 40.45 380.25 34.3 376.4 30.35 373.85 26.7 372.85 21.7 371.5 13.5 371.5 L-1.5 371.95 -1.5 342.5 -1.95 319.05 -1.95 294.7 -2.0 277.8 -1.45 277.65 -1.45 277.5 -1.5 277.35 -1.45 277.0 M387.45 399.0 L387.35 398.0 Q387.35 397.65 387.65 397.15 388.55 395.55 392.2 392.45 398.0 387.45 410.85 378.5 412.65 377.25 432.4 371.8 450.8 366.7 453.35 363.0 454.7 361.15 455.9 357.5 456.75 355.0 457.55 353.55 L458.25 352.35 Q462.15 346.95 476.35 346.0 L477.4 345.95 Q489.7 344.85 499.25 337.95 L501.2 336.45 502.4 335.45 505.05 333.0 507.3 330.85 507.6 330.65 Q507.75 330.5 507.85 330.5 L515.7 328.9 518.1 328.5 522.75 327.55 527.95 326.3 Q544.45 321.85 546.35 313.75 546.75 312.05 546.7 309.2 L546.65 304.4 Q546.95 299.65 549.95 296.0 L551.6 294.25 551.8 294.05 551.8 399.0 387.45 399.0 M118.35 82.85 L117.5 76.9 Q115.5 63.15 115.5 58.0 L115.55 52.75 Q115.7 41.05 116.65 35.95 117.8 29.75 121.45 25.9 123.85 23.35 131.9 17.05 139.8 10.3 147.8 1.1 147.5 0.4 147.5 -0.75 L148.9 -0.75 149.4 -0.75 149.9 -1.35 150.0 -1.5 150.6 -0.8 201.9 -2.0 215.45 -2.4 221.75 -2.6 259.75 -4.0 502.3 -4.0 Q501.15 -2.5 500.35 -2.5 499.65 -2.5 498.3 -3.1 L498.2 -2.7 497.95 -2.0 Q496.35 1.9 488.75 6.4 L479.75 11.5 Q475.55 13.9 472.55 15.9 471.5 16.6 470.6 17.25 L466.9 19.7 465.55 20.5 465.55 20.3 465.55 20.1 Q465.5 19.45 464.15 19.0 459.9 17.5 443.85 17.5 L435.0 18.35 Q423.85 19.0 408.85 18.5 408.25 18.5 405.3 17.0 402.3 15.5 400.85 15.5 392.85 15.5 385.9 20.5 383.55 22.2 381.8 24.1 380.35 25.65 380.35 26.0 380.35 28.65 382.85 29.5 L382.95 30.05 Q374.85 31.55 363.85 35.75 334.6 48.0 318.85 54.25 305.7 59.5 299.95 65.45 298.1 67.35 295.75 70.7 L292.2 75.55 291.15 75.05 Q286.2 73.5 266.85 73.5 L253.85 74.0 Q224.8 76.8 217.55 85.0 215.85 86.95 213.15 92.7 210.75 97.9 207.35 101.0 203.65 104.35 200.05 106.0 197.55 107.15 195.1 107.5 L193.95 107.6 Q190.35 107.85 183.0 105.75 L179.6 104.95 172.35 104.7 171.6 104.9 Q165.8 106.55 159.85 113.75 159.05 114.7 155.8 121.2 153.75 125.4 152.9 127.7 L151.35 127.5 Q145.0 127.5 129.9 136.8 127.25 138.45 125.05 139.85 120.9 142.6 118.5 144.55 L118.05 144.95 Q115.55 147.0 115.4 148.1 L114.75 148.0 Q114.55 144.05 114.5 136.6 L114.5 136.35 114.5 135.45 114.5 134.5 Q114.5 125.25 117.0 113.45 119.5 101.65 119.5 93.25 119.5 91.25 118.35 82.85 M464.05 21.3 L461.15 22.8 460.45 23.15 Q454.1 26.35 451.9 27.6 L451.1 28.0 450.95 25.8 449.4 22.95 450.7 22.85 463.5 21.4 464.05 21.3 M289.15 79.05 L288.0 80.35 286.6 78.95 289.15 79.05 M123.85 186.55 L125.0 186.5 Q147.55 186.5 151.65 202.35 153.8 210.65 151.5 222.5 151.5 230.45 154.75 235.8 L153.7 236.4 Q153.0 235.5 151.85 235.5 150.55 235.5 149.35 241.75 148.35 247.05 148.35 250.0 148.35 252.9 149.9 256.2 L153.35 262.4 Q158.35 271.25 158.35 280.0 L158.3 285.15 Q158.6 290.15 160.5 294.15 166.35 306.5 185.85 306.5 L193.9 306.25 Q195.35 305.9 195.35 303.85 L195.15 303.45 195.2 303.4 Q196.8 305.15 199.15 306.95 205.85 312.2 215.35 315.25 223.4 317.8 226.9 323.45 L229.5 328.1 Q231.15 330.8 233.35 332.5 L233.35 338.65 233.0 338.5 Q203.45 327.05 184.45 319.9 155.95 309.2 144.65 307.05 L142.85 304.95 140.5 303.05 140.5 302.85 Q140.5 301.0 138.45 297.1 135.95 292.35 132.0 288.25 123.7 279.6 112.45 277.35 L112.5 276.25 108.15 272.15 107.25 271.3 Q110.75 273.5 115.85 273.5 125.25 273.5 131.6 265.75 136.35 259.9 136.35 256.0 136.35 253.6 135.25 252.65 133.0 251.15 130.6 248.75 128.55 245.6 126.7 243.2 123.1 238.5 120.35 238.5 114.05 238.5 108.9 240.5 104.35 242.25 104.35 243.75 104.35 246.25 104.6 245.25 L105.3 246.15 106.05 246.45 105.45 250.65 104.35 250.5 103.6 250.55 Q104.35 231.7 115.0 207.5 L122.9 189.15 123.85 186.55 M356.45 345.85 Q360.15 344.55 362.75 343.3 373.05 338.35 376.1 330.25 377.7 325.95 386.7 322.65 401.55 317.25 404.85 315.5 L415.15 309.15 Q425.2 303.5 430.85 303.5 434.25 303.5 446.75 312.1 464.9 324.6 466.35 325.5 L466.2 325.8 Q448.05 321.5 437.5 321.5 L432.35 321.95 431.55 322.1 431.0 321.5 430.0 322.45 Q428.8 322.7 428.5 323.0 L428.75 323.6 Q421.25 330.6 404.5 348.0 402.7 349.9 394.7 353.4 393.3 351.5 389.85 351.5 385.95 351.5 383.95 352.95 381.65 354.7 379.35 355.0 376.7 350.6 376.05 349.9 371.9 345.5 365.35 345.5 L356.45 345.85 M347.95 6.95 Q344.95 3.5 334.85 3.5 323.95 3.5 317.4 9.0 315.15 10.9 313.9 12.75 307.35 13.4 304.9 14.05 301.35 14.95 301.35 16.75 301.35 19.25 301.6 18.25 L302.0 18.55 Q301.2 18.65 300.85 19.0 L300.35 19.5 Q300.65 24.75 304.75 29.05 310.85 35.5 323.35 35.5 344.65 35.5 353.65 28.25 359.35 23.65 359.35 17.0 359.35 14.5 359.05 14.05 357.85 12.2 352.6 11.25 350.8 10.9 349.75 9.55 L347.95 6.95 M465.85 375.25 Q467.45 374.45 469.0 373.75 L473.35 371.65 477.4 369.75 478.65 372.55 464.35 376.0 465.85 375.25 M451.85 381.75 L456.35 382.0 453.85 382.25 451.85 381.75 M434.6 376.0 L434.35 378.25 Q434.35 379.5 438.05 381.6 442.3 383.95 449.1 386.0 L450.65 386.45 Q468.4 391.5 492.35 391.5 523.25 391.5 537.15 387.8 551.35 384.0 551.35 375.35 551.45 371.95 550.15 368.8 547.5 362.5 540.35 362.5 539.4 362.5 531.8 365.25 524.2 368.0 520.0 368.0 516.25 368.0 513.9 366.2 512.45 365.05 510.7 362.25 508.9 359.3 507.75 358.3 505.65 356.5 502.35 356.5 496.05 356.5 487.45 360.3 L471.7 368.25 467.35 370.4 Q460.05 373.75 454.35 375.2 444.2 377.8 434.6 376.0 M268.35 19.75 Q269.5 15.5 264.85 15.5 263.65 15.5 261.5 16.55 L256.7 18.9 251.85 20.6 Q245.65 22.25 237.85 22.25 L226.9 22.8 221.45 23.55 Q216.15 24.4 211.45 25.9 207.2 27.2 203.4 29.0 191.7 34.55 189.1 42.55 188.35 44.85 188.35 47.35 L188.1 48.0 Q187.95 48.6 188.4 49.1 189.3 49.95 192.5 50.3 L197.35 50.5 198.75 50.5 Q205.5 50.25 208.85 47.55 210.8 46.0 212.1 43.75 218.4 39.0 222.55 38.8 224.9 38.7 228.7 40.7 232.45 42.6 235.5 42.25 240.4 41.75 247.85 36.5 253.45 32.55 260.8 27.8 L262.9 26.45 Q268.35 22.55 268.35 19.75 M50.4 9.65 Q50.6 10.85 50.1 11.25 48.45 12.5 38.85 13.0 L34.5 13.15 28.05 13.25 24.5 13.25 Q24.1 13.25 23.0 12.0 L21.95 10.55 21.75 9.75 21.8 9.55 Q22.05 7.9 26.05 5.3 L26.4 5.1 Q29.25 3.2 32.55 2.4 L36.85 1.8 38.0 1.75 Q46.05 1.75 48.7 4.7 L50.2 6.95 Q50.95 8.15 52.0 8.5 50.25 8.8 50.4 9.65 M58.65 339.0 Q56.4 337.5 51.5 337.5 35.6 337.5 15.5 355.0 L15.0 357.5 Q14.95 359.5 17.55 361.0 25.3 365.5 56.5 365.5 L58.7 365.45 63.2 365.1 Q74.3 363.65 83.15 357.25 87.35 354.2 90.0 350.75 92.35 347.7 92.35 346.0 91.85 343.75 91.85 343.0 L89.35 342.5 Q88.3 342.5 83.5 344.9 78.7 347.25 77.25 347.25 64.9 347.25 61.45 342.4 59.55 339.6 58.65 339.0" fill="#f0e4e6" fill-opacity="0.8" fill-rule="evenodd" stroke="none"/>
      <path d="M105.9 399.0 L103.65 395.45 Q110.0 396.15 111.5 397.0 112.15 397.35 112.6 398.0 L113.05 399.0 105.9 399.0" fill="#e9dade" fill-opacity="0.9529412" fill-rule="evenodd" stroke="none"/>
      <path d="M53.35 28.4 L53.45 28.85 53.5 29.5 53.25 31.75 Q53.45 32.4 51.7 32.5 L51.0 32.5 50.3 32.35 49.0 34.1 47.75 35.75 44.9 39.05 Q39.9 44.0 29.95 50.45 L23.9 54.25 23.65 54.35 Q18.55 57.4 14.45 60.15 11.85 61.9 9.65 63.55 2.75 68.65 0.0 72.5 L-0.5 72.35 -1.8 71.7 -2.0 71.5 -2.0 47.05 -0.5 44.3 -0.35 44.1 Q0.85 42.25 2.55 40.55 6.7 36.25 13.8 32.45 L18.0 30.3 18.55 30.05 Q23.95 27.6 30.0 25.65 L34.35 24.35 35.6 24.0 40.8 22.8 43.0 22.5 44.6 22.55 Q52.3 23.05 53.35 28.4 M465.55 20.5 L465.35 20.85 464.05 21.3 463.5 21.4 450.7 22.85 449.4 22.95 450.95 25.8 451.1 28.0 Q429.4 41.2 419.4 42.2 415.85 42.55 413.15 41.5 L412.25 41.05 Q410.2 40.0 407.55 37.2 L402.8 32.7 Q399.65 30.35 395.6 29.6 L382.95 30.05 382.85 29.5 Q380.35 28.65 380.35 26.0 380.35 25.65 381.8 24.1 383.55 22.2 385.9 20.5 392.85 15.5 400.85 15.5 402.3 15.5 405.3 17.0 408.25 18.5 408.85 18.5 423.85 19.0 435.0 18.35 L443.85 17.5 Q459.9 17.5 464.15 19.0 465.5 19.45 465.55 20.1 L465.55 20.3 465.55 20.5 M292.2 75.55 L292.7 76.2 292.35 76.85 Q292.35 78.85 291.8 79.0 L289.15 79.05 286.6 78.95 288.0 80.35 Q283.95 84.65 280.95 86.8 275.6 90.7 264.85 94.5 250.9 99.5 242.25 106.3 L236.2 111.4 Q232.95 114.15 230.1 115.75 224.8 118.7 218.9 122.85 216.25 124.7 213.1 125.15 L194.05 126.8 186.85 127.55 157.55 130.95 157.4 130.95 157.35 131.05 157.25 132.15 157.35 133.0 Q157.35 136.35 154.1 139.0 151.3 141.3 149.0 141.2 148.1 141.15 145.0 140.0 142.8 139.15 140.3 139.55 136.45 140.05 131.85 143.5 L129.25 145.5 Q125.95 147.55 123.45 149.65 119.3 152.5 118.35 152.5 L115.6 152.0 Q115.35 150.75 115.35 148.25 L115.4 148.1 Q115.55 147.0 118.05 144.95 L118.5 144.55 Q120.9 142.6 125.05 139.85 127.25 138.45 129.9 136.8 145.0 127.5 151.35 127.5 L152.9 127.7 Q153.75 125.4 155.8 121.2 159.05 114.7 159.85 113.75 165.8 106.55 171.6 104.9 L172.35 104.7 179.6 104.95 183.0 105.75 Q190.35 107.85 193.95 107.6 L195.1 107.5 Q197.55 107.15 200.05 106.0 203.65 104.35 207.35 101.0 210.75 97.9 213.15 92.7 215.85 86.95 217.55 85.0 224.8 76.8 253.85 74.0 L266.85 73.5 Q286.2 73.5 291.15 75.05 L292.2 75.55 M154.75 235.8 L156.05 237.65 Q159.3 241.7 166.25 245.2 175.25 249.75 176.7 250.75 181.6 254.4 182.1 260.0 182.65 267.15 185.85 278.35 187.65 284.75 191.6 297.5 192.4 300.4 195.2 303.4 L195.15 303.45 195.35 303.85 Q195.35 305.9 193.9 306.25 L185.85 306.5 Q166.35 306.5 160.5 294.15 158.6 290.15 158.3 285.15 L158.35 280.0 Q158.35 271.25 153.35 262.4 L149.9 256.2 Q148.35 252.9 148.35 250.0 148.35 247.05 149.35 241.75 150.55 235.5 151.85 235.5 153.0 235.5 153.7 236.4 L154.75 235.8 M310.6 363.1 Q311.3 361.6 314.15 359.4 318.4 356.15 325.1 353.25 339.3 347.1 356.45 345.85 L365.35 345.5 Q371.9 345.5 376.05 349.9 376.7 350.6 379.35 355.0 381.65 354.7 383.95 352.95 385.95 351.5 389.85 351.5 393.3 351.5 394.7 353.4 L378.9 359.7 Q373.25 361.8 369.15 363.6 366.6 360.5 360.5 360.5 357.2 360.5 354.9 362.15 351.95 364.25 348.5 365.0 L331.95 368.15 324.05 366.5 Q317.55 365.1 310.6 363.1 M268.35 19.75 Q268.35 22.55 262.9 26.45 L260.8 27.8 Q253.45 32.55 247.85 36.5 240.4 41.75 235.5 42.25 232.45 42.6 228.7 40.7 224.9 38.7 222.55 38.8 218.4 39.0 212.1 43.75 210.8 46.0 208.85 47.55 205.5 50.25 198.75 50.5 L197.35 50.5 192.5 50.3 Q189.3 49.95 188.4 49.1 187.95 48.6 188.1 48.0 L188.35 47.35 Q188.35 44.85 189.1 42.55 191.7 34.55 203.4 29.0 207.2 27.2 211.45 25.9 216.15 24.4 221.45 23.55 L226.9 22.8 237.85 22.25 Q245.65 22.25 251.85 20.6 L256.7 18.9 261.5 16.55 Q263.65 15.5 264.85 15.5 269.5 15.5 268.35 19.75 M-1.5 371.95 L13.5 371.5 Q21.7 371.5 26.7 372.85 30.35 373.85 34.3 376.4 40.45 380.25 42.15 381.15 47.9 384.1 56.0 386.25 71.4 390.4 86.65 393.05 L92.25 393.95 103.65 395.45 105.9 399.0 -1.1 399.0 Q-1.5 397.85 -1.5 396.5 L-1.5 375.75 -2.0 374.45 -2.0 372.9 Q-1.45 372.7 -1.6 372.5 -1.9 372.1 -1.7 372.0 L-1.5 371.95" fill="#e9dade" fill-opacity="0.8" fill-rule="evenodd" stroke="none"/>
      <path d="M53.35 28.4 Q61.9 17.6 78.8 -2.0 80.25 -2.3 80.65 -2.6 81.1 -3.0 80.55 -4.0 L123.7 -4.0 145.25 -3.15 144.5 -2.0 142.45 1.2 136.1 11.0 Q133.05 15.65 124.4 19.15 120.7 20.6 119.4 21.6 117.35 23.2 117.35 25.75 L117.45 27.3 Q113.15 33.85 115.05 48.95 L115.55 52.75 115.5 58.0 Q115.5 63.15 117.5 76.9 L118.35 82.85 Q117.4 95.6 113.45 110.3 109.5 124.9 109.5 137.1 L110.15 140.95 Q111.05 145.3 112.3 148.95 114.9 156.65 118.35 159.2 L119.0 161.5 Q121.5 169.95 121.5 172.85 121.5 177.95 119.25 184.55 L117.9 188.05 Q115.75 193.35 110.0 205.3 98.5 230.6 98.5 254.6 L98.15 259.3 Q97.9 264.05 98.5 267.75 99.45 273.75 102.4 276.7 101.95 276.8 101.8 277.0 101.5 277.4 101.5 279.35 L102.4 279.4 106.15 280.15 Q113.4 282.5 126.45 290.65 L123.5 290.5 Q105.15 290.5 91.75 291.4 71.4 292.7 62.3 296.0 56.85 297.95 55.25 300.65 54.5 301.95 54.5 304.75 54.5 306.4 55.2 306.9 L57.0 307.5 Q59.3 305.95 64.0 300.75 71.35 292.7 81.2 294.6 84.05 295.15 90.15 296.85 L95.95 297.9 100.5 298.0 128.0 295.75 Q128.45 295.75 130.5 297.15 L132.2 298.15 133.0 299.75 133.45 300.65 131.0 300.5 Q125.65 300.5 102.2 306.2 L100.0 306.75 Q73.5 313.3 73.5 315.75 73.5 318.25 73.75 317.25 L74.2 318.15 Q74.45 318.5 76.0 318.5 87.85 318.5 94.0 316.55 97.55 315.45 101.85 312.25 103.6 310.95 105.4 309.95 107.8 308.65 110.25 307.95 117.1 306.0 130.0 306.0 133.3 306.0 135.65 306.7 128.5 307.4 128.5 310.75 128.5 312.3 128.7 312.55 L129.5 313.0 131.5 313.5 Q158.6 313.5 192.3 326.8 201.9 330.55 214.75 336.6 225.85 341.85 228.0 342.5 L235.1 344.45 257.15 350.15 Q275.85 354.85 280.0 357.5 283.7 359.85 304.5 366.45 L318.1 370.55 323.15 371.85 329.25 373.15 332.0 373.5 338.6 374.05 Q340.45 373.9 350.0 370.25 353.2 369.05 356.0 366.8 357.25 365.75 362.25 365.75 L363.1 366.55 Q358.5 369.1 358.5 370.75 358.5 373.25 358.75 372.25 360.0 373.5 363.0 373.5 367.9 373.5 386.25 364.85 L395.3 360.35 Q406.4 354.55 409.75 350.75 L431.7 326.95 Q435.75 329.65 444.45 330.1 451.65 330.5 461.35 330.0 L470.3 332.8 472.1 333.4 Q483.8 336.5 498.35 336.5 L501.2 336.45 499.25 337.95 Q489.7 344.85 477.4 345.95 L475.85 345.5 462.75 346.45 Q450.85 347.45 446.1 348.5 441.35 349.6 441.35 351.75 441.35 353.4 442.05 353.9 L443.85 354.5 455.05 353.75 457.55 353.55 Q456.75 355.0 455.9 357.5 454.7 361.15 453.35 363.0 450.8 366.7 432.4 371.8 412.65 377.25 410.85 378.5 398.0 387.45 392.2 392.45 390.75 391.45 389.3 389.85 L384.55 383.7 382.75 381.55 Q380.55 379.1 378.25 377.65 L376.65 376.75 Q374.05 375.5 371.35 375.5 L368.4 375.7 Q367.35 376.1 367.35 377.75 L367.35 377.8 Q367.35 380.25 367.6 379.25 369.0 379.7 370.3 380.6 371.9 381.7 373.3 383.45 L374.45 385.2 377.3 389.6 Q381.35 395.75 387.65 397.15 387.35 397.65 387.35 398.0 L387.45 399.0 375.3 399.0 374.35 398.0 Q370.0 393.3 365.0 387.05 L364.9 386.95 361.05 381.9 358.4 378.4 354.85 373.5 Q352.35 374.15 352.35 377.25 L353.35 378.5 356.15 382.0 360.45 387.4 369.1 398.0 369.95 399.0 354.65 399.0 353.2 398.0 Q347.9 394.05 345.55 387.5 L345.2 386.3 343.5 380.75 343.25 380.0 342.55 378.2 Q341.75 376.5 340.85 375.5 339.75 376.35 339.15 377.9 L339.05 378.2 Q338.35 380.1 338.35 383.1 L338.45 384.0 338.75 386.45 Q339.35 390.3 340.65 393.45 341.7 396.05 343.15 398.0 L343.9 399.0 200.75 399.0 198.85 398.75 181.35 398.85 Q181.35 397.85 179.45 397.9 L174.45 398.25 Q165.8 398.55 159.6 393.0 158.05 391.6 156.4 388.0 155.1 385.25 152.1 384.0 127.25 374.75 124.85 373.0 103.8 356.7 91.6 339.25 88.2 334.35 66.55 323.25 52.65 316.15 45.4 312.1 L47.5 307.75 Q50.7 301.8 60.1 293.95 70.2 285.5 73.5 280.5 L72.75 279.2 Q72.1 278.5 70.5 278.5 56.55 278.5 43.25 304.55 L40.85 309.5 38.25 307.75 Q35.9 305.95 33.8 300.8 36.05 296.5 40.5 291.1 L46.05 284.4 Q48.5 281.2 48.5 279.85 48.5 278.3 47.7 277.95 L46.0 277.5 Q39.4 281.2 32.2 296.1 L29.8 289.75 Q33.05 283.25 33.5 279.75 35.5 263.55 35.5 245.25 35.5 243.65 34.7 243.15 L33.0 242.5 Q28.05 247.6 28.2 258.65 L28.7 267.7 Q28.95 272.95 28.5 276.0 28.05 278.0 26.0 282.7 21.45 276.35 14.45 274.4 L16.3 264.95 Q16.5 263.5 16.5 252.1 16.5 237.75 15.75 234.4 15.35 232.65 7.0 208.5 4.5 210.0 4.5 218.0 4.5 223.65 8.0 233.2 11.5 242.75 11.5 252.1 11.5 262.5 9.5 268.95 8.75 271.35 8.3 273.5 L7.5 273.5 Q-1.1 273.5 -1.45 277.0 L-1.5 273.25 Q-1.5 271.0 -2.0 266.55 L-2.0 243.25 -1.4 242.05 -1.5 237.85 Q-1.5 229.25 -0.5 224.75 L-0.5 72.35 0.0 72.5 Q2.75 68.65 9.65 63.55 15.85 75.4 18.25 81.75 23.7 96.2 23.5 120.75 L23.05 130.25 Q22.75 136.4 23.05 140.4 23.9 152.5 30.75 159.75 37.25 166.6 38.05 179.35 L38.6 189.3 Q39.15 194.8 41.0 198.5 L43.25 197.75 43.5 186.5 Q43.5 178.2 40.65 168.4 L34.65 151.25 Q30.7 140.55 29.3 133.5 27.25 123.35 28.5 113.75 31.0 93.1 21.75 77.0 20.2 74.3 17.4 67.45 L14.45 60.15 Q18.55 57.4 23.65 54.35 L23.9 54.25 28.1 61.95 Q35.45 74.5 39.0 74.5 41.5 74.5 41.25 73.75 L41.5 71.5 35.95 61.2 29.95 50.45 Q39.9 44.0 44.9 39.05 L46.5 40.2 Q59.55 49.5 62.0 49.5 63.45 49.5 64.15 48.75 L65.5 46.5 49.0 34.1 50.3 32.35 51.0 32.5 51.7 32.5 53.5 33.75 Q75.3 48.5 101.0 48.5 L107.05 48.25 Q108.5 47.85 108.5 45.85 99.0 44.95 86.45 41.85 66.95 37.0 53.45 28.85 L53.35 28.4 M499.65 331.0 L500.05 330.5 Q500.75 330.15 503.85 330.5 L506.25 330.75 507.3 330.85 505.05 333.0 502.4 335.45 Q500.1 334.75 499.6 334.25 499.35 335.25 499.35 332.75 499.35 331.6 499.65 331.0 M470.6 338.35 Q470.65 337.9 469.9 337.55 L469.15 337.3 457.35 336.5 Q448.1 336.5 438.9 338.5 430.35 340.35 430.35 341.75 430.35 344.25 430.6 343.25 431.85 344.5 434.85 344.5 437.35 344.5 445.85 342.5 L467.0 341.15 467.65 341.1 Q469.65 340.9 470.1 340.4 L470.35 338.85 470.6 338.35 M123.45 149.65 Q125.95 147.55 129.25 145.5 131.5 144.05 134.15 142.65 L140.3 139.55 Q142.8 139.15 145.0 140.0 148.1 141.15 149.0 141.2 151.3 141.3 154.1 139.0 157.35 136.35 157.35 133.0 L157.25 132.15 157.35 131.05 157.55 130.95 186.85 127.55 181.2 133.55 Q174.1 141.1 168.25 144.0 155.55 150.3 136.05 154.85 129.05 156.5 126.8 157.55 L124.9 158.8 124.3 157.3 Q123.55 153.9 122.05 150.9 L123.45 149.65 M19.0 144.45 Q21.5 132.0 21.5 122.85 21.5 121.1 20.95 120.75 L18.5 120.5 Q16.8 120.5 14.0 143.25 11.5 163.75 11.5 168.75 11.5 178.2 15.0 203.9 18.5 229.6 18.5 241.1 18.5 243.5 16.7 265.0 L16.5 267.0 Q16.5 269.65 16.65 270.4 17.1 272.35 19.0 273.5 20.0 273.25 21.25 272.5 23.5 248.9 23.5 241.35 23.5 226.45 20.0 202.45 16.5 178.45 16.5 168.6 16.5 156.95 19.0 144.45 M-1.5 371.95 L-1.7 372.0 Q-1.9 372.1 -1.6 372.5 -1.45 372.7 -2.0 372.9 L-2.0 294.75 -1.95 294.7 -1.95 319.05 -1.5 342.5 -1.5 371.95 M-2.0 374.45 L-1.5 375.75 -1.5 396.5 Q-1.5 397.85 -1.1 399.0 L-2.0 399.0 -2.0 374.45 M-1.45 277.5 L-1.45 277.65 -1.45 277.5" fill="#605753" fill-rule="evenodd" stroke="none"/>
      <path d="M53.45 28.85 Q66.95 37.0 86.45 41.85 99.0 44.95 108.5 45.85 108.5 47.85 107.05 48.25 L101.0 48.5 Q75.3 48.5 53.5 33.75 L51.7 32.5 Q53.45 32.4 53.25 31.75 L53.5 29.5 53.45 28.85 M49.0 34.1 L65.5 46.5 64.15 48.75 Q63.45 49.5 62.0 49.5 59.55 49.5 46.5 40.2 L44.9 39.05 47.75 35.75 49.0 34.1 M29.95 50.45 L35.95 61.2 41.5 71.5 41.25 73.75 Q41.5 74.5 39.0 74.5 35.45 74.5 28.1 61.95 L23.9 54.25 29.95 50.45 M14.45 60.15 L17.4 67.45 Q20.2 74.3 21.75 77.0 31.0 93.1 28.5 113.75 27.25 123.35 29.3 133.5 30.7 140.55 34.65 151.25 L40.65 168.4 Q43.5 178.2 43.5 186.5 L43.25 197.75 41.0 198.5 Q39.15 194.8 38.6 189.3 L38.05 179.35 Q37.25 166.6 30.75 159.75 23.9 152.5 23.05 140.4 22.75 136.4 23.05 130.25 L23.5 120.75 Q23.7 96.2 18.25 81.75 15.85 75.4 9.65 63.55 11.85 61.9 14.45 60.15 M8.3 273.5 Q8.75 271.35 9.5 268.95 11.5 262.5 11.5 252.1 11.5 242.75 8.0 233.2 4.5 223.65 4.5 218.0 4.5 210.0 7.0 208.5 15.35 232.65 15.75 234.4 16.5 237.75 16.5 252.1 16.5 263.5 16.3 264.95 L14.45 274.4 Q11.55 273.6 8.3 273.5 M26.0 282.7 Q28.05 278.0 28.5 276.0 28.95 272.95 28.7 267.7 L28.2 258.65 Q28.05 247.6 33.0 242.5 L34.7 243.15 Q35.5 243.65 35.5 245.25 35.5 263.55 33.5 279.75 33.05 283.25 29.8 289.75 L29.1 288.15 Q27.75 285.1 26.0 282.7 M32.2 296.1 Q39.4 281.2 46.0 277.5 L47.7 277.95 Q48.5 278.3 48.5 279.85 48.5 281.2 46.05 284.4 L40.5 291.1 Q36.05 296.5 33.8 300.8 L33.35 299.6 32.2 296.1 M40.85 309.5 L43.25 304.55 Q56.55 278.5 70.5 278.5 72.1 278.5 72.75 279.2 L73.5 280.5 Q70.2 285.5 60.1 293.95 50.7 301.8 47.5 307.75 L45.4 312.1 40.85 309.5 M343.9 399.0 L343.15 398.0 Q341.7 396.05 340.65 393.45 339.35 390.3 338.75 386.45 L338.45 384.0 338.35 383.1 Q338.35 380.1 339.05 378.2 L339.15 377.9 Q339.75 376.35 340.85 375.5 341.75 376.5 342.55 378.2 L343.25 380.0 343.5 380.75 345.2 386.3 345.55 387.5 Q347.9 394.05 353.2 398.0 L354.65 399.0 343.9 399.0 M369.95 399.0 L369.1 398.0 360.45 387.4 356.15 382.0 353.35 378.5 352.35 377.25 Q352.35 374.15 354.85 373.5 L358.4 378.4 361.05 381.9 364.9 386.95 365.0 387.05 Q370.0 393.3 374.35 398.0 L375.3 399.0 369.95 399.0 M387.65 397.15 Q381.35 395.75 377.3 389.6 L374.45 385.2 373.3 383.45 Q371.9 381.7 370.3 380.6 369.0 379.7 367.6 379.25 367.35 380.25 367.35 377.8 L367.35 377.75 Q367.35 376.1 368.4 375.7 L371.35 375.5 Q374.05 375.5 376.65 376.75 L378.25 377.65 Q380.55 379.1 382.75 381.55 L384.55 383.7 389.3 389.85 Q390.75 391.45 392.2 392.45 388.55 395.55 387.65 397.15 M457.55 353.55 L455.05 353.75 443.85 354.5 442.05 353.9 Q441.35 353.4 441.35 351.75 441.35 349.6 446.1 348.5 450.85 347.45 462.75 346.45 L475.85 345.5 477.4 345.95 476.35 346.0 Q462.15 346.95 458.25 352.35 L457.55 353.55 M501.2 336.45 L498.35 336.5 Q483.8 336.5 472.1 333.4 L470.3 332.8 461.35 330.0 Q451.65 330.5 444.45 330.1 435.75 329.65 431.7 326.95 L409.75 350.75 Q406.4 354.55 395.3 360.35 L386.25 364.85 Q367.9 373.5 363.0 373.5 360.0 373.5 358.75 372.25 358.5 373.25 358.5 370.75 358.5 369.1 363.1 366.55 L362.25 365.75 Q357.25 365.75 356.0 366.8 353.2 369.05 350.0 370.25 340.45 373.9 338.6 374.05 L332.0 373.5 329.25 373.15 323.15 371.85 318.1 370.55 304.5 366.45 Q283.7 359.85 280.0 357.5 275.85 354.85 257.15 350.15 L235.1 344.45 228.0 342.5 Q225.85 341.85 214.75 336.6 201.9 330.55 192.3 326.8 158.6 313.5 131.5 313.5 L129.5 313.0 128.7 312.55 Q128.5 312.3 128.5 310.75 128.5 307.4 135.65 306.7 133.3 306.0 130.0 306.0 117.1 306.0 110.25 307.95 107.8 308.65 105.4 309.95 103.6 310.95 101.85 312.25 97.55 315.45 94.0 316.55 87.85 318.5 76.0 318.5 74.45 318.5 74.2 318.15 L73.75 317.25 Q73.5 318.25 73.5 315.75 73.5 313.3 100.0 306.75 L102.2 306.2 Q125.65 300.5 131.0 300.5 L133.45 300.65 133.0 299.75 132.2 298.15 130.5 297.15 Q128.45 295.75 128.0 295.75 L100.5 298.0 95.95 297.9 90.15 296.85 Q84.05 295.15 81.2 294.6 71.35 292.7 64.0 300.75 59.3 305.95 57.0 307.5 L55.2 306.9 Q54.5 306.4 54.5 304.75 54.5 301.95 55.25 300.65 56.85 297.95 62.3 296.0 71.4 292.7 91.75 291.4 105.15 290.5 123.5 290.5 L126.45 290.65 Q113.4 282.5 106.15 280.15 L102.4 279.4 101.5 279.35 Q101.5 277.4 101.8 277.0 101.95 276.8 102.4 276.7 99.45 273.75 98.5 267.75 97.9 264.05 98.15 259.3 L98.5 254.6 Q98.5 230.6 110.0 205.3 115.75 193.35 117.9 188.05 L119.25 184.55 Q121.5 177.95 121.5 172.85 121.5 169.95 119.0 161.5 L118.35 159.2 Q114.9 156.65 112.3 148.95 111.05 145.3 110.15 140.95 L109.5 137.1 Q109.5 124.9 113.45 110.3 117.4 95.6 118.35 82.85 119.5 91.25 119.5 93.25 119.5 101.65 117.0 113.45 114.5 125.25 114.5 134.5 L114.5 135.45 114.5 136.35 114.5 136.6 Q114.55 144.05 114.75 148.0 L115.4 148.1 115.35 148.25 Q115.35 150.75 115.6 152.0 L118.35 152.5 Q119.3 152.5 123.45 149.65 L122.05 150.9 Q123.55 153.9 124.3 157.3 L124.9 158.8 126.8 157.55 Q129.05 156.5 136.05 154.85 155.55 150.3 168.25 144.0 174.1 141.1 181.2 133.55 L186.85 127.55 194.05 126.8 193.35 127.65 Q193.0 131.35 183.95 139.0 176.6 145.25 172.5 147.5 167.65 150.15 161.3 152.85 155.6 155.3 154.0 156.25 148.7 159.4 142.35 158.0 L137.8 157.55 Q135.15 157.9 132.25 160.25 L129.0 163.35 Q127.85 164.5 126.5 164.5 L126.15 164.45 126.15 164.55 Q126.5 167.8 126.5 172.85 126.5 178.65 123.85 186.55 L122.9 189.15 115.0 207.5 Q104.35 231.7 103.6 250.55 100.9 250.8 100.35 252.8 100.0 254.05 100.35 256.5 L100.5 259.3 Q100.95 262.5 102.1 265.15 103.95 269.25 107.25 271.3 L108.15 272.15 112.5 276.25 112.45 277.35 Q123.7 279.6 132.0 288.25 135.95 292.35 138.45 297.1 140.5 301.0 140.5 302.85 L140.5 303.05 142.85 304.95 144.65 307.05 Q155.95 309.2 184.45 319.9 203.45 327.05 233.0 338.5 L233.35 338.65 260.05 346.45 Q279.35 351.8 282.25 353.0 297.3 359.25 310.6 363.1 317.55 365.1 324.05 366.5 L331.95 368.15 348.5 365.0 Q351.95 364.25 354.9 362.15 357.2 360.5 360.5 360.5 366.6 360.5 369.15 363.6 373.25 361.8 378.9 359.7 L394.7 353.4 Q402.7 349.9 404.5 348.0 421.25 330.6 428.75 323.6 L428.5 323.0 Q428.8 322.7 430.0 322.45 L431.0 321.5 431.55 322.1 432.35 321.95 437.5 321.5 Q448.05 321.5 466.2 325.8 L468.1 326.25 Q487.65 331.0 498.25 331.0 L499.65 331.0 Q499.35 331.6 499.35 332.75 499.35 335.25 499.6 334.25 500.1 334.75 502.4 335.45 L501.2 336.45 M115.55 52.75 L115.05 48.95 Q113.15 33.85 117.45 27.3 L117.35 25.75 Q117.35 23.2 119.4 21.6 120.7 20.6 124.4 19.15 133.05 15.65 136.1 11.0 L142.45 1.2 144.5 -2.0 145.25 -3.15 145.8 -4.0 149.2 -4.0 149.35 -2.75 149.25 -2.0 148.9 -0.75 147.5 -0.75 Q147.5 0.4 147.8 1.1 139.8 10.3 131.9 17.05 123.85 23.35 121.45 25.9 117.8 29.75 116.65 35.95 115.7 41.05 115.55 52.75 M215.45 -2.4 L215.65 -3.0 Q216.05 -3.5 217.85 -3.5 220.0 -3.5 221.75 -2.6 L215.45 -2.4 M506.25 330.75 L507.6 330.65 507.3 330.85 506.25 330.75 M518.1 328.5 L522.35 327.5 522.75 327.55 518.1 328.5 M470.6 338.35 L470.35 338.85 470.1 340.4 Q469.65 340.9 467.65 341.1 L467.0 341.15 445.85 342.5 Q437.35 344.5 434.85 344.5 431.85 344.5 430.6 343.25 430.35 344.25 430.35 341.75 430.35 340.35 438.9 338.5 448.1 336.5 457.35 336.5 L469.15 337.3 469.9 337.55 Q470.65 337.9 470.6 338.35 M129.25 145.5 L131.85 143.5 Q136.45 140.05 140.3 139.55 L134.15 142.65 Q131.5 144.05 129.25 145.5 M157.35 131.05 L157.4 130.95 157.55 130.95 157.35 131.05 M19.0 144.45 Q16.5 156.95 16.5 168.6 16.5 178.45 20.0 202.45 23.5 226.45 23.5 241.35 23.5 248.9 21.25 272.5 20.0 273.25 19.0 273.5 17.1 272.35 16.65 270.4 16.5 269.65 16.5 267.0 L16.7 265.0 Q18.5 243.5 18.5 241.1 18.5 229.6 15.0 203.9 11.5 178.2 11.5 168.75 11.5 163.75 14.0 143.25 16.8 120.5 18.5 120.5 L20.95 120.75 Q21.5 121.1 21.5 122.85 21.5 132.0 19.0 144.45" fill="#46413d" fill-rule="evenodd" stroke="none"/>
      <path d="M33.5 -2.9 L35.6 -3.15 43.0 -3.5 Q44.95 -3.5 46.95 -2.75 52.5 -0.65 58.5 7.35 58.5 11.25 53.05 14.5 48.3 17.25 41.05 18.15 L37.45 18.45 34.0 18.5 30.4 18.4 24.8 17.8 Q20.75 17.0 18.55 15.4 17.2 14.4 16.7 13.15 L16.5 12.0 Q16.5 5.15 21.05 1.55 21.75 1.0 22.55 0.5 L24.55 -0.55 Q28.15 -2.2 33.5 -2.9 M347.95 6.95 L349.75 9.55 Q350.8 10.9 352.6 11.25 357.85 12.2 359.05 14.05 359.35 14.5 359.35 17.0 359.35 23.65 353.65 28.25 344.65 35.5 323.35 35.5 310.85 35.5 304.75 29.05 300.65 24.75 300.35 19.5 L300.85 19.0 Q301.2 18.65 302.0 18.55 L301.6 18.25 Q301.35 19.25 301.35 16.75 301.35 14.95 304.9 14.05 307.35 13.4 313.9 12.75 315.15 10.9 317.4 9.0 323.95 3.5 334.85 3.5 344.95 3.5 347.95 6.95 M434.6 376.0 Q444.2 377.8 454.35 375.2 460.05 373.75 467.35 370.4 L471.7 368.25 487.45 360.3 Q496.05 356.5 502.35 356.5 505.65 356.5 507.75 358.3 508.9 359.3 510.7 362.25 512.45 365.05 513.9 366.2 516.25 368.0 520.0 368.0 524.2 368.0 531.8 365.25 539.4 362.5 540.35 362.5 547.5 362.5 550.15 368.8 551.45 371.95 551.35 375.35 551.35 384.0 537.15 387.8 523.25 391.5 492.35 391.5 468.4 391.5 450.65 386.45 L449.1 386.0 Q442.3 383.95 438.05 381.6 434.35 379.5 434.35 378.25 L434.6 376.0 M451.85 381.75 L453.85 382.25 456.35 382.0 451.85 381.75 M465.85 375.25 L464.35 376.0 478.65 372.55 477.4 369.75 473.35 371.65 469.0 373.75 Q467.45 374.45 465.85 375.25 M50.4 9.65 Q50.25 8.8 52.0 8.5 50.95 8.15 50.2 6.95 L48.7 4.7 Q46.05 1.75 38.0 1.75 L36.85 1.8 32.55 2.4 Q29.25 3.2 26.4 5.1 L26.05 5.3 Q22.05 7.9 21.8 9.55 L21.75 9.75 21.95 10.55 23.0 12.0 Q24.1 13.25 24.5 13.25 L28.05 13.25 34.5 13.15 38.85 13.0 Q48.45 12.5 50.1 11.25 50.6 10.85 50.4 9.65 M103.6 250.55 L104.35 250.5 105.45 250.65 106.05 246.45 105.3 246.15 104.6 245.25 Q104.35 246.25 104.35 243.75 104.35 242.25 108.9 240.5 114.05 238.5 120.35 238.5 123.1 238.5 126.7 243.2 128.55 245.6 130.6 248.75 133.0 251.15 135.25 252.65 136.35 253.6 136.35 256.0 136.35 259.9 131.6 265.75 125.25 273.5 115.85 273.5 110.75 273.5 107.25 271.3 103.95 269.25 102.1 265.15 100.95 262.5 100.5 259.3 L100.35 256.5 Q100.0 254.05 100.35 252.8 100.9 250.8 103.6 250.55 M58.65 339.0 Q59.55 339.6 61.45 342.4 64.9 347.25 77.25 347.25 78.7 347.25 83.5 344.9 88.3 342.5 89.35 342.5 L91.85 343.0 Q91.85 343.75 92.35 346.0 92.35 347.7 90.0 350.75 87.35 354.2 83.15 357.25 74.3 363.65 63.2 365.1 L58.7 365.45 56.5 365.5 Q25.3 365.5 17.55 361.0 14.95 359.5 15.0 357.5 L15.5 355.0 Q35.6 337.5 51.5 337.5 56.4 337.5 58.65 339.0" fill="#f2eaed" fill-opacity="0.8" fill-rule="evenodd" stroke="none"/>
      <path d="M149.25 -2.0 L201.9 -2.0 150.6 -0.8 150.0 -1.5 149.9 -1.35 149.4 -0.75 148.9 -0.75 149.25 -2.0" fill="url(#gradient0)" fill-rule="evenodd" stroke="none"/>
      <path d="M497.95 -2.0 L550.0 -2.0 550.0 202.0 549.95 202.0 549.95 296.0 Q546.95 299.65 546.65 304.4 L546.7 309.2 Q546.75 312.05 546.35 313.75 544.45 321.85 527.95 326.3 L522.75 327.55 522.35 327.5 518.1 328.5 515.7 328.9 507.85 330.5 Q507.75 330.5 507.6 330.65 L506.25 330.75 503.85 330.5 Q500.75 330.15 500.05 330.5 L499.65 331.0 498.25 331.0 Q487.65 331.0 468.1 326.25 L466.2 325.8 466.35 325.5 Q464.9 324.6 446.75 312.1 434.25 303.5 430.85 303.5 425.2 303.5 415.15 309.15 L404.85 315.5 Q401.55 317.25 386.7 322.65 377.7 325.95 376.1 330.25 373.05 338.35 362.75 343.3 360.15 344.55 356.45 345.85 339.3 347.1 325.1 353.25 318.4 356.15 314.15 359.4 311.3 361.6 310.6 363.1 297.3 359.25 282.25 353.0 279.35 351.8 260.05 346.45 L233.35 338.65 233.35 332.5 Q231.15 330.8 229.5 328.1 L226.9 323.45 Q223.4 317.8 215.35 315.25 205.85 312.2 199.15 306.95 196.8 305.15 195.2 303.4 192.4 300.4 191.6 297.5 187.65 284.75 185.85 278.35 182.65 267.15 182.1 260.0 181.6 254.4 176.7 250.75 175.25 249.75 166.25 245.2 159.3 241.7 156.05 237.65 L154.75 235.8 Q151.5 230.45 151.5 222.5 153.8 210.65 151.65 202.35 147.55 186.5 125.0 186.5 L123.85 186.55 Q126.5 178.65 126.5 172.85 126.5 167.8 126.15 164.55 L126.15 164.45 126.5 164.5 Q127.85 164.5 129.0 163.35 L132.25 160.25 Q135.15 157.9 137.8 157.55 L142.35 158.0 Q148.7 159.4 154.0 156.25 155.6 155.3 161.3 152.85 167.65 150.15 172.5 147.5 176.6 145.25 183.95 139.0 193.0 131.35 193.35 127.65 L194.05 126.8 213.1 125.15 Q216.25 124.7 218.9 122.85 224.8 118.7 230.1 115.75 232.95 114.15 236.2 111.4 L242.25 106.3 Q250.9 99.5 264.85 94.5 275.6 90.7 280.95 86.8 283.95 84.65 288.0 80.35 L289.15 79.05 291.8 79.0 Q292.35 78.85 292.35 76.85 L292.7 76.2 292.2 75.55 295.75 70.7 Q298.1 67.35 299.95 65.45 305.7 59.5 318.85 54.25 334.6 48.0 363.85 35.75 374.85 31.55 382.95 30.05 L395.6 29.6 Q399.65 30.35 402.8 32.7 L407.55 37.2 Q410.2 40.0 412.25 41.05 L413.15 41.5 Q409.3 50.2 409.3 60.5 409.3 80.1 423.15 93.9 430.05 100.8 438.4 104.3 444.45 106.8 451.25 107.5 L456.55 107.75 Q471.0 107.75 482.3 100.25 465.85 99.7 454.1 87.95 441.8 75.65 441.8 58.25 441.8 40.85 454.1 28.55 457.45 25.25 461.15 22.8 L464.05 21.3 465.35 20.85 465.55 20.5 466.9 19.7 Q470.95 17.9 475.45 17.05 L472.55 15.9 Q475.55 13.9 479.75 11.5 L488.75 6.4 Q496.35 1.9 497.95 -2.0" fill="url(#gradient1)" fill-rule="evenodd" stroke="none"/>
    </g>
    <linearGradient gradientTransform="matrix(2.0E-4, 0.2454, 0.2438, -1.0E-4, 275.0, 198.0)" gradientUnits="userSpaceOnUse" id="gradient0" spreadMethod="pad" x1="-819.2" x2="819.2">
      <stop offset="0.0" stop-color="#0152a0"/>
      <stop offset="1.0" stop-color="#003366"/>
    </linearGradient>
    <linearGradient gradientTransform="matrix(2.0E-4, 0.2454, 0.2438, -1.0E-4, 275.0, 198.0)" gradientUnits="userSpaceOnUse" id="gradient1" spreadMethod="pad" x1="-819.2" x2="819.2">
      <stop offset="0.0" stop-color="#0152a0"/>
      <stop offset="1.0" stop-color="#003366"/>
    </linearGradient>
  </defs>
</svg>
