<?xml version="1.0" encoding="UTF-8" standalone="no"?>
<svg xmlns:xlink="http://www.w3.org/1999/xlink" height="842.55px" width="1337.95px" xmlns="http://www.w3.org/2000/svg">
  <g transform="matrix(1, 0, 0, 1, 407.45, 285.05)">
    <use height="4.5" transform="matrix(5.4867, 0.0, 0.0, 81.5667, 3.2875, 23.0167)" width="99.75" xlink:href="#shape0"/>
    <use height="400.1" transform="matrix(1.0, 0.0, 0.0, 1.0, 0.0, 0.0)" width="550.0" xlink:href="#shape1"/>
  </g>
  <defs>
    <g id="shape0" transform="matrix(1, 0, 0, 1, 49.85, -2.5)">
      <path d="M49.9 7.0 L-49.85 7.0 -49.85 2.5 49.9 2.5 49.9 7.0" fill="#ffffff" fill-rule="evenodd" stroke="none"/>
    </g>
    <g id="shape1" transform="matrix(1, 0, 0, 1, 0.0, 0.0)">
      <path d="M0.0 131.55 L0.0 0.0 550.0 0.0 550.0 209.6 Q543.95 211.3 535.2 212.8 506.1 217.85 465.4 217.85 457.8 217.85 450.7 216.35 L437.6 213.1 Q418.25 208.35 389.55 208.35 360.1 208.35 334.6 215.9 L317.1 221.1 Q307.8 223.45 299.45 223.45 283.2 223.45 269.0 219.25 254.65 215.05 245.4 215.05 231.05 215.05 214.35 217.75 199.25 220.2 177.1 219.55 152.5 218.8 129.85 222.7 L114.5 225.5 Q106.6 226.8 101.2 226.85 90.7 226.8 81.1 224.3 76.05 222.95 65.0 218.7 54.75 214.8 47.55 213.1 36.5 210.6 23.45 210.6 L0.95 211.7 0.0 211.7 0.0 206.4 0.95 206.25 0.95 131.55 0.0 131.55" fill="url(#gradient0)" fill-rule="evenodd" stroke="none"/>
      <path d="M0.95 211.7 L23.45 210.6 Q36.5 210.6 47.55 213.1 54.75 214.8 65.0 218.7 76.05 222.95 81.1 224.3 90.7 226.8 101.2 226.85 106.6 226.8 114.5 225.5 L129.85 222.7 Q152.5 218.8 177.1 219.55 199.25 220.2 214.35 217.75 231.05 215.05 245.4 215.05 254.65 215.05 269.0 219.25 283.2 223.45 299.45 223.45 307.8 223.45 317.1 221.1 L334.6 215.9 Q360.1 208.35 389.55 208.35 418.25 208.35 437.6 213.1 L450.7 216.35 Q457.8 217.85 465.4 217.85 506.1 217.85 535.2 212.8 543.95 211.3 550.0 209.6 L550.0 315.6 516.65 316.95 Q510.15 317.7 501.15 319.95 483.7 324.25 444.55 324.3 394.55 324.3 340.3 311.7 314.7 305.4 303.7 303.0 285.3 299.05 272.9 299.1 263.65 299.05 245.0 302.75 L204.0 310.85 Q138.2 322.6 61.2 322.6 32.8 322.6 15.4 330.05 7.0 333.55 0.95 338.1 L0.0 338.85 0.0 327.9 0.95 327.35 0.95 211.7" fill="#c19fc6" fill-opacity="0.83137256" fill-rule="evenodd" stroke="none"/>
      <path d="M550.0 315.6 L550.0 399.7 Q517.25 400.05 384.4 399.85 191.7 399.55 0.0 400.1 L0.0 338.85 0.95 338.1 Q7.0 333.55 15.4 330.05 32.8 322.6 61.2 322.6 138.2 322.6 204.0 310.85 L245.0 302.75 Q263.65 299.05 272.9 299.1 285.3 299.05 303.7 303.0 314.7 305.4 340.3 311.7 394.55 324.3 444.55 324.3 483.7 324.25 501.15 319.95 510.15 317.7 516.65 316.95 L550.0 315.6" fill="#b085b6" fill-opacity="0.83137256" fill-rule="evenodd" stroke="none"/>
      <path d="M0.95 131.55 L0.95 206.25 0.0 206.4 0.0 131.8 0.95 131.55 M0.0 327.9 L0.0 211.8 0.95 211.7 0.95 327.35 0.0 327.9" fill="#decadf" fill-opacity="0.83137256" fill-rule="evenodd" stroke="none"/>
      <path d="M0.0 131.55 L0.95 131.55 0.0 131.8 0.0 131.55" fill="#ddcadf" fill-opacity="0.83137256" fill-rule="evenodd" stroke="none"/>
      <path d="M0.0 211.7 L0.95 211.7 0.0 211.8 0.0 211.7" fill="#cfb5d2" fill-opacity="0.83137256" fill-rule="evenodd" stroke="none"/>
      <path d="M550.0 64.4 L549.05 64.6 549.05 139.25 550.0 139.25 550.0 270.85 0.0 270.85 0.0 61.2 Q6.05 59.5 14.8 58.0 43.9 52.95 84.6 52.95 92.2 52.95 99.3 54.45 L112.4 57.7 Q131.75 62.45 160.5 62.5 189.9 62.45 215.4 54.9 227.35 51.1 232.95 49.7 242.2 47.35 250.6 47.35 266.8 47.35 281.05 51.55 295.35 55.75 304.65 55.75 318.95 55.75 335.65 53.05 350.75 50.6 372.95 51.3 397.5 52.0 420.15 48.15 L435.55 45.35 Q443.4 44.0 448.8 44.0 459.3 44.0 468.9 46.5 473.95 47.85 485.05 52.1 495.25 56.0 502.5 57.7 513.5 60.2 526.6 60.25 L549.05 59.15 550.0 59.15 550.0 64.4" fill="url(#gradient1)" fill-rule="evenodd" stroke="none"/>
      <path d="M550.0 141.2 L550.0 350.85 0.0 350.85 0.0 219.25 0.95 219.25 0.95 144.6 0.0 144.4 0.0 139.15 0.95 139.15 23.45 140.25 Q36.5 140.2 47.55 137.7 54.75 136.0 65.0 132.1 76.05 127.85 81.1 126.5 90.7 124.0 101.2 124.0 106.6 124.0 114.5 125.35 L129.85 128.15 Q152.5 132.0 177.1 131.3 199.25 130.6 214.35 133.05 231.05 135.75 245.4 135.75 254.65 135.75 269.0 131.55 283.2 127.35 299.45 127.35 307.8 127.35 317.1 129.7 L334.6 134.9 Q360.1 142.45 389.55 142.5 418.25 142.45 437.6 137.7 L450.7 134.45 Q457.8 132.95 465.4 132.95 506.1 132.95 535.2 138.0 543.95 139.5 550.0 141.2" fill="url(#gradient2)" fill-rule="evenodd" stroke="none"/>
      <path d="M127.3 40.35 L132.0 16.9 157.8 244.25 157.8 281.75 127.3 40.35" fill="#5a2e21" fill-rule="evenodd" stroke="none"/>
      <path d="M132.0 16.9 L127.3 40.35 82.0 40.35 89.05 16.9 132.0 16.9" fill="#824c40" fill-rule="evenodd" stroke="none"/>
      <path d="M127.3 40.35 L157.8 281.75 117.65 281.75 117.55 281.35 82.0 40.35 127.3 40.35" fill="#49302b" fill-rule="evenodd" stroke="none"/>
      <path d="M132.0 16.9 L127.3 40.35 157.8 281.75 157.8 244.25 132.0 16.9 89.05 16.9 82.0 40.35 127.3 40.35 M117.65 281.75 L157.8 281.75 M82.0 40.35 L117.55 281.35" fill="none" stroke="#000000" stroke-linecap="round" stroke-linejoin="round" stroke-width="4.0"/>
      <path d="M429.65 16.9 L472.65 16.9 479.65 40.35 434.35 40.35 429.65 16.9" fill="#824c40" fill-rule="evenodd" stroke="none"/>
      <path d="M429.65 16.9 L434.35 40.35 410.15 264.55 406.6 239.95 429.65 16.9" fill="#5a2e21" fill-rule="evenodd" stroke="none"/>
      <path d="M479.65 40.35 L447.15 264.05 447.1 264.55 410.15 264.55 434.35 40.35 479.65 40.35" fill="#49302b" fill-rule="evenodd" stroke="none"/>
      <path d="M429.65 16.9 L472.65 16.9 479.65 40.35 447.15 264.05 460.9 186.35 M429.65 16.9 L434.35 40.35 479.65 40.35 M410.15 264.55 L447.1 264.55 447.15 264.05 M410.15 264.55 L406.6 239.95 429.65 16.9 M434.35 40.35 L410.15 264.55" fill="none" stroke="#000000" stroke-linecap="round" stroke-linejoin="round" stroke-width="4.0"/>
      <path d="M0.0 338.1 L0.0 327.9 0.95 327.35 0.95 211.7 23.45 210.6 Q36.5 210.6 47.55 213.1 54.75 214.8 65.0 218.7 76.05 222.95 81.1 224.3 90.7 226.8 101.2 226.85 106.6 226.8 114.5 225.5 L129.85 222.7 Q152.5 218.8 177.1 219.55 199.25 220.2 214.35 217.75 231.05 215.05 245.4 215.05 254.65 215.05 269.0 219.25 283.2 223.45 299.45 223.45 307.8 223.45 317.1 221.1 L334.6 215.9 Q360.1 208.35 389.55 208.35 418.25 208.35 437.6 213.1 L450.7 216.35 Q457.8 217.85 465.4 217.85 506.1 217.85 535.2 212.8 543.95 211.3 550.0 209.6 L550.0 315.6 516.65 316.95 Q510.15 317.7 501.15 319.95 483.7 324.25 444.55 324.3 394.55 324.3 340.3 311.7 314.7 305.4 303.7 303.0 285.3 299.05 272.9 299.1 263.65 299.05 245.0 302.75 L204.0 310.85 Q138.2 322.6 61.2 322.6 32.8 322.6 15.4 330.05 7.0 333.55 0.95 338.1 L0.0 338.1" fill="url(#gradient3)" fill-rule="evenodd" stroke="none"/>
      <path d="M0.0 338.1 L0.95 338.1 0.0 338.85 0.0 338.1" fill="#c19fc6" fill-opacity="0.83137256" fill-rule="evenodd" stroke="none"/>
      <path d="M437.5 384.0 L432.0 349.65 460.9 186.35 468.75 223.1 437.5 384.0" fill="#5a2e21" fill-rule="evenodd" stroke="none"/>
      <path d="M528.1 223.1 L482.0 384.0 437.5 384.0 468.75 223.1 528.1 223.1" fill="#49302b" fill-rule="evenodd" stroke="none"/>
      <path d="M460.9 186.35 L517.95 186.35 528.1 223.1 468.75 223.1 460.9 186.35" fill="#824c40" fill-rule="evenodd" stroke="none"/>
      <path d="M437.5 384.0 L432.0 349.65 460.9 186.35 517.95 186.35 528.1 223.1 482.0 384.0 437.5 384.0 468.75 223.1 460.9 186.35 M468.75 223.1 L528.1 223.1" fill="none" stroke="#000000" stroke-linecap="round" stroke-linejoin="round" stroke-width="4.0"/>
      <path d="M33.55 223.1 L43.75 186.35 100.75 186.35 92.95 223.1 33.55 223.1" fill="#824c40" fill-rule="evenodd" stroke="none"/>
      <path d="M92.95 223.1 L100.75 186.35 129.65 349.65 124.2 384.0 92.95 223.1" fill="#5a2e21" fill-rule="evenodd" stroke="none"/>
      <path d="M33.55 223.1 L92.95 223.1 124.2 384.0 79.65 384.0 33.55 223.1" fill="#49302b" fill-rule="evenodd" stroke="none"/>
      <path d="M100.75 186.35 L43.75 186.35 33.55 223.1 92.95 223.1 100.75 186.35 129.65 349.65 124.2 384.0 79.65 384.0 33.55 223.1 M124.2 384.0 L92.95 223.1" fill="none" stroke="#000000" stroke-linecap="round" stroke-linejoin="round" stroke-width="4.0"/>
      <path d="M340.3 311.7 Q394.55 324.3 444.55 324.3 483.7 324.25 501.15 319.95 510.15 317.7 516.65 316.95 L550.0 315.6 550.0 399.7 Q517.25 400.05 384.4 399.85 191.7 399.55 0.0 400.1 L0.0 338.85 0.95 338.1 Q7.0 333.55 15.4 330.05 32.8 322.6 61.2 322.6 138.2 322.6 204.0 310.85 L245.0 302.75 Q263.65 299.05 272.9 299.1 285.3 299.05 303.7 303.0 314.7 305.4 340.3 311.7" fill="url(#gradient4)" fill-rule="evenodd" stroke="none"/>
    </g>
    <linearGradient gradientTransform="matrix(0.0, 0.2465, -0.0434, 0.0, 303.05, 208.0)" gradientUnits="userSpaceOnUse" id="gradient0" spreadMethod="pad" x1="-819.2" x2="819.2">
      <stop offset="0.0" stop-color="#f0eaf2"/>
      <stop offset="1.0" stop-color="#b085b6" stop-opacity="0.83137256"/>
    </linearGradient>
    <linearGradient gradientTransform="matrix(0.0, 0.2465, -0.0434, 0.0, 318.95, 183.0)" gradientUnits="userSpaceOnUse" id="gradient1" spreadMethod="pad" x1="-819.2" x2="819.2">
      <stop offset="0.0" stop-color="#f0eaf2"/>
      <stop offset="1.0" stop-color="#b085b6" stop-opacity="0.83137256"/>
    </linearGradient>
    <linearGradient gradientTransform="matrix(0.0, 0.2465, 0.0434, 0.0, 246.95, 142.8)" gradientUnits="userSpaceOnUse" id="gradient2" spreadMethod="pad" x1="-819.2" x2="819.2">
      <stop offset="0.0" stop-color="#f0eaf2"/>
      <stop offset="1.0" stop-color="#b085b6" stop-opacity="0.83137256"/>
    </linearGradient>
    <linearGradient gradientTransform="matrix(0.0, 0.2465, -0.0434, 0.0, 303.05, 208.0)" gradientUnits="userSpaceOnUse" id="gradient3" spreadMethod="pad" x1="-819.2" x2="819.2">
      <stop offset="0.0" stop-color="#f0eaf2"/>
      <stop offset="1.0" stop-color="#99609f" stop-opacity="0.7529412"/>
    </linearGradient>
    <linearGradient gradientTransform="matrix(0.0, 0.2465, -0.0434, 0.0, 303.05, 208.0)" gradientUnits="userSpaceOnUse" id="gradient4" spreadMethod="pad" x1="-819.2" x2="819.2">
      <stop offset="0.0" stop-color="#f0eaf2"/>
      <stop offset="1.0" stop-color="#99609f" stop-opacity="0.7529412"/>
    </linearGradient>
  </defs>
</svg>
