<?xml version="1.0" encoding="UTF-8" standalone="no"?>
<svg xmlns:xlink="http://www.w3.org/1999/xlink" height="842.55px" width="1337.95px" xmlns="http://www.w3.org/2000/svg">
  <g transform="matrix(1, 0, 0, 1, 407.45, 285.05)">
    <use height="4.5" transform="matrix(5.4867, 0.0, 0.0, 81.5667, 3.2875, 23.0167)" width="99.75" xlink:href="#shape0"/>
    <use height="410.45" transform="matrix(1.0, 0.0, 0.0, 1.0, -26.5, -10.5)" width="633.95" xlink:href="#shape1"/>
  </g>
  <defs>
    <g id="shape0" transform="matrix(1, 0, 0, 1, 49.85, -2.5)">
      <path d="M49.9 7.0 L-49.85 7.0 -49.85 2.5 49.9 2.5 49.9 7.0" fill="#ffffff" fill-rule="evenodd" stroke="none"/>
    </g>
    <g id="shape1" transform="matrix(1, 0, 0, 1, 26.5, 10.5)">
      <path d="M412.6 -9.0 L418.85 -9.0 Q413.65 2.1 400.0 11.3 350.55 44.55 298.9 74.55 284.05 83.2 275.8 99.3 273.6 103.6 270.75 106.7 267.5 115.85 261.7 127.5 249.2 152.45 245.85 198.9 242.45 245.3 215.6 284.35 188.75 323.35 172.5 345.4 156.55 367.0 140.75 399.95 L130.65 399.95 Q132.75 395.7 136.85 388.95 150.0 366.95 175.0 334.4 200.0 301.8 228.95 243.35 235.0 231.2 235.2 217.0 236.25 152.95 270.3 103.3 272.3 89.55 286.8 77.15 325.0 44.4 371.25 23.35 385.0 17.15 396.75 6.95 405.5 -0.65 412.6 -9.0 M606.95 370.95 L606.95 377.75 Q581.35 351.35 544.55 370.7 529.05 378.85 508.3 379.75 501.9 380.0 497.55 385.5 491.7 392.75 487.8 399.95 L482.6 399.95 Q483.5 390.45 495.55 380.65 514.75 364.95 539.45 365.3 544.55 365.4 549.5 361.35 555.5 356.45 562.95 355.5 589.2 355.15 606.95 370.95 M430.2 399.95 L427.05 399.95 Q456.5 364.95 449.95 319.25 447.35 300.85 449.6 282.0 452.85 254.7 462.65 231.15 L463.85 248.45 Q462.0 259.6 459.2 271.4 451.75 302.95 457.55 335.9 461.45 358.1 448.4 377.35 439.75 390.15 430.2 399.95 M573.25 36.3 Q577.45 29.0 580.0 20.85 L580.2 20.2 580.9 17.75 580.95 17.5 581.1 18.5 Q581.65 22.85 581.5 26.8 581.3 32.0 579.85 36.4 L578.25 36.35 576.95 31.5 576.9 31.75 Q576.15 34.05 575.55 36.35 L573.25 36.3 M571.1 39.8 L574.8 39.8 Q574.2 43.05 574.0 46.3 571.45 49.05 568.05 51.2 564.2 53.6 559.3 55.3 L558.1 55.7 557.55 55.7 557.45 55.5 Q565.5 48.35 571.1 39.8 M215.2 118.5 Q230.0 112.65 235.7 96.05 239.0 86.45 231.45 79.5 249.15 60.05 233.95 41.05 225.65 30.7 213.5 28.5 223.35 6.55 195.65 2.75 162.15 -1.85 151.75 19.75 112.85 -1.9 88.95 33.15 88.2 34.3 87.6 35.65 L82.1 35.6 81.6 32.7 82.5 32.75 Q99.9 -2.5 123.8 3.95 147.65 10.4 157.7 5.55 167.75 0.7 180.0 -1.5 221.6 -6.85 220.5 23.75 L220.45 24.5 Q244.35 34.5 244.55 59.5 244.65 69.95 237.95 78.25 246.7 96.15 233.7 112.9 225.25 123.8 215.25 121.2 L215.2 118.5 M77.95 32.95 L77.55 35.6 72.8 35.6 Q74.6 33.55 77.95 32.95 M70.9 40.4 L77.05 40.4 77.05 40.6 76.4 40.7 Q75.6 40.85 75.5 42.0 L75.2 42.75 Q74.1 45.3 77.1 46.1 77.25 48.55 77.7 50.9 L75.15 51.0 Q71.75 50.25 71.0 44.55 70.7 42.25 70.9 40.4" fill="#1a1a1a" fill-rule="evenodd" stroke="none"/>
      <path d="M592.5 -9.0 L592.9 -10.25 592.95 -10.5 593.4 -9.0 606.95 -9.0 606.95 36.8 579.85 36.4 Q581.3 32.0 581.5 26.8 581.65 22.85 581.1 18.5 582.35 16.55 584.9 14.65 L584.95 14.5 585.35 14.85 585.45 14.95 585.5 14.7 Q588.8 2.75 592.5 -9.0 M606.95 39.7 L606.95 56.8 Q606.35 56.0 604.95 56.0 L579.6 55.8 Q580.2 47.6 578.9 39.8 L606.95 39.7 M606.95 281.3 L606.95 370.95 Q589.2 355.15 562.95 355.5 555.5 356.45 549.5 361.35 544.55 365.4 539.45 365.3 514.75 364.95 495.55 380.65 483.5 390.45 482.6 399.95 L430.2 399.95 Q439.75 390.15 448.4 377.35 461.45 358.1 457.55 335.9 451.75 302.95 459.2 271.4 462.0 259.6 463.85 248.45 465.1 263.65 466.95 278.25 L467.7 277.8 468.15 278.5 Q466.3 279.8 470.05 279.95 527.55 282.25 585.1 281.7 L589.95 281.65 Q591.0 281.6 591.35 280.6 L591.45 280.6 606.95 281.3 M130.65 399.95 L-23.0 399.95 -23.0 278.2 Q90.5 278.3 203.95 277.6 204.6 277.6 205.1 276.9 L205.45 276.25 Q205.4 275.05 204.7 274.5 216.15 264.65 216.2 251.85 216.4 185.9 215.25 121.2 225.25 123.8 233.7 112.9 246.7 96.15 237.95 78.25 244.65 69.95 244.55 59.5 244.35 34.5 220.45 24.5 L220.5 23.75 Q221.6 -6.85 180.0 -1.5 167.75 0.7 157.7 5.55 147.65 10.4 123.8 3.95 99.9 -2.5 82.5 32.75 L81.6 32.7 80.0 26.5 Q79.5 26.6 79.4 26.85 78.5 29.95 77.95 32.95 74.6 33.55 72.8 35.6 L33.55 35.55 Q32.95 28.4 31.0 21.5 L30.95 21.75 Q28.8 28.6 28.2 35.55 L-13.55 35.5 Q-14.2 29.4 -16.0 23.5 L-16.05 23.75 Q-18.05 29.6 -18.7 35.5 L-23.0 35.5 -23.0 -9.0 412.6 -9.0 Q405.5 -0.65 396.75 6.95 385.0 17.15 371.25 23.35 325.0 44.4 286.8 77.15 272.3 89.55 270.3 103.3 236.25 152.95 235.2 217.0 235.0 231.2 228.95 243.35 200.0 301.8 175.0 334.4 150.0 366.95 136.85 388.95 132.75 395.7 130.65 399.95 M-23.0 51.5 L-23.0 40.3 -20.75 40.4 -19.1 40.4 Q-19.25 45.95 -18.3 51.5 L-23.0 51.5 M559.3 55.3 Q564.2 53.6 568.05 51.2 571.45 49.05 574.0 46.3 573.65 51.0 574.2 55.8 L567.05 55.75 559.15 55.7 559.3 55.3 M75.15 51.65 L33.3 51.55 Q33.9 45.9 33.8 40.45 L70.9 40.4 Q70.7 42.25 71.0 44.55 71.75 50.25 75.15 51.0 L75.15 51.65 M27.9 40.45 Q27.8 45.95 28.7 51.55 L-13.75 51.5 Q-13.05 45.85 -13.2 40.4 L27.9 40.45" fill="#a9e7b5" fill-rule="evenodd" stroke="none"/>
      <path d="M418.85 -9.0 L592.5 -9.0 Q588.8 2.75 585.5 14.7 L585.35 14.85 584.95 14.5 584.9 14.65 Q582.35 16.55 581.1 18.5 L580.95 17.5 580.9 17.75 580.2 20.2 580.0 20.85 Q577.45 29.0 573.25 36.3 L534.5 35.9 532.95 29.5 Q532.45 29.6 532.4 29.85 531.6 32.9 531.1 35.85 L488.65 35.55 Q488.0 31.5 486.95 27.5 L486.9 27.75 Q485.75 31.65 485.05 35.55 L474.95 35.5 Q470.0 37.75 475.05 37.95 L484.6 38.3 Q483.35 46.85 484.15 55.5 L480.95 55.5 Q478.9 57.35 478.85 58.5 L478.25 58.6 477.95 57.5 476.65 58.2 Q469.0 64.75 466.0 72.0 L465.95 71.5 465.9 72.2 465.1 74.5 464.95 74.5 Q460.35 76.6 464.5 76.9 L464.45 77.0 465.5 77.1 Q461.6 124.3 461.25 175.25 461.05 204.1 462.65 231.15 452.85 254.7 449.6 282.0 447.35 300.85 449.95 319.25 456.5 364.95 427.05 399.95 L140.75 399.95 Q156.55 367.0 172.5 345.4 188.75 323.35 215.6 284.35 242.45 245.3 245.85 198.9 249.2 152.45 261.7 127.5 267.5 115.85 270.75 106.7 273.6 103.6 275.8 99.3 284.05 83.2 298.9 74.55 350.55 44.55 400.0 11.3 413.65 2.1 418.85 -9.0 M571.1 39.8 Q565.5 48.35 557.45 55.5 L557.45 55.7 535.75 55.6 Q536.2 47.3 535.1 39.5 L571.1 39.8 M530.55 39.4 Q529.4 47.9 530.45 55.6 L489.6 55.5 Q490.15 46.8 489.1 38.45 L530.55 39.4 M473.45 44.25 L473.45 43.85 Q445.6 47.25 425.95 29.5 L424.2 29.95 Q409.95 31.7 404.7 42.25 410.5 44.05 416.35 39.05 419.05 36.7 421.05 38.0 444.3 53.15 473.45 44.25 M382.1 194.5 Q391.05 190.45 398.85 196.2 426.05 216.2 453.45 200.5 451.65 197.45 448.35 198.6 441.05 201.1 434.25 199.2 410.15 192.4 385.95 187.5 377.05 189.4 367.95 192.5 363.35 194.1 363.45 198.5 371.25 199.35 382.1 194.5 M377.45 119.25 L377.45 118.85 Q351.1 117.65 323.95 112.5 318.6 113.05 313.8 115.85 313.35 116.1 312.95 116.5 L312.15 117.05 Q307.65 118.7 306.45 122.5 310.5 126.85 315.3 125.8 345.2 119.15 377.45 119.25 M410.45 276.25 L410.45 275.85 Q374.15 274.1 337.95 267.5 329.75 268.6 322.25 272.55 L318.7 274.45 Q312.65 277.7 315.45 283.0 320.55 280.3 327.5 279.75 368.9 276.45 410.45 276.25 M327.45 377.25 L327.35 376.8 Q309.85 371.7 290.95 369.5 285.1 370.75 279.55 374.1 274.2 377.3 269.35 376.2 227.7 366.65 201.75 386.2 202.85 386.85 203.3 386.55 218.05 376.25 236.25 382.4 254.25 388.45 271.95 382.05 299.35 372.1 327.45 377.25" fill="#ceb67d" fill-rule="evenodd" stroke="none"/>
      <path d="M606.95 36.8 L606.95 39.7 578.9 39.8 Q580.2 47.6 579.6 55.8 L604.95 56.0 Q606.35 56.0 606.95 56.8 607.4 57.3 607.45 58.25 607.35 58.95 606.95 59.3 606.6 59.65 605.95 59.65 L579.15 60.0 Q578.6 63.9 577.65 67.85 577.6 68.25 576.95 68.5 575.55 64.25 574.8 60.05 L535.4 60.35 534.25 67.95 533.95 68.25 Q532.35 64.45 531.35 60.4 L489.2 60.45 487.65 69.9 486.95 70.5 Q485.5 65.45 484.75 60.4 L484.2 60.4 Q478.7 60.4 478.85 58.5 478.9 57.35 480.95 55.5 L484.15 55.5 Q483.35 46.85 484.6 38.3 L475.05 37.95 Q470.0 37.75 474.95 35.5 L485.05 35.55 Q485.75 31.65 486.9 27.75 L486.95 27.5 Q488.0 31.5 488.65 35.55 L531.1 35.85 Q531.6 32.9 532.4 29.85 532.45 29.6 532.95 29.5 L534.5 35.9 573.25 36.3 575.55 36.35 Q576.15 34.05 576.9 31.75 L576.95 31.5 578.25 36.35 579.85 36.4 606.95 36.8 M-23.0 278.2 L-23.0 273.5 110.0 273.7 Q155.4 273.8 196.8 272.0 194.85 236.6 194.5 164.85 194.15 93.05 197.8 79.65 L197.85 79.6 195.75 79.65 193.95 79.65 106.0 80.0 -23.0 80.25 -23.0 75.55 Q87.5 75.6 197.95 76.0 L198.05 76.0 Q201.5 65.3 208.25 55.65 L187.85 55.75 186.7 61.85 186.0 62.5 Q184.95 59.1 184.25 55.75 L137.8 55.95 136.7 61.85 136.0 62.5 Q135.0 59.25 134.3 56.0 L82.15 56.15 81.4 60.7 81.0 61.25 Q79.8 58.75 78.95 56.15 L32.6 56.2 31.7 60.85 31.0 61.5 29.6 56.2 -14.5 56.25 -15.3 59.85 Q-15.4 60.25 -16.0 60.5 L-17.25 56.25 -23.0 56.25 -23.0 51.5 -18.3 51.5 Q-19.25 45.95 -19.1 40.4 L-20.75 40.4 -23.0 40.3 -23.0 35.5 -18.7 35.5 Q-18.05 29.6 -16.05 23.75 L-16.0 23.5 Q-14.2 29.4 -13.55 35.5 L28.2 35.55 Q28.8 28.6 30.95 21.75 L31.0 21.5 Q32.95 28.4 33.55 35.55 L72.8 35.6 77.55 35.6 77.95 32.95 Q78.5 29.95 79.4 26.85 79.5 26.6 80.0 26.5 L81.6 32.7 82.1 35.6 87.6 35.65 133.25 35.75 Q133.9 29.2 135.95 22.75 L136.0 22.5 Q137.85 29.0 138.5 35.8 L183.25 35.95 Q183.9 29.3 185.95 22.75 L186.0 22.5 Q187.85 29.1 188.5 35.95 L203.95 36.0 Q206.35 36.05 206.45 38.25 206.2 39.65 204.95 39.65 L188.75 39.8 Q189.0 45.75 188.35 51.95 L210.9 52.0 211.9 50.7 211.95 50.5 212.2 52.0 Q212.25 51.75 212.95 51.5 L213.0 52.0 Q215.35 52.0 215.45 54.25 L215.1 54.9 213.95 55.6 213.15 55.6 213.15 55.65 Q214.6 86.9 215.2 118.5 L215.25 121.2 Q216.4 185.9 216.2 251.85 216.15 264.65 204.7 274.5 205.4 275.05 205.45 276.25 L205.1 276.9 Q204.6 277.6 203.95 277.6 90.5 278.3 -23.0 278.2 M574.0 46.3 Q574.2 43.05 574.8 39.8 L571.1 39.8 535.1 39.5 Q536.2 47.3 535.75 55.6 L557.45 55.7 557.55 55.7 558.1 55.7 559.15 55.7 567.05 55.75 574.2 55.8 Q573.65 51.0 574.0 46.3 M478.25 58.6 Q479.9 66.5 469.25 74.5 537.25 74.8 605.2 75.8 606.5 75.85 606.45 77.25 606.2 78.65 604.95 78.65 535.5 79.35 466.2 76.95 470.45 175.3 468.05 276.75 L467.7 277.8 466.95 278.25 Q465.1 263.65 463.85 248.45 L462.65 231.15 Q461.05 204.1 461.25 175.25 461.6 124.3 465.5 77.1 L464.45 77.0 464.5 76.9 Q460.35 76.6 464.95 74.5 L465.1 74.5 465.9 72.2 465.95 71.5 466.0 72.0 Q469.0 64.75 476.65 58.2 L477.95 57.5 478.25 58.6 M468.15 278.5 Q468.75 278.05 469.95 277.5 530.1 277.75 590.2 278.8 591.5 278.8 591.45 280.25 L591.35 280.6 Q591.0 281.6 589.95 281.65 L585.1 281.7 Q527.55 282.25 470.05 279.95 466.3 279.8 468.15 278.5 M526.05 79.75 L525.9 79.75 525.95 79.5 526.05 79.75 M525.95 110.45 L526.15 110.45 525.95 110.5 525.95 110.45 M530.55 39.4 L489.1 38.45 Q490.15 46.8 489.6 55.5 L530.45 55.6 Q529.4 47.9 530.55 39.4 M526.0 151.7 L525.9 151.7 525.95 151.5 526.0 151.7 M577.25 242.95 L576.95 243.25 576.9 243.1 577.25 242.95 M527.25 271.95 L526.95 272.25 526.9 272.15 527.25 271.95 M199.4 79.5 L199.5 79.65 199.55 79.45 199.4 79.5 M200.45 78.25 L200.15 78.85 Q204.45 173.6 202.15 271.35 205.7 261.45 212.95 252.85 208.05 157.4 211.9 59.5 209.9 68.35 200.05 76.75 L200.05 76.9 Q200.4 77.4 200.45 78.25 M182.95 39.85 L138.75 40.1 Q138.95 45.85 138.35 51.75 L183.6 51.9 Q182.7 45.85 182.95 39.85 M132.95 40.15 L82.65 40.35 Q83.05 45.85 82.6 51.65 L133.55 51.75 Q132.7 45.9 132.95 40.15 M77.05 40.6 L77.05 40.4 70.9 40.4 33.8 40.45 Q33.9 45.9 33.3 51.55 L75.15 51.65 77.8 51.65 77.7 50.9 Q77.25 48.55 77.1 46.1 76.9 43.4 77.05 40.6 M27.9 40.45 L-13.2 40.4 Q-13.05 45.85 -13.75 51.5 L28.7 51.55 Q27.8 45.95 27.9 40.45" fill="#000000" fill-rule="evenodd" stroke="none"/>
      <path d="M606.95 59.3 L606.95 77.25 606.45 77.25 Q606.5 75.85 605.2 75.8 537.25 74.8 469.25 74.5 479.9 66.5 478.25 58.6 L478.85 58.5 Q478.7 60.4 484.2 60.4 L484.75 60.4 Q485.5 65.45 486.95 70.5 L487.65 69.9 489.2 60.45 531.35 60.4 Q532.35 64.45 533.95 68.25 L534.25 67.95 535.4 60.35 574.8 60.05 Q575.55 64.25 576.95 68.5 577.6 68.25 577.65 67.85 578.6 63.9 579.15 60.0 L605.95 59.65 Q606.6 59.65 606.95 59.3 M-23.0 75.55 L-23.0 56.25 -17.25 56.25 -16.0 60.5 Q-15.4 60.25 -15.3 59.85 L-14.5 56.25 29.6 56.2 31.0 61.5 31.7 60.85 32.6 56.2 78.95 56.15 Q79.8 58.75 81.0 61.25 L81.4 60.7 82.15 56.15 134.3 56.0 Q135.0 59.25 136.0 62.5 L136.7 61.85 137.8 55.95 184.25 55.75 Q184.95 59.1 186.0 62.5 L186.7 61.85 187.85 55.75 208.25 55.65 Q201.5 65.3 198.05 76.0 L197.95 76.0 Q87.5 75.6 -23.0 75.55" fill="#be7474" fill-rule="evenodd" stroke="none"/>
      <path d="M606.95 77.25 L606.95 106.45 527.7 105.7 Q530.5 92.0 526.05 79.75 L525.95 79.5 525.9 79.75 Q520.75 92.55 524.35 105.7 L484.95 105.5 Q479.45 110.4 488.2 110.4 L525.95 110.45 525.95 110.5 526.15 110.45 571.1 110.25 Q566.35 130.6 572.15 147.05 546.05 146.7 519.95 146.5 514.8 149.3 521.1 149.6 564.0 151.6 606.95 151.8 L606.95 201.25 Q544.95 200.65 482.95 200.5 478.05 202.75 482.95 202.9 544.95 204.6 606.95 204.8 L606.95 246.1 Q572.45 245.65 537.95 245.5 533.0 247.75 538.05 247.95 572.5 249.4 606.95 249.75 L606.95 281.3 591.45 280.6 591.35 280.6 591.45 280.25 Q591.5 278.8 590.2 278.8 530.1 277.75 469.95 277.5 468.75 278.05 468.15 278.5 L467.7 277.8 468.05 276.75 Q470.45 175.3 466.2 76.95 535.5 79.35 604.95 78.65 606.2 78.65 606.45 77.25 L606.95 77.25 M606.95 110.0 L606.95 147.5 573.65 147.05 Q576.5 127.5 572.4 110.25 L606.95 110.0 M-23.0 273.5 L-23.0 200.9 Q72.5 203.35 168.0 202.65 169.2 202.6 169.5 201.25 169.55 199.8 168.25 199.8 72.6 198.75 -23.0 198.5 L-23.0 112.3 Q70.0 114.3 163.0 113.65 164.25 113.65 164.5 112.25 164.55 110.85 163.25 110.8 L106.85 110.3 Q111.1 94.45 106.0 80.5 L105.95 80.75 Q100.1 95.3 105.55 110.3 41.25 109.75 -23.0 109.55 L-23.0 80.25 106.0 80.0 193.95 79.65 195.75 79.65 197.8 79.65 Q194.15 93.05 194.5 164.85 194.85 236.6 196.8 272.0 155.4 273.8 110.0 273.7 L-23.0 273.5 M525.9 151.7 Q519.8 168.4 525.95 185.5 L526.7 184.85 Q531.2 167.3 526.0 151.7 L525.95 151.5 525.9 151.7 M576.9 243.1 L576.95 243.25 577.25 242.95 Q581.0 224.0 575.95 207.5 L575.4 207.85 Q569.9 227.85 576.9 243.1 M527.25 271.95 Q530.95 258.95 525.95 248.5 L525.0 248.85 Q523.55 249.65 522.45 251.0 521.7 264.35 526.9 272.15 L526.95 272.25 527.25 271.95 M183.5 156.25 Q183.55 154.8 182.25 154.8 104.5 153.85 26.75 153.6 31.2 133.1 26.0 114.5 L25.95 114.75 Q19.95 133.95 25.75 153.6 L6.0 153.5 Q1.05 155.75 6.0 155.9 54.1 157.25 102.2 157.65 97.0 178.2 104.0 194.25 L104.4 193.7 Q107.75 174.4 103.3 157.65 142.65 157.95 182.0 157.65 183.2 157.6 183.5 156.25 M24.7 243.85 Q29.25 224.7 24.0 207.5 L23.95 207.7 Q17.8 225.85 24.0 244.5 L24.7 243.85 M110.75 272.8 Q115.45 259.95 109.65 249.55 147.3 249.95 185.0 249.6 186.2 249.6 186.5 248.25 186.35 246.0 184.0 246.0 104.0 245.05 24.0 244.55 L16.0 244.5 Q10.8 247.3 17.1 247.5 62.85 249.05 108.65 249.55 104.2 261.1 110.0 273.5 L110.75 272.8" fill="#b45c5c" fill-rule="evenodd" stroke="none"/>
      <path d="M473.45 44.25 Q444.3 53.15 421.05 38.0 419.05 36.7 416.35 39.05 410.5 44.05 404.7 42.25 409.95 31.7 424.2 29.95 L425.95 29.5 Q445.6 47.25 473.45 43.85 L473.45 44.25 M377.45 119.25 Q345.2 119.15 315.3 125.8 310.5 126.85 306.45 122.5 307.65 118.7 312.15 117.05 L312.95 116.5 Q313.35 116.1 313.8 115.85 318.6 113.05 323.95 112.5 351.1 117.65 377.45 118.85 L377.45 119.25 M382.1 194.5 Q371.25 199.35 363.45 198.5 363.35 194.1 367.95 192.5 377.05 189.4 385.95 187.5 410.15 192.4 434.25 199.2 441.05 201.1 448.35 198.6 451.65 197.45 453.45 200.5 426.05 216.2 398.85 196.2 391.05 190.45 382.1 194.5 M410.45 276.25 Q368.9 276.45 327.5 279.75 320.55 280.3 315.45 283.0 312.65 277.7 318.7 274.45 L322.25 272.55 Q329.75 268.6 337.95 267.5 374.15 274.1 410.45 275.85 L410.45 276.25 M327.45 377.25 Q299.35 372.1 271.95 382.05 254.25 388.45 236.25 382.4 218.05 376.25 203.3 386.55 202.85 386.85 201.75 386.2 227.7 366.65 269.35 376.2 274.2 377.3 279.55 374.1 285.1 370.75 290.95 369.5 309.85 371.7 327.35 376.8 L327.45 377.25" fill="#bd9d53" fill-rule="evenodd" stroke="none"/>
      <path d="M606.95 377.75 L606.95 399.95 487.8 399.95 Q491.7 392.75 497.55 385.5 501.9 380.0 508.3 379.75 529.05 378.85 544.55 370.7 581.35 351.35 606.95 377.75 M213.95 55.6 L215.1 54.9 215.45 54.25 Q215.35 52.0 213.0 52.0 L212.95 51.5 Q212.25 51.75 212.2 52.0 L211.95 50.5 211.9 50.7 210.9 52.0 188.35 51.95 Q189.0 45.75 188.75 39.8 L204.95 39.65 Q206.2 39.65 206.45 38.25 206.35 36.05 203.95 36.0 L188.5 35.95 Q187.85 29.1 186.0 22.5 L185.95 22.75 Q183.9 29.3 183.25 35.95 L138.5 35.8 Q137.85 29.0 136.0 22.5 L135.95 22.75 Q133.9 29.2 133.25 35.75 L87.6 35.65 Q88.2 34.3 88.95 33.15 112.85 -1.9 151.75 19.75 162.15 -1.85 195.65 2.75 223.35 6.55 213.5 28.5 225.65 30.7 233.95 41.05 249.15 60.05 231.45 79.5 239.0 86.45 235.7 96.05 230.0 112.65 215.2 118.5 214.6 86.9 213.15 55.65 L213.95 55.6 M182.95 39.85 Q182.7 45.85 183.6 51.9 L138.35 51.75 Q138.95 45.85 138.75 40.1 L182.95 39.85 M132.95 40.15 Q132.7 45.9 133.55 51.75 L82.6 51.65 Q83.05 45.85 82.65 40.35 L132.95 40.15 M77.05 40.6 Q76.9 43.4 77.1 46.1 74.1 45.3 75.2 42.75 L75.5 42.0 Q75.6 40.85 76.4 40.7 L77.05 40.6" fill="#73d987" fill-rule="evenodd" stroke="none"/>
      <path d="M200.45 78.25 Q200.4 77.4 200.05 76.9 L200.05 76.75 Q209.9 68.35 211.9 59.5 208.05 157.4 212.95 252.85 205.7 261.45 202.15 271.35 204.45 173.6 200.15 78.85 L200.45 78.25" fill="#924343" fill-rule="evenodd" stroke="none"/>
      <path d="M606.95 106.45 L606.95 110.0 572.4 110.25 Q576.5 127.5 573.65 147.05 L606.95 147.5 606.95 151.8 Q564.0 151.6 521.1 149.6 514.8 149.3 519.95 146.5 546.05 146.7 572.15 147.05 566.35 130.6 571.1 110.25 L526.15 110.45 525.95 110.45 488.2 110.4 Q479.45 110.4 484.95 105.5 L524.35 105.7 Q520.75 92.55 525.9 79.75 L526.05 79.75 Q530.5 92.0 527.7 105.7 L606.95 106.45 M606.95 201.25 L606.95 204.8 Q544.95 204.6 482.95 202.9 478.05 202.75 482.95 200.5 544.95 200.65 606.95 201.25 M606.95 246.1 L606.95 249.75 Q572.5 249.4 538.05 247.95 533.0 247.75 537.95 245.5 572.45 245.65 606.95 246.1 M-23.0 200.9 L-24.0 200.85 Q-28.95 200.75 -24.0 198.5 L-23.0 198.5 Q72.6 198.75 168.25 199.8 169.55 199.8 169.5 201.25 169.2 202.6 168.0 202.65 72.5 203.35 -23.0 200.9 M-23.0 112.3 L-23.0 109.55 Q41.25 109.75 105.55 110.3 100.1 95.3 105.95 80.75 L106.0 80.5 Q111.1 94.45 106.85 110.3 L163.25 110.8 Q164.55 110.85 164.5 112.25 164.25 113.65 163.0 113.65 70.0 114.3 -23.0 112.3 M526.0 151.7 Q531.2 167.3 526.7 184.85 L525.95 185.5 Q519.8 168.4 525.9 151.7 L526.0 151.7 M577.25 242.95 L576.9 243.1 Q569.9 227.85 575.4 207.85 L575.95 207.5 Q581.0 224.0 577.25 242.95 M526.9 272.15 Q521.7 264.35 522.45 251.0 523.55 249.65 525.0 248.85 L525.95 248.5 Q530.95 258.95 527.25 271.95 L526.9 272.15 M183.5 156.25 Q183.2 157.6 182.0 157.65 142.65 157.95 103.3 157.65 107.75 174.4 104.4 193.7 L104.0 194.25 Q97.0 178.2 102.2 157.65 54.1 157.25 6.0 155.9 1.05 155.75 6.0 153.5 L25.75 153.6 Q19.95 133.95 25.95 114.75 L26.0 114.5 Q31.2 133.1 26.75 153.6 104.5 153.85 182.25 154.8 183.55 154.8 183.5 156.25 M110.75 272.8 L110.0 273.5 Q104.2 261.1 108.65 249.55 62.85 249.05 17.1 247.5 10.8 247.3 16.0 244.5 L24.0 244.55 Q104.0 245.05 184.0 246.0 186.35 246.0 186.5 248.25 186.2 249.6 185.0 249.6 147.3 249.95 109.65 249.55 115.45 259.95 110.75 272.8 M24.7 243.85 L24.0 244.5 Q17.8 225.85 23.95 207.7 L24.0 207.5 Q29.25 224.7 24.7 243.85" fill="#803c3c" fill-rule="evenodd" stroke="none"/>
    </g>
  </defs>
</svg>
