<?xml version="1.0" encoding="UTF-8" standalone="no"?>
<svg xmlns:xlink="http://www.w3.org/1999/xlink" height="842.55px" width="1337.95px" xmlns="http://www.w3.org/2000/svg">
  <g transform="matrix(1, 0, 0, 1, 407.45, 285.05)">
    <use height="4.5" transform="matrix(5.4867, 0.0, 0.0, 81.5667, 3.2875, 23.0167)" width="99.75" xlink:href="#shape0"/>
    <use height="414.35" transform="matrix(1.0, 0.0, 0.0, 1.0, -17.5, -3.0)" width="579.35" xlink:href="#shape1"/>
  </g>
  <defs>
    <g id="shape0" transform="matrix(1, 0, 0, 1, 49.85, -2.5)">
      <path d="M49.9 7.0 L-49.85 7.0 -49.85 2.5 49.9 2.5 49.9 7.0" fill="#ffffff" fill-rule="evenodd" stroke="none"/>
    </g>
    <g id="shape1" transform="matrix(1, 0, 0, 1, 17.5, 3.0)">
      <path d="M-13.0 -3.0 L556.0 -3.0 556.0 159.25 -13.0 159.25 -13.0 -3.0" fill="url(#gradient0)" fill-rule="evenodd" stroke="none"/>
      <path d="M-13.65 74.25 Q-16.2 74.0 -17.25 73.0 -17.5 74.05 -17.5 71.4 -17.55 69.55 -0.75 64.6 14.85 60.0 16.8 60.0 L25.8 59.45 Q36.9 59.45 44.3 62.9 51.65 66.35 57.5 66.35 59.15 66.35 61.45 64.5 63.7 62.6 66.1 62.65 75.3 62.6 80.85 82.85 L84.6 99.0 Q85.5 102.95 86.35 105.8 87.8 102.1 89.4 101.25 91.5 100.15 99.25 100.15 104.65 100.05 124.85 100.3 128.7 100.3 130.55 98.4 131.2 97.75 133.1 94.2 136.4 88.1 146.7 88.1 155.8 88.1 162.3 103.0 L166.75 114.5 Q169.05 120.5 170.8 122.3 172.75 124.2 178.4 131.35 179.75 130.3 181.75 129.0 188.6 124.55 198.7 120.45 225.45 109.3 251.15 109.3 254.85 109.3 258.05 111.15 261.15 113.0 268.0 113.0 274.3 113.0 284.35 107.45 294.4 101.85 299.4 101.9 310.7 101.85 322.1 111.7 L329.4 118.4 Q332.9 121.5 334.8 121.5 337.15 121.5 338.3 119.95 338.95 119.0 339.75 118.45 339.9 116.8 340.8 116.2 342.9 114.6 350.3 114.6 352.95 114.6 368.2 117.25 371.4 117.25 372.95 116.05 L374.7 113.3 Q376.45 109.3 381.55 109.3 386.6 109.3 389.95 110.9 392.95 112.35 394.1 112.5 L402.85 104.3 Q413.5 94.55 416.55 93.65 421.8 92.1 434.45 89.4 442.5 87.65 447.3 85.15 449.85 83.85 453.25 80.0 455.35 77.5 460.05 77.5 473.75 77.5 482.65 83.1 485.2 84.75 488.5 87.7 491.7 90.5 492.9 91.25 497.15 93.75 505.75 95.85 L518.7 98.6 525.75 85.75 Q543.55 53.65 553.9 48.85 L556.55 49.4 556.8 49.65 557.0 50.15 557.05 51.35 556.45 52.15 552.75 56.75 551.45 58.5 550.8 59.4 546.3 65.4 544.4 68.1 Q533.75 83.3 528.45 98.45 524.4 110.05 511.8 126.35 498.7 142.05 496.1 145.35 489.5 153.8 480.35 168.3 470.75 183.5 464.3 192.0 452.55 207.35 439.5 227.25 L439.4 227.45 435.9 232.85 435.15 234.0 433.55 236.55 433.0 236.35 431.6 235.7 Q431.15 235.25 431.0 234.4 L430.9 233.2 Q430.85 232.4 431.45 230.9 L431.6 230.55 432.75 228.05 433.55 226.55 433.6 226.5 Q438.55 217.35 452.6 197.4 L453.0 196.85 463.05 182.8 472.95 169.05 467.9 168.15 Q466.2 168.15 456.45 170.55 L446.5 172.7 446.8 173.45 Q446.8 174.3 440.15 178.55 433.15 182.95 432.2 185.9 429.0 195.85 423.2 200.25 L417.6 204.65 411.85 209.65 Q404.9 216.2 401.3 222.1 L400.65 223.25 399.05 226.45 397.5 227.0 396.95 226.75 396.9 227.5 Q396.75 229.2 395.95 229.65 L393.4 230.1 390.6 230.2 387.4 229.95 Q382.15 229.35 375.4 226.75 L371.35 225.3 366.3 223.9 361.3 223.3 Q360.0 223.25 356.85 224.6 353.7 225.95 352.4 225.95 347.85 225.9 345.75 225.1 343.5 223.95 341.1 223.3 336.1 221.9 323.6 221.25 312.2 220.6 294.6 220.65 293.15 220.65 263.75 212.7 257.85 212.7 246.35 216.15 234.9 219.55 231.0 219.6 L219.3 218.35 202.35 216.4 Q197.85 215.85 196.5 213.55 195.25 211.35 193.1 211.35 179.65 211.35 165.3 213.85 L161.5 214.55 157.65 215.35 Q150.2 216.95 144.3 219.05 124.5 225.9 108.0 225.95 L107.05 225.85 98.45 227.0 Q83.1 227.0 79.35 225.25 L78.4 224.6 Q77.85 223.45 77.1 222.95 75.9 222.35 72.3 222.25 L70.85 222.25 57.1 223.4 37.65 224.9 32.35 224.7 Q24.6 224.15 23.1 221.85 L22.4 219.75 Q22.0 218.75 20.4 218.8 3.7 218.8 -1.35 221.35 L-1.85 221.65 Q-3.1 222.35 -4.2 224.05 -5.2 225.45 -6.4 225.95 -6.7 225.8 -6.95 225.75 L-7.0 225.7 -8.3 225.1 Q-9.05 224.4 -9.05 222.6 -9.05 221.85 -8.7 221.15 -7.85 219.3 -4.8 217.55 L-4.55 217.4 -3.2 216.65 -2.15 216.15 Q4.55 213.2 14.3 213.2 24.65 213.2 26.95 216.15 28.15 217.65 29.45 218.15 L30.55 218.45 36.4 219.05 37.45 219.05 39.6 218.95 50.45 218.1 66.45 216.8 71.05 216.4 71.6 216.4 73.6 216.4 74.55 216.5 79.05 217.1 Q79.8 217.4 80.25 218.7 80.45 219.2 81.35 219.55 L82.1 219.8 82.45 219.9 95.25 220.65 108.5 219.6 Q111.8 219.55 113.4 220.25 L119.05 218.9 122.1 218.25 142.5 213.8 146.9 212.85 157.45 210.7 Q181.4 205.75 184.85 205.8 195.3 205.8 199.4 208.2 L201.85 209.8 Q203.1 210.55 205.0 210.55 L209.95 210.6 Q224.05 210.85 225.95 212.2 L226.8 213.25 230.9 213.75 Q236.7 213.75 240.25 212.7 242.0 212.15 245.4 210.3 246.4 209.75 247.55 209.3 249.25 208.6 251.35 208.1 251.6 208.3 251.95 208.35 253.7 208.75 254.6 207.5 L254.65 207.5 263.85 206.85 Q266.6 206.85 279.95 210.95 L281.7 211.5 281.75 211.75 Q282.55 213.4 283.9 212.15 L283.95 212.15 287.45 213.15 Q294.05 214.9 296.2 214.8 340.85 212.05 344.85 215.7 L345.4 216.55 Q345.75 217.4 345.5 218.65 346.1 220.1 352.3 220.1 353.6 220.1 356.6 218.8 359.55 217.45 360.9 217.45 L369.6 218.4 374.6 219.35 376.7 219.85 376.8 219.6 Q381.45 219.55 385.4 209.5 L386.6 206.1 387.55 206.2 Q387.95 207.5 389.4 209.75 L389.5 209.9 Q391.35 213.0 391.4 214.55 L390.85 220.1 393.75 220.65 395.4 220.5 Q395.9 219.3 396.95 217.7 L396.95 212.15 Q393.2 206.2 393.25 205.8 393.25 202.7 396.15 192.9 L398.6 184.6 Q400.05 185.75 402.25 186.2 L420.25 187.25 420.65 188.8 Q421.0 189.4 421.7 189.7 L425.95 185.35 Q435.15 176.2 440.3 172.25 L426.55 170.25 Q409.35 170.25 401.35 176.6 399.85 177.75 398.5 179.35 L397.4 180.7 396.95 181.3 396.9 181.4 396.4 182.1 397.0 182.45 398.9 183.45 399.05 183.55 398.7 184.15 398.5 184.55 397.65 185.9 Q397.0 186.7 395.35 186.7 L390.75 186.1 390.2 185.95 Q386.55 184.85 383.3 182.1 L382.0 180.95 Q379.95 179.0 378.05 176.4 373.2 169.75 369.4 158.75 L363.45 139.5 Q360.65 130.75 358.5 130.75 L350.45 134.0 343.3 136.8 339.25 138.35 336.8 139.25 328.6 142.35 318.25 146.0 312.55 147.9 Q297.95 152.7 291.0 153.6 L288.25 153.85 Q287.15 153.8 285.0 152.55 L282.3 150.8 281.6 150.3 277.75 147.5 276.6 146.7 Q274.65 146.65 272.15 150.3 269.5 153.85 267.05 153.85 L263.6 153.3 Q263.35 153.15 263.35 151.15 L262.8 151.45 260.15 152.6 259.1 152.75 Q255.05 152.75 252.6 151.45 249.5 149.8 248.85 146.15 248.5 144.05 248.9 141.15 L249.3 137.95 Q247.85 137.4 245.2 137.4 239.9 137.4 236.4 140.3 234.3 142.0 231.25 146.7 L229.95 148.6 Q227.8 151.65 226.1 153.05 L224.7 154.05 Q221.55 155.95 217.2 155.95 L216.1 155.85 211.0 154.8 210.3 154.65 209.8 154.5 208.2 154.15 203.4 153.3 Q200.9 153.3 196.75 157.55 L194.5 159.75 194.2 160.05 193.45 161.75 193.15 162.35 191.8 165.0 190.7 166.55 Q189.65 166.15 189.15 165.3 188.4 164.2 188.6 162.3 188.05 161.6 188.05 160.05 188.05 159.7 189.15 158.55 L189.7 157.95 189.8 157.45 189.9 156.5 Q189.9 155.65 182.2 145.55 L181.6 144.75 180.15 142.85 175.8 137.3 175.45 136.9 175.4 136.85 173.45 134.45 169.8 130.05 169.35 129.55 166.3 126.25 165.0 124.95 164.5 124.35 Q162.65 121.8 157.9 111.3 L156.3 107.75 Q150.1 93.9 147.1 93.9 141.1 93.9 138.95 95.55 L136.45 99.2 Q134.95 101.55 130.3 102.9 125.35 104.3 116.8 104.5 L113.7 104.55 Q94.5 104.5 87.8 109.95 L88.35 111.15 Q87.55 113.55 85.2 113.55 L84.95 113.55 Q83.85 115.9 83.6 119.45 L83.1 126.7 83.05 127.05 Q82.55 129.6 81.1 133.0 L80.75 133.85 76.75 141.5 75.5 143.65 Q72.6 148.7 71.4 151.75 L70.7 153.6 71.55 153.85 Q71.55 155.95 68.4 162.0 L67.8 164.0 65.7 170.95 63.7 177.6 63.2 179.25 62.65 180.95 60.85 187.4 Q57.7 199.35 57.35 209.0 57.6 210.05 54.95 210.05 53.2 210.05 52.1 207.35 51.25 205.35 51.25 204.3 51.25 202.5 55.15 187.95 L59.0 173.9 62.2 162.55 62.85 160.05 66.9 145.9 Q67.75 142.9 68.95 139.75 70.3 136.2 72.1 132.45 73.15 130.25 74.35 128.0 77.1 122.8 80.7 117.25 L83.25 112.9 Q81.15 111.35 79.3 106.5 77.6 101.9 75.2 91.0 72.6 79.2 71.45 75.5 69.15 68.45 66.55 68.45 64.3 68.45 62.55 70.35 60.85 72.2 57.6 72.2 55.0 72.15 43.8 68.75 L38.65 67.3 32.8 66.0 26.25 65.3 Q8.2 65.25 -0.9 69.8 L-6.45 72.85 Q-7.95 73.65 -9.55 74.0 L-12.2 74.3 -13.65 74.25 M486.7 93.45 Q479.9 89.75 474.6 87.4 466.4 83.8 461.65 83.35 L460.45 83.3 Q458.35 83.3 455.8 84.9 L453.4 86.65 447.6 92.05 Q445.3 94.0 442.45 95.45 439.6 96.8 436.2 97.65 L436.1 97.7 430.85 98.6 430.5 98.6 425.6 98.9 Q418.7 99.4 415.75 100.3 408.1 102.5 404.2 108.05 L400.85 112.8 397.5 116.2 Q396.85 116.95 395.35 117.8 L390.05 119.9 Q387.65 119.9 385.3 117.4 L382.9 114.85 Q381.1 114.85 380.05 116.15 L378.35 119.0 Q375.65 123.1 368.3 123.1 352.8 120.4 350.2 120.45 348.85 120.4 346.5 121.75 344.35 123.0 343.05 123.1 L341.0 125.45 Q338.0 128.35 335.95 128.4 332.25 128.4 328.15 125.2 L320.55 118.2 Q316.65 114.5 312.85 112.15 310.4 110.6 307.95 109.65 303.65 107.95 299.4 107.95 295.45 107.95 283.85 113.45 L281.9 114.35 277.05 116.45 Q271.05 118.85 268.65 118.85 261.0 118.85 257.55 117.0 254.1 115.1 251.05 115.15 L235.4 116.15 230.5 116.9 Q215.05 119.65 200.25 126.55 193.9 129.5 185.6 134.4 L182.2 136.3 183.9 138.5 Q191.8 148.9 194.3 153.45 200.65 147.45 202.9 147.45 204.1 147.45 209.2 148.6 L210.0 148.8 216.5 150.05 217.1 150.1 Q220.65 150.1 223.55 147.2 L228.5 140.85 Q235.35 131.55 245.3 131.55 255.3 131.55 255.15 139.4 L254.8 144.75 254.9 145.5 Q255.35 147.2 257.25 147.2 L258.4 147.15 Q261.25 146.95 263.6 145.8 266.45 144.3 267.6 144.3 L270.1 144.65 Q275.4 141.1 276.6 141.1 278.4 141.1 282.0 143.2 L284.05 144.45 287.4 146.6 287.45 146.6 288.85 147.5 289.3 147.75 Q303.5 147.75 314.0 142.35 316.85 140.85 324.3 135.0 326.1 133.55 328.25 133.75 L332.05 134.7 Q337.25 136.25 341.55 132.65 L348.0 127.35 Q351.3 125.2 355.6 125.2 362.7 125.2 366.4 131.85 368.1 134.85 372.05 147.7 375.65 159.8 380.3 166.95 385.0 174.2 392.05 179.3 393.7 175.4 401.75 170.85 413.1 164.45 426.1 164.45 L432.65 165.2 436.3 165.75 444.55 167.1 Q446.65 167.05 468.0 162.3 473.2 162.3 476.5 164.1 L494.25 139.8 496.35 136.75 501.4 128.95 510.45 113.6 515.45 104.55 515.65 104.2 514.95 104.25 508.8 104.0 Q506.4 104.0 500.05 100.75 L487.1 93.65 486.7 93.45" fill="#3c3c3c" fill-rule="evenodd" stroke="none"/>
      <path d="M-10.0 284.2 L-10.1 283.65 -10.1 278.45 Q-10.1 277.1 -9.05 274.25 -8.0 271.35 -7.95 270.05 -8.0 268.7 -9.05 267.65 -10.1 266.6 -10.1 265.3 -8.0 248.05 -7.95 245.4 L-11.15 228.35 Q-11.15 226.45 -10.55 226.15 L-7.95 225.95 Q-7.55 225.95 -7.15 226.25 -4.4 228.15 -3.8 244.0 -3.4 253.0 -3.7 262.25 -3.75 266.5 -2.8 271.45 -5.7 274.45 -7.9 279.25 -9.15 281.75 -10.0 284.2 M486.7 93.45 L486.8 93.75 487.85 96.45 Q490.15 102.8 491.3 109.4 491.3 111.8 485.35 125.4 L482.65 131.45 480.2 136.8 479.85 137.5 479.65 137.95 Q478.2 140.55 474.95 144.05 468.55 150.65 463.2 150.65 457.35 150.65 456.25 148.15 455.95 147.35 456.1 146.35 L456.35 145.35 Q456.3 142.0 458.45 138.2 458.15 137.4 455.55 137.4 450.1 137.4 449.3 139.25 L448.7 140.55 Q448.2 141.1 446.8 141.1 L445.3 140.85 448.3 136.2 450.55 132.3 Q452.4 128.6 453.15 125.75 454.1 122.0 452.95 115.2 451.7 107.85 452.1 105.05 452.35 103.05 457.05 93.75 461.6 84.75 461.65 83.6 L461.65 83.35 Q466.4 83.8 474.6 87.4 479.9 89.75 486.7 93.45 M461.9 144.75 L461.65 144.05 461.65 144.8 461.9 144.75" fill="#5e5e5e" fill-rule="evenodd" stroke="none"/>
      <path d="M482.65 131.45 L485.35 125.4 Q491.3 111.8 491.3 109.4 490.15 102.8 487.85 96.45 L486.8 93.75 487.1 93.65 500.05 100.75 Q506.4 104.0 508.8 104.0 L514.95 104.25 515.45 104.55 510.45 113.6 501.4 128.95 496.35 136.75 494.5 136.85 Q487.35 136.85 483.95 133.15 L482.65 131.45" fill="#686868" fill-rule="evenodd" stroke="none"/>
      <path d="M557.0 50.15 Q558.35 50.8 559.2 52.05 L559.2 243.75 Q558.4 236.0 557.05 228.15 554.15 211.1 553.9 196.95 L553.9 194.2 Q556.0 171.7 556.0 169.05 556.0 167.3 555.45 167.05 L554.25 166.75 556.0 159.25 Q556.0 153.8 554.15 148.6 553.1 145.75 551.55 142.95 549.8 139.9 547.6 137.7 545.3 135.35 542.55 133.95 552.55 124.75 552.55 122.55 552.55 119.05 545.85 110.15 539.05 101.2 539.05 99.05 539.0 97.15 540.4 94.4 L539.9 94.15 Q547.3 78.65 550.5 69.1 L549.65 81.45 Q549.65 85.85 551.2 97.1 552.75 108.6 554.6 112.95 L554.6 113.0 555.55 114.55 557.85 113.8 558.15 109.85 Q558.1 105.1 556.55 95.5 555.55 89.65 555.2 85.8 L555.4 78.7 Q557.05 67.65 557.05 65.3 557.9 60.8 556.1 59.25 555.1 58.4 553.35 58.4 L552.8 58.4 552.8 58.15 552.75 56.75 556.45 52.15 557.05 51.35 557.0 50.15 M559.2 274.1 L559.2 313.15 Q558.1 308.25 556.0 303.2 L553.9 297.75 Q551.75 291.8 551.75 288.75 551.75 286.1 553.9 281.35 L554.95 279.1 556.6 275.65 Q558.25 275.35 559.2 274.1 M559.2 336.35 L559.2 383.7 Q558.45 384.1 557.8 384.45 L556.55 385.0 555.7 382.6 554.95 382.1 552.95 380.8 552.8 380.25 Q552.8 372.35 553.55 365.25 554.45 356.45 556.55 348.9 558.25 342.5 559.2 336.35 M-10.6 174.85 L-10.6 173.25 -10.4 174.25 -10.6 174.85 M71.55 153.85 L70.7 153.6 71.4 151.75 71.55 153.85 M166.3 126.25 L169.35 129.55 166.75 131.85 166.85 129.2 166.3 126.25 M376.8 219.6 L376.7 219.85 374.6 219.35 374.3 218.8 374.7 219.05 376.8 219.6 M82.1 219.8 L81.35 219.55 82.15 219.6 82.1 219.8 M74.55 216.5 L73.6 216.4 71.6 216.4 73.15 214.7 73.75 215.6 74.55 216.5 M554.35 130.6 L553.9 131.3 554.35 131.3 554.35 130.6 M513.6 196.25 Q513.55 198.9 513.3 197.3 L512.9 196.95 513.6 196.25 M433.75 292.95 Q435.65 294.1 441.5 296.45 443.6 297.3 446.9 299.15 L445.2 299.1 Q436.05 299.1 428.45 301.95 431.45 297.6 433.75 292.95 M221.6 266.4 L225.0 266.6 Q223.6 267.4 222.6 268.7 L222.6 268.75 222.0 268.35 221.6 266.4 M217.7 230.95 L217.8 230.95 217.75 231.6 217.7 230.95 M374.05 339.25 L374.7 339.15 374.15 339.65 374.05 339.25 M377.35 344.45 L377.45 345.35 375.45 345.5 Q376.0 344.95 377.35 344.45 M394.7 350.05 L397.45 349.7 397.5 350.55 394.7 350.05 M135.35 349.75 L135.55 350.55 133.95 350.2 135.35 349.75 M351.7 335.05 L351.1 334.9 351.9 334.1 351.7 335.05 M473.15 351.85 L473.55 351.75 473.65 352.2 473.15 351.85 M489.95 311.0 L491.2 311.6 489.85 311.3 489.95 311.0 M141.5 175.0 L142.35 174.55 141.85 175.75 141.5 175.0 M147.05 185.2 L147.7 185.55 147.35 185.75 147.05 185.2 M122.4 179.5 L121.25 177.45 122.15 176.95 122.25 177.65 122.4 179.5 M39.75 102.95 L39.55 106.15 38.95 103.05 39.75 102.95 M4.45 127.95 L4.75 127.35 5.95 128.6 4.45 127.95 M12.25 139.0 L12.25 139.4 12.0 139.0 12.25 139.0 M85.6 218.0 L84.9 217.35 85.9 216.45 85.6 218.0 M81.1 204.35 L79.25 204.2 79.45 203.3 81.1 204.35 M141.8 280.4 L143.4 280.2 141.9 281.35 141.8 280.4 M161.55 335.7 L161.45 336.0 161.25 335.95 161.55 335.7 M142.45 287.95 L143.25 287.2 143.4 287.7 142.45 287.95 M152.45 291.2 L152.75 292.15 Q152.35 291.7 150.7 291.7 L152.45 291.2 M97.5 362.8 L97.55 362.8 97.65 363.15 97.5 362.8 M49.85 356.9 L49.85 356.8 49.95 356.9 49.85 356.9 M146.15 341.4 L148.8 341.0 146.15 341.5 146.15 341.4 M96.25 330.0 L96.55 330.5 95.8 330.9 95.1 330.05 96.1 329.65 96.25 330.0 M298.25 300.65 L298.35 300.7 298.8 300.8 Q297.75 301.45 297.15 302.05 L296.85 302.3 296.75 302.15 296.95 301.95 298.25 300.65 M260.9 315.8 L260.8 316.2 260.9 315.8 M245.35 297.0 L245.1 296.9 245.35 297.0 M185.55 325.6 L185.45 325.6 185.55 325.6 M166.25 311.6 L166.1 311.35 166.3 311.6 166.25 311.6 M315.6 324.2 L315.95 323.85 316.35 324.25 315.6 324.2 M251.0 312.8 L250.25 312.6 250.9 312.4 251.0 312.8 M-7.25 184.15 L-6.4 185.65 -7.45 185.5 -7.25 184.15" fill="#565654" fill-rule="evenodd" stroke="none"/>
      <path d="M552.75 56.75 L552.8 58.15 552.8 58.4 Q552.75 62.2 550.5 69.1 547.3 78.65 539.9 94.15 530.8 113.2 515.3 141.15 L512.0 147.1 510.15 150.4 502.65 162.45 499.1 167.85 495.95 172.65 487.2 186.05 482.7 193.45 481.0 196.5 Q479.05 200.0 471.5 220.75 L469.2 226.15 Q463.0 239.7 459.0 239.75 456.95 239.7 455.75 238.9 L454.8 237.85 Q453.6 236.0 451.8 236.0 439.35 238.65 436.7 238.65 L433.25 238.15 Q433.05 238.0 433.0 236.35 L433.55 236.55 435.15 234.0 Q438.65 233.3 439.85 231.55 440.4 230.65 440.4 229.5 440.4 227.95 440.15 227.8 L439.9 227.55 439.5 227.25 Q452.55 207.35 464.3 192.0 470.75 183.5 480.35 168.3 489.5 153.8 496.1 145.35 498.7 142.05 511.8 126.35 524.4 110.05 528.45 98.45 533.75 83.3 544.4 68.1 L546.3 65.4 550.8 59.4 551.45 58.5 552.75 56.75 M432.75 228.05 L427.7 228.85 428.25 228.05 429.2 226.1 Q435.25 214.7 450.05 199.8 L452.55 197.35 452.6 197.4 Q438.55 217.35 433.6 226.5 L433.55 226.45 433.55 226.55 432.75 228.05" fill="#4d4648" fill-rule="evenodd" stroke="none"/>
      <path d="M552.8 58.4 L553.35 58.4 Q555.1 58.4 556.1 59.25 557.9 60.8 557.05 65.3 557.05 67.65 555.4 78.7 L554.95 81.55 555.2 85.8 Q555.55 89.65 556.55 95.5 558.1 105.1 558.15 109.85 L557.85 113.8 555.55 114.55 554.6 113.0 554.6 112.95 Q552.75 108.6 551.2 97.1 549.65 85.85 549.65 81.45 L550.5 69.1 Q552.75 62.2 552.8 58.4" fill="#40403e" fill-rule="evenodd" stroke="none"/>
      <path d="M539.9 94.15 L540.4 94.4 Q539.0 97.15 539.05 99.05 539.05 101.2 545.85 110.15 552.55 119.05 552.55 122.55 552.55 124.75 542.55 133.95 538.0 131.55 532.15 131.55 L530.25 131.85 529.75 132.1 529.5 135.3 Q529.5 136.05 531.1 137.65 532.65 139.25 532.7 140.05 L530.55 145.55 Q528.45 150.4 528.45 152.35 528.45 155.0 530.6 156.65 531.9 157.6 535.35 159.4 542.2 163.85 542.2 175.85 542.2 177.0 539.05 186.55 539.05 189.2 539.3 189.35 L542.2 189.9 Q545.45 189.85 548.65 183.5 548.55 186.2 548.6 190.0 548.55 206.6 550.4 222.85 551.3 231.35 553.9 251.4 L554.95 259.6 554.95 264.4 554.4 264.4 553.9 263.3 Q551.2 258.2 543.6 251.85 542.65 255.6 541.7 255.65 537.85 255.65 533.7 252.45 L531.85 251.2 Q528.9 249.25 526.85 249.25 522.8 249.25 518.9 241.95 L517.85 239.95 Q518.9 235.7 518.9 232.3 518.9 229.8 517.1 227.5 518.25 225.0 520.4 223.1 521.15 222.4 522.05 221.75 L523.85 220.5 526.45 218.4 Q527.5 217.25 528.0 215.8 528.4 214.55 528.45 213.05 528.4 211.1 527.75 210.55 L524.45 208.75 523.15 207.9 Q523.4 207.3 524.2 206.5 L526.75 204.3 526.85 204.2 529.65 202.2 Q530.5 201.65 531.1 201.55 L534.25 202.1 533.7 208.5 Q535.4 207.6 535.8 205.05 L535.85 199.45 Q535.85 192.25 534.25 179.55 533.95 177.4 533.0 175.75 533.7 172.7 533.75 169.75 533.75 166.1 525.25 158.8 516.75 152.05 516.75 151.55 518.1 148.0 518.5 146.0 519.35 142.35 515.3 141.15 530.8 113.2 539.9 94.15 M502.65 162.45 L510.15 150.4 512.0 147.1 511.9 147.65 Q511.45 150.05 511.45 152.25 511.45 155.95 519.85 162.65 528.15 169.25 528.15 170.1 L528.0 171.55 Q526.2 170.7 523.95 170.25 514.3 168.3 511.85 164.45 510.55 162.45 510.1 162.15 508.8 161.25 505.65 161.25 504.05 161.25 502.65 162.45 M538.55 247.75 L536.75 246.45 538.25 248.75 538.55 247.75" fill="#44423c" fill-rule="evenodd" stroke="none"/>
      <path d="M542.55 133.95 Q545.3 135.35 547.6 137.7 549.8 139.9 551.55 142.95 553.1 145.75 554.15 148.6 556.0 153.8 556.0 159.25 L554.25 166.75 554.0 167.75 Q551.35 178.0 548.65 183.5 545.45 189.85 542.2 189.9 L539.3 189.35 Q539.05 189.2 539.05 186.55 542.2 177.0 542.2 175.85 542.2 163.85 535.35 159.4 531.9 157.6 530.6 156.65 528.45 155.0 528.45 152.35 528.45 150.4 530.55 145.55 L532.7 140.05 Q532.65 139.25 531.1 137.65 529.5 136.05 529.5 135.3 L529.75 132.1 530.25 131.85 532.15 131.55 Q538.0 131.55 542.55 133.95" fill="#414443" fill-rule="evenodd" stroke="none"/>
      <path d="M461.65 83.6 Q461.6 84.75 457.05 93.75 452.35 103.05 452.1 105.05 451.7 107.85 452.95 115.2 454.1 122.0 453.15 125.75 452.4 128.6 450.55 132.3 L448.3 136.2 445.3 140.85 446.8 141.1 Q448.2 141.1 448.7 140.55 L449.3 139.25 Q450.1 137.4 455.55 137.4 458.15 137.4 458.45 138.2 456.3 142.0 456.35 145.35 L456.1 146.35 Q455.95 147.35 456.25 148.15 457.35 150.65 463.2 150.65 468.55 150.65 474.95 144.05 478.2 140.55 479.65 137.95 L479.85 137.5 480.2 136.8 482.65 131.45 483.95 133.15 Q487.35 136.85 494.5 136.85 L496.35 136.75 494.25 139.8 476.5 164.1 Q473.2 162.3 468.0 162.3 446.65 167.05 444.55 167.1 L436.3 165.75 432.65 165.2 Q431.95 162.45 431.95 157.8 431.9 151.9 434.15 147.65 435.2 145.5 439.05 140.75 442.55 136.4 444.15 132.65 446.5 126.95 446.8 118.85 447.55 97.6 455.8 84.9 458.35 83.3 460.45 83.3 L461.65 83.35 461.65 83.6 M425.6 98.9 L430.5 98.6 430.85 98.6 436.1 97.7 436.2 98.0 436.2 97.65 Q439.6 96.8 442.45 95.45 L442.55 99.6 Q412.6 161.25 405.45 161.25 401.4 161.25 399.85 158.75 399.05 157.5 399.05 155.95 399.05 153.0 401.25 145.4 404.05 135.45 405.45 127.35 405.9 124.65 409.3 120.9 L416.35 113.95 Q425.8 104.75 425.6 98.9 M409.95 145.35 L409.65 145.1 409.95 145.35" fill="#5e6062" fill-rule="evenodd" stroke="none"/>
      <path d="M512.0 147.1 L515.3 141.15 Q519.35 142.35 518.5 146.0 518.1 148.0 516.75 151.55 516.75 152.05 525.25 158.8 533.75 166.1 533.75 169.75 533.7 172.7 533.0 175.75 531.4 173.05 528.0 171.55 L528.15 170.1 Q528.15 169.25 519.85 162.65 511.45 155.95 511.45 152.25 511.45 150.05 511.9 147.65 L512.0 147.1 M525.3 175.85 L525.4 175.75 Q528.25 177.85 529.5 183.0 L529.7 183.95 Q527.05 187.75 523.15 187.75 L523.1 187.75 517.95 186.6 Q516.3 185.05 514.45 183.85 L512.95 183.0 Q513.5 182.35 514.95 181.65 L519.7 179.45 Q519.85 179.35 520.05 179.3 L520.4 179.15 Q523.45 177.55 525.3 175.85" fill="#424242" fill-rule="evenodd" stroke="none"/>
      <path d="M499.1 167.85 L502.65 162.45 Q504.05 161.25 505.65 161.25 508.8 161.25 510.1 162.15 510.55 162.45 511.85 164.45 514.3 168.3 523.95 170.25 526.2 170.7 528.0 171.55 531.4 173.05 533.0 175.75 533.95 177.4 534.25 179.55 535.85 192.25 535.85 199.45 L535.8 205.05 Q535.4 207.6 533.7 208.5 L534.25 202.1 531.1 201.55 Q530.5 201.65 529.65 202.2 L526.85 204.2 526.75 204.3 524.2 206.5 Q523.4 207.3 523.15 207.9 L524.45 208.75 527.75 210.55 Q528.4 211.1 528.45 213.05 528.4 214.55 528.0 215.8 527.5 217.25 526.45 218.4 L523.85 220.5 Q520.75 220.0 519.35 217.85 L519.1 217.3 Q518.1 215.2 518.1 211.15 L518.1 211.0 518.3 204.4 518.25 203.15 Q518.05 198.55 516.25 196.25 515.15 194.7 514.65 189.9 514.2 186.75 511.4 186.5 L509.4 186.6 507.0 186.85 Q503.4 187.05 502.2 185.4 498.15 179.9 497.75 178.75 497.65 178.55 497.7 173.8 497.65 171.15 499.1 167.85 M525.4 175.75 L524.95 175.4 525.3 175.85 Q523.45 177.55 520.4 179.15 L520.05 179.3 Q519.85 179.35 519.7 179.45 L514.95 181.65 Q513.5 182.35 512.95 183.0 L514.45 183.85 Q516.3 185.05 517.95 186.6 L523.1 187.75 523.15 187.75 Q527.05 187.75 529.7 183.95 L529.5 183.0 Q528.25 177.85 525.4 175.75 M513.6 196.25 L512.9 196.95 Q509.35 193.9 509.35 193.2 509.35 191.55 509.6 191.6 L509.9 192.0 Q512.25 192.8 513.6 196.25" fill="#4c4e4d" fill-rule="evenodd" stroke="none"/>
      <path d="M469.2 226.15 L471.5 220.75 Q479.05 200.0 481.0 196.5 L482.7 193.45 487.2 186.05 495.95 172.65 499.1 167.85 Q497.65 171.15 497.7 173.8 497.65 178.55 497.75 178.75 498.15 179.9 502.2 185.4 503.4 187.05 507.0 186.85 504.0 189.2 502.0 196.0 499.8 203.15 499.8 207.9 L500.9 212.7 Q502.85 217.45 507.25 217.45 513.15 217.45 516.4 210.25 L516.8 209.25 518.3 204.4 518.1 211.0 518.1 211.15 Q518.1 215.2 519.1 217.3 L519.35 217.85 Q520.75 220.0 523.85 220.5 L522.05 221.75 Q521.15 222.4 520.4 223.1 518.25 225.0 517.1 227.5 518.9 229.8 518.9 232.3 518.9 235.7 517.85 239.95 517.05 243.05 515.7 246.6 511.05 258.8 503.0 258.8 496.6 258.8 496.6 254.7 496.6 251.0 499.55 247.95 498.5 247.1 491.8 244.85 492.35 242.75 492.4 240.65 L491.75 236.9 490.7 232.65 Q488.7 225.95 485.55 224.35 484.5 223.8 483.35 223.8 475.2 223.8 469.2 226.15 M485.55 237.6 L485.9 237.35 485.95 237.45 485.55 237.6 M493.4 204.05 L493.5 204.0 493.45 203.65 493.4 204.05 M503.8 253.25 L503.9 253.15 503.8 253.0 503.8 253.25" fill="#524e48" fill-rule="evenodd" stroke="none"/>
      <path d="M507.0 186.85 L509.4 186.6 511.4 186.5 Q514.2 186.75 514.65 189.9 515.15 194.7 516.25 196.25 518.05 198.55 518.25 203.15 L518.3 204.4 516.8 209.25 516.4 210.25 Q513.15 217.45 507.25 217.45 502.85 217.45 500.9 212.7 L499.8 207.9 Q499.8 203.15 502.0 196.0 504.0 189.2 507.0 186.85 M512.9 196.95 L513.3 197.3 Q513.55 198.9 513.6 196.25 512.25 192.8 509.9 192.0 L509.6 191.6 Q509.35 191.55 509.35 193.2 509.35 193.9 512.9 196.95" fill="#4e4948" fill-rule="evenodd" stroke="none"/>
      <path d="M559.2 243.75 Q560.25 254.35 560.25 264.9 L560.25 271.25 Q559.95 273.0 559.2 274.1 558.25 275.35 556.6 275.65 L555.45 275.8 Q554.7 275.8 553.9 275.3 552.85 274.65 551.75 273.25 550.6 271.75 549.4 269.45 545.35 261.95 543.3 260.4 537.85 257.25 535.1 255.05 532.75 253.15 531.85 251.2 L533.7 252.45 Q537.85 255.65 541.7 255.65 542.65 255.6 543.6 251.85 551.2 258.2 553.9 263.3 L554.4 264.4 554.95 264.4 554.95 259.6 553.9 251.4 Q551.3 231.35 550.4 222.85 548.55 206.6 548.6 190.0 548.55 186.2 548.65 183.5 551.35 178.0 554.0 167.75 L554.25 166.75 555.45 167.05 Q556.0 167.3 556.0 169.05 556.0 171.7 553.9 194.2 L553.9 194.5 553.9 196.95 Q554.15 211.1 557.05 228.15 558.4 236.0 559.2 243.75 M538.55 247.75 L538.25 248.75 536.75 246.45 538.55 247.75" fill="#4a534f" fill-rule="evenodd" stroke="none"/>
      <path d="M432.65 165.2 L426.1 164.45 Q413.1 164.45 401.75 170.85 393.7 175.4 392.05 179.3 385.0 174.2 380.3 166.95 375.65 159.8 372.05 147.7 368.1 134.85 366.4 131.85 362.7 125.2 355.6 125.2 351.3 125.2 348.0 127.35 L341.55 132.65 Q337.25 136.25 332.05 134.7 L328.25 133.75 Q326.1 133.55 324.3 135.0 316.85 140.85 314.0 142.35 303.5 147.75 289.3 147.75 L288.85 147.5 287.45 146.6 287.4 146.6 Q288.25 145.2 288.55 143.85 L288.8 137.95 Q288.75 134.15 285.05 130.2 281.35 126.85 281.35 126.35 281.35 125.15 282.05 123.0 L283.1 119.45 Q283.65 116.5 281.9 114.35 L283.85 113.45 Q295.45 107.95 299.4 107.95 303.65 107.95 307.95 109.65 310.4 110.6 312.85 112.15 316.65 114.5 320.55 118.2 L328.15 125.2 Q332.25 128.4 335.95 128.4 338.0 128.35 341.0 125.45 L343.05 123.1 Q344.35 123.0 346.5 121.75 348.85 120.4 350.2 120.45 352.8 120.4 368.3 123.1 375.65 123.1 378.35 119.0 L380.05 116.15 Q381.1 114.85 382.9 114.85 L385.3 117.4 Q387.65 119.9 390.05 119.9 L395.35 117.8 Q396.85 116.95 397.5 116.2 L400.85 112.8 404.2 108.05 Q408.1 102.5 415.75 100.3 418.7 99.4 425.6 98.9 425.8 104.75 416.35 113.95 L409.3 120.9 Q405.9 124.65 405.45 127.35 404.05 135.45 401.25 145.4 399.05 153.0 399.05 155.95 399.05 157.5 399.85 158.75 401.4 161.25 405.45 161.25 412.6 161.25 442.55 99.6 L442.45 95.45 Q445.3 94.0 447.6 92.05 L453.4 86.65 455.8 84.9 Q447.55 97.6 446.8 118.85 446.5 126.95 444.15 132.65 442.55 136.4 439.05 140.75 435.2 145.5 434.15 147.65 431.9 151.9 431.95 157.8 431.95 162.45 432.65 165.2" fill="#737373" fill-rule="evenodd" stroke="none"/>
      <path d="M312.55 147.9 L318.25 146.0 328.6 142.35 336.8 139.25 Q324.4 152.4 318.25 159.7 306.8 173.4 306.8 183.0 L307.1 185.4 Q308.4 187.75 313.7 187.75 315.95 187.75 324.75 176.75 334.6 164.25 336.5 162.85 343.3 157.8 347.15 149.15 350.3 142.05 350.3 136.05 L350.45 134.0 358.5 130.75 Q360.65 130.75 363.45 139.5 L369.4 158.75 Q373.2 169.75 378.05 176.4 375.7 178.55 373.35 183.95 370.45 190.7 370.45 192.8 370.4 193.35 373.1 201.55 375.35 208.6 375.7 210.6 L375.75 211.1 Q375.75 212.4 374.7 213.7 373.6 214.9 373.6 216.25 L373.7 218.05 373.85 218.35 374.3 218.8 374.6 219.35 369.6 218.4 360.9 217.45 Q359.55 217.45 356.6 218.8 353.6 220.1 352.3 220.1 346.1 220.1 345.5 218.65 345.75 217.4 345.4 216.55 L344.85 215.7 Q340.85 212.05 296.2 214.8 294.05 214.9 287.45 213.15 L283.95 212.15 Q285.45 210.75 283.8 209.9 290.9 184.5 290.9 180.35 290.9 179.0 289.85 175.35 L289.0 172.1 Q288.75 171.0 288.8 170.4 288.75 170.1 289.75 169.05 292.35 166.15 302.1 157.35 L312.55 147.9 M254.65 207.5 L254.6 207.5 Q253.7 208.75 251.95 208.35 251.6 208.3 251.35 208.1 249.25 208.6 247.55 209.3 245.3 204.9 245.3 191.5 L245.4 188.1 Q249.1 185.25 252.25 179.6 L252.4 179.75 Q252.7 180.15 252.75 182.2 252.7 183.55 251.65 186.6 250.6 189.6 250.6 190.95 250.6 192.25 251.65 196.5 252.7 200.75 252.75 202.1 L252.65 205.35 254.05 206.05 Q255.0 206.6 254.65 207.5" fill="#444446" fill-rule="evenodd" stroke="none"/>
      <path d="M336.8 139.25 L339.25 138.35 343.3 136.8 350.45 134.0 350.3 136.05 Q350.3 142.05 347.15 149.15 343.3 157.8 336.5 162.85 334.6 164.25 324.75 176.75 315.95 187.75 313.7 187.75 308.4 187.75 307.1 185.4 L306.8 183.0 Q306.8 173.4 318.25 159.7 324.4 152.4 336.8 139.25 M420.25 226.65 L421.65 227.65 Q421.35 229.05 421.35 230.3 421.3 231.25 421.5 231.9 L421.85 232.5 Q422.55 233.3 424.05 233.75 L421.85 234.45 418.5 233.9 418.2 233.85 418.5 233.95 418.15 234.95 417.15 235.35 416.55 235.5 414.75 233.3 404.4 231.75 404.35 231.75 400.8 231.3 399.6 231.25 Q395.3 231.25 393.55 230.2 L393.4 230.1 395.95 229.65 Q396.75 229.2 396.9 227.5 L396.95 226.75 397.5 227.0 399.05 226.45 400.65 223.25 401.55 223.15 403.25 223.1 411.25 223.8 414.4 224.05 Q417.35 224.55 419.5 226.1 L420.25 226.65 M319.7 168.55 L319.55 168.15 319.55 168.7 319.7 168.55" fill="#595959" fill-rule="evenodd" stroke="none"/>
      <path d="M378.05 176.4 Q379.95 179.0 382.0 180.95 L383.3 182.1 Q386.55 184.85 390.2 185.95 L390.75 186.1 390.6 190.4 387.8 202.3 386.65 203.1 Q385.05 204.5 386.25 206.0 L386.6 206.1 385.4 209.5 Q381.45 219.55 376.8 219.6 L374.7 219.05 374.3 218.8 373.85 218.35 373.7 218.05 373.6 216.25 Q373.6 214.9 374.7 213.7 375.75 212.4 375.75 211.1 L375.7 210.6 Q375.35 208.6 373.1 201.55 370.4 193.35 370.45 192.8 370.45 190.7 373.35 183.95 375.7 178.55 378.05 176.4" fill="#3c393a" fill-rule="evenodd" stroke="none"/>
      <path d="M390.75 186.1 L395.35 186.7 Q397.0 186.7 397.65 185.9 L398.5 184.55 398.7 184.15 399.05 183.55 398.9 183.45 397.0 182.45 396.4 182.1 396.9 181.4 396.95 181.3 397.4 180.7 398.5 179.35 400.15 179.3 Q419.2 179.3 424.3 182.75 426.15 184.0 425.95 185.35 L421.7 189.7 Q421.0 189.4 420.65 188.8 L420.25 187.25 402.25 186.2 Q400.05 185.75 398.6 184.6 L396.15 192.9 Q393.25 202.7 393.25 205.8 393.2 206.2 396.95 212.15 L396.95 217.7 Q395.9 219.3 395.4 220.5 L393.75 220.65 390.85 220.1 391.4 214.55 Q391.35 213.0 389.5 209.9 L389.4 209.75 Q387.95 207.5 387.55 206.2 L386.6 206.1 386.25 206.0 Q385.05 204.5 386.65 203.1 L387.8 202.3 390.6 190.4 390.75 186.1" fill="#363638" fill-rule="evenodd" stroke="none"/>
      <path d="M398.5 179.35 Q399.85 177.75 401.35 176.6 409.35 170.25 426.55 170.25 L440.3 172.25 Q435.15 176.2 425.95 185.35 426.15 184.0 424.3 182.75 419.2 179.3 400.15 179.3 L398.5 179.35" fill="#535355" fill-rule="evenodd" stroke="none"/>
      <path d="M439.9 227.55 L440.15 227.8 Q440.4 227.95 440.4 229.5 440.4 230.65 439.85 231.55 438.65 233.3 435.15 234.0 L435.9 232.85 439.4 227.45 439.9 227.55 M417.6 204.65 L423.2 200.25 Q429.0 195.85 432.2 185.9 433.15 182.95 440.15 178.55 446.8 174.3 446.8 173.45 L446.5 172.7 456.45 170.55 Q466.2 168.15 467.9 168.15 L472.95 169.05 463.05 182.8 453.0 196.85 452.55 197.35 450.05 199.8 Q435.25 214.7 429.2 226.1 L428.25 228.05 427.7 228.85 432.75 228.05 431.6 230.55 431.45 230.9 Q430.85 232.4 430.9 233.2 L431.0 234.4 429.8 234.45 424.05 233.75 Q422.55 233.3 421.85 232.5 L421.5 231.9 Q421.3 231.25 421.35 230.3 421.35 229.05 421.65 227.65 L420.25 226.65 420.25 226.45 Q420.25 224.05 418.7 219.35 417.1 214.6 417.1 211.75 418.8 206.45 417.6 204.65" fill="#4e4a44" fill-rule="evenodd" stroke="none"/>
      <path d="M217.2 155.95 Q221.55 155.95 224.7 154.05 L224.35 156.05 Q224.1 158.1 224.1 164.0 224.1 166.0 225.1 167.15 L227.3 168.9 Q230.45 171.2 230.45 176.9 L229.75 180.95 Q229.1 183.9 229.2 185.55 229.45 190.95 237.35 190.95 241.7 190.95 245.4 188.1 L245.3 191.5 Q245.3 204.9 247.55 209.3 246.4 209.75 245.4 210.3 242.0 212.15 240.25 212.7 236.7 213.75 230.9 213.75 L226.8 213.25 225.95 212.2 Q224.05 210.85 209.95 210.6 L205.0 210.55 Q203.1 210.55 201.85 209.8 L199.4 208.2 Q195.3 205.8 184.85 205.8 181.4 205.75 157.45 210.7 L146.9 212.85 142.5 213.8 122.1 218.25 119.05 218.9 Q117.0 216.45 117.0 214.65 117.0 211.75 118.05 207.15 118.25 206.0 118.6 204.8 120.15 198.5 120.2 194.4 L120.0 192.2 Q119.2 187.65 115.4 182.0 112.85 178.2 111.65 175.65 L110.85 173.4 110.65 172.15 Q110.65 169.75 110.9 168.15 L113.8 167.6 Q118.15 167.6 121.05 169.5 121.75 172.5 122.15 176.95 L121.25 177.45 122.4 179.5 123.3 191.0 123.65 193.8 Q124.3 198.4 125.5 201.4 127.55 206.85 131.3 206.85 136.55 206.85 143.2 202.25 L143.5 202.1 Q150.9 196.95 150.95 191.6 L147.35 185.75 147.7 185.55 147.05 185.2 141.85 175.75 142.35 174.55 141.5 175.0 Q138.5 169.05 136.45 163.7 134.95 159.8 133.95 156.2 L134.3 155.8 134.5 155.95 Q141.95 155.95 143.9 145.7 146.75 149.55 150.4 149.6 159.95 149.6 164.2 141.1 L164.95 139.45 165.1 139.95 Q165.75 142.55 165.8 145.1 165.75 147.75 168.15 168.15 L171.1 168.7 172.45 168.35 174.3 175.45 Q177.25 183.5 181.7 183.55 187.7 183.5 191.3 175.1 191.8 184.3 198.1 185.65 205.6 187.25 205.25 191.65 L205.05 195.15 Q205.3 197.1 207.65 198.35 210.95 197.85 215.55 186.3 219.85 175.45 219.85 170.55 218.45 160.95 216.3 156.25 L217.2 155.95 M433.0 236.35 Q433.05 238.0 433.25 238.15 L436.7 238.65 Q439.35 238.65 451.8 236.0 453.6 236.0 454.8 237.85 L455.75 238.9 Q454.2 242.55 454.2 246.55 L449.45 246.1 447.85 246.45 447.6 244.75 447.3 244.5 444.15 243.95 426.55 246.6 Q423.7 246.6 412.25 243.15 400.85 239.75 392.8 239.75 L392.7 239.75 389.05 239.95 Q387.4 240.35 387.4 242.1 L387.4 242.3 Q387.4 244.7 387.65 243.7 L388.35 244.0 385.2 244.5 382.2 244.45 376.8 244.25 369.05 243.4 366.7 238.05 Q365.1 233.9 365.15 229.25 365.15 226.75 366.3 223.9 L371.35 225.3 375.4 226.75 Q382.15 229.35 387.4 229.95 L387.4 231.75 387.45 235.4 Q388.6 238.65 394.3 238.65 L394.55 238.65 Q397.2 238.55 400.45 236.85 404.35 234.75 404.35 232.05 L404.4 231.75 414.75 233.3 416.55 235.5 417.15 235.35 Q417.05 235.55 417.1 235.75 417.1 238.4 417.35 237.35 418.7 238.65 422.95 238.65 427.0 238.65 430.15 236.8 L431.6 235.7 433.0 236.35 M374.0 249.25 L373.6 249.25 371.5 248.75 374.0 249.25" fill="#585858" fill-rule="evenodd" stroke="none"/>
      <path d="M447.85 246.45 L449.45 246.1 454.2 246.55 454.2 246.6 Q454.2 248.1 454.8 249.7 455.45 251.55 456.9 253.55 461.4 259.85 471.15 259.85 L477.9 259.0 Q476.45 264.35 476.5 267.65 476.45 273.55 478.95 277.2 480.4 279.3 484.45 282.5 488.35 285.55 489.9 288.1 L491.1 290.5 Q492.35 293.9 492.4 298.6 L491.95 300.6 483.0 302.15 481.65 302.35 Q477.35 302.95 475.95 302.3 474.5 301.6 473.1 298.0 471.85 294.85 469.6 294.85 465.85 294.85 460.95 298.6 L459.0 300.2 Q457.65 301.35 456.65 302.35 454.7 300.7 451.75 299.9 L446.9 299.15 Q443.6 297.3 441.5 296.45 435.65 294.1 433.75 292.95 L434.15 292.1 434.9 290.45 435.7 288.65 Q437.25 284.75 437.25 283.2 L437.3 282.7 Q437.6 280.65 437.25 278.8 436.85 277.0 435.8 276.0 439.5 270.55 441.5 265.95 436.4 262.5 434.95 260.65 434.05 259.5 434.05 257.6 434.05 255.95 434.55 254.55 L438.4 252.8 443.05 250.5 Q447.8 248.95 447.85 246.45 M460.4 306.2 L462.6 304.0 462.5 304.15 Q461.5 305.6 460.4 306.2 M513.35 350.35 L513.3 350.4 513.3 350.35 513.35 350.35" fill="#616362" fill-rule="evenodd" stroke="none"/>
      <path d="M455.75 238.9 Q456.95 239.7 459.0 239.75 463.0 239.7 469.2 226.15 475.2 223.8 483.35 223.8 484.5 223.8 485.55 224.35 488.7 225.95 490.7 232.65 L491.75 236.9 492.4 240.65 Q492.35 242.75 491.8 244.85 490.75 248.5 487.95 252.2 L485.9 254.4 Q482.5 257.65 477.9 259.0 L471.15 259.85 Q461.4 259.85 456.9 253.55 455.45 251.55 454.8 249.7 454.2 248.1 454.2 246.6 L454.2 246.55 Q454.2 242.55 455.75 238.9 M485.55 237.6 L485.95 237.45 485.9 237.35 485.55 237.6" fill="#393936" fill-rule="evenodd" stroke="none"/>
      <path d="M417.6 204.65 Q418.8 206.45 417.1 211.75 417.1 214.6 418.7 219.35 420.25 224.05 420.25 226.45 L420.25 226.65 419.5 226.1 Q417.35 224.55 414.4 224.05 L411.25 223.8 403.25 223.1 401.55 223.15 400.65 223.25 401.3 222.1 Q404.9 216.2 411.85 209.65 L417.6 204.65 M418.5 233.95 L418.2 233.85 418.5 233.9 418.5 233.95" fill="#424240" fill-rule="evenodd" stroke="none"/>
      <path d="M424.05 233.75 L429.8 234.45 431.0 234.4 Q431.15 235.25 431.6 235.7 L430.15 236.8 Q427.0 238.65 422.95 238.65 418.7 238.65 417.35 237.35 417.1 238.4 417.1 235.75 417.05 235.55 417.15 235.35 L418.15 234.95 418.5 233.95 418.5 233.9 421.85 234.45 424.05 233.75 M404.35 232.05 Q404.35 234.75 400.45 236.85 397.2 238.55 394.55 238.65 L394.3 238.65 Q388.6 238.65 387.45 235.4 L387.4 231.75 387.4 229.95 390.6 230.2 393.4 230.1 393.55 230.2 Q395.3 231.25 399.6 231.25 L400.8 231.3 404.35 231.75 404.35 232.05" fill="#292b2d" fill-rule="evenodd" stroke="none"/>
      <path d="M374.0 249.25 L384.75 250.35 392.0 249.65 396.9 248.6 397.25 248.5 400.5 247.4 407.6 249.0 425.55 252.4 425.85 253.5 419.15 256.25 Q406.8 261.0 393.2 263.35 L388.5 264.1 379.85 265.1 365.05 265.7 358.7 265.5 353.15 265.1 Q352.15 262.45 351.4 257.7 L350.3 246.75 350.3 241.85 354.35 243.25 358.55 244.75 Q365.3 247.3 371.4 248.7 L371.5 248.75 373.6 249.25 374.0 249.25" fill="#433f37" fill-rule="evenodd" stroke="none"/>
      <path d="M434.55 254.55 Q434.05 255.95 434.05 257.6 434.05 259.5 434.95 260.65 436.4 262.5 441.5 265.95 439.5 270.55 435.8 276.0 434.4 274.7 431.95 274.7 423.55 274.7 414.05 278.5 408.6 276.85 395.9 276.85 394.55 276.8 378.9 288.35 L378.65 289.2 Q378.5 290.05 379.25 290.75 380.6 292.05 385.3 292.5 L385.3 305.45 Q390.4 309.6 397.7 314.2 L404.35 318.2 404.3 319.1 400.15 318.75 Q396.2 318.3 382.45 315.0 L369.4 311.85 368.55 311.95 Q366.25 309.15 362.4 307.0 359.55 305.35 355.85 304.1 351.55 302.6 346.65 301.8 L342.35 301.25 Q337.3 301.2 331.75 303.65 329.2 304.75 327.8 305.9 L327.3 304.8 Q325.2 300.2 322.6 297.95 320.2 295.9 317.4 295.95 310.2 295.9 304.1 298.25 L304.75 296.5 Q305.75 293.15 305.75 289.3 L305.85 288.5 316.25 287.35 Q325.4 285.65 334.6 281.4 340.55 278.6 344.45 275.6 348.15 272.8 348.15 271.25 L365.15 271.55 Q373.15 271.5 382.8 269.95 398.2 267.45 417.7 260.95 427.2 257.7 434.55 254.55 M225.0 266.6 L227.3 266.7 227.85 266.75 247.4 267.7 253.15 267.95 Q253.3 271.3 255.4 272.6 260.05 275.35 261.45 277.9 262.25 279.5 262.3 282.65 L262.15 285.2 261.95 286.25 260.1 288.25 Q257.1 288.85 254.45 289.95 253.3 290.35 252.25 290.9 249.15 292.4 247.7 293.7 L247.05 294.4 Q246.5 295.0 246.4 295.65 L245.35 297.0 Q243.85 299.3 242.7 303.15 241.8 306.15 241.4 308.45 L241.3 308.5 235.15 310.1 233.45 310.55 Q229.8 309.7 223.55 309.7 L213.55 310.25 Q213.2 310.3 213.0 310.55 211.0 304.95 201.3 303.7 L201.7 301.7 201.85 299.65 201.75 297.85 Q201.5 294.85 200.4 292.95 205.35 289.05 214.8 277.4 L221.35 269.15 222.0 268.35 222.6 268.75 222.6 268.7 Q223.6 267.4 225.0 266.6 M245.35 297.0 L245.1 296.9 245.35 297.0" fill="#62626b" fill-rule="evenodd" stroke="none"/>
      <path d="M435.8 276.0 Q436.85 277.0 437.25 278.8 437.6 280.65 437.3 282.7 L437.25 283.2 Q437.25 284.75 435.7 288.65 L434.9 290.45 434.15 292.1 433.75 292.95 Q431.45 297.6 428.45 301.95 L428.25 302.3 424.8 306.75 Q421.95 310.1 419.05 312.5 415.5 315.3 411.85 316.75 L409.95 317.4 Q407.2 318.2 404.35 318.2 L397.7 314.2 Q390.4 309.6 385.3 305.45 L385.3 292.5 387.4 292.65 391.1 292.75 391.5 292.75 Q400.75 292.65 409.15 289.25 L409.7 289.05 Q415.05 286.8 417.0 284.55 418.15 283.2 418.15 281.9 418.15 279.7 414.05 278.5 423.55 274.7 431.95 274.7 434.4 274.7 435.8 276.0" fill="#726c69" fill-rule="evenodd" stroke="none"/>
      <path d="M456.65 302.35 Q457.65 301.35 459.0 300.2 L460.95 298.6 Q465.85 294.85 469.6 294.85 471.85 294.85 473.1 298.0 474.5 301.6 475.95 302.3 477.35 302.95 481.65 302.35 L483.0 302.15 491.95 300.6 494.65 300.2 497.6 299.95 Q508.0 299.1 516.15 301.85 520.15 303.2 523.65 305.45 529.8 309.45 531.6 313.2 532.65 315.5 532.7 320.3 L532.4 325.9 Q531.1 326.65 528.45 326.7 L523.15 326.55 Q513.25 326.1 507.15 324.0 505.55 323.45 504.25 322.75 498.6 318.45 494.5 317.65 L474.4 314.05 460.25 311.9 456.8 311.3 454.55 310.55 Q453.75 310.2 453.45 309.5 453.15 308.9 453.15 308.1 453.15 307.65 453.3 307.2 453.65 305.8 455.1 304.05 L456.65 302.35 M414.05 278.5 Q418.15 279.7 418.15 281.9 418.15 283.2 417.0 284.55 415.05 286.8 409.7 289.05 L409.15 289.25 Q400.75 292.65 391.5 292.75 L391.1 292.75 387.4 292.65 385.3 292.5 Q380.6 292.05 379.25 290.75 378.5 290.05 378.65 289.2 L378.9 288.35 Q394.55 276.8 395.9 276.85 408.6 276.85 414.05 278.5 M368.55 311.95 L369.4 311.85 382.45 315.0 Q396.2 318.3 400.15 318.75 L404.3 319.1 427.9 321.9 Q433.35 323.0 434.0 325.5 L434.05 326.15 Q434.05 328.6 433.25 330.95 432.2 333.95 429.8 336.65 427.55 339.05 424.25 341.25 414.7 347.45 397.45 349.7 L394.7 350.05 393.75 350.15 381.65 350.95 374.7 351.05 370.8 350.95 369.55 350.85 366.7 350.35 365.2 349.6 Q364.7 349.05 364.85 348.4 L365.15 347.75 Q365.1 345.15 374.15 339.65 L374.7 339.15 374.05 339.25 Q360.25 341.5 355.05 341.5 L351.2 341.1 Q348.25 340.35 346.5 338.35 L346.5 338.3 345.0 335.15 Q344.95 333.35 350.35 327.4 L353.45 324.1 355.05 322.45 360.3 317.45 362.2 315.75 Q366.2 312.5 368.55 311.95 M377.35 344.45 Q376.0 344.95 375.45 345.5 L377.45 345.35 377.35 344.45 M351.7 335.05 L351.9 334.1 351.1 334.9 351.7 335.05 M460.4 306.2 Q461.5 305.6 462.5 304.15 L462.6 304.0 460.4 306.2 M459.45 307.1 L459.25 307.35 459.5 307.35 459.45 307.1 M489.95 311.0 L489.85 311.3 491.2 311.6 489.95 311.0 M143.4 280.2 Q148.2 276.5 153.05 275.3 L157.85 274.7 160.0 274.9 Q163.1 275.35 165.3 277.35 L166.35 278.2 Q169.05 280.0 173.2 280.0 L173.65 280.1 175.85 280.55 176.1 281.05 Q176.35 281.4 176.4 282.95 176.35 283.35 172.2 284.9 L160.5 288.75 152.45 291.2 150.7 291.7 148.45 292.3 Q142.75 293.8 140.85 293.8 L135.3 293.3 Q135.0 293.1 135.05 290.45 135.0 287.1 141.9 281.35 L143.4 280.2 M185.45 325.6 Q176.9 325.4 175.9 323.8 175.6 323.25 175.9 322.05 176.2 320.9 175.85 320.3 174.6 318.25 170.5 317.55 L166.95 316.8 Q165.5 316.3 165.0 315.8 164.7 316.85 164.7 314.2 164.7 312.95 166.25 311.6 L166.3 311.6 Q168.35 309.7 173.25 307.6 177.15 305.9 181.4 304.9 185.6 303.85 190.2 303.55 L193.45 303.4 194.95 303.35 201.3 303.7 Q211.0 304.95 213.0 310.55 213.5 311.95 213.5 313.7 L213.45 315.25 Q213.2 318.05 212.15 320.85 210.35 325.6 207.15 325.6 205.8 325.6 205.45 324.55 205.0 323.5 203.7 323.5 L192.7 325.15 188.05 325.6 185.55 325.6 185.45 325.6 M142.45 287.95 L143.4 287.7 143.25 287.2 142.45 287.95 M260.1 288.25 L266.3 287.5 268.65 287.45 Q276.45 287.45 278.9 288.5 279.55 288.8 279.85 289.15 L280.4 291.15 Q280.7 292.65 281.9 293.8 286.3 298.15 291.7 296.4 294.25 295.55 295.4 295.8 296.65 296.05 297.9 297.3 L299.0 298.55 299.4 299.1 298.25 300.65 296.95 301.95 296.75 302.15 Q292.95 305.5 285.0 309.6 L281.35 311.4 Q277.55 313.1 274.15 314.2 268.15 316.05 263.35 316.1 L260.9 315.8 Q257.7 315.0 256.9 311.85 L256.2 308.25 Q255.55 306.2 254.05 305.2 253.0 304.45 250.55 301.5 L249.6 300.35 Q246.35 296.45 246.35 295.95 L246.4 295.65 Q246.5 295.0 247.05 294.4 L247.7 293.7 Q249.15 292.4 252.25 290.9 253.3 290.35 254.45 289.95 257.1 288.85 260.1 288.25 M196.75 309.35 L191.3 309.2 194.4 309.7 196.75 309.35 M275.4 306.3 L278.15 305.35 277.35 304.5 275.4 306.3" fill="#59564b" fill-rule="evenodd" stroke="none"/>
      <path d="M559.2 313.15 Q560.25 317.95 560.25 322.55 560.25 329.3 559.2 336.35 558.25 342.5 556.55 348.9 554.45 356.45 553.55 365.25 552.8 372.35 552.8 380.25 L552.95 380.8 553.45 383.2 556.0 396.0 Q556.0 399.0 554.45 401.6 552.45 404.95 548.6 405.0 542.2 403.65 533.2 402.85 527.9 401.25 525.25 401.3 511.2 401.25 484.25 405.25 457.35 409.25 441.5 409.25 426.9 409.2 423.7 406.85 422.7 406.1 423.0 405.2 L423.45 404.45 423.5 403.4 423.5 403.15 423.2 403.4 Q420.95 405.2 404.9 406.05 L355.05 404.45 Q308.3 404.45 295.7 409.25 L295.3 409.1 Q300.9 408.2 302.75 401.45 303.65 398.15 303.65 393.5 303.6 392.95 301.25 389.55 298.15 385.25 294.35 381.55 L291.7 379.15 Q281.05 370.15 269.15 370.15 260.85 370.15 255.05 372.85 L251.3 372.05 Q240.6 369.9 237.6 367.25 234.75 364.65 229.9 362.45 220.95 358.45 209.8 358.5 200.5 358.5 191.4 364.55 190.05 363.8 189.65 363.8 L188.1 363.85 188.0 363.2 Q192.25 362.7 192.3 360.1 191.75 357.7 191.75 356.9 L180.1 356.35 Q165.2 356.35 153.3 365.1 149.85 367.65 147.5 370.25 139.4 361.85 133.95 361.4 L133.95 360.9 135.0 358.4 Q136.1 355.2 136.1 352.9 136.05 351.35 135.8 351.0 L135.55 350.55 135.35 349.75 145.65 346.25 154.6 343.45 Q160.35 341.8 162.05 341.8 162.4 341.8 172.5 345.55 L175.85 346.85 Q181.45 348.65 183.4 350.4 L189.1 351.05 Q190.15 351.05 195.75 349.2 204.35 345.7 209.7 346.5 L211.9 347.0 Q212.45 347.05 212.45 346.15 212.4 345.3 211.7 344.7 216.15 344.3 225.55 334.4 226.05 335.55 227.05 336.5 231.15 340.45 242.15 340.45 L251.1 340.0 251.95 340.9 Q253.6 342.7 255.9 344.2 263.0 348.95 272.35 348.95 284.3 348.95 300.5 337.15 L303.15 335.15 306.05 332.85 307.35 333.05 Q315.1 333.0 320.3 331.4 323.45 333.0 324.3 333.05 336.45 333.0 345.55 329.6 348.5 328.5 350.35 327.4 344.95 333.35 345.0 335.15 L346.5 338.3 344.95 339.45 Q344.8 338.3 343.65 337.85 339.8 336.2 326.45 336.2 320.65 336.2 315.9 340.35 L312.95 343.45 Q310.6 346.3 309.35 348.9 307.85 351.85 307.85 354.5 307.85 357.15 308.15 356.9 L312.65 357.45 325.7 354.55 Q316.35 362.8 316.35 366.7 316.35 370.35 325.9 374.5 L330.45 376.65 Q335.45 379.3 335.45 381.15 335.4 381.75 333.3 384.45 331.35 386.9 331.2 388.25 L331.2 388.45 331.0 389.5 Q330.85 390.65 331.8 391.6 334.5 394.4 345.5 394.4 350.35 394.35 355.05 392.75 365.4 389.05 374.95 377.3 379.05 372.2 382.15 366.65 L383.3 364.3 384.15 362.65 384.65 361.55 385.35 361.9 385.05 362.55 383.45 366.45 Q381.05 372.35 381.05 375.3 381.05 377.05 381.4 377.55 382.2 378.55 385.55 379.05 L423.45 380.25 423.7 380.9 422.25 382.35 Q416.0 388.65 416.05 389.75 416.0 390.45 417.05 391.95 L419.45 394.9 421.9 397.55 424.0 399.6 425.0 400.55 Q430.3 405.0 435.1 405.0 476.3 405.0 497.45 397.5 504.7 394.95 509.6 391.5 516.45 386.7 518.75 380.05 519.95 376.4 519.95 370.25 L520.1 367.25 Q520.1 363.0 518.9 358.9 517.15 353.15 513.3 350.4 L513.35 350.35 Q514.2 351.05 514.65 351.05 528.4 334.2 528.45 331.55 529.65 326.65 523.15 326.7 L523.15 326.55 528.45 326.7 Q531.1 326.65 532.4 325.9 L532.7 320.3 Q532.65 315.5 531.6 313.2 529.8 309.45 523.65 305.45 520.15 303.2 516.15 301.85 508.0 299.1 497.6 299.95 L494.65 300.2 491.95 300.6 492.4 298.6 Q492.35 293.9 491.1 290.5 L489.9 288.1 Q488.35 285.55 484.45 282.5 480.4 279.3 478.95 277.2 476.45 273.55 476.5 267.65 476.45 264.35 477.9 259.0 482.5 257.65 485.9 254.4 L487.95 252.2 Q490.75 248.5 491.8 244.85 498.5 247.1 499.55 247.95 496.6 251.0 496.6 254.7 496.6 258.8 503.0 258.8 511.05 258.8 515.7 246.6 517.05 243.05 517.85 239.95 L518.9 241.95 Q522.8 249.25 526.85 249.25 528.9 249.25 531.85 251.2 532.75 253.15 535.1 255.05 537.85 257.25 543.3 260.4 545.35 261.95 549.4 269.45 550.6 271.75 551.75 273.25 552.85 274.65 553.9 275.3 554.7 275.8 555.45 275.8 L556.6 275.65 554.95 279.1 553.9 281.35 Q551.75 286.1 551.75 288.75 551.75 291.8 553.9 297.75 L556.0 303.2 Q558.1 308.25 559.2 313.15" fill="#707980" fill-rule="evenodd" stroke="none"/>
      <path d="M-7.15 226.25 L-6.95 225.75 Q-6.7 225.8 -6.4 225.95 -5.2 225.45 -4.2 224.05 -3.1 222.35 -1.85 221.65 L-1.35 221.35 Q3.7 218.8 20.4 218.8 22.0 218.75 22.4 219.75 L23.1 221.85 Q24.6 224.15 32.35 224.7 L37.65 224.9 57.1 223.4 70.85 222.25 72.3 222.25 Q75.9 222.35 77.1 222.95 77.85 223.45 78.4 224.6 L79.35 225.25 Q83.1 227.0 98.45 227.0 L107.05 225.85 108.0 225.95 Q124.5 225.9 144.3 219.05 150.2 216.95 157.65 215.35 L161.5 214.55 165.3 213.85 Q179.65 211.35 193.1 211.35 195.25 211.35 196.5 213.55 197.85 215.85 202.35 216.4 L219.3 218.35 231.0 219.6 Q234.9 219.55 246.35 216.15 257.85 212.7 263.75 212.7 293.15 220.65 294.6 220.65 312.2 220.6 323.6 221.25 336.1 221.9 341.1 223.3 343.5 223.95 345.75 225.1 347.85 225.9 352.4 225.95 353.7 225.95 356.85 224.6 360.0 223.25 361.3 223.3 L366.3 223.9 Q365.15 226.75 365.15 229.25 365.1 233.9 366.7 238.05 L369.05 243.4 365.9 242.75 Q361.2 241.55 357.35 238.95 352.85 235.9 350.65 235.1 345.85 233.35 337.05 233.35 323.15 236.0 320.5 236.0 319.1 236.0 312.85 234.1 L298.8 229.9 291.6 228.05 Q274.5 223.8 262.3 223.8 L229.3 226.45 227.1 226.2 203.95 223.8 192.8 224.35 187.15 225.6 177.7 228.05 175.8 228.55 Q169.55 230.15 145.65 232.85 139.8 233.45 136.2 235.85 134.65 236.85 131.15 240.6 L129.65 242.05 Q127.5 244.0 125.2 245.0 120.7 246.9 113.05 246.9 113.2 245.0 107.45 247.15 L107.5 247.4 107.35 247.45 101.8 247.15 101.75 247.05 101.65 247.15 Q99.7 247.15 99.3 247.7 98.95 248.1 99.0 250.15 98.95 251.25 100.5 252.3 102.15 253.4 105.55 254.45 103.95 259.15 103.2 260.4 L103.2 260.65 Q111.3 260.7 113.25 262.25 113.8 262.65 113.8 264.65 113.8 265.9 109.25 271.95 L108.05 273.55 106.05 276.15 106.95 276.3 107.2 276.6 Q107.45 276.7 107.45 278.25 L107.45 278.35 Q113.8 280.8 127.8 281.05 L130.8 281.1 141.8 280.4 141.9 281.35 Q135.0 287.1 135.05 290.45 135.0 293.1 135.3 293.3 L140.85 293.8 Q142.75 293.8 148.45 292.3 145.85 293.85 142.5 299.45 139.7 304.0 138.75 306.65 138.2 308.05 138.2 308.9 L138.2 309.0 Q138.2 311.55 138.45 310.5 139.7 311.2 148.7 311.35 L159.15 312.1 Q160.1 312.5 160.25 313.4 L160.3 315.1 Q160.45 317.1 164.7 317.15 L166.95 316.8 170.5 317.55 Q174.6 318.25 175.85 320.3 176.2 320.9 175.9 322.05 175.6 323.25 175.9 323.8 176.9 325.4 185.45 325.6 182.75 326.65 182.75 328.0 182.75 330.65 183.0 329.6 186.05 330.25 193.3 334.15 199.9 337.65 209.95 343.85 L200.75 343.4 Q200.75 340.45 198.1 340.45 197.8 340.45 194.6 343.0 191.5 345.5 187.25 345.5 182.6 343.65 178.7 342.15 165.75 337.1 161.45 336.0 L161.55 335.7 Q165.75 332.35 165.8 331.55 164.95 326.65 162.05 326.7 161.95 326.7 160.6 328.45 L157.0 331.5 Q156.5 329.25 155.4 328.3 149.65 323.65 146.15 319.25 142.85 315.1 140.1 314.75 138.55 314.5 135.55 315.95 132.6 317.4 130.45 317.0 127.05 316.4 122.85 311.85 L122.0 310.55 Q121.2 308.7 121.7 305.9 121.9 304.55 121.4 304.05 L121.2 303.9 121.25 303.35 Q121.25 298.15 118.6 298.05 109.5 297.4 101.65 298.0 L95.8 298.6 Q95.7 297.95 94.65 297.05 94.15 296.65 93.65 296.4 L93.65 295.75 94.0 292.3 Q94.2 288.3 93.65 284.5 L94.05 284.05 93.6 284.15 Q93.1 281.0 92.1 277.9 88.65 267.6 79.7 263.6 75.5 261.65 70.05 261.15 L65.75 260.95 58.8 261.8 58.55 260.95 58.85 257.75 Q58.85 251.45 54.65 245.05 48.7 236.0 36.7 234.65 L32.35 234.45 Q23.5 234.4 13.0 246.9 9.5 251.05 6.95 255.3 L6.3 256.3 Q3.7 260.75 3.7 262.35 2.8 265.6 4.95 266.75 0.65 267.85 -2.8 271.45 -3.75 266.5 -3.7 262.25 -3.4 253.0 -3.8 244.0 -4.4 228.15 -7.15 226.25 M210.5 257.0 L183.75 256.0 165.25 255.65 161.8 255.55 Q160.8 252.3 160.2 247.8 L160.1 246.95 158.9 237.1 156.25 236.55 156.2 236.15 158.85 236.05 158.9 236.05 163.55 236.0 Q172.6 236.0 176.85 235.0 179.2 234.45 182.0 232.85 L183.3 232.2 Q184.6 231.6 186.35 231.2 186.0 232.6 185.95 234.15 L185.95 234.8 187.05 243.8 Q188.65 252.45 191.75 252.45 193.2 252.45 197.0 241.75 L200.4 231.3 200.75 230.0 200.75 229.7 204.4 229.65 211.6 230.3 211.3 236.3 210.45 248.85 210.3 250.7 210.5 257.0 M103.85 269.65 Q102.55 270.1 102.25 271.6 L103.85 269.65" fill="#4c494a" fill-rule="evenodd" stroke="none"/>
      <path d="M350.3 241.85 L350.3 246.75 351.4 257.7 Q352.15 262.45 353.15 265.1 L340.8 263.85 328.0 262.85 323.95 262.65 Q322.9 260.15 321.4 255.3 318.85 247.25 318.55 243.45 L317.75 243.55 Q317.8 242.3 317.5 241.25 L318.55 241.5 318.65 241.5 321.15 241.85 323.65 241.6 336.95 239.2 Q341.75 239.15 350.3 241.85" fill="#293235" fill-rule="evenodd" stroke="none"/>
      <path d="M299.15 269.8 L318.15 270.45 340.1 271.05 348.15 271.25 Q348.15 272.8 344.45 275.6 340.55 278.6 334.6 281.4 325.4 285.65 316.25 287.35 L305.85 288.5 305.9 287.05 Q305.8 285.45 305.35 284.05 L305.2 283.65 Q303.3 278.75 296.2 279.75 L296.2 279.25 Q299.4 273.9 299.4 271.25 L299.15 269.8" fill="#5a5b58" fill-rule="evenodd" stroke="none"/>
      <path d="M446.9 299.15 L451.75 299.9 Q454.7 300.7 456.65 302.35 L455.1 304.05 Q453.65 305.8 453.3 307.2 453.15 307.65 453.15 308.1 453.15 308.9 453.45 309.5 453.75 310.2 454.55 310.55 L456.8 311.3 455.25 314.95 Q453.15 319.85 453.15 321.4 453.15 323.25 454.3 324.1 L456.85 325.25 Q459.2 326.1 460.1 328.2 460.55 329.35 460.55 330.9 L460.5 332.1 460.25 333.4 Q458.85 338.5 451.4 340.4 446.95 341.5 440.4 341.5 429.8 341.5 429.45 340.1 430.05 338.35 429.8 336.65 432.2 333.95 433.25 330.95 434.05 328.6 434.05 326.15 L434.0 325.5 Q433.35 323.0 427.9 321.9 L404.3 319.1 404.35 318.2 Q407.2 318.2 409.95 317.4 L411.85 316.75 Q415.5 315.3 419.05 312.5 421.95 310.1 424.8 306.75 L428.25 302.3 428.45 301.95 Q436.05 299.1 445.2 299.1 L446.9 299.15 M459.45 307.1 L459.5 307.35 459.25 307.35 459.45 307.1" fill="#676767" fill-rule="evenodd" stroke="none"/>
      <path d="M374.05 339.25 L374.15 339.65 Q365.1 345.15 365.15 347.75 L364.85 348.4 Q364.7 349.05 365.2 349.6 L366.7 350.35 369.55 350.85 370.8 350.95 374.7 351.05 381.65 350.95 Q384.6 351.85 385.75 353.6 386.35 354.55 386.35 355.85 386.3 357.7 384.65 361.55 L384.15 362.65 383.3 364.3 382.15 366.65 Q379.05 372.2 374.95 377.3 365.4 389.05 355.05 392.75 350.35 394.35 345.5 394.4 334.5 394.4 331.8 391.6 330.85 390.65 331.0 389.5 L331.2 388.45 331.2 388.25 Q331.35 386.9 333.3 384.45 335.4 381.75 335.45 381.15 335.45 379.3 330.45 376.65 L325.9 374.5 Q316.35 370.35 316.35 366.7 316.35 362.8 325.7 354.55 326.35 353.95 327.15 353.3 329.5 351.25 332.4 349.0 L333.75 347.95 337.85 344.8 341.3 342.2 344.95 339.45 346.5 338.3 346.5 338.35 Q348.25 340.35 351.2 341.1 L355.05 341.5 Q360.25 341.5 374.05 339.25 M211.7 344.7 Q212.4 345.3 212.45 346.15 212.45 347.05 211.9 347.0 L209.7 346.5 Q204.35 345.7 195.75 349.2 190.15 351.05 189.1 351.05 L183.4 350.4 Q181.45 348.65 175.85 346.85 L172.5 345.55 Q162.4 341.8 162.05 341.8 160.35 341.8 154.6 343.45 L145.65 346.25 135.35 349.75 133.95 350.2 129.9 351.65 123.45 353.9 97.55 362.8 97.5 362.8 Q88.05 365.9 86.8 365.9 81.7 365.9 79.9 364.15 78.75 363.15 78.35 360.35 77.9 357.6 76.8 356.55 74.95 354.8 69.8 354.8 63.75 354.75 57.8 358.75 51.85 362.75 48.75 362.75 L44.25 362.2 Q44.0 360.9 44.0 358.25 43.95 356.25 44.5 354.35 45.2 351.8 46.8 349.35 49.3 345.5 53.35 343.8 55.6 342.85 58.3 342.6 77.45 340.5 88.75 335.8 91.25 334.75 93.1 334.1 L93.3 334.05 Q95.1 333.35 96.25 333.1 L98.0 332.7 103.15 332.15 108.0 332.0 Q116.4 331.95 119.95 334.9 123.5 337.8 129.6 337.8 143.1 337.8 151.85 334.2 L155.8 332.25 157.0 331.5 160.6 328.45 Q161.95 326.7 162.05 326.7 164.95 326.65 165.8 331.55 165.75 332.35 161.55 335.7 L161.25 335.95 161.45 336.0 Q165.75 337.1 178.7 342.15 182.6 343.65 187.25 345.5 191.5 345.5 194.6 343.0 197.8 340.45 198.1 340.45 200.75 340.45 200.75 343.4 L209.95 343.85 211.4 344.7 211.7 344.7 M379.2 357.7 L378.9 357.7 378.9 358.25 379.2 357.7 M49.85 356.9 L49.95 356.9 49.85 356.8 49.85 356.9 M146.15 341.4 L146.15 341.5 148.8 341.0 146.15 341.4" fill="#727572" fill-rule="evenodd" stroke="none"/>
      <path d="M327.8 305.9 Q329.2 304.75 331.75 303.65 337.3 301.2 342.35 301.25 L346.65 301.8 Q351.55 302.6 355.85 304.1 359.55 305.35 362.4 307.0 366.25 309.15 368.55 311.95 366.2 312.5 362.2 315.75 L360.3 317.45 355.05 322.45 353.45 324.1 350.35 327.4 Q348.5 328.5 345.55 329.6 336.45 333.0 324.3 333.05 323.45 333.0 320.3 331.4 326.45 329.45 328.85 325.15 L328.95 325.0 329.95 322.25 330.35 318.8 330.2 315.65 330.6 315.5 Q331.6 313.0 330.1 310.05 L329.6 309.1 Q330.05 308.0 328.5 307.25 L328.5 307.3 328.15 306.8 327.8 305.9 M315.0 324.8 L315.6 324.2 316.35 324.25 Q315.7 324.5 315.0 324.8" fill="#6d6869" fill-rule="evenodd" stroke="none"/>
      <path d="M304.1 298.25 Q310.2 295.9 317.4 295.95 320.2 295.9 322.6 297.95 325.2 300.2 327.3 304.8 L327.8 305.9 328.15 306.8 328.5 307.3 328.5 307.25 Q330.05 308.0 329.6 309.1 L330.1 310.05 Q331.6 313.0 330.6 315.5 L330.2 315.65 330.35 318.8 329.95 322.25 328.95 325.0 328.85 325.15 Q326.45 329.45 320.3 331.4 315.1 333.0 307.35 333.05 L306.05 332.85 312.65 327.1 315.0 324.8 Q315.7 324.5 316.35 324.25 L315.95 323.85 318.5 321.1 318.5 320.9 Q318.35 318.9 315.9 318.25 311.8 317.1 297.8 317.15 289.05 317.15 280.5 319.3 L276.4 320.5 277.25 319.5 Q281.15 314.95 281.35 311.4 L285.0 309.6 Q292.95 305.5 296.75 302.15 L296.85 302.3 297.15 302.05 Q297.75 301.45 298.8 300.8 300.1 300.0 302.05 299.1 L303.45 298.5 304.1 298.25 M473.55 351.75 L472.25 346.05 Q469.8 341.25 464.7 339.0 L461.75 337.45 Q460.55 336.5 460.55 334.9 460.55 334.35 460.85 333.5 L460.25 333.4 460.5 332.1 460.55 330.9 Q460.55 329.35 460.1 328.2 459.2 326.1 456.85 325.25 L454.3 324.1 Q453.15 323.25 453.15 321.4 453.15 319.85 455.25 314.95 L456.8 311.3 460.25 311.9 474.4 314.05 494.5 317.65 Q498.6 318.45 504.25 322.75 505.55 323.45 507.15 324.0 513.25 326.1 523.15 326.55 L523.15 326.7 Q529.65 326.65 528.45 331.55 528.4 334.2 514.65 351.05 514.2 351.05 513.35 350.35 L513.3 350.35 513.3 350.4 Q512.1 349.5 510.7 348.95 L507.9 348.2 504.6 347.9 499.85 348.7 492.4 350.8 486.8 352.4 484.75 352.9 480.1 353.7 479.65 353.7 Q476.05 353.6 473.65 352.2 L473.55 351.75" fill="#7c7c78" fill-rule="evenodd" stroke="none"/>
      <path d="M344.95 339.45 L341.3 342.2 337.85 344.8 333.75 347.95 332.4 349.0 Q329.5 351.25 327.15 353.3 326.35 353.95 325.7 354.55 L312.65 357.45 308.15 356.9 Q307.85 357.15 307.85 354.5 307.85 351.85 309.35 348.9 310.6 346.3 312.95 343.45 L315.9 340.35 Q320.65 336.2 326.45 336.2 339.8 336.2 343.65 337.85 344.8 338.3 344.95 339.45 M191.4 364.55 Q200.5 358.5 209.8 358.5 220.95 358.45 229.9 362.45 234.75 364.65 237.6 367.25 240.6 369.9 251.3 372.05 L255.05 372.85 Q260.85 370.15 269.15 370.15 281.05 370.15 291.7 379.15 L294.35 381.55 Q298.15 385.25 301.25 389.55 303.6 392.95 303.65 393.5 303.65 398.15 302.75 401.45 300.9 408.2 295.3 409.1 L293.55 409.25 Q291.55 409.2 290.35 408.1 287.8 410.25 286.65 410.3 269.3 410.3 258.8 405.7 L257.7 405.2 Q254.4 403.6 252.15 401.65 L250.35 399.95 Q247.1 398.85 244.3 398.1 238.2 396.45 234.35 396.4 L229.45 396.95 226.2 397.9 Q221.15 399.7 216.8 399.95 209.2 400.45 196.55 398.1 167.9 395.45 167.9 392.8 L168.1 391.9 Q168.7 390.25 171.1 386.4 173.4 382.65 176.1 379.15 L179.1 375.6 179.9 374.7 Q185.6 368.4 191.4 364.55 M257.7 398.9 L257.7 398.65 257.5 398.65 257.7 398.9" fill="#494b4d" fill-rule="evenodd" stroke="none"/>
      <path d="M381.65 350.95 L393.75 350.15 394.7 350.05 397.5 350.55 397.45 349.7 Q414.7 347.45 424.25 341.25 427.55 339.05 429.8 336.65 430.05 338.35 429.45 340.1 429.8 341.5 440.4 341.5 446.95 341.5 451.4 340.4 458.85 338.5 460.25 333.4 L460.85 333.5 Q460.55 334.35 460.55 334.9 460.55 336.5 461.75 337.45 L464.7 339.0 Q469.8 341.25 472.25 346.05 L473.55 351.75 473.15 351.85 Q470.45 350.0 466.4 350.0 460.55 350.0 447.1 360.35 L446.8 360.55 Q442.2 364.1 436.75 368.85 431.8 373.1 427.45 377.25 L423.7 380.9 423.45 380.25 385.55 379.05 Q382.2 378.55 381.4 377.55 381.05 377.05 381.05 375.3 381.05 372.35 383.45 366.45 L385.05 362.55 385.35 361.9 384.65 361.55 Q386.3 357.7 386.35 355.85 386.35 354.55 385.75 353.6 384.6 351.85 381.65 350.95 M385.35 361.9 L385.55 361.5 385.35 361.9" fill="#646867" fill-rule="evenodd" stroke="none"/>
      <path d="M423.7 380.9 L427.45 377.25 Q431.8 373.1 436.75 368.85 442.2 364.1 446.8 360.55 L447.1 360.35 Q460.55 350.0 466.4 350.0 470.45 350.0 473.15 351.85 L473.65 352.2 Q476.05 353.6 479.65 353.7 L480.1 353.7 484.75 352.9 486.8 352.4 492.4 350.8 499.85 348.7 504.6 347.9 507.9 348.2 510.7 348.95 Q512.1 349.5 513.3 350.4 517.15 353.15 518.9 358.9 520.1 363.0 520.1 367.25 L519.95 370.25 Q519.95 376.4 518.75 380.05 516.45 386.7 509.6 391.5 504.7 394.95 497.45 397.5 476.3 405.0 435.1 405.0 430.3 405.0 425.0 400.55 L424.0 399.6 421.9 397.55 419.45 394.9 417.05 391.95 Q416.0 390.45 416.05 389.75 416.0 388.65 422.25 382.35 L423.7 380.9" fill="#554b44" fill-rule="evenodd" stroke="none"/>
      <path d="M557.8 384.45 L559.45 386.85 Q561.85 391.0 561.85 395.05 561.85 400.1 558.65 404.4 554.35 410.2 545.95 410.8 L319.55 410.8 Q91.85 410.55 88.65 410.05 L87.9 409.85 81.85 410.55 78.9 410.8 69.45 411.35 31.25 410.3 Q-10.1 410.3 -10.1 397.75 -10.1 396.4 -9.05 394.35 -8.0 392.25 -7.95 390.95 -8.0 386.45 -11.7 382.65 -15.4 378.85 -15.4 376.25 -14.35 366.2 -14.35 363.55 -13.55 359.8 -12.6 356.8 L-13.25 352.35 -13.25 340.55 Q-13.3 329.6 -13.05 326.75 -12.5 318.45 -10.1 312.35 L-10.1 311.55 -10.4 311.75 -12.75 312.9 Q-15.4 310.25 -15.4 309.2 -15.4 306.7 -13.75 302.05 -12.85 299.5 -12.05 298.25 -11.75 300.9 -10.6 302.05 -9.5 303.15 -7.4 304.0 -3.05 305.7 5.55 306.0 6.3 314.95 18.8 318.5 25.0 320.25 31.55 320.3 L31.8 320.85 Q33.35 324.0 33.4 325.2 L33.35 325.6 Q29.45 327.65 27.05 331.7 23.85 337.1 23.85 344.45 23.85 346.9 31.95 350.15 36.75 352.1 44.5 354.35 43.95 356.25 44.0 358.25 44.0 360.9 44.25 362.2 L48.75 362.75 Q51.85 362.75 57.8 358.75 63.75 354.75 69.8 354.8 74.95 354.8 76.8 356.55 77.9 357.6 78.35 360.35 78.75 363.15 79.9 364.15 81.7 365.9 86.8 365.9 88.05 365.9 97.5 362.8 L97.65 363.15 Q96.55 363.5 95.8 364.3 96.0 366.1 96.6 368.0 97.55 371.05 99.55 374.35 101.6 377.55 103.85 379.15 106.05 380.75 108.5 380.75 111.75 380.75 116.1 379.15 L118.35 378.25 Q124.05 375.7 128.4 375.7 L136.75 379.15 138.2 379.7 141.6 379.15 142.65 378.8 142.6 379.15 Q142.45 380.05 142.45 381.0 142.45 383.7 144.3 386.15 139.25 389.6 139.25 390.05 139.25 390.9 141.9 393.35 152.1 389.65 162.6 380.75 163.6 379.9 165.15 379.15 167.1 378.25 169.9 377.55 L179.1 375.6 176.1 379.15 Q173.4 382.65 171.1 386.4 168.7 390.25 168.1 391.9 L167.9 392.8 Q167.9 395.45 196.55 398.1 209.2 400.45 216.8 399.95 221.15 399.7 226.2 397.9 L229.45 396.95 234.35 396.4 Q238.2 396.45 244.3 398.1 247.1 398.85 250.35 399.95 L252.15 401.65 Q254.4 403.6 257.7 405.2 L258.8 405.7 Q269.3 410.3 286.65 410.3 287.8 410.25 290.35 408.1 291.55 409.2 293.55 409.25 L295.3 409.1 295.7 409.25 Q308.3 404.45 355.05 404.45 L404.9 406.05 Q420.95 405.2 423.2 403.4 L423.5 403.15 423.5 403.4 423.45 404.45 423.0 405.2 Q422.7 406.1 423.7 406.85 426.9 409.2 441.5 409.25 457.35 409.25 484.25 405.25 511.2 401.25 525.25 401.3 527.9 401.25 533.2 402.85 542.2 403.65 548.6 405.0 552.45 404.95 554.45 401.6 556.0 399.0 556.0 396.0 L553.45 383.2 552.95 380.8 554.95 382.1 555.7 382.6 556.55 385.0 557.8 384.45 M257.7 398.9 L257.5 398.65 257.7 398.65 257.7 398.9" fill="#7d767a" fill-rule="evenodd" stroke="none"/>
      <path d="M209.8 154.5 L210.3 154.65 211.0 154.8 210.85 154.9 209.8 154.5 M216.5 150.05 L210.0 148.8 209.2 148.6 Q204.1 147.45 202.9 147.45 200.65 147.45 194.3 153.45 191.8 148.9 183.9 138.5 L182.2 136.3 185.6 134.4 Q193.9 129.5 200.25 126.55 215.05 119.65 230.5 116.9 L235.4 116.15 Q236.25 118.05 235.75 122.3 235.75 127.4 224.9 140.6 L216.75 149.85 216.5 150.05" fill="#767678" fill-rule="evenodd" stroke="none"/>
      <path d="M287.4 146.6 L284.05 144.45 282.0 143.2 Q278.4 141.1 276.6 141.1 275.4 141.1 270.1 144.65 L267.6 144.3 Q266.45 144.3 263.6 145.8 261.25 146.95 258.4 147.15 L256.45 143.25 Q255.6 144.25 254.9 145.5 L254.8 144.75 255.15 139.4 Q255.3 131.55 245.3 131.55 235.35 131.55 228.5 140.85 L223.55 147.2 Q220.65 150.1 217.1 150.1 L216.75 149.85 224.9 140.6 Q235.75 127.4 235.75 122.3 236.25 118.05 235.4 116.15 L251.05 115.15 Q254.1 115.1 257.55 117.0 261.0 118.85 268.65 118.85 271.05 118.85 277.05 116.45 L281.9 114.35 Q283.65 116.5 283.1 119.45 L282.05 123.0 Q281.35 125.15 281.35 126.35 281.35 126.85 285.05 130.2 288.75 134.15 288.8 137.95 L288.55 143.85 Q288.25 145.2 287.4 146.6" fill="#6c6c6e" fill-rule="evenodd" stroke="none"/>
      <path d="M224.7 154.05 L226.1 153.05 Q227.8 151.65 229.95 148.6 L231.25 146.7 Q234.3 142.0 236.4 140.3 239.9 137.4 245.2 137.4 247.85 137.4 249.3 137.95 L248.9 141.15 Q248.5 144.05 248.85 146.15 249.5 149.8 252.6 151.45 255.05 152.75 259.1 152.75 L260.15 152.6 262.8 151.45 263.35 151.15 Q263.35 153.15 263.6 153.3 L267.05 153.85 Q269.5 153.85 272.15 150.3 274.65 146.65 276.6 146.7 L277.75 147.5 Q274.75 153.05 272.35 163.2 269.65 174.4 269.7 178.6 269.7 183.2 271.1 189.9 272.55 197.4 274.45 199.45 281.3 193.65 286.35 180.35 287.95 176.0 289.0 172.1 L289.85 175.35 Q290.9 179.0 290.9 180.35 290.9 184.5 283.8 209.9 285.45 210.75 283.95 212.15 L283.9 212.15 Q282.55 213.4 281.75 211.75 L281.7 211.5 279.95 210.95 Q266.6 206.85 263.85 206.85 L254.65 207.5 Q255.0 206.6 254.05 206.05 L252.65 205.35 252.75 202.1 Q252.7 200.75 251.65 196.5 250.6 192.25 250.6 190.95 250.6 189.6 251.65 186.6 252.7 183.55 252.75 182.2 252.7 180.15 252.4 179.75 L252.25 179.6 Q249.1 185.25 245.4 188.1 241.7 190.95 237.35 190.95 229.45 190.95 229.2 185.55 229.1 183.9 229.75 180.95 L230.45 176.9 Q230.45 171.2 227.3 168.9 L225.1 167.15 Q224.1 166.0 224.1 164.0 224.1 158.1 224.35 156.05 L224.7 154.05 M291.0 153.6 Q297.95 152.7 312.55 147.9 L302.1 157.35 Q292.35 166.15 289.75 169.05 290.9 163.7 290.9 159.15 291.25 156.35 291.0 153.6 M258.4 147.15 L257.25 147.2 Q255.35 147.2 254.9 145.5 255.6 144.25 256.45 143.25 L258.4 147.15 M105.55 254.45 Q121.9 259.6 179.15 263.75 L177.8 264.15 Q173.15 265.65 168.75 268.1 161.7 272.0 160.0 274.9 L157.85 274.7 153.05 275.3 Q148.2 276.5 143.4 280.2 L141.8 280.4 130.8 281.1 127.8 281.05 Q113.8 280.8 107.45 278.35 L107.45 278.25 Q107.45 276.7 107.2 276.6 L106.95 276.3 106.05 276.15 108.05 273.55 109.25 271.95 Q113.8 265.9 113.8 264.65 113.8 262.65 113.25 262.25 111.3 260.7 103.2 260.65 L103.2 260.4 Q103.95 259.15 105.55 254.45 M103.85 269.65 L102.25 271.6 Q102.55 270.1 103.85 269.65" fill="#4f4f4f" fill-rule="evenodd" stroke="none"/>
      <path d="M169.35 129.55 L169.8 130.05 173.45 134.45 175.4 136.85 175.45 136.9 175.8 137.3 180.15 142.85 181.6 144.75 181.7 145.9 182.2 145.55 Q189.9 155.65 189.9 156.5 L189.8 157.45 189.55 157.7 189.1 158.35 189.15 158.55 Q188.05 159.7 188.05 160.05 188.05 161.6 188.6 162.3 188.4 164.2 189.15 165.3 188.7 167.05 187.85 168.85 185.35 173.7 180.65 176.65 178.5 170.25 178.5 167.1 178.5 165.85 181.15 163.5 183.8 161.1 183.8 159.5 183.8 157.85 182.95 157.5 L181.15 157.0 Q180.15 157.65 177.75 160.2 175.2 167.0 172.45 168.35 L171.1 168.7 168.15 168.15 Q165.75 147.75 165.8 145.1 165.75 142.55 165.1 139.95 L164.95 139.45 166.2 135.55 166.75 131.85 169.35 129.55" fill="#4b4b49" fill-rule="evenodd" stroke="none"/>
      <path d="M116.8 104.5 Q125.35 104.3 130.3 102.9 134.95 101.55 136.45 99.2 L138.95 95.55 Q141.1 93.9 147.1 93.9 150.1 93.9 156.3 107.75 L157.9 111.3 Q162.65 121.8 164.5 124.35 L165.0 124.95 166.3 126.25 166.85 129.2 166.75 131.85 166.2 135.55 164.95 139.45 164.2 141.1 Q159.95 149.6 150.4 149.6 146.75 149.55 143.9 145.7 144.55 142.1 144.55 137.25 L144.25 132.85 Q143.65 129.2 142.25 125.2 L142.15 124.95 Q139.2 116.8 133.9 114.5 131.1 107.4 126.0 107.45 125.5 107.45 123.4 109.45 121.3 111.4 120.2 111.4 115.95 111.4 115.95 107.3 115.95 105.65 116.8 104.5 M136.35 125.45 L136.55 125.75 136.35 125.75 136.35 125.45" fill="#676769" fill-rule="evenodd" stroke="none"/>
      <path d="M194.5 159.75 L196.75 157.55 Q200.9 153.3 203.4 153.3 L208.2 154.15 209.8 154.5 210.85 154.9 211.0 154.8 216.1 155.85 216.3 156.25 Q218.45 160.95 219.85 170.55 219.85 175.45 215.55 186.3 210.95 197.85 207.65 198.35 205.3 197.1 205.05 195.15 L205.25 191.65 Q205.6 187.25 198.1 185.65 191.8 184.3 191.3 175.1 193.15 170.7 194.4 163.9 L194.6 161.35 194.95 161.25 194.6 161.3 194.5 159.75" fill="#525252" fill-rule="evenodd" stroke="none"/>
      <path d="M189.8 157.45 L189.7 157.95 189.15 158.55 189.1 158.35 189.55 157.7 189.8 157.45 M189.15 165.3 Q189.65 166.15 190.7 166.55 L191.8 165.0 193.15 162.35 193.45 161.75 194.2 160.05 194.5 159.75 194.6 161.3 194.6 161.35 194.4 163.9 Q193.15 170.7 191.3 175.1 187.7 183.5 181.7 183.55 177.25 183.5 174.3 175.45 L172.45 168.35 Q175.2 167.0 177.75 160.2 180.15 157.65 181.15 157.0 L182.95 157.5 Q183.8 157.85 183.8 159.5 183.8 161.1 181.15 163.5 178.5 165.85 178.5 167.1 178.5 170.25 180.65 176.65 185.35 173.7 187.85 168.85 188.7 167.05 189.15 165.3" fill="#565558" fill-rule="evenodd" stroke="none"/>
      <path d="M277.75 147.5 L281.6 150.3 282.3 150.8 285.0 152.55 Q287.15 153.8 288.25 153.85 L291.0 153.6 Q291.25 156.35 290.9 159.15 290.9 163.7 289.75 169.05 288.75 170.1 288.8 170.4 288.75 171.0 289.0 172.1 287.95 176.0 286.35 180.35 281.3 193.65 274.45 199.45 272.55 197.4 271.1 189.9 269.7 183.2 269.7 178.6 269.65 174.4 272.35 163.2 274.75 153.05 277.75 147.5" fill="#3d3d3d" fill-rule="evenodd" stroke="none"/>
      <path d="M-13.55 127.95 L-14.05 127.85 Q-13.6 121.95 -13.9 110.55 L-14.35 98.45 Q-14.55 90.55 -14.25 83.35 -14.1 77.65 -13.65 74.25 L-12.2 74.3 -9.55 74.0 Q-7.95 73.65 -6.45 72.85 L-0.9 69.8 Q8.2 65.25 26.25 65.3 L32.8 66.0 Q31.25 67.8 31.25 69.55 31.25 70.9 36.55 77.25 41.85 83.6 41.85 88.6 L41.55 91.1 40.8 95.0 Q39.75 100.3 39.75 102.95 L38.95 103.05 Q35.85 90.2 29.15 90.2 27.55 90.2 26.75 93.05 26.2 94.8 26.0 97.65 L25.95 107.55 Q25.95 111.05 26.85 118.7 L27.95 126.35 28.25 128.35 Q29.5 135.25 31.25 141.45 40.1 172.4 59.0 173.9 L55.15 187.95 Q51.25 202.5 51.25 204.3 51.25 205.35 52.1 207.35 53.2 210.05 54.95 210.05 57.6 210.05 57.35 209.0 57.7 199.35 60.85 187.4 L62.65 180.95 63.2 179.25 64.15 179.3 64.35 179.25 Q65.95 182.65 69.65 185.65 L76.7 191.1 79.5 193.45 82.8 196.5 83.3 197.0 83.8 197.55 85.35 199.15 85.1 199.45 83.45 198.7 83.15 198.6 78.55 196.45 78.25 196.3 78.1 196.1 73.85 193.1 72.1 192.0 71.8 192.25 71.25 192.65 69.8 191.85 67.4 190.35 Q64.8 188.8 64.65 188.85 L64.05 188.85 Q62.9 188.95 62.45 189.5 L62.0 190.15 62.0 195.7 Q63.2 197.4 65.65 202.6 68.4 208.45 68.4 210.05 68.35 211.35 67.3 212.65 66.25 213.85 66.25 215.2 L66.45 216.8 50.45 218.1 39.6 218.95 39.75 217.2 Q39.75 211.55 35.0 198.55 30.2 186.5 30.2 185.75 30.2 184.75 31.8 179.95 33.35 175.2 33.4 171.45 33.4 168.1 32.3 166.4 31.5 165.35 29.15 163.85 25.3 161.4 22.2 157.75 20.05 155.25 18.3 152.25 15.05 144.6 12.25 139.4 L12.25 139.0 Q14.35 138.9 14.85 138.45 L15.35 135.55 12.7 133.1 Q13.25 131.65 13.25 129.8 13.25 129.1 11.4 126.7 9.5 124.3 9.55 123.1 12.2 112.3 12.2 110.35 12.15 105.3 8.75 99.2 L6.95 96.45 Q2.05 90.2 -5.85 90.2 -7.4 90.2 -8.15 90.9 L-8.05 94.7 -7.95 99.35 Q-8.0 115.85 -8.2 125.2 L-9.05 125.2 Q-12.25 125.2 -13.55 127.95" fill="#4a4a4a" fill-rule="evenodd" stroke="none"/>
      <path d="M32.8 66.0 L38.65 67.3 43.8 68.75 Q55.0 72.15 57.6 72.2 60.85 72.2 62.55 70.35 64.3 68.45 66.55 68.45 69.15 68.45 71.45 75.5 72.6 79.2 75.2 91.0 77.6 101.9 79.3 106.5 81.15 111.35 83.25 112.9 L80.7 117.25 Q77.1 122.8 74.35 128.0 73.15 130.25 72.1 132.45 69.6 127.3 66.25 127.35 65.85 127.3 59.2 140.05 55.3 147.55 53.65 151.3 48.35 145.45 46.15 142.05 42.5 136.3 41.85 130.25 L41.2 119.1 Q40.6 112.3 39.75 107.2 L39.55 106.15 39.75 102.95 Q39.75 100.3 40.8 95.0 L41.55 91.1 41.85 88.6 Q41.85 83.6 36.55 77.25 31.25 70.9 31.25 69.55 31.25 67.8 32.8 66.0" fill="#4b4b4b" fill-rule="evenodd" stroke="none"/>
      <path d="M72.1 132.45 Q70.3 136.2 68.95 139.75 67.75 142.9 66.9 145.9 L62.85 160.05 62.2 162.55 59.0 173.9 Q40.1 172.4 31.25 141.45 29.5 135.25 28.25 128.35 L27.95 126.35 26.85 118.7 Q25.95 111.05 25.95 107.55 L26.0 97.65 Q26.2 94.8 26.75 93.05 27.55 90.2 29.15 90.2 35.85 90.2 38.95 103.05 L39.55 106.15 39.75 107.2 Q40.6 112.3 41.2 119.1 L41.85 130.25 Q42.5 136.3 46.15 142.05 48.35 145.45 53.65 151.3 55.3 147.55 59.2 140.05 65.85 127.3 66.25 127.35 69.6 127.3 72.1 132.45 M63.2 179.25 L63.7 177.6 65.7 170.95 67.8 164.0 68.4 162.0 Q71.55 155.95 71.55 153.85 L71.4 151.75 Q72.6 148.7 75.5 143.65 L76.75 141.5 80.75 133.85 81.1 133.0 81.2 134.25 Q81.55 137.05 83.25 142.45 83.95 144.9 85.7 145.7 86.7 146.25 89.4 146.4 95.2 146.65 97.9 150.65 99.85 153.45 109.9 159.0 119.3 164.15 120.2 166.55 L121.05 169.5 Q118.15 167.6 113.8 167.6 L110.9 168.15 Q110.65 169.75 110.65 172.15 L110.85 173.4 111.65 175.65 Q112.85 178.2 115.4 182.0 119.2 187.65 120.0 192.2 L120.2 194.4 Q120.15 198.5 118.6 204.8 118.25 206.0 118.05 207.15 117.0 211.75 117.0 214.65 117.0 216.45 119.05 218.9 L113.4 220.25 Q111.8 219.55 108.5 219.6 L95.25 220.65 82.45 219.9 82.1 219.8 82.15 219.6 83.0 219.0 84.9 217.35 85.6 218.0 88.35 218.5 Q91.0 218.5 91.55 217.2 L91.55 206.05 90.4 199.15 89.65 196.4 Q88.65 193.5 86.3 191.45 84.15 189.5 80.85 188.3 76.3 186.7 71.55 178.5 L68.8 173.95 Q66.0 178.95 64.35 179.25 L64.15 179.3 63.2 179.25" fill="#414141" fill-rule="evenodd" stroke="none"/>
      <path d="M-8.2 125.2 Q-8.0 115.85 -7.95 99.35 L-8.05 94.7 -8.15 90.9 Q-7.4 90.2 -5.85 90.2 2.05 90.2 6.95 96.45 L8.75 99.2 Q12.15 105.3 12.2 110.35 12.2 112.3 9.55 123.1 9.5 124.3 11.4 126.7 13.25 129.1 13.25 129.8 13.25 131.65 12.7 133.1 9.5 130.4 5.95 128.6 L4.75 127.35 4.45 127.95 Q0.0 125.95 -4.95 125.4 L-8.2 125.2 M-8.95 135.7 Q-8.8 132.8 -7.95 131.55 L-6.3 132.0 Q-2.8 133.0 1.0 134.75 L3.35 137.95 3.15 137.95 Q-4.1 137.9 -7.15 136.8 -8.2 136.4 -8.75 135.9 L-8.95 135.7" fill="#434343" fill-rule="evenodd" stroke="none"/>
      <path d="M-8.7 221.15 Q-12.5 217.75 -13.25 192.55 -13.3 181.8 -10.6 174.85 L-10.4 174.25 -10.6 173.25 -11.9 167.0 Q-14.35 154.15 -14.35 149.6 L-14.35 145.6 -13.7 144.2 Q-14.35 141.9 -14.35 138.05 L-14.25 130.5 -13.55 128.0 -13.55 127.95 Q-12.25 125.2 -9.05 125.2 L-8.2 125.2 -4.95 125.4 Q0.0 125.95 4.45 127.95 L5.95 128.6 Q9.5 130.4 12.7 133.1 L15.35 135.55 14.85 138.45 Q14.35 138.9 12.25 139.0 L12.0 139.0 12.25 139.4 Q15.05 144.6 18.3 152.25 20.05 155.25 22.2 157.75 25.3 161.4 29.15 163.85 31.5 165.35 32.3 166.4 33.4 168.1 33.4 171.45 33.35 175.2 31.8 179.95 30.2 184.75 30.2 185.75 30.2 186.5 35.0 198.55 39.75 211.55 39.75 217.2 L39.6 218.95 37.45 219.05 36.4 219.05 30.55 218.45 29.45 218.15 Q28.15 217.65 26.95 216.15 24.65 213.2 14.3 213.2 4.55 213.2 -2.15 216.15 L-3.2 216.65 -4.55 217.4 -4.8 216.95 -4.8 217.55 Q-7.85 219.3 -8.7 221.15 M-8.75 135.9 Q-8.2 136.4 -7.15 136.8 -4.1 137.9 3.15 137.95 L3.35 137.95 1.0 134.75 Q-2.8 133.0 -6.3 132.0 L-7.95 131.55 Q-8.8 132.8 -8.95 135.7 L-8.95 135.9 -8.75 135.9 M-7.25 184.15 L-7.45 185.5 -6.4 185.65 -7.25 184.15" fill="#494748" fill-rule="evenodd" stroke="none"/>
      <path d="M71.6 216.4 L71.05 216.4 66.45 216.8 66.25 215.2 Q66.25 213.85 67.3 212.65 68.35 211.35 68.4 210.05 68.4 208.45 65.65 202.6 63.2 197.4 62.0 195.7 L62.0 190.15 62.45 189.5 Q62.9 188.95 64.05 188.85 L64.65 188.85 Q64.8 188.8 67.4 190.35 L69.8 191.85 71.25 192.65 78.25 196.3 78.55 196.45 83.15 198.6 83.45 198.7 85.1 199.45 85.35 199.15 83.8 197.55 83.3 197.0 82.8 196.5 79.5 193.45 76.7 191.1 69.65 185.65 Q65.95 182.65 64.35 179.25 66.0 178.95 68.8 173.95 L71.55 178.5 Q76.3 186.7 80.85 188.3 84.15 189.5 86.3 191.45 88.65 193.5 89.65 196.4 L90.4 199.15 91.55 206.05 91.55 217.2 Q91.0 218.5 88.35 218.5 L85.6 218.0 85.9 216.45 86.35 213.2 86.4 211.65 Q86.4 208.85 82.35 205.3 L81.1 204.35 79.45 203.3 77.0 202.15 Q74.0 201.0 70.5 201.0 73.1 204.65 73.55 206.25 L73.7 210.15 Q73.65 213.5 73.4 214.1 L73.15 214.7 71.6 216.4" fill="#545454" fill-rule="evenodd" stroke="none"/>
      <path d="M81.35 219.55 Q80.45 219.2 80.25 218.7 79.8 217.4 79.05 217.1 L74.55 216.5 73.75 215.6 73.15 214.7 73.4 214.1 Q73.65 213.5 73.7 210.15 L73.55 206.25 Q73.1 204.65 70.5 201.0 74.0 201.0 77.0 202.15 L79.45 203.3 79.25 204.2 81.1 204.35 82.35 205.3 Q86.4 208.85 86.4 211.65 L86.35 213.2 85.9 216.45 84.9 217.35 83.0 219.0 82.15 219.6 81.35 219.55 M71.25 192.65 L71.8 192.25 72.1 192.0 73.85 193.1 78.1 196.1 78.25 196.3 71.25 192.65" fill="#4d4f4f" fill-rule="evenodd" stroke="none"/>
      <path d="M81.1 133.0 Q82.55 129.6 83.05 127.05 L83.1 126.7 83.6 119.45 Q83.85 115.9 84.95 113.55 L85.2 113.55 Q87.55 113.55 88.35 111.15 L87.8 109.95 Q94.5 104.5 113.7 104.55 L116.8 104.5 Q115.95 105.65 115.95 107.3 115.95 111.4 120.2 111.4 121.3 111.4 123.4 109.45 125.5 107.45 126.0 107.45 131.1 107.4 133.9 114.5 139.2 116.8 142.15 124.95 L142.25 125.2 Q143.65 129.2 144.25 132.85 L144.55 137.25 Q144.55 142.1 143.9 145.7 141.95 155.95 134.5 155.95 L134.3 155.8 133.75 155.25 133.95 156.2 Q134.95 159.8 136.45 163.7 138.5 169.05 141.5 175.0 L141.85 175.75 147.05 185.2 147.35 185.75 150.95 191.6 Q150.9 196.95 143.5 202.1 L143.2 202.25 Q136.55 206.85 131.3 206.85 127.55 206.85 125.5 201.4 124.3 198.4 123.65 193.8 L123.3 191.0 122.4 179.5 122.25 177.65 122.15 176.95 Q121.75 172.5 121.05 169.5 L120.2 166.55 Q119.3 164.15 109.9 159.0 99.85 153.45 97.9 150.65 95.2 146.65 89.4 146.4 86.7 146.25 85.7 145.7 83.95 144.9 83.25 142.45 81.55 137.05 81.2 134.25 L81.1 133.0 M136.35 125.45 L136.35 125.75 136.55 125.75 136.35 125.45" fill="#4c4c4c" fill-rule="evenodd" stroke="none"/>
      <path d="M323.95 262.65 L312.25 262.25 306.1 262.15 Q298.3 262.0 289.3 262.0 L264.4 261.9 Q243.3 261.75 234.8 261.3 229.2 261.0 227.35 260.3 226.55 259.95 226.45 259.6 226.05 258.45 220.9 257.8 L218.45 257.55 216.7 257.4 210.5 257.0 210.3 250.7 210.45 248.85 211.3 236.3 211.6 230.3 217.7 230.95 217.75 231.6 217.8 230.95 222.0 231.45 226.55 231.95 229.4 232.3 230.7 232.25 258.05 230.0 262.15 229.65 262.65 229.65 270.5 230.1 274.95 230.65 275.0 231.5 275.15 230.7 277.35 231.05 286.65 232.85 291.85 234.05 298.35 235.75 306.75 238.2 312.7 239.95 317.5 241.25 Q317.8 242.3 317.75 243.55 L318.55 243.45 Q318.85 247.25 321.4 255.3 322.9 260.15 323.95 262.65 M161.8 255.55 L156.7 255.35 Q138.75 254.55 125.6 251.45 128.4 250.85 130.15 249.9 132.6 248.55 134.9 244.25 L135.65 243.1 Q137.75 240.0 141.45 238.55 146.4 236.65 156.2 236.15 L156.25 236.55 158.9 237.1 160.1 246.95 160.2 247.8 Q160.8 252.3 161.8 255.55 M186.35 231.2 Q190.45 230.15 197.0 229.8 L200.75 229.7 200.75 230.0 200.4 231.3 197.0 241.75 Q193.2 252.45 191.75 252.45 188.65 252.45 187.05 243.8 L185.95 234.8 185.95 234.15 Q186.0 232.6 186.35 231.2" fill="#313333" fill-rule="evenodd" stroke="none"/>
      <path d="M-12.05 298.25 L-12.2 295.95 Q-12.25 290.45 -10.0 284.2 -9.15 281.75 -7.9 279.25 -5.7 274.45 -2.8 271.45 0.65 267.85 4.95 266.75 L9.0 266.25 10.1 266.35 13.2 267.15 14.5 267.55 Q18.65 268.9 20.0 268.9 21.95 268.9 42.1 264.9 L52.25 262.95 57.35 262.05 58.8 261.8 65.75 260.95 70.05 261.15 Q75.5 261.65 79.7 263.6 88.65 267.6 92.1 277.9 93.1 281.0 93.6 284.15 L93.65 284.5 Q94.2 288.3 94.0 292.3 L93.65 295.75 93.65 296.4 Q92.7 295.9 91.55 295.95 90.15 295.9 88.25 296.75 87.9 296.85 87.6 297.05 L82.8 299.55 Q75.2 303.1 65.45 303.1 65.1 303.1 63.05 301.65 61.0 300.15 57.25 300.15 41.9 300.15 35.0 306.55 30.7 310.4 30.25 315.6 L30.2 316.85 Q30.2 317.6 31.55 320.3 25.0 320.25 18.8 318.5 6.3 314.95 5.55 306.0 -3.05 305.7 -7.4 304.0 -9.5 303.15 -10.6 302.05 -11.75 300.9 -12.05 298.25 M36.55 317.15 L36.0 318.0 35.85 316.95 36.55 317.15" fill="#737981" fill-rule="evenodd" stroke="none"/>
      <path d="M93.65 296.4 Q94.15 296.65 94.65 297.05 95.7 297.95 95.8 298.6 L101.65 298.0 Q109.5 297.4 118.6 298.05 121.25 298.15 121.25 303.35 L121.2 303.9 Q120.85 305.55 118.6 309.35 L117.5 311.1 116.0 313.2 Q116.75 314.5 118.05 315.55 118.8 316.15 120.65 319.75 122.0 322.15 124.95 322.45 L142.45 322.95 143.8 324.3 Q145.35 325.85 145.65 328.25 146.3 329.15 149.65 331.5 151.4 332.7 151.85 334.2 143.1 337.8 129.6 337.8 123.5 337.8 119.95 334.9 116.4 331.95 108.0 332.0 L103.15 332.15 103.2 332.0 102.85 328.85 102.15 326.5 101.3 325.0 Q99.7 322.75 96.65 321.6 93.2 320.3 87.85 320.3 78.5 320.3 69.15 324.8 L62.5 327.9 Q59.0 329.25 55.8 329.35 L55.5 329.35 Q52.75 329.3 48.85 326.4 44.95 323.5 42.95 323.5 L37.85 324.0 Q35.4 324.5 33.35 325.6 L33.4 325.2 Q33.35 324.0 31.8 320.85 L31.55 320.3 Q30.2 317.6 30.2 316.85 L30.25 315.6 Q30.7 310.4 35.0 306.55 41.9 300.15 57.25 300.15 61.0 300.15 63.05 301.65 65.1 303.1 65.45 303.1 75.2 303.1 82.8 299.55 L87.6 297.05 Q87.9 296.85 88.25 296.75 90.15 295.9 91.55 295.95 92.7 295.9 93.65 296.4 M36.55 317.15 L35.85 316.95 36.0 318.0 36.55 317.15 M33.25 333.85 Q35.3 331.25 38.45 330.25 37.65 332.1 33.9 334.1 L33.25 333.85" fill="#665e62" fill-rule="evenodd" stroke="none"/>
      <path d="M166.95 316.8 L164.7 317.15 Q160.45 317.1 160.3 315.1 L160.25 313.4 Q160.1 312.5 159.15 312.1 L148.7 311.35 Q139.7 311.2 138.45 310.5 138.2 311.55 138.2 309.0 L138.2 308.9 Q138.2 308.05 138.75 306.65 139.7 304.0 142.5 299.45 145.85 293.85 148.45 292.3 L150.7 291.7 Q152.35 291.7 152.75 292.15 L152.45 291.2 160.5 288.75 172.2 284.9 Q176.35 283.35 176.4 282.95 176.35 281.4 176.1 281.05 L175.85 280.55 173.65 280.1 Q174.5 278.7 175.85 277.9 179.0 279.65 178.45 282.3 177.4 287.35 177.45 287.95 188.55 286.55 194.7 288.7 197.65 289.75 199.45 291.7 L200.4 292.95 Q201.5 294.85 201.75 297.85 L201.85 299.65 201.7 301.7 201.3 303.7 194.95 303.35 193.45 303.4 190.2 303.55 Q185.6 303.85 181.4 304.9 177.15 305.9 173.25 307.6 168.35 309.7 166.3 311.6 L166.1 311.35 166.25 311.6 Q164.7 312.95 164.7 314.2 164.7 316.85 165.0 315.8 165.5 316.3 166.95 316.8 M196.75 309.35 L194.4 309.7 191.3 309.2 196.75 309.35" fill="#726c6b" fill-rule="evenodd" stroke="none"/>
      <path d="M4.95 266.75 Q2.8 265.6 3.7 262.35 3.7 260.75 6.3 256.3 L6.95 255.3 Q9.5 251.05 13.0 246.9 23.5 234.4 32.35 234.45 L36.7 234.65 Q48.7 236.0 54.65 245.05 58.85 251.45 58.85 257.75 L58.55 260.95 Q58.75 261.7 57.35 261.95 L57.35 262.05 52.25 262.95 42.1 264.9 Q21.95 268.9 20.0 268.9 18.65 268.9 14.5 267.55 L13.2 267.15 10.1 266.35 9.0 266.25 4.95 266.75" fill="#534e56" fill-rule="evenodd" stroke="none"/>
      <path d="M33.35 325.6 Q35.4 324.5 37.85 324.0 L42.95 323.5 Q44.95 323.5 48.85 326.4 52.75 329.3 55.5 329.35 L55.8 329.35 Q59.0 329.25 62.5 327.9 L69.15 324.8 Q78.5 320.3 87.85 320.3 93.2 320.3 96.65 321.6 99.7 322.75 101.3 325.0 L102.15 326.5 102.85 328.85 103.2 332.0 103.15 332.15 98.0 332.7 96.25 333.1 Q95.1 333.35 93.3 334.05 L93.1 334.1 Q91.25 334.75 88.75 335.8 77.45 340.5 58.3 342.6 55.6 342.85 53.35 343.8 49.3 345.5 46.8 349.35 45.2 351.8 44.5 354.35 36.75 352.1 31.95 350.15 23.85 346.9 23.85 344.45 23.85 337.1 27.05 331.7 29.45 327.65 33.35 325.6 M33.25 333.85 L33.9 334.1 Q37.65 332.1 38.45 330.25 35.3 331.25 33.25 333.85 M96.25 330.0 L96.1 329.65 95.1 330.05 95.8 330.9 96.55 330.5 96.25 330.0" fill="#66675b" fill-rule="evenodd" stroke="none"/>
      <path d="M121.2 303.9 L121.4 304.05 Q121.9 304.55 121.7 305.9 121.2 308.7 122.0 310.55 L122.85 311.85 Q127.05 316.4 130.45 317.0 132.6 317.4 135.55 315.95 138.55 314.5 140.1 314.75 142.85 315.1 146.15 319.25 149.65 323.65 155.4 328.3 156.5 329.25 157.0 331.5 L155.8 332.25 151.85 334.2 Q151.4 332.7 149.65 331.5 146.3 329.15 145.65 328.25 145.35 325.85 143.8 324.3 L142.45 322.95 124.95 322.45 Q122.0 322.15 120.65 319.75 118.8 316.15 118.05 315.55 116.75 314.5 116.0 313.2 L117.5 311.1 118.6 309.35 Q120.85 305.55 121.2 303.9" fill="#5e6064" fill-rule="evenodd" stroke="none"/>
      <path d="M135.55 350.55 L135.8 351.0 Q136.05 351.35 136.1 352.9 136.1 355.2 135.0 358.4 L133.95 360.9 133.95 361.4 Q139.4 361.85 147.5 370.25 L146.5 371.35 Q144.8 373.35 143.85 375.4 143.0 377.1 142.65 378.8 L141.6 379.15 138.2 379.7 136.75 379.15 128.4 375.7 Q124.05 375.7 118.35 378.25 L116.1 379.15 Q111.75 380.75 108.5 380.75 106.05 380.75 103.85 379.15 101.6 377.55 99.55 374.35 97.55 371.05 96.6 368.0 96.0 366.1 95.8 364.3 96.55 363.5 97.65 363.15 L97.55 362.8 123.45 353.9 129.9 351.65 133.95 350.2 135.55 350.55" fill="#554d3d" fill-rule="evenodd" stroke="none"/>
      <path d="M147.5 370.25 Q149.85 367.65 153.3 365.1 165.2 356.35 180.1 356.35 L191.75 356.9 Q191.75 357.7 192.3 360.1 192.25 362.7 188.0 363.2 L188.1 363.85 189.65 363.8 Q190.05 363.8 191.4 364.55 185.6 368.4 179.9 374.7 L179.1 375.6 169.9 377.55 Q167.1 378.25 165.15 379.15 163.6 379.9 162.6 380.75 152.1 389.65 141.9 393.35 139.25 390.9 139.25 390.05 139.25 389.6 144.3 386.15 142.45 383.7 142.45 381.0 142.45 380.05 142.6 379.15 L142.65 378.8 Q143.0 377.1 143.85 375.4 144.8 373.35 146.5 371.35 L147.5 370.25" fill="#787370" fill-rule="evenodd" stroke="none"/>
      <path d="M253.15 267.95 L295.0 269.65 299.15 269.8 299.4 271.25 Q299.4 273.9 296.2 279.25 L296.2 279.75 Q303.3 278.75 305.2 283.65 L305.35 284.05 Q305.8 285.45 305.9 287.05 L305.85 288.5 305.75 289.3 Q305.75 293.15 304.75 296.5 L304.1 298.25 303.45 298.5 302.05 299.1 Q300.1 300.0 298.8 300.8 L298.35 300.7 298.25 300.65 299.4 299.1 299.0 298.55 297.9 297.3 Q296.65 296.05 295.4 295.8 294.25 295.55 291.7 296.4 286.3 298.15 281.9 293.8 280.7 292.65 280.4 291.15 L279.85 289.15 Q279.55 288.8 278.9 288.5 276.45 287.45 268.65 287.45 L266.3 287.5 260.1 288.25 261.95 286.25 262.15 285.2 262.3 282.65 Q262.25 279.5 261.45 277.9 260.05 275.35 255.4 272.6 253.3 271.3 253.15 267.95" fill="#73727b" fill-rule="evenodd" stroke="none"/>
      <path d="M241.4 308.45 Q241.8 306.15 242.7 303.15 243.85 299.3 245.35 297.0 L246.4 295.65 246.35 295.95 Q246.35 296.45 249.6 300.35 L250.55 301.5 Q253.0 304.45 254.05 305.2 255.55 306.2 256.2 308.25 L256.9 311.85 Q257.7 315.0 260.9 315.8 L263.35 316.1 Q268.15 316.05 274.15 314.2 277.55 313.1 281.35 311.4 281.15 314.95 277.25 319.5 L276.4 320.5 275.55 321.4 Q272.45 324.5 269.45 326.1 266.35 327.7 263.35 327.75 L260.7 327.4 259.8 327.95 258.4 328.85 Q256.2 330.3 254.65 331.75 L253.2 333.25 Q250.35 334.65 242.0 334.65 232.15 334.6 231.2 332.25 L230.85 330.6 Q230.55 330.1 229.6 329.95 L232.6 326.35 Q237.9 319.6 237.9 316.45 L238.3 315.55 241.6 314.75 Q241.05 313.55 241.05 311.85 241.05 310.4 241.4 308.55 L241.4 308.45 M260.9 315.8 L260.8 316.2 260.9 315.8 M275.4 306.3 L277.35 304.5 278.15 305.35 275.4 306.3 M251.0 312.8 L250.9 312.4 250.25 312.6 251.0 312.8" fill="#545656" fill-rule="evenodd" stroke="none"/>
      <path d="M179.15 263.75 L194.5 264.85 195.05 264.85 216.45 266.15 221.6 266.4 222.0 268.35 221.35 269.15 214.8 277.4 Q205.35 289.05 200.4 292.95 L199.45 291.7 Q197.65 289.75 194.7 288.7 188.55 286.55 177.45 287.95 177.4 287.35 178.45 282.3 179.0 279.65 175.85 277.9 174.5 278.7 173.65 280.1 L173.2 280.0 Q169.05 280.0 166.35 278.2 L165.3 277.35 Q163.1 275.35 160.0 274.9 161.7 272.0 168.75 268.1 173.15 265.65 177.8 264.15 L179.15 263.75" fill="#7b7e7d" fill-rule="evenodd" stroke="none"/>
      <path d="M251.1 340.0 L242.15 340.45 Q231.15 340.45 227.05 336.5 226.05 335.55 225.55 334.4 L227.05 332.8 229.6 329.95 Q230.55 330.1 230.85 330.6 L231.2 332.25 Q232.15 334.6 242.0 334.65 250.35 334.65 253.2 333.25 250.6 336.25 250.6 339.25 L251.1 340.0 M241.4 308.45 L241.4 308.55 Q241.05 310.4 241.05 311.85 241.05 313.55 241.6 314.75 L238.3 315.55 Q238.85 314.1 237.95 312.9 236.85 311.35 233.45 310.55 L235.15 310.1 241.3 308.5 241.4 308.45 M257.7 338.1 L259.6 335.55 Q259.05 337.05 258.1 337.8 L257.7 338.1" fill="#6f7475" fill-rule="evenodd" stroke="none"/>
      <path d="M225.55 334.4 Q216.15 344.3 211.7 344.7 L211.4 344.7 209.95 343.85 Q199.9 337.65 193.3 334.15 186.05 330.25 183.0 329.6 182.75 330.65 182.75 328.0 182.75 326.65 185.45 325.6 L185.55 325.6 188.05 325.6 192.7 325.15 203.7 323.5 Q205.0 323.5 205.45 324.55 205.8 325.6 207.15 325.6 210.35 325.6 212.15 320.85 213.2 318.05 213.45 315.25 L213.5 313.7 Q213.5 311.95 213.0 310.55 213.2 310.3 213.55 310.25 L223.55 309.7 Q229.8 309.7 233.45 310.55 236.85 311.35 237.95 312.9 238.85 314.1 238.3 315.55 L237.9 316.45 Q237.9 319.6 232.6 326.35 L229.6 329.95 227.05 332.8 225.55 334.4" fill="#808284" fill-rule="evenodd" stroke="none"/>
      <path d="M306.05 332.85 L303.15 335.15 300.5 337.15 Q284.3 348.95 272.35 348.95 263.0 348.95 255.9 344.2 253.6 342.7 251.95 340.9 L251.1 340.0 250.6 339.25 Q250.6 336.25 253.2 333.25 L254.65 331.75 Q256.2 330.3 258.4 328.85 L259.8 327.95 260.7 327.4 263.35 327.75 Q266.35 327.7 269.45 326.1 272.45 324.5 275.55 321.4 L276.4 320.5 280.5 319.3 Q289.05 317.15 297.8 317.15 311.8 317.1 315.9 318.25 318.35 318.9 318.5 320.9 L318.5 321.1 315.95 323.85 315.6 324.2 315.0 324.8 312.65 327.1 306.05 332.85 M257.7 338.1 L258.1 337.8 Q259.05 337.05 259.6 335.55 L257.7 338.1" fill="#625f66" fill-rule="evenodd" stroke="none"/>
      <path d="M447.85 246.45 Q447.8 248.95 443.05 250.5 L438.4 252.8 434.55 254.55 Q427.2 257.7 417.7 260.95 398.2 267.45 382.8 269.95 373.15 271.5 365.15 271.55 L348.15 271.25 340.1 271.05 318.15 270.45 299.15 269.8 295.0 269.65 253.15 267.95 247.4 267.7 227.85 266.75 227.3 266.7 225.0 266.6 221.6 266.4 216.45 266.15 195.05 264.85 194.5 264.85 179.15 263.75 Q121.9 259.6 105.55 254.45 102.15 253.4 100.5 252.3 98.95 251.25 99.0 250.15 98.95 248.1 99.3 247.7 99.7 247.15 101.65 247.15 L101.8 247.15 107.35 247.45 107.5 247.45 107.5 247.4 107.45 247.15 Q113.2 245.0 113.05 246.9 120.7 246.9 125.2 245.0 127.5 244.0 129.65 242.05 L131.15 240.6 Q134.65 236.85 136.2 235.85 139.8 233.45 145.65 232.85 169.55 230.15 175.8 228.55 L177.7 228.05 187.15 225.6 192.8 224.35 203.95 223.8 227.1 226.2 229.3 226.45 262.3 223.8 Q274.5 223.8 291.6 228.05 L298.8 229.9 312.85 234.1 Q319.1 236.0 320.5 236.0 323.15 236.0 337.05 233.35 345.85 233.35 350.65 235.1 352.85 235.9 357.35 238.95 361.2 241.55 365.9 242.75 L369.05 243.4 376.8 244.25 382.2 244.45 385.2 244.5 388.35 244.0 387.65 243.7 Q387.4 244.7 387.4 242.3 L387.4 242.1 Q387.4 240.35 389.05 239.95 L392.7 239.75 392.8 239.75 Q400.85 239.75 412.25 243.15 423.7 246.6 426.55 246.6 L444.15 243.95 447.3 244.5 447.6 244.75 447.85 246.45 M353.15 265.1 L358.7 265.5 365.05 265.7 379.85 265.1 388.5 264.1 393.2 263.35 Q406.8 261.0 419.15 256.25 L425.85 253.5 425.55 252.4 407.6 249.0 400.5 247.4 397.25 248.5 396.9 248.6 392.0 249.65 384.75 250.35 374.0 249.25 371.5 248.75 371.4 248.7 Q365.3 247.3 358.55 244.75 L354.35 243.25 350.3 241.85 Q341.75 239.15 336.95 239.2 L323.65 241.6 321.15 241.85 318.65 241.5 318.55 241.5 317.5 241.25 312.7 239.95 306.75 238.2 298.35 235.75 291.85 234.05 286.65 232.85 277.35 231.05 275.15 230.7 274.95 230.65 270.5 230.1 262.65 229.65 262.15 229.65 258.05 230.0 230.7 232.25 229.4 232.3 226.55 231.95 222.0 231.45 217.8 230.95 217.7 230.95 211.6 230.3 204.4 229.65 200.75 229.7 197.0 229.8 Q190.45 230.15 186.35 231.2 184.6 231.6 183.3 232.2 L182.0 232.85 Q179.2 234.45 176.85 235.0 172.6 236.0 163.55 236.0 L158.9 236.05 158.85 236.05 156.2 236.15 Q146.4 236.65 141.45 238.55 137.75 240.0 135.65 243.1 L134.9 244.25 Q132.6 248.55 130.15 249.9 128.4 250.85 125.6 251.45 138.75 254.55 156.7 255.35 L161.8 255.55 165.25 255.65 183.75 256.0 210.5 257.0 216.7 257.4 218.45 257.55 220.9 257.8 Q226.05 258.45 226.45 259.6 226.55 259.95 227.35 260.3 229.2 261.0 234.8 261.3 243.3 261.75 264.4 261.9 L289.3 262.0 Q298.3 262.0 306.1 262.15 L312.25 262.25 323.95 262.65 328.0 262.85 340.8 263.85 353.15 265.1" fill="#262626" fill-rule="evenodd" stroke="none"/>
    </g>
    <linearGradient gradientTransform="matrix(0.0, 0.0799, -0.099, 0.0, 271.5, 78.1)" gradientUnits="userSpaceOnUse" id="gradient0" spreadMethod="pad" x1="-819.2" x2="819.2">
      <stop offset="0.0" stop-color="#565654"/>
      <stop offset="1.0" stop-color="#a2a2a2"/>
    </linearGradient>
  </defs>
</svg>
