<?xml version="1.0" encoding="UTF-8" standalone="no"?>
<svg xmlns:xlink="http://www.w3.org/1999/xlink" height="842.55px" width="1337.95px" xmlns="http://www.w3.org/2000/svg">
  <g transform="matrix(1, 0, 0, 1, 407.45, 285.05)">
    <use height="4.5" transform="matrix(5.4867, 0.0, 0.0, 81.5667, 3.2875, 23.0167)" width="99.75" xlink:href="#shape0"/>
    <use height="825.0" transform="matrix(1.0, 0.0, 0.0, 1.0, -96.4, -274.05)" width="750.0" xlink:href="#sprite0"/>
  </g>
  <defs>
    <g id="shape0" transform="matrix(1, 0, 0, 1, 49.85, -2.5)">
      <path d="M49.9 7.0 L-49.85 7.0 -49.85 2.5 49.9 2.5 49.9 7.0" fill="#ffffff" fill-rule="evenodd" stroke="none"/>
    </g>
    <g id="sprite0" transform="matrix(1, 0, 0, 1, 375.0, 475.5)">
      <use height="400.0" transform="matrix(1.0, 0.0, 0.0, 1.0, -375.0, -200.0)" width="750.0" xlink:href="#shape1"/>
      <use height="255.0" transform="matrix(1.4286, 0.0, 0.0, 1.0, -310.7148, 94.5)" width="435.0" xlink:href="#sprite1"/>
      <use height="76.5" transform="matrix(7.8431, 0.0, 0.0, 2.8876, -301.0001, 48.9497)" width="76.5" xlink:href="#shape3"/>
      <use height="610.0" transform="matrix(1.0, 0.0, 0.0, 0.3562, -305.05, 51.3586)" width="610.0" xlink:href="#sprite2"/>
    </g>
    <g id="shape1" transform="matrix(1, 0, 0, 1, 375.0, 200.0)">
      <path d="M375.0 -200.0 L375.0 200.0 -375.0 200.0 -375.0 -200.0 375.0 -200.0" fill="url(#gradient0)" fill-rule="evenodd" stroke="none"/>
    </g>
    <linearGradient gradientTransform="matrix(0.0, 0.2428, -0.3329, 0.0, 0.0, 0.0)" gradientUnits="userSpaceOnUse" id="gradient0" spreadMethod="pad" x1="-819.2" x2="819.2">
      <stop offset="0.0" stop-color="#4b3501"/>
      <stop offset="1.0" stop-color="#110c00"/>
    </linearGradient>
    <g id="sprite1" transform="matrix(1, 0, 0, 1, 217.5, 127.5)">
      <use height="255.0" transform="matrix(1.0, 0.0, 0.0, 1.0, -217.5, -127.5)" width="435.0" xlink:href="#shape2"/>
    </g>
    <g id="shape2" transform="matrix(1, 0, 0, 1, 217.5, 127.5)">
      <path d="M90.0 -80.0 L90.0 20.0 M150.0 -100.0 L150.0 0.0 M210.0 -120.0 L210.0 -20.0 M-210.0 20.0 L-210.0 120.0 M-150.0 0.0 L-150.0 100.0 M-90.0 -20.0 L-90.0 80.0 M-30.0 -40.0 L-30.0 60.0 M30.0 -60.0 L30.0 40.0" fill="none" stroke="#44ff69" stroke-linecap="round" stroke-linejoin="round" stroke-width="15.0"/>
    </g>
    <g id="shape3" transform="matrix(1, 0, 0, 1, 38.25, 38.25)">
      <path d="M27.05 -27.05 Q38.25 -15.85 38.25 0.0 38.25 15.85 27.05 27.05 15.85 38.25 0.0 38.25 -15.85 38.25 -27.05 27.05 -38.25 15.85 -38.25 0.0 -38.25 -15.85 -27.05 -27.05 -15.85 -38.25 0.0 -38.25 15.85 -38.25 27.05 -27.05" fill="#000000" fill-rule="evenodd" stroke="none"/>
    </g>
    <g id="sprite2" transform="matrix(1, 0, 0, 1, 305.0, 305.0)">
      <use height="610.0" transform="matrix(1.0, 0.0, 0.0, 1.0, -305.0, -305.0)" width="610.0" xlink:href="#shape4"/>
    </g>
    <g id="shape4" transform="matrix(1, 0, 0, 1, 305.0, 305.0)">
      <path d="M0.35 -99.95 L-1.45 -99.95 -6.15 -99.75 0.05 -99.95 0.35 -99.95 1.55 -99.95 Q14.35 -99.8 26.0 -96.75 14.35 -99.8 1.55 -99.95 L0.35 -99.95 M6.25 99.9 Q16.6 99.0 25.3 94.3 29.05 92.25 32.45 89.5 L36.95 85.5 Q51.05 71.3 51.55 51.55 L51.55 50.1 Q51.55 29.35 36.95 14.8 L34.75 12.65 Q31.5 9.75 28.0 7.55 16.3 0.1 1.55 0.1 L0.1 0.05 0.0 0.05 -0.1 0.05 -1.45 0.05 Q-16.2 0.0 -27.9 -7.4 -31.3 -9.6 -34.45 -12.4 L-36.85 -14.65 Q-51.45 -29.25 -51.45 -49.95 L-51.4 -51.4 Q-50.95 -71.2 -36.85 -85.4 -34.7 -87.55 -32.35 -89.4 -28.9 -92.15 -25.15 -94.2 -16.45 -98.9 -6.15 -99.75 -16.4 -99.2 -25.85 -96.75 L-63.3 -236.6 Q3.9 -219.3 63.5 -236.55 L26.0 -96.75 34.25 -94.25 Q54.4 -87.0 70.75 -70.65 87.15 -54.25 94.35 -34.1 L96.9 -25.85 Q100.05 -13.55 100.05 0.05 100.05 13.65 96.9 26.0 100.05 13.65 100.05 0.05 100.05 -13.55 96.9 -25.85 L236.7 -63.35 Q216.55 -9.7 231.45 46.6 233.7 55.0 236.7 63.45 L96.9 26.0 94.35 34.25 Q87.1 54.4 70.75 70.75 54.35 87.1 34.2 94.35 L26.0 96.9 Q16.5 99.3 6.25 99.9 16.5 99.3 26.0 96.9 L63.5 236.7 Q0.05 215.2 -63.35 236.7 L-25.85 96.9 Q-14.25 99.9 -1.45 100.05 L-0.2 100.05 1.55 100.1 6.25 99.9 M6.75 -54.2 Q4.0 -56.95 0.05 -56.95 -3.85 -56.95 -6.65 -54.2 -9.45 -51.4 -9.45 -47.45 -9.45 -43.55 -6.65 -40.75 -3.85 -37.95 0.05 -37.95 4.0 -37.95 6.75 -40.75 9.55 -43.55 9.55 -47.45 9.55 -51.4 6.75 -54.2 M6.75 45.8 Q9.55 48.6 9.55 52.55 9.55 56.45 6.75 59.25 4.0 62.05 0.05 62.05 -3.85 62.05 -6.65 59.25 -9.45 56.45 -9.45 52.55 -9.45 48.6 -6.65 45.8 -3.85 43.05 0.05 43.05 4.0 43.05 6.75 45.8 M-96.75 26.0 L-236.6 63.5 Q-234.2 53.75 -232.5 44.0 -223.3 -9.7 -236.6 -63.35 L-96.75 -25.9 Q-99.95 -13.6 -99.95 0.05 -99.95 13.7 -96.75 26.0" fill="#ffffff" fill-rule="evenodd" stroke="none"/>
      <path d="M0.1 0.05 L0.1 0.1 0.1 0.05" fill="#006699" fill-rule="evenodd" stroke="none"/>
      <path d="M0.35 -99.95 L-1.45 -99.95 -6.15 -99.75 0.05 -99.95 0.35 -99.95 1.55 -99.95 Q14.35 -99.8 26.0 -96.75 L63.5 -236.55 Q3.9 -219.3 -63.3 -236.6 L-25.85 -96.75 Q-16.4 -99.2 -6.15 -99.75 -16.45 -98.9 -25.15 -94.2 -28.9 -92.15 -32.35 -89.4 -34.7 -87.55 -36.85 -85.4 -50.95 -71.2 -51.4 -51.4 L-51.45 -49.95 Q-51.45 -29.25 -36.85 -14.65 L-34.45 -12.4 Q-31.3 -9.6 -27.9 -7.4 -16.2 0.0 -1.45 0.05 L-0.1 0.05 0.0 0.05 0.1 0.05 1.55 0.1 Q16.3 0.1 28.0 7.55 31.5 9.75 34.75 12.65 L36.95 14.8 Q51.55 29.35 51.55 50.1 L51.55 51.55 Q51.05 71.3 36.95 85.5 L32.45 89.5 Q29.05 92.25 25.3 94.3 16.6 99.0 6.25 99.9 16.5 99.3 26.0 96.9 L34.2 94.35 Q54.35 87.1 70.75 70.75 87.1 54.4 94.35 34.25 L96.9 26.0 Q100.05 13.65 100.05 0.05 100.05 -13.55 96.9 -25.85 L94.35 -34.1 Q87.15 -54.25 70.75 -70.65 54.4 -87.0 34.25 -94.25 L26.0 -96.75 M250.0 -3.55 L250.05 0.05 Q250.0 52.15 231.45 96.55 L230.7 98.4 225.2 110.35 Q207.35 146.2 176.8 176.8 141.2 212.4 98.45 230.7 76.3 240.15 52.3 245.0 27.2 250.0 0.05 250.05 L-3.55 250.0 Q-28.8 249.7 -52.15 245.0 -122.7 230.8 -176.75 176.8 -207.3 146.2 -225.1 110.35 -229.15 102.25 -232.5 93.95 -250.0 50.6 -249.95 0.05 -250.0 -103.5 -176.75 -176.75 -103.5 -250.0 0.05 -249.95 103.55 -250.0 176.8 -176.75 248.75 -104.8 250.0 -3.55 M96.9 -25.85 L236.7 -63.35 Q216.55 -9.7 231.45 46.6 233.7 55.0 236.7 63.45 L96.9 26.0 M-0.2 100.05 L0.05 100.05 6.25 99.9 1.55 100.1 -0.2 100.05 -1.45 100.05 Q-14.25 99.9 -25.85 96.9 L-63.35 236.7 Q0.05 215.2 63.5 236.7 L26.0 96.9 M-96.75 -25.9 Q-95.7 -30.05 -94.25 -34.05 -87.05 -54.25 -70.65 -70.65 -54.3 -87.05 -34.1 -94.25 -30.05 -95.7 -25.85 -96.75 M-96.75 26.0 L-236.6 63.5 Q-234.2 53.75 -232.5 44.0 -223.3 -9.7 -236.6 -63.35 L-96.75 -25.9 Q-99.95 -13.6 -99.95 0.05 -99.95 13.7 -96.75 26.0 -95.7 30.2 -94.25 34.25 -87.0 54.35 -70.65 70.75 -54.25 87.15 -34.05 94.35 -30.05 95.8 -25.85 96.9" fill="none" stroke="#ffffff" stroke-linecap="round" stroke-linejoin="round" stroke-width="4.0"/>
      <path d="M71.25 -200.45 L72.8 -200.5 Q115.65 -185.25 150.5 -150.4 L150.55 -150.35 Q185.3 -115.55 200.7 -72.55 200.95 -71.8 200.6 -71.05 200.25 -70.3 199.5 -70.0 L170.7 -59.6 170.55 -59.55 142.3 -49.35 142.2 -49.3 103.4 -35.2 101.85 -35.3 Q101.1 -35.65 100.85 -36.4 93.1 -57.95 75.6 -75.45 58.1 -92.95 36.65 -100.65 35.85 -100.95 35.5 -101.7 35.15 -102.45 35.45 -103.2 L49.45 -142.0 49.5 -142.1 59.8 -170.45 59.85 -170.55 70.25 -199.3 Q70.5 -200.1 71.25 -200.45 M-72.6 -200.5 L-71.1 -200.45 Q-70.35 -200.1 -70.05 -199.3 L-59.65 -170.55 -59.6 -170.4 -49.3 -142.05 -49.3 -142.0 -35.25 -103.2 Q-35.0 -102.45 -35.35 -101.7 -35.7 -100.95 -36.45 -100.65 -57.95 -92.95 -75.5 -75.45 L-75.45 -75.45 Q-93.0 -57.95 -100.65 -36.4 -100.95 -35.65 -101.7 -35.3 L-103.2 -35.2 -142.0 -49.25 -142.15 -49.3 -170.4 -59.55 -170.5 -59.6 -199.35 -70.0 Q-200.15 -70.3 -200.5 -71.05 -200.85 -71.8 -200.55 -72.55 -185.25 -115.5 -150.45 -150.4 L-150.4 -150.45 Q-115.5 -185.25 -72.6 -200.5 M126.05 -125.85 L126.0 -125.9 Q97.6 -154.3 62.85 -167.25 L53.9 -142.6 Q83.4 -131.6 107.55 -107.45 L107.6 -107.4 Q131.7 -83.3 142.75 -53.75 L167.35 -62.65 Q154.4 -97.45 126.05 -125.85 M104.75 -104.55 L104.7 -104.6 Q81.2 -128.1 52.55 -138.85 L39.85 -103.7 Q61.05 -95.7 78.45 -78.3 95.85 -60.9 103.9 -39.65 L139.0 -52.4 Q128.2 -81.1 104.75 -104.55 M147.7 -147.5 L147.65 -147.55 Q114.2 -181.0 73.3 -196.1 L64.2 -171.0 Q99.8 -157.8 128.85 -128.75 L128.9 -128.7 Q157.9 -99.65 171.1 -64.0 L196.25 -73.1 Q181.05 -114.1 147.7 -147.5 M142.3 49.55 L170.55 59.75 170.6 59.8 199.4 70.25 Q200.15 70.5 200.5 71.25 200.85 72.0 200.6 72.8 185.25 115.6 150.5 150.4 L150.4 150.45 Q115.55 185.25 72.75 200.6 L71.2 200.5 Q70.45 200.15 70.2 199.4 L59.75 170.6 59.7 170.5 49.45 142.25 49.4 142.15 35.4 103.4 Q35.1 102.6 35.45 101.85 35.8 101.1 36.6 100.85 57.9 93.1 75.3 75.9 L75.6 75.55 Q93.05 58.05 100.85 36.65 101.1 35.85 101.85 35.5 L103.4 35.45 142.15 49.45 142.3 49.55 M127.35 130.25 Q98.9 158.15 64.15 171.05 L73.25 196.15 Q113.3 181.3 146.15 149.0 L127.35 130.25 M52.5 138.95 Q80.35 128.45 103.25 106.1 L77.0 79.85 Q60.15 96.1 39.8 103.9 L52.5 138.95 M124.5 127.4 L106.1 108.95 Q82.55 131.95 53.85 142.7 L62.8 167.3 Q96.7 154.65 124.5 127.4 M103.9 39.85 Q96.1 60.15 79.85 77.0 L106.1 103.25 Q128.45 80.35 138.95 52.55 L103.9 39.85 M196.15 73.3 L171.1 64.2 Q158.15 98.9 130.2 127.4 L149.0 146.15 Q181.3 113.35 196.15 73.3 M167.35 62.85 L142.7 53.9 Q131.95 82.55 108.95 106.1 L127.35 124.55 Q154.65 96.7 167.35 62.85 M-104.65 -104.6 Q-128.15 -81.1 -138.85 -52.35 L-103.75 -39.65 Q-95.75 -60.9 -78.3 -78.3 -60.9 -95.7 -39.7 -103.7 L-52.4 -138.85 Q-81.15 -128.1 -104.6 -104.65 L-104.65 -104.6 M-167.25 -62.65 L-142.6 -53.7 Q-131.95 -82.45 -108.9 -106.05 L-127.35 -124.45 Q-154.6 -96.6 -167.25 -62.65 M-130.2 -127.3 L-149.0 -146.15 Q-181.3 -113.25 -196.15 -73.1 L-170.95 -64.0 Q-158.1 -98.8 -130.2 -127.3 M-64.05 -171.0 L-73.15 -196.1 Q-113.25 -181.3 -146.15 -149.0 L-127.35 -130.15 Q-98.8 -158.1 -64.05 -171.0 M-53.75 -142.55 L-62.65 -167.25 Q-96.6 -154.6 -124.5 -127.3 L-106.05 -108.9 Q-82.45 -131.9 -53.75 -142.55 M-170.35 59.75 L-142.15 49.55 -142.0 49.45 -103.2 35.4 -101.7 35.45 Q-100.95 35.8 -100.65 36.6 -92.95 58.05 -75.45 75.55 L-75.4 75.6 Q-57.95 93.05 -36.4 100.85 -35.65 101.1 -35.3 101.85 -34.95 102.6 -35.2 103.4 L-49.25 142.15 -49.3 142.25 -59.55 170.5 -59.6 170.6 -70.0 199.45 Q-70.3 200.2 -71.05 200.55 L-72.55 200.65 Q-115.45 185.25 -150.3 150.5 L-150.35 150.45 -150.4 150.4 Q-185.2 115.6 -200.5 72.8 -200.8 72.0 -200.45 71.25 -200.1 70.5 -199.3 70.25 L-170.45 59.8 -170.35 59.75 M-52.35 138.95 L-39.65 103.9 Q-60.05 96.1 -76.85 79.85 L-103.15 106.1 Q-80.25 128.45 -52.35 138.95 M-79.65 77.0 Q-96.0 60.15 -103.7 39.8 L-138.85 52.55 Q-128.35 80.4 -105.95 103.25 L-79.65 77.0 M-127.25 130.25 L-146.05 149.05 Q-113.2 181.3 -73.1 196.2 L-64.0 171.05 Q-98.75 158.15 -127.25 130.25 M-148.85 146.2 L-130.05 127.4 Q-158.05 98.9 -170.9 64.2 L-196.1 73.3 Q-181.25 113.35 -148.85 146.2 M-142.55 53.9 L-167.2 62.85 Q-154.25 97.55 -125.85 125.95 L-125.8 126.0 Q-97.4 154.35 -62.65 167.3 L-53.7 142.7 Q-83.3 131.65 -107.4 107.55 L-107.45 107.5 Q-131.55 83.4 -142.55 53.9" fill="#010101" fill-opacity="0.0" fill-rule="evenodd" stroke="none"/>
      <path d="M147.7 -147.5 Q181.05 -114.1 196.25 -73.1 L171.1 -64.0 Q157.9 -99.65 128.9 -128.7 L128.85 -128.75 Q99.8 -157.8 64.2 -171.0 L73.3 -196.1 Q114.2 -181.0 147.65 -147.55 L147.7 -147.5 M104.75 -104.55 Q128.2 -81.1 139.0 -52.4 L103.9 -39.65 Q95.85 -60.9 78.45 -78.3 61.05 -95.7 39.85 -103.7 L52.55 -138.85 Q81.2 -128.1 104.7 -104.6 L104.75 -104.55 M126.05 -125.85 Q154.4 -97.45 167.35 -62.65 L142.75 -53.75 Q131.7 -83.3 107.6 -107.4 L107.55 -107.45 Q83.4 -131.6 53.9 -142.6 L62.85 -167.25 Q97.6 -154.3 126.0 -125.9 L126.05 -125.85 M167.35 62.85 Q154.65 96.7 127.35 124.55 L108.95 106.1 Q131.95 82.55 142.7 53.9 L167.35 62.85 M196.15 73.3 Q181.3 113.35 149.0 146.15 L130.2 127.4 Q158.15 98.9 171.1 64.2 L196.15 73.3 M103.9 39.85 L138.95 52.55 Q128.45 80.35 106.1 103.25 L79.85 77.0 Q96.1 60.15 103.9 39.85 M124.5 127.4 Q96.7 154.65 62.8 167.3 L53.85 142.7 Q82.55 131.95 106.1 108.95 L124.5 127.4 M52.5 138.95 L39.8 103.9 Q60.15 96.1 77.0 79.85 L103.25 106.1 Q80.35 128.45 52.5 138.95 M127.35 130.25 L146.15 149.0 Q113.3 181.3 73.25 196.15 L64.15 171.05 Q98.9 158.15 127.35 130.25 M-104.65 -104.6 L-104.6 -104.65 Q-81.15 -128.1 -52.4 -138.85 L-39.7 -103.7 Q-60.9 -95.7 -78.3 -78.3 -95.75 -60.9 -103.75 -39.65 L-138.85 -52.35 Q-128.15 -81.1 -104.65 -104.6 M-53.75 -142.55 Q-82.45 -131.9 -106.05 -108.9 L-124.5 -127.3 Q-96.6 -154.6 -62.65 -167.25 L-53.75 -142.55 M-64.05 -171.0 Q-98.8 -158.1 -127.35 -130.15 L-146.15 -149.0 Q-113.25 -181.3 -73.15 -196.1 L-64.05 -171.0 M-130.2 -127.3 Q-158.1 -98.8 -170.95 -64.0 L-196.15 -73.1 Q-181.3 -113.25 -149.0 -146.15 L-130.2 -127.3 M-167.25 -62.65 Q-154.6 -96.6 -127.35 -124.45 L-108.9 -106.05 Q-131.95 -82.45 -142.6 -53.7 L-167.25 -62.65 M-142.55 53.9 Q-131.55 83.4 -107.45 107.5 L-107.4 107.55 Q-83.3 131.65 -53.7 142.7 L-62.65 167.3 Q-97.4 154.35 -125.8 126.0 L-125.85 125.95 Q-154.25 97.55 -167.2 62.85 L-142.55 53.9 M-148.85 146.2 Q-181.25 113.35 -196.1 73.3 L-170.9 64.2 Q-158.05 98.9 -130.05 127.4 L-148.85 146.2 M-127.25 130.25 Q-98.75 158.15 -64.0 171.05 L-73.1 196.2 Q-113.2 181.3 -146.05 149.05 L-127.25 130.25 M-79.65 77.0 L-105.95 103.25 Q-128.35 80.4 -138.85 52.55 L-103.7 39.8 Q-96.0 60.15 -79.65 77.0 M-52.35 138.95 Q-80.25 128.45 -103.15 106.1 L-76.85 79.85 Q-60.05 96.1 -39.65 103.9 L-52.35 138.95" fill="#ffffff" fill-rule="evenodd" stroke="none"/>
      <path d="M212.1 -212.1 Q298.45 -125.8 299.95 -4.3 L300.0 0.0 Q300.0 62.55 277.7 115.85 L276.75 118.05 Q273.65 125.3 270.15 132.35 248.8 175.4 212.1 212.1 169.4 254.8 118.1 276.8 91.55 288.1 62.75 293.95 32.6 300.0 0.0 300.0 L-4.3 300.0 Q-34.6 299.6 -62.65 293.95 -147.3 276.95 -212.1 212.1 -248.8 175.4 -270.15 132.4 -275.0 122.7 -279.0 112.7 -300.0 60.7 -300.0 0.0 -300.0 -124.25 -212.1 -212.1 -124.25 -300.0 0.0 -300.0 124.25 -300.0 212.1 -212.1" fill="none" stroke="#ffffff" stroke-linecap="round" stroke-linejoin="round" stroke-width="10.0"/>
    </g>
  </defs>
</svg>
