<?xml version="1.0" encoding="UTF-8" standalone="no"?>
<svg xmlns:xlink="http://www.w3.org/1999/xlink" height="842.55px" width="1337.95px" xmlns="http://www.w3.org/2000/svg">
  <g transform="matrix(1, 0, 0, 1, 407.45, 285.05)">
    <use height="4.5" transform="matrix(5.4867, 0.0, 0.0, 81.5667, 3.2875, 23.0167)" width="99.75" xlink:href="#shape0"/>
    <use height="403.0" transform="matrix(1.0, 0.0, 0.0, 1.0, -3.25, -1.45)" width="554.75" xlink:href="#shape1"/>
    <use height="417.85" transform="matrix(1.0, 0.0, 0.0, 1.0, -35.5, 19.5)" width="594.85" xlink:href="#shape2"/>
  </g>
  <defs>
    <g id="shape0" transform="matrix(1, 0, 0, 1, 49.85, -2.5)">
      <path d="M49.9 7.0 L-49.85 7.0 -49.85 2.5 49.9 2.5 49.9 7.0" fill="#ffffff" fill-rule="evenodd" stroke="none"/>
    </g>
    <g id="shape1" transform="matrix(1, 0, 0, 1, 3.25, 1.45)">
      <path d="M449.3 209.0 Q468.45 206.25 488.2 208.15 516.8 210.9 538.4 191.45 543.8 186.6 550.0 183.9 L550.0 246.05 Q523.9 237.45 493.55 246.2 486.35 248.25 479.45 248.1 446.1 247.3 414.9 233.75 L408.8 230.95 Q413.45 223.75 423.25 217.55 431.65 212.2 441.35 210.3 L444.4 209.75 449.3 209.0 M0.85 184.1 Q16.0 178.55 32.0 178.5 65.25 186.6 90.3 212.3 L94.3 216.6 94.95 217.3 Q99.35 222.35 106.8 223.65 125.85 227.05 132.4 237.3 L126.8 238.25 Q102.45 242.0 76.7 238.45 L58.5 236.95 Q23.45 236.1 0.0 257.2 L0.0 184.45 0.85 184.1" fill="#99cc99" fill-rule="evenodd" stroke="none"/>
      <path d="M90.3 212.3 Q91.4 210.85 92.8 209.5 99.25 203.05 107.0 197.75 115.05 192.2 124.0 189.5 139.55 196.35 156.1 200.65 160.2 201.7 164.4 199.35 197.8 180.55 211.3 215.25 212.4 218.05 213.0 220.8 207.75 218.55 202.25 217.0 196.75 215.45 191.0 214.5 L188.25 215.9 Q161.3 231.8 132.4 237.3 125.85 227.05 106.8 223.65 99.35 222.35 94.95 217.3 L94.3 216.6 90.3 212.3 M275.05 247.2 Q276.4 227.35 289.25 206.75 299.45 190.5 318.25 193.65 353.0 199.55 377.3 173.2 381.5 168.65 386.95 166.5 409.2 164.85 424.25 180.8 437.2 194.45 449.3 209.0 L444.4 209.75 441.35 210.3 Q431.65 212.2 423.25 217.55 413.45 223.75 408.8 230.95 L405.55 229.35 Q375.8 214.45 347.0 229.65 314.0 247.15 278.35 247.25 L275.05 247.2 M210.7 227.75 L213.6 230.15 213.5 231.0 210.7 227.75" fill="#78bb77" fill-rule="evenodd" stroke="none"/>
      <path d="M550.0 183.9 Q543.8 186.6 538.4 191.45 516.8 210.9 488.2 208.15 468.45 206.25 449.3 209.0 437.2 194.45 424.25 180.8 409.2 164.85 386.95 166.5 381.5 168.65 377.3 173.2 353.0 199.55 318.25 193.65 299.45 190.5 289.25 206.75 276.4 227.35 275.05 247.2 L260.45 246.2 Q248.5 244.8 239.65 237.3 227.15 226.7 213.0 220.8 212.4 218.05 211.3 215.25 197.8 180.55 164.4 199.35 160.2 201.7 156.1 200.65 139.55 196.35 124.0 189.5 115.05 192.2 107.0 197.75 99.25 203.05 92.8 209.5 91.4 210.85 90.3 212.3 65.25 186.6 32.0 178.5 16.0 178.55 0.85 184.1 L0.0 184.1 0.0 0.05 550.0 0.05 550.0 183.9" fill="url(#gradient0)" fill-rule="evenodd" stroke="none"/>
      <path d="M213.0 220.8 Q227.15 226.7 239.65 237.3 248.5 244.8 260.45 246.2 L275.05 247.2 278.35 247.25 Q314.0 247.15 347.0 229.65 375.8 214.45 405.55 229.35 L408.8 230.95 414.9 233.75 Q446.1 247.3 479.45 248.1 486.35 248.25 493.55 246.2 523.9 237.45 550.0 246.05 L550.0 400.05 0.0 400.05 0.0 259.3 -3.25 260.25 0.0 257.2 Q23.45 236.1 58.5 236.95 L76.7 238.45 Q102.45 242.0 126.8 238.25 L132.4 237.3 Q161.3 231.8 188.25 215.9 L191.0 214.5 Q196.75 215.45 202.25 217.0 207.75 218.55 213.0 220.8 M210.7 227.75 L213.5 231.0 213.6 230.15 210.7 227.75" fill="#badab6" fill-rule="evenodd" stroke="none"/>
      <path d="M550.0 183.9 L550.0 0.05 0.0 0.05 0.0 184.1 M550.0 246.05 L550.0 183.9 M0.0 184.45 L0.0 184.1 M0.0 259.3 L0.0 400.05 550.0 400.05 550.0 246.05 M0.0 257.2 L0.0 184.45" fill="none" stroke="#010101" stroke-linecap="round" stroke-linejoin="round" stroke-opacity="0.0" stroke-width="3.0"/>
    </g>
    <linearGradient gradientTransform="matrix(0.0, 0.0708, -0.2366, 0.0, 286.35, 64.0)" gradientUnits="userSpaceOnUse" id="gradient0" spreadMethod="pad" x1="-819.2" x2="819.2">
      <stop offset="0.0" stop-color="#ccebff"/>
      <stop offset="1.0" stop-color="#6fc6ff"/>
    </linearGradient>
    <g id="shape2" transform="matrix(1, 0, 0, 1, 35.5, -19.5)">
      <path d="M0.5 22.7 Q6.5 21.5 14.0 21.5 23.75 21.5 27.0 23.55 28.1 24.25 29.15 25.5 L30.0 25.5 Q42.6 25.5 48.75 31.25 52.0 34.35 52.45 36.85 L59.0 36.5 Q60.8 36.5 61.2 36.95 L61.4 37.5 62.5 37.5 Q71.55 37.5 76.6 39.15 77.05 35.95 80.0 32.8 85.0 27.5 94.5 27.5 L97.65 27.95 Q98.4 24.7 103.0 22.5 109.2 19.5 120.5 19.5 132.75 19.5 142.95 26.7 147.3 29.75 149.75 32.6 152.3 31.5 154.0 31.5 161.8 31.5 167.3 38.8 171.5 44.35 171.5 47.75 171.5 49.15 171.0 50.5 172.0 50.5 175.25 52.55 178.9 54.85 179.5 56.75 L179.5 61.25 179.5 61.35 182.3 62.25 Q186.75 64.15 196.0 64.5 200.55 64.65 202.0 68.15 L203.0 71.2 203.5 72.4 209.8 70.45 Q216.5 68.5 219.85 68.5 L225.7 69.05 229.5 70.25 Q236.1 72.0 256.85 72.0 L280.2 71.9 Q298.4 71.45 303.85 69.5 307.8 68.05 313.4 66.75 318.65 65.5 320.35 65.5 327.55 65.5 335.85 68.7 L351.5 75.75 Q374.1 86.0 398.35 86.0 L415.35 84.55 415.35 83.85 Q415.35 82.35 416.9 79.05 418.75 75.0 421.65 71.5 429.9 61.5 441.85 61.5 L446.5 61.65 Q448.5 58.55 451.15 55.75 461.0 45.5 473.85 45.5 L478.7 45.65 479.85 45.5 Q482.7 45.5 486.2 46.85 488.1 45.0 494.4 42.5 504.4 38.5 513.85 38.5 524.45 38.5 532.0 41.5 539.55 44.5 547.85 44.5 554.35 44.5 559.35 51.0 L559.35 59.25 556.85 60.5 Q554.75 59.85 554.4 57.9 L554.4 54.2 Q554.35 51.4 551.35 50.5 L547.9 50.0 546.1 50.0 Q539.65 50.35 531.75 47.3 523.35 44.0 513.85 44.0 501.75 44.0 495.5 47.75 493.4 49.2 492.35 50.0 L493.85 50.95 Q501.0 55.7 502.35 58.5 502.75 59.3 502.9 63.3 503.0 65.75 506.1 67.0 509.7 68.4 510.65 70.0 511.35 71.15 511.35 74.25 511.35 77.0 511.05 77.6 L510.95 77.8 511.05 77.8 527.85 80.0 Q536.35 80.0 538.7 78.25 541.0 76.5 546.85 76.5 L547.65 76.55 550.8 76.9 551.35 77.05 551.4 77.05 Q553.1 77.55 554.3 78.5 L556.35 81.0 Q554.1 83.35 552.75 83.0 L550.5 82.5 546.75 82.0 Q541.6 82.0 538.65 83.75 537.75 84.3 536.45 84.65 L528.15 85.5 527.85 85.5 507.25 83.0 Q499.65 83.0 496.95 84.8 L495.2 86.3 Q494.2 87.15 492.85 87.5 L463.2 88.1 462.85 88.1 456.3 88.25 438.85 88.75 433.65 88.95 415.35 90.0 398.35 91.5 Q383.7 91.5 371.35 88.3 362.7 86.05 352.35 81.25 339.1 75.1 336.75 74.2 328.15 71.0 319.85 71.0 316.75 71.0 312.2 72.0 L302.15 74.25 Q285.05 77.5 256.85 77.5 235.9 77.5 229.05 75.75 L225.2 74.55 219.75 74.0 Q217.25 74.0 210.4 75.95 L195.4 80.25 Q171.8 86.5 150.5 86.5 L130.55 85.4 Q127.85 84.9 123.2 83.0 114.8 79.5 83.0 79.5 71.2 79.5 57.2 77.75 43.2 76.0 21.5 76.0 L14.0 76.1 13.5 76.5 12.0 76.15 3.5 76.6 0.65 76.9 Q-1.85 77.25 -3.0 77.75 L-4.55 78.95 Q-5.1 79.5 -7.0 79.5 L-9.5 79.0 -10.3 78.55 Q-10.5 78.3 -10.5 76.75 -10.5 73.25 -0.6 71.75 L0.9 71.55 2.3 71.35 3.35 71.25 12.35 70.65 15.55 67.0 Q19.2 63.0 20.95 61.95 20.5 61.1 20.5 60.0 20.5 58.75 22.3 55.5 24.7 51.15 28.5 47.5 36.25 40.05 47.5 37.65 46.8 35.7 45.85 34.8 41.35 30.35 21.0 32.5 18.5 30.15 18.5 29.35 18.5 28.05 19.3 27.3 L13.5 27.0 1.95 27.65 -2.05 28.3 Q-7.75 29.5 -10.45 31.8 -11.9 33.05 -13.1 35.35 -14.05 37.2 -15.0 37.5 L-16.8 36.7 Q-17.5 36.05 -17.5 34.35 -17.5 30.4 -10.45 26.5 -6.25 24.2 -0.75 22.95 L0.5 22.7 M497.25 66.65 Q498.1 64.55 498.1 63.25 498.1 60.55 489.4 56.15 480.45 51.65 474.6 52.0 474.35 51.5 474.35 49.0 L474.4 47.9 Q468.35 48.8 461.35 53.5 L454.85 59.5 452.1 62.3 453.95 62.9 Q455.5 63.65 457.35 66.5 L455.9 68.75 Q455.3 69.5 454.35 69.5 L448.45 68.35 Q447.8 70.45 448.35 72.25 L445.85 73.5 Q443.35 70.8 443.35 68.85 443.35 68.2 443.65 67.25 L441.75 67.0 Q429.3 67.0 424.1 76.0 422.45 78.8 421.75 82.25 L421.5 83.8 423.85 83.5 Q489.35 83.0 491.1 82.25 L492.85 81.5 498.85 79.05 Q501.0 78.15 503.45 77.8 503.85 76.5 506.1 74.25 505.2 73.6 501.2 71.8 497.5 70.1 496.6 69.25 496.5 68.55 497.25 66.65 M162.75 41.25 Q158.65 37.0 154.35 37.0 153.6 37.0 152.5 37.5 152.3 38.35 150.55 38.5 148.65 39.5 147.5 39.5 L145.5 39.0 144.7 38.55 Q144.5 38.3 144.5 36.75 144.5 36.25 144.9 35.7 L140.15 31.75 Q131.5 25.0 120.85 25.0 104.2 25.0 102.2 27.45 101.7 28.0 101.8 29.35 103.15 29.95 103.5 30.5 L101.85 32.1 101.5 33.0 100.0 33.5 99.7 33.4 Q96.05 35.2 90.05 35.95 L84.0 37.05 Q81.5 37.95 81.5 40.0 81.5 41.3 82.7 41.95 L86.1 44.15 Q89.7 43.65 93.85 40.4 98.75 36.5 101.0 36.5 103.2 36.5 109.3 40.05 114.6 43.1 115.75 44.25 118.2 46.7 124.85 47.95 130.35 49.0 132.5 53.75 134.8 58.9 135.35 68.4 136.6 67.1 138.75 65.75 143.9 62.5 147.5 62.5 151.4 62.5 156.9 64.45 158.0 63.4 160.0 62.5 164.45 60.5 170.5 60.5 L175.15 60.7 168.9 53.8 Q167.25 55.5 165.5 55.5 L163.45 55.15 162.75 54.25 Q162.5 55.25 162.5 52.75 162.5 52.15 164.5 50.4 166.5 48.65 166.5 48.0 166.5 45.05 162.75 41.25 M187.5 71.5 Q182.05 71.5 178.75 68.75 175.5 66.0 169.85 66.0 165.15 66.0 162.75 66.85 169.15 69.8 170.5 71.5 L169.2 73.65 Q168.45 74.5 166.5 74.5 164.95 74.5 158.45 71.25 151.95 68.0 147.35 68.0 142.1 68.0 140.85 71.25 L139.85 73.5 Q139.0 74.5 137.0 74.5 L135.5 74.2 135.5 74.35 135.3 80.05 150.5 81.0 Q172.95 81.0 195.4 74.75 L198.15 74.0 Q195.9 71.5 187.5 71.5 M94.95 45.65 Q88.8 49.5 85.5 49.5 83.25 49.5 80.45 47.4 L80.2 47.2 Q77.8 46.6 76.85 44.9 L76.0 44.5 Q67.2 41.5 61.25 40.7 60.9 41.5 60.15 41.95 59.1 42.55 55.45 43.4 43.4 46.1 32.75 50.75 27.75 52.9 26.75 57.45 L25.85 60.75 24.45 62.55 24.5 63.85 Q24.5 65.75 19.85 70.5 L21.5 70.5 Q89.2 70.5 115.85 75.75 L130.2 79.05 130.5 73.0 Q130.5 66.65 130.3 64.85 129.75 59.45 127.5 55.75 121.5 57.3 113.55 49.8 L107.4 44.35 Q103.9 41.75 100.75 41.75 L94.95 45.65" fill="#000000" fill-rule="evenodd" stroke="none"/>
      <path d="M551.35 50.5 L551.35 77.0 551.35 77.05 550.8 76.9 547.65 76.55 547.6 76.35 546.85 76.5 Q541.0 76.5 538.7 78.25 536.35 80.0 527.85 80.0 L511.05 77.8 511.05 77.6 Q511.35 77.0 511.35 74.25 511.35 71.15 510.65 70.0 509.7 68.4 506.1 67.0 503.0 65.75 502.9 63.3 502.75 59.3 502.35 58.5 501.0 55.7 493.85 50.95 L492.35 50.0 Q493.4 49.2 495.5 47.75 501.75 44.0 513.85 44.0 523.35 44.0 531.75 47.3 539.65 50.35 546.1 50.0 L547.9 50.0 551.35 50.5 M-0.6 71.75 Q-2.5 64.9 -2.5 47.85 L-2.45 34.0 -2.05 28.3 1.95 27.65 13.5 27.0 19.3 27.3 Q18.5 28.05 18.5 29.35 18.5 30.15 21.0 32.5 41.35 30.35 45.85 34.8 46.8 35.7 47.5 37.65 36.25 40.05 28.5 47.5 24.7 51.15 22.3 55.5 20.5 58.75 20.5 60.0 20.5 61.1 20.95 61.95 19.2 63.0 15.55 67.0 L12.35 70.65 3.35 71.25 2.3 71.35 0.9 71.55 -0.6 71.75 M187.5 71.5 Q195.9 71.5 198.15 74.0 L195.4 74.75 Q172.95 81.0 150.5 81.0 L135.3 80.05 135.5 74.35 135.5 74.2 137.0 74.5 Q139.0 74.5 139.85 73.5 L140.85 71.25 Q142.1 68.0 147.35 68.0 151.95 68.0 158.45 71.25 164.95 74.5 166.5 74.5 168.45 74.5 169.2 73.65 L170.5 71.5 Q169.15 69.8 162.75 66.85 165.15 66.0 169.85 66.0 175.5 66.0 178.75 68.75 182.05 71.5 187.5 71.5 M162.75 41.25 Q166.5 45.05 166.5 48.0 166.5 48.65 164.5 50.4 162.5 52.15 162.5 52.75 162.5 55.25 162.75 54.25 L163.45 55.15 165.5 55.5 Q167.25 55.5 168.9 53.8 L175.15 60.7 170.5 60.5 Q164.45 60.5 160.0 62.5 158.0 63.4 156.9 64.45 151.4 62.5 147.5 62.5 143.9 62.5 138.75 65.75 136.6 67.1 135.35 68.4 134.8 58.9 132.5 53.75 130.35 49.0 124.85 47.95 118.2 46.7 115.75 44.25 114.6 43.1 109.3 40.05 103.2 36.5 101.0 36.5 98.75 36.5 93.85 40.4 89.7 43.65 86.1 44.15 L82.7 41.95 Q81.5 41.3 81.5 40.0 81.5 37.95 84.0 37.05 L90.05 35.95 Q96.05 35.2 99.7 33.4 L100.0 33.5 101.5 33.0 101.85 32.1 103.5 30.5 Q103.15 29.95 101.8 29.35 101.7 28.0 102.2 27.45 104.2 25.0 120.85 25.0 131.5 25.0 140.15 31.75 L144.9 35.7 Q144.5 36.25 144.5 36.75 144.5 38.3 144.7 38.55 L145.5 39.0 147.5 39.5 Q148.65 39.5 150.55 38.5 152.3 38.35 152.5 37.5 153.6 37.0 154.35 37.0 158.65 37.0 162.75 41.25" fill="#fe8e45" fill-rule="evenodd" stroke="none"/>
      <path d="M497.25 66.65 Q496.5 68.55 496.6 69.25 497.5 70.1 501.2 71.8 505.2 73.6 506.1 74.25 503.85 76.5 503.45 77.8 501.0 78.15 498.85 79.05 L492.85 81.5 491.1 82.25 Q489.35 83.0 423.85 83.5 L421.5 83.8 421.75 82.25 Q422.45 78.8 424.1 76.0 429.3 67.0 441.75 67.0 L443.65 67.25 Q443.35 68.2 443.35 68.85 443.35 70.8 445.85 73.5 L448.35 72.25 Q447.8 70.45 448.45 68.35 L454.35 69.5 Q455.3 69.5 455.9 68.75 L457.35 66.5 Q455.5 63.65 453.95 62.9 L452.1 62.3 454.85 59.5 461.35 53.5 Q468.35 48.8 474.4 47.9 L474.35 49.0 Q474.35 51.5 474.6 52.0 480.45 51.65 489.4 56.15 498.1 60.55 498.1 63.25 498.1 64.55 497.25 66.65 M94.95 45.65 L100.75 41.75 Q103.9 41.75 107.4 44.35 L113.55 49.8 Q121.5 57.3 127.5 55.75 129.75 59.45 130.3 64.85 130.5 66.65 130.5 73.0 L130.2 79.05 115.85 75.75 Q89.2 70.5 21.5 70.5 L19.85 70.5 Q24.5 65.75 24.5 63.85 L24.45 62.55 25.85 60.75 26.75 57.45 Q27.75 52.9 32.75 50.75 43.4 46.1 55.45 43.4 59.1 42.55 60.15 41.95 60.9 41.5 61.25 40.7 67.2 41.5 76.0 44.5 L76.85 44.9 Q77.8 46.6 80.2 47.2 L80.45 47.4 Q83.25 49.5 85.5 49.5 88.8 49.5 94.95 45.65" fill="#fd7113" fill-rule="evenodd" stroke="none"/>
      <path d="M551.35 77.0 L551.4 77.05 551.35 77.05 551.35 77.0 M552.75 83.0 Q553.6 88.55 553.65 95.8 553.7 102.95 553.35 116.5 L553.35 213.25 Q552.05 203.65 551.4 196.25 549.3 173.95 550.75 155.75 547.95 159.4 544.9 186.55 542.25 210.3 542.25 220.0 542.25 227.05 547.0 253.1 551.75 279.15 551.75 284.5 L552.75 313.7 548.7 298.9 527.75 225.75 Q525.65 227.7 523.8 236.85 522.25 244.4 522.25 247.75 522.25 254.55 531.15 283.85 540.3 314.1 540.75 319.75 541.8 332.3 549.85 357.35 L553.15 368.5 553.1 398.4 553.35 399.75 Q553.35 401.35 552.5 401.9 L550.85 402.35 544.4 402.35 Q540.05 364.0 529.25 318.65 520.25 282.9 516.9 268.7 511.25 245.1 511.25 235.0 511.25 222.4 513.75 192.35 516.25 162.3 516.25 148.75 516.25 145.65 515.9 145.2 515.25 145.0 514.75 144.25 503.75 161.6 503.75 254.25 503.75 259.1 512.2 297.65 L516.05 314.6 Q512.8 308.8 507.5 301.4 498.9 289.4 495.3 277.5 489.75 259.1 489.75 227.25 491.0 186.75 490.75 167.25 L491.15 151.7 Q491.35 142.65 490.75 137.25 489.35 123.75 495.15 114.9 498.05 110.45 501.25 108.25 501.25 105.1 500.45 104.75 L497.75 104.25 Q480.7 121.3 477.55 175.75 475.95 203.2 477.75 229.25 477.75 261.0 483.45 280.4 487.25 293.4 496.0 306.05 L502.7 315.8 Q506.35 321.5 508.55 327.0 514.25 341.25 514.25 364.25 514.25 383.3 509.95 396.9 L508.2 402.35 507.4 402.35 Q507.75 396.75 507.75 391.0 507.75 379.05 503.45 355.75 498.8 330.3 498.25 321.25 L496.75 321.25 496.25 340.75 Q496.25 345.55 500.4 377.95 L503.5 402.35 490.9 402.35 Q492.25 394.05 492.25 387.0 492.25 372.1 482.45 319.5 472.75 267.6 469.25 261.75 L468.75 260.9 Q470.75 255.2 472.05 246.9 473.25 239.3 473.25 234.5 473.25 229.7 470.2 196.45 467.2 163.4 466.25 157.25 L464.75 157.25 463.55 164.95 Q462.75 170.05 462.75 173.0 L464.55 208.25 Q466.2 239.55 466.65 257.15 460.15 244.85 457.3 230.35 454.65 216.75 454.8 198.1 L455.85 165.8 Q456.4 146.8 454.75 134.25 L451.75 134.75 Q450.75 164.75 446.75 226.25 446.75 228.0 452.55 246.85 460.65 273.2 465.25 290.0 483.75 357.25 483.75 395.75 L483.7 398.6 Q482.1 377.25 476.3 351.6 469.55 321.75 458.25 290.75 456.35 291.25 455.75 291.95 454.75 293.15 454.75 296.5 L454.95 305.35 Q453.4 290.25 450.65 275.55 446.6 253.95 437.25 222.7 426.75 187.65 423.85 174.75 417.75 147.75 417.75 122.5 419.25 105.25 418.75 96.25 409.25 102.75 409.25 138.75 409.25 162.65 414.5 187.2 416.9 198.6 426.0 230.65 434.0 258.8 437.5 279.1 442.75 309.3 442.75 342.75 442.75 370.3 435.9 402.35 L197.6 402.35 197.75 396.0 Q197.75 366.7 189.4 345.85 186.25 337.9 180.65 327.95 L170.3 310.05 Q156.6 285.75 149.15 259.3 138.35 221.2 134.75 164.25 L132.25 164.25 Q130.25 182.25 130.25 195.75 130.25 217.85 135.9 240.55 L133.3 237.1 Q129.4 232.15 127.55 224.55 124.75 213.35 124.25 191.25 L123.8 152.25 Q123.5 127.8 122.25 113.25 116.75 120.35 115.45 147.95 115.25 152.7 115.25 180.0 115.25 203.65 118.4 219.0 120.55 229.8 125.25 239.7 131.2 252.35 132.15 255.15 135.25 264.65 135.25 278.25 135.25 283.8 131.7 294.85 123.25 260.3 123.25 254.25 123.25 252.2 123.95 246.55 124.55 241.75 124.25 239.25 L122.75 239.25 Q119.75 248.85 119.75 261.5 119.75 277.5 127.15 307.85 L124.75 314.25 126.25 314.25 127.8 310.55 130.75 321.9 132.85 329.7 Q125.2 318.9 119.3 310.15 L113.6 301.4 Q112.05 278.9 107.25 235.55 100.25 172.55 100.25 170.5 100.25 166.45 102.95 151.55 105.35 138.55 106.25 135.25 94.5 144.95 94.5 187.0 94.5 189.05 98.95 217.45 103.5 246.65 103.75 250.75 104.7 266.35 105.05 287.3 L95.25 269.75 Q89.05 258.05 87.45 243.45 86.35 232.65 87.6 216.3 89.35 198.05 89.75 189.0 90.4 173.5 88.0 162.25 83.8 170.65 81.4 195.45 L80.85 201.6 80.05 197.7 Q77.75 187.4 72.5 178.2 66.45 167.6 64.95 163.0 61.5 152.6 61.5 135.0 61.5 131.35 64.25 119.15 67.0 106.95 67.0 104.25 67.0 101.15 66.75 100.9 L66.5 101.25 65.0 101.25 Q62.0 107.9 59.65 125.4 57.5 141.3 57.5 152.5 57.5 158.15 60.45 166.25 L67.0 182.7 Q76.5 207.95 76.5 237.25 76.5 253.7 76.05 258.25 74.65 271.65 69.0 279.25 79.75 276.25 82.65 259.15 L82.7 258.8 Q84.65 266.3 87.8 273.6 93.5 286.85 105.2 303.35 L105.25 315.25 Q105.25 320.0 101.65 402.35 L77.7 402.35 72.5 393.3 Q52.5 356.55 52.5 302.0 L53.3 293.95 Q53.9 288.9 53.0 286.25 49.9 288.45 47.8 292.25 48.75 276.0 51.0 251.9 L55.0 212.25 Q55.0 202.5 52.5 161.25 L51.0 161.25 Q49.3 205.7 42.45 254.25 39.4 275.7 38.25 288.75 36.5 309.1 36.5 333.75 L36.75 339.45 Q28.85 316.4 25.45 304.65 17.5 276.8 17.5 259.5 17.5 247.8 23.0 232.7 L26.8 222.75 Q28.5 218.05 28.5 216.0 28.75 212.55 28.05 209.6 26.7 203.75 22.0 203.75 10.45 203.75 7.05 240.7 5.4 259.25 6.0 278.25 6.0 288.7 13.8 311.7 18.5 325.5 31.0 359.8 38.9 382.65 44.1 402.35 L1.0 402.35 Q-1.5 401.5 -1.5 398.85 L0.25 397.95 Q-1.75 390.75 -1.8 380.1 -1.3 365.75 -1.5 358.75 L-1.5 234.85 Q-1.5 170.45 -1.3 151.7 -0.9 109.4 0.65 76.9 L3.5 76.6 12.0 76.15 13.5 76.5 14.0 76.1 21.5 76.0 Q43.2 76.0 57.2 77.75 71.2 79.5 83.0 79.5 114.8 79.5 123.2 83.0 127.85 84.9 130.55 85.4 L150.5 86.5 Q171.8 86.5 195.4 80.25 L210.4 75.95 Q217.25 74.0 219.75 74.0 L225.2 74.55 229.05 75.75 Q235.9 77.5 256.85 77.5 285.05 77.5 302.15 74.25 L312.2 72.0 Q316.75 71.0 319.85 71.0 328.15 71.0 336.75 74.2 339.1 75.1 352.35 81.25 362.7 86.05 371.35 88.3 383.7 91.5 398.35 91.5 L415.35 90.0 433.65 88.95 Q433.45 91.4 433.5 94.4 433.65 102.0 434.75 115.75 434.75 123.05 431.25 137.6 427.75 152.15 427.75 157.75 427.75 160.7 428.25 161.3 L428.75 162.25 430.25 162.25 Q439.05 142.6 440.2 137.15 440.85 134.0 440.85 129.65 L440.75 118.75 438.85 88.75 456.3 88.25 Q456.75 94.35 462.3 116.15 L471.75 154.25 Q472.75 153.25 472.75 151.75 L474.25 124.75 Q474.25 117.2 472.4 111.5 471.4 108.55 468.25 102.45 465.35 96.9 464.15 92.45 L463.2 88.1 492.85 87.5 Q494.2 87.15 495.2 86.3 L496.95 84.8 Q499.65 83.0 507.25 83.0 L527.85 85.5 528.15 85.5 Q527.25 93.5 527.25 96.75 527.25 103.75 530.1 124.45 533.3 147.6 535.75 150.25 538.25 125.25 538.25 119.25 536.9 99.0 536.45 84.65 537.75 84.3 538.65 83.75 541.6 82.0 546.75 82.0 L550.5 82.5 552.75 83.0 M535.75 402.35 L520.7 402.35 522.2 398.05 Q524.25 391.05 524.85 382.45 525.25 376.95 525.25 363.75 525.25 354.75 524.6 347.05 526.8 354.15 528.75 359.25 533.0 370.1 534.6 384.85 535.25 390.8 535.75 402.35 M474.2 402.35 L450.75 402.35 Q456.75 374.85 456.75 342.25 456.75 331.5 456.15 320.95 457.0 328.25 458.35 335.5 460.4 346.5 466.25 368.3 471.9 389.4 474.15 402.2 L474.2 402.35 M189.4 402.35 L145.6 402.35 Q149.75 387.3 149.75 375.0 149.75 366.45 136.5 314.15 L132.7 298.85 136.2 290.15 Q141.25 277.4 141.25 267.0 L140.95 257.75 Q147.2 276.05 160.0 303.0 175.8 336.3 180.45 348.95 189.75 374.35 189.75 396.0 L189.4 402.35 M130.1 402.35 L107.7 402.35 109.5 393.75 Q112.6 378.25 113.55 369.9 114.4 361.95 114.4 350.05 L114.25 317.5 114.25 316.0 124.45 330.55 Q132.75 344.3 132.75 355.25 L132.6 380.1 Q132.3 391.05 130.7 399.3 L130.1 402.35 M58.45 402.35 L57.95 402.35 57.1 399.7 58.45 402.35 M512.75 95.75 Q512.75 93.25 513.7 89.75 514.5 86.75 514.25 85.25 L512.75 85.25 Q509.75 97.25 509.75 109.0 L513.75 120.45 522.5 146.05 Q535.25 185.85 535.25 205.75 535.25 211.25 532.75 216.25 L535.25 215.75 Q540.75 204.4 540.75 191.0 540.75 174.65 536.4 159.8 533.3 149.45 526.75 136.25 518.5 119.7 517.15 116.25 512.75 105.4 512.75 95.75" fill="#bdaf95" fill-rule="evenodd" stroke="none"/>
      <path d="M507.4 402.35 L503.5 402.35 500.4 377.95 Q496.25 345.55 496.25 340.75 L496.75 321.25 498.25 321.25 Q498.8 330.3 503.45 355.75 507.75 379.05 507.75 391.0 507.75 396.75 507.4 402.35 M483.95 402.35 L474.2 402.35 474.15 402.2 Q471.9 389.4 466.25 368.3 460.4 346.5 458.35 335.5 457.0 328.25 456.15 320.95 L454.95 305.35 454.75 296.5 Q454.75 293.15 455.75 291.95 456.35 291.25 458.25 290.75 469.55 321.75 476.3 351.6 482.1 377.25 483.7 398.6 L483.95 402.35 M145.6 402.35 L139.9 402.35 Q141.75 388.8 141.75 375.5 141.75 366.35 138.3 351.15 136.95 345.2 132.85 329.7 L130.75 321.9 127.8 310.55 126.25 314.25 124.75 314.25 127.15 307.85 Q119.75 277.5 119.75 261.5 119.75 248.85 122.75 239.25 L124.25 239.25 Q124.55 241.75 123.95 246.55 123.25 252.2 123.25 254.25 123.25 260.3 131.7 294.85 135.25 283.8 135.25 278.25 135.25 264.65 132.15 255.15 131.2 252.35 125.25 239.7 120.55 229.8 118.4 219.0 115.25 203.65 115.25 180.0 115.25 152.7 115.45 147.95 116.75 120.35 122.25 113.25 123.5 127.8 123.8 152.25 L124.25 191.25 Q124.75 213.35 127.55 224.55 129.4 232.15 133.3 237.1 L135.9 240.55 Q138.1 243.7 138.8 245.65 140.4 250.0 140.95 257.75 L141.25 267.0 Q141.25 277.4 136.2 290.15 L132.7 298.85 136.5 314.15 Q149.75 366.45 149.75 375.0 149.75 387.3 145.6 402.35 M77.7 402.35 L66.4 402.35 65.25 400.75 Q54.25 385.3 51.65 380.35 45.5 368.55 45.5 355.75 45.5 350.0 44.4 336.75 43.3 323.15 43.25 316.6 43.1 300.55 47.8 292.25 49.9 288.45 53.0 286.25 53.9 288.9 53.3 293.95 L52.5 302.0 Q52.5 356.55 72.5 393.3 L77.7 402.35 M512.75 95.75 Q512.75 105.4 517.15 116.25 518.5 119.7 526.75 136.25 533.3 149.45 536.4 159.8 540.75 174.65 540.75 191.0 540.75 204.4 535.25 215.75 L532.75 216.25 Q535.25 211.25 535.25 205.75 535.25 185.85 522.5 146.05 L513.75 120.45 509.75 109.0 Q509.75 97.25 512.75 85.25 L514.25 85.25 Q514.5 86.75 513.7 89.75 512.75 93.25 512.75 95.75 M466.65 257.15 Q466.2 239.55 464.55 208.25 L462.75 173.0 Q462.75 170.05 463.55 164.95 L464.75 157.25 466.25 157.25 Q467.2 163.4 470.2 196.45 473.25 229.7 473.25 234.5 473.25 239.3 472.05 246.9 470.75 255.2 468.75 260.9 L468.25 262.25 466.75 262.25 466.65 257.15 M82.7 258.8 L82.65 259.15 Q79.75 276.25 69.0 279.25 74.65 271.65 76.05 258.25 76.5 253.7 76.5 237.25 76.5 207.95 67.0 182.7 L60.45 166.25 Q57.5 158.15 57.5 152.5 57.5 141.3 59.65 125.4 62.0 107.9 65.0 101.25 L66.5 101.25 66.75 100.9 Q67.0 101.15 67.0 104.25 67.0 106.95 64.25 119.15 61.5 131.35 61.5 135.0 61.5 152.6 64.95 163.0 66.45 167.6 72.5 178.2 77.75 187.4 80.05 197.7 L80.85 201.6 Q83.5 216.0 83.5 238.5 L83.65 246.5 Q83.55 253.35 82.7 258.8" fill="#9b8564" fill-rule="evenodd" stroke="none"/>
      <path d="M553.35 213.25 L553.35 238.25 553.25 315.45 553.2 325.3 552.75 313.7 551.75 284.5 Q551.75 279.15 547.0 253.1 542.25 227.05 542.25 220.0 542.25 210.3 544.9 186.55 547.95 159.4 550.75 155.75 549.3 173.95 551.4 196.25 552.05 203.65 553.35 213.25 M544.4 402.35 L535.75 402.35 Q535.25 390.8 534.6 384.85 533.0 370.1 528.75 359.25 526.8 354.15 524.6 347.05 520.65 334.15 516.05 314.6 L512.2 297.65 Q503.75 259.1 503.75 254.25 503.75 161.6 514.75 144.25 515.25 145.0 515.9 145.2 516.25 145.65 516.25 148.75 516.25 162.3 513.75 192.35 511.25 222.4 511.25 235.0 511.25 245.1 516.9 268.7 520.25 282.9 529.25 318.65 540.05 364.0 544.4 402.35 M490.9 402.35 L483.95 402.35 483.7 398.6 483.75 395.75 Q483.75 357.25 465.25 290.0 460.65 273.2 452.55 246.85 446.75 228.0 446.75 226.25 450.75 164.75 451.75 134.75 L454.75 134.25 Q456.4 146.8 455.85 165.8 L454.8 198.1 Q454.65 216.75 457.3 230.35 460.15 244.85 466.65 257.15 L466.75 262.25 468.25 262.25 468.75 260.9 469.25 261.75 Q472.75 267.6 482.45 319.5 492.25 372.1 492.25 387.0 492.25 394.05 490.9 402.35 M197.6 402.35 L189.4 402.35 189.75 396.0 Q189.75 374.35 180.45 348.95 175.8 336.3 160.0 303.0 147.2 276.05 140.95 257.75 140.4 250.0 138.8 245.65 138.1 243.7 135.9 240.55 130.25 217.85 130.25 195.75 130.25 182.25 132.25 164.25 L134.75 164.25 Q138.35 221.2 149.15 259.3 156.6 285.75 170.3 310.05 L180.65 327.95 Q186.25 337.9 189.4 345.85 197.75 366.7 197.75 396.0 L197.6 402.35 M107.7 402.35 L101.65 402.35 Q105.25 320.0 105.25 315.25 L105.2 303.35 105.05 287.3 Q104.7 266.35 103.75 250.75 103.5 246.65 98.95 217.45 94.5 189.05 94.5 187.0 94.5 144.95 106.25 135.25 105.35 138.55 102.95 151.55 100.25 166.45 100.25 170.5 100.25 172.55 107.25 235.55 112.05 278.9 113.6 301.4 L114.25 316.0 114.25 317.5 114.4 350.05 Q114.4 361.95 113.55 369.9 112.6 378.25 109.5 393.75 L107.7 402.35 M66.4 402.35 L58.45 402.35 57.1 399.7 Q48.15 381.9 43.75 369.8 37.75 353.3 36.75 339.45 L36.5 333.75 Q36.5 309.1 38.25 288.75 39.4 275.7 42.45 254.25 49.3 205.7 51.0 161.25 L52.5 161.25 Q55.0 202.5 55.0 212.25 L51.0 251.9 Q48.75 276.0 47.8 292.25 43.1 300.55 43.25 316.6 43.3 323.15 44.4 336.75 45.5 350.0 45.5 355.75 45.5 368.55 51.65 380.35 54.25 385.3 65.25 400.75 L66.4 402.35 M463.2 88.1 L464.15 92.45 Q465.35 96.9 468.25 102.45 471.4 108.55 472.4 111.5 474.25 117.2 474.25 124.75 L472.75 151.75 Q472.75 153.25 471.75 154.25 L462.3 116.15 Q456.75 94.35 456.3 88.25 L462.85 88.1 463.2 88.1 M438.85 88.75 L440.75 118.75 440.85 129.65 Q440.85 134.0 440.2 137.15 439.05 142.6 430.25 162.25 L428.75 162.25 428.25 161.3 Q427.75 160.7 427.75 157.75 427.75 152.15 431.25 137.6 434.75 123.05 434.75 115.75 433.65 102.0 433.5 94.4 433.45 91.4 433.65 88.95 L438.85 88.75 M528.15 85.5 L536.45 84.65 Q536.9 99.0 538.25 119.25 538.25 125.25 535.75 150.25 533.3 147.6 530.1 124.45 527.25 103.75 527.25 96.75 527.25 93.5 528.15 85.5" fill="#ad997c" fill-rule="evenodd" stroke="none"/>
      <path d="M553.2 325.3 L553.15 368.5 549.85 357.35 Q541.8 332.3 540.75 319.75 540.3 314.1 531.15 283.85 522.25 254.55 522.25 247.75 522.25 244.4 523.8 236.85 525.65 227.7 527.75 225.75 L548.7 298.9 552.75 313.7 553.2 325.3 M520.7 402.35 L508.2 402.35 509.95 396.9 Q514.25 383.3 514.25 364.25 514.25 341.25 508.55 327.0 506.35 321.5 502.7 315.8 L496.0 306.05 Q487.25 293.4 483.45 280.4 477.75 261.0 477.75 229.25 475.95 203.2 477.55 175.75 480.7 121.3 497.75 104.25 L500.45 104.75 Q501.25 105.1 501.25 108.25 498.05 110.45 495.15 114.9 489.35 123.75 490.75 137.25 491.35 142.65 491.15 151.7 L490.75 167.25 Q491.0 186.75 489.75 227.25 489.75 259.1 495.3 277.5 498.9 289.4 507.5 301.4 512.8 308.8 516.05 314.6 520.65 334.15 524.6 347.05 525.25 354.75 525.25 363.75 525.25 376.95 524.85 382.45 524.25 391.05 522.2 398.05 L520.7 402.35 M450.75 402.35 L435.9 402.35 Q442.75 370.3 442.75 342.75 442.75 309.3 437.5 279.1 434.0 258.8 426.0 230.65 416.9 198.6 414.5 187.2 409.25 162.65 409.25 138.75 409.25 102.75 418.75 96.25 419.25 105.25 417.75 122.5 417.75 147.75 423.85 174.75 426.75 187.65 437.25 222.7 446.6 253.95 450.65 275.55 453.4 290.25 454.95 305.35 L456.15 320.95 Q456.75 331.5 456.75 342.25 456.75 374.85 450.75 402.35 M139.9 402.35 L130.1 402.35 130.7 399.3 Q132.3 391.05 132.6 380.1 L132.75 355.25 Q132.75 344.3 124.45 330.55 L114.25 316.0 113.6 301.4 119.3 310.15 Q125.2 318.9 132.85 329.7 136.95 345.2 138.3 351.15 141.75 366.35 141.75 375.5 141.75 388.8 139.9 402.35 M57.95 402.35 L44.1 402.35 Q38.9 382.65 31.0 359.8 18.5 325.5 13.8 311.7 6.0 288.7 6.0 278.25 5.4 259.25 7.05 240.7 10.45 203.75 22.0 203.75 26.7 203.75 28.05 209.6 28.75 212.55 28.5 216.0 28.5 218.05 26.8 222.75 L23.0 232.7 Q17.5 247.8 17.5 259.5 17.5 276.8 25.45 304.65 28.85 316.4 36.75 339.45 37.75 353.3 43.75 369.8 48.15 381.9 57.1 399.7 L57.95 402.35 M80.85 201.6 L81.4 195.45 Q83.8 170.65 88.0 162.25 90.4 173.5 89.75 189.0 89.35 198.05 87.6 216.3 86.35 232.65 87.45 243.45 89.05 258.05 95.25 269.75 L105.05 287.3 105.2 303.35 Q93.5 286.85 87.8 273.6 84.65 266.3 82.7 258.8 83.55 253.35 83.65 246.5 L83.5 238.5 Q83.5 216.0 80.85 201.6" fill="#c8baa6" fill-rule="evenodd" stroke="none"/>
      <path d="M-0.75 22.95 Q-0.4 22.5 0.0 22.5 L0.5 22.7 -0.75 22.95" fill="#fea870" fill-rule="evenodd" stroke="none"/>
      <path d="M160.4 403.75 L160.5 400.35 Q160.5 390.9 156.15 386.25 153.85 383.8 146.5 380.45 139.7 377.35 136.9 373.45 132.5 367.5 132.5 355.85 132.5 320.5 138.3 292.05 142.3 272.25 151.0 248.9 161.75 220.05 163.7 213.1 169.5 192.8 169.5 171.35 169.5 167.65 166.2 158.65 L159.0 140.25 Q148.5 113.6 148.5 102.0 148.5 98.7 150.2 92.25 151.8 86.15 153.55 84.25 L153.45 84.15 152.75 83.25 Q152.5 84.25 152.5 81.75 152.5 76.75 172.25 69.25 L181.1 68.35 Q194.15 67.35 216.5 64.0 228.35 62.25 231.9 60.45 233.75 59.5 242.35 59.5 268.15 59.5 275.15 63.25 L279.8 65.85 Q282.9 67.0 289.75 67.0 296.25 67.0 299.85 65.85 302.0 65.15 306.0 63.25 316.05 59.5 346.35 59.5 406.0 81.35 416.25 86.75 L417.0 87.15 418.35 88.25 418.2 89.3 418.35 90.75 Q418.35 94.9 416.85 104.65 415.35 114.45 415.35 118.1 415.35 138.1 422.7 157.1 L429.6 173.5 Q434.05 183.9 436.6 192.0 447.25 225.55 448.5 230.85 451.35 243.5 451.35 265.1 451.35 281.55 446.85 306.95 442.35 332.3 442.35 345.75 442.35 356.3 446.55 363.55 449.55 368.65 455.85 373.65 463.9 380.05 465.15 381.4 469.35 386.05 469.35 392.1 469.35 398.8 461.95 404.05 L460.4 405.05 459.85 405.35 458.05 404.75 Q457.35 404.25 457.35 402.6 L457.55 402.4 462.7 395.8 Q464.35 393.25 464.35 392.1 464.35 391.3 463.8 390.3 462.7 388.3 459.55 385.35 L454.75 381.35 454.45 381.1 449.9 377.45 Q442.2 371.25 440.35 369.0 438.85 367.05 437.95 357.9 437.35 351.25 437.35 345.75 437.35 339.1 438.2 330.55 L438.25 330.55 438.35 329.1 438.9 324.65 439.05 323.5 Q440.1 315.15 441.85 305.25 L444.75 286.65 445.85 276.2 Q446.35 270.05 446.35 265.1 446.35 227.45 430.85 191.25 419.95 165.45 416.05 152.8 410.35 134.2 410.35 118.1 410.35 107.2 412.15 91.0 407.8 89.9 399.85 86.45 L391.45 82.85 388.55 81.65 387.45 81.2 386.45 80.8 382.65 79.3 377.85 77.5 Q374.7 76.5 363.05 71.65 L359.75 70.25 357.95 69.5 Q347.05 65.0 345.75 65.0 L343.05 65.0 342.7 65.0 339.1 65.05 336.6 65.1 335.9 65.15 333.15 65.25 327.05 65.55 326.75 65.6 321.05 66.05 319.7 66.2 313.6 67.1 313.15 67.15 309.35 68.0 306.6 68.75 305.25 69.3 305.0 69.4 300.75 70.9 300.45 71.0 300.15 71.1 299.3 71.35 299.15 71.4 297.95 71.7 296.85 71.95 290.25 72.5 289.85 72.5 286.3 72.45 Q281.55 72.2 278.8 71.35 L273.4 68.75 Q272.05 68.05 270.15 67.55 L269.6 67.4 268.65 67.15 268.5 67.1 267.9 66.95 267.8 66.9 267.65 66.9 267.55 66.85 267.5 66.85 265.2 66.45 263.65 66.2 242.25 65.0 241.35 65.1 234.95 65.65 233.25 65.8 226.85 66.4 223.55 66.7 216.25 67.45 190.55 70.8 181.8 72.4 Q176.15 73.55 172.75 74.75 169.3 75.95 162.55 80.45 L156.9 84.0 157.0 84.0 157.25 84.25 Q157.5 84.4 157.5 85.85 L155.5 93.25 Q153.5 100.2 153.5 102.0 153.5 111.95 164.0 138.55 169.7 153.0 171.2 157.4 L173.45 164.7 173.45 164.75 173.65 165.55 Q174.35 168.35 174.5 170.35 L174.5 171.35 174.45 175.65 Q173.95 195.55 168.7 214.35 166.45 222.5 156.0 250.55 147.25 274.05 143.3 293.3 137.5 321.3 137.5 355.85 137.5 365.95 141.9 370.95 144.35 373.8 151.5 377.1 158.4 380.25 161.15 383.8 165.5 389.5 165.5 400.75 L165.45 403.35 165.1 407.35 Q164.65 411.2 163.65 415.05 L159.5 431.1 157.0 432.35 Q154.5 429.85 154.5 428.85 158.75 416.2 160.0 407.15 L160.4 403.75" fill="#000000" fill-rule="evenodd" stroke="none"/>
      <path d="M459.6 407.9 L459.3 407.9 454.35 407.95 456.95 398.25 Q458.5 392.1 459.55 385.35 462.7 388.3 463.8 390.3 L462.7 395.8 457.55 402.4 457.35 402.6 Q457.35 404.25 458.05 404.75 L459.85 405.35 460.4 405.05 459.6 407.9 M404.15 408.2 L400.15 408.2 Q398.65 393.9 396.25 377.75 L385.6 313.5 Q382.3 293.75 376.55 275.05 374.8 269.3 366.65 245.95 361.0 229.8 358.65 218.55 355.35 202.9 355.35 185.25 355.35 173.95 357.35 158.15 359.35 142.35 359.35 119.25 L357.35 75.35 357.4 69.3 357.95 69.5 359.75 70.25 363.05 71.65 Q362.35 74.2 362.35 75.25 L364.35 119.5 Q364.35 143.05 362.35 161.4 360.35 179.75 360.35 185.1 360.35 202.55 363.85 218.65 366.35 230.0 372.3 246.75 380.25 269.3 382.35 276.2 387.95 294.7 390.85 313.75 398.8 365.7 404.15 408.2 M394.3 408.2 L389.8 408.2 388.45 402.9 Q384.65 389.05 378.7 377.7 L375.0 371.25 370.35 364.5 365.9 358.45 363.35 346.05 Q370.95 354.2 376.85 363.55 L380.65 370.05 Q386.1 380.1 389.7 391.45 391.55 397.15 394.3 408.2 M314.15 408.35 L310.85 408.35 309.15 408.35 309.2 406.05 309.35 369.25 309.4 366.65 314.35 383.45 314.2 406.1 314.15 408.35 M212.45 407.85 L208.35 407.85 208.05 407.85 Q223.95 383.0 224.5 347.5 L224.55 345.0 227.6 349.65 229.25 355.15 Q228.05 375.95 220.65 392.75 217.3 400.45 212.45 407.85 M345.9 322.35 L348.2 331.95 Q332.65 306.15 328.1 286.5 319.2 247.4 317.1 208.5 316.25 192.65 316.2 169.75 L316.35 130.85 Q316.35 120.3 314.4 103.7 316.7 96.5 319.75 87.55 321.5 103.2 322.05 137.4 L322.8 198.5 Q323.6 233.6 326.1 252.25 330.05 281.85 335.9 299.4 340.0 311.7 345.9 322.35 M445.85 276.2 L444.75 286.65 441.4 279.25 429.85 255.0 Q414.85 223.55 408.2 199.7 398.35 164.55 398.35 123.75 398.35 103.15 401.45 87.15 404.5 88.45 406.95 89.35 403.35 108.0 403.35 123.85 403.35 163.7 413.2 198.3 419.75 221.35 434.85 253.0 L445.85 276.2 M355.8 337.3 L356.9 341.4 358.55 348.05 357.05 345.85 354.7 335.85 355.8 337.3 M289.5 228.95 Q298.0 244.75 302.6 259.5 312.4 290.45 314.1 316.6 314.75 326.55 314.6 341.3 L314.5 355.9 309.6 349.2 309.75 340.55 Q310.0 325.45 309.35 315.75 307.65 289.6 296.6 258.0 293.85 250.0 289.4 241.2 L289.35 237.85 289.5 228.95 M309.35 68.0 L313.15 67.15 313.6 67.1 Q315.75 68.55 317.3 73.9 L314.25 83.8 312.55 89.45 309.35 69.0 309.35 68.0 M265.2 66.45 Q264.8 73.25 263.7 82.6 L260.85 92.1 Q250.35 128.05 250.35 148.1 250.35 159.05 254.05 169.5 L253.55 181.0 251.3 175.95 Q245.35 161.55 245.35 148.1 245.35 127.65 252.3 99.85 257.4 79.5 263.65 66.2 L265.2 66.45 M284.75 220.5 Q284.45 226.1 284.4 232.05 L282.35 228.55 268.4 206.65 269.7 197.6 274.1 204.0 Q279.9 212.35 284.75 220.5 M202.25 146.3 L198.8 140.8 Q191.55 129.5 188.9 123.35 184.5 113.3 184.5 103.0 184.5 91.4 187.4 82.9 L192.7 70.45 197.6 69.75 194.5 78.1 Q189.5 92.5 189.5 103.0 189.5 111.9 194.05 122.8 196.65 128.95 202.8 139.9 L202.25 146.3 M214.45 161.45 L213.4 170.15 Q211.85 164.5 209.3 159.0 L207.2 154.8 207.75 148.65 Q212.3 156.8 214.45 161.45 M216.1 187.9 L218.3 171.3 Q220.1 177.25 220.5 182.5 221.75 198.75 223.8 211.65 L222.05 223.7 Q218.3 208.25 216.1 187.9 M226.8 226.7 L227.5 229.55 Q229.6 237.45 230.25 241.85 231.35 249.3 231.35 261.25 L230.15 320.1 225.6 302.65 226.5 261.25 Q226.5 247.65 225.5 239.65 L225.35 238.5 226.8 226.7 M266.8 193.2 L266.7 193.65 265.35 201.85 Q261.4 195.6 258.4 190.2 L258.65 179.7 Q261.7 185.4 266.8 193.2 M313.7 363.65 L314.4 364.6 314.4 365.95 313.7 363.65" fill="#bcfef0" fill-rule="evenodd" stroke="none"/>
      <path d="M461.95 404.05 Q462.35 404.75 462.35 405.85 462.35 407.4 462.05 407.65 L461.35 407.85 459.6 407.9 460.4 405.05 461.95 404.05 M454.35 407.95 L447.8 408.0 449.05 404.0 Q452.95 391.05 454.45 381.1 L454.75 381.35 459.55 385.35 Q458.5 392.1 456.95 398.25 L454.35 407.95 M441.45 408.05 L425.8 408.1 425.35 406.35 Q424.6 403.65 417.4 388.9 L415.4 384.65 412.4 359.8 Q412.95 355.95 413.85 351.15 416.35 337.75 416.35 330.75 416.35 327.85 419.35 311.15 L421.15 300.55 Q425.4 308.65 431.05 318.3 L438.2 330.55 Q437.35 339.1 437.35 345.75 437.35 351.25 437.95 357.9 438.85 367.05 440.35 369.0 442.2 371.25 449.9 377.45 L449.8 377.4 Q448.15 389.7 441.45 408.05 M420.4 408.15 L418.4 408.15 417.55 401.55 419.85 406.35 420.4 408.15 M409.9 408.15 L404.15 408.2 Q398.8 365.7 390.85 313.75 387.95 294.7 382.35 276.2 380.25 269.3 372.3 246.75 366.35 230.0 363.85 218.65 360.35 202.55 360.35 185.1 360.35 179.75 362.35 161.4 364.35 143.05 364.35 119.5 L362.35 75.25 Q362.35 74.2 363.05 71.65 374.7 76.5 377.85 77.5 L382.65 79.3 382.6 80.9 381.6 81.0 Q381.35 82.5 381.35 84.75 381.35 107.1 378.85 123.1 376.35 139.1 376.35 146.25 376.35 157.6 387.1 217.5 389.2 229.75 393.7 242.5 L398.35 276.75 Q400.6 292.85 402.75 318.3 L406.35 360.0 406.75 364.85 Q406.35 368.0 406.35 370.85 406.35 374.35 407.45 378.5 L407.55 380.5 Q408.2 393.85 409.35 401.1 409.7 403.45 409.9 408.15 M400.15 408.2 L394.3 408.2 Q391.55 397.15 389.7 391.45 386.1 380.1 380.65 370.05 384.35 355.9 384.35 342.25 384.35 333.8 376.7 303.8 L359.85 240.3 Q339.35 162.25 336.0 124.2 L336.35 110.75 336.4 108.9 Q337.5 99.65 338.85 90.45 339.9 83.35 343.05 65.0 L345.75 65.0 Q347.05 65.0 357.95 69.5 L357.4 69.3 357.35 75.35 359.35 119.25 Q359.35 142.35 357.35 158.15 355.35 173.95 355.35 185.25 355.35 202.9 358.65 218.55 361.0 229.8 366.65 245.95 374.8 269.3 376.55 275.05 382.3 293.75 385.6 313.5 L396.25 377.75 Q398.65 393.9 400.15 408.2 M389.8 408.2 L378.35 408.25 Q376.35 399.35 376.35 394.6 376.35 387.85 378.7 377.7 384.65 389.05 388.45 402.9 L389.8 408.2 M372.2 408.25 L371.05 408.25 366.3 385.8 Q367.35 378.6 367.35 372.25 367.35 366.9 365.9 358.45 L370.35 364.5 375.0 371.25 Q371.35 385.75 371.35 394.6 371.35 401.05 372.2 408.25 M365.65 408.25 L361.1 408.25 363.7 398.9 365.65 408.25 M355.45 408.3 L344.4 408.3 Q343.25 403.1 340.95 397.45 343.35 381.4 343.35 367.1 343.35 345.95 334.15 312.9 330.75 300.75 313.85 249.05 300.9 209.4 294.5 182.35 299.6 152.4 309.85 118.25 L314.4 103.7 Q316.35 120.3 316.35 130.85 L316.2 169.75 Q316.25 192.65 317.1 208.5 319.2 247.4 328.1 286.5 332.65 306.15 348.2 331.95 L355.7 363.2 361.0 386.45 Q359.3 396.05 355.55 407.95 L355.45 408.3 M339.3 408.3 L339.05 408.3 339.15 407.75 339.3 408.3 M333.65 408.3 L326.55 408.35 321.2 388.8 314.4 365.95 314.4 364.6 315.35 365.9 Q323.75 377.25 328.0 383.9 332.7 391.2 335.6 397.7 L334.05 406.2 333.65 408.3 M321.3 408.35 L314.15 408.35 314.2 406.1 314.35 383.45 316.0 389.0 321.3 408.35 M309.15 408.35 L307.6 408.35 Q305.9 397.25 300.55 383.3 289.6 357.5 283.35 341.05 276.75 323.65 272.0 306.2 L272.35 297.25 272.35 295.15 273.7 298.55 Q282.7 320.4 300.85 346.05 L305.05 351.85 309.4 366.65 309.35 369.25 309.2 406.05 309.15 408.35 M302.45 408.35 L251.1 408.1 248.3 398.65 246.2 392.05 251.35 380.1 254.0 383.25 Q261.65 392.45 265.8 398.5 269.2 403.45 271.6 408.2 L277.1 408.25 Q274.55 402.85 270.8 397.25 266.55 390.85 259.0 381.65 L253.45 375.0 254.95 371.25 Q266.5 342.0 270.4 318.95 273.95 330.65 278.35 342.3 284.6 358.95 295.55 384.75 300.7 398.1 302.45 408.35 M246.05 408.1 L238.9 408.05 243.3 398.5 246.05 408.1 M229.85 408.0 L212.45 407.85 Q217.3 400.45 220.65 392.75 228.05 375.95 229.25 355.15 L230.8 360.0 231.0 360.55 231.35 373.35 Q231.35 397.4 230.5 403.7 L229.85 408.0 M208.05 407.85 L185.6 407.65 Q176.9 391.05 172.4 381.35 155.5 345.05 155.5 320.6 155.5 304.75 164.7 288.95 170.2 279.55 185.0 262.15 L194.45 250.7 Q197.65 262.5 199.5 273.65 204.5 303.75 204.5 349.5 204.5 375.05 202.8 389.6 L200.9 407.75 205.95 407.8 207.25 396.1 Q209.5 377.45 209.5 349.35 209.5 326.4 208.7 310.05 211.25 318.95 215.05 327.4 218.85 335.9 224.55 345.0 L224.5 347.5 Q223.95 383.0 208.05 407.85 M179.55 407.55 L165.1 407.35 165.45 403.35 165.5 400.75 Q165.5 389.5 161.15 383.8 158.4 380.25 151.5 377.1 144.35 373.8 141.9 370.95 137.5 365.95 137.5 355.85 137.5 321.3 143.3 293.3 147.25 274.05 156.0 250.55 166.45 222.5 168.7 214.35 173.95 195.55 174.45 175.65 175.6 186.2 177.5 195.2 180.0 207.25 188.5 231.65 L192.6 244.25 180.0 259.6 Q165.55 276.6 159.7 287.05 150.5 303.55 150.5 320.6 150.5 345.0 166.95 381.7 171.85 392.65 179.55 407.55 M160.0 407.15 L159.75 407.1 Q159.5 408.1 159.5 405.6 159.5 404.3 160.4 403.75 L160.0 407.15 M333.15 65.25 L332.65 71.2 332.5 76.6 Q331.95 79.2 331.55 81.95 330.35 90.65 330.35 110.85 L330.55 118.4 Q327.35 155.65 327.35 178.1 327.35 199.2 330.45 223.35 331.25 238.0 332.75 251.2 335.55 276.05 342.0 305.25 L345.9 322.35 Q340.0 311.7 335.9 299.4 330.05 281.85 326.1 252.25 323.6 233.6 322.8 198.5 L322.05 137.4 Q321.5 103.2 319.75 87.55 L323.95 75.0 327.05 65.55 333.15 65.25 M391.45 82.85 L399.85 86.45 Q407.8 89.9 412.15 91.0 410.35 107.2 410.35 118.1 410.35 134.2 416.05 152.8 419.95 165.45 430.85 191.25 446.35 227.45 446.35 265.1 446.35 270.05 445.85 276.2 L434.85 253.0 Q419.75 221.35 413.2 198.3 403.35 163.7 403.35 123.85 403.35 108.0 406.95 89.35 404.5 88.45 401.45 87.15 398.35 103.15 398.35 123.75 398.35 164.55 408.2 199.7 414.85 223.55 429.85 255.0 L441.4 279.25 444.75 286.65 441.85 305.25 Q440.1 315.15 439.05 323.5 L435.05 316.95 Q427.6 304.8 422.15 293.1 L422.35 289.5 Q422.35 288.1 411.05 264.05 405.45 245.9 401.6 224.25 397.55 201.25 394.1 139.85 391.8 99.05 391.45 82.85 M463.8 390.3 Q464.35 391.3 464.35 392.1 464.35 393.25 462.7 395.8 L463.8 390.3 M392.35 178.5 Q387.35 127.15 387.35 111.0 L387.45 101.45 389.8 140.3 392.35 178.5 M387.4 189.15 L386.5 183.85 Q381.35 152.4 381.35 146.25 381.35 142.2 382.8 130.55 383.85 155.25 387.4 189.15 M335.55 223.35 Q334.35 204.45 334.35 183.85 L335.15 155.9 Q341.2 190.85 354.85 242.4 L371.7 304.9 Q379.35 334.2 379.35 342.25 379.35 351.8 376.85 363.55 370.95 354.2 363.35 346.05 L361.9 340.1 349.85 294.7 Q339.85 255.85 335.55 223.35 M400.95 260.0 L404.7 267.6 411.5 279.95 Q414.1 286.2 417.15 292.55 416.55 298.3 414.15 310.35 411.1 325.65 411.35 330.0 411.9 338.6 410.75 345.95 L403.55 283.4 400.95 260.0 M350.2 316.55 L355.8 337.3 354.7 335.85 350.2 316.55 M358.55 348.05 Q361.2 359.35 362.0 366.65 L361.5 364.5 357.05 345.85 358.55 348.05 M292.45 195.6 Q298.6 219.4 308.85 250.7 326.3 304.05 329.15 314.15 338.35 346.75 338.35 367.1 338.35 377.15 336.85 388.95 L333.0 382.35 Q328.6 375.3 320.35 363.95 L314.5 355.9 314.6 341.3 Q314.75 326.55 314.1 316.6 312.4 290.45 302.6 259.5 298.0 244.75 289.5 228.95 290.05 213.0 292.45 195.6 M270.15 67.55 Q272.05 68.05 273.4 68.75 L278.8 71.35 Q281.55 72.2 286.3 72.45 282.9 76.05 280.9 87.6 279.35 96.75 279.35 103.85 279.35 115.35 280.35 127.5 L279.65 130.5 Q272.05 162.85 266.8 193.2 261.7 185.4 258.65 179.7 259.65 151.95 264.35 116.55 L268.5 85.55 Q269.7 75.2 270.15 67.55 M290.25 72.5 L296.85 71.95 295.7 72.15 295.25 73.4 Q290.05 88.6 284.45 110.75 L284.35 103.85 Q284.35 99.45 287.35 86.35 L290.35 73.85 290.25 72.5 M305.25 69.3 L306.6 68.75 309.35 68.0 309.35 69.0 312.55 89.45 Q302.6 122.45 297.85 141.75 294.1 157.05 291.55 169.15 287.3 148.25 285.55 129.2 L289.35 116.55 Q297.3 90.8 305.25 69.3 M313.6 67.1 L319.7 66.2 317.3 73.9 Q315.75 68.55 313.6 67.1 M263.7 82.6 L263.5 84.25 259.35 114.85 Q255.4 144.5 254.05 169.5 250.35 159.05 250.35 148.1 250.35 128.05 260.85 92.1 L263.7 82.6 M253.55 181.0 L253.35 194.25 Q253.35 202.8 253.6 211.2 L246.45 192.35 235.5 163.9 237.55 146.95 Q240.35 121.5 240.35 101.85 240.35 93.85 240.85 85.35 241.3 77.55 241.35 65.1 L242.25 65.0 263.65 66.2 Q257.4 79.5 252.3 99.85 245.35 127.65 245.35 148.1 245.35 161.55 251.3 175.95 L253.55 181.0 M254.5 229.1 Q256.3 256.8 261.15 281.8 263.55 294.25 266.9 306.65 264.5 332.65 249.7 370.45 L245.45 365.25 Q239.95 358.45 235.4 352.0 234.2 339.15 231.55 326.4 L230.15 320.1 231.35 261.25 Q231.35 249.3 230.25 241.85 229.6 237.45 227.5 229.55 L226.8 226.7 Q228.5 213.35 231.45 193.1 L234.05 174.6 241.45 193.65 Q249.4 214.05 254.5 229.1 M289.05 181.8 L287.35 191.8 Q285.4 205.05 284.75 220.5 279.9 212.35 274.1 204.0 L269.7 197.6 Q273.55 172.7 281.9 142.15 284.2 160.2 288.55 179.65 L289.05 181.8 M284.4 232.05 L284.35 237.75 Q284.35 262.4 289.3 289.45 292.95 309.4 300.55 336.35 286.25 315.05 278.7 297.05 273.25 284.1 270.25 270.85 L267.9 258.05 Q266.35 247.3 266.35 236.35 266.35 222.8 268.4 206.65 L282.35 228.55 284.4 232.05 M309.35 348.8 L306.4 338.7 Q298.2 310.1 294.35 289.25 289.7 264.15 289.4 241.2 293.85 250.0 296.6 258.0 307.65 289.6 309.35 315.75 310.0 325.45 309.75 340.55 L309.6 349.2 309.35 348.8 M202.8 139.9 Q196.65 128.95 194.05 122.8 189.5 111.9 189.5 103.0 189.5 92.5 194.5 78.1 L197.6 69.75 192.7 70.45 187.4 82.9 Q184.5 91.4 184.5 103.0 184.5 113.3 188.9 123.35 191.55 129.5 198.8 140.8 L202.25 146.3 Q201.35 157.7 200.9 169.75 L195.55 161.65 Q189.9 152.35 186.0 141.75 183.5 135.1 181.3 108.15 L180.95 103.95 Q182.4 96.9 184.5 89.75 188.95 76.95 190.55 70.8 L216.25 67.45 Q206.55 99.75 202.8 139.9 M181.8 72.4 L180.9 75.0 178.5 74.5 Q175.7 75.65 174.9 77.0 174.5 77.7 174.5 79.5 174.5 90.65 175.25 104.55 173.3 119.85 172.5 136.1 172.5 151.45 173.45 164.7 L171.2 157.4 Q169.7 153.0 164.0 138.55 153.5 111.95 153.5 102.0 153.5 100.2 155.5 93.25 L157.5 85.85 Q157.5 84.4 157.25 84.25 L157.0 84.0 156.9 84.0 162.55 80.45 Q169.3 75.95 172.75 74.75 176.15 73.55 181.8 72.4 M179.95 78.4 L179.5 80.05 179.5 79.5 Q179.5 78.7 179.95 78.4 M222.9 331.9 L220.05 326.15 Q208.5 300.9 208.5 271.85 L208.75 261.85 Q211.65 273.55 215.95 288.2 L217.75 294.4 Q218.5 310.0 221.35 324.75 L222.9 331.9 M204.7 242.85 Q203.75 255.55 203.55 266.55 201.3 255.5 198.15 245.85 L203.85 237.65 204.7 242.85 M196.05 239.65 Q186.1 210.4 182.05 188.75 177.5 164.65 177.5 136.35 177.5 133.3 177.65 130.2 178.75 137.35 180.25 141.0 184.45 151.45 190.35 160.95 L199.8 174.9 200.7 176.25 200.5 192.75 Q200.5 211.4 202.7 229.15 L200.3 233.35 196.05 239.65 M233.25 65.8 L234.95 65.65 234.45 65.7 234.4 66.0 234.35 72.75 Q234.35 114.35 231.15 152.05 L228.6 144.45 Q226.0 136.1 224.2 128.55 L233.25 65.8 M222.35 71.4 L223.55 66.7 226.85 66.4 Q226.2 70.05 225.7 74.1 224.55 83.65 222.75 102.75 L221.4 113.1 Q220.5 106.15 220.5 100.0 222.5 78.85 222.5 76.35 222.85 73.1 222.35 71.4 M219.05 128.7 L218.7 130.9 Q215.85 149.3 214.75 159.0 L214.45 161.45 Q212.3 156.8 207.75 148.65 210.25 124.15 215.5 99.55 L215.5 100.5 Q215.5 113.1 219.05 128.7 M213.4 170.15 L211.3 186.55 Q209.45 182.35 205.8 176.9 206.2 165.85 207.2 154.8 L209.3 159.0 Q211.85 164.5 213.4 170.15 M209.45 200.5 L207.45 215.2 207.05 218.8 206.75 219.65 Q205.5 206.4 205.5 192.75 L205.6 184.7 206.75 187.45 Q209.05 193.4 209.45 200.5 M210.0 243.35 Q210.95 232.2 212.5 218.3 214.5 210.8 214.5 203.25 L214.45 201.15 216.1 187.9 Q218.3 208.25 222.05 223.7 L220.15 237.6 Q218.0 256.05 217.6 274.9 212.6 257.1 210.3 244.9 L210.0 243.35 M218.3 171.3 L221.45 148.15 222.4 141.5 223.6 145.5 Q225.65 152.15 230.05 163.95 228.35 180.95 225.95 197.1 L223.8 211.65 Q221.75 198.75 220.5 182.5 220.1 177.25 218.3 171.3 M265.35 201.85 Q261.85 223.3 261.4 233.85 L259.4 227.6 Q258.35 211.4 258.35 194.25 L258.4 190.2 Q261.4 195.6 265.35 201.85 M262.9 258.75 Q264.45 266.0 265.5 272.95 L266.85 284.8 266.15 281.35 Q263.6 268.35 261.9 254.55 L262.9 258.75 M225.6 302.65 L222.7 292.55 222.5 283.35 Q222.5 264.15 225.3 238.95 L225.35 238.5 225.5 239.65 Q226.5 247.65 226.5 261.25 L225.6 302.65 M236.65 362.15 L240.45 366.95 247.6 375.6 243.8 384.6 236.65 362.15 M235.5 402.95 Q236.3 396.4 236.35 377.1 L240.9 391.1 235.5 402.95" fill="#d5fffb" fill-rule="evenodd" stroke="none"/>
      <path d="M447.8 408.0 L441.45 408.05 Q448.15 389.7 449.8 377.4 L449.9 377.45 454.45 381.1 Q452.95 391.05 449.05 404.0 L447.8 408.0 M361.1 408.25 L355.45 408.3 355.55 407.95 Q359.3 396.05 361.0 386.45 L363.7 398.9 361.1 408.25 M326.55 408.35 L323.4 408.35 321.3 408.35 316.0 389.0 314.35 383.45 309.4 366.65 305.05 351.85 313.7 363.65 314.4 365.95 321.2 388.8 326.55 408.35 M307.6 408.35 L302.45 408.35 Q300.7 398.1 295.55 384.75 284.6 358.95 278.35 342.3 273.95 330.65 270.4 318.95 L266.9 306.65 Q263.55 294.25 261.15 281.8 256.3 256.8 254.5 229.1 253.9 220.25 253.6 211.2 253.35 202.8 253.35 194.25 L253.55 181.0 254.05 169.5 Q255.4 144.5 259.35 114.85 L263.5 84.25 263.7 82.6 Q264.8 73.25 265.2 66.45 L267.5 66.85 267.55 66.85 267.65 66.9 267.8 66.9 267.9 66.95 268.5 67.1 268.65 67.15 269.6 67.4 270.15 67.55 Q269.7 75.2 268.5 85.55 L264.35 116.55 Q259.65 151.95 258.65 179.7 L258.4 190.2 258.35 194.25 Q258.35 211.4 259.4 227.6 260.25 241.45 261.9 254.55 263.6 268.35 266.15 281.35 L266.85 284.8 Q269.05 295.5 272.0 306.2 276.75 323.65 283.35 341.05 289.6 357.5 300.55 383.3 305.9 397.25 307.6 408.35 M332.0 102.6 L331.55 107.45 331.8 104.55 332.0 102.6 M331.3 109.9 Q330.35 134.6 329.35 183.75 329.35 204.7 330.45 223.35 327.35 199.2 327.35 178.1 327.35 155.65 330.55 118.4 L331.3 109.9 M339.1 65.05 L342.7 65.0 343.05 65.0 Q339.9 83.35 338.85 90.45 337.5 99.65 336.4 108.9 336.95 85.2 337.6 74.0 337.8 70.5 339.1 65.05 M388.55 81.65 L391.45 82.85 Q391.8 99.05 394.1 139.85 397.55 201.25 401.6 224.25 405.45 245.9 411.05 264.05 413.95 273.6 417.4 282.2 L422.15 293.1 Q427.6 304.8 435.05 316.95 L439.05 323.5 438.9 324.65 438.35 329.1 438.25 330.55 438.2 330.55 431.05 318.3 Q425.4 308.65 421.15 300.55 L419.1 296.5 417.15 292.55 Q414.1 286.2 411.5 279.95 402.8 259.45 398.8 240.3 394.9 204.8 392.35 178.5 L389.8 140.3 387.45 101.45 Q387.7 90.95 388.55 81.65 M335.55 223.35 Q339.85 255.85 349.85 294.7 L361.9 340.1 363.35 346.05 365.9 358.45 Q367.35 366.9 367.35 372.25 367.35 378.6 366.3 385.8 L362.0 366.65 Q361.2 359.35 358.55 348.05 L356.9 341.4 355.8 337.3 350.2 316.55 347.75 305.85 Q341.05 275.5 338.05 250.6 336.45 237.45 335.55 223.35 M292.45 195.6 Q290.05 213.0 289.5 228.95 L289.35 237.85 289.4 241.2 Q289.7 264.15 294.35 289.25 298.2 310.1 306.4 338.7 L309.35 348.8 305.85 344.0 300.55 336.35 Q292.95 309.4 289.3 289.45 284.35 262.4 284.35 237.75 L284.4 232.05 Q284.45 226.1 284.75 220.5 285.4 205.05 287.35 191.8 L289.05 181.8 291.55 169.15 Q294.1 157.05 297.85 141.75 302.6 122.45 312.55 89.45 L314.25 83.8 317.3 73.9 319.7 66.2 321.05 66.05 326.75 65.6 327.05 65.55 323.95 75.0 319.75 87.55 Q316.7 96.5 314.4 103.7 L309.85 118.25 Q299.6 152.4 294.5 182.35 293.3 189.05 292.45 195.6 M190.55 70.8 Q188.95 76.95 184.5 89.75 182.4 96.9 180.95 103.95 178.15 117.3 177.65 130.2 177.5 133.3 177.5 136.35 177.5 164.65 182.05 188.75 186.1 210.4 196.05 239.65 L197.25 243.25 198.15 245.85 Q201.3 255.5 203.55 266.55 203.75 255.55 204.7 242.85 L205.3 246.2 Q206.65 253.25 208.75 261.85 L208.5 271.85 Q208.5 300.9 220.05 326.15 L222.9 331.9 Q224.75 340.05 227.6 349.65 L224.55 345.0 Q218.85 335.9 215.05 327.4 211.25 318.95 208.7 310.05 209.5 326.4 209.5 349.35 209.5 377.45 207.25 396.1 L205.95 407.8 200.9 407.75 202.8 389.6 Q204.5 375.05 204.5 349.5 204.5 303.75 199.5 273.65 197.65 262.5 194.45 250.7 L192.6 244.25 188.5 231.65 Q180.0 207.25 177.5 195.2 175.6 186.2 174.45 175.65 L174.5 171.35 174.5 170.35 Q174.35 168.35 173.65 165.55 L173.45 164.75 173.45 164.7 Q172.5 151.45 172.5 136.1 173.3 119.85 175.25 104.55 L176.0 99.0 Q177.6 87.75 179.5 80.05 L179.95 78.4 180.9 75.0 181.8 72.4 190.55 70.8 M233.25 65.8 L224.2 128.55 222.4 141.5 221.45 148.15 218.3 171.3 216.1 187.9 214.45 201.15 212.5 218.3 Q210.95 232.2 210.0 243.35 207.95 232.1 206.85 220.55 L207.05 218.8 207.45 215.2 209.45 200.5 211.3 186.55 213.4 170.15 214.45 161.45 214.75 159.0 Q215.85 149.3 218.7 130.9 L219.05 128.7 221.4 113.1 222.75 102.75 Q224.55 83.65 225.7 74.1 226.2 70.05 226.85 66.4 L233.25 65.8 M235.4 352.0 Q239.95 358.45 245.45 365.25 L249.7 370.45 253.45 375.0 259.0 381.65 Q266.55 390.85 270.8 397.25 274.55 402.85 277.1 408.25 L271.6 408.2 Q269.2 403.45 265.8 398.5 261.65 392.45 254.0 383.25 L251.35 380.1 247.6 375.6 240.45 366.95 236.65 362.15 236.2 360.75 236.0 360.05 235.4 352.0" fill="#ffffff" fill-rule="evenodd" stroke="none"/>
      <path d="M418.4 408.15 L409.9 408.15 Q409.7 403.45 409.35 401.1 408.2 393.85 407.55 380.5 L407.45 378.5 406.75 364.85 406.35 360.0 402.75 318.3 Q400.6 292.85 398.35 276.75 L393.7 242.5 Q389.9 213.45 387.4 189.15 383.85 155.25 382.8 130.55 382.35 119.9 382.35 111.0 382.35 91.9 382.6 80.9 L382.65 79.3 386.45 80.8 387.45 81.2 388.55 81.65 Q387.7 90.95 387.45 101.45 L387.35 111.0 Q387.35 127.15 392.35 178.5 394.9 204.8 398.8 240.3 L400.95 260.0 403.55 283.4 410.75 345.95 412.4 359.8 415.4 384.65 417.55 401.55 418.4 408.15 M371.05 408.25 L365.65 408.25 363.7 398.9 361.0 386.45 355.7 363.2 348.2 331.95 345.9 322.35 342.0 305.25 Q335.55 276.05 332.75 251.2 331.25 238.0 330.45 223.35 329.35 204.7 329.35 183.75 330.35 134.6 331.3 109.9 L331.35 108.75 331.55 107.45 332.0 102.6 Q332.35 97.35 332.35 90.35 L332.5 76.6 332.65 71.2 333.15 65.25 335.9 65.15 336.6 65.1 339.1 65.05 Q337.8 70.5 337.6 74.0 336.95 85.2 336.4 108.9 L336.35 110.75 336.0 124.2 335.15 155.9 334.35 183.85 Q334.35 204.45 335.55 223.35 336.45 237.45 338.05 250.6 341.05 275.5 347.75 305.85 L350.2 316.55 354.7 335.85 357.05 345.85 361.5 364.5 362.0 366.65 366.3 385.8 371.05 408.25 M344.4 408.3 L340.05 408.3 339.65 408.3 339.3 408.3 339.15 407.75 Q337.95 402.95 335.6 397.7 332.7 391.2 328.0 383.9 323.75 377.25 315.35 365.9 L314.4 364.6 313.7 363.65 305.05 351.85 300.85 346.05 Q282.7 320.4 273.7 298.55 L272.35 295.15 Q268.1 284.15 265.5 272.95 264.45 266.0 262.9 258.75 261.35 247.8 261.35 236.6 L261.4 233.85 Q261.85 223.3 265.35 201.85 L266.7 193.65 266.8 193.2 Q272.05 162.85 279.65 130.5 L280.35 127.5 284.45 110.75 Q290.05 88.6 295.25 73.4 L295.7 72.15 296.85 71.95 297.95 71.7 299.15 71.4 299.3 71.35 300.15 71.1 300.45 71.0 300.75 70.9 305.0 69.4 305.25 69.3 Q297.3 90.8 289.35 116.55 L285.55 129.2 281.9 142.15 Q273.55 172.7 269.7 197.6 L268.4 206.65 Q266.35 222.8 266.35 236.35 266.35 247.3 267.9 258.05 L270.25 270.85 Q273.25 284.1 278.7 297.05 286.25 315.05 300.55 336.35 L305.85 344.0 309.35 348.8 309.6 349.2 314.5 355.9 320.35 363.95 Q328.6 375.3 333.0 382.35 L336.85 388.95 Q339.2 393.3 340.95 397.45 343.25 403.1 344.4 408.3 M251.1 408.1 L246.05 408.1 243.3 398.5 242.75 396.75 240.9 391.1 236.35 377.1 Q236.3 396.4 235.5 402.95 L235.45 403.3 234.65 408.0 233.15 408.0 229.85 408.0 230.5 403.7 Q231.35 397.4 231.35 373.35 L231.0 360.55 230.8 360.0 229.25 355.15 227.6 349.65 Q224.75 340.05 222.9 331.9 L221.35 324.75 Q218.5 310.0 217.75 294.4 L215.95 288.2 Q211.65 273.55 208.75 261.85 206.65 253.25 205.3 246.2 L204.7 242.85 203.85 237.65 202.7 229.15 Q200.5 211.4 200.5 192.75 L200.7 176.25 200.9 169.75 Q201.35 157.7 202.25 146.3 L202.8 139.9 Q206.55 99.75 216.25 67.45 L223.55 66.7 222.35 71.4 Q218.75 85.05 217.0 92.75 L215.5 99.55 Q210.25 124.15 207.75 148.65 L207.2 154.8 Q206.2 165.85 205.8 176.9 L205.6 184.7 205.5 192.75 Q205.5 206.4 206.75 219.65 L206.85 220.55 Q207.95 232.1 210.0 243.35 L210.3 244.9 Q212.6 257.1 217.6 274.9 218.0 256.05 220.15 237.6 L222.05 223.7 223.8 211.65 225.95 197.1 Q228.35 180.95 230.05 163.95 L231.15 152.05 Q234.35 114.35 234.35 72.75 L234.4 66.0 234.45 65.7 234.95 65.65 241.35 65.1 Q241.3 77.55 240.85 85.35 240.35 93.85 240.35 101.85 240.35 121.5 237.55 146.95 L235.5 163.9 234.05 174.6 231.45 193.1 Q228.5 213.35 226.8 226.7 L225.35 238.5 225.3 238.95 Q222.5 264.15 222.5 283.35 L222.7 292.55 225.6 302.65 230.15 320.1 231.55 326.4 Q234.2 339.15 235.4 352.0 L236.0 360.05 236.2 360.75 236.65 362.15 243.8 384.6 246.2 392.05 248.3 398.65 251.1 408.1" fill="#a3fef4" fill-rule="evenodd" stroke="none"/>
      <path d="M425.8 408.1 L420.4 408.15 419.85 406.35 417.55 401.55 415.4 384.65 417.4 388.9 Q424.6 403.65 425.35 406.35 L425.8 408.1 M378.35 408.25 L372.2 408.25 Q371.35 401.05 371.35 394.6 371.35 385.75 375.0 371.25 L378.7 377.7 Q376.35 387.85 376.35 394.6 376.35 399.35 378.35 408.25 M339.05 408.3 L333.65 408.3 334.05 406.2 335.6 397.7 Q337.95 402.95 339.15 407.75 L339.05 408.3 M238.9 408.05 L234.65 408.0 235.45 403.3 235.5 402.95 240.9 391.1 242.75 396.75 243.3 398.5 238.9 408.05 M185.6 407.65 L179.55 407.55 Q171.85 392.65 166.95 381.7 150.5 345.0 150.5 320.6 150.5 303.55 159.7 287.05 165.55 276.6 180.0 259.6 L192.6 244.25 194.45 250.7 185.0 262.15 Q170.2 279.55 164.7 288.95 155.5 304.75 155.5 320.6 155.5 345.05 172.4 381.35 176.9 391.05 185.6 407.65 M332.5 76.6 L332.35 90.35 Q332.35 97.35 332.0 102.6 L331.8 104.55 331.55 107.45 331.35 108.75 331.3 109.9 330.55 118.4 330.35 110.85 Q330.35 90.65 331.55 81.95 331.95 79.2 332.5 76.6 M336.0 124.2 Q339.35 162.25 359.85 240.3 L376.7 303.8 Q384.35 333.8 384.35 342.25 384.35 355.9 380.65 370.05 L376.85 363.55 Q379.35 351.8 379.35 342.25 379.35 334.2 371.7 304.9 L354.85 242.4 Q341.2 190.85 335.15 155.9 L336.0 124.2 M393.7 242.5 Q389.2 229.75 387.1 217.5 376.35 157.6 376.35 146.25 376.35 139.1 378.85 123.1 381.35 107.1 381.35 84.75 381.35 82.5 381.6 81.0 L382.6 80.9 Q382.35 91.9 382.35 111.0 382.35 119.9 382.8 130.55 381.35 142.2 381.35 146.25 381.35 152.4 386.5 183.85 L387.4 189.15 Q389.9 213.45 393.7 242.5 M417.15 292.55 L419.1 296.5 421.15 300.55 419.35 311.15 Q416.35 327.85 416.35 330.75 416.35 337.75 413.85 351.15 412.95 355.95 412.4 359.8 L410.75 345.95 Q411.9 338.6 411.35 330.0 411.1 325.65 414.15 310.35 416.55 298.3 417.15 292.55 M422.15 293.1 L417.4 282.2 Q413.95 273.6 411.05 264.05 422.35 288.1 422.35 289.5 L422.15 293.1 M411.5 279.95 L404.7 267.6 400.95 260.0 398.8 240.3 Q402.8 259.45 411.5 279.95 M406.75 364.85 L407.45 378.5 Q406.35 374.35 406.35 370.85 406.35 368.0 406.75 364.85 M336.85 388.95 Q338.35 377.15 338.35 367.1 338.35 346.75 329.15 314.15 326.3 304.05 308.85 250.7 298.6 219.4 292.45 195.6 293.3 189.05 294.5 182.35 300.9 209.4 313.85 249.05 330.75 300.75 334.15 312.9 343.35 345.95 343.35 367.1 343.35 381.4 340.95 397.45 339.2 393.3 336.85 388.95 M286.3 72.45 L289.85 72.5 290.25 72.5 290.35 73.85 287.35 86.35 Q284.35 99.45 284.35 103.85 L284.45 110.75 280.35 127.5 Q279.35 115.35 279.35 103.85 279.35 96.75 280.9 87.6 282.9 76.05 286.3 72.45 M253.6 211.2 Q253.9 220.25 254.5 229.1 249.4 214.05 241.45 193.65 L234.05 174.6 235.5 163.9 246.45 192.35 253.6 211.2 M266.9 306.65 L270.4 318.95 Q266.5 342.0 254.95 371.25 L253.45 375.0 249.7 370.45 Q264.5 332.65 266.9 306.65 M291.55 169.15 L289.05 181.8 288.55 179.65 Q284.2 160.2 281.9 142.15 L285.55 129.2 Q287.3 148.25 291.55 169.15 M180.95 103.95 L181.3 108.15 Q183.5 135.1 186.0 141.75 189.9 152.35 195.55 161.65 L200.9 169.75 200.7 176.25 199.8 174.9 190.35 160.95 Q184.45 151.45 180.25 141.0 178.75 137.35 177.65 130.2 178.15 117.3 180.95 103.95 M180.9 75.0 L179.95 78.4 Q179.5 78.7 179.5 79.5 L179.5 80.05 Q177.6 87.75 176.0 99.0 L175.25 104.55 Q174.5 90.65 174.5 79.5 174.5 77.7 174.9 77.0 175.7 75.65 178.5 74.5 L180.9 75.0 M198.15 245.85 L197.25 243.25 196.05 239.65 200.3 233.35 202.7 229.15 203.85 237.65 198.15 245.85 M224.2 128.55 Q226.0 136.1 228.6 144.45 L231.15 152.05 230.05 163.95 Q225.65 152.15 223.6 145.5 L222.4 141.5 224.2 128.55 M221.4 113.1 L219.05 128.7 Q215.5 113.1 215.5 100.5 L215.5 99.55 217.0 92.75 Q218.75 85.05 222.35 71.4 222.85 73.1 222.5 76.35 222.5 78.85 220.5 100.0 220.5 106.15 221.4 113.1 M211.3 186.55 L209.45 200.5 Q209.05 193.4 206.75 187.45 L205.6 184.7 205.8 176.9 Q209.45 182.35 211.3 186.55 M207.05 218.8 L206.85 220.55 206.75 219.65 207.05 218.8 M212.5 218.3 L214.45 201.15 214.5 203.25 Q214.5 210.8 212.5 218.3 M261.4 233.85 L261.35 236.6 Q261.35 247.8 262.9 258.75 L261.9 254.55 Q260.25 241.45 259.4 227.6 L261.4 233.85 M265.5 272.95 Q268.1 284.15 272.35 295.15 L272.35 297.25 272.0 306.2 Q269.05 295.5 266.85 284.8 L265.5 272.95 M247.6 375.6 L251.35 380.1 246.2 392.05 243.8 384.6 247.6 375.6" fill="#eefffd" fill-rule="evenodd" stroke="none"/>
      <path d="M42.5 148.4 L41.9 148.95 42.6 148.85 44.5 148.5 47.0 149.0 47.25 149.25 Q47.5 149.4 47.5 150.85 47.5 154.2 34.3 156.6 17.4 159.0 10.0 160.5 L-0.55 163.5 9.5 172.4 11.95 174.6 Q13.0 172.85 16.5 172.4 L22.3 171.8 30.0 170.5 33.0 171.0 33.25 171.25 Q33.5 171.4 33.5 172.85 33.5 174.9 27.05 177.25 21.25 179.4 17.4 179.5 L27.5 189.0 27.1 190.55 Q26.6 191.5 25.0 191.5 19.65 191.5 -5.05 164.85 L-5.95 165.1 Q-17.45 168.5 -22.0 168.5 L-25.25 168.0 Q-25.5 167.85 -25.5 165.35 -25.5 161.55 0.6 156.35 L3.2 155.85 Q0.4 154.2 -2.0 148.5 L-4.5 140.25 Q-4.5 138.45 -1.75 134.25 1.35 129.5 4.0 129.5 L6.2 129.75 Q6.5 130.0 6.5 131.85 6.5 132.9 3.5 136.0 0.5 139.05 0.5 140.5 0.5 143.15 4.5 148.5 L8.5 154.0 8.5 154.85 8.65 154.85 31.45 150.75 38.0 144.5 Q45.65 137.5 47.0 137.5 48.55 137.5 49.0 138.2 L49.5 139.5 Q49.35 142.25 42.5 148.4 M75.2 195.25 Q52.85 198.8 40.35 204.4 L40.5 205.0 Q40.5 208.9 22.05 224.55 11.15 233.75 4.5 237.65 L4.25 239.75 Q4.5 240.5 2.0 240.5 L0.45 239.7 Q-1.6 240.5 -3.0 240.5 -6.0 240.5 -7.25 239.25 -7.5 240.25 -7.5 237.75 L-5.75 236.9 Q-7.7 236.1 -9.7 235.4 -22.45 230.85 -29.0 233.5 L-30.8 232.9 Q-31.5 232.4 -31.5 230.75 -31.5 228.95 -29.0 227.8 -26.25 226.5 -21.5 226.5 -8.85 226.5 -1.0 231.5 0.2 232.25 1.15 233.1 L8.8 228.3 Q25.55 217.25 35.9 204.3 35.5 203.6 35.5 202.35 35.5 198.05 62.8 192.95 L95.5 187.5 98.0 188.0 98.25 188.25 98.5 189.85 Q98.5 191.4 92.4 192.6 L82.4 194.15 Q84.05 195.35 85.5 196.0 93.05 199.35 98.95 199.85 L101.7 200.05 Q102.5 200.15 102.5 200.85 102.5 202.85 101.0 203.25 L95.0 203.5 Q86.3 203.5 79.55 199.0 77.4 197.55 75.75 195.85 L75.2 195.25 M36.4 262.75 L36.35 262.75 36.95 263.3 Q40.4 266.3 44.5 267.0 L59.45 269.25 Q67.15 270.55 68.5 272.5 L67.15 274.75 Q66.55 275.5 65.0 275.5 L63.65 275.5 Q64.8 277.55 66.1 281.1 68.15 286.65 69.3 288.9 71.7 293.65 75.7 297.3 L77.85 296.95 83.5 296.5 91.9 297.35 96.75 298.1 96.75 298.0 99.5 297.5 103.65 296.8 Q105.25 297.0 110.0 301.75 L110.25 301.35 Q110.5 301.3 110.5 302.85 110.5 304.8 109.05 305.25 L106.7 305.5 Q109.1 308.85 109.5 312.25 109.5 313.5 107.0 313.5 104.05 313.5 101.0 308.9 98.5 305.1 98.5 304.0 L98.5 303.9 97.75 303.25 97.1 302.45 95.0 302.5 82.9 302.35 Q84.5 303.25 86.25 304.0 L86.5 305.5 86.0 306.8 Q85.55 307.5 84.0 307.5 73.0 307.5 65.75 294.55 63.35 290.25 61.75 285.25 60.5 281.4 60.5 280.25 60.5 277.3 62.0 275.5 45.2 275.05 36.5 270.0 30.55 266.5 30.5 263.55 20.7 265.05 12.5 267.5 5.2 269.65 -0.85 273.25 -4.85 275.65 -6.35 277.8 L-5.0 278.0 -4.75 278.25 Q-4.5 278.4 -4.5 279.85 L-5.55 281.0 16.0 294.75 16.25 294.35 Q16.5 294.3 16.5 295.85 16.5 297.75 15.05 298.25 L12.0 298.5 Q3.2 298.5 -4.0 290.9 -6.3 288.45 -8.1 285.55 L-9.0 284.05 -13.1 287.45 -30.0 301.5 -31.8 300.7 Q-32.5 300.05 -32.5 298.35 -32.5 294.8 -21.3 285.75 -15.7 281.3 -12.5 279.25 -12.45 272.15 7.5 264.55 21.15 259.35 31.5 258.0 31.5 253.5 49.0 247.5 L51.0 247.95 Q51.5 248.2 51.5 249.85 51.5 252.6 45.3 255.8 L41.6 257.75 Q44.5 258.2 44.5 259.85 44.5 261.2 42.45 261.8 L36.9 262.7 36.4 262.75 M61.5 328.0 Q76.7 335.65 92.7 339.45 100.65 341.35 105.5 341.85 105.5 343.3 105.3 343.5 104.85 344.0 104.75 344.25 L99.5 344.5 Q78.05 344.5 54.55 329.75 46.2 324.55 40.0 318.9 35.05 314.4 34.55 312.8 L34.55 312.7 34.5 312.85 Q34.5 320.8 39.5 336.5 L41.15 342.05 Q42.25 345.5 43.8 347.85 48.05 354.45 58.5 357.5 57.75 358.5 57.25 359.75 56.6 360.5 54.0 360.5 41.1 360.5 34.0 336.95 L32.65 332.0 Q31.8 328.55 31.1 324.8 L24.05 326.2 Q27.55 328.45 32.5 332.0 L32.35 333.4 Q32.05 333.3 32.0 333.5 L31.5 334.2 29.5 334.5 Q27.8 334.5 22.4 331.9 16.8 329.2 13.75 329.0 L13.6 328.15 -29.0 335.5 Q-34.05 335.5 -35.25 334.25 L-35.5 332.75 Q-35.5 331.65 -7.65 326.85 L13.7 323.3 13.75 323.0 16.5 322.5 17.5 322.7 23.0 322.0 Q23.0 321.5 27.5 321.5 L30.35 321.65 30.55 321.65 30.4 320.7 29.5 313.1 Q29.5 309.25 30.3 304.5 31.5 297.1 34.0 295.5 36.5 298.0 36.5 299.0 36.5 301.15 35.05 309.85 35.55 309.5 37.0 309.5 L47.15 317.65 Q57.95 326.2 61.5 328.0 M15.0 395.5 Q7.45 395.5 -10.75 377.6 L-22.55 365.15 Q-27.5 359.65 -27.5 359.35 -27.5 357.4 -27.2 357.0 -26.8 356.5 -25.0 356.5 -24.7 356.5 -7.25 371.45 L-0.45 377.3 -0.2 376.0 Q0.2 375.5 2.0 375.5 L11.85 376.1 Q22.35 376.9 27.0 378.0 L27.25 378.25 27.5 379.85 Q27.5 383.5 13.5 383.5 L6.15 383.05 17.5 393.0 17.1 394.55 Q16.6 395.5 15.0 395.5" fill="#000000" fill-rule="evenodd" stroke="none"/>
      <path d="M164.25 146.85 Q165.35 145.1 165.35 143.25 165.35 141.65 164.55 141.15 L162.85 140.5 157.35 146.05 Q153.35 149.55 147.5 151.5 L146.75 151.75 134.75 152.25 134.7 151.45 Q142.5 149.25 142.5 147.85 142.5 146.4 142.25 146.25 L142.0 146.0 138.0 145.5 Q109.95 153.35 95.05 156.0 96.65 159.5 98.5 165.0 98.5 166.65 98.05 167.25 97.1 168.5 94.0 168.5 90.2 168.5 85.9 165.3 82.85 163.05 81.5 161.0 L81.5 157.95 68.2 159.25 62.5 159.25 Q60.5 158.25 55.5 158.75 L55.5 161.0 Q56.6 161.5 57.2 162.35 57.8 163.15 58.55 163.45 L60.5 163.9 Q45.85 169.25 42.0 169.25 L20.55 168.1 Q31.9 167.3 40.25 165.0 49.5 162.45 49.5 160.85 49.5 159.2 49.0 158.95 L47.0 158.5 Q25.85 162.95 8.9 163.0 L6.0 162.5 Q4.6 162.5 4.1 162.95 L-0.4 162.65 Q-1.35 160.75 -3.25 158.1 L-4.55 156.3 -3.5 154.5 Q-9.9 150.55 -14.75 135.5 -18.5 123.9 -18.5 119.0 -18.5 117.4 -17.55 115.45 L-17.5 115.45 Q-16.75 119.5 -13.0 119.5 -10.5 119.5 -10.75 118.5 L-10.5 116.25 Q-10.5 115.0 -11.5 113.25 -12.5 111.5 -12.5 110.25 -12.5 108.25 -10.7 104.1 -8.7 99.5 -5.7 95.3 -1.2 88.95 3.55 86.2 L3.5 86.75 Q3.5 90.0 6.0 92.5 L8.25 91.75 Q8.55 87.5 10.95 84.0 L11.0 84.0 Q16.25 84.0 22.8 85.65 24.0 85.95 24.45 85.4 24.85 84.95 25.5 82.5 24.9 81.0 23.3 80.15 21.3 79.0 16.35 78.65 L18.45 77.3 Q25.25 73.35 35.65 71.8 27.5 74.5 27.5 76.35 27.5 78.05 28.2 78.7 28.55 79.0 30.0 79.5 L32.6 78.15 Q35.2 76.85 38.35 75.9 47.0 73.2 59.7 72.85 L61.2 73.65 66.0 76.5 Q67.55 76.5 67.9 76.05 L68.25 75.0 68.5 73.85 68.35 72.9 Q90.35 74.35 95.8 91.45 L96.2 92.7 Q90.1 91.5 84.0 91.5 79.5 91.5 79.5 94.75 79.5 97.25 79.75 96.25 L80.2 97.15 Q80.45 97.5 82.0 97.5 90.2 97.5 97.35 98.75 L97.9 105.8 Q98.3 114.0 99.0 115.5 L101.5 114.25 101.5 99.65 Q111.85 102.1 119.5 107.5 124.85 111.25 127.9 115.8 130.5 119.65 130.5 122.5 L130.35 124.0 Q124.5 124.9 124.5 127.35 124.5 129.85 124.75 130.0 L127.8 130.35 Q126.5 132.9 126.5 133.75 126.5 135.4 127.2 135.9 L129.0 136.5 133.55 130.45 144.05 129.55 Q145.7 129.45 146.1 130.2 146.5 130.8 146.5 133.25 146.5 134.0 144.5 137.05 142.5 140.05 142.5 140.75 142.5 142.4 143.2 142.9 L145.0 143.5 150.7 137.8 Q151.5 136.8 151.5 133.0 151.5 131.0 150.95 129.45 L158.15 131.75 Q170.5 135.45 173.2 140.0 L171.6 142.45 168.35 144.45 Q165.45 146.0 164.65 147.05 L164.25 146.85 M22.5 174.45 Q25.6 176.45 30.75 182.85 29.6 183.55 28.5 185.5 31.5 188.0 33.75 189.3 34.1 189.6 34.3 190.6 L34.5 193.35 Q34.5 194.15 31.75 196.25 L29.9 194.55 29.85 194.5 31.1 192.5 Q31.5 191.6 31.5 190.85 31.5 189.3 30.7 188.95 L29.0 188.5 Q28.0 188.85 26.25 190.9 L24.45 193.2 Q21.7 197.0 18.85 197.0 17.15 197.0 15.5 196.0 13.5 194.75 13.5 193.0 13.5 186.35 18.0 180.9 L18.8 180.05 21.1 177.5 Q22.5 176.0 22.5 175.25 L22.5 174.45 M63.55 218.05 L63.5 218.35 Q63.5 220.85 63.75 221.0 L66.5 221.5 Q68.6 221.5 68.25 221.05 L67.65 220.15 Q67.9 219.5 71.75 219.2 L71.75 219.25 71.85 220.1 Q72.1 220.5 74.0 220.5 76.5 220.5 76.25 219.5 L76.35 218.9 Q80.45 218.75 86.5 218.75 93.2 218.75 93.8 222.4 L94.15 225.85 94.65 227.55 93.5 227.5 Q88.0 227.5 86.5 229.0 98.25 230.9 104.55 237.9 L106.5 240.3 108.05 242.6 108.35 243.05 Q110.15 245.85 111.0 246.5 L111.9 246.1 Q114.5 248.65 114.5 250.5 L99.25 254.15 99.0 254.15 Q98.8 253.95 97.0 253.5 95.2 253.9 95.3 254.5 L95.55 255.4 81.0 256.25 Q77.45 256.25 70.4 251.4 L70.3 251.3 70.25 251.25 70.0 251.0 69.75 250.95 Q63.35 246.5 62.0 246.5 L60.2 246.75 59.75 247.0 59.5 250.0 59.45 250.6 49.6 251.0 50.5 249.5 42.2 246.05 Q38.5 244.5 38.5 242.0 38.5 241.55 38.65 241.15 L39.25 240.65 39.8 239.7 40.4 238.7 40.5 238.5 40.45 238.45 40.5 237.85 Q40.5 236.2 40.0 235.95 L38.0 235.5 37.4 235.8 34.55 234.1 Q31.25 232.4 30.75 230.75 34.8 229.0 40.7 227.4 L41.3 228.95 Q42.55 231.5 45.0 231.5 47.5 231.5 47.5 230.25 46.4 228.05 46.6 225.95 51.5 224.7 51.5 222.85 L51.25 221.25 51.0 221.0 50.55 220.25 Q54.65 218.0 63.0 218.0 L63.55 218.05 M82.0 273.75 L82.45 274.3 82.5 275.75 Q82.5 279.1 72.5 281.8 L70.45 282.35 70.5 281.85 Q70.5 280.9 70.2 280.4 73.4 278.85 74.2 276.25 L74.45 274.75 76.9 274.35 82.0 273.75 M20.15 250.45 L20.15 250.65 19.0 250.5 16.8 250.7 Q16.5 250.95 16.5 252.75 16.5 254.25 18.0 257.3 19.5 260.3 19.5 261.0 19.5 262.2 17.95 263.5 L17.5 263.5 14.55 263.7 Q13.5 264.1 13.5 265.75 L13.5 266.4 Q12.5 267.2 12.5 267.75 12.5 269.3 12.7 269.55 L13.5 270.0 15.5 270.5 Q17.45 270.5 19.1 269.75 L22.25 271.0 Q26.5 272.95 26.5 275.0 L26.05 276.95 Q25.45 277.3 25.05 278.0 L24.65 278.7 Q23.3 279.95 21.0 281.05 15.5 283.7 15.5 284.75 L15.5 284.9 8.6 286.0 8.5 285.25 Q8.5 283.55 8.0 283.15 7.8 282.95 6.0 282.5 2.2 284.2 -1.05 284.6 -5.0 281.5 -6.0 281.5 -7.55 281.5 -8.1 282.15 L-8.5 282.75 -8.25 283.45 -10.5 282.0 -10.5 281.85 Q-10.5 280.3 -10.75 280.35 L-11.0 280.75 -12.45 280.15 -14.55 277.65 Q-16.25 275.5 -17.0 275.5 L-18.8 275.75 -19.25 276.0 -19.45 276.25 Q-26.9 270.8 -27.45 263.05 -26.55 266.5 -22.5 266.5 -20.55 266.5 -19.8 265.65 L-18.5 263.5 Q-20.1 261.15 -21.7 260.5 -22.5 260.1 -22.5 258.5 -23.05 256.9 -21.95 255.25 -19.8 252.0 -11.5 252.0 L-6.45 252.3 -6.5 252.85 -6.25 256.85 Q-5.5 260.5 -3.0 260.5 -0.5 260.5 -0.75 259.5 L-0.5 256.85 Q-1.8 254.8 -1.55 252.95 L2.4 253.6 4.55 253.35 Q5.05 252.85 5.5 250.5 4.9 249.55 3.25 248.7 L9.85 248.0 Q19.25 248.0 20.15 250.45 M64.5 265.35 Q64.5 266.55 67.0 268.0 68.85 269.05 69.35 270.4 68.5 271.2 68.5 272.35 68.5 272.7 69.05 273.4 L68.5 274.55 Q67.5 276.5 67.5 277.75 67.5 278.9 67.85 279.5 L64.65 279.8 63.0 277.5 Q61.1 278.6 60.25 280.3 L55.2 280.9 Q52.5 281.2 52.5 279.75 52.5 278.25 54.0 275.25 55.45 272.3 55.5 270.45 L56.0 270.5 Q58.5 270.5 57.75 269.75 59.9 266.55 64.45 265.15 L64.5 265.35 M62.2 326.4 Q72.25 327.55 74.1 329.8 72.5 330.65 72.5 331.75 L72.55 332.7 70.45 333.75 70.5 333.5 69.75 332.2 Q69.1 331.5 67.5 331.5 64.9 331.5 63.05 335.5 L62.75 336.25 Q58.4 336.0 56.75 334.05 55.5 332.65 55.5 328.5 55.5 326.95 56.8 322.75 58.3 318.1 58.5 316.5 L57.75 315.2 Q57.1 314.5 55.5 314.5 54.5 314.5 53.65 315.4 53.85 313.2 58.25 312.75 59.35 313.85 60.5 315.95 61.5 317.85 61.5 318.5 61.5 319.75 60.5 321.15 59.5 322.5 59.5 323.75 59.5 325.4 60.2 325.9 L60.55 326.0 Q60.6 326.95 60.75 326.25 L61.5 326.35 62.0 326.5 62.2 326.4 M68.5 337.2 L68.65 337.0 Q68.8 337.6 69.2 337.9 L71.0 338.5 Q76.75 338.1 78.55 335.35 L79.1 334.25 Q85.5 336.2 85.5 341.75 85.5 343.4 81.0 346.2 L80.3 346.65 69.5 347.05 Q67.75 346.85 67.1 345.75 66.5 344.65 66.5 341.75 L66.65 340.8 Q68.5 339.85 68.5 337.85 L68.5 337.2 M12.25 322.8 Q14.5 325.15 14.5 328.0 14.5 331.1 9.5 335.65 L8.55 336.55 Q8.0 336.65 7.5 337.05 L7.5 336.85 Q7.5 335.3 6.7 334.95 L5.0 334.5 0.85 337.45 Q-3.0 340.25 -5.25 340.25 -6.9 340.25 -7.3 338.95 -7.5 338.35 -7.5 335.75 -6.5 331.25 -7.0 329.0 L-8.5 328.7 -8.5 328.5 Q-8.5 327.25 -9.5 325.5 -10.5 323.75 -10.5 322.5 -10.5 319.8 -8.25 315.75 L-6.75 317.0 Q-6.3 318.65 -6.1 320.45 L-5.1 322.25 Q-5.5 323.4 -5.5 324.5 L-5.55 327.15 Q-5.0 329.5 -2.0 329.5 -0.45 329.5 0.0 328.8 L0.5 327.5 Q-0.5 324.55 -0.4 322.95 -0.2 320.0 5.35 320.0 9.65 320.0 12.25 322.8 M53.5 405.5 L56.5 410.05 56.65 410.25 Q55.0 412.3 50.0 414.8 L42.6 418.7 42.0 418.5 Q40.95 418.95 39.55 421.3 L37.25 425.05 34.5 426.75 34.55 428.1 Q29.6 432.25 21.0 432.25 17.9 432.25 11.2 425.65 15.5 423.05 15.5 420.85 15.5 419.3 14.7 418.95 L13.0 418.5 Q12.15 418.65 11.1 419.65 L8.85 421.6 8.0 422.15 2.0 415.5 0.2 415.75 -0.25 416.0 -0.5 418.25 0.95 421.5 2.4 423.95 -2.25 424.25 Q-5.85 424.25 -7.5 418.3 L-7.95 416.4 -5.5 416.5 Q-2.45 416.5 -0.95 415.4 0.5 414.35 0.5 412.25 0.5 410.55 0.0 410.15 -0.2 409.95 -2.0 409.5 -5.65 410.8 -8.5 410.7 L-8.5 410.35 Q-8.5 409.1 -7.5 405.1 -6.5 401.1 -6.5 399.85 -6.5 398.1 -7.05 397.75 L-9.5 397.5 Q-11.65 397.5 -12.7 402.25 -13.4 405.35 -13.5 408.9 L-14.85 407.5 Q-17.5 404.2 -17.5 399.25 -17.5 394.25 -11.5 384.35 L-10.8 383.35 -10.0 383.5 Q1.3 376.7 1.5 373.95 L1.5 373.85 1.45 372.6 Q2.4 371.0 15.0 371.0 27.15 371.0 27.1 372.75 L26.9 373.55 Q26.0 373.85 25.25 374.25 22.5 375.75 22.5 378.0 22.5 380.65 25.0 381.5 27.55 380.5 27.35 378.9 28.45 377.75 39.25 377.75 44.55 377.75 47.5 386.05 49.2 390.8 49.45 394.45 L49.0 394.5 Q48.25 394.5 46.95 395.5 45.5 396.65 45.5 397.75 45.5 400.25 45.75 399.25 L48.35 400.75 Q47.5 403.6 47.5 404.75 47.5 406.4 48.2 406.9 L50.0 407.5 Q51.7 406.55 52.8 405.05 L53.5 405.5 M54.5 395.5 Q54.8 391.7 54.05 388.0 L55.95 386.6 Q58.55 385.0 62.35 385.0 66.3 385.0 67.5 386.2 68.25 386.95 68.05 388.75 L64.75 389.0 Q64.5 390.5 64.5 392.0 64.5 394.65 67.0 395.5 L67.5 395.0 Q67.9 396.4 69.0 397.5 71.35 396.2 72.15 393.75 74.8 394.75 77.5 399.75 76.65 401.5 71.4 403.55 66.5 405.4 66.5 406.75 66.5 408.3 66.7 408.55 L67.35 408.95 65.35 409.0 Q63.85 409.0 62.5 408.3 L62.5 408.1 Q62.5 404.75 60.5 401.0 58.35 397.0 54.5 395.5 M53.5 350.0 L54.65 350.9 Q53.5 351.6 52.5 353.5 55.55 355.45 59.8 357.65 62.5 359.4 62.5 361.75 62.5 363.45 58.5 366.2 L57.1 367.25 Q50.0 365.75 50.0 365.25 50.0 364.25 51.75 360.6 53.5 356.95 53.5 355.5 L52.75 354.2 52.3 353.85 51.35 353.55 Q51.05 351.25 51.25 350.0 L53.5 350.0 M112.5 302.5 Q108.0 302.5 106.5 304.0 108.15 308.95 112.0 308.5 L115.15 307.95 Q117.0 307.8 118.25 308.75 122.5 312.0 122.5 314.75 122.5 315.6 122.1 316.55 L121.25 316.75 121.0 317.0 121.15 318.1 118.0 321.1 Q113.5 324.6 113.5 325.75 113.5 327.4 114.2 327.9 L116.0 328.5 121.5 325.05 121.5 328.0 Q121.15 330.45 114.25 333.7 109.15 336.1 107.95 337.2 L105.8 336.7 106.5 335.5 Q99.1 329.65 97.55 328.0 94.5 324.8 94.5 321.25 L94.6 320.85 100.0 321.5 Q102.6 321.5 103.25 320.75 103.75 319.5 104.5 318.5 L97.05 316.0 100.0 316.0 100.5 313.25 100.25 311.45 100.0 311.0 96.0 310.5 95.5 309.95 Q96.5 307.6 96.5 306.35 L97.0 305.5 Q97.95 305.3 100.1 303.6 103.4 302.0 110.35 302.0 L112.55 302.15 112.5 302.5 M87.65 348.8 L87.95 351.3 Q88.4 354.3 88.25 356.0 85.05 356.3 83.7 353.95 L82.4 352.15 Q85.5 351.4 87.65 348.8" fill="#ff8e44" fill-rule="evenodd" stroke="none"/>
      <path d="M69.75 250.95 L70.0 251.0 70.25 251.25 70.3 251.3 70.35 251.35 69.75 250.95 M62.2 326.4 L62.0 326.5 61.5 326.35 62.2 326.4" fill="#ff4444" fill-rule="evenodd" stroke="none"/>
      <path d="M134.75 152.25 L146.75 151.75 147.5 151.5 Q153.35 149.55 157.35 146.05 L162.85 140.5 164.55 141.15 Q165.35 141.65 165.35 143.25 165.35 145.1 164.25 146.85 L163.3 148.15 164.35 147.7 164.65 147.05 Q165.45 146.0 168.35 144.45 L171.6 142.45 173.2 140.0 Q170.5 135.45 158.15 131.75 L150.95 129.45 Q151.5 131.0 151.5 133.0 151.5 136.8 150.7 137.8 L145.0 143.5 143.2 142.9 Q142.5 142.4 142.5 140.75 142.5 140.05 144.5 137.05 146.5 134.0 146.5 133.25 146.5 130.8 146.1 130.2 145.7 129.45 144.05 129.55 L133.55 130.45 129.0 136.5 127.2 135.9 Q126.5 135.4 126.5 133.75 126.5 132.9 127.8 130.35 L124.75 130.0 Q124.5 129.85 124.5 127.35 124.5 124.9 130.35 124.0 L130.5 122.5 Q130.5 119.65 127.9 115.8 124.85 111.25 119.5 107.5 111.85 102.1 101.5 99.65 L101.5 114.25 99.0 115.5 Q98.3 114.0 97.9 105.8 L97.35 98.75 Q90.2 97.5 82.0 97.5 80.45 97.5 80.2 97.15 L79.75 96.25 Q79.5 97.25 79.5 94.75 79.5 91.5 84.0 91.5 90.1 91.5 96.2 92.7 L95.8 91.45 Q90.35 74.35 68.35 72.9 L68.5 73.85 68.25 75.0 67.9 76.05 Q67.55 76.5 66.0 76.5 L61.2 73.65 59.7 72.85 Q47.0 73.2 38.35 75.9 35.2 76.85 32.6 78.15 L30.0 79.5 Q28.55 79.0 28.2 78.7 27.5 78.05 27.5 76.35 27.5 74.5 35.65 71.8 25.25 73.35 18.45 77.3 L16.35 78.65 Q21.3 79.0 23.3 80.15 24.9 81.0 25.5 82.5 24.85 84.95 24.45 85.4 24.0 85.95 22.8 85.65 16.25 84.0 11.0 84.0 L10.95 84.0 Q8.55 87.5 8.25 91.75 L6.0 92.5 Q3.5 90.0 3.5 86.75 L3.55 86.2 Q-1.2 88.95 -5.7 95.3 -8.7 99.5 -10.7 104.1 -12.5 108.25 -12.5 110.25 -12.5 111.5 -11.5 113.25 -10.5 115.0 -10.5 116.25 L-10.75 118.5 Q-10.5 119.5 -13.0 119.5 -16.75 119.5 -17.5 115.45 L-17.5 115.3 -17.55 115.45 Q-18.5 117.4 -18.5 119.0 -18.5 123.9 -14.75 135.5 -9.9 150.55 -3.5 154.5 L-4.55 156.3 -3.25 158.1 Q-1.35 160.75 -0.4 162.65 L4.1 162.95 Q4.6 162.5 6.0 162.5 L8.9 163.0 Q25.85 162.95 47.0 158.5 L49.0 158.95 Q49.5 159.2 49.5 160.85 49.5 162.45 40.25 165.0 31.9 167.3 20.55 168.1 L42.0 169.25 Q45.85 169.25 60.5 163.9 L58.55 163.45 Q57.8 163.15 57.2 162.35 56.6 161.5 55.5 161.0 L55.5 158.75 Q60.5 158.25 62.5 159.25 L68.2 159.25 81.5 157.95 81.5 161.0 Q82.85 163.05 85.9 165.3 90.2 168.5 94.0 168.5 97.1 168.5 98.05 167.25 98.5 166.65 98.5 165.0 96.65 159.5 95.05 156.0 109.95 153.35 138.0 145.5 L142.0 146.0 142.25 146.25 Q142.5 146.4 142.5 147.85 142.5 149.25 134.7 151.45 L132.75 151.95 134.75 152.25 M30.75 182.85 Q31.35 182.5 32.0 182.5 38.25 182.5 39.5 187.75 40.15 190.4 39.5 193.0 L39.7 195.45 Q39.85 197.15 39.55 198.25 38.55 201.5 33.0 201.5 27.15 201.5 25.8 198.75 L25.8 198.7 Q21.4 202.5 19.0 202.5 13.55 202.5 10.5 198.05 8.5 195.1 8.5 193.1 8.5 186.75 10.9 181.35 13.4 175.55 18.0 173.05 13.6 171.9 10.15 169.95 L7.85 168.5 Q-7.7 168.45 -16.5 162.5 L-16.5 160.25 -15.4 159.9 -13.0 159.5 Q-11.8 159.5 -10.55 160.05 L-8.7 160.85 -9.5 157.5 -9.5 157.25 Q-17.95 155.2 -21.5 139.0 -22.8 133.1 -23.25 125.9 L-23.5 119.1 Q-23.5 115.15 -21.75 110.5 -19.55 104.7 -15.65 103.7 -13.8 98.25 -10.95 93.5 -3.5 80.9 7.25 78.9 10.45 75.65 16.3 72.65 29.6 65.75 46.0 65.75 L51.0 65.5 Q58.45 65.5 62.9 67.55 L64.0 67.5 Q84.75 67.5 94.6 81.25 97.85 85.8 99.75 91.7 L100.3 93.65 Q109.4 96.1 118.3 101.3 135.5 111.35 135.5 122.6 L135.5 123.0 135.5 123.6 135.55 123.6 139.0 123.5 Q143.6 123.5 146.5 124.8 146.55 123.35 146.8 123.0 147.2 122.5 149.0 122.5 158.1 122.5 168.85 130.5 172.55 133.3 175.3 136.15 175.85 135.5 176.35 135.5 179.35 135.5 179.35 138.25 179.35 141.1 177.5 143.8 L176.4 145.2 Q174.05 147.8 169.85 150.25 160.65 155.6 145.7 157.0 129.8 161.5 105.5 161.5 103.35 161.5 110.5 171.45 93.5 180.5 84.35 172.5 75.2 164.5 74.5 164.5 69.1 166.45 60.55 168.75 39.05 174.5 31.0 174.5 L22.55 173.95 22.4 173.9 22.5 174.45 22.5 175.25 Q22.5 176.0 21.1 177.5 L18.8 180.05 18.0 180.9 Q13.5 186.35 13.5 193.0 13.5 194.75 15.5 196.0 17.15 197.0 18.85 197.0 21.7 197.0 24.45 193.2 L26.25 190.9 Q28.0 188.85 29.0 188.5 L30.7 188.95 Q31.5 189.3 31.5 190.85 31.5 191.6 31.1 192.5 L29.85 194.5 29.9 194.55 31.75 196.25 Q34.5 194.15 34.5 193.35 L34.3 190.6 Q34.1 189.6 33.75 189.3 31.5 188.0 28.5 185.5 29.6 183.55 30.75 182.85 M116.45 155.6 L122.15 155.4 121.1 154.65 116.45 155.6 M99.25 254.15 L114.5 250.5 Q114.5 248.65 111.9 246.1 L111.0 246.5 Q110.15 245.85 108.35 243.05 L108.05 242.6 106.5 240.3 104.55 237.9 Q98.25 230.9 86.5 229.0 88.0 227.5 93.5 227.5 L94.65 227.55 94.15 225.85 93.8 222.4 Q93.2 218.75 86.5 218.75 80.45 218.75 76.35 218.9 L76.25 219.5 Q76.5 220.5 74.0 220.5 72.1 220.5 71.85 220.1 L71.75 219.25 71.75 219.2 Q67.9 219.5 67.65 220.15 L68.25 221.05 Q68.6 221.5 66.5 221.5 L63.75 221.0 Q63.5 220.85 63.5 218.35 L63.55 218.05 63.55 218.0 63.0 218.0 Q54.65 218.0 50.55 220.25 50.0 220.5 49.6 220.85 L51.0 221.0 51.25 221.25 51.5 222.85 Q51.5 224.7 46.6 225.95 46.4 228.05 47.5 230.25 47.5 231.5 45.0 231.5 42.55 231.5 41.3 228.95 L40.7 227.4 Q34.8 229.0 30.75 230.75 31.25 232.4 34.55 234.1 L37.4 235.8 38.0 235.5 40.0 235.95 Q40.5 236.2 40.5 237.85 L40.45 238.45 40.5 238.5 40.4 238.7 39.8 239.7 39.25 240.65 38.65 241.15 Q38.5 241.55 38.5 242.0 38.5 244.5 42.2 246.05 L50.5 249.5 49.6 251.0 59.45 250.6 60.5 250.55 59.5 250.0 59.75 247.0 60.2 246.75 62.0 246.5 Q63.35 246.5 69.75 250.95 L70.35 251.35 70.4 251.4 Q77.45 256.25 81.0 256.25 L95.55 255.4 95.3 254.5 Q95.2 253.9 97.0 253.5 98.8 253.95 99.0 254.15 L99.05 254.2 99.25 254.15 M98.5 221.5 L98.5 227.9 Q105.35 229.05 110.0 233.45 113.4 236.7 114.25 239.2 116.1 240.7 117.5 243.55 119.0 246.6 119.5 249.85 119.5 253.2 115.5 256.0 110.45 259.5 101.5 259.5 L97.7 259.2 96.75 259.75 Q93.4 261.5 87.0 261.5 76.65 261.5 68.75 256.6 L67.7 255.8 55.0 256.5 Q44.05 256.5 41.75 255.25 41.0 254.85 41.15 254.35 L41.5 253.75 Q41.5 252.8 42.65 252.2 37.7 251.2 35.25 247.0 34.25 245.3 33.75 243.2 L33.5 241.35 33.5 241.0 Q30.65 239.9 28.3 236.75 25.5 233.1 25.5 231.1 25.5 227.15 31.5 224.15 36.0 221.9 42.4 221.0 43.75 219.2 46.05 217.5 52.65 212.5 63.0 212.5 68.85 212.5 72.35 213.8 L78.0 213.5 Q90.15 213.5 95.1 217.05 97.7 218.9 98.5 221.5 M82.0 273.75 L76.9 274.35 74.45 274.75 74.2 276.25 Q73.4 278.85 70.2 280.4 70.5 280.9 70.5 281.85 L70.45 282.35 72.5 281.8 Q82.5 279.1 82.5 275.75 L82.45 274.3 82.0 273.75 M82.0 283.5 Q75.5 288.5 67.0 288.5 L66.3 288.5 65.0 288.5 59.75 288.0 59.6 286.45 57.0 286.5 Q49.1 286.5 47.5 283.5 47.0 282.55 47.2 281.45 L47.5 280.5 Q47.5 277.4 49.15 273.8 L52.8 266.9 52.5 265.5 Q52.5 263.8 55.25 262.25 58.4 260.5 63.0 260.5 67.35 260.5 68.8 261.55 L69.5 261.5 Q73.3 261.5 74.3 266.65 L74.55 268.65 77.5 268.5 Q85.4 268.5 87.25 271.9 88.15 273.65 87.5 275.6 87.5 279.25 82.0 283.5 M22.55 247.0 Q25.5 249.9 25.5 251.85 25.5 254.1 23.85 255.5 24.4 257.75 24.5 261.1 24.5 262.95 23.85 264.6 26.95 265.85 29.0 268.5 31.5 271.7 31.5 274.5 31.5 276.3 30.4 278.6 L30.5 279.25 Q30.5 282.55 22.95 286.8 14.6 291.5 5.5 291.5 0.65 291.5 -2.85 289.5 -10.6 289.25 -15.5 285.0 L-16.1 284.45 Q-24.5 283.8 -29.25 273.25 -30.85 269.65 -31.85 265.4 L-32.5 261.6 Q-32.5 258.85 -32.1 258.05 -31.35 256.4 -28.0 254.5 L-27.1 254.8 Q-26.6 252.5 -25.45 251.05 -21.85 246.5 -11.5 246.5 L-3.4 246.9 -2.95 246.5 Q1.6 242.5 9.5 242.5 18.0 242.5 22.55 247.0 M20.15 250.65 L20.2 250.65 20.15 250.45 Q19.25 248.0 9.85 248.0 L3.25 248.7 Q4.9 249.55 5.5 250.5 5.05 252.85 4.55 253.35 L2.4 253.6 -1.55 252.95 Q-1.8 254.8 -0.5 256.85 L-0.75 259.5 Q-0.5 260.5 -3.0 260.5 -5.5 260.5 -6.25 256.85 L-6.5 252.85 -6.45 252.3 -11.5 252.0 Q-19.8 252.0 -21.95 255.25 -23.05 256.9 -22.5 258.5 -22.5 260.1 -21.7 260.5 -20.1 261.15 -18.5 263.5 L-19.8 265.65 Q-20.55 266.5 -22.5 266.5 -26.55 266.5 -27.45 263.05 -26.9 270.8 -19.45 276.25 L-19.3 276.35 -19.25 276.0 -18.8 275.75 -17.0 275.5 Q-16.25 275.5 -14.55 277.65 L-12.45 280.15 -11.0 280.75 -10.75 280.35 Q-10.5 280.3 -10.5 281.85 L-10.5 282.0 -8.25 283.45 -8.5 282.75 -8.1 282.15 Q-7.55 281.5 -6.0 281.5 -5.0 281.5 -1.05 284.6 2.2 284.2 6.0 282.5 7.8 282.95 8.0 283.15 8.5 283.55 8.5 285.25 L8.45 286.0 8.6 286.0 15.5 284.9 15.5 284.75 Q15.5 283.7 21.0 281.05 23.3 279.95 24.65 278.7 L25.05 278.0 Q25.45 277.3 26.05 276.95 L26.5 275.0 Q26.5 272.95 22.25 271.0 L19.1 269.75 Q17.45 270.5 15.5 270.5 L13.5 270.0 12.7 269.55 Q12.5 269.3 12.5 267.75 12.5 267.2 13.5 266.4 L13.5 265.75 Q13.5 264.1 14.55 263.7 L17.5 263.5 17.95 263.5 Q19.5 262.2 19.5 261.0 19.5 260.3 18.0 257.3 16.5 254.25 16.5 252.75 16.5 250.95 16.8 250.7 L19.0 250.5 20.15 250.65 M64.45 265.15 Q59.9 266.55 57.75 269.75 58.5 270.5 56.0 270.5 L55.5 270.45 Q55.45 272.3 54.0 275.25 52.5 278.25 52.5 279.75 52.5 281.2 55.2 280.9 L60.25 280.3 Q61.1 278.6 63.0 277.5 L64.65 279.8 67.85 279.5 Q67.5 278.9 67.5 277.75 67.5 276.5 68.5 274.55 L69.05 273.4 Q68.5 272.7 68.5 272.35 68.5 271.2 69.35 270.4 68.85 269.05 67.0 268.0 64.5 266.55 64.5 265.35 L64.5 265.15 64.45 265.15 M66.5 319.25 L66.45 321.5 66.5 321.5 Q73.4 321.5 77.05 325.5 78.4 327.05 79.05 328.5 85.65 328.5 88.75 335.25 90.3 338.65 90.5 342.0 90.5 343.2 90.1 344.5 94.6 344.55 93.5 352.5 L93.25 357.75 Q92.1 361.5 87.0 361.5 84.15 361.5 81.5 359.55 L78.5 357.0 78.5 353.1 76.0 353.5 Q66.45 353.5 63.05 347.85 61.95 346.05 61.6 343.85 L61.5 341.85 61.5 341.5 Q53.9 341.15 51.5 335.5 50.5 333.25 50.5 328.75 50.5 325.7 51.1 322.55 L51.1 322.5 51.0 322.5 Q48.5 320.0 48.5 316.75 48.5 313.5 50.5 310.75 52.8 307.5 56.5 307.5 62.75 307.5 65.25 313.3 66.5 316.2 66.5 319.25 M61.5 326.35 L60.75 326.25 Q60.6 326.95 60.55 326.0 L60.2 325.9 Q59.5 325.4 59.5 323.75 59.5 322.5 60.5 321.15 61.5 319.75 61.5 318.5 61.5 317.85 60.5 315.95 59.35 313.85 58.25 312.75 53.85 313.2 53.65 315.4 54.5 314.5 55.5 314.5 57.1 314.5 57.75 315.2 L58.5 316.5 Q58.3 318.1 56.8 322.75 55.5 326.95 55.5 328.5 55.5 332.65 56.75 334.05 58.4 336.0 62.75 336.25 L63.05 335.5 Q64.9 331.5 67.5 331.5 69.1 331.5 69.75 332.2 L70.5 333.5 70.45 333.75 72.55 332.7 72.5 331.75 Q72.5 330.65 74.1 329.8 72.25 327.55 62.2 326.4 L61.5 326.35 M68.5 337.2 L68.5 337.85 Q68.5 339.85 66.65 340.8 L66.5 341.75 Q66.5 344.65 67.1 345.75 67.75 346.85 69.5 347.05 L80.3 346.65 81.0 346.2 Q85.5 343.4 85.5 341.75 85.5 336.2 79.1 334.25 L78.55 335.35 Q76.75 338.1 71.0 338.5 L69.2 337.9 Q68.8 337.6 68.65 337.0 L68.5 337.2 M17.75 321.25 Q19.5 324.65 19.5 328.0 19.5 334.75 13.35 339.7 L13.5 341.5 13.0 342.8 Q12.55 343.5 11.0 343.5 10.15 343.5 8.8 342.6 L7.0 343.5 5.2 342.9 Q4.55 342.4 4.5 340.9 L2.0 342.55 Q-3.0 345.5 -5.0 345.5 -10.9 345.5 -12.25 340.3 -12.7 338.65 -12.65 336.7 L-12.5 335.0 -12.4 331.4 Q-14.55 330.75 -15.25 327.1 L-15.5 322.35 Q-15.5 310.5 -7.5 310.5 -2.5 310.5 -1.85 312.65 -1.5 313.9 -1.5 316.95 1.4 314.5 5.5 314.5 14.25 314.5 17.75 321.25 M12.25 322.8 Q9.65 320.0 5.35 320.0 -0.2 320.0 -0.4 322.95 -0.5 324.55 0.5 327.5 L0.0 328.8 Q-0.45 329.5 -2.0 329.5 -5.0 329.5 -5.55 327.15 L-5.5 324.5 Q-5.5 323.4 -5.1 322.25 L-6.1 320.45 Q-6.3 318.65 -6.75 317.0 L-8.25 315.75 Q-10.5 319.8 -10.5 322.5 -10.5 323.75 -9.5 325.5 -8.5 327.25 -8.5 328.5 L-8.5 328.7 -7.0 329.0 Q-6.5 331.25 -7.5 335.75 -7.5 338.35 -7.3 338.95 -6.9 340.25 -5.25 340.25 -3.0 340.25 0.85 337.45 L5.0 334.5 6.7 334.95 Q7.5 335.3 7.5 336.85 L7.5 337.05 Q8.0 336.65 8.55 336.55 L9.5 335.65 Q14.5 331.1 14.5 328.0 14.5 325.15 12.25 322.8 M31.5 371.1 L31.4 372.65 34.5 372.5 Q47.75 372.5 52.4 383.05 53.45 382.3 55.0 381.55 59.25 379.5 62.5 379.5 69.55 379.5 71.7 384.25 72.65 386.35 72.55 388.65 78.5 389.4 81.05 393.75 82.55 396.4 82.5 399.0 82.5 402.3 78.8 405.75 L77.5 406.9 77.5 407.0 Q77.5 409.8 74.5 412.0 71.1 414.5 65.5 414.5 63.4 414.5 61.5 413.75 L60.25 416.0 Q58.25 419.05 54.75 420.4 53.25 422.55 49.05 425.3 43.3 429.0 39.1 429.45 L38.25 430.3 Q31.25 437.35 25.0 437.35 13.85 437.35 5.7 428.3 2.45 429.5 0.0 429.5 -9.25 429.5 -12.25 420.3 -12.95 418.1 -13.25 415.0 -17.7 412.95 -20.2 408.25 -21.55 405.6 -22.15 402.45 L-22.5 399.6 Q-22.5 393.6 -18.2 384.85 -13.55 375.35 -8.0 372.5 L-6.3 372.95 -6.0 373.15 -4.5 372.35 -4.5 371.35 Q-4.5 369.25 -0.95 367.75 4.2 365.5 15.5 365.5 28.1 365.5 31.05 368.15 32.55 369.55 31.5 371.1 M49.45 394.45 Q49.2 390.8 47.5 386.05 44.55 377.75 39.25 377.75 28.45 377.75 27.35 378.9 27.55 380.5 25.0 381.5 22.5 380.65 22.5 378.0 22.5 375.75 25.25 374.25 26.0 373.85 26.9 373.55 L27.1 372.75 Q27.15 371.0 15.0 371.0 2.4 371.0 1.45 372.6 L1.5 373.85 1.5 373.95 Q1.3 376.7 -10.0 383.5 L-10.8 383.35 -11.5 384.35 Q-17.5 394.25 -17.5 399.25 -17.5 404.2 -14.85 407.5 L-13.5 408.9 Q-13.4 405.35 -12.7 402.25 -11.65 397.5 -9.5 397.5 L-7.05 397.75 Q-6.5 398.1 -6.5 399.85 -6.5 401.1 -7.5 405.1 -8.5 409.1 -8.5 410.35 L-8.5 410.7 Q-5.65 410.8 -2.0 409.5 -0.2 409.95 0.0 410.15 0.5 410.55 0.5 412.25 0.5 414.35 -0.95 415.4 -2.45 416.5 -5.5 416.5 L-7.95 416.4 -7.5 418.3 Q-5.85 424.25 -2.25 424.25 L2.4 423.95 0.95 421.5 -0.5 418.25 -0.25 416.0 0.2 415.75 2.0 415.5 8.0 422.15 8.85 421.6 11.1 419.65 Q12.15 418.65 13.0 418.5 L14.7 418.95 Q15.5 419.3 15.5 420.85 15.5 423.05 11.2 425.65 17.9 432.25 21.0 432.25 29.6 432.25 34.55 428.1 L34.5 426.75 37.25 425.05 39.55 421.3 Q40.95 418.95 42.0 418.5 L42.6 418.7 50.0 414.8 Q55.0 412.3 56.65 410.25 L56.5 410.05 53.5 405.5 53.55 404.05 53.45 403.95 52.8 405.05 Q51.7 406.55 50.0 407.5 L48.2 406.9 Q47.5 406.4 47.5 404.75 47.5 403.6 48.35 400.75 L45.75 399.25 Q45.5 400.25 45.5 397.75 45.5 396.65 46.95 395.5 48.25 394.5 49.0 394.5 L49.45 394.5 49.45 394.45 M64.5 369.85 Q64.5 371.85 63.05 372.25 L57.0 372.5 Q49.45 372.5 46.25 369.1 44.5 367.2 44.5 365.35 44.5 362.4 46.25 358.25 L47.25 356.2 Q45.8 355.65 45.45 353.95 L45.5 351.1 Q45.5 344.5 52.0 344.5 56.55 344.5 58.95 347.5 60.2 349.0 60.5 350.5 L60.45 351.4 Q63.35 352.65 65.3 355.75 67.5 359.15 67.5 361.35 67.5 364.1 64.35 367.85 L63.4 368.9 Q64.5 369.4 64.5 369.85 M53.5 350.0 L51.25 350.0 Q51.05 351.25 51.35 353.55 L52.3 353.85 52.75 354.2 53.5 355.5 Q53.5 356.95 51.75 360.6 50.0 364.25 50.0 365.25 50.0 365.75 57.1 367.25 L58.5 366.2 Q62.5 363.45 62.5 361.75 62.5 359.4 59.8 357.65 55.55 355.45 52.5 353.5 53.5 351.6 54.65 350.9 L53.5 350.0 M54.5 395.5 Q58.35 397.0 60.5 401.0 62.5 404.75 62.5 408.1 L62.5 408.3 Q63.85 409.0 65.35 409.0 L67.35 408.95 66.7 408.55 Q66.5 408.3 66.5 406.75 66.5 405.4 71.4 403.55 76.65 401.5 77.5 399.75 74.8 394.75 72.15 393.75 71.35 396.2 69.0 397.5 67.9 396.4 67.5 395.0 L67.0 395.5 Q64.5 394.65 64.5 392.0 64.5 390.5 64.75 389.0 L68.05 388.75 Q68.25 386.95 67.5 386.2 66.3 385.0 62.35 385.0 58.55 385.0 55.95 386.6 L54.05 388.0 Q54.8 391.7 54.5 395.5 M126.5 325.6 L126.65 330.2 Q126.55 332.0 125.45 333.15 123.95 334.75 114.7 338.6 L120.0 339.0 120.25 339.25 Q120.5 339.4 120.5 340.85 120.5 344.5 114.5 344.5 108.4 344.5 105.25 342.7 L101.5 339.5 102.1 338.5 Q94.85 338.0 91.5 330.0 89.5 325.15 89.5 320.6 89.5 317.9 89.65 316.35 L89.45 315.2 89.5 314.0 Q89.5 311.9 91.25 307.25 93.0 302.5 94.0 302.5 L94.5 302.55 Q94.7 300.3 99.05 298.5 103.8 296.5 110.5 296.5 119.5 296.5 119.5 302.75 L119.5 303.4 Q127.5 305.85 127.5 315.0 127.5 318.4 126.6 320.35 126.9 322.4 126.5 325.6 M94.5 321.25 Q94.5 324.8 97.55 328.0 99.1 329.65 106.5 335.5 L105.8 336.7 107.95 337.2 Q109.15 336.1 114.25 333.7 121.15 330.45 121.5 328.0 L121.5 325.05 116.0 328.5 114.2 327.9 Q113.5 327.4 113.5 325.75 113.5 324.6 118.0 321.1 L121.15 318.1 121.0 317.0 121.25 316.75 122.1 316.55 Q122.5 315.6 122.5 314.75 122.5 312.0 118.25 308.75 117.0 307.8 115.15 307.95 L112.0 308.5 Q108.15 308.95 106.5 304.0 108.0 302.5 112.5 302.5 L114.25 302.55 114.25 302.5 112.55 302.15 110.35 302.0 Q103.4 302.0 100.1 303.6 97.95 305.3 97.0 305.5 L96.5 305.35 96.5 306.35 Q96.5 307.6 95.5 309.95 L95.25 310.65 96.0 310.5 100.0 311.0 100.25 311.45 100.5 313.25 100.0 316.0 97.05 316.0 104.5 318.5 Q103.75 319.5 103.25 320.75 102.6 321.5 100.0 321.5 L94.6 320.85 94.5 320.8 94.5 321.25 M87.65 348.8 Q85.5 351.4 82.4 352.15 L83.7 353.95 Q85.05 356.3 88.25 356.0 88.4 354.3 87.95 351.3 L87.65 348.8" fill="#000000" fill-rule="evenodd" stroke="none"/>
    </g>
  </defs>
</svg>
