<?xml version="1.0" encoding="UTF-8" standalone="no"?>
<svg xmlns:xlink="http://www.w3.org/1999/xlink" height="842.55px" width="1337.95px" xmlns="http://www.w3.org/2000/svg">
  <g transform="matrix(1, 0, 0, 1, 407.45, 285.05)">
    <use height="4.5" transform="matrix(5.4867, 0.0, 0.0, 81.5667, 3.2875, 23.0167)" width="99.75" xlink:href="#shape0"/>
    <use height="420.1" transform="matrix(1.0, 0.0, 0.0, 1.0, -29.5, -11.5)" width="605.95" xlink:href="#shape1"/>
  </g>
  <defs>
    <g id="shape0" transform="matrix(1, 0, 0, 1, 49.85, -2.5)">
      <path d="M49.9 7.0 L-49.85 7.0 -49.85 2.5 49.9 2.5 49.9 7.0" fill="#ffffff" fill-rule="evenodd" stroke="none"/>
    </g>
    <g id="shape1" transform="matrix(1, 0, 0, 1, 29.5, 11.5)">
      <path d="M75.05 -5.0 L75.35 -9.7 Q75.45 -11.4 77.0 -11.5 78.15 -8.35 78.95 -5.0 81.0 3.9 80.35 14.55 79.5 28.0 79.85 41.5 170.4 41.5 260.95 42.0 L261.05 42.0 Q257.8 32.35 258.65 19.95 L260.05 -5.0 260.05 -5.45 Q260.15 -7.35 261.95 -7.5 L262.9 -5.0 Q266.15 4.75 265.3 17.05 L263.8 42.45 263.4 43.7 263.45 44.25 263.1 44.9 Q262.6 45.6 261.95 45.65 169.5 46.35 77.0 46.2 74.4 46.2 74.45 43.75 L74.65 43.1 Q75.4 42.15 76.25 41.75 72.25 32.5 73.35 18.65 L75.05 -5.0 M287.5 -5.0 Q288.95 -8.3 291.95 -10.5 L292.35 -5.0 295.5 44.7 Q297.05 72.95 295.35 101.0 295.1 104.8 293.95 108.5 257.1 117.9 221.05 122.7 219.8 124.85 218.95 127.1 217.45 131.15 216.2 135.55 215.7 137.4 217.25 138.75 224.1 142.35 232.1 141.3 L233.05 141.3 235.95 140.6 235.95 140.5 247.95 140.85 248.55 140.95 Q283.05 135.25 318.2 127.25 321.5 97.85 316.45 69.15 311.4 40.25 311.45 10.25 L311.45 0.5 309.5 -1.05 Q308.1 -2.15 308.9 -3.8 L309.85 -5.0 310.95 -5.5 312.95 -5.35 314.2 -5.0 Q318.25 25.45 320.5 57.05 L323.7 104.55 Q324.6 117.4 323.2 130.0 288.0 143.65 252.65 144.5 253.4 145.65 253.4 147.5 253.45 150.1 253.1 152.75 258.5 152.2 264.55 152.45 303.45 154.05 340.95 151.5 347.55 116.75 341.75 80.65 335.95 44.5 339.8 8.3 340.4 2.8 343.95 0.5 L344.4 1.1 345.95 4.25 346.25 5.45 346.3 5.5 Q347.3 9.8 346.45 16.25 339.8 65.6 349.05 114.25 354.1 141.05 338.7 156.5 335.25 159.9 329.95 159.55 276.0 155.85 225.7 164.25 227.45 162.55 229.45 161.15 226.25 161.9 223.65 163.8 221.75 165.2 221.5 167.75 L221.6 168.45 Q222.35 170.25 223.9 171.6 L226.95 174.5 227.45 175.0 Q232.3 176.4 237.1 175.0 L237.85 174.85 237.15 174.8 236.45 174.75 Q294.15 164.2 357.6 168.95 L371.2 168.25 Q373.05 130.55 368.9 92.25 366.8 72.95 365.5 53.6 364.0 30.8 367.6 8.95 L367.85 7.45 Q368.1 6.1 366.45 4.5 L366.45 3.75 Q366.45 3.35 366.6 3.05 366.85 2.6 367.3 2.4 L368.9 1.65 368.95 1.5 369.3 1.5 370.95 1.65 372.15 2.05 373.2 2.75 Q371.65 41.1 373.25 81.4 374.85 122.1 377.15 162.55 377.35 166.4 375.95 169.85 L384.8 165.6 Q387.45 164.2 390.15 163.35 L390.45 163.0 390.45 141.5 390.35 116.75 Q390.35 113.8 392.95 113.5 L393.3 114.35 Q394.05 113.6 394.95 113.5 L395.0 113.5 Q396.75 107.95 404.45 104.55 412.45 101.0 419.85 96.35 L420.95 95.7 Q421.85 94.65 422.95 94.5 L423.95 94.5 442.65 94.55 Q443.45 88.35 443.45 82.0 L443.35 72.25 Q443.3 69.95 443.7 67.75 475.0 73.35 466.95 43.35 462.55 27.0 445.4 22.75 435.65 20.35 428.45 14.0 L428.45 8.75 428.45 2.75 428.45 -4.75 428.65 -5.0 429.0 -5.45 Q429.85 -6.45 431.05 -7.1 432.95 -8.05 434.95 -8.35 L434.95 -8.5 437.95 -8.3 Q439.65 -8.1 440.25 -6.4 L440.45 -5.0 440.25 -4.25 Q440.05 -3.1 439.0 -3.2 436.2 -3.35 433.7 -2.25 433.3 -0.8 433.35 0.75 L433.45 6.0 433.45 9.75 433.45 11.25 Q458.05 14.65 470.35 34.25 476.7 44.3 475.3 57.1 474.7 62.45 472.95 67.5 468.35 71.2 462.7 72.35 455.45 73.9 448.45 72.0 L448.45 84.0 448.6 94.55 476.7 94.75 485.95 80.7 Q490.0 74.3 494.2 68.25 L496.0 67.75 508.45 66.25 Q503.05 56.6 503.65 43.85 504.3 29.4 518.1 36.25 525.15 39.8 524.8 48.25 524.45 56.65 517.95 62.5 542.85 66.55 539.2 37.3 536.5 15.45 513.2 14.8 508.6 14.65 507.85 19.65 507.2 23.85 503.95 25.5 500.55 24.4 501.15 20.45 501.75 16.7 504.05 13.6 507.65 8.7 512.95 6.5 541.4 10.95 544.85 37.2 548.75 66.55 522.35 68.65 518.3 68.95 514.45 67.5 L513.95 68.25 513.4 68.95 512.8 69.8 512.4 70.45 511.95 71.25 Q506.1 75.9 497.35 73.35 L497.2 73.75 Q494.35 77.7 491.85 82.1 L484.65 94.7 484.6 94.85 499.95 95.0 Q501.95 95.0 502.35 96.6 L502.95 94.5 Q507.3 119.75 506.35 148.25 505.5 174.95 506.15 201.65 510.85 204.75 506.25 209.3 L504.85 210.55 Q527.4 210.6 549.95 210.95 552.3 211.0 554.95 213.25 552.35 213.6 552.1 213.9 551.6 214.6 550.95 214.65 523.35 215.35 495.75 215.2 L494.95 215.5 494.9 215.3 494.8 215.4 Q488.05 224.5 477.6 230.75 466.2 237.6 454.2 243.15 L454.45 244.25 454.1 244.9 Q453.6 245.6 452.95 245.6 L447.6 245.7 Q447.0 246.25 445.95 246.5 L445.7 245.7 Q390.3 246.35 334.95 246.15 L334.1 246.1 332.95 246.5 Q331.8 243.3 331.05 239.85 311.9 238.85 296.8 247.9 L297.1 249.1 Q297.9 253.2 298.3 257.5 L298.2 259.0 Q287.8 261.5 277.8 265.05 L276.45 265.0 Q275.3 263.15 274.7 261.4 L273.75 261.5 Q256.7 263.25 245.65 253.6 242.85 251.15 240.5 248.35 L230.2 255.5 Q220.8 261.8 211.7 264.7 211.25 266.0 210.25 267.0 208.4 268.05 206.65 266.8 L206.0 266.2 205.75 266.25 205.9 266.1 Q205.25 265.25 205.25 264.0 139.4 274.65 76.2 273.2 75.85 274.8 75.0 276.25 L73.05 273.1 69.5 273.0 69.5 272.25 72.45 272.1 Q64.75 258.35 61.95 239.45 L58.6 215.9 56.0 216.3 5.0 217.2 3.0 217.3 -5.0 218.1 -12.85 219.65 Q-23.2 222.25 -29.5 217.5 -19.6 210.55 -5.0 210.85 L5.0 211.8 5.95 211.9 Q34.6 215.25 57.0 210.5 L57.9 210.55 57.85 210.4 Q54.6 186.4 51.8 162.3 49.0 137.95 49.0 118.5 L49.15 118.9 Q62.05 153.35 63.85 192.4 65.55 230.4 75.85 267.1 76.55 269.6 76.4 271.85 138.2 267.8 203.5 258.25 197.55 226.45 195.65 193.8 193.75 160.85 192.35 127.75 192.1 122.65 194.25 118.0 128.35 124.35 58.0 123.4 54.65 123.35 52.55 122.2 L51.5 122.0 51.65 121.6 Q50.2 120.5 49.5 118.75 L52.7 118.85 Q57.45 108.25 71.65 101.55 88.7 93.45 106.55 87.15 113.8 84.55 121.0 83.5 L122.9 83.8 123.55 84.05 Q146.05 80.95 170.0 79.5 205.0 79.5 239.95 80.25 244.5 80.35 247.45 83.5 L247.3 84.0 246.7 84.5 Q249.8 88.95 249.9 96.5 249.95 104.3 248.15 112.05 L247.75 112.8 248.15 112.8 252.9 112.9 Q280.35 114.25 288.65 96.75 292.0 89.75 291.3 81.25 287.9 43.0 285.95 4.1 285.7 -1.15 287.5 -5.0 M554.95 385.0 L573.95 385.0 Q576.3 385.0 576.45 387.25 L576.1 387.9 Q575.6 388.6 574.95 388.6 L554.95 388.65 405.6 389.0 393.0 405.95 391.45 407.95 Q389.85 408.8 387.95 408.55 385.95 408.3 385.45 406.45 L385.9 405.95 399.5 389.0 63.3 389.2 58.2 393.6 Q54.55 396.7 50.75 394.2 L56.15 389.2 -5.0 389.15 -14.0 389.15 Q-16.6 389.15 -16.5 386.7 L-16.35 386.1 Q-15.3 384.65 -14.0 384.5 L-5.0 384.5 61.05 384.5 Q82.35 364.05 103.15 340.7 L109.7 333.2 -5.0 333.15 -11.0 333.15 Q-13.6 333.15 -13.5 330.75 L-13.35 330.1 Q-12.3 328.65 -11.0 328.5 L-5.0 328.5 113.55 328.55 Q127.55 311.5 139.6 293.05 142.05 289.3 145.0 287.5 L148.15 288.2 Q149.75 288.75 150.25 290.25 L150.5 291.0 Q134.75 308.9 118.8 328.55 L439.95 328.9 444.2 321.5 Q455.05 302.35 466.9 283.9 L316.15 284.5 Q316.4 293.75 307.1 304.75 298.3 315.1 288.85 324.6 287.35 326.05 285.45 325.0 289.4 314.1 299.0 302.75 306.65 293.7 313.4 284.5 161.15 285.15 8.9 285.95 L7.85 287.55 Q1.55 297.25 -5.0 305.6 -11.15 313.35 -17.5 320.0 -12.55 306.55 -5.0 293.25 L-0.65 286.0 -5.0 286.0 -15.75 286.05 Q-18.35 286.05 -20.0 283.5 L-20.3 282.7 Q-20.6 279.8 -18.0 279.5 L-5.0 279.5 3.5 279.5 8.55 272.25 Q18.1 259.1 26.05 245.1 L-5.0 245.25 -10.0 245.2 Q-12.6 245.15 -12.5 242.75 L-12.35 242.1 Q-11.3 240.65 -10.0 240.5 L-5.0 240.5 28.5 240.7 Q32.15 234.05 35.4 227.2 37.1 223.6 41.0 222.5 45.25 228.65 37.9 240.35 L37.65 240.8 37.9 240.8 55.0 241.0 Q57.35 241.0 57.5 243.25 L57.15 243.9 Q56.6 244.6 56.0 244.6 L35.05 245.0 13.1 279.5 Q241.25 279.5 469.5 279.9 481.25 261.7 494.0 244.25 L480.95 244.2 Q478.35 244.15 478.45 241.75 L478.65 241.1 Q479.65 239.65 480.95 239.5 L497.45 239.55 501.1 234.6 Q505.2 229.1 509.95 225.5 510.9 232.1 506.95 239.6 521.95 239.7 536.95 239.95 539.3 240.0 539.45 242.25 L539.1 242.9 537.95 243.6 504.15 244.2 501.0 248.3 Q488.2 263.7 476.45 279.9 L545.95 280.0 Q548.3 280.0 548.45 282.25 L548.1 282.9 Q547.6 283.6 546.95 283.6 L473.55 283.9 Q457.95 305.7 444.2 328.9 L504.95 329.0 Q507.3 329.0 507.45 331.25 L507.1 331.9 Q506.6 332.6 505.95 332.6 L441.9 332.8 441.4 333.65 Q426.05 360.05 408.6 384.75 L554.95 385.0 M-5.0 184.25 L-11.0 184.2 Q-13.6 184.15 -13.5 181.75 L-13.35 181.1 Q-12.3 179.65 -11.0 179.5 L-5.0 179.5 Q19.0 179.55 43.0 179.95 45.35 180.0 45.5 182.25 L45.15 182.9 44.0 183.65 Q19.5 184.25 -5.0 184.25 M-5.0 162.25 L-14.0 162.2 Q-16.6 162.15 -16.5 159.75 L-16.35 159.1 Q-15.3 157.65 -14.0 157.5 L-5.0 157.55 16.55 157.7 Q11.2 150.65 12.05 137.65 L12.4 132.05 7.6 130.65 Q6.3 130.15 6.45 128.75 L6.65 128.1 Q7.7 126.65 9.0 126.5 L12.65 126.5 12.9 112.3 Q7.2 111.55 1.6 109.65 0.3 109.15 0.45 107.75 L0.65 107.1 Q1.7 105.65 3.0 105.5 L12.85 105.55 12.45 94.3 Q11.7 79.8 16.0 69.5 19.8 86.3 19.55 105.65 L34.5 105.9 Q34.25 96.75 34.55 87.25 35.5 57.25 34.65 27.25 34.5 22.8 38.0 21.5 42.35 49.0 41.4 79.75 40.5 109.35 41.45 138.95 41.6 143.55 38.0 145.5 36.9 138.55 36.15 131.35 27.35 133.8 18.9 133.05 18.8 143.15 19.1 153.25 19.2 155.9 17.6 157.7 L38.0 157.95 Q40.35 158.0 40.5 160.25 L40.15 160.9 Q39.6 161.6 39.0 161.65 17.0 162.25 -5.0 162.25 M506.8 47.75 Q507.95 53.3 510.6 58.45 511.2 59.65 512.45 60.25 517.25 56.75 518.85 50.9 520.4 45.35 517.55 40.6 516.85 39.35 515.95 38.25 L515.2 38.0 Q513.2 37.85 511.2 38.0 505.5 41.25 506.8 47.75 M499.95 99.5 L501.4 100.65 502.0 98.05 Q501.5 98.6 500.95 98.65 L499.95 98.7 482.0 98.95 Q479.55 102.55 476.95 105.5 473.4 102.8 474.45 99.05 L448.7 99.2 Q448.8 103.45 447.65 107.3 447.0 109.25 444.95 109.5 442.15 105.4 442.25 99.25 L424.95 99.2 Q424.0 103.9 414.7 107.5 408.0 110.1 401.9 113.5 441.95 113.55 481.95 114.0 483.15 114.0 483.75 114.55 486.0 111.4 489.2 108.25 493.65 103.9 498.3 100.4 499.3 99.65 499.95 99.5 M498.95 183.65 Q500.45 155.6 499.35 127.55 498.95 117.45 500.05 108.55 L497.7 110.9 Q492.5 115.45 486.05 117.5 489.1 127.05 488.3 139.05 487.5 151.0 486.85 162.9 L489.6 162.95 490.8 162.25 Q491.95 161.55 492.95 161.5 L493.95 163.15 Q494.4 163.25 494.7 163.55 L494.95 163.5 Q498.55 172.4 498.5 183.6 L498.5 183.65 498.3 188.05 Q497.6 198.2 497.05 208.35 L499.4 206.25 501.45 204.8 Q498.3 196.1 498.95 183.65 M493.05 209.5 Q490.95 201.15 491.6 190.95 L492.95 168.05 Q490.35 170.7 483.05 172.8 467.25 177.4 454.5 187.0 449.95 190.4 446.55 190.2 450.2 201.35 449.35 215.3 448.5 228.6 448.4 242.0 L449.15 242.0 Q459.2 234.2 471.95 227.5 482.6 222.0 489.0 212.65 490.65 210.3 492.95 209.5 L493.05 209.5 M394.95 118.2 L394.55 118.2 394.55 118.3 Q396.95 127.15 395.95 138.05 394.85 150.1 396.0 161.75 L483.65 162.85 Q480.85 153.65 481.6 141.95 L483.0 117.65 482.95 117.65 Q438.95 118.35 394.95 118.2 M364.45 174.45 Q307.65 178.25 253.55 175.75 258.3 185.95 260.3 198.4 261.4 205.2 262.85 211.8 L263.95 211.5 Q296.45 211.5 328.95 212.0 L330.0 212.15 330.95 193.1 Q329.35 192.6 329.45 190.75 L329.65 190.1 Q330.65 188.65 331.95 188.5 L332.95 188.5 333.6 188.5 Q342.45 181.1 355.15 177.4 L364.45 174.45 M442.65 188.45 L441.45 187.0 Q453.2 179.7 467.75 173.65 474.95 170.6 481.85 167.1 437.9 167.55 394.0 169.15 L391.65 168.85 Q388.45 172.6 379.15 175.2 362.05 179.9 346.7 188.5 394.35 188.55 441.95 189.0 443.5 189.0 444.1 190.0 L444.25 189.6 442.65 188.45 M443.95 192.65 L444.0 192.05 Q443.55 192.6 442.95 192.6 388.7 193.35 334.45 193.2 337.05 203.2 336.35 215.3 335.5 228.4 335.4 241.5 389.95 241.5 444.55 241.95 441.85 231.65 442.6 218.95 L443.95 192.65 M461.25 207.7 Q458.2 210.3 454.7 211.8 L452.45 212.0 Q450.05 209.05 453.55 206.5 456.0 204.7 458.6 203.25 L459.95 202.5 461.7 203.05 461.6 198.75 Q461.65 194.8 460.45 191.25 460.45 190.85 460.6 190.55 L461.5 189.0 Q462.55 187.65 464.0 186.85 464.45 186.6 464.95 186.5 L470.9 186.95 Q472.1 187.1 473.2 187.75 475.1 190.3 474.9 193.75 474.75 196.2 474.75 198.6 475.7 197.25 477.2 196.1 479.85 194.05 483.0 192.8 483.45 192.6 483.95 192.5 490.55 195.1 484.75 200.0 480.85 203.3 475.95 203.3 L475.0 203.2 475.05 203.4 475.4 206.35 476.45 214.75 476.3 215.35 Q474.65 217.4 472.3 218.75 469.5 220.3 466.45 219.0 464.0 215.95 463.1 212.3 462.5 209.95 462.2 207.55 L462.1 206.95 461.25 207.7 M469.75 211.65 Q470.25 207.7 469.95 202.7 469.65 197.15 467.95 192.15 L466.45 192.0 Q466.45 196.85 466.9 201.7 467.4 206.7 469.05 211.45 L469.45 213.5 469.75 211.65 M426.95 205.2 Q431.55 207.4 429.95 204.5 429.3 203.3 428.2 204.0 424.1 203.85 426.95 205.2 M435.75 206.5 L435.2 208.75 Q433.9 211.0 431.0 211.7 424.25 213.2 420.45 208.0 L420.3 205.0 Q420.0 202.75 420.8 201.05 422.2 198.1 424.95 197.5 428.9 197.0 432.2 199.05 436.35 201.6 435.75 206.5 M409.45 216.25 L409.1 216.9 Q408.6 217.6 407.95 217.65 384.45 218.35 360.95 218.2 358.35 218.15 358.45 215.75 L358.65 215.1 Q359.65 213.65 360.95 213.5 383.95 213.5 406.95 213.95 409.3 214.0 409.45 216.25 M434.65 225.75 Q433.6 223.5 431.45 224.0 L431.7 225.7 Q436.15 229.1 434.65 225.75 M427.45 232.0 Q426.45 230.5 425.95 228.85 425.0 225.75 425.75 222.85 426.7 219.3 429.95 218.5 439.35 217.65 440.25 226.0 440.75 230.8 435.8 231.6 L427.45 232.0 M429.45 271.3 Q428.85 272.0 427.45 272.0 425.7 267.35 428.75 263.0 404.1 266.25 380.85 261.4 377.4 270.85 368.0 269.95 L365.7 269.25 Q363.8 267.1 363.8 264.0 363.75 258.7 367.5 255.25 370.1 252.85 372.95 251.5 L376.9 251.9 Q378.6 252.25 380.15 253.1 L380.95 253.75 Q381.55 255.5 381.55 257.25 L381.6 257.2 382.95 256.5 385.2 256.75 432.85 257.95 437.0 251.9 Q437.8 250.65 438.95 250.5 443.4 255.25 437.85 261.8 L429.45 271.3 M445.0 253.2 Q445.65 251.65 446.95 251.5 453.2 255.3 447.0 263.25 L438.25 273.55 Q437.7 274.1 436.45 274.0 434.6 269.1 438.45 264.2 442.55 259.0 445.0 253.2 M393.95 200.5 Q398.5 200.55 401.7 203.05 402.2 203.5 402.45 204.25 380.7 208.5 355.0 207.3 352.35 207.15 352.45 204.75 352.45 203.3 354.0 203.1 369.65 200.9 384.95 200.5 L393.95 200.5 M329.6 218.95 L329.8 215.55 Q295.4 211.85 264.05 217.0 L265.75 223.4 266.45 227.5 257.85 234.9 Q268.3 239.1 281.3 232.45 288.15 228.9 294.85 224.55 314.45 211.85 329.5 221.9 L329.6 218.95 M329.45 224.0 Q307.85 220.2 290.9 235.0 271.25 252.2 252.75 239.05 L245.1 244.95 Q246.05 247.95 247.5 250.6 L248.45 252.25 Q263.0 257.55 274.25 255.3 274.65 253.25 275.9 251.3 278.85 246.55 284.8 245.6 288.8 244.9 291.95 243.5 292.8 243.7 293.5 244.05 303.45 236.5 316.6 234.3 324.65 232.9 330.35 236.15 329.4 230.35 329.45 224.0 M333.45 264.45 Q328.6 256.15 335.95 251.5 353.6 252.15 342.3 265.35 337.35 271.15 333.45 264.45 M342.45 259.25 L342.35 258.55 Q341.95 257.75 341.25 257.4 L339.2 257.0 Q335.0 257.6 337.25 261.3 339.8 265.4 341.75 260.75 L342.45 259.25 M373.55 257.75 L373.45 258.5 373.4 259.2 373.2 260.0 Q372.55 261.35 370.95 261.4 369.1 261.4 369.4 263.25 L369.45 264.0 Q372.35 266.35 375.3 261.3 376.65 258.95 375.4 257.4 374.95 256.85 373.7 257.0 L373.55 257.75 M437.65 332.8 L115.0 333.2 107.45 342.6 Q89.5 365.2 68.5 384.5 L402.75 384.75 Q421.45 359.95 437.65 332.8 M236.95 85.5 L237.2 85.25 236.95 85.25 Q180.25 86.75 125.5 85.85 L125.35 85.85 125.5 86.25 Q106.65 91.7 87.6 100.7 72.05 108.05 59.55 118.95 122.4 119.65 186.6 112.05 L198.95 110.5 Q205.45 105.4 213.0 101.15 224.55 94.7 235.4 86.85 L236.95 85.5 M232.65 159.05 Q239.05 155.2 247.35 153.6 246.5 152.2 246.25 150.1 245.9 146.8 247.1 144.55 L244.7 144.5 Q238.25 145.8 231.95 148.2 L230.95 148.35 Q229.2 148.3 228.6 146.95 223.8 148.1 217.45 145.1 214.45 143.65 212.0 141.5 210.5 137.3 211.25 133.05 212.25 127.45 214.3 122.35 215.5 119.45 218.0 118.5 L219.9 118.8 Q220.85 119.05 221.6 119.65 231.7 113.3 246.5 112.85 242.75 107.45 241.85 99.65 241.15 93.95 242.4 87.95 L224.8 101.8 Q214.6 109.75 202.85 114.9 201.45 115.55 200.25 117.0 L199.0 117.25 198.6 117.25 Q196.95 148.6 199.5 183.8 202.25 221.35 211.35 257.3 L211.85 260.2 Q222.45 250.4 236.3 242.5 233.1 237.0 237.95 234.5 241.5 235.45 243.1 238.55 L248.2 235.3 245.4 232.55 Q243.5 230.5 242.25 228.65 237.25 230.2 232.55 224.9 L231.45 223.5 Q231.3 220.45 232.75 217.95 234.25 215.35 237.05 213.85 238.7 212.95 239.95 212.5 240.95 213.1 241.85 213.85 242.9 214.75 242.65 216.05 L242.95 216.5 Q253.55 219.75 246.65 225.95 L246.4 226.2 Q249.45 229.8 252.8 232.15 L259.2 227.25 255.2 203.65 250.85 177.7 Q250.6 176.4 251.05 175.6 L238.7 174.9 Q239.8 175.15 240.45 176.5 234.2 185.4 222.95 177.9 215.65 173.1 216.45 164.75 L216.5 164.0 218.0 162.5 Q220.25 160.25 222.65 158.2 224.15 156.9 225.95 156.6 L225.95 156.5 229.95 156.7 Q231.7 156.9 232.35 158.55 L232.45 159.15 232.65 159.05 M195.0 101.5 Q199.85 104.5 194.1 107.75 190.3 109.95 186.6 111.6 184.95 112.35 184.5 110.5 L184.5 109.75 184.55 108.25 184.9 106.8 185.5 106.0 Q189.0 105.35 191.65 103.2 193.15 101.9 194.95 101.6 L195.0 101.5 M171.45 106.45 Q168.5 109.45 164.7 110.6 L162.75 110.25 Q161.7 107.6 163.1 105.35 164.6 103.05 166.9 101.65 168.5 100.7 170.0 100.5 175.95 101.95 171.45 106.45 M169.95 148.25 Q170.15 154.8 173.1 160.3 173.65 161.3 173.5 162.5 130.4 169.1 89.85 166.95 88.2 166.85 88.3 164.0 88.5 159.1 88.0 154.3 87.55 149.7 90.0 146.75 L92.1 147.25 Q93.55 147.8 93.7 149.2 L94.0 149.75 Q131.05 144.5 166.0 136.5 169.75 141.05 169.95 148.25 M163.75 146.2 L163.55 145.5 163.35 144.8 163.0 144.5 Q147.0 146.5 131.2 149.55 114.85 152.75 98.3 154.5 95.85 154.8 93.5 155.75 L93.5 157.25 93.5 158.0 93.5 158.75 93.5 159.5 93.5 160.25 93.5 161.0 93.5 162.5 93.5 163.25 93.55 163.95 94.0 165.5 102.2 165.0 Q134.2 160.15 166.5 159.0 L166.4 157.5 166.15 156.8 165.65 155.9 165.45 155.25 164.95 153.95 Q164.1 152.95 164.35 151.45 L164.5 150.0 164.25 147.8 163.75 146.2 M35.7 126.9 Q34.95 118.85 34.65 110.5 26.9 112.65 19.35 112.65 L18.95 126.55 35.7 126.9 M149.0 100.5 Q153.75 103.3 149.35 107.85 145.95 111.3 141.9 112.1 L140.5 112.0 Q138.2 108.7 141.4 105.2 144.05 102.3 148.0 100.8 L149.0 100.5 M122.75 110.9 L119.5 111.0 Q117.45 109.15 119.25 107.3 121.35 105.1 123.75 103.35 125.45 102.05 127.0 101.5 L128.9 101.8 Q130.0 102.1 130.9 102.85 L131.5 103.5 Q131.1 106.9 127.75 108.25 125.35 109.3 122.75 110.9 M110.9 99.8 Q112.0 100.1 112.9 100.85 L113.5 101.5 Q110.5 106.25 104.1 108.6 98.1 110.8 92.65 113.85 91.0 114.75 89.75 113.25 89.9 107.9 96.0 105.6 101.15 103.6 105.9 100.7 107.5 99.7 109.0 99.5 L110.9 99.8 M89.9 189.95 Q92.05 190.35 93.95 191.5 L96.0 192.75 Q98.6 201.45 90.3 204.4 78.1 208.7 79.9 196.95 80.75 191.5 85.0 189.5 L89.9 189.95 M86.5 197.45 Q85.6 198.4 84.95 199.85 L85.0 200.5 Q86.85 203.85 89.75 200.75 L91.5 198.25 91.35 196.75 Q91.25 196.1 90.8 195.7 89.5 194.6 88.25 195.0 L86.5 197.45 M163.1 255.65 Q161.9 252.55 161.9 249.25 161.9 245.65 161.05 242.35 158.5 232.6 158.5 222.25 158.45 216.65 159.0 212.25 L146.95 215.35 141.95 216.3 127.5 217.75 Q128.4 221.05 128.95 224.55 L129.85 229.1 Q131.95 238.05 132.9 247.05 133.5 252.25 133.5 257.5 142.3 258.6 152.6 256.55 L161.0 255.75 162.25 255.9 163.25 256.0 163.1 255.65 M159.0 206.5 L162.9 206.9 Q164.0 207.1 165.0 207.75 164.0 214.85 164.2 222.5 L171.05 222.6 Q169.05 219.4 169.2 214.45 169.45 207.75 172.3 202.9 172.5 202.6 173.0 202.5 L185.95 202.7 187.25 203.0 Q188.8 204.6 188.8 206.75 188.95 215.15 190.7 223.15 192.3 230.5 193.0 237.5 L192.45 237.9 Q187.65 240.2 184.2 239.95 L184.95 241.15 185.5 242.5 184.9 242.95 Q175.05 245.95 166.6 244.3 167.4 248.85 168.45 253.4 169.3 257.25 169.25 261.0 145.6 264.15 123.5 260.75 123.5 260.35 123.65 260.05 124.45 258.7 125.9 258.25 127.25 257.85 128.5 257.25 128.65 248.85 127.05 240.8 125.05 230.55 122.3 220.6 121.3 216.9 121.5 213.0 140.8 212.55 159.0 206.5 M89.15 216.1 L93.0 214.5 97.9 214.9 Q99.1 215.1 100.25 215.75 103.3 222.8 97.45 228.4 88.65 236.85 82.6 225.55 80.65 221.9 83.25 218.25 83.6 218.0 84.0 217.9 86.7 217.2 89.15 216.1 M93.25 220.0 L89.7 221.45 Q87.8 222.2 87.3 223.85 L87.5 224.5 Q87.85 225.7 89.0 226.4 91.9 228.2 94.25 226.25 L94.5 225.5 95.35 223.2 95.6 222.5 96.25 221.0 96.25 220.3 Q95.75 218.55 93.25 220.0 M89.6 242.2 L91.0 241.5 98.9 242.05 Q101.8 242.45 104.0 244.5 104.7 246.3 104.35 248.2 102.1 259.95 88.5 254.0 86.5 253.1 85.0 251.5 84.75 251.1 84.65 250.7 L84.5 249.25 84.4 247.75 Q84.2 246.45 85.0 245.5 L85.8 244.8 88.15 243.15 Q88.85 242.6 89.6 242.2 M98.3 247.55 L94.5 247.0 Q91.4 248.8 93.4 249.35 95.85 250.0 98.35 249.4 99.0 249.25 99.5 248.5 99.0 247.75 98.3 247.55 M244.7 223.25 Q244.15 222.45 243.3 222.15 L244.35 223.65 244.4 223.65 244.7 223.25 M282.4 258.7 L282.55 258.7 282.55 258.65 282.4 258.7 M237.95 221.35 Q237.7 221.35 237.45 221.5 236.35 223.25 238.95 223.65 L240.1 223.8 Q239.9 222.65 240.0 221.6 L239.0 221.45 237.95 221.35 M182.25 232.7 L187.0 232.6 186.75 232.25 186.5 231.5 Q185.45 226.65 184.95 221.7 184.45 216.5 184.5 211.25 L184.5 209.0 184.3 208.45 Q177.7 203.3 175.5 208.75 L175.5 209.5 175.55 216.25 175.3 222.75 180.95 223.05 Q182.0 223.1 183.0 223.75 183.25 224.1 183.15 224.4 182.15 228.05 182.15 232.0 L182.2 232.75 182.25 232.7 M177.5 228.5 L177.5 228.25 177.45 228.3 Q168.65 231.35 164.85 228.2 L164.5 227.9 164.55 228.65 Q165.05 234.3 165.9 239.95 168.2 238.2 172.0 238.3 L177.6 238.25 177.75 238.25 177.6 237.55 177.6 237.5 177.5 234.5 177.5 230.75 177.5 228.5" fill="#000000" fill-rule="evenodd" stroke="none"/>
      <path d="M292.35 -5.0 L309.85 -5.0 308.9 -3.8 Q308.1 -2.15 309.5 -1.05 L311.45 0.5 311.45 10.25 Q311.4 40.25 316.45 69.15 321.5 97.85 318.2 127.25 283.05 135.25 248.55 140.95 L247.95 140.85 235.95 140.5 235.95 140.6 233.05 141.3 232.1 141.3 Q224.1 142.35 217.25 138.75 215.7 137.4 216.2 135.55 217.45 131.15 218.95 127.1 219.8 124.85 221.05 122.7 257.1 117.9 293.95 108.5 295.1 104.8 295.35 101.0 297.05 72.95 295.5 44.7 L292.35 -5.0 M344.65 -5.0 L370.1 -5.0 Q369.5 -1.8 369.3 1.5 L368.95 1.5 368.9 1.65 367.3 2.4 Q366.85 2.6 366.6 3.05 366.45 3.35 366.45 3.75 L366.45 4.5 Q368.1 6.1 367.85 7.45 L367.6 8.95 Q364.0 30.8 365.5 53.6 366.8 72.95 368.9 92.25 373.05 130.55 371.2 168.25 L357.6 168.95 Q294.15 164.2 236.45 174.75 L237.15 174.8 237.1 175.0 Q232.3 176.4 227.45 175.0 L226.95 174.5 223.9 171.6 Q222.35 170.25 221.6 168.45 L221.5 167.75 Q221.75 165.2 223.65 163.8 226.25 161.9 229.45 161.15 227.45 162.55 225.7 164.25 276.0 155.85 329.95 159.55 335.25 159.9 338.7 156.5 354.1 141.05 349.05 114.25 339.8 65.6 346.45 16.25 347.3 9.8 346.3 5.5 L346.25 5.45 345.95 4.25 344.4 1.1 Q344.15 -0.65 344.35 -2.85 L344.65 -5.0 M554.95 213.25 L554.95 385.0 408.6 384.75 Q426.05 360.05 441.4 333.65 L441.9 332.8 505.95 332.6 Q506.6 332.6 507.1 331.9 L507.45 331.25 Q507.3 329.0 504.95 329.0 L444.2 328.9 Q457.95 305.7 473.55 283.9 L546.95 283.6 Q547.6 283.6 548.1 282.9 L548.45 282.25 Q548.3 280.0 545.95 280.0 L476.45 279.9 Q488.2 263.7 501.0 248.3 L504.15 244.2 537.95 243.6 539.1 242.9 539.45 242.25 Q539.3 240.0 536.95 239.95 521.95 239.7 506.95 239.6 510.9 232.1 509.95 225.5 505.2 229.1 501.1 234.6 L497.45 239.55 480.95 239.5 Q479.65 239.65 478.65 241.1 L478.45 241.75 Q478.35 244.15 480.95 244.2 L494.0 244.25 Q481.25 261.7 469.5 279.9 241.25 279.5 13.1 279.5 L35.05 245.0 56.0 244.6 Q56.6 244.6 57.15 243.9 L57.5 243.25 Q57.35 241.0 55.0 241.0 L37.9 240.8 37.9 240.35 Q45.25 228.65 41.0 222.5 37.1 223.6 35.4 227.2 32.15 234.05 28.5 240.7 L-5.0 240.5 -5.0 218.1 3.0 217.3 5.0 217.2 56.0 216.3 58.6 215.9 61.95 239.45 Q64.75 258.35 72.45 272.1 L69.5 272.25 69.5 273.0 73.05 273.1 75.0 276.25 Q75.85 274.8 76.2 273.2 139.4 274.65 205.25 264.0 205.25 265.25 205.9 266.1 L205.75 266.25 206.0 266.2 206.65 266.8 Q208.4 268.05 210.25 267.0 211.25 266.0 211.7 264.7 220.8 261.8 230.2 255.5 L240.5 248.35 Q242.85 251.15 245.65 253.6 256.7 263.25 273.75 261.5 L274.7 261.4 Q275.3 263.15 276.45 265.0 L277.8 265.05 Q287.8 261.5 298.2 259.0 L298.3 257.5 Q297.9 253.2 297.1 249.1 L296.8 247.9 Q311.9 238.85 331.05 239.85 331.8 243.3 332.95 246.5 L334.1 246.1 334.95 246.15 Q390.3 246.35 445.7 245.7 L445.95 246.5 Q447.0 246.25 447.6 245.7 L452.95 245.6 Q453.6 245.6 454.1 244.9 L454.45 244.25 454.2 243.15 Q466.2 237.6 477.6 230.75 488.05 224.5 494.8 215.4 L494.95 215.5 495.75 215.2 Q523.35 215.35 550.95 214.65 551.6 214.6 552.1 213.9 552.35 213.6 554.95 213.25 M554.95 388.65 L554.95 405.95 393.0 405.95 405.6 389.0 554.95 388.65 M385.9 405.95 L-5.0 405.95 -5.0 389.15 56.15 389.2 50.75 394.2 Q54.55 396.7 58.2 393.6 L63.3 389.2 399.5 389.0 385.9 405.95 M-5.0 384.5 L-5.0 333.15 109.7 333.2 103.15 340.7 Q82.35 364.05 61.05 384.5 L-5.0 384.5 M-5.0 328.5 L-5.0 305.6 Q1.55 297.25 7.85 287.55 L8.9 285.95 Q161.15 285.15 313.4 284.5 306.65 293.7 299.0 302.75 289.4 314.1 285.45 325.0 287.35 326.05 288.85 324.6 298.3 315.1 307.1 304.75 316.4 293.75 316.15 284.5 L466.9 283.9 Q455.05 302.35 444.2 321.5 L439.95 328.9 118.8 328.55 Q134.75 308.9 150.5 291.0 L150.25 290.25 Q149.75 288.75 148.15 288.2 L145.0 287.5 Q142.05 289.3 139.6 293.05 127.55 311.5 113.55 328.55 L-5.0 328.5 M-5.0 279.5 L-5.0 245.25 26.05 245.1 Q18.1 259.1 8.55 272.25 L3.5 279.5 -5.0 279.5 M445.0 253.2 Q442.55 259.0 438.45 264.2 434.6 269.1 436.45 274.0 437.7 274.1 438.25 273.55 L447.0 263.25 Q453.2 255.3 446.95 251.5 445.65 251.65 445.0 253.2 M429.45 271.3 L437.85 261.8 Q443.4 255.25 438.95 250.5 437.8 250.65 437.0 251.9 L432.85 257.95 385.2 256.75 382.95 256.5 381.6 257.2 381.55 257.25 Q381.55 255.5 380.95 253.75 L380.15 253.1 Q378.6 252.25 376.9 251.9 L372.95 251.5 Q370.1 252.85 367.5 255.25 363.75 258.7 363.8 264.0 363.8 267.1 365.7 269.25 L368.0 269.95 Q377.4 270.85 380.85 261.4 404.1 266.25 428.75 263.0 425.7 267.35 427.45 272.0 428.85 272.0 429.45 271.3 M333.45 264.45 Q337.35 271.15 342.3 265.35 353.6 252.15 335.95 251.5 328.6 256.15 333.45 264.45 M329.45 224.0 Q329.4 230.35 330.35 236.15 324.65 232.9 316.6 234.3 303.45 236.5 293.5 244.05 292.8 243.7 291.95 243.5 288.8 244.9 284.8 245.6 278.85 246.55 275.9 251.3 274.65 253.25 274.25 255.3 263.0 257.55 248.45 252.25 L247.5 250.6 Q246.05 247.95 245.1 244.95 L252.75 239.05 Q271.25 252.2 290.9 235.0 307.85 220.2 329.45 224.0 M329.6 218.95 L329.5 221.9 Q314.45 211.85 294.85 224.55 288.15 228.9 281.3 232.45 268.3 239.1 257.85 234.9 L266.45 227.5 265.75 223.4 264.05 217.0 Q295.4 211.85 329.8 215.55 L329.6 218.95 M437.65 332.8 Q421.45 359.95 402.75 384.75 L68.5 384.5 Q89.5 365.2 107.45 342.6 L115.0 333.2 437.65 332.8 M232.35 158.55 Q231.7 156.9 229.95 156.7 L225.95 156.5 225.95 156.6 Q224.15 156.9 222.65 158.2 220.25 160.25 218.0 162.5 L216.5 164.0 216.45 164.75 Q215.65 173.1 222.95 177.9 234.2 185.4 240.45 176.5 239.8 175.15 238.7 174.9 L251.05 175.6 Q250.6 176.4 250.85 177.7 L255.2 203.65 259.2 227.25 252.8 232.15 Q249.45 229.8 246.4 226.2 L246.65 225.95 Q253.55 219.75 242.95 216.5 L242.65 216.05 Q242.9 214.75 241.85 213.85 240.95 213.1 239.95 212.5 238.7 212.95 237.05 213.85 234.25 215.35 232.75 217.95 231.3 220.45 231.45 223.5 L232.55 224.9 Q237.25 230.2 242.25 228.65 243.5 230.5 245.4 232.55 L248.2 235.3 243.1 238.55 Q241.5 235.45 237.95 234.5 233.1 237.0 236.3 242.5 222.45 250.4 211.85 260.2 L211.35 257.3 Q202.25 221.35 199.5 183.8 196.95 148.6 198.6 117.25 L199.0 117.25 200.25 117.0 Q201.45 115.55 202.85 114.9 214.6 109.75 224.8 101.8 L242.4 87.95 Q241.15 93.95 241.85 99.65 242.75 107.45 246.5 112.85 231.7 113.3 221.6 119.65 220.85 119.05 219.9 118.8 L218.0 118.5 Q215.5 119.45 214.3 122.35 212.25 127.45 211.25 133.05 210.5 137.3 212.0 141.5 214.45 143.65 217.45 145.1 223.8 148.1 228.6 146.95 229.2 148.3 230.95 148.35 L231.95 148.2 Q238.25 145.8 244.7 144.5 L247.1 144.55 Q245.9 146.8 246.25 150.1 246.5 152.2 247.35 153.6 239.05 155.2 232.65 159.05 L232.35 158.55 M162.25 255.9 L161.0 255.75 152.6 256.55 Q142.3 258.6 133.5 257.5 133.5 252.25 132.9 247.05 131.95 238.05 129.85 229.1 L128.95 224.55 Q128.4 221.05 127.5 217.75 L141.95 216.3 146.95 215.35 159.0 212.25 Q158.45 216.65 158.5 222.25 158.5 232.6 161.05 242.35 161.9 245.65 161.9 249.25 161.9 252.55 163.1 255.65 L162.25 255.9 M182.15 232.0 Q182.15 228.05 183.15 224.4 183.25 224.1 183.0 223.75 182.0 223.1 180.95 223.05 L175.3 222.75 175.55 216.25 175.5 209.5 175.5 208.75 Q177.7 203.3 184.3 208.45 L184.5 209.0 184.5 211.25 Q184.45 216.5 184.95 221.7 185.45 226.65 186.5 231.5 L186.75 232.25 187.0 232.6 182.25 232.7 182.15 232.0 M177.45 228.3 L177.5 228.5 177.5 230.75 177.5 234.5 177.6 237.5 177.6 237.55 177.6 238.25 172.0 238.3 Q168.2 238.2 165.9 239.95 165.05 234.3 164.55 228.65 L164.85 228.2 Q168.65 231.35 177.45 228.3" fill="#373737" fill-rule="evenodd" stroke="none"/>
      <path d="M262.9 -5.0 L287.5 -5.0 Q285.7 -1.15 285.95 4.1 287.9 43.0 291.3 81.25 292.0 89.75 288.65 96.75 280.35 114.25 252.9 112.9 L248.15 112.8 247.75 112.8 248.15 112.05 Q249.95 104.3 249.9 96.5 249.8 88.95 246.7 84.5 L247.3 84.0 247.45 83.5 Q244.5 80.35 239.95 80.25 205.0 79.5 170.0 79.5 146.05 80.95 123.55 84.05 L122.9 83.8 121.0 83.5 Q113.8 84.55 106.55 87.15 88.7 93.45 71.65 101.55 57.45 108.25 52.7 118.85 L49.5 118.75 49.15 118.9 49.0 118.5 Q49.0 137.95 51.8 162.3 54.6 186.4 57.85 210.4 L57.9 210.55 57.0 210.5 Q34.6 215.25 5.95 211.9 L5.0 211.8 -5.0 210.85 -5.0 184.25 Q19.5 184.25 44.0 183.65 L45.15 182.9 45.5 182.25 Q45.35 180.0 43.0 179.95 19.0 179.55 -5.0 179.5 L-5.0 162.25 Q17.0 162.25 39.0 161.65 39.6 161.6 40.15 160.9 L40.5 160.25 Q40.35 158.0 38.0 157.95 L17.6 157.7 Q19.2 155.9 19.1 153.25 18.8 143.15 18.9 133.05 27.35 133.8 36.15 131.35 36.9 138.55 38.0 145.5 41.6 143.55 41.45 138.95 40.5 109.35 41.4 79.75 42.35 49.0 38.0 21.5 34.5 22.8 34.65 27.25 35.5 57.25 34.55 87.25 34.25 96.75 34.5 105.9 L19.55 105.65 Q19.8 86.3 16.0 69.5 11.7 79.8 12.45 94.3 L12.85 105.55 3.0 105.5 Q1.7 105.65 0.65 107.1 L0.45 107.75 Q0.3 109.15 1.6 109.65 7.2 111.55 12.9 112.3 L12.65 126.5 9.0 126.5 Q7.7 126.65 6.65 128.1 L6.45 128.75 Q6.3 130.15 7.6 130.65 L12.4 132.05 12.05 137.65 Q11.2 150.65 16.55 157.7 L-5.0 157.55 -5.0 -5.0 75.05 -5.0 73.35 18.65 Q72.25 32.5 76.25 41.75 75.4 42.15 74.65 43.1 L74.45 43.75 Q74.4 46.2 77.0 46.2 169.5 46.35 261.95 45.65 262.6 45.6 263.1 44.9 L263.45 44.25 263.4 43.7 263.8 42.45 265.3 17.05 Q266.15 4.75 262.9 -5.0 M314.2 -5.0 L344.65 -5.0 344.35 -2.85 Q344.15 -0.65 344.4 1.1 L343.95 0.5 Q340.4 2.8 339.8 8.3 335.95 44.5 341.75 80.65 347.55 116.75 340.95 151.5 303.45 154.05 264.55 152.45 258.5 152.2 253.1 152.75 253.45 150.1 253.4 147.5 253.4 145.65 252.65 144.5 288.0 143.65 323.2 130.0 324.6 117.4 323.7 104.55 L320.5 57.05 Q318.25 25.45 314.2 -5.0 M370.1 -5.0 L428.65 -5.0 428.45 -4.75 428.45 2.75 428.45 8.75 428.45 14.0 Q435.65 20.35 445.4 22.75 462.55 27.0 466.95 43.35 475.0 73.35 443.7 67.75 443.3 69.95 443.35 72.25 L443.45 82.0 Q443.45 88.35 442.65 94.55 L423.95 94.5 422.95 94.5 Q421.85 94.65 420.95 95.7 L419.85 96.35 Q412.45 101.0 404.45 104.55 396.75 107.95 395.0 113.5 L394.95 113.5 Q394.05 113.6 393.3 114.35 L392.95 113.5 Q390.35 113.8 390.35 116.75 L390.45 141.5 390.45 163.0 390.15 163.35 Q387.45 164.2 384.8 165.6 L375.95 169.85 Q377.35 166.4 377.15 162.55 374.85 122.1 373.25 81.4 371.65 41.1 373.2 2.75 L372.15 2.05 370.95 1.65 369.3 1.5 Q369.5 -1.8 370.1 -5.0 M440.45 -5.0 L554.95 -5.0 554.95 213.25 Q552.3 211.0 549.95 210.95 527.4 210.6 504.85 210.55 L506.25 209.3 Q510.85 204.75 506.15 201.65 505.5 174.95 506.35 148.25 507.3 119.75 502.95 94.5 L502.35 96.6 Q501.95 95.0 499.95 95.0 L484.6 94.85 484.65 94.7 491.85 82.1 Q494.35 77.7 497.2 73.75 L497.35 73.35 Q506.1 75.9 511.95 71.25 L512.4 70.45 512.8 69.8 513.4 68.95 513.95 68.25 514.45 67.5 Q518.3 68.95 522.35 68.65 548.75 66.55 544.85 37.2 541.4 10.95 512.95 6.5 507.65 8.7 504.05 13.6 501.75 16.7 501.15 20.45 500.55 24.4 503.95 25.5 507.2 23.85 507.85 19.65 508.6 14.65 513.2 14.8 536.5 15.45 539.2 37.3 542.85 66.55 517.95 62.5 524.45 56.65 524.8 48.25 525.15 39.8 518.1 36.25 504.3 29.4 503.65 43.85 503.05 56.6 508.45 66.25 L496.0 67.75 494.2 68.25 Q490.0 74.3 485.95 80.7 L476.7 94.75 448.6 94.55 448.45 84.0 448.45 72.0 Q455.45 73.9 462.7 72.35 468.35 71.2 472.95 67.5 474.7 62.45 475.3 57.1 476.7 44.3 470.35 34.25 458.05 14.65 433.45 11.25 L433.45 9.75 433.45 6.0 433.35 0.75 Q433.3 -0.8 433.7 -2.25 436.2 -3.35 439.0 -3.2 440.05 -3.1 440.25 -4.25 L440.45 -5.0 M-5.0 293.25 L-5.0 286.0 -0.65 286.0 -5.0 293.25 M494.95 215.5 L494.8 215.4 494.9 215.3 494.95 215.5 M499.95 98.7 L500.95 98.65 Q501.5 98.6 502.0 98.05 L501.4 100.65 499.95 99.5 499.95 98.7 M506.8 47.75 Q505.5 41.25 511.2 38.0 513.2 37.85 515.2 38.0 L515.95 38.25 Q516.85 39.35 517.55 40.6 520.4 45.35 518.85 50.9 517.25 56.75 512.45 60.25 511.2 59.65 510.6 58.45 507.95 53.3 506.8 47.75 M498.5 183.6 L498.95 183.65 498.5 183.65 498.5 183.6 M492.95 209.5 L493.05 209.5 492.95 209.5 M237.1 175.0 L237.15 174.8 237.85 174.85 237.1 175.0 M394.55 118.3 L394.55 118.2 394.95 118.2 394.55 118.3 M364.45 174.45 L355.15 177.4 Q342.45 181.1 333.6 188.5 L332.95 188.5 331.95 188.5 Q330.65 188.65 329.65 190.1 L329.45 190.75 Q329.35 192.6 330.95 193.1 L330.0 212.15 328.95 212.0 Q296.45 211.5 263.95 211.5 L262.85 211.8 Q261.4 205.2 260.3 198.4 258.3 185.95 253.55 175.75 307.65 178.25 364.45 174.45 M441.95 189.0 L442.65 188.45 444.25 189.6 444.1 190.0 Q443.5 189.0 441.95 189.0 M469.4 150.25 L469.35 149.5 469.45 150.25 469.4 150.25 M469.45 128.5 L469.4 128.3 469.45 128.25 469.45 128.5 M442.95 192.6 Q443.55 192.6 444.0 192.05 L443.95 192.65 442.95 192.6 M475.95 203.3 L475.05 203.4 475.0 203.2 475.95 203.3 M462.2 207.55 L461.25 207.7 462.1 206.95 462.2 207.55 M469.05 211.45 L469.75 211.65 469.45 213.5 469.05 211.45 M426.95 205.2 Q424.1 203.85 428.2 204.0 429.3 203.3 429.95 204.5 431.55 207.4 426.95 205.2 M434.65 225.75 Q436.15 229.1 431.7 225.7 L431.45 224.0 Q433.6 223.5 434.65 225.75 M261.05 42.0 L260.95 42.0 261.05 42.0 M236.95 85.25 L237.2 85.25 236.95 85.5 236.95 85.25 M125.5 86.25 L125.35 85.85 125.5 85.85 125.5 86.25 M232.35 158.55 L232.65 159.05 232.45 159.15 232.35 158.55 M35.7 126.9 L18.95 126.55 19.35 112.65 Q26.9 112.65 34.65 110.5 34.95 118.85 35.7 126.9 M162.25 255.9 L163.1 255.65 163.25 256.0 162.25 255.9 M37.9 240.8 L37.65 240.8 37.9 240.35 37.9 240.8 M237.95 221.35 L239.0 221.45 240.0 221.6 Q239.9 222.65 240.1 223.8 L238.95 223.65 Q236.35 223.25 237.45 221.5 237.7 221.35 237.95 221.35 M282.4 258.7 L282.55 258.65 282.55 258.7 282.4 258.7 M244.7 223.25 L244.4 223.65 244.35 223.65 243.3 222.15 Q244.15 222.45 244.7 223.25 M182.15 232.0 L182.25 232.7 182.2 232.75 182.15 232.0 M177.45 228.3 L177.5 228.25 177.5 228.5 177.45 228.3 M177.6 237.55 L177.75 238.25 177.6 238.25 177.6 237.55 M164.55 228.65 L164.5 227.9 164.85 228.2 164.55 228.65" fill="#aaaaaa" fill-rule="evenodd" stroke="none"/>
      <path d="M78.95 -5.0 L260.05 -5.0 258.65 19.95 Q257.8 32.35 261.05 42.0 L260.95 42.0 Q170.4 41.5 79.85 41.5 79.5 28.0 80.35 14.55 81.0 3.9 78.95 -5.0 M245.4 21.7 Q249.25 20.3 244.95 18.5 244.3 18.65 243.65 19.55 241.0 23.25 245.4 21.7 M168.4 6.7 Q172.25 5.3 167.95 3.5 167.3 3.65 166.65 4.55 164.05 8.25 168.4 6.7 M199.65 29.55 Q197.05 33.25 201.4 31.7 205.25 30.3 200.95 28.5 200.3 28.65 199.65 29.55 M239.65 0.55 Q237.05 4.25 241.4 2.7 245.25 1.3 240.95 -0.5 240.3 -0.35 239.65 0.55 M99.4 24.7 Q103.25 23.3 99.0 21.5 98.3 21.65 97.65 22.55 95.05 26.25 99.4 24.7 M106.4 10.7 Q110.25 9.3 106.0 7.5 105.3 7.65 104.65 8.55 102.05 12.25 106.4 10.7 M151.4 24.7 Q155.25 23.3 150.95 21.5 150.3 21.65 149.65 22.55 147.05 26.25 151.4 24.7" fill="#2b2b2b" fill-rule="evenodd" stroke="none"/>
      <path d="M499.95 98.7 L499.95 99.5 Q499.3 99.65 498.3 100.4 493.65 103.9 489.2 108.25 486.0 111.4 483.75 114.55 483.15 114.0 481.95 114.0 441.95 113.55 401.9 113.5 408.0 110.1 414.7 107.5 424.0 103.9 424.95 99.2 L442.25 99.25 Q442.15 105.4 444.95 109.5 447.0 109.25 447.65 107.3 448.8 103.45 448.7 99.2 L474.45 99.05 Q473.4 102.8 476.95 105.5 479.55 102.55 482.0 98.95 L499.95 98.7 M441.95 189.0 Q394.35 188.55 346.7 188.5 362.05 179.9 379.15 175.2 388.45 172.6 391.65 168.85 L394.0 169.15 Q437.9 167.55 481.85 167.1 474.95 170.6 467.75 173.65 453.2 179.7 441.45 187.0 L442.65 188.45 441.95 189.0 M442.95 192.6 L443.95 192.65 442.6 218.95 Q441.85 231.65 444.55 241.95 389.95 241.5 335.4 241.5 335.5 228.4 336.35 215.3 337.05 203.2 334.45 193.2 388.7 193.35 442.95 192.6 M409.45 216.25 Q409.3 214.0 406.95 213.95 383.95 213.5 360.95 213.5 359.65 213.65 358.65 215.1 L358.45 215.75 Q358.35 218.15 360.95 218.2 384.45 218.35 407.95 217.65 408.6 217.6 409.1 216.9 L409.45 216.25 M435.75 206.5 Q436.35 201.6 432.2 199.05 428.9 197.0 424.95 197.5 422.2 198.1 420.8 201.05 420.0 202.75 420.3 205.0 L420.45 208.0 Q424.25 213.2 431.0 211.7 433.9 211.0 435.2 208.75 L435.75 206.5 M427.45 232.0 L435.8 231.6 Q440.75 230.8 440.25 226.0 439.35 217.65 429.95 218.5 426.7 219.3 425.75 222.85 425.0 225.75 425.95 228.85 426.45 230.5 427.45 232.0 M393.95 200.5 L384.95 200.5 Q369.65 200.9 354.0 203.1 352.45 203.3 352.45 204.75 352.35 207.15 355.0 207.3 380.7 208.5 402.45 204.25 402.2 203.5 401.7 203.05 398.5 200.55 393.95 200.5" fill="#737373" fill-rule="evenodd" stroke="none"/>
      <path d="M498.5 183.6 Q498.55 172.4 494.95 163.5 L494.7 163.55 Q494.4 163.25 493.95 163.15 L492.95 161.5 Q491.95 161.55 490.8 162.25 L489.6 162.95 486.85 162.9 Q487.5 151.0 488.3 139.05 489.1 127.05 486.05 117.5 492.5 115.45 497.7 110.9 L500.05 108.55 Q498.95 117.45 499.35 127.55 500.45 155.6 498.95 183.65 L498.5 183.6 M498.5 183.65 L498.95 183.65 Q498.3 196.1 501.45 204.8 L499.4 206.25 497.05 208.35 Q497.6 198.2 498.3 188.05 L498.5 183.65 M236.95 85.5 L235.4 86.85 Q224.55 94.7 213.0 101.15 205.45 105.4 198.95 110.5 L186.6 112.05 Q122.4 119.65 59.55 118.95 72.05 108.05 87.6 100.7 106.65 91.7 125.5 86.25 L125.5 85.85 Q180.25 86.75 236.95 85.25 L236.95 85.5 M171.45 106.45 Q175.95 101.95 170.0 100.5 168.5 100.7 166.9 101.65 164.6 103.05 163.1 105.35 161.7 107.6 162.75 110.25 L164.7 110.6 Q168.5 109.45 171.45 106.45 M195.0 101.5 L194.95 101.6 Q193.15 101.9 191.65 103.2 189.0 105.35 185.5 106.0 L184.9 106.8 184.55 108.25 184.5 109.75 184.5 110.5 Q184.95 112.35 186.6 111.6 190.3 109.95 194.1 107.75 199.85 104.5 195.0 101.5 M110.9 99.8 L109.0 99.5 Q107.5 99.7 105.9 100.7 101.15 103.6 96.0 105.6 89.9 107.9 89.75 113.25 91.0 114.75 92.65 113.85 98.1 110.8 104.1 108.6 110.5 106.25 113.5 101.5 L112.9 100.85 Q112.0 100.1 110.9 99.8 M122.75 110.9 Q125.35 109.3 127.75 108.25 131.1 106.9 131.5 103.5 L130.9 102.85 Q130.0 102.1 128.9 101.8 L127.0 101.5 Q125.45 102.05 123.75 103.35 121.35 105.1 119.25 107.3 117.45 109.15 119.5 111.0 L122.75 110.9 M149.0 100.5 L148.0 100.8 Q144.05 102.3 141.4 105.2 138.2 108.7 140.5 112.0 L141.9 112.1 Q145.95 111.3 149.35 107.85 153.75 103.3 149.0 100.5" fill="#595959" fill-rule="evenodd" stroke="none"/>
      <path d="M492.95 209.5 Q490.65 210.3 489.0 212.65 482.6 222.0 471.95 227.5 459.2 234.2 449.15 242.0 L448.4 242.0 Q448.5 228.6 449.35 215.3 450.2 201.35 446.55 190.2 449.95 190.4 454.5 187.0 467.25 177.4 483.05 172.8 490.35 170.7 492.95 168.05 L491.6 190.95 Q490.95 201.15 493.05 209.5 L492.95 209.5 M394.55 118.3 L394.95 118.2 Q438.95 118.35 482.95 117.65 L483.0 117.65 481.6 141.95 Q480.85 153.65 483.65 162.85 L396.0 161.75 Q394.85 150.1 395.95 138.05 396.95 127.15 394.55 118.3 M469.4 150.25 Q466.3 150.6 463.35 150.15 460.75 149.8 459.6 152.3 459.45 152.6 459.45 153.0 464.1 162.25 475.6 154.6 L476.2 154.0 476.2 153.35 Q473.3 146.95 473.35 139.75 473.35 133.25 474.5 127.0 474.75 125.7 473.95 124.75 472.2 123.25 469.9 123.05 L457.95 122.5 456.6 123.2 455.3 124.3 454.55 125.8 454.45 126.5 Q460.2 130.9 469.4 128.3 L469.45 128.5 Q468.35 129.8 468.35 131.5 L468.25 141.25 Q468.1 145.55 469.35 149.5 L469.4 150.25 M448.6 148.4 Q449.0 144.9 450.2 141.75 L450.35 141.35 Q459.45 144.25 463.45 139.0 458.4 130.0 444.7 136.75 444.3 137.8 444.4 139.0 444.7 142.2 444.1 146.45 443.55 149.75 443.45 153.25 431.3 156.15 422.45 152.0 L422.45 149.75 Q422.45 144.5 423.1 139.3 423.35 137.1 423.0 135.3 L430.2 134.25 429.95 134.5 429.15 135.95 Q426.8 139.65 427.1 144.25 427.55 150.4 433.0 150.95 L433.7 150.75 Q434.1 150.0 433.85 149.5 431.55 144.35 434.4 140.15 437.45 135.75 437.25 130.5 L436.95 129.75 Q435.95 129.1 434.9 129.05 L418.95 128.5 413.1 130.2 Q410.95 130.8 410.55 132.75 L410.45 133.5 Q413.85 134.7 417.45 135.1 L417.3 145.25 416.7 157.25 Q432.15 161.85 447.95 158.25 448.75 157.3 448.6 155.95 448.2 152.1 448.6 148.4 M475.95 203.3 Q480.85 203.3 484.75 200.0 490.55 195.1 483.95 192.5 483.45 192.6 483.0 192.8 479.85 194.05 477.2 196.1 475.7 197.25 474.75 198.6 474.75 196.2 474.9 193.75 475.1 190.3 473.2 187.75 472.1 187.1 470.9 186.95 L464.95 186.5 Q464.45 186.6 464.0 186.85 462.55 187.65 461.5 189.0 L460.6 190.55 Q460.45 190.85 460.45 191.25 461.65 194.8 461.6 198.75 L461.7 203.05 459.95 202.5 458.6 203.25 Q456.0 204.7 453.55 206.5 450.05 209.05 452.45 212.0 L454.7 211.8 Q458.2 210.3 461.25 207.7 L462.2 207.55 Q462.5 209.95 463.1 212.3 464.0 215.95 466.45 219.0 469.5 220.3 472.3 218.75 474.65 217.4 476.3 215.35 L476.45 214.75 475.4 206.35 475.05 203.4 475.95 203.3" fill="#919191" fill-rule="evenodd" stroke="none"/>
      <path d="M469.4 128.3 Q460.2 130.9 454.45 126.5 L454.55 125.8 455.3 124.3 456.6 123.2 457.95 122.5 469.9 123.05 Q472.2 123.25 473.95 124.75 474.75 125.7 474.5 127.0 473.35 133.25 473.35 139.75 473.3 146.95 476.2 153.35 L476.2 154.0 475.6 154.6 Q464.1 162.25 459.45 153.0 459.45 152.6 459.6 152.3 460.75 149.8 463.35 150.15 466.3 150.6 469.4 150.25 L469.45 150.25 469.35 149.5 Q468.1 145.55 468.25 141.25 L468.35 131.5 Q468.35 129.8 469.45 128.5 L469.45 128.25 469.4 128.3 M448.6 148.4 Q448.2 152.1 448.6 155.95 448.75 157.3 447.95 158.25 432.15 161.85 416.7 157.25 L417.3 145.25 417.45 135.1 Q413.85 134.7 410.45 133.5 L410.55 132.75 Q410.95 130.8 413.1 130.2 L418.95 128.5 434.9 129.05 Q435.95 129.1 436.95 129.75 L437.25 130.5 Q437.45 135.75 434.4 140.15 431.55 144.35 433.85 149.5 434.1 150.0 433.7 150.75 L433.0 150.95 Q427.55 150.4 427.1 144.25 426.8 139.65 429.15 135.95 L429.95 134.5 430.2 134.25 423.0 135.3 Q423.35 137.1 423.1 139.3 422.45 144.5 422.45 149.75 L422.45 152.0 Q431.3 156.15 443.45 153.25 443.55 149.75 444.1 146.45 444.7 142.2 444.4 139.0 444.3 137.8 444.7 136.75 458.4 130.0 463.45 139.0 459.45 144.25 450.35 141.35 L450.2 141.75 Q449.0 144.9 448.6 148.4 M163.75 146.2 L164.25 147.8 164.5 150.0 164.35 151.45 Q164.1 152.95 164.95 153.95 L165.45 155.25 165.65 155.9 166.15 156.8 166.4 157.5 166.5 159.0 Q134.2 160.15 102.2 165.0 L94.0 165.5 93.55 163.95 93.5 163.25 93.5 162.5 93.5 161.0 93.5 160.25 93.5 159.5 93.5 158.75 93.5 158.0 93.5 157.25 93.5 155.75 Q95.85 154.8 98.3 154.5 114.85 152.75 131.2 149.55 147.0 146.5 163.0 144.5 L163.35 144.8 163.55 145.5 163.75 146.2" fill="#880000" fill-rule="evenodd" stroke="none"/>
      <path d="M469.05 211.45 Q467.4 206.7 466.9 201.7 466.45 196.85 466.45 192.0 L467.95 192.15 Q469.65 197.15 469.95 202.7 470.25 207.7 469.75 211.65 L469.05 211.45" fill="#9122ff" fill-rule="evenodd" stroke="none"/>
      <path d="M373.55 257.75 L373.7 257.0 Q374.95 256.85 375.4 257.4 376.65 258.95 375.3 261.3 372.35 266.35 369.45 264.0 L369.4 263.25 Q369.1 261.4 370.95 261.4 372.55 261.35 373.2 260.0 L373.4 259.2 373.45 258.5 373.55 257.75 M342.45 259.25 L341.75 260.75 Q339.8 265.4 337.25 261.3 335.0 257.6 339.2 257.0 L341.25 257.4 Q341.95 257.75 342.35 258.55 L342.45 259.25" fill="#c40000" fill-rule="evenodd" stroke="none"/>
      <path d="M169.95 148.25 Q169.75 141.05 166.0 136.5 131.05 144.5 94.0 149.75 L93.7 149.2 Q93.55 147.8 92.1 147.25 L90.0 146.75 Q87.55 149.7 88.0 154.3 88.5 159.1 88.3 164.0 88.2 166.85 89.85 166.95 130.4 169.1 173.5 162.5 173.65 161.3 173.1 160.3 170.15 154.8 169.95 148.25 M49.5 118.75 Q50.2 120.5 51.65 121.6 L51.5 122.0 52.55 122.2 Q54.65 123.35 58.0 123.4 128.35 124.35 194.25 118.0 192.1 122.65 192.35 127.75 193.75 160.85 195.65 193.8 197.55 226.45 203.5 258.25 138.2 267.8 76.4 271.85 76.55 269.6 75.85 267.1 65.55 230.4 63.85 192.4 62.05 153.35 49.15 118.9 L49.5 118.75 M89.9 189.95 L85.0 189.5 Q80.75 191.5 79.9 196.95 78.1 208.7 90.3 204.4 98.6 201.45 96.0 192.75 L93.95 191.5 Q92.05 190.35 89.9 189.95 M89.15 216.1 Q86.7 217.2 84.0 217.9 83.6 218.0 83.25 218.25 80.65 221.9 82.6 225.55 88.65 236.85 97.45 228.4 103.3 222.8 100.25 215.75 99.1 215.1 97.9 214.9 L93.0 214.5 89.15 216.1 M159.0 206.5 Q140.8 212.55 121.5 213.0 121.3 216.9 122.3 220.6 125.05 230.55 127.05 240.8 128.65 248.85 128.5 257.25 127.25 257.85 125.9 258.25 124.45 258.7 123.65 260.05 123.5 260.35 123.5 260.75 145.6 264.15 169.25 261.0 169.3 257.25 168.45 253.4 167.4 248.85 166.6 244.3 175.05 245.95 184.9 242.95 L185.5 242.5 184.95 241.15 184.2 239.95 Q187.65 240.2 192.45 237.9 L193.0 237.5 Q192.3 230.5 190.7 223.15 188.95 215.15 188.8 206.75 188.8 204.6 187.25 203.0 L185.95 202.7 173.0 202.5 Q172.5 202.6 172.3 202.9 169.45 207.75 169.2 214.45 169.05 219.4 171.05 222.6 L164.2 222.5 Q164.0 214.85 165.0 207.75 164.0 207.1 162.9 206.9 L159.0 206.5 M89.6 242.2 Q88.85 242.6 88.15 243.15 L85.8 244.8 85.0 245.5 Q84.2 246.45 84.4 247.75 L84.5 249.25 84.65 250.7 Q84.75 251.1 85.0 251.5 86.5 253.1 88.5 254.0 102.1 259.95 104.35 248.2 104.7 246.3 104.0 244.5 101.8 242.45 98.9 242.05 L91.0 241.5 89.6 242.2" fill="#555555" fill-rule="evenodd" stroke="none"/>
      <path d="M86.5 197.45 L88.25 195.0 Q89.5 194.6 90.8 195.7 91.25 196.1 91.35 196.75 L91.5 198.25 89.75 200.75 Q86.85 203.85 85.0 200.5 L84.95 199.85 Q85.6 198.4 86.5 197.45 M93.25 220.0 Q95.75 218.55 96.25 220.3 L96.25 221.0 95.6 222.5 95.35 223.2 94.5 225.5 94.25 226.25 Q91.9 228.2 89.0 226.4 87.85 225.7 87.5 224.5 L87.3 223.85 Q87.8 222.2 89.7 221.45 L93.25 220.0" fill="#0027c4" fill-rule="evenodd" stroke="none"/>
      <path d="M98.3 247.55 Q99.0 247.75 99.5 248.5 99.0 249.25 98.35 249.4 95.85 250.0 93.4 249.35 91.4 248.8 94.5 247.0 L98.3 247.55" fill="#00c44e" fill-rule="evenodd" stroke="none"/>
      <path d="M245.4 21.7 Q241.0 23.25 243.65 19.55 244.3 18.65 244.95 18.5 249.25 20.3 245.4 21.7 M239.65 0.55 Q240.3 -0.35 240.95 -0.5 245.25 1.3 241.4 2.7 237.05 4.25 239.65 0.55 M199.65 29.55 Q200.3 28.65 200.95 28.5 205.25 30.3 201.4 31.7 197.05 33.25 199.65 29.55 M168.4 6.7 Q164.05 8.25 166.65 4.55 167.3 3.65 167.95 3.5 172.25 5.3 168.4 6.7 M151.4 24.7 Q147.05 26.25 149.65 22.55 150.3 21.65 150.95 21.5 155.25 23.3 151.4 24.7 M106.4 10.7 Q102.05 12.25 104.65 8.55 105.3 7.65 106.0 7.5 110.25 9.3 106.4 10.7 M99.4 24.7 Q95.05 26.25 97.65 22.55 98.3 21.65 99.0 21.5 103.25 23.3 99.4 24.7" fill="#ffffff" fill-rule="evenodd" stroke="none"/>
    </g>
  </defs>
</svg>
