<?xml version="1.0" encoding="UTF-8" standalone="no"?>
<svg xmlns:xlink="http://www.w3.org/1999/xlink" height="842.55px" width="1337.95px" xmlns="http://www.w3.org/2000/svg">
  <g transform="matrix(1, 0, 0, 1, 407.45, 285.05)">
    <use height="4.5" transform="matrix(5.4867, 0.0, 0.0, 81.5667, 3.2875, 23.0167)" width="99.75" xlink:href="#shape0"/>
    <use height="535.1" transform="matrix(1.0, 0.0, 0.0, 1.0, 13.6, -9.25)" width="529.85" xlink:href="#shape1"/>
  </g>
  <defs>
    <g id="shape0" transform="matrix(1, 0, 0, 1, 49.85, -2.5)">
      <path d="M49.9 7.0 L-49.85 7.0 -49.85 2.5 49.9 2.5 49.9 7.0" fill="#ffffff" fill-rule="evenodd" stroke="none"/>
    </g>
    <g id="shape1" transform="matrix(1, 0, 0, 1, -13.6, 9.25)">
      <path d="M246.2 -2.95 Q263.0 -7.0 280.3 -8.6 298.5 -10.0 316.75 -8.45 334.65 -6.95 352.15 -2.15 369.1 2.4 385.15 9.65 402.05 17.3 417.95 27.35 433.7 37.3 447.85 49.5 L446.05 52.3 Q420.0 38.0 392.2 27.9 368.55 19.3 343.9 13.5 316.4 7.05 288.25 8.05 265.6 9.7 243.85 16.35 210.85 26.45 181.85 44.95 158.9 59.45 141.0 80.05 114.1 111.0 101.25 149.9 93.35 173.95 91.4 199.0 89.5 223.55 93.65 247.6 97.85 271.85 108.4 294.25 119.45 317.8 136.3 337.5 150.95 354.6 169.2 367.9 184.75 379.2 202.8 385.0 217.85 390.0 233.7 389.95 258.65 389.85 282.25 381.8 305.0 373.85 324.05 358.9 337.1 348.65 346.35 334.6 355.7 320.3 360.4 304.0 365.3 287.1 363.85 269.5 362.4 252.0 354.75 236.05 350.25 226.7 344.15 218.4 338.6 210.8 331.3 204.7 324.35 199.0 316.2 195.15 307.95 191.3 298.85 189.75 289.25 187.9 279.3 188.05 268.7 188.2 258.9 191.95 252.35 194.55 246.75 198.85 238.15 205.4 231.65 214.2 225.65 222.3 224.55 232.25 223.5 242.2 227.6 251.25 232.1 261.1 239.4 269.1 243.9 274.0 250.15 276.2 252.9 277.15 255.6 276.65 261.25 276.3 265.55 272.2 256.0 273.65 247.9 267.95 236.95 260.25 237.45 246.85 238.0 232.45 243.65 219.05 250.0 204.05 265.35 198.55 276.6 194.6 288.6 194.5 306.3 194.35 320.8 204.55 331.3 212.1 338.85 222.35 344.75 230.5 349.05 239.4 357.55 257.15 356.6 276.7 355.75 293.8 347.95 309.0 340.85 322.9 331.7 335.4 323.3 346.8 312.65 356.4 302.5 365.6 289.85 370.9 278.45 375.75 266.0 377.4 238.05 381.45 210.55 374.45 182.15 367.15 159.0 349.0 138.4 332.75 125.9 309.55 111.05 281.9 107.7 250.7 104.5 220.95 110.85 191.7 116.9 163.85 130.85 138.95 144.7 114.15 164.8 93.9 182.8 75.85 205.05 63.1 221.8 53.55 239.95 47.2 259.1 40.4 279.1 36.5 298.05 32.9 317.45 32.7 336.3 32.55 354.95 35.7 373.75 39.0 391.6 45.45 407.2 51.15 421.6 58.7 435.75 66.2 448.85 75.5 458.4 82.2 467.05 89.6 480.05 100.75 491.35 113.8 503.0 127.3 512.25 142.4 521.7 157.85 528.4 174.7 535.15 191.5 538.65 209.35 542.95 231.1 543.4 253.3 543.95 280.0 538.95 306.25 L535.6 306.1 Q534.95 267.95 526.75 230.75 519.05 195.75 503.9 163.35 496.1 146.6 483.9 132.55 457.75 102.35 423.8 81.25 397.15 64.75 366.7 57.35 339.8 51.05 312.1 52.0 272.65 53.95 236.45 69.95 214.2 79.8 195.1 94.75 175.75 109.9 161.0 129.6 145.55 150.3 136.1 174.45 126.75 198.4 124.0 224.15 122.3 239.65 124.5 254.9 126.7 270.55 133.9 284.65 144.3 305.15 160.6 321.6 178.0 339.1 200.1 349.9 219.7 359.45 241.35 360.85 258.35 361.8 274.8 357.8 289.75 354.0 302.85 345.8 317.65 336.55 328.2 322.55 336.85 311.1 342.1 297.85 345.45 289.25 346.7 280.0 347.9 271.1 346.7 262.15 345.5 252.95 342.0 244.4 338.25 235.15 332.85 226.6 327.15 217.65 318.35 211.85 310.25 206.5 300.9 203.85 296.0 202.4 290.7 201.65 285.0 200.7 279.15 201.35 272.75 202.05 267.15 204.95 261.5 208.0 257.1 212.8 252.2 218.25 248.8 224.75 243.9 234.1 243.35 244.35 243.1 248.85 245.6 252.65 249.85 259.05 257.4 260.55 L259.4 260.85 257.65 259.6 Q250.05 252.55 252.2 241.55 255.4 225.3 271.2 221.25 285.65 217.3 300.5 219.05 310.2 219.95 317.65 226.5 331.45 238.45 336.6 256.1 339.7 266.75 338.25 277.7 336.0 295.1 325.7 309.6 317.95 320.55 307.7 329.2 299.6 336.05 289.9 340.45 271.3 349.1 250.8 346.7 227.9 344.2 206.35 336.0 190.0 329.85 176.85 318.75 166.15 309.8 159.05 297.7 147.8 278.65 142.85 257.0 138.55 238.25 139.85 219.0 141.8 190.5 154.45 164.95 166.05 141.55 186.25 124.8 213.6 102.1 247.4 91.25 284.3 79.55 322.9 84.1 341.7 86.15 359.9 91.55 377.8 96.9 394.3 105.4 410.8 113.85 425.2 125.35 440.05 137.2 452.45 151.5 464.6 165.5 474.7 181.2 485.3 197.7 493.1 215.65 500.65 233.0 504.85 251.45 509.05 269.85 509.8 288.85 510.6 308.2 508.05 327.6 505.9 343.9 501.85 359.9 498.3 373.8 492.85 387.25 488.55 398.0 483.4 408.05 475.45 423.5 465.3 437.5 454.55 452.25 441.35 464.9 428.4 477.4 413.35 487.5 398.9 497.2 382.85 504.65 365.9 512.4 348.05 517.85 330.15 523.2 311.65 525.85 L310.7 522.65 Q322.75 518.4 334.45 513.2 380.75 492.55 420.25 460.5 448.25 437.9 464.35 405.6 471.3 391.65 476.8 377.05 490.05 342.25 491.1 305.0 492.0 273.75 482.95 243.85 477.35 225.45 468.35 208.3 453.95 181.05 432.3 159.05 412.95 139.35 388.75 125.95 367.25 113.95 343.15 107.9 317.95 101.65 291.95 102.25 266.05 103.25 241.25 110.95 229.55 114.6 218.9 121.1 205.3 129.4 195.05 141.5 179.0 160.35 169.6 183.5 160.5 205.85 159.4 230.0 158.4 251.5 166.05 271.6 171.95 287.2 182.25 300.45 191.6 312.45 204.3 320.85 218.6 330.45 235.35 334.5 248.45 337.6 261.8 337.2 270.95 336.95 279.65 334.35 288.3 331.7 295.95 326.95 303.95 322.1 310.7 315.35 317.25 308.65 322.55 300.75 326.85 294.4 328.9 286.8 330.65 280.25 330.75 273.4 330.9 266.55 330.0 259.75 329.2 253.85 327.0 248.4 324.55 242.45 320.1 237.65 315.7 233.0 310.0 230.25 303.6 227.1 296.65 225.65 286.8 223.95 276.85 225.55 271.25 226.45 267.4 230.45 262.05 236.1 263.0 244.1 267.2 235.6 276.5 232.9 290.2 229.1 300.55 238.95 308.45 246.45 313.8 256.3 317.2 262.5 318.65 269.45 322.45 287.4 311.75 302.65 302.15 316.4 287.35 324.15 277.7 329.25 266.6 329.85 239.55 331.2 215.5 318.4 202.95 311.75 194.0 300.55 185.85 290.4 181.3 277.95 171.6 251.25 171.1 222.7 170.8 205.4 177.35 189.55 185.5 169.9 200.2 154.55 218.25 135.65 241.8 124.65 265.3 113.85 291.05 111.95 311.45 110.35 331.0 115.3 355.6 121.4 376.6 135.4 392.85 146.3 406.75 160.1 420.25 173.5 430.5 189.5 440.9 205.65 447.75 223.85 453.5 239.1 456.9 255.05 461.35 275.75 461.45 296.9 461.5 317.85 456.95 338.1 452.75 356.6 445.25 374.05 437.9 391.15 428.3 407.1 418.2 423.85 405.35 438.75 392.95 453.1 378.2 464.95 363.3 476.9 346.75 485.85 329.5 495.05 311.05 501.15 295.35 506.45 279.25 509.65 265.2 512.5 250.75 513.6 239.35 514.5 227.9 514.2 210.55 513.7 193.35 510.7 175.35 507.65 158.25 501.3 141.35 495.15 125.7 486.0 110.55 477.15 96.95 465.95 82.6 454.25 69.85 440.5 57.15 426.75 46.55 411.2 L49.05 408.95 Q58.25 417.75 68.1 426.05 112.8 463.6 166.75 485.45 172.4 487.75 178.3 489.35 217.15 499.4 257.35 494.6 284.3 491.25 309.8 482.15 324.25 477.05 337.85 469.4 358.3 457.95 375.45 441.95 391.65 426.9 404.3 408.7 413.8 394.95 421.05 379.85 435.25 350.3 439.35 317.65 442.8 290.1 437.95 262.75 433.4 237.1 422.2 213.75 411.05 190.5 393.95 170.9 383.6 159.05 370.4 150.5 360.05 143.7 348.45 139.9 326.4 132.9 303.4 132.85 278.7 132.8 255.35 140.85 234.75 147.9 218.6 162.25 202.45 176.6 192.8 196.05 186.1 209.6 184.1 224.75 182.1 239.95 184.9 255.1 187.35 268.6 193.25 280.85 198.55 291.95 207.2 300.55 213.6 307.0 221.35 311.6 229.6 316.4 238.8 319.25 248.8 322.4 259.2 322.95 267.85 323.3 276.25 320.45 284.55 317.4 292.15 312.65 297.25 309.5 301.6 305.1 305.55 301.15 308.1 296.45 310.05 292.8 311.05 288.7 312.6 282.3 311.85 275.8 311.0 268.3 308.45 261.2 305.7 253.45 300.7 247.1 296.85 242.15 290.5 241.55 283.9 240.7 278.2 244.15 274.85 246.2 272.15 248.85 271.05 249.9 270.05 251.1 L270.65 251.6 272.15 250.45 272.45 249.15 Q277.3 247.45 282.35 248.4 284.55 248.85 286.15 250.25 298.1 260.65 294.85 276.35 294.15 279.8 291.9 282.6 279.75 297.6 261.2 304.1 254.7 306.35 247.85 305.4 228.45 302.75 214.55 288.6 204.35 278.3 200.55 264.5 195.35 245.8 199.75 226.75 204.5 206.3 217.55 189.8 226.55 178.4 239.35 171.75 249.95 166.35 261.35 163.05 286.25 155.95 312.05 156.95 327.55 157.9 341.6 164.2 356.2 170.9 368.3 181.55 383.05 194.45 393.85 210.95 403.45 225.7 409.05 242.55 413.7 256.4 415.45 270.9 418.2 294.05 412.7 316.8 407.85 336.9 397.15 354.7 387.0 371.6 373.7 386.4 360.95 400.45 345.4 411.55 333.3 420.25 320.0 426.7 306.15 433.4 291.55 437.9 264.25 446.45 235.65 447.1 210.05 447.7 185.35 441.6 171.45 438.2 158.3 432.9 141.85 426.3 126.6 417.5 109.55 407.7 94.15 395.2 79.4 383.2 67.0 368.7 54.65 354.3 45.25 338.05 37.25 324.1 31.3 309.15 25.05 293.6 21.0 277.4 18.0 265.55 16.2 253.6 13.2 233.8 13.65 213.65 14.15 190.1 19.7 167.15 23.95 149.65 31.2 132.9 38.45 116.2 48.35 101.2 60.65 82.6 76.0 66.7 94.65 47.4 116.55 32.3 L118.85 34.8 Q101.3 53.3 86.25 73.8 59.4 110.4 42.4 152.5 34.35 172.55 32.75 194.1 29.5 238.05 41.1 280.55 49.35 310.7 66.7 336.65 79.9 356.35 97.3 372.4 120.15 393.4 148.05 406.75 171.95 418.2 198.05 423.35 222.1 427.95 246.65 425.95 272.1 423.9 296.35 415.3 320.55 406.8 341.65 391.8 356.65 381.05 368.95 367.25 379.5 355.4 385.3 340.75 393.1 321.05 394.65 300.05 396.45 275.5 390.35 251.65 384.75 229.75 371.5 211.6 361.7 198.15 348.05 188.25 334.9 178.8 319.75 173.65 303.3 168.1 286.0 169.2 265.6 170.2 247.05 179.1 237.3 183.8 229.4 190.9 221.5 198.05 216.25 207.1 211.4 215.5 208.45 224.5 204.05 237.8 205.5 251.8 206.55 261.85 211.1 270.8 214.7 277.75 219.7 283.85 223.3 288.25 227.9 291.6 231.3 294.05 235.25 295.55 242.4 298.35 249.85 297.8 257.15 297.35 264.15 295.15 271.55 292.65 278.05 288.45 281.5 286.25 283.9 283.15 287.45 278.55 286.55 272.9 285.45 266.05 281.05 260.65 284.0 268.5 278.6 274.8 270.05 284.8 257.0 284.65 254.05 284.6 251.6 283.55 233.9 275.75 222.9 259.5 219.85 255.05 218.7 249.55 214.65 230.75 224.1 213.35 229.5 203.35 238.05 196.05 252.65 183.5 271.9 181.0 290.35 178.85 308.65 183.0 328.3 187.4 342.3 201.65 354.65 214.25 363.0 229.95 371.65 246.15 376.6 263.85 382.25 283.95 377.9 304.35 373.85 323.15 364.15 340.05 354.45 356.9 340.6 370.45 327.85 382.85 312.3 391.55 296.1 400.6 278.1 405.3 260.0 409.9 241.25 409.2 222.6 408.2 204.85 402.55 186.1 396.8 168.8 387.45 152.1 378.35 137.75 365.9 123.15 353.3 111.55 337.9 100.45 323.15 91.95 306.55 83.4 289.8 78.0 271.8 72.75 254.1 71.1 235.7 69.45 216.9 71.3 198.25 72.9 181.65 76.75 165.4 81.4 146.0 89.1 127.6 96.45 109.9 106.75 93.85 116.9 78.05 129.85 64.2 143.05 50.2 158.45 38.7 171.8 28.65 186.45 20.55 199.65 13.2 213.5 7.6 229.45 1.15 246.2 -2.95" fill="#000000" fill-rule="evenodd" stroke="none"/>
    </g>
  </defs>
</svg>
