<?xml version="1.0" encoding="UTF-8" standalone="no"?>
<svg xmlns:xlink="http://www.w3.org/1999/xlink" height="842.55px" width="1337.95px" xmlns="http://www.w3.org/2000/svg">
  <g transform="matrix(1, 0, 0, 1, 407.45, 285.05)">
    <use height="4.5" transform="matrix(5.4867, 0.0, 0.0, 81.5667, 3.2875, 23.0167)" width="99.75" xlink:href="#shape0"/>
    <use height="424.15" transform="matrix(1.0, 0.0, 0.0, 1.0, -220.5, -14.3)" width="999.95" xlink:href="#shape1"/>
  </g>
  <defs>
    <g id="shape0" transform="matrix(1, 0, 0, 1, 49.85, -2.5)">
      <path d="M49.9 7.0 L-49.85 7.0 -49.85 2.5 49.9 2.5 49.9 7.0" fill="#ffffff" fill-rule="evenodd" stroke="none"/>
    </g>
    <g id="shape1" transform="matrix(1, 0, 0, 1, 220.5, 14.3)">
      <path d="M123.1 242.1 L194.85 158.25 93.9 158.25 -51.4 328.05 -71.4 351.4 184.8 351.4 441.05 351.4 461.05 328.05 606.4 158.25 461.05 328.05 441.05 351.4 184.8 351.4 -71.4 351.4 -51.4 328.05 93.9 158.25 114.8 133.85 371.0 133.85 627.25 133.85 606.4 158.25 503.85 158.25 432.1 242.1 358.55 328.05 461.05 328.05 358.55 328.05 432.1 242.1 503.85 158.25 606.4 158.25 627.25 133.85 371.0 133.85 114.8 133.85 93.9 158.25 194.85 158.25 350.1 158.25 371.0 133.85 350.1 158.25 194.85 158.25 123.1 242.1 278.35 242.1 204.8 328.05 49.55 328.05 123.1 242.1 49.55 328.05 -51.4 328.05 49.55 328.05 204.8 328.05 278.35 242.1 123.1 242.1 M358.55 328.05 L204.8 328.05 184.8 351.4 204.8 328.05 358.55 328.05 M432.1 242.1 L278.35 242.1 350.1 158.25 503.85 158.25 350.1 158.25 278.35 242.1 432.1 242.1 M767.3 88.2 L503.95 395.9 -204.25 395.9 59.1 88.2 767.3 88.2" fill="#339966" fill-rule="evenodd" stroke="none"/>
      <path d="M775.75 58.2 L775.75 409.85 -213.9 409.85 -213.9 272.0 -30.9 58.2 775.75 58.2 M767.3 88.2 L59.1 88.2 -204.25 395.9 503.95 395.9 767.3 88.2" fill="#a7780c" fill-rule="evenodd" stroke="none"/>
      <path d="M775.75 -11.8 L775.75 58.2 -30.9 58.2 -31.55 -11.05 -30.9 -11.8 775.75 -11.8" fill="#595959" fill-rule="evenodd" stroke="none"/>
      <path d="M-31.55 -11.05 L-31.55 -11.8 -30.9 -11.8 -31.55 -11.05" fill="#be890e" fill-rule="evenodd" stroke="none"/>
      <path d="M-30.9 58.2 L-213.9 272.0 -213.9 202.0 -31.55 -11.05 -30.9 58.2" fill="#444444" fill-rule="evenodd" stroke="none"/>
      <path d="M775.75 -11.8 L776.95 -11.8 M775.75 58.2 L776.95 58.2 M-213.9 272.0 L-218.0 276.8 M775.75 58.2 L-30.9 58.2 -213.9 272.0 M-213.9 202.0 L-218.0 206.8 M767.3 88.2 L503.95 395.9 -204.25 395.9 59.1 88.2 767.3 88.2 M-31.55 -11.05 L-31.55 -11.8 -30.9 -11.8 775.75 -11.8 M-30.9 -11.8 L-31.55 -11.05 -30.9 58.2 M-31.55 -11.05 L-213.9 202.0" fill="none" stroke="#000000" stroke-linecap="round" stroke-linejoin="round" stroke-width="5.0"/>
      <path d="M606.4 158.25 L461.05 328.05 441.05 351.4 184.8 351.4 -71.4 351.4 -51.4 328.05 93.9 158.25 114.8 133.85 371.0 133.85 627.25 133.85 606.4 158.25 503.85 158.25 432.1 242.1 358.55 328.05 461.05 328.05 M93.9 158.25 L194.85 158.25 350.1 158.25 371.0 133.85 M503.85 158.25 L350.1 158.25 278.35 242.1 432.1 242.1 M49.55 328.05 L204.8 328.05 278.35 242.1 123.1 242.1 49.55 328.05 -51.4 328.05 M184.8 351.4 L204.8 328.05 358.55 328.05 M194.85 158.25 L123.1 242.1" fill="none" stroke="#ffffff" stroke-linecap="round" stroke-linejoin="round" stroke-width="5.0"/>
    </g>
  </defs>
</svg>
