<?xml version="1.0" encoding="UTF-8" standalone="no"?>
<svg xmlns:xlink="http://www.w3.org/1999/xlink" height="842.55px" width="1337.95px" xmlns="http://www.w3.org/2000/svg">
  <g transform="matrix(1, 0, 0, 1, 407.45, 285.05)">
    <use height="4.5" transform="matrix(5.4867, 0.0, 0.0, 81.5667, 3.2875, 23.0167)" width="99.75" xlink:href="#shape0"/>
    <use height="408.0" transform="matrix(1.0, 0.0, 0.0, 1.0, -7.0, -2.0)" width="563.0" xlink:href="#shape1"/>
  </g>
  <defs>
    <g id="shape0" transform="matrix(1, 0, 0, 1, 49.85, -2.5)">
      <path d="M49.9 7.0 L-49.85 7.0 -49.85 2.5 49.9 2.5 49.9 7.0" fill="#ffffff" fill-rule="evenodd" stroke="none"/>
    </g>
    <g id="shape1" transform="matrix(1, 0, 0, 1, 7.0, 2.0)">
      <path d="M0.0 43.0 L0.0 0.0 550.0 0.0 550.0 39.0 550.0 43.0 547.0 43.0 527.0 43.0 507.0 43.0 487.0 43.0 467.0 43.0 447.0 43.0 427.0 43.0 410.0 43.0 387.0 43.0 367.0 43.0 347.0 43.0 327.0 43.0 307.0 43.0 287.0 43.0 267.0 43.0 247.0 43.0 227.0 43.0 207.0 43.0 187.0 43.0 167.0 43.0 147.0 43.0 130.0 43.0 107.0 43.0 87.0 43.0 67.0 43.0 47.0 43.0 27.0 43.0 7.0 43.0 0.0 43.0 M0.0 102.0 L0.0 80.0 7.0 80.0 27.0 80.0 47.0 80.0 67.0 80.0 87.0 80.0 107.0 80.0 130.0 80.0 130.0 102.0 5.95 102.0 0.0 102.0 M487.0 80.0 L507.0 80.0 527.0 80.0 547.0 80.0 550.0 80.0 550.0 102.0 427.0 102.0 427.0 80.0 447.0 80.0 467.0 80.0 487.0 80.0 M327.0 80.0 L347.0 80.0 367.0 80.0 387.0 80.0 410.0 80.0 410.0 102.0 285.95 102.0 271.95 102.0 147.0 102.0 147.0 80.0 167.0 80.0 187.0 80.0 207.0 80.0 227.0 80.0 247.0 80.0 267.0 80.0 287.0 80.0 307.0 80.0 327.0 80.0 M410.0 235.0 L410.0 274.0 285.95 274.0 285.95 235.0 410.0 235.0 M427.0 274.0 L427.0 235.0 550.0 235.0 550.0 274.0 427.0 274.0 M271.95 235.0 L271.95 274.0 147.0 274.0 147.0 235.0 271.95 235.0 M130.0 274.0 L5.95 274.0 5.95 235.0 130.0 235.0 130.0 274.0" fill="#817443" fill-rule="evenodd" stroke="none"/>
      <path d="M550.0 39.0 L550.0 43.0 550.0 39.0 M0.0 65.0 L0.0 54.0 7.0 54.0 7.0 65.0 0.0 65.0 7.0 65.0 7.0 54.0 0.0 54.0 0.0 43.0 7.0 43.0 27.0 43.0 47.0 43.0 67.0 43.0 87.0 43.0 107.0 43.0 130.0 43.0 147.0 43.0 167.0 43.0 187.0 43.0 207.0 43.0 227.0 43.0 247.0 43.0 267.0 43.0 287.0 43.0 307.0 43.0 327.0 43.0 347.0 43.0 367.0 43.0 387.0 43.0 410.0 43.0 427.0 43.0 447.0 43.0 467.0 43.0 487.0 43.0 507.0 43.0 527.0 43.0 547.0 43.0 550.0 43.0 550.0 54.0 550.0 65.0 550.0 54.0 550.0 65.0 547.0 65.0 547.0 54.0 550.0 54.0 547.0 54.0 547.0 65.0 550.0 65.0 550.0 80.0 550.0 65.0 550.0 80.0 547.0 80.0 547.0 65.0 527.0 65.0 527.0 54.0 547.0 54.0 527.0 54.0 527.0 65.0 547.0 65.0 547.0 80.0 527.0 80.0 507.0 80.0 487.0 80.0 487.0 65.0 507.0 65.0 507.0 80.0 507.0 65.0 487.0 65.0 487.0 80.0 467.0 80.0 467.0 65.0 487.0 65.0 487.0 54.0 507.0 54.0 507.0 65.0 527.0 65.0 527.0 80.0 527.0 65.0 507.0 65.0 507.0 54.0 487.0 54.0 487.0 65.0 467.0 65.0 467.0 80.0 447.0 80.0 447.0 65.0 467.0 65.0 467.0 54.0 487.0 54.0 487.0 43.0 487.0 54.0 467.0 54.0 467.0 65.0 447.0 65.0 447.0 80.0 427.0 80.0 410.0 80.0 410.0 65.0 410.0 54.0 427.0 54.0 427.0 65.0 410.0 65.0 427.0 65.0 427.0 54.0 410.0 54.0 410.0 65.0 410.0 80.0 387.0 80.0 367.0 80.0 367.0 65.0 387.0 65.0 387.0 80.0 387.0 65.0 367.0 65.0 367.0 80.0 347.0 80.0 327.0 80.0 327.0 65.0 327.0 54.0 347.0 54.0 347.0 65.0 327.0 65.0 347.0 65.0 347.0 54.0 327.0 54.0 327.0 65.0 327.0 80.0 307.0 80.0 287.0 80.0 287.0 65.0 307.0 65.0 307.0 80.0 307.0 65.0 287.0 65.0 287.0 80.0 267.0 80.0 247.0 80.0 247.0 65.0 247.0 54.0 267.0 54.0 267.0 65.0 247.0 65.0 267.0 65.0 267.0 54.0 247.0 54.0 247.0 65.0 247.0 80.0 227.0 80.0 207.0 80.0 187.0 80.0 167.0 80.0 167.0 65.0 187.0 65.0 187.0 80.0 187.0 65.0 167.0 65.0 167.0 80.0 147.0 80.0 147.0 65.0 167.0 65.0 167.0 54.0 187.0 54.0 187.0 65.0 207.0 65.0 207.0 80.0 207.0 65.0 187.0 65.0 187.0 54.0 167.0 54.0 167.0 65.0 147.0 65.0 147.0 80.0 130.0 80.0 107.0 80.0 87.0 80.0 67.0 80.0 47.0 80.0 27.0 80.0 7.0 80.0 0.0 80.0 0.0 65.0 M550.0 102.0 L550.0 80.0 550.0 102.0 M547.0 43.0 L547.0 54.0 547.0 43.0 M527.0 43.0 L527.0 54.0 507.0 54.0 507.0 43.0 507.0 54.0 527.0 54.0 527.0 43.0 M550.0 54.0 L550.0 43.0 550.0 54.0 M467.0 43.0 L467.0 54.0 447.0 54.0 447.0 43.0 447.0 54.0 467.0 54.0 467.0 43.0 M427.0 43.0 L427.0 54.0 447.0 54.0 447.0 65.0 427.0 65.0 427.0 80.0 427.0 65.0 447.0 65.0 447.0 54.0 427.0 54.0 427.0 43.0 M410.0 65.0 L387.0 65.0 387.0 54.0 410.0 54.0 410.0 43.0 410.0 54.0 387.0 54.0 387.0 65.0 410.0 65.0 M347.0 43.0 L347.0 54.0 367.0 54.0 367.0 65.0 347.0 65.0 347.0 80.0 347.0 65.0 367.0 65.0 367.0 54.0 347.0 54.0 347.0 43.0 M387.0 43.0 L387.0 54.0 367.0 54.0 367.0 43.0 367.0 54.0 387.0 54.0 387.0 43.0 M327.0 65.0 L307.0 65.0 307.0 54.0 327.0 54.0 327.0 43.0 327.0 54.0 307.0 54.0 307.0 65.0 327.0 65.0 M267.0 43.0 L267.0 54.0 287.0 54.0 287.0 65.0 267.0 65.0 267.0 80.0 267.0 65.0 287.0 65.0 287.0 54.0 267.0 54.0 267.0 43.0 M307.0 43.0 L307.0 54.0 287.0 54.0 287.0 43.0 287.0 54.0 307.0 54.0 307.0 43.0 M247.0 65.0 L227.0 65.0 227.0 54.0 247.0 54.0 247.0 43.0 247.0 54.0 227.0 54.0 227.0 65.0 247.0 65.0 M187.0 43.0 L187.0 54.0 207.0 54.0 207.0 65.0 227.0 65.0 227.0 80.0 227.0 65.0 207.0 65.0 207.0 54.0 187.0 54.0 187.0 43.0 M227.0 43.0 L227.0 54.0 207.0 54.0 207.0 43.0 207.0 54.0 227.0 54.0 227.0 43.0 M167.0 43.0 L167.0 54.0 147.0 54.0 147.0 43.0 147.0 54.0 167.0 54.0 167.0 43.0 M130.0 80.0 L130.0 65.0 130.0 54.0 147.0 54.0 147.0 65.0 130.0 65.0 147.0 65.0 147.0 54.0 130.0 54.0 130.0 65.0 130.0 80.0 M67.0 80.0 L67.0 65.0 87.0 65.0 87.0 54.0 107.0 54.0 107.0 65.0 107.0 80.0 107.0 65.0 87.0 65.0 87.0 80.0 87.0 65.0 107.0 65.0 107.0 54.0 87.0 54.0 87.0 65.0 67.0 65.0 67.0 80.0 M27.0 80.0 L27.0 65.0 27.0 54.0 47.0 54.0 47.0 65.0 27.0 65.0 47.0 65.0 47.0 54.0 27.0 54.0 27.0 65.0 27.0 80.0 M107.0 65.0 L130.0 65.0 107.0 65.0 M47.0 80.0 L47.0 65.0 67.0 65.0 67.0 54.0 87.0 54.0 87.0 43.0 87.0 54.0 67.0 54.0 67.0 65.0 47.0 65.0 47.0 80.0 M130.0 43.0 L130.0 54.0 107.0 54.0 107.0 43.0 107.0 54.0 130.0 54.0 130.0 43.0 M7.0 80.0 L7.0 65.0 27.0 65.0 7.0 65.0 7.0 80.0 M67.0 43.0 L67.0 54.0 47.0 54.0 47.0 43.0 47.0 54.0 67.0 54.0 67.0 43.0 M27.0 54.0 L27.0 43.0 27.0 54.0 7.0 54.0 7.0 43.0 7.0 54.0 27.0 54.0" fill="#ffffff" fill-rule="evenodd" stroke="none"/>
      <path d="M0.0 102.0 L5.95 102.0 5.95 235.0 5.95 274.0 0.0 274.0 0.0 102.0 M130.0 102.0 L130.0 80.0 147.0 80.0 147.0 102.0 147.0 235.0 147.0 274.0 130.0 274.0 130.0 235.0 130.0 102.0 M410.0 80.0 L427.0 80.0 427.0 102.0 427.0 235.0 427.0 274.0 410.0 274.0 410.0 235.0 410.0 102.0 410.0 80.0 M271.95 102.0 L285.95 102.0 285.95 235.0 285.95 274.0 271.95 274.0 271.95 235.0 271.95 102.0" fill="#605631" fill-rule="evenodd" stroke="none"/>
      <path d="M550.0 335.0 L0.0 335.0 0.0 274.0 5.95 274.0 130.0 274.0 147.0 274.0 271.95 274.0 285.95 274.0 410.0 274.0 427.0 274.0 550.0 274.0 550.0 335.0" fill="#92834b" fill-rule="evenodd" stroke="none"/>
      <path d="M0.0 354.0 L0.0 335.0 550.0 335.0 550.0 354.0 427.0 354.0 410.0 354.0 427.0 354.0 427.0 400.0 410.0 400.0 410.0 354.0 147.0 354.0 130.0 354.0 147.0 354.0 147.0 400.0 130.0 400.0 130.0 354.0 0.0 354.0" fill="#70643a" fill-rule="evenodd" stroke="none"/>
      <path d="M5.95 102.0 L130.0 102.0 130.0 235.0 5.95 235.0 5.95 102.0 M410.0 102.0 L410.0 235.0 285.95 235.0 285.95 102.0 410.0 102.0 M427.0 235.0 L427.0 102.0 550.0 102.0 550.0 235.0 427.0 235.0 M147.0 102.0 L271.95 102.0 271.95 235.0 147.0 235.0 147.0 102.0" fill="url(#gradient0)" fill-rule="evenodd" stroke="none"/>
      <path d="M0.0 354.0 L130.0 354.0 130.0 400.0 0.0 400.0 0.0 354.0 M147.0 354.0 L410.0 354.0 410.0 400.0 147.0 400.0 147.0 354.0 M427.0 354.0 L550.0 354.0 550.0 363.25 547.3 361.9 Q543.8 360.35 542.35 360.35 541.55 360.35 538.2 362.1 534.35 364.1 534.35 365.6 534.35 367.15 534.55 367.4 L535.35 367.85 537.35 368.35 Q538.6 368.35 539.75 367.25 540.85 366.1 542.1 366.1 542.95 366.1 545.45 367.65 547.6 368.2 550.0 365.9 L550.0 400.0 427.0 400.0 427.0 354.0 M335.85 369.85 L332.6 366.0 Q329.1 362.35 325.85 362.35 320.35 362.35 317.4 369.15 315.35 373.8 315.35 377.75 L315.4 378.35 315.35 378.35 Q307.35 378.35 307.35 388.85 L307.15 390.05 Q307.0 391.25 307.35 392.25 308.5 395.35 314.35 395.35 L320.75 395.0 Q328.55 395.4 339.85 397.35 349.6 397.35 351.9 393.1 352.6 391.75 352.55 389.8 L352.35 387.5 Q352.45 382.0 351.4 376.8 349.25 366.35 343.35 366.35 340.1 366.35 335.85 369.85 M477.6 385.1 Q478.85 386.35 480.85 386.35 485.45 386.35 487.1 385.4 L490.1 383.6 Q490.85 384.25 491.65 386.95 493.0 389.35 496.85 389.35 509.35 386.35 509.35 382.75 509.35 381.3 509.1 381.15 L508.85 380.85 505.85 380.35 Q504.2 380.35 502.05 382.1 499.85 383.85 497.35 383.85 496.1 383.85 494.75 380.6 493.35 377.35 489.85 377.35 489.2 377.35 483.45 379.9 477.35 382.6 477.35 383.6 477.35 386.1 477.6 385.1 M362.35 388.35 Q361.0 388.35 356.85 391.35 352.35 394.6 352.35 396.6 352.35 399.1 352.6 398.1 353.85 399.35 355.85 399.35 358.6 399.35 359.35 397.4 360.3 394.75 363.1 393.6 364.35 394.85 365.8 397.4 367.75 399.35 373.35 399.35 386.35 394.6 386.35 393.75 386.35 392.3 386.1 392.15 L385.85 391.85 381.35 391.35 Q378.6 391.35 377.05 392.75 375.5 394.1 371.6 394.1 371.0 394.1 370.45 393.2 L369.25 391.25 Q367.1 388.35 362.35 388.35 M237.85 357.35 Q236.5 357.35 233.2 359.35 229.95 361.35 228.85 361.35 L219.9 361.35 Q216.35 362.0 216.35 366.25 216.35 367.9 217.05 368.55 L218.85 369.35 Q219.95 369.05 221.8 367.4 223.45 365.85 224.35 365.85 225.4 365.85 227.9 366.65 L231.85 367.1 Q232.95 366.95 234.35 364.85 235.65 362.85 237.25 362.85 238.75 362.85 241.5 364.6 244.2 366.35 246.35 366.35 247.45 366.35 249.35 363.35 247.95 361.25 245.05 359.5 241.5 357.35 237.85 357.35 M36.0 385.35 Q36.8 384.85 40.1 379.85 42.8 375.85 45.85 375.85 47.2 375.85 48.05 377.0 L49.4 379.6 Q51.5 383.35 57.0 383.35 59.2 383.35 61.9 380.6 64.65 377.85 66.0 377.85 69.9 377.85 73.15 379.6 76.4 381.35 82.0 381.35 83.5 381.35 84.15 380.55 L85.5 378.35 Q83.6 375.5 74.9 373.65 68.65 372.35 65.5 372.35 62.2 372.35 60.6 375.1 59.0 377.85 56.85 377.85 54.8 377.85 52.75 374.1 50.65 370.35 47.0 370.35 42.65 370.35 38.05 374.4 33.5 378.35 33.5 381.85 33.5 384.5 36.0 385.35" fill="#5e5033" fill-rule="evenodd" stroke="none"/>
      <path d="M362.35 388.35 Q367.1 388.35 369.25 391.25 L370.45 393.2 Q371.0 394.1 371.6 394.1 375.5 394.1 377.05 392.75 378.6 391.35 381.35 391.35 L385.85 391.85 386.1 392.15 Q386.35 392.3 386.35 393.75 386.35 394.6 373.35 399.35 367.75 399.35 365.8 397.4 364.35 394.85 363.1 393.6 360.3 394.75 359.35 397.4 358.6 399.35 355.85 399.35 353.85 399.35 352.6 398.1 352.35 399.1 352.35 396.6 352.35 394.6 356.85 391.35 361.0 388.35 362.35 388.35 M477.6 385.1 Q477.35 386.1 477.35 383.6 477.35 382.6 483.45 379.9 489.2 377.35 489.85 377.35 493.35 377.35 494.75 380.6 496.1 383.85 497.35 383.85 499.85 383.85 502.05 382.1 504.2 380.35 505.85 380.35 L508.85 380.85 509.1 381.15 Q509.35 381.3 509.35 382.75 509.35 386.35 496.85 389.35 493.0 389.35 491.65 386.95 490.85 384.25 490.1 383.6 L487.1 385.4 Q485.45 386.35 480.85 386.35 478.85 386.35 477.6 385.1 M550.0 363.25 L551.35 364.35 550.0 365.9 Q547.6 368.2 545.45 367.65 542.95 366.1 542.1 366.1 540.85 366.1 539.75 367.25 538.6 368.35 537.35 368.35 L535.35 367.85 534.55 367.4 Q534.35 367.15 534.35 365.6 534.35 364.1 538.2 362.1 541.55 360.35 542.35 360.35 543.8 360.35 547.3 361.9 L550.0 363.25 M36.0 385.35 Q33.5 384.5 33.5 381.85 33.5 378.35 38.05 374.4 42.65 370.35 47.0 370.35 50.65 370.35 52.75 374.1 54.8 377.85 56.85 377.85 59.0 377.85 60.6 375.1 62.2 372.35 65.5 372.35 68.65 372.35 74.9 373.65 83.6 375.5 85.5 378.35 L84.15 380.55 Q83.5 381.35 82.0 381.35 76.4 381.35 73.15 379.6 69.9 377.85 66.0 377.85 64.65 377.85 61.9 380.6 59.2 383.35 57.0 383.35 51.5 383.35 49.4 379.6 L48.05 377.0 Q47.2 375.85 45.85 375.85 42.8 375.85 40.1 379.85 36.8 384.85 36.0 385.35 M237.85 357.35 Q241.5 357.35 245.05 359.5 247.95 361.25 249.35 363.35 247.45 366.35 246.35 366.35 244.2 366.35 241.5 364.6 238.75 362.85 237.25 362.85 235.65 362.85 234.35 364.85 232.95 366.95 231.85 367.1 L227.9 366.65 Q225.4 365.85 224.35 365.85 223.45 365.85 221.8 367.4 219.95 369.05 218.85 369.35 L217.05 368.55 Q216.35 367.9 216.35 366.25 216.35 362.0 219.9 361.35 L228.85 361.35 Q229.95 361.35 233.2 359.35 236.5 357.35 237.85 357.35" fill="#423824" fill-rule="evenodd" stroke="none"/>
      <path d="M335.85 369.85 Q340.1 366.35 343.35 366.35 349.25 366.35 351.4 376.8 352.45 382.0 352.35 387.5 L352.55 389.8 Q352.6 391.75 351.9 393.1 349.6 397.35 339.85 397.35 328.55 395.4 320.75 395.0 L314.35 395.35 Q308.5 395.35 307.35 392.25 307.0 391.25 307.15 390.05 L307.35 388.85 Q307.35 378.35 315.35 378.35 L315.4 378.35 315.35 377.75 Q315.35 373.8 317.4 369.15 320.35 362.35 325.85 362.35 329.1 362.35 332.6 366.0 L335.85 369.85 M332.1 391.85 L347.1 391.85 347.35 387.35 344.1 371.6 Q341.65 372.6 339.85 374.3 338.75 375.35 336.35 375.35 333.5 375.35 329.7 371.65 326.75 368.75 326.35 367.6 322.85 370.15 321.5 373.75 320.6 376.05 320.2 380.65 323.05 383.5 325.7 389.95 L332.1 391.85 M312.35 388.1 L312.35 390.1 Q317.35 389.85 318.6 389.1 L316.05 384.35 314.85 384.35 Q313.35 384.35 312.95 385.65 L312.35 388.1" fill="#000000" fill-rule="evenodd" stroke="none"/>
      <path d="M332.1 391.85 L325.7 389.95 Q323.05 383.5 320.2 380.65 320.6 376.05 321.5 373.75 322.85 370.15 326.35 367.6 326.75 368.75 329.7 371.65 333.5 375.35 336.35 375.35 338.75 375.35 339.85 374.3 341.65 372.6 344.1 371.6 L347.35 387.35 347.1 391.85 332.1 391.85 M312.35 388.1 L312.95 385.65 Q313.35 384.35 314.85 384.35 L316.05 384.35 318.6 389.1 Q317.35 389.85 312.35 390.1 L312.35 388.1" fill="#595959" fill-rule="evenodd" stroke="none"/>
      <path d="M0.0 43.0 L0.0 0.0 550.0 0.0 550.0 39.0 M0.0 80.0 L0.0 65.0 M0.0 54.0 L0.0 65.0 M0.0 54.0 L0.0 43.0 M550.0 43.0 L550.0 39.0 M0.0 80.0 L0.0 102.0 M0.0 335.0 L0.0 354.0 0.0 400.0 130.0 400.0 M550.0 354.0 L550.0 335.0 M0.0 335.0 L0.0 274.0 0.0 102.0 M550.0 54.0 L550.0 65.0 550.0 80.0 550.0 102.0 M550.0 43.0 L550.0 54.0 M550.0 235.0 L550.0 274.0 550.0 335.0 M550.0 365.9 L550.0 400.0 427.0 400.0 410.0 400.0 M550.0 363.25 L550.0 354.0 M147.0 400.0 L130.0 400.0 M147.0 400.0 L410.0 400.0" fill="none" stroke="#010101" stroke-linecap="round" stroke-linejoin="round" stroke-opacity="0.0" stroke-width="4.0"/>
      <path d="M-5.0 43.0 L0.0 43.0 7.0 43.0 27.0 43.0 47.0 43.0 67.0 43.0 87.0 43.0 107.0 43.0 130.0 43.0 147.0 43.0 167.0 43.0 187.0 43.0 207.0 43.0 227.0 43.0 247.0 43.0 267.0 43.0 287.0 43.0 307.0 43.0 327.0 43.0 347.0 43.0 367.0 43.0 387.0 43.0 410.0 43.0 427.0 43.0 447.0 43.0 467.0 43.0 487.0 43.0 507.0 43.0 527.0 43.0 547.0 43.0 550.0 43.0 554.0 43.0 M-5.0 80.0 L0.0 80.0 M0.0 65.0 L-5.0 65.0 M0.0 54.0 L-5.0 54.0 M0.0 102.0 L-5.0 102.0 M0.0 102.0 L5.95 102.0 130.0 102.0 130.0 80.0 107.0 80.0 87.0 80.0 67.0 80.0 47.0 80.0 27.0 80.0 7.0 80.0 0.0 80.0 M0.0 274.0 L-5.0 274.0 M0.0 335.0 L-5.0 335.0 M0.0 354.0 L-5.0 354.0 M0.0 354.0 L130.0 354.0 147.0 354.0 410.0 354.0 427.0 354.0 550.0 354.0 554.0 354.0 M550.0 335.0 L0.0 335.0 M130.0 400.0 L130.0 354.0 M550.0 54.0 L554.0 54.0 M507.0 80.0 L507.0 65.0 487.0 65.0 487.0 80.0 507.0 80.0 527.0 80.0 527.0 65.0 507.0 65.0 507.0 54.0 487.0 54.0 487.0 65.0 467.0 65.0 467.0 80.0 487.0 80.0 M550.0 54.0 L547.0 54.0 547.0 65.0 550.0 65.0 554.0 65.0 M547.0 54.0 L527.0 54.0 527.0 65.0 547.0 65.0 547.0 80.0 550.0 80.0 554.0 80.0 M547.0 80.0 L527.0 80.0 M487.0 43.0 L487.0 54.0 467.0 54.0 467.0 65.0 447.0 65.0 447.0 80.0 467.0 80.0 M507.0 43.0 L507.0 54.0 527.0 54.0 527.0 43.0 M547.0 54.0 L547.0 43.0 M550.0 102.0 L551.95 102.0 M410.0 65.0 L427.0 65.0 427.0 54.0 410.0 54.0 410.0 65.0 410.0 80.0 427.0 80.0 427.0 65.0 447.0 65.0 447.0 54.0 427.0 54.0 427.0 43.0 M447.0 43.0 L447.0 54.0 467.0 54.0 467.0 43.0 M427.0 80.0 L447.0 80.0 M410.0 43.0 L410.0 54.0 387.0 54.0 387.0 65.0 410.0 65.0 M327.0 65.0 L347.0 65.0 347.0 54.0 327.0 54.0 327.0 65.0 327.0 80.0 347.0 80.0 347.0 65.0 367.0 65.0 367.0 54.0 347.0 54.0 347.0 43.0 M387.0 80.0 L387.0 65.0 367.0 65.0 367.0 80.0 387.0 80.0 410.0 80.0 410.0 102.0 410.0 235.0 410.0 274.0 427.0 274.0 427.0 235.0 427.0 102.0 427.0 80.0 M367.0 43.0 L367.0 54.0 387.0 54.0 387.0 43.0 M347.0 80.0 L367.0 80.0 M327.0 43.0 L327.0 54.0 307.0 54.0 307.0 65.0 327.0 65.0 M550.0 235.0 L551.95 235.0 M550.0 335.0 L554.0 335.0 M427.0 400.0 L427.0 404.0 M427.0 235.0 L550.0 235.0 M550.0 102.0 L427.0 102.0 M550.0 274.0 L427.0 274.0 M247.0 65.0 L267.0 65.0 267.0 54.0 247.0 54.0 247.0 65.0 247.0 80.0 267.0 80.0 267.0 65.0 287.0 65.0 287.0 54.0 267.0 54.0 267.0 43.0 M307.0 80.0 L307.0 65.0 287.0 65.0 287.0 80.0 307.0 80.0 327.0 80.0 M287.0 43.0 L287.0 54.0 307.0 54.0 307.0 43.0 M267.0 80.0 L287.0 80.0 M247.0 43.0 L247.0 54.0 227.0 54.0 227.0 65.0 247.0 65.0 M187.0 80.0 L187.0 65.0 167.0 65.0 167.0 80.0 187.0 80.0 207.0 80.0 207.0 65.0 187.0 65.0 187.0 54.0 167.0 54.0 167.0 65.0 147.0 65.0 147.0 80.0 167.0 80.0 M227.0 80.0 L227.0 65.0 207.0 65.0 207.0 54.0 187.0 54.0 187.0 43.0 M207.0 80.0 L227.0 80.0 247.0 80.0 M227.0 54.0 L207.0 54.0 207.0 43.0 M147.0 43.0 L147.0 54.0 167.0 54.0 167.0 43.0 M227.0 54.0 L227.0 43.0 M271.95 102.0 L285.95 102.0 410.0 102.0 M107.0 80.0 L107.0 65.0 87.0 65.0 87.0 80.0 M107.0 65.0 L107.0 54.0 87.0 54.0 87.0 65.0 67.0 65.0 67.0 80.0 M130.0 65.0 L147.0 65.0 147.0 54.0 130.0 54.0 130.0 65.0 130.0 80.0 147.0 80.0 147.0 102.0 271.95 102.0 271.95 235.0 271.95 274.0 285.95 274.0 285.95 235.0 285.95 102.0 M107.0 43.0 L107.0 54.0 130.0 54.0 130.0 43.0 M87.0 43.0 L87.0 54.0 67.0 54.0 67.0 65.0 47.0 65.0 47.0 80.0 M130.0 65.0 L107.0 65.0 M27.0 65.0 L47.0 65.0 47.0 54.0 27.0 54.0 27.0 65.0 27.0 80.0 M0.0 65.0 L7.0 65.0 7.0 54.0 0.0 54.0 M27.0 65.0 L7.0 65.0 7.0 80.0 M27.0 54.0 L7.0 54.0 7.0 43.0 M67.0 54.0 L47.0 54.0 47.0 43.0 M27.0 43.0 L27.0 54.0 M67.0 54.0 L67.0 43.0 M147.0 274.0 L130.0 274.0 5.95 274.0 0.0 274.0 M147.0 235.0 L147.0 274.0 271.95 274.0 M130.0 274.0 L130.0 235.0 5.95 235.0 5.95 274.0 M5.95 235.0 L5.95 102.0 M130.0 102.0 L130.0 235.0 M147.0 102.0 L147.0 235.0 271.95 235.0 M147.0 400.0 L147.0 404.0 M130.0 400.0 L130.0 404.0 M410.0 400.0 L410.0 404.0 M410.0 400.0 L410.0 354.0 M147.0 354.0 L147.0 400.0 M427.0 354.0 L427.0 400.0 M285.95 235.0 L410.0 235.0 M285.95 274.0 L410.0 274.0" fill="none" stroke="#000000" stroke-linecap="round" stroke-linejoin="round" stroke-width="4.0"/>
      <path d="M550.0 39.0 L550.0 43.0 550.0 54.0 M0.0 65.0 L0.0 54.0 0.0 43.0 M550.0 65.0 L550.0 54.0 M550.0 80.0 L550.0 65.0 M550.0 102.0 L550.0 80.0 M0.0 80.0 L0.0 65.0" fill="none" stroke="#010101" stroke-linecap="round" stroke-linejoin="round" stroke-opacity="0.0" stroke-width="3.0"/>
      <path d="M471.95 274.0 L431.95 335.0 M441.95 274.0 L401.95 335.0 M381.95 274.0 L341.95 335.0 M411.95 274.0 L371.95 335.0 M550.95 290.8 L521.95 335.0 M531.95 274.0 L491.95 335.0 M501.95 274.0 L461.95 335.0 M141.95 274.0 L101.95 335.0 M111.95 274.0 L71.95 335.0 M81.95 274.0 L41.95 335.0 M51.95 274.0 L11.95 335.0 M321.95 274.0 L281.95 335.0 M261.95 274.0 L221.95 335.0 M291.95 274.0 L251.95 335.0 M231.95 274.0 L191.95 335.0 M201.95 274.0 L161.95 335.0 M171.95 274.0 L131.95 335.0 M351.95 274.0 L311.95 335.0 M21.95 274.0 L-5.0 315.1" fill="none" stroke="#000000" stroke-linecap="round" stroke-linejoin="round" stroke-width="3.0"/>
    </g>
    <linearGradient gradientTransform="matrix(0.0, 0.0568, -1.0, 0.0, 435.95, 140.0)" gradientUnits="userSpaceOnUse" id="gradient0" spreadMethod="pad" x1="-819.2" x2="819.2">
      <stop offset="0.0" stop-color="#cccccc"/>
      <stop offset="1.0" stop-color="#ffffff"/>
    </linearGradient>
  </defs>
</svg>
