<?xml version="1.0" encoding="UTF-8" standalone="no"?>
<svg xmlns:xlink="http://www.w3.org/1999/xlink" height="842.55px" width="1337.95px" xmlns="http://www.w3.org/2000/svg">
  <g transform="matrix(1, 0, 0, 1, 407.45, 285.05)">
    <use height="4.5" transform="matrix(5.4867, 0.0, 0.0, 81.5667, 3.2875, 23.0167)" width="99.75" xlink:href="#shape0"/>
    <use height="421.85" transform="matrix(1.0, 0.0, 0.0, 1.0, -8.65, -13.5)" width="568.0" xlink:href="#shape1"/>
  </g>
  <defs>
    <g id="shape0" transform="matrix(1, 0, 0, 1, 49.85, -2.5)">
      <path d="M49.9 7.0 L-49.85 7.0 -49.85 2.5 49.9 2.5 49.9 7.0" fill="#ffffff" fill-rule="evenodd" stroke="none"/>
    </g>
    <g id="shape1" transform="matrix(1, 0, 0, 1, 8.65, 13.5)">
      <path d="M-7.0 106.9 L-7.0 46.55 Q-5.3 39.6 -3.5 31.25 -2.5 22.25 -2.5 4.25 L-2.5 -2.5 Q-2.5 -5.0 -1.5 -6.0 81.35 -7.1 83.5 -7.75 94.75 -11.1 119.0 -12.5 L124.7 -12.15 126.9 -11.5 Q125.95 -10.4 125.4 -8.6 L125.3 -8.2 125.0 -7.0 Q124.2 -4.7 123.95 -1.5 124.2 -2.8 124.65 -3.7 L124.6 -1.5 Q124.7 3.35 125.5 12.6 L125.7 23.85 125.5 23.5 125.5 24.6 125.85 33.45 125.85 33.75 125.85 34.4 125.9 37.75 125.9 37.95 126.0 43.35 Q126.4 77.05 126.25 96.65 L126.1 97.05 Q103.75 101.65 43.05 103.05 L7.3 104.3 Q-0.65 104.85 -4.3 105.8 -6.25 106.3 -7.0 106.9 M-7.0 110.5 L-7.0 109.5 Q-6.3 109.95 -4.8 110.2 L-6.5 110.5 -7.0 110.5 M65.5 31.0 Q65.95 30.55 67.5 31.75 66.25 33.65 66.25 34.0 L63.25 34.0 63.5 33.25 65.5 31.0 M46.25 35.0 Q46.5 36.2 46.3 43.7 46.2 48.3 49.0 50.5 L51.25 49.5 51.5 41.25 Q52.2 38.2 51.55 35.3 50.25 29.5 43.5 29.5 41.55 29.5 35.65 31.45 L35.5 31.5 35.5 31.0 Q35.5 12.5 32.0 12.5 29.85 12.5 29.5 15.0 29.3 16.4 29.5 19.1 L29.05 34.7 Q29.3 44.9 33.0 48.5 L35.25 47.75 Q35.65 46.5 35.55 44.4 L35.5 40.95 Q35.8 36.9 40.5 35.0 L46.25 35.0 M56.6 42.85 Q56.85 45.3 57.55 47.3 59.7 53.5 65.5 53.5 67.55 53.5 69.5 49.5 L63.85 43.7 Q61.5 41.45 61.5 40.0 69.45 38.2 71.4 36.3 72.5 35.25 72.5 32.0 72.9 30.2 72.25 28.6 71.0 25.5 66.0 25.5 61.3 25.5 58.5 32.3 56.5 37.05 56.5 40.5 L56.6 42.85 M115.25 39.0 Q119.0 39.0 120.05 40.55 120.5 41.25 120.5 43.6 L120.25 47.0 111.5 47.25 111.5 47.0 Q111.5 45.5 112.8 42.4 114.25 39.0 115.25 39.0 M85.5 15.5 Q84.6 14.15 83.0 13.5 80.5 16.95 80.5 33.5 80.5 41.55 80.65 43.65 81.1 49.45 83.0 53.5 L85.5 52.25 85.5 15.5 M98.5 19.75 L97.6 16.45 Q96.9 14.55 95.0 12.5 92.5 13.35 92.5 16.35 92.5 22.6 91.2 37.6 90.95 50.55 96.0 55.5 L98.5 54.25 98.5 19.75 M125.5 43.35 Q125.5 39.25 125.1 37.95 L125.0 37.75 Q123.2 33.5 116.0 33.5 110.9 33.5 108.25 39.25 106.5 43.0 106.5 46.0 L106.25 47.15 Q106.1 48.4 106.5 49.4 107.85 52.5 114.5 52.5 122.8 52.5 124.75 49.75 125.5 48.65 125.5 43.35" fill="#009100" fill-rule="evenodd" stroke="none"/>
      <path d="M124.7 -12.15 L126.0 -13.25 Q127.0 -13.5 159.0 -13.5 192.25 -13.5 253.6 -7.0 L353.35 -9.5 444.05 -7.55 Q450.0 -7.95 460.85 -7.5 L476.35 -6.0 Q528.7 -6.0 534.25 -7.25 535.65 -7.55 535.65 -8.1 L544.35 -8.5 551.8 -7.9 551.85 -9.5 552.6 -7.6 552.9 -7.45 Q553.35 -7.15 553.35 -6.1 L553.15 -5.65 Q554.0 -2.05 554.3 3.0 L554.35 15.75 Q554.35 30.4 552.85 68.0 L552.85 68.1 552.55 76.0 Q551.35 107.7 551.35 123.35 L551.35 149.25 Q551.45 157.1 552.9 162.95 554.35 168.6 554.35 173.6 L554.1 180.75 553.75 180.9 551.6 180.75 551.2 179.45 548.4 179.85 543.5 180.25 505.85 179.0 Q448.1 177.5 372.85 177.5 L245.85 177.75 Q235.65 178.6 228.85 180.0 L227.55 180.4 227.15 180.55 217.95 180.6 Q201.4 180.7 185.55 181.05 L53.15 181.65 1.5 181.7 1.0 181.5 0.9 181.7 -1.1 181.75 -4.7 181.75 -6.2 181.25 Q-7.05 180.85 -6.85 180.35 L-6.5 179.75 Q-6.5 179.25 -4.7 178.8 -5.8 173.5 -6.85 164.3 L-7.0 163.0 -7.0 132.65 -5.75 131.5 -5.0 131.5 Q86.05 131.35 114.6 125.3 123.85 123.3 125.55 120.85 126.4 119.6 125.5 118.5 126.4 116.5 128.9 107.8 L131.3 98.45 131.5 97.5 131.5 97.2 131.5 96.75 131.35 95.1 Q131.1 89.4 131.2 80.15 L131.5 68.25 Q131.5 43.65 130.5 27.75 L130.6 7.45 Q130.7 -4.75 128.0 -12.5 L126.9 -11.5 124.7 -12.15 M125.85 33.45 L125.5 24.6 125.5 23.5 125.7 23.85 125.85 33.45 M124.65 -3.7 Q124.2 -2.8 123.95 -1.5 124.2 -4.7 125.0 -7.0 124.7 -5.55 124.65 -3.7 M550.1 175.5 L550.1 175.45 549.85 175.5 550.1 175.5 M476.35 20.0 L475.35 11.75 Q475.1 8.35 472.85 7.5 469.1 6.1 386.35 5.5 382.85 5.5 381.35 7.0 L382.3 9.05 382.35 12.35 Q382.35 17.45 387.35 47.8 L390.85 68.0 392.35 76.0 394.25 85.0 Q391.7 85.3 391.15 85.65 390.9 85.85 391.05 86.2 L391.35 86.75 391.15 87.35 Q391.05 87.85 391.6 88.25 393.3 89.5 400.85 89.5 477.75 88.5 480.85 87.25 482.35 86.6 482.35 82.25 L482.35 71.75 482.25 68.0 481.65 57.75 Q480.75 44.5 479.85 37.25 479.5 34.35 477.95 28.2 476.55 22.45 476.35 20.0 M397.25 84.65 L398.05 84.65 397.25 84.7 397.25 84.65 M437.35 41.5 L437.5 41.75 437.35 41.85 437.35 41.5 M453.35 42.75 L453.45 44.15 452.7 43.45 453.35 42.75 M245.15 112.85 Q241.35 114.45 241.35 115.75 241.35 117.3 241.55 117.55 L242.35 118.0 244.85 118.5 Q249.95 118.5 270.65 113.55 297.15 107.25 303.85 106.0 L321.85 103.4 341.7 100.5 Q364.35 96.45 364.35 89.5 L359.8 76.0 357.0 68.0 349.15 46.35 Q333.25 3.5 329.85 3.5 L281.45 10.75 Q233.35 18.4 233.35 20.35 233.35 20.9 235.3 22.95 233.75 24.25 233.4 27.15 L233.35 31.1 Q233.35 37.35 238.0 68.0 L238.4 70.6 239.25 76.0 239.35 76.6 239.65 78.5 244.25 105.65 244.45 106.65 244.35 108.0 Q244.35 110.6 244.55 111.4 L245.15 112.85 M220.85 17.65 Q218.9 17.5 204.35 17.5 188.4 17.5 164.0 22.0 141.5 26.15 141.5 27.75 141.5 30.25 141.75 29.25 143.0 30.5 145.5 30.5 L145.75 30.5 145.75 30.55 Q144.5 33.7 144.5 40.6 144.5 49.95 148.8 77.95 152.7 103.1 154.0 107.5 L156.5 106.25 156.5 106.2 156.75 106.25 178.0 107.5 183.0 107.5 Q202.2 107.5 217.95 105.4 L218.85 105.25 Q236.35 102.85 236.35 99.35 236.35 92.9 233.9 78.7 L233.4 76.0 231.95 68.0 230.35 58.5 Q228.85 46.55 226.1 38.25 223.9 31.55 224.35 25.75 225.25 20.85 225.05 19.65 224.85 17.95 220.85 17.65 M156.5 103.2 L157.0 103.2 Q156.55 103.45 156.5 104.6 L156.5 103.2" fill="#ccffcc" fill-rule="evenodd" stroke="none"/>
      <path d="M553.75 180.9 Q559.35 181.35 559.35 181.85 559.35 183.0 549.8 183.55 L547.95 183.65 Q534.65 184.3 505.85 184.0 L372.35 182.75 Q237.85 182.75 230.75 184.65 L217.95 185.75 212.85 185.9 178.0 186.35 109.35 186.5 50.9 186.15 3.5 185.65 -1.35 185.55 -1.35 185.5 -3.15 185.45 -6.1 185.3 -6.25 185.25 Q-6.5 186.25 -6.5 183.75 -6.5 182.2 -6.05 182.0 L-5.0 181.75 -4.7 181.75 -1.1 181.75 0.9 181.7 1.5 181.7 53.15 181.65 185.55 181.05 201.45 181.25 217.95 181.25 223.85 181.25 226.55 180.7 227.15 180.55 227.55 180.4 228.85 180.0 Q235.65 178.6 245.85 177.75 L372.85 177.5 Q448.1 177.5 505.85 179.0 L543.5 180.25 546.9 180.45 548.75 180.55 548.8 180.55 549.0 180.55 550.35 180.65 551.6 180.75 553.75 180.9 M505.35 399.9 Q505.2 402.55 503.45 404.75 L502.95 405.35 502.85 405.4 Q500.0 408.35 495.35 408.35 L493.35 407.85 492.55 407.4 492.5 407.35 Q492.35 406.95 492.35 405.6 492.35 404.6 496.35 402.65 L497.1 402.3 499.6 400.7 500.25 399.9 500.35 399.7 500.35 399.5 Q500.35 397.35 496.85 392.85 493.35 388.3 493.35 384.85 493.35 383.1 496.0 380.9 L501.85 376.6 Q510.35 370.45 510.35 364.6 510.35 360.0 505.85 354.85 503.05 351.7 502.0 349.0 501.35 347.35 501.35 345.85 501.35 344.3 504.65 341.35 L511.85 335.2 Q514.75 332.6 516.9 330.0 522.35 323.3 522.35 316.85 522.35 310.45 515.35 303.95 L510.55 299.65 Q508.35 297.5 508.35 296.1 508.35 293.45 512.1 291.55 513.85 290.7 520.35 288.65 526.1 286.85 528.6 285.15 532.35 282.7 532.35 279.0 532.35 276.65 524.35 266.65 516.35 256.65 516.35 255.0 516.35 252.95 523.0 246.15 L530.85 238.5 Q529.55 237.2 519.9 231.85 511.35 227.1 511.35 225.6 L511.6 223.0 512.05 222.75 513.3 222.5 Q512.5 215.1 512.1 213.25 509.5 215.85 499.75 220.3 490.6 224.5 488.85 224.5 485.2 224.5 478.3 218.15 L472.1 211.75 Q462.05 211.75 453.7 218.65 L448.1 223.35 Q445.25 225.5 442.85 225.5 439.1 225.5 432.9 217.9 426.7 210.25 424.35 210.25 414.85 210.25 403.7 218.9 L396.0 224.8 392.5 226.8 Q390.75 227.5 389.35 227.5 383.4 227.5 376.4 218.25 L371.65 211.9 Q369.2 209.0 367.5 209.0 363.35 209.0 350.35 218.75 341.1 225.7 337.65 227.7 L392.85 227.5 Q438.5 227.5 483.15 225.8 L502.05 226.55 Q508.15 227.6 511.1 231.0 513.15 233.3 513.35 237.75 L513.35 251.25 Q513.35 266.6 498.25 330.0 L497.85 331.6 493.7 349.0 487.2 376.6 Q483.5 393.15 482.65 400.5 482.35 402.75 482.35 404.1 L480.65 405.0 479.85 405.35 479.8 405.3 479.4 404.95 479.35 404.9 479.2 404.7 479.1 404.65 Q478.1 403.45 477.7 401.5 L477.55 400.9 477.35 396.3 477.35 395.1 Q477.35 383.7 482.2 363.5 L486.0 349.0 491.3 330.0 492.85 324.55 Q500.45 298.05 503.5 284.9 508.35 263.9 508.35 251.25 L508.35 240.0 Q508.3 239.5 508.9 238.5 509.5 237.55 509.4 237.1 509.1 235.65 501.65 234.8 482.75 232.75 392.5 232.75 L310.35 234.25 286.45 234.45 285.85 234.5 284.85 234.45 235.95 234.7 Q233.95 235.5 232.85 235.5 230.7 235.5 228.6 234.7 L217.95 234.75 178.0 234.9 13.0 235.5 1.65 236.4 -1.0 236.5 -1.75 236.5 -2.8 236.15 Q-2.85 235.65 -3.25 235.25 -3.5 236.25 -3.5 233.75 -3.5 233.0 -3.15 232.4 -2.65 231.55 -1.45 231.1 L-0.5 230.8 Q3.9 229.5 15.0 229.5 L25.5 229.5 Q23.95 229.45 19.15 222.5 14.35 215.5 12.25 215.5 9.0 215.5 1.85 222.0 L-0.5 224.15 -5.4 228.45 -5.5 228.5 -7.5 228.0 -8.3 227.55 Q-8.5 227.3 -8.5 225.75 L-8.5 225.5 Q-8.0 223.6 -3.25 219.45 L-0.2 216.8 0.6 216.15 Q8.85 209.5 13.5 209.5 14.8 209.5 20.2 216.0 L25.5 222.5 Q27.3 222.5 29.9 220.8 L35.1 217.0 Q43.05 211.5 52.0 211.5 59.6 211.5 73.75 223.25 76.05 223.25 86.7 215.4 97.3 207.5 101.5 207.5 107.0 207.5 113.85 216.15 117.4 220.6 119.0 222.05 122.0 224.75 125.0 224.75 128.25 224.75 132.15 222.5 L139.25 217.65 Q148.95 210.5 156.0 210.5 161.35 210.5 167.6 217.85 L175.75 228.0 Q176.9 227.1 178.0 226.3 186.85 219.6 191.8 216.65 202.15 210.5 209.5 210.5 211.95 210.5 217.95 217.9 L219.9 220.4 Q227.5 230.25 229.85 230.25 235.3 230.25 248.5 220.4 261.7 210.5 264.35 210.5 266.5 210.5 269.05 213.35 270.3 214.7 273.75 219.65 280.2 228.75 284.85 228.75 287.85 228.75 290.55 224.8 L295.2 216.15 Q298.25 210.15 300.7 207.45 304.3 203.5 308.85 203.5 312.45 203.5 322.35 213.4 332.25 223.25 333.85 223.25 337.6 223.25 341.7 220.15 L349.15 213.4 Q359.5 203.5 368.85 203.5 371.95 203.5 378.7 212.75 385.5 222.0 388.85 222.0 390.9 222.0 394.85 219.25 L403.0 213.25 Q415.05 204.5 423.85 204.5 427.55 204.5 434.6 211.55 440.6 217.6 441.85 220.25 444.0 219.8 447.2 217.5 L453.25 212.85 Q461.75 206.5 468.85 206.5 474.9 206.5 480.25 212.75 L484.15 217.05 Q486.4 219.0 488.75 219.0 491.9 219.0 501.3 213.25 510.7 207.5 513.35 207.5 517.05 207.5 518.4 215.25 L519.3 221.85 519.55 223.6 Q524.1 225.35 529.15 229.75 536.35 236.1 536.35 238.6 536.35 241.35 530.0 247.65 524.45 253.2 521.6 254.75 L531.35 266.8 Q537.35 275.05 537.35 279.1 537.35 284.15 531.75 288.6 525.5 293.6 514.1 296.25 523.5 303.6 525.75 307.65 527.35 310.5 527.35 317.25 527.35 324.05 523.6 330.0 521.15 333.85 517.1 337.35 L510.05 342.85 Q506.85 345.4 506.85 346.85 506.85 347.3 507.9 349.0 L511.1 353.8 Q515.35 359.8 515.35 364.5 515.35 369.85 511.85 375.05 507.45 381.6 498.85 385.25 499.8 388.2 502.9 393.1 L503.15 393.5 Q505.35 397.05 505.35 399.35 L505.35 399.9 M440.0 399.55 Q438.4 403.6 436.85 406.35 434.35 405.5 434.35 402.85 L434.55 401.4 435.5 397.0 Q437.2 389.75 441.4 373.8 444.55 361.9 446.55 355.2 L446.35 353.75 Q446.35 351.7 446.7 349.0 447.5 341.75 450.7 330.0 453.95 317.75 459.8 300.6 472.25 264.15 476.35 258.75 405.4 259.2 327.2 259.0 329.05 260.45 334.25 266.25 342.3 274.0 348.85 274.0 354.55 274.0 366.6 268.25 372.6 265.4 377.85 262.5 L389.0 268.4 Q400.35 274.25 402.35 274.25 418.35 274.25 423.5 269.4 L426.05 266.0 Q427.15 264.5 428.85 264.5 429.65 264.5 433.9 266.25 438.15 268.0 441.35 268.0 443.85 268.0 448.95 265.25 454.0 262.5 455.35 262.5 L457.05 262.85 457.85 262.5 460.85 263.0 461.1 263.25 Q461.35 263.4 461.35 264.85 L458.4 266.9 451.85 270.75 Q442.35 276.8 442.35 281.5 442.35 283.75 448.35 288.3 454.35 292.8 454.35 294.25 454.35 296.1 453.55 296.85 452.9 297.45 450.85 297.9 443.45 299.5 438.35 302.0 L443.65 310.45 Q448.35 317.8 448.35 320.0 448.35 321.95 442.05 326.05 437.9 328.75 436.1 330.0 L434.6 331.0 Q435.15 332.4 440.0 338.1 444.35 343.2 444.35 345.25 444.35 345.8 440.3 349.0 L437.85 350.9 Q431.35 355.8 431.35 356.25 431.35 356.9 433.35 360.0 435.35 363.05 435.35 364.5 435.35 369.25 428.85 373.7 424.6 376.55 424.4 376.75 422.35 378.4 422.35 379.85 422.35 380.55 424.35 384.4 426.35 388.25 426.35 388.85 426.35 390.5 424.55 395.3 L424.1 396.55 Q423.0 399.8 423.35 401.2 L423.35 401.25 420.85 402.35 Q419.75 402.05 419.15 401.25 418.35 400.2 418.35 398.25 418.35 397.55 418.65 396.45 L419.35 394.3 Q420.35 391.6 420.35 390.35 420.35 387.65 418.85 384.75 417.35 381.8 417.35 379.5 417.35 374.65 423.75 371.05 427.3 369.05 428.1 368.35 430.1 366.75 430.1 364.75 L426.35 355.35 Q426.35 351.95 428.65 350.4 L430.7 349.0 437.35 344.25 432.0 336.75 Q429.35 332.95 429.35 330.0 429.35 328.05 433.9 325.35 439.85 321.8 442.35 318.75 441.65 317.3 436.9 310.9 433.35 306.05 433.35 303.0 433.35 299.4 435.45 298.15 437.25 297.1 446.1 293.25 439.15 288.2 438.0 286.4 437.35 285.45 437.35 281.6 437.35 276.95 439.9 273.45 L434.2 272.65 430.35 270.5 Q428.5 273.3 423.95 275.85 417.4 279.5 409.35 279.5 396.85 279.5 387.45 273.75 380.2 268.0 378.6 268.0 373.95 270.9 368.1 273.75 356.45 279.5 348.85 279.5 333.9 279.5 325.35 264.0 320.95 269.2 316.3 273.35 307.15 281.5 299.85 281.5 293.0 281.5 285.5 273.75 L280.75 268.4 Q278.6 266.0 277.75 266.0 276.95 266.0 274.75 267.95 L270.15 272.25 Q263.1 278.5 257.85 278.5 250.15 278.5 239.7 271.15 L230.85 263.75 220.45 270.15 217.95 271.6 Q209.1 276.5 204.5 276.5 198.8 276.5 189.45 270.4 180.1 264.25 178.25 264.25 L178.0 264.25 Q176.5 264.4 175.6 266.15 L173.6 270.4 Q169.9 276.5 158.5 276.5 149.25 276.5 137.8 270.65 128.2 264.75 128.0 264.75 117.6 264.75 112.5 270.15 L108.65 273.8 Q106.1 275.5 102.0 275.5 93.35 275.5 85.6 270.15 79.45 264.75 78.75 264.75 78.0 264.75 76.15 266.25 L72.2 269.65 Q65.95 274.5 60.0 274.5 54.5 274.5 46.9 268.75 40.3 263.0 39.5 263.0 38.7 263.0 37.35 264.8 L34.05 268.75 Q28.0 274.5 16.5 274.5 8.25 274.5 3.5 271.5 1.05 269.95 -0.45 267.6 L-0.5 267.55 Q-1.9 265.3 -2.35 262.6 L-2.5 260.0 Q-2.5 257.85 -1.9 256.3 L-3.25 256.25 Q-3.5 257.25 -3.5 254.75 -3.7 253.95 -3.5 253.55 -3.2 253.05 -1.8 252.7 L-1.0 252.5 2.45 252.1 Q9.7 251.5 27.0 251.5 47.15 251.95 178.0 252.4 L217.95 252.55 291.85 252.75 305.35 254.0 380.9 253.65 Q460.15 253.3 480.1 254.0 481.35 254.0 481.35 257.75 481.35 262.15 472.4 283.15 462.65 306.1 462.35 307.25 460.25 315.05 457.65 330.0 L457.3 332.05 Q455.35 341.6 452.4 349.0 L452.35 349.1 452.35 350.0 452.2 350.9 452.0 351.8 451.85 352.6 451.65 353.8 450.15 361.25 450.05 361.8 441.65 394.95 440.0 399.55 M-5.75 131.5 L-7.0 131.5 -7.0 126.45 -2.5 126.1 11.25 125.4 103.25 122.25 Q117.55 121.7 122.0 114.0 123.8 110.9 124.8 102.6 L124.85 102.3 124.75 102.35 116.8 104.3 Q85.55 110.5 -0.5 110.5 L-2.5 110.45 -4.8 110.2 Q-6.3 109.95 -7.0 109.5 L-7.0 106.9 Q-6.25 106.3 -4.3 105.8 -0.65 104.85 7.3 104.3 L43.05 103.05 Q103.75 101.65 126.1 97.05 L126.25 96.65 Q126.4 77.05 126.0 43.35 L125.9 37.95 125.9 37.75 125.85 34.4 125.85 33.75 125.85 33.45 125.7 23.85 125.5 12.6 Q124.7 3.35 124.6 -1.5 L124.65 -3.7 Q124.7 -5.55 125.0 -7.0 L125.3 -8.2 125.4 -8.6 Q125.95 -10.4 126.9 -11.5 L128.0 -12.5 Q130.7 -4.75 130.6 7.45 L130.5 27.75 Q131.5 43.65 131.5 68.25 L131.2 80.15 Q131.1 89.4 131.35 95.1 L131.5 96.75 131.5 97.2 131.5 97.5 131.3 98.45 128.9 107.8 Q126.4 116.5 125.5 118.5 126.4 119.6 125.55 120.85 123.85 123.3 114.6 125.3 86.05 131.35 -5.0 131.5 L-5.75 131.5 M476.35 20.0 Q476.55 22.45 477.95 28.2 479.5 34.35 479.85 37.25 480.75 44.5 481.65 57.75 L482.25 68.0 482.35 71.75 482.35 82.25 Q482.35 86.6 480.85 87.25 477.75 88.5 400.85 89.5 393.3 89.5 391.6 88.25 391.05 87.85 391.15 87.35 L391.35 86.75 391.05 86.2 Q390.9 85.85 391.15 85.65 391.7 85.3 394.25 85.0 L392.35 76.0 390.85 68.0 387.35 47.8 Q382.35 17.45 382.35 12.35 L382.3 9.05 381.35 7.0 Q382.85 5.5 386.35 5.5 469.1 6.1 472.85 7.5 475.1 8.35 475.35 11.75 L476.35 20.0 M398.05 84.65 Q413.7 83.55 477.35 83.0 L477.35 59.75 Q475.75 40.75 473.35 31.25 471.55 23.4 471.35 17.0 470.6 14.75 470.35 13.25 470.1 12.5 469.35 12.0 L394.85 11.5 388.45 12.35 386.55 12.1 Q388.35 20.8 391.85 43.0 L395.75 68.0 396.9 76.0 397.35 79.75 397.25 84.65 397.25 84.7 398.05 84.65 M447.85 40.5 Q445.35 38.0 445.35 37.0 445.35 36.05 445.7 35.1 446.2 33.45 447.6 31.75 450.25 28.5 453.85 28.5 457.25 28.5 460.35 40.6 460.35 45.5 456.35 45.5 L454.35 45.0 454.0 44.85 454.15 45.05 Q455.35 46.9 455.35 51.0 455.35 55.1 454.9 56.25 453.45 59.95 448.5 60.45 L448.35 63.0 448.4 64.5 448.85 64.5 Q449.8 64.5 454.05 68.0 L454.6 68.45 Q459.85 72.85 460.35 76.0 L460.35 76.25 Q459.85 77.5 457.35 77.5 455.55 77.5 453.5 76.0 451.8 74.75 449.9 72.5 L447.3 69.15 446.65 69.8 447.35 71.55 447.35 77.5 446.85 78.8 Q446.4 79.5 444.85 79.5 443.05 79.5 441.8 76.0 L441.4 74.9 440.7 72.35 432.3 73.35 432.35 74.25 429.85 75.5 428.05 73.5 426.35 73.5 Q422.2 73.5 419.25 72.55 L418.7 76.0 418.1 78.75 415.85 79.5 Q414.3 77.8 413.7 76.0 413.35 74.9 413.35 73.75 L413.4 70.0 Q413.55 69.45 414.05 69.1 L413.35 68.0 Q412.4 66.3 412.3 64.2 L412.35 62.35 Q412.35 58.1 417.3 54.1 421.15 51.0 426.5 49.45 425.35 47.2 425.35 43.75 L425.4 40.0 Q425.9 38.5 428.85 38.5 L432.6 39.0 Q436.25 39.85 437.35 41.5 L437.35 41.85 437.5 41.75 Q439.15 40.5 441.35 40.5 L447.7 41.15 Q450.85 41.85 452.7 43.45 L453.45 44.15 453.35 42.75 Q453.35 41.5 454.35 41.25 455.35 41.0 455.35 39.75 455.35 38.3 454.3 37.15 L452.85 35.5 Q451.55 36.65 450.6 38.15 L449.35 40.0 447.85 40.5 M432.9 19.55 Q434.2 16.5 438.85 16.5 443.5 16.5 444.9 23.35 445.6 26.8 445.35 30.5 L445.3 35.0 Q444.65 38.5 441.35 38.5 L438.35 38.0 437.55 37.55 Q437.35 37.3 437.35 35.75 437.35 34.2 438.25 33.75 L440.1 33.25 440.35 31.0 Q440.2 30.6 437.25 30.4 L432.6 30.0 Q432.35 28.5 432.35 24.35 432.35 20.8 432.9 19.55 M422.85 19.5 Q428.4 19.5 429.9 22.75 430.35 23.8 430.35 27.25 430.35 31.15 430.15 31.75 429.4 33.5 425.85 33.5 419.25 33.5 417.15 29.75 416.5 28.55 416.35 27.05 L416.35 25.6 Q416.35 22.25 417.4 21.05 418.75 19.5 422.85 19.5 M405.25 20.2 Q404.35 18.75 404.35 17.35 404.35 15.4 404.65 15.0 405.05 14.5 406.85 14.5 409.5 14.5 414.35 26.25 414.35 28.65 410.15 33.05 405.85 37.5 403.35 37.5 399.25 37.5 398.4 34.95 L398.35 32.1 Q398.35 24.1 406.35 22.25 L405.25 20.2 M421.35 27.0 L425.35 28.0 Q423.95 25.25 421.6 24.75 L421.35 27.0 M406.35 28.0 L403.35 31.0 403.85 32.0 Q406.45 29.2 407.0 28.0 L406.35 28.0 M430.35 44.5 Q431.05 45.35 433.85 47.35 434.3 45.95 435.1 44.5 L435.2 44.4 Q433.5 44.65 430.35 44.5 M438.55 47.7 Q438.4 48.7 438.6 51.25 438.6 51.7 440.85 53.5 443.15 55.25 443.85 55.25 L450.1 55.0 450.35 51.6 Q450.35 50.1 446.4 48.0 442.55 46.0 440.35 46.0 438.75 46.0 438.55 47.7 M426.35 54.75 Q417.35 57.6 417.35 63.25 417.35 64.55 418.65 66.25 419.6 67.55 420.65 68.0 L421.85 68.25 425.35 68.0 443.35 66.0 443.35 60.25 Q437.75 59.45 435.15 55.75 L433.95 53.5 431.6 53.25 426.35 54.75 M329.35 41.85 Q329.35 44.75 321.6 45.0 L321.1 57.75 318.85 58.5 Q316.35 56.1 316.35 50.5 316.35 45.8 316.9 44.0 318.45 38.7 323.85 39.5 L328.85 40.0 329.1 40.25 Q329.35 40.4 329.35 41.85 M244.45 106.65 L244.25 105.65 239.65 78.5 239.35 76.6 239.25 76.0 238.4 70.6 238.0 68.0 Q233.35 37.35 233.35 31.1 L233.4 27.15 Q233.75 24.25 235.3 22.95 233.35 20.9 233.35 20.35 233.35 18.4 281.45 10.75 L329.85 3.5 Q333.25 3.5 349.15 46.35 L357.0 68.0 359.8 76.0 364.35 89.5 Q364.35 96.45 341.7 100.5 L321.85 103.4 303.85 106.0 Q297.15 107.25 270.65 113.55 249.95 118.5 244.85 118.5 L242.35 118.0 241.55 117.55 Q241.35 117.3 241.35 115.75 241.35 114.45 245.15 112.85 L249.35 111.35 255.95 109.55 Q266.0 107.1 290.05 102.75 L329.05 95.4 Q349.8 91.15 358.35 87.75 L354.05 76.0 351.2 68.0 341.25 39.75 Q330.35 8.75 327.6 8.75 309.2 8.75 278.25 15.0 L254.95 19.95 236.15 23.45 Q239.45 35.4 243.05 57.65 L244.65 68.0 245.7 76.0 Q247.35 89.9 247.35 99.5 L247.35 101.75 247.1 107.75 244.85 108.5 244.45 106.65 M328.35 68.0 Q328.45 65.1 330.85 64.5 L334.2 68.0 335.85 70.05 Q336.0 68.95 336.3 68.0 337.15 64.8 338.85 63.5 340.85 65.1 341.3 67.75 L341.35 68.0 341.35 71.85 341.15 76.0 340.35 87.25 337.85 88.5 Q335.35 85.8 335.35 83.1 L335.4 78.4 Q333.75 77.9 332.2 76.0 L330.55 73.5 Q328.35 69.55 328.35 68.25 L328.35 68.0 M326.1 77.75 Q326.35 78.5 323.85 78.5 L320.9 78.0 315.35 77.5 Q313.05 77.5 311.75 76.0 L311.05 74.95 Q310.35 73.55 310.35 72.1 310.35 69.65 311.05 68.0 312.45 64.5 316.85 64.5 321.1 64.5 323.6 68.0 325.45 70.6 326.35 75.1 L326.35 76.0 326.1 77.75 M314.85 23.0 L315.1 23.25 Q315.35 23.4 315.35 24.85 315.35 26.4 313.85 27.4 L310.35 29.5 Q311.3 32.35 314.05 35.25 316.35 37.65 316.35 39.6 316.35 41.65 315.9 42.25 314.9 43.5 311.35 43.5 307.85 43.5 306.6 42.25 306.35 43.25 306.35 40.75 306.35 39.8 306.65 39.4 307.5 38.15 310.35 38.0 L306.3 32.6 Q305.35 31.4 305.35 29.0 305.35 22.05 310.85 22.5 L314.85 23.0 M299.35 18.5 Q305.35 18.5 304.35 23.1 304.35 24.3 301.05 27.9 297.55 31.75 295.35 32.25 295.35 33.85 296.85 35.9 298.35 37.95 298.35 39.0 L298.2 40.4 297.85 40.5 297.35 41.2 295.35 41.5 Q292.95 41.5 291.4 37.45 290.35 34.65 290.35 33.1 290.35 29.8 293.15 24.5 296.25 18.5 299.35 18.5 M289.55 21.15 Q290.35 21.65 290.35 23.25 290.35 24.7 286.35 32.9 L286.1 34.75 Q286.3 35.3 285.1 35.45 L282.8 39.8 Q280.3 44.3 278.85 45.5 L277.05 44.9 276.8 44.65 Q276.35 44.05 276.35 42.75 276.35 41.35 280.05 33.0 L280.1 32.9 278.8 30.15 277.35 24.5 Q277.35 22.5 277.65 22.05 278.05 21.5 279.85 21.5 280.3 21.5 283.2 26.6 285.7 22.2 287.85 20.5 L289.55 21.15 M284.05 39.3 Q284.4 39.0 285.85 38.5 L290.05 46.55 Q293.85 46.6 295.4 47.3 L295.35 46.85 Q295.35 44.9 296.05 44.3 297.05 43.5 300.35 43.5 307.9 43.5 309.85 45.8 310.85 46.95 310.35 48.35 310.35 53.0 307.1 55.25 309.35 56.0 310.35 57.5 L309.15 59.65 Q308.7 60.2 307.55 60.4 308.1 61.5 308.3 63.1 L308.35 68.0 308.35 68.35 308.6 71.9 Q308.75 74.15 308.4 75.5 L308.25 76.0 Q306.95 79.5 300.85 79.5 295.45 79.5 294.4 76.6 L294.25 76.0 294.15 74.5 294.35 73.35 Q294.35 70.25 294.95 69.25 295.4 68.6 296.15 68.0 298.35 66.25 303.35 65.25 303.0 63.55 303.15 62.35 303.3 61.25 303.95 60.3 299.55 59.35 297.15 53.85 296.45 52.25 296.0 50.45 295.65 51.05 294.9 51.25 L292.25 51.5 Q293.7 55.45 294.35 59.25 294.35 60.5 291.85 60.5 289.8 60.5 286.45 51.45 281.95 51.3 281.45 50.45 281.85 48.95 281.35 48.0 282.25 47.1 284.8 46.75 283.35 42.55 283.35 41.6 L283.55 40.2 284.05 39.3 M263.85 42.5 L259.25 48.4 Q256.5 52.45 256.35 56.0 L256.6 57.25 Q261.35 56.35 265.55 52.9 L272.1 47.25 263.85 42.5 M278.35 47.6 Q278.35 49.1 269.65 55.75 L268.55 56.6 268.85 56.5 271.95 62.05 Q276.4 59.55 280.85 57.5 282.65 57.5 283.05 57.95 283.35 58.3 283.35 60.25 283.35 63.3 276.95 66.75 L275.25 67.7 275.4 68.0 Q276.75 70.9 277.15 73.7 L281.55 75.4 282.9 76.0 Q287.05 77.95 288.85 79.75 L289.1 79.35 Q289.35 79.3 289.35 80.85 289.35 82.75 287.85 83.25 L284.85 83.5 Q280.45 83.5 276.75 80.3 275.95 82.85 274.15 85.1 269.25 90.3 265.85 94.5 L264.05 93.9 Q263.35 93.4 263.35 91.75 263.35 89.95 267.85 84.7 272.35 79.45 272.35 76.0 272.35 74.85 270.25 70.4 263.5 74.05 262.85 74.5 L261.05 73.7 Q260.35 73.05 260.35 71.35 260.35 70.0 262.7 68.0 264.45 66.45 267.55 64.55 266.35 61.65 266.35 60.25 266.35 58.65 267.0 57.75 260.4 62.5 258.35 62.5 252.55 62.5 251.4 59.0 251.0 57.9 251.15 56.55 L251.35 55.25 Q251.35 52.05 256.4 44.0 261.7 35.5 264.85 35.5 270.25 35.5 276.55 44.8 L278.35 47.6 M304.85 49.5 Q301.1 48.25 301.1 49.0 L302.1 51.75 304.35 50.0 304.85 49.5 M315.6 72.0 Q316.85 71.75 318.85 69.75 L316.35 69.75 316.35 70.0 315.6 72.0 M299.35 72.0 Q299.35 74.0 299.6 74.25 303.4 74.95 303.55 73.85 303.05 72.45 303.35 72.0 L303.35 71.75 299.35 72.0 M220.85 17.65 Q224.85 17.95 225.05 19.65 225.25 20.85 224.35 25.75 223.9 31.55 226.1 38.25 228.85 46.55 230.35 58.5 L231.95 68.0 233.4 76.0 233.9 78.7 Q236.35 92.9 236.35 99.35 236.35 102.85 218.85 105.25 L217.95 105.4 Q202.2 107.5 183.0 107.5 L178.0 107.5 156.75 106.25 156.5 106.2 156.5 106.25 154.0 107.5 Q152.7 103.1 148.8 77.95 144.5 49.95 144.5 40.6 144.5 33.7 145.75 30.55 L145.75 30.5 145.5 30.5 Q143.0 30.5 141.75 29.25 141.5 30.25 141.5 27.75 141.5 26.15 164.0 22.0 188.4 17.5 204.35 17.5 218.9 17.5 220.85 17.65 M179.5 33.75 Q179.75 33.75 184.0 31.65 188.25 29.5 191.5 29.5 208.55 29.5 213.65 49.0 216.15 58.5 215.4 68.0 L215.35 68.5 215.9 73.95 Q216.15 79.3 214.9 83.5 210.95 96.5 193.0 96.5 185.3 96.5 178.0 93.5 172.9 91.35 168.05 87.75 156.5 79.25 156.5 70.5 156.5 68.9 157.4 63.6 158.65 56.4 160.55 50.3 166.4 31.5 176.0 31.5 177.25 31.5 177.75 32.65 178.25 33.75 179.5 33.75 M179.25 35.0 Q170.25 35.0 165.0 52.75 162.35 61.6 161.5 70.75 161.5 71.5 163.25 74.35 165.5 78.05 168.75 81.25 173.0 85.35 178.0 87.75 184.9 91.0 193.35 91.0 206.8 91.0 209.5 85.0 210.65 82.55 210.65 77.8 L210.5 68.1 210.5 68.0 Q210.5 56.3 208.8 50.5 204.2 35.0 189.25 35.0 188.0 35.0 186.4 36.25 184.75 37.5 183.5 37.5 182.25 37.5 181.4 36.25 180.5 35.0 179.25 35.0 M192.8 45.8 L194.5 48.0 Q193.25 49.4 190.35 50.3 187.95 51.05 186.5 53.75 183.7 59.05 182.5 62.75 L182.5 67.25 Q191.9 60.6 192.5 51.25 L193.1 50.9 Q193.55 50.5 195.0 50.5 198.7 50.5 201.3 68.0 L202.5 77.6 202.25 84.75 200.0 85.5 Q198.5 81.8 197.05 74.1 L195.85 68.0 194.75 62.5 190.65 68.0 190.6 68.05 Q186.95 72.5 182.5 72.5 179.2 72.5 178.0 70.35 L177.55 69.2 177.5 65.6 Q177.5 61.45 180.55 54.0 184.4 44.5 189.5 44.5 191.55 44.5 192.8 45.8 M157.0 103.2 L162.7 102.55 178.0 102.05 214.85 101.0 217.95 100.5 220.7 99.65 Q224.9 98.35 230.85 98.0 L227.35 76.0 226.1 68.0 Q222.5 44.9 219.35 23.0 L186.5 23.0 Q158.75 29.8 147.7 30.45 149.45 36.1 149.75 45.4 150.2 61.0 150.5 63.5 152.35 78.8 156.5 98.0 L156.5 103.2 156.5 104.6 Q156.55 103.45 157.0 103.2 M128.3 229.85 L170.35 230.1 165.3 224.65 Q157.95 215.75 156.5 215.75 148.65 215.75 138.4 223.15 L131.35 228.2 Q129.65 229.3 128.3 229.85 M104.0 212.75 Q98.4 212.75 87.25 220.65 L79.7 226.05 Q76.15 228.5 75.0 228.5 72.35 228.5 64.15 222.65 L56.0 216.75 Q43.0 216.75 33.9 223.15 L28.55 227.5 Q26.5 229.35 25.65 229.5 58.0 229.5 121.9 229.85 117.05 228.05 111.15 221.65 L104.0 212.75 M116.65 261.2 Q119.95 259.5 124.0 259.5 129.85 259.5 139.6 265.4 149.35 271.25 152.0 271.25 167.75 271.25 171.25 264.9 172.45 261.7 173.25 260.5 174.6 258.5 178.0 258.5 178.75 258.5 190.05 264.9 L201.5 271.25 Q207.85 271.25 217.95 265.55 L219.1 264.9 226.3 260.5 Q229.35 258.7 230.6 258.55 L217.95 258.45 178.0 258.1 159.55 257.9 40.0 256.7 2.15 256.3 2.3 257.95 2.3 263.15 Q3.6 269.25 23.0 269.25 26.25 269.25 28.35 267.4 29.6 266.35 31.4 263.4 33.2 260.45 34.5 259.35 36.65 257.5 40.0 257.5 43.95 257.5 48.3 263.4 52.65 269.25 56.5 269.25 64.4 269.25 69.95 264.4 72.5 261.95 73.75 261.0 75.85 259.5 78.0 259.5 79.85 259.5 87.45 264.9 95.1 270.25 97.5 270.25 104.5 270.25 111.3 264.9 114.8 262.1 116.65 261.2 M310.1 208.75 Q305.95 208.75 297.7 221.65 L292.7 229.15 322.85 227.75 332.2 227.75 Q327.15 225.75 319.8 218.65 310.7 208.75 310.1 208.75 M263.85 216.25 Q251.55 225.5 243.95 230.3 L274.85 229.7 271.4 226.3 Q269.15 223.8 266.6 220.15 L263.85 216.25 M283.0 262.9 L287.95 268.25 Q294.95 276.0 300.1 276.0 304.9 276.0 314.5 267.25 321.8 260.6 324.9 259.0 L231.05 258.55 Q232.85 258.9 241.55 265.9 250.65 273.25 254.6 273.25 259.45 273.25 267.45 266.9 275.5 260.5 278.35 260.5 280.35 260.5 283.0 262.9 M210.0 215.75 Q202.25 215.75 189.05 224.65 187.1 225.95 181.35 230.15 L214.55 230.35 217.95 230.4 222.15 230.4 Q220.1 228.4 218.1 225.65 L217.95 225.45 213.45 218.85 Q211.25 215.75 210.0 215.75" fill="#000000" fill-rule="evenodd" stroke="none"/>
      <path d="M549.8 183.55 Q551.15 193.4 551.4 235.0 L551.35 289.75 551.25 330.0 551.2 349.0 551.1 395.35 551.35 396.85 551.55 398.5 Q551.5 399.05 549.9 399.25 L549.55 399.3 548.85 399.5 548.8 399.35 526.85 399.5 505.35 399.9 505.35 399.35 Q505.35 397.05 503.15 393.5 L502.9 393.1 Q499.8 388.2 498.85 385.25 507.45 381.6 511.85 375.05 515.35 369.85 515.35 364.5 515.35 359.8 511.1 353.8 L507.9 349.0 Q506.85 347.3 506.85 346.85 506.85 345.4 510.05 342.85 L517.1 337.35 Q521.15 333.85 523.6 330.0 527.35 324.05 527.35 317.25 527.35 310.5 525.75 307.65 523.5 303.6 514.1 296.25 525.5 293.6 531.75 288.6 537.35 284.15 537.35 279.1 537.35 275.05 531.35 266.8 L521.6 254.75 Q524.45 253.2 530.0 247.65 536.35 241.35 536.35 238.6 536.35 236.1 529.15 229.75 524.1 225.35 519.55 223.6 L519.3 221.85 518.4 215.25 Q517.05 207.5 513.35 207.5 510.7 207.5 501.3 213.25 491.9 219.0 488.75 219.0 486.4 219.0 484.15 217.05 L480.25 212.75 Q474.9 206.5 468.85 206.5 461.75 206.5 453.25 212.85 L447.2 217.5 Q444.0 219.8 441.85 220.25 440.6 217.6 434.6 211.55 427.55 204.5 423.85 204.5 415.05 204.5 403.0 213.25 L394.85 219.25 Q390.9 222.0 388.85 222.0 385.5 222.0 378.7 212.75 371.95 203.5 368.85 203.5 359.5 203.5 349.15 213.4 L341.7 220.15 Q337.6 223.25 333.85 223.25 332.25 223.25 322.35 213.4 312.45 203.5 308.85 203.5 304.3 203.5 300.7 207.45 298.25 210.15 295.2 216.15 L290.55 224.8 Q287.85 228.75 284.85 228.75 280.2 228.75 273.75 219.65 270.3 214.7 269.05 213.35 266.5 210.5 264.35 210.5 261.7 210.5 248.5 220.4 235.3 230.25 229.85 230.25 227.5 230.25 219.9 220.4 L217.95 217.9 Q211.95 210.5 209.5 210.5 202.15 210.5 191.8 216.65 186.85 219.6 178.0 226.3 176.9 227.1 175.75 228.0 L167.6 217.85 Q161.35 210.5 156.0 210.5 148.95 210.5 139.25 217.65 L132.15 222.5 Q128.25 224.75 125.0 224.75 122.0 224.75 119.0 222.05 117.4 220.6 113.85 216.15 107.0 207.5 101.5 207.5 97.3 207.5 86.7 215.4 76.05 223.25 73.75 223.25 59.6 211.5 52.0 211.5 43.05 211.5 35.1 217.0 L29.9 220.8 Q27.3 222.5 25.5 222.5 L20.2 216.0 Q14.8 209.5 13.5 209.5 8.85 209.5 0.6 216.15 L-0.2 216.8 -3.25 219.45 Q-4.1 217.5 -4.35 214.65 L-4.5 207.5 Q-4.5 197.0 -4.15 194.4 -3.5 189.8 -1.35 185.55 L3.5 185.65 50.9 186.15 109.35 186.5 178.0 186.35 212.85 185.9 217.95 185.75 230.75 184.65 Q237.85 182.75 372.35 182.75 L505.85 184.0 Q534.65 184.3 547.95 183.65 L549.8 183.55 M549.0 180.55 L548.8 180.55 548.85 180.5 549.0 180.55 M1.5 181.7 L0.9 181.7 1.0 181.5 1.5 181.7 M500.35 399.7 L500.25 399.9 500.1 399.9 500.35 399.7" fill="#c49c00" fill-rule="evenodd" stroke="none"/>
      <path d="M397.25 84.65 L397.35 79.75 396.9 76.0 395.75 68.0 391.85 43.0 Q388.35 20.8 386.55 12.1 L388.45 12.35 394.85 11.5 469.35 12.0 Q470.1 12.5 470.35 13.25 470.6 14.75 471.35 17.0 471.55 23.4 473.35 31.25 475.75 40.75 477.35 59.75 L477.35 83.0 Q413.7 83.55 398.05 84.65 L397.25 84.65 M437.35 41.5 Q436.25 39.85 432.6 39.0 L428.85 38.5 Q425.9 38.5 425.4 40.0 L425.35 43.75 Q425.35 47.2 426.5 49.45 421.15 51.0 417.3 54.1 412.35 58.1 412.35 62.35 L412.3 64.2 Q412.4 66.3 413.35 68.0 L414.05 69.1 Q413.55 69.45 413.4 70.0 L413.35 73.75 Q413.35 74.9 413.7 76.0 414.3 77.8 415.85 79.5 L418.1 78.75 418.7 76.0 419.25 72.55 Q422.2 73.5 426.35 73.5 L428.05 73.5 429.85 75.5 432.35 74.25 432.3 73.35 440.7 72.35 441.4 74.9 441.8 76.0 Q443.05 79.5 444.85 79.5 446.4 79.5 446.85 78.8 L447.35 77.5 447.35 71.55 446.65 69.8 447.3 69.15 449.9 72.5 Q451.8 74.75 453.5 76.0 455.55 77.5 457.35 77.5 459.85 77.5 460.35 76.25 L460.35 76.0 Q459.85 72.85 454.6 68.45 L454.05 68.0 Q449.8 64.5 448.85 64.5 L448.4 64.5 448.35 63.0 448.5 60.45 Q453.45 59.95 454.9 56.25 455.35 55.1 455.35 51.0 455.35 46.9 454.15 45.05 L454.0 44.85 454.35 45.0 456.35 45.5 Q460.35 45.5 460.35 40.6 457.25 28.5 453.85 28.5 450.25 28.5 447.6 31.75 446.2 33.45 445.7 35.1 445.35 36.05 445.35 37.0 445.35 38.0 447.85 40.5 L447.7 41.15 441.35 40.5 Q439.15 40.5 437.5 41.75 L437.35 41.5 M421.35 27.0 L421.6 24.75 Q423.95 25.25 425.35 28.0 L421.35 27.0 M405.25 20.2 L406.35 22.25 Q398.35 24.1 398.35 32.1 L398.4 34.95 Q399.25 37.5 403.35 37.5 405.85 37.5 410.15 33.05 414.35 28.65 414.35 26.25 409.5 14.5 406.85 14.5 405.05 14.5 404.65 15.0 404.35 15.4 404.35 17.35 404.35 18.75 405.25 20.2 M422.85 19.5 Q418.75 19.5 417.4 21.05 416.35 22.25 416.35 25.6 L416.35 27.05 Q416.5 28.55 417.15 29.75 419.25 33.5 425.85 33.5 429.4 33.5 430.15 31.75 430.35 31.15 430.35 27.25 430.35 23.8 429.9 22.75 428.4 19.5 422.85 19.5 M432.9 19.55 Q432.35 20.8 432.35 24.35 432.35 28.5 432.6 30.0 L437.25 30.4 Q440.2 30.6 440.35 31.0 L440.1 33.25 438.25 33.75 Q437.35 34.2 437.35 35.75 437.35 37.3 437.55 37.55 L438.35 38.0 441.35 38.5 Q444.65 38.5 445.3 35.0 L445.35 30.5 Q445.6 26.8 444.9 23.35 443.5 16.5 438.85 16.5 434.2 16.5 432.9 19.55 M329.35 41.85 Q329.35 40.4 329.1 40.25 L328.85 40.0 323.85 39.5 Q318.45 38.7 316.9 44.0 316.35 45.8 316.35 50.5 316.35 56.1 318.85 58.5 L321.1 57.75 321.6 45.0 Q329.35 44.75 329.35 41.85 M244.45 106.65 L244.85 108.5 247.1 107.75 247.35 101.75 247.35 99.5 Q247.35 89.9 245.7 76.0 L244.65 68.0 243.05 57.65 Q239.45 35.4 236.15 23.45 L254.95 19.95 278.25 15.0 Q309.2 8.75 327.6 8.75 330.35 8.75 341.25 39.75 L351.2 68.0 354.05 76.0 358.35 87.75 Q349.8 91.15 329.05 95.4 L290.05 102.75 Q266.0 107.1 255.95 109.55 L249.35 111.35 245.15 112.85 244.55 111.4 Q244.35 110.6 244.35 108.0 L244.45 106.65 M326.1 77.75 L326.35 76.0 326.35 75.1 Q325.45 70.6 323.6 68.0 321.1 64.5 316.85 64.5 312.45 64.5 311.05 68.0 310.35 69.65 310.35 72.1 310.35 73.55 311.05 74.95 L311.75 76.0 Q313.05 77.5 315.35 77.5 L320.9 78.0 323.85 78.5 Q326.35 78.5 326.1 77.75 M328.35 68.0 L328.35 68.25 Q328.35 69.55 330.55 73.5 L332.2 76.0 Q333.75 77.9 335.4 78.4 L335.35 83.1 Q335.35 85.8 337.85 88.5 L340.35 87.25 341.15 76.0 341.35 71.85 341.35 68.0 341.3 67.75 Q340.85 65.1 338.85 63.5 337.15 64.8 336.3 68.0 336.0 68.95 335.85 70.05 L334.2 68.0 330.85 64.5 Q328.45 65.1 328.35 68.0 M299.35 72.0 L303.35 71.75 303.35 72.0 Q303.05 72.45 303.55 73.85 303.4 74.95 299.6 74.25 299.35 74.0 299.35 72.0 M315.6 72.0 L316.35 70.0 316.35 69.75 318.85 69.75 Q316.85 71.75 315.6 72.0 M304.85 49.5 L304.35 50.0 302.1 51.75 301.1 49.0 Q301.1 48.25 304.85 49.5 M278.35 47.6 L276.55 44.8 Q270.25 35.5 264.85 35.5 261.7 35.5 256.4 44.0 251.35 52.05 251.35 55.25 L251.15 56.55 Q251.0 57.9 251.4 59.0 252.55 62.5 258.35 62.5 260.4 62.5 267.0 57.75 266.35 58.65 266.35 60.25 266.35 61.65 267.55 64.55 264.45 66.45 262.7 68.0 260.35 70.0 260.35 71.35 260.35 73.05 261.05 73.7 L262.85 74.5 Q263.5 74.05 270.25 70.4 272.35 74.85 272.35 76.0 272.35 79.45 267.85 84.7 263.35 89.95 263.35 91.75 263.35 93.4 264.05 93.9 L265.85 94.5 Q269.25 90.3 274.15 85.1 275.95 82.85 276.75 80.3 280.45 83.5 284.85 83.5 L287.85 83.25 Q289.35 82.75 289.35 80.85 289.35 79.3 289.1 79.35 L288.85 79.75 Q287.05 77.95 282.9 76.0 L281.55 75.4 277.15 73.7 Q276.75 70.9 275.4 68.0 L275.25 67.7 276.95 66.75 Q283.35 63.3 283.35 60.25 283.35 58.3 283.05 57.95 282.65 57.5 280.85 57.5 276.4 59.55 271.95 62.05 L268.85 56.5 268.55 56.6 269.65 55.75 Q278.35 49.1 278.35 47.6 M263.85 42.5 L272.1 47.25 265.55 52.9 Q261.35 56.35 256.6 57.25 L256.35 56.0 Q256.5 52.45 259.25 48.4 L263.85 42.5 M284.05 39.3 L283.55 40.2 283.35 41.6 Q283.35 42.55 284.8 46.75 282.25 47.1 281.35 48.0 281.85 48.95 281.45 50.45 281.95 51.3 286.45 51.45 289.8 60.5 291.85 60.5 294.35 60.5 294.35 59.25 293.7 55.45 292.25 51.5 L294.9 51.25 Q295.65 51.05 296.0 50.45 296.45 52.25 297.15 53.85 299.55 59.35 303.95 60.3 303.3 61.25 303.15 62.35 303.0 63.55 303.35 65.25 298.35 66.25 296.15 68.0 295.4 68.6 294.95 69.25 294.35 70.25 294.35 73.35 L294.15 74.5 294.25 76.0 294.4 76.6 Q295.45 79.5 300.85 79.5 306.95 79.5 308.25 76.0 L308.4 75.5 Q308.75 74.15 308.6 71.9 L308.35 68.35 308.35 68.0 308.3 63.1 Q308.1 61.5 307.55 60.4 308.7 60.2 309.15 59.65 L310.35 57.5 Q309.35 56.0 307.1 55.25 310.35 53.0 310.35 48.35 310.85 46.95 309.85 45.8 307.9 43.5 300.35 43.5 297.05 43.5 296.05 44.3 295.35 44.9 295.35 46.85 L295.4 47.3 Q293.85 46.6 290.05 46.55 L285.85 38.5 Q284.4 39.0 284.05 39.3 M289.55 21.15 L287.85 20.5 Q285.7 22.2 283.2 26.6 280.3 21.5 279.85 21.5 278.05 21.5 277.65 22.05 277.35 22.5 277.35 24.5 L278.8 30.15 280.1 32.9 280.05 33.0 Q276.35 41.35 276.35 42.75 276.35 44.05 276.8 44.65 L277.05 44.9 278.85 45.5 Q280.3 44.3 282.8 39.8 L285.1 35.45 Q286.3 35.3 286.1 34.75 L286.35 32.9 Q290.35 24.7 290.35 23.25 290.35 21.65 289.55 21.15 M299.35 18.5 Q296.25 18.5 293.15 24.5 290.35 29.8 290.35 33.1 290.35 34.65 291.4 37.45 292.95 41.5 295.35 41.5 L297.35 41.2 297.85 40.5 298.2 40.4 298.35 39.0 Q298.35 37.95 296.85 35.9 295.35 33.85 295.35 32.25 297.55 31.75 301.05 27.9 304.35 24.3 304.35 23.1 305.35 18.5 299.35 18.5 M314.85 23.0 L310.85 22.5 Q305.35 22.05 305.35 29.0 305.35 31.4 306.3 32.6 L310.35 38.0 Q307.5 38.15 306.65 39.4 306.35 39.8 306.35 40.75 306.35 43.25 306.6 42.25 307.85 43.5 311.35 43.5 314.9 43.5 315.9 42.25 316.35 41.65 316.35 39.6 316.35 37.65 314.05 35.25 311.3 32.35 310.35 29.5 L313.85 27.4 Q315.35 26.4 315.35 24.85 315.35 23.4 315.1 23.25 L314.85 23.0 M156.5 103.2 L156.5 98.0 Q152.35 78.8 150.5 63.5 150.2 61.0 149.75 45.4 149.45 36.1 147.7 30.45 158.75 29.8 186.5 23.0 L219.35 23.0 Q222.5 44.9 226.1 68.0 L227.35 76.0 230.85 98.0 Q224.9 98.35 220.7 99.65 L217.95 100.5 214.85 101.0 178.0 102.05 162.7 102.55 157.0 103.2 156.5 103.2 M192.8 45.8 Q191.55 44.5 189.5 44.5 184.4 44.5 180.55 54.0 177.5 61.45 177.5 65.6 L177.55 69.2 178.0 70.35 Q179.2 72.5 182.5 72.5 186.95 72.5 190.6 68.05 L190.65 68.0 194.75 62.5 195.85 68.0 197.05 74.1 Q198.5 81.8 200.0 85.5 L202.25 84.75 202.5 77.6 201.3 68.0 Q198.7 50.5 195.0 50.5 193.55 50.5 193.1 50.9 L192.5 51.25 Q191.9 60.6 182.5 67.25 L182.5 62.75 Q183.7 59.05 186.5 53.75 187.95 51.05 190.35 50.3 193.25 49.4 194.5 48.0 L192.8 45.8 M179.25 35.0 Q180.5 35.0 181.4 36.25 182.25 37.5 183.5 37.5 184.75 37.5 186.4 36.25 188.0 35.0 189.25 35.0 204.2 35.0 208.8 50.5 210.5 56.3 210.5 68.0 L210.5 68.1 210.65 77.8 Q210.65 82.55 209.5 85.0 206.8 91.0 193.35 91.0 184.9 91.0 178.0 87.75 173.0 85.35 168.75 81.25 165.5 78.05 163.25 74.35 161.5 71.5 161.5 70.75 162.35 61.6 165.0 52.75 170.25 35.0 179.25 35.0 M179.5 33.75 Q178.25 33.75 177.75 32.65 177.25 31.5 176.0 31.5 166.4 31.5 160.55 50.3 158.65 56.4 157.4 63.6 156.5 68.9 156.5 70.5 156.5 79.25 168.05 87.75 172.9 91.35 178.0 93.5 185.3 96.5 193.0 96.5 210.95 96.5 214.9 83.5 216.15 79.3 215.9 73.95 L215.35 68.5 215.4 68.0 Q216.15 58.5 213.65 49.0 208.55 29.5 191.5 29.5 188.25 29.5 184.0 31.65 179.75 33.75 179.5 33.75 M125.5 43.35 Q125.5 48.65 124.75 49.75 122.8 52.5 114.5 52.5 107.85 52.5 106.5 49.4 106.1 48.4 106.25 47.15 L106.5 46.0 Q106.5 43.0 108.25 39.25 110.9 33.5 116.0 33.5 123.2 33.5 125.0 37.75 L125.1 37.95 Q125.5 39.25 125.5 43.35 M98.5 19.75 L98.5 54.25 96.0 55.5 Q90.95 50.55 91.2 37.6 92.5 22.6 92.5 16.35 92.5 13.35 95.0 12.5 96.9 14.55 97.6 16.45 L98.5 19.75 M85.5 15.5 L85.5 52.25 83.0 53.5 Q81.1 49.45 80.65 43.65 80.5 41.55 80.5 33.5 80.5 16.95 83.0 13.5 84.6 14.15 85.5 15.5 M115.25 39.0 Q114.25 39.0 112.8 42.4 111.5 45.5 111.5 47.0 L111.5 47.25 120.25 47.0 120.5 43.6 Q120.5 41.25 120.05 40.55 119.0 39.0 115.25 39.0 M56.6 42.85 L56.5 40.5 Q56.5 37.05 58.5 32.3 61.3 25.5 66.0 25.5 71.0 25.5 72.25 28.6 72.9 30.2 72.5 32.0 72.5 35.25 71.4 36.3 69.45 38.2 61.5 40.0 61.5 41.45 63.85 43.7 L69.5 49.5 Q67.55 53.5 65.5 53.5 59.7 53.5 57.55 47.3 56.85 45.3 56.6 42.85 M46.25 35.0 L40.5 35.0 Q35.8 36.9 35.5 40.95 L35.55 44.4 Q35.65 46.5 35.25 47.75 L33.0 48.5 Q29.3 44.9 29.05 34.7 L29.5 19.1 Q29.3 16.4 29.5 15.0 29.85 12.5 32.0 12.5 35.5 12.5 35.5 31.0 L35.5 31.5 35.65 31.45 Q41.55 29.5 43.5 29.5 50.25 29.5 51.55 35.3 52.2 38.2 51.5 41.25 L51.25 49.5 49.0 50.5 Q46.2 48.3 46.3 43.7 46.5 36.2 46.25 35.0 M65.5 31.0 L63.5 33.25 63.25 34.0 66.25 34.0 Q66.25 33.65 67.5 31.75 65.95 30.55 65.5 31.0" fill="#ffffff" fill-rule="evenodd" stroke="none"/>
      <path d="M447.7 41.15 L447.85 40.5 449.35 40.0 450.6 38.15 Q451.55 36.65 452.85 35.5 L454.3 37.15 Q455.35 38.3 455.35 39.75 455.35 41.0 454.35 41.25 453.35 41.5 453.35 42.75 L452.7 43.45 Q450.85 41.85 447.7 41.15 M438.55 47.7 Q438.75 46.0 440.35 46.0 442.55 46.0 446.4 48.0 450.35 50.1 450.35 51.6 L450.1 55.0 443.85 55.25 Q443.15 55.25 440.85 53.5 438.6 51.7 438.6 51.25 438.4 48.7 438.55 47.7 M430.35 44.5 Q433.5 44.65 435.2 44.4 L435.1 44.5 Q434.3 45.95 433.85 47.35 431.05 45.35 430.35 44.5 M406.35 28.0 L407.0 28.0 Q406.45 29.2 403.85 32.0 L403.35 31.0 406.35 28.0 M426.35 54.75 L431.6 53.25 433.95 53.5 435.15 55.75 Q437.75 59.45 443.35 60.25 L443.35 66.0 425.35 68.0 421.85 68.25 420.65 68.0 Q419.6 67.55 418.65 66.25 417.35 64.55 417.35 63.25 417.35 57.6 426.35 54.75" fill="#cccccc" fill-rule="evenodd" stroke="none"/>
      <path d="M492.5 407.35 Q486.2 407.25 483.25 406.35 481.85 405.95 480.65 405.0 L482.35 404.1 Q482.35 402.75 482.65 400.5 483.5 393.15 487.2 376.6 L493.7 349.0 497.85 331.6 498.25 330.0 Q513.35 266.6 513.35 251.25 L513.35 237.75 Q513.15 233.3 511.1 231.0 508.15 227.6 502.05 226.55 L483.15 225.8 Q438.5 227.5 392.85 227.5 L337.65 227.7 Q341.1 225.7 350.35 218.75 363.35 209.0 367.5 209.0 369.2 209.0 371.65 211.9 L376.4 218.25 Q383.4 227.5 389.35 227.5 390.75 227.5 392.5 226.8 L396.0 224.8 403.7 218.9 Q414.85 210.25 424.35 210.25 426.7 210.25 432.9 217.9 439.1 225.5 442.85 225.5 445.25 225.5 448.1 223.35 L453.7 218.65 Q462.05 211.75 472.1 211.75 L478.3 218.15 Q485.2 224.5 488.85 224.5 490.6 224.5 499.75 220.3 509.5 215.85 512.1 213.25 512.5 215.1 513.3 222.5 L512.05 222.75 511.6 223.0 511.35 225.6 Q511.35 227.1 519.9 231.85 529.55 237.2 530.85 238.5 L523.0 246.15 Q516.35 252.95 516.35 255.0 516.35 256.65 524.35 266.65 532.35 276.65 532.35 279.0 532.35 282.7 528.6 285.15 526.1 286.85 520.35 288.65 513.85 290.7 512.1 291.55 508.35 293.45 508.35 296.1 508.35 297.5 510.55 299.65 L515.35 303.95 Q522.35 310.45 522.35 316.85 522.35 323.3 516.9 330.0 514.75 332.6 511.85 335.2 L504.65 341.35 Q501.35 344.3 501.35 345.85 501.35 347.35 502.0 349.0 503.05 351.7 505.85 354.85 510.35 360.0 510.35 364.6 510.35 370.45 501.85 376.6 L496.0 380.9 Q493.35 383.1 493.35 384.85 493.35 388.3 496.85 392.85 500.35 397.35 500.35 399.5 L500.35 399.7 500.1 399.9 500.25 399.9 499.6 400.7 497.1 402.3 496.35 402.65 Q492.35 404.6 492.35 405.6 492.35 406.95 492.5 407.35 M434.55 401.4 L429.35 401.5 423.35 401.2 Q423.0 399.8 424.1 396.55 L424.55 395.3 Q426.35 390.5 426.35 388.85 426.35 388.25 424.35 384.4 422.35 380.55 422.35 379.85 422.35 378.4 424.4 376.75 424.6 376.55 428.85 373.7 435.35 369.25 435.35 364.5 435.35 363.05 433.35 360.0 431.35 356.9 431.35 356.25 431.35 355.8 437.85 350.9 L440.3 349.0 Q444.35 345.8 444.35 345.25 444.35 343.2 440.0 338.1 435.15 332.4 434.6 331.0 L436.1 330.0 Q437.9 328.75 442.05 326.05 448.35 321.95 448.35 320.0 448.35 317.8 443.65 310.45 L438.35 302.0 Q443.45 299.5 450.85 297.9 452.9 297.45 453.55 296.85 454.35 296.1 454.35 294.25 454.35 292.8 448.35 288.3 442.35 283.75 442.35 281.5 442.35 276.8 451.85 270.75 L458.4 266.9 461.35 264.85 Q461.35 263.4 461.1 263.25 L460.85 263.0 457.85 262.5 457.05 262.85 455.35 262.5 Q454.0 262.5 448.95 265.25 443.85 268.0 441.35 268.0 438.15 268.0 433.9 266.25 429.65 264.5 428.85 264.5 427.15 264.5 426.05 266.0 L423.5 269.4 Q418.35 274.25 402.35 274.25 400.35 274.25 389.0 268.4 L377.85 262.5 Q372.6 265.4 366.6 268.25 354.55 274.0 348.85 274.0 342.3 274.0 334.25 266.25 329.05 260.45 327.2 259.0 405.4 259.2 476.35 258.75 472.25 264.15 459.8 300.6 453.95 317.75 450.7 330.0 447.5 341.75 446.7 349.0 446.35 351.7 446.35 353.75 L446.55 355.2 Q444.55 361.9 441.4 373.8 437.2 389.75 435.5 397.0 L434.55 401.4 M-3.15 232.4 Q-4.85 231.25 -5.3 229.4 L-5.4 228.45 -0.5 224.15 1.85 222.0 Q9.0 215.5 12.25 215.5 14.35 215.5 19.15 222.5 23.95 229.45 25.5 229.5 L15.0 229.5 Q3.9 229.5 -0.5 230.8 L-1.45 231.1 Q-2.65 231.55 -3.15 232.4 M482.65 400.5 L482.85 400.5 482.65 400.5 M116.65 261.2 Q114.8 262.1 111.3 264.9 104.5 270.25 97.5 270.25 95.1 270.25 87.45 264.9 79.85 259.5 78.0 259.5 75.85 259.5 73.75 261.0 72.5 261.95 69.95 264.4 64.4 269.25 56.5 269.25 52.65 269.25 48.3 263.4 43.95 257.5 40.0 257.5 36.65 257.5 34.5 259.35 33.2 260.45 31.4 263.4 29.6 266.35 28.35 267.4 26.25 269.25 23.0 269.25 3.6 269.25 2.3 263.15 L2.3 257.95 2.15 256.3 40.0 256.7 159.55 257.9 178.0 258.1 217.95 258.45 230.6 258.55 Q229.35 258.7 226.3 260.5 L219.1 264.9 217.95 265.55 Q207.85 271.25 201.5 271.25 L190.05 264.9 Q178.75 258.5 178.0 258.5 174.6 258.5 173.25 260.5 172.45 261.7 171.25 264.9 167.75 271.25 152.0 271.25 149.35 271.25 139.6 265.4 129.85 259.5 124.0 259.5 119.95 259.5 116.65 261.2 M104.0 212.75 L111.15 221.65 Q117.05 228.05 121.9 229.85 58.0 229.5 25.65 229.5 26.5 229.35 28.55 227.5 L33.9 223.15 Q43.0 216.75 56.0 216.75 L64.15 222.65 Q72.35 228.5 75.0 228.5 76.15 228.5 79.7 226.05 L87.25 220.65 Q98.4 212.75 104.0 212.75 M128.3 229.85 Q129.65 229.3 131.35 228.2 L138.4 223.15 Q148.65 215.75 156.5 215.75 157.95 215.75 165.3 224.65 L170.35 230.1 128.3 229.85 M210.0 215.75 Q211.25 215.75 213.45 218.85 L217.95 225.45 218.1 225.65 Q220.1 228.4 222.15 230.4 L217.95 230.4 214.55 230.35 181.35 230.15 Q187.1 225.95 189.05 224.65 202.25 215.75 210.0 215.75 M283.0 262.9 Q280.35 260.5 278.35 260.5 275.5 260.5 267.45 266.9 259.45 273.25 254.6 273.25 250.65 273.25 241.55 265.9 232.85 258.9 231.05 258.55 L324.9 259.0 Q321.8 260.6 314.5 267.25 304.9 276.0 300.1 276.0 294.95 276.0 287.95 268.25 L283.0 262.9 M263.85 216.25 L266.6 220.15 Q269.15 223.8 271.4 226.3 L274.85 229.7 243.95 230.3 Q251.55 225.5 263.85 216.25 M310.1 208.75 Q310.7 208.75 319.8 218.65 327.15 225.75 332.2 227.75 L322.85 227.75 292.7 229.15 297.7 221.65 Q305.95 208.75 310.1 208.75" fill="#d5d9ff" fill-rule="evenodd" stroke="none"/>
      <path d="M419.15 401.25 L416.85 401.5 Q413.25 401.5 412.35 399.75 L-3.15 399.0 -4.0 399.5 -4.45 399.0 -5.5 399.0 Q-6.5 398.0 -6.5 396.0 -9.15 390.75 -8.55 381.9 -6.5 367.85 -6.5 361.85 -6.5 351.5 -5.35 335.15 -4.05 316.6 -2.5 312.0 -2.1 307.1 -2.3 299.6 L-2.65 287.15 Q-2.75 275.5 -0.45 267.6 1.05 269.95 3.5 271.5 8.25 274.5 16.5 274.5 28.0 274.5 34.05 268.75 L37.35 264.8 Q38.7 263.0 39.5 263.0 40.3 263.0 46.9 268.75 54.5 274.5 60.0 274.5 65.95 274.5 72.2 269.65 L76.15 266.25 Q78.0 264.75 78.75 264.75 79.45 264.75 85.6 270.15 93.35 275.5 102.0 275.5 106.1 275.5 108.65 273.8 L112.5 270.15 Q117.6 264.75 128.0 264.75 128.2 264.75 137.8 270.65 149.25 276.5 158.5 276.5 169.9 276.5 173.6 270.4 L175.6 266.15 Q176.5 264.4 178.0 264.25 L178.25 264.25 Q180.1 264.25 189.45 270.4 198.8 276.5 204.5 276.5 209.1 276.5 217.95 271.6 L220.45 270.15 230.85 263.75 239.7 271.15 Q250.15 278.5 257.85 278.5 263.1 278.5 270.15 272.25 L274.75 267.95 Q276.95 266.0 277.75 266.0 278.6 266.0 280.75 268.4 L285.5 273.75 Q293.0 281.5 299.85 281.5 307.15 281.5 316.3 273.35 320.95 269.2 325.35 264.0 333.9 279.5 348.85 279.5 356.45 279.5 368.1 273.75 373.95 270.9 378.6 268.0 380.2 268.0 387.45 273.75 396.85 279.5 409.35 279.5 417.4 279.5 423.95 275.85 428.5 273.3 430.35 270.5 L434.2 272.65 439.9 273.45 Q437.35 276.95 437.35 281.6 437.35 285.45 438.0 286.4 439.15 288.2 446.1 293.25 437.25 297.1 435.45 298.15 433.35 299.4 433.35 303.0 433.35 306.05 436.9 310.9 441.65 317.3 442.35 318.75 439.85 321.8 433.9 325.35 429.35 328.05 429.35 330.0 429.35 332.95 432.0 336.75 L437.35 344.25 430.7 349.0 428.65 350.4 Q426.35 351.95 426.35 355.35 L430.1 364.75 Q430.1 366.75 428.1 368.35 427.3 369.05 423.75 371.05 417.35 374.65 417.35 379.5 417.35 381.8 418.85 384.75 420.35 387.65 420.35 390.35 420.35 391.6 419.35 394.3 L418.65 396.45 Q418.35 397.55 418.35 398.25 418.35 400.2 419.15 401.25 M117.5 376.0 L117.5 376.5 123.0 376.5 117.5 376.0" fill="#e6ebff" fill-rule="evenodd" stroke="none"/>
      <path d="M477.7 401.5 L457.55 400.65 440.0 399.55 441.65 394.95 450.05 361.8 450.15 361.25 451.65 353.8 451.85 352.6 452.0 351.8 452.2 350.9 452.35 350.0 452.35 349.1 452.4 349.0 Q455.35 341.6 457.3 332.05 L457.65 330.0 Q460.25 315.05 462.35 307.25 462.65 306.1 472.4 283.15 481.35 262.15 481.35 257.75 481.35 254.0 480.1 254.0 460.15 253.3 380.9 253.65 L305.35 254.0 291.85 252.75 217.95 252.55 178.0 252.4 Q47.15 251.95 27.0 251.5 9.7 251.5 2.45 252.1 L-1.0 252.5 -1.8 252.7 Q-2.5 249.7 -2.5 244.75 -2.5 239.35 -1.75 236.5 L-1.0 236.5 1.65 236.4 13.0 235.5 178.0 234.9 217.95 234.75 228.6 234.7 Q230.7 235.5 232.85 235.5 233.95 235.5 235.95 234.7 L284.85 234.45 285.85 234.5 286.45 234.45 310.35 234.25 392.5 232.75 Q482.75 232.75 501.65 234.8 509.1 235.65 509.4 237.1 509.5 237.55 508.9 238.5 508.3 239.5 508.35 240.0 L508.35 251.25 Q508.35 263.9 503.5 284.9 500.45 298.05 492.85 324.55 L491.3 330.0 486.0 349.0 482.2 363.5 Q477.35 383.7 477.35 395.1 L477.35 396.3 477.55 400.9 477.7 401.5" fill="#c4caff" fill-rule="evenodd" stroke="none"/>
      <path d="M-7.0 126.45 L-7.0 110.5 -6.5 110.5 -4.8 110.2 -2.5 110.45 -0.5 110.5 Q85.55 110.5 116.8 104.3 L124.75 102.35 124.8 102.6 Q123.8 110.9 122.0 114.0 117.55 121.7 103.25 122.25 L11.25 125.4 -2.5 126.1 -7.0 126.45" fill="#996a00" fill-rule="evenodd" stroke="none"/>
      <path d="M362.0 308.3 Q361.35 309.05 361.35 310.75 361.35 317.9 365.35 325.4 L368.1 330.15 Q369.35 332.35 369.35 333.25 L369.25 334.55 370.8 334.75 Q371.35 335.1 371.35 336.85 371.35 339.35 369.35 349.25 369.35 351.95 370.7 353.75 L377.35 361.5 375.95 363.75 Q375.25 364.5 373.85 364.5 368.4 364.5 366.05 359.0 L365.65 359.15 355.35 362.8 Q340.35 368.6 340.35 377.6 340.35 381.3 345.8 384.5 352.15 388.25 361.85 388.25 L389.9 388.3 Q400.9 388.05 405.65 386.5 410.85 384.8 413.15 380.15 415.05 376.25 416.35 366.5 L416.45 366.2 416.35 364.75 Q424.35 355.1 424.35 350.25 424.35 345.95 420.85 340.7 417.35 335.45 417.35 334.5 L417.45 332.85 Q415.5 328.75 414.1 321.55 411.6 308.8 409.1 304.75 405.4 307.2 405.5 312.1 405.55 314.85 406.35 320.55 406.35 325.3 402.35 327.6 397.25 330.5 384.35 330.5 L383.8 330.5 383.5 331.05 Q382.95 331.5 381.35 331.5 L378.6 331.0 Q377.8 326.2 374.1 318.7 L366.85 304.75 Q362.7 307.5 362.0 308.3 M379.35 314.05 Q381.7 319.5 383.35 325.05 L388.85 324.5 401.3 323.5 Q399.35 322.8 399.35 321.0 L399.35 313.5 Q398.45 309.45 399.0 306.05 400.1 299.5 407.35 299.5 414.65 299.5 418.45 309.8 420.5 315.35 422.35 324.75 L422.35 331.95 Q426.3 333.5 428.15 340.4 429.35 344.9 429.35 349.6 429.35 354.0 427.15 359.75 424.65 366.15 421.0 367.3 L421.3 368.8 Q421.55 370.45 421.35 372.35 L421.35 378.55 Q420.8 382.7 417.85 385.5 409.4 393.5 379.35 393.5 346.4 393.5 338.1 387.55 335.2 385.45 335.0 382.35 L335.35 377.75 335.45 374.5 334.35 374.5 Q329.35 374.5 327.35 371.0 L326.35 367.25 Q326.35 364.85 328.05 362.05 330.2 358.5 333.35 358.5 338.45 358.5 340.4 361.4 341.1 362.45 341.3 363.6 347.15 359.55 364.65 353.9 L364.4 351.7 364.35 349.1 Q364.35 345.25 365.3 340.5 365.85 337.95 366.45 336.5 360.9 336.05 358.1 323.45 357.2 319.3 356.7 314.4 L356.35 310.1 Q356.35 306.45 359.05 303.2 362.2 299.5 366.85 299.5 373.1 299.5 379.35 314.05 M335.1 363.75 Q332.6 365.1 331.35 367.0 332.65 368.2 335.45 369.15 L336.4 369.5 Q337.05 367.8 338.25 366.35 337.05 365.9 335.1 363.75 M385.35 353.0 L384.95 354.8 Q384.5 355.5 382.85 355.5 379.35 355.5 377.35 343.0 377.1 340.3 377.3 339.25 377.6 337.5 379.85 337.5 381.3 337.5 382.85 343.65 384.9 352.0 385.35 353.0 M391.85 356.5 Q393.55 356.5 394.15 358.25 394.8 360.0 396.85 360.0 399.45 360.0 401.35 356.75 403.25 353.5 405.35 353.5 407.15 353.5 409.0 355.05 411.0 356.8 411.85 357.0 416.35 352.5 416.85 352.5 418.6 352.5 419.05 353.3 419.35 353.9 419.35 356.0 419.35 357.35 417.05 359.75 414.45 362.5 411.85 362.5 410.6 362.5 409.35 361.5 408.1 360.5 406.85 360.5 406.0 360.5 402.25 363.0 398.5 365.5 396.85 365.5 391.75 365.5 389.95 362.5 388.75 360.4 389.35 358.0 L389.95 356.95 Q390.3 356.5 391.85 356.5 M415.35 339.75 L417.35 347.25 417.1 349.5 416.8 350.0 Q416.4 350.5 414.85 350.5 410.75 350.5 410.35 339.1 410.1 336.4 410.3 335.0 410.65 332.5 412.85 332.5 413.25 332.5 415.35 339.75" fill="#000000" fill-rule="evenodd" stroke="none"/>
      <path d="M362.0 308.3 Q362.7 307.5 366.85 304.75 L374.1 318.7 Q377.8 326.2 378.6 331.0 L381.35 331.5 Q382.95 331.5 383.5 331.05 L383.8 330.5 384.35 330.5 Q397.25 330.5 402.35 327.6 406.35 325.3 406.35 320.55 405.55 314.85 405.5 312.1 405.4 307.2 409.1 304.75 411.6 308.8 414.1 321.55 415.5 328.75 417.45 332.85 L417.35 334.5 Q417.35 335.45 420.85 340.7 424.35 345.95 424.35 350.25 424.35 355.1 416.35 364.75 L416.45 366.2 416.35 366.5 Q415.05 376.25 413.15 380.15 410.85 384.8 405.65 386.5 400.9 388.05 389.9 388.3 L361.85 388.25 Q352.15 388.25 345.8 384.5 340.35 381.3 340.35 377.6 340.35 368.6 355.35 362.8 L365.65 359.15 366.05 359.0 Q368.4 364.5 373.85 364.5 375.25 364.5 375.95 363.75 L377.35 361.5 370.7 353.75 Q369.35 351.95 369.35 349.25 371.35 339.35 371.35 336.85 371.35 335.1 370.8 334.75 L369.25 334.55 369.35 333.25 Q369.35 332.35 368.1 330.15 L365.35 325.4 Q361.35 317.9 361.35 310.75 361.35 309.05 362.0 308.3 M415.35 339.75 Q413.25 332.5 412.85 332.5 410.65 332.5 410.3 335.0 410.1 336.4 410.35 339.1 410.75 350.5 414.85 350.5 416.4 350.5 416.8 350.0 L417.1 349.5 417.35 347.25 415.35 339.75 M391.85 356.5 Q390.3 356.5 389.95 356.95 L389.35 358.0 Q388.75 360.4 389.95 362.5 391.75 365.5 396.85 365.5 398.5 365.5 402.25 363.0 406.0 360.5 406.85 360.5 408.1 360.5 409.35 361.5 410.6 362.5 411.85 362.5 414.45 362.5 417.05 359.75 419.35 357.35 419.35 356.0 419.35 353.9 419.05 353.3 418.6 352.5 416.85 352.5 416.35 352.5 411.85 357.0 411.0 356.8 409.0 355.05 407.15 353.5 405.35 353.5 403.25 353.5 401.35 356.75 399.45 360.0 396.85 360.0 394.8 360.0 394.15 358.25 393.55 356.5 391.85 356.5 M385.35 353.0 Q384.9 352.0 382.85 343.65 381.3 337.5 379.85 337.5 377.6 337.5 377.3 339.25 377.1 340.3 377.35 343.0 379.35 355.5 382.85 355.5 384.5 355.5 384.95 354.8 L385.35 353.0 M335.1 363.75 Q337.05 365.9 338.25 366.35 337.05 367.8 336.4 369.5 L335.45 369.15 Q332.65 368.2 331.35 367.0 332.6 365.1 335.1 363.75" fill="#ffdddd" fill-rule="evenodd" stroke="none"/>
      <path d="M152.0 282.5 Q149.5 277.85 149.5 261.75 L149.55 259.0 Q149.7 247.95 151.15 243.45 L150.75 243.25 Q150.5 242.5 150.5 241.05 L150.5 241.0 Q150.5 237.6 163.35 228.0 L167.95 224.7 Q176.95 218.5 180.35 218.5 L181.05 218.55 181.35 218.5 Q191.05 218.5 205.9 222.5 215.25 225.05 218.1 226.35 218.8 224.5 219.85 224.5 222.05 224.5 222.4 237.35 L222.5 240.0 222.35 250.5 222.35 270.75 Q222.35 273.6 218.4 275.8 212.1 279.35 211.1 280.25 L204.95 284.35 Q199.7 287.5 198.35 287.5 196.25 287.5 195.05 286.65 191.1 288.5 183.35 288.5 156.3 288.5 150.5 287.0 148.55 286.5 148.8 285.75 L149.5 284.75 Q149.5 283.75 149.65 283.6 150.1 283.15 151.9 282.9 L152.05 282.9 152.7 282.85 153.4 282.75 Q161.2 282.05 191.35 283.0 191.35 277.0 192.85 266.9 L194.1 259.0 195.35 250.0 195.35 245.8 194.6 245.25 Q194.4 246.0 194.4 244.75 162.15 244.55 153.75 243.8 L153.2 244.35 Q154.1 247.3 154.4 251.75 L154.5 259.0 154.5 261.85 154.25 281.75 152.0 282.5 M87.25 230.25 Q87.5 230.4 87.5 231.85 87.5 233.6 85.75 234.45 84.2 235.2 79.5 236.0 L82.05 237.75 Q83.6 238.6 84.65 239.55 L93.0 239.65 Q95.25 239.8 96.3 240.4 L97.15 239.8 Q103.4 235.4 105.75 230.75 L87.25 230.15 87.1 230.15 87.25 230.25 M117.45 246.45 Q117.05 242.7 114.85 237.05 L113.0 231.55 Q111.15 234.25 106.95 238.5 100.35 245.25 96.75 246.3 L96.4 248.0 Q95.7 254.05 97.5 261.0 99.4 268.8 99.5 280.5 101.95 277.3 107.4 272.0 L108.95 270.5 Q104.9 270.4 103.8 269.25 103.6 269.05 103.55 268.35 L103.0 268.5 Q99.5 261.15 99.5 251.85 99.5 247.0 102.0 245.5 L103.05 246.7 Q103.85 245.3 106.0 243.8 109.3 241.5 111.5 241.5 115.35 241.5 116.3 244.8 L116.6 246.55 116.5 248.35 Q116.5 251.95 114.0 254.75 116.3 255.75 117.1 257.4 117.65 250.45 117.5 247.25 L117.45 246.45 M115.0 224.5 Q121.25 224.5 122.5 237.55 123.15 244.1 122.5 250.85 L122.4 262.5 122.5 263.85 122.3 265.15 122.25 265.5 122.1 265.6 Q120.5 269.6 112.3 277.1 107.0 281.95 100.0 287.5 98.55 287.0 98.2 286.7 L97.65 285.75 82.95 285.15 Q67.5 284.5 67.5 286.0 L73.0 286.5 47.5 285.55 47.5 287.25 45.0 288.5 Q42.4 283.55 41.75 274.9 41.5 271.65 41.5 261.0 41.5 252.45 42.4 247.55 41.5 246.6 41.5 245.0 41.5 243.65 43.55 240.7 46.15 236.95 50.25 233.75 62.15 224.5 80.5 224.5 L112.7 225.9 112.8 225.55 Q113.3 224.5 115.0 224.5 M105.0 251.5 L105.3 253.5 105.45 255.4 107.15 253.5 111.5 248.25 Q111.5 247.5 111.0 247.25 107.0 251.1 105.0 251.5 M105.4 265.8 L112.25 265.0 112.5 260.0 105.5 258.65 105.5 261.35 105.4 265.8 M117.45 263.1 L117.85 262.8 117.5 261.5 117.45 263.1 M82.3 264.0 Q83.45 264.2 84.05 264.55 84.5 264.85 84.5 265.85 84.5 267.25 83.8 267.9 85.1 270.95 86.5 273.0 L86.5 278.25 84.0 279.5 Q80.4 273.35 78.3 268.5 L75.5 268.5 Q67.1 268.5 66.5 267.45 L66.0 268.05 Q58.4 277.5 57.5 277.5 L55.5 277.0 54.7 276.55 Q54.5 276.3 54.5 274.75 54.5 271.5 63.75 261.1 70.75 253.25 76.0 248.5 78.9 252.4 81.25 260.55 L82.3 264.0 M91.5 245.0 L59.25 245.0 46.1 250.1 Q46.6 254.15 46.55 259.4 46.35 272.7 47.5 277.5 L47.5 281.95 Q48.8 281.3 52.05 280.95 61.8 279.9 94.25 281.0 91.5 264.5 91.5 245.0 M157.6 257.25 Q158.65 256.15 158.5 255.0 159.0 254.5 165.5 253.95 L173.85 253.5 Q185.9 253.5 188.8 254.55 L188.85 254.5 190.55 255.15 Q191.35 255.65 191.35 257.25 L191.2 259.0 Q190.65 262.05 188.3 266.25 184.3 273.5 178.35 273.5 171.95 273.5 170.25 271.5 169.05 268.7 167.35 267.0 167.1 268.4 165.25 270.1 163.0 272.25 160.0 272.5 158.55 272.0 158.2 271.7 157.5 271.05 157.5 269.35 159.7 267.85 161.95 265.6 165.1 262.35 166.0 259.0 L166.1 258.5 156.95 258.25 Q156.75 258.15 157.6 257.25 M53.3 238.3 L49.85 241.6 Q57.9 239.55 75.25 239.5 74.5 237.75 74.5 235.25 74.5 232.5 76.3 231.3 77.45 230.5 79.75 230.05 63.0 230.35 53.3 238.3 M70.35 263.95 L75.5 263.5 76.5 263.5 76.4 263.25 Q75.7 260.8 75.5 258.75 L74.75 257.5 Q74.2 257.9 69.8 263.4 L69.15 264.2 70.35 263.95 M211.1 230.25 L211.6 229.75 211.2 229.7 195.5 226.75 192.5 226.1 195.35 227.45 Q200.0 229.9 201.35 231.5 L200.05 233.65 Q199.35 234.5 197.35 234.5 L194.8 233.85 192.65 237.25 190.3 240.0 190.2 240.15 Q194.95 240.6 197.7 241.5 L199.75 240.0 Q205.95 235.4 211.1 230.25 M199.3 281.8 L205.85 280.4 Q216.35 276.5 217.3 259.0 L217.3 258.4 215.85 258.5 Q213.6 258.5 213.05 256.6 212.4 254.05 211.6 253.5 211.45 255.3 211.8 259.0 L212.35 263.35 Q212.35 266.1 211.55 266.75 210.65 267.5 206.85 267.5 202.65 267.5 201.35 266.5 L200.35 264.75 200.35 260.25 200.95 259.9 Q201.4 259.5 202.85 259.5 205.35 259.5 205.35 262.25 L206.85 262.0 206.45 259.0 206.35 255.25 Q205.9 251.5 206.3 250.0 207.0 247.5 211.35 247.5 215.35 247.5 217.15 250.55 L216.9 240.0 216.9 237.95 217.1 232.15 Q215.1 234.85 211.4 238.5 L209.85 240.0 Q204.1 245.3 200.45 246.3 L200.35 246.35 Q200.35 251.85 199.4 259.0 L197.85 268.5 Q197.45 270.5 198.4 274.85 199.35 279.45 199.2 281.35 L199.15 281.8 199.3 281.8 M183.4 223.85 L181.85 223.35 Q178.85 227.1 170.1 232.6 L167.95 233.95 Q162.8 237.2 159.4 239.55 L167.95 239.5 175.35 239.5 184.3 239.7 184.4 239.7 184.35 238.75 Q184.35 237.4 186.9 233.75 L188.75 231.45 Q183.55 229.15 182.6 228.25 182.35 229.25 182.35 226.75 182.35 225.05 183.15 224.7 L185.8 224.5 183.4 223.85 M185.3 259.0 L185.5 258.4 173.85 258.5 171.3 258.5 171.35 259.0 171.65 261.75 Q172.4 268.0 177.85 268.0 182.3 268.0 184.35 261.75 L185.3 259.0" fill="#000000" fill-rule="evenodd" stroke="none"/>
      <path d="M152.05 282.9 L152.0 282.5 154.25 281.75 154.5 261.85 154.5 259.0 154.4 251.75 Q154.1 247.3 153.2 244.35 L153.75 243.8 Q162.15 244.55 194.4 244.75 194.4 246.0 194.6 245.25 L195.35 245.8 195.35 250.0 194.1 259.0 192.85 266.9 Q191.35 277.0 191.35 283.0 161.2 282.05 153.4 282.75 L152.7 282.85 152.05 282.9 M87.25 230.25 L87.25 230.15 105.75 230.75 Q103.4 235.4 97.15 239.8 L96.3 240.4 Q95.25 239.8 93.0 239.65 L84.65 239.55 Q83.6 238.6 82.05 237.75 L79.5 236.0 Q84.2 235.2 85.75 234.45 87.5 233.6 87.5 231.85 87.5 230.4 87.25 230.25 M53.3 238.3 Q63.0 230.35 79.75 230.05 77.45 230.5 76.3 231.3 74.5 232.5 74.5 235.25 74.5 237.75 75.25 239.5 57.9 239.55 49.85 241.6 L53.3 238.3 M157.6 257.25 Q156.75 258.15 156.95 258.25 L166.1 258.5 166.0 259.0 Q165.1 262.35 161.95 265.6 159.7 267.85 157.5 269.35 157.5 271.05 158.2 271.7 158.55 272.0 160.0 272.5 163.0 272.25 165.25 270.1 167.1 268.4 167.35 267.0 169.05 268.7 170.25 271.5 171.95 273.5 178.35 273.5 184.3 273.5 188.3 266.25 190.65 262.05 191.2 259.0 L191.35 257.25 Q191.35 255.65 190.55 255.15 L188.85 254.5 188.8 254.55 Q185.9 253.5 173.85 253.5 L165.5 253.95 Q159.0 254.5 158.5 255.0 158.65 256.15 157.6 257.25 M185.3 259.0 L184.35 261.75 Q182.3 268.0 177.85 268.0 172.4 268.0 171.65 261.75 L171.35 259.0 171.3 258.5 173.85 258.5 185.5 258.4 185.3 259.0" fill="#a2ffc7" fill-rule="evenodd" stroke="none"/>
      <path d="M116.6 246.55 L116.3 244.8 Q115.35 241.5 111.5 241.5 109.3 241.5 106.0 243.8 103.85 245.3 103.05 246.7 L102.0 245.5 Q99.5 247.0 99.5 251.85 99.5 261.15 103.0 268.5 L103.55 268.35 Q103.6 269.05 103.8 269.25 104.9 270.4 108.95 270.5 L107.4 272.0 Q101.95 277.3 99.5 280.5 99.4 268.8 97.5 261.0 95.7 254.05 96.4 248.0 L96.75 246.3 Q100.35 245.25 106.95 238.5 111.15 234.25 113.0 231.55 L114.85 237.05 Q117.05 242.7 117.45 246.45 L116.6 246.55 M105.4 265.8 L105.5 261.35 105.5 258.65 112.5 260.0 112.25 265.0 105.4 265.8 M105.0 251.5 Q107.0 251.1 111.0 247.25 111.5 247.5 111.5 248.25 L107.15 253.5 105.45 255.4 105.3 253.5 105.0 251.5" fill="#ffeca2" fill-rule="evenodd" stroke="none"/>
      <path d="M91.5 245.0 Q91.5 264.5 94.25 281.0 61.8 279.9 52.05 280.95 48.8 281.3 47.5 281.95 L47.5 277.5 Q46.35 272.7 46.55 259.4 46.6 254.15 46.1 250.1 L59.25 245.0 91.5 245.0 M82.3 264.0 L81.25 260.55 Q78.9 252.4 76.0 248.5 70.75 253.25 63.75 261.1 54.5 271.5 54.5 274.75 54.5 276.3 54.7 276.55 L55.5 277.0 57.5 277.5 Q58.4 277.5 66.0 268.05 L66.5 267.45 Q67.1 268.5 75.5 268.5 L78.3 268.5 Q80.4 273.35 84.0 279.5 L86.5 278.25 86.5 273.0 Q85.1 270.95 83.8 267.9 84.5 267.25 84.5 265.85 84.5 264.85 84.05 264.55 83.45 264.2 82.3 264.0 M70.35 263.95 L69.8 263.4 Q74.2 257.9 74.75 257.5 L75.5 258.75 Q75.7 260.8 76.4 263.25 L75.5 263.5 70.35 263.95" fill="#a3acfe" fill-rule="evenodd" stroke="none"/>
      <path d="M199.2 281.35 Q199.35 279.45 198.4 274.85 197.45 270.5 197.85 268.5 L199.4 259.0 Q200.35 251.85 200.35 246.35 L200.45 246.3 Q204.1 245.3 209.85 240.0 L211.4 238.5 Q215.1 234.85 217.1 232.15 L216.9 237.95 216.9 240.0 217.15 250.55 Q215.35 247.5 211.35 247.5 207.0 247.5 206.3 250.0 205.9 251.5 206.35 255.25 L206.45 259.0 206.85 262.0 205.35 262.25 Q205.35 259.5 202.85 259.5 201.4 259.5 200.95 259.9 L200.35 260.25 200.35 264.75 201.35 266.5 Q202.65 267.5 206.85 267.5 210.65 267.5 211.55 266.75 212.35 266.1 212.35 263.35 L211.8 259.0 Q211.45 255.3 211.6 253.5 212.4 254.05 213.05 256.6 213.6 258.5 215.85 258.5 L217.3 258.4 217.3 259.0 Q216.35 276.5 205.85 280.4 L199.3 281.8 199.2 281.35" fill="#ff7777" fill-rule="evenodd" stroke="none"/>
      <path d="M211.2 229.7 L211.1 230.25 Q205.95 235.4 199.75 240.0 L197.7 241.5 Q194.95 240.6 190.2 240.15 L190.3 240.0 192.65 237.25 194.8 233.85 197.35 234.5 Q199.35 234.5 200.05 233.65 L201.35 231.5 Q200.0 229.9 195.35 227.45 L195.5 226.75 211.2 229.7 M184.3 239.7 L175.35 239.5 167.95 239.5 159.4 239.55 Q162.8 237.2 167.95 233.95 L170.1 232.6 Q178.85 227.1 181.85 223.35 L183.4 223.85 183.15 224.7 Q182.35 225.05 182.35 226.75 182.35 229.25 182.6 228.25 183.55 229.15 188.75 231.45 L186.9 233.75 Q184.35 237.4 184.35 238.75 L184.3 239.7" fill="#9277ff" fill-rule="evenodd" stroke="none"/>
    </g>
  </defs>
</svg>
