<?xml version="1.0" encoding="UTF-8" standalone="no"?>
<svg xmlns:xlink="http://www.w3.org/1999/xlink" height="842.55px" width="1337.95px" xmlns="http://www.w3.org/2000/svg">
  <g transform="matrix(1, 0, 0, 1, 407.45, 285.05)">
    <use height="4.5" transform="matrix(5.4867, 0.0, 0.0, 81.5667, 3.2875, 23.0167)" width="99.75" xlink:href="#shape0"/>
    <use height="457.15" transform="matrix(1.0, 0.0, 0.0, 1.0, -90.75, -10.7)" width="649.25" xlink:href="#shape1"/>
  </g>
  <defs>
    <g id="shape0" transform="matrix(1, 0, 0, 1, 49.85, -2.5)">
      <path d="M49.9 7.0 L-49.85 7.0 -49.85 2.5 49.9 2.5 49.9 7.0" fill="#ffffff" fill-rule="evenodd" stroke="none"/>
    </g>
    <g id="shape1" transform="matrix(1, 0, 0, 1, 90.75, 10.7)">
      <path d="M70.0 -10.3 L69.7 -10.5 70.2 -10.6 70.0 -10.3 M68.4 -10.3 Q65.7 -6.55 65.1 31.2 64.7 52.1 65.05 73.3 64.6 94.45 65.1 115.4 65.3 125.65 65.75 133.4 L-34.85 133.4 Q-38.85 135.05 -38.85 137.65 -38.85 138.45 -37.8 139.2 L-34.85 141.35 66.35 141.45 Q66.9 147.65 67.7 151.45 L-14.35 151.4 -34.85 151.0 Q-35.35 151.95 -35.9 151.95 -36.55 151.95 -37.05 150.95 L-39.6 150.9 Q-39.9 151.95 -39.9 149.3 L-41.1 147.45 Q-41.6 146.55 -38.55 146.15 L-38.3 146.1 Q-40.9 130.35 -39.9 72.3 -40.9 14.05 -38.3 -1.7 L-39.6 -1.7 Q-39.9 -0.65 -39.9 -3.3 -39.9 -4.0 -41.1 -5.1 -41.6 -6.0 -38.5 -6.4 L-37.0 -6.6 Q-36.5 -7.55 -35.9 -7.55 -34.95 -7.55 -34.15 -6.8 -22.1 -7.55 14.95 -7.55 46.25 -7.55 63.4 -9.6 L66.0 -9.95 Q66.4 -10.7 66.9 -10.7 67.3 -10.75 67.65 -10.2 L68.4 -10.3 M552.45 151.7 L548.95 151.45 402.85 151.45 402.6 151.15 Q403.25 147.85 403.75 141.75 L547.05 141.9 550.55 142.45 552.9 142.2 552.9 146.15 552.65 150.9 552.45 151.7 M552.9 134.15 Q551.3 133.5 548.95 133.4 L404.25 133.4 Q405.15 112.65 404.55 72.05 L404.55 31.15 Q405.4 15.25 405.3 6.15 405.2 -2.95 403.85 -7.15 L404.15 -7.3 Q406.2 -8.6 409.4 -9.2 L423.45 -9.9 445.85 -9.2 Q463.35 -8.6 478.45 -8.6 551.05 -8.6 552.9 -8.05 554.1 -7.3 554.5 -6.5 L554.85 -6.2 555.05 -4.45 Q555.0 8.5 553.95 35.35 552.9 62.15 552.9 76.2 L552.9 134.15" fill="#e1ffd5" fill-rule="evenodd" stroke="none"/>
      <path d="M69.7 -10.5 L70.0 -10.3 Q71.3 -9.15 72.15 -4.8 73.6 2.9 73.7 20.6 73.8 37.8 72.95 70.9 72.95 85.2 74.55 112.6 L75.65 133.4 237.1 133.4 Q236.7 125.5 236.55 114.6 L236.55 72.85 Q236.25 51.2 236.55 31.15 237.2 -8.6 240.55 -8.6 245.15 -8.6 245.25 7.55 245.35 16.35 244.5 32.5 L244.5 72.6 Q245.15 113.05 244.2 133.4 L397.1 133.4 396.6 114.85 396.6 72.3 Q396.25 50.3 396.6 29.9 397.05 -1.3 399.15 -8.55 399.8 -10.7 400.55 -10.7 402.25 -10.75 403.35 -8.35 L403.85 -7.15 Q405.2 -2.95 405.3 6.15 405.4 15.25 404.55 31.15 L404.55 72.05 Q405.15 112.65 404.25 133.4 L548.95 133.4 Q551.3 133.5 552.9 134.15 556.1 135.35 556.1 138.55 556.1 141.45 552.9 142.2 L550.55 142.45 547.05 141.9 403.75 141.75 Q403.25 147.85 402.6 151.15 L402.5 151.45 402.85 151.45 548.95 151.45 552.45 151.7 553.65 151.95 554.25 151.45 Q559.7 151.45 558.2 158.35 558.2 163.65 553.25 204.4 L551.45 219.5 Q544.2 278.0 540.2 299.8 535.5 324.8 532.6 354.05 531.3 367.15 529.05 398.25 527.45 420.25 526.0 428.1 L525.85 428.85 Q523.7 439.0 519.8 439.0 515.25 439.0 515.25 435.3 515.25 433.85 515.8 428.85 L515.95 427.2 Q514.7 426.65 513.45 425.4 513.45 424.35 407.5 424.35 L406.45 428.85 Q402.05 446.4 398.45 446.45 L396.25 446.05 394.75 445.1 Q394.45 444.55 394.45 441.95 394.45 439.7 396.15 428.85 398.65 412.85 404.85 378.25 L414.85 323.3 396.7 323.35 388.4 335.6 Q375.5 354.15 273.0 357.8 269.75 366.05 268.1 372.4 261.75 396.45 254.95 415.65 252.2 423.35 249.85 428.85 244.05 442.2 240.55 442.2 237.6 442.15 236.85 440.1 236.55 439.4 236.55 437.7 236.55 436.5 239.35 428.85 L241.9 421.9 202.5 421.8 Q149.4 421.45 99.2 420.1 98.95 421.15 98.95 418.5 98.95 416.6 100.0 415.55 L100.0 415.35 110.75 397.55 Q122.6 377.1 132.95 355.1 L106.75 354.65 Q105.4 355.4 98.4 356.15 84.45 357.55 47.3 357.55 1.35 357.55 -27.85 351.85 L-35.9 362.95 -39.1 367.1 Q-43.1 367.1 -43.05 363.4 -43.1 362.5 -35.9 351.75 L-34.95 350.3 -35.9 350.05 Q-58.35 344.55 -69.05 335.05 -77.35 327.6 -78.25 317.75 -78.55 314.6 -78.05 310.75 L-77.5 306.0 Q-77.55 294.4 -64.1 277.25 L-52.65 263.0 Q-46.1 254.6 -42.8 248.4 -39.4 241.9 -35.9 236.3 -31.05 228.35 -26.1 222.1 L-35.9 221.8 -47.85 221.4 -67.55 249.6 Q-84.0 272.8 -86.25 272.8 -90.8 272.75 -90.75 269.05 -90.75 268.45 -78.1 250.3 -64.2 230.25 -49.65 210.3 L-35.9 191.7 Q-18.9 168.95 -10.25 159.4 L-30.6 159.4 -33.6 157.2 Q-34.6 156.45 -34.6 155.65 L-34.6 155.4 Q-34.4 153.0 -30.6 151.45 L-14.35 151.4 67.7 151.45 Q66.9 147.65 66.35 141.45 L-34.85 141.35 -37.8 139.2 Q-38.85 138.45 -38.85 137.65 -38.85 135.05 -34.85 133.4 L65.75 133.4 Q65.3 125.65 65.1 115.4 64.6 94.45 65.05 73.3 64.7 52.1 65.1 31.2 65.7 -6.55 68.4 -10.3 68.65 -10.7 69.0 -10.7 L69.7 -10.5 M547.05 159.9 L450.95 159.85 Q449.8 169.45 442.1 214.3 458.85 215.0 542.55 216.1 L543.45 216.15 544.65 206.7 Q548.65 173.7 551.3 160.4 L547.05 159.9 M332.65 186.05 Q330.8 192.9 329.3 198.9 400.25 200.05 417.0 201.25 428.8 201.95 428.35 212.4 428.1 220.0 429.35 235.7 L431.4 222.5 Q430.65 221.8 430.5 221.1 L430.5 217.95 Q430.15 216.3 430.5 214.8 430.95 212.55 433.0 212.0 L433.75 207.65 Q439.3 173.15 443.15 159.85 L339.45 159.75 332.65 186.05 M397.6 141.75 L243.65 141.6 Q243.05 148.35 242.25 151.45 L398.8 151.45 Q398.1 148.1 397.6 141.75 M412.65 209.9 L385.2 209.2 359.8 208.7 334.6 207.6 327.25 207.3 317.9 207.15 Q288.5 206.75 207.15 206.6 L196.7 206.6 146.75 206.55 77.0 205.6 66.3 205.45 15.2 204.45 Q1.4 204.45 -10.1 214.15 -14.2 217.6 -18.0 222.3 L-21.45 226.9 Q-26.4 233.95 -30.85 243.45 L-35.4 253.2 -35.9 254.0 Q-39.75 259.65 -54.85 278.05 -69.6 297.15 -69.6 305.2 -69.6 307.8 -65.85 318.75 -62.15 329.7 -60.55 331.85 -57.55 336.1 -35.9 341.0 L-35.4 341.15 Q-34.65 341.3 -30.5 343.3 L-30.35 343.4 Q-27.9 344.6 -23.25 345.45 L-19.35 346.05 Q4.95 349.35 86.2 349.35 87.6 349.35 89.9 348.6 92.2 347.8 93.5 347.75 L114.4 346.45 136.9 346.5 146.9 346.55 Q196.3 346.9 199.4 348.45 199.85 348.65 200.15 349.15 200.6 349.55 202.7 349.8 208.4 350.4 233.4 350.4 240.5 350.4 240.05 349.6 L270.8 348.4 276.9 348.2 Q298.65 347.6 332.2 346.95 344.6 346.7 351.1 344.1 354.45 342.8 356.3 341.4 365.35 339.4 374.35 334.5 382.45 330.0 383.85 327.1 384.35 326.1 386.2 323.3 L391.9 314.75 392.8 313.45 Q399.25 303.9 401.6 296.9 405.0 286.6 409.3 277.25 L415.6 264.1 Q421.5 251.55 421.5 236.85 420.6 222.95 420.45 215.8 420.4 211.3 418.85 210.5 L412.65 209.9 M424.9 264.6 L423.85 267.25 417.15 281.7 Q412.05 292.55 408.0 303.0 406.05 307.85 402.55 314.0 L412.9 312.95 416.8 312.45 419.65 296.65 Q421.55 286.2 424.9 264.6 M440.55 223.25 L426.8 302.2 Q422.75 326.05 413.45 392.2 411.1 406.65 409.0 417.3 L459.9 416.4 Q495.15 416.4 513.7 414.15 L517.45 413.7 522.4 373.55 Q529.7 315.8 533.55 292.4 535.25 282.15 542.55 223.6 532.85 224.0 488.5 224.05 L459.45 223.65 440.55 223.25 M255.95 81.5 Q258.1 80.4 266.5 80.45 275.65 80.4 277.95 82.35 278.6 82.9 278.65 83.7 L278.4 84.5 Q278.4 87.2 276.35 87.85 L266.5 88.4 Q257.0 88.35 254.9 86.7 254.2 86.1 254.3 85.4 L254.55 84.65 Q254.55 82.15 255.95 81.5 M224.95 82.35 Q225.4 82.85 225.4 84.5 225.4 87.1 223.35 87.85 L216.15 88.4 Q208.95 88.35 207.2 86.7 206.85 86.35 206.85 84.65 206.85 82.25 208.25 81.5 210.05 80.4 216.15 80.45 223.1 80.4 224.95 82.35 M211.2 197.45 L211.4 197.45 319.1 198.75 Q320.85 186.6 321.95 181.25 324.85 166.9 328.35 159.75 L225.5 159.6 225.4 161.35 Q225.4 164.7 211.2 197.45 M218.25 159.6 L109.35 159.5 Q104.1 167.4 83.65 196.25 127.95 196.55 200.65 197.35 213.05 168.45 218.25 159.6 M237.65 141.6 L75.95 141.45 76.15 151.45 239.0 151.45 Q238.15 148.35 237.65 141.6 M-35.9 214.05 L-27.45 213.95 -19.1 214.0 Q-12.35 207.05 -5.45 203.1 2.5 198.55 11.9 197.0 L29.25 195.95 72.95 196.15 Q91.9 170.0 100.4 159.5 L0.5 159.4 Q-3.3 165.2 -16.9 182.05 L-35.9 205.7 -42.7 214.25 -35.9 214.05 M138.6 366.95 Q122.4 404.95 111.65 415.15 L174.3 414.25 Q218.2 414.25 241.85 411.25 L246.2 410.65 258.85 378.45 267.0 357.95 Q244.85 358.6 218.8 358.65 L207.3 357.75 194.15 356.25 Q193.35 356.1 143.4 355.3 L138.6 366.95" fill="#000000" fill-rule="evenodd" stroke="none"/>
      <path d="M402.85 151.45 L402.5 151.45 402.6 151.15 402.85 151.45 M403.85 -7.15 L403.35 -8.35 403.5 -8.3 404.15 -7.3 403.85 -7.15 M399.15 -8.55 Q397.05 -1.3 396.6 29.9 396.25 50.3 396.6 72.3 L396.6 114.85 397.1 133.4 244.2 133.4 Q245.15 113.05 244.5 72.6 L244.5 32.5 Q245.35 16.35 245.25 7.55 245.15 -8.6 240.55 -8.6 237.2 -8.6 236.55 31.15 236.25 51.2 236.55 72.85 L236.55 114.6 Q236.7 125.5 237.1 133.4 L75.65 133.4 74.55 112.6 Q72.95 85.2 72.95 70.9 73.8 37.8 73.7 20.6 73.6 2.9 72.15 -4.8 73.0 -10.75 74.3 -10.7 365.8 -9.4 399.15 -8.55 M397.6 141.75 Q398.1 148.1 398.8 151.45 L242.25 151.45 Q243.05 148.35 243.65 141.6 L397.6 141.75 M224.95 82.35 Q223.1 80.4 216.15 80.45 210.05 80.4 208.25 81.5 206.85 82.25 206.85 84.65 206.85 86.35 207.2 86.7 208.95 88.35 216.15 88.4 L223.35 87.85 Q225.4 87.1 225.4 84.5 225.4 82.85 224.95 82.35 M255.95 81.5 Q254.55 82.15 254.55 84.65 L254.3 85.4 Q254.2 86.1 254.9 86.7 257.0 88.35 266.5 88.4 L276.35 87.85 Q278.4 87.2 278.4 84.5 L278.65 83.7 Q278.6 82.9 277.95 82.35 275.65 80.4 266.5 80.45 258.1 80.4 255.95 81.5 M237.65 141.6 Q238.15 148.35 239.0 151.45 L76.15 151.45 75.95 141.45 237.65 141.6" fill="#cc8e00" fill-rule="evenodd" stroke="none"/>
      <path d="M-34.6 155.4 L-34.6 155.65 Q-34.6 156.45 -33.6 157.2 L-30.6 159.4 -10.25 159.4 Q-18.9 168.95 -35.9 191.7 L-35.9 155.4 -34.6 155.4 M-35.9 221.8 L-26.1 222.1 Q-31.05 228.35 -35.9 236.3 L-35.9 221.8 M-35.9 350.05 L-34.95 350.3 -35.9 351.75 -35.9 350.05 M-35.9 362.95 L-27.85 351.85 Q1.35 357.55 47.3 357.55 84.45 357.55 98.4 356.15 105.4 355.4 106.75 354.65 L132.95 355.1 Q122.6 377.1 110.75 397.55 L100.0 415.35 100.0 415.55 Q98.95 416.6 98.95 418.5 98.95 421.15 99.2 420.1 149.4 421.45 202.5 421.8 L241.9 421.9 239.35 428.85 -35.9 428.85 -35.9 362.95 M249.85 428.85 Q252.2 423.35 254.95 415.65 261.75 396.45 268.1 372.4 269.75 366.05 273.0 357.8 375.5 354.15 388.4 335.6 L396.7 323.35 414.85 323.3 404.85 378.25 Q398.65 412.85 396.15 428.85 L249.85 428.85 M406.45 428.85 L407.5 424.35 Q513.45 424.35 513.45 425.4 514.7 426.65 515.95 427.2 L515.8 428.85 406.45 428.85 M525.85 428.85 L526.0 428.1 Q527.45 420.25 529.05 398.25 531.3 367.15 532.6 354.05 535.5 324.8 540.2 299.8 544.2 278.0 551.45 219.5 L553.25 204.4 553.25 428.85 525.85 428.85 M332.65 186.05 L339.45 159.75 443.15 159.85 Q439.3 173.15 433.75 207.65 L433.0 212.0 Q430.95 212.55 430.5 214.8 430.15 216.3 430.5 217.95 L430.5 221.1 Q430.65 221.8 431.4 222.5 L429.35 235.7 Q428.1 220.0 428.35 212.4 428.8 201.95 417.0 201.25 400.25 200.05 329.3 198.9 330.8 192.9 332.65 186.05 M547.05 159.9 L551.3 160.4 Q548.65 173.7 544.65 206.7 L543.45 216.15 542.55 216.1 Q458.85 215.0 442.1 214.3 449.8 169.45 450.95 159.85 L547.05 159.9 M440.55 223.25 L459.45 223.65 488.5 224.05 Q532.85 224.0 542.55 223.6 535.25 282.15 533.55 292.4 529.7 315.8 522.4 373.55 L517.45 413.7 513.7 414.15 Q495.15 416.4 459.9 416.4 L409.0 417.3 Q411.1 406.65 413.45 392.2 422.75 326.05 426.8 302.2 L440.55 223.25 M424.9 264.6 Q421.55 286.2 419.65 296.65 L416.8 312.45 412.9 312.95 402.55 314.0 Q406.05 307.85 408.0 303.0 412.05 292.55 417.15 281.7 L423.85 267.25 424.9 264.6 M218.25 159.6 Q213.05 168.45 200.65 197.35 127.95 196.55 83.65 196.25 104.1 167.4 109.35 159.5 L218.25 159.6 M211.2 197.45 Q225.4 164.7 225.4 161.35 L225.5 159.6 328.35 159.75 Q324.85 166.9 321.95 181.25 320.85 186.6 319.1 198.75 L211.4 197.45 211.2 197.45 M-35.9 205.7 L-16.9 182.05 Q-3.3 165.2 0.5 159.4 L100.4 159.5 Q91.9 170.0 72.95 196.15 L29.25 195.95 11.9 197.0 Q2.5 198.55 -5.45 203.1 -12.35 207.05 -19.1 214.0 L-27.45 213.95 -35.9 214.05 -35.9 205.7 M138.6 366.95 L143.4 355.3 Q193.35 356.1 194.15 356.25 L207.3 357.75 218.8 358.65 Q244.85 358.6 267.0 357.95 L258.85 378.45 246.2 410.65 241.85 411.25 Q218.2 414.25 174.3 414.25 L111.65 415.15 Q122.4 404.95 138.6 366.95" fill="#ffe8e6" fill-rule="evenodd" stroke="none"/>
      <path d="M412.65 209.9 L418.85 210.5 Q420.4 211.3 420.45 215.8 420.6 222.95 421.5 236.85 421.5 251.55 415.6 264.1 L409.3 277.25 Q405.0 286.6 401.6 296.9 399.25 303.9 392.8 313.45 L391.9 314.75 386.2 323.3 Q384.35 326.1 383.85 327.1 382.45 330.0 374.35 334.5 365.35 339.4 356.3 341.4 354.45 342.8 351.1 344.1 344.6 346.7 332.2 346.95 298.65 347.6 276.9 348.2 L270.8 348.4 240.05 349.6 Q240.5 350.4 233.4 350.4 208.4 350.4 202.7 349.8 200.6 349.55 200.15 349.15 199.85 348.65 199.4 348.45 196.3 346.9 146.9 346.55 L136.9 346.5 114.4 346.45 93.5 347.75 Q92.2 347.8 89.9 348.6 87.6 349.35 86.2 349.35 4.95 349.35 -19.35 346.05 L-23.25 345.45 Q-27.9 344.6 -30.35 343.4 L-30.5 343.3 Q-34.65 341.3 -35.4 341.15 L-35.9 341.0 Q-57.55 336.1 -60.55 331.85 -62.15 329.7 -65.85 318.75 -69.6 307.8 -69.6 305.2 -69.6 297.15 -54.85 278.05 -39.75 259.65 -35.9 254.0 L-35.4 253.2 -30.85 243.45 Q-26.4 233.95 -21.45 226.9 L-18.0 222.3 Q-14.2 217.6 -10.1 214.15 1.4 204.45 15.2 204.45 L66.3 205.45 77.0 205.6 146.75 206.55 196.7 206.6 207.15 206.6 Q288.5 206.75 317.9 207.15 L327.25 207.3 334.6 207.6 359.8 208.7 385.2 209.2 412.65 209.9 M406.95 224.05 Q408.2 222.85 408.25 221.2 408.2 217.1 404.25 217.15 402.85 217.15 401.7 218.2 400.3 219.4 400.3 221.4 400.3 225.1 404.25 225.1 405.75 225.1 406.95 224.05 M331.95 318.75 Q331.95 317.0 331.25 316.0 330.25 314.65 327.95 314.65 326.5 314.65 325.35 315.7 L325.0 316.05 Q324.0 317.2 324.0 318.9 324.0 322.6 327.95 322.6 329.45 322.6 330.65 321.55 331.9 320.4 331.95 318.75 M372.0 309.9 Q373.25 308.7 373.25 307.05 373.25 302.95 369.3 303.0 367.85 302.95 366.7 304.05 365.3 305.25 365.35 307.2 365.3 310.9 369.3 310.95 370.75 310.95 372.0 309.9 M400.6 273.85 Q401.85 272.7 401.9 271.05 401.85 266.95 397.9 266.95 396.45 266.95 395.3 268.0 393.9 269.2 393.95 271.2 393.95 274.9 397.9 274.9 399.4 274.9 400.6 273.85 M360.0 272.25 Q360.0 275.95 364.0 275.95 365.5 275.95 366.7 274.9 367.95 273.75 367.95 272.1 367.95 268.0 364.0 268.0 362.55 268.0 361.4 269.05 360.0 270.25 360.0 272.25 M340.65 244.7 Q339.25 244.7 338.1 245.75 336.7 246.95 336.7 248.95 336.7 252.65 340.65 252.65 342.15 252.65 343.35 251.6 344.65 250.45 344.65 248.8 344.65 244.7 340.65 244.7 M349.75 213.95 Q348.35 215.15 348.35 217.15 348.35 220.85 352.35 220.85 353.75 220.85 355.0 219.8 356.3 218.7 356.3 217.0 356.2 212.9 352.35 212.9 350.9 212.9 349.75 213.95 M376.7 237.25 Q375.25 237.25 374.1 238.35 372.7 239.55 372.75 241.5 372.75 245.2 376.7 245.25 378.2 245.2 379.4 244.15 380.65 243.05 380.7 241.35 380.65 237.25 376.7 237.25 M91.6 316.75 Q90.2 316.75 89.05 317.85 87.65 319.05 87.65 321.0 87.65 324.7 91.6 324.7 93.05 324.7 94.3 323.65 95.6 322.55 95.6 320.85 95.5 316.75 91.6 316.75 M143.1 311.45 Q141.8 312.55 141.7 314.25 L141.7 314.65 Q141.7 318.35 145.7 318.35 147.1 318.35 148.3 317.3 149.5 316.3 149.65 314.8 L149.65 314.5 Q149.55 310.4 145.7 310.4 144.25 310.4 143.1 311.45 M36.65 338.5 Q38.15 338.5 39.35 337.45 40.65 336.3 40.65 334.6 40.65 330.5 36.65 330.55 35.2 330.5 34.05 331.6 32.7 332.8 32.7 334.8 32.7 338.5 36.65 338.5 M57.1 309.35 Q57.05 313.05 61.05 313.05 62.45 313.05 63.7 312.0 65.0 310.9 65.05 309.2 64.9 306.0 62.55 305.3 L61.05 305.1 59.75 305.3 58.4 306.15 Q57.05 307.35 57.1 309.35 M50.45 262.7 Q48.95 262.7 47.8 263.8 46.45 265.0 46.5 266.95 46.5 270.65 50.45 270.65 51.95 270.65 53.15 269.6 54.4 268.5 54.4 266.8 54.4 262.7 50.45 262.7 M11.75 290.3 Q10.45 291.5 10.45 293.45 10.45 295.7 11.9 296.6 12.85 297.15 14.4 297.15 15.9 297.15 17.1 296.1 18.4 294.95 18.4 293.3 18.4 290.7 16.8 289.8 15.85 289.2 14.4 289.2 12.9 289.2 11.75 290.3 M7.8 243.45 Q7.65 239.35 3.8 239.4 2.35 239.4 1.2 240.45 -0.15 241.65 -0.15 243.65 -0.15 247.35 3.8 247.35 5.2 247.35 6.5 246.3 7.8 245.05 7.8 243.45 M43.3 240.45 Q43.3 244.15 47.3 244.15 48.75 244.15 50.0 243.1 51.25 241.95 51.25 240.3 51.25 236.2 47.3 236.25 45.8 236.2 44.6 237.25 43.25 238.5 43.3 240.45 M51.25 217.0 L51.05 215.45 Q50.4 212.9 47.3 212.9 45.8 212.9 44.6 213.95 44.0 214.5 43.7 215.25 43.3 216.1 43.3 217.15 43.3 220.85 47.3 220.85 48.75 220.85 50.0 219.8 51.25 218.7 51.25 217.0 M160.05 279.65 Q158.65 280.9 158.65 282.85 158.65 286.4 162.3 286.55 L162.65 286.55 Q164.1 286.55 165.35 285.5 166.6 284.35 166.6 282.7 166.6 280.55 165.5 279.55 164.5 278.6 162.65 278.6 161.2 278.6 160.05 279.65 M141.45 261.65 Q140.0 261.65 138.85 262.7 137.45 263.95 137.45 265.9 137.45 269.6 141.45 269.6 142.9 269.6 144.15 268.55 145.4 267.35 145.4 265.75 145.4 261.65 141.45 261.65 M113.9 281.8 Q112.45 281.8 111.3 282.85 109.9 284.05 109.9 286.05 109.9 289.75 113.9 289.75 115.3 289.7 116.55 288.65 117.85 287.55 117.85 285.85 117.75 281.75 113.9 281.8 M88.7 251.05 Q88.7 254.75 92.7 254.75 94.15 254.75 95.4 253.7 96.65 252.55 96.65 250.9 96.65 246.8 92.7 246.8 91.25 246.8 90.1 247.9 88.7 249.1 88.7 251.05 M100.1 226.15 Q101.6 226.15 102.8 225.1 104.05 223.95 104.1 222.3 104.05 218.2 100.1 218.2 98.65 218.2 97.5 219.25 96.1 220.45 96.15 222.45 96.15 226.15 100.1 226.15 M134.3 236.25 Q134.3 239.95 138.25 239.95 139.75 239.9 140.95 238.85 142.2 237.75 142.25 236.05 142.2 231.95 138.25 232.0 136.8 231.95 135.65 233.05 134.25 234.25 134.3 236.25 M253.3 332.65 Q251.9 333.85 251.95 335.85 251.9 339.55 255.9 339.55 257.35 339.55 258.6 338.5 259.85 337.3 259.9 335.7 259.85 331.6 255.9 331.6 254.45 331.6 253.3 332.65 M291.4 319.4 Q292.7 318.25 292.75 316.6 292.7 315.45 292.35 314.65 291.5 312.5 288.75 312.55 287.3 312.5 286.15 313.6 284.75 314.8 284.75 316.75 284.75 320.45 288.75 320.45 290.15 320.45 291.4 319.4 M171.1 327.35 Q169.65 327.35 168.5 328.45 167.1 329.65 167.15 331.6 167.15 335.3 171.1 335.3 172.55 335.3 173.75 334.25 175.05 333.15 175.1 331.45 174.95 327.35 171.1 327.35 M219.85 336.4 Q221.35 336.35 222.55 335.3 223.8 334.15 223.85 332.5 223.8 328.4 219.85 328.45 218.45 328.4 217.3 329.5 215.9 330.7 215.9 332.65 215.9 336.35 219.85 336.4 M203.5 309.9 Q204.75 308.7 204.75 307.05 204.75 302.95 200.8 303.0 199.35 302.95 198.2 304.05 196.8 305.25 196.8 307.2 196.8 310.9 200.8 310.95 202.25 310.95 203.5 309.9 M229.65 300.85 Q229.65 304.55 233.65 304.6 235.1 304.55 236.35 303.5 237.6 302.35 237.6 300.7 237.6 296.6 233.65 296.65 232.2 296.6 231.05 297.7 229.65 298.9 229.65 300.85 M196.8 263.8 Q196.8 267.5 200.8 267.5 202.25 267.45 203.5 266.4 204.75 265.3 204.75 263.6 204.75 259.5 200.8 259.55 199.35 259.55 198.2 260.6 196.8 261.8 196.8 263.8 M167.95 220.85 Q169.35 220.85 170.6 219.8 171.9 218.7 171.9 217.0 171.8 212.9 167.95 212.9 166.5 212.9 165.35 213.95 163.95 215.15 163.95 217.15 163.95 220.85 167.95 220.85 M204.55 237.8 Q205.8 236.7 205.85 235.0 205.8 230.9 201.85 230.95 200.4 230.9 199.25 232.0 197.85 233.2 197.85 235.15 197.85 238.85 201.85 238.85 203.3 238.85 204.55 237.8 M225.15 243.65 Q223.7 243.6 222.55 244.7 221.15 245.9 221.2 247.9 221.2 251.6 225.15 251.6 226.6 251.6 227.8 250.55 229.1 249.4 229.15 247.7 229.0 243.6 225.15 243.65 M313.9 276.35 Q313.9 272.25 309.95 272.25 L309.9 272.25 Q308.5 272.25 307.35 273.3 305.95 274.5 306.0 276.5 305.95 278.45 307.05 279.35 308.05 280.2 309.95 280.2 311.4 280.2 312.65 279.15 313.9 278.05 313.9 276.35 M274.5 282.85 Q273.1 284.05 273.1 286.05 273.1 289.75 277.1 289.75 278.55 289.7 279.8 288.65 281.05 287.55 281.05 285.85 281.05 281.75 277.1 281.8 275.65 281.8 274.5 282.85 M250.6 266.4 Q252.0 266.4 253.25 265.35 254.55 264.2 254.55 262.55 254.45 258.45 250.6 258.5 249.15 258.45 248.0 259.55 246.6 260.75 246.65 262.7 246.6 266.4 250.6 266.4 M245.9 227.75 Q244.5 228.95 244.5 230.95 244.5 234.65 248.45 234.65 249.95 234.6 251.15 233.55 252.45 232.4 252.45 230.75 252.45 226.65 248.45 226.7 247.05 226.65 245.9 227.75 M279.2 208.65 Q277.75 208.65 276.6 209.7 275.2 210.9 275.25 212.9 275.2 215.55 277.3 216.3 L279.2 216.6 280.5 216.4 281.85 215.55 Q283.15 214.45 283.2 212.75 283.05 208.65 279.2 208.65 M284.05 246.3 Q285.3 245.1 285.3 243.45 285.3 239.35 281.35 239.4 279.9 239.4 278.75 240.45 277.35 241.65 277.35 243.65 277.35 247.35 281.35 247.35 282.8 247.35 284.05 246.3 M314.2 220.3 Q312.75 220.3 311.6 221.4 310.2 222.6 310.2 224.55 310.2 225.45 310.45 226.15 311.15 228.25 314.2 228.25 L315.0 228.2 Q315.95 227.95 316.85 227.2 318.15 226.05 318.15 224.4 318.05 220.3 314.2 220.3 M-47.05 299.8 Q-48.55 299.8 -49.7 300.85 -51.05 302.05 -51.05 304.05 -51.05 307.75 -47.05 307.75 -45.7 307.75 -44.4 306.7 -43.1 305.45 -43.05 303.9 -43.25 299.8 -47.05 299.8 M-19.25 330.55 Q-19.25 334.25 -15.25 334.25 L-15.15 334.25 Q-13.8 334.2 -12.6 333.2 -11.3 332.05 -11.3 330.4 -11.3 329.65 -11.45 329.1 -12.1 326.3 -15.25 326.3 -16.75 326.3 -17.9 327.35 -19.25 328.55 -19.25 330.55 M-17.9 276.5 Q-19.25 277.7 -19.25 279.65 -19.25 283.35 -15.25 283.4 -13.85 283.4 -12.6 282.35 -11.3 281.2 -11.3 279.5 -11.45 275.4 -15.25 275.45 -16.75 275.4 -17.9 276.5" fill="#bbc9ff" fill-rule="evenodd" stroke="none"/>
      <path d="M406.95 224.05 Q405.75 225.1 404.25 225.1 400.3 225.1 400.3 221.4 400.3 219.4 401.7 218.2 402.85 217.15 404.25 217.15 408.2 217.1 408.25 221.2 408.2 222.85 406.95 224.05 M376.7 237.25 Q380.65 237.25 380.7 241.35 380.65 243.05 379.4 244.15 378.2 245.2 376.7 245.25 372.75 245.2 372.75 241.5 372.7 239.55 374.1 238.35 375.25 237.25 376.7 237.25 M349.75 213.95 Q350.9 212.9 352.35 212.9 356.2 212.9 356.3 217.0 356.3 218.7 355.0 219.8 353.75 220.85 352.35 220.85 348.35 220.85 348.35 217.15 348.35 215.15 349.75 213.95 M340.65 244.7 Q344.65 244.7 344.65 248.8 344.65 250.45 343.35 251.6 342.15 252.65 340.65 252.65 336.7 252.65 336.7 248.95 336.7 246.95 338.1 245.75 339.25 244.7 340.65 244.7 M360.0 272.25 Q360.0 270.25 361.4 269.05 362.55 268.0 364.0 268.0 367.95 268.0 367.95 272.1 367.95 273.75 366.7 274.9 365.5 275.95 364.0 275.95 360.0 275.95 360.0 272.25 M400.6 273.85 Q399.4 274.9 397.9 274.9 393.95 274.9 393.95 271.2 393.9 269.2 395.3 268.0 396.45 266.95 397.9 266.95 401.85 266.95 401.9 271.05 401.85 272.7 400.6 273.85 M372.0 309.9 Q370.75 310.95 369.3 310.95 365.3 310.9 365.35 307.2 365.3 305.25 366.7 304.05 367.85 302.95 369.3 303.0 373.25 302.95 373.25 307.05 373.25 308.7 372.0 309.9 M331.95 318.75 Q331.9 320.4 330.65 321.55 329.45 322.6 327.95 322.6 324.0 322.6 324.0 318.9 324.0 317.2 325.0 316.05 L325.35 315.7 Q326.5 314.65 327.95 314.65 330.25 314.65 331.25 316.0 331.95 317.0 331.95 318.75 M134.3 236.25 Q134.25 234.25 135.65 233.05 136.8 231.95 138.25 232.0 142.2 231.95 142.25 236.05 142.2 237.75 140.95 238.85 139.75 239.9 138.25 239.95 134.3 239.95 134.3 236.25 M100.1 226.15 Q96.15 226.15 96.15 222.45 96.1 220.45 97.5 219.25 98.65 218.2 100.1 218.2 104.05 218.2 104.1 222.3 104.05 223.95 102.8 225.1 101.6 226.15 100.1 226.15 M88.7 251.05 Q88.7 249.1 90.1 247.9 91.25 246.8 92.7 246.8 96.65 246.8 96.65 250.9 96.65 252.55 95.4 253.7 94.15 254.75 92.7 254.75 88.7 254.75 88.7 251.05 M113.9 281.8 Q117.75 281.75 117.85 285.85 117.85 287.55 116.55 288.65 115.3 289.7 113.9 289.75 109.9 289.75 109.9 286.05 109.9 284.05 111.3 282.85 112.45 281.8 113.9 281.8 M141.45 261.65 Q145.4 261.65 145.4 265.75 145.4 267.35 144.15 268.55 142.9 269.6 141.45 269.6 137.45 269.6 137.45 265.9 137.45 263.95 138.85 262.7 140.0 261.65 141.45 261.65 M160.05 279.65 Q161.2 278.6 162.65 278.6 164.5 278.6 165.5 279.55 166.6 280.55 166.6 282.7 166.6 284.35 165.35 285.5 164.1 286.55 162.65 286.55 L162.3 286.55 Q158.65 286.4 158.65 282.85 158.65 280.9 160.05 279.65 M51.25 217.0 Q51.25 218.7 50.0 219.8 48.75 220.85 47.3 220.85 43.3 220.85 43.3 217.15 43.3 216.1 43.7 215.25 44.0 214.5 44.6 213.95 45.8 212.9 47.3 212.9 50.4 212.9 51.05 215.45 L51.25 217.0 M43.3 240.45 Q43.25 238.5 44.6 237.25 45.8 236.2 47.3 236.25 51.25 236.2 51.25 240.3 51.25 241.95 50.0 243.1 48.75 244.15 47.3 244.15 43.3 244.15 43.3 240.45 M7.8 243.45 Q7.8 245.05 6.5 246.3 5.2 247.35 3.8 247.35 -0.15 247.35 -0.15 243.65 -0.15 241.65 1.2 240.45 2.35 239.4 3.8 239.4 7.65 239.35 7.8 243.45 M11.75 290.3 Q12.9 289.2 14.4 289.2 15.85 289.2 16.8 289.8 18.4 290.7 18.4 293.3 18.4 294.95 17.1 296.1 15.9 297.15 14.4 297.15 12.85 297.15 11.9 296.6 10.45 295.7 10.45 293.45 10.45 291.5 11.75 290.3 M50.45 262.7 Q54.4 262.7 54.4 266.8 54.4 268.5 53.15 269.6 51.95 270.65 50.45 270.65 46.5 270.65 46.5 266.95 46.45 265.0 47.8 263.8 48.95 262.7 50.45 262.7 M57.1 309.35 Q57.05 307.35 58.4 306.15 L59.75 305.3 61.05 305.1 62.55 305.3 Q64.9 306.0 65.05 309.2 65.0 310.9 63.7 312.0 62.45 313.05 61.05 313.05 57.05 313.05 57.1 309.35 M36.65 338.5 Q32.7 338.5 32.7 334.8 32.7 332.8 34.05 331.6 35.2 330.5 36.65 330.55 40.65 330.5 40.65 334.6 40.65 336.3 39.35 337.45 38.15 338.5 36.65 338.5 M143.1 311.45 Q144.25 310.4 145.7 310.4 149.55 310.4 149.65 314.5 L149.65 314.8 Q149.5 316.3 148.3 317.3 147.1 318.35 145.7 318.35 141.7 318.35 141.7 314.65 L141.7 314.25 Q141.8 312.55 143.1 311.45 M91.6 316.75 Q95.5 316.75 95.6 320.85 95.6 322.55 94.3 323.65 93.05 324.7 91.6 324.7 87.65 324.7 87.65 321.0 87.65 319.05 89.05 317.85 90.2 316.75 91.6 316.75 M314.2 220.3 Q318.05 220.3 318.15 224.4 318.15 226.05 316.85 227.2 315.95 227.95 315.0 228.2 L314.2 228.25 Q311.15 228.25 310.45 226.15 310.2 225.45 310.2 224.55 310.2 222.6 311.6 221.4 312.75 220.3 314.2 220.3 M284.05 246.3 Q282.8 247.35 281.35 247.35 277.35 247.35 277.35 243.65 277.35 241.65 278.75 240.45 279.9 239.4 281.35 239.4 285.3 239.35 285.3 243.45 285.3 245.1 284.05 246.3 M279.2 208.65 Q283.05 208.65 283.2 212.75 283.15 214.45 281.85 215.55 L280.5 216.4 279.2 216.6 277.3 216.3 Q275.2 215.55 275.25 212.9 275.2 210.9 276.6 209.7 277.75 208.65 279.2 208.65 M245.9 227.75 Q247.05 226.65 248.45 226.7 252.45 226.65 252.45 230.75 252.45 232.4 251.15 233.55 249.95 234.6 248.45 234.65 244.5 234.65 244.5 230.95 244.5 228.95 245.9 227.75 M250.6 266.4 Q246.6 266.4 246.65 262.7 246.6 260.75 248.0 259.55 249.15 258.45 250.6 258.5 254.45 258.45 254.55 262.55 254.55 264.2 253.25 265.35 252.0 266.4 250.6 266.4 M274.5 282.85 Q275.65 281.8 277.1 281.8 281.05 281.75 281.05 285.85 281.05 287.55 279.8 288.65 278.55 289.7 277.1 289.75 273.1 289.75 273.1 286.05 273.1 284.05 274.5 282.85 M313.9 276.35 Q313.9 278.05 312.65 279.15 311.4 280.2 309.95 280.2 308.05 280.2 307.05 279.35 305.95 278.45 306.0 276.5 305.95 274.5 307.35 273.3 308.5 272.25 309.9 272.25 L309.95 272.25 Q313.9 272.25 313.9 276.35 M225.15 243.65 Q229.0 243.6 229.15 247.7 229.1 249.4 227.8 250.55 226.6 251.6 225.15 251.6 221.2 251.6 221.2 247.9 221.15 245.9 222.55 244.7 223.7 243.6 225.15 243.65 M204.55 237.8 Q203.3 238.85 201.85 238.85 197.85 238.85 197.85 235.15 197.85 233.2 199.25 232.0 200.4 230.9 201.85 230.95 205.8 230.9 205.85 235.0 205.8 236.7 204.55 237.8 M167.95 220.85 Q163.95 220.85 163.95 217.15 163.95 215.15 165.35 213.95 166.5 212.9 167.95 212.9 171.8 212.9 171.9 217.0 171.9 218.7 170.6 219.8 169.35 220.85 167.95 220.85 M196.8 263.8 Q196.8 261.8 198.2 260.6 199.35 259.55 200.8 259.55 204.75 259.5 204.75 263.6 204.75 265.3 203.5 266.4 202.25 267.45 200.8 267.5 196.8 267.5 196.8 263.8 M229.65 300.85 Q229.65 298.9 231.05 297.7 232.2 296.6 233.65 296.65 237.6 296.6 237.6 300.7 237.6 302.35 236.35 303.5 235.1 304.55 233.65 304.6 229.65 304.55 229.65 300.85 M203.5 309.9 Q202.25 310.95 200.8 310.95 196.8 310.9 196.8 307.2 196.8 305.25 198.2 304.05 199.35 302.95 200.8 303.0 204.75 302.95 204.75 307.05 204.75 308.7 203.5 309.9 M219.85 336.4 Q215.9 336.35 215.9 332.65 215.9 330.7 217.3 329.5 218.45 328.4 219.85 328.45 223.8 328.4 223.85 332.5 223.8 334.15 222.55 335.3 221.35 336.35 219.85 336.4 M171.1 327.35 Q174.95 327.35 175.1 331.45 175.05 333.15 173.75 334.25 172.55 335.3 171.1 335.3 167.15 335.3 167.15 331.6 167.1 329.65 168.5 328.45 169.65 327.35 171.1 327.35 M291.4 319.4 Q290.15 320.45 288.75 320.45 284.75 320.45 284.75 316.75 284.75 314.8 286.15 313.6 287.3 312.5 288.75 312.55 291.5 312.5 292.35 314.65 292.7 315.45 292.75 316.6 292.7 318.25 291.4 319.4 M253.3 332.65 Q254.45 331.6 255.9 331.6 259.85 331.6 259.9 335.7 259.85 337.3 258.6 338.5 257.35 339.55 255.9 339.55 251.9 339.55 251.95 335.85 251.9 333.85 253.3 332.65 M-17.9 276.5 Q-16.75 275.4 -15.25 275.45 -11.45 275.4 -11.3 279.5 -11.3 281.2 -12.6 282.35 -13.85 283.4 -15.25 283.4 -19.25 283.35 -19.25 279.65 -19.25 277.7 -17.9 276.5 M-19.25 330.55 Q-19.25 328.55 -17.9 327.35 -16.75 326.3 -15.25 326.3 -12.1 326.3 -11.45 329.1 -11.3 329.65 -11.3 330.4 -11.3 332.05 -12.6 333.2 -13.8 334.2 -15.15 334.25 L-15.25 334.25 Q-19.25 334.25 -19.25 330.55 M-47.05 299.8 Q-43.25 299.8 -43.05 303.9 -43.1 305.45 -44.4 306.7 -45.7 307.75 -47.05 307.75 -51.05 307.75 -51.05 304.05 -51.05 302.05 -49.7 300.85 -48.55 299.8 -47.05 299.8" fill="#ffffff" fill-rule="evenodd" stroke="none"/>
    </g>
  </defs>
</svg>
