<?xml version="1.0" encoding="UTF-8" standalone="no"?>
<svg xmlns:xlink="http://www.w3.org/1999/xlink" height="842.55px" width="1337.95px" xmlns="http://www.w3.org/2000/svg">
  <g transform="matrix(1, 0, 0, 1, 407.45, 285.05)">
    <use height="4.5" transform="matrix(5.4867, 0.0, 0.0, 81.5667, 3.2875, 23.0167)" width="99.75" xlink:href="#shape0"/>
    <use height="405.95" transform="matrix(1.0, 0.0, 0.0, 1.0, 0.0, 0.0)" width="560.95" xlink:href="#shape1"/>
  </g>
  <defs>
    <g id="shape0" transform="matrix(1, 0, 0, 1, 49.85, -2.5)">
      <path d="M49.9 7.0 L-49.85 7.0 -49.85 2.5 49.9 2.5 49.9 7.0" fill="#ffffff" fill-rule="evenodd" stroke="none"/>
    </g>
    <g id="shape1" transform="matrix(1, 0, 0, 1, 0.0, 0.0)">
      <path d="M0.0 405.95 L0.0 0.0 560.95 0.0 560.95 405.95 0.0 405.95" fill="url(#gradient0)" fill-rule="evenodd" stroke="none"/>
      <path d="M118.7 124.05 L118.95 121.75 Q119.05 118.2 119.8 114.75 120.65 111.1 122.4 107.9 L122.8 107.35 Q128.1 108.2 133.35 111.95 136.3 113.95 138.35 110.5 139.95 107.75 142.45 106.2 L144.35 106.45 144.15 108.35 Q143.05 114.45 138.5 118.95 132.65 124.85 124.35 124.85 L124.2 124.85 121.5 124.65 120.55 124.5 118.7 124.05 M131.9 86.2 Q131.35 87.35 130.2 88.5 126.2 92.55 121.05 94.55 L120.4 95.1 Q109.95 95.95 111.85 89.1 113.35 87.85 115.05 87.0 119.2 84.8 124.35 84.8 127.5 84.8 130.35 85.65 131.1 85.85 131.9 86.2 M116.7 103.25 Q117.35 103.6 117.5 104.1 117.7 105.65 116.4 106.65 L112.85 109.75 112.4 110.05 Q108.8 109.35 109.95 105.65 110.8 102.95 112.65 100.8 113.25 100.1 113.95 100.05 L114.7 100.1 115.5 100.5 115.7 100.8 115.7 101.9 Q115.8 102.8 116.7 103.25" fill="#d5d5d5" fill-rule="evenodd" stroke="none"/>
      <path d="M118.7 124.05 Q113.95 122.75 110.2 118.95 104.35 113.1 104.35 104.8 104.35 96.5 110.2 90.65 L111.85 89.1 Q109.95 95.95 120.4 95.1 L121.05 94.55 Q126.2 92.55 130.2 88.5 131.35 87.35 131.9 86.2 135.5 87.65 138.5 90.65 144.35 96.5 144.35 104.8 L144.35 106.45 142.45 106.2 Q139.95 107.75 138.35 110.5 136.3 113.95 133.35 111.95 128.1 108.2 122.8 107.35 L122.4 107.9 Q120.65 111.1 119.8 114.75 119.05 118.2 118.95 121.75 L118.7 124.05 M116.7 103.25 Q115.8 102.8 115.7 101.9 L115.7 100.8 115.5 100.5 114.7 100.1 113.95 100.05 Q113.25 100.1 112.65 100.8 110.8 102.95 109.95 105.65 108.8 109.35 112.4 110.05 L112.85 109.75 116.4 106.65 Q117.7 105.65 117.5 104.1 117.35 103.6 116.7 103.25" fill="#cccccc" fill-rule="evenodd" stroke="none"/>
      <path d="M111.85 89.1 L110.2 90.65 Q104.35 96.5 104.35 104.8 104.35 113.1 110.2 118.95 113.95 122.75 118.7 124.05 L120.55 124.5 121.5 124.65 124.2 124.85 124.35 124.85 Q132.65 124.85 138.5 118.95 143.05 114.45 144.15 108.35 L144.35 106.45 144.35 104.8 Q144.35 96.5 138.5 90.65 135.5 87.65 131.9 86.2 M111.85 89.1 Q113.35 87.85 115.05 87.0 119.2 84.8 124.35 84.8 127.5 84.8 130.35 85.65" fill="none" stroke="#000000" stroke-linecap="round" stroke-linejoin="round" stroke-width="3.0"/>
      <path d="M383.2 88.5 Q388.6 91.25 393.75 94.55 406.15 102.6 417.25 113.65 451.1 147.55 456.1 193.25 L456.4 196.2 Q456.95 202.75 456.95 209.5 L456.95 212.45 456.8 217.3 Q452.25 216.05 448.65 210.75 446.55 207.65 446.5 204.45 445.7 205.6 445.15 206.95 L444.55 207.3 442.3 207.45 441.15 207.2 Q435.55 195.6 437.65 181.95 439.7 168.5 432.45 155.45 430.0 150.95 428.1 146.15 423.45 145.15 421.4 141.2 419.6 137.9 418.85 134.2 411.55 135.0 409.6 128.9 408.55 125.45 408.75 121.5 L408.85 121.2 408.85 121.0 408.6 121.15 Q401.45 124.9 392.95 128.2 388.95 129.85 386.65 128.9 377.65 132.9 369.2 127.75 L365.85 125.75 365.7 125.2 365.7 124.6 365.7 124.05 365.7 122.3 365.7 120.6 365.7 118.8 365.7 118.3 Q365.2 117.2 363.5 116.8 352.4 114.45 343.4 111.5 345.3 107.95 348.85 104.8 L361.2 94.2 Q365.95 90.1 372.25 89.4 374.95 89.1 376.9 88.25 L383.2 88.5 M441.15 273.8 L437.25 280.5 Q428.95 293.6 417.25 305.3 377.6 345.0 321.45 345.0 305.2 345.0 290.35 341.7 L283.4 339.95 Q285.25 338.55 287.4 337.15 318.15 317.85 353.65 316.0 358.0 315.7 361.2 312.2 384.5 286.35 418.0 276.5 425.55 274.25 433.1 273.05 L441.15 273.8 M269.85 335.25 L263.3 332.4 Q254.95 328.3 247.1 323.05 L243.7 320.7 Q242.1 315.0 246.3 307.3 256.85 288.1 276.95 290.2 278.65 290.45 280.55 291.2 292.9 296.45 294.9 282.75 295.05 281.6 296.05 281.5 313.3 300.2 290.9 318.05 283.1 324.3 275.95 330.95 272.85 333.75 269.85 335.25 M199.25 269.1 Q197.5 265.5 196.05 261.85 185.95 237.75 185.95 209.5 185.95 192.4 189.65 176.8 L190.2 176.95 Q202.35 171.0 214.15 161.85 225.35 153.1 238.3 149.1 261.8 152.0 251.95 174.2 248.25 182.65 254.0 187.9 272.2 204.5 260.65 226.9 247.55 252.45 225.05 267.65 220.85 270.55 215.35 268.5 206.65 265.1 198.65 265.35 L198.75 266.4 199.25 269.1 M206.5 137.2 L207.95 135.0 Q215.5 123.85 225.6 113.65 265.35 74.0 321.45 74.0 L323.75 74.0 328.9 74.15 Q326.9 86.95 315.35 97.95 311.6 101.5 306.15 100.65 291.45 98.35 279.5 107.45 246.45 132.45 206.5 137.2 M320.2 183.55 Q331.55 194.5 327.0 200.95 322.45 207.45 319.75 210.8 309.0 224.35 301.15 209.35 297.8 202.95 298.2 195.75 298.75 184.4 296.65 173.55 294.75 163.55 303.05 157.15 305.9 155.0 309.9 154.45 L313.05 155.1 Q314.35 155.4 315.45 156.25 L316.05 156.8 Q308.9 172.55 320.2 183.55 M287.75 194.95 L288.35 195.4 Q288.95 197.05 288.6 198.9 287.9 201.65 286.35 204.05 285.65 205.15 284.5 205.3 281.2 204.3 281.55 200.8 281.9 197.6 284.1 195.25 L285.25 194.5 286.75 194.6 Q287.25 194.65 287.75 194.95 M256.95 263.5 L257.65 264.0 258.45 265.1 Q259.1 266.4 258.4 267.5 L256.3 270.65 255.25 271.5 Q252.55 270.65 252.6 267.65 252.7 264.7 255.25 263.25 L256.0 263.0 256.95 263.5 M291.45 231.45 L294.65 231.9 298.5 232.75 299.3 233.15 Q301.6 241.25 299.35 249.45 295.45 263.65 277.95 260.85 L277.35 260.5 Q276.8 254.55 278.9 249.0 281.95 240.7 288.1 233.4 289.4 231.85 291.45 231.45 M311.6 267.85 Q312.45 268.5 312.45 269.55 L312.35 270.1 Q312.2 271.05 311.45 271.25 308.45 272.35 307.2 269.95 307.2 269.35 307.45 268.95 308.0 268.05 308.85 267.5 309.5 267.0 309.9 266.85 L311.6 267.85" fill="#a3eb83" fill-rule="evenodd" stroke="none"/>
      <path d="M383.2 88.5 L376.9 88.25 Q374.95 89.1 372.25 89.4 365.95 90.1 361.2 94.2 L348.85 104.8 Q345.3 107.95 343.4 111.5 352.4 114.45 363.5 116.8 365.2 117.2 365.7 118.3 L365.7 118.8 365.7 120.6 365.7 122.3 365.7 124.05 365.7 124.6 365.7 125.2 365.85 125.75 369.2 127.75 Q377.65 132.9 386.65 128.9 388.95 129.85 392.95 128.2 401.45 124.9 408.6 121.15 L408.85 121.2 408.75 121.5 Q408.55 125.45 409.6 128.9 411.55 135.0 418.85 134.2 419.6 137.9 421.4 141.2 423.45 145.15 428.1 146.15 430.0 150.95 432.45 155.45 439.7 168.5 437.65 181.95 435.55 195.6 441.15 207.2 L442.3 207.45 444.55 207.3 445.15 206.95 Q445.7 205.6 446.5 204.45 446.55 207.65 448.65 210.75 452.25 216.05 456.8 217.3 455.2 248.15 441.15 273.8 L433.1 273.05 Q425.55 274.25 418.0 276.5 384.5 286.35 361.2 312.2 358.0 315.7 353.65 316.0 318.15 317.85 287.4 337.15 285.25 338.55 283.4 339.95 276.5 337.95 269.85 335.25 272.85 333.75 275.95 330.95 283.1 324.3 290.9 318.05 313.3 300.2 296.05 281.5 295.05 281.6 294.9 282.75 292.9 296.45 280.55 291.2 278.65 290.45 276.95 290.2 256.85 288.1 246.3 307.3 242.1 315.0 243.7 320.7 234.2 313.9 225.6 305.3 208.95 288.65 199.25 269.1 L198.75 266.4 198.65 265.35 Q206.65 265.1 215.35 268.5 220.85 270.55 225.05 267.65 247.55 252.45 260.65 226.9 272.2 204.5 254.0 187.9 248.25 182.65 251.95 174.2 261.8 152.0 238.3 149.1 225.35 153.1 214.15 161.85 202.35 171.0 190.2 176.95 L189.65 176.8 Q194.65 155.55 206.5 137.2 246.45 132.45 279.5 107.45 291.45 98.35 306.15 100.65 311.6 101.5 315.35 97.95 326.9 86.95 328.9 74.15 358.4 75.65 383.2 88.5 M320.2 183.55 Q308.9 172.55 316.05 156.8 L315.45 156.25 Q314.35 155.4 313.05 155.1 L309.9 154.45 Q305.9 155.0 303.05 157.15 294.75 163.55 296.65 173.55 298.75 184.4 298.2 195.75 297.8 202.95 301.15 209.35 309.0 224.35 319.75 210.8 322.45 207.45 327.0 200.95 331.55 194.5 320.2 183.55 M311.6 267.85 L309.9 266.85 Q309.5 267.0 308.85 267.5 308.0 268.05 307.45 268.95 307.2 269.35 307.2 269.95 308.45 272.35 311.45 271.25 312.2 271.05 312.35 270.1 L312.45 269.55 Q312.45 268.5 311.6 267.85 M291.45 231.45 Q289.4 231.85 288.1 233.4 281.95 240.7 278.9 249.0 276.8 254.55 277.35 260.5 L277.95 260.85 Q295.45 263.65 299.35 249.45 301.6 241.25 299.3 233.15 L298.5 232.75 294.65 231.9 291.45 231.45 M256.95 263.5 L256.0 263.0 255.25 263.25 Q252.7 264.7 252.6 267.65 252.55 270.65 255.25 271.5 L256.3 270.65 258.4 267.5 Q259.1 266.4 258.45 265.1 L257.65 264.0 256.95 263.5 M287.75 194.95 Q287.25 194.65 286.75 194.6 L285.25 194.5 284.1 195.25 Q281.9 197.6 281.55 200.8 281.2 204.3 284.5 205.3 285.65 205.15 286.35 204.05 287.9 201.65 288.6 198.9 288.95 197.05 288.35 195.4 L287.75 194.95" fill="#6fd5ff" fill-rule="evenodd" stroke="none"/>
      <path d="M408.6 121.15 L408.85 121.2 408.6 121.15" fill="#6fffe1" fill-rule="evenodd" stroke="none"/>
      <path d="M456.8 217.3 L456.95 212.45 456.95 209.5 Q456.95 202.75 456.4 196.2 L456.1 193.25 Q451.1 147.55 417.25 113.65 406.15 102.6 393.75 94.55 388.6 91.25 383.2 88.5 M456.8 217.3 Q455.2 248.15 441.15 273.8 L437.25 280.5 Q428.95 293.6 417.25 305.3 377.6 345.0 321.45 345.0 305.2 345.0 290.35 341.7 L283.4 339.95 Q276.5 337.95 269.85 335.25 L263.3 332.4 Q254.95 328.3 247.1 323.05 L243.7 320.7 Q234.2 313.9 225.6 305.3 208.95 288.65 199.25 269.1 197.5 265.5 196.05 261.85 185.95 237.75 185.95 209.5 185.95 192.4 189.65 176.8 194.65 155.55 206.5 137.2 L207.95 135.0 Q215.5 123.85 225.6 113.65 265.35 74.0 321.45 74.0 L323.75 74.0 328.9 74.15 Q358.4 75.65 383.2 88.5" fill="none" stroke="#000000" stroke-linecap="round" stroke-linejoin="round" stroke-width="3.0"/>
      <path d="M393.75 94.55 Q406.15 102.6 417.25 113.65 451.1 147.55 456.1 193.25 L456.4 196.2 Q456.95 202.75 456.95 209.5 L456.95 212.45 456.8 217.3 Q455.2 248.15 441.15 273.8 L437.25 280.5 Q428.95 293.6 417.25 305.3 377.6 345.0 321.45 345.0 305.2 345.0 290.35 341.7 L283.4 339.95 Q276.5 337.95 269.85 335.25 L263.3 332.4 Q254.95 328.3 247.1 323.05 L243.7 320.7 Q234.2 313.9 225.6 305.3 208.95 288.65 199.25 269.1 197.5 265.5 196.05 261.85 185.95 237.75 185.95 209.5 185.95 192.4 189.65 176.8 194.65 155.55 206.5 137.2 L207.95 135.0 Q215.5 123.85 225.6 113.65 265.35 74.0 321.45 74.0 L323.75 74.0 328.9 74.15 Q358.4 75.65 383.2 88.5 388.6 91.25 393.75 94.55" fill="url(#gradient1)" fill-rule="evenodd" stroke="none"/>
      <path d="M138.55 90.65 Q144.4 96.5 144.4 104.8 L144.4 106.45 144.15 108.35 Q143.05 114.45 138.55 118.95 132.65 124.85 124.35 124.85 L124.2 124.85 121.5 124.65 120.6 124.5 118.75 124.05 Q113.95 122.75 110.2 118.95 104.35 113.1 104.35 104.8 104.35 96.5 110.2 90.65 L111.9 89.1 Q113.35 87.85 115.05 87.0 119.2 84.8 124.35 84.8 127.5 84.8 130.35 85.65 131.15 85.85 131.9 86.2 135.5 87.65 138.55 90.65" fill="url(#gradient2)" fill-rule="evenodd" stroke="none"/>
    </g>
    <radialGradient cx="0" cy="0" gradientTransform="matrix(0.4227, 0.0, 0.0, 0.4227, 430.95, 167.0)" gradientUnits="userSpaceOnUse" id="gradient0" r="819.2" spreadMethod="pad">
      <stop offset="0.0" stop-color="#111111"/>
      <stop offset="1.0" stop-color="#000000"/>
    </radialGradient>
    <radialGradient cx="0" cy="0" gradientTransform="matrix(0.1673, 0.0, 0.0, 0.1673, 353.7, 192.6)" gradientUnits="userSpaceOnUse" id="gradient1" r="819.2" spreadMethod="pad">
      <stop offset="0.0" stop-color="#000000" stop-opacity="0.0"/>
      <stop offset="1.0" stop-color="#000000"/>
    </radialGradient>
    <radialGradient cx="0" cy="0" gradientTransform="matrix(0.0258, 0.0, 0.0, 0.0258, 135.05, 98.65)" gradientUnits="userSpaceOnUse" id="gradient2" r="819.2" spreadMethod="pad">
      <stop offset="0.0" stop-color="#000000" stop-opacity="0.0"/>
      <stop offset="1.0" stop-color="#000000"/>
    </radialGradient>
  </defs>
</svg>
