<?xml version="1.0" encoding="UTF-8" standalone="no"?>
<svg xmlns:xlink="http://www.w3.org/1999/xlink" height="842.55px" width="1337.95px" xmlns="http://www.w3.org/2000/svg">
  <g transform="matrix(1, 0, 0, 1, 407.45, 285.05)">
    <use height="4.5" transform="matrix(5.4867, 0.0, 0.0, 81.5667, 3.2875, 23.0167)" width="99.75" xlink:href="#shape0"/>
    <use height="423.0" transform="matrix(1.0, 0.0, 0.0, 1.0, -6.15, -4.5)" width="568.5" xlink:href="#shape1"/>
  </g>
  <defs>
    <g id="shape0" transform="matrix(1, 0, 0, 1, 49.85, -2.5)">
      <path d="M49.9 7.0 L-49.85 7.0 -49.85 2.5 49.9 2.5 49.9 7.0" fill="#ffffff" fill-rule="evenodd" stroke="none"/>
    </g>
    <g id="shape1" transform="matrix(1, 0, 0, 1, 6.15, 4.5)">
      <path d="M-3.55 232.95 Q-3.35 226.45 -3.5 222.75 L-3.5 125.25 -3.35 59.5 Q-2.95 21.35 -1.0 -4.5 0.25 -4.0 548.85 -3.5 550.45 -2.85 551.35 -1.5 L551.35 232.5 -3.0 232.5 -3.55 232.95 M-3.7 237.5 L-3.7 237.2 -3.0 237.5 -3.7 237.5" fill="#e6fff4" fill-rule="evenodd" stroke="none"/>
      <path d="M552.15 258.5 Q553.05 267.1 553.3 290.55 553.55 309.1 553.35 327.85 L553.35 365.75 Q553.2 371.3 553.65 384.1 553.6 395.65 550.85 402.5 L515.8 402.5 517.7 397.0 517.75 397.0 518.1 395.8 522.8 375.4 Q526.05 349.2 528.35 336.25 542.55 266.05 543.3 258.5 L552.15 258.5 M510.05 402.5 L432.55 402.5 434.65 397.0 Q438.6 385.85 441.25 372.15 442.35 366.6 446.85 335.0 448.1 326.3 454.55 292.4 460.35 261.8 460.35 259.6 L460.3 258.5 537.9 258.5 Q528.85 271.7 523.85 332.75 523.05 343.35 515.6 377.25 L515.3 378.75 511.7 395.15 511.25 397.0 511.3 397.0 510.1 402.5 510.05 402.5 M427.9 402.5 L352.45 402.5 353.95 397.0 Q356.05 388.65 357.7 378.95 361.55 351.75 364.1 338.25 L373.0 293.2 Q378.6 264.6 379.25 258.5 L456.55 258.5 Q448.3 273.05 442.35 330.0 440.85 344.1 433.9 375.4 L433.25 378.45 432.95 379.7 432.55 381.65 431.2 387.65 431.05 388.25 431.0 388.45 429.2 396.8 429.15 397.0 427.9 402.5 M346.3 402.5 L260.3 402.5 261.7 397.0 266.85 376.9 Q273.25 352.1 275.0 337.25 276.55 324.1 287.15 290.3 L297.0 258.5 374.95 258.5 Q368.75 272.4 365.3 293.3 363.1 306.95 359.6 334.0 L350.9 378.55 Q348.75 389.35 347.35 397.0 L346.3 402.5 M255.0 402.5 L159.7 402.5 162.1 397.0 Q165.55 388.6 168.75 378.3 L174.85 358.0 Q178.5 346.2 181.75 338.25 211.2 266.75 213.35 258.5 L292.4 258.5 Q284.75 274.45 279.2 292.25 272.55 313.5 270.25 333.0 268.9 344.6 260.5 379.45 L260.3 380.4 260.15 381.0 260.05 381.3 260.0 381.6 259.9 381.85 256.7 395.4 256.3 397.0 255.0 402.5 M153.1 402.5 L73.3 402.5 Q75.0 400.25 76.9 397.0 81.05 389.85 86.05 377.75 89.7 369.0 95.55 353.3 101.3 337.85 103.0 333.75 110.05 317.15 120.95 289.4 131.55 262.35 132.45 258.5 L208.2 258.5 Q201.05 272.3 178.3 333.5 L175.95 339.85 173.85 345.55 170.2 355.4 167.3 363.35 166.6 365.2 164.25 371.6 164.15 371.85 164.05 372.15 155.25 396.35 153.1 402.5 M64.65 402.5 L1.0 402.5 Q-1.05 401.8 -1.5 400.5 L-1.5 357.95 3.9 348.25 13.15 331.5 Q51.5 262.15 51.5 259.85 L51.25 258.5 127.45 258.5 Q119.9 271.0 113.2 290.75 L106.85 309.95 Q102.95 321.25 99.25 329.5 82.7 366.35 67.4 397.0 L64.65 402.5 M-1.5 344.9 L-1.5 258.5 48.4 258.5 Q31.0 286.65 3.95 335.1 L1.95 338.7 -1.5 344.9" fill="#916500" fill-rule="evenodd" stroke="none"/>
      <path d="M551.35 232.5 L554.85 232.5 556.55 232.95 Q557.35 233.3 557.35 234.85 557.35 236.45 556.5 237.0 L554.85 237.5 551.35 237.5 -3.0 237.5 -3.7 237.2 Q-5.5 236.25 -5.5 234.0 L-3.55 232.95 -3.0 232.5 551.35 232.5 M551.35 253.5 L559.85 253.5 561.55 253.95 Q562.35 254.3 562.35 255.85 562.35 257.45 561.5 258.0 L559.85 258.5 552.15 258.5 543.3 258.5 Q542.55 266.05 528.35 336.25 526.05 349.2 522.8 375.4 L518.1 395.8 517.75 397.0 517.7 397.0 515.8 402.5 Q513.55 408.45 510.85 413.5 L509.05 412.9 Q508.35 412.4 508.35 410.75 L508.35 410.5 509.75 404.15 510.05 402.5 510.1 402.5 511.3 397.0 511.25 397.0 511.7 395.15 515.3 378.75 515.6 377.25 Q523.05 343.35 523.85 332.75 528.85 271.7 537.9 258.5 L460.3 258.5 460.35 259.6 Q460.35 261.8 454.55 292.4 448.1 326.3 446.85 335.0 442.35 366.6 441.25 372.15 438.6 385.85 434.65 397.0 L432.55 402.5 429.85 408.5 Q427.35 407.65 427.35 405.0 L427.9 402.5 429.15 397.0 429.2 396.8 431.0 388.45 431.05 388.25 431.2 387.65 432.55 381.65 432.95 379.7 433.25 378.45 433.9 375.4 Q440.85 344.1 442.35 330.0 448.3 273.05 456.55 258.5 L379.25 258.5 Q378.6 264.6 373.0 293.2 L364.1 338.25 Q361.55 351.75 357.7 378.95 356.05 388.65 353.95 397.0 L352.45 402.5 Q349.95 411.35 346.85 418.5 344.35 417.65 344.35 415.0 344.35 413.2 346.3 402.5 L347.35 397.0 Q348.75 389.35 350.9 378.55 L359.6 334.0 Q363.1 306.95 365.3 293.3 368.75 272.4 374.95 258.5 L297.0 258.5 287.15 290.3 Q276.55 324.1 275.0 337.25 273.25 352.1 266.85 376.9 L261.7 397.0 260.3 402.5 256.75 416.75 255.0 417.5 Q252.5 415.0 252.5 414.0 L252.5 413.75 254.45 404.85 255.0 402.5 256.3 397.0 256.7 395.4 259.9 381.85 260.0 381.6 260.05 381.3 260.15 381.0 260.3 380.4 260.5 379.45 Q268.9 344.6 270.25 333.0 272.55 313.5 279.2 292.25 284.75 274.45 292.4 258.5 L213.35 258.5 Q211.2 266.75 181.75 338.25 178.5 346.2 174.85 358.0 L168.75 378.3 Q165.55 388.6 162.1 397.0 L159.7 402.5 Q156.35 409.8 152.8 415.35 L152.0 416.5 150.2 415.9 Q149.5 415.4 149.5 413.75 149.5 412.75 153.1 402.5 L155.25 396.35 164.05 372.15 164.15 371.85 164.25 371.6 166.6 365.2 167.3 363.35 170.2 355.4 173.85 345.55 175.95 339.85 178.3 333.5 Q201.05 272.3 208.2 258.5 L132.45 258.5 Q131.55 262.35 120.95 289.4 110.05 317.15 103.0 333.75 101.3 337.85 95.55 353.3 89.7 369.0 86.05 377.75 81.05 389.85 76.9 397.0 75.0 400.25 73.3 402.5 69.45 407.5 66.5 407.5 L64.45 407.15 63.75 406.25 Q63.5 407.25 63.5 404.75 L64.65 402.5 67.4 397.0 Q82.7 366.35 99.25 329.5 102.95 321.25 106.85 309.95 L113.2 290.75 Q119.9 271.0 127.45 258.5 L51.25 258.5 51.5 259.85 Q51.5 262.15 13.15 331.5 L3.9 348.25 -1.5 357.95 -6.15 366.35 -6.15 353.35 -1.5 344.9 1.95 338.7 3.95 335.1 Q31.0 286.65 48.4 258.5 L-1.5 258.5 -5.0 258.5 -6.15 257.95 -6.15 254.3 -5.0 253.5 -1.8 253.5 1.45 253.5 1.5 253.5 551.35 253.5" fill="#000000" fill-rule="evenodd" stroke="none"/>
      <path d="M551.35 237.5 L551.35 253.5 1.5 253.5 1.5 253.25 1.45 253.5 -1.8 253.5 Q-3.75 248.05 -3.8 239.65 L-3.7 237.5 -3.0 237.5 551.35 237.5" fill="#ffffff" fill-rule="evenodd" stroke="none"/>
    </g>
  </defs>
</svg>
