<?xml version="1.0" encoding="UTF-8" standalone="no"?>
<svg xmlns:xlink="http://www.w3.org/1999/xlink" height="842.55px" width="1337.95px" xmlns="http://www.w3.org/2000/svg">
  <g transform="matrix(1, 0, 0, 1, 407.45, 285.05)">
    <use height="4.5" transform="matrix(5.4867, 0.0, 0.0, 81.5667, 3.2875, 23.0167)" width="99.75" xlink:href="#shape0"/>
    <use height="401.0" transform="matrix(1.0, 0.0, 0.0, 1.0, -1.0, -1.0)" width="552.95" xlink:href="#shape1"/>
  </g>
  <defs>
    <g id="shape0" transform="matrix(1, 0, 0, 1, 49.85, -2.5)">
      <path d="M49.9 7.0 L-49.85 7.0 -49.85 2.5 49.9 2.5 49.9 7.0" fill="#ffffff" fill-rule="evenodd" stroke="none"/>
    </g>
    <g id="shape1" transform="matrix(1, 0, 0, 1, 1.0, 1.0)">
      <path d="M551.95 33.5 L551.85 33.5 Q550.85 33.5 550.25 36.65 L543.75 38.7 Q533.75 41.5 521.35 41.5 484.1 41.5 467.5 31.0 463.85 28.65 458.9 23.8 455.55 20.5 453.25 20.5 451.55 20.5 448.75 24.25 444.75 29.65 441.4 32.5 427.15 44.5 395.85 44.5 374.05 44.5 362.65 37.2 359.8 35.35 356.15 31.85 353.3 29.15 351.85 28.75 346.9 34.9 337.7 40.45 319.5 51.5 296.35 51.5 274.1 51.5 255.85 35.5 250.7 31.0 245.25 24.5 241.05 19.5 240.6 19.5 237.85 19.5 232.65 23.7 L221.45 33.0 Q203.7 46.5 184.0 46.5 158.65 46.5 136.6 38.05 114.85 29.7 112.0 19.25 104.9 25.0 98.85 29.3 87.2 37.5 78.5 37.5 51.35 37.5 23.5 27.25 11.9 23.0 4.7 18.35 2.1 16.65 0.45 15.15 L-0.1 12.15 -1.0 12.5 -1.0 -1.0 551.95 -1.0 551.95 33.5" fill="#109900" fill-rule="evenodd" stroke="none"/>
      <path d="M-1.0 12.5 L-0.1 12.15 0.45 15.15 Q2.1 16.65 4.7 18.35 11.9 23.0 23.5 27.25 51.35 37.5 78.5 37.5 87.2 37.5 98.85 29.3 104.9 25.0 112.0 19.25 114.85 29.7 136.6 38.05 158.65 46.5 184.0 46.5 203.7 46.5 221.45 33.0 L232.65 23.7 Q237.85 19.5 240.6 19.5 241.05 19.5 245.25 24.5 250.7 31.0 255.85 35.5 274.1 51.5 296.35 51.5 319.5 51.5 337.7 40.45 346.9 34.9 351.85 28.75 353.3 29.15 356.15 31.85 359.8 35.35 362.65 37.2 374.05 44.5 395.85 44.5 427.15 44.5 441.4 32.5 444.75 29.65 448.75 24.25 451.55 20.5 453.25 20.5 455.55 20.5 458.9 23.8 463.85 28.65 467.5 31.0 484.1 41.5 521.35 41.5 533.75 41.5 543.75 38.7 L550.25 36.65 Q550.85 33.5 551.85 33.5 L551.95 33.5 551.95 95.45 551.1 95.35 550.85 96.1 Q544.7 95.15 536.1 92.15 L524.85 87.75 Q521.4 87.75 516.15 89.45 L505.6 93.15 Q489.7 98.5 473.85 98.5 L465.35 98.3 460.9 98.05 Q442.25 96.6 430.45 90.75 L427.15 88.9 425.4 87.95 423.25 86.75 423.0 86.65 421.55 85.85 421.15 85.65 420.9 85.5 420.7 85.4 Q415.85 83.0 411.0 83.0 404.3 83.0 399.6 85.1 L391.1 89.75 Q385.9 92.3 378.1 93.9 L375.8 94.35 Q363.55 96.5 345.35 96.5 L344.5 96.5 344.1 96.5 343.7 96.5 343.3 96.5 333.9 96.35 Q303.2 95.35 293.2 88.7 L292.35 88.1 292.25 88.0 292.15 87.95 292.05 87.85 291.9 87.75 Q290.3 86.45 288.9 84.55 L286.75 81.75 Q284.35 79.0 278.85 79.0 274.7 79.0 268.05 81.25 259.55 84.45 254.25 86.25 L246.2 88.75 241.7 89.85 241.05 90.0 211.75 93.5 210.8 93.5 210.6 93.5 209.35 93.5 207.55 93.5 Q177.55 93.3 157.75 86.9 L155.45 86.1 151.6 84.65 Q147.8 83.1 139.05 78.5 133.75 75.75 130.75 75.75 123.1 75.75 119.7 76.95 L115.0 79.65 Q108.1 83.5 81.0 83.5 45.95 83.5 20.0 78.25 8.6 75.9 2.5 73.4 L2.5 71.5 Q1.85 70.5 0.85 69.95 L-0.3 70.3 -0.7 71.85 -1.0 71.7 -1.0 12.5" fill="#0d7700" fill-rule="evenodd" stroke="none"/>
      <path d="M-0.7 71.85 L-0.3 70.3 0.85 69.95 Q1.85 70.5 2.5 71.5 L2.5 73.4 Q8.6 75.9 20.0 78.25 45.95 83.5 81.0 83.5 108.1 83.5 115.0 79.65 L119.7 76.95 Q123.1 75.75 130.75 75.75 133.75 75.75 139.05 78.5 147.8 83.1 151.6 84.65 L155.45 86.1 157.75 86.9 Q177.55 93.3 207.55 93.5 L209.35 93.5 210.6 93.5 210.8 93.5 211.75 93.5 241.05 90.0 241.7 89.85 246.2 88.75 254.25 86.25 Q259.55 84.45 268.05 81.25 274.7 79.0 278.85 79.0 284.35 79.0 286.75 81.75 L288.9 84.55 Q290.3 86.45 291.9 87.75 L292.05 87.85 292.15 87.95 292.25 88.0 292.35 88.1 293.2 88.7 Q303.2 95.35 333.9 96.35 L343.3 96.5 343.7 96.5 344.1 96.5 344.5 96.5 345.35 96.5 Q363.55 96.5 375.8 94.35 L378.1 93.9 Q385.9 92.3 391.1 89.75 L399.6 85.1 Q404.3 83.0 411.0 83.0 415.85 83.0 420.7 85.4 L420.9 85.5 421.15 85.65 421.55 85.85 423.0 86.65 423.25 86.75 425.4 87.95 427.15 88.9 430.45 90.75 Q442.25 96.6 460.9 98.05 L465.35 98.3 473.85 98.5 Q489.7 98.5 505.6 93.15 L516.15 89.45 Q521.4 87.75 524.85 87.75 L536.1 92.15 Q544.7 95.15 550.85 96.1 L551.1 95.35 551.95 95.45 551.95 151.15 545.75 151.5 544.85 151.5 Q521.7 151.5 506.9 144.75 504.35 143.55 502.0 142.15 L498.85 140.1 496.4 138.4 495.75 138.0 Q492.2 138.0 491.1 140.1 490.3 143.05 489.4 144.75 485.75 151.35 465.35 151.5 L464.35 151.5 460.35 151.45 455.8 151.2 455.35 151.2 452.2 150.9 450.2 150.7 448.65 150.5 Q437.05 148.9 427.05 144.9 L426.55 144.7 426.2 144.55 426.1 144.5 425.7 144.35 424.7 143.9 424.45 143.8 424.25 143.7 423.6 143.4 422.0 142.65 421.5 142.4 420.65 141.95 415.35 139.05 414.8 138.75 414.75 138.7 414.65 138.65 Q410.7 136.25 410.25 136.25 406.95 136.25 404.0 138.8 398.95 143.2 396.95 144.4 390.3 148.3 378.45 150.35 L373.95 151.0 346.85 152.5 323.45 151.45 317.85 150.8 Q295.5 147.8 282.25 139.75 280.5 138.7 277.55 136.4 275.15 134.6 272.0 132.0 L270.75 131.0 Q265.9 127.0 262.1 127.0 257.9 127.0 251.3 130.65 L237.25 138.75 235.4 139.75 234.95 139.95 230.05 142.2 229.8 142.3 229.3 142.55 228.9 142.7 228.4 142.9 Q223.85 144.75 219.1 146.15 L218.95 146.2 213.45 147.65 Q201.15 150.5 187.5 150.5 178.7 150.5 170.9 150.1 L164.5 149.65 156.55 148.85 151.75 148.25 151.6 148.2 132.9 143.95 127.85 142.1 125.95 141.25 115.8 135.8 114.1 134.9 113.95 134.85 Q112.4 134.0 110.85 133.45 107.1 132.0 103.5 132.0 95.65 132.0 74.35 142.25 72.35 143.2 70.6 144.05 L65.75 146.35 59.25 149.3 Q51.65 152.5 48.0 152.5 37.15 152.5 24.8 147.3 L18.45 144.3 12.3 140.9 12.15 140.8 11.9 140.65 11.65 140.55 3.35 134.95 -1.0 131.35 -1.0 73.15 -0.7 71.85" fill="#095500" fill-rule="evenodd" stroke="none"/>
      <path d="M502.0 142.15 Q504.35 143.55 506.9 144.75 521.7 151.5 544.85 151.5 L545.7 151.75 545.75 151.5 551.95 151.15 551.95 231.75 547.7 231.6 541.45 231.5 541.3 231.5 540.75 231.5 540.55 231.5 540.35 231.5 523.35 232.9 523.35 229.0 Q520.25 213.5 518.25 205.35 514.8 191.1 510.35 181.0 507.0 173.35 504.6 156.45 503.4 148.15 502.0 142.15 M460.35 151.45 L460.35 155.5 460.35 182.4 457.75 164.25 455.8 151.2 460.35 151.45 M414.8 138.75 L411.0 161.85 Q401.35 220.7 401.35 226.25 401.35 227.25 401.8 229.2 L402.5 231.4 380.05 227.85 Q377.35 214.2 377.35 209.6 378.55 171.7 378.45 150.35 390.3 148.3 396.95 144.4 398.95 143.2 404.0 138.8 406.95 136.25 410.25 136.25 410.7 136.25 414.65 138.65 L414.75 138.7 414.8 138.75 M317.85 150.8 Q315.3 163.65 309.85 184.55 304.35 205.65 304.35 222.5 L304.5 223.6 303.6 223.65 287.1 224.3 287.1 224.0 287.35 222.85 Q281.0 175.0 279.35 158.75 278.45 145.5 277.55 136.4 280.5 138.7 282.25 139.75 295.5 147.8 317.85 150.8 M230.0 142.35 L223.3 172.6 220.25 153.75 219.1 146.15 Q223.85 144.75 228.4 142.9 L228.9 142.7 229.3 142.55 229.8 142.3 230.0 142.35 M164.5 149.65 L160.9 172.55 158.8 186.5 156.75 163.55 Q156.6 160.95 156.55 148.85 L164.5 149.65 M110.85 133.45 Q108.85 139.75 107.45 147.95 L103.75 171.75 97.8 197.65 Q93.5 216.35 93.5 219.0 93.5 219.8 95.2 221.65 L85.2 222.05 Q83.8 212.0 76.25 172.8 L70.6 144.05 Q72.35 143.2 74.35 142.25 95.65 132.0 103.5 132.0 107.1 132.0 110.85 133.45 M18.45 144.3 L16.5 163.5 Q16.5 174.5 14.0 194.4 11.5 214.3 11.5 223.85 11.5 224.95 12.2 226.2 L11.4 226.55 Q2.95 228.15 -1.0 230.05 L-1.0 131.35 3.35 134.95 11.65 140.55 11.9 140.65 12.15 140.8 12.3 140.9 18.45 144.3" fill="#4d3d00" fill-rule="evenodd" stroke="none"/>
      <path d="M496.4 138.4 L498.85 140.1 502.0 142.15 Q503.4 148.15 504.6 156.45 507.0 173.35 510.35 181.0 514.8 191.1 518.25 205.35 520.25 213.5 523.35 229.0 L523.35 232.9 540.35 231.5 540.55 231.5 540.75 231.5 541.3 231.5 541.45 231.5 547.7 231.6 551.95 231.75 551.95 237.35 539.5 237.0 Q528.45 237.0 503.7 240.75 478.95 244.5 464.35 244.5 L462.85 244.5 462.05 244.5 454.25 244.2 450.0 243.9 439.4 242.75 434.95 242.15 434.4 242.05 404.05 236.65 Q360.35 228.75 316.25 228.75 279.95 228.75 260.0 232.15 L246.4 234.45 228.35 235.5 203.35 234.3 Q201.85 233.95 200.15 233.05 198.35 232.1 196.45 231.65 182.2 227.9 85.25 227.75 L77.85 227.75 Q34.4 227.75 12.4 232.15 5.25 233.55 1.5 235.0 -0.05 235.55 -1.0 236.15 L-1.0 230.05 Q2.95 228.15 11.4 226.55 L12.3 226.4 12.2 226.2 Q11.5 224.95 11.5 223.85 11.5 214.3 14.0 194.4 16.5 174.5 16.5 163.5 L18.45 144.3 24.8 147.3 23.5 156.15 Q16.75 203.35 16.5 225.75 L42.0 222.75 78.0 222.5 78.35 222.5 80.65 222.35 Q76.35 205.95 65.75 146.35 L70.6 144.05 76.25 172.8 Q83.8 212.0 85.2 222.05 L95.2 221.65 Q93.5 219.8 93.5 219.0 93.5 216.35 97.8 197.65 L103.75 171.75 107.45 147.95 Q108.85 139.75 110.85 133.45 112.4 134.0 113.95 134.85 L114.1 134.9 115.8 135.8 Q114.25 145.45 109.4 170.1 102.25 206.35 98.5 221.25 L97.95 221.6 98.1 221.6 98.5 221.55 99.35 221.55 112.6 221.4 113.8 221.4 155.1 222.9 Q154.5 221.55 154.5 220.1 154.5 217.55 155.85 207.5 155.0 202.35 154.5 196.3 153.7 182.0 153.0 175.0 152.2 166.5 151.8 150.1 L151.75 148.25 156.55 148.85 Q156.6 160.95 156.75 163.55 L158.8 186.5 160.9 172.55 164.5 149.65 170.9 150.1 Q167.45 176.2 159.5 223.25 175.75 224.6 190.5 227.0 L213.25 230.25 214.2 230.25 225.15 230.1 226.65 230.05 Q224.75 225.0 216.4 167.9 L213.45 147.65 218.95 146.2 219.1 146.15 220.25 153.75 223.3 172.6 230.0 142.35 230.05 142.2 234.95 139.95 235.4 139.75 232.05 156.25 225.7 187.5 Q229.35 211.85 229.35 218.25 L229.1 229.5 228.2 230.0 229.15 230.0 231.4 229.9 260.7 227.2 262.5 226.9 263.1 226.8 263.65 226.7 263.95 226.65 264.25 226.6 264.8 226.55 265.1 226.5 265.2 226.5 265.3 226.45 265.35 226.45 265.6 226.4 265.85 226.35 266.2 226.3 277.15 225.05 281.55 224.65 Q278.45 205.7 275.15 171.8 272.9 148.6 272.0 132.0 275.15 134.6 277.55 136.4 278.45 145.5 279.35 158.75 281.0 175.0 287.35 222.85 L287.1 224.0 287.0 224.3 287.1 224.3 303.6 223.65 304.5 223.6 304.35 222.5 Q304.35 205.65 309.85 184.55 315.3 163.65 317.85 150.8 L323.45 151.45 322.35 157.3 314.15 199.35 309.6 223.5 309.6 223.55 309.8 223.55 315.55 223.5 316.35 223.5 Q344.7 223.5 373.5 227.0 372.7 224.55 372.4 220.7 L372.35 209.6 Q372.35 190.5 373.95 151.0 L378.45 150.35 Q378.55 171.7 377.35 209.6 377.35 214.2 380.05 227.85 L402.5 231.4 401.8 229.2 Q401.35 227.25 401.35 226.25 401.35 220.7 411.0 161.85 L414.8 138.75 415.35 139.05 420.65 141.95 421.5 142.4 417.35 167.0 410.6 204.3 Q407.25 223.4 406.4 232.1 L433.35 236.8 Q448.3 239.0 461.55 239.25 460.05 231.85 460.05 222.2 L460.2 218.6 Q456.2 200.7 451.85 164.75 L450.2 150.7 452.2 150.9 455.35 151.2 455.8 151.2 457.75 164.25 460.35 182.4 460.35 155.5 460.35 151.45 464.35 151.5 465.35 151.5 465.35 239.25 Q480.1 239.1 505.05 235.4 L506.0 235.25 506.15 235.25 506.3 235.2 507.05 235.1 515.15 233.95 520.15 233.3 Q512.1 208.2 506.8 189.5 496.85 154.35 496.4 138.4" fill="#000000" fill-rule="evenodd" stroke="none"/>
      <path d="M465.35 151.5 Q485.75 151.35 489.4 144.75 490.3 143.05 491.1 140.1 492.2 138.0 495.75 138.0 L496.4 138.4 Q496.85 154.35 506.8 189.5 512.1 208.2 520.15 233.3 L515.15 233.95 507.05 235.1 506.3 235.2 506.15 235.25 506.0 235.25 505.05 235.4 Q480.1 239.1 465.35 239.25 L465.35 151.5 M373.95 151.0 Q372.35 190.5 372.35 209.6 L372.4 220.7 Q372.7 224.55 373.5 227.0 344.7 223.5 316.35 223.5 L315.55 223.5 309.8 223.55 309.6 223.5 314.15 199.35 322.35 157.3 323.45 151.45 346.85 152.5 373.95 151.0 M213.45 147.65 L216.4 167.9 Q224.75 225.0 226.65 230.05 L225.15 230.1 214.2 230.25 213.25 230.25 190.5 227.0 Q175.75 224.6 159.5 223.25 167.45 176.2 170.9 150.1 178.7 150.5 187.5 150.5 201.15 150.5 213.45 147.65 M65.75 146.35 Q76.35 205.95 80.65 222.35 L78.35 222.5 78.0 222.5 42.0 222.75 16.5 225.75 Q16.75 203.35 23.5 156.15 L24.8 147.3 Q37.15 152.5 48.0 152.5 51.65 152.5 59.25 149.3 L65.75 146.35" fill="#806600" fill-rule="evenodd" stroke="none"/>
      <path d="M450.2 150.7 L451.85 164.75 Q456.2 200.7 460.2 218.6 L460.05 222.2 Q460.05 231.85 461.55 239.25 448.3 239.0 433.35 236.8 L406.4 232.1 Q407.25 223.4 410.6 204.3 L417.35 167.0 421.5 142.4 422.0 142.65 423.6 143.4 424.25 143.7 424.45 143.8 424.7 143.9 425.7 144.35 426.1 144.5 426.2 144.55 426.55 144.7 427.05 144.9 Q437.05 148.9 448.65 150.5 L450.2 150.7 M272.0 132.0 Q272.9 148.6 275.15 171.8 278.45 205.7 281.55 224.65 L277.15 225.05 266.2 226.3 265.85 226.35 265.6 226.4 265.35 226.45 265.3 226.45 265.2 226.5 265.1 226.5 264.8 226.55 264.25 226.6 263.95 226.65 263.65 226.7 263.1 226.8 262.5 226.9 260.7 227.2 231.4 229.9 229.15 230.0 229.1 229.5 229.35 218.25 Q229.35 211.85 225.7 187.5 L232.05 156.25 235.4 139.75 237.25 138.75 251.3 130.65 Q257.9 127.0 262.1 127.0 265.9 127.0 270.75 131.0 L272.0 132.0 M151.75 148.25 L151.8 150.1 Q152.2 166.5 153.0 175.0 153.7 182.0 154.5 196.3 155.0 202.35 155.85 207.5 154.5 217.55 154.5 220.1 154.5 221.55 155.1 222.9 L113.8 221.4 112.6 221.4 99.35 221.55 98.5 221.55 98.5 221.25 Q102.25 206.35 109.4 170.1 114.25 145.45 115.8 135.8 L125.95 141.25 127.85 142.1 132.9 143.95 151.6 148.2 151.75 148.25" fill="#665100" fill-rule="evenodd" stroke="none"/>
      <path d="M-1.0 236.15 Q-0.05 235.55 1.5 235.0 5.25 233.55 12.4 232.15 34.4 227.75 77.85 227.75 L85.25 227.75 Q182.2 227.9 196.45 231.65 198.35 232.1 200.15 233.05 201.85 233.95 203.35 234.3 L228.35 235.5 246.4 234.45 260.0 232.15 Q279.95 228.75 316.25 228.75 360.35 228.75 404.05 236.65 L434.4 242.05 434.95 242.15 439.4 242.75 450.0 243.9 454.25 244.2 462.05 244.5 462.85 244.5 464.35 244.5 Q478.95 244.5 503.7 240.75 528.45 237.0 539.5 237.0 L551.95 237.35 551.95 400.0 -1.0 400.0 -1.0 236.15 M515.35 289.75 Q515.35 292.25 515.6 292.0 L518.35 292.5 Q520.85 292.5 521.1 291.75 521.85 288.45 527.9 273.45 533.35 259.85 533.35 256.85 533.35 255.3 532.55 254.95 L530.85 254.5 Q525.85 258.8 520.15 274.1 515.35 287.0 515.35 289.75 M505.35 280.75 L506.05 286.75 Q507.35 292.5 510.35 292.5 512.85 292.5 513.35 291.25 L511.6 280.75 Q510.75 276.15 507.85 273.5 506.4 274.65 505.7 277.75 L505.35 280.75 M482.05 353.8 Q479.35 364.5 479.35 369.1 479.35 371.8 481.85 374.5 L484.1 373.75 Q484.5 367.0 487.45 354.35 L490.35 341.85 Q490.35 340.3 489.55 339.95 L487.85 339.5 Q485.1 341.75 482.05 353.8 M466.35 359.35 Q466.35 360.95 468.6 367.1 471.35 374.5 473.85 374.5 476.35 374.5 476.1 373.5 L476.35 370.85 Q471.0 356.5 468.85 356.5 467.05 356.5 466.65 357.0 466.35 357.4 466.35 359.35 M405.1 291.75 L405.35 289.5 Q400.6 266.5 395.85 266.5 L393.65 266.7 Q393.35 266.95 393.35 268.75 401.6 292.5 402.85 292.5 405.35 292.5 405.1 291.75 M415.05 245.95 Q414.65 245.5 412.85 245.5 408.7 245.5 407.65 260.0 407.1 267.4 407.35 276.1 407.35 288.6 409.85 293.5 410.85 293.25 412.1 292.5 412.4 284.25 413.95 268.9 415.35 255.35 415.35 248.25 415.35 246.3 415.05 245.95 M7.75 355.0 L7.5 357.25 Q16.6 376.5 18.0 376.5 20.5 376.5 20.5 375.25 20.5 370.5 16.15 362.35 11.9 354.5 10.0 354.5 L8.2 354.75 7.75 355.0 M20.5 357.5 L20.5 367.65 Q21.25 377.5 25.0 377.5 27.5 377.5 27.25 376.75 L27.5 374.1 Q28.05 364.35 27.8 359.25 27.3 350.15 23.0 345.5 21.15 346.7 20.65 350.7 20.5 352.1 20.5 357.5 M224.3 358.7 Q225.35 356.6 225.35 353.85 225.35 352.3 224.55 351.95 L222.85 351.5 Q215.75 355.65 214.1 361.35 213.5 363.45 213.5 371.85 213.5 379.8 216.0 382.5 L218.5 381.25 Q218.5 368.65 221.95 362.6 L224.3 358.7 M201.5 368.5 Q201.5 372.85 201.75 374.15 202.4 377.4 205.0 379.5 L207.25 378.75 207.5 375.35 Q207.5 366.35 204.0 362.5 201.5 364.0 201.5 368.5 M551.85 396.75 L551.75 396.35 550.85 396.5 551.85 396.75" fill="#0f8701" fill-rule="evenodd" stroke="none"/>
      <path d="M415.05 245.95 Q415.35 246.3 415.35 248.25 415.35 255.35 413.95 268.9 412.4 284.25 412.1 292.5 410.85 293.25 409.85 293.5 407.35 288.6 407.35 276.1 407.1 267.4 407.65 260.0 408.7 245.5 412.85 245.5 414.65 245.5 415.05 245.95 M405.1 291.75 Q405.35 292.5 402.85 292.5 401.6 292.5 393.35 268.75 393.35 266.95 393.65 266.7 L395.85 266.5 Q400.6 266.5 405.35 289.5 L405.1 291.75 M466.35 359.35 Q466.35 357.4 466.65 357.0 467.05 356.5 468.85 356.5 471.0 356.5 476.35 370.85 L476.1 373.5 Q476.35 374.5 473.85 374.5 471.35 374.5 468.6 367.1 466.35 360.95 466.35 359.35 M482.05 353.8 Q485.1 341.75 487.85 339.5 L489.55 339.95 Q490.35 340.3 490.35 341.85 L487.45 354.35 Q484.5 367.0 484.1 373.75 L481.85 374.5 Q479.35 371.8 479.35 369.1 479.35 364.5 482.05 353.8 M505.35 280.75 L505.7 277.75 Q506.4 274.65 507.85 273.5 510.75 276.15 511.6 280.75 L513.35 291.25 Q512.85 292.5 510.35 292.5 507.35 292.5 506.05 286.75 L505.35 280.75 M515.35 289.75 Q515.35 287.0 520.15 274.1 525.85 258.8 530.85 254.5 L532.55 254.95 Q533.35 255.3 533.35 256.85 533.35 259.85 527.9 273.45 521.85 288.45 521.1 291.75 520.85 292.5 518.35 292.5 L515.6 292.0 Q515.35 292.25 515.35 289.75 M20.5 357.5 Q20.5 352.1 20.65 350.7 21.15 346.7 23.0 345.5 27.3 350.15 27.8 359.25 28.05 364.35 27.5 374.1 L27.25 376.75 Q27.5 377.5 25.0 377.5 21.25 377.5 20.5 367.65 L20.5 357.5 M7.75 355.0 L8.2 354.75 10.0 354.5 Q11.9 354.5 16.15 362.35 20.5 370.5 20.5 375.25 20.5 376.5 18.0 376.5 16.6 376.5 7.5 357.25 L7.75 355.0 M201.5 368.5 Q201.5 364.0 204.0 362.5 207.5 366.35 207.5 375.35 L207.25 378.75 205.0 379.5 Q202.4 377.4 201.75 374.15 201.5 372.85 201.5 368.5 M224.3 358.7 L221.95 362.6 Q218.5 368.65 218.5 381.25 L216.0 382.5 Q213.5 379.8 213.5 371.85 213.5 363.45 214.1 361.35 215.75 355.65 222.85 351.5 L224.55 351.95 Q225.35 352.3 225.35 353.85 225.35 356.6 224.3 358.7" fill="#12a001" fill-rule="evenodd" stroke="none"/>
    </g>
  </defs>
</svg>
