<?xml version="1.0" encoding="UTF-8" standalone="no"?>
<svg xmlns:xlink="http://www.w3.org/1999/xlink" height="842.55px" width="1337.95px" xmlns="http://www.w3.org/2000/svg">
  <g transform="matrix(1, 0, 0, 1, 407.45, 285.05)">
    <use height="4.5" transform="matrix(5.4867, 0.0, 0.0, 81.5667, 3.2875, 23.0167)" width="99.75" xlink:href="#shape0"/>
    <use height="400.45" transform="matrix(1.0002, 0.0, 0.0, 0.9998, 0.0495, 0.0488)" width="551.25" xlink:href="#sprite0"/>
    <use height="32.5" transform="matrix(7.7123, 0.0, 0.0, 7.7123, 184.4, 23.15)" width="32.5" xlink:href="#sprite1"/>
  </g>
  <defs>
    <g id="shape0" transform="matrix(1, 0, 0, 1, 49.85, -2.5)">
      <path d="M49.9 7.0 L-49.85 7.0 -49.85 2.5 49.9 2.5 49.9 7.0" fill="#ffffff" fill-rule="evenodd" stroke="none"/>
    </g>
    <g id="sprite0" transform="matrix(1, 0, 0, 1, 275.85, 200.0)">
      <use height="400.45" transform="matrix(1.0, 0.0, 0.0, 1.0, -275.85, -200.0)" width="551.25" xlink:href="#shape1"/>
      <use height="139.35" transform="matrix(1.0, 0.0, 0.0, 1.0, -21.5, -86.75)" width="148.05" xlink:href="#shape2"/>
      <use height="100.35" transform="matrix(1.0, 0.0, 0.0, 1.0, -103.95, -194.7)" width="258.25" xlink:href="#shape3"/>
    </g>
    <g id="shape1" transform="matrix(1, 0, 0, 1, 275.85, 200.0)">
      <path d="M-188.6 -122.45 L-188.6 -200.0 170.5 -200.0 170.5 -122.45 -188.6 -122.45" fill="#ccfbff" fill-rule="evenodd" stroke="none"/>
      <path d="M170.5 -122.45 L187.0 -122.45 Q189.25 -121.85 189.25 -120.1 189.25 -118.2 187.0 -117.95 L170.5 -117.95 -188.6 -117.95 -189.2 -117.95 Q-191.45 -119.5 -191.45 -120.05 -191.45 -121.45 -189.2 -122.45 L-188.6 -122.45 170.5 -122.45" fill="#000000" fill-rule="evenodd" stroke="none"/>
      <path d="M170.5 -117.95 L170.5 -32.6 -188.6 -32.6 -188.6 -117.95 170.5 -117.95" fill="#e6ffef" fill-rule="evenodd" stroke="none"/>
      <path d="M275.25 200.45 L-275.85 200.45 -275.85 43.85 275.25 43.85 275.25 200.45" fill="#faf3eb" fill-rule="evenodd" stroke="none"/>
      <path d="M-85.95 -103.2 Q-82.8 -103.05 -83.15 -100.9 -83.15 -100.7 -86.4 -99.5 -90.7 -97.95 -100.5 -94.75 -119.35 -88.65 -123.5 -86.15 L-139.95 -76.7 Q-150.4 -70.75 -154.55 -66.8 -175.9 -46.3 -190.55 -28.1 L-194.6 -22.7 -197.3 -18.6 Q-200.1 -14.2 -202.65 -9.2 L-212.45 10.6 Q-213.95 13.5 -215.9 19.5 L-215.9 10.2 -213.2 4.5 Q-201.55 -19.75 -193.85 -31.1 -173.65 -60.85 -136.4 -83.5 -121.3 -92.65 -107.35 -98.1 -94.1 -103.25 -86.6 -103.25 L-85.95 -103.2 M-155.3 35.05 L-154.8 34.35 Q-154.15 33.55 -153.2 33.55 L-151.8 34.0 Q-149.45 34.9 -143.55 37.8 -134.1 42.35 -129.8 43.45 L-115.85 46.8 -109.95 48.15 -104.05 49.35 -96.95 50.9 Q-96.95 52.35 -98.45 52.9 -100.35 53.65 -105.8 53.65 -115.5 53.65 -135.6 46.2 -155.45 38.8 -155.45 35.65 L-155.3 35.05" fill="#000000" fill-rule="evenodd" stroke="none"/>
      <path d="M-197.3 -18.6 L-194.6 -22.7 -190.55 -28.1 Q-175.9 -46.3 -154.55 -66.8 -150.4 -70.75 -139.95 -76.7 L-123.5 -86.15 Q-119.35 -88.65 -100.5 -94.75 -90.7 -97.95 -86.4 -99.5 -83.15 -100.7 -83.15 -100.9 -82.8 -103.05 -85.95 -103.2 -85.35 -103.85 -84.2 -103.85 -83.7 -103.85 -79.55 -96.45 -74.95 -88.3 -74.45 -84.2 L-72.35 -64.4 Q-72.35 -62.2 -79.15 -36.65 -86.05 -11.05 -86.15 -6.8 -86.2 -2.75 -89.45 6.85 -92.6 16.1 -97.15 26.05 -104.8 42.75 -109.95 48.15 L-115.85 46.8 -129.8 43.45 Q-134.1 42.35 -143.55 37.8 -149.45 34.9 -151.8 34.0 L-153.2 33.55 Q-154.15 33.55 -154.8 34.35 L-155.3 35.05 Q-163.1 34.4 -172.4 23.05 L-179.25 13.65 -183.65 7.0 Q-185.35 4.6 -191.45 -6.75 -195.85 -14.95 -197.3 -18.6" fill="#b4e1fe" fill-rule="evenodd" stroke="none"/>
      <path d="M275.4 43.55 L275.4 46.45 Q214.45 46.5 150.4 45.45 L150.0 46.15 134.6 45.4 134.5 45.25 134.4 45.25 129.8 45.05 129.55 45.15 129.0 45.25 127.9 45.1 127.1 44.4 126.9 44.3 Q126.45 44.0 126.6 43.6 L126.75 43.15 126.75 43.0 126.75 42.7 126.8 42.55 127.25 41.55 Q129.5 36.75 143.1 13.0 154.25 -6.5 158.95 -13.0 L152.4 -12.95 Q146.6 -12.95 138.8 -14.5 L138.75 -15.05 Q138.75 -15.75 144.75 -31.7 151.2 -49.15 152.7 -55.1 153.5 -58.15 154.6 -65.7 L156.6 -78.65 Q157.6 -84.35 158.75 -87.95 L153.4 -84.35 153.35 -84.35 143.7 -83.15 137.75 -83.4 137.4 -83.15 136.2 -83.3 135.5 -83.75 138.2 -95.65 Q146.25 -131.15 148.4 -137.2 L143.9 -137.4 143.45 -137.8 137.7 -137.75 129.15 -138.35 129.0 -138.35 128.9 -138.4 Q126.65 -154.8 125.55 -173.75 125.35 -178.15 125.55 -181.85 125.7 -184.85 126.15 -186.6 L105.15 -178.25 105.05 -178.25 104.85 -178.15 104.7 -178.1 104.25 -177.95 104.05 -177.85 102.25 -177.15 101.2 -176.75 101.1 -176.75 100.95 -176.75 100.8 -176.75 100.35 -176.8 99.95 -176.9 93.6 -176.75 85.65 -176.95 Q82.4 -179.35 76.95 -188.8 L71.2 -200.0 75.35 -200.0 75.75 -199.4 78.5 -195.4 79.25 -194.25 87.55 -182.05 87.65 -181.95 87.9 -181.55 87.95 -181.45 88.15 -181.2 88.25 -181.05 93.6 -181.25 95.15 -181.2 Q91.7 -185.4 86.85 -193.5 L86.6 -193.85 85.45 -195.8 83.2 -199.7 83.05 -200.0 89.05 -200.0 89.85 -198.9 90.55 -197.95 95.95 -190.3 96.45 -189.6 102.3 -180.95 116.0 -187.2 Q133.65 -195.05 136.2 -195.05 137.45 -195.05 139.3 -184.25 L142.05 -167.75 145.0 -152.6 146.75 -141.5 153.0 -141.65 Q161.45 -141.65 163.35 -140.55 164.0 -140.2 163.9 -139.75 L163.65 -139.3 161.35 -126.85 Q158.9 -114.15 158.4 -109.85 L156.3 -93.65 155.9 -91.75 161.55 -96.05 Q174.65 -105.65 178.5 -105.65 181.5 -105.65 181.05 -102.2 L172.8 -55.85 Q171.65 -49.25 168.9 -28.25 168.05 -23.0 167.1 -19.25 L168.75 -19.85 Q176.3 -22.25 181.8 -22.25 187.2 -22.25 186.45 -19.9 186.45 -17.7 160.2 28.35 L204.85 28.0 223.0 27.9 228.4 27.8 243.6 27.7 275.4 27.7 275.4 31.9 255.35 31.85 Q205.05 31.7 158.65 31.05 L151.9 42.85 Q214.55 42.3 254.9 43.3 L275.4 43.55 M128.35 -187.5 Q129.1 -183.5 130.05 -169.35 L131.25 -149.35 131.25 -143.25 131.15 -142.05 137.7 -142.25 141.35 -142.15 Q139.7 -147.2 138.0 -157.3 135.55 -171.65 133.95 -189.2 L133.8 -189.65 133.15 -189.35 128.35 -187.5 M152.25 -136.55 Q143.25 -98.5 139.55 -87.55 L143.7 -87.65 148.3 -87.5 152.05 -106.3 Q156.85 -129.7 157.95 -137.0 L152.35 -137.05 152.25 -136.55 M160.5 -17.15 L166.5 -48.45 Q173.8 -85.9 175.5 -98.15 L175.6 -98.4 175.65 -98.6 175.4 -98.45 Q173.3 -97.55 165.5 -92.4 L165.45 -91.25 Q165.45 -90.4 162.85 -78.5 159.7 -64.2 156.45 -51.65 149.8 -25.95 145.2 -17.3 L152.4 -17.45 160.5 -17.15 M172.25 -15.1 L171.8 -14.9 168.8 -13.65 163.85 -11.35 163.1 -10.75 Q161.2 -7.05 156.15 0.95 L146.55 16.0 Q141.25 27.3 137.95 33.65 L134.0 40.5 133.95 40.5 133.8 40.75 134.4 40.75 143.3 42.0 146.25 42.2 Q149.3 36.25 158.7 20.2 175.75 -9.2 179.85 -17.0 L180.0 -17.45 179.9 -17.4 179.8 -17.4 179.45 -17.35 172.25 -15.1 M141.9 41.95 L142.75 41.95 141.75 41.85 141.85 41.95 141.9 41.95 M-41.3 -200.0 L-40.7 -199.2 -35.0 -191.7 Q-31.75 -194.2 -23.05 -199.05 L-21.35 -200.0 -11.25 -200.0 -17.1 -196.55 Q-33.4 -186.95 -34.8 -186.95 L-35.1 -186.95 -35.4 -186.95 Q-37.3 -186.95 -43.1 -194.7 L-46.85 -200.0 -41.3 -200.0 M-67.85 -200.0 L-60.25 -200.0 -62.5 -198.3 Q-70.25 -192.55 -73.8 -189.35 -76.95 -186.55 -82.65 -178.9 L-85.95 -174.7 Q-85.95 -172.85 -88.05 -172.55 L-88.2 -172.55 -88.45 -172.55 -88.8 -172.55 -88.9 -172.6 -90.1 -173.2 Q-105.6 -180.9 -110.55 -185.45 -110.4 -179.4 -111.8 -170.3 L-114.6 -155.3 Q-120.05 -126.35 -121.2 -126.35 L-121.35 -126.35 Q-122.0 -125.75 -123.3 -125.75 L-130.6 -131.55 Q-138.2 -137.8 -140.55 -139.1 L-140.55 -75.85 Q-140.55 -73.55 -143.1 -73.55 L-143.35 -73.55 -143.85 -73.45 -163.95 -72.65 Q-162.45 -63.55 -156.2 -30.85 -150.75 -2.2 -150.75 -0.85 L-150.75 -0.35 -150.75 0.5 Q-150.75 1.35 -151.45 1.95 L-152.65 2.65 -153.6 2.95 -164.1 4.75 -147.95 27.25 Q-143.2 33.35 -137.2 43.7 L-137.1 44.5 -136.75 45.6 -136.9 46.45 -137.2 46.95 -137.7 47.3 -137.9 47.4 Q-138.2 47.6 -182.3 47.45 -230.5 47.3 -275.0 46.65 L-275.0 43.95 -209.45 43.4 Q-166.8 43.4 -142.9 42.7 L-150.8 31.7 -151.05 31.8 Q-151.4 32.0 -195.1 31.85 -236.35 31.75 -275.0 31.25 L-275.0 28.25 -222.05 27.8 -206.85 27.7 -153.65 27.7 -172.05 2.05 Q-172.05 1.25 -171.05 0.95 L-160.8 -0.35 Q-159.3 -0.45 -157.15 -1.15 L-155.0 -1.8 Q-159.1 -15.9 -169.05 -74.8 L-169.2 -76.0 Q-169.15 -76.6 -168.3 -76.85 L-155.4 -77.45 -145.2 -77.05 Q-146.15 -81.8 -145.65 -92.95 L-145.05 -121.1 Q-144.15 -148.85 -142.8 -148.85 -141.85 -148.85 -131.25 -138.5 L-123.4 -130.9 -123.45 -132.25 Q-123.45 -137.8 -121.25 -148.55 -118.55 -161.95 -118.35 -163.55 -114.6 -193.25 -112.5 -193.25 L-89.95 -177.6 Q-88.7 -180.85 -84.25 -185.35 L-74.25 -194.9 -73.7 -195.3 -69.6 -198.55 -67.85 -200.0" fill="#000000" fill-rule="evenodd" stroke="none"/>
      <path d="M275.4 27.7 L243.6 27.7 228.4 27.8 223.0 27.9 204.85 28.0 160.2 28.35 Q186.45 -17.7 186.45 -19.9 187.2 -22.25 181.8 -22.25 176.3 -22.25 168.75 -19.85 L167.1 -19.25 Q168.05 -23.0 168.9 -28.25 171.65 -49.25 172.8 -55.85 L181.05 -102.2 Q181.5 -105.65 178.5 -105.65 174.65 -105.65 161.55 -96.05 L155.9 -91.75 156.3 -93.65 158.4 -109.85 Q158.9 -114.15 161.35 -126.85 L163.65 -139.3 163.9 -139.75 Q164.0 -140.2 163.35 -140.55 161.45 -141.65 153.0 -141.65 L146.75 -141.5 145.0 -152.6 142.05 -167.75 139.3 -184.25 Q137.45 -195.05 136.2 -195.05 133.65 -195.05 116.0 -187.2 L102.3 -180.95 96.45 -189.6 95.95 -190.3 90.55 -197.95 89.85 -198.9 89.05 -200.0 275.4 -200.0 275.4 27.7 M83.05 -200.0 L83.2 -199.7 85.45 -195.8 86.6 -193.85 86.85 -193.5 Q91.7 -185.4 95.15 -181.2 L93.6 -181.25 88.25 -181.05 88.15 -181.2 87.95 -181.45 87.9 -181.55 87.65 -181.95 87.55 -182.05 79.25 -194.25 78.5 -195.4 75.75 -199.4 75.35 -200.0 83.05 -200.0 M172.25 -15.1 L179.45 -17.35 179.8 -17.4 179.9 -17.4 180.0 -17.45 179.85 -17.0 Q175.75 -9.2 158.7 20.2 149.3 36.25 146.25 42.2 L143.3 42.0 134.4 40.75 133.8 40.75 133.95 40.5 134.0 40.5 137.95 33.65 Q141.25 27.3 146.55 16.0 L156.15 0.95 Q161.2 -7.05 163.1 -10.75 L163.85 -11.35 168.8 -13.65 171.8 -14.9 172.25 -15.1 M160.5 -17.15 L152.4 -17.45 145.2 -17.3 Q149.8 -25.95 156.45 -51.65 159.7 -64.2 162.85 -78.5 165.45 -90.4 165.45 -91.25 L165.5 -92.4 Q173.3 -97.55 175.4 -98.45 L175.65 -98.6 175.6 -98.4 175.5 -98.15 Q173.8 -85.9 166.5 -48.45 L160.5 -17.15 M152.25 -136.55 L152.35 -137.05 157.95 -137.0 Q156.85 -129.7 152.05 -106.3 L148.3 -87.5 143.7 -87.65 139.55 -87.55 Q143.25 -98.5 152.25 -136.55 M128.35 -187.5 L133.15 -189.35 133.8 -189.65 133.95 -189.2 Q135.55 -171.65 138.0 -157.3 139.7 -147.2 141.35 -142.15 L137.7 -142.25 131.15 -142.05 131.25 -143.25 131.25 -149.35 130.05 -169.35 Q129.1 -183.5 128.35 -187.5 M141.9 41.95 L141.85 41.95 141.75 41.85 142.75 41.95 141.9 41.95 M-21.35 -200.0 L-23.05 -199.05 Q-31.75 -194.2 -35.0 -191.7 L-40.7 -199.2 -41.3 -200.0 -21.35 -200.0 M-67.85 -200.0 L-69.6 -198.55 -73.7 -195.3 -74.25 -194.9 -84.25 -185.35 Q-88.7 -180.85 -89.95 -177.6 L-112.5 -193.25 Q-114.6 -193.25 -118.35 -163.55 -118.55 -161.95 -121.25 -148.55 -123.45 -137.8 -123.45 -132.25 L-123.4 -130.9 -131.25 -138.5 Q-141.85 -148.85 -142.8 -148.85 -144.15 -148.85 -145.05 -121.1 L-145.65 -92.95 Q-146.15 -81.8 -145.2 -77.05 L-155.4 -77.45 -168.3 -76.85 Q-169.15 -76.6 -169.2 -76.0 L-169.05 -74.8 Q-159.1 -15.9 -155.0 -1.8 L-157.15 -1.15 Q-159.3 -0.45 -160.8 -0.35 L-171.05 0.95 Q-172.05 1.25 -172.05 2.05 L-153.65 27.7 -206.85 27.7 -222.05 27.8 -275.0 28.25 -275.0 -200.0 -67.85 -200.0" fill="#ffe6e6" fill-rule="evenodd" stroke="none"/>
      <path d="M275.4 43.55 L254.9 43.3 Q214.55 42.3 151.9 42.85 L158.65 31.05 Q205.05 31.7 255.35 31.85 L275.4 31.9 275.4 43.55 M-275.0 31.25 Q-236.35 31.75 -195.1 31.85 -151.4 32.0 -151.05 31.8 L-150.8 31.7 -142.9 42.7 Q-166.8 43.4 -209.45 43.4 L-275.0 43.95 -275.0 31.25" fill="#ffffff" fill-rule="evenodd" stroke="none"/>
      <path d="M93.9 45.6 Q94.4 46.25 94.45 47.5 L93.9 48.55 94.05 48.75 94.2 48.95 95.75 51.05 95.75 51.1 96.0 51.4 Q99.3 56.05 102.1 56.05 103.7 56.05 105.35 55.0 106.9 53.95 108.7 53.95 111.65 53.95 114.2 57.2 116.7 60.4 117.55 60.4 127.95 60.4 129.4 57.8 130.2 56.2 130.6 56.0 131.75 55.15 135.4 55.15 139.3 55.15 144.8 58.3 L150.05 61.45 Q151.4 61.45 152.6 60.1 L154.75 57.1 Q158.1 52.75 163.6 52.75 L168.95 53.35 168.4 50.65 168.25 50.1 168.2 49.75 167.85 48.1 Q166.15 40.05 166.15 38.75 166.15 36.75 166.95 35.95 L167.1 35.8 Q167.6 35.35 168.4 35.35 169.3 35.35 172.75 49.2 L176.05 63.1 Q176.05 64.15 172.8 66.1 169.3 68.2 164.1 70.15 150.45 75.25 136.9 75.25 L132.1 75.15 Q131.25 77.75 125.55 81.85 117.95 87.25 110.8 87.25 95.1 87.25 89.2 77.35 86.35 72.55 86.35 66.55 L86.35 62.05 86.4 61.75 Q82.15 58.85 82.15 57.1 82.15 56.5 86.7 50.8 91.3 44.95 92.2 44.95 93.3 44.95 93.9 45.6 M165.85 57.4 Q160.9 57.4 157.35 61.85 L154.5 64.9 Q152.65 66.25 150.1 66.25 148.3 66.25 142.7 63.1 137.0 59.95 135.4 59.95 133.75 59.95 132.8 60.75 L131.2 62.5 Q128.75 65.05 121.9 65.05 115.0 65.05 111.35 61.85 110.2 60.85 109.45 59.65 L108.85 58.6 Q107.6 58.6 105.7 59.75 103.75 60.85 102.1 60.85 96.95 60.85 92.95 55.3 92.0 53.95 91.2 52.45 L87.55 57.4 Q90.5 59.6 102.6 64.45 118.2 70.6 127.15 70.6 L143.35 70.6 150.6 69.9 157.1 67.6 Q163.45 65.15 171.1 62.8 L170.2 59.05 Q167.7 59.05 166.75 58.25 166.15 57.4 165.85 57.4 M92.0 70.6 Q95.45 82.45 110.8 82.45 116.25 82.45 123.05 77.2 L126.05 74.7 Q111.85 73.25 98.4 67.9 94.2 66.2 90.85 64.45 91.55 69.2 92.0 70.6 M7.15 58.2 L7.15 58.05 6.9 58.15 3.7 58.45 3.45 58.75 1.75 58.9 Q-3.0 58.85 -8.3 60.25 -9.05 60.45 -9.7 62.15 L-10.85 65.2 -12.65 70.0 Q-14.95 74.05 -19.1 74.05 -22.2 74.05 -24.8 71.8 -27.5 69.55 -29.3 69.55 -30.3 69.55 -35.75 75.7 -41.25 81.85 -44.0 81.85 -48.6 81.85 -52.7 79.25 -56.9 76.6 -57.95 76.6 -60.8 76.6 -69.5 83.45 -78.2 90.25 -79.7 90.25 -82.6 90.25 -87.45 86.75 -92.35 83.2 -92.75 83.2 -98.55 83.2 -98.7 87.05 L-98.85 89.65 -98.9 89.85 Q-92.85 93.95 -71.6 91.6 -59.7 91.6 -45.5 87.2 L-34.85 83.65 Q-28.95 81.55 -25.7 80.8 -15.05 78.3 -4.1 71.05 7.2 63.55 7.15 58.2 M6.45 69.0 L2.05 72.55 Q-6.3 78.5 -20.15 83.7 L-9.65 88.0 Q3.65 88.0 7.3 81.7 8.45 79.75 8.55 77.35 L8.35 75.25 Q8.35 72.4 6.85 69.8 L6.45 69.0 M-45.15 19.2 Q-48.65 15.9 -48.65 14.8 -48.65 12.55 -46.1 12.55 12.25 57.85 12.25 58.1 12.25 61.2 10.3 64.4 11.4 65.8 12.1 68.7 12.8 71.55 12.85 74.5 12.85 81.05 11.35 84.45 7.7 92.65 -3.8 92.65 -8.55 92.65 -16.4 90.1 -24.65 87.4 -24.65 85.3 -38.7 90.15 -54.5 93.1 -71.2 96.25 -84.2 96.25 -101.7 96.25 -107.4 88.3 -109.95 84.8 -110.9 78.95 -111.65 74.45 -111.65 66.5 L-111.5 64.9 Q-110.95 53.75 -110.2 48.35 -109.75 44.85 -109.0 47.95 L-108.4 51.1 -108.05 53.55 -105.9 69.75 Q-105.45 72.75 -105.35 77.95 -105.05 81.15 -102.95 84.75 L-102.05 82.5 Q-99.85 78.55 -94.4 78.55 -90.7 78.55 -85.7 82.1 L-81.05 85.6 Q-79.8 85.6 -70.9 78.8 -62.05 71.95 -58.7 71.95 -55.75 71.95 -51.6 74.5 -47.5 77.05 -44.65 77.05 -43.9 77.05 -38.1 70.9 -32.35 64.75 -29.3 64.75 -25.75 64.75 -23.1 67.0 -20.45 69.25 -19.75 69.25 -17.95 69.25 -16.65 67.0 L-14.45 61.9 Q-11.25 54.55 -4.1 54.55 L-0.65 54.75 -0.45 54.55 Q0.05 54.25 1.05 54.1 -8.45 47.75 -24.45 35.8 L-28.35 32.85 -28.4 32.85 -28.5 32.75 -28.55 32.7 -29.7 31.8 -36.6 26.45 Q-37.5 25.7 -38.35 25.05 L-39.75 23.9 -40.2 23.5 -40.35 23.4 -40.55 23.25 -44.7 19.6 -45.15 19.2" fill="#000000" fill-rule="evenodd" stroke="none"/>
      <path d="M92.0 70.6 Q91.55 69.2 90.85 64.45 94.2 66.2 98.4 67.9 111.85 73.25 126.05 74.7 L123.05 77.2 Q116.25 82.45 110.8 82.45 95.45 82.45 92.0 70.6 M6.45 69.0 L6.85 69.8 Q8.35 72.4 8.35 75.25 L8.55 77.35 Q8.45 79.75 7.3 81.7 3.65 88.0 -9.65 88.0 L-20.15 83.7 Q-6.3 78.5 2.05 72.55 L6.45 69.0" fill="#fff1dd" fill-rule="evenodd" stroke="none"/>
      <path d="M167.1 35.8 L166.95 35.95 Q166.15 36.75 166.15 38.75 166.15 40.05 167.85 48.1 L168.2 49.75 168.25 50.1 168.4 50.65 168.95 53.35 163.6 52.75 Q158.1 52.75 154.75 57.1 L152.6 60.1 Q151.4 61.45 150.05 61.45 L144.8 58.3 Q139.3 55.15 135.4 55.15 131.75 55.15 130.6 56.0 130.2 56.2 129.4 57.8 127.95 60.4 117.55 60.4 116.7 60.4 114.2 57.2 111.65 53.95 108.7 53.95 106.9 53.95 105.35 55.0 103.7 56.05 102.1 56.05 99.3 56.05 96.0 51.4 L95.75 51.1 95.75 51.05 94.2 48.95 94.05 48.75 93.9 48.55 94.45 47.5 Q94.4 46.25 93.9 45.6 L95.5 44.2 Q98.45 41.85 103.15 39.85 116.85 34.05 138.4 34.05 L145.95 34.35 145.75 33.55 Q145.75 31.7 148.5 30.45 152.05 28.75 159.4 28.75 164.1 28.75 166.85 35.65 L167.05 35.75 167.1 35.8 M112.35 39.8 L112.35 39.85 112.75 39.5 Q112.15 39.55 112.35 39.8 M-109.0 47.95 Q-108.1 45.2 -103.25 40.75 -98.0 35.9 -91.55 32.0 -88.25 29.9 -66.05 24.3 L-45.15 19.2 -44.7 19.6 -40.55 23.25 -40.35 23.4 -40.2 23.5 -39.75 23.9 -38.35 25.05 Q-37.5 25.7 -36.6 26.45 L-29.7 31.8 -28.55 32.7 -28.5 32.75 -28.4 32.85 -28.35 32.85 -24.45 35.8 Q-8.45 47.75 1.05 54.1 0.05 54.25 -0.45 54.55 L-0.65 54.75 -4.1 54.55 Q-11.25 54.55 -14.45 61.9 L-16.65 67.0 Q-17.95 69.25 -19.75 69.25 -20.45 69.25 -23.1 67.0 -25.75 64.75 -29.3 64.75 -32.35 64.75 -38.1 70.9 -43.9 77.05 -44.65 77.05 -47.5 77.05 -51.6 74.5 -55.75 71.95 -58.7 71.95 -62.05 71.95 -70.9 78.8 -79.8 85.6 -81.05 85.6 L-85.7 82.1 Q-90.7 78.55 -94.4 78.55 -99.85 78.55 -102.05 82.5 L-102.95 84.75 Q-105.05 81.15 -105.35 77.95 -105.45 72.75 -105.9 69.75 L-108.05 53.55 -108.4 51.1 -109.0 47.95" fill="#b4e1fe" fill-rule="evenodd" stroke="none"/>
      <path d="M165.85 57.4 Q166.15 57.4 166.75 58.25 167.7 59.05 170.2 59.05 L171.1 62.8 Q163.45 65.15 157.1 67.6 L150.6 69.9 143.35 70.6 127.15 70.6 Q118.2 70.6 102.6 64.45 90.5 59.6 87.55 57.4 L91.2 52.45 Q92.0 53.95 92.95 55.3 96.95 60.85 102.1 60.85 103.75 60.85 105.7 59.75 107.6 58.6 108.85 58.6 L109.45 59.65 Q110.2 60.85 111.35 61.85 115.0 65.05 121.9 65.05 128.75 65.05 131.2 62.5 L132.8 60.75 Q133.75 59.95 135.4 59.95 137.0 59.95 142.7 63.1 148.3 66.25 150.1 66.25 152.65 66.25 154.5 64.9 L157.35 61.85 Q160.9 57.4 165.85 57.4 M7.15 58.2 Q7.2 63.55 -4.1 71.05 -15.05 78.3 -25.7 80.8 -28.95 81.55 -34.85 83.65 L-45.5 87.2 Q-59.7 91.6 -71.6 91.6 -92.85 93.95 -98.9 89.85 L-98.85 89.65 -98.7 87.05 Q-98.55 83.2 -92.75 83.2 -92.35 83.2 -87.45 86.75 -82.6 90.25 -79.7 90.25 -78.2 90.25 -69.5 83.45 -60.8 76.6 -57.95 76.6 -56.9 76.6 -52.7 79.25 -48.6 81.85 -44.0 81.85 -41.25 81.85 -35.75 75.7 -30.3 69.55 -29.3 69.55 -27.5 69.55 -24.8 71.8 -22.2 74.05 -19.1 74.05 -14.95 74.05 -12.65 70.0 L-10.85 65.2 -9.7 62.15 Q-9.05 60.45 -8.3 60.25 -3.0 58.85 1.75 58.9 L3.45 58.75 3.7 58.45 6.9 58.15 7.15 58.2" fill="#ffffff" fill-rule="evenodd" stroke="none"/>
      <path d="M-37.45 -62.4 Q-28.7 -66.25 -7.1 -75.1 11.6 -83.3 18.1 -88.55 22.3 -91.9 47.2 -114.65 49.1 -114.65 49.4 -112.65 51.0 -109.8 52.05 -100.8 52.85 -94.15 53.05 -87.4 53.05 -79.15 50.85 -70.4 L45.85 -51.65 45.85 -48.5 61.45 -63.7 Q70.85 -73.4 73.9 -80.0 78.1 -88.95 79.75 -101.3 L80.25 -106.0 Q79.15 -107.55 79.15 -108.5 L79.3 -110.3 80.0 -110.65 Q80.55 -111.05 81.4 -111.05 83.65 -111.05 84.25 -108.0 L87.65 -104.2 Q94.25 -97.15 96.7 -95.9 98.2 -95.15 113.05 -89.7 126.7 -84.7 131.05 -81.95 149.2 -70.2 153.4 -51.95 L153.55 -61.75 Q153.55 -84.7 142.45 -99.7 140.6 -102.25 134.85 -108.5 131.35 -112.3 131.35 -114.2 L131.4 -114.65 126.4 -119.6 Q115.9 -130.15 105.1 -137.9 95.95 -144.45 86.35 -149.4 56.95 -164.45 22.9 -164.45 L0.1 -163.35 Q-14.7 -161.85 -25.0 -158.1 -43.6 -151.45 -63.2 -132.65 -77.0 -119.25 -80.15 -113.3 L-81.6 -110.4 -81.2 -110.45 -80.55 -110.4 -85.85 -101.9 -88.0 -97.85 Q-87.55 -94.9 -87.95 -89.45 -87.95 -78.35 -92.7 -66.95 -94.55 -62.6 -103.25 -46.5 -110.5 -33.2 -113.75 -22.7 -118.55 -7.5 -118.55 10.0 -118.55 17.8 -118.05 21.5 -117.6 25.0 -116.2 28.4 L-112.35 36.8 Q-109.05 44.0 -105.8 52.75 L-105.65 52.75 Q-105.1 44.85 -104.55 40.3 -103.6 31.75 -101.3 31.75 -100.1 31.75 -96.95 36.6 L-92.9 42.85 Q-90.25 46.2 -83.95 49.75 L-81.25 51.25 -81.95 48.75 Q-85.3 36.7 -85.85 31.15 L-87.5 14.8 -87.65 1.9 Q-87.75 -15.6 -87.05 -32.25 -86.25 -51.1 -84.55 -59.25 L-86.0 -59.15 Q-87.85 -59.15 -88.25 -60.9 L-88.25 -62.8 Q-88.25 -67.25 -84.35 -87.35 -83.95 -89.2 -84.05 -93.5 L-84.25 -101.15 Q-84.3 -102.55 -78.45 -107.4 L-78.95 -106.1 Q-78.95 -96.75 -80.15 -87.8 -82.0 -74.35 -82.7 -66.05 L-82.85 -65.6 -82.55 -65.7 Q-69.35 -70.85 -58.3 -77.9 -51.1 -82.6 -41.15 -90.8 L-17.15 -113.1 Q-16.2 -114.65 -15.8 -114.65 L-15.5 -114.65 -14.9 -115.25 Q-12.25 -115.25 -12.35 -112.9 -12.35 -111.7 -14.3 -109.2 -16.25 -103.9 -23.4 -89.2 -33.2 -69.15 -37.55 -62.6 L-37.7 -62.3 -37.45 -62.4 M143.95 -105.85 Q152.05 -94.75 154.9 -86.9 157.1 -80.95 157.75 -72.45 158.05 -68.0 158.05 -57.85 L158.05 -45.05 Q157.25 -33.35 153.4 -33.35 153.2 -33.35 152.5 -36.6 151.55 -41.45 150.45 -45.2 149.0 -50.25 147.05 -54.95 147.2 -47.2 148.0 -44.75 L151.45 -34.95 Q154.05 -28.8 157.6 -24.95 175.45 -5.65 175.45 14.65 175.45 21.2 173.95 31.8 171.75 47.65 167.8 47.65 165.45 47.65 164.35 41.95 L163.15 32.95 163.0 32.65 Q158.2 38.6 150.4 46.9 141.3 56.65 139.9 56.65 137.75 56.65 137.35 54.0 L137.35 51.2 137.6 48.35 Q130.05 61.45 127.3 61.45 125.0 61.45 123.25 56.9 121.75 53.0 121.75 49.45 L114.7 57.9 Q110.15 63.25 107.8 63.25 L106.6 63.1 105.7 62.5 Q105.55 58.45 105.55 50.6 L105.6 43.6 105.7 42.65 Q96.1 46.9 86.25 50.0 65.0 56.65 46.3 56.65 21.5 56.65 8.4 52.55 -4.7 48.45 -11.95 44.6 L-21.7 39.35 Q-24.2 38.0 -33.8 29.9 -43.4 21.8 -46.75 18.25 -47.15 21.8 -47.15 24.85 -47.15 33.2 -42.95 41.75 L-40.05 47.15 -37.7 51.85 Q-38.0 52.5 -38.65 52.8 L-48.35 48.25 Q-48.35 51.1 -45.95 58.4 -45.95 61.45 -48.8 61.45 -64.2 61.45 -71.75 44.05 L-74.7 53.3 Q-76.8 60.25 -78.2 60.25 -78.6 60.25 -80.25 54.7 L-82.1 54.85 Q-88.9 54.85 -94.25 49.2 L-97.6 44.95 -99.35 42.25 Q-101.95 66.85 -104.0 66.85 -106.3 66.85 -110.6 55.45 -115.2 42.05 -116.9 38.2 -121.5 27.8 -122.45 23.0 -123.05 19.85 -123.05 10.1 -123.05 -7.6 -120.9 -15.5 -119.7 -19.85 -116.75 -27.5 L-109.25 -46.4 Q-107.4 -51.05 -101.9 -60.25 -95.85 -70.55 -94.1 -74.3 -93.0 -76.6 -92.75 -89.95 L-92.4 -96.05 -92.45 -97.55 Q-92.45 -103.25 -83.9 -115.25 -74.75 -128.1 -61.3 -139.9 -45.6 -153.7 -29.15 -161.25 -14.05 -168.15 0.1 -168.95 4.2 -169.2 8.2 -168.95 8.2 -169.25 23.2 -169.25 53.1 -169.25 78.35 -158.95 L86.35 -155.3 Q94.3 -151.3 102.85 -145.55 137.45 -118.9 137.65 -113.65 140.15 -111.0 143.95 -105.85 M46.35 -105.9 Q43.15 -102.1 36.85 -96.85 29.15 -90.5 19.0 -83.75 8.25 -76.55 -13.75 -66.65 -35.85 -56.75 -41.3 -56.75 -43.35 -56.75 -43.8 -58.05 L-43.85 -59.5 Q-43.85 -61.85 -29.45 -87.65 L-23.85 -99.5 Q-30.3 -93.75 -40.25 -85.7 L-54.2 -75.65 Q-53.25 -74.75 -53.75 -72.35 -53.75 -70.85 -54.95 -61.1 -54.95 -55.8 -52.75 -49.5 -51.6 -46.1 -48.05 -38.2 -44.65 -30.8 -43.25 -26.45 -41.15 -19.6 -41.15 -13.4 -41.15 -8.55 -44.15 4.0 L-45.8 12.0 -42.85 15.7 Q-35.4 24.0 -14.95 38.2 5.5 52.35 36.5 52.6 67.5 52.85 85.1 46.6 102.65 40.3 118.65 31.35 133.8 22.85 143.8 14.7 154.15 6.25 154.15 2.05 154.15 0.6 150.6 -5.85 145.2 -15.6 142.75 -20.7 131.35 -44.65 131.35 -66.55 131.15 -69.4 131.4 -71.7 131.6 -73.95 132.3 -75.1 127.95 -77.45 120.15 -80.85 101.0 -89.2 98.2 -90.8 94.1 -93.1 87.2 -99.0 L84.25 -101.6 Q84.1 -94.85 81.2 -85.95 77.95 -76.0 73.45 -70.7 67.9 -64.1 56.9 -52.7 45.1 -40.55 43.9 -40.55 41.8 -40.55 41.35 -43.85 L41.35 -47.35 Q41.35 -54.3 42.5 -58.4 43.0 -60.25 44.95 -64.3 48.55 -71.8 48.55 -87.4 48.55 -93.75 47.05 -101.85 L46.35 -105.9 M168.45 36.1 L170.55 24.4 Q170.95 21.65 170.95 14.8 170.95 3.55 166.45 -5.35 163.8 -10.6 156.55 -19.35 149.4 -28.0 146.65 -33.55 142.15 -42.65 142.15 -54.25 141.95 -57.35 142.2 -59.9 142.4 -62.05 142.95 -63.25 140.55 -67.5 137.65 -71.45 137.05 -72.3 135.05 -73.5 L135.25 -71.65 136.1 -60.75 Q137.45 -43.25 140.35 -36.8 143.4 -30.0 152.9 -13.75 158.65 -3.9 158.65 2.15 158.65 7.15 148.6 16.2 L148.3 16.45 Q148.8 18.35 148.45 22.1 148.45 27.5 142.5 39.3 L141.85 48.25 141.85 48.7 142.05 48.55 Q148.55 42.65 163.9 24.55 165.9 24.55 167.2 29.55 L168.4 36.1 168.4 36.25 168.45 36.1 M-78.95 -60.8 Q-79.05 -55.75 -80.75 -45.55 -82.55 -34.9 -82.55 -29.6 -82.55 -19.25 -83.15 1.9 -83.15 16.8 -82.55 22.0 -81.8 28.7 -77.75 46.0 L-77.45 46.0 Q-77.1 42.6 -75.3 38.35 -73.0 32.95 -70.4 32.95 L-69.5 35.5 Q-68.35 38.65 -66.8 41.65 -61.6 51.3 -53.45 56.2 -51.65 57.35 -51.65 55.85 -51.65 54.65 -53.15 48.7 -54.65 42.75 -54.65 41.0 -54.65 38.35 -52.4 38.35 L-49.25 40.95 -49.7 39.05 Q-50.65 34.65 -51.2 29.35 L-51.65 24.85 Q-51.65 19.6 -50.65 13.05 L-50.6 13.05 -48.65 2.75 Q-45.65 -10.35 -45.65 -13.4 -45.65 -18.7 -47.75 -25.2 -49.05 -29.05 -52.55 -36.95 -55.95 -44.75 -57.25 -48.85 -59.45 -55.55 -59.45 -61.1 -59.35 -64.95 -58.85 -68.7 L-58.1 -72.9 Q-61.3 -70.65 -62.35 -69.95 -72.4 -63.4 -78.95 -60.8 M143.5 20.5 Q134.55 27.5 122.35 34.3 116.25 37.7 110.1 40.6 110.45 42.1 110.5 44.45 110.55 48.1 110.05 55.15 L110.2 55.3 116.3 47.65 Q121.2 41.35 122.2 41.35 124.95 41.35 126.05 46.35 L126.8 50.5 Q127.25 52.8 127.75 53.8 136.45 44.2 140.1 36.6 143.75 29.0 144.4 23.85 145.0 18.65 143.5 20.5" fill="#000000" fill-rule="evenodd" stroke="none"/>
      <path d="M-82.7 -66.05 Q-82.0 -74.35 -80.15 -87.8 -78.95 -96.75 -78.95 -106.1 L-78.45 -107.4 Q-84.3 -102.55 -84.25 -101.15 L-84.05 -93.5 Q-83.95 -89.2 -84.35 -87.35 -88.25 -67.25 -88.25 -62.8 L-88.25 -60.9 Q-87.85 -59.15 -86.0 -59.15 L-84.55 -59.25 Q-86.25 -51.1 -87.05 -32.25 -87.75 -15.6 -87.65 1.9 L-87.5 14.8 -85.85 31.15 Q-85.3 36.7 -81.95 48.75 L-81.25 51.25 -83.95 49.75 Q-90.25 46.2 -92.9 42.85 L-96.95 36.6 Q-100.1 31.75 -101.3 31.75 -103.6 31.75 -104.55 40.3 -105.1 44.85 -105.65 52.75 L-105.8 52.75 Q-109.05 44.0 -112.35 36.8 L-116.2 28.4 Q-117.6 25.0 -118.05 21.5 -118.55 17.8 -118.55 10.0 -118.55 -7.5 -113.75 -22.7 -110.5 -33.2 -103.25 -46.5 -94.55 -62.6 -92.7 -66.95 -87.95 -78.35 -87.95 -89.45 -87.55 -94.9 -88.0 -97.85 L-85.85 -101.9 -80.55 -110.4 -81.2 -110.45 -81.6 -110.4 -80.15 -113.3 Q-77.0 -119.25 -63.2 -132.65 -43.6 -151.45 -25.0 -158.1 -14.7 -161.85 0.1 -163.35 L22.9 -164.45 Q56.95 -164.45 86.35 -149.4 95.95 -144.45 105.1 -137.9 115.9 -130.15 126.4 -119.6 L131.4 -114.65 131.35 -114.2 Q131.35 -112.3 134.85 -108.5 140.6 -102.25 142.45 -99.7 153.55 -84.7 153.55 -61.75 L153.4 -51.95 Q149.2 -70.2 131.05 -81.95 126.7 -84.7 113.05 -89.7 98.2 -95.15 96.7 -95.9 94.25 -97.15 87.65 -104.2 L84.25 -108.0 Q83.65 -111.05 81.4 -111.05 80.55 -111.05 80.0 -110.65 L79.3 -110.3 79.15 -108.5 Q79.15 -107.55 80.25 -106.0 L79.75 -101.3 Q78.1 -88.95 73.9 -80.0 70.85 -73.4 61.45 -63.7 L45.85 -48.5 45.85 -51.65 50.85 -70.4 Q53.05 -79.15 53.05 -87.4 52.85 -94.15 52.05 -100.8 51.0 -109.8 49.4 -112.65 49.1 -114.65 47.2 -114.65 22.3 -91.9 18.1 -88.55 11.6 -83.3 -7.1 -75.1 -28.7 -66.25 -37.45 -62.4 L-37.55 -62.6 Q-33.2 -69.15 -23.4 -89.2 -16.25 -103.9 -14.3 -109.2 -12.35 -111.7 -12.35 -112.9 -12.25 -115.25 -14.9 -115.25 L-15.5 -114.65 -15.8 -114.65 Q-16.2 -114.65 -17.15 -113.1 L-41.15 -90.8 Q-51.1 -82.6 -58.3 -77.9 -69.35 -70.85 -82.55 -65.7 L-82.7 -66.05 M141.85 48.25 L142.5 39.3 Q148.45 27.5 148.45 22.1 148.8 18.35 148.3 16.45 L148.6 16.2 Q158.65 7.15 158.65 2.15 158.65 -3.9 152.9 -13.75 143.4 -30.0 140.35 -36.8 137.45 -43.25 136.1 -60.75 L135.25 -71.65 135.05 -73.5 Q137.05 -72.3 137.65 -71.45 140.55 -67.5 142.95 -63.25 142.4 -62.05 142.2 -59.9 141.95 -57.35 142.15 -54.25 142.15 -42.65 146.65 -33.55 149.4 -28.0 156.55 -19.35 163.8 -10.6 166.45 -5.35 170.95 3.55 170.95 14.8 170.95 21.65 170.55 24.4 L168.45 36.1 168.4 36.1 167.2 29.55 Q165.9 24.55 163.9 24.55 148.55 42.65 142.05 48.55 L141.85 48.25 M143.5 20.5 Q145.0 18.65 144.4 23.85 143.75 29.0 140.1 36.6 136.45 44.2 127.75 53.8 127.25 52.8 126.8 50.5 L126.05 46.35 Q124.95 41.35 122.2 41.35 121.2 41.35 116.3 47.65 L110.2 55.3 110.05 55.15 Q110.55 48.1 110.5 44.45 110.45 42.1 110.1 40.6 116.25 37.7 122.35 34.3 134.55 27.5 143.5 20.5 M-78.95 -60.8 Q-72.4 -63.4 -62.35 -69.95 -61.3 -70.65 -58.1 -72.9 L-58.85 -68.7 Q-59.35 -64.95 -59.45 -61.1 -59.45 -55.55 -57.25 -48.85 -55.95 -44.75 -52.55 -36.95 -49.05 -29.05 -47.75 -25.2 -45.65 -18.7 -45.65 -13.4 -45.65 -10.35 -48.65 2.75 L-50.6 13.05 -50.65 13.05 Q-51.65 19.6 -51.65 24.85 L-51.2 29.35 Q-50.65 34.65 -49.7 39.05 L-49.25 40.95 -52.4 38.35 Q-54.65 38.35 -54.65 41.0 -54.65 42.75 -53.15 48.7 -51.65 54.65 -51.65 55.85 -51.65 57.35 -53.45 56.2 -61.6 51.3 -66.8 41.65 -68.35 38.65 -69.5 35.5 L-70.4 32.95 Q-73.0 32.95 -75.3 38.35 -77.1 42.6 -77.45 46.0 L-77.75 46.0 Q-81.8 28.7 -82.55 22.0 -83.15 16.8 -83.15 1.9 -82.55 -19.25 -82.55 -29.6 -82.55 -34.9 -80.75 -45.55 -79.05 -55.75 -78.95 -60.8" fill="#ff9999" fill-rule="evenodd" stroke="none"/>
      <path d="M46.35 -105.9 L47.05 -101.85 Q48.55 -93.75 48.55 -87.4 48.55 -71.8 44.95 -64.3 43.0 -60.25 42.5 -58.4 41.35 -54.3 41.35 -47.35 L41.35 -43.85 Q41.8 -40.55 43.9 -40.55 45.1 -40.55 56.9 -52.7 67.9 -64.1 73.45 -70.7 77.95 -76.0 81.2 -85.95 84.1 -94.85 84.25 -101.6 L87.2 -99.0 Q94.1 -93.1 98.2 -90.8 101.0 -89.2 120.15 -80.85 127.95 -77.45 132.3 -75.1 131.6 -73.95 131.4 -71.7 131.15 -69.4 131.35 -66.55 131.35 -44.65 142.75 -20.7 145.2 -15.6 150.6 -5.85 154.15 0.6 154.15 2.05 154.15 6.25 143.8 14.7 133.8 22.85 118.65 31.35 102.65 40.3 85.1 46.6 67.5 52.85 36.5 52.6 5.5 52.35 -14.95 38.2 -35.4 24.0 -42.85 15.7 L-45.8 12.0 -44.15 4.0 Q-41.15 -8.55 -41.15 -13.4 -41.15 -19.6 -43.25 -26.45 -44.65 -30.8 -48.05 -38.2 -51.6 -46.1 -52.75 -49.5 -54.95 -55.8 -54.95 -61.1 -53.75 -70.85 -53.75 -72.35 -53.25 -74.75 -54.2 -75.65 L-40.25 -85.7 Q-30.3 -93.75 -23.85 -99.5 L-29.45 -87.65 Q-43.85 -61.85 -43.85 -59.5 L-43.8 -58.05 Q-43.35 -56.75 -41.3 -56.75 -35.85 -56.75 -13.75 -66.65 8.25 -76.55 19.0 -83.75 29.15 -90.5 36.85 -96.85 43.15 -102.1 46.35 -105.9" fill="#fff1dd" fill-rule="evenodd" stroke="none"/>
    </g>
    <g id="shape2" transform="matrix(1, 0, 0, 1, 21.5, 86.75)">
      <path d="M120.0 -86.75 Q125.2 -86.75 126.3 -65.15 126.8 -54.3 126.3 -43.1 L126.3 -21.05 Q125.2 0.55 120.0 0.55 114.8 0.55 113.8 -21.05 L113.75 -43.1 Q113.25 -54.3 113.8 -65.15 114.8 -86.75 120.0 -86.75 M-8.7 -65.15 Q-8.2 -54.3 -8.7 -43.1 L-8.7 -21.05 Q-9.8 0.55 -15.0 0.55 -20.2 0.55 -21.2 -21.05 L-21.25 -43.1 Q-21.75 -54.3 -21.2 -65.15 -20.2 -86.75 -15.0 -86.75 -9.8 -86.75 -8.7 -65.15" fill="#000000" fill-rule="evenodd" stroke="none"/>
      <path d="M70.45 50.3 Q72.7 45.6 74.95 37.85 L74.95 34.7 20.1 33.9 20.05 34.25 Q19.75 45.35 19.15 51.25 L15.0 50.5 14.95 46.7 Q14.75 41.7 15.0 37.7 15.3 32.15 16.6 30.55 28.05 29.9 48.4 29.9 78.25 30.2 78.85 30.65 L79.3 31.55 79.45 32.9 79.45 35.6 Q76.75 45.3 74.1 49.6 L70.45 50.3" fill="#000000" fill-rule="evenodd" stroke="none"/>
      <path d="M19.15 51.25 Q19.75 45.35 20.05 34.25 L20.1 33.9 74.95 34.7 74.95 37.85 Q72.7 45.6 70.45 50.3 56.2 52.75 36.5 52.6 L19.15 51.25" fill="#ffcccc" fill-rule="evenodd" stroke="none"/>
    </g>
    <g id="shape3" transform="matrix(1, 0, 0, 1, 103.95, 194.7)">
      <path d="M99.0 -179.7 Q127.85 -179.7 143.8 -157.75 149.0 -150.65 152.1 -142.1 154.3 -136.1 154.3 -133.85 154.3 -129.8 152.85 -123.45 151.5 -117.8 149.75 -115.85 149.7 -112.65 148.2 -108.5 146.2 -103.15 145.45 -100.4 L142.6 -100.4 138.2 -104.5 Q134.3 -109.2 125.95 -109.2 118.15 -109.2 112.95 -107.6 109.5 -106.6 105.55 -104.15 101.25 -101.5 99.1 -100.65 95.55 -99.3 90.7 -99.1 88.95 -99.0 87.0 -99.05 L81.85 -99.5 Q77.75 -100.05 73.75 -101.15 69.3 -102.35 61.15 -105.65 53.1 -108.9 48.5 -110.15 40.9 -112.2 33.0 -112.2 18.65 -112.2 9.65 -104.5 L4.25 -99.2 Q1.8 -96.8 0.0 -96.8 L-0.65 -96.85 Q-4.0 -95.35 -7.5 -95.3 L-15.6 -96.05 Q-23.0 -96.15 -27.75 -97.55 -30.0 -98.2 -35.15 -100.75 -39.6 -103.0 -44.2 -104.0 -51.1 -105.45 -62.15 -105.45 -80.05 -105.45 -86.4 -98.95 L-90.7 -94.35 -91.4 -94.9 Q-93.3 -96.8 -94.75 -102.05 L-96.45 -110.5 -96.45 -111.1 Q-101.45 -111.6 -103.2 -120.85 -103.75 -123.95 -103.9 -127.65 L-103.95 -130.85 Q-103.95 -137.0 -100.4 -143.95 -95.6 -153.45 -85.55 -160.95 -57.35 -181.95 3.75 -181.95 L60.95 -180.7 68.25 -180.5 68.65 -181.05 Q78.65 -194.7 81.0 -194.7 84.8 -194.7 95.5 -182.4 L97.8 -179.7 99.0 -179.7 M81.55 -187.0 Q59.35 -158.2 51.4 -148.8 41.15 -136.65 34.6 -130.8 L37.15 -130.95 Q42.85 -130.95 49.15 -129.1 50.75 -127.95 52.5 -127.95 L63.4 -125.15 Q75.75 -122.35 83.95 -122.3 L95.1 -123.2 100.8 -124.7 107.5 -126.5 114.95 -127.6 118.8 -128.0 118.75 -128.8 118.7 -134.05 Q118.7 -143.15 103.45 -161.75 L91.1 -175.95 Q83.75 -184.15 81.55 -187.0 M124.5 -128.9 L129.75 -128.7 Q141.4 -128.7 146.5 -123.6 L146.8 -124.6 Q148.7 -130.25 148.7 -133.75 148.7 -143.8 136.7 -157.95 133.3 -161.95 111.8 -169.65 L103.8 -172.3 109.9 -163.95 117.25 -153.35 121.65 -146.75 Q124.3 -142.0 124.3 -133.3 L124.35 -128.9 124.5 -128.9 M93.0 -107.95 L101.65 -116.4 Q104.7 -119.3 107.9 -121.5 L102.0 -120.45 96.1 -118.15 Q90.95 -116.35 83.65 -116.3 71.65 -116.35 62.4 -118.8 L64.05 -117.5 Q74.05 -109.65 76.0 -108.35 78.0 -106.95 79.75 -106.0 L89.05 -105.05 93.0 -107.95 M103.45 -110.5 L100.7 -107.65 Q102.45 -108.55 105.2 -110.15 113.95 -115.2 126.4 -115.2 135.4 -115.2 141.6 -109.15 L142.9 -107.85 Q144.2 -110.6 144.2 -111.2 144.2 -115.7 143.05 -117.6 140.0 -122.7 129.7 -122.7 121.45 -122.7 114.3 -118.85 109.15 -116.1 103.45 -110.5 M64.45 -175.35 Q57.2 -174.95 27.45 -175.5 -3.9 -176.1 -20.0 -175.0 -98.35 -169.85 -98.3 -130.55 -98.3 -125.2 -95.3 -119.6 L-94.55 -118.2 Q-93.65 -119.6 -92.3 -120.65 -85.9 -125.7 -67.75 -125.7 -56.05 -125.7 -46.85 -121.85 L-43.65 -120.8 -42.1 -120.35 -37.45 -118.75 Q-36.4 -118.1 -33.15 -117.7 L-33.85 -117.9 -33.1 -117.7 -17.25 -117.05 Q-1.8 -117.1 11.9 -122.5 L21.1 -126.25 22.8 -126.8 22.7 -128.8 Q22.7 -130.25 35.5 -143.3 L54.4 -162.25 Q56.15 -164.1 64.45 -175.35 M12.15 -116.0 L13.05 -117.0 11.95 -116.65 Q-6.65 -111.1 -17.6 -111.05 L-31.15 -111.75 -22.85 -104.95 Q-17.25 -101.15 -11.8 -101.15 -5.05 -101.15 1.35 -105.8 5.05 -108.5 12.15 -116.0 M62.35 -111.7 L50.65 -120.95 Q45.05 -125.15 42.95 -125.15 33.2 -125.15 25.5 -120.5 22.5 -118.7 19.25 -115.65 26.3 -118.2 33.0 -118.2 40.6 -118.2 48.45 -116.15 53.35 -114.85 61.9 -111.65 L62.3 -111.5 63.0 -111.2 62.35 -111.7 M-89.7 -105.2 Q-85.8 -108.25 -71.15 -111.05 L-62.15 -111.45 Q-54.0 -111.45 -34.35 -106.25 L-35.95 -107.6 Q-43.05 -113.6 -48.4 -116.05 -56.75 -119.9 -68.15 -119.9 -85.25 -119.9 -89.65 -115.35 -91.1 -113.9 -91.1 -112.0 L-90.8 -110.05 Q-90.85 -107.9 -89.85 -105.15 L-89.8 -105.1 -89.7 -105.2" fill="#000000" fill-rule="evenodd" stroke="none"/>
      <path d="M81.55 -187.0 Q83.75 -184.15 91.1 -175.95 L103.45 -161.75 Q118.7 -143.15 118.7 -134.05 L118.75 -128.8 118.8 -128.0 114.95 -127.6 107.5 -126.5 100.8 -124.7 95.1 -123.2 83.95 -122.3 Q75.75 -122.35 63.4 -125.15 L52.5 -127.95 Q50.75 -127.95 49.15 -129.1 42.85 -130.95 37.15 -130.95 L34.6 -130.8 Q41.15 -136.65 51.4 -148.8 59.35 -158.2 81.55 -187.0 M98.05 -152.25 Q98.05 -154.95 95.65 -158.7 91.7 -164.7 84.0 -164.7 72.75 -164.7 68.5 -157.2 66.2 -153.15 66.2 -147.35 L66.05 -144.35 Q66.1 -141.2 67.35 -138.65 71.25 -130.6 85.15 -130.55 96.65 -130.55 102.8 -135.6 107.05 -139.15 107.05 -142.7 107.6 -146.7 103.9 -146.7 101.3 -146.7 100.9 -145.1 L100.3 -141.5 Q98.25 -136.4 81.2 -136.4 75.25 -136.4 73.0 -141.65 71.8 -144.4 71.8 -147.8 L71.85 -149.65 Q72.1 -151.75 73.15 -153.45 76.4 -158.9 86.05 -158.9 88.2 -158.9 90.4 -156.45 92.45 -154.1 92.45 -152.25 92.8 -151.2 92.25 -150.25 91.1 -148.4 86.45 -148.4 83.9 -148.4 83.15 -151.25 82.35 -154.2 80.25 -154.2 77.45 -154.2 77.45 -150.55 L77.55 -149.15 Q77.8 -147.7 78.6 -146.45 81.15 -142.6 88.15 -142.55 98.05 -142.55 98.05 -152.25" fill="#ffffff" fill-rule="evenodd" stroke="none"/>
      <path d="M93.0 -107.95 L89.05 -105.05 79.75 -106.0 Q78.0 -106.95 76.0 -108.35 74.05 -109.65 64.05 -117.5 L62.4 -118.8 Q71.65 -116.35 83.65 -116.3 90.95 -116.35 96.1 -118.15 L102.0 -120.45 107.9 -121.5 Q104.7 -119.3 101.65 -116.4 L93.0 -107.95 M12.15 -116.0 Q5.05 -108.5 1.35 -105.8 -5.05 -101.15 -11.8 -101.15 -17.25 -101.15 -22.85 -104.95 L-31.15 -111.75 -17.6 -111.05 Q-6.65 -111.1 11.95 -116.65 L12.15 -116.0" fill="#c4e8ff" fill-rule="evenodd" stroke="none"/>
      <path d="M124.35 -128.9 L124.3 -133.3 Q124.3 -142.0 121.65 -146.75 L117.25 -153.35 109.9 -163.95 103.8 -172.3 111.8 -169.65 Q133.3 -161.95 136.7 -157.95 148.7 -143.8 148.7 -133.75 148.7 -130.25 146.8 -124.6 L146.5 -123.6 Q141.4 -128.7 129.75 -128.7 L124.5 -128.9 124.35 -128.9 M64.45 -175.35 Q56.15 -164.1 54.4 -162.25 L35.5 -143.3 Q22.7 -130.25 22.7 -128.8 L22.8 -126.8 21.1 -126.25 11.9 -122.5 Q-1.8 -117.1 -17.25 -117.05 L-33.1 -117.7 -33.85 -117.9 -33.15 -117.7 Q-36.4 -118.1 -37.45 -118.75 L-42.1 -120.35 -43.65 -120.8 -46.85 -121.85 Q-56.05 -125.7 -67.75 -125.7 -85.9 -125.7 -92.3 -120.65 -93.65 -119.6 -94.55 -118.2 L-95.3 -119.6 Q-98.3 -125.2 -98.3 -130.55 -98.35 -169.85 -20.0 -175.0 -3.9 -176.1 27.45 -175.5 57.2 -174.95 64.45 -175.35" fill="#b4e1fe" fill-rule="evenodd" stroke="none"/>
      <path d="M103.45 -110.5 Q109.15 -116.1 114.3 -118.85 121.45 -122.7 129.7 -122.7 140.0 -122.7 143.05 -117.6 144.2 -115.7 144.2 -111.2 144.2 -110.6 142.9 -107.85 L141.6 -109.15 Q135.4 -115.2 126.4 -115.2 113.95 -115.2 105.2 -110.15 102.45 -108.55 100.7 -107.65 L103.45 -110.5 M62.3 -111.5 L61.9 -111.65 Q53.35 -114.85 48.45 -116.15 40.6 -118.2 33.0 -118.2 26.3 -118.2 19.25 -115.65 22.5 -118.7 25.5 -120.5 33.2 -125.15 42.95 -125.15 45.05 -125.15 50.65 -120.95 L62.35 -111.7 62.3 -111.5 M-89.85 -105.15 Q-90.85 -107.9 -90.8 -110.05 L-91.1 -112.0 Q-91.1 -113.9 -89.65 -115.35 -85.25 -119.9 -68.15 -119.9 -56.75 -119.9 -48.4 -116.05 -43.05 -113.6 -35.95 -107.6 L-34.35 -106.25 Q-54.0 -111.45 -62.15 -111.45 L-71.15 -111.05 Q-85.8 -108.25 -89.7 -105.2 L-89.85 -105.15" fill="#71c6fd" fill-rule="evenodd" stroke="none"/>
      <path d="M98.05 -152.25 Q98.05 -142.55 88.15 -142.55 81.15 -142.6 78.6 -146.45 77.8 -147.7 77.55 -149.15 L77.45 -150.55 Q77.45 -154.2 80.25 -154.2 82.35 -154.2 83.15 -151.25 83.9 -148.4 86.45 -148.4 91.1 -148.4 92.25 -150.25 92.8 -151.2 92.45 -152.25 92.45 -154.1 90.4 -156.45 88.2 -158.9 86.05 -158.9 76.4 -158.9 73.15 -153.45 72.1 -151.75 71.85 -149.65 L71.8 -147.8 Q71.8 -144.4 73.0 -141.65 75.25 -136.4 81.2 -136.4 98.25 -136.4 100.3 -141.5 L100.9 -145.1 Q101.3 -146.7 103.9 -146.7 107.6 -146.7 107.05 -142.7 107.05 -139.15 102.8 -135.6 96.65 -130.55 85.15 -130.55 71.25 -130.6 67.35 -138.65 66.1 -141.2 66.05 -144.35 L66.2 -147.35 Q66.2 -153.15 68.5 -157.2 72.75 -164.7 84.0 -164.7 91.7 -164.7 95.65 -158.7 98.05 -154.95 98.05 -152.25" fill="#fd0202" fill-rule="evenodd" stroke="none"/>
    </g>
    <g id="sprite1" transform="matrix(1, 0, 0, 1, 0.0, 0.0)">
      <use height="4.5" transform="matrix(0.3258, 0.0, 0.0, 7.2222, 0.0078, 0.0056)" width="99.75" xlink:href="#shape0"/>
    </g>
  </defs>
</svg>
