<?xml version="1.0" encoding="UTF-8" standalone="no"?>
<svg xmlns:xlink="http://www.w3.org/1999/xlink" height="842.55px" width="1337.95px" xmlns="http://www.w3.org/2000/svg">
  <g transform="matrix(1, 0, 0, 1, 407.45, 285.05)">
    <use height="4.5" transform="matrix(5.4867, 0.0, 0.0, 81.5667, 3.2875, 23.0167)" width="99.75" xlink:href="#shape0"/>
    <use height="403.85" transform="matrix(1.0, 0.0, 0.0, 1.0, -12.3, 0.4)" width="603.35" xlink:href="#shape1"/>
  </g>
  <defs>
    <g id="shape0" transform="matrix(1, 0, 0, 1, 49.85, -2.5)">
      <path d="M49.9 7.0 L-49.85 7.0 -49.85 2.5 49.9 2.5 49.9 7.0" fill="#ffffff" fill-rule="evenodd" stroke="none"/>
    </g>
    <g id="shape1" transform="matrix(1, 0, 0, 1, 12.3, -0.4)">
      <path d="M398.3 279.55 L398.3 35.15 Q401.05 32.95 401.05 32.55 401.05 31.1 400.8 31.15 L400.55 31.5 Q399.95 30.75 238.0 30.3 L155.95 30.6 Q75.65 31.05 75.2 31.5 74.95 32.2 74.95 34.2 74.95 35.65 74.0 39.2 74.0 40.1 74.95 42.75 L74.95 279.3 Q66.0 278.8 33.15 278.35 L24.3 278.4 Q24.25 271.65 21.85 268.15 18.5 270.6 19.6 278.45 L2.65 278.6 -0.6 278.6 Q-2.2 272.8 -2.2 264.2 -1.75 252.0 -1.95 246.2 L-1.95 140.5 -1.8 69.45 Q-1.4 29.2 0.25 0.4 L549.25 0.4 Q551.85 6.35 551.9 17.05 L551.6 35.15 551.6 47.9 546.85 48.0 527.95 47.85 Q498.75 47.3 447.1 47.65 L446.15 49.05 446.15 147.75 Q446.3 148.45 447.1 149.15 L546.85 150.55 551.6 150.6 551.6 279.9 Q551.6 281.05 550.65 281.7 L549.2 281.8 547.4 281.8 546.75 281.8 Q546.7 281.05 546.5 281.1 L546.25 281.45 Q545.7 280.75 470.65 280.25 L398.5 280.6 398.45 279.55 398.3 279.55" fill="#fe4545" fill-rule="evenodd" stroke="none"/>
      <path d="M24.3 278.4 L33.15 278.35 Q66.0 278.8 74.95 279.3 L74.95 42.75 Q74.0 40.1 74.0 39.2 74.95 35.65 74.95 34.2 74.95 32.2 75.2 31.5 75.65 31.05 155.95 30.6 L238.0 30.3 Q399.95 30.75 400.55 31.5 L400.8 31.15 Q401.05 31.1 401.05 32.55 401.05 32.95 398.3 35.15 L398.3 279.55 398.3 280.6 398.5 280.6 470.65 280.25 Q545.7 280.75 546.25 281.45 L546.5 281.1 Q546.7 281.05 546.75 281.8 L546.75 282.5 Q546.75 284.0 546.3 284.35 545.7 284.55 545.3 284.8 474.75 285.0 398.3 283.2 L398.3 284.0 398.65 284.5 398.95 285.05 402.75 291.35 403.3 292.3 404.35 294.05 461.75 395.6 462.45 396.95 462.4 396.95 463.25 398.55 Q463.25 399.75 460.9 399.75 L459.6 398.7 459.3 398.35 448.9 381.4 446.15 376.5 427.3 341.4 Q423.9 335.15 407.35 307.55 397.25 290.75 394.65 285.5 L235.6 285.95 153.85 285.65 Q93.05 285.35 78.15 285.05 87.05 303.8 103.55 337.55 L103.9 338.25 104.8 340.15 105.3 341.2 106.45 343.7 Q120.7 374.05 129.15 396.3 L129.6 397.6 Q129.6 398.65 127.75 398.8 L127.2 398.8 74.55 284.9 73.3 284.8 Q73.05 285.75 73.05 283.35 L73.05 283.3 73.1 282.95 73.05 282.95 33.15 283.1 24.3 283.05 Q24.2 281.35 24.25 279.45 L24.3 278.4 M551.6 150.6 L546.85 150.55 447.1 149.15 Q446.3 148.45 446.15 147.75 L446.15 49.05 447.1 47.65 Q498.75 47.3 527.95 47.85 L546.85 48.0 551.6 47.9 553.25 47.85 555.75 47.75 556.0 47.75 556.15 47.75 556.15 49.05 556.15 98.7 Q556.95 150.6 553.85 150.6 L551.6 150.6 M-0.6 278.6 L2.65 278.6 19.6 278.45 19.6 278.7 19.65 282.95 9.9 282.8 1.4 282.65 -1.95 282.55 -11.85 282.05 -11.95 282.05 -12.15 281.95 Q-12.3 282.9 -12.3 280.5 -12.3 279.0 -11.85 278.8 L-11.0 278.7 -0.6 278.6 M450.9 52.4 Q449.5 52.4 450.0 87.2 L450.9 144.75 551.5 144.4 551.5 52.15 450.9 52.15 450.9 52.4 M79.6 35.5 Q78.2 35.5 78.55 36.35 L79.25 38.95 79.6 39.7 79.6 280.75 246.3 280.75 Q243.9 274.6 243.9 265.55 244.35 255.0 244.15 249.75 L244.15 156.65 Q244.15 107.45 244.3 93.9 244.7 59.75 246.25 35.35 L79.6 35.15 79.6 35.5 M248.8 280.05 L247.5 280.75 248.8 280.75 393.55 280.75 393.55 35.5 248.8 35.35 248.8 280.05" fill="#000000" fill-rule="evenodd" stroke="none"/>
      <path d="M79.6 35.5 L79.6 35.15 246.25 35.35 Q244.7 59.75 244.3 93.9 244.15 107.45 244.15 156.65 L244.15 249.75 Q244.35 255.0 243.9 265.55 243.9 274.6 246.3 280.75 L79.6 280.75 79.6 39.7 79.25 38.95 78.55 36.35 Q78.2 35.5 79.6 35.5 M450.9 52.4 L450.9 52.15 551.5 52.15 551.5 144.4 450.9 144.75 450.0 87.2 Q449.5 52.4 450.9 52.4 M248.8 280.05 L248.8 35.35 393.55 35.5 393.55 280.75 248.8 280.75 248.8 280.05" fill="#e6ffff" fill-opacity="0.7529412" fill-rule="evenodd" stroke="none"/>
      <path d="M546.75 281.8 L547.4 281.8 549.2 281.8 Q550.9 287.45 550.95 294.95 L550.65 310.9 Q551.0 321.45 550.65 342.15 L550.65 374.3 Q550.5 379.5 550.95 390.2 550.9 398.55 548.85 404.0 L456.55 403.95 463.5 403.65 Q464.2 402.95 464.2 400.45 L464.2 400.25 Q464.2 398.3 463.9 397.8 463.55 397.05 462.45 396.95 L461.75 395.6 404.35 294.05 403.3 292.3 402.75 291.35 398.95 285.05 398.65 284.5 398.3 284.0 398.3 283.2 Q474.75 285.0 545.3 284.8 545.7 284.55 546.3 284.35 546.75 284.0 546.75 282.5 L546.75 281.8 M24.3 283.05 L33.15 283.1 73.05 282.95 73.05 283.3 73.05 283.35 Q73.05 285.75 73.3 284.8 L74.55 284.9 127.2 398.8 127.75 398.85 127.7 399.5 127.7 399.6 127.75 400.4 127.85 401.55 Q128.2 402.5 129.65 403.35 129.7 403.65 129.75 403.4 L130.05 403.55 130.8 403.25 150.95 403.8 -1.7 404.0 -1.95 403.55 -1.95 282.55 1.4 282.65 9.9 282.8 19.65 282.95 19.85 287.6 Q20.55 292.05 23.75 297.25 24.95 296.75 26.15 296.05 L26.15 291.05 Q24.6 288.25 24.3 283.05 M61.4 343.3 Q58.65 343.3 56.9 344.9 55.25 346.35 55.25 348.45 55.25 351.0 57.6 351.75 59.5 351.35 61.65 348.85 63.65 346.5 63.65 345.45 L63.5 344.1 63.3 344.5 63.0 343.65 Q62.85 343.3 61.4 343.3 M31.75 337.6 L34.8 346.6 Q36.65 350.95 39.8 353.65 41.3 353.0 42.2 351.75 39.85 335.7 34.1 335.7 32.6 335.7 32.1 336.45 31.85 336.85 31.75 337.6 M52.5 325.75 Q52.5 324.2 52.0 323.9 L50.15 323.6 Q46.0 325.85 45.05 335.0 44.55 339.65 44.9 344.25 44.9 345.25 45.35 346.95 46.0 349.55 47.3 350.8 L49.4 350.1 Q49.7 345.2 51.2 337.35 52.5 330.35 52.5 325.75 M17.25 394.05 L19.6 392.85 19.6 386.55 Q18.3 385.05 17.25 384.65 14.85 386.5 14.85 389.3 14.85 391.65 17.25 394.05 M26.35 369.05 L24.7 368.6 Q21.6 370.6 20.85 376.15 20.55 378.25 20.55 385.85 20.55 394.7 22.8 396.9 23.75 396.65 24.95 395.95 27.1 378.95 27.1 370.85 27.1 369.4 26.35 369.05 M7.55 284.25 Q7.25 284.5 7.25 286.2 14.05 297.25 14.4 297.25 16.75 297.25 16.55 296.55 L16.75 293.35 Q15.35 284.05 9.65 284.05 L7.55 284.25 M511.1 383.2 Q511.1 384.15 513.5 386.55 515.8 385.1 518.1 382.0 520.6 378.7 520.6 376.55 520.6 375.05 519.9 374.75 L518.25 374.3 Q513.85 377.2 512.4 379.05 511.1 380.7 511.1 383.2 M484.4 358.9 L484.0 359.3 483.95 360.65 Q499.25 389.4 501.75 389.4 L503.65 389.1 504.1 388.45 504.45 388.35 504.6 387.0 Q504.6 386.25 496.45 372.5 487.95 358.3 486.3 358.3 L484.65 358.6 484.4 358.9 M505.7 354.3 Q505.55 356.85 505.55 366.1 505.55 383.4 507.9 388.45 L510.05 387.75 510.15 366.25 510.05 354.95 Q509.65 347.9 507.9 344.25 506.15 347.6 505.7 354.3" fill="#79fd93" fill-rule="evenodd" stroke="none"/>
      <path d="M127.75 398.8 Q129.6 398.65 129.6 397.6 L129.15 396.3 Q120.7 374.05 106.45 343.7 L105.3 341.2 104.8 340.15 103.9 338.25 103.55 337.55 Q87.05 303.8 78.15 285.05 93.05 285.35 153.85 285.65 L235.6 285.95 394.65 285.5 Q397.25 290.75 407.35 307.55 423.9 335.15 427.3 341.4 L446.15 376.5 448.9 381.4 459.3 398.35 459.6 398.7 460.9 399.75 Q463.25 399.75 463.25 398.55 L462.4 396.95 462.45 396.95 Q463.55 397.05 463.9 397.8 464.2 398.3 464.2 400.25 L464.2 400.45 Q464.2 402.95 463.5 403.65 L456.55 403.95 323.75 404.25 150.95 403.8 130.8 403.25 130.05 403.55 129.75 403.4 Q129.7 403.65 129.65 403.35 128.2 402.5 127.85 401.55 L127.75 400.4 127.7 399.6 127.7 399.5 127.75 398.85 127.75 398.8" fill="#a2a2a2" fill-rule="evenodd" stroke="none"/>
      <path d="M19.6 278.45 Q18.5 270.6 21.85 268.15 24.25 271.65 24.3 278.4 L24.25 279.45 Q24.2 281.35 24.3 283.05 24.6 288.25 26.15 291.05 L26.15 296.05 Q24.95 296.75 23.75 297.25 20.55 292.05 19.85 287.6 L19.65 282.95 19.6 278.7 19.6 278.45 M7.55 284.25 L9.65 284.05 Q15.35 284.05 16.75 293.35 L16.55 296.55 Q16.75 297.25 14.4 297.25 14.05 297.25 7.25 286.2 7.25 284.5 7.55 284.25 M26.35 369.05 Q27.1 369.4 27.1 370.85 27.1 378.95 24.95 395.95 23.75 396.65 22.8 396.9 20.55 394.7 20.55 385.85 20.55 378.25 20.85 376.15 21.6 370.6 24.7 368.6 L26.35 369.05 M17.25 394.05 Q14.85 391.65 14.85 389.3 14.85 386.5 17.25 384.65 18.3 385.05 19.6 386.55 L19.6 392.85 17.25 394.05 M52.5 325.75 Q52.5 330.35 51.2 337.35 49.7 345.2 49.4 350.1 L47.3 350.8 Q46.0 349.55 45.35 346.95 44.9 345.25 44.9 344.25 44.55 339.65 45.05 335.0 46.0 325.85 50.15 323.6 L52.0 323.9 Q52.5 324.2 52.5 325.75 M31.75 337.6 Q31.85 336.85 32.1 336.45 32.6 335.7 34.1 335.7 39.85 335.7 42.2 351.75 41.3 353.0 39.8 353.65 36.65 350.95 34.8 346.6 L31.75 337.6 M61.4 343.3 Q62.85 343.3 63.0 343.65 L63.3 344.5 63.5 344.1 63.65 345.45 Q63.65 346.5 61.65 348.85 59.5 351.35 57.6 351.75 55.25 351.0 55.25 348.45 55.25 346.35 56.9 344.9 58.65 343.3 61.4 343.3 M505.7 354.3 Q506.15 347.6 507.9 344.25 509.65 347.9 510.05 354.95 L510.15 366.25 510.05 387.75 507.9 388.45 Q505.55 383.4 505.55 366.1 505.55 356.85 505.7 354.3 M484.4 358.9 L484.65 358.6 486.3 358.3 Q487.95 358.3 496.45 372.5 504.6 386.25 504.6 387.0 L504.45 388.35 504.1 388.45 503.65 389.1 501.75 389.4 Q499.25 389.4 483.95 360.65 L484.0 359.3 484.4 358.9 M511.1 383.2 Q511.1 380.7 512.4 379.05 513.85 377.2 518.25 374.3 L519.9 374.75 Q520.6 375.05 520.6 376.55 520.6 378.7 518.1 382.0 515.8 385.1 513.5 386.55 511.1 384.15 511.1 383.2" fill="#cdfed7" fill-rule="evenodd" stroke="none"/>
      <path d="M477.3 202.35 Q494.6 202.35 507.15 211.65 L514.75 218.0 Q518.15 220.9 520.15 220.9 521.0 220.9 524.7 217.7 529.95 214.5 538.45 214.5 563.55 214.5 577.25 232.2 581.85 238.1 584.45 245.2 586.4 250.4 586.4 252.85 586.4 257.35 582.7 262.3 578.95 267.3 578.95 268.15 578.95 269.0 580.85 271.9 L585.0 278.25 Q591.05 288.2 591.05 295.95 591.05 305.6 584.25 313.9 573.3 327.3 548.75 327.3 L529.55 325.25 Q528.0 325.25 526.8 326.9 525.0 329.3 523.2 330.5 515.1 335.7 489.05 335.7 470.6 335.7 456.95 324.35 451.55 319.85 448.35 314.65 445.35 309.75 445.35 306.15 421.85 301.1 413.45 292.4 407.8 286.6 407.8 276.45 407.8 273.25 411.45 268.3 L415.05 263.15 411.5 249.75 411.35 246.05 Q411.45 244.05 412.65 242.85 415.9 239.65 430.15 238.95 432.05 236.35 435.05 229.8 438.05 223.2 440.6 219.7 449.25 207.6 470.25 202.5 L477.3 202.35 M573.5 235.05 Q562.45 219.45 546.15 219.45 528.35 219.45 524.6 223.55 L523.0 226.35 Q522.3 227.65 520.15 227.65 517.4 227.65 513.75 224.7 509.0 220.55 505.5 218.1 491.6 208.3 468.35 207.25 453.9 210.15 448.4 217.75 447.65 218.75 444.6 224.35 442.35 228.4 439.75 230.75 438.4 232.0 437.3 236.75 436.25 241.4 434.55 242.75 433.75 243.4 432.3 242.5 L429.35 240.6 Q424.65 238.5 418.6 245.45 416.25 248.2 416.25 250.8 416.25 253.85 418.1 257.25 419.9 260.65 419.9 262.45 419.9 265.15 416.2 268.4 412.45 271.65 412.45 276.1 412.45 281.1 413.2 283.6 414.3 287.1 417.7 289.95 424.8 295.95 450.8 304.5 449.55 313.75 459.9 321.9 471.3 330.85 489.05 330.85 516.9 330.85 522.65 324.85 523.65 323.8 524.7 320.75 525.35 318.85 527.65 318.85 536.65 322.4 537.0 322.4 561.85 322.4 571.05 319.1 586.4 313.55 586.4 295.8 586.4 287.7 579.35 277.75 L574.5 271.35 Q572.3 268.45 572.3 267.45 572.3 266.6 577.0 261.6 581.65 256.55 581.65 252.95 581.65 251.2 579.7 246.4 577.25 240.3 573.5 235.05" fill="#000000" fill-rule="evenodd" stroke="none"/>
      <path d="M573.5 235.05 Q577.25 240.3 579.7 246.4 581.65 251.2 581.65 252.95 581.65 256.55 577.0 261.6 572.3 266.6 572.3 267.45 572.3 268.45 574.5 271.35 L579.35 277.75 Q586.4 287.7 586.4 295.8 586.4 313.55 571.05 319.1 561.85 322.4 537.0 322.4 536.65 322.4 527.65 318.85 525.35 318.85 524.7 320.75 523.65 323.8 522.65 324.85 516.9 330.85 489.05 330.85 471.3 330.85 459.9 321.9 449.55 313.75 450.8 304.5 424.8 295.95 417.7 289.95 414.3 287.1 413.2 283.6 412.45 281.1 412.45 276.1 412.45 271.65 416.2 268.4 419.9 265.15 419.9 262.45 419.9 260.65 418.1 257.25 416.25 253.85 416.25 250.8 416.25 248.2 418.6 245.45 424.65 238.5 429.35 240.6 L432.3 242.5 Q433.75 243.4 434.55 242.75 436.25 241.4 437.3 236.75 438.4 232.0 439.75 230.75 442.35 228.4 444.6 224.35 447.65 218.75 448.4 217.75 453.9 210.15 468.35 207.25 491.6 208.3 505.5 218.1 509.0 220.55 513.75 224.7 517.4 227.65 520.15 227.65 522.3 227.65 523.0 226.35 L524.6 223.55 Q528.35 219.45 546.15 219.45 562.45 219.45 573.5 235.05" fill="#a3feb5" fill-rule="evenodd" stroke="none"/>
    </g>
  </defs>
</svg>
