<?xml version="1.0" encoding="UTF-8" standalone="no"?>
<svg xmlns:xlink="http://www.w3.org/1999/xlink" height="842.55px" width="1337.95px" xmlns="http://www.w3.org/2000/svg">
  <g transform="matrix(1, 0, 0, 1, 407.45, 285.05)">
    <use height="4.5" transform="matrix(5.4867, 0.0, 0.0, 81.5667, 3.2875, 23.0167)" width="99.75" xlink:href="#shape0"/>
    <use height="218.0" transform="matrix(1.0, 0.0, 0.0, 1.0, -2.0, -2.0)" width="553.35" xlink:href="#shape1"/>
    <use height="183.0" transform="matrix(0.724, 0.191, -0.191, 0.724, 398.0956, 38.1239)" width="199.85" xlink:href="#sprite0"/>
    <use height="183.0" transform="matrix(0.5419, -0.1475, 0.1475, 0.5419, 95.3716, 112.6488)" width="199.85" xlink:href="#sprite0"/>
    <use height="245.0" transform="matrix(1.0, 0.0, 0.0, 1.0, -3.0, 155.5)" width="555.95" xlink:href="#shape3"/>
  </g>
  <defs>
    <g id="shape0" transform="matrix(1, 0, 0, 1, 49.85, -2.5)">
      <path d="M49.9 7.0 L-49.85 7.0 -49.85 2.5 49.9 2.5 49.9 7.0" fill="#ffffff" fill-rule="evenodd" stroke="none"/>
    </g>
    <g id="shape1" transform="matrix(1, 0, 0, 1, 2.0, 2.0)">
      <path d="M-2.0 -2.0 L551.35 -2.0 551.35 216.0 -2.0 216.0 -2.0 -2.0" fill="url(#gradient0)" fill-rule="evenodd" stroke="none"/>
    </g>
    <linearGradient gradientTransform="matrix(0.0, 0.153, -0.1331, 0.0, 274.65, 107.0)" gradientUnits="userSpaceOnUse" id="gradient0" spreadMethod="pad" x1="-819.2" x2="819.2">
      <stop offset="0.0" stop-color="#aaddff"/>
      <stop offset="1.0" stop-color="#ffffff"/>
    </linearGradient>
    <g id="sprite0" transform="matrix(1, 0, 0, 1, 99.9, 91.5)">
      <use height="183.0" transform="matrix(1.0, 0.0, 0.0, 1.0, -99.9, -91.5)" width="199.85" xlink:href="#shape2"/>
    </g>
    <g id="shape2" transform="matrix(1, 0, 0, 1, 99.9, 91.5)">
      <path d="M-6.7 -85.2 L-5.65 -85.25 -6.15 -84.0 -6.2 -83.35 -6.85 -72.95 Q-7.2 -62.5 -6.85 -49.75 -6.85 -37.5 -6.35 -24.9 L-6.0 -19.35 -6.45 -19.35 -7.3 -19.4 -43.8 -22.85 Q-37.35 -52.0 -18.9 -72.15 L-7.05 -84.85 -6.7 -85.2 M4.0 -85.4 L4.45 -85.4 5.85 -84.7 6.1 -84.6 6.15 -84.55 22.75 -76.5 Q33.95 -71.05 45.4 -60.75 52.25 -54.55 66.6 -39.3 75.8 -29.5 78.25 -28.6 L74.5 -27.1 Q60.35 -21.95 40.45 -20.05 L40.15 -21.9 Q39.0 -27.8 33.85 -40.75 28.65 -53.7 25.15 -59.0 21.05 -65.3 10.55 -79.45 L4.0 -85.4 M-81.9 -33.8 Q-85.05 -35.3 -88.15 -37.05 -90.65 -38.45 -92.45 -39.25 -79.85 -64.0 -61.45 -72.9 -43.1 -81.85 -28.15 -83.75 L-27.6 -83.85 -27.4 -83.45 Q-41.0 -76.85 -52.85 -67.0 -57.5 -63.05 -69.15 -50.2 -81.7 -36.35 -81.7 -34.25 L-81.9 -33.8" fill="#ffffff" fill-rule="evenodd" stroke="none"/>
      <path d="M-26.35 -83.95 L-26.9 -83.9 -27.1 -83.9 -27.6 -83.85 -28.15 -83.75 Q-43.1 -81.85 -61.45 -72.9 -79.85 -64.0 -92.45 -39.25 -90.65 -38.45 -88.15 -37.05 -85.05 -35.3 -81.9 -33.8 L-81.7 -33.7 -78.1 -32.05 -72.0 -29.65 -71.65 -29.55 -71.3 -29.4 -70.95 -29.3 -70.6 -29.15 -49.45 -23.8 -49.3 -23.8 -49.0 -23.75 -48.15 -23.6 -43.8 -22.85 -7.3 -19.4 -6.45 -19.35 -6.0 -19.35 -4.55 -19.3 -2.55 -19.25 -2.3 -19.2 -2.2 -19.2 -2.1 -19.2 -1.15 -19.2 0.55 -19.15 13.65 -18.95 14.15 -18.95 15.3 -18.95 35.3 -19.6 37.95 -19.8 40.45 -20.05 Q60.35 -21.95 74.5 -27.1 L78.25 -28.6 81.6 -30.05 86.65 -32.55 87.45 -32.95 87.95 -33.2 Q91.9 -35.25 94.4 -36.2 L90.1 -41.55 Q82.0 -51.8 73.4 -59.4 L73.2 -59.55 72.85 -59.85 72.4 -60.25 71.95 -60.65 71.55 -61.0 71.4 -61.1 71.1 -61.4 70.75 -61.7 70.7 -61.75 70.55 -61.85 70.0 -62.3 69.7 -62.55 69.55 -62.65 69.4 -62.8 69.1 -63.05 68.7 -63.35 68.35 -63.65 67.95 -63.95 67.6 -64.2 67.25 -64.5 66.9 -64.75 66.8 -64.85 Q45.0 -81.5 18.85 -84.65 L8.15 -85.35 7.4 -85.4 6.9 -85.4 6.55 -85.4 6.25 -85.4 4.45 -85.4 4.0 -85.4 -3.7 -85.3 -5.4 -85.25 -5.65 -85.25 -6.7 -85.2 -7.4 -85.2 -8.35 -85.15 -26.0 -84.0 -26.25 -84.0 -26.3 -84.0 -26.35 -83.95 M-6.05 -91.45 L-4.7 -91.45 -4.15 -91.45 2.6 -91.2 2.4 -91.25 3.45 -91.2 3.65 -91.15 Q17.7 -90.5 29.15 -88.4 L47.1 -83.75 48.6 -83.2 54.2 -80.85 Q61.5 -77.45 66.55 -72.95 L71.45 -68.25 Q86.2 -55.55 92.6 -47.9 98.95 -40.3 99.45 -38.3 99.9 -36.35 99.75 -35.35 L99.95 -34.15 Q99.9 -32.35 93.1 -28.85 86.25 -25.4 64.15 -18.6 42.0 -11.8 23.45 -12.15 L6.15 -12.6 6.15 91.05 5.75 91.15 0.15 91.5 Q-5.75 91.5 -6.85 90.1 -7.2 89.6 -7.05 89.0 L-6.85 88.35 -6.85 88.25 -7.1 88.25 -7.75 76.6 -7.85 62.5 -7.85 35.5 Q-8.2 16.75 -7.85 7.75 -8.25 -1.3 -7.85 -12.5 L-7.75 -13.1 -14.85 -13.5 -14.8 -13.55 -21.2 -14.0 Q-73.2 -18.4 -99.75 -36.25 L-99.9 -36.35 -99.6 -40.25 Q-98.85 -46.35 -92.35 -54.8 -85.85 -63.3 -75.25 -70.9 -46.65 -91.5 -10.85 -91.5 L-6.4 -91.45 -6.05 -91.45 M-2.85 -12.9 L-2.85 85.55 0.15 85.5 1.5 85.5 Q1.2 82.15 1.25 76.9 L1.15 61.75 1.15 34.0 Q0.8 15.25 1.15 5.5 0.75 -3.15 0.8 -12.75 L-2.85 -12.9 M6.75 86.25 L6.75 90.45 6.35 90.95 Q6.5 85.95 6.65 86.0 L6.75 86.25" fill="#000000" fill-rule="evenodd" stroke="none"/>
      <path d="M-26.35 -83.95 L-26.3 -84.0 -26.25 -84.0 -26.0 -84.0 -26.35 -83.95 M-7.4 -85.2 L-6.7 -85.2 -7.05 -84.85 -7.4 -85.2 M4.45 -85.4 L6.25 -85.4 6.55 -85.4 6.1 -84.6 5.85 -84.7 4.45 -85.4 M-6.4 -91.45 L-6.35 -91.5 -6.05 -91.45 -6.4 -91.45" fill="#ff1111" fill-rule="evenodd" stroke="none"/>
      <path d="M-26.0 -84.0 L-8.35 -85.15 -7.4 -85.2 -7.05 -84.85 -18.9 -72.15 Q-37.35 -52.0 -43.8 -22.85 L-48.15 -23.6 -49.0 -23.75 -49.3 -23.8 -49.45 -23.8 -70.6 -29.15 -70.95 -29.3 -71.3 -29.4 -71.65 -29.55 -72.0 -29.65 -78.1 -32.05 -81.7 -33.7 -81.7 -34.25 Q-81.7 -36.35 -69.15 -50.2 -57.5 -63.05 -52.85 -67.0 -41.0 -76.85 -27.4 -83.45 L-26.35 -83.95 -26.0 -84.0 M-5.65 -85.25 L-5.4 -85.25 -3.7 -85.3 4.0 -85.4 10.55 -79.45 Q21.05 -65.3 25.15 -59.0 28.65 -53.7 33.85 -40.75 39.0 -27.8 40.15 -21.9 L40.45 -20.05 37.95 -19.8 35.3 -19.6 15.3 -18.95 14.15 -18.95 13.65 -18.95 0.55 -19.15 -1.15 -19.2 -2.1 -19.2 -2.1 -19.5 -2.55 -19.25 -4.55 -19.3 -6.0 -19.35 -6.35 -24.9 Q-6.85 -37.5 -6.85 -49.75 -7.2 -62.5 -6.85 -72.95 L-6.2 -83.35 -6.15 -84.0 -5.65 -85.25 M6.55 -85.4 L6.9 -85.4 7.4 -85.4 8.15 -85.35 18.85 -84.65 Q45.0 -81.5 66.8 -64.85 L66.9 -64.75 67.25 -64.5 67.6 -64.2 67.95 -63.95 68.35 -63.65 68.7 -63.35 69.1 -63.05 69.4 -62.8 69.55 -62.65 69.7 -62.55 70.0 -62.3 70.55 -61.85 70.7 -61.75 70.75 -61.7 71.1 -61.4 71.4 -61.1 71.55 -61.0 71.95 -60.65 72.4 -60.25 72.85 -59.85 73.2 -59.55 73.4 -59.4 Q82.0 -51.8 90.1 -41.55 L94.4 -36.2 Q91.9 -35.25 87.95 -33.2 L87.45 -32.95 86.65 -32.55 81.6 -30.05 78.25 -28.6 Q75.8 -29.5 66.6 -39.3 52.25 -54.55 45.4 -60.75 33.95 -71.05 22.75 -76.5 L6.15 -84.55 6.55 -85.4" fill="#ff6666" fill-rule="evenodd" stroke="none"/>
      <path d="M6.55 -85.4 L6.15 -84.55 6.1 -84.6 6.55 -85.4" fill="#ff8888" fill-rule="evenodd" stroke="none"/>
      <path d="M-2.85 -12.9 L0.8 -12.75 Q0.75 -3.15 1.15 5.5 0.8 15.25 1.15 34.0 L1.15 61.75 1.25 76.9 Q1.2 82.15 1.5 85.5 L0.15 85.5 -2.85 85.55 -2.85 -12.9" fill="#d5d5d5" fill-rule="evenodd" stroke="none"/>
    </g>
    <g id="shape3" transform="matrix(1, 0, 0, 1, 3.0, -155.5)">
      <path d="M-3.0 181.0 L-0.85 179.6 -0.2 179.1 Q4.15 175.8 8.55 173.75 25.1 166.0 57.0 166.0 90.3 166.0 132.1 172.75 L161.3 177.4 Q176.55 179.5 187.5 179.5 207.4 179.5 223.1 176.6 230.9 175.15 248.45 170.25 264.35 165.8 277.1 163.9 296.45 161.0 322.6 161.0 364.75 161.0 384.4 165.75 394.8 168.3 400.55 169.0 L432.35 170.5 462.25 169.15 Q468.4 168.4 475.2 166.25 482.0 164.15 488.25 163.35 L518.35 162.0 522.6 162.05 548.0 163.5 551.0 164.1 Q552.1 176.75 552.4 218.25 L552.45 224.0 551.95 224.0 551.95 310.9 549.2 309.95 Q541.45 307.5 535.35 307.5 525.25 307.5 516.75 309.75 511.55 311.15 503.1 314.75 494.55 318.4 489.6 319.75 481.3 322.0 471.5 322.0 454.9 322.0 437.85 317.55 425.9 314.45 409.6 307.75 388.95 299.3 385.0 297.95 372.05 293.5 362.35 293.5 348.65 293.5 334.4 298.6 325.65 301.75 309.95 309.9 294.0 318.15 285.8 321.15 271.9 326.25 258.75 326.25 256.6 326.25 245.5 321.75 230.3 315.45 221.3 311.9 185.25 297.5 171.5 297.5 154.65 297.5 140.05 301.65 129.65 304.6 117.45 310.75 L99.15 319.85 Q89.3 324.0 80.5 324.0 68.45 324.0 45.5 315.25 L29.5 309.25 Q21.5 306.5 17.5 306.5 4.6 306.5 -1.2 310.8 L-3.0 312.4 -3.0 181.0 M550.05 158.6 L549.8 158.5 549.85 158.5 550.05 158.6 M339.35 253.2 L344.0 252.05 Q345.35 251.4 345.35 249.85 L345.55 249.35 Q345.55 248.9 344.85 248.55 342.6 247.5 333.35 247.5 313.5 247.5 313.5 254.0 313.5 256.65 316.0 257.5 323.95 255.6 339.35 253.2 M72.0 207.5 L75.0 207.25 Q76.5 206.75 76.5 204.85 76.5 203.3 76.25 203.35 L76.0 203.75 Q71.75 199.5 66.8 199.15 L57.0 199.5 Q53.2 199.5 47.45 202.0 41.5 204.6 41.5 206.75 41.5 209.25 41.75 208.25 L42.45 209.15 44.5 209.5 Q45.4 209.5 46.4 208.75 L48.55 207.15 Q52.4 204.75 60.25 204.75 L72.0 207.5 M89.5 291.35 Q89.5 293.05 90.2 293.7 90.55 294.0 92.0 294.5 93.85 294.2 94.15 293.2 94.65 291.55 94.95 291.25 97.55 288.75 115.0 288.75 120.6 291.5 121.0 291.5 122.6 291.5 123.1 290.55 L123.5 289.0 Q122.55 286.75 120.95 285.6 118.1 283.5 110.0 283.5 105.0 283.5 105.0 284.0 96.8 284.4 92.55 287.2 89.5 289.25 89.5 291.35 M138.2 239.7 L140.0 240.5 144.6 237.65 Q149.1 235.0 151.5 235.0 154.55 235.0 157.45 237.25 160.3 239.5 164.5 239.5 L168.05 239.25 Q169.5 238.8 169.5 236.85 169.5 235.3 169.25 235.35 L169.0 235.75 Q166.15 232.9 158.95 230.95 153.7 229.5 152.0 229.5 148.85 229.5 143.5 232.0 137.5 234.75 137.5 237.35 137.5 239.05 138.2 239.7" fill="#f3eec7" fill-rule="evenodd" stroke="none"/>
      <path d="M-3.0 181.0 L-3.0 174.4 -2.95 174.35 Q2.1 171.15 10.0 168.25 31.15 160.5 57.0 160.5 86.65 160.5 131.25 167.25 L162.25 171.9 Q178.0 174.0 187.5 174.0 207.6 174.0 223.45 171.1 231.65 169.6 249.05 164.75 265.0 160.3 277.45 158.4 296.45 155.5 321.85 155.5 363.75 155.5 384.45 160.25 L401.15 163.5 432.35 165.0 462.1 163.65 Q468.8 162.85 476.5 160.75 484.35 158.6 490.35 157.85 L518.35 156.5 Q543.6 156.5 548.05 157.8 L549.8 158.5 550.05 158.6 552.95 159.85 552.95 164.75 551.0 164.1 548.0 163.5 522.6 162.05 518.35 162.0 488.25 163.35 Q482.0 164.15 475.2 166.25 468.4 168.4 462.25 169.15 L432.35 170.5 400.55 169.0 Q394.8 168.3 384.4 165.75 364.75 161.0 322.6 161.0 296.45 161.0 277.1 163.9 264.35 165.8 248.45 170.25 230.9 175.15 223.1 176.6 207.4 179.5 187.5 179.5 176.55 179.5 161.3 177.4 L132.1 172.75 Q90.3 166.0 57.0 166.0 25.1 166.0 8.55 173.75 4.15 175.8 -0.2 179.1 L-0.85 179.6 -3.0 181.0" fill="#000000" fill-rule="evenodd" stroke="none"/>
      <path d="M339.35 253.2 Q323.95 255.6 316.0 257.5 313.5 256.65 313.5 254.0 313.5 247.5 333.35 247.5 342.6 247.5 344.85 248.55 345.55 248.9 345.55 249.35 L345.35 249.85 Q345.35 251.4 344.0 252.05 L339.35 253.2 M138.2 239.7 Q137.5 239.05 137.5 237.35 137.5 234.75 143.5 232.0 148.85 229.5 152.0 229.5 153.7 229.5 158.95 230.95 166.15 232.9 169.0 235.75 L169.25 235.35 Q169.5 235.3 169.5 236.85 169.5 238.8 168.05 239.25 L164.5 239.5 Q160.3 239.5 157.45 237.25 154.55 235.0 151.5 235.0 149.1 235.0 144.6 237.65 L140.0 240.5 138.2 239.7 M89.5 291.35 Q89.5 289.25 92.55 287.2 96.8 284.4 105.0 284.0 105.0 283.5 110.0 283.5 118.1 283.5 120.95 285.6 122.55 286.75 123.5 289.0 L123.1 290.55 Q122.6 291.5 121.0 291.5 120.6 291.5 115.0 288.75 97.55 288.75 94.95 291.25 94.65 291.55 94.15 293.2 93.85 294.2 92.0 294.5 90.55 294.0 90.2 293.7 89.5 293.05 89.5 291.35 M72.0 207.5 L60.25 204.75 Q52.4 204.75 48.55 207.15 L46.4 208.75 Q45.4 209.5 44.5 209.5 L42.45 209.15 41.75 208.25 Q41.5 209.25 41.5 206.75 41.5 204.6 47.45 202.0 53.2 199.5 57.0 199.5 L66.8 199.15 Q71.75 199.5 76.0 203.75 L76.25 203.35 Q76.5 203.3 76.5 204.85 76.5 206.75 75.0 207.25 L72.0 207.5" fill="#f7efd5" fill-rule="evenodd" stroke="none"/>
      <path d="M330.55 372.95 L328.85 372.5 324.45 375.2 Q320.95 377.0 312.5 377.0 308.5 377.0 294.35 371.25 L281.0 365.5 Q274.7 365.5 269.8 368.75 265.5 371.6 265.5 374.0 265.5 376.65 268.0 377.5 269.2 377.2 269.75 376.0 L270.95 373.75 Q273.3 370.75 283.0 370.75 283.2 370.75 295.0 376.65 307.75 382.5 312.5 382.5 318.15 382.5 324.2 380.5 331.35 378.15 331.35 374.85 331.35 373.3 330.55 372.95 M-3.0 312.4 L-1.2 310.8 Q4.6 306.5 17.5 306.5 21.5 306.5 29.5 309.25 L45.5 315.25 Q68.45 324.0 80.5 324.0 89.3 324.0 99.15 319.85 L117.45 310.75 Q129.65 304.6 140.05 301.65 154.65 297.5 171.5 297.5 185.25 297.5 221.3 311.9 230.3 315.45 245.5 321.75 256.6 326.25 258.75 326.25 271.9 326.25 285.8 321.15 294.0 318.15 309.95 309.9 325.65 301.75 334.4 298.6 348.65 293.5 362.35 293.5 372.05 293.5 385.0 297.95 388.95 299.3 409.6 307.75 425.9 314.45 437.85 317.55 454.9 322.0 471.5 322.0 481.3 322.0 489.6 319.75 494.55 318.4 503.1 314.75 511.55 311.15 516.75 309.75 525.25 307.5 535.35 307.5 541.45 307.5 549.2 309.95 L551.95 310.9 551.95 400.5 1.0 400.5 Q-0.3 400.05 -0.9 399.15 L-2.0 399.5 -3.0 395.45 -3.0 312.4 M466.05 350.9 L467.85 351.5 Q469.75 351.05 473.95 347.3 479.95 343.75 491.85 343.75 492.85 343.75 500.85 347.15 508.85 350.5 514.85 350.5 517.3 350.5 521.35 349.0 526.35 347.15 526.35 344.85 L526.1 343.25 525.85 343.0 523.35 342.5 Q522.1 342.5 518.95 343.75 515.75 345.0 514.5 345.0 508.2 345.0 500.35 341.75 492.5 338.5 486.85 338.5 480.2 338.5 472.35 342.95 465.35 346.95 465.35 348.75 465.35 350.4 466.05 350.9 M1.0 395.5 L0.25 395.5 0.25 396.1 1.0 395.5 M34.0 350.75 Q35.5 350.75 36.75 352.1 L39.6 355.15 Q45.0 359.5 59.0 359.5 67.8 359.5 75.05 356.25 81.5 353.4 81.5 350.85 81.5 349.4 81.25 349.25 L81.0 349.0 78.0 348.5 Q75.35 348.5 75.05 349.4 L74.45 351.4 Q71.7 354.25 49.0 354.25 35.75 345.5 31.5 345.5 22.5 345.5 22.5 351.35 22.5 353.05 23.2 353.7 23.55 354.0 25.0 354.5 26.55 353.9 26.85 353.1 L27.1 351.9 Q27.5 350.75 34.0 350.75" fill="#ccebff" fill-rule="evenodd" stroke="none"/>
      <path d="M330.55 372.95 Q331.35 373.3 331.35 374.85 331.35 378.15 324.2 380.5 318.15 382.5 312.5 382.5 307.75 382.5 295.0 376.65 283.2 370.75 283.0 370.75 273.3 370.75 270.95 373.75 L269.75 376.0 Q269.2 377.2 268.0 377.5 265.5 376.65 265.5 374.0 265.5 371.6 269.8 368.75 274.7 365.5 281.0 365.5 L294.35 371.25 Q308.5 377.0 312.5 377.0 320.95 377.0 324.45 375.2 L328.85 372.5 330.55 372.95 M466.05 350.9 Q465.35 350.4 465.35 348.75 465.35 346.95 472.35 342.95 480.2 338.5 486.85 338.5 492.5 338.5 500.35 341.75 508.2 345.0 514.5 345.0 515.75 345.0 518.95 343.75 522.1 342.5 523.35 342.5 L525.85 343.0 526.1 343.25 526.35 344.85 Q526.35 347.15 521.35 349.0 517.3 350.5 514.85 350.5 508.85 350.5 500.85 347.15 492.85 343.75 491.85 343.75 479.95 343.75 473.95 347.3 469.75 351.05 467.85 351.5 L466.05 350.9 M34.0 350.75 Q27.5 350.75 27.1 351.9 L26.85 353.1 Q26.55 353.9 25.0 354.5 23.55 354.0 23.2 353.7 22.5 353.05 22.5 351.35 22.5 345.5 31.5 345.5 35.75 345.5 49.0 354.25 71.7 354.25 74.45 351.4 L75.05 349.4 Q75.35 348.5 78.0 348.5 L81.0 349.0 81.25 349.25 Q81.5 349.4 81.5 350.85 81.5 353.4 75.05 356.25 67.8 359.5 59.0 359.5 45.0 359.5 39.6 355.15 L36.75 352.1 Q35.5 350.75 34.0 350.75" fill="#ffffff" fill-rule="evenodd" stroke="none"/>
    </g>
  </defs>
</svg>
