<?xml version="1.0" encoding="UTF-8" standalone="no"?>
<svg xmlns:xlink="http://www.w3.org/1999/xlink" height="842.55px" width="1337.95px" xmlns="http://www.w3.org/2000/svg">
  <g transform="matrix(1, 0, 0, 1, 407.45, 285.05)">
    <use height="4.5" transform="matrix(5.4867, 0.0, 0.0, 81.5667, 3.2875, 23.0167)" width="99.75" xlink:href="#shape0"/>
    <use height="447.6" transform="matrix(1.0, 0.0, 0.0, 1.0, -42.85, -44.75)" width="612.85" xlink:href="#shape1"/>
  </g>
  <defs>
    <g id="shape0" transform="matrix(1, 0, 0, 1, 49.85, -2.5)">
      <path d="M49.9 7.0 L-49.85 7.0 -49.85 2.5 49.9 2.5 49.9 7.0" fill="#ffffff" fill-rule="evenodd" stroke="none"/>
    </g>
    <g id="shape1" transform="matrix(1, 0, 0, 1, 42.85, 44.75)">
      <path d="M156.75 0.0 L244.4 0.0 Q227.3 6.9 216.75 23.0 211.35 31.25 208.45 40.85 206.0 49.1 206.0 56.0 206.0 64.8 208.0 68.95 210.0 73.05 210.0 78.5 210.0 79.35 208.6 81.1 L205.5 84.95 Q201.0 90.95 201.0 96.85 201.0 99.65 203.75 106.95 207.5 116.75 213.55 125.0 231.85 150.0 263.0 150.0 L273.6 149.8 274.0 172.75 Q275.05 217.95 276.3 228.1 L207.25 235.5 142.45 241.55 119.05 243.55 119.0 241.25 Q119.0 226.1 112.05 181.5 L104.5 135.8 108.0 136.0 Q120.4 136.0 126.3 131.85 130.55 128.8 132.75 122.05 136.05 111.95 136.65 110.85 139.95 104.8 147.25 102.25 170.75 94.05 177.05 84.0 179.45 80.2 179.9 75.2 L180.0 66.6 Q180.0 54.25 165.15 43.75 161.05 40.85 154.9 37.6 150.25 35.1 150.25 34.75 150.25 33.95 154.65 25.55 159.0 17.2 159.0 13.75 159.0 6.5 156.75 0.0 M270.2 0.0 L276.45 0.0 275.3 0.55 270.5 2.5 Q270.1 1.6 270.2 0.0 M340.3 0.0 L550.0 0.0 550.0 229.95 Q492.2 216.3 380.75 220.8 L346.8 222.55 346.95 222.0 347.0 220.5 Q347.0 218.75 337.65 195.25 327.5 169.6 325.5 162.0 L322.95 149.75 Q327.55 151.0 336.0 151.0 357.55 151.0 365.5 142.25 L369.05 136.7 Q371.25 133.15 375.75 129.75 386.3 121.95 390.15 116.2 394.0 110.4 394.0 102.35 394.0 86.85 390.5 78.7 384.3 64.3 365.25 55.5 367.15 50.9 368.9 44.1 371.0 36.1 371.0 31.85 371.0 17.9 357.75 8.25 350.55 3.0 340.3 0.0 M0.1 400.0 L0.0 400.0 0.0 399.75 0.1 400.0 M0.0 259.7 L0.0 123.95 Q8.8 128.0 24.0 128.0 L35.2 127.3 34.75 136.65 Q34.1 151.7 33.25 159.5 L30.05 200.6 Q27.0 241.1 27.0 251.25 L27.0 253.6 Q9.65 256.5 0.0 259.7 M103.6 130.15 L104.05 130.05 103.65 130.3 103.6 130.15 M308.3 115.15 L308.0 115.25 308.3 114.95 308.3 115.05 308.3 115.15 M226.35 238.0 L226.2 238.35 214.25 239.7 198.95 241.1 199.4 241.05 226.35 238.0 M31.0 252.6 L31.05 252.95 31.0 252.95 31.0 252.6" fill="url(#gradient0)" fill-rule="evenodd" stroke="none"/>
      <path d="M0.0 123.95 Q-8.5 120.0 -11.05 112.3 -12.65 107.35 -11.6 101.15 -10.25 95.75 -10.25 95.35 -10.25 93.7 -15.35 89.05 L-26.55 78.65 Q-42.85 62.1 -42.85 46.25 -42.85 29.85 -41.05 23.15 -37.9 11.5 -26.1 -2.5 -23.35 -5.75 -19.95 -13.85 -16.25 -22.65 -13.35 -26.75 -2.45 -42.0 27.0 -44.75 39.7 -44.75 55.35 -38.0 L65.8 -33.35 Q70.85 -31.25 73.5 -31.25 74.7 -31.25 76.6 -32.6 80.4 -34.0 91.0 -34.0 132.3 -34.0 149.3 -13.2 154.35 -7.0 156.75 0.0 159.0 6.5 159.0 13.75 159.0 17.2 154.65 25.55 150.25 33.95 150.25 34.75 150.25 35.1 154.9 37.6 161.05 40.85 165.15 43.75 180.0 54.25 180.0 66.6 L179.9 75.2 Q179.45 80.2 177.05 84.0 170.75 94.05 147.25 102.25 139.95 104.8 136.65 110.85 136.05 111.95 132.75 122.05 130.55 128.8 126.3 131.85 120.4 136.0 108.0 136.0 L104.5 135.8 112.05 181.5 Q119.0 226.1 119.0 241.25 L119.05 243.55 142.45 241.55 207.25 235.5 276.3 228.1 Q275.05 217.95 274.0 172.75 L273.6 149.8 263.0 150.0 Q231.85 150.0 213.55 125.0 207.5 116.75 203.75 106.95 201.0 99.65 201.0 96.85 201.0 90.95 205.5 84.95 L208.6 81.1 Q210.0 79.35 210.0 78.5 210.0 73.05 208.0 68.95 206.0 64.8 206.0 56.0 206.0 49.1 208.45 40.85 211.35 31.25 216.75 23.0 227.3 6.9 244.4 0.0 249.85 -2.2 256.0 -3.5 268.25 -5.1 269.85 -3.05 270.35 -2.4 270.2 -0.6 L270.2 0.0 Q270.1 1.6 270.5 2.5 L275.3 0.55 276.45 0.0 280.45 -1.6 Q288.4 -4.0 307.5 -4.0 326.6 -4.0 340.3 0.0 350.55 3.0 357.75 8.25 371.0 17.9 371.0 31.85 371.0 36.1 368.9 44.1 367.15 50.9 365.25 55.5 384.3 64.3 390.5 78.7 394.0 86.85 394.0 102.35 394.0 110.4 390.15 116.2 386.3 121.95 375.75 129.75 371.25 133.15 369.05 136.7 L365.5 142.25 Q357.55 151.0 336.0 151.0 327.55 151.0 322.95 149.75 L325.5 162.0 Q327.5 169.6 337.65 195.25 347.0 218.75 347.0 220.5 L346.95 222.0 346.8 222.55 380.75 220.8 Q492.2 216.3 550.0 229.95 560.95 232.5 570.0 235.75 569.7 237.9 569.0 238.4 568.25 239.0 565.5 239.0 562.0 237.85 556.5 236.75 L556.35 235.6 555.5 235.45 550.0 234.6 538.35 232.95 Q492.3 227.05 417.75 227.05 L398.55 227.25 354.3 228.45 263.75 234.45 245.35 236.05 226.35 238.0 199.4 241.05 198.95 241.1 198.65 241.15 184.75 242.8 148.0 247.25 93.65 252.15 41.5 257.25 Q37.35 257.8 30.3 259.7 L27.9 260.4 Q21.8 262.15 13.8 264.8 L5.0 267.65 0.25 269.05 0.0 269.15 -1.95 269.65 Q-6.6 270.85 -8.5 270.85 L-11.5 270.35 -11.75 269.9 -12.0 268.1 Q-12.0 263.65 0.0 259.7 9.65 256.5 27.0 253.6 L27.0 251.25 Q27.0 241.1 30.05 200.6 L33.25 159.5 Q34.1 151.7 34.75 136.65 L35.2 127.3 24.0 128.0 Q8.8 128.0 0.0 123.95 M104.05 130.05 Q105.4 129.4 111.45 127.35 123.65 123.15 128.25 117.5 129.3 116.25 129.2 113.8 L128.8 109.25 Q128.45 103.25 133.75 101.0 164.05 87.8 169.7 82.7 172.9 79.8 173.65 76.1 174.0 74.3 174.0 67.25 174.0 60.55 169.3 55.25 165.95 51.4 159.0 47.4 151.5 43.3 148.7 41.4 144.0 38.15 144.0 35.0 144.0 32.95 148.5 23.7 153.0 14.5 153.0 13.6 153.0 8.9 151.1 3.05 L150.0 0.0 Q147.65 -5.85 143.8 -10.75 130.3 -27.75 103.25 -27.75 76.3 -27.75 75.35 -25.85 L76.15 -24.6 Q76.45 -24.0 73.0 -24.0 67.8 -27.7 60.55 -31.35 46.0 -38.75 34.5 -38.75 -1.8 -38.75 -12.05 -21.85 -14.7 -17.55 -17.1 -8.35 -19.15 -0.55 -21.6 1.75 -31.65 11.3 -34.9 24.1 -36.85 31.75 -36.85 46.35 -36.85 62.25 -19.9 77.9 -15.7 81.85 -8.3 88.05 -3.0 92.85 -3.0 95.5 L-4.0 100.8 Q-5.0 105.4 -5.0 106.35 L-4.75 113.1 Q-4.05 115.9 -0.7 117.25 L0.0 117.5 Q7.2 119.9 35.6 120.0 L36.0 113.75 38.0 90.5 Q38.25 86.75 39.25 79.25 39.85 74.8 42.45 72.4 42.0 71.2 42.0 70.5 41.8 68.9 42.35 67.85 43.5 65.7 47.5 68.0 50.05 57.05 52.05 51.05 55.75 40.0 60.0 40.0 61.5 40.0 67.65 49.3 74.35 59.55 76.25 61.0 77.85 57.45 79.2 51.85 80.4 46.75 81.0 41.75 82.35 31.2 86.2 27.0 L87.4 26.05 Q87.6 25.0 87.95 24.65 88.85 23.8 90.3 26.9 93.45 33.6 95.75 47.75 L96.0 75.5 Q96.05 86.1 98.9 102.85 L103.6 130.15 103.65 130.3 104.05 130.05 M358.0 57.0 L361.5 47.6 Q365.0 38.5 365.0 31.85 365.0 18.8 348.5 10.5 332.2 2.25 307.1 2.25 287.75 2.25 279.15 5.65 273.9 9.0 271.0 9.0 268.0 9.0 266.7 8.0 265.95 7.4 265.35 5.75 264.1 2.5 259.35 2.5 234.8 2.5 221.05 28.5 216.6 36.85 213.9 46.85 212.0 53.95 212.0 56.25 212.0 62.1 214.0 70.45 L216.0 78.75 Q216.0 82.2 211.5 87.3 207.0 92.4 207.0 97.1 207.0 126.25 242.0 138.85 252.1 142.5 266.05 144.85 L273.55 146.25 273.0 115.0 Q273.0 108.1 275.2 110.3 L277.0 110.0 Q278.1 110.0 279.1 111.05 280.3 112.4 282.5 113.0 285.45 97.45 292.9 102.25 294.65 103.35 298.55 107.3 301.7 110.5 302.85 110.5 304.1 110.5 304.95 109.25 305.75 108.0 307.0 108.0 L308.6 108.3 Q309.05 107.6 309.9 108.65 311.65 110.75 314.55 119.3 318.35 130.55 321.6 143.9 L330.5 144.5 Q343.0 145.9 349.05 144.5 351.45 143.95 356.75 141.0 359.85 139.25 360.8 135.15 361.8 131.0 365.75 128.75 379.35 120.8 383.75 115.45 388.0 110.35 388.0 102.35 388.0 77.95 373.0 67.25 370.55 65.5 362.7 61.5 358.0 59.1 358.0 57.0 M308.0 115.25 Q305.75 118.0 303.5 118.0 300.6 118.0 296.55 114.05 L291.5 108.75 Q290.35 112.05 288.8 115.05 285.7 121.0 283.0 121.0 L279.8 120.5 280.0 122.0 280.0 175.25 280.0 203.8 Q279.65 221.8 278.5 227.9 L341.9 222.85 Q338.0 219.0 331.8 202.5 327.2 190.15 320.5 168.0 317.85 159.15 312.95 137.3 L312.75 136.3 312.45 134.95 312.35 134.5 312.25 134.15 312.15 133.65 312.1 133.3 308.55 116.55 308.3 115.15 308.3 115.05 308.3 114.95 308.0 115.25 M31.05 252.95 Q47.6 250.3 70.5 247.95 L113.8 244.0 113.55 242.8 Q108.8 222.95 99.0 139.75 93.2 90.3 88.05 41.4 L85.3 52.3 Q80.35 71.0 78.5 71.0 74.5 71.0 67.85 62.45 L59.5 50.5 Q58.4 53.95 54.85 67.8 51.35 80.0 49.0 80.0 47.3 80.0 45.85 78.55 44.95 91.4 38.25 170.25 L31.05 252.0 31.0 252.55 31.0 252.6 31.0 252.95 31.05 252.95" fill="#000000" fill-rule="evenodd" stroke="none"/>
      <path d="M103.6 130.15 L98.9 102.85 Q96.05 86.1 96.0 75.5 L95.75 47.75 Q93.45 33.6 90.3 26.9 88.85 23.8 87.95 24.65 87.6 25.0 87.4 26.05 L86.2 27.0 Q82.35 31.2 81.0 41.75 80.4 46.75 79.2 51.85 77.85 57.45 76.25 61.0 74.35 59.55 67.65 49.3 61.5 40.0 60.0 40.0 55.75 40.0 52.05 51.05 50.05 57.05 47.5 68.0 43.5 65.7 42.35 67.85 41.8 68.9 42.0 70.5 42.0 71.2 42.45 72.4 39.85 74.8 39.25 79.25 38.25 86.75 38.0 90.5 L36.0 113.75 35.6 120.0 Q7.2 119.9 0.0 117.5 L-0.7 117.25 Q-4.05 115.9 -4.75 113.1 L-5.0 106.35 Q-5.0 105.4 -4.0 100.8 L-3.0 95.5 Q-3.0 92.85 -8.3 88.05 -15.7 81.85 -19.9 77.9 -36.85 62.25 -36.85 46.35 -36.85 31.75 -34.9 24.1 -31.65 11.3 -21.6 1.75 -19.15 -0.55 -17.1 -8.35 -14.7 -17.55 -12.05 -21.85 -1.8 -38.75 34.5 -38.75 46.0 -38.75 60.55 -31.35 67.8 -27.7 73.0 -24.0 76.45 -24.0 76.15 -24.6 L75.35 -25.85 Q76.3 -27.75 103.25 -27.75 130.3 -27.75 143.8 -10.75 147.65 -5.85 150.0 0.0 L151.1 3.05 Q153.0 8.9 153.0 13.6 153.0 14.5 148.5 23.7 144.0 32.95 144.0 35.0 144.0 38.15 148.7 41.4 151.5 43.3 159.0 47.4 165.95 51.4 169.3 55.25 174.0 60.55 174.0 67.25 174.0 74.3 173.65 76.1 172.9 79.8 169.7 82.7 164.05 87.8 133.75 101.0 128.45 103.25 128.8 109.25 L129.2 113.8 Q129.3 116.25 128.25 117.5 123.65 123.15 111.45 127.35 105.4 129.4 104.05 130.05 L103.6 130.15 M338.65 59.15 L338.25 58.5 Q331.3 59.9 328.4 55.2 L326.2 51.7 Q324.8 50.0 322.5 50.0 319.4 50.0 317.55 52.4 315.75 54.75 311.85 54.75 L309.6 54.5 309.0 54.25 Q305.85 46.35 304.2 47.2 303.0 47.85 303.0 52.35 L302.85 53.5 Q302.8 55.1 303.25 56.5 304.75 61.0 311.0 61.0 315.15 61.0 317.9 59.55 321.3 57.7 322.25 57.5 323.45 58.7 324.55 61.65 326.5 64.0 333.5 64.0 L337.75 63.5 Q339.0 62.9 339.0 61.1 339.0 59.65 338.65 59.15 M358.0 57.0 Q358.0 59.1 362.7 61.5 370.55 65.5 373.0 67.25 388.0 77.95 388.0 102.35 388.0 110.35 383.75 115.45 379.35 120.8 365.75 128.75 361.8 131.0 360.8 135.15 359.85 139.25 356.75 141.0 351.45 143.95 349.05 144.5 343.0 145.9 330.5 144.5 L321.6 143.9 Q318.35 130.55 314.55 119.3 311.65 110.75 309.9 108.65 309.05 107.6 308.6 108.3 L307.0 108.0 Q305.75 108.0 304.95 109.25 304.1 110.5 302.85 110.5 301.7 110.5 298.55 107.3 294.65 103.35 292.9 102.25 285.45 97.45 282.5 113.0 280.3 112.4 279.1 111.05 278.1 110.0 277.0 110.0 L275.2 110.3 Q273.0 108.1 273.0 115.0 L273.55 146.25 266.05 144.85 Q252.1 142.5 242.0 138.85 207.0 126.25 207.0 97.1 207.0 92.4 211.5 87.3 216.0 82.2 216.0 78.75 L214.0 70.45 Q212.0 62.1 212.0 56.25 212.0 53.95 213.9 46.85 216.6 36.85 221.05 28.5 234.8 2.5 259.35 2.5 264.1 2.5 265.35 5.75 265.95 7.4 266.7 8.0 268.0 9.0 271.0 9.0 273.9 9.0 279.15 5.65 287.75 2.25 307.1 2.25 332.2 2.25 348.5 10.5 365.0 18.8 365.0 31.85 365.0 38.5 361.5 47.6 L358.0 57.0 M73.65 4.15 L73.25 3.5 69.15 3.6 66.3 5.5 Q61.15 8.75 47.75 8.75 46.6 8.75 43.65 6.4 40.75 4.0 37.0 4.0 35.7 4.0 32.8 6.75 L26.75 12.9 Q17.5 21.75 9.75 21.75 L0.0 21.7 -4.7 21.55 Q-5.85 21.65 -6.0 22.3 L-6.0 24.5 -6.25 25.2 Q-6.4 25.85 -5.95 26.4 -4.8 27.7 0.0 27.95 L2.5 28.0 Q19.2 28.0 28.4 19.65 30.7 17.55 33.8 13.85 36.3 11.25 38.35 11.25 38.65 11.25 42.8 13.15 46.95 15.0 53.5 15.0 63.45 15.0 69.3 11.75 74.0 9.15 74.0 6.1 74.0 4.65 73.65 4.15 M0.8 401.45 L1.1 401.3 0.8 401.45" fill="#63d879" fill-rule="evenodd" stroke="none"/>
      <path d="M338.65 59.15 Q339.0 59.65 339.0 61.1 339.0 62.9 337.75 63.5 L333.5 64.0 Q326.5 64.0 324.55 61.65 323.45 58.7 322.25 57.5 321.3 57.7 317.9 59.55 315.15 61.0 311.0 61.0 304.75 61.0 303.25 56.5 302.8 55.1 302.85 53.5 L303.0 52.35 Q303.0 47.85 304.2 47.2 305.85 46.35 309.0 54.25 L309.6 54.5 311.85 54.75 Q315.75 54.75 317.55 52.4 319.4 50.0 322.5 50.0 324.8 50.0 326.2 51.7 L328.4 55.2 Q331.3 59.9 338.25 58.5 L338.65 59.15 M73.65 4.15 Q74.0 4.65 74.0 6.1 74.0 9.15 69.3 11.75 63.45 15.0 53.5 15.0 46.95 15.0 42.8 13.15 38.65 11.25 38.35 11.25 36.3 11.25 33.8 13.85 30.7 17.55 28.4 19.65 19.2 28.0 2.5 28.0 L0.0 27.95 Q-4.8 27.7 -5.95 26.4 -6.4 25.85 -6.25 25.2 L-6.0 24.5 -6.0 22.3 Q-5.85 21.65 -4.7 21.55 L0.0 21.7 9.75 21.75 Q17.5 21.75 26.75 12.9 L32.8 6.75 Q35.7 4.0 37.0 4.0 40.75 4.0 43.65 6.4 46.6 8.75 47.75 8.75 61.15 8.75 66.3 5.5 L69.15 3.6 73.25 3.5 73.65 4.15" fill="#49cf64" fill-rule="evenodd" stroke="none"/>
      <path d="M308.3 115.15 L308.55 116.55 312.1 133.3 312.15 133.65 312.25 134.15 312.35 134.5 312.45 134.95 312.75 136.3 312.95 137.3 Q317.85 159.15 320.5 168.0 327.2 190.15 331.8 202.5 338.0 219.0 341.9 222.85 L278.5 227.9 Q279.65 221.8 280.0 203.8 L280.0 175.25 280.0 122.0 279.8 120.5 283.0 121.0 Q285.7 121.0 288.8 115.05 290.35 112.05 291.5 108.75 L296.55 114.05 Q300.6 118.0 303.5 118.0 305.75 118.0 308.0 115.25 L308.3 115.15 M31.0 252.6 L31.0 252.55 31.05 252.0 38.25 170.25 Q44.95 91.4 45.85 78.55 47.3 80.0 49.0 80.0 51.35 80.0 54.85 67.8 58.4 53.95 59.5 50.5 L67.85 62.45 Q74.5 71.0 78.5 71.0 80.35 71.0 85.3 52.3 L88.05 41.4 Q93.2 90.3 99.0 139.75 108.8 222.95 113.55 242.8 L113.8 244.0 70.5 247.95 Q47.6 250.3 31.05 252.95 L31.0 252.6" fill="#957d48" fill-rule="evenodd" stroke="none"/>
      <path d="M556.5 236.75 Q558.3 252.4 558.75 273.45 L558.9 315.8 558.95 358.95 Q558.55 390.55 556.95 397.65 L557.9 398.8 Q557.9 399.3 556.8 400.3 L554.9 401.65 5.9 401.65 5.15 401.0 Q4.4 402.85 3.0 402.85 1.85 402.85 1.1 401.3 L0.8 401.45 0.1 400.0 0.0 399.75 Q-2.4 393.95 -2.4 384.8 -1.8 372.75 -2.0 367.6 -2.3 360.6 -2.2 347.25 L-2.0 333.5 -1.8 270.5 -2.0 270.1 -1.95 269.65 0.0 269.15 0.25 269.05 5.0 267.65 13.8 264.8 Q21.8 262.15 27.9 260.4 L30.3 259.7 Q37.35 257.8 41.5 257.25 L93.65 252.15 148.0 247.25 184.75 242.8 198.65 241.15 198.95 241.1 214.25 239.7 226.2 238.35 226.35 238.0 245.35 236.05 263.75 234.45 354.3 228.45 398.55 227.25 417.75 227.05 Q492.3 227.05 538.35 232.95 L550.0 234.6 555.5 235.45 556.35 235.6 556.5 236.75" fill="#3ccc58" fill-rule="evenodd" stroke="none"/>
      <path d="M1.1 401.3 L1.0 401.85 0.8 401.45 1.1 401.3" fill="#035a0c" fill-rule="evenodd" stroke="none"/>
    </g>
    <linearGradient gradientTransform="matrix(0.0, 0.2441, -0.3357, 0.0, 275.0, 200.0)" gradientUnits="userSpaceOnUse" id="gradient0" spreadMethod="pad" x1="-819.2" x2="819.2">
      <stop offset="0.0" stop-color="#1c76fd"/>
      <stop offset="1.0" stop-color="#81b4fe"/>
    </linearGradient>
  </defs>
</svg>
