<?xml version="1.0" encoding="UTF-8" standalone="no"?>
<svg xmlns:xlink="http://www.w3.org/1999/xlink" height="842.55px" width="1337.95px" xmlns="http://www.w3.org/2000/svg">
  <g transform="matrix(1, 0, 0, 1, 407.45, 285.05)">
    <use height="4.5" transform="matrix(5.4867, 0.0, 0.0, 81.5667, 3.2875, 23.0167)" width="99.75" xlink:href="#shape0"/>
    <use height="404.6" transform="matrix(1.0, 0.0, 0.0, 1.0, -6.75, -2.0)" width="560.65" xlink:href="#shape1"/>
  </g>
  <defs>
    <g id="shape0" transform="matrix(1, 0, 0, 1, 49.85, -2.5)">
      <path d="M49.9 7.0 L-49.85 7.0 -49.85 2.5 49.9 2.5 49.9 7.0" fill="#ffffff" fill-rule="evenodd" stroke="none"/>
    </g>
    <g id="shape1" transform="matrix(1, 0, 0, 1, 6.75, 2.0)">
      <path d="M386.2 -2.0 L394.45 -2.0 393.35 22.75 393.35 23.0 392.85 34.3 392.8 35.6 392.6 39.6 392.65 47.7 392.65 47.75 393.15 47.7 Q394.85 36.15 395.85 31.45 396.5 28.25 396.85 28.25 398.35 28.25 399.3 29.4 401.6 32.2 400.6 41.85 L400.55 46.8 411.65 45.5 Q411.1 41.85 411.1 39.25 L411.15 36.25 411.35 32.5 412.45 31.9 Q413.4 31.25 414.85 31.25 415.8 31.25 418.7 40.35 L419.95 44.55 431.45 43.4 431.95 39.35 Q432.8 33.25 433.85 33.25 435.65 33.25 436.65 36.8 437.25 39.0 437.6 42.6 L441.05 42.25 440.1 34.85 438.65 26.8 438.55 26.4 429.7 4.35 429.45 4.05 429.25 3.75 427.3 1.25 426.05 -0.1 424.05 -2.0 435.7 -2.0 Q447.85 13.55 448.85 51.0 L451.25 83.65 Q453.6 116.0 453.6 123.35 L453.6 130.0 Q455.25 130.95 453.6 132.1 453.6 133.85 453.25 134.15 L452.2 134.7 Q451.25 135.75 449.85 135.75 449.25 135.75 448.7 135.25 L447.95 135.3 Q439.4 135.9 396.35 135.0 L361.6 136.25 350.85 137.75 345.7 137.3 Q344.55 138.75 342.85 138.75 L340.8 138.4 339.35 137.5 340.1 121.35 338.1 66.6 Q338.6 44.15 344.85 22.75 349.25 7.7 355.75 -2.0 L365.8 -2.0 Q357.65 7.0 352.35 24.25 L352.35 24.3 Q351.2 27.95 350.3 31.85 348.15 40.7 346.85 50.75 L346.45 54.25 360.3 51.95 357.6 36.75 Q357.1 33.35 357.1 32.0 356.85 29.1 357.15 26.8 L357.2 26.65 Q357.85 22.25 360.85 22.25 362.15 22.25 364.05 31.0 L365.5 38.35 365.6 39.0 367.6 50.95 385.15 48.7 385.1 39.6 385.05 37.75 384.9 29.15 Q384.85 20.5 385.15 12.25 385.45 3.75 386.2 -2.0 M549.6 196.35 L549.6 197.1 Q549.6 198.7 548.45 199.7 L547.6 200.25 Q547.25 200.5 409.35 200.75 L408.65 200.75 407.8 200.75 407.0 200.75 405.8 200.75 398.25 200.75 394.3 200.75 385.55 200.75 379.1 200.7 377.0 200.7 375.7 200.7 373.15 200.7 370.65 200.7 369.35 200.7 367.85 200.7 366.9 200.7 365.65 200.7 364.45 200.7 253.85 199.55 253.35 199.5 248.1 199.25 Q246.2 199.25 246.1 196.6 244.35 195.85 243.6 191.45 L243.2 188.05 243.15 187.85 243.1 178.6 Q243.15 145.4 243.9 113.7 L240.85 113.75 Q230.95 113.75 226.6 111.4 L226.3 111.5 Q223.3 112.75 215.5 112.75 L210.3 112.2 209.0 113.25 Q202.35 117.75 180.0 117.75 155.95 117.75 151.3 109.3 L150.6 107.65 Q144.85 110.75 140.5 110.75 133.85 110.75 130.75 109.15 126.65 113.75 113.0 113.75 L100.45 113.15 Q102.8 150.5 104.75 188.1 105.3 192.6 104.75 195.25 104.25 197.25 103.1 198.15 103.05 198.6 101.75 199.1 L101.85 199.75 101.95 200.3 Q102.0 200.75 101.65 200.95 L94.4 201.4 17.25 204.0 Q16.1 204.0 8.45 205.9 L1.25 207.55 -0.5 207.75 -1.25 207.75 Q-4.75 207.65 -6.1 206.6 L-6.25 206.5 -6.55 206.15 Q-6.75 205.85 -6.75 204.25 -6.75 200.65 8.0 198.25 26.4 195.25 63.0 195.25 L97.5 196.4 Q96.9 177.1 93.05 119.8 L89.25 61.0 Q88.95 54.2 89.25 47.55 89.45 43.35 89.9 40.45 89.25 39.6 89.25 38.25 89.25 36.35 91.05 35.3 L91.7 35.0 Q92.3 34.25 93.0 34.25 93.1 34.25 93.2 34.4 96.25 33.45 101.8 32.75 121.75 30.25 174.8 30.6 227.8 30.95 247.05 30.55 L253.95 30.2 254.05 31.65 Q255.3 33.4 254.6 37.5 250.3 166.15 247.9 190.9 L247.65 193.15 253.1 192.35 257.85 192.25 547.6 193.75 Q549.35 193.75 549.6 196.35 M441.75 50.7 L439.85 50.75 437.85 50.7 437.6 60.35 437.65 81.75 437.4 86.2 437.4 86.25 438.35 86.25 442.75 86.65 442.1 59.5 441.75 50.7 M430.75 51.35 L423.4 51.9 422.1 51.95 426.35 67.8 429.35 79.35 430.15 61.25 430.75 51.35 M412.95 52.45 L400.2 53.55 399.45 59.25 Q397.05 68.55 394.6 81.25 L394.6 87.0 395.25 86.95 417.4 86.4 418.1 86.4 419.55 86.4 422.8 86.35 418.8 73.7 Q414.85 61.15 412.95 52.45 M443.35 102.95 L443.0 93.5 437.45 94.6 436.8 94.7 436.35 94.75 Q435.6 98.4 434.5 99.85 L435.35 103.45 440.35 103.25 443.35 103.35 443.35 102.95 M361.3 57.3 Q357.05 57.5 351.65 58.65 L345.9 59.7 Q345.6 63.65 345.6 66.6 L346.6 92.65 Q353.25 90.25 368.0 88.75 365.75 79.25 362.7 64.3 L361.3 57.3 M369.6 64.0 Q370.85 71.55 376.2 88.0 L385.2 87.45 386.8 87.35 386.25 78.3 Q385.55 67.3 385.3 55.75 L368.55 56.95 369.6 64.0 M351.4 100.65 Q352.85 102.0 353.6 102.0 L371.6 101.75 370.15 97.0 368.1 97.0 351.25 99.8 350.55 99.95 351.4 100.65 M386.65 97.35 L386.75 96.8 386.65 96.8 379.1 96.9 380.2 100.3 382.85 100.25 386.6 100.35 Q386.5 98.9 386.65 97.35 M394.95 97.3 L395.4 105.55 395.4 106.0 Q412.45 105.7 428.1 103.75 L425.7 95.65 394.9 96.7 394.95 97.3 M387.7 107.7 L382.85 107.75 381.45 107.75 380.85 108.25 Q378.25 109.75 365.85 109.75 351.8 109.75 347.15 107.2 L347.2 108.15 347.4 113.9 347.4 114.25 347.4 114.35 347.5 117.0 347.6 119.5 347.6 119.8 347.6 120.8 347.6 121.35 347.65 130.75 347.6 131.15 349.95 130.9 388.3 128.15 387.7 108.25 387.7 107.7 M395.6 112.85 L395.6 114.25 Q396.2 123.05 395.4 127.7 L397.85 127.5 421.35 127.25 445.95 128.2 445.85 127.55 445.7 126.9 443.85 111.0 443.8 110.75 440.35 110.75 433.35 110.3 432.85 110.55 Q426.4 113.75 402.35 113.75 398.5 113.75 395.6 112.85 M208.7 37.8 Q204.8 71.75 201.85 80.1 L205.9 91.1 211.25 105.35 Q214.6 104.25 222.5 104.25 L223.25 104.25 Q223.45 100.3 229.0 67.75 232.7 46.25 234.8 37.75 L208.7 37.8 M240.6 42.85 Q240.6 50.7 236.2 76.55 232.75 96.95 231.0 104.75 L244.05 106.8 244.15 103.25 Q245.45 53.65 248.1 37.75 L240.8 37.75 Q240.95 39.9 240.6 42.85 M194.15 37.85 Q195.7 41.6 196.65 48.45 L198.05 60.1 199.0 53.75 Q200.65 42.95 202.1 37.85 L194.15 37.85 M167.75 40.6 Q167.75 47.05 163.25 67.45 158.75 87.8 158.75 98.0 L158.8 104.8 Q159.2 110.0 161.25 110.0 L202.0 108.75 203.5 107.25 Q186.0 52.35 185.3 37.9 L168.05 37.95 167.75 40.6 M156.85 38.05 Q157.95 42.65 158.65 50.45 160.15 42.45 161.35 38.0 L156.85 38.05 M115.05 38.65 L109.25 39.0 94.7 41.7 Q96.8 57.65 100.1 107.85 L124.25 105.0 Q125.5 104.85 125.05 102.45 L124.25 98.25 Q124.25 89.7 119.25 65.9 L114.25 42.0 Q114.25 39.8 115.05 38.65 M151.5 97.65 L154.0 79.4 Q152.65 73.65 151.25 60.4 L149.35 38.1 Q130.15 38.25 120.1 38.5 124.25 43.4 128.05 68.1 130.45 83.55 131.75 99.25 L131.9 100.25 132.0 100.25 Q133.6 100.25 135.5 103.0 145.35 103.0 148.9 100.15 L150.8 98.15 151.5 97.65 M132.35 228.1 Q131.7 228.1 131.4 227.5 L131.2 226.85 Q131.2 224.95 133.4 224.95 141.45 224.95 141.45 230.4 141.45 236.1 137.85 236.15 134.6 236.1 133.9 234.9 133.55 234.25 133.85 233.55 133.85 232.0 134.5 231.35 135.55 230.35 139.2 229.6 138.95 229.15 137.05 228.3 135.05 227.3 133.75 227.35 133.0 228.1 132.35 228.1 M136.1 233.45 L138.6 233.75 138.65 232.15 138.8 231.95 137.35 232.15 136.55 233.0 Q136.2 233.15 136.1 233.45 M161.2 230.2 L161.25 227.8 Q161.9 226.15 164.75 226.15 169.4 226.15 170.0 230.0 170.0 231.1 169.15 232.75 168.2 234.65 166.95 234.65 162.25 234.65 161.25 232.55 160.8 231.5 161.2 230.2 M152.6 233.15 Q150.65 235.55 148.85 235.55 147.35 235.5 145.5 231.85 L143.95 228.1 Q143.95 227.05 145.15 227.05 146.5 227.0 149.0 232.75 L150.8 230.5 Q151.35 229.7 152.4 229.7 154.3 229.7 155.25 232.85 L155.55 232.85 Q154.95 230.45 154.95 229.0 154.95 226.7 156.15 226.75 157.05 226.7 157.8 233.1 157.8 235.2 155.85 235.25 153.7 235.25 153.0 234.3 152.65 233.8 152.6 233.15 M122.2 228.65 Q120.05 241.8 120.05 244.05 L119.55 248.95 Q119.7 251.15 123.4 252.25 131.75 254.6 177.15 254.6 216.0 254.6 223.35 250.35 225.65 248.95 224.7 247.0 223.25 245.1 223.3 244.65 221.35 222.5 221.35 211.8 L206.65 212.05 Q204.95 212.5 124.8 213.0 124.05 216.85 122.2 228.65 M116.25 205.65 L145.0 204.7 173.1 204.45 208.15 203.15 Q221.15 202.45 225.0 204.45 229.4 206.75 230.15 216.15 230.4 219.1 230.4 245.95 230.4 247.55 232.05 251.1 233.05 254.35 230.45 256.35 222.75 261.95 177.85 262.0 122.65 261.95 113.15 256.35 109.8 254.35 110.95 251.0 112.9 247.3 112.95 245.6 112.9 238.25 115.2 225.2 L117.45 213.1 Q113.85 210.5 113.9 209.2 113.85 206.35 116.25 205.65 M213.25 227.5 L208.75 234.65 Q207.85 234.65 205.8 227.8 203.65 231.5 203.75 237.8 203.5 238.2 202.8 238.2 201.85 238.2 201.7 236.8 L201.65 235.25 Q201.65 233.0 202.4 229.75 203.6 224.95 205.6 224.95 206.95 224.95 208.05 226.65 L209.25 229.0 210.75 226.45 Q211.6 224.95 213.25 224.95 216.2 224.95 216.95 235.6 217.4 238.5 215.9 238.5 214.45 238.5 213.7 227.8 L213.25 227.5 M180.1 229.85 Q180.1 236.15 176.65 236.15 175.7 236.1 175.35 235.55 L175.2 234.95 Q175.15 234.7 176.5 233.05 177.85 231.1 177.85 229.45 L177.85 227.8 Q177.45 226.45 175.05 226.45 173.8 226.4 173.45 226.8 173.1 227.2 172.8 227.2 171.95 227.2 171.65 226.45 171.55 226.0 171.6 225.55 171.6 224.5 172.05 224.35 L174.6 224.05 Q178.9 224.05 179.95 226.9 L180.1 229.85 M166.9 232.25 L167.75 230.1 Q167.75 229.7 167.15 229.05 166.45 228.4 165.85 228.4 163.45 228.4 163.45 230.1 L163.45 231.35 Q164.0 232.25 166.9 232.25 M196.6 229.0 Q196.0 227.2 194.7 227.2 L191.25 227.8 Q190.55 227.8 190.3 227.2 L190.05 226.6 Q190.05 224.95 193.45 224.95 197.8 224.95 198.8 227.9 L198.85 231.0 Q198.8 237.0 194.6 237.0 191.95 237.0 191.3 235.65 191.0 234.95 191.25 234.15 191.2 232.8 191.6 232.4 192.65 231.05 196.6 230.8 L196.6 229.0 M196.45 233.25 Q195.3 232.95 193.5 233.95 L193.5 234.65 195.45 234.65 196.3 233.75 196.45 233.25 M185.3 225.25 Q186.5 225.25 187.85 239.8 187.8 244.45 186.75 244.45 185.45 244.45 185.4 241.0 L185.45 236.0 184.1 227.65 Q184.1 225.25 185.3 225.25" fill="#000000" fill-rule="evenodd" stroke="none"/>
      <path d="M394.45 -2.0 L424.05 -2.0 426.05 -0.1 427.3 1.25 429.25 3.75 429.45 4.05 429.7 4.35 438.55 26.4 438.65 26.8 440.1 34.85 437.1 36.55 436.65 36.8 Q435.65 33.25 433.85 33.25 432.8 33.25 431.95 39.35 427.3 41.75 426.35 41.75 422.55 41.75 418.7 40.35 415.8 31.25 414.85 31.25 413.4 31.25 412.45 31.9 L411.35 32.5 411.15 36.25 410.05 35.4 Q403.25 29.0 402.6 29.0 L399.3 29.4 Q398.35 28.25 396.85 28.25 396.5 28.25 395.85 31.45 L393.3 33.9 392.85 34.3 393.35 23.0 393.5 22.75 393.35 22.75 394.45 -2.0 M365.8 -2.0 L386.2 -2.0 Q385.45 3.75 385.15 12.25 384.85 20.5 384.9 29.15 L385.05 37.75 373.85 38.75 365.65 38.35 365.5 38.35 364.05 31.0 Q362.15 22.25 360.85 22.25 357.85 22.25 357.2 26.65 L357.15 26.8 Q356.85 29.1 357.1 32.0 357.1 33.35 357.6 36.75 353.8 35.45 351.6 33.4 L350.3 31.85 Q351.2 27.95 352.35 24.3 L352.35 24.25 Q357.65 7.0 365.8 -2.0" fill="#136c13" fill-rule="evenodd" stroke="none"/>
      <path d="M549.6 196.35 Q549.7 196.25 549.85 196.25 555.0 196.25 553.6 299.35 555.0 402.6 549.85 402.6 L547.95 402.35 546.85 402.6 3.0 402.6 1.1 401.3 Q0.6 402.6 0.0 402.6 L-2.05 402.25 -3.5 401.35 -3.75 303.85 Q-4.05 279.15 -3.75 254.5 -3.25 216.3 -1.25 207.75 L-0.5 207.75 1.25 207.55 8.45 205.9 Q16.1 204.0 17.25 204.0 L94.4 201.4 101.65 200.95 Q102.0 200.75 101.95 200.3 L101.95 199.75 101.85 199.75 101.75 199.1 Q103.05 198.6 103.1 198.15 104.25 197.25 104.75 195.25 L177.35 194.25 Q219.85 194.25 243.6 191.45 244.35 195.85 246.1 196.6 246.2 199.25 248.1 199.25 L253.35 199.5 253.85 199.55 364.45 200.7 365.65 200.7 366.9 200.7 367.85 200.7 369.35 200.7 370.65 200.7 373.15 200.7 375.7 200.7 377.0 200.7 379.1 200.7 385.55 200.75 394.3 200.75 398.25 200.75 405.8 200.75 407.0 200.75 407.8 200.75 408.65 200.75 409.35 200.75 Q547.25 200.5 547.6 200.25 L548.35 200.35 548.45 199.7 Q549.6 198.7 549.6 197.1 L549.6 196.35 M247.9 190.9 L253.9 189.95 Q253.35 191.05 253.1 192.35 L247.65 193.15 247.9 190.9 M116.25 205.65 Q113.85 206.35 113.9 209.2 113.85 210.5 117.45 213.1 L115.2 225.2 Q112.9 238.25 112.95 245.6 112.9 247.3 110.95 251.0 109.8 254.35 113.15 256.35 122.65 261.95 177.85 262.0 222.75 261.95 230.45 256.35 233.05 254.35 232.05 251.1 230.4 247.55 230.4 245.95 230.4 219.1 230.15 216.15 229.4 206.75 225.0 204.45 221.15 202.45 208.15 203.15 L173.1 204.45 145.0 204.7 116.25 205.65 M2.3 395.05 L2.25 395.45 3.0 395.1 2.3 395.05" fill="#cca300" fill-rule="evenodd" stroke="none"/>
      <path d="M385.05 37.75 L385.1 39.6 385.15 48.7 367.6 50.95 365.6 39.0 365.65 38.35 373.85 38.75 385.05 37.75 M357.6 36.75 L360.3 51.95 346.45 54.25 346.85 50.75 Q348.15 40.7 350.3 31.85 L351.6 33.4 Q353.8 35.45 357.6 36.75 M399.3 29.4 L402.6 29.0 Q403.25 29.0 410.05 35.4 L411.15 36.25 411.1 39.25 Q411.1 41.85 411.65 45.5 L400.55 46.8 400.6 41.85 Q401.6 32.2 399.3 29.4 M418.7 40.35 Q422.55 41.75 426.35 41.75 427.3 41.75 431.95 39.35 L431.45 43.4 419.95 44.55 418.7 40.35 M436.65 36.8 L437.1 36.55 440.1 34.85 441.05 42.25 437.6 42.6 Q437.25 39.0 436.65 36.8 M443.35 103.35 L440.35 103.25 435.35 103.45 434.5 99.85 Q435.6 98.4 436.35 94.75 L436.8 94.7 437.45 94.6 443.0 93.5 443.35 102.95 443.35 103.35 M412.95 52.45 Q414.85 61.15 418.8 73.7 L422.8 86.35 419.55 86.4 418.1 86.4 417.4 86.4 395.25 86.95 394.6 87.0 394.6 81.25 Q397.05 68.55 399.45 59.25 L400.2 53.55 412.95 52.45 M430.75 51.35 L430.15 61.25 429.35 79.35 426.35 67.8 422.1 51.95 423.4 51.9 430.75 51.35 M441.75 50.7 L442.1 59.5 442.75 86.65 438.35 86.25 437.4 86.25 437.4 86.2 437.65 81.75 437.6 60.35 437.85 50.7 439.85 50.75 441.75 50.7 M392.85 34.3 L393.3 33.9 395.85 31.45 Q394.85 36.15 393.15 47.7 L392.65 47.75 392.65 47.7 392.6 39.6 392.8 35.6 392.85 34.3 M351.25 99.8 L368.1 97.0 370.15 97.0 371.6 101.75 353.6 102.0 Q352.85 102.0 351.4 100.65 L351.25 99.8 M369.6 64.0 L368.55 56.95 385.3 55.75 Q385.55 67.3 386.25 78.3 L386.8 87.35 385.2 87.45 376.2 88.0 Q370.85 71.55 369.6 64.0 M361.3 57.3 L362.7 64.3 Q365.75 79.25 368.0 88.75 353.25 90.25 346.6 92.65 L345.6 66.6 Q345.6 63.65 345.9 59.7 L351.65 58.65 Q357.05 57.5 361.3 57.3 M386.65 96.8 L386.65 97.35 Q386.5 98.9 386.6 100.35 L382.85 100.25 380.2 100.3 379.1 96.9 386.65 96.8 M394.95 97.3 L394.9 96.7 425.7 95.65 428.1 103.75 Q412.45 105.7 395.4 106.0 L395.4 105.55 394.95 97.3 M167.75 40.6 L168.05 37.95 185.3 37.9 Q186.0 52.35 203.5 107.25 L202.0 108.75 161.25 110.0 Q159.2 110.0 158.8 104.8 L158.75 98.0 Q158.75 87.8 163.25 67.45 167.75 47.05 167.75 40.6 M194.15 37.85 L202.1 37.85 Q200.65 42.95 199.0 53.75 L198.05 60.1 196.65 48.45 Q195.7 41.6 194.15 37.85 M240.6 42.85 Q240.95 39.9 240.8 37.75 L248.1 37.75 Q245.45 53.65 244.15 103.25 L244.05 106.8 231.0 104.75 Q232.75 96.95 236.2 76.55 240.6 50.7 240.6 42.85 M208.7 37.8 L234.8 37.75 Q232.7 46.25 229.0 67.75 223.45 100.3 223.25 104.25 L222.5 104.25 Q214.6 104.25 211.25 105.35 L205.9 91.1 201.85 80.1 Q204.8 71.75 208.7 37.8 M151.5 97.65 L150.8 98.15 148.9 100.15 Q145.35 103.0 135.5 103.0 133.6 100.25 132.0 100.25 L131.9 100.25 131.75 99.25 Q130.45 83.55 128.05 68.1 124.25 43.4 120.1 38.5 130.15 38.25 149.35 38.1 L151.25 60.4 Q152.65 73.65 154.0 79.4 L151.5 97.65 M115.05 38.65 Q114.25 39.8 114.25 42.0 L119.25 65.9 Q124.25 89.7 124.25 98.25 L125.05 102.45 Q125.5 104.85 124.25 105.0 L100.1 107.85 Q96.8 57.65 94.7 41.7 L109.25 39.0 115.05 38.65 M156.85 38.05 L161.35 38.0 Q160.15 42.45 158.65 50.45 157.95 42.65 156.85 38.05" fill="#775f00" fill-rule="evenodd" stroke="none"/>
      <path d="M365.6 39.0 L365.5 38.35 365.65 38.35 365.6 39.0 M243.6 191.45 Q219.85 194.25 177.35 194.25 L104.75 195.25 Q105.3 192.6 104.75 188.1 102.8 150.5 100.45 113.15 L113.0 113.75 Q126.65 113.75 130.75 109.15 133.85 110.75 140.5 110.75 144.85 110.75 150.6 107.65 L151.3 109.3 Q155.95 117.75 180.0 117.75 202.35 117.75 209.0 113.25 L210.3 112.2 215.5 112.75 Q223.3 112.75 226.3 111.5 L226.6 111.4 Q230.95 113.75 240.85 113.75 L243.9 113.7 Q243.15 145.4 243.1 178.6 L243.15 187.85 243.2 188.05 243.6 191.45 M443.35 103.35 L443.35 102.95 443.35 103.35 M393.35 22.75 L393.5 22.75 393.35 23.0 393.35 22.75 M351.25 99.8 L351.4 100.65 350.55 99.95 351.25 99.8 M386.65 96.8 L386.75 96.8 386.65 97.35 386.65 96.8 M387.7 107.7 L387.7 108.25 388.3 128.15 349.95 130.9 347.6 131.15 347.65 130.75 347.6 121.35 347.6 120.8 347.6 119.8 347.6 119.5 347.5 117.0 347.4 114.35 347.4 114.25 347.4 113.9 347.2 108.15 347.15 107.2 Q351.8 109.75 365.85 109.75 378.25 109.75 380.85 108.25 L381.45 107.75 382.85 107.75 387.7 107.7 M395.6 112.85 Q398.5 113.75 402.35 113.75 426.4 113.75 432.85 110.55 L433.35 110.3 440.35 110.75 443.8 110.75 443.85 111.0 445.7 126.9 445.85 127.55 445.95 128.2 421.35 127.25 397.85 127.5 395.4 127.7 Q396.2 123.05 395.6 114.25 L395.6 112.85" fill="#9aed9a" fill-rule="evenodd" stroke="none"/>
      <path d="M122.2 228.65 Q124.05 216.85 124.8 213.0 204.95 212.5 206.65 212.05 L221.35 211.8 Q221.35 222.5 223.3 244.65 223.25 245.1 224.7 247.0 225.65 248.95 223.35 250.35 216.0 254.6 177.15 254.6 131.75 254.6 123.4 252.25 119.7 251.15 119.55 248.95 L120.05 244.05 Q120.05 241.8 122.2 228.65 M152.6 233.15 Q152.65 233.8 153.0 234.3 153.7 235.25 155.85 235.25 157.8 235.2 157.8 233.1 157.05 226.7 156.15 226.75 154.95 226.7 154.95 229.0 154.95 230.45 155.55 232.85 L155.25 232.85 Q154.3 229.7 152.4 229.7 151.35 229.7 150.8 230.5 L149.0 232.75 Q146.5 227.0 145.15 227.05 143.95 227.05 143.95 228.1 L145.5 231.85 Q147.35 235.5 148.85 235.55 150.65 235.55 152.6 233.15 M161.2 230.2 Q160.8 231.5 161.25 232.55 162.25 234.65 166.95 234.65 168.2 234.65 169.15 232.75 170.0 231.1 170.0 230.0 169.4 226.15 164.75 226.15 161.9 226.15 161.25 227.8 L161.2 230.2 M136.1 233.45 Q136.2 233.15 136.55 233.0 L137.35 232.15 138.8 231.95 138.65 232.15 138.6 233.75 136.1 233.45 M132.35 228.1 Q133.0 228.1 133.75 227.35 135.05 227.3 137.05 228.3 138.95 229.15 139.2 229.6 135.55 230.35 134.5 231.35 133.85 232.0 133.85 233.55 133.55 234.25 133.9 234.9 134.6 236.1 137.85 236.15 141.45 236.1 141.45 230.4 141.45 224.95 133.4 224.95 131.2 224.95 131.2 226.85 L131.4 227.5 Q131.7 228.1 132.35 228.1 M185.3 225.25 Q184.1 225.25 184.1 227.65 L185.45 236.0 185.4 241.0 Q185.45 244.45 186.75 244.45 187.8 244.45 187.85 239.8 186.5 225.25 185.3 225.25 M196.45 233.25 L196.3 233.75 195.45 234.65 193.5 234.65 193.5 233.95 Q195.3 232.95 196.45 233.25 M196.6 229.0 L196.6 230.8 Q192.65 231.05 191.6 232.4 191.2 232.8 191.25 234.15 191.0 234.95 191.3 235.65 191.95 237.0 194.6 237.0 198.8 237.0 198.85 231.0 L198.8 227.9 Q197.8 224.95 193.45 224.95 190.05 224.95 190.05 226.6 L190.3 227.2 Q190.55 227.8 191.25 227.8 L194.7 227.2 Q196.0 227.2 196.6 229.0 M166.9 232.25 Q164.0 232.25 163.45 231.35 L163.45 230.1 Q163.45 228.4 165.85 228.4 166.45 228.4 167.15 229.05 167.75 229.7 167.75 230.1 L166.9 232.25 M180.1 229.85 L179.95 226.9 Q178.9 224.05 174.6 224.05 L172.05 224.35 Q171.6 224.5 171.6 225.55 171.55 226.0 171.65 226.45 171.95 227.2 172.8 227.2 173.1 227.2 173.45 226.8 173.8 226.4 175.05 226.45 177.45 226.45 177.85 227.8 L177.85 229.45 Q177.85 231.1 176.5 233.05 175.15 234.7 175.2 234.95 L175.35 235.55 Q175.7 236.1 176.65 236.15 180.1 236.15 180.1 229.85 M213.25 227.5 L213.7 227.8 Q214.45 238.5 215.9 238.5 217.4 238.5 216.95 235.6 216.2 224.95 213.25 224.95 211.6 224.95 210.75 226.45 L209.25 229.0 208.05 226.65 Q206.95 224.95 205.6 224.95 203.6 224.95 202.4 229.75 201.65 233.0 201.65 235.25 L201.7 236.8 Q201.85 238.2 202.8 238.2 203.5 238.2 203.75 237.8 203.65 231.5 205.8 227.8 207.85 234.65 208.75 234.65 L213.25 227.5" fill="#e6e6e6" fill-rule="evenodd" stroke="none"/>
    </g>
  </defs>
</svg>
