<?xml version="1.0" encoding="UTF-8" standalone="no"?>
<svg xmlns:xlink="http://www.w3.org/1999/xlink" height="278.95px" width="282.3px" xmlns="http://www.w3.org/2000/svg">
  <g transform="matrix(1, 0, 0, 1, 122.85, 260.35)">
    <use height="40.75" transform="matrix(1.0, 0.0, 0.0, 1.4601, -31.9, -229.741)" width="102.75" xlink:href="#shape0"/>
  </g>
  <defs>
    <g id="shape0" transform="matrix(1, 0, 0, 1, 31.9, 232.85)">
      <path d="M-30.6 -186.5 c -1.32945,-8.256152 -0.58163,-16.679104 -0.14614,-24.984985 0.27059,-3.990417 0.61495,-7.985678 1.25169,-11.932855 2.66997,-2.758205 4.82963,2.730453 4.51441,5.13699 0.86138,11.183486 0.99541,22.436129 0.45237,33.638965 0.30634,3.04916 -2.02552,7.538343 -5.48231,5.535887 0.0639,-2.471675 -0.12616,-4.965402 -0.59002,-7.394002 z m 75.04337,7.098481 c -1.64707,-2.763778 -1.09569,-6.308408 -1.4622,-9.421813 -0.31267,-10.004399 -0.68357,-20.051339 0.14054,-30.038379 -0.25764,-3.160977 2.1978,-7.006334 5.55949,-5.101076 0.60632,3.110782 -0.008,6.363421 0.13555,9.529295 -0.17545,9.706008 0.059,17.763134 -0.33956,27.460631 0.66159,1.426054 0.30676,5.25921 -0.0204,5.966379 -0.0266,2.591615 -2.19154,2.670666 -4.01344,1.604963 z" fill="#000000" fill-rule="evenodd" stroke="none"/>
    </g>
  </defs>
</svg>
