<?xml version="1.0" encoding="UTF-8" standalone="no"?>
<svg xmlns:xlink="http://www.w3.org/1999/xlink" height="278.95px" width="282.3px" xmlns="http://www.w3.org/2000/svg">
  <g transform="matrix(1, 0, 0, 1, 122.85, 260.35)">
    <use height="59.5" transform="matrix(1.0, 0.0, 0.0, 1.0, -31.9, -229.75)" width="102.75" xlink:href="#shape0"/>
  </g>
  <defs>
    <g id="shape0" transform="matrix(1, 0, 0, 1, 31.9, 229.75)">
      <path d="M66.85 -229.75 Q71.85 -229.75 70.6 -201.5 71.85 -173.25 66.85 -173.25 65.35 -173.25 64.8 -173.6 L63.35 -174.5 Q63.1 -183.5 63.1 -201.5 62.8 -208.75 63.1 -215.75 63.7 -229.75 66.85 -229.75 M-28.0 -226.75 Q-23.0 -226.75 -24.25 -198.5 -23.0 -170.25 -28.0 -170.25 -29.5 -170.25 -30.05 -170.6 L-31.5 -171.5 -31.75 -198.5 Q-32.05 -205.75 -31.75 -212.75 -31.15 -226.75 -28.0 -226.75" fill="#37734f" fill-rule="evenodd" stroke="none"/>
    </g>
  </defs>
</svg>
