<?xml version="1.0" encoding="UTF-8" standalone="no"?>
<svg xmlns:xlink="http://www.w3.org/1999/xlink" height="278.95px" width="282.3px" xmlns="http://www.w3.org/2000/svg">
  <g transform="matrix(1, 0, 0, 1, 122.85, 260.35)">
    <use height="66.8" transform="matrix(1.0, 0.0, 0.0, 1.0, -62.8, -248.3)" width="158.5" xlink:href="#shape0"/>
  </g>
  <defs>
    <g id="shape0" transform="matrix(1, 0, 0, 1, 62.8, 248.3)">
      <path d="M57.4 -215.05 Q58.4 -212.25 57.6 -209.8 L50.25 -210.5 42.3 -211.8 50.25 -213.85 57.4 -215.05 M-46.9 -212.4 Q-45.55 -208.6 -46.95 -207.25 L-53.35 -207.95 -61.3 -209.2 Q-57.35 -210.45 -53.35 -211.3 L-46.9 -212.4" fill="#000000" fill-rule="evenodd" stroke="none"/>
      <path d="M57.6 -209.8 Q58.4 -212.25 57.4 -215.05 75.6 -217.4 94.2 -211.8 75.9 -208.4 57.6 -209.8 M-46.95 -207.25 Q-45.55 -208.6 -46.9 -212.4 -28.35 -214.9 -9.4 -209.2 -28.2 -205.7 -46.95 -207.25" fill="#ffffff" fill-rule="evenodd" stroke="none"/>
      <path d="M57.6 -209.8 Q58.4 -212.25 57.4 -215.05 L50.25 -213.85 42.3 -211.8 50.25 -210.5 57.6 -209.8 Q75.9 -208.4 94.2 -211.8 75.6 -217.4 57.4 -215.05 M-46.95 -207.25 Q-45.55 -208.6 -46.9 -212.4 L-53.35 -211.3 Q-57.35 -210.45 -61.3 -209.2 L-53.35 -207.95 -46.95 -207.25 Q-28.2 -205.7 -9.4 -209.2 -28.35 -214.9 -46.9 -212.4" fill="none" stroke="#000000" stroke-linecap="round" stroke-linejoin="round" stroke-width="3.0"/>
      <path d="M68.4 -221.45 Q55.25 -223.15 42.45 -218.3 M36.35 -218.9 Q39.65 -232.3 48.85 -244.65 M24.95 -202.6 Q28.85 -190.8 37.6 -185.75 M91.35 -204.3 Q85.9 -194.35 77.25 -187.75 M39.65 -205.75 Q44.8 -195.25 53.75 -188.9 M-39.85 -218.9 Q-24.7 -221.2 -9.0 -214.35 M-15.75 -247.8 Q-7.4 -232.6 -6.15 -220.65 M-59.85 -200.0 Q-55.65 -191.55 -49.05 -187.45 M-10.85 -205.2 Q-17.85 -196.15 -28.0 -191.45 M-9.8 -182.0 Q-2.15 -191.15 3.05 -201.45" fill="none" stroke="#000000" stroke-linecap="round" stroke-linejoin="round" stroke-width="1.0"/>
    </g>
  </defs>
</svg>
