<?xml version="1.0" encoding="UTF-8" standalone="no"?>
<svg xmlns:xlink="http://www.w3.org/1999/xlink" height="278.95px" width="282.3px" xmlns="http://www.w3.org/2000/svg">
  <g transform="matrix(1, 0, 0, 1, 122.85, 260.35)">
    <use height="43.65" transform="matrix(1.0, 0.0, 0.0, 1.0, -53.8, -219.9)" width="139.65" xlink:href="#shape0"/>
  </g>
  <defs>
    <g id="shape0" transform="matrix(1, 0, 0, 1, 53.8, 219.9)">
      <path d="M51.15 -212.35 Q56.75 -217.9 64.7 -217.9 72.65 -217.9 78.25 -212.35 83.85 -206.75 83.85 -198.8 83.85 -190.85 78.25 -185.25 72.65 -179.65 64.7 -179.65 56.75 -179.65 51.15 -185.25 45.6 -190.85 45.6 -198.8 45.6 -206.75 51.15 -212.35 M-19.15 -210.95 Q-13.55 -205.35 -13.55 -197.4 -13.55 -189.45 -19.15 -183.85 -24.75 -178.25 -32.7 -178.25 -40.65 -178.25 -46.25 -183.85 -51.8 -189.45 -51.8 -197.4 -51.8 -205.35 -46.25 -210.95 -40.65 -216.5 -32.7 -216.5 -24.75 -216.5 -19.15 -210.95" fill="#2b2b2b" fill-rule="evenodd" stroke="none"/>
      <path d="M51.15 -212.35 Q56.75 -217.9 64.7 -217.9 72.65 -217.9 78.25 -212.35 83.85 -206.75 83.85 -198.8 83.85 -190.85 78.25 -185.25 72.65 -179.65 64.7 -179.65 56.75 -179.65 51.15 -185.25 45.6 -190.85 45.6 -198.8 45.6 -206.75 51.15 -212.35 M-19.15 -210.95 Q-13.55 -205.35 -13.55 -197.4 -13.55 -189.45 -19.15 -183.85 -24.75 -178.25 -32.7 -178.25 -40.65 -178.25 -46.25 -183.85 -51.8 -189.45 -51.8 -197.4 -51.8 -205.35 -46.25 -210.95 -40.65 -216.5 -32.7 -216.5 -24.75 -216.5 -19.15 -210.95" fill="none" stroke="#000000" stroke-linecap="round" stroke-linejoin="round" stroke-width="4.0"/>
    </g>
  </defs>
</svg>
