<?xml version="1.0" encoding="UTF-8" standalone="no"?>
<svg xmlns:xlink="http://www.w3.org/1999/xlink" height="278.95px" width="282.3px" xmlns="http://www.w3.org/2000/svg">
  <g transform="matrix(1, 0, 0, 1, 122.85, 260.35)">
    <use height="72.85" transform="matrix(1.0, 0.0, 0.0, 1.0, -35.7, -246.75)" width="105.4" xlink:href="#shape0"/>
  </g>
  <defs>
    <g id="shape0" transform="matrix(1, 0, 0, 1, 35.7, 246.75)">
      <path d="M56.0 -239.4 Q56.25 -242.45 56.85 -243.45 57.8 -245.1 60.25 -244.9 65.85 -244.4 68.35 -220.1 69.15 -212.3 69.5 -203.25 L69.7 -195.15 Q67.5 -181.45 67.35 -179.55 66.8 -173.55 63.1 -173.9 62.05 -174.0 58.9 -206.5 55.9 -238.05 56.0 -239.4 M-35.7 -235.1 Q-34.9 -247.2 -29.9 -246.75 -27.5 -246.55 -22.9 -180.55 -23.45 -174.45 -27.15 -174.75 -32.3 -175.2 -34.5 -205.05 -35.6 -220.0 -35.7 -235.1" fill="#000000" fill-rule="evenodd" stroke="none"/>
    </g>
  </defs>
</svg>
