<?xml version="1.0" encoding="UTF-8" standalone="no"?>
<svg xmlns:xlink="http://www.w3.org/1999/xlink" height="278.95px" width="282.3px" xmlns="http://www.w3.org/2000/svg">
  <g transform="matrix(1, 0, 0, 1, 122.85, 260.35)">
    <use height="58.8" transform="matrix(1.0, 0.0, 0.0, 1.0, -61.5, -229.3)" width="155.8" xlink:href="#shape0"/>
  </g>
  <defs>
    <g id="shape0" transform="matrix(1, 0, 0, 1, 61.5, 229.3)">
      <path d="M71.75 -225.7 Q66.8 -222.35 61.85 -218.1 51.9 -209.6 51.9 -201.75 51.9 -199.45 56.2 -193.55 60.75 -187.25 63.65 -187.25 76.75 -187.25 83.0 -192.35 87.15 -195.7 87.15 -199.5 87.15 -201.45 85.65 -203.65 84.0 -206.0 82.05 -206.0 L67.2 -205.55 Q66.75 -205.4 66.8 -204.8 66.85 -204.15 66.05 -203.65 L66.05 -199.5 Q70.3 -199.1 70.8 -201.4 71.05 -202.75 71.35 -203.05 72.0 -203.85 73.85 -203.85 77.3 -203.85 77.3 -198.55 77.3 -195.4 76.4 -194.3 74.55 -192.1 68.15 -192.1 60.55 -192.1 59.05 -196.65 58.25 -198.95 59.0 -201.5 59.0 -213.35 75.65 -213.35 87.75 -213.35 92.2 -206.75 94.3 -203.6 94.3 -199.35 94.3 -193.75 88.6 -187.75 81.1 -179.9 68.65 -179.9 54.55 -179.9 48.35 -190.7 44.9 -196.8 44.9 -202.45 52.6 -229.3 66.75 -229.3 71.75 -229.3 71.75 -225.7" fill="#000000" fill-rule="evenodd" stroke="none"/>
      <path d="M-53.8 -212.1 Q-43.2 -228.35 -26.95 -228.35 -22.45 -228.35 -22.45 -224.75 -22.45 -224.2 -27.45 -221.5 -34.4 -217.7 -38.4 -215.0 -54.35 -204.2 -54.35 -192.6 -54.35 -188.35 -49.5 -184.15 -42.25 -178.0 -27.9 -178.0 -15.1 -178.0 -12.55 -181.6 -11.25 -183.4 -12.55 -185.45 -12.55 -191.5 -14.85 -198.55 -18.4 -209.55 -25.5 -209.55 -31.6 -209.55 -35.15 -200.85 -36.3 -198.1 -37.0 -194.8 L-37.5 -191.9 -37.7 -189.55 Q-37.6 -189.05 -36.1 -189.05 -30.45 -189.05 -28.5 -191.05 -27.15 -192.5 -27.35 -195.5 L-27.6 -199.95 Q-27.15 -201.95 -24.1 -201.95 -19.45 -201.95 -20.55 -192.1 L-20.25 -189.55 Q-20.1 -187.5 -20.6 -186.1 -22.15 -181.8 -30.25 -181.8 -41.8 -181.8 -44.25 -186.1 -45.55 -188.3 -44.5 -191.05 -44.5 -196.8 -40.7 -205.1 -35.3 -217.05 -26.0 -217.05 -13.65 -217.05 -8.35 -201.45 -6.65 -196.45 -5.9 -190.5 -5.45 -187.05 -5.45 -185.1 -5.25 -183.65 -5.35 -182.25 -5.6 -179.45 -7.1 -177.25 -11.85 -170.5 -27.9 -170.5 -48.85 -170.5 -57.25 -181.5 -61.45 -187.05 -61.5 -192.85 -61.5 -194.95 -59.7 -200.1 -57.4 -206.55 -53.8 -212.1" fill="#000000" fill-rule="evenodd" stroke="none"/>
    </g>
  </defs>
</svg>
