<?xml version="1.0" encoding="UTF-8" standalone="no"?>
<svg xmlns:xlink="http://www.w3.org/1999/xlink" height="278.95px" width="282.3px" xmlns="http://www.w3.org/2000/svg">
  <g transform="matrix(1, 0, 0, 1, 122.85, 260.35)">
    <use height="60.65" transform="matrix(1.0, 0.0, 0.0, 1.0, -61.65, -231.85)" width="158.6" xlink:href="#shape0"/>
  </g>
  <defs>
    <g id="shape0" transform="matrix(1, 0, 0, 1, 61.65, 231.85)">
      <path d="M64.3 -201.85 Q66.05 -200.5 83.0 -191.4 97.15 -183.9 96.95 -181.7 96.65 -178.15 92.3 -178.5 88.35 -178.85 70.65 -189.95 52.9 -201.05 53.1 -203.1 83.4 -231.75 83.75 -231.7 86.9 -231.45 86.95 -227.85 86.75 -225.85 77.85 -216.45 66.35 -204.4 64.3 -201.85 M-61.65 -228.75 Q-61.55 -229.9 -60.6 -230.8 -59.5 -232.0 -57.8 -231.85 -52.0 -231.35 -14.5 -200.05 -14.55 -199.1 -49.85 -171.2 -53.4 -171.5 -53.1 -174.85 -52.65 -180.4 -39.85 -189.25 L-30.15 -195.65 Q-25.1 -199.0 -23.7 -200.6 -25.55 -202.3 -32.25 -206.35 L-45.1 -214.05 Q-62.05 -224.45 -61.65 -228.75" fill="#000000" fill-rule="evenodd" stroke="none"/>
    </g>
  </defs>
</svg>
