<?xml version="1.0" encoding="UTF-8" standalone="no"?>
<svg xmlns:xlink="http://www.w3.org/1999/xlink" height="278.95px" width="282.3px" xmlns="http://www.w3.org/2000/svg">
  <g transform="matrix(1, 0, 0, 1, 122.85, 260.35)">
    <use height="30.85" transform="matrix(1.0, 0.0, 0.0, 1.0, -60.35, -217.5)" width="144.15" xlink:href="#shape0"/>
  </g>
  <defs>
    <g id="shape0" transform="matrix(1, 0, 0, 1, 60.35, 217.5)">
      <path d="M77.65 -190.3 L76.75 -190.1 74.65 -190.5 74.55 -190.75 75.4 -192.3 Q76.5 -195.15 75.4 -198.9 75.4 -205.0 74.65 -208.2 L75.75 -207.35 Q78.9 -204.65 78.9 -198.0 77.2 -193.85 77.2 -191.6 77.2 -190.85 77.65 -190.3 M71.05 -206.2 L68.8 -206.0 65.05 -206.45 64.8 -209.15 Q64.8 -210.35 65.8 -211.55 L67.3 -211.2 70.7 -210.15 71.05 -210.05 71.05 -206.2 M-53.5 -202.25 L-52.35 -201.9 -52.35 -202.65 -52.05 -203.3 Q-50.05 -192.9 -45.15 -190.2 L-45.2 -190.2 -47.15 -190.1 -52.7 -190.6 -52.55 -190.85 Q-55.35 -191.5 -56.45 -194.45 -57.25 -196.4 -55.9 -198.85 -54.6 -201.35 -53.5 -202.25 M-18.0 -207.0 L-19.85 -206.9 -24.05 -207.35 -24.3 -210.95 -24.15 -212.65 -18.5 -213.15 -17.25 -213.3 -17.25 -213.15 -17.4 -212.4 -17.85 -208.5 -18.0 -207.0" fill="#ffffff" fill-rule="evenodd" stroke="none"/>
      <path d="M74.55 -190.75 Q71.65 -186.65 62.25 -186.65 50.5 -186.65 48.1 -189.75 46.3 -192.05 46.3 -204.3 46.3 -206.1 48.1 -210.8 L49.6 -214.3 49.0 -214.35 Q49.25 -214.65 49.95 -214.85 50.45 -215.7 50.8 -215.7 L52.9 -215.45 52.95 -215.4 59.1 -215.7 Q77.55 -215.7 82.3 -207.15 83.8 -204.45 83.8 -201.05 L83.4 -197.9 Q83.4 -190.7 79.35 -189.2 78.15 -189.65 77.65 -190.3 77.2 -190.85 77.2 -191.6 77.2 -193.85 78.9 -198.0 78.9 -204.65 75.75 -207.35 L74.65 -208.2 Q75.4 -205.0 75.4 -198.9 76.5 -195.15 75.4 -192.3 L74.55 -190.75 M65.8 -211.55 Q60.7 -212.65 53.15 -212.9 50.8 -205.1 50.8 -204.3 52.6 -195.45 52.6 -191.4 L71.05 -191.4 71.05 -206.2 71.05 -210.05 70.7 -210.15 67.3 -211.2 65.8 -211.55 M-52.05 -203.3 L-52.2 -204.15 -53.5 -202.25 Q-54.6 -201.35 -55.9 -198.85 -57.25 -196.4 -56.45 -194.45 -55.35 -191.5 -52.55 -190.85 L-52.7 -190.6 Q-53.75 -189.05 -54.35 -189.05 -58.4 -189.05 -59.7 -192.9 -60.2 -194.4 -60.2 -196.05 L-60.35 -197.45 Q-60.35 -203.25 -53.0 -209.25 L-50.25 -211.25 Q-40.7 -217.5 -25.5 -217.5 -16.8 -217.5 -14.9 -216.5 -14.6 -216.35 -14.6 -215.3 L-14.85 -214.5 Q-13.7 -210.9 -13.7 -202.65 -13.7 -195.75 -13.85 -191.4 -13.7 -191.05 -13.7 -189.8 -13.7 -187.85 -16.05 -187.2 L-25.2 -186.65 Q-38.85 -186.65 -42.35 -189.3 L-42.6 -189.3 -44.25 -189.75 -45.2 -190.2 -45.15 -190.2 Q-50.05 -192.9 -52.05 -203.3 M-24.15 -212.65 L-42.0 -210.8 Q-45.5 -210.35 -46.85 -209.25 L-47.9 -208.05 Q-47.75 -207.25 -47.75 -206.25 L-47.65 -203.7 Q-47.4 -201.3 -46.4 -200.25 L-45.3 -198.2 Q-43.8 -195.7 -42.6 -194.25 L-42.05 -193.7 -41.8 -193.5 Q-40.75 -192.65 -40.1 -193.6 -28.65 -190.2 -17.2 -191.85 -18.05 -195.7 -18.05 -202.7 L-18.05 -202.85 -18.05 -203.0 -18.05 -203.2 -18.05 -203.4 -18.0 -206.25 -18.0 -207.0 -17.85 -208.5 -17.4 -212.4 -17.25 -213.15 -17.25 -213.3 -18.5 -213.15 -24.15 -212.65" fill="#000000" fill-rule="evenodd" stroke="none"/>
      <path d="M71.05 -206.2 L71.05 -191.4 52.6 -191.4 Q52.6 -195.45 50.8 -204.3 50.8 -205.1 53.15 -212.9 60.7 -212.65 65.8 -211.55 64.8 -210.35 64.8 -209.15 L65.05 -206.45 68.8 -206.0 71.05 -206.2 M-18.0 -207.0 L-18.0 -206.25 -18.05 -203.4 -18.05 -203.2 -18.05 -203.0 -18.05 -202.85 -18.05 -202.7 Q-18.05 -195.7 -17.2 -191.85 -28.65 -190.2 -40.1 -193.6 -40.75 -192.65 -41.8 -193.5 L-42.05 -193.7 -42.6 -194.25 Q-43.8 -195.7 -45.3 -198.2 L-46.4 -200.25 Q-47.4 -201.3 -47.65 -203.7 L-47.75 -206.25 Q-47.75 -207.25 -47.9 -208.05 L-46.85 -209.25 Q-45.5 -210.35 -42.0 -210.8 L-24.15 -212.65 -24.3 -210.95 -24.05 -207.35 -19.85 -206.9 -18.0 -207.0" fill="#373737" fill-rule="evenodd" stroke="none"/>
    </g>
  </defs>
</svg>
