<?xml version="1.0" encoding="UTF-8" standalone="no"?>
<svg xmlns:xlink="http://www.w3.org/1999/xlink" height="278.95px" width="282.3px" xmlns="http://www.w3.org/2000/svg">
  <g transform="matrix(1, 0, 0, 1, 122.85, 260.35)">
    <use height="37.05" transform="matrix(1.0, 0.0, 0.0, 1.0, -72.8, -221.35)" width="164.1" xlink:href="#shape0"/>
  </g>
  <defs>
    <g id="shape0" transform="matrix(1, 0, 0, 1, 72.8, 221.35)">
      <path d="M62.95 -209.5 Q59.9 -205.2 51.6 -195.65 43.7 -186.55 43.3 -186.55 39.65 -186.55 38.85 -189.15 38.45 -190.5 38.8 -192.1 38.8 -194.0 50.1 -207.55 61.55 -221.35 63.85 -221.35 L91.3 -193.3 Q91.3 -191.05 89.25 -189.85 87.75 -188.95 86.2 -188.95 80.15 -188.95 72.8 -197.75 L67.4 -204.65 Q64.5 -208.35 62.95 -209.5 M-8.75 -193.3 Q-8.75 -191.2 -9.25 -190.7 -10.1 -189.95 -13.9 -189.65 L-54.05 -187.45 Q-54.95 -187.45 -60.45 -185.85 -65.95 -184.3 -67.85 -184.3 -71.55 -184.3 -72.5 -186.15 -72.8 -186.7 -72.8 -188.35 -72.8 -192.65 -62.5 -194.9 -56.25 -196.25 -41.3 -197.5 L-27.2 -197.8 Q-12.6 -197.8 -9.25 -195.7 -8.2 -195.05 -8.35 -194.2 L-8.75 -193.3" fill="#000000" fill-rule="evenodd" stroke="none"/>
    </g>
  </defs>
</svg>
