<?xml version="1.0" encoding="UTF-8" standalone="no"?>
<svg xmlns:xlink="http://www.w3.org/1999/xlink" height="278.95px" width="282.3px" xmlns="http://www.w3.org/2000/svg">
  <g transform="matrix(1, 0, 0, 1, 122.85, 260.35)">
    <use height="63.45" transform="matrix(1.0, 0.0, 0.0, 1.0, -75.15, -237.0)" width="167.1" xlink:href="#shape0"/>
  </g>
  <defs>
    <g id="shape0" transform="matrix(1, 0, 0, 1, 75.15, 237.0)">
      <path d="M66.6 -227.55 L64.15 -227.1 64.05 -226.8 66.6 -227.55 M71.8 -234.4 Q82.1 -232.3 87.55 -222.4 91.85 -214.5 91.85 -206.45 L91.9 -201.4 Q91.75 -197.2 90.35 -194.0 86.25 -184.4 71.9 -184.4 53.6 -184.4 47.4 -194.0 44.75 -198.15 44.75 -204.65 44.75 -212.15 48.95 -221.5 53.8 -232.2 61.65 -234.35 64.75 -237.0 68.1 -237.0 69.6 -237.0 71.8 -234.4 M58.1 -208.05 L57.6 -205.2 Q57.6 -202.1 57.95 -201.15 58.9 -198.45 62.55 -198.45 77.1 -198.45 79.95 -203.75 81.4 -206.45 79.95 -209.4 79.95 -215.35 79.05 -217.35 76.95 -222.3 69.3 -222.3 63.35 -222.3 59.9 -213.9 58.8 -211.25 58.1 -208.05 M85.8 -208.8 Q85.8 -201.9 84.0 -198.15 82.0 -193.9 78.0 -191.6 84.45 -193.25 86.1 -198.65 87.3 -202.55 86.0 -206.75 L85.85 -209.15 85.8 -208.8 M-61.65 -215.85 Q-56.65 -215.85 -56.25 -213.95 L-56.45 -213.2 Q-48.9 -212.45 -43.85 -209.0 -38.35 -207.1 -35.85 -203.6 -34.25 -201.35 -33.9 -198.3 L-33.9 -194.25 Q-33.9 -188.75 -36.65 -185.35 -37.7 -183.0 -39.35 -180.9 -45.2 -173.55 -57.0 -173.55 -62.0 -173.55 -65.7 -175.8 L-65.95 -175.95 Q-70.3 -178.7 -72.75 -184.65 -75.05 -190.2 -75.15 -195.75 -75.15 -205.95 -70.45 -210.25 -67.1 -215.85 -61.65 -215.85 M-65.8 -206.3 L-66.9 -204.15 Q-66.9 -203.25 -66.3 -202.95 L-62.85 -206.35 -64.8 -206.4 -65.8 -206.3 M-47.8 -203.9 L-56.25 -204.75 Q-61.35 -204.75 -64.5 -190.65 -64.5 -183.45 -52.2 -183.45 -45.15 -183.45 -41.85 -188.85 L-41.25 -189.9 Q-40.8 -191.75 -40.95 -193.65 -40.95 -199.2 -44.55 -202.05 -45.9 -203.1 -47.8 -203.9" fill="#000000" fill-rule="evenodd" stroke="none"/>
      <path d="M66.6 -227.55 L64.05 -226.8 64.15 -227.1 66.6 -227.55 M85.8 -208.8 L85.85 -209.15 86.0 -206.75 Q87.3 -202.55 86.1 -198.65 84.45 -193.25 78.0 -191.6 82.0 -193.9 84.0 -198.15 85.8 -201.9 85.8 -208.8 M58.1 -208.05 Q58.8 -211.25 59.9 -213.9 63.35 -222.3 69.3 -222.3 76.95 -222.3 79.05 -217.35 79.95 -215.35 79.95 -209.4 81.4 -206.45 79.95 -203.75 77.1 -198.45 62.55 -198.45 58.9 -198.45 57.95 -201.15 57.6 -202.1 57.6 -205.2 L58.1 -208.05 M-47.8 -203.9 Q-45.9 -203.1 -44.55 -202.05 -40.95 -199.2 -40.95 -193.65 -40.8 -191.75 -41.25 -189.9 L-41.85 -188.85 Q-45.15 -183.45 -52.2 -183.45 -64.5 -183.45 -64.5 -190.65 -61.35 -204.75 -56.25 -204.75 L-47.8 -203.9 M-65.8 -206.3 L-64.8 -206.4 -62.85 -206.35 -66.3 -202.95 Q-66.9 -203.25 -66.9 -204.15 L-65.8 -206.3" fill="#ffffff" fill-rule="evenodd" stroke="none"/>
    </g>
  </defs>
</svg>
