<?xml version="1.0" encoding="UTF-8" standalone="no"?>
<svg xmlns:xlink="http://www.w3.org/1999/xlink" height="278.95px" width="282.3px" xmlns="http://www.w3.org/2000/svg">
  <g transform="matrix(1, 0, 0, 1, 122.85, 260.35)">
    <use height="64.9" transform="matrix(1.0, 0.0, 0.0, 1.0, -65.65, -229.15)" width="157.9" xlink:href="#shape0"/>
  </g>
  <defs>
    <g id="shape0" transform="matrix(1, 0, 0, 1, 65.65, 229.15)">
      <path d="M57.75 -219.9 Q66.6 -219.9 66.6 -215.55 66.6 -213.95 64.35 -210.3 L69.0 -210.75 Q78.65 -210.75 85.45 -203.95 92.25 -197.15 92.25 -187.5 92.25 -177.85 85.45 -171.05 78.65 -164.25 69.0 -164.25 59.35 -164.25 52.55 -171.05 45.75 -177.85 45.75 -187.5 45.75 -197.15 52.55 -203.95 54.9 -206.3 57.6 -207.85 L57.55 -208.65 Q57.6 -210.0 58.2 -212.4 58.2 -213.3 53.7 -216.3 55.65 -219.9 57.75 -219.9 M80.2 -200.5 Q75.5 -204.5 69.15 -204.5 62.05 -204.5 57.0 -199.45 53.5 -196.0 52.45 -191.5 L52.1 -189.55 Q51.95 -188.45 51.95 -187.35 51.95 -180.25 57.0 -175.2 62.05 -170.2 69.15 -170.2 L69.5 -170.2 77.2 -172.15 78.2 -172.7 79.6 -173.7 80.25 -174.25 81.3 -175.2 Q86.35 -180.25 86.35 -187.35 86.35 -194.4 81.35 -199.4 L81.3 -199.45 80.2 -200.5 M-58.35 -211.95 Q-59.45 -209.05 -59.45 -205.75 -59.45 -198.65 -54.4 -193.6 -49.35 -188.6 -42.25 -188.6 -35.15 -188.6 -30.1 -193.6 -25.05 -198.65 -25.05 -205.75 -25.05 -212.85 -30.1 -217.85 -31.8 -219.55 -33.7 -220.65 L-35.1 -221.4 Q-38.4 -222.9 -42.25 -222.9 -49.35 -222.9 -54.4 -217.85 L-56.3 -215.65 -56.85 -214.85 -58.35 -211.95 M-65.65 -205.9 Q-65.65 -215.55 -58.85 -222.35 -52.05 -229.15 -42.4 -229.15 -32.75 -229.15 -25.95 -222.35 -19.15 -215.55 -19.15 -205.9 -19.15 -196.25 -25.95 -189.45 -32.75 -182.65 -42.4 -182.65 -52.05 -182.65 -58.85 -189.45 -65.65 -196.25 -65.65 -205.9" fill="#000000" fill-rule="evenodd" stroke="none"/>
      <path d="M80.2 -200.5 Q79.45 -200.1 78.8 -199.1 77.9 -197.7 78.25 -196.8 L78.25 -196.6 78.0 -196.05 76.9 -194.6 Q75.35 -192.75 75.35 -192.4 75.35 -191.8 76.1 -191.55 76.95 -192.25 78.5 -194.55 L79.1 -192.9 Q79.1 -192.5 78.25 -191.9 77.35 -191.25 77.35 -190.9 L77.65 -190.2 78.25 -190.05 Q78.7 -190.05 79.9 -191.2 81.1 -192.4 81.2 -193.05 80.3 -194.05 79.3 -195.8 L79.4 -196.0 81.35 -199.4 Q86.35 -194.4 86.35 -187.35 86.35 -180.25 81.3 -175.2 L80.25 -174.25 79.6 -173.7 78.95 -174.5 Q78.95 -175.25 79.7 -176.7 79.75 -178.95 78.1 -178.95 L77.5 -178.8 77.35 -178.2 78.25 -176.6 Q77.05 -175.5 77.05 -174.55 77.05 -174.3 77.8 -173.2 L78.2 -172.7 77.2 -172.15 69.5 -170.2 69.15 -170.2 Q62.05 -170.2 57.0 -175.2 51.95 -180.25 51.95 -187.35 51.95 -188.45 52.1 -189.55 L52.3 -189.65 52.8 -188.1 Q53.2 -187.2 55.55 -187.2 58.25 -187.2 58.25 -188.25 58.25 -189.0 58.1 -188.75 L55.55 -188.6 56.6 -190.35 57.3 -189.5 59.9 -189.2 Q61.25 -189.2 61.25 -190.0 61.25 -190.75 61.1 -190.35 58.5 -192.15 56.45 -192.15 55.95 -192.15 54.85 -190.95 53.8 -189.7 53.8 -189.15 L53.6 -189.45 Q53.3 -190.1 53.75 -191.4 L52.85 -191.55 52.45 -191.5 Q53.5 -196.0 57.0 -199.45 62.05 -204.5 69.15 -204.5 75.5 -204.5 80.2 -200.5 M63.8 -179.55 Q63.8 -177.35 65.35 -175.8 66.9 -174.25 69.05 -174.25 71.25 -174.25 72.8 -175.8 74.35 -177.35 74.35 -179.5 74.35 -181.7 72.8 -183.25 71.25 -184.8 69.05 -184.8 66.9 -184.8 65.35 -183.25 63.8 -181.7 63.8 -179.55 M-58.35 -211.95 L-58.3 -211.8 Q-58.15 -211.3 -56.95 -211.3 L-54.0 -212.2 -54.0 -212.05 Q-54.0 -206.35 -52.0 -206.35 L-51.1 -206.7 -51.95 -210.6 -51.4 -211.15 -50.95 -210.5 Q-50.75 -210.15 -50.05 -210.15 -49.65 -210.15 -49.0 -211.05 L-49.6 -212.45 Q-49.75 -212.8 -50.95 -212.8 -52.05 -212.8 -52.6 -212.4 -53.25 -213.7 -54.05 -213.7 L-56.65 -213.0 Q-57.4 -213.0 -56.95 -213.3 L-56.85 -214.85 -56.3 -215.65 -54.4 -217.85 Q-49.35 -222.9 -42.25 -222.9 -38.4 -222.9 -35.1 -221.4 L-35.95 -220.6 -37.3 -218.9 Q-37.3 -218.3 -36.15 -217.15 -37.3 -216.55 -37.3 -215.95 L-37.0 -215.35 -36.4 -215.2 Q-35.85 -215.2 -35.25 -215.85 -34.6 -216.55 -34.6 -217.3 -34.6 -218.05 -35.25 -218.95 L-34.05 -220.35 -33.7 -220.65 Q-31.8 -219.55 -30.1 -217.85 -25.05 -212.85 -25.05 -205.75 -25.05 -198.65 -30.1 -193.6 -35.15 -188.6 -42.25 -188.6 -49.35 -188.6 -54.4 -193.6 -59.45 -198.65 -59.45 -205.75 -59.45 -209.05 -58.35 -211.95 M-47.45 -199.8 Q-45.9 -198.25 -43.75 -198.25 -41.55 -198.25 -40.0 -199.8 -38.45 -201.35 -38.45 -203.5 -38.45 -205.7 -40.0 -207.25 -41.55 -208.8 -43.75 -208.8 -45.9 -208.8 -47.45 -207.25 -49.0 -205.7 -49.0 -203.55 -49.0 -201.35 -47.45 -199.8" fill="#ffffff" fill-rule="evenodd" stroke="none"/>
      <path d="M81.35 -199.4 L79.4 -196.0 79.3 -195.8 Q80.3 -194.05 81.2 -193.05 81.1 -192.4 79.9 -191.2 78.7 -190.05 78.25 -190.05 L77.65 -190.2 77.35 -190.9 Q77.35 -191.25 78.25 -191.9 79.1 -192.5 79.1 -192.9 L78.5 -194.55 Q76.95 -192.25 76.1 -191.55 75.35 -191.8 75.35 -192.4 75.35 -192.75 76.9 -194.6 L78.0 -196.05 78.25 -196.6 78.25 -196.8 Q77.9 -197.7 78.8 -199.1 79.45 -200.1 80.2 -200.5 L81.3 -199.45 81.35 -199.4 M52.45 -191.5 L52.85 -191.55 53.75 -191.4 Q53.3 -190.1 53.6 -189.45 L53.8 -189.15 Q53.8 -189.7 54.85 -190.95 55.95 -192.15 56.45 -192.15 58.5 -192.15 61.1 -190.35 61.25 -190.75 61.25 -190.0 61.25 -189.2 59.9 -189.2 L57.3 -189.5 56.6 -190.35 55.55 -188.6 58.1 -188.75 Q58.25 -189.0 58.25 -188.25 58.25 -187.2 55.55 -187.2 53.2 -187.2 52.8 -188.1 L52.3 -189.65 52.1 -189.55 52.45 -191.5 M78.2 -172.7 L77.8 -173.2 Q77.05 -174.3 77.05 -174.55 77.05 -175.5 78.25 -176.6 L77.35 -178.2 77.5 -178.8 78.1 -178.95 Q79.75 -178.95 79.7 -176.7 78.95 -175.25 78.95 -174.5 L79.6 -173.7 78.2 -172.7 M63.8 -179.55 Q63.8 -181.7 65.35 -183.25 66.9 -184.8 69.05 -184.8 71.25 -184.8 72.8 -183.25 74.35 -181.7 74.35 -179.5 74.35 -177.35 72.8 -175.8 71.25 -174.25 69.05 -174.25 66.9 -174.25 65.35 -175.8 63.8 -177.35 63.8 -179.55 M-56.85 -214.85 L-56.95 -213.3 Q-57.4 -213.0 -56.65 -213.0 L-54.05 -213.7 Q-53.25 -213.7 -52.6 -212.4 -52.05 -212.8 -50.95 -212.8 -49.75 -212.8 -49.6 -212.45 L-49.0 -211.05 Q-49.65 -210.15 -50.05 -210.15 -50.75 -210.15 -50.95 -210.5 L-51.4 -211.15 -51.95 -210.6 -51.1 -206.7 -52.0 -206.35 Q-54.0 -206.35 -54.0 -212.05 L-54.0 -212.2 -56.95 -211.3 Q-58.15 -211.3 -58.3 -211.8 L-58.35 -211.95 -56.85 -214.85 M-33.7 -220.65 L-34.05 -220.35 -35.25 -218.95 Q-34.6 -218.05 -34.6 -217.3 -34.6 -216.55 -35.25 -215.85 -35.85 -215.2 -36.4 -215.2 L-37.0 -215.35 -37.3 -215.95 Q-37.3 -216.55 -36.15 -217.15 -37.3 -218.3 -37.3 -218.9 L-35.95 -220.6 -35.1 -221.4 -33.7 -220.65 M-47.45 -199.8 Q-49.0 -201.35 -49.0 -203.55 -49.0 -205.7 -47.45 -207.25 -45.9 -208.8 -43.75 -208.8 -41.55 -208.8 -40.0 -207.25 -38.45 -205.7 -38.45 -203.5 -38.45 -201.35 -40.0 -199.8 -41.55 -198.25 -43.75 -198.25 -45.9 -198.25 -47.45 -199.8" fill="#910000" fill-rule="evenodd" stroke="none"/>
    </g>
  </defs>
</svg>
