<?xml version="1.0" encoding="UTF-8" standalone="no"?>
<svg xmlns:xlink="http://www.w3.org/1999/xlink" height="278.95px" width="282.3px" xmlns="http://www.w3.org/2000/svg">
  <g transform="matrix(1, 0, 0, 1, 122.85, 260.35)">
    <use height="46.7" transform="matrix(1.0, 0.0, 0.0, 1.0, -72.25, -228.4)" width="167.35" xlink:href="#shape0"/>
  </g>
  <defs>
    <g id="shape0" transform="matrix(1, 0, 0, 1, 72.25, 228.4)">
      <path d="M54.8 -225.9 Q54.8 -227.25 55.4 -227.65 56.55 -228.4 60.8 -228.4 82.35 -228.4 90.75 -213.25 95.1 -205.4 95.1 -195.85 L95.05 -192.9 Q94.7 -191.05 92.9 -191.05 91.05 -191.05 90.5 -196.1 89.6 -203.9 88.5 -207.2 86.0 -214.35 79.6 -218.35 L80.45 -216.15 82.2 -207.9 Q82.2 -203.35 80.7 -197.5 L79.7 -194.25 Q77.6 -185.5 69.8 -184.65 68.95 -184.0 67.05 -184.0 57.65 -184.0 53.55 -194.25 51.5 -199.45 51.3 -205.3 L51.4 -208.8 Q51.6 -212.9 52.35 -216.3 53.4 -221.3 55.35 -224.0 L55.0 -224.55 Q54.7 -225.2 54.8 -225.9 M-43.2 -220.4 Q-54.1 -217.25 -60.75 -209.5 -64.55 -205.1 -66.55 -199.75 -67.9 -196.0 -67.9 -193.7 -67.9 -192.1 -66.4 -188.95 L-64.9 -185.75 Q-64.9 -183.5 -67.45 -183.5 -72.25 -183.5 -72.25 -193.45 -72.25 -203.75 -63.65 -212.75 -52.1 -224.8 -29.5 -227.0 L-25.95 -227.3 Q-17.85 -227.3 -17.85 -223.4 -17.85 -222.35 -17.3 -221.6 L-24.05 -222.55 Q-19.5 -219.6 -17.1 -212.9 -15.75 -209.05 -15.2 -204.4 L-14.95 -200.15 Q-14.95 -195.85 -18.55 -189.95 -23.55 -181.7 -31.8 -181.7 -40.05 -181.7 -45.8 -191.0 -48.65 -195.7 -49.9 -200.75 -49.9 -207.7 -47.0 -214.4 -45.4 -218.05 -43.2 -220.4" fill="#000000" fill-rule="evenodd" stroke="none"/>
    </g>
  </defs>
</svg>
