<?xml version="1.0" encoding="UTF-8" standalone="no"?>
<svg xmlns:xlink="http://www.w3.org/1999/xlink" height="278.95px" width="282.3px" xmlns="http://www.w3.org/2000/svg">
  <g transform="matrix(1, 0, 0, 1, 122.85, 260.35)">
    <use height="49.6" transform="matrix(1.0, 0.0, 0.0, 1.0, -63.8, -228.05)" width="145.0" xlink:href="#shape0"/>
  </g>
  <defs>
    <g id="shape0" transform="matrix(1, 0, 0, 1, 63.8, 228.05)">
      <path d="M46.1 -222.7 Q46.35 -218.8 47.3 -213.9 48.5 -207.25 50.2 -202.75 51.75 -198.2 52.8 -198.4 53.8 -198.6 53.75 -203.4 53.6 -208.2 52.35 -214.85 51.5 -219.55 50.45 -223.15 L74.85 -225.55 Q81.8 -213.0 76.15 -202.2 71.05 -192.55 59.75 -189.8 48.1 -186.95 39.95 -194.2 30.35 -202.6 31.0 -221.25 L46.1 -222.75 46.1 -222.7 M-36.1 -213.55 L-36.15 -213.55 -9.45 -216.55 Q-5.5 -204.3 -12.3 -194.0 -18.55 -184.55 -29.8 -181.8 -41.4 -178.95 -50.0 -185.55 -59.95 -193.15 -61.3 -210.45 L-40.7 -213.05 -40.05 -205.55 Q-39.15 -198.9 -37.7 -194.3 -36.4 -189.65 -35.4 -189.75 -34.4 -189.9 -34.15 -194.7 -34.05 -199.55 -34.9 -206.25 -35.45 -210.25 -36.1 -213.55" fill="#ffffff" fill-rule="evenodd" stroke="none"/>
      <path d="M50.45 -223.15 Q51.5 -219.55 52.35 -214.85 53.6 -208.2 53.75 -203.4 53.8 -198.6 52.8 -198.4 51.75 -198.2 50.2 -202.75 48.5 -207.25 47.3 -213.9 46.35 -218.8 46.1 -222.7 L50.45 -223.15 M-36.1 -213.55 Q-35.45 -210.25 -34.9 -206.25 -34.05 -199.55 -34.15 -194.7 -34.4 -189.9 -35.4 -189.75 -36.4 -189.65 -37.7 -194.3 -39.15 -198.9 -40.05 -205.55 L-40.7 -213.05 -36.1 -213.55" fill="#000000" fill-rule="evenodd" stroke="none"/>
      <path d="M50.45 -223.15 Q51.5 -219.55 52.35 -214.85 53.6 -208.2 53.75 -203.4 53.8 -198.6 52.8 -198.4 51.75 -198.2 50.2 -202.75 48.5 -207.25 47.3 -213.9 46.35 -218.8 46.1 -222.7 L46.1 -222.75 31.0 -221.25 Q30.35 -202.6 39.95 -194.2 48.1 -186.95 59.75 -189.8 71.05 -192.55 76.15 -202.2 81.8 -213.0 74.85 -225.55 L50.45 -223.15 46.1 -222.7 M-40.7 -213.05 L-61.3 -210.45 Q-59.95 -193.15 -50.0 -185.55 -41.4 -178.95 -29.8 -181.8 -18.55 -184.55 -12.3 -194.0 -5.5 -204.3 -9.45 -216.55 L-36.15 -213.55 -36.1 -213.55 Q-35.45 -210.25 -34.9 -206.25 -34.05 -199.55 -34.15 -194.7 -34.4 -189.9 -35.4 -189.75 -36.4 -189.65 -37.7 -194.3 -39.15 -198.9 -40.05 -205.55 L-40.7 -213.05 -36.1 -213.55" fill="none" stroke="#000000" stroke-linecap="round" stroke-linejoin="round" stroke-width="5.0"/>
    </g>
  </defs>
</svg>
