<?xml version="1.0" encoding="utf-8"?>
<!-- Generator: flash2svg, http://dissentgraphics.com/tools/flash2svg -->
<svg xmlns:xlink="http://www.w3.org/1999/xlink" id="sprite.__201571.__20(Items).__2F10" image-rendering="optimizeSpeed" baseProfile="basic" version="1.1" style="background-color:#ffffff" x="0px" y="0px" width="550px" height="400px" viewBox="0 0 550 400" enable-background="new 0 0 550 400" xmlns="http://www.w3.org/2000/svg">
  <defs>
    <symbol id="Graphic.__2Fshape.__201232" viewBox="44.55 57.8 61.14999999999999 60">
      <g id="Layer.__264">
        <g id="shape193" transform="matrix(1 0 0 1 44.55 57.8)">
          <path id="path175" transform="matrix(1 0 0 1 -44.549 -57.799)" fill="#000000" fill-opacity="1" d="M86.9,58.25 C86.6,57.9 86.05,57.75 85.3,57.85 84.85,57.9 82.15,58.95 77.1,60.9 71.75,62.95 67.7,64.3 65.05,64.9 L52.15,67.15 C46.8,68.4 44.3,70.05 44.55,72.2 45.5,79.75 47.55,87.95 50.7,96.9 52.55,102.2 54.05,105.85 55.25,107.8 55.1,108.15 55.1,108.6 55.2,109.15 65.15,115 70.4,117.85 71.05,117.8 94.3,110.15 105.8,105.15 105.55,102.9 L105.45,102.5 C105.7,101.85 105.75,100.85 105.6,99.4 105.3,97.05 104.65,94.85 103.6,92.9 L101.85,89.3 C98.9,75.25 97,67.25 96.15,65.35 96.05,65.1 94.6,63.85 91.8,61.65 89.55,59.85 87.95,58.75 87.05,58.4 L86.9,58.25z M89.1,64.95 L93.2,68.25 C94.85,79.1 96.4,86.35 97.9,89.95 L99.55,93.45 C100.15,94.8 100.7,96.55 101.2,98.65 L100.95,98.45 96.8,97.35 96.75,96.95 95.05,91.8 C94.55,88.45 94,86.85 93.45,86.95 93.1,87 93,87.3 93.1,87.85 L94.3,92.5 C93.35,90.65 92.8,89.3 92.65,88.4 L88.55,64.55 89.1,64.95z"/>
          <path id="path176" transform="matrix(1 0 0 1 -44.549 -57.799)" fill="#D9D9D9" fill-opacity="1" d="M89.1,64.95 L88.55,64.55 92.65,88.4 C92.8,89.3 93.35,90.65 94.3,92.5 L93.1,87.85 C93,87.3 93.1,87 93.45,86.95 94,86.85 94.55,88.45 95.05,91.8 L96.75,96.95 96.8,97.35 100.95,98.45 101.2,98.65 C100.7,96.55 100.15,94.8 99.55,93.45 L97.9,89.95 C96.4,86.35 94.85,79.1 93.2,68.25 L89.1,64.95z M91.6,67.1 C91.95,67.05 92.55,69.3 93.3,73.8 L94.05,77.25 C94.4,79.3 94.7,80.5 94.95,80.8 95,81.2 94.85,81.4 94.5,81.4 94.2,81.45 93.6,79.45 92.7,75.45 91.85,71.8 91.35,69.2 91.2,67.75 91.15,67.35 91.3,67.15 91.6,67.1zM94.95,84.65 L97.3,93.35 C97.35,93.8 97.2,94.05 96.95,94.1 96.65,94.15 96.2,93 95.65,90.65 L94.3,85.55 C92.75,81 91.95,78.55 91.9,78.2 91.85,77.85 91.95,77.65 92.25,77.6 92.7,77.55 93.25,78.45 93.85,80.4 L94.95,84.65z"/>
          <path id="path179" transform="matrix(1 0 0 1 -44.549 -57.799)" fill="#000000" fill-opacity="1" d="M91.6,67.1 C91.3,67.15 91.15,67.35 91.2,67.75 91.35,69.2 91.85,71.8 92.7,75.45 93.6,79.45 94.2,81.45 94.5,81.4 94.85,81.4 95,81.2 94.95,80.8 94.7,80.5 94.4,79.3 94.05,77.25 L93.3,73.8 C92.55,69.3 91.95,67.05 91.6,67.1z "/>
          <path id="path182" transform="matrix(1 0 0 1 -44.549 -57.799)" fill="#000000" fill-opacity="1" d="M94.95,84.65 L93.85,80.4 C93.25,78.45 92.7,77.55 92.25,77.6 91.95,77.65 91.85,77.85 91.9,78.2 91.95,78.55 92.75,81 94.3,85.55 L95.65,90.65 C96.2,93 96.65,94.15 96.95,94.1 97.2,94.05 97.35,93.8 97.3,93.35 L94.95,84.65z M90.4,92.4 C90.65,92.8 91,93.95 91.35,95.9 L76.2,100.4 C66.4,103.2 60.35,104.75 58.1,105.05 57.05,105.2 55.35,100.45 53.1,90.8 L49.15,72.65 C53.55,70.85 59.4,69.15 66.65,67.6 L84.55,63.75 C86.9,79.9 88.6,89.05 89.55,91.3 L90.4,92.4zM79.7,106.55 C84.4,104.55 86.8,103.55 86.95,103.5 91.45,102.15 93.9,101.25 94.3,100.85 L96.1,101.55 C95.55,101.85 95,102.25 94.5,102.8 L90.9,104.35 C86.05,106.35 83.7,107.55 83.75,107.9 83.8,108.15 84,108.3 84.4,108.25 85.55,108.1 87.95,107.05 91.5,105.15 91.85,104.9 93.05,104.4 95.1,103.6 96.45,103.05 97.45,102.55 98,102.15 L99.45,102.55 95.9,104.25 C91.45,106.4 88.5,107.65 87,108 86.25,108.15 83.6,109.15 79.05,110.95 74.7,112.65 71.8,113.6 70.35,113.8 L66.45,111.6 C79.6,108.65 86.1,106.55 85.95,105.3 L85.4,104.9 C85,104.95 83.3,105.65 80.35,107.1 L75.15,108.45 C69.8,109.6 66.55,110.45 65.4,111 L63.95,110.2 60.95,108.65 C76.95,105.1 87.5,102.2 92.6,99.85 L93.45,100.4 C93.1,100.45 91.9,100.8 89.9,101.45 87.75,102.2 86.4,102.7 85.85,103.05 84.4,103.8 82.6,104.5 80.5,105.25 79.05,105.75 78.3,106.1 78.35,106.3 78.4,106.55 78.85,106.65 79.7,106.55z"/>
          <path id="path185" transform="matrix(1 0 0 1 -44.549 -57.799)" fill="#6F0000" fill-opacity="1" d="M90.4,92.4 L89.55,91.3 C88.6,89.05 86.9,79.9 84.55,63.75 L66.65,67.6 C59.4,69.15 53.55,70.85 49.15,72.65 L53.1,90.8 C55.35,100.45 57.05,105.2 58.1,105.05 60.35,104.75 66.4,103.2 76.2,100.4 L91.35,95.9 C91,93.95 90.65,92.8 90.4,92.4z "/>
          <path id="path188" transform="matrix(1 0 0 1 -44.549 -57.799)" fill="#D9D9D9" fill-opacity="1" d="M79.7,106.55 C78.85,106.65 78.4,106.55 78.35,106.3 78.3,106.1 79.05,105.75 80.5,105.25 82.6,104.5 84.4,103.8 85.85,103.05 86.4,102.7 87.75,102.2 89.9,101.45 91.9,100.8 93.1,100.45 93.45,100.4 L92.6,99.85 C87.5,102.2 76.95,105.1 60.95,108.65 L63.95,110.2 65.4,111 C66.55,110.45 69.8,109.6 75.15,108.45 L80.35,107.1 C83.3,105.65 85,104.95 85.4,104.9 L85.95,105.3 C86.1,106.55 79.6,108.65 66.45,111.6 L70.35,113.8 C71.8,113.6 74.7,112.65 79.05,110.95 83.6,109.15 86.25,108.15 87,108 88.5,107.65 91.45,106.4 95.9,104.25 L99.45,102.55 98,102.15 C97.45,102.55 96.45,103.05 95.1,103.6 93.05,104.4 91.85,104.9 91.5,105.15 87.95,107.05 85.55,108.1 84.4,108.25 84,108.3 83.8,108.15 83.75,107.9 83.7,107.55 86.05,106.35 90.9,104.35 L94.5,102.8 C95,102.25 95.55,101.85 96.1,101.55 L94.3,100.85 C93.9,101.25 91.45,102.15 86.95,103.5 86.8,103.55 84.4,104.55 79.7,106.55z "/>
        </g>
      </g>
    </symbol>
  </defs>
  <g id="sprite.__201571.__20(Items).__2F10">
    <g id="Layer.__211">
      <use xlink:href="#Graphic.__2Fshape.__201232" id="Graphic.__2Fshape.__201233" width="61.14999999999999" height="60" x="44.55" y="57.8" transform="matrix(1 0 0 1 0 0)" overflow="visible"/>
    </g>
  </g>
</svg>