<?xml version="1.0" encoding="utf-8"?>
<!-- Generator: flash2svg, http://dissentgraphics.com/tools/flash2svg -->
<svg xmlns:xlink="http://www.w3.org/1999/xlink" id="sprite.__201571.__20(Items).__2F12" image-rendering="optimizeSpeed" baseProfile="basic" version="1.1" style="background-color:#ffffff" x="0px" y="0px" width="550px" height="400px" viewBox="0 0 550 400" enable-background="new 0 0 550 400" xmlns="http://www.w3.org/2000/svg">
  <defs>
    <symbol id="Graphic.__2Fshape.__201236" viewBox="-32.35 -0.35 214.15 92.65">
      <g id="Layer.__266">
        <g id="shape254" transform="matrix(1 0 0 1 -32.349 -0.349)">
          <path id="path232" transform="matrix(1 0 0 1 32.3 0.3)" fill="#000000" fill-opacity="1" d="M170.8,6 L170.8,5.85 C170.75,4.9 170.4,4.35 169.7,4.15 L169.5,3.05 C168.9,3.05 168.45,3.2 168.1,3.55 L166.3,2.7 C161.55,0.65 154.6,-0.35 145.5,-0.35 135.15,-0.35 126.95,1.85 121,6.25 118.85,7.8 117.2,9.55 116,11.4 115.05,12.9 114.55,14.1 114.55,15 L114.75,16.75 115.6,17.05 115.55,17.9 C115.55,19.15 115.95,23.45 116.7,30.75 116.6,31 116.55,31.25 116.55,31.6 116.55,31.95 116.65,32.3 116.9,32.65 L116.95,33.25 C117.8,41.45 118.5,47.25 119.05,50.6 L107.15,51.35 C106.7,50.5 106.15,50.05 105.5,50.05 104.65,50.05 104.1,50.4 103.8,51.1 L103.6,51.65 38.5,58.55 C-0.5,63 -23.15,65.85 -29.5,67.1 -29.8,66.75 -30.15,66.55 -30.5,66.55 -31.75,66.55 -32.35,67.35 -32.35,69 L-31.25,78.25 -30.65,78.45 -29.65,78.75 -29.5,78.8 -29.3,78.8 -29,78.8 4.25,75 41.25,72.05 C66.35,69.9 79.7,68.55 81.3,68 102.35,65.05 114.5,62.85 117.85,61.3 118.8,61.25 119.7,61 120.5,60.55 L121.55,68.55 122.95,78.85 C123.3,80.65 123.65,82.05 124.05,83.1 123.7,83.45 123.55,83.95 123.55,84.6 123.55,86 125.95,87.65 130.75,89.5 135.55,91.35 139.8,92.3 143.5,92.3 149.85,92.3 157.65,90.7 166.8,87.55 176.8,84.1 181.8,80.7 181.8,77.35 L181.8,76.1 181.8,75.5 170.25,7.45 C170.6,7.15 170.75,6.7 170.8,6.1 L170.8,6z M165.15,6.35 C161.4,8.5 158.4,9.9 156.25,10.5 L149.2,13.85 C145.3,15.5 140.2,16.3 133.85,16.3 128.4,16.3 124.75,15.75 122.85,14.7 L121.35,13.55 120.45,13.15 122.95,10.4 C127.75,5.8 131.6,3.5 134.55,3.5 151.6,3.5 161.55,4.2 164.4,5.65 L165.15,6.35zM169.45,22.1 C156.6,28.7 148.4,32 144.8,32 L121,31 120.35,30.2 119.9,27.15 C122.15,28.25 126.4,28.8 132.75,28.8 143.05,28.8 152,27.35 159.55,24.5 164.25,22.7 167.4,20.8 169.05,18.8 L169.45,22.1zM168.25,13.55 C167.85,13.55 167,14.15 165.65,15.35 L160.6,19.3 C154.55,23.1 146.6,25 136.8,25 L123.35,24.05 C122.15,23.4 121.1,23.05 120.25,23.05 L119.3,23.15 118.15,16.5 C118.65,17.15 119.45,17.7 120.55,18.25 123.4,19.6 127.8,20.3 133.75,20.3 139.5,20.3 147.3,18.2 157.05,14.05 161.9,12 165.45,10.25 167.75,8.9 L168.35,13.55 168.25,13.55zM166.3,62.5 C165.25,63.8 162.3,65.35 157.35,67.2 150.65,69.75 143.65,71 136.35,71 L127.7,70.3 C127,69.9 126.4,69.65 125.85,69.6 L125.3,66.35 123.55,56.55 C124.05,55.25 124.3,54.05 124.3,52.9 124.55,51.15 124.05,50.2 122.8,50.05 L122.8,49.35 120.95,34.6 C124.3,35.4 129.5,35.8 136.5,35.8 143.65,35.8 151.6,34.15 160.25,30.8 164.8,29.05 168.05,27.55 170,26.25 171.45,36.9 172.75,45.95 173.95,53.4 172.4,55 169.85,58.05 166.3,62.5zM119.8,54.95 C119.35,55.9 118.6,56.75 117.45,57.5 L116.35,58.4 116.3,57.25 116.45,54.3 119.7,53.75 119.8,54.95z"/>
          <path id="path233" transform="matrix(1 0 0 1 32.3 0.3)" fill="#B37C00" fill-opacity="1" d="M165.15,6.35 L164.4,5.65 C161.55,4.2 151.6,3.5 134.55,3.5 131.6,3.5 127.75,5.8 122.95,10.4 L120.45,13.15 121.35,13.55 122.85,14.7 C124.75,15.75 128.4,16.3 133.85,16.3 140.2,16.3 145.3,15.5 149.2,13.85 L156.25,10.5 C158.4,9.9 161.4,8.5 165.15,6.35z "/>
          <path id="path236" transform="matrix(1 0 0 1 32.3 0.3)" fill="#FFC4C4" fill-opacity="1" d="M169.45,22.1 L169.05,18.8 C167.4,20.8 164.25,22.7 159.55,24.5 152,27.35 143.05,28.8 132.75,28.8 126.4,28.8 122.15,28.25 119.9,27.15 L120.35,30.2 121,31 144.8,32 C148.4,32 156.6,28.7 169.45,22.1z M174.95,59.7 L174.65,59.75 C172.7,62.2 170.05,64.45 166.8,66.55 158.25,72.05 148.1,74.8 136.25,74.8 132.2,74.8 128.95,74.5 126.5,73.85 L126.75,75.55 C127.4,75.6 127.85,75.75 128.1,76 L128.8,76.95 C129.95,77.85 133.6,78.3 139.75,78.3 149.5,78.3 158.65,75.6 167.15,70.2 169.5,68.65 172,66.8 174.65,64.6 L175.7,63.75 174.95,59.7zM112.5,58.8 L112.1,54.9 108.35,55.3 108.8,59.1 108.85,59.25 112.5,58.8z"/>
          <path id="path239" transform="matrix(1 0 0 1 32.3 0.3)" fill="#996A00" fill-opacity="1" d="M168.25,13.55 L168.35,13.55 167.75,8.9 C165.45,10.25 161.9,12 157.05,14.05 147.3,18.2 139.5,20.3 133.75,20.3 127.8,20.3 123.4,19.6 120.55,18.25 119.45,17.7 118.65,17.15 118.15,16.5 L119.3,23.15 120.25,23.05 C121.1,23.05 122.15,23.4 123.35,24.05 L136.8,25 C146.6,25 154.55,23.1 160.6,19.3 L165.65,15.35 C167,14.15 167.85,13.55 168.25,13.55z M174.65,59.75 L174.9,59.45 174.95,59.7 174.65,59.75zM176.15,68.45 L176.55,68.15 176.6,68.4 176.15,68.45zM176.6,68.4 L176.15,68.45 C173.6,70.5 170.5,72.55 166.75,74.55 157.1,79.7 148.3,82.3 140.25,82.3 134.4,82.3 130.2,81.8 127.55,80.8 L127.8,82.75 127.8,83.05 128.55,83.5 131.05,85.55 C133.7,87.5 137.85,88.5 143.5,88.5 150.35,88.5 158.15,86.75 166.8,83.25 168.8,82.7 172.7,80.35 178.5,76.2 177.9,74.45 177.25,71.85 176.6,68.4z"/>
          <path id="path252" transform="matrix(1 0 0 1 32.3 0.3)" fill="#996A00" fill-opacity="1" d="M166.3,62.5 C169.85,58.05 172.4,55 173.95,53.4 172.75,45.95 171.45,36.9 170,26.25 168.05,27.55 164.8,29.05 160.25,30.8 151.6,34.15 143.65,35.8 136.5,35.8 129.5,35.8 124.3,35.4 120.95,34.6 L122.8,49.35 122.8,50.05 C124.05,50.2 124.55,51.15 124.3,52.9 124.3,54.05 124.05,55.25 123.55,56.55 L125.3,66.35 125.85,69.6 C126.4,69.65 127,69.9 127.7,70.3 L136.35,71 C143.65,71 150.65,69.75 157.35,67.2 162.3,65.35 165.25,63.8 166.3,62.5z "/>
          <path id="path255" transform="matrix(1 0 0 1 32.3 0.3)" fill="#996A00" fill-opacity="1" d="M119.8,54.95 L119.7,53.75 116.45,54.3 116.3,57.25 116.35,58.4 117.45,57.5 C118.6,56.75 119.35,55.9 119.8,54.95z M105.4,59.75 L104.55,57.05 104.3,55.7 96.35,56.4 C70.5,58.55 52.4,60.35 42,61.75 L14.05,66.05 C-1.85,68.2 -15.95,69.3 -28.25,69.3 L-28.45,69.35 -28.15,70.75 C-27.85,72.15 -27.65,73.6 -27.6,75.1 L-27.5,75.55 C-22.75,74.5 -13.6,73.2 0.05,71.65 L34.25,68.25 58.45,66.4 79.5,64.55 96.2,61.3 105.4,59.75zM-27.6,75.1 L-27.5,75.55 -27.6,75.6 -27.6,75.1z"/>
        </g>
      </g>
    </symbol>
  </defs>
  <g id="sprite.__201571.__20(Items).__2F12">
    <g id="Layer.__213">
      <use xlink:href="#Graphic.__2Fshape.__201236" id="Graphic.__2Fshape.__201237" width="214.15" height="92.65" x="-32.35" y="-0.35" transform="matrix(1 0 0 1 0 0)" overflow="visible"/>
    </g>
  </g>
</svg>