<?xml version="1.0" encoding="utf-8"?>
<!-- Generator: flash2svg, http://dissentgraphics.com/tools/flash2svg -->
<svg xmlns:xlink="http://www.w3.org/1999/xlink" id="sprite.__201571.__20(Items).__2F22" image-rendering="optimizeSpeed" baseProfile="basic" version="1.1" style="background-color:#ffffff" x="0px" y="0px" width="550px" height="400px" viewBox="0 0 550 400" enable-background="new 0 0 550 400" xmlns="http://www.w3.org/2000/svg">
  <defs>
    <symbol id="Graphic.__2Fshape.__201256" viewBox="63.05 4.55 174.75 87.25">
      <g id="Layer.__276">
        <g id="shape486" transform="matrix(1 0 0 1 63.05 4.55)">
          <path id="path440" transform="matrix(1 0 0 1 -63.049 -4.549)" fill="#000000" fill-opacity="1" d="M217.75,13.8 C215.5,7.65 214.05,4.55 213.5,4.55 212.3,4.55 201.55,8.95 181.25,17.8 157.2,28.25 142.8,34.45 138,36.3 123.95,41.6 110.85,46.7 98.75,51.6 74.95,61.25 63.05,66.9 63.05,68.6 63.05,69.75 63.7,70.3 65,70.3 L68.5,71.3 C70.55,71.95 72,72.3 72.75,72.3 73.85,72.3 78.9,70.25 87.95,66.1 97.2,61.85 103.6,58.6 107.25,56.3 111.05,63.8 114.95,70.95 118.95,77.8 124.35,87.15 127.7,91.8 129,91.8 131.45,91.8 141.15,88.55 158.1,82 172.15,76.55 183.65,71.9 192.55,68.05 194.25,67.3 202.85,64.4 218.35,59.25 231.3,55 237.8,52.4 237.8,51.5 237.8,51.05 235.9,47.85 232.1,42 227.65,35.1 224.75,30.45 223.5,28.05 222.4,26 220.5,21.25 217.75,13.8z M212.05,9.05 C213.9,15.85 217.2,23.7 221.95,32.55 218.3,32.6 214.45,33.8 210.45,36.05 L199.75,42.8 C196.7,44.6 187.75,48.2 173,53.55 163.4,56.6 154.3,59.8 145.65,63.05 132.35,68.05 124.25,71.9 121.3,74.6 116.15,64.3 112,56.7 108.8,51.8 114.4,49.55 134.1,41.25 167.9,26.8 195.55,14.95 210.1,9.05 211.5,9.05 L212.05,9.05zM214.1,55.65 C207.95,57.5 200.1,60.6 190.5,65 181.3,69.2 170.15,73.85 157,78.95 141.85,84.85 132.85,87.8 130,87.8 128.65,87.8 126.3,84.5 122.95,77.85 L146.3,65.8 C150.05,64.3 154.8,62.75 160.6,61.1 167.6,59.15 172.4,57.7 175,56.8 188.3,52.15 197.15,48.65 201.5,46.25 208.55,42.2 215.8,38.45 223.25,35 225.95,39.85 229.05,45.05 232.55,50.5 L214.1,55.65z"/>
          <path id="path441" transform="matrix(1 0 0 1 -63.049 -4.549)" fill="#D9D9D9" fill-opacity="1" d="M212.05,9.05 L211.5,9.05 C210.1,9.05 195.55,14.95 167.9,26.8 134.1,41.25 114.4,49.55 108.8,51.8 112,56.7 116.15,64.3 121.3,74.6 124.25,71.9 132.35,68.05 145.65,63.05 154.3,59.8 163.4,56.6 173,53.55 187.75,48.2 196.7,44.6 199.75,42.8 L210.45,36.05 C214.45,33.8 218.3,32.6 221.95,32.55 217.2,23.7 213.9,15.85 212.05,9.05z "/>
          <path id="path444" transform="matrix(1 0 0 1 -63.049 -4.549)" fill="#FFFFFF" fill-opacity="1" d="M214.1,55.65 L232.55,50.5 C229.05,45.05 225.95,39.85 223.25,35 215.8,38.45 208.55,42.2 201.5,46.25 197.15,48.65 188.3,52.15 175,56.8 172.4,57.7 167.6,59.15 160.6,61.1 154.8,62.75 150.05,64.3 146.3,65.8 L122.95,77.85 C126.3,84.5 128.65,87.8 130,87.8 132.85,87.8 141.85,84.85 157,78.95 170.15,73.85 181.3,69.2 190.5,65 200.1,60.6 207.95,57.5 214.1,55.65z M215.2,43.05 C215.65,41.4 216.75,40.55 218.5,40.55 221.75,40.55 224,41.35 225.3,43 225.95,43.85 226.3,44.7 226.3,45.6 226.3,46.65 225.8,47.75 224.75,48.8 223.5,50.15 221.8,50.8 219.75,50.8 217.15,50.8 215.6,50 215.05,48.4 L215.05,45.85 C214.95,44.85 215,43.9 215.2,43.05z"/>
          <path id="path447" transform="matrix(1 0 0 1 -63.049 -4.549)" fill="#000000" fill-opacity="1" d="M215.2,43.05 C215,43.9 214.95,44.85 215.05,45.85 L215.05,48.4 C215.6,50 217.15,50.8 219.75,50.8 221.8,50.8 223.5,50.15 224.75,48.8 225.8,47.75 226.3,46.65 226.3,45.6 226.3,44.7 225.95,43.85 225.3,43 224,41.35 221.75,40.55 218.5,40.55 216.75,40.55 215.65,41.4 215.2,43.05z M218.8,46.8 C219.05,45.4 220.1,45.05 222.05,45.75 L221.3,46.8 218.8,46.8z"/>
          <path id="path453" transform="matrix(1 0 0 1 -63.049 -4.549)" fill="#916500" fill-opacity="1" d="M104.05,53.75 L104,53.6 103.55,53.75 C102.05,53.75 97,55.7 88.4,59.65 L71.25,67.55 C71.55,68 72,68.25 72.55,68.25 74.65,68.25 79.6,66.4 87.4,62.7 94.6,59.3 100.15,56.3 104.05,53.75z "/>
        </g>
      </g>
    </symbol>
  </defs>
  <g id="sprite.__201571.__20(Items).__2F22">
    <g id="Layer.__223">
      <use xlink:href="#Graphic.__2Fshape.__201256" id="Graphic.__2Fshape.__201257" width="174.75" height="87.25" x="63.05" y="4.55" transform="matrix(1 0 0 1 0 0)" overflow="visible"/>
    </g>
  </g>
</svg>