<?xml version="1.0" encoding="utf-8"?>
<!-- Generator: flash2svg, http://dissentgraphics.com/tools/flash2svg -->
<svg xmlns:xlink="http://www.w3.org/1999/xlink" id="sprite.__201571.__20(Items).__2F25" image-rendering="optimizeSpeed" baseProfile="basic" version="1.1" style="background-color:#ffffff" x="0px" y="0px" width="550px" height="400px" viewBox="0 0 550 400" enable-background="new 0 0 550 400" xmlns="http://www.w3.org/2000/svg">
  <defs>
    <symbol id="Graphic.__2Fshape.__201262" viewBox="-53.7 34.05 179.05 46.2">
      <g id="Layer.__279">
        <g id="shape554" transform="matrix(1 0 0 1 -53.699 34.05)">
          <path id="path501" transform="matrix(1 0 0 1 53.65 -34.049)" fill="#000000" fill-opacity="1" d="M125.3,49.15 Q125.5,48.5 124.8,47.9 C123.85,47.05 121.85,46.7 118.8,46.8 119.65,45.65 120,44.75 119.95,44.05 119.9,42.7 118.05,42.05 114.5,42.05 L112.2,42.15 C114.6,39.5 115.8,37.7 115.8,36.75 116.1,34.95 115.5,34.05 114,34.05 111.65,34.05 108,35.5 103,38.35 99.05,40.6 96.75,42.05 96,42.8 95.1,43.55 94.6,44.5 94.5,45.65 L94.55,48.05 C94.5,49.2 94.05,50.2 93.25,51.15 92.45,52.05 92.05,52.9 92.05,53.75 L92.05,53.85 C89.5,54.5 85.15,56.4 79.05,59.55 74.9,61.7 71.9,63.35 70,64.6 L69,64.05 67.25,64.75 67.05,66.25 67.7,67.45 67.75,67.8 68.2,68.35 69.25,70.3 C70.95,72.95 72.45,74.3 73.75,74.3 76,74.3 81.2,72.1 89.35,67.75 94.4,65.05 97.9,63.05 99.75,61.7 101.3,62.75 103.65,63.3 106.75,63.3 113.2,63.3 118.15,61.35 121.6,57.5 124.05,54.7 125.3,51.9 125.3,49.15z M109,39.65 L109.5,39.5 109.05,39.8 109,39.65zM-51.2,49.3 L-51.45,49.25 C-53.1,49 -53.85,49.95 -53.65,52.05 -48.9,63.2 -40.15,69.55 -27.5,71.1 L-20.2,71.55 -2.15,80.25 C-0.5,80.45 0.55,78.95 0.95,75.8 1.05,74.85 -0.8,72.65 -4.55,69.15 -8.5,65.45 -11.9,63.35 -14.7,62.85 -31,54.8 -43.15,50.25 -51.2,49.3zM-48.95,53.5 C-43.5,55.8 -33.25,59.45 -18.15,64.45 L-19.25,66.3 -19.5,66.85 -19.8,66.95 -19.85,67.4 -26.8,67.15 C-34.2,66.2 -40.5,62.95 -45.75,57.4 L-48.95,53.5zM-15.15,67.3 C-12.05,67.9 -9.15,69.15 -6.45,71.1 -4,72.9 -2.8,74.35 -2.95,75.45 -3.05,76.3 -3.3,76.4 -3.75,75.75 L-7.6,73.25 C-9.65,72.1 -12.55,71.15 -16.4,70.45 L-15.15,67.3z"/>
          <path id="path505" transform="matrix(1 0 0 1 53.65 -34.049)" fill="#F2F2F2" fill-opacity="1" d="M109.05,39.8 L109,39.65 C105.95,40.45 103.35,41.65 101.3,43.2 99.35,44.75 98.35,46.3 98.3,47.8 L98.2,52.2 C97.85,53.85 97.05,54.95 95.8,55.5 95.8,56.15 87.9,60.25 72.1,67.7 72.85,68.95 73.55,69.55 74.1,69.55 L97.65,58.9 97.55,58.35 97.75,56.75 99.5,56.05 C100.25,56.05 100.75,56.2 100.95,56.55 L101.25,57.7 C101.6,58.75 103.35,59.3 106.5,59.3 111.25,59.3 114.8,58.15 117.25,55.85 118.5,54.65 119.7,53.05 120.75,51 117.6,51.85 115.15,52.3 113.5,52.3 111.85,52.3 111.05,51.75 111.05,50.6 111.05,49.85 112.15,48.45 114.3,46.5 L114.25,46.1 107.3,46.6 106.5,46.8 C104.95,46.8 104.15,46.3 104.05,45.35 L104.05,45.2 104.05,45.1 C104.05,44.65 104.25,44.15 104.7,43.7 L105.55,42.85 109.05,39.8z "/>
          <path id="path511" transform="matrix(1 0 0 1 53.65 -34.049)" fill="#F2F2F2" fill-opacity="1" d="M-48.95,53.5 L-45.75,57.4 C-40.5,62.95 -34.2,66.2 -26.8,67.15 L-19.85,67.4 -19.8,66.95 -19.5,66.85 -19.25,66.3 -18.15,64.45 C-33.25,59.45 -43.5,55.8 -48.95,53.5z "/>
          <path id="path514" transform="matrix(1 0 0 1 53.65 -34.049)" fill="#662800" fill-opacity="1" d="M-15.15,67.3 L-16.4,70.45 C-12.55,71.15 -9.65,72.1 -7.6,73.25 L-3.75,75.75 C-3.3,76.4 -3.05,76.3 -2.95,75.45 -2.8,74.35 -4,72.9 -6.45,71.1 -9.15,69.15 -12.05,67.9 -15.15,67.3z "/>
        </g>
      </g>
    </symbol>
  </defs>
  <g id="sprite.__201571.__20(Items).__2F25">
    <g id="Layer.__226">
      <use xlink:href="#Graphic.__2Fshape.__201262" id="Graphic.__2Fshape.__201263" width="179.05" height="46.2" x="-53.7" y="34.05" transform="matrix(1 0 0 1 0 0)" overflow="visible"/>
    </g>
  </g>
</svg>