<?xml version="1.0" encoding="utf-8"?>
<!-- Generator: flash2svg, http://dissentgraphics.com/tools/flash2svg -->
<svg xmlns:xlink="http://www.w3.org/1999/xlink" id="sprite.__201571.__20(Items).__2F26" image-rendering="optimizeSpeed" baseProfile="basic" version="1.1" style="background-color:#ffffff" x="0px" y="0px" width="550px" height="400px" viewBox="0 0 550 400" enable-background="new 0 0 550 400" xmlns="http://www.w3.org/2000/svg">
  <defs>
    <symbol id="Graphic.__2Fshape.__201264" viewBox="-82.45 31.7 230.75 107.05">
      <g id="Layer.__280">
        <g id="shape572" transform="matrix(1 0 0 1 -82.449 31.7)">
          <path id="path517" transform="matrix(1 0 0 1 82.4 -31.699)" fill="#000000" fill-opacity="1" d="M144.95,43.4 Q147.45,41.05 146.1,37.05 C145.15,34.3 144.4,32.6 143.85,32 143.5,31.65 142.9,31.6 142.15,31.85 141.7,32 141.5,32.5 141.55,33.45 138.5,33.1 127.4,35.9 108.15,41.85 96.95,45.3 85.65,48.95 74.25,52.85 L73.3,53.45 72.95,53.9 71.55,53.8 C70.45,54.15 70.35,55.65 71.3,58.3 L72.45,61.6 71.85,61.85 C68.65,63 66.7,63.75 66.05,64.2 65,64.8 64.5,65.6 64.6,66.55 64.65,67.15 65.2,68.65 66.2,71.1 67.45,74.25 68.5,77.2 69.35,80.05 L74.55,97.55 85.7,129.8 C85.9,131.35 86.4,132.8 87.25,134.1 88.9,136.65 91.3,137.4 94.45,136.25 97.2,135.25 98.85,134.45 99.45,133.9 99.8,133.55 99.8,133 99.55,132.25 L99,131.75 99.2,131.7 C101.75,130.65 104.15,129.4 106.4,127.9 108.65,126.35 110.25,124.85 111.2,123.4 L111.3,123.35 C123.75,111.55 130.95,103.65 132.9,99.65 L133.05,99.6 C133.3,99.5 135.9,95 140.95,86.1 146.05,76.95 148.45,72 148.2,71.15 147.85,70.2 147.35,69.65 146.65,69.6 148.45,58.4 148.75,51.05 147.6,47.6 146.9,45.6 146,44.2 144.95,43.4z M143.1,40.5 L132.2,44.2 C122.95,46.65 114.65,49.35 107.2,52.2 103.75,53.55 95.15,55.95 81.35,59.4 79.35,60.05 77.95,60.75 77.1,61.4 L74.75,56.3 C76.8,56.45 80.65,55.6 86.25,53.75 L105.65,46.65 C122.45,42 133.55,38.75 138.95,36.9 140.3,36.65 141.25,36.25 141.85,35.8 142.1,37.05 142.5,38.65 143.1,40.5zM141.95,45.85 C143.5,50.3 144.3,53.6 144.45,55.75 144.55,57.85 144.2,62.3 143.35,69.15 L108.1,64.85 84.25,62.7 89.45,61.15 107.05,56.2 139.5,45.7 141.75,45.15 141.95,45.85zM91.3,67.65 L111.3,68.7 C127.55,71.45 138.15,72.95 143.15,73.15 L139.65,79.3 C136.2,85.55 133.45,90.9 131.4,95.35 119.65,89.4 110.9,84.6 105.1,80.9 L89.75,70.15 85.15,67.2 91.3,67.65zM84.55,75.25 L82.3,71 C88.4,75.45 94.7,79.85 101.25,84.2 113.7,92.4 122.65,97.35 128.1,99.1 L111.5,118.7 111.05,118.05 96.05,95.3 C93.15,91.05 89.3,84.4 84.55,75.25zM93.7,98.4 C100.15,109.4 104.85,116.5 107.75,119.65 L105.6,122 C103.5,124.35 100.85,126.4 97.65,128.15 96.65,122.9 93.75,113 88.95,98.4 L81.7,76.95 C84.35,82.1 88.35,89.25 93.7,98.4zM68.85,67.7 L73.9,65.25 C73.75,67.35 74.7,71.2 76.65,76.75 L84.1,95.95 C89.05,112.7 92.5,123.8 94.45,129.15 94.7,130.45 95.1,131.4 95.6,132 L90.9,133.3 87,122.45 C84.35,113.3 81.55,105 78.6,97.65 77.2,94.25 74.65,85.7 70.9,71.95 70.15,69.95 69.5,68.55 68.85,67.7zM-75.7,35.45 C-75.7,34.5 -75.9,34 -76.35,33.85 -77.1,33.6 -77.65,33.65 -78,34 -78.5,34.55 -79.15,35.95 -80,38.25 L-80.25,39.05 C-81,41.2 -80.9,42.95 -80,44.35 L-79.1,45.4 -80,46.25 C-80.7,47.05 -81.3,48.15 -81.75,49.6 -82.95,53.05 -82.65,60.4 -80.8,71.6 -81.55,71.65 -82.05,72.2 -82.4,73.15 -82.55,73.65 -81.75,75.65 -80,79.1 L-75.1,88.1 C-70.1,97 -67.45,101.5 -67.2,101.6 L-67.05,101.65 C-65.1,105.65 -57.95,113.55 -45.5,125.35 L-45.35,125.4 C-44.45,126.85 -42.85,128.35 -40.55,129.9 -38.3,131.4 -35.9,132.65 -33.35,133.7 L-33.2,133.75 -33.7,134.25 C-34,135 -33.95,135.55 -33.6,135.9 -33.05,136.45 -31.35,137.25 -28.6,138.25 -25.45,139.4 -23.05,138.65 -21.4,136.1 -20.6,134.8 -20.1,133.35 -19.85,131.8 L-8.75,99.55 -3.5,82.05 C-2.7,79.2 -1.65,76.25 -0.4,73.1 0.6,70.65 1.15,69.15 1.2,68.55 1.3,67.6 0.85,66.8 -0.2,66.2 -0.9,65.75 -2.85,65 -6,63.85 L-6.65,63.6 -5.45,60.3 C-4.55,57.65 -4.65,56.15 -5.7,55.8 L-7.15,55.9 -7.5,55.45 -8.4,54.85 C-19.85,50.95 -31.15,47.3 -42.35,43.85 -61.6,37.9 -72.7,35.1 -75.7,35.45zM-75.95,47.15 L-73.65,47.7 -41.2,58.2 -23.65,63.15 -18.45,64.7 -42.25,66.85 -77.55,71.15 C-78.4,64.3 -78.75,59.85 -78.6,57.75 -78.5,55.6 -77.7,52.3 -76.15,47.85 L-75.95,47.15zM-73.15,38.9 C-67.75,40.75 -56.65,44 -39.8,48.65 -36.65,49.7 -30.2,52.1 -20.4,55.75 -14.85,57.6 -11,58.45 -8.9,58.3 -9.6,59.55 -10.4,61.25 -11.25,63.4 -12.1,62.75 -13.55,62.05 -15.55,61.4 -29.35,57.95 -37.95,55.55 -41.35,54.2 -48.8,51.35 -57.15,48.65 -66.35,46.2 L-77.25,42.5 -76,37.8 C-75.45,38.25 -74.5,38.65 -73.15,38.9zM-77.35,75.15 C-72.35,74.95 -61.7,73.45 -45.45,70.7 L-25.45,69.65 -19.35,69.2 -23.9,72.15 -39.25,82.9 C-45.1,86.6 -53.85,91.4 -65.55,97.35 -67.6,92.9 -70.35,87.55 -73.8,81.3 L-77.35,75.15zM-5.1,73.95 C-8.85,87.7 -11.4,96.25 -12.75,99.65 -15.75,107 -18.55,115.3 -21.2,124.45 L-25.1,135.3 -29.8,134 C-29.3,133.4 -28.9,132.45 -28.65,131.15 -26.7,125.8 -23.25,114.7 -18.25,97.95 L-10.85,78.75 C-8.9,73.2 -7.95,69.35 -8.05,67.25 L-3,69.7 C-3.65,70.55 -4.35,71.95 -5.1,73.95zM-30.25,97.3 L-45.25,120.05 -45.65,120.7 -62.3,101.1 C-56.85,99.35 -47.9,94.4 -35.45,86.2 -28.9,81.85 -22.6,77.45 -16.45,73 L-18.75,77.25 C-23.5,86.4 -27.35,93.05 -30.25,97.3zM-39.75,124 L-41.9,121.65 C-39.05,118.5 -34.35,111.4 -27.9,100.4 -22.55,91.25 -18.5,84.1 -15.85,78.95 -18.4,86.1 -20.8,93.25 -23.1,100.4 -27.95,115 -30.85,124.9 -31.8,130.15 -35.05,128.4 -37.7,126.35 -39.75,124z"/>
          <path id="path518" transform="matrix(1 0 0 1 82.4 -31.699)" fill="#885100" fill-opacity="1" d="M143.1,40.5 C142.5,38.65 142.1,37.05 141.85,35.8 141.25,36.25 140.3,36.65 138.95,36.9 133.55,38.75 122.45,42 105.65,46.65 L86.25,53.75 C80.65,55.6 76.8,56.45 74.75,56.3 L77.1,61.4 C77.95,60.75 79.35,60.05 81.35,59.4 95.15,55.95 103.75,53.55 107.2,52.2 114.65,49.35 122.95,46.65 132.2,44.2 L143.1,40.5z "/>
          <path id="path521" transform="matrix(1 0 0 1 82.4 -31.699)" fill="#E6E6E6" fill-opacity="1" d="M141.95,45.85 L141.75,45.15 139.5,45.7 107.05,56.2 89.45,61.15 84.25,62.7 108.1,64.85 143.35,69.15 C144.2,62.3 144.55,57.85 144.45,55.75 144.3,53.6 143.5,50.3 141.95,45.85z "/>
          <path id="path524" transform="matrix(1 0 0 1 82.4 -31.699)" fill="#D9D9D9" fill-opacity="1" d="M91.3,67.65 L85.15,67.2 89.75,70.15 105.1,80.9 C110.9,84.6 119.65,89.4 131.4,95.35 133.45,90.9 136.2,85.55 139.65,79.3 L143.15,73.15 C138.15,72.95 127.55,71.45 111.3,68.7 L91.3,67.65z "/>
          <path id="path527" transform="matrix(1 0 0 1 82.4 -31.699)" fill="#CCCCCC" fill-opacity="1" d="M84.55,75.25 C89.3,84.4 93.15,91.05 96.05,95.3 L111.05,118.05 111.5,118.7 128.1,99.1 C122.65,97.35 113.7,92.4 101.25,84.2 94.7,79.85 88.4,75.45 82.3,71 L84.55,75.25z "/>
          <path id="path530" transform="matrix(1 0 0 1 82.4 -31.699)" fill="#BBBBBB" fill-opacity="1" d="M93.7,98.4 C88.35,89.25 84.35,82.1 81.7,76.95 L88.95,98.4 C93.75,113 96.65,122.9 97.65,128.15 100.85,126.4 103.5,124.35 105.6,122 L107.75,119.65 C104.85,116.5 100.15,109.4 93.7,98.4z "/>
          <path id="path533" transform="matrix(1 0 0 1 82.4 -31.699)" fill="#885100" fill-opacity="1" d="M68.85,67.7 C69.5,68.55 70.15,69.95 70.9,71.95 74.65,85.7 77.2,94.25 78.6,97.65 81.55,105 84.35,113.3 87,122.45 L90.9,133.3 95.6,132 C95.1,131.4 94.7,130.45 94.45,129.15 92.5,123.8 89.05,112.7 84.1,95.95 L76.65,76.75 C74.7,71.2 73.75,67.35 73.9,65.25 L68.85,67.7z "/>
          <path id="path538" transform="matrix(1 0 0 1 82.4 -31.699)" fill="#E6E6E6" fill-opacity="1" d="M-75.95,47.15 L-76.15,47.85 C-77.7,52.3 -78.5,55.6 -78.6,57.75 -78.75,59.85 -78.4,64.3 -77.55,71.15 L-42.25,66.85 -18.45,64.7 -23.65,63.15 -41.2,58.2 -73.65,47.7 -75.95,47.15z "/>
          <path id="path541" transform="matrix(1 0 0 1 82.4 -31.699)" fill="#885100" fill-opacity="1" d="M-73.15,38.9 C-74.5,38.65 -75.45,38.25 -76,37.8 L-77.25,42.5 -66.35,46.2 C-57.15,48.65 -48.8,51.35 -41.35,54.2 -37.95,55.55 -29.35,57.95 -15.55,61.4 -13.55,62.05 -12.1,62.75 -11.25,63.4 -10.4,61.25 -9.6,59.55 -8.9,58.3 -11,58.45 -14.85,57.6 -20.4,55.75 -30.2,52.1 -36.65,49.7 -39.8,48.65 -56.65,44 -67.75,40.75 -73.15,38.9z "/>
          <path id="path544" transform="matrix(1 0 0 1 82.4 -31.699)" fill="#D9D9D9" fill-opacity="1" d="M-77.35,75.15 L-73.8,81.3 C-70.35,87.55 -67.6,92.9 -65.55,97.35 -53.85,91.4 -45.1,86.6 -39.25,82.9 L-23.9,72.15 -19.35,69.2 -25.45,69.65 -45.45,70.7 C-61.7,73.45 -72.35,74.95 -77.35,75.15z "/>
          <path id="path547" transform="matrix(1 0 0 1 82.4 -31.699)" fill="#885100" fill-opacity="1" d="M-5.1,73.95 C-4.35,71.95 -3.65,70.55 -3,69.7 L-8.05,67.25 C-7.95,69.35 -8.9,73.2 -10.85,78.75 L-18.25,97.95 C-23.25,114.7 -26.7,125.8 -28.65,131.15 -28.9,132.45 -29.3,133.4 -29.8,134 L-25.1,135.3 -21.2,124.45 C-18.55,115.3 -15.75,107 -12.75,99.65 -11.4,96.25 -8.85,87.7 -5.1,73.95z "/>
          <path id="path550" transform="matrix(1 0 0 1 82.4 -31.699)" fill="#CCCCCC" fill-opacity="1" d="M-30.25,97.3 C-27.35,93.05 -23.5,86.4 -18.75,77.25 L-16.45,73 C-22.6,77.45 -28.9,81.85 -35.45,86.2 -47.9,94.4 -56.85,99.35 -62.3,101.1 L-45.65,120.7 -45.25,120.05 -30.25,97.3z "/>
          <path id="path553" transform="matrix(1 0 0 1 82.4 -31.699)" fill="#BBBBBB" fill-opacity="1" d="M-39.75,124 C-37.7,126.35 -35.05,128.4 -31.8,130.15 -30.85,124.9 -27.95,115 -23.1,100.4 -20.8,93.25 -18.4,86.1 -15.85,78.95 -18.5,84.1 -22.55,91.25 -27.9,100.4 -34.35,111.4 -39.05,118.5 -41.9,121.65 L-39.75,124z "/>
        </g>
      </g>
    </symbol>
  </defs>
  <g id="sprite.__201571.__20(Items).__2F26">
    <g id="Layer.__227">
      <use xlink:href="#Graphic.__2Fshape.__201264" id="Graphic.__2Fshape.__201265" width="230.75" height="107.05" x="-82.45" y="31.7" transform="matrix(1 0 0 1 0 0)" overflow="visible"/>
    </g>
  </g>
</svg>