<?xml version="1.0" encoding="utf-8"?>
<!-- Generator: flash2svg, http://dissentgraphics.com/tools/flash2svg -->
<svg xmlns:xlink="http://www.w3.org/1999/xlink" id="sprite.__201571.__20(Items).__2F36" image-rendering="optimizeSpeed" baseProfile="basic" version="1.1" style="background-color:#ffffff" x="0px" y="0px" width="550px" height="400px" viewBox="0 0 550 400" enable-background="new 0 0 550 400" xmlns="http://www.w3.org/2000/svg">
  <defs>
    <symbol id="MovieClip.__2Fsprite.__201225" viewBox="-42.45 -35.8 84.9 71.6">
      <g id="Layer.__290">
        <use xlink:href="#Graphic.__2Fshape.__201302" id="Graphic.__2Fshape.__201303" width="84.9" height="71.6" x="-42.45" y="-35.8" transform="matrix(1 0 0 1 0 0)" overflow="visible"/>
      </g>
    </symbol>
    <symbol id="Graphic.__2Fshape.__201302" viewBox="-42.45 -35.8 84.9 71.6">
      <g id="Layer.__308">
        <g id="shape1078" transform="matrix(1 0 0 1 -42.449 -35.799)">
          <path id="path981" transform="matrix(1 0 0 1 42.4 35.75)" fill="#000000" fill-opacity="1" d="M8.2,-17.05 C8.3,-18.3 8,-20.2 7.25,-22.75 4.85,-30.7 0.75,-35 -5.1,-35.75 -7.15,-36 -10.25,-35.5 -14.5,-34.25 -18.05,-33.1 -21.4,-31.35 -24.55,-29.05 L-25,-31 C-25.9,-33.95 -27,-35.55 -28.25,-35.75 L-31.2,-34.7 C-33.05,-34 -35.45,-31.45 -38.3,-27.1 -41.2,-22.75 -42.6,-19.9 -42.45,-18.5 -42.3,-17.1 -41.05,-15.85 -38.65,-14.7 L-35.6,-13.45 C-36.1,-10.4 -35.85,-7.2 -34.8,-3.8 -32.15,4.9 -27.9,10.65 -22.05,13.45 -18.3,15.25 -14.85,15.7 -11.75,14.75 L-8.9,13.85 C-8.45,16.9 -7.7,20.2 -6.65,23.7 -4.65,30.35 0.5,34.25 8.85,35.4 14,36.1 18.35,35.9 21.95,34.85 29.4,32.6 35,27.9 38.8,20.7 42.9,12.85 43.55,4.25 40.7,-5.2 38.15,-13.65 33,-18.5 25.35,-19.65 21.5,-20.25 17.55,-19.9 13.4,-18.65 L8.2,-17.05z M5.1,-15.95 C1.85,-14.55 -0.8,-12.75 -2.9,-10.55 -7.95,-5.4 -10.1,1.85 -9.25,11.1 L-10.95,11.05 C-13.25,11.2 -15.15,11.15 -16.6,10.95 L-10.4,-11.95 C-11.65,-16.05 -13.2,-19 -15.15,-20.75 -16.75,-22.2 -18.25,-22.7 -19.65,-22.25 -22.45,-20.2 -25.15,-17.85 -27.7,-15.2 -29.45,-13.4 -30.8,-11.7 -31.85,-10.15 -31.95,-15.25 -29.65,-19.85 -24.95,-24 -21.3,-27.25 -17.45,-29.45 -13.45,-30.65 L-11.25,-31.35 -6.5,-31.7 C-1.75,-31.15 1.5,-27.85 3.35,-21.75 L5.1,-15.95zM14.45,-15.05 C18.35,-16.25 21.65,-16.55 24.35,-15.95 25.65,-15.7 26.85,-15.3 28,-14.7 L25.55,-10.45 C23.5,-6.9 21.5,-4.4 19.45,-2.95 16.55,-1.1 14.35,0.4 12.9,1.55 10.25,3.5 9.05,5.05 9.4,6.1 9.75,7.25 12.2,9.75 16.65,13.55 21.45,17.6 24.7,19.4 26.45,18.9 L34.85,14.25 39.1,11.25 C38.35,15.6 36.25,19.6 32.8,23.25 28.9,27.35 25.05,30 21.2,31.15 16.6,32.55 13.1,32.85 10.7,32 7.45,30.8 3.15,28.45 -2.1,24.95 -6.7,9.75 -6.05,-1.15 -0.2,-7.7 1.8,-9.95 4.45,-11.75 7.7,-13.05 L14.45,-15.05zM31.05,-12.7 C34.1,-10.05 36.5,-5.9 38.2,-0.3 38.8,1.65 39.2,3.5 39.35,5.35 38.9,5.55 36.95,7.1 33.5,9.95 29.9,12.95 27.3,14.7 25.75,15.2 24.7,15.5 22.85,14.45 20.3,12.05 18.1,10 16.15,7.8 14.4,5.35 L25.5,-2.85 C29.55,-6.45 31.4,-9.75 31.05,-12.7zM-27.2,-27 C-30.75,-24 -33.25,-20.75 -34.6,-17.2 L-35.65,-17.8 C-37.1,-18.45 -38.1,-18.8 -38.55,-18.85 -36.5,-25.7 -33.45,-29.95 -29.35,-31.6 -28.65,-29.35 -27.9,-27.85 -27.1,-27.05 L-27.2,-27zM-26.9,-7.9 C-23.55,-12.95 -20.85,-16.5 -18.9,-18.55 -16.2,-14.85 -14.7,-12.4 -14.35,-11.25 -15.6,-8.45 -16.8,-5.45 -17.95,-2.2 -19.8,3.05 -20.7,7 -20.55,9.7 -24.8,7.6 -28.05,3.4 -30.3,-2.9 L-26.9,-7.9z"/>
          <path id="path982" transform="matrix(1 0 0 1 42.4 35.75)" fill="#7A5978" fill-opacity="1" d="M5.1,-15.95 L3.35,-21.75 C1.5,-27.85 -1.75,-31.15 -6.5,-31.7 L-11.25,-31.35 -13.45,-30.65 C-17.45,-29.45 -21.3,-27.25 -24.95,-24 -29.65,-19.85 -31.95,-15.25 -31.85,-10.15 -30.8,-11.7 -29.45,-13.4 -27.7,-15.2 -25.15,-17.85 -22.45,-20.2 -19.65,-22.25 -18.25,-22.7 -16.75,-22.2 -15.15,-20.75 -13.2,-19 -11.65,-16.05 -10.4,-11.95 L-16.6,10.95 C-15.15,11.15 -13.25,11.2 -10.95,11.05 L-9.25,11.1 C-10.1,1.85 -7.95,-5.4 -2.9,-10.55 -0.8,-12.75 1.85,-14.55 5.1,-15.95z "/>
          <path id="path985" transform="matrix(1 0 0 1 42.4 35.75)" fill="#7A5978" fill-opacity="1" d="M14.45,-15.05 L7.7,-13.05 C4.45,-11.75 1.8,-9.95 -0.2,-7.7 -6.05,-1.15 -6.7,9.75 -2.1,24.95 3.15,28.45 7.45,30.8 10.7,32 13.1,32.85 16.6,32.55 21.2,31.15 25.05,30 28.9,27.35 32.8,23.25 36.25,19.6 38.35,15.6 39.1,11.25 L34.85,14.25 26.45,18.9 C24.7,19.4 21.45,17.6 16.65,13.55 12.2,9.75 9.75,7.25 9.4,6.1 9.05,5.05 10.25,3.5 12.9,1.55 14.35,0.4 16.55,-1.1 19.45,-2.95 21.5,-4.4 23.5,-6.9 25.55,-10.45 L28,-14.7 C26.85,-15.3 25.65,-15.7 24.35,-15.95 21.65,-16.55 18.35,-16.25 14.45,-15.05z "/>
          <path id="path988" transform="matrix(1 0 0 1 42.4 35.75)" fill="#FFFFFF" fill-opacity="1" d="M31.05,-12.7 C31.4,-9.75 29.55,-6.45 25.5,-2.85 L14.4,5.35 C16.15,7.8 18.1,10 20.3,12.05 22.85,14.45 24.7,15.5 25.75,15.2 27.3,14.7 29.9,12.95 33.5,9.95 36.95,7.1 38.9,5.55 39.35,5.35 39.2,3.5 38.8,1.65 38.2,-0.3 36.5,-5.9 34.1,-10.05 31.05,-12.7z M27.2,-2.2 L28.1,-2.15 29.65,0 33.05,3.85 34.95,2.5 C35.35,2.35 35.6,2.45 35.7,2.75 35.75,3 34.9,3.7 33.05,4.9 32.6,5 32.25,4.85 32,4.5 L30.1,2 C28.45,-0.25 27.55,-1.3 27.35,-1.25 23.85,0.7 22.05,1.65 22,1.7 21.55,1.85 21.25,1.75 21.2,1.5 21.1,1.25 22.05,0.55 24.1,-0.6 25.85,-1.6 26.9,-2.15 27.2,-2.2zM33.75,-0.55 C33.85,-0.25 33.75,-0.05 33.5,0.05 L31.95,-1.45 C31,-2.5 30.45,-3.25 30.3,-3.7 L32.9,-5.5 C33.25,-5.65 34,-5 35.1,-3.55 L34.85,-2.75 C34.55,-2.7 34.35,-2.8 34.2,-3.1 L33.1,-4.5 31.45,-3.5 C32.85,-1.95 33.6,-1 33.75,-0.55zM23.1,11.3 C22.9,11.35 21.85,10.2 19.95,7.95 L17.4,5.05 C17.25,4.65 17.35,4.4 17.7,4.3 18.35,4.1 20.1,6 23,9.95 L26.4,6.9 25.1,6.6 C24.35,6.4 23.95,6.1 23.85,5.65 23.75,5.35 23.85,5.15 24.2,5.05 L27.95,6.5 C28.1,6.95 27.25,7.7 25.45,8.8 L23.1,11.3z"/>
          <path id="path991" transform="matrix(1 0 0 1 42.4 35.75)" fill="#CC0000" fill-opacity="1" d="M27.2,-2.2 C26.9,-2.15 25.85,-1.6 24.1,-0.6 22.05,0.55 21.1,1.25 21.2,1.5 21.25,1.75 21.55,1.85 22,1.7 22.05,1.65 23.85,0.7 27.35,-1.25 27.55,-1.3 28.45,-0.25 30.1,2 L32,4.5 C32.25,4.85 32.6,5 33.05,4.9 34.9,3.7 35.75,3 35.7,2.75 35.6,2.45 35.35,2.35 34.95,2.5 L33.05,3.85 29.65,0 28.1,-2.15 27.2,-2.2z "/>
          <path id="path994" transform="matrix(1 0 0 1 42.4 35.75)" fill="#CC0000" fill-opacity="1" d="M33.75,-0.55 C33.6,-1 32.85,-1.95 31.45,-3.5 L33.1,-4.5 34.2,-3.1 C34.35,-2.8 34.55,-2.7 34.85,-2.75 L35.1,-3.55 C34,-5 33.25,-5.65 32.9,-5.5 L30.3,-3.7 C30.45,-3.25 31,-2.5 31.95,-1.45 L33.5,0.05 C33.75,-0.05 33.85,-0.25 33.75,-0.55z "/>
          <path id="path997" transform="matrix(1 0 0 1 42.4 35.75)" fill="#CC0000" fill-opacity="1" d="M23.1,11.3 L25.45,8.8 C27.25,7.7 28.1,6.95 27.95,6.5 L24.2,5.05 C23.85,5.15 23.75,5.35 23.85,5.65 23.95,6.1 24.35,6.4 25.1,6.6 L26.4,6.9 23,9.95 C20.1,6 18.35,4.1 17.7,4.3 17.35,4.4 17.25,4.65 17.4,5.05 L19.95,7.95 C21.85,10.2 22.9,11.35 23.1,11.3z "/>
          <path id="path1000" transform="matrix(1 0 0 1 42.4 35.75)" fill="#A48861" fill-opacity="1" d="M-27.2,-27 L-27.1,-27.05 C-27.9,-27.85 -28.65,-29.35 -29.35,-31.6 -33.45,-29.95 -36.5,-25.7 -38.55,-18.85 -38.1,-18.8 -37.1,-18.45 -35.65,-17.8 L-34.6,-17.2 C-33.25,-20.75 -30.75,-24 -27.2,-27z "/>
          <path id="path1003" transform="matrix(1 0 0 1 42.4 35.75)" fill="#FFFFFF" fill-opacity="1" d="M-26.9,-7.9 L-30.3,-2.9 C-28.05,3.4 -24.8,7.6 -20.55,9.7 -20.7,7 -19.8,3.05 -17.95,-2.2 -16.8,-5.45 -15.6,-8.45 -14.35,-11.25 -14.7,-12.4 -16.2,-14.85 -18.9,-18.55 -20.85,-16.5 -23.55,-12.95 -26.9,-7.9z M-25.8,-4.75 C-25.9,-5.1 -25.8,-5.3 -25.45,-5.35 -25.2,-5.45 -23.4,-4.75 -20,-3.2 L-20.35,-2.5 -25.8,-4.75zM-24.1,-1 C-22.7,-0.45 -21.95,-0.1 -21.9,0.05 L-23,5.85 -23.55,5.5 C-23.65,5.15 -23.4,3.55 -22.85,0.65 -23,0.15 -24.05,-0.3 -25.9,-0.7 L-25.95,0.75 C-25.95,1.1 -26.1,1.35 -26.35,1.4 -26.65,1.5 -26.85,1.4 -26.95,1.15 -27.45,-0.5 -27.3,-1.4 -26.5,-1.65 -26.3,-1.7 -25.5,-1.5 -24.1,-1zM-24.05,-8.35 C-24.15,-8.65 -23.25,-9.8 -21.3,-11.85 L-20.1,-11 C-19.5,-10.35 -19.05,-10.1 -18.75,-10.15 -18.05,-10.4 -17.75,-10.6 -17.8,-10.8 -18.05,-11.6 -18.3,-12 -18.5,-12.05 L-19.05,-11.8 -19.2,-12.05 C-19.35,-12.5 -19.15,-12.75 -18.65,-12.8 -17.9,-13.05 -17.35,-12.55 -16.95,-11.3 -16.8,-10.75 -17,-10.3 -17.55,-9.85 L-18.55,-9.3 -19.45,-9.2 -21.15,-10.7 C-22.3,-9.05 -23.05,-8.2 -23.45,-8.05 L-23.9,-7.95 -24.05,-8.35z"/>
          <path id="path1006" transform="matrix(1 0 0 1 42.4 35.75)" fill="#CC0000" fill-opacity="1" d="M-25.8,-4.75 L-20.35,-2.5 -20,-3.2 C-23.4,-4.75 -25.2,-5.45 -25.45,-5.35 -25.8,-5.3 -25.9,-5.1 -25.8,-4.75z "/>
          <path id="path1009" transform="matrix(1 0 0 1 42.4 35.75)" fill="#CC0000" fill-opacity="1" d="M-24.1,-1 C-25.5,-1.5 -26.3,-1.7 -26.5,-1.65 -27.3,-1.4 -27.45,-0.5 -26.95,1.15 -26.85,1.4 -26.65,1.5 -26.35,1.4 -26.1,1.35 -25.95,1.1 -25.95,0.75 L-25.9,-0.7 C-24.05,-0.3 -23,0.15 -22.85,0.65 -23.4,3.55 -23.65,5.15 -23.55,5.5 L-23,5.85 -21.9,0.05 C-21.95,-0.1 -22.7,-0.45 -24.1,-1z "/>
          <path id="path1012" transform="matrix(1 0 0 1 42.4 35.75)" fill="#CC0000" fill-opacity="1" d="M-24.05,-8.35 L-23.9,-7.95 -23.45,-8.05 C-23.05,-8.2 -22.3,-9.05 -21.15,-10.7 L-19.45,-9.2 -18.55,-9.3 -17.55,-9.85 C-17,-10.3 -16.8,-10.75 -16.95,-11.3 -17.35,-12.55 -17.9,-13.05 -18.65,-12.8 -19.15,-12.75 -19.35,-12.5 -19.2,-12.05 L-19.05,-11.8 -18.5,-12.05 C-18.3,-12 -18.05,-11.6 -17.8,-10.8 -17.75,-10.6 -18.05,-10.4 -18.75,-10.15 -19.05,-10.1 -19.5,-10.35 -20.1,-11 L-21.3,-11.85 C-23.25,-9.8 -24.15,-8.65 -24.05,-8.35z "/>
        </g>
      </g>
    </symbol>
  </defs>
  <g id="sprite.__201571.__20(Items).__2F36">
    <g id="Layer.__238">
      <use xlink:href="#MovieClip.__2Fsprite.__201225" id="MovieClip.__2Fsprite.__201226" width="84.9" height="71.6" x="-42.45" y="-35.8" transform="matrix(1 0 0 1 108.6 93.4)" overflow="visible"/>
    </g>
  </g>
</svg>