<?xml version="1.0" encoding="utf-8"?>
<!-- Generator: flash2svg, http://dissentgraphics.com/tools/flash2svg -->
<svg xmlns:xlink="http://www.w3.org/1999/xlink" id="sprite.__201571.__20(Items).__2F50" image-rendering="optimizeSpeed" baseProfile="basic" version="1.1" style="background-color:#ffffff" x="0px" y="0px" width="550px" height="400px" viewBox="0 0 550 400" enable-background="new 0 0 550 400" xmlns="http://www.w3.org/2000/svg">
  <defs>
    <symbol id="MovieClip.__2Fsprite.__201303" viewBox="-165.55 -69 411.15 138">
      <g id="Layer.__254">
        <use xlink:href="#Graphic.__2Fshape.__201352" id="Graphic.__2Fshape.__201353" width="411.15" height="138" x="-165.55" y="-69" transform="matrix(1 0 0 1 0 0)" overflow="visible"/>
      </g>
    </symbol>
    <symbol id="Graphic.__2Fshape.__201352" viewBox="-165.55 -69 411.15 138">
      <g id="Layer.__313">
        <g id="shape983" transform="matrix(1 0 0 1 -165.549 -68.999)">
          <path id="path927" transform="matrix(1 0 0 1 165.5 68.95)" fill="#2B2B2B" fill-opacity="1" d="M20.85,-40.3 Q21,-41.4 20.65,-42.25 C19.9,-44.1 17.55,-45 13.6,-45 8.35,-45 5.75,-41.25 5.75,-33.75 L5.8,-31.8 5.75,-31.75 C5.35,-31 5.05,-30 4.9,-28.75 L3.25,-29 3.05,-29 2.8,-29.95 C2.55,-30.75 2.15,-31.4 1.6,-31.95 L1.75,-37.75 C2.1,-39.1 2.1,-40.35 1.7,-41.5 0.95,-43.85 -1.4,-45 -5.25,-45 -9.8,-45 -12.45,-43.85 -13.3,-41.5 -13.55,-40.75 -13.65,-39.8 -13.5,-38.7 L-13.25,-36.6 C-13.25,-35.25 -13.1,-34 -12.85,-32.95 L-14.8,-31.8 C-15.35,-31.3 -15.7,-30.6 -15.95,-29.65 L-18.75,-30 -19.45,-29.95 -19.25,-37.6 C-18.9,-39.15 -18.9,-40.6 -19.3,-41.95 -20.05,-44.65 -22.4,-46 -26.25,-46 -29.6,-46 -31.65,-45.75 -32.45,-45.3 -33,-45 -33.25,-44.25 -33.25,-43 -33.25,-38.55 -32.3,-35.15 -30.45,-32.8 -32.5,-32.55 -33.9,-32.05 -34.7,-31.3 L-53.25,-32 C-65.6,-32 -71.75,-31.85 -71.75,-31.5 -80.5,-32.35 -87.65,-31.2 -93.3,-28.1 -94.65,-27.35 -95.85,-26.55 -96.85,-25.6 -99.8,-24.45 -101.25,-23.15 -101.25,-21.75 L-101.2,-20.55 -112.4,-20.1 C-115.75,-21.25 -120.9,-21.55 -127.95,-21.05 -133.1,-20.75 -136.55,-20.35 -138.3,-19.8 -138.75,-20.75 -139.65,-21.95 -141.1,-23.3 -143.05,-25.2 -147.05,-26.2 -153.15,-26.3 -158.8,-26.45 -162.15,-26 -163.15,-24.95 L-164.1,-22.45 C-164.7,-20.45 -165.1,-18.5 -165.3,-16.6 -166.05,-10.6 -164.95,-6.15 -162,-3.25 -160.45,-1.8 -157.15,-1.7 -152.1,-2.95 -147.5,-4.2 -144.5,-5.5 -143.15,-6.85 L-141.45,-8.35 -141.25,-8.15 C-138.85,-5.8 -133.4,-5.15 -124.9,-6.1 -119.45,-6.75 -115,-7.55 -111.65,-8.55 -112.5,-6.75 -113.3,-4.5 -114,-1.75 -115.5,4.1 -116.25,8.95 -116.25,12.85 -116.25,18.8 -115.3,23.95 -113.45,28.25 -109.8,36.75 -103.05,41 -93.25,41 L-92.6,41 -91.75,41 -88.7,40.75 C-87.75,40.4 -87.25,39.6 -87.25,38.35 L-87.25,38.3 C-81.15,42.75 -69.15,45 -51.25,45 L-33,44.95 C-33.85,47 -34.25,50.4 -34.25,55.1 L-34.55,57.3 C-34.65,58.9 -34.55,60.35 -34.25,61.7 -33.25,65.9 -30.25,68 -25.25,68 -20.7,68 -18,66.65 -17.2,64 -16.95,63.1 -16.85,61.9 -17,60.45 L-17.25,57.25 C-17,54 -17,51.55 -17.35,49.85 L-14.25,50 -14.1,50 -14.2,50.5 -14.25,55.35 C-14.25,57 -13.85,61.4 -13,68.5 L-7.75,69 C-3.85,69 -1.2,68.6 0.25,67.75 1.25,67.15 1.75,66.15 1.75,64.75 L1.55,63.1 1.75,26.75 C2.1,8.05 1.8,-3.9 0.75,-9.05 L4.5,-9.15 C4.15,-7.5 3.9,-5.15 3.75,-2 L3.75,10.35 C3.75,20 4.3,26.8 5.35,30.85 L5.25,31 C4.25,32.45 3.75,34.2 3.75,36.25 3.75,37.7 4.1,39.05 4.85,40.3 4.1,42.55 3.75,46.3 3.75,51.5 L3.45,54.05 C3.3,56 3.4,57.8 3.75,59.4 4.85,64.45 8.15,67 13.6,67 18.7,67 21.7,65 22.65,61 22.95,59.75 23.05,58.2 22.9,56.45 L22.6,53.5 22.75,51.5 36.6,52 C90.75,52 123.6,47.7 135.15,39.05 139.1,36.05 140.9,32.25 140.5,27.65 139.25,22.7 138.6,19.2 138.6,17.25 L138.85,7 C138.8,3 138.2,-0.35 137.1,-3 L136.3,-4.6 143.65,-4.15 156.1,-4.8 C161.15,-5.15 164.8,-5.2 167.1,-5 L194.6,-0.5 C199.75,0.35 204.9,2.5 210.05,6.05 L215.6,9.9 215.6,10.25 C215.9,10.95 216.35,12.7 216.9,15.45 217.55,18.4 218.15,20.7 218.75,22.35 220.85,28.1 224.3,31 229.1,31 L235.8,31.7 C236.45,27.95 237.7,23.05 239.55,17.1 242.4,7.75 244.05,2 244.5,-0.15 245.25,-3.7 245.6,-7.35 245.6,-11.15 245.25,-20.9 244.3,-30.6 242.65,-40.2 239.4,-59.4 234.55,-69 228.1,-69 226.05,-69 223.9,-66.4 221.65,-61.2 220.4,-58.35 219.55,-55.95 219.05,-54 216.2,-52.9 212.55,-51.1 208.1,-48.65 201.1,-44.75 195.95,-42.2 192.6,-41 L105.9,-34.7 C57.75,-31.15 29.95,-28.7 22.6,-27.35 L22.6,-27.4 C23.15,-28.75 23.15,-30.1 22.65,-31.35 22.2,-32.4 21.4,-33.25 20.15,-33.85 L20.35,-34 20.6,-39.25 20.85,-40.3z M15.6,-38.75 C15.65,-37.6 15.8,-36.7 15.95,-36.15 16.05,-35.75 16.25,-35.3 16.55,-34.8 L13.6,-35 11.7,-34.9 11.6,-39.5 15.6,-39.5 15.6,-38.75zM17.6,-29.5 C17.85,-28.7 17.8,-27.3 17.4,-25.3 17.35,-23.9 17.85,-22.75 18.9,-21.85 L9.8,-21.75 C10.2,-23 10.05,-24.65 9.35,-26.6 9.45,-28.3 12.2,-29.35 17.6,-29.75 L17.6,-29.5zM5.6,-21.7 L2.65,-21.65 2.75,-24 3.25,-24 4.9,-24.05 C5.05,-23.1 5.25,-22.35 5.6,-21.7zM8.35,-9.3 L11.35,-8.75 16.35,-8.5 C16,-7.1 15.75,-5.1 15.6,-2.5 15.45,0.45 15.45,3.8 15.6,7.6 15.6,14.35 15.7,18.75 15.85,20.75 16.1,24.05 16.65,27.05 17.45,29.7 15.1,28.55 13.15,28 11.6,28 L8.45,28.5 8.6,10.25 C9,0.6 8.8,-5.9 7.95,-9.25 L8.35,-9.3zM28.6,-24 C45.7,-24 74.85,-26 116.1,-30 157.6,-30.85 181.85,-32 188.9,-33.35 190.85,-33.7 192.15,-34.3 192.75,-35.15 193.3,-35.95 194.75,-36.55 197.1,-37 201.1,-37.7 206.65,-39.95 213.7,-43.8 216.75,-45.45 219.15,-46.85 220.9,-48.1 L221.6,-48 C223.25,-48 224.2,-48.25 224.35,-48.75 224.8,-52.75 226.05,-57.4 228.1,-62.75 230.55,-59.5 233.35,-50.5 236.45,-35.85 239.2,-22.9 240.6,-14.75 240.6,-11.4 240.6,-7.45 239.6,-1.1 237.6,7.75 234.85,19.75 231.6,25.75 227.85,25.75 227.55,25.75 226.15,22.3 223.6,15.4 221.2,8.8 219.45,5.35 218.3,5.05 L215.95,3 C212.9,0.65 208.7,-1.5 203.4,-3.5 188.15,-9.15 167.35,-12 141.1,-12 L133.2,-11.55 130.15,-11.2 125.95,-14.3 C120.3,-18.1 116.05,-20 113.1,-20 L109.9,-19.8 109.3,-19.45 C99.6,-21.2 73.7,-22.05 31.6,-22 L22.4,-21.9 22.55,-24.5 28.6,-24zM53.6,-7 C77.15,-7 91.3,-7.35 96.15,-8 L97.45,-8.2 105.6,-5.5 C112.65,-3.15 116.65,-0.9 117.6,1.25 120.15,6.9 121.6,10.25 121.9,11.2 122.35,12.75 122.6,15.3 122.6,18.85 122.6,23.8 121.45,26.85 119.1,28 118.05,28.75 116.95,29.35 115.7,29.8 L115.35,29.95 115.6,25.85 C116.2,24.8 116.5,23.9 116.5,23.15 116.55,21.75 115.15,20.55 112.35,19.55 103.9,16.5 82.3,15 47.6,15 L21.1,16 20.6,8.05 C20.05,0.05 19.55,-5.45 19.05,-8.4 L53.6,-7zM102.4,32.35 C87.6,33.95 62,34.75 25.6,34.75 L21.45,31.95 21.6,27.4 C29.25,27.95 48.4,28.15 79.1,28 L96.85,28.75 C97.5,29.4 99.35,30.6 102.4,32.35zM16.2,34.5 L16.45,35.55 C16.6,36 16.85,36.4 17.2,36.75 18.05,37.45 19.85,38.05 22.6,38.5 15.15,38.45 10.85,37.7 9.6,36.25 L8.95,34.7 8.75,34.45 C9.35,33.8 10.3,33.5 11.6,33.5 14.35,33.5 15.85,33.85 16.2,34.5zM17.6,43.8 L17.35,61.5 9.6,61.75 C9.05,61.75 8.75,60.8 8.7,58.85 L8.85,52.05 C8.9,47.85 8.65,44.5 8,42 10.2,42.9 13.4,43.5 17.6,43.8zM-94.35,-8.5 L-62.25,-8.5 -35.55,-8.45 -36.1,-5 -36.25,4 -36.1,13.1 C-35.95,15.1 -35.6,16.85 -35.1,18.3 -37.5,19.15 -39.95,19.65 -42.4,19.85 L-52.7,19.35 -63.8,18.2 C-68.35,18.05 -72.85,18.5 -77.25,19.5 L-80.25,20.25 -82.25,20 -89.85,22.25 C-90.5,22.55 -90.95,23.5 -91.15,25.1 L-94.8,24.05 C-96.65,23.5 -97.9,22.9 -98.45,22.35 -99,21.75 -99.3,20.7 -99.35,19.15 L-99.25,12.6 C-99.25,7.85 -98.4,3.25 -96.75,-1.2 -95.45,-4.65 -94.65,-7.05 -94.35,-8.5zM-3.25,-39.5 L-3.25,-38.75 -3.45,-34.2 -3.45,-33.9 -5.25,-34 -8.3,-33.85 -8.25,-39.5 -3.25,-39.5zM-16.25,-25.25 L-16,-21.5 -15.85,-21.45 -16.25,-21.45 C-16.5,-22.7 -16.8,-23.9 -17.25,-25.05 L-16.25,-25.25zM-5.4,-28.5 C-3.75,-28.5 -2.7,-28.25 -2.25,-27.75 -2,-26.4 -2.05,-24.65 -2.45,-22.45 L-2.4,-21.55 -8.75,-21.5 -10.45,-21.5 C-10.3,-21.75 -10.25,-22.4 -10.25,-23.5 -10.25,-25.15 -10.6,-26.15 -11.25,-26.5 -10.75,-26.65 -9.9,-27.05 -8.7,-27.7 -7.5,-28.25 -6.4,-28.5 -5.4,-28.5zM-24.25,-40.75 L-24.25,-40.5 C-24.6,-38.15 -24.8,-36.25 -24.75,-34.7 L-24.5,-32.75 -26.75,-33 -27.5,-33 C-27.35,-35 -27.25,-37.5 -27.25,-40.5 L-24.25,-40.75zM-15.2,-5.75 L-15.25,2.85 -15.1,10.35 C-14.9,12.5 -14.45,14.4 -13.75,16.05 L-17.4,16.45 C-17.3,13.2 -17.25,9.15 -17.25,4.35 L-17.35,-3.15 C-17.6,-5.4 -18.05,-7.25 -18.8,-8.6 L-14.85,-8.7 -15.2,-5.75zM-8.25,24.5 C-14.35,26.25 -17.9,27.35 -18.85,27.8 -21.1,28.9 -22.25,30.55 -22.25,32.75 -22.25,38.25 -18.9,41 -12.25,41 -10.5,41 -8.25,40.1 -5.5,38.25 L-3.25,36.55 -3.25,39.15 C-4.1,39.4 -4.55,39.85 -4.7,40.45 L-5.05,42.4 C-6,43.95 -11.1,44.75 -20.25,44.75 -22.9,44.75 -24.25,41.25 -24.25,34.25 -24.25,31.4 -23.65,28.9 -22.45,26.75 -20.45,23.1 -17.05,21.25 -12.25,21.25 -11.2,21.25 -9.9,22.35 -8.25,24.5zM-29.05,30.15 L-29.25,29.35 -28.95,29.15 -29.05,30.15zM-29.25,33.9 L-66.4,32.55 -32.5,31.15 C-30.5,30.9 -29.35,30.6 -29.05,30.25 L-29.25,33.75 -29.25,33.9zM-22.45,48.8 C-22.75,49.65 -22.8,50.75 -22.55,52.1 L-21.85,56.15 C-21.7,59.35 -24.15,61.55 -29.25,62.75 L-29.15,52.8 C-29.1,49.65 -29.55,47.05 -30.6,44.9 L-27.9,44.85 C-26.65,46.6 -24.85,47.95 -22.45,48.8zM-8.25,63.5 C-8.25,56.6 -8.75,52 -9.8,49.75 -7.1,49.35 -4.9,48.6 -3.2,47.45 L-3.2,62.75 C-5.15,63.25 -6.8,63.5 -8.25,63.5z"/>
          <path id="path928" transform="matrix(1 0 0 1 165.5 68.95)" fill="#F5DD81" fill-opacity="1" d="M15.6,-38.75 L15.6,-39.5 11.6,-39.5 11.7,-34.9 13.6,-35 16.55,-34.8 C16.25,-35.3 16.05,-35.75 15.95,-36.15 15.8,-36.7 15.65,-37.6 15.6,-38.75z "/>
          <path id="path931" transform="matrix(1 0 0 1 165.5 68.95)" fill="#F0C930" fill-opacity="1" d="M17.6,-29.5 L17.6,-29.75 C12.2,-29.35 9.45,-28.3 9.35,-26.6 10.05,-24.65 10.2,-23 9.8,-21.75 L18.9,-21.85 C17.85,-22.75 17.35,-23.9 17.4,-25.3 17.8,-27.3 17.85,-28.7 17.6,-29.5z M6.2,-13.25 L7,-13.8 10.1,-14 C11.45,-14 12.65,-13.75 13.65,-13.2 L59.4,-12.75 59.35,-12.3 83.65,-12.4 83.4,-12.5 86.25,-12.45 91.6,-12.5 98.1,-12.5 98.35,-12.25 98.4,-12.2 104.1,-12 C104.95,-11.85 106,-11.35 107.35,-10.5 L115.8,-9.15 C116.45,-8.9 117.2,-8.15 118.1,-7 119.7,-5.7 120.9,-4.2 121.7,-2.45 L123.6,1.5 C125.55,4.15 126.75,7.2 127.25,10.55 127.5,12.1 127.6,15.05 127.6,19.5 127.6,20.65 127.9,22.65 128.55,25.55 128.55,28.25 127,30.5 123.9,32.3 114.95,37.45 91.35,40 53.1,40 L39.45,39.85 C38.45,42.6 33.35,44 24.1,44 L22.45,44 22.85,48.25 32.7,47.3 65.4,45 C99,42.45 120,39.35 128.35,35.75 131.5,34.4 133.3,31.1 133.8,25.85 L133.6,17.6 133.8,8.05 C133.75,4.8 133.15,2.1 132.1,-0.05 129.55,-5.15 122.65,-10.2 111.35,-15.15 109.2,-15.05 103.45,-15 94.1,-15 59.1,-15.25 24.15,-15.55 -10.7,-16 -65.95,-16.7 -99.3,-17.4 -110.75,-18.15 L-110.75,-18 C-110.7,-17.55 -111.1,-16.95 -111.85,-16.15 L-139.9,-15.2 -140.45,-16.35 -140.65,-16.25 C-143.3,-18.9 -145.55,-20.45 -147.3,-20.95 -148.55,-21.3 -149.85,-21.1 -151.2,-20.35 -152.85,-19.5 -154,-19.05 -154.6,-19 -156.05,-18.9 -157.8,-19.65 -159.75,-21.3 -160.2,-20.45 -160.3,-18.5 -160.1,-15.55 L-159.6,-8.25 -157.45,-6.5 C-156.1,-7.85 -153.85,-9 -150.7,-9.85 -147.55,-10.7 -144.8,-12.35 -142.4,-14.8 L-141.7,-14.85 C-141.25,-14.85 -140.65,-14.5 -139.9,-13.8 L-139.35,-12.95 C-136.85,-13.1 -132.5,-13.15 -126.25,-13.05 L-115.2,-12.75 -108.75,-13.5 -107.2,-13.7 -105.75,-14 -104.55,-13.8 -85.75,-14 6.2,-13.25zM54.25,-12.25 L59.4,-12.75 59.35,-12.3 54.25,-12.25z"/>
          <path id="path943" transform="matrix(1 0 0 1 165.5 68.95)" fill="#F0C930" fill-opacity="1" d="M8.35,-9.3 L7.95,-9.25 C8.8,-5.9 9,0.6 8.6,10.25 L8.45,28.5 11.6,28 C13.15,28 15.1,28.55 17.45,29.7 16.65,27.05 16.1,24.05 15.85,20.75 15.7,18.75 15.6,14.35 15.6,7.6 15.45,3.8 15.45,0.45 15.6,-2.5 15.75,-5.1 16,-7.1 16.35,-8.5 L11.35,-8.75 8.35,-9.3z "/>
          <path id="path946" transform="matrix(1 0 0 1 165.5 68.95)" fill="#F0C930" fill-opacity="1" d="M28.6,-24 L22.55,-24.5 22.4,-21.9 31.6,-22 C73.7,-22.05 99.6,-21.2 109.3,-19.45 L109.9,-19.8 113.1,-20 C116.05,-20 120.3,-18.1 125.95,-14.3 L130.15,-11.2 133.2,-11.55 141.1,-12 C167.35,-12 188.15,-9.15 203.4,-3.5 208.7,-1.5 212.9,0.65 215.95,3 L218.3,5.05 C219.45,5.35 221.2,8.8 223.6,15.4 226.15,22.3 227.55,25.75 227.85,25.75 231.6,25.75 234.85,19.75 237.6,7.75 239.6,-1.1 240.6,-7.45 240.6,-11.4 240.6,-14.75 239.2,-22.9 236.45,-35.85 233.35,-50.5 230.55,-59.5 228.1,-62.75 226.05,-57.4 224.8,-52.75 224.35,-48.75 224.2,-48.25 223.25,-48 221.6,-48 L220.9,-48.1 C219.15,-46.85 216.75,-45.45 213.7,-43.8 206.65,-39.95 201.1,-37.7 197.1,-37 194.75,-36.55 193.3,-35.95 192.75,-35.15 192.15,-34.3 190.85,-33.7 188.9,-33.35 181.85,-32 157.6,-30.85 116.1,-30 74.85,-26 45.7,-24 28.6,-24z M95.8,21.15 L83.85,20.4 C67,20.8 46.4,21 22.1,21 L21.35,20.95 21.5,23.9 21.55,23.9 C30.15,23.05 49.65,22.6 80.1,22.5 L87.1,22 C95.95,22 102.3,23.35 106.15,26 108.45,27.55 109.6,29.25 109.6,31 L109.7,31.35 112.8,30.7 C111.65,29.5 110.95,28.25 110.7,27 110.6,25.65 110.4,24.65 110.1,24 L95.8,21.15zM109.7,31.35 L109.6,31.35 109.6,31 109.7,31.35z"/>
          <path id="path960" transform="matrix(1 0 0 1 165.5 68.95)" fill="#F0C930" fill-opacity="1" d="M16.2,34.5 C15.85,33.85 14.35,33.5 11.6,33.5 10.3,33.5 9.35,33.8 8.75,34.45 L8.95,34.7 9.6,36.25 C10.85,37.7 15.15,38.45 22.6,38.5 19.85,38.05 18.05,37.45 17.2,36.75 16.85,36.4 16.6,36 16.45,35.55 L16.2,34.5z "/>
          <path id="path963" transform="matrix(1 0 0 1 165.5 68.95)" fill="#F0C930" fill-opacity="1" d="M17.6,43.8 C13.4,43.5 10.2,42.9 8,42 8.65,44.5 8.9,47.85 8.85,52.05 L8.7,58.85 C8.75,60.8 9.05,61.75 9.6,61.75 L17.35,61.5 17.6,43.8z M-103.7,-8.5 C-104.3,-6.9 -105.5,-4.3 -107.25,-0.65 -109.9,4.9 -111.25,9.6 -111.25,13.5 -111.25,19.35 -110.25,23.75 -108.2,26.6 -105.65,30.1 -100.95,33.3 -94.05,36.2 L-91.75,36 -89.45,36.3 C-91,34.55 -91.75,32.55 -91.75,30.4 L-91.65,30.05 -91.75,30 C-98.7,30 -102.9,27.2 -104.25,21.55 -104.7,19.75 -104.8,17.75 -104.65,15.55 L-104.25,12.5 C-104.25,5.75 -104.1,1.8 -103.8,0.65 -103.45,-0.7 -101.9,-3.75 -99.25,-8.5 L-103.7,-8.5zM-86.75,-22.45 L-87.95,-21.35 -87.95,-20.9 C-74.6,-21.15 -56.65,-21.3 -34.2,-21.4 L-34.8,-23.35 -35.25,-26.25 -35.25,-26.6 -39.05,-27.55 -39.35,-27.6 -65.6,-26.6 C-71.95,-25.65 -79,-24.3 -86.75,-22.45zM-88.9,-20.85 L-87.95,-21.35 -87.95,-20.9 -88.9,-20.85z"/>
          <path id="path977" transform="matrix(1 0 0 1 165.5 68.95)" fill="#F5DD81" fill-opacity="1" d="M-3.25,-39.5 L-8.25,-39.5 -8.3,-33.85 -5.25,-34 -3.45,-33.9 -3.45,-34.2 -3.25,-38.75 -3.25,-39.5z "/>
          <path id="path983" transform="matrix(1 0 0 1 165.5 68.95)" fill="#F0C930" fill-opacity="1" d="M-5.4,-28.5 C-6.4,-28.5 -7.5,-28.25 -8.7,-27.7 -9.9,-27.05 -10.75,-26.65 -11.25,-26.5 -10.6,-26.15 -10.25,-25.15 -10.25,-23.5 -10.25,-22.4 -10.3,-21.75 -10.45,-21.5 L-8.75,-21.5 -2.4,-21.55 -2.45,-22.45 C-2.05,-24.65 -2,-26.4 -2.25,-27.75 -2.7,-28.25 -3.75,-28.5 -5.4,-28.5z M-23.25,-27 L-23.25,-27.5 -30.25,-27.5 C-30.25,-25.15 -30.3,-23.15 -30.4,-21.4 L-22.95,-21.45 -22.95,-22.3 C-23.15,-23.1 -23.25,-24.65 -23.25,-27zM-20.8,-8.6 L-31.25,-8.5 -31.25,16.65 -29.5,15.6 C-28.7,15.2 -27.8,15 -26.75,15 -24.05,15 -22.3,15.8 -21.55,17.45 L-20.9,17.2 C-21.5,15.85 -21.9,14.2 -22.1,12.25 L-22.25,4.25 -22.1,-3.7 C-21.9,-5.75 -21.45,-7.4 -20.8,-8.6zM-2.15,-8.95 L-10.55,-8.75 C-10.1,-6.3 -10,-2.5 -10.25,2.75 L-10.45,16.15 C-7,16.5 -4.8,17.8 -3.75,20 L-3.3,20 -3.2,6.25 C-3.05,-1 -2.7,-6.05 -2.15,-8.95z"/>
          <path id="path986" transform="matrix(1 0 0 1 165.5 68.95)" fill="#F5DD81" fill-opacity="1" d="M-24.25,-40.75 L-27.25,-40.5 C-27.25,-37.5 -27.35,-35 -27.5,-33 L-26.75,-33 -24.5,-32.75 -24.75,-34.7 C-24.8,-36.25 -24.6,-38.15 -24.25,-40.5 L-24.25,-40.75z M-22.95,-22.3 L-22.7,-21.45 -22.95,-21.45 -22.95,-22.3zM-20.75,17.45 L-21.45,17.75 -21.55,17.45 -20.9,17.2 -20.75,17.45zM-3.75,20 L-3.3,20 -3.3,21.2 -3.75,20z"/>
          <path id="path1007" transform="matrix(1 0 0 1 165.5 68.95)" fill="#F0C930" fill-opacity="1" d="M-8.25,24.5 C-9.9,22.35 -11.2,21.25 -12.25,21.25 -17.05,21.25 -20.45,23.1 -22.45,26.75 -23.65,28.9 -24.25,31.4 -24.25,34.25 -24.25,41.25 -22.9,44.75 -20.25,44.75 -11.1,44.75 -6,43.95 -5.05,42.4 L-4.7,40.45 C-4.55,39.85 -4.1,39.4 -3.25,39.15 L-3.25,36.55 -5.5,38.25 C-8.25,40.1 -10.5,41 -12.25,41 -18.9,41 -22.25,38.25 -22.25,32.75 -22.25,30.55 -21.1,28.9 -18.85,27.8 -17.9,27.35 -14.35,26.25 -8.25,24.5z M-26.05,20.9 L-27,20.25 C-27.95,20.25 -28.65,20.55 -29.1,21.15 -29.75,22 -30.3,22.55 -30.75,22.75 L-74.5,24.5 -79.45,24.65 -81.75,25.5 C-83.25,26 -84.35,26.5 -85.1,27 L-84.6,27.95 C-84.25,28.85 -84.45,29.7 -85.25,30.5 L-85.5,30.65 -83,36.75 C-82.75,36.9 -82.4,37.4 -81.95,38.15 -80.9,38.9 -78.7,39.35 -75.25,39.5 L-32.95,41.05 -29.5,41.1 C-29.75,40.05 -29.85,39 -29.8,37.85 L-53.25,38 C-68.3,38 -77.3,37.2 -80.25,35.65 -81.2,35.15 -81.45,34.6 -81.1,33.95 L-80.25,33 -80.6,31.25 C-80.6,30.5 -80.05,29.85 -78.95,29.3 -75.8,27.75 -67.4,27 -53.75,27 L-29.75,28.05 -28.8,28.3 C-28.25,25.4 -27.2,23 -25.7,21.15 L-26.05,20.9zM-26.05,20.9 L-25.6,21 -25.7,21.15 -26.05,20.9zM-29.75,28.05 L-28.8,28.3 -28.8,28.4 -29.75,28.05z"/>
          <path id="path1024" transform="matrix(1 0 0 1 165.5 68.95)" fill="#F0C930" fill-opacity="1" d="M-22.45,48.8 C-24.85,47.95 -26.65,46.6 -27.9,44.85 L-30.6,44.9 C-29.55,47.05 -29.1,49.65 -29.15,52.8 L-29.25,62.75 C-24.15,61.55 -21.7,59.35 -21.85,56.15 L-22.55,52.1 C-22.8,50.75 -22.75,49.65 -22.45,48.8z M-3.25,27.25 L-3.45,27.25 C-3.35,27 -3.3,26.5 -3.25,25.75 L-3.25,26.85 -3.25,27.25zM-3.25,31.2 L-3.25,27.25 -3.45,27.25 C-3.6,27.6 -4.1,27.9 -4.95,28.15 -8.9,29.3 -12.85,31 -16.75,33.25 -15.75,34.75 -14.4,35.5 -12.75,35.5 -10.75,35.5 -9,34.75 -7.5,33.25 -6.05,31.75 -4.95,31 -4.25,31 L-3.25,31.2z"/>
          <path id="path1032" transform="matrix(1 0 0 1 165.5 68.95)" fill="#F0C930" fill-opacity="1" d="M-8.25,63.5 C-6.8,63.5 -5.15,63.25 -3.2,62.75 L-3.2,47.45 C-4.9,48.6 -7.1,49.35 -9.8,49.75 -8.75,52 -8.25,56.6 -8.25,63.5z "/>
        </g>
      </g>
    </symbol>
  </defs>
  <g id="sprite.__201571.__20(Items).__2F50">
    <g id="Layer.__201">
      <use xlink:href="#MovieClip.__2Fsprite.__201303" id="MovieClip.__2Fsprite.__201304" width="411.15" height="138" x="-165.55" y="-69" transform="matrix(0.3568267822265625 0.111358642578125 -0.111358642578125 0.3568267822265625 159.75 27.5)" overflow="visible"/>
    </g>
  </g>
</svg>