<?xml version="1.0" encoding="utf-8"?>
<!-- Generator: flash2svg, http://dissentgraphics.com/tools/flash2svg -->
<svg xmlns:xlink="http://www.w3.org/1999/xlink" id="sprite.__201571.__20(Items).__2F61" image-rendering="optimizeSpeed" baseProfile="basic" version="1.1" style="background-color:#ffffff" x="0px" y="0px" width="550px" height="400px" viewBox="0 0 550 400" enable-background="new 0 0 550 400" xmlns="http://www.w3.org/2000/svg">
  <defs>
    <symbol id="MovieClip.__2Fsprite.__201309" viewBox="-15.5 -60.75 752.2 161.8">
      <g id="Layer.__266">
        <use xlink:href="#Graphic.__2Fshape.__201358" id="Graphic.__2Fshape.__201359" width="752.2" height="161.8" x="-15.5" y="-60.75" transform="matrix(1 0 0 1 0 0)" overflow="visible"/>
      </g>
    </symbol>
    <symbol id="Graphic.__2Fshape.__201358" viewBox="-15.5 -60.75 752.2 161.8">
      <g id="Layer.__316">
        <g id="shape1185" transform="matrix(1 0 0 1 -15.499 -60.749)">
          <path id="path1111" transform="matrix(1 0 0 1 15.45 60.7)" fill="#000000" fill-opacity="1" d="M46.5,-52.25 L45.9,-53.9 C25.45,-56.55 4.95,-56.9 -15.5,-55 L-1.25,-26.3 C-3.8,-19.35 -5.05,-12.15 -5,-4.6 -4.95,8.3 -1.6,20.2 5.15,31.05 L-1.4,36.05 -7.05,40.85 C-11.75,45.2 -13.75,50.4 -13.1,56.45 L-11,58.5 -9.2,56.95 C-2.5,59.8 4.45,62 11.6,63.55 23.3,65.9 35.1,66.55 47,65.5 L73.45,46.6 C125.45,54.7 176.15,61.55 225.6,67.15 337.65,79.6 449.9,90.35 562.35,99.4 L562.55,100.55 C618.3,103.4 675.75,93.3 734.8,70.25 L734.5,69.95 736.05,62.95 C736.55,60.15 736.75,57.35 736.7,54.6 L736.65,53.6 C729.2,45.1 724.75,40.25 723.3,39.1 710.85,28.95 697.3,20.45 682.7,13.6 672.45,8.75 661.9,4.85 651,1.95 646.75,0.8 642.45,-0.15 638.1,-1 L637.3,-1.15 C611.15,-6.1 584.9,-9.9 558.55,-12.45 501.2,-18.3 443.75,-23 386.25,-26.45 300.35,-32.1 214.3,-36.2 128.1,-38.75 L128.25,-40.35 C128.3,-41.6 128.05,-42.95 127.55,-44.3 125.4,-50.2 122.2,-55.55 117.95,-60.35 L64.3,-60.75 54.2,-47.1 46.5,-52.25z M62.45,-41.2 L108.2,-37.6 215.05,-31.15 321.85,-27.1 C352.1,-25.95 382.2,-23.7 412.15,-20.35 470.9,-13.6 529.75,-8.55 588.7,-5.2 599.9,-4.5 610.9,-3.1 621.65,-1 631.6,0.95 641.4,3.45 651,6.6 671.1,13.1 690.4,22.2 708.9,33.9 L700.85,42.05 699,44.6 C696.65,47.95 695,51.55 694.05,55.5 693.2,59.05 692.9,62.65 693.15,66.4 693.5,70.7 694.6,74.75 696.45,78.5 688.15,81.25 679.65,83.75 671,85.95 655.7,89.8 640.2,92.65 624.55,94.45 607.15,96.5 589.7,97.35 572.15,96.95 561.5,96.7 550.9,95.8 540.35,94.35 473.8,85.55 407.1,78.45 340.25,73 253.7,66.15 165.95,56.5 77.05,44 L82.3,40.25 82.4,38.15 83.25,37.4 83.45,35.5 C60.35,32 37.05,30 13.5,29.5 8.55,23.25 5,16.35 2.75,8.8 -0.65,-2.7 -0.4,-14.05 3.5,-25.3 29.3,-23.05 55,-23.5 80.65,-26.65 L79.2,-31.05 62.45,-41.2zM67.85,-57.95 L114.75,-56.1 124.4,-38.85 60.15,-45.4 67.85,-57.95zM3.5,-29.8 L-6.95,-50.9 41.65,-49.55 66.4,-31.45 3.5,-29.8zM10.9,35.3 C32.65,39.85 54.55,40.9 76.6,38.5 L51.1,55.3 45.3,60.2 C37,58.4 28.6,57.55 20.1,57.65 10.85,57.75 2.1,56.05 -6.05,52.5 L-4.4,49.85 -0.7,44.85 C0.85,42.9 2.65,41.1 4.7,39.55 6.7,38 8.75,36.55 10.9,35.3zM725.65,47.25 C732.8,53.35 734.2,60.85 729.75,69.8 L701.05,77.25 700.3,74.5 C696.55,59.55 700.55,47.05 712.35,36.9 714,37.65 718.45,41.1 725.65,47.25z"/>
          <path id="path1112" transform="matrix(1 0 0 1 15.45 60.7)" fill="#AAAAAA" fill-opacity="1" d="M62.45,-41.2 L79.2,-31.05 80.65,-26.65 C55,-23.5 29.3,-23.05 3.5,-25.3 -0.4,-14.05 -0.65,-2.7 2.75,8.8 5,16.35 8.55,23.25 13.5,29.5 37.05,30 60.35,32 83.45,35.5 L83.25,37.4 82.4,38.15 82.3,40.25 77.05,44 C165.95,56.5 253.7,66.15 340.25,73 407.1,78.45 473.8,85.55 540.35,94.35 550.9,95.8 561.5,96.7 572.15,96.95 589.7,97.35 607.15,96.5 624.55,94.45 640.2,92.65 655.7,89.8 671,85.95 679.65,83.75 688.15,81.25 696.45,78.5 694.6,74.75 693.5,70.7 693.15,66.4 692.9,62.65 693.2,59.05 694.05,55.5 695,51.55 696.65,47.95 699,44.6 L700.85,42.05 708.9,33.9 C690.4,22.2 671.1,13.1 651,6.6 641.4,3.45 631.6,0.95 621.65,-1 610.9,-3.1 599.9,-4.5 588.7,-5.2 529.75,-8.55 470.9,-13.6 412.15,-20.35 382.2,-23.7 352.1,-25.95 321.85,-27.1 L215.05,-31.15 108.2,-37.6 62.45,-41.2z "/>
          <path id="path1115" transform="matrix(1 0 0 1 15.45 60.7)" fill="#7B7B7B" fill-opacity="1" d="M67.85,-57.95 L60.15,-45.4 124.4,-38.85 114.75,-56.1 67.85,-57.95z "/>
          <path id="path1118" transform="matrix(1 0 0 1 15.45 60.7)" fill="#7B7B7B" fill-opacity="1" d="M3.5,-29.8 L66.4,-31.45 41.65,-49.55 -6.95,-50.9 3.5,-29.8z "/>
          <path id="path1121" transform="matrix(1 0 0 1 15.45 60.7)" fill="#7B7B7B" fill-opacity="1" d="M10.9,35.3 C8.75,36.55 6.7,38 4.7,39.55 2.65,41.1 0.85,42.9 -0.7,44.85 L-4.4,49.85 -6.05,52.5 C2.1,56.05 10.85,57.75 20.1,57.65 28.6,57.55 37,58.4 45.3,60.2 L51.1,55.3 76.6,38.5 C54.55,40.9 32.65,39.85 10.9,35.3z "/>
          <path id="path1124" transform="matrix(1 0 0 1 15.45 60.7)" fill="#7B7B7B" fill-opacity="1" d="M725.65,47.25 C718.45,41.1 714,37.65 712.35,36.9 700.55,47.05 696.55,59.55 700.3,74.5 L701.05,77.25 729.75,69.8 C734.2,60.85 732.8,53.35 725.65,47.25z "/>
        </g>
      </g>
      <g id="Layer.__317">
        <g id="shape1202" transform="matrix(1 0 0 1 7.4 -11.749)">
          <path id="path1127" transform="matrix(1 0 0 1 -7.399 11.7)" fill="#000000" fill-opacity="1" d="M37.45,-6.25 C34,-9.7 29.85,-11.4 25,-11.4 20.15,-11.4 16,-9.7 12.55,-6.25 9.1,-2.8 7.35,1.35 7.4,6.2 7.35,11.05 9.1,15.25 12.55,18.7 16,22.15 20.15,23.85 25,23.85 29.85,23.85 34,22.15 37.45,18.7 40.9,15.25 42.6,11.05 42.65,6.2 42.6,1.35 40.9,-2.8 37.45,-6.25z M36.55,-5.35 C38.7,-3.2 40.1,-0.75 40.8,2 41.15,3.35 41.3,4.75 41.3,6.2 41.3,10.7 39.7,14.55 36.55,17.75 33.35,20.9 29.5,22.5 25,22.5 20.5,22.5 16.65,20.9 13.45,17.75 10.3,14.55 8.7,10.7 8.7,6.2 8.7,1.7 10.3,-2.15 13.5,-5.3 16.65,-8.5 20.5,-10.1 25,-10.1 29.5,-10.15 33.35,-8.55 36.55,-5.35z"/>
          <path id="path1128" transform="matrix(1 0 0 1 -7.399 11.7)" fill="#FFFFFF" fill-opacity="1" d="M36.55,-5.35 C33.35,-8.55 29.5,-10.15 25,-10.1 20.5,-10.1 16.65,-8.5 13.5,-5.3 10.3,-2.15 8.7,1.7 8.7,6.2 8.7,10.7 10.3,14.55 13.45,17.75 16.65,20.9 20.5,22.5 25,22.5 29.5,22.5 33.35,20.9 36.55,17.75 39.7,14.55 41.3,10.7 41.3,6.2 41.3,4.75 41.15,3.35 40.8,2 40.1,-0.75 38.7,-3.2 36.55,-5.35z M15.4,-4.3 C17.35,-6.05 19.9,-7.2 23.1,-7.65 L23.85,-4.75 25.5,2.15 C24.45,2.05 23.45,2.35 22.6,3 L22.55,3.1 22.5,3.15 C21.8,4 21.5,5 21.6,6.05 L14.7,4.45 11.8,3.65 C12.25,0.45 13.4,-2.1 15.15,-4.05 L15.25,-4.15 15.4,-4.3zM34.85,-4.5 C37.4,-2.5 39.1,-0.25 39.9,2.3 L39.95,2.45 40,2.6 39.95,2.6 C40.5,5.15 40.2,7.95 39,10.95 L36.1,10.15 29.3,8.15 C29.95,7.25 30.2,6.25 30.05,5.2 L30,5.1 29.95,5 C29.55,3.95 28.85,3.25 27.9,2.8 L32.75,-2.35 34.85,-4.5zM28.65,6.15 C28.6,6.95 28.3,7.65 27.75,8.25 L27.45,8.5 C26.9,8.9 26.3,9.1 25.65,9.15 24.8,9.1 24.1,8.8 23.5,8.25 22.9,7.65 22.6,6.95 22.6,6.15 22.6,5.4 22.8,4.8 23.25,4.3 L23.5,4 C24.05,3.4 24.75,3.1 25.6,3.1 26.45,3.1 27.15,3.4 27.75,4 28.3,4.6 28.6,5.3 28.65,6.15zM24.55,10.6 L24.6,10.6 C25.7,10.75 26.7,10.5 27.55,9.85 L29.6,16.7 30.4,19.6 C27.35,20.8 24.55,21.1 22,20.55 L21.9,20.5 21.7,20.45 C19.2,19.65 16.95,18 14.95,15.45 L17.05,13.35 22.25,8.45 C22.7,9.4 23.4,10.1 24.4,10.55 L24.55,10.6z"/>
          <path id="path1131" transform="matrix(1 0 0 1 -7.399 11.7)" fill="#000000" fill-opacity="1" d="M15.4,-4.3 L15.25,-4.15 15.15,-4.05 C13.4,-2.1 12.25,0.45 11.8,3.65 L14.7,4.45 21.6,6.05 C21.5,5 21.8,4 22.5,3.15 L22.55,3.1 22.6,3 C23.45,2.35 24.45,2.05 25.5,2.15 L23.85,-4.75 23.1,-7.65 C19.9,-7.2 17.35,-6.05 15.4,-4.3z "/>
          <path id="path1134" transform="matrix(1 0 0 1 -7.399 11.7)" fill="#000000" fill-opacity="1" d="M34.85,-4.5 L32.75,-2.35 27.9,2.8 C28.85,3.25 29.55,3.95 29.95,5 L30,5.1 30.05,5.2 C30.2,6.25 29.95,7.25 29.3,8.15 L36.1,10.15 39,10.95 C40.2,7.95 40.5,5.15 39.95,2.6 L40,2.6 39.95,2.45 39.9,2.3 C39.1,-0.25 37.4,-2.5 34.85,-4.5z "/>
          <path id="path1137" transform="matrix(1 0 0 1 -7.399 11.7)" fill="#000000" fill-opacity="1" d="M28.65,6.15 C28.6,5.3 28.3,4.6 27.75,4 27.15,3.4 26.45,3.1 25.6,3.1 24.75,3.1 24.05,3.4 23.5,4 L23.25,4.3 C22.8,4.8 22.6,5.4 22.6,6.15 22.6,6.95 22.9,7.65 23.5,8.25 24.1,8.8 24.8,9.1 25.65,9.15 26.3,9.1 26.9,8.9 27.45,8.5 L27.75,8.25 C28.3,7.65 28.6,6.95 28.65,6.15z "/>
          <path id="path1140" transform="matrix(1 0 0 1 -7.399 11.7)" fill="#000000" fill-opacity="1" d="M24.55,10.6 L24.4,10.55 C23.4,10.1 22.7,9.4 22.25,8.45 L17.05,13.35 14.95,15.45 C16.95,18 19.2,19.65 21.7,20.45 L21.9,20.5 22,20.55 C24.55,21.1 27.35,20.8 30.4,19.6 L29.6,16.7 27.55,9.85 C26.7,10.5 25.7,10.75 24.6,10.6 L24.55,10.6z M51.5,-7.65 C49.65,-6 48.75,-4.45 48.75,-3 48.75,-0.95 51.45,2 56.8,5.75 62.85,10.1 66.45,13.25 67.5,15.25 L52.6,16 50.95,16.1 C50.8,16.2 50.75,16.55 50.75,17.1 L50.5,17.45 C50.4,17.65 50.5,17.85 50.75,18 51.55,18.5 54.15,18.75 58.5,18.75 66.35,18.75 70.25,17.55 70.25,15.1 70.25,13.1 67.1,9.8 60.75,5.25 54.4,0.7 51.25,-2 51.25,-2.75 51.3,-3.8 51.85,-4.75 52.8,-5.7 54.75,-7.55 57.95,-8.5 62.5,-8.5 66.25,-8.5 68.3,-8.2 68.65,-7.6 L68.85,-7 70,-6.75 C70.35,-6.75 70.65,-6.9 71,-7.25 71.15,-6.9 71.25,-7.15 71.25,-8 71.4,-10.15 68.5,-11.25 62.5,-11.25 57.8,-11.25 54.15,-10.05 51.5,-7.65zM83.5,-1.25 L82.25,-0.7 C82.65,3.55 83.9,7.85 85.95,12.2 88.65,17.9 91.85,20.75 95.5,20.75 101.15,20.75 105.25,14.55 107.75,2.1 106.75,-7.15 104.9,-11.75 102.25,-11.75 L101.05,-11.65 C100.85,-11.5 100.75,-11.15 100.75,-10.6 100.75,-9.65 101.5,-7.95 103,-5.45 104.5,-3 105.25,-0.4 105.25,2.25 L103.1,10.2 C101.05,15.4 98.45,18 95.35,18 93.4,18 90.9,14.8 87.85,8.4 85.15,1.95 83.7,-1.25 83.5,-1.25zM119.25,-3.05 L118.8,-3 118.75,-1.75 C118.75,0.2 119.5,4.95 120.95,12.4 L119.75,13.35 C119.75,13.8 119.9,14.15 120.25,14.5 L121.25,14.75 121.45,14.75 121.55,15.4 C123.4,24.55 124.75,30 125.5,31.75 L126.75,31.05 126.75,28.8 124.8,14.05 C128.75,12.45 133.1,8.25 137.75,1.5 137.7,-0.2 137.2,-1.85 136.3,-3.45 134.55,-6.65 131.6,-8.25 127.5,-8.25 121.35,-8.25 118.25,-6.95 118.25,-4.4 118.25,-4.15 118.6,-3.7 119.25,-3.05zM120.55,-3.65 C120.5,-4.1 120.55,-4.4 120.6,-4.55 120.85,-5.2 123,-5.5 127,-5.5 130,-5.5 132.25,-4.5 133.75,-2.5 134.75,-1.15 135.25,0.1 135.25,1.35 135.25,3 132.65,5.35 127.5,8.4 L124.2,10.4 C122.75,1.95 121.45,-2.6 120.3,-3.15 L120.55,-3.65zM219.75,-2 C219.75,-3.15 219.35,-3.75 218.5,-3.75 217,-3.75 216.25,-0.35 216.25,6.5 L216.05,8 C216,9.15 216.05,10.25 216.3,11.2 217.15,14.25 219.45,15.75 223.25,15.75 225.95,15.75 228.2,15.1 230,13.85 L234.75,10.05 C235.4,13.8 235.75,17.8 235.75,22.05 235.75,26.85 235.25,30.35 234.3,32.55 231.85,38.2 226.55,41.05 218.5,41.05 216.6,41.05 215.3,40 214.55,37.9 213.8,35.8 213.15,34.75 212.5,34.75 L211.25,35.25 C211.25,36.7 211.6,38.25 212.3,40 213.35,42.5 214.8,43.75 216.75,43.75 226.4,43.75 232.85,40.85 236,35 237.5,32.15 238.25,27.85 238.25,22 L236.75,8 C237.4,5.05 237.75,3.2 237.75,2.35 238.35,-1.05 237.45,-2.75 235,-2.75 234.35,-2.4 233.9,-2.25 233.75,-2.25 L234.1,1.15 C234.25,3.15 234.2,4.85 233.95,6.3 233.15,10.8 230.35,13.05 225.55,13.05 221.8,13.05 219.55,12.05 218.8,10 218.55,9.35 218.5,8.6 218.55,7.8 L218.75,6.55 219.75,-2zM320,-7.75 C319.15,-7.75 318.75,-6.35 318.75,-3.6 318.75,-2.55 319.6,5 321.25,19 321.3,21.35 321.25,25.15 321.05,30.35 321.05,35 321.55,38.8 322.5,41.75 L323.5,41.25 323.75,27.75 C323.25,4.1 322,-7.75 320,-7.75zM632.25,16.6 C632.25,17.1 632.75,19.7 633.75,24.35 634.75,29.6 635.25,34.05 635.25,37.6 L635.05,44.25 C632.65,42.6 629.15,41.75 624.5,41.75 615.65,41.75 611.25,44.6 611.25,50.3 611.25,59.95 617.35,64.75 629.5,64.75 634.15,64.75 636.9,61.85 637.75,56 638.05,54.15 638.15,51.9 638,49.3 L637.75,44.85 C637.9,39.9 637.85,35 637.6,30.05 637.05,20.2 635.7,15.25 633.5,15.25 633.25,15.25 632.85,15.45 632.3,15.8 L632.25,16.6zM620.05,44.5 C628.7,44.5 633.8,45.45 635.25,47.3 635.75,47.95 635.9,48.8 635.7,49.95 L635.25,52.8 635.55,54.35 C635.7,55.5 635.6,56.55 635.25,57.5 634.2,60.55 631,62.05 625.75,62.05 621.15,62.05 617.8,60.45 615.75,57.25 614.4,55.2 613.75,52.85 613.75,50.25 L614.3,47.3 C615.25,45.45 617.2,44.5 620.05,44.5zM575.25,35.55 C574.5,33.7 572.15,32.75 568.25,32.75 561.9,32.75 557.05,36.35 553.8,43.55 551.75,48.1 550.75,52 550.75,55.35 550.75,57.5 552.15,59.85 555,62.3 559.2,65.95 565.3,67.75 573.25,67.75 574.5,67.75 575.65,67.25 576.75,66.3 577.75,65.4 578.25,64.6 578.25,63.85 578.25,63.35 578.1,63.05 577.85,62.95 L577,62.75 C576.75,62.8 576.2,63.25 575.35,64.1 574.7,64.75 573,65.05 570.25,65.05 566.05,65.05 562.05,63.8 558.3,61.3 554.95,59.05 553.25,57.05 553.25,55.3 553.25,52.85 554.45,49.15 556.85,44.3 559.4,39.15 561.75,36.2 563.8,35.5 L572.75,35.5 572.75,41.5 C572.3,42.6 571.15,44.1 569.25,46 566.95,48.25 564.3,49.55 561.35,49.9 558.95,49.9 557.75,50.05 557.75,50.35 L557.8,51.05 C558.25,51.5 559.6,51.75 561.75,51.75 570.75,51.75 575.25,47.35 575.25,38.6 575.65,37.55 575.65,36.5 575.25,35.55zM585,36.75 L585.75,36.5 587.3,32.7 C588.85,30.45 591.25,29.3 594.5,29.3 597.5,29.3 602.1,38.3 608.3,56.35 608.3,56.9 608.2,57.15 607.95,57.15 L607.25,57 C606.4,56.45 602.25,54.65 594.75,51.7 587.2,48.75 583.1,47.25 582.5,47.25 579.35,47.25 577.75,49.4 577.75,53.75 577.75,56.8 578.5,59.45 580.05,61.8 583.1,66.45 588.7,68.75 596.75,68.75 599.65,68.75 602.2,67.45 604.35,64.8 L606.4,62.05 C607.05,61.2 607.55,60.8 608,60.8 608.35,60.8 609,61.3 610,62.25 610.85,62.25 611.2,62.1 611.05,61.8 L611.25,59.35 C610,53.9 608.35,48.5 606.25,43.05 602,32.2 597.7,26.75 593.25,26.75 590.1,26.75 587.6,28 585.75,30.5 584.4,32.25 583.75,33.75 583.75,35 583.75,35.35 584.15,35.9 585,36.75zM596.75,66 C591.55,66 587.3,64.3 584,60.85 581.5,58.2 580.25,55.9 580.25,53.85 L580.25,51.85 C580.4,50.6 580.9,50 581.75,50 583.5,50 587.55,51.2 593.95,53.55 600.6,56 604.5,57.9 605.75,59.25 605.25,59.6 604.8,60.25 604.35,61.1 L603.2,63.35 C602.05,65.1 599.9,66 596.75,66zM529,12.25 C528.15,12.85 527.75,13.95 527.75,15.6 527.75,18.15 528.65,24.6 530.5,35 L530.65,45.1 C530.6,49.25 531.05,52.45 532,54.75 L533.05,54.3 C532.8,48.9 532.9,44.65 533.35,41.55 534.1,35.85 536.4,33 540.25,33 542.35,33 543.9,36.25 544.9,42.7 546.2,51.4 547.05,56.25 547.5,57.25 L548.5,56.75 548.75,54.1 C548.4,50 547.85,46 547,42.05 545.35,34.2 543.25,30.25 540.75,30.25 538.1,30.25 536.15,31.15 535,32.95 L533.5,36.3 533.45,36.3 533.4,36.4 533.25,36.55 533.05,36.05 C532.2,26.6 530.85,18.65 529,12.25zM504.25,19.75 C501.75,19.75 499.35,21.25 497.1,24.3 495.35,26.55 494.4,28.2 494.25,29.25 493.9,30.6 493.75,32.35 493.75,34.5 493.75,35.8 493.1,36.75 491.75,37.4 490.4,38 489.75,38.55 489.75,39.1 L499.5,54.75 C500,54.75 500.35,54.6 500.5,54.35 L500.75,53.75 C500.6,52.5 499.95,50.65 498.8,48.25 497.6,45.7 496.9,44.05 496.75,43.25 500.45,44.3 505.8,46.65 512.8,50.3 519.15,53.6 522.55,55.25 523,55.25 523.45,55.25 523.9,54.85 524.25,54.05 523.6,52.3 519.55,49.85 512.2,46.75 503.35,43 498.1,40.6 496.55,39.5 504.3,39.65 509.95,39.1 513.4,37.85 515.65,37 516.75,36.05 516.75,35 510.3,24.85 506.15,19.75 504.25,19.75zM499.1,25.85 C500.65,23.6 501.75,22.5 502.5,22.5 504.85,22.5 507.35,24.35 510,28.05 511.35,29.95 512.7,32.1 514.05,34.55 L507,36.55 496.25,36.55 496.25,31.8 C496.6,30.1 497.55,28.1 499.1,25.85zM486.45,55.7 C486.8,56.4 487.35,56.75 488,56.75 488.35,56.75 488.65,56.6 489,56.25 L489.25,54.5 C484.5,34 480.25,23.75 476.5,23.75 474.35,23.75 472.1,24.75 469.8,26.75 467.75,28.5 466.75,29.9 466.75,30.85 466.75,31.5 467.15,32 468,32.25 L470.85,29.25 C472.8,27.4 474.55,26.5 476.1,26.5 477.1,26.5 478.5,28.8 480.35,33.45 481.9,37.35 483.1,41.1 484.05,44.75 481.1,42.1 476.4,40.75 470,40.75 466.75,40.75 464.15,41.7 462.1,43.55 460.55,44.95 459.75,46.2 459.75,47.35 L460.5,49.2 C461.25,50.7 462.1,52.05 463.05,53.3 466.2,57.25 470.2,59.25 475,59.25 479.75,59.25 483.35,57.6 485.8,54.3 L486.45,55.7zM463.75,45.35 C465,44.1 466.25,43.5 467.5,43.5 475.15,43.5 479.9,44.4 481.65,46.15 482.15,46.65 482.65,47.55 483.2,48.9 483.75,50.25 484.35,51.3 485.05,52.05 483.8,53.2 482.65,54.1 481.6,54.75 479.65,55.95 476.4,56.55 471.75,56.55 470.8,56.55 468.95,55.2 466.25,52.5 463.6,49.85 462.25,48.1 462.25,47.35 462.25,47 462.75,46.35 463.75,45.35zM457.25,24 C457.25,23.65 456.85,23.1 456,22.25 L454.75,22.8 C454,26.55 453.65,31.55 453.7,37.9 453.75,44.7 453.6,49.35 453.25,51.8 451.4,49.65 448.85,45 445.5,37.85 L441,27.75 439.75,28.25 C438.05,38.3 436.5,45.35 435.05,49.5 432,44.85 429.5,38.9 427.65,31.55 426,23.55 424.6,17.8 423.5,14.25 422.65,14.8 422.25,16.2 422.25,18.35 L423.05,23.75 C423.8,27.95 424.6,31.85 425.5,35.4 428.45,46.65 431.75,52.25 435.5,52.25 437.35,52.25 438.7,49.8 439.55,44.95 440.2,39.5 440.8,36.2 441.25,35.05 444,42.5 445.55,46.65 446,47.5 448.55,52.65 451.3,55.25 454.25,55.25 455.15,55.25 456.15,44.85 457.25,24zM387,15.75 C385.7,16.6 385.1,18.5 385.2,21.45 385.25,23.1 385.45,25.5 385.75,28.75 385.75,35.8 386.35,40.6 387.5,43.25 L388.75,42.25 C388.35,39.8 388.2,35.25 388.25,28.7 388.3,23.05 387.85,18.7 387,15.75zM369.8,42.1 C370.4,43.2 371.05,43.75 371.75,43.75 372.75,43.75 373.25,42.7 373.25,40.6 372.55,35.75 371.5,31 370.05,26.3 367.25,16.95 364.05,12.25 360.5,12.25 358.25,12.25 355.9,13 353.55,14.55 351.35,16 350.25,17.25 350.25,18.35 350.25,19 350.65,19.5 351.5,19.75 352.1,19.45 353.05,18.5 354.3,16.9 356,15.5 358.5,14.8 361.75,14.8 363,14.8 364.55,17.55 366.35,23 367.8,27.45 369.05,32.15 370,37.05 366.75,33.8 364.5,31.75 363.25,30.95 359.5,28.5 355.1,27.25 350,27.25 348.7,27.25 347.6,28.25 346.75,30.25 346.1,31.8 345.75,33.25 345.75,34.5 L345.65,36 C345.7,37.05 346,38 346.5,38.85 348.15,41.45 351.8,42.75 357.5,42.75 362.35,42.75 366.15,41.9 368.8,40.25 L369.8,42.1zM365,39.25 L352.5,40.05 C349.65,40.05 348.25,38.25 348.25,34.6 L348.25,32.25 C348.45,30.75 348.95,30 349.75,30 354.4,30 358.25,30.9 361.25,32.75 362.9,33.8 364.85,35.6 367.05,38.25 L365,39.25zM346.25,6.85 L346.15,6.1 346,6.3 C345.45,5.95 345.05,5.75 344.75,5.75 344.05,5.75 340.55,8.6 334.25,14.25 327.9,19.9 324.75,23.1 324.75,23.75 335.95,40.1 341.85,48.25 342.5,48.25 343.35,48.25 343.7,48.1 343.55,47.75 L343.75,46.6 C343.75,46.05 341.75,42.85 337.75,37.05 333.55,31 330.2,26.55 327.75,23.75 L339.05,13.95 C343.85,9.7 346.25,7.35 346.25,6.85zM313.25,12.25 C313.5,8.6 313.05,6.75 312,6.75 311.25,6.75 310.8,7.8 310.75,9.85 L310.45,16.65 C309.35,23.25 304.7,26.55 296.5,26.55 289.5,26.55 285.25,23.9 283.8,18.6 283.4,17.1 283.15,14.95 283.05,12.15 282.95,9.6 282.75,7.95 282.5,7.25 281.6,7.8 281.05,8.85 280.8,10.45 280.7,11.25 280.7,12.05 280.75,12.85 L281.15,15.4 C281.6,17.45 282.2,19.35 283.05,21.05 285.8,26.5 290.2,29.25 296.25,29.25 307.6,29.25 313.25,23.6 313.25,12.25zM292.65,46.25 C292.65,41.4 290.95,37.25 287.5,33.8 284.05,30.35 279.85,28.6 275,28.6 270.15,28.6 266,30.35 262.55,33.8 259.1,37.25 257.4,41.4 257.4,46.25 257.4,51.1 259.1,55.25 262.55,58.7 266,62.15 270.15,63.85 275,63.85 279.85,63.85 284.05,62.15 287.5,58.7 290.95,55.25 292.65,51.1 292.65,46.25zM291.35,46.25 C291.35,49.3 290.6,52 289.15,54.45 288.45,55.6 287.6,56.7 286.55,57.75 283.35,60.95 279.5,62.55 275,62.55 270.5,62.55 266.65,60.95 263.5,57.75 260.3,54.6 258.7,50.75 258.7,46.25 258.7,41.75 260.3,37.9 263.5,34.7 266.65,31.55 270.5,29.95 275,29.95 279.5,29.95 283.35,31.55 286.55,34.7 289.75,37.9 291.35,41.75 291.35,46.25z"/>
          <path id="path1195" transform="matrix(1 0 0 1 -7.399 11.7)" fill="#FFFFFF" fill-opacity="1" d="M291.35,46.25 C291.35,41.75 289.75,37.9 286.55,34.7 283.35,31.55 279.5,29.95 275,29.95 270.5,29.95 266.65,31.55 263.5,34.7 260.3,37.9 258.7,41.75 258.7,46.25 258.7,50.75 260.3,54.6 263.5,57.75 266.65,60.95 270.5,62.55 275,62.55 279.5,62.55 283.35,60.95 286.55,57.75 287.6,56.7 288.45,55.6 289.15,54.45 290.6,52 291.35,49.3 291.35,46.25z M289.55,45.65 C289.9,48.85 289.5,51.65 288.3,54 L288.25,54.1 288.15,54.25 C286.7,56.45 284.5,58.2 281.55,59.5 L280.05,56.9 276.7,50.65 C277.75,50.45 278.65,49.9 279.3,49.05 L279.35,49 279.4,48.9 C279.85,47.85 279.85,46.85 279.45,45.85 L286.55,45.65 289.55,45.65zM275.45,32 L275.65,32 C278.25,32.1 280.85,33.15 283.5,35.1 L281.95,37.7 278.25,43.75 C277.55,42.9 276.65,42.4 275.6,42.3 L275.5,42.3 275.4,42.3 C274.3,42.4 273.4,42.9 272.7,43.75 L269,37.7 267.45,35.1 C270.05,33.15 272.65,32.15 275.3,32 L275.45,32zM271.45,45.85 C271.05,46.85 271.1,47.85 271.55,48.9 L271.6,49 271.65,49.05 C272.3,49.9 273.15,50.45 274.25,50.65 L270.85,56.9 269.35,59.5 C266.4,58.2 264.2,56.45 262.75,54.25 L262.7,54.15 262.6,54 C261.4,51.65 261,48.85 261.35,45.65 L264.35,45.65 271.45,45.85zM277.65,44.5 C278.2,45.05 278.5,45.75 278.5,46.6 278.5,47.45 278.2,48.15 277.65,48.75 277.05,49.3 276.35,49.6 275.5,49.6 L275.15,49.6 C274.45,49.5 273.85,49.2 273.4,48.75 272.8,48.15 272.5,47.45 272.5,46.6 272.5,45.75 272.8,45.05 273.4,44.5 273.85,44 274.45,43.7 275.15,43.65 L275.5,43.6 C276.35,43.6 277.05,43.9 277.65,44.5z"/>
          <path id="path1198" transform="matrix(1 0 0 1 -7.399 11.7)" fill="#000000" fill-opacity="1" d="M289.55,45.65 L286.55,45.65 279.45,45.85 C279.85,46.85 279.85,47.85 279.4,48.9 L279.35,49 279.3,49.05 C278.65,49.9 277.75,50.45 276.7,50.65 L280.05,56.9 281.55,59.5 C284.5,58.2 286.7,56.45 288.15,54.25 L288.25,54.1 288.3,54 C289.5,51.65 289.9,48.85 289.55,45.65z "/>
          <path id="path1201" transform="matrix(1 0 0 1 -7.399 11.7)" fill="#000000" fill-opacity="1" d="M275.45,32 L275.3,32 C272.65,32.15 270.05,33.15 267.45,35.1 L269,37.7 272.7,43.75 C273.4,42.9 274.3,42.4 275.4,42.3 L275.5,42.3 275.6,42.3 C276.65,42.4 277.55,42.9 278.25,43.75 L281.95,37.7 283.5,35.1 C280.85,33.15 278.25,32.1 275.65,32 L275.45,32z "/>
          <path id="path1204" transform="matrix(1 0 0 1 -7.399 11.7)" fill="#000000" fill-opacity="1" d="M271.45,45.85 L264.35,45.65 261.35,45.65 C261,48.85 261.4,51.65 262.6,54 L262.7,54.15 262.75,54.25 C264.2,56.45 266.4,58.2 269.35,59.5 L270.85,56.9 274.25,50.65 C273.15,50.45 272.3,49.9 271.65,49.05 L271.6,49 271.55,48.9 C271.1,47.85 271.05,46.85 271.45,45.85z "/>
          <path id="path1207" transform="matrix(1 0 0 1 -7.399 11.7)" fill="#000000" fill-opacity="1" d="M277.65,44.5 C277.05,43.9 276.35,43.6 275.5,43.6 L275.15,43.65 C274.45,43.7 273.85,44 273.4,44.5 272.8,45.05 272.5,45.75 272.5,46.6 272.5,47.45 272.8,48.15 273.4,48.75 273.85,49.2 274.45,49.5 275.15,49.6 L275.5,49.6 C276.35,49.6 277.05,49.3 277.65,48.75 278.2,48.15 278.5,47.45 278.5,46.6 278.5,45.75 278.2,45.05 277.65,44.5z M271.8,18.3 C273.45,16.05 274.25,14.05 274.25,12.3 274.25,10.35 273.35,8.6 271.55,7.05 268.9,4.85 264.75,3.75 259,3.75 253.5,3.75 250.75,7.1 250.75,13.85 250.75,15.95 251.4,17.85 252.75,19.5 254.8,22 257.95,23.25 262.25,23.25 266.3,23.25 269.45,21.6 271.8,18.3zM270.3,16.45 C268.4,19.2 265.05,20.55 260.3,20.55 258,20.55 256.15,19.65 254.8,17.85 253.75,16.45 253.25,15.1 253.25,13.75 253.2,12.4 253.35,11.15 253.8,10 254.6,7.65 256.2,6.5 258.55,6.5 267.35,6.5 271.75,8.4 271.75,12.25 271.75,13.7 271.25,15.1 270.3,16.45zM186.25,3.65 C186.25,2.1 186.1,1.15 185.75,0.75 184.4,-0.9 181.15,-1.75 176,-1.75 171.35,-1.75 168.45,-0.85 167.25,1 166.9,1.55 166.75,2.8 166.75,4.85 L168.1,15.15 C169.45,21.9 171.35,25.25 173.75,25.25 174.25,25.25 174.65,25.1 175,24.75 175.15,25.1 175.25,24.85 175.25,24 175.25,23.7 174.65,22.5 173.4,20.45 171.95,18.1 171,15.85 170.5,13.8 174.85,14.95 182.35,18.45 193,24.25 193.85,24.25 194.25,23.75 194.25,22.75 192.7,21.25 189.8,19.45 185.5,17.4 L177.25,13.45 176.5,13.05 177.55,12.75 C181.15,11.4 183.6,9.9 184.9,8.25 185.8,7.1 186.25,5.55 186.25,3.65zM183.65,5.4 C183.45,6 182.85,6.8 181.8,7.8 180.05,9.35 178.35,10.4 176.7,10.9 L170,11.5 169.8,11.05 C169.45,7.75 169.25,5.7 169.25,4.85 L169.25,2.85 C169.4,1.6 169.9,1 170.75,1 177,1 181,1.35 182.75,2 183.4,2.25 183.75,2.8 183.75,3.55 L183.65,5.4zM159.75,3 C159.8,2.05 159.45,1.15 158.8,0.3 157.5,-1.4 155.15,-2.25 151.75,-2.25 148.9,-2.25 146.15,0.1 143.5,4.75 141.35,8.55 140.25,11.2 140.25,12.75 L140.9,14.45 C141.5,15.85 142.3,17.1 143.25,18.25 146.35,21.9 150.6,23.75 156,23.75 158.85,23.75 160.25,22.85 160.25,21.1 160.25,20.55 159.85,20.1 159,19.75 157.45,20.6 156.25,21 155.4,21 151.95,21 148.8,19.75 146.05,17.25 143.85,15.25 142.75,13.65 142.75,12.5 142.75,11.75 142.85,11.1 143.05,10.5 154.2,10.45 159.75,7.95 159.75,3zM147.6,3.15 C148.9,1.4 149.6,0.5 149.75,0.5 154.75,0.5 157.25,1.3 157.25,2.9 156.6,6.45 152.4,8 144.55,7.55 145.15,6.45 146.15,5 147.6,3.15zM667,28.6 C662.15,28.6 658,30.35 654.55,33.8 651.1,37.25 649.4,41.4 649.4,46.25 649.4,51.1 651.1,55.25 654.55,58.7 658,62.15 662.15,63.85 667,63.85 671.85,63.85 676.05,62.15 679.5,58.7 682.95,55.25 684.65,51.1 684.65,46.25 684.65,41.4 682.95,37.25 679.5,33.8 676.05,30.35 671.85,28.6 667,28.6zM667,29.95 C671.5,29.95 675.35,31.55 678.55,34.7 681.75,37.9 683.35,41.75 683.35,46.25 683.35,49.3 682.6,52 681.15,54.45 680.45,55.6 679.6,56.7 678.55,57.75 675.35,60.95 671.5,62.55 667,62.55 662.5,62.55 658.65,60.95 655.5,57.75 652.3,54.6 650.7,50.75 650.7,46.25 650.7,41.75 652.3,37.9 655.5,34.7 658.65,31.55 662.5,29.95 667,29.95z"/>
          <path id="path1227" transform="matrix(1 0 0 1 -7.399 11.7)" fill="#FFFFFF" fill-opacity="1" d="M667,29.95 C662.5,29.95 658.65,31.55 655.5,34.7 652.3,37.9 650.7,41.75 650.7,46.25 650.7,50.75 652.3,54.6 655.5,57.75 658.65,60.95 662.5,62.55 667,62.55 671.5,62.55 675.35,60.95 678.55,57.75 679.6,56.7 680.45,55.6 681.15,54.45 682.6,52 683.35,49.3 683.35,46.25 683.35,41.75 681.75,37.9 678.55,34.7 675.35,31.55 671.5,29.95 667,29.95z M667.3,32 L667.45,32 667.65,32 C670.25,32.1 672.85,33.15 675.5,35.1 L673.95,37.7 670.25,43.75 C669.55,42.9 668.65,42.4 667.6,42.3 L667.5,42.3 667.4,42.3 C666.3,42.4 665.4,42.9 664.7,43.75 L661,37.7 659.45,35.1 C662.05,33.15 664.65,32.15 667.3,32zM656.35,45.65 L663.45,45.85 C663.05,46.85 663.1,47.85 663.55,48.9 L663.6,49 663.65,49.05 C664.3,49.9 665.15,50.45 666.25,50.65 L662.85,56.9 661.35,59.5 C658.4,58.2 656.2,56.45 654.75,54.25 L654.7,54.15 654.6,54 C653.4,51.65 653,48.85 653.35,45.65 L656.35,45.65zM667.5,43.6 C668.35,43.6 669.05,43.9 669.65,44.5 670.2,45.05 670.5,45.75 670.5,46.6 670.5,47.45 670.2,48.15 669.65,48.75 669.05,49.3 668.35,49.6 667.5,49.6 L667.15,49.6 C666.45,49.5 665.85,49.2 665.4,48.75 664.8,48.15 664.5,47.45 664.5,46.6 664.5,45.75 664.8,45.05 665.4,44.5 665.85,44 666.45,43.7 667.15,43.65 L667.5,43.6zM671.35,49 L671.4,48.9 C671.85,47.85 671.85,46.85 671.45,45.85 L678.55,45.65 681.55,45.65 C681.9,48.85 681.5,51.65 680.3,54 L680.25,54.1 680.15,54.25 C678.7,56.45 676.5,58.2 673.55,59.5 L672.05,56.9 668.7,50.65 C669.75,50.45 670.65,49.9 671.3,49.05 L671.35,49z"/>
          <path id="path1230" transform="matrix(1 0 0 1 -7.399 11.7)" fill="#000000" fill-opacity="1" d="M667.3,32 C664.65,32.15 662.05,33.15 659.45,35.1 L661,37.7 664.7,43.75 C665.4,42.9 666.3,42.4 667.4,42.3 L667.5,42.3 667.6,42.3 C668.65,42.4 669.55,42.9 670.25,43.75 L673.95,37.7 675.5,35.1 C672.85,33.15 670.25,32.1 667.65,32 L667.45,32 667.3,32z "/>
          <path id="path1233" transform="matrix(1 0 0 1 -7.399 11.7)" fill="#000000" fill-opacity="1" d="M656.35,45.65 L653.35,45.65 C653,48.85 653.4,51.65 654.6,54 L654.7,54.15 654.75,54.25 C656.2,56.45 658.4,58.2 661.35,59.5 L662.85,56.9 666.25,50.65 C665.15,50.45 664.3,49.9 663.65,49.05 L663.6,49 663.55,48.9 C663.1,47.85 663.05,46.85 663.45,45.85 L656.35,45.65z "/>
          <path id="path1236" transform="matrix(1 0 0 1 -7.399 11.7)" fill="#000000" fill-opacity="1" d="M667.5,43.6 L667.15,43.65 C666.45,43.7 665.85,44 665.4,44.5 664.8,45.05 664.5,45.75 664.5,46.6 664.5,47.45 664.8,48.15 665.4,48.75 665.85,49.2 666.45,49.5 667.15,49.6 L667.5,49.6 C668.35,49.6 669.05,49.3 669.65,48.75 670.2,48.15 670.5,47.45 670.5,46.6 670.5,45.75 670.2,45.05 669.65,44.5 669.05,43.9 668.35,43.6 667.5,43.6z "/>
          <path id="path1239" transform="matrix(1 0 0 1 -7.399 11.7)" fill="#000000" fill-opacity="1" d="M671.35,49 L671.3,49.05 C670.65,49.9 669.75,50.45 668.7,50.65 L672.05,56.9 673.55,59.5 C676.5,58.2 678.7,56.45 680.15,54.25 L680.25,54.1 680.3,54 C681.5,51.65 681.9,48.85 681.55,45.65 L678.55,45.65 671.45,45.85 C671.85,46.85 671.85,47.85 671.4,48.9 L671.35,49z "/>
        </g>
      </g>
    </symbol>
  </defs>
  <g id="sprite.__201571.__20(Items).__2F61">
    <g id="Layer.__213">
      <use xlink:href="#MovieClip.__2Fsprite.__201309" id="MovieClip.__2Fsprite.__201310" width="752.2" height="161.8" x="-15.5" y="-60.75" transform="matrix(0.5251312255859375 -0.192108154296875 0.192108154296875 0.5251312255859375 -120.649 120.8)" overflow="visible"/>
    </g>
  </g>
</svg>