<?xml version="1.0" encoding="utf-8"?>
<!-- Generator: flash2svg, http://dissentgraphics.com/tools/flash2svg -->
<svg xmlns:xlink="http://www.w3.org/1999/xlink" id="sprite.__201571.__20(Items).__2F83" image-rendering="optimizeSpeed" baseProfile="basic" version="1.1" style="background-color:#ffffff" x="0px" y="0px" width="550px" height="400px" viewBox="0 0 550 400" enable-background="new 0 0 550 400" xmlns="http://www.w3.org/2000/svg">
  <defs>
    <symbol id="MovieClip.__2Fsprite.__201327" viewBox="-28 -35.35 124.65 70.8">
      <g id="Layer.__291">
        <use xlink:href="#Graphic.__2Fshape.__201376" id="Graphic.__2Fshape.__201377" width="124.65" height="70.8" x="-28" y="-35.35" transform="matrix(1 0 0 1 0 0)" overflow="visible"/>
      </g>
    </symbol>
    <symbol id="Graphic.__2Fshape.__201376" viewBox="-28 -35.35 124.65 70.8">
      <g id="Layer.__329">
        <g id="shape1551" transform="matrix(1 0 0 1 -27.999 -35.349)">
          <path id="path1455" transform="matrix(1 0 0 1 27.95 35.3)" fill="#000000" fill-opacity="1" d="M95.2,-33.15 C94.65,-34.3 94,-35.05 93.2,-35.35 L85.05,-34.5 C84.2,-34.35 57.85,-26.3 6,-10.3 -17.4,-4.05 -28.7,0.85 -27.95,4.5 L-27.55,6.05 C-26.6,10.1 -25.8,12.45 -25.25,13.05 -23.4,14.9 -19.55,14.85 -13.7,12.95 L-5.2,10 1.1,29.4 C2,31.2 3.25,32.85 4.9,34.4 6.55,35.95 8.4,35.8 10.55,34 12.65,32.2 13.8,30.45 14.05,28.75 14.3,27.05 13.25,22.1 10.9,13.95 L8.4,5.9 8.55,5.85 8.5,5.7 9.45,5.4 9.5,5.6 26.8,0.45 50.25,-6.85 C74.4,-14.75 89.4,-20.7 95.35,-24.75 97.15,-27.7 97.1,-30.5 95.2,-33.15z M62.85,-22.1 L86.55,-29.2 90.95,-29.4 91.45,-29.35 91.5,-28.45 C91.5,-27.9 91.25,-27.3 90.8,-26.65 90.45,-26 62,-16.3 5.45,2.5 L4.6,2.9 4.5,2.8 4.5,2.95 4.05,3.3 C3.55,3.7 3.45,4.4 3.8,5.4 L4.4,7.2 8.1,17.8 C10.3,24.05 10.4,28.3 8.4,30.5 6.4,32.7 4.15,29.05 1.7,19.5 -0.8,9.95 -2.4,5.15 -3.05,5.1 -4.45,4.7 -10.45,6.3 -21.05,9.85 L-22.45,4.8 39.05,-15.3 Q40,-15.3 62.85,-22.1z"/>
          <path id="path1456" transform="matrix(1 0 0 1 27.95 35.3)" fill="#444444" fill-opacity="1" d="M62.85,-22.1 Q40,-15.3 39.05,-15.3 L-22.45,4.8 -21.05,9.85 C-10.45,6.3 -4.45,4.7 -3.05,5.1 -2.4,5.15 -0.8,9.95 1.7,19.5 4.15,29.05 6.4,32.7 8.4,30.5 10.4,28.3 10.3,24.05 8.1,17.8 L4.4,7.2 3.8,5.4 C3.45,4.4 3.55,3.7 4.05,3.3 L4.5,2.95 4.5,2.8 4.6,2.9 5.45,2.5 C62,-16.3 90.45,-26 90.8,-26.65 91.25,-27.3 91.5,-27.9 91.5,-28.45 L91.45,-29.35 90.95,-29.4 86.55,-29.2 62.85,-22.1z M-3.55,7.55 L-3.4,7.5 -3.4,7.25 -3.95,7.65 -3.7,7.6 -3.6,7.6 -3.55,7.55zM-3.7,7.6 L-3.95,7.7 -3.95,7.65 -3.7,7.6z"/>
        </g>
      </g>
    </symbol>
  </defs>
  <g id="sprite.__201571.__20(Items).__2F83">
    <g id="Layer.__235">
      <use xlink:href="#MovieClip.__2Fsprite.__201327" id="MovieClip.__2Fsprite.__201328" width="124.65" height="70.8" x="-28" y="-35.35" transform="matrix(1 0 0 1 94.15 60.9)" overflow="visible"/>
    </g>
  </g>
</svg>