<?xml version="1.0" encoding="UTF-8" standalone="no"?>
<svg xmlns:xlink="http://www.w3.org/1999/xlink" height="195.45px" width="219.1px" xmlns="http://www.w3.org/2000/svg">
  <g transform="matrix(1, 0, 0, 1, 107.05, 322.7)">
    <path d="M50.75 -270.65 Q53.2 -252.0 76.0 -237.85 82.7 -233.7 91.35 -229.9 L98.2 -226.8 84.4 -227.2 84.3 -220.55 84.25 -218.2 Q84.15 -212.5 84.6 -210.0 84.95 -208.15 90.4 -195.3 L94.3 -185.55 Q95.6 -182.05 95.6 -181.15 95.6 -172.7 85.35 -162.9 82.0 -159.7 72.0 -152.6 66.25 -148.95 59.35 -145.5 L51.9 -142.25 Q63.7 -142.95 73.55 -148.45 76.2 -149.95 81.5 -152.45 L78.0 -146.7 Q91.85 -152.0 98.2 -162.3 104.55 -172.6 103.2 -183.1 L102.3 -186.05 Q104.4 -190.95 104.7 -197.05 106.8 -244.6 83.75 -274.35 60.65 -304.1 28.1 -311.65 -4.45 -319.25 -23.3 -313.95 -42.2 -308.65 -58.05 -297.15 -73.95 -285.65 -84.3 -271.7 -94.7 -257.8 -97.8 -240.0 -100.9 -222.25 -99.7 -202.3 -98.55 -182.35 -101.4 -167.1 -104.25 -151.85 -74.4 -145.65 L-74.35 -145.65 Q-78.0 -149.2 -80.25 -152.95 -81.15 -154.55 -78.8 -154.75 -71.65 -148.55 -63.9 -145.05 -56.15 -141.55 -50.5 -140.5 -58.75 -147.3 -63.15 -158.35 -67.55 -169.4 -59.95 -184.0 -52.35 -198.6 -57.45 -216.8 -61.3 -215.6 -65.4 -215.1 -34.8 -242.3 -28.25 -260.6 -24.6 -252.25 -33.95 -238.25 -27.95 -239.0 -12.25 -251.2 3.4 -263.4 7.1 -272.1 L7.75 -273.7 Q10.45 -255.45 -12.6 -242.7 -17.2 -240.15 -18.15 -239.9 18.55 -246.85 27.5 -255.9 33.15 -261.6 35.75 -264.85 36.2 -265.0 35.8 -258.5 35.4 -252.05 32.9 -245.85 30.35 -239.7 28.2 -237.7 40.2 -243.85 46.9 -260.2 49.6 -266.85 50.75 -270.65 M51.15 -253.6 Q49.95 -249.85 43.65 -241.4 37.3 -233.0 29.7 -231.45 22.05 -229.95 17.35 -232.3 23.45 -239.75 26.8 -246.65 22.25 -243.45 15.6 -240.95 -5.6 -233.1 -28.2 -233.85 L-28.5 -233.85 -40.85 -226.95 Q-46.75 -221.35 -53.55 -218.3 -45.3 -200.6 -52.85 -183.8 -60.5 -167.05 -59.1 -165.65 -56.3 -159.5 -53.5 -155.85 L-49.15 -150.35 Q-36.2 -135.0 -1.4 -135.0 9.35 -135.0 24.9 -139.55 39.95 -143.95 54.3 -150.95 69.25 -158.25 78.25 -165.9 88.1 -174.3 88.1 -181.0 88.1 -182.2 86.25 -186.45 L82.1 -195.95 Q76.1 -211.05 76.1 -224.15 L76.1 -229.7 Q63.8 -234.8 54.3 -248.15 51.6 -251.95 51.15 -253.6 M101.75 -156.6 Q90.6 -142.95 74.35 -141.9 72.65 -139.9 62.55 -137.15 52.45 -134.45 42.85 -138.25 33.95 -134.9 24.5 -132.4 4.95 -127.25 -12.15 -127.25 -27.85 -127.25 -42.2 -135.05 -54.4 -132.4 -65.8 -139.15 -79.8 -139.4 -85.75 -141.85 -109.45 -148.75 -106.8 -166.9 -104.15 -185.05 -106.3 -220.05 -108.45 -255.05 -86.2 -280.9 -63.95 -306.8 -45.05 -314.3 -26.15 -321.85 -10.6 -322.7 63.0 -322.3 91.75 -277.05 120.5 -231.8 108.55 -183.7 112.6 -169.9 101.75 -156.6" fill="#000000" fill-rule="evenodd" stroke="none"/>
  </g>
</svg>
