<?xml version="1.0" encoding="UTF-8" standalone="no"?>
<svg xmlns:xlink="http://www.w3.org/1999/xlink" height="195.65px" width="234.25px" xmlns="http://www.w3.org/2000/svg">
  <g transform="matrix(1, 0, 0, 1, 116.9, 322.9)">
    <path d="M20.35 -313.35 Q4.0 -316.3 -11.95 -314.85 -36.05 -312.7 -53.35 -303.0 -71.3 -292.9 -84.65 -273.2 -97.95 -253.45 -100.45 -237.95 -102.9 -222.45 -99.85 -209.55 -96.85 -196.65 -105.95 -184.3 -115.1 -172.0 -105.35 -151.0 -108.15 -159.25 -102.75 -166.45 -102.0 -167.45 -101.15 -167.65 -103.1 -157.5 -98.5 -149.3 -93.95 -141.1 -89.05 -142.85 -92.5 -146.8 -95.05 -153.1 -98.55 -161.7 -93.0 -166.25 L-92.9 -166.5 Q-92.25 -154.1 -84.2 -147.75 -76.2 -141.45 -68.45 -142.85 L-69.85 -144.3 Q-79.25 -154.15 -77.05 -167.95 L-76.75 -169.7 -74.9 -171.35 Q-73.75 -172.15 -72.95 -172.35 -72.2 -154.65 -64.5 -147.85 -56.85 -141.1 -50.05 -141.1 -59.5 -154.6 -59.4 -156.2 -64.5 -165.45 -68.25 -175.35 -71.6 -184.2 -65.85 -188.85 -63.55 -176.05 -56.65 -162.0 L-55.65 -159.85 Q-52.05 -173.7 -54.7 -196.7 -56.2 -209.6 -55.95 -213.7 -65.15 -207.1 -75.55 -204.4 -67.6 -220.5 -71.1 -239.75 -74.9 -260.8 -56.45 -265.6 -66.35 -253.5 -64.95 -239.15 -63.9 -228.05 -64.1 -216.5 -45.75 -231.35 -37.05 -254.3 -32.05 -267.5 -31.75 -277.1 -24.45 -261.2 -32.75 -242.5 -22.1 -249.2 -13.35 -259.95 -6.8 -268.05 -2.55 -276.3 -0.7 -268.3 -9.7 -251.2 4.95 -262.7 11.0 -272.45 17.05 -282.25 23.4 -289.05 L19.15 -268.55 Q16.0 -254.7 24.1 -244.7 33.65 -254.3 34.1 -268.55 34.4 -278.75 33.7 -287.65 41.25 -267.0 42.75 -258.7 44.2 -250.45 50.6 -242.7 L49.55 -253.2 Q49.05 -258.75 51.35 -263.45 L51.75 -263.85 Q55.6 -255.15 63.3 -245.6 71.0 -236.1 79.35 -235.6 76.7 -239.75 75.8 -242.35 74.85 -245.1 75.95 -247.6 76.5 -247.65 81.35 -242.8 86.2 -237.95 87.05 -228.85 L84.35 -229.0 84.4 -228.0 84.25 -218.2 Q84.15 -212.5 84.6 -210.0 84.95 -208.15 90.4 -195.3 L94.3 -185.55 Q95.6 -182.05 95.6 -181.15 95.6 -173.25 86.6 -164.1 94.25 -151.7 84.5 -142.1 99.7 -149.45 99.05 -162.5 98.35 -175.55 99.95 -177.05 109.45 -165.9 102.55 -152.15 119.5 -173.25 97.9 -199.35 95.45 -202.3 96.45 -206.6 104.85 -242.9 88.0 -269.1 73.15 -292.1 37.95 -308.5 31.95 -311.3 20.35 -313.35 M70.85 -300.4 Q96.25 -281.3 102.65 -250.25 105.3 -237.35 104.8 -223.4 103.7 -209.7 103.55 -205.0 103.5 -203.25 107.6 -196.15 112.85 -186.95 114.9 -181.85 121.3 -165.95 110.85 -153.7 100.4 -141.45 97.1 -144.05 89.7 -135.7 81.25 -139.35 L77.6 -136.95 Q67.4 -130.85 59.75 -133.4 58.0 -131.95 50.6 -131.25 43.2 -130.55 35.2 -135.55 29.9 -133.8 24.5 -132.4 4.95 -127.25 -12.15 -127.25 -28.1 -127.25 -42.7 -135.35 -54.9 -132.9 -64.2 -139.1 -76.7 -133.55 -85.15 -139.3 -94.0 -135.15 -103.0 -144.85 L-101.2 -141.6 Q-103.6 -142.15 -104.2 -142.8 -108.75 -146.25 -111.95 -151.05 -120.6 -164.1 -114.2 -179.25 -109.25 -190.95 -102.65 -201.2 -107.4 -214.5 -106.45 -229.05 -103.25 -279.85 -66.4 -303.4 -31.9 -325.55 6.8 -322.55 45.45 -319.55 70.85 -300.4 M12.35 -262.95 Q4.75 -249.65 -6.3 -245.55 -17.35 -241.5 -16.75 -242.85 L-15.55 -244.55 -16.65 -243.65 Q-27.9 -234.4 -38.55 -231.4 L-41.7 -227.35 Q-46.85 -221.1 -52.5 -216.4 -49.65 -204.15 -46.95 -187.3 -45.7 -179.55 -47.0 -170.95 -48.4 -161.5 -52.65 -155.05 L-49.15 -150.35 Q-36.2 -135.0 -1.4 -135.0 9.35 -135.0 24.9 -139.55 39.95 -143.95 54.3 -150.95 69.25 -158.25 78.25 -165.9 88.1 -174.3 88.1 -181.0 88.1 -182.2 86.25 -186.45 L82.1 -195.95 Q76.1 -211.05 76.1 -224.15 L76.1 -229.6 Q67.55 -231.6 60.45 -239.3 58.9 -241.0 57.05 -241.8 57.05 -239.6 58.2 -232.4 42.75 -235.95 37.6 -250.8 31.2 -237.1 21.95 -229.4 21.6 -232.15 20.3 -236.8 18.25 -243.05 14.35 -249.7 11.05 -255.45 12.35 -262.95 M72.0 -152.6 L66.55 -149.35 Q68.75 -142.8 65.4 -138.1 82.55 -143.85 82.3 -151.65 82.05 -159.5 80.55 -158.9 L72.0 -152.6 M43.05 -137.6 Q50.3 -133.65 56.3 -137.9 62.3 -142.2 61.3 -146.45 L59.35 -145.5 Q48.15 -139.85 43.05 -137.6" fill="#000000" fill-rule="evenodd" stroke="none"/>
  </g>
</svg>
