<?xml version="1.0" encoding="UTF-8" standalone="no"?>
<svg xmlns:xlink="http://www.w3.org/1999/xlink" height="253.5px" width="247.35px" xmlns="http://www.w3.org/2000/svg">
  <g transform="matrix(1, 0, 0, 1, 124.45, 372.55)">
    <path d="M84.45 -339.9 Q71.2 -349.7 62.5 -348.1 53.8 -346.55 48.5 -344.85 48.85 -350.65 42.6 -358.6 42.7 -349.1 37.75 -343.45 32.75 -337.85 20.95 -332.65 9.1 -327.5 6.25 -322.65 14.4 -322.4 22.3 -320.95 23.75 -324.05 34.55 -329.1 46.3 -334.6 63.15 -334.45 74.6 -334.45 79.1 -326.85 81.85 -322.15 81.45 -318.1 80.35 -306.1 70.85 -298.9 76.3 -294.65 80.55 -289.95 L86.2 -297.65 Q93.85 -307.85 95.15 -315.4 97.65 -330.1 84.45 -339.9 M101.4 -310.7 Q99.55 -305.2 93.55 -296.25 88.95 -289.5 84.65 -286.5 92.2 -286.5 96.85 -282.25 99.85 -279.5 103.05 -272.9 106.5 -265.8 108.4 -263.6 111.0 -260.65 122.9 -257.6 118.6 -250.05 101.15 -253.2 106.05 -245.8 108.1 -234.35 110.1 -222.95 106.9 -212.05 103.7 -201.2 103.1 -198.35 102.45 -195.6 102.9 -193.15 103.35 -190.75 105.95 -185.0 108.5 -179.25 113.95 -171.2 119.4 -163.2 118.95 -150.65 118.5 -138.1 112.7 -133.55 106.9 -129.0 102.3 -129.7 103.2 -130.1 103.9 -133.25 104.6 -136.45 104.55 -140.35 104.35 -150.55 99.55 -153.4 98.5 -146.4 94.2 -140.8 89.9 -135.25 78.65 -130.25 67.35 -125.25 77.15 -122.6 L72.3 -121.8 72.05 -121.8 71.7 -121.8 Q64.05 -121.8 64.05 -131.55 64.05 -132.5 64.3 -133.05 54.85 -124.55 46.7 -122.55 48.05 -125.2 46.2 -128.65 45.15 -130.6 44.65 -132.2 L44.4 -132.1 Q34.55 -122.65 17.1 -119.05 18.45 -122.5 16.85 -124.05 L11.75 -129.55 Q-0.75 -127.25 -12.15 -127.25 L-21.95 -128.0 Q-27.6 -124.3 -36.5 -124.8 -45.4 -125.3 -46.2 -126.15 L-43.6 -122.55 Q-50.05 -121.4 -57.85 -121.6 -65.7 -121.85 -73.0 -128.85 -80.35 -135.9 -80.05 -139.7 -81.65 -138.6 -82.1 -135.05 -82.65 -130.85 -79.35 -129.15 L-84.1 -129.6 Q-89.55 -130.35 -94.25 -132.0 -109.15 -137.25 -111.15 -149.4 -113.25 -144.85 -111.9 -140.7 -114.1 -140.3 -117.15 -142.6 -120.4 -145.05 -122.4 -149.0 -127.65 -159.4 -119.6 -169.75 L-115.6 -174.3 Q-112.15 -178.25 -109.75 -181.75 -102.25 -192.75 -103.1 -201.95 L-104.3 -211.85 Q-105.05 -218.6 -104.95 -224.1 -104.75 -236.8 -99.05 -251.2 -94.65 -262.2 -89.85 -271.25 L-91.7 -272.8 Q-95.5 -276.35 -98.35 -282.15 -105.55 -296.9 -101.8 -314.8 -100.85 -319.5 -96.6 -323.0 -111.3 -330.6 -113.1 -334.95 -107.6 -335.25 -104.15 -336.5 -97.5 -338.95 -94.05 -342.9 -93.35 -343.7 -91.5 -346.45 -89.85 -348.95 -88.45 -350.35 -83.9 -354.75 -75.3 -354.75 -63.85 -354.75 -57.45 -350.55 -58.05 -353.15 -57.45 -366.7 L-55.2 -364.05 -43.3 -355.55 Q-30.2 -346.65 -23.1 -344.7 -13.4 -342.05 -5.55 -334.1 0.25 -328.2 1.4 -323.6 1.6 -327.65 3.25 -329.85 4.75 -331.85 8.85 -333.75 L17.85 -337.95 Q24.25 -341.3 28.15 -344.4 32.05 -347.5 35.25 -355.85 38.45 -364.2 37.9 -372.55 50.0 -364.9 53.0 -352.35 58.3 -354.55 62.55 -354.55 85.1 -354.55 96.6 -336.3 100.35 -330.4 101.8 -323.3 103.2 -316.2 101.4 -310.7 M29.15 -319.5 Q48.25 -314.7 65.8 -302.6 L67.9 -304.8 Q72.45 -309.5 73.95 -313.05 75.45 -316.65 75.7 -318.85 76.0 -321.65 72.85 -324.8 68.2 -329.45 58.75 -328.5 43.95 -327.0 38.45 -324.45 32.2 -321.55 29.15 -319.5 M64.5 -295.25 Q38.15 -314.7 1.6 -315.15 -11.2 -315.3 -37.85 -308.15 -64.4 -301.1 -81.9 -271.35 -89.45 -258.4 -93.75 -245.5 -98.05 -232.65 -97.5 -217.9 L-96.75 -201.7 -93.05 -205.75 Q-93.15 -190.25 -104.6 -174.55 L-112.05 -164.4 Q-115.2 -159.35 -114.6 -155.85 -111.2 -161.45 -101.1 -167.1 -105.15 -158.55 -103.9 -150.4 -102.65 -142.3 -88.4 -137.05 -86.1 -149.65 -76.9 -154.15 -77.1 -149.5 -71.85 -139.3 -66.65 -129.15 -54.65 -127.9 L-57.0 -136.8 Q-50.4 -132.7 -33.65 -131.15 -45.95 -137.2 -46.75 -137.75 -49.2 -139.35 -54.15 -143.45 L-54.15 -144.8 -59.85 -137.1 Q-61.15 -138.3 -57.05 -148.5 -52.35 -160.3 -52.35 -164.55 -52.35 -171.05 -56.4 -178.6 -60.45 -186.15 -60.45 -194.1 -58.15 -209.8 -56.5 -216.15 -58.45 -215.75 -62.0 -217.3 -66.85 -219.4 -67.5 -224.1 L-60.75 -223.4 Q-56.75 -223.4 -53.45 -225.55 -44.75 -231.15 -37.0 -254.05 -32.35 -251.15 -30.95 -241.85 L-30.45 -233.1 Q-24.1 -235.7 -18.2 -247.05 -13.8 -255.55 -11.7 -264.15 L-11.35 -264.45 -6.6 -249.1 Q-2.85 -237.45 -1.2 -227.35 2.85 -230.65 7.05 -243.0 11.2 -255.4 10.3 -265.7 L10.15 -267.3 Q14.15 -260.25 23.85 -249.4 34.95 -237.0 44.3 -234.85 L40.55 -258.8 Q44.55 -248.8 54.1 -243.05 57.3 -241.15 61.85 -239.3 L68.25 -236.8 Q73.05 -234.45 76.1 -232.2 78.65 -230.3 79.95 -228.45 86.35 -230.55 81.35 -245.2 89.0 -237.55 87.65 -229.3 87.2 -226.7 85.8 -224.05 L84.3 -221.35 84.25 -218.2 Q84.15 -212.5 84.6 -210.0 84.95 -208.15 90.4 -195.3 L94.3 -185.55 Q95.6 -182.05 95.6 -181.15 95.6 -172.7 85.35 -162.9 82.0 -159.7 72.0 -152.6 66.25 -148.95 59.35 -145.5 L55.45 -143.6 Q52.3 -141.5 51.15 -140.2 49.95 -138.95 48.8 -136.85 L51.1 -132.6 Q56.9 -134.95 71.7 -148.8 L71.75 -148.8 Q69.9 -142.75 69.4 -131.6 70.5 -133.0 71.55 -133.6 L78.25 -136.95 Q83.85 -139.75 86.55 -141.65 90.8 -144.6 92.25 -149.4 L96.9 -171.6 99.65 -161.1 101.15 -160.15 105.25 -157.35 Q110.9 -152.5 111.15 -140.55 113.65 -144.9 113.55 -152.2 113.45 -159.55 108.35 -168.35 103.25 -177.2 100.4 -182.55 97.55 -187.95 96.7 -191.05 95.85 -194.2 99.15 -204.15 L95.0 -201.8 Q97.15 -204.9 100.25 -213.4 103.35 -221.9 102.2 -228.5 101.05 -235.1 96.35 -246.3 91.8 -257.05 89.95 -264.9 L93.3 -262.7 Q95.8 -260.85 108.8 -258.5 100.3 -263.55 98.4 -269.15 96.5 -274.75 93.45 -277.0 90.4 -279.2 87.05 -279.9 86.9 -277.4 86.55 -276.6 86.1 -275.35 84.55 -274.35 83.5 -276.6 79.35 -281.5 73.0 -289.0 64.5 -295.25 M4.4 -224.75 Q-1.85 -213.4 -7.65 -213.45 -3.5 -224.8 -11.75 -247.1 -13.75 -241.8 -15.75 -238.8 -24.05 -226.5 -34.65 -226.5 L-37.8 -227.1 Q-35.6 -228.15 -35.55 -233.6 -35.55 -235.8 -36.0 -239.35 -38.1 -234.6 -40.8 -230.2 -45.95 -221.85 -51.4 -218.35 L-51.15 -217.35 Q-54.6 -199.5 -54.6 -194.4 -54.6 -189.0 -50.45 -180.35 -46.35 -171.7 -46.35 -163.95 -46.35 -155.95 -49.25 -151.2 L-49.55 -150.8 -49.15 -150.35 Q-36.2 -135.0 -1.4 -135.0 9.35 -135.0 24.9 -139.55 39.95 -143.95 54.3 -150.95 69.25 -158.25 78.25 -165.9 88.1 -174.3 88.1 -181.0 88.1 -182.2 86.25 -186.45 L82.1 -195.95 Q78.1 -205.95 76.8 -215.1 L76.05 -215.25 76.0 -215.55 76.5 -217.05 Q76.95 -218.9 76.8 -220.65 76.4 -226.35 70.1 -229.4 L55.65 -235.55 Q53.3 -236.5 49.25 -238.7 50.7 -232.35 55.6 -228.3 34.2 -227.6 19.1 -243.7 16.95 -246.0 15.05 -248.45 L12.55 -241.35 Q10.6 -236.15 4.4 -224.75 M29.75 -129.15 Q35.75 -131.6 41.05 -137.5 24.85 -132.5 18.55 -131.15 19.4 -128.8 22.25 -126.95 L22.9 -126.55 29.75 -129.15 M-53.0 -335.3 Q-41.65 -337.05 -28.3 -329.65 -23.35 -326.95 -16.4 -321.4 L-16.4 -321.35 -5.2 -322.4 -5.45 -322.85 Q-8.85 -328.75 -14.1 -332.5 -19.4 -336.3 -24.15 -338.05 L-32.3 -341.2 Q-35.7 -342.6 -50.4 -351.4 -51.9 -345.7 -50.35 -343.05 -64.45 -348.3 -75.45 -348.3 -81.65 -348.3 -91.25 -337.35 -95.9 -331.35 -100.25 -331.6 -97.5 -328.8 -92.1 -326.25 -88.65 -324.65 -84.85 -325.6 -87.7 -322.3 -90.65 -319.6 -93.6 -316.9 -95.25 -313.3 -96.9 -309.7 -96.25 -297.7 -95.7 -287.65 -86.05 -277.85 -83.4 -282.25 -80.6 -286.1 -83.6 -288.2 -84.35 -294.65 -85.2 -302.6 -81.95 -312.65 -78.75 -322.7 -71.55 -328.1 -64.35 -333.55 -53.0 -335.3 M-66.6 -323.55 Q-72.5 -319.75 -75.2 -312.2 -77.95 -304.65 -78.05 -297.65 -78.1 -293.25 -77.15 -290.6 -73.1 -295.55 -68.8 -299.4 -51.6 -314.75 -24.8 -320.0 L-34.4 -324.95 Q-46.85 -330.6 -53.8 -329.0 -60.75 -327.4 -66.6 -323.55 M-47.65 -128.05 L-47.4 -128.15 -47.85 -128.25 -47.65 -128.05" fill="#000000" fill-rule="evenodd" stroke="none"/>
  </g>
</svg>
