<?xml version="1.0" encoding="UTF-8" standalone="no"?>
<svg xmlns:xlink="http://www.w3.org/1999/xlink" height="204.6px" width="220.75px" xmlns="http://www.w3.org/2000/svg">
  <g transform="matrix(1, 0, 0, 1, 94.05, 328.1)">
    <path d="M14.0 -328.1 Q38.05 -328.1 76.35 -300.15 89.9 -290.3 100.9 -280.05 110.75 -270.8 110.75 -268.95 110.75 -267.15 108.7 -266.35 105.6 -265.2 96.4 -265.05 110.85 -243.3 117.0 -230.85 126.7 -211.15 126.7 -196.25 126.55 -168.6 120.4 -168.6 L118.45 -168.95 117.05 -169.8 Q114.3 -190.6 99.85 -205.85 L101.15 -201.3 106.95 -180.85 111.25 -167.95 112.65 -163.35 Q115.5 -153.15 115.5 -146.3 113.85 -124.45 107.2 -124.45 105.1 -124.45 102.85 -132.75 100.15 -142.7 98.3 -145.1 90.2 -126.35 84.65 -126.35 82.1 -126.35 79.2 -131.7 77.7 -134.45 76.2 -137.95 67.0 -123.5 61.5 -123.5 59.0 -123.5 56.6 -129.75 54.7 -134.8 54.7 -136.3 54.7 -137.95 54.95 -139.5 L55.9 -140.15 Q56.85 -140.8 58.3 -140.8 62.8 -140.8 62.8 -134.3 66.85 -139.7 67.95 -140.9 72.95 -146.5 76.2 -146.5 80.45 -146.5 82.4 -143.2 83.85 -139.35 84.65 -138.3 86.5 -139.35 88.05 -142.1 L90.45 -147.35 Q93.5 -154.0 98.3 -154.0 102.05 -154.0 105.05 -149.1 L107.9 -142.95 108.15 -142.7 108.2 -142.85 108.4 -147.1 Q108.4 -157.8 100.4 -178.4 L96.8 -187.75 94.85 -193.05 Q92.35 -200.55 92.35 -205.05 L92.4 -211.05 92.7 -212.4 84.5 -218.5 84.25 -218.65 84.25 -218.5 84.25 -218.2 Q84.15 -212.5 84.6 -210.0 84.95 -208.15 90.4 -195.3 L93.9 -186.65 94.3 -185.55 Q95.6 -182.05 95.6 -181.15 95.6 -172.7 85.35 -162.9 82.0 -159.7 72.0 -152.6 66.25 -148.95 59.35 -145.5 L54.5 -143.15 Q40.25 -136.55 24.5 -132.4 4.95 -127.25 -12.15 -127.25 -25.95 -127.25 -38.75 -133.3 -39.15 -126.35 -44.15 -126.35 -46.1 -126.35 -51.25 -129.25 -55.8 -131.8 -56.85 -132.85 L-59.7 -130.25 Q-60.95 -129.2 -62.9 -129.2 -65.85 -129.2 -71.65 -135.25 L-77.3 -141.3 Q-81.35 -141.3 -85.5 -138.0 -89.6 -134.75 -90.25 -134.75 -95.1 -134.75 -93.8 -140.6 L-91.9 -167.75 -93.8 -220.25 Q-93.8 -241.2 -87.85 -260.55 -82.05 -279.4 -71.5 -294.05 -60.85 -308.8 -47.05 -316.9 -32.65 -325.35 -16.85 -325.35 -12.05 -325.35 -9.7 -324.5 -3.85 -327.45 9.35 -327.75 L14.0 -328.1 M17.55 -320.85 Q2.3 -320.85 -4.4 -318.6 -6.0 -318.05 -7.8 -317.05 -9.1 -316.35 -9.85 -316.35 -13.75 -316.35 -13.75 -319.65 L-13.55 -320.9 -18.2 -319.6 Q-33.7 -314.75 -57.35 -299.25 -63.6 -295.05 -69.0 -286.85 -70.8 -284.2 -76.8 -273.1 -85.2 -257.8 -86.55 -245.6 -87.05 -240.95 -86.9 -233.85 L-86.65 -220.15 Q-84.75 -171.45 -84.4 -147.25 -77.1 -149.35 -75.25 -149.35 -72.35 -149.35 -68.6 -143.65 -64.8 -137.95 -62.9 -137.95 -62.65 -137.95 -60.25 -139.85 -57.9 -141.75 -56.4 -141.75 -53.1 -141.75 -51.35 -138.5 -49.6 -135.25 -47.25 -135.25 -46.3 -135.25 -45.5 -136.95 L-46.75 -137.75 Q-50.4 -140.05 -59.3 -147.95 -60.2 -148.05 -61.85 -150.2 L-63.1 -151.3 -63.1 -152.0 Q-66.15 -156.65 -71.0 -166.55 -79.65 -184.15 -79.65 -185.45 L-79.4 -188.65 Q-78.45 -189.75 -76.1 -189.75 -74.6 -189.75 -69.45 -180.3 -64.9 -171.9 -63.25 -167.4 L-62.9 -167.2 -62.9 -167.35 -62.7 -179.5 Q-62.55 -188.95 -62.05 -195.15 -61.3 -204.05 -59.6 -208.8 -66.6 -206.25 -72.9 -206.25 -78.1 -206.25 -76.8 -213.15 -66.85 -249.1 -61.95 -249.1 -59.5 -249.1 -58.75 -246.5 L-58.5 -243.65 Q-58.5 -241.95 -62.75 -232.05 L-69.55 -216.1 -69.8 -215.4 -69.45 -215.45 Q-55.45 -217.6 -46.8 -223.9 -45.3 -225.0 -40.4 -229.25 -36.7 -232.45 -33.8 -234.05 -32.25 -234.85 -25.95 -243.75 -23.3 -247.5 -21.35 -249.5 L-21.35 -249.85 Q-20.8 -254.7 -17.8 -254.7 -14.55 -254.7 -13.55 -244.35 L-11.95 -229.05 Q-9.2 -236.55 1.15 -251.25 11.55 -266.0 14.1 -266.0 18.15 -266.0 18.3 -253.3 L18.2 -242.25 Q18.2 -235.7 18.75 -232.35 L19.0 -232.35 Q19.0 -241.0 21.55 -252.0 24.8 -266.0 29.55 -266.0 L29.8 -266.0 30.0 -266.0 30.25 -265.95 Q32.8 -265.75 33.4 -263.9 36.1 -261.6 40.6 -256.7 L50.8 -245.8 Q53.35 -243.85 65.35 -237.55 L75.75 -232.0 76.1 -231.8 76.1 -232.75 Q76.3 -235.15 81.6 -234.85 84.35 -231.45 84.4 -228.0 L84.4 -226.95 Q96.8 -218.8 106.0 -208.95 115.2 -199.15 119.45 -189.6 L119.7 -197.8 Q119.7 -211.1 103.2 -240.65 94.9 -255.45 86.65 -268.0 86.65 -270.2 87.3 -270.9 89.2 -272.95 96.4 -273.1 L84.15 -283.6 Q73.05 -293.2 64.4 -299.65 35.9 -320.85 17.55 -320.85 M30.25 -249.5 Q26.7 -237.35 26.1 -232.35 L25.2 -214.95 Q24.25 -203.4 20.65 -203.4 15.75 -203.4 12.85 -221.55 10.55 -235.8 10.55 -250.4 -1.1 -237.1 -6.6 -219.95 L-9.4 -210.0 Q-10.4 -206.25 -11.25 -206.25 -15.0 -206.25 -18.55 -224.75 L-20.65 -237.85 Q-26.3 -231.2 -34.1 -224.65 -43.25 -217.0 -51.5 -212.5 L-51.25 -211.9 Q-50.9 -210.8 -50.9 -209.2 -50.9 -204.55 -53.25 -193.95 -55.65 -183.4 -55.65 -177.85 -54.9 -166.65 -55.0 -160.1 L-55.05 -158.45 -49.15 -150.35 Q-36.2 -135.0 -1.4 -135.0 9.35 -135.0 24.9 -139.55 39.95 -143.95 54.3 -150.95 69.25 -158.25 78.25 -165.9 88.1 -174.3 88.1 -181.0 88.1 -182.2 86.25 -186.45 L82.1 -195.95 Q76.2 -210.8 76.1 -223.75 72.6 -225.8 68.7 -227.85 L53.05 -235.9 Q44.3 -240.35 39.55 -243.5 33.95 -247.25 30.75 -251.25 L30.25 -249.5" fill="#000000" fill-rule="evenodd" stroke="none"/>
  </g>
</svg>
