<?xml version="1.0" encoding="UTF-8" standalone="no"?>
<svg xmlns:xlink="http://www.w3.org/1999/xlink" height="203.65px" width="232.8px" xmlns="http://www.w3.org/2000/svg">
  <g transform="matrix(1, 0, 0, 1, 115.5, 325.25)">
    <path d="M4.25 -317.0 Q0.9 -318.0 -2.45 -318.0 -29.85 -318.0 -35.45 -314.8 L-37.65 -312.6 Q-38.5 -311.6 -41.3 -311.6 L-43.0 -311.8 -43.3 -311.65 Q-62.55 -300.7 -74.8 -285.8 -82.95 -275.85 -87.2 -260.55 L-87.95 -257.55 Q-85.35 -257.55 -84.4 -255.85 -83.95 -255.0 -83.95 -253.85 -83.95 -253.1 -86.15 -250.9 L-91.0 -246.0 Q-98.05 -238.3 -98.05 -231.2 -98.05 -228.25 -96.15 -222.7 -94.25 -217.15 -94.25 -214.3 -94.25 -210.2 -94.5 -209.4 -95.05 -207.8 -98.55 -203.15 -95.2 -200.45 -95.2 -198.3 -95.2 -197.3 -96.8 -194.05 L-100.35 -186.8 Q-105.55 -175.4 -105.55 -165.75 -105.55 -160.7 -104.35 -157.35 -102.7 -152.8 -98.05 -148.2 -97.85 -148.3 -95.3 -154.9 -91.95 -161.5 -87.95 -161.5 -79.35 -143.4 -74.5 -136.35 L-74.45 -136.25 -72.2 -133.35 -69.95 -134.95 -67.95 -136.4 -67.9 -136.4 Q-63.0 -139.85 -61.6 -139.85 -58.45 -139.85 -54.7 -135.45 -51.15 -130.6 -49.95 -129.75 L-50.15 -134.0 -49.85 -135.05 Q-50.0 -136.0 -49.6 -137.25 -49.6 -138.6 -49.25 -139.55 -53.2 -142.5 -60.1 -148.65 -64.25 -138.95 -68.0 -136.5 -69.3 -135.7 -70.5 -135.7 L-72.45 -135.95 -73.85 -136.8 -74.1 -140.1 Q-74.1 -142.1 -71.25 -145.6 -68.4 -149.1 -68.4 -152.7 -68.4 -158.3 -72.05 -162.2 -74.0 -164.25 -80.15 -168.1 -85.85 -171.7 -88.25 -174.7 -91.9 -179.4 -91.9 -186.3 L-89.2 -194.7 Q-85.4 -202.9 -79.9 -202.9 L-78.0 -202.6 Q-77.6 -202.1 -76.95 -201.75 -76.35 -201.75 -76.35 -199.35 -76.35 -198.9 -80.6 -193.8 -84.9 -188.7 -84.9 -186.3 -84.9 -182.6 -82.55 -179.55 -80.85 -177.4 -76.75 -174.35 L-69.45 -168.7 Q-66.05 -165.7 -63.7 -162.45 -63.5 -163.85 -62.5 -164.75 -62.0 -165.2 -61.4 -165.45 L-59.95 -172.5 Q-59.95 -174.4 -61.8 -180.95 -63.65 -187.5 -63.65 -189.05 -61.9 -201.7 -59.75 -210.35 -61.25 -208.15 -61.95 -208.15 L-63.9 -208.45 -65.3 -209.35 -65.55 -220.95 Q-65.55 -230.6 -65.35 -231.9 -64.05 -240.55 -58.3 -240.55 -56.1 -240.55 -55.2 -238.9 -54.7 -238.0 -54.7 -237.0 -54.7 -235.95 -56.45 -233.1 L-58.5 -229.5 -58.5 -229.05 -58.25 -229.2 -18.7 -257.15 Q-16.6 -260.4 -14.1 -260.4 L-12.95 -260.25 Q-10.65 -259.75 -10.55 -256.7 L-10.55 -256.65 -10.55 -256.35 Q-10.55 -253.6 -13.15 -250.75 L-14.3 -248.2 Q-18.05 -239.65 -18.05 -234.15 -18.05 -230.15 -15.9 -227.4 -12.3 -230.25 -3.45 -242.15 L2.15 -249.35 Q2.85 -252.8 5.55 -252.8 L5.9 -252.8 7.45 -252.5 8.65 -251.75 8.95 -251.0 Q9.4 -250.15 9.5 -248.85 L9.1 -243.9 Q14.05 -245.8 22.0 -250.05 L22.05 -250.8 Q22.25 -250.8 23.05 -251.3 23.9 -251.85 25.25 -251.85 L27.2 -251.55 28.35 -250.8 Q28.85 -249.95 28.85 -247.55 L28.1 -246.85 30.3 -241.0 Q34.5 -229.2 38.45 -226.45 L43.65 -233.25 Q47.55 -238.05 49.0 -241.05 49.7 -242.35 49.2 -249.3 49.3 -252.5 50.4 -254.1 51.5 -255.65 53.55 -255.65 L57.35 -251.35 63.85 -240.55 64.25 -246.85 Q65.15 -251.85 69.1 -251.85 72.85 -251.85 73.15 -249.15 L72.75 -246.15 Q72.75 -243.95 76.2 -240.35 79.65 -236.8 79.65 -236.15 L79.4 -234.85 81.6 -234.85 Q84.35 -231.45 84.4 -228.0 L84.25 -218.2 Q84.15 -212.5 84.6 -210.0 84.95 -208.15 90.4 -195.3 L94.3 -185.55 Q95.6 -182.05 95.6 -181.15 95.6 -172.7 85.35 -162.9 82.0 -159.7 72.0 -152.6 66.25 -148.95 59.35 -145.5 L56.6 -144.15 54.95 -143.35 56.85 -143.65 Q60.0 -143.65 60.55 -142.3 L61.6 -139.85 Q62.4 -140.0 66.55 -144.25 L69.05 -146.6 69.1 -147.25 70.15 -147.8 Q71.0 -148.4 72.35 -148.4 L72.4 -148.4 73.15 -148.35 Q75.9 -147.95 76.3 -144.3 76.1 -139.85 76.35 -139.15 77.85 -140.15 86.3 -152.3 94.0 -163.4 96.4 -163.4 102.5 -163.4 105.35 -154.3 L106.45 -149.45 Q110.3 -155.45 110.3 -161.0 110.3 -161.6 101.35 -183.85 92.35 -208.35 92.35 -220.25 L92.4 -221.95 92.35 -222.3 Q92.35 -222.95 92.65 -223.5 93.3 -225.4 95.75 -225.5 L96.15 -225.5 Q101.25 -225.35 104.6 -217.5 L105.1 -215.75 105.7 -217.05 105.7 -217.1 Q107.45 -221.35 107.45 -224.55 107.45 -231.05 100.4 -240.1 96.7 -244.85 95.5 -246.9 93.3 -250.7 93.3 -254.2 93.3 -256.2 93.6 -257.25 89.95 -260.45 86.65 -265.75 82.15 -273.05 76.8 -286.05 76.0 -287.6 74.35 -294.65 73.25 -299.65 69.35 -302.9 L65.35 -307.6 Q62.6 -310.8 60.4 -311.45 55.2 -313.05 49.75 -313.0 L44.7 -313.05 Q40.9 -311.6 35.15 -311.6 20.5 -311.6 10.7 -314.8 L4.25 -317.0 M7.15 -322.9 Q15.25 -320.7 42.25 -320.6 L43.8 -320.6 44.15 -320.6 44.8 -320.55 Q70.25 -320.05 78.5 -306.4 81.15 -302.05 82.25 -295.7 L83.45 -288.8 Q84.9 -285.85 88.5 -280.45 92.35 -274.7 93.8 -271.9 L97.6 -263.35 Q98.85 -261.0 100.3 -259.4 L101.5 -259.45 Q107.7 -259.45 109.35 -257.75 L109.8 -256.5 111.25 -256.8 Q112.65 -256.9 112.65 -255.75 112.65 -253.5 110.8 -252.8 L105.8 -252.3 105.3 -252.3 100.8 -251.85 Q110.1 -239.55 112.05 -236.2 114.45 -232.0 114.45 -223.7 114.45 -219.95 112.35 -213.75 109.9 -206.4 106.35 -205.45 105.5 -203.4 103.4 -203.4 L103.0 -203.4 Q103.8 -196.05 104.6 -193.3 106.15 -188.05 112.4 -176.5 117.3 -167.5 117.3 -161.25 117.3 -157.2 113.1 -146.8 108.2 -134.75 103.9 -134.75 100.85 -134.75 100.1 -136.7 99.7 -137.65 99.95 -138.8 L100.0 -139.4 Q99.75 -141.8 100.0 -146.1 99.85 -150.55 97.1 -153.5 82.7 -129.05 72.9 -129.05 69.6 -129.05 68.9 -133.85 L68.75 -136.25 Q61.85 -130.0 59.25 -130.0 55.6 -130.0 54.95 -131.75 L54.95 -135.45 Q51.85 -132.35 47.75 -131.95 46.75 -130.95 44.65 -130.95 41.2 -130.95 38.25 -136.0 L38.0 -136.45 Q31.4 -134.2 24.5 -132.4 4.95 -127.25 -12.15 -127.25 -27.65 -127.25 -41.9 -134.9 L-42.6 -133.95 -42.55 -133.6 -42.5 -129.9 Q-42.5 -126.1 -43.0 -124.7 -44.1 -121.6 -47.95 -121.6 -54.95 -121.6 -61.85 -131.2 -65.9 -129.65 -67.75 -125.7 -69.2 -122.55 -72.4 -122.55 -73.6 -122.55 -80.4 -131.8 -85.9 -139.3 -90.25 -146.05 -90.85 -145.1 -90.85 -142.85 L-90.8 -138.8 Q-90.95 -133.8 -95.0 -133.8 -102.3 -133.8 -108.15 -149.1 -110.1 -154.1 -111.5 -159.9 -112.65 -164.45 -112.65 -165.4 -112.65 -167.3 -111.2 -175.8 -109.8 -184.25 -109.8 -185.8 -115.5 -183.45 -115.5 -189.5 -115.5 -189.95 -108.35 -200.35 -101.25 -211.2 -101.25 -214.2 -101.25 -217.85 -103.15 -221.95 -105.05 -226.0 -105.05 -231.55 -105.05 -236.2 -99.95 -246.0 -97.8 -250.1 -95.65 -252.7 L-95.7 -254.35 Q-95.7 -280.05 -70.3 -303.15 -60.25 -312.3 -49.2 -318.0 -38.65 -323.45 -31.9 -323.45 L-29.0 -323.05 -19.7 -324.9 -11.25 -325.25 1.3 -324.5 7.15 -322.9 M21.85 -241.5 Q10.8 -232.6 5.55 -232.6 L3.65 -232.95 2.25 -233.8 2.1 -237.25 Q-4.4 -227.35 -16.85 -209.1 -17.45 -209.1 -21.35 -221.6 -25.15 -233.75 -25.15 -234.25 -25.15 -237.45 -23.6 -243.6 L-30.75 -239.75 Q-37.25 -236.1 -41.8 -232.6 L-46.1 -228.85 Q-44.4 -228.05 -44.4 -225.7 L-50.5 -211.6 Q-56.6 -197.2 -56.6 -189.6 -52.8 -176.8 -52.8 -172.4 -52.8 -171.35 -54.3 -165.8 L-56.0 -159.9 -49.15 -150.35 Q-36.2 -135.0 -1.4 -135.0 9.35 -135.0 24.9 -139.55 30.45 -141.15 39.7 -144.6 L39.8 -144.6 40.95 -145.05 41.35 -145.2 41.7 -145.35 Q48.05 -147.9 54.3 -150.95 69.25 -158.25 78.25 -165.9 88.1 -174.3 88.1 -181.0 88.1 -182.2 86.25 -186.45 L82.1 -195.95 Q76.1 -211.05 76.1 -224.15 L76.1 -232.35 Q74.2 -232.3 71.25 -233.55 71.65 -231.1 71.35 -229.95 70.9 -227.85 67.65 -227.85 63.2 -227.85 56.15 -239.05 L54.75 -241.35 41.3 -210.05 Q38.4 -210.05 33.4 -216.85 L26.0 -226.65 Q22.7 -229.95 22.0 -235.05 21.85 -236.05 21.85 -241.5 M46.8 -139.1 L47.25 -139.45 49.95 -141.1 46.5 -139.65 46.8 -139.1" fill="#000000" fill-rule="evenodd" stroke="none"/>
  </g>
</svg>
