<?xml version="1.0" encoding="UTF-8" standalone="no"?>
<svg xmlns:xlink="http://www.w3.org/1999/xlink" height="217.0px" width="245.9px" xmlns="http://www.w3.org/2000/svg">
  <g transform="matrix(1, 0, 0, 1, 117.3, 328.15)">
    <path d="M77.3 -298.45 Q96.4 -272.35 101.1 -254.8 104.65 -251.1 113.6 -230.45 L115.6 -219.2 116.5 -213.5 Q119.85 -210.85 123.25 -198.05 L126.7 -181.65 Q126.7 -179.55 124.55 -175.25 126.55 -172.6 127.7 -164.75 L128.6 -152.8 Q128.6 -147.5 125.4 -140.1 122.5 -133.4 118.15 -130.75 L123.0 -124.8 Q123.0 -118.75 108.65 -118.75 101.8 -118.75 100.2 -120.65 L100.05 -120.85 95.0 -120.65 Q84.7 -120.65 77.6 -122.75 L77.15 -122.05 Q75.75 -120.65 71.0 -120.65 60.9 -120.65 54.45 -122.95 L54.3 -122.9 49.75 -122.55 Q39.95 -122.55 33.55 -124.4 32.95 -120.65 23.35 -120.65 10.7 -120.65 3.7 -124.7 2.3 -123.35 0.2 -121.8 -6.65 -116.85 -14.0 -116.85 -20.6 -116.85 -26.65 -124.95 -27.5 -122.95 -29.1 -120.85 -33.65 -114.95 -41.4 -114.95 -49.25 -114.95 -51.55 -116.9 -59.4 -111.15 -71.95 -111.15 -82.0 -111.15 -85.1 -114.0 -86.15 -114.95 -86.25 -116.75 -90.1 -114.95 -98.3 -114.95 -108.0 -114.95 -110.75 -117.05 -111.7 -117.8 -111.7 -119.9 -111.7 -121.9 -108.8 -125.55 L-107.35 -127.2 Q-111.35 -130.6 -114.0 -137.0 -116.8 -143.8 -117.3 -150.8 -113.75 -163.3 -110.85 -168.4 L-111.0 -169.0 Q-112.45 -175.35 -112.65 -181.9 -107.05 -218.35 -103.1 -230.15 L-103.15 -233.8 Q-103.15 -247.35 -95.2 -264.55 -88.05 -280.15 -75.05 -294.65 -62.1 -309.2 -47.7 -317.95 -33.3 -326.7 -31.55 -327.4 L-28.65 -327.3 Q-16.45 -329.0 20.5 -327.35 57.4 -325.7 77.3 -298.45 M34.05 -224.75 L45.7 -240.5 Q55.1 -252.8 57.8 -252.8 61.9 -252.8 65.35 -243.55 68.45 -233.2 69.55 -230.95 77.55 -235.8 79.4 -235.8 83.6 -235.8 83.45 -232.25 L83.45 -231.95 Q84.35 -230.0 84.4 -228.0 L84.25 -218.2 Q84.15 -212.5 84.6 -210.0 84.95 -208.15 90.4 -195.3 L94.3 -185.55 Q95.6 -182.05 95.6 -181.15 95.6 -172.7 85.35 -162.9 83.2 -160.85 78.45 -157.25 L85.35 -149.5 Q85.35 -146.05 80.35 -146.05 74.8 -146.05 72.7 -150.65 L72.55 -151.0 72.45 -150.75 71.25 -148.35 Q69.35 -144.85 69.35 -142.25 69.35 -137.6 72.2 -134.05 77.1 -127.8 89.15 -128.1 L93.3 -128.1 92.2 -129.25 91.75 -130.0 Q87.6 -130.3 87.6 -133.35 87.6 -134.5 97.55 -140.95 107.45 -148.8 107.45 -156.95 107.45 -159.0 105.1 -162.55 L104.3 -163.8 Q100.5 -160.15 95.95 -160.15 92.35 -160.15 92.35 -163.4 92.35 -165.1 94.7 -167.55 L99.9 -172.55 Q107.45 -180.15 107.45 -188.8 107.45 -195.6 102.75 -202.55 L101.1 -204.95 Q99.9 -199.8 98.5 -202.35 96.4 -206.25 96.0 -206.3 L96.15 -209.0 Q97.35 -229.7 97.25 -235.9 97.1 -242.15 94.15 -253.2 89.8 -269.6 81.05 -283.0 54.8 -323.35 -1.05 -323.35 -18.65 -323.35 -34.15 -318.35 L-34.3 -318.45 -34.3 -318.7 -38.15 -316.0 Q-52.45 -305.9 -61.75 -297.5 -96.15 -266.65 -96.15 -234.25 -96.15 -220.25 -88.4 -187.35 -89.4 -184.15 -93.4 -187.95 L-95.05 -189.9 Q-97.1 -184.2 -97.1 -180.6 -97.1 -174.8 -86.25 -166.2 L-78.8 -160.55 Q-75.4 -157.9 -75.4 -156.95 -75.4 -153.5 -79.9 -153.5 -84.35 -153.5 -88.6 -156.7 L-88.8 -156.8 -89.0 -156.15 Q-90.45 -151.3 -90.45 -146.15 -90.45 -138.85 -77.25 -132.1 L-68.2 -127.85 Q-64.1 -125.85 -64.1 -124.9 -64.1 -121.6 -70.5 -121.6 L-74.1 -121.7 Q-74.85 -120.45 -76.8 -118.5 -57.35 -116.9 -50.3 -130.1 -48.8 -132.9 -47.3 -138.1 -51.85 -141.2 -63.1 -151.3 L-63.1 -153.0 Q-69.05 -144.15 -70.5 -144.15 -74.3 -144.15 -74.1 -148.2 -74.1 -150.4 -66.05 -161.25 -58.05 -172.1 -58.05 -173.6 -58.05 -176.4 -60.85 -180.7 L-62.0 -182.55 Q-65.0 -180.85 -68.15 -180.85 -73.15 -180.85 -73.15 -184.15 -73.15 -184.6 -64.65 -191.1 -56.15 -198.15 -56.15 -201.4 L-56.6 -203.9 Q-58.85 -206.8 -61.75 -215.25 -63.95 -221.7 -65.55 -228.35 L-65.3 -232.6 Q-64.65 -234.85 -61.95 -234.85 -58.45 -234.85 -57.65 -229.6 L-57.55 -223.45 Q-56.95 -224.15 -53.85 -231.6 -50.5 -238.65 -47.95 -238.65 -45.15 -238.65 -42.7 -234.8 L-40.35 -230.25 Q-35.95 -246.0 -34.85 -248.9 -29.65 -263.15 -24.3 -263.15 -24.0 -263.15 -17.6 -249.75 -10.55 -234.9 -7.7 -230.7 -7.2 -231.65 -4.2 -239.65 -1.7 -244.95 0.95 -246.55 L2.0 -247.0 3.2 -247.2 3.45 -247.2 3.65 -247.2 4.1 -247.15 Q6.8 -246.85 7.15 -244.5 L9.3 -240.55 Q11.95 -234.7 12.2 -231.2 L13.3 -230.25 18.8 -239.7 Q23.15 -247.2 26.2 -247.2 28.85 -247.2 31.1 -237.6 33.2 -226.9 34.05 -224.75 M3.2 -235.2 L-7.45 -215.65 Q-8.85 -215.65 -15.8 -229.2 -21.8 -240.85 -25.75 -249.95 -28.4 -246.5 -32.2 -229.8 -35.45 -215.65 -38.95 -215.65 -41.35 -215.65 -44.35 -220.95 -46.3 -224.45 -47.25 -227.4 L-47.5 -227.85 -47.6 -227.65 Q-48.5 -225.6 -50.15 -213.35 L-50.6 -210.4 Q-50.1 -209.2 -49.7 -207.5 L-49.0 -201.5 Q-49.0 -197.85 -54.25 -190.25 L-55.9 -187.95 Q-53.95 -186.05 -52.6 -181.95 L-50.9 -173.85 Q-50.9 -172.4 -57.4 -161.9 -51.0 -152.55 -49.15 -150.35 -36.2 -135.0 -1.4 -135.0 9.35 -135.0 24.9 -139.55 39.95 -143.95 54.3 -150.95 69.25 -158.25 78.25 -165.9 88.1 -174.3 88.1 -181.0 88.1 -182.2 86.25 -186.45 L82.1 -195.95 Q76.1 -211.05 76.1 -224.15 L76.1 -225.6 Q69.6 -222.3 66.7 -222.3 64.05 -222.3 61.2 -230.5 L56.85 -242.95 Q53.3 -238.85 43.5 -223.45 L34.3 -209.1 Q29.55 -209.1 23.95 -232.15 L18.7 -225.5 Q14.05 -219.45 12.7 -219.45 10.0 -219.45 4.85 -231.25 L3.2 -235.2 M110.3 -207.65 Q110.0 -222.2 104.1 -232.85 103.9 -225.25 102.7 -215.05 107.25 -214.4 110.3 -207.65 M114.1 -192.65 L114.55 -188.3 Q114.55 -182.7 110.3 -173.1 L109.1 -170.6 110.95 -167.95 114.55 -173.05 Q119.7 -180.2 119.7 -181.55 119.7 -183.65 115.5 -196.0 L114.75 -198.15 Q114.15 -197.55 113.4 -197.2 L114.1 -192.65 M119.2 -166.5 Q115.9 -162.3 113.2 -162.05 L114.55 -156.6 Q108.85 -137.55 100.05 -132.1 101.9 -130.05 104.05 -126.5 L105.05 -126.2 111.5 -126.2 Q110.2 -128.25 109.7 -129.65 109.0 -130.15 108.65 -131.0 108.3 -131.95 108.4 -133.1 108.4 -133.8 110.45 -135.75 L115.0 -140.1 Q121.6 -147.0 121.6 -153.5 121.6 -160.15 120.2 -163.45 119.55 -164.95 119.2 -166.5 M23.1 -132.0 L14.2 -130.0 Q19.35 -128.95 25.4 -128.7 23.65 -130.3 23.1 -132.0 M34.3 -131.2 L42.45 -130.4 45.1 -130.2 Q43.45 -133.4 43.45 -138.45 37.5 -136.2 31.3 -134.3 L34.3 -131.2 M62.55 -147.15 L59.35 -145.5 51.0 -141.55 51.1 -141.0 Q50.9 -136.8 51.3 -135.7 52.35 -132.85 55.75 -131.55 L64.35 -129.05 64.35 -132.1 Q62.3 -135.9 62.3 -142.0 62.3 -144.85 62.55 -147.15 M-101.0 -207.1 Q-105.55 -186.5 -105.55 -181.8 -105.55 -175.6 -101.3 -167.7 -97.1 -160.8 -97.1 -159.8 -97.1 -156.35 -101.65 -156.35 -105.0 -156.35 -107.35 -159.75 -110.3 -154.0 -110.3 -150.65 -110.3 -143.5 -101.3 -135.0 -92.35 -127.75 -92.35 -126.8 -92.35 -123.5 -96.9 -123.5 L-99.65 -123.7 Q-99.9 -122.95 -100.3 -122.15 -90.8 -123.4 -89.0 -124.3 L-86.9 -124.8 -86.0 -124.75 Q-91.25 -127.45 -94.25 -132.4 -97.6 -138.0 -97.6 -145.8 L-96.65 -157.1 Q-96.05 -161.0 -95.2 -163.5 L-97.4 -166.7 Q-101.65 -173.35 -104.1 -180.1 -102.85 -195.0 -99.35 -200.15 L-100.3 -203.75 -101.0 -207.1 M-41.65 -122.55 Q-34.2 -122.55 -33.1 -129.3 L-32.85 -130.85 Q-36.85 -132.3 -40.8 -134.3 -41.65 -128.55 -45.8 -122.75 L-45.95 -122.55 -41.65 -122.55 M-8.45 -127.3 L-12.15 -127.25 -18.1 -127.5 -13.75 -124.45 -8.45 -127.3 M-83.4 -123.15 L-83.4 -123.3 -83.45 -123.25 -83.4 -123.15" fill="#000000" fill-rule="evenodd" stroke="none"/>
  </g>
</svg>
