<?xml version="1.0" encoding="UTF-8" standalone="no"?>
<svg xmlns:xlink="http://www.w3.org/1999/xlink" height="341.95px" width="225.55px" xmlns="http://www.w3.org/2000/svg">
  <g transform="matrix(1, 0, 0, 1, 115.4, 330.95)">
    <path d="M48.5 -314.15 L26.45 -320.35 Q5.2 -326.2 -4.85 -325.4 L-18.45 -324.55 Q-27.9 -322.85 -31.75 -321.3 -59.0 -310.4 -68.85 -299.6 -79.2 -288.05 -87.4 -270.75 -98.05 -249.85 -101.95 -240.85 -108.4 -225.9 -108.4 -212.9 -108.4 -200.8 -102.75 -186.1 -99.65 -178.0 -98.85 -175.45 -97.1 -169.6 -97.1 -164.45 -97.1 -162.85 -98.85 -157.65 L-102.75 -145.95 Q-108.4 -127.45 -108.4 -111.25 -108.4 -89.9 -101.3 -69.55 L-96.45 -56.55 Q-94.25 -50.5 -94.25 -47.35 -94.25 -42.55 -95.85 -35.3 -90.95 -40.7 -89.05 -43.9 -88.45 -44.9 -86.8 -53.6 -84.75 -61.75 -81.8 -61.75 -79.25 -61.75 -78.5 -59.15 L-78.25 -56.4 Q-78.25 -52.05 -81.1 -43.6 -83.95 -35.15 -83.95 -31.35 -83.95 -26.8 -77.05 -7.2 -70.25 -13.95 -67.05 -22.85 -65.1 -28.4 -64.9 -33.7 L-65.55 -35.25 -65.3 -38.65 -65.15 -39.0 -65.3 -39.9 Q-64.4 -41.0 -62.25 -41.05 L-61.95 -41.05 Q-59.15 -41.05 -58.55 -36.35 L-58.55 -35.4 Q-47.25 -16.6 -44.15 -7.45 L-42.95 -7.45 Q-37.75 -40.1 -34.75 -40.1 -31.75 -40.1 -31.2 -34.05 L-31.2 -33.65 -26.75 -24.2 Q-20.2 -10.35 -16.85 -7.0 -15.9 -13.3 -15.4 -34.3 -14.6 -35.35 -12.2 -35.35 -10.7 -35.35 -7.85 -23.4 -4.65 -10.0 -0.95 -6.25 0.05 -11.5 1.3 -24.35 L1.5 -26.95 Q2.25 -27.9 4.6 -27.9 L8.4 -22.15 8.8 -20.55 Q10.9 -12.1 14.25 -9.7 14.25 -14.7 16.9 -22.7 19.45 -30.45 22.65 -32.15 23.35 -32.65 24.45 -32.65 L27.95 -29.25 Q29.6 -26.5 31.65 -21.45 37.15 -7.9 39.15 -5.3 L39.65 -5.3 39.65 -5.35 Q38.95 -11.6 39.05 -16.5 39.1 -19.9 39.65 -22.05 L39.65 -22.2 39.9 -24.7 Q40.15 -24.7 40.85 -25.35 41.75 -25.95 43.05 -26.0 L43.2 -26.0 Q45.0 -26.0 46.0 -23.85 L52.35 -18.85 Q62.2 -11.05 65.75 -8.75 66.0 -15.4 65.15 -30.95 L65.2 -35.75 65.15 -35.95 Q65.15 -40.85 65.3 -43.7 L66.35 -44.25 Q67.15 -44.85 68.55 -44.85 L68.6 -44.85 Q69.75 -44.85 70.65 -41.05 L74.75 -32.5 Q80.8 -19.65 83.0 -14.0 L83.7 -13.75 Q86.25 -21.7 86.5 -23.55 L86.65 -31.55 Q86.65 -35.0 85.3 -41.45 83.95 -47.9 83.95 -50.55 L83.95 -50.75 83.95 -50.8 Q83.95 -55.2 87.5 -55.2 90.2 -55.2 91.8 -50.95 L92.5 -50.25 92.45 -51.0 92.35 -53.9 Q92.35 -61.2 94.75 -70.1 97.1 -79.05 97.1 -86.05 97.1 -94.1 90.05 -108.95 85.25 -119.0 83.75 -125.95 L83.7 -126.15 83.65 -125.95 Q82.05 -118.75 78.95 -118.75 L78.5 -118.75 78.0 -118.75 Q71.9 -118.75 70.7 -130.55 70.15 -136.45 70.75 -142.5 L70.75 -150.2 70.95 -151.95 Q65.65 -148.65 59.35 -145.5 42.95 -137.25 24.5 -132.4 4.95 -127.25 -12.15 -127.25 -30.35 -127.25 -46.75 -137.75 -50.1 -139.9 -57.95 -146.75 -56.9 -138.5 -53.75 -132.2 -51.05 -126.85 -50.5 -125.2 -49.0 -120.9 -49.0 -115.4 L-49.0 -110.05 Q-49.7 -106.5 -53.55 -106.5 -58.45 -106.5 -69.8 -121.45 L-70.25 -120.4 -71.7 -116.25 Q-71.7 -115.05 -70.75 -112.55 -69.8 -110.05 -69.8 -108.85 -69.8 -104.6 -73.35 -104.6 -84.05 -104.6 -91.9 -127.3 -95.8 -138.7 -97.6 -150.3 -97.6 -155.9 -94.75 -165.8 -91.9 -175.7 -91.9 -180.6 -91.9 -186.55 -95.6 -198.5 -99.35 -210.45 -99.35 -218.0 -99.35 -225.45 -97.6 -234.25 -94.6 -249.0 -88.35 -249.0 -86.3 -249.0 -85.35 -247.2 L-84.75 -245.45 Q-84.75 -244.35 -88.55 -235.2 -92.35 -226.1 -92.35 -217.9 -92.35 -210.7 -88.55 -200.45 -84.75 -190.15 -84.75 -180.5 -84.75 -172.05 -87.6 -163.7 -90.45 -155.35 -90.45 -150.1 -90.45 -144.95 -86.5 -134.5 -82.2 -123.1 -78.45 -121.2 -77.6 -122.25 -76.7 -126.65 -76.2 -128.2 -75.35 -129.1 L-78.7 -133.95 Q-78.7 -137.95 -75.25 -137.95 -74.75 -137.95 -67.95 -131.3 L-58.3 -121.8 Q-58.05 -122.15 -58.05 -123.35 -58.05 -124.2 -61.8 -138.0 -65.55 -151.8 -65.55 -155.05 -65.55 -162.55 -62.75 -168.75 -59.95 -174.9 -59.95 -176.9 -59.95 -177.5 -63.2 -188.65 -66.5 -200.9 -66.5 -206.95 L-66.5 -207.75 -66.85 -207.1 Q-70.75 -199.35 -70.75 -192.0 -70.75 -187.35 -74.3 -187.35 -78.0 -187.35 -81.6 -206.95 -83.35 -216.75 -84.4 -226.65 -84.4 -234.6 -80.85 -246.1 -77.45 -257.05 -71.95 -267.65 -66.3 -278.6 -60.4 -285.15 -53.95 -292.35 -48.9 -292.35 -46.7 -292.35 -45.85 -290.65 -45.35 -289.7 -45.35 -288.65 -45.35 -286.7 -50.35 -280.85 L-61.3 -267.6 Q-77.3 -246.45 -77.3 -225.95 -77.3 -220.6 -76.1 -212.05 -75.5 -212.05 -74.65 -210.9 -69.15 -215.9 -59.5 -226.05 L-41.8 -244.35 Q-38.5 -247.65 -30.5 -263.45 -23.05 -278.2 -22.55 -278.2 L-22.35 -278.2 Q-21.45 -279.15 -19.7 -279.15 -13.4 -279.15 -13.2 -268.55 -13.1 -262.9 -15.2 -251.85 L-14.95 -251.6 -14.9 -251.6 Q-11.5 -255.95 4.65 -284.85 L4.9 -284.85 5.1 -284.85 6.4 -284.55 7.2 -284.1 Q11.0 -281.4 14.45 -268.9 18.9 -249.65 20.9 -242.95 22.65 -245.4 29.8 -261.75 35.75 -275.35 38.1 -275.35 41.85 -275.35 45.3 -267.95 48.45 -259.65 49.4 -258.0 50.0 -258.6 51.0 -263.4 52.4 -267.9 55.45 -267.9 L56.55 -267.75 58.3 -267.9 58.65 -266.1 59.05 -264.65 Q60.9 -258.3 66.6 -250.8 73.75 -241.4 86.15 -235.1 98.5 -228.85 101.45 -224.75 L102.7 -235.2 102.8 -247.4 Q102.75 -254.35 101.7 -259.5 98.95 -273.15 87.0 -285.2 79.15 -293.1 57.1 -308.95 52.7 -312.1 48.5 -314.15 M56.7 -318.35 Q75.25 -308.4 96.4 -285.2 106.4 -274.2 108.85 -259.7 109.8 -254.05 109.8 -234.85 110.5 -224.85 109.85 -216.1 108.55 -198.75 101.65 -198.75 L101.0 -198.75 100.7 -198.75 100.25 -198.75 105.6 -185.25 Q107.9 -178.95 107.9 -172.75 100.25 -140.0 94.7 -131.8 94.4 -130.25 92.85 -129.55 L92.15 -129.25 91.2 -129.05 90.95 -129.05 90.7 -129.05 90.25 -129.05 Q90.7 -125.7 92.2 -122.0 93.05 -119.95 97.05 -112.0 104.1 -98.05 104.1 -85.95 104.1 -76.85 101.8 -67.95 99.5 -59.0 99.5 -54.15 99.5 -49.5 100.85 -46.2 102.2 -42.9 102.2 -41.05 L102.2 -40.45 105.05 -37.4 Q105.05 -34.05 100.2 -34.05 97.1 -34.05 93.6 -37.15 L93.8 -31.1 Q89.65 2.45 85.6 2.45 83.4 2.45 74.1 -16.6 L72.75 -19.3 73.15 -8.15 Q73.65 -2.0 73.2 2.15 72.3 10.05 67.65 10.05 64.7 10.05 62.05 4.05 58.65 -3.55 55.65 -6.05 L46.9 -12.4 46.75 -10.8 Q47.55 -4.85 46.8 0.45 45.35 11.0 37.6 11.0 35.35 11.0 27.9 -8.05 L23.65 -19.2 Q21.35 -13.4 21.35 -10.3 22.1 -3.3 22.0 0.4 21.9 7.2 17.8 7.2 11.4 7.2 6.2 -4.55 4.2 9.1 2.85 9.1 1.15 9.1 -3.75 2.85 -9.1 -4.0 -9.6 -4.35 -8.9 0.8 -8.95 3.15 -9.1 7.2 -13.05 7.2 -22.4 7.2 -30.3 -11.85 L-32.95 -18.95 -35.95 -8.0 Q-41.45 11.0 -45.1 11.0 L-60.5 -23.7 Q-62.5 -17.0 -64.85 -11.05 -72.4 8.15 -78.95 8.15 -80.8 8.15 -85.25 -6.35 -89.15 -19.05 -91.2 -29.55 -98.0 -21.85 -101.65 -21.85 -106.0 -21.85 -106.0 -25.05 L-105.25 -25.75 Q-106.0 -26.55 -106.0 -27.9 -106.0 -29.6 -103.6 -35.85 -101.25 -42.1 -101.25 -47.35 -101.25 -50.85 -108.3 -68.35 -115.4 -89.5 -115.4 -111.25 -115.4 -128.3 -109.75 -146.75 L-105.85 -158.25 Q-104.1 -163.25 -104.1 -164.45 -104.1 -167.65 -105.85 -172.85 L-109.75 -183.3 Q-115.4 -198.8 -115.4 -212.4 -115.4 -232.4 -105.9 -254.5 -97.25 -274.55 -82.5 -292.6 -68.45 -309.85 -52.15 -318.35 -35.9 -326.9 -28.6 -328.15 L-20.65 -329.7 0.95 -330.95 Q33.2 -330.95 56.7 -318.35 M5.65 -269.05 L4.65 -271.45 Q-10.8 -233.55 -22.55 -233.55 L-24.4 -233.8 -25.75 -234.65 -26.0 -238.3 Q-26.0 -239.75 -23.65 -247.35 -21.5 -254.4 -21.35 -262.1 -23.35 -257.4 -27.1 -252.45 -31.7 -246.3 -44.85 -233.45 -54.55 -224.0 -59.75 -217.65 -58.75 -215.5 -58.65 -211.3 -59.1 -201.2 -58.75 -198.15 -57.7 -190.25 -55.0 -186.05 -52.8 -182.6 -52.8 -177.5 -52.8 -171.55 -55.65 -166.9 -56.95 -164.8 -57.65 -162.25 -51.05 -152.6 -49.15 -150.35 -36.2 -135.0 -1.4 -135.0 9.35 -135.0 24.9 -139.55 39.95 -143.95 54.3 -150.95 69.25 -158.25 78.25 -165.9 88.1 -174.3 88.1 -181.0 88.1 -182.2 86.25 -186.45 L82.1 -195.95 Q76.1 -211.05 76.1 -224.15 L76.1 -232.75 76.35 -233.55 Q67.6 -239.05 59.6 -244.9 56.25 -247.35 54.15 -250.3 L48.9 -238.2 Q47.75 -238.2 44.05 -248.4 L39.15 -262.65 38.95 -263.15 38.85 -262.8 Q35.2 -254.0 26.95 -238.6 18.75 -223.25 17.8 -223.25 L15.85 -223.5 14.45 -224.3 Q14.2 -228.85 12.75 -238.4 11.15 -248.75 10.8 -253.25 10.35 -258.0 5.65 -269.05 M87.6 -227.95 L84.0 -230.5 Q84.4 -229.25 84.4 -228.0 L84.25 -218.2 Q84.15 -212.5 84.6 -210.0 84.95 -208.15 90.4 -195.3 L94.3 -185.55 Q95.6 -182.05 95.6 -181.15 95.6 -172.7 85.35 -162.9 82.55 -160.2 75.1 -154.8 L78.6 -137.6 Q83.75 -155.9 87.5 -155.9 89.3 -155.9 91.85 -145.9 L94.25 -150.55 Q100.9 -163.2 100.9 -172.3 100.9 -179.15 98.65 -184.85 97.55 -187.65 93.8 -194.2 90.35 -200.1 88.9 -204.65 86.65 -211.6 86.65 -220.6 L86.7 -225.5 Q86.95 -227.05 87.6 -227.95 M95.85 -220.95 L95.0 -221.75 95.85 -217.95 98.75 -203.65 Q102.35 -215.2 95.85 -220.95" fill="#000000" fill-rule="evenodd" stroke="none"/>
  </g>
</svg>
