<?xml version="1.0" encoding="UTF-8" standalone="no"?>
<svg xmlns:xlink="http://www.w3.org/1999/xlink" height="210.5px" width="247.55px" xmlns="http://www.w3.org/2000/svg">
  <g transform="matrix(1, 0, 0, 1, 124.8, 321.75)">
    <path d="M62.95 -292.45 L62.25 -292.9 62.15 -292.75 60.25 -288.25 Q68.7 -282.55 75.1 -277.3 L76.1 -276.5 75.6 -278.0 Q73.25 -285.5 62.95 -292.45 M13.85 -305.0 Q18.85 -303.25 32.0 -303.25 L40.55 -304.25 37.9 -307.0 Q29.15 -313.75 2.5 -313.75 L-6.3 -313.6 Q-41.45 -312.35 -60.05 -301.05 L-63.35 -298.9 Q-76.85 -289.35 -83.25 -270.3 -84.9 -265.6 -86.05 -260.25 -88.0 -251.35 -90.0 -234.75 -92.45 -214.05 -93.7 -206.55 -99.45 -171.1 -114.35 -146.5 L-114.6 -146.0 -114.15 -146.3 -107.75 -150.85 Q-102.15 -154.75 -97.85 -154.75 -95.95 -154.75 -91.3 -143.45 -87.1 -133.35 -85.1 -125.75 -84.3 -125.9 -80.7 -130.95 -77.25 -135.75 -74.85 -135.75 -73.1 -135.75 -67.75 -129.0 -62.35 -122.25 -60.25 -122.25 -59.15 -122.25 -55.6 -128.0 -52.05 -133.75 -50.0 -133.75 L-48.0 -133.4 Q-47.5 -132.85 -46.75 -132.5 -46.25 -131.6 -46.25 -129.1 -46.25 -127.0 -52.3 -119.0 -58.15 -111.25 -59.0 -111.25 -62.5 -111.25 -68.1 -117.4 -71.0 -120.6 -74.35 -125.25 -75.75 -124.65 -78.65 -119.2 -81.2 -114.25 -83.85 -114.25 -89.2 -114.25 -95.05 -125.85 -100.6 -136.9 -100.6 -145.5 -102.25 -142.75 -104.0 -141.15 -107.2 -138.25 -115.35 -138.25 -122.75 -138.25 -124.4 -139.85 -124.9 -140.35 -124.8 -141.05 L-124.6 -141.75 Q-124.6 -145.3 -116.55 -165.8 -109.05 -185.05 -107.1 -188.25 -101.45 -197.65 -99.75 -211.25 -99.25 -215.25 -98.6 -234.0 -96.25 -290.75 -60.5 -310.35 -47.1 -317.7 -28.2 -320.2 L3.0 -321.75 Q31.65 -321.75 37.35 -318.6 39.1 -317.65 39.5 -315.75 39.95 -313.7 41.0 -313.0 42.15 -312.2 48.75 -308.65 50.55 -307.65 51.3 -306.4 L61.5 -308.75 Q66.5 -308.75 65.75 -303.0 65.75 -301.95 65.35 -300.4 75.0 -296.7 82.35 -283.0 85.55 -277.0 87.85 -269.9 89.6 -264.6 89.6 -263.5 L89.6 -262.8 Q92.2 -259.3 93.65 -256.05 96.3 -250.05 96.7 -241.85 L96.75 -225.0 Q97.25 -215.6 96.75 -209.9 98.1 -207.45 100.55 -197.55 104.5 -181.7 106.5 -177.25 122.75 -145.5 122.75 -143.85 122.75 -141.75 120.75 -140.8 119.6 -140.25 118.5 -140.25 104.0 -145.1 100.25 -147.0 95.6 -126.25 89.0 -126.25 85.6 -126.25 83.2 -130.75 81.9 -133.15 80.5 -137.25 77.95 -135.95 71.9 -127.7 66.4 -120.25 64.0 -120.25 60.1 -120.25 56.3 -130.65 54.4 -135.9 53.25 -141.35 L53.35 -142.6 Q39.6 -136.35 24.5 -132.4 4.95 -127.25 -12.15 -127.25 -29.8 -127.25 -45.7 -137.1 L-46.75 -137.75 Q-50.6 -140.2 -60.4 -148.9 L-60.25 -146.1 Q-60.25 -141.25 -64.0 -141.25 -67.05 -141.25 -68.6 -156.15 -69.4 -163.65 -69.6 -171.35 -67.25 -197.65 -64.05 -208.7 L-68.2 -203.05 Q-74.65 -193.25 -74.85 -193.25 L-76.9 -193.6 -78.35 -194.5 Q-79.15 -202.35 -79.95 -216.25 L-80.6 -230.85 -80.55 -234.75 Q-80.2 -254.3 -76.35 -268.0 -70.4 -289.1 -57.5 -297.0 -49.75 -301.75 -39.5 -301.75 -33.45 -301.75 -31.75 -299.75 -31.25 -299.15 -31.25 -297.5 L-31.2 -295.6 Q-31.3 -294.85 -32.3 -294.55 L-45.25 -294.0 Q-54.55 -294.0 -62.65 -281.05 -68.8 -271.2 -70.35 -262.5 -73.35 -246.4 -73.45 -243.5 -73.1 -238.95 -73.1 -230.6 -73.1 -219.0 -72.1 -213.25 -67.55 -218.7 -43.05 -230.65 -14.9 -244.4 -8.75 -248.75 -0.1 -254.85 7.85 -271.5 11.75 -279.7 12.9 -281.55 15.5 -285.75 18.0 -285.75 21.6 -285.75 21.75 -281.5 21.75 -278.8 17.7 -271.95 L12.9 -264.65 7.55 -257.65 Q-7.7 -239.0 -18.5 -236.0 -29.2 -232.95 -56.55 -216.1 -55.25 -215.15 -55.25 -212.85 -55.25 -210.4 -58.75 -196.05 -62.25 -181.75 -62.25 -171.6 L-61.7 -165.3 -60.0 -165.75 Q-51.35 -153.0 -49.15 -150.35 -36.2 -135.0 -1.4 -135.0 9.35 -135.0 24.9 -139.55 39.95 -143.95 54.3 -150.95 69.25 -158.25 78.25 -165.9 88.1 -174.3 88.1 -181.0 88.1 -182.2 86.25 -186.45 L82.1 -195.95 Q76.1 -211.05 76.1 -224.15 L76.1 -226.4 Q67.65 -232.75 53.05 -239.5 43.25 -244.0 25.8 -251.3 13.25 -257.05 13.25 -260.6 13.25 -262.65 14.2 -263.7 15.1 -264.75 17.0 -264.75 18.75 -264.75 35.15 -257.45 51.9 -250.05 60.75 -245.25 68.6 -241.0 76.8 -234.0 78.0 -235.05 81.6 -234.85 84.35 -231.45 84.4 -228.0 L84.4 -226.95 89.0 -222.5 89.25 -233.1 Q89.25 -251.4 69.25 -270.3 59.25 -279.75 49.25 -285.85 49.25 -288.05 51.5 -290.3 54.55 -293.4 56.15 -296.5 54.6 -297.35 53.1 -298.0 42.2 -295.25 32.0 -295.25 17.0 -295.25 -12.75 -302.75 -12.75 -305.1 -11.45 -305.8 -10.1 -306.5 -6.0 -306.7 L-3.0 -306.75 Q8.85 -306.75 13.85 -305.0 M84.25 -218.4 L84.25 -218.2 Q84.15 -212.5 84.6 -210.0 84.95 -208.15 90.4 -195.3 L94.3 -185.55 94.6 -184.75 Q95.6 -181.95 95.6 -181.15 95.6 -172.7 85.35 -162.9 82.0 -159.7 72.0 -152.6 66.25 -148.95 59.35 -145.5 L59.15 -145.4 59.3 -145.35 Q61.95 -144.3 62.8 -140.35 L63.5 -135.9 Q63.9 -133.35 64.75 -132.25 65.75 -133.05 70.55 -140.1 73.4 -143.75 76.0 -145.35 78.1 -146.75 80.0 -146.75 83.35 -146.75 86.1 -143.0 L88.5 -139.0 91.05 -147.95 Q94.2 -155.75 99.5 -155.75 101.8 -155.75 104.15 -153.45 106.1 -151.45 109.5 -152.25 107.15 -158.65 99.1 -175.95 96.95 -180.9 95.5 -185.1 92.25 -194.4 92.25 -199.85 L92.25 -201.25 Q91.35 -201.35 90.95 -201.6 L89.5 -202.5 Q90.65 -210.7 84.6 -218.4 L84.25 -218.8 84.25 -218.4" fill="#000000" fill-rule="evenodd" stroke="none"/>
  </g>
</svg>
