<?xml version="1.0" encoding="utf-8"?>
<!-- Generator: flash2svg, http://dissentgraphics.com/tools/flash2svg -->
<svg xmlns:xlink="http://www.w3.org/1999/xlink" id="sprite.__20250.__20(Wings).__2F124" image-rendering="optimizeSpeed" baseProfile="basic" version="1.1" style="background-color:#ffffff" x="0px" y="0px" width="550px" height="400px" viewBox="0 0 550 400" enable-background="new 0 0 550 400" xmlns="http://www.w3.org/2000/svg">
  <defs transform="matrix(1 0 0 1 0 0) "/>
  <g id="sprite.__20250.__20(Wings).__2F124">
    <g id="Layer.__205">
      <g id="Graphic.__2Fshape.__20239_1" overflow="visible">
        <g id="Layer.__407">
          <g id="shape718">
            <path id="path1658" fill="none" stroke="#000000" stroke-opacity="1" stroke-width="2.139" stroke-linecap="round" stroke-linejoin="round" d="M70.338,236.853 Q77.659,233.892 88.934,224.364 C96.104,218.249 101.641,214.531 105.515,213.251 105.585,235.457 113.131,242.538 128.187,234.491 128.57,239.739 126.778,245.377 122.803,251.369 109.872,243.827 103.759,245.11 104.452,255.148 103.61,254.635 102.827,254.04 102.173,253.351 97.622,252.249 89.39,260.271 77.474,277.417 78.457,263.24 68.4,268.705 47.267,293.816 L47.203,293.863 43.254,303.572 C44.691,295.969 47.919,286.052 52.933,273.785 57.811,261.793 63.611,249.471 70.338,236.853z"/>
            <path id="path1659" fill="#333333" fill-opacity="1" d="M88.934,224.364 Q77.659,233.892 70.338,236.853 C63.611,249.471 57.811,261.793 52.933,273.785 47.919,286.052 44.691,295.969 43.254,303.572 L47.203,293.863 C61.847,259.511 79.712,235.184 100.784,220.812 104.997,243.391 114.153,247.935 128.187,234.491 113.131,242.538 105.585,235.457 105.515,213.251 101.641,214.531 96.104,218.249 88.934,224.364z"/>
            <path id="path1660" fill="none" stroke="#000000" stroke-opacity="1" stroke-width="2.139" stroke-linecap="round" stroke-linejoin="round" d="M88.934,224.364 Q77.659,233.892 70.338,236.853 C63.611,249.471 57.811,261.793 52.933,273.785 47.919,286.052 44.691,295.969 43.254,303.572 L47.203,293.863 C61.847,259.511 79.712,235.184 100.784,220.812 104.997,243.391 114.153,247.935 128.187,234.491 113.131,242.538 105.585,235.457 105.515,213.251 101.641,214.531 96.104,218.249 88.934,224.364z"/>
            <path id="path1661" fill="#D9D0C9" fill-opacity="1" d="M104.452,255.148 C103.759,245.11 109.872,243.827 122.803,251.369 126.778,245.377 128.57,239.739 128.187,234.491 114.153,247.935 104.997,243.391 100.784,220.812 92.047,231.733 85.674,243.86 81.664,257.192 79.716,263.65 78.317,270.38 77.474,277.417 89.39,260.271 97.622,252.249 102.173,253.351 98.162,249.343 97.204,242.563 99.223,232.987 L104.452,255.148z"/>
            <path id="path1662" fill="none" stroke="#000000" stroke-opacity="1" stroke-width="2.139" stroke-linecap="round" stroke-linejoin="round" d="M104.452,255.148 C103.759,245.11 109.872,243.827 122.803,251.369 126.778,245.377 128.57,239.739 128.187,234.491 114.153,247.935 104.997,243.391 100.784,220.812"/>
            <path id="path1663" fill="none" stroke="#2702C1" stroke-opacity="0" stroke-width="0.713" stroke-linecap="round" stroke-linejoin="round" d="M100.784,220.812 C92.047,231.733 85.674,243.86 81.664,257.192 79.716,263.65 78.317,270.38 77.474,277.417"/>
            <path id="path1664" fill="none" stroke="#000000" stroke-opacity="1" stroke-width="2.139" stroke-linecap="round" stroke-linejoin="round" d="M77.474,277.417 C89.39,260.271 97.622,252.249 102.173,253.351"/>
            <path id="path1665" fill="none" stroke="#2702C1" stroke-opacity="0" stroke-width="0.713" stroke-linecap="round" stroke-linejoin="round" d="M102.173,253.351 C98.162,249.343 97.204,242.563 99.223,232.987 L104.452,255.148"/>
            <path id="path1666" fill="none" stroke="#000000" stroke-opacity="1" stroke-width="2.139" stroke-linecap="round" stroke-linejoin="round" d="M102.173,253.351 C103.075,253.566 103.823,254.167 104.452,255.148 103.61,254.635 102.827,254.04 102.173,253.351"/>
            <path id="path1667" fill="#FFFFFF" fill-opacity="1" d="M102.173,253.351 C103.075,253.566 103.823,254.167 104.452,255.148 L99.223,232.987 C97.204,242.563 98.162,249.343 102.173,253.351z M47.203,293.863 L47.267,293.816 C64.826,263.831 76.281,251.637 81.664,257.192 85.674,243.86 92.047,231.733 100.784,220.812 79.712,235.184 61.847,259.511 47.203,293.863z"/>
            <path id="path1668" fill="none" stroke="#000000" stroke-opacity="1" stroke-width="2.139" stroke-linecap="round" stroke-linejoin="round" d="M102.173,253.351 C103.075,253.566 103.823,254.167 104.452,255.148"/>
            <path id="path1669" fill="none" stroke="#2702C1" stroke-opacity="0" stroke-width="0.713" stroke-linecap="round" stroke-linejoin="round" d="M104.452,255.148 L99.223,232.987 C97.204,242.563 98.162,249.343 102.173,253.351"/>
            <path id="path1670" fill="#D9D0C9" fill-opacity="1" d="M77.474,277.417 C78.317,270.38 79.716,263.65 81.664,257.192 76.281,251.637 64.826,263.831 47.267,293.816 68.4,268.705 78.457,263.24 77.474,277.417z"/>
            <path id="path1671" fill="none" stroke="#2702C1" stroke-opacity="0" stroke-width="0.713" stroke-linecap="round" stroke-linejoin="round" d="M77.474,277.417 C78.317,270.38 79.716,263.65 81.664,257.192 76.281,251.637 64.826,263.831 47.267,293.816"/>
            <path id="path1672" fill="none" stroke="#000000" stroke-opacity="1" stroke-width="2.139" stroke-linecap="round" stroke-linejoin="round" d="M47.267,293.816 C68.4,268.705 78.457,263.24 77.474,277.417"/>
            <path id="path1673" fill="none" stroke="#000000" stroke-opacity="1" stroke-width="2.139" stroke-linecap="round" stroke-linejoin="round" d="M100.784,220.812 C79.712,235.184 61.847,259.511 47.203,293.863 L47.267,293.816"/>
            <path id="path1674" fill="none" stroke="#2702C1" stroke-opacity="0" stroke-width="0.713" stroke-linecap="round" stroke-linejoin="round" d="M47.267,293.816 C64.826,263.831 76.281,251.637 81.664,257.192 85.674,243.86 92.047,231.733 100.784,220.812"/>
          </g>
        </g>
      </g>
    </g>
    <g id="Layer.__206">
      <g id="Graphic.__2Fshape.__20241_1" overflow="visible">
        <g id="Layer.__408">
          <g id="shape719">
            <path id="path1675" fill="none" stroke="#000000" stroke-opacity="1" stroke-width="2.144" stroke-linecap="round" stroke-linejoin="round" d="M215.584,239.212 Q208.38,235.935 197.498,225.913 C190.581,219.484 185.196,215.525 181.372,214.078 180.353,236.307 172.495,243.075 157.764,234.374 157.156,239.612 158.71,245.334 162.433,251.504 175.702,244.505 181.768,246.051 180.645,256.072 181.51,255.594 182.32,255.031 183.004,254.37 187.607,253.461 195.507,261.844 206.703,279.521 206.326,265.285 216.162,271.186 236.247,297.231 L236.309,297.281 239.847,307.171 C238.734,299.497 235.926,289.429 231.43,276.933 227.059,264.718 221.779,252.133 215.584,239.212z"/>
            <path id="path1676" fill="#333333" fill-opacity="1" d="M197.498,225.913 Q208.38,235.935 215.584,239.212 C221.779,252.133 227.059,264.718 231.43,276.933 235.926,289.429 238.734,299.497 239.847,307.171 L236.309,297.281 C223.115,262.261 206.27,237.141 185.786,221.85 180.602,244.277 171.241,248.435 157.764,234.374 172.495,243.075 180.353,236.307 181.372,214.078 185.196,215.525 190.581,219.484 197.498,225.913z"/>
            <path id="path1677" fill="none" stroke="#000000" stroke-opacity="1" stroke-width="2.144" stroke-linecap="round" stroke-linejoin="round" d="M197.498,225.913 Q208.38,235.935 215.584,239.212 C221.779,252.133 227.059,264.718 231.43,276.933 235.926,289.429 238.734,299.497 239.847,307.171 L236.309,297.281 C223.115,262.261 206.27,237.141 185.786,221.85 180.602,244.277 171.241,248.435 157.764,234.374 172.495,243.075 180.353,236.307 181.372,214.078 185.196,215.525 190.581,219.484 197.498,225.913z"/>
            <path id="path1678" fill="none" stroke="#000000" stroke-opacity="1" stroke-width="2.144" stroke-linecap="round" stroke-linejoin="round" d="M180.645,256.072 C181.51,255.594 182.32,255.031 183.004,254.37 182.092,254.546 181.317,255.116 180.645,256.072"/>
            <path id="path1679" fill="#D9D0C9" fill-opacity="1" d="M183.004,254.37 C182.092,254.546 181.317,255.116 180.645,256.072 L186.828,234.107 C188.44,243.781 187.191,250.529 183.004,254.37z M236.309,297.281 L236.247,297.231 C219.949,266.459 209,253.76 203.374,259.092 199.929,245.572 194.066,233.158 185.786,221.85 206.27,237.141 223.115,262.261 236.309,297.281z"/>
            <path id="path1680" fill="none" stroke="#000000" stroke-opacity="1" stroke-width="2.144" stroke-linecap="round" stroke-linejoin="round" d="M183.004,254.37 C182.092,254.546 181.317,255.116 180.645,256.072"/>
            <path id="path1681" fill="none" stroke="#2702C1" stroke-opacity="0" stroke-width="0.715" stroke-linecap="round" stroke-linejoin="round" d="M180.645,256.072 L186.828,234.107 C188.44,243.781 187.191,250.529 183.004,254.37"/>
            <path id="path1682" fill="#FFFFFF" fill-opacity="1" d="M180.645,256.072 C181.768,246.051 175.702,244.505 162.433,251.504 158.71,245.334 157.156,239.612 157.764,234.374 171.241,248.435 180.602,244.277 185.786,221.85 194.066,233.158 199.929,245.572 203.374,259.092 205.048,265.641 206.16,272.439 206.703,279.521 195.507,261.844 187.607,253.461 183.004,254.37 187.191,250.529 188.44,243.781 186.828,234.107 L180.645,256.072z"/>
            <path id="path1683" fill="none" stroke="#000000" stroke-opacity="1" stroke-width="2.144" stroke-linecap="round" stroke-linejoin="round" d="M180.645,256.072 C181.768,246.051 175.702,244.505 162.433,251.504 158.71,245.334 157.156,239.612 157.764,234.374 171.241,248.435 180.602,244.277 185.786,221.85"/>
            <path id="path1684" fill="none" stroke="#2702C1" stroke-opacity="0" stroke-width="0.715" stroke-linecap="round" stroke-linejoin="round" d="M185.786,221.85 C194.066,233.158 199.929,245.572 203.374,259.092 205.048,265.641 206.16,272.439 206.703,279.521"/>
            <path id="path1685" fill="none" stroke="#000000" stroke-opacity="1" stroke-width="2.144" stroke-linecap="round" stroke-linejoin="round" d="M206.703,279.521 C195.507,261.844 187.607,253.461 183.004,254.37"/>
            <path id="path1686" fill="none" stroke="#2702C1" stroke-opacity="0" stroke-width="0.715" stroke-linecap="round" stroke-linejoin="round" d="M183.004,254.37 C187.191,250.529 188.44,243.781 186.828,234.107 L180.645,256.072"/>
            <path id="path1687" fill="#FFFFFF" fill-opacity="1" d="M206.703,279.521 C206.16,272.439 205.048,265.641 203.374,259.092 209,253.76 219.949,266.459 236.247,297.231 216.162,271.186 206.326,265.285 206.703,279.521z"/>
            <path id="path1688" fill="none" stroke="#2702C1" stroke-opacity="0" stroke-width="0.715" stroke-linecap="round" stroke-linejoin="round" d="M206.703,279.521 C206.16,272.439 205.048,265.641 203.374,259.092 209,253.76 219.949,266.459 236.247,297.231"/>
            <path id="path1689" fill="none" stroke="#000000" stroke-opacity="1" stroke-width="2.144" stroke-linecap="round" stroke-linejoin="round" d="M236.247,297.231 C216.162,271.186 206.326,265.285 206.703,279.521"/>
            <path id="path1690" fill="none" stroke="#000000" stroke-opacity="1" stroke-width="2.144" stroke-linecap="round" stroke-linejoin="round" d="M185.786,221.85 C206.27,237.141 223.115,262.261 236.309,297.281 L236.247,297.231"/>
            <path id="path1691" fill="none" stroke="#2702C1" stroke-opacity="0" stroke-width="0.715" stroke-linecap="round" stroke-linejoin="round" d="M236.247,297.231 C219.949,266.459 209,253.76 203.374,259.092 199.929,245.572 194.066,233.158 185.786,221.85"/>
          </g>
        </g>
      </g>
    </g>
  </g>
</svg>