<?xml version="1.0" encoding="utf-8"?>
<!-- Generator: flash2svg, http://dissentgraphics.com/tools/flash2svg -->
<svg xmlns:xlink="http://www.w3.org/1999/xlink" id="sprite.__20250.__20(Wings).__2F116" image-rendering="optimizeSpeed" baseProfile="basic" version="1.1" style="background-color:#ffffff" x="0px" y="0px" width="550px" height="400px" viewBox="0 0 550 400" enable-background="new 0 0 550 400" xmlns="http://www.w3.org/2000/svg">
  <defs transform="matrix(1 0 0 1 0 0) "/>
  <g id="sprite.__20250.__20(Wings).__2F116">
    <g id="Layer.__221">
      <g id="Graphic.__2Fshape.__20239_1" overflow="visible">
        <g id="Layer.__326">
          <g id="shape1415">
            <path id="path2267" fill="#CDEBFE" fill-opacity="0.5019607843137255" d="M242,166.1 Q237.45,161.55 231.05,161.55 C226.8,161.55 223.15,163.05 220.1,166.1 217.05,169.15 215.55,172.8 215.55,177.05 215.55,181.3 217.05,184.95 220.1,188 223.15,191.05 226.8,192.55 231.05,192.55 235.3,192.55 238.95,191.05 242,188 245.05,184.95 246.55,181.3 246.55,177.05 246.55,172.8 245.05,169.15 242,166.1z M302.85,144 C301.3,147.3 299.65,150.2 297.8,152.75 278.05,179.55 238.9,208.4 180.4,239.25 235.45,254.8 275.95,246 301.85,212.85 327.7,179.7 330.7,141.65 310.8,98.8 311.7,115.4 309.05,130.45 302.85,144z M78,166.1 C74.95,163.05 71.3,161.55 67.05,161.55 62.8,161.55 59.15,163.05 56.1,166.1 53.05,169.15 51.55,172.8 51.55,177.05 51.55,181.3 53.05,184.95 56.1,188 59.15,191.05 62.8,192.55 67.05,192.55 71.3,192.55 74.95,191.05 78,188 81.05,184.95 82.55,181.3 82.55,177.05 82.55,172.8 81.05,169.15 78,166.1z M116.15,239.25 L110.8,236.4 C55.2,206.6 17.85,178.7 -1.25,152.75 -3.1,150.2 -4.8,147.3 -6.3,144 -12.55,130.45 -15.2,115.4 -14.3,98.8 -34.2,141.65 -31.2,179.7 -5.3,212.85 19.75,244.9 58.45,254.2 110.8,240.7 L116.15,239.25z"/>
            <path id="path2268" fill="none" stroke="#000000" stroke-opacity="0.5019607843137255" stroke-width="5" stroke-linecap="round" stroke-linejoin="round" d="M242,166.1 Q237.45,161.55 231.05,161.55 C226.8,161.55 223.15,163.05 220.1,166.1 217.05,169.15 215.55,172.8 215.55,177.05 215.55,181.3 217.05,184.95 220.1,188 223.15,191.05 226.8,192.55 231.05,192.55 235.3,192.55 238.95,191.05 242,188 245.05,184.95 246.55,181.3 246.55,177.05 246.55,172.8 245.05,169.15 242,166.1z"/>
            <path id="path2269" fill="none" stroke="#000000" stroke-opacity="0.5019607843137255" stroke-width="5" stroke-linecap="round" stroke-linejoin="round" d="M180.4,239.25 C238.9,208.4 278.05,179.55 297.8,152.75 299.65,150.2 301.3,147.3 302.85,144 309.05,130.45 311.7,115.4 310.8,98.8 330.7,141.65 327.7,179.7 301.85,212.85 275.95,246 235.45,254.8 180.4,239.25z"/>
            <path id="path2270" fill="none" stroke="#000000" stroke-opacity="0.5019607843137255" stroke-width="5" stroke-linecap="round" stroke-linejoin="round" d="M302.85,144 C301.3,147.3 299.65,150.2 297.8,152.75 278.05,179.55 238.9,208.4 180.4,239.25 235.45,254.8 275.95,246 301.85,212.85 327.7,179.7 330.7,141.65 310.8,98.8 311.7,115.4 309.05,130.45 302.85,144z"/>
            <path id="path2271" fill="none" stroke="#000000" stroke-opacity="0.5019607843137255" stroke-width="5" stroke-linecap="round" stroke-linejoin="round" d="M78,166.1 C74.95,163.05 71.3,161.55 67.05,161.55 62.8,161.55 59.15,163.05 56.1,166.1 53.05,169.15 51.55,172.8 51.55,177.05 51.55,181.3 53.05,184.95 56.1,188 59.15,191.05 62.8,192.55 67.05,192.55 71.3,192.55 74.95,191.05 78,188 81.05,184.95 82.55,181.3 82.55,177.05 82.55,172.8 81.05,169.15 78,166.1z"/>
            <path id="path2272" fill="none" stroke="#000000" stroke-opacity="0.5019607843137255" stroke-width="5" stroke-linecap="round" stroke-linejoin="round" d="M116.1,238.3 L116.2,239.25 116.15,239.25 110.8,240.7 C58.45,254.2 19.75,244.9 -5.3,212.85 -31.2,179.7 -34.2,141.65 -14.3,98.8 -15.2,115.4 -12.55,130.45 -6.3,144 -4.8,147.3 -3.1,150.2 -1.25,152.75 17.85,178.7 55.2,206.6 110.8,236.4 L116.15,239.25"/>
            <path id="path2273" fill="none" stroke="#000000" stroke-opacity="0.5019607843137255" stroke-width="5" stroke-linecap="round" stroke-linejoin="round" d="M116.15,239.25 L110.8,236.4 C55.2,206.6 17.85,178.7 -1.25,152.75 -3.1,150.2 -4.8,147.3 -6.3,144 -12.55,130.45 -15.2,115.4 -14.3,98.8 -34.2,141.65 -31.2,179.7 -5.3,212.85 19.75,244.9 58.45,254.2 110.8,240.7 L116.15,239.25z"/>
          </g>
        </g>
      </g>
    </g>
  </g>
</svg>