<?xml version="1.0" encoding="utf-8"?>
<!-- Generator: flash2svg, http://dissentgraphics.com/tools/flash2svg -->
<svg xmlns:xlink="http://www.w3.org/1999/xlink" id="sprite.__20250.__20(Wings).__2F131" image-rendering="optimizeSpeed" baseProfile="basic" version="1.1" style="background-color:#ffffff" x="0px" y="0px" width="550px" height="400px" viewBox="0 0 550 400" enable-background="new 0 0 550 400" xmlns="http://www.w3.org/2000/svg">
  <defs transform="matrix(1 0 0 1 0 0) "/>
  <g id="sprite.__20250.__20(Wings).__2F131">
    <g id="Layer.__220">
      <g id="MovieClip.__2Fsprite.__20240_1" overflow="visible">
        <g id="Layer.__625">
          <g id="Graphic.__2Fshape.__20266_13" overflow="visible">
            <g id="Layer.__626">
              <g id="shape880">
                <path id="path2977" fill="none" stroke="#010101" stroke-opacity="0.2235294117647059" stroke-width="2.998" stroke-linecap="round" stroke-linejoin="round" d="M268.129,128.334 Q256.778,115.618 269.595,111.44 C280.153,109.705 291.593,110.155 303.883,112.684 L359.473,124.04 C349.5,133.085 346.081,141.514 349.224,149.276 354.357,161.856 352.625,172.511 344.035,181.192 338.634,186.478 333.564,189.895 328.776,191.433 314.161,187.985 304.043,183.506 298.429,177.945 L290.631,168.954 278.078,165.617 C274.738,170.152 268.175,171.68 258.455,170.113 258.896,181.102 255.24,189.438 247.445,195.062 231.877,209.055 227.036,224.945 232.922,242.733 240.107,258.061 244.502,270.511 246.197,280.148 246.983,284.601 247.207,288.497 246.789,291.722 246.347,295.653 244.994,298.712 242.787,300.859 234.864,308.643 225.853,314.255 215.755,317.696 185.952,328.105 155.931,332.285 125.577,330.315 107.177,330.765 96.592,328.639 93.722,323.92 80.978,325.674 73.942,324.43 72.563,320.177 L56.223,315.003 49.193,312.288 C34.068,305.704 31.63,298.828 41.97,291.726 L45.17,289.704 C63.388,279.377 67.609,271.293 57.899,265.363 57.034,264.804 56.012,264.268 54.884,263.764 54.288,261.68 53.299,259.526 51.867,257.293 48.26,251.58 42.07,245.258 33.241,238.368 2.555,240.857 -6.242,233.211 6.85,215.431 L8.329,207.065 3.25,205.659 C1.247,204.645 -0.423,203.183 -1.8,201.214 12.517,194.865 12.083,188.141 -3.121,181.138 -9.034,178.417 -17.164,175.609 -27.48,172.82 -6.896,169.204 11.703,167.622 28.337,167.976 43.442,168.364 55.179,170.288 63.599,173.757 71.772,177.182 75.149,181.332 73.827,186.223 72.395,191.451 65.764,196.52 53.983,201.439 L51.49,208.356 C59.937,215.687 62.624,222.302 59.582,228.311 65.788,229.662 67.667,236.541 65.137,248.831 66.462,251.958 69.136,254.918 73.158,257.71 L74.831,258.869 80.33,261.922 C88.26,264.999 91.304,269.598 89.509,275.725 88.761,278.232 87.206,281.001 84.793,284.026 87.794,286.282 94.811,287.929 105.735,288.999 120.704,289.008 134.033,286.24 145.779,280.655 157.196,275.214 167.093,267.171 175.441,256.417 179.35,252.389 183.137,252.501 186.817,256.653 194.559,260.509 199.617,259.171 201.973,252.737 200.803,247.303 200.643,241.895 201.493,236.514 203.18,225.547 209.023,214.604 219.014,203.735 228.627,197.874 236.701,190.675 243.137,182.121 248.345,174.77 246.475,166.979 237.617,158.815 231.963,154.06 230.847,148.889 234.28,143.254 240.147,137.34 248.505,136.281 259.452,140.095 269.354,142.354 274.923,142.425 276.16,140.31 277.122,138.602 275.328,135.545 270.78,131.137 L268.129,128.334z"/>
                <path id="path2978" fill="#FFFFFF" fill-opacity="0.7529411764705882" d="M269.595,111.44 Q256.778,115.618 268.129,128.334 L297.402,140.718 C306.745,145.568 306.732,148.509 297.355,149.59 290.064,148.351 283.004,145.225 276.16,140.31 274.923,142.425 269.354,142.354 259.452,140.095 248.505,136.281 240.147,137.34 234.28,143.254 230.847,148.889 231.963,154.06 237.617,158.815 246.475,166.979 248.345,174.77 243.137,182.121 236.701,190.675 228.627,197.874 219.014,203.735 209.023,214.604 203.18,225.547 201.493,236.514 218.527,249.525 233.458,264.092 246.197,280.148 244.502,270.511 240.107,258.061 232.922,242.733 227.036,224.945 231.877,209.055 247.445,195.062 255.24,189.438 258.896,181.102 258.455,170.113 253.841,163.207 256.233,160.586 265.681,162.257 L278.078,165.617 290.631,168.954 298.429,177.945 C304.043,183.506 314.161,187.985 328.776,191.433 333.564,189.895 338.634,186.478 344.035,181.192 352.625,172.511 354.357,161.856 349.224,149.276 346.081,141.514 349.5,133.085 359.473,124.04 L303.883,112.684 C291.593,110.155 280.153,109.705 269.595,111.44z M242.787,300.859 C244.994,298.712 246.347,295.653 246.789,291.722 240.579,285.803 232.482,280.513 222.604,275.823 216.265,272.925 211.573,271.334 208.577,271.058 205.532,270.773 198.518,271.41 187.502,272.861 176.487,274.313 162.585,276.878 145.779,280.655 134.033,286.24 120.704,289.008 105.735,288.999 94.811,287.929 87.794,286.282 84.793,284.026 L49.193,312.288 56.223,315.003 72.563,320.177 C73.942,324.43 80.978,325.674 93.722,323.92 96.592,328.639 107.177,330.765 125.577,330.315 155.931,332.285 185.952,328.105 215.755,317.696 225.853,314.255 234.864,308.643 242.787,300.859z M73.827,186.223 C75.149,181.332 71.772,177.182 63.599,173.757 55.179,170.288 43.442,168.364 28.337,167.976 11.703,167.622 -6.896,169.204 -27.48,172.82 -17.164,175.609 -9.034,178.417 -3.121,181.138 34.666,187.568 36.819,195.764 3.25,205.659 L8.329,207.065 6.85,215.431 C-6.242,233.211 2.555,240.857 33.241,238.368 42.07,245.258 48.26,251.58 51.867,257.293 L73.158,257.71 C69.136,254.918 66.462,251.958 65.137,248.831 67.667,236.541 65.788,229.662 59.582,228.311 62.624,222.302 59.937,215.687 51.49,208.356 L53.983,201.439 C65.764,196.52 72.395,191.451 73.827,186.223z M89.509,275.725 C91.304,269.598 88.26,264.999 80.33,261.922 L74.831,258.869 C68.363,259.856 62.706,262.002 57.899,265.363 67.609,271.293 63.388,279.377 45.17,289.704 L41.97,291.726 C46.274,293.502 62.134,288.188 89.509,275.725z"/>
                <path id="path2979" fill="none" stroke="#010101" stroke-opacity="0.2235294117647059" stroke-width="2.998" stroke-linecap="round" stroke-linejoin="round" d="M278.078,165.617 L290.631,168.954 298.429,177.945 C304.043,183.506 314.161,187.985 328.776,191.433 333.564,189.895 338.634,186.478 344.035,181.192 352.625,172.511 354.357,161.856 349.224,149.276 346.081,141.514 349.5,133.085 359.473,124.04 L303.883,112.684 C291.593,110.155 280.153,109.705 269.595,111.44 Q256.778,115.618 268.129,128.334"/>
                <path id="path2980" fill="none" stroke="#010101" stroke-opacity="0.2235294117647059" stroke-width="2.998" stroke-linecap="round" stroke-linejoin="round" d="M276.16,140.31 C274.923,142.425 269.354,142.354 259.452,140.095 248.505,136.281 240.147,137.34 234.28,143.254 230.847,148.889 231.963,154.06 237.617,158.815 246.475,166.979 248.345,174.77 243.137,182.121 236.701,190.675 228.627,197.874 219.014,203.735 209.023,214.604 203.18,225.547 201.493,236.514"/>
                <path id="path2981" fill="none" stroke="#010101" stroke-opacity="0.2235294117647059" stroke-width="2.998" stroke-linecap="round" stroke-linejoin="round" d="M246.197,280.148 C244.502,270.511 240.107,258.061 232.922,242.733 227.036,224.945 231.877,209.055 247.445,195.062 255.24,189.438 258.896,181.102 258.455,170.113"/>
                <path id="path2982" fill="#E0DDDD" fill-opacity="0.7529411764705882" d="M268.129,128.334 L270.78,131.137 C275.328,135.545 277.122,138.602 276.16,140.31 283.004,145.225 290.064,148.351 297.355,149.59 306.732,148.509 306.745,145.568 297.402,140.718 L268.129,128.334z M265.681,162.257 C256.233,160.586 253.841,163.207 258.455,170.113 268.175,171.68 274.738,170.152 278.078,165.617 L265.681,162.257z M246.789,291.722 C247.207,288.497 246.983,284.601 246.197,280.148 233.458,264.092 218.527,249.525 201.493,236.514 200.643,241.895 200.803,247.303 201.973,252.737 199.617,259.171 194.559,260.509 186.817,256.653 183.137,252.501 179.35,252.389 175.441,256.417 167.093,267.171 157.196,275.214 145.779,280.655 162.585,276.878 176.487,274.313 187.502,272.861 198.518,271.41 205.532,270.773 208.577,271.058 211.573,271.334 216.265,272.925 222.604,275.823 232.482,280.513 240.579,285.803 246.789,291.722z M84.793,284.026 C87.206,281.001 88.761,278.232 89.509,275.725 62.134,288.188 46.274,293.502 41.97,291.726 31.63,298.828 34.068,305.704 49.193,312.288 L84.793,284.026z M74.831,258.869 L73.158,257.71 51.867,257.293 C53.299,259.526 54.288,261.68 54.884,263.764 56.012,264.268 57.034,264.804 57.899,265.363 62.706,262.002 68.363,259.856 74.831,258.869z M-1.8,201.214 C-0.423,203.183 1.247,204.645 3.25,205.659 36.819,195.764 34.666,187.568 -3.121,181.138 12.083,188.141 12.517,194.865 -1.8,201.214z"/>
                <path id="path2983" fill="none" stroke="#010101" stroke-opacity="0.2235294117647059" stroke-width="2.998" stroke-linecap="round" stroke-linejoin="round" d="M268.129,128.334 L270.78,131.137 C275.328,135.545 277.122,138.602 276.16,140.31"/>
                <path id="path2984" fill="none" stroke="#010101" stroke-opacity="0.2235294117647059" stroke-width="2.998" stroke-linecap="round" stroke-linejoin="round" d="M258.455,170.113 C268.175,171.68 274.738,170.152 278.078,165.617"/>
                <path id="path2985" fill="none" stroke="#010101" stroke-opacity="0.2235294117647059" stroke-width="2.998" stroke-linecap="round" stroke-linejoin="round" d="M49.193,312.288 L56.223,315.003 72.563,320.177 C73.942,324.43 80.978,325.674 93.722,323.92 96.592,328.639 107.177,330.765 125.577,330.315 155.931,332.285 185.952,328.105 215.755,317.696 225.853,314.255 234.864,308.643 242.787,300.859 C244.994,298.712 246.347,295.653 246.789,291.722"/>
                <path id="path2986" fill="none" stroke="#010101" stroke-opacity="0.2235294117647059" stroke-width="2.998" stroke-linecap="round" stroke-linejoin="round" d="M145.779,280.655 C134.033,286.24 120.704,289.008 105.735,288.999 94.811,287.929 87.794,286.282 84.793,284.026"/>
                <path id="path2987" fill="none" stroke="#010101" stroke-opacity="0.2235294117647059" stroke-width="2.998" stroke-linecap="round" stroke-linejoin="round" d="M246.789,291.722 C247.207,288.497 246.983,284.601 246.197,280.148"/>
                <path id="path2988" fill="none" stroke="#010101" stroke-opacity="0.2235294117647059" stroke-width="2.998" stroke-linecap="round" stroke-linejoin="round" d="M201.493,236.514 C200.643,241.895 200.803,247.303 201.973,252.737 199.617,259.171 194.559,260.509 186.817,256.653 183.137,252.501 179.35,252.389 175.441,256.417 167.093,267.171 157.196,275.214 145.779,280.655"/>
                <path id="path2989" fill="none" stroke="#010101" stroke-opacity="0.2235294117647059" stroke-width="2.998" stroke-linecap="round" stroke-linejoin="round" d="M73.158,257.71 C69.136,254.918 66.462,251.958 65.137,248.831 67.667,236.541 65.788,229.662 59.582,228.311 62.624,222.302 59.937,215.687 51.49,208.356 L53.983,201.439 C65.764,196.52 72.395,191.451 73.827,186.223 C75.149,181.332 71.772,177.182 63.599,173.757 55.179,170.288 43.442,168.364 28.337,167.976 11.703,167.622 -6.896,169.204 -27.48,172.82 -17.164,175.609 -9.034,178.417 -3.121,181.138"/>
                <path id="path2990" fill="none" stroke="#010101" stroke-opacity="0.2235294117647059" stroke-width="2.998" stroke-linecap="round" stroke-linejoin="round" d="M3.25,205.659 L8.329,207.065 6.85,215.431 C-6.242,233.211 2.555,240.857 33.241,238.368 42.07,245.258 48.26,251.58 51.867,257.293"/>
                <path id="path2991" fill="none" stroke="#010101" stroke-opacity="0.2235294117647059" stroke-width="2.998" stroke-linecap="round" stroke-linejoin="round" d="M84.793,284.026 C87.206,281.001 88.761,278.232 89.509,275.725"/>
                <path id="path2992" fill="none" stroke="#010101" stroke-opacity="0.2235294117647059" stroke-width="2.998" stroke-linecap="round" stroke-linejoin="round" d="M41.97,291.726 C31.63,298.828 34.068,305.704 49.193,312.288"/>
                <path id="path2993" fill="none" stroke="#010101" stroke-opacity="0.2235294117647059" stroke-width="2.998" stroke-linecap="round" stroke-linejoin="round" d="M89.509,275.725 C91.304,269.598 88.26,264.999 80.33,261.922 L74.831,258.869"/>
                <path id="path2994" fill="none" stroke="#010101" stroke-opacity="0.2235294117647059" stroke-width="2.998" stroke-linecap="round" stroke-linejoin="round" d="M57.899,265.363 C67.609,271.293 63.388,279.377 45.17,289.704 L41.97,291.726"/>
                <path id="path2995" fill="none" stroke="#010101" stroke-opacity="0.2235294117647059" stroke-width="2.998" stroke-linecap="round" stroke-linejoin="round" d="M74.831,258.869 L73.158,257.71"/>
                <path id="path2996" fill="none" stroke="#010101" stroke-opacity="0.2235294117647059" stroke-width="2.998" stroke-linecap="round" stroke-linejoin="round" d="M51.867,257.293 C53.299,259.526 54.288,261.68 54.884,263.764 56.012,264.268 57.034,264.804 57.899,265.363"/>
                <path id="path2997" fill="none" stroke="#010101" stroke-opacity="0.2235294117647059" stroke-width="2.998" stroke-linecap="round" stroke-linejoin="round" d="M-3.121,181.138 C12.083,188.141 12.517,194.865 -1.8,201.214 C-0.423,203.183 1.247,204.645 3.25,205.659"/>
              </g>
            </g>
          </g>
        </g>
      </g>
    </g>
  </g>
</svg>