<?xml version="1.0" encoding="utf-8"?>
<!-- Generator: flash2svg, http://dissentgraphics.com/tools/flash2svg -->
<svg xmlns:xlink="http://www.w3.org/1999/xlink" id="sprite.__20250.__20(Wings).__2F19" image-rendering="optimizeSpeed" baseProfile="basic" version="1.1" style="background-color:#ffffff" x="0px" y="0px" width="550px" height="400px" viewBox="0 0 550 400" enable-background="new 0 0 550 400" xmlns="http://www.w3.org/2000/svg">
  <defs transform="matrix(1 0 0 1 0 0) "/>
  <g id="sprite.__20250.__20(Wings).__2F19">
    <g id="Layer.__220">
      <g id="MovieClip.__2Fsprite.__20107_1" overflow="visible">
        <g id="Layer.__291">
          <g id="Graphic.__2Fshape.__2135_21" overflow="visible">
            <g id="Layer.__292">
              <g id="shape611">
                <path id="path853" fill="#000000" fill-opacity="1" d="M144.85,33 L143.5,32.75 142.6,32.9 134.25,32.6 C126.9,32.85 119.65,33.75 112.45,35.3 83.15,41.55 58.45,55.95 38.4,78.45 19.05,100.05 6.9,125.2 1.95,153.95 -3.3,184.4 1.65,213.2 16.75,240.25 31,265.9 51.15,285.65 77.2,299.5 L82.6,302.25 C107.15,314.25 133.15,319.55 160.65,318.1 180.3,316.85 198.3,311.55 214.55,302.25 223.3,297.2 231.55,291 239.35,283.65 261.1,262.95 274.95,237.8 280.85,208.2 286.7,178.7 284.4,149.9 273.9,121.75 263.35,93.6 245.1,71.75 219.05,56.25 196,42.5 171.25,34.75 144.85,33z M145.85,37.1 C160.6,37.65 174.65,40.75 188.1,46.4 L196.3,50.05 C194.05,52 191.8,55.8 189.45,61.45 188.25,64.35 187.15,67.45 186.2,70.7 L185.05,74.8 C178.5,71.85 171.5,69.55 164.05,67.9 L163.75,67.45 162.6,67.55 157.6,66.65 C151.65,65.6 145.85,65.1 140.3,65.1 140.95,64.15 141.25,62.6 141.15,60.4 141.1,58.3 140.85,55.2 140.35,51.15 140.35,48.9 141.35,45.85 143.35,42.05 L145.85,37.1z M159.7,70.95 L162.45,71.65 C163.6,74.5 166.7,79.3 171.65,86.1 L181.4,99.7 C181.4,100.85 179.65,105.05 176.2,112.4 172.55,120.2 169.65,125.4 167.5,128 165.65,125.95 162.6,120.1 158.3,110.45 154.2,101.25 152.15,96.1 152.15,95 152.15,93.85 153.65,89.95 156.65,83.4 L161.15,73.1 C161.15,72.7 160.65,72 159.7,70.95z M158.15,70.85 C151.65,84.85 148.4,92.85 148.4,94.85 150.45,101.75 152.8,108.6 155.55,115.4 160.95,128.95 165.3,135.7 168.65,135.7 169.45,135.7 172.4,130 177.5,118.65 182.6,107.3 185.15,100.8 185.15,99.2 L167.8,73.4 174.65,76.15 C188.95,82.5 201.05,90.9 210.95,101.4 209.35,103.65 207.7,107.15 206,111.85 204.8,115 203.75,118.3 202.85,121.75 202.05,124.75 201.65,126.6 201.65,127.35 201.65,127.5 202.3,129.1 203.6,132.05 205.15,135.65 206.8,139 208.45,142.15 213.5,151.85 217.5,156.7 220.4,156.7 221.1,156.7 223.05,152.15 226.25,143 228.3,137.05 229.65,132.85 230.35,130.35 L234.05,139.2 C244.95,168.6 242.45,196.75 226.55,223.6 210.35,250.95 186.5,265.45 155,267.1 123.35,268.35 96.9,257.3 75.65,234 54.5,210.75 46.9,183.75 52.9,153 54.55,146.7 56.55,140.65 59,134.9 58.65,136.65 58.5,138.35 58.5,139.9 58.5,140.65 61.15,145.15 66.5,153.3 72.2,162.05 76.1,166.45 78.25,166.45 79.5,166.45 80.1,166.25 79.95,165.9 80.25,163.75 82.65,157.25 87.1,146.4 91.45,135.9 93.65,130.1 93.65,129.05 93.65,127.35 90.25,124 83.45,119.05 76.6,114.1 73.2,111.1 73.2,110.1 L73.3,109.75 C79.55,101.3 86.95,93.55 95.5,86.6 98.6,84.1 101.75,81.85 104.9,79.85 L98.15,91.7 C93.15,100.55 90.65,105.45 90.65,106.45 90.65,106.7 94.65,112.65 102.7,124.2 110.8,135.85 115.15,141.7 115.75,141.7 117,141.7 117.65,141.4 117.65,140.75 117.9,137.65 119.8,130.4 123.25,119.05 126.5,108.3 128.15,100.95 128.15,96.9 128.15,94 125.35,90.05 119.7,85.1 L113.9,80.3 C112.15,78.85 111.25,78 111.25,77.75 111.25,77.3 111.55,76.65 112.15,75.85 126.9,68.55 142.35,66.85 158.6,70.7 L158.15,70.85z M193.2,66.35 C193.65,65.45 195.45,62.7 198.55,58.1 L201.85,52.85 C220.9,62.85 237.15,76 250.6,92.25 L251.85,93.85 C245.5,94.85 239.05,98.15 232.6,103.8 230.3,105.8 228.25,107.85 226.5,110 216.8,95.75 204.75,84.9 190.35,77.35 L191.1,74.65 C192.25,69.6 192.95,66.85 193.2,66.35z M217.55,109.1 L221.65,116.3 C225.3,122.9 227.15,126.75 227.15,127.9 227.15,130.3 226.05,133.85 223.9,138.5 221.5,143.6 220.15,147.5 219.85,150.15 218.7,148.9 216.25,145.55 212.45,140 207.75,133.15 205.4,128.85 205.4,127.1 205.4,125.9 206.7,122.1 209.25,115.65 211.3,110.4 212.85,106.7 213.9,104.65 L217.55,109.1z M236.5,107.95 L249.2,102.3 255.85,99.15 C265.05,112.3 271.4,127.55 274.95,145 L265.4,144.5 C260.45,144.5 255.25,146.45 249.85,150.35 247.9,151.7 246.3,153.1 245,154.55 242.65,141.05 237.65,128 230,115.35 L231.2,113.95 C234.4,110.1 236.15,108.1 236.5,107.95z M249.05,159.7 L252.15,155.95 C255.4,152.3 259.9,150.5 265.75,150.5 L276.05,150.95 C277,156.85 277.65,162.95 278,169.3 278.55,179.9 278.2,190.15 276.85,200 275.75,198.65 274.45,197.4 272.95,196.25 267,191.75 259.1,189.5 249.25,189.5 L245.05,189.95 C246.6,180.2 246.9,170.7 245.95,161.35 247,161.25 248.05,160.7 249.05,159.7z M271.4,203.7 L275.6,207.5 C272.45,223.95 266.55,239.4 257.8,253.75 254.45,259.3 250.8,264.4 246.85,269.15 L246.85,264.2 245.85,258.65 C245,254.3 243.95,250.3 242.75,246.65 239.4,236.8 235.45,231.1 230.8,229.65 236.35,220.8 240.5,210.7 243.2,199.35 L244.35,194 C245.3,194.7 247.1,195.3 249.7,195.75 257.35,197 262.55,198.05 265.4,198.9 266.4,199.2 268.4,200.8 271.4,203.7z M230.35,237.45 C234.1,241.85 237.15,247.35 239.5,254 239.95,255.35 240.25,257.45 240.4,260.3 L240.5,267.85 C240.55,271.05 240.95,273.4 241.6,274.9 231.55,285.35 219.75,293.4 206.25,299.15 206.8,297.5 207.25,295.5 207.65,293.2 208.3,289.1 208.6,284.8 208.6,280.25 L208.35,277.1 C208.1,274.65 207.75,272.45 207.3,270.4 205.75,263.95 203.4,260.75 200.15,260.75 199.15,260.75 198.35,261.05 197.75,261.7 197.2,262.2 196.95,262.75 196.95,263.4 196.95,263.85 197.25,264.6 197.9,265.7 L199.95,269.3 C201.95,273.05 202.95,276.7 202.95,280.25 202.95,281.5 202.1,285.45 200.35,292.1 L197.7,301.9 197.75,302.25 197.75,302.35 188.2,305.15 C173.8,308.75 159.45,310.3 145.15,309.85 146.55,307.9 147.9,305.4 149.2,302.35 L149.25,302.25 C152.3,294.9 153.85,288.2 153.85,282.15 154.15,278.15 154.05,275.2 153.55,273.25 165.7,272.65 177.85,269.6 190.05,264.15 205.8,257.05 218.3,247.15 227.5,234.5 L230.35,237.45z M147.65,291.15 C147.15,293.95 145.25,297.65 141.9,302.25 L140.3,304.4 136.2,309.35 C124.75,308.3 113.3,305.9 101.95,302.25 L101.1,302 91.25,298.35 C99.05,295.4 107.15,286.25 115.6,270.8 115.8,269.3 115.8,268.05 115.65,267.1 126.5,271.15 137.35,273.25 148.3,273.4 147.9,274.7 147.7,276.45 147.7,278.7 147.95,285.1 147.95,289.25 147.65,291.15z M84.45,63.35 C84.1,66.7 84.1,70.05 84.5,73.4 85.1,78.55 86.6,81.75 89.05,82.9 85.45,85.75 82,89 78.7,92.6 70.7,101.15 64.25,110.35 59.3,120.15 L58.6,119.6 C56.45,118 54.7,116.5 53.45,115.15 48.45,109.7 45.95,102.45 45.95,93.35 45.95,91.75 46.7,86 48.2,76.15 48.2,75.2 47.95,74.45 47.5,74 58.55,62.8 71.3,54.15 85.7,48 85.1,49.45 84.7,51.35 84.5,53.75 84.3,55.6 84.25,57.7 84.3,60.05 L84.45,63.35z M90.1,63.7 C90.1,62.45 90.85,57.2 92.35,47.95 92.3,46.95 92.1,46.2 91.7,45.65 96.35,43.95 101.15,42.5 106.15,41.3 117.25,38.65 128.05,37.2 138.55,37 137.75,38.65 137.05,40.7 136.45,43.25 135.3,47.9 134.7,51.75 134.7,54.8 134.55,56.75 134.55,58.7 134.75,60.6 135,62.75 135.5,64.3 136.25,65.2 120.9,65.85 107.05,70.4 94.6,78.85 L92.9,76.85 C91.2,75.1 90.25,73.75 90.1,72.7 L90.1,63.7z M109.2,81.15 L117.8,88.7 C122.2,92.85 124.4,95.7 124.4,97.25 124.4,100.1 122.8,106.6 119.6,116.75 L114.25,133.1 C113.6,131.95 110.05,127.3 103.6,119.15 97.85,111.8 94.95,107.75 94.95,107 101.9,89.75 106.45,81.15 108.65,81.15 L109.2,81.15z M81.45,122.15 C87.1,126.35 89.9,128.8 89.9,129.5 89.9,131.8 85.5,141.8 76.75,159.5 75.7,158.55 73.2,155.5 69.15,150.35 64.55,144.45 62.25,140.9 62.25,139.7 62.25,136.4 63.25,132.35 65.2,127.5 L70.75,114.7 C72.5,115.55 76.1,118.05 81.45,122.15z"/>
                <path id="path854" fill="#F3E3A5" fill-opacity="1" d="M145.85,37.1 L143.35,42.05 C141.35,45.85 140.35,48.9 140.35,51.15 140.85,55.2 141.1,58.3 141.15,60.4 141.25,62.6 140.95,64.15 140.3,65.1 145.85,65.1 151.65,65.6 157.6,66.65 L162.6,67.55 163.75,67.45 164.05,67.9 C171.5,69.55 178.5,71.85 185.05,74.8 L186.2,70.7 C187.15,67.45 188.25,64.35 189.45,61.45 191.8,55.8 194.05,52 196.3,50.05 L188.1,46.4 C174.65,40.75 160.6,37.65 145.85,37.1z"/>
                <path id="path855" fill="#EAEAEA" fill-opacity="1" d="M159.7,70.95 C160.65,72 161.15,72.7 161.15,73.1 L156.65,83.4 C153.65,89.95 152.15,93.85 152.15,95 152.15,96.1 154.2,101.25 158.3,110.45 162.6,120.1 165.65,125.95 167.5,128 169.65,125.4 172.55,120.2 176.2,112.4 179.65,105.05 181.4,100.85 181.4,99.7 L171.65,86.1 C166.7,79.3 163.6,74.5 162.45,71.65 L159.7,70.95z"/>
                <path id="path856" fill="#F3E3A5" fill-opacity="1" d="M193.2,66.35 C192.95,66.85 192.25,69.6 191.1,74.65 L190.35,77.35 C204.75,84.9 216.8,95.75 226.5,110 228.25,107.85 230.3,105.8 232.6,103.8 239.05,98.15 245.5,94.85 251.85,93.85 L250.6,92.25 C237.15,76 220.9,62.85 201.85,52.85 L198.55,58.1 C195.45,62.7 193.65,65.45 193.2,66.35z"/>
                <path id="path857" fill="#EAEAEA" fill-opacity="1" d="M217.55,109.1 L213.9,104.65 C212.85,106.7 211.3,110.4 209.25,115.65 206.7,122.1 205.4,125.9 205.4,127.1 205.4,128.85 207.75,133.15 212.45,140 216.25,145.55 218.7,148.9 219.85,150.15 220.15,147.5 221.5,143.6 223.9,138.5 226.05,133.85 227.15,130.3 227.15,127.9 227.15,126.75 225.3,122.9 221.65,116.3 L217.55,109.1z"/>
                <path id="path858" fill="#F3E3A5" fill-opacity="1" d="M236.5,107.95 C236.15,108.1 234.4,110.1 231.2,113.95 L230,115.35 C237.65,128 242.65,141.05 245,154.55 246.3,153.1 247.9,151.7 249.85,150.35 255.25,146.45 260.45,144.5 265.4,144.5 L274.95,145 C271.4,127.55 265.05,112.3 255.85,99.15 L249.2,102.3 236.5,107.95z"/>
                <path id="path859" fill="#F3E3A5" fill-opacity="1" d="M249.05,159.7 C248.05,160.7 247,161.25 245.95,161.35 246.9,170.7 246.6,180.2 245.05,189.95 L249.25,189.5 C259.1,189.5 267,191.75 272.95,196.25 274.45,197.4 275.75,198.65 276.85,200 278.2,190.15 278.55,179.9 278,169.3 277.65,162.95 277,156.85 276.05,150.95 L265.75,150.5 C259.9,150.5 255.4,152.3 252.15,155.95 L249.05,159.7z"/>
                <path id="path860" fill="#F3E3A5" fill-opacity="1" d="M271.4,203.7 C268.4,200.8 266.4,199.2 265.4,198.9 262.55,198.05 257.35,197 249.7,195.75 247.1,195.3 245.3,194.7 244.35,194 L243.2,199.35 C240.5,210.7 236.35,220.8 230.8,229.65 235.45,231.1 239.4,236.8 242.75,246.65 243.95,250.3 245,254.3 245.85,258.65 L246.85,264.2 246.85,269.15 C250.8,264.4 254.45,259.3 257.8,253.75 266.55,239.4 272.45,223.95 275.6,207.5 L271.4,203.7z"/>
                <path id="path861" fill="#F3E3A5" fill-opacity="1" d="M230.35,237.45 L227.5,234.5 C218.3,247.15 205.8,257.05 190.05,264.15 177.85,269.6 165.7,272.65 153.55,273.25 154.05,275.2 154.15,278.15 153.85,282.15 153.85,288.2 152.3,294.9 149.25,302.25 L149.2,302.35 C147.9,305.4 146.55,307.9 145.15,309.85 159.45,310.3 173.8,308.75 188.2,305.15 L197.75,302.35 197.75,302.25 197.7,301.9 200.35,292.1 C202.1,285.45 202.95,281.5 202.95,280.25 202.95,276.7 201.95,273.05 199.95,269.3 L197.9,265.7 C197.25,264.6 196.95,263.85 196.95,263.4 196.95,262.75 197.2,262.2 197.75,261.7 198.35,261.05 199.15,260.75 200.15,260.75 203.4,260.75 205.75,263.95 207.3,270.4 207.75,272.45 208.1,274.65 208.35,277.1 L208.6,280.25 C208.6,284.8 208.3,289.1 207.65,293.2 207.25,295.5 206.8,297.5 206.25,299.15 219.75,293.4 231.55,285.35 241.6,274.9 240.95,273.4 240.55,271.05 240.5,267.85 L240.4,260.3 C240.25,257.45 239.95,255.35 239.5,254 237.15,247.35 234.1,241.85 230.35,237.45z"/>
                <path id="path862" fill="#F3E3A5" fill-opacity="1" d="M147.65,291.15 C147.95,289.25 147.95,285.1 147.7,278.7 147.7,276.45 147.9,274.7 148.3,273.4 137.35,273.25 126.5,271.15 115.65,267.1 115.8,268.05 115.8,269.3 115.6,270.8 107.15,286.25 99.05,295.4 91.25,298.35 L101.1,302 101.95,302.25 C113.3,305.9 124.75,308.3 136.2,309.35 L140.3,304.4 141.9,302.25 C145.25,297.65 147.15,293.95 147.65,291.15z"/>
                <path id="path863" fill="#F3E3A5" fill-opacity="1" d="M84.45,63.35 L84.3,60.05 C84.25,57.7 84.3,55.6 84.5,53.75 84.7,51.35 85.1,49.45 85.7,48 71.3,54.15 58.55,62.8 47.5,74 47.95,74.45 48.2,75.2 48.2,76.15 46.7,86 45.95,91.75 45.95,93.35 45.95,102.45 48.45,109.7 53.45,115.15 54.7,116.5 56.45,118 58.6,119.6 L59.3,120.15 C64.25,110.35 70.7,101.15 78.7,92.6 82,89 85.45,85.75 89.05,82.9 86.6,81.75 85.1,78.55 84.5,73.4 84.1,70.05 84.1,66.7 84.45,63.35z"/>
                <path id="path864" fill="#F3E3A5" fill-opacity="1" d="M90.1,63.7 L90.1,72.7 C90.25,73.75 91.2,75.1 92.9,76.85 L94.6,78.85 C107.05,70.4 120.9,65.85 136.25,65.2 135.5,64.3 135,62.75 134.75,60.6 134.55,58.7 134.55,56.75 134.7,54.8 134.7,51.75 135.3,47.9 136.45,43.25 137.05,40.7 137.75,38.65 138.55,37 128.05,37.2 117.25,38.65 106.15,41.3 101.15,42.5 96.35,43.95 91.7,45.65 92.1,46.2 92.3,46.95 92.35,47.95 90.85,57.2 90.1,62.45 90.1,63.7z M40.35,82.85 L39.85,82.45 40.45,81.7 40.35,82.85z M40.35,82.85 L39.85,82.45 35.45,88.1 C23.75,103.85 15.5,120.9 10.65,139.15 L14.05,143.8 C17,147.95 18.85,150.15 19.5,150.5 26.95,154.75 34.25,157.35 41.4,158.35 L47.05,159 48,159.2 C49.25,146.95 52.3,135.45 57.15,124.65 49.7,124.5 44.65,119.4 42.05,109.25 40.7,104.05 40.15,98.6 40.3,92.95 L40.15,89.6 40.35,82.85z M8.75,147.1 C7.2,154.5 6.25,162.1 5.8,169.85 5.2,180 5.75,189.85 7.45,199.35 8.4,199.55 9.8,200.1 11.75,201.05 L19.55,205.1 C27.35,208.95 33.75,210.9 38.7,210.9 41.45,210.9 44.05,210.1 46.55,208.45 49,206.8 50.4,206 50.65,206 52.4,206 53.35,206.95 53.45,208.9 53.45,210.25 51.9,211.9 48.8,213.85 45.55,215.9 42.5,216.9 39.75,216.9 32.05,216.9 23.75,214.5 14.8,209.75 L8.85,206.25 C12.7,222.3 19.95,237.4 30.6,251.55 L33.55,255.3 C35.45,255.2 38.25,255.15 41.9,255.15 52.5,255.15 60.8,252.95 66.8,248.6 L72.05,244.1 C73.6,242.7 74.9,242 76,242 L76.15,241.9 C64.15,229.75 55.7,214.7 50.8,196.75 48.55,188.6 47.4,180.4 47.35,172.05 47.35,168.8 47.45,165.65 47.7,162.55 L47.45,162.5 41.65,162.9 C29.55,162.9 20.1,159.55 13.35,152.9 11.5,151.1 10,149.15 8.75,147.1z M47.45,162.5 L47.7,162.4 47.7,162.55 47.45,162.5z M76,242 L76.15,241.9 76.25,242 76,242z M78.85,245.2 C78.85,246.45 78,247.9 76.35,249.65 74.55,251.55 72.15,253.3 69.1,254.9 61.3,259.05 51.9,261.15 40.9,261.15 L38.45,261.1 C51.4,275.65 66.6,287 84.15,295.25 86.7,292.8 93.3,287.8 103.95,280.25 105.1,279.3 106.55,276.3 108.4,271.2 109.45,268.35 110.4,266.4 111.3,265.4 L106.35,263.15 C95.95,258.1 86.9,252 79.15,244.85 L78.85,245.2z"/>
                <path id="path865" fill="#EAEAEA" fill-opacity="1" d="M109.2,81.15 L108.65,81.15 C106.45,81.15 101.9,89.75 94.95,107 94.95,107.75 97.85,111.8 103.6,119.15 110.05,127.3 113.6,131.95 114.25,133.1 L119.6,116.75 C122.8,106.6 124.4,100.1 124.4,97.25 124.4,95.7 122.2,92.85 117.8,88.7 L109.2,81.15z"/>
                <path id="path866" fill="#EAEAEA" fill-opacity="1" d="M81.45,122.15 C76.1,118.05 72.5,115.55 70.75,114.7 L65.2,127.5 C63.25,132.35 62.25,136.4 62.25,139.7 62.25,140.9 64.55,144.45 69.15,150.35 73.2,155.5 75.7,158.55 76.75,159.5 85.5,141.8 89.9,131.8 89.9,129.5 89.9,128.8 87.1,126.35 81.45,122.15z M79.15,244.85 L78.85,245.2 78.8,244.5 79.15,244.85z"/>
              </g>
            </g>
          </g>
        </g>
      </g>
    </g>
  </g>
</svg>