<?xml version="1.0" encoding="utf-8"?>
<!-- Generator: flash2svg, http://dissentgraphics.com/tools/flash2svg -->
<svg xmlns:xlink="http://www.w3.org/1999/xlink" id="sprite.__20250.__20(Wings).__2F24" image-rendering="optimizeSpeed" baseProfile="basic" version="1.1" style="background-color:#ffffff" x="0px" y="0px" width="550px" height="400px" viewBox="0 0 550 400" enable-background="new 0 0 550 400" xmlns="http://www.w3.org/2000/svg">
  <defs transform="matrix(1 0 0 1 0 0) "/>
  <g id="sprite.__20250.__20(Wings).__2F24">
    <g id="Layer.__225">
      <g id="Graphic.__2Fshape.__2133_1" overflow="visible">
        <g id="Layer.__302">
          <g id="shape621">
            <path id="path967" fill="#000000" fill-opacity="0.7529411764705882" d="M254,182.65 L253.9,182.55 253.85,182.65 249.75,182.8 C235.8,183.3 223.35,185.05 212.4,188.05 202.35,190.8 192.85,194.55 183.95,199.3 175.35,203.9 168.5,208.8 163.35,213.95 158.05,219.3 155.4,224.15 155.4,228.55 155.4,229.3 155.6,230.15 156.05,231 154.3,232.7 152.25,235.55 149.85,239.5 146.9,244.45 145.4,247.45 145.4,248.4 145.4,248.65 146.45,249.75 148.5,251.6 150.85,253.75 153.45,255.8 156.2,257.8 160.85,261.2 164.9,263.6 168.35,265.05 L168.2,265.4 C168.15,265.75 168.3,266.05 168.65,266.3 169.8,267.15 172.85,267.55 177.9,267.55 204.15,267.55 225,256.4 240.4,234.05 245.55,226.6 249.7,218.4 252.85,209.5 255.2,202.75 256.4,197.95 256.4,195.05 L256.3,188.3 255.9,182.6 254,182.65z M251.9,190.9 L250.2,202.6 C245.9,213.35 243,220.1 241.5,222.85 240,225.55 237.05,229.7 232.6,235.35 228.15,241 223.8,245.15 219.65,247.8 211.5,253.05 200.5,257.45 186.6,260.95 L176.95,262.9 165,257.15 C156.45,252.8 152.15,249.6 152.15,247.65 157.65,239.5 160.4,234.75 160.4,233.4 L160.15,231.5 C160.3,226.9 163.05,222.1 168.3,217.05 172.25,213.2 178.45,208.65 186.9,203.3 197.8,196.4 212.35,191.8 230.5,189.45 L246.9,187.75 C249.75,187.45 251.65,187.1 252.65,186.65 L251.9,190.9z M30.5,182.55 L30.4,182.65 28.5,182.6 28.1,188.3 28,195.05 C28,197.95 29.2,202.75 31.55,209.5 34.7,218.4 38.85,226.6 44,234.05 59.4,256.4 80.25,267.55 106.5,267.55 111.55,267.55 114.6,267.15 115.75,266.3 116.1,266.05 116.25,265.75 116.2,265.4 L116.05,265.05 C119.5,263.6 123.55,261.2 128.2,257.8 130.95,255.8 133.55,253.75 135.9,251.6 L139,248.4 C139,247.45 137.5,244.45 134.55,239.5 132.15,235.55 130.1,232.7 128.35,231 128.8,230.15 129,229.3 129,228.55 129,224.15 126.35,219.3 121.05,213.95 115.9,208.8 109.05,203.9 100.45,199.3 91.55,194.55 82.05,190.8 72,188.05 61.05,185.05 48.6,183.3 34.7,182.8 L30.55,182.65 30.5,182.55z M31.8,186.65 C32.75,187.1 34.65,187.45 37.5,187.75 L53.9,189.45 C72.05,191.8 86.6,196.4 97.5,203.3 105.95,208.65 112.15,213.2 116.1,217.05 121.35,222.1 124.1,226.9 124.25,231.5 124.1,231.95 124,232.55 124,233.4 124,234.75 126.75,239.5 132.25,247.65 132.25,249.6 127.95,252.8 119.4,257.15 L107.45,262.9 97.8,260.95 C83.9,257.45 72.9,253.05 64.75,247.8 60.6,245.15 56.3,241 51.85,235.35 47.4,229.7 44.4,225.55 42.9,222.85 41.4,220.1 38.5,213.35 34.2,202.6 L32.5,190.9 31.8,186.65z M106.45,273.85 C105.85,273.1 105.2,272.6 104.5,272.3 100.45,270.55 94.95,271 87.95,273.75 81.2,276.4 74,280.7 66.35,286.75 58.45,293 51.25,300.2 44.7,308.3 37.55,317.15 31,327.85 25,340.4 L23.25,344.1 23.1,344.1 23.15,344.25 22.35,345.95 27.4,348.6 33.55,351.35 C36.2,352.5 41.1,353.35 48.2,353.9 57.6,354.55 66.75,354.05 75.65,352.3 102.2,347.1 120.75,332.5 131.2,308.45 133.2,303.8 134.05,300.8 133.75,299.45 133.65,299 133.45,298.75 133.1,298.7 L132.7,298.7 C132.8,294.95 132.2,290.25 130.95,284.7 130.2,281.35 129.35,278.2 128.35,275.15 127.45,272.5 126.9,271.15 126.65,271.05 L116.7,271.6 C112.1,272.15 108.7,272.9 106.45,273.85z M106.95,278.8 C108.15,279.35 113.6,278.7 123.25,276.95 125.05,277.7 126.25,282.9 126.85,292.5 L127.35,305.7 121.7,313.75 C112.95,325.1 104.55,333.4 96.5,338.75 92.35,341.5 86.85,343.8 79.95,345.65 73,347.45 68,348.5 64.9,348.8 61.8,349.1 54.5,349.05 42.95,348.7 L31.55,345.6 27.35,344.55 C28.15,343.85 29.25,342.25 30.65,339.75 33.8,334 36.5,329.2 38.75,325.45 48.1,309.75 58.15,298.3 68.8,291.05 77.05,285.45 83.7,281.6 88.8,279.5 95.5,276.7 101,276.15 105.25,277.8 L106.95,278.8z M156.1,275.15 C155.05,278.2 154.2,281.35 153.5,284.7 152.2,290.25 151.6,294.95 151.7,298.7 L151.3,298.7 C150.95,298.75 150.75,299 150.65,299.45 150.35,300.8 151.2,303.8 153.2,308.45 163.65,332.5 182.2,347.1 208.8,352.3 217.65,354.05 226.8,354.55 236.2,353.9 243.3,353.35 248.2,352.5 250.85,351.35 L257,348.6 C257.65,348.2 259.35,347.3 262.05,345.95 L261.25,344.25 261.3,344.1 261.2,344.1 259.4,340.4 C253.4,327.85 246.85,317.15 239.75,308.3 233.2,300.2 225.95,293 218.1,286.75 210.45,280.7 203.2,276.4 196.45,273.75 189.45,271 183.95,270.55 179.95,272.3 179.2,272.6 178.55,273.1 177.95,273.85 175.7,272.9 172.3,272.15 167.7,271.6 L157.8,271.05 C157.55,271.15 156.95,272.5 156.1,275.15z M161.15,276.95 C170.8,278.7 176.25,279.35 177.5,278.8 L179.15,277.8 C183.4,276.15 188.9,276.7 195.6,279.5 200.7,281.6 207.35,285.45 215.6,291.05 226.25,298.3 236.3,309.75 245.65,325.45 L253.75,339.75 C255.15,342.25 256.25,343.85 257.05,344.55 L252.85,345.6 241.5,348.7 C229.95,349.05 222.6,349.1 219.5,348.8 216.4,348.5 211.4,347.45 204.5,345.65 197.55,343.8 192.05,341.5 187.95,338.75 179.9,333.4 171.5,325.1 162.75,313.75 L157.1,305.7 C157.15,301.2 157.3,296.8 157.6,292.5 158.15,282.9 159.35,277.7 161.15,276.95z"/>
            <path id="path968" fill="#FFDDDD" fill-opacity="0.5019607843137255" d="M251.9,190.9 L252.65,186.65 C251.65,187.1 249.75,187.45 246.9,187.75 L230.5,189.45 C212.35,191.8 197.8,196.4 186.9,203.3 178.45,208.65 172.25,213.2 168.3,217.05 163.05,222.1 160.3,226.9 160.15,231.5 L160.4,233.4 C160.4,234.75 157.65,239.5 152.15,247.65 152.15,249.6 156.45,252.8 165,257.15 L176.95,262.9 186.6,260.95 C200.5,257.45 211.5,253.05 219.65,247.8 223.8,245.15 228.15,241 232.6,235.35 237.05,229.7 240,225.55 241.5,222.85 243,220.1 245.9,213.35 250.2,202.6 L251.9,190.9z"/>
            <path id="path969" fill="#FFDDDD" fill-opacity="0.5019607843137255" d="M31.8,186.65 L32.5,190.9 34.2,202.6 C38.5,213.35 41.4,220.1 42.9,222.85 44.4,225.55 47.4,229.7 51.85,235.35 56.3,241 60.6,245.15 64.75,247.8 72.9,253.05 83.9,257.45 97.8,260.95 L107.45,262.9 119.4,257.15 C127.95,252.8 132.25,249.6 132.25,247.65 126.75,239.5 124,234.75 124,233.4 124,232.55 124.1,231.95 124.25,231.5 124.1,226.9 121.35,222.1 116.1,217.05 112.15,213.2 105.95,208.65 97.5,203.3 86.6,196.4 72.05,191.8 53.9,189.45 L37.5,187.75 C34.65,187.45 32.75,187.1 31.8,186.65z"/>
            <path id="path970" fill="#FFDDDD" fill-opacity="0.5019607843137255" d="M106.95,278.8 L105.25,277.8 C101,276.15 95.5,276.7 88.8,279.5 83.7,281.6 77.05,285.45 68.8,291.05 58.15,298.3 48.1,309.75 38.75,325.45 36.5,329.2 33.8,334 30.65,339.75 29.25,342.25 28.15,343.85 27.35,344.55 L31.55,345.6 42.95,348.7 C54.5,349.05 61.8,349.1 64.9,348.8 68,348.5 73,347.45 79.95,345.65 86.85,343.8 92.35,341.5 96.5,338.75 104.55,333.4 112.95,325.1 121.7,313.75 L127.35,305.7 126.85,292.5 C126.25,282.9 125.05,277.7 123.25,276.95 113.6,278.7 108.15,279.35 106.95,278.8z"/>
            <path id="path971" fill="#FFDDDD" fill-opacity="0.5019607843137255" d="M161.15,276.95 C159.35,277.7 158.15,282.9 157.6,292.5 157.3,296.8 157.15,301.2 157.1,305.7 L162.75,313.75 C171.5,325.1 179.9,333.4 187.95,338.75 192.05,341.5 197.55,343.8 204.5,345.65 211.4,347.45 216.4,348.5 219.5,348.8 222.6,349.1 229.95,349.05 241.5,348.7 L252.85,345.6 257.05,344.55 C256.25,343.85 255.15,342.25 253.75,339.75 L245.65,325.45 C236.3,309.75 226.25,298.3 215.6,291.05 207.35,285.45 200.7,281.6 195.6,279.5 188.9,276.7 183.4,276.15 179.15,277.8 L177.5,278.8 C176.25,279.35 170.8,278.7 161.15,276.95z"/>
          </g>
        </g>
      </g>
    </g>
  </g>
</svg>