<?xml version="1.0" encoding="utf-8"?>
<!-- Generator: flash2svg, http://dissentgraphics.com/tools/flash2svg -->
<svg xmlns:xlink="http://www.w3.org/1999/xlink" id="sprite.__20250.__20(Wings).__2F48" image-rendering="optimizeSpeed" baseProfile="basic" version="1.1" style="background-color:#ffffff" x="0px" y="0px" width="550px" height="400px" viewBox="0 0 550 400" enable-background="new 0 0 550 400" xmlns="http://www.w3.org/2000/svg">
  <defs transform="matrix(1 0 0 1 0 0) "/>
  <g id="sprite.__20250.__20(Wings).__2F48">
    <g id="Layer.__222">
      <g id="MovieClip.__2Fsprite.__20160_1" overflow="visible">
        <g id="Layer.__416">
          <g id="Graphic.__2Fshape.__20181_10" overflow="visible">
            <g id="Layer.__417">
              <g id="shape520">
                <path id="path1560" fill="none" stroke="#8F4E62" stroke-opacity="1" stroke-width="6.324" stroke-linecap="round" stroke-linejoin="round" d="M272.682,277.378 L224.22,247.382 C225.65,250.12 225.837,252.946 224.803,255.8 223.511,259.368 221.164,261.948 217.724,263.46 L217.422,263.553 C213.863,265.022 210.243,264.988 206.604,263.334 202.966,261.68 200.245,259.35 198.544,256.245 L197.221,252.47 C196.953,250.422 197.248,248.309 198.045,246.109 199.358,242.482 202.359,240.138 206.989,239.057 Q180.471,227.771 147.522,223.103"/>
                <path id="path1561" fill="none" stroke="#E1C8D0" stroke-opacity="1" stroke-width="3.795" stroke-linecap="round" stroke-linejoin="round" d="M147.522,223.103 C141.102,239.343 140.173,256.024 144.674,273.125 L156.171,267.939 C156.551,277.292 158.96,285.496 163.443,292.434 171.57,292.283 178.207,290.113 183.319,285.843 L183.928,301.803 C190.233,300.925 194.925,298.185 198.025,293.523 204.691,312.821 212.996,325.178 222.982,330.477 L229.653,308.341 C236.688,312.503 244.87,313.314 254.295,310.875 L248.609,296.305 C264.97,301.087 279.037,298.648 290.766,289.106 283.528,286.619 277.487,282.683 272.682,277.378"/>
                <path id="path1562" fill="#EAD9DF" fill-opacity="1" d="M147.522,223.103 Q180.471,227.771 206.989,239.057 C202.359,240.138 199.358,242.482 198.045,246.109 197.248,248.309 196.953,250.422 197.221,252.47 L163.958,272.441 L197.221,252.47 198.544,256.245 C200.245,259.35 202.966,261.68 206.604,263.334 210.243,264.988 213.863,265.022 217.422,263.553 L217.681,263.579 L217.674,299.63 L217.681,263.579 217.724,263.46 C221.164,261.948 223.511,259.368 224.803,255.8 225.837,252.946 225.65,250.12 224.22,247.382 L272.682,277.378 C277.487,282.683 283.528,286.619 290.766,289.106 279.037,298.648 264.97,301.087 248.609,296.305 L254.295,310.875 C244.87,313.314 236.688,312.503 229.653,308.341 L222.982,330.477 C212.996,325.178 204.691,312.821 198.025,293.523 194.925,298.185 190.233,300.925 183.928,301.803 L183.319,285.843 C178.207,290.113 171.57,292.283 163.443,292.434 158.96,285.496 156.551,277.292 156.171,267.939 L144.674,273.125 C140.173,256.024 141.102,239.343 147.522,223.103z"/>
                <path id="path1563" fill="none" stroke="#8F4E62" stroke-opacity="1" stroke-width="6.324" stroke-linecap="round" stroke-linejoin="round" d="M147.522,223.103 Q180.471,227.771 206.989,239.057 C202.359,240.138 199.358,242.482 198.045,246.109 197.248,248.309 196.953,250.422 197.221,252.47 L163.958,272.441 L197.221,252.47 198.544,256.245 C200.245,259.35 202.966,261.68 206.604,263.334 210.243,264.988 213.863,265.022 217.422,263.553"/>
                <path id="path1564" fill="none" stroke="#8F4E62" stroke-opacity="1" stroke-width="6.324" stroke-linecap="round" stroke-linejoin="round" d="M217.674,299.63 L217.681,263.579 217.724,263.46 C221.164,261.948 223.511,259.368 224.803,255.8 225.837,252.946 225.65,250.12 224.22,247.382 L272.682,277.378"/>
                <path id="path1565" fill="none" stroke="#E1C8D0" stroke-opacity="1" stroke-width="3.795" stroke-linecap="round" stroke-linejoin="round" d="M272.682,277.378 C277.487,282.683 283.528,286.619 290.766,289.106 279.037,298.648 264.97,301.087 248.609,296.305 L254.295,310.875 C244.87,313.314 236.688,312.503 229.653,308.341 L222.982,330.477 C212.996,325.178 204.691,312.821 198.025,293.523 194.925,298.185 190.233,300.925 183.928,301.803 L183.319,285.843 C178.207,290.113 171.57,292.283 163.443,292.434 158.96,285.496 156.551,277.292 156.171,267.939 L144.674,273.125 C140.173,256.024 141.102,239.343 147.522,223.103"/>
                <path id="path1566" fill="none" stroke="#8F4E62" stroke-opacity="1" stroke-width="6.324" stroke-linecap="round" stroke-linejoin="round" d="M217.422,263.553 L217.724,263.46 217.681,263.579"/>
              </g>
            </g>
          </g>
        </g>
      </g>
    </g>
    <g id="Layer.__223">
      <g id="MovieClip.__2Fsprite.__20160_2" overflow="visible">
        <g id="Layer.__418">
          <g id="Graphic.__2Fshape.__20181_11" overflow="visible">
            <g id="Layer.__419">
              <g id="shape521">
                <path id="path1567" fill="none" stroke="#8F4E62" stroke-opacity="1" stroke-width="6.332" stroke-linecap="round" stroke-linejoin="round" d="M17.567,273.4 L67.612,245.991 C66.037,248.652 65.699,251.467 66.581,254.376 67.683,258.011 69.892,260.716 73.251,262.41 L73.548,262.519 C77.028,264.176 80.649,264.336 84.374,262.876 88.1,261.416 90.944,259.23 92.809,256.217 L94.333,252.513 C94.709,250.481 94.527,248.353 93.848,246.111 92.727,242.415 89.851,239.912 85.281,238.585 Q112.392,228.713 145.58,225.799"/>
                <path id="path1568" fill="none" stroke="#E1C8D0" stroke-opacity="1" stroke-width="3.799" stroke-linecap="round" stroke-linejoin="round" d="M145.58,225.799 C151.134,242.375 151.176,259.101 145.766,275.958 L134.549,270.162 C133.672,279.491 130.826,287.565 125.976,294.262 117.86,293.679 111.339,291.157 106.456,286.616 L104.998,302.539 C98.742,301.326 94.197,298.337 91.345,293.512 83.655,312.449 74.695,324.361 64.43,329.127 L58.938,306.643 C51.683,310.43 43.461,310.805 34.167,307.866 L40.628,293.602 C24.016,297.512 10.083,294.326 -1.135,284.163 6.233,282.062 12.481,278.448 17.567,273.4"/>
                <path id="path1569" fill="#EAD9DF" fill-opacity="1" d="M145.58,225.799 Q112.392,228.713 85.281,238.585 C89.851,239.912 92.727,242.415 93.848,246.111 94.527,248.353 94.709,250.481 94.333,252.513 L126.525,274.248 L94.333,252.513 92.809,256.217 C90.944,259.23 88.1,261.416 84.374,262.876 80.649,264.336 77.028,264.176 73.548,262.519 L73.287,262.531 L71.377,298.572 L73.287,262.531 73.251,262.41 C69.892,260.716 67.683,258.011 66.581,254.376 65.699,251.467 66.037,248.652 67.612,245.991 L17.567,273.4 C12.481,278.448 6.233,282.062 -1.135,284.163 10.083,294.326 24.016,297.512 40.628,293.602 L34.167,307.866 C43.461,310.805 51.683,310.43 58.938,306.643 L64.43,329.127 C74.695,324.361 83.655,312.449 91.345,293.512 94.197,298.337 98.742,301.326 104.998,302.539 L106.456,286.616 C111.339,291.157 117.86,293.679 125.976,294.262 130.826,287.565 133.672,279.491 134.549,270.162 L145.766,275.958 C151.176,259.101 151.134,242.375 145.58,225.799z"/>
                <path id="path1570" fill="none" stroke="#8F4E62" stroke-opacity="1" stroke-width="6.332" stroke-linecap="round" stroke-linejoin="round" d="M145.58,225.799 Q112.392,228.713 85.281,238.585 C89.851,239.912 92.727,242.415 93.848,246.111 94.527,248.353 94.709,250.481 94.333,252.513 L126.525,274.248 L94.333,252.513 92.809,256.217 C90.944,259.23 88.1,261.416 84.374,262.876 80.649,264.336 77.028,264.176 73.548,262.519"/>
                <path id="path1571" fill="none" stroke="#8F4E62" stroke-opacity="1" stroke-width="6.332" stroke-linecap="round" stroke-linejoin="round" d="M71.377,298.572 L73.287,262.531 73.251,262.41 C69.892,260.716 67.683,258.011 66.581,254.376 65.699,251.467 66.037,248.652 67.612,245.991 L17.567,273.4"/>
                <path id="path1572" fill="none" stroke="#E1C8D0" stroke-opacity="1" stroke-width="3.799" stroke-linecap="round" stroke-linejoin="round" d="M17.567,273.4 C12.481,278.448 6.233,282.062 -1.135,284.163 10.083,294.326 24.016,297.512 40.628,293.602 L34.167,307.866 C43.461,310.805 51.683,310.43 58.938,306.643 L64.43,329.127 C74.695,324.361 83.655,312.449 91.345,293.512 94.197,298.337 98.742,301.326 104.998,302.539 L106.456,286.616 C111.339,291.157 117.86,293.679 125.976,294.262 130.826,287.565 133.672,279.491 134.549,270.162 L145.766,275.958 C151.176,259.101 151.134,242.375 145.58,225.799"/>
                <path id="path1573" fill="none" stroke="#8F4E62" stroke-opacity="1" stroke-width="6.332" stroke-linecap="round" stroke-linejoin="round" d="M73.548,262.519 L73.251,262.41 73.287,262.531"/>
              </g>
            </g>
          </g>
        </g>
      </g>
    </g>
  </g>
</svg>