<?xml version="1.0" encoding="utf-8"?>
<!-- Generator: flash2svg, http://dissentgraphics.com/tools/flash2svg -->
<svg xmlns:xlink="http://www.w3.org/1999/xlink" id="sprite.__20250.__20(Wings).__2F89" image-rendering="optimizeSpeed" baseProfile="basic" version="1.1" style="background-color:#ffffff" x="0px" y="0px" width="550px" height="400px" viewBox="0 0 550 400" enable-background="new 0 0 550 400" xmlns="http://www.w3.org/2000/svg">
  <defs transform="matrix(1 0 0 1 0 0) "/>
  <g id="sprite.__20250.__20(Wings).__2F89">
    <g id="Layer.__213">
      <g id="Graphic.__2Fshape.__20204_1" overflow="visible">
        <g id="Layer.__303">
          <g id="shape607">
            <path id="path865" fill="none" stroke="#D1FFB2" stroke-opacity="0.7529411764705882" stroke-width="11.613" stroke-linecap="round" stroke-linejoin="round" d="M219.347,147.183 C228.348,141.666 232.412,134.989 232.122,127.15 231.541,119.892 227.477,115.246 219.928,113.504 211.508,111.472 202.218,114.375 192.056,122.214 179.862,131.505 170.281,153.28 163.604,187.829 L140.087,187.829 L163.604,187.829 Q169.12,189.281 174.346,193.636 C196.992,173.022 231.251,157.054 277.414,145.731 291.35,240.089 260.865,281.606 185.959,270.283 214.121,283.929 233.283,307.156 244.026,340.254 207.153,358.544 180.443,354.77 164.184,328.64 156.055,338.221 147.926,338.221 139.506,328.64 123.247,354.77 96.537,358.544 59.665,340.254 70.117,308.027 86.956,285.381 110.473,272.025 40.503,281.026 12.631,238.928 26.277,145.731 72.439,157.054 106.699,173.022 129.344,193.636 132.828,190.733 136.312,188.7 140.087,187.829 133.409,153.28 123.828,131.505 111.634,122.214 101.473,114.375 92.182,111.472 83.762,113.504 76.214,115.246 72.149,119.892 71.568,127.15 71.278,134.989 75.343,141.666 84.343,147.183"/>
            <path id="path866" fill="#C2FF99" fill-opacity="0.7529411764705882" d="M174.346,193.636 Q169.12,189.281 163.604,187.829 L140.087,187.829 C136.312,188.7 132.828,190.733 129.344,193.636 106.699,173.022 72.439,157.054 26.277,145.731 12.631,238.928 40.503,281.026 110.473,272.025 86.956,285.381 70.117,308.027 59.665,340.254 96.537,358.544 123.247,354.77 139.506,328.64 147.926,338.221 156.055,338.221 164.184,328.64 180.443,354.77 207.153,358.544 244.026,340.254 233.283,307.156 214.121,283.929 185.959,270.283 260.865,281.606 291.35,240.089 277.414,145.731 231.251,157.054 196.992,173.022 174.346,193.636z"/>
            <path id="path867" fill="none" stroke="#D1FFB2" stroke-opacity="0.7529411764705882" stroke-width="11.613" stroke-linecap="round" stroke-linejoin="round" d="M174.346,193.636 Q169.12,189.281 163.604,187.829 L140.087,187.829 C136.312,188.7 132.828,190.733 129.344,193.636 106.699,173.022 72.439,157.054 26.277,145.731 12.631,238.928 40.503,281.026 110.473,272.025 86.956,285.381 70.117,308.027 59.665,340.254 96.537,358.544 123.247,354.77 139.506,328.64 147.926,338.221 156.055,338.221 164.184,328.64 180.443,354.77 207.153,358.544 244.026,340.254 233.283,307.156 214.121,283.929 185.959,270.283 260.865,281.606 291.35,240.089 277.414,145.731 231.251,157.054 196.992,173.022 174.346,193.636z"/>
            <path id="path868" fill="none" stroke="#D1FFB2" stroke-opacity="0.7529411764705882" stroke-width="11.613" stroke-linecap="round" stroke-linejoin="round" d="M180.153,295.252 C181.604,322.253 194.088,334.157 217.896,331.544 209.476,314.414 196.992,302.22 180.153,295.252"/>
            <path id="path869" fill="none" stroke="#D1FFB2" stroke-opacity="0.7529411764705882" stroke-width="11.613" stroke-linecap="round" stroke-linejoin="round" d="M184.508,238.637 C236.187,251.702 260.865,231.96 258.542,179.119 207.444,186.378 182.766,206.41 184.508,238.637"/>
            <path id="path870" fill="none" stroke="#D1FFB2" stroke-opacity="0.7529411764705882" stroke-width="11.613" stroke-linecap="round" stroke-linejoin="round" d="M85.795,331.544 C113.667,334.447 125.86,321.963 122.086,293.8 106.118,301.639 94.214,314.414 85.795,331.544"/>
            <path id="path871" fill="none" stroke="#D1FFB2" stroke-opacity="0.7529411764705882" stroke-width="11.613" stroke-linecap="round" stroke-linejoin="round" d="M120.634,238.637 C68.084,251.702 42.825,231.96 45.148,179.119 96.247,186.378 121.505,206.41 120.634,238.637"/>
          </g>
        </g>
      </g>
    </g>
  </g>
</svg>