<?xml version="1.0" encoding="UTF-8" standalone="no"?>
<svg xmlns:xlink="http://www.w3.org/1999/xlink" height="342.0px" width="237.9px" xmlns="http://www.w3.org/2000/svg">
  <g transform="matrix(1, 0, 0, 1, 118.05, 273.9)">
    <use height="151.95" transform="matrix(1.0, 0.0, 0.0, 1.0, -61.4, -140.2)" width="113.0" xlink:href="#shape0"/>
  </g>
  <defs>
    <g id="shape0" transform="matrix(1, 0, 0, 1, 61.4, 140.2)">
      <path d="M27.95 -140.2 L27.95 -133.05 23.9 -131.95 17.2 -130.3 Q21.8 -124.5 39.75 -97.5 40.95 -92.85 23.5 -87.35 L23.35 -87.3 Q26.7 -76.45 28.6 -71.25 L49.95 -12.9 51.6 -8.3 Q51.6 -2.8 50.7 -0.45 49.2 3.6 44.15 6.0 32.15 11.75 -9.15 11.75 -43.85 11.75 -50.65 10.55 -52.7 10.25 -56.6 5.65 -58.65 3.3 -52.05 -33.15 L-42.8 -83.85 Q-46.3 -85.0 -49.05 -86.5 -59.85 -92.5 -60.6 -93.55 -61.4 -94.7 -61.4 -96.3 -61.4 -97.9 -48.7 -115.25 -36.05 -132.6 -32.05 -135.5 L-32.05 -138.6 Q-19.9 -134.55 -2.0 -134.55 8.75 -134.55 24.3 -139.1 L27.95 -140.2 M11.3 -127.65 L9.4 -130.3 Q6.65 -129.1 -3.7 -128.85 L-3.0 -128.8 -9.95 -128.8 Q-25.85 -128.8 -29.25 -130.15 L-30.55 -130.7 -32.65 -127.55 -32.8 -127.35 -33.05 -127.0 -30.15 -126.05 Q-23.45 -124.35 -10.55 -124.35 1.1 -124.35 7.8 -126.05 L11.7 -127.05 11.3 -127.65 M10.2 -123.85 L-0.7 -121.45 3.9 -110.35 12.2 -89.6 15.8 -90.7 15.9 -90.75 16.0 -90.8 16.05 -90.8 16.15 -90.85 17.05 -91.15 21.65 -92.85 Q28.9 -95.75 31.75 -98.25 27.45 -105.85 17.75 -118.85 L13.5 -124.6 10.2 -123.85 M8.7 -88.55 L9.0 -88.6 5.6 -97.1 -1.4 -113.95 -5.05 -122.9 -9.15 -122.75 3.55 -87.6 8.7 -88.55 M29.0 -52.95 Q21.9 -72.95 17.7 -85.55 5.4 -81.9 2.5 -82.0 0.45 -82.1 -0.85 -83.4 L-7.05 -103.95 Q-8.1 -88.8 -8.75 -82.6 -11.05 -81.25 -16.9 -81.1 L-34.6 -82.0 -39.0 -62.5 -40.8 -51.05 -41.6 -45.55 -42.8 -37.8 -42.8 -37.75 -43.65 -31.45 -43.7 -31.5 -43.7 -31.45 -44.35 -26.8 -47.4 -7.45 -43.8 -7.2 -32.85 -6.35 -28.3 -5.85 -28.05 -5.65 -27.95 -5.35 Q-28.1 -1.5 -28.7 0.2 L-28.85 0.35 -29.05 0.5 -29.65 0.7 -29.95 0.7 -30.15 0.7 -48.4 -1.05 -48.75 1.0 -49.0 2.05 -49.1 2.3 -48.15 2.25 -46.7 2.45 -6.9 3.9 -4.2 3.9 2.5 3.95 3.2 3.95 20.3 4.0 Q31.6 2.95 38.95 0.75 45.0 -1.15 44.45 -5.8 41.3 -4.15 40.35 -3.75 L37.1 -2.4 36.2 -2.05 Q33.65 -1.15 33.25 -1.3 L32.95 -1.35 Q30.85 -1.7 30.65 -6.4 L30.7 -6.7 30.95 -6.9 43.3 -12.6 Q42.05 -17.1 38.65 -26.05 L38.25 -27.1 38.1 -27.5 30.6 -48.35 29.0 -52.95 M6.05 -4.85 L12.3 -5.75 23.75 -6.6 Q25.1 -6.6 25.6 -5.8 26.1 -5.15 25.8 -3.75 L25.75 -2.35 25.8 -1.65 Q25.95 -0.4 21.0 0.5 L18.95 0.85 16.65 1.15 9.05 1.45 7.3 1.4 6.5 1.45 6.4 1.45 5.55 1.3 5.25 1.25 4.9 0.95 4.85 0.6 4.8 -0.35 5.0 -3.5 5.3 -4.5 Q5.6 -4.9 6.05 -4.85 M16.95 -3.55 L15.15 -3.35 8.3 -2.55 8.3 -2.15 8.2 -0.9 16.0 -1.45 16.55 -1.5 17.1 -1.55 17.75 -1.6 17.85 -1.6 18.0 -1.65 19.7 -1.85 19.65 -1.8 22.75 -2.55 22.75 -2.6 22.85 -3.55 18.2 -3.65 16.95 -3.55 M42.75 -9.35 L41.35 -8.65 41.2 -8.6 37.15 -6.65 37.1 -6.65 35.65 -5.95 35.4 -5.8 35.35 -5.8 35.2 -5.7 33.75 -5.0 34.0 -4.35 34.05 -4.35 35.1 -4.6 35.3 -4.65 35.25 -4.65 35.4 -4.75 36.7 -5.25 38.3 -6.0 40.95 -7.2 40.9 -7.2 42.55 -8.0 42.75 -8.1 43.6 -8.5 43.6 -8.75 43.5 -9.7 42.8 -9.35 42.75 -9.35 M0.15 1.7 L-0.15 1.8 -12.8 1.6 -21.9 1.1 -23.0 0.3 -23.1 0.05 -23.2 -1.95 -23.05 -3.9 -22.45 -5.2 -11.6 -5.75 -0.25 -4.85 0.0 -4.7 0.1 -4.45 Q0.55 -0.95 0.3 1.1 L0.3 1.45 0.15 1.7 M-54.15 -100.2 Q-56.2 -97.05 -53.1 -94.4 -50.45 -92.1 -41.8 -89.1 L-39.45 -88.35 -39.15 -88.25 -38.95 -88.15 -38.65 -88.1 -38.35 -88.0 -38.05 -87.9 -37.8 -87.85 -37.5 -87.75 -37.25 -87.7 -37.0 -87.6 -36.75 -87.55 -36.3 -87.45 -36.05 -87.4 -35.75 -87.3 -34.15 -86.9 -26.2 -86.1 -23.4 -85.9 -19.45 -109.15 -17.05 -121.6 -35.35 -124.0 Q-45.6 -110.65 -50.7 -104.75 -52.15 -103.4 -54.15 -100.2 M-13.35 -122.75 L-13.3 -122.75 -14.1 -118.35 -17.1 -100.45 -19.45 -85.95 -13.2 -86.55 Q-10.3 -114.5 -9.65 -122.75 L-10.55 -122.75 -13.3 -122.75 -13.35 -122.75 M-13.6 -96.2 L-13.45 -97.2 -13.65 -95.6 -13.6 -96.2 M-38.55 -3.8 L-38.85 -3.8 -38.95 -3.8 -39.05 -3.85 -45.75 -4.35 -45.8 -4.35 -47.35 -4.5 -47.6 -3.1 -45.95 -3.0 -38.65 -2.55 -38.55 -2.55 -37.45 -2.45 -36.8 -2.4 -31.25 -2.0 -30.95 -3.35 -36.7 -3.65 -37.3 -3.7 -38.55 -3.8 M-18.25 -2.6 L-19.2 -2.6 -20.0 -2.6 -20.1 -1.8 -18.4 -1.75 -16.9 -1.7 -3.2 -1.2 -3.2 -2.2 -16.45 -2.6 -17.05 -2.6 -18.15 -2.6 -18.25 -2.6" fill="#000000" fill-rule="evenodd" stroke="none"/>
      <path d="M11.3 -127.65 L11.7 -127.05 7.8 -126.05 Q1.1 -124.35 -10.55 -124.35 -23.45 -124.35 -30.15 -126.05 L-33.05 -127.0 -32.8 -127.35 -32.65 -127.55 -30.55 -130.7 -29.25 -130.15 Q-25.85 -128.8 -9.95 -128.8 L-3.0 -128.8 -3.7 -128.85 Q6.65 -129.1 9.4 -130.3 L11.3 -127.65 M8.7 -88.55 L3.55 -87.6 -9.15 -122.75 -5.05 -122.9 -1.4 -113.95 5.6 -97.1 8.7 -88.55 M-13.6 -96.2 L-13.65 -95.6 -13.45 -97.2 -13.6 -96.2 M-13.35 -122.75 L-13.3 -122.75 -10.55 -122.75 -9.65 -122.75 Q-10.3 -114.5 -13.2 -86.55 L-19.45 -85.95 -17.1 -100.45 -14.1 -118.35 -13.3 -122.75 -13.35 -122.75" fill="#f0df4a" fill-rule="evenodd" stroke="none"/>
      <path d="M5.6 -97.1 L9.0 -88.6 8.7 -88.55 5.6 -97.1" fill="#bfdae3" fill-rule="evenodd" stroke="none"/>
      <path d="M17.1 -1.55 L16.95 -3.55 18.2 -3.65 22.85 -3.55 22.75 -2.6 22.75 -2.55 19.65 -1.8 19.7 -1.85 18.0 -1.65 17.85 -1.6 17.75 -1.6 17.1 -1.55 M35.4 -5.8 L35.65 -5.95 37.1 -6.65 37.15 -6.65 41.2 -8.6 41.35 -8.65 42.75 -9.35 42.75 -8.1 42.55 -8.0 40.9 -7.2 40.95 -7.2 38.3 -6.0 36.7 -5.25 35.4 -4.75 35.4 -5.8 M-38.55 -2.55 L-38.65 -2.55 -45.95 -3.0 -47.6 -3.1 -47.35 -4.5 -45.8 -4.35 -45.75 -4.35 -39.05 -3.85 -38.95 -3.8 -38.85 -3.8 -38.55 -3.8 -38.6 -3.3 -38.55 -2.6 -38.55 -2.55 M-18.4 -1.75 L-20.1 -1.8 -20.0 -2.6 -19.2 -2.6 -18.25 -2.6 -18.4 -1.75 M-16.9 -1.7 L-16.85 -1.85 -16.9 -1.7" fill="#403f41" fill-rule="evenodd" stroke="none"/>
      <path d="M-40.8 -51.05 L-32.25 -49.6 Q-22.95 -47.95 -11.4 -47.95 10.3 -47.95 22.55 -50.95 26.6 -51.95 29.0 -52.95 L30.6 -48.35 Q28.45 -47.2 24.65 -46.1 12.65 -42.75 -11.25 -42.75 -33.85 -42.75 -41.6 -45.55 L-40.8 -51.05" fill="#000001" fill-rule="evenodd" stroke="none"/>
      <path d="M35.4 -5.8 L35.4 -4.75 35.25 -4.65 35.3 -4.65 35.1 -4.6 34.05 -4.35 34.0 -4.35 33.75 -5.0 35.2 -5.7 35.35 -5.8 35.4 -5.8 M42.75 -8.1 L42.75 -9.35 42.8 -9.35 43.5 -9.7 43.6 -8.75 43.6 -8.5 42.75 -8.1 M-38.55 -2.55 L-38.55 -2.6 -38.6 -3.3 -38.55 -3.8 -37.3 -3.7 -36.7 -3.65 -30.95 -3.35 -31.25 -2.0 -36.8 -2.4 -37.45 -2.45 -38.55 -2.55" fill="#fff1dd" fill-rule="evenodd" stroke="none"/>
      <path d="M-40.8 -51.05 L-39.0 -62.5 -34.6 -82.0 -16.9 -81.1 Q-11.05 -81.25 -8.75 -82.6 -8.1 -88.8 -7.05 -103.95 L-0.85 -83.4 Q0.45 -82.1 2.5 -82.0 5.4 -81.9 17.7 -85.55 21.9 -72.95 29.0 -52.95 26.6 -51.95 22.55 -50.95 10.3 -47.95 -11.4 -47.95 -22.95 -47.95 -32.25 -49.6 L-40.8 -51.05 M30.6 -48.35 L38.1 -27.5 38.25 -27.1 38.65 -26.05 Q42.05 -17.1 43.3 -12.6 L30.95 -6.9 30.7 -6.7 30.65 -6.4 Q30.85 -1.7 32.95 -1.35 L33.25 -1.3 Q33.65 -1.15 36.2 -2.05 L37.1 -2.4 40.35 -3.75 Q41.3 -4.15 44.45 -5.8 45.0 -1.15 38.95 0.75 31.6 2.95 20.3 4.0 L3.2 3.95 2.5 3.95 -4.2 3.9 -6.9 3.9 -46.7 2.45 -48.15 2.25 -49.1 2.3 -49.0 2.05 -48.75 1.0 -48.4 -1.05 -30.15 0.7 -29.95 0.7 -29.65 0.7 -29.05 0.5 -28.85 0.35 -28.7 0.2 Q-28.1 -1.5 -27.95 -5.35 L-28.05 -5.65 -28.3 -5.85 -32.85 -6.35 -43.8 -7.2 -47.4 -7.45 -44.35 -26.8 -43.7 -31.45 -43.65 -31.45 -42.8 -37.75 -42.8 -37.8 -41.6 -45.55 Q-33.85 -42.75 -11.25 -42.75 12.65 -42.75 24.65 -46.1 28.45 -47.2 30.6 -48.35 M6.05 -4.85 Q5.6 -4.9 5.3 -4.5 L5.0 -3.5 4.8 -0.35 4.85 0.6 4.9 0.95 5.25 1.25 5.55 1.3 6.4 1.45 6.5 1.45 7.3 1.4 9.05 1.45 16.65 1.15 18.95 0.85 21.0 0.5 Q25.95 -0.4 25.8 -1.65 L25.75 -2.35 25.8 -3.75 Q26.1 -5.15 25.6 -5.8 25.1 -6.6 23.75 -6.6 L12.3 -5.75 6.05 -4.85 M0.15 1.7 L0.3 1.45 0.3 1.1 Q0.55 -0.95 0.1 -4.45 L0.0 -4.7 -0.25 -4.85 -11.6 -5.75 -22.45 -5.2 -23.05 -3.9 -23.2 -1.95 -23.1 0.05 -23.0 0.3 -21.9 1.1 -12.8 1.6 -0.15 1.8 0.15 1.7" fill="#343d32" fill-rule="evenodd" stroke="none"/>
      <path d="M10.2 -123.85 L13.5 -124.6 17.75 -118.85 Q27.45 -105.85 31.75 -98.25 28.9 -95.75 21.65 -92.85 L17.05 -91.15 16.15 -90.85 16.05 -90.8 16.0 -90.8 15.9 -90.75 15.8 -90.7 12.2 -89.6 3.9 -110.35 -0.7 -121.45 10.2 -123.85 M-54.15 -100.2 Q-52.15 -103.4 -50.7 -104.75 -45.6 -110.65 -35.35 -124.0 L-17.05 -121.6 -19.45 -109.15 -23.4 -85.9 -26.2 -86.1 -34.15 -86.9 -35.75 -87.3 -36.05 -87.4 -36.3 -87.45 -36.75 -87.55 -37.0 -87.6 -37.25 -87.7 -37.5 -87.75 -37.8 -87.85 -38.05 -87.9 -38.35 -88.0 -38.65 -88.1 -38.95 -88.15 -39.15 -88.25 -39.45 -88.35 -41.8 -89.1 Q-50.45 -92.1 -53.1 -94.4 -56.2 -97.05 -54.15 -100.2" fill="#bdc8c4" fill-rule="evenodd" stroke="none"/>
      <path d="M-4.1 -83.75 L-3.95 -84.05 -3.9 -83.55 5.3 -70.0 -1.25 -55.9 -1.2 -55.8 -10.7 -68.45 -4.15 -83.8 -4.1 -83.75 M-3.45 -78.25 L-7.1 -69.25 -1.9 -61.1 1.7 -70.1 -3.45 -78.25" fill="#000000" fill-rule="evenodd" stroke="none"/>
      <path d="M-3.45 -78.25 L1.7 -70.1 -1.9 -61.1 -7.1 -69.25 -3.45 -78.25" fill="#c4f2f7" fill-rule="evenodd" stroke="none"/>
    </g>
  </defs>
</svg>
