<?xml version="1.0" encoding="UTF-8" standalone="no"?>
<svg xmlns:xlink="http://www.w3.org/1999/xlink" height="342.0px" width="237.9px" xmlns="http://www.w3.org/2000/svg">
  <g transform="matrix(1, 0, 0, 1, 118.05, 273.9)">
    <use height="151.95" transform="matrix(1.0, 0.0, 0.0, 1.0, -60.75, -140.2)" width="112.35" xlink:href="#shape0"/>
  </g>
  <defs>
    <g id="shape0" transform="matrix(1, 0, 0, 1, 60.75, 140.2)">
      <path d="M27.95 -133.05 L23.9 -131.95 Q17.25 -130.2 10.85 -129.0 L16.65 -109.8 20.5 -96.95 20.45 -96.85 Q25.95 -78.5 28.6 -71.25 31.4 -63.65 36.05 -54.15 L43.55 -39.05 Q51.6 -22.0 51.6 -8.65 51.6 -2.85 50.7 -0.45 49.2 3.6 44.15 6.0 32.15 11.75 -9.15 11.75 -43.85 11.75 -50.65 10.55 -52.85 10.2 -53.45 9.35 -54.15 8.4 -55.25 8.0 -60.75 6.0 -60.75 3.5 -60.75 -0.1 -57.7 -0.65 -57.05 -8.2 -45.75 -68.5 -36.15 -119.65 -32.05 -131.9 L-32.05 -138.6 Q-19.9 -134.55 -2.0 -134.55 8.75 -134.55 24.3 -139.1 L27.95 -140.2 27.95 -133.05 M2.75 -127.75 L3.95 -125.4 7.2 -116.45 7.8 -117.0 Q5.2 -125.9 5.15 -128.1 L2.75 -127.75 M7.95 -100.9 L-6.2 -127.0 -8.9 -126.85 -11.4 -113.1 Q-14.6 -97.1 -16.85 -97.1 -17.55 -97.1 -18.5 -98.15 -21.3 -101.3 -26.0 -113.85 L-27.5 -118.05 -29.2 -107.2 -18.6 -98.05 -17.15 -96.75 Q-2.85 -83.7 0.8 -83.7 1.45 -83.7 8.55 -91.1 L14.1 -96.6 11.55 -104.65 Q9.55 -100.9 7.95 -100.9 M0.45 -75.5 Q-6.0 -75.5 -22.25 -90.85 L-30.5 -99.0 Q-31.2 -94.95 -32.5 -90.25 L-32.75 -90.25 -39.0 -62.5 -41.55 -46.2 -36.95 -43.25 Q-28.55 -38.8 -12.7 -38.8 12.6 -38.8 23.65 -45.6 26.4 -47.3 29.2 -50.3 L29.4 -50.5 16.6 -88.9 11.75 -83.95 Q3.1 -75.5 0.45 -75.5 M0.5 -64.2 Q-0.5 -63.25 -1.75 -63.25 -5.3 -63.25 -5.3 -66.5 -5.3 -70.3 -1.75 -70.3 1.75 -70.3 1.5 -66.6 1.5 -65.2 0.5 -64.2 M1.55 3.95 L20.3 4.0 28.25 2.25 Q25.8 -1.45 22.8 -9.55 20.05 -17.0 18.05 -24.7 18.05 -27.9 22.05 -27.9 24.6 -27.9 34.85 -0.1 L35.6 -0.5 Q43.1 -4.55 44.0 -7.85 L44.0 -7.9 44.1 -8.75 Q44.1 -11.85 38.0 -27.7 L34.15 -37.45 33.95 -37.15 32.25 -42.15 Q29.5 -40.0 24.9 -37.85 10.5 -31.2 -13.05 -31.2 -30.5 -31.2 -41.1 -36.9 L-42.75 -37.85 -42.8 -37.85 -42.8 -37.8 -42.8 -37.75 -43.65 -31.45 -43.7 -31.5 -43.7 -31.45 -44.35 -26.8 -45.25 -20.95 Q-48.15 -4.2 -50.95 1.65 L-50.9 1.65 -48.15 2.25 -35.25 3.2 Q-30.8 -26.95 -27.15 -26.95 -24.25 -26.95 -23.7 -24.25 L-23.75 -21.25 Q-23.75 -18.5 -26.7 -5.4 -27.95 0.05 -28.95 3.45 L-3.65 3.9 Q-5.25 -2.75 -7.2 -19.7 -7.2 -24.2 -3.65 -24.2 1.05 -24.2 1.5 -2.25 1.8 1.3 1.55 3.65 L1.55 3.95 M3.2 -45.35 Q2.15 -44.4 0.95 -44.4 -2.45 -44.4 -2.45 -47.7 -2.45 -49.4 -1.25 -50.55 -0.2 -51.5 0.95 -51.5 4.35 -51.5 4.35 -47.85 4.35 -46.4 3.2 -45.35 M-17.6 -127.0 L-22.35 -127.55 Q-20.6 -123.05 -19.0 -115.5 L-18.5 -115.5 Q-18.2 -117.0 -17.85 -125.55 L-17.6 -127.0" fill="#000000" fill-rule="evenodd" stroke="none"/>
      <path d="M7.95 -100.9 Q9.55 -100.9 11.55 -104.65 L14.1 -96.6 8.55 -91.1 Q1.45 -83.7 0.8 -83.7 -2.85 -83.7 -17.15 -96.75 L-18.6 -98.05 -29.2 -107.2 -27.5 -118.05 -26.0 -113.85 Q-21.3 -101.3 -18.5 -98.15 -17.55 -97.1 -16.85 -97.1 -14.6 -97.1 -11.4 -113.1 L-8.9 -126.85 -6.2 -127.0 7.95 -100.9 M2.75 -127.75 L5.15 -128.1 Q5.2 -125.9 7.8 -117.0 L7.2 -116.45 3.95 -125.4 2.75 -127.75 M-17.6 -127.0 L-17.85 -125.55 Q-18.2 -117.0 -18.5 -115.5 L-19.0 -115.5 Q-20.6 -123.05 -22.35 -127.55 L-17.6 -127.0" fill="#ffffff" fill-rule="evenodd" stroke="none"/>
      <path d="M0.5 -64.2 Q1.5 -65.2 1.5 -66.6 1.75 -70.3 -1.75 -70.3 -5.3 -70.3 -5.3 -66.5 -5.3 -63.25 -1.75 -63.25 -0.5 -63.25 0.5 -64.2 M0.45 -75.5 Q3.1 -75.5 11.75 -83.95 L16.6 -88.9 29.4 -50.5 29.2 -50.3 Q26.4 -47.3 23.65 -45.6 12.6 -38.8 -12.7 -38.8 -28.55 -38.8 -36.95 -43.25 L-41.55 -46.2 -39.0 -62.5 -32.75 -90.25 -32.5 -90.25 Q-31.2 -94.95 -30.5 -99.0 L-22.25 -90.85 Q-6.0 -75.5 0.45 -75.5 M3.2 -45.35 Q4.35 -46.4 4.35 -47.85 4.35 -51.5 0.95 -51.5 -0.2 -51.5 -1.25 -50.55 -2.45 -49.4 -2.45 -47.7 -2.45 -44.4 0.95 -44.4 2.15 -44.4 3.2 -45.35" fill="#2b2b2b" fill-rule="evenodd" stroke="none"/>
      <path d="M-42.75 -37.85 L-42.8 -37.75 -42.8 -37.8 -42.8 -37.85 -42.75 -37.85 M-43.65 -31.45 L-43.7 -31.45 -43.7 -31.5 -43.65 -31.45 M1.55 3.65 L1.55 3.95 1.55 3.65" fill="#ff4444" fill-rule="evenodd" stroke="none"/>
      <path d="M-42.75 -37.85 L-41.1 -36.9 Q-30.5 -31.2 -13.05 -31.2 10.5 -31.2 24.9 -37.85 29.5 -40.0 32.25 -42.15 L33.95 -37.15 34.15 -37.45 38.0 -27.7 Q44.1 -11.85 44.1 -8.75 L44.0 -7.9 44.0 -7.85 Q43.1 -4.55 35.6 -0.5 L34.85 -0.1 Q24.6 -27.9 22.05 -27.9 18.05 -27.9 18.05 -24.7 20.05 -17.0 22.8 -9.55 25.8 -1.45 28.25 2.25 L20.3 4.0 1.55 3.95 1.55 3.65 Q1.8 1.3 1.5 -2.25 1.05 -24.2 -3.65 -24.2 -7.2 -24.2 -7.2 -19.7 -5.25 -2.75 -3.65 3.9 L-28.95 3.45 Q-27.95 0.05 -26.7 -5.4 -23.75 -18.5 -23.75 -21.25 L-23.7 -24.25 Q-24.25 -26.95 -27.15 -26.95 -30.8 -26.95 -35.25 3.2 L-48.15 2.25 -50.9 1.65 -50.95 1.65 Q-48.15 -4.2 -45.25 -20.95 L-44.35 -26.8 -43.7 -31.45 -43.65 -31.45 -42.8 -37.75 -42.75 -37.85" fill="#ffcccc" fill-rule="evenodd" stroke="none"/>
      <path d="M-2.0 -119.15 Q-0.45 -122.05 1.9 -122.05 5.2 -122.05 5.3 -118.0 5.3 -116.85 2.85 -110.25 L2.2 -108.5 Q5.9 -101.95 13.85 -81.55 12.55 -57.55 6.5 -57.55 L-8.15 -82.75 Q-8.15 -90.2 -7.2 -105.35 -11.0 -108.9 -14.7 -117.3 -14.7 -121.1 -11.15 -121.1 L-9.9 -120.8 Q-7.25 -119.7 -4.15 -113.6 -3.75 -114.15 -2.45 -118.25 L-2.0 -119.15 M0.7 -94.5 Q-0.55 -85.6 -0.55 -83.2 -0.55 -82.55 2.1 -78.35 L5.55 -73.15 Q5.8 -75.75 6.75 -81.7 6.75 -83.55 5.25 -87.35 3.45 -91.95 0.85 -94.6 L0.7 -94.75 0.7 -94.5" fill="#000000" fill-rule="evenodd" stroke="none"/>
      <path d="M-9.9 -120.8 L-8.9 -126.85 -6.2 -127.0 -2.0 -119.15 -2.45 -118.25 Q-3.75 -114.15 -4.15 -113.6 -7.25 -119.7 -9.9 -120.8 M0.85 -94.6 Q3.45 -91.95 5.25 -87.35 6.75 -83.55 6.75 -81.7 5.8 -75.75 5.55 -73.15 L2.1 -78.35 Q-0.55 -82.55 -0.55 -83.2 -0.55 -85.6 0.7 -94.5 L0.85 -94.6" fill="#dd0000" fill-rule="evenodd" stroke="none"/>
    </g>
  </defs>
</svg>
