<?xml version="1.0" encoding="UTF-8" standalone="no"?>
<svg xmlns:xlink="http://www.w3.org/1999/xlink" height="342.0px" width="237.9px" xmlns="http://www.w3.org/2000/svg">
  <g transform="matrix(1, 0, 0, 1, 118.05, 273.9)">
    <use height="150.35" transform="matrix(1.0, 0.0, 0.0, 1.0, -57.05, -138.6)" width="109.35" xlink:href="#shape0"/>
  </g>
  <defs>
    <g id="shape0" transform="matrix(1, 0, 0, 1, 57.05, 138.6)">
      <path d="M5.15 -128.1 L4.5 -128.0 5.2 -127.55 5.15 -128.1 M6.5 -121.55 L6.3 -122.35 Q4.1 -120.65 1.6 -119.45 L1.5 -119.4 1.3 -119.3 -0.35 -118.6 -0.7 -118.5 -4.55 -117.45 -4.85 -117.4 -7.3 -112.0 Q-1.75 -111.9 2.6 -113.7 L2.65 -113.75 5.8 -115.45 7.55 -116.55 7.55 -116.5 7.9 -116.7 7.7 -117.35 7.7 -117.4 6.5 -121.55 M4.25 -124.55 L3.25 -125.25 2.95 -123.65 4.25 -124.55 M7.55 -113.0 L7.5 -112.95 7.55 -112.85 11.3 -100.55 12.6 -96.5 12.6 -96.4 13.1 -94.8 14.05 -91.75 14.65 -91.1 Q14.4 -92.0 14.7 -91.05 L15.4 -90.4 15.4 -90.35 16.45 -89.4 16.4 -89.5 14.0 -97.0 12.7 -101.0 8.75 -113.75 7.55 -113.0 M19.25 -101.0 L21.05 -94.9 21.05 -94.8 22.7 -89.5 22.85 -89.0 24.4 -83.95 Q27.0 -75.6 28.6 -71.25 L32.25 -61.3 40.55 -38.65 41.4 -36.25 45.7 -24.5 47.9 -18.45 49.95 -12.9 51.6 -8.3 52.25 -5.1 Q52.4 -3.45 52.2 -2.15 51.95 -0.55 51.2 0.6 49.2 3.6 44.15 6.0 32.15 11.75 -9.15 11.75 -43.85 11.75 -50.65 10.55 -52.15 10.3 -54.55 7.85 L-56.6 5.65 -56.95 4.6 -57.0 4.3 Q-57.55 -0.6 -54.05 -21.6 L-53.85 -22.85 -52.65 -29.8 -52.05 -33.15 -46.95 -61.3 -42.8 -83.95 -41.8 -89.0 -40.2 -97.0 Q-34.85 -123.55 -32.05 -131.9 L-32.05 -138.6 Q-19.9 -134.55 -2.0 -134.55 L8.9 -135.5 16.65 -109.8 19.25 -101.0 M6.6 -112.45 L4.65 -111.35 Q4.3 -102.6 12.55 -93.35 L11.7 -95.95 11.6 -96.25 10.35 -100.25 6.6 -112.45 M14.75 -86.85 L13.35 -88.2 13.3 -88.2 Q1.7 -99.45 1.6 -110.15 -3.45 -108.6 -9.7 -109.1 -19.8 -108.65 -26.75 -112.0 L-29.05 -100.0 -31.15 -90.1 -31.3 -89.75 -32.6 -83.45 -34.0 -76.0 -36.45 -62.6 -36.6 -62.35 Q-6.15 -54.0 22.65 -63.35 18.8 -74.45 16.1 -82.65 L15.9 -83.15 15.6 -84.1 14.75 -86.85 M16.5 -85.35 L16.6 -85.05 Q19.75 -74.75 23.65 -63.65 L24.1 -63.85 25.05 -64.15 Q21.15 -75.25 18.4 -83.5 L18.3 -83.8 16.5 -85.35 M45.6 -8.35 Q42.65 -15.45 38.65 -26.05 L38.25 -27.1 34.1 -38.65 30.35 -49.1 30.35 -49.15 27.35 -57.65 26.05 -61.3 Q-5.7 -50.15 -39.4 -60.0 L-40.25 -54.65 -41.5 -46.5 -42.8 -37.8 -42.8 -37.75 -43.65 -31.45 -43.7 -31.5 -43.7 -31.45 -44.35 -26.8 -45.25 -20.95 -45.35 -20.2 -45.35 -19.95 -45.4 -19.75 -48.1 -2.1 -48.3 -1.05 -48.35 -1.05 -48.7 -0.9 -48.9 -0.6 -48.75 -0.2 -48.5 -0.05 -49.1 2.3 Q-17.55 5.55 6.25 4.5 36.6 3.15 46.25 -5.1 46.75 -5.5 46.05 -7.25 L46.0 -7.4 46.2 -7.6 46.3 -7.95 46.1 -8.3 45.75 -8.4 45.6 -8.35 M-14.55 -125.65 L-13.95 -124.9 -11.65 -118.6 -11.65 -118.55 -11.6 -118.5 -9.6 -114.2 -7.3 -119.25 -5.8 -125.05 -5.25 -125.85 -4.35 -126.15 -3.45 -125.85 -0.15 -123.4 0.6 -127.55 -9.75 -126.85 -12.75 -126.8 -21.85 -127.45 -21.75 -127.3 -19.7 -122.45 -16.35 -125.5 Q-16.0 -125.85 -15.45 -125.9 L-14.55 -125.65 M-26.65 -126.2 L-24.1 -127.85 -26.25 -128.3 -26.65 -126.2 M-23.8 -124.45 L-24.85 -123.8 -23.1 -122.75 -23.8 -124.45 M-27.6 -121.15 L-28.55 -117.1 -28.75 -116.4 -27.65 -115.85 -26.2 -115.1 Q-20.35 -112.0 -11.9 -112.05 L-14.05 -116.7 Q-17.25 -117.3 -20.65 -118.45 L-20.75 -118.45 -20.8 -118.5 Q-24.35 -119.7 -27.4 -121.95 L-27.6 -121.15 M-3.8 -120.65 L-2.15 -121.15 -3.45 -122.1 -3.8 -120.65 M-27.75 -112.35 L-27.7 -112.5 -29.0 -113.4 -31.5 -100.5 -33.6 -90.8 -35.05 -83.95 -36.45 -76.45 -38.9 -63.0 -38.7 -62.95 -37.95 -62.7 -37.45 -62.55 -37.45 -62.75 -35.0 -76.2 -33.6 -83.65 -32.2 -90.1 -32.2 -90.2 -32.1 -90.4 -32.1 -90.35 Q-31.6 -92.35 -30.05 -100.2 L-27.75 -112.35 M-7.35 -118.4 L-7.35 -118.5 -7.4 -118.8 -7.25 -118.1 -7.35 -118.4 M-6.5 -117.35 L-6.8 -117.55 -7.05 -117.75 -6.5 -117.35 M-16.0 -121.75 L-17.3 -120.55 -15.35 -120.05 -16.0 -121.75" fill="#000000" fill-rule="evenodd" stroke="none"/>
      <path d="M4.25 -124.55 L2.95 -123.65 3.25 -125.25 4.25 -124.55 M7.7 -117.4 L7.7 -117.35 7.9 -116.7 7.55 -116.5 7.55 -116.55 5.8 -115.45 2.65 -113.75 2.6 -113.7 Q-1.75 -111.9 -7.3 -112.0 L-4.85 -117.4 -4.55 -117.45 -0.7 -118.5 -0.35 -118.6 1.3 -119.3 1.5 -119.4 1.6 -119.45 Q4.1 -120.65 6.3 -122.35 L6.5 -121.55 1.95 -118.75 1.6 -118.7 1.5 -118.65 1.85 -118.7 1.65 -118.6 1.6 -118.6 -0.05 -117.9 -0.15 -117.85 -0.45 -117.8 -0.5 -117.75 -4.3 -116.7 -6.1 -112.75 -1.2 -113.3 2.25 -114.35 2.35 -114.4 3.35 -114.9 5.4 -116.05 5.3 -116.0 Q5.55 -116.25 6.35 -116.7 L7.2 -117.2 7.4 -117.25 7.7 -117.4 M1.85 -113.7 L1.9 -113.75 1.85 -113.7 M7.55 -113.0 L8.75 -113.75 12.7 -101.0 14.0 -97.0 16.4 -89.5 16.45 -89.4 15.4 -90.35 15.4 -90.4 14.7 -91.05 Q14.4 -92.0 14.65 -91.1 L14.05 -91.75 13.1 -94.8 12.6 -96.4 12.6 -96.5 11.3 -100.55 7.55 -112.85 7.5 -112.95 7.55 -113.0 M16.5 -85.35 L18.3 -83.8 18.4 -83.5 Q21.15 -75.25 25.05 -64.15 L24.1 -63.85 23.65 -63.65 Q19.75 -74.75 16.6 -85.05 L16.5 -85.35 M46.0 -7.4 L46.05 -7.25 Q46.75 -5.5 46.25 -5.1 36.6 3.15 6.25 4.5 -17.55 5.55 -49.1 2.3 L-48.5 -0.05 -48.45 -0.05 Q-17.3 3.15 6.25 2.1 36.05 0.8 45.65 -7.25 L45.65 -7.3 45.9 -7.4 46.0 -7.4 M-23.8 -124.45 L-23.1 -122.75 -24.85 -123.8 -23.8 -124.45 M-18.7 -113.35 L-13.05 -112.8 -14.55 -116.05 Q-17.6 -116.65 -20.75 -117.7 L-21.15 -117.85 Q-24.65 -119.05 -27.6 -121.15 L-27.4 -121.95 Q-24.35 -119.7 -20.8 -118.5 L-20.75 -118.45 -20.65 -118.45 Q-17.25 -117.3 -14.05 -116.7 L-11.9 -112.05 Q-20.35 -112.0 -26.2 -115.1 L-27.65 -115.85 -28.75 -116.4 -28.55 -117.1 -28.45 -117.05 -27.3 -116.5 -26.25 -115.9 -26.2 -115.85 -25.85 -115.75 -22.7 -114.4 -18.7 -113.35 M-27.75 -112.35 L-30.05 -100.2 Q-31.6 -92.35 -32.1 -90.35 L-32.1 -90.4 -32.2 -90.2 -32.2 -90.1 -33.6 -83.65 -35.0 -76.2 -37.45 -62.75 -37.45 -62.55 -37.95 -62.7 -38.7 -62.95 -38.9 -63.0 -36.45 -76.45 -35.05 -83.95 -33.6 -90.8 -31.5 -100.5 -29.0 -113.4 -27.7 -112.5 -27.75 -112.35 M-3.8 -120.65 L-3.45 -122.1 -2.15 -121.15 -3.8 -120.65 M-16.0 -121.75 L-15.35 -120.05 -17.3 -120.55 -16.0 -121.75" fill="#f9e707" fill-rule="evenodd" stroke="none"/>
      <path d="M5.15 -128.1 L5.2 -127.55 4.5 -128.0 5.15 -128.1 M-14.55 -125.65 L-15.45 -125.9 Q-16.0 -125.85 -16.35 -125.5 L-19.7 -122.45 -21.75 -127.3 -21.85 -127.45 -12.75 -126.8 -9.75 -126.85 0.6 -127.55 -0.15 -123.4 -3.45 -125.85 -4.35 -126.15 -5.25 -125.85 -5.8 -125.05 -7.3 -119.25 -9.6 -114.2 -11.6 -118.5 -11.65 -118.55 -11.65 -118.6 -13.95 -124.9 -14.55 -125.65 M-26.65 -126.2 L-26.25 -128.3 -24.1 -127.85 -26.65 -126.2 M-7.35 -118.4 L-7.25 -118.1 -7.4 -118.8 -7.35 -118.5 -7.35 -118.4 M-6.5 -117.35 L-7.05 -117.75 -6.8 -117.55 -6.5 -117.35" fill="#fff1dd" fill-rule="evenodd" stroke="none"/>
      <path d="M6.5 -121.55 L7.7 -117.4 7.4 -117.25 7.2 -117.2 6.35 -116.7 Q5.55 -116.25 5.3 -116.0 L5.4 -116.05 3.35 -114.9 2.35 -114.4 2.25 -114.35 -1.2 -113.3 -6.1 -112.75 -4.3 -116.7 -0.5 -117.75 -0.45 -117.8 -0.15 -117.85 -0.05 -117.9 1.6 -118.6 1.65 -118.6 1.85 -118.7 1.5 -118.65 1.6 -118.7 1.95 -118.75 6.5 -121.55 M1.85 -113.7 L1.9 -113.75 1.85 -113.7 M6.35 -116.7 L4.15 -118.2 3.35 -114.9 4.15 -118.2 6.35 -116.7 M4.65 -111.35 L6.6 -112.45 10.35 -100.25 11.6 -96.25 11.7 -95.95 12.55 -93.35 Q4.3 -102.6 4.65 -111.35 M14.75 -86.85 L15.6 -84.1 15.9 -83.15 16.1 -82.65 Q18.8 -74.45 22.65 -63.35 -6.15 -54.0 -36.6 -62.35 L-36.45 -62.6 -34.0 -76.0 -32.6 -83.45 -31.3 -89.75 -31.15 -90.1 -29.05 -100.0 -26.75 -112.0 Q-19.8 -108.65 -9.7 -109.1 -3.45 -108.6 1.6 -110.15 1.7 -99.45 13.3 -88.2 L13.35 -88.2 14.75 -86.85 M-48.3 -1.05 L-48.1 -2.1 -45.4 -19.75 -45.35 -19.95 -45.35 -20.2 -45.25 -20.95 -44.35 -26.8 -43.7 -31.45 -43.7 -31.5 -43.65 -31.45 -42.8 -37.75 -42.8 -37.8 -41.5 -46.5 -40.25 -54.65 -39.4 -60.0 Q-5.7 -50.15 26.05 -61.3 L27.35 -57.65 30.35 -49.15 30.35 -49.1 34.1 -38.65 38.25 -27.1 38.65 -26.05 Q42.65 -15.45 45.6 -8.35 L45.0 -8.0 44.95 -8.0 Q35.5 -0.2 6.2 1.1 -17.25 2.15 -48.3 -1.05 M-27.6 -121.15 Q-24.65 -119.05 -21.15 -117.85 L-20.75 -117.7 Q-17.6 -116.65 -14.55 -116.05 L-13.05 -112.8 -18.7 -113.35 -22.7 -114.4 -23.6 -117.95 -26.25 -115.9 -23.6 -117.95 -22.7 -114.4 -25.85 -115.75 -26.2 -115.85 -26.25 -115.9 -27.3 -116.5 -28.45 -117.05 -28.55 -117.1 -27.6 -121.15 M-16.7 -114.7 Q-18.7 -116.5 -18.7 -113.35 -18.7 -116.5 -16.7 -114.7 M-3.25 -114.55 Q-1.0 -117.05 -1.2 -113.3 -1.0 -117.05 -3.25 -114.55" fill="#fe0000" fill-rule="evenodd" stroke="none"/>
      <path d="M-48.3 -1.05 Q-17.25 2.15 6.2 1.1 35.5 -0.2 44.95 -8.0 L45.0 -8.0 45.6 -8.35 45.75 -8.4 46.1 -8.3 46.3 -7.95 46.2 -7.6 46.0 -7.4 45.9 -7.4 45.65 -7.3 45.65 -7.25 Q36.05 0.8 6.25 2.1 -17.3 3.15 -48.45 -0.05 L-48.5 -0.05 -48.75 -0.2 -48.9 -0.6 -48.7 -0.9 -48.35 -1.05 -48.3 -1.05" fill="#000100" fill-rule="evenodd" stroke="none"/>
      <path d="M3.35 -114.9 L4.15 -118.2 6.35 -116.7 M-26.25 -115.9 L-23.6 -117.95 -22.7 -114.4 M-18.7 -113.35 Q-18.7 -116.5 -16.7 -114.7 M-1.2 -113.3 Q-1.0 -117.05 -3.25 -114.55" fill="none" stroke="#f9e707" stroke-linecap="round" stroke-linejoin="round" stroke-width="1.0"/>
      <path d="M4.65 -111.35 L6.6 -112.45" fill="none" stroke="#000000" stroke-linecap="round" stroke-linejoin="round" stroke-width="1.0"/>
      <path d="M12.75 -98.0 L6.05 -92.4 4.75 -93.9 11.5 -99.55 12.75 -98.0 M8.95 -102.65 L10.25 -101.15 3.75 -95.35 2.4 -96.8 8.95 -102.65" fill="#f9e707" fill-rule="evenodd" stroke="none"/>
      <path d="M8.95 -102.65 L2.4 -96.8 3.75 -95.35 10.25 -101.15 8.95 -102.65 M12.75 -98.0 L11.5 -99.55 4.75 -93.9 6.05 -92.4 12.75 -98.0" fill="none" stroke="#000000" stroke-linecap="round" stroke-linejoin="round" stroke-width="1.0"/>
      <path d="M-8.4 -112.4 Q3.75 -112.85 6.65 -109.1 5.7 -104.45 2.75 -102.65 1.85 -102.1 0.75 -101.8 L0.15 -101.75 Q3.7 -93.15 6.55 -90.95 2.05 -90.7 -0.8 -94.25 -1.3 -91.0 -5.6 -88.9 -5.25 -96.95 -9.45 -108.9 L-9.8 -108.85 -10.4 -108.95 Q-9.4 -98.15 -10.4 -89.35 -12.5 -91.25 -14.15 -94.6 -17.85 -91.9 -24.0 -89.9 -20.75 -92.95 -18.75 -97.7 -23.25 -100.85 -25.3 -108.4 -18.2 -111.75 -11.1 -112.45 L-9.8 -112.9 Q-9.0 -112.9 -8.45 -112.4 L-8.4 -112.3 -8.4 -112.4 M-8.7 -109.2 L-8.4 -109.45 Q-7.8 -110.05 -7.8 -110.9 -7.8 -111.7 -8.4 -112.3 -7.8 -111.7 -7.8 -110.9 -7.8 -110.05 -8.4 -109.45 L-8.7 -109.2 Q-5.45 -104.35 -4.85 -100.7 -4.05 -101.5 0.15 -101.75 -4.05 -101.5 -4.85 -100.7 -5.45 -104.35 -8.7 -109.2 -9.05 -109.0 -9.45 -108.9 -9.05 -109.0 -8.7 -109.2 M-10.4 -108.95 Q-10.85 -109.1 -11.25 -109.45 -11.85 -110.05 -11.85 -110.9 -11.85 -111.7 -11.25 -112.3 L-11.1 -112.45 -11.25 -112.3 Q-11.85 -111.7 -11.85 -110.9 -11.85 -110.05 -11.25 -109.45 -10.85 -109.1 -10.4 -108.95 -12.5 -107.5 -13.85 -102.95 -15.25 -98.3 -17.15 -96.8 L-18.75 -97.7 -17.15 -96.8 Q-15.25 -98.3 -13.85 -102.95 -12.5 -107.5 -10.4 -108.95" fill="#ffdddd" fill-rule="evenodd" stroke="none"/>
      <path d="M-8.4 -112.4 Q3.75 -112.85 6.65 -109.1 5.7 -104.45 2.75 -102.65 1.85 -102.1 0.75 -101.8 L0.15 -101.75 M6.55 -90.95 Q2.05 -90.7 -0.8 -94.25 -1.3 -91.0 -5.6 -88.9 M-10.4 -108.95 Q-9.4 -98.15 -10.4 -89.35 -12.5 -91.25 -14.15 -94.6 -17.85 -91.9 -24.0 -89.9 -20.75 -92.95 -18.75 -97.7 -23.25 -100.85 -25.3 -108.4 -18.2 -111.75 -11.1 -112.45 M-8.45 -112.4 L-8.4 -112.4 M-8.7 -109.2 Q-5.45 -104.35 -4.85 -100.7 -4.05 -101.5 0.15 -101.75 M-10.4 -108.95 Q-12.5 -107.5 -13.85 -102.95 -15.25 -98.3 -17.15 -96.8 L-18.75 -97.7" fill="none" stroke="#000000" stroke-linecap="round" stroke-linejoin="round" stroke-width="1.5"/>
      <path d="M0.15 -101.75 Q3.7 -93.15 6.55 -90.95 M-5.6 -88.9 Q-5.25 -96.95 -9.45 -108.9 L-9.8 -108.85 -10.4 -108.95 M-11.1 -112.45 L-9.8 -112.9 Q-9.0 -112.9 -8.45 -112.4 M-8.4 -112.3 Q-7.8 -111.7 -7.8 -110.9 -7.8 -110.05 -8.4 -109.45 L-8.7 -109.2 M-8.4 -112.3 L-8.45 -112.4 M-11.1 -112.45 L-11.25 -112.3 Q-11.85 -111.7 -11.85 -110.9 -11.85 -110.05 -11.25 -109.45 -10.85 -109.1 -10.4 -108.95 M-9.45 -108.9 Q-9.05 -109.0 -8.7 -109.2" fill="none" stroke="#000000" stroke-linecap="round" stroke-linejoin="round" stroke-width="1.5"/>
    </g>
  </defs>
</svg>
