<?xml version="1.0" encoding="UTF-8" standalone="no"?>
<svg xmlns:xlink="http://www.w3.org/1999/xlink" height="342.0px" width="237.9px" xmlns="http://www.w3.org/2000/svg">
  <g transform="matrix(1, 0, 0, 1, 118.05, 273.9)">
    <use height="150.35" transform="matrix(1.0, 0.0, 0.0, 1.0, -57.05, -138.6)" width="109.35" xlink:href="#shape0"/>
  </g>
  <defs>
    <g id="shape0" transform="matrix(1, 0, 0, 1, 57.05, 138.6)">
      <path d="M0.75 -127.55 L5.15 -128.1 Q5.3 -124.35 12.7 -101.0 L14.0 -97.0 16.4 -89.5 16.6 -89.0 18.25 -83.95 25.75 -62.2 25.15 -62.05 Q-6.05 -54.05 -39.5 -59.45 L-39.2 -61.3 -39.0 -62.5 -36.45 -76.45 -35.05 -83.95 -33.6 -90.8 -31.5 -100.5 -26.25 -128.3 -20.05 -127.2 -19.05 -114.85 Q-8.55 -111.4 0.75 -115.4 L0.75 -127.55 M27.95 -55.85 L30.35 -49.15 30.35 -49.1 38.25 -27.1 38.65 -26.05 Q43.0 -14.6 46.05 -7.25 49.1 0.1 20.3 4.0 L-21.25 4.2 -43.8 3.4 Q-48.7 2.15 -49.1 2.3 -47.7 -2.25 -45.25 -20.95 L-44.35 -26.8 -43.85 -30.4 -43.7 -31.45 -43.7 -31.5 -43.65 -31.45 -42.8 -37.75 -42.8 -37.8 -41.5 -46.5 -40.4 -53.45 Q-4.45 -48.25 27.95 -55.85" fill="#2f2f2f" fill-rule="evenodd" stroke="none"/>
      <path d="M0.75 -127.55 L0.75 -115.4 Q-8.55 -111.4 -19.05 -114.85 L-20.05 -127.2 -12.75 -126.8 -9.75 -126.85 0.75 -127.55 M-39.5 -59.45 Q-6.05 -54.05 25.15 -62.05 L25.75 -62.2 26.05 -61.3 27.35 -57.65 27.95 -55.85 Q-4.45 -48.25 -40.4 -53.45 L-40.25 -54.65 -39.5 -59.45" fill="#ffffff" fill-rule="evenodd" stroke="none"/>
      <path d="M19.25 -101.0 L21.05 -94.9 21.05 -94.8 22.7 -89.5 22.85 -89.0 24.4 -83.95 Q27.0 -75.6 28.6 -71.25 L32.25 -61.3 41.4 -36.25 45.7 -24.5 47.9 -18.45 49.95 -12.9 51.6 -8.3 Q52.6 -4.7 52.2 -2.15 51.95 -0.55 51.2 0.6 49.2 3.6 44.15 6.0 32.15 11.75 -9.15 11.75 L-21.25 11.7 -50.65 10.55 Q-52.15 10.3 -54.55 7.85 L-56.6 5.65 -56.95 4.6 -57.0 4.3 Q-57.55 -0.6 -54.05 -21.6 L-53.85 -22.85 -52.65 -29.8 -52.55 -30.4 -52.05 -33.15 -46.95 -61.3 -42.8 -83.95 -41.8 -89.0 -40.2 -97.0 Q-34.85 -123.55 -32.05 -131.9 L-32.05 -138.6 Q-19.9 -134.55 -2.0 -134.55 L8.65 -135.45 16.65 -109.8 19.25 -101.0 M25.75 -62.2 L18.25 -83.95 16.6 -89.0 16.4 -89.5 14.0 -97.0 12.7 -101.0 Q5.3 -124.35 5.15 -128.1 L0.75 -127.55 -9.75 -126.85 -12.75 -126.8 -20.05 -127.2 -26.25 -128.3 -31.5 -100.5 -33.6 -90.8 -35.05 -83.95 -36.45 -76.45 -39.0 -62.5 -39.2 -61.3 -39.5 -59.45 -40.25 -54.65 -40.4 -53.45 -41.5 -46.5 -42.8 -37.8 -42.8 -37.75 -43.65 -31.45 -43.7 -31.5 -43.7 -31.45 -43.85 -30.4 -44.35 -26.8 -45.25 -20.95 Q-47.7 -2.25 -49.1 2.3 -48.7 2.15 -43.8 3.4 L-21.25 4.2 20.3 4.0 Q49.1 0.1 46.05 -7.25 43.0 -14.6 38.65 -26.05 L38.25 -27.1 30.35 -49.1 30.35 -49.15 27.95 -55.85 27.35 -57.65 26.05 -61.3 25.75 -62.2" fill="#000000" fill-rule="evenodd" stroke="none"/>
      <path d="M0.75 -127.55 L0.75 -115.4 Q-8.55 -111.4 -19.05 -114.85 L-20.05 -127.2 M-39.5 -59.45 Q-6.05 -54.05 25.15 -62.05 L25.75 -62.2 M-40.4 -53.45 Q-4.45 -48.25 27.95 -55.85" fill="none" stroke="#000000" stroke-linecap="round" stroke-linejoin="round" stroke-width="3.0"/>
      <path d="M26.8 -55.85 L27.65 -55.9 Q36.4 -51.45 31.25 -43.75 37.3 -38.85 31.05 -33.4 36.45 -25.65 28.25 -19.6 31.2 -6.3 19.4 -6.85 16.05 5.1 5.7 -0.4 -0.45 7.55 -8.1 0.1 -18.8 4.5 -22.65 -4.9 -35.55 -3.95 -34.6 -15.2 -44.85 -19.3 -40.85 -27.45 -48.15 -33.9 -42.35 -41.2 -49.35 -47.25 -39.45 -53.4 -41.1 -31.15 -30.0 -16.8 -24.7 -9.95 -17.15 -6.3 -10.0 -2.8 -2.2 -2.9 5.5 -3.0 12.05 -6.7 18.95 -10.65 23.0 -17.8 31.4 -32.6 26.8 -55.85 31.4 -32.6 23.0 -17.8 18.95 -10.65 12.05 -6.7 5.5 -3.0 -2.2 -2.9 -10.0 -2.8 -17.15 -6.3 -24.7 -9.95 -30.0 -16.8 -41.1 -31.15 -39.45 -53.4 -3.95 -47.9 26.8 -55.85" fill="#ffffff" fill-rule="evenodd" stroke="none"/>
      <path d="M-39.45 -53.4 Q-49.35 -47.25 -42.35 -41.2 -48.15 -33.9 -40.85 -27.45 -44.85 -19.3 -34.6 -15.2 -35.55 -3.95 -22.65 -4.9 -18.8 4.5 -8.1 0.1 -0.45 7.55 5.7 -0.4 16.05 5.1 19.4 -6.85 31.2 -6.3 28.25 -19.6 36.45 -25.65 31.05 -33.4 37.3 -38.85 31.25 -43.75 36.4 -51.45 27.65 -55.9 L26.8 -55.85 Q31.4 -32.6 23.0 -17.8 18.95 -10.65 12.05 -6.7 5.5 -3.0 -2.2 -2.9 -10.0 -2.8 -17.15 -6.3 -24.7 -9.95 -30.0 -16.8 -41.1 -31.15 -39.45 -53.4 -3.95 -47.9 26.8 -55.85" fill="none" stroke="#000000" stroke-linecap="round" stroke-linejoin="round" stroke-width="3.0"/>
      <path d="M-21.0 -84.85 Q-21.6 -84.25 -22.5 -84.2 -23.35 -84.25 -24.0 -84.85 -24.6 -85.45 -24.6 -86.35 -24.6 -87.25 -24.0 -87.85 -23.35 -88.45 -22.5 -88.45 -21.6 -88.45 -21.0 -87.85 -20.35 -87.25 -20.35 -86.3 -20.35 -85.45 -21.0 -84.85" fill="#ffffff" fill-rule="evenodd" stroke="none"/>
      <path d="M-21.0 -84.85 Q-21.6 -84.25 -22.5 -84.2 -23.35 -84.25 -24.0 -84.85 -24.6 -85.45 -24.6 -86.35 -24.6 -87.25 -24.0 -87.85 -23.35 -88.45 -22.5 -88.45 -21.6 -88.45 -21.0 -87.85 -20.35 -87.25 -20.35 -86.3 -20.35 -85.45 -21.0 -84.85" fill="none" stroke="#000000" stroke-linecap="round" stroke-linejoin="round" stroke-width="2.0"/>
      <path d="M-21.0 -100.45 Q-21.6 -99.85 -22.5 -99.8 -23.35 -99.85 -24.0 -100.45 -24.6 -101.05 -24.6 -101.95 -24.6 -102.85 -24.0 -103.45 -23.35 -104.05 -22.5 -104.05 -21.6 -104.05 -21.0 -103.45 -20.35 -102.85 -20.35 -101.9 -20.35 -101.05 -21.0 -100.45" fill="#ffffff" fill-rule="evenodd" stroke="none"/>
      <path d="M-21.0 -100.45 Q-21.6 -99.85 -22.5 -99.8 -23.35 -99.85 -24.0 -100.45 -24.6 -101.05 -24.6 -101.95 -24.6 -102.85 -24.0 -103.45 -23.35 -104.05 -22.5 -104.05 -21.6 -104.05 -21.0 -103.45 -20.35 -102.85 -20.35 -101.9 -20.35 -101.05 -21.0 -100.45" fill="none" stroke="#000000" stroke-linecap="round" stroke-linejoin="round" stroke-width="2.0"/>
      <path d="M-21.0 -69.25 Q-21.6 -68.65 -22.5 -68.6 -23.35 -68.65 -24.0 -69.25 -24.6 -69.85 -24.6 -70.75 -24.6 -71.65 -24.0 -72.25 -23.35 -72.85 -22.5 -72.85 -21.6 -72.85 -21.0 -72.25 -20.35 -71.65 -20.35 -70.7 -20.35 -69.85 -21.0 -69.25" fill="#ffffff" fill-rule="evenodd" stroke="none"/>
      <path d="M-21.0 -69.25 Q-21.6 -68.65 -22.5 -68.6 -23.35 -68.65 -24.0 -69.25 -24.6 -69.85 -24.6 -70.75 -24.6 -71.65 -24.0 -72.25 -23.35 -72.85 -22.5 -72.85 -21.6 -72.85 -21.0 -72.25 -20.35 -71.65 -20.35 -70.7 -20.35 -69.85 -21.0 -69.25" fill="none" stroke="#000000" stroke-linecap="round" stroke-linejoin="round" stroke-width="2.0"/>
      <path d="M7.95 -85.7 Q7.4 -85.0 6.5 -84.85 5.65 -84.8 4.95 -85.3 4.25 -85.85 4.15 -86.75 4.05 -87.6 4.55 -88.25 5.15 -88.95 6.0 -89.05 6.9 -89.15 7.55 -88.65 8.25 -88.1 8.35 -87.2 8.45 -86.35 7.95 -85.7" fill="#ffffff" fill-rule="evenodd" stroke="none"/>
      <path d="M7.95 -85.7 Q7.4 -85.0 6.5 -84.85 5.65 -84.8 4.95 -85.3 4.25 -85.85 4.15 -86.75 4.05 -87.6 4.55 -88.25 5.15 -88.95 6.0 -89.05 6.9 -89.15 7.55 -88.65 8.25 -88.1 8.35 -87.2 8.45 -86.35 7.95 -85.7" fill="none" stroke="#000000" stroke-linecap="round" stroke-linejoin="round" stroke-width="2.0"/>
      <path d="M6.05 -101.2 Q5.5 -100.5 4.6 -100.35 3.75 -100.3 3.05 -100.8 2.35 -101.35 2.25 -102.25 2.15 -103.1 2.65 -103.75 3.25 -104.45 4.1 -104.55 5.0 -104.65 5.65 -104.15 6.35 -103.6 6.45 -102.7 6.55 -101.85 6.05 -101.2" fill="#ffffff" fill-rule="evenodd" stroke="none"/>
      <path d="M6.05 -101.2 Q5.5 -100.5 4.6 -100.35 3.75 -100.3 3.05 -100.8 2.35 -101.35 2.25 -102.25 2.15 -103.1 2.65 -103.75 3.25 -104.45 4.1 -104.55 5.0 -104.65 5.65 -104.15 6.35 -103.6 6.45 -102.7 6.55 -101.85 6.05 -101.2" fill="none" stroke="#000000" stroke-linecap="round" stroke-linejoin="round" stroke-width="2.0"/>
      <path d="M9.8 -70.25 Q9.25 -69.55 8.35 -69.4 7.5 -69.35 6.8 -69.85 6.1 -70.4 6.0 -71.3 5.9 -72.15 6.4 -72.8 7.0 -73.5 7.85 -73.6 8.75 -73.7 9.4 -73.2 10.1 -72.65 10.2 -71.75 10.3 -70.9 9.8 -70.25" fill="#ffffff" fill-rule="evenodd" stroke="none"/>
      <path d="M9.8 -70.25 Q9.25 -69.55 8.35 -69.4 7.5 -69.35 6.8 -69.85 6.1 -70.4 6.0 -71.3 5.9 -72.15 6.4 -72.8 7.0 -73.5 7.85 -73.6 8.75 -73.7 9.4 -73.2 10.1 -72.65 10.2 -71.75 10.3 -70.9 9.8 -70.25" fill="none" stroke="#000000" stroke-linecap="round" stroke-linejoin="round" stroke-width="2.0"/>
    </g>
  </defs>
</svg>
