<?xml version="1.0" encoding="UTF-8" standalone="no"?>
<svg xmlns:xlink="http://www.w3.org/1999/xlink" height="342.0px" width="237.9px" xmlns="http://www.w3.org/2000/svg">
  <g transform="matrix(1, 0, 0, 1, 118.05, 273.9)">
    <use height="159.3" transform="matrix(1.0, 0.0, 0.0, 1.0, -63.2, -140.2)" width="118.75" xlink:href="#shape0"/>
  </g>
  <defs>
    <g id="shape0" transform="matrix(1, 0, 0, 1, 63.2, 140.2)">
      <path d="M-50.9 -105.2 Q-47.85 -103.1 -45.0 -99.1 L-45.0 -99.05 Q-42.85 -96.0 -38.9 -95.15 L-38.95 -95.15 -34.25 -94.9 -34.35 -94.85 -31.65 -95.0 -31.55 -95.0 Q-23.9 -95.0 -18.65 -90.0 -16.65 -88.05 -14.85 -87.8 L-14.9 -86.0 -14.9 -85.95 -14.9 -85.45 -15.0 -83.65 Q-18.05 -83.85 -21.4 -87.1 -25.55 -91.05 -31.6 -91.0 L-31.7 -91.0 -33.9 -90.9 -34.05 -90.9 -39.7 -91.2 -39.75 -91.25 Q-45.35 -92.5 -48.3 -96.8 -50.75 -100.3 -53.45 -102.05 L-50.9 -105.2 M52.0 -1.05 Q57.3 12.4 44.4 6.55 41.8 18.9 34.15 9.0 40.5 7.75 44.15 6.0 49.2 3.6 51.2 0.6 L52.0 -1.05 M34.1 9.0 Q30.35 20.5 21.8 10.65 16.25 21.0 8.5 11.45 3.0 22.1 -3.45 11.75 L8.5 11.45 Q24.45 10.8 34.1 9.0 M-3.5 11.75 Q-10.9 22.25 -17.4 11.75 -23.25 22.1 -30.95 11.6 -36.3 22.65 -44.55 11.55 -58.35 19.35 -55.7 6.7 L-54.55 7.85 Q-52.15 10.3 -50.65 10.55 L-44.55 11.55 Q-37.0 11.5 -30.95 11.6 L-21.25 11.7 -17.4 11.75 -9.15 11.75 -3.5 11.75 M30.65 -106.0 L33.15 -102.85 Q32.2 -102.0 31.45 -100.5 27.8 -93.7 21.1 -93.05 L21.05 -93.05 16.55 -93.2 16.6 -93.2 14.75 -93.3 Q11.75 -93.1 9.9 -90.35 6.55 -85.45 2.5 -85.05 L2.05 -87.6 2.05 -87.65 1.75 -89.15 Q4.4 -89.35 6.6 -92.6 9.55 -97.0 14.5 -97.3 L17.1 -97.15 17.2 -97.15 20.65 -97.05 Q25.3 -97.6 27.9 -102.4 L27.9 -102.35 Q29.1 -104.65 30.65 -106.0 M29.45 -51.6 L30.35 -49.15 30.35 -49.1 33.2 -41.15 Q31.6 -39.75 26.75 -41.25 26.5 -31.1 18.5 -37.25 16.45 -28.6 9.7 -35.1 3.55 -25.3 -0.3 -39.05 21.1 -39.3 29.45 -51.6 M45.1 -9.6 L46.05 -7.25 46.35 -6.1 46.35 -5.8 Q5.2 8.7 -48.15 -1.9 L-47.8 -3.85 -47.45 -5.8 -47.4 -5.8 Q4.85 4.55 45.1 -9.6 M-42.3 -41.15 L-41.5 -46.5 -41.4 -47.25 -41.0 -49.9 Q-29.75 -37.4 -7.8 -38.7 -9.6 -24.9 -17.45 -34.55 -26.9 -26.95 -28.6 -36.55 -39.35 -31.2 -38.85 -41.25 L-42.3 -41.15" fill="#ffffff" fill-rule="evenodd" stroke="none"/>
      <path d="M-14.85 -87.8 Q-16.65 -88.05 -18.65 -90.0 -23.9 -95.0 -31.55 -95.0 L-31.65 -95.0 -34.35 -94.85 -34.25 -94.9 -38.95 -95.15 -38.9 -95.15 Q-42.85 -96.0 -45.0 -99.05 L-45.0 -99.1 Q-47.85 -103.1 -50.9 -105.2 L-48.8 -107.9 -48.75 -107.95 -35.7 -124.2 -34.6 -123.75 Q-31.8 -122.6 -27.65 -121.45 -20.6 -119.5 -9.5 -117.5 L-9.45 -117.5 -10.5 -110.7 -9.45 -117.5 -9.2 -117.5 -8.3 -117.45 Q-0.95 -117.35 7.1 -119.3 10.15 -120.05 13.35 -121.15 L17.5 -122.65 30.65 -106.0 Q29.1 -104.65 27.9 -102.35 L27.9 -102.4 Q25.3 -97.6 20.65 -97.05 L17.2 -97.15 17.1 -97.15 14.5 -97.3 Q9.55 -97.0 6.6 -92.6 4.4 -89.35 1.75 -89.15 L1.45 -91.05 Q0.25 -98.1 -1.75 -105.15 -2.0 -105.95 -2.7 -106.35 L-4.25 -106.5 -4.3 -106.5 -5.45 -105.55 Q-5.85 -104.85 -5.6 -104.05 -3.65 -97.2 -2.5 -90.4 L-1.95 -87.05 -1.9 -86.95 -0.25 -77.55 0.15 -76.65 0.9 -76.05 Q7.85 -72.75 13.1 -80.4 14.95 -83.15 17.95 -83.35 L18.45 -83.35 24.85 -64.7 25.8 -62.1 26.05 -61.3 27.35 -57.65 27.6 -56.9 27.8 -56.25 29.45 -51.6 Q21.1 -39.3 -0.3 -39.05 L-5.4 -57.2 -7.8 -38.7 -5.4 -57.2 -0.3 -39.05 Q3.55 -25.3 9.7 -35.1 16.45 -28.6 18.5 -37.25 26.5 -31.1 26.75 -41.25 31.6 -39.75 33.2 -41.15 L38.25 -27.1 38.65 -26.05 38.9 -25.4 43.6 -13.35 44.5 -11.05 45.1 -9.6 Q4.85 4.55 -47.4 -5.8 L-47.45 -5.8 -46.5 -11.85 -46.05 -14.95 -45.85 -16.4 -45.7 -17.5 -44.35 -26.8 -43.85 -30.4 -43.7 -31.45 -43.65 -31.45 -42.8 -37.75 -42.8 -37.8 -42.3 -41.15 -38.85 -41.25 Q-39.35 -31.2 -28.6 -36.55 -26.9 -26.95 -17.45 -34.55 -9.6 -24.9 -7.8 -38.7 -29.75 -37.4 -41.0 -49.9 L-40.4 -53.5 -40.3 -54.1 -40.25 -54.5 -40.2 -54.8 -40.0 -56.25 -39.35 -60.3 -39.35 -60.35 -39.2 -61.3 -39.0 -62.5 -38.8 -63.55 -38.75 -63.8 -37.55 -70.4 -37.45 -70.85 -37.45 -71.0 -37.0 -73.3 -36.75 -74.7 -36.75 -74.85 -36.45 -76.45 -36.4 -76.75 -35.6 -81.05 -35.25 -81.05 -35.15 -81.05 Q-29.1 -81.1 -24.95 -77.15 -18.3 -70.8 -12.9 -75.85 -12.5 -76.2 -12.35 -76.7 -11.0 -80.75 -10.9 -85.35 L-10.9 -85.4 -10.9 -85.85 -10.9 -86.0 -10.65 -91.1 Q-10.15 -98.8 -8.8 -108.45 -8.7 -109.3 -9.2 -109.95 -9.7 -110.6 -10.5 -110.7 -11.35 -110.85 -12.0 -110.35 -12.65 -109.85 -12.75 -109.0 -14.15 -99.2 -14.65 -91.4 L-14.85 -87.8 M-53.45 -102.05 Q-50.75 -100.3 -48.3 -96.8 -45.35 -92.5 -39.75 -91.25 L-39.7 -91.2 -34.05 -90.9 -33.9 -90.9 -31.7 -91.0 -31.6 -91.0 Q-25.55 -91.05 -21.4 -87.1 -18.05 -83.85 -15.0 -83.65 -15.25 -81.0 -15.95 -78.55 -18.75 -76.75 -22.2 -80.05 -27.45 -85.05 -35.1 -85.05 L-35.2 -85.05 -37.9 -84.9 -37.8 -84.95 -42.5 -85.2 -42.45 -85.2 Q-46.4 -86.05 -48.55 -89.1 L-48.55 -89.15 Q-52.75 -95.1 -57.6 -96.9 L-53.45 -102.05 M-33.1 -127.45 L-31.4 -129.55 Q-15.45 -124.25 12.65 -128.7 L14.9 -125.95 12.05 -124.95 Q9.05 -123.95 6.15 -123.2 -1.75 -121.3 -8.9 -121.5 -19.75 -123.4 -26.6 -125.3 -30.5 -126.4 -33.1 -127.45 M33.15 -102.85 L37.05 -97.9 Q33.45 -96.9 31.1 -92.45 28.5 -87.65 23.85 -87.1 L20.4 -87.2 20.3 -87.2 17.7 -87.35 Q12.75 -87.05 9.8 -82.65 7.0 -78.6 3.5 -79.4 L2.5 -85.05 Q6.55 -85.45 9.9 -90.35 11.75 -93.1 14.75 -93.3 L16.6 -93.2 16.55 -93.2 21.05 -93.05 21.1 -93.05 Q27.8 -93.7 31.45 -100.5 32.2 -102.0 33.15 -102.85 M46.35 -5.8 L46.1 -4.6 Q43.7 0.85 20.3 4.0 L-21.25 4.2 -43.8 3.4 Q-48.7 2.15 -49.1 2.3 L-48.95 1.85 -48.85 1.45 -48.2 -1.5 -48.15 -1.9 Q5.2 8.7 46.35 -5.8 M-8.3 -117.45 Q-6.0 -112.0 -4.3 -106.5 -6.0 -112.0 -8.3 -117.45 M-31.85 -98.65 L-31.9 -98.7 -31.9 -98.65 -31.85 -98.55 -31.85 -98.65" fill="#3f5b9e" fill-rule="evenodd" stroke="none"/>
      <path d="M-14.85 -87.8 L-14.65 -91.4 Q-14.15 -99.2 -12.75 -109.0 -12.65 -109.85 -12.0 -110.35 -11.35 -110.85 -10.5 -110.7 -9.7 -110.6 -9.2 -109.95 -8.7 -109.3 -8.8 -108.45 -10.15 -98.8 -10.65 -91.1 L-10.9 -86.0 -10.9 -85.85 -10.9 -85.4 -10.9 -85.35 Q-11.0 -80.75 -12.35 -76.7 -12.5 -76.2 -12.9 -75.85 -18.3 -70.8 -24.95 -77.15 -29.1 -81.1 -35.15 -81.05 L-35.25 -81.05 -35.6 -81.05 -36.4 -76.75 -36.45 -76.45 -36.75 -74.85 -36.75 -74.7 -37.0 -73.3 -37.45 -71.0 -37.45 -70.85 -37.55 -70.4 -38.75 -63.8 -38.8 -63.55 -39.0 -62.5 -39.2 -61.3 -39.35 -60.35 -39.35 -60.3 -40.0 -56.25 -40.2 -54.8 -40.25 -54.5 -40.3 -54.1 -40.4 -53.5 -41.0 -49.9 -41.4 -47.25 -41.5 -46.5 -42.3 -41.15 -42.8 -37.8 -42.8 -37.75 -43.65 -31.45 -43.7 -31.5 -43.7 -31.45 -43.85 -30.4 -44.35 -26.8 -45.7 -17.5 -45.85 -16.4 -46.05 -14.95 -46.5 -11.85 -47.45 -5.8 -47.8 -3.85 -48.15 -1.9 -48.2 -1.5 -48.85 1.45 -48.95 1.85 -49.1 2.3 Q-48.7 2.15 -43.8 3.4 L-21.25 4.2 20.3 4.0 Q43.7 0.85 46.1 -4.6 L46.35 -5.8 46.35 -6.1 46.05 -7.25 45.1 -9.6 44.5 -11.05 43.6 -13.35 38.9 -25.4 38.65 -26.05 38.25 -27.1 33.2 -41.15 30.35 -49.1 30.35 -49.15 29.45 -51.6 27.8 -56.25 27.6 -56.9 27.35 -57.65 26.05 -61.3 25.8 -62.1 24.85 -64.7 18.45 -83.35 17.95 -83.35 Q14.95 -83.15 13.1 -80.4 7.85 -72.75 0.9 -76.05 L0.15 -76.65 -0.25 -77.55 -1.9 -86.95 -1.9 -87.0 -1.95 -87.05 -2.5 -90.4 Q-3.65 -97.2 -5.6 -104.05 -5.85 -104.85 -5.45 -105.55 L-4.3 -106.5 -4.25 -106.5 -2.7 -106.35 Q-2.0 -105.95 -1.75 -105.15 0.25 -98.1 1.45 -91.05 L1.75 -89.15 2.05 -87.65 2.05 -87.6 2.5 -85.05 3.5 -79.4 Q7.0 -78.6 9.8 -82.65 12.75 -87.05 17.7 -87.35 L20.3 -87.2 20.4 -87.2 23.85 -87.1 Q28.5 -87.65 31.1 -92.45 33.45 -96.9 37.05 -97.9 L33.15 -102.85 30.65 -106.0 17.5 -122.65 13.35 -121.15 Q10.15 -120.05 7.1 -119.3 -0.95 -117.35 -8.3 -117.45 L-9.2 -117.5 -9.45 -117.5 -9.5 -117.5 Q-20.6 -119.5 -27.65 -121.45 -31.8 -122.6 -34.6 -123.75 L-35.7 -124.2 -48.75 -107.95 -48.8 -107.9 -50.9 -105.2 -53.45 -102.05 -57.6 -96.9 Q-52.75 -95.1 -48.55 -89.15 L-48.55 -89.1 Q-46.4 -86.05 -42.45 -85.2 L-42.5 -85.2 -37.8 -84.95 -37.9 -84.9 -35.2 -85.05 -35.1 -85.05 Q-27.45 -85.05 -22.2 -80.05 -18.75 -76.75 -15.95 -78.55 -15.25 -81.0 -15.0 -83.65 L-14.9 -85.45 -14.9 -85.95 -14.9 -86.0 -14.85 -87.8 M-55.7 6.7 L-56.6 5.65 -56.95 4.6 -57.0 4.3 Q-57.55 -0.6 -54.05 -21.6 L-53.85 -22.85 -52.65 -29.8 -52.55 -30.4 -52.05 -33.15 -46.95 -61.3 -43.3 -81.25 -43.3 -81.3 Q-48.9 -82.55 -51.85 -86.85 -56.25 -93.05 -61.4 -93.7 -62.15 -93.8 -62.65 -94.3 -63.15 -94.85 -63.2 -95.6 -63.25 -96.4 -62.75 -96.95 L-55.7 -105.7 -55.35 -106.1 -53.1 -108.9 -51.85 -110.45 -37.9 -127.8 -37.65 -128.1 -33.6 -133.15 -32.55 -133.8 -32.05 -133.9 -32.05 -138.6 Q-19.9 -134.55 -2.0 -134.55 8.75 -134.55 24.3 -139.1 L27.95 -140.2 27.95 -133.05 23.9 -131.95 16.65 -130.2 19.7 -126.3 19.75 -126.3 19.75 -126.25 35.0 -107.0 35.3 -106.65 42.75 -97.25 43.15 -96.1 Q43.2 -95.5 42.85 -94.95 L41.95 -94.15 40.75 -94.05 Q36.85 -94.75 34.65 -90.55 31.1 -83.95 24.65 -83.15 L28.6 -71.25 32.25 -61.3 41.4 -36.25 45.7 -24.5 47.9 -18.45 49.95 -12.9 51.6 -8.3 Q52.6 -4.7 52.2 -2.15 L52.0 -1.05 51.2 0.6 Q49.2 3.6 44.15 6.0 40.5 7.75 34.15 9.0 L34.1 9.0 Q24.45 10.8 8.5 11.45 L-3.45 11.75 -3.5 11.75 -9.15 11.75 -17.4 11.75 -21.25 11.7 -30.95 11.6 Q-37.0 11.5 -44.55 11.55 L-50.65 10.55 Q-52.15 10.3 -54.55 7.85 L-55.7 6.7 M-3.45 11.75 L-3.5 11.7 -3.5 11.75 -3.5 11.7 -3.45 11.75 M8.5 11.45 L8.5 11.4 8.5 11.45 8.5 11.4 8.5 11.45 M34.15 9.0 L34.1 8.95 34.1 9.0 34.1 8.95 34.15 9.0 M-33.1 -127.45 Q-30.5 -126.4 -26.6 -125.3 -19.75 -123.4 -8.9 -121.5 -1.75 -121.3 6.15 -123.2 9.05 -123.95 12.05 -124.95 L14.9 -125.95 12.65 -128.7 Q-15.45 -124.25 -31.4 -129.55 L-33.1 -127.45 M-31.85 -98.65 L-31.85 -98.55 -31.9 -98.65 -31.9 -98.7 -31.85 -98.65" fill="#000000" fill-rule="evenodd" stroke="none"/>
      <path d="M-10.5 -110.7 L-9.45 -117.5 M-4.3 -106.5 Q-6.0 -112.0 -8.3 -117.45" fill="none" stroke="#f70000" stroke-linecap="round" stroke-linejoin="round" stroke-width="4.0"/>
      <path d="M52.0 -1.05 Q57.3 12.4 44.4 6.55 41.8 18.9 34.15 9.0 M34.1 9.0 Q30.35 20.5 21.8 10.65 16.25 21.0 8.5 11.45 3.0 22.1 -3.45 11.75 M-3.5 11.75 Q-10.9 22.25 -17.4 11.75 -23.25 22.1 -30.95 11.6 -36.3 22.65 -44.55 11.55 -58.35 19.35 -55.7 6.7 M-3.5 11.75 L-3.5 11.7 -3.45 11.75 M8.5 11.45 L8.5 11.4 8.5 11.45 M34.1 9.0 L34.1 8.95 34.15 9.0 M-42.3 -41.15 L-38.85 -41.25 Q-39.35 -31.2 -28.6 -36.55 -26.9 -26.95 -17.45 -34.55 -9.6 -24.9 -7.8 -38.7 L-5.4 -57.2 -0.3 -39.05 Q3.55 -25.3 9.7 -35.1 16.45 -28.6 18.5 -37.25 26.5 -31.1 26.75 -41.25 31.6 -39.75 33.2 -41.15" fill="none" stroke="#000000" stroke-linecap="round" stroke-linejoin="round" stroke-width="4.0"/>
      <path d="M-7.8 -38.7 Q-29.75 -37.4 -41.0 -49.9 M-0.3 -39.05 Q21.1 -39.3 29.45 -51.6" fill="none" stroke="#000000" stroke-linecap="round" stroke-linejoin="round" stroke-width="4.0"/>
      <path d="M4.6 -106.7 Q0.75 -108.85 -1.8 -111.55 L3.7 -101.75 Q2.95 -97.7 -2.1 -98.8 -7.35 -104.65 -6.8 -114.05 L-9.0 -114.3 Q-8.9 -104.6 -12.15 -98.2 -17.3 -96.95 -19.15 -101.1 L-14.8 -110.1 Q-17.05 -108.05 -20.2 -105.95 L-23.55 -109.4 Q-25.9 -112.35 -26.5 -123.1 -16.65 -125.0 -11.15 -123.1 -7.7 -124.4 -4.8 -123.1 0.7 -125.0 10.6 -123.1 10.05 -114.5 7.85 -110.95 6.35 -108.55 4.6 -106.7 M-14.8 -110.1 Q-12.0 -112.6 -10.6 -114.95 -11.9 -118.35 -11.15 -123.1 -11.9 -118.35 -10.6 -114.95 L-9.0 -114.3 -10.6 -114.95 Q-12.0 -112.6 -14.8 -110.1 M-4.8 -123.1 Q-3.65 -117.95 -4.8 -115.35 L-5.15 -114.75 -4.65 -115.3 Q-3.5 -113.3 -1.8 -111.55 -3.5 -113.3 -4.65 -115.3 L-5.15 -114.75 Q-5.85 -114.15 -6.8 -114.05 -5.85 -114.15 -5.15 -114.75 L-4.8 -115.35 Q-3.65 -117.95 -4.8 -123.1" fill="#ffed4d" fill-rule="evenodd" stroke="none"/>
      <path d="M4.6 -106.7 Q0.75 -108.85 -1.8 -111.55 L3.7 -101.75 Q2.95 -97.7 -2.1 -98.8 -7.35 -104.65 -6.8 -114.05 L-9.0 -114.3 Q-8.9 -104.6 -12.15 -98.2 -17.3 -96.95 -19.15 -101.1 L-14.8 -110.1 Q-17.05 -108.05 -20.2 -105.95 L-23.55 -109.4 Q-25.9 -112.35 -26.5 -123.1 -16.65 -125.0 -11.15 -123.1 -7.7 -124.4 -4.8 -123.1 0.7 -125.0 10.6 -123.1 10.05 -114.5 7.85 -110.95 6.35 -108.55 4.6 -106.7 M-1.8 -111.55 Q-3.5 -113.3 -4.65 -115.3 L-5.15 -114.75 Q-5.85 -114.15 -6.8 -114.05 M-5.15 -114.75 L-4.8 -115.35 Q-3.65 -117.95 -4.8 -123.1 M-11.15 -123.1 Q-11.9 -118.35 -10.6 -114.95 L-9.0 -114.3 M-10.6 -114.95 Q-12.0 -112.6 -14.8 -110.1" fill="none" stroke="#000000" stroke-linecap="round" stroke-linejoin="round" stroke-width="2.5"/>
      <path d="M-4.9 -94.1 Q-4.8 -93.3 -5.3 -92.65 -5.75 -92.05 -6.55 -91.9 -7.35 -91.8 -8.0 -92.3 -8.6 -92.75 -8.7 -93.55 -8.85 -94.4 -8.4 -95.0 L-7.1 -95.75 Q-6.25 -95.85 -5.65 -95.4 -5.05 -94.9 -4.9 -94.1" fill="#ffffff" fill-rule="evenodd" stroke="none"/>
      <path d="M-4.9 -94.1 Q-4.8 -93.3 -5.3 -92.65 -5.75 -92.05 -6.55 -91.9 -7.35 -91.8 -8.0 -92.3 -8.6 -92.75 -8.7 -93.55 -8.85 -94.4 -8.4 -95.0 L-7.1 -95.75 Q-6.25 -95.85 -5.65 -95.4 -5.05 -94.9 -4.9 -94.1" fill="none" stroke="#000000" stroke-linecap="round" stroke-linejoin="round" stroke-width="1.5"/>
      <path d="M-4.55 -79.9 Q-4.45 -79.1 -4.95 -78.45 -5.4 -77.85 -6.2 -77.7 -7.0 -77.6 -7.65 -78.1 -8.25 -78.55 -8.35 -79.35 -8.5 -80.2 -8.05 -80.8 L-6.75 -81.55 Q-5.9 -81.65 -5.3 -81.2 -4.7 -80.7 -4.55 -79.9" fill="#ffffff" fill-rule="evenodd" stroke="none"/>
      <path d="M-4.55 -79.9 Q-4.45 -79.1 -4.95 -78.45 -5.4 -77.85 -6.2 -77.7 -7.0 -77.6 -7.65 -78.1 -8.25 -78.55 -8.35 -79.35 -8.5 -80.2 -8.05 -80.8 L-6.75 -81.55 Q-5.9 -81.65 -5.3 -81.2 -4.7 -80.7 -4.55 -79.9" fill="none" stroke="#000000" stroke-linecap="round" stroke-linejoin="round" stroke-width="1.5"/>
      <path d="M-3.85 -65.7 Q-3.75 -64.9 -4.25 -64.25 -4.7 -63.65 -5.5 -63.5 -6.3 -63.4 -6.95 -63.9 -7.55 -64.35 -7.65 -65.15 -7.8 -66.0 -7.35 -66.6 -6.85 -67.25 -6.05 -67.35 -5.2 -67.45 -4.6 -67.0 -4.0 -66.5 -3.85 -65.7" fill="#ffffff" fill-rule="evenodd" stroke="none"/>
      <path d="M-3.85 -65.7 Q-3.75 -64.9 -4.25 -64.25 -4.7 -63.65 -5.5 -63.5 -6.3 -63.4 -6.95 -63.9 -7.55 -64.35 -7.65 -65.15 -7.8 -66.0 -7.35 -66.6 -6.85 -67.25 -6.05 -67.35 -5.2 -67.45 -4.6 -67.0 -4.0 -66.5 -3.85 -65.7" fill="none" stroke="#000000" stroke-linecap="round" stroke-linejoin="round" stroke-width="1.5"/>
    </g>
  </defs>
</svg>
