<?xml version="1.0" encoding="UTF-8" standalone="no"?>
<svg xmlns:xlink="http://www.w3.org/1999/xlink" height="342.0px" width="237.9px" xmlns="http://www.w3.org/2000/svg">
  <g transform="matrix(1, 0, 0, 1, 118.05, 273.9)">
    <use height="150.35" transform="matrix(1.0, 0.0, 0.0, 1.0, -57.05, -138.6)" width="109.35" xlink:href="#shape0"/>
  </g>
  <defs>
    <g id="shape0" transform="matrix(1, 0, 0, 1, 57.05, 138.6)">
      <path d="M5.15 -128.05 L5.15 -128.1 4.2 -127.95 -0.95 -127.35 -9.2 -126.85 -9.3 -126.85 -9.75 -126.85 -12.75 -126.8 -19.75 -127.2 -26.25 -128.3 -27.1 -123.8 -28.05 -118.75 -29.5 -110.8 -29.7 -109.8 -29.75 -109.5 -29.85 -108.95 -31.5 -100.5 -31.5 -100.45 -33.6 -90.8 -35.05 -83.95 -36.45 -76.45 -38.8 -63.55 -39.0 -62.5 -39.2 -61.3 -40.15 -55.2 -40.25 -54.65 -41.0 -49.65 -41.5 -46.5 -42.8 -37.8 -42.8 -37.75 -43.65 -31.45 -43.7 -31.5 -43.7 -31.45 -43.85 -30.4 -44.35 -26.8 -45.25 -20.95 -47.2 -7.3 -48.05 -2.35 -49.1 2.3 Q-48.7 2.15 -43.8 3.4 L-39.7 3.8 -32.75 4.05 -21.25 4.2 20.3 4.0 28.7 2.7 35.2 1.25 Q48.15 -2.2 46.05 -7.25 L44.3 -11.55 44.15 -11.85 38.65 -26.05 38.25 -27.1 30.35 -49.1 30.35 -49.15 29.1 -52.65 27.6 -56.9 27.35 -57.65 26.05 -61.3 24.85 -64.7 18.25 -83.95 16.6 -89.0 16.4 -89.5 14.0 -97.0 13.0 -100.05 12.7 -101.0 11.05 -106.25 10.95 -106.55 10.1 -109.3 10.05 -109.45 9.7 -110.55 8.85 -113.45 6.15 -123.1 Q5.2 -126.7 5.15 -128.05 M12.75 -110.05 L11.05 -106.25 12.75 -110.05 M19.25 -101.0 L21.05 -94.9 21.05 -94.8 22.7 -89.5 22.85 -89.0 24.4 -83.95 Q27.0 -75.6 28.6 -71.25 L32.25 -61.3 41.4 -36.25 45.7 -24.5 47.9 -18.45 49.95 -12.9 51.6 -8.3 Q52.6 -4.7 52.2 -2.15 51.95 -0.55 51.2 0.6 49.2 3.6 44.15 6.0 32.15 11.75 -9.15 11.75 L-21.25 11.7 -50.65 10.55 Q-52.15 10.3 -54.55 7.85 L-56.6 5.65 -56.95 4.6 -57.0 4.3 Q-57.55 -0.6 -54.05 -21.6 L-53.85 -22.85 -52.65 -29.8 -52.55 -30.4 -52.05 -33.15 -46.95 -61.3 -42.8 -83.95 -41.8 -89.0 -40.2 -97.0 Q-34.85 -123.55 -32.05 -131.9 L-32.05 -138.6 Q-19.9 -134.55 -2.0 -134.55 L8.85 -135.5 16.65 -109.8 19.25 -101.0 M-30.6 -113.6 L-29.5 -110.8 -30.6 -113.6" fill="#000000" fill-rule="evenodd" stroke="none"/>
      <path d="M5.15 -128.05 L4.2 -127.95 5.15 -128.1 5.15 -128.05" fill="#fff1dd" fill-rule="evenodd" stroke="none"/>
      <path d="M4.2 -127.95 L5.15 -128.05 Q5.2 -126.7 6.15 -123.1 L8.85 -113.45 4.95 -103.35 -9.2 -126.85 -0.95 -127.35 4.2 -127.95 M23.75 -46.9 L29.1 -52.65 30.35 -49.15 30.35 -49.1 38.25 -27.1 38.65 -26.05 44.15 -11.85 44.3 -11.55 46.05 -7.25 Q48.15 -2.2 35.2 1.25 L21.2 -44.6 21.4 -44.8 21.85 -44.4 23.0 -44.3 Q23.55 -44.5 23.9 -45.05 24.15 -45.6 24.0 -46.15 L23.75 -46.9 M28.7 2.7 L20.3 4.0 -21.25 4.2 -32.75 4.05 -25.0 -38.9 Q-21.5 -37.9 -17.45 -37.5 -9.15 -40.45 -5.7 -51.0 -2.65 -41.8 8.15 -36.55 12.15 -38.3 15.75 -40.6 L28.7 2.7 M-39.7 3.8 L-43.8 3.4 Q-48.7 2.15 -49.1 2.3 L-48.05 -2.35 -47.2 -7.3 -45.25 -20.95 -44.35 -26.8 -43.85 -30.4 -43.7 -31.45 -43.65 -31.45 -42.8 -37.75 -42.8 -37.8 -41.5 -46.5 -41.0 -49.65 Q-38.9 -46.65 -36.0 -44.35 L-36.15 -43.65 Q-36.3 -43.05 -35.95 -42.5 -35.6 -42.0 -35.0 -41.85 -34.4 -41.75 -33.85 -42.1 L-33.45 -42.5 -30.85 -41.05 -39.7 3.8 M-28.05 -118.75 L-27.1 -123.8 -26.25 -128.3 -19.75 -127.2 -12.75 -126.8 -9.75 -126.85 -9.3 -126.85 -9.2 -126.85 -21.55 -103.7 -28.05 -118.75" fill="#2b2b2b" fill-rule="evenodd" stroke="none"/>
      <path d="M-9.2 -126.85 L4.95 -103.35 8.85 -113.45 9.7 -110.55 10.05 -109.45 10.1 -109.3 10.95 -106.55 7.6 -98.7 Q7.1 -98.9 6.6 -98.7 6.0 -98.55 5.7 -98.0 5.4 -97.45 5.6 -96.85 L6.1 -95.25 5.9 -94.75 4.95 -92.7 -9.2 -117.2 -22.1 -91.9 -22.45 -92.85 -22.6 -93.25 -22.2 -95.25 Q-22.1 -95.85 -22.45 -96.35 L-23.4 -97.0 -24.1 -97.0 -29.5 -110.8 -28.05 -118.75 -21.55 -103.7 -9.2 -126.85" fill="#333333" fill-rule="evenodd" stroke="none"/>
      <path d="M10.95 -106.55 L11.05 -106.25 12.7 -101.0 13.0 -100.05 14.0 -97.0 16.4 -89.5 16.6 -89.0 18.25 -83.95 24.85 -64.7 26.05 -61.3 27.35 -57.65 27.6 -56.9 29.1 -52.65 23.75 -46.9 8.45 -97.7 7.7 -98.6 7.6 -98.65 11.05 -106.25 7.6 -98.65 7.6 -98.7 10.95 -106.55 M35.2 1.25 L28.7 2.7 15.75 -40.6 Q12.15 -38.3 8.15 -36.55 -2.65 -41.8 -5.7 -51.0 L-9.2 -117.2 -5.7 -51.0 Q-9.15 -40.45 -17.45 -37.5 -21.5 -37.9 -25.0 -38.9 -28.15 -39.75 -30.85 -41.05 -28.15 -39.75 -25.0 -38.9 L-32.75 4.05 -39.7 3.8 -30.85 -41.05 -33.45 -42.5 -33.2 -43.05 -22.65 -93.2 -22.1 -91.9 -9.2 -117.2 4.95 -92.7 5.9 -94.75 6.1 -95.2 21.15 -45.3 21.4 -44.8 21.2 -44.6 35.2 1.25 M-41.0 -49.65 L-40.25 -54.65 -40.15 -55.2 -39.2 -61.3 -39.0 -62.5 -38.8 -63.55 -36.45 -76.45 -35.05 -83.95 -33.6 -90.8 -31.5 -100.45 -31.5 -100.5 -29.85 -108.95 -29.75 -109.5 -24.25 -96.9 -24.5 -96.8 -25.15 -95.85 -36.0 -44.35 Q-38.9 -46.65 -41.0 -49.65 M21.2 -44.6 L15.75 -40.6 21.2 -44.6" fill="#5f5f9b" fill-rule="evenodd" stroke="none"/>
      <path d="M7.6 -98.65 L7.7 -98.6 8.45 -97.7 23.75 -46.9 24.0 -46.15 Q24.15 -45.6 23.9 -45.05 23.55 -44.5 23.0 -44.3 L21.85 -44.4 21.4 -44.8 21.15 -45.3 6.1 -95.2 6.1 -95.25 5.6 -96.85 Q5.4 -97.45 5.7 -98.0 6.0 -98.55 6.6 -98.7 7.1 -98.9 7.6 -98.7 L7.6 -98.65 7.0 -97.3 7.6 -98.65 M6.75 -96.7 L6.1 -95.25 6.75 -96.7 M22.55 -45.75 L23.75 -46.9 22.55 -45.75 M-24.1 -97.0 L-23.4 -97.0 -22.45 -96.35 Q-22.1 -95.85 -22.2 -95.25 L-22.6 -93.25 -24.1 -97.0 -22.6 -93.25 -22.65 -93.2 -33.2 -43.05 -33.45 -42.5 -33.85 -42.1 Q-34.4 -41.75 -35.0 -41.85 -35.6 -42.0 -35.95 -42.5 -36.3 -43.05 -36.15 -43.65 L-36.0 -44.35 -25.15 -95.85 -24.5 -96.8 -24.25 -96.9 -24.1 -97.0 M-33.45 -42.5 L-34.7 -43.35 -36.0 -44.35 -34.7 -43.35 -33.45 -42.5" fill="#8787b4" fill-rule="evenodd" stroke="none"/>
      <path d="M-29.75 -109.5 L-29.7 -109.8 -29.5 -110.8 -24.1 -97.0 -24.25 -96.9 -29.75 -109.5 M6.1 -95.2 L5.9 -94.75 6.1 -95.25 6.1 -95.2 M-22.6 -93.25 L-22.45 -92.85 -22.1 -91.9 -22.65 -93.2 -22.6 -93.25 -22.45 -92.85 -22.6 -93.25" fill="#404040" fill-rule="evenodd" stroke="none"/>
      <path d="M11.05 -106.25 L12.75 -110.05 M23.75 -46.9 L29.1 -52.65 M-29.5 -110.8 L-30.6 -113.6 M6.1 -95.25 L6.75 -96.7 M6.1 -95.2 L5.9 -94.75 4.95 -92.7 M15.75 -40.6 L21.2 -44.6 M6.1 -95.25 L5.9 -94.75 M23.75 -46.9 L22.55 -45.75 M15.75 -40.6 L28.7 2.7 M-22.6 -93.25 L-22.45 -92.85 -22.1 -91.9 M-36.0 -44.35 L-34.7 -43.35 -33.45 -42.5 -30.85 -41.05 -39.7 3.8 M-36.0 -44.35 Q-38.9 -46.65 -41.0 -49.65" fill="none" stroke="#000000" stroke-linecap="round" stroke-linejoin="round" stroke-width="4.0"/>
      <path d="M-9.2 -126.85 L4.95 -103.35 8.85 -113.45 M-9.2 -126.85 L-21.55 -103.7 -28.05 -118.75" fill="none" stroke="#ffffff" stroke-linecap="round" stroke-linejoin="round" stroke-opacity="0.0" stroke-width="4.0"/>
      <path d="M11.05 -106.25 L7.6 -98.65 7.0 -97.3 M4.95 -92.7 L-9.2 -117.2 -5.7 -51.0 Q-2.65 -41.8 8.15 -36.55 12.15 -38.3 15.75 -40.6 M21.2 -44.6 L21.4 -44.8 M35.2 1.25 L21.2 -44.6 M-29.5 -110.8 L-24.1 -97.0 -22.6 -93.25 -22.45 -92.85 M-22.1 -91.9 L-9.2 -117.2 M-30.85 -41.05 Q-28.15 -39.75 -25.0 -38.9 -21.5 -37.9 -17.45 -37.5 -9.15 -40.45 -5.7 -51.0 M-32.75 4.05 L-25.0 -38.9" fill="none" stroke="#000000" stroke-linecap="round" stroke-linejoin="round" stroke-width="4.0"/>
      <path d="M1.75 -42.15 L7.25 -32.35 Q6.5 -28.3 1.45 -29.4 -3.8 -35.25 -3.25 -44.65 L-5.45 -44.9 Q-5.35 -35.2 -8.6 -28.8 -13.75 -27.55 -15.6 -31.7 L-11.25 -40.7 Q-13.5 -38.65 -16.65 -36.55 L-20.0 -40.0 Q-22.35 -42.95 -22.95 -53.7 -13.1 -55.6 -7.6 -53.7 -4.15 -55.0 -1.25 -53.7 4.25 -55.6 14.15 -53.7 13.6 -45.1 11.4 -41.55 9.9 -39.15 8.15 -37.3 4.3 -39.45 1.75 -42.15 0.05 -43.9 -1.1 -45.9 L-1.6 -45.35 Q-2.3 -44.75 -3.25 -44.65 -2.3 -44.75 -1.6 -45.35 L-1.1 -45.9 Q0.05 -43.9 1.75 -42.15 M-11.25 -40.7 Q-8.45 -43.2 -7.05 -45.55 -8.35 -48.95 -7.6 -53.7 -8.35 -48.95 -7.05 -45.55 -6.2 -45.15 -5.45 -44.9 -6.2 -45.15 -7.05 -45.55 -8.45 -43.2 -11.25 -40.7 M-1.6 -45.35 L-1.25 -45.95 Q-0.1 -48.55 -1.25 -53.7 -0.1 -48.55 -1.25 -45.95 L-1.6 -45.35" fill="#373737" fill-rule="evenodd" stroke="none"/>
      <path d="M1.75 -42.15 L7.25 -32.35 Q6.5 -28.3 1.45 -29.4 -3.8 -35.25 -3.25 -44.65 L-5.45 -44.9 Q-5.35 -35.2 -8.6 -28.8 -13.75 -27.55 -15.6 -31.7 L-11.25 -40.7 Q-13.5 -38.65 -16.65 -36.55 L-20.0 -40.0 Q-22.35 -42.95 -22.95 -53.7 -13.1 -55.6 -7.6 -53.7 -4.15 -55.0 -1.25 -53.7 4.25 -55.6 14.15 -53.7 13.6 -45.1 11.4 -41.55 9.9 -39.15 8.15 -37.3 4.3 -39.45 1.75 -42.15 0.05 -43.9 -1.1 -45.9 L-1.6 -45.35 Q-2.3 -44.75 -3.25 -44.65 M-7.6 -53.7 Q-8.35 -48.95 -7.05 -45.55 -6.2 -45.15 -5.45 -44.9 M-1.25 -53.7 Q-0.1 -48.55 -1.25 -45.95 L-1.6 -45.35 M-7.05 -45.55 Q-8.45 -43.2 -11.25 -40.7" fill="none" stroke="#000000" stroke-linecap="round" stroke-linejoin="round" stroke-width="2.5"/>
    </g>
  </defs>
</svg>
