<?xml version="1.0" encoding="UTF-8" standalone="no"?>
<svg xmlns:xlink="http://www.w3.org/1999/xlink" height="342.0px" width="237.9px" xmlns="http://www.w3.org/2000/svg">
  <g transform="matrix(1, 0, 0, 1, 118.05, 273.9)">
    <use height="151.95" transform="matrix(1.0, 0.0, 0.0, 1.0, -80.9, -140.2)" width="132.5" xlink:href="#shape0"/>
  </g>
  <defs>
    <g id="shape0" transform="matrix(1, 0, 0, 1, 80.9, 140.2)">
      <path d="M27.95 -140.2 L27.95 -133.05 23.9 -131.95 Q17.25 -130.2 10.85 -129.0 L16.65 -109.8 19.95 -98.6 20.6 -97.9 20.45 -96.85 Q25.95 -78.5 28.6 -71.25 31.4 -63.65 36.05 -54.15 L43.55 -39.05 Q51.6 -22.0 51.6 -8.65 51.6 -2.85 50.7 -0.45 49.2 3.6 44.15 6.0 32.15 11.75 -9.15 11.75 -43.85 11.75 -50.65 10.55 -52.85 10.2 -53.45 9.35 -54.15 8.4 -55.25 8.0 -60.75 6.0 -60.75 3.5 -60.75 -0.1 -57.7 -0.65 L-56.05 -11.5 Q-62.6 -12.3 -73.15 -28.95 -73.15 -33.15 -71.4 -37.8 L-74.65 -35.95 Q-79.7 -35.95 -80.65 -42.7 -81.15 -46.1 -80.6 -49.5 -80.6 -56.1 -78.0 -63.25 -74.05 -74.1 -66.25 -74.1 -61.2 -74.1 -51.85 -65.2 L-47.2 -60.6 -45.75 -68.5 Q-36.15 -119.65 -32.05 -131.9 L-32.05 -138.6 Q-19.9 -134.55 -2.0 -134.55 8.75 -134.55 24.3 -139.1 L27.95 -140.2 M5.15 -128.1 Q-4.1 -126.8 -12.75 -126.8 L-17.55 -126.95 -15.0 -125.1 Q-5.05 -117.8 -3.2 -117.8 0.05 -117.8 2.5 -123.2 3.9 -126.15 5.25 -127.5 L5.15 -128.1 M5.8 -114.7 L2.0 -110.25 10.7 -104.35 Q11.15 -104.7 11.8 -104.85 L7.9 -117.6 5.8 -114.7 M10.8 -97.1 Q7.1 -97.1 1.3 -101.25 3.15 -90.85 4.5 -68.45 4.1 -58.75 3.3 -53.6 L13.6 -55.2 Q16.85 -55.65 20.25 -57.9 23.6 -60.15 25.75 -61.85 18.7 -83.1 14.1 -97.7 12.85 -97.1 10.8 -97.1 M29.25 -51.35 L27.8 -55.6 Q24.25 -53.15 10.75 -50.0 -2.8 -46.8 -14.0 -46.15 L-31.9 -46.9 Q-38.6 -48.3 -41.0 -49.55 L-41.7 -43.55 -41.7 -43.3 -41.75 -43.1 -41.65 -43.15 -41.4 -41.05 Q-41.15 -39.05 -12.2 -38.95 16.75 -38.85 23.7 -43.65 30.6 -48.5 29.35 -49.8 28.05 -51.1 29.25 -51.35 M41.75 -17.65 L38.0 -27.7 34.15 -37.45 33.95 -37.15 31.95 -43.2 Q29.75 -41.3 25.65 -39.5 13.05 -34.05 -11.75 -34.05 -35.45 -34.05 -42.9 -36.75 L-43.65 -31.45 -43.7 -31.5 -43.7 -31.45 -44.35 -26.8 -45.25 -20.95 Q-46.45 -13.95 -47.65 -8.8 -43.65 -11.0 -39.4 -11.0 -37.95 -11.0 -35.55 -9.75 L-30.65 -6.95 Q-23.1 -2.95 -15.05 -2.95 -14.0 -2.95 -12.25 -4.5 L-8.3 -7.9 Q-1.65 -12.9 8.4 -12.9 12.4 -12.9 18.5 -9.35 24.6 -5.8 28.95 -5.8 29.85 -5.8 31.15 -7.65 L33.7 -11.65 Q37.5 -17.55 41.4 -17.55 L41.75 -17.55 41.75 -17.65 M31.25 1.1 L29.55 1.5 Q21.3 1.5 16.95 -1.9 L13.7 -4.25 Q11.55 -5.3 8.3 -5.3 0.45 -5.3 -5.55 -0.45 L-9.8 2.85 -11.75 3.8 20.3 4.0 Q27.0 2.8 31.4 1.3 33.85 0.45 35.6 -0.5 43.1 -4.55 44.0 -7.85 L44.0 -7.9 44.1 -8.75 43.75 -11.05 Q42.25 -8.75 38.8 -5.1 34.15 -0.2 31.3 1.1 L31.25 1.1 M-23.55 -109.7 Q-16.4 -104.85 -14.35 -104.85 L-8.05 -109.7 Q-11.9 -112.4 -18.05 -118.1 L-26.45 -126.2 Q-26.95 -122.25 -28.55 -113.05 L-23.55 -109.7 M-30.0 -104.85 L-32.8 -90.15 -32.75 -90.15 -39.0 -62.5 -40.0 -56.1 -39.45 -55.9 Q-39.15 -55.65 -33.8 -53.35 -28.5 -51.05 -19.95 -51.35 L-1.05 -52.95 -1.05 -53.3 0.15 -68.6 Q0.15 -71.7 -2.2 -88.45 L-4.2 -103.55 -6.05 -101.9 Q-12.6 -96.15 -13.5 -96.15 -19.85 -96.15 -27.6 -102.7 L-30.0 -104.85 M-67.55 -46.9 L-66.5 -46.55 Q-60.45 -54.05 -50.0 -54.25 -58.4 -60.85 -62.5 -63.55 -65.45 -65.55 -66.25 -65.55 -67.25 -65.55 -68.15 -64.9 L-68.15 -64.85 Q-71.2 -62.7 -73.5 -53.55 L-73.5 -46.75 -73.4 -46.75 -72.2 -46.95 Q-69.4 -47.35 -67.55 -46.9 M-53.25 -27.75 L-52.9 -29.65 -50.15 -44.7 -50.1 -45.0 -49.85 -46.4 -54.5 -43.65 Q-60.55 -39.75 -63.3 -35.7 -64.7 -33.65 -65.2 -31.55 -65.55 -30.3 -65.55 -29.05 L-58.7 -22.5 -54.85 -18.65 -54.3 -21.75 -54.1 -22.85 -53.2 -27.75 -53.25 -27.75 M-48.15 2.25 L-22.95 3.6 Q-27.95 2.6 -32.2 0.35 -35.95 -1.65 -38.7 -3.65 -42.05 -3.65 -47.15 0.35 L-48.75 1.6 -49.35 2.05 -48.15 2.25" fill="#000000" fill-rule="evenodd" stroke="none"/>
      <path d="M10.8 -97.1 Q12.85 -97.1 14.1 -97.7 18.7 -83.1 25.75 -61.85 23.6 -60.15 20.25 -57.9 16.85 -55.65 13.6 -55.2 L3.3 -53.6 Q4.1 -58.75 4.5 -68.45 3.15 -90.85 1.3 -101.25 7.1 -97.1 10.8 -97.1 M41.4 -17.55 L41.75 -17.65 41.75 -17.55 41.4 -17.55 M31.4 1.3 L31.25 1.1 31.3 1.1 31.4 1.3 M-30.0 -104.85 L-27.6 -102.7 Q-19.85 -96.15 -13.5 -96.15 -12.6 -96.15 -6.05 -101.9 L-4.2 -103.55 -2.2 -88.45 Q0.15 -71.7 0.15 -68.6 L-1.05 -53.3 -1.05 -52.95 -19.95 -51.35 Q-28.5 -51.05 -33.8 -53.35 -39.15 -55.65 -39.45 -55.9 L-40.0 -56.1 -39.0 -62.5 -32.75 -90.15 -32.8 -90.15 -30.0 -104.85 M-48.75 1.6 L-48.15 2.25 -49.35 2.05 -48.75 1.6" fill="#ffeeee" fill-rule="evenodd" stroke="none"/>
      <path d="M29.25 -51.35 Q28.05 -51.1 29.35 -49.8 30.6 -48.5 23.7 -43.65 16.75 -38.85 -12.2 -38.95 -41.15 -39.05 -41.4 -41.05 L-41.65 -43.15 -41.75 -43.1 -41.7 -43.3 -41.7 -43.55 -41.0 -49.55 Q-38.6 -48.3 -31.9 -46.9 L-14.0 -46.15 Q-2.8 -46.8 10.75 -50.0 24.25 -53.15 27.8 -55.6 L29.25 -51.35 M-67.55 -46.9 L-67.5 -47.55 -67.2 -54.5 Q-66.1 -59.0 -62.5 -63.55 -58.4 -60.85 -50.0 -54.25 -60.45 -54.05 -66.5 -46.55 L-67.55 -46.9 M-68.15 -64.85 Q-69.45 -62.6 -70.4 -59.1 -72.15 -52.7 -72.15 -47.85 L-72.2 -46.95 -73.4 -46.75 -73.5 -46.75 -73.5 -53.55 Q-71.2 -62.7 -68.15 -64.85 M-63.3 -35.7 Q-60.55 -39.75 -54.5 -43.65 L-49.85 -46.4 -50.1 -45.0 -50.15 -44.7 -52.9 -29.65 -53.25 -27.75 -63.3 -35.7 M-54.1 -22.85 L-54.3 -21.75 -54.85 -18.65 -58.7 -22.5 -65.55 -29.05 Q-65.55 -30.3 -65.2 -31.55 -58.5 -24.3 -54.1 -22.85" fill="#ec0202" fill-rule="evenodd" stroke="none"/>
      <path d="M-43.65 -31.45 L-42.9 -36.75 Q-35.45 -34.05 -11.75 -34.05 13.05 -34.05 25.65 -39.5 29.75 -41.3 31.95 -43.2 L33.95 -37.15 34.15 -37.45 38.0 -27.7 41.75 -17.65 41.4 -17.55 Q37.5 -17.55 33.7 -11.65 L31.15 -7.65 Q29.85 -5.8 28.95 -5.8 24.6 -5.8 18.5 -9.35 12.4 -12.9 8.4 -12.9 -1.65 -12.9 -8.3 -7.9 L-12.25 -4.5 Q-14.0 -2.95 -15.05 -2.95 -23.1 -2.95 -30.65 -6.95 L-35.55 -9.75 Q-37.95 -11.0 -39.4 -11.0 -43.65 -11.0 -47.65 -8.8 -46.45 -13.95 -45.25 -20.95 L-44.35 -26.8 -43.7 -31.45 -43.65 -31.45 M31.4 1.3 Q27.0 2.8 20.3 4.0 L-11.75 3.8 -9.8 2.85 -5.55 -0.45 Q0.45 -5.3 8.3 -5.3 11.55 -5.3 13.7 -4.25 L16.95 -1.9 Q21.3 1.5 29.55 1.5 L31.25 1.1 31.4 1.3 31.3 1.1 Q34.15 -0.2 38.8 -5.1 42.25 -8.75 43.75 -11.05 L44.1 -8.75 44.0 -7.9 44.0 -7.85 Q43.1 -4.55 35.6 -0.5 33.85 0.45 31.4 1.3 M-48.75 1.6 L-47.15 0.35 Q-42.05 -3.65 -38.7 -3.65 -35.95 -1.65 -32.2 0.35 -27.95 2.6 -22.95 3.6 L-48.15 2.25 -48.75 1.6" fill="#ffdddd" fill-rule="evenodd" stroke="none"/>
      <path d="M5.15 -128.1 L5.25 -127.5 Q3.9 -126.15 2.5 -123.2 0.05 -117.8 -3.2 -117.8 -5.05 -117.8 -15.0 -125.1 L-17.55 -126.95 -12.75 -126.8 Q-4.1 -126.8 5.15 -128.1" fill="#fff1dd" fill-rule="evenodd" stroke="none"/>
      <path d="M5.8 -114.7 L7.9 -117.6 11.8 -104.85 Q11.15 -104.7 10.7 -104.35 L2.0 -110.25 5.8 -114.7 M-23.55 -109.7 L-28.55 -113.05 Q-26.95 -122.25 -26.45 -126.2 L-18.05 -118.1 Q-11.9 -112.4 -8.05 -109.7 L-14.35 -104.85 Q-16.4 -104.85 -23.55 -109.7" fill="#ffd5d5" fill-rule="evenodd" stroke="none"/>
      <path d="M-62.5 -63.55 Q-66.1 -59.0 -67.2 -54.5 L-67.5 -47.55 -67.55 -46.9 Q-69.4 -47.35 -72.2 -46.95 L-72.15 -47.85 Q-72.15 -52.7 -70.4 -59.1 -69.45 -62.6 -68.15 -64.85 L-68.15 -64.9 Q-67.25 -65.55 -66.25 -65.55 -65.45 -65.55 -62.5 -63.55 M-63.3 -35.7 L-53.25 -27.75 -53.2 -27.75 -54.1 -22.85 Q-58.5 -24.3 -65.2 -31.55 -64.7 -33.65 -63.3 -35.7" fill="#ffffff" fill-rule="evenodd" stroke="none"/>
      <path d="M1.2 -107.0 Q-0.5 -109.2 -5.95 -109.2 -7.0 -109.2 -7.0 -104.85 -7.0 -101.75 -6.7 -100.8 -5.75 -97.8 -2.2 -97.8 2.5 -97.8 2.05 -103.7 2.05 -105.95 1.2 -107.0 M6.65 -105.8 L6.5 -104.15 Q6.5 -100.3 5.75 -98.2 3.8 -93.05 -2.1 -93.05 -9.8 -93.05 -11.35 -99.2 -12.1 -102.3 -11.35 -105.5 L-11.2 -110.1 Q-9.9 -113.9 -3.9 -113.9 3.95 -113.9 6.0 -109.1 6.65 -107.6 6.65 -105.8" fill="#000000" fill-rule="evenodd" stroke="none"/>
      <path d="M1.2 -107.0 Q2.05 -105.95 2.05 -103.7 2.5 -97.8 -2.2 -97.8 -5.75 -97.8 -6.7 -100.8 -7.0 -101.75 -7.0 -104.85 -7.0 -109.2 -5.95 -109.2 -0.5 -109.2 1.2 -107.0" fill="#ec0202" fill-rule="evenodd" stroke="none"/>
    </g>
  </defs>
</svg>
