<?xml version="1.0" encoding="UTF-8" standalone="no"?>
<svg xmlns:xlink="http://www.w3.org/1999/xlink" height="342.0px" width="237.9px" xmlns="http://www.w3.org/2000/svg">
  <g transform="matrix(1, 0, 0, 1, 118.05, 273.9)">
    <use height="150.35" transform="matrix(1.0, 0.0, 0.0, 1.0, -73.75, -138.6)" width="128.6" xlink:href="#shape0"/>
  </g>
  <defs>
    <g id="shape0" transform="matrix(1, 0, 0, 1, 73.75, 138.6)">
      <path d="M11.15 -129.75 L15.4 -130.6 12.55 -124.55 Q10.45 -120.75 7.8 -116.95 4.55 -112.4 0.45 -107.95 L-7.45 -116.15 0.45 -107.95 Q4.55 -112.4 7.8 -116.95 10.45 -120.75 12.55 -124.55 L15.4 -130.6 Q30.25 -117.7 37.35 -110.4 L30.9 -110.4 Q25.95 -110.3 22.65 -103.75 21.2 -100.95 19.7 -99.35 17.75 -97.3 15.65 -97.35 L13.8 -97.55 Q11.35 -98.0 9.5 -99.3 7.0 -101.1 5.0 -101.3 3.0 -101.55 -3.85 -96.8 -10.7 -92.1 -15.65 -97.9 -23.7 -107.2 -31.15 -102.15 L-31.6 -101.8 Q-36.3 -98.35 -39.65 -99.65 -41.85 -100.5 -43.45 -103.2 -47.7 -110.25 -50.55 -111.2 L-54.2 -112.3 -55.45 -112.5 Q-49.3 -120.05 -37.05 -132.7 L-32.35 -130.95 -32.3 -130.95 Q-26.2 -128.9 -15.1 -128.05 L-14.3 -126.8 -7.45 -116.15 Q-4.7 -118.85 -2.9 -127.2 L-2.7 -128.0 11.15 -129.75 M37.6 -102.9 Q44.45 -95.1 49.35 -85.65 L40.7 -88.15 36.7 -88.3 Q34.85 -87.75 33.75 -83.45 32.65 -79.25 30.4 -79.05 28.25 -78.85 25.15 -81.55 L24.8 -81.85 Q21.45 -84.9 19.05 -84.6 L18.1 -84.4 Q16.15 -83.8 14.25 -81.8 11.8 -79.35 10.6 -77.45 9.4 -75.6 7.95 -74.25 6.45 -72.9 4.65 -74.2 2.8 -75.5 -2.55 -80.4 -7.9 -85.35 -14.65 -78.55 -21.45 -71.8 -24.95 -74.95 -28.45 -78.15 -29.85 -80.25 -30.55 -81.25 -33.05 -81.65 -34.45 -81.9 -35.45 -81.65 -36.4 -81.45 -37.1 -80.9 L-40.35 -77.9 Q-41.85 -76.4 -44.1 -76.8 L-45.05 -77.05 Q-48.0 -78.0 -49.25 -80.75 L-51.5 -85.45 Q-52.45 -87.5 -54.35 -88.5 -56.3 -89.5 -58.65 -89.35 L-67.05 -89.0 Q-61.8 -96.55 -54.2 -104.85 L-52.85 -104.3 Q-49.95 -102.7 -46.5 -95.4 -44.75 -91.65 -41.35 -91.4 -38.15 -91.25 -33.55 -94.1 L-32.7 -94.6 Q-23.6 -99.65 -15.65 -90.45 -10.7 -84.6 -3.85 -89.35 3.0 -94.1 5.95 -93.85 8.9 -93.6 11.4 -91.8 13.35 -90.45 16.25 -90.0 L18.0 -89.8 Q20.15 -89.65 22.1 -91.5 23.8 -93.15 25.4 -96.45 28.65 -103.4 34.2 -103.05 L37.6 -102.9 M-37.25 -72.0 L-36.2 -73.0 Q-34.9 -74.05 -33.75 -73.95 -31.75 -73.8 -31.05 -72.8 -29.55 -70.7 -27.6 -69.25 -21.4 -64.6 -14.35 -71.3 -7.3 -78.05 -3.5 -73.05 0.25 -68.1 4.85 -66.8 9.45 -65.5 11.1 -67.35 12.7 -69.2 13.5 -70.9 14.25 -72.6 16.25 -74.7 18.1 -76.8 20.55 -77.1 L22.6 -71.15 24.85 -64.7 26.05 -61.3 27.35 -57.65 27.6 -56.9 28.5 -54.25 Q-4.25 -45.55 -41.0 -49.6 L-40.25 -54.65 -40.15 -55.2 -39.2 -61.3 -39.0 -62.5 -38.8 -63.55 -37.25 -72.0 M-7.45 -116.15 Q-10.8 -111.35 -14.9 -108.15 -22.3 -112.35 -28.0 -118.9 -31.05 -122.4 -33.6 -126.5 L-37.05 -132.7 -33.6 -126.5 Q-31.05 -122.4 -28.0 -118.9 -22.3 -112.35 -14.9 -108.15 -10.8 -111.35 -7.45 -116.15" fill="#ffeeee" fill-rule="evenodd" stroke="none"/>
      <path d="M11.15 -129.75 L-2.7 -128.0 -2.9 -127.2 -9.75 -126.85 -12.75 -126.8 -14.3 -126.8 -15.1 -128.05 Q-26.2 -128.9 -32.3 -130.95 L-32.35 -130.95 -32.05 -131.9 -32.05 -138.6 Q-19.9 -134.55 -2.0 -134.55 3.25 -134.55 9.6 -135.6 L11.15 -129.75 M27.9 -73.2 L28.6 -71.25 32.25 -61.3 41.4 -36.25 45.7 -24.5 47.9 -18.45 49.95 -12.9 51.6 -8.3 Q52.6 -4.7 52.2 -2.15 51.95 -0.55 51.2 0.6 49.2 3.6 44.15 6.0 32.15 11.75 -9.15 11.75 L-21.25 11.7 -50.65 10.55 Q-52.15 10.3 -54.55 7.85 L-56.6 5.65 -56.95 4.6 -57.0 4.3 Q-57.55 -0.6 -54.05 -21.6 L-53.85 -22.85 -52.65 -29.8 -52.55 -30.4 -52.05 -33.15 -46.95 -61.3 -45.55 -68.8 Q-41.6 -68.4 -38.65 -70.8 L-37.25 -72.0 -38.8 -63.55 -39.0 -62.5 -39.2 -61.3 -40.15 -55.2 -40.25 -54.65 -41.0 -49.6 -44.45 -50.0 -41.0 -49.6 -41.5 -46.5 -41.85 -44.0 -42.8 -37.8 -42.8 -37.75 -43.65 -31.45 -43.7 -31.5 -43.7 -31.45 -43.85 -30.4 -44.35 -26.8 -45.25 -20.95 -47.2 -7.3 -47.85 -3.5 -48.05 -2.35 -49.1 2.3 Q-48.7 2.15 -43.8 3.4 L-21.25 4.2 20.3 4.0 Q49.1 0.1 46.05 -7.25 L45.8 -7.9 44.3 -11.55 44.15 -11.85 38.65 -26.05 38.25 -27.1 30.35 -49.05 30.35 -49.15 28.5 -54.25 27.6 -56.9 27.35 -57.65 26.05 -61.3 24.85 -64.7 22.6 -71.15 20.55 -77.1 20.75 -77.15 Q23.25 -77.45 26.7 -74.25 L27.9 -73.2 M31.15 -55.0 L28.5 -54.25 31.15 -55.0 M31.15 -49.3 L30.35 -49.05 31.15 -49.3 M-44.45 -44.3 L-41.85 -44.0 -44.45 -44.3" fill="#000000" fill-rule="evenodd" stroke="none"/>
      <path d="M37.35 -110.4 Q42.25 -105.35 43.45 -102.95 40.95 -102.85 37.6 -102.9 L34.2 -103.05 Q28.65 -103.4 25.4 -96.45 23.8 -93.15 22.1 -91.5 20.15 -89.65 18.0 -89.8 L16.25 -90.0 Q13.35 -90.45 11.4 -91.8 8.9 -93.6 5.95 -93.85 3.0 -94.1 -3.85 -89.35 -10.7 -84.6 -15.65 -90.45 -23.6 -99.65 -32.7 -94.6 L-33.55 -94.1 Q-38.15 -91.25 -41.35 -91.4 -44.75 -91.65 -46.5 -95.4 -49.95 -102.7 -52.85 -104.3 L-54.2 -104.85 Q-56.95 -105.55 -61.3 -104.25 -60.05 -107.0 -55.45 -112.5 L-54.2 -112.3 -50.55 -111.2 Q-47.7 -110.25 -43.45 -103.2 -41.85 -100.5 -39.65 -99.65 -36.3 -98.35 -31.6 -101.8 L-31.15 -102.15 Q-23.7 -107.2 -15.65 -97.9 -10.7 -92.1 -3.85 -96.8 3.0 -101.55 5.0 -101.3 7.0 -101.1 9.5 -99.3 11.35 -98.0 13.8 -97.55 L15.65 -97.35 Q17.75 -97.3 19.7 -99.35 21.2 -100.95 22.65 -103.75 25.95 -110.3 30.9 -110.4 L37.35 -110.4 M49.35 -85.65 L52.85 -78.3 Q46.0 -79.95 43.65 -80.7 L39.4 -80.85 Q37.5 -80.25 36.35 -76.0 35.15 -71.8 32.65 -71.4 30.55 -71.15 27.9 -73.2 L26.7 -74.25 Q23.25 -77.45 20.75 -77.15 L20.55 -77.1 Q18.1 -76.8 16.25 -74.7 14.25 -72.6 13.5 -70.9 12.7 -69.2 11.1 -67.35 9.45 -65.5 4.85 -66.8 0.25 -68.1 -3.5 -73.05 -7.3 -78.05 -14.35 -71.3 -21.4 -64.6 -27.6 -69.25 -29.55 -70.7 -31.05 -72.8 -31.75 -73.8 -33.75 -73.95 -34.9 -74.05 -36.2 -73.0 L-37.25 -72.0 -38.65 -70.8 Q-41.6 -68.4 -45.55 -68.8 L-47.45 -69.15 Q-51.9 -70.35 -53.35 -74.75 L-54.3 -77.95 Q-54.95 -80.05 -56.95 -81.0 -59.0 -82.0 -61.5 -81.9 L-71.75 -81.45 Q-69.7 -85.15 -67.05 -89.0 L-58.65 -89.35 Q-56.3 -89.5 -54.35 -88.5 -52.45 -87.5 -51.5 -85.45 L-49.25 -80.75 Q-48.0 -78.0 -45.05 -77.05 L-44.1 -76.8 Q-41.85 -76.4 -40.35 -77.9 L-37.1 -80.9 Q-36.4 -81.45 -35.45 -81.65 -34.45 -81.9 -33.05 -81.65 -30.55 -81.25 -29.85 -80.25 -28.45 -78.15 -24.95 -74.95 -21.45 -71.8 -14.65 -78.55 -7.9 -85.35 -2.55 -80.4 2.8 -75.5 4.65 -74.2 6.45 -72.9 7.95 -74.25 9.4 -75.6 10.6 -77.45 11.8 -79.35 14.25 -81.8 16.15 -83.8 18.1 -84.4 L19.05 -84.6 Q21.45 -84.9 24.8 -81.85 L25.15 -81.55 Q28.25 -78.85 30.4 -79.05 32.65 -79.25 33.75 -83.45 34.85 -87.75 36.7 -88.3 L40.7 -88.15 49.35 -85.65" fill="#fd2d2d" fill-rule="evenodd" stroke="none"/>
      <path d="M28.5 -54.25 L30.35 -49.15 30.35 -49.05 38.25 -27.1 38.65 -26.05 44.15 -11.85 44.3 -11.55 45.8 -7.9 44.85 -7.9 Q39.55 -7.9 36.5 -5.45 33.45 -3.05 29.35 -2.15 25.25 -1.25 19.25 -3.3 13.2 -5.4 5.25 -1.3 2.4 0.35 -0.6 0.8 L-6.75 0.55 Q-9.25 0.0 -11.8 -1.3 -20.6 -5.75 -28.3 -1.6 -35.65 1.3 -42.45 -1.75 -45.0 -2.95 -47.5 -3.4 L-47.85 -3.5 -47.5 -3.4 Q-45.0 -2.95 -42.45 -1.75 -35.65 1.3 -28.3 -1.6 -20.6 -5.75 -11.8 -1.3 -9.25 0.0 -6.75 0.55 L-0.6 0.8 Q2.4 0.35 5.25 -1.3 13.2 -5.4 19.25 -3.3 25.25 -1.25 29.35 -2.15 33.45 -3.05 36.5 -5.45 39.55 -7.9 44.85 -7.9 L45.8 -7.9 46.05 -7.25 Q49.1 0.1 20.3 4.0 L-21.25 4.2 -43.8 3.4 Q-48.7 2.15 -49.1 2.3 L-48.05 -2.35 -47.85 -3.5 -47.2 -7.3 -45.25 -20.95 -44.35 -26.8 -43.85 -30.4 -43.7 -31.45 -43.65 -31.45 -42.8 -37.75 -42.8 -37.8 -41.85 -44.0 Q-3.6 -39.65 30.35 -49.05 -3.6 -39.65 -41.85 -44.0 L-41.5 -46.5 -41.0 -49.6 Q-4.25 -45.55 28.5 -54.25" fill="#382b25" fill-rule="evenodd" stroke="none"/>
      <path d="M-2.9 -127.2 Q-4.7 -118.85 -7.45 -116.15 L-14.3 -126.8 -12.75 -126.8 -9.75 -126.85 -2.9 -127.2" fill="#fff1dd" fill-rule="evenodd" stroke="none"/>
      <path d="M15.4 -130.6 L11.15 -129.75 -2.7 -128.0 -2.9 -127.2 Q-4.7 -118.85 -7.45 -116.15 L0.45 -107.95 Q4.55 -112.4 7.8 -116.95 10.45 -120.75 12.55 -124.55 L15.4 -130.6 Q30.25 -117.7 37.35 -110.4 42.25 -105.35 43.45 -102.95 40.95 -102.85 37.6 -102.9 44.45 -95.1 49.35 -85.65 L52.85 -78.3 Q46.0 -79.95 43.65 -80.7 L39.4 -80.85 Q37.5 -80.25 36.35 -76.0 35.15 -71.8 32.65 -71.4 30.55 -71.15 27.9 -73.2 M-45.55 -68.8 L-47.45 -69.15 Q-51.9 -70.35 -53.35 -74.75 L-54.3 -77.95 Q-54.95 -80.05 -56.95 -81.0 -59.0 -82.0 -61.5 -81.9 L-71.75 -81.45 Q-69.7 -85.15 -67.05 -89.0 -61.8 -96.55 -54.2 -104.85 -56.95 -105.55 -61.3 -104.25 -60.05 -107.0 -55.45 -112.5 -49.3 -120.05 -37.05 -132.7 L-32.35 -130.95 -32.3 -130.95 Q-26.2 -128.9 -15.1 -128.05 L-14.3 -126.8 M-54.2 -104.85 L-52.85 -104.3 Q-49.95 -102.7 -46.5 -95.4 -44.75 -91.65 -41.35 -91.4 -38.15 -91.25 -33.55 -94.1 L-32.7 -94.6 Q-23.6 -99.65 -15.65 -90.45 -10.7 -84.6 -3.85 -89.35 3.0 -94.1 5.95 -93.85 8.9 -93.6 11.4 -91.8 13.35 -90.45 16.25 -90.0 L18.0 -89.8 Q20.15 -89.65 22.1 -91.5 23.8 -93.15 25.4 -96.45 28.65 -103.4 34.2 -103.05 L37.6 -102.9 M20.55 -77.1 L20.75 -77.15 Q23.25 -77.45 26.7 -74.25 L27.9 -73.2 M-37.25 -72.0 L-36.2 -73.0 Q-34.9 -74.05 -33.75 -73.95 -31.75 -73.8 -31.05 -72.8 -29.55 -70.7 -27.6 -69.25 -21.4 -64.6 -14.35 -71.3 -7.3 -78.05 -3.5 -73.05 0.25 -68.1 4.85 -66.8 9.45 -65.5 11.1 -67.35 12.7 -69.2 13.5 -70.9 14.25 -72.6 16.25 -74.7 18.1 -76.8 20.55 -77.1 M28.5 -54.25 L31.15 -55.0 M30.35 -49.05 L31.15 -49.3 M30.35 -49.05 Q-3.6 -39.65 -41.85 -44.0 L-44.45 -44.3 M-47.85 -3.5 L-47.5 -3.4 Q-45.0 -2.95 -42.45 -1.75 -35.65 1.3 -28.3 -1.6 -20.6 -5.75 -11.8 -1.3 -9.25 0.0 -6.75 0.55 L-0.6 0.8 Q2.4 0.35 5.25 -1.3 13.2 -5.4 19.25 -3.3 25.25 -1.25 29.35 -2.15 33.45 -3.05 36.5 -5.45 39.55 -7.9 44.85 -7.9 L45.8 -7.9 M-37.05 -132.7 L-33.6 -126.5 Q-31.05 -122.4 -28.0 -118.9 -22.3 -112.35 -14.9 -108.15 -10.8 -111.35 -7.45 -116.15 L-14.3 -126.8 M-45.55 -68.8 Q-41.6 -68.4 -38.65 -70.8 L-37.25 -72.0 M-41.0 -49.6 Q-4.25 -45.55 28.5 -54.25 M-41.0 -49.6 L-44.45 -50.0" fill="none" stroke="#000000" stroke-linecap="round" stroke-linejoin="round" stroke-width="4.0"/>
      <path d="M-55.45 -112.5 L-54.2 -112.3 -50.55 -111.2 Q-47.7 -110.25 -43.45 -103.2 -41.85 -100.5 -39.65 -99.65 -36.3 -98.35 -31.6 -101.8 L-31.15 -102.15 Q-23.7 -107.2 -15.65 -97.9 -10.7 -92.1 -3.85 -96.8 3.0 -101.55 5.0 -101.3 7.0 -101.1 9.5 -99.3 11.35 -98.0 13.8 -97.55 L15.65 -97.35 Q17.75 -97.3 19.7 -99.35 21.2 -100.95 22.65 -103.75 25.95 -110.3 30.9 -110.4 L37.35 -110.4 M49.35 -85.65 L40.7 -88.15 36.7 -88.3 Q34.85 -87.75 33.75 -83.45 32.65 -79.25 30.4 -79.05 28.25 -78.85 25.15 -81.55 L24.8 -81.85 Q21.45 -84.9 19.05 -84.6 L18.1 -84.4 Q16.15 -83.8 14.25 -81.8 11.8 -79.35 10.6 -77.45 9.4 -75.6 7.95 -74.25 6.45 -72.9 4.65 -74.2 2.8 -75.5 -2.55 -80.4 -7.9 -85.35 -14.65 -78.55 -21.45 -71.8 -24.95 -74.95 -28.45 -78.15 -29.85 -80.25 -30.55 -81.25 -33.05 -81.65 -34.45 -81.9 -35.45 -81.65 -36.4 -81.45 -37.1 -80.9 L-40.35 -77.9 Q-41.85 -76.4 -44.1 -76.8 L-45.05 -77.05 Q-48.0 -78.0 -49.25 -80.75 L-51.5 -85.45 Q-52.45 -87.5 -54.35 -88.5 -56.3 -89.5 -58.65 -89.35 L-67.05 -89.0" fill="none" stroke="#010101" stroke-linecap="round" stroke-linejoin="round" stroke-opacity="0.0" stroke-width="4.0"/>
      <path d="M-12.6 -90.75 Q-10.7 -95.55 -11.3 -96.95 L-13.3 -100.3 Q-14.6 -102.4 -14.2 -104.6 -13.65 -107.45 -10.3 -111.6 -12.35 -113.6 -10.3 -117.1 L-4.6 -117.1 Q-2.9 -114.35 -4.6 -111.6 L-4.35 -110.5 Q-3.85 -109.0 -2.6 -107.35 L0.15 -103.5 Q2.75 -98.75 -3.1 -91.8 -2.95 -94.7 -4.35 -96.85 L-5.3 -98.05 Q-7.4 -93.25 -12.6 -90.75 M-5.3 -98.05 L-7.4 -100.35 Q-11.6 -104.9 -10.3 -111.6 -7.8 -110.6 -4.6 -111.6 -7.8 -110.6 -10.3 -111.6 -11.6 -104.9 -7.4 -100.35 L-5.3 -98.05" fill="#fd0202" fill-rule="evenodd" stroke="none"/>
      <path d="M-12.6 -90.75 Q-10.7 -95.55 -11.3 -96.95 L-13.3 -100.3 Q-14.6 -102.4 -14.2 -104.6 -13.65 -107.45 -10.3 -111.6 -12.35 -113.6 -10.3 -117.1 L-4.6 -117.1 Q-2.9 -114.35 -4.6 -111.6 L-4.35 -110.5 Q-3.85 -109.0 -2.6 -107.35 L0.15 -103.5 Q2.75 -98.75 -3.1 -91.8 -2.95 -94.7 -4.35 -96.85 L-5.3 -98.05 M-4.6 -111.6 Q-7.8 -110.6 -10.3 -111.6 -11.6 -104.9 -7.4 -100.35 L-5.3 -98.05" fill="none" stroke="#000000" stroke-linecap="round" stroke-linejoin="round" stroke-width="2.5"/>
      <path d="M-5.3 -98.05 Q-7.4 -93.25 -12.6 -90.75" fill="none" stroke="#000000" stroke-linecap="round" stroke-linejoin="round" stroke-width="2.5"/>
    </g>
  </defs>
</svg>
