<?xml version="1.0" encoding="UTF-8" standalone="no"?>
<svg xmlns:xlink="http://www.w3.org/1999/xlink" height="342.0px" width="237.9px" xmlns="http://www.w3.org/2000/svg">
  <g transform="matrix(1, 0, 0, 1, 118.05, 273.9)">
    <use height="159.75" transform="matrix(1.0, 0.0, 0.0, 1.0, -57.05, -138.6)" width="110.75" xlink:href="#shape0"/>
  </g>
  <defs>
    <g id="shape0" transform="matrix(1, 0, 0, 1, 57.05, 138.6)">
      <path d="M52.2 11.5 L48.6 -1.4 42.15 10.1 52.2 11.5 M11.35 19.25 L20.6 13.65 10.05 7.5 11.35 19.25 0.0 13.3 -11.0 19.65 -21.0 14.8 -31.85 19.0 -42.35 13.25 -52.5 17.55 -51.0 6.05 -42.35 13.25 -29.5 7.3 -21.0 14.8 -11.0 7.55 0.0 13.3 10.05 7.5 M31.95 15.75 L42.15 10.1 29.25 3.85 31.95 15.75 20.6 13.65 29.25 3.85 M-29.5 7.3 L-31.85 19.0 M-11.0 19.65 L-11.0 7.55" fill="none" stroke="#cd2929" stroke-linecap="round" stroke-linejoin="round" stroke-width="3.0"/>
      <path d="M0.6 -127.5 L5.15 -128.1 5.15 -128.05 Q5.2 -126.75 6.15 -123.1 L7.2 -119.15 Q4.3 -114.0 1.3 -110.9 L1.2 -110.8 -1.85 -108.25 Q-9.65 -103.1 -18.7 -110.35 L-19.65 -111.1 -22.55 -113.9 Q-25.1 -116.6 -27.75 -120.2 L-27.1 -123.8 -26.25 -128.3 -19.75 -127.2 Q-8.1 -108.9 0.6 -127.5 M4.0 -52.4 L6.35 -52.6 9.35 -52.95 Q18.55 -54.05 27.7 -56.55 L30.35 -49.15 30.35 -49.1 31.0 -47.3 Q23.95 -45.7 16.95 -44.7 L13.0 -44.15 12.25 -44.1 9.2 -43.8 Q17.25 -31.65 38.2 -27.2 L38.25 -27.1 38.65 -26.05 41.55 -18.45 42.95 -14.85 39.75 -15.0 32.75 -15.8 Q28.7 -16.5 24.9 -17.65 L19.35 -19.65 Q16.25 -20.95 13.35 -22.55 10.55 -24.05 7.95 -25.85 L4.6 -28.3 0.25 -32.05 -3.2 -35.5 -2.3 -36.8 Q-0.2 -39.9 1.75 -43.3 L9.2 -43.8 1.75 -43.3 Q-0.2 -39.9 -2.3 -36.8 L-3.2 -35.5 -4.15 -34.25 -4.95 -33.2 -6.7 -31.05 -9.4 -28.05 -12.05 -25.4 Q-15.25 -22.4 -18.75 -19.95 L-20.2 -19.0 Q-22.0 -17.85 -23.85 -16.85 -26.2 -15.6 -28.7 -14.6 -32.05 -13.25 -35.6 -12.35 L-40.75 -11.3 -46.3 -10.75 -46.65 -10.75 -46.6 -11.0 -45.95 -15.7 -45.25 -20.95 -44.7 -24.55 Q-25.45 -25.6 -14.45 -43.4 L-26.5 -44.55 -30.4 -45.1 -41.4 -47.2 -40.25 -54.65 -40.15 -55.2 -39.95 -56.4 Q-31.2 -54.15 -22.5 -53.05 L-18.4 -52.6 -17.0 -52.45 Q-9.35 -51.85 -1.8 -52.1 L4.0 -52.4 M1.75 -43.3 L-14.45 -43.4 1.75 -43.3" fill="#ffeeee" fill-rule="evenodd" stroke="none"/>
      <path d="M7.2 -119.15 L6.15 -123.1 Q5.2 -126.75 5.15 -128.05 L5.15 -128.1 0.6 -127.5 1.35 -129.25 0.6 -127.5 -0.95 -127.35 -9.75 -126.85 -12.75 -126.8 -19.75 -127.2 -26.25 -128.3 -27.1 -123.8 -27.75 -120.2 -29.2 -122.25 -27.75 -120.2 -29.25 -112.1 -29.7 -109.8 -29.85 -108.95 -30.0 -108.0 -31.0 -102.9 -31.5 -100.5 -31.5 -100.45 -31.8 -98.9 -32.85 -93.9 -32.85 -93.85 -33.6 -90.8 -34.25 -87.95 -35.05 -83.95 -36.45 -76.45 -38.8 -63.55 -39.0 -62.5 -39.2 -61.3 -39.95 -56.4 -40.15 -55.2 -40.25 -54.65 -41.4 -47.2 -44.2 -47.85 -41.4 -47.2 -41.5 -46.5 -42.8 -37.8 -42.8 -37.75 -43.65 -31.45 -43.7 -31.5 -43.7 -31.45 -43.85 -30.4 -44.35 -26.8 -44.7 -24.55 -45.25 -20.95 -45.95 -15.7 -46.6 -11.0 -46.65 -10.75 -47.2 -7.3 -48.05 -2.35 -49.1 2.3 -47.6 2.5 -43.8 3.4 -43.3 3.5 -31.0 4.1 -29.3 4.1 -24.0 4.15 -21.25 4.2 20.3 4.0 26.75 3.05 34.8 1.35 35.8 1.05 40.35 -0.4 Q42.55 -1.3 44.0 -2.3 47.15 -4.55 46.05 -7.25 L44.3 -11.55 44.15 -11.85 43.5 -13.55 42.95 -14.85 41.55 -18.45 38.65 -26.05 38.25 -27.1 38.2 -27.2 31.0 -47.3 30.35 -49.1 30.35 -49.15 27.7 -56.55 27.6 -56.9 27.35 -57.65 26.05 -61.3 24.85 -64.7 21.2 -75.25 20.35 -77.8 18.25 -83.95 16.6 -89.0 16.4 -89.5 16.0 -90.75 14.95 -94.0 14.7 -94.8 14.4 -95.65 14.0 -97.0 13.0 -100.05 12.7 -101.0 12.3 -102.35 11.8 -103.85 10.45 -108.25 10.1 -109.3 10.05 -109.45 9.7 -110.55 7.2 -119.15 9.05 -122.85 7.2 -119.15 M16.35 -110.85 L16.65 -109.8 19.25 -101.0 21.05 -94.9 21.05 -94.8 22.7 -89.5 22.85 -89.0 24.4 -83.95 Q27.0 -75.6 28.6 -71.25 L32.25 -61.3 41.4 -36.25 45.7 -24.5 47.9 -18.45 49.95 -12.9 51.6 -8.3 Q52.6 -4.7 52.2 -2.15 51.95 -0.55 51.2 0.6 49.2 3.6 44.15 6.0 39.75 8.1 31.35 9.45 L28.35 9.9 Q14.3 11.75 -9.15 11.75 L-21.25 11.7 -49.25 10.75 -50.65 10.55 Q-51.35 10.45 -52.25 9.85 L-54.55 7.85 -56.6 5.65 -56.95 4.6 -57.0 4.3 Q-57.55 -0.6 -54.05 -21.6 L-53.85 -22.85 -52.65 -29.8 -52.55 -30.4 -52.05 -33.15 -46.95 -61.3 -42.8 -83.95 -41.8 -89.0 -40.2 -97.0 Q-34.85 -123.55 -32.05 -131.9 L-32.05 -138.6 Q-19.9 -134.55 -2.0 -134.55 3.25 -134.55 9.6 -135.6 13.8 -119.65 16.35 -110.85 M14.95 -94.0 L14.95 -95.05 14.95 -95.25 14.85 -100.35 14.65 -104.55 14.85 -100.35 14.95 -95.25 14.95 -95.05 14.95 -94.0 M29.85 -57.15 L27.7 -56.55 29.85 -57.15 M33.15 -47.85 L31.0 -47.3 33.15 -47.85 M41.4 -26.6 L38.2 -27.2 41.4 -26.6 M45.25 -14.85 L44.15 -14.85 42.95 -14.85 44.15 -14.85 45.25 -14.85 M40.25 3.1 L35.5 1.6 34.8 1.35 35.5 1.6 40.25 3.1 M-21.15 -129.45 L-19.75 -127.2 -21.15 -129.45 M-31.8 -98.9 L-32.0 -101.55 -32.35 -109.15 -32.35 -111.3 -32.35 -109.15 -32.0 -101.55 -31.8 -98.9 M-42.8 -57.15 L-39.95 -56.4 -42.8 -57.15 M-48.55 -24.5 Q-46.6 -24.45 -44.7 -24.55 -46.6 -24.45 -48.55 -24.5 M-50.65 -10.7 L-46.65 -10.75 -50.65 -10.7 M-39.4 8.15 Q-34.95 6.25 -31.0 4.1 -34.95 6.25 -39.4 8.15" fill="#000000" fill-rule="evenodd" stroke="none"/>
      <path d="M-22.55 -113.9 L-19.65 -111.1 -21.75 -108.35 -18.25 -106.6 -17.1 -99.2 -19.55 -94.4 -15.8 -92.6 -14.65 -87.55 -21.4 -90.85 -24.8 -84.2 -17.15 -81.1 -15.35 -84.55 -14.45 -86.8 -14.1 -85.6 -14.1 -85.55 -12.8 -80.8 -13.45 -79.6 -12.35 -79.15 -10.8 -74.3 -15.3 -76.1 -20.5 -66.25 -9.8 -63.65 -9.0 -64.3 -7.9 -66.3 -5.45 -60.2 -4.15 -64.6 -1.8 -63.15 5.2 -68.25 -0.5 -74.45 -0.6 -74.5 -0.5 -74.45 -1.45 -75.5 -0.05 -82.8 4.6 -86.55 1.0 -89.75 Q1.55 -94.6 1.7 -99.05 L5.25 -102.75 1.65 -105.55 1.2 -110.8 1.3 -110.9 8.0 -105.65 10.45 -108.25 11.8 -103.85 11.2 -103.2 12.3 -102.35 12.7 -101.0 13.0 -100.05 14.0 -97.0 14.4 -95.65 8.4 -100.3 2.3 -93.9 7.7 -89.1 14.7 -94.8 14.95 -94.0 14.85 -89.8 10.7 -86.45 14.4 -83.15 13.8 -78.3 7.6 -83.85 1.15 -78.6 8.5 -70.6 13.1 -73.95 11.85 -68.05 11.2 -67.6 11.6 -67.2 10.3 -62.65 7.95 -65.25 1.2 -60.4 7.35 -54.8 6.35 -52.6 4.0 -52.4 -3.85 -58.05 -4.6 -58.2 -4.8 -58.75 -5.45 -60.2 -4.8 -58.75 -4.6 -58.2 -8.8 -59.25 -17.0 -52.45 -18.4 -52.6 -19.7 -55.4 -13.6 -60.45 -22.4 -62.6 -22.6 -62.25 -24.5 -67.25 -24.45 -67.25 -19.05 -77.55 -26.65 -80.6 -27.9 -78.1 -29.85 -86.2 -28.55 -85.65 -25.0 -92.6 -31.45 -95.7 -31.8 -98.9 -31.5 -100.45 -31.5 -100.5 -31.0 -102.9 -27.9 -106.95 -30.0 -108.0 -29.85 -108.95 -29.7 -109.8 -29.25 -112.1 -25.4 -110.15 -22.55 -113.9 M4.6 -28.3 L7.95 -25.85 4.8 -23.45 11.8 -10.25 Q6.05 -14.6 2.25 -19.75 L1.6 -20.95 1.45 -20.85 -0.65 -24.3 -0.3 -24.55 -2.75 -29.15 Q-3.65 -31.65 -4.15 -34.25 L-3.2 -35.5 0.25 -32.05 2.95 -27.0 4.6 -28.3 M13.35 -22.55 Q16.25 -20.95 19.35 -19.65 L21.5 -15.6 24.9 -17.65 Q28.7 -16.5 32.75 -15.8 L37.3 -10.35 39.75 -15.0 42.95 -14.85 43.5 -13.55 40.05 -7.05 44.0 -2.3 Q42.55 -1.3 40.35 -0.4 L38.05 -3.2 35.8 1.05 34.8 1.35 31.7 0.2 35.25 -6.55 28.2 -15.05 23.35 -12.05 29.3 -0.7 23.4 -3.3 19.95 -9.95 15.9 -7.45 12.3 -9.9 18.05 -13.5 13.35 -22.55 M-19.75 -102.85 L-24.25 -105.1 -28.95 -98.95 -23.15 -96.15 -19.75 -102.85 M-46.3 -10.75 L-40.75 -11.3 -38.2 -9.15 -35.6 -12.35 Q-32.05 -13.25 -28.7 -14.6 L-35.15 -6.55 -27.45 0.0 -21.1 -14.55 -23.85 -16.85 Q-22.0 -17.85 -20.2 -19.0 L-19.45 -18.35 -18.75 -19.95 Q-15.25 -22.4 -12.05 -25.4 L-16.25 -15.65 -12.1 -12.2 -14.55 -9.05 -17.95 -11.85 -22.45 -1.55 -29.65 3.3 -37.65 -3.45 -43.3 3.5 -43.8 3.4 -47.6 2.5 -40.7 -6.0 -46.3 -10.75" fill="#ffffff" fill-rule="evenodd" stroke="none"/>
      <path d="M-27.75 -120.2 Q-25.1 -116.6 -22.55 -113.9 L-25.4 -110.15 -29.25 -112.1 -27.75 -120.2 M-19.65 -111.1 L-18.7 -110.35 -18.25 -106.6 -21.75 -108.35 -19.65 -111.1 M1.3 -110.9 Q4.3 -114.0 7.2 -119.15 L9.7 -110.55 10.05 -109.45 10.1 -109.3 10.45 -108.25 8.0 -105.65 1.3 -110.9 M1.65 -105.55 L5.25 -102.75 1.7 -99.05 1.65 -105.55 M1.0 -89.75 L4.6 -86.55 -0.05 -82.8 1.0 -89.75 M-1.45 -75.5 L-0.5 -74.45 -0.6 -74.5 -0.5 -74.45 5.2 -68.25 -1.8 -63.15 -4.15 -64.6 -4.1 -64.8 -2.95 -69.2 -2.15 -72.45 -1.6 -74.9 -1.55 -75.05 -1.45 -75.5 M-4.6 -58.2 L-3.85 -58.05 4.0 -52.4 -1.8 -52.1 Q-9.35 -51.85 -17.0 -52.45 L-8.8 -59.25 -4.6 -58.2 -1.8 -52.1 -4.6 -58.2 M7.35 -54.8 L1.2 -60.4 7.95 -65.25 10.3 -62.65 Q9.0 -58.6 7.35 -54.8 M13.1 -73.95 L8.5 -70.6 1.15 -78.6 7.6 -83.85 13.8 -78.3 13.1 -73.95 M14.4 -83.15 L10.7 -86.45 14.85 -89.8 14.4 -83.15 M14.7 -94.8 L7.7 -89.1 2.3 -93.9 8.4 -100.3 14.4 -95.65 14.7 -94.8 M12.3 -102.35 L11.2 -103.2 11.8 -103.85 12.3 -102.35 M0.25 -32.05 L4.6 -28.3 2.95 -27.0 0.25 -32.05 M7.95 -25.85 Q10.55 -24.05 13.35 -22.55 L18.05 -13.5 12.3 -9.9 11.8 -10.25 4.8 -23.45 7.95 -25.85 M19.35 -19.65 L24.9 -17.65 21.5 -15.6 19.35 -19.65 M15.9 -7.45 L19.95 -9.95 23.4 -3.3 Q19.35 -5.3 15.9 -7.45 M29.3 -0.7 L23.35 -12.05 28.2 -15.05 35.25 -6.55 31.7 0.2 29.3 -0.7 M35.8 1.05 L38.05 -3.2 40.35 -0.4 35.8 1.05 M44.0 -2.3 L40.05 -7.05 43.5 -13.55 44.15 -11.85 44.3 -11.55 46.05 -7.25 Q47.15 -4.55 44.0 -2.3 M1.45 -20.85 L1.6 -20.95 2.25 -19.75 1.45 -20.85 M-31.0 -102.9 L-30.0 -108.0 -27.9 -106.95 -31.0 -102.9 M-17.1 -99.2 L-15.8 -92.6 -19.55 -94.4 -17.1 -99.2 M-14.65 -87.55 L-14.45 -86.8 -15.35 -84.55 -17.15 -81.1 -24.8 -84.2 -21.4 -90.85 -14.65 -87.55 M-10.8 -74.3 L-10.7 -74.0 -9.6 -70.8 -9.15 -69.6 -9.1 -69.6 -9.15 -69.55 -9.1 -69.4 -8.4 -67.6 -8.35 -67.4 -7.9 -66.3 -9.0 -64.3 -9.8 -63.65 -20.5 -66.25 -15.3 -76.1 -10.8 -74.3 M-19.75 -102.85 L-23.15 -96.15 -28.95 -98.95 -24.25 -105.1 -19.75 -102.85 M-19.7 -55.4 L-22.6 -62.25 -22.4 -62.6 -13.6 -60.45 -19.7 -55.4 M-24.5 -67.25 Q-26.45 -72.75 -27.9 -78.1 L-26.65 -80.6 -19.05 -77.55 -24.45 -67.25 -24.5 -67.25 M-29.85 -86.2 Q-30.85 -91.0 -31.45 -95.7 L-25.0 -92.6 -28.55 -85.65 -29.85 -86.2 M-9.15 -69.6 L-9.15 -69.55 -9.15 -69.6 M-46.65 -10.75 L-46.3 -10.75 -40.7 -6.0 -47.6 2.5 -49.1 2.3 -48.05 -2.35 -47.2 -7.3 -46.65 -10.75 M-40.75 -11.3 L-35.6 -12.35 -38.2 -9.15 -40.75 -11.3 M-28.7 -14.6 Q-26.2 -15.6 -23.85 -16.85 L-21.1 -14.55 -27.45 0.0 -35.15 -6.55 -28.7 -14.6 M-20.2 -19.0 L-18.75 -19.95 -19.45 -18.35 -20.2 -19.0 M-12.05 -25.4 L-9.4 -28.05 -6.7 -31.05 -4.95 -33.2 -4.15 -34.25 -4.4 -32.2 -4.75 -29.8 Q-6.05 -22.95 -9.15 -17.0 -10.5 -14.5 -12.1 -12.2 L-16.25 -15.65 -12.05 -25.4 M-43.3 3.5 L-37.65 -3.45 -29.65 3.3 -31.0 4.1 -43.3 3.5 M-22.45 -1.55 L-17.95 -11.85 -14.55 -9.05 Q-17.95 -5.05 -22.45 -1.55 M-2.75 -29.15 L-0.3 -24.55 -0.65 -24.3 Q-1.9 -26.7 -2.75 -29.15" fill="#995399" fill-rule="evenodd" stroke="none"/>
      <path d="M-18.7 -110.35 Q-9.65 -103.1 -1.85 -108.25 L1.2 -110.8 1.65 -105.55 1.7 -99.05 Q1.55 -94.6 1.0 -89.75 L-0.05 -82.8 -1.45 -75.5 -1.55 -75.05 -1.6 -74.9 -2.15 -72.45 -2.95 -69.2 -4.1 -64.8 -4.15 -64.6 -5.45 -60.2 -7.9 -66.3 -8.35 -67.4 -8.4 -67.6 -9.1 -69.4 -9.15 -69.55 -9.1 -69.6 -9.15 -69.6 -9.6 -70.8 -10.7 -74.0 -10.8 -74.3 -12.35 -79.15 -12.8 -80.8 -14.1 -85.55 -14.1 -85.6 -14.45 -86.8 -14.65 -87.55 -15.8 -92.6 -17.1 -99.2 -18.25 -106.6 -18.7 -110.35 M6.35 -52.6 L7.35 -54.8 Q9.0 -58.6 10.3 -62.65 L11.6 -67.2 11.85 -68.05 13.1 -73.95 13.8 -78.3 14.4 -83.15 14.85 -89.8 14.95 -94.0 16.0 -90.75 16.4 -89.5 16.6 -89.0 18.25 -83.95 20.35 -77.8 21.2 -75.25 24.85 -64.7 26.05 -61.3 27.35 -57.65 27.6 -56.9 27.7 -56.55 Q18.55 -54.05 9.35 -52.95 L6.35 -52.6 M-31.8 -98.9 L-31.45 -95.7 Q-30.85 -91.0 -29.85 -86.2 L-27.9 -78.1 Q-26.45 -72.75 -24.5 -67.25 L-22.6 -62.25 -19.7 -55.4 -18.4 -52.6 -22.5 -53.05 Q-31.2 -54.15 -39.95 -56.4 L-39.2 -61.3 -39.0 -62.5 -38.8 -63.55 -36.45 -76.45 -35.05 -83.95 -34.25 -87.95 -33.6 -90.8 -32.85 -93.85 -32.85 -93.9 -31.8 -98.9" fill="#8a6717" fill-rule="evenodd" stroke="none"/>
      <path d="M16.65 -109.8 L16.35 -110.85 16.65 -109.85 16.65 -109.8 M-52.25 9.85 Q-51.35 10.45 -50.65 10.55 L-49.25 10.75 -50.15 11.1 Q-51.0 11.15 -51.65 10.65 L-52.25 9.85 M28.35 9.9 L31.35 9.45 Q30.95 10.1 30.25 10.3 L28.75 10.2 28.35 9.9" fill="#aeaeae" fill-rule="evenodd" stroke="none"/>
      <path d="M31.0 -47.3 L38.2 -27.2 Q17.25 -31.65 9.2 -43.8 L12.25 -44.1 13.0 -44.15 16.95 -44.7 Q23.95 -45.7 31.0 -47.3 M-41.4 -47.2 L-30.4 -45.1 -26.5 -44.55 -14.45 -43.4 Q-25.45 -25.6 -44.7 -24.55 L-44.35 -26.8 -43.85 -30.4 -43.7 -31.45 -43.65 -31.45 -42.8 -37.75 -42.8 -37.8 -41.5 -46.5 -41.4 -47.2" fill="#3737ae" fill-rule="evenodd" stroke="none"/>
      <path d="M12.3 -9.9 L15.9 -7.45 Q19.35 -5.3 23.4 -3.3 L29.3 -0.7 31.7 0.2 34.8 1.35 26.75 3.05 20.3 4.0 -21.25 4.2 -24.0 4.15 -29.3 4.1 -31.0 4.1 -29.65 3.3 -22.45 -1.55 Q-17.95 -5.05 -14.55 -9.05 L-12.1 -12.2 Q-10.5 -14.5 -9.15 -17.0 -6.05 -22.95 -4.75 -29.8 L-4.4 -32.2 -4.15 -34.25 Q-3.65 -31.65 -2.75 -29.15 -1.9 -26.7 -0.65 -24.3 L1.45 -20.85 2.25 -19.75 Q6.05 -14.6 11.8 -10.25 L12.3 -9.9" fill="#262626" fill-rule="evenodd" stroke="none"/>
      <path d="M0.6 -127.5 Q-8.1 -108.9 -19.75 -127.2 L-12.75 -126.8 -9.75 -126.85 -0.95 -127.35 0.6 -127.5" fill="#fff1dd" fill-rule="evenodd" stroke="none"/>
      <path d="M0.6 -127.5 Q-8.1 -108.9 -19.75 -127.2 L-21.15 -129.45 M0.6 -127.5 L1.35 -129.25" fill="none" stroke="#000000" stroke-linecap="round" stroke-linejoin="round" stroke-width="4.0"/>
      <path d="M-27.75 -120.2 Q-25.1 -116.6 -22.55 -113.9 L-19.65 -111.1 -18.7 -110.35 Q-9.65 -103.1 -1.85 -108.25 L1.2 -110.8 1.3 -110.9 Q4.3 -114.0 7.2 -119.15 L9.05 -122.85 M1.7 -99.05 Q1.55 -94.6 1.0 -89.75 M-0.05 -82.8 L-1.45 -75.5 -1.55 -75.05 -1.6 -74.9 -2.15 -72.45 -2.95 -69.2 -4.1 -64.8 -4.15 -64.6 -5.45 -60.2 -4.8 -58.75 -4.6 -58.2 -1.8 -52.1 4.0 -52.4 6.35 -52.6 7.35 -54.8 M10.3 -62.65 L11.6 -67.2 M11.85 -68.05 L13.1 -73.95 M13.8 -78.3 L14.4 -83.15 14.85 -89.8 14.95 -94.0 M1.7 -99.05 L1.65 -105.55 1.2 -110.8 M14.65 -104.55 L14.85 -100.35 14.95 -95.25 14.95 -95.05 14.95 -94.0 M27.7 -56.55 L29.85 -57.15 M11.85 -68.05 L11.6 -67.2 M6.35 -52.6 L9.35 -52.95 Q18.55 -54.05 27.7 -56.55 M31.0 -47.3 L33.15 -47.85 M10.3 -62.65 Q9.0 -58.6 7.35 -54.8 M13.8 -78.3 L13.1 -73.95 M31.0 -47.3 Q23.95 -45.7 16.95 -44.7 L13.0 -44.15 12.25 -44.1 9.2 -43.8 Q17.25 -31.65 38.2 -27.2 L41.4 -26.6 M0.25 -32.05 L4.6 -28.3 7.95 -25.85 Q10.55 -24.05 13.35 -22.55 16.25 -20.95 19.35 -19.65 L24.9 -17.65 Q28.7 -16.5 32.75 -15.8 L39.75 -15.0 42.95 -14.85 44.15 -14.85 45.25 -14.85 M9.2 -43.8 L1.75 -43.3 Q-0.2 -39.9 -2.3 -36.8 L-3.2 -35.5 0.25 -32.05 M12.3 -9.9 L15.9 -7.45 Q19.35 -5.3 23.4 -3.3 L29.3 -0.7 31.7 0.2 34.8 1.35 35.5 1.6 40.25 3.1 M1.45 -20.85 L2.25 -19.75 Q6.05 -14.6 11.8 -10.25 M12.3 -9.9 L11.8 -10.25 M-27.75 -120.2 L-29.2 -122.25 M-32.35 -111.3 L-32.35 -109.15 -32.0 -101.55 -31.8 -98.9 M-18.25 -106.6 L-18.7 -110.35 M-18.25 -106.6 L-17.1 -99.2 -15.8 -92.6 -14.65 -87.55 -14.45 -86.8 -14.1 -85.6 -14.1 -85.55 -12.8 -80.8 -12.35 -79.15 -10.8 -74.3 -10.7 -74.0 -9.6 -70.8 -9.15 -69.6 M-9.15 -69.55 L-9.1 -69.4 -8.4 -67.6 -8.35 -67.4 -7.9 -66.3 -5.45 -60.2 M-31.45 -95.7 L-31.8 -98.9 M-39.95 -56.4 Q-31.2 -54.15 -22.5 -53.05 L-18.4 -52.6 -19.7 -55.4 -22.6 -62.25 -24.5 -67.25 Q-26.45 -72.75 -27.9 -78.1 L-29.85 -86.2 Q-30.85 -91.0 -31.45 -95.7 M-39.95 -56.4 L-42.8 -57.15 M-9.15 -69.55 L-9.15 -69.6 M-18.4 -52.6 L-17.0 -52.45 M-1.8 -52.1 Q-9.35 -51.85 -17.0 -52.45 M-44.2 -47.85 L-41.4 -47.2 -30.4 -45.1 -26.5 -44.55 -14.45 -43.4 1.75 -43.3 M-44.7 -24.55 Q-25.45 -25.6 -14.45 -43.4 M-46.65 -10.75 L-46.3 -10.75 -40.75 -11.3 -35.6 -12.35 Q-32.05 -13.25 -28.7 -14.6 -26.2 -15.6 -23.85 -16.85 -22.0 -17.85 -20.2 -19.0 L-18.75 -19.95 Q-15.25 -22.4 -12.05 -25.4 L-9.4 -28.05 -6.7 -31.05 -4.95 -33.2 -4.15 -34.25 -3.2 -35.5 M-44.7 -24.55 Q-46.6 -24.45 -48.55 -24.5 M-46.65 -10.75 L-50.65 -10.7 M-29.65 3.3 L-22.45 -1.55 M-14.55 -9.05 L-12.1 -12.2 M-2.75 -29.15 Q-3.65 -31.65 -4.15 -34.25 L-4.4 -32.2 -4.75 -29.8 Q-6.05 -22.95 -9.15 -17.0 -10.5 -14.5 -12.1 -12.2 M-2.75 -29.15 Q-1.9 -26.7 -0.65 -24.3 L1.45 -20.85 M-14.55 -9.05 Q-17.95 -5.05 -22.45 -1.55 M-29.65 3.3 L-31.0 4.1 Q-34.95 6.25 -39.4 8.15 M-0.05 -82.8 L1.0 -89.75" fill="none" stroke="#000000" stroke-linecap="round" stroke-linejoin="round" stroke-width="4.0"/>
      <path d="M14.05 -58.95 L14.0 -58.95 Q4.35 -56.05 -1.55 -61.75 L-2.3 -56.85 Q-6.9 -56.95 -10.9 -58.15 -15.25 -59.45 -19.0 -62.0 L-17.5 -66.05 Q-14.95 -73.75 -15.9 -77.85 L-18.55 -90.4 Q-19.25 -93.65 -17.7 -97.55 -15.7 -102.6 -10.0 -108.75 -10.85 -110.35 -11.15 -112.4 L-11.2 -115.75 Q-11.05 -116.85 -10.1 -117.6 -9.2 -118.4 -7.4 -118.7 L-4.8 -118.6 -3.65 -117.6 Q-2.65 -115.95 -2.3 -113.7 -1.85 -110.6 -2.85 -108.2 L-2.9 -108.05 Q-2.35 -93.95 6.15 -88.85 L6.5 -88.65 Q11.05 -84.7 12.8 -80.3 14.55 -75.9 14.95 -68.35 15.35 -60.8 14.05 -58.95 M-4.8 -105.8 Q-10.7 -94.0 -4.6 -86.05 -1.55 -82.1 -1.0 -74.75 -0.55 -69.25 -1.55 -61.75 -0.55 -69.25 -1.0 -74.75 -1.55 -82.1 -4.6 -86.05 -10.7 -94.0 -4.8 -105.8 L-5.6 -105.55 Q-7.45 -105.3 -9.05 -107.3 L-10.0 -108.75 -9.05 -107.3 Q-7.45 -105.3 -5.6 -105.55 L-4.8 -105.8 Q-3.65 -106.4 -2.9 -108.05 -3.65 -106.4 -4.8 -105.8" fill="#ffeeee" fill-rule="evenodd" stroke="none"/>
      <path d="M14.0 -58.95 Q4.35 -56.05 -1.55 -61.75 L-2.3 -56.85 Q-6.9 -56.95 -10.9 -58.15 -15.25 -59.45 -19.0 -62.0 L-17.5 -66.05 Q-14.95 -73.75 -15.9 -77.85 L-18.55 -90.4 Q-19.25 -93.65 -17.7 -97.55 -15.7 -102.6 -10.0 -108.75 -10.85 -110.35 -11.15 -112.4 L-11.2 -115.75 Q-11.05 -116.85 -10.1 -117.6 -9.2 -118.4 -7.4 -118.7 L-4.8 -118.6 -3.65 -117.6 Q-2.65 -115.95 -2.3 -113.7 -1.85 -110.6 -2.85 -108.2 L-2.9 -108.05 Q-2.35 -93.95 6.15 -88.85 L6.5 -88.65 Q11.05 -84.7 12.8 -80.3 14.55 -75.9 14.95 -68.35 15.35 -60.8 14.05 -58.95 M-10.0 -108.75 L-9.05 -107.3 Q-7.45 -105.3 -5.6 -105.55 L-4.8 -105.8 Q-3.65 -106.4 -2.9 -108.05 M-1.55 -61.75 Q-0.55 -69.25 -1.0 -74.75 -1.55 -82.1 -4.6 -86.05 -10.7 -94.0 -4.8 -105.8" fill="none" stroke="#000000" stroke-linecap="round" stroke-linejoin="round" stroke-width="3.0"/>
    </g>
  </defs>
</svg>
