<?xml version="1.0" encoding="UTF-8" standalone="no"?>
<svg xmlns:xlink="http://www.w3.org/1999/xlink" height="342.0px" width="237.9px" xmlns="http://www.w3.org/2000/svg">
  <g transform="matrix(1, 0, 0, 1, 118.05, 273.9)">
    <use height="150.35" transform="matrix(1.0, 0.0, 0.0, 1.0, -57.1, -138.6)" width="109.4" xlink:href="#shape0"/>
  </g>
  <defs>
    <g id="shape0" transform="matrix(1, 0, 0, 1, 57.1, 138.6)">
      <path d="M16.65 -109.8 L21.05 -94.8 21.05 -94.9 22.85 -89.0 Q26.55 -76.8 28.6 -71.25 L49.95 -12.9 51.6 -8.3 Q53.2 -2.4 51.2 0.6 49.2 3.6 44.15 6.0 32.15 11.75 -9.15 11.75 -43.85 11.75 -50.65 10.55 -52.7 10.25 -56.6 5.65 -58.65 3.3 -52.05 -33.15 L-41.8 -89.0 -40.2 -97.0 Q-34.85 -123.55 -32.05 -131.9 L-32.05 -138.6 Q-19.9 -134.55 -2.0 -134.55 2.9 -134.55 8.8 -135.5 L16.65 -109.8 M14.9 -94.15 L14.0 -97.0 Q8.3 -114.7 6.25 -122.55 5.2 -126.7 5.15 -128.1 L3.45 -127.85 2.65 -127.75 -7.9 -126.9 -8.5 -126.85 -12.75 -126.8 -22.4 -127.55 -23.7 -127.75 -26.25 -128.3 -27.3 -122.55 -31.5 -100.5 -32.65 -94.75 -33.6 -90.8 -36.45 -76.45 -39.0 -62.5 -42.8 -37.8 -42.8 -37.75 -43.65 -31.45 -43.7 -31.5 -43.7 -31.45 -44.35 -26.8 -45.25 -20.95 -46.35 -12.85 Q-48.05 -1.15 -49.1 2.3 -48.7 2.15 -43.8 3.4 L-39.5 3.8 Q-32.7 4.15 -16.2 4.2 L9.45 4.1 9.45 4.15 9.5 4.1 9.45 4.15 9.45 4.1 9.5 4.1 20.3 4.0 31.75 2.05 31.8 2.05 Q48.4 -1.6 46.05 -7.25 L45.05 -9.75 Q42.3 -16.45 38.65 -26.05 L38.25 -27.1 Q23.1 -69.05 16.6 -89.0 L14.9 -94.15 M-22.8 -128.8 L-22.4 -127.55 -22.8 -128.8" fill="#000000" fill-rule="evenodd" stroke="none"/>
      <path d="M2.65 -127.75 L3.45 -127.85 5.15 -128.1 Q5.2 -126.7 6.25 -122.55 8.3 -114.7 14.0 -97.0 L14.9 -94.15 Q-0.35 -96.0 -8.5 -116.0 0.45 -116.55 2.65 -127.75 0.45 -116.55 -8.5 -116.0 L-8.5 -126.85 -8.5 -116.0 Q-18.9 -116.85 -22.4 -127.55 L-12.75 -126.8 -8.5 -126.85 -7.9 -126.9 2.65 -127.75 M45.05 -9.75 L46.05 -7.25 Q48.4 -1.6 31.8 2.05 L31.7 2.0 36.45 -18.9 45.05 -9.75 M31.75 2.05 L20.3 4.0 9.5 4.1 17.65 -18.05 31.7 2.0 31.75 2.05 M9.45 4.1 L-16.2 4.2 Q-32.7 4.15 -39.5 3.8 L-43.8 3.4 Q-48.7 2.15 -49.1 2.3 -48.05 -1.15 -46.35 -12.85 L-39.5 3.8 -27.7 -17.5 -16.2 4.2 -3.65 -17.75 9.45 4.1 M-32.65 -94.75 L-31.5 -100.5 -27.3 -122.55 -26.25 -128.3 -23.7 -127.75 -22.4 -127.55 Q-18.9 -116.85 -8.5 -116.0 -11.9 -100.05 -32.65 -94.75" fill="#ffffff" fill-rule="evenodd" stroke="none"/>
      <path d="M-8.5 -116.0 Q-0.35 -96.0 14.9 -94.15 L16.6 -89.0 Q23.1 -69.05 38.25 -27.1 L38.65 -26.05 Q42.3 -16.45 45.05 -9.75 L36.45 -18.9 31.7 2.0 31.8 2.05 31.75 2.05 31.7 2.0 17.65 -18.05 9.5 4.1 9.45 4.1 -3.65 -17.75 -16.2 4.2 -27.7 -17.5 -39.5 3.8 -46.35 -12.85 -45.25 -20.95 -44.35 -26.8 -43.7 -31.45 -43.7 -31.5 -43.65 -31.45 -42.8 -37.75 -42.8 -37.8 -39.0 -62.5 -36.45 -76.45 -33.6 -90.8 -32.65 -94.75 Q-11.9 -100.05 -8.5 -116.0" fill="#0a7beb" fill-rule="evenodd" stroke="none"/>
      <path d="M9.5 4.1 L9.45 4.15 9.45 4.1 -3.65 -17.75 -16.2 4.2 -27.7 -17.5 -39.5 3.8 -46.35 -12.85 M45.05 -9.75 L36.45 -18.9 31.7 2.0 17.65 -18.05 9.5 4.1" fill="none" stroke="#ffffff" stroke-linecap="round" stroke-linejoin="round" stroke-opacity="0.0" stroke-width="2.5"/>
      <path d="M2.65 -127.75 Q0.45 -116.55 -8.5 -116.0 -0.35 -96.0 14.9 -94.15 M-22.4 -127.55 L-22.8 -128.8 M-8.5 -126.85 L-8.5 -116.0 Q-18.9 -116.85 -22.4 -127.55 M-32.65 -94.75 Q-11.9 -100.05 -8.5 -116.0" fill="none" stroke="#000000" stroke-linecap="round" stroke-linejoin="round" stroke-width="3.0"/>
      <path d="M2.75 -95.5 Q-0.25 -95.7 -2.25 -97.6 -3.45 -98.75 -4.3 -100.4 -6.35 -104.35 -6.7 -111.4 1.75 -105.0 2.75 -95.5 M-8.5 -111.3 Q-8.75 -105.45 -9.35 -101.5 L-9.4 -101.35 -9.45 -101.1 Q-10.9 -92.9 -14.35 -93.45 -16.5 -102.8 -8.5 -111.3" fill="#7d0202" fill-rule="evenodd" stroke="none"/>
      <path d="M4.2 -95.5 Q5.5 -89.8 9.55 -86.9 L1.55 -82.5 -2.0 -93.35 -2.25 -97.6 Q-0.25 -95.7 2.75 -95.5 L4.2 -95.5 2.75 -95.5 Q1.75 -105.0 -6.7 -111.4 L-7.8 -111.25 -8.5 -111.3 Q-9.75 -111.5 -10.7 -112.45 -11.35 -113.1 -11.6 -113.95 L-11.8 -114.7 -11.85 -115.35 Q-11.85 -116.6 -11.1 -117.05 L-10.5 -117.3 -7.5 -117.6 -4.85 -117.35 -4.75 -117.3 Q-3.75 -117.05 -3.75 -115.35 -3.75 -114.5 -4.05 -113.75 3.45 -110.75 7.45 -100.2 L4.2 -95.5 M-9.45 -101.1 Q-9.7 -90.05 -12.25 -82.25 L-22.85 -84.85 Q-18.75 -88.55 -17.85 -95.65 L-21.4 -97.85 Q-21.05 -109.95 -11.6 -113.95 -11.35 -113.1 -10.7 -112.45 -9.75 -111.5 -8.5 -111.3 -16.5 -102.8 -14.35 -93.45 -10.9 -92.9 -9.45 -101.1 M-4.05 -113.75 Q-4.35 -113.05 -4.95 -112.45 -5.7 -111.65 -6.7 -111.4 -5.7 -111.65 -4.95 -112.45 -4.35 -113.05 -4.05 -113.75 M-17.85 -95.65 L-14.35 -93.45 -17.85 -95.65" fill="#b80303" fill-rule="evenodd" stroke="none"/>
      <path d="M-2.25 -97.6 L-2.0 -93.35 1.55 -82.5 9.55 -86.9 Q5.5 -89.8 4.2 -95.5 L2.75 -95.5 Q-0.25 -95.7 -2.25 -97.6 -3.45 -98.75 -4.3 -100.4 -6.35 -104.35 -6.7 -111.4 L-7.8 -111.25 -8.5 -111.3 Q-8.75 -105.45 -9.35 -101.5 L-9.4 -101.35 -9.45 -101.1 Q-9.7 -90.05 -12.25 -82.25 L-22.85 -84.85 Q-18.75 -88.55 -17.85 -95.65 L-21.4 -97.85 Q-21.05 -109.95 -11.6 -113.95 L-11.8 -114.7 -11.85 -115.35 Q-11.85 -116.6 -11.1 -117.05 L-10.5 -117.3 -7.5 -117.6 -4.85 -117.35 -4.75 -117.3 Q-3.75 -117.05 -3.75 -115.35 -3.75 -114.5 -4.05 -113.75 3.45 -110.75 7.45 -100.2 L4.2 -95.5 M-6.7 -111.4 Q-5.7 -111.65 -4.95 -112.45 -4.35 -113.05 -4.05 -113.75 M-11.6 -113.95 Q-11.35 -113.1 -10.7 -112.45 -9.75 -111.5 -8.5 -111.3 -16.5 -102.8 -14.35 -93.45 -10.9 -92.9 -9.45 -101.1 M-14.35 -93.45 L-17.85 -95.65 M2.75 -95.5 Q1.75 -105.0 -6.7 -111.4" fill="none" stroke="#000000" stroke-linecap="round" stroke-linejoin="round" stroke-width="3.0"/>
    </g>
  </defs>
</svg>
