<?xml version="1.0" encoding="UTF-8" standalone="no"?>
<svg xmlns:xlink="http://www.w3.org/1999/xlink" height="342.0px" width="237.9px" xmlns="http://www.w3.org/2000/svg">
  <g transform="matrix(1, 0, 0, 1, 118.05, 273.9)">
    <use height="151.95" transform="matrix(1.0, 0.0, 0.0, 1.0, -60.75, -140.2)" width="112.35" xlink:href="#shape0"/>
  </g>
  <defs>
    <g id="shape0" transform="matrix(1, 0, 0, 1, 60.75, 140.2)">
      <path d="M27.95 -140.2 L27.95 -133.05 23.9 -131.95 Q17.25 -130.2 10.85 -129.0 L16.65 -109.8 19.95 -98.6 20.6 -97.9 20.45 -96.85 Q25.95 -78.5 28.6 -71.25 31.4 -63.65 36.05 -54.15 L43.55 -39.05 Q46.45 -32.9 48.35 -27.2 51.6 -17.15 51.6 -8.65 51.6 -2.85 50.7 -0.45 49.2 3.6 44.15 6.0 32.15 11.75 -9.15 11.75 -43.85 11.75 -50.65 10.55 -52.85 10.2 -53.45 9.35 -54.15 8.4 -55.25 8.0 -60.75 6.0 -60.75 3.5 -60.75 -0.1 -57.7 -0.65 -57.3 -5.05 -53.35 -27.2 L-45.75 -68.5 Q-36.15 -119.65 -32.05 -131.9 L-32.05 -138.6 Q-19.9 -134.55 -2.0 -134.55 8.75 -134.55 24.3 -139.1 L27.95 -140.2 M12.5 -102.65 L12.1 -103.85 11.95 -102.45 Q12.3 -98.2 11.95 -96.4 11.4 -93.3 7.95 -93.3 L6.2 -93.5 -5.7 -93.3 -16.95 -93.7 Q-17.7 -93.3 -18.75 -93.3 -19.95 -93.3 -21.0 -94.45 L-22.05 -94.85 Q-22.95 -95.35 -22.7 -96.0 L-22.4 -96.45 Q-24.4 -100.15 -25.9 -108.1 L-29.05 -110.3 -32.8 -90.15 -32.75 -90.15 -39.0 -62.5 -42.8 -37.8 -42.8 -37.75 -43.65 -31.45 -43.7 -31.5 -43.7 -31.45 -44.15 -28.55 -37.5 -25.45 Q-28.75 -21.35 -26.2 -21.35 L-1.6 -21.6 22.05 -22.4 24.3 -23.95 Q25.15 -24.2 29.05 -26.45 31.5 -27.1 34.3 -30.0 L36.35 -31.95 34.15 -37.45 33.95 -37.15 Q19.7 -79.7 12.5 -102.65 M4.85 -105.05 L4.95 -105.55 Q2.1 -105.85 -5.55 -116.75 L-6.95 -118.75 -8.7 -113.65 Q-12.0 -104.6 -14.95 -104.6 L-17.5 -104.8 -15.8 -100.05 -5.7 -100.3 4.1 -99.95 Q4.3 -102.3 4.85 -105.05 M8.5 -115.55 Q5.65 -125.15 5.15 -128.1 L-2.95 -127.2 -1.5 -125.35 Q2.5 -120.2 6.05 -114.0 L8.15 -115.35 8.5 -115.55 M15.4 -15.4 Q20.15 -15.4 24.3 -11.95 31.55 -11.95 34.3 -16.5 35.75 -18.95 36.7 -19.65 38.1 -20.75 40.5 -21.0 L38.55 -26.25 Q36.35 -24.1 31.9 -22.05 19.5 -16.35 -4.25 -16.35 -32.9 -16.35 -43.35 -21.15 L-45.05 -22.05 -45.25 -20.95 -45.6 -18.95 -42.75 -19.2 Q-39.35 -19.2 -34.9 -15.1 -30.45 -11.0 -30.25 -11.0 -21.45 -11.0 -17.9 -12.7 L-15.75 -13.9 -13.15 -14.45 Q-10.65 -14.45 -7.8 -12.35 -4.95 -10.3 1.65 -10.3 3.75 -10.3 7.75 -12.85 11.7 -15.4 15.4 -15.4 M2.25 -5.1 Q-3.75 -5.1 -7.9 -7.2 -12.05 -9.35 -14.0 -9.35 -16.9 -9.35 -18.5 -7.7 -20.1 -6.05 -26.8 -6.05 -31.05 -6.05 -37.0 -10.0 -39.95 -12.0 -42.35 -14.0 L-46.65 -13.5 Q-48.85 -2.8 -50.95 1.65 L-50.9 1.65 -48.15 2.25 Q-36.05 4.0 20.3 4.0 30.75 2.15 35.6 -0.5 43.1 -4.55 44.0 -7.85 L44.0 -7.9 44.1 -8.75 Q44.1 -10.3 42.6 -15.05 40.0 -14.65 38.55 -13.5 37.2 -12.45 36.3 -11.0 L35.05 -8.9 Q33.6 -7.0 28.1 -7.0 22.4 -7.0 20.3 -8.65 18.15 -10.3 15.3 -10.3 12.05 -10.3 8.35 -7.7 4.65 -5.1 2.25 -5.1 M-23.05 -115.7 Q-18.8 -113.0 -16.85 -112.8 -16.35 -114.05 -14.15 -123.55 L-13.15 -126.8 Q-19.85 -126.85 -26.25 -128.3 -26.35 -126.0 -27.7 -118.0 -25.9 -117.5 -23.05 -115.7" fill="#000000" fill-rule="evenodd" stroke="none"/>
      <path d="M11.95 -102.45 L12.1 -103.85 12.5 -102.65 11.95 -102.45 M8.5 -115.55 L8.15 -115.35 6.05 -114.0 Q2.5 -120.2 -1.5 -125.35 L-2.95 -127.2 5.15 -128.1 Q5.65 -125.15 8.5 -115.55 M-23.05 -115.7 Q-25.9 -117.5 -27.7 -118.0 -26.35 -126.0 -26.25 -128.3 -19.85 -126.85 -13.15 -126.8 L-14.15 -123.55 Q-16.35 -114.05 -16.85 -112.8 -18.8 -113.0 -23.05 -115.7" fill="#f7f7f7" fill-rule="evenodd" stroke="none"/>
      <path d="M4.85 -105.05 Q4.3 -102.3 4.1 -99.95 L-5.7 -100.3 -15.8 -100.05 -17.5 -104.8 -14.95 -104.6 Q-12.0 -104.6 -8.7 -113.65 L-6.95 -118.75 -5.55 -116.75 Q2.1 -105.85 4.95 -105.55 L4.85 -105.05 M15.4 -15.4 Q11.7 -15.4 7.75 -12.85 3.75 -10.3 1.65 -10.3 -4.95 -10.3 -7.8 -12.35 -10.65 -14.45 -13.15 -14.45 L-15.75 -13.9 -17.9 -12.7 Q-21.45 -11.0 -30.25 -11.0 -30.45 -11.0 -34.9 -15.1 -39.35 -19.2 -42.75 -19.2 L-45.6 -18.95 -45.25 -20.95 -45.05 -22.05 -43.35 -21.15 Q-32.9 -16.35 -4.25 -16.35 19.5 -16.35 31.9 -22.05 36.35 -24.1 38.55 -26.25 L40.5 -21.0 Q38.1 -20.75 36.7 -19.65 35.75 -18.95 34.3 -16.5 31.55 -11.95 24.3 -11.95 20.15 -15.4 15.4 -15.4" fill="#eeeeee" fill-rule="evenodd" stroke="none"/>
      <path d="M12.5 -102.65 Q19.7 -79.7 33.95 -37.15 L34.15 -37.45 36.35 -31.95 34.3 -30.0 Q31.5 -27.1 29.05 -26.45 25.15 -24.2 24.3 -23.95 L22.05 -22.4 -1.6 -21.6 -26.2 -21.35 Q-28.75 -21.35 -37.5 -25.45 L-44.15 -28.55 -43.7 -31.45 -43.65 -31.45 -42.8 -37.75 -42.8 -37.8 -39.0 -62.5 -32.75 -90.15 -32.8 -90.15 -29.05 -110.3 -25.9 -108.1 Q-24.4 -100.15 -22.4 -96.45 L-22.7 -96.0 Q-22.95 -95.35 -22.05 -94.85 L-21.0 -94.45 Q-19.95 -93.3 -18.75 -93.3 -17.7 -93.3 -16.95 -93.7 L-5.7 -93.3 6.2 -93.5 7.95 -93.3 Q11.4 -93.3 11.95 -96.4 12.3 -98.2 11.95 -102.45 L12.5 -102.65 M2.25 -5.1 Q4.65 -5.1 8.35 -7.7 12.05 -10.3 15.3 -10.3 18.15 -10.3 20.3 -8.65 22.4 -7.0 28.1 -7.0 33.6 -7.0 35.05 -8.9 L36.3 -11.0 Q37.2 -12.45 38.55 -13.5 40.0 -14.65 42.6 -15.05 44.1 -10.3 44.1 -8.75 L44.0 -7.9 44.0 -7.85 Q43.1 -4.55 35.6 -0.5 30.75 2.15 20.3 4.0 -36.05 4.0 -48.15 2.25 L-50.9 1.65 -50.95 1.65 Q-48.85 -2.8 -46.65 -13.5 L-42.35 -14.0 Q-39.95 -12.0 -37.0 -10.0 -31.05 -6.05 -26.8 -6.05 -20.1 -6.05 -18.5 -7.7 -16.9 -9.35 -14.0 -9.35 -12.05 -9.35 -7.9 -7.2 -3.75 -5.1 2.25 -5.1" fill="#3c3c3c" fill-rule="evenodd" stroke="none"/>
      <path d="M-4.1 -114.75 Q-3.25 -118.15 -1.9 -118.95 0.35 -118.15 0.35 -114.95 0.35 -112.1 -0.6 -110.8 L-0.9 -110.45 Q-0.3 -108.95 0.05 -106.85 0.95 -100.8 1.3 -100.1 L0.95 -98.9 Q0.55 -98.3 -0.95 -98.3 -2.25 -98.3 -3.2 -100.25 L-3.85 -101.85 -3.85 -102.0 -4.55 -104.85 -5.0 -108.0 -5.05 -108.75 -6.9 -108.65 -7.0 -107.8 Q-7.0 -104.25 -7.95 -101.05 -9.1 -97.35 -10.8 -97.35 L-13.3 -97.85 -13.5 -99.95 -12.55 -111.95 -12.55 -115.4 Q-12.7 -116.1 -10.3 -116.1 -8.75 -116.1 -8.2 -114.95 -7.95 -114.4 -7.95 -113.55 L-7.85 -113.5 -4.35 -113.75 -4.1 -114.75 M0.2 -31.2 L-1.9 -30.5 -3.5 -31.1 Q-4.15 -31.55 -4.15 -33.1 -4.15 -34.6 -3.4 -35.0 L-1.9 -35.25 -0.25 -34.8 Q0.35 -34.5 0.35 -33.0 L0.2 -31.2 M-2.25 -87.0 Q-2.25 -85.95 -2.95 -84.75 -2.25 -84.15 -4.6 -84.15 -6.05 -84.15 -6.3 -84.5 L-6.75 -85.35 -6.85 -85.15 -7.0 -86.8 Q-7.0 -88.3 -6.15 -88.6 L-4.6 -88.8 -2.25 -87.0 M-1.8 -62.1 Q-1.3 -61.85 -1.3 -60.3 L-1.5 -59.25 Q-2.15 -58.25 -3.65 -57.8 L-5.4 -58.4 Q-6.05 -58.85 -6.05 -60.4 -6.05 -61.95 -5.2 -62.25 L-3.65 -62.45 -1.8 -62.1" fill="#000000" fill-rule="evenodd" stroke="none"/>
      <path d="M-3.2 -100.25 L-5.7 -100.3 -7.95 -100.3 -7.95 -101.05 Q-7.0 -104.25 -7.0 -107.8 L-6.9 -108.65 -5.05 -108.75 -5.0 -108.0 -4.55 -104.85 -3.85 -102.0 -3.85 -101.85 -3.2 -100.25 M-8.2 -114.95 L-6.95 -118.75 -5.55 -116.75 -4.1 -114.75 -4.35 -113.75 -7.85 -113.5 -7.95 -113.55 Q-7.95 -114.4 -8.2 -114.95" fill="#dd0000" fill-rule="evenodd" stroke="none"/>
    </g>
  </defs>
</svg>
