<?xml version="1.0" encoding="UTF-8" standalone="no"?>
<svg xmlns:xlink="http://www.w3.org/1999/xlink" height="342.0px" width="237.9px" xmlns="http://www.w3.org/2000/svg">
  <g transform="matrix(1, 0, 0, 1, 118.05, 273.9)">
    <use height="46.35" transform="matrix(1.0, 0.0, 0.0, 1.0, -49.6, -41.65)" width="96.45" xlink:href="#shape0"/>
    <use height="150.35" transform="matrix(1.0, 0.0, 0.0, 1.0, -57.1, -138.6)" width="109.4" xlink:href="#shape1"/>
  </g>
  <defs>
    <g id="shape0" transform="matrix(1, 0, 0, 1, 47.2, -21.75)">
      <path d="M41.5 37.2 L48.9 55.95 Q50.75 60.15 43.4 63.25 38.95 65.1 31.0 66.6 L22.8 67.9 22.7 67.9 17.65 67.95 2.7 68.05 0.15 68.1 -11.75 68.1 -25.9 68.0 -40.65 67.45 -40.8 67.4 -41.5 67.3 -41.55 67.25 -46.55 66.15 -46.9 66.15 -47.15 65.9 -47.15 65.55 Q-45.8 61.0 -43.35 42.4 L-42.45 36.5 -41.8 31.9 -41.7 31.65 -41.05 27.15 -40.9 26.0 -40.9 25.75 -40.9 25.65 -40.85 25.5 -40.75 25.3 Q-40.6 25.15 -40.4 25.15 L-40.35 25.15 -40.1 25.25 -39.9 25.5 Q-36.35 34.4 -31.5 36.9 -26.7 39.25 -20.6 35.3 -7.8 27.0 -2.85 24.65 L-2.55 24.6 Q3.85 25.9 16.6 32.95 22.45 36.2 26.85 33.6 31.3 30.9 34.35 22.25 L34.5 22.05 34.65 21.95 35.05 21.8 35.4 21.8 35.8 21.95 36.0 22.05 36.1 22.25 41.1 36.1 41.5 37.2" fill="#ffffff" fill-rule="evenodd" stroke="none"/>
    </g>
    <g id="shape1" transform="matrix(1, 0, 0, 1, 54.7, 75.2)">
      <path d="M-5.65 -55.3 Q-0.65 -57.05 3.65 -63.6 L4.05 -64.25 7.55 -64.7 7.65 -63.6 Q7.95 -61.9 8.8 -58.6 4.8 -51.85 5.0 -42.3 L0.6 -47.7 5.0 -42.3 Q4.8 -51.85 8.8 -58.6 9.75 -54.95 11.45 -49.35 9.05 -39.55 5.8 -32.6 4.3 -29.4 2.6 -26.8 L-0.9 -39.9 0.6 -47.7 -5.65 -55.3 -11.85 -47.8 -9.7 -39.9 -12.25 -26.05 Q-15.4 -29.45 -18.0 -33.25 -23.45 -41.2 -26.45 -50.9 L-24.6 -60.75 -24.1 -63.6 -23.85 -64.9 -19.15 -64.0 -18.7 -63.6 Q-13.2 -58.45 -5.65 -55.3 M14.75 -38.65 L15.1 -37.6 14.4 -38.1 14.75 -38.65 M32.75 14.25 L32.75 14.3 32.75 14.25 M-11.85 -47.8 L-16.15 -42.55 Q-17.95 -51.05 -24.6 -60.75 -17.95 -51.05 -16.15 -42.55 L-11.85 -47.8 M-28.75 -37.5 L-29.1 -37.1 -28.95 -37.7 -28.75 -37.5" fill="#2b2b2b" fill-rule="evenodd" stroke="none"/>
      <path d="M10.6 -61.2 L8.8 -58.6 10.6 -61.2 M8.8 -58.6 Q7.95 -61.9 7.65 -63.6 L7.55 -64.7 4.05 -64.25 -3.6 -63.6 -7.35 -63.45 -10.35 -63.4 -15.35 -63.6 -19.15 -64.0 -23.85 -64.9 -24.1 -63.6 -24.6 -60.75 -26.45 -50.9 -27.9 -56.2 -26.45 -50.9 -28.95 -37.7 -29.1 -37.1 -31.2 -27.4 -34.05 -13.05 -36.6 0.9 -37.85 8.75 -39.1 16.9 -39.9 22.4 -40.4 25.6 -40.4 25.65 -41.25 31.95 -41.3 31.95 -41.3 31.9 -41.3 31.95 -41.95 36.6 -42.85 42.45 Q-45.3 61.15 -46.7 65.7 -46.3 65.55 -41.4 66.8 L-40.6 66.95 -25.9 67.5 -11.75 67.6 0.15 67.6 2.7 67.55 17.65 67.45 22.7 67.4 30.9 66.1 Q38.8 64.65 43.2 62.8 50.0 59.9 48.45 56.15 45.4 48.8 41.05 37.35 L40.65 36.3 35.65 22.4 35.55 22.15 35.25 21.25 32.75 14.3 32.75 14.25 29.75 5.75 23.15 -13.2 21.65 -17.5 19.0 -25.6 18.8 -26.1 16.4 -33.6 15.1 -37.6 14.75 -38.65 Q16.45 -41.45 16.8 -45.4 16.45 -41.45 14.75 -38.65 L11.45 -49.35 Q9.75 -54.95 8.8 -58.6 M11.25 -72.1 L13.9 -63.6 19.05 -46.4 21.65 -37.6 23.45 -31.5 23.45 -31.4 25.1 -26.1 25.25 -25.6 Q28.95 -13.4 31.0 -7.85 L42.1 22.4 52.35 50.5 54.0 55.1 Q55.6 61.0 53.6 64.0 51.6 67.0 46.55 69.4 34.55 75.15 -6.75 75.15 -41.45 75.15 -48.25 73.95 -50.3 73.65 -54.2 69.05 -56.25 66.7 -49.65 30.25 L-48.2 22.4 -39.4 -25.6 -37.8 -33.6 Q-33.7 -53.95 -31.1 -63.6 L-29.65 -68.5 -29.65 -75.2 Q-17.5 -71.15 0.4 -71.15 L11.25 -72.1 M-42.35 22.75 L-40.4 25.6 -42.35 22.75 M12.65 -54.7 L11.45 -49.35 12.65 -54.7 M-25.9 -62.5 L-24.6 -60.75 -25.9 -62.5 M-32.35 -47.05 Q-32.0 -41.1 -28.95 -37.7 -32.0 -41.1 -32.35 -47.05" fill="#000000" fill-rule="evenodd" stroke="none"/>
      <path d="M4.05 -64.25 L3.65 -63.6 Q-0.65 -57.05 -5.65 -55.3 -13.2 -58.45 -18.7 -63.6 L-19.15 -64.0 -15.35 -63.6 -10.35 -63.4 -7.35 -63.45 -3.6 -63.6 4.05 -64.25" fill="#fff1dd" fill-rule="evenodd" stroke="none"/>
      <path d="M11.45 -49.35 L14.75 -38.65 14.4 -38.1 15.1 -37.6 16.4 -33.6 18.8 -26.1 19.0 -25.6 21.65 -17.5 23.15 -13.2 29.75 5.75 32.75 14.25 32.75 14.3 35.25 21.25 34.95 22.15 34.85 22.4 Q28.6 40.15 16.35 33.4 3.7 26.35 -2.65 25.1 L-2.35 22.4 Q-0.45 1.7 -4.65 -19.05 -0.45 1.7 -2.35 22.4 L-2.65 25.1 Q-7.6 27.45 -20.35 35.75 -33.1 44.0 -40.35 25.65 L-40.4 25.6 -39.9 22.4 -39.1 16.9 -37.85 8.75 -36.6 0.9 -34.05 -13.05 -31.2 -27.4 -29.1 -37.1 -28.75 -37.5 -28.95 -37.7 -26.45 -50.9 Q-23.45 -41.2 -18.0 -33.25 -15.4 -29.45 -12.25 -26.05 -8.8 -22.3 -4.65 -19.05 -0.7 -21.8 2.6 -26.8 4.3 -29.4 5.8 -32.6 9.05 -39.55 11.45 -49.35 M-4.65 -19.05 Q7.35 -19.2 13.5 -30.15 L5.8 -32.6 Q11.65 -34.0 14.4 -38.1 11.65 -34.0 5.8 -32.6 L13.5 -30.15 Q7.35 -19.2 -4.65 -19.05 -16.05 -18.05 -25.0 -28.35 L-18.0 -33.25 Q-25.15 -33.7 -28.75 -37.5 -25.15 -33.7 -18.0 -33.25 L-25.0 -28.35 Q-16.05 -18.05 -4.65 -19.05 M4.3 -1.8 Q5.3 -1.8 6.0 -2.55 6.7 -3.25 6.7 -4.25 6.7 -5.25 6.0 -5.95 5.3 -6.65 4.3 -6.65 3.3 -6.65 2.6 -5.95 1.9 -5.25 1.9 -4.25 1.9 -3.25 2.6 -2.55 3.3 -1.8 4.3 -1.8 3.3 -1.8 2.6 -2.55 1.9 -3.25 1.9 -4.25 1.9 -5.25 2.6 -5.95 3.3 -6.65 4.3 -6.65 5.3 -6.65 6.0 -5.95 6.7 -5.25 6.7 -4.25 6.7 -3.25 6.0 -2.55 5.3 -1.8 4.3 -1.8 M23.15 -13.2 L9.9 -11.65 8.7 -16.35 21.65 -17.5 8.7 -16.35 9.9 -11.65 23.15 -13.2 M7.05 15.2 Q7.75 14.5 7.75 13.5 7.75 12.5 7.05 11.8 6.35 11.1 5.35 11.1 4.35 11.1 3.65 11.8 2.95 12.5 2.95 13.5 2.95 14.5 3.65 15.2 4.35 15.95 5.35 15.95 6.35 15.95 7.05 15.2 6.35 15.95 5.35 15.95 4.35 15.95 3.65 15.2 2.95 14.5 2.95 13.5 2.95 12.5 3.65 11.8 4.35 11.1 5.35 11.1 6.35 11.1 7.05 11.8 7.75 12.5 7.75 13.5 7.75 14.5 7.05 15.2" fill="#ffffff" fill-rule="evenodd" stroke="none"/>
      <path d="M35.25 21.25 L35.55 22.15 35.65 22.4 35.25 22.25 34.85 22.4 34.95 22.15 35.25 21.25 M-40.6 66.95 L-41.4 66.8 -40.6 66.9 -40.6 66.95 M-40.35 25.65 L-40.4 25.65 -40.35 25.65" fill="#ffd5d5" fill-rule="evenodd" stroke="none"/>
      <path d="M-5.65 -55.3 L0.6 -47.7 -0.9 -39.9 Q-5.3 -37.9 -9.7 -39.9 -5.3 -37.9 -0.9 -39.9 L2.6 -26.8 Q-0.7 -21.8 -4.65 -19.05 -8.8 -22.3 -12.25 -26.05 L-9.7 -39.9 -11.85 -47.8 -5.65 -55.3" fill="#6a09ff" fill-rule="evenodd" stroke="none"/>
      <path d="M8.8 -58.6 L10.6 -61.2 M4.05 -64.25 L3.65 -63.6 Q-0.65 -57.05 -5.65 -55.3 L0.6 -47.7 5.0 -42.3 Q4.8 -51.85 8.8 -58.6 M-19.15 -64.0 L-18.7 -63.6 Q-13.2 -58.45 -5.65 -55.3 L-11.85 -47.8 -9.7 -39.9 Q-5.3 -37.9 -0.9 -39.9 L0.6 -47.7 M14.75 -38.65 Q16.45 -41.45 16.8 -45.4 M14.75 -38.65 L14.4 -38.1 Q11.65 -34.0 5.8 -32.6 L13.5 -30.15 Q7.35 -19.2 -4.65 -19.05 -16.05 -18.05 -25.0 -28.35 L-18.0 -33.25 Q-25.15 -33.7 -28.75 -37.5 L-28.95 -37.7 Q-32.0 -41.1 -32.35 -47.05 M2.6 -26.8 Q4.3 -29.4 5.8 -32.6 9.05 -39.55 11.45 -49.35 L12.65 -54.7 M21.65 -17.5 L8.7 -16.35 9.9 -11.65 23.15 -13.2 M-24.6 -60.75 L-25.9 -62.5 M-24.6 -60.75 Q-17.95 -51.05 -16.15 -42.55 L-11.85 -47.8 M-26.45 -50.9 Q-23.45 -41.2 -18.0 -33.25 -15.4 -29.45 -12.25 -26.05 L-9.7 -39.9 M-26.45 -50.9 L-27.9 -56.2 M-12.25 -26.05 Q-8.8 -22.3 -4.65 -19.05 -0.7 -21.8 2.6 -26.8 L-0.9 -39.9" fill="none" stroke="#000000" stroke-linecap="round" stroke-linejoin="round" stroke-width="3.0"/>
      <path d="M-40.4 25.6 L-42.35 22.75 M-4.65 -19.05 Q-0.45 1.7 -2.35 22.4 L-2.65 25.1 Q3.7 26.35 16.35 33.4 28.6 40.15 34.85 22.4 L34.95 22.15 35.25 21.25 M-40.4 25.6 L-40.35 25.65 Q-33.1 44.0 -20.35 35.75 -7.6 27.45 -2.65 25.1" fill="none" stroke="#000000" stroke-linecap="round" stroke-linejoin="round" stroke-width="3.0"/>
      <path d="M4.3 -1.8 Q3.3 -1.8 2.6 -2.55 1.9 -3.25 1.9 -4.25 1.9 -5.25 2.6 -5.95 3.3 -6.65 4.3 -6.65 5.3 -6.65 6.0 -5.95 6.7 -5.25 6.7 -4.25 6.7 -3.25 6.0 -2.55 5.3 -1.8 4.3 -1.8 M7.05 15.2 Q6.35 15.95 5.35 15.95 4.35 15.95 3.65 15.2 2.95 14.5 2.95 13.5 2.95 12.5 3.65 11.8 4.35 11.1 5.35 11.1 6.35 11.1 7.05 11.8 7.75 12.5 7.75 13.5 7.75 14.5 7.05 15.2" fill="none" stroke="#000000" stroke-linecap="round" stroke-linejoin="round" stroke-width="2.0"/>
      <path d="M7.55 -32.2 Q8.9 -33.0 10.55 -32.95 13.05 -32.95 14.85 -31.15 16.6 -29.4 16.6 -26.85 16.6 -24.35 14.85 -22.6 13.05 -20.8 10.55 -20.8 8.0 -20.8 6.25 -22.6 L6.05 -22.8 6.8 -22.75 Q8.75 -22.75 10.15 -24.1 11.55 -25.5 11.55 -27.5 11.55 -29.5 10.15 -30.85 9.05 -32.0 7.55 -32.2" fill="#ffffff" fill-rule="evenodd" stroke="none"/>
      <path d="M6.05 -22.8 L6.25 -22.6 Q8.0 -20.8 10.55 -20.8 13.05 -20.8 14.85 -22.6 16.6 -24.35 16.6 -26.85 16.6 -29.4 14.85 -31.15 13.05 -32.95 10.55 -32.95 8.9 -33.0 7.55 -32.2" fill="none" stroke="#000000" stroke-linecap="round" stroke-linejoin="round" stroke-width="1.5"/>
      <path d="M7.55 -32.2 Q9.05 -32.0 10.15 -30.85 11.55 -29.5 11.55 -27.5 11.55 -25.5 10.15 -24.1 8.75 -22.75 6.8 -22.75 L6.05 -22.8" fill="none" stroke="#000000" stroke-linecap="round" stroke-linejoin="round" stroke-width="1.5"/>
    </g>
  </defs>
</svg>
