<?xml version="1.0" encoding="UTF-8" standalone="no"?>
<svg xmlns:xlink="http://www.w3.org/1999/xlink" height="342.0px" width="237.9px" xmlns="http://www.w3.org/2000/svg">
  <g transform="matrix(1, 0, 0, 1, 118.05, 273.9)">
    <use height="150.35" transform="matrix(1.0, 0.0, 0.0, 1.0, -63.3, -138.6)" width="115.6" xlink:href="#shape0"/>
  </g>
  <defs>
    <g id="shape0" transform="matrix(1, 0, 0, 1, 63.3, 138.6)">
      <path d="M6.4 -129.5 L5.2 -127.55 6.4 -129.5 M5.2 -127.55 L5.15 -128.05 5.15 -128.1 -0.95 -127.35 -1.65 -127.3 -3.35 -127.15 -9.75 -126.85 -12.75 -126.8 -18.7 -127.05 -19.75 -127.2 -23.45 -127.7 -24.75 -127.95 -26.25 -128.3 -27.1 -123.8 -27.6 -121.1 -29.7 -109.8 -29.85 -108.95 -31.5 -100.5 -31.5 -100.45 -33.6 -90.8 -35.05 -83.95 -36.45 -76.45 -38.8 -63.55 -39.0 -62.5 -39.2 -61.3 -40.15 -55.2 -40.25 -54.65 -40.65 -51.95 -40.7 -51.65 -41.5 -46.5 -42.8 -37.8 -42.8 -37.75 -43.65 -31.45 -43.7 -31.5 -43.7 -31.45 -43.85 -30.4 -44.35 -26.8 -45.25 -20.95 -45.55 -18.75 -47.2 -7.3 -48.05 -2.35 -49.1 2.3 -49.05 2.3 Q-48.6 2.2 -43.8 3.4 L-21.25 4.2 -3.3 4.2 20.3 4.0 Q49.1 0.1 46.05 -7.25 L44.3 -11.55 44.25 -11.6 44.15 -11.85 38.65 -26.05 38.25 -27.1 30.5 -48.75 30.35 -49.1 30.35 -49.15 29.45 -51.65 28.4 -54.55 27.6 -56.9 27.35 -57.65 26.05 -61.3 24.85 -64.7 18.25 -83.95 16.6 -89.0 16.4 -89.5 14.0 -97.0 13.0 -100.05 12.7 -101.0 12.3 -102.25 11.2 -105.75 10.1 -109.3 10.05 -109.45 9.85 -110.1 9.7 -110.55 6.7 -120.9 6.15 -123.1 Q5.35 -126.15 5.2 -127.55 M-25.15 -129.35 L-23.45 -127.7 -25.15 -129.35 M19.25 -101.0 L21.05 -94.9 21.05 -94.8 22.7 -89.5 22.85 -89.0 24.4 -83.95 Q27.0 -75.6 28.6 -71.25 L32.25 -61.3 41.4 -36.25 45.7 -24.5 47.9 -18.45 49.95 -12.9 51.6 -8.3 Q52.6 -4.7 52.2 -2.15 51.95 -0.55 51.2 0.6 49.2 3.6 44.15 6.0 32.15 11.75 -9.15 11.75 L-21.25 11.7 -50.65 10.55 Q-52.15 10.3 -54.55 7.85 L-56.6 5.65 -56.95 4.6 -57.0 4.3 Q-57.55 -0.6 -54.05 -21.6 L-53.85 -22.85 -52.65 -29.8 -52.55 -30.4 -52.05 -33.15 -46.95 -61.3 -42.8 -83.95 -41.8 -89.0 -40.2 -97.0 Q-34.85 -123.55 -32.05 -131.9 L-32.05 -138.6 Q-19.9 -134.55 -2.0 -134.55 3.25 -134.55 9.6 -135.6 14.05 -118.6 16.65 -109.8 L19.25 -101.0 M36.6 -10.85 Q38.45 -11.6 40.15 -12.5 L40.15 -5.75 Q38.5 -4.75 36.6 -4.05 L36.6 -10.85 M-39.75 -2.15 Q-41.9 -2.75 -43.9 -3.65 L-43.9 -10.7 Q-41.85 -9.55 -39.75 -8.7 L-39.75 -2.15" fill="#000000" fill-rule="evenodd" stroke="none"/>
      <path d="M-23.45 -127.7 L-19.75 -127.2 -18.7 -127.05 -12.75 -126.8 -9.75 -126.85 -3.35 -127.15 -1.65 -127.3 -0.95 -127.35 5.15 -128.1 5.15 -128.05 5.2 -127.55 Q-5.85 -111.3 -23.45 -127.7 M36.6 -4.05 L35.55 -3.7 Q30.8 -2.2 24.35 -2.25 L24.35 -7.8 Q30.35 -8.55 35.55 -10.45 L36.6 -10.85 36.6 -4.05 M-39.75 -8.7 Q-33.95 -6.45 -28.1 -6.9 L-28.1 -1.05 Q-34.2 -0.6 -39.75 -2.15 L-39.75 -8.7" fill="#fff1dd" fill-rule="evenodd" stroke="none"/>
      <path d="M-23.45 -127.7 Q-5.85 -111.3 5.2 -127.55 5.35 -126.15 6.15 -123.1 L6.7 -120.9 9.7 -110.55 9.85 -110.1 10.05 -109.45 10.1 -109.3 11.2 -105.75 12.3 -102.25 12.7 -101.0 13.0 -100.05 14.0 -97.0 16.4 -89.5 16.6 -89.0 18.25 -83.95 24.85 -64.7 26.05 -61.3 27.35 -57.65 27.6 -56.9 28.4 -54.55 29.45 -51.65 30.35 -49.15 30.35 -49.1 30.5 -48.75 38.25 -27.1 38.65 -26.05 44.15 -11.85 44.25 -11.6 44.3 -11.55 46.05 -7.25 Q49.1 0.1 20.3 4.0 L-3.3 4.2 -21.25 4.2 -43.8 3.4 Q-48.6 2.2 -49.05 2.3 L-49.1 2.3 -48.05 -2.35 -47.2 -7.3 -45.55 -18.75 -45.25 -20.95 -44.35 -26.8 -43.85 -30.4 -43.7 -31.45 -43.7 -31.5 -43.65 -31.45 -42.8 -37.75 -42.8 -37.8 -41.5 -46.5 -40.7 -51.65 -40.65 -51.95 -40.25 -54.65 -40.15 -55.2 -39.2 -61.3 -39.0 -62.5 -38.8 -63.55 -36.45 -76.45 -35.05 -83.95 -33.6 -90.8 -31.5 -100.45 -31.5 -100.5 -29.85 -108.95 -29.7 -109.8 -27.6 -121.1 -27.1 -123.8 -26.25 -128.3 -24.75 -127.95 -23.45 -127.7 M1.7 -7.1 L1.7 -1.5 17.5 -1.5 17.5 -7.1 1.7 -7.1 M36.6 -10.85 L35.55 -10.45 Q30.35 -8.55 24.35 -7.8 L24.35 -2.25 Q30.8 -2.2 35.55 -3.7 L36.6 -4.05 Q38.5 -4.75 40.15 -5.75 L40.15 -12.5 Q38.45 -11.6 36.6 -10.85 M-12.75 -66.15 L-5.6 -55.8 0.7 -66.7 -6.45 -77.1 -12.75 -66.15 M-39.75 -8.7 Q-41.85 -9.55 -43.9 -10.7 L-43.9 -3.65 Q-41.9 -2.75 -39.75 -2.15 -34.2 -0.6 -28.1 -1.05 L-28.1 -6.9 Q-33.95 -6.45 -39.75 -8.7 M-21.45 -1.15 L-5.65 -1.15 -5.65 -6.75 -21.45 -6.75 -21.45 -1.15 M29.45 -51.65 Q-3.4 -35.8 -40.7 -51.65 -3.4 -35.8 29.45 -51.65" fill="#403f41" fill-rule="evenodd" stroke="none"/>
      <path d="M-12.75 -66.15 L-6.45 -77.1 0.7 -66.7 -5.6 -55.8 -12.75 -66.15" fill="#bfdae3" fill-rule="evenodd" stroke="none"/>
      <path d="M5.2 -127.55 L6.4 -129.5 M-23.45 -127.7 Q-5.85 -111.3 5.2 -127.55 M-23.45 -127.7 L-25.15 -129.35 M-40.7 -51.65 Q-3.4 -35.8 29.45 -51.65" fill="none" stroke="#000000" stroke-linecap="round" stroke-linejoin="round" stroke-width="4.0"/>
      <path d="M1.7 -7.1 L17.5 -7.1 17.5 -1.5 1.7 -1.5 1.7 -7.1 M36.6 -4.05 L35.55 -3.7 Q30.8 -2.2 24.35 -2.25 L24.35 -7.8 Q30.35 -8.55 35.55 -10.45 L36.6 -10.85 Q38.45 -11.6 40.15 -12.5 L40.15 -5.75 Q38.5 -4.75 36.6 -4.05 L36.6 -10.85 M-39.75 -2.15 Q-41.9 -2.75 -43.9 -3.65 L-43.9 -10.7 Q-41.85 -9.55 -39.75 -8.7 -33.95 -6.45 -28.1 -6.9 L-28.1 -1.05 Q-34.2 -0.6 -39.75 -2.15 L-39.75 -8.7 M-21.45 -1.15 L-21.45 -6.75 -5.65 -6.75 -5.65 -1.15 -21.45 -1.15" fill="none" stroke="#000000" stroke-linecap="round" stroke-linejoin="round" stroke-width="3.0"/>
      <path d="M-12.75 -66.15 L-6.45 -77.1 0.7 -66.7 -5.6 -55.8 -12.75 -66.15" fill="none" stroke="#000000" stroke-linecap="round" stroke-linejoin="miter" stroke-miterlimit="768" stroke-width="3.0"/>
      <path d="M17.05 -126.4 Q8.15 -113.65 0.2 -111.45 L5.45 -85.75 Q23.65 -88.0 37.85 -100.55 L40.7 -94.85 Q27.2 -78.85 0.0 -76.75 -3.45 -85.0 -6.9 -110.25 L-13.15 -76.05 Q-39.4 -74.65 -61.3 -92.85 L-57.3 -100.6 Q-41.95 -86.0 -19.45 -84.2 L-14.75 -111.1 Q-21.3 -112.9 -38.25 -126.35 L-32.05 -131.9 -25.15 -129.35 Q-5.35 -109.55 6.4 -129.5 L10.95 -130.4 17.05 -126.4 M0.2 -111.45 Q-3.5 -110.45 -6.9 -110.25 -10.8 -110.05 -14.75 -111.1 -10.8 -110.05 -6.9 -110.25 -3.5 -110.45 0.2 -111.45" fill="#f0df4a" fill-rule="evenodd" stroke="none"/>
      <path d="M0.2 -111.45 Q8.15 -113.65 17.05 -126.4 29.55 -115.95 37.85 -100.55 23.65 -88.0 5.45 -85.75 L0.2 -111.45 M-38.25 -126.35 Q-21.3 -112.9 -14.75 -111.1 L-19.45 -84.2 Q-41.95 -86.0 -57.3 -100.6 -48.85 -115.95 -38.25 -126.35" fill="#bfdae3" fill-rule="evenodd" stroke="none"/>
      <path d="M17.05 -126.4 Q8.15 -113.65 0.2 -111.45 M37.85 -100.55 Q29.55 -115.95 17.05 -126.4 L10.95 -130.4 6.4 -129.5 Q-5.35 -109.55 -25.15 -129.35 L-32.05 -131.9 -38.25 -126.35 Q-21.3 -112.9 -14.75 -111.1 -10.8 -110.05 -6.9 -110.25 -3.5 -110.45 0.2 -111.45 M37.85 -100.55 L40.7 -94.85 Q27.2 -78.85 0.0 -76.75 -3.45 -85.0 -6.9 -110.25 L-13.15 -76.05 Q-39.4 -74.65 -61.3 -92.85 L-57.3 -100.6 Q-48.85 -115.95 -38.25 -126.35" fill="none" stroke="#000000" stroke-linecap="round" stroke-linejoin="round" stroke-width="4.0"/>
      <path d="M0.2 -111.45 L5.45 -85.75 Q23.65 -88.0 37.85 -100.55 M-57.3 -100.6 Q-41.95 -86.0 -19.45 -84.2 L-14.75 -111.1" fill="none" stroke="#000000" stroke-linecap="round" stroke-linejoin="round" stroke-width="3.0"/>
    </g>
  </defs>
</svg>
