<?xml version="1.0" encoding="UTF-8" standalone="no"?>
<svg xmlns:xlink="http://www.w3.org/1999/xlink" height="342.0px" width="237.9px" xmlns="http://www.w3.org/2000/svg">
  <g transform="matrix(1, 0, 0, 1, 118.05, 273.9)">
    <use height="151.95" transform="matrix(1.0, 0.0, 0.0, 1.0, -60.75, -140.2)" width="112.35" xlink:href="#shape0"/>
  </g>
  <defs>
    <g id="shape0" transform="matrix(1, 0, 0, 1, 60.75, 140.2)">
      <path d="M27.95 -133.05 L23.9 -131.95 Q17.25 -130.2 10.85 -129.0 L16.65 -109.8 19.85 -98.85 19.95 -98.6 20.6 -97.9 20.45 -96.85 21.35 -93.95 Q26.15 -77.9 28.6 -71.25 31.4 -63.65 36.05 -54.15 L43.55 -39.05 Q51.6 -22.0 51.6 -8.65 51.6 -2.85 50.7 -0.45 49.2 3.6 44.15 6.0 32.15 11.75 -9.15 11.75 -43.85 11.75 -50.65 10.55 -52.85 10.2 -53.45 9.35 -54.15 8.4 -55.25 8.0 -60.75 6.0 -60.75 3.5 -60.75 -0.1 -57.7 -0.65 -57.05 -8.2 -45.75 -68.5 -36.15 -119.65 -32.05 -131.9 L-32.05 -138.6 Q-19.9 -134.55 -2.0 -134.55 8.75 -134.55 24.3 -139.1 L27.95 -140.2 27.95 -133.05 M0.55 -127.25 L0.85 -127.55 0.55 -127.55 -12.75 -126.8 Q-8.8 -123.25 -4.75 -123.25 -3.3 -123.25 0.55 -127.25 M7.3 -119.7 L5.55 -126.15 2.05 -122.55 -3.1 -117.7 Q-3.95 -117.05 -4.15 -117.05 L-5.45 -117.2 -6.0 -117.3 Q-9.5 -118.25 -14.75 -122.55 -18.25 -125.35 -19.8 -127.2 L-26.25 -128.3 -26.35 -127.3 Q-24.5 -126.9 -21.6 -124.65 L-19.1 -122.7 Q-19.6 -121.15 -20.15 -117.05 L-20.15 -116.35 -18.6 -117.45 -15.1 -118.65 -14.0 -118.95 -13.95 -118.95 -13.15 -119.15 -13.6 -118.9 Q-12.05 -118.7 -11.75 -116.65 L-11.6 -113.6 -11.4 -113.25 -10.15 -115.15 -8.9 -116.25 -8.9 -116.35 -8.15 -116.7 -7.45 -117.05 -7.05 -116.95 -5.95 -117.05 -5.55 -117.05 -5.45 -117.05 -4.15 -116.9 -3.05 -116.55 -1.8 -115.55 0.45 -113.05 0.4 -116.0 0.45 -116.3 Q0.05 -116.9 0.45 -117.8 0.45 -119.15 2.05 -119.5 L2.45 -119.55 2.85 -119.9 3.1 -119.65 5.55 -119.9 7.3 -119.7 M5.55 -115.15 L5.05 -115.15 5.1 -112.1 4.85 -104.6 Q5.2 -103.9 2.85 -103.9 2.45 -103.9 -2.45 -108.05 L-4.3 -109.65 Q-2.6 -104.0 -3.2 -79.3 L-3.4 -47.95 Q9.3 -48.1 20.9 -51.9 25.1 -53.3 28.1 -54.7 L27.85 -55.55 23.7 -68.0 21.75 -73.95 19.7 -80.15 18.65 -83.5 17.5 -87.05 16.9 -88.9 16.55 -89.9 12.1 -89.85 Q4.65 -89.85 3.2 -92.05 2.45 -93.15 3.2 -94.5 3.2 -96.35 4.15 -97.75 L4.25 -98.45 Q4.45 -99.25 4.15 -99.75 5.8 -101.05 11.6 -101.05 L13.0 -101.0 8.6 -115.25 5.55 -115.15 M11.6 -96.4 L7.85 -96.5 7.95 -94.75 Q12.15 -94.95 15.0 -94.75 L14.5 -96.4 11.6 -96.4 M39.55 -23.6 L38.0 -27.7 34.15 -37.45 33.95 -37.15 33.75 -37.8 30.05 -48.95 29.8 -49.65 27.1 -48.0 Q17.05 -42.75 -4.25 -42.75 -32.05 -42.75 -41.35 -47.25 L-41.55 -46.2 -42.75 -38.0 -42.8 -37.8 -42.8 -37.75 -43.65 -31.45 -43.7 -31.5 -43.7 -31.45 -44.35 -26.8 -45.25 -20.95 -45.35 -20.3 -47.0 -11.65 -47.15 -11.05 -47.2 -10.7 -47.3 -10.35 -47.35 -10.0 -47.75 -8.35 -47.85 -7.95 -47.9 -7.7 -48.05 -7.15 -48.15 -6.65 -48.45 -5.6 Q-49.45 -1.9 -50.45 0.55 L-50.95 1.65 -50.9 1.65 -49.35 2.05 -48.85 2.15 -48.15 2.25 -47.15 2.4 -23.35 3.6 -21.25 3.65 -5.15 3.9 -3.95 3.9 2.85 3.95 2.85 4.0 4.85 4.0 5.35 4.0 7.5 4.0 20.3 4.0 20.5 4.0 24.9 3.1 31.1 1.4 35.25 -0.3 35.6 -0.5 38.8 -2.4 40.8 -3.8 41.25 -4.15 42.4 -5.3 Q43.65 -6.65 44.0 -7.85 L44.0 -7.9 44.1 -8.75 Q44.1 -10.55 42.1 -16.5 L39.55 -23.6 M-27.1 -121.45 L-31.1 -99.15 -31.35 -97.65 -31.65 -96.05 -32.8 -90.15 -32.75 -90.15 -39.0 -62.5 -40.55 -52.7 Q-38.3 -51.85 -34.85 -50.95 -23.8 -48.15 -6.85 -47.95 L-7.15 -51.7 Q-7.95 -64.35 -7.95 -79.2 -8.5 -103.85 -7.55 -110.05 L-9.3 -107.65 Q-13.3 -102.4 -14.0 -102.0 -16.35 -103.3 -16.35 -110.65 L-16.35 -112.35 -18.55 -110.8 Q-23.15 -107.7 -23.85 -107.7 L-26.45 -108.15 -26.7 -112.1 Q-26.7 -113.25 -25.8 -115.6 -24.9 -117.9 -24.9 -119.1 -24.9 -119.75 -26.85 -121.65 L-27.05 -121.8 -27.1 -121.45" fill="#000000" fill-rule="evenodd" stroke="none"/>
      <path d="M7.3 -119.7 L5.55 -119.9 3.1 -119.65 2.85 -119.9 2.45 -119.55 2.05 -119.5 Q0.45 -119.15 0.45 -117.8 0.05 -116.9 0.45 -116.3 L0.4 -116.0 0.45 -113.05 -1.8 -115.55 -3.05 -116.55 -4.15 -116.9 -5.45 -117.05 -5.55 -117.05 -5.95 -117.05 -7.05 -116.95 -7.45 -117.05 -8.15 -116.7 -8.9 -116.35 -8.9 -116.25 -10.15 -115.15 -11.4 -113.25 -11.6 -113.6 -11.75 -116.65 Q-12.05 -118.7 -13.6 -118.9 L-13.15 -119.15 -13.95 -118.95 -14.0 -118.95 -15.1 -118.65 -18.6 -117.45 -20.15 -116.35 -20.15 -117.05 Q-19.6 -121.15 -19.1 -122.7 L-21.6 -124.65 Q-24.5 -126.9 -26.35 -127.3 L-26.25 -128.3 -19.8 -127.2 Q-18.25 -125.35 -14.75 -122.55 -9.5 -118.25 -6.0 -117.3 L-5.45 -117.2 -4.15 -117.05 Q-3.95 -117.05 -3.1 -117.7 L2.05 -122.55 5.55 -126.15 7.3 -119.7 M11.6 -96.4 L14.5 -96.4 15.0 -94.75 Q12.15 -94.95 7.95 -94.75 L7.85 -96.5 11.6 -96.4" fill="#ffffff" fill-rule="evenodd" stroke="none"/>
      <path d="M0.55 -127.55 L0.55 -127.25 Q-3.3 -123.25 -4.75 -123.25 -8.8 -123.25 -12.75 -126.8 L0.55 -127.55" fill="#fff1dd" fill-rule="evenodd" stroke="none"/>
      <path d="M5.55 -115.15 L8.6 -115.25 13.0 -101.0 11.6 -101.05 Q5.8 -101.05 4.15 -99.75 4.45 -99.25 4.25 -98.45 L4.15 -97.75 Q3.2 -96.35 3.2 -94.5 2.45 -93.15 3.2 -92.05 4.65 -89.85 12.1 -89.85 L16.55 -89.9 16.9 -88.9 17.5 -87.05 18.65 -83.5 19.7 -80.15 21.75 -73.95 23.7 -68.0 27.85 -55.55 28.1 -54.7 Q25.1 -53.3 20.9 -51.9 9.3 -48.1 -3.4 -47.95 L-3.2 -79.3 Q-2.6 -104.0 -4.3 -109.65 L-2.45 -108.05 Q2.45 -103.9 2.85 -103.9 5.2 -103.9 4.85 -104.6 L5.1 -112.1 5.05 -115.15 5.55 -115.15 M-43.65 -31.45 L-42.8 -37.75 -42.8 -37.8 -42.75 -38.0 -41.55 -46.2 -41.35 -47.25 Q-32.05 -42.75 -4.25 -42.75 17.05 -42.75 27.1 -48.0 L29.8 -49.65 30.05 -48.95 33.75 -37.8 33.95 -37.15 34.15 -37.45 38.0 -27.7 39.55 -23.6 Q37.5 -25.65 36.3 -25.65 L35.45 -25.35 35.4 -24.9 Q36.6 -23.7 36.6 -22.8 35.7 -19.8 35.7 -19.05 35.7 -16.6 36.6 -16.05 L34.2 -16.05 Q33.65 -16.85 32.15 -16.85 31.65 -16.85 31.25 -16.35 L31.55 -15.7 31.55 -15.65 Q31.55 -13.65 36.4 -10.45 40.95 -7.4 41.25 -4.15 L40.8 -3.8 Q39.85 -5.25 37.0 -6.95 36.25 -8.9 35.25 -8.9 L34.65 -8.75 34.5 -8.2 Q34.5 -7.45 35.25 -6.6 36.0 -5.8 36.0 -5.2 36.0 -4.4 32.9 0.65 32.2 -1.75 30.2 -5.7 30.35 -7.2 29.4 -7.2 L28.65 -6.9 28.65 -6.75 Q28.9 -5.9 28.65 -5.05 28.0 -3.1 24.3 -1.4 L23.9 -4.2 Q23.9 -5.2 25.25 -6.9 26.55 -8.6 26.55 -10.6 26.25 -15.9 24.95 -15.9 L22.2 -13.35 22.2 -13.6 Q19.35 -22.5 16.85 -22.5 16.05 -22.5 15.85 -20.4 L15.6 -17.85 Q12.75 -13.95 12.75 -12.45 12.6 -11.75 12.75 -11.15 11.4 -11.4 10.1 -12.3 7.8 -14.25 7.2 -14.25 L6.35 -14.1 6.3 -13.0 Q6.3 -10.45 10.3 -5.95 L14.25 -1.6 Q14.25 -0.95 13.85 -0.15 11.1 -1.7 9.25 -4.0 9.0 -5.25 8.25 -5.35 L7.95 -5.9 7.2 -5.7 7.2 -3.9 7.6 -3.3 7.8 -1.65 Q7.8 0.3 7.45 0.95 L5.35 4.0 4.85 4.0 Q3.65 3.0 3.4 2.1 L3.3 0.0 3.9 -4.45 3.9 -4.6 3.9 -4.8 Q3.9 -5.9 3.15 -5.9 L2.45 -5.7 Q2.05 -4.0 0.0 -2.55 L-4.35 0.05 -4.5 -0.85 Q-4.5 -2.15 3.0 -10.9 L2.9 -11.25 2.35 -11.5 Q2.15 -11.75 1.7 -11.85 L-3.9 -9.9 Q-3.75 -10.7 -3.75 -11.9 -5.85 -22.7 -8.55 -22.7 -9.45 -22.7 -11.9 -12.6 L-12.0 -11.5 -12.15 -11.6 Q-14.45 -12.75 -17.5 -12.75 L-18.75 -12.65 -19.1 -12.75 -19.75 -12.25 -19.8 -12.1 -19.8 -11.9 -17.15 -9.4 Q-14.55 -7.0 -14.55 -4.8 L-14.6 -2.45 Q-15.75 -2.55 -18.65 -5.4 L-19.3 -5.15 -19.5 -5.7 Q-20.25 -5.0 -20.75 -2.75 -21.3 -0.3 -22.5 1.35 L-23.45 -2.55 -23.85 -4.15 -23.7 -4.7 Q-23.7 -5.0 -24.35 -5.35 L-24.45 -5.4 -25.2 -5.15 -25.2 -4.4 -28.05 -4.05 -30.6 -4.35 Q-29.2 -5.0 -27.75 -6.45 -25.4 -8.8 -25.4 -10.35 L-25.4 -11.4 Q-25.55 -12.45 -26.3 -12.45 -26.6 -12.45 -27.1 -11.85 -27.7 -11.1 -28.65 -10.8 L-32.0 -10.0 -31.95 -12.6 -31.8 -17.9 Q-31.85 -21.0 -33.2 -22.5 -34.35 -21.9 -36.45 -16.95 -38.7 -13.9 -38.7 -10.95 L-38.7 -10.85 Q-40.4 -11.85 -44.4 -11.85 L-46.95 -11.7 -47.0 -11.65 -45.35 -20.3 -45.25 -20.95 -44.35 -26.8 -43.7 -31.45 -43.65 -31.45 M35.25 -0.3 L35.45 -0.6 35.6 -0.5 35.25 -0.3 M-26.85 -121.65 Q-24.9 -119.75 -24.9 -119.1 -24.9 -117.9 -25.8 -115.6 -26.7 -113.25 -26.7 -112.1 L-26.45 -108.15 -23.85 -107.7 Q-23.15 -107.7 -18.55 -110.8 L-16.35 -112.35 -16.35 -110.65 Q-16.35 -103.3 -14.0 -102.0 -13.3 -102.4 -9.3 -107.65 L-7.55 -110.05 Q-8.5 -103.85 -7.95 -79.2 -7.95 -64.35 -7.15 -51.7 L-6.85 -47.95 Q-23.8 -48.15 -34.85 -50.95 -38.3 -51.85 -40.55 -52.7 L-39.0 -62.5 -32.75 -90.15 -32.8 -90.15 -31.65 -96.05 -31.35 -97.65 -31.1 -99.15 -27.1 -121.45 -26.85 -121.65 M-34.1 -17.8 L-34.1 -17.85 -33.95 -17.7 -34.1 -17.8 M-47.15 -11.05 Q-47.15 -10.7 -42.75 -7.35 -41.55 -6.5 -41.0 -4.95 L-40.4 -3.6 -40.7 -0.2 Q-42.9 -0.9 -45.3 -5.7 -46.05 -5.7 -46.05 -4.15 L-46.0 -3.75 -46.85 -1.65 Q-47.8 0.85 -48.85 2.15 L-49.35 2.05 -50.45 0.55 Q-49.45 -1.9 -48.45 -5.6 L-48.15 -6.65 -48.05 -7.15 -47.9 -7.7 -47.85 -7.95 -47.75 -8.35 -47.35 -10.0 -47.3 -10.35 -47.2 -10.7 -47.15 -11.05" fill="#ce350f" fill-rule="evenodd" stroke="none"/>
      <path d="M42.1 -16.5 Q44.1 -10.55 44.1 -8.75 L44.0 -7.9 44.0 -7.85 Q43.65 -6.65 42.4 -5.3 41.1 -7.85 37.8 -11.15 L34.4 -14.5 36.25 -14.4 Q38.9 -14.4 38.9 -15.25 38.9 -15.7 37.2 -18.95 37.2 -19.65 38.0 -22.35 40.0 -21.6 40.45 -19.35 41.05 -16.4 41.4 -15.95 L42.1 -16.5 M7.5 4.0 Q9.15 0.9 9.2 -1.5 L10.8 -0.15 Q12.5 1.05 13.0 2.15 13.45 3.2 14.1 3.65 14.8 3.3 14.85 3.3 14.8 1.25 15.65 -1.6 15.65 -2.3 12.4 -6.45 L8.25 -11.85 Q9.75 -10.1 12.6 -10.1 L13.3 -10.1 Q13.75 -9.75 14.55 -9.75 15.3 -9.75 15.45 -10.1 L14.25 -12.6 Q14.25 -13.95 17.75 -19.05 L19.95 -15.95 Q20.7 -14.85 20.7 -13.55 20.7 -12.75 19.8 -11.65 18.9 -10.55 18.9 -10.25 L19.05 -9.8 19.05 -9.6 19.8 -9.45 19.95 -9.45 20.25 -9.45 Q20.95 -9.45 22.75 -10.9 24.4 -12.25 24.65 -12.75 L25.1 -10.5 Q25.1 -9.3 23.8 -7.55 22.5 -5.8 22.5 -4.2 L23.4 2.4 24.2 2.45 25.05 2.25 Q25.65 -0.15 28.05 -2.1 L28.7 -2.65 31.1 1.4 24.9 3.1 20.5 4.0 20.3 4.0 7.5 4.0 M35.45 -0.6 L35.6 -0.9 37.3 -4.2 38.8 -2.4 35.6 -0.5 35.45 -0.6 M-21.25 3.65 L-19.3 -0.25 Q-18.8 -1.1 -18.75 -3.25 -16.85 -0.35 -13.55 -0.35 -11.9 -0.35 -11.9 -1.2 -13.35 -3.4 -13.35 -4.7 L-13.05 -6.75 Q-12.95 -8.0 -13.95 -9.0 L-15.8 -10.65 -10.7 -8.9 Q-9.5 -8.9 -9.5 -9.7 L-9.5 -9.8 Q-9.5 -10.3 -9.6 -10.15 L-10.4 -12.75 Q-10.4 -13.4 -9.4 -16.1 L-8.0 -19.5 Q-5.25 -14.85 -5.25 -11.9 L-6.3 -9.15 -6.0 -8.45 -5.4 -8.3 -4.95 -8.35 -3.95 -8.3 Q-3.4 -8.3 -1.0 -9.35 -3.2 -6.7 -6.0 -0.85 -5.9 3.65 -3.95 3.65 -3.4 3.65 -3.05 3.05 -3.65 2.55 -3.65 1.8 -3.65 1.45 0.15 -0.8 L2.0 -2.05 1.85 0.1 2.85 3.95 -3.95 3.9 -5.15 3.9 -21.25 3.65 M-47.15 2.4 L-46.35 0.9 -45.15 -1.7 -44.55 -0.8 Q-42.8 1.65 -40.85 1.65 -39.25 1.65 -39.0 -0.15 -38.85 -1.05 -39.0 -2.35 L-39.0 -3.75 Q-39.05 -4.6 -39.3 -4.9 L-39.3 -5.6 -43.4 -10.2 -42.15 -10.2 -38.25 -8.6 -38.0 -8.65 -37.95 -8.6 -37.25 -8.85 Q-38.05 -13.15 -34.1 -17.8 L-33.95 -17.7 -33.35 -12.7 Q-33.35 -11.0 -34.3 -9.25 L-35.25 -7.4 Q-35.25 -6.85 -34.5 -6.6 -33.25 -7.4 -32.6 -8.4 L-27.0 -9.8 -26.9 -9.35 Q-30.1 -6.5 -33.95 -4.75 L-33.9 -4.25 -33.35 -3.95 -33.35 -3.85 -33.3 -3.45 Q-31.3 -2.45 -27.75 -2.45 -26.3 -2.45 -25.2 -3.0 L-25.2 0.05 -23.35 3.6 -47.15 2.4" fill="#f19941" fill-rule="evenodd" stroke="none"/>
      <path d="M-47.0 -11.65 L-46.95 -11.7 -44.4 -11.85 Q-40.4 -11.85 -38.7 -10.85 L-38.7 -10.95 Q-38.7 -13.9 -36.45 -16.95 -34.35 -21.9 -33.2 -22.5 -31.85 -21.0 -31.8 -17.9 L-31.95 -12.6 -32.0 -10.0 -28.65 -10.8 Q-27.7 -11.1 -27.1 -11.85 -26.6 -12.45 -26.3 -12.45 -25.55 -12.45 -25.4 -11.4 L-25.4 -10.35 Q-25.4 -8.8 -27.75 -6.45 -29.2 -5.0 -30.6 -4.35 L-28.05 -4.05 -25.2 -4.4 -25.2 -5.15 -24.45 -5.4 -24.35 -5.35 Q-23.7 -5.0 -23.7 -4.7 L-23.85 -4.15 -23.45 -2.55 -22.5 1.35 Q-21.3 -0.3 -20.75 -2.75 -20.25 -5.0 -19.5 -5.7 L-19.3 -5.15 -18.65 -5.4 Q-15.75 -2.55 -14.6 -2.45 L-14.55 -4.8 Q-14.55 -7.0 -17.15 -9.4 L-19.8 -11.9 -19.8 -12.1 -19.75 -12.25 -19.1 -12.75 -18.75 -12.65 -17.5 -12.75 Q-14.45 -12.75 -12.15 -11.6 L-12.0 -11.5 -11.9 -12.6 Q-9.45 -22.7 -8.55 -22.7 -5.85 -22.7 -3.75 -11.9 -3.75 -10.7 -3.9 -9.9 L1.7 -11.85 Q2.15 -11.75 2.35 -11.5 L2.9 -11.25 3.0 -10.9 Q-4.5 -2.15 -4.5 -0.85 L-4.35 0.05 0.0 -2.55 Q2.05 -4.0 2.45 -5.7 L3.15 -5.9 Q3.9 -5.9 3.9 -4.8 L3.9 -4.6 3.9 -4.45 3.3 0.0 3.4 2.1 Q3.65 3.0 4.85 4.0 L2.85 4.0 2.85 3.95 1.85 0.1 2.0 -2.05 0.15 -0.8 Q-3.65 1.45 -3.65 1.8 -3.65 2.55 -3.05 3.05 -3.4 3.65 -3.95 3.65 -5.9 3.65 -6.0 -0.85 -3.2 -6.7 -1.0 -9.35 -3.4 -8.3 -3.95 -8.3 L-4.95 -8.35 -5.4 -8.3 -6.0 -8.45 -6.3 -9.15 -5.25 -11.9 Q-5.25 -14.85 -8.0 -19.5 L-9.4 -16.1 Q-10.4 -13.4 -10.4 -12.75 L-9.6 -10.15 Q-9.5 -10.3 -9.5 -9.8 L-9.5 -9.7 Q-9.5 -8.9 -10.7 -8.9 L-15.8 -10.65 -13.95 -9.0 Q-12.95 -8.0 -13.05 -6.75 L-13.35 -4.7 Q-13.35 -3.4 -11.9 -1.2 -11.9 -0.35 -13.55 -0.35 -16.85 -0.35 -18.75 -3.25 -18.8 -1.1 -19.3 -0.25 L-21.25 3.65 -23.35 3.6 -25.2 0.05 -25.2 -3.0 Q-26.3 -2.45 -27.75 -2.45 -31.3 -2.45 -33.3 -3.45 L-33.35 -3.85 -33.35 -3.95 -33.9 -4.25 -33.95 -4.75 Q-30.1 -6.5 -26.9 -9.35 L-27.0 -9.8 -32.6 -8.4 Q-33.25 -7.4 -34.5 -6.6 -35.25 -6.85 -35.25 -7.4 L-34.3 -9.25 Q-33.35 -11.0 -33.35 -12.7 L-33.95 -17.7 -34.1 -17.85 -34.1 -17.8 Q-38.05 -13.15 -37.25 -8.85 L-37.95 -8.6 -38.0 -8.65 -38.25 -8.6 -42.15 -10.2 -43.4 -10.2 -39.3 -5.6 -39.3 -4.9 Q-39.05 -4.6 -39.0 -3.75 L-39.0 -2.35 Q-38.85 -1.05 -39.0 -0.15 -39.25 1.65 -40.85 1.65 -42.8 1.65 -44.55 -0.8 L-45.15 -1.7 -46.35 0.9 -47.15 2.4 -48.15 2.25 -48.85 2.15 Q-47.8 0.85 -46.85 -1.65 L-46.0 -3.75 -46.05 -4.15 Q-46.05 -5.7 -45.3 -5.7 -42.9 -0.9 -40.7 -0.2 L-40.4 -3.6 -41.0 -4.95 Q-41.55 -6.5 -42.75 -7.35 -47.15 -10.7 -47.15 -11.05 L-47.0 -11.65 M5.35 4.0 L7.45 0.95 Q7.8 0.3 7.8 -1.65 L7.6 -3.3 7.2 -3.9 7.2 -5.7 7.95 -5.9 8.25 -5.35 Q9.0 -5.25 9.25 -4.0 11.1 -1.7 13.85 -0.15 14.25 -0.95 14.25 -1.6 L10.3 -5.95 Q6.3 -10.45 6.3 -13.0 L6.35 -14.1 7.2 -14.25 Q7.8 -14.25 10.1 -12.3 11.4 -11.4 12.75 -11.15 12.6 -11.75 12.75 -12.45 12.75 -13.95 15.6 -17.85 L15.85 -20.4 Q16.05 -22.5 16.85 -22.5 19.35 -22.5 22.2 -13.6 L22.2 -13.35 24.95 -15.9 Q26.25 -15.9 26.55 -10.6 26.55 -8.6 25.25 -6.9 23.9 -5.2 23.9 -4.2 L24.3 -1.4 Q28.0 -3.1 28.65 -5.05 28.9 -5.9 28.65 -6.75 L28.65 -6.9 29.4 -7.2 Q30.35 -7.2 30.2 -5.7 32.2 -1.75 32.9 0.65 36.0 -4.4 36.0 -5.2 36.0 -5.8 35.25 -6.6 34.5 -7.45 34.5 -8.2 L34.65 -8.75 35.25 -8.9 Q36.25 -8.9 37.0 -6.95 39.85 -5.25 40.8 -3.8 L38.8 -2.4 37.3 -4.2 35.6 -0.9 35.45 -0.6 35.25 -0.3 31.1 1.4 28.7 -2.65 28.05 -2.1 Q25.65 -0.15 25.05 2.25 L24.2 2.45 23.4 2.4 22.5 -4.2 Q22.5 -5.8 23.8 -7.55 25.1 -9.3 25.1 -10.5 L24.65 -12.75 Q24.4 -12.25 22.75 -10.9 20.95 -9.45 20.25 -9.45 L19.95 -9.45 19.8 -9.45 19.05 -9.6 19.05 -9.8 18.9 -10.25 Q18.9 -10.55 19.8 -11.65 20.7 -12.75 20.7 -13.55 20.7 -14.85 19.95 -15.95 L17.75 -19.05 Q14.25 -13.95 14.25 -12.6 L15.45 -10.1 Q15.3 -9.75 14.55 -9.75 13.75 -9.75 13.3 -10.1 L12.6 -10.1 Q9.75 -10.1 8.25 -11.85 L12.4 -6.45 Q15.65 -2.3 15.65 -1.6 14.8 1.25 14.85 3.3 14.8 3.3 14.1 3.65 13.45 3.2 13.0 2.15 12.5 1.05 10.8 -0.15 L9.2 -1.5 Q9.15 0.9 7.5 4.0 L5.35 4.0 M41.25 -4.15 Q40.95 -7.4 36.4 -10.45 31.55 -13.65 31.55 -15.65 L31.55 -15.7 31.25 -16.35 Q31.65 -16.85 32.15 -16.85 33.65 -16.85 34.2 -16.05 L36.6 -16.05 Q35.7 -16.6 35.7 -19.05 35.7 -19.8 36.6 -22.8 36.6 -23.7 35.4 -24.9 L35.45 -25.35 36.3 -25.65 Q37.5 -25.65 39.55 -23.6 L42.1 -16.5 41.4 -15.95 Q41.05 -16.4 40.45 -19.35 40.0 -21.6 38.0 -22.35 37.2 -19.65 37.2 -18.95 38.9 -15.7 38.9 -15.25 38.9 -14.4 36.25 -14.4 L34.4 -14.5 37.8 -11.15 Q41.1 -7.85 42.4 -5.3 L41.25 -4.15 M-50.45 0.55 L-49.35 2.05 -50.9 1.65 -50.95 1.65 -50.45 0.55" fill="#e66a1a" fill-rule="evenodd" stroke="none"/>
    </g>
  </defs>
</svg>
