<?xml version="1.0" encoding="UTF-8" standalone="no"?>
<svg xmlns:xlink="http://www.w3.org/1999/xlink" height="342.0px" width="237.9px" xmlns="http://www.w3.org/2000/svg">
  <g transform="matrix(1, 0, 0, 1, 118.05, 273.9)">
    <use height="159.4" transform="matrix(1.0, 0.0, 0.0, 1.0, -61.65, -140.2)" width="119.7" xlink:href="#shape0"/>
  </g>
  <defs>
    <g id="shape0" transform="matrix(1, 0, 0, 1, 61.65, 140.2)">
      <path d="M27.95 -140.2 L27.95 -133.05 23.9 -131.95 16.15 -130.05 22.1 -131.9 15.2 -130.35 47.1 -105.45 46.9 -105.45 47.05 -105.3 Q47.5 -105.25 47.4 -104.8 L47.4 -104.6 47.55 -104.65 46.9 -103.85 41.55 -98.55 Q37.65 -94.85 31.9 -91.15 27.3 -88.2 23.0 -86.1 24.55 -83.25 26.2 -78.5 30.25 -66.9 34.0 -58.55 L35.65 -54.95 36.05 -54.15 43.55 -39.05 Q51.3 -22.65 51.6 -9.65 55.55 -8.7 58.05 -0.3 57.95 2.1 56.75 3.9 54.35 7.5 48.95 5.4 L48.3 8.65 Q47.95 10.4 47.05 11.4 44.7 13.95 35.55 13.95 L33.4 16.0 Q31.45 18.05 29.4 18.05 24.15 18.05 21.05 14.1 L20.15 12.4 Q19.6 14.05 17.9 15.75 15.0 18.6 10.85 18.6 7.6 18.6 5.85 17.35 4.65 16.1 4.1 16.1 -2.85 19.2 -3.8 19.2 -7.9 19.2 -10.45 15.5 -12.3 18.6 -17.6 18.6 L-24.45 17.95 -26.4 16.1 -27.15 17.45 Q-27.8 18.05 -30.8 18.05 -35.3 18.05 -37.55 15.9 -39.85 18.05 -43.8 18.05 -48.0 18.05 -49.05 15.9 L-50.25 13.05 Q-52.25 14.55 -54.35 14.55 -59.6 14.55 -61.1 11.35 -61.85 9.75 -61.55 7.85 -61.55 5.05 -60.75 3.75 L-60.75 3.5 Q-60.75 -0.1 -57.7 -0.65 -57.05 -8.2 -45.75 -68.5 L-45.45 -70.0 -42.0 -87.95 Q-45.0 -90.0 -47.7 -92.65 -51.95 -96.75 -54.85 -101.6 -56.3 -103.95 -58.45 -109.85 -55.25 -114.3 -32.05 -135.15 L-32.05 -138.6 Q-19.9 -134.55 -2.0 -134.55 8.75 -134.55 24.3 -139.1 L27.95 -140.2 M29.65 -109.25 L22.2 -115.85 8.1 -128.8 3.75 -127.9 -1.7 -127.3 Q-0.3 -122.15 1.95 -105.25 3.75 -104.35 3.4 -102.35 3.4 -101.1 2.6 -100.3 L3.25 -94.95 3.7 -91.25 4.0 -88.65 Q14.65 -90.65 21.25 -93.55 27.85 -96.5 31.75 -99.9 L36.15 -103.95 36.2 -104.0 35.95 -104.15 35.5 -104.5 33.85 -105.8 29.65 -109.25 M33.95 -37.15 L32.2 -42.4 23.05 -70.0 18.45 -84.1 Q10.75 -81.1 4.15 -81.1 L1.9 -81.2 0.95 -81.1 Q0.6 -81.1 0.25 -81.4 L-0.85 -81.7 -1.45 -84.25 -1.25 -81.8 -1.25 -81.7 0.1 -66.05 0.25 -63.95 0.45 -61.95 0.95 -55.65 1.0 -55.1 1.3 -51.15 1.25 -50.7 Q6.25 -44.55 11.7 -38.35 23.95 -24.45 29.05 -24.45 32.05 -24.45 36.75 -30.65 L36.8 -30.7 36.6 -31.25 34.3 -37.15 34.2 -37.35 34.15 -37.45 33.95 -37.15 M42.05 -16.3 L39.95 -22.5 38.9 -25.3 38.25 -24.65 Q32.75 -19.2 29.05 -19.2 22.3 -19.2 10.4 -32.25 L10.2 -32.45 8.05 -34.9 7.1 -36.0 7.05 -36.1 Q4.9 -38.6 3.3 -40.85 L-0.15 -45.45 0.05 -45.75 -0.1 -46.05 -0.5 -46.8 -0.75 -47.35 -3.2 -44.2 Q-7.85 -38.45 -13.95 -32.4 -30.1 -16.35 -37.6 -16.35 -41.35 -16.35 -45.3 -19.9 L-45.4 -20.0 -45.4 -19.9 -45.55 -19.3 -47.2 -10.85 -48.45 -5.6 -50.75 1.25 -50.85 1.4 -50.95 1.65 -50.9 1.65 -48.15 2.25 Q-36.05 4.0 20.3 4.0 30.75 2.15 35.6 -0.5 43.1 -4.55 44.0 -7.85 L44.0 -7.9 44.1 -8.75 44.1 -8.85 44.1 -8.95 44.05 -9.4 44.05 -9.45 43.75 -11.0 42.15 -16.35 42.15 -16.4 42.05 -16.3 M51.3 -2.95 L50.7 -0.45 50.4 0.3 52.65 1.05 Q53.55 1.2 53.55 -0.3 L51.3 -2.95 M44.1 6.05 Q41.25 7.35 36.9 8.4 38.0 9.8 39.9 9.8 42.95 9.8 43.8 7.65 L44.1 6.05 M24.65 10.35 L24.5 10.35 24.65 10.6 Q26.6 13.35 29.0 13.35 31.9 13.35 32.1 9.35 L24.65 10.35 M15.2 11.2 L15.25 11.1 15.2 11.1 6.45 11.5 Q8.4 13.95 11.1 13.95 13.5 13.95 15.2 11.2 M-13.2 -93.05 L-12.15 -102.4 Q-10.5 -117.15 -11.4 -126.8 L-12.75 -126.8 Q-17.45 -126.8 -28.15 -129.65 L-35.4 -122.95 -40.9 -117.8 Q-42.05 -117.0 -44.75 -113.5 L-46.05 -111.9 -48.8 -108.65 -50.25 -107.15 Q-45.9 -100.2 -39.35 -95.0 -32.85 -89.8 -19.35 -86.85 L-13.75 -85.75 -13.45 -90.05 -13.2 -93.05 M-5.6 -105.55 L-5.15 -105.7 -5.0 -106.25 -5.35 -109.75 -5.6 -105.55 M-44.35 -26.8 L-44.5 -26.05 -43.0 -24.5 Q-40.1 -21.35 -38.7 -21.35 -32.8 -21.35 -17.6 -35.45 -3.2 -48.85 -3.2 -51.4 L-3.2 -51.55 -3.2 -51.65 -3.2 -51.8 -3.55 -57.9 -4.15 -63.65 -4.35 -65.7 -4.5 -66.8 -4.55 -67.2 -4.6 -67.6 Q-6.05 -79.75 -6.05 -84.55 -6.35 -93.85 -6.05 -99.4 -6.95 -89.2 -8.35 -81.45 -8.8 -80.9 -9.6 -80.65 L-16.0 -80.15 Q-25.95 -80.15 -34.25 -83.65 L-37.35 -70.0 -37.35 -69.9 -38.9 -62.95 -38.95 -62.6 -39.0 -62.5 -39.05 -62.2 -39.05 -62.0 -39.1 -61.85 -39.15 -61.5 -39.2 -61.2 -39.2 -61.05 -39.25 -60.85 -39.4 -60.0 -39.4 -59.9 -39.4 -59.85 -39.55 -59.1 -42.15 -42.15 -42.25 -41.4 -42.3 -40.95 -42.35 -40.85 -42.6 -39.1 -42.75 -37.95 -42.8 -37.8 -42.8 -37.75 -43.45 -32.6 -43.65 -31.45 -43.7 -31.5 -43.75 -31.35 -43.85 -30.4 -44.35 -26.8 M-14.7 11.75 L-22.75 11.7 -21.15 13.95 -15.15 13.95 Q-15.3 13.1 -14.7 11.75 M-4.5 14.7 Q0.15 14.7 0.65 11.65 L-7.0 11.75 Q-5.2 14.7 -4.5 14.7 M-30.5 13.35 Q-30.3 13.1 -30.05 11.6 L-34.45 11.55 Q-33.55 14.1 -30.5 13.35 M-57.15 9.35 L-54.45 9.8 -53.25 9.6 -53.45 9.35 Q-54.15 8.4 -55.25 8.0 L-57.15 7.25 -57.15 9.35 M-44.55 13.5 Q-41.4 13.5 -40.25 11.35 L-45.45 11.1 Q-44.9 13.5 -44.55 13.5" fill="#000000" fill-rule="evenodd" stroke="none"/>
      <path d="M35.5 -104.5 L35.95 -104.15 36.2 -104.0 36.15 -103.95 35.5 -104.5 M-45.3 -19.9 L-45.4 -19.9 -45.4 -20.0 -45.3 -19.9 M-5.6 -105.55 L-5.35 -109.75 -5.0 -106.25 -5.15 -105.7 -5.6 -105.55 M-1.25 -81.8 L-1.45 -84.25 -0.85 -81.7 -1.25 -81.8" fill="#0d3184" fill-rule="evenodd" stroke="none"/>
      <path d="M3.25 -94.95 Q19.25 -100.1 29.65 -109.25 L33.85 -105.8 Q31.05 -103.65 21.05 -98.0 11.05 -92.35 3.7 -91.25 L3.25 -94.95 M33.95 -37.15 L34.15 -37.45 34.2 -37.35 33.95 -37.15 M6.9 -75.75 Q6.9 -73.65 4.65 -73.65 2.45 -73.65 2.45 -75.65 2.45 -78.0 4.65 -78.0 6.9 -78.0 6.9 -75.75 M6.45 -64.5 Q8.6 -64.5 8.6 -62.25 8.6 -60.15 6.45 -60.15 4.2 -60.15 4.2 -62.15 4.2 -64.5 6.45 -64.5 M-47.2 -10.85 Q-45.25 -10.6 -44.1 -9.9 -40.8 -7.9 -39.8 -7.55 -30.2 -4.1 6.9 -4.1 19.45 -4.1 32.65 -10.75 38.15 -13.55 42.05 -16.3 L42.15 -16.35 43.75 -11.0 Q40.4 -7.75 31.5 -4.85 15.6 0.35 -7.95 0.35 -29.2 0.35 -42.15 -3.4 -46.1 -4.5 -48.45 -5.6 L-47.2 -10.85 M44.0 -7.9 L44.0 -7.85 44.0 -7.9 M6.0 -48.6 Q6.0 -51.0 8.15 -51.0 10.35 -51.0 10.35 -48.65 10.35 -46.55 8.15 -46.55 6.0 -46.55 6.0 -48.6 M51.3 -2.95 L53.55 -0.3 Q53.55 1.2 52.65 1.05 L50.4 0.3 50.7 -0.45 51.3 -2.95 M44.1 6.05 L43.8 7.65 Q42.95 9.8 39.9 9.8 38.0 9.8 36.9 8.4 41.25 7.35 44.1 6.05 M24.65 10.35 L32.1 9.35 Q31.9 13.35 29.0 13.35 26.6 13.35 24.65 10.6 L24.65 10.35 M15.2 11.2 Q13.5 13.95 11.1 13.95 8.4 13.95 6.45 11.5 L15.2 11.1 15.2 11.2 M-46.05 -111.9 Q-38.4 -104.75 -35.85 -102.9 -26.3 -96.1 -16.65 -93.6 L-13.2 -93.05 -13.45 -90.05 -14.7 -90.05 Q-26.6 -90.05 -39.65 -100.05 -44.45 -103.7 -47.9 -107.6 L-48.8 -108.65 -46.05 -111.9 M-42.7 -28.2 L-42.3 -30.45 -42.7 -28.2 M-0.45 -45.0 L-0.4 -45.25 -0.3 -45.25 -0.45 -45.0 M-30.5 13.35 Q-33.55 14.1 -34.45 11.55 L-30.05 11.6 Q-30.3 13.1 -30.5 13.35 M-4.5 14.7 Q-5.2 14.7 -7.0 11.75 L0.65 11.65 Q0.15 14.7 -4.5 14.7 M-14.7 11.75 Q-15.3 13.1 -15.15 13.95 L-21.15 13.95 -22.75 11.7 -14.7 11.75 M-44.55 13.5 Q-44.9 13.5 -45.45 11.1 L-40.25 11.35 Q-41.4 13.5 -44.55 13.5 M-57.15 9.35 L-57.15 7.25 -55.25 8.0 Q-54.15 8.4 -53.45 9.35 L-53.25 9.6 -54.45 9.8 -57.15 9.35" fill="#ffffff" fill-rule="evenodd" stroke="none"/>
      <path d="M-0.85 -81.7 L-1.25 -81.7 -1.25 -81.8 -0.85 -81.7 M34.3 -37.15 L33.6 -36.9 33.95 -37.15 34.2 -37.35 34.3 -37.15" fill="#1242b1" fill-rule="evenodd" stroke="none"/>
      <path d="M-0.15 -45.45 L-0.1 -46.05 0.05 -45.75 -0.15 -45.45 M-50.95 1.65 L-50.85 1.4 -50.95 1.65" fill="#4d6fbb" fill-rule="evenodd" stroke="none"/>
      <path d="M3.25 -94.95 L2.6 -100.3 Q3.4 -101.1 3.4 -102.35 3.75 -104.35 1.95 -105.25 -0.3 -122.15 -1.7 -127.3 L3.75 -127.9 8.1 -128.8 22.2 -115.85 29.65 -109.25 Q19.25 -100.1 3.25 -94.95 M33.85 -105.8 L35.5 -104.5 36.15 -103.95 31.75 -99.9 Q27.85 -96.5 21.25 -93.55 14.65 -90.65 4.0 -88.65 L3.7 -91.25 Q11.05 -92.35 21.05 -98.0 31.05 -103.65 33.85 -105.8 M-46.05 -111.9 L-44.75 -113.5 Q-42.05 -117.0 -40.9 -117.8 L-35.4 -122.95 -28.15 -129.65 Q-17.45 -126.8 -12.75 -126.8 L-11.4 -126.8 Q-10.5 -117.15 -12.15 -102.4 L-13.2 -93.05 -16.65 -93.6 Q-26.3 -96.1 -35.85 -102.9 -38.4 -104.75 -46.05 -111.9 M-13.45 -90.05 L-13.75 -85.75 -19.35 -86.85 Q-32.85 -89.8 -39.35 -95.0 -45.9 -100.2 -50.25 -107.15 L-48.8 -108.65 -47.9 -107.6 Q-44.45 -103.7 -39.65 -100.05 -26.6 -90.05 -14.7 -90.05 L-13.45 -90.05" fill="#344c88" fill-rule="evenodd" stroke="none"/>
      <path d="M-0.85 -81.7 L0.25 -81.4 Q0.6 -81.1 0.95 -81.1 L1.9 -81.2 4.15 -81.1 Q10.75 -81.1 18.45 -84.1 L23.05 -70.0 32.2 -42.4 33.95 -37.15 33.6 -36.9 34.3 -37.15 36.6 -31.25 36.8 -30.7 36.75 -30.65 Q32.05 -24.45 29.05 -24.45 23.95 -24.45 11.7 -38.35 6.25 -44.55 1.25 -50.7 L1.3 -51.15 1.0 -55.1 0.95 -55.65 0.45 -61.95 0.25 -63.95 0.1 -66.05 -1.25 -81.7 -0.85 -81.7 M6.45 -64.5 Q4.2 -64.5 4.2 -62.15 4.2 -60.15 6.45 -60.15 8.6 -60.15 8.6 -62.25 8.6 -64.5 6.45 -64.5 M6.9 -75.75 Q6.9 -78.0 4.65 -78.0 2.45 -78.0 2.45 -75.65 2.45 -73.65 4.65 -73.65 6.9 -73.65 6.9 -75.75 M-0.15 -45.45 L3.3 -40.85 Q4.9 -38.6 7.05 -36.1 L7.1 -36.0 8.05 -34.9 10.2 -32.45 10.4 -32.25 Q22.3 -19.2 29.05 -19.2 32.75 -19.2 38.25 -24.65 L38.9 -25.3 39.95 -22.5 42.05 -16.3 Q38.15 -13.55 32.65 -10.75 19.45 -4.1 6.9 -4.1 -30.2 -4.1 -39.8 -7.55 -40.8 -7.9 -44.1 -9.9 -45.25 -10.6 -47.2 -10.85 L-45.55 -19.3 -45.4 -19.9 -45.3 -19.9 Q-41.35 -16.35 -37.6 -16.35 -30.1 -16.35 -13.95 -32.4 -7.85 -38.45 -3.2 -44.2 L-0.75 -47.35 -0.5 -46.8 -0.1 -46.05 -0.15 -45.45 M43.75 -11.0 L44.05 -9.45 44.05 -9.4 44.1 -8.95 44.1 -8.85 44.1 -8.75 44.0 -7.9 44.0 -7.85 Q43.1 -4.55 35.6 -0.5 30.75 2.15 20.3 4.0 -36.05 4.0 -48.15 2.25 L-50.9 1.65 -50.95 1.65 -50.85 1.4 -50.75 1.25 -48.45 -5.6 Q-46.1 -4.5 -42.15 -3.4 -29.2 0.35 -7.95 0.35 15.6 0.35 31.5 -4.85 40.4 -7.75 43.75 -11.0 M6.0 -48.6 Q6.0 -46.55 8.15 -46.55 10.35 -46.55 10.35 -48.65 10.35 -51.0 8.15 -51.0 6.0 -51.0 6.0 -48.6 M-42.75 -37.95 L-42.6 -39.1 -42.35 -40.85 -42.3 -40.95 -42.25 -41.4 -42.15 -42.15 -39.55 -59.1 -39.4 -59.85 -39.4 -59.9 -39.4 -60.0 -39.25 -60.85 -39.2 -61.05 -39.2 -61.2 -39.15 -61.5 -39.1 -61.85 -39.05 -62.0 -39.05 -62.2 -39.0 -62.5 -38.95 -62.6 -38.9 -62.95 -37.35 -69.9 -37.35 -70.0 -34.25 -83.65 Q-25.95 -80.15 -16.0 -80.15 L-9.6 -80.65 Q-8.8 -80.9 -8.35 -81.45 -6.95 -89.2 -6.05 -99.4 -6.35 -93.85 -6.05 -84.55 -6.05 -79.75 -4.6 -67.6 L-4.55 -67.2 -4.5 -66.8 -4.35 -65.7 -4.15 -63.65 -3.55 -57.9 -3.2 -51.8 -3.2 -51.65 -3.2 -51.55 -3.2 -51.4 Q-3.2 -48.85 -17.6 -35.45 -32.8 -21.35 -38.7 -21.35 -40.1 -21.35 -43.0 -24.5 L-44.5 -26.05 -44.35 -26.8 -43.65 -31.45 -43.45 -32.6 -42.8 -37.75 -42.75 -37.95 M-42.7 -28.2 L-42.3 -30.45 -42.7 -28.2 M-0.4 -45.25 L-0.4 -45.4 -0.4 -45.45 -0.6 -44.8 -0.45 -45.0 -0.3 -45.25 -0.4 -45.25" fill="#3f5b9e" fill-rule="evenodd" stroke="none"/>
      <path d="M42.05 -16.3 L42.15 -16.4 42.15 -16.35 42.05 -16.3 M-42.75 -37.95 L-42.8 -37.75 -42.8 -37.8 -42.75 -37.95" fill="#ffec44" fill-rule="evenodd" stroke="none"/>
      <path d="M-43.65 -31.45 L-44.35 -26.8 -43.85 -30.4 -43.75 -31.35 -43.7 -31.5 -43.65 -31.45" fill="#90a446" fill-rule="evenodd" stroke="none"/>
      <path d="M10.9 -127.8 Q18.6 -127.8 20.75 -120.2 21.4 -117.85 21.45 -114.95 L21.35 -112.5 Q18.7 -92.25 11.45 -92.25 L11.4 -92.25 11.15 -92.25 Q10.7 -92.25 9.9 -92.7 L9.4 -92.9 9.4 -93.05 Q7.15 -94.6 2.7 -99.25 L-1.75 -104.0 Q-3.7 -103.35 -6.2 -103.35 -8.65 -103.35 -10.6 -104.2 L-20.0 -94.35 -19.85 -93.95 Q-19.85 -91.65 -22.1 -91.65 -28.35 -91.65 -32.8 -102.3 -35.05 -107.6 -36.05 -113.1 -36.05 -116.75 -34.3 -121.05 -31.6 -127.8 -26.2 -127.8 -16.85 -127.8 -11.15 -120.5 -8.95 -123.05 -7.7 -123.05 -3.85 -123.05 -1.05 -121.1 -0.2 -122.5 1.6 -124.1 5.8 -127.8 10.9 -127.8 M13.1 -123.2 Q7.5 -123.2 4.0 -119.75 L2.2 -117.65 3.65 -114.6 5.6 -114.9 Q8.95 -114.9 8.95 -112.55 8.95 -110.4 5.6 -110.4 L4.05 -110.55 Q3.7 -108.9 2.75 -107.4 L2.55 -107.05 Q6.05 -104.35 11.3 -97.65 L13.1 -100.55 Q16.9 -106.75 16.9 -112.35 16.6 -123.2 13.1 -123.2 M-31.6 -113.15 Q-31.6 -107.1 -25.7 -100.45 L-22.55 -97.35 -19.0 -101.75 Q-16.05 -105.3 -14.1 -106.9 L-14.65 -107.65 Q-15.85 -109.35 -16.35 -111.05 L-17.65 -111.0 Q-21.35 -111.0 -21.35 -113.1 -21.35 -115.4 -17.65 -115.4 L-15.2 -115.1 -13.7 -117.25 -14.45 -117.85 -16.65 -119.95 Q-20.2 -123.05 -25.4 -123.05 -28.8 -123.05 -30.55 -118.2 L-31.6 -113.15 M-7.45 -118.35 L-12.1 -112.2 Q-12.1 -111.7 -10.9 -109.95 -9.5 -107.9 -8.35 -107.9 -0.95 -107.9 -0.1 -112.05 -0.1 -112.8 -2.85 -115.35 -5.7 -117.9 -7.4 -118.45 L-7.45 -118.5 -7.45 -118.35" fill="#000000" fill-rule="evenodd" stroke="none"/>
      <path d="M-31.6 -113.15 L-30.55 -118.2 Q-28.8 -123.05 -25.4 -123.05 -20.2 -123.05 -16.65 -119.95 L-14.45 -117.85 -13.7 -117.25 -15.2 -115.1 -17.65 -115.4 Q-21.35 -115.4 -21.35 -113.1 -21.35 -111.0 -17.65 -111.0 L-16.35 -111.05 Q-15.85 -109.35 -14.65 -107.65 L-14.1 -106.9 Q-16.05 -105.3 -19.0 -101.75 L-22.55 -97.35 -25.7 -100.45 Q-31.6 -107.1 -31.6 -113.15 M13.1 -123.2 Q16.6 -123.2 16.9 -112.35 16.9 -106.75 13.1 -100.55 L11.3 -97.65 Q6.05 -104.35 2.55 -107.05 L2.75 -107.4 Q3.7 -108.9 4.05 -110.55 L5.6 -110.4 Q8.95 -110.4 8.95 -112.55 8.95 -114.9 5.6 -114.9 L3.65 -114.6 2.2 -117.65 4.0 -119.75 Q7.5 -123.2 13.1 -123.2 M-7.4 -118.45 Q-5.7 -117.9 -2.85 -115.35 -0.1 -112.8 -0.1 -112.05 -0.95 -107.9 -8.35 -107.9 -9.5 -107.9 -10.9 -109.95 -12.1 -111.7 -12.1 -112.2 L-7.45 -118.35 -7.4 -118.45" fill="#ffec44" fill-rule="evenodd" stroke="none"/>
    </g>
  </defs>
</svg>
