<?xml version="1.0" encoding="UTF-8" standalone="no"?>
<svg xmlns:xlink="http://www.w3.org/1999/xlink" height="342.0px" width="237.9px" xmlns="http://www.w3.org/2000/svg">
  <g transform="matrix(1, 0, 0, 1, 118.05, 273.9)">
    <use height="151.95" transform="matrix(1.0, 0.0, 0.0, 1.0, -74.1, -140.2)" width="125.7" xlink:href="#shape0"/>
  </g>
  <defs>
    <g id="shape0" transform="matrix(1, 0, 0, 1, 74.1, 140.2)">
      <path d="M23.9 -131.95 Q17.25 -130.2 10.85 -129.0 L16.65 -109.8 19.95 -98.6 20.6 -97.9 20.45 -96.85 Q25.95 -78.5 28.6 -71.25 31.4 -63.65 36.05 -54.15 L43.55 -39.05 Q51.6 -22.0 51.6 -8.65 51.6 -2.85 50.7 -0.45 49.2 3.6 44.15 6.0 32.15 11.75 -9.15 11.75 -43.85 11.75 -50.65 10.55 -52.85 10.2 -53.45 9.35 -54.15 8.4 -55.25 8.0 -60.75 6.0 -60.75 3.5 -60.75 -0.1 -57.7 -0.65 -57.3 -4.95 -53.45 -26.55 L-56.3 -23.75 Q-63.95 -16.55 -64.7 -13.3 L-64.55 -13.1 -65.9 -12.9 Q-66.3 -12.9 -70.2 -24.95 L-74.1 -37.2 Q-74.1 -39.55 -66.95 -42.1 L-67.0 -43.9 Q-67.0 -46.7 -66.2 -49.2 -65.05 -52.9 -62.7 -52.9 -55.6 -52.9 -50.2 -48.8 L-49.5 -48.25 -45.75 -68.5 Q-36.15 -119.65 -32.05 -131.9 L-32.05 -138.6 Q-19.9 -134.55 -2.0 -134.55 8.75 -134.55 24.3 -139.1 L27.95 -140.2 27.95 -133.05 23.9 -131.95 M6.95 -120.0 Q5.2 -126.3 5.15 -128.1 L-3.15 -127.2 -0.25 -122.85 4.15 -114.95 Q5.1 -115.15 7.7 -117.35 L7.45 -118.25 6.95 -120.0 M4.15 -105.8 Q2.8 -105.8 -2.7 -115.55 L-7.25 -123.85 Q-8.0 -121.55 -10.7 -116.65 -14.5 -109.8 -14.7 -107.45 L-15.05 -107.1 Q-15.4 -106.75 -16.85 -106.75 -21.25 -106.75 -25.85 -109.85 -27.8 -111.2 -29.1 -112.6 L-33.55 -86.6 -39.0 -62.5 -41.55 -46.1 Q-39.15 -44.9 -36.0 -43.7 -24.3 -39.2 -7.4 -39.2 6.6 -39.2 18.95 -42.9 24.95 -44.7 30.6 -47.05 15.3 -92.05 9.2 -112.25 L7.5 -109.85 Q4.45 -105.8 4.15 -105.8 M32.15 -42.4 L24.4 -39.4 Q9.55 -34.05 -7.05 -33.7 -23.65 -33.4 -28.0 -34.95 -32.4 -36.55 -38.15 -39.45 L-42.2 -41.75 -42.8 -37.8 -42.8 -37.75 -42.8 -37.4 -42.2 -36.85 Q-40.7 -35.2 -38.8 -34.3 -30.85 -30.6 -3.7 -30.6 10.35 -30.6 22.0 -34.7 27.6 -36.65 33.25 -39.2 L32.15 -42.4 M-43.8 -30.8 L-44.35 -26.8 -45.25 -20.95 Q-48.15 -4.2 -50.95 1.65 L-50.9 1.65 -48.15 2.25 Q-36.05 4.0 20.3 4.0 30.75 2.15 35.6 -0.5 43.1 -4.55 44.0 -7.85 L44.0 -7.9 44.1 -8.75 Q44.1 -11.85 38.0 -27.7 L34.95 -35.4 Q32.35 -33.3 25.1 -30.8 12.0 -26.3 -4.0 -26.3 -34.9 -26.3 -43.55 -30.8 L-43.8 -30.9 -43.8 -30.85 -43.8 -30.8 M-18.4 -115.45 L-14.6 -120.7 -10.2 -126.8 -12.75 -126.8 Q-19.65 -126.8 -26.25 -128.3 L-27.6 -120.95 -28.0 -118.65 -28.15 -117.95 -24.35 -114.6 Q-21.55 -112.25 -20.7 -112.6 L-19.85 -113.05 -19.45 -113.85 -18.8 -114.85 -18.4 -115.45 M-54.55 -40.4 Q-67.95 -37.0 -69.0 -36.3 -67.35 -33.25 -66.8 -28.35 -66.15 -22.05 -65.7 -20.4 -55.65 -32.05 -51.9 -35.0 L-50.75 -41.45 -54.55 -40.4 M-63.5 -44.5 L-63.35 -43.3 -53.7 -45.75 Q-56.9 -48.2 -61.1 -48.2 -63.4 -48.2 -63.5 -44.5" fill="#000000" fill-rule="evenodd" stroke="none"/>
      <path d="M6.95 -120.0 Q5.4 -119.35 5.4 -118.6 L5.45 -118.1 Q5.9 -117.75 6.3 -117.75 6.55 -117.75 7.45 -118.25 L7.7 -117.35 Q5.1 -115.15 4.15 -114.95 L-0.25 -122.85 -3.15 -127.2 5.15 -128.1 Q5.2 -126.3 6.95 -120.0 M32.15 -42.4 L33.25 -39.2 Q27.6 -36.65 22.0 -34.7 10.35 -30.6 -3.7 -30.6 -30.85 -30.6 -38.8 -34.3 -40.7 -35.2 -42.2 -36.85 L-42.8 -37.4 -42.8 -37.75 -42.8 -37.8 -42.2 -41.75 -38.15 -39.45 Q-32.4 -36.55 -28.0 -34.95 -23.65 -33.4 -7.05 -33.7 9.55 -34.05 24.4 -39.4 L32.15 -42.4 M-27.6 -120.95 L-26.25 -128.3 Q-19.65 -126.8 -12.75 -126.8 L-10.2 -126.8 -14.6 -120.7 -18.4 -115.45 -19.8 -116.5 Q-21.0 -117.15 -21.6 -117.15 L-22.5 -116.3 Q-20.35 -114.5 -19.35 -114.5 -19.2 -114.5 -18.8 -114.85 L-19.45 -113.85 -19.85 -113.05 -20.7 -112.6 Q-21.55 -112.25 -24.35 -114.6 L-28.15 -117.95 -28.0 -118.65 Q-26.7 -117.75 -25.55 -117.75 L-24.9 -118.05 -24.8 -118.7 -25.7 -119.6 -27.6 -120.95 M-63.5 -44.5 Q-63.4 -48.2 -61.1 -48.2 -56.9 -48.2 -53.7 -45.75 L-63.35 -43.3 -63.5 -44.5 M-54.55 -40.4 L-50.75 -41.45 -51.9 -35.0 Q-55.65 -32.05 -65.7 -20.4 -66.15 -22.05 -66.8 -28.35 -67.35 -33.25 -69.0 -36.3 -67.95 -37.0 -54.55 -40.4" fill="#ffffff" fill-rule="evenodd" stroke="none"/>
      <path d="M-43.55 -30.8 L-43.8 -30.8 -43.8 -30.85 -43.55 -30.8" fill="#ca52e9" fill-rule="evenodd" stroke="none"/>
      <path d="M4.15 -105.8 Q4.45 -105.8 7.5 -109.85 L9.2 -112.25 Q15.3 -92.05 30.6 -47.05 24.95 -44.7 18.95 -42.9 6.6 -39.2 -7.4 -39.2 -24.3 -39.2 -36.0 -43.7 -39.15 -44.9 -41.55 -46.1 L-39.0 -62.5 -33.55 -86.6 -29.1 -112.6 Q-27.8 -111.2 -25.85 -109.85 -21.25 -106.75 -16.85 -106.75 -15.4 -106.75 -15.05 -107.1 L-14.7 -107.45 Q-14.5 -109.8 -10.7 -116.65 -8.0 -121.55 -7.25 -123.85 L-2.7 -115.55 Q2.8 -105.8 4.15 -105.8 M-43.55 -30.8 Q-34.9 -26.3 -4.0 -26.3 12.0 -26.3 25.1 -30.8 32.35 -33.3 34.95 -35.4 L38.0 -27.7 Q44.1 -11.85 44.1 -8.75 L44.0 -7.9 44.0 -7.85 Q43.1 -4.55 35.6 -0.5 30.75 2.15 20.3 4.0 -36.05 4.0 -48.15 2.25 L-50.9 1.65 -50.95 1.65 Q-48.15 -4.2 -45.25 -20.95 L-44.35 -26.8 -43.8 -30.8 -43.55 -30.8" fill="#9b76d6" fill-rule="evenodd" stroke="none"/>
      <path d="M7.45 -118.25 Q6.55 -117.75 6.3 -117.75 5.9 -117.75 5.45 -118.1 L5.4 -118.6 Q5.4 -119.35 6.95 -120.0 L7.45 -118.25 M-27.6 -120.95 L-25.7 -119.6 -24.8 -118.7 -24.9 -118.05 -25.55 -117.75 Q-26.7 -117.75 -28.0 -118.65 L-27.6 -120.95 M-18.8 -114.85 Q-19.2 -114.5 -19.35 -114.5 -20.35 -114.5 -22.5 -116.3 L-21.6 -117.15 Q-21.0 -117.15 -19.8 -116.5 L-18.4 -115.45 -18.8 -114.85" fill="#d50000" fill-rule="evenodd" stroke="none"/>
      <path d="M1.75 -121.1 Q5.9 -117.75 5.9 -117.3 5.9 -116.35 3.35 -112.75 0.25 -108.4 -2.65 -108.35 -4.15 -108.35 -4.6 -108.8 -4.7 -110.2 -6.75 -114.6 L-7.25 -115.6 -7.7 -114.6 Q-9.8 -110.2 -9.9 -108.8 -10.35 -108.35 -11.85 -108.35 -14.75 -108.4 -17.85 -112.75 -20.4 -116.35 -20.4 -117.3 -20.4 -117.75 -16.2 -121.1 L-12.1 -124.1 -12.15 -124.8 Q-12.15 -126.65 -10.95 -128.0 -9.6 -129.5 -7.4 -129.5 L-7.25 -129.5 -7.05 -129.5 Q-4.9 -129.5 -3.55 -128.0 -2.35 -126.65 -2.35 -124.8 L-2.35 -124.1 1.75 -121.1 M-3.6 -121.0 Q-4.3 -120.3 -5.4 -119.9 L-3.75 -117.15 -1.6 -112.5 Q0.2 -113.75 2.4 -116.6 L-1.75 -119.45 -3.6 -121.0 M-8.4 -125.95 L-8.4 -126.25 -9.05 -125.75 Q-9.05 -125.15 -9.2 -124.95 L-8.85 -123.55 Q-8.65 -123.1 -7.25 -122.9 -5.85 -123.1 -5.6 -123.55 L-5.25 -124.95 -5.4 -125.75 Q-5.55 -126.15 -6.05 -126.25 L-6.05 -125.95 -7.25 -126.25 -8.4 -125.95 M-16.85 -116.6 Q-14.7 -113.75 -12.9 -112.5 L-10.75 -117.15 -9.1 -119.9 Q-10.2 -120.3 -10.9 -121.0 L-12.75 -119.45 -16.85 -116.6 M-5.55 -96.75 Q-3.85 -96.75 -2.6 -95.35 -1.35 -93.95 -1.35 -92.0 L-1.35 -91.85 Q-1.4 -90.0 -2.6 -88.65 -3.85 -87.3 -5.55 -87.3 -7.3 -87.3 -8.5 -88.65 -9.7 -90.0 -9.75 -91.85 L-9.75 -92.0 Q-9.75 -93.95 -8.5 -95.35 -7.3 -96.75 -5.55 -96.75 M-5.45 -90.45 Q-4.95 -90.5 -4.55 -90.85 -4.2 -91.25 -4.15 -91.8 L-4.15 -91.85 Q-4.2 -92.35 -4.55 -92.7 -4.95 -93.1 -5.45 -93.1 -6.0 -93.1 -6.4 -92.7 -6.8 -92.35 -6.8 -91.85 L-6.8 -91.8 Q-6.8 -91.25 -6.4 -90.85 -6.0 -90.5 -5.45 -90.45 M-5.55 -82.65 Q-3.85 -82.65 -2.6 -81.25 -1.35 -79.85 -1.35 -77.9 -1.35 -75.95 -2.6 -74.55 -3.85 -73.2 -5.55 -73.2 -7.3 -73.2 -8.5 -74.55 -9.75 -75.95 -9.75 -77.9 -9.75 -79.85 -8.5 -81.25 -7.3 -82.65 -5.55 -82.65 M-6.8 -77.7 Q-6.8 -77.15 -6.4 -76.75 -6.0 -76.4 -5.45 -76.35 -4.95 -76.4 -4.55 -76.75 -4.2 -77.15 -4.15 -77.7 -4.2 -78.25 -4.55 -78.6 -4.95 -79.0 -5.45 -79.0 -6.0 -79.0 -6.4 -78.6 -6.8 -78.25 -6.8 -77.7 M-5.45 -62.25 Q-4.95 -62.3 -4.55 -62.65 -4.2 -63.05 -4.15 -63.6 -4.2 -64.15 -4.55 -64.5 -4.95 -64.9 -5.45 -64.9 -6.0 -64.9 -6.4 -64.5 -6.8 -64.15 -6.8 -63.6 -6.8 -63.05 -6.4 -62.65 -6.0 -62.3 -5.45 -62.25 M-8.5 -67.15 Q-7.3 -68.55 -5.55 -68.55 -3.85 -68.55 -2.6 -67.15 -1.35 -65.75 -1.35 -63.8 -1.35 -61.85 -2.6 -60.45 -3.85 -59.1 -5.55 -59.1 -7.3 -59.1 -8.5 -60.45 -9.75 -61.85 -9.75 -63.8 -9.75 -65.75 -8.5 -67.15" fill="#000000" fill-rule="evenodd" stroke="none"/>
      <path d="M-8.4 -125.95 L-7.25 -126.25 -6.05 -125.95 -6.05 -126.25 Q-5.55 -126.15 -5.4 -125.75 L-5.25 -124.95 -5.6 -123.55 Q-5.85 -123.1 -7.25 -122.9 -8.65 -123.1 -8.85 -123.55 L-9.2 -124.95 Q-9.05 -125.15 -9.05 -125.75 L-8.4 -126.25 -8.4 -125.95 M-3.6 -121.0 L-1.75 -119.45 2.4 -116.6 Q0.2 -113.75 -1.6 -112.5 L-3.75 -117.15 -5.4 -119.9 Q-4.3 -120.3 -3.6 -121.0 M-16.85 -116.6 L-12.75 -119.45 -10.9 -121.0 Q-10.2 -120.3 -9.1 -119.9 L-10.75 -117.15 -12.9 -112.5 Q-14.7 -113.75 -16.85 -116.6" fill="#d50000" fill-rule="evenodd" stroke="none"/>
      <path d="M-5.45 -90.45 Q-6.0 -90.5 -6.4 -90.85 -6.8 -91.25 -6.8 -91.8 L-6.8 -91.85 Q-6.8 -92.35 -6.4 -92.7 -6.0 -93.1 -5.45 -93.1 -4.95 -93.1 -4.55 -92.7 -4.2 -92.35 -4.15 -91.85 L-4.15 -91.8 Q-4.2 -91.25 -4.55 -90.85 -4.95 -90.5 -5.45 -90.45 M-5.45 -62.25 Q-6.0 -62.3 -6.4 -62.65 -6.8 -63.05 -6.8 -63.6 -6.8 -64.15 -6.4 -64.5 -6.0 -64.9 -5.45 -64.9 -4.95 -64.9 -4.55 -64.5 -4.2 -64.15 -4.15 -63.6 -4.2 -63.05 -4.55 -62.65 -4.95 -62.3 -5.45 -62.25 M-6.8 -77.7 Q-6.8 -78.25 -6.4 -78.6 -6.0 -79.0 -5.45 -79.0 -4.95 -79.0 -4.55 -78.6 -4.2 -78.25 -4.15 -77.7 -4.2 -77.15 -4.55 -76.75 -4.95 -76.4 -5.45 -76.35 -6.0 -76.4 -6.4 -76.75 -6.8 -77.15 -6.8 -77.7" fill="#ffffff" fill-rule="evenodd" stroke="none"/>
    </g>
  </defs>
</svg>
