<?xml version="1.0" encoding="UTF-8" standalone="no"?>
<svg xmlns:xlink="http://www.w3.org/1999/xlink" height="342.0px" width="237.9px" xmlns="http://www.w3.org/2000/svg">
  <g transform="matrix(1, 0, 0, 1, 118.05, 273.9)">
    <use height="151.95" transform="matrix(1.0, 0.0, 0.0, 1.0, -60.75, -140.2)" width="112.35" xlink:href="#shape0"/>
  </g>
  <defs>
    <g id="shape0" transform="matrix(1, 0, 0, 1, 60.75, 140.2)">
      <path d="M0.95 -61.85 Q3.3 -60.0 5.0 -57.5 L1.0 -55.45 0.95 -61.85 M6.0 -71.25 Q2.45 -70.8 0.85 -69.45 L1.0 -75.0 Q3.95 -73.0 6.0 -71.25 M3.25 -85.5 L0.95 -83.1 0.65 -88.6 Q2.75 -86.85 3.25 -85.5 M6.3 -122.45 L9.8 -110.25 6.3 -107.3 -1.1 -113.4 6.3 -122.45 M0.95 -0.65 Q18.15 -1.6 31.95 -4.75 39.9 -6.55 44.05 -8.25 L44.0 -7.9 44.0 -7.85 Q43.1 -4.55 35.6 -0.5 30.75 2.15 20.3 4.0 L-0.2 3.95 0.7 0.5 0.95 -0.65 M4.0 -17.75 L1.95 -15.55 1.65 -19.35 5.95 -19.8 4.0 -17.75 M3.8 -41.65 L0.15 -41.1 0.65 -45.1 Q2.35 -43.0 3.8 -41.65 M-26.7 -124.05 L-15.2 -114.85 Q-2.1 -104.45 1.8 -102.65 L-1.6 -98.65 Q-21.55 -114.9 -27.75 -116.55 L-26.7 -124.05 M-11.0 -55.0 L-10.25 -56.5 Q-8.95 -57.8 -6.95 -58.7 L-6.95 -52.2 Q-9.5 -53.5 -11.0 -55.0 M-6.95 -74.15 L-6.8 -68.2 -11.25 -71.5 Q-9.65 -73.1 -6.95 -74.15 M-10.0 -85.75 Q-9.0 -86.75 -6.65 -88.45 L-6.95 -83.0 -10.0 -85.75 M-14.5 -0.25 L-6.9 -0.35 -6.8 2.45 -6.45 3.9 -48.15 2.25 -50.9 1.65 -50.95 1.65 Q-49.95 -0.5 -48.9 -4.05 -40.0 -0.25 -14.5 -0.25 M-5.55 -16.15 L-8.35 -19.4 -5.0 -19.3 -5.55 -16.15 M-6.5 -43.75 L-6.0 -40.45 -11.05 -40.25 -6.5 -43.75" fill="#ffffff" fill-rule="evenodd" stroke="none"/>
      <path d="M-44.2 -27.7 L-44.35 -26.8 -44.25 -27.75 -44.2 -27.7" fill="#90a446" fill-rule="evenodd" stroke="none"/>
      <path d="M27.95 -140.2 L27.95 -133.05 23.9 -131.95 Q17.25 -130.2 10.85 -129.0 L17.65 -106.3 18.5 -103.45 19.95 -98.45 19.85 -98.6 Q25.95 -78.5 28.6 -71.25 31.4 -63.65 36.05 -54.15 L43.55 -39.05 Q51.6 -22.0 51.6 -8.65 51.6 -2.85 50.7 -0.45 49.2 3.6 44.15 6.0 32.15 11.75 -9.15 11.75 -43.85 11.75 -50.65 10.55 -52.85 10.2 -53.45 9.35 -54.15 8.4 -55.25 8.0 -60.75 6.0 -60.75 3.5 -60.75 -0.1 -57.7 -0.65 -57.05 -8.2 -45.75 -68.5 -36.15 -119.65 -32.05 -131.9 L-32.05 -138.6 Q-19.9 -134.55 -2.0 -134.55 8.75 -134.55 24.3 -139.1 L27.95 -140.2 M11.9 -43.15 L17.65 -44.5 30.45 -47.55 Q18.65 -82.15 12.4 -102.0 L9.5 -99.25 5.55 -95.6 Q7.8 -94.25 9.55 -91.2 11.75 -87.3 11.75 -85.35 11.75 -84.05 9.0 -79.75 12.65 -77.35 13.45 -75.6 13.75 -74.9 13.75 -72.25 13.75 -71.65 12.0 -68.6 10.25 -65.55 10.25 -64.0 10.25 -62.75 11.5 -61.0 12.75 -59.25 12.75 -58.0 12.75 -55.05 12.0 -53.9 L7.25 -49.0 Q11.75 -48.3 11.75 -43.75 L11.75 -43.15 11.9 -43.15 M6.3 -122.45 L-1.1 -113.4 6.3 -107.3 9.8 -110.25 6.3 -122.45 M3.25 -85.5 Q2.75 -86.85 0.65 -88.6 L0.95 -83.1 3.25 -85.5 M6.0 -71.25 Q3.95 -73.0 1.0 -75.0 L0.85 -69.45 Q2.45 -70.8 6.0 -71.25 M0.95 -61.85 L1.0 -55.45 5.0 -57.5 Q3.3 -60.0 0.95 -61.85 M37.4 -29.2 Q33.3 -27.15 25.2 -24.55 L14.75 -21.55 14.75 -19.0 Q14.75 -15.55 11.8 -11.5 L10.05 -9.5 Q18.35 -10.4 24.3 -11.85 L33.9 -14.55 42.35 -15.7 38.0 -27.7 37.4 -29.2 M31.65 -35.25 L34.6 -36.3 34.15 -37.45 33.95 -37.15 32.8 -40.65 Q27.5 -38.85 18.2 -36.75 -2.1 -32.25 -12.5 -32.25 -22.2 -32.25 -35.0 -36.75 L-42.5 -39.65 -42.8 -37.8 -42.8 -37.75 -43.0 -35.7 Q-40.15 -35.45 -36.7 -34.4 L-28.2 -31.5 Q-15.6 -27.25 -1.85 -27.25 10.4 -27.25 23.4 -32.0 L31.65 -35.25 M3.8 -41.65 Q2.35 -43.0 0.65 -45.1 L0.15 -41.1 3.8 -41.65 M4.0 -17.75 L5.95 -19.8 1.65 -19.35 1.95 -15.55 4.0 -17.75 M0.95 -0.65 L0.7 0.5 -0.2 3.95 20.3 4.0 Q30.75 2.15 35.6 -0.5 43.1 -4.55 44.0 -7.85 L44.0 -7.9 44.05 -8.25 Q39.9 -6.55 31.95 -4.75 18.15 -1.6 0.95 -0.65 M-0.95 -127.35 L-12.75 -126.8 -18.4 -127.05 -6.35 -117.65 Q-5.6 -120.05 -3.5 -123.7 L-0.95 -127.35 M-26.7 -124.05 L-27.75 -116.55 Q-21.55 -114.9 -1.6 -98.65 L1.8 -102.65 Q-2.1 -104.45 -15.2 -114.85 L-26.7 -124.05 M-18.75 -41.5 Q-18.75 -42.75 -17.6 -44.85 -16.5 -47.0 -16.5 -48.25 -16.5 -49.5 -17.6 -51.4 -18.75 -53.35 -18.75 -54.6 L-18.5 -58.3 Q-18.0 -59.7 -15.0 -63.25 -15.95 -66.2 -17.55 -68.1 -18.75 -69.5 -18.75 -71.1 -18.75 -72.15 -17.0 -75.25 -15.25 -78.35 -15.25 -79.0 -15.25 -80.25 -16.5 -82.55 -17.75 -84.85 -17.75 -86.1 -17.75 -88.75 -14.8 -92.5 -13.3 -94.35 -11.8 -95.4 -18.9 -99.75 -29.0 -108.5 -30.2 -100.95 -32.75 -90.25 L-39.0 -62.5 -41.45 -46.7 Q-38.55 -46.45 -28.95 -43.5 -23.3 -41.75 -18.85 -40.95 L-18.65 -40.9 -18.75 -41.5 M-10.0 -85.75 L-6.95 -83.0 -6.65 -88.45 Q-9.0 -86.75 -10.0 -85.75 M-6.95 -74.15 Q-9.65 -73.1 -11.25 -71.5 L-6.8 -68.2 -6.95 -74.15 M-11.0 -55.0 Q-9.5 -53.5 -6.95 -52.2 L-6.95 -58.7 Q-8.95 -57.8 -10.25 -56.5 L-11.0 -55.0 M-44.0 -27.55 L-44.2 -27.7 -44.25 -27.75 -44.35 -26.8 -45.25 -20.95 -46.9 -12.2 -45.0 -11.7 Q-40.8 -10.6 -35.25 -10.25 -30.5 -9.95 -27.35 -8.95 -24.45 -8.0 -23.75 -8.0 -17.05 -8.0 -11.1 -8.15 -15.0 -9.65 -17.05 -13.5 -18.65 -16.65 -18.75 -20.25 -29.75 -21.6 -38.05 -24.8 -41.5 -26.1 -44.0 -27.55 M-6.5 -43.75 L-11.05 -40.25 -6.0 -40.45 -6.5 -43.75 M-5.55 -16.15 L-5.0 -19.3 -8.35 -19.4 -5.55 -16.15 M-14.5 -0.25 Q-40.0 -0.25 -48.9 -4.05 -49.95 -0.5 -50.95 1.65 L-50.9 1.65 -48.15 2.25 -6.45 3.9 -6.8 2.45 -6.9 -0.35 -14.5 -0.25" fill="#000000" fill-rule="evenodd" stroke="none"/>
      <path d="M11.75 -43.75 Q11.75 -48.3 7.25 -49.0 L12.0 -53.9 Q12.75 -55.05 12.75 -58.0 12.75 -59.25 11.5 -61.0 10.25 -62.75 10.25 -64.0 10.25 -65.55 12.0 -68.6 13.75 -71.65 13.75 -72.25 13.75 -74.9 13.45 -75.6 12.65 -77.35 9.0 -79.75 11.75 -84.05 11.75 -85.35 11.75 -87.3 9.55 -91.2 7.8 -94.25 5.55 -95.6 L9.5 -99.25 12.4 -102.0 Q18.65 -82.15 30.45 -47.55 L17.65 -44.5 11.9 -43.15 11.75 -43.75 M37.4 -29.2 L38.0 -27.7 42.35 -15.7 33.9 -14.55 24.3 -11.85 Q18.35 -10.4 10.05 -9.5 L11.8 -11.5 Q14.75 -15.55 14.75 -19.0 L14.75 -21.55 25.2 -24.55 Q33.3 -27.15 37.4 -29.2 M-18.85 -40.95 Q-23.3 -41.75 -28.95 -43.5 -38.55 -46.45 -41.45 -46.7 L-39.0 -62.5 -32.75 -90.25 Q-30.2 -100.95 -29.0 -108.5 -18.9 -99.75 -11.8 -95.4 -13.3 -94.35 -14.8 -92.5 -17.75 -88.75 -17.75 -86.1 -17.75 -84.85 -16.5 -82.55 -15.25 -80.25 -15.25 -79.0 -15.25 -78.35 -17.0 -75.25 -18.75 -72.15 -18.75 -71.1 -18.75 -69.5 -17.55 -68.1 -15.95 -66.2 -15.0 -63.25 -18.0 -59.7 -18.5 -58.3 L-18.75 -54.6 Q-18.75 -53.35 -17.6 -51.4 -16.5 -49.5 -16.5 -48.25 -16.5 -47.0 -17.6 -44.85 -18.75 -42.75 -18.75 -41.5 L-18.85 -40.95 M-44.35 -26.8 L-44.0 -27.55 Q-41.5 -26.1 -38.05 -24.8 -29.75 -21.6 -18.75 -20.25 -18.65 -16.65 -17.05 -13.5 -15.0 -9.65 -11.1 -8.15 -17.05 -8.0 -23.75 -8.0 -24.45 -8.0 -27.35 -8.95 -30.5 -9.95 -35.25 -10.25 -40.8 -10.6 -45.0 -11.7 L-46.9 -12.2 -45.25 -20.95 -44.35 -26.8" fill="#b4e1fe" fill-rule="evenodd" stroke="none"/>
      <path d="M31.65 -35.25 L23.4 -32.0 Q10.4 -27.25 -1.85 -27.25 -15.6 -27.25 -28.2 -31.5 L-36.7 -34.4 Q-40.15 -35.45 -43.0 -35.7 L-42.8 -37.75 -42.8 -37.8 -42.5 -39.65 -35.0 -36.75 Q-22.2 -32.25 -12.5 -32.25 -2.1 -32.25 18.2 -36.75 27.5 -38.85 32.8 -40.65 L33.95 -37.15 34.15 -37.45 34.6 -36.3 31.65 -35.25" fill="#048eea" fill-rule="evenodd" stroke="none"/>
      <path d="M-0.95 -127.35 L-3.5 -123.7 Q-5.6 -120.05 -6.35 -117.65 L-18.4 -127.05 -12.75 -126.8 -0.95 -127.35" fill="#fff1dd" fill-rule="evenodd" stroke="none"/>
    </g>
  </defs>
</svg>
