<?xml version="1.0" encoding="UTF-8" standalone="no"?>
<svg xmlns:xlink="http://www.w3.org/1999/xlink" height="342.0px" width="237.9px" xmlns="http://www.w3.org/2000/svg">
  <g transform="matrix(1, 0, 0, 1, 118.05, 273.9)">
    <use height="151.95" transform="matrix(1.0, 0.0, 0.0, 1.0, -60.75, -140.2)" width="112.35" xlink:href="#shape0"/>
  </g>
  <defs>
    <g id="shape0" transform="matrix(1, 0, 0, 1, 60.75, 140.2)">
      <path d="M23.9 -131.95 Q17.25 -130.2 10.85 -129.0 L16.65 -109.8 20.5 -96.9 20.45 -96.85 22.85 -89.0 Q26.55 -76.8 28.6 -71.25 31.4 -63.65 36.05 -54.15 L43.55 -39.05 Q51.6 -22.0 51.6 -8.65 51.6 -2.85 50.7 -0.45 49.2 3.6 44.15 6.0 32.15 11.75 -9.15 11.75 -43.85 11.75 -50.65 10.55 -52.85 10.2 -53.45 9.35 -54.15 8.4 -55.25 8.0 -60.75 6.0 -60.75 3.5 -60.75 -0.1 -57.7 -0.65 -57.05 -8.2 -45.75 -68.5 L-41.8 -89.0 -40.2 -97.0 Q-34.85 -123.55 -32.05 -131.9 L-32.05 -138.6 Q-19.9 -134.55 -2.0 -134.55 8.75 -134.55 24.3 -139.1 L27.95 -140.2 27.95 -133.05 23.9 -131.95 M8.45 -114.85 Q5.25 -125.65 5.15 -128.1 L-3.0 -127.2 -4.7 -127.05 -5.7 -127.0 -5.7 -126.9 -4.75 -125.6 0.25 -118.6 Q4.35 -112.9 8.0 -109.2 8.6 -110.45 9.65 -110.85 L8.85 -113.4 8.45 -114.85 M11.55 -103.1 Q9.25 -100.5 7.8 -100.5 L-0.4 -111.05 -0.4 -92.75 -0.2 -92.7 0.3 -92.9 Q11.3 -88.85 17.5 -86.25 L16.6 -89.0 14.0 -97.0 11.9 -103.5 11.55 -103.1 M25.25 -45.3 L26.7 -45.9 Q27.95 -46.15 29.8 -47.5 L30.35 -47.85 Q24.0 -66.4 19.3 -80.7 16.45 -81.55 10.0 -84.4 4.1 -87.0 0.9 -88.75 L-5.3 -81.85 Q-4.8 -78.55 -5.1 -71.8 -5.1 -61.55 -5.25 -52.65 -5.3 -48.4 -4.8 -43.15 L8.25 -43.15 Q7.7 -41.7 7.65 -40.0 L-4.45 -39.65 -9.8 -39.65 -10.05 -39.65 Q-35.6 -39.65 -41.4 -42.6 L-42.0 -42.95 -42.8 -37.8 -42.8 -37.7 -42.9 -36.7 -43.0 -35.7 -42.95 -36.05 -23.7 -34.5 -15.15 -34.1 -13.2 -34.05 -10.0 -33.95 -3.65 -33.75 9.3 -34.25 10.5 -32.85 Q11.45 -31.9 12.55 -31.25 L-3.1 -30.4 -3.15 -30.4 Q-1.8 -22.15 0.1 -15.45 2.4 -7.15 8.7 4.0 L20.3 4.0 Q30.75 2.15 35.6 -0.5 43.1 -4.55 44.0 -7.85 L44.0 -7.9 44.1 -8.75 Q44.1 -11.85 38.0 -27.7 L34.5 -36.55 Q32.85 -35.25 29.8 -34.25 27.4 -33.45 24.15 -32.8 L24.2 -32.85 Q26.15 -34.8 26.8 -37.35 30.3 -38.35 32.35 -39.65 L33.0 -40.05 31.6 -44.15 Q29.85 -43.1 26.7 -42.3 26.25 -43.95 25.25 -45.3 M11.4 -43.2 L15.45 -43.35 16.35 -40.65 10.55 -40.2 Q10.6 -41.85 11.4 -43.2 M16.85 -43.4 L18.25 -43.6 22.35 -44.4 22.4 -44.4 Q23.45 -43.2 23.85 -41.7 L17.95 -40.8 16.85 -43.4 M23.0 -36.25 L22.1 -35.15 20.8 -34.1 20.25 -35.4 21.0 -35.85 23.0 -36.25 M13.1 -34.65 L16.55 -35.1 16.55 -35.05 16.85 -34.35 17.55 -34.2 18.6 -34.6 19.1 -33.35 17.3 -33.15 Q14.9 -33.15 13.1 -34.65 M1.7 0.5 L1.4 -0.15 1.1 -0.85 Q-2.65 -9.5 -4.5 -18.2 L-6.35 -26.55 Q-7.7 -7.85 -10.4 0.5 L-10.95 1.95 -11.8 3.85 3.45 3.95 2.35 1.85 1.7 0.5 M-28.6 -115.55 L-28.95 -113.4 -28.45 -112.8 -26.3 -109.3 Q-25.5 -109.9 -17.45 -120.15 L-12.1 -126.8 -12.75 -126.8 -13.35 -126.8 -15.05 -126.85 Q-20.75 -127.05 -26.25 -128.3 L-28.2 -117.65 -28.6 -115.55 M-15.3 -112.5 Q-20.0 -106.55 -22.65 -103.5 L-21.55 -100.65 -19.2 -94.3 -19.2 -92.7 -16.5 -92.9 -14.7 -92.8 -14.8 -94.6 -15.3 -109.8 -15.25 -112.5 -15.25 -112.55 -15.3 -112.5 M-25.9 -100.5 Q-28.0 -100.5 -30.65 -104.0 L-31.85 -97.0 -33.2 -89.0 -33.55 -86.6 -39.0 -62.5 -41.45 -46.6 -38.45 -45.35 Q-34.1 -43.45 -19.2 -43.25 L-9.7 -43.15 -8.35 -81.6 -14.45 -89.0 -16.5 -89.0 Q-20.9 -89.0 -21.5 -89.85 L-21.65 -90.3 Q-22.45 -91.6 -24.1 -96.5 L-25.5 -100.65 Q-25.75 -100.5 -25.9 -100.5 M-5.9 -115.25 Q-5.9 -114.45 -6.45 -113.85 -7.05 -113.3 -7.85 -113.3 -8.65 -113.3 -9.2 -113.85 -9.8 -114.45 -9.8 -115.25 -9.8 -116.05 -9.2 -116.6 -8.65 -117.2 -7.85 -117.2 -7.05 -117.2 -6.45 -116.6 -5.9 -116.05 -5.9 -115.25 M-8.5 -121.55 L-11.4 -117.55 -11.4 -92.05 Q-9.75 -90.65 -6.9 -86.8 -5.35 -87.35 -3.5 -90.5 L-3.7 -93.6 -4.2 -108.25 -4.25 -116.05 -8.5 -121.55 M-6.45 -95.3 Q-5.9 -94.75 -5.9 -93.95 -5.9 -93.15 -6.45 -92.55 -7.05 -92.0 -7.85 -92.0 -8.65 -92.0 -9.2 -92.55 -9.8 -93.15 -9.8 -93.95 -9.8 -94.75 -9.2 -95.3 -8.65 -95.9 -7.85 -95.9 -7.05 -95.9 -6.45 -95.3 M-9.2 -103.2 Q-9.8 -103.8 -9.8 -104.6 -9.8 -105.4 -9.2 -105.95 -8.65 -106.55 -7.85 -106.55 -7.05 -106.55 -6.45 -105.95 -5.9 -105.4 -5.9 -104.6 -5.9 -103.8 -6.45 -103.2 -7.05 -102.65 -7.85 -102.65 -8.65 -102.65 -9.2 -103.2 M-13.2 -62.0 L-12.9 -62.75 Q-12.6 -63.1 -12.1 -63.1 -11.65 -63.1 -11.35 -62.75 L-11.0 -62.0 Q-11.05 -61.55 -11.35 -61.2 -11.65 -60.9 -12.1 -60.9 -12.6 -60.9 -12.9 -61.2 L-13.2 -62.0 M-11.4 -75.1 Q-11.9 -75.1 -12.2 -75.4 L-12.5 -76.2 -12.2 -76.95 Q-11.9 -77.3 -11.4 -77.3 -10.95 -77.3 -10.65 -76.95 L-10.3 -76.2 Q-10.35 -75.75 -10.65 -75.4 -10.95 -75.1 -11.4 -75.1 M-43.7 -31.45 L-44.35 -26.8 -45.25 -20.95 Q-48.15 -4.2 -50.95 1.65 L-50.9 1.65 -48.15 2.25 -16.1 3.75 Q-12.4 -1.4 -11.15 -16.1 L-10.15 -30.3 -13.55 -30.3 Q-35.4 -30.3 -43.45 -32.6 L-43.65 -31.45 -43.7 -31.45 -43.7 -31.5 -43.7 -31.45 M-15.9 -5.2 Q-15.95 -4.75 -16.25 -4.4 -16.55 -4.1 -17.0 -4.1 -17.5 -4.1 -17.8 -4.4 L-18.1 -5.2 -17.8 -5.95 Q-17.5 -6.3 -17.0 -6.3 -16.55 -6.3 -16.25 -5.95 L-15.9 -5.2 M-14.5 -20.15 L-14.15 -19.4 Q-14.2 -18.95 -14.5 -18.6 -14.8 -18.3 -15.25 -18.3 -15.75 -18.3 -16.05 -18.6 L-16.35 -19.4 -16.05 -20.15 Q-15.75 -20.5 -15.25 -20.5 -14.8 -20.5 -14.5 -20.15 M-12.4 -47.0 Q-12.7 -46.7 -13.15 -46.7 -13.65 -46.7 -13.95 -47.0 L-14.25 -47.8 -13.95 -48.55 Q-13.65 -48.9 -13.15 -48.9 -12.7 -48.9 -12.4 -48.55 L-12.05 -47.8 Q-12.1 -47.35 -12.4 -47.0" fill="#000000" fill-rule="evenodd" stroke="none"/>
      <path d="M8.45 -114.85 L7.2 -114.15 Q5.65 -116.6 4.95 -116.6 4.2 -116.6 4.2 -115.7 4.2 -115.35 5.45 -113.7 6.8 -111.9 7.65 -111.9 L8.85 -113.4 9.65 -110.85 Q8.6 -110.45 8.0 -109.2 4.35 -112.9 0.25 -118.6 L-4.75 -125.6 -5.7 -126.9 -5.7 -127.0 -4.7 -127.05 Q-2.6 -123.05 -1.65 -123.05 -0.9 -123.05 -0.75 -123.75 -0.95 -124.45 -2.1 -126.1 L-3.0 -127.2 5.15 -128.1 Q5.25 -125.65 8.45 -114.85 M2.25 -120.45 Q1.2 -121.95 0.45 -121.95 -0.2 -121.95 -0.2 -121.25 1.25 -117.75 2.45 -117.75 3.3 -117.75 3.3 -118.4 L2.25 -120.45 M11.55 -103.1 L11.9 -103.5 14.0 -97.0 16.6 -89.0 17.5 -86.25 Q11.3 -88.85 0.3 -92.9 L-0.2 -92.7 -0.4 -92.75 -0.4 -111.05 7.8 -100.5 Q9.25 -100.5 11.55 -103.1 M-10.4 0.5 Q-7.7 -7.85 -6.35 -26.55 L-4.5 -18.2 Q-2.65 -9.5 1.1 -0.85 L1.4 -0.15 1.7 0.5 1.35 0.45 Q-0.2 0.65 -0.2 1.1 -0.55 1.95 1.35 1.95 L2.35 1.85 3.45 3.95 -11.8 3.85 -10.95 1.95 -9.85 1.95 Q-7.8 1.95 -7.8 1.1 -7.8 0.45 -9.85 0.45 L-10.4 0.5 M-13.35 -126.8 L-12.75 -126.8 -12.1 -126.8 -17.45 -120.15 Q-25.5 -109.9 -26.3 -109.3 L-28.45 -112.8 -28.95 -113.4 -28.6 -115.55 -28.55 -115.5 -26.55 -113.45 -26.55 -113.25 -26.1 -113.15 -25.85 -113.1 -25.75 -113.1 -25.7 -113.1 -25.65 -113.1 -25.1 -113.65 -22.2 -116.9 -23.1 -117.45 Q-25.0 -116.1 -25.9 -115.15 L-27.35 -116.8 -28.2 -117.65 -26.25 -128.3 Q-20.75 -127.05 -15.05 -126.85 L-15.15 -126.7 -15.75 -125.75 Q-15.75 -125.05 -15.0 -124.8 -13.5 -126.1 -13.35 -126.8 M-15.25 -112.5 L-15.3 -109.8 -14.8 -94.6 -14.7 -92.8 -16.5 -92.9 -19.2 -92.7 -19.2 -94.3 -21.55 -100.65 -22.65 -103.5 Q-20.0 -106.55 -15.3 -112.5 L-15.25 -112.5 M-5.9 -115.25 Q-5.9 -116.05 -6.45 -116.6 -7.05 -117.2 -7.85 -117.2 -8.65 -117.2 -9.2 -116.6 -9.8 -116.05 -9.8 -115.25 -9.8 -114.45 -9.2 -113.85 -8.65 -113.3 -7.85 -113.3 -7.05 -113.3 -6.45 -113.85 -5.9 -114.45 -5.9 -115.25 M-8.5 -121.55 L-4.25 -116.05 -4.2 -108.25 -3.7 -93.6 -3.5 -90.5 Q-5.35 -87.35 -6.9 -86.8 -9.75 -90.65 -11.4 -92.05 L-11.4 -117.55 -8.5 -121.55 M-17.45 -122.25 Q-17.9 -122.85 -18.35 -122.85 L-19.8 -121.8 Q-20.7 -120.8 -20.7 -120.3 -20.7 -119.5 -19.95 -119.25 -17.75 -121.35 -17.45 -122.25 M-9.2 -103.2 Q-8.65 -102.65 -7.85 -102.65 -7.05 -102.65 -6.45 -103.2 -5.9 -103.8 -5.9 -104.6 -5.9 -105.4 -6.45 -105.95 -7.05 -106.55 -7.85 -106.55 -8.65 -106.55 -9.2 -105.95 -9.8 -105.4 -9.8 -104.6 -9.8 -103.8 -9.2 -103.2 M-6.45 -95.3 Q-7.05 -95.9 -7.85 -95.9 -8.65 -95.9 -9.2 -95.3 -9.8 -94.75 -9.8 -93.95 -9.8 -93.15 -9.2 -92.55 -8.65 -92.0 -7.85 -92.0 -7.05 -92.0 -6.45 -92.55 -5.9 -93.15 -5.9 -93.95 -5.9 -94.75 -6.45 -95.3 M-1.65 1.1 Q-1.65 0.45 -3.8 0.45 -5.75 0.45 -6.0 0.9 L-5.95 1.65 -3.8 1.95 Q-1.65 1.95 -1.65 1.1" fill="#ffffff" fill-rule="evenodd" stroke="none"/>
      <path d="M2.25 -120.45 L3.3 -118.4 Q3.3 -117.75 2.45 -117.75 1.25 -117.75 -0.2 -121.25 -0.2 -121.95 0.45 -121.95 1.2 -121.95 2.25 -120.45 M8.85 -113.4 L7.65 -111.9 Q6.8 -111.9 5.45 -113.7 4.2 -115.35 4.2 -115.7 4.2 -116.6 4.95 -116.6 5.65 -116.6 7.2 -114.15 L8.45 -114.85 8.85 -113.4 M-3.0 -127.2 L-2.1 -126.1 Q-0.95 -124.45 -0.75 -123.75 -0.9 -123.05 -1.65 -123.05 -2.6 -123.05 -4.7 -127.05 L-3.0 -127.2 M1.7 0.5 L2.35 1.85 1.35 1.95 Q-0.55 1.95 -0.2 1.1 -0.2 0.65 1.35 0.45 L1.7 0.5 M-10.95 1.95 L-10.4 0.5 -9.85 0.45 Q-7.8 0.45 -7.8 1.1 -7.8 1.95 -9.85 1.95 L-10.95 1.95 M-13.35 -126.8 Q-13.5 -126.1 -15.0 -124.8 -15.75 -125.05 -15.75 -125.75 L-15.15 -126.7 -15.05 -126.85 -13.35 -126.8 M-28.2 -117.65 L-27.35 -116.8 -25.9 -115.15 Q-25.0 -116.1 -23.1 -117.45 L-22.2 -116.9 -25.1 -113.65 -25.65 -113.1 -25.7 -113.1 -25.75 -113.1 -25.85 -113.1 -26.1 -113.15 -26.55 -113.25 -26.55 -113.45 -28.55 -115.5 -28.6 -115.55 -28.2 -117.65 M-17.45 -122.25 Q-17.75 -121.35 -19.95 -119.25 -20.7 -119.5 -20.7 -120.3 -20.7 -120.8 -19.8 -121.8 L-18.35 -122.85 Q-17.9 -122.85 -17.45 -122.25 M-43.7 -31.45 L-43.65 -31.45 -43.7 -31.45 M-1.65 1.1 Q-1.65 1.95 -3.8 1.95 L-5.95 1.65 -6.0 0.9 Q-5.75 0.45 -3.8 0.45 -1.65 0.45 -1.65 1.1" fill="#c17192" fill-rule="evenodd" stroke="none"/>
      <path d="M8.25 -43.15 L-4.8 -43.15 Q-5.3 -48.4 -5.25 -52.65 -5.1 -61.55 -5.1 -71.8 -4.8 -78.55 -5.3 -81.85 L0.9 -88.75 Q4.1 -87.0 10.0 -84.4 16.45 -81.55 19.3 -80.7 24.0 -66.4 30.35 -47.85 L29.8 -47.5 Q27.95 -46.15 26.7 -45.9 L25.25 -45.3 24.2 -46.55 Q21.35 -49.4 17.35 -49.4 13.35 -49.4 10.5 -46.55 8.95 -45.0 8.25 -43.15 M24.15 -32.8 Q27.4 -33.45 29.8 -34.25 32.85 -35.25 34.5 -36.55 L38.0 -27.7 Q44.1 -11.85 44.1 -8.75 L44.0 -7.9 44.0 -7.85 Q43.1 -4.55 35.6 -0.5 30.75 2.15 20.3 4.0 L8.7 4.0 Q2.4 -7.15 0.1 -15.45 -1.8 -22.15 -3.15 -30.4 L-3.1 -30.4 12.55 -31.25 13.45 -30.8 16.35 -30.05 16.65 -30.0 17.35 -30.0 20.45 -30.45 Q21.3 -28.95 21.75 -28.95 22.5 -28.95 22.35 -29.15 L22.5 -29.95 22.0 -31.15 24.15 -32.8 M-42.95 -36.05 L-43.0 -35.7 -42.9 -36.7 -42.95 -36.05 M11.4 -43.2 Q11.8 -44.05 12.55 -44.75 14.5 -46.75 17.3 -46.75 20.1 -46.75 22.1 -44.75 L22.4 -44.4 22.35 -44.4 18.25 -43.6 16.85 -43.4 16.1 -44.85 Q15.35 -44.85 15.35 -44.0 L15.45 -43.35 11.4 -43.2 M-25.9 -100.5 Q-25.75 -100.5 -25.5 -100.65 L-24.1 -96.5 Q-22.45 -91.6 -21.65 -90.3 L-21.5 -89.85 Q-20.9 -89.0 -16.5 -89.0 L-14.45 -89.0 -8.35 -81.6 -9.7 -43.15 -19.2 -43.25 Q-34.1 -43.45 -38.45 -45.35 L-41.45 -46.6 -39.0 -62.5 -33.55 -86.6 -33.2 -89.0 -31.85 -97.0 -30.65 -104.0 Q-28.0 -100.5 -25.9 -100.5 M-11.4 -75.1 Q-10.95 -75.1 -10.65 -75.4 -10.35 -75.75 -10.3 -76.2 L-10.65 -76.95 Q-10.95 -77.3 -11.4 -77.3 -11.9 -77.3 -12.2 -76.95 L-12.5 -76.2 -12.2 -75.4 Q-11.9 -75.1 -11.4 -75.1 M-13.2 -62.0 L-12.9 -61.2 Q-12.6 -60.9 -12.1 -60.9 -11.65 -60.9 -11.35 -61.2 -11.05 -61.55 -11.0 -62.0 L-11.35 -62.75 Q-11.65 -63.1 -12.1 -63.1 -12.6 -63.1 -12.9 -62.75 L-13.2 -62.0 M-43.65 -31.45 L-43.45 -32.6 Q-35.4 -30.3 -13.55 -30.3 L-10.15 -30.3 -11.15 -16.1 Q-12.4 -1.4 -16.1 3.75 L-48.15 2.25 -50.9 1.65 -50.95 1.65 Q-48.15 -4.2 -45.25 -20.95 L-44.35 -26.8 -43.7 -31.45 -43.65 -31.45 M-12.4 -47.0 Q-12.1 -47.35 -12.05 -47.8 L-12.4 -48.55 Q-12.7 -48.9 -13.15 -48.9 -13.65 -48.9 -13.95 -48.55 L-14.25 -47.8 -13.95 -47.0 Q-13.65 -46.7 -13.15 -46.7 -12.7 -46.7 -12.4 -47.0 M-14.5 -20.15 Q-14.8 -20.5 -15.25 -20.5 -15.75 -20.5 -16.05 -20.15 L-16.35 -19.4 -16.05 -18.6 Q-15.75 -18.3 -15.25 -18.3 -14.8 -18.3 -14.5 -18.6 -14.2 -18.95 -14.15 -19.4 L-14.5 -20.15 M-15.9 -5.2 L-16.25 -5.95 Q-16.55 -6.3 -17.0 -6.3 -17.5 -6.3 -17.8 -5.95 L-18.1 -5.2 -17.8 -4.4 Q-17.5 -4.1 -17.0 -4.1 -16.55 -4.1 -16.25 -4.4 -15.95 -4.75 -15.9 -5.2" fill="#933d56" fill-rule="evenodd" stroke="none"/>
      <path d="M26.7 -42.3 Q29.85 -43.1 31.6 -44.15 L33.0 -40.05 32.35 -39.65 Q30.3 -38.35 26.8 -37.35 L27.05 -39.7 27.05 -39.85 27.05 -39.95 27.05 -40.05 26.7 -42.3 M9.3 -34.25 L-3.65 -33.75 -10.0 -33.95 -13.2 -34.05 -15.15 -34.1 -23.7 -34.5 -42.95 -36.05 -42.9 -36.7 -42.8 -37.7 -42.8 -37.8 -42.0 -42.95 -41.4 -42.6 Q-35.6 -39.65 -10.05 -39.65 L-9.8 -39.65 -4.45 -39.65 7.65 -40.0 7.65 -39.7 Q7.65 -36.65 9.3 -34.25 M23.85 -41.7 L24.05 -39.95 24.05 -39.8 24.05 -39.65 23.6 -37.45 23.0 -36.25 21.0 -35.85 21.65 -36.3 22.2 -36.9 22.2 -37.0 22.2 -37.05 22.05 -37.65 21.3 -37.8 19.55 -37.05 17.95 -40.8 23.85 -41.7 M13.1 -34.65 L12.55 -35.15 Q10.55 -37.15 10.55 -39.95 L10.55 -40.2 16.35 -40.65 17.85 -36.6 17.95 -36.4 Q16.6 -35.75 16.55 -35.1 L13.1 -34.65" fill="#6e575f" fill-rule="evenodd" stroke="none"/>
      <path d="M8.25 -43.15 Q8.95 -45.0 10.5 -46.55 13.35 -49.4 17.35 -49.4 21.35 -49.4 24.2 -46.55 L25.25 -45.3 Q26.25 -43.95 26.7 -42.3 L27.05 -40.05 27.05 -39.95 27.05 -39.85 27.05 -39.7 26.8 -37.35 Q26.15 -34.8 24.2 -32.85 L24.15 -32.8 22.0 -31.15 22.5 -29.95 22.35 -29.15 Q22.5 -28.95 21.75 -28.95 21.3 -28.95 20.45 -30.45 L17.35 -30.0 16.65 -30.0 16.35 -30.05 13.45 -30.8 12.55 -31.25 Q11.45 -31.9 10.5 -32.85 L9.3 -34.25 Q7.65 -36.65 7.65 -39.7 L7.65 -40.0 Q7.7 -41.7 8.25 -43.15 M22.4 -44.4 L22.1 -44.75 Q20.1 -46.75 17.3 -46.75 14.5 -46.75 12.55 -44.75 11.8 -44.05 11.4 -43.2 10.6 -41.85 10.55 -40.2 L10.55 -39.95 Q10.55 -37.15 12.55 -35.15 L13.1 -34.65 Q14.9 -33.15 17.3 -33.15 L19.1 -33.35 18.6 -34.6 17.55 -34.2 16.85 -34.35 16.55 -35.05 16.55 -35.1 Q16.6 -35.75 17.95 -36.4 L17.85 -36.6 16.35 -40.65 15.45 -43.35 15.35 -44.0 Q15.35 -44.85 16.1 -44.85 L16.85 -43.4 17.95 -40.8 19.55 -37.05 21.3 -37.8 22.05 -37.65 22.2 -37.05 22.2 -37.0 22.2 -36.9 21.65 -36.3 21.0 -35.85 20.25 -35.4 20.8 -34.1 22.1 -35.15 23.0 -36.25 23.6 -37.45 24.05 -39.65 24.05 -39.8 24.05 -39.95 23.85 -41.7 Q23.45 -43.2 22.4 -44.4" fill="#fff7b3" fill-rule="evenodd" stroke="none"/>
      <path d="M-43.7 -31.45 L-43.7 -31.5 -43.7 -31.45" fill="#a45a95" fill-rule="evenodd" stroke="none"/>
    </g>
  </defs>
</svg>
