<?xml version="1.0" encoding="UTF-8" standalone="no"?>
<svg xmlns:xlink="http://www.w3.org/1999/xlink" height="228.25px" width="250.6px" xmlns="http://www.w3.org/2000/svg">
  <g transform="matrix(1, 0, 0, 1, 130.7, 221.95)">
    <use height="99.1" transform="matrix(1.0, 0.0, 0.0, 1.0, -69.75, -139.35)" width="127.35" xlink:href="#shape0"/>
  </g>
  <defs>
    <g id="shape0" transform="matrix(1, 0, 0, 1, 69.75, 139.35)">
      <path d="M32.0 -56.05 Q24.6 -67.9 18.25 -89.9 13.3 -106.95 9.25 -124.2 L7.7 -133.25 Q8.55 -135.35 11.0 -135.35 L11.8 -134.4 14.85 -130.45 24.1 -117.65 33.75 -104.1 Q36.4 -100.5 48.15 -86.2 57.6 -74.65 57.6 -73.7 57.6 -71.55 45.9 -63.7 48.1 -60.05 50.6 -52.6 50.6 -44.85 40.35 -44.85 34.0 -44.85 32.5 -46.9 31.75 -47.9 32.25 -49.1 L32.45 -50.55 Q33.0 -51.35 34.5 -51.95 35.7 -52.5 37.6 -52.85 L42.35 -52.85 Q41.6 -55.2 39.65 -58.4 L39.1 -59.3 Q38.25 -58.8 32.0 -56.05 M14.85 -122.15 L14.6 -122.5 14.7 -122.05 Q20.8 -100.0 26.9 -83.85 33.05 -67.5 34.15 -65.15 L34.7 -65.5 35.5 -66.05 49.2 -73.7 Q48.15 -76.7 43.15 -83.05 38.15 -89.4 14.9 -122.05 L14.85 -122.15 M-48.7 -49.05 Q-47.25 -48.15 -47.25 -45.85 -47.25 -43.5 -50.25 -41.8 -53.0 -40.25 -56.0 -40.25 -63.75 -40.25 -66.0 -44.4 -67.15 -46.5 -66.75 -48.85 -66.75 -51.65 -64.5 -57.5 L-62.6 -61.5 -64.5 -64.3 Q-68.25 -70.35 -69.75 -76.6 -67.15 -80.9 -45.85 -111.6 L-30.55 -133.65 -27.0 -135.75 Q-24.7 -135.75 -23.75 -133.75 -23.25 -132.7 -24.8 -124.6 L-32.2 -90.05 Q-38.0 -63.6 -41.4 -54.7 -41.8 -53.4 -43.3 -52.75 -44.35 -52.25 -45.5 -52.25 L-48.35 -52.45 Q-52.6 -53.05 -56.25 -55.45 L-59.0 -49.25 -55.15 -49.1 -51.5 -49.75 Q-49.75 -49.75 -48.7 -49.05 M-27.75 -137.7 Q-26.05 -140.1 -26.75 -139.05 L-27.75 -137.7 M-62.85 -77.3 L-61.45 -79.15 -63.3 -76.65 Q-63.4 -71.05 -56.3 -65.55 -49.25 -60.0 -44.7 -59.7 -44.15 -61.05 -42.2 -69.15 L-28.4 -127.45 Q-36.5 -117.45 -48.75 -99.15 L-63.15 -77.4 -63.5 -76.85 -63.3 -76.7 -62.85 -77.3 M-63.9 -76.2 Q-64.9 -74.7 -63.85 -76.0 L-63.9 -76.2" fill="#000000" fill-rule="evenodd" stroke="none"/>
      <path d="M14.7 -122.05 L14.6 -122.5 14.85 -122.15 14.7 -122.05 M-63.15 -77.4 L-62.85 -77.3 -63.3 -76.7 -63.5 -76.85 -63.15 -77.4 M-63.9 -76.2 L-63.85 -76.0 Q-64.9 -74.7 -63.9 -76.2" fill="#ffffff" fill-rule="evenodd" stroke="none"/>
      <path d="M14.7 -122.05 L14.85 -122.15 14.9 -122.05 Q38.15 -89.4 43.15 -83.05 48.15 -76.7 49.2 -73.7 L35.5 -66.05 34.6 -65.75 34.7 -65.5 34.15 -65.15 Q33.05 -67.5 26.9 -83.85 20.8 -100.0 14.7 -122.05 M-63.15 -77.4 L-48.75 -99.15 Q-36.5 -117.45 -28.4 -127.45 L-42.2 -69.15 Q-44.15 -61.05 -44.7 -59.7 -49.25 -60.0 -56.3 -65.55 -63.4 -71.05 -63.3 -76.65 L-61.45 -79.15 -62.85 -77.3 -63.15 -77.4" fill="#ffeef3" fill-rule="evenodd" stroke="none"/>
      <path d="M34.5 -51.95 Q33.45 -53.0 32.95 -54.5 L33.0 -54.5 32.95 -54.6 32.7 -55.4 32.65 -55.85 32.5 -55.85 32.1 -55.9 31.9 -56.0 32.0 -56.05 Q38.25 -58.8 39.1 -59.3 L39.65 -58.4 Q41.6 -55.2 42.35 -52.85 L37.6 -52.85 Q35.7 -52.5 34.5 -51.95 M-48.35 -52.45 Q-48.35 -50.2 -48.7 -49.05 -49.75 -49.75 -51.5 -49.75 L-55.15 -49.1 -59.0 -49.25 -56.25 -55.45 Q-52.6 -53.05 -48.35 -52.45" fill="#fff1dd" fill-rule="evenodd" stroke="none"/>
    </g>
  </defs>
</svg>
