<?xml version="1.0" encoding="UTF-8" standalone="no"?>
<svg xmlns:xlink="http://www.w3.org/1999/xlink" height="228.25px" width="250.6px" xmlns="http://www.w3.org/2000/svg">
  <g transform="matrix(1, 0, 0, 1, 130.7, 221.95)">
    <use height="135.15" transform="matrix(1.0, 0.0, 0.0, 1.0, -66.1, -135.75)" width="136.7" xlink:href="#shape0"/>
  </g>
  <defs>
    <g id="shape0" transform="matrix(1, 0, 0, 1, 66.1, 135.75)">
      <path d="M12.05 -121.95 Q7.1 -128.9 7.1 -130.9 7.1 -135.75 10.85 -135.75 13.25 -135.75 24.65 -119.35 35.6 -103.55 35.6 -102.65 35.6 -100.3 32.3 -95.35 36.2 -90.1 41.65 -76.7 46.1 -65.65 49.6 -54.4 L49.75 -50.9 Q49.7 -49.05 48.85 -48.0 46.65 -45.25 36.35 -45.25 32.1 -45.25 32.1 -48.75 32.1 -51.35 35.75 -52.8 38.1 -53.75 42.1 -54.25 41.0 -59.35 32.35 -76.7 L26.3 -89.15 Q24.6 -88.25 22.85 -88.25 18.1 -88.25 18.1 -91.75 18.1 -93.0 20.05 -94.9 L22.75 -97.25 Q27.35 -100.85 27.35 -102.0 L25.75 -104.05 25.7 -104.05 23.15 -107.35 17.25 -114.95 12.05 -121.95 M-49.25 -49.7 Q-46.25 -49.3 -46.25 -45.5 -46.25 -43.15 -47.2 -42.5 -49.0 -41.25 -55.5 -41.25 -63.95 -41.25 -65.7 -45.1 -66.25 -46.35 -66.05 -47.85 L-65.75 -49.25 Q-65.75 -50.2 -63.65 -57.85 -61.2 -66.6 -58.5 -74.75 -53.4 -89.9 -49.75 -95.5 -51.05 -98.35 -52.0 -101.65 L-52.75 -104.9 Q-52.75 -106.65 -32.0 -135.75 -28.25 -135.75 -28.25 -131.5 -28.25 -128.05 -36.35 -116.05 L-41.1 -109.15 -43.8 -105.4 -44.5 -104.5 Q-44.5 -101.35 -40.3 -96.7 L-39.35 -95.7 Q-34.25 -90.4 -34.25 -89.5 -34.25 -85.25 -38.0 -85.25 -40.3 -85.25 -42.35 -86.3 L-44.45 -87.75 -49.4 -75.15 Q-57.0 -56.25 -58.25 -49.5 L-58.25 -49.0 -58.2 -49.0 -50.0 -49.75 -49.25 -49.7" fill="#000000" fill-rule="evenodd" stroke="none"/>
      <path d="M20.05 -94.9 L19.45 -96.85 19.6 -97.9 18.95 -98.6 18.05 -101.65 15.65 -109.8 12.05 -121.95 17.25 -114.95 23.15 -107.35 25.7 -104.05 25.05 -103.55 25.75 -104.05 27.35 -102.0 Q27.35 -100.85 22.75 -97.25 L20.05 -94.9 M-40.3 -96.7 Q-44.5 -101.35 -44.5 -104.5 L-43.8 -105.4 -41.1 -109.15 -36.35 -116.05 -36.2 -116.0 -38.45 -105.6 -38.0 -104.9 Q-38.3 -104.0 -38.9 -103.55 L-40.3 -96.7" fill="#ffffff" fill-rule="evenodd" stroke="none"/>
      <path d="M25.7 -104.05 L25.75 -104.05 25.05 -103.55 25.7 -104.05" fill="#b30000" fill-rule="evenodd" stroke="none"/>
      <path d="M35.75 -52.8 L35.05 -54.15 Q30.4 -63.65 27.6 -71.25 25.65 -76.6 22.15 -88.0 L22.85 -88.25 Q24.6 -88.25 26.3 -89.15 L32.35 -76.7 Q41.0 -59.35 42.1 -54.25 38.1 -53.75 35.75 -52.8 M-49.25 -49.7 L-50.0 -49.75 -58.2 -49.0 -58.25 -49.5 Q-57.0 -56.25 -49.4 -75.15 L-44.45 -87.75 -42.35 -86.3 -45.75 -68.5 -49.25 -49.7" fill="#fff1dd" fill-rule="evenodd" stroke="none"/>
      <path d="M20.6 -69.7 Q19.5 -70.15 19.4 -71.5 19.35 -72.25 27.25 -78.15 35.45 -84.3 38.1 -84.5 39.15 -84.6 42.5 -80.65 45.85 -76.75 46.0 -75.0 L43.9 -72.85 Q49.35 -63.85 69.95 -23.05 L70.0 -22.6 Q70.55 -22.15 70.6 -21.2 58.25 -1.45 52.25 -1.0 L52.1 -0.95 51.95 -0.95 Q42.85 -0.3 40.3 -0.85 39.35 -1.1 39.0 -1.8 36.3 -5.0 29.35 -26.25 21.6 -49.95 20.9 -56.05 L20.4 -60.95 20.1 -62.1 Q20.05 -62.75 20.75 -63.7 L21.2 -63.95 23.2 -65.1 38.95 -74.2 40.1 -74.85 40.85 -75.3 Q40.4 -75.7 37.9 -79.05 35.0 -76.65 28.55 -72.85 L27.85 -72.45 23.65 -70.1 23.5 -70.0 22.9 -69.7 22.4 -69.5 20.6 -69.7 M27.3 -62.05 L27.25 -62.15 27.25 -62.25 26.95 -61.9 Q25.85 -60.8 24.05 -60.35 L24.85 -57.95 25.05 -57.35 26.7 -51.5 26.9 -50.75 27.0 -50.4 28.7 -44.1 28.9 -43.3 31.3 -34.9 Q39.9 -8.55 40.8 -7.0 L41.9 -4.95 46.05 -5.5 Q49.8 -5.8 51.8 -5.4 L52.05 -5.65 Q41.6 -24.9 38.7 -33.05 34.4 -43.1 30.2 -53.9 L29.75 -55.1 29.6 -55.5 29.45 -55.9 29.35 -56.1 29.2 -56.5 27.5 -61.3 27.3 -62.05 M20.7 -60.6 Q21.05 -59.85 21.25 -60.3 20.9 -60.4 20.7 -60.6 M29.2 -63.5 Q28.75 -63.45 32.7 -54.25 36.65 -45.05 38.8 -39.35 40.9 -33.65 47.45 -20.1 52.05 -10.6 53.3 -7.2 63.05 -18.6 66.4 -21.8 62.9 -26.4 52.95 -45.85 43.45 -64.35 40.95 -70.1 L29.2 -63.5" fill="#000000" fill-rule="evenodd" stroke="none"/>
      <path d="M20.6 -69.7 L22.4 -69.5 22.9 -69.7 23.5 -70.0 23.65 -70.1 27.85 -72.45 28.55 -72.85 Q35.0 -76.65 37.9 -79.05 40.4 -75.7 40.85 -75.3 L40.1 -74.85 38.95 -74.2 23.2 -65.1 21.2 -63.95 20.9 -65.25 20.7 -67.9 20.6 -69.7" fill="#6f6f6f" fill-rule="evenodd" stroke="none"/>
      <path d="M42.15 -60.75 Q41.45 -60.7 41.2 -60.15 L41.1 -59.55 Q41.1 -59.0 41.5 -58.75 L39.8 -54.1 35.95 -55.1 35.95 -55.25 Q35.85 -56.45 34.8 -56.4 34.1 -56.35 33.85 -55.75 L33.75 -55.15 Q33.85 -54.05 35.0 -54.15 L35.6 -54.35 37.6 -53.7 39.5 -53.25 38.0 -48.95 Q37.3 -48.9 37.05 -48.3 L36.95 -47.7 Q37.05 -46.6 38.15 -46.7 39.25 -46.8 39.2 -47.85 L39.0 -48.5 40.4 -52.2 40.65 -53.0 45.55 -51.8 Q45.65 -50.9 46.65 -50.95 47.7 -51.05 47.65 -52.0 47.55 -53.2 46.5 -53.1 45.85 -53.05 45.65 -52.55 L41.2 -53.7 40.85 -53.8 42.25 -58.6 42.3 -58.6 Q43.35 -58.7 43.3 -59.65 43.2 -60.8 42.15 -60.75 M39.15 -64.5 Q39.45 -64.25 40.1 -64.3 41.15 -64.4 41.1 -65.35 41.0 -66.55 39.95 -66.45 39.25 -66.4 39.0 -65.8 L38.85 -65.25 Q35.1 -63.4 32.95 -61.95 L32.3 -62.05 Q31.65 -62.0 31.45 -61.5 L31.3 -60.9 Q31.4 -59.8 32.45 -59.85 33.7 -59.95 33.45 -61.0 L33.45 -61.25 35.2 -62.1 Q37.7 -63.45 39.15 -64.5 M27.3 -62.05 L26.95 -61.9 27.25 -62.25 27.25 -62.15 27.3 -62.05 M29.2 -63.5 L40.95 -70.1 Q43.45 -64.35 52.95 -45.85 62.9 -26.4 66.4 -21.8 63.05 -18.6 53.3 -7.2 52.05 -10.6 47.45 -20.1 40.9 -33.65 38.8 -39.35 36.65 -45.05 32.7 -54.25 28.75 -63.45 29.2 -63.5" fill="#f87b29" fill-rule="evenodd" stroke="none"/>
      <path d="M39.15 -64.5 Q37.7 -63.45 35.2 -62.1 L33.45 -61.25 33.45 -61.0 Q33.7 -59.95 32.45 -59.85 31.4 -59.8 31.3 -60.9 L31.45 -61.5 Q31.65 -62.0 32.3 -62.05 L32.95 -61.95 Q35.1 -63.4 38.85 -65.25 L39.0 -65.8 Q39.25 -66.4 39.95 -66.45 41.0 -66.55 41.1 -65.35 41.15 -64.4 40.1 -64.3 39.45 -64.25 39.15 -64.5 M42.15 -60.75 Q43.2 -60.8 43.3 -59.65 43.35 -58.7 42.3 -58.6 L42.25 -58.6 40.85 -53.8 41.2 -53.7 45.65 -52.55 Q45.85 -53.05 46.5 -53.1 47.55 -53.2 47.65 -52.0 47.7 -51.05 46.65 -50.95 45.65 -50.9 45.55 -51.8 L40.65 -53.0 40.4 -52.2 39.0 -48.5 39.2 -47.85 Q39.25 -46.8 38.15 -46.7 37.05 -46.6 36.95 -47.7 L37.05 -48.3 Q37.3 -48.9 38.0 -48.95 L39.5 -53.25 37.6 -53.7 35.6 -54.35 35.0 -54.15 Q33.85 -54.05 33.75 -55.15 L33.85 -55.75 Q34.1 -56.35 34.8 -56.4 35.85 -56.45 35.95 -55.25 L35.95 -55.1 39.8 -54.1 41.5 -58.75 Q41.1 -59.0 41.1 -59.55 L41.2 -60.15 Q41.45 -60.7 42.15 -60.75 M24.85 -57.95 L25.0 -57.95 24.95 -58.05 25.05 -58.65 Q25.3 -59.2 26.05 -59.25 27.05 -59.3 27.15 -58.15 27.2 -57.2 26.2 -57.1 25.45 -57.05 25.2 -57.4 L25.05 -57.35 24.85 -57.95 M26.7 -51.5 L26.75 -51.5 26.6 -51.95 26.75 -52.55 Q27.0 -53.1 27.7 -53.15 28.7 -53.2 28.8 -52.05 28.95 -51.05 27.85 -50.95 L27.3 -51.0 27.15 -50.6 27.0 -50.4 26.9 -50.75 26.7 -51.5 M28.7 -44.1 L30.05 -43.7 Q30.3 -44.2 30.95 -44.25 32.1 -44.35 32.2 -43.2 32.25 -42.2 31.1 -42.1 30.0 -42.05 29.95 -43.1 L28.9 -43.3 28.7 -44.1" fill="#f7dd00" fill-rule="evenodd" stroke="none"/>
      <path d="M26.95 -61.9 L27.3 -62.05 27.5 -61.3 29.2 -56.5 29.35 -56.1 29.45 -55.9 29.6 -55.5 29.75 -55.1 30.2 -53.9 Q34.4 -43.1 38.7 -33.05 41.6 -24.9 52.05 -5.65 L51.8 -5.4 Q49.8 -5.8 46.05 -5.5 L41.9 -4.95 40.8 -7.0 Q39.9 -8.55 31.3 -34.9 L28.9 -43.3 29.95 -43.1 Q30.0 -42.05 31.1 -42.1 32.25 -42.2 32.2 -43.2 32.1 -44.35 30.95 -44.25 30.3 -44.2 30.05 -43.7 L28.7 -44.1 27.0 -50.4 27.15 -50.6 27.3 -51.0 27.85 -50.95 Q28.95 -51.05 28.8 -52.05 28.7 -53.2 27.7 -53.15 27.0 -53.1 26.75 -52.55 L26.6 -51.95 26.75 -51.5 26.7 -51.5 25.05 -57.35 25.2 -57.4 Q25.45 -57.05 26.2 -57.1 27.2 -57.2 27.15 -58.15 27.05 -59.3 26.05 -59.25 25.3 -59.2 25.05 -58.65 L24.95 -58.05 25.0 -57.95 24.85 -57.95 24.05 -60.35 Q25.85 -60.8 26.95 -61.9" fill="#ee6409" fill-rule="evenodd" stroke="none"/>
    </g>
  </defs>
</svg>
