<?xml version="1.0" encoding="UTF-8" standalone="no"?>
<svg xmlns:xlink="http://www.w3.org/1999/xlink" height="228.25px" width="250.6px" xmlns="http://www.w3.org/2000/svg">
  <g transform="matrix(1, 0, 0, 1, 130.7, 221.95)">
    <use height="94.4" transform="matrix(1.0, 0.0, 0.0, 1.0, -63.9, -135.8)" width="112.35" xlink:href="#shape0"/>
    <use height="130.9" transform="matrix(1.0, 0.0, 0.0, 1.0, -76.4, -137.95)" width="139.7" xlink:href="#shape1"/>
  </g>
  <defs>
    <g id="shape0" transform="matrix(1, 0, 0, 1, 63.9, 135.8)">
      <path d="M7.35 -129.6 L7.25 -129.85 Q9.7 -135.35 12.15 -129.85 36.55 -86.7 43.3 -70.0 L46.95 -59.75 Q47.9 -56.45 48.25 -54.05 49.35 -46.3 45.0 -44.45 39.6 -42.15 36.35 -44.5 29.85 -49.35 24.7 -59.75 20.45 -68.3 17.15 -80.65 9.8 -108.0 7.0 -127.0 7.0 -129.05 7.3 -129.6 L7.35 -129.6 M25.15 -104.05 L25.0 -104.25 25.1 -104.05 25.15 -104.05 M27.2 -101.45 L27.2 -101.05 27.2 -100.7 27.35 -101.25 27.2 -101.45 M20.65 -105.45 Q16.15 -112.85 12.5 -119.9 14.55 -107.35 17.2 -95.3 19.85 -83.25 25.5 -69.7 27.8 -64.25 30.45 -59.75 34.25 -53.2 38.8 -48.85 41.55 -46.2 44.15 -50.25 45.6 -52.5 42.85 -59.75 41.5 -63.25 39.15 -67.95 31.9 -82.35 28.55 -90.2 25.15 -98.05 20.65 -105.45 M-35.2 -131.25 L-32.0 -135.75 Q-25.7 -137.35 -34.75 -82.05 -36.9 -70.1 -42.35 -50.95 -45.0 -41.8 -51.8 -41.4 -56.05 -41.2 -60.45 -44.0 -65.05 -46.9 -63.55 -58.25 L-58.5 -74.75 -57.35 -78.15 Q-53.8 -88.55 -35.2 -131.25 M-33.6 -122.8 Q-38.2 -114.05 -50.5 -80.95 -62.85 -47.95 -57.7 -47.1 -56.7 -45.75 -52.85 -46.45 -48.6 -47.25 -46.45 -52.25 -44.35 -57.25 -43.05 -63.05 -41.75 -68.9 -37.75 -92.45 -33.75 -116.0 -33.8 -118.35 L-33.8 -121.05 -33.6 -122.8" fill="#000000" fill-rule="evenodd" stroke="none"/>
      <path d="M20.65 -105.45 Q25.15 -98.05 28.55 -90.2 31.9 -82.35 39.15 -67.95 41.5 -63.25 42.85 -59.75 45.6 -52.5 44.15 -50.25 41.55 -46.2 38.8 -48.85 34.25 -53.2 30.45 -59.75 27.8 -64.25 25.5 -69.7 19.85 -83.25 17.2 -95.3 14.55 -107.35 12.5 -119.9 16.15 -112.85 20.65 -105.45 M-33.6 -122.8 L-33.8 -121.05 -33.8 -118.35 Q-33.75 -116.0 -37.75 -92.45 -41.75 -68.9 -43.05 -63.05 -44.35 -57.25 -46.45 -52.25 -48.6 -47.25 -52.85 -46.45 -56.7 -45.75 -57.7 -47.1 -62.85 -47.95 -50.5 -80.95 -38.2 -114.05 -33.6 -122.8" fill="#fff1dd" fill-rule="evenodd" stroke="none"/>
    </g>
    <g id="shape1" transform="matrix(1, 0, 0, 1, 76.4, 137.95)">
      <path d="M6.2 -111.05 L6.3 -113.0 Q6.6 -116.55 7.15 -119.85 8.15 -126.3 10.15 -131.9 L10.5 -132.75 18.15 -117.55 18.5 -116.0 Q12.35 -113.35 6.2 -111.05 M18.85 -116.15 L28.75 -96.45 24.05 -94.4 Q21.0 -105.2 18.5 -116.0 L18.85 -116.15 M38.85 -76.25 L48.9 -56.2 Q43.7 -53.55 38.5 -51.2 34.35 -61.85 30.8 -72.6 21.15 -68.35 11.4 -64.95 L11.05 -66.6 10.85 -67.35 Q9.5 -73.0 8.55 -78.3 L8.5 -78.65 7.5 -85.1 7.15 -87.75 Q15.65 -90.75 24.05 -94.4 27.15 -83.45 30.8 -72.6 34.8 -74.35 38.85 -76.25 M59.0 -36.2 L60.8 -32.55 56.5 -28.25 52.5 -24.8 50.4 -23.15 47.2 -30.3 Q53.1 -33.1 59.0 -36.2 M25.2 -21.15 L24.95 -21.7 24.55 -22.75 24.1 -24.05 24.2 -24.25 24.0 -24.35 Q20.45 -33.9 17.6 -42.8 28.1 -46.5 38.5 -51.2 42.6 -40.7 47.2 -30.3 36.25 -25.15 25.2 -21.15 M-40.45 -116.25 L-39.25 -119.05 -26.1 -111.85 Q-25.2 -101.8 -25.95 -89.75 L-26.1 -87.8 Q-34.65 -91.85 -42.9 -96.65 -44.65 -85.3 -47.0 -73.7 L-55.4 -78.75 -54.6 -80.9 -54.0 -82.45 -51.85 -87.85 -49.95 -92.8 -49.1 -94.85 -47.35 -99.25 -42.9 -96.65 Q-41.45 -106.5 -40.45 -116.25 M-29.0 -64.45 Q-30.7 -54.55 -33.15 -43.6 L-33.55 -41.85 Q-43.0 -46.2 -52.15 -51.4 -49.25 -62.65 -47.0 -73.7 -38.15 -68.65 -29.0 -64.45 M-39.25 -19.8 L-42.2 -9.55 -45.8 -10.9 -51.6 -13.45 Q-55.0 -15.1 -58.05 -17.0 L-61.45 -19.3 -58.2 -29.65 Q-48.9 -24.25 -39.25 -19.8 M-71.3 -37.8 L-70.4 -40.05 -70.25 -40.45 -70.1 -40.9 -70.0 -41.2 -63.4 -58.3 Q-57.85 -54.7 -52.15 -51.4 -54.9 -40.6 -58.2 -29.65 -64.85 -33.5 -71.3 -37.8" fill="#ffeded" fill-rule="evenodd" stroke="none"/>
      <path d="M6.2 -111.05 Q12.35 -113.35 18.5 -116.0 21.0 -105.2 24.05 -94.4 L28.75 -96.45 38.85 -76.25 Q34.8 -74.35 30.8 -72.6 27.15 -83.45 24.05 -94.4 15.65 -90.75 7.15 -87.75 L6.95 -89.45 Q5.6 -101.15 6.2 -111.05 M48.9 -56.2 L59.0 -36.2 Q53.1 -33.1 47.2 -30.3 L50.4 -23.15 46.65 -20.5 43.25 -18.4 Q40.2 -16.7 37.05 -15.35 32.85 -13.55 28.55 -12.5 L25.2 -21.15 Q36.25 -25.15 47.2 -30.3 42.6 -40.7 38.5 -51.2 28.1 -46.5 17.6 -42.8 L17.1 -44.4 Q13.75 -55.15 11.4 -64.95 21.15 -68.35 30.8 -72.6 34.35 -61.85 38.5 -51.2 43.7 -53.55 48.9 -56.2 M-47.35 -99.25 L-46.55 -101.35 -40.45 -116.25 Q-41.45 -106.5 -42.9 -96.65 L-47.35 -99.25 M-39.25 -119.05 L-38.45 -121.05 -38.0 -122.05 -35.25 -128.25 Q-32.2 -135.15 -31.4 -135.45 -29.65 -131.15 -28.35 -126.2 -27.0 -120.6 -26.3 -114.1 L-26.1 -111.85 -39.25 -119.05 M-26.1 -87.8 L-26.45 -83.8 -26.7 -81.55 -27.2 -76.75 -28.1 -70.05 -28.7 -66.3 -29.0 -64.45 Q-38.15 -68.65 -47.0 -73.7 -49.25 -62.65 -52.15 -51.4 -43.0 -46.2 -33.55 -41.85 -35.7 -32.75 -38.4 -22.85 L-38.5 -22.45 -38.75 -21.5 -39.0 -20.65 -39.25 -19.8 Q-48.9 -24.25 -58.2 -29.65 L-61.45 -19.3 -63.35 -20.65 Q-66.3 -22.95 -69.0 -25.55 L-73.9 -30.95 -71.3 -37.8 Q-64.85 -33.5 -58.2 -29.65 -54.9 -40.6 -52.15 -51.4 -57.85 -54.7 -63.4 -58.3 L-62.55 -60.5 -55.4 -78.75 -47.0 -73.7 Q-44.65 -85.3 -42.9 -96.65 -34.65 -91.85 -26.1 -87.8" fill="#ce4d52" fill-rule="evenodd" stroke="none"/>
      <path d="M18.5 -116.0 L18.15 -117.55 18.85 -116.15 18.5 -116.0" fill="#0099cc" fill-rule="evenodd" stroke="none"/>
      <path d="M18.15 -117.55 L10.5 -132.75 10.15 -131.9 Q8.15 -126.3 7.15 -119.85 6.6 -116.55 6.3 -113.0 L6.2 -111.05 M18.15 -117.55 L18.85 -116.15 28.75 -96.45 38.85 -76.25 48.9 -56.2 59.0 -36.2 60.8 -32.55 56.5 -28.25 52.5 -24.8 50.4 -23.15 46.65 -20.5 43.25 -18.4 Q40.2 -16.7 37.05 -15.35 32.85 -13.55 28.55 -12.5 L25.2 -21.15 24.95 -21.7 24.55 -22.75 24.1 -24.05 M24.0 -24.35 Q20.45 -33.9 17.6 -42.8 L17.1 -44.4 Q13.75 -55.15 11.4 -64.95 L11.05 -66.6 10.85 -67.35 Q9.5 -73.0 8.55 -78.3 L8.5 -78.65 7.5 -85.1 7.15 -87.75 6.95 -89.45 Q5.6 -101.15 6.2 -111.05 M-47.35 -99.25 L-46.55 -101.35 -40.45 -116.25 -39.25 -119.05 -38.45 -121.05 -38.0 -122.05 -35.25 -128.25 Q-32.2 -135.15 -31.4 -135.45 -29.65 -131.15 -28.35 -126.2 -27.0 -120.6 -26.3 -114.1 L-26.1 -111.85 Q-25.2 -101.8 -25.95 -89.75 L-26.1 -87.8 -26.45 -83.8 -26.7 -81.55 -27.2 -76.75 -28.1 -70.05 -28.7 -66.3 -29.0 -64.45 Q-30.7 -54.55 -33.15 -43.6 L-33.55 -41.85 Q-35.7 -32.75 -38.4 -22.85 L-38.5 -22.45 -38.75 -21.5 -39.0 -20.65 -39.25 -19.8 -42.2 -9.55 -45.8 -10.9 -51.6 -13.45 Q-55.0 -15.1 -58.05 -17.0 L-61.45 -19.3 -63.35 -20.65 Q-66.3 -22.95 -69.0 -25.55 L-73.9 -30.95 -71.3 -37.8 -70.4 -40.05 -70.25 -40.45 -70.1 -40.9 -70.0 -41.2 -63.4 -58.3 -62.55 -60.5 -55.4 -78.75 -54.6 -80.9 -54.0 -82.45 -51.85 -87.85 -49.95 -92.8 -49.1 -94.85 -47.35 -99.25" fill="none" stroke="#000000" stroke-linecap="round" stroke-linejoin="round" stroke-width="5.0"/>
      <path d="M24.2 -24.25 L24.0 -24.35" fill="none" stroke="#000000" stroke-linecap="round" stroke-linejoin="round" stroke-width="3.0"/>
    </g>
  </defs>
</svg>
