<?xml version="1.0" encoding="UTF-8" standalone="no"?>
<svg xmlns:xlink="http://www.w3.org/1999/xlink" height="228.25px" width="250.6px" xmlns="http://www.w3.org/2000/svg">
  <g transform="matrix(1, 0, 0, 1, 130.7, 221.95)">
    <use height="124.65" transform="matrix(1.0, 0.0, 0.0, 1.0, -77.25, -135.6)" width="143.6" xlink:href="#shape0"/>
  </g>
  <defs>
    <g id="shape0" transform="matrix(1, 0, 0, 1, 77.25, 135.6)">
      <path d="M11.35 -123.35 Q10.55 -125.35 10.4 -126.5 9.5 -132.65 9.95 -133.8 10.15 -134.4 11.0 -134.7 L12.9 -134.95 13.1 -134.7 21.85 -117.25 Q30.6 -99.35 35.55 -88.65 38.8 -81.55 53.2 -61.6 66.35 -43.3 66.35 -42.1 55.4 -14.1 45.45 -14.1 41.4 -14.1 41.4 -17.4 L47.45 -24.4 47.6 -24.55 47.75 -24.8 48.05 -25.15 48.3 -25.4 48.4 -25.55 49.0 -26.25 50.6 -28.2 50.9 -28.6 51.75 -29.7 55.4 -34.5 56.85 -36.45 58.45 -38.95 58.8 -39.7 59.05 -40.25 59.3 -41.4 Q53.65 -49.1 46.9 -59.7 L44.95 -62.75 44.1 -64.1 44.0 -64.3 43.6 -64.9 42.25 -67.05 41.45 -68.4 39.95 -70.8 39.45 -71.65 38.15 -73.85 37.45 -75.0 Q33.4 -81.75 29.1 -89.3 L28.85 -89.75 21.35 -103.15 21.0 -103.8 Q14.1 -116.4 11.7 -122.45 L11.35 -123.35 M-52.65 -17.85 Q-49.45 -15.05 -49.45 -14.6 -49.45 -13.2 -50.4 -12.15 -51.55 -10.95 -53.35 -10.95 -63.75 -10.95 -71.55 -24.85 -75.45 -31.8 -77.25 -38.95 L-64.75 -65.4 -64.3 -66.45 -60.75 -73.95 -60.0 -75.5 -59.4 -76.8 -34.0 -130.2 -33.75 -130.7 -33.7 -130.8 -33.35 -131.45 -33.25 -131.75 -33.05 -132.1 -33.0 -132.25 -32.7 -132.85 -32.6 -133.0 -32.45 -133.3 -32.3 -133.65 -32.1 -134.05 -32.05 -134.1 -31.75 -134.7 -31.25 -135.6 Q-29.7 -135.6 -28.85 -134.7 -28.45 -134.3 -28.2 -133.7 L-27.85 -131.7 -27.85 -131.6 -27.85 -131.5 -27.85 -131.3 -27.9 -131.0 -28.05 -130.0 -28.1 -129.9 -28.15 -129.65 -32.55 -117.6 -33.0 -116.45 -35.55 -110.7 -36.25 -109.15 -37.55 -106.35 -37.65 -106.15 -37.7 -106.0 -38.5 -104.35 -38.8 -103.7 -40.2 -100.7 -40.5 -100.05 -42.45 -95.8 -42.7 -95.2 -47.3 -85.05 -48.0 -83.45 -51.0 -77.35 -54.25 -70.9 -55.25 -68.85 -57.2 -65.05 -58.1 -63.3 -58.4 -62.65 -58.45 -62.65 -59.55 -60.5 -60.15 -59.35 -60.35 -58.95 -61.5 -56.65 Q-70.1 -39.9 -70.1 -38.85 -70.1 -34.45 -64.35 -28.2 L-62.95 -26.7 -60.5 -24.4 -59.75 -23.7 -59.45 -23.45 -56.95 -21.45 -56.2 -20.85 -56.2 -20.8 -52.65 -17.85" fill="#000000" fill-rule="evenodd" stroke="none"/>
      <path d="M11.3 -122.3 L11.35 -123.35 11.7 -122.45 11.3 -122.3" fill="#ffcd73" fill-rule="evenodd" stroke="none"/>
      <path d="M47.45 -24.4 L45.9 -26.2 47.75 -24.8 47.6 -24.55 47.45 -24.4 M37.45 -75.0 L38.15 -73.85 37.95 -72.45 Q37.9 -74.1 37.35 -74.9 L37.45 -75.0 M40.45 -63.15 L40.2 -62.75 40.1 -62.7 40.1 -63.3 40.1 -63.6 Q40.1 -63.35 40.45 -63.15 M41.25 -53.55 L41.05 -53.6 41.1 -53.8 41.25 -53.55 M39.65 -54.1 L39.1 -52.65 39.05 -52.6 39.0 -52.7 39.65 -54.1 M37.8 -62.1 L37.95 -61.9 37.8 -61.8 37.8 -62.1 M-37.35 -97.85 L-37.4 -97.75 -37.65 -97.8 -37.35 -97.85 M-45.35 -66.2 L-45.55 -65.3 -46.0 -65.35 -45.35 -66.2 M-46.45 -61.35 L-46.55 -61.0 -46.55 -61.4 -46.45 -61.35 M-46.8 -59.8 L-46.9 -59.45 -46.95 -59.45 -46.95 -59.5 -46.8 -59.8 M-58.4 -62.65 L-58.1 -63.3 -57.15 -63.1 -58.4 -62.65 M-37.7 -106.0 L-37.65 -106.15 -37.55 -106.35 -37.5 -105.9 -37.7 -106.0 M-54.8 -56.45 L-54.6 -56.55 -54.65 -56.45 -54.7 -56.35 -54.8 -56.45" fill="#fff06f" fill-rule="evenodd" stroke="none"/>
      <path d="M43.35 -51.9 L43.2 -51.9 43.15 -51.9 43.1 -51.9 43.35 -51.9 M-47.75 -53.5 L-47.85 -52.85 -47.85 -53.2 -47.8 -53.6 -47.75 -53.5 M-56.25 -52.75 L-56.3 -52.65 -56.3 -52.7 -56.25 -52.75" fill="#ffcccc" fill-rule="evenodd" stroke="none"/>
      <path d="M40.2 -62.75 L40.25 -62.75 40.2 -62.75 M-51.9 -49.5 L-51.8 -49.5 -51.85 -49.45 -51.9 -49.5" fill="#93ff77" fill-rule="evenodd" stroke="none"/>
      <path d="M41.05 -53.55 L41.05 -53.6 41.25 -53.55 41.25 -53.5 41.05 -53.55" fill="#ffff3c" fill-rule="evenodd" stroke="none"/>
      <path d="M29.7 -62.0 L29.6 -62.3 30.1 -62.55 29.7 -62.0 M11.3 -122.3 L11.7 -122.45 11.3 -122.3 M29.35 -73.65 L29.4 -73.55 29.0 -73.5 29.35 -73.65 M50.6 -30.8 L50.95 -30.3 50.25 -30.7 50.6 -30.8 M-37.4 -97.75 L-37.4 -97.7 -37.65 -97.8 -37.4 -97.75" fill="#ffff6f" fill-rule="evenodd" stroke="none"/>
      <path d="M-44.25 -69.9 L-44.2 -70.0 -44.2 -69.9 -44.25 -69.9" fill="#ff9191" fill-rule="evenodd" stroke="none"/>
      <path d="M42.45 -32.15 Q40.25 -36.4 37.55 -42.8 L36.3 -45.8 Q36.55 -45.85 36.5 -46.05 L40.15 -51.35 41.05 -53.55 41.25 -53.5 Q42.1 -52.1 43.1 -51.9 L43.15 -51.9 43.2 -51.9 43.35 -51.9 44.15 -52.1 Q44.2 -52.65 45.4 -54.85 46.55 -56.95 46.55 -57.6 L44.9 -59.55 46.9 -59.7 Q53.65 -49.1 59.3 -41.4 L59.05 -40.25 58.8 -39.7 58.45 -38.95 56.85 -36.45 55.4 -34.5 55.4 -35.75 Q55.4 -39.55 54.65 -40.4 L48.35 -36.15 Q48.35 -35.25 49.45 -32.9 L50.6 -30.8 50.25 -30.7 Q47.3 -32.15 42.45 -32.15 M34.3 -50.6 L32.7 -54.6 33.35 -54.5 34.25 -55.35 34.2 -52.5 34.3 -50.6 M29.6 -62.3 L25.4 -72.9 Q22.45 -80.1 17.5 -95.95 11.3 -115.9 11.3 -122.3 L11.7 -122.45 Q14.1 -116.4 21.0 -103.8 L21.35 -103.15 28.85 -89.75 29.1 -89.3 Q33.4 -81.75 37.45 -75.0 L37.35 -74.9 Q36.75 -75.75 35.7 -75.75 L35.65 -75.75 34.95 -75.65 34.75 -75.6 34.4 -75.5 32.75 -78.9 29.75 -83.05 27.6 -85.4 26.85 -85.2 26.55 -80.45 Q26.55 -79.25 28.95 -74.4 L29.35 -73.65 29.0 -73.5 28.65 -66.8 Q28.65 -66.4 30.6 -64.75 31.7 -63.75 32.75 -63.25 L30.1 -62.55 29.6 -62.3 M39.45 -71.65 L39.95 -70.8 41.45 -68.4 38.95 -66.0 39.45 -71.65 M-33.0 -116.45 Q-33.3 -114.3 -36.75 -100.25 L-36.0 -105.85 -36.0 -108.1 -36.25 -109.15 -35.55 -110.7 -33.0 -116.45 M-37.4 -97.7 L-38.25 -94.4 -42.05 -79.4 Q-43.05 -79.0 -44.2 -77.3 L-46.2 -74.7 -44.85 -80.8 -45.9 -82.2 Q-46.85 -83.15 -48.0 -83.45 L-47.3 -85.05 -42.7 -95.2 -42.45 -95.8 -40.5 -100.05 -40.2 -100.7 Q-39.4 -97.8 -37.65 -97.8 L-37.4 -97.7 M-48.0 -53.95 L-48.05 -53.65 -49.55 -45.1 -49.8 -43.9 Q-50.85 -38.75 -50.65 -38.05 L-50.55 -38.0 -51.85 -26.45 -52.65 -17.85 -56.2 -20.8 -56.2 -20.85 -56.95 -21.45 -59.45 -23.45 -59.75 -23.7 -60.5 -24.4 -62.95 -26.7 -64.35 -28.2 Q-70.1 -34.45 -70.1 -38.85 -70.1 -39.9 -61.5 -56.65 L-61.5 -55.25 -60.75 -55.1 -58.05 -55.25 Q-59.45 -52.3 -60.75 -47.4 -60.05 -39.5 -57.9 -39.5 L-57.15 -39.9 Q-56.2 -43.45 -52.55 -48.45 L-51.85 -49.45 -51.8 -49.5 -51.05 -49.7 Q-50.8 -51.7 -48.35 -55.85 -48.35 -54.65 -48.0 -53.95" fill="#ffcd40" fill-rule="evenodd" stroke="none"/>
      <path d="M32.7 -54.6 Q31.25 -55.1 30.3 -57.65 29.75 -59.2 29.55 -60.9 29.55 -61.6 29.7 -62.0 L30.1 -62.55 32.75 -63.25 Q31.7 -63.75 30.6 -64.75 28.65 -66.4 28.65 -66.8 L29.0 -73.5 29.4 -73.55 29.85 -73.65 Q30.5 -73.65 33.5 -70.7 L33.55 -71.65 33.3 -73.65 33.3 -73.7 33.35 -74.2 33.45 -74.45 33.6 -74.8 34.0 -75.25 34.35 -75.5 34.4 -75.5 34.75 -75.6 34.95 -75.65 35.65 -75.75 35.7 -75.75 Q36.75 -75.75 37.35 -74.9 37.9 -74.1 37.95 -72.45 L38.15 -73.85 39.45 -71.65 38.95 -66.0 41.45 -68.4 42.25 -67.05 43.6 -64.9 44.0 -64.3 44.1 -64.1 44.95 -62.75 43.8 -62.75 40.45 -63.15 Q40.1 -63.35 40.1 -63.6 L40.1 -63.3 40.1 -62.7 40.2 -62.75 40.25 -62.75 Q42.0 -62.75 44.9 -59.55 L46.55 -57.6 Q46.55 -56.95 45.4 -54.85 44.2 -52.65 44.15 -52.1 L43.35 -51.9 43.1 -51.9 Q42.1 -52.1 41.25 -53.5 L41.25 -53.55 41.1 -53.8 40.25 -55.55 39.65 -54.1 39.0 -52.7 38.55 -52.5 Q37.65 -54.25 36.7 -57.95 L36.4 -59.3 34.25 -55.35 33.35 -54.5 32.7 -54.6 M55.4 -34.5 L51.75 -29.7 50.95 -30.3 50.6 -30.8 49.45 -32.9 Q48.35 -35.25 48.35 -36.15 L54.65 -40.4 Q55.4 -39.55 55.4 -35.75 L55.4 -34.5 M37.8 -62.1 L37.8 -61.8 37.95 -61.9 Q38.7 -62.4 38.7 -63.75 L36.9 -63.8 36.9 -62.35 37.05 -62.45 37.8 -62.1 M-42.05 -79.4 L-42.8 -76.25 -42.9 -76.1 -44.4 -70.0 -44.55 -69.55 -44.25 -69.9 -44.2 -69.9 -44.9 -66.8 -45.35 -66.2 -46.0 -65.35 -45.55 -65.3 -45.75 -63.55 -46.0 -63.5 -46.45 -61.35 -46.55 -61.4 -46.55 -61.0 -46.8 -59.8 -46.95 -59.5 -46.95 -59.45 -46.9 -59.45 -46.9 -59.35 -47.1 -57.7 Q-46.85 -57.05 -46.85 -55.9 -46.85 -54.2 -47.1 -53.55 L-47.6 -53.4 -47.75 -53.5 -47.8 -53.6 -47.9 -53.75 -48.0 -53.95 Q-48.35 -54.65 -48.35 -55.85 -50.8 -51.7 -51.05 -49.7 L-51.8 -49.5 -51.9 -49.5 Q-52.6 -49.5 -53.35 -49.9 -54.7 -50.65 -56.3 -52.65 L-56.25 -52.75 -56.25 -52.8 -55.35 -55.05 -55.3 -55.05 -55.15 -55.35 -55.1 -55.45 -54.7 -56.35 -54.65 -56.45 -54.6 -56.55 -54.8 -56.45 -56.3 -55.65 -58.05 -55.25 -60.75 -55.1 -61.5 -55.25 -61.5 -56.65 -60.35 -58.95 -60.15 -59.35 -59.55 -60.5 -58.45 -62.65 -58.4 -62.65 -57.15 -63.1 -58.1 -63.3 -57.2 -65.05 -55.25 -68.85 -54.25 -70.9 -53.0 -69.4 -52.25 -68.35 -51.0 -77.35 -48.0 -83.45 Q-46.85 -83.15 -45.9 -82.2 L-44.85 -80.8 -46.2 -74.7 -44.2 -77.3 Q-43.05 -79.0 -42.05 -79.4 M-50.6 -64.4 Q-51.5 -64.4 -52.2 -61.8 -52.2 -61.3 -51.2 -60.65 -50.2 -60.0 -49.55 -60.0 -48.7 -60.0 -48.3 -60.65 -48.1 -60.95 -48.05 -61.3 -48.05 -61.7 -49.95 -64.5 L-50.6 -64.4" fill="#ffe1ff" fill-rule="evenodd" stroke="none"/>
      <path d="M45.9 -26.2 L44.4 -27.5 Q40.7 -30.9 40.7 -31.35 40.7 -32.15 42.45 -32.15 47.3 -32.15 50.25 -30.7 L50.95 -30.3 51.75 -29.7 50.9 -28.6 50.6 -28.2 49.0 -26.25 48.4 -25.55 48.3 -25.4 48.05 -25.15 47.75 -24.8 45.9 -26.2 M36.3 -45.8 L35.85 -45.75 Q34.9 -45.75 34.45 -49.05 L34.3 -50.6 34.2 -52.5 34.25 -55.35 36.4 -59.3 36.7 -57.95 Q37.65 -54.25 38.55 -52.5 L39.0 -52.7 39.05 -52.6 39.1 -52.65 39.65 -54.1 40.25 -55.55 41.1 -53.8 41.05 -53.6 41.05 -53.55 40.15 -51.35 36.5 -46.05 Q36.55 -45.85 36.3 -45.8 M44.95 -62.75 L46.9 -59.7 44.9 -59.55 Q42.0 -62.75 40.25 -62.75 L40.2 -62.75 40.45 -63.15 43.8 -62.75 44.95 -62.75 M29.35 -73.65 L28.95 -74.4 Q26.55 -79.25 26.55 -80.45 L26.85 -85.2 27.6 -85.4 29.75 -83.05 32.75 -78.9 34.4 -75.5 34.35 -75.5 34.0 -75.25 33.6 -74.8 33.45 -74.45 33.35 -74.2 33.3 -73.7 33.3 -73.65 33.55 -71.65 33.5 -70.7 Q30.5 -73.65 29.85 -73.65 L29.4 -73.55 29.35 -73.65 M-36.75 -100.25 L-36.95 -97.95 -37.35 -97.85 -37.65 -97.8 Q-39.4 -97.8 -40.2 -100.7 L-38.8 -103.7 -38.5 -104.35 -37.7 -106.0 -37.5 -105.9 -37.55 -106.35 -36.25 -109.15 -36.0 -108.1 -36.0 -105.85 -36.75 -100.25 M-54.25 -70.9 L-51.0 -77.35 -52.25 -68.35 -53.0 -69.4 -54.25 -70.9 M-58.05 -55.25 L-56.3 -55.65 -54.8 -56.45 -54.7 -56.35 -55.1 -55.45 -55.15 -55.35 -55.3 -55.05 -55.35 -55.05 -56.25 -52.8 -56.25 -52.75 -56.3 -52.7 -56.3 -52.65 Q-54.7 -50.65 -53.35 -49.9 -52.6 -49.5 -51.9 -49.5 L-51.85 -49.45 -52.55 -48.45 Q-56.2 -43.45 -57.15 -39.9 L-57.9 -39.5 Q-60.05 -39.5 -60.75 -47.4 -59.45 -52.3 -58.05 -55.25" fill="#3c9b37" fill-rule="evenodd" stroke="none"/>
      <path d="M37.95 -61.9 L37.8 -62.1 37.05 -62.45 36.9 -62.35 36.9 -63.8 38.7 -63.75 Q38.7 -62.4 37.95 -61.9 M-50.6 -64.4 L-49.95 -64.5 Q-48.05 -61.7 -48.05 -61.3 -48.1 -60.95 -48.3 -60.65 -48.7 -60.0 -49.55 -60.0 -50.2 -60.0 -51.2 -60.65 -52.2 -61.3 -52.2 -61.8 -51.5 -64.4 -50.6 -64.4" fill="#ffffa2" fill-rule="evenodd" stroke="none"/>
    </g>
  </defs>
</svg>
