<?xml version="1.0" encoding="UTF-8" standalone="no"?>
<svg xmlns:xlink="http://www.w3.org/1999/xlink" height="274.4px" width="213.35px" xmlns="http://www.w3.org/2000/svg">
  <g transform="matrix(1, 0, 0, 1, 102.1, 340.75)">
    <path d="M7.85 -311.9 L8.5 -310.4 9.4 -310.35 10.05 -310.05 10.3 -309.45 10.5 -307.05 11.5 -306.4 11.5 -306.45 13.0 -306.25 Q13.5 -306.35 14.9 -307.6 L14.9 -307.65 Q17.45 -310.0 19.9 -311.35 29.3 -316.75 48.0 -316.75 60.25 -316.75 68.25 -310.55 L68.3 -310.5 Q70.65 -308.7 73.05 -305.85 L75.6 -303.05 75.95 -302.55 75.95 -301.9 75.6 -301.45 75.0 -301.25 Q64.45 -301.25 64.25 -297.75 L67.15 -294.8 75.05 -286.7 75.05 -286.75 Q87.9 -273.15 94.9 -260.45 98.7 -253.55 103.7 -241.0 L111.2 -221.35 111.25 -221.0 111.25 -210.5 110.95 -209.8 Q110.65 -209.5 110.25 -209.5 L109.75 -209.5 109.35 -209.6 109.0 -209.85 105.15 -214.25 Q94.15 -226.3 76.2 -240.55 57.5 -255.3 47.25 -258.75 L43.75 -259.6 Q43.45 -259.65 43.25 -259.85 L42.95 -260.3 Q41.4 -265.5 38.4 -270.45 34.05 -277.6 22.2 -287.55 11.45 -296.6 9.0 -296.75 7.8 -296.75 7.0 -295.85 L7.0 -295.8 Q6.3 -295.05 6.25 -294.25 6.4 -293.05 11.05 -289.0 L22.45 -278.7 Q39.3 -261.85 39.25 -244.35 39.25 -232.6 38.0 -227.25 L37.65 -226.7 37.0 -226.5 36.75 -226.5 36.15 -226.7 35.8 -227.3 Q33.3 -239.2 23.3 -255.5 12.9 -272.55 6.5 -272.75 7.0 -272.55 1.9 -255.4 -4.1 -235.05 -6.3 -229.15 -6.45 -228.8 -6.75 -228.6 L-7.4 -228.5 Q-7.8 -228.6 -8.0 -228.85 L-8.25 -229.5 -8.0 -242.75 Q-7.8 -252.4 -8.1 -258.65 -8.95 -275.55 -13.45 -276.65 L-14.45 -274.9 Q-27.2 -253.05 -32.25 -247.55 -35.7 -243.8 -39.25 -238.85 L-39.2 -238.85 -44.9 -231.0 Q-50.6 -223.4 -58.2 -218.25 L-60.75 -216.65 -61.4 -216.5 Q-61.8 -216.6 -62.0 -216.85 L-62.25 -217.5 -62.25 -245.25 -62.25 -245.4 Q-59.15 -266.2 -48.2 -285.4 -45.85 -289.55 -41.1 -296.75 -38.35 -301.0 -38.25 -301.85 -38.3 -304.75 -41.5 -304.75 -46.15 -304.55 -54.0 -289.55 L-54.0 -289.6 Q-60.7 -276.75 -63.0 -268.0 -67.6 -250.45 -67.6 -228.5 -67.6 -211.05 -66.4 -202.05 L-65.5 -201.45 -65.4 -201.4 -64.0 -201.25 Q-64.05 -201.45 -61.95 -203.85 L-59.7 -206.45 -59.1 -206.8 -58.45 -206.65 -58.0 -206.1 Q-54.1 -193.5 -53.1 -188.85 -52.75 -187.2 -52.75 -186.5 -52.75 -176.4 -57.1 -162.55 -57.2 -162.2 -57.55 -162.0 L-58.25 -161.9 -58.85 -162.3 -60.5 -164.7 Q-61.2 -164.55 -61.8 -164.0 -62.75 -163.15 -62.75 -161.75 -62.75 -158.7 -61.8 -155.8 L-61.8 -155.15 Q-62.2 -154.15 -62.1 -151.75 L-61.85 -151.5 -61.55 -151.0 Q-61.5 -150.75 -61.6 -150.45 L-63.05 -146.5 -63.55 -145.95 -64.3 -145.9 Q-68.55 -147.35 -74.55 -147.65 L-75.05 -147.85 -75.4 -148.25 -75.5 -148.8 -75.1 -154.05 Q-74.8 -160.45 -75.1 -167.45 L-75.1 -167.5 -75.3 -178.7 -75.25 -178.9 -75.1 -180.75 -75.4 -183.15 -75.45 -183.3 -75.5 -183.65 Q-76.15 -195.4 -77.6 -207.35 -80.1 -227.9 -80.1 -242.85 L-80.35 -252.35 Q-80.5 -256.45 -80.05 -258.85 -79.25 -263.95 -71.7 -278.2 -68.25 -284.8 -61.7 -298.9 -57.8 -307.3 -55.15 -309.9 -51.75 -313.3 -44.95 -314.15 L-25.0 -314.75 Q4.1 -314.75 7.5 -312.3 L7.85 -311.9 M83.65 -226.85 L84.25 -227.2 84.95 -227.0 86.35 -226.05 91.05 -221.7 91.25 -221.3 91.3 -220.85 91.25 -220.1 Q91.3 -217.9 94.95 -208.25 L98.45 -198.9 99.25 -196.75 99.25 -196.7 99.6 -194.8 Q101.05 -186.95 101.25 -175.65 L101.25 -172.5 101.25 -172.35 97.65 -145.6 97.3 -144.95 Q97.0 -144.75 96.65 -144.7 L96.55 -144.7 96.45 -144.7 96.3 -144.7 96.05 -144.7 96.0 -144.7 95.75 -144.7 95.7 -144.7 94.7 -144.65 94.6 -144.65 94.4 -144.6 Q88.65 -144.3 84.75 -143.1 L82.7 -142.4 82.2 -142.3 Q81.9 -142.35 81.7 -142.55 L81.5 -142.75 Q78.7 -146.0 78.75 -149.5 78.75 -150.55 80.15 -155.45 80.3 -157.15 79.6 -157.95 L79.3 -158.45 79.35 -159.0 79.7 -159.45 84.65 -163.6 Q94.5 -173.05 94.6 -181.15 L94.6 -181.35 94.6 -181.45 94.25 -182.7 94.2 -182.75 94.1 -183.15 94.1 -183.1 93.85 -183.85 93.35 -185.2 89.5 -194.9 Q83.95 -207.95 83.65 -209.8 83.15 -212.4 83.25 -218.2 L83.4 -226.2 Q83.4 -226.6 83.65 -226.85 M90.7 -232.3 L91.1 -232.1 91.15 -232.1 91.15 -232.15 90.7 -232.3 M82.9 -125.25 L98.1 -126.3 98.65 -126.25 99.1 -125.9 99.25 -125.35 Q99.3 -123.75 100.6 -121.95 102.25 -119.55 102.25 -116.5 102.3 -114.35 98.55 -104.05 94.65 -93.35 92.75 -91.3 L92.25 -91.0 91.7 -91.05 Q91.4 -91.15 91.2 -91.4 L90.75 -92.0 90.15 -92.2 89.8 -92.75 Q84.65 -114.45 81.95 -123.95 L81.95 -124.55 82.3 -125.05 Q82.55 -125.25 82.9 -125.25 M73.0 -153.45 L73.25 -152.75 73.25 -150.0 73.25 -149.95 Q73.05 -146.2 74.0 -142.7 74.9 -139.05 76.95 -137.4 L77.25 -137.0 77.3 -136.55 77.3 -136.45 77.05 -135.75 Q76.8 -135.45 76.4 -135.4 76.0 -135.35 75.7 -135.6 L75.65 -135.65 75.6 -135.65 Q72.9 -137.75 69.5 -137.75 66.0 -137.65 63.15 -132.9 60.1 -126.35 58.85 -124.25 L58.5 -123.85 58.0 -123.75 52.25 -127.45 Q47.6 -130.65 46.0 -130.75 42.8 -130.7 40.5 -127.25 38.0 -122.5 36.65 -121.45 L35.95 -121.25 Q35.55 -121.3 35.3 -121.55 L31.55 -125.3 31.5 -125.35 Q28.8 -127.7 27.0 -127.75 25.35 -127.7 23.8 -125.65 L23.65 -125.45 23.5 -125.3 23.55 -125.35 23.0 -124.55 22.95 -124.5 22.75 -124.1 22.7 -124.05 22.55 -123.7 22.55 -123.75 22.5 -123.55 22.5 -123.5 22.35 -123.05 21.85 -122.45 21.1 -122.35 Q19.05 -122.8 17.65 -125.95 L17.6 -125.95 Q15.15 -128.35 15.0 -130.25 14.95 -130.65 15.2 -130.95 15.4 -131.25 15.8 -131.35 L17.05 -131.6 24.25 -133.35 Q42.6 -138.2 58.9 -146.4 65.75 -149.85 71.45 -153.45 L71.65 -153.55 71.7 -153.6 72.4 -153.75 73.0 -153.45 M-42.35 -340.75 Q-27.35 -340.75 -16.15 -329.2 -13.85 -326.8 -10.2 -322.0 -9.95 -321.7 -10.0 -321.3 -10.05 -320.9 -10.35 -320.65 L-11.05 -320.4 Q-17.7 -320.75 -26.0 -320.75 -33.2 -320.75 -42.3 -321.05 -48.15 -320.9 -51.55 -318.5 -55.35 -315.9 -60.7 -307.75 L-75.75 -283.0 Q-83.5 -269.85 -85.0 -261.75 -85.6 -258.65 -85.6 -243.75 -85.6 -237.25 -83.7 -215.35 L-81.6 -192.9 Q-81.1 -189.7 -80.9 -184.8 L-80.9 -184.75 -81.2 -184.05 Q-81.5 -183.75 -81.9 -183.75 L-82.35 -183.75 Q-83.35 -183.65 -91.15 -179.5 -98.85 -175.45 -100.6 -175.05 L-100.55 -175.05 -101.05 -175.0 -101.7 -175.2 -102.05 -175.75 -102.0 -176.45 -101.75 -176.95 -101.7 -177.05 Q-91.15 -193.3 -91.5 -218.15 L-91.5 -218.2 -92.5 -238.85 Q-93.05 -251.2 -92.1 -259.1 -91.35 -265.3 -92.3 -279.45 L-92.3 -279.55 Q-92.4 -292.2 -87.75 -299.9 L-87.45 -300.4 -87.4 -300.4 -87.2 -300.75 -87.1 -300.85 -87.2 -300.8 Q-76.7 -316.9 -70.85 -323.6 -57.75 -338.5 -46.0 -340.4 L-42.35 -340.75 M-54.65 -145.2 Q-48.95 -140.35 -46.2 -138.6 -38.65 -133.75 -30.7 -131.15 L-30.2 -130.8 -30.0 -130.25 Q-30.0 -129.95 -30.15 -129.7 -31.45 -127.55 -33.7 -124.6 L-35.35 -122.6 Q-35.6 -122.35 -35.95 -122.3 L-36.6 -122.4 -38.0 -122.75 Q-39.05 -122.7 -40.55 -121.75 L-40.6 -121.7 Q-42.8 -120.45 -44.25 -120.5 -46.1 -120.5 -46.45 -121.05 -47.2 -121.7 -46.55 -122.6 L-46.25 -123.0 -46.15 -126.35 Q-46.6 -128.75 -49.0 -128.75 -52.9 -128.75 -55.5 -127.4 L-56.0 -127.3 -56.5 -127.45 -56.85 -127.85 -57.75 -129.2 -58.05 -129.65 -58.05 -130.2 -57.8 -130.65 -57.2 -131.5 -57.15 -131.5 Q-56.7 -132.5 -56.9 -134.0 L-56.9 -134.05 -57.2 -136.4 -57.25 -136.6 -57.25 -140.7 -57.25 -140.85 -57.25 -141.15 -57.5 -142.45 -57.5 -142.95 -57.3 -143.4 -56.15 -145.0 -55.75 -145.35 -55.2 -145.45 -54.65 -145.2 M-60.55 -127.55 L-60.8 -126.5 Q-61.3 -124.15 -61.8 -117.1 -62.9 -101.2 -66.6 -97.1 L-67.1 -96.75 -67.75 -96.8 -68.2 -97.25 Q-74.15 -107.25 -74.65 -108.95 L-74.65 -108.9 Q-75.1 -110.1 -75.1 -117.6 -75.1 -119.15 -74.05 -123.1 -73.4 -125.6 -73.2 -127.4 L-72.85 -128.05 Q-72.55 -128.35 -72.15 -128.3 L-68.5 -128.25 -61.7 -128.85 -61.05 -128.75 -60.55 -128.25 -60.55 -127.55 M-80.25 -146.25 L-80.6 -145.25 -80.5 -144.55 -80.6 -143.95 Q-81.6 -142.0 -81.6 -138.25 -81.6 -132.65 -80.05 -130.3 L-79.85 -129.85 -79.95 -129.35 -80.15 -128.65 -80.45 -128.15 Q-80.7 -127.95 -81.0 -127.9 L-81.55 -128.0 -85.55 -129.85 -85.9 -130.15 -86.05 -130.5 Q-86.55 -132.5 -86.05 -137.55 -86.4 -140.85 -90.25 -141.5 L-90.8 -141.8 -91.05 -142.3 -91.0 -142.9 -82.9 -159.35 -82.4 -159.8 -81.75 -159.85 -81.2 -159.5 -81.0 -158.9 Q-80.95 -151.25 -80.15 -146.95 -80.05 -146.6 -80.25 -146.25" fill="#283960" fill-rule="evenodd" stroke="none"/>
    <path d="M-59.2 -66.7 L-59.3 -66.7 -59.25 -67.0 -59.2 -66.7 M-20.45 -66.85 L-19.85 -66.35 -20.45 -66.4 -20.45 -66.85" fill="#ff1111" fill-rule="evenodd" stroke="none"/>
  </g>
</svg>
