<?xml version="1.0" encoding="UTF-8" standalone="no"?>
<svg xmlns:xlink="http://www.w3.org/1999/xlink" height="271.5px" width="245.15px" xmlns="http://www.w3.org/2000/svg">
  <g transform="matrix(1, 0, 0, 1, 137.1, 331.2)">
    <path d="M78.35 -299.35 Q83.9 -296.1 89.6 -291.1 95.15 -286.25 107.6 -278.45 L108.0 -277.9 108.0 -277.2 107.5 -276.7 106.8 -276.6 84.35 -282.25 87.5 -276.6 87.55 -276.55 Q91.3 -270.1 92.6 -268.2 104.9 -249.7 107.5 -232.5 L107.4 -231.9 107.0 -231.45 106.4 -231.35 105.85 -231.6 Q96.25 -239.75 78.45 -266.85 77.05 -266.7 76.6 -265.45 L76.65 -265.45 Q76.5 -265.0 76.5 -263.0 76.55 -258.85 80.2 -250.65 84.05 -241.95 84.0 -237.6 84.0 -235.8 83.65 -235.2 L83.15 -234.8 82.55 -234.7 Q82.2 -234.8 82.0 -235.05 73.7 -244.6 59.4 -262.1 L51.85 -271.15 Q51.55 -271.45 51.6 -271.85 51.75 -274.65 50.9 -276.05 50.1 -277.2 48.45 -277.2 L44.25 -263.75 Q38.9 -246.95 33.5 -238.85 L33.0 -238.45 32.35 -238.45 31.85 -238.8 31.65 -239.4 Q31.65 -268.2 24.55 -287.25 20.4 -271.15 19.4 -266.5 13.45 -239.9 8.55 -232.95 L8.1 -232.6 7.6 -232.55 Q7.3 -232.6 7.1 -232.75 -5.75 -242.75 -9.5 -247.55 -14.3 -253.65 -14.3 -261.95 -14.35 -267.2 -8.7 -282.55 -8.7 -284.15 -8.95 -284.85 L-9.95 -285.55 -10.95 -285.75 Q-19.15 -280.65 -25.65 -266.95 L-25.6 -267.0 Q-34.45 -246.3 -37.8 -239.85 L-38.25 -239.45 -38.8 -239.35 Q-39.15 -239.4 -39.35 -239.6 L-39.65 -240.1 Q-41.6 -248.3 -41.3 -254.75 -41.0 -261.15 -38.55 -274.6 L-38.0 -277.7 Q-38.55 -279.1 -40.35 -279.1 -44.95 -278.85 -52.95 -259.0 -59.1 -243.95 -64.05 -225.85 L-64.5 -225.25 -65.3 -225.2 -65.8 -225.35 -66.25 -225.6 -66.5 -226.05 Q-67.35 -229.9 -69.75 -237.6 -71.75 -244.8 -71.6 -251.8 -71.45 -258.9 -64.3 -272.45 L-60.4 -279.5 Q-61.2 -280.05 -62.45 -280.05 -63.5 -280.05 -64.55 -279.5 -69.0 -277.2 -72.8 -266.3 L-73.85 -263.2 Q-76.75 -254.35 -76.75 -249.45 -76.75 -239.75 -73.1 -228.75 L-68.4 -214.5 -68.35 -214.2 -68.35 -211.1 Q-68.35 -206.6 -66.45 -190.15 -64.55 -173.6 -64.55 -166.7 -64.55 -162.95 -66.0 -157.85 -67.0 -154.4 -67.3 -151.8 L-67.5 -151.35 -67.85 -151.05 Q-70.85 -149.65 -74.3 -149.65 L-78.35 -149.8 -81.9 -149.8 -82.3 -149.85 -82.65 -150.15 Q-94.0 -163.05 -97.9 -183.1 L-98.35 -185.5 Q-101.8 -203.65 -101.8 -213.5 L-101.8 -214.15 Q-101.65 -224.75 -97.1 -244.05 -92.65 -263.15 -88.85 -270.45 -79.3 -289.0 -66.75 -299.45 -60.75 -304.5 -55.85 -307.7 -50.5 -311.25 -46.45 -312.7 -41.5 -314.45 -34.95 -315.7 L-27.3 -316.95 -21.6 -317.65 -15.3 -318.3 -3.2 -319.15 -3.1 -319.15 Q25.15 -318.75 42.8 -315.1 59.0 -311.8 69.2 -304.85 72.85 -302.5 78.35 -299.35 M94.35 -235.65 L94.3 -228.25 96.2 -192.1 95.85 -185.4 95.45 -184.75 94.75 -184.5 94.2 -184.55 Q93.9 -184.6 93.7 -184.75 L93.35 -185.2 89.5 -194.9 Q86.5 -201.9 85.05 -205.65 L83.65 -217.0 83.8 -217.6 84.2 -218.05 84.8 -218.15 85.35 -217.85 Q86.6 -216.65 87.3 -216.9 88.15 -217.6 88.55 -220.4 89.5 -227.2 87.5 -244.45 87.45 -244.85 87.65 -245.15 L88.2 -245.55 88.9 -245.5 89.4 -245.05 94.25 -236.1 94.35 -235.65 M87.25 -206.15 L85.75 -206.4 86.5 -205.45 87.25 -206.15 M92.65 -170.7 L92.75 -170.0 89.7 -158.55 89.4 -157.95 88.75 -157.75 Q87.75 -157.7 85.7 -156.85 83.15 -155.8 81.8 -155.85 80.5 -155.6 79.5 -158.4 79.35 -158.75 79.45 -159.05 L79.8 -159.55 84.65 -163.6 Q88.55 -167.3 90.95 -170.8 L91.5 -171.25 92.2 -171.15 92.65 -170.7 M-30.5 -324.2 L-31.2 -324.0 Q-32.2 -324.1 -33.8 -323.35 L-34.05 -323.25 Q-75.4 -316.85 -94.5 -272.0 -101.75 -255.0 -105.0 -234.3 -106.9 -222.05 -106.9 -213.85 -106.9 -207.25 -105.0 -196.1 L-103.9 -189.95 -103.85 -189.6 -109.8 -142.9 Q-111.6 -126.95 -113.95 -111.65 -116.7 -85.4 -132.2 -60.15 L-132.75 -59.75 -133.45 -59.8 -133.95 -60.0 -134.45 -60.55 Q-134.65 -60.9 -134.5 -61.25 -131.8 -68.7 -130.5 -74.9 -126.75 -93.15 -126.75 -107.15 -126.75 -122.8 -131.9 -159.0 -137.1 -195.35 -137.1 -208.45 L-134.75 -227.85 -134.7 -227.9 Q-131.05 -250.8 -124.35 -269.85 -102.7 -331.3 -58.8 -331.2 -41.75 -331.2 -30.65 -325.9 L-30.2 -325.45 -30.1 -324.75 -30.5 -324.2" fill="#dac2f6" fill-rule="evenodd" stroke="none"/>
  </g>
</svg>
