<?xml version="1.0" encoding="UTF-8" standalone="no"?>
<svg xmlns:xlink="http://www.w3.org/1999/xlink" height="201.05px" width="232.35px" xmlns="http://www.w3.org/2000/svg">
  <g transform="matrix(1, 0, 0, 1, 118.2, 318.8)">
    <path d="M44.9 -275.45 L44.85 -275.45 Q39.15 -282.75 35.7 -282.9 L35.5 -282.9 35.25 -282.9 Q32.25 -282.9 32.2 -280.35 32.3 -279.9 34.9 -276.2 37.9 -271.85 37.9 -267.3 37.95 -262.45 31.95 -253.95 27.65 -248.0 20.9 -240.6 20.6 -240.3 20.2 -240.3 19.8 -240.3 19.5 -240.55 19.2 -240.8 19.15 -241.2 17.7 -256.6 7.9 -270.05 3.8 -275.65 -0.5 -280.1 L-2.2 -281.75 -2.4 -282.1 Q-3.5 -284.7 -5.1 -284.8 -8.05 -284.8 -8.1 -282.25 -8.1 -280.5 -6.7 -275.75 -5.25 -270.6 -5.25 -269.55 -5.2 -266.55 -7.7 -259.3 -10.0 -252.6 -11.5 -250.4 L-12.05 -250.05 -12.7 -250.05 -13.2 -250.45 Q-16.9 -256.35 -19.75 -259.9 L-20.0 -260.5 -20.0 -261.4 Q-20.7 -263.75 -23.45 -264.0 L-23.95 -264.2 Q-25.0 -264.95 -25.75 -265.0 -28.75 -265.0 -28.8 -262.55 L-28.0 -261.7 -27.85 -261.4 Q-27.65 -260.9 -26.75 -259.95 L-26.65 -259.85 -25.2 -257.85 -25.0 -257.25 Q-25.05 -248.7 -32.85 -242.6 L-32.9 -242.6 Q-37.45 -239.1 -49.65 -233.7 -57.35 -230.3 -61.95 -227.6 L-61.95 -227.65 Q-64.4 -226.2 -65.95 -224.95 -69.95 -221.8 -71.7 -217.95 L-72.15 -217.45 -72.85 -217.4 Q-73.2 -217.5 -73.4 -217.75 -76.4 -221.75 -76.4 -226.45 L-76.3 -228.6 Q-75.6 -235.95 -70.05 -244.25 L-70.1 -244.25 -65.85 -250.3 Q-64.2 -252.75 -64.15 -253.85 -64.15 -254.65 -64.5 -255.35 L-64.55 -255.4 Q-65.15 -256.55 -66.7 -256.55 -73.8 -256.35 -78.25 -242.4 -80.95 -234.05 -81.4 -228.4 L-81.5 -226.2 -81.5 -226.1 Q-82.0 -220.9 -80.4 -215.9 -78.2 -209.0 -72.35 -207.05 L-72.1 -206.95 Q-71.2 -206.3 -69.55 -206.3 L-68.7 -206.35 -68.5 -206.35 -67.2 -206.3 Q-63.45 -206.3 -63.3 -208.75 -63.45 -209.5 -64.95 -210.65 L-67.45 -212.45 -67.8 -212.85 -67.85 -213.4 Q-67.3 -218.5 -59.95 -222.9 L-53.5 -226.05 -52.95 -226.15 -52.4 -225.9 -52.1 -225.4 -51.4 -223.2 Q-50.4 -220.45 -50.4 -219.2 -50.4 -215.15 -52.8 -208.6 -53.9 -205.7 -58.0 -196.35 L-58.35 -195.6 Q-65.45 -179.4 -65.5 -170.9 L-63.5 -160.55 -63.6 -159.95 -64.0 -159.5 -64.55 -159.35 -65.15 -159.6 -71.75 -164.5 Q-79.75 -170.1 -80.5 -171.4 L-80.5 -171.45 Q-82.2 -174.3 -82.8 -179.6 L-83.3 -188.6 Q-83.55 -193.15 -84.55 -195.6 -85.6 -198.0 -87.4 -198.1 -89.25 -198.1 -89.8 -196.75 L-89.9 -195.95 -89.95 -194.0 Q-86.8 -170.7 -84.25 -166.5 -83.2 -164.85 -79.1 -162.1 -72.8 -158.0 -71.1 -156.6 -61.2 -148.6 -64.1 -138.2 L-63.45 -137.8 -61.95 -137.65 Q-59.95 -137.7 -59.5 -140.25 L-59.5 -140.3 -59.5 -141.45 -59.45 -141.7 -58.55 -146.25 -58.25 -146.8 -58.05 -146.95 -57.4 -147.25 Q-57.0 -147.3 -56.7 -147.0 -49.4 -140.65 -46.2 -138.6 -30.05 -128.25 -12.15 -128.25 4.85 -128.25 24.25 -133.35 42.6 -138.2 58.9 -146.4 65.75 -149.85 71.45 -153.45 L71.65 -153.55 Q81.35 -160.5 84.65 -163.6 94.5 -173.05 94.6 -181.15 L93.35 -185.2 89.5 -194.9 Q83.95 -207.95 83.65 -209.8 83.15 -212.4 83.25 -218.2 L83.4 -226.15 Q83.4 -226.55 83.65 -226.8 83.9 -227.1 84.3 -227.1 86.4 -227.25 87.95 -228.4 89.95 -229.85 89.95 -232.25 89.85 -232.75 88.6 -234.25 87.4 -233.95 84.15 -232.25 79.4 -229.65 71.3 -237.8 63.75 -245.35 55.65 -258.75 47.65 -271.95 44.9 -275.45 M96.2 -250.15 L98.5 -230.6 Q99.5 -218.7 98.1 -210.9 97.2 -205.75 99.35 -200.45 100.85 -196.75 104.85 -191.2 L111.15 -182.15 Q114.15 -176.75 114.15 -172.05 114.15 -165.7 110.75 -160.5 108.4 -157.0 103.4 -152.65 L96.35 -146.25 Q93.4 -142.85 93.35 -139.25 93.4 -138.25 94.6 -136.55 L94.65 -136.55 Q96.25 -134.25 96.2 -132.5 96.45 -130.2 88.2 -125.6 L87.05 -124.95 86.4 -124.8 Q86.05 -124.85 85.85 -125.1 L85.55 -125.65 85.35 -126.8 Q83.85 -132.2 80.35 -132.35 78.45 -132.3 76.8 -130.45 L73.2 -125.65 Q67.65 -118.2 58.75 -118.2 57.65 -118.15 57.0 -119.2 L56.95 -119.3 Q56.65 -119.65 56.3 -120.5 55.15 -122.0 51.65 -122.0 46.45 -122.0 40.55 -119.0 L39.1 -118.25 38.35 -118.15 37.75 -118.55 Q35.5 -122.0 30.5 -122.0 L27.8 -120.15 27.8 -120.1 Q24.7 -117.95 21.35 -117.95 18.75 -117.9 12.15 -121.45 6.2 -124.65 5.1 -124.75 1.0 -124.7 -4.25 -121.5 L-7.9 -118.9 -8.55 -118.6 -9.2 -118.85 Q-15.4 -123.8 -18.25 -123.9 -19.75 -123.8 -21.55 -121.2 L-21.6 -121.2 Q-24.05 -117.75 -29.2 -117.75 -33.6 -117.75 -42.75 -121.3 L-51.3 -124.75 Q-54.3 -124.55 -54.95 -120.8 -55.0 -120.45 -55.25 -120.25 -55.5 -120.0 -55.8 -119.95 L-56.4 -120.1 Q-72.05 -129.4 -73.35 -129.5 -75.75 -129.4 -75.8 -126.2 L-74.95 -120.45 Q-74.85 -120.15 -75.0 -119.85 -75.15 -119.55 -75.4 -119.4 L-76.0 -119.25 Q-80.9 -119.7 -83.25 -122.25 -85.35 -124.4 -86.25 -129.35 -87.35 -135.45 -87.85 -136.8 L-87.85 -136.85 Q-89.35 -140.6 -92.9 -142.3 L-92.95 -142.3 Q-94.1 -142.85 -97.1 -144.8 L-97.05 -144.8 Q-101.8 -147.8 -105.65 -150.85 -118.3 -161.0 -118.2 -168.85 -118.25 -179.05 -108.1 -191.3 L-108.1 -191.25 -103.75 -196.6 -101.45 -199.7 -101.4 -199.7 Q-98.55 -203.9 -98.5 -207.3 -98.5 -220.0 -97.65 -228.6 L-96.9 -234.35 -96.95 -234.35 Q-95.35 -244.6 -89.3 -263.65 -87.6 -269.2 -82.9 -276.8 -76.75 -287.05 -68.25 -295.2 -43.95 -318.75 -9.75 -318.75 L-1.35 -318.75 Q62.7 -319.95 89.1 -270.3 95.2 -258.95 96.2 -250.15" fill="#fefd92" fill-rule="evenodd" stroke="none"/>
  </g>
</svg>
