<?xml version="1.0" encoding="UTF-8" standalone="no"?>
<svg xmlns:xlink="http://www.w3.org/1999/xlink" height="295.65px" width="207.45px" xmlns="http://www.w3.org/2000/svg">
  <g transform="matrix(1, 0, 0, 1, 106.15, 316.9)">
    <path d="M44.95 -276.25 Q48.85 -264.4 50.35 -252.85 L50.2 -252.2 Q49.95 -251.9 49.6 -251.75 L48.9 -251.85 48.45 -252.4 Q44.2 -263.3 41.8 -268.5 L41.8 -268.55 Q39.3 -274.1 37.8 -276.7 36.4 -275.25 36.4 -273.0 36.4 -270.6 39.3 -239.35 L39.3 -239.1 39.15 -238.1 38.85 -237.55 Q38.6 -237.35 38.3 -237.3 L22.2 -235.75 Q10.65 -234.75 5.9 -233.65 L5.3 -233.7 4.85 -234.1 4.65 -234.65 4.75 -250.25 4.8 -261.45 Q4.3 -267.7 3.65 -270.2 L3.45 -270.85 3.2 -270.8 Q1.25 -270.55 -3.45 -255.8 -8.35 -240.5 -9.7 -234.35 -9.7 -233.95 -9.95 -233.65 L-10.65 -233.35 -38.5 -231.45 -39.05 -231.55 -39.45 -231.95 -39.6 -232.5 Q-38.65 -256.25 -37.9 -267.6 L-39.25 -267.7 Q-41.05 -262.15 -48.65 -246.8 -56.7 -230.65 -57.3 -216.3 -57.3 -215.9 -57.6 -215.65 -57.85 -215.35 -58.25 -215.35 L-58.95 -215.55 Q-63.1 -219.05 -66.8 -225.85 -70.5 -232.65 -70.7 -240.5 -70.9 -248.4 -67.35 -255.6 L-64.2 -261.95 -65.3 -262.15 Q-68.55 -259.4 -71.0 -253.95 -73.65 -248.2 -73.95 -242.25 -74.3 -236.3 -71.0 -225.95 -67.9 -216.35 -57.65 -210.25 L-57.3 -209.95 -57.15 -209.5 -55.8 -190.9 Q-54.7 -176.45 -55.55 -156.1 -56.35 -138.0 -61.3 -127.3 -66.25 -116.7 -73.0 -106.7 L-74.6 -104.05 Q-71.45 -95.0 -68.9 -90.2 -64.95 -82.9 -66.3 -74.9 -67.6 -67.15 -71.6 -58.3 -75.7 -49.3 -78.2 -47.35 L-78.9 -47.15 Q-79.3 -47.2 -79.55 -47.45 L-79.85 -48.15 -79.85 -48.65 -79.8 -48.85 Q-78.9 -53.9 -83.2 -64.15 -88.3 -76.05 -88.25 -80.95 -88.25 -87.3 -84.45 -95.5 -83.45 -97.7 -81.3 -104.2 -84.2 -107.05 -89.7 -116.75 L-89.75 -116.95 Q-94.05 -130.6 -96.8 -140.55 -103.2 -163.85 -102.9 -182.55 L-102.8 -188.65 -102.65 -191.55 -102.6 -192.6 -102.6 -192.65 Q-102.25 -199.95 -101.5 -207.3 L-99.85 -220.4 -99.15 -225.0 Q-96.7 -240.8 -94.15 -248.75 -91.3 -257.8 -86.75 -268.25 -82.2 -278.8 -74.55 -288.25 -66.95 -297.75 -59.8 -302.35 -52.7 -306.9 -42.65 -310.8 -32.6 -314.75 -27.25 -315.7 L-13.9 -316.85 Q63.75 -318.3 89.4 -273.1 96.55 -260.5 100.0 -242.0 L101.3 -235.15 101.15 -234.45 100.6 -234.0 99.9 -234.05 97.95 -234.85 Q88.7 -238.5 76.55 -238.05 L76.5 -238.05 66.85 -237.6 66.75 -237.6 66.1 -237.65 65.65 -238.15 Q47.0 -277.0 47.1 -277.25 L45.5 -276.95 44.95 -276.25 M88.4 -233.9 L88.95 -233.65 89.3 -233.15 90.45 -229.55 90.5 -229.45 95.25 -207.35 Q99.95 -183.4 99.95 -161.7 99.95 -145.2 93.05 -119.95 L93.05 -120.0 91.35 -114.2 Q88.25 -104.7 86.05 -101.65 90.75 -94.15 91.45 -91.75 92.6 -88.1 92.6 -82.65 92.6 -75.95 90.65 -69.8 L90.3 -69.3 89.7 -69.1 89.4 -69.1 Q90.05 -69.1 89.75 -67.3 L89.7 -67.1 88.95 -65.25 Q85.3 -57.2 79.9 -46.55 L79.35 -46.05 78.55 -46.1 78.05 -46.65 Q77.9 -47.05 78.1 -47.4 80.75 -53.3 76.3 -66.7 71.5 -80.9 71.55 -85.05 71.55 -89.75 74.85 -95.6 L78.4 -101.55 Q77.65 -103.2 75.5 -106.5 72.9 -110.5 70.1 -116.55 67.25 -122.6 65.5 -128.2 63.65 -133.95 63.65 -137.9 L63.85 -146.95 63.85 -148.3 63.95 -148.85 64.35 -149.25 Q68.1 -151.35 71.45 -153.45 L71.65 -153.55 Q81.35 -160.5 84.65 -163.6 94.5 -173.05 94.6 -181.15 L93.35 -185.2 89.5 -194.9 Q83.95 -207.95 83.65 -209.8 83.15 -212.4 83.25 -218.2 83.4 -227.4 83.7 -233.15 83.7 -233.55 84.0 -233.8 84.3 -234.1 84.75 -234.1 L88.4 -233.9 M58.25 -145.75 L58.8 -145.35 58.95 -144.65 Q58.35 -140.4 61.45 -128.0 62.95 -122.0 65.0 -117.1 L65.05 -116.8 Q65.25 -115.75 70.05 -108.85 L74.55 -102.6 74.75 -101.85 74.4 -101.2 Q72.15 -99.3 70.5 -95.0 68.2 -89.1 68.2 -84.25 68.25 -81.75 71.9 -71.55 L71.9 -71.5 Q75.65 -60.95 75.55 -49.35 75.5 -43.05 71.8 -37.75 71.45 -36.2 72.0 -35.85 73.15 -35.55 76.1 -37.0 80.2 -39.15 85.25 -49.15 L85.75 -49.65 86.45 -49.65 Q86.8 -49.6 87.0 -49.25 L87.15 -48.6 84.7 -28.75 84.35 -28.1 83.7 -27.85 78.35 -27.1 59.5 -24.7 59.0 -24.8 Q58.7 -24.95 58.55 -25.15 58.4 -25.4 58.4 -25.7 L58.4 -26.45 58.25 -29.75 Q57.9 -31.4 56.4 -31.45 L54.7 -31.25 54.7 -31.2 54.4 -31.05 54.4 -24.35 54.1 -23.65 Q53.8 -23.35 53.4 -23.35 L25.05 -23.35 Q24.65 -23.35 24.35 -23.65 24.05 -23.95 24.05 -24.35 24.15 -29.95 21.35 -31.25 L19.25 -31.9 Q19.15 -27.25 18.85 -25.3 L18.55 -24.7 17.9 -24.45 Q-4.75 -23.35 -12.55 -23.75 -20.15 -24.2 -21.5 -23.9 L-22.05 -23.95 -22.5 -24.25 -22.75 -24.75 Q-23.7 -32.9 -24.75 -32.9 L-26.6 -32.65 -26.3 -22.75 Q-26.3 -22.35 -26.55 -22.05 -26.85 -21.75 -27.25 -21.75 L-36.9 -21.3 -52.55 -22.35 Q-64.15 -23.75 -65.25 -25.2 L-65.5 -25.55 -65.55 -25.95 Q-65.3 -29.95 -65.7 -33.9 -66.05 -37.0 -68.0 -37.25 L-70.2 -37.3 -70.1 -28.4 Q-70.1 -28.1 -70.25 -27.85 L-70.65 -27.5 -71.15 -27.4 Q-88.5 -28.6 -103.4 -37.85 L-103.75 -38.2 -103.9 -38.7 -103.9 -45.15 Q-104.65 -58.85 -105.45 -84.2 L-106.15 -109.7 Q-106.15 -120.95 -105.1 -144.1 L-104.85 -144.75 -104.2 -145.05 -103.55 -144.9 -103.15 -144.3 -100.05 -133.6 Q-96.3 -121.7 -93.65 -115.55 -90.45 -108.05 -85.15 -104.1 L-84.85 -103.7 -84.75 -103.2 Q-84.8 -102.9 -85.0 -102.7 -87.6 -99.45 -89.35 -94.2 -91.65 -87.45 -91.65 -81.1 -91.6 -76.9 -87.4 -64.95 -83.1 -52.7 -82.85 -48.6 -82.55 -44.35 -85.1 -39.8 L-86.55 -37.05 Q-79.95 -35.0 -72.5 -48.6 -64.15 -64.0 -63.2 -72.9 -62.3 -81.75 -62.75 -84.5 -63.3 -87.25 -65.85 -92.75 L-70.75 -102.8 -70.85 -103.25 -70.7 -103.75 Q-68.3 -107.9 -66.35 -110.2 L-66.4 -110.1 Q-57.2 -122.9 -53.55 -142.85 L-53.2 -143.5 -52.5 -143.7 -51.85 -143.35 -51.6 -142.7 -51.6 -142.65 -46.2 -138.6 Q-30.05 -128.25 -12.15 -128.25 4.85 -128.25 24.25 -133.35 41.8 -138.0 57.5 -145.7 L58.25 -145.75 M-79.3 -107.3 L-78.6 -106.45 -77.8 -107.15 -78.0 -107.75 -79.3 -107.3" fill="#ab80bf" fill-rule="evenodd" stroke="none"/>
    <path d="M65.45 -229.5 L65.3 -230.0 65.45 -229.5 M-78.7 -107.05 L-78.65 -107.45 -78.6 -107.45 -78.7 -107.05" fill="#000001" fill-rule="evenodd" stroke="none"/>
  </g>
</svg>
