<?xml version="1.0" encoding="UTF-8" standalone="no"?>
<svg xmlns:xlink="http://www.w3.org/1999/xlink" height="182.1px" width="209.95px" xmlns="http://www.w3.org/2000/svg">
  <g transform="matrix(1, 0, 0, 1, 104.95, 315.75)">
    <path d="M59.2 -259.15 L59.2 -238.2 58.95 -237.5 Q58.65 -237.2 58.25 -237.2 57.85 -237.2 57.55 -237.45 42.15 -250.75 36.85 -261.65 L30.7 -273.6 Q30.75 -263.7 33.55 -244.55 L33.45 -243.9 32.95 -243.45 32.3 -243.4 31.75 -243.8 Q21.85 -257.05 16.25 -268.85 12.6 -276.45 10.7 -279.25 L10.95 -266.1 Q11.0 -262.6 8.7 -254.2 6.4 -245.85 -5.05 -231.9 -5.35 -231.6 -5.7 -231.55 -6.1 -231.5 -6.45 -231.75 L-6.8 -232.35 Q-14.15 -271.95 -17.15 -272.85 L-19.55 -273.2 Q-19.8 -260.75 -26.2 -250.45 -30.1 -244.2 -41.95 -229.85 L-42.45 -229.55 -43.05 -229.55 -43.55 -229.9 -43.75 -230.45 Q-44.45 -245.35 -49.9 -254.6 -51.0 -256.4 -52.8 -258.05 -53.95 -235.85 -57.8 -227.7 -61.75 -219.25 -64.9 -213.35 -65.1 -213.05 -65.45 -212.9 L-66.15 -212.9 -66.65 -213.35 -70.05 -219.0 -70.05 -219.05 Q-72.15 -222.65 -72.95 -225.8 -74.9 -233.0 -72.0 -243.5 -79.6 -233.7 -76.0 -221.8 -74.6 -217.15 -71.45 -212.2 L-67.5 -206.65 -67.3 -206.1 Q-66.35 -164.0 -57.8 -150.35 -53.9 -144.15 -48.75 -139.35 L-42.55 -135.45 -42.15 -134.95 -42.15 -134.25 -42.6 -133.75 -43.25 -133.65 -53.4 -135.4 Q-61.8 -137.05 -72.95 -146.45 -80.65 -153.0 -84.05 -157.25 L-83.4 -146.55 -83.6 -145.9 -84.15 -145.5 -84.85 -145.6 Q-88.0 -147.1 -92.1 -154.1 -96.1 -160.9 -99.3 -170.2 -107.25 -193.4 -104.05 -211.45 -92.45 -278.75 -50.25 -303.1 -36.45 -311.1 -20.15 -313.85 L-2.75 -315.45 Q49.4 -319.0 80.55 -279.3 91.15 -265.8 97.5 -249.45 102.5 -236.5 102.15 -230.65 101.3 -214.45 100.2 -201.25 99.05 -188.35 101.9 -179.35 104.9 -170.1 105.0 -165.85 105.1 -161.4 102.95 -157.3 L102.95 -157.35 Q101.85 -155.15 98.4 -150.6 93.35 -143.9 92.3 -138.1 L92.05 -137.6 91.6 -137.3 91.0 -137.3 Q86.2 -138.8 85.65 -146.75 L85.2 -153.75 83.1 -150.15 Q77.8 -141.1 69.3 -134.8 69.0 -134.55 68.6 -134.6 L67.95 -134.9 Q67.7 -135.2 67.7 -135.6 L67.7 -142.2 58.65 -139.65 58.0 -139.55 57.45 -139.9 57.2 -140.55 57.15 -144.85 57.3 -145.4 57.7 -145.8 58.9 -146.4 Q65.75 -149.85 71.45 -153.45 L71.65 -153.55 Q81.35 -160.5 84.65 -163.6 94.5 -173.05 94.6 -181.15 L93.35 -185.2 89.5 -194.9 Q83.95 -207.95 83.65 -209.8 83.15 -212.4 83.25 -218.2 L83.4 -225.85 83.6 -226.4 84.1 -226.75 84.7 -226.75 87.6 -226.3 89.55 -226.4 Q89.8 -227.3 90.35 -227.4 L90.15 -227.6 Q67.0 -245.35 62.65 -253.35 L59.3 -259.0 59.2 -259.15" fill="#bbd5c5" fill-rule="evenodd" stroke="none"/>
  </g>
</svg>
