<?xml version="1.0" encoding="UTF-8" standalone="no"?>
<svg xmlns:xlink="http://www.w3.org/1999/xlink" height="287.05px" width="212.95px" xmlns="http://www.w3.org/2000/svg">
  <g transform="matrix(1, 0, 0, 1, 102.7, 326.55)">
    <use height="263.75" transform="matrix(1.0, 0.0, 0.0, 1.0, -101.0, -315.9)" width="199.1" xlink:href="#shape0"/>
  </g>
  <defs>
    <g id="shape0" transform="matrix(1, 0, 0, 1, 101.0, 315.9)">
      <path d="M16.25 -272.9 Q12.7 -261.9 1.25 -252.75 L0.7 -252.55 0.1 -252.65 -0.3 -253.1 -0.4 -253.7 Q1.3 -266.05 0.05 -272.15 L-1.0 -276.85 Q-5.7 -269.2 -13.55 -259.35 -23.05 -247.35 -34.9 -236.5 -35.15 -236.25 -35.5 -236.25 L-36.2 -236.45 -36.55 -237.05 -36.45 -237.7 Q-27.8 -253.8 -29.35 -268.5 -31.75 -262.95 -37.8 -251.15 -46.3 -234.65 -50.45 -213.05 -50.55 -212.65 -50.9 -212.4 L-51.6 -212.25 -52.25 -212.65 Q-57.1 -219.65 -59.1 -228.7 -60.8 -236.25 -60.75 -242.45 -65.5 -237.55 -67.05 -226.2 -68.9 -212.8 -64.7 -205.35 -64.5 -205.0 -64.6 -204.55 L-65.1 -203.95 -65.85 -203.85 Q-74.15 -206.1 -79.25 -219.1 L-80.75 -222.45 Q-80.8 -220.05 -80.1 -214.15 -78.1 -197.7 -58.7 -196.65 -60.25 -202.35 -61.6 -208.55 -63.0 -214.8 -62.75 -221.25 L-62.5 -221.85 -61.9 -222.2 -61.25 -222.05 -60.8 -221.55 -56.7 -211.1 Q-55.2 -207.45 -53.15 -204.75 L-52.95 -204.3 Q-51.25 -189.65 -56.6 -176.6 -61.6 -164.55 -61.05 -154.85 -60.65 -148.05 -57.85 -145.75 L-57.55 -146.15 -57.1 -146.55 -56.55 -146.65 -56.05 -146.4 Q-49.25 -140.55 -46.2 -138.6 -32.85 -130.05 -18.3 -128.55 L-17.75 -128.35 -9.25 -120.7 Q-5.85 -117.4 -2.75 -113.05 L-2.55 -112.4 -2.85 -111.75 Q-3.1 -111.5 -3.5 -111.5 -16.65 -110.75 -28.55 -111.3 -40.55 -111.95 -45.5 -113.45 -56.75 -115.55 -64.8 -120.25 -72.95 -124.95 -83.8 -137.8 -94.7 -150.6 -98.8 -172.95 -102.95 -195.15 -99.2 -222.8 -95.45 -250.55 -81.3 -273.95 -67.15 -297.5 -37.95 -308.6 -8.9 -319.7 23.35 -313.95 55.65 -308.2 76.6 -286.25 98.9 -262.85 98.05 -235.25 L97.75 -234.55 Q97.45 -234.3 97.05 -234.3 96.25 -234.25 76.8 -241.75 65.2 -246.2 59.2 -251.1 58.6 -247.45 60.9 -240.8 L60.9 -240.15 60.5 -239.65 59.9 -239.5 59.3 -239.75 Q44.7 -253.35 39.95 -265.15 38.75 -256.3 36.6 -248.3 L36.15 -247.7 35.45 -247.55 Q35.05 -247.65 34.8 -247.95 28.65 -256.05 26.9 -265.2 24.65 -276.25 20.25 -285.1 L16.25 -272.9 M89.95 -230.95 Q94.4 -215.45 95.15 -202.9 95.9 -190.4 95.6 -184.7 L95.35 -184.05 Q95.1 -183.8 94.75 -183.75 L94.1 -183.9 93.65 -184.4 93.35 -185.2 89.5 -194.9 Q83.95 -207.95 83.65 -209.8 83.15 -212.35 83.3 -222.15 L83.3 -222.2 83.4 -232.55 83.6 -233.15 84.1 -233.5 84.5 -233.65 84.95 -233.65 85.4 -233.5 Q86.55 -232.65 88.1 -232.1 L89.4 -231.6 89.75 -231.35 89.95 -230.95 M94.75 -176.65 L95.35 -176.35 95.6 -175.7 Q96.1 -162.6 88.35 -149.35 81.0 -136.75 67.8 -126.75 54.5 -116.7 38.65 -111.85 21.75 -106.7 2.6 -110.8 2.3 -110.8 2.05 -111.0 L1.7 -111.6 Q1.6 -111.95 1.8 -112.25 6.4 -121.2 14.9 -125.3 22.85 -129.15 27.2 -134.0 L27.65 -134.25 Q44.1 -138.95 58.9 -146.4 65.75 -149.85 71.45 -153.45 L71.65 -153.55 Q81.35 -160.5 84.65 -163.6 91.45 -170.15 93.65 -176.05 L94.1 -176.55 94.75 -176.65 M12.55 -82.45 Q13.9 -60.2 -5.45 -52.2 L-6.15 -52.2 -6.7 -52.6 -6.8 -53.3 Q-4.8 -65.0 -12.75 -73.7 -21.6 -83.55 -14.0 -92.6 -7.05 -101.0 -2.95 -107.05 -2.8 -107.35 -2.45 -107.45 L-1.8 -107.45 Q-1.5 -107.35 -1.3 -107.05 4.0 -99.0 6.35 -96.5 12.1 -90.3 12.55 -82.45" fill="#87e791" fill-rule="evenodd" stroke="none"/>
    </g>
  </defs>
</svg>
