<?xml version="1.0" encoding="UTF-8" standalone="no"?>
<svg xmlns:xlink="http://www.w3.org/1999/xlink" height="178.95px" width="242.8px" xmlns="http://www.w3.org/2000/svg">
  <g transform="matrix(1, 0, 0, 1, 122.55, 313.8)">
    <path d="M70.65 -249.4 Q69.1 -241.8 65.1 -238.1 L64.5 -237.85 Q64.15 -237.8 63.9 -238.0 63.6 -238.15 63.5 -238.45 60.2 -246.8 52.0 -249.7 35.65 -255.45 21.3 -247.4 L20.55 -247.3 19.95 -247.75 Q19.75 -248.15 19.85 -248.5 20.75 -252.4 20.6 -256.75 20.25 -268.15 8.65 -279.0 7.4 -267.65 1.0 -259.25 -5.0 -251.25 -28.6 -242.4 L-29.25 -242.4 Q-29.55 -242.5 -29.75 -242.75 L-29.95 -243.3 -29.8 -243.9 -28.65 -245.6 Q-21.1 -257.65 -25.2 -267.5 L-25.7 -266.55 Q-28.05 -258.15 -32.7 -250.4 -37.3 -242.65 -43.5 -236.95 L-43.8 -236.8 Q-64.65 -228.05 -67.25 -216.85 -67.35 -216.5 -67.65 -216.25 L-68.4 -216.1 Q-68.8 -216.15 -69.0 -216.45 -73.0 -221.45 -75.2 -230.65 -77.5 -239.85 -72.7 -252.9 -68.55 -264.15 -60.05 -272.4 -69.9 -269.65 -75.2 -258.95 -80.45 -248.45 -80.35 -236.2 -80.15 -216.0 -64.8 -208.2 -64.05 -213.65 -57.55 -222.75 -57.4 -223.05 -57.05 -223.15 L-56.4 -223.1 -55.9 -222.7 -55.75 -222.1 Q-56.5 -214.95 -55.9 -207.55 -55.1 -197.55 -53.7 -187.2 L-53.8 -186.65 -53.8 -186.6 -53.3 -186.0 -54.3 -185.95 -54.6 -185.8 -54.85 -185.8 -55.3 -185.85 -55.35 -185.9 -55.4 -185.95 -59.5 -188.25 Q-58.0 -180.9 -58.65 -171.95 -59.4 -161.6 -61.45 -147.0 -60.35 -147.15 -59.95 -147.4 L-60.0 -147.4 -59.3 -148.05 -58.65 -148.35 -57.95 -148.1 Q-50.0 -141.1 -46.5 -138.75 L-46.1 -138.25 -46.1 -137.6 Q-46.2 -137.3 -46.45 -137.1 L-47.1 -136.95 -56.2 -137.45 Q-62.35 -137.75 -74.9 -141.3 -75.45 -138.85 -73.4 -136.5 L-73.15 -135.8 -73.45 -135.1 Q-73.75 -134.85 -74.15 -134.85 -81.3 -134.9 -89.6 -137.5 -97.75 -140.05 -106.15 -146.65 L-105.65 -141.8 Q-105.6 -141.45 -105.8 -141.15 L-106.25 -140.75 -106.9 -140.7 Q-120.05 -144.2 -122.25 -159.15 -124.55 -174.0 -109.8 -186.4 -95.95 -198.15 -95.5 -218.6 -95.05 -239.75 -79.85 -272.65 -64.6 -305.8 -25.6 -311.45 13.1 -317.1 38.95 -309.3 65.0 -301.5 80.8 -279.8 96.6 -258.15 98.7 -246.6 100.85 -235.05 99.1 -225.3 97.35 -215.9 99.7 -204.25 102.0 -192.7 114.45 -179.8 121.15 -172.85 120.1 -165.95 119.2 -159.15 110.7 -152.4 L110.1 -152.2 Q109.8 -152.2 109.55 -152.35 L109.15 -152.8 Q109.0 -153.1 109.1 -153.4 L109.75 -156.6 107.3 -154.45 Q96.5 -145.05 77.05 -141.1 L76.4 -141.2 Q76.05 -141.4 75.95 -141.7 L75.9 -142.4 76.35 -142.95 Q79.95 -145.2 79.5 -149.25 57.8 -139.4 50.25 -140.25 49.9 -140.3 49.65 -140.55 L49.35 -141.1 49.45 -141.75 49.95 -142.2 58.9 -146.4 Q65.75 -149.85 71.45 -153.45 L71.65 -153.55 Q81.35 -160.5 84.65 -163.6 94.5 -173.05 94.6 -181.15 L93.35 -185.2 89.5 -194.9 Q83.95 -207.95 83.65 -209.8 83.15 -212.4 83.25 -218.2 L83.35 -222.8 83.45 -223.2 83.7 -223.55 Q91.4 -229.85 89.9 -239.3 88.7 -235.55 87.35 -234.05 87.05 -233.75 86.65 -233.75 86.25 -233.75 85.95 -234.0 85.65 -234.25 85.6 -234.65 84.6 -250.05 71.75 -257.2 71.65 -254.55 70.65 -249.4" fill="#6767e4" fill-rule="evenodd" stroke="none"/>
  </g>
</svg>
