<?xml version="1.0" encoding="UTF-8" standalone="no"?>
<svg xmlns:xlink="http://www.w3.org/1999/xlink" height="170.0px" width="240.95px" xmlns="http://www.w3.org/2000/svg">
  <g transform="matrix(1, 0, 0, 1, 115.3, 316.8)">
    <path d="M53.7 -305.45 Q71.55 -293.7 77.4 -289.2 L77.45 -289.15 Q86.85 -281.0 90.3 -274.15 93.55 -267.55 100.05 -259.9 106.55 -252.35 125.05 -244.65 L125.55 -244.2 125.65 -243.5 125.2 -242.9 124.3 -242.3 124.0 -242.15 120.55 -241.4 120.5 -241.4 Q114.1 -240.15 107.9 -241.95 102.85 -243.45 96.9 -246.2 L102.3 -237.8 Q109.0 -227.7 122.65 -222.35 L123.2 -221.9 123.3 -221.15 122.85 -220.6 122.15 -220.45 110.7 -222.5 110.5 -222.55 104.35 -224.9 Q114.5 -211.45 113.3 -196.65 L113.05 -196.1 112.5 -195.75 111.9 -195.85 111.45 -196.25 Q106.65 -205.15 104.8 -207.2 L97.45 -214.85 97.2 -215.2 97.1 -215.6 97.1 -218.1 97.1 -218.15 Q97.85 -227.65 96.6 -231.9 L94.8 -234.3 95.25 -226.7 Q95.4 -219.05 94.65 -215.1 93.85 -211.15 92.25 -206.25 90.55 -201.25 89.35 -199.5 L88.75 -199.1 88.05 -199.2 87.6 -199.7 Q83.85 -208.55 83.65 -209.8 83.15 -212.4 83.25 -218.2 L83.4 -227.95 83.25 -232.7 83.35 -233.15 Q86.45 -239.8 87.15 -242.95 87.8 -246.05 87.6 -249.1 87.35 -252.25 86.7 -255.55 85.0 -263.4 81.6 -265.0 L83.85 -255.5 Q86.05 -245.3 82.1 -240.1 78.35 -235.1 76.45 -233.1 76.25 -232.9 75.95 -232.85 L75.35 -232.9 Q75.05 -233.05 74.9 -233.3 74.7 -233.55 74.75 -233.85 L71.65 -243.95 Q67.2 -257.75 55.4 -262.0 69.5 -246.7 70.45 -237.95 71.65 -228.0 67.9 -224.9 L67.3 -224.65 66.65 -224.85 Q66.35 -225.05 66.3 -225.4 62.75 -238.5 49.55 -247.75 L60.45 -230.4 60.6 -229.75 60.3 -229.15 59.7 -228.9 59.05 -229.05 Q47.15 -237.3 42.9 -238.2 42.55 -238.3 42.35 -238.5 42.15 -238.75 42.1 -239.1 L42.25 -239.7 Q42.9 -241.2 40.15 -245.65 L40.0 -245.9 Q38.15 -249.4 30.2 -254.75 24.7 -258.45 11.6 -268.8 L8.4 -271.35 Q12.25 -263.0 19.2 -258.75 27.6 -253.6 32.8 -248.9 38.3 -243.9 38.2 -238.5 38.15 -232.9 33.95 -230.9 L33.3 -230.8 32.7 -231.2 32.5 -231.85 Q32.45 -236.45 14.15 -243.05 L13.65 -243.45 Q3.7 -259.4 -2.85 -259.55 L-4.8 -259.15 -5.05 -258.75 Q-3.35 -257.9 -0.25 -255.85 5.4 -252.2 8.5 -246.4 10.5 -242.6 9.7 -239.85 8.95 -237.1 5.05 -234.7 L4.25 -234.55 3.65 -235.05 Q3.45 -235.4 3.55 -235.8 5.15 -242.85 -8.3 -247.1 -23.1 -251.85 -32.45 -260.1 -40.35 -267.1 -41.65 -275.45 L-41.75 -276.5 -41.9 -275.4 Q-41.9 -267.6 -38.95 -262.05 L-38.85 -261.45 Q-39.95 -249.6 -44.3 -245.45 -48.3 -241.5 -52.6 -231.3 L-53.1 -230.8 -53.8 -230.7 -54.35 -231.15 Q-67.6 -250.9 -58.15 -273.8 -62.0 -269.6 -63.55 -264.95 -65.75 -258.2 -65.4 -250.1 -65.1 -242.05 -62.0 -235.95 -59.05 -230.1 -57.15 -225.5 L-56.9 -224.8 Q-56.75 -224.45 -56.9 -224.05 -59.25 -218.5 -59.6 -205.65 L-59.6 -205.6 Q-59.6 -194.95 -56.8 -187.55 -53.9 -179.85 -53.9 -172.95 -53.9 -169.4 -55.4 -163.25 -55.5 -162.9 -55.8 -162.7 L-56.45 -162.5 Q-56.8 -162.5 -57.05 -162.75 -65.7 -170.7 -69.1 -177.6 -72.1 -183.6 -72.3 -192.4 -72.55 -201.15 -68.65 -208.15 -68.7 -209.25 -69.05 -209.6 L-69.25 -209.7 -70.1 -210.05 Q-73.1 -206.1 -74.05 -203.15 -75.1 -200.1 -75.85 -196.65 -75.15 -183.15 -71.9 -175.15 -70.5 -171.6 -68.5 -169.15 L-61.65 -160.2 Q-59.65 -157.25 -59.2 -154.05 -58.75 -150.8 -59.85 -147.45 -60.0 -147.1 -60.35 -146.9 L-61.1 -146.85 -61.7 -147.35 Q-63.25 -150.45 -64.5 -152.25 -65.75 -154.0 -71.55 -158.7 -77.5 -163.5 -84.7 -168.15 L-85.1 -168.65 -85.1 -169.25 -80.9 -183.15 Q-79.85 -186.4 -79.8 -189.2 L-80.2 -191.1 -84.05 -182.2 Q-84.2 -181.85 -84.5 -181.7 L-85.2 -181.6 -85.75 -182.0 Q-91.0 -189.15 -91.35 -195.05 -91.7 -201.1 -89.95 -204.25 -88.35 -207.3 -82.4 -215.6 -77.9 -222.0 -76.95 -233.75 -81.85 -219.95 -88.15 -213.4 -91.9 -209.5 -93.55 -205.4 L-93.65 -205.2 -93.65 -205.15 Q-94.85 -202.1 -94.85 -198.9 -94.85 -191.1 -91.2 -183.05 -87.35 -174.45 -89.55 -167.6 -89.65 -167.3 -89.9 -167.1 L-90.45 -166.9 -91.05 -167.05 -91.45 -167.55 Q-94.7 -176.75 -97.75 -180.85 -103.6 -188.75 -104.35 -194.55 -105.2 -200.45 -103.15 -204.55 -101.35 -208.3 -100.95 -209.8 L-100.7 -210.15 Q-95.95 -215.65 -93.15 -224.1 L-91.9 -228.45 Q-95.65 -221.8 -101.25 -213.15 L-101.85 -212.7 -102.55 -212.8 -103.05 -213.35 Q-103.2 -213.7 -103.0 -214.05 -99.9 -221.75 -98.65 -241.65 L-98.65 -241.75 Q-96.95 -253.2 -91.1 -263.0 L-92.25 -263.15 -93.15 -262.9 Q-95.0 -262.1 -97.2 -258.8 L-97.5 -258.5 -97.9 -258.35 Q-106.15 -257.25 -115.0 -266.4 L-115.3 -266.95 -115.2 -267.5 -114.75 -267.95 -114.2 -268.1 Q-98.6 -266.5 -89.5 -273.1 -87.55 -274.55 -85.85 -276.4 -76.2 -287.1 -67.35 -295.3 -58.45 -303.6 -44.6 -309.9 -30.85 -316.2 2.35 -316.75 35.6 -317.35 53.7 -305.45 M96.4 -209.05 Q96.65 -209.3 97.0 -209.35 L97.6 -209.3 98.05 -208.8 99.4 -205.9 99.55 -205.55 99.6 -204.9 97.6 -196.5 Q96.65 -192.85 96.55 -189.65 96.45 -186.55 97.7 -183.5 99.1 -180.05 99.1 -176.55 99.15 -171.8 95.6 -164.95 L95.6 -164.9 Q90.9 -156.0 83.9 -154.15 L83.3 -154.2 82.8 -154.6 82.65 -155.25 82.95 -155.8 Q84.3 -157.35 84.85 -163.45 L85.15 -164.1 Q94.55 -173.25 94.6 -181.15 L93.35 -185.2 89.6 -194.7 89.5 -195.2 89.7 -195.65 Q93.55 -200.9 94.85 -203.65 96.05 -206.3 96.15 -208.45 L96.4 -209.05" fill="#fbff6c" fill-rule="evenodd" stroke="none"/>
  </g>
</svg>
