<?xml version="1.0" encoding="UTF-8" standalone="no"?>
<svg xmlns:xlink="http://www.w3.org/1999/xlink" height="172.8px" width="265.7px" xmlns="http://www.w3.org/2000/svg">
  <g transform="matrix(1, 0, 0, 1, 101.8, 317.15)">
    <path d="M107.45 -301.25 Q128.95 -298.3 138.25 -276.95 142.7 -266.8 144.25 -249.95 145.45 -237.45 143.65 -226.95 138.45 -196.95 163.1 -191.6 163.45 -191.55 163.65 -191.3 L163.9 -190.7 163.75 -190.1 163.25 -189.7 Q151.15 -185.2 138.75 -192.1 140.75 -188.45 143.7 -186.3 L144.0 -185.85 144.05 -185.3 143.8 -184.8 143.75 -184.75 143.35 -184.5 142.85 -184.5 Q119.85 -189.55 118.35 -209.6 116.8 -228.85 113.1 -247.8 111.0 -258.65 105.45 -264.5 L105.25 -264.85 Q101.6 -274.1 95.15 -280.5 87.6 -288.0 79.6 -294.55 L79.25 -295.0 79.25 -295.5 79.5 -296.0 Q81.1 -297.75 83.5 -298.85 92.95 -303.25 107.45 -301.25 M43.35 -251.45 Q43.35 -249.0 44.7 -244.5 47.2 -235.8 49.0 -234.85 L49.55 -234.35 49.6 -233.6 49.1 -233.05 48.35 -232.95 Q40.8 -235.0 29.55 -243.6 19.5 -251.25 13.45 -266.5 L13.5 -264.7 Q13.6 -258.75 14.35 -247.05 14.75 -240.0 15.9 -234.3 L15.8 -233.7 15.4 -233.2 14.8 -233.1 Q14.5 -233.15 14.25 -233.35 6.75 -239.85 -0.95 -251.3 -8.0 -261.65 -11.95 -281.95 -16.6 -265.15 -20.8 -256.75 -29.8 -238.7 -49.45 -225.05 L-50.05 -224.9 -50.6 -225.05 -51.0 -225.55 -51.0 -226.15 Q-45.7 -245.65 -45.8 -255.1 L-56.8 -227.05 Q-65.1 -205.7 -68.15 -198.2 -66.6 -199.2 -64.7 -201.45 -63.0 -203.45 -61.8 -205.55 L-61.35 -205.95 -60.7 -206.0 -60.15 -205.7 -59.95 -205.1 Q-58.95 -188.2 -53.25 -178.35 -47.25 -168.05 -49.15 -155.1 L-49.45 -154.5 Q-49.7 -154.3 -50.05 -154.25 L-50.7 -154.4 -51.1 -154.9 Q-52.35 -158.65 -55.4 -162.7 -64.6 -174.9 -75.2 -184.25 L-74.45 -182.6 Q-71.6 -176.3 -65.7 -167.85 L-65.55 -167.15 -65.85 -166.55 Q-66.15 -166.3 -66.5 -166.25 L-67.15 -166.5 -77.4 -174.65 Q-80.75 -177.3 -83.9 -182.25 L-84.45 -183.15 Q-87.05 -187.5 -89.5 -193.55 -92.15 -183.65 -85.3 -174.6 -74.0 -159.6 -58.3 -155.95 L-57.9 -155.75 -57.6 -155.4 Q-54.2 -148.25 -56.25 -145.25 L-56.75 -144.85 Q-61.0 -143.4 -75.45 -146.05 -88.1 -148.45 -93.35 -156.3 -93.75 -152.1 -93.05 -149.1 L-93.15 -148.45 Q-93.3 -148.15 -93.6 -148.0 L-94.25 -147.9 -94.8 -148.25 Q-104.7 -160.75 -100.3 -172.05 -96.35 -182.55 -100.25 -192.15 -104.45 -202.3 -97.3 -235.75 -90.25 -269.1 -62.7 -293.65 -53.45 -301.9 -42.25 -307.6 L-42.2 -307.6 -28.6 -313.55 -28.5 -313.6 Q-24.2 -315.0 -16.8 -316.05 -2.0 -318.15 13.3 -316.25 44.45 -312.3 70.8 -292.7 L77.75 -287.2 Q85.15 -281.0 92.15 -273.45 L99.5 -265.05 99.7 -264.7 Q99.85 -264.1 99.4 -263.7 L98.75 -263.4 98.35 -263.45 97.4 -263.6 93.75 -264.5 90.4 -265.5 90.35 -265.5 88.65 -266.25 Q88.6 -263.7 92.65 -251.8 98.0 -236.05 97.3 -226.65 96.9 -220.9 97.5 -217.8 97.85 -218.6 98.65 -218.05 99.25 -218.2 99.5 -216.75 L99.95 -212.85 Q100.5 -207.3 109.35 -192.25 117.5 -178.45 108.35 -162.9 L107.9 -162.5 107.3 -162.4 Q106.95 -162.5 106.75 -162.7 106.55 -162.95 106.5 -163.25 L106.05 -165.4 106.05 -165.3 Q102.0 -154.6 85.65 -149.15 L85.05 -149.15 Q84.7 -149.25 84.55 -149.5 L84.35 -150.1 84.55 -150.65 87.1 -154.3 87.55 -154.65 Q87.95 -154.8 88.35 -155.05 L89.9 -156.8 Q100.0 -167.35 102.75 -181.1 L102.75 -181.15 Q105.6 -196.2 94.65 -203.75 100.6 -193.05 97.85 -180.65 95.9 -172.2 91.3 -165.2 L90.9 -164.85 90.4 -164.75 89.9 -164.95 89.25 -165.35 89.0 -165.2 88.35 -165.0 Q87.95 -165.05 87.7 -165.35 87.4 -165.65 87.4 -166.0 L87.65 -166.7 Q94.55 -174.4 94.6 -181.15 L93.35 -185.2 89.5 -194.9 Q83.95 -207.95 83.65 -209.8 83.15 -212.4 83.25 -218.2 L83.4 -227.95 Q83.35 -229.35 82.9 -230.65 L82.85 -231.25 83.15 -231.75 83.65 -232.0 87.25 -232.8 Q75.6 -234.45 64.95 -240.2 57.75 -244.1 43.6 -253.1 43.3 -252.65 43.35 -251.45 M93.75 -204.4 L93.6 -204.45 93.75 -204.35 93.75 -204.4 M85.9 -163.5 L86.2 -162.85 86.0 -162.15 Q84.65 -160.35 83.85 -158.2 82.05 -153.5 81.25 -150.05 L80.8 -149.45 80.1 -149.3 Q79.7 -149.4 79.45 -149.7 76.3 -154.05 76.65 -155.25 76.75 -156.4 78.1 -158.2 L78.3 -158.45 Q82.5 -161.6 84.55 -163.5 L85.2 -163.75 85.9 -163.5" fill="#ef8f8f" fill-rule="evenodd" stroke="none"/>
  </g>
</svg>
