<?xml version="1.0" encoding="UTF-8" standalone="no"?>
<svg xmlns:xlink="http://www.w3.org/1999/xlink" height="301.5px" width="216.75px" xmlns="http://www.w3.org/2000/svg">
  <g transform="matrix(1, 0, 0, 1, 102.8, 314.05)">
    <path d="M35.0 -243.75 Q24.1 -245.75 8.8 -250.2 -9.2 -255.35 -27.85 -276.9 -32.8 -235.85 -54.15 -201.35 -64.95 -183.9 -65.5 -166.7 L-65.8 -166.05 -66.4 -165.7 Q-66.8 -165.7 -67.1 -165.9 L-67.5 -166.5 Q-70.4 -179.9 -69.35 -201.65 -68.5 -220.9 -65.5 -240.3 -76.9 -220.0 -74.35 -181.75 L-74.55 -181.1 -75.1 -180.7 -75.75 -180.8 -76.25 -181.25 Q-86.2 -202.1 -86.0 -225.95 -91.45 -211.7 -87.0 -196.1 -82.35 -179.85 -73.05 -167.95 L-72.9 -167.6 Q-68.9 -152.8 -60.45 -142.85 L-62.6 -151.4 -62.55 -152.05 -62.1 -152.5 -61.45 -152.6 -60.9 -152.3 -52.95 -143.8 -46.55 -138.8 -46.2 -138.6 -44.55 -137.55 -44.5 -137.55 Q-38.9 -134.15 -33.05 -132.0 L-28.6 -130.5 Q-20.6 -128.25 -12.15 -128.25 L-2.45 -128.65 -0.15 -128.85 13.85 -130.95 24.25 -133.35 31.7 -135.5 Q41.85 -138.6 51.3 -142.8 L54.85 -144.4 58.9 -146.4 Q65.75 -149.85 71.45 -153.45 L71.65 -153.55 Q81.35 -160.5 84.65 -163.6 L84.85 -163.8 87.95 -167.0 Q88.2 -167.35 88.6 -167.35 L89.35 -167.1 89.7 -166.45 89.85 -165.0 89.85 -164.8 Q89.45 -159.25 89.45 -139.75 89.4 -120.4 99.65 -98.2 110.2 -75.35 101.25 -57.65 L100.8 -57.2 100.2 -57.1 Q99.9 -57.15 99.65 -57.35 99.4 -57.6 99.4 -57.9 97.45 -68.95 92.8 -76.55 L90.65 -80.0 Q90.25 -74.1 88.0 -59.65 84.4 -37.1 81.1 -32.8 L77.65 -28.2 77.2 -27.85 76.6 -27.8 Q76.25 -27.9 76.05 -28.15 L75.85 -28.7 Q75.0 -37.8 72.0 -46.35 70.15 -51.5 67.6 -61.35 66.3 -51.9 63.65 -44.85 56.6 -26.5 43.6 -17.05 L42.85 -16.85 42.2 -17.25 Q41.95 -17.6 42.0 -18.0 42.85 -24.05 40.6 -37.15 38.75 -47.85 35.7 -54.55 32.1 -30.9 20.25 -14.75 L19.65 -14.35 18.9 -14.5 Q18.55 -14.75 18.5 -15.15 15.25 -32.7 13.6 -44.0 12.2 -53.55 9.3 -60.65 L2.35 -38.85 Q-2.55 -24.05 0.15 -13.8 L0.1 -13.15 -0.3 -12.7 -0.95 -12.55 Q-1.3 -12.6 -1.5 -12.8 -12.85 -22.95 -21.95 -45.2 L-25.65 -54.55 Q-28.9 -48.1 -29.5 -37.35 -30.25 -25.0 -28.95 -21.55 L-28.95 -20.8 -29.5 -20.3 -30.2 -20.25 Q-48.7 -26.7 -59.65 -43.7 L-69.8 -59.5 -70.05 -57.6 Q-71.9 -45.65 -68.7 -32.25 L-68.75 -31.65 -69.2 -31.15 -69.85 -31.05 Q-70.2 -31.1 -70.4 -31.35 -85.8 -47.35 -86.65 -62.2 -87.3 -72.55 -87.2 -77.15 -92.55 -70.9 -95.7 -58.15 L-96.05 -57.6 -96.65 -57.4 -97.25 -57.55 -97.65 -58.05 Q-102.4 -71.9 -95.8 -92.8 -89.4 -113.1 -95.2 -139.25 -101.05 -165.8 -102.45 -191.45 -103.85 -217.25 -99.8 -233.45 -95.5 -251.2 -87.15 -266.4 -66.65 -304.05 -31.95 -311.25 -2.4 -317.4 29.1 -310.05 64.85 -301.75 82.55 -279.4 91.85 -267.55 95.9 -263.65 103.75 -256.1 113.3 -252.7 L113.8 -252.25 113.95 -251.6 113.65 -251.05 Q113.4 -250.8 113.05 -250.75 103.15 -249.75 95.65 -252.3 L95.2 -252.55 Q87.1 -261.75 75.0 -268.25 84.05 -258.1 91.7 -246.2 100.95 -231.85 104.75 -208.1 L104.6 -207.4 Q104.4 -207.1 104.05 -207.0 L103.35 -207.0 102.85 -207.5 Q95.3 -223.0 75.3 -234.55 L75.1 -234.75 Q39.1 -252.15 4.3 -264.3 19.75 -252.0 35.55 -245.65 L36.05 -245.2 36.1 -244.45 35.7 -243.9 35.0 -243.75 M77.05 -236.0 L77.0 -236.0 77.05 -236.0 M91.8 -213.1 Q91.75 -204.15 90.7 -196.8 L90.4 -196.25 89.85 -195.95 89.2 -196.05 88.8 -196.55 84.6 -206.85 Q83.75 -209.1 83.65 -209.8 83.15 -212.4 83.25 -218.2 L83.3 -220.25 83.6 -220.95 Q83.85 -221.25 84.3 -221.25 L85.0 -220.95 Q88.45 -217.6 91.6 -213.7 L91.8 -213.1" fill="#980198" fill-rule="evenodd" stroke="none"/>
  </g>
</svg>
