<?xml version="1.0" encoding="UTF-8" standalone="no"?>
<svg xmlns:xlink="http://www.w3.org/1999/xlink" height="185.5px" width="219.05px" xmlns="http://www.w3.org/2000/svg">
  <g transform="matrix(1, 0, 0, 1, 107.7, 316.15)">
    <path d="M42.8 -307.7 Q57.3 -302.15 67.1 -294.0 83.95 -279.95 92.65 -259.75 96.35 -251.2 99.1 -234.65 L98.9 -233.9 98.25 -233.5 Q97.85 -233.45 97.5 -233.7 79.25 -247.1 71.35 -253.65 72.75 -247.8 75.45 -237.9 L76.2 -235.25 76.1 -234.55 75.55 -234.05 Q75.15 -233.9 74.8 -234.05 61.65 -239.8 51.5 -249.3 36.05 -263.75 24.75 -278.3 L25.7 -264.95 Q26.4 -253.2 28.65 -244.05 L28.6 -243.45 28.2 -243.0 27.65 -242.85 27.05 -243.05 Q26.3 -243.6 25.85 -244.3 18.05 -256.8 14.8 -271.05 11.75 -283.95 8.25 -295.0 4.0 -282.45 -2.1 -269.2 -9.05 -254.3 -16.4 -248.1 L-17.1 -247.85 -17.75 -248.15 -18.05 -248.85 -18.05 -252.1 Q-18.05 -263.15 -16.9 -274.1 -16.6 -277.25 -16.6 -280.15 L-20.1 -270.2 Q-31.55 -238.8 -61.75 -224.65 L-62.55 -224.6 -63.1 -225.1 -63.1 -225.9 Q-60.3 -233.55 -57.4 -252.05 -55.3 -265.6 -54.55 -273.15 -66.5 -250.85 -76.6 -235.65 L-77.1 -235.25 -77.7 -235.2 -78.2 -235.55 Q-80.55 -238.15 -77.1 -257.0 -87.1 -239.1 -84.1 -229.15 -81.95 -222.3 -77.9 -219.25 -75.7 -228.25 -64.0 -247.35 L-63.45 -247.8 -62.75 -247.75 -62.25 -247.3 -62.15 -246.65 Q-66.3 -226.8 -74.3 -211.6 -70.55 -212.3 -69.15 -212.95 L-68.45 -213.0 -67.9 -212.6 -67.7 -211.95 Q-68.6 -200.95 -66.25 -182.35 -63.9 -163.8 -52.65 -145.8 L-52.5 -145.2 Q-52.55 -144.85 -52.75 -144.6 -53.0 -144.35 -53.35 -144.3 L-54.0 -144.45 Q-72.7 -155.45 -79.7 -183.45 -79.35 -171.5 -76.4 -164.25 -72.7 -155.2 -68.05 -150.6 L-67.9 -150.5 -67.3 -149.9 Q-62.05 -145.3 -58.2 -142.4 -54.4 -139.6 -41.85 -135.65 -41.55 -135.55 -41.35 -135.3 L-41.15 -134.7 -41.15 -131.65 -41.3 -131.05 -41.8 -130.7 -42.4 -130.65 Q-53.65 -133.45 -60.1 -138.3 -64.75 -141.8 -67.6 -145.95 -67.45 -139.75 -67.8 -138.05 -67.9 -137.7 -68.15 -137.45 L-68.75 -137.25 -69.4 -137.45 Q-73.3 -140.25 -79.65 -150.95 L-83.55 -158.0 Q-84.25 -151.7 -82.75 -145.6 L-81.4 -139.85 Q-81.35 -139.55 -81.45 -139.25 L-81.8 -138.8 -82.35 -138.6 -82.9 -138.8 Q-87.45 -141.75 -94.45 -148.25 -101.8 -155.0 -101.45 -165.8 L-101.05 -176.3 -106.6 -175.8 -107.25 -175.95 Q-107.6 -176.2 -107.65 -176.55 L-107.6 -177.2 Q-99.65 -193.7 -94.55 -234.85 -89.35 -276.75 -57.1 -297.65 -24.9 -318.55 1.85 -315.85 28.4 -313.25 42.8 -307.7 M80.3 -238.75 L80.7 -239.25 81.35 -239.45 81.9 -239.2 Q87.0 -234.75 89.45 -231.45 L89.65 -230.85 Q89.6 -221.0 91.2 -206.85 92.75 -192.95 102.95 -181.2 113.8 -168.8 110.65 -156.5 L110.35 -156.0 Q110.1 -155.8 109.8 -155.75 L109.2 -155.85 108.8 -156.25 105.9 -161.4 Q103.45 -165.65 93.55 -173.85 L93.2 -174.4 93.25 -175.05 Q94.6 -178.2 94.6 -181.15 L93.35 -185.2 89.5 -194.9 Q86.0 -203.1 84.6 -206.85 83.75 -209.1 83.65 -209.8 83.15 -212.4 83.25 -218.2 L83.35 -225.25 83.55 -225.8 83.95 -226.15 80.3 -238.15 80.3 -238.75 M95.0 -166.5 L95.45 -165.9 Q96.9 -160.35 97.45 -153.5 98.0 -146.25 92.4 -141.85 L91.65 -141.65 91.0 -142.05 Q90.75 -142.35 90.8 -142.75 90.85 -143.2 91.15 -143.45 91.6 -144.1 89.95 -148.3 L89.95 -148.35 Q88.35 -152.45 86.25 -153.9 L81.1 -147.4 Q75.6 -140.5 64.5 -136.1 L63.75 -136.1 63.2 -136.6 Q63.0 -136.95 63.15 -137.3 64.25 -141.6 61.85 -146.6 61.7 -147.0 61.8 -147.35 L62.25 -147.9 71.45 -153.45 71.65 -153.55 Q81.35 -160.5 84.65 -163.6 L84.85 -163.8 Q87.8 -166.65 89.85 -169.35 L90.35 -169.7 90.9 -169.7 91.4 -169.4 Q92.65 -168.0 95.0 -166.5 M56.45 -143.1 L56.2 -142.6 Q53.9 -140.3 51.0 -137.75 L48.8 -135.8 48.15 -135.4 Q47.65 -135.2 47.4 -135.4 46.45 -135.45 46.8 -136.6 L46.85 -136.65 46.9 -136.85 47.15 -140.2 47.35 -140.6 47.7 -140.9 51.3 -142.8 54.85 -144.4 55.35 -144.5 55.9 -144.3 56.1 -144.1 56.45 -143.65 56.45 -143.1" fill="#fefe54" fill-rule="evenodd" stroke="none"/>
  </g>
</svg>
