<?xml version="1.0" encoding="UTF-8" standalone="no"?>
<svg xmlns:xlink="http://www.w3.org/1999/xlink" height="200.4px" width="311.45px" xmlns="http://www.w3.org/2000/svg">
  <g transform="matrix(1, 0, 0, 1, 164.6, 323.35)">
    <path d="M99.65 -306.65 Q107.8 -299.25 112.1 -289.05 L128.2 -250.7 Q135.7 -232.55 146.6 -216.05 L146.85 -215.15 146.5 -214.25 145.65 -213.75 144.7 -213.9 125.9 -223.0 Q124.7 -222.5 124.35 -221.65 124.0 -220.55 124.85 -218.9 134.35 -200.3 128.4 -180.15 L122.8 -162.05 122.25 -161.35 Q121.85 -161.05 121.4 -161.05 L120.55 -161.3 Q120.1 -161.55 119.95 -162.0 L114.95 -175.45 Q113.55 -179.3 110.45 -180.35 L108.25 -177.15 Q107.9 -176.65 107.3 -176.55 L106.15 -176.75 105.7 -177.1 Q105.3 -177.35 105.15 -177.8 104.95 -178.25 105.1 -178.7 106.5 -184.7 107.05 -189.35 L107.05 -189.45 106.2 -201.05 106.2 -201.2 106.2 -201.4 104.55 -213.1 Q102.25 -230.95 99.35 -237.05 99.15 -237.5 99.25 -237.95 L99.65 -238.75 Q99.95 -239.1 100.4 -239.15 L101.3 -239.05 Q102.75 -238.5 106.25 -234.6 108.25 -232.3 110.05 -232.2 112.1 -232.45 112.1 -236.65 111.95 -241.5 85.75 -283.1 L85.7 -283.15 Q76.85 -298.6 66.5 -308.5 66.1 -308.85 66.05 -309.4 66.0 -309.95 66.3 -310.4 L66.35 -310.45 66.8 -310.9 Q73.05 -314.9 80.8 -313.85 L80.75 -313.9 86.7 -313.0 86.65 -313.0 Q94.15 -311.75 99.7 -306.65 L99.65 -306.65 M64.6 -303.2 Q72.6 -294.3 82.75 -278.45 L102.55 -247.05 102.75 -246.1 102.35 -245.2 Q101.95 -244.8 101.45 -244.75 L100.45 -244.95 97.7 -246.85 Q96.6 -247.6 95.45 -247.6 93.0 -247.55 92.9 -244.9 103.4 -197.85 103.35 -191.15 103.4 -184.6 94.45 -163.0 85.4 -141.3 80.0 -136.0 79.7 -135.75 79.3 -135.65 L78.5 -135.65 77.8 -136.1 77.6 -136.35 Q77.2 -136.8 77.2 -137.35 L77.9 -145.25 Q77.8 -149.55 75.25 -149.75 L65.0 -140.3 Q53.2 -129.85 48.9 -128.55 L47.8 -128.65 Q47.25 -128.95 47.05 -129.5 46.8 -130.05 47.1 -130.6 L50.65 -137.95 53.2 -143.75 Q53.4 -144.3 54.0 -144.55 L58.7 -146.85 Q65.5 -150.3 71.2 -153.9 L71.4 -154.0 Q81.05 -160.85 84.35 -163.95 94.0 -173.25 94.1 -181.15 L92.9 -185.05 89.05 -194.7 Q83.45 -207.85 83.15 -209.7 82.8 -211.5 82.75 -214.7 82.75 -215.25 83.1 -215.7 83.45 -216.15 84.0 -216.2 84.7 -216.45 85.15 -217.4 L77.55 -238.9 77.6 -238.8 Q72.1 -251.7 59.7 -269.5 52.2 -280.25 47.8 -284.55 L43.75 -287.1 Q42.1 -286.95 42.1 -285.1 L42.1 -285.05 42.1 -284.75 42.5 -284.1 42.6 -283.9 48.6 -269.15 Q55.7 -251.95 57.4 -242.95 L57.25 -242.05 56.6 -241.35 55.7 -241.2 Q55.2 -241.3 54.85 -241.6 48.3 -248.0 33.35 -267.65 L20.65 -284.3 Q18.7 -284.25 18.6 -282.05 L21.0 -272.15 Q23.35 -261.2 23.35 -252.7 L23.35 -252.6 Q22.6 -238.4 22.4 -232.1 22.4 -231.5 21.95 -231.05 21.5 -230.65 20.9 -230.65 L20.4 -230.65 19.55 -230.9 Q19.15 -231.2 19.0 -231.65 13.5 -248.05 4.65 -269.45 0.9 -278.5 -6.25 -291.45 L-7.2 -291.1 Q-11.75 -287.95 -20.1 -274.4 -29.3 -259.6 -34.55 -247.55 L-35.25 -246.8 -36.25 -246.65 -37.1 -247.2 Q-37.45 -247.6 -37.45 -248.15 L-37.65 -266.95 -37.6 -267.35 -37.45 -268.25 Q-37.45 -269.5 -37.6 -270.1 L-37.75 -270.55 -38.35 -271.05 -39.05 -271.15 -39.4 -271.15 -39.65 -271.15 -44.0 -264.45 Q-48.8 -257.05 -54.25 -246.65 -68.45 -219.9 -71.4 -204.65 L-73.55 -182.8 Q-72.55 -181.5 -71.45 -181.4 -71.95 -181.65 -70.7 -186.65 L-70.1 -187.55 -69.1 -187.8 Q-68.55 -187.75 -68.15 -187.35 -67.75 -186.95 -67.75 -186.35 L-67.5 -182.9 -67.5 -182.95 -64.75 -166.45 Q-64.2 -162.85 -61.45 -156.45 L-61.4 -156.25 -61.3 -156.0 Q-61.15 -155.5 -61.35 -154.95 -61.65 -154.05 -61.6 -152.0 L-58.05 -148.8 -57.7 -148.35 Q-53.2 -139.45 -51.65 -139.1 -50.45 -139.1 -49.95 -139.8 L-49.35 -140.4 -48.5 -140.55 -47.75 -140.25 -45.95 -139.0 -40.15 -135.65 -39.65 -135.25 -39.4 -134.6 Q-39.1 -132.9 -38.0 -130.95 L-34.9 -125.0 Q-34.7 -124.45 -34.9 -123.85 -35.15 -123.3 -35.7 -123.05 -36.3 -122.85 -36.85 -123.05 -53.0 -129.55 -67.2 -145.9 -73.8 -153.5 -77.8 -159.9 -79.65 -159.15 -79.7 -155.35 -79.05 -147.7 -79.35 -145.55 -79.45 -145.1 -79.8 -144.7 -80.15 -144.35 -80.65 -144.3 L-81.6 -144.5 -82.25 -145.25 Q-85.35 -153.05 -91.35 -167.05 -96.5 -178.9 -98.65 -184.75 L-98.65 -184.8 Q-105.15 -202.7 -104.3 -225.65 -103.45 -248.7 -88.4 -271.65 -73.55 -294.4 -65.9 -302.85 L-60.1 -308.95 -58.4 -310.35 -57.3 -310.7 -57.25 -310.7 Q-49.7 -314.85 -47.4 -315.5 L-47.35 -315.5 Q-33.55 -319.1 -27.55 -320.15 -3.55 -324.25 17.5 -323.1 38.85 -321.9 47.65 -317.1 56.45 -312.3 64.6 -303.2 M-73.3 -302.25 Q-81.35 -292.4 -89.85 -276.6 -98.25 -261.1 -103.3 -246.2 -108.3 -231.45 -108.3 -220.2 -108.25 -208.85 -107.0 -200.05 -105.7 -191.3 -99.65 -176.3 L-99.6 -176.25 Q-95.3 -163.85 -91.9 -155.25 L-91.85 -154.3 -92.35 -153.55 Q-92.7 -153.25 -93.2 -153.2 -93.7 -153.15 -94.1 -153.4 L-106.5 -160.9 Q-108.65 -160.4 -109.35 -158.3 -109.95 -156.7 -109.5 -154.9 -109.25 -154.05 -109.15 -153.05 L-109.15 -153.0 -109.05 -151.2 Q-109.0 -150.65 -109.35 -150.2 L-109.6 -149.9 Q-110.0 -149.4 -110.6 -149.35 -111.2 -149.25 -111.7 -149.6 -114.85 -151.95 -117.85 -154.35 L-117.8 -154.35 Q-128.65 -163.0 -135.35 -175.15 -148.2 -198.35 -136.5 -222.8 L-136.9 -222.95 -162.35 -208.75 -163.35 -208.55 Q-163.85 -208.65 -164.2 -209.05 -164.6 -209.45 -164.6 -210.0 L-164.3 -210.95 Q-139.5 -243.35 -129.4 -282.35 -124.2 -302.7 -112.6 -310.0 -101.05 -317.55 -83.15 -311.9 L-82.65 -311.65 -73.45 -304.5 -72.95 -303.9 -72.9 -303.1 -73.2 -302.35 -73.35 -302.25 -73.3 -302.25" fill="#fef4ab" fill-rule="evenodd" stroke="none"/>
  </g>
</svg>
