<?xml version="1.0" encoding="UTF-8" standalone="no"?>
<svg xmlns:xlink="http://www.w3.org/1999/xlink" height="199.45px" width="208.55px" xmlns="http://www.w3.org/2000/svg">
  <g transform="matrix(1, 0, 0, 1, 101.85, 323.9)">
    <path d="M40.05 -314.85 Q48.9 -311.5 56.0 -306.05 L55.95 -306.05 Q62.95 -300.75 74.85 -287.45 86.8 -274.15 91.85 -263.1 96.85 -252.05 98.25 -235.65 99.55 -219.65 105.5 -194.05 L105.55 -193.85 Q107.9 -174.7 105.55 -159.5 103.05 -143.7 98.5 -141.25 L97.4 -141.1 96.45 -141.7 96.35 -141.85 Q96.1 -142.25 96.1 -142.7 96.1 -146.75 96.75 -159.35 L96.75 -159.45 Q96.7 -163.05 96.45 -164.85 89.8 -161.2 81.6 -149.45 72.8 -136.8 66.3 -133.2 L65.3 -133.0 Q64.8 -133.1 64.45 -133.5 64.1 -133.9 64.05 -134.4 63.9 -137.35 63.3 -139.0 L63.2 -139.75 63.5 -140.45 64.05 -140.95 64.05 -141.0 Q64.05 -142.05 63.6 -142.55 62.9 -143.1 61.5 -143.1 59.05 -142.95 55.75 -139.15 51.8 -133.95 50.5 -132.9 50.0 -132.5 49.45 -132.55 48.8 -132.6 48.4 -133.0 48.0 -133.45 48.0 -134.05 L47.55 -137.9 47.5 -138.2 47.85 -141.05 48.15 -141.75 48.75 -142.2 Q53.8 -144.4 58.7 -146.85 65.5 -150.3 71.2 -153.9 L71.4 -154.0 Q81.05 -160.85 84.35 -163.95 94.0 -173.25 94.1 -181.15 L92.9 -185.05 89.05 -194.7 Q83.45 -207.85 83.15 -209.7 82.65 -212.3 82.75 -218.2 L82.9 -225.45 83.1 -226.15 Q84.4 -228.6 84.85 -233.0 85.4 -238.35 84.8 -245.4 L84.8 -245.65 Q85.45 -253.7 84.6 -257.7 84.0 -260.45 82.75 -260.7 L81.25 -260.3 81.2 -260.25 80.9 -260.05 80.45 -236.5 Q80.45 -235.9 80.0 -235.45 79.55 -235.05 79.0 -235.05 78.35 -235.05 77.95 -235.45 76.35 -236.9 73.05 -241.7 L67.1 -250.2 67.05 -250.25 Q61.55 -257.85 57.9 -260.0 57.45 -260.3 57.25 -260.75 56.9 -261.45 56.0 -261.6 L55.3 -260.9 54.65 -260.55 Q53.7 -260.35 53.45 -259.5 L53.0 -258.75 Q35.85 -242.7 27.9 -236.3 27.4 -235.95 26.85 -236.0 26.25 -236.05 25.85 -236.45 25.45 -236.9 25.45 -237.5 L25.25 -256.55 25.4 -257.25 25.45 -257.3 25.25 -258.8 25.15 -259.2 25.15 -259.25 24.55 -259.7 23.85 -259.75 23.5 -259.75 Q22.85 -259.65 22.45 -258.8 L22.0 -258.25 5.5 -245.85 Q-14.0 -231.2 -16.45 -230.05 L-17.4 -229.9 Q-17.95 -230.05 -18.25 -230.45 L-18.6 -231.4 Q-18.6 -235.5 -16.95 -247.25 L-17.0 -247.15 Q-16.75 -251.45 -17.6 -253.6 -18.25 -255.0 -19.6 -255.1 L-20.2 -255.05 -20.3 -255.05 Q-38.25 -245.05 -45.45 -239.45 -45.9 -239.1 -46.45 -239.15 -47.0 -239.2 -47.4 -239.55 -48.25 -240.25 -50.35 -241.15 -51.0 -241.7 -54.9 -221.15 -58.3 -193.9 -60.2 -185.7 -60.75 -183.5 -61.2 -182.55 -61.6 -181.65 -62.05 -181.4 -63.3 -180.45 -64.35 -181.65 -65.3 -182.45 -65.6 -188.7 L-66.8 -205.45 Q-67.95 -212.15 -69.0 -215.05 L-69.3 -215.8 Q-70.3 -214.0 -70.7 -210.0 L-70.7 -202.95 Q-69.15 -190.25 -66.5 -172.4 -64.0 -155.35 -59.65 -150.25 -52.6 -144.0 -48.6 -140.9 L-48.15 -140.35 -48.0 -139.7 -48.1 -125.95 Q-48.1 -125.4 -48.5 -124.95 -48.9 -124.5 -49.45 -124.45 L-50.5 -124.75 Q-57.25 -129.65 -68.45 -150.7 -73.65 -160.35 -77.8 -169.1 -79.65 -167.45 -79.75 -158.0 -79.1 -142.8 -79.35 -138.6 -79.35 -138.15 -79.65 -137.75 L-80.35 -137.25 -81.25 -137.25 Q-81.7 -137.35 -82.0 -137.7 -85.95 -142.4 -91.0 -153.7 -96.0 -164.85 -100.05 -178.9 L-100.05 -179.0 Q-102.15 -187.45 -101.8 -208.95 -101.45 -230.35 -99.2 -244.9 -97.05 -259.75 -80.2 -281.65 -63.35 -303.55 -54.85 -308.15 -46.5 -312.85 -41.95 -314.7 -37.45 -316.6 -31.9 -318.5 -26.35 -320.4 -13.6 -322.35 L-5.65 -323.5 -5.2 -323.8 -4.55 -323.9 Q11.3 -322.75 21.3 -320.45 31.35 -318.15 40.05 -314.85" fill="#8c75ea" fill-rule="evenodd" stroke="none"/>
  </g>
</svg>
