<?xml version="1.0" encoding="UTF-8" standalone="no"?>
<svg xmlns:xlink="http://www.w3.org/1999/xlink" height="190.0px" width="233.8px" xmlns="http://www.w3.org/2000/svg">
  <g transform="matrix(1, 0, 0, 1, 118.8, 324.45)">
    <path d="M56.2 -307.45 Q71.8 -295.3 83.9 -289.7 L84.4 -289.15 84.4 -288.45 83.9 -287.9 83.25 -287.55 81.05 -284.35 80.9 -284.0 81.05 -283.8 81.75 -283.4 82.2 -283.05 83.75 -280.95 90.3 -272.45 Q100.65 -258.55 103.7 -247.7 L103.7 -247.45 103.7 -240.35 103.45 -239.65 Q103.15 -239.35 102.75 -239.35 102.35 -239.35 102.05 -239.6 95.55 -245.2 93.55 -246.05 89.3 -240.85 88.85 -239.0 L88.85 -238.95 Q88.6 -237.95 88.6 -233.55 88.6 -227.85 92.65 -220.8 L92.65 -220.75 Q94.95 -216.55 101.6 -207.7 108.15 -198.85 110.8 -194.1 115.0 -186.2 115.0 -179.55 115.0 -177.15 114.7 -176.4 114.0 -174.35 110.9 -172.55 L110.3 -172.45 Q110.0 -172.5 109.75 -172.7 L109.45 -173.2 Q106.65 -184.85 102.45 -185.05 102.05 -184.85 101.5 -181.5 L101.5 -181.55 99.75 -170.8 Q96.2 -153.0 86.0 -144.1 L85.4 -143.85 84.8 -144.0 84.4 -144.55 Q84.0 -145.85 83.45 -149.7 L83.0 -150.65 Q82.75 -150.95 82.8 -151.3 82.8 -151.7 83.1 -151.95 L83.4 -152.2 83.4 -152.25 Q83.45 -153.5 82.65 -154.15 81.55 -154.9 79.4 -154.9 77.8 -154.85 76.05 -153.55 72.6 -150.95 70.25 -149.75 L70.0 -149.65 68.4 -149.3 67.7 -149.4 67.25 -149.9 Q67.1 -150.25 67.25 -150.6 L67.7 -151.15 71.45 -153.45 71.65 -153.55 Q81.35 -160.5 84.65 -163.6 94.5 -173.05 94.6 -181.15 L93.35 -185.2 89.5 -194.9 Q83.95 -207.95 83.65 -209.8 83.15 -212.4 83.25 -218.2 L83.4 -227.95 83.35 -228.8 Q83.25 -229.2 83.5 -229.5 83.75 -229.85 84.15 -229.9 85.9 -230.25 86.15 -231.8 L59.2 -253.65 59.15 -253.7 56.75 -255.8 Q23.45 -232.1 19.6 -237.35 L19.4 -237.95 19.4 -238.65 19.45 -238.85 Q21.3 -247.3 21.3 -251.15 L21.3 -251.25 Q21.85 -255.5 21.1 -257.65 20.45 -259.3 18.75 -259.3 17.2 -259.1 11.15 -252.7 3.75 -244.9 2.5 -244.2 L2.55 -244.25 Q1.15 -243.4 -2.8 -240.25 -6.2 -237.6 -9.6 -236.05 -19.85 -231.55 -47.9 -230.4 L-48.45 -230.55 -48.85 -230.95 -48.95 -231.55 -46.4 -247.1 -47.0 -247.15 Q-55.3 -246.95 -63.65 -225.75 -67.0 -217.35 -69.15 -208.2 -71.2 -199.6 -71.2 -194.85 -71.2 -186.95 -69.95 -182.0 -69.25 -179.1 -67.05 -174.35 -64.4 -168.8 -62.75 -161.65 L-62.75 -161.45 Q-62.7 -158.6 -61.8 -155.8 L-61.8 -155.15 Q-62.2 -154.15 -62.1 -151.8 L-61.2 -151.0 -60.9 -150.35 -60.65 -147.8 -59.7 -147.2 -59.65 -147.2 -58.3 -147.05 -57.6 -147.15 -57.1 -147.15 -56.65 -146.95 -55.05 -145.55 -54.75 -145.15 -54.7 -144.7 Q-54.95 -142.35 -55.5 -141.3 -55.65 -141.0 -55.95 -140.85 L-56.6 -140.75 Q-68.2 -143.45 -74.75 -151.15 -80.25 -157.6 -80.2 -164.35 -80.2 -177.45 -88.0 -189.0 L-93.5 -196.9 -93.55 -196.95 Q-96.25 -201.3 -96.2 -204.8 -96.3 -207.1 -91.8 -213.05 -87.85 -218.3 -87.8 -222.85 L-87.8 -226.15 Q-88.25 -228.25 -90.25 -228.3 -91.45 -228.05 -101.2 -204.6 -101.15 -198.1 -98.9 -194.2 -97.85 -192.3 -93.75 -188.25 -89.9 -184.4 -88.1 -180.15 L-88.1 -180.2 Q-85.5 -174.1 -85.3 -163.85 -85.15 -155.15 -75.0 -144.1 -73.4 -142.4 -70.2 -140.7 L-69.75 -140.25 -69.7 -139.6 -70.05 -139.05 -70.7 -138.85 -71.95 -138.85 Q-74.1 -138.85 -75.1 -138.0 -76.0 -137.15 -75.95 -135.45 L-76.1 -134.85 -76.6 -134.5 -77.25 -134.5 Q-99.75 -141.55 -101.85 -148.85 -102.3 -150.35 -101.6 -157.9 -101.6 -160.75 -102.4 -162.2 -103.1 -163.35 -104.5 -163.35 -106.1 -163.25 -109.6 -160.0 -109.9 -159.75 -110.3 -159.75 -110.75 -159.75 -111.0 -160.05 L-111.3 -160.75 Q-111.3 -170.1 -115.0 -184.0 -118.8 -198.2 -118.8 -204.6 -118.8 -218.45 -109.7 -232.7 L-109.75 -232.55 -103.55 -241.55 Q-101.05 -245.2 -100.95 -246.6 L-100.95 -247.05 -100.95 -247.35 -100.95 -247.45 -100.95 -247.5 -101.15 -248.5 -101.15 -248.55 Q-101.75 -249.9 -103.55 -249.9 L-103.7 -249.9 -104.2 -250.0 -106.45 -251.2 -106.85 -251.6 -107.0 -252.2 -106.7 -252.75 -106.2 -253.05 Q-103.6 -253.7 -98.45 -260.75 -93.45 -267.6 -93.35 -270.15 L-93.6 -271.9 Q-94.45 -273.35 -96.75 -273.65 -97.1 -273.7 -97.35 -273.9 L-97.65 -274.5 -97.5 -275.1 -97.05 -275.55 -96.1 -276.0 Q-85.95 -280.4 -75.45 -288.15 L-58.2 -301.3 Q-45.8 -315.25 -32.95 -319.45 -20.2 -323.75 -14.55 -324.4 L-14.35 -324.4 16.1 -322.0 Q40.2 -319.85 56.2 -307.45" fill="#ddffe7" fill-rule="evenodd" stroke="none"/>
  </g>
</svg>
