<?xml version="1.0" encoding="UTF-8" standalone="no"?>
<svg xmlns:xlink="http://www.w3.org/1999/xlink" height="190.3px" width="227.25px" xmlns="http://www.w3.org/2000/svg">
  <g transform="matrix(1, 0, 0, 1, 114.05, 320.75)">
    <path d="M2.2 -320.3 L2.6 -320.65 3.15 -320.75 Q13.25 -319.4 26.5 -315.4 L43.85 -308.1 44.0 -308.0 Q48.25 -305.15 61.05 -299.15 74.25 -292.9 78.45 -290.2 L78.45 -290.15 Q91.8 -281.45 97.85 -269.3 99.85 -265.45 101.85 -259.35 L105.05 -250.45 105.05 -249.7 Q104.9 -249.3 104.55 -249.15 L103.8 -249.1 Q102.5 -249.45 100.3 -252.6 L100.3 -252.65 Q98.9 -254.65 96.4 -254.65 L95.05 -254.45 94.6 -254.45 94.25 -254.6 94.05 -254.65 Q92.0 -254.45 91.45 -246.7 L91.45 -236.9 Q91.45 -224.8 94.8 -215.65 97.0 -209.55 102.2 -201.8 108.0 -193.0 109.75 -189.1 113.2 -181.2 113.2 -171.55 113.2 -167.1 111.3 -163.75 107.3 -156.85 106.5 -155.0 L106.05 -154.5 105.4 -154.4 104.85 -154.7 Q104.3 -155.1 103.25 -159.85 L103.2 -160.0 Q103.1 -160.2 103.15 -160.45 103.3 -161.95 102.75 -162.7 102.2 -163.25 101.15 -163.3 L100.6 -162.75 100.05 -162.45 Q98.6 -162.15 98.25 -160.45 L98.0 -159.95 92.7 -154.4 Q83.1 -144.6 79.05 -143.2 L78.5 -143.15 78.0 -143.45 77.75 -143.9 76.7 -148.75 Q76.1 -150.5 75.15 -151.35 L74.85 -151.8 74.85 -152.35 75.0 -153.4 75.0 -153.45 74.95 -155.15 Q74.85 -155.45 75.0 -155.75 L75.3 -156.2 Q82.0 -161.1 84.65 -163.6 94.5 -173.05 94.6 -181.15 L93.35 -185.2 89.5 -194.9 Q83.95 -207.95 83.65 -209.8 83.15 -212.4 83.25 -218.2 L83.35 -224.2 Q83.35 -224.6 83.65 -224.9 83.95 -225.2 84.35 -225.2 L84.65 -225.2 Q87.8 -225.2 88.15 -227.25 55.85 -265.7 54.5 -265.95 52.55 -265.85 52.05 -263.4 L52.05 -259.3 Q53.8 -244.25 53.8 -241.85 L53.65 -233.3 Q53.25 -230.3 51.1 -223.95 50.95 -223.6 50.6 -223.4 L49.9 -223.3 49.4 -223.4 48.9 -223.7 48.65 -224.2 Q46.8 -235.0 40.15 -249.25 33.35 -263.8 29.55 -264.05 L29.25 -264.05 29.05 -264.05 28.75 -264.0 28.65 -264.0 Q26.65 -263.6 26.65 -261.35 L26.85 -260.5 26.9 -260.0 Q26.35 -257.0 26.35 -252.0 26.45 -233.8 25.7 -230.45 L25.4 -229.95 24.8 -229.7 24.2 -229.8 23.8 -230.25 Q20.6 -237.25 12.5 -257.45 8.45 -266.85 5.65 -270.85 L2.55 -273.5 Q0.45 -273.25 0.45 -270.35 L1.0 -268.5 0.95 -267.8 -2.2 -259.95 Q-8.5 -244.45 -11.55 -240.65 L-12.05 -240.35 -12.65 -240.35 -13.15 -240.7 -13.35 -241.3 -12.7 -252.7 -12.7 -252.8 Q-12.75 -255.55 -13.25 -257.35 L-16.2 -260.25 Q-23.65 -259.75 -32.05 -244.35 L-32.2 -244.2 Q-42.45 -232.15 -44.5 -226.55 L-45.0 -226.0 -45.8 -225.95 -46.55 -226.25 -46.9 -226.5 -47.15 -226.9 Q-48.1 -230.3 -48.1 -231.65 L-48.1 -231.75 -45.4 -251.25 -45.4 -254.45 Q-45.6 -255.45 -46.15 -255.95 L-46.4 -256.45 -46.7 -257.25 Q-47.45 -258.45 -49.25 -258.45 -51.7 -258.2 -60.4 -237.8 -66.8 -222.95 -72.35 -207.2 L-72.85 -206.6 -73.65 -206.55 -74.0 -206.7 -74.35 -206.9 -74.6 -207.25 Q-78.4 -215.7 -78.95 -218.55 -79.25 -219.95 -79.25 -227.75 -79.25 -234.1 -77.75 -241.35 -76.4 -248.25 -76.4 -249.0 L-76.4 -251.9 Q-76.85 -253.7 -78.95 -253.7 -81.6 -253.55 -84.35 -227.55 L-84.35 -227.5 Q-83.75 -218.45 -81.5 -209.55 -77.2 -192.35 -69.55 -192.15 L-69.3 -193.2 -68.85 -193.7 -68.2 -193.8 -67.6 -193.45 -67.4 -192.8 Q-67.3 -181.6 -66.45 -170.55 -64.75 -147.25 -61.0 -147.05 -59.8 -147.05 -59.15 -147.75 L-58.75 -148.05 -58.2 -148.1 -57.75 -147.85 Q-49.6 -140.75 -46.2 -138.6 L-45.85 -138.2 -45.75 -137.75 Q-45.7 -136.05 -43.6 -132.25 -43.4 -131.9 -43.5 -131.5 -43.65 -131.15 -43.95 -130.9 L-44.6 -130.55 -45.25 -130.45 Q-50.8 -131.25 -60.6 -138.7 L-69.5 -145.1 -69.6 -145.2 -70.0 -145.4 -70.1 -145.45 -70.05 -145.5 -70.3 -145.5 -70.5 -145.5 Q-73.6 -145.4 -73.75 -141.6 -73.1 -135.25 -73.1 -132.6 L-73.3 -131.95 -73.9 -131.6 -74.55 -131.7 Q-77.8 -133.35 -87.3 -142.3 L-93.3 -147.8 -93.6 -148.5 -93.65 -148.65 Q-94.2 -150.25 -95.95 -150.25 -96.8 -150.25 -97.4 -149.85 -99.9 -148.0 -99.3 -139.7 L-99.4 -139.2 -99.75 -138.8 -100.3 -138.65 -100.8 -138.65 -101.3 -138.8 -101.7 -139.2 Q-106.2 -147.9 -111.15 -155.85 L-111.2 -155.95 Q-114.05 -161.45 -114.05 -170.5 -114.05 -181.6 -111.85 -187.6 L-103.4 -209.15 Q-100.65 -216.95 -99.9 -228.55 -99.45 -235.2 -99.05 -247.7 L-99.05 -247.75 Q-97.9 -265.15 -81.9 -287.05 L-81.9 -287.1 Q-77.9 -292.75 -59.1 -307.05 -55.95 -309.5 -50.05 -312.05 -43.8 -314.8 -39.5 -315.3 L-2.6 -319.35 -2.55 -319.35 Q1.1 -319.65 2.0 -320.15 L2.05 -320.15 2.2 -320.3 M66.5 -148.8 L66.3 -148.15 Q60.3 -139.5 55.8 -140.15 55.45 -140.2 55.2 -140.4 L54.9 -141.0 54.45 -143.35 Q54.35 -143.7 54.55 -144.0 L55.0 -144.5 58.9 -146.4 65.0 -149.6 65.65 -149.7 66.25 -149.4 66.5 -148.8" fill="#fefd89" fill-rule="evenodd" stroke="none"/>
  </g>
</svg>
