<?xml version="1.0" encoding="UTF-8" standalone="no"?>
<svg xmlns:xlink="http://www.w3.org/1999/xlink" height="268.05px" width="207.2px" xmlns="http://www.w3.org/2000/svg">
  <g transform="matrix(1, 0, 0, 1, 102.6, 317.75)">
    <path d="M11.3 -316.9 L6.5 -317.3 Q68.3 -317.3 92.4 -275.5 104.6 -254.3 104.6 -229.3 L104.5 -222.75 Q93.3 -229.65 74.7 -245.7 L63.35 -255.7 Q62.95 -258.3 59.55 -264.5 56.15 -270.75 53.6 -270.75 51.05 -270.75 50.2 -269.95 L55.2 -258.65 Q56.85 -255.2 56.75 -248.25 56.6 -241.35 45.95 -228.7 L45.8 -228.8 Q46.45 -240.2 43.9 -250.3 41.3 -260.45 36.95 -271.65 L35.95 -278.3 Q30.75 -291.75 25.0 -284.7 25.05 -283.5 26.95 -281.2 32.8 -270.25 25.65 -258.55 18.45 -246.9 16.7 -244.6 16.7 -258.7 15.6 -264.55 14.5 -270.45 11.5 -276.15 8.45 -281.9 3.2 -285.25 -2.05 -288.6 -4.4 -288.6 -7.2 -288.6 -7.7 -286.4 -13.85 -274.55 -22.8 -263.7 -34.05 -250.2 -38.1 -239.6 -42.2 -229.0 -42.5 -235.6 L-42.5 -256.85 Q-42.3 -271.2 -30.85 -280.05 -36.5 -285.9 -43.5 -274.0 -46.5 -268.9 -48.05 -262.95 L-57.8 -250.6 Q-66.4 -239.5 -69.45 -232.8 -72.55 -226.1 -73.4 -222.7 L-74.85 -216.15 -74.95 -216.2 Q-81.1 -229.9 -81.1 -235.95 -81.1 -254.35 -62.75 -273.45 L-55.35 -280.5 Q-57.55 -282.45 -60.05 -282.65 -60.65 -282.85 -66.55 -277.5 -72.5 -272.15 -85.65 -257.45 L-97.35 -244.4 Q-97.45 -254.45 -95.95 -260.55 -91.55 -278.35 -79.0 -289.75 -66.5 -301.15 -56.95 -305.9 -47.45 -310.65 -38.0 -314.45 -31.15 -317.75 -27.4 -317.75 -10.3 -317.8 11.3 -316.9 M49.25 -267.4 L49.3 -266.9 49.25 -267.3 49.25 -267.4 49.25 -267.35 49.2 -267.6 49.25 -267.4 M-86.7 -232.75 Q-86.15 -226.9 -83.25 -217.5 -78.95 -203.85 -75.15 -200.15 L-73.2 -190.15 -71.0 -177.45 Q-70.25 -172.85 -68.85 -161.6 -72.15 -163.7 -78.2 -174.65 L-83.7 -185.1 Q-86.55 -185.1 -87.1 -182.25 L-87.15 -177.75 Q-87.15 -171.9 -84.9 -167.95 -83.2 -165.0 -76.35 -157.55 L-69.7 -150.95 -69.7 -150.9 -72.8 -152.2 Q-81.9 -162.2 -83.2 -162.2 -86.2 -162.2 -86.2 -158.7 L-83.2 -148.4 Q-102.6 -168.4 -102.6 -203.2 -102.6 -213.8 -98.2 -229.65 L-97.35 -232.55 Q-94.35 -235.95 -90.0 -242.6 L-86.3 -248.4 Q-87.3 -238.55 -86.7 -232.75 M64.2 -103.8 L65.9 -108.95 71.95 -108.4 78.45 -108.8 78.95 -107.9 82.55 -102.65 Q87.75 -94.95 87.75 -86.55 87.75 -74.75 79.75 -57.7 L75.85 -49.7 69.9 -58.95 Q65.6 -65.1 63.7 -70.25 60.9 -77.75 60.9 -87.25 60.9 -93.65 64.2 -103.8 M91.25 -169.5 Q90.6 -156.65 88.55 -150.45 87.05 -145.5 80.6 -135.3 L76.3 -128.7 Q68.85 -124.55 57.55 -133.55 L50.35 -141.25 51.2 -141.65 59.05 -145.35 59.3 -145.45 59.35 -145.5 Q66.25 -148.95 72.0 -152.6 82.0 -159.7 85.35 -162.9 88.9 -166.3 91.25 -169.5 M84.75 -228.45 L84.9 -228.35 86.8 -226.55 88.75 -224.25 88.8 -224.15 89.15 -223.7 88.6 -224.05 90.05 -222.4 90.55 -221.85 Q91.3 -205.05 91.5 -192.65 L90.4 -195.3 Q84.95 -208.15 84.6 -210.0 84.15 -212.5 84.25 -218.2 L84.3 -219.7 84.3 -219.85 84.3 -220.0 84.3 -221.15 84.4 -225.8 84.4 -228.0 84.35 -228.75 84.75 -228.45" fill="#eb585a" fill-rule="evenodd" stroke="none"/>
    <path d="M49.25 -267.4 L49.2 -267.6 49.25 -267.35 49.25 -267.4 49.25 -267.3 49.3 -266.9 49.25 -267.4" fill="#000000" fill-rule="evenodd" stroke="none"/>
  </g>
</svg>
