<?xml version="1.0" encoding="UTF-8" standalone="no"?>
<svg xmlns:xlink="http://www.w3.org/1999/xlink" height="190.0px" width="243.3px" xmlns="http://www.w3.org/2000/svg">
  <g transform="matrix(1, 0, 0, 1, 116.9, 321.6)">
    <path d="M17.3 -321.6 Q27.85 -321.6 36.1 -318.75 43.25 -316.3 52.6 -310.15 L52.65 -310.15 Q78.5 -291.25 104.1 -275.75 L104.5 -275.25 104.55 -274.65 104.2 -274.1 103.6 -273.9 94.3 -273.1 93.85 -273.15 93.45 -273.4 Q91.45 -275.25 89.3 -275.3 86.85 -275.25 86.85 -272.25 86.95 -271.2 91.8 -263.55 L91.8 -263.6 Q97.25 -255.05 100.6 -252.1 103.25 -249.8 108.05 -248.55 L116.35 -246.55 116.4 -246.55 Q121.25 -245.1 123.5 -242.05 126.4 -238.3 126.4 -231.05 126.4 -228.3 125.6 -226.2 L125.55 -226.15 Q124.15 -223.3 123.0 -220.25 L122.55 -219.7 121.9 -219.6 Q121.55 -219.65 121.35 -219.9 L121.05 -220.5 Q120.65 -225.1 114.65 -232.15 110.3 -237.2 106.75 -238.85 L106.35 -239.2 Q104.9 -241.4 103.05 -241.45 100.05 -241.45 100.0 -238.9 100.05 -237.25 102.75 -230.45 105.6 -223.25 105.6 -215.65 L105.6 -215.4 Q104.65 -211.35 104.55 -210.05 L104.35 -209.5 Q104.15 -209.3 103.85 -209.2 L103.25 -209.2 102.8 -209.5 Q100.75 -212.05 91.45 -219.15 L83.75 -225.2 83.5 -225.55 83.4 -226.0 83.4 -227.95 Q83.35 -230.95 81.1 -233.85 78.15 -234.0 77.3 -233.1 L76.8 -232.8 76.2 -232.8 75.7 -233.15 Q72.3 -237.7 66.6 -247.0 L66.45 -247.6 66.45 -248.05 66.5 -248.3 Q67.05 -250.6 66.35 -251.75 65.5 -252.75 63.4 -252.75 59.75 -252.6 59.35 -247.4 L59.35 -247.3 59.35 -247.25 Q59.7 -239.7 59.0 -237.85 L58.65 -237.4 58.1 -237.2 Q57.8 -237.2 57.55 -237.35 57.25 -237.5 57.15 -237.8 55.8 -240.8 51.25 -244.1 L51.2 -244.15 41.7 -250.1 Q35.4 -253.85 32.75 -256.25 32.15 -256.75 29.1 -261.9 26.65 -266.0 25.5 -265.9 L23.85 -265.4 23.55 -265.15 Q23.25 -264.85 23.3 -263.85 23.35 -262.15 24.4 -259.1 26.5 -252.8 32.6 -241.0 L32.7 -240.3 32.3 -239.7 31.6 -239.55 Q31.25 -239.6 31.0 -239.85 19.05 -252.7 6.1 -270.35 L-3.1 -283.25 -3.3 -283.7 Q-8.45 -294.0 -13.05 -294.2 L-13.7 -294.15 Q-13.45 -292.75 -12.4 -289.7 -10.95 -285.35 -9.5 -277.1 -8.05 -268.85 -13.85 -253.55 L-13.85 -253.5 -19.95 -238.3 -20.35 -237.8 -20.95 -237.65 -21.55 -237.9 Q-21.8 -238.1 -21.85 -238.45 -22.85 -243.25 -22.85 -253.25 -22.85 -256.85 -20.0 -276.4 L-20.0 -276.45 Q-19.7 -278.8 -20.5 -279.95 -21.35 -281.0 -23.35 -281.0 -23.95 -280.75 -28.1 -269.2 -33.3 -254.75 -35.8 -251.05 L-35.8 -251.0 Q-49.95 -230.35 -54.75 -220.15 -54.9 -219.85 -55.2 -219.7 L-55.85 -219.6 Q-56.2 -219.7 -56.4 -219.95 L-56.65 -220.6 -56.65 -241.05 -56.6 -241.35 Q-55.15 -245.85 -54.0 -253.5 -52.85 -261.05 -52.85 -266.1 -52.85 -267.0 -53.15 -267.6 -53.95 -268.8 -55.9 -268.8 -58.7 -268.6 -60.25 -256.1 L-60.3 -255.85 -63.5 -247.0 Q-68.95 -231.65 -71.05 -227.85 L-71.1 -227.85 -90.3 -194.95 -90.9 -194.5 -91.6 -194.55 -92.1 -195.05 Q-93.45 -198.4 -95.8 -207.3 -98.15 -215.9 -98.1 -217.15 -98.1 -220.9 -93.35 -236.65 -93.35 -238.15 -93.5 -238.6 L-94.25 -239.1 -112.25 -217.1 -112.8 -216.75 -113.45 -216.8 -113.9 -217.25 -114.05 -217.85 Q-113.0 -227.3 -99.3 -244.0 L-89.3 -256.65 Q-84.25 -263.65 -82.5 -268.9 -66.05 -318.75 -14.1 -318.75 L-5.75 -317.85 Q-5.25 -317.9 -5.05 -318.55 -5.0 -318.9 -4.75 -319.05 L-4.2 -319.3 17.2 -321.6 17.3 -321.6 M93.1 -209.55 L93.3 -209.1 93.25 -208.6 Q92.65 -206.95 92.4 -204.2 L92.4 -196.25 Q92.4 -194.85 93.75 -189.85 L93.65 -189.15 93.1 -188.65 92.35 -188.7 Q91.95 -188.9 91.85 -189.25 L89.5 -194.9 Q83.95 -207.95 83.65 -209.8 83.2 -212.1 83.25 -217.05 83.2 -217.45 83.5 -217.7 83.75 -218.0 84.15 -218.05 L84.85 -217.85 Q89.5 -214.4 93.1 -209.55 M101.65 -178.4 L100.95 -178.35 100.4 -178.75 Q97.55 -182.6 97.55 -190.45 L97.8 -196.75 98.05 -197.35 98.65 -197.65 99.3 -197.55 99.75 -197.05 99.95 -196.55 100.0 -196.2 100.0 -196.05 Q100.0 -187.75 102.2 -179.55 L102.1 -178.9 101.65 -178.4 M94.85 -180.35 L95.45 -180.6 96.1 -180.45 96.5 -179.9 99.05 -170.15 Q99.05 -165.45 98.85 -164.6 98.35 -162.7 95.6 -158.6 95.4 -158.35 95.05 -158.25 L94.4 -158.25 Q92.5 -159.0 88.2 -163.05 L86.85 -164.25 86.55 -164.7 Q86.45 -164.95 86.5 -165.25 L86.75 -165.7 Q93.8 -173.15 94.55 -179.7 94.55 -180.1 94.85 -180.35 M88.4 -152.5 Q88.8 -150.3 87.05 -147.3 L83.05 -134.05 82.85 -133.45 82.3 -133.05 81.7 -133.1 Q80.75 -133.5 78.15 -135.55 75.25 -137.35 71.3 -137.9 64.45 -138.9 63.0 -141.2 L62.85 -141.8 Q62.9 -143.2 62.2 -143.85 61.4 -144.55 59.7 -144.55 L59.2 -144.7 58.8 -145.1 58.75 -145.2 Q58.55 -145.6 58.7 -145.95 L59.2 -146.55 Q65.9 -149.9 71.45 -153.45 L71.65 -153.55 80.2 -159.85 Q80.4 -160.05 80.75 -160.1 L81.3 -159.95 81.7 -159.55 Q82.65 -157.75 85.3 -156.35 L85.35 -156.35 Q88.05 -154.9 88.4 -152.5 M104.1 -169.75 Q104.35 -169.95 104.7 -170.0 L105.3 -169.85 105.7 -169.4 109.5 -160.9 109.5 -160.95 Q111.35 -156.55 111.3 -154.0 111.35 -152.95 110.3 -150.1 108.8 -146.2 107.2 -146.45 101.25 -146.45 98.9 -147.3 98.5 -147.45 98.35 -147.85 98.15 -148.25 98.3 -148.6 101.15 -156.55 103.8 -169.2 L104.1 -169.75 M28.0 -133.35 Q27.85 -133.75 28.05 -134.1 L28.65 -134.55 31.75 -135.5 32.5 -135.4 33.0 -134.85 32.9 -134.05 31.45 -131.85 30.9 -131.6 30.25 -131.7 28.45 -132.75 28.0 -133.35 M56.05 -143.0 L55.8 -142.3 Q55.6 -137.85 54.45 -135.4 L54.1 -135.0 53.55 -134.85 Q52.55 -134.8 46.15 -137.9 L46.1 -137.9 45.1 -138.4 Q44.7 -138.55 44.6 -138.95 44.45 -139.35 44.65 -139.7 L45.15 -140.2 Q50.05 -142.15 54.75 -144.35 L55.35 -144.45 55.9 -144.15 56.2 -143.6 56.05 -143.0 M-106.4 -216.6 L-105.35 -218.25 -104.8 -218.7 -104.1 -218.65 -103.65 -218.45 -103.3 -218.15 -103.1 -217.65 Q-101.6 -206.5 -99.0 -195.5 -94.25 -175.3 -89.55 -174.35 L-89.1 -174.2 -88.8 -173.85 -88.1 -172.5 Q-83.3 -163.25 -81.45 -160.75 L-81.45 -160.7 Q-78.55 -156.75 -70.7 -148.15 L-67.75 -145.0 Q-67.5 -144.75 -67.5 -144.35 L-67.7 -143.7 -67.95 -143.3 -68.2 -142.95 Q-71.3 -140.35 -73.25 -139.9 -75.85 -139.35 -76.9 -141.65 L-79.65 -147.9 Q-80.25 -148.35 -82.25 -148.35 -84.7 -148.15 -85.15 -137.75 L-85.35 -137.15 Q-85.6 -136.9 -85.9 -136.8 L-86.55 -136.85 Q-94.15 -140.2 -96.5 -141.65 -98.6 -142.8 -99.0 -146.55 -99.35 -150.2 -99.8 -151.1 -100.95 -153.0 -104.35 -153.0 -110.0 -153.05 -111.7 -148.05 -112.05 -146.8 -110.65 -142.2 L-110.65 -141.5 -111.1 -141.0 -111.8 -140.9 -112.35 -141.25 Q-116.95 -147.1 -116.9 -150.55 -116.9 -154.9 -114.55 -159.2 -113.25 -161.7 -109.55 -166.3 -102.8 -175.0 -102.75 -181.2 -102.75 -187.55 -105.5 -193.55 -108.45 -200.05 -108.45 -204.45 -108.45 -206.85 -106.55 -215.8 L-106.55 -215.95 -106.4 -216.6 M-76.1 -205.9 L-76.75 -202.95 Q-76.6 -197.4 -69.5 -190.95 -65.6 -187.35 -64.25 -185.6 -61.7 -182.2 -61.7 -178.6 -61.65 -177.4 -64.6 -167.9 -66.75 -160.85 -67.25 -156.3 -67.3 -156.0 -67.5 -155.75 L-68.0 -155.45 -68.6 -155.45 -69.05 -155.85 -88.4 -182.8 -88.6 -183.45 Q-88.5 -188.25 -83.3 -197.6 L-77.95 -206.6 -77.4 -207.05 -76.7 -207.0 -76.2 -206.55 -76.1 -205.9 M-58.95 -148.95 Q-52.5 -143.25 -48.75 -140.4 L-48.4 -139.85 Q-48.3 -139.5 -48.45 -139.2 L-48.95 -138.7 -53.1 -136.75 -53.85 -136.7 -54.4 -137.2 -54.6 -137.6 -54.75 -138.1 Q-54.85 -138.8 -58.35 -144.15 L-60.5 -147.75 -60.55 -148.4 -60.2 -149.0 -59.55 -149.2 -58.95 -148.95" fill="#ababfe" fill-rule="evenodd" stroke="none"/>
  </g>
</svg>
