<?xml version="1.0" encoding="UTF-8" standalone="no"?>
<svg xmlns:xlink="http://www.w3.org/1999/xlink" height="316.6px" width="191.7px" xmlns="http://www.w3.org/2000/svg">
  <g transform="matrix(1, 0, 0, 1, 92.25, 318.9)">
    <path d="M19.95 -318.9 Q36.5 -318.95 54.35 -304.55 71.8 -290.45 85.75 -267.25 99.05 -245.0 96.1 -225.35 L96.15 -225.2 Q99.45 -201.95 99.45 -177.3 99.45 -171.3 96.85 -163.75 94.35 -156.7 90.7 -151.45 90.3 -150.95 89.75 -150.85 L88.65 -151.05 88.3 -151.3 87.8 -151.8 87.6 -152.55 87.65 -160.3 Q87.25 -162.4 86.1 -163.35 85.75 -163.6 85.65 -164.0 85.45 -164.45 85.55 -164.85 L85.95 -165.6 Q91.85 -171.75 93.5 -177.25 94.1 -179.25 94.1 -181.15 L92.9 -185.05 89.05 -194.7 Q83.45 -207.85 83.15 -209.7 82.8 -211.45 82.75 -214.65 82.75 -215.15 83.0 -215.5 L83.7 -216.05 Q85.2 -216.9 85.2 -219.9 L85.05 -222.2 85.1 -222.7 Q85.35 -223.95 85.2 -225.75 L85.2 -225.9 82.6 -232.05 81.65 -234.15 81.6 -234.25 78.85 -240.6 74.55 -249.1 74.55 -249.15 73.3 -251.4 68.15 -259.65 Q67.3 -260.1 66.7 -260.9 L66.25 -261.4 66.15 -261.4 65.35 -261.4 Q64.95 -261.5 64.65 -261.8 60.2 -266.3 56.4 -266.4 52.45 -266.4 52.35 -263.25 52.65 -263.45 55.95 -260.5 61.25 -255.8 65.2 -251.35 71.9 -243.75 75.5 -236.2 L75.65 -235.25 75.15 -234.4 Q74.75 -234.1 74.3 -234.05 L73.35 -234.25 Q68.15 -237.5 61.0 -247.1 54.8 -255.45 52.95 -255.75 51.05 -255.75 50.4 -254.65 L50.4 -254.7 Q49.95 -253.6 49.95 -250.6 51.2 -243.65 50.85 -241.45 50.75 -240.85 50.3 -240.45 49.8 -240.1 49.25 -240.15 48.65 -240.2 48.25 -240.65 46.55 -242.5 39.0 -254.7 L38.95 -254.8 Q31.6 -265.0 26.4 -265.2 23.0 -265.1 22.95 -261.15 24.15 -249.0 23.85 -243.35 23.8 -242.75 23.35 -242.3 22.9 -241.9 22.3 -241.95 21.65 -242.0 21.25 -242.45 19.1 -244.8 12.65 -256.35 7.9 -264.85 7.05 -265.2 5.95 -264.9 2.95 -250.3 -1.2 -230.55 -3.6 -225.55 -3.8 -225.1 -4.25 -224.85 L-5.2 -224.7 Q-5.7 -224.8 -6.0 -225.15 -6.4 -225.5 -6.45 -226.0 -7.4 -233.9 -8.2 -260.5 -9.7 -281.4 -14.1 -281.7 -16.5 -281.4 -18.3 -268.65 L-18.3 -268.7 Q-19.8 -252.4 -20.25 -248.65 -21.55 -239.3 -27.3 -229.4 L-27.3 -229.35 Q-32.85 -220.0 -41.25 -212.3 L-41.9 -211.85 -42.45 -211.6 Q-43.0 -211.4 -43.55 -211.6 L-44.35 -212.3 -44.4 -212.5 -44.7 -214.05 -44.7 -214.15 Q-43.9 -223.2 -37.35 -244.8 L-31.2 -265.2 -31.3 -267.65 -32.55 -268.65 -34.05 -268.8 -44.15 -251.6 Q-57.7 -228.5 -62.5 -221.15 L-63.25 -220.55 Q-63.75 -220.4 -64.25 -220.55 L-65.0 -221.2 Q-65.3 -221.6 -65.25 -222.1 L-64.4 -234.55 -64.3 -235.0 Q-57.1 -252.6 -57.0 -253.95 L-57.55 -255.65 Q-58.5 -256.95 -60.6 -256.95 -64.8 -256.65 -68.8 -243.9 -72.3 -232.9 -72.3 -227.7 L-72.3 -226.8 -72.55 -226.0 -73.05 -225.2 Q-75.75 -206.45 -75.75 -201.15 L-75.55 -196.75 -74.45 -196.05 -72.9 -195.9 Q-71.1 -196.2 -65.65 -204.65 L-64.85 -205.25 -63.85 -205.2 -63.1 -204.55 Q-62.85 -204.1 -62.9 -203.6 L-64.05 -192.35 -64.05 -192.25 -64.05 -192.2 Q-62.85 -171.4 -63.15 -161.9 -63.15 -161.3 -63.6 -160.9 L-63.7 -160.75 Q-64.15 -160.35 -64.75 -160.3 -65.4 -160.35 -65.8 -160.75 L-66.0 -160.95 -66.35 -161.45 Q-74.3 -182.4 -78.4 -195.45 L-78.4 -195.5 -78.4 -196.35 -77.85 -197.1 -77.4 -197.3 -77.1 -197.4 -76.95 -197.4 -76.1 -197.15 -75.8 -196.95 -75.9 -197.0 Q-76.35 -197.45 -76.95 -197.45 L-77.0 -197.45 -77.1 -197.45 -77.45 -197.4 -77.9 -197.15 -78.45 -196.3 -78.45 -195.55 Q-83.0 -209.95 -82.95 -214.95 L-82.9 -215.35 -79.95 -225.8 -79.95 -225.75 -78.3 -232.3 -78.25 -234.6 -78.2 -234.85 Q-77.85 -236.8 -77.15 -238.0 L-77.1 -238.8 -77.35 -241.95 Q-78.0 -244.0 -79.95 -244.05 -80.75 -243.7 -84.7 -231.0 L-85.3 -230.2 Q-85.8 -229.9 -86.3 -229.95 L-87.2 -230.05 Q-87.8 -230.15 -88.2 -230.6 -88.6 -231.1 -88.5 -231.7 L-87.6 -239.85 -87.55 -239.9 Q-84.95 -256.95 -81.9 -264.1 -76.35 -277.55 -66.15 -284.15 L-64.7 -285.05 -63.85 -285.3 Q-63.4 -285.3 -63.0 -285.0 -61.9 -284.15 -61.05 -284.1 -59.7 -284.1 -58.85 -285.25 -58.3 -286.1 -58.2 -286.95 L-58.2 -287.0 -58.2 -287.1 Q-58.25 -288.35 -59.1 -289.0 L-59.5 -289.45 -60.25 -290.65 Q-62.4 -294.0 -62.7 -295.05 L-62.7 -295.95 -62.2 -296.7 -61.35 -297.0 Q-50.85 -297.45 -30.05 -306.9 L-15.25 -313.8 -15.2 -313.8 Q-7.85 -317.2 -5.85 -317.1 -2.45 -317.1 -0.4 -315.2 0.05 -314.8 0.1 -314.2 0.15 -313.65 -0.2 -313.15 -2.7 -310.05 -2.85 -307.75 L-2.55 -304.9 -1.6 -304.35 -1.55 -304.3 0.0 -304.2 Q0.85 -304.45 7.95 -311.15 16.35 -319.1 19.95 -318.9 M94.65 -224.4 L94.55 -224.8 94.35 -224.55 94.25 -224.35 94.65 -224.4 M24.15 -133.85 L29.5 -135.35 29.5 -135.3 34.8 -136.75 35.5 -137.2 Q40.25 -138.8 44.85 -140.65 45.4 -140.85 45.95 -140.65 L46.75 -139.9 Q47.0 -139.4 46.85 -138.85 42.75 -123.5 17.0 -108.25 10.55 -104.45 -3.7 -97.25 -11.95 -93.15 -12.3 -92.7 L-12.15 -91.15 -12.15 -91.1 Q-11.4 -90.0 -8.7 -90.0 2.35 -90.05 15.4 -98.25 L16.25 -98.45 17.1 -98.15 17.65 -97.4 Q18.35 -95.0 18.3 -93.75 18.55 -78.55 -12.0 -65.05 -19.7 -61.7 -32.3 -57.3 -40.2 -54.65 -40.5 -55.05 -40.5 -54.0 -40.65 -53.85 L-40.55 -53.75 Q-39.1 -52.35 -33.0 -52.35 L-21.5 -53.35 -20.55 -53.2 -19.9 -52.55 -19.75 -51.6 Q-22.6 -35.2 -46.75 -25.6 -48.8 -24.8 -65.05 -19.5 -71.95 -17.25 -72.3 -16.2 L-72.25 -14.65 -72.2 -14.65 Q-71.35 -13.5 -68.25 -13.5 L-64.2 -13.6 -63.3 -13.3 -62.7 -12.55 Q-62.55 -12.05 -62.75 -11.55 -64.15 -7.7 -64.95 -7.3 L-64.9 -7.35 Q-69.2 -4.0 -74.1 -2.35 -74.65 -2.2 -75.15 -2.35 L-75.9 -3.05 -78.6 -7.8 Q-83.0 -15.35 -82.95 -20.25 -83.0 -24.35 -79.3 -34.7 L-78.1 -38.1 -77.45 -38.95 -76.4 -39.1 Q-75.85 -39.0 -75.5 -38.55 -70.0 -31.2 -61.05 -31.2 -58.2 -31.3 -58.2 -34.95 -58.45 -35.7 -60.55 -36.95 -66.25 -40.25 -67.55 -41.3 -78.15 -49.35 -78.15 -65.85 -78.15 -70.5 -77.35 -83.95 -77.35 -84.55 -76.95 -84.95 -76.55 -85.35 -76.0 -85.4 -75.45 -85.45 -75.0 -85.1 -71.9 -82.95 -68.25 -82.95 -64.25 -82.95 -64.05 -85.65 -64.3 -86.45 -72.1 -94.75 L-72.15 -94.85 Q-81.5 -106.85 -84.1 -121.2 L-84.1 -121.25 Q-84.8 -125.05 -84.5 -136.95 -84.5 -137.6 -84.05 -138.0 -83.65 -138.45 -83.0 -138.45 L-82.9 -138.45 -82.15 -138.25 -81.6 -137.7 Q-74.75 -125.6 -74.1 -125.25 -71.1 -125.4 -71.1 -129.45 -71.1 -136.15 -74.2 -141.85 L-81.35 -152.45 Q-86.45 -159.75 -88.85 -167.1 -92.25 -177.35 -92.25 -191.55 -92.25 -195.7 -90.9 -209.35 L-90.45 -210.25 Q-90.05 -210.65 -89.5 -210.7 -88.95 -210.75 -88.5 -210.4 -88.05 -210.05 -87.9 -209.5 -86.7 -203.95 -83.8 -194.2 L-83.8 -194.25 -78.2 -176.25 Q-74.0 -163.45 -68.3 -152.05 -60.95 -137.4 -56.4 -137.1 -53.55 -137.2 -53.55 -140.85 L-53.2 -141.8 -52.75 -142.35 Q-52.35 -142.8 -51.7 -142.85 -51.1 -142.95 -50.65 -142.55 L-45.95 -139.0 Q-39.4 -134.8 -32.5 -132.3 L-32.45 -132.3 -32.1 -132.2 Q-24.0 -130.8 -19.95 -129.25 L-1.85 -128.5 -1.65 -128.8 Q-1.25 -129.25 -0.7 -129.3 L8.3 -130.45 9.3 -130.3 24.15 -133.85 M-75.75 -195.1 L-76.1 -194.7 -76.55 -194.5 -76.95 -194.45 -77.0 -194.45 -77.85 -194.75 -78.25 -195.2 -77.65 -194.6 -77.6 -194.6 -76.6 -194.45 -76.55 -194.5 Q-76.1 -194.6 -75.75 -195.0 L-75.7 -195.05 -75.45 -195.95 -75.55 -195.4 -75.75 -195.1" fill="#f2f2f2" fill-rule="evenodd" stroke="none"/>
  </g>
</svg>
