<?xml version="1.0" encoding="UTF-8" standalone="no"?>
<svg xmlns:xlink="http://www.w3.org/1999/xlink" height="279.4px" width="228.2px" xmlns="http://www.w3.org/2000/svg">
  <g transform="matrix(1, 0, 0, 1, 120.7, 318.75)">
    <path d="M67.75 -272.35 L72.55 -267.3 72.55 -267.35 Q80.15 -258.3 83.05 -243.4 L83.0 -242.8 82.6 -242.35 82.0 -242.2 81.45 -242.4 Q68.3 -252.25 51.35 -258.45 51.15 -258.55 51.0 -258.7 L50.75 -259.1 49.5 -262.3 49.5 -262.25 Q44.0 -274.4 34.75 -274.5 32.2 -274.5 32.2 -271.9 32.35 -271.15 34.4 -269.2 L34.4 -269.15 39.95 -264.1 Q48.35 -256.0 48.25 -249.35 48.3 -247.35 43.95 -238.45 39.9 -230.2 38.4 -228.3 38.15 -228.0 37.75 -227.95 L37.05 -228.1 Q36.7 -228.35 36.65 -228.7 33.15 -243.75 29.1 -254.75 L29.05 -254.75 Q23.3 -270.45 18.75 -270.7 17.7 -270.7 17.0 -270.25 L16.6 -270.0 Q19.05 -260.25 8.6 -248.85 3.6 -243.4 -14.35 -229.35 L-15.05 -229.15 Q-15.5 -229.25 -15.75 -229.55 L-15.95 -229.8 -16.15 -230.15 -16.2 -230.6 Q-12.75 -255.0 -1.15 -264.9 2.35 -267.9 6.55 -269.5 8.9 -270.45 9.05 -269.9 9.05 -271.35 9.3 -271.45 L9.05 -271.55 7.85 -272.4 7.8 -272.45 6.5 -272.6 Q-5.5 -272.55 -12.75 -258.95 L-13.15 -258.6 -13.65 -258.45 -14.0 -258.45 Q-17.45 -258.3 -23.85 -249.55 L-23.8 -249.6 Q-30.95 -238.85 -33.25 -236.0 L-33.75 -235.65 -34.35 -235.7 -34.85 -236.05 -35.05 -236.65 Q-35.05 -240.15 -36.0 -247.05 L-36.0 -247.2 Q-36.0 -252.5 -33.5 -258.35 L-33.5 -258.3 Q-31.3 -263.75 -31.25 -264.9 L-31.3 -266.8 -32.5 -267.7 -33.8 -267.85 Q-38.45 -267.7 -47.55 -254.85 -56.05 -242.95 -61.0 -231.25 -61.2 -230.85 -61.55 -230.7 -61.95 -230.55 -62.35 -230.7 L-62.85 -231.3 -65.9 -240.7 Q-68.45 -248.95 -64.05 -256.25 -59.8 -263.4 -56.6 -266.1 -53.7 -268.65 -49.2 -274.0 -49.25 -274.7 -49.55 -275.2 -50.3 -276.4 -52.1 -276.4 -57.55 -276.2 -65.65 -262.55 -68.65 -257.4 -70.95 -252.2 -71.5 -238.7 -69.1 -231.55 -66.85 -224.95 -64.6 -221.4 L-64.45 -220.65 Q-66.05 -214.05 -66.75 -202.2 -67.25 -193.45 -67.4 -180.3 L-67.6 -163.2 -67.8 -162.65 -68.3 -162.3 -68.95 -162.3 -69.4 -162.7 Q-72.3 -167.0 -75.85 -181.65 -79.25 -195.6 -79.25 -201.5 L-78.5 -209.5 Q-78.5 -212.95 -79.2 -214.7 -79.8 -216.0 -80.85 -216.05 -82.3 -216.05 -83.8 -214.9 -85.2 -213.85 -85.3 -212.9 -85.3 -208.7 -84.35 -194.45 -83.25 -178.9 -82.3 -174.05 L-82.4 -173.45 -83.0 -172.05 -83.0 -172.0 Q-85.05 -165.05 -85.65 -163.75 L-86.05 -163.3 -86.65 -163.2 -87.2 -163.45 -87.5 -163.95 Q-90.4 -175.75 -93.05 -184.05 L-93.05 -184.1 Q-93.65 -186.4 -93.95 -190.0 L-94.8 -197.3 Q-96.25 -211.1 -95.05 -232.4 L-94.85 -235.75 Q-94.15 -244.15 -92.4 -251.6 L-92.35 -251.75 -92.15 -252.65 -92.1 -252.75 -86.95 -267.55 -86.9 -267.65 -86.75 -268.0 -86.35 -268.8 -86.0 -269.55 Q-61.3 -318.75 3.3 -318.75 52.25 -318.75 80.0 -284.05 89.35 -272.35 94.9 -258.3 99.05 -247.65 99.05 -242.45 L99.05 -242.3 98.8 -240.55 98.55 -240.0 98.05 -239.7 97.45 -239.75 97.0 -240.1 Q92.45 -246.5 88.15 -247.1 87.8 -247.15 87.6 -247.35 L87.3 -247.85 85.5 -254.9 Q79.05 -277.15 68.6 -277.35 66.85 -277.35 66.3 -276.05 66.05 -275.5 66.05 -274.3 L67.75 -272.35 M91.5 -235.65 L91.45 -235.7 92.2 -234.85 95.9 -230.65 96.1 -230.2 97.0 -225.95 97.0 -225.75 97.15 -224.75 97.1 -224.8 97.25 -224.5 97.3 -224.25 99.05 -213.45 Q102.35 -191.5 101.65 -184.2 101.0 -177.55 98.15 -170.15 L98.0 -169.8 98.0 -169.7 97.5 -168.5 Q95.5 -163.85 93.1 -159.65 L90.85 -156.05 90.3 -155.65 89.6 -155.7 Q89.25 -155.85 89.1 -156.15 88.35 -157.75 87.85 -163.85 L87.7 -164.7 87.4 -165.65 87.4 -166.15 87.6 -166.65 Q93.05 -172.7 94.3 -178.15 L94.6 -181.15 94.3 -182.5 93.35 -185.2 89.5 -194.9 Q83.95 -207.95 83.65 -209.8 83.15 -212.4 83.25 -218.2 L83.25 -218.3 83.3 -218.75 83.55 -219.25 Q83.7 -219.5 84.0 -219.6 L84.55 -219.6 85.6 -219.5 Q87.9 -219.65 89.0 -224.4 89.7 -227.35 89.95 -231.9 L89.55 -234.75 89.55 -234.8 89.5 -235.15 89.6 -235.8 Q89.75 -236.1 90.05 -236.2 L90.7 -236.3 91.25 -235.95 91.5 -235.65 M84.7 -150.85 Q84.15 -147.8 84.25 -145.65 L84.25 -145.6 Q84.35 -142.35 87.4 -142.3 93.15 -142.5 98.45 -155.15 L98.9 -155.65 99.5 -155.75 100.1 -155.45 100.4 -154.9 Q107.5 -102.35 107.5 -81.1 107.5 -65.85 101.75 -51.05 L101.75 -51.1 Q98.75 -43.35 96.35 -40.8 94.8 -39.2 93.45 -39.35 92.0 -39.35 90.85 -41.15 L88.75 -44.25 Q82.75 -52.95 80.6 -59.35 L80.6 -59.4 Q79.65 -62.3 76.95 -73.5 L76.95 -73.45 Q75.4 -78.8 73.95 -81.05 69.4 -65.65 66.55 -54.4 63.3 -41.8 58.6 -40.6 L58.15 -40.55 Q51.8 -41.3 36.55 -79.4 33.55 -65.15 29.5 -54.05 24.8 -41.35 21.0 -42.95 L20.5 -43.35 Q16.3 -49.95 8.95 -71.15 8.85 -71.4 8.9 -71.6 8.85 -72.2 6.0 -77.5 5.35 -77.1 4.75 -76.0 L3.9 -74.25 3.9 -74.3 3.75 -73.9 3.75 -73.85 Q2.65 -71.1 -0.3 -57.35 -3.45 -42.6 -7.75 -41.95 L-8.35 -42.05 Q-13.65 -44.4 -17.55 -58.2 -21.25 -71.3 -22.85 -74.95 L-22.9 -75.25 -24.3 -78.5 -24.35 -78.5 -24.85 -78.9 -25.25 -79.6 Q-26.3 -79.6 -27.15 -78.9 -28.25 -74.35 -28.15 -73.65 L-28.15 -73.1 Q-29.45 -68.8 -33.7 -56.05 -38.2 -42.65 -44.2 -41.75 L-44.7 -41.8 Q-47.65 -42.45 -50.3 -58.75 -52.9 -74.35 -52.75 -75.95 -52.65 -77.45 -53.9 -84.2 L-54.0 -84.3 -54.25 -84.65 Q-54.3 -84.5 -54.6 -84.45 -55.55 -84.3 -57.2 -83.55 L-58.05 -81.25 -58.1 -81.2 Q-60.95 -75.2 -67.7 -58.5 -71.15 -50.0 -73.6 -46.55 -75.0 -44.55 -76.15 -44.05 -77.7 -43.35 -78.85 -44.55 -83.3 -46.75 -85.4 -58.1 -87.3 -62.85 -88.45 -76.35 L-88.45 -76.45 -89.2 -87.3 -89.2 -88.0 -90.15 -88.0 -90.2 -88.0 Q-90.95 -87.8 -95.75 -70.1 -101.1 -50.5 -104.05 -50.65 L-104.45 -50.7 Q-110.6 -52.8 -118.65 -85.6 L-118.7 -85.7 Q-120.7 -100.1 -120.7 -109.25 -120.7 -112.2 -105.55 -180.3 L-101.95 -198.2 -101.6 -198.8 -100.9 -199.0 -100.25 -198.75 -99.95 -198.1 -99.7 -195.0 -99.4 -194.75 -99.2 -194.15 -98.7 -188.3 -96.6 -175.15 Q-95.5 -167.4 -92.5 -159.85 -89.05 -151.05 -85.6 -150.85 -85.05 -151.1 -80.35 -162.25 L-79.95 -163.25 -79.4 -163.75 -78.7 -163.8 -78.15 -163.3 Q-74.7 -156.9 -68.7 -149.1 -57.9 -135.0 -53.55 -134.8 -52.2 -134.85 -51.45 -136.15 L-51.05 -137.1 -50.95 -137.85 -52.6 -140.25 -53.45 -141.65 -53.6 -142.35 -53.25 -142.95 -52.65 -143.2 -52.0 -142.95 -50.75 -141.95 -46.2 -138.6 -44.05 -137.25 -43.85 -137.1 -42.3 -136.25 -42.15 -136.15 Q-28.2 -128.45 -12.95 -128.25 L-12.7 -128.25 -12.4 -128.25 -12.15 -128.25 Q4.85 -128.25 24.25 -133.35 42.6 -138.2 58.9 -146.4 L61.0 -147.45 61.65 -147.5 62.25 -147.15 62.45 -146.5 62.35 -142.85 62.35 -142.7 Q62.05 -140.4 62.4 -138.35 62.95 -134.9 65.3 -134.8 67.95 -134.95 74.0 -142.05 L74.0 -142.1 82.45 -152.25 82.9 -152.55 83.45 -152.55 Q83.75 -152.5 83.95 -152.25 L84.45 -151.7 84.65 -151.3 84.7 -150.85 M67.15 -150.15 L67.25 -150.7 67.65 -151.1 71.45 -153.45 71.65 -153.55 73.8 -155.1 74.45 -155.3 75.05 -155.0 75.4 -154.4 75.25 -153.75 Q71.15 -147.35 70.25 -146.5 69.95 -146.3 69.65 -146.25 L69.0 -146.4 68.6 -146.9 Q68.05 -148.6 67.3 -149.65 L67.15 -150.15" fill="#d22d2d" fill-rule="evenodd" stroke="none"/>
  </g>
</svg>
