<?xml version="1.0" encoding="UTF-8" standalone="no"?>
<svg xmlns:xlink="http://www.w3.org/1999/xlink" height="315.5px" width="238.5px" xmlns="http://www.w3.org/2000/svg">
  <g transform="matrix(1, 0, 0, 1, 130.05, 317.8)">
    <path d="M86.6 -297.2 L86.7 -296.5 86.3 -295.95 Q86.0 -295.7 85.6 -295.75 76.75 -296.6 75.15 -295.05 L74.85 -294.8 Q73.8 -294.25 73.7 -292.8 78.35 -288.9 85.25 -277.95 92.45 -266.45 92.4 -260.75 92.4 -255.1 90.7 -250.7 88.45 -245.1 84.55 -240.6 73.2 -227.55 52.7 -229.45 L52.05 -229.75 Q51.8 -230.05 51.8 -230.45 L53.2 -240.6 Q54.55 -250.2 51.5 -263.2 48.45 -276.15 47.9 -277.0 L46.1 -279.35 36.35 -260.4 Q28.7 -245.5 19.3 -237.05 L19.25 -237.0 19.2 -236.95 Q18.95 -236.75 18.7 -236.7 L18.15 -236.75 17.7 -237.1 17.45 -237.45 17.25 -237.95 17.35 -238.45 Q18.15 -240.25 19.75 -247.55 21.25 -254.65 21.3 -256.9 18.4 -275.65 16.05 -283.15 L-14.55 -256.55 -14.45 -256.6 -19.7 -250.7 Q-19.95 -250.45 -20.35 -250.4 -20.75 -250.35 -21.05 -250.6 L-21.4 -251.2 -21.3 -251.9 Q-10.7 -268.6 -10.6 -270.85 -10.55 -272.25 -11.4 -272.9 -11.7 -273.1 -11.8 -273.45 L-11.8 -273.5 -12.8 -274.3 -14.1 -274.5 Q-18.25 -274.35 -32.55 -258.7 -52.45 -237.1 -57.65 -230.35 L-58.2 -229.95 -58.85 -230.0 -59.3 -230.45 -59.4 -231.1 Q-57.1 -243.85 -51.05 -255.0 L-47.1 -262.6 Q-45.4 -266.3 -45.4 -268.95 -45.4 -269.85 -45.7 -270.45 -46.45 -271.65 -48.45 -271.65 -50.7 -271.5 -59.65 -261.8 -70.75 -249.85 -73.8 -241.5 -73.95 -241.15 -74.25 -240.95 L-74.9 -240.85 Q-75.3 -240.95 -75.5 -241.2 L-75.75 -241.85 Q-75.15 -266.05 -66.1 -278.9 -56.9 -292.0 -51.55 -293.3 -47.45 -294.4 -47.3 -293.95 L-47.3 -294.0 Q-47.3 -296.85 -49.85 -296.9 -62.05 -296.75 -71.95 -273.8 -75.2 -266.3 -77.65 -257.45 L-77.7 -257.45 Q-79.6 -250.75 -80.2 -242.55 -80.75 -235.1 -76.25 -231.7 L-76.2 -231.7 Q-75.4 -231.95 -70.65 -239.5 -64.6 -249.25 -62.0 -251.6 L-61.55 -251.85 -61.05 -251.85 -60.6 -251.55 -60.15 -251.05 -59.9 -250.55 -60.0 -249.95 Q-61.6 -246.5 -64.0 -234.85 -66.45 -223.25 -66.45 -219.05 L-66.5 -218.75 Q-66.95 -217.2 -66.4 -216.4 -65.8 -215.8 -64.25 -215.7 L-63.6 -216.3 -63.05 -216.6 -62.45 -216.5 -62.0 -216.05 -61.95 -215.45 Q-63.0 -209.25 -63.65 -200.55 -65.45 -176.4 -63.6 -157.9 L-63.85 -157.15 -63.95 -157.05 -64.4 -156.7 -64.95 -156.7 Q-65.25 -156.75 -65.45 -156.95 L-65.55 -157.05 -65.55 -157.1 Q-82.6 -174.65 -85.9 -197.05 -86.45 -200.8 -86.9 -210.2 -87.1 -214.0 -87.5 -214.15 -89.95 -214.1 -89.95 -211.35 -89.95 -202.6 -87.95 -190.5 -85.7 -176.85 -82.55 -171.25 L-82.55 -171.2 Q-79.85 -166.3 -74.7 -158.35 L-70.15 -151.4 -70.0 -150.75 -70.3 -150.15 -70.95 -149.85 -71.6 -150.05 Q-79.05 -155.7 -79.9 -155.85 -81.45 -155.85 -82.2 -155.2 -82.4 -146.6 -79.85 -140.7 -79.7 -140.3 -79.85 -139.9 -80.0 -139.55 -80.4 -139.35 -80.8 -139.2 -81.15 -139.35 -91.1 -143.2 -95.7 -189.75 -99.25 -181.9 -96.65 -165.5 -93.65 -146.1 -85.05 -138.8 -77.45 -132.5 -72.8 -134.75 L-74.9 -139.6 Q-76.45 -142.7 -76.4 -143.65 L-76.2 -144.25 -75.7 -144.6 -75.05 -144.6 Q-73.7 -144.15 -68.6 -141.4 -64.95 -139.5 -63.4 -139.45 L-62.8 -139.5 -62.2 -139.45 -61.75 -139.1 Q-56.35 -131.25 -56.4 -131.0 -53.8 -131.1 -53.8 -134.4 L-55.0 -143.2 -54.9 -143.8 -54.5 -144.25 -53.9 -144.35 -53.35 -144.15 Q-48.6 -140.15 -46.2 -138.6 -30.05 -128.25 -12.15 -128.25 4.85 -128.25 24.25 -133.35 42.6 -138.2 58.9 -146.4 63.75 -148.8 68.0 -151.3 L68.6 -151.45 69.2 -151.15 69.5 -150.55 69.3 -149.9 Q64.35 -142.35 64.25 -141.55 L64.25 -141.3 Q64.05 -140.5 64.35 -139.85 L64.35 -139.8 Q64.95 -138.5 67.2 -138.5 69.45 -138.55 74.6 -141.85 L75.3 -142.0 75.9 -141.65 76.15 -140.95 Q75.45 -127.65 75.45 -124.2 75.45 -104.4 85.25 -83.7 L92.1 -69.05 Q95.25 -61.2 95.25 -54.25 95.2 -47.35 94.1 -42.2 92.95 -37.1 90.5 -31.7 90.35 -31.35 89.95 -31.2 L89.2 -31.25 Q88.8 -31.4 88.65 -31.8 L83.0 -47.25 Q76.5 -41.95 65.4 -29.45 51.4 -13.85 45.55 -10.25 L44.95 -10.1 Q44.6 -10.1 44.35 -10.3 L44.05 -10.85 44.1 -11.45 Q47.15 -19.2 47.45 -23.0 47.55 -24.6 47.15 -25.4 46.85 -25.8 46.4 -25.85 23.45 -12.45 17.2 -9.75 L16.8 -9.7 16.4 -9.8 Q14.85 -10.25 11.45 -28.4 9.3 -26.9 3.9 -18.95 0.25 -13.75 -5.6 -3.45 L-6.0 -3.05 -6.55 -2.95 Q-6.85 -2.95 -7.05 -3.1 L-27.4 -17.05 -39.4 -25.0 -42.95 -27.25 -43.2 -26.95 Q-43.8 -26.35 -43.85 -25.7 L-43.85 -25.65 Q-42.9 -12.9 -43.15 -3.25 L-43.35 -2.65 Q-43.6 -2.4 -43.95 -2.3 L-44.6 -2.4 Q-66.1 -13.45 -75.75 -22.85 L-89.6 -36.05 -89.75 -35.65 -89.75 -35.6 Q-89.95 -34.95 -89.95 -31.35 -89.9 -26.6 -88.5 -18.5 L-88.6 -17.95 Q-88.7 -17.65 -88.95 -17.5 L-89.55 -17.35 Q-91.05 -17.35 -98.6 -21.75 -106.05 -26.1 -111.1 -33.95 -116.05 -41.7 -120.1 -53.55 L-123.15 -62.0 -123.3 -62.3 Q-123.85 -61.3 -124.75 -59.85 -126.85 -56.45 -127.25 -52.4 -127.3 -52.0 -127.55 -51.75 -127.85 -51.5 -128.25 -51.5 L-128.9 -51.75 -129.25 -52.4 Q-129.55 -56.35 -129.9 -57.0 L-130.05 -57.55 -130.05 -62.45 -130.05 -62.55 Q-128.95 -72.15 -122.4 -92.6 -120.6 -98.35 -117.9 -111.1 -116.25 -119.45 -115.1 -141.75 -113.95 -164.2 -109.65 -194.4 L-109.65 -194.45 -109.55 -195.1 Q-106.75 -215.65 -103.7 -228.05 -97.25 -254.8 -88.35 -271.55 -79.1 -289.25 -56.7 -304.2 L-56.55 -304.3 Q-44.5 -310.0 -36.4 -312.15 -28.6 -314.25 -17.05 -316.0 L-16.8 -316.1 -16.15 -316.15 -1.4 -317.8 Q23.5 -317.8 53.35 -308.5 68.5 -303.8 86.05 -297.7 L86.6 -297.2 M86.7 -229.05 Q86.7 -218.6 90.05 -210.25 92.3 -204.6 97.4 -197.55 L97.45 -197.5 Q103.4 -189.15 104.95 -186.25 108.45 -179.5 108.45 -171.95 108.45 -166.1 106.0 -159.05 L105.65 -158.55 105.05 -158.4 104.45 -158.6 104.1 -159.1 98.4 -179.55 Q97.9 -172.95 94.1 -166.4 91.15 -161.45 86.65 -157.05 82.8 -153.4 77.85 -150.2 L77.15 -150.05 Q76.8 -150.1 76.55 -150.4 76.3 -150.7 76.3 -151.05 76.3 -152.55 77.15 -156.1 L77.05 -156.6 77.05 -157.25 77.4 -157.75 78.55 -158.6 84.65 -163.6 Q94.5 -173.05 94.6 -181.15 L93.35 -185.2 89.5 -194.9 Q83.95 -207.95 83.65 -209.8 83.15 -212.4 83.25 -218.2 L83.4 -227.95 83.4 -228.0 Q83.35 -229.65 82.65 -231.25 L82.6 -231.95 83.0 -232.5 85.1 -234.05 Q85.4 -234.35 85.8 -234.3 L86.45 -233.95 86.7 -233.3 86.7 -229.05 M29.7 -49.6 L29.6 -49.45 29.3 -48.95 29.6 -48.75 29.8 -49.15 Q30.05 -48.85 29.9 -49.35 L30.25 -50.0 29.95 -50.05 29.7 -49.6" fill="#23ab23" fill-rule="evenodd" stroke="none"/>
  </g>
</svg>
