<?xml version="1.0" encoding="utf-8"?>
<!-- Generator: flash2svg, http://dissentgraphics.com/tools/flash2svg -->
<svg xmlns:xlink="http://www.w3.org/1999/xlink" id="sprite.__202781.__20(Acc).__2F114" image-rendering="optimizeSpeed" baseProfile="basic" version="1.1" style="background-color:#ffffff" x="0px" y="0px" width="550px" height="400px" viewBox="0 0 550 400" enable-background="new 0 0 550 400" xmlns="http://www.w3.org/2000/svg">
  <defs transform="matrix(1 0 0 1 0 0) "/>
  <g id="sprite.__202781.__20(Acc).__2F114">
    <g id="Layer.__219">
      <g id="Graphic.__2Fshape.__202755_1" overflow="visible">
        <g id="Layer.__275">
          <g id="shape468">
            <path id="path598" fill="none" stroke="#000000" stroke-opacity="1" stroke-width="4" stroke-linecap="round" stroke-linejoin="round" d="M129.1,20.65 L135.4,13.3 156.9,0.45 L163.4,-3.45 163.4,9.9 156.9,18.9 151.4,26.5 C152.2,37.5 151.05,47.85 147.9,57.5 144.05,61.6 140.65,64.35 137.65,65.7 L136.9,66.05 137.4,58.45"/>
            <path id="path599" fill="none" stroke="#2B2B2B" stroke-opacity="1" stroke-width="4" stroke-linecap="round" stroke-linejoin="round" d="M137.4,58.45 L136.4,55.25 131.95,42.4 C129.6,35.45 128.65,28.2 129.1,20.65"/>
            <path id="path600" fill="#CCCCCC" fill-opacity="1" d="M163.4,-3.45 L156.9,0.45 156.9,18.9 163.4,9.9 163.4,-3.45z M-21.6,21.95 L-21.6,4.7 -28.1,1.05 -28.1,13.55 -21.6,21.95z"/>
            <path id="path601" fill="none" stroke="#000000" stroke-opacity="1" stroke-width="4" stroke-linecap="round" stroke-linejoin="round" d="M163.4,-3.45 L156.9,0.45 156.9,18.9 163.4,9.9 163.4,-3.45z"/>
            <path id="path602" fill="#9D9D9D" fill-opacity="1" d="M135.4,13.3 L129.1,20.65 C128.65,28.2 129.6,35.45 131.95,42.4 L136.4,55.25 137.4,58.45 C137.9,46.4 137.25,31.35 135.4,13.3z M7.9,78.05 C4.6,60.95 4.6,44.95 7.9,30.05 L-0.1,16.7 C-2.35,37.35 -2.85,53.8 -1.6,66.05 0.75,73.1 3.95,77.1 7.9,78.05z"/>
            <path id="path603" fill="none" stroke="#000000" stroke-opacity="1" stroke-width="4" stroke-linecap="round" stroke-linejoin="round" d="M137.4,58.45 C137.9,46.4 137.25,31.35 135.4,13.3 L129.1,20.65"/>
            <path id="path604" fill="none" stroke="#2B2B2B" stroke-opacity="1" stroke-width="4" stroke-linecap="round" stroke-linejoin="round" d="M129.1,20.65 C128.65,28.2 129.6,35.45 131.95,42.4 L136.4,55.25 137.4,58.45"/>
            <path id="path605" fill="#B7B7B7" fill-opacity="1" d="M151.4,26.5 L156.9,18.9 156.9,0.45 135.4,13.3 C137.25,31.35 137.9,46.4 137.4,58.45 L136.9,66.05 137.65,65.7 C140.65,64.35 144.05,61.6 147.9,57.5 151.05,47.85 152.2,37.5 151.4,26.5z M-21.6,4.7 L-21.6,21.95 -16.1,29.05 C-16.9,39.4 -15.75,49.05 -12.6,58.05 -8.45,62.2 -4.75,64.9 -1.6,66.05 -2.85,53.8 -2.35,37.35 -0.1,16.7 L-21.6,4.7z"/>
            <path id="path606" fill="none" stroke="#000000" stroke-opacity="1" stroke-width="4" stroke-linecap="round" stroke-linejoin="round" d="M151.4,26.5 L156.9,18.9 156.9,0.45 135.4,13.3 C137.25,31.35 137.9,46.4 137.4,58.45 L136.9,66.05 137.65,65.7 C140.65,64.35 144.05,61.6 147.9,57.5 151.05,47.85 152.2,37.5 151.4,26.5z"/>
            <path id="path607" fill="none" stroke="#000000" stroke-opacity="1" stroke-width="4" stroke-linecap="round" stroke-linejoin="round" d="M7.9,30.05 C4.6,44.95 4.6,60.95 7.9,78.05 3.95,77.1 0.75,73.1 -1.6,66.05 -4.75,64.9 -8.45,62.2 -12.6,58.05 -15.75,49.05 -16.9,39.4 -16.1,29.05 L-21.6,21.95 -28.1,13.55 -28.1,1.05 -21.6,4.7 -0.1,16.7 7.9,30.05z"/>
            <path id="path608" fill="none" stroke="#000000" stroke-opacity="1" stroke-width="4" stroke-linecap="round" stroke-linejoin="round" d="M7.9,78.05 C4.6,60.95 4.6,44.95 7.9,30.05 L-0.1,16.7 C-2.35,37.35 -2.85,53.8 -1.6,66.05 0.75,73.1 3.95,77.1 7.9,78.05z"/>
            <path id="path609" fill="none" stroke="#000000" stroke-opacity="1" stroke-width="4" stroke-linecap="round" stroke-linejoin="round" d="M-21.6,4.7 L-21.6,21.95 -16.1,29.05 C-16.9,39.4 -15.75,49.05 -12.6,58.05 -8.45,62.2 -4.75,64.9 -1.6,66.05 -2.85,53.8 -2.35,37.35 -0.1,16.7 L-21.6,4.7z"/>
            <path id="path610" fill="none" stroke="#000000" stroke-opacity="1" stroke-width="4" stroke-linecap="round" stroke-linejoin="round" d="M-21.6,21.95 L-21.6,4.7 -28.1,1.05 -28.1,13.55 -21.6,21.95z"/>
          </g>
        </g>
      </g>
    </g>
  </g>
</svg>