<?xml version="1.0" encoding="utf-8"?>
<!-- Generator: flash2svg, http://dissentgraphics.com/tools/flash2svg -->
<svg xmlns:xlink="http://www.w3.org/1999/xlink" id="sprite.__202781.__20(Acc).__2F13" image-rendering="optimizeSpeed" baseProfile="basic" version="1.1" style="background-color:#ffffff" x="0px" y="0px" width="550px" height="400px" viewBox="0 0 550 400" enable-background="new 0 0 550 400" xmlns="http://www.w3.org/2000/svg">
  <defs transform="matrix(1 0 0 1 0 0) "/>
  <g id="sprite.__202781.__20(Acc).__2F13">
    <g id="Layer.__214">
      <g id="Graphic.__2Fshape.__202607_1" overflow="visible">
        <g id="Layer.__646">
          <g id="shape1280">
            <path id="path1998" fill="#990000" fill-opacity="0.5019607843137255" d="M21.35,44.1 Q19.85,44.1 19.85,46.25 C19.8,48.3 20.25,51.75 21.15,56.7 L21.75,60.2 C20.25,60.65 18.1,61.65 15.25,63.1 11.15,65.15 9.1,66.3 9.1,66.55 8.9,67.8 9.7,68.45 11.55,68.45 17,67.95 20.85,67.3 23.2,66.5 27.35,75.95 29.95,80.7 30.9,80.7 31.85,80.7 32.3,80.1 32.3,78.85 L30.35,69.85 28.8,64.55 28.85,64.35 C37.5,60.8 41.85,58.65 41.9,57.9 41.85,56.9 41.35,56.4 40.3,56.4 L33.1,58.05 27.4,59.7 25.4,54 C23.05,47.4 21.7,44.1 21.35,44.1z"/>
          </g>
        </g>
      </g>
    </g>
  </g>
</svg>