<?xml version="1.0" encoding="utf-8"?>
<!-- Generator: flash2svg, http://dissentgraphics.com/tools/flash2svg -->
<svg xmlns:xlink="http://www.w3.org/1999/xlink" id="sprite.__202781.__20(Acc).__2F149" image-rendering="optimizeSpeed" baseProfile="basic" version="1.1" style="background-color:#ffffff" x="0px" y="0px" width="550px" height="400px" viewBox="0 0 550 400" enable-background="new 0 0 550 400" xmlns="http://www.w3.org/2000/svg">
  <defs transform="matrix(1 0 0 1 0 0) "/>
  <g id="sprite.__202781.__20(Acc).__2F149">
    <g id="Layer.__211">
      <g id="MovieClip.__2Fsprite.__202544_1" overflow="visible">
        <g id="Layer.__393">
          <g id="Graphic.__2Fshape.__202795_11" overflow="visible">
            <g id="Layer.__394">
              <g id="shape496">
                <path id="path1576" fill="#CC0000" fill-opacity="1" d="M134.15,44.35 Q130.5,25.6 131.9,13 C92.55,5.85 48.9,8.2 0.9,20 5.45,40.3 6.3,59.45 3.4,77.5 13.25,102.8 39.15,110.45 81.2,100.45 123.2,90.4 141.85,76.15 137.15,57.6 L134.15,44.35z"/>
                <path id="path1577" fill="none" stroke="#000000" stroke-opacity="1" stroke-width="4" stroke-linecap="round" stroke-linejoin="round" d="M134.15,44.35 Q130.5,25.6 131.9,13 C92.55,5.85 48.9,8.2 0.9,20 5.45,40.3 6.3,59.45 3.4,77.5 13.25,102.8 39.15,110.45 81.2,100.45 123.2,90.4 141.85,76.15 137.15,57.6 L134.15,44.35z"/>
              </g>
            </g>
            <g id="Layer.__395">
              <g id="shape497">
                <path id="path1578" fill="#EED600" fill-opacity="1" d="M102.9,46.6 C102.9,49.6 103.95,52.15 106.1,54.3 108.25,56.45 110.8,57.5 113.8,57.5 116.8,57.5 119.35,56.45 121.5,54.3 123.65,52.15 124.7,49.6 124.7,46.6 124.7,43.6 123.65,41.05 121.5,38.9 119.35,36.75 116.8,35.7 113.8,35.7 110.8,35.7 108.25,36.75 106.1,38.9 103.95,41.05 102.9,43.6 102.9,46.6z M117.95,43.9 C118.75,44.7 119.15,45.65 119.15,46.75 119.15,47.85 118.75,48.8 117.95,49.55 117.2,50.35 116.25,50.75 115.15,50.75 114.05,50.75 113.1,50.35 112.3,49.55 111.55,48.8 111.15,47.85 111.15,46.75 111.15,45.65 111.55,44.7 112.3,43.9 113.1,43.15 114.05,42.75 115.15,42.75 Q116.8,42.75 117.95,43.9z M63.65,88 L62.9,82.35 C60.4,83.25 57.9,84.5 55.35,86.05 L55.9,90.65 C57.65,90.3 59.65,89.65 61.95,88.7 L63.65,88z M62.9,82.35 L63.65,88 C66.55,86.9 69.3,86.1 71.9,85.6 L71.25,80.4 C68.5,80.65 65.7,81.3 62.9,82.35z M71.9,85.6 C69.3,86.1 66.55,86.9 63.65,88 L64.25,92.8 C67.15,91.7 69.9,90.95 72.5,90.5 L71.9,85.6z M61.95,93.7 C62.7,93.35 63.5,93.05 64.25,92.8 L63.65,88 61.95,88.7 C59.65,89.65 57.65,90.3 55.9,90.65 L56.5,95.55 C58.1,95.15 59.9,94.55 61.95,93.7z M71.9,85.6 L72.5,90.5 C75.95,89.85 79.15,89.8 82,90.35 L81.5,85.25 71.9,85.6z M94.95,87.35 L92.9,86 C91.9,86.65 90.55,86.95 88.9,86.9 L88.9,91.9 C92.35,92.1 94.35,90.6 94.95,87.35z M88.9,83.8 L88.9,86.9 C90.55,86.95 91.9,86.65 92.9,86 91.55,85.15 90.25,84.45 88.9,83.8z M88.9,86.9 L88.9,83.8 C86.3,82.5 83.7,81.55 81.05,81 L81.5,85.25 84.65,86 C86.25,86.5 87.65,86.8 88.9,86.9z M88.9,91.9 L88.9,86.9 C87.65,86.8 86.25,86.5 84.65,86 L81.5,85.25 82,90.35 84.65,91 C86.25,91.5 87.65,91.8 88.9,91.9z M81.05,81 C77.8,80.25 74.5,80.05 71.25,80.4 L71.9,85.6 81.5,85.25 81.05,81z M55.35,86.05 L49.7,90.05 C50.95,91.05 53.05,91.25 55.9,90.65 L55.35,86.05z M48.15,91.25 C48.25,95.4 51.05,96.85 56.5,95.55 L55.9,90.65 C53.05,91.25 50.95,91.05 49.7,90.05 L48.15,91.25z M28.4,48.35 C28.4,51.35 29.45,53.9 31.6,56.05 33.75,58.2 36.3,59.25 39.3,59.25 42.3,59.25 44.85,58.2 47,56.05 49.15,53.9 50.2,51.35 50.2,48.35 50.2,45.35 49.15,42.8 47,40.65 44.85,38.5 42.3,37.45 39.3,37.45 36.3,37.45 33.75,38.5 31.6,40.65 29.45,42.8 28.4,45.35 28.4,48.35z M37.8,45.65 C38.6,44.9 39.55,44.5 40.65,44.5 41.75,44.5 42.7,44.9 43.45,45.65 44.25,46.45 44.65,47.4 44.65,48.5 44.65,49.6 44.25,50.55 43.45,51.3 42.7,52.1 41.75,52.5 40.65,52.5 39.55,52.5 38.6,52.1 37.8,51.3 37.05,50.55 36.65,49.6 36.65,48.5 36.65,47.4 37.05,46.45 37.8,45.65z"/>
                <path id="path1579" fill="none" stroke="#000000" stroke-opacity="1" stroke-width="4" stroke-linecap="round" stroke-linejoin="round" d="M102.9,46.6 C102.9,49.6 103.95,52.15 106.1,54.3 108.25,56.45 110.8,57.5 113.8,57.5 116.8,57.5 119.35,56.45 121.5,54.3 123.65,52.15 124.7,49.6 124.7,46.6 124.7,43.6 123.65,41.05 121.5,38.9 119.35,36.75 116.8,35.7 113.8,35.7 110.8,35.7 108.25,36.75 106.1,38.9 103.95,41.05 102.9,43.6 102.9,46.6z"/>
                <path id="path1580" fill="#000000" fill-opacity="1" d="M117.95,43.9 Q116.8,42.75 115.15,42.75 C114.05,42.75 113.1,43.15 112.3,43.9 111.55,44.7 111.15,45.65 111.15,46.75 111.15,47.85 111.55,48.8 112.3,49.55 113.1,50.35 114.05,50.75 115.15,50.75 116.25,50.75 117.2,50.35 117.95,49.55 118.75,48.8 119.15,47.85 119.15,46.75 119.15,45.65 118.75,44.7 117.95,43.9z"/>
                <path id="path1581" fill="#FFFFFF" fill-opacity="1" d="M97.4,38.75 L131.5,17.5 C108.55,19.75 97.15,26.85 97.4,38.75"/>
                <path id="path1582" fill="none" stroke="#000000" stroke-opacity="1" stroke-width="4" stroke-linecap="round" stroke-linejoin="round" d="M97.4,38.75 L131.5,17.5 C108.55,19.75 97.15,26.85 97.4,38.75"/>
                <path id="path1583" fill="none" stroke="#000000" stroke-opacity="1" stroke-width="4" stroke-linecap="round" stroke-linejoin="round" d="M75.65,59.1 L94.6,59.85 103.2,58.8 C105.55,58.4 106.75,59.7 106.9,62.75 107.05,65.75 105.85,68.25 103.4,70.2 102.35,71 101.2,71.7 99.85,72.25 105.85,75 107.8,79 105.65,84.25 101.7,79.55 95,76.2 85.45,74.25 82.5,73.9 79.35,73.2 75.9,72.1 57.55,75.75 45.1,80.35 38.65,86 35.1,73.7 47.5,69.05 75.9,72.1 L85.45,74.25 C88,74.5 90.35,74.5 92.55,74.15 95.4,73.75 97.8,73.1 99.85,72.25"/>
                <path id="path1584" fill="#FFFFFF" fill-opacity="1" d="M99.85,72.25 C97.8,73.1 95.4,73.75 92.55,74.15 90.35,74.5 88,74.5 85.45,74.25 95,76.2 101.7,79.55 105.65,84.25 107.8,79 105.85,75 99.85,72.25z"/>
                <path id="path1585" fill="none" stroke="#000000" stroke-opacity="1" stroke-width="4" stroke-linecap="round" stroke-linejoin="round" d="M99.85,72.25 C97.8,73.1 95.4,73.75 92.55,74.15 90.35,74.5 88,74.5 85.45,74.25 95,76.2 101.7,79.55 105.65,84.25 107.8,79 105.85,75 99.85,72.25z"/>
                <path id="path1586" fill="#FFFFFF" fill-opacity="1" d="M38.65,86 C45.1,80.35 57.55,75.75 75.9,72.1 47.5,69.05 35.1,73.7 38.65,86"/>
                <path id="path1587" fill="none" stroke="#000000" stroke-opacity="1" stroke-width="4" stroke-linecap="round" stroke-linejoin="round" d="M38.65,86 C45.1,80.35 57.55,75.75 75.9,72.1 47.5,69.05 35.1,73.7 38.65,86"/>
                <path id="path1588" fill="none" stroke="#000000" stroke-opacity="1" stroke-width="4" stroke-linecap="round" stroke-linejoin="round" d="M64.25,92.8 C63.5,93.05 62.7,93.35 61.95,93.7 59.9,94.55 58.1,95.15 56.5,95.55 51.05,96.85 48.25,95.4 48.15,91.25 L49.7,90.05 55.35,86.05 C57.9,84.5 60.4,83.25 62.9,82.35 65.7,81.3 68.5,80.65 71.25,80.4 74.5,80.05 77.8,80.25 81.05,81 83.7,81.55 86.3,82.5 88.9,83.8 90.25,84.45 91.55,85.15 92.9,86 L94.95,87.35 C94.35,90.6 92.35,92.1 88.9,91.9 87.65,91.8 86.25,91.5 84.65,91 L82,90.35 C79.15,89.8 75.95,89.85 72.5,90.5 69.9,90.95 67.15,91.7 64.25,92.8z"/>
                <path id="path1589" fill="none" stroke="#000000" stroke-opacity="1" stroke-width="2" stroke-linecap="round" stroke-linejoin="round" d="M55.35,86.05 L55.9,90.65 C57.65,90.3 59.65,89.65 61.95,88.7 L63.65,88 L62.9,82.35"/>
                <path id="path1590" fill="none" stroke="#000000" stroke-opacity="1" stroke-width="4" stroke-linecap="round" stroke-linejoin="round" d="M62.9,82.35 C60.4,83.25 57.9,84.5 55.35,86.05"/>
                <path id="path1591" fill="none" stroke="#000000" stroke-opacity="1" stroke-width="2" stroke-linecap="round" stroke-linejoin="round" d="M62.9,82.35 L63.65,88 C66.55,86.9 69.3,86.1 71.9,85.6 L71.25,80.4"/>
                <path id="path1592" fill="none" stroke="#000000" stroke-opacity="1" stroke-width="4" stroke-linecap="round" stroke-linejoin="round" d="M71.25,80.4 C68.5,80.65 65.7,81.3 62.9,82.35"/>
                <path id="path1593" fill="none" stroke="#000000" stroke-opacity="1" stroke-width="2" stroke-linecap="round" stroke-linejoin="round" d="M72.5,90.5 L71.9,85.6 C69.3,86.1 66.55,86.9 63.65,88 L64.25,92.8"/>
                <path id="path1594" fill="none" stroke="#000000" stroke-opacity="1" stroke-width="4" stroke-linecap="round" stroke-linejoin="round" d="M64.25,92.8 C67.15,91.7 69.9,90.95 72.5,90.5"/>
                <path id="path1595" fill="none" stroke="#000000" stroke-opacity="1" stroke-width="4" stroke-linecap="round" stroke-linejoin="round" d="M56.5,95.55 C58.1,95.15 59.9,94.55 61.95,93.7 C62.7,93.35 63.5,93.05 64.25,92.8"/>
                <path id="path1596" fill="none" stroke="#000000" stroke-opacity="1" stroke-width="2" stroke-linecap="round" stroke-linejoin="round" d="M64.25,92.8 L63.65,88 61.95,88.7 C59.65,89.65 57.65,90.3 55.9,90.65 L56.5,95.55"/>
                <path id="path1597" fill="none" stroke="#000000" stroke-opacity="1" stroke-width="2" stroke-linecap="round" stroke-linejoin="round" d="M82,90.35 L81.5,85.25 71.9,85.6 L72.5,90.5"/>
                <path id="path1598" fill="none" stroke="#000000" stroke-opacity="1" stroke-width="4" stroke-linecap="round" stroke-linejoin="round" d="M72.5,90.5 C75.95,89.85 79.15,89.8 82,90.35"/>
                <path id="path1599" fill="none" stroke="#000000" stroke-opacity="1" stroke-width="4" stroke-linecap="round" stroke-linejoin="round" d="M88.9,91.9 C92.35,92.1 94.35,90.6 94.95,87.35 L92.9,86"/>
                <path id="path1600" fill="none" stroke="#000000" stroke-opacity="1" stroke-width="2" stroke-linecap="round" stroke-linejoin="round" d="M92.9,86 C91.9,86.65 90.55,86.95 88.9,86.9 L88.9,91.9"/>
                <path id="path1601" fill="none" stroke="#000000" stroke-opacity="1" stroke-width="2" stroke-linecap="round" stroke-linejoin="round" d="M88.9,83.8 L88.9,86.9 C90.55,86.95 91.9,86.65 92.9,86"/>
                <path id="path1602" fill="none" stroke="#000000" stroke-opacity="1" stroke-width="4" stroke-linecap="round" stroke-linejoin="round" d="M92.9,86 C91.55,85.15 90.25,84.45 88.9,83.8"/>
                <path id="path1603" fill="none" stroke="#000000" stroke-opacity="1" stroke-width="2" stroke-linecap="round" stroke-linejoin="round" d="M81.05,81 L81.5,85.25 84.65,86 C86.25,86.5 87.65,86.8 88.9,86.9 L88.9,83.8"/>
                <path id="path1604" fill="none" stroke="#000000" stroke-opacity="1" stroke-width="4" stroke-linecap="round" stroke-linejoin="round" d="M88.9,83.8 C86.3,82.5 83.7,81.55 81.05,81"/>
                <path id="path1605" fill="none" stroke="#000000" stroke-opacity="1" stroke-width="2" stroke-linecap="round" stroke-linejoin="round" d="M88.9,91.9 L88.9,86.9 C87.65,86.8 86.25,86.5 84.65,86 L81.5,85.25 82,90.35"/>
                <path id="path1606" fill="none" stroke="#000000" stroke-opacity="1" stroke-width="4" stroke-linecap="round" stroke-linejoin="round" d="M82,90.35 L84.65,91 C86.25,91.5 87.65,91.8 88.9,91.9"/>
                <path id="path1607" fill="none" stroke="#000000" stroke-opacity="1" stroke-width="4" stroke-linecap="round" stroke-linejoin="round" d="M81.05,81 C77.8,80.25 74.5,80.05 71.25,80.4"/>
                <path id="path1608" fill="none" stroke="#000000" stroke-opacity="1" stroke-width="2" stroke-linecap="round" stroke-linejoin="round" d="M71.25,80.4 L71.9,85.6 81.5,85.25 81.05,81"/>
                <path id="path1609" fill="none" stroke="#000000" stroke-opacity="1" stroke-width="4" stroke-linecap="round" stroke-linejoin="round" d="M55.35,86.05 L49.7,90.05"/>
                <path id="path1610" fill="none" stroke="#000000" stroke-opacity="1" stroke-width="2" stroke-linecap="round" stroke-linejoin="round" d="M49.7,90.05 C50.95,91.05 53.05,91.25 55.9,90.65 L55.35,86.05"/>
                <path id="path1611" fill="none" stroke="#000000" stroke-opacity="1" stroke-width="4" stroke-linecap="round" stroke-linejoin="round" d="M49.7,90.05 L48.15,91.25 C48.25,95.4 51.05,96.85 56.5,95.55"/>
                <path id="path1612" fill="none" stroke="#000000" stroke-opacity="1" stroke-width="2" stroke-linecap="round" stroke-linejoin="round" d="M56.5,95.55 L55.9,90.65 C53.05,91.25 50.95,91.05 49.7,90.05"/>
                <path id="path1613" fill="none" stroke="#000000" stroke-opacity="1" stroke-width="4" stroke-linecap="round" stroke-linejoin="round" d="M28.4,48.35 C28.4,51.35 29.45,53.9 31.6,56.05 33.75,58.2 36.3,59.25 39.3,59.25 42.3,59.25 44.85,58.2 47,56.05 49.15,53.9 50.2,51.35 50.2,48.35 50.2,45.35 49.15,42.8 47,40.65 44.85,38.5 42.3,37.45 39.3,37.45 36.3,37.45 33.75,38.5 31.6,40.65 29.45,42.8 28.4,45.35 28.4,48.35z"/>
                <path id="path1614" fill="#000000" fill-opacity="1" d="M37.8,45.65 C37.05,46.45 36.65,47.4 36.65,48.5 36.65,49.6 37.05,50.55 37.8,51.3 38.6,52.1 39.55,52.5 40.65,52.5 41.75,52.5 42.7,52.1 43.45,51.3 44.25,50.55 44.65,49.6 44.65,48.5 44.65,47.4 44.25,46.45 43.45,45.65 42.7,44.9 41.75,44.5 40.65,44.5 39.55,44.5 38.6,44.9 37.8,45.65z"/>
                <path id="path1615" fill="#FFFFFF" fill-opacity="1" d="M16.4,27 L58.9,37.75 C52.55,24.3 38.35,20.7 16.4,27"/>
                <path id="path1616" fill="none" stroke="#000000" stroke-opacity="1" stroke-width="4" stroke-linecap="round" stroke-linejoin="round" d="M16.4,27 L58.9,37.75 C52.55,24.3 38.35,20.7 16.4,27"/>
              </g>
            </g>
          </g>
        </g>
      </g>
    </g>
  </g>
</svg>