<?xml version="1.0" encoding="utf-8"?>
<!-- Generator: flash2svg, http://dissentgraphics.com/tools/flash2svg -->
<svg xmlns:xlink="http://www.w3.org/1999/xlink" id="sprite.__202781.__20(Acc).__2F52" image-rendering="optimizeSpeed" baseProfile="basic" version="1.1" style="background-color:#ffffff" x="0px" y="0px" width="550px" height="400px" viewBox="0 0 550 400" enable-background="new 0 0 550 400" xmlns="http://www.w3.org/2000/svg">
  <defs transform="matrix(1 0 0 1 0 0) "/>
  <g id="sprite.__202781.__20(Acc).__2F52">
    <g id="Layer.__204">
      <g id="Graphic.__2Fshape.__202663_1" overflow="visible">
        <g id="Layer.__382">
          <g id="shape1044">
            <path id="path1168" fill="#000000" fill-opacity="1" d="M85.95,95.5 L86.25,95.45 86.7,94.9 86.85,93.55 C86.85,92.3 85.25,91.65 82.05,91.65 L79.15,92 73.85,93.05 72.75,93.3 C68.8,94.25 66.85,95.1 66.85,95.85 L67.05,97 66.8,97.05 C64.7,100.7 61.8,104.65 58.15,108.9 L53.3,114.65 52.55,115.55 C50.7,117.9 49.3,119.75 48.45,121.15 L48.9,121.25 48.9,121.35 48.95,121.5 49,121.75 49.05,121.95 49.15,122.35 49.45,123.05 51.05,125.9 51.2,126.15 51.25,126.2 52.8,128.55 53.05,128.9 53.1,129 54.2,130.55 54.3,130.7 C56.85,134.25 61.95,138.95 69.7,144.75 76.15,149.6 80.2,152.1 81.9,152.35 L81.95,152.45 82.1,152.35 82.55,152.25 83.25,151.75 83.55,151.55 98.05,130.7 99.55,130.35 102.75,128.1 C105.3,126.3 106.85,124.85 107.45,123.8 109.35,120.35 108.5,116.05 104.9,110.95 102.7,107.85 99.4,105.7 95,104.5 92.2,103.75 89.9,103.6 88.05,104 87.5,100.75 86.8,97.9 85.95,95.5z"/>
            <path id="path1169" fill="#F1D89E" fill-opacity="1" d="M82.05,98.7 L81.2,96.1 77.95,96.9 77.8,96.95 80.4,100.6 79.55,103.55 C79.25,104.9 79.15,106.1 79.3,107.05 L79.2,107.15 79.4,107.55 C79.5,108.1 79.7,108.6 80,109 L80.3,109.3 80.5,109.65 C83.2,111.7 85.25,112.7 86.7,112.55 87.25,112.5 88.35,111.85 90.05,110.7 L91.45,110.4 C93.9,111.25 95.95,112.85 97.6,115.15 L101.25,121.35 C100.7,121.6 100.15,121.85 99.7,122.15 99.2,122.3 98.7,122.55 98.2,122.8 97.65,123.05 96.55,123.75 94.95,124.9 L94.95,124.85 87.6,130.05 81.85,138.65 C80.9,139.95 80.15,141.1 79.6,142.15 L75.8,138.95 C72.25,136.05 69.6,133.7 67.85,131.85 L57.35,120.95 56.7,120.4 59.45,117.7 60.5,117 68.85,108.1 C71.9,104.25 73.75,101.15 74.3,98.75 L74.55,98.4 76.55,97.3 71.65,98.05 71.4,98.05 70.35,99.2 70.3,99.25 C69.6,101.65 67.25,105.15 63.3,109.8 L56.85,116.65 55.3,118.25 54.8,118.8 53.85,119.75 53.15,120.2 52.25,120.7 51.35,121.05 51.2,121.25 51.6,121.75 52.1,122.4 53.5,124.15 53.7,124.4 C57.1,128.6 61.85,133.15 68,138.1 L70.95,140.4 72.05,141.15 72.6,141.5 72.75,141.65 77.35,144.85 80.85,147.35 80.9,147.35 81,147.2 C82.65,143.95 86.7,138.8 93.15,131.8 L96.4,128.3 C96.55,127.85 96.85,127.45 97.3,127.05 L101.1,124.55 101.45,124.25 101.55,124.2 101.55,124.15 102.95,122.5 103.25,121.9 103.5,121.25 102.85,116.15 102.6,115.7 102.5,115.45 101.15,113.25 C99.3,110.6 96.8,109 93.65,108.4 L92.75,108.2 91.75,108.1 88.2,108.25 88,108.25 87.7,108.45 87.35,108.65 85.85,108.7 85.15,107.9 85.1,107.85 85.05,107.8 84.75,107.4 84.4,106.9 84.35,106.9 84.2,106.5 84.05,106.2 83.85,105.55 83.8,105.5 82.45,100.4 82.05,98.7z"/>
            <path id="path1170" fill="#F9EDD2" fill-opacity="1" d="M76.55,97.3 L74.55,98.4 74.3,98.75 C73.75,101.15 71.9,104.25 68.85,108.1 L60.5,117 59.45,117.7 56.7,120.4 57.35,120.95 67.85,131.85 C69.6,133.7 72.25,136.05 75.8,138.95 L79.6,142.15 C80.15,141.1 80.9,139.95 81.85,138.65 L87.6,130.05 94.95,124.85 94.95,124.9 C96.55,123.75 97.65,123.05 98.2,122.8 98.7,122.55 99.2,122.3 99.7,122.15 100.15,121.85 100.7,121.6 101.25,121.35 L97.6,115.15 C95.95,112.85 93.9,111.25 91.45,110.4 L90.05,110.7 C88.35,111.85 87.25,112.5 86.7,112.55 85.25,112.7 83.2,111.7 80.5,109.65 L80.3,109.3 80,109 C79.7,108.6 79.5,108.1 79.4,107.55 L79.2,107.15 79.3,107.05 C79.15,106.1 79.25,104.9 79.55,103.55 L80.4,100.6 77.8,96.95 76.55,97.3z M51.2,121.25 L51.35,121.05 51.25,121.1 51.1,121.15 51.2,121.25z"/>
            <path id="path1171" fill="#E8B84A" fill-opacity="1" d="M52.55,115.55 L53.3,114.65 53.15,114.35 53.05,113.95 53,113.75 52.95,113.5 52.9,113.35 51.95,114.45 52.55,115.55z"/>
          </g>
        </g>
      </g>
    </g>
  </g>
</svg>