<?xml version="1.0" encoding="utf-8"?>
<!-- Generator: flash2svg, http://dissentgraphics.com/tools/flash2svg -->
<svg xmlns:xlink="http://www.w3.org/1999/xlink" id="sprite.__202781.__20(Acc).__2F56" image-rendering="optimizeSpeed" baseProfile="basic" version="1.1" style="background-color:#ffffff" x="0px" y="0px" width="550px" height="400px" viewBox="0 0 550 400" enable-background="new 0 0 550 400" xmlns="http://www.w3.org/2000/svg">
  <defs transform="matrix(1 0 0 1 0 0) "/>
  <g id="sprite.__202781.__20(Acc).__2F56">
    <g id="Layer.__208">
      <g id="MovieClip.__2Fsprite.__202664_1" overflow="visible">
        <g id="Layer.__445">
          <g id="Graphic.__2Fshape.__202755_8" overflow="visible">
            <g id="Layer.__446">
              <g id="shape1105">
                <path id="path1382" fill="#000000" fill-opacity="1" d="M271.35,38.85 Q271.35,37.3 270.55,36.95 L268.85,36.5 255.9,44.65 C248.5,49.05 242.55,51.25 238.1,51.25 L236.9,51.15 237.6,51 237.85,35.8 C237.75,28.25 236.75,24.5 234.85,24.5 234.4,24.5 229.85,29.15 221.2,38.4 212.5,47.65 206.7,52.25 203.85,52.25 198.2,52.25 193.75,50.15 190.4,45.9 L187.05,41.5 C185.9,40.15 184.65,39.5 183.35,39.5 181.25,39.5 176.5,43 169.15,50 161.95,56.8 158.35,60.8 158.35,62 158.35,63.75 159.2,64.95 160.85,65.5 162.9,64.2 166.2,60.85 170.7,55.5 174.85,50.6 179.05,47.1 183.35,45 184.45,47.2 186.1,49.4 188.25,51.65 192.1,55.55 196.1,57.5 200.35,57.5 208.3,57.5 218.9,49.75 232.1,34.25 232.15,35.45 232,37.65 231.6,40.8 231.15,44.05 230.95,46.5 231,48.1 231.2,53.7 234.15,56.5 239.85,56.5 242.6,56.5 248.55,54 257.65,49 266.8,43.95 271.35,40.55 271.35,38.85z M250.95,86.8 C242.3,82.6 237.75,80.5 237.35,80.5 233.1,80.5 225.9,83.3 215.8,88.9 205.7,94.45 199.05,97.25 195.85,97.25 195,97.25 194,96.15 192.75,94 L189.15,86.9 C185.65,79.95 182.55,76.5 179.85,76.5 176.7,76.5 173.3,77.5 169.65,79.55 166.1,81.5 164.35,83.25 164.35,84.75 164.35,85.85 164.6,86.55 165.05,86.9 L166.85,87.5 C167.35,87.35 168.6,86.35 170.65,84.5 173.35,82.65 176.75,81.75 180.85,81.75 L182.3,87.1 C183.05,89.85 183.95,92.15 184.9,94 187.85,99.65 192.15,102.5 197.85,102.5 199.6,102.5 205.55,99.75 215.7,94.25 225.85,88.75 232.9,86 236.75,86 L249.6,93.25 C259.1,98.1 266.5,100.5 271.85,100.5 273.5,100.5 274.25,100.25 274.1,99.75 L274.35,97.85 C274.35,96.8 274.25,96.3 274.1,96.35 L273.85,96.75 C268.5,94.9 260.85,91.55 250.95,86.8z M252.85,157.5 C251.8,157.65 250.85,158 250.05,158.45 L247.45,159.7 C244.1,160.75 236.75,161.25 225.35,161.25 218.75,161.25 212.95,156.15 207.9,145.9 205.55,140.75 203.85,137.25 202.75,135.3 200.9,132.1 199.1,130.5 197.35,130.5 196,130.5 193.55,130.95 190.05,131.9 186.5,132.8 181.55,133.25 175.1,133.25 171.15,133.25 168.25,131.7 166.3,128.6 164.95,126.35 163.95,122.95 163.4,118.4 162.95,113.45 162.55,110 162.15,108.15 161.5,105.05 160.2,103.5 158.35,103.5 155,103.5 153.35,105.1 153.35,108.35 L155.9,111 C157.65,113.55 158.65,117.3 158.85,122.25 L158.65,126.35 C158.6,128.5 158.9,130.3 159.45,131.8 161.2,136.25 166,138.5 173.85,138.5 179.65,138.5 184.7,138 188.95,137.05 193.05,136.15 196.2,135.7 198.35,135.75 L200.4,142.45 C201.55,146.6 203,150.05 204.7,152.8 210.25,161.95 219.6,166.5 232.85,166.5 240.45,166.5 247.95,164.3 255.35,159.85 255.35,158.75 255.2,158.1 254.85,157.95 L252.85,157.5z"/>
              </g>
            </g>
          </g>
        </g>
      </g>
    </g>
  </g>
</svg>