<?xml version="1.0" encoding="utf-8"?>
<!-- Generator: flash2svg, http://dissentgraphics.com/tools/flash2svg -->
<svg xmlns:xlink="http://www.w3.org/1999/xlink" id="sprite.__202781.__20(Acc).__2F92" image-rendering="optimizeSpeed" baseProfile="basic" version="1.1" style="background-color:#ffffff" x="0px" y="0px" width="550px" height="400px" viewBox="0 0 550 400" enable-background="new 0 0 550 400" xmlns="http://www.w3.org/2000/svg">
  <defs transform="matrix(1 0 0 1 0 0) "/>
  <g id="sprite.__202781.__20(Acc).__2F92">
    <g id="Layer.__245">
      <g id="Graphic.__2Fshape.__202731_1" overflow="visible">
        <g id="Layer.__1010">
          <g id="shape1664">
            <path id="path3493" fill="#000000" fill-opacity="1" d="M92.05,52.95 L91.9,53.1 C91.4,53.55 91.15,54.15 91.15,54.85 L91.15,64 90.85,64 90.4,63.95 80.3,63.65 74.4,63.7 74.4,63.85 65.3,63.65 59.4,63.7 54.6,63.85 54.6,56.05 C54.6,55.35 54.35,54.75 53.9,54.3 L53.8,54.2 C53.35,53.75 52.75,53.55 52.1,53.55 L18.4,53.55 C17.7,53.55 17.1,53.8 16.65,54.3 L16.25,54.8 15.95,54.8 15.9,55.3 15.9,63.35 2.85,63.5 2.8,63.7 2.65,64.3 2.8,64.3 2.8,64.45 2.65,65.05 C2.75,66.2 5.65,66.8 11.3,66.8 L15.45,66.75 15.9,66.75 15.9,77.9 C15.9,78.6 16.15,79.2 16.65,79.7 17.1,80.15 17.7,80.4 18.4,80.4 L52.1,80.4 C52.8,80.4 53.4,80.15 53.9,79.7 54.35,79.2 54.6,78.6 54.6,77.9 L54.6,66.95 C54.7,66.9 54.8,66.85 54.95,66.8 L59.4,66.95 75.4,67.05 90.4,67.6 90.65,67.6 91.15,67.8 91.15,76.7 C91.15,77.4 91.4,78 91.9,78.5 92.35,78.95 92.95,79.2 93.65,79.2 L127.35,79.2 C128.05,79.2 128.65,78.95 129.15,78.5 129.6,78 129.85,77.4 129.85,76.7 L129.85,66.8 132.3,66.8 136.05,66.65 C136.55,66.5 136.8,66.05 136.8,65.4 137.25,64.4 135,63.85 130,63.8 L129.85,63.25 129.85,54.85 C129.85,54.15 129.6,53.55 129.15,53.1 128.65,52.6 128.05,52.35 127.35,52.35 L93.65,52.35 C93.05,52.35 92.5,52.55 92.05,52.95z M96.15,57.35 L124.85,57.35 124.85,74.2 96.15,74.2 96.15,57.35z M20.9,58.55 L49.6,58.55 49.6,75.4 20.9,75.4 20.9,58.55z"/>
            <path id="path3494" fill="#FFFFFF" fill-opacity="0.45098039215686275" d="M96.15,57.35 L96.15,74.2 124.85,74.2 124.85,57.35 96.15,57.35z"/>
            <path id="path3495" fill="#FFFFFF" fill-opacity="0.45098039215686275" d="M20.9,58.55 L20.9,75.4 49.6,75.4 49.6,58.55 20.9,58.55z"/>
            <path id="path3496" fill="#000000" fill-opacity="1" d="M59.4,66.95 C68.55,67.4 68.55,67.4 59.4,67 L59.4,66.95"/>
          </g>
        </g>
      </g>
    </g>
  </g>
</svg>