<?xml version="1.0" encoding="utf-8"?>
<!-- Generator: flash2svg, http://dissentgraphics.com/tools/flash2svg -->
<svg xmlns:xlink="http://www.w3.org/1999/xlink" id="sprite.__202781.__20(Acc).__2F99" image-rendering="optimizeSpeed" baseProfile="basic" version="1.1" style="background-color:#ffffff" x="0px" y="0px" width="550px" height="400px" viewBox="0 0 550 400" enable-background="new 0 0 550 400" xmlns="http://www.w3.org/2000/svg">
  <defs transform="matrix(1 0 0 1 0 0) "/>
  <g id="sprite.__202781.__20(Acc).__2F99">
    <g id="Layer.__252">
      <g id="Graphic.__2Fshape.__202745_1" overflow="visible">
        <g id="Layer.__1115">
          <g id="shape1769">
            <path id="path3876" fill="none" stroke="#000000" stroke-opacity="1" stroke-width="5" stroke-linecap="round" stroke-linejoin="round" d="M-3,-42.9 C-3.25,-39.65 -4.5,-37 -6.7,-35.05 -8,-33.95 -13,-30.4 -21.75,-24.45 -30.5,-18.5 -36.8,-12.4 -40.6,-6.15 -44.45,0.1 -46.15,7.55 -45.7,16.2 -60.05,2.75 -64.2,-7.6 -58.1,-14.9 -51.95,-22.15 -47.65,-29.3 -45.1,-36.3 -42.55,-43.3 -38.3,-47.85 -32.25,-50 -26.25,-52.15 -23.65,-54.25 -24.45,-56.35 -25.3,-58.45 -23.15,-58.9 -18,-57.65 -12.55,-64.1 -8.55,-66.1 -6.1,-63.65 4,-55.9 11.6,-46.05 16.65,-34.2 Q21,-28.6 9.6,-26.15 L-3,-42.65"/>
            <path id="path3877" fill="#FFFFFF" fill-opacity="1" d="M9.6,-26.15 Q21,-28.6 16.65,-34.2 C11.6,-46.05 4,-55.9 -6.1,-63.65 -8.55,-66.1 -12.55,-64.1 -18,-57.65 -23.15,-58.9 -25.3,-58.45 -24.45,-56.35 -23.65,-54.25 -26.25,-52.15 -32.25,-50 -38.3,-47.85 -42.55,-43.3 -45.1,-36.3 -47.65,-29.3 -51.95,-22.15 -58.1,-14.9 -64.2,-7.6 -60.05,2.75 -45.7,16.2 -52.85,3.05 -53.8,-6.85 -48.5,-13.55 -43.25,-20.3 -35.3,-26.55 -24.55,-32.35 -13.8,-38.2 -8,-42 -7.15,-43.85 -6.25,-45.7 -5.05,-47.3 -3.55,-48.65 L-3.5,-48.65 -3.45,-48.6 -3.45,-48.55 C-3.05,-46.5 -2.9,-44.65 -3,-42.9 L-3,-42.65 9.6,-26.15z"/>
            <path id="path3878" fill="none" stroke="#000000" stroke-opacity="1" stroke-width="5" stroke-linecap="round" stroke-linejoin="round" d="M-3,-42.65 L9.6,-26.15 Q21,-28.6 16.65,-34.2 C11.6,-46.05 4,-55.9 -6.1,-63.65 -8.55,-66.1 -12.55,-64.1 -18,-57.65 -23.15,-58.9 -25.3,-58.45 -24.45,-56.35 -23.65,-54.25 -26.25,-52.15 -32.25,-50 -38.3,-47.85 -42.55,-43.3 -45.1,-36.3 -47.65,-29.3 -51.95,-22.15 -58.1,-14.9 -64.2,-7.6 -60.05,2.75 -45.7,16.2"/>
            <path id="path3879" fill="none" stroke="#010101" stroke-opacity="0" stroke-width="5" stroke-linecap="round" stroke-linejoin="round" d="M-45.7,16.2 C-52.85,3.05 -53.8,-6.85 -48.5,-13.55 -43.25,-20.3 -35.3,-26.55 -24.55,-32.35 -13.8,-38.2 -8,-42 -7.15,-43.85 -6.25,-45.7 -5.05,-47.3 -3.55,-48.65"/>
            <path id="path3880" fill="none" stroke="#000000" stroke-opacity="1" stroke-width="5" stroke-linecap="round" stroke-linejoin="round" d="M-3.45,-48.55 C-3.05,-46.5 -2.9,-44.65 -3,-42.9"/>
            <path id="path3881" fill="#880000" fill-opacity="1" d="M-3.45,-48.55 L-3.45,-48.6 -3.5,-48.65 -3.55,-48.65 C-5.05,-47.3 -6.25,-45.7 -7.15,-43.85 -8,-42 -13.8,-38.2 -24.55,-32.35 -35.3,-26.55 -43.25,-20.3 -48.5,-13.55 -53.8,-6.85 -52.85,3.05 -45.7,16.2 -46.15,7.55 -44.45,0.1 -40.6,-6.15 -36.8,-12.4 -30.5,-18.5 -21.75,-24.45 -13,-30.4 -8,-33.95 -6.7,-35.05 -4.5,-37 -3.25,-39.65 -3,-42.9 -2.9,-44.65 -3.05,-46.5 -3.45,-48.55z"/>
            <path id="path3882" fill="none" stroke="#010101" stroke-opacity="0" stroke-width="5" stroke-linecap="round" stroke-linejoin="round" d="M-3.55,-48.65 C-5.05,-47.3 -6.25,-45.7 -7.15,-43.85 -8,-42 -13.8,-38.2 -24.55,-32.35 -35.3,-26.55 -43.25,-20.3 -48.5,-13.55 -53.8,-6.85 -52.85,3.05 -45.7,16.2"/>
            <path id="path3883" fill="none" stroke="#000000" stroke-opacity="1" stroke-width="5" stroke-linecap="round" stroke-linejoin="round" d="M-45.7,16.2 C-46.15,7.55 -44.45,0.1 -40.6,-6.15 -36.8,-12.4 -30.5,-18.5 -21.75,-24.45 -13,-30.4 -8,-33.95 -6.7,-35.05 -4.5,-37 -3.25,-39.65 -3,-42.9 -2.9,-44.65 -3.05,-46.5 -3.45,-48.55"/>
          </g>
        </g>
        <g id="Layer.__1116">
          <g id="shape1770">
            <path id="path3884" fill="none" stroke="#000000" stroke-opacity="1" stroke-width="5" stroke-linecap="round" stroke-linejoin="round" d="M124.9,-45.2 L112.35,-28.7 C104.7,-30.35 102.35,-33 105.25,-36.75 110.3,-48.6 117.9,-58.45 128.05,-66.2 130.5,-68.65 134.45,-66.65 139.95,-60.2 L145.95,-53.8 C145.45,-54.4 148.2,-53.8 154.15,-52.05 160.2,-50.25 165.25,-45.35 169.35,-37.3 173.45,-29.35 175.05,-23.9 174.15,-21 173.2,-18.1 173.65,-15.45 175.5,-13.1 177.25,-10.75 177.25,-8.05 175.5,-5.05 171.3,1.95 168.7,8.2 167.65,13.65 157.6,4 152.95,-3.7 153.6,-9.55 154.25,-15.35 150.6,-21.2 142.6,-27.1 L128.65,-37.6 C126.4,-39.55 125.2,-42.2 124.95,-45.45"/>
            <path id="path3885" fill="#880000" fill-opacity="1" d="M125.45,-51.15 L125.45,-51.1 C125,-49.05 124.8,-47.2 124.95,-45.45 125.2,-42.2 126.4,-39.55 128.65,-37.6 L142.6,-27.1 C150.6,-21.2 154.25,-15.35 153.6,-9.55 152.95,-3.7 157.6,4 167.65,13.65 165.8,5.7 164.9,-2.1 164.95,-9.75 164.95,-17.4 159.2,-24.95 147.65,-32.45 136.1,-39.9 129.9,-44.55 129.05,-46.4 128.15,-48.25 126.95,-49.85 125.45,-51.2 L125.45,-51.15z"/>
            <path id="path3886" fill="none" stroke="#000000" stroke-opacity="1" stroke-width="5" stroke-linecap="round" stroke-linejoin="round" d="M125.45,-51.1 C125,-49.05 124.8,-47.2 124.95,-45.45 125.2,-42.2 126.4,-39.55 128.65,-37.6 L142.6,-27.1 C150.6,-21.2 154.25,-15.35 153.6,-9.55 152.95,-3.7 157.6,4 167.65,13.65"/>
            <path id="path3887" fill="none" stroke="#010101" stroke-opacity="0" stroke-width="5" stroke-linecap="round" stroke-linejoin="round" d="M167.65,13.65 C165.8,5.7 164.9,-2.1 164.95,-9.75 164.95,-17.4 159.2,-24.95 147.65,-32.45 136.1,-39.9 129.9,-44.55 129.05,-46.4 128.15,-48.25 126.95,-49.85 125.45,-51.2"/>
            <path id="path3888" fill="#FFFFFF" fill-opacity="1" d="M125.45,-51.1 L125.45,-51.15 125.45,-51.2 C126.95,-49.85 128.15,-48.25 129.05,-46.4 129.9,-44.55 136.1,-39.9 147.65,-32.45 159.2,-24.95 164.95,-17.4 164.95,-9.75 164.9,-2.1 165.8,5.7 167.65,13.65 168.7,8.2 171.3,1.95 175.5,-5.05 177.25,-8.05 177.25,-10.75 175.5,-13.1 173.65,-15.45 173.2,-18.1 174.15,-21 175.05,-23.9 173.45,-29.35 169.35,-37.3 165.25,-45.35 160.2,-50.25 154.15,-52.05 148.2,-53.8 145.45,-54.4 145.95,-53.8 L139.95,-60.2 C134.45,-66.65 130.5,-68.65 128.05,-66.2 117.9,-58.45 110.3,-48.6 105.25,-36.75 102.35,-33 104.7,-30.35 112.35,-28.7 L124.9,-45.2 124.95,-45.45 C124.8,-47.2 125,-49.05 125.45,-51.1z"/>
            <path id="path3889" fill="none" stroke="#010101" stroke-opacity="0" stroke-width="5" stroke-linecap="round" stroke-linejoin="round" d="M125.45,-51.2 C126.95,-49.85 128.15,-48.25 129.05,-46.4 129.9,-44.55 136.1,-39.9 147.65,-32.45 159.2,-24.95 164.95,-17.4 164.95,-9.75 164.9,-2.1 165.8,5.7 167.65,13.65"/>
            <path id="path3890" fill="none" stroke="#000000" stroke-opacity="1" stroke-width="5" stroke-linecap="round" stroke-linejoin="round" d="M167.65,13.65 C168.7,8.2 171.3,1.95 175.5,-5.05 177.25,-8.05 177.25,-10.75 175.5,-13.1 173.65,-15.45 173.2,-18.1 174.15,-21 175.05,-23.9 173.45,-29.35 169.35,-37.3 165.25,-45.35 160.2,-50.25 154.15,-52.05 148.2,-53.8 145.45,-54.4 145.95,-53.8 L139.95,-60.2 C134.45,-66.65 130.5,-68.65 128.05,-66.2 117.9,-58.45 110.3,-48.6 105.25,-36.75 102.35,-33 104.7,-30.35 112.35,-28.7 L124.9,-45.2"/>
            <path id="path3891" fill="none" stroke="#000000" stroke-opacity="1" stroke-width="5" stroke-linecap="round" stroke-linejoin="round" d="M124.95,-45.45 C124.8,-47.2 125,-49.05 125.45,-51.1"/>
          </g>
        </g>
      </g>
    </g>
  </g>
</svg>