<?xml version="1.0" encoding="utf-8"?>
<!-- Generator: flash2svg, http://dissentgraphics.com/tools/flash2svg -->
<svg xmlns:xlink="http://www.w3.org/1999/xlink" id="sprite.__201571.__20(Items).__2F107" image-rendering="optimizeSpeed" baseProfile="basic" version="1.1" style="background-color:#ffffff" x="0px" y="0px" width="550px" height="400px" viewBox="0 0 550 400" enable-background="new 0 0 550 400" xmlns="http://www.w3.org/2000/svg">
  <defs transform="matrix(1 0 0 1 0 0) ">
    <radialGradient gradientUnits="userSpaceOnUse" color-interpolation="sRGB" r="42.331" cx="-27.949" cy="70.05" fx="-27.949" fy="70.05" gradientTransform="matrix(1 0 0 1 0.05 0.05)" id="radialGradient74">
      <stop stop-color="#FFFFFF" stop-opacity="1" offset="0"/>
      <stop stop-color="#D0D0D0" stop-opacity="1" offset="1"/>
    </radialGradient>
    <radialGradient gradientUnits="userSpaceOnUse" color-interpolation="sRGB" r="32.893" cx="-31.949" cy="66.05" fx="-31.949" fy="66.05" gradientTransform="matrix(1 0 0 1 0.05 0.05)" id="radialGradient75">
      <stop stop-color="#FFFFFF" stop-opacity="0.7215686274509804" offset="0"/>
      <stop stop-color="#FFFFFF" stop-opacity="0" offset="1"/>
    </radialGradient>
  </defs>
  <g id="sprite.__201571.__20(Items).__2F107">
    <g id="Layer.__211">
      <g id="Graphic.__2Fshape.__201433_1" overflow="visible">
        <g id="Layer.__370">
          <g id="shape225">
            <path id="path842" fill="none" stroke="#000000" stroke-opacity="1" stroke-width="4" stroke-linecap="round" stroke-linejoin="round" d="M158.7,-23.2 Q163.4,-19.1 167.1,-15.1 C196.4,16.65 175.25,42.9 103.6,63.65 L108.7,72.55 100.05,73.65 96.85,67.2 75.35,77.3 73.2,71.55 93.65,60.75 88.95,51.3 94.45,44.55 99.65,55.45 C145.35,34.5 165.05,8.3 158.7,-23.2z"/>
            <path id="path843" fill="#CCCCCC" fill-opacity="1" d="M167.1,-15.1 Q163.4,-19.1 158.7,-23.2 C165.05,8.3 145.35,34.5 99.65,55.45 L102.1,60.45 C150.45,39 172.1,13.85 167.1,-15.1z"/>
            <path id="path844" fill="none" stroke="#000000" stroke-opacity="1" stroke-width="4" stroke-linecap="round" stroke-linejoin="round" d="M167.1,-15.1 Q163.4,-19.1 158.7,-23.2 C165.05,8.3 145.35,34.5 99.65,55.45 L102.1,60.45"/>
            <path id="path845" fill="none" stroke="#010101" stroke-opacity="0" stroke-width="4" stroke-linecap="round" stroke-linejoin="round" d="M102.1,60.45 C150.45,39 172.1,13.85 167.1,-15.1"/>
            <path id="path846" fill="#532424" fill-opacity="1" d="M94.45,44.55 L88.95,51.3 93.65,60.75 96.85,67.2 100.05,73.65 108.7,72.55 103.6,63.65 102.1,60.45 99.65,55.45 94.45,44.55z"/>
            <path id="path847" fill="none" stroke="#000000" stroke-opacity="1" stroke-width="4" stroke-linecap="round" stroke-linejoin="round" d="M94.45,44.55 L88.95,51.3 93.65,60.75 96.85,67.2 100.05,73.65 108.7,72.55 103.6,63.65 102.1,60.45 99.65,55.45 94.45,44.55z"/>
            <path id="path848" fill="#532424" fill-opacity="1" d="M96.85,67.2 L93.65,60.75 73.2,71.55 75.35,77.3 96.85,67.2z"/>
            <path id="path849" fill="none" stroke="#000000" stroke-opacity="1" stroke-width="4" stroke-linecap="round" stroke-linejoin="round" d="M96.85,67.2 L93.65,60.75 73.2,71.55 75.35,77.3 96.85,67.2z"/>
            <path id="path850" fill="#FFFFFF" fill-opacity="1" d="M102.1,60.45 L103.6,63.65 C175.25,42.9 196.4,16.65 167.1,-15.1 172.1,13.85 150.45,39 102.1,60.45z"/>
            <path id="path851" fill="none" stroke="#000000" stroke-opacity="1" stroke-width="4" stroke-linecap="round" stroke-linejoin="round" d="M102.1,60.45 L103.6,63.65 C175.25,42.9 196.4,16.65 167.1,-15.1"/>
            <path id="path852" fill="none" stroke="#010101" stroke-opacity="0" stroke-width="4" stroke-linecap="round" stroke-linejoin="round" d="M167.1,-15.1 C172.1,13.85 150.45,39 102.1,60.45"/>
            <path id="path853" fill="url(#radialGradient74)" fill-opacity="1" d="M16.9,76.8 C16.9,66.45 13.25,57.6 5.9,50.25 -1.4,42.95 -10.25,39.3 -20.6,39.3 -30.95,39.3 -39.8,42.95 -47.15,50.25 -54.45,57.6 -58.1,66.45 -58.1,76.8 -58.1,87.15 -54.45,96 -47.15,103.3 -39.8,110.65 -30.95,114.3 -20.6,114.3 -10.25,114.3 -1.4,110.65 5.9,103.3 13.25,96 16.9,87.15 16.9,76.8z"/>
            <path id="path854" fill="none" stroke="#000000" stroke-opacity="1" stroke-width="4" stroke-linecap="round" stroke-linejoin="round" d="M16.9,76.8 C16.9,66.45 13.25,57.6 5.9,50.25 -1.4,42.95 -10.25,39.3 -20.6,39.3 -30.95,39.3 -39.8,42.95 -47.15,50.25 -54.45,57.6 -58.1,66.45 -58.1,76.8 -58.1,87.15 -54.45,96 -47.15,103.3 -39.8,110.65 -30.95,114.3 -20.6,114.3 -10.25,114.3 -1.4,110.65 5.9,103.3 13.25,96 16.9,87.15 16.9,76.8z"/>
          </g>
        </g>
      </g>
    </g>
    <g id="Layer.__212">
      <g id="Graphic.__2Fshape.__201435_1" overflow="visible">
        <g id="Layer.__371">
          <g id="shape226">
            <path id="path855" fill="#000000" fill-opacity="1" d="M-17.893,61.478 Q-25.628,54.799 -33.34,51.128 C-31.708,54.308 -31.084,57.582 -31.494,61.043 -31.516,65.955 -30.056,70.746 -27.189,75.5 -29.278,74.992 -31.366,75.054 -33.463,75.734 -38.634,76.678 -43.996,76.794 -49.455,76.108 -41.183,83.294 -33.596,87.242 -26.708,88.001 -29.441,89.701 -32.006,93.673 -34.429,100.011 -24.136,97.334 -17.421,92.56 -14.215,85.809 -8.498,88.428 -0.727,86.473 9.146,79.956 3.877,77.405 -0.609,76.566 -4.346,77.376 -1.676,72.242 -0.624,67.348 -1.162,62.597 -1.792,58.96 -1.115,55.466 0.857,52.164 -7.857,58.991 -12.621,64.599 -13.435,68.988 L-13.516,69.484 C-14.32,66.111 -15.779,63.442 -17.893,61.478z"/>
            <path id="path856" fill="none" stroke="#000000" stroke-opacity="1" stroke-width="3" stroke-linecap="round" stroke-linejoin="round" d="M-17.893,61.478 Q-25.628,54.799 -33.34,51.128 C-31.708,54.308 -31.084,57.582 -31.494,61.043 -31.516,65.955 -30.056,70.746 -27.189,75.5 -29.278,74.992 -31.366,75.054 -33.463,75.734 -38.634,76.678 -43.996,76.794 -49.455,76.108 -41.183,83.294 -33.596,87.242 -26.708,88.001 -29.441,89.701 -32.006,93.673 -34.429,100.011 -24.136,97.334 -17.421,92.56 -14.215,85.809 -8.498,88.428 -0.727,86.473 9.146,79.956 3.877,77.405 -0.609,76.566 -4.346,77.376 -1.676,72.242 -0.624,67.348 -1.162,62.597 -1.792,58.96 -1.115,55.466 0.857,52.164 -7.857,58.991 -12.621,64.599 -13.435,68.988 L-13.516,69.484 C-14.32,66.111 -15.779,63.442 -17.893,61.478z"/>
          </g>
        </g>
      </g>
    </g>
    <g id="Layer.__213">
      <g id="Graphic.__2Fshape.__201437_1" overflow="visible">
        <g id="Layer.__372">
          <g id="shape227">
            <path id="path857" fill="url(#radialGradient75)" fill-opacity="1" d="M14.9,74.8 Q14.9,59.25 3.9,48.25 C-3.4,40.95 -12.25,37.3 -22.6,37.3 -32.95,37.3 -41.8,40.95 -49.15,48.25 -56.45,55.6 -60.1,64.45 -60.1,74.8 -60.1,85.15 -56.45,94 -49.15,101.3 -41.8,108.65 -32.95,112.3 -22.6,112.3 -12.25,112.3 -3.4,108.65 3.9,101.3 11.25,94 14.9,85.15 14.9,74.8z"/>
          </g>
        </g>
      </g>
    </g>
  </g>
</svg>