<?xml version="1.0" encoding="utf-8"?>
<!-- Generator: flash2svg, http://dissentgraphics.com/tools/flash2svg -->
<svg xmlns:xlink="http://www.w3.org/1999/xlink" id="sprite.__201571.__20(Items).__2F113" image-rendering="optimizeSpeed" baseProfile="basic" version="1.1" style="background-color:#ffffff" x="0px" y="0px" width="550px" height="400px" viewBox="0 0 550 400" enable-background="new 0 0 550 400" xmlns="http://www.w3.org/2000/svg">
  <defs transform="matrix(1 0 0 1 0 0) "/>
  <g id="sprite.__201571.__20(Items).__2F113">
    <g id="Layer.__204">
      <g id="MovieClip.__2Fsprite.__201453_1" overflow="visible">
        <g id="Layer.__290">
          <g id="Graphic.__2Fshape.__201483_5" overflow="visible">
            <g id="Layer.__291">
              <g id="shape601">
                <path id="path2017" fill="#E6E6E6" fill-opacity="1" d="M27.634,74.632 Q28.754,74.513 29.421,73.687 C29.898,73.097 30.097,72.429 30.018,71.682 29.938,70.935 29.604,70.323 29.019,69.9 28.483,69.417 27.814,69.219 27.067,69.298 L-26.597,74.993 -28.357,75.18 C-32.411,75.61 -35.777,76.938 -38.394,79.212 -41.565,81.868 -42.924,84.817 -42.472,88.06 -42.234,91.325 -40.291,93.87 -36.634,95.802 L-36.693,95.754 C-33.544,97.47 -29.915,98.11 -25.755,97.668 L-24.213,97.451 C-23.472,97.318 -22.919,96.936 -22.501,96.298 -22.084,95.66 -21.938,94.998 -22.065,94.31 -22.198,93.569 -22.58,93.016 -23.218,92.598 -23.856,92.18 -24.518,92.035 -25.206,92.162 L-26.321,92.334 C-29.255,92.645 -31.889,92.223 -34.116,91.057 L-34.17,91.063 C-35.889,90.113 -36.878,88.923 -37.138,87.494 -37.19,85.989 -36.472,84.618 -34.937,83.322 -33.004,81.715 -30.57,80.755 -27.631,80.497 L-27.364,80.469 -26.457,80.373 -26.244,80.35 27.634,74.632z"/>
                <path id="path2018" fill="none" stroke="#000000" stroke-opacity="1" stroke-width="3.219" stroke-linecap="round" stroke-linejoin="round" d="M27.634,74.632 Q28.754,74.513 29.421,73.687 C29.898,73.097 30.097,72.429 30.018,71.682 29.938,70.935 29.604,70.323 29.019,69.9 28.483,69.417 27.814,69.219 27.067,69.298 L-26.597,74.993 -28.357,75.18 C-32.411,75.61 -35.777,76.938 -38.394,79.212 -41.565,81.868 -42.924,84.817 -42.472,88.06 -42.234,91.325 -40.291,93.87 -36.634,95.802 L-36.693,95.754 C-33.544,97.47 -29.915,98.11 -25.755,97.668 L-24.213,97.451 C-23.472,97.318 -22.919,96.936 -22.501,96.298 -22.084,95.66 -21.938,94.998 -22.065,94.31 -22.198,93.569 -22.58,93.016 -23.218,92.598 -23.856,92.18 -24.518,92.035 -25.206,92.162 L-26.321,92.334 C-29.255,92.645 -31.889,92.223 -34.116,91.057 L-34.17,91.063 C-35.889,90.113 -36.878,88.923 -37.138,87.494 -37.19,85.989 -36.472,84.618 -34.937,83.322 -33.004,81.715 -30.57,80.755 -27.631,80.497 L-27.364,80.469 -26.457,80.373 -26.244,80.35 27.634,74.632z"/>
              </g>
            </g>
          </g>
        </g>
        <g id="Layer.__292">
          <g id="Graphic.__2Fshape.__201485_5" overflow="visible">
            <g id="Layer.__293">
              <g id="shape602">
                <path id="path2019" fill="#FFDDDD" fill-opacity="1" d="M7.811,75.248 L9.175,78.448 C24.088,92.401 78.13,85.695 171.201,58.394 L189.29,52.968 174.924,51.795 C75.338,44.13 19.677,48.796 7.839,65.858 L7.048,70.096 C7.557,70.312 7.515,70.424 6.987,70.534 L7.811,75.248z"/>
              </g>
            </g>
          </g>
        </g>
        <g id="Layer.__294">
          <g id="Graphic.__2Fshape.__201487_5" overflow="visible">
            <g id="Layer.__295">
              <g id="shape603">
                <path id="path2020" fill="none" stroke="#000000" stroke-opacity="1" stroke-width="1.073" stroke-linecap="round" stroke-linejoin="round" d="M174.226,60.16 L169.801,60.144"/>
                <path id="path2021" fill="none" stroke="#000000" stroke-opacity="1" stroke-width="3.219" stroke-linecap="round" stroke-linejoin="round" d="M169.801,60.144 C76.73,87.445 22.688,94.151 7.775,80.198 L3.482,90.579 2.463,80.977 -1.941,85.221 0.83,75.756 -3.219,68.094 1.808,69.718 0.732,59.583 6.439,67.608 C18.277,50.546 73.938,45.88 173.524,53.545 L187.89,54.718 169.801,60.144z"/>
                <path id="path2022" fill="none" stroke="#000000" stroke-opacity="1" stroke-width="3.219" stroke-linecap="round" stroke-linejoin="round" d="M6.411,76.998 L7.775,80.198 C22.688,94.151 76.73,87.445 169.801,60.144 L187.89,54.718 173.524,53.545 C73.938,45.88 18.277,50.546 6.439,67.608 L5.648,71.846"/>
                <path id="path2023" fill="none" stroke="#000000" stroke-opacity="1" stroke-width="2.146" stroke-linecap="round" stroke-linejoin="round" d="M5.648,71.846 C28.57,64.181 86.896,58.692 180.582,55.493 88.39,72.775 30.299,79.965 6.411,76.998"/>
                <path id="path2024" fill="#FFFFFF" fill-opacity="1" d="M7.775,80.198 L6.411,76.998 5.587,72.284 5.648,71.846 6.439,67.608 0.732,59.583 1.808,69.718 -3.219,68.094 0.83,75.756 -1.941,85.221 2.463,80.977 3.482,90.579 7.775,80.198z"/>
                <path id="path2025" fill="none" stroke="#000000" stroke-opacity="1" stroke-width="3.219" stroke-linecap="round" stroke-linejoin="round" d="M7.775,80.198 L6.411,76.998 5.587,72.284 5.648,71.846 6.439,67.608 0.732,59.583 1.808,69.718 -3.219,68.094 0.83,75.756 -1.941,85.221 2.463,80.977 3.482,90.579 7.775,80.198z"/>
                <path id="path2026" fill="none" stroke="#000000" stroke-opacity="1" stroke-width="1.073" stroke-linecap="round" stroke-linejoin="round" d="M5.648,71.846 C6.157,72.062 6.115,72.174 5.587,72.284"/>
                <path id="path2027" fill="none" stroke="#000000" stroke-opacity="1" stroke-width="3.219" stroke-linecap="round" stroke-linejoin="round" d="M5.587,72.284 L6.411,76.998"/>
                <path id="path2028" fill="none" stroke="#000000" stroke-opacity="1" stroke-width="2.146" stroke-linecap="round" stroke-linejoin="round" d="M6.411,76.998 C30.299,79.965 88.39,72.775 180.582,55.493 86.896,58.692 28.57,64.181 5.648,71.846"/>
                <path id="path2029" fill="none" stroke="#000000" stroke-opacity="1" stroke-width="3.219" stroke-linecap="round" stroke-linejoin="round" d="M5.648,71.846 L5.587,72.284"/>
                <path id="path2030" fill="none" stroke="#000000" stroke-opacity="1" stroke-width="1.073" stroke-linecap="round" stroke-linejoin="round" d="M5.587,72.284 C6.115,72.174 6.157,72.062 5.648,71.846"/>
              </g>
            </g>
            <g id="Layer.__296">
              <g id="shape604">
                <path id="path2031" fill="#EEEEEE" fill-opacity="1" d="M179.686,58.232 L191.528,56.975 190.979,51.801 179.136,53.057 179.686,58.232z"/>
                <path id="path2032" fill="none" stroke="#000000" stroke-opacity="1" stroke-width="3.219" stroke-linecap="round" stroke-linejoin="round" d="M179.686,58.232 L191.528,56.975 190.979,51.801 179.136,53.057 179.686,58.232z"/>
              </g>
            </g>
          </g>
        </g>
      </g>
    </g>
  </g>
</svg>