<?xml version="1.0" encoding="utf-8"?>
<!-- Generator: flash2svg, http://dissentgraphics.com/tools/flash2svg -->
<svg xmlns:xlink="http://www.w3.org/1999/xlink" id="sprite.__201571.__20(Items).__2F120" image-rendering="optimizeSpeed" baseProfile="basic" version="1.1" style="background-color:#ffffff" x="0px" y="0px" width="550px" height="400px" viewBox="0 0 550 400" enable-background="new 0 0 550 400" xmlns="http://www.w3.org/2000/svg">
  <defs transform="matrix(1 0 0 1 0 0) "/>
  <g id="sprite.__201571.__20(Items).__2F120">
    <g id="Layer.__201">
      <g id="MovieClip.__2Fsprite.__201477_1" overflow="visible">
        <g id="Layer.__293">
          <g id="Graphic.__2Fshape.__201508_2" overflow="visible">
            <g id="Layer.__294">
              <g id="shape405">
                <path id="path735" fill="#808080" fill-opacity="0" d="M193.775,-1.87 Q180.175,-10.2 160.88,-10.2 C148.003,-10.2 137.038,-7.437 127.943,-1.87 118.89,3.698 114.343,10.37 114.343,18.233 114.343,26.095 118.89,32.767 127.943,38.335 137.038,43.902 148.003,46.665 160.88,46.665 173.757,46.665 184.722,43.902 193.775,38.335 202.87,32.767 207.417,26.095 207.417,18.233 207.417,10.37 202.87,3.698 193.775,-1.87z"/>
              </g>
            </g>
          </g>
        </g>
        <g id="Layer.__295">
          <g id="Graphic.__2Fshape.__201510_2" overflow="visible">
            <g id="Layer.__296">
              <g id="shape406">
                <path id="path736" fill="#000000" fill-opacity="1" d="M210.264,5.185 C209.542,-0.382 207.757,-5.482 204.825,-10.2 202.062,-14.62 198.195,-17.765 193.307,-19.635 180.217,-24.479 167.042,-24.989 153.74,-21.207 146.728,-19.295 140.31,-16.192 134.488,-11.9 127.73,-7.012 121.695,-1.402 116.298,4.93 107.841,14.875 99.468,25.542 91.181,36.89 L88.928,35.7 65.256,65.45 75.753,75.989 88.843,61.625 102.188,46.537 100.446,44.795 107.246,36.422 C112.006,30.387 116.893,24.48 121.95,18.743 126.923,13.09 132.32,7.905 138.143,3.188 144.05,-1.572 150.638,-5.015 157.905,-7.14 166.022,-9.562 174.055,-9.265 182.045,-6.332 190.502,-3.187 195.007,3.315 195.517,13.175 195.942,20.995 196.24,28.772 196.41,36.55 196.537,44.2 198.195,51.467 201.297,58.31 204.995,66.427 210.817,72.249 218.849,75.862 226.797,79.432 234.957,79.857 243.244,77.179 249.492,75.139 254.761,71.569 259.054,66.47 263.006,61.752 264.919,56.397 264.791,50.32 262.709,52.487 260.414,54.357 257.906,55.93 253.699,58.607 249.152,60.477 244.264,61.54 238.187,62.857 232.152,62.73 226.202,61.157 222.674,60.18 219.699,58.352 217.277,55.675 214.854,53.04 213.324,49.937 212.644,46.325 211.327,39.482 210.859,32.64 211.157,25.712 211.454,18.87 211.157,12.028 210.264,5.185z M167.85,-13.217 C153.103,-11.305 140.395,-5.015 129.728,5.653 118.295,17.085 107.628,28.942 97.768,41.267 L94.921,39.057 100.828,30.642 C105.461,24.225 110.476,18.063 115.83,12.198 121.228,6.205 127.008,0.638 133.17,-4.547 139.503,-9.902 146.643,-13.855 154.505,-16.405 162.367,-18.912 170.4,-19.847 178.645,-19.167 187.612,-19.04 194.54,-15.342 199.47,-8.117 204.272,-1.147 206.694,6.673 206.822,15.343 206.949,23.587 207.332,31.832 207.969,40.035 208.692,48.832 212.177,56.057 218.467,61.795 224.799,67.49 232.194,69.317 240.737,67.235 247.919,66.002 254.124,62.857 259.309,57.715 257.991,60.307 256.334,62.56 254.336,64.515 250.469,68.34 246.007,71.017 240.864,72.504 236.742,73.779 232.619,74.119 228.412,73.524 224.289,72.887 220.507,71.357 216.979,68.892 212.772,65.96 209.414,62.262 206.822,57.8 203.507,51.977 201.765,45.73 201.595,39.015 201.34,29.24 200.745,19.508 199.852,9.775 199.13,2.168 195.687,-3.74 189.44,-7.947 Q179.75,-14.492 167.85,-13.217z M90.033,41.735 L95.473,46.24 82.893,61.582 76.476,69.275 71.206,64.387 90.033,41.735z"/>
                <path id="path737" fill="#808080" fill-opacity="1" d="M167.85,-13.217 Q179.75,-14.492 189.44,-7.947 C195.687,-3.74 199.13,2.168 199.852,9.775 200.745,19.508 201.34,29.24 201.595,39.015 201.765,45.73 203.507,51.977 206.822,57.8 209.414,62.262 212.772,65.96 216.979,68.892 220.507,71.357 224.289,72.887 228.412,73.524 232.619,74.119 236.742,73.779 240.864,72.504 246.007,71.017 250.469,68.34 254.336,64.515 256.334,62.56 257.991,60.307 259.309,57.715 254.124,62.857 247.919,66.002 240.737,67.235 232.194,69.317 224.799,67.49 218.467,61.795 212.177,56.057 208.692,48.832 207.969,40.035 207.332,31.832 206.949,23.587 206.822,15.343 206.694,6.673 204.272,-1.147 199.47,-8.117 194.54,-15.342 187.612,-19.04 178.645,-19.167 170.4,-19.847 162.367,-18.912 154.505,-16.405 146.643,-13.855 139.503,-9.902 133.17,-4.547 127.008,0.638 121.228,6.205 115.83,12.198 110.476,18.063 105.461,24.225 100.828,30.642 L94.921,39.057 97.768,41.267 C107.628,28.942 118.295,17.085 129.728,5.653 140.395,-5.015 153.103,-11.305 167.85,-13.217z"/>
                <path id="path738" fill="#515151" fill-opacity="1" d="M90.033,41.735 L71.206,64.387 76.476,69.275 82.893,61.582 95.473,46.24 90.033,41.735z"/>
              </g>
            </g>
          </g>
        </g>
      </g>
    </g>
  </g>
</svg>