<?xml version="1.0" encoding="utf-8"?>
<!-- Generator: flash2svg, http://dissentgraphics.com/tools/flash2svg -->
<svg xmlns:xlink="http://www.w3.org/1999/xlink" id="sprite.__201571.__20(Items).__2F124" image-rendering="optimizeSpeed" baseProfile="basic" version="1.1" style="background-color:#ffffff" x="0px" y="0px" width="550px" height="400px" viewBox="0 0 550 400" enable-background="new 0 0 550 400" xmlns="http://www.w3.org/2000/svg">
  <defs transform="matrix(1 0 0 1 0 0) "/>
  <g id="sprite.__201571.__20(Items).__2F124">
    <g id="Layer.__205">
      <g id="MovieClip.__2Fsprite.__201485_1" overflow="visible">
        <g id="Layer.__474">
          <g id="Graphic.__2Fshape.__201518_6" overflow="visible">
            <g id="Layer.__475">
              <g id="shape549">
                <path id="path1854" fill="#000000" fill-opacity="1" d="M212.975,16.354 C213.365,16.129 213.58,15.601 213.558,14.863 217.497,12.185 215.982,4.861 209.082,-7.09 206.007,-12.416 201.761,-17.471 196.301,-22.228 191.644,-26.294 189.024,-28.131 188.375,-27.756 L187.546,-27.392 187.208,-26.677 C186.173,-26.369 184.947,-25.892 183.58,-25.161 L178.719,-22.181 C172.05,-18.331 166.052,-14.521 160.722,-10.751 150.385,-3.455 143.461,1.351 139.948,3.667 135.941,6.327 129.405,10.505 120.313,16.159 L110.187,22.12 C106.99,24.082 104.289,26.103 102.084,28.184 L101.116,28.108 100.298,28.292 C100.082,28.417 99.095,31.007 97.381,36.038 95.612,41.274 94.961,44.248 95.386,44.984 L95.411,45.027 C92.733,46.689 87.789,50.525 80.596,56.467 73.342,62.503 69.104,66.162 67.95,67.464 L68.212,67.717 68.075,67.68 67.609,68.873 69.401,72.977 70.526,74.925 70.468,75.825 71.06,76.349 71.654,76.179 C71.996,76.271 72.349,76.182 72.739,75.957 L73.19,75.639 90.702,69.57 104.967,64.278 118.104,67.433 C145.468,52.327 177.083,35.286 212.975,16.354z M198.204,6.869 L187.443,-10.07 C184.768,-14.703 183.519,-17.966 183.703,-19.747 L184.149,-21.275 C184.241,-21.616 184.196,-21.994 184.014,-22.409 L187.248,-24.507 C187.959,-20.876 190.989,-14.427 196.314,-5.204 202.739,5.925 207.266,12.664 209.868,14.972 L210.876,15.718 205.319,18.292 204.033,15.166 198.204,6.869z M210.312,11.541 L198.746,-6.492 C193.101,-16.57 190.081,-22.101 189.779,-23.024 L189.654,-24.741 190.587,-24.125 197.563,-17.241 204.1,-10.219 211.342,3.325 C213.016,7.324 213.272,10.467 212.135,12.798 211.563,12.608 210.979,12.195 210.312,11.541z M103.934,61.988 C101.312,62.347 96.234,63.951 88.587,66.807 80.371,69.877 75.078,72.009 72.64,73.186 L70.124,68.229 69.608,67.834 71.303,66.971 C85.349,56.899 93.909,50.225 96.939,46.974 L97.17,48.573 C97.674,51.746 98.479,54.341 99.654,56.376 100.979,58.671 102.432,60.488 104.107,61.888 L103.934,61.988z"/>
                <path id="path1855" fill="#595959" fill-opacity="1" d="M198.204,6.869 L204.033,15.166 205.319,18.292 210.876,15.718 209.868,14.972 C207.266,12.664 202.739,5.925 196.314,-5.204 190.989,-14.427 187.959,-20.876 187.248,-24.507 L184.014,-22.409 C184.196,-21.994 184.241,-21.616 184.149,-21.275 L183.703,-19.747 C183.519,-17.966 184.768,-14.703 187.443,-10.07 L198.204,6.869z"/>
                <path id="path1856" fill="#534024" fill-opacity="1" d="M202.577,19.644 L202.664,19.594 202.377,19.297 202.577,19.644z"/>
                <path id="path1857" fill="#775B33" fill-opacity="1" d="M202.577,19.644 L202.377,19.297 C202.177,18.951 202.182,18.659 202.417,18.466 202.695,18.248 202.7,17.956 202.475,17.566 L196.109,8.54 185.136,-8.565 C182.536,-13.069 181.149,-16.771 180.993,-19.741 L180.965,-20.591 179.969,-20.016 C174.469,-16.841 152.183,-2.241 113.11,23.782 L102.847,29.707 102.459,30.335 101.876,30.325 C101.357,30.625 100.593,33.202 99.56,38.013 L98.098,43.88 C98.216,43.985 98.154,44.078 97.87,44.185 97.628,44.267 97.807,45.376 98.405,47.513 L101.774,54.748 105.774,60.175 107.926,61.704 108.021,62.169 113.632,63.086 118.548,64.001 C121.426,62.686 124.835,60.891 128.689,58.666 135.098,54.966 148.529,47.73 168.916,36.941 183.463,29.236 194.674,23.456 202.577,19.644z"/>
                <path id="path1858" fill="#595959" fill-opacity="1" d="M210.312,11.541 C210.979,12.195 211.563,12.608 212.135,12.798 213.272,10.467 213.016,7.324 211.342,3.325 L204.1,-10.219 197.563,-17.241 190.587,-24.125 189.654,-24.741 189.779,-23.024 C190.081,-22.101 193.101,-16.57 198.746,-6.492 L210.312,11.541z"/>
                <path id="path1859" fill="#595959" fill-opacity="1" d="M103.934,61.988 L104.107,61.888 C102.432,60.488 100.979,58.671 99.654,56.376 98.479,54.341 97.674,51.746 97.17,48.573 L96.939,46.974 C93.909,50.225 85.349,56.899 71.303,66.971 L69.608,67.834 70.124,68.229 72.64,73.186 C75.078,72.009 80.371,69.877 88.587,66.807 96.234,63.951 101.312,62.347 103.934,61.988z"/>
              </g>
            </g>
            <g id="Layer.__476">
              <g id="shape550">
                <path id="path1860" fill="#000000" fill-opacity="1" d="M195.012,26.927 L198.446,29.275 198.606,28.951 C198.92,28.597 198.775,26.544 198.187,22.727 L196.956,16.394 C193.005,16.25 190.04,17.615 188.124,20.396 190.225,22.936 192.505,25.084 195.012,26.927z M192.338,19.695 L195.311,18.845 195.598,19.141 195.778,24.753 193.543,22.983 191.4,20.872 C191.455,20.667 191.745,20.268 192.338,19.695z M177.691,36.927 L181.125,39.275 181.285,38.951 C181.6,38.597 181.454,36.544 180.867,32.727 L179.635,26.394 C175.684,26.25 172.72,27.615 170.803,30.396 172.905,32.936 175.184,35.084 177.691,36.927z M176.223,32.983 L174.08,30.872 C174.135,30.667 174.424,30.268 175.017,29.695 L177.99,28.845 178.277,29.141 178.457,34.753 176.223,32.983z M162.315,36.394 C158.364,36.25 155.399,37.615 153.483,40.396 155.584,42.936 157.863,45.084 160.371,46.927 L163.805,49.275 163.965,48.951 C164.279,48.597 164.134,46.544 163.546,42.727 L162.315,36.394z M157.697,39.695 L160.67,38.845 160.956,39.141 161.136,44.753 158.902,42.983 156.759,40.872 C156.814,40.667 157.104,40.268 157.697,39.695z M141.659,28.517 C144.755,28.98 147.919,29.059 151.192,28.728 151.822,25.42 150.655,22.399 147.734,19.639 L142.373,23.254 C139.264,25.569 137.732,26.915 137.691,27.343 L137.599,27.685 C137.221,27.73 138.605,28.028 141.659,28.517z M148.498,26.762 L145.496,26.763 142.672,26.372 146.767,22.565 147.17,22.563 148.677,25.273 148.498,26.762z M158.979,18.517 C162.076,18.98 165.239,19.059 168.512,18.728 169.143,15.42 167.976,12.399 165.055,9.639 L159.694,13.254 C156.585,15.569 155.053,16.915 155.011,17.343 L154.92,17.685 C154.541,17.73 155.926,18.028 158.979,18.517z M165.818,16.762 L162.817,16.763 159.993,16.372 164.088,12.565 164.491,12.563 165.998,15.273 165.818,16.762z M176.3,8.517 C179.397,8.98 182.56,9.059 185.833,8.728 186.463,5.42 185.296,2.399 182.375,-0.361 L177.014,3.254 C173.905,5.569 172.373,6.915 172.332,7.343 L172.24,7.685 C171.862,7.73 173.246,8.028 176.3,8.517z M183.139,6.762 L180.137,6.763 177.314,6.372 181.408,2.565 181.812,2.563 183.318,5.273 183.139,6.762z M174.637,-18.063 C171.625,-20.481 169.92,-21.633 169.481,-21.495 L169.121,-21.518 169.412,-17.414 C169.755,-14.32 170.5,-11.229 171.649,-8.139 175.015,-8.409 177.655,-10.337 179.531,-13.787 178.316,-14.991 176.685,-16.416 174.637,-18.063z M171.678,-16.99 L176.448,-14.028 176.586,-13.588 174.363,-11.439 C173.545,-11.255 173.055,-11.203 172.85,-11.258 L172.093,-14.17 171.678,-16.99z M154.328,1.861 C157.695,1.591 160.334,-0.337 162.21,-3.787 160.996,-4.991 159.364,-6.416 157.317,-8.063 154.304,-10.481 152.6,-11.633 152.16,-11.495 L151.8,-11.518 152.091,-7.414 C152.434,-4.32 153.18,-1.229 154.328,1.861z M159.265,-3.588 L157.042,-1.439 C156.224,-1.255 155.735,-1.203 155.53,-1.258 L154.773,-4.17 154.357,-6.99 159.127,-4.028 159.265,-3.588z M134.48,-1.518 L134.771,2.586 C135.113,5.68 135.859,8.771 137.008,11.861 140.374,11.591 143.014,9.663 144.89,6.213 143.675,5.009 142.044,3.584 139.996,1.937 136.984,-0.481 135.279,-1.633 134.84,-1.495 L134.48,-1.518z M137.036,3.01 L141.806,5.972 141.945,6.412 139.722,8.561 C138.904,8.745 138.414,8.797 138.209,8.742 L137.452,5.83 137.036,3.01z M130.414,29.639 L125.053,33.254 C121.944,35.569 120.411,36.915 120.37,37.343 L120.278,37.685 124.338,38.517 C127.435,38.98 130.598,39.059 133.871,38.728 134.502,35.42 133.335,32.399 130.414,29.639z M129.85,32.563 L131.357,35.273 C131.36,36.079 131.3,36.575 131.177,36.762 L128.175,36.763 125.352,36.372 129.447,32.565 129.85,32.563z M119.687,21.861 C123.053,21.591 125.693,19.663 127.569,16.213 126.355,15.009 124.723,13.584 122.676,11.937 119.663,9.519 117.959,8.367 117.519,8.505 L117.159,8.482 117.45,12.586 C117.793,15.68 118.538,18.771 119.687,21.861z M124.624,16.412 L122.401,18.561 C121.583,18.745 121.094,18.797 120.889,18.742 L120.132,15.83 119.716,13.01 124.486,15.972 124.624,16.412z M100.198,18.505 L99.839,18.482 100.13,22.586 C100.472,25.68 101.218,28.771 102.367,31.861 105.733,31.591 108.373,29.663 110.249,26.213 109.034,25.009 107.403,23.584 105.355,21.937 102.343,19.519 100.638,18.367 100.198,18.505z M107.304,26.412 L105.081,28.561 C104.263,28.745 103.773,28.797 103.568,28.742 L102.811,25.83 102.395,23.01 107.165,25.972 107.304,26.412z M103.049,47.343 L102.958,47.685 107.018,48.517 C110.114,48.98 113.278,49.059 116.551,48.728 117.181,45.42 116.014,42.399 113.093,39.639 L107.732,43.254 C104.623,45.569 103.091,46.915 103.049,47.343z M112.126,42.565 L112.529,42.563 114.036,45.273 C114.04,46.079 113.98,46.575 113.857,46.762 L110.855,46.763 108.031,46.372 112.126,42.565z M143.05,56.927 L146.484,59.275 146.644,58.951 C146.959,58.597 146.813,56.544 146.226,52.727 L144.994,46.394 C141.043,46.25 138.078,47.615 136.162,50.396 138.263,52.936 140.543,55.084 143.05,56.927z M141.582,52.983 L139.439,50.872 C139.494,50.667 139.783,50.268 140.376,49.695 L143.349,48.845 143.636,49.141 143.816,54.753 141.582,52.983z M129.164,69.275 L129.323,68.951 C129.638,68.597 129.493,66.544 128.905,62.727 L127.674,56.394 C123.723,56.25 120.758,57.615 118.842,60.396 120.943,62.936 123.222,65.084 125.73,66.927 L129.164,69.275z M126.315,59.141 L126.495,64.753 124.261,62.983 122.118,60.872 C122.173,60.667 122.463,60.268 123.056,59.695 L126.029,58.845 126.315,59.141z"/>
                <path id="path1861" fill="#595959" fill-opacity="1" d="M192.338,19.695 C191.745,20.268 191.455,20.667 191.4,20.872 L193.543,22.983 195.778,24.753 195.598,19.141 195.311,18.845 192.338,19.695z"/>
                <path id="path1862" fill="#595959" fill-opacity="1" d="M176.223,32.983 L178.457,34.753 178.277,29.141 177.99,28.845 175.017,29.695 C174.424,30.268 174.135,30.667 174.08,30.872 L176.223,32.983z"/>
                <path id="path1863" fill="#595959" fill-opacity="1" d="M157.697,39.695 C157.104,40.268 156.814,40.667 156.759,40.872 L158.902,42.983 161.136,44.753 160.956,39.141 160.67,38.845 157.697,39.695z"/>
                <path id="path1864" fill="#595959" fill-opacity="1" d="M148.498,26.762 L148.677,25.273 147.17,22.563 146.767,22.565 142.672,26.372 145.496,26.763 148.498,26.762z"/>
                <path id="path1865" fill="#595959" fill-opacity="1" d="M165.818,16.762 L165.998,15.273 164.491,12.563 164.088,12.565 159.993,16.372 162.817,16.763 165.818,16.762z"/>
                <path id="path1866" fill="#595959" fill-opacity="1" d="M183.139,6.762 L183.318,5.273 181.812,2.563 181.408,2.565 177.314,6.372 180.137,6.763 183.139,6.762z"/>
                <path id="path1867" fill="#595959" fill-opacity="1" d="M171.678,-16.99 L172.093,-14.17 172.85,-11.258 C173.055,-11.203 173.545,-11.255 174.363,-11.439 L176.586,-13.588 176.448,-14.028 171.678,-16.99z"/>
                <path id="path1868" fill="#595959" fill-opacity="1" d="M159.265,-3.588 L159.127,-4.028 154.357,-6.99 154.773,-4.17 155.53,-1.258 C155.735,-1.203 156.224,-1.255 157.042,-1.439 L159.265,-3.588z"/>
                <path id="path1869" fill="#595959" fill-opacity="1" d="M137.036,3.01 L137.452,5.83 138.209,8.742 C138.414,8.797 138.904,8.745 139.722,8.561 L141.945,6.412 141.806,5.972 137.036,3.01z"/>
                <path id="path1870" fill="#595959" fill-opacity="1" d="M129.85,32.563 L129.447,32.565 125.352,36.372 128.175,36.763 131.177,36.762 C131.3,36.575 131.36,36.079 131.357,35.273 L129.85,32.563z"/>
                <path id="path1871" fill="#595959" fill-opacity="1" d="M124.624,16.412 L124.486,15.972 119.716,13.01 120.132,15.83 120.889,18.742 C121.094,18.797 121.583,18.745 122.401,18.561 L124.624,16.412z"/>
                <path id="path1872" fill="#595959" fill-opacity="1" d="M107.304,26.412 L107.165,25.972 102.395,23.01 102.811,25.83 103.568,28.742 C103.773,28.797 104.263,28.745 105.081,28.561 L107.304,26.412z"/>
                <path id="path1873" fill="#595959" fill-opacity="1" d="M112.126,42.565 L108.031,46.372 110.855,46.763 113.857,46.762 C113.98,46.575 114.04,46.079 114.036,45.273 L112.529,42.563 112.126,42.565z"/>
                <path id="path1874" fill="#595959" fill-opacity="1" d="M141.582,52.983 L143.816,54.753 143.636,49.141 143.349,48.845 140.376,49.695 C139.783,50.268 139.494,50.667 139.439,50.872 L141.582,52.983z"/>
                <path id="path1875" fill="#595959" fill-opacity="1" d="M126.315,59.141 L126.029,58.845 123.056,59.695 C122.463,60.268 122.173,60.667 122.118,60.872 L124.261,62.983 126.495,64.753 126.315,59.141z"/>
              </g>
            </g>
          </g>
        </g>
      </g>
    </g>
  </g>
</svg>