<?xml version="1.0" encoding="utf-8"?>
<!-- Generator: flash2svg, http://dissentgraphics.com/tools/flash2svg -->
<svg xmlns:xlink="http://www.w3.org/1999/xlink" id="sprite.__201571.__20(Items).__2F131" image-rendering="optimizeSpeed" baseProfile="basic" version="1.1" style="background-color:#ffffff" x="0px" y="0px" width="550px" height="400px" viewBox="0 0 550 400" enable-background="new 0 0 550 400" xmlns="http://www.w3.org/2000/svg">
  <defs transform="matrix(1 0 0 1 0 0) "/>
  <g id="sprite.__201571.__20(Items).__2F131">
    <g id="Layer.__202">
      <g id="Graphic.__2Fshape.__201518_1" overflow="visible">
        <g id="Layer.__263">
          <g id="shape249">
            <path id="path540" fill="#000000" fill-opacity="1" d="M147.65,47.65 C146.95,45.65 146.05,44.25 145,43.45 146.65,41.9 147.05,39.75 146.15,37.1 145.2,34.35 144.45,32.65 143.9,32.05 143.55,31.7 142.95,31.65 142.2,31.9 141.75,32.05 141.55,32.55 141.6,33.5 138.55,33.15 127.45,35.95 108.2,41.9 97,45.35 85.7,49 74.3,52.9 L73.35,53.5 73,53.95 71.6,53.85 C70.5,54.2 70.4,55.7 71.35,58.35 L72.5,61.65 71.9,61.9 C68.7,63.05 66.75,63.8 66.1,64.25 65.05,64.85 64.55,65.65 64.65,66.6 64.7,67.2 65.25,68.7 66.25,71.15 67.5,74.3 68.55,77.25 69.4,80.1 L74.6,97.6 85.75,129.85 C85.95,131.4 86.45,132.85 87.3,134.15 88.95,136.7 91.35,137.45 94.5,136.3 97.25,135.3 98.9,134.5 99.5,133.95 99.85,133.6 99.85,133.05 99.6,132.3 L99.05,131.8 99.25,131.75 C101.8,130.7 104.2,129.45 106.45,127.95 108.7,126.4 110.3,124.9 111.25,123.45 L111.35,123.4 C123.8,111.6 131,103.7 132.95,99.7 L133.1,99.65 C133.35,99.55 135.95,95.05 141,86.15 146.1,77 148.5,72.05 148.25,71.2 147.9,70.25 147.4,69.7 146.7,69.65 148.5,58.45 148.8,51.1 147.65,47.65z M142,45.9 C143.55,50.35 144.35,53.65 144.5,55.8 144.6,57.9 144.25,62.35 143.4,69.2 L108.15,64.9 84.3,62.75 89.5,61.2 107.1,56.25 139.55,45.75 141.8,45.2 142,45.9z M143.15,40.55 L132.25,44.25 C123,46.7 114.7,49.4 107.25,52.25 103.8,53.6 95.2,56 81.4,59.45 79.4,60.1 78,60.8 77.15,61.45 L74.8,56.35 C76.85,56.5 80.7,55.65 86.3,53.8 L105.7,46.7 C122.5,42.05 133.6,38.8 139,36.95 140.35,36.7 141.3,36.3 141.9,35.85 142.15,37.1 142.55,38.7 143.15,40.55z M85.2,67.25 L91.35,67.7 111.35,68.75 C127.6,71.5 138.2,73 143.2,73.2 L139.7,79.35 C136.25,85.6 133.5,90.95 131.45,95.4 119.7,89.45 110.95,84.65 105.15,80.95 L89.8,70.2 85.2,67.25z M93.75,98.45 C100.2,109.45 104.9,116.55 107.8,119.7 L105.65,122.05 C103.55,124.4 100.9,126.45 97.7,128.2 96.7,122.95 93.8,113.05 89,98.45 L81.75,77 C84.4,82.15 88.4,89.3 93.75,98.45z M84.6,75.3 L82.35,71.05 C88.45,75.5 94.75,79.9 101.3,84.25 113.75,92.45 122.7,97.4 128.15,99.15 L111.55,118.75 111.1,118.1 96.1,95.35 C93.2,91.1 89.35,84.45 84.6,75.3z M68.9,67.75 L73.95,65.3 C73.8,67.4 74.75,71.25 76.7,76.8 L84.15,96 C89.1,112.75 92.55,123.85 94.5,129.2 94.75,130.5 95.15,131.45 95.65,132.05 L90.95,133.35 87.05,122.5 C84.4,113.35 81.6,105.05 78.65,97.7 77.25,94.3 74.7,85.75 70.95,72 70.2,70 69.55,68.6 68.9,67.75z"/>
            <path id="path541" fill="#E6E6E6" fill-opacity="1" d="M142,45.9 L141.8,45.2 139.55,45.75 107.1,56.25 89.5,61.2 84.3,62.75 108.15,64.9 143.4,69.2 C144.25,62.35 144.6,57.9 144.5,55.8 144.35,53.65 143.55,50.35 142,45.9z"/>
            <path id="path542" fill="#885100" fill-opacity="1" d="M143.15,40.55 C142.55,38.7 142.15,37.1 141.9,35.85 141.3,36.3 140.35,36.7 139,36.95 133.6,38.8 122.5,42.05 105.7,46.7 L86.3,53.8 C80.7,55.65 76.85,56.5 74.8,56.35 L77.15,61.45 C78,60.8 79.4,60.1 81.4,59.45 95.2,56 103.8,53.6 107.25,52.25 114.7,49.4 123,46.7 132.25,44.25 L143.15,40.55z"/>
            <path id="path543" fill="#D9D9D9" fill-opacity="1" d="M85.2,67.25 L89.8,70.2 105.15,80.95 C110.95,84.65 119.7,89.45 131.45,95.4 133.5,90.95 136.25,85.6 139.7,79.35 L143.2,73.2 C138.2,73 127.6,71.5 111.35,68.75 L91.35,67.7 85.2,67.25z"/>
            <path id="path544" fill="#BBBBBB" fill-opacity="1" d="M93.75,98.45 C88.4,89.3 84.4,82.15 81.75,77 L89,98.45 C93.8,113.05 96.7,122.95 97.7,128.2 100.9,126.45 103.55,124.4 105.65,122.05 L107.8,119.7 C104.9,116.55 100.2,109.45 93.75,98.45z"/>
            <path id="path545" fill="#CCCCCC" fill-opacity="1" d="M84.6,75.3 C89.35,84.45 93.2,91.1 96.1,95.35 L111.1,118.1 111.55,118.75 128.15,99.15 C122.7,97.4 113.75,92.45 101.3,84.25 94.75,79.9 88.45,75.5 82.35,71.05 L84.6,75.3z"/>
            <path id="path546" fill="#885100" fill-opacity="1" d="M68.9,67.75 C69.55,68.6 70.2,70 70.95,72 74.7,85.75 77.25,94.3 78.65,97.7 81.6,105.05 84.4,113.35 87.05,122.5 L90.95,133.35 95.65,132.05 C95.15,131.45 94.75,130.5 94.5,129.2 92.55,123.85 89.1,112.75 84.15,96 L76.7,76.8 C74.75,71.25 73.8,67.4 73.95,65.3 L68.9,67.75z"/>
          </g>
        </g>
      </g>
    </g>
  </g>
</svg>