<?xml version="1.0" encoding="utf-8"?>
<!-- Generator: flash2svg, http://dissentgraphics.com/tools/flash2svg -->
<svg xmlns:xlink="http://www.w3.org/1999/xlink" id="sprite.__201571.__20(Items).__2F28" image-rendering="optimizeSpeed" baseProfile="basic" version="1.1" style="background-color:#ffffff" x="0px" y="0px" width="550px" height="400px" viewBox="0 0 550 400" enable-background="new 0 0 550 400" xmlns="http://www.w3.org/2000/svg">
  <defs>
    <symbol id="Graphic.__2Fshape.__201268" viewBox="68.2 14.6 51.60000000000001 68.4">
      <g id="Layer.__282">
        <g id="shape650" transform="matrix(1 0 0 1 68.2 14.6)">
          <path id="path591" transform="matrix(1 0 0 1 -68.199 -14.599)" fill="#000000" fill-opacity="1" d="M109.2,18.6 Q108.75,18.6 105.15,20.7 C102.6,22.15 100.9,23 100,23.2 99.75,22.95 99.05,21.2 98,18.05 97.25,15.75 95.75,14.6 93.6,14.6 91.2,14.6 89.2,16.25 87.6,19.6 86.4,22.15 85.8,24.35 85.8,26.2 L86.8,34.3 C87.05,35.7 87.3,36.9 87.6,37.95 83.25,38.9 78.8,45.2 74.25,56.85 71.75,63.2 69.75,69.55 68.2,76 L68.2,79.6 C68.65,81.85 70.05,83 72.4,83 80.05,83 88.1,77.6 96.6,66.8 99.8,62.75 102.5,58.55 104.7,54.3 106.15,51.5 107.1,49.25 107.55,47.6 L109.2,47.8 C116.25,41.95 119.8,38.05 119.8,36.1 119.8,35.45 119.45,34.9 118.7,34.45 L116.3,33.4 C113.9,32.35 112.65,30.55 112.6,28 113.05,25.75 113.3,23.95 113.25,22.55 113.15,19.9 111.8,18.6 109.2,18.6z M89.4,44.6 L98.3,45.85 C100.1,46.35 101,47.05 101,48 101,49.55 97.85,54.05 91.5,61.45 84.55,69.6 78.9,74.35 74.6,75.6 L74.2,74.8 C75.25,69.9 77.75,63.65 81.65,56.05 85.5,48.55 88.05,44.8 89.4,44.8 L89.4,44.6zM93.4,37.4 C92.35,31.55 91.8,27.95 91.8,26.6 L92.6,23.2 94.75,28.45 C96.2,31.2 97.95,32.6 100,32.6 101.55,32.6 102.8,31.75 103.8,30 105.1,27.7 105.9,26.45 106.2,26.2 L106.6,26.6 C107,27.25 107.1,28.15 106.85,29.3 L106.25,32.05 C106.1,34.2 108.2,35.8 112.6,36.8 L112.2,37.2 107.9,41.45 C107,42.3 106.4,43.05 106.1,43.8 102.95,40.65 98.75,38.75 93.4,38.1 L93.4,37.4z"/>
          <path id="path592" transform="matrix(1 0 0 1 -68.199 -14.599)" fill="#FF9F11" fill-opacity="1" d="M89.4,44.6 L89.4,44.8 C88.05,44.8 85.5,48.55 81.65,56.05 77.75,63.65 75.25,69.9 74.2,74.8 L74.6,75.6 C78.9,74.35 84.55,69.6 91.5,61.45 97.85,54.05 101,49.55 101,48 101,47.05 100.1,46.35 98.3,45.85 L89.4,44.6z "/>
          <path id="path595" transform="matrix(1 0 0 1 -68.199 -14.599)" fill="#00BB00" fill-opacity="1" d="M93.4,37.4 L93.4,38.1 C98.75,38.75 102.95,40.65 106.1,43.8 106.4,43.05 107,42.3 107.9,41.45 L112.2,37.2 112.6,36.8 C108.2,35.8 106.1,34.2 106.25,32.05 L106.85,29.3 C107.1,28.15 107,27.25 106.6,26.6 L106.2,26.2 C105.9,26.45 105.1,27.7 103.8,30 102.8,31.75 101.55,32.6 100,32.6 97.95,32.6 96.2,31.2 94.75,28.45 L92.6,23.2 91.8,26.6 C91.8,27.95 92.35,31.55 93.4,37.4z "/>
        </g>
      </g>
    </symbol>
  </defs>
  <g id="sprite.__201571.__20(Items).__2F28">
    <g id="Layer.__229">
      <use xlink:href="#Graphic.__2Fshape.__201268" id="Graphic.__2Fshape.__201269" width="51.60000000000001" height="68.4" x="68.2" y="14.6" transform="matrix(1 0 0 1 0 0)" overflow="visible"/>
    </g>
  </g>
</svg>