<?xml version="1.0" encoding="utf-8"?>
<!-- Generator: flash2svg, http://dissentgraphics.com/tools/flash2svg -->
<svg xmlns:xlink="http://www.w3.org/1999/xlink" id="sprite.__201571.__20(Items).__2F37" image-rendering="optimizeSpeed" baseProfile="basic" version="1.1" style="background-color:#ffffff" x="0px" y="0px" width="550px" height="400px" viewBox="0 0 550 400" enable-background="new 0 0 550 400" xmlns="http://www.w3.org/2000/svg">
  <defs>
    <symbol id="Graphic.__2Fshape.__201282" viewBox="-34.3 -42.1 68.6 84.25">
      <g id="Layer.__291">
        <g id="shape831" transform="matrix(1 0 0 1 -34.299 -42.099)">
          <path id="path757" transform="matrix(1 0 0 1 34.25 42.05)" fill="#FCF2E0" fill-opacity="1" d="M23.05,-29.6 Q23.4,-32.65 22.25,-34.85 C20.7,-37.7 16.9,-39.1 10.75,-39.1 8.6,-39.1 7.1,-38.8 6.15,-38.2 5.2,-37.65 4.6,-37.35 4.25,-37.35 L0.45,-39.7 C-1.9,-41.3 -4.3,-42.1 -6.75,-42.1 -9.6,-42.1 -11.75,-41.1 -13.1,-39.15 -14.05,-37.1 -14.75,-36 -15.25,-35.9 -21.2,-34.6 -24.9,-33.5 -26.3,-32.65 -27.05,-32.2 -27.45,-31.25 -27.45,-29.8 -27.45,-26.3 -26.05,-23.25 -23.3,-20.7 L-22.95,-20.4 C-20.9,-18.65 -18.2,-17 -14.8,-15.45 -9.55,-13.05 -4.25,-11.85 1,-11.85 9.1,-11.85 16.05,-12.6 21.8,-14.1 L23.7,-14.65 25.8,-15.35 27,-15.85 C31.85,-17.8 34.3,-19.5 34.3,-21.05 34.3,-22.1 33.85,-22.9 32.9,-23.4 L29.6,-24.4 C26.15,-25.25 23.95,-26.95 23.05,-29.6z "/>
          <path id="path758" transform="matrix(1 0 0 1 34.25 42.05)" fill="#B08113" fill-opacity="1" d="M15.5,-11.85 C9.15,-9.85 4.75,-8.85 2.25,-8.85 -4,-8.85 -10.15,-10.3 -16.2,-13.2 -18.3,-14.2 -20,-15.1 -21.25,-15.95 -20.6,-11.9 -20.4,-4.45 -20.7,6.35 -20.45,16.3 -20.6,23.1 -21.15,26.65 L-20.3,27.8 C-19.05,29.75 -18,31.15 -17.1,32.05 L-15.75,33.2 -15.95,16.6 -15.95,7.1 C-15.75,1.3 -15.1,-1.6 -14,-1.6 -12.4,-1.6 -11.8,4.4 -12.2,16.45 -11.85,27.8 -12.35,33.85 -13.7,34.6 -10.25,36.55 -5.7,37.7 0,38.05 -0.7,33.95 -1.2,25.05 -1.45,11.35 L-1.4,7.85 C-1.2,6.2 -0.55,5.4 0.5,5.4 2.55,5.4 3.35,12.9 2.8,27.85 3.05,32.6 2.95,36.05 2.55,38.15 L3.9,38.15 C8,38.15 11.4,37.85 14.1,37.2 13.55,35.8 13.2,32.85 13.05,28.4 L13.05,18.45 C12.95,14.65 12.95,11.15 13.05,7.9 13.25,1.55 13.9,-1.6 15,-1.6 16.55,-1.6 17.15,5.05 16.8,18.35 17.05,27.9 16.85,34 16.1,36.65 17.65,36.1 18.85,35.4 19.8,34.55 L21.8,32.05 22.1,31.75 C22.15,23.35 22.3,15.15 22.55,7.1 22.85,-3.5 23.25,-10.75 23.7,-14.65 L21.8,-14.1 C20.25,-13.45 18.15,-12.7 15.5,-11.85z "/>
          <path id="path759" transform="matrix(1 0 0 1 34.25 42.05)" fill="#000000" fill-opacity="1" d="M2.25,-8.85 C4.75,-8.85 9.15,-9.85 15.5,-11.85 18.15,-12.7 20.25,-13.45 21.8,-14.1 16.05,-12.6 9.1,-11.85 1,-11.85 -4.25,-11.85 -9.55,-13.05 -14.8,-15.45 -18.2,-17 -20.9,-18.65 -22.95,-20.4 L-23.3,-20.7 C-23.65,-20.45 -23.85,-20 -23.9,-19.4 -24.6,-19.05 -24.95,-18.3 -24.95,-17.05 L-24.85,-12.5 -25.75,-12.6 C-30.3,-12.6 -33.05,-10 -33.95,-4.85 -34.4,-2.2 -34.4,0.7 -33.95,3.95 L-34.15,6.55 C-34.25,8.6 -34.2,10.45 -33.95,12.1 -33.15,17.45 -30.75,20.15 -26.75,20.15 L-24.4,19.85 -24.25,27.05 -24.45,28.2 -24.25,29.05 -24.25,29.1 -24.2,29.15 -23.3,30.8 C-22.25,32.55 -20.8,34.1 -18.95,35.55 -13.4,39.95 -5.6,42.15 4.5,42.15 11.25,42.15 16.75,40.9 21,38.4 24.2,36.45 25.8,34.65 25.8,33 L25.65,32.05 C26.4,28.25 26.65,20.3 26.3,8.2 26.65,-3.7 26.45,-11.55 25.8,-15.35 L23.7,-14.65 C23.25,-10.75 22.85,-3.5 22.55,7.1 22.3,15.15 22.15,23.35 22.1,31.75 L21.8,32.05 19.8,34.55 C18.85,35.4 17.65,36.1 16.1,36.65 16.85,34 17.05,27.9 16.8,18.35 17.15,5.05 16.55,-1.6 15,-1.6 13.9,-1.6 13.25,1.55 13.05,7.9 12.95,11.15 12.95,14.65 13.05,18.45 L13.05,28.4 C13.2,32.85 13.55,35.8 14.1,37.2 11.4,37.85 8,38.15 3.9,38.15 L2.55,38.15 C2.95,36.05 3.05,32.6 2.8,27.85 3.35,12.9 2.55,5.4 0.5,5.4 -0.55,5.4 -1.2,6.2 -1.4,7.85 L-1.45,11.35 C-1.2,25.05 -0.7,33.95 0,38.05 -5.7,37.7 -10.25,36.55 -13.7,34.6 -12.35,33.85 -11.85,27.8 -12.2,16.45 -11.8,4.4 -12.4,-1.6 -14,-1.6 -15.1,-1.6 -15.75,1.3 -15.95,7.1 L-15.95,16.6 -15.75,33.2 -17.1,32.05 C-18,31.15 -19.05,29.75 -20.3,27.8 L-21.15,26.65 C-20.6,23.1 -20.45,16.3 -20.7,6.35 -20.4,-4.45 -20.6,-11.9 -21.25,-15.95 -20,-15.1 -18.3,-14.2 -16.2,-13.2 -10.15,-10.3 -4,-8.85 2.25,-8.85z M-24.8,-9.05 L-24.45,16.65 -26.55,15.4 C-28.85,14.25 -30.05,12.9 -30.2,11.35 L-30.2,-3.65 C-30.2,-5.5 -29.05,-6.95 -26.7,-8.1 L-24.8,-9.05z"/>
        </g>
      </g>
    </symbol>
  </defs>
  <g id="sprite.__201571.__20(Items).__2F37">
    <g id="Layer.__239">
      <use xlink:href="#Graphic.__2Fshape.__201282" id="Graphic.__2Fshape.__201283" width="68.6" height="84.25" x="-34.3" y="-42.1" transform="matrix(1 0 0 1 108 66.15)" overflow="visible"/>
    </g>
  </g>
</svg>