<?xml version="1.0" encoding="utf-8"?>
<!-- Generator: flash2svg, http://dissentgraphics.com/tools/flash2svg -->
<svg xmlns:xlink="http://www.w3.org/1999/xlink" id="sprite.__201571.__20(Items).__2F49" image-rendering="optimizeSpeed" baseProfile="basic" version="1.1" style="background-color:#ffffff" x="0px" y="0px" width="550px" height="400px" viewBox="0 0 550 400" enable-background="new 0 0 550 400" xmlns="http://www.w3.org/2000/svg">
  <defs>
    <symbol id="MovieClip.__2Fsprite.__201239" viewBox="-74.15 -56.15 145.45 126">
      <g id="Layer.__304">
        <use xlink:href="#Graphic.__2Fshape.__201316" id="Graphic.__2Fshape.__201317" width="145.45000000000002" height="126" x="-74.15" y="-56.15" transform="matrix(1 0 0 1 0 0)" overflow="visible"/>
      </g>
    </symbol>
    <symbol id="Graphic.__2Fshape.__201316" viewBox="-74.15 -56.15 145.45000000000002 126">
      <g id="Layer.__317">
        <g id="shape1197" transform="matrix(1 0 0 1 -58.749 -56.149)">
          <path id="path1088" transform="matrix(1 0 0 1 58.7 56.1)" fill="#000000" fill-opacity="1" d="M71.3,-50.35 Q71.15,-51.55 69.3,-53.9 C67.2,-56.65 64.65,-56.9 61.7,-54.6 60.6,-53.65 59.65,-52.65 58.85,-51.55 L57.9,-50.2 C57,-51.15 56.25,-51.35 55.6,-50.8 L54.95,-50.05 C54.9,-49.3 55.25,-48.4 56.05,-47.4 L56.35,-47 53.35,-45.25 53.05,-45.9 51.7,-47.3 C51.1,-47.7 50.5,-47.7 49.95,-47.3 L49.3,-46.6 C49.2,-45.75 49.55,-44.8 50.3,-43.75 L50.55,-43.55 C43.45,-39.15 35.75,-33.9 27.5,-27.85 L19.15,-21.5 19.05,-21.65 C15.15,-27.35 9.7,-29.55 2.7,-28.25 -1.95,-27.35 -6.3,-25.35 -10.35,-22.2 -13.65,-19.65 -15.9,-17.6 -17.15,-16.1 -18.65,-14.25 -19.1,-12.3 -18.45,-10.2 -17.9,-8.25 -18.65,-6.55 -20.7,-5 -22.8,-3.35 -25.55,-2.85 -28.95,-3.5 L-31.15,-3.95 C-36.5,-2.5 -40.55,-1.25 -43.25,-0.2 -47.1,1.3 -49.8,2.65 -51.45,3.9 -52.05,4.35 -52.9,5.4 -53.95,6.95 -55.55,9.3 -56.75,11.75 -57.6,14.3 -60.15,22.45 -58.5,30.3 -52.6,37.85 -44.05,48.85 -36.55,53.85 -30,52.9 -27.85,52.55 -25.75,51.55 -23.75,49.9 L-20,46.4 C-17.2,44.25 -15.2,42.6 -14.05,41.55 L-3.8,24.2 C-2.65,22.45 -1.5,21.2 -0.45,20.35 1,19.2 4.2,18.3 9.05,17.65 13.85,17 17.9,15.35 21.2,12.8 24.25,10.4 26.7,7.7 28.45,4.7 31.75,-1.25 31.35,-6.8 27.3,-12.05 L26.1,-13.2 32.05,-18.15 52.55,-33.7 55.5,-36.15 55.75,-35.8 C56.8,-34.35 57.8,-34.05 58.75,-34.8 59.6,-35.45 59.85,-35.75 59.5,-35.75 L58.4,-37.85 58.1,-38.2 60.55,-40.4 60.9,-39.85 C61.55,-39 62.2,-38.45 62.85,-38.15 L64,-38.85 C64.8,-39.5 65,-39.85 64.65,-39.85 L63.65,-41.9 63.25,-42.4 71.05,-48.45 71.3,-50.35z M65.45,-52.35 C66.3,-52.1 67.1,-51.45 67.75,-50.35 L63.9,-47.5 C63.35,-47.15 62.95,-46.7 62.6,-46.25 L61.55,-47.7 62.2,-49.25 C62.7,-50.7 63.2,-51.6 63.75,-52.05 64.2,-52.4 64.8,-52.5 65.45,-52.35zM16.65,-19.5 L-5.8,-2.2 -8.45,0.2 C-8.8,0.25 -9.2,0.4 -9.55,0.65 L-10.4,1.3 C-10.45,1.9 -10.05,2.9 -9.15,4.35 L-39.8,28.15 -41.2,27.2 C-44.95,22.35 -48.35,17.45 -51.35,12.6 -51.9,11.8 -52.25,11.4 -52.5,11.4 L-51.7,9.8 C-50.8,8.1 -50,7 -49.3,6.45 L-33.05,0.45 -32.55,0 C-29.95,1.55 -27.45,2.05 -25,1.45 -23.45,1.1 -21.2,-0.25 -18.25,-2.55 -16.3,-4.1 -15,-5.5 -14.45,-6.85 -14.2,-7.6 -14.05,-8.8 -14.05,-10.4 -14.1,-13.5 -12.25,-16.5 -8.5,-19.35 -6.45,-20.9 -5.05,-21.9 -4.25,-22.25 L2.35,-23.5 C6.6,-23.95 10.7,-23.05 14.65,-20.8 L16.65,-19.5zM11,-4.75 L7.55,-2.05 0.65,3.3 -2.95,6 -3.1,6.15 -3.8,5.1 27.45,-19 61.4,-45.5 61.8,-45.05 61.45,-44.25 C59.35,-43.1 55.9,-40.75 51.05,-37.2 L38.3,-27.3 18.05,-11.6 11,-4.75zM23.35,-10.75 C25.6,-4.9 26.2,-0.35 25.25,2.95 24.55,5.15 22.6,7.5 19.35,10 16.5,12.25 12.75,13.6 8.15,14.15 3.6,14.7 0.15,15.85 -2.2,17.65 -4.3,19.2 -6.2,20.95 -7.9,22.9 -10.45,25.8 -11.6,28.15 -11.3,30 -12.15,31.05 -13.2,32.75 -14.45,35.1 -16.4,38.5 -19,41.5 -22.25,44.05 L-25.25,46.85 C-26.95,48.2 -28.65,49 -30.4,49.15 -33.95,49.5 -37.95,47.7 -42.4,43.75 L-41.7,43.8 -41,43.45 C-38.75,41.7 -37.2,40.25 -36.45,39.15 -35.1,37.1 -34.8,34.95 -35.45,32.8 L-20.35,21.2 C-12.6,15.25 -7.65,11.3 -5.55,9.35 L-5.35,9.55 -5.15,9.4 C-3.8,10.75 -2.55,11.4 -1.5,11.35 -1,11.4 -0.05,10.85 1.35,9.75 4.7,7.15 9.55,2.7 15.9,-3.65 L23.35,-10.75zM59.15,-45.2 L-4.45,4.15 -5.25,3.05 22.8,-18.6 C30.85,-24.35 37.2,-29.05 41.95,-32.7 L52.55,-40.95 57.95,-45.85 58.1,-45.8 C58.5,-45.35 58.85,-45.15 59.15,-45.2zM60.7,-46.4 L60.3,-46.15 60.65,-46.5 60.7,-46.4zM-6.1,2.05 L-3.8,0.4 -5.9,2.25 -6.1,2.05zM-7.4,7.85 L-6.9,7.45 -6,8.5 -35.9,31.75 -36.85,30.25 -7.75,7.65 -7.4,7.85zM-2.35,7.3 L5,1.5 -0.4,7 -2,7.9 -2.35,7.3zM-7.6,6.6 C-10.95,8.8 -16.15,12.6 -23.1,18 L-31.35,24.4 -35.55,27.55 -37.6,29.25 C-37.85,29.1 -38.2,28.9 -38.65,28.65 -34.85,25.8 -29.85,22 -23.7,17.15 L-8.5,5.25 -7.6,6.6zM-40.2,38.8 C-41.05,39.55 -42.45,40.45 -44.45,41.4 L-43.95,42.2 -44.6,41.6 -49.85,35.55 C-54.2,29.9 -55.65,23.55 -54.2,16.6 L-53.85,15.25 -43.65,30 C-42.55,31.35 -41.65,32.1 -40.95,32.15 L-39.85,31.9 C-38.6,35.25 -38.7,37.55 -40.2,38.8z"/>
          <path id="path1089" transform="matrix(1 0 0 1 58.7 56.1)" fill="#553C00" fill-opacity="1" d="M65.45,-52.35 C64.8,-52.5 64.2,-52.4 63.75,-52.05 63.2,-51.6 62.7,-50.7 62.2,-49.25 L61.55,-47.7 62.6,-46.25 C62.95,-46.7 63.35,-47.15 63.9,-47.5 L67.75,-50.35 C67.1,-51.45 66.3,-52.1 65.45,-52.35z "/>
          <path id="path1092" transform="matrix(1 0 0 1 58.7 56.1)" fill="#A27100" fill-opacity="1" d="M16.65,-19.5 L14.65,-20.8 C10.7,-23.05 6.6,-23.95 2.35,-23.5 L-4.25,-22.25 C-5.05,-21.9 -6.45,-20.9 -8.5,-19.35 -12.25,-16.5 -14.1,-13.5 -14.05,-10.4 -14.05,-8.8 -14.2,-7.6 -14.45,-6.85 -15,-5.5 -16.3,-4.1 -18.25,-2.55 -21.2,-0.25 -23.45,1.1 -25,1.45 -27.45,2.05 -29.95,1.55 -32.55,0 L-33.05,0.45 -49.3,6.45 C-50,7 -50.8,8.1 -51.7,9.8 L-52.5,11.4 C-52.25,11.4 -51.9,11.8 -51.35,12.6 -48.35,17.45 -44.95,22.35 -41.2,27.2 L-39.8,28.15 -9.15,4.35 C-10.05,2.9 -10.45,1.9 -10.4,1.3 L-9.55,0.65 C-9.2,0.4 -8.8,0.25 -8.45,0.2 L-5.8,-2.2 16.65,-19.5z M-21.75,3 C-19.95,1.25 -18.5,1.1 -17.45,2.5 -16.3,4 -17.55,5.8 -21.1,7.9 -23.1,9.5 -24.7,10.35 -25.95,10.5 -26.7,10.65 -27.7,10.45 -28.9,9.95 -31.5,8.9 -34.75,9.45 -38.7,11.6 L-40.35,10.75 C-40.6,9.5 -39.8,8.2 -38,6.85 -36.25,5.5 -35.15,4.8 -34.65,4.8 L-25.25,7 -21.75,3z"/>
          <path id="path1095" transform="matrix(1 0 0 1 58.7 56.1)" fill="#3C2900" fill-opacity="1" d="M-21.75,3 L-25.25,7 -34.65,4.8 C-35.15,4.8 -36.25,5.5 -38,6.85 -39.8,8.2 -40.6,9.5 -40.35,10.75 L-38.7,11.6 C-34.75,9.45 -31.5,8.9 -28.9,9.95 -27.7,10.45 -26.7,10.65 -25.95,10.5 -24.7,10.35 -23.1,9.5 -21.1,7.9 -17.55,5.8 -16.3,4 -17.45,2.5 -18.5,1.1 -19.95,1.25 -21.75,3z "/>
          <path id="path1098" transform="matrix(1 0 0 1 58.7 56.1)" fill="#553C00" fill-opacity="1" d="M11,-4.75 L18.05,-11.6 38.3,-27.3 51.05,-37.2 C55.9,-40.75 59.35,-43.1 61.45,-44.25 L61.8,-45.05 61.4,-45.5 27.45,-19 -3.8,5.1 -3.1,6.15 -2.95,6 0.65,3.3 7.55,-2.05 11,-4.75z "/>
          <path id="path1101" transform="matrix(1 0 0 1 58.7 56.1)" fill="#A27100" fill-opacity="1" d="M23.35,-10.75 L15.9,-3.65 C9.55,2.7 4.7,7.15 1.35,9.75 -0.05,10.85 -1,11.4 -1.5,11.35 -2.55,11.4 -3.8,10.75 -5.15,9.4 L-5.35,9.55 -5.55,9.35 C-7.65,11.3 -12.6,15.25 -20.35,21.2 L-35.45,32.8 C-34.8,34.95 -35.1,37.1 -36.45,39.15 -37.2,40.25 -38.75,41.7 -41,43.45 L-41.7,43.8 -42.4,43.75 C-37.95,47.7 -33.95,49.5 -30.4,49.15 -28.65,49 -26.95,48.2 -25.25,46.85 L-22.25,44.05 C-19,41.5 -16.4,38.5 -14.45,35.1 -13.2,32.75 -12.15,31.05 -11.3,30 -11.6,28.15 -10.45,25.8 -7.9,22.9 -6.2,20.95 -4.3,19.2 -2.2,17.65 0.15,15.85 3.6,14.7 8.15,14.15 12.75,13.6 16.5,12.25 19.35,10 22.6,7.5 24.55,5.15 25.25,2.95 26.2,-0.35 25.6,-4.9 23.35,-10.75z M-6.65,16.4 L-10.2,21.95 C-12.65,26 -13.85,28.9 -13.85,30.75 L-20.6,36 -22.2,35.15 C-22.3,33.7 -21.5,32.4 -19.85,31.25 -18.2,30.05 -17.4,28.7 -17.4,27.25 -17.45,24.2 -15.9,21.45 -12.75,19 L-10,16.95 C-8.35,15.9 -7.25,15.7 -6.65,16.4z"/>
          <path id="path1104" transform="matrix(1 0 0 1 58.7 56.1)" fill="#3C2900" fill-opacity="1" d="M-6.65,16.4 C-7.25,15.7 -8.35,15.9 -10,16.95 L-12.75,19 C-15.9,21.45 -17.45,24.2 -17.4,27.25 -17.4,28.7 -18.2,30.05 -19.85,31.25 -21.5,32.4 -22.3,33.7 -22.2,35.15 L-20.6,36 -13.85,30.75 C-13.85,28.9 -12.65,26 -10.2,21.95 L-6.65,16.4z "/>
          <path id="path1107" transform="matrix(1 0 0 1 58.7 56.1)" fill="#553C00" fill-opacity="1" d="M59.15,-45.2 C58.85,-45.15 58.5,-45.35 58.1,-45.8 L57.95,-45.85 52.55,-40.95 41.95,-32.7 C37.2,-29.05 30.85,-24.35 22.8,-18.6 L-5.25,3.05 -4.45,4.15 59.15,-45.2z "/>
          <path id="path1113" transform="matrix(1 0 0 1 58.7 56.1)" fill="#553C00" fill-opacity="1" d="M-6.1,2.05 L-5.9,2.25 -3.8,0.4 -6.1,2.05z "/>
          <path id="path1116" transform="matrix(1 0 0 1 58.7 56.1)" fill="#A27100" fill-opacity="1" d="M-7.4,7.85 L-7.75,7.65 -36.85,30.25 -35.9,31.75 -6,8.5 -6.9,7.45 -7.4,7.85z "/>
          <path id="path1119" transform="matrix(1 0 0 1 58.7 56.1)" fill="#553C00" fill-opacity="1" d="M-2.35,7.3 L-2,7.9 -0.4,7 5,1.5 -2.35,7.3z "/>
          <path id="path1122" transform="matrix(1 0 0 1 58.7 56.1)" fill="#A27100" fill-opacity="1" d="M-7.6,6.6 L-8.5,5.25 -23.7,17.15 C-29.85,22 -34.85,25.8 -38.65,28.65 -38.2,28.9 -37.85,29.1 -37.6,29.25 L-35.55,27.55 -31.35,24.4 -23.1,18 C-16.15,12.6 -10.95,8.8 -7.6,6.6z "/>
          <path id="path1125" transform="matrix(1 0 0 1 58.7 56.1)" fill="#553C00" fill-opacity="1" d="M-40.2,38.8 C-38.7,37.55 -38.6,35.25 -39.85,31.9 L-40.95,32.15 C-41.65,32.1 -42.55,31.35 -43.65,30 L-53.85,15.25 -54.2,16.6 C-55.65,23.55 -54.2,29.9 -49.85,35.55 L-44.6,41.6 -43.95,42.2 -44.45,41.4 C-42.45,40.45 -41.05,39.55 -40.2,38.8z "/>
        </g>
      </g>
      <g id="Layer.__318">
        <g id="shape1238" transform="matrix(1 0 0 1 -74.149 -44.499)">
          <path id="path1128" transform="matrix(1 0 0 1 74.1 44.45)" fill="#000000" fill-opacity="1" d="M-72.65,-42.65 L-74.15,-40.7 C-74.2,-40.45 -74,-40.15 -73.55,-39.7 L-72.9,-39.15 C-72.55,-39.1 -72.05,-39.25 -71.45,-39.7 -69.1,-36.95 -61.8,-29.7 -49.5,-17.95 L-32.1,-1.05 -29.15,1.9 -27.75,3.15 -9.45,20.85 -6.25,24 -1.5,28.6 -0.75,29.35 8.7,38.45 26.9,56.1 29.9,59.2 32.2,60.95 31.8,61.35 C30.15,63.1 29.65,64.6 30.4,65.9 30.75,66.55 31.35,67.15 32.25,67.7 L34,69.4 C35.45,70.1 37.05,69.55 38.8,67.8 L40.45,66.05 C42.45,67.7 44.4,68.95 46.3,69.85 L46.8,68.6 -68.5,-43.2 C-68.45,-43.55 -68.5,-43.85 -68.7,-44.05 -69.6,-44.95 -70.9,-44.5 -72.65,-42.65z M-69.2,-41.95 C-58.5,-30.55 -39.8,-11.9 -13.05,14.05 L30.85,56.6 33.8,59.5 32.9,60.3 9.5,37.5 -3.75,24.7 -5.9,22.6 -6.75,21.8 -6.75,21.75 C-10.25,18.2 -12.65,16 -13.95,15.05 L-20.35,8.6 C-22.8,6.1 -24.65,4.4 -25.8,3.45 L-48.65,-18.85 C-60.7,-30.7 -68.15,-37.75 -71,-40.1 L-70.1,-40.9 -69.2,-41.95zM39.05,64.8 L35.95,67.8 32.1,64.1 34.9,60.6 37.95,63.75 39.05,64.8z"/>
          <path id="path1132" transform="matrix(1 0 0 1 74.1 44.45)" fill="#553C00" fill-opacity="1" d="M39.05,64.8 L37.95,63.75 34.9,60.6 32.1,64.1 35.95,67.8 39.05,64.8z "/>
        </g>
      </g>
    </symbol>
  </defs>
  <g id="sprite.__201571.__20(Items).__2F49">
    <g id="Layer.__252">
      <use xlink:href="#MovieClip.__2Fsprite.__201239" id="MovieClip.__2Fsprite.__201240" width="145.45" height="126" x="-74.15" y="-56.15" transform="matrix(0.9856414794921875 0.1656646728515625 -0.1656646728515625 0.9856414794921875 182.6 50.5)" overflow="visible"/>
    </g>
  </g>
</svg>