<?xml version="1.0" encoding="utf-8"?>
<!-- Generator: flash2svg, http://dissentgraphics.com/tools/flash2svg -->
<svg xmlns:xlink="http://www.w3.org/1999/xlink" id="sprite.__201571.__20(Items).__2F53" image-rendering="optimizeSpeed" baseProfile="basic" version="1.1" style="background-color:#ffffff" x="0px" y="0px" width="550px" height="400px" viewBox="0 0 550 400" enable-background="new 0 0 550 400" xmlns="http://www.w3.org/2000/svg">
  <defs>
    <symbol id="Graphic.__2Fshape.__201308" viewBox="-24.05 49.5 117.05 41.900000000000006">
      <g id="Layer.__258">
        <g id="shape16" transform="matrix(1 0 0 1 -24.049 49.5)">
          <path id="path14" transform="matrix(1 0 0 1 24 -49.499)" fill="#000000" fill-opacity="1" d="M89.9,84.3 C90.9,82.75 91.7,81.05 92.25,79.1 L92.8,76.3 C93.4,71.95 92.65,67.8 90.5,63.95 88.4,60.2 84.4,55.6 78.45,50.1 L77.55,50.1 74.5,49.6 C70.55,49.05 66.25,50.95 61.6,55.3 L61.45,56.4 C60.25,57.3 59.55,59.7 59.4,63.6 58.75,68.3 59.1,72.9 60.55,77.35 62.9,84.75 67.85,89 75.4,90.05 81.95,90.95 86.75,89.05 89.9,84.3z M78.65,57.3 C77.15,57.45 74.45,58.4 70.5,60.1 67,61.6 64.8,62.7 63.9,63.35 L65.15,58.05 C70.2,57.25 74,56.3 76.55,55.15 L78.65,57.3zM8.7,63.4 C8.25,59.5 7.45,57.15 6.2,56.4 L6,55.35 C1.05,51.3 -3.4,49.65 -7.25,50.45 L-10.25,51.25 -11.2,51.3 C-16.75,57.2 -20.4,62.1 -22.2,65.95 -24.05,69.95 -24.55,74.1 -23.6,78.45 L-22.9,81.15 C-22.25,83.05 -21.35,84.75 -20.2,86.2 -16.75,90.7 -11.8,92.25 -5.3,90.9 2.1,89.3 6.75,84.75 8.6,77.25 9.65,72.65 9.7,68.05 8.7,63.4zM4.25,63.5 C3.3,62.85 1,61.95 -2.55,60.7 -6.6,59.3 -9.4,58.6 -10.9,58.55 L-8.95,56.2 C-6.35,57.15 -2.5,57.85 2.6,58.3 L4.25,63.5z"/>
          <path id="path15" transform="matrix(1 0 0 1 24 -49.499)" fill="#DD0000" fill-opacity="1" d="M87.95,75.9 Q88.8,69.55 82.95,61.95 L72.8,65.95 C69.5,67.2 67.05,67.7 65.4,67.45 63.75,67.2 63.1,66.8 63.35,66.15 L63.2,66.15 C62.65,68.7 62.45,70.9 62.5,72.65 62.75,79.35 67.15,83.3 75.75,84.5 82.9,85.5 87,82.65 87.95,75.9z M5.15,66.25 L5,66.25 C5.3,66.85 4.65,67.35 3,67.7 1.4,68.05 -1.1,67.7 -4.45,66.7 -8.6,65.35 -12.1,64.3 -14.85,63.45 -18.4,68.8 -19.75,73.55 -18.85,77.7 -17.4,84.35 -13.15,86.95 -6.05,85.45 2.45,83.65 6.6,79.4 6.35,72.65 6.25,70.9 5.85,68.75 5.15,66.25z"/>
          <path id="path19" transform="matrix(1 0 0 1 24 -49.499)" fill="#FFFFFF" fill-opacity="1" d="M78.65,57.3 L76.55,55.15 C74,56.3 70.2,57.25 65.15,58.05 L63.9,63.35 C64.8,62.7 67,61.6 70.5,60.1 74.45,58.4 77.15,57.45 78.65,57.3z M5,66.25 L5,65.75 5.15,66.25 5,66.25z"/>
          <path id="path29" transform="matrix(1 0 0 1 24 -49.499)" fill="#FFFFFF" fill-opacity="1" d="M4.25,63.5 L2.6,58.3 C-2.5,57.85 -6.35,57.15 -8.95,56.2 L-10.9,58.55 C-9.4,58.6 -6.6,59.3 -2.55,60.7 1,61.95 3.3,62.85 4.25,63.5z "/>
        </g>
      </g>
    </symbol>
  </defs>
  <g id="sprite.__201571.__20(Items).__2F53">
    <g id="Layer.__205">
      <use xlink:href="#Graphic.__2Fshape.__201308" id="Graphic.__2Fshape.__201309" width="117.05" height="41.900000000000006" x="-24.05" y="49.5" transform="matrix(1 0 0 1 0 0)" overflow="visible"/>
    </g>
  </g>
</svg>