<?xml version="1.0" encoding="utf-8"?>
<!-- Generator: flash2svg, http://dissentgraphics.com/tools/flash2svg -->
<svg xmlns:xlink="http://www.w3.org/1999/xlink" id="sprite.__201571.__20(Items).__2F54" image-rendering="optimizeSpeed" baseProfile="basic" version="1.1" style="background-color:#ffffff" x="0px" y="0px" width="550px" height="400px" viewBox="0 0 550 400" enable-background="new 0 0 550 400" xmlns="http://www.w3.org/2000/svg">
  <defs>
    <symbol id="Graphic.__2Fshape.__201310" viewBox="68.4 33.2 84.25 46.39999999999999">
      <g id="Layer.__259">
        <g id="shape37" transform="matrix(1 0 0 1 68.4 33.2)">
          <path id="path32" transform="matrix(1 0 0 1 -68.399 -33.199)" fill="#000000" fill-opacity="1" d="M135.6,33.2 Q128.75,33.2 124.7,35.65 C122.55,36.1 103.8,47.05 68.4,68.6 68.4,69.45 68.45,69.9 68.6,70.05 L69.2,70.4 70.8,70.8 C72.55,70.8 77.6,68.35 86.05,63.45 L86,65.2 C86,67.3 86.4,69.2 87.25,70.85 88.3,72.9 89,75.4 89.4,78.4 L93.6,78.8 98.3,79.2 101.6,79.6 C105.2,79.6 108.4,78.55 111.2,76.4 113.6,74.55 114.8,72.9 114.8,71.4 L114.75,70.65 C117.3,70.1 120.35,68.3 124,65.25 126.4,63.2 128.1,61.6 129.05,60.4 130.4,60.95 131.4,61.2 132,61.2 145.6,55.85 152.4,52.2 152.4,50.2 153.2,47.95 152.15,46.8 149.2,46.8 L146.85,46.95 146.8,47 146.8,46 C147,43.7 146.65,41.5 145.8,39.4 144.15,35.25 140.75,33.2 135.6,33.2z M115.2,49.2 L118.85,49.1 118.85,50.55 C119.05,51.5 119.4,52.25 119.95,52.7 L118.8,53.7 C116.65,55.65 115.6,56.85 115.6,57.4 115.6,57.9 115.9,58.2 116.5,58.35 L123.8,59.1 122.7,60 C120.6,61.85 119.5,62.8 119.4,62.8 117.25,62.8 116.25,62.95 116.35,63.25 116.55,64.1 115.5,65.05 113.2,66.2 L111.7,64.4 110.4,63.6 C109.85,63.6 109.3,63.9 108.75,64.45 108.05,65.1 107.35,65.55 106.6,65.8 L106.8,65.2 106.7,63.05 106.8,62.8 C105.8,61.3 104.8,60.3 103.75,59.8 103.1,59.5 102.8,59.05 102.8,58.5 102.8,57.3 103.6,55.7 105.2,53.7 106.4,52.2 107.15,51.05 107.45,50.25 L110.25,48.45 C110.7,48.95 112.35,49.2 115.2,49.2zM115.25,45.2 L119.5,42.35 C119.2,43.35 119,44.45 118.9,45.6 L115.25,45.2zM146.8,50.4 L146,50.45 146.5,50.25 146.8,50.4z"/>
          <path id="path33" transform="matrix(1 0 0 1 -68.399 -33.199)" fill="#FBFFCC" fill-opacity="1" d="M138.8,49.2 L139.2,48.8 C139.45,48.55 140,48.4 140.8,48.4 141.45,48.4 141.95,48.6 142.3,48.95 L143,48.7 C142.35,47.3 142,45.35 142,42.85 142.05,41 141.85,39.75 141.5,39.05 141,37.95 139.95,37.4 138.4,37.4 129.05,37.4 123.75,39.7 122.5,44.25 121.95,46.2 122.1,48.45 122.9,50.95 L123.8,51.15 C124.2,51.35 124.4,51.85 124.4,52.7 L124.1,54.3 124.2,54.45 125.95,53.25 C126.9,52.7 127.7,52.4 128.4,52.4 130.6,52.4 131.4,53.75 130.8,56.4 L131.2,56.95 C132.1,56.6 133.05,55.55 134,53.8 134.75,52.4 136.35,52.05 138.8,52.8 L138.8,49.2z M131,57 L130.8,56.4 131.15,56.95 131,57z"/>
          <path id="path43" transform="matrix(1 0 0 1 -68.399 -33.199)" fill="#FDFFE6" fill-opacity="1" d="M130.8,56.4 L131.15,56.95 131.2,56.95 130.8,56.4z "/>
          <path id="path44" transform="matrix(1 0 0 1 -68.399 -33.199)" fill="#FBFFCC" fill-opacity="1" d="M115.2,49.2 C112.35,49.2 110.7,48.95 110.25,48.45 L107.45,50.25 C107.15,51.05 106.4,52.2 105.2,53.7 103.6,55.7 102.8,57.3 102.8,58.5 102.8,59.05 103.1,59.5 103.75,59.8 104.8,60.3 105.8,61.3 106.8,62.8 L106.7,63.05 106.8,65.2 106.6,65.8 C107.35,65.55 108.05,65.1 108.75,64.45 109.3,63.9 109.85,63.6 110.4,63.6 L111.7,64.4 113.2,66.2 C115.5,65.05 116.55,64.1 116.35,63.25 116.25,62.95 117.25,62.8 119.4,62.8 119.5,62.8 120.6,61.85 122.7,60 L123.8,59.1 116.5,58.35 C115.9,58.2 115.6,57.9 115.6,57.4 115.6,56.85 116.65,55.65 118.8,53.7 L119.95,52.7 C119.4,52.25 119.05,51.5 118.85,50.55 L118.85,49.1 115.2,49.2z M110.45,70.85 L110.45,70.8 C106.6,70.65 104.05,70.3 102.8,69.65 101.75,69.1 101.2,68 101.2,66.3 L101.4,64.9 C100.05,64.45 99.15,63.45 98.8,61.95 L98.8,58.5 98.85,55.65 97.7,56.35 92,59.85 91.2,61.65 C90.4,63.25 90,64.35 90,64.9 90,66.35 90.75,67.85 92.3,69.3 93.7,70.65 94.25,72.2 94,74 L94.25,74.35 96.25,72.85 C96.8,72.55 97.5,72.4 98.4,72.4 99.3,72.4 100,72.75 100.55,73.4 L101.8,74.8 C102.45,72.7 103.35,71.6 104.4,71.55 L109.1,72 C109.4,72 109.85,71.6 110.45,70.85zM93.8,74.6 L94,74 94.25,74.35 93.8,74.6z"/>
        </g>
      </g>
    </symbol>
  </defs>
  <g id="sprite.__201571.__20(Items).__2F54">
    <g id="Layer.__206">
      <use xlink:href="#Graphic.__2Fshape.__201310" id="Graphic.__2Fshape.__201311" width="84.25" height="46.39999999999999" x="68.4" y="33.2" transform="matrix(1 0 0 1 0 0)" overflow="visible"/>
    </g>
  </g>
</svg>