<?xml version="1.0" encoding="utf-8"?>
<!-- Generator: flash2svg, http://dissentgraphics.com/tools/flash2svg -->
<svg xmlns:xlink="http://www.w3.org/1999/xlink" id="sprite.__201571.__20(Items).__2F58" image-rendering="optimizeSpeed" baseProfile="basic" version="1.1" style="background-color:#ffffff" x="0px" y="0px" width="550px" height="400px" viewBox="0 0 550 400" enable-background="new 0 0 550 400" xmlns="http://www.w3.org/2000/svg">
  <defs>
    <symbol id="Graphic.__2Fshape.__201318" viewBox="71.3 59.85 98.25000000000001 67.80000000000001">
      <g id="Layer.__263">
        <g id="shape419" transform="matrix(1 0 0 1 71.3 59.85)">
          <path id="path384" transform="matrix(1 0 0 1 -71.299 -59.849)" fill="#000000" fill-opacity="1" d="M163.05,93.65 L162,92.5 161.7,92.15 154.15,87.1 154.6,87.55 C149.95,83.75 145.05,80.45 139.9,77.7 139.85,77.45 140,77.4 140.4,77.6 139.35,76.95 138.75,76.7 138.6,76.8 L130.95,71.75 C111.8,62.25 96.85,58.45 86.2,60.3 79.85,61.35 75.5,64.25 73.2,68.9 L72.3,70.7 C72.05,71.5 72.2,72.15 72.65,72.7 72.3,73.45 72.2,73.65 72.45,73.4 L72.6,74.1 73.6,74.8 C74.9,75.45 76.05,75.75 77.1,75.7 L77.25,75.75 C76.5,76.2 76,76.75 75.7,77.4 76.35,79.95 76.8,81.55 77.05,82.15 L74.55,82.25 74.2,82.5 73.65,82.15 C73.1,81.9 72.7,81.8 72.45,81.9 L72.05,82 C69.45,88.3 73.6,94.15 84.45,99.55 L110.85,110.95 132.85,122.05 C138,124.75 141.3,126.4 142.7,126.95 144.4,127.6 145.9,127.8 147.25,127.55 L153.05,126 160.65,123.7 164.2,122.5 C164,121.6 163.9,120.15 163.85,118.1 L165.05,116.4 164.95,113.55 C165.3,113.6 165.6,113.45 165.8,113.2 L166.45,111.9 167.35,112 167.55,111.7 167.55,111.75 168,111.05 168.25,110.45 169.2,108.65 C169.55,107.85 169.65,106.65 169.4,105.05 169,102.6 167.85,100 165.95,97.25 L165.85,97.15 163.85,94.5 163.05,93.65z M163.95,111.05 L163.8,111.3 162,110.45 C157.85,108.1 151.55,105.7 143,103.25 133.85,100.6 127.15,98.25 122.9,96.15 122.35,95.85 121.7,94.9 120.95,93.35 L120.5,92.45 C122.65,93.65 125.2,94.95 128.1,96.4 132.85,98.75 135.9,100 137.25,100.15 139,100.3 140.5,100.65 141.8,101.15 150.85,104.9 158.45,108.1 164.6,110.75 L164.3,111.15 163.95,111.05zM163.05,114.75 L159.5,112.95 153.65,109.05 153.4,108.05 156.25,109.25 163.15,112.65 163.05,112.85 C162.9,113.3 162.9,113.9 163.05,114.75zM162.4,116.8 L162.2,117.25 C157.4,114.8 153.4,112.6 150.2,110.6 L150.3,110.55 152.95,109.6 C154.65,111.25 157.65,113.15 161.9,115.3 L163.2,115.9 162.4,116.8zM96,83.85 C96.15,84.3 96.6,85.05 97.35,86.05 98.5,87.6 99.85,88.7 101.3,89.45 L106.55,89.05 109.75,90.4 109.55,91.3 C109.4,91.55 109.4,91.75 109.55,91.9 109.95,92.35 112.65,93.8 117.6,96.3 L117.85,96.4 C117.7,96.85 117.7,97.5 117.75,98.3 100.2,89.55 87.65,84.3 80.05,82.65 L78.2,82.3 78.75,81.4 C79,80.9 79.05,80.45 78.95,80 L78.9,80 80.6,79.75 83.2,80.05 85.55,81.15 89.1,82.45 89.7,82.05 90.45,81.6 C91.5,82.6 92.55,83.35 93.6,83.9 L95.7,83.95 96,83.85zM99.1,84.55 L105,88.25 101.6,88.4 C100.15,87.65 98.85,86.6 97.8,85.15 L97.05,83.85 C97.6,83.9 98.3,84.15 99.1,84.55zM89.65,80.85 C89.2,81.3 87.8,81.1 85.35,80.25 81.5,78.8 79.2,78.4 78.55,79.05 L78.15,77.55 79.5,76.9 C81.3,77.65 82.6,78 83.45,77.85 84.5,77.65 86.15,78.1 88.4,79.25 L89.7,80.75 89.65,80.85zM118.85,96.9 C120.6,97.65 121.85,98.05 122.6,98.1 L123.95,98.95 C125.7,99.8 127.55,100.5 129.5,101.15 L128.95,101.75 120.75,99.8 119,98.9 118.85,96.9zM118.05,95.35 C113.55,93.1 111.05,91.55 110.6,90.7 113.35,91.75 115.9,92.35 118.15,92.55 L119.75,95.1 121.1,96.75 118.05,95.35zM101.65,94.25 C110.85,99.2 116.95,102.05 119.95,102.75 L129.15,104.85 C134.95,106.2 138.75,107.35 140.6,108.3 L146.85,112.1 C150.6,114.45 153.65,116.4 156,118.05 158.35,119.7 160.3,120.8 161.85,121.35 159.55,122.25 157.3,122.9 155.05,123.3 148.25,124.45 140.95,123.15 133.15,119.3 125.85,114.65 115.7,109.3 102.65,103.2 L86.3,96.75 C79.55,93.4 75.95,90.25 75.5,87.25 L75.55,85.45 76.3,85.45 81.15,85.85 C85.9,86.65 92.75,89.45 101.65,94.25zM152.3,108.85 L150.15,109.3 148.7,109.6 142.35,105.45 141.4,105.05 141.3,104 146.6,105.7 152,107.55 C151.85,107.95 151.95,108.4 152.3,108.85zM136.85,102.8 L139.95,103.65 140.15,104.6 C137.9,103.85 134.65,102.95 130.35,102 L130.7,101.5 136.85,102.8z"/>
          <path id="path385" transform="matrix(1 0 0 1 -71.299 -59.849)" fill="#D5FFD9" fill-opacity="1" d="M163.95,111.05 L164.3,111.15 164.6,110.75 C158.45,108.1 150.85,104.9 141.8,101.15 140.5,100.65 139,100.3 137.25,100.15 135.9,100 132.85,98.75 128.1,96.4 125.2,94.95 122.65,93.65 120.5,92.45 L120.95,93.35 C121.7,94.9 122.35,95.85 122.9,96.15 127.15,98.25 133.85,100.6 143,103.25 151.55,105.7 157.85,108.1 162,110.45 L163.8,111.3 163.95,111.05z M91.2,79.45 C92.5,80.7 93.65,81.6 94.7,82.1 L96.55,82.45 C97.7,82.6 99.15,83.1 101,84.05 108,87.5 113,89.6 116,90.3 L116.15,90 C113.8,88.55 112.05,87.35 111,86.35 110,84.8 108.8,83.7 107.35,82.95 95.1,76.9 86.6,74.1 81.9,74.6 L79.7,75.2 79.8,75.4 80.25,76 83.65,76.05 85.6,76 C86.05,76.05 86.9,76.4 88.05,76.95 L91.2,79.45z"/>
          <path id="path388" transform="matrix(1 0 0 1 -71.299 -59.849)" fill="#EFD598" fill-opacity="1" d="M166.9,109.3 L167.05,108.65 C167.6,106.45 167.25,104.1 166,101.65 165.05,99.75 163.65,97.8 161.8,95.8 159.35,98.35 157.6,99.7 156.5,99.75 L155.7,98.95 C155.55,98.65 155.6,98.2 155.9,97.65 156.15,97.05 157.1,96 158.75,94.55 L159.75,93.75 C157.7,91.9 155.3,89.95 152.5,88 149.35,91.4 147.55,93.1 147.1,93.1 146.35,92.35 146.15,91.6 146.6,90.75 147.25,89.45 148.15,88.2 149.4,87.05 L150.15,86.35 C146.95,84.2 143.3,82.05 139.25,79.8 L137.4,82.35 C135.95,84.2 134.95,85.75 134.3,86.95 L132.9,86.75 C132.65,86.05 132.65,85.1 132.9,83.9 133.1,83.1 133.3,82.55 133.45,82.2 134.35,80.35 134.95,79.25 135.3,78.9 L136.15,78.1 129.7,74.8 126.1,73.1 124.95,72.55 124.5,73.25 C124.05,74.2 123.35,75.15 122.45,76 L119.05,78.9 118.1,78.75 C117.65,77.4 117.5,76.55 117.7,76.2 118,75.55 119.2,74.35 121.3,72.5 L122.5,71.45 120.95,70.75 110.95,66.85 110.65,67.45 C110.25,68.3 109.4,69.3 108.15,70.5 L105.1,73.3 104.15,73.2 C103.7,71.85 103.55,71 103.75,70.65 104.05,70 105.25,68.75 107.35,66.9 L108.35,66 C104.1,64.7 100.2,63.85 96.65,63.4 L94.05,66.1 C92.35,67.6 91.15,68.35 90.45,68.4 L89.65,67.6 C89.5,67.3 89.55,66.85 89.85,66.3 90.25,65.45 91.2,64.4 92.75,63.1 L86.8,63.45 C81.35,64.3 77.75,66.45 76,69.95 75.75,70.4 75.75,70.85 75.95,71.4 L76.05,71.95 C77.95,71.8 80,71.75 82.25,71.85 89.4,72.2 95.75,73.7 101.2,76.4 106.45,79 110.25,81.4 112.65,83.65 115,85.9 118.1,87.95 121.85,89.8 132.9,95.25 139.5,98 141.7,98.05 143.9,98.05 149.1,100.1 157.35,104.2 162.1,106.55 165.3,108.25 166.9,109.3z "/>
          <path id="path389" transform="matrix(1 0 0 1 -71.299 -59.849)" fill="#E2B650" fill-opacity="1" d="M110.65,67.45 L110.95,66.85 108.35,66 107.35,66.9 C105.25,68.75 104.05,70 103.75,70.65 103.55,71 103.7,71.85 104.15,73.2 L105.1,73.3 108.15,70.5 C109.4,69.3 110.25,68.3 110.65,67.45z M96.65,63.4 L92.75,63.1 C91.2,64.4 90.25,65.45 89.85,66.3 89.55,66.85 89.5,67.3 89.65,67.6 L90.45,68.4 C91.15,68.35 92.35,67.6 94.05,66.1 L96.65,63.4zM117.7,76.2 C117.5,76.55 117.65,77.4 118.1,78.75 L119.05,78.9 122.45,76 C123.35,75.15 124.05,74.2 124.5,73.25 L124.95,72.55 122.5,71.45 121.3,72.5 C119.2,74.35 118,75.55 117.7,76.2zM139.25,79.8 L136.15,78.1 135.3,78.9 C134.95,79.25 134.35,80.35 133.45,82.2 133.3,82.55 133.1,83.1 132.9,83.9 132.65,85.1 132.65,86.05 132.9,86.75 L134.3,86.95 C134.95,85.75 135.95,84.2 137.4,82.35 L139.25,79.8zM146.6,90.75 C146.15,91.6 146.35,92.35 147.1,93.1 147.55,93.1 149.35,91.4 152.5,88 L150.15,86.35 149.4,87.05 C148.15,88.2 147.25,89.45 146.6,90.75zM161.8,95.8 L159.75,93.75 158.75,94.55 C157.1,96 156.15,97.05 155.9,97.65 155.6,98.2 155.55,98.65 155.7,98.95 L156.5,99.75 C157.6,99.7 159.35,98.35 161.8,95.8z"/>
          <path id="path400" transform="matrix(1 0 0 1 -71.299 -59.849)" fill="#E60000" fill-opacity="1" d="M163.05,114.75 C162.9,113.9 162.9,113.3 163.05,112.85 L163.15,112.65 156.25,109.25 153.4,108.05 153.65,109.05 159.5,112.95 163.05,114.75z "/>
          <path id="path403" transform="matrix(1 0 0 1 -71.299 -59.849)" fill="#715A06" fill-opacity="1" d="M162.4,116.8 L163.2,115.9 161.9,115.3 C157.65,113.15 154.65,111.25 152.95,109.6 L150.3,110.55 150.2,110.6 C153.4,112.6 157.4,114.8 162.2,117.25 L162.4,116.8z "/>
          <path id="path406" transform="matrix(1 0 0 1 -71.299 -59.849)" fill="#715A06" fill-opacity="1" d="M96,83.85 L95.7,83.95 93.6,83.9 C92.55,83.35 91.5,82.6 90.45,81.6 L89.7,82.05 89.1,82.45 85.55,81.15 83.2,80.05 80.6,79.75 78.9,80 78.95,80 C79.05,80.45 79,80.9 78.75,81.4 L78.2,82.3 80.05,82.65 C87.65,84.3 100.2,89.55 117.75,98.3 117.7,97.5 117.7,96.85 117.85,96.4 L117.6,96.3 C112.65,93.8 109.95,92.35 109.55,91.9 109.4,91.75 109.4,91.55 109.55,91.3 L109.75,90.4 106.55,89.05 101.3,89.45 C99.85,88.7 98.5,87.6 97.35,86.05 96.6,85.05 96.15,84.3 96,83.85z M116.15,90 L117,90.5 116,90.3 116.15,90zM79.8,75.4 L79.4,75.25 79.7,75.2 79.8,75.4z"/>
          <path id="path417" transform="matrix(1 0 0 1 -71.299 -59.849)" fill="#FFEF66" fill-opacity="1" d="M99.1,84.55 C98.3,84.15 97.6,83.9 97.05,83.85 L97.8,85.15 C98.85,86.6 100.15,87.65 101.6,88.4 L105,88.25 99.1,84.55z "/>
          <path id="path420" transform="matrix(1 0 0 1 -71.299 -59.849)" fill="#E60000" fill-opacity="1" d="M89.65,80.85 L89.7,80.75 88.4,79.25 C86.15,78.1 84.5,77.65 83.45,77.85 82.6,78 81.3,77.65 79.5,76.9 L78.15,77.55 78.55,79.05 C79.2,78.4 81.5,78.8 85.35,80.25 87.8,81.1 89.2,81.3 89.65,80.85z "/>
          <path id="path423" transform="matrix(1 0 0 1 -71.299 -59.849)" fill="#FFEF66" fill-opacity="1" d="M118.85,96.9 L119,98.9 120.75,99.8 128.95,101.75 129.5,101.15 C127.55,100.5 125.7,99.8 123.95,98.95 L122.6,98.1 C121.85,98.05 120.6,97.65 118.85,96.9z "/>
          <path id="path426" transform="matrix(1 0 0 1 -71.299 -59.849)" fill="#E60000" fill-opacity="1" d="M118.05,95.35 L121.1,96.75 119.75,95.1 118.15,92.55 C115.9,92.35 113.35,91.75 110.6,90.7 111.05,91.55 113.55,93.1 118.05,95.35z "/>
          <path id="path429" transform="matrix(1 0 0 1 -71.299 -59.849)" fill="#EFD598" fill-opacity="1" d="M101.65,94.25 C92.75,89.45 85.9,86.65 81.15,85.85 L76.3,85.45 75.55,85.45 75.5,87.25 C75.95,90.25 79.55,93.4 86.3,96.75 L102.65,103.2 C115.7,109.3 125.85,114.65 133.15,119.3 140.95,123.15 148.25,124.45 155.05,123.3 157.3,122.9 159.55,122.25 161.85,121.35 160.3,120.8 158.35,119.7 156,118.05 153.65,116.4 150.6,114.45 146.85,112.1 L140.6,108.3 C138.75,107.35 134.95,106.2 129.15,104.85 L119.95,102.75 C116.95,102.05 110.85,99.2 101.65,94.25z "/>
          <path id="path432" transform="matrix(1 0 0 1 -71.299 -59.849)" fill="#FFEF66" fill-opacity="1" d="M152.3,108.85 C151.95,108.4 151.85,107.95 152,107.55 L146.6,105.7 141.3,104 141.4,105.05 142.35,105.45 148.7,109.6 150.15,109.3 152.3,108.85z "/>
          <path id="path435" transform="matrix(1 0 0 1 -71.299 -59.849)" fill="#715A06" fill-opacity="1" d="M136.85,102.8 L130.7,101.5 130.35,102 C134.65,102.95 137.9,103.85 140.15,104.6 L139.95,103.65 136.85,102.8z "/>
          <path id="path438" transform="matrix(1 0 0 1 -71.299 -59.849)" fill="#F3E0B6" fill-opacity="1" d="M162,92.5 L163.05,93.65 163.1,93.55 C163.05,93.2 162.75,92.85 162.1,92.5 L162,92.5z "/>
        </g>
      </g>
    </symbol>
  </defs>
  <g id="sprite.__201571.__20(Items).__2F58">
    <g id="Layer.__210">
      <use xlink:href="#Graphic.__2Fshape.__201318" id="Graphic.__2Fshape.__201319" width="98.25000000000001" height="67.80000000000001" x="71.3" y="59.85" transform="matrix(1 0 0 1 0 0)" overflow="visible"/>
    </g>
  </g>
</svg>