<?xml version="1.0" encoding="utf-8"?>
<!-- Generator: flash2svg, http://dissentgraphics.com/tools/flash2svg -->
<svg xmlns:xlink="http://www.w3.org/1999/xlink" id="sprite.__201571.__20(Items).__2F60" image-rendering="optimizeSpeed" baseProfile="basic" version="1.1" style="background-color:#ffffff" x="0px" y="0px" width="550px" height="400px" viewBox="0 0 550 400" enable-background="new 0 0 550 400" xmlns="http://www.w3.org/2000/svg">
  <defs>
    <symbol id="MovieClip.__2Fsprite.__201307" viewBox="0 0 423.4 129.45">
      <g id="Layer.__265">
        <use xlink:href="#Graphic.__2Fshape.__201356" id="Graphic.__2Fshape.__201357" width="423.4" height="129.45" x="0" y="0" transform="matrix(1 0 0 1 0 0)" overflow="visible"/>
      </g>
    </symbol>
    <symbol id="Graphic.__2Fshape.__201356" viewBox="0 0 423.4 129.45">
      <g id="Layer.__315">
        <g id="shape1171" transform="matrix(1 0 0 1 0 0)">
          <path id="path1099" fill="#000000" fill-opacity="1" d="M382.35,0.35 L369.65,1.05 365.4,1.65 358.3,3 C338.05,7.75 323.85,18.25 315.7,34.5 312.4,41.15 310.3,48.4 309.35,56.35 309.1,58.75 308.9,61.1 308.85,63.35 300.7,63.9 252.1,69.3 163.05,79.65 L17.8,97.2 17.5,96.95 16.6,96.85 15.9,97.6 13.7,97.7 C6.85,98.5 2.25,100.35 0,103.2 0.1,104.05 1.95,105.4 5.5,107.3 9.55,109.45 13.15,110.35 16.3,110 L16.35,110.25 C116.4,99.6 214.35,88.5 310.15,76.9 312.3,87.7 316.8,97.4 323.65,106 338.55,124.75 361.6,132.25 392.85,128.5 398.2,127.85 404.15,125.05 410.7,120.1 L410.85,119.95 411.2,119.7 415.8,115.85 418.75,112.55 423.4,106.65 C423.25,106.45 423,106.35 422.6,106.4 L418.75,106.7 C412.4,107.1 404,106.9 393.65,106.1 390.4,105.85 385.65,104.65 379.4,102.4 373.85,100.45 368.3,96.75 362.75,91.3 355.7,84.35 351.6,79.85 350.35,77.75 349.2,75.75 348.2,71.55 347.45,65.15 345.95,52.65 347.2,42.55 351.2,34.85 354.85,27.7 357.95,22.3 360.6,18.6 362.55,15.85 367.5,12.15 375.45,7.5 379.4,5.15 383.2,3.1 386.8,1.25 L386.3,0.1 383.95,0 C383.5,0.15 383.1,0.3 382.75,0.45 L382.35,0.35z M309.5,73.25 C296.2,74.4 247.95,79.85 164.7,89.5 L23.55,106.5 C23.1,104.65 22.95,102.95 23,101.35 L23.05,99.5 C120.4,89.15 215.65,78.3 308.9,67 L309.2,71.25 309.5,73.25zM17.1,100.1 L20.1,99.8 C19.95,100.7 20,101.8 20.15,103.15 20.1,104.85 20.3,106.1 20.75,106.85 L17.75,107.25 C16.7,105 16.15,103.55 16.1,102.95 16.05,102.4 16.35,101.5 17,100.25 L17.1,100.1zM13.6,103.25 C13.85,104.5 14.1,105.6 14.4,106.5 L11.35,105.65 4.1,103.65 13.45,100.8 C13.4,101.25 13.45,102.05 13.6,103.25z"/>
          <path id="path1100" fill="#D0D0D0" fill-opacity="1" d="M353.75,7.45 C347.3,14.3 342.3,22.3 338.75,31.45 333.6,44.6 331.9,58.4 333.6,72.75 333.95,75.85 335.35,79.7 337.7,84.35 341.1,91 345.7,96.85 351.5,101.9 365.15,113.75 383.4,119.75 406.3,119.8 L410.35,116.6 411.65,115.05 413.45,112.7 413.6,112.5 414.1,111.85 C414.85,110.75 415.6,110.05 416.35,109.7 391.45,112.05 372.35,106.85 359.1,94.1 354.35,89.55 350.6,84.2 347.85,78.05 345.8,73.6 344.55,69.4 344.1,65.45 342.6,53 343.9,41.85 347.95,32.05 353.05,19.65 362.35,10.1 375.85,3.45 370.8,3.8 366.1,4.45 361.7,5.4 358.95,5.95 356.3,6.65 353.75,7.45z "/>
          <path id="path1101" fill="#A6A6A6" fill-opacity="1" d="M338.75,31.45 C342.3,22.3 347.3,14.3 353.75,7.45 339.1,12.05 328.15,20.4 320.9,32.5 316.95,39.15 314.3,46.6 313.05,54.9 312.1,60.75 311.95,66.05 312.55,70.85 313.05,75.1 314.25,79.8 316.2,85.05 318.95,92.6 322.7,99.3 327.45,105.1 341.2,121.95 360.85,128.8 386.4,125.75 394.85,124.75 401.5,122.75 406.3,119.8 383.4,119.75 365.15,113.75 351.5,101.9 345.7,96.85 341.1,91 337.7,84.35 335.35,79.7 333.95,75.85 333.6,72.75 331.9,58.4 333.6,44.6 338.75,31.45z "/>
          <path id="path1102" fill="#BBBBBB" fill-opacity="1" d="M309.5,73.25 L309.2,71.25 308.9,67 C215.65,78.3 120.4,89.15 23.05,99.5 L23,101.35 C22.95,102.95 23.1,104.65 23.55,106.5 L164.7,89.5 C247.95,79.85 296.2,74.4 309.5,73.25z "/>
          <path id="path1105" fill="#A6A6A6" fill-opacity="1" d="M17.1,100.1 L17,100.25 C16.35,101.5 16.05,102.4 16.1,102.95 16.15,103.55 16.7,105 17.75,107.25 L20.75,106.85 C20.3,106.1 20.1,104.85 20.15,103.15 20,101.8 19.95,100.7 20.1,99.8 L17.1,100.1z "/>
          <path id="path1108" fill="#BBBBBB" fill-opacity="1" d="M13.6,103.25 C13.45,102.05 13.4,101.25 13.45,100.8 L4.1,103.65 11.35,105.65 14.4,106.5 C14.1,105.6 13.85,104.5 13.6,103.25z "/>
        </g>
      </g>
    </symbol>
  </defs>
  <g id="sprite.__201571.__20(Items).__2F60">
    <g id="Layer.__212">
      <use xlink:href="#MovieClip.__2Fsprite.__201307" id="MovieClip.__2Fsprite.__201308" width="423.4" height="129.45" x="0" y="0" transform="matrix(1 0 0 1 -144.949 -29.649)" overflow="visible"/>
    </g>
  </g>
</svg>