<?xml version="1.0" encoding="utf-8"?>
<!-- Generator: flash2svg, http://dissentgraphics.com/tools/flash2svg -->
<svg xmlns:xlink="http://www.w3.org/1999/xlink" id="sprite.__201571.__20(Items).__2F68" image-rendering="optimizeSpeed" baseProfile="basic" version="1.1" style="background-color:#ffffff" x="0px" y="0px" width="550px" height="400px" viewBox="0 0 550 400" enable-background="new 0 0 550 400" xmlns="http://www.w3.org/2000/svg">
  <defs>
    <symbol id="Graphic.__2Fshape.__201334" viewBox="51.5 50.5 213.2 159.65">
      <g id="Layer.__274">
        <g id="shape669" transform="matrix(1 0 0 1 51.5 50.5)">
          <path id="path610" transform="matrix(1 0 0 1 -51.499 -50.499)" fill="#000000" fill-opacity="1" d="M199.5,97.5 C198.35,96 194.45,93.25 187.75,89.25 185,87.7 181.65,86.2 177.75,84.75 172.35,82.5 164.6,81.9 154.45,83.05 L142.95,83.9 C138.7,83.9 134.85,83.25 131.5,82 128.65,80.95 125.8,77.65 123,72.2 L121.2,68.75 C124.75,66 126.5,63.85 126.5,62.25 126.05,54.4 124.05,50.5 120.5,50.5 116.4,50.5 104.85,55.2 85.8,64.55 72.55,71.1 63.75,76.05 59.5,79.5 L54.65,82.25 C53.5,82.9 52.8,83.7 52.6,84.7 52.35,84.75 52.15,84.85 52,85 L51.5,85.5 C51.5,87.05 52.3,89.1 53.9,91.7 55.85,94.9 58.05,96.5 60.5,96.5 62.35,96.5 64.7,96.1 67.55,95.35 67.7,100.1 68.85,104.6 70.9,108.95 73.65,114.8 77.65,119.35 83,122.5 86.55,124.65 90.4,125.65 94.5,125.6 L104.3,124.25 C107.85,123.65 110.65,123.8 112.7,124.75 115.45,126.05 117.9,128.95 120,133.5 120.75,135.15 122.45,137.75 125.1,141.3 127.55,144.55 129,146.95 129.5,148.5 133.65,161.5 140.4,171.1 149.75,177.25 152,178.7 157.9,180.5 167.4,182.55 176.7,184.6 182.25,186.25 184,187.5 185.05,188.25 185.75,190.45 186.2,194.15 186.65,197.9 187.6,200.35 189,201.5 L189.9,201.1 C191.65,202.35 194.25,202.85 197.6,202.5 205.1,201.75 212,202.85 218.25,205.85 229.2,211.1 240.4,211.55 251.95,207.2 261.6,203.55 265.75,199.7 264.45,195.6 L264.5,193.9 264.5,192.1 264.5,190.5 C264.4,184.75 263.75,179.25 262.5,174.1 260.5,165.9 257.4,160.85 253.25,159 238.55,153.2 228.45,149 222.95,146.45 213.85,142.2 208.6,137.6 207.25,132.75 206.6,130.3 206.1,127.35 205.85,123.8 L205.25,114.7 C204.65,107.35 202.75,101.65 199.5,97.5z M203.75,144.8 L203.75,150 201.75,150.05 201.75,149.5 C202,147.45 202.3,145.95 202.55,145 L203.75,144.8z"/>
          <path id="path611" transform="matrix(1 0 0 1 -51.499 -50.499)" fill="#FFFFEE" fill-opacity="1" d="M203.75,144.8 L202.55,145 C202.3,145.95 202,147.45 201.75,149.5 L201.75,150.05 203.75,150 203.75,144.8z M204.7,140.75 C203.7,139.4 202.95,137.95 202.5,136.5 201.65,133.95 201.15,130.9 200.95,127.35 L200.65,118.2 200.6,116.8 C200.1,110.05 198.25,104.6 195,100.5 190.15,94.35 182.85,90.5 173.15,89.05 169,88.4 160.25,88.2 146.85,88.35 139.5,88.45 133.65,87.95 129.35,86.9 L129.3,86.9 C127.55,86.45 126,85.95 124.75,85.3 119.9,82.85 117,78.5 115.95,72.35 111.5,75.2 105.6,78.5 98.25,82.25 88.15,87.4 79.85,91.15 73.35,93.5 L72.5,94.35 73.4,96.4 76.2,103.9 C78.8,110.5 82.05,115.05 86,117.5 87.85,118.65 90.75,119.3 94.6,119.45 L105.5,119.55 C114.95,119.8 121.1,122.8 124,128.5 127.05,134.65 129.8,139.15 132.25,142 133.55,143.5 134.75,145.6 135.9,148.25 L138.8,155.7 C141.4,162.25 144.7,167.1 148.75,170.25 150.85,171.9 157.95,174 170.05,176.55 180.35,179.7 187.1,184.2 190.35,190.15 L191,189.75 190.4,190.25 191.45,192.55 191.5,192.55 C196.65,192.7 196.75,193.85 191.75,196.1 L191.5,196.2 203.4,196.2 C211.5,196.25 220.45,198.35 230.2,202.5 239.95,206.65 247.3,206.75 252.35,202.8 L261.05,196.1 260.5,194 260.5,193.95 259.8,190.2 259.65,188.95 258.85,178.75 C258,170.6 255.05,165.35 250,163 247.05,161.6 242.55,159.85 236.5,157.7 L222.05,152.45 C214.8,149.5 209.55,146.2 206.2,142.55 206.6,143.7 206.6,145.3 206.25,147.35 L206.3,150.75 C205.95,152.1 204.8,152.75 202.75,152.75 200.8,152.75 199.65,152.25 199.25,151.25 L199.25,149.6 C199.25,148.35 199.5,146.65 200,144.55 200.65,141.7 201.5,140.25 202.5,140.25 203.35,140.25 204.1,140.4 204.7,140.75zM170.25,97.15 L169.25,99.25 C168.6,100.6 168.25,101.5 168.25,102.05 168.25,103.9 170,105.35 173.55,106.3 173.7,106.15 173.75,105.65 173.75,104.9 173.75,104.15 173.7,103.7 173.55,103.5 L170.8,103.55 170.75,102.85 C170.75,102.15 171.25,101.3 172.25,100.25 173.2,99.25 173.95,98.75 174.5,98.75 175.3,98.75 175.9,99.1 176.25,99.75 L176.25,109.05 C176.25,109.5 175.85,109.75 175,109.75 171.8,109.75 169.3,108.5 167.5,106 L165.75,102.1 C166.4,100.1 166.75,98.7 166.75,97.85 165.8,97.05 164.95,96.05 164.25,94.8 162.6,96.65 161.35,97.8 160.5,98.25 159.65,97.4 159.25,96.85 159.25,96.6 159.25,96.05 159.9,95 161.25,93.5 162.6,92 163.6,91.25 164.25,91.25 L170.25,97.15zM192.25,106.35 C192.25,107.15 190.85,108.8 188,111.25 187.25,111.25 186.45,110.5 185.55,109 182.55,115.25 179.35,120.9 175.95,125.95 171.3,132.8 167.65,136.25 165,136.25 163.75,136.25 163,135.4 162.75,133.75 155.55,140.45 150.25,146.8 146.8,152.8 L146,153.25 C145.15,152.9 144.75,152.15 144.75,151.1 144.75,150.4 147.35,147.05 152.5,141.1 157.55,135.25 161.4,131.15 164,128.75 164.85,129.65 165.25,130.85 165.25,132.3 L165.5,132.5 C168.85,129.1 172.6,124.3 176.65,118.15 L186,104.25 C186.85,104.55 187.3,105.05 187.25,105.75 187.25,106.5 187.5,107 188.05,107.3 189.5,106.15 190.5,105.45 191,105.25 L191.85,105.45 C192.1,105.55 192.25,105.85 192.25,106.35zM191.8,118.5 L193.25,118.25 C194.3,118.25 195,118.8 195.3,119.85 L195.55,122.25 195.75,122.25 C195.75,121.7 195.85,121 196.1,120.15 L196.1,120.1 196.4,119.05 C196.95,117.2 197.65,116.25 198.5,116.25 L199.6,116.45 199.75,116.85 199.75,117.6 C199.75,118.35 199.25,119.95 198.25,122.5 197.2,125 196.55,126.25 196.25,126.25 195.2,126.25 194.15,125.15 193.05,123 192.2,121.25 191.75,120.1 191.75,119.6 L191.8,118.5zM164.05,111.05 C163.2,111.85 162.45,112.25 161.75,112.25 160.25,112.25 159.2,111.75 158.6,110.8 158.1,110 158,109.35 158.25,108.8 L159.5,108.25 C159.9,108.25 160.45,108.45 161.1,108.8 161.65,109.15 162,109.2 162.25,109.05 L159.5,105.3 158,106.75 C157.15,106.5 156.75,105.95 156.75,105.1 156.75,103.2 157.75,102.25 159.75,102.25 160.75,102.25 162.6,104.55 165.25,109.15 165.25,109.65 164.85,110.3 164.05,111.05zM168.75,116.75 C168.75,118.7 168.65,119.85 168.45,120.2 168.05,120.9 166.4,122.4 163.5,124.75 162.65,124.5 162.25,124 162.25,123.35 162.25,122.75 162.9,121.8 164.2,120.5 165.5,119.2 166.2,118.3 166.25,117.75 L166.15,114.45 C166.1,113.3 166.55,112.75 167.5,112.75 168.65,112.75 169.1,114.1 168.75,116.75zM177.8,128.55 L177.75,127.85 185.5,120.75 C186.6,120.75 188.85,126.55 192.25,138.15 192.25,139.8 190.9,140.25 188.25,139.5 L184.8,139.5 184.75,142.25 C184.75,143.1 185.1,144.65 185.75,147 185.75,147.85 185.65,148.1 185.5,147.75 185.15,148.1 184.75,148.25 184.25,148.25 183.15,148.25 182.5,147.25 182.25,145.3 L182.25,142.35 C182.25,140.35 182.4,139.05 182.65,138.4 183.5,136.4 185.55,135.85 188.75,136.8 187.6,131.85 186.45,128.2 185.3,125.8 184.95,126.25 184.2,126.95 182.95,127.8 181.55,128.75 180.5,129.25 179.75,129.25 178.9,129.25 178.25,129 177.8,128.55zM180.8,131.8 C182.05,130.75 182.85,130.25 183.25,130.25 183.55,130.25 183.95,130.45 184.5,130.8 L184.65,130.6 184.75,131.35 C184.75,132.3 183.25,133.9 180.25,136.25 L179.25,136 C178.9,135.65 178.75,135.3 178.75,134.85 178.75,134 179.45,132.95 180.8,131.8zM172,136.75 L172.85,136.95 C173.1,137.05 173.25,137.35 173.25,137.85 173.25,138.8 171.85,141.15 169.05,144.8 L172.35,146.9 172.4,146.95 175.55,149 176.25,143.5 176.25,143.05 176.1,143.2 176.05,143.2 C175.4,143.7 174.25,144.9 172.5,146.75 171.65,146.5 171.25,145.9 171.25,145 171.25,144.55 172.15,143.3 174,141.25 175.85,139.25 176.9,138.25 177.25,138.25 178.6,138.25 179.1,139.5 178.75,142 178.75,148.5 177.85,151.75 176,151.75 174.45,151.75 172.3,150.7 169.55,148.55 167,146.6 165.75,145.4 165.75,144.85 165.75,144.6 166.6,143.3 168.25,140.95 170,138.5 171.25,137.1 172,136.75zM194.5,143.25 C195.6,143.25 196.35,145.5 196.75,150 196.75,151.8 196.4,152.95 195.65,153.45 194.15,154.15 192.6,155.1 191,156.25 189.7,154.95 189.45,153.7 190.25,152.55 L190.25,149.55 C188.25,151.15 187.25,152.15 187.25,152.6 L188.5,154.6 C189.35,155.85 189.75,157.05 189.75,158.25 L188.5,159.25 185.4,155.35 C184.95,154.6 184.75,153.6 184.75,152.35 184.75,151.25 186.1,149.45 188.75,147 191.4,144.5 193.35,143.25 194.5,143.25z"/>
          <path id="path616" transform="matrix(1 0 0 1 -51.499 -50.499)" fill="#000000" fill-opacity="1" d="M170.25,97.15 L164.25,91.25 C163.6,91.25 162.6,92 161.25,93.5 159.9,95 159.25,96.05 159.25,96.6 159.25,96.85 159.65,97.4 160.5,98.25 161.35,97.8 162.6,96.65 164.25,94.8 164.95,96.05 165.8,97.05 166.75,97.85 166.75,98.7 166.4,100.1 165.75,102.1 L167.5,106 C169.3,108.5 171.8,109.75 175,109.75 175.85,109.75 176.25,109.5 176.25,109.05 L176.25,99.75 C175.9,99.1 175.3,98.75 174.5,98.75 173.95,98.75 173.2,99.25 172.25,100.25 171.25,101.3 170.75,102.15 170.75,102.85 L170.8,103.55 173.55,103.5 C173.7,103.7 173.75,104.15 173.75,104.9 173.75,105.65 173.7,106.15 173.55,106.3 170,105.35 168.25,103.9 168.25,102.05 168.25,101.5 168.6,100.6 169.25,99.25 L170.25,97.15z "/>
          <path id="path619" transform="matrix(1 0 0 1 -51.499 -50.499)" fill="#000000" fill-opacity="1" d="M192.25,106.35 C192.25,105.85 192.1,105.55 191.85,105.45 L191,105.25 C190.5,105.45 189.5,106.15 188.05,107.3 187.5,107 187.25,106.5 187.25,105.75 187.3,105.05 186.85,104.55 186,104.25 L176.65,118.15 C172.6,124.3 168.85,129.1 165.5,132.5 L165.25,132.3 C165.25,130.85 164.85,129.65 164,128.75 161.4,131.15 157.55,135.25 152.5,141.1 147.35,147.05 144.75,150.4 144.75,151.1 144.75,152.15 145.15,152.9 146,153.25 L146.8,152.8 C150.25,146.8 155.55,140.45 162.75,133.75 163,135.4 163.75,136.25 165,136.25 167.65,136.25 171.3,132.8 175.95,125.95 179.35,120.9 182.55,115.25 185.55,109 186.45,110.5 187.25,111.25 188,111.25 190.85,108.8 192.25,107.15 192.25,106.35z "/>
          <path id="path622" transform="matrix(1 0 0 1 -51.499 -50.499)" fill="#000000" fill-opacity="1" d="M191.8,118.5 L191.75,119.6 C191.75,120.1 192.2,121.25 193.05,123 194.15,125.15 195.2,126.25 196.25,126.25 196.55,126.25 197.2,125 198.25,122.5 199.25,119.95 199.75,118.35 199.75,117.6 L199.75,116.85 199.6,116.45 198.5,116.25 C197.65,116.25 196.95,117.2 196.4,119.05 L196.1,120.1 196.1,120.15 C195.85,121 195.75,121.7 195.75,122.25 L195.55,122.25 195.3,119.85 C195,118.8 194.3,118.25 193.25,118.25 L191.8,118.5z "/>
          <path id="path625" transform="matrix(1 0 0 1 -51.499 -50.499)" fill="#000000" fill-opacity="1" d="M164.05,111.05 C164.85,110.3 165.25,109.65 165.25,109.15 162.6,104.55 160.75,102.25 159.75,102.25 157.75,102.25 156.75,103.2 156.75,105.1 156.75,105.95 157.15,106.5 158,106.75 L159.5,105.3 162.25,109.05 C162,109.2 161.65,109.15 161.1,108.8 160.45,108.45 159.9,108.25 159.5,108.25 L158.25,108.8 C158,109.35 158.1,110 158.6,110.8 159.2,111.75 160.25,112.25 161.75,112.25 162.45,112.25 163.2,111.85 164.05,111.05z "/>
          <path id="path628" transform="matrix(1 0 0 1 -51.499 -50.499)" fill="#000000" fill-opacity="1" d="M168.75,116.75 C169.1,114.1 168.65,112.75 167.5,112.75 166.55,112.75 166.1,113.3 166.15,114.45 L166.25,117.75 C166.2,118.3 165.5,119.2 164.2,120.5 162.9,121.8 162.25,122.75 162.25,123.35 162.25,124 162.65,124.5 163.5,124.75 166.4,122.4 168.05,120.9 168.45,120.2 168.65,119.85 168.75,118.7 168.75,116.75z "/>
          <path id="path631" transform="matrix(1 0 0 1 -51.499 -50.499)" fill="#000000" fill-opacity="1" d="M177.8,128.55 C178.25,129 178.9,129.25 179.75,129.25 180.5,129.25 181.55,128.75 182.95,127.8 184.2,126.95 184.95,126.25 185.3,125.8 186.45,128.2 187.6,131.85 188.75,136.8 185.55,135.85 183.5,136.4 182.65,138.4 182.4,139.05 182.25,140.35 182.25,142.35 L182.25,145.3 C182.5,147.25 183.15,148.25 184.25,148.25 184.75,148.25 185.15,148.1 185.5,147.75 185.65,148.1 185.75,147.85 185.75,147 185.1,144.65 184.75,143.1 184.75,142.25 L184.8,139.5 188.25,139.5 C190.9,140.25 192.25,139.8 192.25,138.15 188.85,126.55 186.6,120.75 185.5,120.75 L177.75,127.85 177.8,128.55z "/>
          <path id="path634" transform="matrix(1 0 0 1 -51.499 -50.499)" fill="#000000" fill-opacity="1" d="M180.8,131.8 C179.45,132.95 178.75,134 178.75,134.85 178.75,135.3 178.9,135.65 179.25,136 L180.25,136.25 C183.25,133.9 184.75,132.3 184.75,131.35 L184.65,130.6 184.5,130.8 C183.95,130.45 183.55,130.25 183.25,130.25 182.85,130.25 182.05,130.75 180.8,131.8z "/>
          <path id="path637" transform="matrix(1 0 0 1 -51.499 -50.499)" fill="#000000" fill-opacity="1" d="M172,136.75 C171.25,137.1 170,138.5 168.25,140.95 166.6,143.3 165.75,144.6 165.75,144.85 165.75,145.4 167,146.6 169.55,148.55 172.3,150.7 174.45,151.75 176,151.75 177.85,151.75 178.75,148.5 178.75,142 179.1,139.5 178.6,138.25 177.25,138.25 176.9,138.25 175.85,139.25 174,141.25 172.15,143.3 171.25,144.55 171.25,145 171.25,145.9 171.65,146.5 172.5,146.75 174.25,144.9 175.4,143.7 176.05,143.2 L176.1,143.2 176.25,143.05 176.25,143.5 175.55,149 172.4,146.95 172.35,146.9 169.05,144.8 C171.85,141.15 173.25,138.8 173.25,137.85 173.25,137.35 173.1,137.05 172.85,136.95 L172,136.75z "/>
          <path id="path640" transform="matrix(1 0 0 1 -51.499 -50.499)" fill="#000000" fill-opacity="1" d="M194.5,143.25 C193.35,143.25 191.4,144.5 188.75,147 186.1,149.45 184.75,151.25 184.75,152.35 184.75,153.6 184.95,154.6 185.4,155.35 L188.5,159.25 189.75,158.25 C189.75,157.05 189.35,155.85 188.5,154.6 L187.25,152.6 C187.25,152.15 188.25,151.15 190.25,149.55 L190.25,152.55 C189.45,153.7 189.7,154.95 191,156.25 192.6,155.1 194.15,154.15 195.65,153.45 196.4,152.95 196.75,151.8 196.75,150 196.35,145.5 195.6,143.25 194.5,143.25z M193.5,146.55 L193.75,146.55 C193.7,147.05 193.85,147.95 194.25,149.25 194.4,150.45 193.9,151.3 192.75,151.75 L192.3,147.55 C192.3,147.05 192.4,146.75 192.65,146.7 L193.5,146.55z"/>
          <path id="path643" transform="matrix(1 0 0 1 -51.499 -50.499)" fill="#FFFFEE" fill-opacity="1" d="M193.5,146.55 L192.65,146.7 C192.4,146.75 192.3,147.05 192.3,147.55 L192.75,151.75 C193.9,151.3 194.4,150.45 194.25,149.25 193.85,147.95 193.7,147.05 193.75,146.55 L193.5,146.55z M199.25,159.25 C200.7,159.25 203,161.85 206.25,167 206.25,167.45 205.2,168.15 203.05,169 201,169.85 199.45,170.25 198.5,170.25 L195.8,170 195.75,167.75 C196.3,165.45 196.6,163.55 196.75,162.05 L198,161.75 C198.45,161.75 198.75,161.9 198.95,162.25 L199.25,163.6 C199.25,164.45 198.9,165.65 198.25,167.25 L198.25,167.55 C199.95,167.9 201.4,167.45 202.55,166.25 202.2,165.5 201.35,164.35 200,162.85 L199.2,162 199.15,161.9 C198.35,161 197.9,160.35 197.75,160 198.1,159.5 198.6,159.25 199.25,159.25zM185.25,166.3 C185.1,167.25 183.05,167.75 179,167.75 176.05,167.75 174.3,167.4 173.75,166.75 L173.75,165.6 C173.75,164.65 174.25,163.15 175.25,161.05 176.3,158.85 177.1,157.75 177.75,157.75 L178.95,157.85 C179.15,157.95 179.25,158.3 179.25,158.85 179.25,161.7 178.35,163.75 176.55,165.05 L181.75,165 C181.4,164.15 181.55,163.15 182.1,161.9 182.65,160.65 183.45,159.6 184.5,158.75 L187.9,163.3 C189.45,165.45 190.25,166.95 190.25,167.75 188.65,175.1 186.55,178.75 184,178.75 183.25,178.75 182.45,178.4 181.6,177.75 L179.05,175.5 C176.4,173.35 173.2,172.25 169.5,172.25 169,172.25 168.65,172.4 168.5,172.65 168.2,173.1 167.7,173.45 167,173.75 166.15,173.5 165.75,172.9 165.75,172 165.75,171.55 166.25,170.35 167.3,168.4 168.25,166.65 168.55,165.45 168.25,164.8 L169.75,164.25 171,164.5 171.25,165.35 C171.25,165.85 170.75,167.15 169.75,169.3 171.05,169.45 173.55,170.55 177.3,172.65 180.95,174.7 183.05,175.75 183.5,175.75 184.55,175.75 186,173.1 187.75,167.85 187.75,167 187.35,166.1 186.55,165.15 185.8,164.2 185.05,163.55 184.3,163.3 184.3,163.95 184.6,164.95 185.25,166.3zM164.85,162.9 C166.3,160.45 167.35,158.9 168,158.25 165.6,155.85 163.2,152.45 160.75,148.05 L162,147.75 170.75,157.85 C170.75,159.1 168.6,162.6 164.25,168.25 L163.25,168 C162.9,167.65 162.75,167.3 162.75,166.85 162.75,166.6 163.45,165.25 164.85,162.9zM202.25,174.75 C202.25,177.15 201.7,180.35 200.55,184.3 200.35,184.6 199.85,184.75 199,184.75 196.75,184.75 194.75,183.6 193.1,181.25 L191.25,177.6 C191.25,176.2 191.45,175.25 191.85,174.8 192.65,173.75 194.45,173.25 197.25,173.25 200.05,173.25 201.7,173.5 202.25,173.95 L202.25,174.75z"/>
          <path id="path646" transform="matrix(1 0 0 1 -51.499 -50.499)" fill="#000000" fill-opacity="1" d="M199.25,159.25 C198.6,159.25 198.1,159.5 197.75,160 197.9,160.35 198.35,161 199.15,161.9 L199.2,162 200,162.85 C201.35,164.35 202.2,165.5 202.55,166.25 201.4,167.45 199.95,167.9 198.25,167.55 L198.25,167.25 C198.9,165.65 199.25,164.45 199.25,163.6 L198.95,162.25 C198.75,161.9 198.45,161.75 198,161.75 L196.75,162.05 C196.6,163.55 196.3,165.45 195.75,167.75 L195.8,170 198.5,170.25 C199.45,170.25 201,169.85 203.05,169 205.2,168.15 206.25,167.45 206.25,167 203,161.85 200.7,159.25 199.25,159.25z "/>
          <path id="path649" transform="matrix(1 0 0 1 -51.499 -50.499)" fill="#000000" fill-opacity="1" d="M185.25,166.3 C184.6,164.95 184.3,163.95 184.3,163.3 185.05,163.55 185.8,164.2 186.55,165.15 187.35,166.1 187.75,167 187.75,167.85 186,173.1 184.55,175.75 183.5,175.75 183.05,175.75 180.95,174.7 177.3,172.65 173.55,170.55 171.05,169.45 169.75,169.3 170.75,167.15 171.25,165.85 171.25,165.35 L171,164.5 169.75,164.25 168.25,164.8 C168.55,165.45 168.25,166.65 167.3,168.4 166.25,170.35 165.75,171.55 165.75,172 165.75,172.9 166.15,173.5 167,173.75 167.7,173.45 168.2,173.1 168.5,172.65 168.65,172.4 169,172.25 169.5,172.25 173.2,172.25 176.4,173.35 179.05,175.5 L181.6,177.75 C182.45,178.4 183.25,178.75 184,178.75 186.55,178.75 188.65,175.1 190.25,167.75 190.25,166.95 189.45,165.45 187.9,163.3 L184.5,158.75 C183.45,159.6 182.65,160.65 182.1,161.9 181.55,163.15 181.4,164.15 181.75,165 L176.55,165.05 C178.35,163.75 179.25,161.7 179.25,158.85 179.25,158.3 179.15,157.95 178.95,157.85 L177.75,157.75 C177.1,157.75 176.3,158.85 175.25,161.05 174.25,163.15 173.75,164.65 173.75,165.6 L173.75,166.75 C174.3,167.4 176.05,167.75 179,167.75 183.05,167.75 185.1,167.25 185.25,166.3z "/>
          <path id="path652" transform="matrix(1 0 0 1 -51.499 -50.499)" fill="#000000" fill-opacity="1" d="M164.85,162.9 C163.45,165.25 162.75,166.6 162.75,166.85 162.75,167.3 162.9,167.65 163.25,168 L164.25,168.25 C168.6,162.6 170.75,159.1 170.75,157.85 L162,147.75 160.75,148.05 C163.2,152.45 165.6,155.85 168,158.25 167.35,158.9 166.3,160.45 164.85,162.9z "/>
          <path id="path655" transform="matrix(1 0 0 1 -51.499 -50.499)" fill="#000000" fill-opacity="1" d="M202.25,174.75 L202.25,173.95 C201.7,173.5 200.05,173.25 197.25,173.25 194.45,173.25 192.65,173.75 191.85,174.8 191.45,175.25 191.25,176.2 191.25,177.6 L193.1,181.25 C194.75,183.6 196.75,184.75 199,184.75 199.85,184.75 200.35,184.6 200.55,184.3 201.7,180.35 202.25,177.15 202.25,174.75z M193.75,177.1 L193.55,176.1 194.25,176 199.25,175.8 C198.6,178.25 198.2,180.2 198.05,181.75 L195.7,179.4 193.75,177.1z"/>
          <path id="path658" transform="matrix(1 0 0 1 -51.499 -50.499)" fill="#FFFFEE" fill-opacity="1" d="M193.75,177.1 L195.7,179.4 198.05,181.75 C198.2,180.2 198.6,178.25 199.25,175.8 L194.25,176 193.55,176.1 193.75,177.1z M234.5,160.25 C236.05,160.25 237.45,161.35 238.75,163.5 238.75,164.15 237.5,165.55 235,167.6 232.45,169.7 230.6,170.75 229.5,170.75 227.65,170.75 225.95,169.45 224.5,166.8 223.35,164.7 222.75,163.05 222.75,161.8 223.25,161.6 223.1,161.5 222.25,161.5 221.6,161.5 219.5,162.5 216.05,164.45 L209.5,168.25 C208.65,168 208.25,167.45 208.25,166.6 208.25,165.9 210.6,164.3 215.3,161.8 219.75,159.45 222.15,158.25 222.5,158.25 223.65,158.25 224.75,159.85 225.85,163 226.95,166.15 228.15,167.75 229.5,167.75 230.65,167.75 232.7,166.45 235.55,163.8 234.15,162.4 233.4,161.4 233.25,160.8 L234.5,160.25zM242.6,172.35 L242.75,173.35 C240.1,178.85 238.05,182 236.5,182.75 235.65,182.5 235.25,181.95 235.25,181.1 235.25,180.4 236.25,178.75 238.25,176.1 240.2,173.55 241.25,172.25 241.5,172.25 L242.6,172.35zM216.75,159.55 L215.5,160.25 C215,160 214.6,159.45 214.3,158.55 L213.55,156.1 C212.8,154.15 211.2,153.6 208.75,154.5 208.4,154.15 208.25,153.8 208.25,153.35 208.25,152.7 208.9,152.05 210.25,151.5 211.4,151 212.3,150.75 213,150.75 213.95,150.75 215.2,152.95 216.75,157.3 L216.75,159.55zM205.75,158.5 L210.5,157.25 211.35,157.45 C211.6,157.55 211.75,157.85 211.75,158.35 211.75,159.15 211.1,159.85 209.75,160.5 208.6,161 207.55,161.25 206.5,161.25 204.75,161.25 203.65,160.6 203.3,159.3 L203.25,157.15 C203.25,154.9 203.65,153.75 204.5,153.75 205.45,153.75 205.95,154.45 206,155.9 L205.75,158.5zM217.25,177.75 C218.1,177.75 218.6,178 218.85,178.5 L219.25,179.75 220.45,178.9 221.05,177.85 C221.05,176.45 220.4,174.9 219.05,173.25 218.5,173.25 216.3,174.6 212.5,177.25 211.65,177 211.25,176.45 211.25,175.6 217,171.7 219.9,169.75 220,169.75 220.7,169.75 222.1,172.6 224.25,178.35 224.25,178.75 223.5,179.65 222,181.05 220.45,182.5 219.4,183.25 218.75,183.25 216.75,183.25 215.75,181.65 215.75,178.5 216.1,178 216.6,177.75 217.25,177.75zM99.75,94.35 C99.75,94.15 101.75,93.4 105.8,92.05 109.8,90.7 111.8,89.7 111.8,89.05 L110.25,85.3 C109.3,83.3 109,82.05 109.25,81.55 L110.5,81.25 C111.65,81.25 113.1,84 114.75,89.5 114.75,90.35 113,91.65 109.5,93.3 106.15,94.95 103.8,95.75 102.5,95.75 101.05,95.75 100.15,95.5 99.8,95.05 L99.75,94.35zM96.9,87.45 C99.2,86.6 102,86 105.25,85.75 L107,86 107.25,86.85 C107.25,87.2 105.65,88.05 102.5,89.3 99.25,90.6 97,91.25 95.75,91.25 94.9,91.25 94.25,91 93.8,90.55 L93.75,89.85 C93.75,89.1 94.8,88.3 96.9,87.45zM86.75,93.6 L86.8,92.8 C87.35,92.45 87.85,92.25 88.25,92.25 90.1,92.25 92.3,94.35 94.75,98.5 93.4,101.35 90.75,102.75 86.75,102.75 85,102.75 83.2,101.65 81.35,99.5 79.6,97.45 78.75,95.5 78.75,93.75 L80,93.25 82.95,96.65 C84.95,98.9 86.4,100 87.25,100 88,100 88.85,99.7 89.8,99.15 L91.5,98.05 C88.35,96.25 86.75,94.75 86.75,93.6zM119,92.75 C121.15,92.75 122.5,93.35 123.05,94.6 123.2,94.9 123.25,95.65 123.25,96.85 123.25,99.1 122.35,100.25 120.5,100.25 118.65,100.25 117.6,99.65 117.25,98.5 L117.25,96.6 C117.25,94.05 117.85,92.75 119,92.75z"/>
          <path id="path661" transform="matrix(1 0 0 1 -51.499 -50.499)" fill="#000000" fill-opacity="1" d="M234.5,160.25 L233.25,160.8 C233.4,161.4 234.15,162.4 235.55,163.8 232.7,166.45 230.65,167.75 229.5,167.75 228.15,167.75 226.95,166.15 225.85,163 224.75,159.85 223.65,158.25 222.5,158.25 222.15,158.25 219.75,159.45 215.3,161.8 210.6,164.3 208.25,165.9 208.25,166.6 208.25,167.45 208.65,168 209.5,168.25 L216.05,164.45 C219.5,162.5 221.6,161.5 222.25,161.5 223.1,161.5 223.25,161.6 222.75,161.8 222.75,163.05 223.35,164.7 224.5,166.8 225.95,169.45 227.65,170.75 229.5,170.75 230.6,170.75 232.45,169.7 235,167.6 237.5,165.55 238.75,164.15 238.75,163.5 237.45,161.35 236.05,160.25 234.5,160.25z "/>
          <path id="path664" transform="matrix(1 0 0 1 -51.499 -50.499)" fill="#000000" fill-opacity="1" d="M242.6,172.35 L241.5,172.25 C241.25,172.25 240.2,173.55 238.25,176.1 236.25,178.75 235.25,180.4 235.25,181.1 235.25,181.95 235.65,182.5 236.5,182.75 238.05,182 240.1,178.85 242.75,173.35 L242.6,172.35z "/>
          <path id="path667" transform="matrix(1 0 0 1 -51.499 -50.499)" fill="#000000" fill-opacity="1" d="M216.75,159.55 L216.75,157.3 C215.2,152.95 213.95,150.75 213,150.75 212.3,150.75 211.4,151 210.25,151.5 208.9,152.05 208.25,152.7 208.25,153.35 208.25,153.8 208.4,154.15 208.75,154.5 211.2,153.6 212.8,154.15 213.55,156.1 L214.3,158.55 C214.6,159.45 215,160 215.5,160.25 L216.75,159.55z "/>
          <path id="path670" transform="matrix(1 0 0 1 -51.499 -50.499)" fill="#000000" fill-opacity="1" d="M205.75,158.5 L206,155.9 C205.95,154.45 205.45,153.75 204.5,153.75 203.65,153.75 203.25,154.9 203.25,157.15 L203.3,159.3 C203.65,160.6 204.75,161.25 206.5,161.25 207.55,161.25 208.6,161 209.75,160.5 211.1,159.85 211.75,159.15 211.75,158.35 211.75,157.85 211.6,157.55 211.35,157.45 L210.5,157.25 205.75,158.5z "/>
          <path id="path673" transform="matrix(1 0 0 1 -51.499 -50.499)" fill="#000000" fill-opacity="1" d="M217.25,177.75 C216.6,177.75 216.1,178 215.75,178.5 215.75,181.65 216.75,183.25 218.75,183.25 219.4,183.25 220.45,182.5 222,181.05 223.5,179.65 224.25,178.75 224.25,178.35 222.1,172.6 220.7,169.75 220,169.75 219.9,169.75 217,171.7 211.25,175.6 211.25,176.45 211.65,177 212.5,177.25 216.3,174.6 218.5,173.25 219.05,173.25 220.4,174.9 221.05,176.45 221.05,177.85 L220.45,178.9 219.25,179.75 218.85,178.5 C218.6,178 218.1,177.75 217.25,177.75z "/>
          <path id="path676" transform="matrix(1 0 0 1 -51.499 -50.499)" fill="#000000" fill-opacity="1" d="M99.75,94.35 L99.8,95.05 C100.15,95.5 101.05,95.75 102.5,95.75 103.8,95.75 106.15,94.95 109.5,93.3 113,91.65 114.75,90.35 114.75,89.5 113.1,84 111.65,81.25 110.5,81.25 L109.25,81.55 C109,82.05 109.3,83.3 110.25,85.3 L111.8,89.05 C111.8,89.7 109.8,90.7 105.8,92.05 101.75,93.4 99.75,94.15 99.75,94.35z "/>
          <path id="path679" transform="matrix(1 0 0 1 -51.499 -50.499)" fill="#000000" fill-opacity="1" d="M96.9,87.45 C94.8,88.3 93.75,89.1 93.75,89.85 L93.8,90.55 C94.25,91 94.9,91.25 95.75,91.25 97,91.25 99.25,90.6 102.5,89.3 105.65,88.05 107.25,87.2 107.25,86.85 L107,86 105.25,85.75 C102,86 99.2,86.6 96.9,87.45z "/>
          <path id="path682" transform="matrix(1 0 0 1 -51.499 -50.499)" fill="#000000" fill-opacity="1" d="M86.75,93.6 C86.75,94.75 88.35,96.25 91.5,98.05 L89.8,99.15 C88.85,99.7 88,100 87.25,100 86.4,100 84.95,98.9 82.95,96.65 L80,93.25 78.75,93.75 C78.75,95.5 79.6,97.45 81.35,99.5 83.2,101.65 85,102.75 86.75,102.75 90.75,102.75 93.4,101.35 94.75,98.5 92.3,94.35 90.1,92.25 88.25,92.25 87.85,92.25 87.35,92.45 86.8,92.8 L86.75,93.6z "/>
          <path id="path685" transform="matrix(1 0 0 1 -51.499 -50.499)" fill="#000000" fill-opacity="1" d="M119,92.75 C117.85,92.75 117.25,94.05 117.25,96.6 L117.25,98.5 C117.6,99.65 118.65,100.25 120.5,100.25 122.35,100.25 123.25,99.1 123.25,96.85 123.25,95.65 123.2,94.9 123.05,94.6 122.5,93.35 121.15,92.75 119,92.75z M120.75,96.85 L120.7,97.65 120.25,97.55 C119.9,97.2 119.75,96.6 119.75,95.8 120.4,95.65 120.75,96 120.75,96.85z"/>
          <path id="path688" transform="matrix(1 0 0 1 -51.499 -50.499)" fill="#FFFFEE" fill-opacity="1" d="M120.75,96.85 C120.75,96 120.4,95.65 119.75,95.8 119.75,96.6 119.9,97.2 120.25,97.55 L120.7,97.65 120.75,96.85z M128,91.05 L130.25,93.25 C129.6,94.25 129,94.75 128.5,94.75 127.3,94.75 126.25,94.2 125.3,93.05 124.6,92.2 124.25,91.6 124.25,91.25 124.25,90.75 125.05,89.95 126.7,88.8 L129.25,87.25 C129.5,87.25 130.5,87.65 132.15,88.5 134,89.45 135.2,90.2 135.75,90.75 135.5,91.75 134.75,92.25 133.5,92.25 132.05,92.25 131.15,92.1 130.75,91.75 L129.5,90.25 128,91.05zM138.25,93.75 C139.3,93.75 140.6,95.5 142.25,99 142.25,99.55 141.35,100.75 139.5,102.55 137.7,104.35 136.55,105.25 136,105.25 133.95,105.25 132.5,104.4 131.75,102.65 L131.25,99.85 C131.25,99.1 132.1,97.95 133.85,96.3 135.65,94.6 137.1,93.75 138.25,93.75z"/>
          <path id="path691" transform="matrix(1 0 0 1 -51.499 -50.499)" fill="#000000" fill-opacity="1" d="M128,91.05 L129.5,90.25 130.75,91.75 C131.15,92.1 132.05,92.25 133.5,92.25 134.75,92.25 135.5,91.75 135.75,90.75 135.2,90.2 134,89.45 132.15,88.5 130.5,87.65 129.5,87.25 129.25,87.25 L126.7,88.8 C125.05,89.95 124.25,90.75 124.25,91.25 124.25,91.6 124.6,92.2 125.3,93.05 126.25,94.2 127.3,94.75 128.5,94.75 129,94.75 129.6,94.25 130.25,93.25 L128,91.05z "/>
          <path id="path694" transform="matrix(1 0 0 1 -51.499 -50.499)" fill="#000000" fill-opacity="1" d="M138.25,93.75 C137.1,93.75 135.65,94.6 133.85,96.3 132.1,97.95 131.25,99.1 131.25,99.85 L131.75,102.65 C132.5,104.4 133.95,105.25 136,105.25 136.55,105.25 137.7,104.35 139.5,102.55 141.35,100.75 142.25,99.55 142.25,99 140.6,95.5 139.3,93.75 138.25,93.75z M137.25,97 L137.75,97 139.55,99.05 135.75,102.05 134.25,101.5 C133.9,101.35 133.75,100.85 133.75,100 L135.05,98.5 C136,97.5 136.75,97 137.25,97z"/>
          <path id="path697" transform="matrix(1 0 0 1 -51.499 -50.499)" fill="#FFFFEE" fill-opacity="1" d="M137.25,97 C136.75,97 136,97.5 135.05,98.5 L133.75,100 C133.75,100.85 133.9,101.35 134.25,101.5 L135.75,102.05 139.55,99.05 137.75,97 137.25,97z M155.25,96.85 C155.25,97.8 153,100.1 148.5,103.75 147.8,103.75 147.05,102.85 146.25,101.05 L145.25,98.15 C145.25,97.7 145.85,96.7 147,95.25 148.35,93.6 149.5,92.75 150.5,92.75 151.75,92.75 153.3,94.1 155.25,96.85z"/>
          <path id="path700" transform="matrix(1 0 0 1 -51.499 -50.499)" fill="#000000" fill-opacity="1" d="M155.25,96.85 C153.3,94.1 151.75,92.75 150.5,92.75 149.5,92.75 148.35,93.6 147,95.25 145.85,96.7 145.25,97.7 145.25,98.15 L146.25,101.05 C147.05,102.85 147.8,103.75 148.5,103.75 153,100.1 155.25,97.8 155.25,96.85z M150.25,95.75 C150.9,95.75 151.45,96.25 151.8,97.25 150.35,99 149.35,100 148.75,100.25 148.1,99.2 147.8,98.55 147.8,98.3 149.35,96.6 150.2,95.75 150.25,95.75z"/>
          <path id="path703" transform="matrix(1 0 0 1 -51.499 -50.499)" fill="#FFFFEE" fill-opacity="1" d="M150.25,95.75 C150.2,95.75 149.35,96.6 147.8,98.3 147.8,98.55 148.1,99.2 148.75,100.25 149.35,100 150.35,99 151.8,97.25 151.45,96.25 150.9,95.75 150.25,95.75z M147.5,106.75 L151.25,112.6 151.05,113.75 C151.2,114.1 150.85,114.25 150,114.25 149.3,114.25 148.55,113.7 147.8,112.6 147.1,111.55 146.75,110.65 146.75,109.8 145.95,110.05 144.4,111.25 142.1,113.3 L138.5,116.25 C137.15,116.25 136.15,115.85 135.55,115.05 L134.05,112.8 C131.2,116.45 129.2,118.25 128,118.25 126.25,118.25 124.85,117.65 123.8,116.4 L122,113.8 C121.6,113.95 121,114.5 120.15,115.55 L118.5,117.25 C117.65,117 117.25,116.45 117.25,115.6 117.25,115.05 118.1,114.05 119.75,112.5 121.3,111 122.25,110.25 122.5,110.25 122.65,110.25 124.15,112 127,115.55 L130.65,112.25 C132.8,110.25 134.2,109.25 134.75,109.25 135.7,109.25 136.35,109.7 136.7,110.65 137.15,111.9 137.6,112.7 138,113 L142.25,109.6 C144.8,107.7 146.55,106.75 147.5,106.75zM147,118.05 L145.25,115.85 C145.25,115.3 145.35,114.95 145.55,114.85 L146.75,114.75 152.25,118.75 C151.6,119.75 151,120.25 150.5,120.25 149.55,120.25 148.35,119.5 147,118.05zM159.75,118.75 C159.75,119.6 158.9,120.95 157.25,122.75 155.4,124.75 153.75,125.75 152.25,125.75 151.4,125.75 150.75,125.5 150.3,125.05 L150.25,124.35 C154.6,121.7 156.8,120 156.8,119.25 155.45,117 154.75,115.8 154.75,115.6 154.75,114.95 154.8,114.6 154.9,114.45 L156,114.25 C157.1,114.25 158.35,115.75 159.75,118.75zM124.25,102.5 C124.25,102.95 123.85,103.8 123,105.05 122.05,106.5 121.1,107.25 120.25,107.25 117.55,107.25 114.8,106.1 111.95,103.85 109.7,102.05 108.45,100.75 108.25,100 108.6,99.5 109.1,99.25 109.75,99.25 L113.4,101.65 C115.6,103.25 117.05,104.05 117.8,104.05 120.05,104.05 121.35,103.7 121.75,102.95 L123,100.75 C123.85,101.55 124.25,102.15 124.25,102.5zM130.25,123.25 C133.25,123.25 134.75,123.7 134.75,124.6 L132.5,131.75 C132.15,132.1 131.85,132.25 131.5,132.25 130.6,132.25 129.35,130.95 127.8,128.4 126.45,126.1 125.75,124.75 125.75,124.4 125.75,123.9 125.9,123.6 126.25,123.5 L130.25,123.25z"/>
          <path id="path706" transform="matrix(1 0 0 1 -51.499 -50.499)" fill="#000000" fill-opacity="1" d="M147.5,106.75 C146.55,106.75 144.8,107.7 142.25,109.6 L138,113 C137.6,112.7 137.15,111.9 136.7,110.65 136.35,109.7 135.7,109.25 134.75,109.25 134.2,109.25 132.8,110.25 130.65,112.25 L127,115.55 C124.15,112 122.65,110.25 122.5,110.25 122.25,110.25 121.3,111 119.75,112.5 118.1,114.05 117.25,115.05 117.25,115.6 117.25,116.45 117.65,117 118.5,117.25 L120.15,115.55 C121,114.5 121.6,113.95 122,113.8 L123.8,116.4 C124.85,117.65 126.25,118.25 128,118.25 129.2,118.25 131.2,116.45 134.05,112.8 L135.55,115.05 C136.15,115.85 137.15,116.25 138.5,116.25 L142.1,113.3 C144.4,111.25 145.95,110.05 146.75,109.8 146.75,110.65 147.1,111.55 147.8,112.6 148.55,113.7 149.3,114.25 150,114.25 150.85,114.25 151.2,114.1 151.05,113.75 L151.25,112.6 147.5,106.75z "/>
          <path id="path709" transform="matrix(1 0 0 1 -51.499 -50.499)" fill="#000000" fill-opacity="1" d="M147,118.05 C148.35,119.5 149.55,120.25 150.5,120.25 151,120.25 151.6,119.75 152.25,118.75 L146.75,114.75 145.55,114.85 C145.35,114.95 145.25,115.3 145.25,115.85 L147,118.05z "/>
          <path id="path712" transform="matrix(1 0 0 1 -51.499 -50.499)" fill="#000000" fill-opacity="1" d="M159.75,118.75 C158.35,115.75 157.1,114.25 156,114.25 L154.9,114.45 C154.8,114.6 154.75,114.95 154.75,115.6 154.75,115.8 155.45,117 156.8,119.25 156.8,120 154.6,121.7 150.25,124.35 L150.3,125.05 C150.75,125.5 151.4,125.75 152.25,125.75 153.75,125.75 155.4,124.75 157.25,122.75 158.9,120.95 159.75,119.6 159.75,118.75z "/>
          <path id="path715" transform="matrix(1 0 0 1 -51.499 -50.499)" fill="#000000" fill-opacity="1" d="M124.25,102.5 C124.25,102.15 123.85,101.55 123,100.75 L121.75,102.95 C121.35,103.7 120.05,104.05 117.8,104.05 117.05,104.05 115.6,103.25 113.4,101.65 L109.75,99.25 C109.1,99.25 108.6,99.5 108.25,100 108.45,100.75 109.7,102.05 111.95,103.85 114.8,106.1 117.55,107.25 120.25,107.25 121.1,107.25 122.05,106.5 123,105.05 123.85,103.8 124.25,102.95 124.25,102.5z "/>
          <path id="path718" transform="matrix(1 0 0 1 -51.499 -50.499)" fill="#000000" fill-opacity="1" d="M130.25,123.25 L126.25,123.5 C125.9,123.6 125.75,123.9 125.75,124.4 125.75,124.75 126.45,126.1 127.8,128.4 129.35,130.95 130.6,132.25 131.5,132.25 131.85,132.25 132.15,132.1 132.5,131.75 L134.75,124.6 C134.75,123.7 133.25,123.25 130.25,123.25z M129.05,126 L129,125.8 131.25,125.8 131.25,126.8 130.55,127.75 129.05,126z"/>
          <path id="path721" transform="matrix(1 0 0 1 -51.499 -50.499)" fill="#FFFFEE" fill-opacity="1" d="M129.05,126 L130.55,127.75 131.25,126.8 131.25,125.8 129,125.8 129.05,126z M138.5,130.25 C137.65,129.4 137.25,128.85 137.25,128.5 137.25,128.05 138.1,126.8 139.8,124.8 141.55,122.75 142.7,121.75 143.25,121.75 143.5,121.75 144.5,123.1 146.15,125.8 147.75,128.45 148.6,130 148.75,130.55 148.75,131 148.35,131.25 147.5,131.25 146.55,131.25 145.5,130.35 144.4,128.55 L142.55,125.3 C141.1,126.75 140,128.35 139.25,130 L138.5,130.25zM137.5,134.75 C137.95,134.75 138.7,135.25 139.75,136.25 140.8,137.25 141.55,137.75 142,137.75 L143.3,137.25 C143.65,137.3 143.8,136.9 143.8,136.05 L141.25,131.75 141.3,130.5 142.5,130.25 147.25,136.1 C144.4,139.2 142.85,140.75 142.5,140.75 141.55,140.75 140.35,140.2 138.85,139.05 137.15,137.8 136.3,136.55 136.25,135.25 L137.5,134.75zM102.25,109.35 C102.25,110.2 101.5,110.85 100,111.3 100.75,112.75 102.5,113.5 105.25,113.5 107.2,113.5 108.55,113.05 109.2,112.2 109.95,111.3 110.55,110.8 111,110.75 L111.85,110.95 C112.1,111.05 112.25,111.35 112.25,111.85 112.25,112.75 111.5,113.7 110,114.75 108.55,115.75 107.2,116.25 106,116.25 102.5,116.25 100,115.4 98.5,113.75 97.65,112.8 97.25,111.85 97.25,110.85 97.25,110.25 97.7,109.65 98.55,109.05 99.35,108.5 100,108.25 100.5,108.25 100.95,108.25 101.45,108.45 102,108.8 L102.15,108.6 102.25,109.35zM109.25,107 L107.35,109.5 104.5,112.25 C103.65,112 103.25,111.5 103.25,110.85 103.25,110.5 103.55,109.95 104.2,109.2 104.85,108.4 105.25,107.7 105.3,107.05 104.8,106.9 103.8,106.05 102.25,104.5 L95.5,109.75 C94.65,109.5 94.25,108.95 94.25,108.1 94.25,107.45 95.75,106 98.8,103.85 101.7,101.8 103.25,100.75 103.5,100.75 L109.25,107zM153.3,159.8 L154.5,159.25 C154.8,159.25 155.75,160.15 157.3,162 L158.95,160.05 160.05,158.05 C160.05,157.7 159.15,156.25 157.3,153.75 L154.15,157.65 152.9,159.45 152.85,159.55 151.75,161.5 151,161.75 C150.15,160.9 149.75,160.35 149.75,160 149.75,159.3 150.95,157.4 153.3,154.3 155.65,151.25 157.05,149.75 157.5,149.75 L163.75,157.6 C163.75,158.15 161.75,160.85 157.75,165.75 156.9,165.75 155.9,164.9 154.75,163.25 153.75,161.8 153.25,160.95 153.25,160.6 L153.3,159.8z"/>
          <path id="path724" transform="matrix(1 0 0 1 -51.499 -50.499)" fill="#000000" fill-opacity="1" d="M138.5,130.25 L139.25,130 C140,128.35 141.1,126.75 142.55,125.3 L144.4,128.55 C145.5,130.35 146.55,131.25 147.5,131.25 148.35,131.25 148.75,131 148.75,130.55 148.6,130 147.75,128.45 146.15,125.8 144.5,123.1 143.5,121.75 143.25,121.75 142.7,121.75 141.55,122.75 139.8,124.8 138.1,126.8 137.25,128.05 137.25,128.5 137.25,128.85 137.65,129.4 138.5,130.25z "/>
          <path id="path727" transform="matrix(1 0 0 1 -51.499 -50.499)" fill="#000000" fill-opacity="1" d="M137.5,134.75 L136.25,135.25 C136.3,136.55 137.15,137.8 138.85,139.05 140.35,140.2 141.55,140.75 142.5,140.75 142.85,140.75 144.4,139.2 147.25,136.1 L142.5,130.25 141.3,130.5 141.25,131.75 143.8,136.05 C143.8,136.9 143.65,137.3 143.3,137.25 L142,137.75 C141.55,137.75 140.8,137.25 139.75,136.25 138.7,135.25 137.95,134.75 137.5,134.75z "/>
          <path id="path730" transform="matrix(1 0 0 1 -51.499 -50.499)" fill="#000000" fill-opacity="1" d="M102.25,109.35 L102.15,108.6 102,108.8 C101.45,108.45 100.95,108.25 100.5,108.25 100,108.25 99.35,108.5 98.55,109.05 97.7,109.65 97.25,110.25 97.25,110.85 97.25,111.85 97.65,112.8 98.5,113.75 100,115.4 102.5,116.25 106,116.25 107.2,116.25 108.55,115.75 110,114.75 111.5,113.7 112.25,112.75 112.25,111.85 112.25,111.35 112.1,111.05 111.85,110.95 L111,110.75 C110.55,110.8 109.95,111.3 109.2,112.2 108.55,113.05 107.2,113.5 105.25,113.5 102.5,113.5 100.75,112.75 100,111.3 101.5,110.85 102.25,110.2 102.25,109.35z "/>
          <path id="path733" transform="matrix(1 0 0 1 -51.499 -50.499)" fill="#000000" fill-opacity="1" d="M109.25,107 L103.5,100.75 C103.25,100.75 101.7,101.8 98.8,103.85 95.75,106 94.25,107.45 94.25,108.1 94.25,108.95 94.65,109.5 95.5,109.75 L102.25,104.5 C103.8,106.05 104.8,106.9 105.3,107.05 105.25,107.7 104.85,108.4 104.2,109.2 103.55,109.95 103.25,110.5 103.25,110.85 103.25,111.5 103.65,112 104.5,112.25 L107.35,109.5 109.25,107z "/>
          <path id="path736" transform="matrix(1 0 0 1 -51.499 -50.499)" fill="#000000" fill-opacity="1" d="M153.3,159.8 L153.25,160.6 C153.25,160.95 153.75,161.8 154.75,163.25 155.9,164.9 156.9,165.75 157.75,165.75 161.75,160.85 163.75,158.15 163.75,157.6 L157.5,149.75 C157.05,149.75 155.65,151.25 153.3,154.3 150.95,157.4 149.75,159.3 149.75,160 149.75,160.35 150.15,160.9 151,161.75 L151.75,161.5 152.85,159.55 152.9,159.45 154.15,157.65 157.3,153.75 C159.15,156.25 160.05,157.7 160.05,158.05 L158.95,160.05 157.3,162 C155.75,160.15 154.8,159.25 154.5,159.25 L153.3,159.8z M191,189.75 L190.4,190.25 190.35,190.15 191,189.75zM191.5,196.2 L191.5,192.75 191.45,192.55 191.5,192.55 C196.65,192.7 196.75,193.85 191.75,196.1 L191.5,196.2zM113.45,66.05 C108.9,69.5 103.3,73.05 96.75,76.75 88.2,81.6 80.8,85.2 74.65,87.55 74.9,86.2 74.8,84.9 74.25,83.65 73.35,81.55 71.35,80.25 68.25,79.75 73.4,76.6 80.2,73.15 88.55,69.3 96.6,65.6 107,61.1 119.75,55.75 120.25,56.1 120.5,57.1 120.5,58.85 120.5,60.15 118.15,62.55 113.45,66.05zM59,86.5 L62.7,83.4 C62.75,83.7 63.2,83.55 63.95,83 L69.5,86.75 68.95,89.4 C65.7,90.3 62.9,90.75 60.5,90.75 59.1,90.75 58.1,89.7 57.5,87.65 L57.35,87.15 58.45,86.3 59,86.5z"/>
          <path id="path745" transform="matrix(1 0 0 1 -51.499 -50.499)" fill="#99731A" fill-opacity="1" d="M113.45,66.05 C118.15,62.55 120.5,60.15 120.5,58.85 120.5,57.1 120.25,56.1 119.75,55.75 107,61.1 96.6,65.6 88.55,69.3 80.2,73.15 73.4,76.6 68.25,79.75 71.35,80.25 73.35,81.55 74.25,83.65 74.8,84.9 74.9,86.2 74.65,87.55 80.8,85.2 88.2,81.6 96.75,76.75 103.3,73.05 108.9,69.5 113.45,66.05z "/>
          <path id="path748" transform="matrix(1 0 0 1 -51.499 -50.499)" fill="#826217" fill-opacity="1" d="M59,86.5 L58.45,86.3 57.35,87.15 57.5,87.65 C58.1,89.7 59.1,90.75 60.5,90.75 62.9,90.75 65.7,90.3 68.95,89.4 L69.5,86.75 63.95,83 C63.2,83.55 62.75,83.7 62.7,83.4 L59,86.5z "/>
        </g>
      </g>
    </symbol>
  </defs>
  <g id="sprite.__201571.__20(Items).__2F68">
    <g id="Layer.__220">
      <use xlink:href="#Graphic.__2Fshape.__201334" id="Graphic.__2Fshape.__201335" width="213.2" height="159.65" x="51.5" y="50.5" transform="matrix(1 0 0 1 0 0)" overflow="visible"/>
    </g>
  </g>
</svg>