<?xml version="1.0" encoding="utf-8"?>
<!-- Generator: flash2svg, http://dissentgraphics.com/tools/flash2svg -->
<svg xmlns:xlink="http://www.w3.org/1999/xlink" id="sprite.__201571.__20(Items).__2F80" image-rendering="optimizeSpeed" baseProfile="basic" version="1.1" style="background-color:#ffffff" x="0px" y="0px" width="550px" height="400px" viewBox="0 0 550 400" enable-background="new 0 0 550 400" xmlns="http://www.w3.org/2000/svg">
  <defs>
    <symbol id="Graphic.__2Fshape.__201346" viewBox="63.5 57.5 103 40">
      <g id="Layer.__288">
        <g id="shape944" transform="matrix(1 0 0 1 63.5 57.5)">
          <path id="path872" transform="matrix(1 0 0 1 -63.499 -57.499)" fill="#000000" fill-opacity="1" d="M166.5,67.75 L166.25,65.2 C165.7,63.9 164.4,62.75 162.25,61.8 156.05,58.95 143.3,57.5 124,57.5 87.15,57.5 67.15,61.2 63.95,68.65 L63.8,68.7 C63.6,68.85 63.5,69.55 63.5,70.75 L63.5,70.85 C63.5,72.75 64.6,74.3 66.8,75.5 76.95,84.45 86.5,89.65 95.4,91.1 L95.6,91.1 96.25,91.2 95.85,91.55 96.05,92.7 C96.25,94.85 96.95,96.15 98.15,96.7 L122.35,97.5 C130.3,97.5 135.4,96.9 137.65,95.75 138.8,95.15 139.35,93.9 139.35,92 139.35,90.9 139,90 138.25,89.35 144.2,88.1 149.7,85.95 154.65,82.8 161.55,78.4 165.1,74.05 165.35,69.7 166.1,68.85 166.5,68.2 166.5,67.75z "/>
          <path id="path873" transform="matrix(1 0 0 1 -63.499 -57.499)" fill="#FFEEEE" fill-opacity="1" d="M90.25,67.6 L87.75,68.1 80.9,69.25 72.35,72.65 C75.05,73.5 79.75,74.25 86.4,74.95 86.6,74 87.5,73.1 89.15,72.25 91.4,71.1 94.5,70.5 98.35,70.5 L142.1,72 143.05,72.2 C143.25,72.25 143.35,72.8 143.35,73.85 L143.35,74 C149.55,72.9 153.9,71.75 156.4,70.55 L151.15,68.8 146.75,67.4 C146.25,67.25 131,67.1 101,66.85 L94.75,67.1 90.25,67.6z M100.4,88.35 L100.6,88.35 101.75,88.45 102.1,88.5 111.3,88.75 C112.2,88.6 112.3,88.75 111.6,89.2 L109.85,90.45 105.75,90.6 99.1,91.25 99.1,93.55 C99.5,94.3 101.85,95 106.15,95.55 110.45,96.15 116.7,96.15 124.95,95.55 132,95.1 135.6,94.55 135.85,93.9 L136.3,92.75 135.4,90 126.35,90.5 C125.15,90.5 123.9,89.9 122.6,88.65 L129.45,87.45 C137.7,86.1 143.7,84.55 147.55,82.75 151.35,80.9 154.35,78.45 156.55,75.4 L149.3,77.5 C141.5,79.9 128.05,81 108.9,80.8 95.35,80.65 84.75,79.9 77.1,78.55 77.55,79.5 80.5,81.35 86,84 88.35,85.15 92.75,86.5 99.15,88.05 L99.2,88.2 100.4,88.35zM82.4,67.95 C88.95,66.75 95.35,65.95 101.5,65.5 L123.85,65.35 149.2,66.45 155.75,68.75 157.95,69.55 158,69.55 C160.3,67.6 160.6,66.45 158.95,66.1 L159.05,65.9 153.8,63.9 C151.85,63.15 143.8,62.65 129.65,62.3 115.45,61.95 104.8,61.95 97.7,62.2 83.9,63.2 74.6,65.7 69.75,69.75 L69.5,71 70,71.6 C71.65,70.35 75.8,69.15 82.4,67.95z"/>
          <path id="path874" transform="matrix(1 0 0 1 -63.499 -57.499)" fill="#FFC4C4" fill-opacity="1" d="M98.35,70.5 C94.5,70.5 91.4,71.1 89.15,72.25 87.5,73.1 86.6,74 86.4,74.95 L95.1,75.7 C111.55,76.95 125.6,76.75 137.15,75.05 L143.35,74 143.35,73.85 C143.35,72.8 143.25,72.25 143.05,72.2 L142.1,72 98.35,70.5z M100.6,88.35 L100.7,88.4 100.4,88.35 100.6,88.35zM158.95,66.1 L159.05,65.9 159.25,66 158.95,66.1z"/>
        </g>
      </g>
    </symbol>
  </defs>
  <g id="sprite.__201571.__20(Items).__2F80">
    <g id="Layer.__232">
      <use xlink:href="#Graphic.__2Fshape.__201346" id="Graphic.__2Fshape.__201347" width="103" height="40" x="63.5" y="57.5" transform="matrix(1 0 0 1 0 0)" overflow="visible"/>
    </g>
  </g>
</svg>