<?xml version="1.0" encoding="utf-8"?>
<!-- Generator: flash2svg, http://dissentgraphics.com/tools/flash2svg -->
<svg xmlns:xlink="http://www.w3.org/1999/xlink" id="sprite.__201571.__20(Items).__2F98" image-rendering="optimizeSpeed" baseProfile="basic" version="1.1" style="background-color:#ffffff" x="0px" y="0px" width="550px" height="400px" viewBox="0 0 550 400" enable-background="new 0 0 550 400" xmlns="http://www.w3.org/2000/svg">
  <defs>
    <symbol id="MovieClip.__2Fsprite.__201356" viewBox="-73.8 -247.85 169.55 485.7">
      <g id="Layer.__311">
        <use xlink:href="#Graphic.__2Fshape.__201406" id="Graphic.__2Fshape.__201407" width="169.55" height="485.7" x="-73.8" y="-247.85" transform="matrix(1 0 0 1 0 0)" overflow="visible"/>
      </g>
    </symbol>
    <symbol id="Graphic.__2Fshape.__201406" viewBox="-73.8 -247.85 169.55 485.7">
      <g id="Layer.__352">
        <g id="shape2085" transform="matrix(1 0 0 1 -73.799 -247.849)">
          <path id="path2025" transform="matrix(1 0 0 1 76.25 250.3)" fill="none" stroke="#000000" stroke-opacity="1" stroke-width="5" stroke-linecap="round" stroke-linejoin="round" d="M4.2,-119.35 L4.2,-112.45 C20.65,-104.4 26.9,-105.65 22.9,-116.3 54,-127.55 64.75,-143.8 55.1,-165.15 109.75,-109.95 109.3,-56.8 53.75,-5.65 66.8,-25.35 56.6,-40.25 23.1,-50.3 26.65,-60.65 20.35,-60.5 4.2,-49.85 L4.2,237.85 -6.8,237.85 -6.8,-56.8 C-12.85,-77.95 -24.15,-82.45 -40.8,-70.3 L-73.8,-79.65 C-52.25,-81 -29.9,-90.15 -6.8,-107.15 L-6.8,-119.3 -8.25,-120.15 C-10.15,-121.5 -11.1,-123.15 -11.1,-125.1 -11.1,-127.05 -10.15,-128.7 -8.25,-130.05 L-7.95,-130.25 C-11.2,-136 -13.4,-140.25 -14.55,-142.95 -16.4,-147.4 -17.3,-152.8 -17.2,-159.05 -17,-172.3 -11.7,-201.9 -1.3,-247.85 9.1,-201.9 14.4,-172.3 14.6,-159.05 14.7,-152.8 13.8,-147.4 11.95,-142.95 10.8,-140.25 8.5,-136.05 5.05,-130.4 L5.55,-130.05 C7.5,-128.7 8.45,-127.05 8.5,-125.1 8.45,-123.15 7.5,-121.5 5.55,-120.15 L4.2,-119.35z "/>
          <path id="path2026" transform="matrix(1 0 0 1 76.25 250.3)" fill="#6F6F6F" fill-opacity="1" d="M4.2,-112.45 L4.2,-119.35 C2.6,-118.5 0.75,-118.1 -1.3,-118.1 -3.35,-118.1 -5.2,-118.5 -6.8,-119.3 L-6.8,-107.15 -6.8,-56.8 -6.8,237.85 4.2,237.85 4.2,-49.85 4.2,-112.45z "/>
          <path id="path2027" transform="matrix(1 0 0 1 76.25 250.3)" fill="none" stroke="#000000" stroke-opacity="1" stroke-width="5" stroke-linecap="round" stroke-linejoin="round" d="M4.2,-112.45 L4.2,-119.35 C2.6,-118.5 0.75,-118.1 -1.3,-118.1 -3.35,-118.1 -5.2,-118.5 -6.8,-119.3 L-6.8,-107.15 -6.8,-56.8 -6.8,237.85 4.2,237.85 4.2,-49.85 4.2,-112.45z "/>
          <path id="path2028" transform="matrix(1 0 0 1 76.25 250.3)" fill="#6F6F6F" fill-opacity="1" d="M4.2,-119.35 L5.55,-120.15 C7.5,-121.5 8.45,-123.15 8.5,-125.1 8.45,-127.05 7.5,-128.7 5.55,-130.05 L5.05,-130.4 C3.25,-131.55 1.15,-132.1 -1.3,-132.1 -3.85,-132.1 -6.1,-131.5 -7.95,-130.25 L-8.25,-130.05 C-10.15,-128.7 -11.1,-127.05 -11.1,-125.1 -11.1,-123.15 -10.15,-121.5 -8.25,-120.15 L-6.8,-119.3 C-5.2,-118.5 -3.35,-118.1 -1.3,-118.1 0.75,-118.1 2.6,-118.5 4.2,-119.35z "/>
          <path id="path2029" transform="matrix(1 0 0 1 76.25 250.3)" fill="none" stroke="#000000" stroke-opacity="1" stroke-width="5" stroke-linecap="round" stroke-linejoin="round" d="M4.2,-119.35 L5.55,-120.15 C7.5,-121.5 8.45,-123.15 8.5,-125.1 8.45,-127.05 7.5,-128.7 5.55,-130.05 L5.05,-130.4 C3.25,-131.55 1.15,-132.1 -1.3,-132.1 -3.85,-132.1 -6.1,-131.5 -7.95,-130.25 L-8.25,-130.05 C-10.15,-128.7 -11.1,-127.05 -11.1,-125.1 -11.1,-123.15 -10.15,-121.5 -8.25,-120.15 L-6.8,-119.3 C-5.2,-118.5 -3.35,-118.1 -1.3,-118.1 0.75,-118.1 2.6,-118.5 4.2,-119.35z "/>
          <path id="path2031" transform="matrix(1 0 0 1 76.25 250.3)" fill="#B7B7B7" fill-opacity="1" d="M5.05,-130.4 C8.5,-136.05 10.8,-140.25 11.95,-142.95 13.8,-147.4 14.7,-152.8 14.6,-159.05 14.4,-172.3 9.1,-201.9 -1.3,-247.85 -11.7,-201.9 -17,-172.3 -17.2,-159.05 -17.3,-152.8 -16.4,-147.4 -14.55,-142.95 -13.4,-140.25 -11.2,-136 -7.95,-130.25 -6.1,-131.5 -3.85,-132.1 -1.3,-132.1 1.15,-132.1 3.25,-131.55 5.05,-130.4z M22.9,-116.3 C26.9,-105.65 20.65,-104.4 4.2,-112.45 L4.2,-49.85 C20.35,-60.5 26.65,-60.65 23.1,-50.3 56.6,-40.25 66.8,-25.35 53.75,-5.65 109.3,-56.8 109.75,-109.95 55.1,-165.15 64.75,-143.8 54,-127.55 22.9,-116.3zM-73.8,-79.65 L-40.8,-70.3 C-24.15,-82.45 -12.85,-77.95 -6.8,-56.8 L-6.8,-107.15 C-29.9,-90.15 -52.25,-81 -73.8,-79.65z"/>
          <path id="path2032" transform="matrix(1 0 0 1 76.25 250.3)" fill="none" stroke="#000000" stroke-opacity="1" stroke-width="5" stroke-linecap="round" stroke-linejoin="round" d="M5.05,-130.4 C8.5,-136.05 10.8,-140.25 11.95,-142.95 13.8,-147.4 14.7,-152.8 14.6,-159.05 14.4,-172.3 9.1,-201.9 -1.3,-247.85 -11.7,-201.9 -17,-172.3 -17.2,-159.05 -17.3,-152.8 -16.4,-147.4 -14.55,-142.95 -13.4,-140.25 -11.2,-136 -7.95,-130.25 -6.1,-131.5 -3.85,-132.1 -1.3,-132.1 1.15,-132.1 3.25,-131.55 5.05,-130.4z "/>
          <path id="path2034" transform="matrix(1 0 0 1 76.25 250.3)" fill="none" stroke="#000000" stroke-opacity="1" stroke-width="5" stroke-linecap="round" stroke-linejoin="round" d="M22.9,-116.3 C26.9,-105.65 20.65,-104.4 4.2,-112.45 L4.2,-49.85 C20.35,-60.5 26.65,-60.65 23.1,-50.3 56.6,-40.25 66.8,-25.35 53.75,-5.65 109.3,-56.8 109.75,-109.95 55.1,-165.15 64.75,-143.8 54,-127.55 22.9,-116.3z "/>
          <path id="path2037" transform="matrix(1 0 0 1 76.25 250.3)" fill="none" stroke="#000000" stroke-opacity="1" stroke-width="5" stroke-linecap="round" stroke-linejoin="round" d="M-73.8,-79.65 L-40.8,-70.3 C-24.15,-82.45 -12.85,-77.95 -6.8,-56.8 L-6.8,-107.15 C-29.9,-90.15 -52.25,-81 -73.8,-79.65z "/>
        </g>
      </g>
    </symbol>
  </defs>
  <g id="sprite.__201571.__20(Items).__2F98">
    <g id="Layer.__252">
      <use xlink:href="#MovieClip.__2Fsprite.__201356" id="MovieClip.__2Fsprite.__201357" width="169.55" height="485.7" x="-73.8" y="-247.85" transform="matrix(0.049713134765625 0.645416259765625 -0.645416259765625 0.049713134765625 133.25 56.45)" overflow="visible"/>
    </g>
  </g>
</svg>