<?xml version="1.0" encoding="UTF-8" standalone="no"?>
<svg xmlns:xlink="http://www.w3.org/1999/xlink" height="720.75px" width="1716.8px" xmlns="http://www.w3.org/2000/svg">
  <g transform="matrix(1, 0, 0, 1, 307.05, 450.35)">
    <use height="360.8" transform="matrix(0.5, 0.0, 0.0, 0.5, -38.925, -108.5)" width="211.6" xlink:href="#sprite0"/>
  </g>
  <defs>
    <g id="sprite0" transform="matrix(1, 0, 0, 1, 92.95, 288.4)">
      <use height="350.8" transform="matrix(1.0, 0.0, 0.0, 1.0, -92.95, -288.4)" width="211.6" xlink:href="#sprite1"/>
    </g>
    <g id="sprite1" transform="matrix(1, 0, 0, 1, 93.4, 288.6)">
      <use height="350.8" transform="matrix(1.0, 0.0, 0.0, 1.0, -93.4, -288.6)" width="211.6" xlink:href="#shape0"/>
    </g>
    <g id="shape0" transform="matrix(1, 0, 0, 1, 93.4, 288.6)">
      <path d="M-61.75 -234.0 L-61.1 -233.3 Q-58.6 -230.65 -58.6 -229.6 -58.6 -228.1 -60.0 -227.25 -61.05 -226.6 -62.0 -226.6 -72.2 -226.6 -77.4 -240.95 -80.0 -248.1 -80.6 -255.5 -80.6 -256.65 -81.1 -260.8 -81.25 -264.9 -79.6 -267.8 -74.65 -276.6 -52.8 -276.6 -40.45 -276.6 -30.2 -273.4 -25.45 -271.95 -22.8 -270.25 -20.5 -271.8 -17.2 -271.8 L-14.85 -271.45 -12.35 -274.15 Q-8.85 -277.45 -3.6 -280.6 9.55 -288.6 20.0 -288.6 33.9 -288.6 39.45 -275.05 41.15 -270.8 41.85 -265.7 L42.2 -261.3 Q42.5 -258.4 42.25 -256.8 41.8 -253.8 39.2 -253.8 38.05 -253.8 36.95 -258.25 L36.55 -259.95 34.6 -267.6 34.55 -267.75 34.55 -267.8 34.5 -267.95 34.5 -268.0 Q30.1 -282.2 20.0 -282.2 6.65 -282.2 -2.6 -274.0 L-8.3 -268.35 -9.45 -267.3 -8.0 -265.25 -7.7 -264.6 -7.6 -264.4 -6.75 -262.55 -6.65 -262.35 -5.25 -259.15 -5.0 -258.5 Q-5.0 -255.4 -8.4 -255.4 -9.95 -255.4 -12.5 -258.8 -14.3 -261.25 -16.6 -265.4 -20.2 -264.25 -21.45 -259.55 L-21.5 -259.35 -21.7 -258.6 -22.45 -256.65 Q-23.2 -255.4 -24.8 -255.4 L-26.4 -255.65 -27.6 -256.4 -27.75 -258.5 -27.8 -260.3 Q-27.8 -262.15 -27.15 -264.0 L-31.85 -266.4 Q-40.75 -270.2 -52.1 -270.2 -69.7 -270.2 -73.8 -263.8 -75.15 -261.75 -75.0 -259.0 L-74.6 -256.0 Q-74.6 -248.15 -66.6 -239.1 L-61.75 -234.0" fill="#000000" fill-rule="evenodd" stroke="none"/>
      <path d="M36.55 -259.95 L36.75 -259.1 34.6 -258.95 Q34.7 -259.95 35.2 -260.7 26.45 -259.0 0.4 -259.0 L-5.15 -258.9 -5.25 -259.15 -6.65 -262.35 -6.75 -262.55 -7.6 -264.4 -7.7 -264.6 -8.0 -265.25 -9.45 -267.3 -8.3 -268.35 -2.6 -274.0 Q6.65 -282.2 20.0 -282.2 30.1 -282.2 34.5 -268.0 L34.5 -267.95 34.55 -267.8 34.55 -267.75 34.6 -267.6 36.55 -259.95 M-12.5 -258.8 L-21.7 -258.6 -21.5 -259.35 -21.45 -259.55 Q-20.2 -264.25 -16.6 -265.4 -14.3 -261.25 -12.5 -258.8 M-27.75 -258.5 L-33.2 -258.4 Q-36.75 -257.3 -38.2 -256.4 L-45.0 -252.0 Q-54.7 -244.4 -56.2 -242.4 -59.25 -238.25 -61.75 -234.0 L-66.6 -239.1 Q-74.6 -248.15 -74.6 -256.0 L-75.0 -259.0 Q-75.15 -261.75 -73.8 -263.8 -69.7 -270.2 -52.1 -270.2 -40.75 -270.2 -31.85 -266.4 L-27.15 -264.0 Q-27.8 -262.15 -27.8 -260.3 L-27.75 -258.5" fill="#ff4444" fill-rule="evenodd" stroke="none"/>
      <path d="M67.35 -264.15 Q75.7 -266.2 78.4 -266.2 81.9 -266.2 81.4 -262.2 81.4 -259.4 76.85 -251.1 73.2 -244.4 70.8 -241.2 82.5 -231.1 88.1 -219.25 92.7 -209.45 93.8 -196.85 94.35 -190.45 94.05 -174.3 93.75 -159.95 95.0 -151.8 96.3 -142.95 98.95 -127.2 L102.4 -107.4 Q102.65 -105.8 104.65 -96.35 106.2 -89.0 106.2 -85.2 106.2 -77.15 112.2 -69.9 115.2 -66.3 118.2 -64.1 118.2 -63.0 116.4 -60.0 114.35 -56.65 111.4 -53.55 103.3 -45.0 94.8 -45.0 86.55 -45.0 85.45 -45.75 85.7 -46.7 84.6 -47.0 82.4 -43.1 80.6 -41.4 80.2 -38.6 76.0 -38.6 72.25 -38.6 70.7 -41.55 69.8 -43.25 69.8 -45.0 69.35 -44.95 66.85 -42.5 64.45 -40.2 62.8 -40.2 60.0 -40.2 58.85 -42.5 57.75 -44.8 57.4 -44.8 56.2 -44.8 48.25 -41.7 L40.4 -38.6 Q36.5 -38.6 35.85 -41.2 L35.5 -43.0 Q35.25 -43.8 34.4 -43.8 30.6 -43.8 28.7 -42.0 26.8 -40.2 20.4 -40.2 16.7 -40.2 15.35 -41.3 14.6 -42.4 14.0 -42.4 11.05 -42.4 6.55 -38.9 2.05 -35.4 -1.2 -35.4 L-3.2 -35.6 Q-5.7 -36.15 -7.4 -38.2 -9.1 -41.0 -9.5 -41.0 -14.05 -41.0 -17.5 -39.0 -20.95 -37.0 -23.6 -37.0 -28.55 -37.0 -29.35 -38.6 -29.35 -40.2 -30.1 -40.2 -32.9 -40.2 -35.7 -38.6 L-37.2 -37.75 Q-37.5 -37.5 -37.95 -37.35 -38.65 -37.0 -38.8 -37.0 L-39.5 -37.0 -40.4 -37.0 -54.0 -39.4 Q-58.75 -39.4 -60.3 -42.6 -61.85 -45.8 -65.6 -45.8 -74.4 -45.8 -76.4 -51.75 -77.0 -53.6 -76.85 -55.9 L-76.6 -57.9 Q-76.6 -61.1 -75.2 -66.65 L-72.2 -78.3 Q-67.8 -96.2 -67.8 -114.6 -67.8 -132.35 -69.8 -150.3 -71.8 -168.25 -71.8 -185.7 -71.8 -199.4 -71.3 -204.85 -70.3 -215.25 -66.8 -223.8 -62.85 -233.4 -56.2 -242.4 -54.7 -244.4 -45.0 -252.0 L-38.2 -256.4 Q-36.75 -257.3 -33.2 -258.4 L0.4 -259.0 Q26.45 -259.0 35.2 -260.7 34.7 -259.95 34.6 -258.95 46.55 -259.55 58.0 -261.8 L67.35 -264.15 M73.6 -258.95 L60.25 -255.75 Q47.15 -253.0 34.4 -253.0 L27.65 -253.2 -33.4 -252.0 Q-37.9 -250.7 -40.6 -248.0 L-46.0 -243.75 Q-49.9 -240.9 -51.2 -239.0 -59.4 -226.7 -61.4 -221.0 -65.8 -208.6 -65.8 -185.3 -65.8 -170.35 -64.05 -153.75 L-61.8 -157.85 Q-58.2 -164.2 -58.2 -173.4 L-59.0 -197.7 Q-59.0 -215.4 -47.75 -230.4 -36.55 -245.4 -23.2 -245.4 -18.1 -245.4 -18.6 -242.3 -23.2 -240.2 -29.25 -236.5 -41.3 -229.15 -48.2 -220.4 -53.0 -214.3 -53.0 -197.9 L-52.2 -164.0 -52.2 -163.6 -52.0 -163.7 Q-43.05 -169.1 -34.95 -179.05 -30.5 -184.55 -23.0 -194.4 -19.3 -198.45 -11.3 -219.85 -12.6 -224.85 -12.6 -227.5 -12.6 -231.0 -9.6 -231.0 -7.6 -231.0 -2.75 -219.05 2.1 -207.15 3.0 -200.0 4.6 -187.55 4.6 -169.4 L4.6 -169.2 4.7 -169.35 Q10.5 -179.75 13.9 -193.85 17.0 -207.05 17.0 -219.1 17.0 -223.8 15.0 -229.8 L13.0 -236.2 13.2 -238.0 14.1 -238.5 Q14.85 -239.0 16.0 -239.0 20.2 -239.0 32.15 -219.95 L41.9 -204.05 Q47.25 -195.25 50.15 -191.2 L50.4 -190.8 Q50.6 -189.6 50.6 -191.6 50.6 -213.8 34.6 -232.2 29.75 -237.85 23.6 -242.75 L18.6 -246.6 Q18.6 -249.4 22.0 -249.4 36.0 -249.4 44.65 -233.2 48.5 -231.4 62.2 -210.75 69.75 -199.45 76.6 -188.0 76.6 -184.3 73.8 -184.2 L73.9 -180.45 Q73.95 -173.8 73.6 -161.6 L77.9 -147.7 Q82.2 -133.85 82.2 -131.0 82.2 -129.2 81.25 -127.2 79.65 -123.9 75.5 -120.1 68.5 -113.75 56.8 -108.2 29.9 -95.45 -3.2 -94.65 L-7.6 -94.6 Q-22.25 -94.6 -32.15 -103.7 -30.6 -91.75 -30.6 -80.8 -29.6 -66.6 -33.6 -66.6 L-35.2 -66.85 -36.4 -67.6 -37.0 -86.55 Q-37.4 -97.8 -38.4 -105.4 -38.7 -107.8 -39.9 -113.75 -41.4 -116.55 -41.4 -117.1 -41.4 -118.3 -41.05 -119.1 L-42.65 -126.4 Q-46.2 -142.0 -46.2 -143.2 -45.7 -149.85 -44.6 -156.35 L-43.8 -160.35 -48.25 -156.25 Q-61.45 -144.2 -62.4 -144.2 L-63.1 -144.25 -63.1 -144.15 Q-61.8 -129.55 -61.8 -114.5 -61.8 -96.75 -66.2 -76.85 L-69.2 -64.45 Q-70.6 -59.05 -70.6 -57.8 L-70.55 -54.8 Q-69.95 -52.0 -67.0 -52.0 -63.95 -52.0 -63.3 -53.5 -62.65 -55.0 -60.8 -55.0 -59.3 -55.0 -58.35 -53.75 L-56.75 -51.0 Q-54.3 -47.0 -48.4 -47.0 -44.9 -47.0 -39.65 -42.9 L-36.6 -44.55 Q-31.4 -47.0 -28.4 -47.0 -23.1 -47.0 -24.2 -43.2 -21.9 -43.55 -16.9 -45.85 -12.65 -47.8 -8.8 -47.8 -5.65 -47.8 -4.4 -44.7 -3.85 -43.35 -3.2 -42.55 -2.4 -41.6 -1.4 -41.6 -0.15 -41.6 5.0 -45.5 10.15 -49.4 15.6 -49.4 19.0 -49.4 19.4 -48.0 19.8 -46.6 21.7 -46.6 24.25 -46.6 27.8 -48.4 31.4 -50.2 34.0 -50.2 37.35 -50.2 39.05 -47.8 40.75 -45.4 41.4 -45.4 58.1 -51.8 58.4 -51.8 61.35 -51.8 62.1 -50.55 L63.4 -48.0 Q64.9 -49.8 66.0 -51.65 66.8 -52.6 69.2 -52.6 74.2 -52.6 75.45 -49.4 75.8 -48.55 75.8 -45.2 L75.85 -45.2 79.25 -50.15 84.0 -56.6 Q85.7 -56.6 86.45 -55.8 L87.5 -54.0 Q89.05 -51.4 94.9 -51.4 103.2 -51.4 106.85 -56.55 107.85 -58.0 108.95 -60.6 109.9 -62.9 110.4 -63.4 99.05 -81.8 94.65 -107.7 93.6 -114.0 92.05 -127.2 L91.7 -129.9 Q90.05 -144.35 88.6 -152.2 87.4 -159.0 88.05 -174.15 88.7 -189.05 87.2 -196.6 82.9 -217.9 72.2 -229.7 L65.45 -236.25 Q62.6 -239.0 62.6 -241.0 62.6 -241.75 66.85 -248.15 72.1 -256.05 73.6 -258.8 L73.8 -259.0 73.6 -258.95 M51.6 -214.6 Q56.15 -197.15 56.6 -179.5 57.7 -162.6 53.6 -162.6 L52.0 -162.85 50.8 -163.6 Q49.05 -186.25 23.2 -220.6 L23.0 -220.6 Q22.4 -197.9 17.6 -184.0 5.25 -148.2 1.6 -148.2 L0.0 -148.45 -1.2 -149.2 Q-1.7 -180.95 -2.4 -188.8 -2.85 -193.8 -7.65 -208.0 -9.05 -203.1 -12.15 -198.75 -20.8 -188.35 -27.0 -179.2 -30.4 -174.2 -36.45 -167.75 -36.25 -167.15 -36.2 -166.3 L-38.2 -155.85 Q-40.2 -145.15 -40.2 -143.2 -40.2 -141.35 -35.4 -122.4 L-34.55 -118.4 -34.05 -117.55 -30.95 -110.8 Q-25.3 -101.0 -7.2 -101.0 L-3.2 -101.05 Q27.75 -101.7 53.05 -112.95 63.65 -117.7 70.1 -123.05 72.8 -125.3 74.3 -127.2 76.2 -129.65 76.2 -131.6 76.2 -132.7 74.85 -136.7 L71.8 -146.0 Q67.4 -161.05 67.4 -176.0 67.2 -180.25 67.45 -184.35 67.75 -189.0 68.65 -191.0 L51.8 -214.7 51.45 -215.15 51.6 -214.6" fill="#000000" fill-rule="evenodd" stroke="none"/>
      <path d="M-52.2 -164.0 L-53.0 -197.9 Q-53.0 -214.3 -48.2 -220.4 -41.3 -229.15 -29.25 -236.5 -23.2 -240.2 -18.6 -242.3 -18.1 -245.4 -23.2 -245.4 -36.55 -245.4 -47.75 -230.4 -59.0 -215.4 -59.0 -197.7 L-58.2 -173.4 Q-58.2 -164.2 -61.8 -157.85 L-64.05 -153.75 Q-65.8 -170.35 -65.8 -185.3 -65.8 -208.6 -61.4 -221.0 -59.4 -226.7 -51.2 -239.0 -49.9 -240.9 -46.0 -243.75 L-40.6 -248.0 Q-37.9 -250.7 -33.4 -252.0 L27.65 -253.2 34.4 -253.0 Q47.15 -253.0 60.25 -255.75 L73.6 -258.95 73.6 -258.8 Q72.1 -256.05 66.85 -248.15 62.6 -241.75 62.6 -241.0 62.6 -239.0 65.45 -236.25 L72.2 -229.7 Q82.9 -217.9 87.2 -196.6 88.7 -189.05 88.05 -174.15 87.4 -159.0 88.6 -152.2 90.05 -144.35 91.7 -129.9 L92.05 -127.2 Q93.6 -114.0 94.65 -107.7 99.05 -81.8 110.4 -63.4 109.9 -62.9 108.95 -60.6 107.85 -58.0 106.85 -56.55 103.2 -51.4 94.9 -51.4 89.05 -51.4 87.5 -54.0 L86.45 -55.8 Q85.7 -56.6 84.0 -56.6 L79.25 -50.15 75.85 -45.2 75.8 -45.2 Q75.8 -48.55 75.45 -49.4 74.2 -52.6 69.2 -52.6 66.8 -52.6 66.0 -51.65 64.9 -49.8 63.4 -48.0 L62.1 -50.55 Q61.35 -51.8 58.4 -51.8 58.1 -51.8 41.4 -45.4 40.75 -45.4 39.05 -47.8 37.35 -50.2 34.0 -50.2 31.4 -50.2 27.8 -48.4 24.25 -46.6 21.7 -46.6 19.8 -46.6 19.4 -48.0 19.0 -49.4 15.6 -49.4 10.15 -49.4 5.0 -45.5 -0.15 -41.6 -1.4 -41.6 -2.4 -41.6 -3.2 -42.55 -3.85 -43.35 -4.4 -44.7 -5.65 -47.8 -8.8 -47.8 -12.65 -47.8 -16.9 -45.85 -21.9 -43.55 -24.2 -43.2 -23.1 -47.0 -28.4 -47.0 -31.4 -47.0 -36.6 -44.55 L-39.65 -42.9 Q-44.9 -47.0 -48.4 -47.0 -54.3 -47.0 -56.75 -51.0 L-58.35 -53.75 Q-59.3 -55.0 -60.8 -55.0 -62.65 -55.0 -63.3 -53.5 -63.95 -52.0 -67.0 -52.0 -69.95 -52.0 -70.55 -54.8 L-70.6 -57.8 Q-70.6 -59.05 -69.2 -64.45 L-66.2 -76.85 Q-61.8 -96.75 -61.8 -114.5 -61.8 -129.55 -63.1 -144.15 L-62.4 -144.2 Q-61.45 -144.2 -48.25 -156.25 L-43.8 -160.35 -44.6 -156.35 Q-45.7 -149.85 -46.2 -143.2 -46.2 -142.0 -42.65 -126.4 L-41.05 -119.1 Q-41.4 -118.3 -41.4 -117.1 -41.4 -116.55 -39.9 -113.75 -38.7 -107.8 -38.4 -105.4 -37.4 -97.8 -37.0 -86.55 L-36.4 -67.6 -35.2 -66.85 -33.6 -66.6 Q-29.6 -66.6 -30.6 -80.8 -30.6 -91.75 -32.15 -103.7 -22.25 -94.6 -7.6 -94.6 L-3.2 -94.65 Q29.9 -95.45 56.8 -108.2 68.5 -113.75 75.5 -120.1 79.65 -123.9 81.25 -127.2 82.2 -129.2 82.2 -131.0 82.2 -133.85 77.9 -147.7 L73.6 -161.6 Q73.95 -173.8 73.9 -180.45 L73.8 -184.2 Q76.6 -184.3 76.6 -188.0 69.75 -199.45 62.2 -210.75 48.5 -231.4 44.65 -233.2 36.0 -249.4 22.0 -249.4 18.6 -249.4 18.6 -246.6 L23.6 -242.75 Q29.75 -237.85 34.6 -232.2 50.6 -213.8 50.6 -191.6 L50.15 -191.2 Q47.25 -195.25 41.9 -204.05 L32.15 -219.95 Q20.2 -239.0 16.0 -239.0 14.85 -239.0 14.1 -238.5 L13.2 -238.0 13.0 -236.2 15.0 -229.8 Q17.0 -223.8 17.0 -219.1 17.0 -207.05 13.9 -193.85 10.5 -179.75 4.7 -169.35 L4.6 -169.4 Q4.6 -187.55 3.0 -200.0 2.1 -207.15 -2.75 -219.05 -7.6 -231.0 -9.6 -231.0 -12.6 -231.0 -12.6 -227.5 -12.6 -224.85 -11.3 -219.85 -19.3 -198.45 -23.0 -194.4 -30.5 -184.55 -34.95 -179.05 -43.05 -169.1 -52.0 -163.7 L-52.2 -164.0" fill="#ffff80" fill-rule="evenodd" stroke="none"/>
      <path d="M51.8 -214.7 L68.65 -191.0 Q67.75 -189.0 67.45 -184.35 67.2 -180.25 67.4 -176.0 67.4 -161.05 71.8 -146.0 L74.85 -136.7 Q76.2 -132.7 76.2 -131.6 76.2 -129.65 74.3 -127.2 72.8 -125.3 70.1 -123.05 63.65 -117.7 53.05 -112.95 27.75 -101.7 -3.2 -101.05 L-7.2 -101.0 Q-25.3 -101.0 -30.95 -110.8 L-34.05 -117.55 -34.55 -118.4 -35.4 -122.4 Q-40.2 -141.35 -40.2 -143.2 -40.2 -145.15 -38.2 -155.85 L-36.2 -166.3 Q-36.25 -167.15 -36.45 -167.75 -30.4 -174.2 -27.0 -179.2 -20.8 -188.35 -12.15 -198.75 -9.05 -203.1 -7.65 -208.0 -2.85 -193.8 -2.4 -188.8 -1.7 -180.95 -1.2 -149.2 L0.0 -148.45 1.6 -148.2 Q5.25 -148.2 17.6 -184.0 22.4 -197.9 23.0 -220.6 L23.2 -220.6 Q49.05 -186.25 50.8 -163.6 L52.0 -162.85 53.6 -162.6 Q57.7 -162.6 56.6 -179.5 56.15 -197.15 51.6 -214.6 L51.8 -214.7" fill="#fff1dd" fill-rule="evenodd" stroke="none"/>
      <path d="M39.3 4.6 L45.0 4.8 Q69.05 4.8 79.2 0.0 81.75 -1.25 85.65 -4.1 89.1 -6.6 91.8 -7.6 L61.2 -30.2 Q53.0 -35.95 36.4 -41.8 22.6 -46.7 22.6 -47.8 22.6 -48.5 36.35 -55.2 51.85 -62.8 56.0 -65.8 73.95 -78.85 77.8 -86.2 L77.8 -91.0 Q61.9 -91.2 58.65 -92.85 55.55 -94.4 41.2 -94.4 L27.8 -92.35 13.8 -89.6 Q12.0 -89.15 10.65 -88.15 8.35 -86.5 7.15 -83.3 L5.75 -80.0 Q4.85 -78.6 3.2 -78.6 -0.8 -78.6 0.2 -83.5 0.2 -91.85 14.2 -96.4 27.15 -100.6 48.4 -100.6 77.65 -100.6 83.6 -95.2 86.65 -92.45 83.8 -89.5 83.8 -79.2 70.8 -68.8 62.0 -61.75 37.4 -48.2 47.6 -44.2 74.4 -26.4 100.6 -9.0 100.6 -6.8 100.6 -4.5 96.2 -1.45 91.7 1.65 84.2 4.4 66.1 11.0 44.8 11.0 30.7 11.0 21.8 4.6 18.8 2.35 16.9 -0.2 15.4 -2.25 15.4 -3.2 15.4 -6.2 18.8 -6.2 21.05 -6.2 22.2 -4.5 L24.5 -0.7 Q28.2 3.75 39.3 4.6 M-48.75 9.6 Q-23.65 9.35 -19.05 6.9 -18.15 6.45 -17.65 5.05 -17.3 4.2 -14.8 4.2 -11.4 4.2 -11.4 7.3 -11.4 10.3 -18.2 12.8 -26.45 15.8 -40.4 15.8 -68.1 15.8 -82.05 8.55 -86.75 6.15 -89.2 3.2 -91.0 1.1 -91.0 -0.1 -91.0 -3.8 -76.4 -23.8 -74.25 -26.75 -65.4 -34.35 -54.65 -43.55 -51.6 -46.6 L-51.2 -47.2 Q-67.35 -53.4 -80.55 -70.2 -92.6 -85.45 -92.6 -95.5 -92.6 -96.0 -93.3 -97.2 -93.7 -98.2 -92.4 -98.85 -88.75 -100.6 -68.0 -100.6 -11.4 -100.6 -11.4 -92.1 -11.4 -89.0 -14.8 -89.0 L-25.8 -91.7 -27.3 -92.05 Q-37.9 -94.4 -45.4 -94.4 L-86.6 -94.2 Q-82.4 -83.6 -73.0 -70.2 -71.65 -68.25 -67.2 -64.75 L-58.8 -58.2 Q-48.45 -49.6 -36.85 -49.2 L-36.75 -49.2 -30.5 -49.35 Q-28.2 -49.3 -28.2 -47.9 -28.2 -46.7 -29.0 -46.75 L-31.95 -47.25 -36.8 -46.85 -37.6 -46.65 -43.65 -44.3 -43.8 -44.25 -43.95 -44.15 -44.1 -44.1 -47.4 -42.2 Q-52.3 -39.05 -55.6 -36.2 -67.7 -25.4 -68.6 -24.2 -71.65 -20.1 -75.95 -13.0 -80.45 -5.6 -84.4 -0.2 -76.55 9.6 -54.6 9.6 L-48.75 9.6" fill="#fff8bb" fill-opacity="0.9019608" fill-rule="evenodd" stroke="none"/>
      <path d="M10.65 -88.15 Q12.0 -89.15 13.8 -89.6 L27.8 -92.35 41.2 -94.4 Q55.55 -94.4 58.65 -92.85 61.9 -91.2 77.8 -91.0 L77.8 -86.2 Q73.95 -78.85 56.0 -65.8 51.85 -62.8 36.35 -55.2 22.6 -48.5 22.6 -47.8 22.6 -46.7 36.4 -41.8 53.0 -35.95 61.2 -30.2 L91.8 -7.6 Q89.1 -6.6 85.65 -4.1 81.75 -1.25 79.2 0.0 69.05 4.8 45.0 4.8 L39.3 4.6 37.35 0.25 36.55 -1.6 Q24.8 -27.95 22.0 -36.2 20.6 -40.3 19.0 -46.9 L20.0 -47.15 19.0 -46.9 Q16.35 -57.6 13.15 -74.85 L10.65 -88.15 M-27.3 -92.05 Q-29.15 -85.65 -31.35 -75.3 L-36.35 -49.2 -36.75 -49.2 -36.85 -49.2 Q-48.45 -49.6 -58.8 -58.2 L-67.2 -64.75 Q-71.65 -68.25 -73.0 -70.2 -82.4 -83.6 -86.6 -94.2 L-45.4 -94.4 Q-37.9 -94.4 -27.3 -92.05 M-36.8 -46.85 L-39.0 -35.4 Q-45.35 -7.1 -48.75 9.6 L-54.6 9.6 Q-76.55 9.6 -84.4 -0.2 -80.45 -5.6 -75.95 -13.0 -71.65 -20.1 -68.6 -24.2 -67.7 -25.4 -55.6 -36.2 -52.3 -39.05 -47.4 -42.2 L-44.1 -44.1 -43.95 -44.15 -43.8 -44.25 -43.65 -44.3 -37.6 -46.65 -36.8 -46.85" fill="#fffbd5" fill-opacity="0.7529412" fill-rule="evenodd" stroke="none"/>
      <path d="M33.25 -9.0 L33.8 -9.0 Q32.9 -11.7 31.3 -20.3 29.9 -27.5 28.0 -31.4 L24.25 -30.2 Q18.85 -28.4 8.4 -24.2 5.0 -24.2 5.0 -27.0 5.0 -29.75 15.0 -34.4 24.9 -39.0 30.4 -39.0 34.4 -39.0 39.8 -8.6 39.8 -5.4 39.6 -5.0 39.25 -4.3 38.6 -3.8 L41.2 -1.6 Q45.9 3.1 51.8 13.6 51.8 16.45 49.2 21.45 46.3 27.0 43.6 27.0 40.2 27.0 40.2 24.2 40.2 22.4 43.0 18.8 L44.6 16.6 44.6 16.65 45.1 15.8 45.8 13.85 45.8 13.7 Q45.8 11.65 40.55 7.4 L38.6 5.9 Q31.85 0.85 31.45 -1.6 L31.4 -1.9 31.45 -2.65 Q25.35 -3.2 16.8 -8.6 8.2 -14.0 8.2 -15.8 8.2 -19.0 11.6 -19.0 13.9 -19.0 28.6 -9.0 L33.25 -9.0 M39.6 38.1 L39.45 33.7 Q39.8 30.6 42.4 30.6 46.4 30.6 45.4 41.5 L45.75 44.5 Q46.0 47.4 45.4 49.6 43.65 56.6 34.4 56.6 27.2 56.6 23.4 49.45 22.2 47.2 21.5 44.5 L21.0 42.1 Q21.0 39.55 21.25 38.85 21.8 37.0 24.0 37.0 25.7 37.0 27.7 42.05 L27.8 42.25 28.3 43.7 Q30.65 50.4 31.8 50.4 36.85 50.4 38.6 47.3 39.9 45.1 39.7 40.5 L39.6 38.1 M-51.0 21.2 L-50.65 21.35 Q-42.6 25.0 -42.6 28.1 -42.6 31.0 -46.8 31.0 -55.5 31.0 -62.8 23.05 -65.3 20.25 -67.1 17.15 -68.6 14.55 -68.6 13.7 L-50.15 -1.95 Q-53.7 -4.15 -54.8 -11.0 -55.55 -16.05 -55.0 -21.2 L-55.2 -24.8 Q-55.35 -28.2 -54.95 -30.8 -53.75 -39.0 -47.6 -39.0 -37.35 -39.0 -23.8 -31.15 -19.4 -28.65 -15.45 -25.7 L-12.2 -23.1 Q-12.2 -21.65 -27.6 -11.4 -35.65 -6.05 -40.35 -3.45 -41.35 -0.55 -47.85 5.15 -53.0 9.65 -61.6 15.8 L-61.45 15.95 Q-59.95 17.15 -51.0 21.2 M-45.8 -7.4 L-45.1 -7.75 -35.15 -14.25 Q-28.15 -19.1 -22.6 -21.4 -24.55 -23.55 -34.7 -28.1 L-40.1 -30.35 Q-45.95 -32.65 -48.2 -32.6 -49.0 -29.0 -49.0 -21.8 -49.0 -16.25 -48.8 -14.95 -48.3 -11.8 -45.8 -7.4 M-36.65 45.65 L-36.6 46.5 Q-35.85 56.0 -31.0 56.0 -24.8 56.0 -23.3 49.1 L-22.9 46.3 -22.8 43.6 -22.8 39.6 Q-22.0 38.6 -20.0 38.6 -17.5 38.6 -17.0 41.25 -16.75 42.6 -17.0 44.1 -17.0 49.4 -18.6 54.0 -21.5 62.2 -28.4 62.2 -39.2 62.2 -42.2 54.3 -43.1 51.85 -43.15 48.85 L-43.0 46.2 -43.0 40.8 Q-42.55 37.0 -40.0 37.0 -38.05 37.0 -37.35 39.95 -37.05 41.05 -36.65 45.65" fill="#000000" fill-rule="evenodd" stroke="none"/>
      <path d="M24.25 -30.2 L28.0 -31.4 Q29.9 -27.5 31.3 -20.3 32.9 -11.7 33.8 -9.0 L33.25 -9.0 Q27.3 -22.6 24.25 -30.2 M40.55 7.4 Q45.8 11.65 45.8 13.7 L45.8 13.85 45.1 15.8 44.6 16.65 44.6 16.6 40.55 7.4 M-47.85 5.15 L-51.0 21.2 Q-59.95 17.15 -61.45 15.95 L-61.6 15.8 Q-53.0 9.65 -47.85 5.15 M-45.1 -7.75 L-45.8 -7.4 Q-48.3 -11.8 -48.8 -14.95 -49.0 -16.25 -49.0 -21.8 -49.0 -29.0 -48.2 -32.6 -45.95 -32.65 -40.1 -30.35 L-45.1 -7.75" fill="#e1e1e1" fill-rule="evenodd" stroke="none"/>
      <path d="M27.7 42.05 Q34.9 40.4 39.6 38.1 L39.7 40.5 Q39.9 45.1 38.6 47.3 36.85 50.4 31.8 50.4 30.65 50.4 28.3 43.7 L27.8 42.25 27.7 42.05 M-22.9 46.3 L-23.3 49.1 Q-24.8 56.0 -31.0 56.0 -35.85 56.0 -36.6 46.5 L-36.65 45.65 -23.6 46.2 -22.9 46.3" fill="#3c3c3c" fill-rule="evenodd" stroke="none"/>
      <path d="M-18.55 -99.2 L13.6 -99.2 13.6 -101.6 13.9 -101.6 Q14.35 -100.9 14.2 -99.9 14.2 -99.0 13.85 -98.4 13.35 -97.55 12.2 -97.2 L8.85 -96.6 Q10.1 -91.4 13.15 -74.85 18.35 -46.9 22.0 -36.2 24.8 -27.95 36.55 -1.6 L37.35 0.25 Q48.6 25.4 48.6 26.8 48.6 46.2 -23.6 46.2 -38.05 46.2 -43.15 44.35 -43.9 45.4 -45.6 45.4 -51.4 45.4 -52.6 39.0 -52.95 37.0 -52.8 34.55 L-52.6 32.4 Q-52.6 25.0 -39.0 -35.4 L-31.35 -75.3 Q-27.75 -92.1 -25.15 -98.4 -24.25 -100.7 -23.4 -101.6 L-20.8 -101.6 -20.8 -99.2 -19.4 -99.2 -19.4 -98.4 -19.4 -96.4 Q-19.4 -93.55 -25.7 -66.3 -32.7 -36.2 -33.4 -32.2 L-40.55 0.4 Q-46.6 27.75 -46.6 32.0 -46.6 32.8 -44.6 37.15 L-43.95 38.55 -42.4 38.6 -23.2 39.8 Q10.1 39.8 27.8 35.6 42.6 32.05 42.6 26.8 42.6 24.25 36.75 12.75 L29.55 -1.6 Q25.95 -8.85 23.8 -13.8 5.0 -56.6 5.0 -95.3 L5.1 -96.3 -2.0 -96.2 -3.2 -96.2 Q-11.05 -96.35 -16.6 -98.4 L-18.55 -99.2" fill="#000000" fill-rule="evenodd" stroke="none"/>
      <path d="M-18.55 -99.2 L-16.6 -98.4 Q-11.05 -96.35 -3.2 -96.2 L-2.0 -96.2 5.1 -96.3 5.0 -95.3 Q5.0 -56.6 23.8 -13.8 25.95 -8.85 29.55 -1.6 L36.75 12.75 Q42.6 24.25 42.6 26.8 42.6 32.05 27.8 35.6 10.1 39.8 -23.2 39.8 L-42.4 38.6 -43.95 38.55 -44.6 37.15 Q-46.6 32.8 -46.6 32.0 -46.6 27.75 -40.55 0.4 L-33.4 -32.2 Q-32.7 -36.2 -25.7 -66.3 -19.4 -93.55 -19.4 -96.4 L-19.4 -98.4 -19.4 -99.2 -19.4 -99.4 -19.45 -99.6 -19.2 -99.5 -18.55 -99.2" fill="#4b4c7f" fill-rule="evenodd" stroke="none"/>
      <path d="M13.1 -82.95 L13.0 -84.4 Q13.0 -86.8 13.2 -87.4 13.75 -89.4 16.0 -89.4 16.3 -89.4 32.6 -55.1 32.6 -54.25 31.4 -52.9 33.6 -51.8 34.2 -48.05 L34.2 -42.5 34.4 -40.3 Q34.5 -38.3 34.0 -36.8 32.45 -32.2 25.2 -32.2 18.75 -32.2 14.85 -37.1 13.05 -39.4 12.3 -41.8 L11.6 -41.8 Q6.1 -41.8 5.0 -56.6 4.45 -64.05 5.0 -71.6 4.0 -91.8 8.0 -91.8 10.4 -91.8 11.1 -82.8 L11.35 -75.1 Q11.4 -54.0 12.6 -49.4 11.4 -49.0 13.4 -49.0 16.8 -49.0 24.8 -56.2 24.8 -56.95 18.9 -67.95 13.75 -77.55 13.1 -82.95 M27.0 -46.75 L26.3 -48.7 24.4 -47.45 Q20.75 -45.0 17.85 -43.6 L19.6 -41.9 Q23.05 -38.4 25.0 -38.4 26.2 -38.4 27.8 -39.2 28.2 -39.8 28.2 -42.2 28.2 -43.7 27.0 -46.75 M-19.35 -78.0 L-19.4 -78.2 -19.4 -78.0 -25.35 -63.6 Q-29.0 -55.1 -33.8 -49.2 L-33.8 -48.8 -27.4 -48.2 -15.8 -48.2 Q-19.4 -53.65 -19.4 -63.8 L-19.15 -71.65 Q-19.05 -75.8 -19.35 -78.0 M-18.4 -80.4 Q-18.1 -83.2 -18.4 -85.4 L-18.6 -85.2 -18.6 -80.4 -18.4 -80.4 M-12.2 -81.8 Q-12.0 -78.2 -12.5 -73.05 L-13.0 -67.4 Q-13.0 -64.75 -11.4 -56.8 -9.8 -48.85 -9.8 -47.9 L-9.55 -46.0 Q-9.4 -44.8 -10.0 -44.0 -10.45 -43.4 -11.4 -42.95 L-11.4 -41.3 Q-11.4 -37.8 -12.8 -35.0 -15.05 -30.6 -20.0 -30.6 -27.8 -30.6 -31.0 -35.6 -32.55 -38.1 -32.6 -40.7 L-32.35 -42.6 Q-39.8 -44.25 -39.8 -48.7 -39.8 -50.6 -35.05 -60.05 -30.65 -68.85 -28.6 -71.8 -27.55 -73.25 -26.9 -77.15 L-25.8 -84.35 Q-24.25 -93.4 -20.0 -93.4 -12.8 -93.4 -12.2 -81.8 M-17.75 -41.85 L-20.4 -41.8 -26.7 -42.05 -26.35 -40.8 Q-25.4 -37.0 -20.5 -37.0 -18.15 -37.0 -17.75 -41.6 L-17.7 -41.85 -17.75 -41.85" fill="#000000" fill-rule="evenodd" stroke="none"/>
      <path d="M27.0 -46.75 Q28.2 -43.7 28.2 -42.2 28.2 -39.8 27.8 -39.2 26.2 -38.4 25.0 -38.4 23.05 -38.4 19.6 -41.9 L17.85 -43.6 Q20.75 -45.0 24.4 -47.45 L26.3 -48.7 27.0 -46.75 M-17.75 -41.85 L-17.75 -41.6 Q-18.15 -37.0 -20.5 -37.0 -25.4 -37.0 -26.35 -40.8 L-26.7 -42.05 -20.4 -41.8 -17.75 -41.85" fill="#fff1dd" fill-rule="evenodd" stroke="none"/>
      <path d="M13.1 -82.95 Q13.75 -77.55 18.9 -67.95 24.8 -56.95 24.8 -56.2 16.8 -49.0 13.4 -49.0 11.4 -49.0 12.6 -49.4 11.4 -54.0 11.35 -75.1 L11.1 -82.8 13.1 -82.95 M-19.4 -78.0 L-19.35 -78.0 Q-19.05 -75.8 -19.15 -71.65 L-19.4 -63.8 Q-19.4 -53.65 -15.8 -48.2 L-27.4 -48.2 -33.8 -48.8 -33.8 -49.2 Q-29.0 -55.1 -25.35 -63.6 L-19.4 -78.0" fill="#4b4c7f" fill-rule="evenodd" stroke="none"/>
      <path d="M14.2 -99.9 L14.2 -99.4 16.4 -98.4 Q23.35 -94.5 35.0 -79.5 35.0 -77.75 33.5 -74.85 31.7 -71.35 28.6 -68.4 20.1 -60.2 6.4 -60.2 3.2 -60.2 -1.4 -76.8 L-3.2 -83.7 -5.4 -93.6 -5.3 -96.2 -7.7 -96.3 -7.6 -96.0 -7.4 -93.6 Q-7.4 -91.85 -9.2 -86.55 -11.25 -80.55 -14.0 -75.0 -21.8 -59.4 -29.2 -59.4 -36.75 -59.4 -44.2 -65.5 -46.6 -67.45 -48.6 -69.75 -50.2 -71.55 -50.2 -71.8 -50.2 -73.55 -37.4 -87.4 -30.45 -94.9 -26.6 -98.4 L-24.75 -100.0 14.2 -100.0 14.2 -99.9 M9.05 -96.65 L-0.2 -96.2 Q1.5 -93.35 3.6 -86.15 7.0 -74.45 7.0 -67.2 L8.8 -67.0 Q23.7 -67.0 28.0 -80.4 L18.5 -88.0 Q9.5 -95.25 9.05 -96.65 M-19.4 -98.0 Q-19.4 -92.85 -28.7 -85.6 L-36.75 -79.5 Q-41.35 -75.85 -43.8 -72.8 -42.8 -71.3 -35.9 -68.8 -29.8 -66.6 -29.0 -66.6 -23.9 -66.6 -18.5 -78.85 -13.9 -89.35 -13.2 -97.05 -15.5 -97.6 -17.4 -98.4 L-19.65 -99.5 -19.4 -98.4 -19.4 -98.0" fill="#000000" fill-rule="evenodd" stroke="none"/>
      <path d="M-19.4 -98.0 L-19.4 -98.4 -19.65 -99.5 -17.4 -98.4 Q-15.5 -97.6 -13.2 -97.05 -13.9 -89.35 -18.5 -78.85 -23.9 -66.6 -29.0 -66.6 -29.8 -66.6 -35.9 -68.8 -42.8 -71.3 -43.8 -72.8 -41.35 -75.85 -36.75 -79.5 L-28.7 -85.6 Q-19.4 -92.85 -19.4 -98.0 M9.05 -96.65 Q9.5 -95.25 18.5 -88.0 L28.0 -80.4 Q23.7 -67.0 8.8 -67.0 L7.0 -67.2 Q7.0 -74.45 3.6 -86.15 1.5 -93.35 -0.2 -96.2 L9.05 -96.65" fill="#e1e1e1" fill-rule="evenodd" stroke="none"/>
      <path d="M7.0 -90.2 L4.0 -89.2 Q1.15 -88.15 0.2 -87.6 0.5 -86.65 4.2 -84.35 7.65 -82.2 8.0 -82.2 L9.0 -82.4 9.0 -90.2 7.0 -90.2 M14.95 -78.2 Q14.4 -73.8 11.6 -73.8 10.5 -73.8 3.65 -77.7 L-3.2 -81.75 -5.4 -83.2 Q-7.35 -80.3 -13.4 -76.45 -20.15 -72.2 -24.4 -72.2 -29.0 -72.2 -27.8 -84.6 L-27.8 -91.8 Q-27.3 -97.4 -24.4 -97.4 -22.95 -97.4 -17.35 -94.2 -11.7 -91.0 -8.1 -91.0 -6.2 -91.0 -4.7 -91.85 L-3.2 -92.85 -2.0 -93.8 Q2.0 -96.6 9.2 -96.6 13.95 -96.6 14.95 -90.95 L15.0 -85.1 14.95 -78.2 M17.8 -18.8 L19.6 -20.6 Q22.8 -23.8 24.0 -23.8 27.0 -23.8 27.0 -20.4 27.0 -18.85 26.15 -17.5 27.45 -12.95 28.1 -1.6 L28.6 14.3 28.6 21.8 Q28.35 24.95 27.5 26.5 L27.8 27.3 27.7 28.9 Q26.95 29.5 22.3 29.6 15.8 29.75 -30.25 28.75 -30.95 30.2 -32.0 30.2 -33.35 30.2 -34.2 28.65 L-34.8 28.6 Q-35.0 29.4 -35.0 27.4 L-35.6 26.0 Q-35.7 25.65 -35.15 25.35 L-35.55 20.15 Q-35.6 14.75 -35.0 5.8 -35.0 3.4 -36.6 -6.05 -38.2 -15.5 -38.2 -18.5 L-38.2 -19.1 Q-39.8 -21.05 -39.8 -23.4 -39.8 -26.2 -36.4 -26.2 L-28.2 -21.5 Q-20.2 -16.8 -18.2 -16.8 L-3.2 -16.9 15.6 -17.6 17.8 -18.8 M21.1 -13.75 Q13.75 -10.6 -1.6 -10.6 L-3.2 -10.6 Q-14.9 -10.75 -24.4 -12.8 -28.15 -13.6 -31.0 -14.65 -30.3 -10.95 -29.8 -5.5 -29.0 3.25 -29.0 12.2 L-29.0 21.8 -29.25 24.6 Q-21.6 24.2 -3.6 24.2 L24.3 23.25 Q23.2 16.2 21.9 -1.6 L21.1 -13.75 M-13.0 -85.4 Q-14.5 -86.6 -21.8 -88.4 L-21.8 -79.4 Q-20.5 -79.5 -17.35 -81.9 L-13.0 -85.4" fill="#000000" fill-rule="evenodd" stroke="none"/>
      <path d="M7.0 -90.2 L9.0 -90.2 9.0 -82.4 8.0 -82.2 Q7.65 -82.2 4.2 -84.35 0.5 -86.65 0.2 -87.6 1.15 -88.15 4.0 -89.2 L7.0 -90.2 M-13.0 -85.4 L-17.35 -81.9 Q-20.5 -79.5 -21.8 -79.4 L-21.8 -88.4 Q-14.5 -86.6 -13.0 -85.4" fill="#ff4444" fill-rule="evenodd" stroke="none"/>
      <path d="M21.1 -13.75 L21.9 -1.6 Q23.2 16.2 24.3 23.25 L-3.6 24.2 Q-21.6 24.2 -29.25 24.6 L-29.0 21.8 -29.0 12.2 Q-29.0 3.25 -29.8 -5.5 -30.3 -10.95 -31.0 -14.65 -28.15 -13.6 -24.4 -12.8 -14.9 -10.75 -3.2 -10.6 L-1.6 -10.6 Q13.75 -10.6 21.1 -13.75" fill="#e1e1e1" fill-rule="evenodd" stroke="none"/>
      <path d="M64.6 -150.6 Q64.1 -134.6 61.6 -134.6 L60.0 -134.85 58.8 -135.6 58.6 -166.8 Q57.6 -199.0 61.6 -199.0 65.6 -199.0 64.6 -166.8 64.85 -158.6 64.6 -150.6 M-15.4 -193.1 L-15.4 -188.6 Q-15.6 -173.6 -16.2 -159.2 -17.45 -130.6 -19.6 -130.6 -23.0 -130.6 -23.0 -133.4 -22.5 -197.4 -18.4 -197.4 -15.9 -197.4 -15.4 -193.1" fill="#000000" fill-rule="evenodd" stroke="none"/>
    </g>
  </defs>
</svg>
