<?xml version="1.0" encoding="UTF-8" standalone="no"?>
<svg xmlns:xlink="http://www.w3.org/1999/xlink" height="720.75px" width="1716.8px" xmlns="http://www.w3.org/2000/svg">
  <g transform="matrix(1, 0, 0, 1, 307.05, 450.35)">
    <use height="114.5" transform="matrix(0.75, 0.0, 0.0, 0.75, -45.7875, -44.6375)" width="114.2" xlink:href="#sprite0"/>
    <use height="206.0" transform="matrix(1.0, 0.0, 0.0, 1.0, -112.6, -103.05)" width="210.6" xlink:href="#sprite1"/>
  </g>
  <defs>
    <g id="sprite0" transform="matrix(1, 0, 0, 1, 57.25, 58.25)">
      <use height="114.5" transform="matrix(1.0, 0.0, 0.0, 1.0, -57.25, -58.25)" width="114.2" xlink:href="#shape0"/>
    </g>
    <g id="shape0" transform="matrix(1, 0, 0, 1, 57.25, 58.25)">
      <path d="M10.5 24.25 L10.25 24.25 10.0 24.25 10.5 24.25" fill="#000000" fill-rule="evenodd" stroke="none"/>
      <path d="M23.65 -23.15 L23.95 -23.4 26.05 -20.9 54.0 11.5 Q31.3 27.6 -2.4 53.8 -3.6 54.5 -13.9 46.15 -24.25 37.8 -28.3 33.65 L-34.1 27.75 Q-36.15 25.7 -46.15 12.55 -52.4 4.35 -54.75 2.1 -42.95 -19.7 -20.45 -40.4 -9.95 -50.0 -1.55 -55.95 8.6 -52.0 31.0 -41.7 L28.8 -38.75 28.15 -37.6 27.0 -35.4 Q5.25 -47.75 1.0 -47.75 L0.65 -47.75 0.5 -47.75 0.35 -47.7 -0.1 -47.55 Q-2.35 -46.5 -11.2 -39.8 -22.05 -31.6 -26.5 -27.1 L-37.05 -15.25 Q-44.75 -6.2 -44.75 -4.8 L-44.6 -4.15 -44.75 -3.05 -38.65 5.95 Q-15.15 40.3 -8.95 46.75 L-7.0 48.25 -6.45 48.2 -6.25 48.25 -5.25 47.95 Q1.35 44.9 47.1 13.4 L47.5 13.75 Q48.75 13.75 48.55 13.3 L48.75 12.25 48.75 12.15 Q48.75 11.2 44.05 5.85 L37.05 -2.0 36.05 -3.3 30.2 -10.2 Q25.2 -15.65 22.55 -16.2 L22.05 -16.25 22.0 -16.25 21.2 -16.0 Q18.65 -14.85 10.3 -8.1 2.1 -1.45 0.6 0.85 0.25 0.9 0.25 1.05 L0.3 1.4 0.3 1.5 0.25 1.6 Q0.25 2.35 0.7 2.8 1.5 5.15 3.85 8.4 L8.75 14.45 9.5 15.25 Q10.75 15.25 10.55 14.8 L10.75 13.65 10.6 13.4 Q11.55 11.05 14.75 7.4 L18.05 3.6 18.4 3.15 18.5 3.25 19.25 3.9 20.05 4.35 20.55 4.6 20.35 5.55 Q19.2 10.0 14.75 15.65 L10.1 21.35 -1.2 9.45 -7.8 2.5 -5.15 0.05 Q3.05 -7.25 23.25 -22.2 L23.75 -22.55 23.65 -23.15" fill="#ffff22" fill-rule="evenodd" stroke="none"/>
      <path d="M23.95 -23.4 L23.75 -23.6 Q23.75 -24.45 24.05 -24.65 L25.25 -24.75 Q29.5 -24.75 40.8 -11.1 48.6 -1.65 56.95 12.6 L27.0 35.5 26.65 35.8 11.8 47.5 Q0.7 56.25 -1.5 56.25 -3.05 56.25 -3.6 55.55 -3.7 56.0 -3.75 55.25 -5.0 55.25 -7.5 53.8 -12.5 50.9 -22.25 42.25 L-37.1 28.55 Q-43.7 22.15 -50.25 13.55 -57.15 4.45 -57.25 1.55 -57.25 1.4 -56.95 1.35 L-57.25 0.25 Q-57.25 -1.2 -48.15 -13.7 -39.15 -26.1 -35.85 -29.35 L-20.35 -44.4 Q-11.25 -52.6 -2.6 -57.6 L-1.65 -58.15 -1.5 -58.25 -1.4 -58.2 -0.75 -58.25 Q0.9 -58.25 8.95 -55.0 15.95 -52.2 18.25 -51.0 20.95 -49.55 27.6 -46.8 31.9 -44.85 33.5 -43.05 L34.25 -42.0 34.25 -41.95 34.25 -41.85 Q34.25 -41.05 31.45 -37.3 28.7 -33.55 28.0 -33.25 27.3 -33.5 27.0 -33.9 L26.25 -33.75 14.35 -39.35 1.15 -45.65 -1.45 -43.5 -14.3 -32.6 Q-32.25 -16.85 -42.6 -4.3 -39.8 -0.95 -28.5 15.05 -12.7 37.45 -6.2 45.8 12.8 32.9 19.5 28.05 23.2 25.35 35.05 18.25 42.9 13.55 45.8 12.05 L21.85 -13.65 Q16.1 -7.6 3.35 1.9 5.5 4.15 9.2 10.8 10.4 9.05 13.2 5.85 L17.25 1.2 Q17.25 0.45 17.4 0.35 L18.25 0.25 18.3 0.25 18.5 0.25 18.55 0.3 Q18.95 0.35 19.3 0.65 L22.05 2.25 Q23.65 2.25 23.25 4.85 23.25 6.7 18.0 15.25 13.35 22.85 11.05 24.05 L10.5 24.25 10.0 24.25 Q7.65 24.25 -2.85 13.25 -8.4 7.4 -9.95 2.7 L-10.25 2.0 -10.2 1.7 -10.25 1.55 -10.1 1.4 Q-8.9 -1.6 3.15 -10.4 10.0 -15.45 20.45 -22.35 L22.5 -23.75 23.35 -23.5 23.65 -23.15 23.75 -22.55 23.25 -22.2 Q3.05 -7.25 -5.15 0.05 L-7.8 2.5 -1.2 9.45 10.1 21.35 14.75 15.65 Q19.2 10.0 20.35 5.55 L20.55 4.6 20.05 4.35 19.25 3.9 18.5 3.25 18.4 3.15 18.05 3.6 14.75 7.4 Q11.55 11.05 10.6 13.4 L10.75 13.65 10.55 14.8 Q10.75 15.25 9.5 15.25 L8.75 14.45 3.85 8.4 Q1.5 5.15 0.7 2.8 0.25 2.35 0.25 1.6 L0.3 1.5 0.3 1.4 0.25 1.05 Q0.25 0.9 0.6 0.85 2.1 -1.45 10.3 -8.1 18.65 -14.85 21.2 -16.0 L22.0 -16.25 22.05 -16.25 22.55 -16.2 Q25.2 -15.65 30.2 -10.2 L36.05 -3.3 37.05 -2.0 44.05 5.85 Q48.75 11.2 48.75 12.15 L48.75 12.25 48.55 13.3 Q48.75 13.75 47.5 13.75 L47.1 13.4 Q1.35 44.9 -5.25 47.95 L-6.25 48.25 -6.45 48.2 -7.0 48.25 -8.95 46.75 Q-15.15 40.3 -38.65 5.95 L-44.75 -3.05 -44.6 -4.15 -44.75 -4.8 Q-44.75 -6.2 -37.05 -15.25 L-26.5 -27.1 Q-22.05 -31.6 -11.2 -39.8 -2.35 -46.5 -0.1 -47.55 L0.35 -47.7 0.5 -47.75 0.65 -47.75 1.0 -47.75 Q5.25 -47.75 27.0 -35.4 L28.15 -37.6 28.8 -38.75 31.0 -41.7 Q8.6 -52.0 -1.55 -55.95 -9.95 -50.0 -20.45 -40.4 -42.95 -19.7 -54.75 2.1 -52.4 4.35 -46.15 12.55 -36.15 25.7 -34.1 27.75 L-28.3 33.65 Q-24.25 37.8 -13.9 46.15 -3.6 54.5 -2.4 53.8 31.3 27.6 54.0 11.5 L26.05 -20.9 23.95 -23.4" fill="#ffe711" fill-rule="evenodd" stroke="none"/>
    </g>
    <g id="sprite1" transform="matrix(1, 0, 0, 1, 104.85, 100.25)">
      <use height="206.0" transform="matrix(1.0, 0.0, 0.0, 1.0, -104.85, -100.25)" width="210.6" xlink:href="#shape1"/>
    </g>
    <g id="shape1" transform="matrix(1, 0, 0, 1, 104.85, 100.25)">
      <path d="M56.25 -92.5 L55.8 -92.1 Q50.75 -86.9 39.1 -72.0 L28.5 -58.25 Q27.05 -58.25 23.7 -59.75 L19.0 -61.85 Q20.3 -65.15 28.45 -79.5 34.9 -90.85 35.75 -97.35 42.4 -96.6 56.25 -92.5 M73.05 -43.85 Q77.7 -45.85 78.5 -45.85 L78.85 -45.85 Q79.1 -44.25 81.45 -41.5 L84.75 -37.5 70.85 -34.9 Q62.5 -33.4 57.25 -31.0 L54.75 -31.0 54.75 -37.0 Q56.75 -39.0 65.5 -41.25 68.05 -41.65 73.05 -43.85 M102.75 10.5 L82.55 10.5 70.75 10.05 70.75 7.25 71.0 3.9 Q71.05 2.0 71.75 2.0 L71.75 1.8 102.25 1.8 Q102.25 7.5 102.75 10.5 M64.1 49.75 Q78.05 55.7 80.3 56.8 L80.0 57.25 Q70.8 66.05 69.3 66.05 67.85 66.05 59.3 60.9 51.15 56.05 44.75 51.5 L51.75 42.8 Q55.8 46.2 64.1 49.75 M5.75 64.3 Q11.25 93.95 11.25 97.9 11.25 99.25 4.05 100.8 -3.0 102.3 -8.8 102.3 -10.05 102.3 -9.25 102.05 L-9.25 65.75 -9.1 65.0 -3.6 64.5 5.75 64.3 M-102.25 -20.5 L-102.25 -28.0 Q-95.85 -25.8 -87.25 -24.7 L-58.35 -20.6 Q-60.65 -15.75 -61.5 -13.0 L-102.25 -20.5 M-36.85 -44.6 L-36.75 -47.6 Q-36.75 -50.2 -47.6 -83.6 L-37.65 -88.1 Q-37.1 -87.75 -36.85 -87.75 L-34.25 -67.65 Q-32.8 -55.9 -28.75 -48.0 -36.75 -45.3 -36.75 -44.6 L-36.85 -44.6 M-49.25 28.0 Q-47.9 28.0 -44.0 32.75 -40.1 37.45 -40.1 38.75 -40.1 39.5 -49.15 49.1 -59.65 60.15 -63.35 65.55 -66.6 63.8 -68.9 60.15 -71.4 56.2 -73.85 54.55 L-49.25 28.0" fill="#ffff22" fill-rule="evenodd" stroke="none"/>
      <path d="M56.25 -92.5 Q42.4 -96.6 35.75 -97.35 34.9 -90.85 28.45 -79.5 20.3 -65.15 19.0 -61.85 L23.7 -59.75 Q27.05 -58.25 28.5 -58.25 L39.1 -72.0 Q50.75 -86.9 55.8 -92.1 L56.25 -92.5 M16.75 -60.6 Q16.75 -61.6 17.25 -63.75 17.25 -64.6 26.05 -82.5 L35.0 -100.25 Q39.35 -100.25 60.25 -93.35 60.25 -92.15 29.25 -54.75 17.8 -59.35 16.8 -59.85 L16.75 -60.6 M73.05 -43.85 Q68.05 -41.65 65.5 -41.25 56.75 -39.0 54.75 -37.0 L54.75 -31.0 57.25 -31.0 Q62.5 -33.4 70.85 -34.9 L84.75 -37.5 81.45 -41.5 Q79.1 -44.25 78.85 -45.85 L78.5 -45.85 Q77.7 -45.85 73.05 -43.85 M52.25 -31.3 Q52.0 -32.85 52.25 -34.5 L52.3 -40.5 Q61.9 -41.6 79.5 -49.75 L88.75 -36.35 Q88.75 -36.15 55.25 -28.25 52.75 -28.25 52.25 -31.3 M69.25 -0.45 Q71.7 -0.75 86.75 -0.75 L104.5 -0.1 104.75 0.55 104.75 4.75 Q104.75 6.55 105.25 10.35 106.25 11.7 105.25 12.25 103.55 13.25 93.25 13.25 L74.5 13.55 Q68.6 13.6 68.3 12.05 L68.25 8.85 Q68.75 4.9 68.75 0.4 L68.4 -0.1 Q68.25 -0.35 69.25 -0.45 M102.75 10.5 Q102.25 7.5 102.25 1.8 L71.75 1.8 71.75 2.0 Q71.05 2.0 71.0 3.9 L70.75 7.25 70.75 10.05 82.55 10.5 102.75 10.5 M56.0 42.95 Q62.75 47.45 66.8 48.75 70.05 49.75 75.9 52.15 83.75 55.4 83.75 56.5 83.75 57.55 69.5 69.25 65.55 69.25 53.55 60.45 42.25 52.15 42.25 51.5 42.25 50.3 45.8 45.85 L49.5 41.25 Q48.25 40.85 48.25 39.5 48.75 38.75 50.0 38.75 L56.0 42.95 M12.9 90.4 Q13.75 93.65 13.75 98.3 13.75 100.75 7.55 103.05 0.35 105.75 -10.25 105.75 L-11.6 105.5 -11.75 84.1 -11.75 72.5 Q-11.75 71.55 -12.65 69.3 -13.45 67.15 -13.35 66.1 -13.05 62.65 -3.0 62.0 L2.0 61.75 Q9.15 61.75 10.7 68.9 11.5 72.8 11.25 80.0 11.8 86.0 12.9 90.4 M5.75 64.3 L-3.6 64.5 -9.1 65.0 -9.25 65.75 -9.25 102.05 Q-10.05 102.3 -8.8 102.3 -3.0 102.3 4.05 100.8 11.25 99.25 11.25 97.9 11.25 93.95 5.75 64.3 M64.1 49.75 Q55.8 46.2 51.75 42.8 L44.75 51.5 Q51.15 56.05 59.3 60.9 67.85 66.05 69.3 66.05 70.8 66.05 80.0 57.25 L80.3 56.8 Q78.05 55.7 64.1 49.75 M-104.85 -21.3 L-104.75 -24.5 -104.6 -30.5 -102.75 -30.75 Q-91.85 -28.05 -85.0 -26.75 -79.15 -25.55 -68.1 -24.3 L-57.65 -23.25 Q-57.15 -23.25 -57.0 -23.7 -56.8 -24.55 -56.0 -25.25 -54.75 -24.45 -54.75 -23.3 -54.75 -21.35 -57.1 -16.0 -59.65 -10.25 -61.25 -10.25 L-72.8 -12.75 Q-85.25 -15.3 -90.1 -15.85 -101.6 -17.2 -103.8 -19.0 -104.8 -19.8 -104.85 -21.3 M-102.25 -20.5 L-61.5 -13.0 Q-60.65 -15.75 -58.35 -20.6 L-87.25 -24.7 Q-95.85 -25.8 -102.25 -28.0 L-102.25 -20.5 M-36.85 -44.6 L-38.0 -44.25 Q-39.8 -47.3 -41.75 -54.05 -44.35 -62.8 -45.1 -64.75 -46.4 -68.0 -48.6 -76.0 -50.75 -83.75 -50.75 -84.8 -50.75 -85.0 -37.0 -91.25 -33.95 -91.25 -32.25 -69.6 -32.0 -66.75 -29.1 -57.45 -26.25 -48.45 -26.25 -47.85 -26.25 -46.7 -29.35 -45.0 -32.55 -43.25 -35.0 -43.25 -36.0 -43.25 -36.6 -43.85 L-36.75 -44.6 Q-36.75 -45.3 -28.75 -48.0 -32.8 -55.9 -34.25 -67.65 L-36.85 -87.75 Q-37.1 -87.75 -37.65 -88.1 L-47.6 -83.6 Q-36.75 -50.2 -36.75 -47.6 L-36.85 -44.6 M-41.6 31.45 Q-37.25 37.55 -37.25 38.25 -37.25 41.75 -42.75 46.65 L-51.5 54.25 Q-55.0 58.1 -62.5 69.25 -65.85 69.25 -76.75 54.25 -76.75 53.6 -48.5 24.75 -46.4 24.75 -41.6 31.45 M-49.25 28.0 L-73.85 54.55 Q-71.4 56.2 -68.9 60.15 -66.6 63.8 -63.35 65.55 -59.65 60.15 -49.15 49.1 -40.1 39.5 -40.1 38.75 -40.1 37.45 -44.0 32.75 -47.9 28.0 -49.25 28.0" fill="#ffe711" fill-rule="evenodd" stroke="none"/>
    </g>
  </defs>
</svg>
