<?xml version="1.0" encoding="UTF-8" standalone="no"?>
<svg xmlns:xlink="http://www.w3.org/1999/xlink" height="720.75px" width="1716.8px" xmlns="http://www.w3.org/2000/svg">
  <g transform="matrix(1, 0, 0, 1, 307.05, 450.35)">
    <use height="177.0" transform="matrix(0.8603, 0.5042, -0.5042, 0.8603, 50.6615, -146.1121)" width="276.65" xlink:href="#sprite0"/>
  </g>
  <defs>
    <g id="sprite0" transform="matrix(1, 0, 0, 1, 30.3, 151.5)">
      <use height="177.0" transform="matrix(1.0, 0.0, 0.0, 1.0, -30.3, -151.5)" width="276.65" xlink:href="#shape0"/>
    </g>
    <g id="shape0" transform="matrix(1, 0, 0, 1, 30.3, 151.5)">
      <path d="M1.7 10.4 Q-6.3 15.9 -23.3 25.5 -25.75 25.5 -28.25 21.1 -30.3 17.45 -30.3 16.4 -30.3 15.55 -17.75 6.7 L-5.7 -1.5 -5.2 -0.7 -2.65 3.55 -2.5 3.85 -2.55 3.9 -8.75 8.4 -23.3 18.0 Q-19.35 17.05 -7.05 9.1 -3.85 7.05 -1.45 5.55 L1.7 10.4 M6.4 -7.35 L13.0 -11.1 Q78.8 -48.05 81.05 -49.35 189.35 -110.9 235.2 -144.5 L235.25 -144.45 245.65 -151.5 246.2 -151.25 Q248.25 -150.0 221.25 -125.95 194.2 -101.9 189.25 -98.5 184.25 -95.15 162.1 -82.15 L117.75 -56.5 Q95.5 -43.8 12.1 1.95 10.65 -0.5 9.6 -1.1 16.9 -4.8 37.25 -16.75 57.6 -28.7 92.5 -47.7 127.35 -66.75 142.45 -75.75 157.5 -84.8 175.9 -95.4 194.3 -106.0 223.65 -132.05 200.05 -113.95 178.65 -102.85 123.9 -68.5 118.35 -66.0 112.75 -63.5 77.9 -42.95 95.55 -53.95 9.1 -3.05 L6.4 -7.35" fill="#000000" fill-rule="evenodd" stroke="none"/>
      <path d="M-5.7 -1.5 L-9.1 -7.8 -9.25 -8.25 -9.3 -8.5 Q-9.3 -9.35 -4.8 -12.5 L-0.3 -15.5 Q1.15 -15.5 6.4 -7.35 L9.1 -3.05 9.6 -1.1 Q10.65 -0.5 12.1 1.95 L17.7 11.75 Q17.7 13.75 13.95 15.75 10.65 17.5 8.7 17.5 6.55 17.5 1.7 10.4 L-1.45 5.55 -2.0 4.65 -2.5 3.85 -2.65 3.55 -5.2 -0.7 -5.7 -1.5 M-4.05 -7.1 Q1.45 2.6 8.6 13.8 L13.0 11.55 8.15 4.2 -0.55 -9.25 -4.05 -7.1" fill="#000100" fill-rule="evenodd" stroke="none"/>
      <path d="M9.6 -1.1 L9.1 -3.05 Q95.55 -53.95 77.9 -42.95 112.75 -63.5 118.35 -66.0 123.9 -68.5 178.65 -102.85 200.05 -113.95 223.65 -132.05 194.3 -106.0 175.9 -95.4 157.5 -84.8 142.45 -75.75 127.35 -66.75 92.5 -47.7 57.6 -28.7 37.25 -16.75 16.9 -4.8 9.6 -1.1" fill="#f2f2f2" fill-rule="evenodd" stroke="none"/>
      <path d="M-4.05 -7.1 L-0.55 -9.25 8.15 4.2 13.0 11.55 8.6 13.8 Q1.45 2.6 -4.05 -7.1" fill="#856a03" fill-rule="evenodd" stroke="none"/>
      <path d="M-1.45 5.55 Q-3.85 7.05 -7.05 9.1 -19.35 17.05 -23.3 18.0 L-8.75 8.4 -2.55 3.9 -2.0 4.65 -1.45 5.55" fill="#515151" fill-rule="evenodd" stroke="none"/>
    </g>
  </defs>
</svg>
