<?xml version="1.0" encoding="UTF-8" standalone="no"?>
<svg xmlns:xlink="http://www.w3.org/1999/xlink" height="720.75px" width="1716.8px" xmlns="http://www.w3.org/2000/svg">
  <g transform="matrix(1, 0, 0, 1, 307.05, 450.35)">
    <use height="41.2" transform="matrix(0.85, 0.0, 0.0, 0.85, -20.9473, 113.1202)" width="101.3" xlink:href="#shape0"/>
    <use height="251.0" transform="matrix(0.85, 0.0, 0.0, 0.85, -110.6638, -146.2545)" width="260.4" xlink:href="#shape1"/>
    <use height="148.8" transform="matrix(0.85, 0.0, 0.0, 0.85, -69.0993, 12.0988)" width="176.75" xlink:href="#shape2"/>
    <use height="69.5" transform="matrix(0.85, 0.0, 0.0, 0.85, -49.337, -73.8353)" width="143.5" xlink:href="#shape3"/>
    <use height="49.15" transform="matrix(0.85, 0.0, 0.0, 0.85, -58.0494, -150.2495)" width="162.15" xlink:href="#shape4"/>
  </g>
  <defs>
    <g id="shape0" transform="matrix(1, 0, 0, 1, 24.35, 19.8)">
      <path d="M-3.95 2.3 L-1.35 -6.6 Q0.4 -6.95 0.9 -6.6 1.25 -6.3 1.65 -4.4 2.55 0.35 -1.05 9.15 -5.45 19.65 -12.8 21.05 -19.75 22.4 -22.65 18.75 -23.6 17.55 -24.0 15.95 L-24.25 14.5 Q-24.5 13.15 -24.05 7.65 -23.6 2.15 -23.8 1.05 -23.65 1.0 -24.15 -4.2 -23.1 -0.4 -21.55 -0.65 -19.9 -1.0 -19.2 0.1 L-18.85 0.85 -18.3 3.05 Q-18.0 4.9 -18.45 7.25 L-18.75 8.6 -18.8 8.7 -19.2 10.25 -19.15 10.3 -19.3 11.75 -19.2 13.95 -19.2 14.2 Q-18.75 16.6 -12.95 16.0 -8.9 15.55 -4.85 4.7 L-4.8 4.7 -3.95 2.3 M57.35 -7.7 L57.5 -7.1 Q57.7 -6.0 56.85 -2.85 L56.8 -2.7 56.75 -2.55 56.6 -2.0 Q55.95 0.6 56.15 1.9 L56.2 1.95 Q56.6 4.15 57.3 6.35 L59.75 6.4 Q67.1 4.95 69.5 -4.55 L69.7 -5.6 70.05 -7.55 70.3 -9.15 70.35 -9.4 70.9 -12.35 71.2 -13.7 Q72.1 -18.1 73.9 -19.8 L75.65 -19.45 Q76.55 -19.15 76.85 -17.55 77.25 -15.55 76.35 -11.15 75.35 -6.3 73.4 -1.6 68.0 10.85 59.75 12.45 54.45 13.5 52.35 8.25 51.7 6.6 51.4 4.5 L51.2 2.5 Q50.45 -1.35 50.6 -2.7 51.0 -6.2 54.6 -8.9 L56.35 -8.8 Q57.0 -8.65 57.35 -7.7" fill="#000000" fill-rule="evenodd" stroke="none"/>
      <path d="M-18.85 0.85 L-18.05 0.85 Q-15.2 1.05 -13.45 3.5 L-12.7 4.6 Q-8.1 2.55 -5.85 2.15 L-3.95 2.3 -4.8 4.7 -5.1 4.6 -4.85 4.7 Q-8.9 15.55 -12.95 16.0 -18.75 16.6 -19.2 14.2 L-19.2 13.95 -19.3 11.75 -19.15 10.3 -19.2 10.25 -18.8 8.7 -18.75 8.6 -18.45 7.25 Q-18.0 4.9 -18.3 3.05 L-18.85 0.85 M70.3 -9.15 L70.05 -7.55 69.7 -5.6 69.5 -4.55 Q67.1 4.95 59.75 6.4 L57.3 6.35 Q56.6 4.15 56.2 1.95 L56.15 1.9 Q55.95 0.6 56.6 -2.0 L56.75 -2.55 56.8 -2.7 56.85 -2.85 Q57.7 -6.0 57.5 -7.1 L57.35 -7.7 59.7 -9.0 Q62.7 -10.25 70.9 -12.35 L70.35 -9.4 69.9 -9.2 70.3 -9.15" fill="#122c65" fill-rule="evenodd" stroke="none"/>
    </g>
    <g id="shape1" transform="matrix(1, 0, 0, 1, 129.9, 324.95)">
      <path d="M59.5 -256.6 Q67.55 -249.85 77.8 -242.05 88.0 -234.3 102.3 -230.5 94.9 -239.85 88.75 -250.75 109.0 -241.5 117.15 -239.15 103.95 -250.05 95.15 -263.75 L81.55 -285.1 Q56.0 -312.85 22.45 -315.6 L-13.0 -317.7 -13.95 -317.45 Q-26.45 -318.15 -34.95 -315.6 -60.5 -307.9 -74.7 -290.55 -89.45 -272.6 -94.05 -253.5 -99.35 -229.0 -104.15 -212.95 -109.0 -196.9 -118.15 -175.9 -109.8 -182.85 -108.75 -182.85 -105.7 -182.85 -105.15 -180.65 L-105.15 -177.9 Q-105.15 -176.4 -106.1 -170.4 -107.05 -164.45 -106.4 -159.65 -105.75 -154.9 -100.4 -144.65 -95.05 -134.45 -87.6 -134.1 L-87.6 -147.3 Q-87.6 -148.8 -84.6 -148.8 -80.0 -144.9 -76.6 -141.45 -76.2 -144.1 -75.0 -147.5 L-74.6 -148.55 Q-81.25 -152.9 -79.7 -160.55 L-77.9 -169.05 Q-81.65 -176.0 -83.15 -180.6 -84.7 -185.25 -78.85 -199.6 -87.85 -208.85 -83.15 -221.7 -86.7 -220.4 -86.9 -220.4 -92.35 -220.4 -90.95 -224.75 -90.95 -226.75 -88.5 -237.0 -85.4 -249.95 -78.95 -262.25 -72.5 -274.6 -61.9 -283.95 -60.45 -285.25 -56.4 -283.45 -68.55 -272.6 -77.05 -253.35 -85.55 -234.15 -84.05 -229.25 L-42.85 -255.3 -39.65 -257.35 -39.2 -256.6 -38.7 -254.6 Q-38.7 -253.75 -42.9 -247.6 -45.3 -244.2 -51.7 -236.9 -32.35 -245.2 -21.45 -257.4 -10.6 -269.6 -7.45 -275.5 -2.7 -275.5 -3.9 -267.65 -3.9 -262.85 -8.75 -245.45 L23.1 -294.2 Q25.75 -296.3 31.0 -277.55 36.2 -258.85 37.25 -248.0 43.0 -261.35 49.4 -272.55 51.45 -263.35 59.5 -256.6 M22.9 -283.05 Q-6.35 -236.5 -10.65 -236.35 -13.5 -236.25 -15.6 -238.0 L-12.8 -255.65 -13.05 -256.1 Q-19.6 -248.8 -32.2 -239.95 -41.9 -233.15 -48.85 -230.55 -43.95 -210.25 -52.0 -201.3 L-50.0 -197.15 Q-46.3 -188.9 -46.3 -187.25 -46.3 -184.25 -48.65 -178.0 -50.1 -174.2 -51.85 -172.1 L-50.55 -170.25 Q-46.6 -166.05 -46.65 -160.25 -46.75 -154.5 -48.9 -150.1 -35.9 -135.0 -1.4 -135.0 9.35 -135.0 24.9 -139.55 39.95 -143.95 54.3 -150.95 69.25 -158.25 78.25 -165.9 88.1 -174.3 88.1 -181.0 88.1 -182.2 86.25 -186.45 L82.1 -195.95 Q76.1 -211.05 76.1 -224.15 L76.1 -232.75 Q76.15 -233.5 76.75 -234.0 56.15 -245.35 49.15 -256.35 48.9 -255.3 41.6 -243.2 34.3 -231.05 33.75 -235.05 33.2 -239.1 28.35 -257.85 23.45 -276.65 22.9 -283.05 M104.75 -235.9 L111.7 -225.95 Q111.7 -222.3 107.7 -222.3 103.6 -222.3 97.45 -224.4 101.9 -212.45 100.25 -207.3 98.55 -202.2 97.85 -201.0 103.9 -190.8 102.5 -181.45 L108.1 -166.5 Q115.1 -146.65 118.2 -141.15 L117.7 -138.95 Q117.2 -138.15 115.2 -138.15 113.7 -138.15 111.85 -139.4 109.45 -140.95 106.35 -141.75 106.2 -140.0 104.4 -137.25 103.15 -135.25 101.75 -134.25 101.05 -131.8 97.0 -130.05 98.95 -126.5 99.5 -123.6 L100.25 -118.55 100.45 -110.6 Q100.5 -104.9 95.3 -95.75 90.9 -88.1 79.35 -77.8 L81.8 -97.8 Q77.5 -90.6 76.45 -92.25 75.4 -93.9 73.9 -98.65 72.4 -103.45 72.05 -108.35 71.7 -113.25 72.85 -119.1 74.0 -124.95 76.55 -128.8 75.05 -129.45 73.75 -130.35 73.05 -130.85 72.5 -131.3 L70.5 -131.1 62.55 -136.2 Q59.85 -132.5 57.75 -130.35 53.8 -126.45 45.45 -125.0 L45.45 -127.95 44.1 -127.05 Q37.65 -122.85 34.65 -122.85 33.15 -122.85 32.35 -124.05 31.5 -125.25 30.0 -125.25 L26.85 -123.5 Q23.85 -121.8 21.15 -121.8 16.5 -121.8 13.9 -123.8 L13.25 -123.2 Q9.1 -119.4 3.45 -119.4 -0.5 -119.4 -2.85 -120.95 L-3.45 -120.6 Q-9.95 -117.0 -12.3 -117.0 -17.5 -117.0 -18.8 -119.9 L-19.6 -121.95 Q-20.05 -122.85 -21.15 -122.85 L-25.25 -121.1 Q-29.2 -119.4 -31.8 -119.4 -37.65 -119.4 -40.85 -126.35 L-41.65 -128.35 Q-46.6 -125.25 -49.35 -125.25 L-48.75 -122.8 Q-48.05 -119.45 -47.75 -115.35 L-47.55 -111.75 Q-47.55 -100.4 -52.6 -92.0 -57.2 -84.3 -69.8 -73.95 -70.1 -76.6 -70.05 -80.35 -70.05 -84.1 -68.45 -97.0 -70.5 -93.75 -73.1 -91.1 -77.4 -97.25 -76.95 -108.75 -75.5 -122.1 -73.0 -128.85 L-73.5 -128.85 Q-78.4 -128.85 -78.9 -129.65 L-79.45 -131.15 -81.45 -133.8 -81.15 -130.75 Q-80.7 -128.15 -80.85 -126.15 L-81.2 -125.7 Q-81.6 -125.25 -83.4 -125.25 -102.35 -125.25 -109.35 -146.25 -111.65 -153.3 -112.3 -161.7 -112.75 -168.0 -112.2 -170.85 L-112.5 -171.45 Q-123.45 -160.5 -126.45 -160.5 L-128.7 -161.1 -129.65 -161.65 -129.9 -163.8 Q-129.9 -164.6 -118.95 -191.45 -106.85 -223.4 -101.7 -248.55 -100.95 -252.65 -97.4 -261.55 -91.85 -275.45 -83.9 -287.0 -63.0 -317.3 -32.35 -322.05 -28.2 -324.6 -0.75 -324.95 26.65 -325.35 53.3 -314.85 82.7 -303.3 92.6 -283.2 103.1 -261.8 117.95 -247.2 122.1 -243.15 127.0 -239.3 L130.5 -236.3 Q130.5 -232.6 125.95 -232.6 116.25 -232.6 105.55 -235.65 L104.75 -235.9 M84.4 -228.0 L84.25 -218.2 Q84.15 -212.5 84.6 -210.0 84.95 -208.15 90.4 -195.3 L94.3 -185.55 Q95.6 -182.05 95.6 -181.15 L95.5 -179.5 Q97.15 -183.0 97.65 -184.95 98.1 -186.9 95.25 -192.45 92.35 -198.05 90.45 -199.6 89.5 -200.45 89.5 -202.1 89.5 -202.7 91.45 -204.6 97.65 -210.9 87.8 -228.35 86.0 -229.15 84.1 -230.1 L84.4 -228.0 M97.2 -159.7 Q97.75 -162.1 95.25 -165.75 92.7 -169.45 91.75 -170.25 89.3 -166.7 85.35 -162.9 L81.05 -159.25 76.0 -155.45 Q75.75 -152.45 78.1 -150.5 L80.5 -148.45 78.5 -144.5 Q74.75 -136.9 79.0 -133.95 83.25 -131.1 87.75 -132.5 92.2 -133.9 94.75 -135.95 97.3 -138.0 94.75 -143.65 92.2 -149.3 90.9 -148.75 92.35 -151.6 93.65 -153.25 96.65 -157.3 97.2 -159.7 M100.2 -145.75 Q100.75 -147.55 100.5 -149.1 L110.25 -145.5 104.85 -160.4 Q101.4 -169.65 99.6 -172.95 L98.9 -171.8 Q106.05 -158.75 100.35 -152.75 L97.75 -149.85 Q98.95 -148.25 99.95 -145.8 L100.1 -145.4 100.2 -145.75 M82.9 -127.45 Q80.7 -125.8 78.4 -120.35 76.05 -114.9 79.35 -103.3 83.95 -109.8 87.5 -112.2 86.5 -97.95 86.4 -92.95 88.65 -95.4 91.65 -101.5 94.65 -107.65 95.0 -113.65 95.3 -119.65 93.45 -123.25 91.55 -126.9 90.45 -128.15 L82.9 -127.45 M69.4 -151.0 Q64.75 -148.2 59.35 -145.5 46.2 -138.9 31.75 -134.45 34.0 -129.3 36.55 -129.5 39.05 -129.75 43.45 -133.25 L48.95 -137.55 Q49.3 -135.85 50.3 -132.6 53.85 -134.65 58.0 -139.5 61.95 -144.15 62.85 -144.15 65.6 -144.15 69.8 -139.55 L69.9 -139.85 Q72.15 -145.05 73.1 -146.4 71.45 -147.6 70.05 -149.85 L69.4 -151.0 M24.95 -131.45 L26.4 -132.9 24.5 -132.4 17.45 -130.7 17.95 -130.25 Q20.3 -128.25 21.15 -128.25 22.05 -128.25 24.95 -131.45 M3.2 -125.9 L3.15 -125.85 3.3 -125.85 Q7.85 -125.85 9.9 -128.55 L9.9 -129.2 4.05 -128.35 Q4.05 -127.15 3.2 -125.9 M-60.7 -230.4 L-60.8 -232.15 Q-60.8 -233.9 -55.45 -242.05 L-63.6 -236.2 -72.7 -229.8 Q-73.1 -229.65 -73.45 -229.45 L-76.4 -223.95 Q-78.85 -219.5 -78.3 -213.15 -77.8 -206.85 -75.2 -203.35 L-73.3 -200.75 -76.7 -190.4 Q-79.25 -182.55 -77.3 -179.3 L-71.1 -169.5 Q-75.85 -159.85 -74.15 -156.45 -72.5 -153.05 -69.7 -150.3 -66.95 -147.6 -67.4 -147.65 -67.9 -147.75 -69.55 -144.45 -71.2 -141.15 -71.3 -139.05 -68.4 -133.2 -61.5 -134.75 L-60.1 -135.1 -57.2 -135.95 Q-54.7 -136.7 -53.8 -138.65 -52.9 -140.65 -53.0 -141.0 L-53.0 -141.05 Q-53.5 -143.35 -57.4 -149.15 -53.7 -153.3 -52.6 -157.55 -51.55 -161.85 -55.5 -166.0 -59.45 -170.2 -59.8 -171.2 -60.1 -172.25 -59.85 -173.6 -56.2 -176.85 -54.5 -180.5 -52.85 -184.15 -52.85 -187.1 -52.85 -190.05 -56.15 -194.75 L-60.45 -200.9 Q-58.25 -203.55 -55.7 -208.15 -53.15 -212.75 -53.0 -217.15 -52.8 -221.55 -54.55 -224.7 L-56.75 -228.95 Q-59.95 -229.0 -60.7 -230.4 M-51.75 -130.75 Q-47.1 -131.7 -43.45 -135.75 L-46.55 -137.6 -48.5 -134.8 Q-50.35 -132.4 -52.1 -131.25 L-51.75 -130.75 M-60.65 -129.2 L-64.85 -129.35 Q-67.55 -127.15 -70.2 -119.5 -72.95 -111.9 -71.1 -101.4 -66.55 -111.55 -64.65 -114.6 -61.15 -114.9 -64.05 -96.45 L-65.5 -85.25 Q-53.4 -99.85 -53.4 -111.9 -53.4 -117.4 -53.85 -121.0 -54.3 -124.6 -59.4 -129.2 L-60.65 -129.2 M-6.35 -127.4 L-12.15 -127.25 -15.9 -127.35 Q-14.55 -123.45 -11.7 -123.45 -9.75 -123.45 -6.3 -127.1 L-6.35 -127.4 M-35.05 -131.45 Q-33.0 -125.85 -31.2 -125.85 -28.55 -125.85 -25.25 -128.65 -30.2 -129.75 -34.95 -131.65 L-35.15 -131.7 -35.05 -131.45" fill="#000000" fill-rule="evenodd" stroke="none"/>
      <path d="M59.5 -256.6 Q51.45 -263.35 49.4 -272.55 43.0 -261.35 37.25 -248.0 36.2 -258.85 31.0 -277.55 25.75 -296.3 23.1 -294.2 L-8.75 -245.45 Q-3.9 -262.85 -3.9 -267.65 -2.7 -275.5 -7.45 -275.5 -10.6 -269.6 -21.45 -257.4 -32.35 -245.2 -51.7 -236.9 -45.3 -244.2 -42.9 -247.6 -38.7 -253.75 -38.7 -254.6 L-39.2 -256.6 -39.65 -257.35 -42.85 -255.3 -84.05 -229.25 Q-85.55 -234.15 -77.05 -253.35 -68.55 -272.6 -56.4 -283.45 -60.45 -285.25 -61.9 -283.95 -72.5 -274.6 -78.95 -262.25 -85.4 -249.95 -88.5 -237.0 -90.95 -226.75 -90.95 -224.75 -92.35 -220.4 -86.9 -220.4 -86.7 -220.4 -83.15 -221.7 -87.85 -208.85 -78.85 -199.6 -84.7 -185.25 -83.15 -180.6 -81.65 -176.0 -77.9 -169.05 L-79.7 -160.55 Q-81.25 -152.9 -74.6 -148.55 L-75.0 -147.5 Q-76.2 -144.1 -76.6 -141.45 -80.0 -144.9 -84.6 -148.8 -87.6 -148.8 -87.6 -147.3 L-87.6 -134.1 Q-95.05 -134.45 -100.4 -144.65 -105.75 -154.9 -106.4 -159.65 -107.05 -164.45 -106.1 -170.4 -105.15 -176.4 -105.15 -177.9 L-105.15 -180.65 Q-105.7 -182.85 -108.75 -182.85 -109.8 -182.85 -118.15 -175.9 -109.0 -196.9 -104.15 -212.95 -99.35 -229.0 -94.05 -253.5 -89.45 -272.6 -74.7 -290.55 -60.5 -307.9 -34.95 -315.6 -26.45 -318.15 -13.95 -317.45 L-13.0 -317.7 22.45 -315.6 Q56.0 -312.85 81.55 -285.1 L95.15 -263.75 Q103.95 -250.05 117.15 -239.15 109.0 -241.5 88.75 -250.75 94.9 -239.85 102.3 -230.5 88.0 -234.3 77.8 -242.05 67.55 -249.85 59.5 -256.6 M99.95 -145.8 Q98.95 -148.25 97.75 -149.85 L100.35 -152.75 Q106.05 -158.75 98.9 -171.8 L99.6 -172.95 Q101.4 -169.65 104.85 -160.4 L110.25 -145.5 100.5 -149.1 Q100.75 -147.55 100.2 -145.75 L99.95 -145.8 M97.2 -159.7 Q96.65 -157.3 93.65 -153.25 92.35 -151.6 90.9 -148.75 92.2 -149.3 94.75 -143.65 97.3 -138.0 94.75 -135.95 92.2 -133.9 87.75 -132.5 83.25 -131.1 79.0 -133.95 74.75 -136.9 78.5 -144.5 L80.5 -148.45 78.1 -150.5 Q75.75 -152.45 76.0 -155.45 L81.05 -159.25 85.35 -162.9 Q89.3 -166.7 91.75 -170.25 92.7 -169.45 95.25 -165.75 97.75 -162.1 97.2 -159.7 M84.4 -228.0 L84.1 -230.1 Q86.0 -229.15 87.8 -228.35 97.65 -210.9 91.45 -204.6 89.5 -202.7 89.5 -202.1 89.5 -200.45 90.45 -199.6 92.35 -198.05 95.25 -192.45 98.1 -186.9 97.65 -184.95 97.15 -183.0 95.5 -179.5 L95.6 -181.15 Q95.6 -182.05 94.3 -185.55 L90.4 -195.3 Q84.95 -208.15 84.6 -210.0 84.15 -212.5 84.25 -218.2 L84.4 -228.0 M24.95 -131.45 Q22.05 -128.25 21.15 -128.25 20.3 -128.25 17.95 -130.25 L17.45 -130.7 24.5 -132.4 26.4 -132.9 24.95 -131.45 M69.4 -151.0 L70.05 -149.85 Q71.45 -147.6 73.1 -146.4 72.15 -145.05 69.9 -139.85 L69.8 -139.55 Q65.6 -144.15 62.85 -144.15 61.95 -144.15 58.0 -139.5 53.85 -134.65 50.3 -132.6 49.3 -135.85 48.95 -137.55 L43.45 -133.25 Q39.05 -129.75 36.55 -129.5 34.0 -129.3 31.75 -134.45 46.2 -138.9 59.35 -145.5 64.75 -148.2 69.4 -151.0 M82.9 -127.45 L90.45 -128.15 Q91.55 -126.9 93.45 -123.25 95.3 -119.65 95.0 -113.65 94.65 -107.65 91.65 -101.5 88.65 -95.4 86.4 -92.95 86.5 -97.95 87.5 -112.2 83.95 -109.8 79.35 -103.3 76.05 -114.9 78.4 -120.35 80.7 -125.8 82.9 -127.45 M3.2 -125.9 Q4.05 -127.15 4.05 -128.35 L9.9 -129.2 9.9 -128.55 Q7.85 -125.85 3.3 -125.85 L3.2 -125.9 M-6.35 -127.4 L-6.3 -127.1 Q-9.75 -123.45 -11.7 -123.45 -14.55 -123.45 -15.9 -127.35 L-12.15 -127.25 -6.35 -127.4 M-60.65 -129.2 L-59.4 -129.2 Q-54.3 -124.6 -53.85 -121.0 -53.4 -117.4 -53.4 -111.9 -53.4 -99.85 -65.5 -85.25 L-64.05 -96.45 Q-61.15 -114.9 -64.65 -114.6 -66.55 -111.55 -71.1 -101.4 -72.95 -111.9 -70.2 -119.5 -67.55 -127.15 -64.85 -129.35 L-60.65 -129.2 M-51.75 -130.75 L-52.1 -131.25 Q-50.35 -132.4 -48.5 -134.8 L-46.55 -137.6 -43.45 -135.75 Q-47.1 -131.7 -51.75 -130.75 M-60.7 -230.4 Q-59.95 -229.0 -56.75 -228.95 L-54.55 -224.7 Q-52.8 -221.55 -53.0 -217.15 -53.15 -212.75 -55.7 -208.15 -58.25 -203.55 -60.45 -200.9 L-56.15 -194.75 Q-52.85 -190.05 -52.85 -187.1 -52.85 -184.15 -54.5 -180.5 -56.2 -176.85 -59.85 -173.6 -60.1 -172.25 -59.8 -171.2 -59.45 -170.2 -55.5 -166.0 -51.55 -161.85 -52.6 -157.55 -53.7 -153.3 -57.4 -149.15 -53.5 -143.35 -53.0 -141.05 L-53.0 -141.0 Q-52.9 -140.65 -53.8 -138.65 -54.7 -136.7 -57.2 -135.95 L-60.1 -135.1 -61.5 -134.75 Q-68.4 -133.2 -71.3 -139.05 -71.2 -141.15 -69.55 -144.45 -67.9 -147.75 -67.4 -147.65 -66.95 -147.6 -69.7 -150.3 -72.5 -153.05 -74.15 -156.45 -75.85 -159.85 -71.1 -169.5 L-77.3 -179.3 Q-79.25 -182.55 -76.7 -190.4 L-73.3 -200.75 -75.2 -203.35 Q-77.8 -206.85 -78.3 -213.15 -78.85 -219.5 -76.4 -223.95 L-73.45 -229.45 Q-73.1 -229.65 -72.7 -229.8 L-63.6 -236.2 -55.45 -242.05 Q-60.8 -233.9 -60.8 -232.15 L-60.7 -230.4 M-34.95 -131.65 Q-30.2 -129.75 -25.25 -128.65 -28.55 -125.85 -31.2 -125.85 -33.0 -125.85 -35.05 -131.45 L-34.95 -131.65" fill="#e6e6e6" fill-rule="evenodd" stroke="none"/>
      <path d="M22.9 -283.05 Q23.45 -276.65 28.35 -257.85 33.2 -239.1 33.75 -235.05 34.3 -231.05 41.6 -243.2 48.9 -255.3 49.15 -256.35 56.15 -245.35 76.75 -234.0 76.15 -233.5 76.1 -232.75 L76.1 -224.15 Q76.1 -211.05 82.1 -195.95 L86.25 -186.45 Q88.1 -182.2 88.1 -181.0 88.1 -174.3 78.25 -165.9 69.25 -158.25 54.3 -150.95 39.95 -143.95 24.9 -139.55 9.35 -135.0 -1.4 -135.0 -35.9 -135.0 -48.9 -150.1 -46.75 -154.5 -46.65 -160.25 -46.6 -166.05 -50.55 -170.25 L-51.85 -172.1 Q-50.1 -174.2 -48.65 -178.0 -46.3 -184.25 -46.3 -187.25 -46.3 -188.9 -50.0 -197.15 L-52.0 -201.3 Q-43.95 -210.25 -48.85 -230.55 -41.9 -233.15 -32.2 -239.95 -19.6 -248.8 -13.05 -256.1 L-12.8 -255.65 -15.6 -238.0 Q-13.5 -236.25 -10.65 -236.35 -6.35 -236.5 22.9 -283.05" fill="#fff1dd" fill-rule="evenodd" stroke="none"/>
      <path d="M105.85 -132.05 L105.8 -130.65 Q105.8 -126.65 104.45 -121.6 103.05 -116.6 97.85 -116.75 92.6 -116.95 86.6 -125.4 L80.75 -120.05 Q77.55 -117.3 74.0 -117.2 70.4 -117.2 68.75 -123.25 67.05 -129.3 66.95 -133.5 L66.8 -135.4 Q66.7 -136.7 66.95 -137.45 67.75 -139.65 72.3 -139.65 75.35 -139.65 82.0 -135.55 87.6 -131.4 87.35 -132.0 87.05 -132.6 91.75 -135.8 96.45 -139.1 100.5 -139.1 104.5 -139.15 105.25 -136.25 105.95 -133.4 105.85 -132.05 M89.2 -129.1 Q90.7 -125.65 93.2 -122.85 95.7 -120.05 98.3 -119.7 100.85 -119.35 101.6 -123.65 L102.85 -131.25 Q103.4 -134.6 100.85 -135.5 98.3 -136.5 94.85 -133.75 L89.2 -129.1 M82.45 -131.3 Q80.4 -132.9 75.05 -135.3 69.7 -137.75 70.55 -132.95 70.55 -129.85 71.65 -125.35 72.75 -120.85 75.0 -121.0 77.25 -121.2 80.85 -124.8 84.45 -128.4 84.5 -128.95 84.5 -129.7 82.45 -131.3 M-43.8 -137.65 Q-43.1 -134.8 -43.2 -133.45 L-43.25 -132.05 Q-43.25 -128.05 -44.6 -123.0 -46.0 -118.0 -51.2 -118.15 -56.45 -118.35 -62.45 -126.8 L-68.3 -121.45 Q-71.5 -118.7 -75.05 -118.6 -78.65 -118.6 -80.3 -124.65 -82.0 -130.7 -82.1 -134.9 L-82.25 -136.8 Q-82.35 -138.1 -82.1 -138.85 -81.3 -141.05 -76.75 -141.05 -73.7 -141.05 -67.05 -136.95 -61.45 -132.8 -61.7 -133.4 -62.0 -134.0 -57.3 -137.2 -52.6 -140.5 -48.55 -140.5 -44.55 -140.55 -43.8 -137.65 M-59.85 -130.5 Q-58.35 -127.05 -55.85 -124.25 -53.35 -121.45 -50.75 -121.1 -48.2 -120.75 -47.45 -125.05 L-46.2 -132.65 Q-45.65 -136.0 -48.2 -136.9 -50.75 -137.9 -54.2 -135.15 L-59.85 -130.5 M-78.5 -134.35 Q-78.5 -131.25 -77.4 -126.75 -76.3 -122.25 -74.05 -122.4 -71.8 -122.6 -68.2 -126.2 -64.6 -129.8 -64.55 -130.35 -64.55 -131.1 -66.6 -132.7 -68.65 -134.3 -74.0 -136.7 -79.35 -139.15 -78.5 -134.35" fill="#000000" fill-rule="evenodd" stroke="none"/>
      <path d="M82.45 -131.3 Q84.5 -129.7 84.5 -128.95 84.45 -128.4 80.85 -124.8 77.25 -121.2 75.0 -121.0 72.75 -120.85 71.65 -125.35 70.55 -129.85 70.55 -132.95 69.7 -137.75 75.05 -135.3 80.4 -132.9 82.45 -131.3 M89.2 -129.1 L94.85 -133.75 Q98.3 -136.5 100.85 -135.5 103.4 -134.6 102.85 -131.25 L101.6 -123.65 Q100.85 -119.35 98.3 -119.7 95.7 -120.05 93.2 -122.85 90.7 -125.65 89.2 -129.1 M-78.5 -134.35 Q-79.35 -139.15 -74.0 -136.7 -68.65 -134.3 -66.6 -132.7 -64.55 -131.1 -64.55 -130.35 -64.6 -129.8 -68.2 -126.2 -71.8 -122.6 -74.05 -122.4 -76.3 -122.25 -77.4 -126.75 -78.5 -131.25 -78.5 -134.35 M-59.85 -130.5 L-54.2 -135.15 Q-50.75 -137.9 -48.2 -136.9 -45.65 -136.0 -46.2 -132.65 L-47.45 -125.05 Q-48.2 -120.75 -50.75 -121.1 -53.35 -121.45 -55.85 -124.25 -58.35 -127.05 -59.85 -130.5" fill="#5ee73a" fill-rule="evenodd" stroke="none"/>
    </g>
    <g id="shape2" transform="matrix(1, 0, 0, 1, 81.0, 138.65)">
      <path d="M84.95 -124.85 Q86.45 -122.5 86.35 -121.05 86.2 -119.2 84.25 -114.4 81.75 -108.55 78.4 -103.5 68.55 -89.0 56.85 -89.8 54.75 -89.95 52.35 -94.65 L51.15 -96.7 54.0 -99.55 Q55.95 -101.9 56.8 -103.85 L56.85 -103.85 Q64.5 -103.3 72.3 -115.4 L77.55 -123.75 Q80.2 -127.5 82.05 -127.35 83.35 -127.3 84.95 -124.85" fill="#fff1dd" fill-rule="evenodd" stroke="none"/>
      <path d="M84.95 -124.85 Q83.35 -127.3 82.05 -127.35 80.2 -127.5 77.55 -123.75 L72.3 -115.4 Q64.5 -103.3 56.85 -103.85 L56.8 -103.85 Q55.95 -101.9 54.0 -99.55 L51.15 -96.7 52.35 -94.65 Q54.75 -89.95 56.85 -89.8 68.55 -89.0 78.4 -103.5 81.75 -108.55 84.25 -114.4 86.2 -119.2 86.35 -121.05 86.45 -122.5 84.95 -124.85 M91.6 -120.45 Q91.4 -117.65 89.05 -111.95 86.2 -105.15 82.1 -99.3 70.45 -82.85 55.4 -83.9 51.05 -84.2 47.15 -89.75 43.65 -94.75 43.9 -98.0 L44.1 -98.25 43.65 -98.8 41.2 -102.7 41.25 -103.1 Q34.8 -104.95 27.35 -118.6 24.65 -123.55 22.3 -129.2 20.35 -133.8 20.4 -134.15 20.5 -136.25 21.35 -136.65 L27.1 -137.0 Q36.55 -136.35 44.55 -127.7 51.45 -120.2 51.15 -115.5 L51.15 -115.25 Q53.8 -114.7 55.95 -110.3 63.8 -109.65 70.75 -121.4 77.65 -133.2 82.55 -132.95 87.4 -132.75 90.0 -126.55 91.3 -123.5 91.6 -120.45 M27.25 -131.6 L27.0 -131.75 27.2 -131.5 34.55 -119.5 Q38.95 -112.05 43.7 -109.55 45.85 -111.9 46.1 -115.15 46.45 -120.2 39.25 -124.95 30.6 -129.6 27.25 -131.6 M47.2 -104.15 L47.8 -103.5 Q51.25 -103.25 51.45 -105.65 51.55 -107.0 50.05 -109.05 49.05 -105.75 47.2 -104.15" fill="#000000" fill-rule="evenodd" stroke="none"/>
      <path d="M27.2 -131.5 L27.25 -131.6 Q30.6 -129.6 39.25 -124.95 46.45 -120.2 46.1 -115.15 45.85 -111.9 43.7 -109.55 38.95 -112.05 34.55 -119.5 L27.2 -131.5 M47.2 -104.15 Q49.05 -105.75 50.05 -109.05 51.55 -107.0 51.45 -105.65 51.25 -103.25 47.8 -103.5 L47.2 -104.15" fill="#ffffff" fill-rule="evenodd" stroke="none"/>
      <path d="M22.45 -136.4 L30.25 -124.75 38.95 -111.8 38.9 -111.9 42.45 -106.8 48.45 -98.2 53.3 -91.65 69.95 -70.1 91.25 -42.55 94.25 -38.7 Q95.9 -33.4 95.75 -30.9 95.55 -26.6 91.5 -22.75 89.5 -20.9 86.25 -18.9 73.7 -11.1 42.5 -1.15 19.35 6.2 10.2 7.55 1.0 8.9 -2.6 10.0 -6.25 11.05 -18.25 4.75 -30.35 -1.6 -25.35 -32.45 -20.4 -63.3 -20.4 -65.8 L-19.7 -75.8 Q-19.05 -83.35 -19.3 -87.4 L-20.05 -95.3 -24.15 -131.55 Q-6.8 -134.15 22.2 -136.7 L22.4 -136.45 22.45 -136.4 M15.9 -132.3 L12.5 -132.55 11.45 -130.1 12.5 -132.55 Q19.35 -131.55 11.45 -130.1 L8.4 -129.6 Q-3.65 -127.85 -16.25 -129.35 L-16.1 -128.35 -15.9 -126.5 -13.85 -110.95 -12.7 -102.2 -12.75 -101.85 Q-12.1 -97.25 -12.55 -88.95 L-13.3 -74.3 Q-13.5 -70.3 -14.35 -64.7 L-14.5 -64.05 -15.8 -58.2 -17.45 -49.75 Q-25.35 -7.65 -15.5 -2.05 -4.05 4.4 1.65 3.1 7.35 1.7 10.65 1.55 13.95 1.35 68.15 -17.45 L68.2 -17.5 68.2 -17.45 Q78.6 -22.05 84.05 -25.8 91.95 -31.45 89.05 -35.4 L76.5 -51.6 75.85 -52.55 75.3 -53.15 69.5 -60.8 60.45 -72.65 59.5 -73.95 59.0 -74.55 53.4 -82.0 53.15 -82.3 42.65 -96.4 36.5 -104.9 31.55 -111.7 26.7 -118.6 Q20.25 -127.75 15.9 -132.3 L18.85 -132.1 15.9 -132.3 M-15.5 -58.15 L-15.65 -57.4 Q-17.15 -49.55 -15.55 -58.15 L-14.45 -64.05 -15.5 -58.15 -15.55 -58.15 -15.5 -58.15 M-17.65 -59.5 L-17.55 -59.9 -17.6 -59.9 -17.65 -59.5" fill="#000000" fill-rule="evenodd" stroke="none"/>
      <path d="M22.4 -136.45 L22.5 -136.45 22.45 -136.4 22.4 -136.45 M-16.1 -128.35 L-16.25 -129.35 Q-3.65 -127.85 8.4 -129.6 L11.45 -130.1 7.8 -121.65 -16.1 -128.35 M13.95 -138.15 Q12.75 -138.2 13.7 -138.65 L13.95 -138.15" fill="#fff1dd" fill-rule="evenodd" stroke="none"/>
      <path d="M-13.85 -110.95 L-1.95 -101.8 -0.9 -103.9 11.8 -87.8 27.2 -93.9 25.25 -112.55 27.65 -111.35 26.7 -118.6 31.55 -111.7 36.5 -104.9 42.65 -96.4 53.15 -82.3 Q26.95 -65.55 -15.5 -58.15 L-14.45 -64.05 -14.5 -64.05 -14.35 -64.7 Q-13.5 -70.3 -13.3 -74.3 L-12.55 -88.95 Q-12.1 -97.25 -12.75 -101.85 L-12.7 -102.2 -13.85 -110.95 M59.0 -74.55 L59.5 -73.95 60.45 -72.65 69.5 -60.8 75.3 -53.15 75.85 -52.55 76.5 -51.6 89.05 -35.4 Q91.95 -31.45 84.05 -25.8 78.6 -22.05 68.2 -17.45 L68.2 -17.5 68.15 -17.45 Q13.95 1.35 10.65 1.55 7.35 1.7 1.65 3.1 -4.05 4.4 -15.5 -2.05 -25.35 -7.65 -17.45 -49.75 L-17.4 -49.75 Q-9.75 -48.95 -9.75 -50.8 -9.6 -45.6 -9.75 -43.5 L-9.75 -43.45 Q-10.15 -38.0 -8.4 -35.35 L-8.35 -35.25 Q-5.8 -31.6 0.95 -33.3 -1.25 -17.0 13.9 -22.2 15.7 -4.6 28.8 -15.05 42.7 -2.65 47.8 -19.35 67.5 -18.5 58.4 -34.8 75.05 -38.65 59.9 -51.4 65.5 -55.2 65.4 -59.6 65.25 -65.0 56.35 -71.45 L54.75 -72.55 59.0 -74.55" fill="#18398c" fill-rule="evenodd" stroke="none"/>
      <path d="M12.5 -132.55 L15.9 -132.3 Q20.25 -127.75 26.7 -118.6 L27.65 -111.35 25.25 -112.55 19.15 -115.75 25.25 -112.55 27.2 -93.9 11.8 -87.8 -0.9 -103.9 -1.95 -101.8 -13.85 -110.95 -15.9 -126.5 -16.1 -128.35 7.8 -121.65 11.45 -130.1 Q19.35 -131.55 12.5 -132.55 M15.4 -117.7 L7.8 -121.65 15.4 -117.7 16.0 -118.2 15.4 -117.7 Q10.9 -114.2 4.25 -114.45 L2.3 -110.45 8.0 -111.0 8.95 -100.1 16.4 -95.9 11.8 -111.95 19.8 -97.35 22.1 -103.95 15.25 -113.4 Q17.3 -114.45 19.15 -115.75 L18.75 -115.95 18.6 -116.0 15.4 -117.7 M18.75 -115.95 L19.15 -115.75 18.75 -115.95 M19.85 -116.3 L19.15 -115.75 19.85 -116.3 M7.8 -121.65 L4.25 -114.45 7.8 -121.65 M2.3 -110.45 L-0.9 -103.9 2.3 -110.45 1.45 -110.45 2.3 -110.45 M53.15 -82.3 L53.4 -82.0 59.0 -74.55 54.75 -72.55 56.35 -71.45 65.4 -59.6 Q65.5 -55.2 59.9 -51.4 75.05 -38.65 58.4 -34.8 67.5 -18.5 47.8 -19.35 42.7 -2.65 28.8 -15.05 15.7 -4.6 13.9 -22.2 -1.25 -17.0 0.95 -33.3 -5.8 -31.6 -8.35 -35.25 L-8.65 -36.9 -8.7 -36.95 -8.8 -37.75 -9.65 -42.75 -9.75 -43.5 Q-9.6 -45.6 -9.75 -50.8 -9.75 -48.95 -17.4 -49.75 L-17.45 -49.75 -15.8 -58.2 -14.5 -64.05 -14.45 -64.05 -15.55 -58.15 Q-17.15 -49.55 -15.65 -57.4 L-15.5 -58.15 Q26.95 -65.55 53.15 -82.3 M59.85 -51.45 Q59.0 -61.15 54.75 -72.5 L54.75 -72.55 54.75 -72.5 Q59.0 -61.15 59.85 -51.45 L59.85 -51.4 59.9 -51.4 59.85 -51.45 M47.8 -19.35 Q55.4 -24.5 58.4 -34.8 L58.95 -36.8 Q60.5 -43.6 59.85 -51.4 60.5 -43.6 58.95 -36.8 L58.4 -34.8 Q55.4 -24.5 47.8 -19.35 46.25 -18.35 44.5 -17.5 37.35 -14.1 29.35 -15.45 37.35 -14.1 44.5 -17.5 46.25 -18.35 47.8 -19.35 M1.1 -34.4 L0.95 -33.3 1.85 -33.55 1.1 -34.4 Q-4.55 -40.9 -9.75 -50.85 -4.55 -40.9 1.1 -34.4 M-9.75 -50.8 L-9.75 -50.85 -9.75 -50.8 M28.2 -15.7 Q24.15 -16.55 19.9 -18.55 17.0 -19.95 13.9 -22.2 9.25 -25.65 4.1 -31.1 L1.85 -33.55 4.1 -31.1 Q9.25 -25.65 13.9 -22.2 17.0 -19.95 19.9 -18.55 24.15 -16.55 28.2 -15.7 L28.8 -15.05 29.35 -15.45 28.2 -15.7 M-17.4 -49.75 L-9.75 -50.85 -17.4 -49.75 M-9.75 -50.85 Q32.75 -57.45 54.75 -72.5 32.75 -57.45 -9.75 -50.85" fill="#ffffff" fill-rule="evenodd" stroke="none"/>
      <path d="M8.0 -111.0 L11.8 -112.0 11.8 -111.95 11.8 -112.0 8.0 -111.0 2.3 -110.45 4.25 -114.45 Q10.9 -114.2 15.4 -117.7 L18.6 -116.0 18.75 -115.95 19.15 -115.75 Q17.3 -114.45 15.25 -113.4 L22.1 -103.95 19.8 -97.35 11.8 -111.95 16.4 -95.9 8.95 -100.1 8.0 -111.0 M11.8 -112.0 L15.25 -113.4 11.8 -112.0" fill="#404040" fill-rule="evenodd" stroke="none"/>
      <path d="M12.5 -132.55 L15.9 -132.3 18.85 -132.1 M11.45 -130.1 L12.5 -132.55 M11.45 -130.1 L7.8 -121.65 15.4 -117.7 M18.75 -115.95 L18.6 -116.0 15.4 -117.7 M4.25 -114.45 L2.3 -110.45 M19.15 -115.75 L18.75 -115.95 M4.25 -114.45 L7.8 -121.65 -16.1 -128.35 M-13.85 -110.95 L-1.95 -101.8 -0.9 -103.9 2.3 -110.45 M25.25 -112.55 L27.65 -111.35 26.7 -118.6 M19.15 -115.75 L25.25 -112.55 27.2 -93.9 M11.8 -87.8 L-0.9 -103.9 M54.75 -72.55 L54.75 -72.5 Q59.0 -61.15 59.85 -51.45 L59.85 -51.4 Q60.5 -43.6 58.95 -36.8 L58.4 -34.8 Q55.4 -24.5 47.8 -19.35 M59.0 -74.55 L54.75 -72.55 M1.85 -33.55 L1.1 -34.4 Q-4.55 -40.9 -9.75 -50.85 L-17.4 -49.75 M1.85 -33.55 L4.1 -31.1 Q9.25 -25.65 13.9 -22.2 17.0 -19.95 19.9 -18.55 24.15 -16.55 28.2 -15.7 L29.35 -15.45 Q37.35 -14.1 44.5 -17.5 46.25 -18.35 47.8 -19.35 M-15.5 -58.15 Q26.95 -65.55 53.15 -82.3 M-15.55 -58.15 L-15.5 -58.15 M54.75 -72.5 Q32.75 -57.45 -9.75 -50.85" fill="none" stroke="#000000" stroke-linecap="round" stroke-linejoin="round" stroke-width="5.0"/>
      <path d="M27.2 -93.9 L11.8 -87.8" fill="none" stroke="#000000" stroke-linecap="round" stroke-linejoin="round" stroke-width="5.0"/>
      <path d="M15.4 -117.7 L16.0 -118.2 M11.8 -111.95 L11.8 -112.0 8.0 -111.0 8.95 -100.1 16.4 -95.9 11.8 -111.95 19.8 -97.35 22.1 -103.95 15.25 -113.4 11.8 -112.0 M15.4 -117.7 Q10.9 -114.2 4.25 -114.45 M2.3 -110.45 L8.0 -111.0 M19.15 -115.75 L19.85 -116.3 M19.15 -115.75 Q17.3 -114.45 15.25 -113.4 M2.3 -110.45 L1.45 -110.45" fill="none" stroke="#000000" stroke-linecap="round" stroke-linejoin="round" stroke-width="2.0"/>
      <path d="M54.75 -72.55 L56.35 -71.45 Q65.25 -65.0 65.4 -59.6 65.5 -55.2 59.9 -51.4 75.05 -38.65 58.4 -34.8 67.5 -18.5 47.8 -19.35 42.7 -2.65 28.8 -15.05 15.7 -4.6 13.9 -22.2 -1.25 -17.0 0.95 -33.3 -5.8 -31.6 -8.35 -35.25 L-8.4 -35.35 Q-10.15 -38.0 -9.75 -43.45 L-9.75 -43.5 Q-9.6 -45.6 -9.75 -50.8 M59.85 -51.45 L59.9 -51.4 M1.1 -34.4 L0.95 -33.3 1.85 -33.55 M-9.75 -50.85 L-9.75 -50.8 M28.2 -15.7 L28.8 -15.05 29.35 -15.45" fill="none" stroke="#000000" stroke-linecap="round" stroke-linejoin="round" stroke-width="3.0"/>
      <path d="M-74.75 -100.65 Q-75.3 -99.0 -75.3 -97.25 -72.85 -92.15 -64.0 -84.95 -55.15 -77.75 -44.0 -77.55 -32.85 -77.4 -29.9 -82.35 L-28.9 -84.1 Q-31.45 -85.45 -33.7 -87.6 L-36.25 -90.2 Q-37.05 -89.65 -39.15 -89.5 -44.9 -89.05 -58.5 -96.55 L-71.3 -104.15 Q-73.7 -104.0 -74.75 -100.65 M-54.15 -102.35 L-38.9 -94.55 -39.1 -95.5 Q-39.2 -97.2 -37.65 -100.85 L-36.8 -102.7 -37.7 -104.6 Q-38.95 -107.35 -39.0 -108.0 -39.1 -108.95 -37.9 -112.9 -36.5 -117.6 -34.5 -121.85 -28.65 -134.35 -21.45 -134.85 -14.3 -135.35 -11.15 -125.15 -9.6 -120.05 -9.45 -114.55 -8.9 -106.85 -9.4 -101.4 -10.35 -92.85 -13.7 -90.2 L-13.65 -89.85 Q-13.5 -87.85 -14.75 -85.25 -16.35 -82.1 -18.6 -81.95 -20.5 -81.8 -22.25 -82.0 -23.55 -79.8 -26.5 -77.1 -32.25 -71.95 -48.3 -73.0 -64.4 -74.15 -72.55 -83.15 -80.75 -92.15 -81.0 -100.8 -81.2 -109.45 -72.2 -110.1 -69.45 -110.3 -54.15 -102.35 M-21.45 -128.35 Q-25.55 -128.05 -30.2 -118.4 L-34.05 -108.6 Q-33.9 -107.05 -28.15 -101.5 -21.15 -94.75 -15.25 -94.7 -14.25 -111.85 -14.4 -114.3 -14.8 -119.75 -15.15 -120.9 -16.25 -124.35 -20.45 -128.45 L-21.45 -128.35 M-20.3 -88.3 L-19.25 -89.1 -20.15 -89.15 Q-27.35 -90.05 -32.85 -96.75 L-33.45 -97.4 -33.65 -96.15 Q-33.45 -93.4 -28.75 -90.7 -24.1 -88.05 -20.3 -88.3" fill="#000000" fill-rule="evenodd" stroke="none"/>
      <path d="M-21.45 -128.35 L-20.45 -128.45 Q-16.25 -124.35 -15.15 -120.9 -14.8 -119.75 -14.4 -114.3 -14.25 -111.85 -15.25 -94.7 -21.15 -94.75 -28.15 -101.5 -33.9 -107.05 -34.05 -108.6 L-30.2 -118.4 Q-25.55 -128.05 -21.45 -128.35 M-20.15 -89.15 L-20.3 -88.3 Q-24.1 -88.05 -28.75 -90.7 -33.45 -93.4 -33.65 -96.15 L-32.85 -96.75 Q-27.35 -90.05 -20.15 -89.15" fill="#ffffff" fill-rule="evenodd" stroke="none"/>
      <path d="M-74.75 -100.65 Q-73.7 -104.0 -71.3 -104.15 L-58.5 -96.55 Q-44.9 -89.05 -39.15 -89.5 -37.05 -89.65 -36.25 -90.2 L-33.7 -87.6 Q-31.45 -85.45 -28.9 -84.1 L-29.9 -82.35 Q-32.85 -77.4 -44.0 -77.55 -55.15 -77.75 -64.0 -84.95 -72.85 -92.15 -75.3 -97.25 -75.3 -99.0 -74.75 -100.65" fill="#fff1dd" fill-rule="evenodd" stroke="none"/>
    </g>
    <g id="shape3" transform="matrix(1, 0, 0, 1, 57.75, 239.75)">
      <path d="M66.55 -233.8 Q78.65 -239.75 82.0 -239.75 85.75 -239.75 85.75 -235.5 85.75 -234.15 69.45 -226.8 71.45 -220.65 70.6 -201.5 71.85 -173.25 66.85 -173.25 65.35 -173.25 64.8 -173.6 L63.35 -174.5 Q63.1 -183.5 63.1 -201.5 62.8 -208.75 63.1 -215.75 63.35 -221.1 63.95 -224.35 L59.0 -222.25 Q55.45 -222.25 54.5 -223.85 54.25 -224.3 54.25 -225.75 54.25 -227.75 66.55 -233.8 M-57.75 -234.75 Q-57.75 -238.75 -53.0 -238.75 -49.3 -238.75 -34.3 -231.75 -19.25 -224.75 -19.25 -223.0 -19.25 -221.05 -21.05 -220.0 -22.3 -219.25 -23.5 -219.25 L-24.55 -219.5 Q-23.65 -212.45 -24.25 -198.5 -23.0 -170.25 -28.0 -170.25 -29.5 -170.25 -30.05 -170.6 L-31.5 -171.5 -31.75 -198.5 Q-32.05 -205.75 -31.75 -212.75 -31.5 -218.65 -30.8 -222.05 L-41.3 -226.7 Q-57.75 -234.2 -57.75 -234.75" fill="#000000" fill-rule="evenodd" stroke="none"/>
    </g>
    <g id="shape4" transform="matrix(1, 0, 0, 1, 68.0, 329.65)">
      <path d="M25.55 -323.65 L25.55 -312.5 25.55 -323.65 Q38.45 -329.55 51.85 -318.5 66.3 -318.9 71.75 -310.0 85.8 -310.7 91.65 -301.0 L83.1 -283.0 Q17.35 -318.1 -58.3 -285.95 L-65.4 -299.8 Q-67.05 -312.55 -46.2 -312.5 -40.15 -322.7 -24.15 -321.05 -12.15 -328.6 -1.2 -323.05 10.85 -330.95 25.55 -323.65 M69.55 -302.2 L71.75 -310.0 69.55 -302.2 M1.2 -314.0 L-1.2 -323.05 1.2 -314.0 M-21.6 -310.5 L-24.15 -321.05 -21.6 -310.5 M-42.4 -304.5 L-46.2 -312.5 -42.4 -304.5 M49.2 -308.2 L51.85 -318.5 49.2 -308.2" fill="#ffffff" fill-rule="evenodd" stroke="none"/>
      <path d="M25.55 -312.5 L25.55 -323.65 Q10.85 -330.95 -1.2 -323.05 L1.2 -314.0 M71.75 -310.0 L69.55 -302.2 M25.55 -323.65 Q38.45 -329.55 51.85 -318.5 66.3 -318.9 71.75 -310.0 85.8 -310.7 91.65 -301.0 L83.1 -283.0 Q17.35 -318.1 -58.3 -285.95 L-65.4 -299.8 Q-67.05 -312.55 -46.2 -312.5 -40.15 -322.7 -24.15 -321.05 -12.15 -328.6 -1.2 -323.05 M51.85 -318.5 L49.2 -308.2 M-46.2 -312.5 L-42.4 -304.5 M-24.15 -321.05 L-21.6 -310.5" fill="none" stroke="#000000" stroke-linecap="round" stroke-linejoin="round" stroke-width="5.0"/>
    </g>
  </defs>
</svg>
