<?xml version="1.0" encoding="UTF-8" standalone="no"?>
<svg xmlns:xlink="http://www.w3.org/1999/xlink" height="720.75px" width="1716.8px" xmlns="http://www.w3.org/2000/svg">
  <g transform="matrix(1, 0, 0, 1, 307.05, 450.35)">
    <use height="111.05" transform="matrix(1.0, 0.0, 0.0, 1.0, -56.8, -60.25)" width="127.05" xlink:href="#shape0"/>
  </g>
  <defs>
    <g id="shape0" transform="matrix(1, 0, 0, 1, 56.8, 60.25)">
      <path d="M21.1 -27.35 Q22.05 -30.4 23.35 -30.3 28.05 -29.95 30.45 -27.7 32.5 -25.75 32.3 -23.2 33.0 -21.95 32.1 -20.95 30.35 -18.95 22.25 -19.55 20.0 -19.75 20.35 -24.15 20.6 -25.85 21.1 -27.35 M24.1 -27.25 L23.9 -25.0 23.8 -23.3 Q24.15 -21.7 26.65 -21.5 30.1 -21.25 30.3 -23.5 30.2 -28.25 26.45 -28.55 24.55 -28.7 24.1 -27.25 M-17.0 -27.75 Q-15.95 -30.65 -14.75 -30.55 -6.9 -29.95 -4.7 -27.5 -3.55 -26.2 -3.8 -23.0 -4.35 -16.7 -9.8 -17.15 -14.4 -17.5 -16.5 -20.55 -17.9 -22.7 -17.75 -24.7 L-17.0 -27.75 M-10.25 -27.45 Q-11.35 -27.55 -12.35 -26.1 -13.2 -24.95 -13.3 -23.8 L-13.4 -22.2 Q-12.95 -20.65 -10.05 -20.4 -6.55 -20.15 -6.3 -23.6 -6.0 -27.1 -10.25 -27.45" fill="#ffffff" fill-rule="evenodd" stroke="none"/>
      <path d="M24.1 -27.25 Q24.55 -28.7 26.45 -28.55 30.2 -28.25 30.3 -23.5 30.1 -21.25 26.65 -21.5 24.15 -21.7 23.8 -23.3 L23.9 -25.0 24.1 -27.25 M21.1 -27.35 Q20.6 -25.85 20.35 -24.15 20.0 -19.75 22.25 -19.55 30.35 -18.95 32.1 -20.95 33.0 -21.95 32.3 -23.2 32.5 -25.75 30.45 -27.7 28.05 -29.95 23.35 -30.3 22.05 -30.4 21.1 -27.35 M33.3 -28.7 Q35.0 -25.75 34.8 -22.9 L34.65 -21.6 35.7 -21.8 Q40.3 -21.45 44.5 -6.45 44.0 -0.2 39.55 2.8 34.55 6.15 24.2 6.45 L24.2 6.5 16.9 6.25 Q17.25 8.45 16.9 11.65 16.2 17.8 16.4 19.55 16.8 24.6 21.6 27.55 23.95 28.9 24.7 29.8 25.95 31.25 25.8 33.7 25.55 36.75 24.45 37.75 22.05 39.8 14.05 39.15 9.85 38.8 7.6 37.35 L5.7 37.5 Q0.85 37.1 -0.05 34.05 L-0.05 34.0 -0.05 30.8 1.1 26.5 -4.55 26.15 -3.7 27.0 -1.2 29.55 Q-0.1 31.2 -0.3 34.0 -0.55 36.85 -1.05 37.5 -2.4 39.35 -7.25 39.0 -10.0 38.75 -10.8 37.95 L-11.25 37.05 -11.3 37.0 -11.55 37.2 Q-14.7 39.4 -20.75 38.9 -28.95 38.25 -35.05 34.6 L-39.05 31.45 Q-40.85 31.1 -40.75 25.3 L-40.25 19.15 Q-39.4 8.4 -34.0 -1.95 -32.95 -4.15 -26.3 -12.5 -21.65 -18.45 -19.7 -20.25 -20.25 -21.75 -20.3 -23.4 L-20.2 -24.95 Q-20.0 -27.6 -18.55 -30.1 -16.35 -33.95 -12.5 -33.65 -2.25 -32.85 -1.35 -25.4 L0.75 -26.3 Q5.7 -28.2 13.1 -27.6 L18.3 -26.9 19.25 -29.35 Q21.25 -34.0 24.85 -33.7 30.75 -33.25 33.3 -28.7 M16.2 -26.55 Q11.25 -27.55 2.35 -24.4 L-1.4 -22.15 Q-2.35 -13.8 -10.0 -14.4 -15.95 -14.85 -18.5 -18.1 L-27.0 -7.15 Q-31.35 -1.65 -32.95 1.1 -36.85 7.35 -37.75 19.3 L-37.6 28.85 -36.3 30.2 Q-34.8 32.15 -33.3 32.9 -30.55 34.45 -30.6 35.25 L-20.55 36.15 Q-12.7 36.8 -12.3 34.1 -12.2 32.85 -15.7 31.7 -21.1 29.9 -24.8 27.35 -24.9 27.9 -24.8 26.65 -24.75 25.55 -22.0 25.8 -19.55 25.95 -17.45 26.55 -18.0 23.3 -17.6 17.95 -16.95 9.95 -15.55 7.75 -14.5 11.0 -15.1 17.9 -15.7 24.3 -15.5 27.2 -13.3 28.15 -11.7 29.65 -9.2 32.05 -9.35 34.05 -9.4 34.85 -9.9 35.65 L-8.45 36.2 Q-3.9 36.55 -2.9 35.3 L-2.8 33.7 Q-2.6 30.9 -5.95 27.4 -9.6 23.7 -9.7 19.55 -9.85 15.05 -9.15 6.25 -8.75 1.35 -7.45 0.35 -6.3 4.9 -7.05 17.5 -7.3 21.0 -6.2 23.6 -4.2 23.15 0.75 23.55 L2.65 23.75 2.75 23.75 3.2 23.8 5.0 24.1 5.95 11.95 7.25 11.55 Q8.5 11.65 8.25 15.45 L7.35 23.75 Q6.6 35.8 14.4 36.45 21.25 36.95 22.95 35.35 23.8 34.5 23.3 33.45 23.45 31.7 19.45 28.95 14.95 25.95 14.3 24.2 13.65 22.35 14.3 13.85 14.7 8.75 15.5 6.2 L14.95 6.15 Q6.95 5.5 2.05 2.95 -2.05 0.8 -2.5 -1.7 L-0.95 -2.15 Q-0.25 -2.1 3.5 0.35 9.2 2.95 19.4 3.8 41.05 5.5 42.0 -6.7 42.15 -8.85 38.95 -14.0 L34.45 -20.65 Q34.2 -19.55 33.75 -18.9 31.9 -16.1 26.25 -16.55 18.85 -17.15 17.6 -20.7 17.25 -21.75 17.5 -23.1 L17.85 -24.2 Q17.9 -25.05 18.1 -25.9 L16.2 -26.55 M2.45 30.8 Q2.35 31.9 3.1 32.45 L5.15 33.75 Q4.95 33.0 4.9 32.0 L4.55 29.45 4.8 26.5 3.8 26.55 Q3.6 27.85 2.45 30.8 M-10.25 -27.45 Q-6.0 -27.1 -6.3 -23.6 -6.55 -20.15 -10.05 -20.4 -12.95 -20.65 -13.4 -22.2 L-13.3 -23.8 Q-13.2 -24.95 -12.35 -26.1 -11.35 -27.55 -10.25 -27.45 M-17.0 -27.75 L-17.75 -24.7 Q-17.9 -22.7 -16.5 -20.55 -14.4 -17.5 -9.8 -17.15 -4.35 -16.7 -3.8 -23.0 -3.55 -26.2 -4.7 -27.5 -6.9 -29.95 -14.75 -30.55 -15.95 -30.65 -17.0 -27.75" fill="#000000" fill-rule="evenodd" stroke="none"/>
      <path d="M2.45 30.8 Q3.6 27.85 3.8 26.55 L4.8 26.5 4.55 29.45 4.9 32.0 Q4.95 33.0 5.15 33.75 L3.1 32.45 Q2.35 31.9 2.45 30.8 M16.2 -26.55 L18.1 -25.9 Q17.9 -25.05 17.85 -24.2 L17.5 -23.1 Q17.25 -21.75 17.6 -20.7 18.85 -17.15 26.25 -16.55 31.9 -16.1 33.75 -18.9 34.2 -19.55 34.45 -20.65 L38.95 -14.0 Q42.15 -8.85 42.0 -6.7 41.05 5.5 19.4 3.8 9.2 2.95 3.5 0.35 -0.25 -2.1 -0.95 -2.15 L-2.5 -1.7 Q-2.05 0.8 2.05 2.95 6.95 5.5 14.95 6.15 L15.5 6.2 Q14.7 8.75 14.3 13.85 13.65 22.35 14.3 24.2 14.95 25.95 19.45 28.95 23.45 31.7 23.3 33.45 23.8 34.5 22.95 35.35 21.25 36.95 14.4 36.45 6.6 35.8 7.35 23.75 L8.25 15.45 Q8.5 11.65 7.25 11.55 L5.95 11.95 5.0 24.1 3.2 23.8 2.75 23.75 2.65 23.75 0.75 23.55 Q-4.2 23.15 -6.2 23.6 -7.3 21.0 -7.05 17.5 -6.3 4.9 -7.45 0.35 -8.75 1.35 -9.15 6.25 -9.85 15.05 -9.7 19.55 -9.6 23.7 -5.95 27.4 -2.6 30.9 -2.8 33.7 L-2.9 35.3 Q-3.9 36.55 -8.45 36.2 L-9.9 35.65 Q-9.4 34.85 -9.35 34.05 -9.2 32.05 -11.7 29.65 -13.3 28.15 -15.5 27.2 -15.7 24.3 -15.1 17.9 -14.5 11.0 -15.55 7.75 -16.95 9.95 -17.6 17.95 -18.0 23.3 -17.45 26.55 -19.55 25.95 -22.0 25.8 -24.75 25.55 -24.8 26.65 -24.9 27.9 -24.8 27.35 -21.1 29.9 -15.7 31.7 -12.2 32.85 -12.3 34.1 -12.7 36.8 -20.55 36.15 L-30.6 35.25 Q-30.55 34.45 -33.3 32.9 -34.8 32.15 -36.3 30.2 L-37.6 28.85 -37.75 19.3 Q-36.85 7.35 -32.95 1.1 -31.35 -1.65 -27.0 -7.15 L-18.5 -18.1 Q-15.95 -14.85 -10.0 -14.4 -2.35 -13.8 -1.4 -22.15 L2.35 -24.4 Q11.25 -27.55 16.2 -26.55" fill="#00992e" fill-rule="evenodd" stroke="none"/>
      <path d="M49.7 -55.2 L60.05 -56.75 41.55 -32.1 41.7 -31.6 Q4.5 -28.1 -54.0 -25.45 L-35.95 -40.4 Q-27.3 -47.5 -24.75 -49.85 L-22.8 -49.5 Q-17.95 -49.1 29.45 -53.6 L49.7 -55.2" fill="#e6fbff" fill-opacity="0.7529412" fill-rule="evenodd" stroke="none"/>
      <path d="M61.8 -60.05 L63.05 -60.25 Q64.35 -60.15 64.05 -52.2 63.6 -41.7 63.75 -40.4 L65.95 -20.35 Q66.7 -13.75 68.85 0.0 70.6 12.25 70.0 19.85 L69.8 22.35 70.25 23.05 69.6 23.85 69.4 25.05 68.3 25.4 50.9 46.05 50.8 46.9 49.5 47.5 49.4 47.1 Q42.85 49.05 6.7 50.1 -34.6 51.35 -48.0 50.3 L-48.2 50.3 -48.5 50.25 Q-49.1 50.2 -49.65 49.55 L-49.65 49.5 Q-51.8 46.95 -52.7 35.45 L-53.7 12.3 Q-57.05 -22.6 -56.8 -25.0 -56.7 -27.0 -55.55 -27.0 -54.3 -29.2 -40.45 -40.3 -25.6 -52.25 -24.85 -52.15 L-23.75 -52.0 Q-18.7 -53.1 -0.7 -54.35 L26.1 -55.9 61.75 -59.7 61.8 -60.05 M49.7 -55.2 L29.45 -53.6 Q-17.95 -49.1 -22.8 -49.5 L-24.75 -49.85 Q-27.3 -47.5 -35.95 -40.4 L-54.0 -25.45 Q4.5 -28.1 41.7 -31.6 L41.55 -32.1 60.05 -56.75 49.7 -55.2 M60.2 -43.45 L58.95 -43.25 Q56.95 -33.45 47.5 0.3 47.4 1.25 48.6 1.8 50.8 -1.7 56.05 -20.35 61.05 -38.1 61.35 -41.6 61.45 -43.35 60.2 -43.45 M54.75 -34.5 Q54.85 -35.9 53.75 -37.4 52.4 -35.2 49.7 -25.1 47.25 -15.9 47.1 -13.9 L47.25 -12.5 Q47.5 -11.05 48.05 -10.3 L49.35 -10.9 Q54.45 -30.85 54.75 -34.5 M43.65 -31.65 L43.6 -31.7 43.6 -31.65 43.65 -31.65 M42.55 -30.15 Q-22.2 -21.4 -50.4 -23.6 -54.25 -23.95 -55.15 -24.6 L-47.1 48.45 -47.1 48.5 -25.85 47.75 48.45 44.9 48.95 45.0 48.95 44.9 Q46.6 32.65 44.25 3.85 41.95 -24.85 42.3 -28.95 42.35 -29.65 42.55 -30.15 M57.0 -15.6 Q54.05 -7.0 54.0 -5.7 L53.95 -4.55 55.35 -4.2 Q56.1 -4.15 62.3 -23.2 62.4 -24.7 61.15 -24.8 60.15 -24.9 57.0 -15.6" fill="#c4eeff" fill-opacity="0.7529412" fill-rule="evenodd" stroke="none"/>
      <path d="M54.75 -34.5 Q54.45 -30.85 49.35 -10.9 L48.05 -10.3 Q47.5 -11.05 47.25 -12.5 L47.1 -13.9 Q47.25 -15.9 49.7 -25.1 52.4 -35.2 53.75 -37.4 54.85 -35.9 54.75 -34.5 M60.2 -43.45 Q61.45 -43.35 61.35 -41.6 61.05 -38.1 56.05 -20.35 50.8 -1.7 48.6 1.8 47.4 1.25 47.5 0.3 56.95 -33.45 58.95 -43.25 L60.2 -43.45 M42.55 -30.15 Q42.35 -29.65 42.3 -28.95 41.95 -24.85 44.25 3.85 46.6 32.65 48.95 44.9 L48.95 45.0 48.45 44.9 -25.85 47.75 -47.1 48.5 -47.1 48.45 -55.15 -24.6 Q-54.25 -23.95 -50.4 -23.6 -22.2 -21.4 42.55 -30.15 M57.0 -15.6 Q60.15 -24.9 61.15 -24.8 62.4 -24.7 62.3 -23.2 56.1 -4.15 55.35 -4.2 L53.95 -4.55 54.0 -5.7 Q54.05 -7.0 57.0 -15.6 M-21.6 -23.35 L-38.65 -6.65 Q-49.6 4.0 -49.65 4.8 -49.75 6.1 -48.55 6.65 -20.8 -17.65 -20.45 -22.15 -20.4 -22.9 -20.75 -23.05 -21.3 -23.15 -21.6 -23.35 M25.45 6.45 Q24.95 5.4 24.25 5.35 L11.15 16.4 Q-1.85 27.65 -1.9 28.65 -1.95 29.1 -0.8 30.45 L0.0 30.3 Q3.55 25.75 12.1 18.35 L25.45 6.45 M41.25 3.3 Q41.3 2.55 40.9 2.4 L40.05 2.1 13.75 24.85 Q-2.7 38.85 -2.8 39.95 -2.9 40.9 -1.65 41.45 7.5 34.15 23.8 19.85 41.15 4.5 41.25 3.3" fill="#ddf5ff" fill-opacity="0.7529412" fill-rule="evenodd" stroke="none"/>
      <path d="M41.25 3.3 Q41.15 4.5 23.8 19.85 7.5 34.15 -1.65 41.45 -2.9 40.9 -2.8 39.95 -2.7 38.85 13.75 24.85 L40.05 2.1 40.9 2.4 Q41.3 2.55 41.25 3.3 M25.45 6.45 L12.1 18.35 Q3.55 25.75 0.0 30.3 L-0.8 30.45 Q-1.95 29.1 -1.9 28.65 -1.85 27.65 11.15 16.4 L24.25 5.35 Q24.95 5.4 25.45 6.45 M-21.6 -23.35 Q-21.3 -23.15 -20.75 -23.05 -20.4 -22.9 -20.45 -22.15 -20.8 -17.65 -48.55 6.65 -49.75 6.1 -49.65 4.8 -49.6 4.0 -38.65 -6.65 L-21.6 -23.35" fill="#ffffff" fill-opacity="0.8509804" fill-rule="evenodd" stroke="none"/>
    </g>
  </defs>
</svg>
