<?xml version="1.0" encoding="UTF-8" standalone="no"?>
<svg xmlns:xlink="http://www.w3.org/1999/xlink" height="720.75px" width="1716.8px" xmlns="http://www.w3.org/2000/svg">
  <g transform="matrix(1, 0, 0, 1, 307.05, 450.35)">
    <use height="70.3" transform="matrix(1.0, 0.0, 0.0, 1.0, -29.2, -35.15)" width="50.4" xlink:href="#sprite0"/>
  </g>
  <defs>
    <g id="sprite0" transform="matrix(1, 0, 0, 1, 25.2, 35.15)">
      <use height="70.3" transform="matrix(1.0, 0.0, 0.0, 1.0, -25.2, -35.15)" width="50.4" xlink:href="#shape0"/>
    </g>
    <g id="shape0" transform="matrix(1, 0, 0, 1, 25.2, 35.15)">
      <path d="M-15.15 5.75 Q-11.8 -0.7 -7.1 -8.6 -6.6 -12.85 -7.0 -16.6 8.6 -25.9 21.8 -20.1 21.5 -10.25 22.7 -1.95 L24.1 8.45 24.2 11.25 24.0 14.25 Q22.75 14.85 21.6 15.4 20.7 12.75 19.4 12.75 18.45 12.75 15.05 15.35 11.65 17.9 11.1 17.9 7.6 17.9 6.4 16.85 5.2 15.75 3.55 15.75 3.25 15.75 -1.95 18.4 L-6.3 17.2 -5.0 15.1 Q-8.8 16.95 -11.35 17.5 -11.75 15.75 -13.35 15.75 L-16.7 16.1 Q-18.15 13.3 -15.15 5.75 M-2.95 11.4 L-4.0 13.4 -5.0 15.1 -4.0 13.4 -2.95 11.4 M3.3 -16.35 L3.3 -16.6 3.3 -16.35 M11.3 -11.85 Q8.8 -9.85 9.05 -7.85 L16.3 -7.85 Q16.6 -12.3 11.3 -11.85 M17.3 -16.1 L17.3 -16.35 17.3 -16.1 M0.2 18.75 L0.5 18.55 0.5 18.8 0.2 18.75" fill="#aa8b77" fill-rule="evenodd" stroke="none"/>
      <path d="M-7.0 -16.6 Q-7.5 -21.7 -3.45 -25.3 -1.35 -27.15 1.35 -28.15 3.4 -28.9 5.75 -29.15 L8.6 -29.25 8.65 -29.25 Q11.9 -29.15 14.8 -27.85 L15.55 -27.5 Q20.35 -25.0 21.8 -20.1 8.6 -25.9 -7.0 -16.6" fill="#8c5926" fill-rule="evenodd" stroke="none"/>
      <path d="M1.35 -28.15 Q-3.2 -29.2 -3.45 -32.85 3.35 -34.8 8.6 -29.25 L5.75 -29.15 Q3.4 -28.9 1.35 -28.15 M8.65 -29.25 Q12.9 -35.3 19.05 -33.85 19.45 -29.6 14.8 -27.85 11.9 -29.15 8.65 -29.25" fill="#cccccc" fill-rule="evenodd" stroke="none"/>
      <path d="M11.3 -11.85 Q16.6 -12.3 16.3 -7.85 L9.05 -7.85 Q8.8 -9.85 11.3 -11.85" fill="#c08868" fill-rule="evenodd" stroke="none"/>
      <path d="M-15.15 5.75 Q-18.15 13.3 -16.7 16.1 L-13.35 15.75 Q-11.75 15.75 -11.35 17.5 -8.8 16.95 -5.0 15.1 L-6.3 17.2 -1.95 18.4 Q3.25 15.75 3.55 15.75 5.2 15.75 6.4 16.85 7.6 17.9 11.1 17.9 11.65 17.9 15.05 15.35 18.45 12.75 19.4 12.75 20.7 12.75 21.6 15.4 22.75 14.85 24.0 14.25 23.6 17.5 22.4 19.9 19.65 25.3 12.7 27.0 5.25 28.8 -7.0 26.35 L-12.55 25.05 Q-9.5 22.2 -6.3 17.2 -9.5 22.2 -12.55 25.05 -18.55 30.5 -24.2 27.9 -23.2 20.95 -15.15 5.75 M0.2 18.75 L0.5 18.8 0.5 18.55 0.2 18.75" fill="#9b7964" fill-rule="evenodd" stroke="none"/>
      <path d="M-7.0 -16.6 Q-6.6 -12.85 -7.1 -8.6 -11.8 -0.7 -15.15 5.75 -23.2 20.95 -24.2 27.9 -18.55 30.5 -12.55 25.05 L-7.0 26.35 Q5.25 28.8 12.7 27.0 12.65 34.0 19.55 33.9 M-5.0 15.1 L-4.0 13.4 -2.95 11.4 M-7.0 -16.6 Q-7.5 -21.7 -3.45 -25.3 -1.35 -27.15 1.35 -28.15 -3.2 -29.2 -3.45 -32.85 3.35 -34.8 8.6 -29.25 L8.65 -29.25 Q12.9 -35.3 19.05 -33.85 19.45 -29.6 14.8 -27.85 L15.55 -27.5 Q20.35 -25.0 21.8 -20.1 21.5 -10.25 22.7 -1.95 L24.1 8.45 24.2 11.25 24.0 14.25 Q23.6 17.5 22.4 19.9 19.65 25.3 12.7 27.0 M1.35 -28.15 Q3.4 -28.9 5.75 -29.15 L8.6 -29.25 M3.3 -16.6 L3.3 -16.35 M11.3 -11.85 Q8.8 -9.85 9.05 -7.85 L16.3 -7.85 Q16.6 -12.3 11.3 -11.85 M17.3 -16.35 L17.3 -16.1 M8.65 -29.25 Q11.9 -29.15 14.8 -27.85 M21.8 -20.1 Q8.6 -25.9 -7.0 -16.6 M-6.3 17.2 L-5.0 15.1 M-12.55 25.05 Q-9.5 22.2 -6.3 17.2 M-7.0 26.35 Q-8.5 32.6 -0.45 34.15" fill="none" stroke="#000000" stroke-linecap="round" stroke-linejoin="round" stroke-width="2.0"/>
    </g>
  </defs>
</svg>
