<?xml version="1.0" encoding="UTF-8" standalone="no"?>
<svg xmlns:xlink="http://www.w3.org/1999/xlink" height="720.75px" width="1716.8px" xmlns="http://www.w3.org/2000/svg">
  <g transform="matrix(1, 0, 0, 1, 307.05, 450.35)">
    <use height="372.5" transform="matrix(0.85, 0.0, 0.0, 0.85, -125.5186, -158.29)" width="295.25" xlink:href="#sprite0"/>
  </g>
  <defs>
    <g id="sprite0" transform="matrix(1, 0, 0, 1, 420.85, 548.7)">
      <use height="372.5" transform="matrix(1.0, 0.0, 0.0, 1.0, -420.85, -548.7)" width="295.25" xlink:href="#shape0"/>
    </g>
    <g id="shape0" transform="matrix(1, 0, 0, 1, 420.85, 548.7)">
      <path d="M-249.15 -190.15 L-247.5 -191.95 Q-245.15 -193.95 -243.0 -193.95 -240.7 -193.95 -240.7 -192.0 -240.7 -191.5 -241.15 -190.95 L-239.8 -191.25 Q-239.75 -187.85 -240.05 -186.65 -240.6 -184.3 -242.9 -184.3 -247.75 -184.3 -248.8 -188.75 L-248.85 -189.05 -249.15 -190.15" fill="#d20202" fill-rule="evenodd" stroke="none"/>
      <path d="M-239.8 -191.25 L-239.8 -191.3 -239.85 -192.0 Q-239.95 -195.8 -239.5 -197.35 -238.7 -199.8 -236.0 -199.8 -233.45 -199.8 -232.5 -197.3 -231.6 -194.85 -232.2 -189.9 -232.2 -184.0 -232.9 -181.95 -234.95 -176.2 -242.5 -176.2 -251.5 -176.2 -255.5 -183.05 -256.8 -185.3 -257.4 -187.9 L-257.8 -190.25 Q-257.8 -191.5 -256.75 -192.5 -255.55 -193.8 -253.5 -193.8 -250.9 -193.8 -249.85 -192.25 L-249.15 -190.15 -248.85 -189.05 -248.8 -188.75 Q-247.75 -184.3 -242.9 -184.3 -240.6 -184.3 -240.05 -186.65 -239.75 -187.85 -239.8 -191.25" fill="#000000" fill-rule="evenodd" stroke="none"/>
      <path d="M-310.95 -191.15 Q-310.85 -194.7 -310.5 -195.65 -309.75 -197.8 -307.0 -197.8 -304.45 -197.8 -303.5 -195.85 -302.6 -193.95 -303.2 -190.15 -303.2 -186.95 -306.45 -182.2 -310.6 -176.2 -316.5 -176.2 -327.15 -176.2 -330.55 -183.7 -332.25 -187.5 -331.8 -191.25 -331.8 -196.8 -328.0 -196.8 -325.45 -196.8 -324.6 -194.8 L-324.1 -192.55 Q-324.0 -191.75 -323.6 -191.35 L-323.15 -190.65 -322.05 -188.3 Q-320.95 -185.65 -317.15 -184.95 -313.35 -184.3 -311.95 -186.35 -311.5 -187.1 -311.2 -188.2 L-310.95 -189.45 -310.85 -190.95 -310.8 -191.4 -310.9 -191.05 -310.95 -191.05 -310.95 -191.15" fill="#000000" fill-rule="evenodd" stroke="none"/>
      <path d="M-323.15 -190.65 L-321.75 -190.6 -323.35 -192.65 Q-323.35 -194.45 -321.0 -194.45 -319.25 -194.45 -318.25 -193.15 -317.1 -191.7 -316.35 -191.5 L-312.7 -191.75 Q-311.45 -191.85 -310.95 -191.15 L-310.95 -191.05 -310.9 -191.05 -310.85 -190.95 -310.95 -189.45 -311.2 -188.2 Q-311.5 -187.1 -311.95 -186.35 -313.35 -184.3 -317.15 -184.95 -320.95 -185.65 -322.05 -188.3 L-323.15 -190.65" fill="#d20202" fill-rule="evenodd" stroke="none"/>
      <path d="M-356.1 -326.85 L-356.1 -327.0 -356.1 -326.85 M-202.2 -491.2 L-202.3 -491.4 -202.15 -491.25 -202.2 -491.2 M-242.05 -506.55 Q-242.0 -505.35 -241.3 -504.65 -239.35 -502.55 -230.0 -502.5 -229.45 -502.55 -226.7 -499.25 -224.05 -495.95 -221.05 -495.95 L-218.55 -496.25 Q-218.0 -494.9 -216.6 -493.45 -213.15 -489.95 -207.05 -490.5 -208.95 -488.0 -206.5 -485.4 -204.15 -482.85 -198.7 -481.35 -197.5 -481.05 -196.95 -479.35 L-196.25 -476.05 Q-195.0 -471.5 -189.75 -471.5 L-189.05 -471.55 -184.95 -471.45 Q-186.15 -469.6 -186.15 -467.8 -186.2 -465.2 -184.7 -464.9 -180.5 -464.05 -178.6 -463.1 -179.9 -458.15 -176.55 -455.6 -174.85 -454.35 -172.95 -453.6 -172.95 -452.55 -173.7 -447.75 -173.35 -443.5 -167.55 -443.1 -169.5 -440.7 -169.45 -437.35 L-169.15 -434.35 Q-168.85 -433.0 -168.3 -432.3 L-168.35 -431.55 Q-168.35 -429.3 -165.95 -427.75 -161.7 -424.9 -160.6 -423.75 -164.2 -420.25 -164.15 -417.95 -164.2 -416.2 -162.1 -414.0 -160.0 -411.9 -160.0 -411.2 -160.0 -410.35 -161.5 -408.45 -163.0 -406.7 -162.95 -406.1 -163.0 -404.35 -160.75 -402.55 -158.65 -400.85 -158.6 -399.6 -158.6 -398.95 -160.15 -397.5 -161.8 -395.2 -161.8 -390.1 -161.8 -387.8 -162.65 -384.9 -163.55 -382.05 -163.55 -380.75 -163.55 -379.85 -162.65 -379.3 -167.3 -378.95 -169.55 -376.45 -171.3 -374.55 -171.25 -372.2 -171.25 -370.75 -170.05 -366.85 -173.0 -366.15 -177.5 -361.35 -182.0 -356.8 -182.0 -354.8 -182.0 -353.35 -181.6 -352.55 -189.45 -352.15 -190.65 -350.35 -190.65 -348.15 -191.55 -347.1 -191.85 -343.9 -196.6 -341.15 -198.7 -339.9 -198.4 -336.85 L-198.35 -336.6 -199.6 -336.75 Q-201.1 -336.75 -203.95 -334.9 -207.05 -332.85 -207.05 -331.25 L-207.05 -331.2 -208.05 -330.35 Q-208.85 -329.55 -208.85 -327.35 -208.85 -326.45 -208.3 -324.8 -209.95 -324.75 -213.0 -321.25 -216.0 -317.85 -216.0 -316.75 -216.0 -311.35 -216.6 -307.8 -216.6 -305.2 -216.1 -304.3 -214.6 -301.6 -209.4 -302.1 -209.45 -301.05 -210.15 -298.05 -209.95 -295.6 -205.55 -295.6 L-201.75 -296.05 -198.7 -297.3 -198.7 -297.1 -198.35 -295.35 -197.95 -294.65 -197.1 -292.0 Q-195.25 -289.05 -190.95 -289.05 -188.85 -289.05 -188.15 -289.95 L-187.95 -289.65 Q-187.95 -289.15 -188.5 -287.5 -188.9 -286.2 -188.6 -285.4 -187.75 -283.2 -179.2 -282.4 L-179.2 -282.15 Q-180.8 -280.65 -180.8 -279.2 -180.8 -278.2 -180.25 -277.9 -179.7 -277.6 -176.2 -276.2 -178.25 -269.6 -176.05 -267.7 L-176.05 -267.55 Q-175.5 -264.75 -173.8 -263.1 -173.85 -261.05 -176.4 -259.7 -179.0 -258.35 -179.0 -255.8 -179.05 -253.65 -177.0 -250.95 -175.05 -248.25 -175.0 -247.75 -175.05 -247.25 -176.1 -245.6 -177.25 -244.0 -177.2 -241.25 -177.75 -237.6 -179.95 -237.05 -182.0 -236.55 -182.0 -235.2 L-181.6 -229.7 Q-185.4 -229.9 -186.4 -228.4 -186.8 -227.85 -186.75 -226.1 -186.75 -224.65 -185.55 -220.75 -190.95 -220.75 -190.95 -218.05 L-190.5 -216.5 -189.9 -215.85 -213.95 -218.35 Q-211.6 -223.35 -208.1 -234.95 -202.65 -253.4 -202.6 -260.3 -202.65 -272.75 -211.95 -280.1 -218.45 -285.25 -232.45 -289.35 -250.0 -294.5 -252.95 -295.85 -262.3 -300.2 -262.25 -307.5 -262.25 -318.35 -251.5 -330.0 L-244.15 -337.4 Q-242.2 -339.4 -241.35 -340.6 -214.95 -360.25 -204.9 -375.35 -194.3 -391.35 -194.3 -413.55 -193.6 -421.9 -194.2 -429.65 -195.55 -444.45 -202.55 -456.0 -224.35 -491.5 -295.65 -491.45 -336.85 -491.5 -357.0 -460.4 -363.7 -450.2 -367.2 -437.75 -369.6 -429.25 -369.6 -424.7 L-368.4 -414.35 Q-367.05 -408.0 -364.75 -405.7 -364.15 -401.95 -358.85 -396.9 L-345.75 -385.15 Q-326.65 -366.7 -326.65 -342.4 -326.65 -320.05 -334.3 -303.9 -339.85 -292.2 -351.1 -281.15 L-360.1 -272.85 Q-365.25 -268.15 -367.9 -265.0 -375.55 -256.1 -375.55 -246.1 -375.6 -239.6 -371.7 -230.4 -369.75 -225.8 -367.55 -222.15 L-385.7 -223.15 -394.65 -222.65 Q-395.05 -222.55 -396.2 -223.3 L-395.3 -224.5 Q-393.7 -227.1 -393.7 -228.8 -393.7 -231.0 -396.0 -232.0 -400.15 -233.75 -403.2 -236.8 -401.75 -238.75 -401.5 -239.65 L-401.45 -242.4 Q-401.45 -246.4 -405.0 -247.95 -408.6 -249.55 -408.6 -252.05 -408.6 -255.25 -406.5 -258.0 -404.4 -260.85 -404.4 -263.7 -404.0 -266.15 -404.55 -267.65 -401.85 -268.75 -399.95 -271.55 L-397.85 -276.5 -392.5 -280.6 Q-388.5 -283.5 -389.35 -286.35 -381.1 -286.3 -378.85 -288.55 -378.15 -289.3 -378.05 -290.15 L-378.15 -291.0 -378.3 -292.75 -374.9 -292.6 Q-369.8 -292.6 -368.45 -296.55 L-368.05 -301.25 Q-367.65 -303.7 -363.55 -306.1 -359.7 -308.3 -359.7 -309.9 -359.7 -312.55 -361.5 -314.35 -356.95 -316.05 -353.55 -319.0 -350.75 -321.4 -350.75 -322.4 -351.2 -325.7 -352.85 -326.7 L-351.4 -328.9 Q-350.15 -331.4 -350.15 -333.15 -350.15 -337.2 -353.95 -337.8 L-353.75 -339.9 Q-353.75 -341.55 -355.8 -342.5 -359.3 -343.85 -362.05 -345.4 -364.55 -346.8 -364.45 -348.25 -364.4 -350.2 -365.65 -351.65 -369.9 -356.6 -373.65 -354.35 -375.05 -353.5 -375.15 -353.55 -375.5 -353.8 -375.2 -356.65 -374.3 -358.8 -374.55 -360.05 -374.95 -362.4 -380.25 -362.4 L-382.35 -362.35 -383.35 -363.25 Q-385.05 -364.45 -385.05 -365.3 -384.2 -367.5 -383.95 -368.8 -383.55 -371.25 -386.35 -373.35 L-391.4 -376.1 Q-394.3 -377.7 -394.25 -380.25 -392.5 -382.9 -392.5 -385.65 -392.5 -388.05 -395.75 -391.0 -399.05 -394.0 -399.05 -396.05 -398.3 -399.25 -398.4 -402.25 -398.65 -406.7 -401.3 -407.85 -400.95 -410.4 -399.5 -412.15 -397.85 -414.4 -397.85 -416.45 -400.25 -419.85 -400.25 -421.1 -394.9 -428.0 -394.85 -429.35 -399.65 -436.15 -399.65 -436.8 -399.65 -437.9 -396.65 -440.55 -393.7 -443.25 -393.7 -446.05 L-394.5 -452.05 -393.8 -452.7 -393.7 -453.5 -394.25 -456.3 Q-389.85 -457.9 -389.35 -462.0 L-389.5 -468.2 Q-389.2 -473.1 -385.75 -474.35 -382.4 -475.6 -382.35 -479.85 L-381.75 -479.85 Q-376.55 -479.85 -376.2 -482.4 -376.8 -485.65 -376.2 -486.95 -374.95 -489.6 -370.0 -489.85 -364.85 -490.1 -363.4 -492.05 -362.7 -493.1 -362.95 -494.4 -363.3 -495.9 -363.1 -496.3 -362.2 -498.2 -350.45 -499.5 -349.8 -499.6 -347.0 -503.15 -344.25 -506.65 -342.7 -506.6 -342.45 -506.65 -340.65 -505.45 -338.85 -504.3 -337.65 -504.3 -336.1 -504.3 -333.1 -508.4 -330.1 -512.6 -329.4 -512.6 -328.1 -512.6 -325.75 -510.8 -323.5 -509.05 -320.35 -509.05 -318.3 -509.1 -315.4 -512.1 -313.9 -513.7 -313.2 -514.8 L-311.75 -514.15 Q-308.3 -512.65 -304.55 -512.65 -301.25 -512.65 -295.3 -517.35 -291.05 -512.05 -286.35 -512.05 -285.2 -512.05 -280.9 -514.35 -276.65 -516.75 -275.8 -516.75 L-272.2 -513.2 Q-268.05 -509.7 -264.9 -509.65 -263.7 -509.65 -258.9 -513.25 L-256.4 -511.85 -254.4 -510.1 Q-251.0 -507.3 -247.3 -507.3 -245.8 -507.3 -242.2 -508.4 L-242.05 -506.55 M-174.4 -464.95 L-174.5 -465.2 -174.3 -464.95 -174.4 -464.95 M-175.8 -466.65 L-175.0 -465.75 -176.15 -466.3 -175.8 -466.65 M-381.15 -294.05 L-381.15 -294.4 -380.75 -294.05 -381.15 -294.05" fill="#ffeeee" fill-rule="evenodd" stroke="none"/>
      <path d="M-356.1 -327.0 L-356.1 -327.05 Q-356.1 -327.85 -354.6 -330.0 -353.15 -332.2 -353.15 -332.75 -353.15 -333.1 -355.2 -334.35 -357.3 -335.55 -357.3 -336.3 L-357.2 -337.15 -357.25 -337.7 Q-356.7 -338.95 -356.7 -339.7 -356.7 -341.5 -359.25 -342.0 -363.45 -342.85 -365.65 -344.2 -366.8 -344.9 -367.0 -346.45 L-367.55 -349.55 Q-375.9 -350.2 -378.45 -351.95 -379.3 -352.6 -379.5 -353.3 -379.75 -354.2 -379.0 -356.0 -378.2 -357.95 -378.15 -358.75 -381.15 -359.0 -382.6 -359.55 L-383.55 -359.4 Q-386.05 -359.4 -387.4 -362.15 L-388.3 -365.05 Q-387.15 -367.45 -387.1 -368.95 -387.15 -370.25 -392.2 -373.25 -397.25 -376.2 -397.25 -380.15 L-395.45 -385.65 Q-395.45 -387.05 -398.75 -389.25 -402.05 -391.55 -402.05 -396.05 -402.05 -402.8 -403.5 -404.05 L-404.55 -404.7 Q-405.05 -405.2 -405.0 -406.7 L-405.0 -407.05 -405.15 -407.4 Q-405.65 -408.85 -405.6 -409.65 -405.6 -411.0 -404.4 -412.15 L-400.85 -416.0 Q-401.5 -417.7 -402.55 -418.85 -403.25 -419.55 -403.2 -420.8 -403.25 -422.85 -400.85 -426.1 -398.45 -429.4 -398.45 -429.9 -398.45 -431.05 -400.55 -433.15 -402.65 -435.25 -402.6 -436.8 -402.65 -439.55 -399.0 -442.3 -395.85 -444.6 -397.25 -449.45 L-397.25 -454.45 -397.25 -455.3 Q-397.3 -456.6 -396.0 -457.5 -394.15 -458.85 -392.5 -462.2 L-392.5 -469.35 Q-392.5 -472.95 -388.25 -477.95 L-385.25 -481.2 -385.35 -481.5 Q-385.5 -481.95 -384.95 -482.4 -383.85 -483.25 -380.1 -483.15 -380.4 -489.05 -373.8 -491.05 -369.75 -492.35 -368.7 -492.9 -365.95 -494.35 -365.05 -497.1 -363.6 -501.6 -357.6 -501.95 -350.95 -502.4 -349.65 -503.95 L-347.25 -507.3 Q-344.7 -510.3 -343.0 -510.25 -342.35 -510.25 -340.6 -509.05 -338.8 -507.8 -337.65 -507.55 L-335.05 -511.7 Q-332.25 -515.65 -330.15 -515.6 -328.5 -515.65 -325.2 -513.95 -321.95 -512.35 -320.45 -512.35 -319.7 -512.35 -317.4 -514.85 L-315.55 -516.75 -315.55 -519.45 Q-315.1 -519.45 -314.05 -519.8 -313.6 -519.8 -311.25 -517.85 -308.3 -515.95 -304.65 -515.9 -301.4 -515.95 -299.0 -518.45 -296.6 -521.0 -295.3 -521.0 -293.95 -521.0 -291.95 -518.15 -289.95 -515.35 -286.65 -515.35 -284.4 -515.35 -281.05 -517.55 -277.65 -519.8 -276.5 -519.8 -274.1 -519.8 -270.9 -516.35 -267.8 -512.95 -265.2 -512.95 -263.15 -512.95 -261.4 -514.85 -259.7 -516.8 -258.6 -516.8 -256.1 -516.85 -254.7 -514.25 -253.9 -513.95 -252.25 -512.95 -249.7 -511.45 -242.2 -511.45 -239.2 -511.45 -238.45 -509.8 L-237.75 -507.2 Q-235.2 -504.15 -231.7 -504.95 -227.85 -506.0 -227.0 -505.45 -226.3 -504.95 -224.4 -500.95 -222.2 -498.1 -218.85 -499.7 L-218.85 -499.8 -218.55 -499.85 -218.05 -500.1 -217.75 -500.05 -217.45 -500.1 Q-216.65 -500.1 -213.6 -493.8 -205.65 -493.25 -203.2 -492.1 -206.9 -494.95 -210.75 -497.6 -248.6 -524.3 -285.5 -524.25 -325.0 -524.3 -358.85 -505.45 -372.55 -497.85 -382.7 -488.5 -391.95 -479.95 -395.85 -472.4 -399.85 -464.7 -403.8 -444.3 -407.75 -424.45 -407.75 -413.35 -407.75 -390.05 -400.0 -375.9 -393.3 -363.65 -378.7 -351.75 -371.45 -345.85 -362.25 -340.0 L-356.3 -333.7 Q-356.1 -331.55 -356.45 -329.15 L-356.65 -327.15 Q-357.35 -323.15 -360.65 -318.5 -356.4 -320.1 -354.0 -322.4 -356.4 -323.8 -356.1 -326.85 L-356.1 -327.0 M-242.05 -506.55 L-242.2 -508.4 Q-245.8 -507.3 -247.3 -507.3 -251.0 -507.3 -254.4 -510.1 L-256.4 -511.85 -258.9 -513.25 Q-263.7 -509.65 -264.9 -509.65 -268.05 -509.7 -272.2 -513.2 L-275.8 -516.75 Q-276.65 -516.75 -280.9 -514.35 -285.2 -512.05 -286.35 -512.05 -291.05 -512.05 -295.3 -517.35 -301.25 -512.65 -304.55 -512.65 -308.3 -512.65 -311.75 -514.15 L-313.2 -514.8 Q-313.9 -513.7 -315.4 -512.1 -318.3 -509.1 -320.35 -509.05 -323.5 -509.05 -325.75 -510.8 -328.1 -512.6 -329.4 -512.6 -330.1 -512.6 -333.1 -508.4 -336.1 -504.3 -337.65 -504.3 -338.85 -504.3 -340.65 -505.45 -342.45 -506.65 -342.7 -506.6 -344.25 -506.65 -347.0 -503.15 -349.8 -499.6 -350.45 -499.5 -362.2 -498.2 -363.1 -496.3 -363.3 -495.9 -362.95 -494.4 -362.7 -493.1 -363.4 -492.05 -364.85 -490.1 -370.0 -489.85 -374.95 -489.6 -376.2 -486.95 -376.8 -485.65 -376.2 -482.4 -376.55 -479.85 -381.75 -479.85 L-382.35 -479.85 Q-382.4 -475.6 -385.75 -474.35 -389.2 -473.1 -389.5 -468.2 L-389.35 -462.0 Q-389.85 -457.9 -394.25 -456.3 L-393.7 -453.5 -393.8 -452.7 -394.5 -452.05 -393.7 -446.05 Q-393.7 -443.25 -396.65 -440.55 -399.65 -437.9 -399.65 -436.8 -399.65 -436.15 -394.85 -429.35 -394.9 -428.0 -400.25 -421.1 -400.25 -419.85 -397.85 -416.45 -397.85 -414.4 -399.5 -412.15 -400.95 -410.4 -401.3 -407.85 -398.65 -406.7 -398.4 -402.25 -398.3 -399.25 -399.05 -396.05 -399.05 -394.0 -395.75 -391.0 -392.5 -388.05 -392.5 -385.65 -392.5 -382.9 -394.25 -380.25 -394.3 -377.7 -391.4 -376.1 L-386.35 -373.35 Q-383.55 -371.25 -383.95 -368.8 -384.2 -367.5 -385.05 -365.3 -385.05 -364.45 -383.35 -363.25 L-382.35 -362.35 -380.25 -362.4 Q-374.95 -362.4 -374.55 -360.05 -374.3 -358.8 -375.2 -356.65 -375.5 -353.8 -375.15 -353.55 -375.05 -353.5 -373.65 -354.35 -369.9 -356.6 -365.65 -351.65 -364.4 -350.2 -364.45 -348.25 -364.55 -346.8 -362.05 -345.4 -359.3 -343.85 -355.8 -342.5 -353.75 -341.55 -353.75 -339.9 L-353.95 -337.8 Q-350.15 -337.2 -350.15 -333.15 -350.15 -331.4 -351.4 -328.9 L-352.85 -326.7 Q-351.2 -325.7 -350.75 -322.4 -350.75 -321.4 -353.55 -319.0 -356.95 -316.05 -361.5 -314.35 -359.7 -312.55 -359.7 -309.9 -359.7 -308.3 -363.55 -306.1 -367.65 -303.7 -368.05 -301.25 L-368.45 -296.55 Q-369.8 -292.6 -374.9 -292.6 L-378.3 -292.75 -378.15 -291.0 -378.05 -290.15 Q-378.15 -289.3 -378.85 -288.55 -381.1 -286.3 -389.35 -286.35 -388.5 -283.5 -392.5 -280.6 L-397.85 -276.5 -399.95 -271.55 Q-401.85 -268.75 -404.55 -267.65 -404.0 -266.15 -404.4 -263.7 -404.4 -260.85 -406.5 -258.0 -408.6 -255.25 -408.6 -252.05 -408.6 -249.55 -405.0 -247.95 -401.45 -246.4 -401.45 -242.4 L-401.5 -239.65 Q-401.75 -238.75 -403.2 -236.8 -400.15 -233.75 -396.0 -232.0 -393.7 -231.0 -393.7 -228.8 -393.7 -227.1 -395.3 -224.5 L-396.2 -223.3 Q-395.05 -222.55 -394.65 -222.65 L-385.7 -223.15 -367.55 -222.15 Q-369.75 -225.8 -371.7 -230.4 -375.6 -239.6 -375.55 -246.1 -375.55 -256.1 -367.9 -265.0 -365.25 -268.15 -360.1 -272.85 L-351.1 -281.15 Q-339.85 -292.2 -334.3 -303.9 -326.65 -320.05 -326.65 -342.4 -326.65 -366.7 -345.75 -385.15 L-358.85 -396.9 Q-364.15 -401.95 -364.75 -405.7 -367.05 -408.0 -368.4 -414.35 L-369.6 -424.7 Q-369.6 -429.25 -367.2 -437.75 -363.7 -450.2 -357.0 -460.4 -336.85 -491.5 -295.65 -491.45 -224.35 -491.5 -202.55 -456.0 -195.55 -444.45 -194.2 -429.65 -193.6 -421.9 -194.3 -413.55 -194.3 -391.35 -204.9 -375.35 -214.95 -360.25 -241.35 -340.6 -242.2 -339.4 -244.15 -337.4 L-251.5 -330.0 Q-262.25 -318.35 -262.25 -307.5 -262.3 -300.2 -252.95 -295.85 -250.0 -294.5 -232.45 -289.35 -218.45 -285.25 -211.95 -280.1 -202.65 -272.75 -202.6 -260.3 -202.65 -253.4 -208.1 -234.95 -211.6 -223.35 -213.95 -218.35 L-189.9 -215.85 -190.5 -216.5 -190.95 -218.05 Q-190.95 -220.75 -185.55 -220.75 -186.75 -224.65 -186.75 -226.1 -186.8 -227.85 -186.4 -228.4 -185.4 -229.9 -181.6 -229.7 L-182.0 -235.2 Q-182.0 -236.55 -179.95 -237.05 -177.75 -237.6 -177.2 -241.25 -177.25 -244.0 -176.1 -245.6 -175.05 -247.25 -175.0 -247.75 -175.05 -248.25 -177.0 -250.95 -179.05 -253.65 -179.0 -255.8 -179.0 -258.35 -176.4 -259.7 -173.85 -261.05 -173.8 -263.1 -175.5 -264.75 -176.05 -267.55 L-176.05 -267.7 Q-178.25 -269.6 -176.2 -276.2 -179.7 -277.6 -180.25 -277.9 -180.8 -278.2 -180.8 -279.2 -180.8 -280.65 -179.2 -282.15 L-179.2 -282.4 Q-187.75 -283.2 -188.6 -285.4 -188.9 -286.2 -188.5 -287.5 -187.95 -289.15 -187.95 -289.65 L-188.15 -289.95 Q-188.85 -289.05 -190.95 -289.05 -195.25 -289.05 -197.1 -292.0 L-197.95 -294.65 -198.35 -295.35 -198.7 -297.1 -198.7 -297.3 -201.75 -296.05 -205.55 -295.6 Q-209.95 -295.6 -210.15 -298.05 -209.45 -301.05 -209.4 -302.1 -214.6 -301.6 -216.1 -304.3 -216.6 -305.2 -216.6 -307.8 -216.0 -311.35 -216.0 -316.75 -216.0 -317.85 -213.0 -321.25 -209.95 -324.75 -208.3 -324.8 -208.85 -326.45 -208.85 -327.35 -208.85 -329.55 -208.05 -330.35 L-207.05 -331.2 -207.05 -331.25 Q-207.05 -332.85 -203.95 -334.9 -201.1 -336.75 -199.6 -336.75 L-198.35 -336.6 -198.4 -336.85 Q-198.7 -339.9 -196.6 -341.15 -191.85 -343.9 -191.55 -347.1 -190.65 -348.15 -190.65 -350.35 -189.45 -352.15 -181.6 -352.55 -182.0 -353.35 -182.0 -354.8 -182.0 -356.8 -177.5 -361.35 -173.0 -366.15 -170.05 -366.85 -171.25 -370.75 -171.25 -372.2 -171.3 -374.55 -169.55 -376.45 -167.3 -378.95 -162.65 -379.3 -163.55 -379.85 -163.55 -380.75 -163.55 -382.05 -162.65 -384.9 -161.8 -387.8 -161.8 -390.1 -161.8 -395.2 -160.15 -397.5 -158.6 -398.95 -158.6 -399.6 -158.65 -400.85 -160.75 -402.55 -163.0 -404.35 -162.95 -406.1 -163.0 -406.7 -161.5 -408.45 -160.0 -410.35 -160.0 -411.2 -160.0 -411.9 -162.1 -414.0 -164.2 -416.2 -164.15 -417.95 -164.2 -420.25 -160.6 -423.75 -161.7 -424.9 -165.95 -427.75 -168.35 -429.3 -168.35 -431.55 L-168.3 -432.3 Q-168.85 -433.0 -169.15 -434.35 L-169.45 -437.35 Q-169.5 -440.7 -167.55 -443.1 -173.35 -443.5 -173.7 -447.75 -172.95 -452.55 -172.95 -453.6 -174.85 -454.35 -176.55 -455.6 -179.9 -458.15 -178.6 -463.1 -180.5 -464.05 -184.7 -464.9 -186.2 -465.2 -186.15 -467.8 -186.15 -469.6 -184.95 -471.45 L-189.05 -471.55 -189.75 -471.5 Q-195.0 -471.5 -196.25 -476.05 L-196.95 -479.35 Q-197.5 -481.05 -198.7 -481.35 -204.15 -482.85 -206.5 -485.4 -208.95 -488.0 -207.05 -490.5 -213.15 -489.95 -216.6 -493.45 -218.0 -494.9 -218.55 -496.25 L-221.05 -495.95 Q-224.05 -495.95 -226.7 -499.25 -229.45 -502.55 -230.0 -502.5 -239.35 -502.55 -241.3 -504.65 -242.0 -505.35 -242.05 -506.55 M-202.15 -491.25 L-202.3 -491.4 -202.2 -491.2 Q-202.0 -490.1 -204.55 -487.55 -203.7 -486.95 -198.75 -485.75 -194.2 -484.2 -193.9 -481.6 -193.75 -480.35 -193.85 -477.6 -193.5 -476.4 -191.95 -475.45 L-191.25 -475.65 Q-186.0 -475.7 -183.55 -474.85 -192.2 -483.55 -202.15 -491.25 M-174.3 -464.95 L-174.5 -465.2 -174.4 -464.95 -174.25 -464.05 Q-174.25 -463.65 -175.9 -461.25 -175.9 -459.7 -172.1 -457.6 L-168.9 -455.65 Q-171.95 -462.15 -174.3 -464.95 M-176.15 -466.3 L-175.0 -465.75 -175.8 -466.65 -181.45 -472.7 Q-181.6 -471.85 -183.2 -467.6 L-176.15 -466.3 M-167.4 -446.5 Q-164.2 -444.8 -164.15 -442.9 -164.2 -442.0 -165.35 -440.2 -166.55 -438.45 -166.55 -437.4 -166.55 -435.9 -165.35 -433.5 L-165.4 -433.0 -157.2 -424.1 -160.1 -433.0 -163.7 -443.05 -168.4 -454.55 Q-168.6 -453.8 -169.45 -452.4 -170.65 -450.65 -170.65 -449.0 -170.7 -448.3 -167.4 -446.5 M-168.35 -466.75 Q-161.95 -457.45 -153.85 -433.95 -145.4 -409.5 -145.4 -398.35 -145.4 -385.9 -148.65 -376.4 -151.85 -367.35 -158.85 -358.2 -164.7 -350.75 -176.5 -339.3 L-197.15 -319.65 Q-197.75 -318.55 -199.05 -317.75 L-199.2 -317.7 -201.0 -315.95 Q-201.45 -315.25 -201.45 -314.35 -201.45 -313.5 -186.65 -303.7 -170.65 -293.1 -166.55 -286.65 -163.0 -281.15 -159.7 -254.05 -172.05 -208.85 -184.15 -208.85 -203.1 -208.85 -210.8 -210.85 -216.3 -212.35 -217.85 -215.6 -219.35 -216.75 -219.3 -218.95 -219.35 -222.55 -213.95 -238.0 -208.6 -253.45 -208.6 -259.7 -208.6 -270.55 -217.9 -276.4 -223.55 -280.0 -238.4 -283.8 -253.4 -287.7 -258.9 -291.05 -268.25 -296.7 -268.2 -307.2 -268.25 -319.2 -264.65 -325.0 -260.8 -331.3 -246.7 -342.5 -246.2 -344.95 -239.5 -350.8 -226.65 -361.95 -223.5 -365.1 -200.25 -388.25 -200.25 -413.05 L-200.35 -429.15 Q-201.8 -442.85 -208.6 -453.3 -229.1 -484.95 -295.65 -484.9 -333.5 -484.9 -352.25 -455.7 -361.75 -440.9 -363.65 -424.85 -363.65 -421.1 -361.25 -414.8 L-358.95 -408.7 Q-351.85 -402.85 -329.35 -376.4 -324.85 -371.05 -322.4 -358.6 -320.7 -349.55 -320.7 -342.0 -320.7 -320.15 -328.3 -303.35 -334.0 -290.95 -345.15 -279.15 -351.25 -272.7 -361.95 -262.3 -369.6 -253.7 -369.6 -245.7 -369.6 -243.75 -360.15 -217.65 -365.15 -216.0 -366.0 -216.0 L-397.7 -217.9 Q-411.2 -225.9 -415.75 -238.65 -418.1 -245.05 -419.7 -252.65 L-420.85 -259.2 Q-420.85 -268.4 -411.75 -279.45 -405.25 -287.4 -391.65 -298.65 L-371.55 -315.45 Q-362.45 -323.85 -362.45 -328.55 -362.45 -330.05 -363.65 -332.8 L-364.25 -334.4 Q-369.85 -337.45 -381.0 -346.65 -399.2 -361.75 -406.25 -373.7 -411.45 -382.55 -412.95 -393.85 -413.75 -399.8 -413.7 -413.55 -413.75 -426.5 -409.8 -446.2 -405.6 -467.05 -400.6 -476.55 -397.8 -481.9 -387.8 -490.45 -376.5 -500.15 -361.9 -508.55 -323.15 -530.85 -285.5 -530.85 -244.5 -530.85 -204.7 -501.75 -191.35 -492.05 -179.85 -480.1 -171.75 -471.75 -168.35 -466.75 M-157.0 -410.85 Q-157.0 -409.15 -158.5 -407.95 -160.0 -406.75 -160.0 -405.5 -160.0 -405.05 -157.6 -402.65 -155.25 -400.3 -155.2 -399.05 -155.25 -397.9 -156.9 -396.2 -158.4 -394.65 -159.4 -394.3 -159.1 -393.15 -158.95 -391.75 -158.2 -391.15 -158.2 -390.1 L-158.8 -380.25 Q-159.0 -376.65 -163.7 -375.35 -168.35 -374.2 -168.35 -371.9 L-165.95 -365.5 Q-173.1 -361.8 -177.7 -356.35 -179.0 -354.8 -178.7 -353.45 L-178.4 -351.0 Q-178.95 -348.2 -180.45 -348.0 -181.4 -347.85 -183.55 -348.85 -185.75 -349.8 -186.65 -349.6 -188.15 -349.25 -188.55 -346.3 -189.25 -341.65 -192.5 -340.0 -195.6 -338.5 -195.7 -336.7 L-195.7 -335.15 Q-194.75 -334.4 -194.5 -333.7 L-195.45 -332.75 -195.3 -331.3 Q-195.35 -330.75 -195.7 -331.5 L-196.05 -332.15 -196.3 -331.95 Q-197.1 -331.95 -197.9 -332.8 -198.7 -333.7 -199.0 -333.7 -199.75 -333.7 -202.25 -331.9 L-203.15 -331.3 -204.55 -329.5 Q-205.85 -327.85 -205.85 -327.2 -205.85 -326.1 -204.05 -323.2 L-204.2 -322.15 Q-202.6 -323.3 -200.2 -324.3 L-196.6 -327.6 Q-183.65 -339.25 -178.2 -344.9 -151.35 -372.75 -151.35 -398.35 -151.35 -405.65 -157.05 -423.7 -157.45 -422.65 -160.9 -418.05 L-158.9 -414.95 Q-157.0 -412.25 -157.0 -410.85 M-381.15 -294.4 L-381.15 -295.85 Q-378.65 -296.7 -373.6 -295.75 -370.0 -295.95 -371.0 -302.15 -371.6 -305.85 -367.25 -306.8 -362.7 -307.85 -362.65 -309.9 -362.7 -310.75 -363.55 -312.0 -364.45 -313.25 -364.45 -313.95 L-364.45 -314.0 -365.6 -312.8 Q-370.45 -307.95 -385.7 -295.75 -399.85 -284.5 -405.8 -277.9 -414.9 -267.7 -414.9 -258.9 -414.9 -248.6 -408.95 -238.7 -403.05 -228.8 -399.2 -225.6 L-398.95 -225.45 Q-396.8 -228.0 -396.8 -228.75 -396.8 -229.75 -401.5 -231.8 -406.2 -233.85 -406.2 -236.85 -406.2 -238.65 -405.3 -240.0 -404.45 -241.35 -404.4 -242.45 -404.4 -243.2 -408.0 -245.8 -411.6 -248.45 -411.55 -252.25 -411.6 -253.6 -409.5 -258.6 L-407.4 -263.5 Q-407.4 -264.45 -408.65 -265.3 -410.1 -266.3 -410.8 -267.75 L-410.95 -268.15 -410.95 -268.65 -410.6 -268.8 Q-409.8 -269.95 -408.9 -269.95 L-407.15 -269.75 -406.9 -269.85 Q-402.65 -271.45 -401.45 -274.35 L-400.65 -277.8 Q-399.9 -280.45 -398.15 -280.7 -393.8 -281.55 -392.8 -284.1 -392.4 -286.9 -391.9 -287.8 -390.45 -290.1 -388.35 -290.2 L-384.9 -289.5 Q-382.95 -288.95 -382.25 -289.5 -381.2 -290.35 -381.15 -294.05 L-380.75 -294.05 -381.15 -294.4 M-211.25 -312.6 Q-212.45 -311.85 -213.6 -309.9 L-213.6 -305.45 Q-206.35 -305.4 -205.8 -304.3 -205.5 -303.65 -206.45 -302.15 L-206.45 -298.8 -198.7 -300.35 Q-195.75 -300.35 -195.2 -296.4 L-194.75 -295.1 Q-193.95 -292.3 -191.35 -292.3 -189.65 -292.3 -186.45 -294.4 -184.75 -294.4 -184.7 -291.0 -184.65 -289.15 -184.95 -286.3 -173.65 -289.0 -173.65 -272.65 -173.65 -271.8 -171.85 -268.7 L-172.85 -267.7 -170.65 -263.25 Q-170.65 -261.2 -173.35 -258.15 L-176.05 -255.05 Q-176.05 -254.0 -173.35 -251.25 -170.65 -248.55 -170.65 -247.6 -170.7 -246.65 -172.35 -244.9 -174.1 -243.15 -174.25 -241.85 -174.3 -240.9 -173.4 -238.65 -173.6 -236.7 -178.9 -236.25 L-179.0 -234.45 Q-179.0 -233.0 -177.8 -230.9 -177.85 -229.6 -179.2 -227.95 -181.0 -225.85 -183.8 -226.1 L-182.6 -221.25 Q-182.6 -219.75 -183.8 -216.75 -183.8 -216.05 -184.4 -215.6 -178.6 -217.45 -171.9 -234.45 L-165.65 -253.85 Q-165.7 -271.15 -172.15 -282.25 -177.05 -290.55 -186.5 -296.35 -196.95 -301.75 -200.9 -304.25 -207.4 -308.3 -207.4 -313.8 -207.4 -318.05 -206.85 -319.15 -206.4 -320.25 -205.3 -321.25 L-205.55 -321.25 Q-206.5 -321.25 -207.2 -322.3 -209.35 -319.15 -213.0 -317.05 -210.65 -315.75 -210.6 -314.25 -210.6 -313.0 -211.25 -312.6" fill="#000000" fill-rule="evenodd" stroke="none"/>
      <path d="M-356.1 -326.85 Q-356.4 -323.8 -354.0 -322.4 -356.4 -320.1 -360.65 -318.5 -357.35 -323.15 -356.65 -327.15 L-356.45 -329.15 Q-356.1 -331.55 -356.3 -333.7 L-362.25 -340.0 Q-371.45 -345.85 -378.7 -351.75 -393.3 -363.65 -400.0 -375.9 -407.75 -390.05 -407.75 -413.35 -407.75 -424.45 -403.8 -444.3 -399.85 -464.7 -395.85 -472.4 -391.95 -479.95 -382.7 -488.5 -372.55 -497.85 -358.85 -505.45 -325.0 -524.3 -285.5 -524.25 -248.6 -524.3 -210.75 -497.6 -206.9 -494.95 -203.2 -492.1 -205.65 -493.25 -213.6 -493.8 -216.65 -500.1 -217.45 -500.1 L-217.75 -500.05 -218.05 -500.1 -218.55 -499.85 -218.85 -499.8 -218.85 -499.7 Q-222.2 -498.1 -224.4 -500.95 -226.3 -504.95 -227.0 -505.45 -227.85 -506.0 -231.7 -504.95 -235.2 -504.15 -237.75 -507.2 L-238.45 -509.8 Q-239.2 -511.45 -242.2 -511.45 -249.7 -511.45 -252.25 -512.95 -253.9 -513.95 -254.7 -514.25 -256.1 -516.85 -258.6 -516.8 -259.7 -516.8 -261.4 -514.85 -263.15 -512.95 -265.2 -512.95 -267.8 -512.95 -270.9 -516.35 -274.1 -519.8 -276.5 -519.8 -277.65 -519.8 -281.05 -517.55 -284.4 -515.35 -286.65 -515.35 -289.95 -515.35 -291.95 -518.15 -293.95 -521.0 -295.3 -521.0 -296.6 -521.0 -299.0 -518.45 -301.4 -515.95 -304.65 -515.9 -308.3 -515.95 -311.25 -517.85 -313.6 -519.8 -314.05 -519.8 -315.1 -519.45 -315.55 -519.45 L-315.55 -516.75 -317.4 -514.85 Q-319.7 -512.35 -320.45 -512.35 -321.95 -512.35 -325.2 -513.95 -328.5 -515.65 -330.15 -515.6 -332.25 -515.65 -335.05 -511.7 L-337.65 -507.55 Q-338.8 -507.8 -340.6 -509.05 -342.35 -510.25 -343.0 -510.25 -344.7 -510.3 -347.25 -507.3 L-349.65 -503.95 Q-350.95 -502.4 -357.6 -501.95 -363.6 -501.6 -365.05 -497.1 -365.95 -494.35 -368.7 -492.9 -369.75 -492.35 -373.8 -491.05 -380.4 -489.05 -380.1 -483.15 -383.85 -483.25 -384.95 -482.4 -385.5 -481.95 -385.35 -481.5 L-385.25 -481.2 -388.25 -477.95 Q-392.5 -472.95 -392.5 -469.35 L-392.5 -462.2 Q-394.15 -458.85 -396.0 -457.5 -397.3 -456.6 -397.25 -455.3 L-397.25 -454.45 -397.25 -449.45 Q-395.85 -444.6 -399.0 -442.3 -402.65 -439.55 -402.6 -436.8 -402.65 -435.25 -400.55 -433.15 -398.45 -431.05 -398.45 -429.9 -398.45 -429.4 -400.85 -426.1 -403.25 -422.85 -403.2 -420.8 -403.25 -419.55 -402.55 -418.85 -401.5 -417.7 -400.85 -416.0 L-404.4 -412.15 Q-405.6 -411.0 -405.6 -409.65 -405.65 -408.85 -405.15 -407.4 L-405.0 -407.05 -405.0 -406.7 Q-405.05 -405.2 -404.55 -404.7 L-403.5 -404.05 Q-402.05 -402.8 -402.05 -396.05 -402.05 -391.55 -398.75 -389.25 -395.45 -387.05 -395.45 -385.65 L-397.25 -380.15 Q-397.25 -376.2 -392.2 -373.25 -387.15 -370.25 -387.1 -368.95 -387.15 -367.45 -388.3 -365.05 L-387.4 -362.15 Q-386.05 -359.4 -383.55 -359.4 L-382.6 -359.55 Q-381.15 -359.0 -378.15 -358.75 -378.2 -357.95 -379.0 -356.0 -379.75 -354.2 -379.5 -353.3 -379.3 -352.6 -378.45 -351.95 -375.9 -350.2 -367.55 -349.55 L-367.0 -346.45 Q-366.8 -344.9 -365.65 -344.2 -363.45 -342.85 -359.25 -342.0 -356.7 -341.5 -356.7 -339.7 -356.7 -338.95 -357.25 -337.7 L-357.2 -337.15 -357.3 -336.3 Q-357.3 -335.55 -355.2 -334.35 -353.15 -333.1 -353.15 -332.75 -353.15 -332.2 -354.6 -330.0 -356.1 -327.85 -356.1 -327.05 L-356.1 -327.0 -356.1 -326.85 M-202.2 -491.2 L-202.15 -491.25 Q-192.2 -483.55 -183.55 -474.85 -186.0 -475.7 -191.25 -475.65 L-191.95 -475.45 Q-193.5 -476.4 -193.85 -477.6 -193.75 -480.35 -193.9 -481.6 -194.2 -484.2 -198.75 -485.75 -203.7 -486.95 -204.55 -487.55 -202.0 -490.1 -202.2 -491.2 M-174.3 -464.95 Q-171.95 -462.15 -168.9 -455.65 L-172.1 -457.6 Q-175.9 -459.7 -175.9 -461.25 -174.25 -463.65 -174.25 -464.05 L-174.4 -464.95 -174.3 -464.95 M-175.8 -466.65 L-176.15 -466.3 -183.2 -467.6 Q-181.6 -471.85 -181.45 -472.7 L-175.8 -466.65 M-167.4 -446.5 Q-170.7 -448.3 -170.65 -449.0 -170.65 -450.65 -169.45 -452.4 -168.6 -453.8 -168.4 -454.55 L-163.7 -443.05 -160.1 -433.0 -157.2 -424.1 -165.4 -433.0 -165.35 -433.5 Q-166.55 -435.9 -166.55 -437.4 -166.55 -438.45 -165.35 -440.2 -164.2 -442.0 -164.15 -442.9 -164.2 -444.8 -167.4 -446.5 M-381.15 -294.05 Q-381.2 -290.35 -382.25 -289.5 -382.95 -288.95 -384.9 -289.5 L-388.35 -290.2 Q-390.45 -290.1 -391.9 -287.8 -392.4 -286.9 -392.8 -284.1 -393.8 -281.55 -398.15 -280.7 -399.9 -280.45 -400.65 -277.8 L-401.45 -274.35 Q-402.65 -271.45 -406.9 -269.85 L-407.15 -269.75 -408.9 -269.95 Q-409.8 -269.95 -410.6 -268.8 L-410.95 -268.65 -410.95 -268.15 -410.8 -267.75 Q-410.1 -266.3 -408.65 -265.3 -407.4 -264.45 -407.4 -263.5 L-409.5 -258.6 Q-411.6 -253.6 -411.55 -252.25 -411.6 -248.45 -408.0 -245.8 -404.4 -243.2 -404.4 -242.45 -404.45 -241.35 -405.3 -240.0 -406.2 -238.65 -406.2 -236.85 -406.2 -233.85 -401.5 -231.8 -396.8 -229.75 -396.8 -228.75 -396.8 -228.0 -398.95 -225.45 L-399.2 -225.6 Q-403.05 -228.8 -408.95 -238.7 -414.9 -248.6 -414.9 -258.9 -414.9 -267.7 -405.8 -277.9 -399.85 -284.5 -385.7 -295.75 -370.45 -307.95 -365.6 -312.8 L-364.45 -314.0 -364.45 -313.95 Q-364.45 -313.25 -363.55 -312.0 -362.7 -310.75 -362.65 -309.9 -362.7 -307.85 -367.25 -306.8 -371.6 -305.85 -371.0 -302.15 -370.0 -295.95 -373.6 -295.75 -378.65 -296.7 -381.15 -295.85 L-381.15 -294.4 -381.15 -294.05 M-157.0 -410.85 Q-157.0 -412.25 -158.9 -414.95 L-160.9 -418.05 Q-157.45 -422.65 -157.05 -423.7 -151.35 -405.65 -151.35 -398.35 -151.35 -372.75 -178.2 -344.9 -183.65 -339.25 -196.6 -327.6 L-200.2 -324.3 Q-202.6 -323.3 -204.2 -322.15 L-204.05 -323.2 Q-205.85 -326.1 -205.85 -327.2 -205.85 -327.85 -204.55 -329.5 L-203.15 -331.3 -202.25 -331.9 Q-199.75 -333.7 -199.0 -333.7 -198.7 -333.7 -197.9 -332.8 -197.1 -331.95 -196.3 -331.95 L-196.05 -332.15 -195.7 -331.5 Q-195.35 -330.75 -195.3 -331.3 L-195.45 -332.75 -194.5 -333.7 Q-194.75 -334.4 -195.7 -335.15 L-195.7 -336.7 Q-195.6 -338.5 -192.5 -340.0 -189.25 -341.65 -188.55 -346.3 -188.15 -349.25 -186.65 -349.6 -185.75 -349.8 -183.55 -348.85 -181.4 -347.85 -180.45 -348.0 -178.95 -348.2 -178.4 -351.0 L-178.7 -353.45 Q-179.0 -354.8 -177.7 -356.35 -173.1 -361.8 -165.95 -365.5 L-168.35 -371.9 Q-168.35 -374.2 -163.7 -375.35 -159.0 -376.65 -158.8 -380.25 L-158.2 -390.1 Q-158.2 -391.15 -158.95 -391.75 -159.1 -393.15 -159.4 -394.3 -158.4 -394.65 -156.9 -396.2 -155.25 -397.9 -155.2 -399.05 -155.25 -400.3 -157.6 -402.65 -160.0 -405.05 -160.0 -405.5 -160.0 -406.75 -158.5 -407.95 -157.0 -409.15 -157.0 -410.85 M-211.25 -312.6 Q-210.6 -313.0 -210.6 -314.25 -210.65 -315.75 -213.0 -317.05 -209.35 -319.15 -207.2 -322.3 -206.5 -321.25 -205.55 -321.25 L-205.3 -321.25 Q-206.4 -320.25 -206.85 -319.15 -207.4 -318.05 -207.4 -313.8 -207.4 -308.3 -200.9 -304.25 -196.95 -301.75 -186.5 -296.35 -177.05 -290.55 -172.15 -282.25 -165.7 -271.15 -165.65 -253.85 L-171.9 -234.45 Q-178.6 -217.45 -184.4 -215.6 -183.8 -216.05 -183.8 -216.75 -182.6 -219.75 -182.6 -221.25 L-183.8 -226.1 Q-181.0 -225.85 -179.2 -227.95 -177.85 -229.6 -177.8 -230.9 -179.0 -233.0 -179.0 -234.45 L-178.9 -236.25 Q-173.6 -236.7 -173.4 -238.65 -174.3 -240.9 -174.25 -241.85 -174.1 -243.15 -172.35 -244.9 -170.7 -246.65 -170.65 -247.6 -170.65 -248.55 -173.35 -251.25 -176.05 -254.0 -176.05 -255.05 L-173.35 -258.15 Q-170.65 -261.2 -170.65 -263.25 L-172.85 -267.7 -171.85 -268.7 Q-173.65 -271.8 -173.65 -272.65 -173.65 -289.0 -184.95 -286.3 -184.65 -289.15 -184.7 -291.0 -184.75 -294.4 -186.45 -294.4 -189.65 -292.3 -191.35 -292.3 -193.95 -292.3 -194.75 -295.1 L-195.2 -296.4 Q-195.75 -300.35 -198.7 -300.35 L-206.45 -298.8 -206.45 -302.15 Q-205.5 -303.65 -205.8 -304.3 -206.35 -305.4 -213.6 -305.45 L-213.6 -309.9 Q-212.45 -311.85 -211.25 -312.6" fill="#ff5e5e" fill-rule="evenodd" stroke="none"/>
      <path d="M-177.4 -342.7 L-176.75 -359.4 Q-176.85 -370.05 -179.1 -366.3 -186.05 -362.6 -194.6 -350.3 -203.2 -338.05 -209.45 -334.5 -209.65 -337.75 -210.3 -339.55 -209.45 -340.65 -209.45 -340.95 -209.35 -344.6 -213.5 -344.6 -216.5 -344.6 -220.4 -340.15 -224.25 -335.1 -225.5 -334.05 -225.5 -335.45 -226.0 -338.2 L-225.65 -340.85 Q-220.55 -343.0 -215.65 -345.5 -208.75 -348.95 -203.0 -352.6 -193.0 -359.7 -189.65 -362.9 -179.4 -372.7 -179.4 -381.15 -179.4 -382.05 -180.7 -385.55 L-184.6 -395.3 Q-190.05 -408.15 -190.4 -410.0 -190.85 -412.5 -190.75 -418.2 L-190.6 -425.4 Q-189.15 -428.05 -188.65 -432.85 -188.1 -438.3 -188.7 -445.55 -187.4 -462.2 -192.25 -462.2 -193.7 -462.2 -194.65 -461.5 L-195.6 -460.85 -196.05 -436.55 Q-197.55 -437.95 -200.75 -442.55 L-206.75 -451.15 Q-212.5 -459.1 -216.35 -461.3 -217.15 -463.15 -219.55 -463.15 L-220.75 -462.0 Q-222.6 -461.55 -223.0 -459.85 -240.1 -443.85 -248.05 -437.5 L-248.25 -456.6 -248.05 -457.3 Q-248.05 -458.5 -248.35 -459.3 L-248.4 -460.15 -249.6 -460.95 -251.15 -461.25 -251.5 -461.25 Q-253.0 -461.25 -253.9 -459.45 L-270.4 -447.05 Q-289.7 -432.55 -292.1 -431.4 -292.1 -435.45 -290.5 -447.05 -289.9 -456.6 -294.7 -456.6 L-295.0 -456.55 -295.65 -456.6 Q-314.0 -446.35 -321.4 -440.65 -322.3 -441.5 -324.75 -442.55 -327.2 -443.6 -331.4 -421.35 -338.15 -367.05 -339.1 -388.8 L-340.3 -405.6 Q-342.7 -419.45 -344.65 -417.75 -346.6 -416.1 -347.2 -410.15 L-347.2 -402.8 -343.0 -372.15 Q-340.35 -354.3 -335.65 -349.15 -328.55 -342.8 -324.5 -339.7 L-324.6 -325.95 Q-331.15 -330.8 -342.15 -351.4 -347.65 -361.7 -352.05 -371.0 -356.15 -371.0 -356.25 -357.95 -355.6 -342.85 -355.85 -338.7 -359.7 -343.3 -364.65 -354.35 -369.6 -365.4 -373.6 -379.35 -375.65 -387.7 -375.3 -408.9 -374.95 -430.2 -372.75 -444.7 -370.55 -459.2 -354.0 -480.75 -337.45 -502.3 -329.15 -506.85 -320.85 -511.5 -316.4 -513.35 L-306.45 -517.05 Q-300.95 -518.95 -288.35 -520.9 L-280.0 -522.05 -279.65 -522.4 Q-263.95 -521.3 -254.0 -519.0 -244.1 -516.75 -235.45 -513.45 -226.85 -510.15 -219.95 -504.85 -213.05 -499.6 -201.25 -486.45 -189.5 -473.35 -184.55 -462.45 -179.6 -451.6 -178.25 -435.5 -176.9 -419.45 -170.95 -393.7 -168.6 -374.75 -170.95 -359.75 -173.25 -344.95 -177.3 -342.55 L-177.4 -342.7" fill="#8c75ea" fill-rule="evenodd" stroke="none"/>
      <path d="M-177.3 -342.55 Q-173.25 -344.95 -170.95 -359.75 -168.6 -374.75 -170.95 -393.7 -176.9 -419.45 -178.25 -435.5 -179.6 -451.6 -184.55 -462.45 -189.5 -473.35 -201.25 -486.45 -213.05 -499.6 -219.95 -504.85 -226.85 -510.15 -235.45 -513.45 -244.1 -516.75 -254.0 -519.0 -263.95 -521.3 -279.65 -522.4 L-280.0 -522.05 -288.35 -520.9 Q-300.95 -518.95 -306.45 -517.05 L-316.4 -513.35 Q-320.85 -511.5 -329.15 -506.85 -337.45 -502.3 -354.0 -480.75 -370.55 -459.2 -372.75 -444.7 -374.95 -430.2 -375.3 -408.9 -375.65 -387.7 -373.6 -379.35 -369.6 -365.4 -364.65 -354.35 -359.7 -343.3 -355.85 -338.7 -355.6 -342.85 -356.25 -357.95 -356.15 -371.0 -352.05 -371.0 -347.65 -361.7 -342.15 -351.4 -331.15 -330.8 -324.6 -325.95 L-324.5 -339.7 Q-328.55 -342.8 -335.65 -349.15 -340.35 -354.3 -343.0 -372.15 L-347.2 -402.8 -347.2 -410.15 Q-346.6 -416.1 -344.65 -417.75 -342.7 -419.45 -340.3 -405.6 L-339.1 -388.8 Q-338.15 -367.05 -331.4 -421.35 -327.2 -443.6 -324.75 -442.55 -322.3 -441.5 -321.4 -440.65 -314.0 -446.35 -295.65 -456.6 L-295.0 -456.55 -294.7 -456.6 Q-289.9 -456.6 -290.5 -447.05 -292.1 -435.45 -292.1 -431.4 -289.7 -432.55 -270.4 -447.05 L-253.9 -459.45 Q-253.0 -461.25 -251.5 -461.25 L-251.15 -461.25 -249.6 -460.95 -248.4 -460.15 -248.35 -459.3 Q-248.05 -458.5 -248.05 -457.3 L-248.25 -456.6 -248.05 -437.5 Q-240.1 -443.85 -223.0 -459.85 -222.6 -461.55 -220.75 -462.0 L-219.55 -463.15 Q-217.15 -463.15 -216.35 -461.3 -212.5 -459.1 -206.75 -451.15 L-200.75 -442.55 Q-197.55 -437.95 -196.05 -436.55 L-195.6 -460.85 -194.65 -461.5 Q-193.7 -462.2 -192.25 -462.2 -187.4 -462.2 -188.7 -445.55 -188.1 -438.3 -188.65 -432.85 -189.15 -428.05 -190.6 -425.4 L-190.75 -418.2 Q-190.85 -412.5 -190.4 -410.0 -190.05 -408.15 -184.6 -395.3 L-180.7 -385.55 Q-179.4 -382.05 -179.4 -381.15 -179.4 -372.7 -189.65 -362.9 -193.0 -359.7 -203.0 -352.6 -208.75 -348.95 -215.65 -345.5 -220.55 -343.0 -225.65 -340.85 L-226.0 -338.2 Q-225.5 -335.45 -225.5 -334.05 -224.25 -335.1 -220.4 -340.15 -216.5 -344.6 -213.5 -344.6 -209.35 -344.6 -209.45 -340.95 -209.45 -340.65 -210.3 -339.55 -209.65 -337.75 -209.45 -334.5 -203.2 -338.05 -194.6 -350.3 -186.05 -362.6 -179.1 -366.3 -176.85 -370.05 -176.75 -359.4 L-177.4 -342.7 -177.4 -342.5 -177.3 -342.55 M-288.5 -528.1 Q-285.7 -529.05 -253.2 -524.5 -220.75 -520.0 -202.05 -497.75 -183.35 -475.5 -179.1 -462.7 -174.9 -449.95 -173.55 -444.8 -172.25 -439.65 -168.25 -412.05 -164.3 -384.45 -163.7 -377.6 -165.15 -355.1 -166.15 -351.6 -173.25 -327.15 -180.5 -327.15 -185.15 -327.15 -185.25 -337.1 -185.35 -342.45 -184.75 -351.6 -191.95 -340.9 -196.05 -336.1 -205.3 -325.25 -211.6 -325.25 -215.6 -325.25 -216.45 -328.55 -216.85 -330.25 -216.5 -332.15 L-216.5 -332.65 -217.65 -331.45 Q-226.15 -322.55 -228.0 -322.55 L-229.9 -322.8 Q-230.45 -323.3 -231.3 -323.7 -231.55 -328.5 -233.35 -337.8 -241.7 -334.7 -250.5 -332.4 -270.05 -327.25 -287.15 -327.25 -303.3 -327.25 -318.0 -335.5 -316.9 -329.1 -315.6 -318.6 -315.6 -314.0 -320.1 -314.0 -326.05 -314.0 -336.55 -326.7 -345.1 -336.95 -348.35 -343.9 L-348.6 -343.9 Q-347.3 -336.5 -347.05 -332.25 -346.55 -324.45 -351.55 -324.45 -357.1 -324.45 -366.15 -338.0 -373.2 -348.5 -376.0 -357.4 -378.7 -360.7 -382.15 -378.55 -384.65 -395.05 -382.25 -425.35 -379.5 -460.05 -368.15 -477.05 -358.5 -491.5 -342.05 -504.1 -328.05 -514.85 -313.3 -520.95 -298.6 -527.05 -294.15 -527.5 L-289.1 -528.0 -288.5 -528.1 M-299.1 -434.15 Q-299.1 -439.55 -298.3 -446.0 -301.85 -443.35 -307.4 -439.85 -318.3 -432.9 -321.6 -431.2 -327.25 -404.7 -328.5 -397.8 -329.8 -390.9 -330.25 -382.25 L-330.8 -369.1 Q-330.9 -363.95 -331.35 -360.35 -325.85 -352.4 -324.15 -350.35 -311.2 -335.0 -276.4 -335.0 -265.65 -335.0 -250.1 -339.55 -235.05 -343.95 -220.7 -350.95 -205.75 -358.25 -196.75 -365.9 -186.9 -374.3 -186.9 -381.0 -186.9 -382.2 -188.75 -386.45 L-192.9 -395.95 Q-198.9 -411.05 -198.9 -424.15 L-198.9 -426.6 -219.65 -453.9 Q-223.4 -449.7 -230.85 -442.25 -246.2 -426.9 -250.55 -426.9 -254.25 -426.9 -255.05 -436.05 -255.4 -440.65 -255.05 -445.45 L-255.05 -449.45 Q-260.0 -445.0 -268.45 -438.2 -289.4 -421.35 -294.7 -421.35 -298.35 -421.35 -299.05 -427.6 -299.45 -430.75 -299.1 -434.15 M-160.3 -382.5 L-160.4 -382.0 Q-160.5 -383.3 -160.3 -382.5" fill="#000000" fill-rule="evenodd" stroke="none"/>
      <path d="M-299.1 -434.15 Q-299.45 -430.75 -299.05 -427.6 -298.35 -421.35 -294.7 -421.35 -289.4 -421.35 -268.45 -438.2 -260.0 -445.0 -255.05 -449.45 L-255.05 -445.45 Q-255.4 -440.65 -255.05 -436.05 -254.25 -426.9 -250.55 -426.9 -246.2 -426.9 -230.85 -442.25 -223.4 -449.7 -219.65 -453.9 L-198.9 -426.6 -198.9 -424.15 Q-198.9 -411.05 -192.9 -395.95 L-188.75 -386.45 Q-186.9 -382.2 -186.9 -381.0 -186.9 -374.3 -196.75 -365.9 -205.75 -358.25 -220.7 -350.95 -235.05 -343.95 -250.1 -339.55 -265.65 -335.0 -276.4 -335.0 -311.2 -335.0 -324.15 -350.35 -325.85 -352.4 -331.35 -360.35 -330.9 -363.95 -330.8 -369.1 L-330.25 -382.25 Q-329.8 -390.9 -328.5 -397.8 -327.25 -404.7 -321.6 -431.2 -318.3 -432.9 -307.4 -439.85 -301.85 -443.35 -298.3 -446.0 -299.1 -439.55 -299.1 -434.15" fill="#fff1dd" fill-rule="evenodd" stroke="none"/>
      <path d="M-215.3 -525.55 Q-200.65 -533.2 -191.55 -533.2 -172.5 -533.25 -156.25 -515.95 -140.05 -498.65 -134.4 -490.45 -137.8 -499.2 -142.9 -505.4 L-148.7 -513.3 Q-153.7 -520.05 -162.45 -529.75 -171.25 -539.5 -189.55 -539.4 -203.9 -539.3 -220.05 -529.25 L-226.35 -524.95 -229.15 -522.9 Q-250.45 -506.55 -259.6 -497.35 L-255.5 -499.9 -254.35 -499.7 Q-235.95 -513.8 -221.85 -521.95 L-215.3 -525.55 M-203.3 -497.3 L-199.75 -498.95 Q-203.95 -505.05 -207.35 -508.85 -212.8 -515.0 -219.15 -519.95 L-229.5 -513.1 -250.75 -497.4 -248.0 -498.05 Q-245.0 -498.05 -244.25 -492.3 L-226.3 -493.65 -221.15 -494.15 -212.35 -495.2 Q-206.0 -496.1 -203.3 -497.3 M-229.3 -526.7 Q-252.95 -540.2 -287.0 -540.2 -310.25 -540.2 -327.8 -530.65 -318.0 -525.9 -306.4 -518.9 -292.0 -510.15 -282.05 -502.05 -273.5 -495.05 -272.15 -491.65 L-270.9 -491.65 -265.0 -497.9 Q-255.2 -507.55 -242.3 -517.4 L-229.3 -526.7 M-222.45 -531.15 Q-201.75 -543.8 -188.4 -543.8 -171.65 -543.8 -154.8 -526.9 -149.5 -521.6 -144.35 -514.7 L-139.4 -507.8 Q-136.55 -504.45 -134.25 -500.45 -132.3 -497.05 -130.75 -493.15 L-129.25 -488.95 Q-128.1 -485.15 -125.6 -469.65 L-125.8 -469.5 -130.2 -476.05 Q-140.85 -491.85 -147.9 -500.5 -172.05 -530.1 -194.8 -530.1 -201.2 -530.1 -212.85 -523.65 L-204.8 -517.3 Q-191.7 -501.5 -185.15 -492.5 -148.45 -487.0 -148.0 -472.15 -148.15 -469.25 -148.7 -467.1 -149.7 -463.2 -159.15 -460.55 -186.4 -452.95 -290.55 -452.9 -368.2 -454.3 -384.8 -455.0 -390.65 -456.45 -396.25 -458.9 -401.1 -460.5 -403.25 -462.6 -404.8 -467.7 -401.85 -471.7 -398.65 -476.1 -392.85 -480.45 -387.1 -484.8 -372.6 -491.35 L-372.2 -492.2 Q-365.7 -504.9 -356.3 -515.75 L-349.8 -522.75 -352.8 -523.0 Q-383.5 -523.0 -402.85 -502.1 -407.4 -497.2 -410.9 -491.7 L-412.05 -489.5 -412.55 -488.5 -416.3 -481.5 -416.35 -481.4 -416.65 -480.7 -416.3 -482.7 Q-414.95 -489.7 -413.55 -493.35 L-412.9 -494.95 Q-386.6 -540.7 -360.9 -540.7 -350.9 -540.7 -335.75 -534.3 -314.25 -548.75 -287.45 -548.7 -268.9 -548.75 -260.75 -548.0 -250.55 -547.05 -243.25 -544.1 -236.4 -541.4 -227.2 -534.75 L-222.45 -531.15 M-307.1 -502.85 Q-328.9 -516.2 -341.85 -520.7 -348.55 -514.65 -354.1 -506.75 -357.0 -502.6 -360.1 -497.05 L-342.0 -493.85 Q-331.6 -491.95 -299.95 -491.65 -299.1 -495.95 -296.75 -496.4 L-307.1 -502.85 M-286.35 -497.75 Q-297.0 -505.7 -307.05 -512.3 -321.5 -521.85 -333.0 -527.55 -336.9 -529.45 -340.4 -530.95 -352.9 -536.2 -361.2 -536.0 -378.85 -535.6 -390.05 -521.7 L-403.35 -505.3 Q-380.2 -526.65 -360.35 -526.45 L-347.0 -525.4 Q-342.45 -524.75 -338.5 -523.55 -333.0 -521.95 -328.65 -519.4 -315.7 -511.55 -297.5 -501.8 -279.35 -492.05 -286.5 -497.55 L-285.35 -497.05 -286.35 -497.75 M-250.6 -488.65 Q-254.8 -487.35 -259.65 -484.8 L-262.15 -483.5 -262.15 -483.45 Q-261.55 -482.1 -261.45 -480.4 L-261.5 -478.75 Q-261.5 -477.35 -262.4 -475.45 L-258.4 -475.45 -250.2 -474.95 -250.2 -488.45 -250.6 -488.65 M-243.85 -476.3 L-239.3 -476.55 Q-197.8 -479.15 -193.85 -480.55 -189.9 -481.95 -188.95 -482.55 L-192.2 -487.35 -195.8 -493.05 Q-199.35 -490.8 -208.25 -489.1 -221.15 -486.6 -244.1 -485.4 L-244.3 -482.05 Q-243.65 -478.7 -243.85 -476.3 M-274.45 -475.15 L-273.75 -474.7 -272.1 -473.95 Q-270.45 -473.95 -269.3 -474.9 -268.0 -476.05 -267.4 -478.55 -267.4 -479.6 -268.6 -480.45 -270.5 -480.6 -271.15 -481.5 L-273.6 -481.75 Q-276.7 -478.75 -277.0 -477.65 -276.7 -476.55 -274.45 -475.15 M-281.95 -481.5 L-285.9 -483.4 -287.85 -484.4 -294.4 -487.85 -294.4 -474.55 -290.5 -474.75 -282.7 -474.85 Q-283.1 -476.15 -283.1 -477.45 -283.1 -479.15 -281.95 -481.5 M-281.9 -468.05 L-296.2 -467.85 -297.4 -468.05 -338.85 -468.2 Q-337.3 -468.25 -338.55 -468.4 L-373.35 -473.25 -373.45 -473.25 Q-377.9 -473.25 -377.4 -478.35 L-379.2 -477.45 Q-394.5 -470.05 -392.65 -467.0 -388.6 -464.25 -387.05 -464.0 -372.15 -461.35 -290.15 -461.3 -253.05 -461.1 -220.7 -462.45 -157.0 -465.05 -157.0 -472.55 -157.0 -478.65 -173.85 -481.9 L-177.7 -482.65 -177.7 -482.45 Q-177.7 -478.75 -178.15 -477.95 -179.95 -475.2 -187.85 -473.25 -207.4 -468.6 -269.6 -468.1 L-271.6 -467.85 -274.65 -468.1 -281.9 -468.05 M-300.3 -480.65 L-300.3 -484.4 -331.4 -485.4 Q-356.25 -486.85 -363.7 -490.15 L-366.8 -483.75 -368.6 -480.0 -351.4 -477.2 Q-339.6 -475.35 -300.3 -474.85 -300.55 -477.7 -300.3 -480.65" fill="#000000" fill-rule="evenodd" stroke="none"/>
      <path d="M-229.3 -526.7 L-242.3 -517.4 Q-255.2 -507.55 -265.0 -497.9 L-270.9 -491.65 -272.15 -491.65 Q-273.5 -495.05 -282.05 -502.05 -292.0 -510.15 -306.4 -518.9 -318.0 -525.9 -327.8 -530.65 -310.25 -540.2 -287.0 -540.2 -252.95 -540.2 -229.3 -526.7 M-203.3 -497.3 Q-206.0 -496.1 -212.35 -495.2 L-221.15 -494.15 -226.3 -493.65 -244.25 -492.3 Q-245.0 -498.05 -248.0 -498.05 L-250.75 -497.4 -229.5 -513.1 -219.15 -519.95 Q-212.8 -515.0 -207.35 -508.85 -203.95 -505.05 -199.75 -498.95 L-203.3 -497.3 M-307.1 -502.85 L-296.75 -496.4 Q-299.1 -495.95 -299.95 -491.65 -331.6 -491.95 -342.0 -493.85 L-360.1 -497.05 Q-357.0 -502.6 -354.1 -506.75 -348.55 -514.65 -341.85 -520.7 -328.9 -516.2 -307.1 -502.85 M-286.35 -497.75 L-285.35 -497.05 -286.5 -497.55 -286.35 -497.75 M-281.9 -468.05 L-274.65 -468.1 -271.6 -467.85 -269.6 -468.1 Q-207.4 -468.6 -187.85 -473.25 -179.95 -475.2 -178.15 -477.95 -177.7 -478.75 -177.7 -482.45 L-177.7 -482.65 -173.85 -481.9 Q-157.0 -478.65 -157.0 -472.55 -157.0 -465.05 -220.7 -462.45 -253.05 -461.1 -290.15 -461.3 -372.15 -461.35 -387.05 -464.0 -388.6 -464.25 -392.65 -467.0 -394.5 -470.05 -379.2 -477.45 L-377.4 -478.35 Q-377.9 -473.25 -373.45 -473.25 L-373.35 -473.25 -338.55 -468.4 Q-337.3 -468.25 -338.85 -468.2 L-297.4 -468.05 -296.2 -467.85 -281.9 -468.05" fill="#382b25" fill-rule="evenodd" stroke="none"/>
      <path d="M-215.3 -525.55 L-221.85 -521.95 Q-235.95 -513.8 -254.35 -499.7 L-255.5 -499.9 -259.6 -497.35 Q-250.45 -506.55 -229.15 -522.9 L-226.35 -524.95 -220.05 -529.25 Q-203.9 -539.3 -189.55 -539.4 -171.25 -539.5 -162.45 -529.75 -153.7 -520.05 -148.7 -513.3 L-142.9 -505.4 Q-137.8 -499.2 -134.4 -490.45 -140.05 -498.65 -156.25 -515.95 -172.5 -533.25 -191.55 -533.2 -200.65 -533.2 -215.3 -525.55 M-286.5 -497.55 Q-279.35 -492.05 -297.5 -501.8 -315.7 -511.55 -328.65 -519.4 -333.0 -521.95 -338.5 -523.55 -342.45 -524.75 -347.0 -525.4 L-360.35 -526.45 Q-380.2 -526.65 -403.35 -505.3 L-390.05 -521.7 Q-378.85 -535.6 -361.2 -536.0 -352.9 -536.2 -340.4 -530.95 -336.9 -529.45 -333.0 -527.55 -321.5 -521.85 -307.05 -512.3 -297.0 -505.7 -286.35 -497.75 L-286.5 -497.55 M-281.95 -481.5 Q-283.1 -479.15 -283.1 -477.45 -283.1 -476.15 -282.7 -474.85 L-290.5 -474.75 -294.4 -474.55 -294.4 -487.85 -287.85 -484.4 -285.9 -483.4 -281.95 -481.5 M-274.45 -475.15 Q-276.7 -476.55 -277.0 -477.65 -276.7 -478.75 -273.6 -481.75 L-271.15 -481.5 Q-270.5 -480.6 -268.6 -480.45 -267.4 -479.6 -267.4 -478.55 -268.0 -476.05 -269.3 -474.9 -270.45 -473.95 -272.1 -473.95 L-273.75 -474.7 -274.45 -475.15 M-243.85 -476.3 Q-243.65 -478.7 -244.3 -482.05 L-244.1 -485.4 Q-221.15 -486.6 -208.25 -489.1 -199.35 -490.8 -195.8 -493.05 L-192.2 -487.35 -188.95 -482.55 Q-189.9 -481.95 -193.85 -480.55 -197.8 -479.15 -239.3 -476.55 L-243.85 -476.3 M-250.6 -488.65 L-250.2 -488.45 -250.2 -474.95 -258.4 -475.45 -262.4 -475.45 Q-261.5 -477.35 -261.5 -478.75 L-261.45 -480.4 Q-261.55 -482.1 -262.15 -483.45 L-262.15 -483.5 -259.65 -484.8 Q-254.8 -487.35 -250.6 -488.65 M-300.3 -480.65 Q-300.55 -477.7 -300.3 -474.85 -339.6 -475.35 -351.4 -477.2 L-368.6 -480.0 -366.8 -483.75 -363.7 -490.15 Q-356.25 -486.85 -331.4 -485.4 L-300.3 -484.4 -300.3 -480.65" fill="#fd2d2d" fill-rule="evenodd" stroke="none"/>
      <path d="M-338.05 -396.8 Q-336.6 -393.2 -336.6 -389.6 L-336.55 -388.7 Q-333.9 -387.05 -333.4 -383.65 -333.1 -381.6 -333.6 -379.0 L-334.2 -376.7 Q-334.2 -362.65 -332.05 -354.8 -326.65 -335.4 -310.0 -335.4 -309.0 -335.4 -307.0 -336.4 -305.0 -337.4 -304.0 -337.4 -299.55 -337.4 -297.25 -329.8 L-295.8 -322.0 Q-295.8 -315.75 -300.65 -310.0 -308.25 -301.0 -324.4 -301.0 -344.2 -301.0 -364.6 -323.2 -372.45 -331.75 -377.65 -340.8 -382.6 -349.4 -382.6 -353.8 -382.6 -355.25 -380.0 -360.65 -376.8 -367.25 -372.4 -373.0 -365.55 -381.95 -357.95 -386.2 L-357.8 -387.2 Q-357.8 -391.25 -355.25 -396.2 -351.75 -403.0 -346.0 -403.0 -340.5 -403.0 -338.05 -396.8 M-351.0 -389.15 Q-347.2 -390.2 -343.2 -390.2 L-343.1 -390.2 -343.15 -390.4 Q-344.0 -395.8 -346.3 -395.8 -349.6 -395.8 -351.05 -389.2 L-351.05 -389.1 -351.0 -389.15 M-339.05 -368.75 Q-338.35 -378.85 -339.4 -383.2 -340.0 -383.8 -345.4 -383.8 -357.5 -383.8 -368.05 -368.4 -371.4 -363.5 -374.1 -357.7 -376.2 -353.15 -376.2 -352.5 -376.2 -350.45 -371.95 -343.5 -367.0 -335.55 -360.4 -328.2 -341.55 -307.4 -323.3 -307.4 -311.3 -307.4 -305.4 -314.4 -301.8 -318.75 -301.8 -322.2 -301.8 -324.45 -304.4 -330.0 -321.55 -333.05 -330.0 -339.5 -337.0 -344.9 -338.75 -353.3 -339.8 -358.35 -339.05 -368.75 M-247.35 -286.85 Q-253.0 -297.85 -253.0 -301.0 -253.0 -303.8 -249.6 -303.8 -249.3 -303.8 -226.2 -261.7 -226.2 -260.35 -228.0 -258.4 L-227.2 -255.85 -227.0 -250.9 Q-227.0 -246.85 -227.35 -245.8 -228.85 -241.8 -234.8 -241.8 -240.35 -241.8 -242.0 -244.15 -242.85 -245.3 -242.6 -246.7 -242.6 -250.2 -239.6 -250.2 -238.7 -250.2 -237.45 -249.4 L-235.4 -248.0 -235.15 -248.05 Q-233.0 -248.5 -233.0 -250.9 -233.0 -251.75 -233.6 -253.75 L-237.25 -251.6 Q-241.15 -249.8 -244.8 -249.8 -248.2 -249.8 -248.2 -252.6 -248.2 -254.65 -244.75 -256.35 L-243.9 -256.75 Q-240.75 -258.1 -238.3 -259.2 -235.05 -260.8 -233.2 -262.0 -234.95 -264.15 -243.25 -279.2 L-245.4 -283.15 -247.35 -286.85" fill="#000000" fill-rule="evenodd" stroke="none"/>
      <path d="M-351.05 -389.2 Q-349.6 -395.8 -346.3 -395.8 -344.0 -395.8 -343.15 -390.4 L-343.1 -390.2 -343.2 -390.2 Q-347.2 -390.2 -351.0 -389.15 L-351.05 -389.2 M-235.15 -248.05 Q-236.25 -248.9 -237.0 -250.8 L-237.25 -251.6 -233.6 -253.75 Q-233.0 -251.75 -233.0 -250.9 -233.0 -248.5 -235.15 -248.05" fill="#fff1dd" fill-rule="evenodd" stroke="none"/>
      <path d="M-339.05 -368.75 Q-339.8 -358.35 -338.75 -353.3 -337.0 -344.9 -330.0 -339.5 -321.55 -333.05 -304.4 -330.0 -301.8 -324.45 -301.8 -322.2 -301.8 -318.75 -305.4 -314.4 -311.3 -307.4 -323.3 -307.4 -341.55 -307.4 -360.4 -328.2 -367.0 -335.55 -371.95 -343.5 -376.2 -350.45 -376.2 -352.5 -376.2 -353.15 -374.1 -357.7 -371.4 -363.5 -368.05 -368.4 -357.5 -383.8 -345.4 -383.8 -340.0 -383.8 -339.4 -383.2 -338.35 -378.85 -339.05 -368.75 M-244.75 -256.35 L-246.35 -258.6 Q-248.9 -262.75 -249.0 -266.6 -249.2 -270.8 -253.15 -274.15 -257.0 -277.4 -257.0 -279.8 -257.0 -281.75 -255.0 -284.05 -252.4 -287.0 -248.4 -287.0 L-247.35 -286.85 -245.4 -283.15 -243.25 -279.2 Q-234.95 -264.15 -233.2 -262.0 -235.05 -260.8 -238.3 -259.2 -240.75 -258.1 -243.9 -256.75 L-244.75 -256.35" fill="#ffeeee" fill-rule="evenodd" stroke="none"/>
      <path d="M-356.15 -356.55 Q-354.7 -357.9 -352.75 -358.6 -344.9 -363.75 -341.1 -363.65 -337.25 -363.6 -331.35 -356.45 -327.75 -351.9 -323.35 -348.0 -316.9 -342.3 -314.4 -341.1 -311.95 -339.9 -298.55 -335.85 L-298.8 -335.95 Q-291.8 -333.8 -285.0 -333.8 L-265.0 -335.8 -261.4 -335.55 Q-260.7 -336.6 -259.0 -336.6 -257.6 -336.6 -238.4 -299.6 -238.4 -297.85 -239.2 -297.2 -240.05 -296.5 -242.05 -296.25 L-232.8 -276.6 -233.35 -271.5 Q-244.4 -275.0 -246.2 -275.0 -247.3 -275.0 -248.4 -274.1 L-238.95 -254.15 -231.45 -239.05 Q-223.4 -222.0 -223.4 -208.65 -223.4 -202.85 -224.3 -200.45 -225.8 -196.4 -230.85 -194.0 -242.85 -188.25 -284.15 -188.25 -318.85 -188.25 -325.65 -189.45 -327.85 -189.8 -328.45 -190.65 -329.15 -191.6 -330.25 -192.0 -331.95 -192.6 -333.1 -193.25 -329.65 -220.7 -321.5 -264.45 L-319.85 -272.7 -319.05 -277.95 Q-334.8 -279.2 -339.8 -290.55 -341.0 -293.25 -342.65 -300.4 -343.9 -305.75 -345.6 -307.2 -359.0 -318.75 -362.05 -322.3 -367.6 -328.75 -367.3 -335.15 -367.0 -341.55 -363.15 -347.95 -359.35 -354.35 -356.15 -356.55 M-344.0 -346.7 L-339.7 -349.55 -341.55 -348.4 -335.3 -352.8 -336.6 -355.85 Q-338.85 -361.15 -348.4 -354.9 -356.9 -350.75 -359.0 -343.5 -361.15 -336.3 -361.05 -333.1 -361.0 -329.95 -357.85 -325.8 -355.9 -323.3 -350.4 -319.1 -344.6 -314.7 -341.85 -311.5 -337.25 -306.15 -335.2 -298.8 L-334.35 -294.25 Q-333.65 -291.25 -331.75 -289.4 -326.2 -284.05 -307.6 -285.0 -302.15 -285.25 -297.6 -283.2 -294.9 -282.0 -290.15 -278.5 -285.4 -275.0 -282.4 -273.65 -277.45 -271.4 -271.4 -271.4 -256.5 -271.4 -254.65 -276.4 L-253.05 -279.85 Q-251.4 -281.4 -246.2 -281.4 L-242.9 -281.1 -244.15 -284.0 -244.95 -286.0 Q-247.05 -291.4 -248.6 -296.9 -250.95 -297.65 -252.9 -299.2 -256.75 -302.2 -259.5 -302.2 -263.1 -302.2 -268.75 -298.4 -274.45 -294.6 -280.2 -294.6 -288.4 -294.6 -295.35 -302.5 -298.8 -306.45 -302.55 -307.9 L-318.85 -308.2 -326.95 -308.85 Q-330.4 -309.8 -332.0 -312.0 L-333.75 -314.2 Q-335.5 -316.4 -330.8 -322.2 -335.55 -326.45 -345.2 -332.5 -350.0 -335.5 -350.0 -339.5 L-345.55 -345.6 -344.8 -346.1 -344.0 -346.7 M-343.85 -340.2 L-344.0 -339.7 -343.8 -338.8 Q-343.2 -337.45 -340.85 -335.9 L-334.0 -332.0 Q-329.15 -329.4 -326.65 -327.15 L-326.6 -327.15 -325.7 -326.3 -324.3 -324.15 -324.65 -324.9 Q-324.0 -323.85 -324.0 -322.9 -324.0 -321.5 -324.85 -320.15 L-326.6 -316.6 Q-326.1 -312.9 -318.8 -313.05 L-304.8 -313.8 Q-298.1 -314.45 -293.5 -308.9 L-287.6 -302.1 Q-286.3 -300.8 -281.5 -299.4 -276.7 -298.05 -270.45 -303.2 -264.25 -308.35 -259.15 -308.45 -254.05 -308.6 -251.75 -307.0 L-248.4 -304.8 -250.4 -308.75 -255.85 -319.3 -260.25 -328.5 Q-261.45 -326.6 -264.0 -323.6 -268.85 -317.8 -270.6 -317.8 -273.85 -317.8 -280.85 -323.0 L-282.75 -321.1 -283.15 -320.65 Q-280.8 -318.15 -279.1 -312.6 -279.1 -309.6 -286.0 -309.6 L-288.5 -309.75 Q-293.15 -310.35 -292.85 -313.55 L-292.75 -314.25 Q-292.45 -315.9 -290.85 -319.0 L-290.25 -320.0 Q-291.7 -321.45 -293.25 -323.95 L-295.6 -323.15 Q-304.7 -320.2 -307.8 -320.2 -312.9 -320.2 -313.2 -329.6 L-313.25 -332.6 -313.2 -332.7 -313.05 -333.3 -320.7 -339.05 Q-329.95 -346.0 -332.0 -349.6 L-340.25 -343.7 Q-343.25 -341.35 -343.85 -340.2 M-231.0 -207.9 L-230.9 -208.7 Q-232.6 -208.2 -235.45 -205.45 -239.0 -202.1 -242.4 -202.1 -246.55 -202.1 -249.4 -203.75 -251.55 -205.4 -252.05 -205.4 -254.9 -205.4 -257.05 -204.35 L-260.6 -202.0 Q-265.4 -198.6 -272.7 -198.6 -281.5 -198.6 -282.45 -200.5 -282.7 -201.0 -286.6 -201.85 -283.65 -202.45 -286.0 -202.45 -286.6 -202.45 -291.95 -199.9 -297.3 -197.4 -302.95 -197.4 -308.9 -197.4 -313.2 -200.5 L-315.85 -202.65 Q-317.0 -203.65 -317.6 -203.65 -318.8 -203.65 -324.5 -202.1 -325.25 -199.9 -325.95 -198.35 L-325.9 -198.35 Q-325.1 -198.0 -323.15 -197.75 -311.05 -196.0 -254.7 -196.0 -244.25 -197.85 -239.4 -200.5 -231.9 -204.55 -231.0 -207.85 L-231.0 -207.9 M-335.6 -195.7 L-335.75 -196.5 Q-335.75 -197.85 -335.6 -195.7 M-286.3 -327.4 Q-287.25 -326.5 -289.4 -325.5 -287.2 -323.3 -286.5 -322.85 L-284.1 -325.55 -286.3 -327.4 M-307.2 -328.6 Q-307.4 -327.8 -305.4 -327.8 -301.9 -327.8 -298.35 -328.75 -302.7 -329.65 -307.1 -331.1 L-307.2 -328.6 M-287.1 -317.75 L-288.75 -314.0 -288.1 -313.6 -284.0 -313.6 -285.2 -315.65 Q-286.05 -317.2 -287.1 -317.75 M-267.7 -329.3 L-276.65 -327.85 -271.4 -324.8 Q-270.1 -325.55 -267.7 -329.3 M-283.35 -267.0 Q-285.7 -268.0 -290.7 -271.4 -295.25 -274.45 -299.35 -275.8 -305.2 -277.7 -313.9 -277.8 -315.05 -257.3 -317.15 -242.25 -313.55 -240.95 -302.75 -238.25 -278.2 -234.7 -261.2 -237.6 -244.25 -240.55 -242.5 -241.8 L-247.1 -253.5 Q-248.95 -258.2 -254.2 -268.9 -260.3 -265.0 -271.4 -265.0 -278.5 -265.0 -283.35 -267.0 M-318.7 -231.45 L-319.35 -226.8 -320.25 -220.95 Q-321.8 -212.0 -323.3 -206.15 L-317.9 -206.75 -307.3 -200.45 Q-298.05 -200.45 -292.85 -203.0 L-289.6 -204.75 Q-288.0 -205.55 -286.45 -205.55 -284.9 -205.55 -278.75 -201.65 -266.7 -201.65 -261.35 -205.1 -260.05 -205.95 -258.1 -207.45 -256.4 -208.55 -254.15 -208.55 -251.3 -208.55 -248.0 -206.9 -244.7 -205.25 -242.55 -205.25 -239.1 -205.25 -236.4 -208.65 -234.25 -211.3 -231.45 -211.85 -232.8 -216.75 -237.0 -227.7 L-240.35 -236.3 Q-250.5 -231.45 -284.35 -231.45 -300.6 -231.45 -311.15 -234.7 -312.85 -235.2 -317.8 -237.5 L-318.65 -231.45 -318.7 -231.5 -318.7 -231.45" fill="#000000" fill-rule="evenodd" stroke="none"/>
      <path d="M-341.55 -348.4 L-344.0 -346.7 -344.8 -346.1 -345.55 -345.6 -350.0 -339.5 Q-350.0 -335.5 -345.2 -332.5 -335.55 -326.45 -330.8 -322.2 -335.5 -316.4 -333.75 -314.2 L-332.0 -312.0 Q-330.4 -309.8 -326.95 -308.85 L-318.85 -308.2 -302.55 -307.9 Q-298.8 -306.45 -295.35 -302.5 -288.4 -294.6 -280.2 -294.6 -274.45 -294.6 -268.75 -298.4 -263.1 -302.2 -259.5 -302.2 -256.75 -302.2 -252.9 -299.2 -250.95 -297.65 -248.6 -296.9 -247.05 -291.4 -244.95 -286.0 L-244.15 -284.0 Q-246.0 -284.85 -247.25 -284.85 -250.15 -284.85 -252.45 -283.0 L-256.3 -278.95 Q-261.8 -273.1 -270.6 -273.1 -275.35 -273.1 -278.05 -274.3 -279.4 -274.9 -282.65 -277.35 -289.8 -282.8 -304.0 -285.75 L-316.55 -287.25 Q-327.8 -289.1 -329.85 -292.35 -332.15 -296.1 -333.35 -300.25 L-335.2 -308.35 Q-336.8 -313.15 -341.0 -316.0 L-353.95 -324.75 Q-356.6 -327.05 -356.6 -331.9 -356.6 -336.4 -353.1 -343.25 -351.9 -345.65 -336.6 -355.85 L-335.3 -352.8 -341.55 -348.4 M-343.8 -338.8 L-344.0 -339.7 -343.85 -340.2 -343.8 -338.8 M-340.25 -343.7 L-332.0 -349.6 Q-329.95 -346.0 -320.7 -339.05 L-313.05 -333.3 -313.2 -332.7 -313.25 -332.6 -313.2 -329.6 Q-312.9 -320.2 -307.8 -320.2 -304.7 -320.2 -295.6 -323.15 L-293.25 -323.95 Q-291.7 -321.45 -290.25 -320.0 L-290.85 -319.0 Q-292.45 -315.9 -292.75 -314.25 -296.85 -317.35 -302.0 -317.35 -315.15 -317.35 -319.45 -319.1 -317.45 -321.45 -325.05 -332.15 -327.9 -334.3 -332.3 -334.85 -338.65 -335.7 -339.85 -341.1 L-340.25 -343.7 M-288.5 -309.75 L-286.0 -309.6 Q-279.1 -309.6 -279.1 -312.6 -280.8 -318.15 -283.15 -320.65 L-282.75 -321.1 -280.85 -323.0 Q-273.85 -317.8 -270.6 -317.8 -268.85 -317.8 -264.0 -323.6 -261.45 -326.6 -260.25 -328.5 L-255.85 -319.3 -250.4 -308.75 Q-254.35 -311.35 -256.75 -311.35 -265.6 -311.35 -272.25 -306.7 L-276.55 -303.55 Q-278.65 -302.1 -280.25 -302.1 -282.65 -302.1 -284.75 -304.5 L-288.5 -309.7 -288.5 -309.75 M-307.2 -328.6 L-307.1 -331.1 Q-302.7 -329.65 -298.35 -328.75 -301.9 -327.8 -305.4 -327.8 -307.4 -327.8 -307.2 -328.6 M-283.35 -267.0 Q-278.5 -265.0 -271.4 -265.0 -260.3 -265.0 -254.2 -268.9 -248.95 -258.2 -247.1 -253.5 L-242.5 -241.8 Q-244.25 -240.55 -261.2 -237.6 -278.2 -234.7 -302.75 -238.25 -313.55 -240.95 -317.15 -242.25 -315.05 -257.3 -313.9 -277.8 -305.2 -277.7 -299.35 -275.8 -295.25 -274.45 -290.7 -271.4 -285.7 -268.0 -283.35 -267.0 M-267.7 -329.3 Q-270.1 -325.55 -271.4 -324.8 L-276.65 -327.85 -267.7 -329.3" fill="#ffeeee" fill-rule="evenodd" stroke="none"/>
      <path d="M-336.6 -355.85 Q-351.9 -345.65 -353.1 -343.25 -356.6 -336.4 -356.6 -331.9 -356.6 -327.05 -353.95 -324.75 L-341.0 -316.0 Q-336.8 -313.15 -335.2 -308.35 L-333.35 -300.25 Q-332.15 -296.1 -329.85 -292.35 -327.8 -289.1 -316.55 -287.25 L-304.0 -285.75 Q-289.8 -282.8 -282.65 -277.35 -279.4 -274.9 -278.05 -274.3 -275.35 -273.1 -270.6 -273.1 -261.8 -273.1 -256.3 -278.95 L-252.45 -283.0 Q-250.15 -284.85 -247.25 -284.85 -246.0 -284.85 -244.15 -284.0 L-242.9 -281.1 -246.2 -281.4 Q-251.4 -281.4 -253.05 -279.85 L-254.65 -276.4 Q-256.5 -271.4 -271.4 -271.4 -277.45 -271.4 -282.4 -273.65 -285.4 -275.0 -290.15 -278.5 -294.9 -282.0 -297.6 -283.2 -302.15 -285.25 -307.6 -285.0 -326.2 -284.05 -331.75 -289.4 -333.65 -291.25 -334.35 -294.25 L-335.2 -298.8 Q-337.25 -306.15 -341.85 -311.5 -344.6 -314.7 -350.4 -319.1 -355.9 -323.3 -357.85 -325.8 -361.0 -329.95 -361.05 -333.1 -361.15 -336.3 -359.0 -343.5 -356.9 -350.75 -348.4 -354.9 -338.85 -361.15 -336.6 -355.85 M-343.8 -338.8 L-343.85 -340.2 Q-343.25 -341.35 -340.25 -343.7 L-339.85 -341.1 Q-338.65 -335.7 -332.3 -334.85 -327.9 -334.3 -325.05 -332.15 -317.45 -321.45 -319.45 -319.1 -315.15 -317.35 -302.0 -317.35 -296.85 -317.35 -292.75 -314.25 L-292.85 -313.55 Q-293.15 -310.35 -288.5 -309.75 L-288.5 -309.7 -284.75 -304.5 Q-282.65 -302.1 -280.25 -302.1 -278.65 -302.1 -276.55 -303.55 L-272.25 -306.7 Q-265.6 -311.35 -256.75 -311.35 -254.35 -311.35 -250.4 -308.75 L-248.4 -304.8 -251.75 -307.0 Q-254.05 -308.6 -259.15 -308.45 -264.25 -308.35 -270.45 -303.2 -276.7 -298.05 -281.5 -299.4 -286.3 -300.8 -287.6 -302.1 L-293.5 -308.9 Q-298.1 -314.45 -304.8 -313.8 L-318.8 -313.05 Q-326.1 -312.9 -326.6 -316.6 L-324.85 -320.15 Q-324.0 -321.5 -324.0 -322.9 -324.0 -323.85 -324.65 -324.9 L-324.3 -324.15 -325.7 -326.3 -326.6 -327.15 -326.65 -327.15 Q-329.15 -329.4 -334.0 -332.0 L-340.85 -335.9 Q-343.2 -337.45 -343.8 -338.8 M-286.3 -327.4 L-284.1 -325.55 -286.5 -322.85 Q-287.2 -323.3 -289.4 -325.5 -287.25 -326.5 -286.3 -327.4 M-287.1 -317.75 Q-286.05 -317.2 -285.2 -315.65 L-284.0 -313.6 -288.1 -313.6 -288.75 -314.0 -287.1 -317.75" fill="#fd2d2d" fill-rule="evenodd" stroke="none"/>
      <path d="M-231.0 -207.85 Q-231.9 -204.55 -239.4 -200.5 -244.25 -197.85 -254.7 -196.0 -311.05 -196.0 -323.15 -197.75 -325.1 -198.0 -325.9 -198.35 L-325.95 -198.35 Q-325.25 -199.9 -324.5 -202.1 -318.8 -203.65 -317.6 -203.65 -317.0 -203.65 -315.85 -202.65 L-313.2 -200.5 Q-308.9 -197.4 -302.95 -197.4 -297.3 -197.4 -291.95 -199.9 -286.6 -202.45 -286.0 -202.45 -283.65 -202.45 -286.6 -201.85 -282.7 -201.0 -282.45 -200.5 -281.5 -198.6 -272.7 -198.6 -265.4 -198.6 -260.6 -202.0 L-257.05 -204.35 Q-254.9 -205.4 -252.05 -205.4 -251.55 -205.4 -249.4 -203.75 -246.55 -202.1 -242.4 -202.1 -239.0 -202.1 -235.45 -205.45 -232.6 -208.2 -230.9 -208.7 L-231.0 -207.9 -231.0 -207.85 M-318.7 -231.45 L-318.65 -231.45 -317.8 -237.5 Q-312.85 -235.2 -311.15 -234.7 -300.6 -231.45 -284.35 -231.45 -250.5 -231.45 -240.35 -236.3 L-237.0 -227.7 Q-232.8 -216.75 -231.45 -211.85 -234.25 -211.3 -236.4 -208.65 -239.1 -205.25 -242.55 -205.25 -244.7 -205.25 -248.0 -206.9 -251.3 -208.55 -254.15 -208.55 -256.4 -208.55 -258.1 -207.45 -260.05 -205.95 -261.35 -205.1 -266.7 -201.65 -278.75 -201.65 -284.9 -205.55 -286.45 -205.55 -288.0 -205.55 -289.6 -204.75 L-292.85 -203.0 Q-298.05 -200.45 -307.3 -200.45 L-317.9 -206.75 -323.3 -206.15 Q-321.8 -212.0 -320.25 -220.95 L-319.35 -226.8 -318.7 -231.45" fill="#382b25" fill-rule="evenodd" stroke="none"/>
      <path d="M-231.0 -207.85 L-231.0 -207.9 -231.0 -207.85" fill="#fff7f7" fill-rule="evenodd" stroke="none"/>
      <path d="M-290.6 -402.2 Q-290.6 -398.15 -293.7 -396.4 -297.2 -394.4 -305.6 -394.4 -317.95 -394.4 -330.2 -396.4 -342.95 -398.45 -342.95 -400.85 -342.95 -403.8 -340.0 -405.2 -334.4 -407.9 -317.9 -407.9 -297.85 -407.9 -292.85 -406.1 -290.9 -405.45 -290.6 -404.3 L-290.6 -402.2 M-231.2 -405.5 Q-231.2 -414.95 -198.65 -414.95 -191.75 -414.95 -191.75 -410.45 -191.75 -406.45 -199.4 -404.05 -207.55 -401.45 -222.2 -401.45 -229.2 -401.45 -230.85 -403.3 -231.2 -403.7 -231.2 -405.5" fill="#000000" fill-rule="evenodd" stroke="none"/>
    </g>
  </defs>
</svg>
