<?xml version="1.0" encoding="UTF-8" standalone="no"?>
<svg xmlns:xlink="http://www.w3.org/1999/xlink" height="720.75px" width="1716.8px" xmlns="http://www.w3.org/2000/svg">
  <g transform="matrix(1, 0, 0, 1, 307.05, 450.35)">
    <use height="25.6" transform="matrix(0.85, 0.0, 0.0, 0.85, -41.8146, 128.37)" width="91.95" xlink:href="#shape0"/>
    <use height="251.0" transform="matrix(0.85, 0.0, 0.0, 0.85, -110.6638, -148.0045)" width="260.4" xlink:href="#shape1"/>
    <use height="153.25" transform="matrix(0.85, 0.0, 0.0, 0.85, -53.2469, 7.9263)" width="113.95" xlink:href="#shape2"/>
    <use height="69.5" transform="matrix(0.85, 0.0, 0.0, 0.85, -49.337, -75.5853)" width="143.5" xlink:href="#shape3"/>
    <use height="49.15" transform="matrix(0.85, 0.0, 0.0, 0.85, -58.0494, -151.9995)" width="162.15" xlink:href="#shape4"/>
  </g>
  <defs>
    <g id="shape0" transform="matrix(1, 0, 0, 1, 48.9, -0.2)">
      <path d="M35.2 8.75 L35.2 8.7 35.15 8.0 Q35.05 4.2 35.5 2.65 36.3 0.2 39.0 0.2 41.55 0.2 42.5 2.7 43.4 5.15 42.8 10.1 42.8 16.0 42.1 18.05 40.05 23.8 32.5 23.8 23.5 23.8 19.5 16.95 18.2 14.7 17.6 12.1 L17.2 9.75 Q17.2 8.5 18.25 7.5 19.45 6.2 21.5 6.2 24.1 6.2 25.15 7.75 L25.85 9.85 25.95 10.2 26.15 10.95 26.2 11.25 Q27.25 15.7 32.1 15.7 34.4 15.7 34.95 13.35 35.25 12.15 35.2 8.75 M-28.0 12.7 L-27.95 12.55 -27.8 10.6 -27.95 10.95 Q-27.85 7.3 -27.5 6.35 -26.75 4.2 -24.0 4.2 -21.45 4.2 -20.5 6.15 -19.6 8.05 -20.2 11.85 -20.2 15.05 -23.45 19.8 -27.6 25.8 -33.5 25.8 -44.15 25.8 -47.55 18.3 -49.25 14.5 -48.8 10.75 -48.8 5.2 -45.0 5.2 -42.45 5.2 -41.6 7.2 L-41.1 9.45 -40.6 10.65 -40.15 11.35 -39.05 13.7 Q-37.95 16.35 -34.15 17.05 -30.35 17.7 -28.95 15.65 -28.5 14.9 -28.2 13.8 L-28.0 12.7" fill="#000000" fill-rule="evenodd" stroke="none"/>
      <path d="M26.05 10.2 L35.2 8.75 Q35.25 12.15 34.95 13.35 34.4 15.7 32.1 15.7 27.25 15.7 26.2 11.25 L26.15 10.95 26.05 10.2 M-40.15 11.35 L-27.9 11.65 -28.0 12.7 -28.2 13.8 Q-28.5 14.9 -28.95 15.65 -30.35 17.7 -34.15 17.05 -37.95 16.35 -39.05 13.7 L-40.15 11.35" fill="#122c65" fill-rule="evenodd" stroke="none"/>
      <path d="M25.95 10.2 L26.05 10.2 26.15 10.95 25.95 10.2" fill="#666766" fill-rule="evenodd" stroke="none"/>
    </g>
    <g id="shape1" transform="matrix(1, 0, 0, 1, 129.9, 324.95)">
      <path d="M59.5 -256.6 Q67.55 -249.85 77.8 -242.05 88.0 -234.3 102.3 -230.5 94.9 -239.85 88.75 -250.75 109.0 -241.5 117.15 -239.15 103.95 -250.05 95.15 -263.75 L81.55 -285.1 Q56.0 -312.85 22.45 -315.6 L-13.0 -317.7 -13.95 -317.45 Q-26.45 -318.15 -34.95 -315.6 -60.5 -307.9 -74.7 -290.55 -89.45 -272.6 -94.05 -253.5 -99.35 -229.0 -104.15 -212.95 -109.0 -196.9 -118.15 -175.9 -109.8 -182.85 -108.75 -182.85 -105.7 -182.85 -105.15 -180.65 L-105.15 -177.9 Q-105.15 -176.4 -106.1 -170.4 -107.05 -164.45 -106.4 -159.65 -105.75 -154.9 -100.4 -144.65 -95.05 -134.45 -87.6 -134.1 L-87.6 -147.3 Q-87.6 -148.8 -84.6 -148.8 -80.0 -144.9 -76.6 -141.45 -76.2 -144.1 -75.0 -147.5 L-74.6 -148.55 Q-81.25 -152.9 -79.7 -160.55 L-77.9 -169.05 Q-81.65 -176.0 -83.15 -180.6 -84.7 -185.25 -78.85 -199.6 -87.85 -208.85 -83.15 -221.7 -86.7 -220.4 -86.9 -220.4 -92.35 -220.4 -90.95 -224.75 -90.95 -226.75 -88.5 -237.0 -85.4 -249.95 -78.95 -262.25 -72.5 -274.6 -61.9 -283.95 -60.45 -285.25 -56.4 -283.45 -68.55 -272.6 -77.05 -253.35 -85.55 -234.15 -84.05 -229.25 L-42.85 -255.3 -39.65 -257.35 -39.2 -256.6 -38.7 -254.6 Q-38.7 -253.75 -42.9 -247.6 -45.3 -244.2 -51.7 -236.9 -32.35 -245.2 -21.45 -257.4 -10.6 -269.6 -7.45 -275.5 -2.7 -275.5 -3.9 -267.65 -3.9 -262.85 -8.75 -245.45 L23.1 -294.2 Q25.75 -296.3 31.0 -277.55 36.2 -258.85 37.25 -248.0 43.0 -261.35 49.4 -272.55 51.45 -263.35 59.5 -256.6 M22.9 -283.05 Q-6.35 -236.5 -10.65 -236.35 -13.5 -236.25 -15.6 -238.0 L-12.8 -255.65 -13.05 -256.1 Q-19.6 -248.8 -32.2 -239.95 -41.9 -233.15 -48.85 -230.55 -43.95 -210.25 -52.0 -201.3 L-50.0 -197.15 Q-46.3 -188.9 -46.3 -187.25 -46.3 -184.25 -48.65 -178.0 -50.1 -174.2 -51.85 -172.1 L-50.55 -170.25 Q-46.6 -166.05 -46.65 -160.25 -46.75 -154.5 -48.9 -150.1 -35.9 -135.0 -1.4 -135.0 9.35 -135.0 24.9 -139.55 39.95 -143.95 54.3 -150.95 69.25 -158.25 78.25 -165.9 88.1 -174.3 88.1 -181.0 88.1 -182.2 86.25 -186.45 L82.1 -195.95 Q76.1 -211.05 76.1 -224.15 L76.1 -232.75 Q76.15 -233.5 76.75 -234.0 56.15 -245.35 49.15 -256.35 48.9 -255.3 41.6 -243.2 34.3 -231.05 33.75 -235.05 33.2 -239.1 28.35 -257.85 23.45 -276.65 22.9 -283.05 M104.75 -235.9 L111.7 -225.95 Q111.7 -222.3 107.7 -222.3 103.6 -222.3 97.45 -224.4 101.9 -212.45 100.25 -207.3 98.55 -202.2 97.85 -201.0 103.9 -190.8 102.5 -181.45 L108.1 -166.5 Q115.1 -146.65 118.2 -141.15 L117.7 -138.95 Q117.2 -138.15 115.2 -138.15 113.7 -138.15 111.85 -139.4 109.45 -140.95 106.35 -141.75 106.2 -140.0 104.4 -137.25 103.15 -135.25 101.75 -134.25 101.05 -131.8 97.0 -130.05 98.95 -126.5 99.5 -123.6 L100.25 -118.55 100.45 -110.6 Q100.5 -104.9 95.3 -95.75 90.9 -88.1 79.35 -77.8 L81.8 -97.8 Q77.5 -90.6 76.45 -92.25 75.4 -93.9 73.9 -98.65 72.4 -103.45 72.05 -108.35 71.7 -113.25 72.85 -119.1 74.0 -124.95 76.55 -128.8 75.05 -129.45 73.75 -130.35 73.05 -130.85 72.5 -131.3 L70.5 -131.1 62.55 -136.2 Q59.85 -132.5 57.75 -130.35 53.8 -126.45 45.45 -125.0 L45.45 -127.95 44.1 -127.05 Q37.65 -122.85 34.65 -122.85 33.15 -122.85 32.35 -124.05 31.5 -125.25 30.0 -125.25 L26.85 -123.5 Q23.85 -121.8 21.15 -121.8 16.5 -121.8 13.9 -123.8 L13.25 -123.2 Q9.1 -119.4 3.45 -119.4 -0.5 -119.4 -2.85 -120.95 L-3.45 -120.6 Q-9.95 -117.0 -12.3 -117.0 -17.5 -117.0 -18.8 -119.9 L-19.6 -121.95 Q-20.05 -122.85 -21.15 -122.85 L-25.25 -121.1 Q-29.2 -119.4 -31.8 -119.4 -37.65 -119.4 -40.85 -126.35 L-41.65 -128.35 Q-46.6 -125.25 -49.35 -125.25 L-48.75 -122.8 Q-48.05 -119.45 -47.75 -115.35 L-47.55 -111.75 Q-47.55 -100.4 -52.6 -92.0 -57.2 -84.3 -69.8 -73.95 -70.1 -76.6 -70.05 -80.35 -70.05 -84.1 -68.45 -97.0 -70.5 -93.75 -73.1 -91.1 -77.4 -97.25 -76.95 -108.75 -75.5 -122.1 -73.0 -128.85 L-73.5 -128.85 Q-78.4 -128.85 -78.9 -129.65 L-79.45 -131.15 -81.45 -133.8 -81.15 -130.75 Q-80.7 -128.15 -80.85 -126.15 L-81.2 -125.7 Q-81.6 -125.25 -83.4 -125.25 -102.35 -125.25 -109.35 -146.25 -111.65 -153.3 -112.3 -161.7 -112.75 -168.0 -112.2 -170.85 L-112.5 -171.45 Q-123.45 -160.5 -126.45 -160.5 L-128.7 -161.1 -129.65 -161.65 -129.9 -163.8 Q-129.9 -164.6 -118.95 -191.45 -106.85 -223.4 -101.7 -248.55 -100.95 -252.65 -97.4 -261.55 -91.85 -275.45 -83.9 -287.0 -63.0 -317.3 -32.35 -322.05 -28.2 -324.6 -0.75 -324.95 26.65 -325.35 53.3 -314.85 82.7 -303.3 92.6 -283.2 103.1 -261.8 117.95 -247.2 122.1 -243.15 127.0 -239.3 L130.5 -236.3 Q130.5 -232.6 125.95 -232.6 116.25 -232.6 105.55 -235.65 L104.75 -235.9 M84.4 -228.0 L84.25 -218.2 Q84.15 -212.5 84.6 -210.0 84.95 -208.15 90.4 -195.3 L94.3 -185.55 Q95.6 -182.05 95.6 -181.15 L95.5 -179.5 Q97.15 -183.0 97.65 -184.95 98.1 -186.9 95.25 -192.45 92.35 -198.05 90.45 -199.6 89.5 -200.45 89.5 -202.1 89.5 -202.7 91.45 -204.6 97.65 -210.9 87.8 -228.35 86.0 -229.15 84.1 -230.1 L84.4 -228.0 M97.2 -159.7 Q97.75 -162.1 95.25 -165.75 92.7 -169.45 91.75 -170.25 89.3 -166.7 85.35 -162.9 L81.05 -159.25 76.0 -155.45 Q75.75 -152.45 78.1 -150.5 L80.5 -148.45 78.5 -144.5 Q74.75 -136.9 79.0 -133.95 83.25 -131.1 87.75 -132.5 92.2 -133.9 94.75 -135.95 97.3 -138.0 94.75 -143.65 92.2 -149.3 90.9 -148.75 92.35 -151.6 93.65 -153.25 96.65 -157.3 97.2 -159.7 M100.2 -145.75 Q100.75 -147.55 100.5 -149.1 L110.25 -145.5 104.85 -160.4 Q101.4 -169.65 99.6 -172.95 L98.9 -171.8 Q106.05 -158.75 100.35 -152.75 L97.75 -149.85 Q98.95 -148.25 99.95 -145.8 L100.1 -145.4 100.2 -145.75 M82.9 -127.45 Q80.7 -125.8 78.4 -120.35 76.05 -114.9 79.35 -103.3 83.95 -109.8 87.5 -112.2 86.5 -97.95 86.4 -92.95 88.65 -95.4 91.65 -101.5 94.65 -107.65 95.0 -113.65 95.3 -119.65 93.45 -123.25 91.55 -126.9 90.45 -128.15 L82.9 -127.45 M69.4 -151.0 Q64.75 -148.2 59.35 -145.5 46.2 -138.9 31.75 -134.45 34.0 -129.3 36.55 -129.5 39.05 -129.75 43.45 -133.25 L48.95 -137.55 Q49.3 -135.85 50.3 -132.6 53.85 -134.65 58.0 -139.5 61.95 -144.15 62.85 -144.15 65.6 -144.15 69.8 -139.55 L69.9 -139.85 Q72.15 -145.05 73.1 -146.4 71.45 -147.6 70.05 -149.85 L69.4 -151.0 M24.95 -131.45 L26.4 -132.9 24.5 -132.4 17.45 -130.7 17.95 -130.25 Q20.3 -128.25 21.15 -128.25 22.05 -128.25 24.95 -131.45 M3.2 -125.9 L3.15 -125.85 3.3 -125.85 Q7.85 -125.85 9.9 -128.55 L9.9 -129.2 4.05 -128.35 Q4.05 -127.15 3.2 -125.9 M-60.7 -230.4 L-60.8 -232.15 Q-60.8 -233.9 -55.45 -242.05 L-63.6 -236.2 -72.7 -229.8 Q-73.1 -229.65 -73.45 -229.45 L-76.4 -223.95 Q-78.85 -219.5 -78.3 -213.15 -77.8 -206.85 -75.2 -203.35 L-73.3 -200.75 -76.7 -190.4 Q-79.25 -182.55 -77.3 -179.3 L-71.1 -169.5 Q-75.85 -159.85 -74.15 -156.45 -72.5 -153.05 -69.7 -150.3 -66.95 -147.6 -67.4 -147.65 -67.9 -147.75 -69.55 -144.45 -71.2 -141.15 -71.3 -139.05 -68.4 -133.2 -61.5 -134.75 L-60.1 -135.1 -57.2 -135.95 Q-54.7 -136.7 -53.8 -138.65 -52.9 -140.65 -53.0 -141.0 L-53.0 -141.05 Q-53.5 -143.35 -57.4 -149.15 -53.7 -153.3 -52.6 -157.55 -51.55 -161.85 -55.5 -166.0 -59.45 -170.2 -59.8 -171.2 -60.1 -172.25 -59.85 -173.6 -56.2 -176.85 -54.5 -180.5 -52.85 -184.15 -52.85 -187.1 -52.85 -190.05 -56.15 -194.75 L-60.45 -200.9 Q-58.25 -203.55 -55.7 -208.15 -53.15 -212.75 -53.0 -217.15 -52.8 -221.55 -54.55 -224.7 L-56.75 -228.95 Q-59.95 -229.0 -60.7 -230.4 M-51.75 -130.75 Q-47.1 -131.7 -43.45 -135.75 L-46.55 -137.6 -48.5 -134.8 Q-50.35 -132.4 -52.1 -131.25 L-51.75 -130.75 M-60.65 -129.2 L-64.85 -129.35 Q-67.55 -127.15 -70.2 -119.5 -72.95 -111.9 -71.1 -101.4 -66.55 -111.55 -64.65 -114.6 -61.15 -114.9 -64.05 -96.45 L-65.5 -85.25 Q-53.4 -99.85 -53.4 -111.9 -53.4 -117.4 -53.85 -121.0 -54.3 -124.6 -59.4 -129.2 L-60.65 -129.2 M-6.35 -127.4 L-12.15 -127.25 -15.9 -127.35 Q-14.55 -123.45 -11.7 -123.45 -9.75 -123.45 -6.3 -127.1 L-6.35 -127.4 M-35.05 -131.45 Q-33.0 -125.85 -31.2 -125.85 -28.55 -125.85 -25.25 -128.65 -30.2 -129.75 -34.95 -131.65 L-35.15 -131.7 -35.05 -131.45" fill="#000000" fill-rule="evenodd" stroke="none"/>
      <path d="M59.5 -256.6 Q51.45 -263.35 49.4 -272.55 43.0 -261.35 37.25 -248.0 36.2 -258.85 31.0 -277.55 25.75 -296.3 23.1 -294.2 L-8.75 -245.45 Q-3.9 -262.85 -3.9 -267.65 -2.7 -275.5 -7.45 -275.5 -10.6 -269.6 -21.45 -257.4 -32.35 -245.2 -51.7 -236.9 -45.3 -244.2 -42.9 -247.6 -38.7 -253.75 -38.7 -254.6 L-39.2 -256.6 -39.65 -257.35 -42.85 -255.3 -84.05 -229.25 Q-85.55 -234.15 -77.05 -253.35 -68.55 -272.6 -56.4 -283.45 -60.45 -285.25 -61.9 -283.95 -72.5 -274.6 -78.95 -262.25 -85.4 -249.95 -88.5 -237.0 -90.95 -226.75 -90.95 -224.75 -92.35 -220.4 -86.9 -220.4 -86.7 -220.4 -83.15 -221.7 -87.85 -208.85 -78.85 -199.6 -84.7 -185.25 -83.15 -180.6 -81.65 -176.0 -77.9 -169.05 L-79.7 -160.55 Q-81.25 -152.9 -74.6 -148.55 L-75.0 -147.5 Q-76.2 -144.1 -76.6 -141.45 -80.0 -144.9 -84.6 -148.8 -87.6 -148.8 -87.6 -147.3 L-87.6 -134.1 Q-95.05 -134.45 -100.4 -144.65 -105.75 -154.9 -106.4 -159.65 -107.05 -164.45 -106.1 -170.4 -105.15 -176.4 -105.15 -177.9 L-105.15 -180.65 Q-105.7 -182.85 -108.75 -182.85 -109.8 -182.85 -118.15 -175.9 -109.0 -196.9 -104.15 -212.95 -99.35 -229.0 -94.05 -253.5 -89.45 -272.6 -74.7 -290.55 -60.5 -307.9 -34.95 -315.6 -26.45 -318.15 -13.95 -317.45 L-13.0 -317.7 22.45 -315.6 Q56.0 -312.85 81.55 -285.1 L95.15 -263.75 Q103.95 -250.05 117.15 -239.15 109.0 -241.5 88.75 -250.75 94.9 -239.85 102.3 -230.5 88.0 -234.3 77.8 -242.05 67.55 -249.85 59.5 -256.6 M99.95 -145.8 Q98.95 -148.25 97.75 -149.85 L100.35 -152.75 Q106.05 -158.75 98.9 -171.8 L99.6 -172.95 Q101.4 -169.65 104.85 -160.4 L110.25 -145.5 100.5 -149.1 Q100.75 -147.55 100.2 -145.75 L99.95 -145.8 M97.2 -159.7 Q96.65 -157.3 93.65 -153.25 92.35 -151.6 90.9 -148.75 92.2 -149.3 94.75 -143.65 97.3 -138.0 94.75 -135.95 92.2 -133.9 87.75 -132.5 83.25 -131.1 79.0 -133.95 74.75 -136.9 78.5 -144.5 L80.5 -148.45 78.1 -150.5 Q75.75 -152.45 76.0 -155.45 L81.05 -159.25 85.35 -162.9 Q89.3 -166.7 91.75 -170.25 92.7 -169.45 95.25 -165.75 97.75 -162.1 97.2 -159.7 M84.4 -228.0 L84.1 -230.1 Q86.0 -229.15 87.8 -228.35 97.65 -210.9 91.45 -204.6 89.5 -202.7 89.5 -202.1 89.5 -200.45 90.45 -199.6 92.35 -198.05 95.25 -192.45 98.1 -186.9 97.65 -184.95 97.15 -183.0 95.5 -179.5 L95.6 -181.15 Q95.6 -182.05 94.3 -185.55 L90.4 -195.3 Q84.95 -208.15 84.6 -210.0 84.15 -212.5 84.25 -218.2 L84.4 -228.0 M24.95 -131.45 Q22.05 -128.25 21.15 -128.25 20.3 -128.25 17.95 -130.25 L17.45 -130.7 24.5 -132.4 26.4 -132.9 24.95 -131.45 M69.4 -151.0 L70.05 -149.85 Q71.45 -147.6 73.1 -146.4 72.15 -145.05 69.9 -139.85 L69.8 -139.55 Q65.6 -144.15 62.85 -144.15 61.95 -144.15 58.0 -139.5 53.85 -134.65 50.3 -132.6 49.3 -135.85 48.95 -137.55 L43.45 -133.25 Q39.05 -129.75 36.55 -129.5 34.0 -129.3 31.75 -134.45 46.2 -138.9 59.35 -145.5 64.75 -148.2 69.4 -151.0 M82.9 -127.45 L90.45 -128.15 Q91.55 -126.9 93.45 -123.25 95.3 -119.65 95.0 -113.65 94.65 -107.65 91.65 -101.5 88.65 -95.4 86.4 -92.95 86.5 -97.95 87.5 -112.2 83.95 -109.8 79.35 -103.3 76.05 -114.9 78.4 -120.35 80.7 -125.8 82.9 -127.45 M3.2 -125.9 Q4.05 -127.15 4.05 -128.35 L9.9 -129.2 9.9 -128.55 Q7.85 -125.85 3.3 -125.85 L3.2 -125.9 M-6.35 -127.4 L-6.3 -127.1 Q-9.75 -123.45 -11.7 -123.45 -14.55 -123.45 -15.9 -127.35 L-12.15 -127.25 -6.35 -127.4 M-60.65 -129.2 L-59.4 -129.2 Q-54.3 -124.6 -53.85 -121.0 -53.4 -117.4 -53.4 -111.9 -53.4 -99.85 -65.5 -85.25 L-64.05 -96.45 Q-61.15 -114.9 -64.65 -114.6 -66.55 -111.55 -71.1 -101.4 -72.95 -111.9 -70.2 -119.5 -67.55 -127.15 -64.85 -129.35 L-60.65 -129.2 M-51.75 -130.75 L-52.1 -131.25 Q-50.35 -132.4 -48.5 -134.8 L-46.55 -137.6 -43.45 -135.75 Q-47.1 -131.7 -51.75 -130.75 M-60.7 -230.4 Q-59.95 -229.0 -56.75 -228.95 L-54.55 -224.7 Q-52.8 -221.55 -53.0 -217.15 -53.15 -212.75 -55.7 -208.15 -58.25 -203.55 -60.45 -200.9 L-56.15 -194.75 Q-52.85 -190.05 -52.85 -187.1 -52.85 -184.15 -54.5 -180.5 -56.2 -176.85 -59.85 -173.6 -60.1 -172.25 -59.8 -171.2 -59.45 -170.2 -55.5 -166.0 -51.55 -161.85 -52.6 -157.55 -53.7 -153.3 -57.4 -149.15 -53.5 -143.35 -53.0 -141.05 L-53.0 -141.0 Q-52.9 -140.65 -53.8 -138.65 -54.7 -136.7 -57.2 -135.95 L-60.1 -135.1 -61.5 -134.75 Q-68.4 -133.2 -71.3 -139.05 -71.2 -141.15 -69.55 -144.45 -67.9 -147.75 -67.4 -147.65 -66.95 -147.6 -69.7 -150.3 -72.5 -153.05 -74.15 -156.45 -75.85 -159.85 -71.1 -169.5 L-77.3 -179.3 Q-79.25 -182.55 -76.7 -190.4 L-73.3 -200.75 -75.2 -203.35 Q-77.8 -206.85 -78.3 -213.15 -78.85 -219.5 -76.4 -223.95 L-73.45 -229.45 Q-73.1 -229.65 -72.7 -229.8 L-63.6 -236.2 -55.45 -242.05 Q-60.8 -233.9 -60.8 -232.15 L-60.7 -230.4 M-34.95 -131.65 Q-30.2 -129.75 -25.25 -128.65 -28.55 -125.85 -31.2 -125.85 -33.0 -125.85 -35.05 -131.45 L-34.95 -131.65" fill="#e6e6e6" fill-rule="evenodd" stroke="none"/>
      <path d="M22.9 -283.05 Q23.45 -276.65 28.35 -257.85 33.2 -239.1 33.75 -235.05 34.3 -231.05 41.6 -243.2 48.9 -255.3 49.15 -256.35 56.15 -245.35 76.75 -234.0 76.15 -233.5 76.1 -232.75 L76.1 -224.15 Q76.1 -211.05 82.1 -195.95 L86.25 -186.45 Q88.1 -182.2 88.1 -181.0 88.1 -174.3 78.25 -165.9 69.25 -158.25 54.3 -150.95 39.95 -143.95 24.9 -139.55 9.35 -135.0 -1.4 -135.0 -35.9 -135.0 -48.9 -150.1 -46.75 -154.5 -46.65 -160.25 -46.6 -166.05 -50.55 -170.25 L-51.85 -172.1 Q-50.1 -174.2 -48.65 -178.0 -46.3 -184.25 -46.3 -187.25 -46.3 -188.9 -50.0 -197.15 L-52.0 -201.3 Q-43.95 -210.25 -48.85 -230.55 -41.9 -233.15 -32.2 -239.95 -19.6 -248.8 -13.05 -256.1 L-12.8 -255.65 -15.6 -238.0 Q-13.5 -236.25 -10.65 -236.35 -6.35 -236.5 22.9 -283.05" fill="#fff1dd" fill-rule="evenodd" stroke="none"/>
      <path d="M105.85 -132.05 L105.8 -130.65 Q105.8 -126.65 104.45 -121.6 103.05 -116.6 97.85 -116.75 92.6 -116.95 86.6 -125.4 L80.75 -120.05 Q77.55 -117.3 74.0 -117.2 70.4 -117.2 68.75 -123.25 67.05 -129.3 66.95 -133.5 L66.8 -135.4 Q66.7 -136.7 66.95 -137.45 67.75 -139.65 72.3 -139.65 75.35 -139.65 82.0 -135.55 87.6 -131.4 87.35 -132.0 87.05 -132.6 91.75 -135.8 96.45 -139.1 100.5 -139.1 104.5 -139.15 105.25 -136.25 105.95 -133.4 105.85 -132.05 M89.2 -129.1 Q90.7 -125.65 93.2 -122.85 95.7 -120.05 98.3 -119.7 100.85 -119.35 101.6 -123.65 L102.85 -131.25 Q103.4 -134.6 100.85 -135.5 98.3 -136.5 94.85 -133.75 L89.2 -129.1 M82.45 -131.3 Q80.4 -132.9 75.05 -135.3 69.7 -137.75 70.55 -132.95 70.55 -129.85 71.65 -125.35 72.75 -120.85 75.0 -121.0 77.25 -121.2 80.85 -124.8 84.45 -128.4 84.5 -128.95 84.5 -129.7 82.45 -131.3 M-43.8 -137.65 Q-43.1 -134.8 -43.2 -133.45 L-43.25 -132.05 Q-43.25 -128.05 -44.6 -123.0 -46.0 -118.0 -51.2 -118.15 -56.45 -118.35 -62.45 -126.8 L-68.3 -121.45 Q-71.5 -118.7 -75.05 -118.6 -78.65 -118.6 -80.3 -124.65 -82.0 -130.7 -82.1 -134.9 L-82.25 -136.8 Q-82.35 -138.1 -82.1 -138.85 -81.3 -141.05 -76.75 -141.05 -73.7 -141.05 -67.05 -136.95 -61.45 -132.8 -61.7 -133.4 -62.0 -134.0 -57.3 -137.2 -52.6 -140.5 -48.55 -140.5 -44.55 -140.55 -43.8 -137.65 M-59.85 -130.5 Q-58.35 -127.05 -55.85 -124.25 -53.35 -121.45 -50.75 -121.1 -48.2 -120.75 -47.45 -125.05 L-46.2 -132.65 Q-45.65 -136.0 -48.2 -136.9 -50.75 -137.9 -54.2 -135.15 L-59.85 -130.5 M-78.5 -134.35 Q-78.5 -131.25 -77.4 -126.75 -76.3 -122.25 -74.05 -122.4 -71.8 -122.6 -68.2 -126.2 -64.6 -129.8 -64.55 -130.35 -64.55 -131.1 -66.6 -132.7 -68.65 -134.3 -74.0 -136.7 -79.35 -139.15 -78.5 -134.35" fill="#000000" fill-rule="evenodd" stroke="none"/>
      <path d="M82.45 -131.3 Q84.5 -129.7 84.5 -128.95 84.45 -128.4 80.85 -124.8 77.25 -121.2 75.0 -121.0 72.75 -120.85 71.65 -125.35 70.55 -129.85 70.55 -132.95 69.7 -137.75 75.05 -135.3 80.4 -132.9 82.45 -131.3 M89.2 -129.1 L94.85 -133.75 Q98.3 -136.5 100.85 -135.5 103.4 -134.6 102.85 -131.25 L101.6 -123.65 Q100.85 -119.35 98.3 -119.7 95.7 -120.05 93.2 -122.85 90.7 -125.65 89.2 -129.1 M-78.5 -134.35 Q-79.35 -139.15 -74.0 -136.7 -68.65 -134.3 -66.6 -132.7 -64.55 -131.1 -64.55 -130.35 -64.6 -129.8 -68.2 -126.2 -71.8 -122.6 -74.05 -122.4 -76.3 -122.25 -77.4 -126.75 -78.5 -131.25 -78.5 -134.35 M-59.85 -130.5 L-54.2 -135.15 Q-50.75 -137.9 -48.2 -136.9 -45.65 -136.0 -46.2 -132.65 L-47.45 -125.05 Q-48.2 -120.75 -50.75 -121.1 -53.35 -121.45 -55.85 -124.25 -58.35 -127.05 -59.85 -130.5" fill="#5ee73a" fill-rule="evenodd" stroke="none"/>
    </g>
    <g id="shape2" transform="matrix(1, 0, 0, 1, 62.35, 141.5)">
      <path d="M-41.6 -102.7 Q-40.75 -99.85 -40.75 -98.6 -40.75 -97.5 -38.2 -96.6 L-30.75 -94.0 -25.5 -94.0 Q-25.05 -96.65 -21.2 -105.6 -17.75 -113.6 -17.75 -118.0 -17.75 -120.75 -22.75 -125.3 -27.4 -129.5 -29.0 -129.5 -32.35 -129.5 -42.5 -106.85 -42.5 -105.6 -41.6 -102.7 M-46.1 -110.65 Q-44.5 -116.25 -42.2 -121.3 -35.75 -135.5 -28.5 -135.5 -23.7 -135.5 -17.8 -127.8 -12.5 -120.9 -12.5 -118.0 -12.5 -115.15 -16.55 -102.3 -21.15 -87.5 -24.5 -87.5 L-28.5 -87.6 Q-28.6 -85.95 -31.15 -77.75 -34.05 -68.45 -37.55 -59.25 -47.3 -33.5 -52.0 -33.5 -58.25 -33.5 -59.5 -40.05 -60.1 -43.3 -59.5 -46.75 -59.5 -55.1 -53.4 -73.7 -48.3 -89.35 -44.55 -94.0 L-45.0 -94.55 Q-47.5 -97.9 -47.5 -104.0 -47.5 -105.8 -46.1 -110.65 M-42.7 -87.0 L-47.5 -75.8 Q-54.5 -58.35 -54.5 -47.0 L-54.25 -41.0 Q-53.85 -41.0 -52.0 -39.75 -46.4 -48.5 -40.8 -66.05 -36.0 -81.0 -32.35 -88.05 -37.6 -88.9 -41.0 -90.95 L-42.7 -87.0" fill="#000000" fill-rule="evenodd" stroke="none"/>
      <path d="M-41.6 -102.7 Q-42.5 -105.6 -42.5 -106.85 -32.35 -129.5 -29.0 -129.5 -27.4 -129.5 -22.75 -125.3 -17.75 -120.75 -17.75 -118.0 -17.75 -113.6 -21.2 -105.6 -25.05 -96.65 -25.5 -94.0 L-30.75 -94.0 -38.2 -96.6 Q-40.75 -97.5 -40.75 -98.6 -40.75 -99.85 -41.6 -102.7" fill="#ffffff" fill-rule="evenodd" stroke="none"/>
      <path d="M-42.7 -87.0 L-41.0 -90.95 Q-37.6 -88.9 -32.35 -88.05 -36.0 -81.0 -40.8 -66.05 -46.4 -48.5 -52.0 -39.75 -53.85 -41.0 -54.25 -41.0 L-54.5 -47.0 Q-54.5 -58.35 -47.5 -75.8 L-42.7 -87.0" fill="#fff1dd" fill-rule="evenodd" stroke="none"/>
      <path d="M23.9 -131.95 Q17.25 -130.2 10.85 -129.0 L16.65 -109.8 21.05 -94.8 21.05 -94.9 22.85 -89.0 Q26.55 -76.8 28.6 -71.25 L49.95 -12.9 51.6 -8.3 Q51.6 -2.8 50.7 -0.45 49.2 3.6 44.15 6.0 32.15 11.75 -9.15 11.75 -43.85 11.75 -50.65 10.55 -52.7 10.25 -56.6 5.65 -58.65 3.3 -52.05 -33.15 L-41.8 -89.0 -40.2 -97.0 Q-34.85 -123.55 -32.05 -131.9 L-32.05 -138.6 Q-19.9 -134.55 -2.0 -134.55 8.75 -134.55 24.3 -139.1 L27.95 -140.2 27.95 -133.05 23.9 -131.95 M5.35 -126.4 L5.15 -128.1 Q-4.1 -126.8 -12.75 -126.8 -19.65 -126.8 -26.25 -128.3 L-26.45 -127.3 -26.8 -125.45 -29.55 -110.05 -31.85 -97.0 -33.2 -89.0 -33.55 -86.6 -39.0 -62.5 -39.5 -59.25 -40.85 -50.6 -41.8 -44.4 Q-43.9 -39.2 -42.95 -36.05 -43.9 -39.2 -41.8 -44.4 L-42.8 -37.8 -42.8 -37.75 -42.95 -36.05 -43.65 -31.45 -43.7 -31.5 -43.7 -31.45 -44.35 -26.8 -45.25 -20.95 Q-47.7 -2.25 -49.1 2.3 L-42.95 3.95 Q-37.1 5.5 20.3 4.0 48.25 1.1 45.65 -6.75 L38.65 -26.05 38.25 -27.1 34.7 -36.9 29.7 -50.95 29.15 -52.5 25.8 -62.0 16.6 -89.0 14.0 -97.0 11.45 -105.0 Q7.3 -118.2 5.9 -124.1 L5.35 -126.4 M34.7 -36.9 Q36.2 -42.15 29.7 -50.95 36.2 -42.15 34.7 -36.9" fill="#000000" fill-rule="evenodd" stroke="none"/>
      <path d="M-26.45 -127.3 L-5.7 -113.7 5.35 -126.4 5.9 -124.1 Q7.3 -118.2 11.45 -105.0 L10.15 -97.8 8.25 -99.7 4.4 -81.3 -12.1 -80.15 -19.35 -99.4 -14.35 -104.65 -19.35 -99.4 -21.0 -97.7 -29.55 -110.05 -26.8 -125.45 -26.45 -127.3 M25.8 -62.0 L29.15 -52.5 28.5 -52.5 29.7 -50.95 34.7 -36.9 Q33.45 -32.65 26.95 -30.8 37.55 -14.05 20.5 -15.4 24.25 2.9 5.7 -3.9 -4.2 10.5 -13.7 -5.55 -29.35 0.45 -25.75 -16.9 -41.75 -16.5 -34.75 -31.4 -41.7 -31.8 -42.95 -36.05 L-42.8 -37.75 -42.8 -37.8 -41.8 -44.4 -39.8 -48.55 -40.3 -50.5 -40.85 -50.6 -39.5 -59.25 Q-0.2 -54.25 25.8 -62.0 M3.4 -104.6 L3.35 -104.6 3.4 -104.6 4.2 -104.9 3.4 -104.6 2.8 -105.15 3.4 -104.6 8.25 -99.7 3.4 -104.6 M3.35 -104.6 L2.8 -105.15 2.6 -105.35 0.4 -107.6 Q-4.95 -105.6 -11.25 -107.9 L-14.35 -104.65 Q-11.5 -103.8 -8.75 -103.45 L-11.1 -92.75 -5.3 -86.5 -4.8 -103.2 -1.6 -86.85 2.6 -92.45 -1.05 -103.55 Q1.2 -103.9 3.35 -104.6 M1.1 -107.9 L0.4 -107.6 1.1 -107.9 M-15.15 -104.9 L-14.35 -104.65 -15.15 -104.9 M28.5 -52.5 Q0.7 -44.1 -40.3 -50.5 0.7 -44.1 28.5 -52.5 29.1 -40.35 26.95 -30.8 29.1 -40.35 28.5 -52.5 M-13.05 -5.8 Q-5.85 -2.05 2.0 -3.15 L5.7 -3.9 2.0 -3.15 Q-5.85 -2.05 -13.05 -5.8 L-14.1 -6.35 -13.7 -5.55 -13.05 -5.8 M-33.8 -31.35 L-32.4 -28.35 Q-29.15 -21.55 -25.75 -16.9 -23.5 -13.75 -21.15 -11.6 -17.7 -8.35 -14.1 -6.35 -17.7 -8.35 -21.15 -11.6 -23.5 -13.75 -25.75 -16.9 -29.15 -21.55 -32.4 -28.35 L-33.8 -31.35 -34.25 -32.4 -34.75 -31.4 -33.8 -31.35 M26.95 -30.8 Q25.15 -23.15 21.6 -17.15 L20.5 -15.4 Q14.55 -6.5 5.7 -3.9 14.55 -6.5 20.5 -15.4 L21.6 -17.15 Q25.15 -23.15 26.95 -30.8 M-39.8 -48.55 Q-37.65 -40.3 -34.25 -32.4 -37.65 -40.3 -39.8 -48.55 M-11.25 -107.9 L-5.7 -113.7 0.4 -107.6 -5.7 -113.7 -11.25 -107.9" fill="#ffffff" fill-rule="evenodd" stroke="none"/>
      <path d="M-26.45 -127.3 L-26.25 -128.3 Q-19.65 -126.8 -12.75 -126.8 -4.1 -126.8 5.15 -128.1 L5.35 -126.4 -5.7 -113.7 -26.45 -127.3" fill="#fff1dd" fill-rule="evenodd" stroke="none"/>
      <path d="M2.8 -105.15 L3.35 -104.6 Q1.2 -103.9 -1.05 -103.55 L2.6 -92.45 -1.6 -86.85 -4.8 -103.2 -5.3 -86.5 -11.1 -92.75 -8.75 -103.45 Q-11.5 -103.8 -14.35 -104.65 L-11.25 -107.9 Q-4.95 -105.6 0.4 -107.6 L2.6 -105.35 2.8 -105.15 M-1.05 -103.55 L-4.8 -103.2 -8.75 -103.45 -4.8 -103.2 -1.05 -103.55" fill="#404040" fill-rule="evenodd" stroke="none"/>
      <path d="M11.45 -105.0 L14.0 -97.0 16.6 -89.0 25.8 -62.0 Q-0.2 -54.25 -39.5 -59.25 L-39.0 -62.5 -33.55 -86.6 -33.2 -89.0 -31.85 -97.0 -29.55 -110.05 -21.0 -97.7 -19.35 -99.4 -12.1 -80.15 4.4 -81.3 8.25 -99.7 10.15 -97.8 11.45 -105.0 M34.7 -36.9 L38.25 -27.1 38.65 -26.05 45.65 -6.75 Q48.25 1.1 20.3 4.0 -37.1 5.5 -42.95 3.95 L-49.1 2.3 Q-47.7 -2.25 -45.25 -20.95 L-44.35 -26.8 -43.7 -31.45 -43.65 -31.45 -42.95 -36.05 Q-41.7 -31.8 -34.75 -31.4 -41.75 -16.5 -25.75 -16.9 -29.35 0.45 -13.7 -5.55 -4.2 10.5 5.7 -3.9 24.25 2.9 20.5 -15.4 37.55 -14.05 26.95 -30.8 33.45 -32.65 34.7 -36.9" fill="#18398c" fill-rule="evenodd" stroke="none"/>
      <path d="M-26.45 -127.3 L-5.7 -113.7 5.35 -126.4 M3.4 -104.6 L2.8 -105.15 2.6 -105.35 0.4 -107.6 -5.7 -113.7 -11.25 -107.9 -14.35 -104.65 -19.35 -99.4 -12.1 -80.15 4.4 -81.3 8.25 -99.7 3.4 -104.6 M-39.8 -48.55 L-40.3 -50.5 -40.85 -50.6 M-40.3 -50.5 Q0.7 -44.1 28.5 -52.5 L29.15 -52.5 M26.95 -30.8 Q29.1 -40.35 28.5 -52.5 M5.7 -3.9 L2.0 -3.15 Q-5.85 -2.05 -13.05 -5.8 M-14.1 -6.35 Q-17.7 -8.35 -21.15 -11.6 -23.5 -13.75 -25.75 -16.9 -29.15 -21.55 -32.4 -28.35 L-33.8 -31.35 -34.25 -32.4 Q-37.65 -40.3 -39.8 -48.55 M5.7 -3.9 Q14.55 -6.5 20.5 -15.4 L21.6 -17.15 Q25.15 -23.15 26.95 -30.8 M8.25 -99.7 L10.15 -97.8 11.45 -105.0 M-14.1 -6.35 L-13.05 -5.8 M-19.35 -99.4 L-21.0 -97.7 -29.55 -110.05 M25.8 -62.0 Q-0.2 -54.25 -39.5 -59.25" fill="none" stroke="#000000" stroke-linecap="round" stroke-linejoin="round" stroke-width="5.0"/>
      <path d="M3.4 -104.6 L4.2 -104.9 M3.35 -104.6 L3.4 -104.6 M3.35 -104.6 Q1.2 -103.9 -1.05 -103.55 L2.6 -92.45 -1.6 -86.85 -4.8 -103.2 -5.3 -86.5 -11.1 -92.75 -8.75 -103.45 Q-11.5 -103.8 -14.35 -104.65 L-15.15 -104.9 M0.4 -107.6 Q-4.95 -105.6 -11.25 -107.9 M-4.8 -103.2 L-8.75 -103.45 M-4.8 -103.2 L-1.05 -103.55" fill="none" stroke="#000000" stroke-linecap="round" stroke-linejoin="round" stroke-width="2.0"/>
      <path d="M0.4 -107.6 L1.1 -107.9" fill="none" stroke="#000000" stroke-linecap="round" stroke-linejoin="round" stroke-width="2.0"/>
      <path d="M29.7 -50.95 Q36.2 -42.15 34.7 -36.9 33.45 -32.65 26.95 -30.8 37.55 -14.05 20.5 -15.4 24.25 2.9 5.7 -3.9 -4.2 10.5 -13.7 -5.55 -29.35 0.45 -25.75 -16.9 -41.75 -16.5 -34.75 -31.4 -41.7 -31.8 -42.95 -36.05 -43.9 -39.2 -41.8 -44.4 L-39.8 -48.55 M28.5 -52.5 L29.7 -50.95 M-13.05 -5.8 L-13.7 -5.55 -14.1 -6.35 M-33.8 -31.35 L-34.75 -31.4 -34.25 -32.4" fill="none" stroke="#000000" stroke-linecap="round" stroke-linejoin="round" stroke-width="3.0"/>
      <path d="M36.5 -138.0 L34.5 -126.75 Q34.5 -126.0 34.75 -125.75 37.65 -127.4 40.35 -129.4 42.1 -130.5 44.0 -130.5 48.6 -130.5 47.5 -126.25 47.5 -124.8 45.35 -120.2 43.05 -115.3 39.95 -110.5 L38.6 -108.45 39.0 -108.5 42.0 -108.0 Q42.5 -108.25 42.5 -105.75 42.5 -104.1 41.45 -102.4 L38.75 -98.5 41.4 -97.2 Q42.5 -96.6 42.5 -95.75 42.5 -93.05 37.55 -87.55 L29.75 -79.25 29.25 -78.75 Q37.75 -80.35 47.5 -83.5 L50.0 -83.0 Q50.5 -83.25 50.5 -80.75 50.5 -77.9 31.1 -70.05 12.0 -62.35 2.5 -61.0 L10.65 -60.4 Q16.5 -59.6 18.5 -56.5 18.4 -55.7 18.1 -55.2 17.65 -54.2 15.95 -53.55 10.85 -51.5 -6.0 -51.5 -37.85 -51.5 -52.5 -59.05 -62.35 -64.15 -62.35 -70.75 -62.35 -76.75 -43.15 -84.8 L-27.7 -90.8 Q-18.85 -94.1 -16.0 -95.5 L-15.1 -95.3 -14.35 -97.5 -13.1 -99.55 -14.5 -101.35 Q-14.5 -103.3 -12.3 -108.6 -9.95 -114.2 -6.7 -119.75 2.0 -134.5 8.5 -134.5 10.1 -134.5 10.75 -133.8 L10.95 -133.45 11.5 -133.5 13.5 -133.3 Q13.75 -134.65 22.4 -137.95 30.0 -140.85 33.0 -141.5 L36.0 -141.0 Q36.5 -140.5 36.5 -138.0 M30.5 -134.0 L30.5 -134.5 30.45 -134.5 Q29.2 -134.4 24.45 -132.45 20.85 -130.95 18.7 -130.6 22.5 -126.95 24.25 -118.55 25.25 -113.9 25.45 -108.25 L25.5 -103.35 25.5 -102.75 25.75 -103.0 29.75 -106.25 Q37.6 -113.8 40.5 -122.5 39.8 -122.35 34.35 -118.9 L28.5 -115.5 25.75 -116.0 25.5 -118.6 Q25.5 -121.35 27.05 -125.25 L30.5 -134.0 M0.4 -118.4 Q-8.5 -107.15 -8.5 -102.85 -8.5 -101.25 -0.35 -96.65 L9.6 -90.75 14.4 -95.65 Q20.25 -101.85 20.25 -103.25 20.25 -112.05 18.25 -117.45 16.0 -123.6 9.9 -130.45 L0.4 -118.4 M31.75 -97.25 L32.5 -98.0 31.6 -97.8 Q29.65 -97.4 27.85 -96.0 25.8 -94.5 23.5 -94.5 L21.3 -94.8 21.25 -94.75 Q17.1 -90.0 11.0 -86.5 L10.1 -86.85 10.0 -86.75 Q8.85 -85.5 6.5 -85.5 L4.4 -85.7 Q4.05 -84.0 2.45 -83.2 L0.65 -82.65 Q-0.5 -81.1 -3.1 -79.0 L-3.45 -78.7 -3.6 -78.6 Q-7.35 -75.6 -12.5 -72.5 -12.7 -71.4 -12.55 -72.45 L-16.0 -70.5 Q-28.2 -63.8 -37.25 -61.6 L-21.5 -57.0 -2.5 -57.0 Q-15.5 -58.0 -15.5 -62.35 -15.5 -63.2 -11.4 -63.7 L-0.95 -64.7 Q16.85 -66.65 28.0 -72.25 L30.0 -73.25 27.8 -72.85 17.0 -71.5 12.75 -72.0 12.5 -74.6 Q12.5 -75.9 14.55 -77.3 16.25 -78.5 19.4 -79.75 27.15 -82.95 28.5 -85.0 L29.0 -85.5 28.45 -85.4 21.75 -85.0 21.75 -85.5 21.5 -88.0 Q21.5 -91.5 31.75 -97.25 M-5.1 -90.85 L-9.1 -94.75 Q-9.5 -93.9 -9.5 -93.1 -9.5 -91.9 -5.55 -90.35 L-3.75 -89.75 -5.1 -90.85 M-6.6 -83.55 Q-11.05 -85.5 -14.75 -91.0 -18.6 -87.35 -33.85 -81.0 -44.3 -76.6 -57.5 -71.5 -57.05 -70.5 -55.9 -69.45 L-54.15 -68.95 -54.05 -68.05 -50.8 -66.25 -45.6 -66.0 Q-35.05 -66.0 -20.25 -74.55 -16.4 -76.75 -6.6 -83.55" fill="#000000" fill-rule="evenodd" stroke="none"/>
      <path d="M21.75 -85.5 L21.75 -85.0 28.45 -85.4 29.0 -85.5 28.5 -85.0 Q27.15 -82.95 19.4 -79.75 16.25 -78.5 14.55 -77.3 12.5 -75.9 12.5 -74.6 L12.75 -72.0 17.0 -71.5 27.8 -72.85 28.0 -72.25 Q16.85 -66.65 -0.95 -64.7 L-11.4 -63.7 Q-15.5 -63.2 -15.5 -62.35 -15.5 -58.0 -2.5 -57.0 L-21.5 -57.0 -37.25 -61.6 Q-28.2 -63.8 -16.0 -70.5 L-12.55 -72.45 Q-12.7 -71.4 -12.5 -72.5 -7.35 -75.6 -3.6 -78.6 L-3.45 -78.7 -3.1 -79.0 Q-0.5 -81.1 0.65 -82.65 L2.45 -83.2 Q3.75 -82.0 9.85 -82.0 10.65 -82.0 21.75 -85.5 M-6.6 -83.55 Q-16.4 -76.75 -20.25 -74.55 -35.05 -66.0 -45.6 -66.0 L-50.8 -66.25 -54.05 -68.05 -54.15 -68.95 -55.9 -69.45 Q-57.05 -70.5 -57.5 -71.5 -44.3 -76.6 -33.85 -81.0 -18.6 -87.35 -14.75 -91.0 -11.05 -85.5 -6.6 -83.55" fill="#fff1dd" fill-rule="evenodd" stroke="none"/>
      <path d="M0.4 -118.4 L9.9 -130.45 Q16.0 -123.6 18.25 -117.45 20.25 -112.05 20.25 -103.25 20.25 -101.85 14.4 -95.65 L9.6 -90.75 -0.35 -96.65 Q-8.5 -101.25 -8.5 -102.85 -8.5 -107.15 0.4 -118.4 M-5.55 -90.35 Q-9.5 -91.9 -9.5 -93.1 -9.5 -93.9 -9.1 -94.75 L-5.1 -90.85 -5.55 -90.35" fill="#ffffff" fill-rule="evenodd" stroke="none"/>
      <path d="M30.45 -134.5 L30.5 -134.0 27.05 -125.25 Q25.5 -121.35 25.5 -118.6 L25.75 -116.0 28.5 -115.5 34.35 -118.9 Q39.8 -122.35 40.5 -122.5 37.6 -113.8 29.75 -106.25 L25.75 -103.0 25.5 -103.35 25.45 -108.25 Q25.25 -113.9 24.25 -118.55 22.5 -126.95 18.7 -130.6 20.85 -130.95 24.45 -132.45 29.2 -134.4 30.45 -134.5 M31.6 -97.8 L31.75 -97.25 Q21.5 -91.5 21.5 -88.0 L21.75 -85.5 Q10.65 -82.0 9.85 -82.0 3.75 -82.0 2.45 -83.2 4.05 -84.0 4.4 -85.7 L6.5 -85.5 Q8.85 -85.5 10.0 -86.75 L10.1 -86.85 11.0 -86.5 Q17.1 -90.0 21.25 -94.75 L21.3 -94.8 23.5 -94.5 Q25.8 -94.5 27.85 -96.0 29.65 -97.4 31.6 -97.8" fill="#fffbf7" fill-rule="evenodd" stroke="none"/>
    </g>
    <g id="shape3" transform="matrix(1, 0, 0, 1, 57.75, 239.75)">
      <path d="M66.55 -233.8 Q78.65 -239.75 82.0 -239.75 85.75 -239.75 85.75 -235.5 85.75 -234.15 69.45 -226.8 71.45 -220.65 70.6 -201.5 71.85 -173.25 66.85 -173.25 65.35 -173.25 64.8 -173.6 L63.35 -174.5 Q63.1 -183.5 63.1 -201.5 62.8 -208.75 63.1 -215.75 63.35 -221.1 63.95 -224.35 L59.0 -222.25 Q55.45 -222.25 54.5 -223.85 54.25 -224.3 54.25 -225.75 54.25 -227.75 66.55 -233.8 M-57.75 -234.75 Q-57.75 -238.75 -53.0 -238.75 -49.3 -238.75 -34.3 -231.75 -19.25 -224.75 -19.25 -223.0 -19.25 -221.05 -21.05 -220.0 -22.3 -219.25 -23.5 -219.25 L-24.55 -219.5 Q-23.65 -212.45 -24.25 -198.5 -23.0 -170.25 -28.0 -170.25 -29.5 -170.25 -30.05 -170.6 L-31.5 -171.5 -31.75 -198.5 Q-32.05 -205.75 -31.75 -212.75 -31.5 -218.65 -30.8 -222.05 L-41.3 -226.7 Q-57.75 -234.2 -57.75 -234.75" fill="#000000" fill-rule="evenodd" stroke="none"/>
    </g>
    <g id="shape4" transform="matrix(1, 0, 0, 1, 68.0, 329.65)">
      <path d="M25.55 -323.65 L25.55 -312.5 25.55 -323.65 Q38.45 -329.55 51.85 -318.5 66.3 -318.9 71.75 -310.0 85.8 -310.7 91.65 -301.0 L83.1 -283.0 Q17.35 -318.1 -58.3 -285.95 L-65.4 -299.8 Q-67.05 -312.55 -46.2 -312.5 -40.15 -322.7 -24.15 -321.05 -12.15 -328.6 -1.2 -323.05 10.85 -330.95 25.55 -323.65 M69.55 -302.2 L71.75 -310.0 69.55 -302.2 M1.2 -314.0 L-1.2 -323.05 1.2 -314.0 M-21.6 -310.5 L-24.15 -321.05 -21.6 -310.5 M-42.4 -304.5 L-46.2 -312.5 -42.4 -304.5 M49.2 -308.2 L51.85 -318.5 49.2 -308.2" fill="#ffffff" fill-rule="evenodd" stroke="none"/>
      <path d="M25.55 -312.5 L25.55 -323.65 Q10.85 -330.95 -1.2 -323.05 L1.2 -314.0 M71.75 -310.0 L69.55 -302.2 M25.55 -323.65 Q38.45 -329.55 51.85 -318.5 66.3 -318.9 71.75 -310.0 85.8 -310.7 91.65 -301.0 L83.1 -283.0 Q17.35 -318.1 -58.3 -285.95 L-65.4 -299.8 Q-67.05 -312.55 -46.2 -312.5 -40.15 -322.7 -24.15 -321.05 -12.15 -328.6 -1.2 -323.05 M51.85 -318.5 L49.2 -308.2 M-46.2 -312.5 L-42.4 -304.5 M-24.15 -321.05 L-21.6 -310.5" fill="none" stroke="#000000" stroke-linecap="round" stroke-linejoin="round" stroke-width="5.0"/>
    </g>
  </defs>
</svg>
