<?xml version="1.0" encoding="UTF-8" standalone="no"?>
<svg xmlns:xlink="http://www.w3.org/1999/xlink" height="720.75px" width="1716.8px" xmlns="http://www.w3.org/2000/svg">
  <g transform="matrix(1, 0, 0, 1, 307.05, 450.35)">
    <use height="337.3" transform="matrix(1.0, 0.0, 0.0, 1.0, -165.5, -178.2)" width="291.05" xlink:href="#sprite0"/>
  </g>
  <defs>
    <g id="sprite0" transform="matrix(1, 0, 0, 1, 145.55, 168.65)">
      <use height="337.3" transform="matrix(1.0, 0.0, 0.0, 1.0, -145.55, -168.65)" width="291.05" xlink:href="#shape0"/>
    </g>
    <g id="shape0" transform="matrix(1, 0, 0, 1, 145.55, 168.65)">
      <path d="M57.8 -114.3 Q55.4 -116.15 52.5 -117.6 L52.45 -117.65 52.4 -117.45 Q37.5 -100.8 33.5 -85.25 L29.45 -85.45 Q23.1 -85.3 20.5 -82.6 4.5 -108.9 -25.5 -118.65 L-25.55 -118.65 -25.55 -118.55 -26.5 -118.4 Q-27.85 -107.35 -27.95 -101.15 -28.1 -83.6 -18.9 -76.85 -40.85 -85.3 -47.2 -86.35 -41.55 -114.3 -35.55 -138.65 L-36.25 -138.2 Q-41.0 -130.45 -44.2 -122.75 L-97.5 -100.3 -89.2 -114.4 Q-58.2 -163.9 2.25 -162.5 23.25 -156.0 39.2 -136.7 L57.8 -114.3 M84.45 -81.9 Q84.7 -82.65 84.45 -83.2 78.25 -97.55 69.85 -109.8 L76.95 -107.75 109.35 -98.9 Q130.2 -93.05 135.25 -90.65 122.4 -79.05 93.25 -71.0 65.2 -63.2 28.75 -60.4 -8.45 -57.6 -44.9 -60.7 -83.95 -64.1 -114.25 -73.7 -84.1 -91.6 -50.25 -101.25 -51.6 -92.05 -50.6 -82.95 L-50.55 -82.95 Q14.05 -57.15 84.45 -81.9 M68.85 -82.3 Q68.9 -98.65 64.7 -106.35 75.25 -94.05 80.0 -86.45 79.95 -85.75 68.85 -82.3" fill="#373737" fill-rule="evenodd" stroke="none"/>
      <path d="M84.45 -81.9 Q14.05 -57.15 -50.55 -82.95 L-50.6 -82.95 Q-51.6 -92.05 -50.25 -101.25 -84.1 -91.6 -114.25 -73.7 -83.95 -64.1 -44.9 -60.7 -8.45 -57.6 28.75 -60.4 65.2 -63.2 93.25 -71.0 122.4 -79.05 135.25 -90.65 130.2 -93.05 109.35 -98.9 L76.95 -107.75 69.85 -109.8 Q78.25 -97.55 84.45 -83.2 84.7 -82.65 84.45 -81.9 M57.8 -114.3 L39.2 -136.7 Q23.25 -156.0 2.25 -162.5 -58.2 -163.9 -89.2 -114.4 L-97.5 -100.3 -44.2 -122.75 Q-41.0 -130.45 -36.25 -138.2 L-35.55 -138.65 Q-41.55 -114.3 -47.2 -86.35 -40.85 -85.3 -18.9 -76.85 -28.1 -83.6 -27.95 -101.15 -27.85 -107.35 -26.5 -118.4 L-25.55 -118.55 -25.55 -118.65 -25.5 -118.65 Q4.5 -108.9 20.5 -82.6 23.1 -85.3 29.45 -85.45 L33.5 -85.25 Q37.5 -100.8 52.4 -117.45 L52.45 -117.65 52.5 -117.6 Q55.4 -116.15 57.8 -114.3 M66.25 -81.5 L66.65 -81.65 65.95 -87.35 Q65.35 -92.85 61.6 -101.35 57.9 -109.9 52.95 -112.65 45.3 -97.45 35.75 -82.7 L35.75 -82.65 Q37.95 -79.8 37.4 -75.5 51.5 -76.9 66.25 -81.55 L66.2 -81.5 66.25 -81.5 M29.45 -80.65 Q22.95 -80.9 21.7 -74.5 L33.65 -75.15 Q34.95 -77.85 33.2 -79.25 31.4 -80.65 29.45 -80.65 M67.25 -84.8 L67.3 -84.8 67.25 -84.8 M68.85 -82.3 Q79.95 -85.75 80.0 -86.45 75.25 -94.05 64.7 -106.35 68.9 -98.65 68.85 -82.3 M109.0 -33.75 Q107.05 -40.15 113.75 -45.9 105.1 -55.65 95.75 -64.4 25.8 -45.15 -44.2 -53.5 L-55.75 -38.95 -56.4 -38.05 -48.4 -21.5 -48.35 -21.3 Q-38.5 -28.05 -25.3 -35.45 L-31.95 -30.55 Q-39.15 10.3 -45.6 39.2 -32.7 50.0 -17.2 58.2 L-17.3 58.6 Q-33.7 66.3 -50.15 59.0 L-52.35 68.0 Q-37.6 76.1 -21.05 77.7 L-21.05 78.1 Q-36.9 93.9 -58.55 91.75 L-59.95 96.8 Q-41.65 110.45 -18.55 112.95 -18.3 112.95 -18.05 113.35 -36.75 127.4 -58.5 125.15 -50.05 142.0 -27.0 150.25 -7.0 157.4 19.2 156.75 43.4 156.15 61.8 149.4 80.7 142.5 82.4 133.0 52.35 50.05 53.1 39.1 22.3 43.15 -6.15 28.55 -14.15 24.4 -14.55 17.35 10.0 41.05 48.15 34.75 86.25 28.45 96.45 11.35 69.8 -11.35 76.9 -39.55 L75.95 -39.9 77.0 -39.8 78.4 -44.45 78.45 -44.55 78.2 -39.65 Q94.0 -38.1 109.0 -33.75 M141.45 -93.55 L143.5 -92.15 Q132.8 -76.1 114.5 -70.05 106.4 -67.4 98.3 -65.1 127.05 -43.75 145.45 -14.25 L145.45 -13.65 Q111.8 -26.55 78.2 -39.05 78.2 -16.8 94.35 2.7 108.95 20.4 83.2 30.9 69.65 36.4 56.55 38.6 L60.4 51.3 Q74.9 65.55 81.75 86.15 L81.7 86.85 Q75.9 89.0 72.6 87.6 80.4 109.5 90.1 134.4 88.2 140.75 81.25 147.9 81.15 168.35 70.8 165.55 60.45 162.8 59.2 158.9 L53.25 160.1 Q23.15 165.2 -9.05 160.45 -22.8 178.85 -30.5 156.0 -55.9 145.45 -61.75 131.05 -79.9 126.9 -92.35 112.8 -104.8 98.65 -107.55 93.6 -105.15 91.7 -103.0 75.1 -123.7 66.55 -133.55 55.1 -143.45 43.65 -145.55 43.35 -142.05 24.65 -125.75 5.35 -122.7 1.75 -119.55 -0.65 -86.3 24.9 -68.3 62.2 -68.15 62.45 -68.3 62.85 -88.35 82.45 -66.8 105.65 L-64.3 108.6 -60.95 85.8 -60.95 85.85 Q-52.0 31.6 -34.1 -23.3 L-32.5 -30.1 Q-55.05 -12.55 -71.05 10.85 -82.45 -8.0 -67.6 -34.5 -60.65 -46.9 -50.1 -54.25 -83.95 -58.85 -117.8 -69.9 L-122.9 -72.5 Q-97.9 -94.35 -59.65 -103.3 L-54.55 -104.65 Q-51.65 -105.5 -49.75 -104.3 -48.55 -111.0 -46.15 -117.75 -49.65 -115.8 -55.0 -113.1 -93.55 -93.75 -102.8 -93.9 L-101.95 -97.35 -101.05 -100.5 -101.1 -100.55 -101.05 -100.55 Q-90.8 -135.3 -59.35 -153.6 -38.8 -165.5 -15.55 -168.65 L6.25 -166.7 Q12.6 -165.75 29.2 -155.9 45.75 -146.1 67.5 -113.15 115.2 -107.05 141.45 -93.55 M112.55 -32.7 Q121.25 -30.05 129.7 -26.4 122.95 -35.4 115.65 -43.75 116.9 -38.6 112.55 -32.7 M45.45 -0.65 Q48.5 -1.5 50.4 0.65 L50.95 1.35 Q46.25 8.85 38.15 3.1 L37.95 2.6 Q40.25 -1.0 45.45 -0.65 M74.7 81.1 Q68.9 73.0 64.95 65.35 L70.65 82.1 Q73.75 81.9 74.7 81.1 M78.95 150.05 Q73.15 154.8 63.8 157.65 65.35 160.9 70.65 161.15 76.0 161.45 78.95 150.05 M-22.45 -114.1 Q-24.3 -100.7 -21.7 -91.75 -19.1 -82.8 -16.15 -76.45 1.65 -74.05 19.6 -74.45 17.85 -78.55 19.55 -81.35 -3.55 -101.0 -18.2 -111.15 L-22.45 -114.1 M-82.05 90.4 Q-83.65 80.6 -79.25 68.1 -77.45 63.0 -74.05 58.85 -91.0 32.05 -114.65 9.2 -116.35 7.55 -118.55 7.1 -129.25 21.6 -135.3 38.2 -136.3 41.0 -137.65 43.5 -124.15 58.25 -100.95 67.05 -95.05 69.3 -96.4 78.25 -97.55 85.9 -101.55 92.35 L-98.3 96.85 -95.55 100.3 Q-86.9 110.8 -77.65 116.1 -65.25 123.25 -65.15 123.4 L-65.1 123.4 -65.1 123.35 -65.15 123.25 -64.0 124.25 -63.6 125.0 Q-64.85 122.6 -64.55 119.75 -64.3 116.8 -64.8 112.9 -78.5 105.25 -81.6 92.75 L-82.05 90.4 M-49.8 57.6 Q-42.55 51.9 -34.55 54.2 -43.05 50.55 -46.6 43.8 L-49.8 57.6 M-14.55 55.35 Q-13.55 70.4 -11.45 91.05 L-11.3 92.1 Q-5.65 76.5 3.45 64.35 3.0 79.75 -7.95 97.15 -10.8 101.65 -15.8 98.1 -21.75 74.25 -15.15 55.75 -15.05 55.45 -14.55 55.35 M-57.9 89.2 Q-46.4 86.35 -34.55 81.5 L-32.55 80.6 Q-42.95 79.95 -53.1 70.85 L-57.9 89.2 M-61.55 102.5 Q-62.0 108.3 -61.45 113.55 L-61.3 113.85 -61.4 113.8 Q-60.85 118.4 -59.45 122.55 -46.55 120.35 -33.05 115.85 -47.75 112.4 -60.7 99.6 L-61.55 102.5 M-13.35 159.55 L-24.75 156.7 -25.9 156.4 Q-25.0 160.6 -23.6 162.85 -19.85 168.15 -13.35 159.55 M-48.85 -21.0 Q-58.4 -24.6 -60.45 -31.95 -67.35 -20.0 -68.05 -5.4 -61.0 -12.65 -48.85 -21.0" fill="#000000" fill-rule="evenodd" stroke="none"/>
      <path d="M66.25 -81.55 Q51.5 -76.9 37.4 -75.5 37.95 -79.8 35.75 -82.65 L35.75 -82.7 Q45.3 -97.45 52.95 -112.65 57.9 -109.9 61.6 -101.35 65.35 -92.85 65.95 -87.35 L66.65 -81.65 66.25 -81.5 66.25 -81.55 M29.45 -80.65 Q31.4 -80.65 33.2 -79.25 34.95 -77.85 33.65 -75.15 L21.7 -74.5 Q22.95 -80.9 29.45 -80.65 M-22.45 -114.1 L-18.2 -111.15 Q-3.55 -101.0 19.55 -81.35 17.85 -78.55 19.6 -74.45 1.65 -74.05 -16.15 -76.45 -19.1 -82.8 -21.7 -91.75 -24.3 -100.7 -22.45 -114.1" fill="#ffffff" fill-rule="evenodd" stroke="none"/>
      <path d="M109.0 -33.75 Q94.0 -38.1 78.2 -39.65 L78.45 -44.55 78.4 -44.45 77.0 -39.8 75.95 -39.9 76.9 -39.55 Q69.8 -11.35 96.45 11.35 86.25 28.45 48.15 34.75 10.0 41.05 -14.55 17.35 -14.15 24.4 -6.15 28.55 22.3 43.15 53.1 39.1 52.35 50.05 82.4 133.0 80.7 142.5 61.8 149.4 43.4 156.15 19.2 156.75 -7.0 157.4 -27.0 150.25 -50.05 142.0 -58.5 125.15 -36.75 127.4 -18.05 113.35 -18.3 112.95 -18.55 112.95 -41.65 110.45 -59.95 96.8 L-58.55 91.75 Q-36.9 93.9 -21.05 78.1 L-21.05 77.7 Q-37.6 76.1 -52.35 68.0 L-50.15 59.0 Q-33.7 66.3 -17.3 58.6 L-17.2 58.2 Q-32.7 50.0 -45.6 39.2 -39.15 10.3 -31.95 -30.55 L-25.3 -35.45 Q-38.5 -28.05 -48.35 -21.3 L-48.4 -21.5 -56.4 -38.05 -55.75 -38.95 -44.2 -53.5 Q25.8 -45.15 95.75 -64.4 105.1 -55.65 113.75 -45.9 107.05 -40.15 109.0 -33.75 M83.65 4.35 Q80.1 4.35 77.6 6.25 75.05 8.1 75.05 10.75 75.05 13.4 77.6 15.3 80.1 17.15 83.65 17.15 87.2 17.15 89.75 15.3 92.25 13.4 92.25 10.75 92.25 8.1 89.75 6.25 87.2 4.35 83.65 4.35 M78.95 150.05 Q76.0 161.45 70.65 161.15 65.35 160.9 63.8 157.65 73.15 154.8 78.95 150.05 M74.7 81.1 Q73.75 81.9 70.65 82.1 L64.95 65.35 Q68.9 73.0 74.7 81.1 M45.45 -0.65 Q40.25 -1.0 37.95 2.6 L38.15 3.1 Q46.25 8.85 50.95 1.35 L50.4 0.65 Q48.5 -1.5 45.45 -0.65 M-98.3 96.85 L-101.55 92.35 Q-97.55 85.9 -96.4 78.25 -95.05 69.3 -100.95 67.05 -124.15 58.25 -137.65 43.5 -136.3 41.0 -135.3 38.2 -129.25 21.6 -118.55 7.1 -116.35 7.55 -114.65 9.2 -91.0 32.05 -74.05 58.85 -77.45 63.0 -79.25 68.1 -83.65 80.6 -82.05 90.4 -84.65 87.6 -88.5 87.35 -90.35 87.45 -90.75 89.4 L-84.8 103.65 Q-97.05 86.45 -97.55 88.2 -98.95 93.1 -98.3 96.85 M0.25 4.3 Q-3.55 4.3 -6.2 6.45 -8.9 8.6 -8.9 11.6 -8.9 14.6 -6.2 16.75 -3.55 18.9 0.25 18.9 4.05 18.9 6.75 16.75 9.4 14.6 9.4 11.6 9.4 8.6 6.75 6.45 4.05 4.3 0.25 4.3 M-14.55 55.35 Q-15.05 55.45 -15.15 55.75 -21.75 74.25 -15.8 98.1 -10.8 101.65 -7.95 97.15 3.0 79.75 3.45 64.35 -5.65 76.5 -11.3 92.1 L-11.45 91.05 Q-13.55 70.4 -14.55 55.35 M-13.35 159.55 Q-19.85 168.15 -23.6 162.85 -25.0 160.6 -25.9 156.4 L-24.75 156.7 -13.35 159.55" fill="#ffde31" fill-rule="evenodd" stroke="none"/>
      <path d="M112.55 -32.7 Q116.9 -38.6 115.65 -43.75 122.95 -35.4 129.7 -26.4 121.25 -30.05 112.55 -32.7 M-48.85 -21.0 Q-61.0 -12.65 -68.05 -5.4 -67.35 -20.0 -60.45 -31.95 -58.4 -24.6 -48.85 -21.0" fill="#444444" fill-rule="evenodd" stroke="none"/>
      <path d="M83.65 4.35 Q87.2 4.35 89.75 6.25 92.25 8.1 92.25 10.75 92.25 13.4 89.75 15.3 87.2 17.15 83.65 17.15 80.1 17.15 77.6 15.3 75.05 13.4 75.05 10.75 75.05 8.1 77.6 6.25 80.1 4.35 83.65 4.35 M0.25 4.3 Q4.05 4.3 6.75 6.45 9.4 8.6 9.4 11.6 9.4 14.6 6.75 16.75 4.05 18.9 0.25 18.9 -3.55 18.9 -6.2 16.75 -8.9 14.6 -8.9 11.6 -8.9 8.6 -6.2 6.45 -3.55 4.3 0.25 4.3" fill="#ff2222" fill-rule="evenodd" stroke="none"/>
      <path d="M-98.3 96.85 Q-98.95 93.1 -97.55 88.2 -97.05 86.45 -84.8 103.65 L-90.75 89.4 Q-90.35 87.45 -88.5 87.35 -84.65 87.6 -82.05 90.4 L-81.6 92.75 Q-78.5 105.25 -64.8 112.9 -64.3 116.8 -64.55 119.75 -64.85 122.6 -63.6 125.0 L-64.0 124.25 -65.15 123.25 -65.1 123.35 -65.15 123.4 Q-65.25 123.25 -77.65 116.1 -86.9 110.8 -95.55 100.3 L-98.3 96.85 M-49.8 57.6 L-46.6 43.8 Q-43.05 50.55 -34.55 54.2 -42.55 51.9 -49.8 57.6 M-61.55 102.5 L-60.7 99.6 Q-47.75 112.4 -33.05 115.85 -46.55 120.35 -59.45 122.55 -60.85 118.4 -61.4 113.8 L-61.3 113.85 -61.45 113.55 Q-62.0 108.3 -61.55 102.5 M-57.9 89.2 L-53.1 70.85 Q-42.95 79.95 -32.55 80.6 L-34.55 81.5 Q-46.4 86.35 -57.9 89.2" fill="#942118" fill-rule="evenodd" stroke="none"/>
      <path d="M75.4 -25.3 Q78.55 -25.3 80.8 -23.05 83.05 -20.85 83.05 -17.7 83.05 -14.55 80.8 -12.3 78.55 -10.1 75.4 -10.1 72.25 -10.1 70.0 -12.3 67.75 -14.55 67.75 -17.7 67.75 -20.85 70.0 -23.05 72.25 -25.3 75.4 -25.3" fill="#000000" fill-rule="evenodd" stroke="none"/>
      <path d="M10.05 -14.7 Q10.05 -11.55 7.8 -9.3 5.55 -7.1 2.4 -7.1 -0.75 -7.1 -3.0 -9.3 -5.25 -11.55 -5.25 -14.7 -5.25 -17.85 -3.0 -20.05 -0.75 -22.3 2.4 -22.3 5.55 -22.3 7.8 -20.05 10.05 -17.85 10.05 -14.7" fill="#000000" fill-rule="evenodd" stroke="none"/>
    </g>
  </defs>
</svg>
