<?xml version="1.0" encoding="UTF-8" standalone="no"?>
<svg xmlns:xlink="http://www.w3.org/1999/xlink" height="720.75px" width="1716.8px" xmlns="http://www.w3.org/2000/svg">
  <g transform="matrix(1, 0, 0, 1, 307.05, 450.35)">
    <use height="280.9" transform="matrix(1.0, 0.0, 0.0, 1.0, -89.4, -140.45)" width="178.85" xlink:href="#sprite0"/>
  </g>
  <defs>
    <g id="sprite0" transform="matrix(1, 0, 0, 1, 93.65, 148.65)">
      <use height="280.9" transform="matrix(1.0, 0.0, 0.0, 1.0, -93.65, -148.65)" width="178.85" xlink:href="#shape0"/>
    </g>
    <g id="shape0" transform="matrix(1, 0, 0, 1, 93.65, 148.65)">
      <path d="M-92.15 -117.0 L-92.15 -117.05 -92.15 -117.1 Q-91.6 -129.45 -66.4 -138.25 -40.65 -147.15 -4.2 -147.15 32.2 -147.15 57.95 -138.25 83.15 -129.45 83.7 -117.1 L83.7 -117.05 83.7 -117.0 Q81.2 -104.75 63.55 -97.1 L58.2 -95.05 57.95 -95.0 Q32.2 -86.05 -4.2 -86.05 -40.65 -86.05 -66.4 -95.0 L-66.65 -95.05 -72.0 -97.1 Q-89.65 -104.75 -92.15 -117.0 M44.95 -102.95 L49.0 -104.35 Q62.25 -109.75 64.15 -118.4 L64.15 -118.45 Q63.75 -127.2 44.75 -133.4 25.35 -139.7 -2.0 -139.7 -29.4 -139.7 -48.8 -133.4 -67.8 -127.2 -68.2 -118.45 L-68.2 -118.4 Q-66.3 -109.75 -53.0 -104.35 L-49.0 -102.95 -48.8 -102.85 Q-29.4 -96.55 -2.0 -96.55 25.35 -96.55 44.75 -102.85 L44.95 -102.95" fill="#efb07d" fill-rule="evenodd" stroke="none"/>
      <path d="M41.2 -0.65 Q35.15 5.6 28.2 11.45 16.05 15.1 3.9 16.15 L-4.2 16.45 -12.3 16.15 Q-24.5 15.1 -36.65 11.45 -44.0 5.35 -50.25 -1.25 -32.5 2.35 -14.75 3.4 L-2.9 3.7 8.95 3.4 Q25.05 2.45 41.2 -0.65" fill="#f0b887" fill-rule="evenodd" stroke="none"/>
      <path d="M83.4 -113.8 L81.35 -96.95 Q78.7 -95.8 76.55 -91.7 74.95 -88.65 73.6 -83.9 68.1 -85.3 63.45 -84.7 55.5 -83.75 49.85 -77.15 L46.95 -73.15 Q37.0 -77.35 28.7 -76.5 20.8 -75.75 14.35 -70.4 5.25 -75.2 -4.2 -74.2 -12.25 -73.35 -20.55 -68.35 L-22.8 -70.4 -25.4 -68.9 Q-31.35 -74.0 -37.15 -76.5 -48.05 -81.35 -58.3 -77.15 L-62.55 -75.0 Q-67.15 -80.85 -71.9 -84.7 -78.3 -89.95 -85.0 -91.7 L-89.1 -92.45 -89.8 -96.95 -91.85 -113.8 Q-89.6 -104.35 -72.0 -97.1 L-66.65 -95.05 -66.4 -95.0 Q-40.65 -86.05 -4.2 -86.05 32.2 -86.05 57.95 -95.0 L58.2 -95.05 63.55 -97.1 Q81.15 -104.35 83.4 -113.8" fill="#e0ae8d" fill-rule="evenodd" stroke="none"/>
      <path d="M81.35 -96.95 L80.7 -92.45 79.8 -87.05 Q72.65 -44.3 58.7 -22.6 51.25 -11.05 41.2 -0.65 25.05 2.45 8.95 3.4 L-2.9 3.7 -14.75 3.4 Q-32.5 2.35 -50.25 -1.25 -59.9 -11.4 -67.15 -22.6 -81.15 -44.3 -88.25 -87.05 L-89.1 -92.45 -85.0 -91.7 Q-78.3 -89.95 -71.9 -84.7 -67.15 -80.85 -62.55 -75.0 L-58.3 -77.15 Q-48.05 -81.35 -37.15 -76.5 -31.35 -74.0 -25.4 -68.9 L-22.8 -70.4 -20.55 -68.35 Q-12.25 -73.35 -4.2 -74.2 5.25 -75.2 14.35 -70.4 20.8 -75.75 28.7 -76.5 37.0 -77.35 46.95 -73.15 L49.85 -77.15 Q55.5 -83.75 63.45 -84.7 68.1 -85.3 73.6 -83.9 74.95 -88.65 76.55 -91.7 78.7 -95.8 81.35 -96.95" fill="#d39a9a" fill-rule="evenodd" stroke="none"/>
      <path d="M28.2 11.9 Q25.95 66.45 40.35 99.15 36.8 103.05 30.45 105.85 19.75 110.5 5.65 111.6 L-5.05 112.0 -14.1 111.6 Q-28.2 110.55 -38.85 105.85 -45.25 103.05 -48.75 99.15 -34.45 66.45 -36.65 11.9 -24.5 15.4 -12.3 16.15 L-4.2 16.45 3.9 16.15 Q16.05 15.4 28.2 11.9" fill="#b65a5a" fill-rule="evenodd" stroke="none"/>
      <path d="M40.35 99.15 L42.15 103.05 Q43.4 104.8 44.0 106.7 44.4 108.0 44.45 109.4 L44.45 109.45 Q42.9 119.1 30.45 124.6 19.75 129.25 5.65 130.35 L-5.05 130.75 -14.1 130.35 Q-28.2 129.3 -38.85 124.6 -51.35 119.1 -52.9 109.45 L-52.9 109.4 Q-52.9 108.0 -52.45 106.7 -51.9 104.8 -50.6 103.05 L-48.75 99.15 Q-45.25 103.05 -38.85 105.85 -28.2 110.55 -14.1 111.6 L-5.05 112.0 5.65 111.6 Q19.75 110.5 30.45 105.85 36.8 103.05 40.35 99.15" fill="#994444" fill-rule="evenodd" stroke="none"/>
      <path d="M44.95 -102.95 L44.75 -102.85 Q25.35 -96.55 -2.0 -96.55 -29.4 -96.55 -48.8 -102.85 L-49.0 -102.95 -53.0 -104.35 Q-66.3 -109.75 -68.2 -118.4 L-68.2 -118.45 Q-67.8 -127.2 -48.8 -133.4 -29.4 -139.7 -2.0 -139.7 25.35 -139.7 44.75 -133.4 63.75 -127.2 64.15 -118.45 L64.15 -118.4 Q62.25 -109.75 49.0 -104.35 L44.95 -102.95" fill="#f2be9d" fill-rule="evenodd" stroke="none"/>
      <path d="M-92.15 -117.0 L-92.15 -117.05 -92.15 -117.1 Q-91.6 -129.45 -66.4 -138.25 -40.65 -147.15 -4.2 -147.15 32.2 -147.15 57.95 -138.25 83.15 -129.45 83.7 -117.1 L83.7 -117.05 83.7 -117.0 83.7 -116.95 83.7 -116.6 83.4 -113.8 81.35 -96.95 80.7 -92.45 79.8 -87.05 Q72.65 -44.3 58.7 -22.6 51.25 -11.05 41.2 -0.65 35.15 5.6 28.2 11.45 M44.0 106.7 Q44.4 108.0 44.45 109.4 L44.45 109.45 Q42.9 119.1 30.45 124.6 19.75 129.25 5.65 130.35 L-5.05 130.75 -14.1 130.35 Q-28.2 129.3 -38.85 124.6 -51.35 119.1 -52.9 109.45 L-52.9 109.4 Q-52.9 108.0 -52.45 106.7 M-36.65 11.45 Q-44.0 5.35 -50.25 -1.25 -59.9 -11.4 -67.15 -22.6 -81.15 -44.3 -88.25 -87.05 L-89.1 -92.45 -89.8 -96.95 -91.85 -113.8 -92.15 -116.6 -92.15 -116.95 -92.15 -117.0 Q-89.65 -104.75 -72.0 -97.1 L-66.65 -95.05 -66.4 -95.0 Q-40.65 -86.05 -4.2 -86.05 32.2 -86.05 57.95 -95.0 L58.2 -95.05 63.55 -97.1 Q81.2 -104.75 83.7 -117.0 M83.4 -113.8 L83.7 -116.6 83.7 -116.95 M81.35 -96.95 Q78.7 -95.8 76.55 -91.7 74.95 -88.65 73.6 -83.9 68.1 -85.3 63.45 -84.7 55.5 -83.75 49.85 -77.15 L46.95 -73.15 Q37.0 -77.35 28.7 -76.5 20.8 -75.75 14.35 -70.4 5.25 -75.2 -4.2 -74.2 -12.25 -73.35 -20.55 -68.35 L-22.8 -70.4 -25.4 -68.9 Q-31.35 -74.0 -37.15 -76.5 -48.05 -81.35 -58.3 -77.15 L-62.55 -75.0 Q-67.15 -80.85 -71.9 -84.7 -78.3 -89.95 -85.0 -91.7 L-89.1 -92.45 M63.55 -97.1 Q81.15 -104.35 83.4 -113.8 M3.9 16.15 L-4.2 16.45 -12.3 16.15 M3.9 16.15 Q16.05 15.1 28.2 11.45 M40.35 99.15 Q36.8 103.05 30.45 105.85 19.75 110.5 5.65 111.6 L-5.05 112.0 -14.1 111.6 Q-28.2 110.55 -38.85 105.85 -45.25 103.05 -48.75 99.15 M41.2 -0.65 Q25.05 2.45 8.95 3.4 L-2.9 3.7 -14.75 3.4 Q-32.5 2.35 -50.25 -1.25 M-92.15 -116.95 L-92.1 -116.6 -91.85 -113.8 Q-89.6 -104.35 -72.0 -97.1 M-36.65 11.45 Q-24.5 15.1 -12.3 16.15" fill="none" stroke="#000000" stroke-linecap="round" stroke-linejoin="round" stroke-width="3.0"/>
      <path d="M28.2 11.45 L28.2 11.9 Q25.95 66.45 40.35 99.15 L42.15 103.05 Q43.4 104.8 44.0 106.7 M-52.45 106.7 Q-51.9 104.8 -50.6 103.05 L-48.75 99.15 Q-34.45 66.45 -36.65 11.9 L-36.65 11.45 M28.2 11.9 Q16.05 15.4 3.9 16.15 M-12.3 16.15 Q-24.5 15.4 -36.65 11.9" fill="none" stroke="#000000" stroke-linecap="round" stroke-linejoin="round" stroke-width="3.0"/>
      <path d="M48.3 -77.05 L48.8 -73.5 Q53.35 -46.55 49.4 -26.2 60.65 -46.65 70.9 -86.4 L74.4 -86.4 Q61.65 -34.9 45.95 -13.9 L45.5 -12.65 Q42.6 -5.35 38.4 0.9 L37.2 1.7 35.8 1.4 Q35.15 0.95 35.0 0.2 34.85 -0.6 35.3 -1.2 39.3 -7.1 42.0 -14.0 L42.5 -15.25 42.55 -15.45 42.55 -15.5 Q49.6 -35.15 46.5 -62.8 37.75 -25.55 27.0 3.8 L22.95 3.8 Q20.55 -27.85 12.75 -58.6 8.15 -24.55 -1.2 5.65 L-6.95 5.65 -22.65 -51.65 Q-26.0 -34.0 -27.8 4.15 L-31.55 4.15 Q-29.35 -42.95 -24.75 -59.3 L-27.1 -72.15 -23.15 -71.4 -21.0 -59.8 -20.95 -59.75 -20.95 -59.7 -20.95 -59.65 -4.05 2.1 Q5.95 -30.95 8.25 -52.95 L10.1 -73.85 14.25 -73.85 Q13.8 -69.1 13.9 -68.85 22.8 -37.2 26.0 -4.6 36.55 -35.05 45.15 -73.6 L44.95 -76.1 48.3 -77.05 M-84.7 -94.15 L-84.3 -92.5 -83.95 -91.45 Q-70.2 -50.4 -61.5 -14.45 L-63.9 -17.8 Q-77.8 -53.55 -87.9 -91.4 L-87.9 -91.45 -89.4 -94.15 -84.7 -94.15 M-62.2 -76.85 L-62.05 -77.15 Q-61.7 -77.8 -60.9 -78.0 L-59.5 -77.85 Q-58.85 -77.45 -58.6 -76.7 L-37.1 2.65 -40.7 2.65 -59.05 -63.95 Q-54.05 -31.45 -44.3 1.35 -45.1 2.45 -48.5 -0.35 L-53.6 -16.35 Q-59.1 -34.45 -64.4 -74.75 -64.5 -75.55 -64.0 -76.15 -63.55 -76.8 -62.8 -76.85 L-62.2 -76.85" fill="#f0b887" fill-rule="evenodd" stroke="none"/>
      <path d="M70.9 -86.4 Q60.65 -46.65 49.4 -26.2 53.35 -46.55 48.8 -73.5 L48.3 -77.05 M44.95 -76.1 L45.15 -73.6 Q36.55 -35.05 26.0 -4.6 22.8 -37.2 13.9 -68.85 13.8 -69.1 14.25 -73.85 M10.1 -73.85 L8.25 -52.95 Q5.95 -30.95 -4.05 2.1 L-20.95 -59.65 -20.95 -59.7 -20.95 -59.75 -21.0 -59.8 -23.15 -71.4 M-27.1 -72.15 L-24.75 -59.3 Q-29.35 -42.95 -31.55 4.15 M-27.8 4.15 Q-26.0 -34.0 -22.65 -51.65 L-6.95 5.65 M-1.2 5.65 Q8.15 -24.55 12.75 -58.6 20.55 -27.85 22.95 3.8 M27.0 3.8 Q37.75 -25.55 46.5 -62.8 49.6 -35.15 42.55 -15.5 L42.55 -15.45 42.5 -15.25 42.0 -14.0 Q39.3 -7.1 35.3 -1.2 34.85 -0.6 35.0 0.2 35.15 0.95 35.8 1.4 L37.2 1.7 38.4 0.9 Q42.6 -5.35 45.5 -12.65 L45.95 -13.9 Q61.65 -34.9 74.4 -86.4 M-61.5 -14.45 Q-70.2 -50.4 -83.95 -91.45 L-84.3 -92.5 -84.7 -94.15 M-89.4 -94.15 L-87.9 -91.45 -87.9 -91.4 Q-77.8 -53.55 -63.9 -17.8 M-62.2 -76.85 L-62.8 -76.85 Q-63.55 -76.8 -64.0 -76.15 -64.5 -75.55 -64.4 -74.75 -59.1 -34.45 -53.6 -16.35 L-48.5 -0.35 M-44.3 1.35 Q-54.05 -31.45 -59.05 -63.95 L-40.7 2.65 M-37.1 2.65 L-58.6 -76.7" fill="none" stroke="#000000" stroke-linecap="round" stroke-linejoin="round" stroke-width="2.0"/>
    </g>
  </defs>
</svg>
