<?xml version="1.0" encoding="UTF-8" standalone="no"?>
<svg xmlns:xlink="http://www.w3.org/1999/xlink" height="720.75px" width="1716.8px" xmlns="http://www.w3.org/2000/svg">
  <g transform="matrix(1, 0, 0, 1, 307.05, 450.35)">
    <use height="55.05" transform="matrix(1.0, 0.0, 0.0, 1.0, -27.5, -27.5)" width="55.0" xlink:href="#shape0"/>
  </g>
  <defs>
    <g id="shape0" transform="matrix(1, 0, 0, 1, 27.5, 27.5)">
      <path d="M1.15 -19.55 L6.1 -5.55 20.8 -5.15 9.2 3.9 13.25 18.15 1.15 9.75 -11.0 18.15 -6.95 3.9 -18.65 -5.15 -3.85 -5.55 1.15 -19.55" fill="#ffffff" fill-rule="evenodd" stroke="none"/>
      <path d="M1.15 -19.55 L-3.85 -5.55 -18.65 -5.15 -6.95 3.9 -11.0 18.15 1.15 9.75 13.25 18.15 9.2 3.9 20.8 -5.15 6.1 -5.55 1.15 -19.55 M-18.45 -18.4 Q-10.9 -26.0 0.0 -26.0 10.9 -26.0 18.5 -18.4 26.05 -10.85 26.0 0.05 26.05 10.9 18.5 18.5 10.9 26.05 0.0 26.05 -10.9 26.05 -18.45 18.5 -26.05 10.9 -26.0 0.05 -26.05 -10.85 -18.45 -18.4" fill="url(#gradient0)" fill-rule="evenodd" stroke="none"/>
      <path d="M-18.45 -18.4 Q-26.05 -10.85 -26.0 0.05 -26.05 10.9 -18.45 18.5 -10.9 26.05 0.0 26.05 10.9 26.05 18.5 18.5 26.05 10.9 26.0 0.05 26.05 -10.85 18.5 -18.4 10.9 -26.0 0.0 -26.0 -10.9 -26.0 -18.45 -18.4" fill="none" stroke="#000000" stroke-linecap="round" stroke-linejoin="round" stroke-width="3.0"/>
    </g>
    <radialGradient cx="0" cy="0" gradientTransform="matrix(0.032, 0.0, 0.0, 0.032, 0.0, 0.0)" gradientUnits="userSpaceOnUse" id="gradient0" r="819.2" spreadMethod="pad">
      <stop offset="0.0" stop-color="#cce2f7"/>
      <stop offset="1.0" stop-color="#7bb4ea"/>
    </radialGradient>
  </defs>
</svg>
