<?xml version="1.0" encoding="UTF-8" standalone="no"?>
<svg xmlns:xlink="http://www.w3.org/1999/xlink" height="720.75px" width="1716.8px" xmlns="http://www.w3.org/2000/svg">
  <g transform="matrix(1, 0, 0, 1, 307.05, 450.35)">
    <use height="302.1" transform="matrix(1.0, 0.0, 0.0, 1.0, -204.25, -151.05)" width="408.55" xlink:href="#shape0"/>
  </g>
  <defs>
    <g id="shape0" transform="matrix(1, 0, 0, 1, 204.25, 151.05)">
      <path d="M129.95 -12.75 Q119.5 -30.45 76.2 -36.25 61.75 -38.2 45.2 -38.55 34.85 -38.8 29.8 -38.45 20.75 -37.9 9.15 -39.0 L7.35 -39.2 4.3 -39.55 Q-6.65 -40.9 -16.75 -43.45 L-22.45 -45.0 -23.7 -45.4 Q-63.85 -57.8 -78.3 -86.7 -82.9 -95.85 -85.3 -103.7 -87.65 -111.55 -88.25 -112.7 -96.95 -130.15 -117.15 -130.8 -123.2 -131.05 -133.0 -129.6 L-145.6 -128.15 Q-164.75 -128.25 -169.55 -127.95 -176.6 -127.6 -182.55 -126.45 -173.35 -122.75 -170.3 -116.65 -168.6 -113.25 -167.25 -105.75 L-164.45 -89.55 Q-159.4 -64.1 -146.65 -38.6 -129.1 -3.5 -67.85 8.85 -48.05 12.85 -22.75 14.55 L6.55 16.1 10.1 16.4 15.4 16.75 23.8 17.4 26.55 17.65 Q35.5 18.4 42.35 19.65 L48.65 20.95 Q67.2 25.35 82.35 35.45 94.3 43.35 100.85 51.7 107.35 60.05 113.45 75.85 L115.6 81.3 117.8 86.3 Q121.65 95.0 125.55 101.05 L126.95 103.0 Q128.65 105.2 130.95 107.15 136.85 112.2 146.65 115.5 152.75 117.55 168.85 122.15 L166.55 119.75 Q161.8 113.9 153.85 98.5 L151.9 94.75 150.45 91.85 Q146.8 84.6 144.0 77.05 L142.2 72.0 Q135.05 50.7 133.8 26.7 L133.75 23.65 133.65 19.3 Q134.75 18.75 133.6 16.45 L133.55 16.4 133.55 16.35 133.25 3.65 Q133.0 -2.25 132.25 -6.2 131.65 -9.4 130.7 -11.3 L129.95 -12.75 M35.6 -43.6 L55.0 -43.55 Q71.7 -43.25 84.7 -41.35 124.8 -35.45 135.75 -13.55 L135.9 -13.25 136.6 -11.55 Q137.55 -9.05 138.1 -5.8 138.8 -1.95 138.95 3.0 L139.05 17.0 139.0 22.35 138.95 25.1 139.0 25.3 139.0 25.45 139.0 25.8 146.9 69.9 147.4 71.3 149.25 76.3 149.9 77.95 155.1 89.4 155.95 91.15 157.95 95.05 Q166.35 111.55 170.15 116.7 L172.85 119.9 Q174.45 117.5 175.4 115.05 176.95 109.8 178.0 107.6 179.75 103.95 184.15 101.8 186.35 100.7 193.45 103.6 201.45 106.85 204.05 111.95 205.55 115.0 197.25 119.3 192.8 121.6 184.8 124.9 183.95 125.3 183.15 126.2 L183.25 126.25 183.35 127.15 Q187.0 129.3 189.7 134.65 192.65 140.6 192.55 142.7 192.5 143.25 191.6 143.7 189.7 144.65 185.95 140.55 L179.4 133.35 Q178.6 135.55 177.9 138.35 174.95 149.8 172.85 150.85 170.75 151.9 162.9 147.6 154.9 143.2 153.1 139.65 L152.35 136.95 Q160.95 132.1 166.5 127.1 157.7 124.55 144.05 119.85 132.05 115.05 124.45 107.1 L121.3 103.45 119.85 101.4 Q116.95 97.1 113.95 90.55 L111.65 85.25 110.5 82.45 Q104.4 66.85 99.85 59.8 91.6 47.25 77.35 38.8 59.0 27.95 37.7 24.15 L19.3 21.95 1.3 20.7 Q-74.8 19.0 -97.55 8.2 -120.35 -2.65 -132.25 -12.3 -144.2 -22.0 -151.35 -36.25 -163.75 -61.05 -168.6 -86.05 L-171.25 -102.0 Q-172.5 -109.3 -174.1 -112.5 -177.65 -119.6 -185.4 -122.65 -185.5 -117.35 -182.3 -110.95 L-178.35 -103.65 Q-176.9 -100.55 -178.35 -99.8 L-189.6 -100.4 Q-200.4 -101.85 -204.25 -104.15 -203.35 -106.9 -200.1 -109.95 -196.8 -113.05 -195.65 -116.55 -194.4 -120.2 -194.05 -123.95 L-195.0 -124.6 -201.7 -124.8 -202.8 -125.9 Q-201.9 -129.15 -200.8 -129.7 L-195.6 -129.85 -194.05 -129.65 Q-194.45 -134.7 -196.4 -140.0 L-199.2 -147.15 Q-200.25 -150.1 -198.8 -150.8 -196.45 -152.0 -186.55 -147.95 L-177.15 -143.75 Q-176.1 -141.65 -178.85 -136.85 -180.2 -134.55 -182.55 -131.35 L-165.75 -132.45 -142.15 -132.95 -130.25 -134.05 Q-120.9 -134.8 -113.9 -134.45 -92.7 -133.35 -87.25 -122.45 -84.5 -117.0 -81.75 -108.35 -79.0 -99.75 -73.75 -89.25 -64.85 -71.45 -38.9 -57.95 -28.4 -52.5 -9.05 -45.85 0.0 -42.65 14.0 -42.9 L35.6 -43.6 M196.45 112.4 Q194.9 109.35 190.75 107.7 187.35 106.3 186.6 106.7 185.85 107.05 182.5 113.9 179.25 120.45 178.9 122.0 184.8 119.3 196.9 113.3 L196.45 112.4 M173.4 130.75 L173.45 130.6 173.2 130.7 Q168.3 134.25 160.95 137.95 L160.5 138.2 160.7 138.3 Q164.35 140.6 169.75 145.55 172.5 139.9 173.4 130.75 M-192.45 -143.65 Q-189.4 -136.95 -188.3 -133.7 -184.9 -135.25 -182.95 -140.9 L-183.5 -141.95 Q-184.25 -143.5 -186.75 -143.4 L-192.0 -143.85 -192.65 -144.1 -192.45 -143.65 M-188.75 -119.45 L-188.8 -119.65 -188.95 -119.35 Q-189.4 -116.7 -194.65 -107.25 L-184.35 -105.15 -183.8 -105.15 -183.85 -105.3 -188.75 -119.45" fill="#000000" fill-rule="evenodd" stroke="none"/>
      <path d="M196.45 112.4 L196.9 113.3 Q184.8 119.3 178.9 122.0 179.25 120.45 182.5 113.9 185.85 107.05 186.6 106.7 187.35 106.3 190.75 107.7 194.9 109.35 196.45 112.4 M173.2 130.7 L173.4 130.75 Q172.5 139.9 169.75 145.55 164.35 140.6 160.7 138.3 L160.95 137.95 Q168.3 134.25 173.2 130.7 M-192.0 -143.85 L-186.75 -143.4 Q-184.25 -143.5 -183.5 -141.95 L-182.95 -140.9 Q-184.9 -135.25 -188.3 -133.7 -189.4 -136.95 -192.45 -143.65 L-192.0 -143.85 M-188.95 -119.35 L-188.75 -119.45 -183.85 -105.3 -184.35 -105.15 -194.65 -107.25 Q-189.4 -116.7 -188.95 -119.35" fill="#dd0000" fill-rule="evenodd" stroke="none"/>
      <path d="M9.15 -39.0 Q20.75 -37.9 29.8 -38.45 34.85 -38.8 45.2 -38.55 61.75 -38.2 76.2 -36.25 119.5 -30.45 129.95 -12.75 L124.25 -12.5 Q113.8 -11.55 110.2 -9.7 106.05 -7.65 86.4 15.0 107.15 22.15 117.95 23.7 126.55 24.9 133.75 23.65 L133.8 26.7 Q135.05 50.7 142.2 72.0 137.2 72.75 132.15 73.85 125.35 75.35 123.9 76.1 118.9 78.55 115.6 81.3 L113.45 75.85 Q107.35 60.05 100.85 51.7 94.3 43.35 82.35 35.45 67.2 25.35 48.65 20.95 48.75 20.15 48.2 19.05 45.15 12.95 29.25 11.8 23.6 11.35 18.05 11.7 13.05 12.0 12.05 12.55 9.8 13.65 9.45 14.1 L10.1 16.4 6.55 16.1 -22.75 14.55 Q-48.05 12.85 -67.85 8.85 -129.1 -3.5 -146.65 -38.6 -159.4 -64.1 -164.45 -89.55 L-167.25 -105.75 Q-168.6 -113.25 -170.3 -116.65 -173.35 -122.75 -182.55 -126.45 -176.6 -127.6 -169.55 -127.95 -164.75 -128.25 -145.6 -128.15 L-133.0 -129.6 Q-123.2 -131.05 -117.15 -130.8 -96.95 -130.15 -88.25 -112.7 -87.65 -111.55 -85.3 -103.7 -82.9 -95.85 -78.3 -86.7 -63.85 -57.8 -23.7 -45.4 L-22.45 -45.0 -22.8 -44.85 -26.45 -41.25 Q-30.1 -37.5 -32.65 -33.85 -40.55 -22.3 -36.2 -13.6 -33.2 -7.55 -8.6 -17.35 -2.6 -19.95 2.55 -23.95 12.35 -31.75 9.15 -39.0 M133.55 16.35 L133.55 16.4 133.55 16.35 M153.85 98.5 Q161.8 113.9 166.55 119.75 L168.85 122.15 Q152.75 117.55 146.65 115.5 136.85 112.2 130.95 107.15 140.7 106.75 147.3 103.45 L153.85 98.5 M-120.5 -64.5 L-120.1 -64.35 -120.25 -64.0 -120.5 -64.5 M-115.0 -89.35 Q-120.0 -91.0 -120.95 -90.5 L-122.1 -89.7 -122.5 -89.75 -124.5 -88.7 Q-129.4 -70.55 -122.05 -55.9 -115.7 -43.15 -100.65 -37.5 -95.4 -35.55 -90.2 -34.95 L-86.1 -34.7 -85.95 -34.65 -83.45 -34.45 Q-80.75 -47.45 -80.5 -51.8 -80.05 -61.2 -84.35 -69.75 -88.05 -77.1 -103.85 -84.75 -109.75 -87.65 -115.0 -89.35 M-106.0 -46.65 L-106.6 -45.75 -107.55 -46.55 -106.0 -46.65 M-87.75 -64.8 L-87.35 -64.05 Q-86.95 -63.25 -86.95 -61.1 -87.15 -62.9 -87.75 -64.8 M-24.2 -34.8 L-24.9 -34.55 -24.35 -35.15 -24.2 -34.8" fill="#530077" fill-rule="evenodd" stroke="none"/>
      <path d="M9.15 -39.0 Q12.35 -31.75 2.55 -23.95 -2.6 -19.95 -8.6 -17.35 -33.2 -7.55 -36.2 -13.6 -40.55 -22.3 -32.65 -33.85 -30.1 -37.5 -26.45 -41.25 L-22.8 -44.85 -22.45 -45.0 -16.75 -43.45 Q-6.65 -40.9 4.3 -39.55 L7.35 -39.2 9.15 -39.0 M10.1 16.4 L9.45 14.1 Q9.8 13.65 12.05 12.55 13.05 12.0 18.05 11.7 23.6 11.35 29.25 11.8 45.15 12.95 48.2 19.05 48.75 20.15 48.65 20.95 L42.35 19.65 Q35.5 18.4 26.55 17.65 L26.2 16.55 20.2 16.1 Q17.5 16.05 15.4 16.75 L10.1 16.4 M115.6 81.3 Q118.9 78.55 123.9 76.1 125.35 75.35 132.15 73.85 137.2 72.75 142.2 72.0 L144.0 77.05 138.1 78.05 Q140.85 79.35 143.3 84.25 147.45 92.55 147.9 97.45 150.05 96.2 151.9 94.75 L153.85 98.5 147.3 103.45 Q140.7 106.75 130.95 107.15 128.65 105.2 126.95 103.0 L129.45 103.25 131.0 103.2 Q129.7 101.7 128.55 99.45 122.95 88.25 126.55 82.55 127.65 80.8 129.55 79.8 L126.0 80.6 Q120.85 83.2 117.8 86.3 L115.6 81.3 M133.75 23.65 Q126.55 24.9 117.95 23.7 107.15 22.15 86.4 15.0 106.05 -7.65 110.2 -9.7 113.8 -11.55 124.25 -12.5 L129.95 -12.75 130.7 -11.3 Q131.65 -9.4 132.25 -6.2 133.0 -2.25 133.25 3.65 L133.55 16.35 133.55 16.4 133.6 16.45 Q134.75 18.75 133.65 19.3 L133.75 23.65 M122.95 -7.5 Q117.15 -7.6 112.75 -5.4 107.85 -3.0 96.1 12.1 103.8 16.45 119.5 17.85 L127.4 18.25 Q126.05 16.2 123.45 11.0 118.8 1.7 121.25 -4.55 121.85 -6.2 122.95 -7.5 M-120.1 -64.35 Q-119.4 -66.2 -118.05 -67.95 -116.45 -70.3 -114.0 -72.25 -112.45 -73.55 -111.8 -73.85 -106.4 -76.55 -101.45 -76.5 L-98.9 -76.25 Q-102.7 -78.8 -107.45 -81.05 -113.9 -84.05 -120.3 -85.95 -120.7 -64.85 -120.5 -64.5 L-120.25 -64.0 -120.1 -64.35 M-115.0 -89.35 Q-109.75 -87.65 -103.85 -84.75 -88.05 -77.1 -84.35 -69.75 -80.05 -61.2 -80.5 -51.8 -80.75 -47.45 -83.45 -34.45 L-85.95 -34.65 -86.1 -34.7 -90.2 -34.95 Q-95.4 -35.55 -100.65 -37.5 -115.7 -43.15 -122.05 -55.9 -129.4 -70.55 -124.5 -88.7 L-122.5 -89.75 -122.1 -89.7 -120.95 -90.5 Q-120.0 -91.0 -115.0 -89.35 M-106.6 -45.75 Q-102.35 -42.3 -97.65 -40.75 -94.05 -39.6 -88.75 -39.4 -89.6 -43.75 -88.2 -51.45 L-87.3 -57.4 Q-87.85 -55.25 -89.35 -53.5 -91.75 -50.75 -95.05 -49.85 -100.45 -47.2 -106.0 -46.65 L-107.55 -46.55 -106.6 -45.75 M-87.75 -64.8 Q-87.15 -62.9 -86.95 -61.1 -86.95 -63.25 -87.35 -64.05 L-87.75 -64.8 M-24.2 -34.8 L-24.35 -35.15 -24.9 -34.55 Q-34.4 -23.4 -31.6 -17.85 -29.35 -13.25 -10.75 -21.85 -10.0 -22.2 -8.85 -23.3 L-12.65 -24.0 Q-19.95 -25.75 -22.55 -31.0 L-24.2 -34.8" fill="#040404" fill-rule="evenodd" stroke="none"/>
      <path d="M122.95 -7.5 Q121.85 -6.2 121.25 -4.55 118.8 1.7 123.45 11.0 126.05 16.2 127.4 18.25 L119.5 17.85 Q103.8 16.45 96.1 12.1 107.85 -3.0 112.75 -5.4 117.15 -7.6 122.95 -7.5 M126.95 103.0 L125.55 101.05 Q121.65 95.0 117.8 86.3 120.85 83.2 126.0 80.6 L129.55 79.8 Q127.65 80.8 126.55 82.55 122.95 88.25 128.55 99.45 129.7 101.7 131.0 103.2 L129.45 103.25 126.95 103.0 M151.9 94.75 Q150.05 96.2 147.9 97.45 147.45 92.55 143.3 84.25 140.85 79.35 138.1 78.05 L144.0 77.05 Q146.8 84.6 150.45 91.85 L151.9 94.75 M26.55 17.65 L23.8 17.4 15.4 16.75 Q17.5 16.05 20.2 16.1 L26.2 16.55 26.55 17.65 M-120.5 -64.5 Q-120.7 -64.85 -120.3 -85.95 -113.9 -84.05 -107.45 -81.05 -102.7 -78.8 -98.9 -76.25 L-101.45 -76.5 Q-106.4 -76.55 -111.8 -73.85 -112.45 -73.55 -114.0 -72.25 -116.45 -70.3 -118.05 -67.95 -119.4 -66.2 -120.1 -64.35 L-120.5 -64.5 M-106.0 -46.65 Q-100.45 -47.2 -95.05 -49.85 -91.75 -50.75 -89.35 -53.5 -87.85 -55.25 -87.3 -57.4 L-88.2 -51.45 Q-89.6 -43.75 -88.75 -39.4 -94.05 -39.6 -97.65 -40.75 -102.35 -42.3 -106.6 -45.75 L-106.0 -46.65 M-24.9 -34.55 L-24.2 -34.8 -22.55 -31.0 Q-19.95 -25.75 -12.65 -24.0 L-8.85 -23.3 Q-10.0 -22.2 -10.75 -21.85 -29.35 -13.25 -31.6 -17.85 -34.4 -23.4 -24.9 -34.55" fill="#ffffff" fill-rule="evenodd" stroke="none"/>
    </g>
  </defs>
</svg>
