<?xml version="1.0" encoding="UTF-8" standalone="no"?>
<svg xmlns:xlink="http://www.w3.org/1999/xlink" height="720.75px" width="1716.8px" xmlns="http://www.w3.org/2000/svg">
  <g transform="matrix(1, 0, 0, 1, 307.05, 450.35)">
    <use height="47.85" transform="matrix(1.0, 0.0, 0.0, 1.0, -77.75, -23.95)" width="155.5" xlink:href="#shape0"/>
  </g>
  <defs>
    <g id="shape0" transform="matrix(1, 0, 0, 1, 77.75, 23.95)">
      <path d="M24.0 -22.85 Q41.15 -21.2 54.95 -17.0 77.75 -9.95 77.75 -0.05 77.75 9.85 54.95 16.8 32.2 23.85 0.0 23.9 -32.2 23.85 -55.0 16.8 -77.75 9.85 -77.75 -0.05 -77.75 -9.95 -55.0 -17.0 -41.2 -21.2 -23.95 -22.85 L0.0 -23.95 24.0 -22.85" fill="#000000" fill-opacity="0.5019608" fill-rule="evenodd" stroke="none"/>
    </g>
  </defs>
</svg>
