<?xml version="1.0" encoding="UTF-8" standalone="no"?>
<svg xmlns:xlink="http://www.w3.org/1999/xlink" height="720.75px" width="1716.8px" xmlns="http://www.w3.org/2000/svg">
  <g transform="matrix(1, 0, 0, 1, 307.05, 450.35)">
    <use height="63.0" transform="matrix(1.0, 0.0, 0.0, 1.0, -74.25, -31.5)" width="148.5" xlink:href="#shape0"/>
  </g>
  <defs>
    <g id="shape0" transform="matrix(1, 0, 0, 1, 74.25, 31.5)">
      <path d="M0.05 -0.1 L0.05 0.15 0.0 0.15 0.05 -0.1 M-62.5 -0.25 L-62.1 -0.3 -62.5 -0.25" fill="#ffcccc" fill-rule="evenodd" stroke="none"/>
      <path d="M61.9 -19.8 L61.95 -19.8 61.9 -19.8 M18.95 -26.4 Q17.05 -25.7 15.1 -24.85 L-5.6 -25.5 -14.6 -25.1 -17.6 -27.35 Q3.25 -27.25 18.95 -26.4 M-62.5 -0.25 L-62.1 -0.3 -62.5 -0.25 M-43.95 -17.05 L-47.55 -15.0 Q-54.9 -10.55 -59.0 -5.2 -61.0 -2.65 -61.95 -0.25 L-62.8 2.45 -67.55 3.8 -67.65 3.6 -67.85 3.4 -68.95 3.2 Q-66.0 -3.45 -57.15 -10.1 -52.85 -13.45 -45.1 -17.5 L-43.95 -17.05 M-24.15 -27.35 L-23.2 -27.35 -23.25 -26.9 -20.55 -24.4 Q-30.7 -22.9 -39.25 -19.25 L-41.35 -19.45 Q-34.0 -23.15 -24.15 -27.35 M-57.1 15.5 L-58.05 15.15 Q-59.8 14.35 -61.15 13.3 L-63.05 11.6 Q-65.3 9.9 -70.5 9.6 L-70.15 6.75 -70.1 6.75 Q-68.25 6.75 -67.65 6.2 L-67.1 6.75 -62.8 5.8 Q-61.5 9.85 -51.25 12.1 L-57.1 15.5" fill="#f5ebc5" fill-rule="evenodd" stroke="none"/>
      <path d="M61.9 -19.8 Q59.75 -20.9 56.7 -21.75 46.4 -24.7 24.8 -26.1 L24.75 -26.1 24.75 -25.65 22.55 -24.3 37.2 -22.5 Q44.5 -21.3 49.65 -19.75 L58.5 -20.25 61.9 -19.8 Q63.0 -19.35 63.0 -18.45 L62.85 -17.25 62.45 -16.65 57.85 -16.3 Q61.5 -13.9 61.5 -10.95 61.5 -5.1 61.1 -3.45 60.55 -1.5 59.4 0.3 L60.4 0.8 Q63.05 -2.0 64.95 -5.1 67.5 -9.25 67.5 -11.25 67.5 -14.85 66.3 -16.5 65.0 -18.35 61.95 -19.8 L61.9 -19.8 M18.95 -26.4 Q3.25 -27.25 -17.6 -27.35 L-14.6 -25.1 -5.6 -25.5 15.1 -24.85 Q17.05 -25.7 18.95 -26.4 M21.65 -20.55 L16.85 -20.8 16.5 -20.6 2.95 -12.3 13.5 -14.35 18.75 -15.3 39.75 -18.65 21.65 -20.55 M5.25 -19.8 L7.65 -21.15 5.0 -21.2 1.45 -21.3 -5.25 -21.35 -8.4 -21.35 -10.05 -21.35 -7.05 -18.75 -2.8 -14.95 0.1 -16.7 4.55 -19.35 5.25 -19.8 M34.7 -14.1 Q17.35 -12.25 2.8 -9.85 L3.75 -8.95 17.95 -7.4 18.0 -7.4 23.85 -6.7 44.4 -3.9 44.65 -3.9 Q51.15 -2.75 55.5 -1.3 57.3 -3.4 57.8 -5.8 58.05 -7.2 57.95 -8.85 L57.75 -10.95 Q57.75 -13.65 51.8 -15.8 L51.75 -15.8 47.25 -15.4 34.95 -14.15 34.7 -14.1 M24.45 -1.05 L16.95 -2.3 9.2 -3.7 15.85 3.2 18.9 6.6 21.35 9.5 Q40.9 7.55 50.05 2.75 L46.05 2.2 37.95 1.05 28.5 -0.4 24.45 -1.05 M71.65 -15.0 Q72.55 -14.05 73.4 -10.9 74.25 -7.9 74.25 -6.15 74.25 -1.85 70.3 3.85 65.5 10.7 56.65 16.35 32.65 31.5 -10.5 31.5 -50.4 31.5 -65.55 23.85 -70.5 21.3 -72.6 18.05 L-74.25 14.45 -74.25 9.95 Q-74.25 -4.7 -49.8 -19.25 -41.15 -24.5 -31.7 -28.2 -23.45 -31.5 -20.6 -31.5 42.7 -31.5 62.25 -23.6 69.1 -20.85 70.75 -16.95 71.1 -16.05 71.25 -13.5 71.45 -14.85 71.65 -15.0 M68.7 -2.8 L69.9 -6.15 68.25 -3.0 Q65.2 2.15 60.15 6.65 L59.9 6.85 60.55 7.1 60.75 8.5 62.6 6.6 Q66.5 2.25 68.7 -2.8 M57.4 3.65 L56.45 3.55 54.4 5.1 Q45.4 10.95 24.35 13.35 L24.45 13.55 24.5 13.65 25.15 13.5 Q28.0 13.5 28.5 17.2 44.5 13.65 55.2 5.45 L57.4 3.65 M57.1 9.15 Q45.25 18.0 27.6 21.6 L28.35 23.8 Q47.45 19.6 58.35 10.7 L57.1 9.15 M20.55 13.75 L-10.5 15.0 -42.4 13.55 Q-47.45 16.05 -50.5 17.15 -35.3 19.9 1.15 19.9 12.45 19.9 22.1 18.4 L22.7 18.3 22.5 17.15 Q22.5 16.4 22.75 15.75 L21.8 14.9 20.55 13.75 M24.0 22.4 L24.0 22.25 Q13.5 24.0 1.15 24.0 L-50.85 22.3 -51.0 22.6 Q-51.0 23.4 -50.35 23.9 -35.6 27.35 -10.95 27.4 8.85 27.4 24.0 24.65 L24.0 22.4 M7.35 1.55 L5.85 0.15 5.7 0.0 -0.2 -5.5 -6.35 -6.75 Q-23.0 3.15 -33.95 9.15 L-10.55 10.9 -3.55 10.85 0.95 10.75 16.45 9.95 7.35 1.55 M-43.95 -17.05 L-45.1 -17.5 Q-52.85 -13.45 -57.15 -10.1 -66.0 -3.45 -68.95 3.2 L-67.85 3.4 -67.65 3.6 -67.55 3.8 -62.8 2.45 -61.95 -0.25 Q-61.0 -2.65 -59.0 -5.2 -54.9 -10.55 -47.55 -15.0 L-43.95 -17.05 M-47.25 -1.4 L-44.45 -2.05 -27.1 -6.0 -26.4 -6.15 -23.45 -6.85 -16.05 -8.4 -15.05 -8.65 -16.0 -8.85 -21.75 -10.25 -25.8 -11.35 -26.1 -11.4 Q-34.2 -13.55 -40.5 -15.75 -44.75 -13.45 -49.3 -9.3 -53.7 -5.4 -56.4 -1.3 L-57.9 1.2 -53.1 0.0 -47.25 -1.4 M-24.15 -27.35 Q-34.0 -23.15 -41.35 -19.45 L-39.25 -19.25 Q-30.7 -22.9 -20.55 -24.4 L-23.25 -26.9 -23.2 -27.35 -24.15 -27.35 M-17.65 -20.95 Q-22.0 -20.4 -23.95 -19.3 L-25.8 -17.85 Q-26.65 -17.25 -28.1 -17.25 -29.05 -17.25 -29.1 -18.0 -29.25 -18.75 -30.15 -18.75 L-33.75 -18.35 -28.15 -17.15 -19.4 -15.0 -16.85 -14.35 -15.05 -13.85 -7.8 -11.95 -7.4 -12.15 -7.5 -12.25 -14.05 -18.3 -16.9 -21.0 -17.65 -20.95 M-33.15 2.0 L-30.75 0.7 -20.25 -5.05 -19.15 -5.65 -20.5 -5.3 -30.1 -2.9 -30.15 -2.9 -34.45 -1.75 -44.15 0.9 -59.2 4.95 -59.25 5.65 -43.9 8.0 -40.7 6.2 -39.15 5.35 -33.15 2.0 M-54.95 22.65 L-54.7 22.75 -54.75 22.05 -54.5 20.45 -54.6 20.25 Q-55.7 18.85 -58.85 18.0 L-68.4 15.35 -64.95 18.2 Q-61.05 20.8 -54.95 22.65 M-57.1 15.5 L-51.25 12.1 Q-61.5 9.85 -62.8 5.8 L-67.1 6.75 -67.65 6.2 Q-68.25 6.75 -70.1 6.75 L-70.15 6.75 -70.5 9.6 Q-65.3 9.9 -63.05 11.6 L-61.15 13.3 Q-59.8 14.35 -58.05 15.15 L-57.1 15.5" fill="#000000" fill-rule="evenodd" stroke="none"/>
      <path d="M16.5 -20.6 Q16.5 -18.0 19.15 -18.0 20.2 -18.0 20.75 -18.45 L21.4 -18.9 21.65 -20.55 39.75 -18.65 18.75 -15.3 18.6 -15.9 18.4 -16.1 16.15 -16.5 14.55 -16.25 Q13.5 -15.95 13.5 -14.8 L13.5 -14.35 2.95 -12.3 16.5 -20.6 M0.1 -16.7 L-2.8 -14.95 -7.05 -18.75 Q-5.85 -18.85 -5.4 -19.3 L-5.25 -20.7 -5.25 -20.9 -5.25 -21.35 1.45 -21.3 Q0.0 -20.5 0.0 -18.9 L0.1 -16.7 M17.95 -7.4 L3.75 -8.95 2.8 -9.85 Q17.35 -12.25 34.7 -14.1 33.2 -13.15 32.25 -11.05 L33.45 -9.9 Q34.4 -9.0 34.9 -9.0 36.75 -9.0 36.75 -9.9 36.65 -12.35 34.95 -14.15 L47.25 -15.4 Q47.3 -14.0 47.45 -13.85 L49.5 -13.5 Q51.4 -13.5 51.4 -13.85 L51.75 -15.8 51.8 -15.8 Q57.75 -13.65 57.75 -10.95 L57.95 -8.85 Q58.05 -7.2 57.8 -5.8 57.3 -3.4 55.5 -1.3 51.15 -2.75 44.65 -3.9 L44.4 -3.9 23.85 -6.7 24.0 -7.95 23.85 -9.15 23.65 -9.35 21.0 -9.75 19.1 -9.5 Q18.0 -9.25 18.0 -8.05 L17.95 -7.4 M15.85 3.2 L9.2 -3.7 16.95 -2.3 24.45 -1.05 Q24.0 -0.35 24.0 0.4 24.0 2.35 25.9 3.0 28.3 2.5 28.5 -0.4 L37.95 1.05 46.05 2.2 50.05 2.75 Q40.9 7.55 21.35 9.5 L18.9 6.6 19.15 6.4 19.5 4.35 Q19.5 2.85 19.3 2.6 19.0 2.25 17.65 2.25 17.05 2.25 16.1 3.0 L15.85 3.2 M47.8 -8.65 Q47.5 -9.0 46.15 -9.0 45.65 -9.0 44.7 -8.25 43.5 -7.4 43.5 -6.55 43.5 -4.65 43.7 -5.4 L44.25 -4.75 Q44.4 -4.6 44.8 -4.55 L45.75 -4.5 Q47.65 -4.5 47.65 -4.85 L48.0 -6.9 Q48.0 -8.4 47.8 -8.65 M39.75 3.0 Q39.1 2.0 37.9 1.5 L36.7 1.75 Q36.0 2.0 36.0 3.2 36.0 5.1 36.2 4.35 36.75 4.9 37.9 5.25 39.75 4.45 39.75 3.0 M5.65 0.0 Q4.75 0.55 3.1 2.55 L1.5 4.7 Q1.5 5.85 1.65 6.05 L2.25 6.4 3.75 6.75 Q7.5 6.75 7.5 2.9 L7.35 1.55 16.45 9.95 0.95 10.75 Q1.5 10.15 1.5 9.3 L1.35 8.1 1.15 7.9 -1.1 7.5 -2.9 7.95 Q-3.75 8.4 -3.75 9.65 L-3.55 10.85 -10.55 10.9 -33.95 9.15 Q-23.0 3.15 -6.35 -6.75 L-0.2 -5.5 5.7 0.0 5.65 0.0 M0.05 -0.1 L0.0 0.15 0.05 0.15 0.05 -0.1 M-44.45 -2.05 Q-43.5 -3.1 -43.5 -4.1 -43.5 -4.75 -45.35 -6.75 -48.0 -5.15 -48.0 -3.35 -48.0 -2.15 -47.25 -1.4 L-53.1 0.0 -57.9 1.2 -56.4 -1.3 Q-53.7 -5.4 -49.3 -9.3 -44.75 -13.45 -40.5 -15.75 -34.2 -13.55 -26.1 -11.4 L-26.25 -10.85 Q-27.75 -9.05 -27.75 -8.05 -27.75 -6.8 -27.2 -6.45 L-27.1 -6.0 -44.45 -2.05 M-21.75 -10.25 L-16.0 -8.85 -16.05 -8.4 -23.45 -6.85 -22.6 -7.9 Q-21.9 -9.15 -21.75 -10.25 M-28.1 -17.25 Q-26.65 -17.25 -25.8 -17.85 L-23.95 -19.3 Q-22.0 -20.4 -17.65 -20.95 L-18.0 -18.85 Q-18.0 -17.6 -17.45 -17.1 L-17.25 -16.95 -19.05 -15.4 -19.4 -15.0 -28.15 -17.15 -28.1 -17.25 M-14.05 -18.3 L-7.5 -12.25 -7.8 -11.95 -15.05 -13.85 -15.0 -14.6 Q-15.0 -15.9 -15.9 -16.65 L-14.05 -18.3 M-37.1 -13.5 Q-38.6 -13.5 -39.15 -12.9 -39.75 -12.3 -39.75 -10.65 L-39.55 -7.85 -37.1 -7.5 Q-35.25 -7.5 -34.65 -8.05 -34.5 -9.15 -34.5 -10.6 -33.65 -13.5 -37.1 -13.5 M-34.45 -1.75 L-34.5 -0.9 Q-34.5 1.2 -33.15 2.0 L-39.15 5.35 -39.0 4.35 Q-39.2 2.25 -41.25 2.25 -42.15 2.25 -43.45 3.4 -45.0 4.7 -45.0 6.2 L-44.85 7.55 -44.25 7.9 -43.9 8.0 -59.25 5.65 -59.2 4.95 -44.15 0.9 -34.45 -1.75 M-30.75 0.7 Q-30.0 -0.2 -30.0 -1.1 L-30.0 -2.55 -30.1 -2.9 -20.5 -5.3 -20.25 -5.05 -30.75 0.7 M-7.1 -3.75 Q-8.15 -3.75 -10.1 -2.05 -12.0 -0.45 -12.0 0.2 -12.0 2.1 -11.8 1.35 -10.85 2.25 -8.6 2.25 -6.4 2.25 -5.8 1.7 -5.25 1.15 -5.25 -0.85 -5.25 -2.5 -5.45 -3.0 -5.85 -3.75 -7.1 -3.75 M-16.1 3.75 Q-17.15 3.75 -18.0 4.95 -18.75 5.95 -18.75 7.15 -18.75 9.0 -18.55 9.4 L-16.5 9.75 Q-14.6 9.75 -14.4 9.2 -14.25 8.1 -14.25 6.65 -14.25 5.0 -14.45 4.5 -14.85 3.75 -16.1 3.75" fill="#fff8bb" fill-rule="evenodd" stroke="none"/>
      <path d="M16.5 -20.6 L16.85 -20.8 21.65 -20.55 21.4 -18.9 20.75 -18.45 Q20.2 -18.0 19.15 -18.0 16.5 -18.0 16.5 -20.6 M18.75 -15.3 L13.5 -14.35 13.5 -14.8 Q13.5 -15.95 14.55 -16.25 L16.15 -16.5 18.4 -16.1 18.6 -15.9 18.75 -15.3 M5.0 -21.2 L5.1 -21.15 5.25 -19.95 5.25 -19.8 4.55 -19.35 0.1 -16.7 0.0 -18.9 Q0.0 -20.5 1.45 -21.3 L5.0 -21.2 M-7.05 -18.75 L-10.05 -21.35 -8.4 -21.35 -5.25 -21.35 -5.25 -20.9 -5.25 -20.7 -5.4 -19.3 Q-5.85 -18.85 -7.05 -18.75 M18.0 -8.05 Q18.0 -9.25 19.1 -9.5 L21.0 -9.75 23.65 -9.35 23.85 -9.15 24.0 -7.95 23.85 -6.7 18.0 -7.4 18.0 -8.05 M51.75 -15.8 L51.4 -13.85 Q51.4 -13.5 49.5 -13.5 L47.45 -13.85 Q47.3 -14.0 47.25 -15.4 L51.75 -15.8 M34.95 -14.15 Q36.65 -12.35 36.75 -9.9 36.75 -9.0 34.9 -9.0 34.4 -9.0 33.45 -9.9 L32.25 -11.05 Q33.2 -13.15 34.7 -14.1 L34.95 -14.15 M15.85 3.2 L16.1 3.0 Q17.05 2.25 17.65 2.25 19.0 2.25 19.3 2.6 19.5 2.85 19.5 4.35 L19.15 6.4 18.9 6.6 15.85 3.2 M28.5 -0.4 Q28.3 2.5 25.9 3.0 24.0 2.35 24.0 0.4 24.0 -0.35 24.45 -1.05 L28.5 -0.4 M47.8 -8.65 Q48.0 -8.4 48.0 -6.9 L47.65 -4.85 Q47.65 -4.5 45.75 -4.5 L44.8 -4.55 Q44.4 -4.6 44.25 -4.75 L43.7 -5.4 Q43.5 -4.65 43.5 -6.55 43.5 -7.4 44.7 -8.25 45.65 -9.0 46.15 -9.0 47.5 -9.0 47.8 -8.65 M39.75 3.0 Q39.75 4.45 37.9 5.25 36.75 4.9 36.2 4.35 36.0 5.1 36.0 3.2 36.0 2.0 36.7 1.75 L37.9 1.5 Q39.1 2.0 39.75 3.0 M7.35 1.55 L7.5 2.9 Q7.5 6.75 3.75 6.75 L2.25 6.4 1.65 6.05 Q1.5 5.85 1.5 4.7 L3.1 2.55 Q4.75 0.55 5.65 0.0 L5.85 0.15 7.35 1.55 M-3.55 10.85 L-3.75 9.65 Q-3.75 8.4 -2.9 7.95 L-1.1 7.5 1.15 7.9 1.35 8.1 1.5 9.3 Q1.5 10.15 0.95 10.75 L-3.55 10.85 M-44.45 -2.05 L-47.25 -1.4 Q-48.0 -2.15 -48.0 -3.35 -48.0 -5.15 -45.35 -6.75 -43.5 -4.75 -43.5 -4.1 -43.5 -3.1 -44.45 -2.05 M-25.8 -11.35 L-21.75 -10.25 Q-21.9 -9.15 -22.6 -7.9 L-23.45 -6.85 -26.4 -6.15 -27.2 -6.45 Q-27.75 -6.8 -27.75 -8.05 -27.75 -9.05 -26.25 -10.85 L-25.8 -11.35 M-17.65 -20.95 L-16.9 -21.0 -14.05 -18.3 -15.9 -16.65 Q-15.0 -15.9 -15.0 -14.6 L-15.05 -13.85 -16.85 -14.35 -19.4 -15.0 -19.05 -15.4 -17.25 -16.95 -17.45 -17.1 Q-18.0 -17.6 -18.0 -18.85 L-17.65 -20.95 M-37.1 -13.5 Q-33.65 -13.5 -34.5 -10.6 -34.5 -9.15 -34.65 -8.05 -35.25 -7.5 -37.1 -7.5 L-39.55 -7.85 -39.75 -10.65 Q-39.75 -12.3 -39.15 -12.9 -38.6 -13.5 -37.1 -13.5 M-33.15 2.0 Q-34.5 1.2 -34.5 -0.9 L-34.45 -1.75 -30.15 -2.9 -30.0 -2.55 -30.0 -1.1 Q-30.0 -0.2 -30.75 0.7 L-33.15 2.0 M-43.9 8.0 L-44.25 7.9 -44.85 7.55 -45.0 6.2 Q-45.0 4.7 -43.45 3.4 -42.15 2.25 -41.25 2.25 -39.2 2.25 -39.0 4.35 L-39.15 5.35 -40.7 6.2 -43.9 8.0 M-7.1 -3.75 Q-5.85 -3.75 -5.45 -3.0 -5.25 -2.5 -5.25 -0.85 -5.25 1.15 -5.8 1.7 -6.4 2.25 -8.6 2.25 -10.85 2.25 -11.8 1.35 -12.0 2.1 -12.0 0.2 -12.0 -0.45 -10.1 -2.05 -8.15 -3.75 -7.1 -3.75 M-16.1 3.75 Q-14.85 3.75 -14.45 4.5 -14.25 5.0 -14.25 6.65 -14.25 8.1 -14.4 9.2 -14.6 9.75 -16.5 9.75 L-18.55 9.4 Q-18.75 9.0 -18.75 7.15 -18.75 5.95 -18.0 4.95 -17.15 3.75 -16.1 3.75" fill="#fd0b0b" fill-rule="evenodd" stroke="none"/>
      <path d="M61.9 -19.8 L58.5 -20.25 49.65 -19.75 Q44.5 -21.3 37.2 -22.5 L22.55 -24.3 24.75 -25.65 24.75 -26.1 24.8 -26.1 Q46.4 -24.7 56.7 -21.75 59.75 -20.9 61.9 -19.8 L61.95 -19.8 Q65.0 -18.35 66.3 -16.5 67.5 -14.85 67.5 -11.25 67.5 -9.25 64.95 -5.1 63.05 -2.0 60.4 0.8 L59.4 0.3 Q60.55 -1.5 61.1 -3.45 61.5 -5.1 61.5 -10.95 61.5 -13.9 57.85 -16.3 L62.45 -16.65 62.85 -17.25 63.0 -18.45 Q63.0 -19.35 61.9 -19.8 M68.25 -3.0 L68.7 -2.8 Q66.5 2.25 62.6 6.6 L60.75 8.5 60.55 7.1 60.15 6.65 Q65.2 2.15 68.25 -3.0 M57.4 3.65 L55.2 5.45 Q44.5 13.65 28.5 17.2 28.0 13.5 25.15 13.5 L24.5 13.65 24.45 13.55 24.35 13.35 Q45.4 10.95 54.4 5.1 L56.45 3.55 57.4 3.65 M57.1 9.15 L58.35 10.7 Q47.45 19.6 28.35 23.8 L27.6 21.6 Q45.25 18.0 57.1 9.15 M20.55 13.75 L21.8 14.9 22.75 15.75 Q22.5 16.4 22.5 17.15 L22.7 18.3 22.1 18.4 Q12.45 19.9 1.15 19.9 -35.3 19.9 -50.5 17.15 -47.45 16.05 -42.4 13.55 L-10.5 15.0 20.55 13.75 M24.0 22.25 L24.0 22.4 24.0 24.65 Q8.85 27.4 -10.95 27.4 -35.6 27.35 -50.35 23.9 -51.0 23.4 -51.0 22.6 L-50.85 22.3 1.15 24.0 Q13.5 24.0 24.0 22.25 M-54.75 22.05 L-54.95 22.65 Q-61.05 20.8 -64.95 18.2 L-68.4 15.35 -58.85 18.0 Q-55.7 18.85 -54.6 20.25 L-54.5 20.45 -54.75 22.05" fill="#f2e4c8" fill-rule="evenodd" stroke="none"/>
    </g>
  </defs>
</svg>
