<?xml version="1.0" encoding="UTF-8" standalone="no"?>
<svg xmlns:xlink="http://www.w3.org/1999/xlink" height="720.75px" width="1716.8px" xmlns="http://www.w3.org/2000/svg">
  <g transform="matrix(1, 0, 0, 1, 307.05, 450.35)">
    <use height="88.75" transform="matrix(1.0, 0.0, 0.0, 1.0, -29.0, -44.35)" width="58.0" xlink:href="#shape0"/>
  </g>
  <defs>
    <g id="shape0" transform="matrix(1, 0, 0, 1, 29.0, 44.35)">
      <path d="M28.5 3.25 Q28.5 5.4 27.1 9.15 28.5 10.9 29.0 16.9 L28.85 23.85 Q28.35 29.1 26.1 33.0 19.45 44.4 -2.0 44.4 -7.8 44.4 -8.8 42.35 L-14.5 43.9 Q-18.6 43.9 -21.0 39.9 L-21.0 34.55 Q-24.0 31.8 -25.5 26.45 L-25.5 26.25 -26.7 25.4 Q-29.0 23.55 -29.0 19.9 -29.0 18.2 -27.0 12.95 -24.85 7.3 -23.0 6.95 -22.05 5.6 -19.2 4.2 -18.8 4.0 -12.7 4.05 -7.7 4.15 -5.7 1.2 -4.85 -0.15 -1.7 -1.65 3.45 -4.1 11.0 -4.1 21.1 -4.1 25.75 -0.6 28.5 1.45 28.5 3.25 M25.3 13.25 L24.65 14.6 Q20.4 23.05 16.75 24.4 15.5 24.0 15.5 23.0 26.0 7.15 26.0 3.05 26.0 2.15 22.5 0.65 17.85 -1.35 10.85 -1.35 1.85 -1.35 -1.9 1.15 -3.1 1.9 -4.0 3.15 L-5.2 4.7 Q-7.5 6.65 -12.2 5.85 -16.8 5.05 -19.25 7.2 L-22.1 9.8 -24.0 13.3 Q-26.5 17.9 -26.5 20.25 -26.5 22.5 -23.2 24.15 -18.25 26.65 -7.15 26.65 -3.2 26.65 0.75 25.4 2.0 25.7 2.0 26.75 2.0 29.4 -7.0 29.4 -16.65 29.4 -22.05 27.7 L-21.45 29.3 Q-18.8 34.65 -13.4 34.65 L-6.0 33.4 Q-5.55 33.4 -4.75 33.95 L-4.6 33.75 Q-4.5 33.7 -4.5 34.5 -4.5 35.6 -6.95 36.5 -9.5 37.4 -13.0 37.4 -16.1 37.4 -18.5 36.25 L-18.25 37.55 Q-17.6 41.15 -14.65 41.15 L-8.95 40.55 -8.95 40.45 -7.75 39.9 -7.35 40.0 -7.2 39.9 -3.0 37.65 Q-0.2 36.55 3.55 36.0 7.8 35.4 10.75 34.4 12.0 34.7 12.0 35.75 12.0 36.55 -5.3 41.4 L-2.15 41.65 Q17.85 41.65 24.0 30.9 26.05 27.3 26.45 22.55 L26.5 16.75 25.3 13.25 M13.8 6.15 Q-7.9 6.15 -18.95 17.7 -15.15 19.95 -5.65 20.15 L0.95 17.15 Q7.8 14.15 11.1 14.15 16.5 14.15 18.0 7.95 18.0 6.95 17.5 6.65 16.65 6.15 13.8 6.15 M20.5 7.9 Q20.5 10.6 19.0 13.15 16.35 17.7 10.25 16.9 9.35 16.8 2.45 19.85 -4.55 22.9 -5.25 22.9 -16.4 22.9 -19.95 20.25 -21.5 19.05 -21.5 16.5 -21.5 13.25 -11.2 8.7 0.8 3.4 15.0 3.4 18.75 3.4 20.0 5.65 20.65 6.8 20.5 7.9" fill="#000000" fill-rule="evenodd" stroke="none"/>
      <path d="M25.3 13.25 L26.5 16.75 26.45 22.55 Q26.05 27.3 24.0 30.9 17.85 41.65 -2.15 41.65 L-5.3 41.4 Q12.0 36.55 12.0 35.75 12.0 34.7 10.75 34.4 7.8 35.4 3.55 36.0 -0.2 36.55 -3.0 37.65 L-7.2 39.9 -7.35 40.0 -7.75 39.9 -8.95 40.45 -8.95 40.55 -14.65 41.15 Q-17.6 41.15 -18.25 37.55 L-18.5 36.25 Q-16.1 37.4 -13.0 37.4 -9.5 37.4 -6.95 36.5 -4.5 35.6 -4.5 34.5 -4.5 33.7 -4.6 33.75 L-4.75 33.95 Q-5.55 33.4 -6.0 33.4 L-13.4 34.65 Q-18.8 34.65 -21.45 29.3 L-22.05 27.7 Q-16.65 29.4 -7.0 29.4 2.0 29.4 2.0 26.75 2.0 25.7 0.75 25.4 -3.2 26.65 -7.15 26.65 -18.25 26.65 -23.2 24.15 -26.5 22.5 -26.5 20.25 -26.5 17.9 -24.0 13.3 L-22.1 9.8 -19.25 7.2 Q-16.8 5.05 -12.2 5.85 -7.5 6.65 -5.2 4.7 L-4.0 3.15 Q-3.1 1.9 -1.9 1.15 1.85 -1.35 10.85 -1.35 17.85 -1.35 22.5 0.65 26.0 2.15 26.0 3.05 26.0 7.15 15.5 23.0 15.5 24.0 16.75 24.4 20.4 23.05 24.65 14.6 L25.3 13.25 M20.5 7.9 Q20.65 6.8 20.0 5.65 18.75 3.4 15.0 3.4 0.8 3.4 -11.2 8.7 -21.5 13.25 -21.5 16.5 -21.5 19.05 -19.95 20.25 -16.4 22.9 -5.25 22.9 -4.55 22.9 2.45 19.85 9.35 16.8 10.25 16.9 16.35 17.7 19.0 13.15 20.5 10.6 20.5 7.9" fill="#b3b3b3" fill-rule="evenodd" stroke="none"/>
      <path d="M13.8 6.15 Q16.65 6.15 17.5 6.65 18.0 6.95 18.0 7.95 16.5 14.15 11.1 14.15 7.8 14.15 0.95 17.15 L-5.65 20.15 Q-15.15 19.95 -18.95 17.7 -7.9 6.15 13.8 6.15" fill="#5e5e5e" fill-rule="evenodd" stroke="none"/>
      <path d="M9.75 -44.35 Q10.75 -43.4 11.2 -39.95 11.65 -36.55 13.8 -34.8 15.9 -33.05 17.45 -30.2 19.0 -27.3 19.0 -25.0 19.0 -22.1 16.8 -17.55 16.8 -15.95 19.65 -11.75 22.5 -7.55 22.5 -5.1 16.85 16.65 15.25 16.65 L14.0 16.4 13.6 15.8 Q10.7 17.1 3.5 19.4 -8.2 23.15 -10.25 23.15 -18.5 23.15 -18.5 20.75 L-18.35 20.3 -18.5 18.9 Q-18.5 12.45 -10.8 9.95 L-4.9 7.95 Q-1.9 6.6 -0.95 4.2 5.5 -11.0 5.5 -11.95 5.5 -14.1 4.0 -15.75 2.5 -17.4 2.5 -18.85 2.5 -22.9 6.25 -26.55 10.0 -30.25 10.0 -31.6 10.0 -34.0 8.75 -37.75 7.5 -41.55 7.5 -42.35 L7.55 -43.6 8.75 -43.85 9.15 -43.75 9.75 -44.35 M12.5 -31.8 L12.5 -31.6 Q12.5 -28.65 8.75 -25.45 5.0 -22.3 5.0 -18.85 L8.0 -12.0 Q8.0 -11.15 5.25 -3.7 L1.5 5.9 Q0.55 7.9 -2.45 9.5 L-8.35 12.1 Q-14.7 14.9 -15.75 19.5 L-13.25 19.65 -10.15 20.4 Q-4.25 20.4 2.05 16.8 8.3 13.15 14.25 13.15 19.5 -2.1 19.5 -4.25 19.5 -6.65 16.75 -11.15 14.0 -15.65 14.0 -17.35 14.0 -18.5 15.25 -21.1 16.5 -23.65 16.5 -24.85 16.5 -27.1 12.5 -31.8" fill="#888888" fill-opacity="0.5019608" fill-rule="evenodd" stroke="none"/>
      <path d="M12.5 -31.8 Q16.5 -27.1 16.5 -24.85 16.5 -23.65 15.25 -21.1 14.0 -18.5 14.0 -17.35 14.0 -15.65 16.75 -11.15 19.5 -6.65 19.5 -4.25 19.5 -2.1 14.25 13.15 8.3 13.15 2.05 16.8 -4.25 20.4 -10.15 20.4 L-13.25 19.65 -15.75 19.5 Q-14.7 14.9 -8.35 12.1 L-2.45 9.5 Q0.55 7.9 1.5 5.9 L5.25 -3.7 Q8.0 -11.15 8.0 -12.0 L5.0 -18.85 Q5.0 -22.3 8.75 -25.45 12.5 -28.65 12.5 -31.6 L12.5 -31.8" fill="#ffffff" fill-opacity="0.5019608" fill-rule="evenodd" stroke="none"/>
    </g>
  </defs>
</svg>
