<?xml version="1.0" encoding="UTF-8" standalone="no"?>
<svg xmlns:xlink="http://www.w3.org/1999/xlink" height="720.75px" width="1716.8px" xmlns="http://www.w3.org/2000/svg">
  <g transform="matrix(1, 0, 0, 1, 307.05, 450.35)">
    <use height="69.4" transform="matrix(1.0, 0.0, 0.0, 1.0, -88.15, -34.7)" width="176.3" xlink:href="#shape0"/>
  </g>
  <defs>
    <g id="shape0" transform="matrix(1, 0, 0, 1, 88.15, 34.7)">
      <path d="M42.35 13.2 L86.65 -23.25 86.65 -4.2 42.35 33.2 42.35 13.2" fill="#8c8c8c" fill-rule="evenodd" stroke="none"/>
      <path d="M13.75 -5.05 Q20.95 -11.0 16.0 -15.15 11.1 -19.35 -3.1 -19.35 -17.3 -19.35 -32.45 -15.15 -47.55 -11.0 -54.75 -5.05 -62.0 0.9 -57.05 5.1 -52.15 9.3 -37.9 9.3 -23.75 9.3 -8.6 5.1 6.5 0.9 13.75 -5.05 M17.25 6.2 L32.45 -6.3 26.05 -6.3 32.45 -6.3 17.25 6.2 M38.55 -6.3 L32.45 -6.3 36.0 -9.2 32.45 -6.3 38.55 -6.3 M27.05 -23.25 L27.05 -18.3 27.05 -23.25 86.65 -23.25 42.35 13.2 -86.65 13.2 -42.35 -23.25 27.05 -23.25 M44.65 -18.2 Q43.55 -17.1 43.55 -15.55 43.55 -14.0 44.65 -12.9 45.75 -11.8 47.3 -11.8 48.85 -11.8 49.95 -12.9 51.05 -14.0 51.05 -15.55 51.05 -17.1 49.95 -18.2 48.85 -19.3 47.3 -19.3 45.75 -19.3 44.65 -18.2 M59.8 -18.3 Q58.45 -18.3 57.5 -17.35 56.55 -16.4 56.55 -15.05 56.55 -13.7 57.5 -12.75 58.45 -11.8 59.8 -11.8 61.15 -11.8 62.1 -12.75 63.05 -13.7 63.05 -15.05 63.05 -16.4 62.1 -17.35 61.15 -18.3 59.8 -18.3 M51.0 -9.2 L36.5 2.7 30.05 2.7 36.5 2.7 51.0 -9.2 M32.25 6.2 L36.5 2.7 42.55 2.7 36.5 2.7 32.25 6.2 M-27.1 -3.35 Q-28.15 -4.2 -26.65 -5.45 -25.15 -6.7 -22.0 -7.55 -18.85 -8.45 -15.85 -8.45 -12.95 -8.45 -11.9 -7.55 -10.85 -6.7 -12.35 -5.45 -13.85 -4.2 -17.0 -3.35 -20.2 -2.45 -23.15 -2.45 -26.1 -2.45 -27.1 -3.35" fill="#aaaaaa" fill-rule="evenodd" stroke="none"/>
      <path d="M13.75 -5.05 Q6.5 0.9 -8.6 5.1 -23.75 9.3 -37.9 9.3 -52.15 9.3 -57.05 5.1 -62.0 0.9 -54.75 -5.05 -47.55 -11.0 -32.45 -15.15 -17.3 -19.35 -3.1 -19.35 11.1 -19.35 16.0 -15.15 20.95 -11.0 13.75 -5.05 M6.75 -5.0 Q12.5 -9.75 8.55 -13.1 4.65 -16.45 -6.65 -16.4 -18.0 -16.45 -30.05 -13.1 -42.05 -9.75 -47.8 -5.0 -53.55 -0.3 -49.65 3.05 -45.7 6.35 -34.4 6.4 -23.1 6.35 -11.05 3.05 1.0 -0.3 6.75 -5.0" fill="#525050" fill-rule="evenodd" stroke="none"/>
      <path d="M6.75 -5.0 Q1.0 -0.3 -11.05 3.05 -23.1 6.35 -34.4 6.4 -45.7 6.35 -49.65 3.05 -53.55 -0.3 -47.8 -5.0 -42.05 -9.75 -30.05 -13.1 -18.0 -16.45 -6.65 -16.4 4.65 -16.45 8.55 -13.1 12.5 -9.75 6.75 -5.0 M-27.1 -3.35 Q-26.1 -2.45 -23.15 -2.45 -20.2 -2.45 -17.0 -3.35 -13.85 -4.2 -12.35 -5.45 -10.85 -6.7 -11.9 -7.55 -12.95 -8.45 -15.85 -8.45 -18.85 -8.45 -22.0 -7.55 -25.15 -6.7 -26.65 -5.45 -28.15 -4.2 -27.1 -3.35" fill="#373737" fill-rule="evenodd" stroke="none"/>
      <path d="M-86.65 13.2 L42.35 13.2 42.35 33.2 -86.65 33.2 -86.65 13.2 M59.8 -18.3 Q61.15 -18.3 62.1 -17.35 63.05 -16.4 63.05 -15.05 63.05 -13.7 62.1 -12.75 61.15 -11.8 59.8 -11.8 58.45 -11.8 57.5 -12.75 56.55 -13.7 56.55 -15.05 56.55 -16.4 57.5 -17.35 58.45 -18.3 59.8 -18.3 M44.65 -18.2 Q45.75 -19.3 47.3 -19.3 48.85 -19.3 49.95 -18.2 51.05 -17.1 51.05 -15.55 51.05 -14.0 49.95 -12.9 48.85 -11.8 47.3 -11.8 45.75 -11.8 44.65 -12.9 43.55 -14.0 43.55 -15.55 43.55 -17.1 44.65 -18.2" fill="#9d9d9d" fill-rule="evenodd" stroke="none"/>
      <path d="M13.75 -5.05 Q6.5 0.9 -8.6 5.1 -23.75 9.3 -37.9 9.3 -52.15 9.3 -57.05 5.1 -62.0 0.9 -54.75 -5.05 -47.55 -11.0 -32.45 -15.15 -17.3 -19.35 -3.1 -19.35 11.1 -19.35 16.0 -15.15 20.95 -11.0 13.75 -5.05" fill="none" stroke="#000000" stroke-linecap="round" stroke-linejoin="round" stroke-width="4.0"/>
      <path d="M6.75 -5.0 Q1.0 -0.3 -11.05 3.05 -23.1 6.35 -34.4 6.4 -45.7 6.35 -49.65 3.05 -53.55 -0.3 -47.8 -5.0 -42.05 -9.75 -30.05 -13.1 -18.0 -16.45 -6.65 -16.4 4.65 -16.45 8.55 -13.1 12.5 -9.75 6.75 -5.0 M36.0 -9.2 L32.45 -6.3 38.55 -6.3 M26.05 -6.3 L32.45 -6.3 17.25 6.2 M27.05 -23.25 L27.05 -30.8 Q15.2 -35.55 2.05 -30.8 -9.7 -28.6 -20.7 -30.8 L-20.7 -27.05 M27.05 -18.3 L27.05 -23.25 -42.35 -23.25 -86.65 13.2 42.35 13.2 86.65 -23.25 27.05 -23.25 M59.8 -18.3 Q61.15 -18.3 62.1 -17.35 63.05 -16.4 63.05 -15.05 63.05 -13.7 62.1 -12.75 61.15 -11.8 59.8 -11.8 58.45 -11.8 57.5 -12.75 56.55 -13.7 56.55 -15.05 56.55 -16.4 57.5 -17.35 58.45 -18.3 59.8 -18.3 M44.65 -18.2 Q45.75 -19.3 47.3 -19.3 48.85 -19.3 49.95 -18.2 51.05 -17.1 51.05 -15.55 51.05 -14.0 49.95 -12.9 48.85 -11.8 47.3 -11.8 45.75 -11.8 44.65 -12.9 43.55 -14.0 43.55 -15.55 43.55 -17.1 44.65 -18.2 M86.65 -23.25 L86.65 -4.2 42.35 33.2 -86.65 33.2 -86.65 13.2 M42.35 33.2 L42.35 13.2 M42.55 2.7 L36.5 2.7 32.25 6.2 M30.05 2.7 L36.5 2.7 51.0 -9.2 M-27.1 -3.35 Q-28.15 -4.2 -26.65 -5.45 -25.15 -6.7 -22.0 -7.55 -18.85 -8.45 -15.85 -8.45 -12.95 -8.45 -11.9 -7.55 -10.85 -6.7 -12.35 -5.45 -13.85 -4.2 -17.0 -3.35 -20.2 -2.45 -23.15 -2.45 -26.1 -2.45 -27.1 -3.35" fill="none" stroke="#000000" stroke-linecap="round" stroke-linejoin="round" stroke-width="3.0"/>
    </g>
  </defs>
</svg>
