<?xml version="1.0" encoding="UTF-8" standalone="no"?>
<svg xmlns:xlink="http://www.w3.org/1999/xlink" height="720.75px" width="1716.8px" xmlns="http://www.w3.org/2000/svg">
  <g transform="matrix(1, 0, 0, 1, 307.05, 450.35)">
    <use height="107.6" transform="matrix(1.0, 0.0, 0.0, 1.0, -34.35, -75.9)" width="68.7" xlink:href="#shape0"/>
  </g>
  <defs>
    <g id="shape0" transform="matrix(1, 0, 0, 1, 34.35, 75.9)">
      <path d="M2.5 -28.65 Q2.5 -29.65 3.15 -30.35 3.85 -31.05 4.85 -31.05 5.85 -31.05 6.55 -30.35 7.25 -29.65 7.25 -28.65 7.25 -27.65 6.55 -27.0 5.85 -26.3 4.85 -26.25 3.85 -26.3 3.15 -27.0 2.5 -27.65 2.5 -28.65 M4.5 -19.8 Q5.2 -20.45 6.2 -20.45 7.2 -20.45 7.9 -19.8 8.6 -19.05 8.6 -18.05 8.6 -17.1 7.9 -16.4 7.2 -15.7 6.2 -15.7 5.2 -15.7 4.5 -16.4 3.85 -17.1 3.85 -18.05 3.85 -19.05 4.5 -19.8 M9.3 -6.8 Q9.25 -5.85 8.55 -5.15 7.85 -4.45 6.9 -4.45 5.9 -4.45 5.2 -5.15 4.5 -5.85 4.5 -6.8 4.5 -7.8 5.2 -8.55 5.9 -9.2 6.9 -9.2 7.85 -9.2 8.55 -8.55 9.25 -7.8 9.3 -6.8 M-4.4 9.1 L-6.2 9.35 Q-7.2 9.05 -7.65 8.2 -8.2 7.35 -7.9 6.4 -7.7 5.45 -6.8 4.95 -5.95 4.45 -5.0 4.7 -4.05 4.95 -3.5 5.8 -3.05 6.65 -3.3 7.65 -3.55 8.6 -4.4 9.1 M-17.35 3.3 Q-16.55 2.8 -15.55 3.05 -14.6 3.3 -14.05 4.15 -13.6 5.0 -13.85 6.0 -14.15 6.95 -14.95 7.4 L-16.8 7.65 Q-17.75 7.4 -18.2 6.55 -18.75 5.7 -18.5 4.75 -18.25 3.8 -17.35 3.3 M-28.4 1.05 Q-27.6 0.55 -26.6 0.8 -25.65 1.05 -25.1 1.9 -24.65 2.75 -24.9 3.75 -25.2 4.65 -26.0 5.15 -26.9 5.65 -27.8 5.4 -28.8 5.15 -29.25 4.3 -29.8 3.45 -29.5 2.5 -29.3 1.55 -28.4 1.05 M25.65 3.7 Q25.65 2.7 26.35 2.05 27.05 1.3 28.05 1.3 29.0 1.3 29.7 2.05 30.4 2.7 30.45 3.7 30.4 4.7 29.7 5.4 29.0 6.1 28.05 6.1 27.05 6.1 26.35 5.4 25.65 4.7 25.65 3.7 M17.0 4.0 Q18.0 4.0 18.7 4.75 19.4 5.4 19.4 6.4 19.4 7.4 18.7 8.1 18.0 8.8 17.0 8.8 16.0 8.8 15.3 8.1 14.65 7.4 14.65 6.4 14.65 5.4 15.3 4.75 16.0 4.0 17.0 4.0 M7.9 9.25 Q7.2 9.9 6.2 9.9 5.2 9.9 4.5 9.25 3.85 8.5 3.85 7.55 3.85 6.55 4.5 5.85 5.2 5.15 6.2 5.15 7.2 5.15 7.9 5.85 8.6 6.55 8.6 7.55 8.6 8.5 7.9 9.25" fill="#a6a6a6" fill-rule="evenodd" stroke="none"/>
      <path d="M-5.45 -35.1 L0.0 -35.5 Q-2.2 -43.45 -0.2 -53.1 L-2.7 -53.1 Q0.7 -56.2 0.35 -61.5 -4.4 -61.3 -7.5 -57.9 L-7.5 -69.6 Q-4.4 -66.2 0.35 -66.0 0.7 -71.3 -2.7 -74.4 L9.0 -74.4 Q5.6 -71.3 5.95 -66.0 10.7 -66.2 13.85 -69.6 L13.85 -57.9 Q10.7 -61.3 5.95 -61.5 5.6 -56.2 9.0 -53.1 L5.85 -53.1 Q8.45 -43.65 5.95 -35.0 L9.45 -34.2 Q15.65 -17.95 12.65 1.4 L-1.65 1.95 12.65 1.4 Q22.7 -0.1 32.8 -4.65 L32.85 -2.65 Q32.85 4.0 30.55 9.75 -0.1 21.0 -31.45 7.1 -32.85 2.5 -32.85 -2.65 -32.85 -5.3 -32.5 -7.8 -17.2 0.8 -1.65 1.95 2.35 -17.65 -5.45 -35.1 M2.5 -28.65 Q2.5 -27.65 3.15 -27.0 3.85 -26.3 4.85 -26.25 5.85 -26.3 6.55 -27.0 7.25 -27.65 7.25 -28.65 7.25 -29.65 6.55 -30.35 5.85 -31.05 4.85 -31.05 3.85 -31.05 3.15 -30.35 2.5 -29.65 2.5 -28.65 M0.0 -35.5 L5.95 -35.0 0.0 -35.5 M7.9 9.25 Q8.6 8.5 8.6 7.55 8.6 6.55 7.9 5.85 7.2 5.15 6.2 5.15 5.2 5.15 4.5 5.85 3.85 6.55 3.85 7.55 3.85 8.5 4.5 9.25 5.2 9.9 6.2 9.9 7.2 9.9 7.9 9.25 M17.0 4.0 Q16.0 4.0 15.3 4.75 14.65 5.4 14.65 6.4 14.65 7.4 15.3 8.1 16.0 8.8 17.0 8.8 18.0 8.8 18.7 8.1 19.4 7.4 19.4 6.4 19.4 5.4 18.7 4.75 18.0 4.0 17.0 4.0 M25.65 3.7 Q25.65 4.7 26.35 5.4 27.05 6.1 28.05 6.1 29.0 6.1 29.7 5.4 30.4 4.7 30.45 3.7 30.4 2.7 29.7 2.05 29.0 1.3 28.05 1.3 27.05 1.3 26.35 2.05 25.65 2.7 25.65 3.7 M-28.4 1.05 Q-29.3 1.55 -29.5 2.5 -29.8 3.45 -29.25 4.3 -28.8 5.15 -27.8 5.4 -26.9 5.65 -26.0 5.15 -25.2 4.65 -24.9 3.75 -24.65 2.75 -25.1 1.9 -25.65 1.05 -26.6 0.8 -27.6 0.55 -28.4 1.05 M-17.35 3.3 Q-18.25 3.8 -18.5 4.75 -18.75 5.7 -18.2 6.55 -17.75 7.4 -16.8 7.65 L-14.95 7.4 Q-14.15 6.95 -13.85 6.0 -13.6 5.0 -14.05 4.15 -14.6 3.3 -15.55 3.05 -16.55 2.8 -17.35 3.3 M-4.4 9.1 Q-3.55 8.6 -3.3 7.65 -3.05 6.65 -3.5 5.8 -4.05 4.95 -5.0 4.7 -5.95 4.45 -6.8 4.95 -7.7 5.45 -7.9 6.4 -8.2 7.35 -7.65 8.2 -7.2 9.05 -6.2 9.35 L-4.4 9.1 M9.3 -6.8 Q9.25 -7.8 8.55 -8.55 7.85 -9.2 6.9 -9.2 5.9 -9.2 5.2 -8.55 4.5 -7.8 4.5 -6.8 4.5 -5.85 5.2 -5.15 5.9 -4.45 6.9 -4.45 7.85 -4.45 8.55 -5.15 9.25 -5.85 9.3 -6.8 M4.5 -19.8 Q3.85 -19.05 3.85 -18.05 3.85 -17.1 4.5 -16.4 5.2 -15.7 6.2 -15.7 7.2 -15.7 7.9 -16.4 8.6 -17.1 8.6 -18.05 8.6 -19.05 7.9 -19.8 7.2 -20.45 6.2 -20.45 5.2 -20.45 4.5 -19.8 M-0.2 -53.1 L5.85 -53.1 -0.2 -53.1" fill="url(#gradient0)" fill-rule="evenodd" stroke="none"/>
      <path d="M9.45 -34.2 Q17.15 -31.95 23.25 -25.85 32.15 -16.95 32.8 -4.65 22.7 -0.1 12.65 1.4 15.65 -17.95 9.45 -34.2 M30.55 9.75 Q28.1 15.65 23.25 20.6 13.6 30.2 0.0 30.2 -13.6 30.2 -23.2 20.6 -29.2 14.6 -31.45 7.1 -0.1 21.0 30.55 9.75 M-32.5 -7.8 Q-30.95 -18.15 -23.2 -25.85 -15.6 -33.5 -5.45 -35.1 2.35 -17.65 -1.65 1.95 -17.2 0.8 -32.5 -7.8" fill="url(#gradient1)" fill-rule="evenodd" stroke="none"/>
      <path d="M-5.45 -35.1 L0.0 -35.5 Q-2.2 -43.45 -0.2 -53.1 L-2.7 -53.1 Q0.7 -56.2 0.35 -61.5 -4.4 -61.3 -7.5 -57.9 L-7.5 -69.6 Q-4.4 -66.2 0.35 -66.0 0.7 -71.3 -2.7 -74.4 L9.0 -74.4 Q5.6 -71.3 5.95 -66.0 10.7 -66.2 13.85 -69.6 L13.85 -57.9 Q10.7 -61.3 5.95 -61.5 5.6 -56.2 9.0 -53.1 L5.85 -53.1 Q8.45 -43.65 5.95 -35.0 L9.45 -34.2 Q17.15 -31.95 23.25 -25.85 32.15 -16.95 32.8 -4.65 L32.85 -2.65 Q32.85 4.0 30.55 9.75 28.1 15.65 23.25 20.6 13.6 30.2 0.0 30.2 -13.6 30.2 -23.2 20.6 -29.2 14.6 -31.45 7.1 -32.85 2.5 -32.85 -2.65 -32.85 -5.3 -32.5 -7.8 -30.95 -18.15 -23.2 -25.85 -15.6 -33.5 -5.45 -35.1 2.35 -17.65 -1.65 1.95 L12.65 1.4 Q15.65 -17.95 9.45 -34.2 M5.95 -35.0 L0.0 -35.5 M-32.5 -7.8 Q-17.2 0.8 -1.65 1.95 M12.65 1.4 Q22.7 -0.1 32.8 -4.65 M-31.45 7.1 Q-0.1 21.0 30.55 9.75 M5.85 -53.1 L-0.2 -53.1" fill="none" stroke="#000000" stroke-linecap="round" stroke-linejoin="round" stroke-width="3.0"/>
      <path d="M2.5 -28.65 Q2.5 -29.65 3.15 -30.35 3.85 -31.05 4.85 -31.05 5.85 -31.05 6.55 -30.35 7.25 -29.65 7.25 -28.65 7.25 -27.65 6.55 -27.0 5.85 -26.3 4.85 -26.25 3.85 -26.3 3.15 -27.0 2.5 -27.65 2.5 -28.65 M4.5 -19.8 Q5.2 -20.45 6.2 -20.45 7.2 -20.45 7.9 -19.8 8.6 -19.05 8.6 -18.05 8.6 -17.1 7.9 -16.4 7.2 -15.7 6.2 -15.7 5.2 -15.7 4.5 -16.4 3.85 -17.1 3.85 -18.05 3.85 -19.05 4.5 -19.8 M9.3 -6.8 Q9.25 -5.85 8.55 -5.15 7.85 -4.45 6.9 -4.45 5.9 -4.45 5.2 -5.15 4.5 -5.85 4.5 -6.8 4.5 -7.8 5.2 -8.55 5.9 -9.2 6.9 -9.2 7.85 -9.2 8.55 -8.55 9.25 -7.8 9.3 -6.8 M-4.4 9.1 L-6.2 9.35 Q-7.2 9.05 -7.65 8.2 -8.2 7.35 -7.9 6.4 -7.7 5.45 -6.8 4.95 -5.95 4.45 -5.0 4.7 -4.05 4.95 -3.5 5.8 -3.05 6.65 -3.3 7.65 -3.55 8.6 -4.4 9.1 M-17.35 3.3 Q-16.55 2.8 -15.55 3.05 -14.6 3.3 -14.05 4.15 -13.6 5.0 -13.85 6.0 -14.15 6.95 -14.95 7.4 L-16.8 7.65 Q-17.75 7.4 -18.2 6.55 -18.75 5.7 -18.5 4.75 -18.25 3.8 -17.35 3.3 M-28.4 1.05 Q-27.6 0.55 -26.6 0.8 -25.65 1.05 -25.1 1.9 -24.65 2.75 -24.9 3.75 -25.2 4.65 -26.0 5.15 -26.9 5.65 -27.8 5.4 -28.8 5.15 -29.25 4.3 -29.8 3.45 -29.5 2.5 -29.3 1.55 -28.4 1.05 M25.65 3.7 Q25.65 2.7 26.35 2.05 27.05 1.3 28.05 1.3 29.0 1.3 29.7 2.05 30.4 2.7 30.45 3.7 30.4 4.7 29.7 5.4 29.0 6.1 28.05 6.1 27.05 6.1 26.35 5.4 25.65 4.7 25.65 3.7 M17.0 4.0 Q18.0 4.0 18.7 4.75 19.4 5.4 19.4 6.4 19.4 7.4 18.7 8.1 18.0 8.8 17.0 8.8 16.0 8.8 15.3 8.1 14.65 7.4 14.65 6.4 14.65 5.4 15.3 4.75 16.0 4.0 17.0 4.0 M7.9 9.25 Q7.2 9.9 6.2 9.9 5.2 9.9 4.5 9.25 3.85 8.5 3.85 7.55 3.85 6.55 4.5 5.85 5.2 5.15 6.2 5.15 7.2 5.15 7.9 5.85 8.6 6.55 8.6 7.55 8.6 8.5 7.9 9.25" fill="none" stroke="#000000" stroke-linecap="round" stroke-linejoin="round" stroke-width="2.0"/>
    </g>
    <radialGradient cx="0" cy="0" gradientTransform="matrix(0.9, 0.0, 0.0, 0.9, -68.4, -94.0)" gradientUnits="userSpaceOnUse" id="gradient0" r="819.2" spreadMethod="pad">
      <stop offset="0.0" stop-color="#fef5d6"/>
      <stop offset="1.0" stop-color="#ddc700"/>
    </radialGradient>
    <radialGradient cx="0" cy="0" gradientTransform="matrix(0.0468, 0.0, 0.0, 0.0468, -9.0, -10.3)" gradientUnits="userSpaceOnUse" id="gradient1" r="819.2" spreadMethod="pad">
      <stop offset="0.0" stop-color="#fef5d6"/>
      <stop offset="1.0" stop-color="#ddc700"/>
    </radialGradient>
  </defs>
</svg>
