<?xml version="1.0" encoding="UTF-8" standalone="no"?>
<svg xmlns:xlink="http://www.w3.org/1999/xlink" height="720.75px" width="1716.8px" xmlns="http://www.w3.org/2000/svg">
  <g transform="matrix(1, 0, 0, 1, 307.05, 450.35)">
    <use height="96.0" transform="matrix(1.0, 0.0, 0.0, 1.0, -49.5, -69.5)" width="94.85" xlink:href="#sprite0"/>
  </g>
  <defs>
    <g id="sprite0" transform="matrix(1, 0, 0, 1, 49.5, 73.5)">
      <use height="44.0" transform="matrix(1.0, 0.0, 0.0, 1.0, -29.0, -26.0)" width="58.0" xlink:href="#shape0"/>
    </g>
    <g id="shape0" transform="matrix(1, 0, 0, 1, 29.0, 26.0)">
      <path d="M11.0 -26.0 Q20.25 -26.0 25.55 -12.6 28.2 -5.85 29.0 1.1 29.0 5.35 28.8 6.5 28.45 8.25 27.6 9.15 26.35 12.0 21.0 14.5 13.65 18.0 4.0 18.0 -18.1 18.0 -24.55 15.2 -26.85 14.25 -27.75 12.6 L-29.0 10.0 -29.0 7.75 -28.0 7.45 -28.0 7.25 Q-28.0 -15.0 -19.5 -15.0 -16.85 -15.0 -15.6 -13.25 -14.35 -11.5 -9.65 -11.5 -6.8 -11.5 0.25 -18.75 7.3 -26.0 11.0 -26.0 M7.55 -18.25 L3.3 -13.25 Q-3.2 -6.0 -9.0 -6.0 -14.1 -6.0 -16.7 -7.0 L-19.75 -8.75 Q-22.35 -5.8 -22.4 -0.6 L-22.3 7.7 -22.0 7.85 -19.3 9.75 Q-14.0 12.5 3.85 12.5 16.2 12.5 20.35 9.5 L22.75 7.0 23.7 6.0 22.65 2.3 20.3 -7.85 Q17.0 -20.5 10.5 -20.5 9.55 -20.5 7.55 -18.25" fill="#000000" fill-rule="evenodd" stroke="none"/>
      <path d="M7.55 -18.25 Q9.55 -20.5 10.5 -20.5 17.0 -20.5 20.3 -7.85 L22.65 2.3 23.7 6.0 22.75 7.0 20.35 9.5 Q16.2 12.5 3.85 12.5 -14.0 12.5 -19.3 9.75 L-22.0 7.85 -22.3 7.7 -22.4 -0.6 Q-22.35 -5.8 -19.75 -8.75 L-16.7 -7.0 Q-14.1 -6.0 -9.0 -6.0 -3.2 -6.0 3.3 -13.25 L7.55 -18.25" fill="#b7b7b7" fill-rule="evenodd" stroke="none"/>
    </g>
  </defs>
</svg>
