<?xml version="1.0" encoding="UTF-8" standalone="no"?>
<svg xmlns:xlink="http://www.w3.org/1999/xlink" height="720.75px" width="1716.8px" xmlns="http://www.w3.org/2000/svg">
  <g transform="matrix(1, 0, 0, 1, 307.05, 450.35)">
    <use height="108.3" transform="matrix(0.7, 0.0, 0.0, 0.7, -45.0098, -37.9048)" width="128.65" xlink:href="#sprite0"/>
  </g>
  <defs>
    <g id="sprite0" transform="matrix(1, 0, 0, 1, 64.3, 54.15)">
      <use height="108.3" transform="matrix(1.0, 0.0, 0.0, 1.0, -64.3, -54.15)" width="128.65" xlink:href="#shape0"/>
    </g>
    <g id="shape0" transform="matrix(1, 0, 0, 1, 64.3, 54.15)">
      <path d="M-56.65 1.7 L-56.7 1.7 -52.8 0.9 Q-9.4 -7.6 34.95 -5.65 33.5 -2.3 32.75 1.1 L30.5 9.1 Q30.3 9.7 29.7 10.1 L29.55 10.2 Q28.85 10.25 28.25 10.7 L27.75 11.25 27.7 11.6 27.65 11.95 Q27.45 11.1 26.4 11.05 L19.95 10.85 3.65 11.6 -32.45 14.7 -34.75 21.1 -34.8 21.45 -34.85 22.6 -34.95 22.95 -35.15 23.35 -35.4 24.45 -35.75 25.65 -35.9 25.95 -36.05 26.7 -36.1 27.5 -36.2 27.65 -36.25 28.1 -36.5 28.75 -36.8 30.1 -36.8 30.25 Q-38.25 35.25 -39.95 45.75 L-40.55 51.0 -47.35 50.9 -46.45 50.95 Q-44.9 47.2 -44.25 42.9 -42.65 32.55 -39.6 22.35 -37.9 16.75 -38.3 12.0 L-48.85 13.05 -48.95 14.0 -52.95 33.1 Q-54.7 42.05 -55.0 50.35 L-60.3 49.7 Q-59.95 49.2 -59.9 48.6 -59.15 36.6 -56.75 25.0 -54.45 14.05 -55.25 4.3 L-55.55 1.85 Q-56.85 2.0 -56.95 3.35 L-56.95 3.65 -57.05 3.55 -57.3 2.95 Q-57.5 2.05 -56.65 1.7" fill="#6a6a6a" fill-rule="evenodd" stroke="none"/>
      <path d="M-47.35 50.9 L-40.55 51.0 -39.95 45.75 Q-38.25 35.25 -36.8 30.25 L-36.8 30.1 -36.5 28.75 -36.25 28.1 -36.2 27.65 -36.1 27.5 -36.05 26.7 -35.9 25.95 -35.75 25.65 -35.4 24.45 -35.15 23.35 -34.95 22.95 -34.85 22.6 -34.8 21.45 -34.75 21.1 -32.45 14.7 3.65 11.6 19.95 10.85 26.4 11.05 Q27.45 11.1 27.65 11.95 L27.7 11.6 27.75 11.25 28.25 10.7 Q28.85 10.25 29.55 10.2 L29.7 10.1 Q30.3 9.7 30.5 9.1 L32.75 1.1 Q33.5 -2.3 34.95 -5.65 -9.4 -7.6 -52.8 0.9 L-56.7 1.7 -56.65 1.7 Q-52.0 -4.9 -40.85 -5.6 L28.95 -9.15 35.9 -8.9 37.05 -8.55 Q38.05 -6.9 37.35 -4.9 35.5 0.25 34.25 5.75 33.35 9.5 31.45 12.85 L31.15 13.05 28.25 12.95 27.7 12.2 Q12.35 14.4 -4.2 15.25 L-6.0 15.35 Q-4.95 18.25 -9.55 21.95 L-18.25 29.5 -33.8 29.25 -35.1 35.25 Q-36.1 39.75 -38.05 53.25 L-38.1 53.1 -38.2 53.2 -38.7 53.95 Q-50.6 54.8 -62.7 51.7 -61.8 39.55 -59.85 27.4 -57.95 15.55 -56.95 3.65 L-56.95 3.35 Q-56.85 2.0 -55.55 1.85 L-55.25 4.3 Q-54.45 14.05 -56.75 25.0 -59.15 36.6 -59.9 48.6 -59.95 49.2 -60.3 49.7 L-55.0 50.35 -54.1 50.45 -47.35 50.9 M-32.0 21.55 L-32.15 22.0 -32.4 23.1 -32.55 23.85 -32.75 24.6 -32.8 24.95 Q-32.75 25.6 -33.15 26.15 L-33.3 26.45 -33.35 26.85 Q-26.9 26.9 -20.4 27.1 L-18.5 25.55 Q-10.9 19.75 -7.7 15.45 L-29.05 17.25 Q-28.05 18.9 -25.55 20.2 -23.15 21.45 -21.75 22.4 L-20.45 23.45 Q-24.5 24.55 -29.1 21.4 -30.6 20.35 -31.1 19.0 L-31.75 20.85 -32.0 21.55" fill="#000000" fill-rule="evenodd" stroke="none"/>
      <path d="M-55.0 50.35 Q-54.7 42.05 -52.95 33.1 L-48.95 14.0 -48.85 13.05 -38.3 12.0 Q-37.9 16.75 -39.6 22.35 -42.65 32.55 -44.25 42.9 -44.9 47.2 -46.45 50.95 L-47.35 50.9 -54.1 50.45 -55.0 50.35" fill="#626262" fill-rule="evenodd" stroke="none"/>
      <path d="M63.55 -15.05 Q63.0 -14.15 61.95 -13.8 55.25 -11.5 53.45 -16.45 L52.8 -19.1 Q52.05 -22.55 50.0 -24.2 L48.45 -26.05 48.45 -26.4 48.35 -27.15 48.15 -27.5 47.8 -27.9 47.15 -28.05 45.55 -28.15 Q44.5 -31.0 43.9 -34.2 42.75 -40.5 35.7 -39.15 34.45 -38.6 32.7 -38.6 31.3 -38.6 30.4 -38.05 L30.65 -38.65 Q32.05 -43.0 35.4 -45.8 49.55 -57.45 55.65 -43.2 61.45 -29.75 63.55 -15.05 M43.95 2.3 L44.25 2.9 44.2 2.85 Q43.85 2.95 43.55 3.4 42.25 5.55 43.35 7.85 L43.75 8.65 45.3 12.2 Q42.6 14.1 40.6 12.2 36.7 8.5 32.75 7.85 36.8 7.05 40.45 4.85 L43.95 2.3 M-58.55 -24.05 L-58.35 -24.3 -57.35 -23.3 Q-56.8 -22.5 -55.8 -22.7 L-55.3 -22.8 -55.05 -23.1 -54.05 -26.0 Q-53.6 -27.4 -52.75 -28.65 L-52.45 -29.05 Q-49.25 -30.85 -47.15 -28.95 L-47.05 -28.65 -47.05 -27.55 -47.05 -26.4 -47.0 -25.65 -46.95 -25.3 Q-46.05 -24.4 -44.75 -24.2 L-44.4 -23.8 -44.2 -23.4 Q-44.0 -22.3 -45.3 -21.95 -46.1 -21.75 -46.05 -21.05 L-46.05 -20.65 -46.0 -20.5 -50.45 -18.85 Q-53.8 -17.45 -55.75 -14.8 L-55.8 -14.8 Q-56.5 -14.8 -57.15 -15.1 L-57.55 -15.4 -58.1 -16.9 Q-58.6 -18.5 -58.6 -20.3 L-58.55 -24.05 M29.2 -11.15 L28.9 -11.05 28.7 -11.15 28.25 -10.95 Q26.7 -9.75 28.15 -9.65 27.95 -8.85 28.2 -7.95 L28.45 -5.65 28.45 -5.4 Q27.2 -4.2 26.6 -2.6 26.15 -1.35 26.95 -0.4 28.7 0.05 29.7 -1.7 L30.3 -2.75 31.55 -1.85 Q34.15 -0.6 35.45 -2.8 L35.05 -3.4 Q34.1 -4.35 32.75 -4.85 L31.4 -5.35 31.35 -8.6 Q31.5 -10.8 29.2 -11.15 M34.6 -26.95 Q33.7 -26.3 33.95 -25.15 34.15 -24.25 35.05 -24.55 L36.25 -24.9 Q35.5 -22.65 35.6 -19.85 35.8 -15.2 39.2 -13.8 L39.5 -14.4 39.35 -20.8 Q39.35 -23.55 38.15 -25.45 L38.8 -25.65 Q40.7 -26.15 40.95 -28.15 L40.65 -28.5 39.65 -29.0 38.7 -29.15 38.2 -29.0 34.6 -26.95 M16.95 -24.3 L16.85 -24.65 Q16.55 -25.45 15.65 -25.55 L13.7 -25.65 12.85 -25.55 Q9.35 -25.9 6.15 -24.8 4.15 -24.15 4.55 -22.3 5.1 -21.95 5.75 -21.85 L6.7 -21.75 11.2 -22.25 Q10.4 -19.6 11.1 -16.55 12.25 -11.85 15.2 -9.8 L15.4 -10.05 Q16.05 -13.65 15.05 -17.4 14.25 -20.35 13.05 -22.7 15.1 -23.3 16.95 -24.3 M-61.9 3.95 Q-60.2 -10.7 -47.85 -16.35 -34.25 -22.6 -20.8 -21.55 -21.5 -14.7 -20.3 -8.5 -17.9 3.3 -6.55 4.1 L-4.8 2.1 -0.5 -2.45 0.5 -1.0 Q2.85 2.1 6.35 4.1 17.45 10.45 26.95 5.35 22.65 4.35 17.3 5.45 15.5 2.85 12.35 1.95 8.45 0.75 5.25 -1.4 2.95 -3.0 1.45 -5.0 1.85 -6.0 1.8 -7.15 L1.7 -7.55 -0.15 -7.6 Q-0.95 -9.3 -1.3 -11.15 L-1.35 -11.05 Q-2.55 -8.6 -1.95 -5.95 L-2.05 -5.8 Q-9.65 6.65 -15.4 -6.1 -21.55 -19.75 -14.25 -32.9 -12.25 -36.5 -8.5 -37.85 3.2 -42.15 10.05 -35.65 8.5 -36.15 6.7 -35.65 5.85 -35.45 5.15 -34.7 L4.55 -33.85 2.35 -30.7 Q1.95 -30.2 1.9 -29.6 L1.25 -29.35 Q-3.6 -27.2 -2.95 -22.35 -2.6 -19.25 -4.55 -16.65 -4.7 -15.7 -4.05 -14.95 L-3.0 -13.1 Q-2.45 -11.6 -1.25 -11.3 -0.65 -11.1 0.2 -11.3 L0.5 -11.55 0.9 -12.3 0.9 -12.65 0.7 -13.05 Q-2.45 -14.85 -1.15 -18.7 L0.3 -22.95 Q1.25 -25.85 3.5 -27.75 L3.95 -28.15 5.45 -29.15 5.15 -29.5 5.05 -29.6 5.85 -31.0 6.3 -31.8 Q7.05 -32.95 8.3 -33.05 10.65 -30.9 14.15 -32.3 L15.2 -32.8 Q15.85 -33.1 15.95 -33.75 16.7 -34.35 17.0 -35.4 17.3 -36.3 18.15 -36.95 20.55 -38.85 22.95 -38.05 L23.0 -37.65 Q23.2 -36.95 23.7 -36.4 L24.1 -35.8 24.45 -35.4 Q27.8 -35.45 30.8 -34.45 31.6 -34.2 31.8 -35.05 L31.9 -35.35 Q33.7 -35.35 35.85 -36.35 39.95 -38.3 39.95 -35.65 L40.65 -31.95 Q41.2 -28.0 44.05 -25.25 44.85 -24.5 45.95 -24.6 L46.55 -23.8 48.5 -22.7 48.7 -22.55 Q48.4 -17.45 50.45 -14.65 L50.45 -14.55 Q50.2 -12.9 50.95 -11.55 L46.55 -5.45 Q42.35 0.0 36.45 2.45 29.25 5.55 23.95 7.95 L27.4 8.25 Q25.65 8.85 23.9 9.95 L23.1 9.5 22.7 9.45 Q21.75 9.9 21.85 11.0 L21.85 12.85 Q21.7 14.0 21.15 15.05 L20.95 15.35 Q17.2 15.25 14.3 12.7 11.65 10.45 9.45 7.85 L8.8 7.1 8.2 6.95 1.2 6.85 Q-25.15 10.8 -50.7 10.0 L-51.05 9.95 Q-51.85 10.0 -52.45 10.95 -54.05 13.45 -56.35 15.55 -57.4 16.5 -58.8 16.95 L-59.45 17.1 Q-60.45 15.6 -60.95 13.9 -62.5 9.15 -61.9 3.95" fill="#ffe6e6" fill-rule="evenodd" stroke="none"/>
      <path d="M63.55 -15.05 Q61.45 -29.75 55.65 -43.2 49.55 -57.45 35.4 -45.8 32.05 -43.0 30.65 -38.65 L30.4 -38.05 Q31.3 -38.6 32.7 -38.6 34.45 -38.6 35.7 -39.15 42.75 -40.5 43.9 -34.2 44.5 -31.0 45.55 -28.15 L47.15 -28.05 47.8 -27.9 48.15 -27.5 48.35 -27.15 48.45 -26.4 48.45 -26.05 50.0 -24.2 Q52.05 -22.55 52.8 -19.1 L53.45 -16.45 Q55.25 -11.5 61.95 -13.8 63.0 -14.15 63.55 -15.05 M44.25 2.9 Q45.75 4.5 46.35 7.2 46.95 9.65 48.2 11.8 L48.45 12.45 Q42.9 18.4 36.15 12.4 L33.95 10.1 Q29.05 11.8 24.85 11.7 L24.9 12.6 Q24.8 14.75 23.85 16.55 L22.7 17.85 Q20.15 18.85 17.3 17.55 12.95 15.55 9.25 12.6 7.85 11.45 7.05 9.7 -41.35 13.65 -50.4 12.4 -52.0 14.85 -54.25 16.95 L-56.75 19.05 Q-58.3 20.25 -60.25 19.7 L-61.45 19.2 Q-64.8 14.05 -64.2 4.65 -63.6 -4.75 -57.4 -12.0 -58.25 -12.2 -58.95 -12.8 L-59.95 -14.25 Q-61.3 -17.25 -61.4 -20.65 -61.5 -23.85 -60.25 -26.65 L-60.05 -26.9 -59.8 -27.0 -57.3 -27.25 -56.55 -27.4 -56.3 -27.8 Q-55.75 -29.35 -54.65 -30.5 -53.35 -31.8 -51.8 -32.15 L-46.35 -31.9 -45.2 -31.55 -44.85 -31.1 Q-44.55 -30.6 -44.55 -30.05 L-44.55 -28.15 -44.55 -27.4 -43.7 -26.85 Q-41.05 -24.95 -42.25 -21.95 L-42.3 -21.8 -42.35 -21.7 -42.2 -21.75 Q-36.6 -23.5 -30.8 -24.65 L-25.95 -24.25 -20.6 -23.25 -20.6 -23.3 Q-18.7 -36.8 -6.8 -42.65 L3.3 -42.2 Q9.85 -41.8 12.3 -35.7 L12.45 -34.95 13.55 -34.85 Q13.55 -35.7 14.4 -36.7 L16.2 -38.65 Q18.3 -40.7 21.2 -41.15 L23.7 -40.6 Q24.95 -40.2 25.45 -39.05 L25.8 -38.3 28.0 -38.0 Q28.4 -42.35 31.75 -46.3 37.8 -53.4 47.2 -54.15 60.55 -48.2 63.2 -31.95 64.75 -22.05 64.25 -13.25 64.15 -11.8 62.15 -11.5 56.6 -10.8 53.35 -12.3 52.6 -8.0 49.25 -3.5 46.75 -0.1 43.95 2.3 L40.45 4.85 Q36.8 7.05 32.75 7.85 36.7 8.5 40.6 12.2 42.6 14.1 45.3 12.2 L43.75 8.65 43.35 7.85 Q42.25 5.55 43.55 3.4 43.85 2.95 44.2 2.85 L44.25 2.9 M-58.35 -24.3 L-58.55 -24.4 -58.55 -24.05 -58.6 -20.3 Q-58.6 -18.5 -58.1 -16.9 L-57.55 -15.4 -57.15 -15.1 Q-56.5 -14.8 -55.8 -14.8 L-55.75 -14.8 Q-53.8 -17.45 -50.45 -18.85 L-46.0 -20.5 -45.9 -20.55 -46.05 -20.65 -46.05 -21.05 Q-46.1 -21.75 -45.3 -21.95 -44.0 -22.3 -44.2 -23.4 L-44.4 -23.8 -44.75 -24.2 Q-46.05 -24.4 -46.95 -25.3 L-47.0 -25.65 -47.05 -26.4 -47.05 -27.55 -47.05 -28.65 -47.15 -28.95 Q-49.25 -30.85 -52.45 -29.05 L-52.75 -28.65 Q-53.6 -27.4 -54.05 -26.0 L-55.05 -23.1 -55.3 -22.8 -55.8 -22.7 Q-56.8 -22.5 -57.35 -23.3 L-58.35 -24.3 M-61.9 3.95 Q-62.5 9.15 -60.95 13.9 -60.45 15.6 -59.45 17.1 L-58.8 16.95 Q-57.4 16.5 -56.35 15.55 -54.05 13.45 -52.45 10.95 -51.85 10.0 -51.05 9.95 L-50.7 10.0 Q-25.15 10.8 1.2 6.85 L8.2 6.95 8.8 7.1 9.45 7.85 Q11.65 10.45 14.3 12.7 17.2 15.25 20.95 15.35 L21.15 15.05 Q21.7 14.0 21.85 12.85 L21.85 11.0 Q21.75 9.9 22.7 9.45 L23.1 9.5 23.9 9.95 Q25.65 8.85 27.4 8.25 L23.95 7.95 Q29.25 5.55 36.45 2.45 42.35 0.0 46.55 -5.45 L50.95 -11.55 Q50.2 -12.9 50.45 -14.55 L50.45 -14.65 Q48.4 -17.45 48.7 -22.55 L48.5 -22.7 46.55 -23.8 45.95 -24.6 Q44.85 -24.5 44.05 -25.25 41.2 -28.0 40.65 -31.95 L39.95 -35.65 Q39.95 -38.3 35.85 -36.35 33.7 -35.35 31.9 -35.35 L31.8 -35.05 Q31.6 -34.2 30.8 -34.45 27.8 -35.45 24.45 -35.4 L24.1 -35.8 23.7 -36.4 Q23.2 -36.95 23.0 -37.65 L22.95 -38.05 Q20.55 -38.85 18.15 -36.95 17.3 -36.3 17.0 -35.4 16.7 -34.35 15.95 -33.75 15.85 -33.1 15.2 -32.8 L14.15 -32.3 Q10.65 -30.9 8.3 -33.05 7.05 -32.95 6.3 -31.8 L5.85 -31.0 5.05 -29.6 5.15 -29.5 5.45 -29.15 3.95 -28.15 3.5 -27.75 Q1.25 -25.85 0.3 -22.95 L-1.15 -18.7 Q-2.45 -14.85 0.7 -13.05 L0.9 -12.65 0.9 -12.3 0.5 -11.55 0.2 -11.3 Q-0.65 -11.1 -1.25 -11.3 -2.45 -11.6 -3.0 -13.1 L-4.05 -14.95 Q-4.7 -15.7 -4.55 -16.65 -2.6 -19.25 -2.95 -22.35 -3.6 -27.2 1.25 -29.35 L1.9 -29.6 Q1.95 -30.2 2.35 -30.7 L4.55 -33.85 5.15 -34.7 Q5.85 -35.45 6.7 -35.65 8.5 -36.15 10.05 -35.65 3.2 -42.15 -8.5 -37.85 -12.25 -36.5 -14.25 -32.9 -21.55 -19.75 -15.4 -6.1 -9.65 6.65 -2.05 -5.8 L-1.95 -5.95 Q-2.55 -8.6 -1.35 -11.05 L-1.3 -11.15 Q-0.95 -9.3 -0.15 -7.6 L1.7 -7.55 1.8 -7.15 Q1.85 -6.0 1.45 -5.0 2.95 -3.0 5.25 -1.4 8.45 0.75 12.35 1.95 15.5 2.85 17.3 5.45 22.65 4.35 26.95 5.35 17.45 10.45 6.35 4.1 2.85 2.1 0.5 -1.0 L-0.5 -2.45 -4.8 2.1 -6.55 4.1 Q-17.9 3.3 -20.3 -8.5 -21.5 -14.7 -20.8 -21.55 -34.25 -22.6 -47.85 -16.35 -60.2 -10.7 -61.9 3.95 M16.95 -24.3 Q15.1 -23.3 13.05 -22.7 14.25 -20.35 15.05 -17.4 16.05 -13.65 15.4 -10.05 L15.2 -9.8 Q12.25 -11.85 11.1 -16.55 10.4 -19.6 11.2 -22.25 L6.7 -21.75 5.75 -21.85 Q5.1 -21.95 4.55 -22.3 4.15 -24.15 6.15 -24.8 9.35 -25.9 12.85 -25.55 L13.7 -25.65 15.65 -25.55 Q16.55 -25.45 16.85 -24.65 L16.95 -24.3 M34.6 -26.95 L38.2 -29.0 38.7 -29.15 39.65 -29.0 40.65 -28.5 40.95 -28.15 Q40.7 -26.15 38.8 -25.65 L38.15 -25.45 Q39.35 -23.55 39.35 -20.8 L39.5 -14.4 39.2 -13.8 Q35.8 -15.2 35.6 -19.85 35.5 -22.65 36.25 -24.9 L35.05 -24.55 Q34.15 -24.25 33.95 -25.15 33.7 -26.3 34.6 -26.95 M29.2 -11.15 Q31.5 -10.8 31.35 -8.6 L31.4 -5.35 32.75 -4.85 Q34.1 -4.35 35.05 -3.4 L35.45 -2.8 Q34.15 -0.6 31.55 -1.85 L30.3 -2.75 29.7 -1.7 Q28.7 0.05 26.95 -0.4 26.15 -1.35 26.6 -2.6 27.2 -4.2 28.45 -5.4 L28.45 -5.65 28.2 -7.95 Q27.95 -8.85 28.15 -9.65 26.7 -9.75 28.25 -10.95 L28.7 -11.15 28.9 -11.05 29.2 -11.15" fill="#000000" fill-rule="evenodd" stroke="none"/>
    </g>
  </defs>
</svg>
