<?xml version="1.0" encoding="UTF-8" standalone="no"?>
<svg xmlns:xlink="http://www.w3.org/1999/xlink" height="720.75px" width="1716.8px" xmlns="http://www.w3.org/2000/svg">
  <g transform="matrix(1, 0, 0, 1, 307.05, 450.35)">
    <use height="55.0" transform="matrix(1.0, 0.0, 0.0, 1.0, -37.55, -27.5)" width="75.15" xlink:href="#shape0"/>
  </g>
  <defs>
    <g id="shape0" transform="matrix(1, 0, 0, 1, 37.55, 27.5)">
      <path d="M4.2 -19.65 L0.75 -20.3 -0.85 -20.55 Q-2.8 -19.45 -3.5 -17.1 -5.3 -10.9 2.75 -12.9 7.45 -14.0 6.15 -18.55 5.35 -19.35 4.2 -19.65 M22.7 -10.35 Q26.05 -11.9 28.55 -14.05 28.85 -10.0 29.55 -6.05 L31.35 5.95 28.6 7.35 Q28.3 5.6 26.8 4.45 24.75 2.9 22.15 2.95 20.15 3.2 19.1 4.95 17.4 7.85 17.05 11.15 16.9 12.4 17.25 13.15 10.8 16.75 6.4 21.3 5.4 15.9 5.0 10.4 L4.7 7.95 Q8.75 8.1 9.9 3.4 10.7 -0.1 8.8 -1.75 15.3 -6.85 22.7 -10.35 M6.95 -6.9 L4.0 -4.75 Q2.7 -3.85 1.1 -3.3 L-7.9 -8.5 Q-13.5 -11.75 -19.4 -14.25 -22.55 -15.6 -25.85 -16.2 L-28.85 -16.8 -23.9 -17.9 Q-16.55 -19.6 -8.9 -20.15 L-0.9 -20.9 2.35 -21.3 23.6 -21.0 Q28.0 -20.85 26.6 -19.55 L25.6 -18.85 14.55 -12.05 Q10.6 -9.6 6.95 -6.9 M-20.25 12.85 Q-24.35 11.0 -28.35 8.95 -28.35 8.2 -28.65 7.55 -31.8 0.7 -31.3 -6.75 -31.1 -9.8 -31.6 -12.4 -26.95 -11.5 -22.6 -9.95 -23.2 -8.2 -23.4 -6.2 -23.65 -3.3 -21.6 -1.3 -16.9 0.45 -14.6 -3.15 -13.6 -4.7 -13.6 -5.75 L-11.05 -4.25 -3.15 0.95 Q-2.8 5.45 -1.7 10.25 L1.35 21.2 -3.05 19.9 -9.65 17.4 Q-9.35 14.5 -10.2 11.9 -11.3 8.55 -14.85 7.95 L-14.85 8.0 Q-19.0 8.55 -20.05 12.35 L-20.25 12.85" fill="#ffff00" fill-rule="evenodd" stroke="none"/>
      <path d="M33.1 -25.1 L33.4 -20.3 Q34.8 -15.4 34.95 -9.05 35.1 -0.95 37.3 6.7 L37.6 8.2 Q25.85 15.1 14.55 23.4 10.8 26.15 7.15 26.9 L7.1 26.95 7.0 26.95 Q6.2 27.1 7.1 27.5 2.3 26.25 2.5 26.05 -10.85 23.0 -25.0 16.0 -28.45 14.3 -32.35 13.7 -35.3 5.7 -36.15 -2.95 L-37.2 -14.2 -37.55 -19.8 Q-37.2 -20.7 -35.85 -20.8 L-35.5 -20.4 Q-17.25 -25.7 2.1 -26.8 L24.1 -27.45 Q29.5 -27.75 33.1 -25.1 M4.2 -19.65 Q5.35 -19.35 6.15 -18.55 7.45 -14.0 2.75 -12.9 -5.3 -10.9 -3.5 -17.1 -2.8 -19.45 -0.85 -20.55 L0.75 -20.3 4.2 -19.65 M3.85 -16.8 L3.6 -17.15 1.25 -17.3 0.65 -17.1 -0.7 -16.45 -1.85 -15.55 Q-0.75 -14.9 0.75 -14.9 2.1 -14.95 3.2 -15.75 L3.9 -16.45 3.85 -16.8 M6.95 -6.9 Q10.6 -9.6 14.55 -12.05 L25.6 -18.85 26.6 -19.55 Q28.0 -20.85 23.6 -21.0 L2.35 -21.3 -0.9 -20.9 -8.9 -20.15 Q-16.55 -19.6 -23.9 -17.9 L-28.85 -16.8 -25.85 -16.2 Q-22.55 -15.6 -19.4 -14.25 -13.5 -11.75 -7.9 -8.5 L1.1 -3.3 Q2.7 -3.85 4.0 -4.75 L6.95 -6.9 M22.7 -10.35 Q15.3 -6.85 8.8 -1.75 10.7 -0.1 9.9 3.4 8.75 8.1 4.7 7.95 L5.0 10.4 Q5.4 15.9 6.4 21.3 10.8 16.75 17.25 13.15 16.9 12.4 17.05 11.15 17.4 7.85 19.1 4.95 20.15 3.2 22.15 2.95 24.75 2.9 26.8 4.45 28.3 5.6 28.6 7.35 L31.35 5.95 29.55 -6.05 Q28.85 -10.0 28.55 -14.05 26.05 -11.9 22.7 -10.35 M22.65 5.8 Q21.0 6.2 20.35 8.0 19.75 9.8 20.35 11.55 23.3 9.95 26.35 8.45 25.95 7.45 25.2 6.85 24.05 5.9 22.65 5.8 M7.4 0.8 L6.75 -0.05 Q4.85 1.75 3.6 4.0 L4.2 5.6 Q4.5 5.25 5.0 5.0 6.75 4.05 7.25 1.9 L7.4 0.8 M-20.05 12.35 Q-19.0 8.55 -14.85 8.0 L-14.85 7.95 Q-11.3 8.55 -10.2 11.9 -9.35 14.5 -9.65 17.4 L-3.05 19.9 1.35 21.2 -1.7 10.25 Q-2.8 5.45 -3.15 0.95 L-11.05 -4.25 -13.6 -5.75 Q-13.6 -4.7 -14.6 -3.15 -16.9 0.45 -21.6 -1.3 -23.65 -3.3 -23.4 -6.2 -23.2 -8.2 -22.6 -9.95 -26.95 -11.5 -31.6 -12.4 -31.1 -9.8 -31.3 -6.75 -31.8 0.7 -28.65 7.55 -28.35 8.2 -28.35 8.95 -24.35 11.0 -20.25 12.85 L-20.15 12.9 -20.05 12.35 M-19.7 -8.8 Q-20.9 -6.95 -20.4 -4.7 L-20.25 -4.3 -16.75 -4.2 -16.35 -4.55 Q-15.85 -5.1 -16.3 -5.8 -16.7 -6.4 -16.5 -7.15 L-16.45 -7.3 -19.7 -8.8 M-14.35 10.95 Q-16.35 11.05 -16.85 12.9 -17.0 13.6 -17.3 14.2 L-12.45 16.25 -12.3 15.3 Q-12.1 13.5 -13.05 12.1 -13.55 11.35 -14.35 10.95" fill="#000000" fill-rule="evenodd" stroke="none"/>
      <path d="M3.85 -16.8 L3.9 -16.45 3.2 -15.75 Q2.1 -14.95 0.75 -14.9 -0.75 -14.9 -1.85 -15.55 L-0.7 -16.45 0.65 -17.1 1.25 -17.3 3.6 -17.15 3.85 -16.8 M7.4 0.8 L7.25 1.9 Q6.75 4.05 5.0 5.0 4.5 5.25 4.2 5.6 L3.6 4.0 Q4.85 1.75 6.75 -0.05 L7.4 0.8 M22.65 5.8 Q24.05 5.9 25.2 6.85 25.95 7.45 26.35 8.45 23.3 9.95 20.35 11.55 19.75 9.8 20.35 8.0 21.0 6.2 22.65 5.8 M-14.35 10.95 Q-13.55 11.35 -13.05 12.1 -12.1 13.5 -12.3 15.3 L-12.45 16.25 -17.3 14.2 Q-17.0 13.6 -16.85 12.9 -16.35 11.05 -14.35 10.95 M-19.7 -8.8 L-16.45 -7.3 -16.5 -7.15 Q-16.7 -6.4 -16.3 -5.8 -15.85 -5.1 -16.35 -4.55 L-16.75 -4.2 -20.25 -4.3 -20.4 -4.7 Q-20.9 -6.95 -19.7 -8.8" fill="#ffe609" fill-rule="evenodd" stroke="none"/>
      <path d="M-20.25 12.85 L-20.05 12.35 -20.15 12.9 -20.25 12.85" fill="#ffff77" fill-rule="evenodd" stroke="none"/>
    </g>
  </defs>
</svg>
