<?xml version="1.0" encoding="UTF-8" standalone="no"?>
<svg xmlns:xlink="http://www.w3.org/1999/xlink" height="720.75px" width="1716.8px" xmlns="http://www.w3.org/2000/svg">
  <g transform="matrix(1, 0, 0, 1, 307.05, 450.35)">
    <use height="110.75" transform="matrix(1.0, 0.0, 0.0, 1.0, -44.4, -54.65)" width="87.25" xlink:href="#shape0"/>
  </g>
  <defs>
    <g id="shape0" transform="matrix(1, 0, 0, 1, 44.4, 54.65)">
      <path d="M-40.0 -34.15 L-40.15 -34.15 Q-41.85 -34.15 -42.15 -35.75 L-42.15 -37.5 -41.9 -39.65 -41.5 -40.15 Q-42.15 -41.0 -42.15 -42.8 L-41.9 -45.15 Q-41.15 -46.65 -38.15 -46.65 L-37.65 -46.65 Q-37.5 -50.65 -33.65 -50.65 -31.25 -50.65 -28.85 -48.9 L-28.65 -48.75 -28.15 -49.6 Q-27.0 -51.15 -25.4 -51.15 L-21.65 -50.3 -20.5 -49.85 Q-20.2 -50.75 -18.9 -51.65 -16.7 -53.15 -13.4 -53.15 -9.75 -53.15 -8.05 -51.85 L-5.8 -53.3 Q-3.05 -54.65 -0.9 -54.65 1.75 -54.65 3.3 -52.55 L5.1 -53.6 Q7.45 -54.65 9.1 -54.65 12.95 -54.65 13.7 -51.9 14.95 -52.65 18.1 -52.65 22.75 -52.65 23.3 -49.45 L25.6 -51.15 Q28.2 -52.65 29.35 -52.65 32.5 -52.65 34.05 -47.35 L34.35 -46.05 34.3 -45.1 34.1 -44.15 33.9 -44.0 33.9 -43.65 Q38.7 -43.65 37.85 -39.25 L37.85 -39.15 39.1 -39.05 39.25 -39.25 Q40.15 -40.45 40.15 -40.9 40.15 -42.0 38.9 -42.7 37.05 -43.65 35.45 -44.55 L34.9 -44.85 34.85 -45.55 Q34.85 -46.15 35.45 -46.4 L36.85 -46.65 Q42.85 -46.65 42.85 -40.9 42.85 -39.75 41.8 -38.2 L41.5 -37.75 Q42.2 -36.7 41.85 -34.9 41.85 -33.1 41.25 -32.1 L39.5 -30.05 Q40.2 -29.25 39.85 -27.4 39.85 -24.15 37.6 -24.15 36.75 -24.4 36.5 -24.95 L36.35 -25.55 Q36.35 -26.15 36.85 -26.5 37.35 -26.85 37.35 -27.5 L37.2 -28.05 37.2 -28.1 37.15 -28.05 36.4 -27.25 35.6 -26.65 35.0 -26.9 34.5 -27.4 Q34.35 -27.7 34.35 -28.05 35.35 -30.05 35.35 -31.3 35.35 -32.95 34.65 -33.7 L33.85 -33.9 33.55 -34.3 32.7 -34.4 31.05 -33.95 Q32.85 -33.05 32.85 -31.05 L32.65 -29.65 Q32.85 -29.15 31.6 -29.15 30.5 -29.15 30.05 -30.6 L29.65 -31.65 29.1 -30.65 28.05 -31.85 25.85 -31.45 25.8 -31.45 25.85 -31.3 Q25.85 -29.95 24.4 -28.4 22.75 -26.65 20.85 -26.65 L19.85 -26.9 19.8 -26.95 19.85 -26.8 19.75 -25.9 Q19.5 -25.15 18.85 -24.35 L17.55 -23.15 17.35 -23.15 17.15 -23.2 16.35 -23.4 Q15.85 -23.9 15.85 -24.55 L17.15 -26.4 15.0 -28.25 14.1 -28.15 Q13.0 -28.15 12.85 -29.0 12.7 -29.9 10.7 -29.9 9.55 -29.9 9.4 -28.0 L9.35 -27.35 8.95 -27.1 8.1 -26.65 8.0 -26.7 6.45 -25.45 4.1 -24.15 3.65 -24.35 2.85 -24.15 2.25 -24.15 Q0.05 -24.4 -1.9 -26.15 L-2.8 -27.0 -3.05 -27.3 -4.3 -26.95 -6.4 -26.65 Q-7.9 -26.65 -8.6 -27.35 -8.65 -27.0 -8.65 -27.4 L-9.4 -26.65 Q-10.5 -25.75 -11.85 -25.4 L-12.35 -25.25 Q-12.8 -24.65 -14.0 -24.4 L-16.65 -24.15 -17.2 -24.25 -17.4 -23.9 -19.9 -23.65 -22.05 -23.85 -22.55 -24.15 -22.55 -24.4 -22.6 -24.35 Q-23.75 -23.75 -25.65 -23.65 L-26.4 -23.65 Q-30.7 -23.65 -31.7 -24.35 L-32.3 -25.2 Q-34.3 -25.55 -35.6 -26.85 L-35.65 -27.55 -35.4 -28.15 -35.9 -28.55 Q-36.45 -29.1 -36.65 -29.9 L-36.65 -32.4 -36.55 -33.95 -36.55 -34.0 Q-36.0 -38.15 -32.15 -38.15 L-31.6 -38.1 Q-31.4 -39.2 -29.6 -39.5 L-30.7 -41.0 Q-31.85 -42.9 -33.65 -42.9 -35.85 -42.9 -36.25 -40.8 -35.15 -40.4 -35.15 -39.3 L-35.35 -38.15 Q-35.15 -37.65 -36.4 -37.65 L-37.4 -37.15 Q-38.1 -37.35 -38.4 -38.25 L-39.4 -37.55 -39.65 -37.3 Q-39.65 -36.65 -39.15 -36.35 -38.65 -36.0 -38.65 -35.4 -38.65 -34.15 -38.9 -34.65 -39.35 -34.2 -40.0 -34.15 M4.3 -49.8 L4.15 -49.15 Q4.35 -48.65 3.1 -48.65 2.2 -48.65 1.5 -50.25 0.85 -51.9 -1.05 -51.9 -4.15 -51.9 -5.5 -50.8 L-6.05 -50.15 -5.4 -50.15 -3.9 -49.9 -3.65 -49.05 Q-3.65 -48.8 -4.2 -48.15 -1.35 -48.1 -0.15 -47.45 L0.1 -47.3 Q2.05 -48.15 3.35 -48.15 6.4 -48.15 8.0 -46.1 8.3 -47.1 9.4 -48.1 10.5 -49.05 11.8 -49.4 11.3 -49.8 11.1 -50.6 10.7 -52.1 10.15 -52.1 7.1 -52.1 5.7 -50.85 4.8 -50.1 4.3 -49.8 M31.6 -43.1 L31.55 -43.7 Q31.55 -45.1 30.1 -45.1 28.4 -43.3 26.85 -42.45 L27.7 -39.95 Q29.0 -39.4 29.35 -36.8 L29.1 -35.65 Q30.4 -37.15 32.85 -37.15 L34.55 -36.95 Q35.35 -38.15 35.35 -38.9 35.35 -39.45 34.5 -39.75 33.65 -40.05 32.75 -40.7 L32.6 -40.65 32.25 -41.05 31.4 -41.85 31.35 -42.55 31.6 -43.1 M30.35 -47.65 L31.25 -47.55 Q30.4 -49.9 29.1 -49.9 26.9 -49.9 26.2 -48.95 25.2 -47.55 24.1 -47.15 23.5 -47.35 23.2 -47.7 L23.15 -47.6 Q23.3 -47.3 22.75 -47.2 L22.85 -45.9 22.85 -45.7 23.65 -45.1 24.65 -44.85 26.35 -46.4 Q28.4 -47.65 30.35 -47.65 M20.6 -48.15 L20.75 -48.15 20.75 -48.2 20.6 -48.6 Q20.2 -50.1 19.65 -50.1 L15.05 -49.2 Q16.2 -48.55 17.1 -47.0 19.6 -48.15 20.6 -48.15 M27.15 -34.65 Q26.45 -35.55 26.05 -36.4 L25.6 -36.15 Q24.35 -36.55 24.35 -37.55 24.35 -38.15 24.85 -38.3 25.3 -38.45 25.35 -39.0 L25.35 -39.1 Q25.35 -41.05 20.9 -41.9 L20.85 -43.3 20.85 -43.4 Q20.35 -44.1 20.35 -44.8 L20.35 -45.1 20.15 -45.15 13.6 -42.65 Q12.35 -43.05 12.35 -44.05 12.35 -44.55 14.65 -45.75 14.05 -47.1 13.65 -47.1 11.8 -47.1 10.65 -45.55 L9.2 -43.7 9.35 -43.0 9.15 -41.1 8.55 -40.8 Q10.8 -40.15 9.85 -38.05 L9.85 -37.6 14.45 -38.6 Q14.9 -39.65 17.1 -39.65 21.1 -39.65 22.35 -37.4 22.9 -36.4 22.9 -35.4 L24.1 -34.4 27.1 -34.65 27.2 -34.65 27.15 -34.65 M28.5 -34.9 L28.2 -34.6 28.35 -34.6 28.5 -34.9 M22.05 -31.8 L20.6 -30.65 Q19.35 -31.05 19.35 -32.05 20.35 -33.85 20.35 -35.1 20.35 -36.15 19.55 -36.4 L17.35 -36.8 Q17.3 -36.0 17.1 -35.9 L10.85 -35.65 10.6 -35.5 Q10.35 -35.4 10.35 -34.65 10.35 -34.0 10.85 -33.95 11.35 -33.85 11.35 -33.25 L11.3 -32.65 Q13.35 -32.55 14.4 -31.65 L14.85 -31.65 Q17.75 -31.65 19.35 -28.05 19.4 -28.65 20.85 -29.6 L22.9 -31.15 22.9 -31.25 22.35 -31.4 22.05 -31.8 M37.95 -31.25 Q39.35 -34.15 39.35 -34.65 39.35 -35.15 38.6 -35.45 38.05 -35.65 37.5 -36.0 L37.1 -35.0 Q37.85 -33.6 37.85 -31.3 L37.85 -31.05 37.95 -31.25 M37.9 -30.65 L37.85 -31.0 37.85 -30.65 37.9 -30.65 M1.0 -45.1 Q0.25 -44.15 -0.15 -44.15 L-0.45 -44.3 Q-2.05 -42.8 -2.4 -42.65 -3.65 -43.05 -3.65 -44.3 -3.65 -44.85 -3.0 -45.45 L-3.35 -45.6 Q-6.4 -45.6 -7.75 -44.35 L-8.25 -43.9 -8.15 -42.8 -8.15 -42.6 Q-6.6 -41.95 -5.4 -40.65 L-5.15 -40.65 Q0.15 -40.65 -0.15 -36.15 L-0.15 -35.5 2.35 -35.65 3.85 -35.55 5.1 -35.65 6.35 -35.55 Q6.35 -36.25 6.85 -36.9 L7.35 -37.85 7.35 -38.4 Q2.35 -38.3 2.35 -40.05 2.35 -40.9 3.1 -41.1 L5.6 -41.15 7.9 -40.95 Q7.5 -41.7 6.95 -43.8 6.55 -45.4 3.2 -45.4 L1.0 -45.1 M1.6 -32.65 L-0.75 -32.75 0.85 -30.05 Q0.85 -29.5 0.0 -28.85 L0.7 -28.55 Q2.8 -27.6 3.75 -26.45 L4.05 -26.75 5.7 -28.65 Q6.85 -30.1 6.85 -30.65 6.85 -31.1 5.9 -31.4 4.85 -31.75 3.65 -32.75 L1.6 -32.65 M-8.15 -47.8 L-8.1 -48.65 Q-8.75 -48.8 -9.3 -49.5 -9.9 -50.4 -13.55 -50.4 -16.8 -50.4 -17.7 -49.35 L-14.9 -49.65 Q-10.65 -49.65 -9.05 -46.7 L-8.6 -46.9 -8.05 -47.1 -8.15 -47.8 M-8.3 -39.55 L-8.35 -39.6 Q-8.4 -39.15 -9.65 -39.15 L-11.1 -39.4 -10.85 -40.65 -12.15 -40.4 -12.15 -39.2 Q-11.0 -38.75 -9.9 -37.65 -8.15 -35.95 -8.15 -34.8 -8.15 -33.85 -8.65 -32.9 -7.05 -32.3 -7.65 -30.05 L-7.75 -29.1 -7.0 -29.35 -4.95 -29.9 Q-5.65 -30.3 -5.65 -31.05 -2.65 -35.35 -2.65 -36.0 -2.65 -37.0 -7.1 -37.9 L-7.1 -38.55 -8.3 -39.55 M-11.1 -43.4 L-11.15 -43.4 Q-11.65 -43.9 -11.65 -44.55 L-11.4 -45.1 -11.65 -45.4 Q-12.95 -46.9 -15.05 -46.9 L-17.2 -46.65 -17.4 -46.15 Q-17.6 -45.7 -18.2 -45.65 L-18.15 -45.15 -18.7 -44.95 -18.35 -42.1 -19.4 -41.65 Q-20.65 -42.3 -20.65 -44.8 L-20.65 -44.85 Q-21.8 -44.85 -22.35 -43.3 L-22.65 -41.6 -21.15 -39.65 -22.05 -38.5 Q-22.5 -38.15 -22.9 -38.15 L-23.0 -38.15 -23.0 -38.1 -22.8 -37.75 -22.65 -37.9 -22.0 -38.4 Q-20.35 -39.65 -17.9 -39.65 L-15.4 -39.25 -15.15 -39.4 -14.65 -39.55 Q-14.65 -41.25 -14.35 -41.8 -13.65 -43.15 -11.15 -43.15 L-10.65 -43.1 -10.65 -43.3 -11.1 -43.4 M-13.65 -36.0 L-13.85 -34.1 -14.9 -33.65 Q-16.2 -34.0 -16.2 -34.9 L-16.35 -36.9 -19.35 -36.9 Q-20.5 -36.6 -21.2 -35.3 -18.95 -34.3 -18.65 -30.15 -18.65 -28.3 -18.8 -27.9 -19.1 -27.15 -20.0 -26.45 L-18.4 -26.65 -17.75 -26.4 -17.4 -26.75 Q-16.6 -27.35 -15.3 -27.25 -14.9 -27.65 -14.0 -27.85 -11.6 -28.45 -10.15 -29.6 L-11.05 -30.4 -11.4 -30.15 Q-12.65 -30.55 -12.65 -31.55 L-10.65 -34.6 Q-11.0 -35.15 -13.25 -36.0 L-13.6 -36.1 -13.65 -36.15 -13.65 -36.0 M-3.4 -30.35 L-2.6 -30.65 -2.8 -30.85 -3.4 -30.35 M-22.8 -47.15 L-25.65 -48.4 Q-25.9 -46.95 -26.65 -46.05 L-26.85 -45.15 Q-26.65 -44.65 -27.9 -44.65 -31.75 -47.9 -33.65 -47.9 -34.9 -47.9 -35.1 -46.65 L-35.15 -46.3 Q-34.35 -46.1 -33.95 -45.65 L-33.9 -45.65 Q-30.95 -45.65 -29.1 -43.5 -28.2 -44.15 -25.65 -44.15 L-24.9 -44.1 Q-24.4 -46.35 -22.8 -47.15 M-27.85 -39.65 L-24.95 -39.3 -25.15 -39.9 -25.15 -40.5 Q-25.45 -41.2 -25.85 -41.4 L-27.8 -41.45 -27.65 -41.05 -27.85 -39.65 M-39.65 -43.9 L-39.75 -41.0 -38.6 -41.15 Q-38.45 -42.85 -37.7 -43.9 L-39.65 -43.9 M-34.15 -34.15 L-34.15 -32.8 Q-34.15 -31.4 -31.65 -29.15 L-32.1 -28.5 Q-30.9 -28.25 -30.2 -27.45 L-26.65 -26.4 -23.85 -26.45 -22.95 -26.55 -22.9 -26.6 -22.6 -26.8 -22.65 -27.05 -22.45 -27.35 -22.4 -28.15 -22.1 -28.0 Q-21.15 -29.75 -21.15 -30.3 L-22.35 -33.1 Q-23.7 -32.95 -23.85 -32.25 -24.05 -31.4 -24.9 -31.15 -26.15 -31.7 -26.15 -33.3 -26.15 -34.2 -25.65 -34.75 L-25.65 -34.8 -25.55 -35.8 -26.4 -36.75 Q-26.65 -36.4 -27.85 -36.25 L-27.65 -35.8 -27.85 -34.65 Q-27.65 -34.15 -28.9 -34.15 -29.5 -34.15 -30.45 -34.75 -31.4 -35.4 -32.05 -35.4 -33.75 -35.4 -34.15 -34.15" fill="#000000" fill-rule="evenodd" stroke="none"/>
      <path d="M34.05 -47.35 L35.25 -46.6 35.45 -46.4 Q34.85 -46.15 34.85 -45.55 L34.9 -44.85 35.45 -44.55 Q37.05 -43.65 38.9 -42.7 40.15 -42.0 40.15 -40.9 40.15 -40.45 39.25 -39.25 L39.1 -39.05 37.85 -39.15 37.85 -39.25 Q38.7 -43.65 33.9 -43.65 L33.9 -44.0 34.1 -44.15 34.3 -45.1 34.35 -46.05 34.05 -47.35 M36.5 -24.95 L35.3 -24.5 34.95 -24.05 Q33.35 -21.8 32.35 -21.8 31.6 -21.8 31.1 -22.95 L30.85 -23.65 19.85 -23.15 17.55 -23.15 18.85 -24.35 Q19.5 -25.15 19.75 -25.9 L19.85 -26.8 19.8 -26.95 19.85 -26.9 20.85 -26.65 Q22.75 -26.65 24.4 -28.4 25.85 -29.95 25.85 -31.3 L25.85 -31.45 28.05 -31.85 29.1 -30.65 29.65 -31.65 30.05 -30.6 Q30.5 -29.15 31.6 -29.15 32.85 -29.15 32.65 -29.65 L32.85 -31.05 Q32.85 -33.05 31.05 -33.95 L32.7 -34.4 33.55 -34.3 33.85 -33.9 34.65 -33.7 Q35.35 -32.95 35.35 -31.3 35.35 -30.05 34.35 -28.05 34.35 -27.7 34.5 -27.4 L35.0 -26.9 35.6 -26.65 36.4 -27.25 37.15 -28.05 37.2 -28.05 37.35 -27.5 Q37.35 -26.85 36.85 -26.5 36.35 -26.15 36.35 -25.55 L36.5 -24.95 M17.15 -23.2 L16.3 -23.25 Q11.7 -23.5 8.65 -24.5 L8.2 -24.65 8.1 -24.55 Q7.1 -22.8 6.2 -22.8 2.55 -22.8 2.25 -24.15 L2.85 -24.15 3.65 -24.35 4.1 -24.15 6.45 -25.45 8.0 -26.7 8.1 -26.65 8.95 -27.1 9.35 -27.35 9.4 -28.0 Q9.55 -29.9 10.7 -29.9 12.7 -29.9 12.85 -29.0 13.0 -28.15 14.1 -28.15 L15.0 -28.25 17.15 -26.4 15.85 -24.55 Q15.85 -23.9 16.35 -23.4 L17.15 -23.2 M-2.8 -27.0 Q-2.65 -26.6 -2.8 -25.9 -4.9 -20.3 -8.3 -20.3 -11.1 -20.3 -12.8 -22.15 -13.8 -23.3 -14.0 -24.4 -12.8 -24.65 -12.35 -25.25 L-11.85 -25.4 Q-10.5 -25.75 -9.4 -26.65 L-8.65 -27.4 Q-8.65 -27.0 -8.6 -27.35 -7.9 -26.65 -6.4 -26.65 L-4.3 -26.95 -3.05 -27.3 -2.8 -27.0 M-22.05 -23.85 Q-22.2 -21.3 -23.3 -21.3 -24.3 -21.3 -25.25 -22.85 L-25.65 -23.65 Q-23.75 -23.75 -22.6 -24.35 L-22.55 -24.4 -22.55 -24.15 -22.05 -23.85 M-35.9 -28.55 Q-37.2 -29.5 -39.15 -32.6 L-40.0 -34.15 Q-39.35 -34.2 -38.9 -34.65 -38.65 -34.15 -38.65 -35.4 -38.65 -36.0 -39.15 -36.35 -39.65 -36.65 -39.65 -37.3 L-39.4 -37.55 -38.4 -38.25 Q-38.1 -37.35 -37.4 -37.15 L-36.4 -37.65 Q-35.15 -37.65 -35.35 -38.15 L-35.15 -39.3 Q-35.15 -40.4 -36.25 -40.8 -35.85 -42.9 -33.65 -42.9 -31.85 -42.9 -30.7 -41.0 L-29.6 -39.5 Q-31.4 -39.2 -31.6 -38.1 L-32.15 -38.15 Q-36.0 -38.15 -36.55 -34.0 L-36.6 -34.0 -36.55 -33.95 -36.65 -32.4 -36.65 -29.9 Q-36.45 -29.1 -35.9 -28.55 M30.35 -47.65 Q28.4 -47.65 26.35 -46.4 L24.65 -44.85 23.65 -45.1 22.85 -45.7 22.85 -45.9 22.75 -47.2 Q23.3 -47.3 23.15 -47.6 L23.2 -47.7 Q23.5 -47.35 24.1 -47.15 25.2 -47.55 26.2 -48.95 26.9 -49.9 29.1 -49.9 30.4 -49.9 31.25 -47.55 L30.35 -47.65 M31.6 -43.1 L31.35 -42.55 31.4 -41.85 32.25 -41.05 32.6 -40.65 32.75 -40.7 Q33.65 -40.05 34.5 -39.75 35.35 -39.45 35.35 -38.9 35.35 -38.15 34.55 -36.95 L32.85 -37.15 Q30.4 -37.15 29.1 -35.65 L29.35 -36.8 Q29.0 -39.4 27.7 -39.95 L26.85 -42.45 Q28.4 -43.3 30.1 -45.1 31.55 -45.1 31.55 -43.7 L31.6 -43.1 M4.3 -49.8 Q4.8 -50.1 5.7 -50.85 7.1 -52.1 10.15 -52.1 10.7 -52.1 11.1 -50.6 11.3 -49.8 11.8 -49.4 10.5 -49.05 9.4 -48.1 8.3 -47.1 8.0 -46.1 6.4 -48.15 3.35 -48.15 2.05 -48.15 0.1 -47.3 L-0.15 -47.45 Q-1.35 -48.1 -4.2 -48.15 -3.65 -48.8 -3.65 -49.05 L-3.9 -49.9 -5.4 -50.15 -6.05 -50.15 -5.5 -50.8 Q-4.15 -51.9 -1.05 -51.9 0.85 -51.9 1.5 -50.25 2.2 -48.65 3.1 -48.65 4.35 -48.65 4.15 -49.15 L4.3 -49.8 M20.75 -48.2 L20.6 -48.15 Q19.6 -48.15 17.1 -47.0 16.2 -48.55 15.05 -49.2 L19.65 -50.1 Q20.2 -50.1 20.6 -48.6 L20.75 -48.2 M27.1 -34.65 L24.1 -34.4 22.9 -35.4 Q22.9 -36.4 22.35 -37.4 21.1 -39.65 17.1 -39.65 14.9 -39.65 14.45 -38.6 L9.85 -37.6 9.85 -38.05 Q10.8 -40.15 8.55 -40.8 L9.15 -41.1 9.35 -43.0 9.2 -43.7 10.65 -45.55 Q11.8 -47.1 13.65 -47.1 14.05 -47.1 14.65 -45.75 12.35 -44.55 12.35 -44.05 12.35 -43.05 13.6 -42.65 L20.15 -45.15 20.35 -45.1 20.35 -44.8 Q20.35 -44.1 20.85 -43.4 L20.85 -43.3 20.9 -41.9 Q25.35 -41.05 25.35 -39.1 L25.35 -39.0 Q25.3 -38.45 24.85 -38.3 24.35 -38.15 24.35 -37.55 24.35 -36.55 25.6 -36.15 L26.05 -36.4 Q26.45 -35.55 27.15 -34.65 L27.1 -34.65 M37.85 -31.3 Q37.85 -33.6 37.1 -35.0 L37.5 -36.0 Q38.05 -35.65 38.6 -35.45 39.35 -35.15 39.35 -34.65 39.35 -34.15 37.95 -31.25 L37.85 -31.3 M22.05 -31.8 L22.35 -31.4 22.9 -31.25 22.9 -31.15 20.85 -29.6 Q19.4 -28.65 19.35 -28.05 17.75 -31.65 14.85 -31.65 L14.4 -31.65 Q13.35 -32.55 11.3 -32.65 L11.35 -33.25 Q11.35 -33.85 10.85 -33.95 10.35 -34.0 10.35 -34.65 10.35 -35.4 10.6 -35.5 L10.85 -35.65 17.1 -35.9 Q17.3 -36.0 17.35 -36.8 L19.55 -36.4 Q20.35 -36.15 20.35 -35.1 20.35 -33.85 19.35 -32.05 19.35 -31.05 20.6 -30.65 L22.05 -31.8 M-20.65 -44.8 Q-20.65 -42.3 -19.4 -41.65 L-18.35 -42.1 -18.7 -44.95 -18.15 -45.15 -18.2 -45.65 Q-17.6 -45.7 -17.4 -46.15 L-17.2 -46.65 -15.05 -46.9 Q-12.95 -46.9 -11.65 -45.4 L-11.4 -45.1 -11.65 -44.55 Q-11.65 -43.9 -11.15 -43.4 L-11.1 -43.4 -11.15 -43.15 Q-13.65 -43.15 -14.35 -41.8 -14.65 -41.25 -14.65 -39.55 L-15.15 -39.4 -15.4 -39.25 -17.9 -39.65 Q-20.35 -39.65 -22.0 -38.4 L-22.05 -38.5 -21.15 -39.65 -22.65 -41.6 -22.35 -43.3 Q-21.8 -44.85 -20.65 -44.85 L-20.65 -44.8 M-8.3 -39.55 L-7.1 -38.55 -7.1 -37.9 Q-2.65 -37.0 -2.65 -36.0 -2.65 -35.35 -5.65 -31.05 -5.65 -30.3 -4.95 -29.9 L-7.0 -29.35 -7.75 -29.1 -7.65 -30.05 Q-7.05 -32.3 -8.65 -32.9 -8.15 -33.85 -8.15 -34.8 -8.15 -35.95 -9.9 -37.65 -11.0 -38.75 -12.15 -39.2 L-12.15 -40.4 -10.85 -40.65 -11.1 -39.4 -9.65 -39.15 Q-8.4 -39.15 -8.35 -39.6 L-8.3 -39.55 M-8.15 -47.8 L-8.05 -47.1 -8.6 -46.9 -9.05 -46.7 Q-10.65 -49.65 -14.9 -49.65 L-17.7 -49.35 Q-16.8 -50.4 -13.55 -50.4 -9.9 -50.4 -9.3 -49.5 -8.75 -48.8 -8.1 -48.65 L-8.15 -47.8 M1.6 -32.65 L3.65 -32.75 Q4.85 -31.75 5.9 -31.4 6.85 -31.1 6.85 -30.65 6.85 -30.1 5.7 -28.65 L4.05 -26.75 3.75 -26.45 Q2.8 -27.6 0.7 -28.55 L0.0 -28.85 Q0.85 -29.5 0.85 -30.05 L-0.75 -32.75 1.6 -32.65 M1.0 -45.1 L3.2 -45.4 Q6.55 -45.4 6.95 -43.8 7.5 -41.7 7.9 -40.95 L5.6 -41.15 3.1 -41.1 Q2.35 -40.9 2.35 -40.05 2.35 -38.3 7.35 -38.4 L7.35 -37.85 6.85 -36.9 Q6.35 -36.25 6.35 -35.55 L5.1 -35.65 3.85 -35.55 2.35 -35.65 -0.15 -35.5 -0.15 -36.15 Q0.15 -40.65 -5.15 -40.65 L-5.4 -40.65 Q-6.6 -41.95 -8.15 -42.6 L-8.15 -42.8 -8.25 -43.9 -7.75 -44.35 Q-6.4 -45.6 -3.35 -45.6 L-3.0 -45.45 Q-3.65 -44.85 -3.65 -44.3 -3.65 -43.05 -2.4 -42.65 -2.05 -42.8 -0.45 -44.3 L-0.15 -44.15 Q0.25 -44.15 1.0 -45.1 M-13.6 -36.1 L-13.25 -36.0 Q-11.0 -35.15 -10.65 -34.6 L-12.65 -31.55 Q-12.65 -30.55 -11.4 -30.15 L-11.05 -30.4 -10.15 -29.6 Q-11.6 -28.45 -14.0 -27.85 -14.9 -27.65 -15.3 -27.25 -16.6 -27.35 -17.4 -26.75 L-17.75 -26.4 -18.4 -26.65 -20.0 -26.45 Q-19.1 -27.15 -18.8 -27.9 -18.65 -28.3 -18.65 -30.15 -18.95 -34.3 -21.2 -35.3 -20.5 -36.6 -19.35 -36.9 L-16.35 -36.9 -16.2 -34.9 Q-16.2 -34.0 -14.9 -33.65 L-13.85 -34.1 -13.65 -36.0 -13.6 -36.1 M-22.8 -47.15 Q-24.4 -46.35 -24.9 -44.1 L-25.65 -44.15 Q-28.2 -44.15 -29.1 -43.5 -30.95 -45.65 -33.9 -45.65 L-33.95 -45.65 Q-34.35 -46.1 -35.15 -46.3 L-35.1 -46.65 Q-34.9 -47.9 -33.65 -47.9 -31.75 -47.9 -27.9 -44.65 -26.65 -44.65 -26.85 -45.15 L-26.65 -46.05 Q-25.9 -46.95 -25.65 -48.4 L-22.8 -47.15 M-27.85 -39.65 L-27.65 -41.05 -27.8 -41.45 -25.85 -41.4 Q-25.45 -41.2 -25.15 -40.5 L-25.15 -39.9 -24.95 -39.3 -27.85 -39.65 M-34.15 -34.15 Q-33.75 -35.4 -32.05 -35.4 -31.4 -35.4 -30.45 -34.75 -29.5 -34.15 -28.9 -34.15 -27.65 -34.15 -27.85 -34.65 L-27.65 -35.8 -27.85 -36.25 Q-26.65 -36.4 -26.4 -36.75 L-25.55 -35.8 -25.65 -34.8 -25.65 -34.75 Q-26.15 -34.2 -26.15 -33.3 -26.15 -31.7 -24.9 -31.15 -24.05 -31.4 -23.85 -32.25 -23.7 -32.95 -22.35 -33.1 L-21.15 -30.3 Q-21.15 -29.75 -22.1 -28.0 L-22.4 -28.15 -22.45 -27.35 -22.65 -27.05 -22.6 -26.8 -22.9 -26.6 -22.95 -26.55 -23.85 -26.45 -26.65 -26.4 -30.2 -27.45 Q-30.9 -28.25 -32.1 -28.5 L-31.65 -29.15 Q-34.15 -31.4 -34.15 -32.8 L-34.15 -34.15 M-39.65 -43.9 L-37.7 -43.9 Q-38.45 -42.85 -38.6 -41.15 L-39.75 -41.0 -39.65 -43.9" fill="#ffffbb" fill-rule="evenodd" stroke="none"/>
      <path d="M29.85 -23.75 L33.1 -20.9 39.85 -28.1 39.85 54.6 29.85 54.6 29.85 -23.75 M19.85 54.6 L9.85 54.6 9.85 -25.85 11.1 -27.55 19.85 -21.25 19.85 54.6 M-0.15 54.6 L-10.15 54.6 -10.15 -21.6 -8.9 -20.4 -1.9 -27.9 -0.15 -26.55 -0.15 54.6 M-20.15 54.6 L-29.9 54.6 -29.9 -28.4 -22.9 -20.4 -20.15 -23.3 -20.15 54.6 M-36.65 43.95 L-42.9 34.1 -42.9 -41.9 -38.4 -29.3 -36.65 -31.55 -36.65 43.95" fill="#e82828" fill-rule="evenodd" stroke="none"/>
      <path d="M29.85 54.6 L19.85 54.6 19.85 -21.25 20.1 -21.1 25.1 -27.9 29.85 -23.75 29.85 54.6 M9.85 54.6 L-0.15 54.6 -0.15 -26.55 6.6 -21.4 9.85 -25.85 9.85 54.6 M-10.15 54.6 L-20.15 54.6 -20.15 -23.3 -16.25 -27.4 -10.15 -21.6 -10.15 54.6 M-29.9 54.6 L-36.65 43.95 -36.65 -31.55 -35.4 -33.2 -34.4 -23.35 -29.9 -28.4 -29.9 54.6" fill="#ffffff" fill-rule="evenodd" stroke="none"/>
      <path d="M29.85 -23.75 L33.1 -20.9 39.85 -28.1 39.85 54.6 29.85 54.6 19.85 54.6 9.85 54.6 -0.15 54.6 -10.15 54.6 -20.15 54.6 -29.9 54.6 -36.65 43.95 -42.9 34.1 -42.9 -41.9 -38.4 -29.3 -36.65 -31.55 -35.4 -33.2 -34.4 -23.35 -29.9 -28.4 -22.9 -20.4 -20.15 -23.3 -16.25 -27.4 -10.15 -21.6 -8.9 -20.4 -1.9 -27.9 -0.15 -26.55 6.6 -21.4 9.85 -25.85 11.1 -27.55 19.85 -21.25 20.1 -21.1 25.1 -27.9 29.85 -23.75 M-29.9 54.6 L-29.9 -28.4" fill="none" stroke="#000000" stroke-linecap="round" stroke-linejoin="round" stroke-width="3.0"/>
      <path d="M29.85 -23.75 L29.85 54.6 M9.85 -25.85 L9.85 54.6 M-10.15 -21.6 L-10.15 54.6 M-0.15 -26.55 L-0.15 54.6 M19.85 -21.25 L19.85 54.6 M-20.15 -23.3 L-20.15 54.6 M-36.65 -31.55 L-36.65 43.95" fill="none" stroke="#010101" stroke-linecap="round" stroke-linejoin="round" stroke-opacity="0.0" stroke-width="3.0"/>
    </g>
  </defs>
</svg>
