<?xml version="1.0" encoding="UTF-8" standalone="no"?>
<svg xmlns:xlink="http://www.w3.org/1999/xlink" height="720.75px" width="1716.8px" xmlns="http://www.w3.org/2000/svg">
  <g transform="matrix(1, 0, 0, 1, 307.05, 450.35)">
    <use height="60.55" transform="matrix(1.0, 0.0, 0.0, 1.0, -76.55, -30.3)" width="153.1" xlink:href="#shape0"/>
  </g>
  <defs>
    <g id="shape0" transform="matrix(1, 0, 0, 1, 76.55, 30.3)">
      <path d="M-22.35 -20.25 L-18.9 -18.7 -18.4 -18.45 -17.85 -18.2 Q-13.4 -15.8 -11.75 -12.4 L-11.05 -10.3 -10.9 -9.4 Q-10.45 -5.65 -12.75 -0.85 -21.0 16.2 -39.4 21.75 L-41.3 22.35 -45.3 23.15 Q-50.3 23.95 -54.2 23.2 -59.75 22.05 -63.05 17.65 L-64.75 14.9 -64.95 14.5 -67.1 9.0 Q-70.15 -0.75 -67.45 -10.35 L-67.0 -11.75 Q-63.25 -22.7 -50.4 -23.85 L-43.0 -24.1 Q-36.0 -24.0 -29.65 -22.5 L-24.0 -20.85 -22.7 -20.35 -22.45 -20.25 -22.35 -20.25 M67.5 -16.35 Q72.0 -4.45 67.25 8.6 62.8 20.6 46.9 18.85 L44.35 18.5 41.8 18.0 Q36.95 16.95 32.7 15.1 26.35 12.2 21.4 7.5 17.1 3.4 13.85 -2.05 11.15 -6.6 11.25 -10.4 L11.3 -11.3 Q11.45 -12.45 11.9 -13.55 13.2 -17.05 17.4 -19.75 L17.95 -20.1 20.75 -21.7 21.8 -22.25 23.45 -23.05 Q31.0 -26.5 39.9 -27.65 L49.3 -28.3 52.8 -28.05 Q57.55 -27.45 61.0 -25.1 L62.65 -23.8 64.55 -21.75 Q66.2 -19.65 67.35 -16.8 L67.5 -16.35 M18.5 -6.4 Q19.05 -4.9 20.05 -3.2 L18.55 -6.4 Q23.2 1.7 26.0 4.35 29.95 8.15 35.05 10.4 38.4 11.9 42.25 12.75 L44.3 13.15 46.35 13.4 Q59.0 14.8 62.5 5.25 L63.45 2.2 Q65.75 -6.55 62.7 -14.65 61.75 -17.1 60.35 -18.9 59.15 -20.45 57.55 -21.55 54.8 -23.45 51.0 -23.9 L48.25 -24.1 40.75 -23.6 Q33.65 -22.65 27.7 -19.95 L26.35 -19.3 23.25 -17.6 22.85 -17.35 Q19.5 -15.2 18.45 -12.4 L18.0 -10.55 17.95 -9.85 Q17.9 -8.25 18.5 -6.4 M-17.6 -3.6 Q-16.8 -6.05 -17.05 -8.1 L-17.2 -8.8 Q-17.4 -9.7 -17.75 -10.45 -19.05 -13.2 -22.6 -15.1 L-23.0 -15.3 -23.45 -15.5 -26.25 -16.75 -26.45 -16.8 -27.5 -17.2 -32.0 -18.5 Q-37.05 -19.7 -42.6 -19.8 L-48.5 -19.6 Q-59.35 -18.65 -62.05 -8.85 -64.65 0.4 -60.55 9.85 L-60.1 10.9 -59.9 11.25 Q-57.2 16.7 -51.5 17.85 -48.4 18.45 -44.4 17.8 L-41.25 17.15 -39.7 16.7 Q-26.4 12.7 -17.65 -3.5 L-17.6 -3.6" fill="#c8c8c8" fill-rule="evenodd" stroke="none"/>
      <path d="M17.25 -20.2 L17.4 -19.75 Q13.2 -17.05 11.9 -13.55 11.45 -12.45 11.3 -11.3 L11.25 -10.4 Q11.15 -6.6 13.85 -2.05 17.1 3.4 21.4 7.5 26.35 12.2 32.7 15.1 36.95 16.95 41.8 18.0 L44.35 18.5 46.9 18.85 Q62.8 20.6 67.25 8.6 72.0 -4.45 67.5 -16.35 L67.65 -16.45 Q75.8 -6.45 74.3 4.0 73.35 10.75 68.4 17.7 66.3 20.6 63.5 23.55 36.65 26.05 19.1 13.8 8.65 6.55 1.5 -5.95 -7.05 9.55 -18.65 18.05 -37.0 31.4 -63.05 27.3 -66.65 23.75 -69.05 20.25 -74.4 12.75 -74.55 5.6 -74.8 -3.35 -67.0 -11.75 L-67.45 -10.35 Q-70.15 -0.75 -67.1 9.0 L-64.95 14.5 -64.75 14.9 -63.05 17.65 Q-59.75 22.05 -54.2 23.2 -50.3 23.95 -45.3 23.15 L-41.3 22.35 -39.4 21.75 Q-21.0 16.2 -12.75 -0.85 -10.45 -5.65 -10.9 -9.4 L-11.05 -10.3 -11.75 -12.4 Q-13.4 -15.8 -17.85 -18.2 L-18.4 -18.45 -18.9 -18.7 -22.35 -20.25 Q-0.3 -13.4 17.25 -20.2" fill="#3c3c3c" fill-rule="evenodd" stroke="none"/>
      <path d="M18.55 -6.4 L18.5 -6.4 Q17.9 -8.25 17.95 -9.85 L18.0 -10.55 18.45 -12.4 Q19.5 -15.2 22.85 -17.35 L23.25 -17.6 26.35 -19.3 27.7 -19.95 Q33.65 -22.65 40.75 -23.6 L48.25 -24.1 51.0 -23.9 Q54.8 -23.45 57.55 -21.55 59.15 -20.45 60.35 -18.9 61.75 -17.1 62.7 -14.65 65.75 -6.55 63.45 2.2 L62.5 5.25 Q59.0 14.8 46.35 13.4 L44.3 13.15 42.25 12.75 Q38.4 11.9 35.05 10.4 29.95 8.15 26.0 4.35 23.2 1.7 18.55 -6.4 M-17.65 -3.5 Q-26.4 12.7 -39.7 16.7 L-41.25 17.15 -44.4 17.8 Q-48.4 18.45 -51.5 17.85 -57.2 16.7 -59.9 11.25 L-60.1 10.9 -60.55 9.85 Q-64.65 0.4 -62.05 -8.85 -59.35 -18.65 -48.5 -19.6 L-42.6 -19.8 Q-37.05 -19.7 -32.0 -18.5 L-27.5 -17.2 -26.45 -16.8 -26.25 -16.75 -23.45 -15.5 -23.0 -15.3 -22.6 -15.1 Q-19.05 -13.2 -17.75 -10.45 -17.4 -9.7 -17.2 -8.8 L-17.05 -8.1 Q-16.8 -6.05 -17.6 -3.6 L-17.65 -3.5" fill="#ffffff" fill-opacity="0.5019608" fill-rule="evenodd" stroke="none"/>
      <path d="M-17.6 -3.6 L-17.65 -3.5 -17.6 -3.6" fill="#555555" fill-rule="evenodd" stroke="none"/>
      <path d="M17.25 -20.2 Q-0.3 -13.4 -22.35 -20.25 L-18.9 -18.7 -18.4 -18.45 -17.85 -18.2 Q-13.4 -15.8 -11.75 -12.4 L-11.05 -10.3 -10.9 -9.4 Q-10.45 -5.65 -12.75 -0.85 -21.0 16.2 -39.4 21.75 L-41.3 22.35 -45.3 23.15 Q-50.3 23.95 -54.2 23.2 -59.75 22.05 -63.05 17.65 L-64.75 14.9 -64.95 14.5 -67.1 9.0 Q-70.15 -0.75 -67.45 -10.35 L-67.0 -11.75 Q-74.8 -3.35 -74.55 5.6 -74.4 12.75 -69.05 20.25 -66.65 23.75 -63.05 27.3 -37.0 31.4 -18.65 18.05 -7.05 9.55 1.5 -5.95 8.65 6.55 19.1 13.8 36.65 26.05 63.5 23.55 66.3 20.6 68.4 17.7 73.35 10.75 74.3 4.0 75.8 -6.45 67.65 -16.45 M67.5 -16.35 Q72.0 -4.45 67.25 8.6 62.8 20.6 46.9 18.85 L44.35 18.5 41.8 18.0 Q36.95 16.95 32.7 15.1 26.35 12.2 21.4 7.5 17.1 3.4 13.85 -2.05 11.15 -6.6 11.25 -10.4 L11.3 -11.3 Q11.45 -12.45 11.9 -13.55 13.2 -17.05 17.4 -19.75 L17.95 -20.1 20.75 -21.7 17.8 -20.4 17.25 -20.2 M18.5 -6.4 Q19.05 -4.9 20.05 -3.2 L18.55 -6.4 Q23.2 1.7 26.0 4.35 29.95 8.15 35.05 10.4 38.4 11.9 42.25 12.75 L44.3 13.15 46.35 13.4 Q59.0 14.8 62.5 5.25 L63.45 2.2 Q65.75 -6.55 62.7 -14.65 61.75 -17.1 60.35 -18.9 59.15 -20.45 57.55 -21.55 54.8 -23.45 51.0 -23.9 L48.25 -24.1 40.75 -23.6 Q33.65 -22.65 27.7 -19.95 L26.35 -19.3 23.25 -17.6 22.85 -17.35 Q19.5 -15.2 18.45 -12.4 L18.0 -10.55 17.95 -9.85 Q17.9 -8.25 18.5 -6.4 M67.5 -16.35 L67.35 -16.8 Q66.2 -19.65 64.55 -21.75 L62.65 -23.8 61.0 -25.1 Q57.55 -27.45 52.8 -28.05 L49.3 -28.3 39.9 -27.65 Q31.0 -26.5 23.45 -23.05 L21.8 -22.25 20.75 -21.7 M67.35 -16.8 L67.65 -16.45 M-17.65 -3.5 Q-26.4 12.7 -39.7 16.7 L-41.25 17.15 -44.4 17.8 Q-48.4 18.45 -51.5 17.85 -57.2 16.7 -59.9 11.25 L-60.1 10.9 -60.55 9.85 Q-64.65 0.4 -62.05 -8.85 -59.35 -18.65 -48.5 -19.6 L-42.6 -19.8 Q-37.05 -19.7 -32.0 -18.5 L-27.5 -17.2 -26.45 -16.8 -26.25 -16.75 -23.45 -15.5 -23.0 -15.3 -22.6 -15.1 Q-19.05 -13.2 -17.75 -10.45 -17.4 -9.7 -17.2 -8.8 L-17.05 -8.1 Q-16.8 -6.05 -17.6 -3.6 L-17.65 -3.5 -17.6 -3.6 M-67.0 -11.75 Q-63.25 -22.7 -50.4 -23.85 L-43.0 -24.1 Q-36.0 -24.0 -29.65 -22.5 L-24.0 -20.85 -22.7 -20.35 -22.45 -20.25 -22.35 -20.25" fill="none" stroke="#000000" stroke-linecap="round" stroke-linejoin="round" stroke-width="4.0"/>
    </g>
  </defs>
</svg>
