<?xml version="1.0" encoding="UTF-8" standalone="no"?>
<svg xmlns:xlink="http://www.w3.org/1999/xlink" height="720.75px" width="1716.8px" xmlns="http://www.w3.org/2000/svg">
  <g transform="matrix(1, 0, 0, 1, 307.05, 450.35)">
    <use height="213.7" transform="matrix(0.85, 0.0, 0.0, 0.85, -93.5415, -90.8215)" width="220.1" xlink:href="#sprite0"/>
  </g>
  <defs>
    <g id="sprite0" transform="matrix(1, 0, 0, 1, 110.05, 106.85)">
      <use height="213.7" transform="matrix(1.0, 0.0, 0.0, 1.0, -110.05, -106.85)" width="220.1" xlink:href="#shape0"/>
    </g>
    <g id="shape0" transform="matrix(1, 0, 0, 1, 110.05, 106.85)">
      <path d="M102.85 -82.6 L105.3 -82.8 Q109.9 -82.65 110.05 -48.15 109.8 -40.1 107.05 -17.0 104.55 3.6 103.45 9.5 100.85 28.75 98.85 38.2 95.9 51.65 89.1 61.85 L89.55 61.95 Q90.1 62.3 90.05 64.3 89.9 69.05 77.6 80.25 65.4 91.25 61.05 91.1 55.9 90.95 53.95 89.95 40.7 95.45 -1.65 106.85 -10.65 106.55 -26.3 94.35 -27.95 95.45 -31.35 96.5 -38.5 98.65 -47.3 98.4 -55.2 98.15 -68.5 80.75 L-74.5 72.35 -75.3 72.8 -77.2 70.25 -78.2 70.3 Q-84.0 70.1 -93.25 45.35 -100.7 25.4 -104.75 7.25 -109.2 -13.3 -109.9 -25.8 -110.3 -32.35 -109.55 -55.15 L-108.05 -76.7 Q-105.65 -96.4 -100.65 -96.25 -96.6 -96.15 -96.4 -78.3 -96.9 -57.75 -96.45 -52.35 L-95.65 -46.5 Q-93.8 -50.0 -90.7 -54.5 -82.05 -67.05 -69.1 -77.9 -32.9 -108.25 13.65 -106.8 43.2 -105.9 75.9 -72.25 87.65 -60.15 96.2 -47.35 L98.95 -43.05 Q102.9 -57.0 102.7 -61.0 L101.95 -66.8 Q101.35 -71.6 101.55 -78.75 101.6 -80.55 102.0 -82.3 L102.85 -82.6 M-38.0 -89.3 Q-53.6 -81.6 -67.75 -68.45 -78.9 -58.15 -87.95 -45.45 L-93.4 -37.1 Q-91.85 -31.5 -89.55 -24.9 L-85.45 -13.2 Q-79.65 -11.9 -67.35 -5.8 -50.25 2.7 -46.9 3.65 L-22.35 4.4 Q-24.8 1.3 -30.7 -20.6 L-30.3 -24.05 Q-30.6 -24.65 -27.6 -24.55 -27.3 -24.55 -16.3 -13.6 -4.6 -1.95 0.65 2.7 L2.25 2.6 17.05 2.0 Q39.0 0.5 41.5 -8.6 44.4 -18.85 45.15 -28.75 L45.9 -29.0 48.3 -29.25 Q52.7 -29.1 54.65 -15.95 L55.7 -2.45 55.45 3.15 61.5 3.3 Q71.9 3.0 79.9 -3.5 82.3 -5.5 83.95 -8.5 L86.65 -13.95 Q93.9 -27.05 96.3 -34.15 L92.55 -39.8 Q83.05 -54.5 75.15 -64.0 62.3 -79.55 48.85 -88.4 46.1 -90.25 43.35 -91.75 28.7 -99.9 13.3 -100.35 -9.55 -101.1 -30.05 -92.85 -34.05 -91.3 -38.0 -89.3 M47.8 -10.35 Q51.15 1.95 38.35 6.0 28.75 8.95 4.25 8.2 -3.1 8.0 -4.45 6.25 L-4.55 6.1 Q-7.45 4.7 -12.15 0.55 -19.75 -6.1 -20.5 -6.35 -13.8 4.45 -13.85 7.05 -13.75 8.0 -13.9 8.45 -14.15 9.25 -15.45 9.7 L-32.7 10.5 Q-58.4 9.7 -75.3 2.3 -83.5 -1.3 -87.35 -5.3 -98.25 -6.55 -103.25 -60.2 L-103.55 -60.2 -104.3 -36.4 Q-103.9 -34.0 -101.25 -10.55 -99.4 5.9 -96.75 15.15 -94.75 22.2 -88.95 35.25 L-72.25 45.0 Q-53.95 55.75 -49.75 57.4 L-38.6 61.1 -37.3 61.05 Q-36.75 61.05 -36.0 61.9 L-14.3 68.55 Q17.65 78.05 21.7 78.2 L49.55 61.9 Q77.05 46.0 89.25 40.15 L92.35 28.95 Q101.75 -7.5 102.3 -24.85 L102.35 -28.9 100.8 -28.8 Q92.9 -7.4 82.6 0.8 73.55 7.95 58.25 7.5 L55.15 7.0 55.1 7.7 Q54.75 8.6 51.75 8.5 L48.65 7.8 Q48.45 4.35 49.85 -2.8 50.0 -8.05 48.9 -10.65 L47.7 -10.65 47.8 -10.35 M17.1 9.8 Q17.55 9.8 25.55 60.45 L25.15 64.35 Q24.8 65.25 21.8 65.15 17.85 65.0 15.6 40.6 14.4 28.3 14.05 15.7 L14.25 12.25 Q14.8 9.75 17.1 9.8 M47.7 9.55 Q51.9 9.7 49.95 34.1 L48.9 57.75 Q47.35 58.6 46.15 58.85 43.35 52.9 43.95 34.05 L44.4 20.3 Q45.25 9.5 47.7 9.55 M77.4 18.45 Q75.7 34.9 75.5 41.05 75.35 45.65 71.9 45.55 L68.65 44.85 Q68.4 42.3 68.65 35.1 68.8 30.15 70.2 22.85 72.0 13.75 73.95 13.85 77.05 13.9 77.55 16.05 L77.4 18.45 M92.3 17.35 Q88.8 28.85 88.25 35.6 L85.7 36.55 Q82.75 33.65 82.85 30.6 83.0 25.85 87.55 11.85 91.85 -1.5 92.75 -1.9 L95.1 -1.45 Q95.7 -1.15 95.65 0.85 95.45 6.55 92.3 17.35 M86.2 51.0 L83.85 52.5 85.1 54.85 86.2 51.0 M59.55 64.75 L58.85 64.95 Q57.3 65.5 54.75 66.8 L54.75 67.1 Q54.65 69.9 49.55 80.05 L46.4 85.8 55.45 83.05 55.45 83.0 Q55.65 76.2 57.95 69.05 58.65 66.7 59.55 64.75 M45.3 72.15 Q42.95 73.55 40.3 75.25 L40.3 77.55 Q41.15 77.6 42.25 79.15 42.95 78.05 45.3 72.15 M65.3 76.25 L63.55 81.3 Q70.9 78.55 73.25 75.3 L79.05 66.4 Q80.55 64.4 82.1 63.25 L80.2 59.9 78.35 55.85 Q72.6 59.15 67.5 61.5 L67.75 63.9 Q67.6 68.35 65.3 76.25 M36.3 82.7 L34.75 78.75 Q23.95 85.3 21.8 85.25 13.85 85.0 -0.15 80.6 -1.4 83.85 -6.9 89.9 L-12.2 95.4 Q-3.8 100.35 -1.15 100.45 L39.05 88.05 Q37.75 86.1 36.3 82.7 M-85.25 6.45 Q-84.7 5.45 -82.65 5.5 -80.1 5.6 -76.95 29.1 -77.0 30.9 -77.35 32.7 -77.3 32.95 -77.55 33.25 -78.1 33.85 -79.95 33.8 -82.1 33.7 -84.05 21.65 -85.1 15.65 -85.65 9.65 -85.55 7.0 -85.25 6.45 M-56.15 26.35 Q-54.45 37.95 -53.9 44.95 L-54.4 45.7 Q-55.0 46.4 -56.8 46.35 -61.1 46.2 -63.25 30.1 -64.4 22.05 -64.6 13.75 L-64.2 10.15 -61.05 9.65 -58.05 10.35 Q-57.8 15.55 -56.15 26.35 M-39.4 13.9 Q-36.2 19.6 -34.4 30.15 -32.8 41.7 -31.6 46.55 L-31.8 52.7 Q-32.4 52.65 -34.65 54.1 -36.05 52.05 -39.3 37.0 -42.55 22.05 -42.4 18.3 -42.3 14.85 -39.4 13.9 M-11.4 14.6 Q-10.9 13.6 -8.8 13.65 -8.4 13.65 0.8 60.75 L0.35 65.7 Q-1.2 66.55 -2.25 66.8 -3.45 64.0 -7.55 44.1 -11.95 22.9 -11.8 17.75 -11.75 15.15 -11.4 14.6 M-32.4 68.45 Q-29.35 75.3 -24.8 88.5 -23.5 88.85 -20.05 90.75 -22.9 84.35 -25.3 71.4 L-32.4 68.45 M-17.8 74.35 L-16.9 76.95 -13.95 86.4 Q-13.15 86.15 -8.5 81.1 L-6.15 78.65 -17.8 74.35 M-71.35 66.2 L-63.8 75.55 Q-50.95 91.2 -46.5 91.35 L-38.2 90.45 -30.45 89.5 Q-32.35 85.9 -35.15 78.8 -39.5 67.8 -40.25 65.05 -55.4 58.45 -68.4 52.05 L-70.15 60.75 -71.35 66.2 M-77.3 59.8 Q-77.1 59.8 -76.8 60.05 L-75.8 56.6 Q-74.4 52.15 -73.1 49.7 L-85.25 43.35 -83.8 46.4 -77.55 59.8 -77.3 59.8" fill="#000000" fill-rule="evenodd" stroke="none"/>
      <path d="M-38.0 -89.3 Q-35.45 -85.25 -26.25 -78.0 -12.6 -68.05 -11.0 -66.35 L10.35 -48.0 32.8 -69.45 39.95 -75.9 Q47.9 -83.45 48.85 -88.4 62.3 -79.55 75.15 -64.0 83.05 -54.5 92.55 -39.8 L96.3 -34.15 Q93.9 -27.05 86.65 -13.95 L83.95 -8.5 Q82.3 -5.5 79.9 -3.5 71.9 3.0 61.5 3.3 L55.45 3.15 55.7 -2.45 54.65 -15.95 Q52.7 -29.1 48.3 -29.25 L45.9 -29.0 45.15 -28.75 Q44.4 -18.85 41.5 -8.6 39.0 0.5 17.05 2.0 L2.25 2.6 0.65 2.7 Q-4.6 -1.95 -16.3 -13.6 -27.3 -24.55 -27.6 -24.55 -30.6 -24.65 -30.3 -24.05 L-30.7 -20.6 Q-24.8 1.3 -22.35 4.4 L-46.9 3.65 Q-50.25 2.7 -67.35 -5.8 -79.65 -11.9 -85.45 -13.2 L-89.55 -24.9 Q-91.85 -31.5 -93.4 -37.1 L-87.95 -45.45 Q-78.9 -58.15 -67.75 -68.45 -53.6 -81.6 -38.0 -89.3 M86.2 51.0 L85.1 54.85 83.85 52.5 86.2 51.0 M65.3 76.25 Q67.6 68.35 67.75 63.9 L67.5 61.5 Q72.6 59.15 78.35 55.85 L80.2 59.9 82.1 63.25 Q80.55 64.4 79.05 66.4 L73.25 75.3 Q70.9 78.55 63.55 81.3 L65.3 76.25 M-77.3 59.8 L-77.55 59.8 -83.8 46.4 -85.25 43.35 -73.1 49.7 Q-74.4 52.15 -75.8 56.6 L-76.8 60.05 Q-77.1 59.8 -77.3 59.8 M-71.35 66.2 L-70.15 60.75 -68.4 52.05 Q-55.4 58.45 -40.25 65.05 -39.5 67.8 -35.15 78.8 -32.35 85.9 -30.45 89.5 L-38.2 90.45 -46.5 91.35 Q-50.95 91.2 -63.8 75.55 L-71.35 66.2" fill="#3c3c3c" fill-rule="evenodd" stroke="none"/>
      <path d="M48.85 -88.4 Q47.9 -83.45 39.95 -75.9 L32.8 -69.45 10.35 -48.0 -11.0 -66.35 Q-12.6 -68.05 -26.25 -78.0 -35.45 -85.25 -38.0 -89.3 -34.05 -91.3 -30.05 -92.85 -9.55 -101.1 13.3 -100.35 28.7 -99.9 43.35 -91.75 46.1 -90.25 48.85 -88.4" fill="#ffbf2b" fill-rule="evenodd" stroke="none"/>
      <path d="M48.9 -10.65 Q50.0 -8.05 49.85 -2.8 48.45 4.35 48.65 7.8 L51.75 8.5 Q54.75 8.6 55.1 7.7 L55.15 7.0 58.25 7.5 Q73.55 7.95 82.6 0.8 92.9 -7.4 100.8 -28.8 L102.35 -28.9 102.3 -24.85 Q101.75 -7.5 92.35 28.95 L89.25 40.15 Q77.05 46.0 49.55 61.9 L21.7 78.2 Q17.65 78.05 -14.3 68.55 L-36.0 61.9 Q-36.75 61.05 -37.3 61.05 L-38.6 61.1 -49.75 57.4 Q-53.95 55.75 -72.25 45.0 L-88.95 35.25 Q-94.75 22.2 -96.75 15.15 -99.4 5.9 -101.25 -10.55 -103.9 -34.0 -104.3 -36.4 L-103.55 -60.2 -103.25 -60.2 Q-98.25 -6.55 -87.35 -5.3 -83.5 -1.3 -75.3 2.3 -58.4 9.7 -32.7 10.5 L-15.45 9.7 Q-14.15 9.25 -13.9 8.45 -13.75 8.0 -13.85 7.05 -13.8 4.45 -20.5 -6.35 -19.75 -6.1 -12.15 0.55 -7.45 4.7 -4.55 6.1 L-4.45 6.25 Q-3.1 8.0 4.25 8.2 28.75 8.95 38.35 6.0 51.15 1.95 47.8 -10.35 L48.9 -10.65 M92.3 17.35 Q95.45 6.55 95.65 0.85 95.7 -1.15 95.1 -1.45 L92.75 -1.9 Q91.85 -1.5 87.55 11.85 83.0 25.85 82.85 30.6 82.75 33.65 85.7 36.55 L88.25 35.6 Q88.8 28.85 92.3 17.35 M77.4 18.45 L77.55 16.05 Q77.05 13.9 73.95 13.85 72.0 13.75 70.2 22.85 68.8 30.15 68.65 35.1 68.4 42.3 68.65 44.85 L71.9 45.55 Q75.35 45.65 75.5 41.05 75.7 34.9 77.4 18.45 M47.7 9.55 Q45.25 9.5 44.4 20.3 L43.95 34.05 Q43.35 52.9 46.15 58.85 47.35 58.6 48.9 57.75 L49.95 34.1 Q51.9 9.7 47.7 9.55 M17.1 9.8 Q14.8 9.75 14.25 12.25 L14.05 15.7 Q14.4 28.3 15.6 40.6 17.85 65.0 21.8 65.15 24.8 65.25 25.15 64.35 L25.55 60.45 Q17.55 9.8 17.1 9.8 M45.3 72.15 Q42.95 78.05 42.25 79.15 41.15 77.6 40.3 77.55 L40.3 75.25 Q42.95 73.55 45.3 72.15 M59.55 64.75 Q58.65 66.7 57.95 69.05 55.65 76.2 55.45 83.0 L55.45 83.05 46.4 85.8 49.55 80.05 Q54.65 69.9 54.75 67.1 L54.75 66.8 Q57.3 65.5 58.85 64.95 L59.55 64.75 M-17.8 74.35 L-6.15 78.65 -8.5 81.1 Q-13.15 86.15 -13.95 86.4 L-16.9 76.95 -17.8 74.35 M-32.4 68.45 L-25.3 71.4 Q-22.9 84.35 -20.05 90.75 -23.5 88.85 -24.8 88.5 -29.35 75.3 -32.4 68.45 M-11.4 14.6 Q-11.75 15.15 -11.8 17.75 -11.95 22.9 -7.55 44.1 -3.45 64.0 -2.25 66.8 -1.2 66.55 0.35 65.7 L0.8 60.75 Q-8.4 13.65 -8.8 13.65 -10.9 13.6 -11.4 14.6 M-39.4 13.9 Q-42.3 14.85 -42.4 18.3 -42.55 22.05 -39.3 37.0 -36.05 52.05 -34.65 54.1 -32.4 52.65 -31.8 52.7 L-31.6 46.55 Q-32.8 41.7 -34.4 30.15 -36.2 19.6 -39.4 13.9 M-56.15 26.35 Q-57.8 15.55 -58.05 10.35 L-61.05 9.65 -64.2 10.15 -64.6 13.75 Q-64.4 22.05 -63.25 30.1 -61.1 46.2 -56.8 46.35 -55.0 46.4 -54.4 45.7 L-53.9 44.95 Q-54.45 37.95 -56.15 26.35 M-85.25 6.45 Q-85.55 7.0 -85.65 9.65 -85.1 15.65 -84.05 21.65 -82.1 33.7 -79.95 33.8 -78.1 33.85 -77.55 33.25 -77.3 32.95 -77.35 32.7 -77.0 30.9 -76.95 29.1 -80.1 5.6 -82.65 5.5 -84.7 5.45 -85.25 6.45 M36.3 82.7 Q37.75 86.1 39.05 88.05 L-1.15 100.45 Q-3.8 100.35 -12.2 95.4 L-6.9 89.9 Q-1.4 83.85 -0.15 80.6 13.85 85.0 21.8 85.25 23.95 85.3 34.75 78.75 L36.3 82.7" fill="#cccccc" fill-rule="evenodd" stroke="none"/>
    </g>
  </defs>
</svg>
