<?xml version="1.0" encoding="UTF-8" standalone="no"?>
<svg xmlns:xlink="http://www.w3.org/1999/xlink" height="720.75px" width="1716.8px" xmlns="http://www.w3.org/2000/svg">
  <g transform="matrix(1, 0, 0, 1, 307.05, 450.35)">
    <use height="241.4" transform="matrix(1.0, 0.0, 0.0, 1.0, -123.0, -120.7)" width="246.0" xlink:href="#shape0"/>
  </g>
  <defs>
    <g id="shape0" transform="matrix(1, 0, 0, 1, 123.0, 120.7)">
      <path d="M-54.1 -57.0 L-56.0 -53.9 Q-71.4 -70.4 -69.3 -86.8 -66.9 -105.35 -51.0 -92.9 -54.4 -97.6 -57.5 -100.75 -53.65 -99.4 -48.85 -95.65 -47.7 -94.75 -47.5 -93.3 -47.35 -91.9 -48.25 -90.75 -49.15 -89.6 -50.55 -89.4 -52.0 -89.25 -53.15 -90.15 -59.2 -94.85 -62.4 -94.25 -65.0 -92.9 -65.8 -86.35 -67.5 -71.75 -54.1 -57.0 M56.25 -52.05 L54.4 -55.3 Q67.5 -71.65 65.85 -86.35 65.0 -92.9 62.45 -94.25 59.2 -94.85 53.15 -90.15 52.0 -89.25 50.6 -89.4 49.15 -89.6 48.25 -90.75 47.35 -91.9 47.55 -93.3 47.7 -94.75 48.85 -95.65 53.65 -99.4 57.5 -100.75 54.4 -97.6 51.0 -92.9 66.9 -105.35 69.3 -86.8 71.4 -70.35 56.25 -52.05" fill="#ababab" fill-rule="evenodd" stroke="none"/>
      <path d="M-56.0 -53.9 L-57.65 -50.8 Q-64.0 -38.1 -64.0 -22.7 -64.0 -17.8 -63.35 -13.15 -66.9 -10.35 -68.2 -1.9 -81.55 -36.65 -88.0 6.3 -104.8 -29.45 -108.6 23.1 -130.35 -24.6 -114.0 -34.9 -97.6 -45.2 -85.9 -85.2 -75.9 -119.4 -57.5 -100.75 -54.4 -97.6 -51.0 -92.9 -66.9 -105.35 -69.3 -86.8 -71.4 -70.4 -56.0 -53.9 M62.65 -13.85 Q63.2 -18.15 63.2 -22.7 63.2 -36.95 57.8 -48.9 L56.25 -52.05 Q71.4 -70.35 69.3 -86.8 66.9 -105.35 51.0 -92.9 54.4 -97.6 57.5 -100.75 75.9 -119.4 85.9 -85.2 97.6 -45.2 114.0 -34.9 130.35 -24.6 108.6 23.1 104.8 -29.45 88.0 6.3 81.55 -36.65 68.2 -1.9 66.8 -10.9 62.65 -13.85 M74.8 -55.1 Q73.6 -56.3 71.6 -56.3 69.6 -56.3 68.2 -55.1 67.0 -53.7 67.0 -51.7 67.0 -49.7 68.2 -48.5 69.6 -47.1 71.6 -47.1 73.6 -47.1 74.8 -48.5 76.2 -49.7 76.2 -51.7 76.2 -53.7 74.8 -55.1 M104.8 -22.5 Q102.8 -22.5 101.4 -21.3 100.2 -19.9 100.2 -17.9 100.2 -15.9 101.4 -14.7 102.8 -13.3 104.8 -13.3 106.8 -13.3 108.0 -14.7 109.4 -15.9 109.4 -17.9 109.4 -19.9 108.0 -21.3 106.8 -22.5 104.8 -22.5 M-84.6 -70.9 Q-84.6 -68.9 -83.2 -67.7 -82.0 -66.3 -80.0 -66.3 -78.0 -66.3 -76.6 -67.7 -75.4 -68.9 -75.4 -70.9 -75.4 -72.9 -76.6 -74.3 -78.0 -75.5 -80.0 -75.5 -82.0 -75.5 -83.2 -74.3 -84.6 -72.9 -84.6 -70.9 M-99.6 -33.7 Q-101.0 -32.3 -101.0 -30.3 -101.0 -28.3 -99.6 -27.1 -98.4 -25.7 -96.4 -25.7 -94.4 -25.7 -93.0 -27.1 -91.8 -28.3 -91.8 -30.3 -91.8 -32.3 -93.0 -33.7 -94.4 -34.9 -96.4 -34.9 -98.4 -34.9 -99.6 -33.7" fill="#2f2f2f" fill-rule="evenodd" stroke="none"/>
      <path d="M-54.1 -57.0 Q-50.45 -62.65 -45.4 -67.7 -28.3 -84.85 -4.4 -86.2 L-4.4 -95.8 Q-6.8 -96.65 -8.8 -98.7 -12.15 -102.05 -12.2 -106.9 -12.2 -111.65 -8.9 -115.2 L-8.6 -115.5 -8.4 -115.8 Q-4.85 -118.75 -0.4 -118.7 3.7 -118.7 6.5 -116.5 L6.2 -116.6 7.8 -115.3 Q11.4 -111.7 11.4 -106.9 11.4 -102.1 7.9 -98.8 L7.7 -98.6 Q5.85 -96.65 3.6 -95.8 L3.6 -86.2 Q27.45 -84.85 44.4 -67.8 L44.5 -67.7 Q50.35 -61.9 54.4 -55.3 L56.25 -52.05 57.8 -48.9 Q63.2 -36.95 63.2 -22.7 63.2 -18.15 62.65 -13.85 60.0 6.95 44.5 22.3 L44.4 22.4 Q28.2 38.75 5.6 40.6 L5.6 44.9 5.6 53.0 5.6 44.9 Q19.6 43.3 32.3 34.4 33.65 33.5 35.3 33.8 36.95 34.05 37.9 35.4 38.8 36.75 38.5 38.4 38.25 40.05 36.9 41.0 21.95 51.45 5.6 53.0 L5.6 60.8 5.6 68.9 5.6 60.8 Q16.35 59.25 26.1 51.4 27.4 50.35 29.0 50.5 30.65 50.7 31.7 52.0 32.75 53.3 32.6 54.9 32.4 56.55 31.1 57.6 19.0 67.4 5.6 68.9 L5.6 78.3 5.6 86.6 5.6 78.3 Q11.1 76.55 16.1 71.2 17.25 69.95 18.9 69.9 20.5 69.85 21.7 71.0 22.95 72.15 23.0 73.8 23.05 75.4 21.9 76.6 14.2 84.8 5.6 86.6 L5.6 93.8 5.6 103.4 5.6 93.8 Q7.05 92.6 8.5 90.8 9.55 89.5 11.2 89.3 12.8 89.15 14.1 90.2 15.4 91.25 15.6 92.9 15.75 94.5 14.7 95.8 10.25 101.3 5.6 103.4 L5.6 112.7 Q5.6 115.15 3.8 116.9 2.05 118.7 -0.4 118.7 -2.85 118.7 -4.6 116.9 -6.4 115.15 -6.4 112.7 L-6.4 103.6 -6.4 94.5 -6.4 103.6 Q-11.4 101.65 -16.5 96.2 -17.65 95.0 -17.6 93.4 -17.55 91.75 -16.3 90.6 -15.1 89.45 -13.5 89.5 -11.85 89.55 -10.7 90.8 -8.5 93.1 -6.4 94.5 L-6.4 86.1 -6.4 77.6 -6.4 86.1 Q-14.35 83.85 -23.0 76.5 -24.25 75.45 -24.4 73.8 -24.5 72.15 -23.4 70.9 -22.35 69.65 -20.7 69.5 -19.05 69.4 -17.8 70.5 -11.85 75.5 -6.4 77.6 L-6.4 68.6 -6.4 60.5 -6.4 68.6 Q-20.15 66.6 -35.2 56.6 -36.6 55.7 -36.9 54.1 -37.2 52.5 -36.3 51.1 -35.4 49.7 -33.8 49.4 -32.2 49.1 -30.8 50.0 -18.05 58.45 -6.4 60.5 L-6.4 52.9 -6.4 44.8 -6.4 52.9 Q-23.25 51.0 -41.5 40.1 -42.9 39.25 -43.3 37.7 -43.7 36.1 -42.8 34.7 -41.95 33.25 -40.4 32.8 -38.75 32.4 -37.3 33.3 -21.25 42.9 -6.4 44.8 L-6.4 40.6 Q-29.0 38.75 -45.4 22.3 -60.5 7.2 -63.35 -13.15 -64.0 -17.8 -64.0 -22.7 -64.0 -38.1 -57.65 -50.8 L-56.0 -53.9 -54.1 -57.0 M2.1 -104.2 L2.3 -104.4 Q3.4 -105.4 3.4 -106.9 3.4 -108.5 2.2 -109.7 L1.8 -110.0 1.5 -110.1 Q0.7 -110.7 -0.4 -110.7 -1.95 -110.65 -3.2 -109.6 L-3.0 -109.9 -3.2 -109.7 Q-4.2 -108.5 -4.2 -106.9 -4.25 -105.35 -3.2 -104.3 -2.0 -103.1 -0.4 -103.1 1.1 -103.1 2.1 -104.2 M74.8 -55.1 Q76.2 -53.7 76.2 -51.7 76.2 -49.7 74.8 -48.5 73.6 -47.1 71.6 -47.1 69.6 -47.1 68.2 -48.5 67.0 -49.7 67.0 -51.7 67.0 -53.7 68.2 -55.1 69.6 -56.3 71.6 -56.3 73.6 -56.3 74.8 -55.1 M36.0 -59.2 L35.9 -59.3 Q21.05 -74.3 -0.4 -74.3 -21.95 -74.35 -37.0 -59.3 -52.05 -44.25 -52.0 -22.7 -52.05 -1.15 -37.0 13.9 -22.0 28.9 -0.6 28.9 L-0.2 28.9 Q21.1 28.85 35.9 13.9 L36.0 13.8 Q51.2 -1.25 51.2 -22.7 51.2 -44.15 36.0 -59.2 M104.8 -22.5 Q106.8 -22.5 108.0 -21.3 109.4 -19.9 109.4 -17.9 109.4 -15.9 108.0 -14.7 106.8 -13.3 104.8 -13.3 102.8 -13.3 101.4 -14.7 100.2 -15.9 100.2 -17.9 100.2 -19.9 101.4 -21.3 102.8 -22.5 104.8 -22.5 M-99.6 -33.7 Q-98.4 -34.9 -96.4 -34.9 -94.4 -34.9 -93.0 -33.7 -91.8 -32.3 -91.8 -30.3 -91.8 -28.3 -93.0 -27.1 -94.4 -25.7 -96.4 -25.7 -98.4 -25.7 -99.6 -27.1 -101.0 -28.3 -101.0 -30.3 -101.0 -32.3 -99.6 -33.7 M-84.6 -70.9 Q-84.6 -72.9 -83.2 -74.3 -82.0 -75.5 -80.0 -75.5 -78.0 -75.5 -76.6 -74.3 -75.4 -72.9 -75.4 -70.9 -75.4 -68.9 -76.6 -67.7 -78.0 -66.3 -80.0 -66.3 -82.0 -66.3 -83.2 -67.7 -84.6 -68.9 -84.6 -70.9" fill="#9898fe" fill-rule="evenodd" stroke="none"/>
      <path d="M36.0 -59.2 Q51.2 -44.15 51.2 -22.7 51.2 -1.25 36.0 13.8 L35.9 13.9 Q21.1 28.85 -0.2 28.9 L-0.6 28.9 Q-22.0 28.9 -37.0 13.9 -52.05 -1.15 -52.0 -22.7 -52.05 -44.25 -37.0 -59.3 -21.95 -74.35 -0.4 -74.3 21.05 -74.3 35.9 -59.3 L36.0 -59.2" fill="#1a1a1a" fill-rule="evenodd" stroke="none"/>
      <path d="M54.4 -55.3 Q50.35 -61.9 44.5 -67.7 L44.4 -67.8 Q27.45 -84.85 3.6 -86.2 L3.6 -95.8 Q5.85 -96.65 7.7 -98.6 L7.9 -98.8 Q11.4 -102.1 11.4 -106.9 11.4 -111.7 7.8 -115.3 L6.2 -116.6 6.5 -116.5 Q3.7 -118.7 -0.4 -118.7 -4.85 -118.75 -8.4 -115.8 L-8.6 -115.5 -8.9 -115.2 Q-12.2 -111.65 -12.2 -106.9 -12.15 -102.05 -8.8 -98.7 -6.8 -96.65 -4.4 -95.8 L-4.4 -86.2 Q-28.3 -84.85 -45.4 -67.7 -50.45 -62.65 -54.1 -57.0 L-56.0 -53.9 -57.65 -50.8 Q-64.0 -38.1 -64.0 -22.7 -64.0 -17.8 -63.35 -13.15 -60.5 7.2 -45.4 22.3 -29.0 38.75 -6.4 40.6 L-6.4 44.8 -6.4 52.9 -6.4 60.5 -6.4 68.6 -6.4 77.6 -6.4 86.1 -6.4 94.5 -6.4 103.6 -6.4 112.7 Q-6.4 115.15 -4.6 116.9 -2.85 118.7 -0.4 118.7 2.05 118.7 3.8 116.9 5.6 115.15 5.6 112.7 L5.6 103.4 5.6 93.8 5.6 86.6 5.6 78.3 5.6 68.9 5.6 60.8 5.6 53.0 5.6 44.9 5.6 40.6 Q28.2 38.75 44.4 22.4 L44.5 22.3 Q60.0 6.95 62.65 -13.85 63.2 -18.15 63.2 -22.7 63.2 -36.95 57.8 -48.9 L56.25 -52.05 54.4 -55.3 M57.5 -100.75 Q75.9 -119.4 85.9 -85.2 97.6 -45.2 114.0 -34.9 130.35 -24.6 108.6 23.1 104.8 -29.45 88.0 6.3 81.55 -36.65 68.2 -1.9 66.8 -10.9 62.65 -13.85 M2.1 -104.2 Q1.1 -103.1 -0.4 -103.1 -2.0 -103.1 -3.2 -104.3 -4.25 -105.35 -4.2 -106.9 -4.2 -108.5 -3.2 -109.7 L-3.0 -109.9 -3.2 -109.6 Q-1.95 -110.65 -0.4 -110.7 0.7 -110.7 1.5 -110.1 L1.8 -110.0 2.2 -109.7 Q3.4 -108.5 3.4 -106.9 3.4 -105.4 2.3 -104.4 L2.1 -104.2 M36.0 -59.2 Q51.2 -44.15 51.2 -22.7 51.2 -1.25 36.0 13.8 L35.9 13.9 Q21.1 28.85 -0.2 28.9 L-0.6 28.9 Q-22.0 28.9 -37.0 13.9 -52.05 -1.15 -52.0 -22.7 -52.05 -44.25 -37.0 -59.3 -21.95 -74.35 -0.4 -74.3 21.05 -74.3 35.9 -59.3 L36.0 -59.2 M57.5 -100.75 Q54.4 -97.6 51.0 -92.9 M-57.5 -100.75 Q-75.9 -119.4 -85.9 -85.2 -97.6 -45.2 -114.0 -34.9 -130.35 -24.6 -108.6 23.1 -104.8 -29.45 -88.0 6.3 -81.55 -36.65 -68.2 -1.9 -66.9 -10.35 -63.35 -13.15 M-57.5 -100.75 Q-54.4 -97.6 -51.0 -92.9 M-6.4 44.8 Q-21.25 42.9 -37.3 33.3 -38.75 32.4 -40.4 32.8 -41.95 33.25 -42.8 34.7 -43.7 36.1 -43.3 37.7 -42.9 39.25 -41.5 40.1 -23.25 51.0 -6.4 52.9 M-6.4 77.6 Q-11.85 75.5 -17.8 70.5 -19.05 69.4 -20.7 69.5 -22.35 69.65 -23.4 70.9 -24.5 72.15 -24.4 73.8 -24.25 75.45 -23.0 76.5 -14.35 83.85 -6.4 86.1 M-6.4 60.5 Q-18.05 58.45 -30.8 50.0 -32.2 49.1 -33.8 49.4 -35.4 49.7 -36.3 51.1 -37.2 52.5 -36.9 54.1 -36.6 55.7 -35.2 56.6 -20.15 66.6 -6.4 68.6 M-6.4 94.5 Q-8.5 93.1 -10.7 90.8 -11.85 89.55 -13.5 89.5 -15.1 89.45 -16.3 90.6 -17.55 91.75 -17.6 93.4 -17.65 95.0 -16.5 96.2 -11.4 101.65 -6.4 103.6 M5.6 53.0 Q21.95 51.45 36.9 41.0 38.25 40.05 38.5 38.4 38.8 36.75 37.9 35.4 36.95 34.05 35.3 33.8 33.65 33.5 32.3 34.4 19.6 43.3 5.6 44.9 M5.6 68.9 Q19.0 67.4 31.1 57.6 32.4 56.55 32.6 54.9 32.75 53.3 31.7 52.0 30.65 50.7 29.0 50.5 27.4 50.35 26.1 51.4 16.35 59.25 5.6 60.8 M5.6 86.6 Q14.2 84.8 21.9 76.6 23.05 75.4 23.0 73.8 22.95 72.15 21.7 71.0 20.5 69.85 18.9 69.9 17.25 69.95 16.1 71.2 11.1 76.55 5.6 78.3 M5.6 103.4 Q10.25 101.3 14.7 95.8 15.75 94.5 15.6 92.9 15.4 91.25 14.1 90.2 12.8 89.15 11.2 89.3 9.55 89.5 8.5 90.8 7.05 92.6 5.6 93.8" fill="none" stroke="#000000" stroke-linecap="round" stroke-linejoin="round" stroke-width="4.0"/>
    </g>
  </defs>
</svg>
