<?xml version="1.0" encoding="UTF-8" standalone="no"?>
<svg xmlns:xlink="http://www.w3.org/1999/xlink" height="720.75px" width="1716.8px" xmlns="http://www.w3.org/2000/svg">
  <g transform="matrix(1, 0, 0, 1, 307.05, 450.35)">
    <use height="56.95" transform="matrix(0.85, 0.0, 0.0, 0.85, -128.1786, -24.1822)" width="301.65" xlink:href="#sprite0"/>
  </g>
  <defs>
    <g id="sprite0" transform="matrix(1, 0, 0, 1, 150.8, 28.45)">
      <use height="56.95" transform="matrix(1.0, 0.0, 0.0, 1.0, -150.8, -28.45)" width="301.65" xlink:href="#shape0"/>
    </g>
    <g id="shape0" transform="matrix(1, 0, 0, 1, 150.8, 28.45)">
      <path d="M142.15 -26.95 Q149.2 -19.4 149.35 0.1 149.55 19.85 142.15 27.0 124.55 23.25 109.15 15.0 57.95 6.9 0.4 5.3 L-50.2 3.55 -50.25 3.55 -50.25 3.95 Q-56.3 5.6 -62.3 3.95 L-62.3 3.1 Q-100.3 1.7 -132.1 2.05 L-146.35 3.55 Q-148.25 1.85 -148.9 0.05 -150.4 -3.85 -146.35 -8.2 -140.3 -8.15 -132.4 -5.3 L-132.1 -5.2 -132.1 -6.2 -62.3 -6.2 -62.3 -7.0 Q-55.8 -8.85 -50.25 -7.0 L-50.25 -6.2 0.15 -6.2 Q57.95 -6.85 109.15 -14.95 124.55 -23.2 142.15 -26.95 M-132.1 -5.2 L-132.1 2.05 -132.1 -5.2 M-50.25 3.55 L-50.25 -6.2 -50.25 3.55 M-62.3 -6.2 L-62.3 3.1 -62.3 -6.2" fill="#dd0000" fill-rule="evenodd" stroke="none"/>
      <path d="M142.15 -26.95 Q149.2 -19.4 149.35 0.1 149.55 19.85 142.15 27.0 124.55 23.25 109.15 15.0 57.95 6.9 0.4 5.3 L-50.2 3.55 -50.25 3.55 -50.25 3.95 Q-56.3 5.6 -62.3 3.95 L-62.3 3.1 Q-100.3 1.7 -132.1 2.05 L-146.35 3.55 Q-148.25 1.85 -148.9 0.05 -150.4 -3.85 -146.35 -8.2 -140.3 -8.15 -132.4 -5.3 L-132.1 -5.2 -132.1 -6.2 -62.3 -6.2 -62.3 -7.0 Q-55.8 -8.85 -50.25 -7.0 L-50.25 -6.2 0.15 -6.2 Q57.95 -6.85 109.15 -14.95 124.55 -23.2 142.15 -26.95 M-62.3 3.1 L-62.3 -6.2 M-50.25 -6.2 L-50.25 3.55 M-132.1 2.05 L-132.1 -5.2" fill="none" stroke="#000000" stroke-linecap="round" stroke-linejoin="round" stroke-width="3.0"/>
    </g>
  </defs>
</svg>
