<?xml version="1.0" encoding="UTF-8" standalone="no"?>
<svg xmlns:xlink="http://www.w3.org/1999/xlink" height="720.75px" width="1716.8px" xmlns="http://www.w3.org/2000/svg">
  <g transform="matrix(1, 0, 0, 1, 307.05, 450.35)">
    <use height="192.35" transform="matrix(1.0, 0.0, 0.0, 1.0, -115.55, -96.2)" width="231.05" xlink:href="#shape0"/>
  </g>
  <defs>
    <g id="shape0" transform="matrix(1, 0, 0, 1, 115.55, 96.2)">
      <path d="M-56.5 15.95 L-56.5 -94.2 108.4 -94.2 113.5 -94.2 113.5 9.2 108.4 15.95 108.4 25.1 49.8 94.15 -107.65 94.15 -113.55 84.85 49.8 84.85 108.4 15.95 -56.5 15.95 M-44.15 26.3 L-27.25 26.3 -10.35 26.3 6.6 26.3 23.5 26.3 40.4 26.3 31.05 37.3 23.15 46.6 40.05 46.6 31.1 57.15 14.15 57.15 -2.75 57.15 -19.65 57.15 -36.55 57.15 -27.6 46.6 -19.7 37.3 -2.75 37.3 -10.65 46.6 -27.6 46.6 -10.65 46.6 -2.75 37.3 -19.7 37.3 -27.6 46.6 -36.55 57.15 -53.5 57.15 -70.4 57.15 -61.4 46.6 -53.5 37.3 -44.15 26.3 M-10.35 26.3 L-19.7 37.3 -36.6 37.3 -27.25 26.3 -36.6 37.3 -19.7 37.3 -10.35 26.3 M6.6 26.3 L-2.75 37.3 14.15 37.3 6.25 46.6 -10.65 46.6 -19.65 57.15 -10.65 46.6 6.25 46.6 14.15 37.3 -2.75 37.3 6.6 26.3 M-61.4 46.6 L-44.5 46.6 -53.5 57.15 -44.5 46.6 -61.4 46.6 M-36.6 37.3 L-53.5 37.3 -36.6 37.3 -44.5 46.6 -27.6 46.6 -44.5 46.6 -36.6 37.3 M-2.75 57.15 L6.25 46.6 23.15 46.6 14.15 57.15 23.15 46.6 6.25 46.6 -2.75 57.15 M31.05 37.3 L14.15 37.3 23.5 26.3 14.15 37.3 31.05 37.3 M98.25 6.0 L98.25 -87.45 -48.85 -87.45 -48.85 6.0 98.25 6.0 M108.4 -94.2 L108.4 15.95 108.4 -94.2" fill="#484848" fill-rule="evenodd" stroke="none"/>
      <path d="M98.25 6.0 L-48.85 6.0 -48.85 -87.45 98.25 -87.45 98.25 6.0" fill="#222222" fill-rule="evenodd" stroke="none"/>
      <path d="M-24.45 65.2 L0.8 65.2 -11.8 80.0 -37.0 80.0 -24.45 65.2" fill="#cccccc" fill-rule="evenodd" stroke="none"/>
      <path d="M-56.5 15.95 L-56.5 -94.2 108.4 -94.2 113.5 -94.2 113.5 9.2 108.4 15.95 108.4 -94.2 M-44.15 26.3 L-27.25 26.3 -10.35 26.3 6.6 26.3 23.5 26.3 40.4 26.3 42.9 26.3 M-27.25 26.3 L-36.6 37.3 -19.7 37.3 -10.35 26.3 M-27.6 46.6 L-10.65 46.6 -2.75 37.3 -19.7 37.3 -27.6 46.6 -36.55 57.15 -19.65 57.15 -10.65 46.6 6.25 46.6 14.15 37.3 -2.75 37.3 6.6 26.3 M-71.3 46.6 L-61.4 46.6 -53.5 37.3 -44.15 26.3 -53.1 26.3 M-53.5 57.15 L-44.5 46.6 -61.4 46.6 -70.4 57.15 -53.5 57.15 -36.55 57.15 -39.15 60.2 M-78.45 57.15 L-70.4 57.15 -72.95 60.2 M-53.5 57.15 L-56.05 60.2 M-24.45 65.2 L0.8 65.2 -11.8 80.0 -37.0 80.0 -24.45 65.2 M-5.3 60.2 L-2.75 57.15 -19.65 57.15 -22.25 60.2 M-36.6 37.3 L-44.5 46.6 -27.6 46.6 M-53.5 37.3 L-36.6 37.3 M40.4 26.3 L31.05 37.3 45.4 37.3 M31.05 37.3 L23.15 46.6 40.05 46.6 59.1 24.2 M14.15 57.15 L23.15 46.6 6.25 46.6 -2.75 57.15 14.15 57.15 31.1 57.15 40.05 46.6 53.05 46.6 M23.5 26.3 L14.15 37.3 31.05 37.3 M14.15 57.15 L11.6 60.2 M45.4 60.2 L48.0 57.15 31.1 57.15 28.5 60.2 M53.05 57.15 L48.0 57.15 76.05 24.2 M98.25 6.0 L-48.85 6.0 -48.85 -87.45 98.25 -87.45 98.25 6.0" fill="none" stroke="#000000" stroke-linecap="round" stroke-linejoin="round" stroke-width="4.0"/>
      <path d="M-113.55 84.85 L-56.5 15.95 108.4 15.95 49.8 84.85 -113.55 84.85 M40.4 26.3 L-44.15 26.3 -70.4 57.15 31.1 57.15 40.05 46.6 23.15 46.6 40.4 26.3 M-37.0 80.0 L-11.8 80.0 0.8 65.2 -24.45 65.2 -37.0 80.0" fill="#484848" fill-rule="evenodd" stroke="none"/>
      <path d="M108.4 15.95 L108.4 25.1 49.8 94.15 -107.65 94.15 -113.55 84.85 -56.5 15.95 108.4 15.95 49.8 84.85 49.8 94.15 M49.8 84.85 L-113.55 84.85" fill="none" stroke="#000000" stroke-linecap="round" stroke-linejoin="round" stroke-width="4.0"/>
    </g>
  </defs>
</svg>
