<?xml version="1.0" encoding="UTF-8" standalone="no"?>
<svg xmlns:xlink="http://www.w3.org/1999/xlink" height="720.75px" width="1716.8px" xmlns="http://www.w3.org/2000/svg">
  <g transform="matrix(1, 0, 0, 1, 307.05, 450.35)">
    <use height="97.5" transform="matrix(1.0, 0.0, 0.0, 1.0, -35.75, -61.75)" width="71.5" xlink:href="#shape0"/>
  </g>
  <defs>
    <g id="shape0" transform="matrix(1, 0, 0, 1, 35.75, 61.75)">
      <path d="M14.0 -30.25 L14.0 -27.5 Q-0.5 -22.55 -14.0 -27.5 L-14.0 -30.25 -14.0 -27.5 Q-0.5 -22.55 14.0 -27.5 L14.0 -30.25 Q19.15 -27.85 23.5 -23.5 33.25 -13.75 33.25 0.0 33.25 13.75 23.5 23.5 13.75 33.25 0.0 33.25 -13.75 33.25 -23.5 23.5 -33.25 13.75 -33.25 0.0 -33.25 -13.75 -23.5 -23.5 -19.15 -27.85 -14.0 -30.25 L-14.0 -42.25 Q-6.85 -44.4 0.3 -44.35 L0.35 -44.35 Q7.15 -44.3 14.0 -42.25 L14.0 -30.25" fill="#373737" fill-rule="evenodd" stroke="none"/>
      <path d="M-14.0 -30.25 L-14.0 -27.5 Q-0.5 -22.55 14.0 -27.5 L14.0 -30.25 14.0 -42.25 Q7.15 -44.3 0.35 -44.35 L0.3 -44.35 Q-6.85 -44.4 -14.0 -42.25 L-14.0 -30.25 Q-19.15 -27.85 -23.5 -23.5 -33.25 -13.75 -33.25 0.0 -33.25 13.75 -23.5 23.5 -13.75 33.25 0.0 33.25 13.75 33.25 23.5 23.5 33.25 13.75 33.25 0.0 33.25 -13.75 23.5 -23.5 19.15 -27.85 14.0 -30.25 M0.35 -44.35 Q0.35 -52.45 8.75 -59.25" fill="none" stroke="#000000" stroke-linecap="round" stroke-linejoin="round" stroke-width="5.0"/>
    </g>
  </defs>
</svg>
