<?xml version="1.0" encoding="UTF-8" standalone="no"?>
<svg xmlns:xlink="http://www.w3.org/1999/xlink" height="720.75px" width="1716.8px" xmlns="http://www.w3.org/2000/svg">
  <g transform="matrix(1, 0, 0, 1, 307.05, 450.35)">
    <use height="318.2" transform="matrix(1.0, 0.0, 0.0, 1.0, -68.45, -159.25)" width="136.9" xlink:href="#sprite0"/>
  </g>
  <defs>
    <g id="sprite0" transform="matrix(1, 0, 0, 1, 68.45, 159.25)">
      <use height="270.0" transform="matrix(1.0, 0.0, 0.0, 1.0, -7.5, -111.05)" width="15.0" xlink:href="#shape0"/>
      <use height="136.85" transform="matrix(1.0, 0.0, 0.0, 1.0, -68.45, -158.95)" width="136.9" xlink:href="#shape1"/>
    </g>
    <g id="shape0" transform="matrix(1, 0, 0, 1, 7.5, 111.05)">
      <path d="M5.0 156.45 L-5.0 156.45 -5.0 -108.55 5.0 -108.55 5.0 156.45" fill="#a2a2a2" fill-rule="evenodd" stroke="none"/>
      <path d="M5.0 156.45 L-5.0 156.45 -5.0 -108.55 5.0 -108.55 5.0 156.45" fill="none" stroke="#000000" stroke-linecap="round" stroke-linejoin="miter" stroke-miterlimit="768" stroke-width="5.0"/>
    </g>
    <g id="shape1" transform="matrix(1, 0, 0, 1, 68.45, 158.95)">
      <path d="M65.65 -96.1 Q67.5 -76.8 58.05 -59.45 L55.3 -54.9 52.25 -50.45 Q37.9 -31.35 13.95 -26.15 -10.05 -21.05 -31.0 -32.5 L-34.65 -34.65 -35.6 -35.25 -40.0 -38.25 Q-59.15 -52.65 -64.35 -76.6 -69.5 -100.55 -58.0 -121.55 L-55.3 -126.15 -52.25 -130.55 Q-41.0 -145.5 -23.85 -151.95 -19.15 -153.75 -13.9 -154.85 10.05 -160.05 31.05 -148.55 L35.65 -145.8 36.6 -145.25 40.05 -142.75 Q59.15 -128.4 64.35 -104.4 65.25 -100.2 65.65 -96.1 M53.45 -102.05 Q52.5 -106.6 50.95 -110.7 47.0 -121.0 39.35 -128.7 L38.1 -129.9 34.05 -133.4 30.5 -135.9 29.6 -136.5 25.0 -139.2 20.15 -141.5 Q5.1 -147.7 -11.65 -144.05 -28.4 -140.45 -39.45 -128.65 L-43.0 -124.55 -46.1 -120.15 -48.8 -115.6 -51.05 -110.7 -52.85 -105.5 Q-56.6 -92.8 -53.6 -78.9 -52.65 -74.4 -51.05 -70.3 -47.1 -60.0 -39.4 -52.3 L-38.1 -51.05 -34.0 -47.55 -29.65 -44.5 -28.75 -43.9 -25.0 -41.75 Q-22.6 -40.5 -20.15 -39.5 -5.2 -33.4 11.5 -36.95 26.25 -40.2 36.65 -49.7 L39.45 -52.4 42.9 -56.5 46.0 -60.85 48.7 -65.5 51.0 -70.4 Q57.05 -85.4 53.45 -102.05" fill="#ffffff" fill-rule="evenodd" stroke="none"/>
      <path d="M53.45 -102.05 Q57.05 -85.4 51.0 -70.4 L48.7 -65.5 46.0 -60.85 42.9 -56.5 39.45 -52.4 36.65 -49.7 Q26.25 -40.2 11.5 -36.95 -5.2 -33.4 -20.15 -39.5 -22.6 -40.5 -25.0 -41.75 L-28.75 -43.9 -29.65 -44.5 -34.0 -47.55 -38.1 -51.05 -39.4 -52.3 Q-47.1 -60.0 -51.05 -70.3 -52.65 -74.4 -53.6 -78.9 -56.6 -92.8 -52.85 -105.5 L-51.05 -110.7 -48.8 -115.6 -46.1 -120.15 -43.0 -124.55 -39.45 -128.65 Q-28.4 -140.45 -11.65 -144.05 5.1 -147.7 20.15 -141.5 L25.0 -139.2 29.6 -136.5 30.5 -135.9 34.05 -133.4 38.1 -129.9 39.35 -128.7 Q47.0 -121.0 50.95 -110.7 52.5 -106.6 53.45 -102.05" fill="#cc0000" fill-rule="evenodd" stroke="none"/>
      <path d="M65.65 -96.1 Q67.5 -76.8 58.05 -59.45 L55.3 -54.9 52.25 -50.45 Q37.9 -31.35 13.95 -26.15 -10.05 -21.05 -31.0 -32.5 L-34.65 -34.65 -35.6 -35.25 -40.0 -38.25 Q-59.15 -52.65 -64.35 -76.6 -69.5 -100.55 -58.0 -121.55 L-55.3 -126.15 -52.25 -130.55 Q-41.0 -145.5 -23.85 -151.95 -19.15 -153.75 -13.9 -154.85 10.05 -160.05 31.05 -148.55 L35.65 -145.8 36.6 -145.25 40.05 -142.75 Q59.15 -128.4 64.35 -104.4 65.25 -100.2 65.65 -96.1 M53.45 -102.05 Q57.05 -85.4 51.0 -70.4 L48.7 -65.5 46.0 -60.85 42.9 -56.5 39.45 -52.4 36.65 -49.7 Q26.25 -40.2 11.5 -36.95 -5.2 -33.4 -20.15 -39.5 -22.6 -40.5 -25.0 -41.75 L-28.75 -43.9 -29.65 -44.5 -34.0 -47.55 -38.1 -51.05 -39.4 -52.3 Q-47.1 -60.0 -51.05 -70.3 -52.65 -74.4 -53.6 -78.9 -56.6 -92.8 -52.85 -105.5 L-51.05 -110.7 -48.8 -115.6 -46.1 -120.15 -43.0 -124.55 -39.45 -128.65 Q-28.4 -140.45 -11.65 -144.05 5.1 -147.7 20.15 -141.5 L25.0 -139.2 29.6 -136.5 30.5 -135.9 34.05 -133.4 38.1 -129.9 39.35 -128.7 Q47.0 -121.0 50.95 -110.7 52.5 -106.6 53.45 -102.05" fill="none" stroke="#000000" stroke-linecap="round" stroke-linejoin="miter" stroke-miterlimit="768" stroke-width="5.0"/>
      <path d="M44.9 -81.75 L-44.85 -81.75 -44.85 -99.3 44.9 -99.3 44.9 -81.75" fill="#ffffff" fill-rule="evenodd" stroke="none"/>
      <path d="M44.9 -81.75 L-44.85 -81.75 -44.85 -99.3 44.9 -99.3 44.9 -81.75" fill="none" stroke="#000000" stroke-linecap="round" stroke-linejoin="miter" stroke-miterlimit="768" stroke-width="5.0"/>
    </g>
  </defs>
</svg>
