<?xml version="1.0" encoding="UTF-8" standalone="no"?>
<svg xmlns:xlink="http://www.w3.org/1999/xlink" height="720.75px" width="1716.8px" xmlns="http://www.w3.org/2000/svg">
  <g transform="matrix(1, 0, 0, 1, 307.05, 450.35)">
    <use height="52.0" transform="matrix(1.0, 0.0, 0.0, 1.0, -171.4, -44.5)" width="188.5" xlink:href="#sprite0"/>
  </g>
  <defs>
    <g id="sprite0" transform="matrix(1, 0, 0, 1, 171.4, 44.5)">
      <use height="52.0" transform="matrix(1.0, 0.0, 0.0, 1.0, -171.4, -44.5)" width="188.5" xlink:href="#sprite1"/>
    </g>
    <g id="sprite1" transform="matrix(1, 0, 0, 1, 129.25, 26.0)">
      <use height="52.0" transform="matrix(1.0, 0.0, 0.0, 1.0, -129.25, -26.0)" width="188.5" xlink:href="#morphshape0"/>
    </g>
    <g id="morphshape0" transform="matrix(1, 0, 0, 1, 129.25, 26.0)">
      <path d="M25.05 24.15 Q25.15 25.1 25.2 26.0 L59.15 26.0 Q59.2 25.5 59.25 25.05 59.25 23.05 57.85 21.65 56.4 20.2 54.4 20.25 L53.85 20.25 Q53.5 16.65 50.85 14.05 47.8 11.0 43.55 11.0 39.2 11.0 36.15 14.05 L35.45 14.8 34.45 14.75 Q30.5 14.7 27.75 17.45 25.05 20.2 25.05 24.15" fill="#cccccc" fill-opacity="0.9019608" fill-rule="evenodd" stroke="none"/>
      <path d="M25.05 24.15 Q25.05 20.2 27.75 17.45 30.5 14.7 34.45 14.75 L35.45 14.8 36.15 14.05 Q39.2 11.0 43.55 11.0 47.8 11.0 50.85 14.05 53.5 16.65 53.85 20.25 L54.4 20.25 Q56.4 20.2 57.85 21.65 59.25 23.05 59.25 25.05 59.2 25.5 59.15 26.0 L25.2 26.0 Q25.15 25.1 25.05 24.15" fill="none" stroke="#cccccc" stroke-linecap="round" stroke-linejoin="round" stroke-opacity="0.0" stroke-width="1.0"/>
    </g>
  </defs>
</svg>
