<?xml version="1.0" encoding="UTF-8" standalone="no"?>
<svg xmlns:xlink="http://www.w3.org/1999/xlink" height="720.75px" width="1716.8px" xmlns="http://www.w3.org/2000/svg">
  <g transform="matrix(1, 0, 0, 1, 307.05, 450.35)">
    <use height="101.3" transform="matrix(0.85, 0.0, 0.0, 0.85, -14.0774, -8.6324)" width="31.1" xlink:href="#sprite0"/>
  </g>
  <defs>
    <g id="sprite0" transform="matrix(1, 0, 0, 1, 16.15, 9.45)">
      <use height="101.3" transform="matrix(1.0, 0.0, 0.0, 1.0, -16.15, -9.45)" width="31.1" xlink:href="#shape0"/>
    </g>
    <g id="shape0" transform="matrix(1, 0, 0, 1, 16.15, 9.45)">
      <path d="M-2.25 -6.95 L-2.3 -7.2 Q1.7 -12.25 2.4 -5.85 11.95 41.55 13.9 61.55 L14.2 64.8 Q15.05 76.65 14.15 82.65 12.85 91.0 8.15 91.7 2.25 92.55 -0.15 89.2 -7.55 78.65 -7.8 55.2 L-7.65 46.45 Q-6.45 16.1 -3.35 -4.35 -2.75 -6.45 -2.3 -6.95 L-2.25 -6.95 M-0.25 4.55 Q-2.1 18.1 -3.15 31.3 -4.15 43.0 -3.2 56.55 L-2.95 60.1 Q-1.6 75.65 3.5 85.4 5.3 88.9 9.05 85.45 12.15 82.6 9.6 65.7 L8.75 60.05 Q6.9 47.2 6.2 39.8 5.3 30.7 3.2 21.8 1.1 12.85 -0.25 4.55 M7.0 24.2 L7.05 24.45 7.1 24.45 7.0 24.2 M8.35 28.0 L8.25 27.7 8.15 28.2 8.05 28.5 8.35 28.0" fill="#000000" fill-rule="evenodd" stroke="none"/>
      <path d="M-0.25 4.55 Q1.1 12.85 3.2 21.8 5.3 30.7 6.2 39.8 6.9 47.2 8.75 60.05 L9.6 65.7 Q12.15 82.6 9.05 85.45 5.3 88.9 3.5 85.4 -1.6 75.65 -2.95 60.1 L-3.2 56.55 Q-4.15 43.0 -3.15 31.3 -2.1 18.1 -0.25 4.55" fill="#fff1dd" fill-rule="evenodd" stroke="none"/>
      <path d="M11.25 32.1 Q8.9 34.75 5.05 36.05 L3.75 36.45 M-13.15 35.1 Q-9.8 36.95 -4.75 37.65 L3.75 36.45" fill="none" stroke="#000000" stroke-linecap="round" stroke-linejoin="round" stroke-width="6.0"/>
      <path d="M3.75 36.45 L11.75 43.85 11.25 32.1 M3.75 36.45 L0.2 46.85 -4.75 37.65 -9.05 47.9 -13.15 35.1" fill="none" stroke="#000000" stroke-linecap="round" stroke-linejoin="miter" stroke-miterlimit="768" stroke-width="6.0"/>
      <path d="M3.75 36.45 L10.75 41.8 10.35 33.05 M-4.75 37.65 L0.1 45.15 3.75 36.45 M-4.75 37.65 L-9.15 45.15 -12.3 36.55" fill="none" stroke="#ffc4c4" stroke-linecap="round" stroke-linejoin="miter" stroke-miterlimit="768" stroke-width="2.0"/>
      <path d="M10.35 33.05 Q8.9 34.75 5.05 36.05 L3.75 36.45 -4.75 37.65 M-12.3 36.55 L-4.75 37.65" fill="none" stroke="#ffc4c4" stroke-linecap="round" stroke-linejoin="round" stroke-width="2.0"/>
      <path d="M-13.7 28.8 Q-12.95 21.15 -11.3 14.85 -7.4 -0.5 1.2 -7.25 L1.3 -7.15 2.05 -5.75 Q12.25 13.05 12.45 25.6 -1.1 34.15 -13.7 28.8" fill="#ec504c" fill-rule="evenodd" stroke="none"/>
      <path d="M12.45 25.6 Q12.5 28.0 12.15 30.2 9.5 32.35 6.8 33.6 -2.65 38.0 -14.05 33.25 L-13.7 28.8 Q-1.1 34.15 12.45 25.6" fill="#824a4a" fill-rule="evenodd" stroke="none"/>
      <path d="M1.2 -7.25 L1.3 -7.15 1.2 -7.25" fill="#ffffff" fill-rule="evenodd" stroke="none"/>
      <path d="M12.45 25.6 Q12.5 28.0 12.15 30.2 M-14.05 33.25 L-13.7 28.8 Q-12.95 21.15 -11.3 14.85 -7.4 -0.5 1.2 -7.25 L1.3 -7.15 2.05 -5.75 Q12.25 13.05 12.45 25.6" fill="none" stroke="#000000" stroke-linecap="round" stroke-linejoin="round" stroke-width="4.0"/>
      <path d="M12.15 30.2 Q9.5 32.35 6.8 33.6 -2.65 38.0 -14.05 33.25 M12.45 25.6 Q-1.1 34.15 -13.7 28.8" fill="none" stroke="#000000" stroke-linecap="round" stroke-linejoin="round" stroke-width="2.0"/>
    </g>
  </defs>
</svg>
