<?xml version="1.0" encoding="UTF-8" standalone="no"?>
<svg xmlns:xlink="http://www.w3.org/1999/xlink" height="720.75px" width="1716.8px" xmlns="http://www.w3.org/2000/svg">
  <g transform="matrix(1, 0, 0, 1, 307.05, 450.35)">
    <use height="65.05" transform="matrix(1.0, 0.0, 0.0, 1.0, -22.8, -35.35)" width="38.5" xlink:href="#sprite0"/>
  </g>
  <defs>
    <g id="sprite0" transform="matrix(1, 0, 0, 1, 19.25, 32.55)">
      <use height="65.05" transform="matrix(1.0, 0.0, 0.0, 1.0, -19.25, -32.55)" width="38.5" xlink:href="#shape0"/>
    </g>
    <g id="shape0" transform="matrix(1, 0, 0, 1, 19.25, 32.55)">
      <path d="M-15.5 -11.5 L-18.25 -16.25 -16.9 -20.15 -13.55 -13.7 -16.9 -20.15 5.05 -31.55 8.4 -25.15 -13.55 -13.7 -15.5 -11.5" fill="#333333" fill-rule="evenodd" stroke="none"/>
      <path d="M-15.5 -11.5 L-13.55 -13.7 Q-3.75 6.25 -4.5 31.5 L-9.25 30.5 -8.55 26.4 Q-6.8 11.35 -15.05 -10.4 L-15.5 -11.5" fill="#a5a5a5" fill-rule="evenodd" stroke="none"/>
      <path d="M8.4 -25.15 Q18.15 2.05 18.25 25.5 L-4.5 31.5 Q-3.75 6.25 -13.55 -13.7 L8.4 -25.15 M2.75 -6.0 L5.65 -5.35 Q8.8 -4.15 8.1 -0.6 L7.6 0.55 Q5.15 3.8 5.0 7.7 4.95 9.05 4.2 10.0 3.1 11.3 2.95 10.7 L2.0 5.5 Q2.5 4.1 3.55 3.1 4.8 1.85 5.3 0.2 6.45 -3.75 2.25 -3.45 L2.75 -6.0 2.25 -3.45 Q6.45 -3.75 5.3 0.2 4.8 1.85 3.55 3.1 2.5 4.1 2.0 5.5 L2.95 10.7 Q3.1 11.3 4.2 10.0 4.95 9.05 5.0 7.7 5.15 3.8 7.6 0.55 L8.1 -0.6 Q8.8 -4.15 5.65 -5.35 L2.75 -6.0 M-5.75 -7.25 L-4.25 -2.25 -5.75 -7.25 M-1.25 -3.6 L-0.25 -5.25 2.25 -3.45 0.5 -1.75 -1.25 -3.6 0.5 -1.75 2.25 -3.45 -0.25 -5.25 -1.25 -3.6 M3.25 25.5 L12.1 23.05 3.25 25.5 M12.5 10.25 L13.5 19.25 12.5 10.25 M-4.5 -10.55 L1.5 -13.25 -4.5 -10.55" fill="#ffffff" fill-rule="evenodd" stroke="none"/>
      <path d="M-8.55 26.4 Q-12.8 23.5 -18.0 25.25 -9.95 13.6 -15.05 -10.4 -6.8 11.35 -8.55 26.4" fill="#868686" fill-rule="evenodd" stroke="none"/>
      <path d="M-16.9 -20.15 L-18.25 -16.25 -15.5 -11.5 -13.55 -13.7 -16.9 -20.15 5.05 -31.55 8.4 -25.15 Q18.15 2.05 18.25 25.5 L-4.5 31.5 -9.25 30.5 -8.55 26.4 Q-12.8 23.5 -18.0 25.25 -9.95 13.6 -15.05 -10.4 L-15.5 -11.5 M8.4 -25.15 L-13.55 -13.7 M-4.5 31.5 Q-3.75 6.25 -13.55 -13.7 M-15.05 -10.4 Q-6.8 11.35 -8.55 26.4" fill="none" stroke="#000000" stroke-linecap="round" stroke-linejoin="round" stroke-width="2.0"/>
      <path d="M-1.25 -3.6 L0.5 -1.75 2.25 -3.45 -0.25 -5.25 -1.25 -3.6 M-4.25 -2.25 L-5.75 -7.25 M2.75 -6.0 L2.25 -3.45 Q6.45 -3.75 5.3 0.2 4.8 1.85 3.55 3.1 2.5 4.1 2.0 5.5 L2.95 10.7 Q3.1 11.3 4.2 10.0 4.95 9.05 5.0 7.7 5.15 3.8 7.6 0.55 L8.1 -0.6 Q8.8 -4.15 5.65 -5.35 L2.75 -6.0 M1.5 -13.25 L-4.5 -10.55 M13.5 19.25 L12.5 10.25 M12.1 23.05 L3.25 25.5" fill="none" stroke="#d5d5d5" stroke-linecap="round" stroke-linejoin="round" stroke-width="1.0"/>
    </g>
  </defs>
</svg>
