<?xml version="1.0" encoding="UTF-8" standalone="no"?>
<svg xmlns:xlink="http://www.w3.org/1999/xlink" height="720.75px" width="1716.8px" xmlns="http://www.w3.org/2000/svg">
  <g transform="matrix(1, 0, 0, 1, 307.05, 450.35)">
    <use height="50.55" transform="matrix(1.0, 0.0, 0.0, 1.0, -12.9, -41.65)" width="74.25" xlink:href="#sprite0"/>
  </g>
  <defs>
    <g id="sprite0" transform="matrix(1, 0, 0, 1, 36.9, 27.1)">
      <use height="33.45" transform="matrix(1.0, 0.0, 0.0, 1.0, -36.9, -10.0)" width="61.65" xlink:href="#shape0"/>
      <use height="34.55" transform="matrix(1.0, 0.0, 0.0, 1.0, 2.3, -27.1)" width="35.05" xlink:href="#sprite1"/>
    </g>
    <g id="shape0" transform="matrix(1, 0, 0, 1, 36.9, 10.0)">
      <path d="M24.75 -9.0 L24.6 -9.05 24.65 -9.15 24.75 -9.0 M18.2 -7.65 Q13.55 -6.0 -5.7 3.7 -25.0 13.35 -34.6 18.85 L-34.05 20.3 -33.75 20.7 -22.45 14.95 1.5 2.55 Q16.65 -5.1 19.05 -7.55 L18.2 -7.65 M18.75 -10.0 Q20.9 -7.7 21.3 -6.55 13.0 -1.45 -34.95 23.45 L-36.9 17.05 Q-36.25 16.95 -24.95 11.1 -15.05 6.0 -10.2 4.05 L18.75 -10.0" fill="#000000" fill-rule="evenodd" stroke="none"/>
      <path d="M18.2 -7.65 L19.05 -7.55 Q16.65 -5.1 1.5 2.55 L-22.45 14.95 -33.75 20.7 -34.05 20.3 -34.6 18.85 Q-25.0 13.35 -5.7 3.7 13.55 -6.0 18.2 -7.65" fill="#ffffff" fill-rule="evenodd" stroke="none"/>
    </g>
    <g id="sprite1" transform="matrix(1, 0, 0, 1, 17.3, 17.75)">
      <use height="28.1" transform="matrix(1.0, 0.0, 0.0, 1.0, -17.3, -14.05)" width="34.65" xlink:href="#shape1"/>
    </g>
    <g id="shape1" transform="matrix(1, 0, 0, 1, 17.3, 14.05)">
      <path d="M11.1 -9.15 Q11.75 -9.35 12.55 -8.55 12.05 -7.0 8.9 -4.85 5.2 -2.35 4.55 -1.45 3.25 -1.5 2.9 -2.65 2.4 -4.3 5.65 -6.45 8.35 -8.35 11.1 -9.15 M17.35 5.45 Q17.15 6.75 16.5 6.95 7.4 4.1 4.8 3.5 L4.55 2.85 Q4.3 2.0 4.55 1.8 L5.65 1.35 Q7.55 0.75 11.9 2.3 16.15 3.8 17.35 5.45 M4.75 8.75 L5.95 13.3 5.05 14.05 Q3.95 14.15 3.6 13.45 L1.05 5.15 2.15 4.5 Q3.75 4.0 4.75 8.75 M-2.35 -13.95 Q-1.2 -14.35 -0.65 -12.65 0.05 -10.2 -0.05 -4.7 L-0.9 -3.95 Q-2.5 -4.8 -2.85 -6.0 L-3.5 -13.3 Q-3.2 -13.4 -2.35 -13.95 M-11.5 -3.65 Q-6.75 -2.6 -5.8 -1.95 -6.3 -0.25 -6.8 -0.1 -7.0 -0.05 -17.1 -3.15 L-17.25 -4.15 -16.2 -4.55 -11.5 -3.65 M-5.4 3.7 L-4.6 3.6 -4.3 3.9 -4.2 3.7 -3.9 4.35 Q-3.5 5.7 -9.1 13.15 L-10.1 13.2 -10.9 12.25 Q-11.05 11.75 -9.25 8.25 -7.25 4.2 -5.4 3.7" fill="#ff0909" fill-rule="evenodd" stroke="none"/>
    </g>
  </defs>
</svg>
