<?xml version="1.0" encoding="UTF-8" standalone="no"?>
<svg xmlns:xlink="http://www.w3.org/1999/xlink" height="434.9px" width="399.95px" xmlns="http://www.w3.org/2000/svg">
  <g transform="matrix(1, 0, 0, 1, 210.75, 443.1)">
    <use height="103.15" transform="matrix(1.0, 0.0, 0.0, 1.0, -144.45, -339.8)" width="284.55" xlink:href="#shape0"/>
  </g>
  <defs>
    <g id="shape0" transform="matrix(1, 0, 0, 1, 144.45, 339.8)">
      <path d="M-74.5 -315.35 L-74.5 -315.4 -74.55 -315.45 -74.6 -315.45 Q-77.25 -313.1 -78.8 -309.85 -80.35 -306.6 -99.3 -296.3 -118.25 -286.05 -127.5 -274.2 -136.8 -262.35 -124.15 -239.15 -149.55 -262.9 -138.75 -275.75 -127.95 -288.6 -123.45 -300.95 -119.0 -313.3 -108.35 -317.05 -97.75 -320.85 -99.2 -324.55 -100.65 -328.25 -91.6 -326.05 -81.95 -337.4 -77.6 -333.1 -59.75 -319.4 -50.8 -298.5 -45.7 -291.9 -59.1 -289.0 L-73.95 -308.4 -73.95 -308.7 Q-73.75 -311.75 -74.5 -315.35" fill="#ffffff" fill-rule="evenodd" stroke="none"/>
      <path d="M-74.6 -315.45 L-74.55 -315.45 -74.5 -315.4 -74.5 -315.35 Q-73.75 -311.75 -73.95 -308.7 -74.4 -302.95 -78.3 -299.45 -80.6 -297.55 -96.0 -287.0 -111.45 -276.45 -118.2 -265.45 -124.95 -254.45 -124.15 -239.15 -136.8 -262.35 -127.5 -274.2 -118.25 -286.05 -99.3 -296.3 -80.35 -306.6 -78.8 -309.85 -77.25 -313.1 -74.6 -315.45" fill="#880000" fill-rule="evenodd" stroke="none"/>
      <path d="M-74.5 -315.35 Q-73.75 -311.75 -73.95 -308.7 M-73.95 -308.4 L-59.1 -289.0 Q-45.7 -291.9 -50.8 -298.5 -59.75 -319.4 -77.6 -333.1 -81.95 -337.4 -91.6 -326.05 -100.65 -328.25 -99.2 -324.55 -97.75 -320.85 -108.35 -317.05 -119.0 -313.3 -123.45 -300.95 -127.95 -288.6 -138.75 -275.75 -149.55 -262.9 -124.15 -239.15 -124.95 -254.45 -118.2 -265.45 -111.45 -276.45 -96.0 -287.0 -80.6 -297.55 -78.3 -299.45 -74.4 -302.95 -73.95 -308.7" fill="none" stroke="#000000" stroke-linecap="round" stroke-linejoin="round" stroke-width="5.0"/>
      <path d="M-124.15 -239.15 Q-136.8 -262.35 -127.5 -274.2 -118.25 -286.05 -99.3 -296.3 -80.35 -306.6 -78.8 -309.85 -77.25 -313.1 -74.6 -315.45" fill="none" stroke="#010101" stroke-linecap="round" stroke-linejoin="round" stroke-opacity="0.0" stroke-width="5.0"/>
      <path d="M76.55 -311.4 L61.75 -292.0 Q48.3 -294.9 53.4 -301.5 62.35 -322.4 80.25 -336.1 84.55 -340.4 94.25 -329.05 L101.3 -321.55 Q100.4 -322.6 110.95 -319.45 121.6 -316.3 128.85 -302.15 136.05 -288.05 134.45 -282.95 132.85 -277.85 136.05 -273.65 139.2 -269.5 136.05 -264.2 128.65 -251.8 126.8 -242.15 123.6 -256.15 123.65 -269.7 123.65 -283.2 103.3 -296.4 82.95 -309.6 81.4 -312.85 79.85 -316.1 77.2 -318.45 L77.15 -318.4 77.15 -318.35 Q76.35 -314.75 76.6 -311.7 L76.55 -311.4" fill="#ffffff" fill-rule="evenodd" stroke="none"/>
      <path d="M126.8 -242.15 Q109.1 -259.2 110.3 -269.45 111.5 -279.7 97.35 -290.1 L80.95 -302.45 Q77.0 -305.95 76.6 -311.7 76.35 -314.75 77.15 -318.35 L77.15 -318.4 77.2 -318.45 Q79.85 -316.1 81.4 -312.85 82.95 -309.6 103.3 -296.4 123.65 -283.2 123.65 -269.7 123.6 -256.15 126.8 -242.15" fill="#880000" fill-rule="evenodd" stroke="none"/>
      <path d="M76.55 -311.4 L61.75 -292.0 Q48.3 -294.9 53.4 -301.5 62.35 -322.4 80.25 -336.1 84.55 -340.4 94.25 -329.05 L101.3 -321.55 Q100.4 -322.6 110.95 -319.45 121.6 -316.3 128.85 -302.15 136.05 -288.05 134.45 -282.95 132.85 -277.85 136.05 -273.65 139.2 -269.5 136.05 -264.2 128.65 -251.8 126.8 -242.15 109.1 -259.2 110.3 -269.45 111.5 -279.7 97.35 -290.1 L80.95 -302.45 Q77.0 -305.95 76.6 -311.7 M77.15 -318.35 Q76.35 -314.75 76.6 -311.7" fill="none" stroke="#000000" stroke-linecap="round" stroke-linejoin="round" stroke-width="5.0"/>
      <path d="M126.8 -242.15 Q123.6 -256.15 123.65 -269.7 123.65 -283.2 103.3 -296.4 82.95 -309.6 81.4 -312.85 79.85 -316.1 77.2 -318.45" fill="none" stroke="#010101" stroke-linecap="round" stroke-linejoin="round" stroke-opacity="0.0" stroke-width="5.0"/>
    </g>
  </defs>
</svg>
