<?xml version="1.0" encoding="UTF-8" standalone="no"?>
<svg xmlns:xlink="http://www.w3.org/1999/xlink" height="434.9px" width="399.95px" xmlns="http://www.w3.org/2000/svg">
  <g transform="matrix(1, 0, 0, 1, 210.75, 443.1)">
    <use height="104.25" transform="matrix(1.0, 0.0, 0.0, 1.0, -93.2, -377.0)" width="213.5" xlink:href="#shape0"/>
  </g>
  <defs>
    <g id="shape0" transform="matrix(1, 0, 0, 1, 93.2, 377.0)">
      <path d="M-48.0 -287.5 Q-52.25 -270.8 -66.5 -276.0 -112.45 -314.8 -73.0 -366.5 -79.2 -314.05 -48.0 -287.5 M79.0 -276.0 Q64.75 -274.75 64.0 -289.0 89.6 -315.4 87.0 -375.0 122.5 -304.3 79.0 -276.0" fill="#f1dfb8" fill-rule="evenodd" stroke="none"/>
      <path d="M79.0 -276.0 Q122.5 -304.3 87.0 -375.0 89.6 -315.4 64.0 -289.0 64.75 -274.75 79.0 -276.0 M-48.0 -287.5 Q-79.2 -314.05 -73.0 -366.5 -112.45 -314.8 -66.5 -276.0 -52.25 -270.8 -48.0 -287.5" fill="none" stroke="#000000" stroke-linecap="round" stroke-linejoin="round" stroke-width="4.0"/>
      <path d="M97.35 -334.35 Q94.5 -332.0 89.2 -334.65 85.35 -328.25 74.8 -321.15 63.55 -326.9 69.1 -337.05 59.75 -347.3 66.85 -354.35 83.55 -354.55 88.35 -346.85 93.5 -348.8 97.9 -346.85 103.9 -356.45 118.75 -355.5 119.95 -347.4 116.05 -339.3 121.35 -327.45 112.0 -322.25 102.5 -327.55 98.1 -335.15 L97.85 -335.25 97.35 -334.35 M97.9 -346.85 Q99.6 -339.15 97.85 -335.25 99.6 -339.15 97.9 -346.85 M89.2 -334.65 Q87.2 -339.75 88.35 -346.85 87.2 -339.75 89.2 -334.65" fill="#f70000" fill-rule="evenodd" stroke="none"/>
      <path d="M97.35 -334.35 Q94.5 -332.0 89.2 -334.65 85.35 -328.25 74.8 -321.15 63.55 -326.9 69.1 -337.05 59.75 -347.3 66.85 -354.35 83.55 -354.55 88.35 -346.85 93.5 -348.8 97.9 -346.85 103.9 -356.45 118.75 -355.5 119.95 -347.4 116.05 -339.3 121.35 -327.45 112.0 -322.25 102.5 -327.55 98.1 -335.15 L98.1 -335.1 97.35 -334.35 97.85 -335.25 Q99.6 -339.15 97.9 -346.85 M88.35 -346.85 Q87.2 -339.75 89.2 -334.65" fill="none" stroke="#000000" stroke-linecap="round" stroke-linejoin="round" stroke-width="2.5"/>
    </g>
  </defs>
</svg>
