<?xml version="1.0" encoding="UTF-8" standalone="no"?>
<svg xmlns:xlink="http://www.w3.org/1999/xlink" height="434.9px" width="399.95px" xmlns="http://www.w3.org/2000/svg">
  <g transform="matrix(1, 0, 0, 1, 210.75, 443.1)">
    <use height="94.65" transform="matrix(1.0, 0.0, 0.0, 1.0, -108.95, -340.25)" width="216.95" xlink:href="#shape0"/>
  </g>
  <defs>
    <g id="shape0" transform="matrix(1, 0, 0, 1, 108.95, 340.25)">
      <path d="M97.6 -301.0 Q104.75 -287.45 103.65 -270.45 108.35 -264.45 102.55 -261.55 82.15 -263.95 53.9 -260.35 L4.05 -252.35 Q-17.9 -248.85 -34.45 -248.05 -40.5 -247.8 -45.8 -247.85 -72.75 -248.25 -96.55 -256.1 -108.0 -273.8 -104.55 -276.95 -114.15 -295.65 -80.5 -314.5 -44.2 -346.0 5.3 -330.9 41.1 -342.8 68.25 -316.05 70.0 -325.3 68.5 -338.0 L85.75 -318.2 Q93.65 -308.5 97.6 -301.0 M11.4 -262.0 L53.9 -268.85 Q82.15 -272.45 103.65 -270.45 82.15 -272.45 53.9 -268.85 L11.4 -262.0 4.05 -260.85 Q-23.55 -256.5 -34.45 -248.1 -23.55 -256.5 4.05 -260.85 L11.4 -262.0 Q15.2 -279.65 24.25 -284.4 27.5 -286.15 33.6 -287.85 L44.3 -290.85 Q57.65 -295.15 63.3 -303.5 66.8 -308.7 68.25 -316.05 66.8 -308.7 63.3 -303.5 57.65 -295.15 44.3 -290.85 L33.6 -287.85 Q27.5 -286.15 24.25 -284.4 15.2 -279.65 11.4 -262.0 M-34.45 -248.1 L-34.45 -248.05 -34.45 -248.1 Q-101.9 -267.05 -104.55 -276.95 -101.9 -267.05 -34.45 -248.1 M-4.5 -327.0 Q0.5 -329.3 5.3 -330.9 0.5 -329.3 -4.5 -327.0" fill="#ffffff" fill-rule="evenodd" stroke="none"/>
      <path d="M97.6 -301.0 Q104.75 -287.45 103.65 -270.45 108.35 -264.45 102.55 -261.55 82.15 -263.95 53.9 -260.35 L4.05 -252.35 Q-17.9 -248.85 -34.45 -248.05 -40.5 -247.8 -45.8 -247.85 -72.75 -248.25 -96.55 -256.1 -108.0 -273.8 -104.55 -276.95 -114.15 -295.65 -80.5 -314.5 -44.2 -346.0 5.3 -330.9 41.1 -342.8 68.25 -316.05 70.0 -325.3 68.5 -338.0 L85.75 -318.2 Q93.65 -308.5 97.6 -301.0 M-34.45 -248.1 Q-23.55 -256.5 4.05 -260.85 L11.4 -262.0 Q15.2 -279.65 24.25 -284.4 27.5 -286.15 33.6 -287.85 L44.3 -290.85 Q57.65 -295.15 63.3 -303.5 66.8 -308.7 68.25 -316.05 M103.65 -270.45 Q82.15 -272.45 53.9 -268.85 L11.4 -262.0 M-34.45 -248.1 Q-101.9 -267.05 -104.55 -276.95 M5.3 -330.9 Q0.5 -329.3 -4.5 -327.0" fill="none" stroke="#000000" stroke-linecap="round" stroke-linejoin="round" stroke-width="4.5"/>
    </g>
  </defs>
</svg>
