<?xml version="1.0" encoding="UTF-8" standalone="no"?>
<svg xmlns:xlink="http://www.w3.org/1999/xlink" height="434.9px" width="399.95px" xmlns="http://www.w3.org/2000/svg">
  <g transform="matrix(1, 0, 0, 1, 210.75, 443.1)">
    <use height="71.05" transform="matrix(1.0, 0.0, 0.0, 1.0, -107.1, -332.7)" width="67.15" xlink:href="#shape0"/>
  </g>
  <defs>
    <g id="shape0" transform="matrix(1, 0, 0, 1, 107.1, 332.7)">
      <path d="M-73.35 -324.0 L-75.5 -323.6 Q-77.6 -321.45 -76.5 -320.05 -75.95 -318.55 -73.1 -318.55 L-72.5 -318.6 -71.8 -317.5 Q-73.95 -315.45 -73.35 -314.9 L-71.9 -313.65 -70.25 -315.2 -68.1 -311.5 Q-67.5 -309.7 -69.9 -309.7 -72.3 -309.7 -73.2 -311.85 -73.75 -313.2 -74.25 -313.7 L-74.55 -314.25 -74.75 -314.4 -75.65 -314.2 Q-75.8 -309.25 -75.5 -306.1 L-73.55 -306.1 -73.55 -308.9 Q-72.05 -307.7 -70.05 -307.5 -68.05 -307.35 -66.45 -308.45 -64.9 -309.55 -66.0 -311.95 -67.8 -315.9 -68.75 -317.15 L-68.6 -317.95 -68.75 -319.05 -69.75 -319.3 -70.2 -319.0 -71.1 -320.0 Q-70.85 -320.7 -70.85 -321.7 -70.85 -324.2 -73.35 -324.0 M-61.55 -306.6 Q-52.95 -312.45 -47.15 -311.05 -41.55 -309.6 -42.6 -304.7 -43.75 -299.8 -50.35 -290.8 -56.95 -281.8 -74.05 -271.45 -90.35 -261.6 -97.45 -265.0 -104.5 -264.55 -104.6 -267.55 -90.0 -292.9 -87.5 -310.6 -85.85 -323.35 -83.25 -327.65 -80.75 -332.0 -75.2 -328.9 -72.0 -327.15 -67.85 -319.8 -64.95 -314.6 -61.55 -306.6 -62.85 -284.1 -97.25 -265.45 -62.85 -284.1 -61.55 -306.6 M-97.45 -265.0 L-97.25 -265.45 -97.45 -265.0" fill="#ffffff" fill-rule="evenodd" stroke="none"/>
      <path d="M-73.35 -324.0 Q-70.85 -324.2 -70.85 -321.7 -70.85 -320.7 -71.1 -320.0 L-70.2 -319.0 -69.75 -319.3 -68.75 -319.05 -68.6 -317.95 -68.75 -317.15 Q-67.8 -315.9 -66.0 -311.95 -64.9 -309.55 -66.45 -308.45 -68.05 -307.35 -70.05 -307.5 -72.05 -307.7 -73.55 -308.9 L-73.55 -306.1 -75.5 -306.1 Q-75.8 -309.25 -75.65 -314.2 L-74.75 -314.4 -74.55 -314.25 -74.25 -313.7 Q-73.75 -313.2 -73.2 -311.85 -72.3 -309.7 -69.9 -309.7 -67.5 -309.7 -68.1 -311.5 L-70.25 -315.2 -71.9 -313.65 -73.35 -314.9 Q-73.95 -315.45 -71.8 -317.5 L-72.5 -318.6 -73.1 -318.55 Q-75.95 -318.55 -76.5 -320.05 -77.6 -321.45 -75.5 -323.6 L-73.35 -324.0" fill="#3048a5" fill-rule="evenodd" stroke="none"/>
      <path d="M-61.55 -306.6 Q-52.95 -312.45 -47.15 -311.05 -41.55 -309.6 -42.6 -304.7 -43.75 -299.8 -50.35 -290.8 -56.95 -281.8 -74.05 -271.45 -90.35 -261.6 -97.45 -265.0 -104.5 -264.55 -104.6 -267.55 -90.0 -292.9 -87.5 -310.6 -85.85 -323.35 -83.25 -327.65 -80.75 -332.0 -75.2 -328.9 -72.0 -327.15 -67.85 -319.8 -64.95 -314.6 -61.55 -306.6" fill="none" stroke="#000000" stroke-linecap="round" stroke-linejoin="round" stroke-width="5.0"/>
      <path d="M-97.25 -265.45 L-97.45 -265.0" fill="none" stroke="#3048a5" stroke-linecap="round" stroke-linejoin="round" stroke-width="2.0"/>
      <path d="M-61.55 -306.6 Q-62.85 -284.1 -97.25 -265.45" fill="none" stroke="#3048a5" stroke-linecap="round" stroke-linejoin="round" stroke-width="3.0"/>
    </g>
  </defs>
</svg>
