<?xml version="1.0" encoding="UTF-8" standalone="no"?>
<svg xmlns:xlink="http://www.w3.org/1999/xlink" height="434.9px" width="399.95px" xmlns="http://www.w3.org/2000/svg">
  <g transform="matrix(1, 0, 0, 1, 210.75, 443.1)">
    <use height="160.5" transform="matrix(1.0, 0.0, 0.0, 1.0, -158.6, -357.95)" width="319.8" xlink:href="#shape0"/>
  </g>
  <defs>
    <g id="shape0" transform="matrix(1, 0, 0, 1, 158.6, 357.95)">
      <path d="M103.2 -293.75 Q102.8 -297.05 101.8 -300.2 L100.7 -303.2 Q125.75 -315.85 142.25 -313.1 149.1 -311.95 153.5 -308.45 157.65 -305.1 158.5 -300.45 159.4 -295.8 156.6 -291.2 153.55 -286.25 146.95 -282.55 132.85 -274.65 109.35 -274.7 L109.75 -275.05 107.4 -274.75 103.7 -274.85 103.4 -274.85 100.75 -275.45 97.75 -268.5 Q8.2 -295.55 -96.0 -267.0 L-104.95 -278.05 Q-101.1 -276.4 -96.8 -276.9 -93.2 -277.4 -89.25 -279.35 -85.9 -281.1 -82.3 -283.95 -69.15 -294.65 -51.35 -292.45 -40.2 -289.05 -30.1 -288.9 L-21.55 -289.35 Q-14.25 -290.25 -7.5 -293.05 10.05 -303.7 29.75 -292.9 33.5 -290.85 37.25 -289.25 L41.8 -287.55 Q55.3 -283.05 68.55 -285.25 81.9 -291.1 88.5 -284.8 89.7 -283.65 90.7 -282.1 92.7 -280.0 94.8 -278.45 97.65 -276.4 100.75 -275.45 L102.5 -281.65 Q122.3 -282.0 133.3 -288.0 144.25 -294.05 141.35 -298.0 138.45 -302.0 127.2 -301.7 115.9 -301.45 103.2 -293.75 M107.05 -242.9 Q97.85 -242.9 91.9 -247.5 83.55 -253.95 70.3 -249.15 57.0 -244.35 48.9 -249.85 40.8 -255.35 34.15 -256.25 27.5 -257.15 12.75 -250.7 -2.05 -244.3 -20.65 -253.05 -32.1 -260.7 -54.8 -250.6 -66.35 -241.3 -82.95 -247.5 -89.15 -249.8 -98.1 -246.95 -103.95 -245.15 -110.9 -241.1 -109.95 -248.25 -99.9 -255.4 10.65 -279.95 104.75 -253.75 111.85 -250.65 115.05 -243.7 L107.05 -242.9 M-99.1 -284.6 Q-128.5 -283.2 -144.35 -292.05 -150.95 -295.75 -154.0 -300.7 -156.8 -305.3 -155.9 -309.95 -155.05 -314.6 -150.9 -317.95 -146.5 -321.45 -139.65 -322.6 -123.4 -325.3 -102.0 -314.5 L-97.75 -302.85 Q-113.3 -310.95 -125.2 -311.05 -135.45 -311.1 -137.25 -306.05 -139.05 -300.95 -130.15 -296.6 -119.7 -291.5 -99.8 -291.5 -99.8 -288.15 -99.1 -284.6" fill="#ffffff" fill-rule="evenodd" stroke="none"/>
      <path d="M100.7 -303.2 L101.8 -300.2 Q102.8 -297.05 103.2 -293.75 103.85 -287.95 102.5 -281.65 L100.75 -275.45 Q97.65 -276.4 94.8 -278.45 L100.7 -303.2 M58.55 -334.1 Q72.7 -329.6 82.85 -323.0 L83.65 -322.45 Q89.85 -318.3 94.15 -313.45 L41.8 -287.55 37.25 -289.25 50.2 -316.95 23.4 -341.05 Q36.35 -339.8 48.25 -336.95 L58.55 -334.1 M-96.8 -276.9 Q-98.35 -280.85 -99.1 -284.6 -99.8 -288.15 -99.8 -291.5 -99.85 -297.4 -97.75 -302.85 L-89.25 -279.35 Q-93.2 -277.4 -96.8 -276.9 M-90.55 -314.35 L-87.3 -317.6 Q-83.65 -320.9 -79.0 -323.8 L-74.25 -326.55 Q-63.05 -332.55 -48.15 -336.35 L-37.75 -338.65 Q-23.75 -341.3 -8.8 -341.95 L-37.5 -318.0 -21.55 -289.35 -30.1 -288.9 -90.55 -314.35 M97.75 -268.5 L100.25 -267.75 104.75 -253.75 Q10.65 -279.95 -99.9 -255.4 L-96.0 -267.0 Q8.2 -295.55 97.75 -268.5" fill="#313171" fill-rule="evenodd" stroke="none"/>
      <path d="M100.7 -303.2 L94.8 -278.45 Q92.7 -280.0 90.7 -282.1 89.7 -283.65 88.5 -284.8 81.9 -291.1 68.55 -285.25 55.3 -283.05 41.8 -287.55 L94.15 -313.45 Q89.85 -318.3 83.65 -322.45 L82.85 -323.0 Q72.7 -329.6 58.55 -334.1 L82.0 -341.5 94.95 -313.85 104.3 -318.5 100.7 -303.2 M94.95 -313.85 L94.15 -313.45 94.95 -313.85 M-102.0 -314.5 L-104.0 -320.0 -90.55 -314.35 -30.1 -288.9 Q-40.2 -289.05 -51.35 -292.45 -69.15 -294.65 -82.3 -283.95 -85.9 -281.1 -89.25 -279.35 L-97.75 -302.85 -102.0 -314.5 -101.3 -314.15 -102.0 -314.5 M-87.3 -317.6 L-75.5 -344.0 -48.15 -336.35 Q-63.05 -332.55 -74.25 -326.55 L-79.0 -323.8 Q-83.65 -320.9 -87.3 -317.6" fill="#3c3c3c" fill-rule="evenodd" stroke="none"/>
      <path d="M-8.8 -341.95 L7.4 -355.45 23.4 -341.05 50.2 -316.95 37.25 -289.25 Q33.5 -290.85 29.75 -292.9 10.05 -303.7 -7.5 -293.05 -14.25 -290.25 -21.55 -289.35 L-37.5 -318.0 -8.8 -341.95 M7.0 -342.0 L6.5 -341.95 Q4.5 -341.8 3.1 -340.4 1.5 -338.8 1.5 -336.5 1.5 -334.2 3.1 -332.6 4.5 -331.2 6.5 -331.0 L7.0 -331.0 Q9.3 -331.0 10.9 -332.6 12.5 -334.2 12.5 -336.5 12.5 -338.8 10.9 -340.4 9.3 -342.0 7.0 -342.0 L7.0 -347.0 7.0 -342.0 Q9.3 -342.0 10.9 -340.4 12.5 -338.8 12.5 -336.5 12.5 -334.2 10.9 -332.6 9.3 -331.0 7.0 -331.0 L7.0 -324.5 7.0 -331.0 6.5 -331.0 Q4.5 -331.2 3.1 -332.6 1.5 -334.2 1.5 -336.5 1.5 -338.8 3.1 -340.4 4.5 -341.8 6.5 -341.95 L7.0 -342.0 M7.45 -305.1 Q4.7 -305.95 3.95 -306.7 2.6 -308.05 2.6 -310.0 2.6 -311.95 5.45 -312.35 0.9 -316.9 -9.75 -315.0 -7.75 -306.1 7.45 -305.1 22.0 -306.25 24.0 -314.75 14.65 -316.75 9.55 -312.35 12.0 -311.6 12.0 -310.0 12.0 -308.05 10.6 -306.7 9.95 -306.0 7.45 -305.1 9.95 -306.0 10.6 -306.7 12.0 -308.05 12.0 -310.0 12.0 -311.6 9.55 -312.35 14.65 -316.75 24.0 -314.75 22.0 -306.25 7.45 -305.1 -7.75 -306.1 -9.75 -315.0 0.9 -316.9 5.45 -312.35 2.6 -311.95 2.6 -310.0 2.6 -308.05 3.95 -306.7 4.7 -305.95 7.45 -305.1 M35.95 -317.3 L19.5 -331.5 35.95 -317.3 M33.0 -298.0 L37.6 -309.65 33.0 -298.0 M-16.5 -297.5 L-23.0 -307.0 -16.5 -297.5 M-5.5 -331.0 L-22.0 -316.0 -5.5 -331.0" fill="#eadd6a" fill-rule="evenodd" stroke="none"/>
      <path d="M100.25 -267.75 Q141.55 -244.2 148.9 -219.4 L132.85 -200.35 Q126.95 -226.3 107.05 -242.9 L115.05 -243.7 Q111.85 -250.65 104.75 -253.75 L100.25 -267.75 M-98.1 -246.95 Q-116.3 -224.35 -123.95 -199.95 L-145.15 -222.2 Q-122.55 -255.4 -96.0 -267.0 L-99.9 -255.4 Q-109.95 -248.25 -110.9 -241.1 -103.95 -245.15 -98.1 -246.95" fill="#d02f2f" fill-rule="evenodd" stroke="none"/>
      <path d="M103.2 -293.75 Q102.8 -297.05 101.8 -300.2 L100.7 -303.2 94.8 -278.45 Q97.65 -276.4 100.75 -275.45 L102.5 -281.65 Q103.85 -287.95 103.2 -293.75 115.9 -301.45 127.2 -301.7 138.45 -302.0 141.35 -298.0 144.25 -294.05 133.3 -288.0 122.3 -282.0 102.5 -281.65 M58.55 -334.1 L82.0 -341.5 94.95 -313.85 104.3 -318.5 100.7 -303.2 Q125.75 -315.85 142.25 -313.1 149.1 -311.95 153.5 -308.45 157.65 -305.1 158.5 -300.45 159.4 -295.8 156.6 -291.2 153.55 -286.25 146.95 -282.55 132.85 -274.65 109.35 -274.7 L100.25 -267.75 Q141.55 -244.2 148.9 -219.4 L132.85 -200.35 Q126.95 -226.3 107.05 -242.9 97.85 -242.9 91.9 -247.5 83.55 -253.95 70.3 -249.15 57.0 -244.35 48.9 -249.85 40.8 -255.35 34.15 -256.25 27.5 -257.15 12.75 -250.7 -2.05 -244.3 -20.65 -253.05 -32.1 -260.7 -54.8 -250.6 -66.35 -241.3 -82.95 -247.5 -89.15 -249.8 -98.1 -246.95 -116.3 -224.35 -123.95 -199.95 L-145.15 -222.2 Q-122.55 -255.4 -96.0 -267.0 L-104.95 -278.05 Q-101.1 -276.4 -96.8 -276.9 -98.35 -280.85 -99.1 -284.6 -128.5 -283.2 -144.35 -292.05 -150.95 -295.75 -154.0 -300.7 -156.8 -305.3 -155.9 -309.95 -155.05 -314.6 -150.9 -317.95 -146.5 -321.45 -139.65 -322.6 -123.4 -325.3 -102.0 -314.5 L-104.0 -320.0 -90.55 -314.35 -87.3 -317.6 -75.5 -344.0 -48.15 -336.35 -37.75 -338.65 Q-23.75 -341.3 -8.8 -341.95 L7.4 -355.45 23.4 -341.05 Q36.35 -339.8 48.25 -336.95 L58.55 -334.1 Q72.7 -329.6 82.85 -323.0 L83.65 -322.45 Q89.85 -318.3 94.15 -313.45 L41.8 -287.55 Q55.3 -283.05 68.55 -285.25 81.9 -291.1 88.5 -284.8 89.7 -283.65 90.7 -282.1 92.7 -280.0 94.8 -278.45 M94.15 -313.45 L94.95 -313.85 M37.25 -289.25 L50.2 -316.95 23.4 -341.05 M37.25 -289.25 Q33.5 -290.85 29.75 -292.9 10.05 -303.7 -7.5 -293.05 -14.25 -290.25 -21.55 -289.35 L-30.1 -288.9 Q-40.2 -289.05 -51.35 -292.45 -69.15 -294.65 -82.3 -283.95 -85.9 -281.1 -89.25 -279.35 -93.2 -277.4 -96.8 -276.9 M41.8 -287.55 L37.25 -289.25 M109.35 -274.7 L107.4 -274.75 103.7 -274.85 103.4 -274.85 100.75 -275.45 97.75 -268.5 100.25 -267.75 104.75 -253.75 Q111.85 -250.65 115.05 -243.7 L107.05 -242.9 M109.35 -274.7 L109.75 -275.05 107.4 -274.75 M-87.3 -317.6 Q-83.65 -320.9 -79.0 -323.8 L-74.25 -326.55 Q-63.05 -332.55 -48.15 -336.35 M-21.55 -289.35 L-37.5 -318.0 -8.8 -341.95 M-97.75 -302.85 Q-113.3 -310.95 -125.2 -311.05 -135.45 -311.1 -137.25 -306.05 -139.05 -300.95 -130.15 -296.6 -119.7 -291.5 -99.8 -291.5 -99.85 -297.4 -97.75 -302.85 L-102.0 -314.5 -101.3 -314.15 M-99.8 -291.5 Q-99.8 -288.15 -99.1 -284.6 M-96.0 -267.0 L-99.9 -255.4 Q10.65 -279.95 104.75 -253.75 M-98.1 -246.95 Q-103.95 -245.15 -110.9 -241.1 -109.95 -248.25 -99.9 -255.4 M-89.25 -279.35 L-97.75 -302.85 M-90.55 -314.35 L-30.1 -288.9 M97.75 -268.5 Q8.2 -295.55 -96.0 -267.0" fill="none" stroke="#000000" stroke-linecap="round" stroke-linejoin="round" stroke-width="5.0"/>
      <path d="M7.0 -347.0 L7.0 -342.0 Q9.3 -342.0 10.9 -340.4 12.5 -338.8 12.5 -336.5 12.5 -334.2 10.9 -332.6 9.3 -331.0 7.0 -331.0 L7.0 -324.5 M7.0 -331.0 L6.5 -331.0 Q4.5 -331.2 3.1 -332.6 1.5 -334.2 1.5 -336.5 1.5 -338.8 3.1 -340.4 4.5 -341.8 6.5 -341.95 L7.0 -342.0 M37.6 -309.65 L33.0 -298.0 M19.5 -331.5 L35.95 -317.3 M-22.0 -316.0 L-5.5 -331.0 M-23.0 -307.0 L-16.5 -297.5" fill="none" stroke="#867a13" stroke-linecap="round" stroke-linejoin="round" stroke-width="3.0"/>
      <path d="M7.45 -305.1 Q9.95 -306.0 10.6 -306.7 12.0 -308.05 12.0 -310.0 12.0 -311.6 9.55 -312.35 14.65 -316.75 24.0 -314.75 22.0 -306.25 7.45 -305.1 -7.75 -306.1 -9.75 -315.0 0.9 -316.9 5.45 -312.35 2.6 -311.95 2.6 -310.0 2.6 -308.05 3.95 -306.7 4.7 -305.95 7.45 -305.1" fill="none" stroke="#867a13" stroke-linecap="round" stroke-linejoin="round" stroke-width="2.0"/>
    </g>
  </defs>
</svg>
