<?xml version="1.0" encoding="UTF-8" standalone="no"?>
<svg xmlns:xlink="http://www.w3.org/1999/xlink" height="434.9px" width="399.95px" xmlns="http://www.w3.org/2000/svg">
  <g transform="matrix(1, 0, 0, 1, 210.75, 443.1)">
    <use height="292.85" transform="matrix(1.0, 0.0, 0.0, 1.0, -140.8, -368.65)" width="320.55" xlink:href="#shape0"/>
  </g>
  <defs>
    <g id="shape0" transform="matrix(1, 0, 0, 1, 140.8, 368.65)">
      <path d="M-128.55 -78.55 Q-134.35 -77.25 -135.7 -78.2 -137.0 -79.25 -137.35 -81.5 -137.75 -83.75 -136.95 -86.0 -136.3 -87.75 -135.25 -88.7 -136.2 -88.5 -137.05 -89.15 -138.35 -90.1 -138.7 -92.4 -139.05 -94.75 -138.25 -96.9 -137.45 -99.2 -135.65 -100.65 -137.2 -100.75 -138.1 -102.45 -138.95 -104.25 -138.65 -106.75 -138.4 -109.25 -137.15 -110.85 -136.05 -112.35 -134.7 -112.55 -136.0 -112.7 -136.8 -114.1 -137.7 -115.9 -137.5 -118.35 -137.25 -120.85 -136.05 -122.6 -134.8 -124.3 -133.3 -124.35 -134.85 -125.1 -135.65 -126.95 -136.4 -128.85 -136.05 -131.3 -135.7 -133.75 -134.35 -135.35 -133.0 -136.8 -131.45 -136.7 -132.85 -137.25 -133.45 -139.2 -134.1 -141.2 -133.6 -143.65 -133.0 -146.1 -131.65 -147.4 -130.25 -148.75 -128.8 -148.2 -130.2 -149.9 -130.75 -152.0 -131.3 -154.1 -130.7 -156.5 -130.05 -158.9 -128.6 -160.15 -127.2 -161.3 -125.75 -160.65 -126.4 -162.05 -126.9 -164.3 -127.35 -166.45 -126.65 -168.8 -125.85 -171.15 -124.45 -172.2 -122.95 -173.25 -121.45 -172.6 -122.35 -173.7 -122.55 -175.7 -122.85 -178.05 -121.9 -180.25 -120.95 -182.4 -119.45 -183.15 -117.9 -183.85 -116.65 -182.75 -117.55 -184.5 -117.7 -186.8 -117.8 -189.25 -116.75 -191.3 -115.7 -193.45 -114.15 -193.85 -112.7 -194.35 -111.6 -193.15 -112.5 -194.55 -112.5 -196.7 -112.5 -199.1 -111.45 -201.1 -110.35 -203.15 -108.8 -203.55 -107.3 -203.95 -106.1 -202.5 -106.85 -203.9 -106.85 -205.8 -106.85 -208.25 -105.65 -210.2 -104.6 -212.2 -103.0 -212.55 -101.5 -212.85 -100.4 -211.35 -100.95 -213.15 -100.65 -215.6 -100.4 -218.05 -99.1 -219.75 -97.9 -221.45 -96.3 -221.4 -94.85 -221.4 -93.85 -219.75 -94.65 -221.15 -94.6 -223.25 -94.55 -225.65 -93.4 -227.6 -92.3 -229.55 -90.7 -229.75 -89.2 -230.05 -88.25 -229.15 -89.3 -230.65 -89.25 -233.1 -89.2 -235.5 -88.0 -237.45 -86.85 -239.4 -85.35 -239.65 -83.95 -239.9 -82.8 -238.75 -83.9 -240.05 -84.05 -242.2 -84.2 -244.6 -83.2 -246.65 -82.2 -248.9 -80.65 -249.4 L-78.5 -249.25 Q-79.2 -249.95 -79.5 -251.25 -80.15 -253.35 -79.55 -255.75 -79.0 -258.1 -77.55 -259.4 -76.2 -260.6 -74.55 -260.2 L-74.65 -260.2 Q-76.1 -260.8 -76.75 -262.4 -77.55 -264.4 -77.1 -266.8 -76.65 -269.3 -75.3 -270.8 -74.3 -271.95 -73.1 -272.05 -73.95 -272.75 -74.4 -274.1 -75.05 -276.15 -74.55 -278.55 -74.05 -281.0 -72.65 -282.35 -71.3 -283.65 -69.5 -282.95 -71.1 -284.1 -71.5 -286.1 -72.05 -288.25 -71.3 -290.65 -70.6 -293.0 -69.1 -294.1 -67.8 -295.15 -66.5 -294.55 -67.35 -295.65 -67.45 -297.6 -67.7 -299.9 -66.7 -302.05 -65.75 -304.25 -64.15 -304.85 -62.65 -305.55 -61.4 -304.3 -62.2 -305.95 -62.15 -308.35 -62.1 -310.8 -61.0 -312.7 -59.9 -314.7 -58.3 -315.05 -56.75 -315.3 -55.7 -313.8 -55.95 -315.45 -55.4 -317.85 -54.9 -320.25 -53.5 -321.65 -52.15 -323.1 -50.65 -322.6 -49.2 -322.15 -48.5 -320.1 -48.4 -322.5 -47.75 -324.85 -47.2 -327.2 -45.75 -328.4 -44.3 -329.75 -42.9 -329.05 -41.45 -328.5 -40.85 -326.3 L-39.55 -329.85 Q-38.6 -332.0 -37.1 -332.7 -35.55 -333.4 -34.3 -332.15 -33.15 -331.0 -33.0 -329.05 -32.75 -331.1 -31.6 -332.95 -30.45 -334.8 -28.95 -335.05 -27.4 -335.25 -26.35 -333.7 -25.3 -332.15 -25.35 -329.65 -24.9 -331.75 -23.6 -333.25 -22.25 -334.85 -20.75 -334.65 -19.2 -334.4 -18.4 -332.5 -17.6 -330.65 -18.15 -325.05 -16.4 -321.0 -16.35 -318.55 -16.3 -316.1 -17.45 -314.1 -18.5 -312.1 -20.05 -311.6 -21.5 -311.25 -23.3 -313.85 L-23.15 -309.75 Q-23.1 -307.25 -24.2 -305.3 -25.25 -303.25 -26.8 -302.75 -28.35 -302.4 -30.65 -304.6 -30.05 -303.95 -29.65 -301.8 -29.25 -299.55 -29.95 -297.25 -30.7 -294.9 -32.2 -293.9 L-36.75 -294.05 Q-35.95 -292.6 -35.9 -290.2 -35.85 -287.7 -36.95 -285.75 -38.0 -283.7 -39.6 -283.25 -40.4 -283.05 -41.7 -283.8 L-41.4 -282.65 Q-40.95 -280.45 -41.7 -278.15 -42.45 -275.8 -43.95 -274.75 -45.45 -273.75 -46.7 -274.2 -45.9 -273.35 -45.6 -271.85 -45.15 -269.7 -45.8 -267.3 -46.55 -265.0 -48.0 -263.85 L-51.1 -263.75 Q-50.4 -263.25 -49.9 -262.15 -49.05 -260.35 -49.35 -257.85 -49.7 -255.45 -50.95 -253.75 -51.95 -252.55 -53.4 -252.45 -52.7 -252.0 -52.2 -250.9 -51.35 -249.1 -51.65 -246.6 -52.0 -244.15 -53.25 -242.45 -54.35 -241.1 -56.0 -241.15 -55.15 -240.6 -54.55 -239.35 -53.7 -237.5 -54.05 -235.0 -54.35 -232.55 -55.6 -230.9 -56.8 -229.4 -58.75 -229.6 -58.1 -229.15 -57.6 -228.15 -56.75 -226.3 -57.1 -223.85 -57.4 -221.35 -58.7 -219.7 -59.9 -218.2 -61.8 -218.45 -61.15 -217.6 -60.8 -216.1 -60.35 -213.95 -61.05 -211.55 -61.75 -209.25 -63.2 -208.1 L-66.2 -208.05 Q-65.5 -207.05 -65.2 -205.55 -64.7 -203.35 -65.4 -201.0 -66.15 -198.7 -67.6 -197.6 -68.95 -196.5 -70.65 -197.6 -70.2 -195.85 -70.15 -194.25 -70.05 -191.8 -71.05 -189.8 -72.15 -187.7 -73.65 -187.2 -74.85 -186.85 -75.85 -187.8 L-75.4 -186.4 Q-74.9 -184.15 -75.6 -181.8 -76.35 -179.45 -77.8 -178.4 -79.15 -177.35 -80.85 -178.4 -80.75 -176.85 -81.0 -175.2 -81.3 -172.75 -82.6 -171.1 -83.9 -169.45 -85.4 -169.6 -86.25 -169.65 -86.95 -170.55 -86.85 -170.05 -86.9 -169.55 -86.8 -167.2 -87.8 -165.1 -88.9 -163.05 -90.4 -162.5 -91.85 -162.05 -93.25 -163.85 -92.7 -162.85 -92.4 -161.4 -91.9 -159.2 -92.6 -156.8 -93.3 -154.5 -94.75 -153.4 -96.1 -152.35 -97.85 -153.4 -96.9 -152.15 -96.6 -150.65 -96.1 -148.45 -96.8 -146.1 -97.5 -143.75 -98.95 -142.7 -99.75 -142.15 -101.0 -142.25 -102.4 -142.4 -101.75 -141.7 -101.15 -140.95 -100.7 -138.3 -100.25 -135.55 -100.75 -133.7 -101.35 -131.9 -104.85 -130.3 -103.9 -130.15 -103.15 -129.2 -101.95 -127.85 -101.85 -125.45 -101.75 -123.0 -102.8 -120.95 -103.6 -119.4 -105.05 -118.7 L-103.7 -118.4 Q-102.3 -117.7 -101.85 -115.45 -101.3 -113.25 -102.0 -110.95 -102.7 -108.8 -106.2 -106.45 -103.55 -107.4 -102.7 -106.45 -101.6 -105.1 -101.45 -102.65 -101.4 -100.25 -102.45 -98.2 -103.4 -96.3 -106.2 -95.4 L-103.55 -95.1 Q-102.15 -94.4 -101.9 -91.55 -101.65 -88.8 -102.25 -86.2 -102.9 -83.65 -107.95 -80.75 -118.15 -138.3 -91.2 -174.95 -64.2 -211.65 -59.05 -250.2 -53.9 -288.7 -18.15 -325.05 -61.95 -324.7 -70.25 -261.5 -73.2 -238.9 -93.25 -212.7 -137.6 -154.85 -128.55 -78.55 M-134.6 -89.2 L-135.25 -88.7 -134.6 -89.2 M-105.6 -118.55 L-105.05 -118.7 -105.6 -118.55 M-59.05 -229.8 L-58.75 -229.6 -59.05 -229.8 M-66.05 -294.0 L-66.35 -294.3 -66.5 -294.55 -66.35 -294.3 -66.05 -294.0 M-72.25 -271.55 L-73.1 -272.05 -72.25 -271.55" fill="#ffffff" fill-rule="evenodd" stroke="none"/>
      <path d="M-107.95 -80.75 Q-115.1 -76.8 -128.55 -78.55 -137.6 -154.85 -93.25 -212.7 -73.2 -238.9 -70.25 -261.5 -61.95 -324.7 -18.15 -325.05 -53.9 -288.7 -59.05 -250.2 -64.2 -211.65 -91.2 -174.95 -118.15 -138.3 -107.95 -80.75" fill="#7e0101" fill-rule="evenodd" stroke="none"/>
      <path d="M-128.55 -78.55 Q-134.35 -77.25 -135.7 -78.2 -137.0 -79.25 -137.35 -81.5 -137.75 -83.75 -136.95 -86.0 -136.3 -87.75 -135.25 -88.7 -136.2 -88.5 -137.05 -89.15 -138.35 -90.1 -138.7 -92.4 -139.05 -94.75 -138.25 -96.9 -137.45 -99.2 -135.65 -100.65 -137.2 -100.75 -138.1 -102.45 -138.95 -104.25 -138.65 -106.75 -138.4 -109.25 -137.15 -110.85 -136.05 -112.35 -134.7 -112.55 -136.0 -112.7 -136.8 -114.1 -137.7 -115.9 -137.5 -118.35 -137.25 -120.85 -136.05 -122.6 -134.8 -124.3 -133.3 -124.35 -134.85 -125.1 -135.65 -126.95 -136.4 -128.85 -136.05 -131.3 -135.7 -133.75 -134.35 -135.35 -133.0 -136.8 -131.45 -136.7 -132.85 -137.25 -133.45 -139.2 -134.1 -141.2 -133.6 -143.65 -133.0 -146.1 -131.65 -147.4 -130.25 -148.75 -128.8 -148.2 -130.2 -149.9 -130.75 -152.0 -131.3 -154.1 -130.7 -156.5 -130.05 -158.9 -128.6 -160.15 -127.2 -161.3 -125.75 -160.65 -126.4 -162.05 -126.9 -164.3 -127.35 -166.45 -126.65 -168.8 -125.85 -171.15 -124.45 -172.2 -122.95 -173.25 -121.45 -172.6 -122.35 -173.7 -122.55 -175.7 -122.85 -178.05 -121.9 -180.25 -120.95 -182.4 -119.45 -183.15 -117.9 -183.85 -116.65 -182.75 -117.55 -184.5 -117.7 -186.8 -117.8 -189.25 -116.75 -191.3 -115.7 -193.45 -114.15 -193.85 -112.7 -194.35 -111.6 -193.15 -112.5 -194.55 -112.5 -196.7 -112.5 -199.1 -111.45 -201.1 -110.35 -203.15 -108.8 -203.55 -107.3 -203.95 -106.1 -202.5 -106.85 -203.9 -106.85 -205.8 -106.85 -208.25 -105.65 -210.2 -104.6 -212.2 -103.0 -212.55 -101.5 -212.85 -100.4 -211.35 -100.95 -213.15 -100.65 -215.6 -100.4 -218.05 -99.1 -219.75 -97.9 -221.45 -96.3 -221.4 -94.85 -221.4 -93.85 -219.75 -94.65 -221.15 -94.6 -223.25 -94.55 -225.65 -93.4 -227.6 -92.3 -229.55 -90.7 -229.75 -89.2 -230.05 -88.25 -229.15 -89.3 -230.65 -89.25 -233.1 -89.2 -235.5 -88.0 -237.45 -86.85 -239.4 -85.35 -239.65 -83.95 -239.9 -82.8 -238.75 -83.9 -240.05 -84.05 -242.2 -84.2 -244.6 -83.2 -246.65 -82.2 -248.9 -80.65 -249.4 L-78.5 -249.25 Q-79.2 -249.95 -79.5 -251.25 -80.15 -253.35 -79.55 -255.75 -79.0 -258.1 -77.55 -259.4 -76.2 -260.6 -74.55 -260.2 L-74.65 -260.2 Q-76.1 -260.8 -76.75 -262.4 -77.55 -264.4 -77.1 -266.8 -76.65 -269.3 -75.3 -270.8 -74.3 -271.95 -73.1 -272.05 -73.95 -272.75 -74.4 -274.1 -75.05 -276.15 -74.55 -278.55 -74.05 -281.0 -72.65 -282.35 -71.3 -283.65 -69.5 -282.95 -71.1 -284.1 -71.5 -286.1 -72.05 -288.25 -71.3 -290.65 -70.6 -293.0 -69.1 -294.1 -67.8 -295.15 -66.5 -294.55 -67.35 -295.65 -67.45 -297.6 -67.7 -299.9 -66.7 -302.05 -65.75 -304.25 -64.15 -304.85 -62.65 -305.55 -61.4 -304.3 -62.2 -305.95 -62.15 -308.35 -62.1 -310.8 -61.0 -312.7 -59.9 -314.7 -58.3 -315.05 -56.75 -315.3 -55.7 -313.8 -55.95 -315.45 -55.4 -317.85 -54.9 -320.25 -53.5 -321.65 -52.15 -323.1 -50.65 -322.6 -49.2 -322.15 -48.5 -320.1 -48.4 -322.5 -47.75 -324.85 -47.2 -327.2 -45.75 -328.4 -44.3 -329.75 -42.9 -329.05 -41.45 -328.5 -40.85 -326.3 L-39.55 -329.85 Q-38.6 -332.0 -37.1 -332.7 -35.55 -333.4 -34.3 -332.15 -33.15 -331.0 -33.0 -329.05 -32.75 -331.1 -31.6 -332.95 -30.45 -334.8 -28.95 -335.05 -27.4 -335.25 -26.35 -333.7 -25.3 -332.15 -25.35 -329.65 -24.9 -331.75 -23.6 -333.25 -22.25 -334.85 -20.75 -334.65 -19.2 -334.4 -18.4 -332.5 -17.6 -330.65 -18.15 -325.05 -16.4 -321.0 -16.35 -318.55 -16.3 -316.1 -17.45 -314.1 -18.5 -312.1 -20.05 -311.6 -21.5 -311.25 -23.3 -313.85 L-23.15 -309.75 Q-23.1 -307.25 -24.2 -305.3 -25.25 -303.25 -26.8 -302.75 -28.35 -302.4 -30.65 -304.6 -30.05 -303.95 -29.65 -301.8 -29.25 -299.55 -29.95 -297.25 -30.7 -294.9 -32.2 -293.9 L-36.75 -294.05 Q-35.95 -292.6 -35.9 -290.2 -35.85 -287.7 -36.95 -285.75 -38.0 -283.7 -39.6 -283.25 -40.4 -283.05 -41.7 -283.8 L-41.4 -282.65 Q-40.95 -280.45 -41.7 -278.15 -42.45 -275.8 -43.95 -274.75 -45.45 -273.75 -46.7 -274.2 -45.9 -273.35 -45.6 -271.85 -45.15 -269.7 -45.8 -267.3 -46.55 -265.0 -48.0 -263.85 L-51.1 -263.75 Q-50.4 -263.25 -49.9 -262.15 -49.05 -260.35 -49.35 -257.85 -49.7 -255.45 -50.95 -253.75 -51.95 -252.55 -53.4 -252.45 -52.7 -252.0 -52.2 -250.9 -51.35 -249.1 -51.65 -246.6 -52.0 -244.15 -53.25 -242.45 -54.35 -241.1 -56.0 -241.15 -55.15 -240.6 -54.55 -239.35 -53.7 -237.5 -54.05 -235.0 -54.35 -232.55 -55.6 -230.9 -56.8 -229.4 -58.75 -229.6 -58.1 -229.15 -57.6 -228.15 -56.75 -226.3 -57.1 -223.85 -57.4 -221.35 -58.7 -219.7 -59.9 -218.2 -61.8 -218.45 -61.15 -217.6 -60.8 -216.1 -60.35 -213.95 -61.05 -211.55 -61.75 -209.25 -63.2 -208.1 L-66.2 -208.05 Q-65.5 -207.05 -65.2 -205.55 -64.7 -203.35 -65.4 -201.0 -66.15 -198.7 -67.6 -197.6 -68.95 -196.5 -70.65 -197.6 -70.2 -195.85 -70.15 -194.25 -70.05 -191.8 -71.05 -189.8 -72.15 -187.7 -73.65 -187.2 -74.85 -186.85 -75.85 -187.8 L-75.4 -186.4 Q-74.9 -184.15 -75.6 -181.8 -76.35 -179.45 -77.8 -178.4 -79.15 -177.35 -80.85 -178.4 -80.75 -176.85 -81.0 -175.2 -81.3 -172.75 -82.6 -171.1 -83.9 -169.45 -85.4 -169.6 -86.25 -169.65 -86.95 -170.55 -86.85 -170.05 -86.9 -169.55 -86.8 -167.2 -87.8 -165.1 -88.9 -163.05 -90.4 -162.5 -91.85 -162.05 -93.25 -163.85 -92.7 -162.85 -92.4 -161.4 -91.9 -159.2 -92.6 -156.8 -93.3 -154.5 -94.75 -153.4 -96.1 -152.35 -97.85 -153.4 -96.9 -152.15 -96.6 -150.65 -96.1 -148.45 -96.8 -146.1 -97.5 -143.75 -98.95 -142.7 -99.75 -142.15 -101.0 -142.25 -102.4 -142.4 -101.75 -141.7 -101.15 -140.95 -100.7 -138.3 -100.25 -135.55 -100.75 -133.7 -101.35 -131.9 -104.85 -130.3 -103.9 -130.15 -103.15 -129.2 -101.95 -127.85 -101.85 -125.45 -101.75 -123.0 -102.8 -120.95 -103.6 -119.4 -105.05 -118.7 L-103.7 -118.4 Q-102.3 -117.7 -101.85 -115.45 -101.3 -113.25 -102.0 -110.95 -102.7 -108.8 -106.2 -106.45 -103.55 -107.4 -102.7 -106.45 -101.6 -105.1 -101.45 -102.65 -101.4 -100.25 -102.45 -98.2 -103.4 -96.3 -106.2 -95.4 L-103.55 -95.1 Q-102.15 -94.4 -101.9 -91.55 -101.65 -88.8 -102.25 -86.2 -102.9 -83.65 -107.95 -80.75 -115.1 -76.8 -128.55 -78.55 -137.6 -154.85 -93.25 -212.7 -73.2 -238.9 -70.25 -261.5 -61.95 -324.7 -18.15 -325.05 -53.9 -288.7 -59.05 -250.2 -64.2 -211.65 -91.2 -174.95 -118.15 -138.3 -107.95 -80.75 M-73.1 -272.05 L-72.25 -271.55 M-66.5 -294.55 L-66.35 -294.3 -66.05 -294.0 M-58.75 -229.6 L-59.05 -229.8 M-105.05 -118.7 L-105.6 -118.55 M-135.25 -88.7 L-134.6 -89.2" fill="none" stroke="#000000" stroke-linecap="round" stroke-linejoin="round" stroke-width="4.0"/>
      <path d="M40.5 -315.3 Q39.25 -320.8 39.7 -322.85 40.1 -325.05 41.4 -325.7 42.65 -326.45 44.05 -325.3 45.35 -324.05 46.15 -322.2 45.7 -324.65 46.4 -326.5 47.0 -328.45 48.4 -328.7 49.75 -328.95 51.0 -327.4 52.25 -325.95 52.75 -323.85 52.6 -325.95 53.5 -327.5 54.35 -329.05 55.8 -328.8 57.2 -328.6 58.35 -326.75 L59.95 -323.6 Q60.1 -325.9 61.3 -326.95 62.4 -328.05 63.8 -327.2 65.2 -326.4 66.1 -324.2 L67.45 -319.65 Q67.65 -321.95 68.9 -322.85 L71.5 -322.8 Q72.95 -321.8 73.7 -319.55 74.45 -317.25 74.5 -315.6 75.25 -317.4 76.65 -317.55 78.0 -317.7 79.25 -316.15 80.5 -314.5 80.9 -312.05 81.2 -309.6 80.8 -307.7 81.65 -309.4 83.1 -309.15 84.5 -309.0 85.7 -307.1 86.75 -305.25 86.95 -302.8 87.05 -300.95 86.55 -299.45 L86.45 -299.15 86.25 -298.8 86.45 -299.15 86.55 -299.45 Q87.55 -300.45 88.85 -299.85 90.3 -299.15 91.25 -297.0 92.15 -294.9 92.1 -292.5 91.9 -290.45 90.8 -288.75 92.25 -290.0 93.6 -289.05 94.95 -288.15 95.75 -285.85 96.55 -283.6 96.25 -281.35 96.05 -279.8 95.45 -278.85 L94.8 -278.1 95.45 -278.85 Q96.45 -279.1 97.5 -278.25 98.85 -277.2 99.6 -274.85 100.3 -272.5 99.9 -270.35 99.55 -268.45 98.4 -267.45 L98.35 -267.4 101.0 -267.55 Q102.4 -266.7 103.25 -264.45 104.1 -262.15 103.9 -259.9 103.75 -258.5 103.3 -257.6 104.05 -258.5 105.15 -258.4 106.5 -258.3 107.7 -256.45 108.85 -254.65 109.05 -252.2 109.25 -249.95 108.5 -248.3 109.25 -249.8 110.55 -250.0 111.9 -250.25 113.15 -248.65 114.45 -247.0 114.85 -244.6 115.2 -242.15 114.55 -240.35 115.2 -241.6 116.55 -241.8 117.9 -242.0 119.2 -240.35 120.45 -238.8 120.85 -236.35 121.2 -234.3 120.7 -232.6 121.3 -234.6 122.6 -235.1 123.85 -235.6 125.25 -234.25 126.55 -232.95 127.15 -230.55 127.7 -228.15 127.5 -226.2 128.25 -228.0 129.65 -228.15 131.0 -228.3 132.3 -226.65 133.5 -225.05 133.85 -222.55 134.15 -220.6 133.8 -219.05 134.5 -220.85 135.9 -220.9 137.25 -221.0 138.45 -219.3 139.7 -217.6 140.05 -215.1 140.3 -213.0 139.75 -211.3 140.5 -212.9 141.9 -212.85 143.25 -212.8 144.45 -211.05 145.65 -209.2 145.9 -206.8 146.15 -204.4 145.65 -202.35 146.55 -203.85 147.95 -203.65 149.35 -203.35 150.45 -201.45 151.6 -199.55 151.7 -197.15 151.85 -195.05 151.15 -193.65 152.35 -194.75 153.8 -194.15 155.25 -193.5 156.15 -191.4 157.05 -189.25 157.0 -186.9 L156.6 -182.95 Q157.7 -184.05 159.1 -183.25 160.5 -182.45 161.4 -180.25 162.3 -178.1 162.1 -175.75 161.9 -173.5 160.95 -171.4 162.1 -172.3 163.5 -171.4 164.9 -170.5 165.7 -168.2 166.55 -165.95 166.25 -163.7 166.0 -161.6 164.9 -160.6 166.2 -161.2 167.55 -160.05 168.95 -158.9 169.6 -156.55 170.25 -154.2 169.85 -152.0 169.4 -149.95 168.25 -148.7 169.5 -149.1 170.85 -147.8 172.1 -146.4 172.65 -144.0 173.2 -141.55 172.65 -139.5 172.15 -137.85 171.1 -137.25 172.2 -137.5 173.45 -136.3 174.75 -135.05 175.35 -132.6 175.9 -130.25 175.35 -128.15 174.9 -126.1 173.6 -125.6 175.35 -124.65 176.35 -122.65 177.35 -120.65 177.35 -118.2 177.4 -115.8 176.4 -114.4 175.75 -113.55 174.9 -113.45 175.95 -112.85 176.75 -111.2 177.8 -109.25 177.75 -106.8 177.75 -104.4 176.75 -103.05 175.75 -101.65 170.6 -101.2 167.6 -180.7 121.15 -225.35 100.15 -245.5 94.4 -267.35 78.3 -328.4 40.5 -315.3 76.5 -289.75 86.4 -252.5 96.25 -215.3 124.7 -186.7 153.15 -158.15 152.45 -97.05 147.65 -98.4 146.75 -100.8 145.9 -103.15 145.7 -106.0 145.55 -108.95 146.65 -110.15 147.35 -110.9 148.85 -111.2 146.35 -111.25 145.25 -112.9 144.05 -114.7 143.8 -117.1 143.5 -119.6 144.35 -121.3 144.85 -122.5 147.3 -122.4 143.95 -123.6 143.1 -125.6 142.15 -127.75 142.3 -130.05 142.45 -132.45 143.45 -133.6 144.05 -134.2 144.6 -134.35 143.25 -134.6 142.3 -135.95 141.15 -137.7 140.95 -140.1 140.6 -142.65 141.45 -144.25 142.0 -145.5 142.85 -145.95 139.55 -146.5 138.8 -148.15 138.05 -149.85 138.05 -152.7 138.1 -155.6 138.55 -156.5 138.95 -157.3 137.85 -156.8 136.7 -156.25 136.0 -156.6 134.55 -157.25 133.65 -159.4 132.65 -161.55 132.8 -163.9 132.9 -165.5 133.5 -167.05 132.15 -165.5 130.85 -166.1 129.4 -166.7 128.45 -168.9 127.55 -171.05 127.65 -173.35 127.7 -175.0 128.05 -176.15 127.1 -173.95 125.8 -173.95 124.4 -174.0 123.2 -175.75 122.05 -177.5 121.8 -179.95 L121.7 -180.95 Q121.2 -179.85 120.45 -179.45 119.15 -178.9 117.85 -180.15 116.5 -181.45 115.9 -183.8 115.4 -185.4 115.3 -187.0 113.95 -185.4 112.65 -186.0 111.2 -186.7 110.3 -188.8 109.4 -191.0 109.45 -193.35 109.5 -194.25 109.7 -194.95 108.9 -193.6 107.85 -193.65 106.45 -193.65 105.3 -195.4 104.1 -197.2 103.85 -199.65 103.65 -201.25 103.85 -203.15 102.45 -201.6 101.2 -202.2 99.75 -202.85 98.8 -205.0 97.85 -207.15 97.95 -209.5 98.05 -211.05 98.5 -212.35 97.2 -210.9 95.9 -211.5 94.45 -212.15 93.5 -214.25 92.6 -216.45 92.7 -218.75 92.75 -220.4 93.2 -221.4 91.65 -220.6 90.35 -221.75 89.0 -223.0 88.4 -225.4 87.75 -227.8 88.25 -229.9 88.5 -231.0 89.0 -231.7 87.4 -230.95 86.1 -232.1 84.75 -233.3 84.15 -235.75 83.55 -238.15 84.05 -240.25 84.3 -241.65 84.95 -242.55 83.6 -241.95 82.5 -243.05 81.1 -244.25 80.5 -246.7 79.9 -249.05 80.35 -251.15 80.6 -252.35 81.15 -253.1 79.95 -252.7 78.85 -253.6 77.5 -254.9 76.9 -257.3 76.25 -259.7 76.75 -261.8 77.05 -263.05 77.6 -263.8 76.25 -262.3 74.9 -262.9 73.5 -263.55 72.5 -265.7 71.6 -267.85 71.75 -270.2 71.8 -271.8 72.3 -272.9 71.3 -272.05 69.85 -272.65 68.45 -273.2 67.4 -275.35 66.45 -277.45 66.5 -279.85 L66.6 -281.0 Q65.65 -279.85 64.9 -279.85 63.5 -279.75 62.3 -281.5 61.05 -283.2 60.8 -285.7 60.45 -288.1 60.9 -289.75 58.45 -287.7 57.05 -288.3 55.6 -288.85 54.6 -290.95 53.65 -293.05 53.7 -295.5 53.75 -297.75 54.2 -298.55 52.5 -295.65 51.1 -295.6 49.75 -295.55 48.5 -297.25 47.25 -298.95 46.95 -301.4 L46.55 -305.55 Q45.35 -302.4 44.05 -302.35 42.65 -302.35 41.4 -304.1 40.2 -305.8 39.9 -308.2 39.55 -310.65 40.5 -315.3 M174.3 -113.7 L174.9 -113.45 174.3 -113.7 M89.25 -232.05 L89.0 -231.7 89.25 -232.05 M145.1 -134.35 L144.6 -134.35 145.1 -134.35" fill="#ffffff" fill-rule="evenodd" stroke="none"/>
      <path d="M40.5 -315.3 Q78.3 -328.4 94.4 -267.35 100.15 -245.5 121.15 -225.35 167.6 -180.7 170.6 -101.2 159.2 -95.25 152.45 -97.05 153.15 -158.15 124.7 -186.7 96.25 -215.3 86.4 -252.5 76.5 -289.75 40.5 -315.3" fill="#7e0101" fill-rule="evenodd" stroke="none"/>
      <path d="M86.55 -299.45 Q87.05 -300.95 86.95 -302.8 86.75 -305.25 85.7 -307.1 84.5 -309.0 83.1 -309.15 81.65 -309.4 80.8 -307.7 81.2 -309.6 80.9 -312.05 80.5 -314.5 79.25 -316.15 78.0 -317.7 76.65 -317.55 75.25 -317.4 74.5 -315.6 74.45 -317.25 73.7 -319.55 72.95 -321.8 71.5 -322.8 L68.9 -322.85 Q67.65 -321.95 67.45 -319.65 L66.1 -324.2 Q65.2 -326.4 63.8 -327.2 62.4 -328.05 61.3 -326.95 60.1 -325.9 59.95 -323.6 L58.35 -326.75 Q57.2 -328.6 55.8 -328.8 54.35 -329.05 53.5 -327.5 52.6 -325.95 52.75 -323.85 52.25 -325.95 51.0 -327.4 49.75 -328.95 48.4 -328.7 47.0 -328.45 46.4 -326.5 45.7 -324.65 46.15 -322.2 45.35 -324.05 44.05 -325.3 42.65 -326.45 41.4 -325.7 40.1 -325.05 39.7 -322.85 39.25 -320.8 40.5 -315.3 78.3 -328.4 94.4 -267.35 100.15 -245.5 121.15 -225.35 167.6 -180.7 170.6 -101.2 175.75 -101.65 176.75 -103.05 177.75 -104.4 177.75 -106.8 177.8 -109.25 176.75 -111.2 175.95 -112.85 174.9 -113.45 L174.3 -113.7 M86.55 -299.45 L86.45 -299.15 86.25 -298.8 M95.45 -278.85 Q96.05 -279.8 96.25 -281.35 96.55 -283.6 95.75 -285.85 94.95 -288.15 93.6 -289.05 92.25 -290.0 90.8 -288.75 91.9 -290.45 92.1 -292.5 92.15 -294.9 91.25 -297.0 90.3 -299.15 88.85 -299.85 87.55 -300.45 86.55 -299.45 M40.5 -315.3 Q39.55 -310.65 39.9 -308.2 40.2 -305.8 41.4 -304.1 42.65 -302.35 44.05 -302.35 45.35 -302.4 46.55 -305.55 L46.95 -301.4 Q47.25 -298.95 48.5 -297.25 49.75 -295.55 51.1 -295.6 52.5 -295.65 54.2 -298.55 53.75 -297.75 53.7 -295.5 53.65 -293.05 54.6 -290.95 55.6 -288.85 57.05 -288.3 58.45 -287.7 60.9 -289.75 60.45 -288.1 60.8 -285.7 61.05 -283.2 62.3 -281.5 63.5 -279.75 64.9 -279.85 65.65 -279.85 66.6 -281.0 L66.5 -279.85 Q66.45 -277.45 67.4 -275.35 68.45 -273.2 69.85 -272.65 71.3 -272.05 72.3 -272.9 71.8 -271.8 71.75 -270.2 71.6 -267.85 72.5 -265.7 73.5 -263.55 74.9 -262.9 76.25 -262.3 77.6 -263.8 77.05 -263.05 76.75 -261.8 76.25 -259.7 76.9 -257.3 77.5 -254.9 78.85 -253.6 79.95 -252.7 81.15 -253.1 80.6 -252.35 80.35 -251.15 79.9 -249.05 80.5 -246.7 81.1 -244.25 82.5 -243.05 83.6 -241.95 84.95 -242.55 84.3 -241.65 84.05 -240.25 83.55 -238.15 84.15 -235.75 84.75 -233.3 86.1 -232.1 87.4 -230.95 89.0 -231.7 L89.25 -232.05 M95.45 -278.85 L94.8 -278.1 M174.9 -113.45 Q175.75 -113.55 176.4 -114.4 177.4 -115.8 177.35 -118.2 177.35 -120.65 176.35 -122.65 175.35 -124.65 173.6 -125.6 174.9 -126.1 175.35 -128.15 175.9 -130.25 175.35 -132.6 174.75 -135.05 173.45 -136.3 172.2 -137.5 171.1 -137.25 172.15 -137.85 172.65 -139.5 173.2 -141.55 172.65 -144.0 172.1 -146.4 170.85 -147.8 169.5 -149.1 168.25 -148.7 169.4 -149.95 169.85 -152.0 170.25 -154.2 169.6 -156.55 168.95 -158.9 167.55 -160.05 166.2 -161.2 164.9 -160.6 166.0 -161.6 166.25 -163.7 166.55 -165.95 165.7 -168.2 164.9 -170.5 163.5 -171.4 162.1 -172.3 160.95 -171.4 161.9 -173.5 162.1 -175.75 162.3 -178.1 161.4 -180.25 160.5 -182.45 159.1 -183.25 157.7 -184.05 156.6 -182.95 L157.0 -186.9 Q157.05 -189.25 156.15 -191.4 155.25 -193.5 153.8 -194.15 152.35 -194.75 151.15 -193.65 151.85 -195.05 151.7 -197.15 151.6 -199.55 150.45 -201.45 149.35 -203.35 147.95 -203.65 146.55 -203.85 145.65 -202.35 146.15 -204.4 145.9 -206.8 145.65 -209.2 144.45 -211.05 143.25 -212.8 141.9 -212.85 140.5 -212.9 139.75 -211.3 140.3 -213.0 140.05 -215.1 139.7 -217.6 138.45 -219.3 137.25 -221.0 135.9 -220.9 134.5 -220.85 133.8 -219.05 134.15 -220.6 133.85 -222.55 133.5 -225.05 132.3 -226.65 131.0 -228.3 129.65 -228.15 128.25 -228.0 127.5 -226.2 127.7 -228.15 127.15 -230.55 126.55 -232.95 125.25 -234.25 123.85 -235.6 122.6 -235.1 121.3 -234.6 120.7 -232.6 121.2 -234.3 120.85 -236.35 120.45 -238.8 119.2 -240.35 117.9 -242.0 116.55 -241.8 115.2 -241.6 114.55 -240.35 115.2 -242.15 114.85 -244.6 114.45 -247.0 113.15 -248.65 111.9 -250.25 110.55 -250.0 109.25 -249.8 108.5 -248.3 109.25 -249.95 109.05 -252.2 108.85 -254.65 107.7 -256.45 106.5 -258.3 105.15 -258.4 104.05 -258.5 103.3 -257.6 103.75 -258.5 103.9 -259.9 104.1 -262.15 103.25 -264.45 102.4 -266.7 101.0 -267.55 L98.35 -267.4 98.4 -267.45 Q99.55 -268.45 99.9 -270.35 100.3 -272.5 99.6 -274.85 98.85 -277.2 97.5 -278.25 96.45 -279.1 95.45 -278.85 M89.0 -231.7 Q88.5 -231.0 88.25 -229.9 87.75 -227.8 88.4 -225.4 89.0 -223.0 90.35 -221.75 91.65 -220.6 93.2 -221.4 92.75 -220.4 92.7 -218.75 92.6 -216.45 93.5 -214.25 94.45 -212.15 95.9 -211.5 97.2 -210.9 98.5 -212.35 98.05 -211.05 97.95 -209.5 97.85 -207.15 98.8 -205.0 99.75 -202.85 101.2 -202.2 102.45 -201.6 103.85 -203.15 103.65 -201.25 103.85 -199.65 104.1 -197.2 105.3 -195.4 106.45 -193.65 107.85 -193.65 108.9 -193.6 109.7 -194.95 109.5 -194.25 109.45 -193.35 109.4 -191.0 110.3 -188.8 111.2 -186.7 112.65 -186.0 113.95 -185.4 115.3 -187.0 115.4 -185.4 115.9 -183.8 116.5 -181.45 117.85 -180.15 119.15 -178.9 120.45 -179.45 121.2 -179.85 121.7 -180.95 L121.8 -179.95 Q122.05 -177.5 123.2 -175.75 124.4 -174.0 125.8 -173.95 127.1 -173.95 128.05 -176.15 127.7 -175.0 127.65 -173.35 127.55 -171.05 128.45 -168.9 129.4 -166.7 130.85 -166.1 132.15 -165.5 133.5 -167.05 132.9 -165.5 132.8 -163.9 132.65 -161.55 133.65 -159.4 134.55 -157.25 136.0 -156.6 136.7 -156.25 137.85 -156.8 138.95 -157.3 138.55 -156.5 138.1 -155.6 138.05 -152.7 138.05 -149.85 138.8 -148.15 139.55 -146.5 142.85 -145.95 142.0 -145.5 141.45 -144.25 140.6 -142.65 140.95 -140.1 141.15 -137.7 142.3 -135.95 143.25 -134.6 144.6 -134.35 L145.1 -134.35 M40.5 -315.3 Q76.5 -289.75 86.4 -252.5 96.25 -215.3 124.7 -186.7 153.15 -158.15 152.45 -97.05 159.2 -95.25 170.6 -101.2 M152.45 -97.05 Q147.65 -98.4 146.75 -100.8 145.9 -103.15 145.7 -106.0 145.55 -108.95 146.65 -110.15 147.35 -110.9 148.85 -111.2 146.35 -111.25 145.25 -112.9 144.05 -114.7 143.8 -117.1 143.5 -119.6 144.35 -121.3 144.85 -122.5 147.3 -122.4 143.95 -123.6 143.1 -125.6 142.15 -127.75 142.3 -130.05 142.45 -132.45 143.45 -133.6 144.05 -134.2 144.6 -134.35" fill="none" stroke="#000000" stroke-linecap="round" stroke-linejoin="round" stroke-width="4.0"/>
      <path d="M22.35 -359.45 L19.3 -356.35 22.35 -359.45 Q32.55 -357.2 21.9 -340.3 17.7 -337.05 8.55 -323.9 17.7 -337.05 21.9 -340.3 30.95 -347.35 41.4 -347.6 L44.15 -342.55 Q27.05 -343.15 6.25 -319.15 L4.45 -319.15 Q0.5 -345.9 15.7 -360.85 L22.35 -359.45 M6.25 -320.95 L6.25 -319.15 8.55 -323.9 Q21.3 -347.1 19.3 -356.35 6.35 -342.05 6.25 -320.95 M10.2 -312.15 L8.55 -311.7 8.7 -313.25 Q26.8 -331.0 48.95 -333.55 L51.45 -327.65 Q29.7 -324.9 10.2 -312.15 29.7 -324.9 51.45 -327.65 52.45 -323.75 48.85 -321.65 30.85 -321.55 11.6 -312.5 30.85 -321.55 48.85 -321.65 L52.05 -321.75 52.05 -316.35 Q37.95 -319.5 11.6 -312.5 L10.2 -312.15 M6.35 -309.45 Q36.05 -306.55 48.9 -300.15 L47.55 -296.15 Q25.25 -302.1 6.35 -309.45 M-34.7 -359.3 L-32.0 -363.55 Q-17.0 -361.75 -8.15 -329.45 L-7.95 -328.7 -7.7 -327.65 -4.25 -317.45 -7.7 -327.65 -7.95 -328.7 -8.15 -329.45 Q-14.2 -354.3 -4.6 -367.15 L0.5 -365.1 Q-11.8 -347.55 -1.6 -318.35 L-4.25 -317.45 -6.55 -316.15 Q-18.7 -355.25 -34.7 -359.3 M-41.75 -299.8 Q-31.45 -312.05 -7.85 -311.2 -31.1 -304.8 -39.7 -295.5 L-41.75 -299.8 M-10.85 -313.85 Q-19.9 -316.15 -25.4 -321.65 -41.45 -319.1 -52.35 -314.75 -52.95 -314.65 -53.85 -315.65 L-55.8 -318.25 Q-45.8 -323.15 -34.35 -324.05 -47.8 -329.65 -48.55 -339.7 L-45.95 -344.25 Q-32.75 -346.15 -26.9 -334.15 -21.8 -323.6 -10.85 -313.85 M-42.75 -339.4 L-48.55 -339.7 -42.75 -339.4 Q-38.95 -328.45 -30.1 -328.15 L-30.45 -328.85 Q-34.9 -337.75 -42.75 -339.4 M-34.35 -324.05 L-27.65 -324.25 Q-29.05 -326.05 -30.1 -328.15 -29.05 -326.05 -27.65 -324.25 L-26.25 -322.55 -26.0 -322.25 -25.4 -321.65 -26.0 -322.25 -26.25 -322.55 -27.65 -324.25 -34.35 -324.05" fill="#ffffff" fill-rule="evenodd" stroke="none"/>
      <path d="M15.7 -360.85 Q0.5 -345.9 4.45 -319.15 L6.25 -319.15 Q27.05 -343.15 44.15 -342.55 L48.95 -333.55 Q26.8 -331.0 8.7 -313.25 L8.55 -311.7 10.2 -312.15 8.4 -310.95 8.55 -311.7 8.4 -310.95 10.2 -312.15 11.6 -312.5 8.4 -310.95 6.2 -309.5 8.4 -310.95 11.6 -312.5 Q37.95 -319.5 52.05 -316.35 L48.9 -300.15 Q36.05 -306.55 6.35 -309.45 L6.2 -309.5 Q1.35 -306.7 -5.15 -307.3 -7.4 -308.8 -7.85 -311.2 -31.45 -312.05 -41.75 -299.8 -49.05 -305.85 -52.35 -314.75 -41.45 -319.1 -25.4 -321.65 -19.9 -316.15 -10.85 -313.85 L-10.3 -313.35 -7.9 -311.3 -10.3 -313.35 -10.85 -313.85 Q-21.8 -323.6 -26.9 -334.15 -32.75 -346.15 -45.95 -344.25 L-34.7 -359.3 Q-18.7 -355.25 -6.55 -316.15 L-4.25 -317.45 -1.6 -318.35 Q-11.8 -347.55 0.5 -365.1 L15.7 -360.85 M6.25 -320.95 Q6.35 -342.05 19.3 -356.35 21.3 -347.1 8.55 -323.9 L6.25 -320.95 M8.7 -313.25 Q8.75 -316.55 6.25 -319.15 8.75 -316.55 8.7 -313.25 M-7.9 -311.3 L-7.85 -311.2 -7.75 -311.25 -7.9 -311.3 Q-8.1 -313.2 -7.35 -315.55 L-6.55 -316.15 -7.35 -315.55 Q-8.1 -313.2 -7.9 -311.3 M-42.75 -339.4 Q-34.9 -337.75 -30.45 -328.85 L-30.1 -328.15 Q-38.95 -328.45 -42.75 -339.4 M4.45 -319.15 Q1.1 -319.15 -1.6 -318.35 1.1 -319.15 4.45 -319.15" fill="#7e0101" fill-rule="evenodd" stroke="none"/>
      <path d="M19.3 -356.35 L22.35 -359.45 15.7 -360.85 Q0.5 -345.9 4.45 -319.15 L6.25 -319.15 6.25 -320.95 Q6.35 -342.05 19.3 -356.35 21.3 -347.1 8.55 -323.9 17.7 -337.05 21.9 -340.3 32.55 -357.2 22.35 -359.45 M44.15 -342.55 L41.4 -347.6 Q30.95 -347.35 21.9 -340.3 M48.95 -333.55 Q26.8 -331.0 8.7 -313.25 L8.55 -311.7 10.2 -312.15 Q29.7 -324.9 51.45 -327.65 L48.95 -333.55 44.15 -342.55 Q27.05 -343.15 6.25 -319.15 8.75 -316.55 8.7 -313.25 M11.6 -312.5 L8.4 -310.95 6.2 -309.5 6.35 -309.45 Q36.05 -306.55 48.9 -300.15 L52.05 -316.35 Q37.95 -319.5 11.6 -312.5 30.85 -321.55 48.85 -321.65 52.45 -323.75 51.45 -327.65 M8.55 -311.7 L8.4 -310.95 10.2 -312.15 11.6 -312.5 M8.55 -323.9 L6.25 -319.15 M6.25 -320.95 L8.55 -323.9 M52.05 -316.35 L52.05 -321.75 48.85 -321.65 M6.35 -309.45 Q25.25 -302.1 47.55 -296.15 L48.9 -300.15 M-8.15 -329.45 Q-17.0 -361.75 -32.0 -363.55 L-34.7 -359.3 Q-18.7 -355.25 -6.55 -316.15 L-4.25 -317.45 -7.7 -327.65 -7.95 -328.7 -8.15 -329.45 Q-14.2 -354.3 -4.6 -367.15 L0.5 -365.1 15.7 -360.85 M-52.35 -314.75 Q-49.05 -305.85 -41.75 -299.8 -31.45 -312.05 -7.85 -311.2 L-7.9 -311.3 -10.3 -313.35 -10.85 -313.85 Q-19.9 -316.15 -25.4 -321.65 -41.45 -319.1 -52.35 -314.75 -52.95 -314.65 -53.85 -315.65 L-55.8 -318.25 Q-45.8 -323.15 -34.35 -324.05 -47.8 -329.65 -48.55 -339.7 L-45.95 -344.25 -34.7 -359.3 M-48.55 -339.7 L-42.75 -339.4 Q-34.9 -337.75 -30.45 -328.85 L-30.1 -328.15 Q-29.05 -326.05 -27.65 -324.25 L-26.25 -322.55 -26.0 -322.25 -25.4 -321.65 M-27.65 -324.25 L-34.35 -324.05 M-4.25 -317.45 L-1.6 -318.35 Q-11.8 -347.55 0.5 -365.1 M-7.9 -311.3 Q-8.1 -313.2 -7.35 -315.55 L-6.55 -316.15 M-7.85 -311.2 L-7.75 -311.25 -7.9 -311.3 M6.2 -309.5 Q1.35 -306.7 -5.15 -307.3 -7.4 -308.8 -7.85 -311.2 -31.1 -304.8 -39.7 -295.5 L-41.75 -299.8 M-10.85 -313.85 Q-21.8 -323.6 -26.9 -334.15 -32.75 -346.15 -45.95 -344.25 M-42.75 -339.4 Q-38.95 -328.45 -30.1 -328.15 M-1.6 -318.35 Q1.1 -319.15 4.45 -319.15" fill="none" stroke="#000000" stroke-linecap="round" stroke-linejoin="round" stroke-width="3.0"/>
    </g>
  </defs>
</svg>
