<?xml version="1.0" encoding="UTF-8" standalone="no"?>
<svg xmlns:xlink="http://www.w3.org/1999/xlink" height="434.9px" width="399.95px" xmlns="http://www.w3.org/2000/svg">
  <g transform="matrix(1, 0, 0, 1, 210.75, 443.1)">
    <use height="125.1" transform="matrix(1.0, 0.0, 0.0, 1.0, -80.25, -411.55)" width="121.35" xlink:href="#shape0"/>
  </g>
  <defs>
    <g id="shape0" transform="matrix(1, 0, 0, 1, 80.25, 411.55)">
      <path d="M19.65 -378.1 Q8.1 -383.5 -2.8 -383.5 -11.7 -383.5 -19.1 -377.8 L-21.45 -375.9 Q-23.75 -371.7 -24.55 -371.65 L-25.1 -371.7 -25.9 -370.15 -25.85 -370.05 -25.35 -369.75 Q-22.55 -370.95 -17.75 -372.45 -9.9 -374.95 -5.95 -374.95 5.2 -374.95 18.25 -373.2 30.1 -371.65 34.4 -370.0 25.9 -375.2 19.65 -378.1 M34.95 -374.25 Q39.5 -370.8 39.5 -368.6 L39.4 -366.1 Q38.85 -364.45 36.65 -364.45 8.6 -370.3 -0.7 -370.3 -10.65 -370.3 -17.75 -367.7 L-20.6 -366.4 -15.4 -362.75 Q-3.9 -354.6 -1.15 -352.45 L11.5 -343.35 Q19.4 -337.55 21.05 -335.6 35.55 -334.55 39.65 -331.55 41.65 -330.1 40.85 -328.25 40.45 -327.35 39.65 -326.75 37.15 -311.55 34.45 -306.3 L-10.15 -307.75 Q-32.7 -307.75 -42.35 -304.9 L-47.1 -302.95 -47.9 -302.55 Q-48.95 -300.1 -52.75 -294.55 -58.3 -286.45 -60.85 -286.45 -62.35 -286.45 -62.95 -287.15 -67.75 -287.95 -72.9 -296.85 -74.8 -300.05 -76.3 -303.75 L-77.6 -307.25 Q-77.6 -309.3 -70.55 -317.55 L-70.6 -318.65 -64.85 -327.05 -51.8 -344.45 Q-44.3 -354.2 -39.2 -360.15 -48.5 -356.25 -54.55 -353.35 -57.0 -352.2 -60.7 -347.3 -64.05 -342.85 -64.75 -342.85 -66.6 -342.85 -67.0 -345.5 -67.2 -346.85 -67.0 -348.35 -67.0 -350.4 -66.1 -353.7 -64.8 -358.3 -62.35 -362.05 -55.1 -373.15 -40.45 -373.15 L-38.65 -373.15 Q-41.75 -375.1 -43.6 -375.1 -65.4 -375.1 -72.55 -367.7 -74.3 -365.9 -75.8 -362.6 -76.85 -360.25 -77.95 -360.25 -79.8 -360.25 -80.15 -362.9 -80.35 -364.25 -80.2 -365.75 -80.2 -373.05 -78.35 -378.1 -74.3 -389.35 -62.65 -389.35 -49.05 -389.35 -38.2 -383.75 -33.55 -381.3 -30.9 -379.05 -30.7 -381.2 -29.9 -384.5 -28.35 -390.8 -25.55 -395.95 -17.25 -411.55 -1.15 -411.55 2.7 -411.55 2.3 -409.0 2.3 -407.35 -5.55 -399.5 L-14.5 -390.1 -17.4 -384.0 Q-9.4 -388.2 -1.15 -388.15 8.4 -388.15 23.95 -380.65 30.7 -377.45 34.95 -374.25 M31.8 -330.4 L-32.15 -329.85 -39.45 -329.1 -42.65 -328.35 Q-46.9 -328.35 -50.3 -326.85 L-52.85 -325.25 Q-52.85 -323.4 -50.4 -316.55 -48.05 -309.95 -47.95 -307.45 -45.75 -308.35 -42.35 -309.25 -30.1 -312.55 -10.15 -312.55 19.95 -312.55 29.3 -310.6 29.95 -313.2 31.4 -316.6 34.05 -322.75 34.05 -326.2 L34.05 -328.7 Q33.7 -330.4 31.8 -330.4 M19.85 -325.75 Q22.85 -325.75 22.1 -320.5 L22.3 -319.1 Q22.45 -318.05 22.1 -317.35 21.15 -315.25 15.65 -315.25 8.6 -315.25 7.95 -318.5 7.75 -319.5 8.15 -321.2 L8.6 -323.5 -10.15 -323.05 Q-11.75 -323.05 -12.2 -324.25 L-12.4 -325.6 -12.55 -326.6 Q-12.6 -327.1 -11.8 -327.35 L0.35 -328.15 13.6 -328.75 13.4 -328.65 Q12.55 -328.05 12.8 -326.95 L13.1 -326.05 13.1 -323.8 Q13.7 -321.1 13.7 -319.9 18.0 -320.25 17.85 -321.8 L17.45 -323.3 Q17.25 -324.3 17.75 -325.0 L18.45 -325.4 19.85 -325.75 M12.05 -336.05 L6.5 -340.1 -7.0 -350.5 -18.3 -358.7 -26.2 -365.0 Q-34.5 -341.95 -38.45 -335.0 L-29.9 -335.85 1.25 -336.2 12.05 -336.05 M-7.9 -405.55 Q-15.0 -405.55 -20.8 -395.3 -24.25 -389.2 -26.5 -380.95 L-26.5 -377.7 -26.2 -377.9 -25.4 -378.6 -19.2 -390.35 Q-13.8 -399.4 -6.55 -405.55 L-7.9 -405.55 M-74.85 -371.35 L-72.3 -373.25 Q-70.05 -375.0 -67.75 -376.1 -60.4 -379.75 -47.95 -379.75 -42.2 -379.75 -39.55 -378.45 -36.15 -376.75 -35.2 -376.6 L-39.4 -378.7 -41.85 -380.05 Q-45.05 -381.85 -47.0 -382.55 -52.7 -384.55 -68.35 -384.55 -71.95 -384.55 -74.95 -371.5 L-75.1 -371.2 -74.85 -371.35 M-33.1 -358.5 L-34.15 -357.3 -48.55 -341.35 -56.5 -330.45 -54.5 -331.6 Q-50.95 -333.2 -43.5 -334.35 L-33.65 -357.2 -33.1 -358.5 M-32.05 -367.7 Q-32.95 -368.5 -33.4 -368.5 L-45.4 -368.5 Q-48.8 -368.4 -50.05 -367.45 L-53.2 -363.75 Q-56.2 -359.85 -60.55 -355.75 -60.4 -355.8 -49.95 -361.2 -40.75 -365.95 -35.95 -365.95 L-34.0 -365.9 -32.05 -367.7 M-71.95 -306.6 Q-71.95 -303.8 -65.6 -296.85 L-61.1 -292.05 -56.6 -297.95 -52.5 -303.2 Q-54.05 -306.1 -56.0 -313.55 L-57.9 -321.65 -62.6 -316.75 Q-71.95 -307.0 -71.95 -306.6 M-67.6 -302.05 Q-67.6 -303.1 -63.8 -308.3 -59.9 -313.75 -58.75 -313.75 -56.5 -313.75 -56.5 -311.45 -56.5 -310.1 -61.15 -302.35 -57.75 -302.3 -57.7 -299.6 -57.7 -297.25 -60.55 -297.25 -63.45 -297.25 -65.75 -299.35 -67.6 -301.05 -67.6 -302.05 M-46.0 -319.85 Q-46.0 -322.55 -41.65 -324.05 -37.0 -325.75 -28.45 -325.75 -24.85 -325.75 -24.1 -322.7 -23.7 -321.25 -24.1 -319.6 -23.35 -313.45 -26.35 -313.45 L-27.55 -313.65 -28.45 -314.2 -28.6 -320.95 -31.0 -321.1 Q-38.4 -321.15 -39.95 -319.55 -40.5 -319.0 -40.45 -318.05 L-40.3 -316.75 Q-40.3 -313.45 -42.55 -313.45 -43.4 -313.45 -44.75 -316.55 L-46.0 -319.85 M-18.4 -316.6 Q-19.2 -317.05 -19.15 -317.55 L-19.0 -317.95 Q-19.0 -319.4 -18.25 -319.75 L-12.25 -320.35 Q-5.1 -320.35 -3.1 -319.0 -2.5 -318.6 -2.5 -317.45 -2.5 -315.25 -5.35 -315.25 -15.7 -315.25 -18.4 -316.6" fill="#000000" fill-rule="evenodd" stroke="none"/>
      <path d="M19.65 -378.1 Q25.9 -375.2 34.4 -370.0 30.1 -371.65 18.25 -373.2 5.2 -374.95 -5.95 -374.95 -9.9 -374.95 -17.75 -372.45 -22.55 -370.95 -25.35 -369.75 L-25.85 -370.05 -25.9 -370.15 -25.1 -371.7 -24.55 -371.65 Q-23.75 -371.7 -21.45 -375.9 L-19.1 -377.8 Q-11.7 -383.5 -2.8 -383.5 8.1 -383.5 19.65 -378.1 M-74.95 -371.5 Q-71.95 -384.55 -68.35 -384.55 -52.7 -384.55 -47.0 -382.55 -45.05 -381.85 -41.85 -380.05 L-39.4 -378.7 -35.2 -376.6 Q-36.15 -376.75 -39.55 -378.45 -42.2 -379.75 -47.95 -379.75 -60.4 -379.75 -67.75 -376.1 -70.05 -375.0 -72.3 -373.25 L-74.85 -371.35 -74.95 -371.5 M-7.9 -405.55 L-6.55 -405.55 Q-13.8 -399.4 -19.2 -390.35 L-25.4 -378.6 -26.2 -377.9 -26.5 -377.7 -26.5 -380.95 Q-24.25 -389.2 -20.8 -395.3 -15.0 -405.55 -7.9 -405.55 M-32.05 -367.7 L-34.0 -365.9 -35.95 -365.95 Q-40.75 -365.95 -49.95 -361.2 -60.4 -355.8 -60.55 -355.75 -56.2 -359.85 -53.2 -363.75 L-50.05 -367.45 Q-48.8 -368.4 -45.4 -368.5 L-33.4 -368.5 Q-32.95 -368.5 -32.05 -367.7" fill="#964b4b" fill-rule="evenodd" stroke="none"/>
      <path d="M12.05 -336.05 L1.25 -336.2 -29.9 -335.85 -38.45 -335.0 Q-34.5 -341.95 -26.2 -365.0 L-18.3 -358.7 -7.0 -350.5 6.5 -340.1 12.05 -336.05 M19.85 -325.75 L18.45 -325.4 17.75 -325.0 Q17.25 -324.3 17.45 -323.3 L17.85 -321.8 Q18.0 -320.25 13.7 -319.9 13.7 -321.1 13.1 -323.8 L13.1 -326.05 12.8 -326.95 Q12.55 -328.05 13.4 -328.65 L13.6 -328.75 0.35 -328.15 -11.8 -327.35 Q-12.6 -327.1 -12.55 -326.6 L-12.4 -325.6 -12.2 -324.25 Q-11.75 -323.05 -10.15 -323.05 L8.6 -323.5 8.15 -321.2 Q7.75 -319.5 7.95 -318.5 8.6 -315.25 15.65 -315.25 21.15 -315.25 22.1 -317.35 22.45 -318.05 22.3 -319.1 L22.1 -320.5 Q22.85 -325.75 19.85 -325.75 M31.8 -330.4 Q33.7 -330.4 34.05 -328.7 L34.05 -326.2 Q34.05 -322.75 31.4 -316.6 29.95 -313.2 29.3 -310.6 19.95 -312.55 -10.15 -312.55 -30.1 -312.55 -42.35 -309.25 -45.75 -308.35 -47.95 -307.45 -48.05 -309.95 -50.4 -316.55 -52.85 -323.4 -52.85 -325.25 L-50.3 -326.85 Q-46.9 -328.35 -42.65 -328.35 L-39.45 -329.1 -32.15 -329.85 31.8 -330.4 M-33.1 -358.5 L-33.65 -357.2 -43.5 -334.35 Q-50.95 -333.2 -54.5 -331.6 L-56.5 -330.45 -48.55 -341.35 -34.15 -357.3 -33.1 -358.5 M-18.4 -316.6 Q-15.7 -315.25 -5.35 -315.25 -2.5 -315.25 -2.5 -317.45 -2.5 -318.6 -3.1 -319.0 -5.1 -320.35 -12.25 -320.35 L-18.25 -319.75 Q-19.0 -319.4 -19.0 -317.95 L-19.15 -317.55 Q-19.2 -317.05 -18.4 -316.6 M-46.0 -319.85 L-44.75 -316.55 Q-43.4 -313.45 -42.55 -313.45 -40.3 -313.45 -40.3 -316.75 L-40.45 -318.05 Q-40.5 -319.0 -39.95 -319.55 -38.4 -321.15 -31.0 -321.1 L-28.6 -320.95 -28.45 -314.2 -27.55 -313.65 -26.35 -313.45 Q-23.35 -313.45 -24.1 -319.6 -23.7 -321.25 -24.1 -322.7 -24.85 -325.75 -28.45 -325.75 -37.0 -325.75 -41.65 -324.05 -46.0 -322.55 -46.0 -319.85 M-67.6 -302.05 Q-67.6 -301.05 -65.75 -299.35 -63.45 -297.25 -60.55 -297.25 -57.7 -297.25 -57.7 -299.6 -57.75 -302.3 -61.15 -302.35 -56.5 -310.1 -56.5 -311.45 -56.5 -313.75 -58.75 -313.75 -59.9 -313.75 -63.8 -308.3 -67.6 -303.1 -67.6 -302.05 M-71.95 -306.6 Q-71.95 -307.0 -62.6 -316.75 L-57.9 -321.65 -56.0 -313.55 Q-54.05 -306.1 -52.5 -303.2 L-56.6 -297.95 -61.1 -292.05 -65.6 -296.85 Q-71.95 -303.8 -71.95 -306.6" fill="#3d3e87" fill-rule="evenodd" stroke="none"/>
    </g>
  </defs>
</svg>
