<?xml version="1.0" encoding="UTF-8" standalone="no"?>
<svg xmlns:xlink="http://www.w3.org/1999/xlink" height="434.9px" width="399.95px" xmlns="http://www.w3.org/2000/svg">
  <g transform="matrix(1, 0, 0, 1, 210.75, 443.1)">
    <use height="203.15" transform="matrix(1.0, 0.0, 0.0, 1.0, -149.1, -351.55)" width="284.55" xlink:href="#shape0"/>
  </g>
  <defs>
    <g id="shape0" transform="matrix(1, 0, 0, 1, 149.1, 351.55)">
      <path d="M70.05 -311.85 L75.2 -307.55 Q87.05 -296.8 95.25 -281.45 104.2 -264.7 107.15 -250.25 110.05 -235.85 111.7 -215.4 113.3 -195.05 104.15 -180.8 95.0 -166.55 93.45 -165.4 96.95 -175.6 96.5 -185.6 96.0 -195.65 95.85 -219.2 95.65 -242.8 93.25 -249.55 92.1 -259.1 72.5 -272.0 52.8 -284.95 18.05 -284.95 L7.8 -284.45 Q-38.2 -280.85 -66.7 -269.65 -93.4 -259.15 -93.4 -247.05 -93.8 -245.6 -93.55 -244.55 -93.8 -243.0 -93.4 -240.7 -92.45 -225.25 -90.3 -210.0 -88.4 -196.2 -81.7 -165.9 -82.3 -166.1 -86.4 -169.3 -90.5 -172.5 -98.15 -184.25 -105.8 -195.95 -108.75 -209.95 -111.7 -223.95 -110.75 -248.05 -109.8 -272.15 -86.95 -299.45 L-81.35 -305.55 -76.4 -310.0 Q-49.0 -332.95 -1.45 -332.95 42.85 -332.95 70.05 -311.85" fill="#ffffff" fill-rule="evenodd" stroke="none"/>
      <path d="M-81.85 -315.7 Q-54.8 -337.95 -8.65 -340.45 L-1.95 -340.95 Q39.9 -340.95 67.9 -323.45 73.65 -319.9 78.75 -315.6 L79.7 -314.8 Q94.05 -302.45 103.2 -284.45 117.3 -256.8 118.35 -225.3 118.75 -211.05 116.9 -196.3 115.05 -181.75 101.45 -164.5 89.9 -154.45 86.8 -155.05 92.35 -176.45 88.75 -197.85 87.5 -245.1 88.1 -247.4 L85.5 -250.35 Q79.75 -256.3 72.55 -261.2 49.2 -276.95 18.55 -276.95 -16.35 -276.95 -41.85 -269.6 -55.0 -265.8 -64.15 -260.95 -70.3 -258.6 -86.4 -248.3 -86.1 -238.2 -81.3 -207.85 L-78.1 -187.75 -72.15 -148.4 Q-104.7 -174.75 -111.1 -196.25 -117.5 -217.75 -118.0 -228.7 -118.0 -265.1 -102.55 -291.35 -95.9 -302.7 -86.7 -311.45 L-81.85 -315.7 M70.05 -311.85 Q42.85 -332.95 -1.45 -332.95 -49.0 -332.95 -76.4 -310.0 L-81.35 -305.55 -86.95 -299.45 Q-109.8 -272.15 -110.75 -248.05 -111.7 -223.95 -108.75 -209.95 -105.8 -195.95 -98.15 -184.25 -90.5 -172.5 -86.4 -169.3 -82.3 -166.1 -81.7 -165.9 -88.4 -196.2 -90.3 -210.0 -92.45 -225.25 -93.4 -240.7 -93.8 -243.0 -93.55 -244.55 -93.8 -245.6 -93.4 -247.05 -93.4 -259.15 -66.7 -269.65 -38.2 -280.85 7.8 -284.45 L18.05 -284.95 Q52.8 -284.95 72.5 -272.0 92.1 -259.1 93.25 -249.55 95.65 -242.8 95.85 -219.2 96.0 -195.65 96.5 -185.6 96.95 -175.6 93.45 -165.4 95.0 -166.55 104.15 -180.8 113.3 -195.05 111.7 -215.4 110.05 -235.85 107.15 -250.25 104.2 -264.7 95.25 -281.45 87.05 -296.8 75.2 -307.55 L70.05 -311.85" fill="#000000" fill-rule="evenodd" stroke="none"/>
      <path d="M78.75 -315.6 L79.75 -314.9 79.7 -314.8 78.75 -315.6 M-86.7 -311.45 L-88.95 -314.25 -90.3 -316.0 -87.45 -318.45 -85.85 -319.85 -84.6 -318.6 -81.85 -315.7 -86.7 -311.45" fill="#dddddd" fill-rule="evenodd" stroke="none"/>
      <path d="M-79.15 -327.1 L-79.15 -327.15 -79.2 -327.2 -79.25 -327.2 Q-81.9 -324.85 -83.45 -321.6 -85.0 -318.35 -103.95 -308.05 -122.9 -297.8 -132.15 -285.95 -141.45 -274.1 -128.8 -250.9 -154.2 -274.65 -143.4 -287.5 -132.6 -300.35 -128.1 -312.7 -123.65 -325.05 -113.0 -328.8 -102.4 -332.6 -103.85 -336.3 -105.3 -340.0 -96.25 -337.8 -86.6 -349.15 -82.25 -344.85 -64.4 -331.15 -55.45 -310.25 -50.35 -303.65 -63.75 -300.75 L-78.6 -320.15 -78.6 -320.45 Q-78.4 -323.5 -79.15 -327.1" fill="#ffffff" fill-rule="evenodd" stroke="none"/>
      <path d="M-79.25 -327.2 L-79.2 -327.2 -79.15 -327.15 -79.15 -327.1 Q-78.4 -323.5 -78.6 -320.45 -79.05 -314.7 -82.95 -311.2 -85.25 -309.3 -100.65 -298.75 -116.1 -288.2 -122.85 -277.2 -129.6 -266.2 -128.8 -250.9 -141.45 -274.1 -132.15 -285.95 -122.9 -297.8 -103.95 -308.05 -85.0 -318.35 -83.45 -321.6 -81.9 -324.85 -79.25 -327.2" fill="#880000" fill-rule="evenodd" stroke="none"/>
      <path d="M-79.15 -327.1 Q-78.4 -323.5 -78.6 -320.45 M-78.6 -320.15 L-63.75 -300.75 Q-50.35 -303.65 -55.45 -310.25 -64.4 -331.15 -82.25 -344.85 -86.6 -349.15 -96.25 -337.8 -105.3 -340.0 -103.85 -336.3 -102.4 -332.6 -113.0 -328.8 -123.65 -325.05 -128.1 -312.7 -132.6 -300.35 -143.4 -287.5 -154.2 -274.65 -128.8 -250.9 -129.6 -266.2 -122.85 -277.2 -116.1 -288.2 -100.65 -298.75 -85.25 -309.3 -82.95 -311.2 -79.05 -314.7 -78.6 -320.45" fill="none" stroke="#000000" stroke-linecap="round" stroke-linejoin="round" stroke-width="5.0"/>
      <path d="M-128.8 -250.9 Q-141.45 -274.1 -132.15 -285.95 -122.9 -297.8 -103.95 -308.05 -85.0 -318.35 -83.45 -321.6 -81.9 -324.85 -79.25 -327.2" fill="none" stroke="#010101" stroke-linecap="round" stroke-linejoin="round" stroke-opacity="0.0" stroke-width="5.0"/>
      <path d="M71.9 -323.15 L57.1 -303.75 Q43.65 -306.65 48.75 -313.25 57.7 -334.15 75.6 -347.85 79.9 -352.15 89.6 -340.8 L96.65 -333.3 Q95.75 -334.35 106.3 -331.2 116.95 -328.05 124.2 -313.9 131.4 -299.8 129.8 -294.7 128.2 -289.6 131.4 -285.4 134.55 -281.25 131.4 -275.95 124.0 -263.55 122.15 -253.9 118.95 -267.9 119.0 -281.45 119.0 -294.95 98.65 -308.15 78.3 -321.35 76.75 -324.6 75.2 -327.85 72.55 -330.2 L72.5 -330.15 72.5 -330.1 Q71.7 -326.5 71.95 -323.45 L71.9 -323.15" fill="#ffffff" fill-rule="evenodd" stroke="none"/>
      <path d="M122.15 -253.9 Q104.45 -270.95 105.65 -281.2 106.85 -291.45 92.7 -301.85 L76.3 -314.2 Q72.35 -317.7 71.95 -323.45 71.7 -326.5 72.5 -330.1 L72.5 -330.15 72.55 -330.2 Q75.2 -327.85 76.75 -324.6 78.3 -321.35 98.65 -308.15 119.0 -294.95 119.0 -281.45 118.95 -267.9 122.15 -253.9" fill="#880000" fill-rule="evenodd" stroke="none"/>
      <path d="M71.9 -323.15 L57.1 -303.75 Q43.65 -306.65 48.75 -313.25 57.7 -334.15 75.6 -347.85 79.9 -352.15 89.6 -340.8 L96.65 -333.3 Q95.75 -334.35 106.3 -331.2 116.95 -328.05 124.2 -313.9 131.4 -299.8 129.8 -294.7 128.2 -289.6 131.4 -285.4 134.55 -281.25 131.4 -275.95 124.0 -263.55 122.15 -253.9 104.45 -270.95 105.65 -281.2 106.85 -291.45 92.7 -301.85 L76.3 -314.2 Q72.35 -317.7 71.95 -323.45 M72.5 -330.1 Q71.7 -326.5 71.95 -323.45" fill="none" stroke="#000000" stroke-linecap="round" stroke-linejoin="round" stroke-width="5.0"/>
      <path d="M122.15 -253.9 Q118.95 -267.9 119.0 -281.45 119.0 -294.95 98.65 -308.15 78.3 -321.35 76.75 -324.6 75.2 -327.85 72.55 -330.2" fill="none" stroke="#010101" stroke-linecap="round" stroke-linejoin="round" stroke-opacity="0.0" stroke-width="5.0"/>
    </g>
  </defs>
</svg>
