<?xml version="1.0" encoding="UTF-8" standalone="no"?>
<svg xmlns:xlink="http://www.w3.org/1999/xlink" height="434.9px" width="399.95px" xmlns="http://www.w3.org/2000/svg">
  <g transform="matrix(1, 0, 0, 1, 210.75, 443.1)">
    <use height="104.95" transform="matrix(1.0, 0.0, 0.0, 1.0, -147.7, -351.0)" width="261.25" xlink:href="#shape0"/>
  </g>
  <defs>
    <g id="shape0" transform="matrix(1, 0, 0, 1, 147.7, 351.0)">
      <path d="M109.2 -303.85 Q113.55 -296.9 113.55 -286.85 113.25 -279.65 111.7 -272.7 109.3 -262.0 105.2 -259.5 L105.15 -258.65 105.1 -252.25 Q104.4 -248.55 100.65 -248.55 L99.55 -248.6 98.75 -248.55 Q93.45 -248.55 86.8 -256.15 84.1 -259.2 82.7 -261.15 L77.1 -260.7 Q64.75 -260.7 55.75 -265.55 L53.95 -266.55 Q49.55 -264.5 41.25 -264.5 32.9 -264.5 28.25 -267.5 25.2 -269.5 22.35 -274.15 L20.45 -277.15 Q19.15 -274.75 16.15 -272.35 8.7 -266.4 -5.6 -266.4 L-19.65 -267.2 -31.1 -268.2 Q-34.25 -267.35 -37.55 -267.35 -51.15 -267.35 -53.6 -269.6 L-54.8 -271.15 Q-55.6 -271.85 -58.0 -271.85 L-61.9 -271.7 Q-62.45 -270.4 -63.55 -268.45 -66.1 -263.9 -69.5 -259.6 -78.95 -247.6 -86.95 -247.6 L-96.7 -246.05 Q-97.3 -250.15 -97.5 -254.65 L-97.35 -255.45 Q-103.55 -257.0 -105.1 -263.7 -106.1 -268.1 -105.1 -272.95 -105.1 -282.9 -95.35 -296.35 -86.65 -308.3 -80.4 -311.05 -74.4 -313.75 -69.0 -319.2 L-59.3 -328.65 Q-44.85 -340.2 -9.3 -343.5 L2.8 -343.95 Q28.45 -343.95 37.7 -338.2 39.8 -336.95 42.9 -333.75 45.3 -331.25 47.65 -330.55 56.85 -327.7 71.75 -324.95 83.6 -322.75 88.4 -320.45 103.4 -313.05 109.2 -303.85 M34.2 -331.95 Q26.4 -336.35 2.45 -336.35 -35.0 -336.35 -43.65 -332.8 -46.95 -331.4 -49.2 -328.35 -52.7 -323.55 -54.2 -322.1 -56.05 -320.3 -61.8 -312.8 -65.4 -308.0 -70.45 -305.85 -80.45 -301.55 -89.45 -290.3 -98.0 -279.55 -98.0 -272.7 -98.0 -267.8 -93.75 -264.4 L-93.0 -263.75 -90.3 -267.35 Q-81.15 -278.15 -68.1 -279.0 -64.75 -281.35 -57.7 -284.3 -43.2 -290.4 -31.85 -289.9 L-22.95 -290.35 Q-13.25 -290.35 -9.25 -288.65 -2.1 -291.3 6.15 -291.3 L14.0 -290.65 26.75 -291.3 Q49.3 -291.3 58.1 -284.6 60.2 -283.0 61.35 -281.2 63.85 -283.3 66.05 -284.25 71.5 -286.55 81.75 -286.55 97.5 -286.55 102.85 -274.2 106.55 -282.5 106.55 -286.75 106.55 -305.6 82.8 -315.25 L63.8 -319.65 Q45.9 -323.7 43.75 -324.6 41.35 -325.65 38.9 -328.1 36.2 -330.85 34.2 -331.95 M54.45 -275.5 L53.6 -276.4 Q49.85 -280.6 48.6 -281.25 31.55 -289.9 20.35 -288.8 25.7 -286.4 28.05 -281.55 29.75 -276.7 30.6 -274.9 32.05 -271.85 35.1 -271.85 45.95 -271.85 51.8 -274.15 53.1 -274.65 54.45 -275.5 M60.0 -271.6 L59.95 -271.55 60.3 -271.3 Q64.7 -268.3 76.5 -268.3 85.5 -268.3 90.05 -272.75 L92.85 -275.8 93.75 -276.55 Q91.5 -279.35 88.15 -279.35 75.3 -279.35 68.4 -277.05 63.75 -275.45 60.3 -271.9 L60.0 -271.6 M12.9 -282.3 L13.4 -282.9 Q10.45 -283.85 6.6 -283.85 -1.1 -283.85 -7.55 -281.25 -11.8 -279.55 -17.5 -275.6 L-21.0 -273.2 -13.2 -271.85 Q0.95 -270.05 8.0 -276.25 9.7 -277.75 12.9 -282.3 M98.0 -258.9 L97.85 -262.5 Q97.65 -265.8 97.05 -268.65 95.95 -267.5 94.35 -266.2 L91.5 -264.25 Q94.1 -262.0 97.35 -258.35 L97.85 -257.75 98.0 -258.9 M-87.4 -256.75 Q-78.75 -260.9 -74.7 -264.95 -74.25 -265.4 -71.95 -269.85 -78.55 -267.8 -83.65 -263.55 -86.8 -260.9 -88.95 -257.8 -90.5 -255.55 -90.5 -255.0 L-87.4 -256.75 M-19.55 -283.05 L-19.45 -283.1 -19.55 -283.1 Q-41.35 -282.7 -53.55 -277.95 -51.9 -277.55 -50.8 -276.95 -46.75 -274.8 -37.9 -274.8 -32.35 -274.8 -27.6 -277.4 -25.9 -278.3 -19.55 -283.05" fill="#000000" fill-rule="evenodd" stroke="none"/>
      <path d="M34.2 -331.95 Q36.2 -330.85 38.9 -328.1 41.35 -325.65 43.75 -324.6 45.9 -323.7 63.8 -319.65 L82.8 -315.25 Q106.55 -305.6 106.55 -286.75 106.55 -282.5 102.85 -274.2 97.5 -286.55 81.75 -286.55 71.5 -286.55 66.05 -284.25 63.85 -283.3 61.35 -281.2 60.2 -283.0 58.1 -284.6 49.3 -291.3 26.75 -291.3 L14.0 -290.65 6.15 -291.3 Q-2.1 -291.3 -9.25 -288.65 -13.25 -290.35 -22.95 -290.35 L-31.85 -289.9 Q-43.2 -290.4 -57.7 -284.3 -64.75 -281.35 -68.1 -279.0 -81.15 -278.15 -90.3 -267.35 L-93.0 -263.75 -93.75 -264.4 Q-98.0 -267.8 -98.0 -272.7 -98.0 -279.55 -89.45 -290.3 -80.45 -301.55 -70.45 -305.85 -65.4 -308.0 -61.8 -312.8 -56.05 -320.3 -54.2 -322.1 -52.7 -323.55 -49.2 -328.35 -46.95 -331.4 -43.65 -332.8 -35.0 -336.35 2.45 -336.35 26.4 -336.35 34.2 -331.95" fill="#ffe6e6" fill-rule="evenodd" stroke="none"/>
      <path d="M54.45 -275.5 Q53.1 -274.65 51.8 -274.15 45.95 -271.85 35.1 -271.85 32.05 -271.85 30.6 -274.9 29.75 -276.7 28.05 -281.55 25.7 -286.4 20.35 -288.8 31.55 -289.9 48.6 -281.25 49.85 -280.6 53.6 -276.4 L54.45 -275.5 M97.35 -258.35 Q94.1 -262.0 91.5 -264.25 L94.35 -266.2 Q95.95 -267.5 97.05 -268.65 97.65 -265.8 97.85 -262.5 L98.0 -258.9 97.35 -258.35 M-19.55 -283.1 L-19.55 -283.05 Q-25.9 -278.3 -27.6 -277.4 -32.35 -274.8 -37.9 -274.8 -46.75 -274.8 -50.8 -276.95 -51.9 -277.55 -53.55 -277.95 -41.35 -282.7 -19.55 -283.1" fill="#ffdddd" fill-rule="evenodd" stroke="none"/>
      <path d="M60.0 -271.6 L60.3 -271.9 Q63.75 -275.45 68.4 -277.05 75.3 -279.35 88.15 -279.35 91.5 -279.35 93.75 -276.55 L92.85 -275.8 90.05 -272.75 Q85.5 -268.3 76.5 -268.3 64.7 -268.3 60.3 -271.3 L60.0 -271.6 M12.9 -282.3 Q9.7 -277.75 8.0 -276.25 0.95 -270.05 -13.2 -271.85 L-21.0 -273.2 -17.5 -275.6 Q-11.8 -279.55 -7.55 -281.25 -1.1 -283.85 6.6 -283.85 10.45 -283.85 13.4 -282.9 L12.9 -282.3 M-87.4 -256.75 L-90.5 -255.0 Q-90.5 -255.55 -88.95 -257.8 -86.8 -260.9 -83.65 -263.55 -78.55 -267.8 -71.95 -269.85 -74.25 -265.4 -74.7 -264.95 -78.75 -260.9 -87.4 -256.75" fill="#ffeeee" fill-rule="evenodd" stroke="none"/>
      <path d="M-92.8 -259.65 L-91.3 -259.0 Q-90.55 -258.45 -90.6 -257.75 L-90.8 -257.05 Q-90.8 -255.3 -92.7 -254.1 L-113.85 -252.45 Q-118.7 -249.8 -122.05 -249.8 -128.25 -249.8 -131.05 -265.1 -132.45 -272.8 -132.6 -280.7 L-132.6 -289.15 -132.35 -291.15 -142.4 -292.4 Q-145.9 -292.9 -146.85 -293.9 -147.7 -294.85 -147.7 -298.05 -131.65 -351.0 -126.3 -351.0 -103.85 -351.0 -76.9 -320.85 -66.95 -309.7 -59.75 -298.1 -53.15 -287.4 -53.15 -283.55 -53.15 -279.05 -56.6 -279.05 -56.9 -279.05 -59.65 -283.65 L-63.5 -290.3 -63.6 -290.45 -65.0 -292.9 Q-73.55 -307.85 -77.4 -311.2 -79.9 -313.4 -86.3 -319.55 L-95.25 -327.5 Q-100.95 -332.0 -108.2 -335.9 -111.9 -337.9 -116.0 -339.7 L-123.95 -342.9 Q-136.55 -312.9 -140.0 -299.45 L-132.55 -297.8 -125.55 -296.2 Q-90.4 -288.15 -78.7 -282.7 -72.9 -280.0 -72.9 -277.95 -72.9 -276.5 -73.6 -275.6 -74.35 -274.75 -75.75 -274.45 L-77.4 -274.3 -84.95 -277.3 -91.35 -280.0 Q-104.65 -285.65 -111.15 -287.2 L-112.2 -287.45 -117.8 -288.65 -126.0 -290.15 Q-125.25 -286.65 -124.6 -281.15 L-121.8 -257.8 Q-123.1 -257.4 -120.75 -257.4 -119.55 -257.4 -118.8 -257.9 L-117.15 -259.0 -117.05 -259.05 Q-115.05 -260.0 -110.6 -260.4 L-103.75 -260.65 -103.6 -260.65 -97.3 -260.4 -92.8 -259.65" fill="#000000" fill-rule="evenodd" stroke="none"/>
      <path d="M-59.65 -283.65 Q-62.25 -281.65 -68.0 -278.55 L-73.6 -275.6 Q-72.9 -276.5 -72.9 -277.95 -72.9 -280.0 -78.7 -282.7 -90.4 -288.15 -125.55 -296.2 -122.65 -306.25 -115.1 -321.6 L-108.2 -335.9 Q-100.95 -332.0 -95.25 -327.5 L-86.3 -319.55 Q-79.9 -313.4 -77.4 -311.2 -73.55 -307.85 -65.0 -292.9 L-63.6 -290.45 -63.9 -290.3 -63.5 -290.3 -59.65 -283.65 M-75.75 -274.45 L-79.1 -272.5 Q-80.9 -270.4 -87.4 -264.5 L-92.8 -259.65 -97.3 -260.4 -103.6 -260.65 -103.75 -260.65 -110.6 -260.4 Q-110.35 -261.85 -110.25 -263.7 -109.95 -268.2 -110.25 -274.0 L-110.75 -283.7 -111.15 -287.2 Q-104.65 -285.65 -91.35 -280.0 L-84.95 -277.3 -77.4 -274.3 -75.75 -274.45 M-117.05 -259.05 L-117.15 -259.0 -118.8 -257.9 Q-119.55 -257.4 -120.75 -257.4 -123.1 -257.4 -121.8 -257.8 L-124.6 -281.15 Q-125.25 -286.65 -126.0 -290.15 L-117.8 -288.65 -118.25 -285.85 -118.2 -276.65 Q-118.55 -264.35 -117.05 -259.05 M-132.55 -297.8 L-140.0 -299.45 Q-136.55 -312.9 -123.95 -342.9 L-116.0 -339.7 Q-123.0 -329.95 -132.55 -297.8" fill="#ec0202" fill-rule="evenodd" stroke="none"/>
      <path d="M-110.6 -260.4 Q-115.05 -260.0 -117.05 -259.05 -118.55 -264.35 -118.2 -276.65 L-118.25 -285.85 -117.8 -288.65 -112.2 -287.45 -111.15 -287.2 -110.75 -283.7 -110.25 -274.0 Q-109.95 -268.2 -110.25 -263.7 -110.35 -261.85 -110.6 -260.4 M-132.55 -297.8 Q-123.0 -329.95 -116.0 -339.7 -111.9 -337.9 -108.2 -335.9 L-115.1 -321.6 Q-122.65 -306.25 -125.55 -296.2 L-132.55 -297.8" fill="#ffffff" fill-rule="evenodd" stroke="none"/>
    </g>
  </defs>
</svg>
