<?xml version="1.0" encoding="UTF-8" standalone="no"?>
<svg xmlns:xlink="http://www.w3.org/1999/xlink" height="434.9px" width="399.95px" xmlns="http://www.w3.org/2000/svg">
  <g transform="matrix(1, 0, 0, 1, 210.75, 443.1)">
    <use height="189.05" transform="matrix(1.0, 0.0, 0.0, 1.0, -119.25, -353.05)" width="243.15" xlink:href="#shape0"/>
  </g>
  <defs>
    <g id="shape0" transform="matrix(1, 0, 0, 1, 119.25, 353.05)">
      <path d="M-7.5 -323.95 L1.15 -323.7 Q11.2 -323.55 20.55 -323.75 11.2 -323.55 1.15 -323.7 L-7.5 -323.95 -13.25 -166.4 -7.5 -323.95 -37.95 -325.8 Q-50.75 -327.0 -61.55 -328.85 L-68.05 -330.05 Q-87.15 -333.75 -87.45 -336.75 -87.15 -333.75 -68.05 -330.05 L-61.55 -328.85 Q-50.75 -327.0 -37.95 -325.8 L-7.5 -323.95 M31.05 -167.65 L23.5 -166.95 Q5.65 -165.4 -13.25 -166.4 -33.95 -167.5 -55.9 -171.65 L-68.1 -174.2 Q-83.55 -177.7 -94.15 -180.55 -117.05 -186.75 -117.25 -189.9 L-117.25 -189.95 -117.15 -190.5 -87.45 -336.75 -87.45 -336.8 Q-87.5 -340.3 -61.15 -345.95 -34.9 -351.6 2.3 -351.0 39.5 -350.45 65.8 -345.35 92.1 -340.3 92.1 -336.75 L121.8 -190.25 121.85 -190.0 121.85 -189.9 Q121.85 -186.15 103.3 -180.6 L94.05 -178.0 Q82.1 -174.9 67.5 -172.4 51.0 -169.65 31.05 -167.65 L20.55 -323.75 31.05 -167.65 M92.1 -336.75 Q92.1 -334.05 75.45 -330.25 L65.15 -328.15 48.35 -325.6 20.55 -323.75 48.35 -325.6 65.15 -328.15 75.45 -330.25 Q92.1 -334.05 92.1 -336.75 M48.35 -325.6 L67.5 -172.4 48.35 -325.6 M75.45 -330.25 L103.3 -180.6 75.45 -330.25 M-68.05 -330.05 L-94.15 -180.55 -68.05 -330.05 M-37.95 -325.8 L-55.9 -171.65 -37.95 -325.8" fill="#feffee" fill-rule="evenodd" stroke="none"/>
      <path d="M20.55 -323.75 Q11.2 -323.55 1.15 -323.7 L-7.5 -323.95 M-13.25 -166.4 Q5.65 -165.4 23.5 -166.95 L31.05 -167.65 M20.55 -323.75 L48.35 -325.6 65.15 -328.15 75.45 -330.25 Q92.1 -334.05 92.1 -336.75 92.1 -340.3 65.8 -345.35 39.5 -350.45 2.3 -351.0 -34.9 -351.6 -61.15 -345.95 -87.5 -340.3 -87.45 -336.8 L-87.45 -336.75 Q-87.15 -333.75 -68.05 -330.05 L-61.55 -328.85 Q-50.75 -327.0 -37.95 -325.8 L-7.5 -323.95 M92.1 -336.75 L121.8 -190.25 121.85 -190.0 121.9 -189.9 121.85 -189.9 Q121.85 -186.15 103.3 -180.6 L94.05 -178.0 Q82.1 -174.9 67.5 -172.4 51.0 -169.65 31.05 -167.65 M121.85 -189.9 L121.85 -190.0 M-13.25 -166.4 Q-33.95 -167.5 -55.9 -171.65 L-68.1 -174.2 Q-83.55 -177.7 -94.15 -180.55 -117.05 -186.75 -117.25 -189.9 L-117.25 -189.95 -117.15 -190.5 -87.45 -336.75" fill="none" stroke="#000000" stroke-linecap="round" stroke-linejoin="round" stroke-width="4.0"/>
      <path d="M-7.5 -323.95 L-13.25 -166.4 M31.05 -167.65 L20.55 -323.75 M103.3 -180.6 L75.45 -330.25 M67.5 -172.4 L48.35 -325.6 M-55.9 -171.65 L-37.95 -325.8 M-94.15 -180.55 L-68.05 -330.05" fill="none" stroke="#dcd9d6" stroke-linecap="round" stroke-linejoin="round" stroke-width="2.0"/>
    </g>
  </defs>
</svg>
