<?xml version="1.0" encoding="UTF-8" standalone="no"?>
<svg xmlns:xlink="http://www.w3.org/1999/xlink" height="434.9px" width="399.95px" xmlns="http://www.w3.org/2000/svg">
  <g transform="matrix(1, 0, 0, 1, 210.75, 443.1)">
    <use height="135.55" transform="matrix(1.0, 0.0, 0.0, 1.0, -152.65, -313.8)" width="308.3" xlink:href="#shape0"/>
  </g>
  <defs>
    <g id="shape0" transform="matrix(1, 0, 0, 1, 152.65, 313.8)">
      <path d="M76.6 -295.2 Q76.65 -305.5 84.2 -309.6 91.65 -313.7 106.7 -307.95 121.75 -302.2 124.95 -284.25 128.2 -266.35 124.8 -258.25 121.4 -250.15 112.95 -248.25 104.45 -246.3 98.5 -253.0 89.95 -279.0 76.6 -295.2 89.95 -279.0 98.5 -253.0 100.8 -243.75 95.35 -242.25 L90.25 -253.05 82.0 -255.15 82.8 -267.25 72.05 -270.0 75.15 -281.1 65.35 -286.55 70.9 -291.6 61.45 -301.7 Q68.1 -304.3 76.6 -295.2 M-94.5 -248.0 Q-100.45 -241.3 -108.9 -243.25 -117.4 -245.15 -120.8 -253.25 -124.2 -261.35 -120.95 -279.25 -117.75 -297.2 -102.7 -302.95 -87.65 -308.7 -80.15 -304.6 -72.65 -300.5 -72.6 -290.2 -64.1 -299.3 -57.4 -296.7 L-66.9 -286.6 -61.35 -281.55 -71.15 -276.1 -68.05 -265.0 -78.8 -262.25 -78.0 -250.15 -86.2 -248.05 -91.35 -237.25 Q-96.8 -238.75 -94.5 -248.0 -85.95 -274.0 -72.6 -290.2 -85.95 -274.0 -94.5 -248.0" fill="#ffffff" fill-rule="evenodd" stroke="none"/>
      <path d="M98.5 -253.0 Q104.45 -246.3 112.95 -248.25 121.4 -250.15 124.8 -258.25 128.2 -266.35 124.95 -284.25 121.75 -302.2 106.7 -307.95 91.65 -313.7 84.2 -309.6 76.65 -305.5 76.6 -295.2 89.95 -279.0 98.5 -253.0 100.8 -243.75 95.35 -242.25 L90.25 -253.05 82.0 -255.15 82.8 -267.25 72.05 -270.0 75.15 -281.1 65.35 -286.55 70.9 -291.6 61.45 -301.7 Q68.1 -304.3 76.6 -295.2 M-94.5 -248.0 Q-100.45 -241.3 -108.9 -243.25 -117.4 -245.15 -120.8 -253.25 -124.2 -261.35 -120.95 -279.25 -117.75 -297.2 -102.7 -302.95 -87.65 -308.7 -80.15 -304.6 -72.65 -300.5 -72.6 -290.2 -64.1 -299.3 -57.4 -296.7 L-66.9 -286.6 -61.35 -281.55 -71.15 -276.1 -68.05 -265.0 -78.8 -262.25 -78.0 -250.15 -86.2 -248.05 -91.35 -237.25 Q-96.8 -238.75 -94.5 -248.0 -85.95 -274.0 -72.6 -290.2" fill="none" stroke="#000000" stroke-linecap="round" stroke-linejoin="round" stroke-width="5.0"/>
      <path d="M-129.3 -183.75 Q-122.2 -204.8 -96.75 -243.4 -125.7 -216.65 -139.95 -191.4 L-150.65 -198.4 Q-129.5 -225.55 -96.75 -243.4 -108.25 -211.95 -116.2 -180.25 L-129.3 -183.75" fill="#e60000" fill-rule="evenodd" stroke="none"/>
      <path d="M-129.3 -183.75 Q-122.2 -204.8 -96.75 -243.4 -125.7 -216.65 -139.95 -191.4 L-150.65 -198.4 Q-129.5 -225.55 -96.75 -243.4 -108.25 -211.95 -116.2 -180.25 L-129.3 -183.75" fill="none" stroke="#000000" stroke-linecap="round" stroke-linejoin="round" stroke-width="4.0"/>
      <path d="M132.25 -188.75 Q125.2 -209.8 99.75 -248.4 128.7 -221.65 142.95 -196.4 L153.65 -203.4 Q132.5 -230.55 99.75 -248.4 111.2 -216.95 119.15 -185.25 L132.25 -188.75" fill="#e60000" fill-rule="evenodd" stroke="none"/>
      <path d="M132.25 -188.75 Q125.2 -209.8 99.75 -248.4 128.7 -221.65 142.95 -196.4 L153.65 -203.4 Q132.5 -230.55 99.75 -248.4 111.2 -216.95 119.15 -185.25 L132.25 -188.75" fill="none" stroke="#000000" stroke-linecap="round" stroke-linejoin="round" stroke-width="4.0"/>
    </g>
  </defs>
</svg>
