<?xml version="1.0" encoding="UTF-8" standalone="no"?>
<svg xmlns:xlink="http://www.w3.org/1999/xlink" height="434.9px" width="399.95px" xmlns="http://www.w3.org/2000/svg">
  <g transform="matrix(1, 0, 0, 1, 210.75, 443.1)">
    <use height="113.75" transform="matrix(1.0, 0.0, 0.0, 1.0, -113.05, -340.05)" width="251.35" xlink:href="#shape0"/>
  </g>
  <defs>
    <g id="shape0" transform="matrix(1, 0, 0, 1, 113.05, 340.05)">
      <path d="M80.25 -316.55 Q92.6 -306.05 95.4 -297.2 98.2 -288.35 92.1 -268.6 128.25 -262.1 135.8 -245.5 -23.3 -216.15 -73.8 -238.45 L-99.0 -234.4 Q-106.35 -237.8 -110.05 -254.5 -113.8 -271.2 -90.55 -303.45 -67.35 -335.75 -17.55 -337.25 32.15 -338.8 50.0 -332.9 67.85 -327.05 80.25 -316.55 M-73.8 -238.45 Q-7.25 -274.7 92.1 -268.6 -7.25 -274.7 -73.8 -238.45" fill="#004488" fill-rule="evenodd" stroke="none"/>
      <path d="M80.25 -316.55 Q92.6 -306.05 95.4 -297.2 98.2 -288.35 92.1 -268.6 128.25 -262.1 135.8 -245.5 -23.3 -216.15 -73.8 -238.45 L-99.0 -234.4 Q-106.35 -237.8 -110.05 -254.5 -113.8 -271.2 -90.55 -303.45 -67.35 -335.75 -17.55 -337.25 32.15 -338.8 50.0 -332.9 67.85 -327.05 80.25 -316.55 M92.1 -268.6 Q-7.25 -274.7 -73.8 -238.45" fill="none" stroke="#000000" stroke-linecap="round" stroke-linejoin="round" stroke-width="5.0"/>
    </g>
  </defs>
</svg>
