<?xml version="1.0" encoding="UTF-8" standalone="no"?>
<svg xmlns:xlink="http://www.w3.org/1999/xlink" height="434.9px" width="399.95px" xmlns="http://www.w3.org/2000/svg">
  <g transform="matrix(1, 0, 0, 1, 210.75, 443.1)">
    <use height="75.4" transform="matrix(1.0, 0.0, 0.0, 1.0, -100.7, -286.2)" width="200.45" xlink:href="#shape0"/>
  </g>
  <defs>
    <g id="shape0" transform="matrix(1, 0, 0, 1, 100.7, 286.2)">
      <path d="M94.5 -226.8 Q3.65 -271.5 -96.6 -213.3 -97.55 -214.3 -97.95 -216.8 -98.9 -222.9 -96.0 -249.4 -13.3 -310.9 93.35 -262.15 100.5 -233.5 94.5 -226.8" fill="#168cbe" fill-rule="evenodd" stroke="none"/>
      <path d="M94.5 -226.8 Q3.65 -271.5 -96.6 -213.3 -97.55 -214.3 -97.95 -216.8 -98.9 -222.9 -96.0 -249.4 -13.3 -310.9 93.35 -262.15 100.5 -233.5 94.5 -226.8" fill="none" stroke="#000000" stroke-linecap="round" stroke-linejoin="round" stroke-width="5.0"/>
      <path d="M27.3 -264.9 Q27.3 -258.6 22.9 -254.2 18.45 -249.75 12.15 -249.75 5.9 -249.8 1.45 -254.25 -2.95 -258.65 -3.0 -264.9 -2.95 -271.15 1.5 -275.6 5.9 -280.0 12.15 -280.05 18.4 -280.0 22.8 -275.6 L22.85 -275.55 Q27.25 -271.15 27.3 -264.9 M20.5 -268.8 L19.35 -270.55 18.65 -271.35 18.25 -271.75 16.45 -273.05 Q14.55 -274.05 12.15 -274.05 8.45 -274.05 5.75 -271.35 L5.0 -270.6 Q3.05 -268.15 3.05 -264.95 3.05 -262.65 4.05 -260.75 4.7 -259.5 5.75 -258.45 7.0 -257.2 8.5 -256.5 10.2 -255.8 12.2 -255.8 15.95 -255.75 18.65 -258.45 21.35 -261.15 21.3 -264.9 21.35 -267.05 20.5 -268.8" fill="#f4dd0b" fill-rule="evenodd" stroke="none"/>
      <path d="M16.6 -269.3 L20.5 -268.8 Q21.35 -267.05 21.3 -264.9 21.35 -261.15 18.65 -258.45 15.95 -255.75 12.2 -255.8 10.2 -255.8 8.5 -256.5 L8.15 -260.85 4.05 -260.75 Q3.05 -262.65 3.05 -264.95 3.05 -268.15 5.0 -270.6 L5.75 -271.35 Q8.45 -274.05 12.15 -274.05 14.55 -274.05 16.45 -273.05 L16.6 -269.3 8.15 -260.85 16.6 -269.3" fill="#d42005" fill-rule="evenodd" stroke="none"/>
      <path d="M27.3 -264.9 Q27.3 -258.6 22.9 -254.2 18.45 -249.75 12.15 -249.75 5.9 -249.8 1.45 -254.25 -2.95 -258.65 -3.0 -264.9 -2.95 -271.15 1.5 -275.6 5.9 -280.0 12.15 -280.05 18.4 -280.0 22.8 -275.6 L22.85 -275.55 Q27.25 -271.15 27.3 -264.9 M16.6 -269.3 L20.5 -268.8 19.35 -270.55 18.65 -271.35 16.6 -269.3 16.45 -273.05 Q14.55 -274.05 12.15 -274.05 8.45 -274.05 5.75 -271.35 L5.0 -270.6 Q3.05 -268.15 3.05 -264.95 3.05 -262.65 4.05 -260.75 L8.15 -260.85 16.6 -269.3 M20.5 -268.8 Q21.35 -267.05 21.3 -264.9 21.35 -261.15 18.65 -258.45 15.95 -255.75 12.2 -255.8 10.2 -255.8 8.5 -256.5 7.0 -257.2 5.75 -258.45 4.7 -259.5 4.05 -260.75 M8.15 -260.85 L5.75 -258.45 M8.5 -256.5 L8.15 -260.85 M16.45 -273.05 L18.25 -271.75 18.65 -271.35" fill="none" stroke="#000000" stroke-linecap="round" stroke-linejoin="round" stroke-width="3.0"/>
    </g>
  </defs>
</svg>
