<?xml version="1.0" encoding="UTF-8" standalone="no"?>
<svg xmlns:xlink="http://www.w3.org/1999/xlink" height="434.9px" width="399.95px" xmlns="http://www.w3.org/2000/svg">
  <g transform="matrix(1, 0, 0, 1, 210.75, 443.1)">
    <use height="118.3" transform="matrix(1.0, 0.0, 0.0, 1.0, -149.1, -337.0)" width="317.5" xlink:href="#shape0"/>
  </g>
  <defs>
    <g id="shape0" transform="matrix(1, 0, 0, 1, 149.1, 337.0)">
      <path d="M102.35 -306.25 Q115.05 -306.2 118.95 -297.6 124.3 -307.85 140.65 -313.8 L137.6 -302.55 146.65 -300.15 Q152.45 -303.4 157.1 -303.05 L149.25 -286.25 Q161.3 -280.95 166.4 -273.25 149.8 -274.8 135.85 -269.85 135.7 -267.9 135.15 -265.95 128.2 -262.2 119.4 -262.25 L104.25 -264.9 92.85 -266.2 Q54.9 -269.7 2.35 -265.25 -48.55 -261.0 -88.2 -251.55 L-103.85 -247.45 Q-102.75 -253.65 -101.05 -259.45 8.9 -300.8 99.7 -274.6 125.8 -271.5 128.15 -286.75 122.6 -289.35 115.6 -286.8 109.75 -279.05 99.75 -274.6 111.6 -297.7 102.35 -306.25 M130.15 -284.5 Q136.2 -277.25 135.85 -269.85 136.2 -277.25 130.15 -284.5 L128.15 -286.75 130.15 -284.5 Q134.95 -293.7 146.65 -300.15 134.95 -293.7 130.15 -284.5 M118.95 -297.6 L120.15 -294.1 Q118.05 -290.15 115.6 -286.8 118.05 -290.15 120.15 -294.1 L118.95 -297.6 M99.7 -274.6 L104.25 -264.9 99.7 -274.6" fill="#ff3e40" fill-rule="evenodd" stroke="none"/>
      <path d="M95.9 -281.5 Q94.1 -292.65 102.35 -306.25 111.6 -297.7 99.75 -274.6 109.75 -279.05 115.6 -286.8 122.6 -289.35 128.15 -286.75 125.8 -271.5 99.7 -274.6 L96.3 -280.8 95.9 -281.5 M99.7 -274.6 L99.75 -274.6 99.7 -274.6" fill="#ca0202" fill-rule="evenodd" stroke="none"/>
      <path d="M119.4 -262.25 Q138.15 -258.0 142.9 -250.55 123.8 -253.55 97.0 -255.05 59.35 -257.2 7.05 -252.65 -41.05 -248.5 -102.55 -237.2 -120.45 -233.9 -146.6 -227.65 -132.35 -239.15 -103.85 -247.45 L-88.2 -251.55 Q-48.55 -261.0 2.35 -265.25 54.9 -269.7 92.85 -266.2 L104.25 -264.9 119.4 -262.25 M-101.05 -259.45 Q-92.6 -289.1 -69.55 -308.85 -44.0 -330.8 -9.0 -334.0 26.1 -337.25 56.15 -320.25 81.0 -306.2 95.9 -281.5 L96.3 -280.8 99.7 -274.6 Q8.9 -300.8 -101.05 -259.45" fill="#ffefef" fill-rule="evenodd" stroke="none"/>
      <path d="M142.9 -250.55 Q129.35 -240.55 102.35 -240.05 100.75 -248.1 97.0 -255.05 123.8 -253.55 142.9 -250.55 M-102.55 -237.2 L-105.95 -221.2 Q-129.3 -221.15 -146.6 -227.65 -120.45 -233.9 -102.55 -237.2" fill="#eec4c4" fill-rule="evenodd" stroke="none"/>
      <path d="M102.35 -306.25 Q115.05 -306.2 118.95 -297.6 124.3 -307.85 140.65 -313.8 L137.6 -302.55 146.65 -300.15 Q152.45 -303.4 157.1 -303.05 L149.25 -286.25 Q161.3 -280.95 166.4 -273.25 149.8 -274.8 135.85 -269.85 135.7 -267.9 135.15 -265.95 128.2 -262.2 119.4 -262.25 M95.9 -281.5 Q94.1 -292.65 102.35 -306.25 111.6 -297.7 99.75 -274.6 109.75 -279.05 115.6 -286.8 118.05 -290.15 120.15 -294.1 L118.95 -297.6 M128.15 -286.75 L130.15 -284.5 Q134.95 -293.7 146.65 -300.15 M135.85 -269.85 Q136.2 -277.25 130.15 -284.5 M99.7 -274.6 L99.75 -274.6 99.7 -274.6 Q125.8 -271.5 128.15 -286.75 122.6 -289.35 115.6 -286.8 M96.3 -280.8 L95.9 -281.5" fill="none" stroke="#000000" stroke-linecap="round" stroke-linejoin="round" stroke-width="4.0"/>
      <path d="M119.4 -262.25 Q138.15 -258.0 142.9 -250.55 129.35 -240.55 102.35 -240.05 100.75 -248.1 97.0 -255.05 59.35 -257.2 7.05 -252.65 -41.05 -248.5 -102.55 -237.2 L-105.95 -221.2 Q-129.3 -221.15 -146.6 -227.65 -132.35 -239.15 -103.85 -247.45 -102.75 -253.65 -101.05 -259.45 -92.6 -289.1 -69.55 -308.85 -44.0 -330.8 -9.0 -334.0 26.1 -337.25 56.15 -320.25 81.0 -306.2 95.9 -281.5 M99.7 -274.6 L96.3 -280.8 M119.4 -262.25 L104.25 -264.9 92.85 -266.2 Q54.9 -269.7 2.35 -265.25 -48.55 -261.0 -88.2 -251.55 L-103.85 -247.45 M104.25 -264.9 L99.7 -274.6 Q8.9 -300.8 -101.05 -259.45 M97.0 -255.05 Q123.8 -253.55 142.9 -250.55 M-102.55 -237.2 Q-120.45 -233.9 -146.6 -227.65" fill="none" stroke="#000000" stroke-linecap="round" stroke-linejoin="round" stroke-width="5.0"/>
    </g>
  </defs>
</svg>
