<?xml version="1.0" encoding="UTF-8" standalone="no"?>
<svg xmlns:xlink="http://www.w3.org/1999/xlink" height="434.9px" width="399.95px" xmlns="http://www.w3.org/2000/svg">
  <g transform="matrix(1, 0, 0, 1, 210.75, 443.1)">
    <use height="29.25" transform="matrix(1.0, 0.0, 0.0, 1.0, -76.8, -280.4)" width="171.05" xlink:href="#shape0"/>
  </g>
  <defs>
    <g id="shape0" transform="matrix(1, 0, 0, 1, 76.8, 280.4)">
      <path d="M-46.9 -269.35 Q-47.95 -258.45 -59.25 -253.15 L-74.8 -278.4 -46.9 -269.35 M80.6 -256.45 Q72.2 -262.4 69.4 -270.85 L92.25 -278.1 80.6 -256.45" fill="#b8c6d6" fill-rule="evenodd" stroke="none"/>
      <path d="M80.6 -256.45 L92.25 -278.1 69.4 -270.85 Q72.2 -262.4 80.6 -256.45 M-46.9 -269.35 L-74.8 -278.4 -59.25 -253.15 Q-47.95 -258.45 -46.9 -269.35" fill="none" stroke="#000000" stroke-linecap="round" stroke-linejoin="round" stroke-width="4.0"/>
    </g>
  </defs>
</svg>
