<?xml version="1.0" encoding="UTF-8" standalone="no"?>
<svg xmlns:xlink="http://www.w3.org/1999/xlink" height="434.9px" width="399.95px" xmlns="http://www.w3.org/2000/svg">
  <g transform="matrix(1, 0, 0, 1, 210.75, 443.1)">
    <use height="166.5" transform="matrix(1.0, 0.0, 0.0, 1.0, -126.15, -336.9)" width="250.2" xlink:href="#shape0"/>
  </g>
  <defs>
    <g id="shape0" transform="matrix(1, 0, 0, 1, 126.15, 336.9)">
      <path d="M88.85 -308.0 Q79.85 -314.9 62.05 -316.4 44.2 -317.9 22.65 -312.8 L12.3 -310.0 Q21.9 -306.8 38.9 -299.85 68.9 -287.55 74.35 -287.1 78.95 -286.7 86.55 -296.2 90.35 -301.1 93.3 -303.95 L88.85 -308.0 M4.75 -307.35 L34.1 -291.2 Q66.7 -273.3 68.35 -273.15 73.85 -272.7 85.4 -278.55 L85.6 -279.05 Q86.05 -279.85 87.95 -279.9 L93.25 -282.9 Q106.4 -290.55 115.55 -298.15 L112.65 -301.05 101.15 -312.35 Q82.65 -328.95 66.85 -330.3 47.15 -331.95 21.8 -322.9 9.75 -318.55 -1.05 -312.9 L-1.5 -312.65 -1.2 -312.65 -0.85 -312.65 1.85 -312.7 3.4 -312.5 Q9.2 -314.7 16.35 -316.75 43.25 -324.6 62.15 -323.0 79.85 -321.55 92.95 -312.5 96.05 -310.35 98.6 -307.95 L98.85 -308.05 Q100.7 -307.05 101.2 -305.35 L102.55 -303.65 102.2 -302.0 101.8 -301.95 101.1 -301.15 99.35 -300.95 Q84.2 -279.8 73.95 -280.65 L4.8 -307.45 4.7 -307.4 4.75 -307.35 M114.95 -306.9 L119.65 -301.6 Q121.25 -300.75 121.8 -299.35 L122.15 -299.0 121.95 -298.75 122.0 -297.35 Q121.8 -294.8 97.9 -280.75 L91.3 -276.95 Q94.45 -272.85 100.2 -263.0 109.55 -246.95 112.95 -238.65 121.9 -218.7 123.1 -215.0 123.95 -212.6 124.05 -209.3 L124.05 -198.6 Q124.05 -188.8 123.7 -187.2 123.1 -184.55 120.5 -179.95 L120.6 -178.2 Q120.6 -176.65 118.0 -175.75 L117.6 -175.2 116.9 -175.45 116.6 -175.4 Q108.55 -173.6 103.5 -171.6 L101.35 -172.35 Q100.5 -172.95 100.5 -174.9 100.5 -175.5 100.8 -176.05 L100.5 -178.5 101.7 -186.3 Q102.9 -193.5 102.9 -195.75 102.9 -220.8 88.2 -246.5 84.9 -252.25 78.1 -262.3 75.45 -266.2 74.35 -268.35 70.4 -266.8 68.75 -266.95 60.8 -267.6 31.95 -284.35 L10.5 -297.0 -0.15 -303.15 Q-0.55 -299.35 -1.8 -298.0 -4.1 -295.5 -10.85 -296.05 L-15.4 -290.35 Q-17.2 -287.1 -22.45 -282.8 -29.65 -277.05 -40.6 -271.45 -53.25 -264.95 -63.4 -261.95 -85.2 -244.25 -91.05 -219.3 -93.45 -209.15 -93.75 -195.75 -93.9 -190.35 -93.45 -171.9 L-94.05 -171.15 Q-94.65 -170.4 -96.45 -170.4 -99.15 -170.4 -105.3 -173.95 -112.85 -178.3 -114.6 -183.45 -115.6 -186.5 -115.2 -192.15 L-114.6 -199.35 Q-114.6 -216.2 -108.45 -229.4 -101.9 -243.35 -85.7 -259.9 -109.3 -262.1 -118.6 -266.0 -122.2 -267.5 -124.0 -269.45 -125.05 -270.5 -126.15 -272.3 L-125.75 -273.0 Q-126.05 -273.6 -125.95 -274.4 -125.8 -276.3 -122.25 -284.2 -117.65 -294.6 -111.65 -303.3 -93.25 -330.05 -70.75 -328.15 -51.65 -326.55 -37.45 -322.5 -23.45 -318.55 -17.75 -313.25 -15.1 -315.2 -11.5 -314.9 L-7.5 -314.15 -7.5 -314.4 Q-7.4 -315.65 1.0 -319.55 9.6 -323.6 21.0 -327.55 51.35 -338.1 66.95 -336.75 85.8 -335.2 103.35 -319.0 108.45 -314.3 114.95 -306.9 M86.0 -274.0 L80.7 -271.25 Q84.1 -267.85 89.65 -260.3 100.55 -245.35 102.9 -234.6 L106.95 -214.1 Q108.75 -203.4 108.75 -195.3 L108.75 -183.5 108.25 -180.05 Q111.25 -180.9 114.6 -181.05 L114.95 -181.0 118.2 -198.75 Q118.2 -218.45 101.7 -247.95 97.85 -254.8 90.35 -266.7 L86.0 -274.0 M-77.9 -309.9 L-76.5 -310.5 Q-67.05 -314.9 -58.35 -314.15 L-28.65 -310.6 -22.9 -309.8 -21.9 -309.65 -22.2 -309.95 -22.85 -310.05 -22.9 -310.05 Q-25.25 -310.5 -28.55 -311.65 L-37.8 -315.05 Q-52.5 -320.15 -70.8 -321.7 -85.7 -322.95 -103.9 -299.25 -113.7 -286.55 -119.35 -275.3 -118.4 -275.0 -117.6 -274.5 L-113.65 -271.9 Q-105.75 -268.05 -80.9 -265.95 -66.85 -264.75 -45.4 -276.75 -31.7 -284.45 -17.4 -296.85 -19.8 -295.25 -17.85 -296.9 L-17.45 -297.2 Q-19.75 -297.95 -21.05 -299.0 -27.45 -295.55 -34.05 -292.6 -40.7 -289.7 -44.25 -287.0 -47.8 -284.35 -51.8 -282.1 -65.5 -274.6 -84.0 -276.15 L-106.2 -278.3 Q-106.6 -278.45 -106.1 -279.35 -105.85 -279.75 -105.85 -280.2 L-106.3 -281.45 -106.4 -281.65 -106.3 -282.9 -106.3 -282.95 -106.15 -284.3 -105.95 -284.25 Q-105.05 -286.6 -101.75 -290.6 -97.1 -296.3 -90.55 -301.5 -84.3 -306.55 -78.3 -309.6 L-77.9 -309.9 M-70.85 -309.15 Q-71.75 -308.5 -73.3 -307.85 -75.8 -306.8 -76.35 -306.8 L-76.4 -306.8 -77.9 -305.4 Q-84.3 -300.5 -86.95 -296.55 -89.15 -293.25 -94.55 -287.45 L-99.0 -283.05 Q-69.75 -278.75 -47.95 -291.3 -41.75 -294.9 -32.05 -301.7 -28.7 -303.85 -25.65 -304.95 L-44.1 -306.5 -70.85 -309.15 M-16.65 -304.9 Q-15.1 -303.15 -15.4 -302.8 L-14.05 -302.45 -7.2 -302.15 -6.25 -303.55 -7.95 -305.9 Q-9.7 -306.95 -12.95 -308.25 -13.5 -308.3 -16.05 -305.45 L-15.65 -305.05 Q-15.15 -303.95 -16.65 -304.9 M-81.9 -259.55 Q-81.75 -259.05 -81.75 -258.3 -88.5 -249.65 -95.25 -238.4 -108.75 -215.95 -108.75 -199.95 -108.75 -191.95 -108.2 -189.6 -106.35 -181.9 -99.3 -181.05 -101.9 -188.15 -99.9 -202.45 -97.95 -216.2 -92.75 -230.7 -87.25 -245.9 -80.35 -255.3 L-76.9 -259.5 Q-79.45 -259.35 -81.75 -259.55 L-81.9 -259.55" fill="#000000" fill-rule="evenodd" stroke="none"/>
      <path d="M4.8 -307.45 L73.95 -280.65 Q84.2 -279.8 99.35 -300.95 L101.1 -301.15 101.8 -301.95 102.2 -302.0 102.55 -303.65 101.2 -305.35 Q100.7 -307.05 98.85 -308.05 L98.6 -307.95 Q96.05 -310.35 92.95 -312.5 79.85 -321.55 62.15 -323.0 43.25 -324.6 16.35 -316.75 9.2 -314.7 3.4 -312.5 L1.85 -312.7 -0.85 -312.65 -1.2 -312.65 -1.5 -312.65 -1.05 -312.9 Q9.75 -318.55 21.8 -322.9 47.15 -331.95 66.85 -330.3 82.65 -328.95 101.15 -312.35 L112.65 -301.05 115.55 -298.15 Q106.4 -290.55 93.25 -282.9 L87.95 -279.9 Q86.05 -279.85 85.6 -279.05 L85.4 -278.55 Q73.85 -272.7 68.35 -273.15 66.7 -273.3 34.1 -291.2 L4.75 -307.35 4.8 -307.45 M-77.9 -309.9 L-78.3 -309.6 Q-84.3 -306.55 -90.55 -301.5 -97.1 -296.3 -101.75 -290.6 -105.05 -286.6 -105.95 -284.25 L-106.15 -284.3 -106.3 -282.95 -106.3 -282.9 -106.4 -281.65 -106.3 -281.45 -105.85 -280.2 Q-105.85 -279.75 -106.1 -279.35 -106.6 -278.45 -106.2 -278.3 L-84.0 -276.15 Q-65.5 -274.6 -51.8 -282.1 -47.8 -284.35 -44.25 -287.0 -40.7 -289.7 -34.05 -292.6 -27.45 -295.55 -21.05 -299.0 -19.75 -297.95 -17.45 -297.2 L-17.85 -296.9 Q-19.8 -295.25 -17.4 -296.85 -31.7 -284.45 -45.4 -276.75 -66.85 -264.75 -80.9 -265.95 -105.75 -268.05 -113.65 -271.9 L-117.6 -274.5 Q-118.4 -275.0 -119.35 -275.3 -113.7 -286.55 -103.9 -299.25 -85.7 -322.95 -70.8 -321.7 -52.5 -320.15 -37.8 -315.05 L-28.55 -311.65 Q-25.25 -310.5 -22.9 -310.05 L-22.85 -310.05 -22.2 -309.95 -21.9 -309.65 -22.9 -309.8 -28.65 -310.6 -58.35 -314.15 Q-67.05 -314.9 -76.5 -310.5 L-77.9 -309.9 M86.0 -274.0 L90.35 -266.7 Q97.85 -254.8 101.7 -247.95 118.2 -218.45 118.2 -198.75 L114.95 -181.0 114.6 -181.05 Q111.25 -180.9 108.25 -180.05 L108.75 -183.5 108.75 -195.3 Q108.75 -203.4 106.95 -214.1 L102.9 -234.6 Q100.55 -245.35 89.65 -260.3 84.1 -267.85 80.7 -271.25 L86.0 -274.0 M-81.9 -259.55 L-81.75 -259.55 Q-79.45 -259.35 -76.9 -259.5 L-80.35 -255.3 Q-87.25 -245.9 -92.75 -230.7 -97.95 -216.2 -99.9 -202.45 -101.9 -188.15 -99.3 -181.05 -106.35 -181.9 -108.2 -189.6 -108.75 -191.95 -108.75 -199.95 -108.75 -215.95 -95.25 -238.4 -88.5 -249.65 -81.75 -258.3 -81.75 -259.05 -81.9 -259.55 M-16.65 -304.9 Q-15.15 -303.95 -15.65 -305.05 L-16.05 -305.45 Q-13.5 -308.3 -12.95 -308.25 -9.7 -306.95 -7.95 -305.9 L-6.25 -303.55 -7.2 -302.15 -14.05 -302.45 -15.4 -302.8 Q-15.1 -303.15 -16.65 -304.9" fill="#b30000" fill-rule="evenodd" stroke="none"/>
    </g>
  </defs>
</svg>
