<?xml version="1.0" encoding="UTF-8" standalone="no"?>
<svg xmlns:xlink="http://www.w3.org/1999/xlink" height="434.9px" width="399.95px" xmlns="http://www.w3.org/2000/svg">
  <g transform="matrix(1, 0, 0, 1, 210.75, 443.1)">
    <use height="96.0" transform="matrix(1.0, 0.0, 0.0, 1.0, -5.5, -346.5)" width="47.0" xlink:href="#shape0"/>
  </g>
  <defs>
    <g id="shape0" transform="matrix(1, 0, 0, 1, 5.5, 346.5)">
      <path d="M38.3 -338.1 L38.3 -338.0 38.3 -337.95 38.3 -337.65 38.3 -337.6 38.3 -337.5 38.3 -337.45 38.45 -325.4 38.45 -323.4 38.45 -323.0 38.4 -323.0 38.4 -321.65 38.4 -320.15 Q38.05 -288.1 40.5 -277.0 L40.5 -265.1 40.7 -265.05 Q41.5 -264.65 41.5 -263.1 41.5 -259.65 34.75 -255.25 27.4 -250.5 20.0 -250.5 7.45 -250.5 0.25 -256.6 -3.35 -259.65 -4.5 -263.0 -4.5 -263.5 -5.05 -264.9 L-5.5 -266.0 Q-5.5 -267.85 15.0 -307.3 35.4 -346.5 36.0 -346.5 37.75 -346.5 38.25 -338.8 L38.3 -338.25 38.3 -338.15 38.3 -338.1 M28.45 -324.55 L26.1 -319.55 25.5 -318.25 25.45 -318.25 25.45 -318.2 24.65 -316.5 23.45 -314.0 23.05 -313.15 22.9 -312.85 22.95 -312.85 22.2 -311.35 19.2 -305.1 18.8 -304.25 18.4 -303.4 16.4 -299.25 16.05 -298.55 16.0 -298.45 10.8 -287.85 10.65 -287.65 10.6 -287.5 10.1 -286.45 10.05 -286.4 9.55 -285.4 9.15 -284.55 8.05 -282.5 6.15 -278.85 5.9 -278.4 2.6 -272.25 0.25 -268.1 -0.05 -267.5 -0.75 -266.35 -0.95 -265.9 0.95 -264.0 1.15 -263.8 1.25 -263.65 1.4 -263.5 2.35 -262.35 3.25 -261.4 3.65 -260.9 3.8 -260.75 5.3 -259.55 5.9 -259.1 19.0 -256.0 Q28.0 -256.0 32.25 -259.95 L35.2 -263.1 37.0 -264.55 36.5 -268.45 36.4 -269.65 36.4 -269.7 36.35 -269.65 35.9 -273.6 35.95 -273.65 35.75 -275.1 34.45 -288.1 34.25 -290.35 34.2 -291.05 34.1 -292.5 34.1 -292.55 33.85 -295.55 33.8 -297.0 Q33.6 -300.35 33.55 -303.8 33.45 -307.05 33.5 -310.4 L33.6 -316.2 33.6 -316.6 33.65 -318.3 33.65 -319.1 33.65 -321.25 33.6 -327.75 33.6 -327.8 33.5 -330.45 33.25 -334.75 30.7 -329.35 28.45 -324.55" fill="#000000" fill-rule="evenodd" stroke="none"/>
      <path d="M28.45 -324.55 L28.5 -324.55 Q33.3 -326.5 33.6 -327.75 L33.65 -321.25 25.5 -318.25 26.1 -319.55 28.45 -324.55 M33.5 -330.45 L30.7 -329.35 33.25 -334.75 33.5 -330.45 M33.5 -310.4 Q30.6 -308.15 28.4 -307.25 23.25 -305.2 19.85 -304.5 L18.8 -304.25 19.2 -305.1 22.2 -311.35 22.95 -312.85 23.75 -312.8 Q24.95 -312.8 30.65 -315.25 L33.6 -316.6 33.6 -316.2 33.5 -310.4 M16.0 -298.45 L17.5 -298.3 Q19.55 -298.3 26.5 -300.55 31.65 -302.25 33.55 -303.8 33.6 -300.35 33.8 -297.0 33.05 -296.85 30.6 -295.1 27.5 -292.9 24.65 -291.75 L10.1 -286.45 10.6 -287.5 10.65 -287.65 10.8 -287.85 16.0 -298.45 M34.45 -288.1 L35.75 -275.1 21.2 -270.05 -0.05 -267.5 0.25 -268.1 2.6 -272.25 5.9 -278.4 7.5 -278.3 Q13.8 -278.3 22.85 -282.25 31.8 -286.05 34.45 -288.1 M36.5 -268.45 L37.0 -264.55 35.2 -263.1 32.25 -259.95 Q28.0 -256.0 19.0 -256.0 L5.9 -259.1 5.3 -259.55 7.5 -259.55 Q14.65 -259.55 25.0 -263.0 29.3 -264.5 34.1 -267.1 L36.5 -268.45" fill="#b74848" fill-rule="evenodd" stroke="none"/>
      <path d="M33.6 -327.75 Q33.3 -326.5 28.5 -324.55 L28.45 -324.55 30.7 -329.35 33.5 -330.45 33.6 -327.8 33.6 -327.75 M25.5 -318.25 L33.65 -321.25 33.65 -319.1 33.65 -318.3 33.6 -316.6 30.65 -315.25 Q24.95 -312.8 23.75 -312.8 L23.05 -313.15 23.45 -314.0 24.65 -316.5 25.45 -318.2 25.5 -318.25 M18.8 -304.25 L19.85 -304.5 Q23.25 -305.2 28.4 -307.25 30.6 -308.15 33.5 -310.4 33.45 -307.05 33.55 -303.8 31.65 -302.25 26.5 -300.55 19.55 -298.3 17.5 -298.3 L16.0 -298.45 16.05 -298.55 16.4 -299.25 18.4 -303.4 18.8 -304.25 M33.8 -297.0 L33.85 -295.55 34.1 -292.55 34.1 -292.5 34.2 -291.05 34.25 -290.35 34.45 -288.1 Q31.8 -286.05 22.85 -282.25 13.8 -278.3 7.5 -278.3 L5.9 -278.4 6.15 -278.85 8.05 -282.5 9.15 -284.55 9.55 -285.4 10.05 -286.4 10.1 -286.45 24.65 -291.75 Q27.5 -292.9 30.6 -295.1 33.05 -296.85 33.8 -297.0 M35.75 -275.1 L35.95 -273.65 35.9 -273.6 36.35 -269.65 36.4 -269.7 36.4 -269.65 36.5 -268.45 34.1 -267.1 Q29.3 -264.5 25.0 -263.0 14.65 -259.55 7.5 -259.55 L5.3 -259.55 3.8 -260.75 3.65 -260.9 3.25 -261.4 2.35 -262.35 1.4 -263.5 1.25 -263.65 1.15 -263.8 0.95 -264.0 -0.95 -265.9 -0.75 -266.35 -0.05 -267.5 21.2 -270.05 35.75 -275.1" fill="#a94545" fill-rule="evenodd" stroke="none"/>
      <path d="M23.75 -312.8 L22.95 -312.85 22.9 -312.85 23.05 -313.15 23.75 -312.8 M25.45 -318.2 L25.45 -318.25 25.5 -318.25 25.45 -318.2" fill="#983d3d" fill-rule="evenodd" stroke="none"/>
    </g>
  </defs>
</svg>
