<?xml version="1.0" encoding="UTF-8" standalone="no"?>
<svg xmlns:xlink="http://www.w3.org/1999/xlink" height="434.9px" width="399.95px" xmlns="http://www.w3.org/2000/svg">
  <g transform="matrix(1, 0, 0, 1, 210.75, 443.1)">
    <use height="168.5" transform="matrix(1.0, 0.0, 0.0, 1.0, -101.45, -316.8)" width="204.55" xlink:href="#shape0"/>
  </g>
  <defs>
    <g id="shape0" transform="matrix(1, 0, 0, 1, 101.45, 316.8)">
      <path d="M83.0 -231.8 Q82.75 -232.4 82.8 -232.7 82.75 -235.05 85.0 -235.05 87.45 -235.05 92.6 -225.55 L99.9 -210.7 Q101.0 -208.65 102.1 -199.5 103.1 -191.05 103.1 -186.25 101.45 -166.05 91.6 -166.05 89.1 -166.1 89.1 -168.0 L92.2 -172.05 92.5 -176.0 Q92.5 -177.0 86.8 -191.4 81.05 -205.9 81.05 -214.05 81.1 -219.25 81.7 -224.35 82.2 -229.3 83.0 -231.8 M85.35 -214.4 Q85.35 -206.6 91.1 -192.75 95.4 -182.2 96.5 -177.85 98.8 -181.95 98.8 -185.85 98.8 -201.65 90.8 -217.7 L86.6 -224.7 85.35 -214.4 M-20.4 -316.2 L-13.75 -316.8 -13.65 -316.8 -15.7 -315.6 Q-36.35 -303.4 -44.9 -294.75 -49.3 -290.5 -52.45 -283.7 L-57.2 -272.05 Q-63.95 -255.75 -65.95 -248.4 -68.55 -238.7 -68.5 -226.5 L-68.65 -225.35 Q-62.85 -222.95 -56.9 -216.85 -50.85 -210.6 -47.5 -204.45 -45.5 -200.65 -43.9 -193.1 -42.3 -185.7 -42.3 -180.55 -42.3 -179.2 -43.5 -174.75 -45.25 -168.8 -47.8 -163.75 -55.9 -148.3 -69.25 -148.3 -81.55 -148.3 -89.15 -153.45 L-89.3 -153.5 -89.35 -153.6 Q-95.2 -157.65 -98.3 -164.7 -101.45 -171.85 -101.45 -184.9 -101.45 -197.85 -94.45 -211.5 -87.95 -224.3 -79.95 -226.55 L-80.7 -226.8 -80.85 -229.85 Q-80.85 -236.35 -77.05 -250.2 -72.6 -266.55 -65.85 -280.45 -46.85 -319.55 -22.05 -315.95 L-20.4 -316.2 M-94.75 -203.35 Q-97.05 -198.3 -97.3 -193.85 L-97.15 -184.7 Q-97.15 -164.8 -87.5 -157.25 -86.2 -158.0 -84.0 -158.55 -77.55 -160.35 -75.55 -162.7 L-71.65 -167.1 Q-69.4 -169.8 -68.8 -171.25 L-65.25 -181.15 Q-64.95 -182.65 -64.9 -188.35 -64.9 -194.75 -65.15 -197.05 -65.55 -200.55 -67.2 -206.5 -70.15 -217.0 -75.75 -222.15 L-77.55 -222.2 Q-80.0 -222.25 -86.45 -214.9 -92.75 -207.8 -94.75 -203.35 M-64.7 -272.45 Q-67.7 -265.35 -73.35 -244.65 -77.45 -229.8 -78.45 -226.9 L-76.4 -227.05 -73.5 -226.8 Q-73.65 -228.05 -73.4 -229.8 -73.4 -233.8 -70.35 -246.0 -66.4 -261.95 -60.4 -275.6 -51.4 -295.8 -40.05 -306.1 -47.45 -300.85 -51.8 -295.6 -58.0 -288.4 -64.7 -272.45 M-62.7 -207.05 Q-60.8 -197.6 -60.6 -188.05 -60.65 -178.85 -64.7 -169.25 -70.1 -156.7 -80.55 -153.8 -76.8 -152.7 -72.15 -152.65 -58.6 -152.65 -51.3 -166.7 -48.95 -171.15 -47.55 -176.5 -46.65 -180.1 -46.65 -181.15 -46.65 -191.6 -51.8 -203.25 -57.35 -215.85 -66.85 -220.05 -64.35 -215.45 -62.7 -207.05" fill="#000000" fill-rule="evenodd" stroke="none"/>
      <path d="M85.35 -214.4 L86.6 -224.7 90.8 -217.7 Q98.8 -201.65 98.8 -185.85 98.8 -181.95 96.5 -177.85 95.4 -182.2 91.1 -192.75 85.35 -206.6 85.35 -214.4 M-62.7 -207.05 Q-64.35 -215.45 -66.85 -220.05 -57.35 -215.85 -51.8 -203.25 -46.65 -191.6 -46.65 -181.15 -46.65 -180.1 -47.55 -176.5 -48.95 -171.15 -51.3 -166.7 -58.6 -152.65 -72.15 -152.65 -76.8 -152.7 -80.55 -153.8 -70.1 -156.7 -64.7 -169.25 -60.65 -178.85 -60.6 -188.05 -60.8 -197.6 -62.7 -207.05" fill="#222222" fill-rule="evenodd" stroke="none"/>
      <path d="M-64.7 -272.45 Q-58.0 -288.4 -51.8 -295.6 -47.45 -300.85 -40.05 -306.1 -51.4 -295.8 -60.4 -275.6 -66.4 -261.95 -70.35 -246.0 -73.4 -233.8 -73.4 -229.8 -73.65 -228.05 -73.5 -226.8 L-76.4 -227.05 -78.45 -226.9 Q-77.45 -229.8 -73.35 -244.65 -67.7 -265.35 -64.7 -272.45 M-94.75 -203.35 Q-92.75 -207.8 -86.45 -214.9 -80.0 -222.25 -77.55 -222.2 L-75.75 -222.15 Q-70.15 -217.0 -67.2 -206.5 -65.55 -200.55 -65.15 -197.05 -64.9 -194.75 -64.9 -188.35 -64.95 -182.65 -65.25 -181.15 L-68.8 -171.25 Q-69.4 -169.8 -71.65 -167.1 L-75.55 -162.7 Q-77.55 -160.35 -84.0 -158.55 -86.2 -158.0 -87.5 -157.25 -97.15 -164.8 -97.15 -184.7 L-97.3 -193.85 Q-97.05 -198.3 -94.75 -203.35" fill="#2b2b2b" fill-rule="evenodd" stroke="none"/>
    </g>
  </defs>
</svg>
