<?xml version="1.0" encoding="UTF-8" standalone="no"?>
<svg xmlns:xlink="http://www.w3.org/1999/xlink" height="434.9px" width="399.95px" xmlns="http://www.w3.org/2000/svg">
  <g transform="matrix(1, 0, 0, 1, 210.75, 443.1)">
    <use height="97.55" transform="matrix(1.0, 0.0, 0.0, 1.0, -140.7, -343.3)" width="263.9" xlink:href="#shape0"/>
  </g>
  <defs>
    <g id="shape0" transform="matrix(1, 0, 0, 1, 140.7, 343.3)">
      <path d="M115.3 -304.65 L77.55 -302.0 Q79.7 -298.25 79.95 -295.95 81.5 -290.9 77.65 -290.45 L77.6 -290.45 Q75.55 -289.2 72.0 -287.5 63.35 -283.35 50.3 -278.85 16.9 -267.3 -11.1 -264.35 -46.55 -260.65 -55.2 -262.45 L-64.55 -264.35 -74.65 -266.8 -91.6 -271.3 -92.8 -268.85 Q-96.85 -268.45 -96.2 -272.75 -96.6 -276.55 -93.85 -283.5 -104.0 -281.65 -127.4 -279.1 L-126.75 -278.4 -120.8 -272.0 Q-116.55 -268.0 -111.3 -264.95 -79.15 -246.4 10.75 -255.85 L28.35 -257.65 Q41.5 -259.25 52.3 -261.7 83.75 -268.95 100.6 -284.8 104.5 -288.45 115.9 -304.7 L115.3 -304.65 M119.45 -309.8 L119.9 -310.55 Q123.35 -310.9 123.2 -307.6 123.55 -304.05 115.1 -293.05 107.9 -283.85 104.25 -280.7 102.25 -278.05 99.95 -275.75 95.55 -271.25 88.0 -267.4 64.6 -255.65 11.35 -250.0 -33.4 -245.35 -54.35 -245.8 -88.3 -246.55 -106.9 -258.15 L-125.5 -269.75 Q-140.45 -279.35 -140.55 -280.7 -141.4 -283.8 -137.95 -284.15 L-134.9 -284.05 Q-129.65 -285.7 -117.55 -286.65 L-103.55 -288.5 -91.3 -289.35 Q-86.4 -299.4 -78.7 -309.35 -69.35 -321.55 -58.8 -329.45 -46.55 -338.65 -34.5 -340.45 L-18.55 -342.5 Q26.25 -347.2 56.75 -324.65 67.15 -316.95 74.1 -307.25 L74.85 -306.15 92.05 -308.35 119.45 -309.8 M56.65 -303.3 Q58.4 -304.1 59.0 -305.6 L60.0 -308.6 Q61.1 -310.9 62.95 -311.6 57.1 -317.4 46.95 -325.0 29.2 -338.3 -6.95 -336.2 -43.2 -334.15 -61.6 -318.5 -67.5 -313.5 -72.2 -307.45 L-76.6 -301.35 Q-78.5 -298.75 -83.2 -289.05 -81.45 -288.85 -78.3 -287.45 -72.3 -284.9 -67.8 -283.7 -48.95 -278.6 -16.2 -282.05 -4.95 -283.25 12.0 -287.3 32.85 -292.3 44.9 -298.05 L56.65 -303.3 M65.2 -303.45 Q61.65 -298.6 54.1 -294.15 32.15 -281.3 -15.55 -276.25 -41.9 -273.5 -66.6 -278.15 -75.9 -279.95 -82.15 -282.25 -84.4 -283.05 -85.75 -283.75 L-86.1 -283.0 -89.4 -276.05 Q-87.1 -275.95 -82.85 -274.6 -75.0 -272.15 -70.05 -271.1 -47.7 -266.4 -12.05 -270.1 11.1 -272.55 30.05 -278.0 39.85 -280.8 48.15 -284.1 52.6 -285.5 73.85 -294.5 72.4 -298.65 69.2 -304.0 L67.15 -306.95 Q66.6 -305.4 65.2 -303.45" fill="#000000" fill-rule="evenodd" stroke="none"/>
      <path d="M115.3 -304.65 L115.9 -304.7 Q104.5 -288.45 100.6 -284.8 83.75 -268.95 52.3 -261.7 41.5 -259.25 28.35 -257.65 L10.75 -255.85 Q-79.15 -246.4 -111.3 -264.95 -116.55 -268.0 -120.8 -272.0 L-126.75 -278.4 -127.4 -279.1 Q-104.0 -281.65 -93.85 -283.5 -96.6 -276.55 -96.2 -272.75 -96.85 -268.45 -92.8 -268.85 L-91.6 -271.3 -74.65 -266.8 -64.55 -264.35 -55.2 -262.45 Q-46.55 -260.65 -11.1 -264.35 16.9 -267.3 50.3 -278.85 63.35 -283.35 72.0 -287.5 75.55 -289.2 77.6 -290.45 L77.65 -290.45 Q81.5 -290.9 79.95 -295.95 79.7 -298.25 77.55 -302.0 L115.3 -304.65 M56.65 -303.3 L44.9 -298.05 Q32.85 -292.3 12.0 -287.3 -4.95 -283.25 -16.2 -282.05 -48.95 -278.6 -67.8 -283.7 -72.3 -284.9 -78.3 -287.45 -81.45 -288.85 -83.2 -289.05 -78.5 -298.75 -76.6 -301.35 L-72.2 -307.45 Q-67.5 -313.5 -61.6 -318.5 -43.2 -334.15 -6.95 -336.2 29.2 -338.3 46.95 -325.0 57.1 -317.4 62.95 -311.6 61.1 -310.9 60.0 -308.6 L59.0 -305.6 Q58.4 -304.1 56.65 -303.3" fill="#fcf8fe" fill-rule="evenodd" stroke="none"/>
      <path d="M65.2 -303.45 Q66.6 -305.4 67.15 -306.95 L69.2 -304.0 Q72.4 -298.65 73.85 -294.5 52.6 -285.5 48.15 -284.1 39.85 -280.8 30.05 -278.0 11.1 -272.55 -12.05 -270.1 -47.7 -266.4 -70.05 -271.1 -75.0 -272.15 -82.85 -274.6 -87.1 -275.95 -89.4 -276.05 L-86.1 -283.0 -85.75 -283.75 Q-84.4 -283.05 -82.15 -282.25 -75.9 -279.95 -66.6 -278.15 -41.9 -273.5 -15.55 -276.25 32.15 -281.3 54.1 -294.15 61.65 -298.6 65.2 -303.45" fill="#7b1496" fill-rule="evenodd" stroke="none"/>
      <path d="M82.75 -298.65 Q83.2 -294.5 80.8 -287.25 77.65 -277.6 71.65 -276.95 66.45 -276.45 56.75 -280.0 52.2 -281.65 50.85 -282.45 50.9 -280.55 44.3 -274.2 37.65 -267.85 35.5 -267.6 22.8 -266.25 14.9 -277.5 10.95 -283.2 9.45 -289.55 L8.9 -292.05 Q8.55 -293.95 8.85 -295.3 9.75 -299.55 17.15 -300.3 26.6 -301.35 36.1 -299.2 40.7 -298.15 43.35 -297.05 44.95 -298.0 47.0 -298.2 L47.05 -298.2 Q48.95 -301.65 61.75 -310.0 74.45 -318.35 78.0 -312.15 81.55 -306.0 82.3 -302.1 L82.75 -298.65 M51.95 -297.4 L53.35 -296.55 Q56.1 -294.5 56.45 -291.2 56.7 -288.75 55.15 -285.25 55.35 -285.05 61.1 -282.45 66.8 -279.85 71.4 -281.35 75.95 -282.9 77.45 -290.45 78.2 -294.3 77.65 -299.9 77.15 -305.5 75.55 -307.45 L73.6 -309.55 Q71.35 -310.25 63.0 -305.5 54.6 -300.8 51.95 -297.4 M52.15 -290.75 Q51.95 -292.4 50.6 -293.4 49.2 -294.45 47.45 -294.25 45.65 -294.1 44.5 -292.8 43.35 -291.5 43.55 -289.85 43.7 -288.2 45.1 -287.15 46.45 -286.15 48.25 -286.35 50.05 -286.55 51.2 -287.85 52.3 -289.15 52.15 -290.75 M42.35 -284.05 Q39.55 -286.1 39.25 -289.4 39.0 -291.45 39.8 -293.2 L31.75 -295.2 Q25.55 -297.0 13.8 -294.9 14.25 -286.45 16.95 -283.1 L18.35 -280.85 Q20.6 -277.0 24.6 -274.45 28.6 -271.9 31.95 -272.3 35.3 -272.7 41.0 -278.5 L45.25 -282.65 Q43.7 -283.05 42.35 -284.05" fill="#000000" fill-rule="evenodd" stroke="none"/>
      <path d="M42.35 -284.05 Q43.7 -283.05 45.25 -282.65 L41.0 -278.5 Q35.3 -272.7 31.95 -272.3 28.6 -271.9 24.6 -274.45 20.6 -277.0 18.35 -280.85 L16.95 -283.1 Q14.25 -286.45 13.8 -294.9 25.55 -297.0 31.75 -295.2 L39.8 -293.2 Q39.0 -291.45 39.25 -289.4 39.55 -286.1 42.35 -284.05 M52.15 -290.75 Q52.3 -289.15 51.2 -287.85 50.05 -286.55 48.25 -286.35 46.45 -286.15 45.1 -287.15 43.7 -288.2 43.55 -289.85 43.35 -291.5 44.5 -292.8 45.65 -294.1 47.45 -294.25 49.2 -294.45 50.6 -293.4 51.95 -292.4 52.15 -290.75 M51.95 -297.4 Q54.6 -300.8 63.0 -305.5 71.35 -310.25 73.6 -309.55 L75.55 -307.45 Q77.15 -305.5 77.65 -299.9 78.2 -294.3 77.45 -290.45 75.95 -282.9 71.4 -281.35 66.8 -279.85 61.1 -282.45 55.35 -285.05 55.15 -285.25 56.7 -288.75 56.45 -291.2 56.1 -294.5 53.35 -296.55 L51.95 -297.4" fill="#7b1496" fill-rule="evenodd" stroke="none"/>
    </g>
  </defs>
</svg>
