<?xml version="1.0" encoding="UTF-8" standalone="no"?>
<svg xmlns:xlink="http://www.w3.org/1999/xlink" height="842.55px" width="1337.95px" xmlns="http://www.w3.org/2000/svg">
  <g transform="matrix(1, 0, 0, 1, 407.45, 285.05)">
    <use height="4.5" transform="matrix(5.4867, 0.0, 0.0, 81.5667, 3.2875, 23.0167)" width="99.75" xlink:href="#shape0"/>
    <use height="412.0" transform="matrix(1.0, 0.0, 0.0, 1.0, 0.0, 0.0)" width="556.95" xlink:href="#shape1"/>
  </g>
  <defs>
    <g id="shape0" transform="matrix(1, 0, 0, 1, 49.85, -2.5)">
      <path d="M49.9 7.0 L-49.85 7.0 -49.85 2.5 49.9 2.5 49.9 7.0" fill="#ffffff" fill-rule="evenodd" stroke="none"/>
    </g>
    <g id="shape1" transform="matrix(1, 0, 0, 1, 0.0, 0.0)">
      <path d="M0.0 412.0 L0.0 269.75 556.95 269.75 556.95 412.0 0.0 412.0" fill="url(#gradient0)" fill-rule="evenodd" stroke="none"/>
      <path d="M556.95 245.75 L552.05 245.75 516.0 245.75 516.0 246.5 461.45 246.35 243.3 246.0 208.25 245.85 158.65 245.9 68.0 245.9 62.0 245.85 62.0 245.9 51.7 245.8 37.8 245.75 36.05 245.75 6.0 245.75 0.0 245.75 0.0 238.25 62.0 238.25 158.15 238.25 158.35 238.25 556.95 238.25 556.95 245.75 M62.0 262.2 L516.0 261.8 516.0 262.25 556.95 262.25 556.95 269.75 0.0 269.75 0.0 262.25 62.0 262.2" fill="#000000" fill-rule="evenodd" stroke="none"/>
      <path d="M62.0 245.9 L62.0 245.85 68.0 245.9 158.65 245.9 208.25 245.85 243.3 246.0 461.45 246.35 516.0 246.5 516.0 245.75 552.05 245.75 556.95 245.75 556.95 262.25 516.0 262.25 516.0 261.8 62.0 262.2 62.0 245.9" fill="url(#gradient1)" fill-rule="evenodd" stroke="none"/>
      <path d="M556.95 238.25 L158.35 238.25 158.15 238.25 62.0 238.25 62.0 0.0 556.95 0.0 556.95 238.25" fill="url(#gradient2)" fill-rule="evenodd" stroke="none"/>
      <path d="M62.0 238.25 L0.0 238.25 0.0 0.0 62.0 0.0 62.0 238.25" fill="url(#gradient3)" fill-rule="evenodd" stroke="none"/>
      <path d="M0.0 245.75 L6.0 245.75 36.05 245.75 37.8 245.75 51.7 245.8 62.0 245.9 62.0 262.2 0.0 262.25 0.0 245.75" fill="url(#gradient4)" fill-rule="evenodd" stroke="none"/>
    </g>
    <linearGradient gradientTransform="matrix(1.0, 0.0, 0.0, 1.1542, 0.0, -41.6)" gradientUnits="userSpaceOnUse" id="gradient0" spreadMethod="pad" x1="-819.2" x2="819.2">
      <stop offset="0.0" stop-color="#54012b"/>
      <stop offset="1.0" stop-color="#22001c"/>
    </linearGradient>
    <linearGradient gradientTransform="matrix(1.0, 0.0, 0.0, 1.0, 0.0, 0.0)" gradientUnits="userSpaceOnUse" id="gradient1" spreadMethod="pad" x1="-819.2" x2="819.2">
      <stop offset="0.0" stop-color="#54012b"/>
      <stop offset="1.0" stop-color="#420143"/>
    </linearGradient>
    <linearGradient gradientTransform="matrix(0.3495, -0.1471, 0.3875, 0.9206, 227.1, 17.45)" gradientUnits="userSpaceOnUse" id="gradient2" spreadMethod="pad" x1="-819.2" x2="819.2">
      <stop offset="0.0" stop-color="#3e001f"/>
      <stop offset="1.0" stop-color="#2f002f"/>
    </linearGradient>
    <linearGradient gradientTransform="matrix(0.3495, -0.1471, 0.3875, 0.9206, 221.1, 17.45)" gradientUnits="userSpaceOnUse" id="gradient3" spreadMethod="pad" x1="-819.2" x2="819.2">
      <stop offset="0.0" stop-color="#3e001f"/>
      <stop offset="1.0" stop-color="#2f002f"/>
    </linearGradient>
    <linearGradient gradientTransform="matrix(1.0, 0.0, 0.0, 1.0, -6.0, 0.0)" gradientUnits="userSpaceOnUse" id="gradient4" spreadMethod="pad" x1="-819.2" x2="819.2">
      <stop offset="0.0" stop-color="#54012b"/>
      <stop offset="1.0" stop-color="#420143"/>
    </linearGradient>
  </defs>
</svg>
