<?xml version="1.0" encoding="UTF-8" standalone="no"?>
<svg xmlns:xlink="http://www.w3.org/1999/xlink" height="842.55px" width="1337.95px" xmlns="http://www.w3.org/2000/svg">
  <g transform="matrix(1, 0, 0, 1, 407.45, 285.05)">
    <use height="4.5" transform="matrix(5.4867, 0.0, 0.0, 81.5667, 3.2875, 23.0167)" width="99.75" xlink:href="#shape0"/>
    <use height="413.5" transform="matrix(1.0, 0.0, 0.0, 1.0, -5.5, -5.5)" width="562.85" xlink:href="#shape1"/>
  </g>
  <defs>
    <g id="shape0" transform="matrix(1, 0, 0, 1, 49.85, -2.5)">
      <path d="M49.9 7.0 L-49.85 7.0 -49.85 2.5 49.9 2.5 49.9 7.0" fill="#ffffff" fill-rule="evenodd" stroke="none"/>
    </g>
    <g id="shape1" transform="matrix(1, 0, 0, 1, 5.5, 5.5)">
      <path d="M549.1 -0.5 L549.1 -0.55 548.85 -0.5 549.1 -0.5 M-2.8 11.05 L-2.05 -2.15 Q-2.5 -2.9 -2.5 -4.0 -1.75 -4.75 0.0 -5.5 L548.85 -5.5 550.55 -5.05 Q551.35 -4.65 551.35 -3.1 551.35 -1.55 550.6 -1.0 L551.45 11.85 550.55 11.95 548.85 11.5 0.25 11.0 -1.5 10.5 Q-2.1 10.6 -2.8 11.05 M552.1 38.45 L552.4 72.75 Q552.6 110.85 552.35 149.25 L552.25 260.5 352.35 260.5 352.35 38.5 551.85 38.5 552.1 38.45 M-4.45 261.45 L-4.5 258.25 -4.5 145.75 -4.35 70.3 -3.8 38.15 -3.0 38.5 155.0 38.5 Q153.85 50.95 153.55 94.5 153.3 125.2 153.5 157.85 L153.5 251.25 153.4 260.5 -3.0 260.5 -4.45 261.45 M-0.9 -0.35 L0.0 -0.5 Q-0.65 -0.7 -1.1 -1.05 L-0.9 -0.35 M349.75 38.5 Q347.35 74.55 347.35 158.5 L347.35 250.0 347.3 260.5 158.3 260.5 158.5 157.75 158.45 95.55 Q158.15 51.1 157.05 38.5 L349.75 38.5 M135.75 184.25 Q137.0 185.5 139.0 185.5 141.5 185.5 142.25 184.75 L142.5 182.85 Q142.5 181.4 142.25 181.25 L142.0 181.0 139.0 180.5 136.9 180.8 Q135.5 181.2 135.5 182.75 135.5 185.25 135.75 184.25 M175.25 180.25 L175.0 180.0 172.0 179.5 169.9 179.8 Q168.5 180.2 168.5 181.75 168.5 184.25 168.75 183.25 170.0 184.5 172.0 184.5 174.5 184.5 175.25 183.75 L175.5 181.85 Q175.5 180.4 175.25 180.25" fill="#aed0b8" fill-rule="evenodd" stroke="none"/>
      <path d="M552.0 33.55 L553.55 33.95 Q554.35 34.3 554.35 35.85 554.35 37.45 553.5 38.0 L552.1 38.45 551.85 38.5 352.35 38.5 352.35 260.5 552.25 260.5 554.85 260.5 556.55 260.95 Q557.35 261.3 557.35 262.85 557.35 264.45 556.5 265.0 L554.85 265.5 552.25 265.5 352.35 265.5 352.35 279.25 351.95 279.5 552.2 279.5 554.95 279.5 554.95 284.5 554.35 284.5 521.45 284.5 550.3 334.5 550.3 334.55 554.95 342.6 554.95 352.65 545.9 336.95 543.8 337.0 500.95 335.6 539.0 401.5 542.75 408.0 536.95 408.0 533.2 401.5 524.8 386.95 522.05 387.0 469.8 385.6 479.0 401.5 482.75 408.0 476.95 408.0 473.2 401.5 436.4 337.8 432.25 338.0 381.5 336.6 419.0 401.5 422.75 408.0 416.95 408.0 413.2 401.5 405.95 389.0 403.85 389.0 351.0 387.65 359.0 401.5 362.75 408.0 356.95 408.0 353.2 401.5 317.0 338.85 313.4 339.0 262.05 337.55 299.0 401.5 302.75 408.0 296.95 408.0 293.2 401.5 285.95 388.95 283.3 389.0 230.95 387.6 239.0 401.5 242.75 408.0 236.95 408.0 233.2 401.5 197.0 338.85 193.4 339.0 142.05 337.55 179.0 401.5 182.75 408.0 176.95 408.0 173.2 401.5 165.95 388.95 163.2 389.0 110.95 387.6 119.0 401.5 122.75 408.0 116.95 408.0 113.2 401.5 78.25 341.0 77.05 341.0 23.25 339.6 59.0 401.5 62.75 408.0 56.95 408.0 53.2 401.5 50.3 396.5 45.9 388.85 42.0 389.0 -4.0 387.85 -4.0 384.65 15.5 384.5 Q20.15 384.5 31.9 384.85 L43.85 385.35 -4.0 302.45 -4.0 292.45 21.55 336.7 Q25.2 336.5 51.0 336.5 55.6 336.5 67.15 336.85 L76.05 337.2 45.65 284.5 -4.0 284.5 -4.0 279.5 154.85 279.5 Q153.1 274.1 153.1 266.95 L153.2 265.5 -3.0 265.5 Q-3.9 265.2 -4.45 264.7 -5.5 263.7 -5.5 262.0 L-4.45 261.45 -3.0 260.5 153.4 260.5 153.5 251.25 153.5 157.85 Q153.3 125.2 153.55 94.5 153.85 50.95 155.0 38.5 L-3.0 38.5 -3.8 38.15 Q-5.5 37.2 -5.5 35.0 L-3.65 34.05 Q-3.0 33.65 -3.0 33.5 L551.85 33.5 552.0 33.55 M-3.05 16.5 Q-4.4 16.0 -5.15 15.35 L-5.25 15.25 Q-5.5 16.25 -5.5 13.75 -5.5 13.05 -3.95 11.85 L-2.8 11.05 Q-2.1 10.6 -1.5 10.5 L0.25 11.0 548.85 11.5 550.55 11.95 Q551.35 12.3 551.35 13.85 551.35 15.45 550.5 16.0 L548.85 16.5 -3.0 16.5 -3.05 16.5 M349.75 38.5 L157.05 38.5 Q158.15 51.1 158.45 95.55 L158.5 157.75 158.3 260.5 347.3 260.5 347.35 250.0 347.35 158.5 Q347.35 74.55 349.75 38.5 M411.45 284.5 L468.15 382.75 Q470.85 382.5 496.85 382.5 501.35 382.5 512.5 382.85 L522.65 383.25 465.65 284.5 411.45 284.5 M347.1 265.5 L158.3 265.5 158.25 279.5 349.4 279.5 Q347.05 274.3 347.05 265.75 L347.1 265.5 M380.1 334.2 L380.2 334.3 380.85 333.75 Q381.85 333.5 408.35 333.5 427.4 333.5 434.3 334.2 L405.65 284.5 351.45 284.5 380.1 334.2 M403.75 385.25 L345.65 284.5 291.45 284.5 349.3 384.75 377.35 384.5 Q382.0 384.5 393.75 384.85 L403.75 385.25 M499.45 333.0 L499.5 333.1 499.85 332.75 Q500.85 332.5 523.35 332.5 537.25 332.5 543.65 333.0 L515.65 284.5 471.45 284.5 499.45 333.0 M175.25 180.25 Q175.5 180.4 175.5 181.85 L175.25 183.75 Q174.5 184.5 172.0 184.5 170.0 184.5 168.75 183.25 168.5 184.25 168.5 181.75 168.5 180.2 169.9 179.8 L172.0 179.5 175.0 180.0 175.25 180.25 M135.75 184.25 Q135.5 185.25 135.5 182.75 135.5 181.2 136.9 180.8 L139.0 180.5 142.0 181.0 142.25 181.25 Q142.5 181.4 142.5 182.85 L142.25 184.75 Q141.5 185.5 139.0 185.5 137.0 185.5 135.75 184.25 M142.0 334.75 Q143.0 334.5 169.5 334.5 187.8 334.5 194.85 335.15 L165.65 284.5 111.45 284.5 140.95 335.65 142.0 334.75 M82.05 337.5 L82.1 337.6 82.25 337.35 Q82.45 337.3 82.5 338.3 L109.3 384.75 Q112.05 384.5 138.0 384.5 142.5 384.5 153.65 384.85 L163.8 385.25 105.65 284.5 51.45 284.5 82.05 337.5 M230.0 384.75 Q231.0 384.5 258.5 384.5 262.95 384.5 273.9 384.85 L283.8 385.25 225.65 284.5 171.45 284.5 229.5 385.05 229.55 385.15 230.0 384.75 M314.85 335.15 L285.65 284.5 231.45 284.5 260.95 335.65 262.0 334.75 Q263.0 334.5 289.5 334.5 307.8 334.5 314.85 335.15" fill="#000000" fill-rule="evenodd" stroke="none"/>
      <path d="M551.45 11.85 L551.5 13.85 551.35 13.85 Q551.35 12.3 550.55 11.95 L551.45 11.85 M552.0 33.5 L552.0 33.55 551.85 33.5 552.0 33.5 M-4.0 288.1 L-4.45 284.65 -4.75 279.6 -4.0 279.5 -4.0 284.5 -4.0 288.1 M-3.0 16.5 L-3.05 16.5 -3.0 16.5" fill="#9ee0b1" fill-rule="evenodd" stroke="none"/>
      <path d="M551.5 13.85 L552.0 33.5 551.85 33.5 -3.0 33.5 Q-3.0 33.65 -3.65 34.05 L-3.05 16.5 -3.0 16.5 548.85 16.5 550.5 16.0 Q551.35 15.45 551.35 13.85 L551.5 13.85 M552.25 265.5 L552.2 279.5 351.95 279.5 352.35 279.25 352.35 265.5 552.25 265.5 M-4.75 279.5 L-4.8 277.4 -4.45 264.7 Q-3.9 265.2 -3.0 265.5 L153.2 265.5 153.1 266.95 Q153.1 274.1 154.85 279.5 L-4.0 279.5 -4.75 279.5 M347.1 265.5 L347.05 265.75 Q347.05 274.3 349.4 279.5 L158.25 279.5 158.3 265.5 347.1 265.5" fill="#d6e9c9" fill-rule="evenodd" stroke="none"/>
      <path d="M-4.75 279.6 L-4.75 279.5 -4.0 279.5 -4.75 279.6" fill="#acd293" fill-rule="evenodd" stroke="none"/>
      <path d="M554.35 284.5 Q556.0 295.95 555.35 340.25 L555.1 399.5 554.2 400.0 Q554.0 400.7 553.5 401.0 L551.85 401.5 539.0 401.5 500.95 335.6 543.8 337.0 545.9 336.95 554.95 352.65 554.95 342.6 550.3 334.55 550.3 334.5 521.45 284.5 554.35 284.5 M533.2 401.5 L479.0 401.5 469.8 385.6 522.05 387.0 524.8 386.95 533.2 401.5 M473.2 401.5 L419.0 401.5 381.5 336.6 432.25 338.0 436.4 337.8 473.2 401.5 M413.2 401.5 L359.0 401.5 351.0 387.65 403.85 389.0 405.95 389.0 413.2 401.5 M353.2 401.5 L299.0 401.5 262.05 337.55 313.4 339.0 317.0 338.85 353.2 401.5 M293.2 401.5 L239.0 401.5 230.95 387.6 283.3 389.0 285.95 388.95 293.2 401.5 M233.2 401.5 L179.0 401.5 142.05 337.55 193.4 339.0 197.0 338.85 233.2 401.5 M173.2 401.5 L119.0 401.5 110.95 387.6 163.2 389.0 165.95 388.95 173.2 401.5 M113.2 401.5 L59.0 401.5 23.25 339.6 77.05 341.0 78.25 341.0 113.2 401.5 M53.2 401.5 L-4.0 401.5 -4.0 387.85 42.0 389.0 45.9 388.85 50.3 396.5 53.2 401.5 M-4.0 384.65 L-4.0 302.45 43.85 385.35 31.9 384.85 Q20.15 384.5 15.5 384.5 L-4.0 384.65 M-4.0 292.45 L-4.0 288.1 -4.0 284.5 45.65 284.5 76.05 337.2 67.15 336.85 Q55.6 336.5 51.0 336.5 25.2 336.5 21.55 336.7 L-4.0 292.45 M411.45 284.5 L465.65 284.5 522.65 383.25 512.5 382.85 Q501.35 382.5 496.85 382.5 470.85 382.5 468.15 382.75 L411.45 284.5 M380.85 333.75 L380.1 334.2 351.45 284.5 405.65 284.5 434.3 334.2 Q427.4 333.5 408.35 333.5 381.85 333.5 380.85 333.75 M403.75 385.25 L393.75 384.85 Q382.0 384.5 377.35 384.5 L349.3 384.75 291.45 284.5 345.65 284.5 403.75 385.25 M499.45 333.0 L471.45 284.5 515.65 284.5 543.65 333.0 Q537.25 332.5 523.35 332.5 500.85 332.5 499.85 332.75 L499.45 333.0 M142.0 334.75 L140.95 335.65 111.45 284.5 165.65 284.5 194.85 335.15 Q187.8 334.5 169.5 334.5 143.0 334.5 142.0 334.75 M82.05 337.5 L51.45 284.5 105.65 284.5 163.8 385.25 153.65 384.85 Q142.5 384.5 138.0 384.5 112.05 384.5 109.3 384.75 L82.5 338.3 Q82.45 337.3 82.25 337.35 L82.05 337.5 M229.5 385.05 L171.45 284.5 225.65 284.5 283.8 385.25 273.9 384.85 Q262.95 384.5 258.5 384.5 231.0 384.5 230.0 384.75 L229.5 385.05 M314.85 335.15 Q307.8 334.5 289.5 334.5 263.0 334.5 262.0 334.75 L260.95 335.65 231.45 284.5 285.65 284.5 314.85 335.15" fill="#947d27" fill-rule="evenodd" stroke="none"/>
      <path d="M525.65 35.7 L525.95 36.4 525.95 210.05 525.65 210.75 524.95 211.05 369.9 211.05 Q369.5 211.05 369.2 210.75 L368.9 210.05 368.9 36.4 Q368.9 36.0 369.2 35.7 369.5 35.4 369.9 35.4 L524.95 35.4 Q525.35 35.4 525.65 35.7 M522.95 187.4 L522.95 71.15 522.95 65.65 522.95 38.4 371.9 38.4 371.9 70.6 371.9 77.65 371.9 185.2 371.9 191.15 371.9 208.05 522.95 208.05 522.95 191.45 522.95 187.4" fill="#1b360e" fill-rule="evenodd" stroke="none"/>
      <path d="M500.0 144.5 L501.5 144.0 Q504.7 132.6 510.75 101.8 515.4 78.05 516.3 71.45 L518.5 71.5 522.95 71.15 522.95 187.4 520.2 186.95 Q514.5 185.7 505.85 180.4 L504.35 179.5 Q506.5 179.4 506.5 178.25 L499.9 144.55 500.0 144.5 M371.9 77.65 Q376.85 80.5 385.0 80.5 L392.0 79.9 Q391.5 82.15 391.5 85.85 391.5 106.45 409.35 183.55 L406.25 182.75 Q398.45 180.5 392.0 180.5 381.35 180.5 371.9 185.2 L371.9 77.65 M491.5 125.4 L491.95 128.2 Q499.3 173.05 503.0 178.7 L491.95 172.45 490.65 171.8 Q481.05 167.5 471.0 167.5 459.4 167.5 442.4 176.25 440.0 177.5 438.1 178.5 441.05 163.2 443.3 128.6 445.5 94.15 445.5 77.5 445.8 74.7 445.6 72.85 452.3 74.5 458.0 74.5 466.3 74.5 482.35 68.65 L483.55 68.25 483.5 71.0 491.5 125.4 M476.5 113.85 Q476.5 105.5 466.0 105.5 463.05 105.5 461.5 110.75 460.5 114.2 460.5 117.1 L460.3 118.6 Q460.15 120.15 460.55 121.45 461.7 125.5 467.5 125.5 476.5 125.5 476.5 113.85" fill="#6f5f22" fill-rule="evenodd" stroke="none"/>
      <path d="M522.95 71.15 L518.5 71.5 516.3 71.45 Q515.4 78.05 510.75 101.8 504.7 132.6 501.5 144.0 L500.0 144.5 499.9 144.45 499.9 144.55 506.5 178.25 Q506.5 179.4 504.35 179.5 L505.85 180.4 Q514.5 185.7 520.2 186.95 L522.95 187.4 522.95 191.45 Q516.75 191.0 511.15 188.6 507.5 187.05 499.95 182.25 495.5 179.45 491.95 177.7 L487.95 175.9 Q480.35 173.0 471.35 173.0 462.0 173.0 443.6 181.75 L436.5 185.1 436.0 186.5 434.65 185.95 430.6 187.75 Q423.9 190.5 420.0 190.5 412.15 190.5 404.35 188.25 396.5 186.0 391.85 186.0 379.75 186.0 371.9 191.15 L371.9 185.2 Q381.35 180.5 392.0 180.5 398.45 180.5 406.25 182.75 L409.35 183.55 Q391.5 106.45 391.5 85.85 391.5 82.15 392.0 79.9 L385.0 80.5 Q376.85 80.5 371.9 77.65 L371.9 70.6 Q376.85 75.0 385.35 75.0 395.9 75.0 409.15 67.25 L417.85 61.9 Q421.9 59.5 423.5 59.5 424.7 59.5 428.1 61.0 L435.6 64.25 Q447.35 69.0 458.0 69.0 468.15 69.0 481.75 63.25 L490.65 59.3 491.95 58.75 Q495.1 57.5 496.5 57.5 500.3 57.5 506.15 61.75 512.0 66.0 518.0 66.0 L522.95 65.65 522.95 71.15 M488.5 71.75 Q488.5 78.95 491.95 100.3 494.3 114.9 498.3 136.15 501.0 123.3 513.0 71.0 507.9 70.0 504.0 67.15 499.55 62.75 498.25 62.75 L491.95 65.1 489.15 66.15 Q489.25 68.3 488.5 71.75 M491.5 125.4 L483.5 71.0 483.55 68.25 482.35 68.65 Q466.3 74.5 458.0 74.5 452.3 74.5 445.6 72.85 445.8 74.7 445.5 77.5 445.5 94.15 443.3 128.6 441.05 163.2 438.1 178.5 440.0 177.5 442.4 176.25 459.4 167.5 471.0 167.5 481.05 167.5 490.65 171.8 L491.95 172.45 503.0 178.7 Q499.3 173.05 491.95 128.2 L491.5 125.4 M423.85 65.0 Q421.75 65.0 417.9 67.4 L409.85 72.75 Q402.5 77.35 395.15 79.25 396.75 83.7 397.4 89.6 L398.5 103.25 400.5 115.95 Q402.0 124.85 402.5 129.5 402.95 134.05 407.8 157.5 412.5 180.1 412.5 181.6 L412.45 184.25 420.35 185.0 Q424.35 185.0 430.5 182.25 L433.6 180.75 Q434.05 169.8 437.5 124.5 440.8 81.15 442.35 72.0 L435.7 69.75 Q424.8 65.0 423.85 65.0" fill="#222222" fill-rule="evenodd" stroke="none"/>
      <path d="M522.95 65.65 L518.0 66.0 Q512.0 66.0 506.15 61.75 500.3 57.5 496.5 57.5 495.1 57.5 491.95 58.75 L490.65 59.3 481.75 63.25 Q468.15 69.0 458.0 69.0 447.35 69.0 435.6 64.25 L428.1 61.0 Q424.7 59.5 423.5 59.5 421.9 59.5 417.85 61.9 L409.15 67.25 Q395.9 75.0 385.35 75.0 376.85 75.0 371.9 70.6 L371.9 38.4 522.95 38.4 522.95 65.65" fill="#479724" fill-rule="evenodd" stroke="none"/>
      <path d="M488.5 71.75 Q489.25 68.3 489.15 66.15 L491.95 65.1 498.25 62.75 Q499.55 62.75 504.0 67.15 507.9 70.0 513.0 71.0 501.0 123.3 498.3 136.15 494.3 114.9 491.95 100.3 488.5 78.95 488.5 71.75 M423.85 65.0 Q424.8 65.0 435.7 69.75 L442.35 72.0 Q440.8 81.15 437.5 124.5 434.05 169.8 433.6 180.75 L430.5 182.25 Q424.35 185.0 420.35 185.0 L412.45 184.25 412.5 181.6 Q412.5 180.1 407.8 157.5 402.95 134.05 402.5 129.5 402.0 124.85 400.5 115.95 L398.5 103.25 397.4 89.6 Q396.75 83.7 395.15 79.25 402.5 77.35 409.85 72.75 L417.9 67.4 Q421.75 65.0 423.85 65.0" fill="#5b4e1c" fill-rule="evenodd" stroke="none"/>
      <path d="M500.0 144.5 L499.9 144.55 499.9 144.45 500.0 144.5" fill="#857536" fill-rule="evenodd" stroke="none"/>
      <path d="M371.9 191.15 Q379.75 186.0 391.85 186.0 396.5 186.0 404.35 188.25 412.15 190.5 420.0 190.5 423.9 190.5 430.6 187.75 L434.65 185.95 436.0 186.5 436.5 185.1 443.6 181.75 Q462.0 173.0 471.35 173.0 480.35 173.0 487.95 175.9 L491.95 177.7 Q495.5 179.45 499.95 182.25 507.5 187.05 511.15 188.6 516.75 191.0 522.95 191.45 L522.95 208.05 371.9 208.05 371.9 191.15" fill="#4ea428" fill-rule="evenodd" stroke="none"/>
      <path d="M476.5 113.85 Q476.5 125.5 467.5 125.5 461.7 125.5 460.55 121.45 460.15 120.15 460.3 118.6 L460.5 117.1 Q460.5 114.2 461.5 110.75 463.05 105.5 466.0 105.5 476.5 105.5 476.5 113.85 M470.35 112.4 Q468.85 110.95 466.5 112.0 466.5 113.5 465.5 115.0 L465.5 119.5 465.4 119.9 Q465.25 120.25 466.75 120.25 469.15 120.25 470.55 117.8 471.5 116.05 471.5 114.75 471.5 113.5 470.35 112.4" fill="#000000" fill-rule="evenodd" stroke="none"/>
      <path d="M512.85 44.1 L512.85 44.25 457.95 45.05 454.35 45.1 451.15 45.1 450.75 45.1 450.25 45.1 449.55 45.1 449.15 45.1 449.15 45.05 444.3 45.1 443.8 45.1 443.1 45.1 442.7 45.1 382.6 44.25 382.6 44.1 378.1 44.0 Q378.25 46.7 378.0 53.75 L382.6 53.7 441.9 53.55 442.7 53.55 443.1 53.55 444.3 53.55 445.5 53.55 449.15 53.55 449.5 53.55 451.15 53.55 451.95 53.55 453.1 53.55 453.55 53.55 456.35 53.55 457.95 53.55 512.85 53.7 517.45 53.75 Q517.0 46.85 517.1 44.0 L512.85 44.1 M512.85 41.65 L512.85 41.7 519.85 41.7 520.05 41.5 521.4 41.55 522.05 82.0 522.05 124.35 522.05 165.55 Q521.95 172.05 522.4 186.5 L522.45 187.4 522.45 202.2 Q521.85 205.3 520.45 206.0 L518.25 205.8 512.85 205.95 512.85 206.1 501.65 206.3 501.1 206.3 498.0 206.35 464.7 206.8 457.95 206.9 454.35 206.95 451.15 206.95 450.75 206.95 450.2 206.95 449.55 206.95 449.15 206.95 449.15 206.9 444.3 206.95 443.8 206.95 443.1 206.95 442.7 206.95 430.8 206.8 397.45 206.35 394.35 206.3 393.8 206.3 382.6 206.1 382.6 205.95 377.2 205.8 375.0 206.0 Q373.6 205.3 373.0 202.2 L373.0 187.4 373.1 186.5 373.4 165.55 373.4 124.35 Q373.2 102.35 373.4 82.0 L373.5 41.7 374.6 41.7 375.15 41.7 375.4 41.5 375.6 41.7 382.6 41.7 382.6 41.65 439.5 41.5 442.7 41.55 443.1 41.55 444.3 41.55 447.95 41.5 449.95 41.5 449.95 41.55 450.75 41.55 451.15 41.55 452.35 41.55 454.35 41.5 455.95 41.5 456.35 41.5 457.95 41.5 512.85 41.65 M521.0 41.85 L521.0 41.7 520.85 41.7 521.0 41.85 M517.4 56.0 L512.85 56.1 512.85 56.25 495.35 56.55 495.55 63.55 495.75 98.9 495.7 110.5 500.0 110.45 517.95 110.55 517.45 71.55 517.4 56.0 M506.85 116.55 L506.85 124.85 502.0 125.0 Q502.5 128.0 502.4 132.9 L502.4 133.25 509.65 132.85 514.75 133.25 518.05 133.75 518.05 124.25 517.95 112.95 507.05 113.3 Q506.7 113.1 506.85 116.55 M518.05 136.7 L509.65 136.9 502.3 136.75 502.0 146.9 501.8 195.0 501.7 203.5 512.85 203.55 518.25 203.6 518.05 136.7 M449.15 57.1 L449.15 57.05 444.3 57.1 443.7 57.1 443.1 57.1 442.7 57.1 403.45 56.6 Q403.75 59.05 403.85 65.75 L403.95 73.65 423.1 73.55 Q437.25 73.55 442.7 74.1 L443.7 74.2 449.95 73.75 449.95 74.15 450.15 74.2 450.75 74.15 450.75 74.1 450.9 74.1 456.35 73.75 456.35 73.85 457.95 73.75 472.35 73.55 491.5 73.65 491.6 65.75 Q491.7 59.05 492.0 56.6 L457.95 57.05 452.35 57.1 451.75 57.1 451.15 57.1 450.75 57.1 450.15 57.1 449.55 57.1 449.15 57.1 M431.55 76.95 L403.95 76.05 403.95 86.4 403.85 97.6 405.55 97.6 Q413.7 97.6 415.45 98.4 416.15 98.4 416.65 98.95 417.9 100.35 417.45 105.4 L417.25 112.05 416.65 112.35 415.85 112.7 415.75 113.6 412.15 114.05 403.75 113.8 403.65 122.45 411.85 122.45 Q425.2 122.45 431.1 122.85 L431.1 121.85 431.1 109.05 431.1 103.95 431.1 99.8 Q430.9 90.85 431.0 85.3 431.05 79.75 431.55 76.95 M434.95 80.5 L435.35 86.1 435.1 98.2 Q435.4 106.0 435.1 121.95 L435.1 124.35 435.1 124.65 435.1 127.8 434.9 166.55 436.95 166.55 442.7 166.55 443.7 166.65 447.15 166.55 449.15 166.65 449.15 166.55 450.15 166.65 450.75 166.6 450.75 166.55 450.95 166.6 453.55 166.55 454.05 166.55 456.2 166.55 460.55 166.6 460.35 128.2 460.35 124.65 460.35 124.35 460.35 121.95 Q460.05 106.0 460.35 98.2 L460.1 86.1 Q460.1 83.0 460.5 80.5 L460.55 79.3 460.65 77.05 457.95 77.1 453.95 77.15 453.6 77.15 453.3 77.15 452.35 77.15 450.75 77.15 450.15 77.1 449.15 77.15 445.9 77.15 443.7 77.1 442.7 77.15 441.5 77.15 434.8 77.05 434.9 79.3 434.95 80.5 M378.05 56.0 L378.0 71.55 377.5 110.55 395.45 110.45 399.75 110.5 399.7 98.9 Q399.65 78.25 399.9 63.55 L400.1 56.55 382.6 56.25 382.6 56.1 378.05 56.0 M463.9 76.95 Q464.4 79.75 464.45 85.3 L464.35 99.8 464.35 103.95 464.35 109.05 464.35 121.85 464.35 122.85 Q470.25 122.45 483.6 122.45 L491.8 122.45 491.7 113.8 483.3 114.05 479.7 113.6 479.6 112.7 478.2 112.05 Q477.95 109.6 478.0 105.4 477.35 98.4 480.0 98.4 481.4 97.6 487.1 97.6 L491.6 97.7 491.5 86.4 491.5 76.05 463.9 76.95 M413.5 101.55 L409.05 101.6 403.8 101.35 403.75 110.65 405.95 110.7 413.5 111.1 413.45 108.75 413.5 101.55 M388.4 113.3 L377.5 112.95 377.4 124.25 377.4 133.75 380.7 133.25 385.8 132.85 393.05 133.25 393.05 132.9 Q392.9 128.0 393.45 125.0 L388.6 124.85 388.6 126.45 388.6 116.55 Q388.75 113.1 388.4 113.3 M391.85 113.45 L391.85 122.55 395.4 122.5 395.45 122.45 395.6 122.5 399.75 122.45 399.75 113.7 391.85 113.45 M397.45 125.15 L397.45 125.3 402.8 125.3 397.45 125.15 M385.8 136.9 L377.4 136.7 377.2 203.6 382.6 203.55 393.75 203.5 393.65 195.0 393.45 146.9 393.15 136.75 385.8 136.9 M498.0 125.75 L489.2 126.1 Q475.55 126.5 470.0 126.3 L464.35 126.05 464.35 145.9 Q464.25 149.4 464.7 157.85 L464.7 203.4 498.0 203.5 498.0 125.75 M498.0 125.15 Q496.45 125.15 498.0 125.35 L498.0 125.15 M503.65 113.45 L495.7 113.7 495.7 122.45 499.9 122.5 500.0 122.45 500.1 122.5 503.65 122.55 503.65 113.45 M491.65 101.35 L486.4 101.6 481.95 101.55 482.0 109.95 482.0 111.1 489.5 110.7 491.7 110.65 491.65 101.35 M431.0 126.05 L397.45 125.35 397.45 203.5 430.8 203.4 430.8 157.85 431.1 145.9 431.1 126.05 431.0 126.05 M449.95 170.5 L449.15 170.55 447.15 170.55 443.7 170.5 442.7 170.55 440.3 170.55 434.8 170.4 435.15 175.75 435.1 185.95 434.95 203.4 441.9 203.4 442.7 203.4 443.1 203.4 444.3 203.4 445.5 203.4 449.15 203.4 449.5 203.4 451.15 203.4 451.95 203.4 453.1 203.4 453.55 203.4 456.35 203.4 457.95 203.4 460.5 203.4 460.35 185.95 Q460.15 180.75 460.3 175.75 460.4 172.55 460.65 170.4 L457.95 170.5 455.45 170.55 452.6 170.55 451.1 170.55 450.75 170.55 450.15 170.5 449.95 170.5 M498.9 203.5 Q498.4 202.3 498.1 203.2 L498.1 203.5 498.9 203.5 M396.55 203.5 L397.35 203.5 397.35 203.2 Q397.0 202.3 396.55 203.5 M366.3 213.45 L366.3 33.25 529.65 33.25 529.65 213.45 366.3 213.45 M524.95 210.05 L524.95 36.4 369.9 36.4 369.9 210.05 524.95 210.05" fill="#000000" fill-rule="evenodd" stroke="none"/>
      <path d="M512.85 41.65 L457.95 41.5 456.35 41.5 455.95 41.5 454.35 41.5 452.35 41.55 451.15 41.55 450.75 41.55 449.95 41.55 449.95 41.5 447.95 41.5 444.3 41.55 443.1 41.55 442.7 41.55 439.5 41.5 382.6 41.65 382.6 41.7 375.6 41.7 375.4 41.5 375.15 41.7 374.6 41.7 373.5 41.7 373.4 82.0 Q373.2 102.35 373.4 124.35 L373.4 165.55 373.1 186.5 373.0 187.4 373.0 202.2 Q373.6 205.3 375.0 206.0 L377.2 205.8 382.6 205.95 382.6 206.1 393.8 206.3 394.35 206.3 397.45 206.35 430.8 206.8 442.7 206.95 443.1 206.95 443.8 206.95 444.3 206.95 449.15 206.9 449.15 206.95 449.55 206.95 450.2 206.95 450.75 206.95 451.15 206.95 454.35 206.95 457.95 206.9 464.7 206.8 498.0 206.35 501.1 206.3 501.65 206.3 512.85 206.1 512.85 205.95 518.25 205.8 520.45 206.0 Q521.85 205.3 522.45 202.2 L522.45 187.4 522.4 186.5 Q521.95 172.05 522.05 165.55 L522.05 124.35 522.05 82.0 521.4 41.55 520.05 41.5 519.85 41.7 512.85 41.7 512.85 41.65 M524.95 210.05 L369.9 210.05 369.9 36.4 524.95 36.4 524.95 210.05" fill="#b79562" fill-rule="evenodd" stroke="none"/>
      <path d="M289.9 53.5 Q292.5 54.5 293.75 54.5 296.05 54.5 297.3 53.7 L299.25 52.0 Q301.95 49.5 309.5 49.5 329.65 49.5 345.0 60.25 350.7 64.3 354.3 68.85 357.5 72.9 357.5 75.25 357.5 78.65 355.5 85.75 L355.3 86.5 Q373.05 86.7 381.5 115.1 381.5 119.1 377.8 123.4 375.6 126.0 369.25 131.25 373.35 131.95 376.25 138.6 378.5 143.7 378.5 146.85 378.5 152.65 370.95 158.15 367.9 160.4 358.0 165.5 356.5 166.3 354.2 169.55 L349.65 176.0 Q342.9 184.5 334.5 184.5 332.55 184.5 331.0 183.35 L334.0 203.75 Q334.4 207.55 340.65 239.65 L343.8 256.2 347.6 256.6 Q354.1 258.0 366.25 264.4 372.3 267.0 372.9 269.5 373.5 272.0 373.8 276.2 373.65 280.55 371.5 283.75 370.3 285.55 368.5 287.0 L368.5 287.75 Q366.65 303.7 363.2 306.4 360.8 311.5 341.5 311.5 330.65 311.5 326.55 308.4 325.2 307.4 324.75 306.15 L324.5 305.0 324.55 304.05 Q322.3 301.85 319.65 289.55 316.55 287.7 315.0 285.0 313.35 282.15 313.3 278.15 L313.5 273.5 313.5 273.1 314.6 269.5 Q315.8 265.85 322.05 261.55 328.25 257.25 329.35 258.15 L328.05 248.75 Q322.8 214.75 320.5 204.25 318.25 193.7 316.05 181.55 L315.5 182.0 Q312.2 184.5 306.5 184.5 294.1 184.5 293.5 174.0 284.6 170.45 272.85 166.8 260.5 162.95 257.8 161.9 251.35 159.45 248.6 156.45 245.5 153.1 245.5 147.5 245.5 138.1 252.0 124.4 258.5 112.45 258.5 111.5 258.5 110.65 254.0 103.9 249.5 97.15 249.5 91.6 249.5 89.1 251.35 83.5 253.75 76.35 257.55 70.25 268.6 52.5 286.0 52.5 287.25 52.5 289.9 53.5 M324.0 124.5 Q326.75 124.5 325.5 132.85 325.5 136.85 326.1 143.7 328.45 140.1 332.4 135.1 340.7 124.45 343.0 122.5 L343.7 122.75 344.0 122.5 Q345.7 123.55 346.0 123.95 346.5 124.6 346.5 126.35 346.5 128.85 345.5 134.25 L345.2 134.45 Q345.5 134.9 345.5 135.85 L335.6 151.95 Q328.6 163.0 328.95 164.1 L328.4 164.35 330.05 176.5 Q331.25 176.5 332.5 177.75 333.75 179.0 335.0 179.0 341.35 179.0 345.0 172.75 347.5 168.5 347.5 165.5 347.5 163.9 351.5 161.95 353.95 160.8 360.4 158.25 373.25 152.85 373.25 147.0 373.25 143.05 366.9 138.6 360.5 134.15 360.5 133.0 360.5 132.55 368.4 124.85 376.25 117.15 376.25 115.0 376.25 113.25 373.9 108.9 371.35 104.05 367.85 100.05 359.9 90.9 352.9 92.4 352.15 93.5 351.5 93.5 L350.4 93.3 350.0 93.5 348.2 92.9 Q347.5 92.4 347.5 90.75 347.5 89.45 349.15 88.35 352.5 77.4 352.5 75.35 352.5 70.0 337.0 62.5 321.4 55.0 309.85 55.0 300.85 55.0 298.7 58.3 298.0 59.4 298.05 60.9 L298.25 62.75 Q298.5 63.5 296.0 63.5 294.4 63.5 291.75 60.75 289.1 58.0 285.5 58.0 271.2 58.0 261.5 73.75 258.35 78.95 256.15 85.0 254.5 89.65 254.5 91.0 254.5 97.3 259.5 103.2 L262.95 107.2 Q264.5 109.25 264.5 110.85 264.5 112.7 262.3 116.85 L257.5 125.45 Q250.5 138.3 250.5 147.25 250.5 150.15 251.4 151.4 252.2 152.5 254.7 153.45 267.4 158.25 272.5 161.0 288.85 169.85 296.8 171.0 298.6 171.25 298.65 171.5 L298.5 174.6 Q298.5 175.5 302.75 179.25 312.1 179.25 313.15 176.55 L313.7 174.35 Q313.95 173.7 314.6 173.2 L314.05 170.15 Q309.5 142.9 309.5 131.1 L309.55 127.0 309.95 125.75 Q309.5 124.5 309.5 123.5 L310.0 123.0 Q310.5 122.5 312.0 122.5 313.55 122.5 314.55 123.55 L315.75 125.0 Q317.45 124.45 318.8 122.9 320.0 121.5 320.5 121.5 322.1 121.5 322.75 122.2 L323.5 123.5 323.25 124.2 323.1 124.6 324.0 124.5 M339.5 276.0 L342.3 276.0 Q338.75 262.95 330.85 213.8 320.5 149.4 320.5 132.25 L320.5 129.1 Q318.5 131.5 316.0 131.5 314.8 131.5 313.8 130.95 L317.55 154.15 Q323.3 192.4 324.75 200.0 326.05 206.75 333.1 239.95 339.5 270.75 339.5 275.0 L339.5 275.4 339.5 276.0 M327.3 155.1 L341.9 134.3 341.9 134.25 340.8 132.2 327.0 152.45 327.3 155.1 M319.75 273.9 L319.8 274.1 319.85 274.25 322.5 274.55 323.25 273.5 Q323.95 272.5 326.7 270.6 329.5 268.7 332.05 268.05 L331.1 264.3 Q324.4 264.35 319.55 272.5 L319.75 273.9 M366.0 277.25 Q357.2 281.5 339.0 281.5 326.75 281.5 320.55 280.1 322.6 288.0 339.85 288.0 368.55 288.0 368.45 277.75 L368.1 276.1 366.0 277.25 M366.75 270.25 Q364.35 267.7 356.1 264.45 347.8 261.2 344.85 262.2 L345.8 268.05 348.25 268.0 Q354.85 268.3 358.2 270.1 361.55 271.9 362.35 272.9 364.9 271.9 366.0 270.75 L366.75 270.25 M362.55 292.45 L363.35 290.0 Q354.95 293.5 340.0 293.5 331.8 293.5 326.15 292.1 L326.25 292.45 Q328.5 298.65 328.5 301.85 L328.35 302.55 Q329.75 302.6 330.1 303.05 L330.55 304.25 Q331.65 306.0 342.0 306.0 353.6 306.0 357.0 304.25 L358.65 303.05 Q359.35 302.5 360.5 302.5 360.65 298.85 362.55 292.45 M346.5 275.8 L354.4 274.5 346.35 272.15 346.5 274.25 346.5 275.8 M333.35 272.5 Q332.15 272.15 331.2 273.3 330.25 274.4 329.8 275.3 L334.7 275.75 Q334.05 274.55 333.35 272.5" fill="#000000" fill-rule="evenodd" stroke="none"/>
      <path d="M323.25 124.2 L323.5 123.5 322.75 122.2 Q322.1 121.5 320.5 121.5 320.0 121.5 318.8 122.9 317.45 124.45 315.75 125.0 L314.55 123.55 Q313.55 122.5 312.0 122.5 310.5 122.5 310.0 123.0 L309.5 123.5 Q309.5 124.5 309.95 125.75 L309.55 127.0 309.5 131.1 Q309.5 142.9 314.05 170.15 L314.6 173.2 Q313.95 173.7 313.7 174.35 L313.15 176.55 Q312.1 179.25 302.75 179.25 298.5 175.5 298.5 174.6 L298.65 171.5 Q298.6 171.25 296.8 171.0 288.85 169.85 272.5 161.0 267.4 158.25 254.7 153.45 252.2 152.5 251.4 151.4 250.5 150.15 250.5 147.25 250.5 138.3 257.5 125.45 L262.3 116.85 Q264.5 112.7 264.5 110.85 264.5 109.25 262.95 107.2 L259.5 103.2 Q254.5 97.3 254.5 91.0 254.5 89.65 256.15 85.0 258.35 78.95 261.5 73.75 271.2 58.0 285.5 58.0 289.1 58.0 291.75 60.75 294.4 63.5 296.0 63.5 298.5 63.5 298.25 62.75 L298.05 60.9 Q298.0 59.4 298.7 58.3 300.85 55.0 309.85 55.0 321.4 55.0 337.0 62.5 352.5 70.0 352.5 75.35 352.5 77.4 349.15 88.35 347.5 89.45 347.5 90.75 347.5 92.4 348.2 92.9 L350.0 93.5 350.4 93.3 351.5 93.5 Q352.15 93.5 352.9 92.4 359.9 90.9 367.85 100.05 371.35 104.05 373.9 108.9 376.25 113.25 376.25 115.0 376.25 117.15 368.4 124.85 360.5 132.55 360.5 133.0 360.5 134.15 366.9 138.6 373.25 143.05 373.25 147.0 373.25 152.85 360.4 158.25 353.95 160.8 351.5 161.95 347.5 163.9 347.5 165.5 347.5 168.5 345.0 172.75 341.35 179.0 335.0 179.0 333.75 179.0 332.5 177.75 331.25 176.5 330.05 176.5 L328.4 164.35 328.95 164.1 Q328.6 163.0 335.6 151.95 L345.5 135.85 Q345.5 134.9 345.2 134.45 L345.5 134.25 Q346.5 128.85 346.5 126.35 346.5 124.6 346.0 123.95 345.7 123.55 344.0 122.5 L343.7 122.75 343.0 122.5 Q340.7 124.45 332.4 135.1 328.45 140.1 326.1 143.7 325.5 136.85 325.5 132.85 326.75 124.5 324.0 124.5 L323.25 124.2" fill="#58b82e" fill-rule="evenodd" stroke="none"/>
      <path d="M339.5 275.4 L339.5 275.0 Q339.5 270.75 333.1 239.95 326.05 206.75 324.75 200.0 323.3 192.4 317.55 154.15 L313.8 130.95 Q314.8 131.5 316.0 131.5 318.5 131.5 320.5 129.1 L320.5 132.25 Q320.5 149.4 330.85 213.8 338.75 262.95 342.3 276.0 L339.5 276.0 339.5 275.4 M327.3 155.1 L327.0 152.45 340.8 132.2 341.9 134.25 341.9 134.3 327.3 155.1 M333.35 272.5 Q334.05 274.55 334.7 275.75 L329.8 275.3 Q330.25 274.4 331.2 273.3 332.15 272.15 333.35 272.5 M346.5 275.8 L346.5 274.25 346.35 272.15 354.4 274.5 346.5 275.8" fill="#6f5f22" fill-rule="evenodd" stroke="none"/>
      <path d="M366.75 270.25 L366.0 270.75 Q364.9 271.9 362.35 272.9 361.55 271.9 358.2 270.1 354.85 268.3 348.25 268.0 L345.8 268.05 344.85 262.2 Q347.8 261.2 356.1 264.45 364.35 267.7 366.75 270.25 M366.0 277.25 L368.1 276.1 368.45 277.75 Q368.55 288.0 339.85 288.0 322.6 288.0 320.55 280.1 326.75 281.5 339.0 281.5 357.2 281.5 366.0 277.25 M319.75 273.9 L319.55 272.5 Q324.4 264.35 331.1 264.3 L332.05 268.05 Q329.5 268.7 326.7 270.6 323.95 272.5 323.25 273.5 L322.5 274.55 319.85 274.25 319.8 274.1 319.75 273.9" fill="#4d0000" fill-rule="evenodd" stroke="none"/>
      <path d="M362.55 292.45 Q360.65 298.85 360.5 302.5 359.35 302.5 358.65 303.05 L357.0 304.25 Q353.6 306.0 342.0 306.0 331.65 306.0 330.55 304.25 L330.1 303.05 Q329.75 302.6 328.35 302.55 L328.5 301.85 Q328.5 298.65 326.25 292.45 L326.15 292.1 Q331.8 293.5 340.0 293.5 354.95 293.5 363.35 290.0 L362.55 292.45" fill="#660000" fill-rule="evenodd" stroke="none"/>
    </g>
  </defs>
</svg>
