<?xml version="1.0" encoding="UTF-8" standalone="no"?>
<svg xmlns:xlink="http://www.w3.org/1999/xlink" height="842.55px" width="1337.95px" xmlns="http://www.w3.org/2000/svg">
  <g transform="matrix(1, 0, 0, 1, 407.45, 285.05)">
    <use height="4.5" transform="matrix(5.4867, 0.0, 0.0, 81.5667, 3.2875, 23.0167)" width="99.75" xlink:href="#shape0"/>
    <use height="405.25" transform="matrix(1.0, 0.0, 0.0, 1.0, -13.25, -3.2)" width="576.5" xlink:href="#shape1"/>
  </g>
  <defs>
    <g id="shape0" transform="matrix(1, 0, 0, 1, 49.85, -2.5)">
      <path d="M49.9 7.0 L-49.85 7.0 -49.85 2.5 49.9 2.5 49.9 7.0" fill="#ffffff" fill-rule="evenodd" stroke="none"/>
    </g>
    <g id="shape1" transform="matrix(1, 0, 0, 1, 13.25, 3.2)">
      <path d="M0.0 30.0 L0.0 0.05 550.0 0.05 550.0 30.0 420.5 30.0 Q388.5 19.4 349.95 15.45 318.05 12.15 275.5 13.0 L275.0 13.0 Q232.45 12.15 200.55 15.45 162.0 19.4 130.0 30.0 L0.0 30.0" fill="#463928" fill-rule="evenodd" stroke="none"/>
      <path d="M465.85 49.15 L481.3 49.15 496.8 49.15 512.25 49.15 512.25 64.6 496.8 64.6 496.8 49.15 496.8 64.6 512.25 64.6 512.25 49.15 496.8 49.15 481.3 49.15 481.3 64.6 496.8 64.6 496.8 80.1 512.25 80.1 512.25 64.6 527.75 64.6 527.75 49.15 512.25 49.15 527.75 49.15 527.75 64.6 512.25 64.6 512.25 80.1 496.8 80.1 496.8 64.6 481.3 64.6 481.3 49.15 465.85 49.15 465.85 64.6 450.35 64.6 450.35 49.15 465.85 49.15 450.35 49.15 434.9 49.15 434.9 64.6 450.35 64.6 450.35 80.1 465.85 80.1 465.85 64.6 481.3 64.6 481.3 80.1 496.8 80.1 481.3 80.1 481.3 64.6 465.85 64.6 465.85 80.1 450.35 80.1 450.35 64.6 434.9 64.6 434.9 49.15 450.35 49.15 450.35 64.6 465.85 64.6 465.85 49.15 M496.8 157.45 L481.3 157.45 481.3 142.0 465.85 142.0 465.85 126.5 481.3 126.5 481.3 111.05 496.8 111.05 496.8 95.55 496.8 80.1 496.8 95.55 512.25 95.55 512.25 80.1 527.75 80.1 527.75 64.6 527.75 80.1 512.25 80.1 512.25 95.55 496.8 95.55 496.8 111.05 481.3 111.05 481.3 126.5 465.85 126.5 465.85 142.0 481.3 142.0 481.3 157.45 496.8 157.45 496.8 142.0 481.3 142.0 481.3 126.5 496.8 126.5 496.8 111.05 512.25 111.05 512.25 95.55 527.75 95.55 527.75 80.1 527.75 95.55 512.25 95.55 512.25 111.05 527.75 111.05 512.25 111.05 512.25 126.5 527.75 126.5 527.75 111.05 527.75 95.55 527.75 111.05 527.75 126.5 512.25 126.5 512.25 111.05 496.8 111.05 496.8 126.5 481.3 126.5 481.3 142.0 496.8 142.0 496.8 157.45 512.25 157.45 512.25 172.95 527.75 172.95 527.75 157.45 527.75 172.95 512.25 172.95 512.25 157.45 496.8 157.45 496.8 172.95 512.25 172.95 512.25 188.4 527.75 188.4 527.75 172.95 527.75 188.4 512.25 188.4 512.25 172.95 496.8 172.95 496.8 157.45 M512.25 188.4 L496.8 188.4 496.8 172.95 496.8 188.4 512.25 188.4 M527.75 142.0 L527.75 157.45 512.25 157.45 512.25 142.0 496.8 142.0 496.8 126.5 512.25 126.5 512.25 142.0 527.75 142.0 527.75 126.5 527.75 142.0 512.25 142.0 512.25 126.5 496.8 126.5 496.8 142.0 512.25 142.0 512.25 157.45 527.75 157.45 527.75 142.0 M420.5 35.0 L420.5 30.0 550.0 30.0 550.0 293.0 518.0 293.0 517.85 293.0 448.0 293.0 447.8 293.0 420.5 293.0 420.5 276.6 420.5 261.15 420.5 245.65 420.5 230.2 420.5 214.7 420.5 202.0 420.5 199.25 420.5 147.0 420.5 120.0 420.5 35.0 M465.85 95.55 L481.3 95.55 481.3 111.05 465.85 111.05 465.85 95.55 450.35 95.55 450.35 111.05 434.9 111.05 434.9 95.55 434.9 80.1 450.35 80.1 450.35 95.55 434.9 95.55 450.35 95.55 450.35 80.1 434.9 80.1 434.9 95.55 434.9 111.05 450.35 111.05 450.35 95.55 465.85 95.55 465.85 80.1 481.3 80.1 481.3 95.55 496.8 95.55 481.3 95.55 481.3 80.1 465.85 80.1 465.85 95.55 465.85 111.05 481.3 111.05 481.3 95.55 465.85 95.55 M434.9 80.1 L434.9 64.6 434.9 80.1 M530.8 199.25 L420.5 199.25 530.8 199.25 M434.9 157.45 L434.9 142.0 434.9 126.5 450.35 126.5 434.9 126.5 434.9 142.0 450.35 142.0 450.35 126.5 450.35 111.05 465.85 111.05 465.85 126.5 450.35 126.5 465.85 126.5 465.85 111.05 450.35 111.05 450.35 126.5 450.35 142.0 434.9 142.0 434.9 157.45 450.35 157.45 450.35 172.95 450.35 188.4 434.9 188.4 434.9 172.95 450.35 172.95 434.9 172.95 434.9 188.4 450.35 188.4 450.35 172.95 450.35 157.45 434.9 157.45 434.9 172.95 434.9 157.45 M450.35 142.0 L450.35 157.45 465.85 157.45 465.85 142.0 450.35 142.0 465.85 142.0 465.85 157.45 481.3 157.45 481.3 172.95 496.8 172.95 481.3 172.95 481.3 157.45 465.85 157.45 465.85 172.95 481.3 172.95 481.3 188.4 496.8 188.4 481.3 188.4 481.3 172.95 465.85 172.95 465.85 157.45 450.35 157.45 450.35 142.0 M465.85 172.95 L450.35 172.95 465.85 172.95 465.85 188.4 481.3 188.4 465.85 188.4 465.85 172.95 M465.85 188.4 L450.35 188.4 465.85 188.4 M434.9 126.5 L434.9 111.05 434.9 126.5 M130.0 30.0 L130.0 35.0 130.0 40.6 130.0 44.0 130.0 112.0 130.0 120.0 130.0 147.0 130.0 199.25 130.0 202.0 130.0 214.7 130.0 230.2 130.0 245.65 130.0 261.15 130.0 276.6 130.0 293.0 102.75 293.0 102.55 293.0 32.7 293.0 32.55 293.0 0.0 293.0 0.0 30.0 130.0 30.0 M530.8 214.7 L420.5 214.7 530.8 214.7 M530.8 230.2 L420.5 230.2 530.8 230.2 M530.8 261.15 L420.5 261.15 530.8 261.15 M530.8 276.6 L420.5 276.6 530.8 276.6 M530.8 245.65 L420.5 245.65 530.8 245.65 M95.5 49.15 L84.7 49.15 69.2 49.15 53.75 49.15 38.25 49.15 22.8 49.15 22.8 64.6 22.8 80.1 22.8 95.55 22.8 111.05 22.8 126.5 22.8 142.0 22.8 157.45 22.8 172.95 22.8 188.4 38.25 188.4 53.75 188.4 69.2 188.4 84.7 188.4 100.15 188.4 115.65 188.4 115.65 172.95 115.65 157.45 115.65 142.0 115.65 126.5 115.65 111.05 115.65 95.55 115.65 80.1 115.65 64.6 115.65 49.15 100.15 49.15 115.65 49.15 115.65 64.6 115.65 80.1 115.65 95.55 115.65 111.05 115.65 126.5 115.65 142.0 115.65 157.45 115.65 172.95 115.65 188.4 100.15 188.4 84.7 188.4 69.2 188.4 53.75 188.4 38.25 188.4 22.8 188.4 22.8 172.95 22.8 157.45 22.8 142.0 22.8 126.5 22.8 111.05 22.8 95.55 22.8 80.1 22.8 64.6 22.8 49.15 38.25 49.15 53.75 49.15 69.2 49.15 84.7 49.15 95.5 49.15 100.15 50.8 100.15 49.15 95.5 49.15 M115.65 111.05 L100.15 111.05 100.15 95.55 115.65 95.55 100.15 95.55 100.15 111.05 115.65 111.05 M84.7 64.6 L84.7 80.1 69.2 80.1 69.2 64.6 84.7 64.6 84.7 49.15 84.7 64.6 100.15 64.6 100.15 80.1 115.65 80.1 100.15 80.1 100.15 64.6 84.7 64.6 69.2 64.6 69.2 80.1 84.7 80.1 84.7 64.6 M100.15 80.1 L100.15 95.55 84.7 95.55 84.7 80.1 100.15 80.1 84.7 80.1 84.7 95.55 100.15 95.55 100.15 80.1 M115.65 64.6 L100.15 64.6 100.15 50.8 100.15 64.6 115.65 64.6 M53.75 111.05 L38.25 111.05 38.25 95.55 22.8 95.55 38.25 95.55 38.25 80.1 22.8 80.1 38.25 80.1 38.25 95.55 53.75 95.55 53.75 111.05 69.2 111.05 69.2 126.5 84.7 126.5 84.7 142.0 100.15 142.0 100.15 157.45 115.65 157.45 100.15 157.45 100.15 142.0 84.7 142.0 84.7 126.5 69.2 126.5 69.2 111.05 53.75 111.05 53.75 95.55 38.25 95.55 38.25 111.05 53.75 111.05 53.75 126.5 69.2 126.5 69.2 142.0 84.7 142.0 84.7 157.45 100.15 157.45 100.15 172.95 115.65 172.95 100.15 172.95 100.15 157.45 84.7 157.45 84.7 142.0 69.2 142.0 69.2 126.5 53.75 126.5 53.75 111.05 M38.25 172.95 L53.75 172.95 53.75 157.45 38.25 157.45 38.25 172.95 38.25 188.4 38.25 172.95 22.8 172.95 38.25 172.95 38.25 157.45 53.75 157.45 53.75 172.95 69.2 172.95 69.2 157.45 84.7 157.45 84.7 172.95 100.15 172.95 100.15 188.4 100.15 172.95 84.7 172.95 84.7 157.45 69.2 157.45 69.2 172.95 53.75 172.95 53.75 188.4 53.75 172.95 38.25 172.95 M84.7 188.4 L84.7 172.95 69.2 172.95 69.2 188.4 69.2 172.95 84.7 172.95 84.7 188.4 M22.8 142.0 L38.25 142.0 38.25 157.45 22.8 157.45 38.25 157.45 38.25 142.0 22.8 142.0 M22.8 111.05 L38.25 111.05 38.25 126.5 22.8 126.5 38.25 126.5 38.25 111.05 22.8 111.05 M53.75 142.0 L69.2 142.0 69.2 157.45 53.75 157.45 53.75 142.0 38.25 142.0 38.25 126.5 53.75 126.5 53.75 142.0 53.75 126.5 38.25 126.5 38.25 142.0 53.75 142.0 53.75 157.45 69.2 157.45 69.2 142.0 53.75 142.0 M69.2 64.6 L69.2 49.15 69.2 64.6 53.75 64.6 53.75 80.1 69.2 80.1 69.2 95.55 84.7 95.55 84.7 111.05 100.15 111.05 100.15 126.5 115.65 126.5 100.15 126.5 100.15 111.05 84.7 111.05 84.7 95.55 69.2 95.55 69.2 80.1 53.75 80.1 53.75 64.6 69.2 64.6 M53.75 49.15 L53.75 64.6 38.25 64.6 38.25 49.15 38.25 64.6 53.75 64.6 53.75 49.15 M38.25 80.1 L53.75 80.1 53.75 95.55 69.2 95.55 69.2 111.05 84.7 111.05 84.7 126.5 100.15 126.5 100.15 142.0 115.65 142.0 100.15 142.0 100.15 126.5 84.7 126.5 84.7 111.05 69.2 111.05 69.2 95.55 53.75 95.55 53.75 80.1 38.25 80.1 38.25 64.6 22.8 64.6 38.25 64.6 38.25 80.1 M19.7 276.6 L130.0 276.6 19.7 276.6 M19.7 214.7 L130.0 214.7 19.7 214.7 M19.7 230.2 L130.0 230.2 19.7 230.2 M19.7 261.15 L130.0 261.15 19.7 261.15 M19.7 245.65 L130.0 245.65 19.7 245.65 M19.7 199.25 L130.0 199.25 19.7 199.25" fill="#6b553f" fill-rule="evenodd" stroke="none"/>
      <path d="M420.5 30.0 L420.5 35.0 372.0 35.0 372.0 120.0 357.6 120.0 329.6 120.0 308.75 120.0 287.55 120.0 275.5 120.0 275.0 120.0 263.0 120.0 241.75 120.0 220.95 120.0 192.9 120.0 178.5 120.0 178.5 112.0 178.5 44.0 178.5 35.0 130.0 35.0 130.0 30.0 Q162.0 19.4 200.55 15.45 232.45 12.15 275.0 13.0 L275.5 13.0 Q318.05 12.15 349.95 15.45 388.5 19.4 420.5 30.0" fill="#6b5636" fill-rule="evenodd" stroke="none"/>
      <path d="M420.5 35.0 L420.5 120.0 391.3 120.0 372.0 120.0 372.0 35.0 420.5 35.0" fill="#3c3c3c" fill-rule="evenodd" stroke="none"/>
      <path d="M420.5 120.0 L420.5 147.0 420.5 199.25 420.5 202.0 420.5 214.7 420.5 230.2 420.5 245.65 420.5 261.15 420.5 276.6 420.5 293.0 417.0 293.0 383.0 293.0 382.8 293.0 362.5 293.0 327.8 293.0 327.6 293.0 307.0 293.0 275.5 293.0 275.0 293.0 243.5 293.0 222.95 293.0 222.75 293.0 188.0 293.0 167.7 293.0 167.5 293.0 133.5 293.0 130.0 293.0 130.0 276.6 130.0 261.15 130.0 245.65 130.0 230.2 130.0 214.7 130.0 202.0 130.0 199.25 130.0 147.0 130.0 120.0 159.25 120.0 130.0 147.0 159.25 120.0 178.5 120.0 192.9 120.0 220.95 120.0 241.75 120.0 263.0 120.0 275.0 120.0 275.5 120.0 287.55 120.0 308.75 120.0 329.6 120.0 357.6 120.0 386.0 157.0 348.3 157.0 329.6 120.0 348.3 157.0 386.0 157.0 357.6 120.0 372.0 120.0 391.3 120.0 420.5 120.0 M353.05 215.0 L338.45 177.0 326.4 176.8 293.85 176.3 275.5 176.0 275.0 176.0 256.65 176.3 224.1 176.8 212.05 177.0 197.45 215.0 197.45 232.0 203.0 232.0 203.0 239.0 203.0 244.75 203.0 278.0 245.2 278.0 275.0 278.0 275.5 278.0 305.3 278.0 347.5 278.0 347.5 244.75 347.5 239.0 347.5 232.0 353.05 232.0 353.05 215.0 M348.3 157.0 L389.7 239.0 347.5 239.0 389.7 239.0 348.3 157.0 M420.5 147.0 L391.3 120.0 420.5 147.0 M386.0 157.0 L420.5 202.0 386.0 157.0 M347.5 244.75 L362.5 293.0 347.5 244.75 M389.7 239.0 L417.0 293.0 389.7 239.0 M224.1 176.8 L230.25 157.0 258.85 157.0 256.65 176.3 258.85 157.0 230.25 157.0 224.1 176.8 M220.95 120.0 L202.25 157.0 164.55 157.0 192.9 120.0 164.55 157.0 202.25 157.0 220.95 120.0 M230.25 157.0 L241.75 120.0 230.25 157.0 M308.75 120.0 L320.25 157.0 326.4 176.8 320.25 157.0 291.7 157.0 293.85 176.3 291.7 157.0 320.25 157.0 308.75 120.0 M263.0 120.0 L258.85 157.0 263.0 120.0 M291.7 157.0 L287.55 120.0 291.7 157.0 M164.55 157.0 L130.0 202.0 164.55 157.0 M133.5 293.0 L160.8 239.0 203.0 239.0 160.8 239.0 133.5 293.0 M307.0 293.0 L305.3 278.0 307.0 293.0 M245.2 278.0 L243.5 293.0 245.2 278.0 M203.0 244.75 L188.0 293.0 203.0 244.75 M160.8 239.0 L202.25 157.0 160.8 239.0" fill="#836841" fill-rule="evenodd" stroke="none"/>
      <path d="M275.5 176.0 L293.85 176.3 326.4 176.8 338.45 177.0 353.05 215.0 275.5 215.0 275.0 215.0 197.45 215.0 212.05 177.0 224.1 176.8 256.65 176.3 275.0 176.0 275.5 176.0 M324.55 184.0 L331.0 206.5 340.0 206.5 332.5 184.0 324.55 184.0 318.35 184.0 324.55 184.0 M324.0 206.5 L318.35 184.0 310.4 184.0 303.8 184.0 310.4 184.0 315.0 206.5 307.5 206.5 303.8 184.0 294.5 184.0 288.3 184.0 294.5 184.0 297.0 206.5 307.5 206.5 315.0 206.5 324.0 206.5 331.0 206.5 324.0 206.5 M225.95 184.0 L218.0 184.0 210.5 206.5 219.5 206.5 226.5 206.5 219.5 206.5 225.95 184.0 232.15 184.0 225.95 184.0 M240.1 184.0 L232.15 184.0 226.5 206.5 235.5 206.5 243.0 206.5 235.5 206.5 240.1 184.0 246.75 184.0 240.1 184.0 M256.0 184.0 L246.75 184.0 243.0 206.5 253.5 206.5 260.5 206.5 253.5 206.5 256.0 184.0 262.2 184.0 256.0 184.0 M271.05 184.0 L262.2 184.0 260.5 206.5 270.5 206.5 271.5 206.6 270.5 206.5 271.05 184.0 272.05 184.0 275.0 184.0 272.05 184.0 271.05 184.0 M278.5 184.0 L279.5 184.0 278.5 184.0 279.0 206.6 278.5 184.0 275.5 184.0 278.5 184.0 M280.0 206.5 L279.0 206.6 280.0 206.5 290.0 206.5 297.0 206.5 290.0 206.5 288.3 184.0 279.5 184.0 280.0 206.5 M275.0 207.0 L271.5 206.6 275.0 207.0 M272.05 184.0 L271.5 206.6 272.05 184.0 M275.5 207.0 L279.0 206.6 275.5 207.0" fill="#ad945a" fill-rule="evenodd" stroke="none"/>
      <path d="M324.55 184.0 L332.5 184.0 340.0 206.5 331.0 206.5 324.55 184.0 M318.35 184.0 L324.0 206.5 315.0 206.5 310.4 184.0 318.35 184.0 M219.5 206.5 L210.5 206.5 218.0 184.0 225.95 184.0 219.5 206.5 M232.15 184.0 L240.1 184.0 235.5 206.5 226.5 206.5 232.15 184.0 M246.75 184.0 L256.0 184.0 253.5 206.5 243.0 206.5 246.75 184.0 M262.2 184.0 L271.05 184.0 270.5 206.5 260.5 206.5 262.2 184.0 M280.0 206.5 L279.5 184.0 288.3 184.0 290.0 206.5 280.0 206.5 M294.5 184.0 L303.8 184.0 307.5 206.5 297.0 206.5 294.5 184.0" fill="#887344" fill-rule="evenodd" stroke="none"/>
      <path d="M417.0 293.0 L420.5 293.0 447.8 293.0 453.2 300.35 448.0 293.0 517.85 293.0 521.25 296.3 550.0 324.65 521.25 296.3 518.0 293.0 550.0 293.0 550.0 324.65 550.0 400.05 525.2 400.05 453.2 300.35 525.2 400.05 431.1 400.05 351.2 400.05 275.5 400.05 275.0 399.7 275.0 293.55 275.0 399.7 275.0 400.05 199.35 400.05 119.4 400.05 25.35 400.05 0.0 400.05 0.0 325.1 0.0 293.0 32.55 293.0 29.3 296.3 32.7 293.0 102.55 293.0 97.3 300.35 102.75 293.0 130.0 293.0 133.5 293.0 167.5 293.0 164.25 300.5 167.7 293.0 188.0 293.0 222.75 293.0 220.65 302.95 222.95 293.0 243.5 293.0 275.0 293.0 275.0 293.55 275.5 293.0 307.0 293.0 327.6 293.0 329.9 302.95 351.2 400.05 329.9 302.95 327.8 293.0 362.5 293.0 382.8 293.0 386.3 300.5 383.0 293.0 417.0 293.0 M0.0 325.1 L29.3 296.3 0.0 325.1 M25.35 400.05 L97.3 300.35 25.35 400.05 M199.35 400.05 L220.65 302.95 199.35 400.05 M386.3 300.5 L431.1 400.05 386.3 300.5 M164.25 300.5 L119.4 400.05 164.25 300.5" fill="#726038" fill-rule="evenodd" stroke="none"/>
      <path d="M197.45 215.0 L275.0 215.0 275.5 215.0 353.05 215.0 353.05 232.0 347.5 232.0 347.5 239.0 347.5 244.75 347.5 278.0 305.3 278.0 275.5 278.0 275.0 278.0 245.2 278.0 203.0 278.0 203.0 244.75 203.0 239.0 203.0 232.0 234.15 232.0 275.0 231.0 234.15 232.0 203.0 232.0 197.45 232.0 197.45 215.0 M275.5 231.0 L316.4 232.0 347.5 232.0 316.4 232.0 275.5 231.0" fill="#957d48" fill-rule="evenodd" stroke="none"/>
      <path d="M130.0 35.0 L178.5 35.0 178.5 44.0 178.5 112.0 178.5 120.0 159.25 120.0 130.0 120.0 130.0 112.0 130.0 44.0 148.95 44.0 130.0 40.6 130.0 35.0 M178.5 44.0 L148.95 44.0 178.5 44.0 M178.5 112.0 L130.0 112.0 178.5 112.0" fill="#55442b" fill-rule="evenodd" stroke="none"/>
      <path d="M130.0 44.0 L130.0 40.6 148.95 44.0 130.0 44.0 M95.5 49.15 L100.15 49.15 100.15 50.8 95.5 49.15" fill="#baa689" fill-rule="evenodd" stroke="none"/>
      <path d="M0.0 30.0 L0.0 0.05 550.0 0.05 550.0 30.0 M550.0 293.0 L550.0 30.0 M275.5 400.05 L351.2 400.05 431.1 400.05 525.2 400.05 550.0 400.05 550.0 324.65 550.0 293.0 M0.0 30.0 L0.0 293.0 M275.0 400.05 L199.35 400.05 119.4 400.05 25.35 400.05 0.0 400.05 0.0 325.1 0.0 293.0 M275.0 400.05 L275.5 400.05" fill="none" stroke="#010101" stroke-linecap="round" stroke-linejoin="round" stroke-opacity="0.0" stroke-width="3.0"/>
      <path d="M550.0 30.0 L553.0 30.0 M496.8 49.15 L496.8 64.6 512.25 64.6 512.25 49.15 496.8 49.15 481.3 49.15 481.3 64.6 496.8 64.6 496.8 80.1 512.25 80.1 512.25 64.6 527.75 64.6 527.75 49.15 512.25 49.15 M496.8 80.1 L496.8 95.55 512.25 95.55 512.25 80.1 527.75 80.1 527.75 64.6 M512.25 95.55 L527.75 95.55 527.75 80.1 M527.75 111.05 L512.25 111.05 512.25 126.5 527.75 126.5 527.75 111.05 527.75 95.55 M512.25 126.5 L512.25 142.0 527.75 142.0 527.75 126.5 M512.25 126.5 L496.8 126.5 496.8 142.0 512.25 142.0 512.25 157.45 527.75 157.45 527.75 142.0 M512.25 111.05 L496.8 111.05 496.8 126.5 481.3 126.5 481.3 142.0 496.8 142.0 496.8 157.45 512.25 157.45 512.25 172.95 527.75 172.95 527.75 157.45 M496.8 157.45 L496.8 172.95 512.25 172.95 512.25 188.4 527.75 188.4 527.75 172.95 M496.8 172.95 L496.8 188.4 512.25 188.4 M512.25 95.55 L512.25 111.05 M496.8 95.55 L496.8 111.05 481.3 111.05 481.3 126.5 465.85 126.5 465.85 142.0 481.3 142.0 481.3 157.45 496.8 157.45 M450.35 49.15 L450.35 64.6 465.85 64.6 465.85 49.15 450.35 49.15 434.9 49.15 434.9 64.6 450.35 64.6 450.35 80.1 465.85 80.1 465.85 64.6 481.3 64.6 481.3 80.1 496.8 80.1 M481.3 49.15 L465.85 49.15 M420.5 30.0 L420.5 35.0 420.5 120.0 420.5 147.0 420.5 199.25 530.8 199.25 M434.9 95.55 L450.35 95.55 450.35 80.1 434.9 80.1 434.9 95.55 434.9 111.05 450.35 111.05 450.35 95.55 465.85 95.55 465.85 80.1 481.3 80.1 481.3 95.55 496.8 95.55 M434.9 64.6 L434.9 80.1 M465.85 95.55 L465.85 111.05 481.3 111.05 481.3 95.55 465.85 95.55 M372.0 120.0 L391.3 120.0 420.5 120.0 M357.6 120.0 L329.6 120.0 348.3 157.0 386.0 157.0 357.6 120.0 372.0 120.0 372.0 35.0 420.5 35.0 M353.05 215.0 L338.45 177.0 326.4 176.8 293.85 176.3 275.5 176.0 M275.0 176.0 L256.65 176.3 224.1 176.8 212.05 177.0 197.45 215.0 275.0 215.0 M275.5 215.0 L353.05 215.0 353.05 232.0 347.5 232.0 347.5 239.0 389.7 239.0 348.3 157.0 M324.55 184.0 L331.0 206.5 340.0 206.5 332.5 184.0 324.55 184.0 318.35 184.0 324.0 206.5 331.0 206.5 M450.35 126.5 L434.9 126.5 434.9 142.0 450.35 142.0 450.35 126.5 450.35 111.05 465.85 111.05 465.85 126.5 450.35 126.5 M450.35 142.0 L465.85 142.0 465.85 157.45 481.3 157.45 481.3 172.95 496.8 172.95 M434.9 111.05 L434.9 126.5 M434.9 188.4 L450.35 188.4 450.35 172.95 434.9 172.95 434.9 188.4 M450.35 172.95 L450.35 157.45 434.9 157.45 434.9 172.95 M465.85 157.45 L465.85 172.95 481.3 172.95 481.3 188.4 496.8 188.4 M465.85 172.95 L465.85 188.4 481.3 188.4 M450.35 188.4 L465.85 188.4 M450.35 172.95 L465.85 172.95 M465.85 157.45 L450.35 157.45 450.35 142.0 M434.9 142.0 L434.9 157.45 M391.3 120.0 L420.5 147.0 M420.5 30.0 Q388.5 19.4 349.95 15.45 318.05 12.15 275.5 13.0 M275.0 13.0 Q232.45 12.15 200.55 15.45 162.0 19.4 130.0 30.0 L130.0 35.0 178.5 35.0 178.5 44.0 178.5 112.0 178.5 120.0 192.9 120.0 220.95 120.0 241.75 120.0 263.0 120.0 275.0 120.0 M275.5 120.0 L287.55 120.0 308.75 120.0 329.6 120.0 M420.5 293.0 L420.5 276.6 420.5 261.15 420.5 245.65 420.5 230.2 420.5 214.7 420.5 202.0 386.0 157.0 M420.5 199.25 L420.5 202.0 M417.0 293.0 L420.5 293.0 447.8 293.0 448.0 293.0 517.85 293.0 518.0 293.0 550.0 293.0 M550.0 30.0 L420.5 30.0 M275.5 278.0 L305.3 278.0 347.5 278.0 347.5 244.75 347.5 239.0 M327.6 293.0 L327.8 293.0 362.5 293.0 347.5 244.75 M382.8 293.0 L383.0 293.0 417.0 293.0 389.7 239.0 M362.5 293.0 L382.8 293.0 386.3 300.5 383.0 293.0 M329.9 302.95 L327.6 293.0 307.0 293.0 275.5 293.0 275.0 293.55 275.0 399.7 275.5 400.05 M351.2 400.05 L329.9 302.95 327.8 293.0 M453.2 300.35 L447.8 293.0 M448.0 293.0 L453.2 300.35 525.2 400.05 M550.0 324.65 L521.25 296.3 517.85 293.0 M518.0 293.0 L521.25 296.3 M420.5 245.65 L530.8 245.65 M420.5 276.6 L530.8 276.6 M420.5 261.15 L530.8 261.15 M420.5 230.2 L530.8 230.2 M420.5 214.7 L530.8 214.7 M192.9 120.0 L164.55 157.0 202.25 157.0 220.95 120.0 M256.65 176.3 L258.85 157.0 230.25 157.0 224.1 176.8 M219.5 206.5 L210.5 206.5 218.0 184.0 225.95 184.0 232.15 184.0 240.1 184.0 246.75 184.0 256.0 184.0 262.2 184.0 271.05 184.0 272.05 184.0 275.0 184.0 M241.75 120.0 L230.25 157.0 M279.5 184.0 L278.5 184.0 275.5 184.0 M279.0 206.6 L280.0 206.5 M279.5 184.0 L288.3 184.0 294.5 184.0 303.8 184.0 310.4 184.0 318.35 184.0 M326.4 176.8 L320.25 157.0 291.7 157.0 293.85 176.3 M287.55 120.0 L291.7 157.0 M258.85 157.0 L263.0 120.0 M320.25 157.0 L308.75 120.0 M130.0 40.6 L130.0 35.0 M130.0 40.6 L130.0 44.0 148.95 44.0 178.5 44.0 M100.15 49.15 L115.65 49.15 115.65 64.6 115.65 80.1 115.65 95.55 115.65 111.05 115.65 126.5 115.65 142.0 115.65 157.45 115.65 172.95 115.65 188.4 100.15 188.4 84.7 188.4 69.2 188.4 53.75 188.4 38.25 188.4 22.8 188.4 22.8 172.95 22.8 157.45 22.8 142.0 22.8 126.5 22.8 111.05 22.8 95.55 22.8 80.1 22.8 64.6 22.8 49.15 38.25 49.15 53.75 49.15 69.2 49.15 84.7 49.15 95.5 49.15 100.15 49.15 100.15 50.8 100.15 64.6 115.65 64.6 M84.7 49.15 L84.7 64.6 100.15 64.6 100.15 80.1 115.65 80.1 M100.15 80.1 L84.7 80.1 84.7 95.55 100.15 95.55 100.15 80.1 M84.7 64.6 L69.2 64.6 69.2 80.1 84.7 80.1 84.7 64.6 M115.65 95.55 L100.15 95.55 100.15 111.05 115.65 111.05 M22.8 95.55 L38.25 95.55 38.25 80.1 22.8 80.1 M38.25 80.1 L38.25 64.6 22.8 64.6 M69.2 64.6 L53.75 64.6 53.75 80.1 69.2 80.1 69.2 95.55 84.7 95.55 84.7 111.05 100.15 111.05 100.15 126.5 115.65 126.5 M53.75 80.1 L53.75 95.55 69.2 95.55 69.2 111.05 84.7 111.05 84.7 126.5 100.15 126.5 100.15 142.0 115.65 142.0 M53.75 80.1 L38.25 80.1 M38.25 49.15 L38.25 64.6 53.75 64.6 53.75 49.15 M69.2 49.15 L69.2 64.6 M38.25 95.55 L53.75 95.55 53.75 111.05 69.2 111.05 69.2 126.5 84.7 126.5 84.7 142.0 100.15 142.0 100.15 157.45 115.65 157.45 M53.75 111.05 L53.75 126.5 69.2 126.5 69.2 142.0 84.7 142.0 84.7 157.45 100.15 157.45 100.15 172.95 115.65 172.95 M53.75 126.5 L38.25 126.5 38.25 142.0 53.75 142.0 53.75 126.5 M53.75 142.0 L53.75 157.45 69.2 157.45 69.2 142.0 53.75 142.0 M22.8 126.5 L38.25 126.5 38.25 111.05 22.8 111.05 M22.8 157.45 L38.25 157.45 38.25 142.0 22.8 142.0 M38.25 188.4 L38.25 172.95 22.8 172.95 M38.25 172.95 L38.25 157.45 53.75 157.45 53.75 172.95 69.2 172.95 69.2 157.45 84.7 157.45 84.7 172.95 100.15 172.95 100.15 188.4 M53.75 172.95 L53.75 188.4 M69.2 188.4 L69.2 172.95 84.7 172.95 84.7 188.4 M53.75 172.95 L38.25 172.95 M38.25 95.55 L38.25 111.05 53.75 111.05 M130.0 147.0 L159.25 120.0 130.0 120.0 130.0 147.0 130.0 199.25 130.0 202.0 164.55 157.0 M130.0 120.0 L130.0 112.0 130.0 44.0 M130.0 30.0 L0.0 30.0 -2.5 30.0 M0.0 293.0 L32.55 293.0 32.7 293.0 102.55 293.0 102.75 293.0 130.0 293.0 130.0 276.6 19.7 276.6 M130.0 214.7 L130.0 202.0 M130.0 230.2 L130.0 214.7 19.7 214.7 M130.0 245.65 L130.0 230.2 19.7 230.2 M130.0 276.6 L130.0 261.15 19.7 261.15 M167.5 293.0 L133.5 293.0 130.0 293.0 M130.0 261.15 L130.0 245.65 19.7 245.65 M203.0 239.0 L160.8 239.0 133.5 293.0 M32.55 293.0 L29.3 296.3 32.7 293.0 M29.3 296.3 L0.0 325.1 M97.3 300.35 L102.55 293.0 M102.75 293.0 L97.3 300.35 25.35 400.05 M130.0 199.25 L19.7 199.25 M297.0 206.5 L290.0 206.5 280.0 206.5 M307.5 206.5 L297.0 206.5 294.5 184.0 M315.0 206.5 L307.5 206.5 303.8 184.0 M270.5 206.5 L260.5 206.5 253.5 206.5 243.0 206.5 235.5 206.5 226.5 206.5 219.5 206.5 225.95 184.0 M271.5 206.6 L275.0 207.0 M270.5 206.5 L271.5 206.6 M279.0 206.6 L275.5 207.0 M275.0 293.0 L275.0 293.55 M275.5 293.0 L275.0 293.0 243.5 293.0 222.95 293.0 220.65 302.95 199.35 400.05 M203.0 232.0 L203.0 239.0 203.0 244.75 203.0 278.0 245.2 278.0 275.0 278.0 M243.5 293.0 L245.2 278.0 M305.3 278.0 L307.0 293.0 M347.5 232.0 L316.4 232.0 275.5 231.0 M203.0 232.0 L234.15 232.0 275.0 231.0 M197.45 215.0 L197.45 232.0 203.0 232.0 M167.7 293.0 L167.5 293.0 164.25 300.5 167.7 293.0 188.0 293.0 203.0 244.75 M222.75 293.0 L222.95 293.0 M188.0 293.0 L222.75 293.0 220.65 302.95 M159.25 120.0 L178.5 120.0 M290.0 206.5 L288.3 184.0 M130.0 112.0 L178.5 112.0 M315.0 206.5 L310.4 184.0 M260.5 206.5 L262.2 184.0 M256.0 184.0 L253.5 206.5 M243.0 206.5 L246.75 184.0 M226.5 206.5 L232.15 184.0 M240.1 184.0 L235.5 206.5 M202.25 157.0 L160.8 239.0 M275.0 400.05 L275.0 399.7 M431.1 400.05 L386.3 300.5 M119.4 400.05 L164.25 300.5 M324.0 206.5 L315.0 206.5" fill="none" stroke="#000000" stroke-linecap="round" stroke-linejoin="round" stroke-width="4.0"/>
      <path d="M100.15 50.8 L95.5 49.15" fill="none" stroke="#000000" stroke-linecap="round" stroke-linejoin="round" stroke-width="3.0"/>
      <path d="M278.5 184.0 L279.0 206.6 M271.5 206.6 L272.05 184.0" fill="none" stroke="#000000" stroke-linecap="round" stroke-linejoin="round" stroke-width="4.0"/>
      <path d="M561.75 -1.7 Q282.35 163.4 -11.75 -1.7 287.75 109.65 561.75 -1.7" fill="#baa689" fill-rule="evenodd" stroke="none"/>
      <path d="M561.75 -1.7 Q287.75 109.65 -11.75 -1.7 282.35 163.4 561.75 -1.7" fill="none" stroke="#000000" stroke-linecap="round" stroke-linejoin="round" stroke-width="3.0"/>
      <path d="M394.9 68.8 L389.85 72.6 394.9 83.8 390.35 87.3 394.9 97.5 394.45 97.8 394.9 98.85 390.35 102.3 394.9 112.5 394.45 112.8 394.9 113.85 390.35 117.3 394.9 127.5 389.85 131.3 394.9 142.55 382.4 151.8 375.15 135.8 380.2 132.0 375.15 120.75 379.8 117.3 375.15 107.1 375.65 106.8 375.15 105.75 379.75 102.3 375.15 92.1 375.65 91.8 375.15 90.75 379.75 87.3 375.15 77.1 380.2 73.3 375.15 62.05 387.7 52.8 394.9 68.8" fill="#ffffff" fill-rule="evenodd" stroke="none"/>
      <path d="M394.9 68.8 L389.85 72.6 394.9 83.8 390.35 87.3 394.9 97.5 394.45 97.8 394.9 98.85 390.35 102.3 394.9 112.5 394.45 112.8 394.9 113.85 390.35 117.3 394.9 127.5 389.85 131.3 394.9 142.55 382.4 151.8 375.15 135.8 380.2 132.0 375.15 120.75 379.8 117.3 375.15 107.1 375.65 106.8 375.15 105.75 379.75 102.3 375.15 92.1 375.65 91.8 375.15 90.75 379.75 87.3 375.15 77.1 380.2 73.3 375.15 62.05 387.7 52.8 394.9 68.8" fill="none" stroke="#000000" stroke-linecap="round" stroke-linejoin="round" stroke-width="3.0"/>
      <path d="M165.2 62.05 L177.7 52.8 184.95 68.8 179.9 72.6 184.95 83.8 180.35 87.3 184.95 97.5 184.45 97.8 184.95 98.85 180.35 102.3 184.95 112.5 184.45 112.8 184.95 113.85 180.35 117.3 184.95 127.5 179.9 131.3 184.95 142.55 172.4 151.8 165.2 135.8 170.25 132.0 165.2 120.75 169.85 117.3 165.2 107.1 165.65 106.8 165.2 105.75 169.75 102.3 165.2 92.1 165.65 91.8 165.2 90.75 169.75 87.3 165.2 77.1 170.25 73.3 165.2 62.05" fill="#ffffff" fill-rule="evenodd" stroke="none"/>
      <path d="M165.2 62.05 L177.7 52.8 184.95 68.8 179.9 72.6 184.95 83.8 180.35 87.3 184.95 97.5 184.45 97.8 184.95 98.85 180.35 102.3 184.95 112.5 184.45 112.8 184.95 113.85 180.35 117.3 184.95 127.5 179.9 131.3 184.95 142.55 172.4 151.8 165.2 135.8 170.25 132.0 165.2 120.75 169.85 117.3 165.2 107.1 165.65 106.8 165.2 105.75 169.75 102.3 165.2 92.1 165.65 91.8 165.2 90.75 169.75 87.3 165.2 77.1 170.25 73.3 165.2 62.05" fill="none" stroke="#000000" stroke-linecap="round" stroke-linejoin="round" stroke-width="3.0"/>
    </g>
  </defs>
</svg>
