<?xml version="1.0" encoding="UTF-8" standalone="no"?>
<svg xmlns:xlink="http://www.w3.org/1999/xlink" height="842.55px" width="1337.95px" xmlns="http://www.w3.org/2000/svg">
  <g transform="matrix(1, 0, 0, 1, 407.45, 285.05)">
    <use height="4.5" transform="matrix(5.4867, 0.0, 0.0, 81.5667, 3.2875, 23.0167)" width="99.75" xlink:href="#shape0"/>
    <use height="412.95" transform="matrix(1.0, 0.0, 0.0, 1.0, 0.0, 0.0)" width="556.95" xlink:href="#shape1"/>
    <use height="391.7" transform="matrix(1.0, 0.0, 0.0, 1.0, -13.95, 12.5)" width="609.05" xlink:href="#shape2"/>
  </g>
  <defs>
    <g id="shape0" transform="matrix(1, 0, 0, 1, 49.85, -2.5)">
      <path d="M49.9 7.0 L-49.85 7.0 -49.85 2.5 49.9 2.5 49.9 7.0" fill="#ffffff" fill-rule="evenodd" stroke="none"/>
    </g>
    <g id="shape1" transform="matrix(1, 0, 0, 1, 0.0, 0.0)">
      <path d="M0.0 222.0 L0.0 0.0 556.95 0.0 556.95 222.0 Q280.4 148.8 0.0 222.0" fill="#113977" fill-rule="evenodd" stroke="none"/>
      <path d="M556.95 222.0 L556.95 412.95 0.0 412.95 0.0 222.0 Q280.4 148.8 556.95 222.0" fill="#012839" fill-rule="evenodd" stroke="none"/>
      <path d="M302.85 16.4 Q314.0 11.8 325.45 12.15 L326.0 12.8 Q315.95 19.0 311.45 30.75 307.2 41.65 308.9 54.2 312.5 80.55 341.0 80.8 335.35 84.1 326.2 86.15 314.85 88.7 305.5 87.15 279.1 82.75 280.0 48.8 280.65 25.6 302.85 16.4" fill="#b6fbff" fill-rule="evenodd" stroke="none"/>
    </g>
    <g id="shape2" transform="matrix(1, 0, 0, 1, 13.95, -12.5)">
      <path d="M506.1 95.45 L506.5 91.05 Q507.55 77.35 507.4 75.75 L508.9 70.75 510.05 72.8 510.25 69.15 510.25 68.9 517.4 78.05 522.6 85.25 Q533.25 100.65 542.3 118.6 L554.65 143.6 557.6 149.65 565.05 165.1 Q558.05 168.25 553.2 170.0 563.35 187.45 571.65 205.35 581.8 227.15 592.4 248.1 595.9 255.0 594.9 262.5 581.15 267.8 569.2 262.05 L563.75 262.5 558.1 263.0 532.0 265.95 526.2 266.75 519.35 267.75 514.0 268.6 493.65 272.25 Q497.15 252.45 499.95 232.3 L500.9 225.45 501.15 223.3 Q502.0 217.05 503.0 210.85 L504.0 204.95 Q506.2 192.35 509.2 179.95 510.1 176.05 511.9 172.5 500.25 172.8 495.8 170.55 L498.4 153.6 503.45 117.4 504.3 110.7 505.1 104.3 506.1 95.45 M16.55 210.6 Q7.95 208.65 -0.8 205.0 -6.15 204.6 -11.7 202.2 -9.65 186.5 -7.25 170.95 -4.65 154.15 -1.7 137.7 L-0.95 132.75 Q-4.55 130.75 -8.65 129.0 -11.65 127.65 -13.95 125.45 -10.5 106.05 -5.35 87.1 0.2 66.6 8.75 48.3 9.7 46.3 11.5 46.1 L11.95 47.7 Q12.4 47.3 13.35 47.35 24.85 67.0 38.55 87.1 L42.25 92.95 46.05 100.0 Q51.15 110.3 53.4 121.1 L53.45 121.4 Q53.55 123.15 50.9 124.35 L44.5 126.65 45.85 128.55 Q56.3 143.35 64.3 159.5 72.5 176.0 79.05 192.9 L80.25 196.7 80.85 200.25 73.6 204.05 72.7 204.5 66.65 207.1 Q57.65 210.55 48.5 211.95 L43.15 212.55 23.15 211.85 16.55 210.6 M102.25 95.0 Q105.1 83.95 109.25 73.0 118.25 49.1 126.0 25.1 127.0 22.05 129.95 21.5 L130.8 21.55 130.95 21.5 131.0 21.6 131.85 21.8 Q132.95 22.1 133.85 22.85 L134.45 23.5 133.35 25.75 Q145.25 46.85 157.25 69.5 L158.4 71.7 161.9 78.2 Q174.15 100.6 188.95 121.15 189.6 122.05 189.45 123.25 180.65 126.9 170.6 130.55 168.3 131.35 167.45 132.75 184.1 161.35 197.3 192.5 198.65 195.65 199.1 198.7 199.45 200.75 199.4 202.75 L199.2 204.95 Q198.65 208.45 196.9 211.75 L195.9 213.45 Q192.35 218.6 185.65 220.7 178.5 223.0 172.1 223.7 L165.8 223.95 Q158.35 223.75 152.15 221.15 L130.05 222.15 125.45 221.85 Q115.2 220.95 105.3 218.3 L101.7 217.25 102.7 210.4 103.9 202.25 105.0 195.25 108.0 177.0 Q109.9 165.95 112.5 155.1 L114.85 145.85 Q116.55 139.5 118.5 133.25 L120.45 127.25 Q114.45 122.95 106.45 121.8 104.4 121.5 102.55 120.85 99.95 119.9 97.7 118.25 L97.85 117.15 98.45 113.2 98.6 112.35 Q99.5 106.65 100.8 101.0 L102.25 95.0" fill="#115e4e" fill-rule="evenodd" stroke="none"/>
      <path d="M563.75 262.5 Q565.15 269.15 565.9 276.45 568.0 297.15 577.8 314.8 L578.4 316.25 Q560.35 328.9 536.3 317.1 525.8 311.95 524.4 299.9 524.1 297.3 524.2 294.4 L524.35 291.85 Q524.95 278.65 526.2 266.75 L532.0 265.95 558.1 263.0 563.75 262.5 M473.1 298.65 Q445.25 309.7 421.7 295.8 418.9 294.15 418.85 289.75 L418.1 243.3 424.45 243.95 Q439.55 245.15 453.35 242.95 L459.2 241.85 Q461.0 249.2 461.65 257.15 462.7 270.05 466.9 282.15 469.4 289.35 473.05 296.3 473.55 297.3 473.4 298.5 L473.1 298.65 M185.5 269.55 L186.6 272.6 Q190.6 283.5 182.55 289.3 177.1 293.3 169.9 292.95 144.4 291.75 120.45 286.0 118.45 276.15 118.2 266.05 L118.15 259.95 Q118.3 254.1 119.0 248.2 120.65 234.05 125.45 221.85 L130.05 222.15 152.15 221.15 Q158.35 223.75 165.8 223.95 L172.1 223.7 Q176.55 243.3 183.2 262.95 L185.5 269.55 M66.0 266.4 Q63.6 273.9 49.95 275.55 29.15 278.1 13.95 265.5 14.35 250.8 15.5 235.65 16.4 223.3 16.55 210.6 L23.15 211.85 43.15 212.55 48.5 211.95 Q54.7 226.3 60.1 241.3 L64.0 252.55 65.5 257.2 66.3 260.35 Q66.85 263.75 66.0 266.4" fill="#453718" fill-rule="evenodd" stroke="none"/>
      <path d="M517.4 78.05 L523.55 55.9 Q524.85 50.85 527.2 47.55 L529.9 55.85 Q545.25 102.7 556.85 120.65 568.4 138.55 568.4 139.75 564.7 145.4 558.35 149.2 L557.6 149.65 554.65 143.6 542.3 118.6 Q533.25 100.65 522.6 85.25 L517.4 78.05 M440.45 65.4 L444.35 53.15 Q451.2 32.5 458.95 13.2 459.15 12.75 459.9 12.5 L459.9 12.55 459.95 13.3 Q459.75 12.65 460.9 12.5 475.25 35.3 487.05 60.7 495.35 78.55 506.1 95.45 L505.1 104.3 504.3 110.7 503.45 117.4 498.4 153.6 495.8 170.55 Q500.25 172.8 511.9 172.5 510.1 176.05 509.2 179.95 506.2 192.35 504.0 204.95 L503.0 210.85 Q502.0 217.05 501.15 223.3 L500.9 225.45 499.95 232.3 Q492.05 235.05 482.4 233.8 L489.4 230.0 488.2 227.5 Q480.9 212.55 471.65 198.05 467.9 192.15 464.9 186.15 460.55 177.25 455.8 170.4 L456.85 170.05 Q462.55 167.7 468.15 166.0 468.65 160.85 465.7 156.15 456.65 141.8 452.5 125.2 448.95 111.05 443.65 97.75 447.2 96.15 451.25 95.35 L454.75 94.5 Q450.65 86.65 444.55 73.95 L440.45 65.4 M533.25 47.05 Q534.7 48.0 534.7 50.0 L533.25 47.05 M157.25 69.5 Q161.05 57.75 163.65 45.8 163.8 45.0 164.2 44.25 L164.95 43.5 Q165.2 43.25 165.5 43.15 L166.9 42.65 166.95 42.5 167.5 46.7 Q176.3 64.7 188.0 82.1 L212.75 118.6 Q213.45 119.55 213.45 120.75 211.75 124.85 207.15 126.75 203.05 128.45 200.45 132.0 216.35 155.95 228.1 182.5 232.6 192.7 220.8 198.25 209.8 203.45 200.05 204.85 L199.2 204.95 199.4 202.75 Q199.45 200.75 199.1 198.7 198.65 195.65 197.3 192.5 184.1 161.35 167.45 132.75 168.3 131.35 170.6 130.55 180.65 126.9 189.45 123.25 189.6 122.05 188.95 121.15 174.15 100.6 161.9 78.2 L158.4 71.7 157.25 69.5 M42.25 92.95 Q43.95 86.9 46.0 80.85 53.9 57.6 57.6 33.75 57.9 31.65 59.95 31.5 L61.85 31.8 62.55 32.05 Q62.05 30.65 63.95 30.5 77.3 49.95 88.55 71.45 94.9 83.65 102.25 95.0 L100.8 101.0 Q99.5 106.65 98.6 112.35 L98.45 113.2 97.85 117.15 97.7 118.25 Q99.95 119.9 102.55 120.85 108.95 133.0 114.85 145.85 L112.5 155.1 Q109.9 165.95 108.0 177.0 L105.0 195.25 103.9 202.25 100.15 202.85 94.75 203.55 Q84.1 204.65 73.6 204.05 L80.85 200.25 80.25 196.7 79.05 192.9 Q72.5 176.0 64.3 159.5 56.3 143.35 45.85 128.55 L44.5 126.65 50.9 124.35 Q53.55 123.15 53.45 121.4 L53.4 121.1 Q51.15 110.3 46.05 100.0 L42.25 92.95" fill="#0f4f42" fill-rule="evenodd" stroke="none"/>
      <path d="M473.4 298.7 L473.1 298.65 473.4 298.5 473.4 298.7" fill="#2c2310" fill-rule="evenodd" stroke="none"/>
      <path d="M524.4 299.9 Q523.2 301.3 520.85 301.45 496.6 303.1 473.4 298.7 L473.4 298.5 Q473.55 297.3 473.05 296.3 469.4 289.35 466.9 282.15 467.65 270.15 470.3 258.2 472.55 247.95 473.95 237.45 L479.8 235.05 482.4 233.8 Q492.05 235.05 499.95 232.3 497.15 252.45 493.65 272.25 L514.0 268.6 519.35 267.75 Q521.15 280.0 524.35 291.85 L524.2 294.4 Q524.1 297.3 524.4 299.9 M200.05 204.85 Q202.85 213.55 205.25 222.9 209.55 239.75 213.2 256.3 213.45 257.4 212.95 258.5 199.85 269.15 185.5 269.55 L183.2 262.95 Q176.55 243.3 172.1 223.7 178.5 223.0 185.65 220.7 192.35 218.6 195.9 213.45 L196.9 211.75 Q198.65 208.45 199.2 204.95 L200.05 204.85 M118.2 266.05 Q91.75 277.1 66.0 266.4 66.85 263.75 66.3 260.35 L65.5 257.2 64.0 252.55 60.1 241.3 Q61.1 235.15 62.55 229.05 65.2 218.15 66.65 207.1 L72.7 204.5 73.6 204.05 Q84.1 204.65 94.75 203.55 L100.15 202.85 102.7 210.4 101.7 217.25 105.3 218.3 107.05 223.8 118.15 259.95 118.2 266.05" fill="#3e3420" fill-rule="evenodd" stroke="none"/>
      <path d="M418.1 243.3 L412.75 242.5 393.95 240.0 393.9 240.0 Q392.8 239.85 391.65 239.25 L392.05 237.0 396.95 207.65 Q399.65 190.15 406.45 174.0 L407.15 172.5 Q398.0 170.35 389.65 166.25 387.55 165.25 386.4 163.5 393.7 142.1 396.65 119.0 398.05 108.4 400.2 98.1 387.55 98.9 390.6 84.1 394.95 62.95 400.75 42.05 402.5 35.85 405.35 31.15 405.6 29.7 406.5 28.25 408.85 24.25 410.25 19.95 410.9 17.9 416.35 12.6 418.7 18.9 422.65 27.4 432.8 49.45 440.45 65.4 L444.55 73.95 Q450.65 86.65 454.75 94.5 L451.25 95.35 Q447.2 96.15 443.65 97.75 448.95 111.05 452.5 125.2 456.65 141.8 465.7 156.15 468.65 160.85 468.15 166.0 462.55 167.7 456.85 170.05 L455.8 170.4 Q460.55 177.25 464.9 186.15 467.9 192.15 471.65 198.05 480.9 212.55 488.2 227.5 L489.4 230.0 482.4 233.8 479.8 235.05 473.95 237.45 Q466.8 240.2 459.2 241.85 L453.35 242.95 Q439.55 245.15 424.45 243.95 L418.1 243.3 M397.4 233.5 L397.5 233.55 397.65 232.7 397.4 233.5" fill="#146b59" fill-rule="evenodd" stroke="none"/>
      <path d="M375.9 195.5 Q379.8 197.25 378.7 201.45 377.8 204.95 375.85 207.75 L374.9 208.5 Q371.35 207.05 371.65 202.7 371.85 198.8 374.65 196.25 L375.9 195.5 M365.9 195.5 Q369.8 195.55 368.55 198.75 367.4 201.55 369.15 204.4 L369.15 205.0 Q368.5 206.35 366.9 206.45 364.4 206.6 362.9 204.5 362.1 202.8 362.55 200.75 363.15 198.4 364.55 196.55 365.25 195.65 365.9 195.5 M406.05 276.15 Q406.4 270.2 409.2 265.9 409.4 265.6 409.9 265.5 413.85 268.8 413.25 275.05 412.75 280.35 411.55 285.4 L410.9 286.25 Q405.55 284.15 406.05 276.15 M439.9 296.5 Q443.15 299.1 445.2 303.35 447.15 307.5 445.75 311.85 L444.9 313.25 Q440.0 311.8 437.75 306.15 435.65 300.85 439.15 296.9 L439.9 296.5 M448.9 266.5 Q453.15 276.4 452.75 289.5 452.35 301.7 452.4 313.5 L451.9 314.25 Q444.5 306.0 444.95 290.75 445.3 277.9 448.35 266.85 L448.9 266.5 M342.9 244.5 Q346.75 246.45 344.95 250.9 343.65 254.25 342.9 257.55 342.8 258.1 341.9 258.5 337.05 257.6 338.6 252.05 339.75 248.0 342.15 244.95 342.4 244.6 342.9 244.5 M356.7 246.7 L354.5 258.4 353.9 259.25 Q348.5 256.8 349.0 248.4 349.4 241.2 353.2 235.95 353.4 235.6 353.9 235.5 357.8 239.6 356.7 246.7 M360.9 294.5 Q363.0 295.9 364.25 298.1 364.95 292.95 367.25 288.9 367.4 288.6 367.9 288.5 371.9 292.5 371.3 299.55 370.75 305.6 369.5 311.4 L368.9 312.25 Q365.75 310.65 364.65 307.1 L363.75 308.05 362.9 308.5 Q358.75 307.2 358.05 302.0 357.5 297.55 360.1 294.9 360.4 294.6 360.9 294.5 M386.9 253.5 Q390.45 258.0 391.65 265.0 392.8 271.95 389.75 277.8 L388.9 278.5 Q385.25 273.55 383.9 266.15 382.45 258.05 386.85 253.65 L386.9 253.5 M396.9 270.5 Q400.25 271.55 398.65 274.45 397.25 277.0 397.85 280.05 L397.65 280.75 395.9 281.3 Q393.9 281.75 392.65 280.25 392.25 278.0 392.65 275.75 393.1 273.2 395.3 271.4 396.25 270.65 396.9 270.5 M380.9 269.5 Q384.8 271.25 383.4 275.4 382.25 278.7 379.75 281.05 L378.9 281.5 Q374.6 279.7 376.35 275.3 377.6 272.15 380.1 269.9 380.4 269.6 380.9 269.5 M402.9 273.5 Q406.6 274.7 405.8 278.0 404.95 281.4 401.85 282.35 L400.9 282.5 Q397.65 281.65 398.4 278.25 399.2 274.45 402.9 273.6 L402.9 273.5 M333.9 337.5 Q338.2 347.4 336.45 360.5 334.9 371.95 338.45 380.85 L338.6 379.7 Q339.75 373.35 344.85 370.65 L344.9 370.5 Q348.85 373.65 346.75 379.7 345.05 384.45 342.8 388.75 L341.9 389.5 Q340.4 388.35 339.55 386.9 338.9 387.45 337.95 387.65 334.8 388.3 332.65 386.25 331.25 374.75 331.35 363.0 331.4 351.35 331.85 339.75 331.9 337.65 333.9 337.5 M327.9 367.5 Q331.55 369.8 331.25 374.85 331.05 378.95 332.0 383.05 332.15 383.75 331.9 384.5 326.1 386.3 324.9 379.8 324.1 375.5 324.4 370.7 L324.4 370.0 325.15 369.25 326.55 368.2 Q327.15 367.85 327.9 367.6 L327.9 367.5 M353.45 382.5 Q352.45 386.8 350.15 390.7 L349.4 392.0 Q347.8 392.8 345.9 392.55 343.9 392.3 343.4 390.5 346.05 387.2 347.05 382.6 348.0 378.15 350.2 374.9 350.4 374.6 350.9 374.5 354.7 377.1 353.45 382.5 M394.35 381.65 Q392.95 385.65 394.2 389.55 L394.4 390.95 Q396.5 391.4 398.15 392.75 398.9 393.35 399.2 394.15 399.95 391.6 401.55 389.55 402.25 388.65 402.9 388.45 405.7 389.2 405.05 391.9 L403.8 396.45 403.4 397.2 404.15 398.0 Q404.8 398.7 405.1 399.6 405.3 400.2 405.15 400.95 404.5 402.35 402.95 402.6 400.35 403.0 398.65 401.2 398.35 398.95 398.65 396.7 391.75 398.85 389.8 389.45 L387.5 379.2 387.4 378.45 388.5 377.05 390.0 375.85 Q390.4 375.6 390.9 375.45 396.15 376.65 394.35 381.65 M473.9 339.5 Q478.15 348.3 476.65 360.25 475.25 371.7 474.55 381.95 L473.9 382.45 Q467.7 374.85 469.55 361.55 471.05 350.5 473.1 340.1 473.15 339.75 473.9 339.5 M415.95 338.9 L414.35 342.7 413.9 343.5 Q414.05 344.25 414.45 344.7 415.45 345.8 415.35 347.2 L415.15 348.75 Q409.75 352.2 409.2 344.65 408.8 339.65 412.7 336.35 L413.9 335.5 Q416.95 336.25 415.95 338.9 M429.9 328.5 Q433.95 333.1 430.35 340.3 427.2 346.5 425.65 352.85 L424.9 353.5 Q419.8 348.3 422.85 340.55 425.7 333.35 429.85 328.65 L429.9 328.5 M464.1 365.05 L465.15 365.75 465.9 366.45 Q466.7 369.0 466.9 371.7 467.1 374.9 467.55 377.8 467.65 378.45 467.15 379.2 460.7 381.15 460.7 373.2 460.7 369.4 461.45 365.9 461.75 364.65 462.9 364.45 L464.1 365.05 M505.95 296.55 Q503.95 306.0 504.5 315.0 504.55 315.6 503.9 316.25 498.95 313.15 498.05 306.15 497.15 309.05 497.45 312.05 497.55 312.6 496.9 313.25 491.2 313.8 491.6 307.7 491.95 302.9 495.1 299.9 495.4 299.6 495.9 299.5 L497.9 300.9 498.05 298.6 Q499.2 287.7 504.25 278.9 L504.9 278.5 Q508.2 285.85 505.95 296.55 M514.9 301.5 Q519.25 305.45 516.3 312.1 513.95 317.4 510.65 322.05 L509.9 322.5 Q504.85 318.3 508.3 311.3 510.8 306.3 514.15 301.9 514.4 301.6 514.9 301.5 M523.1 384.9 Q523.4 384.6 523.9 384.45 527.7 386.45 526.75 391.1 525.9 395.35 522.75 398.05 L521.9 398.45 520.5 397.55 519.95 397.7 Q516.8 398.3 514.65 396.2 514.9 391.05 516.1 385.65 L518.65 374.65 Q518.9 373.55 519.9 373.45 523.6 375.75 522.7 380.8 L521.2 387.5 Q522.0 386.1 523.1 384.9 M252.9 185.5 Q257.85 194.2 255.7 205.9 253.8 216.1 252.5 226.45 252.4 226.85 251.9 227.25 250.0 225.05 248.9 222.1 248.95 224.15 248.6 226.2 L248.15 227.0 Q242.25 226.65 240.6 218.9 239.45 213.6 241.9 209.25 242.15 208.75 242.9 208.5 245.9 211.2 247.45 215.4 247.15 211.75 247.7 207.4 249.1 195.9 252.35 185.85 252.4 185.6 252.9 185.5 M90.1 249.35 Q90.45 248.75 90.95 248.5 94.5 253.95 93.5 262.6 92.55 270.4 93.65 277.5 L93.45 278.0 Q85.4 275.4 86.0 264.4 86.45 256.1 90.1 249.35 M82.95 266.5 Q86.25 267.75 86.5 271.4 86.7 274.25 85.5 276.65 L84.95 277.25 Q79.55 278.0 79.55 272.5 79.6 268.85 82.05 266.9 L82.95 266.5 M95.95 288.5 Q101.25 297.65 97.4 309.6 93.75 320.8 88.55 329.25 L87.95 329.5 Q85.2 320.9 89.2 308.2 92.7 297.0 95.9 288.7 L95.95 288.5 M28.95 268.5 Q32.55 270.4 32.45 275.0 L32.55 282.5 32.2 283.25 29.85 284.2 Q27.95 284.75 26.7 283.25 26.25 279.9 26.25 276.5 26.25 273.05 27.3 269.95 27.75 268.65 28.95 268.5 M37.95 288.25 Q31.25 283.3 34.35 272.4 36.75 264.05 40.3 256.9 40.45 256.6 40.95 256.5 44.6 262.35 41.85 271.15 39.5 278.8 38.65 286.9 L37.95 288.25 M70.95 345.5 Q75.1 354.35 73.75 366.35 72.55 377.75 69.5 387.1 L68.95 387.45 Q66.95 383.8 66.05 379.5 64.2 384.1 64.3 388.7 L63.95 389.2 Q57.8 388.0 58.8 380.65 59.65 374.35 63.2 369.9 L63.95 369.45 Q64.7 369.75 65.35 370.2 L65.6 366.5 Q66.85 355.4 70.35 345.85 70.45 345.6 70.95 345.5 M77.75 325.7 Q79.45 321.8 82.15 318.9 L82.95 318.5 Q87.3 320.75 85.15 325.3 83.4 329.0 80.7 332.05 L79.95 332.5 Q75.7 330.45 77.75 325.7 M78.95 369.45 Q83.0 371.6 81.65 376.35 80.65 379.9 82.1 383.6 L81.95 384.2 Q75.1 385.9 74.65 377.5 74.35 371.75 78.9 369.6 L78.95 369.45 M51.95 357.45 Q55.7 363.05 55.85 371.45 56.0 378.8 56.75 385.75 56.8 386.35 56.45 386.95 48.8 384.3 48.45 373.55 48.15 365.5 51.2 358.3 51.45 357.75 51.95 357.45 M46.45 387.95 Q39.85 387.85 39.8 380.45 39.75 375.3 42.1 371.35 42.45 370.7 42.95 370.45 46.75 373.1 46.5 378.5 46.3 383.15 46.65 387.5 L46.45 387.95 M144.3 325.9 Q144.45 325.6 144.95 325.5 148.1 333.1 147.1 344.05 146.2 354.05 146.4 363.45 L145.95 364.2 Q138.65 359.35 139.35 345.85 139.9 334.9 144.3 325.9 M90.7 368.8 Q90.35 377.9 87.7 385.8 L86.95 386.45 Q82.75 380.05 83.25 370.15 83.7 361.15 86.05 353.15 86.2 352.75 86.95 352.5 91.1 359.05 90.7 368.8 M149.2 348.95 Q149.75 347.65 150.95 347.5 154.4 349.1 153.9 353.3 153.55 356.5 155.15 359.35 L155.2 359.95 Q154.5 361.35 153.0 361.1 150.55 360.75 148.7 359.2 148.25 356.65 148.25 354.0 148.25 351.3 149.2 348.95 M136.15 353.05 L137.15 353.75 137.95 354.5 Q138.7 356.65 139.05 358.85 139.5 361.45 139.3 364.2 139.2 365.6 137.95 366.2 133.2 365.65 132.4 360.15 131.7 355.6 134.15 352.9 L134.95 352.5 136.15 353.05 M302.9 208.5 Q306.7 214.15 303.2 222.9 300.2 230.25 299.5 238.25 L299.4 239.75 Q300.2 241.6 302.0 242.35 303.95 243.15 303.15 245.0 290.0 245.0 294.7 228.45 297.3 219.3 301.0 210.2 301.6 208.65 302.9 208.5 M290.35 233.05 L289.9 234.5 Q291.1 235.5 291.9 236.75 292.75 238.05 292.35 239.7 L291.9 241.25 Q287.95 243.35 285.2 238.5 283.3 235.2 284.9 231.5 L285.65 230.75 Q286.05 230.35 286.5 230.1 287.15 229.75 287.9 229.5 288.9 230.1 289.8 230.85 290.85 231.75 290.35 233.05 M284.9 290.5 Q287.15 301.35 285.85 315.75 284.6 329.4 287.95 342.1 288.25 343.2 287.4 344.0 277.8 335.85 278.45 318.4 278.95 304.0 284.2 291.3 284.45 290.75 284.9 290.5 M233.9 251.5 Q238.0 255.25 236.95 262.0 235.95 267.95 234.4 273.65 L233.9 274.25 Q231.5 273.15 230.35 270.95 L229.9 271.25 Q226.1 271.3 224.25 267.85 221.95 263.6 225.1 260.9 225.45 260.6 225.95 260.5 227.85 261.3 229.25 262.75 229.9 256.5 233.2 251.95 L233.9 251.5 M207.1 314.4 Q205.05 322.15 205.5 330.0 205.55 330.6 204.95 331.25 201.25 328.95 199.85 325.15 L198.6 330.35 197.95 331.25 Q192.95 330.45 193.25 324.15 193.5 319.7 196.15 316.9 L196.95 316.5 Q198.2 317.15 199.0 318.2 L199.3 315.6 Q200.75 306.9 205.2 299.9 205.45 299.6 205.95 299.5 209.5 305.4 207.1 314.4 M214.05 369.15 Q214.2 368.7 214.95 368.45 219.1 375.4 218.2 385.55 217.4 394.95 221.9 403.0 222.2 403.45 221.95 404.2 219.4 403.65 217.5 402.3 211.7 402.3 208.2 395.2 205.55 390.0 207.95 385.2 208.2 384.7 208.95 384.45 210.45 385.65 211.65 387.2 L211.65 386.95 Q211.7 377.55 214.05 369.15 M293.9 334.5 Q297.05 335.45 296.95 338.75 296.9 341.95 295.5 344.65 L294.9 345.25 Q290.45 345.35 290.55 340.5 290.6 336.85 293.05 334.9 L293.9 334.5 M278.2 337.9 Q279.3 341.1 277.75 344.15 L277.15 345.0 Q272.4 345.25 271.1 340.0 270.25 336.3 272.75 333.25 273.15 332.75 273.9 332.5 276.95 334.3 278.2 337.9 M224.8 401.45 Q220.45 401.7 224.05 398.9 224.45 398.6 224.95 398.45 229.75 401.15 224.8 401.45" fill="#183a44" fill-rule="evenodd" stroke="none"/>
    </g>
  </defs>
</svg>
