<?xml version="1.0" encoding="UTF-8" standalone="no"?>
<svg xmlns:xlink="http://www.w3.org/1999/xlink" height="842.55px" width="1337.95px" xmlns="http://www.w3.org/2000/svg">
  <g transform="matrix(1, 0, 0, 1, 407.45, 285.05)">
    <use height="4.5" transform="matrix(5.4867, 0.0, 0.0, 81.5667, 3.2875, 23.0167)" width="99.75" xlink:href="#shape0"/>
    <use height="414.05" transform="matrix(1.0, 0.0, 0.0, 1.0, -11.6, -10.7)" width="567.95" xlink:href="#shape1"/>
  </g>
  <defs>
    <g id="shape0" transform="matrix(1, 0, 0, 1, 49.85, -2.5)">
      <path d="M49.9 7.0 L-49.85 7.0 -49.85 2.5 49.9 2.5 49.9 7.0" fill="#ffffff" fill-rule="evenodd" stroke="none"/>
    </g>
    <g id="shape1" transform="matrix(1, 0, 0, 1, 11.6, 10.7)">
      <path d="M-0.05 24.05 L1.25 24.75 -0.05 26.8 -0.05 24.05 M-0.05 68.35 L2.25 70.5 Q5.45 73.4 24.0 76.4 47.7 80.2 51.5 81.25 L51.85 82.75 Q52.15 83.8 52.85 84.5 54.85 86.5 61.5 86.5 L66.45 86.35 66.5 88.5 Q66.5 91.95 62.0 117.1 L61.55 119.6 Q16.4 128.5 -0.05 136.5 L-0.05 68.35 M264.75 96.6 L214.85 96.75 Q172.15 101.55 130.15 107.9 L124.05 78.8 120.15 61.05 Q123.85 61.3 126.4 62.75 127.6 63.45 130.5 66.0 135.6 70.5 144.5 70.5 150.25 70.5 170.45 64.8 190.75 59.1 194.1 56.5 206.2 47.2 206.7 46.5 207.5 45.4 207.5 43.55 L207.35 38.1 Q207.35 31.8 207.05 30.85 L201.85 20.5 216.15 3.6 218.7 -0.05 328.1 -0.05 Q323.4 3.8 321.65 5.4 313.35 13.15 313.35 20.5 313.35 24.6 314.7 25.8 317.2 28.15 327.35 29.75 L327.35 30.0 Q325.35 38.5 325.35 42.85 325.35 47.65 326.1 49.9 327.35 53.8 331.4 56.6 341.65 63.6 374.35 66.0 374.35 73.25 376.7 76.9 381.55 84.5 396.35 84.5 L407.35 84.05 Q408.0 83.85 408.45 83.45 L409.35 83.5 410.0 83.5 405.1 103.85 404.85 104.8 397.65 103.6 Q379.55 100.1 372.7 99.05 362.35 97.5 345.8 97.0 329.0 96.5 284.85 96.5 L271.05 96.55 271.35 90.6 Q271.35 85.95 268.85 84.5 266.3 86.05 264.75 96.6 M552.3 130.0 Q546.35 128.55 531.9 126.8 L493.35 122.0 Q486.5 120.85 474.25 116.8 L471.7 105.0 466.4 81.5 466.85 81.5 Q483.65 81.5 490.25 72.15 L493.9 65.7 Q495.55 62.75 497.6 62.75 L502.05 64.65 Q507.1 66.5 511.35 66.5 521.55 66.5 528.95 57.4 534.85 50.05 536.35 41.25 L537.95 33.7 Q538.95 30.5 540.85 28.5 542.1 27.25 550.2 20.4 551.05 19.65 551.25 18.7 L551.35 15.1 Q551.35 6.55 548.4 0.5 L548.15 -0.05 552.3 -0.05 552.3 130.0" fill="url(#gradient0)" fill-rule="evenodd" stroke="none"/>
      <path d="M218.2 -10.7 Q217.35 -6.35 212.75 -0.05 L208.9 4.8 Q197.75 16.75 194.35 21.5 199.25 25.2 201.05 29.35 202.35 32.5 202.35 37.6 L202.3 41.3 Q202.1 42.55 201.1 43.6 L189.35 53.0 Q184.3 57.05 175.95 57.45 165.55 57.9 161.0 59.75 158.6 60.7 157.7 62.0 L156.4 63.7 Q154.35 65.25 139.75 65.25 138.95 65.25 133.3 59.4 127.6 53.5 127.0 53.5 126.2 53.5 122.6 55.3 120.35 56.4 119.35 57.35 114.75 37.25 110.5 21.35 L110.5 20.85 110.25 20.35 110.0 19.5 109.65 19.65 Q106.7 16.5 96.5 16.5 93.5 16.5 89.5 25.25 84.65 34.45 74.55 35.15 L70.2 35.1 Q69.7 33.5 69.0 33.5 68.3 33.5 67.8 34.8 L65.5 34.75 65.2 35.35 Q65.05 35.85 65.75 36.25 L67.25 36.75 Q66.05 42.2 66.0 56.8 65.95 68.0 66.4 84.95 L64.4 85.35 Q59.6 85.9 56.5 79.5 L55.8 76.4 Q55.15 74.5 52.5 74.5 L48.45 75.25 36.75 76.0 36.35 72.05 Q36.0 69.5 34.0 69.5 10.1 69.5 2.8 64.3 0.95 62.95 -0.05 61.15 L-1.0 58.9 Q-1.5 57.0 -1.5 52.6 -1.5 48.2 -0.05 42.65 0.9 38.9 2.5 34.6 L6.5 23.75 Q6.5 21.55 4.45 20.2 3.65 19.7 0.0 18.25 L-0.05 18.25 Q-6.5 15.7 -6.5 10.35 -6.5 0.45 2.0 -10.05 L2.55 -10.7 218.2 -10.7 M-3.5 146.55 L-0.05 144.8 1.5 144.0 1.95 143.8 32.35 132.35 32.9 132.2 33.2 132.1 34.3 131.75 34.6 131.65 35.0 131.55 35.4 131.45 35.8 131.35 36.15 131.25 37.35 130.9 37.75 130.75 Q49.2 127.55 60.6 125.2 57.5 142.85 57.5 145.85 L57.55 146.45 57.5 146.5 57.35 148.8 Q57.7 151.25 60.45 153.25 69.05 159.5 98.0 159.5 119.7 159.5 129.55 155.05 135.7 152.25 136.4 148.3 L136.5 148.25 136.5 138.5 131.7 115.2 155.25 111.55 188.4 105.65 Q202.35 103.4 220.0 102.6 235.0 101.95 264.1 101.8 263.35 108.7 263.35 115.25 263.35 116.25 263.8 118.2 264.55 121.25 265.85 122.5 L268.1 121.75 Q268.4 116.6 269.95 105.6 L270.5 101.8 284.1 101.75 Q347.95 101.75 403.7 109.4 400.55 122.0 399.7 125.95 L399.65 126.0 Q399.4 126.3 399.4 127.6 L399.35 127.75 399.35 128.15 399.35 128.4 Q399.4 130.2 399.6 130.0 L400.5 130.2 Q401.8 131.45 404.5 133.35 409.85 137.1 417.4 140.8 437.15 150.5 451.35 150.5 464.0 150.5 471.4 146.05 477.35 142.45 477.35 138.25 L477.3 137.6 477.35 135.6 Q477.35 132.75 475.45 122.9 L503.8 129.4 Q528.15 134.35 547.35 134.5 L548.35 134.5 552.3 134.45 552.35 134.45 552.35 397.25 Q552.75 397.65 553.65 397.85 554.35 398.25 554.35 399.75 554.35 401.35 553.5 401.9 L551.85 402.35 -1.0 403.35 Q-3.0 402.9 -3.5 401.35 L-3.5 146.55 M519.05 -10.7 L519.35 -10.5 520.35 -10.55 520.35 -10.25 Q520.35 -7.75 520.6 -8.75 533.9 -8.4 540.7 -0.05 L541.8 1.4 Q546.35 7.85 546.35 15.35 546.35 20.35 539.85 23.2 536.05 24.85 535.4 25.25 533.35 26.5 533.35 28.35 534.0 36.8 531.15 44.95 525.45 61.25 507.85 61.25 506.8 61.25 502.55 59.4 498.25 57.5 496.35 57.5 493.55 57.5 489.7 62.75 L486.1 68.5 Q482.1 74.55 471.3 77.05 L465.7 77.85 Q463.15 60.1 459.5 44.05 454.9 23.7 451.55 21.75 449.05 18.5 444.85 18.5 L432.85 21.5 Q430.4 21.5 428.25 17.0 426.1 12.5 423.35 12.5 419.6 12.5 415.85 14.5 412.35 16.35 412.35 17.75 412.35 19.3 412.55 19.55 L412.85 19.75 Q412.2 25.2 412.15 39.8 412.1 52.15 412.35 71.5 L411.05 78.75 409.35 78.5 406.8 78.8 406.6 78.85 Q391.25 77.85 385.1 75.4 380.5 73.6 379.85 70.1 L379.5 67.2 Q379.2 65.6 378.15 64.5 375.4 61.6 365.1 60.25 343.05 57.35 335.95 53.4 330.35 50.25 330.35 43.35 330.35 41.65 332.35 35.55 334.35 29.45 334.35 27.25 334.35 25.2 326.35 23.8 318.35 22.4 318.35 19.85 318.35 13.5 329.35 5.6 L336.85 -0.05 336.9 -0.1 Q339.1 -2.05 339.9 -3.8 L340.35 -4.0 Q342.0 -7.5 345.9 -10.7 L519.05 -10.7 M515.1 168.5 L515.35 163.25 Q513.85 151.5 511.85 151.5 509.35 151.5 509.35 155.85 509.35 158.1 510.5 162.65 511.7 167.3 512.85 169.5 513.85 169.25 515.1 168.5 M531.55 138.95 L529.85 138.5 Q519.35 156.05 519.35 164.1 519.35 166.8 521.85 169.5 L524.35 168.25 Q524.35 166.1 528.35 154.5 532.35 142.9 532.35 140.85 532.35 139.3 531.55 138.95 M525.65 381.0 Q525.35 381.4 525.35 383.35 525.35 384.45 527.9 388.1 530.95 392.5 533.85 392.5 L535.6 392.2 535.85 391.5 536.2 391.4 536.35 390.15 Q536.95 391.45 537.85 392.5 L540.1 391.75 541.35 369.25 Q541.35 367.65 540.55 367.15 L538.85 366.5 Q535.35 368.6 535.35 381.5 535.35 385.85 535.55 387.15 L535.95 389.05 Q532.35 380.5 527.85 380.5 526.05 380.5 525.65 381.0 M431.35 365.1 Q433.35 361.45 433.35 360.85 433.35 359.3 432.55 358.95 L430.85 358.5 Q427.4 359.65 425.65 363.1 424.35 365.6 424.35 368.0 424.35 369.0 426.85 371.5 L429.35 370.25 Q429.35 368.7 431.35 365.1 M426.35 322.25 Q426.35 320.3 426.05 319.95 425.65 319.5 423.85 319.5 420.55 319.5 418.15 338.5 416.35 352.55 416.35 358.75 416.35 370.4 418.85 373.5 419.85 373.25 421.1 372.5 421.4 363.15 423.95 346.5 426.35 330.9 426.35 322.25 M401.35 356.25 L404.4 366.0 Q408.2 375.5 411.85 375.5 413.4 375.5 413.85 374.8 L414.35 373.5 Q413.35 371.75 409.7 363.3 407.0 357.15 403.85 353.5 L402.05 354.15 Q401.35 354.6 401.35 356.25 M470.35 268.25 L468.6 261.6 Q467.35 258.0 464.85 256.5 462.35 257.15 462.35 259.85 462.35 261.85 463.35 265.35 464.85 270.5 467.35 270.5 469.6 270.5 470.35 268.25 M485.05 243.75 L482.85 243.5 Q481.2 243.5 477.15 254.25 473.35 264.4 473.35 266.25 473.35 269.6 475.85 270.5 476.85 270.25 478.1 269.5 478.15 268.45 481.8 258.15 485.35 248.0 485.35 245.85 485.35 244.0 485.05 243.75 M361.1 170.75 L361.35 162.85 361.25 158.7 Q360.8 156.0 358.85 154.5 356.8 155.75 356.4 159.2 356.15 160.95 356.35 162.75 356.35 169.25 358.85 171.5 L361.1 170.75 M378.35 143.85 Q378.35 142.3 377.55 141.95 L375.85 141.5 Q371.9 142.8 366.5 153.45 361.35 163.65 361.35 168.6 361.35 171.7 363.85 172.5 L366.35 171.25 Q366.8 163.9 372.65 153.7 378.35 144.8 378.35 143.85 M248.35 108.35 Q248.35 109.0 251.85 114.6 255.55 120.5 256.85 120.5 259.35 120.5 259.1 119.5 L259.35 116.85 Q254.1 105.5 250.85 105.5 249.05 105.5 248.65 106.0 248.35 106.4 248.35 108.35 M206.6 181.0 L209.35 181.5 Q215.35 158.0 215.35 154.25 215.35 152.3 215.05 151.95 214.65 151.5 212.85 151.5 209.55 151.5 207.65 164.5 206.35 173.25 206.35 178.75 206.35 181.25 206.6 181.0 M200.35 181.5 Q199.95 177.25 197.05 171.3 L191.85 161.5 190.05 162.15 Q189.35 162.6 189.35 164.25 189.35 166.15 192.4 173.65 195.65 181.7 197.85 183.5 199.45 182.85 200.35 181.5 M197.35 379.85 Q197.35 378.3 197.1 378.35 L196.85 378.75 196.5 377.85 Q196.35 377.5 194.85 377.5 193.2 377.5 188.15 383.0 183.35 388.15 183.35 388.75 183.35 390.3 183.55 390.55 L184.35 391.0 186.85 391.5 Q197.35 383.35 197.35 379.85 M180.35 360.25 Q180.35 358.65 179.55 358.15 L177.85 357.5 Q173.65 363.15 172.7 368.35 172.35 370.5 172.35 379.6 172.35 387.95 174.85 389.5 L177.1 388.75 Q177.4 383.4 178.95 373.4 180.35 364.6 180.35 360.25 M245.65 248.7 Q245.35 248.95 245.35 250.75 251.35 268.5 251.85 268.5 254.35 268.5 254.1 267.75 L254.35 265.1 Q253.25 248.5 247.85 248.5 L245.65 248.7 M272.55 237.95 L270.85 237.5 Q266.7 239.9 263.15 251.15 261.35 256.85 260.35 262.25 260.35 265.6 262.85 266.5 L265.1 265.75 Q265.1 265.3 269.25 253.95 273.35 242.55 273.35 239.85 273.35 238.3 272.55 237.95 M158.6 374.0 L158.35 376.25 Q158.35 377.5 160.35 381.5 162.85 386.5 165.35 386.5 167.85 386.5 168.35 385.25 168.1 382.95 165.6 378.5 162.8 373.5 160.85 373.5 L159.05 373.75 158.6 374.0 M67.5 280.25 L67.1 273.8 Q66.9 269.9 64.0 268.5 61.5 270.45 61.5 274.6 61.5 279.5 61.75 281.0 62.4 284.95 65.0 287.5 L67.5 286.25 67.5 280.25 M88.7 232.95 L87.0 232.5 Q84.2 235.9 79.25 254.3 74.5 271.9 74.5 276.75 74.5 280.3 74.65 281.25 75.1 283.9 77.0 285.5 L79.25 284.75 82.0 260.0 Q82.35 256.5 86.05 246.85 89.5 237.75 89.5 234.85 89.5 233.3 88.7 232.95" fill="#c4ffc9" fill-rule="evenodd" stroke="none"/>
      <path d="M264.1 101.8 L264.55 97.85 264.75 96.6 Q266.3 86.05 268.85 84.5 271.35 85.95 271.35 90.6 L271.05 96.55 270.5 101.8 269.95 105.6 Q268.4 116.6 268.1 121.75 L265.85 122.5 Q264.55 121.25 263.8 118.2 263.35 116.25 263.35 115.25 263.35 108.7 264.1 101.8 M531.55 138.95 Q532.35 139.3 532.35 140.85 532.35 142.9 528.35 154.5 524.35 166.1 524.35 168.25 L521.85 169.5 Q519.35 166.8 519.35 164.1 519.35 156.05 529.85 138.5 L531.55 138.95 M515.1 168.5 Q513.85 169.25 512.85 169.5 511.7 167.3 510.5 162.65 509.35 158.1 509.35 155.85 509.35 151.5 511.85 151.5 513.85 151.5 515.35 163.25 L515.1 168.5 M378.35 143.85 Q378.35 144.8 372.65 153.7 366.8 163.9 366.35 171.25 L363.85 172.5 Q361.35 171.7 361.35 168.6 361.35 163.65 366.5 153.45 371.9 142.8 375.85 141.5 L377.55 141.95 Q378.35 142.3 378.35 143.85 M361.1 170.75 L358.85 171.5 Q356.35 169.25 356.35 162.75 356.15 160.95 356.4 159.2 356.8 155.75 358.85 154.5 360.8 156.0 361.25 158.7 L361.35 162.85 361.1 170.75 M485.05 243.75 Q485.35 244.0 485.35 245.85 485.35 248.0 481.8 258.15 478.15 268.45 478.1 269.5 476.85 270.25 475.85 270.5 473.35 269.6 473.35 266.25 473.35 264.4 477.15 254.25 481.2 243.5 482.85 243.5 L485.05 243.75 M470.35 268.25 Q469.6 270.5 467.35 270.5 464.85 270.5 463.35 265.35 462.35 261.85 462.35 259.85 462.35 257.15 464.85 256.5 467.35 258.0 468.6 261.6 L470.35 268.25 M401.35 356.25 Q401.35 354.6 402.05 354.15 L403.85 353.5 Q407.0 357.15 409.7 363.3 413.35 371.75 414.35 373.5 L413.85 374.8 Q413.4 375.5 411.85 375.5 408.2 375.5 404.4 366.0 L401.35 356.25 M426.35 322.25 Q426.35 330.9 423.95 346.5 421.4 363.15 421.1 372.5 419.85 373.25 418.85 373.5 416.35 370.4 416.35 358.75 416.35 352.55 418.15 338.5 420.55 319.5 423.85 319.5 425.65 319.5 426.05 319.95 426.35 320.3 426.35 322.25 M431.35 365.1 Q429.35 368.7 429.35 370.25 L426.85 371.5 Q424.35 369.0 424.35 368.0 424.35 365.6 425.65 363.1 427.4 359.65 430.85 358.5 L432.55 358.95 Q433.35 359.3 433.35 360.85 433.35 361.45 431.35 365.1 M525.65 381.0 Q526.05 380.5 527.85 380.5 532.35 380.5 535.95 389.05 L535.55 387.15 Q535.35 385.85 535.35 381.5 535.35 368.6 538.85 366.5 L540.55 367.15 Q541.35 367.65 541.35 369.25 L540.1 391.75 537.85 392.5 Q536.95 391.45 536.35 390.15 L536.2 391.4 535.85 391.5 535.6 392.2 533.85 392.5 Q530.95 392.5 527.9 388.1 525.35 384.45 525.35 383.35 525.35 381.4 525.65 381.0 M200.35 181.5 Q199.45 182.85 197.85 183.5 195.65 181.7 192.4 173.65 189.35 166.15 189.35 164.25 189.35 162.6 190.05 162.15 L191.85 161.5 197.05 171.3 Q199.95 177.25 200.35 181.5 M206.6 181.0 Q206.35 181.25 206.35 178.75 206.35 173.25 207.65 164.5 209.55 151.5 212.85 151.5 214.65 151.5 215.05 151.95 215.35 152.3 215.35 154.25 215.35 158.0 209.35 181.5 L206.6 181.0 M248.35 108.35 Q248.35 106.4 248.65 106.0 249.05 105.5 250.85 105.5 254.1 105.5 259.35 116.85 L259.1 119.5 Q259.35 120.5 256.85 120.5 255.55 120.5 251.85 114.6 248.35 109.0 248.35 108.35 M88.7 232.95 Q89.5 233.3 89.5 234.85 89.5 237.75 86.05 246.85 82.35 256.5 82.0 260.0 L79.25 284.75 77.0 285.5 Q75.1 283.9 74.65 281.25 74.5 280.3 74.5 276.75 74.5 271.9 79.25 254.3 84.2 235.9 87.0 232.5 L88.7 232.95 M67.5 280.25 L67.5 286.25 65.0 287.5 Q62.4 284.95 61.75 281.0 61.5 279.5 61.5 274.6 61.5 270.45 64.0 268.5 66.9 269.9 67.1 273.8 L67.5 280.25 M158.6 374.0 L159.05 373.75 160.85 373.5 Q162.8 373.5 165.6 378.5 168.1 382.95 168.35 385.25 167.85 386.5 165.35 386.5 162.85 386.5 160.35 381.5 158.35 377.5 158.35 376.25 L158.6 374.0 M272.55 237.95 Q273.35 238.3 273.35 239.85 273.35 242.55 269.25 253.95 265.1 265.3 265.1 265.75 L262.85 266.5 Q260.35 265.6 260.35 262.25 261.35 256.85 263.15 251.15 266.7 239.9 270.85 237.5 L272.55 237.95 M245.65 248.7 L247.85 248.5 Q253.25 248.5 254.35 265.1 L254.1 267.75 Q254.35 268.5 251.85 268.5 251.35 268.5 245.35 250.75 245.35 248.95 245.65 248.7 M180.35 360.25 Q180.35 364.6 178.95 373.4 177.4 383.4 177.1 388.75 L174.85 389.5 Q172.35 387.95 172.35 379.6 172.35 370.5 172.7 368.35 173.65 363.15 177.85 357.5 L179.55 358.15 Q180.35 358.65 180.35 360.25 M197.35 379.85 Q197.35 383.35 186.85 391.5 L184.35 391.0 183.55 390.55 Q183.35 390.3 183.35 388.75 183.35 388.15 188.15 383.0 193.2 377.5 194.85 377.5 196.35 377.5 196.5 377.85 L196.85 378.75 197.1 378.35 Q197.35 378.3 197.35 379.85" fill="#acfeab" fill-rule="evenodd" stroke="none"/>
      <path d="M2.55 -10.7 L2.0 -10.05 Q-6.5 0.45 -6.5 10.35 -6.5 15.7 -0.05 18.25 L0.0 18.25 Q3.65 19.7 4.45 20.2 6.5 21.55 6.5 23.75 L2.5 34.6 Q0.9 38.9 -0.05 42.65 -1.5 48.2 -1.5 52.6 -1.5 57.0 -1.0 58.9 L-0.05 61.15 Q0.95 62.95 2.8 64.3 10.1 69.5 34.0 69.5 36.0 69.5 36.35 72.05 L36.75 76.0 48.45 75.25 52.5 74.5 Q55.15 74.5 55.8 76.4 L56.5 79.5 Q59.6 85.9 64.4 85.35 L66.4 84.95 Q65.95 68.0 66.0 56.8 66.05 42.2 67.25 36.75 L65.75 36.25 Q65.05 35.85 65.2 35.35 L65.5 34.75 67.8 34.8 Q68.3 33.5 69.0 33.5 69.7 33.5 70.2 35.1 L74.55 35.15 Q84.65 34.45 89.5 25.25 93.5 16.5 96.5 16.5 106.7 16.5 109.65 19.65 L110.0 19.5 110.25 20.35 110.5 20.85 110.5 21.35 Q114.75 37.25 119.35 57.35 120.35 56.4 122.6 55.3 126.2 53.5 127.0 53.5 127.6 53.5 133.3 59.4 138.95 65.25 139.75 65.25 154.35 65.25 156.4 63.7 L157.7 62.0 Q158.6 60.7 161.0 59.75 165.55 57.9 175.95 57.45 184.3 57.05 189.35 53.0 L201.1 43.6 Q202.1 42.55 202.3 41.3 L202.35 37.6 Q202.35 32.5 201.05 29.35 199.25 25.2 194.35 21.5 197.75 16.75 208.9 4.8 L212.75 -0.05 Q217.35 -6.35 218.2 -10.7 L223.25 -10.7 Q222.55 -6.1 218.7 -0.05 L216.15 3.6 201.85 20.5 207.05 30.85 Q207.35 31.8 207.35 38.1 L207.5 43.55 Q207.5 45.4 206.7 46.5 206.2 47.2 194.1 56.5 190.75 59.1 170.45 64.8 150.25 70.5 144.5 70.5 135.6 70.5 130.5 66.0 127.6 63.45 126.4 62.75 123.85 61.3 120.15 61.05 L124.05 78.8 130.15 107.9 Q172.15 101.55 214.85 96.75 L264.75 96.6 264.55 97.85 264.1 101.8 Q235.0 101.95 220.0 102.6 202.35 103.4 188.4 105.65 L155.25 111.55 131.7 115.2 136.5 138.5 136.5 148.25 136.4 148.3 Q135.7 152.25 129.55 155.05 119.7 159.5 98.0 159.5 69.05 159.5 60.45 153.25 57.7 151.25 57.35 148.8 L57.5 146.5 57.55 146.45 57.5 145.85 Q57.5 142.85 60.6 125.2 49.2 127.55 37.75 130.75 L37.35 130.9 36.15 131.25 35.8 131.35 35.4 131.45 35.0 131.55 34.6 131.65 34.3 131.75 33.2 132.1 32.9 132.2 32.35 132.35 1.95 143.8 1.5 144.0 -0.05 144.8 -3.5 146.55 -7.0 148.5 -8.8 147.7 Q-9.5 147.05 -9.5 145.35 -9.5 141.1 -0.05 136.5 16.4 128.5 61.55 119.6 L62.0 117.1 Q66.5 91.95 66.5 88.5 L66.45 86.35 61.5 86.5 Q54.85 86.5 52.85 84.5 52.15 83.8 51.85 82.75 L51.5 81.25 Q47.7 80.2 24.0 76.4 5.45 73.4 2.25 70.5 L-0.05 68.35 Q-5.3 63.4 -6.2 60.95 -6.7 59.55 -6.65 57.4 L-6.5 52.5 Q-6.5 37.45 -0.05 26.8 L1.25 24.75 -0.05 24.05 Q-9.0 19.0 -10.65 16.75 -11.5 15.6 -11.6 14.05 L-11.5 10.5 Q-11.5 4.55 -5.25 -8.1 L-3.9 -10.7 2.55 -10.7 M345.9 -10.7 Q342.0 -7.5 340.35 -4.0 L339.9 -3.8 Q339.1 -2.05 336.9 -0.1 L336.85 -0.05 329.35 5.6 Q318.35 13.5 318.35 19.85 318.35 22.4 326.35 23.8 334.35 25.2 334.35 27.25 334.35 29.45 332.35 35.55 330.35 41.65 330.35 43.35 330.35 50.25 335.95 53.4 343.05 57.35 365.1 60.25 375.4 61.6 378.15 64.5 379.2 65.6 379.5 67.2 L379.85 70.1 Q380.5 73.6 385.1 75.4 391.25 77.85 406.6 78.85 L406.8 78.8 409.35 78.5 411.05 78.75 412.35 71.5 Q412.1 52.15 412.15 39.8 412.2 25.2 412.85 19.75 L412.55 19.55 Q412.35 19.3 412.35 17.75 412.35 16.35 415.85 14.5 419.6 12.5 423.35 12.5 426.1 12.5 428.25 17.0 430.4 21.5 432.85 21.5 L444.85 18.5 Q449.05 18.5 451.55 21.75 454.9 23.7 459.5 44.05 463.15 60.1 465.7 77.85 L471.3 77.05 Q482.1 74.55 486.1 68.5 L489.7 62.75 Q493.55 57.5 496.35 57.5 498.25 57.5 502.55 59.4 506.8 61.25 507.85 61.25 525.45 61.25 531.15 44.95 534.0 36.8 533.35 28.35 533.35 26.5 535.4 25.25 536.05 24.85 539.85 23.2 546.35 20.35 546.35 15.35 546.35 7.85 541.8 1.4 L540.7 -0.05 Q533.9 -8.4 520.6 -8.75 520.35 -7.75 520.35 -10.25 L520.35 -10.55 519.35 -10.5 519.05 -10.7 535.95 -10.7 Q544.15 -7.75 548.15 -0.05 L548.4 0.5 Q551.35 6.55 551.35 15.1 L551.25 18.7 Q551.05 19.65 550.2 20.4 542.1 27.25 540.85 28.5 538.95 30.5 537.95 33.7 L536.35 41.25 Q534.85 50.05 528.95 57.4 521.55 66.5 511.35 66.5 507.1 66.5 502.05 64.65 L497.6 62.75 Q495.55 62.75 493.9 65.7 L490.25 72.15 Q483.65 81.5 466.85 81.5 L466.4 81.5 471.7 105.0 474.25 116.8 Q486.5 120.85 493.35 122.0 L531.9 126.8 Q546.35 128.55 552.3 130.0 556.35 131.0 556.35 131.85 556.35 133.9 554.85 134.25 L552.35 134.45 552.3 134.45 548.35 134.5 547.35 134.5 Q528.15 134.35 503.8 129.4 L475.45 122.9 Q477.35 132.75 477.35 135.6 L477.3 137.6 477.35 138.25 Q477.35 142.45 471.4 146.05 464.0 150.5 451.35 150.5 437.15 150.5 417.4 140.8 409.85 137.1 404.5 133.35 401.8 131.45 400.5 130.2 L399.6 130.0 Q399.4 130.2 399.35 128.4 L399.35 128.15 399.35 127.75 399.4 127.6 Q399.4 126.3 399.65 126.0 L399.7 125.95 Q400.55 122.0 403.7 109.4 347.95 101.75 284.1 101.75 L270.5 101.8 271.05 96.55 284.85 96.5 Q329.0 96.5 345.8 97.0 362.35 97.5 372.7 99.05 379.55 100.1 397.65 103.6 L404.85 104.8 405.1 103.85 410.0 83.5 409.35 83.5 408.45 83.45 Q408.0 83.85 407.35 84.05 L396.35 84.5 Q381.55 84.5 376.7 76.9 374.35 73.25 374.35 66.0 341.65 63.6 331.4 56.6 327.35 53.8 326.1 49.9 325.35 47.65 325.35 42.85 325.35 38.5 327.35 30.0 L327.35 29.75 Q317.2 28.15 314.7 25.8 313.35 24.6 313.35 20.5 313.35 13.15 321.65 5.4 323.4 3.8 328.1 -0.05 L329.6 -1.3 336.35 -7.05 Q336.4 -8.55 338.7 -10.7 L345.9 -10.7 M416.4 20.35 Q418.15 27.65 417.35 48.85 417.35 63.7 414.15 91.25 413.2 99.45 412.1 105.95 L411.3 110.5 Q408.85 123.4 405.85 128.0 L406.6 128.55 416.65 135.25 Q433.4 145.0 451.35 145.0 466.35 145.0 470.4 141.3 L472.5 138.15 Q473.0 137.2 473.65 136.5 471.7 130.05 469.45 121.55 L467.7 114.7 Q463.25 97.3 457.85 72.65 449.4 34.15 448.5 26.05 L445.1 23.75 Q443.45 23.75 437.35 26.15 L431.35 28.5 Q428.55 28.5 425.9 23.4 423.2 18.25 422.1 18.25 420.85 18.25 418.75 19.4 L416.4 20.35 M94.15 30.25 Q92.7 37.5 78.5 37.5 L70.7 37.25 Q72.0 44.95 71.5 68.5 L71.0 87.4 Q70.25 104.6 69.25 109.0 68.15 113.65 67.2 118.5 L66.1 124.15 Q64.05 135.1 62.55 147.2 L66.3 149.9 Q73.35 154.25 78.0 154.25 124.9 154.25 129.9 149.4 130.7 148.6 130.25 146.0 130.0 144.8 132.65 144.55 129.65 133.55 125.75 116.05 L124.15 108.8 117.4 76.65 Q107.7 28.75 107.5 23.2 L98.35 23.0 Q95.4 23.0 94.75 25.25 94.4 26.65 94.15 30.25" fill="#000000" fill-rule="evenodd" stroke="none"/>
      <path d="M416.4 20.35 L418.75 19.4 Q420.85 18.25 422.1 18.25 423.2 18.25 425.9 23.4 428.55 28.5 431.35 28.5 L437.35 26.15 Q443.45 23.75 445.1 23.75 L448.5 26.05 Q449.4 34.15 457.85 72.65 463.25 97.3 467.7 114.7 L469.45 121.55 Q471.7 130.05 473.65 136.5 473.0 137.2 472.5 138.15 L470.4 141.3 Q466.35 145.0 451.35 145.0 433.4 145.0 416.65 135.25 L406.6 128.55 405.85 128.0 Q408.85 123.4 411.3 110.5 L412.1 105.95 Q413.2 99.45 414.15 91.25 417.35 63.7 417.35 48.85 418.15 27.65 416.4 20.35 M94.15 30.25 Q94.4 26.65 94.75 25.25 95.4 23.0 98.35 23.0 L107.5 23.2 Q107.7 28.75 117.4 76.65 L124.15 108.8 125.75 116.05 Q129.65 133.55 132.65 144.55 130.0 144.8 130.25 146.0 130.7 148.6 129.9 149.4 124.9 154.25 78.0 154.25 73.35 154.25 66.3 149.9 L62.55 147.2 Q64.05 135.1 66.1 124.15 L67.2 118.5 Q68.15 113.65 69.25 109.0 70.25 104.6 71.0 87.4 L71.5 68.5 Q72.0 44.95 70.7 37.25 L78.5 37.5 Q92.7 37.5 94.15 30.25" fill="#8d761d" fill-rule="evenodd" stroke="none"/>
    </g>
    <linearGradient gradientTransform="matrix(-5.0E-4, 0.5508, -0.7455, -3.0E-4, -288.55, 448.9)" gradientUnits="userSpaceOnUse" id="gradient0" spreadMethod="pad" x1="-819.2" x2="819.2">
      <stop offset="0.0" stop-color="#aaddff"/>
      <stop offset="1.0" stop-color="#e6f0ff"/>
    </linearGradient>
  </defs>
</svg>
