<?xml version="1.0" encoding="UTF-8" standalone="no"?>
<svg xmlns:xlink="http://www.w3.org/1999/xlink" height="842.55px" width="1337.95px" xmlns="http://www.w3.org/2000/svg">
  <g transform="matrix(1, 0, 0, 1, 407.45, 285.05)">
    <use height="4.5" transform="matrix(5.4867, 0.0, 0.0, 81.5667, 3.2875, 23.0167)" width="99.75" xlink:href="#shape0"/>
    <use height="401.85" transform="matrix(1.0, 0.0, 0.0, 1.0, -7.5, -1.5)" width="575.45" xlink:href="#shape1"/>
  </g>
  <defs>
    <g id="shape0" transform="matrix(1, 0, 0, 1, 49.85, -2.5)">
      <path d="M49.9 7.0 L-49.85 7.0 -49.85 2.5 49.9 2.5 49.9 7.0" fill="#ffffff" fill-rule="evenodd" stroke="none"/>
    </g>
    <g id="shape1" transform="matrix(1, 0, 0, 1, 7.5, 1.5)">
      <path d="M-1.1 193.5 Q-3.9 184.75 -3.95 171.6 -3.25 154.25 -3.5 146.5 -3.85 136.25 -3.7 116.5 L-3.5 97.0 -3.35 47.05 Q-2.95 17.75 -1.0 -1.5 L548.85 -1.5 Q550.45 -0.85 551.35 0.5 L551.35 172.85 449.85 170.5 Q402.45 170.5 396.4 171.0 L394.55 171.25 394.4 165.35 Q393.95 158.85 392.35 156.65 392.35 155.4 392.1 155.25 L391.85 155.0 383.8 154.05 375.35 153.5 370.2 153.95 369.4 154.1 369.45 133.4 Q369.55 118.6 367.35 109.45 367.35 107.25 368.75 105.95 360.95 107.5 336.85 107.5 L308.85 108.0 307.4 108.05 307.45 101.5 308.35 101.5 Q324.4 101.5 327.4 96.5 329.0 93.95 327.35 90.5 L327.35 82.25 326.85 80.75 317.0 79.85 305.85 79.5 Q287.55 79.5 284.3 83.5 283.25 84.85 283.65 86.95 L284.35 89.85 Q284.35 97.0 284.6 100.0 L296.75 100.95 302.35 101.25 Q302.15 103.75 302.35 108.1 L286.65 108.95 284.35 108.5 281.35 109.8 281.35 13.5 281.4 13.15 Q274.6 10.1 267.7 11.0 L231.95 12.2 186.25 11.25 Q164.5 10.55 160.7 12.75 156.85 14.9 156.7 28.2 157.35 50.6 157.35 69.85 L157.35 109.0 Q150.7 107.5 143.0 107.5 L130.0 108.0 128.15 108.45 128.5 64.85 Q129.15 29.75 127.05 12.7 L127.0 12.75 126.55 12.65 Q126.3 12.05 127.2 11.8 L122.65 12.35 Q111.55 11.85 72.5 11.5 L19.0 11.75 17.5 13.0 17.5 14.5 17.9 14.55 Q16.1 18.6 16.1 24.9 L16.5 38.5 Q16.1 47.5 16.5 65.5 16.5 73.8 17.0 94.5 L19.0 118.5 19.5 118.3 Q19.55 120.05 20.5 121.0 63.35 121.55 88.75 122.15 83.6 124.95 80.15 128.0 74.45 133.0 72.25 139.45 70.5 144.55 70.5 152.35 70.5 156.25 71.15 158.55 70.5 159.5 70.5 160.35 70.5 163.6 72.6 166.25 73.1 174.8 76.15 187.3 L77.6 193.5 -1.1 193.5 M369.35 160.25 L369.35 159.0 373.35 159.3 369.35 160.25 M197.35 165.7 L197.35 158.75 Q194.25 138.8 184.55 126.25 199.5 125.5 219.35 125.5 L254.6 125.15 254.35 126.25 Q254.35 128.35 255.35 129.5 L255.35 165.35 Q255.35 170.1 254.25 179.9 249.8 184.0 244.4 192.2 L243.55 193.5 196.6 193.5 197.05 190.75 Q199.35 177.25 199.35 167.85 L199.1 166.25 198.85 166.0 197.35 165.7 M45.25 36.4 L45.25 36.5 45.1 36.5 45.25 36.4 M48.85 36.65 L49.15 36.8 48.75 37.75 48.55 37.25 48.85 36.85 48.85 36.7 48.85 36.65 M49.75 31.15 L49.75 31.1 49.9 31.0 49.75 31.15 M46.2 31.0 L48.05 29.5 48.3 30.1 46.2 31.0" fill="#ffe6e6" fill-rule="evenodd" stroke="none"/>
      <path d="M552.1 321.1 L552.05 321.9 Q551.9 340.95 552.35 350.75 552.75 358.5 551.65 374.4 551.65 388.35 557.35 397.35 557.35 399.3 554.85 400.35 L0.0 400.35 Q-2.75 390.15 -2.8 374.85 -2.3 357.55 -2.5 349.0 L-2.5 297.85 Q-2.75 271.1 -2.45 245.5 -2.0 208.8 -0.4 198.5 L78.65 198.5 Q80.35 207.05 80.75 212.5 81.25 219.9 81.7 243.05 82.2 254.0 83.5 258.8 L83.5 260.5 84.65 261.6 85.3 262.3 86.25 263.3 Q89.25 265.8 94.85 267.7 112.25 273.5 153.5 273.5 165.05 273.5 180.05 266.5 185.65 263.9 189.7 261.25 193.5 258.75 193.5 257.85 193.5 256.0 193.2 255.75 L192.45 255.55 192.15 235.15 Q192.1 221.95 193.25 213.25 L195.75 198.5 240.5 198.5 Q238.35 202.3 238.35 203.75 238.35 205.3 238.55 205.55 L239.35 206.0 240.1 206.2 Q238.15 210.95 238.8 219.35 L240.3 231.45 Q241.35 239.0 241.35 243.1 L240.4 259.15 Q239.8 275.0 241.35 283.25 242.1 287.2 243.9 303.7 244.85 312.4 246.45 318.75 L245.8 318.9 Q245.35 319.15 245.35 320.75 245.35 323.5 247.85 323.5 L419.85 324.5 Q486.2 324.5 495.5 322.2 502.05 320.6 552.1 321.1" fill="#b10101" fill-rule="evenodd" stroke="none"/>
      <path d="M551.35 172.85 L557.6 173.0 558.4 173.05 559.9 173.1 559.95 173.1 564.95 173.35 564.95 178.5 564.85 178.5 561.35 178.25 556.9 177.9 551.35 177.55 502.35 176.0 Q453.65 175.7 410.6 175.85 L394.6 175.25 Q394.45 175.9 394.4 175.05 L394.35 175.5 Q394.35 176.75 394.9 183.3 395.3 189.95 394.35 193.5 394.0 194.95 383.25 198.5 L370.7 202.35 537.85 202.0 551.85 201.5 552.1 201.5 558.05 201.75 561.35 201.9 564.05 202.05 564.95 202.1 564.95 207.55 564.65 207.55 562.3 207.55 559.55 207.55 557.3 207.55 409.65 207.5 408.75 207.5 409.85 207.5 Q267.75 207.25 244.95 206.55 246.6 215.65 246.65 228.5 L246.35 256.75 Q246.55 264.7 248.5 284.1 250.35 302.35 250.35 311.85 L250.3 318.75 Q349.9 318.5 351.85 318.75 484.85 318.75 487.85 318.5 L495.0 316.95 531.35 315.5 531.7 315.5 532.05 315.5 534.15 315.5 535.0 315.5 535.3 315.5 535.75 315.5 558.5 316.05 563.1 316.35 567.95 317.0 567.95 321.25 552.1 321.1 Q502.05 320.6 495.5 322.2 486.2 324.5 419.85 324.5 L247.85 323.5 Q245.35 323.5 245.35 320.75 245.35 319.15 245.8 318.9 L246.45 318.75 Q244.85 312.4 243.9 303.7 242.1 287.2 241.35 283.25 239.8 275.0 240.4 259.15 L241.35 243.1 Q241.35 239.0 240.3 231.45 L238.8 219.35 Q238.15 210.95 240.1 206.2 L239.35 206.0 238.55 205.55 Q238.35 205.3 238.35 203.75 238.35 202.3 240.5 198.5 L195.75 198.5 193.25 213.25 Q192.1 221.95 192.15 235.15 L192.45 255.55 193.2 255.75 Q193.5 256.0 193.5 257.85 193.5 258.75 189.7 261.25 185.65 263.9 180.05 266.5 165.05 273.5 153.5 273.5 112.25 273.5 94.85 267.7 89.25 265.8 86.25 263.3 L85.3 262.3 84.65 261.6 83.5 260.5 83.5 258.8 Q82.2 254.0 81.7 243.05 81.25 219.9 80.75 212.5 80.35 207.05 78.65 198.5 L-0.4 198.5 -5.0 198.5 Q-7.5 197.65 -7.5 195.0 L-5.0 193.5 -1.1 193.5 77.6 193.5 76.15 187.3 Q73.1 174.8 72.6 166.25 70.5 163.6 70.5 160.35 70.5 159.5 71.15 158.55 70.5 156.25 70.5 152.35 70.5 144.55 72.25 139.45 74.45 133.0 80.15 128.0 83.6 124.95 88.75 122.15 63.35 121.55 20.5 121.0 19.55 120.05 19.5 118.3 L19.0 118.5 17.0 94.5 Q16.5 73.8 16.5 65.5 16.1 47.5 16.5 38.5 L16.1 24.9 Q16.1 18.6 17.9 14.55 L17.5 14.5 17.5 13.0 19.0 11.75 72.5 11.5 Q111.55 11.85 122.65 12.35 L127.2 11.8 Q126.3 12.05 126.55 12.65 L127.0 12.75 127.05 12.7 Q129.15 29.75 128.5 64.85 L128.15 108.45 130.0 108.0 143.0 107.5 Q150.7 107.5 157.35 109.0 L157.35 69.85 Q157.35 50.6 156.7 28.2 156.85 14.9 160.7 12.75 164.5 10.55 186.25 11.25 L231.95 12.2 267.7 11.0 Q274.6 10.1 281.4 13.15 L281.35 13.5 281.35 109.8 284.35 108.5 286.65 108.95 302.35 108.1 Q302.15 103.75 302.35 101.25 L296.75 100.95 284.6 100.0 Q284.35 97.0 284.35 89.85 L283.65 86.95 Q283.25 84.85 284.3 83.5 287.55 79.5 305.85 79.5 L317.0 79.85 326.85 80.75 327.35 82.25 327.35 90.5 Q329.0 93.95 327.4 96.5 324.4 101.5 308.35 101.5 L307.45 101.5 307.4 108.05 308.85 108.0 336.85 107.5 Q360.95 107.5 368.75 105.95 367.35 107.25 367.35 109.45 369.55 118.6 369.45 133.4 L369.4 154.1 370.2 153.95 375.35 153.5 383.8 154.05 391.85 155.0 392.1 155.25 Q392.35 155.4 392.35 156.65 393.95 158.85 394.4 165.35 L394.55 171.25 396.4 171.0 Q402.45 170.5 449.85 170.5 L551.35 172.85 M363.45 117.55 L359.9 121.3 Q351.9 129.25 346.25 129.5 L346.35 130.5 346.35 145.5 345.3 193.5 345.2 198.5 345.1 201.75 343.35 202.4 356.4 202.35 Q356.9 200.4 362.0 198.5 363.65 197.9 365.8 197.25 L377.55 193.5 Q381.35 192.1 383.35 191.0 388.05 188.4 389.05 183.8 389.35 182.5 389.35 175.75 389.35 166.0 388.85 161.25 386.2 161.8 379.3 164.0 374.5 165.5 370.85 165.5 365.4 165.5 364.4 153.75 L364.35 136.5 Q363.5 126.15 363.4 120.5 363.35 118.95 363.45 117.55 M341.65 137.3 Q341.65 130.75 340.1 130.75 L260.35 131.0 260.2 193.5 260.15 198.5 260.1 202.6 342.8 202.4 Q342.15 200.55 341.65 198.5 L340.65 193.5 Q339.35 185.2 339.8 174.25 341.35 154.7 341.35 145.75 L341.65 137.3 M350.15 123.75 Q359.2 119.85 360.35 112.75 L307.35 113.0 307.1 119.5 Q305.85 120.25 304.85 120.5 303.0 118.85 302.55 113.0 L286.75 113.05 Q285.4 115.35 281.35 117.95 278.8 119.55 275.15 121.3 L267.1 125.0 265.05 125.9 264.4 126.25 277.8 125.85 Q294.35 125.5 300.35 125.5 333.95 125.9 341.75 126.45 343.25 125.7 350.15 123.75 M369.35 160.25 L373.35 159.3 369.35 159.0 369.35 160.25 M479.35 221.25 L479.35 296.25 Q479.35 298.2 478.35 299.0 478.0 299.25 434.85 299.5 L412.05 299.15 390.6 298.25 390.35 296.75 390.35 260.0 Q390.0 236.9 390.25 230.45 390.65 221.1 393.9 218.75 396.7 216.7 406.95 217.3 L435.35 218.5 Q478.1 219.0 478.85 219.75 L479.35 221.25 M457.1 234.85 L456.4 236.9 456.0 237.1 Q455.35 236.8 455.35 235.55 L455.6 232.25 456.75 232.25 458.75 231.6 Q460.1 231.6 460.35 232.1 L460.35 237.5 459.75 237.85 Q459.05 237.1 459.05 235.6 L459.1 233.0 459.1 232.9 Q457.65 233.4 457.1 234.85 M463.0 231.1 Q464.25 231.1 465.0 232.2 465.6 233.0 465.6 233.55 465.6 236.1 463.6 236.1 461.5 236.1 461.1 234.9 L461.1 233.5 461.15 231.95 Q461.5 231.1 463.0 231.1 M462.9 234.75 Q464.35 234.75 464.35 233.4 463.1 232.25 462.55 232.75 462.1 233.2 462.35 234.5 L462.9 234.75 M447.0 232.85 L446.5 233.0 447.85 233.0 Q447.5 232.6 447.0 232.85 M449.6 233.45 Q449.6 234.3 446.4 234.5 L447.05 235.55 Q447.5 236.05 449.0 235.35 L449.6 235.9 Q449.6 237.1 447.6 237.1 446.15 237.1 445.35 235.45 L444.85 233.75 Q444.85 231.35 447.5 231.35 449.3 231.35 449.6 233.45 M448.75 244.0 L448.25 244.5 447.75 245.25 449.1 244.25 449.1 244.0 448.75 244.0 M450.35 244.1 Q450.35 245.25 449.0 246.25 450.75 247.75 451.1 248.5 L450.5 249.1 Q448.5 247.5 447.6 247.1 L447.6 248.75 447.0 249.1 Q446.35 248.45 446.35 246.4 446.35 244.5 446.5 244.1 446.95 242.6 449.0 242.6 450.8 242.6 450.35 244.1 M453.55 244.85 Q454.45 245.85 454.6 246.6 L454.9 246.6 Q456.25 243.7 456.35 242.25 L457.0 242.1 Q457.6 242.1 457.6 243.0 457.6 244.15 455.35 248.85 454.65 248.85 453.15 246.9 451.75 245.0 451.6 244.15 L452.35 243.85 453.55 244.85 M460.6 245.5 Q460.25 244.5 459.75 244.5 459.65 244.5 459.1 244.85 L458.85 245.4 458.85 245.5 460.6 245.5 M460.0 243.1 Q462.15 243.1 461.85 245.3 462.4 247.5 458.6 246.85 L459.55 247.6 Q460.5 248.2 461.5 247.85 L462.1 248.4 Q462.1 249.6 460.75 249.6 457.35 249.6 457.35 246.75 457.35 243.1 460.0 243.1 M415.25 233.1 L417.5 234.75 Q417.85 235.15 417.85 236.1 L417.75 237.15 417.25 237.35 Q415.8 234.0 412.85 233.4 L412.4 236.4 412.0 236.6 Q411.35 236.3 411.35 235.55 411.35 229.85 414.6 229.85 416.3 229.85 415.85 231.5 415.85 232.8 415.25 233.1 M419.6 232.25 Q420.15 232.25 422.0 230.85 L422.1 230.75 420.85 230.75 Q419.55 230.75 419.45 231.35 L419.6 232.25 M418.35 230.85 Q419.05 229.35 421.75 229.35 423.65 229.35 423.35 230.9 423.35 231.9 421.0 233.4 423.85 235.4 423.85 235.95 L423.75 236.6 Q423.85 236.85 423.25 236.85 420.55 234.55 419.65 234.25 419.9 235.05 419.75 236.35 L419.25 236.6 Q418.1 235.5 418.1 233.3 418.1 231.4 418.35 230.85 M424.6 230.1 L425.25 229.85 Q425.8 229.85 426.05 231.8 L426.35 234.5 Q428.25 233.85 428.2 232.35 L428.1 229.75 428.75 229.6 Q429.55 229.6 429.35 233.55 L429.25 237.25 Q428.5 240.1 425.0 240.1 422.85 240.1 422.85 239.3 422.85 238.65 423.75 238.7 425.3 238.85 427.0 237.75 428.55 236.7 428.1 235.65 425.95 236.35 425.2 235.35 L424.6 233.65 424.6 230.1 M409.15 232.0 Q410.35 233.0 410.35 233.45 410.35 234.15 409.35 235.25 408.35 236.35 407.75 236.35 406.0 236.35 405.25 235.05 404.85 234.3 404.85 233.55 404.85 230.85 406.75 230.85 407.85 230.85 409.15 232.0 M407.95 232.9 L406.5 232.25 Q406.1 232.9 406.1 233.4 406.1 235.0 407.5 235.0 408.45 235.0 408.75 233.5 408.75 233.1 407.95 232.9 M412.85 231.5 L412.85 231.85 413.0 232.0 414.6 231.75 414.6 231.2 414.0 231.25 412.85 231.5 M405.6 245.85 L404.15 246.65 Q404.4 247.1 405.0 247.1 L406.1 246.25 405.9 245.85 405.6 245.85 M407.35 246.0 Q407.35 246.65 406.75 247.5 405.95 248.6 404.85 248.6 402.85 248.6 402.85 246.55 402.85 246.05 404.0 245.15 L405.35 244.35 Q407.7 244.35 407.35 246.0 M409.25 244.6 Q409.7 244.6 409.9 245.5 411.4 245.0 412.6 243.85 414.4 243.85 414.4 245.6 L414.35 248.85 413.75 249.35 Q412.05 249.35 412.85 247.15 L412.85 245.5 412.5 245.25 Q410.65 246.25 409.6 248.5 L409.25 248.6 408.6 248.1 408.6 244.9 Q408.65 244.9 409.25 244.6 M418.0 245.75 L417.5 245.75 416.75 246.25 416.6 246.5 Q417.45 246.5 417.9 245.9 L418.0 245.75 M419.6 246.6 L420.1 249.95 420.1 252.0 Q419.6 253.6 416.75 253.6 413.85 253.6 413.85 251.25 414.1 250.85 414.5 250.85 415.15 250.85 415.4 251.55 415.6 252.25 415.9 252.25 418.4 252.25 418.85 251.1 L418.85 249.75 Q418.85 248.3 418.35 247.35 L416.85 247.85 Q415.65 247.85 415.25 247.25 L415.1 246.6 Q415.1 246.05 416.0 245.25 417.1 244.35 418.25 244.35 420.1 244.35 420.1 245.3 420.1 245.9 419.6 246.6 M423.6 245.15 Q422.6 245.15 422.35 245.75 L423.5 245.5 423.6 245.25 423.6 245.15 M421.25 244.75 Q422.3 243.85 423.5 243.85 425.3 243.85 424.85 245.1 424.85 246.85 422.35 247.25 L425.0 247.5 425.1 247.9 Q425.1 248.85 423.25 248.85 421.95 248.85 421.0 247.65 L420.35 246.4 Q420.35 245.6 421.25 244.75 M436.85 231.4 L437.5 231.1 Q438.55 231.1 438.6 234.0 L440.6 231.85 Q441.75 231.85 441.75 233.85 442.05 233.5 442.2 231.9 442.3 230.6 443.0 230.6 443.8 230.6 443.6 232.15 L443.1 234.25 Q442.5 235.85 441.85 235.85 441.3 235.85 440.85 234.9 L440.4 233.85 Q439.15 235.85 438.35 235.85 437.3 235.85 437.15 235.05 L436.85 233.65 436.85 231.4 M432.0 238.35 L431.35 237.5 431.95 236.35 Q432.55 235.35 433.0 235.1 433.6 235.45 433.6 235.8 L432.0 238.35 M428.35 245.85 L428.65 245.9 429.1 245.0 429.1 244.85 Q428.05 245.2 427.65 245.95 L428.35 245.85 M427.45 246.8 L427.25 249.1 426.75 249.35 Q426.1 249.05 426.1 247.75 426.1 243.35 429.35 243.35 430.65 243.35 430.35 244.65 L429.5 246.85 Q429.5 247.3 430.05 247.85 430.6 248.45 430.6 249.0 L430.5 249.65 Q430.6 249.85 430.0 249.85 429.45 249.85 428.6 248.3 L427.95 247.05 Q427.6 247.0 427.45 246.8 M440.1 245.9 Q440.1 243.6 442.6 243.6 445.45 243.6 445.1 245.55 L445.0 246.6 443.85 246.85 Q442.55 246.85 442.1 246.1 L442.1 245.5 443.75 245.5 Q443.55 245.0 442.55 245.0 441.85 245.0 441.5 245.4 L441.35 245.8 Q441.35 246.65 443.1 247.15 444.85 247.6 444.85 247.9 444.85 248.6 443.0 248.6 441.0 248.6 440.35 247.3 L440.1 245.9 M437.1 245.1 Q437.1 244.0 437.25 243.8 437.6 243.25 439.25 243.1 L440.0 243.25 440.1 243.65 Q440.1 244.4 438.35 244.75 438.35 245.6 440.35 248.05 440.35 249.6 438.0 249.6 436.95 249.6 436.65 249.25 L436.6 248.9 436.75 248.4 Q438.5 248.4 438.75 248.0 L437.25 246.55 Q437.1 246.25 437.1 245.1 M435.0 252.75 Q443.8 252.75 447.9 257.9 L449.5 259.25 Q452.65 262.35 452.65 266.0 452.65 270.15 450.25 274.8 449.15 276.95 447.65 278.55 444.45 283.35 437.85 283.35 433.6 283.35 430.3 281.95 424.55 280.4 421.3 276.1 418.25 272.0 418.25 267.6 418.25 262.35 419.25 260.0 421.4 254.85 427.6 253.95 431.05 252.75 435.0 252.75 M435.1 263.85 L435.75 262.25 433.7 260.55 433.65 260.55 432.75 260.5 Q430.75 260.5 430.1 261.6 L429.85 262.8 Q429.85 263.3 430.35 264.15 L432.0 264.5 Q434.55 264.5 435.1 263.85 M427.25 263.0 Q427.25 257.25 432.25 257.25 437.9 257.25 438.25 261.5 438.5 262.15 438.25 263.35 L438.25 264.4 438.25 265.85 Q438.15 270.4 438.75 271.75 L438.75 275.05 438.05 275.5 438.0 275.85 437.5 276.1 437.35 275.65 Q435.75 274.1 435.75 266.85 L435.75 266.6 432.0 267.25 Q428.0 267.25 427.25 265.2 L427.25 263.0 M428.25 256.5 Q426.4 257.2 425.2 258.4 L423.45 260.35 423.2 260.6 422.85 261.35 Q421.8 263.9 421.85 266.5 421.85 269.55 423.55 273.15 L423.8 273.5 Q427.55 278.5 434.6 278.5 442.3 278.5 445.75 271.75 447.75 267.85 447.75 264.0 L447.75 263.45 Q446.05 260.05 442.15 258.25 437.25 256.65 428.25 256.5 M455.5 269.85 Q456.35 269.85 457.1 270.6 456.85 271.7 455.1 271.25 L457.25 273.55 Q458.35 274.55 458.35 275.35 458.35 277.35 455.5 277.35 454.25 277.35 453.95 277.0 L453.85 276.65 Q453.85 276.4 455.5 276.15 457.1 275.9 457.1 275.4 457.1 274.8 455.5 273.45 453.85 272.1 453.85 271.05 453.85 269.85 455.5 269.85 M461.35 275.85 L461.15 276.4 Q461.35 276.6 460.75 276.6 460.45 276.6 460.15 276.25 L460.1 275.9 Q460.1 275.5 460.75 275.35 461.25 275.65 461.35 275.85 M474.35 223.75 L395.35 223.75 395.35 224.0 Q393.85 224.0 394.4 250.5 L395.35 294.25 474.35 294.0 474.35 223.75 M403.25 228.75 L403.35 229.15 Q403.35 229.65 402.1 230.1 400.5 230.65 399.85 231.25 L401.9 233.45 Q403.6 235.35 403.6 236.1 403.6 236.8 402.75 237.5 401.45 238.6 399.0 238.6 L396.9 238.25 396.85 237.9 Q396.85 237.45 397.85 237.25 L402.35 236.1 Q402.0 234.45 400.2 233.3 398.6 232.25 398.6 231.2 398.6 230.55 399.8 229.55 401.1 228.45 402.25 228.6 L403.25 228.75 M401.85 241.05 Q401.85 242.2 401.25 244.55 400.6 246.85 400.6 248.5 L400.0 248.85 Q399.35 248.35 399.35 246.65 399.35 242.4 401.25 240.35 401.85 240.7 401.85 241.05 M268.2 24.5 Q267.9 24.85 268.25 25.25 L268.25 31.25 270.75 31.25 Q274.9 31.25 275.75 34.05 276.15 35.45 275.75 36.85 L275.75 40.5 Q274.95 42.75 270.75 42.75 260.4 42.75 257.45 41.55 256.6 42.75 255.0 42.75 L252.15 42.35 Q251.65 45.75 248.25 45.75 244.4 45.75 243.85 42.2 L238.5 42.25 229.15 41.85 Q228.45 44.75 224.25 44.75 220.1 44.75 219.25 43.2 L219.25 41.65 217.75 41.75 215.9 41.6 215.5 41.75 215.3 41.4 214.8 41.05 214.75 40.35 214.85 40.1 Q214.25 37.85 214.25 33.35 L214.25 28.3 Q214.25 26.4 214.5 25.75 L215.05 24.55 236.5 24.25 255.45 24.6 Q255.65 24.35 256.0 24.3 L261.75 24.25 268.4 24.25 268.2 24.5 M258.25 33.5 Q258.65 37.05 258.3 39.25 L267.05 40.0 273.25 40.0 273.25 34.0 267.2 33.65 267.0 33.75 266.75 33.55 266.35 33.4 Q265.75 33.15 265.75 32.35 L265.8 31.9 Q265.65 31.2 265.65 30.3 265.95 27.7 265.75 26.8 260.85 27.0 258.25 26.8 L258.25 33.5 M255.75 29.65 L255.75 26.8 254.7 26.8 250.75 26.85 247.45 26.85 243.25 26.9 240.9 26.9 236.25 26.95 236.25 26.9 234.1 26.9 234.05 26.95 229.25 26.95 226.8 26.95 223.25 27.0 223.25 26.95 220.9 27.0 217.05 27.0 216.8 32.65 216.7 34.35 216.55 39.35 217.75 39.25 219.6 39.45 Q219.9 38.55 220.5 37.75 L221.35 36.85 Q222.65 35.75 224.5 35.75 226.8 35.75 228.25 38.0 L228.95 39.25 230.5 39.25 233.85 39.4 235.8 39.5 243.9 39.95 Q244.25 38.8 245.55 37.55 247.25 35.95 248.85 35.8 L249.25 35.75 Q250.25 35.75 250.9 36.15 252.5 37.15 252.3 40.5 L253.2 40.15 253.55 40.1 253.9 40.05 254.05 40.05 255.35 40.0 255.75 40.0 255.75 39.6 255.75 35.85 255.75 29.65 M249.0 39.05 Q247.5 39.05 246.25 40.3 L246.55 42.25 Q246.75 42.8 248.25 42.8 L249.55 42.75 Q249.95 40.75 249.3 39.05 L249.0 39.05 M263.2 85.45 L263.35 86.15 263.35 90.25 262.75 90.6 Q262.0 90.0 262.0 88.6 L262.0 86.5 261.0 87.2 Q260.3 87.8 260.6 88.5 L260.0 88.85 Q259.3 88.15 259.25 86.95 L259.25 85.0 Q256.25 85.35 256.5 88.85 256.6 89.1 256.0 89.1 L255.1 87.05 Q255.1 86.4 256.15 85.15 257.5 83.6 259.1 83.6 260.75 83.6 260.6 85.6 L260.75 85.85 260.8 85.75 Q261.05 85.1 262.1 85.1 263.0 85.1 263.2 85.45 M245.6 84.9 L242.85 87.55 Q242.85 89.85 245.85 89.85 L246.5 90.0 246.6 90.4 Q246.6 91.35 245.0 91.35 243.4 91.35 242.35 89.65 241.6 88.45 241.6 87.8 241.6 84.2 244.5 84.35 L245.5 84.5 245.6 84.9 M248.35 88.3 Q248.35 85.1 250.75 85.1 253.55 85.1 253.35 87.6 253.35 88.3 252.4 89.4 251.4 90.6 250.6 90.6 248.35 90.6 248.35 88.3 M249.6 88.15 Q249.6 89.1 250.4 89.1 252.0 89.1 252.1 87.55 252.1 86.6 250.75 86.6 250.05 86.6 249.75 87.35 L249.6 88.15 M267.1 86.0 L266.75 86.0 Q266.35 86.0 266.35 87.1 L266.35 87.25 267.35 86.45 267.1 86.0 M271.75 84.85 L272.75 85.0 272.85 85.4 272.3 85.85 Q271.5 86.05 271.0 86.6 L270.85 86.75 Q271.4 87.15 273.1 87.95 273.85 88.3 273.85 89.35 273.85 91.1 271.6 91.1 L271.1 91.0 Q270.85 90.7 270.85 90.4 270.85 89.95 272.6 89.25 271.75 88.35 270.45 87.9 269.6 87.6 269.6 86.75 269.6 86.3 270.25 85.65 270.95 84.95 271.75 84.85 M268.6 86.5 L268.45 87.75 Q268.1 88.4 266.35 88.75 266.35 90.4 269.25 90.25 L269.35 90.65 Q269.35 91.35 267.85 91.35 265.55 91.35 265.1 89.65 L265.1 87.95 Q265.1 84.6 267.1 84.6 269.15 84.6 268.6 86.5 M263.25 96.1 L264.35 104.55 264.25 105.4 263.75 105.6 Q263.2 105.25 262.95 104.15 L262.6 102.65 262.6 96.25 263.25 96.1 M289.35 85.0 Q290.8 85.0 290.3 89.3 L289.6 96.75 304.2 96.65 304.85 96.5 305.55 96.65 322.35 96.5 322.35 84.75 289.35 84.75 289.35 85.0 M222.05 42.0 L226.05 42.0 Q226.55 41.75 226.55 40.5 226.55 38.5 224.05 38.5 222.95 38.5 222.4 39.8 L221.8 41.55 222.05 42.0 M162.35 17.0 Q160.85 17.0 161.4 55.8 L162.2 110.35 Q171.85 113.5 179.1 120.2 L260.05 120.05 Q262.9 118.2 267.25 116.1 271.2 114.2 276.35 111.95 L276.35 16.75 162.35 16.75 162.35 17.0 M174.65 66.7 L174.5 66.75 172.7 60.15 172.2 58.15 172.15 58.0 Q168.25 43.2 168.25 39.25 L168.25 38.9 Q167.75 38.5 167.75 37.85 167.75 36.8 175.3 35.6 174.25 33.05 174.25 26.3 174.25 23.25 175.5 23.25 176.65 23.25 177.25 32.25 L177.15 35.35 186.25 34.25 186.25 33.55 187.5 33.25 Q189.1 33.25 188.75 50.75 L188.75 59.75 188.8 59.95 188.9 60.5 189.05 61.0 189.3 61.7 189.45 62.2 Q190.15 64.0 190.05 65.0 189.8 68.25 181.75 68.25 176.0 68.25 174.8 67.55 174.45 67.35 174.55 67.1 L174.75 66.85 174.85 66.8 175.0 66.75 179.7 67.3 180.0 67.35 180.5 67.45 181.05 67.45 Q186.25 67.4 186.25 62.8 L186.25 62.7 186.25 59.4 186.25 44.05 186.25 36.65 180.6 37.85 179.75 37.95 176.4 38.35 174.55 38.55 170.55 39.05 170.35 39.1 170.3 39.1 170.1 39.1 171.35 43.75 171.45 44.0 171.8 45.4 172.15 46.9 174.1 55.1 174.85 58.35 175.75 62.3 175.75 66.05 174.65 66.7 M197.25 55.1 L201.55 55.5 210.6 55.5 Q210.5 54.9 211.4 54.8 L211.05 53.95 210.95 52.7 Q210.35 51.5 202.05 51.5 201.9 51.5 199.75 53.05 197.65 54.6 197.25 55.0 L197.0 55.05 197.25 55.1 M193.85 56.2 L194.25 55.6 Q194.25 53.95 197.75 51.5 201.7 48.75 205.75 48.75 213.1 48.75 215.25 55.85 215.25 57.6 215.0 57.75 L213.25 58.1 213.35 59.05 214.0 58.75 Q215.25 59.45 215.25 60.6 215.25 63.85 214.55 65.0 212.9 67.75 207.0 67.75 198.4 67.75 195.8 65.55 194.75 64.65 194.75 62.6 194.75 60.25 196.5 60.25 L196.75 60.5 196.75 57.75 Q195.05 57.5 194.3 57.1 193.6 56.7 193.85 56.2 M199.25 60.0 L203.25 60.0 Q209.6 59.75 210.85 58.2 L207.75 58.25 199.5 58.05 199.25 60.0 M198.3 62.35 L197.65 62.2 197.3 63.05 Q197.3 65.0 206.5 65.0 212.4 65.0 212.45 62.45 L212.4 61.6 Q209.85 62.75 200.75 62.75 L198.3 62.35 M182.0 77.85 Q182.5 77.85 184.35 83.0 L186.1 88.3 Q186.1 91.6 183.75 91.6 181.35 91.6 180.5 89.55 L180.1 87.4 Q180.1 82.4 183.0 82.85 182.2 79.9 181.35 79.15 L181.35 78.0 182.0 77.85 M175.35 79.15 L173.1 82.35 Q170.65 85.55 170.15 87.0 173.3 87.4 175.6 90.15 175.8 90.35 175.45 90.6 L174.85 90.85 172.25 89.0 Q168.1 88.55 168.1 87.65 168.1 87.25 171.1 83.0 174.2 78.6 174.75 78.6 175.35 78.6 175.35 79.15 M176.5 81.85 Q177.25 83.1 177.45 86.35 177.65 89.55 178.6 91.15 178.8 91.35 178.45 91.6 L177.85 91.85 Q177.05 91.85 176.35 87.6 L175.85 83.3 Q175.85 82.35 176.5 81.85 M167.0 79.6 Q167.6 81.65 167.8 86.2 L167.9 87.7 Q168.2 90.85 168.85 92.65 L168.85 93.75 168.25 94.1 Q167.75 93.2 167.0 88.5 166.35 84.15 166.35 82.75 166.35 80.15 167.0 79.6 M181.35 87.3 Q181.35 90.25 183.55 90.25 185.3 90.25 184.85 88.25 184.85 87.1 183.3 84.0 L183.0 84.0 Q181.9 84.0 181.5 85.6 L181.35 87.3 M194.25 82.85 L195.0 83.0 195.1 83.4 Q195.1 84.05 193.1 85.35 193.3 85.9 195.15 87.05 196.85 88.15 196.85 88.75 196.85 89.15 195.5 90.05 194.2 90.85 193.75 90.85 192.95 90.85 192.65 90.5 L192.6 90.15 Q192.6 89.55 195.25 88.75 191.35 86.05 191.35 85.05 L192.6 83.85 Q193.85 82.8 194.25 82.85 M186.85 82.3 Q186.85 81.15 187.75 79.2 188.65 77.2 189.5 76.6 190.1 76.8 190.1 77.3 190.1 78.0 187.9 82.9 L187.5 83.1 186.85 82.3 M186.0 96.35 Q186.6 96.35 186.6 97.8 L186.5 100.35 Q190.85 100.35 190.85 100.9 190.85 101.45 190.5 101.5 L186.5 101.6 186.4 101.6 185.5 108.65 185.0 108.85 Q184.35 108.45 184.35 106.5 L184.9 101.6 182.15 101.25 182.1 100.9 182.25 100.4 185.05 100.4 185.35 96.5 186.0 96.35 M192.25 98.7 L192.15 102.1 192.1 102.75 192.15 102.85 192.6 102.15 Q192.9 101.85 194.1 101.85 196.1 101.85 197.1 106.35 L197.0 107.4 196.5 107.6 Q194.95 103.15 194.5 103.15 192.65 103.15 192.15 105.3 191.9 106.45 192.0 107.9 L191.5 108.1 Q190.85 106.5 190.85 102.05 190.85 96.1 191.5 96.1 192.2 96.1 192.25 98.7 M220.5 84.65 Q219.35 85.25 219.35 87.35 L219.55 88.7 Q220.1 90.6 222.75 90.5 L222.85 91.05 222.75 91.75 221.75 91.85 Q219.35 91.85 218.5 89.6 L218.1 87.35 Q218.1 83.35 220.35 83.35 222.55 83.35 222.85 86.15 222.85 88.85 220.75 88.85 220.2 88.85 219.9 88.5 L219.9 88.6 219.85 88.15 221.6 86.05 Q221.6 85.55 220.5 84.65 M208.75 83.1 Q210.45 83.1 210.75 83.9 L210.9 85.25 Q213.0 83.85 213.75 83.85 216.9 83.85 216.6 88.8 L216.5 91.15 216.0 91.35 Q215.5 90.8 215.45 87.7 215.4 85.25 213.6 85.25 212.1 85.25 211.6 86.55 211.35 87.15 211.35 88.0 L210.75 88.35 209.25 84.5 Q207.45 85.3 207.05 86.9 L206.75 89.9 206.25 90.1 Q205.6 89.6 205.6 87.15 L205.6 84.7 Q206.1 83.1 208.75 83.1 M216.35 98.5 L216.35 99.75 215.75 100.1 Q215.2 99.75 215.0 98.7 214.8 97.8 213.9 97.4 213.35 100.85 213.35 101.4 L213.35 101.6 Q215.85 101.65 215.85 102.15 215.85 102.8 213.45 102.85 213.6 104.05 214.1 105.1 L214.85 107.05 214.75 107.9 Q214.85 108.1 214.25 108.1 213.0 108.1 212.45 104.8 L212.25 102.85 209.95 102.5 209.85 102.15 210.0 101.65 212.1 101.65 212.1 101.5 Q212.1 96.1 213.85 96.1 215.85 96.1 216.35 98.5 M225.6 85.15 Q225.6 84.35 227.6 84.35 229.6 84.35 230.6 89.9 L230.5 90.65 229.4 90.5 Q229.4 92.1 227.0 92.1 225.2 92.1 224.85 91.3 L224.85 90.5 Q224.85 90.0 225.35 89.15 226.05 88.1 227.0 88.1 227.6 88.1 228.75 88.6 L227.65 85.65 226.6 85.85 Q225.95 85.85 225.65 85.5 L225.6 85.15 M232.5 80.6 Q233.3 80.6 234.1 90.9 L234.0 92.15 233.5 92.35 Q232.7 90.25 232.4 86.7 L231.85 80.75 232.5 80.6 M228.65 90.0 Q227.65 89.5 226.85 89.5 L226.1 90.4 226.15 90.75 228.0 90.6 228.5 90.15 228.65 90.0 M241.5 96.35 Q241.85 96.35 242.7 101.65 L246.25 102.0 246.6 102.4 Q246.6 102.95 246.25 103.0 L243.25 103.1 242.95 103.1 242.95 103.15 244.35 108.8 244.25 109.4 Q244.35 109.6 243.75 109.6 242.55 109.6 241.8 105.4 L241.5 103.05 238.9 102.5 238.85 102.15 Q238.85 101.6 239.6 101.6 L241.3 101.6 240.85 99.15 240.85 96.5 241.5 96.35 M234.1 103.05 Q234.1 105.95 230.85 105.5 231.2 106.7 232.6 106.7 L234.25 106.5 234.35 106.9 Q234.35 107.85 232.35 107.85 230.1 107.85 229.65 106.3 L229.6 104.75 229.6 102.85 Q230.0 101.35 232.1 101.35 233.8 101.35 234.1 102.1 234.3 102.5 234.1 103.05 M231.8 104.25 Q232.85 104.25 232.85 102.9 L231.5 102.75 Q230.85 102.75 230.85 104.1 L231.8 104.25 M226.35 101.85 Q228.35 101.85 227.85 103.75 L227.7 104.9 225.75 105.75 Q226.1 107.4 226.9 107.2 L228.25 106.6 229.0 106.75 229.1 107.15 Q229.1 107.75 227.0 108.35 225.2 108.35 224.6 106.5 L224.35 104.55 Q224.35 101.85 226.35 101.85 M226.6 103.25 L226.1 103.25 225.6 104.0 225.6 104.25 226.5 104.25 226.6 103.25 M223.0 108.1 Q222.1 108.1 220.75 106.25 L219.6 104.3 Q219.6 103.95 221.75 102.4 L220.75 101.15 Q219.2 101.15 219.1 103.25 L219.2 104.4 219.35 105.4 219.25 106.65 Q219.35 106.85 218.75 106.85 218.2 106.85 217.85 105.0 L217.6 103.15 Q217.6 99.85 220.5 99.85 222.3 99.85 223.1 102.3 223.1 102.9 222.5 103.25 221.65 103.7 221.15 104.65 L223.6 107.5 223.5 107.85 223.0 108.1 M202.75 101.85 Q202.1 101.7 202.1 101.05 L203.0 100.25 Q203.95 99.6 204.35 99.6 205.75 99.6 208.1 105.3 208.1 105.8 207.0 106.5 205.75 107.35 204.35 107.35 202.1 107.35 201.5 106.6 201.35 106.4 201.35 105.75 201.35 102.85 205.65 103.5 204.55 101.15 204.25 101.15 L202.75 101.85 M204.4 106.0 Q206.0 106.0 206.15 105.4 205.3 104.75 203.75 104.75 203.2 104.75 202.6 105.75 L204.4 106.0 M180.85 103.4 L180.75 106.6 180.25 106.85 Q179.6 106.1 179.6 103.4 179.6 100.1 180.25 100.1 181.1 100.1 180.85 103.4 M177.35 104.0 Q176.95 105.6 174.75 105.6 173.35 105.6 172.5 104.45 L171.6 102.85 171.5 102.85 Q170.3 106.1 169.5 106.1 167.15 106.1 165.85 101.5 L165.85 100.15 166.5 99.85 167.45 101.95 Q168.45 104.15 169.25 104.75 170.8 101.75 170.9 100.65 L171.5 100.35 Q171.9 100.35 172.9 102.3 173.85 104.25 174.9 104.25 176.3 104.25 176.35 102.35 L176.1 99.5 176.75 99.35 Q177.55 99.35 177.35 102.1 L177.35 104.0 M162.25 114.3 Q159.7 113.1 157.35 112.85 L156.0 112.75 128.1 114.15 125.05 114.55 Q117.15 115.6 110.9 117.3 105.85 118.65 101.85 120.4 99.85 121.3 98.0 122.35 79.4 132.8 74.65 160.35 L75.15 159.75 Q75.25 160.6 77.8 163.45 80.8 166.8 87.75 169.55 99.6 174.25 123.5 174.25 180.0 173.5 182.5 173.0 L186.5 172.0 Q190.15 170.95 191.0 169.5 191.5 168.65 191.5 163.5 L191.9 161.45 187.15 145.55 187.7 148.05 185.25 139.25 Q183.85 133.9 177.4 126.65 L174.15 123.25 170.95 120.25 Q166.3 116.1 162.25 114.3 M197.35 165.7 L198.85 166.0 199.1 166.25 199.35 167.85 Q199.35 177.25 197.05 190.75 L196.6 193.5 243.55 193.5 244.4 192.2 Q249.8 184.0 254.25 179.9 255.35 170.1 255.35 165.35 L255.35 129.5 Q254.35 128.35 254.35 126.25 L254.6 125.15 219.35 125.5 Q199.5 125.5 184.55 126.25 194.25 138.8 197.35 158.75 L197.35 165.7 M175.35 160.0 Q173.35 151.65 168.05 146.05 156.55 134.0 132.35 134.0 113.45 134.0 105.85 145.5 101.85 151.55 101.85 158.25 101.85 160.75 102.35 161.25 L162.85 161.25 Q165.85 160.5 175.35 160.0 M181.45 163.0 Q181.9 164.35 179.15 165.0 L130.85 166.5 97.6 165.25 Q97.35 164.5 97.35 163.75 L97.35 157.0 Q97.35 147.1 102.6 140.25 111.35 128.75 132.85 129.0 L139.85 128.5 Q155.7 128.5 168.4 139.25 180.35 149.35 180.35 160.1 180.35 161.25 181.45 163.0 M179.45 178.1 L176.5 178.45 164.2 179.3 162.0 179.35 151.0 179.5 146.25 179.5 143.05 179.45 126.4 179.0 123.75 178.9 107.25 177.6 105.05 177.35 99.8 176.65 91.3 175.1 88.4 174.4 85.35 173.55 85.25 173.5 Q81.0 172.15 78.0 170.55 79.65 178.3 81.3 187.75 L82.05 192.3 82.25 193.5 83.0 198.5 84.05 205.9 85.15 214.25 85.7 218.55 Q86.75 227.35 87.4 235.25 L87.8 240.75 88.45 253.7 88.45 254.15 88.5 256.1 88.5 258.25 90.85 259.15 95.7 260.75 99.45 261.8 103.4 262.75 Q111.1 264.55 119.45 265.75 L123.15 266.25 137.0 267.55 140.3 267.7 153.0 268.0 153.4 268.0 155.2 267.9 Q161.3 267.25 171.8 263.45 L175.25 262.15 176.2 261.75 189.0 256.4 Q187.95 252.45 187.65 247.35 L187.5 239.55 187.5 235.35 187.55 233.4 189.0 213.2 189.05 212.8 189.3 210.85 189.7 208.15 190.4 203.2 191.1 198.5 191.75 193.5 192.65 185.2 193.3 176.0 193.35 174.55 Q189.05 176.85 179.45 178.1 M264.85 108.35 L264.65 108.9 Q264.85 109.1 264.25 109.1 L263.65 108.75 263.6 108.4 Q263.6 108.0 264.25 107.85 264.75 108.15 264.85 108.35 M259.85 104.05 L259.35 113.0 258.75 113.35 Q258.1 112.8 258.1 110.3 L258.15 108.15 257.6 108.6 Q257.4 108.6 253.35 103.4 253.35 102.85 254.0 102.85 255.35 102.85 258.2 107.6 258.45 104.45 259.25 102.6 259.85 103.2 259.85 104.05 M250.0 102.1 Q251.9 102.1 252.6 105.1 252.6 105.85 252.0 106.9 251.3 108.1 250.6 108.1 249.35 108.1 248.6 106.5 L248.1 104.85 Q248.1 102.1 250.0 102.1 M249.85 103.75 Q249.35 103.75 249.35 104.85 249.35 106.1 250.35 106.65 251.35 105.65 251.35 105.3 251.35 104.85 250.1 103.75 L249.85 103.75 M253.4 191.35 L252.0 193.5 248.6 198.5 245.5 202.7 256.35 202.65 Q255.15 200.85 254.45 198.5 253.8 196.25 253.55 193.5 L253.4 191.35 M117.7 16.3 Q85.4 16.3 50.5 15.5 L25.4 14.8 21.5 14.65 21.5 116.7 Q24.9 116.5 49.5 116.5 L99.5 117.15 106.45 114.6 106.2 114.1 106.1 112.55 Q106.1 111.1 106.85 110.05 108.2 108.25 111.35 109.65 110.9 106.2 109.95 106.2 107.7 106.2 107.6 106.55 107.45 107.25 106.95 107.45 106.1 107.2 106.1 106.3 106.1 104.45 109.8 104.45 112.7 104.45 113.45 111.75 L113.4 112.4 115.5 111.8 Q115.15 109.3 115.15 105.45 L112.1 105.0 112.1 104.4 Q112.1 103.45 113.1 103.45 L115.2 103.5 Q115.3 100.0 115.95 99.45 117.15 100.8 117.45 103.55 122.75 103.75 121.45 104.6 L121.2 105.4 117.5 105.45 117.5 105.5 117.2 111.3 124.15 109.45 Q123.1 102.05 123.1 92.45 123.65 74.4 123.5 66.25 L122.5 16.3 118.6 16.3 117.7 16.3 M85.55 48.8 L82.15 48.9 78.25 49.05 75.75 49.1 72.75 49.15 72.7 49.15 69.6 49.2 65.2 49.25 61.6 49.25 60.15 49.25 57.05 49.25 53.75 49.25 52.7 49.25 52.2 50.05 Q51.3 50.5 50.5 51.05 L49.75 51.55 53.35 52.2 53.5 52.3 53.65 52.1 53.75 52.25 53.75 52.65 53.75 52.85 53.75 52.9 Q53.7 53.6 52.75 54.2 L52.7 54.25 52.45 54.4 52.3 54.45 Q50.7 55.15 50.55 56.0 L51.2 56.4 52.25 57.25 51.95 58.1 52.95 58.0 54.9 57.9 58.2 57.8 62.75 57.75 63.25 57.75 65.35 57.75 68.75 57.8 68.85 57.8 71.15 57.8 75.65 57.9 77.15 57.9 83.1 58.15 84.5 58.25 84.55 58.25 87.6 58.6 89.55 58.9 90.35 59.0 90.45 58.75 91.25 57.65 92.25 56.1 Q92.25 55.6 91.65 55.2 L90.5 54.65 Q89.8 54.4 89.4 54.0 L88.9 53.25 88.85 53.2 88.75 52.6 Q88.75 52.05 89.5 51.3 90.05 50.7 91.05 50.05 L90.15 48.5 89.25 48.6 86.1 48.75 85.95 48.75 85.55 48.8 M85.0 46.15 L85.95 46.15 86.35 46.15 90.5 46.3 91.0 46.25 91.6 46.35 93.4 46.4 93.1 46.0 Q92.7 45.45 93.75 44.75 93.55 43.6 92.55 42.6 L91.4 41.65 Q89.6 40.4 86.4 39.3 84.15 38.5 81.8 38.0 77.15 37.0 72.05 37.0 68.0 37.0 61.85 39.05 L58.4 40.3 Q53.6 42.2 50.65 43.95 L50.15 44.25 Q48.5 45.25 47.5 46.25 L54.25 46.5 60.7 46.1 Q68.4 45.8 78.8 46.0 L85.0 46.15 M94.7 54.85 L94.75 56.0 94.7 57.75 94.55 58.25 Q94.2 58.95 93.25 59.7 95.2 60.35 96.05 61.15 96.75 61.8 96.75 62.6 96.75 65.55 94.55 67.0 89.7 70.25 74.5 70.25 57.05 70.25 49.8 66.05 46.4 64.05 45.85 61.85 L45.75 61.1 45.75 61.0 Q45.75 59.3 47.25 58.8 L48.5 58.5 Q47.4 58.1 47.4 57.1 47.35 56.45 48.25 54.5 46.25 53.35 46.25 52.5 46.25 51.05 48.55 49.05 L46.25 48.5 Q45.85 48.25 46.0 47.95 L46.25 47.6 Q46.25 46.65 47.5 46.25 46.25 45.85 46.25 44.5 46.25 41.85 52.1 39.25 L56.5 37.5 Q66.05 34.25 73.5 34.25 81.9 34.25 87.95 37.05 L91.05 38.75 Q96.25 42.2 96.25 44.75 96.25 45.45 96.75 46.65 96.7 47.6 94.05 48.05 L93.4 48.15 93.75 50.25 Q93.75 51.35 92.3 52.3 94.05 53.5 94.45 54.15 L94.6 54.5 94.7 54.85 M94.4 63.35 L94.25 62.5 87.9 61.9 84.0 61.2 Q77.15 60.35 48.25 60.3 L48.5 61.85 Q48.95 63.2 50.7 64.25 L52.25 65.0 Q58.55 67.5 74.6 67.5 91.5 67.5 94.1 65.8 95.0 65.2 94.65 64.15 L94.4 63.35 M95.15 79.0 Q96.1 79.35 96.1 80.55 96.1 81.85 95.6 82.25 95.0 82.65 92.05 83.65 L91.6 83.8 Q90.8 83.55 90.8 82.9 90.8 82.65 91.1 82.4 91.75 81.75 93.8 80.95 89.8 79.25 89.8 77.95 89.8 76.95 90.65 75.8 91.65 74.45 93.1 74.45 95.1 74.45 94.5 76.4 L92.6 76.2 91.6 77.7 Q93.35 78.55 95.15 79.0 M87.5 78.65 L87.0 77.65 86.35 76.2 85.35 76.2 Q84.3 76.25 84.2 76.55 L83.65 77.8 Q82.8 77.05 82.8 76.65 82.8 76.1 83.4 75.4 84.2 74.45 85.6 74.45 89.5 74.45 90.1 81.65 L90.0 82.1 89.95 82.3 88.25 82.6 87.5 82.7 86.25 82.8 85.1 82.8 Q83.5 82.8 83.0 82.2 L82.8 81.55 Q82.8 81.0 83.2 80.4 83.45 79.85 84.0 79.3 L84.65 78.75 Q85.1 78.4 85.65 78.35 L87.1 78.5 87.5 78.65 M85.75 80.3 Q85.4 80.3 84.95 80.85 L84.8 81.05 86.1 80.8 86.6 80.55 86.95 80.5 86.0 80.3 85.75 80.3 M81.7 82.8 L80.95 83.15 80.9 83.1 Q80.2 82.25 79.95 80.6 L79.8 79.2 79.8 77.95 Q79.8 77.7 78.9 77.7 78.65 77.7 77.75 79.3 76.8 80.95 76.8 81.4 76.85 81.8 75.95 81.8 75.05 81.8 74.35 80.1 L73.3 77.9 Q72.0 78.7 72.05 80.05 L72.1 82.6 71.3 82.8 70.45 80.4 Q70.45 76.15 73.25 76.15 74.95 76.15 75.85 78.15 76.9 77.7 77.35 76.6 77.65 75.8 78.75 75.8 80.25 75.8 81.0 77.1 81.85 78.5 81.8 81.55 L81.7 82.8 M50.5 15.6 Q51.5 15.6 52.1 20.65 52.1 23.85 50.6 23.85 49.15 23.85 48.4 22.6 L48.35 22.6 Q48.65 25.85 46.35 25.85 42.85 25.85 42.85 20.1 L43.5 19.85 Q43.95 19.85 44.75 21.9 45.6 24.15 46.0 24.5 L46.6 24.5 47.35 20.5 48.1 20.35 Q49.2 20.35 50.35 22.4 50.8 21.95 50.85 20.7 49.85 17.2 49.85 16.3 L49.9 15.75 50.5 15.6 M48.3 30.1 L53.75 27.85 54.5 28.0 54.6 28.4 Q54.6 29.25 50.35 32.55 L45.25 36.4 45.1 36.5 45.25 36.5 48.25 36.1 48.75 36.4 48.85 36.65 48.85 36.7 48.85 36.85 48.55 37.25 48.05 37.5 45.1 37.85 44.85 37.85 Q42.85 37.85 42.85 37.05 L49.75 31.15 49.9 31.0 49.75 31.1 43.75 33.55 Q35.2 37.15 32.5 38.6 31.85 38.45 31.85 37.9 31.85 37.05 42.6 32.5 L46.2 31.0 48.3 30.1 M41.6 26.65 Q41.6 28.1 39.5 28.1 37.55 28.1 36.25 25.25 L35.35 22.35 Q35.35 19.85 36.75 19.85 39.35 19.85 40.0 20.95 L40.1 22.3 39.95 23.75 Q39.6 24.25 37.65 25.0 L37.85 26.0 Q38.2 26.75 39.35 26.75 40.0 26.75 41.0 26.1 L41.6 26.65 M32.5 24.45 L33.6 29.15 33.5 30.4 32.6 30.6 Q30.4 30.6 28.1 28.5 L28.0 28.5 28.05 28.55 28.3 29.15 29.15 32.9 29.35 34.15 29.25 35.4 28.75 35.6 Q27.65 33.9 26.1 26.85 26.25 26.35 26.75 26.35 L26.85 26.35 31.65 28.85 32.25 29.15 Q32.35 29.55 32.35 28.9 L30.6 21.05 Q30.6 20.6 31.25 20.35 L32.5 24.45 M36.9 23.5 Q39.15 23.6 38.85 22.45 38.85 21.45 36.9 21.4 L36.6 22.55 36.9 23.5 M38.95 76.85 Q39.55 76.45 39.95 76.45 41.65 76.45 43.55 80.6 L43.8 81.15 43.75 82.15 Q43.8 82.4 43.2 82.45 L42.95 82.45 Q40.45 78.85 39.95 78.55 L39.45 79.15 38.15 80.6 37.65 81.2 37.6 81.15 Q36.9 80.15 36.85 78.1 L36.8 77.45 Q36.45 74.7 37.65 73.85 38.85 74.2 38.7 76.15 L38.5 77.15 38.95 76.85 M30.45 77.7 Q28.15 78.1 28.15 80.4 L32.1 80.4 33.5 80.5 Q35.15 80.7 35.15 81.25 35.15 82.0 34.7 82.1 L34.3 82.15 32.1 82.15 31.3 82.15 Q24.85 82.15 26.45 79.8 26.45 75.8 30.3 75.8 31.95 75.8 33.45 76.8 33.2 77.15 30.45 77.7 M34.3 85.9 L34.15 88.55 Q34.25 88.05 34.45 87.85 34.85 87.5 36.65 87.5 38.8 87.5 39.6 88.0 40.15 88.4 40.0 89.05 L39.8 89.45 Q39.8 93.15 36.3 93.15 33.1 93.15 32.45 90.55 L32.45 89.0 32.45 87.85 Q32.45 84.45 33.35 84.2 L33.5 84.15 33.75 84.2 Q34.1 84.35 34.25 85.1 L34.3 85.9 M35.7 89.3 L34.8 91.35 37.8 91.35 38.15 89.6 35.7 89.3 M65.55 70.9 L66.15 70.8 66.95 70.95 67.0 71.45 67.1 75.5 Q70.1 75.6 70.1 76.3 L69.25 76.35 67.1 76.45 67.1 77.05 67.05 83.2 66.3 83.45 Q64.6 81.85 64.65 78.05 L64.8 76.9 62.65 77.45 Q61.8 76.7 61.8 76.4 61.8 75.75 62.1 75.65 L64.9 75.45 65.1 71.55 65.1 71.4 Q65.15 71.05 65.55 70.9 M56.45 76.9 Q56.45 74.9 60.25 74.2 L61.6 74.3 61.8 74.9 Q61.8 75.55 60.75 75.95 59.25 76.45 58.2 76.9 62.1 79.6 62.1 80.65 62.1 81.25 60.85 81.95 L60.8 81.95 Q59.3 82.8 57.4 82.8 L56.8 82.65 Q56.45 82.3 56.45 81.9 56.45 81.3 59.55 80.4 L57.45 78.65 Q56.45 77.85 56.45 76.9 M54.8 80.3 L54.7 81.55 53.95 81.8 Q52.85 80.75 52.85 77.75 L53.05 76.85 53.65 76.15 Q54.8 79.1 54.8 80.3 M46.2 77.4 L47.7 77.35 Q47.55 76.9 46.2 76.9 L46.2 77.4 M50.15 77.8 Q50.15 78.9 49.05 78.95 50.8 80.2 50.8 81.45 L49.95 82.15 Q47.45 79.6 46.2 79.45 L46.2 80.7 45.3 81.2 Q44.5 80.85 44.05 80.25 43.45 79.4 43.45 78.2 43.45 77.5 44.45 76.4 45.65 75.15 46.95 75.15 49.95 75.15 50.15 77.8 M46.25 88.6 L46.45 89.95 46.4 91.9 Q46.05 93.15 44.3 93.15 42.25 93.15 41.15 90.7 L40.55 88.6 40.45 88.2 40.6 87.8 Q40.8 87.5 41.5 87.5 L42.05 87.7 42.4 88.2 42.75 89.1 Q43.25 91.1 43.55 91.4 L44.7 91.35 44.8 88.85 44.8 87.85 45.65 87.5 46.25 88.6 M49.8 89.25 Q50.25 88.9 50.8 88.65 L50.9 88.55 Q50.1 88.55 49.9 88.9 L49.8 89.25 M48.15 87.9 Q48.5 87.05 50.1 86.85 L51.15 86.8 51.7 86.8 53.0 87.0 Q54.1 87.3 53.8 88.2 L53.7 88.75 Q53.25 89.65 51.3 90.2 L51.1 90.7 52.6 90.95 Q53.6 91.15 54.65 92.2 L54.8 92.6 Q54.8 93.45 53.45 93.45 L50.45 92.4 50.45 93.45 Q50.55 93.8 49.7 93.8 48.4 93.8 48.15 91.9 L48.15 89.9 48.15 87.9 M58.35 89.25 L57.45 89.3 Q56.45 89.3 56.45 91.55 L56.55 91.7 Q57.05 91.65 58.3 89.4 L58.35 89.25 M60.6 88.6 Q61.45 90.5 61.45 93.9 L61.45 94.4 Q61.35 95.8 60.85 96.65 60.1 97.8 58.45 97.8 L58.25 97.8 Q56.0 97.75 54.4 97.0 L53.45 96.45 53.45 95.7 58.1 95.95 Q60.05 95.95 59.85 93.8 L59.15 91.7 Q57.6 93.8 56.3 93.8 55.25 93.8 54.9 92.45 L54.8 90.9 Q54.8 88.85 57.6 87.75 58.45 87.4 59.6 87.15 L60.6 88.6 M66.2 89.05 L64.1 88.3 63.8 89.05 63.8 89.3 66.15 89.3 66.2 89.05 M69.8 87.95 Q69.8 87.1 70.15 86.95 L71.8 86.8 72.2 86.8 72.25 86.8 74.35 87.05 Q75.8 87.5 75.8 88.8 75.8 89.3 74.7 90.9 79.1 91.05 79.1 91.95 79.1 93.1 72.45 92.65 72.8 93.15 72.8 94.4 72.8 94.85 71.95 94.85 70.7 94.85 70.15 91.45 L69.8 88.0 69.8 87.95 M67.95 92.15 L68.8 93.3 Q68.8 94.5 67.25 94.5 64.65 94.5 63.1 91.95 62.1 90.25 62.1 89.2 62.1 86.45 64.05 86.45 67.15 86.45 68.1 88.9 68.1 91.2 64.8 91.35 L66.25 92.45 Q66.9 92.85 67.95 92.15 M74.05 88.9 L71.8 88.65 71.8 90.4 Q72.95 90.15 73.95 89.15 L74.05 88.9 M78.6 101.15 Q78.95 101.15 79.4 102.4 L79.55 103.0 79.9 104.3 80.1 105.15 80.5 107.1 80.55 107.25 81.45 113.2 81.35 114.55 80.6 114.8 Q79.85 113.45 78.75 108.2 L78.0 104.2 77.85 103.4 77.8 102.8 Q77.8 101.3 78.5 101.15 L78.6 101.15 M73.25 104.1 Q75.55 105.35 76.8 112.05 L76.65 113.45 Q76.4 113.8 75.25 113.8 L69.45 113.3 Q69.1 113.15 69.1 112.3 69.1 111.45 70.9 109.95 72.8 108.4 74.05 108.65 L73.85 107.0 Q73.5 105.7 71.95 105.7 70.6 105.7 70.45 106.05 L69.65 106.8 Q68.8 106.55 68.8 105.65 L68.9 105.1 Q69.05 104.65 69.5 104.35 70.3 103.8 72.1 103.8 L72.6 103.85 Q72.9 103.9 73.25 104.1 M72.45 110.65 L71.75 111.4 71.45 111.65 74.35 111.7 74.0 110.8 Q73.6 110.25 72.45 110.65 M62.6 104.45 Q66.55 104.5 67.1 108.45 67.1 110.0 62.35 109.95 62.3 113.0 63.8 112.45 67.4 111.15 67.6 111.15 L68.3 111.55 68.45 111.95 Q68.45 113.45 64.3 113.45 61.95 113.45 60.8 110.65 60.1 109.0 60.1 107.65 59.9 106.65 60.1 105.9 60.35 104.9 61.4 104.6 L62.45 104.45 62.6 104.45 M65.1 107.95 Q63.55 106.05 61.8 106.3 L61.8 108.05 65.1 107.95 M54.8 103.8 Q56.2 103.8 57.25 104.65 58.2 105.45 58.8 106.95 58.8 107.75 56.95 109.45 60.35 111.25 61.1 113.75 60.95 114.45 60.3 114.45 56.3 110.75 54.95 110.05 L55.8 112.9 55.7 113.8 Q55.85 114.15 54.95 114.15 54.05 114.15 53.2 111.35 L52.5 108.45 Q52.5 107.2 52.85 105.95 53.4 103.95 54.6 103.8 L54.8 103.8 M54.45 107.7 L56.35 107.65 56.7 106.9 54.8 105.8 Q54.45 106.3 54.45 107.7 M44.95 110.65 L46.3 110.45 Q49.35 110.45 49.15 112.95 L49.05 113.95 Q48.75 114.45 47.15 114.45 L45.2 114.3 44.8 111.3 44.95 110.65 M44.1 110.9 Q43.1 113.85 42.0 115.15 41.15 114.85 41.15 114.2 41.15 112.7 42.2 109.45 43.45 105.45 44.8 105.45 45.3 105.45 45.85 106.15 45.3 107.25 44.1 110.9 M40.45 108.5 Q40.45 109.8 38.5 109.8 36.7 109.8 36.1 108.95 L35.8 108.05 Q35.8 107.3 36.45 106.4 37.2 105.45 37.95 105.45 40.0 105.45 40.45 108.5 M28.3 106.8 Q31.6 106.8 33.15 110.6 33.15 111.65 31.7 112.95 36.15 113.0 36.15 113.95 36.15 114.6 35.65 114.7 L32.15 114.8 Q28.8 114.8 28.15 114.25 L28.15 113.65 Q28.15 113.2 29.3 112.65 30.7 112.05 31.5 110.6 30.9 108.55 29.3 108.55 27.75 108.55 27.6 108.95 L26.95 109.45 Q26.15 109.2 26.15 108.3 26.15 106.8 28.3 106.8 M103.85 109.9 Q103.0 111.2 99.8 109.95 100.05 110.7 102.45 112.1 104.8 113.45 104.8 113.7 L104.65 114.65 103.8 114.8 Q100.95 114.8 99.3 112.55 98.1 110.95 98.1 109.8 98.1 109.0 99.1 107.3 100.4 105.15 101.95 105.15 104.85 105.15 104.1 107.9 L103.85 109.9 M102.1 106.95 L101.85 106.95 100.55 108.2 100.6 108.4 102.45 108.65 Q102.45 107.45 102.1 106.95 M111.35 112.4 Q110.4 110.95 108.85 110.95 107.8 110.95 107.8 113.45 L108.3 113.65 Q110.85 113.05 111.35 112.4 M95.8 104.45 L96.95 104.65 97.1 108.8 97.05 112.9 96.3 113.15 Q95.3 112.1 95.3 110.1 L95.35 106.75 Q94.95 107.9 94.55 110.95 L93.95 111.15 Q92.75 109.6 92.05 106.45 90.25 108.4 90.35 112.15 L89.6 112.45 Q88.8 111.7 88.8 109.55 88.8 108.65 89.7 106.75 90.8 104.45 91.95 104.45 L93.05 104.7 93.4 105.0 93.7 105.9 94.2 105.1 94.35 104.95 Q94.9 104.45 95.8 104.45 M93.9 197.45 L93.85 197.55 93.8 197.45 93.9 197.45 M112.8 202.1 L113.05 202.3 113.05 202.4 112.75 202.25 112.75 202.2 112.8 202.1" fill="#000000" fill-rule="evenodd" stroke="none"/>
      <path d="M561.35 178.25 L561.35 201.9 558.05 201.75 552.1 201.5 551.85 201.5 537.85 202.0 370.7 202.35 383.25 198.5 Q394.0 194.95 394.35 193.5 395.3 189.95 394.9 183.3 394.35 176.75 394.35 175.5 L394.4 175.05 Q394.45 175.9 394.6 175.25 L410.6 175.85 Q453.65 175.7 502.35 176.0 L551.35 177.55 556.9 177.9 561.35 178.25 M268.2 24.5 L268.4 24.25 261.75 24.25 256.0 24.3 Q255.65 24.35 255.45 24.6 L236.5 24.25 215.05 24.55 214.5 25.75 Q214.25 26.4 214.25 28.3 L214.25 33.35 Q214.25 37.85 214.85 40.1 L214.75 40.35 214.8 41.05 215.3 41.4 215.5 41.75 215.9 41.6 217.75 41.75 219.25 41.65 219.25 43.2 Q220.1 44.75 224.25 44.75 228.45 44.75 229.15 41.85 L238.5 42.25 243.85 42.2 Q244.4 45.75 248.25 45.75 251.65 45.75 252.15 42.35 L255.0 42.75 Q256.6 42.75 257.45 41.55 260.4 42.75 270.75 42.75 274.95 42.75 275.75 40.5 L275.75 36.85 Q276.15 35.45 275.75 34.05 274.9 31.25 270.75 31.25 L268.25 31.25 268.25 25.25 Q267.9 24.85 268.2 24.5 M263.25 96.1 L262.6 96.25 262.6 102.65 262.95 104.15 Q263.2 105.25 263.75 105.6 L264.25 105.4 264.35 104.55 263.25 96.1 M268.6 86.5 Q269.15 84.6 267.1 84.6 265.1 84.6 265.1 87.95 L265.1 89.65 Q265.55 91.35 267.85 91.35 269.35 91.35 269.35 90.65 L269.25 90.25 Q266.35 90.4 266.35 88.75 268.1 88.4 268.45 87.75 L268.6 86.5 M271.75 84.85 Q270.95 84.95 270.25 85.65 269.6 86.3 269.6 86.75 269.6 87.6 270.45 87.9 271.75 88.35 272.6 89.25 270.85 89.95 270.85 90.4 270.85 90.7 271.1 91.0 L271.6 91.1 Q273.85 91.1 273.85 89.35 273.85 88.3 273.1 87.95 271.4 87.15 270.85 86.75 L271.0 86.6 Q271.5 86.05 272.3 85.85 L272.85 85.4 272.75 85.0 271.75 84.85 M267.1 86.0 L267.35 86.45 266.35 87.25 266.35 87.1 Q266.35 86.0 266.75 86.0 L267.1 86.0 M249.6 88.15 L249.75 87.35 Q250.05 86.6 250.75 86.6 252.1 86.6 252.1 87.55 252.0 89.1 250.4 89.1 249.6 89.1 249.6 88.15 M248.35 88.3 Q248.35 90.6 250.6 90.6 251.4 90.6 252.4 89.4 253.35 88.3 253.35 87.6 253.55 85.1 250.75 85.1 248.35 85.1 248.35 88.3 M245.6 84.9 L245.5 84.5 244.5 84.35 Q241.6 84.2 241.6 87.8 241.6 88.45 242.35 89.65 243.4 91.35 245.0 91.35 246.6 91.35 246.6 90.4 L246.5 90.0 245.85 89.85 Q242.85 89.85 242.85 87.55 L245.6 84.9 M263.2 85.45 Q263.0 85.1 262.1 85.1 261.05 85.1 260.8 85.75 L260.75 85.85 260.6 85.6 Q260.75 83.6 259.1 83.6 257.5 83.6 256.15 85.15 255.1 86.4 255.1 87.05 L256.0 89.1 Q256.6 89.1 256.5 88.85 256.25 85.35 259.25 85.0 L259.25 86.95 Q259.3 88.15 260.0 88.85 L260.6 88.5 Q260.3 87.8 261.0 87.2 L262.0 86.5 262.0 88.6 Q262.0 90.0 262.75 90.6 L263.35 90.25 263.35 86.15 263.2 85.45 M174.75 66.85 L174.55 67.1 Q174.45 67.35 174.8 67.55 176.0 68.25 181.75 68.25 189.8 68.25 190.05 65.0 190.15 64.0 189.45 62.2 L189.3 61.7 189.05 61.0 188.9 60.5 188.8 59.95 188.75 59.75 188.75 50.75 Q189.1 33.25 187.5 33.25 L186.25 33.55 186.25 34.25 177.15 35.35 177.25 32.25 Q176.65 23.25 175.5 23.25 174.25 23.25 174.25 26.3 174.25 33.05 175.3 35.6 167.75 36.8 167.75 37.85 167.75 38.5 168.25 38.9 L168.25 39.25 Q168.25 43.2 172.15 58.0 L172.2 58.15 172.7 60.15 174.5 66.75 174.65 66.7 174.75 66.85 M162.35 17.0 L162.35 16.75 276.35 16.75 276.35 111.95 Q271.2 114.2 267.25 116.1 262.9 118.2 260.05 120.05 L179.1 120.2 Q171.85 113.5 162.2 110.35 L161.4 55.8 Q160.85 17.0 162.35 17.0 M197.25 55.0 L197.25 55.1 197.0 55.05 197.25 55.0 M193.85 56.2 Q193.6 56.7 194.3 57.1 195.05 57.5 196.75 57.75 L196.75 60.5 196.5 60.25 Q194.75 60.25 194.75 62.6 194.75 64.65 195.8 65.55 198.4 67.75 207.0 67.75 212.9 67.75 214.55 65.0 215.25 63.85 215.25 60.6 215.25 59.45 214.0 58.75 L213.35 59.05 213.25 58.1 215.0 57.75 Q215.25 57.6 215.25 55.85 213.1 48.75 205.75 48.75 201.7 48.75 197.75 51.5 194.25 53.95 194.25 55.6 L193.85 56.2 M177.35 104.0 L177.35 102.1 Q177.55 99.35 176.75 99.35 L176.1 99.5 176.35 102.35 Q176.3 104.25 174.9 104.25 173.85 104.25 172.9 102.3 171.9 100.35 171.5 100.35 L170.9 100.65 Q170.8 101.75 169.25 104.75 168.45 104.15 167.45 101.95 L166.5 99.85 165.85 100.15 165.85 101.5 Q167.15 106.1 169.5 106.1 170.3 106.1 171.5 102.85 L171.6 102.85 172.5 104.45 Q173.35 105.6 174.75 105.6 176.95 105.6 177.35 104.0 M180.85 103.4 Q181.1 100.1 180.25 100.1 179.6 100.1 179.6 103.4 179.6 106.1 180.25 106.85 L180.75 106.6 180.85 103.4 M204.4 106.0 L202.6 105.75 Q203.2 104.75 203.75 104.75 205.3 104.75 206.15 105.4 206.0 106.0 204.4 106.0 M202.75 101.85 L204.25 101.15 Q204.55 101.15 205.65 103.5 201.35 102.85 201.35 105.75 201.35 106.4 201.5 106.6 202.1 107.35 204.35 107.35 205.75 107.35 207.0 106.5 208.1 105.8 208.1 105.3 205.75 99.6 204.35 99.6 203.95 99.6 203.0 100.25 L202.1 101.05 Q202.1 101.7 202.75 101.85 M223.0 108.1 L223.5 107.85 223.6 107.5 221.15 104.65 Q221.65 103.7 222.5 103.25 223.1 102.9 223.1 102.3 222.3 99.85 220.5 99.85 217.6 99.85 217.6 103.15 L217.85 105.0 Q218.2 106.85 218.75 106.85 219.35 106.85 219.25 106.65 L219.35 105.4 219.2 104.4 219.1 103.25 Q219.2 101.15 220.75 101.15 L221.75 102.4 Q219.6 103.95 219.6 104.3 L220.75 106.25 Q222.1 108.1 223.0 108.1 M226.6 103.25 L226.5 104.25 225.6 104.25 225.6 104.0 226.1 103.25 226.6 103.25 M226.35 101.85 Q224.35 101.85 224.35 104.55 L224.6 106.5 Q225.2 108.35 227.0 108.35 229.1 107.75 229.1 107.15 L229.0 106.75 228.25 106.6 226.9 107.2 Q226.1 107.4 225.75 105.75 L227.7 104.9 227.85 103.75 Q228.35 101.85 226.35 101.85 M231.8 104.25 L230.85 104.1 Q230.85 102.75 231.5 102.75 L232.85 102.9 Q232.85 104.25 231.8 104.25 M234.1 103.05 Q234.3 102.5 234.1 102.1 233.8 101.35 232.1 101.35 230.0 101.35 229.6 102.85 L229.6 104.75 229.65 106.3 Q230.1 107.85 232.35 107.85 234.35 107.85 234.35 106.9 L234.25 106.5 232.6 106.7 Q231.2 106.7 230.85 105.5 234.1 105.95 234.1 103.05 M241.5 96.35 L240.85 96.5 240.85 99.15 241.3 101.6 239.6 101.6 Q238.85 101.6 238.85 102.15 L238.9 102.5 241.5 103.05 241.8 105.4 Q242.55 109.6 243.75 109.6 244.35 109.6 244.25 109.4 L244.35 108.8 242.95 103.15 242.95 103.1 243.25 103.1 246.25 103.0 Q246.6 102.95 246.6 102.4 L246.25 102.0 242.7 101.65 Q241.85 96.35 241.5 96.35 M228.65 90.0 L228.5 90.15 228.0 90.6 226.15 90.75 226.1 90.4 226.85 89.5 Q227.65 89.5 228.65 90.0 M232.5 80.6 L231.85 80.75 232.4 86.7 Q232.7 90.25 233.5 92.35 L234.0 92.15 234.1 90.9 Q233.3 80.6 232.5 80.6 M225.6 85.15 L225.65 85.5 Q225.95 85.85 226.6 85.85 L227.65 85.65 228.75 88.6 Q227.6 88.1 227.0 88.1 226.05 88.1 225.35 89.15 224.85 90.0 224.85 90.5 L224.85 91.3 Q225.2 92.1 227.0 92.1 229.4 92.1 229.4 90.5 L230.5 90.65 230.6 89.9 Q229.6 84.35 227.6 84.35 225.6 84.35 225.6 85.15 M216.35 98.5 Q215.85 96.1 213.85 96.1 212.1 96.1 212.1 101.5 L212.1 101.65 210.0 101.65 209.85 102.15 209.95 102.5 212.25 102.85 212.45 104.8 Q213.0 108.1 214.25 108.1 214.85 108.1 214.75 107.9 L214.85 107.05 214.1 105.1 Q213.6 104.05 213.45 102.85 215.85 102.8 215.85 102.15 215.85 101.65 213.35 101.6 L213.35 101.4 Q213.35 100.85 213.9 97.4 214.8 97.8 215.0 98.7 215.2 99.75 215.75 100.1 L216.35 99.75 216.35 98.5 M208.75 83.1 Q206.1 83.1 205.6 84.7 L205.6 87.15 Q205.6 89.6 206.25 90.1 L206.75 89.9 207.05 86.9 Q207.45 85.3 209.25 84.5 L210.75 88.35 211.35 88.0 Q211.35 87.15 211.6 86.55 212.1 85.25 213.6 85.25 215.4 85.25 215.45 87.7 215.5 90.8 216.0 91.35 L216.5 91.15 216.6 88.8 Q216.9 83.85 213.75 83.85 213.0 83.85 210.9 85.25 L210.75 83.9 Q210.45 83.1 208.75 83.1 M220.5 84.65 Q221.6 85.55 221.6 86.05 L219.85 88.15 219.9 88.6 219.9 88.5 Q220.2 88.85 220.75 88.85 222.85 88.85 222.85 86.15 222.55 83.35 220.35 83.35 218.1 83.35 218.1 87.35 L218.5 89.6 Q219.35 91.85 221.75 91.85 L222.75 91.75 222.85 91.05 222.75 90.5 Q220.1 90.6 219.55 88.7 L219.35 87.35 Q219.35 85.25 220.5 84.65 M192.25 98.7 Q192.2 96.1 191.5 96.1 190.85 96.1 190.85 102.05 190.85 106.5 191.5 108.1 L192.0 107.9 Q191.9 106.45 192.15 105.3 192.65 103.15 194.5 103.15 194.95 103.15 196.5 107.6 L197.0 107.4 197.1 106.35 Q196.1 101.85 194.1 101.85 192.9 101.85 192.6 102.15 L192.15 102.85 192.1 102.75 192.15 102.1 192.25 98.7 M186.0 96.35 L185.35 96.5 185.05 100.4 182.25 100.4 182.1 100.9 182.15 101.25 184.9 101.6 184.35 106.5 Q184.35 108.45 185.0 108.85 L185.5 108.65 186.4 101.6 186.5 101.6 190.5 101.5 Q190.85 101.45 190.85 100.9 190.85 100.35 186.5 100.35 L186.6 97.8 Q186.6 96.35 186.0 96.35 M186.85 82.3 L187.5 83.1 187.9 82.9 Q190.1 78.0 190.1 77.3 190.1 76.8 189.5 76.6 188.65 77.2 187.75 79.2 186.85 81.15 186.85 82.3 M194.25 82.85 Q193.85 82.8 192.6 83.85 L191.35 85.05 Q191.35 86.05 195.25 88.75 192.6 89.55 192.6 90.15 L192.65 90.5 Q192.95 90.85 193.75 90.85 194.2 90.85 195.5 90.05 196.85 89.15 196.85 88.75 196.85 88.15 195.15 87.05 193.3 85.9 193.1 85.35 195.1 84.05 195.1 83.4 L195.0 83.0 194.25 82.85 M181.35 87.3 L181.5 85.6 Q181.9 84.0 183.0 84.0 L183.3 84.0 Q184.85 87.1 184.85 88.25 185.3 90.25 183.55 90.25 181.35 90.25 181.35 87.3 M167.0 79.6 Q166.35 80.15 166.35 82.75 166.35 84.15 167.0 88.5 167.75 93.2 168.25 94.1 L168.85 93.75 168.85 92.65 Q168.2 90.85 167.9 87.7 L167.8 86.2 Q167.6 81.65 167.0 79.6 M176.5 81.85 Q175.85 82.35 175.85 83.3 L176.35 87.6 Q177.05 91.85 177.85 91.85 L178.45 91.6 Q178.8 91.35 178.6 91.15 177.65 89.55 177.45 86.35 177.25 83.1 176.5 81.85 M175.35 79.15 Q175.35 78.6 174.75 78.6 174.2 78.6 171.1 83.0 168.1 87.25 168.1 87.65 168.1 88.55 172.25 89.0 L174.85 90.85 175.45 90.6 Q175.8 90.35 175.6 90.15 173.3 87.4 170.15 87.0 170.65 85.55 173.1 82.35 L175.35 79.15 M182.0 77.85 L181.35 78.0 181.35 79.15 Q182.2 79.9 183.0 82.85 180.1 82.4 180.1 87.4 L180.5 89.55 Q181.35 91.6 183.75 91.6 186.1 91.6 186.1 88.3 L184.35 83.0 Q182.5 77.85 182.0 77.85 M249.85 103.75 L250.1 103.75 Q251.35 104.85 251.35 105.3 251.35 105.65 250.35 106.65 249.35 106.1 249.35 104.85 249.35 103.75 249.85 103.75 M250.0 102.1 Q248.1 102.1 248.1 104.85 L248.6 106.5 Q249.35 108.1 250.6 108.1 251.3 108.1 252.0 106.9 252.6 105.85 252.6 105.1 251.9 102.1 250.0 102.1 M259.85 104.05 Q259.85 103.2 259.25 102.6 258.45 104.45 258.2 107.6 255.35 102.85 254.0 102.85 253.35 102.85 253.35 103.4 257.4 108.6 257.6 108.6 L258.15 108.15 258.1 110.3 Q258.1 112.8 258.75 113.35 L259.35 113.0 259.85 104.05 M264.85 108.35 Q264.75 108.15 264.25 107.85 263.6 108.0 263.6 108.4 L263.65 108.75 264.25 109.1 Q264.85 109.1 264.65 108.9 L264.85 108.35" fill="#ffc4c4" fill-rule="evenodd" stroke="none"/>
      <path d="M255.75 29.65 L255.75 35.85 Q253.25 36.8 253.25 39.0 253.25 39.65 253.55 40.1 L253.2 40.15 252.3 40.5 Q252.5 37.15 250.9 36.15 L255.75 29.65 M255.75 39.6 L255.75 40.0 255.35 40.0 255.75 39.6 M248.85 35.8 Q247.25 35.95 245.55 37.55 244.25 38.8 243.9 39.95 L235.8 39.5 Q243.25 28.55 243.25 27.1 L243.25 26.9 247.45 26.85 Q246.05 28.45 244.05 31.6 240.25 37.55 240.25 38.35 240.25 39.0 240.75 39.5 L241.75 39.75 Q250.2 28.85 250.75 26.85 L254.7 26.8 Q253.35 28.0 251.25 31.2 248.75 35.05 248.75 35.5 L248.85 35.8 M233.85 39.4 L230.5 39.25 228.95 39.25 228.25 38.0 Q226.8 35.75 224.5 35.75 226.75 32.9 229.25 27.1 L229.25 26.95 234.05 26.95 Q233.0 28.0 231.0 30.85 227.75 35.4 227.75 36.6 227.75 37.85 229.0 38.25 L233.0 33.6 Q236.25 29.4 236.25 27.6 L236.25 26.95 240.9 26.9 Q239.75 28.45 237.55 32.1 233.75 38.3 233.75 38.85 L233.85 39.4 M221.35 36.85 L220.5 37.75 Q219.9 38.55 219.6 39.45 L217.75 39.25 216.55 39.35 216.7 34.35 217.5 34.75 Q218.35 34.3 220.8 31.05 223.25 27.75 223.25 27.1 L223.25 27.0 226.8 26.95 224.3 30.75 Q221.25 35.7 221.25 36.35 L221.35 36.85 M216.8 32.65 L217.05 27.0 220.9 27.0 216.8 32.65 M174.75 66.85 L174.65 66.7 175.75 66.05 175.75 62.3 174.85 58.35 181.25 50.55 186.25 44.05 186.25 59.4 179.25 66.35 Q179.25 66.95 179.7 67.3 L175.0 66.75 174.85 66.8 174.75 66.85 M171.35 43.75 L170.1 39.1 170.3 39.1 170.35 39.1 170.55 39.05 174.55 38.55 176.4 38.35 174.0 40.75 171.35 43.75 M186.25 62.7 L186.25 62.8 186.2 62.75 186.25 62.7 M85.55 48.8 L85.95 48.75 86.1 48.75 89.25 48.6 86.8 51.35 86.6 51.6 84.65 54.0 Q82.75 56.4 82.75 57.1 82.75 57.75 83.1 58.15 L77.15 57.9 81.1 54.0 83.05 51.9 85.55 48.8 M88.9 53.25 L89.4 54.0 Q89.8 54.4 90.5 54.65 L91.65 55.2 87.6 58.6 84.55 58.25 88.2 54.0 88.7 53.35 88.9 53.25 M75.65 57.9 L71.15 57.8 74.7 54.0 76.05 52.25 78.25 49.05 82.15 48.9 80.3 50.8 79.05 52.15 77.3 54.0 Q75.25 56.3 75.25 56.85 75.25 57.4 75.65 57.9 M68.75 57.8 L65.35 57.75 68.7 54.0 70.05 52.4 72.75 49.25 72.75 49.15 75.75 49.1 72.95 52.35 71.55 54.0 68.75 57.35 68.75 57.4 68.75 57.8 M62.75 57.75 L58.2 57.8 61.8 54.0 63.1 52.5 Q64.9 50.3 65.2 49.25 L69.6 49.2 Q68.25 50.25 66.3 52.5 L66.25 52.5 65.0 54.0 Q62.75 56.65 62.75 57.35 L62.75 57.75 M54.9 57.9 L52.95 58.0 56.35 54.3 57.9 52.5 60.15 49.25 61.6 49.25 Q60.35 50.4 58.7 52.5 L58.5 52.75 57.4 54.2 Q55.35 56.9 54.9 57.9 M51.2 56.4 L50.55 56.0 Q50.7 55.15 52.3 54.45 L52.45 54.6 51.2 56.4 M53.75 52.65 L53.75 52.25 53.65 52.1 53.5 52.3 53.35 52.2 49.75 51.55 50.5 51.05 Q51.3 50.5 52.2 50.05 L52.7 49.25 53.75 49.25 57.05 49.25 54.25 52.3 53.95 52.65 53.75 52.65" fill="#ffffff" fill-rule="evenodd" stroke="none"/>
      <path d="M258.25 33.5 L258.25 26.8 Q260.85 27.0 265.75 26.8 265.95 27.7 265.65 30.3 265.65 31.2 265.8 31.9 L265.75 32.35 Q265.75 33.15 266.35 33.4 L266.75 33.55 267.0 33.75 267.2 33.65 273.25 34.0 273.25 40.0 267.05 40.0 258.3 39.25 Q258.65 37.05 258.25 33.5" fill="#2bff80" fill-rule="evenodd" stroke="none"/>
      <path d="M254.7 26.8 L255.75 26.8 255.75 29.65 250.9 36.15 Q250.25 35.75 249.25 35.75 L248.85 35.8 248.75 35.5 Q248.75 35.05 251.25 31.2 253.35 28.0 254.7 26.8 M255.75 35.85 L255.75 39.6 255.35 40.0 254.05 40.05 253.9 40.05 253.55 40.1 Q253.25 39.65 253.25 39.0 253.25 36.8 255.75 35.85 M235.8 39.5 L233.85 39.4 233.75 38.85 Q233.75 38.3 237.55 32.1 239.75 28.45 240.9 26.9 L243.25 26.9 243.25 27.1 Q243.25 28.55 235.8 39.5 M224.5 35.75 Q222.65 35.75 221.35 36.85 L221.25 36.35 Q221.25 35.7 224.3 30.75 L226.8 26.95 229.25 26.95 229.25 27.1 Q226.75 32.9 224.5 35.75 M216.7 34.35 L216.8 32.65 220.9 27.0 223.25 26.95 223.25 27.0 223.25 27.1 Q223.25 27.75 220.8 31.05 218.35 34.3 217.5 34.75 L216.7 34.35 M234.05 26.95 L234.1 26.9 236.25 26.9 236.25 26.95 236.25 27.6 Q236.25 29.4 233.0 33.6 L229.0 38.25 Q227.75 37.85 227.75 36.6 227.75 35.4 231.0 30.85 233.0 28.0 234.05 26.95 M247.45 26.85 L250.75 26.85 Q250.2 28.85 241.75 39.75 L240.75 39.5 Q240.25 39.0 240.25 38.35 240.25 37.55 244.05 31.6 246.05 28.45 247.45 26.85 M174.85 58.35 L174.1 55.1 172.15 46.9 171.8 45.4 171.45 44.0 171.35 43.75 174.0 40.75 176.4 38.35 179.75 37.95 180.6 37.85 186.25 36.65 186.25 44.05 181.25 50.55 174.85 58.35 M186.25 59.4 L186.25 62.7 186.2 62.75 186.25 62.8 Q186.25 67.4 181.05 67.45 L180.5 67.45 180.0 67.35 179.7 67.3 Q179.25 66.95 179.25 66.35 L186.25 59.4 M82.15 48.9 L85.55 48.8 83.05 51.9 81.1 54.0 77.15 57.9 75.65 57.9 Q75.25 57.4 75.25 56.85 75.25 56.3 77.3 54.0 L79.05 52.15 80.3 50.8 82.15 48.9 M89.25 48.6 L90.15 48.5 91.05 50.05 Q90.05 50.7 89.5 51.3 88.75 52.05 88.75 52.6 L88.85 53.2 88.7 53.35 88.2 54.0 84.55 58.25 84.5 58.25 83.1 58.15 Q82.75 57.75 82.75 57.1 82.75 56.4 84.65 54.0 L86.6 51.6 86.8 51.35 89.25 48.6 M91.65 55.2 Q92.25 55.6 92.25 56.1 L91.25 57.65 90.45 58.75 90.35 59.0 89.55 58.9 87.6 58.6 91.65 55.2 M71.15 57.8 L68.85 57.8 68.75 57.4 68.75 57.35 71.55 54.0 72.95 52.35 75.75 49.1 78.25 49.05 76.05 52.25 74.7 54.0 71.15 57.8 M65.35 57.75 L63.25 57.75 62.75 57.75 62.75 57.35 Q62.75 56.65 65.0 54.0 L66.25 52.5 66.3 52.5 Q68.25 50.25 69.6 49.2 L72.7 49.15 72.75 49.25 70.05 52.4 68.7 54.0 65.35 57.75 M58.2 57.8 L54.9 57.9 Q55.35 56.9 57.4 54.2 L58.5 52.75 58.7 52.5 Q60.35 50.4 61.6 49.25 L65.2 49.25 Q64.9 50.3 63.1 52.5 L61.8 54.0 58.2 57.8 M52.95 58.0 L51.95 58.1 52.25 57.25 51.2 56.4 52.45 54.6 52.7 54.25 52.75 54.2 Q53.7 53.6 53.75 52.9 L53.95 52.65 54.25 52.3 57.05 49.25 60.15 49.25 57.9 52.5 56.35 54.3 52.95 58.0 M86.35 46.15 L85.95 46.15 85.0 46.15 85.5 45.75 86.35 46.15 M94.7 54.85 L94.6 54.5 94.75 54.75 94.7 54.85" fill="#ff1111" fill-rule="evenodd" stroke="none"/>
      <path d="M249.0 39.05 L249.3 39.05 Q249.95 40.75 249.55 42.75 L248.25 42.8 Q246.75 42.8 246.55 42.25 L246.25 40.3 Q247.5 39.05 249.0 39.05 M222.05 42.0 L221.8 41.55 222.4 39.8 Q222.95 38.5 224.05 38.5 226.55 38.5 226.55 40.5 226.55 41.75 226.05 42.0 L222.05 42.0" fill="#959595" fill-rule="evenodd" stroke="none"/>
      <path d="M197.25 55.0 Q197.65 54.6 199.75 53.05 201.9 51.5 202.05 51.5 210.35 51.5 210.95 52.7 L211.05 53.95 211.4 54.8 Q210.5 54.9 210.6 55.5 L201.55 55.5 197.25 55.1 197.25 55.0 M198.3 62.35 L200.75 62.75 Q209.85 62.75 212.4 61.6 L212.45 62.45 Q212.4 65.0 206.5 65.0 197.3 65.0 197.3 63.05 L197.65 62.2 198.3 62.35 M86.35 46.15 L85.5 45.75 85.0 46.15 78.8 46.0 Q68.4 45.8 60.7 46.1 L54.25 46.5 47.5 46.25 Q48.5 45.25 50.15 44.25 L50.65 43.95 Q53.6 42.2 58.4 40.3 L61.85 39.05 Q68.0 37.0 72.05 37.0 77.15 37.0 81.8 38.0 84.15 38.5 86.4 39.3 89.6 40.4 91.4 41.65 L92.55 42.6 Q93.55 43.6 93.75 44.75 92.7 45.45 93.1 46.0 L93.4 46.4 91.6 46.35 91.0 46.25 90.5 46.3 86.35 46.15 M94.4 63.35 L94.65 64.15 Q95.0 65.2 94.1 65.8 91.5 67.5 74.6 67.5 58.55 67.5 52.25 65.0 L50.7 64.25 Q48.95 63.2 48.5 61.85 L48.25 60.3 Q77.15 60.35 84.0 61.2 L87.9 61.9 94.25 62.5 94.4 63.35" fill="#f1c763" fill-rule="evenodd" stroke="none"/>
      <path d="M199.25 60.0 L199.5 58.05 207.75 58.25 210.85 58.2 Q209.6 59.75 203.25 60.0 L199.25 60.0" fill="#85600c" fill-rule="evenodd" stroke="none"/>
      <path d="M562.3 207.55 Q563.9 218.65 563.35 260.25 L563.1 316.35 558.5 316.05 535.75 315.5 535.3 315.5 535.0 315.5 534.15 315.5 532.05 315.5 531.7 315.5 531.35 315.5 495.0 316.95 487.85 318.5 Q484.85 318.75 351.85 318.75 349.9 318.5 250.3 318.75 L250.35 311.85 Q250.35 302.35 248.5 284.1 246.55 264.7 246.35 256.75 L246.65 228.5 Q246.6 215.65 244.95 206.55 267.75 207.25 409.85 207.5 L408.75 207.5 409.65 207.5 557.3 207.55 559.55 207.55 562.3 207.55 M479.35 221.25 L478.85 219.75 Q478.1 219.0 435.35 218.5 L406.95 217.3 Q396.7 216.7 393.9 218.75 390.65 221.1 390.25 230.45 390.0 236.9 390.35 260.0 L390.35 296.75 390.6 298.25 412.05 299.15 434.85 299.5 Q478.0 299.25 478.35 299.0 479.35 298.2 479.35 296.25 L479.35 221.25 M117.7 16.3 L118.6 16.3 122.5 16.3 123.5 66.25 Q123.65 74.4 123.1 92.45 123.1 102.05 124.15 109.45 L117.2 111.3 117.5 105.5 117.5 105.45 121.2 105.4 121.45 104.6 Q122.75 103.75 117.45 103.55 117.15 100.8 115.95 99.45 115.3 100.0 115.2 103.5 L113.1 103.45 Q112.1 103.45 112.1 104.4 L112.1 105.0 115.15 105.45 Q115.15 109.3 115.5 111.8 L113.4 112.4 113.45 111.75 Q112.7 104.45 109.8 104.45 106.1 104.45 106.1 106.3 106.1 107.2 106.95 107.45 107.45 107.25 107.6 106.55 107.7 106.2 109.95 106.2 110.9 106.2 111.35 109.65 108.2 108.25 106.85 110.05 106.1 111.1 106.1 112.55 L106.2 114.1 106.45 114.6 99.5 117.15 49.5 116.5 Q24.9 116.5 21.5 116.7 L21.5 14.65 25.4 14.8 50.5 15.5 Q85.4 16.3 117.7 16.3 M88.85 53.2 L88.9 53.25 88.7 53.35 88.85 53.2 M68.85 57.8 L68.75 57.8 68.75 57.4 68.85 57.8 M52.3 54.45 L52.45 54.4 52.7 54.25 52.45 54.6 52.3 54.45 M53.75 52.9 L53.75 52.85 53.75 52.65 53.95 52.65 53.75 52.9 M72.7 49.15 L72.75 49.15 72.75 49.25 72.7 49.15 M47.5 46.25 Q46.25 46.65 46.25 47.6 L46.0 47.95 Q45.85 48.25 46.25 48.5 L48.55 49.05 Q46.25 51.05 46.25 52.5 46.25 53.35 48.25 54.5 47.35 56.45 47.4 57.1 47.4 58.1 48.5 58.5 L47.25 58.8 Q45.75 59.3 45.75 61.0 L45.75 61.1 45.85 61.85 Q46.4 64.05 49.8 66.05 57.05 70.25 74.5 70.25 89.7 70.25 94.55 67.0 96.75 65.55 96.75 62.6 96.75 61.8 96.05 61.15 95.2 60.35 93.25 59.7 94.2 58.95 94.55 58.25 L94.7 57.75 94.75 56.0 94.7 54.85 94.75 54.75 94.6 54.5 94.45 54.15 Q94.05 53.5 92.3 52.3 93.75 51.35 93.75 50.25 L93.4 48.15 94.05 48.05 Q96.7 47.6 96.75 46.65 96.25 45.45 96.25 44.75 96.25 42.2 91.05 38.75 L87.95 37.05 Q81.9 34.25 73.5 34.25 66.05 34.25 56.5 37.5 L52.1 39.25 Q46.25 41.85 46.25 44.5 46.25 45.85 47.5 46.25 M45.25 36.4 L50.35 32.55 Q54.6 29.25 54.6 28.4 L54.5 28.0 53.75 27.85 48.3 30.1 48.05 29.5 46.2 31.0 42.6 32.5 Q31.85 37.05 31.85 37.9 31.85 38.45 32.5 38.6 35.2 37.15 43.75 33.55 L49.75 31.1 49.75 31.15 42.85 37.05 Q42.85 37.85 44.85 37.85 L45.1 37.85 48.05 37.5 48.55 37.25 48.75 37.75 49.15 36.8 48.85 36.65 48.75 36.4 48.25 36.1 45.25 36.5 45.25 36.4 M50.5 15.6 L49.9 15.75 49.85 16.3 Q49.85 17.2 50.85 20.7 50.8 21.95 50.35 22.4 49.2 20.35 48.1 20.35 L47.35 20.5 46.6 24.5 46.0 24.5 Q45.6 24.15 44.75 21.9 43.95 19.85 43.5 19.85 L42.85 20.1 Q42.85 25.85 46.35 25.85 48.65 25.85 48.35 22.6 L48.4 22.6 Q49.15 23.85 50.6 23.85 52.1 23.85 52.1 20.65 51.5 15.6 50.5 15.6 M81.7 82.8 L81.8 81.55 Q81.85 78.5 81.0 77.1 80.25 75.8 78.75 75.8 77.65 75.8 77.35 76.6 76.9 77.7 75.85 78.15 74.95 76.15 73.25 76.15 70.45 76.15 70.45 80.4 L71.3 82.8 72.1 82.6 72.05 80.05 Q72.0 78.7 73.3 77.9 L74.35 80.1 Q75.05 81.8 75.95 81.8 76.85 81.8 76.8 81.4 76.8 80.95 77.75 79.3 78.65 77.7 78.9 77.7 79.8 77.7 79.8 77.95 L79.8 79.2 79.95 80.6 Q80.2 82.25 80.9 83.1 L80.95 83.15 81.7 82.8 M85.75 80.3 L86.0 80.3 86.95 80.5 86.6 80.55 86.1 80.8 84.8 81.05 84.95 80.85 Q85.4 80.3 85.75 80.3 M87.5 78.65 L87.1 78.5 85.65 78.35 Q85.1 78.4 84.65 78.75 L84.0 79.3 Q83.45 79.85 83.2 80.4 82.8 81.0 82.8 81.55 L83.0 82.2 Q83.5 82.8 85.1 82.8 L86.25 82.8 87.5 82.7 88.25 82.6 89.95 82.3 90.0 82.1 90.1 81.65 Q89.5 74.45 85.6 74.45 84.2 74.45 83.4 75.4 82.8 76.1 82.8 76.65 82.8 77.05 83.65 77.8 L84.2 76.55 Q84.3 76.25 85.35 76.2 L86.35 76.2 87.0 77.65 87.5 78.65 M95.15 79.0 Q93.35 78.55 91.6 77.7 L92.6 76.2 94.5 76.4 Q95.1 74.45 93.1 74.45 91.65 74.45 90.65 75.8 89.8 76.95 89.8 77.95 89.8 79.25 93.8 80.95 91.75 81.75 91.1 82.4 90.8 82.65 90.8 82.9 90.8 83.55 91.6 83.8 L92.05 83.65 Q95.0 82.65 95.6 82.25 96.1 81.85 96.1 80.55 96.1 79.35 95.15 79.0 M41.6 26.65 L41.0 26.1 Q40.0 26.75 39.35 26.75 38.2 26.75 37.85 26.0 L37.65 25.0 Q39.6 24.25 39.95 23.75 L40.1 22.3 40.0 20.95 Q39.35 19.85 36.75 19.85 35.35 19.85 35.35 22.35 L36.25 25.25 Q37.55 28.1 39.5 28.1 41.6 28.1 41.6 26.65 M35.7 89.3 L38.15 89.6 37.8 91.35 34.8 91.35 35.7 89.3 M34.3 85.9 L34.25 85.1 Q34.1 84.35 33.75 84.2 L33.5 84.15 33.35 84.2 Q32.45 84.45 32.45 87.85 L32.45 89.0 32.45 90.55 Q33.1 93.15 36.3 93.15 39.8 93.15 39.8 89.45 L40.0 89.05 Q40.15 88.4 39.6 88.0 38.8 87.5 36.65 87.5 34.85 87.5 34.45 87.85 34.25 88.05 34.15 88.55 L34.3 85.9 M30.45 77.7 Q33.2 77.15 33.45 76.8 31.95 75.8 30.3 75.8 26.45 75.8 26.45 79.8 24.85 82.15 31.3 82.15 L32.1 82.15 34.3 82.15 34.7 82.1 Q35.15 82.0 35.15 81.25 35.15 80.7 33.5 80.5 L32.1 80.4 28.15 80.4 Q28.15 78.1 30.45 77.7 M38.95 76.85 L38.5 77.15 38.7 76.15 Q38.85 74.2 37.65 73.85 36.45 74.7 36.8 77.45 L36.85 78.1 Q36.9 80.15 37.6 81.15 L37.65 81.2 38.15 80.6 39.45 79.15 39.95 78.55 Q40.45 78.85 42.95 82.45 L43.2 82.45 Q43.8 82.4 43.75 82.15 L43.8 81.15 43.55 80.6 Q41.65 76.45 39.95 76.45 39.55 76.45 38.95 76.85 M36.9 23.5 L36.6 22.55 36.9 21.4 Q38.85 21.45 38.85 22.45 39.15 23.6 36.9 23.5 M32.5 24.45 L31.25 20.35 Q30.6 20.6 30.6 21.05 L32.35 28.9 Q32.35 29.55 32.25 29.15 L31.65 28.85 26.85 26.35 26.75 26.35 Q26.25 26.35 26.1 26.85 27.65 33.9 28.75 35.6 L29.25 35.4 29.35 34.15 29.15 32.9 28.3 29.15 28.05 28.55 28.0 28.5 28.1 28.5 Q30.4 30.6 32.6 30.6 L33.5 30.4 33.6 29.15 32.5 24.45 M65.55 70.9 Q65.15 71.05 65.1 71.4 L65.1 71.55 64.9 75.45 62.1 75.65 Q61.8 75.75 61.8 76.4 61.8 76.7 62.65 77.45 L64.8 76.9 64.65 78.05 Q64.6 81.85 66.3 83.45 L67.05 83.2 67.1 77.05 67.1 76.45 69.25 76.35 70.1 76.3 Q70.1 75.6 67.1 75.5 L67.0 71.45 66.95 70.95 66.15 70.8 65.55 70.9 M95.8 104.45 Q94.9 104.45 94.35 104.95 L94.2 105.1 93.7 105.9 93.4 105.0 93.05 104.7 91.95 104.45 Q90.8 104.45 89.7 106.75 88.8 108.65 88.8 109.55 88.8 111.7 89.6 112.45 L90.35 112.15 Q90.25 108.4 92.05 106.45 92.75 109.6 93.95 111.15 L94.55 110.95 Q94.95 107.9 95.35 106.75 L95.3 110.1 Q95.3 112.1 96.3 113.15 L97.05 112.9 97.1 108.8 96.95 104.65 95.8 104.45 M111.35 112.4 Q110.85 113.05 108.3 113.65 L107.8 113.45 Q107.8 110.95 108.85 110.95 110.4 110.95 111.35 112.4 M102.1 106.95 Q102.45 107.45 102.45 108.65 L100.6 108.4 100.55 108.2 101.85 106.95 102.1 106.95 M103.85 109.9 L104.1 107.9 Q104.85 105.15 101.95 105.15 100.4 105.15 99.1 107.3 98.1 109.0 98.1 109.8 98.1 110.95 99.3 112.55 100.95 114.8 103.8 114.8 L104.65 114.65 104.8 113.7 Q104.8 113.45 102.45 112.1 100.05 110.7 99.8 109.95 103.0 111.2 103.85 109.9 M28.3 106.8 Q26.15 106.8 26.15 108.3 26.15 109.2 26.95 109.45 L27.6 108.95 Q27.75 108.55 29.3 108.55 30.9 108.55 31.5 110.6 30.7 112.05 29.3 112.65 28.15 113.2 28.15 113.65 L28.15 114.25 Q28.8 114.8 32.15 114.8 L35.65 114.7 Q36.15 114.6 36.15 113.95 36.15 113.0 31.7 112.95 33.15 111.65 33.15 110.6 31.6 106.8 28.3 106.8 M40.45 108.5 Q40.0 105.45 37.95 105.45 37.2 105.45 36.45 106.4 35.8 107.3 35.8 108.05 L36.1 108.95 Q36.7 109.8 38.5 109.8 40.45 109.8 40.45 108.5 M44.1 110.9 Q45.3 107.25 45.85 106.15 45.3 105.45 44.8 105.45 43.45 105.45 42.2 109.45 41.15 112.7 41.15 114.2 41.15 114.85 42.0 115.15 43.1 113.85 44.1 110.9 M44.95 110.65 L44.8 111.3 45.2 114.3 47.15 114.45 Q48.75 114.45 49.05 113.95 L49.15 112.95 Q49.35 110.45 46.3 110.45 L44.95 110.65 M54.45 107.7 Q54.45 106.3 54.8 105.8 L56.7 106.9 56.35 107.65 54.45 107.7 M54.8 103.8 L54.6 103.8 Q53.4 103.95 52.85 105.95 52.5 107.2 52.5 108.45 L53.2 111.35 Q54.05 114.15 54.95 114.15 55.85 114.15 55.7 113.8 L55.8 112.9 54.95 110.05 Q56.3 110.75 60.3 114.45 60.95 114.45 61.1 113.75 60.35 111.25 56.95 109.45 58.8 107.75 58.8 106.95 58.2 105.45 57.25 104.65 56.2 103.8 54.8 103.8 M65.1 107.95 L61.8 108.05 61.8 106.3 Q63.55 106.05 65.1 107.95 M62.6 104.45 L62.45 104.45 61.4 104.6 Q60.35 104.9 60.1 105.9 59.9 106.65 60.1 107.65 60.1 109.0 60.8 110.65 61.95 113.45 64.3 113.45 68.45 113.45 68.45 111.95 L68.3 111.55 67.6 111.15 Q67.4 111.15 63.8 112.45 62.3 113.0 62.35 109.95 67.1 110.0 67.1 108.45 66.55 104.5 62.6 104.45 M72.45 110.65 Q73.6 110.25 74.0 110.8 L74.35 111.7 71.45 111.65 71.75 111.4 72.45 110.65 M73.25 104.1 Q72.9 103.9 72.6 103.85 L72.1 103.8 Q70.3 103.8 69.5 104.35 69.05 104.65 68.9 105.1 L68.8 105.65 Q68.8 106.55 69.65 106.8 L70.45 106.05 Q70.6 105.7 71.95 105.7 73.5 105.7 73.85 107.0 L74.05 108.65 Q72.8 108.4 70.9 109.95 69.1 111.45 69.1 112.3 69.1 113.15 69.45 113.3 L75.25 113.8 Q76.4 113.8 76.65 113.45 L76.8 112.05 Q75.55 105.35 73.25 104.1 M78.6 101.15 L78.5 101.15 Q77.8 101.3 77.8 102.8 L77.85 103.4 78.0 104.2 78.75 108.2 Q79.85 113.45 80.6 114.8 L81.35 114.55 81.45 113.2 80.55 107.25 80.5 107.1 80.1 105.15 79.9 104.3 79.55 103.0 79.4 102.4 Q78.95 101.15 78.6 101.15 M74.05 88.9 L73.95 89.15 Q72.95 90.15 71.8 90.4 L71.8 88.65 74.05 88.9 M67.95 92.15 Q66.9 92.85 66.25 92.45 L64.8 91.35 Q68.1 91.2 68.1 88.9 67.15 86.45 64.05 86.45 62.1 86.45 62.1 89.2 62.1 90.25 63.1 91.95 64.65 94.5 67.25 94.5 68.8 94.5 68.8 93.3 L67.95 92.15 M69.8 87.95 L69.8 88.0 70.15 91.45 Q70.7 94.85 71.95 94.85 72.8 94.85 72.8 94.4 72.8 93.15 72.45 92.65 79.1 93.1 79.1 91.95 79.1 91.05 74.7 90.9 75.8 89.3 75.8 88.8 75.8 87.5 74.35 87.05 L72.25 86.8 72.2 86.8 71.8 86.8 70.15 86.95 Q69.8 87.1 69.8 87.95 M66.2 89.05 L66.15 89.3 63.8 89.3 63.8 89.05 64.1 88.3 66.2 89.05 M60.6 88.6 L59.6 87.15 Q58.45 87.4 57.6 87.75 54.8 88.85 54.8 90.9 L54.9 92.45 Q55.25 93.8 56.3 93.8 57.6 93.8 59.15 91.7 L59.85 93.8 Q60.05 95.95 58.1 95.95 L53.45 95.7 53.45 96.45 54.4 97.0 Q56.0 97.75 58.25 97.8 L58.45 97.8 Q60.1 97.8 60.85 96.65 61.35 95.8 61.45 94.4 L61.45 93.9 Q61.45 90.5 60.6 88.6 M58.35 89.25 L58.3 89.4 Q57.05 91.65 56.55 91.7 L56.45 91.55 Q56.45 89.3 57.45 89.3 L58.35 89.25 M48.15 87.9 L48.15 89.9 48.15 91.9 Q48.4 93.8 49.7 93.8 50.55 93.8 50.45 93.45 L50.45 92.4 53.45 93.45 Q54.8 93.45 54.8 92.6 L54.65 92.2 Q53.6 91.15 52.6 90.95 L51.1 90.7 51.3 90.2 Q53.25 89.65 53.7 88.75 L53.8 88.2 Q54.1 87.3 53.0 87.0 L51.7 86.8 51.15 86.8 50.1 86.85 Q48.5 87.05 48.15 87.9 M49.8 89.25 L49.9 88.9 Q50.1 88.55 50.9 88.55 L50.8 88.65 Q50.25 88.9 49.8 89.25 M46.25 88.6 L45.65 87.5 44.8 87.85 44.8 88.85 44.7 91.35 43.55 91.4 Q43.25 91.1 42.75 89.1 L42.4 88.2 42.05 87.7 41.5 87.5 Q40.8 87.5 40.6 87.8 L40.45 88.2 40.55 88.6 41.15 90.7 Q42.25 93.15 44.3 93.15 46.05 93.15 46.4 91.9 L46.45 89.95 46.25 88.6 M50.15 77.8 Q49.95 75.15 46.95 75.15 45.65 75.15 44.45 76.4 43.45 77.5 43.45 78.2 43.45 79.4 44.05 80.25 44.5 80.85 45.3 81.2 L46.2 80.7 46.2 79.45 Q47.45 79.6 49.95 82.15 L50.8 81.45 Q50.8 80.2 49.05 78.95 50.15 78.9 50.15 77.8 M46.2 77.4 L46.2 76.9 Q47.55 76.9 47.7 77.35 L46.2 77.4 M54.8 80.3 Q54.8 79.1 53.65 76.15 L53.05 76.85 52.85 77.75 Q52.85 80.75 53.95 81.8 L54.7 81.55 54.8 80.3 M56.45 76.9 Q56.45 77.85 57.45 78.65 L59.55 80.4 Q56.45 81.3 56.45 81.9 56.45 82.3 56.8 82.65 L57.4 82.8 Q59.3 82.8 60.8 81.95 L60.85 81.95 Q62.1 81.25 62.1 80.65 62.1 79.6 58.2 76.9 59.25 76.45 60.75 75.95 61.8 75.55 61.8 74.9 L61.6 74.3 60.25 74.2 Q56.45 74.9 56.45 76.9" fill="#ffdddd" fill-rule="evenodd" stroke="none"/>
      <path d="M558.4 173.05 L558.85 172.5 559.9 173.1 558.4 173.05 M253.4 191.35 L253.55 193.5 Q253.8 196.25 254.45 198.5 255.15 200.85 256.35 202.65 L245.5 202.7 248.6 198.5 252.0 193.5 253.4 191.35" fill="#ffbbbb" fill-rule="evenodd" stroke="none"/>
      <path d="M363.45 117.55 Q363.35 118.95 363.4 120.5 363.5 126.15 364.35 136.5 L364.4 153.75 Q365.4 165.5 370.85 165.5 374.5 165.5 379.3 164.0 386.2 161.8 388.85 161.25 389.35 166.0 389.35 175.75 389.35 182.5 389.05 183.8 388.05 188.4 383.35 191.0 381.35 192.1 377.55 193.5 L365.8 197.25 Q363.65 197.9 362.0 198.5 356.9 200.4 356.4 202.35 L343.35 202.4 345.1 201.75 345.2 198.5 345.3 193.5 346.35 145.5 346.35 130.5 346.25 129.5 Q351.9 129.25 359.9 121.3 L363.45 117.55" fill="#eaeaea" fill-rule="evenodd" stroke="none"/>
      <path d="M341.65 137.3 L341.35 145.75 Q341.35 154.7 339.8 174.25 339.35 185.2 340.65 193.5 L341.65 198.5 Q342.15 200.55 342.8 202.4 L260.1 202.6 260.15 198.5 260.2 193.5 260.35 131.0 340.1 130.75 Q341.65 130.75 341.65 137.3" fill="#e1e1e1" fill-rule="evenodd" stroke="none"/>
      <path d="M350.15 123.75 Q343.25 125.7 341.75 126.45 333.95 125.9 300.35 125.5 294.35 125.5 277.8 125.85 L264.4 126.25 265.05 125.9 267.1 125.0 275.15 121.3 Q278.8 119.55 281.35 117.95 285.4 115.35 286.75 113.05 L302.55 113.0 Q303.0 118.85 304.85 120.5 305.85 120.25 307.1 119.5 L307.35 113.0 360.35 112.75 Q359.2 119.85 350.15 123.75 M289.35 85.0 L289.35 84.75 322.35 84.75 322.35 96.5 305.55 96.65 304.85 96.5 304.2 96.65 289.6 96.75 290.3 89.3 Q290.8 85.0 289.35 85.0" fill="#eeeeee" fill-rule="evenodd" stroke="none"/>
      <path d="M460.0 243.1 Q457.35 243.1 457.35 246.75 457.35 249.6 460.75 249.6 462.1 249.6 462.1 248.4 L461.5 247.85 Q460.5 248.2 459.55 247.6 L458.6 246.85 Q462.4 247.5 461.85 245.3 462.15 243.1 460.0 243.1 M460.6 245.5 L458.85 245.5 458.85 245.4 459.1 244.85 Q459.65 244.5 459.75 244.5 460.25 244.5 460.6 245.5 M453.55 244.85 L452.35 243.85 451.6 244.15 Q451.75 245.0 453.15 246.9 454.65 248.85 455.35 248.85 457.6 244.15 457.6 243.0 457.6 242.1 457.0 242.1 L456.35 242.25 Q456.25 243.7 454.9 246.6 L454.6 246.6 Q454.45 245.85 453.55 244.85 M450.35 244.1 Q450.8 242.6 449.0 242.6 446.95 242.6 446.5 244.1 446.35 244.5 446.35 246.4 446.35 248.45 447.0 249.1 L447.6 248.75 447.6 247.1 Q448.5 247.5 450.5 249.1 L451.1 248.5 Q450.75 247.75 449.0 246.25 450.35 245.25 450.35 244.1 M448.75 244.0 L449.1 244.0 449.1 244.25 447.75 245.25 448.25 244.5 448.75 244.0 M449.6 233.45 Q449.3 231.35 447.5 231.35 444.85 231.35 444.85 233.75 L445.35 235.45 Q446.15 237.1 447.6 237.1 449.6 237.1 449.6 235.9 L449.0 235.35 Q447.5 236.05 447.05 235.55 L446.4 234.5 Q449.6 234.3 449.6 233.45 M447.0 232.85 Q447.5 232.6 447.85 233.0 L446.5 233.0 447.0 232.85 M462.9 234.75 L462.35 234.5 Q462.1 233.2 462.55 232.75 463.1 232.25 464.35 233.4 464.35 234.75 462.9 234.75 M463.0 231.1 Q461.5 231.1 461.15 231.95 L461.1 233.5 461.1 234.9 Q461.5 236.1 463.6 236.1 465.6 236.1 465.6 233.55 465.6 233.0 465.0 232.2 464.25 231.1 463.0 231.1 M457.1 234.85 Q457.65 233.4 459.1 232.9 L459.1 233.0 459.05 235.6 Q459.05 237.1 459.75 237.85 L460.35 237.5 460.35 232.1 Q460.1 231.6 458.75 231.6 L456.75 232.25 455.6 232.25 455.35 235.55 Q455.35 236.8 456.0 237.1 L456.4 236.9 457.1 234.85 M401.85 241.05 Q401.85 240.7 401.25 240.35 399.35 242.4 399.35 246.65 399.35 248.35 400.0 248.85 L400.6 248.5 Q400.6 246.85 401.25 244.55 401.85 242.2 401.85 241.05 M403.25 228.75 L402.25 228.6 Q401.1 228.45 399.8 229.55 398.6 230.55 398.6 231.2 398.6 232.25 400.2 233.3 402.0 234.45 402.35 236.1 L397.85 237.25 Q396.85 237.45 396.85 237.9 L396.9 238.25 399.0 238.6 Q401.45 238.6 402.75 237.5 403.6 236.8 403.6 236.1 403.6 235.35 401.9 233.45 L399.85 231.25 Q400.5 230.65 402.1 230.1 403.35 229.65 403.35 229.15 L403.25 228.75 M474.35 223.75 L474.35 294.0 395.35 294.25 394.4 250.5 Q393.85 224.0 395.35 224.0 L395.35 223.75 474.35 223.75 M461.35 275.85 Q461.25 275.65 460.75 275.35 460.1 275.5 460.1 275.9 L460.15 276.25 Q460.45 276.6 460.75 276.6 461.35 276.6 461.15 276.4 L461.35 275.85 M455.5 269.85 Q453.85 269.85 453.85 271.05 453.85 272.1 455.5 273.45 457.1 274.8 457.1 275.4 457.1 275.9 455.5 276.15 453.85 276.4 453.85 276.65 L453.95 277.0 Q454.25 277.35 455.5 277.35 458.35 277.35 458.35 275.35 458.35 274.55 457.25 273.55 L455.1 271.25 Q456.85 271.7 457.1 270.6 456.35 269.85 455.5 269.85 M428.25 256.5 Q437.25 256.65 442.15 258.25 446.05 260.05 447.75 263.45 L447.75 264.0 Q447.75 267.85 445.75 271.75 442.3 278.5 434.6 278.5 427.55 278.5 423.8 273.5 L423.55 273.15 Q421.85 269.55 421.85 266.5 421.8 263.9 422.85 261.35 L423.2 260.6 423.45 260.35 425.2 258.4 Q426.4 257.2 428.25 256.5 M427.25 263.0 L427.25 265.2 Q428.0 267.25 432.0 267.25 L435.75 266.6 435.75 266.85 Q435.75 274.1 437.35 275.65 L437.5 276.1 438.0 275.85 438.05 275.5 438.75 275.05 438.75 271.75 Q438.15 270.4 438.25 265.85 L438.25 264.4 438.25 263.35 Q438.5 262.15 438.25 261.5 437.9 257.25 432.25 257.25 427.25 257.25 427.25 263.0 M435.1 263.85 Q434.55 264.5 432.0 264.5 L430.35 264.15 Q429.85 263.3 429.85 262.8 L430.1 261.6 Q430.75 260.5 432.75 260.5 L433.65 260.55 433.7 260.55 435.75 262.25 435.1 263.85 M435.0 252.75 Q431.05 252.75 427.6 253.95 421.4 254.85 419.25 260.0 418.25 262.35 418.25 267.6 418.25 272.0 421.3 276.1 424.55 280.4 430.3 281.95 433.6 283.35 437.85 283.35 444.45 283.35 447.65 278.55 449.15 276.95 450.25 274.8 452.65 270.15 452.65 266.0 452.65 262.35 449.5 259.25 L447.9 257.9 Q443.8 252.75 435.0 252.75 M437.1 245.1 Q437.1 246.25 437.25 246.55 L438.75 248.0 Q438.5 248.4 436.75 248.4 L436.6 248.9 436.65 249.25 Q436.95 249.6 438.0 249.6 440.35 249.6 440.35 248.05 438.35 245.6 438.35 244.75 440.1 244.4 440.1 243.65 L440.0 243.25 439.25 243.1 Q437.6 243.25 437.25 243.8 437.1 244.0 437.1 245.1 M440.1 245.9 L440.35 247.3 Q441.0 248.6 443.0 248.6 444.85 248.6 444.85 247.9 444.85 247.6 443.1 247.15 441.35 246.65 441.35 245.8 L441.5 245.4 Q441.85 245.0 442.55 245.0 443.55 245.0 443.75 245.5 L442.1 245.5 442.1 246.1 Q442.55 246.85 443.85 246.85 L445.0 246.6 445.1 245.55 Q445.45 243.6 442.6 243.6 440.1 243.6 440.1 245.9 M427.45 246.8 Q427.6 247.0 427.95 247.05 L428.6 248.3 Q429.45 249.85 430.0 249.85 430.6 249.85 430.5 249.65 L430.6 249.0 Q430.6 248.45 430.05 247.85 429.5 247.3 429.5 246.85 L430.35 244.65 Q430.65 243.35 429.35 243.35 426.1 243.35 426.1 247.75 426.1 249.05 426.75 249.35 L427.25 249.1 427.45 246.8 M428.35 245.85 L427.65 245.95 Q428.05 245.2 429.1 244.85 L429.1 245.0 428.65 245.9 428.35 245.85 M432.0 238.35 L433.6 235.8 Q433.6 235.45 433.0 235.1 432.55 235.35 431.95 236.35 L431.35 237.5 432.0 238.35 M436.85 231.4 L436.85 233.65 437.15 235.05 Q437.3 235.85 438.35 235.85 439.15 235.85 440.4 233.85 L440.85 234.9 Q441.3 235.85 441.85 235.85 442.5 235.85 443.1 234.25 L443.6 232.15 Q443.8 230.6 443.0 230.6 442.3 230.6 442.2 231.9 442.05 233.5 441.75 233.85 441.75 231.85 440.6 231.85 L438.6 234.0 Q438.55 231.1 437.5 231.1 L436.85 231.4 M421.25 244.75 Q420.35 245.6 420.35 246.4 L421.0 247.65 Q421.95 248.85 423.25 248.85 425.1 248.85 425.1 247.9 L425.0 247.5 422.35 247.25 Q424.85 246.85 424.85 245.1 425.3 243.85 423.5 243.85 422.3 243.85 421.25 244.75 M423.6 245.15 L423.6 245.25 423.5 245.5 422.35 245.75 Q422.6 245.15 423.6 245.15 M419.6 246.6 Q420.1 245.9 420.1 245.3 420.1 244.35 418.25 244.35 417.1 244.35 416.0 245.25 415.1 246.05 415.1 246.6 L415.25 247.25 Q415.65 247.85 416.85 247.85 L418.35 247.35 Q418.85 248.3 418.85 249.75 L418.85 251.1 Q418.4 252.25 415.9 252.25 415.6 252.25 415.4 251.55 415.15 250.85 414.5 250.85 414.1 250.85 413.85 251.25 413.85 253.6 416.75 253.6 419.6 253.6 420.1 252.0 L420.1 249.95 419.6 246.6 M418.0 245.75 L417.9 245.9 Q417.45 246.5 416.6 246.5 L416.75 246.25 417.5 245.75 418.0 245.75 M409.25 244.6 Q408.65 244.9 408.6 244.9 L408.6 248.1 409.25 248.6 409.6 248.5 Q410.65 246.25 412.5 245.25 L412.85 245.5 412.85 247.15 Q412.05 249.35 413.75 249.35 L414.35 248.85 414.4 245.6 Q414.4 243.85 412.6 243.85 411.4 245.0 409.9 245.5 409.7 244.6 409.25 244.6 M407.35 246.0 Q407.7 244.35 405.35 244.35 L404.0 245.15 Q402.85 246.05 402.85 246.55 402.85 248.6 404.85 248.6 405.95 248.6 406.75 247.5 407.35 246.65 407.35 246.0 M405.6 245.85 L405.9 245.85 406.1 246.25 405.0 247.1 Q404.4 247.1 404.15 246.65 L405.6 245.85 M412.85 231.5 L414.0 231.25 414.6 231.2 414.6 231.75 413.0 232.0 412.85 231.85 412.85 231.5 M407.95 232.9 Q408.75 233.1 408.75 233.5 408.45 235.0 407.5 235.0 406.1 235.0 406.1 233.4 406.1 232.9 406.5 232.25 L407.95 232.9 M409.15 232.0 Q407.85 230.85 406.75 230.85 404.85 230.85 404.85 233.55 404.85 234.3 405.25 235.05 406.0 236.35 407.75 236.35 408.35 236.35 409.35 235.25 410.35 234.15 410.35 233.45 410.35 233.0 409.15 232.0 M424.6 230.1 L424.6 233.65 425.2 235.35 Q425.95 236.35 428.1 235.65 428.55 236.7 427.0 237.75 425.3 238.85 423.75 238.7 422.85 238.65 422.85 239.3 422.85 240.1 425.0 240.1 428.5 240.1 429.25 237.25 L429.35 233.55 Q429.55 229.6 428.75 229.6 L428.1 229.75 428.2 232.35 Q428.25 233.85 426.35 234.5 L426.05 231.8 Q425.8 229.85 425.25 229.85 L424.6 230.1 M418.35 230.85 Q418.1 231.4 418.1 233.3 418.1 235.5 419.25 236.6 L419.75 236.35 Q419.9 235.05 419.65 234.25 420.55 234.55 423.25 236.85 423.85 236.85 423.75 236.6 L423.85 235.95 Q423.85 235.4 421.0 233.4 423.35 231.9 423.35 230.9 423.65 229.35 421.75 229.35 419.05 229.35 418.35 230.85 M419.6 232.25 L419.45 231.35 Q419.55 230.75 420.85 230.75 L422.1 230.75 422.0 230.85 Q420.15 232.25 419.6 232.25 M415.25 233.1 Q415.85 232.8 415.85 231.5 416.3 229.85 414.6 229.85 411.35 229.85 411.35 235.55 411.35 236.3 412.0 236.6 L412.4 236.4 412.85 233.4 Q415.8 234.0 417.25 237.35 L417.75 237.15 417.85 236.1 Q417.85 235.15 417.5 234.75 L415.25 233.1" fill="#fff7f7" fill-rule="evenodd" stroke="none"/>
      <path d="M162.25 114.3 Q166.3 116.1 170.95 120.25 L174.15 123.25 177.4 126.65 Q183.85 133.9 185.25 139.25 L187.7 148.05 187.15 145.55 191.9 161.45 191.5 163.5 Q191.5 168.65 191.0 169.5 190.15 170.95 186.5 172.0 L182.5 173.0 Q180.0 173.5 123.5 174.25 99.6 174.25 87.75 169.55 80.8 166.8 77.8 163.45 75.25 160.6 75.15 159.75 L74.65 160.35 Q79.4 132.8 98.0 122.35 99.85 121.3 101.85 120.4 105.85 118.65 110.9 117.3 117.15 115.6 125.05 114.55 L128.1 114.15 156.0 112.75 157.35 112.85 Q159.7 113.1 162.25 114.3 M181.45 163.0 Q180.35 161.25 180.35 160.1 180.35 149.35 168.4 139.25 155.7 128.5 139.85 128.5 L132.85 129.0 Q111.35 128.75 102.6 140.25 97.35 147.1 97.35 157.0 L97.35 163.75 Q97.35 164.5 97.6 165.25 L130.85 166.5 179.15 165.0 Q181.9 164.35 181.45 163.0" fill="#554400" fill-rule="evenodd" stroke="none"/>
      <path d="M175.35 160.0 Q165.85 160.5 162.85 161.25 L102.35 161.25 Q101.85 160.75 101.85 158.25 101.85 151.55 105.85 145.5 113.45 134.0 132.35 134.0 156.55 134.0 168.05 146.05 173.35 151.65 175.35 160.0" fill="#433501" fill-rule="evenodd" stroke="none"/>
      <path d="M179.45 178.1 Q178.35 181.55 173.2 193.5 L171.05 198.5 166.8 208.15 166.0 210.0 163.55 215.45 156.9 230.45 156.1 232.3 153.15 238.9 152.45 240.5 140.3 267.7 137.0 267.55 123.15 266.25 119.45 265.75 133.2 237.7 134.25 235.55 144.6 214.5 145.6 212.5 146.9 209.85 147.55 208.55 152.5 198.5 155.0 193.5 162.0 179.35 164.2 179.3 176.5 178.45 179.45 178.1 M153.4 267.95 L153.25 267.35 Q153.25 264.85 163.25 244.8 174.8 221.65 175.55 219.75 180.05 207.95 183.85 198.5 L185.85 193.5 Q190.05 183.15 193.3 176.0 L192.65 185.2 191.75 193.5 191.1 198.5 190.4 203.2 189.7 208.15 189.3 210.85 189.05 212.8 189.0 213.2 187.55 233.4 187.5 235.35 187.5 239.55 184.6 245.4 Q179.15 256.25 175.25 262.15 L171.8 263.45 Q161.3 267.25 155.2 267.9 L153.4 268.0 153.4 267.95 M88.4 174.4 L91.3 175.1 99.8 176.65 105.05 177.35 107.25 177.6 Q107.25 179.05 99.95 193.5 L98.8 195.8 98.65 196.15 98.0 197.45 97.45 198.5 Q90.35 212.05 85.7 218.55 L85.15 214.25 84.05 205.9 83.0 198.5 82.25 193.5 82.05 192.3 81.3 187.75 83.1 184.0 Q86.3 177.5 88.4 174.4 M123.75 178.9 L126.4 179.0 143.05 179.45 146.25 179.5 137.65 193.5 136.3 195.65 134.5 198.5 131.45 203.4 130.5 204.9 128.4 208.3 126.4 211.5 120.55 221.05 Q118.25 225.1 111.5 241.0 L111.0 242.25 109.55 245.6 Q103.7 258.15 99.45 261.8 L95.7 260.75 90.85 259.15 88.5 258.25 88.5 256.1 88.45 254.15 88.45 253.7 87.8 240.75 87.4 235.25 Q91.3 228.6 99.3 215.9 L100.0 214.75 100.25 214.4 100.3 214.3 110.45 198.5 112.9 194.85 113.75 193.5 Q119.45 184.9 123.75 178.9 M93.9 197.45 L93.8 197.45 93.85 197.55 93.9 197.45 M112.8 202.1 L112.65 201.85 112.6 201.95 112.8 202.1 112.75 202.2 112.75 202.25 113.05 202.4 113.25 202.35 113.05 202.3 112.8 202.1 M154.65 207.25 L154.65 207.3 154.65 207.25" fill="#d5ffe6" fill-rule="evenodd" stroke="none"/>
      <path d="M140.3 267.7 L152.45 240.5 153.15 238.9 156.1 232.3 156.9 230.45 163.55 215.45 166.0 210.0 166.8 208.15 171.05 198.5 173.2 193.5 Q178.35 181.55 179.45 178.1 189.05 176.85 193.35 174.55 L193.3 176.0 Q190.05 183.15 185.85 193.5 L183.85 198.5 Q180.05 207.95 175.55 219.75 174.8 221.65 163.25 244.8 153.25 264.85 153.25 267.35 L153.4 267.95 153.0 268.0 140.3 267.7 M162.0 179.35 L155.0 193.5 152.5 198.5 147.55 208.55 146.9 209.85 145.6 212.5 144.6 214.5 134.25 235.55 133.2 237.7 119.45 265.75 Q111.1 264.55 103.4 262.75 L99.45 261.8 Q103.7 258.15 109.55 245.6 L111.0 242.25 111.5 241.0 Q118.25 225.1 120.55 221.05 L126.4 211.5 128.4 208.3 130.5 204.9 131.45 203.4 134.5 198.5 136.3 195.65 137.65 193.5 146.25 179.5 151.0 179.5 162.0 179.35 M187.5 239.55 L187.65 247.35 Q187.95 252.45 189.0 256.4 L176.2 261.75 175.25 262.15 Q179.15 256.25 184.6 245.4 L187.5 239.55 M88.4 174.4 Q86.3 177.5 83.1 184.0 L81.3 187.75 Q79.65 178.3 78.0 170.55 81.0 172.15 85.25 173.5 L85.35 173.55 88.4 174.4 M85.7 218.55 Q90.35 212.05 97.45 198.5 L98.0 197.45 98.65 196.15 98.9 196.1 98.8 195.8 99.95 193.5 Q107.25 179.05 107.25 177.6 L123.75 178.9 Q119.45 184.9 113.75 193.5 L112.9 194.85 110.45 198.5 100.3 214.3 100.25 214.4 100.0 214.25 100.0 214.75 99.3 215.9 Q91.3 228.6 87.4 235.25 86.75 227.35 85.7 218.55" fill="#f70000" fill-rule="evenodd" stroke="none"/>
      <path d="M153.0 268.0 L153.4 267.95 153.4 268.0 153.0 268.0 M98.65 196.15 L98.8 195.8 98.9 196.1 98.65 196.15 M100.25 214.4 L100.0 214.75 100.0 214.25 100.25 214.4 M154.65 207.25 L154.65 207.3 154.65 207.25 M112.8 202.1 L112.6 201.95 112.65 201.85 112.8 202.1 M113.05 202.3 L113.25 202.35 113.05 202.4 113.05 202.3" fill="#876b01" fill-rule="evenodd" stroke="none"/>
      <path d="M528.85 241.5 Q535.6 241.5 539.75 240.2 538.8 243.55 538.7 248.9 L538.55 262.6 Q537.85 270.3 534.35 274.15 530.0 279.0 520.35 279.0 503.65 279.0 495.1 273.8 489.35 270.3 489.35 267.0 489.35 262.95 493.55 261.0 494.8 260.45 502.85 258.4 509.15 256.75 512.15 254.2 516.35 250.5 516.35 243.5 516.65 242.0 516.55 240.95 L528.85 241.5" fill="#fd1c1c" fill-rule="evenodd" stroke="none"/>
      <path d="M528.85 241.5 L516.55 240.95 Q516.65 242.0 516.35 243.5 516.35 250.5 512.15 254.2 509.15 256.75 502.85 258.4 494.8 260.45 493.55 261.0 489.35 262.95 489.35 267.0 489.35 270.3 495.1 273.8 503.65 279.0 520.35 279.0 530.0 279.0 534.35 274.15 537.85 270.3 538.55 262.6 L538.7 248.9 Q538.8 243.55 539.75 240.2 535.6 241.5 528.85 241.5 M540.6 230.75 L514.85 230.25 Q513.3 230.25 513.15 232.3 513.1 233.4 513.35 235.25 L516.1 236.0 540.35 236.0 Q540.35 232.25 540.6 230.75 M546.9 227.95 L546.35 229.35 546.55 232.45 Q546.5 234.85 545.4 236.5 544.3 238.1 542.2 239.2 543.05 240.8 543.3 243.25 L543.35 250.0 Q543.35 262.5 541.4 268.75 536.4 284.5 520.35 284.5 484.35 284.5 484.35 267.0 484.35 260.65 487.15 258.4 488.65 257.2 494.1 256.0 499.6 254.75 502.9 252.15 507.8 248.25 511.1 239.9 509.25 239.35 508.4 238.55 507.3 237.6 507.7 236.25 L508.35 234.75 Q508.35 232.35 509.65 228.8 511.55 223.5 514.85 223.5 539.4 223.5 545.15 226.0 547.0 226.85 546.9 227.95" fill="#000000" fill-rule="evenodd" stroke="none"/>
      <path d="M540.6 230.75 Q540.35 232.25 540.35 236.0 L516.1 236.0 513.35 235.25 Q513.1 233.4 513.15 232.3 513.3 230.25 514.85 230.25 L540.6 230.75" fill="#ffffff" fill-rule="evenodd" stroke="none"/>
    </g>
  </defs>
</svg>
