<?xml version="1.0" encoding="UTF-8" standalone="no"?>
<svg xmlns:xlink="http://www.w3.org/1999/xlink" height="842.55px" width="1337.95px" xmlns="http://www.w3.org/2000/svg">
  <g transform="matrix(1, 0, 0, 1, 407.45, 285.05)">
    <use height="4.5" transform="matrix(5.4867, 0.0, 0.0, 81.5667, 3.2875, 23.0167)" width="99.75" xlink:href="#shape0"/>
    <use height="416.0" transform="matrix(1.0, 0.0, 0.0, 1.0, -2.0, -8.5)" width="569.35" xlink:href="#shape1"/>
  </g>
  <defs>
    <g id="shape0" transform="matrix(1, 0, 0, 1, 49.85, -2.5)">
      <path d="M49.9 7.0 L-49.85 7.0 -49.85 2.5 49.9 2.5 49.9 7.0" fill="#ffffff" fill-rule="evenodd" stroke="none"/>
    </g>
    <g id="shape1" transform="matrix(1, 0, 0, 1, 2.0, 8.5)">
      <path d="M70.75 -7.0 L70.9 -4.9 71.0 -3.05 Q71.5 8.2 71.5 44.1 71.5 77.5 70.45 91.0 69.15 108.15 63.25 144.25 L59.5 169.45 Q57.25 184.6 55.35 194.2 50.3 219.55 41.05 238.55 42.7 238.7 44.2 239.9 L47.0 242.5 Q47.6 242.95 53.0 244.5 L59.0 245.5 74.05 245.65 Q78.5 242.15 85.0 238.5 L77.9 230.9 Q76.5 229.25 76.5 225.0 76.5 216.55 85.8 204.6 93.7 194.4 105.5 185.0 108.05 182.95 112.75 176.6 118.2 169.3 122.75 164.75 127.75 159.05 132.8 154.45 L134.5 153.0 Q138.2 149.8 141.3 148.0 144.7 145.95 147.35 145.6 L148.5 145.5 154.25 146.1 156.0 145.25 Q158.05 144.45 160.5 144.05 L160.5 117.25 160.5 97.4 158.45 106.2 Q156.6 112.75 153.0 114.25 147.05 116.8 142.95 119.8 139.85 122.1 137.75 124.7 134.65 128.5 133.9 133.0 133.3 136.5 133.9 142.9 134.55 149.8 134.25 152.75 L132.0 153.5 Q128.5 147.95 128.5 138.0 128.5 133.4 129.65 128.5 131.05 122.35 133.5 120.0 L136.7 117.6 135.75 111.5 Q130.0 68.5 126.5 46.25 124.3 32.05 123.75 13.6 L123.55 -2.6 123.5 -7.0 130.2 -7.0 130.5 -3.05 130.55 -2.55 Q135.5 61.8 138.5 89.25 139.55 98.6 141.95 113.7 L143.1 112.8 Q149.85 107.8 150.75 104.5 152.9 95.15 158.4 86.85 L159.3 85.6 160.5 83.95 160.5 83.9 160.65 45.95 160.9 31.8 Q158.8 26.8 159.4 18.95 161.5 4.8 161.5 -1.5 L161.5 -2.3 161.2 -7.0 166.5 -7.0 166.5 30.55 168.5 30.5 Q172.2 30.5 187.5 37.2 L191.8 39.1 198.5 42.2 201.5 43.6 211.65 48.45 216.7 50.9 217.25 51.15 237.2 60.85 242.35 63.35 242.95 63.6 251.1 67.55 264.3 73.75 269.5 76.1 Q274.8 78.5 277.35 79.5 283.6 81.9 290.75 85.1 L291.35 85.35 Q296.85 87.35 304.65 88.5 L334.5 91.25 344.35 92.0 349.35 92.35 375.35 94.05 380.35 94.35 394.35 95.2 399.5 95.5 399.85 95.5 Q407.9 95.95 413.75 97.2 L418.25 98.35 419.0 98.6 430.9 102.55 Q439.0 104.65 454.1 105.95 L460.0 106.4 499.55 107.85 506.45 107.95 521.5 108.0 521.65 108.0 522.1 108.0 551.7 106.25 552.05 106.25 556.15 105.95 563.35 105.5 566.85 106.0 567.1 106.25 567.35 107.85 Q567.35 111.2 551.35 112.6 L522.35 113.5 504.95 113.4 504.3 115.9 Q500.6 130.0 494.85 137.5 L493.05 136.9 Q492.35 136.4 492.35 134.75 492.35 128.4 497.6 113.3 L458.35 111.75 455.8 120.2 Q452.65 130.0 448.25 137.65 L486.85 137.5 494.85 137.55 Q527.7 137.75 546.35 138.05 L551.45 138.1 551.95 138.1 555.95 138.2 555.95 142.3 551.95 142.3 551.45 142.3 546.35 142.3 Q497.3 142.25 445.9 141.4 L442.85 145.5 Q440.35 142.95 440.35 142.0 L440.35 141.95 440.4 141.3 440.35 141.3 402.35 140.5 402.35 139.0 403.85 137.75 441.25 137.65 Q443.5 129.9 451.75 111.25 436.65 109.9 427.8 107.85 L416.85 104.7 413.5 114.15 Q406.7 133.5 405.35 133.5 L402.6 133.0 Q402.35 133.25 402.35 130.75 402.35 129.85 407.1 115.95 L411.55 103.25 410.6 103.0 Q405.55 101.65 399.5 100.65 L399.35 113.85 399.15 231.65 399.1 235.6 514.95 236.05 515.0 236.05 546.35 236.3 548.2 236.3 551.35 236.35 551.95 236.35 555.95 236.4 555.95 240.5 551.95 240.5 551.35 240.5 548.95 240.5 546.35 240.5 Q387.75 240.4 227.75 239.1 L222.45 239.05 180.35 238.7 180.3 256.5 369.85 256.5 Q496.45 256.8 546.35 257.2 L546.95 257.2 550.9 257.25 551.3 257.25 551.95 257.25 552.15 257.25 555.95 257.35 555.95 261.5 551.3 261.5 549.6 261.5 546.35 261.5 Q399.85 261.4 252.2 260.3 L245.4 260.25 239.15 260.2 234.7 260.15 229.55 260.1 180.25 259.7 180.2 281.5 380.0 281.55 381.55 281.55 395.75 281.55 395.9 281.55 550.5 282.25 551.25 282.25 551.95 282.25 552.5 282.25 552.9 282.25 555.95 282.3 555.95 286.5 551.25 286.5 549.55 286.5 546.35 286.5 Q384.15 286.4 220.6 285.1 L212.75 285.05 200.65 284.95 180.15 284.8 180.15 291.6 182.85 291.5 Q202.35 291.5 202.35 303.85 L202.35 307.5 357.35 307.5 Q495.05 307.8 546.35 308.25 L549.45 308.25 551.25 308.3 551.95 308.3 552.5 308.3 553.05 308.3 555.95 308.3 555.95 312.5 551.95 312.5 551.25 312.5 549.4 312.5 546.35 312.5 Q374.6 312.4 201.35 311.05 L200.4 312.5 Q195.45 318.5 178.35 318.5 155.3 318.5 147.65 312.25 L146.05 310.6 146.0 310.6 137.5 310.5 137.5 309.0 Q140.0 307.75 140.0 307.5 L144.65 307.5 Q144.35 306.35 144.35 305.1 144.35 299.65 148.95 294.15 154.6 287.4 163.35 287.5 L164.75 287.7 164.4 284.65 149.5 284.5 149.5 283.0 Q152.0 281.75 152.0 281.5 L164.15 281.5 Q163.7 275.65 163.75 269.1 L164.1 259.55 160.5 259.5 160.5 258.0 Q163.0 256.75 163.0 256.5 L164.2 256.5 164.35 239.5 164.35 238.55 162.5 238.55 Q161.85 242.75 145.15 277.2 132.15 303.95 123.55 318.95 L120.4 324.25 120.25 324.5 344.35 324.5 Q495.05 324.85 546.35 325.3 L549.35 325.3 551.2 325.35 551.95 325.35 555.95 325.4 555.95 329.5 551.95 329.5 551.2 329.5 549.3 329.5 546.35 329.5 409.35 329.25 409.35 349.75 497.85 349.5 498.3 349.5 498.75 349.5 499.2 349.5 499.65 349.5 500.05 349.5 500.5 349.5 500.9 349.5 501.35 349.5 501.75 349.5 502.15 349.5 502.55 349.5 502.95 349.5 543.15 349.8 546.35 349.85 549.25 349.85 551.15 349.9 551.95 349.9 555.95 349.95 555.95 354.25 551.95 354.25 551.15 354.25 549.25 354.25 546.35 354.25 544.3 354.25 411.55 352.65 409.35 352.6 Q409.0 354.8 404.85 362.6 402.05 367.9 401.0 370.75 L498.35 370.5 498.8 370.5 499.2 370.5 499.65 370.5 500.05 370.5 500.9 370.5 501.3 370.5 501.7 370.5 502.1 370.5 502.5 370.5 503.25 370.5 543.3 370.75 546.25 370.8 549.2 370.8 551.15 370.85 551.95 370.85 555.95 370.85 555.95 375.25 551.95 375.25 551.15 375.25 546.1 375.25 Q474.85 374.95 400.4 373.6 L400.35 380.1 400.25 388.6 497.85 388.35 498.55 388.35 499.2 388.35 499.85 388.35 500.5 388.35 501.7 388.35 545.1 388.65 549.15 388.65 551.1 388.7 551.95 388.7 553.65 388.7 555.95 388.75 555.95 393.1 551.95 393.1 551.1 393.1 546.8 393.1 503.15 392.85 418.1 391.75 417.05 391.75 416.35 391.75 414.75 391.7 409.35 391.6 405.25 391.55 400.0 391.45 399.0 391.95 396.5 398.75 396.4 399.05 395.85 400.35 395.25 401.75 393.85 404.8 393.85 404.85 393.6 405.3 392.85 406.35 392.25 405.75 391.7 405.15 391.75 405.15 391.45 404.8 Q390.35 403.5 390.35 402.85 390.35 401.95 390.7 400.35 L391.9 395.8 Q393.65 390.05 395.95 388.0 395.35 385.0 395.35 380.25 L395.4 373.5 395.35 373.5 395.35 372.0 395.6 371.8 395.7 371.35 Q395.35 370.55 395.35 369.85 395.35 366.25 399.95 358.5 403.2 353.0 405.5 350.7 404.55 347.65 404.4 342.25 L388.0 342.3 385.05 342.3 Q275.65 342.35 162.5 341.1 L162.5 400.25 162.35 400.35 160.0 401.5 159.65 400.35 159.65 400.25 Q159.05 398.1 158.6 395.5 157.9 391.2 157.65 385.65 157.5 382.15 157.5 369.5 156.2 358.1 155.85 352.05 155.45 345.0 157.25 341.05 L147.55 340.9 Q148.3 345.1 148.5 354.55 148.7 363.05 148.5 371.75 L148.4 396.25 148.35 399.8 148.35 402.0 148.25 405.2 148.25 405.5 Q147.0 406.25 146.0 406.5 L145.0 402.3 144.95 402.0 144.7 400.35 144.3 397.5 144.1 395.65 144.0 394.9 144.0 394.85 143.95 394.25 143.75 390.75 143.7 390.4 143.65 389.55 Q143.5 385.8 143.5 371.85 143.3 361.7 143.5 353.5 143.7 344.85 144.4 340.85 L130.25 340.7 Q131.2 344.6 131.45 355.5 131.7 364.0 131.5 372.75 L131.4 398.25 131.35 400.35 131.35 402.0 131.25 406.5 129.0 407.5 Q128.1 404.4 127.5 400.35 126.9 396.0 126.65 390.55 126.5 386.8 126.5 372.85 126.3 362.7 126.55 354.5 126.8 344.35 127.75 340.65 L120.4 340.55 120.25 342.5 Q119.0 343.25 118.0 343.5 116.45 341.95 115.4 337.0 114.5 332.8 114.5 329.5 114.5 328.75 114.8 328.1 114.5 327.45 114.5 326.35 114.5 325.6 115.4 323.2 106.6 320.75 98.9 313.65 L89.8 304.7 Q84.55 299.7 80.0 297.5 74.65 295.0 68.75 281.4 63.5 269.3 63.5 264.0 63.5 257.15 67.8 251.65 L68.2 251.2 Q51.45 250.7 46.75 249.55 44.3 248.95 44.45 247.9 44.65 246.75 44.0 246.5 39.5 244.7 38.15 242.2 L37.2 241.7 Q36.5 241.05 36.5 239.35 36.5 234.55 41.2 216.9 48.5 189.35 51.5 176.15 66.5 110.0 66.5 43.6 66.95 12.7 66.55 -3.05 L66.5 -4.75 66.4 -7.0 70.75 -7.0 M197.05 -7.0 L196.0 -6.2 193.7 -4.3 Q186.5 1.8 186.5 6.35 186.5 9.85 188.3 14.25 191.0 21.0 196.25 21.0 L198.6 20.75 Q200.85 20.2 201.5 18.35 L201.75 17.2 201.5 14.7 Q201.3 12.0 201.5 10.75 198.4 10.95 196.55 10.7 195.15 10.45 194.45 10.0 193.5 9.4 193.5 7.75 193.5 6.2 195.0 5.8 L196.5 5.6 200.0 5.5 201.5 5.55 Q205.55 5.9 206.5 8.05 207.05 9.35 206.5 10.85 206.5 17.2 205.5 20.25 L204.4 22.7 Q203.05 24.8 200.9 25.75 199.2 26.5 197.0 26.5 194.05 26.5 191.65 25.6 189.7 24.85 188.1 23.5 185.25 21.1 183.55 16.75 182.3 13.65 181.8 9.85 181.5 7.8 181.5 6.25 181.5 -0.45 183.15 -4.3 L183.95 -5.85 184.8 -7.0 197.05 -7.0 M229.8 -7.0 L241.0 -7.0 241.5 -6.25 246.8 -4.4 Q263.35 1.2 279.4 5.4 279.5 -0.55 280.1 -4.5 L280.6 -7.0 284.35 -7.0 284.35 -4.45 284.35 6.65 Q297.75 9.95 310.85 12.25 L320.65 13.95 Q320.35 11.0 320.35 7.35 L320.4 -1.25 Q320.5 -3.0 320.75 -4.3 321.4 -7.5 322.85 -7.5 324.35 -7.5 325.05 -4.25 325.75 -0.6 325.35 7.25 L325.3 14.75 366.0 21.8 Q364.35 17.6 364.35 7.25 364.35 0.1 365.1 -3.95 365.7 -7.3 366.85 -8.5 367.95 -7.1 368.55 -3.9 369.35 0.2 369.35 7.35 L369.15 22.35 375.4 23.45 379.85 23.75 380.1 23.35 Q380.3 23.3 380.35 24.35 L390.85 26.25 395.3 27.05 396.15 2.8 396.25 0.3 396.3 0.05 396.5 -3.3 396.6 -5.1 396.8 -7.95 396.85 -8.5 397.9 -3.4 398.2 -1.45 Q399.6 8.35 399.65 21.9 L399.65 27.8 413.35 29.85 433.85 32.5 Q445.25 33.6 449.1 35.5 L459.85 37.0 Q538.35 37.4 552.2 37.85 L553.35 37.9 553.95 37.9 555.1 38.0 556.0 38.25 Q556.35 38.35 556.35 39.85 556.35 41.35 555.95 41.75 L555.95 43.3 555.1 43.3 554.9 42.25 554.85 42.25 508.85 42.5 Q481.5 42.5 445.4 38.65 L399.65 32.7 395.15 32.0 386.45 30.65 378.95 29.45 377.0 29.15 365.95 27.3 341.2 22.9 336.0 21.95 325.2 20.0 321.6 19.35 306.85 16.75 Q296.75 15.35 284.35 12.1 L279.4 10.7 Q262.8 6.0 242.45 -1.85 L237.65 -3.7 236.0 -4.4 234.6 -4.95 229.8 -7.0 M506.35 69.25 Q505.55 76.9 506.05 91.5 L506.35 100.0 Q506.35 102.5 505.85 102.0 505.85 102.5 503.35 102.5 L500.6 102.0 Q500.35 97.5 500.35 88.1 501.35 64.5 501.35 52.5 L501.85 52.0 Q502.35 51.5 503.85 51.5 504.45 51.5 515.55 69.4 L518.7 74.55 527.85 89.5 528.35 89.5 Q527.9 76.35 527.9 67.7 L527.9 66.3 527.95 64.6 Q528.1 49.5 530.85 49.5 533.45 49.5 533.6 64.55 L533.6 67.85 533.35 76.25 533.15 100.6 533.1 102.5 Q533.35 103.5 530.85 103.5 L528.85 100.6 515.5 81.7 512.2 77.05 506.6 69.25 506.35 69.25 M489.85 49.5 Q491.45 50.15 492.35 51.5 L492.35 100.25 489.85 101.5 Q488.0 96.95 487.55 89.1 487.35 86.05 487.35 75.5 487.35 65.0 487.55 62.0 488.0 54.25 489.85 49.5 M555.9 49.55 Q557.05 49.6 557.6 50.2 L558.35 51.5 Q558.25 52.8 556.25 55.4 L550.6 61.8 548.85 63.5 548.2 64.5 Q547.3 65.95 546.6 68.2 L546.25 69.3 Q545.35 72.55 545.35 74.35 545.35 82.95 546.25 85.35 547.6 89.1 551.15 91.5 553.3 92.95 556.3 93.95 L558.35 94.5 557.05 96.65 556.25 97.25 554.35 97.5 551.2 97.2 Q543.75 95.75 541.35 87.0 540.35 83.4 540.35 74.25 540.35 71.6 541.35 68.05 541.75 66.35 542.45 64.5 L543.9 60.75 Q546.65 54.05 550.2 51.35 552.6 49.5 555.35 49.5 L555.9 49.55 M556.35 74.5 L560.85 75.0 561.1 75.25 Q561.35 75.4 561.35 76.85 561.35 78.8 559.9 79.25 L556.35 79.5 Q552.85 79.5 551.6 78.25 551.35 79.25 551.35 76.75 551.35 75.15 552.9 74.8 L556.35 74.5 M551.5 185.3 L550.55 185.25 550.2 185.25 546.25 185.25 533.35 185.2 533.35 185.25 Q533.35 186.2 528.65 196.7 523.4 208.3 522.6 210.75 L516.15 232.2 515.65 233.75 513.35 233.5 511.3 233.15 510.6 232.25 Q510.45 232.85 510.4 232.15 L510.35 230.75 Q510.35 228.2 518.9 206.0 524.85 190.45 528.2 185.2 L483.25 184.8 Q482.4 189.1 475.1 204.5 465.8 224.15 458.85 230.5 457.4 230.0 457.05 229.7 456.35 229.05 456.35 227.35 456.35 226.85 460.45 219.65 465.35 210.95 468.1 203.75 473.0 190.85 477.5 184.75 L431.35 184.05 431.15 184.05 431.2 184.1 431.35 184.5 Q427.3 190.05 419.45 206.85 412.35 222.1 405.85 229.5 404.4 229.0 404.05 228.7 403.35 228.05 403.35 226.35 403.35 224.5 415.35 203.5 424.2 188.0 427.1 183.95 L404.35 183.5 404.35 182.0 405.85 180.75 495.85 180.5 546.25 180.9 551.5 180.95 551.95 180.95 555.95 181.0 555.95 185.3 552.55 185.3 551.95 185.3 551.5 185.3 M448.85 42.5 Q452.7 50.5 458.2 63.9 L465.4 81.35 467.95 87.2 468.1 87.5 468.35 87.5 468.35 86.4 Q468.4 81.5 468.75 74.35 469.2 63.85 470.35 48.5 L470.85 48.0 Q471.35 47.5 472.85 47.5 474.55 47.5 475.05 48.5 475.35 49.15 475.35 51.35 L474.95 61.6 474.35 74.4 473.1 100.5 Q473.35 101.5 470.85 101.5 469.15 101.5 465.0 93.25 L462.4 87.85 460.05 82.7 Q451.0 61.0 448.1 55.25 L447.85 55.25 446.4 74.45 Q445.35 86.7 445.35 94.25 L442.85 95.5 Q440.35 93.3 440.35 83.75 440.35 79.5 444.0 59.8 L447.35 42.45 447.85 40.5 448.85 42.5 M408.35 44.0 Q412.35 49.7 412.35 54.1 412.35 59.5 410.3 62.15 407.6 65.8 399.85 67.5 L399.55 67.4 Q398.35 66.95 398.05 66.7 397.35 66.05 397.35 64.35 397.35 63.7 399.5 62.0 400.6 61.05 402.35 59.85 407.35 56.35 407.35 53.85 407.35 48.6 399.7 44.4 L399.5 44.3 396.7 42.85 397.25 44.7 397.35 48.85 396.35 88.25 394.4 89.3 393.85 89.5 Q391.35 84.75 391.35 72.1 391.35 59.3 391.6 55.55 392.2 46.65 394.4 41.55 392.25 40.2 392.35 39.0 393.2 38.15 394.95 37.8 L398.35 37.5 399.6 37.6 Q401.3 37.8 402.95 38.75 404.8 39.8 406.55 41.75 L408.35 44.0 M420.5 43.9 Q422.1 42.5 427.85 42.5 435.35 42.5 435.35 44.85 435.35 46.85 433.85 47.25 L427.85 47.5 421.35 47.0 421.35 47.35 419.85 67.65 423.35 67.5 425.5 67.55 Q429.6 67.7 430.9 68.55 431.35 68.85 431.35 69.85 431.35 71.9 429.9 72.25 L423.4 72.5 423.35 72.5 419.45 72.4 419.35 73.25 419.35 83.0 Q419.55 86.65 422.8 88.25 424.8 89.25 428.05 89.45 L433.75 89.6 Q436.35 89.75 436.35 90.85 436.35 92.85 434.8 93.25 L429.35 93.5 Q424.55 93.5 421.25 92.15 418.5 91.05 416.8 89.05 415.1 87.1 414.35 84.3 413.6 81.35 413.9 77.55 L414.35 73.75 Q414.15 65.35 414.6 58.0 415.5 43.5 418.85 43.5 419.9 43.5 420.5 43.9 M366.75 41.6 Q365.45 43.05 364.35 45.25 363.25 47.5 362.4 50.5 360.75 56.3 360.35 62.1 L360.4 64.3 Q360.5 66.55 360.9 68.3 361.25 69.9 361.85 71.1 363.5 74.45 369.6 80.25 372.95 76.65 375.25 67.4 L375.3 67.3 Q377.35 59.05 377.35 52.25 377.85 47.8 377.4 44.8 377.05 42.1 375.85 40.65 374.5 39.0 372.1 39.0 369.05 39.0 366.75 41.6 M382.35 41.35 Q383.15 46.3 382.35 51.5 382.35 59.05 380.6 68.45 L380.35 69.55 Q378.4 79.3 375.3 83.1 373.3 85.5 370.85 85.5 361.25 85.5 357.35 74.0 356.45 71.35 355.95 68.3 L355.6 66.05 355.5 64.2 355.35 62.35 Q355.35 55.2 358.85 45.5 L358.95 45.3 Q359.7 43.15 360.6 41.35 365.4 31.5 372.85 31.5 374.85 31.5 376.5 32.15 378.4 32.9 379.7 34.6 381.65 37.0 382.35 41.35 M324.1 63.8 Q323.15 68.5 319.2 72.7 L317.4 74.4 Q311.5 79.4 301.85 81.5 L300.35 81.0 300.35 81.25 297.85 82.5 Q296.95 81.0 296.35 78.05 295.35 72.95 295.35 63.6 L295.35 46.75 296.75 40.6 297.3 38.2 Q298.15 34.75 299.35 32.6 L299.35 31.75 Q299.35 30.1 300.65 29.7 L303.85 29.5 Q312.7 29.5 318.4 40.35 L320.4 44.75 322.5 51.1 Q323.8 55.85 324.35 60.85 L324.1 63.8 M380.3 98.45 L380.1 149.5 Q378.85 150.25 377.85 150.5 L377.75 150.25 367.65 150.3 Q369.05 158.1 368.35 182.25 L368.1 217.5 Q366.85 218.25 365.85 218.5 363.35 208.95 363.35 182.35 363.15 171.85 363.4 163.25 363.6 154.45 364.3 150.3 L327.1 150.25 Q328.95 156.15 328.35 182.75 L328.1 216.5 Q326.85 217.25 325.85 217.5 323.35 208.4 323.35 182.85 323.15 172.7 323.4 164.5 323.65 153.75 324.7 150.25 L294.95 150.05 293.85 150.5 293.65 150.05 282.7 149.95 Q284.0 156.2 284.3 164.25 L284.35 181.85 284.1 216.75 281.85 217.5 Q278.6 214.3 277.7 208.65 L278.35 208.25 278.35 194.25 Q279.35 186.05 279.35 181.75 L278.35 170.05 278.35 153.5 278.25 153.35 Q278.6 151.35 279.25 149.9 L269.35 149.8 257.7 149.65 202.4 148.8 Q203.55 153.5 203.65 167.8 L203.65 171.05 203.5 182.25 203.25 217.5 201.0 218.5 Q199.15 211.7 198.65 200.4 198.5 196.4 198.5 182.35 L198.45 170.3 198.45 169.1 Q194.4 173.5 188.35 173.5 185.3 173.5 183.1 172.4 L179.0 174.9 Q180.05 181.9 180.3 203.55 L180.45 218.75 218.3 218.65 224.3 218.65 279.85 218.5 Q381.8 218.95 394.15 219.6 394.55 210.5 394.35 206.0 L394.35 113.75 394.35 99.9 384.35 98.75 380.3 98.45 M349.3 95.85 L349.25 108.1 369.85 108.75 370.1 108.35 Q370.35 108.3 370.35 109.85 370.35 111.45 369.9 111.8 369.25 112.0 368.85 112.25 L349.25 112.3 349.2 130.1 370.85 130.75 371.1 130.35 Q371.35 130.3 371.35 131.85 371.35 133.45 370.9 133.8 L369.85 134.25 349.15 134.3 349.1 144.5 Q347.85 145.25 346.85 145.5 344.6 141.2 344.15 134.3 L322.15 134.25 322.1 143.75 319.85 144.5 Q317.7 140.55 317.15 134.2 L296.35 134.05 296.35 145.6 Q364.75 145.95 376.45 146.55 375.05 141.5 375.05 134.95 375.55 124.45 375.35 119.25 L375.35 98.0 349.3 95.85 M344.35 112.3 L322.25 112.25 322.15 129.8 344.1 130.0 Q344.55 119.85 344.35 115.0 L344.35 112.3 M344.35 95.4 L322.35 93.5 322.25 107.8 344.35 108.0 344.35 95.4 M395.1 231.65 Q394.2 228.0 394.1 223.25 309.45 223.45 221.25 222.35 L214.95 222.25 180.45 221.75 180.35 235.5 364.85 235.5 396.4 235.6 Q395.6 233.8 395.1 231.65 M405.25 329.25 Q263.25 328.8 120.35 327.55 121.0 329.75 120.5 334.25 L120.5 337.75 145.55 337.7 Q145.75 337.5 146.0 337.5 L146.45 337.7 159.8 337.7 160.0 337.5 160.4 337.7 261.35 337.5 Q391.15 337.95 404.35 338.6 404.4 332.7 405.25 329.25 M288.85 23.5 Q290.9 23.5 291.4 27.0 L291.5 30.75 291.35 33.0 291.0 40.55 290.7 45.0 289.55 63.55 289.25 68.0 289.1 70.5 Q289.35 71.5 286.85 71.5 285.8 71.5 283.85 67.95 L281.6 63.5 279.5 58.75 Q276.2 50.85 274.2 44.85 L272.9 40.55 272.6 39.5 272.35 39.5 272.25 40.55 271.95 44.8 Q271.65 52.1 272.3 63.55 L272.35 65.0 Q272.35 67.5 271.85 67.0 271.85 67.5 269.35 67.5 L266.6 67.0 Q266.35 63.25 266.35 55.0 265.45 42.95 265.45 36.45 265.4 26.4 268.75 22.55 L269.85 21.5 270.45 22.55 272.65 26.8 Q276.1 33.65 278.85 40.5 L280.55 44.9 Q282.7 50.7 284.35 56.5 L284.6 56.5 285.4 44.95 285.65 40.55 286.3 26.95 286.35 24.25 286.95 23.9 Q287.4 23.5 288.85 23.5 M302.95 45.1 L301.85 57.0 301.25 63.6 300.9 68.1 300.45 76.8 302.5 75.45 309.35 72.55 Q313.75 70.65 316.2 68.2 319.35 65.05 319.35 61.0 319.35 56.6 317.85 52.35 316.7 49.3 314.8 46.3 L314.05 45.2 Q312.35 42.8 310.2 40.7 307.2 37.75 303.35 35.35 L303.2 40.65 302.95 45.1 M255.1 22.6 L255.65 26.65 256.15 30.55 256.85 35.2 258.35 36.5 257.5 38.3 258.05 40.6 Q258.55 42.7 259.2 44.65 260.55 48.7 262.35 52.0 L262.35 60.25 259.85 61.5 254.05 44.85 253.95 44.55 252.75 40.6 252.45 39.5 Q248.0 39.35 245.85 38.55 L245.25 40.6 244.4 44.4 Q244.1 46.45 244.1 48.5 L242.35 49.35 241.85 49.5 Q239.35 46.8 239.35 44.5 239.35 41.45 242.35 33.4 L245.1 26.5 245.8 24.8 246.75 22.6 Q251.6 11.1 252.85 9.5 253.65 12.3 255.1 22.6 M251.35 33.2 Q251.05 30.4 251.35 28.0 L250.85 27.5 248.45 32.65 251.35 33.2 M244.2 90.4 L242.35 90.4 242.35 107.6 258.3 107.55 263.3 107.55 264.35 107.55 264.35 90.7 252.95 90.55 244.2 90.4 M264.35 84.35 L264.3 78.7 242.35 68.3 242.35 86.6 248.8 86.6 264.35 86.55 264.35 84.35 M269.4 81.1 L269.35 84.25 269.35 86.55 281.35 86.5 272.85 82.75 269.4 81.1 M298.7 91.1 L296.35 91.05 296.35 107.6 317.35 107.75 317.35 93.05 301.6 91.45 298.7 91.1 M269.35 90.8 L269.25 107.55 283.85 107.5 291.35 107.55 291.35 91.0 269.35 90.8 M229.35 22.65 L232.2 26.3 234.0 28.5 Q236.35 31.3 236.35 37.25 L236.25 40.65 236.1 42.5 Q234.85 43.25 233.85 43.5 L232.15 40.65 227.6 31.6 224.6 26.2 222.0 22.7 Q219.85 20.15 217.5 18.5 L217.5 37.25 216.3 37.9 215.0 38.5 Q213.15 34.55 212.7 28.8 L212.65 28.6 212.55 26.0 212.5 22.7 212.5 18.85 Q212.05 11.7 212.45 6.5 213.25 -3.5 217.5 -3.5 223.75 -3.5 227.6 1.25 230.35 4.65 230.35 6.85 230.35 10.8 230.05 11.35 229.55 12.4 225.0 16.25 226.65 19.05 229.35 22.65 M217.5 3.5 L217.5 12.25 Q219.5 12.45 222.5 10.65 225.5 8.8 225.5 7.25 225.5 4.0 218.25 2.0 L217.5 3.5 M166.5 35.25 L165.5 35.8 165.5 159.4 Q173.65 155.35 177.35 154.5 L177.55 154.55 Q178.6 146.5 184.85 146.5 L187.25 146.6 Q186.1 142.0 186.1 135.6 186.65 124.25 186.5 119.5 L186.5 87.25 186.5 76.0 186.55 70.5 186.65 54.55 Q186.8 48.6 187.1 43.3 175.7 38.55 166.5 35.25 M191.7 70.95 L191.65 76.7 191.5 87.35 191.3 145.75 264.0 145.55 266.0 145.55 265.4 143.75 Q264.2 139.6 264.0 133.95 L264.0 133.7 263.85 133.7 242.35 133.4 242.35 142.25 239.85 143.5 Q237.75 139.6 237.2 133.3 L216.3 132.95 216.25 143.5 Q215.0 144.25 214.0 144.5 211.65 140.0 211.25 132.85 L196.5 132.5 196.5 131.0 198.0 129.75 211.15 129.7 Q211.7 119.05 211.5 114.0 L211.5 110.8 197.5 110.5 197.5 109.0 199.0 107.75 211.5 107.7 211.5 89.85 196.5 89.5 196.5 88.0 198.0 86.75 211.5 86.7 211.5 84.35 211.45 80.85 211.45 76.2 211.4 66.8 197.5 66.5 197.5 65.0 199.0 63.75 211.45 63.7 211.55 53.95 Q201.0 49.15 191.75 45.25 L191.5 55.5 191.7 70.95 M216.75 56.35 L216.75 63.7 232.45 63.65 220.8 58.2 216.75 56.35 M216.5 84.25 L216.5 86.7 237.35 86.65 237.35 86.05 237.35 84.5 237.3 79.55 237.2 67.3 216.7 66.9 216.65 75.5 216.55 80.75 216.5 84.25 M216.5 89.95 L216.4 107.7 237.35 107.65 237.35 90.3 216.5 89.95 M237.35 111.3 L216.4 110.9 216.3 129.7 237.0 129.65 236.95 128.7 Q237.5 118.15 237.35 113.75 L237.35 111.3 M242.35 129.6 L258.95 129.55 264.05 129.55 264.15 127.15 Q264.45 119.25 264.35 115.5 L264.35 111.7 262.75 111.7 257.65 111.6 242.35 111.4 242.35 129.6 M199.75 148.75 L194.5 148.65 Q197.25 150.1 199.15 152.6 199.4 150.2 199.75 148.75 M193.6 158.3 L190.5 156.65 189.75 158.65 192.5 160.55 192.6 160.3 193.6 158.3 M195.0 155.6 L194.6 155.25 Q193.25 154.05 191.55 153.3 L191.1 154.95 194.35 156.75 195.0 155.6 M195.85 156.5 L195.4 157.4 197.1 158.5 Q196.75 157.5 195.85 156.5 M194.65 158.85 L193.4 161.1 196.6 162.95 Q197.25 161.65 197.35 160.25 L194.65 158.85 M190.0 154.4 L190.6 152.9 188.0 152.25 187.7 153.25 190.0 154.4 M182.6 154.15 Q183.8 154.65 185.35 155.65 L185.95 154.2 183.35 152.75 Q182.85 153.25 182.6 154.15 M186.8 152.1 L185.1 152.0 184.75 152.05 186.55 152.7 186.8 152.1 M182.35 158.35 L182.35 158.75 183.85 159.5 184.45 157.85 182.3 156.25 182.35 158.35 M185.65 158.7 L185.0 160.2 187.2 161.55 187.75 160.2 187.0 159.7 185.65 158.7 M186.6 156.4 L188.3 157.6 188.65 157.85 189.35 156.05 187.15 154.85 186.6 156.4 M187.8 163.9 L186.95 166.15 188.45 167.25 189.7 167.2 190.35 165.35 187.8 163.9 M188.4 162.3 L188.9 162.65 190.9 164.0 191.55 162.55 188.9 160.95 188.4 162.3 M191.0 167.05 L192.65 166.65 191.4 165.95 191.0 167.05 M183.2 161.05 L182.35 160.45 182.3 162.85 182.3 162.95 182.4 163.05 183.2 161.05 M183.45 163.7 L185.75 165.3 186.6 163.2 184.3 161.8 183.45 163.7 M185.25 166.6 L183.2 165.25 185.15 166.8 185.25 166.6 M195.8 164.3 L192.5 163.05 191.9 164.65 193.9 166.0 195.4 164.75 195.8 164.3 M177.3 160.55 L177.3 160.1 177.1 160.25 Q173.95 162.5 167.65 165.9 L165.5 167.1 160.5 169.8 Q153.45 173.65 153.1 174.0 153.6 174.65 156.65 177.1 L158.2 178.4 160.5 176.65 Q162.5 175.35 165.5 174.05 L166.45 173.6 Q169.25 172.4 175.2 170.1 L179.1 168.45 178.05 165.9 Q177.35 163.5 177.3 160.55 M173.8 177.55 L169.35 179.55 169.35 294.6 176.25 295.9 Q175.05 291.2 175.05 284.75 L175.05 284.65 175.2 281.5 175.35 267.75 175.35 259.65 175.35 256.5 175.35 238.65 175.35 235.85 175.35 235.5 175.25 221.7 175.25 218.75 Q175.25 210.35 175.4 202.5 175.65 183.55 176.5 176.2 L173.8 177.55 M241.85 149.5 Q245.1 149.5 244.35 182.25 L244.1 214.5 Q242.85 215.25 241.85 215.5 239.35 205.8 239.35 182.35 239.15 172.6 239.4 164.75 239.8 149.5 241.85 149.5 M317.35 112.2 L296.35 112.05 296.35 129.6 316.95 129.75 316.95 129.7 Q317.5 119.15 317.35 114.75 L317.35 112.2 M291.35 112.0 L269.25 111.8 269.2 129.55 283.85 129.5 291.2 129.55 291.35 118.5 291.35 112.0 M291.0 134.0 L271.1 133.8 269.15 133.8 269.1 145.55 270.85 145.55 283.35 145.5 292.1 145.55 Q291.0 140.95 290.95 134.6 L291.0 134.0 M117.0 18.5 Q119.5 22.4 119.5 26.75 119.5 28.1 118.05 31.9 116.4 36.3 114.0 40.25 107.25 51.5 99.5 51.5 88.25 51.5 85.75 43.25 84.95 40.65 85.15 37.6 L85.5 35.0 Q85.5 28.95 89.25 22.25 94.7 12.5 105.0 12.5 113.15 12.5 117.0 18.5 M103.25 18.0 Q95.05 18.0 91.95 26.5 90.4 30.8 90.5 35.1 90.5 40.25 90.95 41.5 92.65 46.0 99.4 46.0 103.6 46.0 109.5 36.25 L114.5 26.5 Q114.5 24.05 110.45 21.05 106.45 18.0 103.25 18.0 M160.45 202.95 L160.5 183.7 158.85 184.5 157.05 183.9 156.7 183.5 Q152.2 183.4 149.35 178.75 L147.35 173.85 Q147.35 169.0 160.5 161.95 L160.5 149.25 157.5 149.75 157.25 151.5 155.55 151.65 154.0 152.5 152.2 151.9 151.75 151.25 148.5 151.0 148.35 151.0 Q145.75 151.05 142.05 152.95 136.85 155.5 129.55 161.65 116.2 172.85 113.0 182.5 L116.05 183.55 Q117.65 184.2 118.5 185.5 115.9 190.95 110.05 192.0 L105.1 192.7 Q102.2 193.25 100.25 194.5 98.15 195.8 95.75 199.15 L92.25 204.25 84.5 214.6 Q81.5 219.35 81.5 224.5 81.5 225.45 87.5 232.45 L93.5 239.5 84.25 245.75 81.0 247.8 Q78.5 249.6 76.55 251.4 68.5 258.35 68.5 264.0 68.5 266.2 70.15 271.8 72.3 279.3 75.7 285.05 86.1 302.5 103.0 296.0 L103.25 296.45 103.5 298.25 Q103.5 302.0 97.5 302.0 100.0 308.35 105.9 312.9 110.95 316.75 117.45 318.2 121.6 308.55 131.65 288.0 149.8 251.0 160.0 235.5 L161.35 236.05 161.85 235.7 Q161.2 233.8 160.8 231.5 L160.3 231.5 160.3 227.6 160.1 222.6 160.35 217.0 160.35 215.75 160.4 215.95 160.5 206.5 160.45 202.95 M164.55 291.95 L158.35 295.55 Q149.35 301.1 149.35 305.25 149.35 306.3 150.45 307.5 151.7 308.9 154.4 310.5 L154.7 310.65 Q159.05 313.25 160.85 313.25 L194.1 312.25 Q194.95 311.7 195.25 311.0 L195.35 310.75 196.35 308.5 196.75 307.5 Q197.35 305.8 197.35 304.35 197.35 301.35 187.35 298.4 183.4 297.25 181.0 296.25 L180.1 295.9 180.1 296.85 180.85 297.0 181.1 297.25 Q181.35 297.4 181.35 298.85 181.35 302.5 172.35 302.5 166.95 302.5 165.65 300.3 L165.35 298.0 Q165.35 296.5 165.6 295.0 L166.0 294.85 165.4 291.8 165.35 291.5 164.55 291.95" fill="#000000" fill-rule="evenodd" stroke="none"/>
      <path d="M134.5 153.0 L132.8 154.45 Q127.75 159.05 122.75 164.75 118.2 169.3 112.75 176.6 108.05 182.95 105.5 185.0 93.7 194.4 85.8 204.6 76.5 216.55 76.5 225.0 76.5 229.25 77.9 230.9 L85.0 238.5 Q78.5 242.15 74.05 245.65 L59.0 245.5 53.0 244.5 Q47.6 242.95 47.0 242.5 L44.2 239.9 Q42.7 238.7 41.05 238.55 50.3 219.55 55.35 194.2 57.25 184.6 59.5 169.45 L63.25 144.25 Q69.15 108.15 70.45 91.0 71.5 77.5 71.5 44.1 71.5 8.2 71.0 -3.05 L70.9 -4.9 70.75 -7.0 123.5 -7.0 123.55 -2.6 123.75 13.6 Q124.3 32.05 126.5 46.25 130.0 68.5 135.75 111.5 L136.7 117.6 133.5 120.0 Q131.05 122.35 129.65 128.5 128.5 133.4 128.5 138.0 128.5 147.95 132.0 153.5 L134.25 152.75 134.5 153.0 M396.5 -3.3 L396.3 0.05 395.85 0.25 396.25 0.3 396.15 2.8 395.3 27.05 390.85 26.25 380.35 24.35 Q380.3 23.3 380.1 23.35 L379.85 23.75 375.4 23.45 369.15 22.35 369.35 7.35 Q369.35 0.2 368.55 -3.9 393.55 -3.65 396.5 -3.3 M365.1 -3.95 Q364.35 0.1 364.35 7.25 364.35 17.6 366.0 21.8 L325.3 14.75 325.35 7.25 Q325.75 -0.6 325.05 -4.25 L365.1 -3.95 M320.75 -4.3 Q320.5 -3.0 320.4 -1.25 L320.35 7.35 Q320.35 11.0 320.65 13.95 L310.85 12.25 Q297.75 9.95 284.35 6.65 L284.35 -4.45 320.75 -4.3 M280.1 -4.5 Q279.5 -0.55 279.4 5.4 263.35 1.2 246.8 -4.4 L280.1 -4.5 M344.35 95.4 L344.35 108.0 322.25 107.8 322.35 93.5 344.35 95.4 M344.35 112.3 L344.35 115.0 Q344.55 119.85 344.1 130.0 L322.15 129.8 322.25 112.25 344.35 112.3 M349.3 95.85 L375.35 98.0 375.35 119.25 Q375.55 124.45 375.05 134.95 375.05 141.5 376.45 146.55 364.75 145.95 296.35 145.6 L296.35 134.05 317.15 134.2 Q317.7 140.55 319.85 144.5 L322.1 143.75 322.15 134.25 344.15 134.3 Q344.6 141.2 346.85 145.5 347.85 145.25 349.1 144.5 L349.15 134.3 369.85 134.25 370.9 133.8 Q371.35 133.45 371.35 131.85 371.35 130.3 371.1 130.35 L370.85 130.75 349.2 130.1 349.25 112.3 368.85 112.25 Q369.25 112.0 369.9 111.8 370.35 111.45 370.35 109.85 370.35 108.3 370.1 108.35 L369.85 108.75 349.25 108.1 349.3 95.85 M380.3 98.45 L384.35 98.75 394.35 99.9 394.35 113.75 394.35 206.0 Q394.55 210.5 394.15 219.6 381.8 218.95 279.85 218.5 L224.3 218.65 218.3 218.65 180.45 218.75 180.3 203.55 Q180.05 181.9 179.0 174.9 L183.1 172.4 Q185.3 173.5 188.35 173.5 194.4 173.5 198.45 169.1 L198.45 170.3 198.5 182.35 Q198.5 196.4 198.65 200.4 199.15 211.7 201.0 218.5 L203.25 217.5 203.5 182.25 203.65 171.05 203.65 167.8 Q203.55 153.5 202.4 148.8 L257.7 149.65 269.35 149.8 279.25 149.9 Q278.6 151.35 278.25 153.35 L278.35 153.5 278.35 170.05 279.35 181.75 Q279.35 186.05 278.35 194.25 L278.35 208.25 277.7 208.65 Q278.6 214.3 281.85 217.5 L284.1 216.75 284.35 181.85 284.3 164.25 Q284.0 156.2 282.7 149.95 L293.65 150.05 293.85 150.5 294.95 150.05 324.7 150.25 Q323.65 153.75 323.4 164.5 323.15 172.7 323.35 182.85 323.35 208.4 325.85 217.5 326.85 217.25 328.1 216.5 L328.35 182.75 Q328.95 156.15 327.1 150.25 L364.3 150.3 Q363.6 154.45 363.4 163.25 363.15 171.85 363.35 182.35 363.35 208.95 365.85 218.5 366.85 218.25 368.1 217.5 L368.35 182.25 Q369.05 158.1 367.65 150.3 L377.75 150.25 377.85 150.5 Q378.85 150.25 380.1 149.5 L380.3 98.45 M269.35 90.8 L291.35 91.0 291.35 107.55 283.85 107.5 269.25 107.55 269.35 90.8 M298.7 91.1 L301.6 91.45 317.35 93.05 317.35 107.75 296.35 107.6 296.35 91.05 298.7 91.1 M269.4 81.1 L272.85 82.75 281.35 86.5 269.35 86.55 269.35 84.25 269.4 81.1 M264.35 84.35 L264.35 86.55 248.8 86.6 242.35 86.6 242.35 68.3 264.3 78.7 264.35 84.35 M244.2 90.4 L252.95 90.55 264.35 90.7 264.35 107.55 263.3 107.55 258.3 107.55 242.35 107.6 242.35 90.4 244.2 90.4 M199.75 148.75 Q199.4 150.2 199.15 152.6 197.25 150.1 194.5 148.65 L199.75 148.75 M242.35 129.6 L242.35 111.4 257.65 111.6 262.75 111.7 264.35 111.7 264.35 115.5 Q264.45 119.25 264.15 127.15 L264.05 129.55 258.95 129.55 242.35 129.6 M237.35 111.3 L237.35 113.75 Q237.5 118.15 236.95 128.7 L237.0 129.65 216.3 129.7 216.4 110.9 237.35 111.3 M216.5 89.95 L237.35 90.3 237.35 107.65 216.4 107.7 216.5 89.95 M216.5 84.25 L216.55 80.75 216.65 75.5 216.7 66.9 237.2 67.3 237.3 79.55 237.35 84.5 237.35 86.05 237.35 86.65 216.5 86.7 216.5 84.25 M216.75 56.35 L220.8 58.2 232.45 63.65 216.75 63.7 216.75 56.35 M191.7 70.95 L191.5 55.5 191.75 45.25 Q201.0 49.15 211.55 53.95 L211.45 63.7 199.0 63.75 197.5 65.0 197.5 66.5 211.4 66.8 211.45 76.2 211.45 80.85 211.5 84.35 211.5 86.7 198.0 86.75 196.5 88.0 196.5 89.5 211.5 89.85 211.5 107.7 199.0 107.75 197.5 109.0 197.5 110.5 211.5 110.8 211.5 114.0 Q211.7 119.05 211.15 129.7 L198.0 129.75 196.5 131.0 196.5 132.5 211.25 132.85 Q211.65 140.0 214.0 144.5 215.0 144.25 216.25 143.5 L216.3 132.95 237.2 133.3 Q237.75 139.6 239.85 143.5 L242.35 142.25 242.35 133.4 263.85 133.7 264.0 133.7 264.0 133.95 Q264.2 139.6 265.4 143.75 L266.0 145.55 264.0 145.55 191.3 145.75 191.5 87.35 191.65 76.7 191.7 70.95 M166.5 35.25 Q175.7 38.55 187.1 43.3 186.8 48.6 186.65 54.55 L186.55 70.5 186.5 76.0 186.5 87.25 186.5 119.5 Q186.65 124.25 186.1 135.6 186.1 142.0 187.25 146.6 L184.85 146.5 Q178.6 146.5 177.55 154.55 L177.35 154.5 Q173.65 155.35 165.5 159.4 L165.5 35.8 166.5 35.25 M177.1 160.25 L177.3 160.1 177.3 160.55 177.1 160.25 M117.0 18.5 Q113.15 12.5 105.0 12.5 94.7 12.5 89.25 22.25 85.5 28.95 85.5 35.0 L85.15 37.6 Q84.95 40.65 85.75 43.25 88.25 51.5 99.5 51.5 107.25 51.5 114.0 40.25 116.4 36.3 118.05 31.9 119.5 28.1 119.5 26.75 119.5 22.4 117.0 18.5 M291.0 134.0 L290.95 134.6 Q291.0 140.95 292.1 145.55 L283.35 145.5 270.85 145.55 269.1 145.55 269.15 133.8 271.1 133.8 291.0 134.0 M291.35 112.0 L291.35 118.5 291.2 129.55 283.85 129.5 269.2 129.55 269.25 111.8 291.35 112.0 M317.35 112.2 L317.35 114.75 Q317.5 119.15 316.95 129.7 L316.95 129.75 296.35 129.6 296.35 112.05 317.35 112.2 M241.85 149.5 Q239.8 149.5 239.4 164.75 239.15 172.6 239.35 182.35 239.35 205.8 241.85 215.5 242.85 215.25 244.1 214.5 L244.35 182.25 Q245.1 149.5 241.85 149.5" fill="#a98701" fill-rule="evenodd" stroke="none"/>
      <path d="M66.55 -3.05 Q66.95 12.7 66.5 43.6 66.5 110.0 51.5 176.15 48.5 189.35 41.2 216.9 36.5 234.55 36.5 239.35 36.5 241.05 37.2 241.7 L38.15 242.2 Q39.5 244.7 44.0 246.5 44.65 246.75 44.45 247.9 44.3 248.95 46.75 249.55 51.45 250.7 68.2 251.2 L67.8 251.65 Q63.5 257.15 63.5 264.0 63.5 269.3 68.75 281.4 74.65 295.0 80.0 297.5 84.55 299.7 89.8 304.7 L98.9 313.65 Q106.6 320.75 115.4 323.2 114.5 325.6 114.5 326.35 114.5 327.45 114.8 328.1 114.5 328.75 114.5 329.5 114.5 332.8 115.4 337.0 116.45 341.95 118.0 343.5 119.0 343.25 120.25 342.5 L120.4 340.55 127.75 340.65 Q126.8 344.35 126.55 354.5 126.3 362.7 126.5 372.85 126.5 386.8 126.65 390.55 126.9 396.0 127.5 400.35 L-2.0 400.35 -2.0 -3.5 66.55 -3.05 M159.65 400.25 L159.65 400.35 157.1 400.35 159.65 400.25 M162.35 400.35 L162.5 400.25 162.5 341.1 Q275.65 342.35 385.05 342.3 383.25 346.7 379.8 359.7 375.35 376.6 375.35 381.1 375.35 383.8 377.85 386.5 L380.35 385.25 Q380.35 378.75 384.35 361.85 388.35 344.95 388.35 344.0 388.35 343.0 388.0 342.3 L404.4 342.25 Q404.55 347.65 405.5 350.7 403.2 353.0 399.95 358.5 395.35 366.25 395.35 369.85 395.35 370.55 395.7 371.35 L395.6 371.8 395.35 372.0 395.35 373.5 395.4 373.5 395.35 380.25 Q395.35 385.0 395.95 388.0 393.65 390.05 391.9 395.8 L390.7 400.35 162.35 400.35 M161.5 -2.3 L161.5 -1.5 Q161.5 4.8 159.4 18.95 158.8 26.8 160.9 31.8 L160.65 45.95 160.5 83.9 160.5 83.95 159.3 85.6 158.4 86.85 Q152.9 95.15 150.75 104.5 149.85 107.8 143.1 112.8 L141.95 113.7 Q139.55 98.6 138.5 89.25 135.5 61.8 130.55 -2.55 158.85 -2.25 159.25 -2.0 L160.05 -1.3 160.15 -1.7 Q160.5 -2.85 161.0 -3.5 L161.5 -2.3 M364.6 380.65 Q365.3 385.4 367.85 387.5 L370.35 386.25 370.35 381.0 Q369.85 379.3 369.75 372.8 369.7 368.25 366.85 365.5 364.35 367.35 364.35 373.5 364.35 378.85 364.6 380.65 M29.0 139.5 L27.25 139.75 27.0 140.0 26.55 140.55 26.5 142.0 Q26.5 151.35 26.75 154.0 27.4 160.95 30.0 163.5 L32.25 162.5 32.5 152.35 Q33.6 139.5 29.0 139.5 M47.0 130.3 Q46.65 129.9 45.0 129.5 42.3 131.2 40.2 141.7 38.5 150.2 38.5 155.35 38.5 163.2 41.0 164.5 L43.25 163.75 Q43.5 158.5 45.55 147.75 47.5 137.75 47.5 132.6 47.5 130.85 47.0 130.3 M27.5 76.0 Q27.5 91.15 31.0 94.5 L33.5 93.25 33.5 77.5 32.15 75.25 Q31.35 73.85 30.0 72.5 27.5 73.35 27.5 76.0 M47.5 43.0 Q47.5 40.5 45.0 39.5 43.4 41.95 39.95 58.75 36.5 75.4 36.5 80.1 36.5 83.0 39.0 85.5 L41.5 84.25 Q41.5 80.5 44.5 62.5 47.5 44.5 47.5 43.0 M160.35 215.75 L160.45 202.95 160.5 206.5 160.4 215.95 160.35 215.75 M34.0 335.5 Q31.5 336.35 31.5 339.0 38.35 357.5 39.0 357.5 41.5 357.5 41.5 356.25 41.8 351.1 39.15 345.25 L34.0 335.5 M50.5 317.5 Q51.25 312.5 48.0 312.5 45.05 312.5 43.5 327.75 42.5 337.55 42.5 344.25 42.5 349.6 42.65 351.0 43.1 354.9 45.0 357.5 46.0 357.25 47.25 356.5 47.55 349.3 49.1 336.15 50.5 324.4 50.5 317.5 M184.8 362.05 Q184.5 362.5 184.5 364.5 184.5 369.5 190.0 381.5 L192.25 380.75 192.4 379.25 193.0 379.5 195.5 378.25 Q195.75 373.9 200.7 363.2 205.5 352.75 205.5 349.0 205.5 346.5 203.0 345.5 200.7 348.05 195.5 361.05 192.7 367.95 191.5 371.6 L190.55 368.55 Q188.35 361.5 187.0 361.5 185.2 361.5 184.8 362.05 M149.5 400.35 L149.5 400.05 153.65 400.35 149.5 400.35" fill="#b5feb4" fill-rule="evenodd" stroke="none"/>
      <path d="M556.15 105.95 L552.05 106.25 551.7 106.25 522.1 108.0 521.65 108.0 521.5 108.0 506.45 107.95 499.55 107.85 460.0 106.4 454.1 105.95 Q439.0 104.65 430.9 102.55 L419.0 98.6 418.25 98.35 413.75 97.2 Q407.9 95.95 399.85 95.5 L399.5 95.5 394.35 95.2 380.35 94.35 375.35 94.05 349.35 92.35 344.35 92.0 334.5 91.25 304.65 88.5 Q296.85 87.35 291.35 85.35 L290.75 85.1 Q283.6 81.9 277.35 79.5 274.8 78.5 269.5 76.1 L264.3 73.75 251.1 67.55 242.95 63.6 242.35 63.35 237.2 60.85 217.25 51.15 216.7 50.9 211.65 48.45 201.5 43.6 198.5 42.2 191.8 39.1 187.5 37.2 Q172.2 30.5 168.5 30.5 L166.5 30.55 166.5 -7.0 184.8 -7.0 183.95 -5.85 183.15 -4.3 Q181.5 -0.45 181.5 6.25 181.5 7.8 181.8 9.85 182.3 13.65 183.55 16.75 185.25 21.1 188.1 23.5 189.7 24.85 191.65 25.6 194.05 26.5 197.0 26.5 199.2 26.5 200.9 25.75 203.05 24.8 204.4 22.7 L205.5 20.25 Q206.5 17.2 206.5 10.85 207.05 9.35 206.5 8.05 205.55 5.9 201.5 5.55 L200.0 5.5 196.5 5.6 195.0 5.8 Q193.5 6.2 193.5 7.75 193.5 9.4 194.45 10.0 195.15 10.45 196.55 10.7 198.4 10.95 201.5 10.75 201.3 12.0 201.5 14.7 L201.75 17.2 201.5 18.35 Q200.85 20.2 198.6 20.75 L196.25 21.0 Q191.0 21.0 188.3 14.25 186.5 9.85 186.5 6.35 186.5 1.8 193.7 -4.3 L196.0 -6.2 197.05 -7.0 229.8 -7.0 234.6 -4.95 236.0 -4.4 237.65 -3.7 242.45 -1.85 Q262.8 6.0 279.4 10.7 L284.35 12.1 Q296.75 15.35 306.85 16.75 L321.6 19.35 325.2 20.0 336.0 21.95 341.2 22.9 365.95 27.3 377.0 29.15 378.95 29.45 386.45 30.65 395.15 32.0 399.65 32.7 445.4 38.65 Q481.5 42.5 508.85 42.5 L554.85 42.25 554.9 42.25 555.1 43.3 555.9 49.55 555.35 49.5 Q552.6 49.5 550.2 51.35 546.65 54.05 543.9 60.75 L542.45 64.5 Q541.75 66.35 541.35 68.05 540.35 71.6 540.35 74.25 540.35 83.4 541.35 87.0 543.75 95.75 551.2 97.2 L554.35 97.5 556.25 97.25 556.15 105.95 M553.95 37.9 L553.35 37.9 553.85 37.5 553.95 37.9 M489.85 49.5 Q488.0 54.25 487.55 62.0 487.35 65.0 487.35 75.5 487.35 86.05 487.55 89.1 488.0 96.95 489.85 101.5 L492.35 100.25 492.35 51.5 Q491.45 50.15 489.85 49.5 M506.35 69.25 L506.6 69.25 512.2 77.05 515.5 81.7 528.85 100.6 530.85 103.5 Q533.35 103.5 533.1 102.5 L533.15 100.6 533.35 76.25 533.6 67.85 533.6 64.55 Q533.45 49.5 530.85 49.5 528.1 49.5 527.95 64.6 L527.9 66.3 527.9 67.7 Q527.9 76.35 528.35 89.5 L527.85 89.5 518.7 74.55 515.55 69.4 Q504.45 51.5 503.85 51.5 502.35 51.5 501.85 52.0 L501.35 52.5 Q501.35 64.5 500.35 88.1 500.35 97.5 500.6 102.0 L503.35 102.5 Q505.85 102.5 505.85 102.0 506.35 102.5 506.35 100.0 L506.05 91.5 Q505.55 76.9 506.35 69.25 M556.3 93.95 Q553.3 92.95 551.15 91.5 547.6 89.1 546.25 85.35 545.35 82.95 545.35 74.35 545.35 72.55 546.25 69.3 L546.6 68.2 Q547.3 65.95 548.2 64.5 L548.85 63.5 550.6 61.8 556.25 55.4 556.35 72.85 556.35 74.5 552.9 74.8 Q551.35 75.15 551.35 76.75 551.35 79.25 551.6 78.25 552.85 79.5 556.35 79.5 L556.3 93.95 M420.5 43.9 Q419.9 43.5 418.85 43.5 415.5 43.5 414.6 58.0 414.15 65.35 414.35 73.75 L413.9 77.55 Q413.6 81.35 414.35 84.3 415.1 87.1 416.8 89.05 418.5 91.05 421.25 92.15 424.55 93.5 429.35 93.5 L434.8 93.25 Q436.35 92.85 436.35 90.85 436.35 89.75 433.75 89.6 L428.05 89.45 Q424.8 89.25 422.8 88.25 419.55 86.65 419.35 83.0 L419.35 73.25 419.45 72.4 423.35 72.5 423.4 72.5 429.9 72.25 Q431.35 71.9 431.35 69.85 431.35 68.85 430.9 68.55 429.6 67.7 425.5 67.55 L423.35 67.5 419.85 67.65 421.35 47.35 421.35 47.0 427.85 47.5 433.85 47.25 Q435.35 46.85 435.35 44.85 435.35 42.5 427.85 42.5 422.1 42.5 420.5 43.9 M408.35 44.0 L406.55 41.75 Q404.8 39.8 402.95 38.75 401.3 37.8 399.6 37.6 L398.35 37.5 394.95 37.8 Q393.2 38.15 392.35 39.0 392.25 40.2 394.4 41.55 392.2 46.65 391.6 55.55 391.35 59.3 391.35 72.1 391.35 84.75 393.85 89.5 L394.4 89.3 396.35 88.25 397.35 48.85 397.25 44.7 396.7 42.85 399.5 44.3 399.7 44.4 Q407.35 48.6 407.35 53.85 407.35 56.35 402.35 59.85 400.6 61.05 399.5 62.0 397.35 63.7 397.35 64.35 397.35 66.05 398.05 66.7 398.35 66.95 399.55 67.4 L399.85 67.5 Q407.6 65.8 410.3 62.15 412.35 59.5 412.35 54.1 412.35 49.7 408.35 44.0 M448.85 42.5 L447.85 40.5 447.35 42.45 444.0 59.8 Q440.35 79.5 440.35 83.75 440.35 93.3 442.85 95.5 L445.35 94.25 Q445.35 86.7 446.4 74.45 L447.85 55.25 448.1 55.25 Q451.0 61.0 460.05 82.7 L462.4 87.85 465.0 93.25 Q469.15 101.5 470.85 101.5 473.35 101.5 473.1 100.5 L474.35 74.4 474.95 61.6 475.35 51.35 Q475.35 49.15 475.05 48.5 474.55 47.5 472.85 47.5 471.35 47.5 470.85 48.0 L470.35 48.5 Q469.2 63.85 468.75 74.35 468.4 81.5 468.35 86.4 L468.35 87.5 468.1 87.5 467.95 87.2 465.4 81.35 458.2 63.9 Q452.7 50.5 448.85 42.5 M324.1 63.8 L324.35 60.85 Q323.8 55.85 322.5 51.1 L320.4 44.75 318.4 40.35 Q312.7 29.5 303.85 29.5 L300.65 29.7 Q299.35 30.1 299.35 31.75 L299.35 32.6 Q298.15 34.75 297.3 38.2 L296.75 40.6 295.35 46.75 295.35 63.6 Q295.35 72.95 296.35 78.05 296.95 81.0 297.85 82.5 L300.35 81.25 300.35 81.0 301.85 81.5 Q311.5 79.4 317.4 74.4 L319.2 72.7 Q323.15 68.5 324.1 63.8 M382.35 41.35 Q381.65 37.0 379.7 34.6 378.4 32.9 376.5 32.15 374.85 31.5 372.85 31.5 365.4 31.5 360.6 41.35 359.7 43.15 358.95 45.3 L358.85 45.5 Q355.35 55.2 355.35 62.35 L355.5 64.2 355.6 66.05 355.95 68.3 Q356.45 71.35 357.35 74.0 361.25 85.5 370.85 85.5 373.3 85.5 375.3 83.1 378.4 79.3 380.35 69.55 L380.6 68.45 Q382.35 59.05 382.35 51.5 383.15 46.3 382.35 41.35 M366.75 41.6 Q369.05 39.0 372.1 39.0 374.5 39.0 375.85 40.65 377.05 42.1 377.4 44.8 377.85 47.8 377.35 52.25 377.35 59.05 375.3 67.3 L375.25 67.4 Q372.95 76.65 369.6 80.25 363.5 74.45 361.85 71.1 361.25 69.9 360.9 68.3 360.5 66.55 360.4 64.3 L360.35 62.1 Q360.75 56.3 362.4 50.5 363.25 47.5 364.35 45.25 365.45 43.05 366.75 41.6 M251.35 33.2 L248.45 32.65 250.85 27.5 251.35 28.0 Q251.05 30.4 251.35 33.2 M255.1 22.6 Q253.65 12.3 252.85 9.5 251.6 11.1 246.75 22.6 L245.8 24.8 245.1 26.5 242.35 33.4 Q239.35 41.45 239.35 44.5 239.35 46.8 241.85 49.5 L242.35 49.35 244.1 48.5 Q244.1 46.45 244.4 44.4 L245.25 40.6 245.85 38.55 Q248.0 39.35 252.45 39.5 L252.75 40.6 253.95 44.55 254.05 44.85 259.85 61.5 262.35 60.25 262.35 52.0 Q260.55 48.7 259.2 44.65 258.55 42.7 258.05 40.6 L257.5 38.3 258.35 36.5 256.85 35.2 256.15 30.55 255.65 26.65 255.1 22.6 M302.95 45.1 L303.2 40.65 303.35 35.35 Q307.2 37.75 310.2 40.7 312.35 42.8 314.05 45.2 L314.8 46.3 Q316.7 49.3 317.85 52.35 319.35 56.6 319.35 61.0 319.35 65.05 316.2 68.2 313.75 70.65 309.35 72.55 L302.5 75.45 300.45 76.8 300.9 68.1 301.25 63.6 301.85 57.0 302.95 45.1 M288.85 23.5 Q287.4 23.5 286.95 23.9 L286.35 24.25 286.3 26.95 285.65 40.55 285.4 44.95 284.6 56.5 284.35 56.5 Q282.7 50.7 280.55 44.9 L278.85 40.5 Q276.1 33.65 272.65 26.8 L270.45 22.55 269.85 21.5 268.75 22.55 Q265.4 26.4 265.45 36.45 265.45 42.95 266.35 55.0 266.35 63.25 266.6 67.0 L269.35 67.5 Q271.85 67.5 271.85 67.0 272.35 67.5 272.35 65.0 L272.3 63.55 Q271.65 52.1 271.95 44.8 L272.25 40.55 272.35 39.5 272.6 39.5 272.9 40.55 274.2 44.85 Q276.2 50.85 279.5 58.75 L281.6 63.5 283.85 67.95 Q285.8 71.5 286.85 71.5 289.35 71.5 289.1 70.5 L289.25 68.0 289.55 63.55 290.7 45.0 291.0 40.55 291.35 33.0 291.5 30.75 291.4 27.0 Q290.9 23.5 288.85 23.5 M217.5 3.5 L218.25 2.0 Q225.5 4.0 225.5 7.25 225.5 8.8 222.5 10.65 219.5 12.45 217.5 12.25 L217.5 3.5 M229.35 22.65 Q226.65 19.05 225.0 16.25 229.55 12.4 230.05 11.35 230.35 10.8 230.35 6.85 230.35 4.65 227.6 1.25 223.75 -3.5 217.5 -3.5 213.25 -3.5 212.45 6.5 212.05 11.7 212.5 18.85 L212.5 22.7 212.55 26.0 212.65 28.6 212.7 28.8 Q213.15 34.55 215.0 38.5 L216.3 37.9 217.5 37.25 217.5 18.5 Q219.85 20.15 222.0 22.7 L224.6 26.2 227.6 31.6 232.15 40.65 233.85 43.5 Q234.85 43.25 236.1 42.5 L236.25 40.65 236.35 37.25 Q236.35 31.3 234.0 28.5 L232.2 26.3 229.35 22.65" fill="#ffffff" fill-rule="evenodd" stroke="none"/>
      <path d="M148.35 399.8 L148.4 396.25 148.5 371.75 Q148.7 363.05 148.5 354.55 148.3 345.1 147.55 340.9 L157.25 341.05 Q155.45 345.0 155.85 352.05 156.2 358.1 157.5 369.5 157.5 382.15 157.65 385.65 157.9 391.2 158.6 395.5 159.05 398.1 159.65 400.25 L157.1 400.35 153.65 400.35 149.5 400.05 148.35 399.8 M395.85 400.35 L396.4 399.05 396.5 398.75 399.0 391.95 400.0 391.45 405.25 391.55 409.35 391.6 414.75 391.7 416.35 391.75 417.05 391.75 418.1 391.75 503.15 392.85 546.8 393.1 Q547.3 396.85 548.15 400.05 L548.2 400.2 547.35 400.25 543.7 400.35 Q520.15 400.85 395.45 401.35 L395.6 400.95 395.85 400.35 M551.15 370.85 L549.2 370.8 546.25 370.8 543.3 370.75 503.25 370.5 502.5 370.5 502.1 370.5 501.7 370.5 501.3 370.5 500.9 370.5 500.05 370.5 499.65 370.5 499.2 370.5 498.8 370.5 498.35 370.5 401.0 370.75 Q402.05 367.9 404.85 362.6 409.0 354.8 409.35 352.6 L411.55 352.65 544.3 354.25 546.35 354.25 549.25 354.25 551.15 354.25 551.15 370.85 M552.2 37.85 Q538.35 37.4 459.85 37.0 L449.1 35.5 Q445.25 33.6 433.85 32.5 L413.35 29.85 399.65 27.8 399.65 21.9 Q399.6 8.35 398.2 -1.45 L397.9 -3.4 398.85 -4.25 475.35 -4.5 Q552.1 -4.0 552.85 -3.25 553.35 -4.6 553.35 -2.1 553.35 -0.55 552.9 -0.2 L551.85 0.25 551.55 0.25 Q553.0 5.25 552.35 19.35 L552.2 37.85 M395.1 231.65 Q395.6 233.8 396.4 235.6 L364.85 235.5 180.35 235.5 180.45 221.75 214.95 222.25 221.25 222.35 Q309.45 223.45 394.1 223.25 394.2 228.0 395.1 231.65 M103.25 18.0 Q106.45 18.0 110.45 21.05 114.5 24.05 114.5 26.5 L109.5 36.25 Q103.6 46.0 99.4 46.0 92.65 46.0 90.95 41.5 90.5 40.25 90.5 35.1 90.4 30.8 91.95 26.5 95.05 18.0 103.25 18.0" fill="#876b01" fill-rule="evenodd" stroke="none"/>
      <path d="M391.45 404.8 L391.75 405.15 391.7 405.15 391.6 405.1 Q391.4 405.8 391.4 404.75 L391.45 404.8 M551.35 236.35 L548.2 236.3 546.35 236.3 515.0 236.05 514.95 236.05 399.1 235.6 399.15 231.65 399.35 113.85 399.5 100.65 Q405.55 101.65 410.6 103.0 L411.55 103.25 407.1 115.95 Q402.35 129.85 402.35 130.75 402.35 133.25 402.6 133.0 L405.35 133.5 Q406.7 133.5 413.5 114.15 L416.85 104.7 427.8 107.85 Q436.65 109.9 451.75 111.25 443.5 129.9 441.25 137.65 L403.85 137.75 402.35 139.0 402.35 140.5 440.35 141.3 440.4 141.3 440.35 141.95 440.35 142.0 Q440.35 142.95 442.85 145.5 L445.9 141.4 Q497.3 142.25 546.35 142.3 L551.45 142.3 551.5 180.95 546.25 180.9 495.85 180.5 405.85 180.75 404.35 182.0 404.35 183.5 427.1 183.95 Q424.2 188.0 415.35 203.5 403.35 224.5 403.35 226.35 403.35 228.05 404.05 228.7 404.4 229.0 405.85 229.5 412.35 222.1 419.45 206.85 427.3 190.05 431.35 184.5 L431.2 184.1 431.35 184.05 477.5 184.75 Q473.0 190.85 468.1 203.75 465.35 210.95 460.45 219.65 456.35 226.85 456.35 227.35 456.35 229.05 457.05 229.7 457.4 230.0 458.85 230.5 465.8 224.15 475.1 204.5 482.4 189.1 483.25 184.8 L528.2 185.2 Q524.85 190.45 518.9 206.0 510.35 228.2 510.35 230.75 L510.4 232.15 Q510.45 232.85 510.6 232.25 L511.3 233.15 513.35 233.5 515.65 233.75 516.15 232.2 522.6 210.75 Q523.4 208.3 528.65 196.7 533.35 186.2 533.35 185.25 L533.35 185.2 546.25 185.25 550.2 185.25 550.55 185.25 551.5 185.3 551.35 220.6 551.35 236.35 M551.45 138.1 L546.35 138.05 Q527.7 137.75 494.85 137.55 L486.85 137.5 448.25 137.65 Q452.65 130.0 455.8 120.2 L458.35 111.75 497.6 113.3 Q492.35 128.4 492.35 134.75 492.35 136.4 493.05 136.9 L494.85 137.5 Q500.6 130.0 504.3 115.9 L504.95 113.4 522.35 113.5 551.35 112.6 551.4 130.0 551.45 138.1" fill="#ba9501" fill-rule="evenodd" stroke="none"/>
      <path d="M551.2 325.35 L549.35 325.3 546.35 325.3 Q495.05 324.85 344.35 324.5 L120.25 324.5 120.4 324.25 123.55 318.95 Q132.15 303.95 145.15 277.2 161.85 242.75 162.5 238.55 L164.35 238.55 164.35 239.5 164.2 256.5 163.0 256.5 Q163.0 256.75 160.5 258.0 L160.5 259.5 164.1 259.55 163.75 269.1 Q163.7 275.65 164.15 281.5 L152.0 281.5 Q152.0 281.75 149.5 283.0 L149.5 284.5 164.4 284.65 164.75 287.7 163.35 287.5 Q154.6 287.4 148.95 294.15 144.35 299.65 144.35 305.1 144.35 306.35 144.65 307.5 L140.0 307.5 Q140.0 307.75 137.5 309.0 L137.5 310.5 146.0 310.6 146.05 310.6 147.65 312.25 Q155.3 318.5 178.35 318.5 195.45 318.5 200.4 312.5 L201.35 311.05 Q374.6 312.4 546.35 312.5 L549.4 312.5 551.25 312.5 551.2 325.35 M551.25 308.3 L549.45 308.25 546.35 308.25 Q495.05 307.8 357.35 307.5 L202.35 307.5 202.35 303.85 Q202.35 291.5 182.85 291.5 L180.15 291.6 180.15 284.8 200.65 284.95 212.75 285.05 220.6 285.1 Q384.15 286.4 546.35 286.5 L549.55 286.5 551.25 286.5 551.25 308.3 M551.25 282.25 L550.5 282.25 395.9 281.55 395.75 281.55 381.55 281.55 380.0 281.55 180.2 281.5 180.25 259.7 229.55 260.1 234.7 260.15 239.15 260.2 245.4 260.25 252.2 260.3 Q399.85 261.4 546.35 261.5 L549.6 261.5 551.3 261.5 551.25 282.25 M551.3 257.25 L550.9 257.25 546.95 257.2 546.35 257.2 Q496.45 256.8 369.85 256.5 L180.3 256.5 180.35 238.7 222.45 239.05 227.75 239.1 Q387.75 240.4 546.35 240.5 L548.95 240.5 551.35 240.5 551.3 257.25 M181.0 296.25 L180.85 297.0 180.1 296.85 180.1 295.9 181.0 296.25 M165.4 291.8 L164.55 291.95 165.35 291.5 165.4 291.8" fill="#a08001" fill-rule="evenodd" stroke="none"/>
      <path d="M385.05 342.3 L388.0 342.3 Q388.35 343.0 388.35 344.0 388.35 344.95 384.35 361.85 380.35 378.75 380.35 385.25 L377.85 386.5 Q375.35 383.8 375.35 381.1 375.35 376.6 379.8 359.7 383.25 346.7 385.05 342.3 M364.6 380.65 Q364.35 378.85 364.35 373.5 364.35 367.35 366.85 365.5 369.7 368.25 369.75 372.8 369.85 379.3 370.35 381.0 L370.35 386.25 367.85 387.5 Q365.3 385.4 364.6 380.65 M47.5 43.0 Q47.5 44.5 44.5 62.5 41.5 80.5 41.5 84.25 L39.0 85.5 Q36.5 83.0 36.5 80.1 36.5 75.4 39.95 58.75 43.4 41.95 45.0 39.5 47.5 40.5 47.5 43.0 M27.5 76.0 Q27.5 73.35 30.0 72.5 31.35 73.85 32.15 75.25 L33.5 77.5 33.5 93.25 31.0 94.5 Q27.5 91.15 27.5 76.0 M47.0 130.3 Q47.5 130.85 47.5 132.6 47.5 137.75 45.55 147.75 43.5 158.5 43.25 163.75 L41.0 164.5 Q38.5 163.2 38.5 155.35 38.5 150.2 40.2 141.7 42.3 131.2 45.0 129.5 46.65 129.9 47.0 130.3 M29.0 139.5 Q33.6 139.5 32.5 152.35 L32.25 162.5 30.0 163.5 Q27.4 160.95 26.75 154.0 26.5 151.35 26.5 142.0 L26.55 140.55 27.0 140.0 27.25 139.75 29.0 139.5 M50.5 317.5 Q50.5 324.4 49.1 336.15 47.55 349.3 47.25 356.5 46.0 357.25 45.0 357.5 43.1 354.9 42.65 351.0 42.5 349.6 42.5 344.25 42.5 337.55 43.5 327.75 45.05 312.5 48.0 312.5 51.25 312.5 50.5 317.5 M34.0 335.5 L39.15 345.25 Q41.8 351.1 41.5 356.25 41.5 357.5 39.0 357.5 38.35 357.5 31.5 339.0 31.5 336.35 34.0 335.5 M184.8 362.05 Q185.2 361.5 187.0 361.5 188.35 361.5 190.55 368.55 L191.5 371.6 Q192.7 367.95 195.5 361.05 200.7 348.05 203.0 345.5 205.5 346.5 205.5 349.0 205.5 352.75 200.7 363.2 195.75 373.9 195.5 378.25 L193.0 379.5 192.4 379.25 192.25 380.75 190.0 381.5 Q184.5 369.5 184.5 364.5 184.5 362.5 184.8 362.05" fill="#ddffdd" fill-rule="evenodd" stroke="none"/>
      <path d="M131.35 402.0 L131.35 400.35 131.4 398.25 131.5 372.75 Q131.7 364.0 131.45 355.5 131.2 344.6 130.25 340.7 L144.4 340.85 Q143.7 344.85 143.5 353.5 143.3 361.7 143.5 371.85 143.5 385.8 143.65 389.55 L143.7 390.4 143.75 390.75 143.95 394.25 144.0 394.85 144.0 394.9 144.1 395.65 144.3 397.5 144.7 400.35 144.95 402.0 145.0 402.3 139.5 402.35 131.35 402.0 M148.35 402.0 L148.35 399.8 149.5 400.05 149.5 400.35 Q149.3 401.6 148.35 402.0 M393.6 405.3 L393.85 404.85 393.85 404.8 395.25 401.75 395.45 401.35 Q520.15 400.85 543.7 400.35 L547.35 400.25 548.2 400.2 548.15 400.05 Q547.3 396.85 546.8 393.1 L551.1 393.1 551.1 399.65 551.95 400.6 Q553.35 402.25 553.35 402.85 553.35 404.5 552.85 405.1 L551.95 405.25 Q544.3 405.9 472.35 406.35 L431.3 406.0 Q400.45 405.65 393.6 405.3 M551.1 388.7 L549.15 388.65 545.1 388.65 501.7 388.35 500.5 388.35 499.85 388.35 499.2 388.35 498.55 388.35 497.85 388.35 400.25 388.6 400.35 380.1 400.4 373.6 Q474.85 374.95 546.1 375.25 L551.15 375.25 551.1 388.7 M551.15 349.9 L549.25 349.85 546.35 349.85 543.15 349.8 502.95 349.5 502.55 349.5 502.15 349.5 501.75 349.5 501.35 349.5 500.9 349.5 500.5 349.5 500.05 349.5 499.65 349.5 499.2 349.5 498.75 349.5 498.3 349.5 497.85 349.5 409.35 349.75 409.35 329.25 546.35 329.5 549.3 329.5 551.2 329.5 551.15 349.9 M405.25 329.25 Q404.4 332.7 404.35 338.6 391.15 337.95 261.35 337.5 L160.4 337.7 160.0 337.5 159.8 337.7 146.45 337.7 146.0 337.5 Q145.75 337.5 145.55 337.7 L120.5 337.75 120.5 334.25 Q121.0 329.75 120.35 327.55 263.25 328.8 405.25 329.25" fill="#6d5701" fill-rule="evenodd" stroke="none"/>
      <path d="M195.8 164.3 L195.4 164.75 193.9 166.0 191.9 164.65 192.5 163.05 195.8 164.3 M185.25 166.6 L185.15 166.8 183.2 165.25 185.25 166.6 M183.45 163.7 L184.3 161.8 186.6 163.2 185.75 165.3 183.45 163.7 M183.2 161.05 L182.4 163.05 182.3 162.95 182.3 162.85 182.35 160.45 183.2 161.05 M191.0 167.05 L191.4 165.95 192.65 166.65 191.0 167.05 M188.4 162.3 L188.9 160.95 191.55 162.55 190.9 164.0 188.9 162.65 188.4 162.3 M187.8 163.9 L190.35 165.35 189.7 167.2 188.45 167.25 186.95 166.15 187.8 163.9 M186.6 156.4 L187.15 154.85 189.35 156.05 188.65 157.85 188.3 157.6 186.6 156.4 M185.65 158.7 L187.0 159.7 187.75 160.2 187.2 161.55 185.0 160.2 185.65 158.7 M182.35 158.35 L182.3 156.25 184.45 157.85 183.85 159.5 182.35 158.75 182.35 158.35 M186.8 152.1 L186.55 152.7 184.75 152.05 185.1 152.0 186.8 152.1 M182.6 154.15 Q182.85 153.25 183.35 152.75 L185.95 154.2 185.35 155.65 Q183.8 154.65 182.6 154.15 M190.0 154.4 L187.7 153.25 188.0 152.25 190.6 152.9 190.0 154.4 M194.65 158.85 L197.35 160.25 Q197.25 161.65 196.6 162.95 L193.4 161.1 194.65 158.85 M195.85 156.5 Q196.75 157.5 197.1 158.5 L195.4 157.4 195.85 156.5 M195.0 155.6 L194.35 156.75 191.1 154.95 191.55 153.3 Q193.25 154.05 194.6 155.25 L195.0 155.6 M193.6 158.3 L192.6 160.3 192.5 160.55 189.75 158.65 190.5 156.65 193.6 158.3" fill="#444444" fill-rule="evenodd" stroke="none"/>
      <path d="M177.1 160.25 L177.3 160.55 Q177.35 163.5 178.05 165.9 L179.1 168.45 175.2 170.1 Q169.25 172.4 166.45 173.6 L165.5 174.05 Q162.5 175.35 160.5 176.65 L158.2 178.4 156.65 177.1 Q153.6 174.65 153.1 174.0 153.45 173.65 160.5 169.8 L165.5 167.1 167.65 165.9 Q173.95 162.5 177.1 160.25" fill="#2b2b2b" fill-rule="evenodd" stroke="none"/>
      <path d="M173.8 177.55 L176.5 176.2 Q175.65 183.55 175.4 202.5 175.25 210.35 175.25 218.75 L175.25 221.7 175.35 235.5 175.35 235.85 175.35 238.65 175.35 256.5 175.35 259.65 175.35 267.75 175.2 281.5 175.05 284.65 175.05 284.75 Q175.05 291.2 176.25 295.9 L169.35 294.6 169.35 179.55 173.8 177.55 M181.0 296.25 Q183.4 297.25 187.35 298.4 197.35 301.35 197.35 304.35 197.35 305.8 196.75 307.5 L196.35 308.5 195.35 310.75 195.25 311.0 Q194.95 311.7 194.1 312.25 L160.85 313.25 Q159.05 313.25 154.7 310.65 L154.4 310.5 Q151.7 308.9 150.45 307.5 149.35 306.3 149.35 305.25 149.35 301.1 158.35 295.55 L164.55 291.95 165.4 291.8 166.0 294.85 165.6 295.0 Q165.35 296.5 165.35 298.0 L165.65 300.3 Q166.95 302.5 172.35 302.5 181.35 302.5 181.35 298.85 181.35 297.4 181.1 297.25 L180.85 297.0 181.0 296.25" fill="#595959" fill-rule="evenodd" stroke="none"/>
      <path d="M134.25 152.75 Q134.55 149.8 133.9 142.9 133.3 136.5 133.9 133.0 134.65 128.5 137.75 124.7 139.85 122.1 142.95 119.8 147.05 116.8 153.0 114.25 156.6 112.75 158.45 106.2 L160.5 97.4 160.5 117.25 160.5 144.05 Q158.05 144.45 156.0 145.25 L154.25 146.1 148.5 145.5 147.35 145.6 Q144.7 145.95 141.3 148.0 138.2 149.8 134.5 153.0 L134.25 152.75 M160.35 215.75 L160.35 217.0 160.1 222.6 160.3 227.6 160.3 231.5 160.8 231.5 Q161.2 233.8 161.85 235.7 L161.35 236.05 160.0 235.5 Q149.8 251.0 131.65 288.0 121.6 308.55 117.45 318.2 110.95 316.75 105.9 312.9 100.0 308.35 97.5 302.0 103.5 302.0 103.5 298.25 L103.25 296.45 103.0 296.0 Q86.1 302.5 75.7 285.05 72.3 279.3 70.15 271.8 68.5 266.2 68.5 264.0 68.5 258.35 76.55 251.4 78.5 249.6 81.0 247.8 L84.25 245.75 93.5 239.5 87.5 232.45 Q81.5 225.45 81.5 224.5 81.5 219.35 84.5 214.6 L92.25 204.25 95.75 199.15 Q98.15 195.8 100.25 194.5 102.2 193.25 105.1 192.7 L110.05 192.0 Q115.9 190.95 118.5 185.5 117.65 184.2 116.05 183.55 L113.0 182.5 Q116.2 172.85 129.55 161.65 136.85 155.5 142.05 152.95 145.75 151.05 148.35 151.0 L148.5 151.0 151.75 151.25 152.2 151.9 154.0 152.5 155.55 151.65 157.25 151.5 157.5 149.75 160.5 149.25 160.5 161.95 Q147.35 169.0 147.35 173.85 L149.35 178.75 Q152.2 183.4 156.7 183.5 L157.05 183.9 158.85 184.5 160.5 183.7 160.45 202.95 160.35 215.75" fill="#97f96c" fill-rule="evenodd" stroke="none"/>
    </g>
  </defs>
</svg>
