<?xml version="1.0" encoding="UTF-8" standalone="no"?>
<svg xmlns:xlink="http://www.w3.org/1999/xlink" height="842.55px" width="1337.95px" xmlns="http://www.w3.org/2000/svg">
  <g transform="matrix(1, 0, 0, 1, 407.45, 285.05)">
    <use height="4.5" transform="matrix(5.4867, 0.0, 0.0, 81.5667, 3.2875, 23.0167)" width="99.75" xlink:href="#shape0"/>
    <use height="408.85" transform="matrix(1.0, 0.0, 0.0, 1.0, -3.8, -3.5)" width="558.15" xlink:href="#shape1"/>
    <use height="662.4" transform="matrix(-0.2585, -0.0389, -0.0389, 0.2585, 329.8638, 95.1988)" width="287.45" xlink:href="#sprite0"/>
    <use height="360.8" transform="matrix(-0.175, 0.0, 0.0, 0.175, 360.9165, 86.2291)" width="211.6" xlink:href="#sprite1"/>
  </g>
  <defs>
    <g id="shape0" transform="matrix(1, 0, 0, 1, 49.85, -2.5)">
      <path d="M49.9 7.0 L-49.85 7.0 -49.85 2.5 49.9 2.5 49.9 7.0" fill="#ffffff" fill-rule="evenodd" stroke="none"/>
    </g>
    <g id="shape1" transform="matrix(1, 0, 0, 1, 3.8, 3.5)">
      <path d="M551.95 36.2 L549.9 36.5 Q530.55 39.5 520.85 39.5 506.45 39.5 493.8 35.65 484.75 32.85 474.15 27.15 L458.3 18.6 Q449.85 14.75 442.6 14.75 436.0 14.75 386.8 24.65 337.65 34.5 320.35 34.5 286.85 34.5 255.8 26.15 L235.95 20.35 Q226.65 17.75 221.6 17.75 216.05 17.75 148.3 28.65 80.55 39.5 72.0 39.5 39.6 39.5 15.5 31.0 7.95 28.35 -0.85 24.05 L-3.0 23.0 -3.0 -3.5 551.95 -3.5 551.95 36.2" fill="#109900" fill-rule="evenodd" stroke="none"/>
      <path d="M-3.0 23.0 L-0.85 24.05 Q7.95 28.35 15.5 31.0 39.6 39.5 72.0 39.5 80.55 39.5 148.3 28.65 216.05 17.75 221.6 17.75 226.65 17.75 235.95 20.35 L255.8 26.15 Q286.85 34.5 320.35 34.5 337.65 34.5 386.8 24.65 436.0 14.75 442.6 14.75 449.85 14.75 458.3 18.6 L474.15 27.15 Q484.75 32.85 493.8 35.65 506.45 39.5 520.85 39.5 530.55 39.5 549.9 36.5 L551.95 36.2 551.95 85.3 544.85 85.5 Q509.35 85.5 475.0 75.15 465.4 72.2 454.5 68.0 446.1 64.75 445.35 64.75 438.1 64.75 423.9 69.85 L394.15 81.15 Q348.9 97.5 309.35 97.5 256.5 97.5 224.25 83.65 L204.95 74.1 Q196.15 69.75 189.75 69.75 178.2 69.75 164.5 74.4 160.9 75.6 138.9 84.65 121.95 91.6 108.55 94.85 89.55 99.5 69.0 99.5 24.8 99.5 0.0 87.4 L-3.0 85.85 -3.0 23.0" fill="#0d7700" fill-rule="evenodd" stroke="none"/>
      <path d="M-3.0 85.85 L0.0 87.4 Q24.8 99.5 69.0 99.5 89.55 99.5 108.55 94.85 121.95 91.6 138.9 84.65 160.9 75.6 164.5 74.4 178.2 69.75 189.75 69.75 196.15 69.75 204.95 74.1 L224.25 83.65 Q256.5 97.5 309.35 97.5 348.9 97.5 394.15 81.15 L423.9 69.85 Q438.1 64.75 445.35 64.75 446.1 64.75 454.5 68.0 465.4 72.2 475.0 75.15 509.35 85.5 544.85 85.5 L551.95 85.3 551.95 126.9 551.1 127.05 544.6 128.35 542.85 128.65 536.6 129.75 536.6 129.8 534.8 130.1 522.3 132.05 521.35 132.15 507.9 133.85 497.35 134.5 497.15 134.5 475.7 133.6 473.6 133.15 471.2 132.55 466.15 131.85 459.45 131.5 458.85 131.5 458.05 131.5 452.6 130.6 446.4 128.55 440.1 125.75 437.65 125.9 437.15 125.95 436.05 126.1 435.9 126.1 435.4 126.2 Q430.15 127.1 424.05 129.9 L422.9 130.4 418.9 132.55 Q409.35 137.55 402.6 140.65 394.45 144.4 385.35 147.2 L380.2 148.65 372.5 150.55 367.6 151.55 Q353.35 154.3 337.25 155.15 L331.0 155.4 322.85 155.5 314.6 155.45 309.4 155.35 282.9 153.95 277.4 153.35 270.15 152.3 Q264.05 151.3 259.15 149.9 L254.35 148.5 Q248.7 147.35 239.45 143.2 L239.0 142.95 236.3 141.7 232.7 140.05 Q225.5 136.75 224.1 136.75 L218.4 137.25 213.2 138.0 202.7 139.85 178.1 144.6 172.55 145.65 167.1 146.65 161.6 147.65 157.35 148.4 153.65 149.05 153.15 149.15 153.0 149.2 151.9 149.35 144.95 150.5 137.15 151.7 131.6 152.55 125.55 153.35 Q105.3 156.0 90.95 156.45 L86.0 156.5 84.95 156.5 Q65.75 156.4 47.65 153.55 L41.7 152.5 Q32.65 150.8 23.9 148.35 L17.5 146.5 9.1 143.65 8.7 143.5 7.8 143.2 1.05 140.55 -1.7 139.4 -3.0 138.8 -3.0 85.85" fill="#095500" fill-rule="evenodd" stroke="none"/>
      <path d="M536.6 129.8 L538.35 175.75 Q538.55 184.7 538.05 202.7 538.05 216.75 540.25 226.85 L539.7 226.95 505.95 226.5 504.45 226.5 503.15 226.5 502.8 226.5 502.45 226.5 501.35 226.5 493.7 226.55 Q496.05 214.0 501.7 177.4 506.6 145.75 507.9 133.85 L521.35 132.15 522.3 132.05 534.8 130.1 536.6 129.8 M385.35 147.2 Q394.45 144.4 402.6 140.65 409.35 137.55 418.9 132.55 L419.35 138.5 Q419.35 153.0 419.75 160.45 420.0 166.05 421.6 185.75 L421.85 209.7 Q421.95 223.4 424.35 231.8 L412.05 234.2 378.8 241.15 371.8 242.45 Q373.75 227.4 379.45 196.2 385.0 165.85 385.35 147.2 M277.4 153.35 Q277.8 167.15 283.2 205.4 287.55 235.8 289.8 246.85 L283.35 245.8 251.85 240.4 251.8 240.4 252.35 236.85 Q255.35 217.95 255.35 215.25 255.35 213.65 254.55 213.15 L252.85 212.5 Q250.45 215.9 247.25 232.6 L246.0 239.5 239.2 238.5 Q238.35 235.5 235.85 235.5 L233.65 235.7 Q233.35 235.95 233.35 237.7 L232.8 237.65 229.05 237.15 Q228.7 223.6 233.7 200.85 239.35 175.35 239.35 163.35 239.35 148.5 239.05 144.0 L239.45 143.2 Q248.7 147.35 254.35 148.5 L259.15 149.9 Q264.05 151.3 270.15 152.3 L277.4 153.35 M-2.0 254.15 Q-3.75 249.2 -3.8 241.75 -3.3 231.05 -3.5 226.0 L-3.5 195.25 -3.35 164.45 Q-3.05 149.75 -1.7 139.4 L1.05 140.55 7.8 143.2 8.7 143.5 9.1 143.65 17.5 146.5 17.5 150.0 Q17.7 172.55 18.5 191.4 20.4 235.25 25.15 247.1 L14.15 249.45 8.35 250.85 6.6 251.3 6.0 251.45 2.1 252.55 -2.0 253.8 -2.0 254.15 M151.9 149.35 Q139.25 167.25 125.2 184.75 125.15 194.35 125.5 202.6 126.5 226.7 130.6 233.15 L130.0 233.4 87.55 237.3 74.75 238.95 Q82.0 209.25 85.3 193.7 89.65 173.2 90.95 156.45 105.3 156.0 125.55 153.35 L125.5 169.35 125.4 173.9 Q135.05 163.8 138.95 158.8 143.05 153.55 144.95 150.5 L151.9 149.35 M262.0 161.5 Q254.7 161.5 250.55 169.0 247.5 174.45 247.5 179.5 L247.7 182.3 Q248.1 185.5 249.25 188.15 252.85 196.5 262.5 196.5 270.2 196.5 273.5 189.0 275.5 184.45 275.5 178.85 276.15 174.35 274.75 170.05 272.0 161.5 262.0 161.5" fill="#806600" fill-rule="evenodd" stroke="none"/>
      <path d="M542.85 128.65 L543.35 147.0 Q544.25 159.75 543.35 186.35 L543.25 205.15 543.2 214.65 543.1 225.35 543.1 227.1 546.45 227.2 551.1 227.4 552.95 227.5 552.95 232.65 551.95 232.55 550.75 232.5 550.75 232.45 549.55 232.4 548.2 232.35 511.15 231.75 510.25 231.75 507.4 231.75 504.85 231.75 503.25 231.75 502.7 231.75 502.15 231.75 501.0 231.75 Q486.1 231.75 472.85 232.25 L471.75 232.3 471.25 232.3 449.4 233.5 447.6 233.65 447.4 227.75 453.85 226.75 469.4 226.7 Q464.55 213.95 462.05 196.7 459.35 172.7 457.1 160.75 455.55 152.65 454.5 146.05 L461.8 143.7 Q467.4 140.45 471.2 132.55 L473.6 133.15 475.7 133.6 474.4 137.8 Q469.9 150.5 461.35 150.5 L461.05 150.5 461.85 157.5 Q462.9 164.95 468.9 196.85 L474.25 226.65 488.95 226.6 Q488.35 225.2 488.35 223.75 488.35 220.0 491.2 200.65 494.3 179.7 496.6 170.5 L498.85 159.95 Q498.05 153.45 497.4 141.5 L497.15 134.5 497.35 134.5 507.9 133.85 Q506.6 145.75 501.7 177.4 496.05 214.0 493.7 226.55 L501.35 226.5 502.45 226.5 502.8 226.5 503.15 226.5 504.45 226.5 505.95 226.5 539.7 226.95 540.25 227.0 540.25 226.85 Q538.05 216.75 538.05 202.7 538.55 184.7 538.35 175.75 L536.6 129.8 536.6 129.75 542.85 128.65 M385.35 147.2 Q385.0 165.85 379.45 196.2 373.75 227.4 371.8 242.45 L378.8 241.15 412.05 234.2 424.35 231.8 Q421.95 223.4 421.85 209.7 L421.6 185.75 Q420.0 166.05 419.75 160.45 419.35 153.0 419.35 138.5 L418.9 132.55 422.9 130.4 424.05 129.9 Q424.4 137.75 424.3 147.8 424.05 173.75 427.35 186.5 L427.35 231.2 433.3 230.15 434.65 234.25 434.85 234.9 432.45 235.15 Q412.4 237.55 392.5 242.65 L371.2 248.0 368.25 248.7 362.2 250.1 Q344.6 253.5 322.85 253.5 305.2 253.5 286.2 251.05 L251.8 245.65 251.0 245.55 251.8 240.4 251.85 240.4 283.35 245.8 289.8 246.85 Q287.55 235.8 283.2 205.4 277.8 167.15 277.4 153.35 L282.9 153.95 283.4 160.15 Q284.75 180.2 285.85 187.25 288.5 203.6 293.35 240.5 L293.35 247.4 302.6 248.25 304.3 248.25 307.25 248.25 323.7 247.75 Q322.25 243.85 319.9 231.5 315.65 209.0 314.1 204.0 312.7 199.35 310.95 180.7 309.35 163.95 309.35 159.0 L309.4 155.35 314.6 155.45 314.75 162.65 Q314.8 186.1 315.35 191.25 316.25 199.7 321.3 217.8 322.9 203.05 327.3 176.5 329.3 164.35 331.0 155.4 L337.25 155.15 336.25 160.25 Q331.8 182.8 331.35 186.5 330.5 194.2 329.15 210.65 327.75 222.2 324.6 230.5 326.85 240.5 327.3 247.55 347.45 246.4 366.6 243.35 366.35 241.35 366.35 238.85 366.35 235.15 371.55 209.35 L375.95 187.2 Q370.2 166.15 367.6 151.55 L372.5 150.55 Q373.05 155.65 373.85 157.5 375.25 160.75 377.2 170.5 L378.05 174.7 Q380.05 160.55 380.35 152.25 L380.2 148.65 385.35 147.2 M452.6 130.6 L458.05 131.5 458.85 131.5 459.45 131.5 466.15 131.85 Q465.85 132.85 465.1 133.65 463.75 135.1 459.9 137.0 457.3 138.05 453.6 139.75 452.85 134.55 452.6 130.6 M442.35 228.55 L442.3 232.75 442.45 234.1 440.2 234.35 438.95 229.15 442.35 228.55 M-1.2 259.8 L-2.0 260.0 -2.0 254.15 -2.0 253.8 2.1 252.55 6.0 251.45 6.6 251.3 8.35 250.85 14.15 249.45 25.15 247.1 Q20.4 235.25 18.5 191.4 17.7 172.55 17.5 150.0 L17.5 146.5 23.9 148.35 23.5 185.25 Q23.85 196.2 27.8 217.35 L29.95 230.4 Q30.5 223.15 31.7 212.85 L34.5 188.25 Q36.1 183.0 39.7 162.15 40.6 156.9 41.7 152.5 L47.65 153.55 Q45.2 166.85 39.5 192.75 39.2 194.75 37.4 218.45 36.2 233.7 32.0 243.5 L31.35 243.25 31.35 243.55 31.45 245.9 49.3 242.75 69.55 239.65 Q70.05 232.1 82.0 181.75 83.05 177.25 84.95 156.5 L86.0 156.5 90.95 156.45 Q89.65 173.2 85.3 193.7 82.0 209.25 74.75 238.95 L87.55 237.3 130.0 233.4 130.75 233.35 130.6 233.15 Q126.5 226.7 125.5 202.6 125.15 194.35 125.2 184.75 139.25 167.25 151.9 149.35 L153.0 149.2 153.15 149.15 153.65 149.05 157.35 148.4 161.6 147.65 Q157.55 154.0 151.2 162.35 138.2 179.4 131.35 186.2 L132.7 203.0 Q134.75 226.9 136.2 233.1 148.25 232.5 159.5 232.5 L167.95 232.6 Q167.5 229.3 167.5 224.5 167.5 204.7 170.5 195.35 173.5 185.95 173.5 164.85 173.5 154.7 172.55 145.65 L178.1 144.6 178.2 145.35 Q178.5 148.1 178.5 164.85 178.5 185.4 174.25 201.25 172.4 208.1 172.3 218.55 172.2 223.45 172.4 232.7 L175.0 232.75 221.25 236.2 222.0 236.3 221.9 236.0 Q218.9 227.5 217.65 215.05 216.5 198.45 215.5 190.0 214.3 180.15 213.8 160.85 213.5 150.1 213.5 141.6 L213.2 138.0 218.4 137.25 218.35 139.8 Q218.05 163.15 218.75 170.25 220.15 184.1 224.7 223.9 225.6 214.75 229.35 197.95 234.35 175.35 234.35 163.6 L232.7 140.05 236.3 141.7 239.0 142.95 239.05 144.0 Q239.35 148.5 239.35 163.35 239.35 175.35 233.7 200.85 228.7 223.6 229.05 237.15 L232.8 237.65 233.35 237.7 233.35 237.75 233.4 242.9 222.6 241.55 172.1 237.95 171.35 237.9 169.55 237.85 159.1 237.75 Q110.45 237.75 73.7 243.45 L73.65 243.45 69.45 244.15 16.55 255.4 16.0 255.55 11.15 256.7 10.55 256.85 8.05 257.5 2.5 258.85 -1.2 259.8 M239.2 238.5 L246.0 239.5 245.15 244.6 239.6 243.75 Q239.75 240.45 239.2 238.5 M262.0 161.5 Q272.0 161.5 274.75 170.05 276.15 174.35 275.5 178.85 275.5 184.45 273.5 189.0 270.2 196.5 262.5 196.5 252.85 196.5 249.25 188.15 248.1 185.5 247.7 182.3 L247.5 179.5 Q247.5 174.45 250.55 169.0 254.7 161.5 262.0 161.5 M261.5 167.0 Q257.35 167.0 254.5 173.55 253.1 176.8 252.5 180.25 252.5 181.75 255.05 186.25 257.85 191.25 259.75 191.25 267.1 191.25 269.55 185.25 270.3 183.35 270.45 181.05 L270.5 179.0 Q270.5 173.85 270.05 173.05 269.15 171.65 262.6 167.0 L261.5 167.0 M144.95 150.5 Q143.05 153.55 138.95 158.8 135.05 163.8 125.4 173.9 L125.5 169.35 125.55 153.35 131.6 152.55 131.0 160.05 133.95 155.9 137.15 151.7 144.95 150.5" fill="#000000" fill-rule="evenodd" stroke="none"/>
      <path d="M542.85 128.65 L544.6 128.35 551.1 127.05 Q551.65 130.15 551.65 134.05 551.7 138.95 551.35 148.0 551.75 157.0 551.35 175.35 L551.1 227.4 546.45 227.2 543.1 227.1 543.1 225.35 543.2 214.65 543.25 205.15 543.35 186.35 Q544.25 159.75 543.35 147.0 L542.85 128.65 M497.15 134.5 L497.4 141.5 Q498.05 153.45 498.85 159.95 L496.6 170.5 Q494.3 179.7 491.2 200.65 488.35 220.0 488.35 223.75 488.35 225.2 488.95 226.6 L474.25 226.65 468.9 196.85 Q462.9 164.95 461.85 157.5 L461.05 150.5 461.35 150.5 Q469.9 150.5 474.4 137.8 L475.7 133.6 497.15 134.5 M331.0 155.4 Q329.3 164.35 327.3 176.5 322.9 203.05 321.3 217.8 316.25 199.7 315.35 191.25 314.8 186.1 314.75 162.65 L314.6 155.45 322.85 155.5 331.0 155.4 M380.2 148.65 L380.35 152.25 Q380.05 160.55 378.05 174.7 L377.2 170.5 Q375.25 160.75 373.85 157.5 373.05 155.65 372.5 150.55 L380.2 148.65 M172.55 145.65 Q173.5 154.7 173.5 164.85 173.5 185.95 170.5 195.35 167.5 204.7 167.5 224.5 167.5 229.3 167.95 232.6 L159.5 232.5 Q148.25 232.5 136.2 233.1 134.75 226.9 132.7 203.0 L131.35 186.2 Q138.2 179.4 151.2 162.35 157.55 154.0 161.6 147.65 L167.1 146.65 172.55 145.65 M41.7 152.5 Q40.6 156.9 39.7 162.15 36.1 183.0 34.5 188.25 L31.7 212.85 Q30.5 223.15 29.95 230.4 L27.8 217.35 Q23.85 196.2 23.5 185.25 L23.9 148.35 Q32.65 150.8 41.7 152.5 M232.7 140.05 L234.35 163.6 Q234.35 175.35 229.35 197.95 225.6 214.75 224.7 223.9 220.15 184.1 218.75 170.25 218.05 163.15 218.35 139.8 L218.4 137.25 224.1 136.75 Q225.5 136.75 232.7 140.05 M261.5 167.0 L262.6 167.0 Q269.15 171.65 270.05 173.05 270.5 173.85 270.5 179.0 L270.45 181.05 Q270.3 183.35 269.55 185.25 267.1 191.25 259.75 191.25 257.85 191.25 255.05 186.25 252.5 181.75 252.5 180.25 253.1 176.8 254.5 173.55 257.35 167.0 261.5 167.0 M137.15 151.7 L133.95 155.9 131.0 160.05 131.6 152.55 137.15 151.7" fill="#4d3d00" fill-rule="evenodd" stroke="none"/>
      <path d="M471.2 132.55 Q467.4 140.45 461.8 143.7 L454.5 146.05 Q455.55 152.65 457.1 160.75 459.35 172.7 462.05 196.7 464.55 213.95 469.4 226.7 L453.85 226.75 447.4 227.75 447.4 223.3 Q447.55 212.55 444.85 207.5 442.35 211.0 442.35 223.75 L442.35 228.55 438.95 229.15 Q436.3 218.5 434.35 218.5 L431.9 218.7 Q431.35 219.0 431.35 220.75 431.35 223.75 433.3 230.15 L427.35 231.2 427.35 186.5 Q424.05 173.75 424.3 147.8 424.4 137.75 424.05 129.9 430.15 127.1 435.4 126.2 L435.9 126.1 436.05 126.1 437.15 125.95 437.65 125.9 440.1 125.75 446.4 128.55 452.6 130.6 Q452.85 134.55 453.6 139.75 457.3 138.05 459.9 137.0 463.75 135.1 465.1 133.65 465.85 132.85 466.15 131.85 L471.2 132.55 M367.6 151.55 Q370.2 166.15 375.95 187.2 L371.55 209.35 Q366.35 235.15 366.35 238.85 366.35 241.35 366.6 243.35 347.45 246.4 327.3 247.55 326.85 240.5 324.6 230.5 327.75 222.2 329.15 210.65 330.5 194.2 331.35 186.5 331.8 182.8 336.25 160.25 L337.25 155.15 Q353.35 154.3 367.6 151.55 M309.4 155.35 L309.35 159.0 Q309.35 163.95 310.95 180.7 312.7 199.35 314.1 204.0 315.65 209.0 319.9 231.5 322.25 243.85 323.7 247.75 L307.25 248.25 304.3 248.25 302.6 248.25 293.35 247.4 293.35 240.5 Q288.5 203.6 285.85 187.25 284.75 180.2 283.4 160.15 L282.9 153.95 309.4 155.35 M213.2 138.0 L213.5 141.6 Q213.5 150.1 213.8 160.85 214.3 180.15 215.5 190.0 216.5 198.45 217.65 215.05 218.9 227.5 221.9 236.0 L221.25 236.2 175.0 232.75 172.4 232.7 Q172.2 223.45 172.3 218.55 172.4 208.1 174.25 201.25 178.5 185.4 178.5 164.85 178.5 148.1 178.2 145.35 L178.1 144.6 202.7 139.85 213.2 138.0 M84.95 156.5 Q83.05 177.25 82.0 181.75 70.05 232.1 69.55 239.65 L49.3 242.75 31.45 245.9 31.35 243.55 32.0 243.5 Q36.2 233.7 37.4 218.45 39.2 194.75 39.5 192.75 45.2 166.85 47.65 153.55 65.75 156.4 84.95 156.5" fill="#665100" fill-rule="evenodd" stroke="none"/>
      <path d="M447.4 227.75 L447.6 233.65 Q447.8 237.55 448.35 239.5 L447.85 240.8 Q447.4 241.5 445.85 241.5 443.15 241.5 442.45 234.1 L442.3 232.75 442.35 228.55 442.35 223.75 Q442.35 211.0 444.85 207.5 447.55 212.55 447.4 223.3 L447.4 227.75 M251.8 240.4 L251.0 245.55 Q249.35 256.15 249.35 257.25 L246.85 258.5 Q245.0 257.35 244.55 255.4 244.35 254.6 244.35 252.0 244.35 249.75 245.15 244.6 L246.0 239.5 247.25 232.6 Q250.45 215.9 252.85 212.5 L254.55 213.15 Q255.35 213.65 255.35 215.25 255.35 217.95 252.35 236.85 L251.8 240.4 M434.85 234.9 L434.65 234.25 433.3 230.15 Q431.35 223.75 431.35 220.75 431.35 219.0 431.9 218.7 L434.35 218.5 Q436.3 218.5 438.95 229.15 L440.2 234.35 441.35 240.0 441.1 243.75 438.85 244.5 Q437.7 243.25 434.85 234.9 M432.85 362.5 Q430.25 359.4 429.6 354.9 429.35 353.1 429.35 347.0 429.35 339.1 431.85 337.5 434.55 340.05 434.4 346.55 434.25 353.9 435.35 356.0 L435.35 361.25 432.85 362.5 M424.35 361.25 Q424.35 362.5 421.85 362.5 418.9 362.5 418.3 356.75 L418.35 350.75 Q418.35 342.5 420.85 340.5 424.0 344.7 424.45 350.15 424.7 353.45 424.35 361.25 M233.35 237.7 Q233.35 235.95 233.65 235.7 L235.85 235.5 Q238.35 235.5 239.2 238.5 239.75 240.45 239.6 243.75 L239.35 246.5 239.1 254.75 236.85 255.5 Q234.35 253.05 233.65 247.4 233.45 245.95 233.4 242.9 L233.35 237.75 233.35 237.7 M25.6 308.55 L25.5 302.6 Q25.2 299.85 25.4 297.85 25.7 294.0 28.0 292.5 30.85 296.7 31.05 303.4 L31.25 314.75 Q31.65 318.3 34.2 326.5 36.5 334.0 36.5 336.5 L36.25 338.75 Q36.5 339.5 34.0 339.5 28.6 339.5 26.5 321.2 25.85 315.45 25.6 308.55 M11.8 314.85 Q12.15 314.5 14.0 314.5 15.35 314.5 21.55 325.65 27.5 336.4 27.5 337.1 L27.25 339.75 Q27.5 340.5 25.0 340.5 21.75 340.5 11.5 317.1 11.5 315.2 11.8 314.85 M236.25 366.5 L236.35 375.5 236.1 377.75 Q236.35 378.5 233.85 378.5 229.3 378.5 228.4 372.4 L228.35 366.0 Q228.35 360.1 230.85 358.5 235.35 361.3 236.25 366.5 M240.8 376.2 Q240.35 374.25 240.35 373.25 240.35 368.2 245.6 353.8 250.9 339.3 253.85 336.5 L255.55 336.95 Q256.35 337.3 256.35 338.85 256.35 342.3 250.9 358.05 245.3 374.0 245.1 379.75 L242.85 380.5 Q241.55 379.25 240.8 376.2" fill="#12a001" fill-rule="evenodd" stroke="none"/>
      <path d="M447.6 233.65 L449.4 233.5 471.25 232.3 471.75 232.3 472.85 232.25 Q486.1 231.75 501.0 231.75 L502.15 231.75 502.7 231.75 503.25 231.75 504.85 231.75 507.4 231.75 510.25 231.75 511.15 231.75 548.2 232.35 549.55 232.4 550.75 232.45 550.75 232.5 Q552.6 239.85 552.65 250.9 L552.35 273.5 Q552.75 287.75 552.35 317.25 L552.15 397.45 553.55 397.8 Q554.35 398.2 554.35 399.75 554.35 401.35 553.5 401.9 L552.1 402.3 552.1 404.6 549.85 405.35 Q549.35 403.95 549.0 402.35 L307.95 402.35 307.95 402.0 16.0 402.0 16.0 402.35 2.0 402.35 0.3 401.25 0.0 401.35 Q-2.75 394.7 -2.8 383.25 -2.3 370.55 -2.5 365.0 L-2.5 328.85 Q-2.85 304.25 -2.5 292.25 L-2.8 273.75 Q-2.75 265.15 -1.2 259.8 L2.5 258.85 8.05 257.5 10.55 256.85 11.15 256.7 16.0 255.55 16.55 255.4 69.45 244.15 73.65 243.45 73.7 243.45 Q110.45 237.75 159.1 237.75 L169.55 237.85 171.35 237.9 172.1 237.95 222.6 241.55 233.4 242.9 Q233.45 245.95 233.65 247.4 234.35 253.05 236.85 255.5 L239.1 254.75 239.35 246.5 239.6 243.75 245.15 244.6 Q244.35 249.75 244.35 252.0 244.35 254.6 244.55 255.4 245.0 257.35 246.85 258.5 L249.35 257.25 Q249.35 256.15 251.0 245.55 L251.8 245.65 286.2 251.05 Q305.2 253.5 322.85 253.5 344.6 253.5 362.2 250.1 L368.25 248.7 371.2 248.0 392.5 242.65 Q412.4 237.55 432.45 235.15 L434.85 234.9 Q437.7 243.25 438.85 244.5 L441.1 243.75 441.35 240.0 440.2 234.35 442.45 234.1 Q443.15 241.5 445.85 241.5 447.4 241.5 447.85 240.8 L448.35 239.5 Q447.8 237.55 447.6 233.65 M424.35 361.25 Q424.7 353.45 424.45 350.15 424.0 344.7 420.85 340.5 418.35 342.5 418.35 350.75 L418.3 356.75 Q418.9 362.5 421.85 362.5 424.35 362.5 424.35 361.25 M432.85 362.5 L435.35 361.25 435.35 356.0 Q434.25 353.9 434.4 346.55 434.55 340.05 431.85 337.5 429.35 339.1 429.35 347.0 429.35 353.1 429.6 354.9 430.25 359.4 432.85 362.5 M11.8 314.85 Q11.5 315.2 11.5 317.1 21.75 340.5 25.0 340.5 27.5 340.5 27.25 339.75 L27.5 337.1 Q27.5 336.4 21.55 325.65 15.35 314.5 14.0 314.5 12.15 314.5 11.8 314.85 M25.6 308.55 Q25.85 315.45 26.5 321.2 28.6 339.5 34.0 339.5 36.5 339.5 36.25 338.75 L36.5 336.5 Q36.5 334.0 34.2 326.5 31.65 318.3 31.25 314.75 L31.05 303.4 Q30.85 296.7 28.0 292.5 25.7 294.0 25.4 297.85 25.2 299.85 25.5 302.6 L25.6 308.55 M240.8 376.2 Q241.55 379.25 242.85 380.5 L245.1 379.75 Q245.3 374.0 250.9 358.05 256.35 342.3 256.35 338.85 256.35 337.3 255.55 336.95 L253.85 336.5 Q250.9 339.3 245.6 353.8 240.35 368.2 240.35 373.25 240.35 374.25 240.8 376.2 M236.25 366.5 Q235.35 361.3 230.85 358.5 228.35 360.1 228.35 366.0 L228.4 372.4 Q229.3 378.5 233.85 378.5 236.35 378.5 236.1 377.75 L236.35 375.5 236.25 366.5" fill="#0f8701" fill-rule="evenodd" stroke="none"/>
    </g>
    <g id="sprite0" transform="matrix(1, 0, 0, 1, 154.65, 650.2)">
      <use height="662.4" transform="matrix(1.0, 0.0, 0.0, 1.0, -154.65, -650.2)" width="287.45" xlink:href="#shape2"/>
    </g>
    <g id="shape2" transform="matrix(1, 0, 0, 1, 154.65, 650.2)">
      <path d="M35.05 -644.6 Q62.0 -640.0 68.15 -639.45 70.6 -639.25 94.1 -639.65 98.85 -639.25 99.55 -636.2 99.9 -634.75 99.25 -633.05 98.8 -627.8 93.3 -616.7 L87.9 -606.25 Q87.75 -605.05 96.35 -596.15 106.75 -585.3 111.9 -576.65 118.05 -566.15 121.3 -549.5 125.55 -527.6 126.4 -496.4 126.65 -486.9 130.75 -443.85 133.9 -410.8 132.2 -390.95 L131.7 -385.35 Q130.75 -381.15 127.6 -381.45 127.1 -381.5 125.3 -383.3 L121.3 -387.25 Q114.95 -393.05 109.6 -393.55 107.4 -393.75 105.95 -390.35 105.4 -389.0 103.7 -382.75 102.25 -377.6 100.85 -375.25 98.6 -371.95 95.2 -372.25 93.7 -372.4 85.95 -376.9 L78.2 -381.5 Q77.6 -381.55 76.5 -380.6 L74.05 -378.45 Q71.1 -376.2 67.45 -375.9 66.15 -373.25 63.35 -369.7 57.5 -362.25 52.35 -362.25 50.5 -362.25 45.4 -368.75 39.4 -376.4 37.6 -377.75 35.2 -374.9 32.1 -368.85 L26.9 -358.1 Q20.4 -345.25 14.85 -345.25 13.9 -345.25 8.05 -352.1 2.15 -359.0 0.6 -359.0 -2.6 -359.0 -7.85 -352.1 -13.1 -345.25 -15.15 -345.25 -16.5 -345.25 -27.25 -353.2 -38.75 -361.75 -41.15 -362.75 -41.7 -357.35 -44.55 -351.6 -48.25 -344.25 -53.15 -344.25 -55.85 -344.25 -61.55 -351.65 L-64.85 -356.1 Q-66.1 -353.45 -68.3 -349.7 -73.5 -340.9 -75.55 -341.05 -83.4 -341.75 -92.3 -354.3 -95.25 -358.45 -98.8 -364.5 L-103.4 -372.6 Q-123.25 -353.3 -123.65 -353.3 -124.8 -361.9 -127.7 -376.2 -133.6 -405.4 -144.4 -433.9 -154.15 -459.35 -154.6 -475.65 -154.8 -482.15 -153.7 -492.05 -152.25 -504.4 -151.55 -512.4 -150.2 -538.35 -148.65 -547.25 -146.7 -558.45 -135.0 -589.55 -131.8 -598.05 -124.15 -608.2 -116.45 -618.4 -107.2 -626.2 -105.9 -627.35 -97.35 -631.2 -87.45 -635.7 -76.6 -639.6 -45.45 -650.9 -29.45 -649.5 -24.6 -649.1 -21.95 -648.2 -21.25 -648.95 -19.6 -649.4 -13.4 -651.1 8.15 -649.2 L35.05 -644.6 M67.8 -631.45 Q12.05 -639.35 -12.6 -641.5 -17.65 -641.95 -20.2 -642.75 -21.25 -642.0 -23.15 -641.5 L-33.45 -640.3 Q-53.35 -638.7 -65.65 -634.1 L-84.3 -627.4 Q-99.35 -622.0 -101.45 -620.45 -120.45 -607.1 -128.6 -585.2 -139.65 -555.9 -141.5 -544.7 -142.9 -536.15 -144.1 -511.75 -146.2 -487.7 -144.4 -469.95 -142.95 -455.85 -138.15 -440.35 -135.45 -431.2 -128.6 -411.05 -122.45 -391.2 -118.65 -370.2 L-111.45 -375.85 Q-104.1 -381.2 -101.15 -380.95 -99.6 -380.8 -89.85 -367.45 -79.35 -353.0 -76.7 -350.95 L-72.95 -359.5 Q-69.75 -366.15 -66.35 -365.85 -63.95 -365.65 -63.25 -363.75 L-63.0 -363.75 Q-60.45 -363.75 -57.15 -359.6 L-53.4 -354.5 Q-51.7 -359.55 -50.05 -363.35 -46.85 -370.75 -41.65 -370.75 -35.95 -370.75 -26.85 -364.1 L-16.15 -355.25 Q-14.85 -355.9 -13.25 -357.95 L-10.4 -361.8 Q-6.4 -366.75 -1.65 -366.75 7.6 -366.75 14.6 -355.75 15.85 -357.15 18.55 -362.4 L23.8 -372.5 Q31.0 -385.75 35.85 -385.75 43.65 -385.75 48.8 -379.7 L52.1 -375.1 Q53.65 -372.55 54.35 -372.0 56.4 -373.0 58.7 -378.75 60.7 -383.75 64.35 -383.75 L65.9 -383.6 69.25 -385.3 Q77.5 -389.35 78.15 -389.3 81.35 -389.0 86.4 -385.4 91.8 -381.6 94.45 -381.05 96.3 -387.7 98.45 -392.6 102.6 -402.2 108.3 -401.7 115.5 -401.05 120.35 -397.85 L124.75 -394.45 Q124.85 -393.2 125.1 -395.7 125.45 -399.9 122.45 -442.15 119.55 -482.3 117.9 -499.4 L115.8 -525.0 Q114.4 -539.95 111.2 -551.9 105.45 -573.45 92.1 -590.9 L83.7 -600.9 Q80.2 -604.8 80.3 -605.75 80.95 -613.05 83.0 -616.35 87.7 -623.95 90.5 -630.45 L90.35 -631.45 Q87.85 -631.3 78.75 -631.25 69.6 -631.3 67.8 -631.45 M87.85 -532.15 Q86.45 -534.9 84.45 -541.3 80.5 -553.95 78.75 -556.5 73.45 -564.1 67.1 -570.4 68.0 -564.95 68.6 -558.1 70.1 -541.6 69.75 -525.1 69.1 -501.95 64.0 -502.35 61.4 -502.6 47.2 -519.7 35.05 -534.3 26.7 -546.0 L26.45 -546.05 24.6 -522.95 Q22.45 -507.0 17.3 -507.45 15.5 -507.65 5.9 -531.55 -5.15 -559.05 -9.9 -566.55 -11.65 -546.35 -21.5 -525.4 -39.8 -486.4 -45.7 -486.9 -48.75 -487.2 -49.2 -489.35 L-49.05 -491.85 Q-44.35 -510.9 -44.0 -514.75 -43.0 -526.45 -44.85 -544.8 -47.25 -565.4 -47.95 -575.65 -58.35 -554.3 -88.65 -516.65 L-89.45 -515.65 Q-85.55 -513.0 -84.8 -501.8 -84.3 -494.75 -85.0 -487.6 -86.35 -472.35 -92.05 -459.05 -95.05 -452.05 -96.05 -448.75 -97.75 -443.25 -98.5 -436.65 L-96.75 -436.7 Q-93.15 -436.4 -89.35 -429.05 L-81.7 -412.95 Q-69.3 -389.45 -48.15 -387.55 -18.0 -384.95 13.6 -394.55 23.05 -397.45 36.05 -402.6 49.1 -407.8 52.5 -408.85 99.2 -435.1 99.65 -440.05 100.35 -448.2 97.7 -455.1 L91.65 -467.6 Q87.55 -475.95 86.0 -484.65 83.8 -496.8 85.25 -513.55 L86.45 -526.25 Q87.0 -529.85 87.85 -532.15 M-36.75 -511.2 Q-26.85 -535.4 -22.75 -547.6 -15.6 -568.7 -15.55 -584.85 L-14.4 -585.35 Q-13.4 -585.9 -11.95 -585.75 -6.15 -585.25 16.95 -526.55 17.5 -539.85 18.25 -547.25 19.6 -560.95 24.45 -560.5 25.5 -560.45 60.95 -516.2 L61.45 -516.15 63.85 -543.75 Q56.05 -571.4 53.3 -581.95 52.2 -582.85 52.25 -583.15 52.3 -583.95 52.6 -584.6 L51.7 -588.45 Q52.05 -592.2 56.3 -591.8 60.2 -591.5 63.0 -585.5 76.1 -580.95 85.6 -560.25 91.3 -547.75 93.7 -535.25 L93.5 -533.95 Q94.3 -529.55 93.5 -517.7 91.85 -494.3 92.6 -488.55 93.65 -481.15 101.45 -463.25 108.1 -447.85 107.35 -439.15 106.95 -434.65 93.3 -424.25 78.45 -412.95 58.05 -402.8 33.75 -390.75 9.55 -384.55 -19.25 -377.25 -44.1 -379.45 -66.0 -381.4 -85.65 -405.6 -92.55 -414.15 -97.35 -423.25 L-97.85 -424.15 -98.2 -424.9 -98.15 -424.0 Q-97.3 -416.3 -97.5 -413.85 -97.95 -409.25 -101.65 -409.55 -106.4 -410.0 -106.75 -422.55 L-106.15 -435.3 Q-104.95 -449.35 -99.35 -461.75 -93.75 -474.3 -92.5 -488.25 -91.95 -494.5 -94.15 -503.8 L-95.25 -508.55 -108.6 -492.85 Q-117.0 -483.15 -117.25 -483.15 -122.9 -483.65 -121.9 -507.4 -121.65 -514.8 -120.7 -523.75 L-119.8 -531.3 Q-117.35 -559.7 -107.6 -582.45 L-107.75 -581.3 Q-110.6 -554.75 -112.35 -532.45 L-114.7 -500.75 Q-109.95 -509.0 -93.45 -525.65 -75.7 -543.75 -70.4 -551.25 -61.4 -564.2 -52.0 -585.5 L-46.6 -597.85 Q-44.4 -602.65 -43.6 -602.6 -41.1 -602.35 -38.1 -567.7 -35.05 -531.55 -36.8 -511.2 L-36.85 -510.95 -36.75 -511.2" fill="#000000" fill-rule="evenodd" stroke="none"/>
      <path d="M87.85 -532.15 Q87.0 -529.85 86.45 -526.25 L85.25 -513.55 Q83.8 -496.8 86.0 -484.65 87.55 -475.95 91.65 -467.6 L97.7 -455.1 Q100.35 -448.2 99.65 -440.05 99.2 -435.1 52.5 -408.85 49.1 -407.8 36.05 -402.6 23.05 -397.45 13.6 -394.55 -18.0 -384.95 -48.15 -387.55 -69.3 -389.45 -81.7 -412.95 L-89.35 -429.05 Q-93.15 -436.4 -96.75 -436.7 L-98.5 -436.65 Q-97.75 -443.25 -96.05 -448.75 -95.05 -452.05 -92.05 -459.05 -86.35 -472.35 -85.0 -487.6 -84.3 -494.75 -84.8 -501.8 -85.55 -513.0 -89.45 -515.65 L-88.65 -516.65 Q-58.35 -554.3 -47.95 -575.65 -47.25 -565.4 -44.85 -544.8 -43.0 -526.45 -44.0 -514.75 -44.35 -510.9 -49.05 -491.85 L-49.2 -489.35 Q-48.75 -487.2 -45.7 -486.9 -39.8 -486.4 -21.5 -525.4 -11.65 -546.35 -9.9 -566.55 -5.15 -559.05 5.9 -531.55 15.5 -507.65 17.3 -507.45 22.45 -507.0 24.6 -522.95 L26.45 -546.05 26.7 -546.0 Q35.05 -534.3 47.2 -519.7 61.4 -502.6 64.0 -502.35 69.1 -501.95 69.75 -525.1 70.1 -541.6 68.6 -558.1 68.0 -564.95 67.1 -570.4 73.45 -564.1 78.75 -556.5 80.5 -553.95 84.45 -541.3 86.45 -534.9 87.85 -532.15" fill="#fff1dd" fill-rule="evenodd" stroke="none"/>
      <path d="M67.8 -631.45 Q69.6 -631.3 78.75 -631.25 87.85 -631.3 90.35 -631.45 L90.5 -630.45 Q87.7 -623.95 83.0 -616.35 80.95 -613.05 80.3 -605.75 80.2 -604.8 83.7 -600.9 L92.1 -590.9 Q105.45 -573.45 111.2 -551.9 114.4 -539.95 115.8 -525.0 L117.9 -499.4 Q119.55 -482.3 122.45 -442.15 125.45 -399.9 125.1 -395.7 124.85 -393.2 124.75 -394.45 L120.35 -397.85 Q115.5 -401.05 108.3 -401.7 102.6 -402.2 98.45 -392.6 96.3 -387.7 94.45 -381.05 91.8 -381.6 86.4 -385.4 81.35 -389.0 78.15 -389.3 77.5 -389.35 69.25 -385.3 L65.9 -383.6 64.35 -383.75 Q60.7 -383.75 58.7 -378.75 56.4 -373.0 54.35 -372.0 53.65 -372.55 52.1 -375.1 L48.8 -379.7 Q43.65 -385.75 35.85 -385.75 31.0 -385.75 23.8 -372.5 L18.55 -362.4 Q15.85 -357.15 14.6 -355.75 7.6 -366.75 -1.65 -366.75 -6.4 -366.75 -10.4 -361.8 L-13.25 -357.95 Q-14.85 -355.9 -16.15 -355.25 L-26.85 -364.1 Q-35.95 -370.75 -41.65 -370.75 -46.85 -370.75 -50.05 -363.35 -51.7 -359.55 -53.4 -354.5 L-57.15 -359.6 Q-60.45 -363.75 -63.0 -363.75 L-63.25 -363.75 Q-63.95 -365.65 -66.35 -365.85 -69.75 -366.15 -72.95 -359.5 L-76.7 -350.95 Q-79.35 -353.0 -89.85 -367.45 -99.6 -380.8 -101.15 -380.95 -104.1 -381.2 -111.45 -375.85 L-118.65 -370.2 Q-122.45 -391.2 -128.6 -411.05 -135.45 -431.2 -138.15 -440.35 -142.95 -455.85 -144.4 -469.95 -146.2 -487.7 -144.1 -511.75 -142.9 -536.15 -141.5 -544.7 -139.65 -555.9 -128.6 -585.2 -120.45 -607.1 -101.45 -620.45 -99.35 -622.0 -84.3 -627.4 L-65.65 -634.1 Q-53.35 -638.7 -33.45 -640.3 L-23.15 -641.5 Q-21.25 -642.0 -20.2 -642.75 -17.65 -641.95 -12.6 -641.5 12.05 -639.35 67.8 -631.45 M-97.85 -424.15 L-97.35 -423.25 Q-92.55 -414.15 -85.65 -405.6 -66.0 -381.4 -44.1 -379.45 -19.25 -377.25 9.55 -384.55 33.75 -390.75 58.05 -402.8 78.45 -412.95 93.3 -424.25 106.95 -434.65 107.35 -439.15 108.1 -447.85 101.45 -463.25 93.65 -481.15 92.6 -488.55 91.85 -494.3 93.5 -517.7 94.3 -529.55 93.5 -533.95 L93.7 -535.25 Q91.3 -547.75 85.6 -560.25 76.1 -580.95 63.0 -585.5 60.2 -591.5 56.3 -591.8 52.05 -592.2 51.7 -588.45 L52.6 -584.6 Q52.3 -583.95 52.25 -583.15 52.2 -582.85 53.3 -581.95 56.05 -571.4 63.85 -543.75 L61.45 -516.15 60.95 -516.2 Q25.5 -560.45 24.45 -560.5 19.6 -560.95 18.25 -547.25 17.5 -539.85 16.95 -526.55 -6.15 -585.25 -11.95 -585.75 -13.4 -585.9 -14.4 -585.35 L-15.55 -584.85 Q-15.6 -568.7 -22.75 -547.6 -26.85 -535.4 -36.75 -511.2 L-36.8 -511.2 Q-35.05 -531.55 -38.1 -567.7 -41.1 -602.35 -43.6 -602.6 -44.4 -602.65 -46.6 -597.85 L-52.0 -585.5 Q-61.4 -564.2 -70.4 -551.25 -75.7 -543.75 -93.45 -525.65 -109.95 -509.0 -114.7 -500.75 L-112.35 -532.45 Q-110.6 -554.75 -107.75 -581.3 L-107.6 -582.45 Q-117.35 -559.7 -119.8 -531.3 L-120.7 -523.75 Q-121.65 -514.8 -121.9 -507.4 -122.9 -483.65 -117.25 -483.15 -117.0 -483.15 -108.6 -492.85 L-95.25 -508.55 -94.15 -503.8 Q-91.95 -494.5 -92.5 -488.25 -93.75 -474.3 -99.35 -461.75 -104.95 -449.35 -106.15 -435.3 L-106.75 -422.55 Q-106.4 -410.0 -101.65 -409.55 -97.95 -409.25 -97.5 -413.85 -97.3 -416.3 -98.15 -424.0 L-97.85 -424.15" fill="#ffff80" fill-rule="evenodd" stroke="none"/>
      <path d="M-48.2 -385.2 L-9.6 -385.2 -9.6 -386.0 -6.1 -386.0 Q-5.8 -385.3 -5.8 -384.3 L-5.8 -383.8 Q-3.4 -380.4 0.7 -371.1 L10.4 -349.4 20.45 -331.95 Q29.4 -315.9 29.4 -312.8 29.4 -311.85 25.2 -307.65 20.75 -303.15 15.05 -298.6 L9.65 -294.5 17.3 -272.8 Q26.55 -245.8 31.2 -230.4 33.5 -222.8 42.65 -198.0 L45.05 -191.4 48.2 -182.8 46.5 -180.95 Q49.1 -174.7 54.15 -160.3 65.15 -129.0 68.8 -120.6 75.0 -106.15 84.2 -82.7 94.2 -57.2 94.2 -55.2 94.2 -51.9 91.35 -51.8 88.75 -49.75 82.85 -47.05 84.5 -42.9 83.8 -30.0 L84.2 -24.75 Q84.45 -19.85 83.8 -16.15 81.7 -4.6 70.8 -4.6 57.95 -4.6 51.4 -17.9 49.35 -22.05 48.15 -27.1 L47.4 -31.4 47.45 -33.4 47.4 -33.4 Q40.8 -30.15 26.85 -27.3 9.5 -23.8 -8.0 -23.8 -21.55 -23.8 -43.9 -26.8 L-47.45 -27.3 Q-46.9 -24.7 -47.4 -20.0 -47.4 -10.85 -51.15 -2.6 -57.9 12.2 -74.0 12.2 -85.15 12.2 -89.55 -6.05 -90.95 -11.75 -91.5 -18.65 L-91.8 -24.5 Q-92.0 -28.75 -91.75 -32.6 -91.5 -36.75 -90.6 -38.6 -111.0 -46.45 -111.0 -49.4 L-110.65 -50.55 -110.95 -51.3 -111.0 -53.4 Q-111.0 -55.85 -106.0 -81.45 -100.3 -110.65 -99.6 -115.2 -97.3 -137.35 -95.6 -150.6 -94.0 -163.4 -92.2 -169.6 L-94.3 -170.55 -92.95 -177.0 -92.85 -177.55 Q-86.4 -208.95 -85.4 -220.4 -82.25 -248.85 -79.95 -264.4 -77.05 -283.8 -74.05 -290.05 -79.3 -292.55 -83.25 -296.0 -87.95 -300.05 -90.3 -305.0 -91.75 -308.05 -91.75 -309.5 -91.75 -310.45 -62.6 -385.55 L-62.85 -386.0 -52.0 -386.0 -52.0 -385.2 -49.8 -385.2 -48.2 -385.2 M21.05 -317.45 L19.05 -321.05 Q12.6 -332.55 6.2 -344.55 -10.35 -375.45 -10.95 -381.55 L-20.6 -381.4 -23.45 -381.4 -27.7 -381.4 Q-25.2 -373.7 -20.7 -349.65 -14.2 -314.6 -12.2 -292.4 0.0 -294.2 4.8 -297.55 7.45 -299.4 10.2 -302.8 L17.8 -307.95 Q23.4 -311.95 23.4 -313.3 L21.05 -317.45 M26.2 -226.2 Q6.05 -280.5 5.05 -291.45 -3.45 -286.2 -8.8 -286.2 -15.15 -286.2 -17.55 -289.05 -19.55 -291.45 -19.85 -297.7 -19.95 -306.4 -20.2 -312.25 -20.7 -323.0 -23.0 -332.8 -32.6 -373.0 -32.6 -379.6 L-32.6 -381.4 -38.4 -381.5 -38.95 -381.55 -38.4 -379.35 Q-37.4 -374.75 -36.7 -366.1 -35.85 -355.95 -34.65 -337.0 -34.3 -333.75 -29.75 -312.45 -25.4 -292.1 -25.4 -289.75 L-25.15 -288.15 Q-25.0 -286.9 -25.6 -286.0 -27.55 -283.25 -36.65 -283.25 L-38.4 -283.25 Q-56.05 -283.45 -68.25 -287.65 -69.0 -278.8 -79.4 -215.2 L-83.35 -189.3 -80.6 -188.1 Q-75.65 -185.45 -72.7 -184.4 -57.6 -179.0 -22.1 -179.0 3.95 -179.0 20.55 -190.0 L30.35 -197.55 30.95 -198.0 Q32.85 -199.5 34.4 -200.2 30.65 -211.6 26.2 -226.2 M25.5 -166.3 L29.55 -158.45 Q36.55 -146.05 44.6 -137.4 53.9 -127.35 57.45 -120.95 61.4 -113.85 61.4 -105.9 L61.4 -100.8 Q61.6 -100.25 61.4 -99.5 L60.95 -98.75 Q60.2 -96.6 58.4 -96.6 58.1 -96.6 57.8 -97.1 52.95 -95.25 41.6 -92.6 39.35 -92.6 37.7 -95.7 36.75 -97.5 34.7 -103.65 29.8 -118.45 23.2 -126.6 10.2 -141.5 4.1 -150.2 4.55 -144.6 4.6 -136.75 4.75 -123.05 3.8 -109.2 L3.8 -95.4 Q3.8 -93.3 6.2 -82.5 6.2 -80.4 5.8 -79.8 4.75 -78.2 0.8 -78.2 -3.3 -78.2 -7.7 -79.15 L-13.2 -80.4 -30.0 -82.6 Q-31.8 -82.8 -32.25 -83.1 -32.6 -83.35 -32.6 -84.2 -29.2 -90.0 -25.8 -96.95 -19.0 -110.85 -19.0 -117.5 -19.0 -120.8 -20.6 -128.0 -22.2 -135.2 -22.2 -138.8 -22.2 -145.2 -21.55 -150.8 -21.05 -154.85 -20.3 -157.4 L-22.4 -157.4 Q-50.4 -157.4 -70.55 -161.6 -76.55 -162.85 -86.15 -166.9 -98.65 -66.65 -105.7 -51.9 -102.9 -51.25 -97.9 -48.75 -87.6 -43.55 -81.3 -41.1 -52.4 -30.0 -8.2 -30.0 25.9 -30.0 60.75 -43.9 71.05 -48.0 81.5 -53.45 L86.9 -56.25 Q83.3 -62.45 78.0 -77.35 L70.55 -98.9 Q66.25 -111.35 63.8 -117.0 59.2 -127.9 51.3 -149.3 44.35 -168.1 42.1 -176.3 L39.9 -174.2 Q34.6 -170.3 26.45 -166.8 L25.45 -166.35 25.5 -166.3 M21.6 -182.75 Q0.15 -172.6 -22.8 -172.6 -46.9 -172.6 -68.35 -177.2 -79.2 -179.5 -84.45 -181.9 L-85.15 -177.0 -85.7 -173.3 -85.6 -172.9 -70.3 -168.3 Q-53.35 -163.6 -46.2 -163.6 3.2 -164.2 5.8 -164.6 L8.2 -165.8 14.0 -167.6 Q18.95 -169.4 24.4 -173.0 L30.75 -177.0 32.95 -178.3 Q38.4 -181.55 40.55 -182.3 L37.0 -192.45 35.45 -191.15 Q30.1 -186.8 21.6 -182.75 M55.9 -102.7 L54.6 -106.9 Q50.35 -120.0 43.0 -130.0 34.65 -139.7 29.85 -145.85 21.0 -157.2 21.0 -163.6 L21.0 -164.65 Q13.7 -161.95 5.85 -160.25 L12.9 -151.05 Q25.2 -134.1 27.0 -132.0 42.95 -113.25 42.2 -99.6 L42.2 -99.0 42.3 -99.0 47.95 -100.8 Q52.95 -102.6 55.6 -102.6 L55.95 -102.6 55.9 -102.7 M77.9 -43.05 L78.1 -45.0 77.3 -44.65 73.55 -43.2 52.1 -35.35 52.65 -33.6 55.35 -24.4 Q60.15 -11.0 70.5 -11.0 75.35 -11.0 77.05 -16.95 78.3 -21.15 78.1 -30.0 L77.9 -43.05 M-47.5 -381.95 L-50.5 -382.2 -57.4 -383.25 Q-57.4 -372.15 -70.8 -339.75 -76.65 -325.75 -82.45 -313.25 L-84.25 -309.4 Q-84.25 -308.8 -83.85 -307.95 L-83.8 -307.95 -83.3 -307.0 -82.0 -305.2 -81.85 -305.05 Q-79.05 -301.6 -74.65 -298.7 -62.3 -290.55 -45.15 -291.25 L-32.9 -291.25 -38.4 -318.6 -40.1 -327.6 Q-44.9 -353.4 -44.9 -365.9 L-44.7 -381.8 -47.5 -381.95 M-15.0 -151.1 Q-16.2 -144.5 -16.2 -138.6 -16.2 -129.85 -14.6 -126.05 -13.0 -122.2 -13.0 -117.3 -13.0 -110.5 -16.35 -102.9 L-23.2 -87.8 -23.2 -87.6 -10.85 -86.05 -2.8 -84.4 Q-0.6 -83.2 -0.6 -85.2 L-1.4 -140.1 -3.6 -158.6 -13.9 -157.65 -15.0 -151.1 M-84.4 -17.2 Q-81.2 5.8 -74.0 5.8 -58.7 5.8 -54.75 -12.4 L-52.95 -24.9 -52.3 -28.0 Q-67.6 -30.35 -74.0 -32.6 L-87.15 -37.3 -86.35 -33.0 -84.4 -17.2" fill="#000000" fill-rule="evenodd" stroke="none"/>
      <path d="M-49.8 -385.2 Q-49.45 -385.95 -49.0 -385.95 -48.55 -385.95 -48.2 -385.2 L-49.8 -385.2 M21.05 -317.45 Q19.3 -316.2 15.8 -314.55 8.2 -311.3 7.0 -310.45 3.15 -307.9 -5.0 -300.7 -5.9 -300.7 -7.45 -308.55 -9.4 -318.35 -10.25 -320.75 -14.35 -331.95 -15.95 -341.0 L-20.45 -360.8 Q-23.45 -374.1 -23.45 -381.4 L-20.6 -381.4 -18.2 -369.9 Q-14.8 -352.1 -13.25 -346.25 L-7.85 -327.2 Q-4.4 -315.2 -2.95 -308.25 -0.45 -309.3 10.35 -315.9 L19.05 -321.05 21.05 -317.45 M26.45 -166.8 Q34.6 -170.3 39.9 -174.2 L42.1 -176.3 Q44.35 -168.1 51.3 -149.3 59.2 -127.9 63.8 -117.0 66.25 -111.35 70.55 -98.9 L78.0 -77.35 Q83.3 -62.45 86.9 -56.25 L81.5 -53.45 Q71.05 -48.0 60.75 -43.9 25.9 -30.0 -8.2 -30.0 -52.4 -30.0 -81.3 -41.1 -87.6 -43.55 -97.9 -48.75 -102.9 -51.25 -105.7 -51.9 -98.65 -66.65 -86.15 -166.9 -76.55 -162.85 -70.55 -161.6 -50.4 -157.4 -22.4 -157.4 L-20.3 -157.4 Q-21.05 -154.85 -21.55 -150.8 -22.2 -145.2 -22.2 -138.8 -22.2 -135.2 -20.6 -128.0 -19.0 -120.8 -19.0 -117.5 -19.0 -110.85 -25.8 -96.95 -29.2 -90.0 -32.6 -84.2 -32.6 -83.35 -32.25 -83.1 -31.8 -82.8 -30.0 -82.6 L-13.2 -80.4 -7.7 -79.15 Q-3.3 -78.2 0.8 -78.2 4.75 -78.2 5.8 -79.8 6.2 -80.4 6.2 -82.5 3.8 -93.3 3.8 -95.4 L3.8 -109.2 Q4.75 -123.05 4.6 -136.75 4.55 -144.6 4.1 -150.2 10.2 -141.5 23.2 -126.6 29.8 -118.45 34.7 -103.65 36.75 -97.5 37.7 -95.7 39.35 -92.6 41.6 -92.6 52.95 -95.25 57.8 -97.1 58.1 -96.6 58.4 -96.6 60.2 -96.6 60.95 -98.75 L61.4 -99.5 Q61.6 -100.25 61.4 -100.8 L61.4 -105.9 Q61.4 -113.85 57.45 -120.95 53.9 -127.35 44.6 -137.4 36.55 -146.05 29.55 -158.45 L25.5 -166.3 26.45 -166.8 M26.2 -226.2 Q30.65 -211.6 34.4 -200.2 32.85 -199.5 30.95 -198.0 L30.35 -197.55 20.55 -190.0 Q3.95 -179.0 -22.1 -179.0 -57.6 -179.0 -72.7 -184.4 -75.65 -185.45 -80.6 -188.1 L-83.35 -189.3 -79.4 -215.2 Q-69.0 -278.8 -68.25 -287.65 -56.05 -283.45 -38.4 -283.25 L-36.65 -283.25 Q-27.55 -283.25 -25.6 -286.0 -25.0 -286.9 -25.15 -288.15 L-25.4 -289.75 Q-25.4 -292.1 -29.75 -312.45 -34.3 -333.75 -34.65 -337.0 -35.85 -355.95 -36.7 -366.1 -37.4 -374.75 -38.4 -379.35 L-38.95 -381.55 -38.4 -381.5 -32.6 -381.4 -32.6 -379.6 Q-32.6 -373.0 -23.0 -332.8 -20.7 -323.0 -20.2 -312.25 -19.95 -306.4 -19.85 -297.7 -19.55 -291.45 -17.55 -289.05 -15.15 -286.2 -8.8 -286.2 -3.45 -286.2 5.05 -291.45 6.05 -280.5 26.2 -226.2 M-50.5 -382.2 L-47.5 -381.95 Q-47.0 -378.0 -47.0 -370.0 L-46.95 -344.75 Q-46.2 -333.5 -46.2 -324.2 -46.2 -320.3 -43.2 -313.6 -40.2 -306.85 -40.2 -303.6 L-40.2 -300.95 Q-40.6 -299.2 -43.0 -299.2 -54.9 -299.2 -69.5 -302.7 -79.25 -305.0 -83.8 -307.95 L-83.85 -307.95 Q-84.25 -308.8 -84.25 -309.4 L-82.45 -313.25 -74.25 -307.95 Q-71.9 -306.7 -44.5 -303.45 L-44.0 -303.4 -43.95 -304.25 Q-43.95 -304.85 -46.7 -311.65 -49.45 -318.5 -49.5 -319.7 -49.95 -325.85 -49.95 -334.7 -50.95 -355.2 -50.95 -364.65 L-50.95 -375.5 -50.5 -382.2" fill="#88a0ff" fill-rule="evenodd" stroke="none"/>
      <path d="M42.2 -99.6 Q42.95 -113.25 27.0 -132.0 25.2 -134.1 12.9 -151.05 L5.85 -160.25 Q13.7 -161.95 21.0 -164.65 L21.0 -163.6 Q21.0 -157.2 29.85 -145.85 34.65 -139.7 43.0 -130.0 50.35 -120.0 54.6 -106.9 L55.9 -102.7 55.6 -102.6 Q52.95 -102.6 47.95 -100.8 L42.3 -99.0 42.2 -99.6 M21.6 -182.75 Q30.1 -186.8 35.45 -191.15 L37.0 -192.45 40.55 -182.3 Q38.4 -181.55 32.95 -178.3 L30.75 -177.0 24.4 -173.0 Q18.95 -169.4 14.0 -167.6 L8.2 -165.8 5.8 -164.6 Q3.2 -164.2 -46.2 -163.6 -53.35 -163.6 -70.3 -168.3 L-85.6 -172.9 -85.7 -173.3 -85.15 -177.0 -84.45 -181.9 Q-79.2 -179.5 -68.35 -177.2 -46.9 -172.6 -22.8 -172.6 0.15 -172.6 21.6 -182.75 M-15.0 -151.1 L-13.9 -157.65 -3.6 -158.6 -1.4 -140.1 -0.6 -85.2 Q-0.6 -83.2 -2.8 -84.4 L-10.85 -86.05 -23.2 -87.6 -23.2 -87.8 -16.35 -102.9 Q-13.0 -110.5 -13.0 -117.3 -13.0 -122.2 -14.6 -126.05 -16.2 -129.85 -16.2 -138.6 -16.2 -144.5 -15.0 -151.1" fill="#ff4444" fill-rule="evenodd" stroke="none"/>
      <path d="M-23.45 -381.4 Q-23.45 -374.1 -20.45 -360.8 L-15.95 -341.0 Q-14.35 -331.95 -10.25 -320.75 -9.4 -318.35 -7.45 -308.55 -5.9 -300.7 -5.0 -300.7 3.15 -307.9 7.0 -310.45 8.2 -311.3 15.8 -314.55 19.3 -316.2 21.05 -317.45 L23.4 -313.3 Q23.4 -311.95 17.8 -307.95 L10.2 -302.8 Q7.45 -299.4 4.8 -297.55 0.0 -294.2 -12.2 -292.4 -14.2 -314.6 -20.7 -349.65 -25.2 -373.7 -27.7 -381.4 L-23.45 -381.4 M19.05 -321.05 L10.35 -315.9 Q-0.45 -309.3 -2.95 -308.25 -4.4 -315.2 -7.85 -327.2 L-13.25 -346.25 Q-14.8 -352.1 -18.2 -369.9 L-20.6 -381.4 -10.95 -381.55 Q-10.35 -375.45 6.2 -344.55 12.6 -332.55 19.05 -321.05 M-50.5 -382.2 L-50.95 -375.5 -50.95 -364.65 Q-50.95 -355.2 -49.95 -334.7 -49.95 -325.85 -49.5 -319.7 -49.45 -318.5 -46.7 -311.65 -43.95 -304.85 -43.95 -304.25 L-44.0 -303.4 -44.5 -303.45 Q-71.9 -306.7 -74.25 -307.95 L-82.45 -313.25 Q-76.65 -325.75 -70.8 -339.75 -57.4 -372.15 -57.4 -383.25 L-50.5 -382.2 M-83.8 -307.95 Q-79.25 -305.0 -69.5 -302.7 -54.9 -299.2 -43.0 -299.2 -40.6 -299.2 -40.2 -300.95 L-40.2 -303.6 Q-40.2 -306.85 -43.2 -313.6 -46.2 -320.3 -46.2 -324.2 -46.2 -333.5 -46.95 -344.75 L-47.0 -370.0 Q-47.0 -378.0 -47.5 -381.95 L-44.7 -381.8 -44.9 -365.9 Q-44.9 -353.4 -40.1 -327.6 L-38.4 -318.6 -32.9 -291.25 -45.15 -291.25 Q-62.3 -290.55 -74.65 -298.7 -79.05 -301.6 -81.85 -305.05 L-82.0 -305.2 -83.3 -307.0 -83.8 -307.95" fill="#ffffff" fill-rule="evenodd" stroke="none"/>
      <path d="M77.3 -44.65 L77.9 -43.05 78.1 -30.0 Q78.3 -21.15 77.05 -16.95 75.35 -11.0 70.5 -11.0 60.15 -11.0 55.35 -24.4 L52.65 -33.6 52.1 -35.35 73.55 -43.2 77.3 -44.65 M-84.4 -17.2 L-86.35 -33.0 -87.15 -37.3 -74.0 -32.6 Q-67.6 -30.35 -52.3 -28.0 L-52.95 -24.9 -54.75 -12.4 Q-58.7 5.8 -74.0 5.8 -81.2 5.8 -84.4 -17.2" fill="#884400" fill-rule="evenodd" stroke="none"/>
      <path d="M-43.4 -382.0 L-43.25 -378.3 Q-43.0 -370.8 -37.0 -370.8 L-27.8 -371.0 Q-27.0 -374.4 -27.0 -376.4 -27.0 -378.25 -28.2 -380.65 L-28.85 -382.0 -20.95 -382.0 -20.95 -381.85 Q-20.5 -379.45 -21.0 -376.9 -21.0 -371.95 -21.8 -369.95 L-21.85 -369.8 Q-18.65 -366.05 -16.6 -353.6 L-14.45 -338.6 Q-13.25 -329.85 -12.2 -326.0 -11.05 -321.7 -8.85 -304.75 -6.6 -286.95 -6.6 -280.4 L-6.05 -277.1 Q-5.75 -274.45 -6.8 -272.6 -10.0 -267.0 -26.4 -267.0 -37.3 -267.0 -41.15 -269.55 -44.5 -271.75 -44.3 -277.3 L-42.8 -290.15 Q-41.95 -299.75 -43.8 -308.2 -45.75 -316.85 -46.1 -328.8 L-46.2 -349.3 -45.4 -360.95 -44.45 -367.55 Q-46.9 -369.1 -48.2 -371.45 -49.4 -373.6 -49.5 -376.2 L-49.4 -378.5 -49.35 -382.0 -43.4 -382.0 M-31.2 -364.6 Q-36.9 -364.6 -40.85 -365.85 -39.75 -356.85 -38.7 -334.95 -37.0 -300.55 -37.0 -273.4 L-15.8 -273.4 Q-13.35 -274.9 -12.75 -277.0 -12.6 -277.65 -12.6 -280.3 -12.6 -282.8 -14.55 -292.4 L-16.6 -302.8 -16.65 -313.55 Q-16.75 -319.95 -18.2 -324.4 -20.85 -332.4 -24.55 -350.2 L-27.4 -365.05 -31.2 -364.6" fill="#000000" fill-rule="evenodd" stroke="none"/>
      <path d="M-28.85 -382.0 L-28.2 -380.65 Q-27.0 -378.25 -27.0 -376.4 -27.0 -374.4 -27.8 -371.0 L-37.0 -370.8 Q-43.0 -370.8 -43.25 -378.3 L-43.4 -382.0 -28.85 -382.0 M-31.2 -364.6 L-27.4 -365.05 -24.55 -350.2 Q-20.85 -332.4 -18.2 -324.4 -16.75 -319.95 -16.65 -313.55 L-16.6 -302.8 -14.55 -292.4 Q-12.6 -282.8 -12.6 -280.3 -12.6 -277.65 -12.75 -277.0 -13.35 -274.9 -15.8 -273.4 L-37.0 -273.4 Q-37.0 -300.55 -38.7 -334.95 -39.75 -356.85 -40.85 -365.85 -36.9 -364.6 -31.2 -364.6" fill="#ff4444" fill-rule="evenodd" stroke="none"/>
      <path d="M26.65 -236.0 L26.2 -234.8 Q26.2 -234.1 25.05 -232.55 L31.0 -215.2 30.8 -213.55 Q34.35 -207.6 35.8 -188.15 36.85 -174.15 36.6 -160.0 36.6 -152.8 35.6 -149.8 33.15 -142.2 24.8 -142.2 L24.75 -142.2 Q22.65 -140.15 18.4 -138.8 6.4 -135.0 -31.6 -135.0 L-60.6 -133.75 Q-60.25 -134.75 -61.2 -136.6 L-62.0 -137.8 -62.2 -140.2 -62.2 -155.8 -62.05 -174.9 Q-61.7 -182.1 -59.8 -195.4 -61.35 -205.45 -60.5 -213.95 -59.8 -220.6 -57.4 -224.6 L-57.4 -227.1 Q-57.4 -230.85 -54.55 -234.0 -49.75 -239.4 -38.4 -239.4 L-31.0 -239.1 -21.6 -239.4 -13.65 -239.1 -7.2 -239.8 6.8 -240.2 Q22.45 -240.2 25.8 -237.8 26.9 -237.0 26.65 -236.0 M18.2 -234.0 Q-4.45 -232.95 -11.85 -233.55 -14.9 -233.4 -21.6 -233.4 L-31.75 -233.9 -35.45 -233.7 -34.25 -233.75 -21.65 -232.65 Q-15.85 -231.65 -15.85 -231.0 -15.85 -230.1 -17.4 -230.1 L-21.55 -230.7 Q-26.2 -231.35 -47.25 -231.35 L-49.25 -231.4 -49.75 -230.25 -46.4 -230.6 Q-32.55 -230.6 -31.0 -229.55 -30.6 -229.3 -30.6 -228.85 -30.3 -228.45 -28.4 -228.4 L-25.6 -228.25 Q-24.35 -229.0 -22.0 -229.0 L-17.85 -228.05 -17.5 -227.95 Q-4.0 -227.45 5.15 -227.3 L9.2 -228.2 9.55 -228.2 10.25 -229.35 -8.4 -229.6 -8.5 -229.95 Q-8.5 -230.5 -8.0 -230.85 L12.8 -231.2 Q14.55 -232.2 18.2 -234.0 M17.4 -223.6 Q17.6 -221.85 18.85 -218.0 19.85 -214.75 19.8 -212.8 19.6 -206.4 22.35 -192.05 L22.5 -191.5 22.5 -191.35 Q23.75 -184.6 25.45 -167.6 L26.85 -152.05 Q28.4 -153.6 29.3 -155.25 28.95 -166.55 28.1 -171.9 24.75 -189.25 24.75 -190.5 24.75 -192.75 25.75 -192.75 26.7 -192.75 29.75 -173.5 L30.25 -168.5 Q29.8 -180.25 29.8 -187.0 29.8 -189.05 27.0 -199.85 24.2 -210.7 24.2 -213.4 L24.4 -214.2 Q22.75 -216.75 21.65 -221.8 L20.8 -227.75 19.35 -226.35 Q20.15 -223.6 21.15 -217.95 L22.9 -206.85 Q22.9 -205.35 22.0 -205.35 21.2 -205.35 20.5 -209.85 L19.5 -216.75 17.6 -224.85 17.4 -224.7 17.4 -223.6 M10.65 -222.2 Q6.5 -220.6 -4.0 -220.6 L-9.0 -220.65 Q-7.0 -213.8 -6.2 -195.95 L-6.1 -194.35 2.4 -194.6 15.8 -194.05 Q14.0 -204.85 13.8 -209.2 13.55 -216.7 12.6 -218.8 L10.65 -222.2 M17.55 -184.05 L16.9 -187.8 16.4 -187.8 -5.9 -188.7 -5.75 -180.9 Q-1.75 -184.2 15.2 -184.2 L17.55 -184.05 M14.2 -177.8 Q7.4 -175.8 1.2 -175.8 L-5.7 -176.5 -5.8 -166.7 Q-5.2 -148.7 -6.3 -141.2 L-3.4 -141.2 15.1 -144.45 Q21.0 -146.15 21.0 -150.4 21.0 -162.05 18.35 -179.25 16.8 -178.55 14.2 -177.8 M-55.05 -202.85 L-55.5 -190.3 Q-49.6 -192.2 -35.6 -192.2 L-27.15 -191.75 -29.1 -205.6 -31.8 -222.95 -39.0 -223.6 -48.4 -224.2 Q-53.85 -224.2 -55.05 -202.85 M-15.0 -219.9 L-14.95 -221.05 -19.1 -221.6 Q-22.0 -221.3 -24.65 -221.55 -21.7 -213.6 -21.0 -190.6 L-19.4 -156.1 Q-18.85 -145.85 -19.8 -141.2 L-11.6 -141.2 Q-12.3 -145.3 -12.35 -152.6 -11.8 -172.35 -11.8 -178.2 -11.8 -184.95 -13.4 -199.3 -15.0 -213.7 -15.0 -219.9 M-26.65 -186.95 L-44.2 -185.8 Q-45.9 -185.75 -49.95 -184.75 -53.9 -183.8 -54.8 -183.8 L-55.6 -183.8 -55.85 -176.95 -53.2 -177.95 Q-44.35 -180.85 -26.2 -181.0 -26.25 -183.3 -26.65 -186.95 M-56.2 -170.2 L-56.2 -141.2 -25.25 -141.2 -26.05 -175.8 -49.8 -173.0 Q-55.1 -170.5 -56.2 -170.2" fill="#000000" fill-rule="evenodd" stroke="none"/>
      <path d="M10.65 -222.2 L12.6 -218.8 Q13.55 -216.7 13.8 -209.2 14.0 -204.85 15.8 -194.05 L2.4 -194.6 -6.1 -194.35 -6.2 -195.95 Q-7.0 -213.8 -9.0 -220.65 L-4.0 -220.6 Q6.5 -220.6 10.65 -222.2 M-55.05 -202.85 Q-53.85 -224.2 -48.4 -224.2 L-39.0 -223.6 -31.8 -222.95 -29.1 -205.6 -27.15 -191.75 -35.6 -192.2 Q-49.6 -192.2 -55.5 -190.3 L-55.05 -202.85 M14.2 -177.8 Q16.8 -178.55 18.35 -179.25 21.0 -162.05 21.0 -150.4 21.0 -146.15 15.1 -144.45 L-3.4 -141.2 -6.3 -141.2 Q-5.2 -148.7 -5.8 -166.7 L-5.7 -176.5 1.2 -175.8 Q7.4 -175.8 14.2 -177.8 M-56.2 -170.2 Q-55.1 -170.5 -49.8 -173.0 L-26.05 -175.8 -25.25 -141.2 -56.2 -141.2 -56.2 -170.2" fill="#996a00" fill-rule="evenodd" stroke="none"/>
      <path d="M17.55 -184.05 L15.2 -184.2 Q-1.75 -184.2 -5.75 -180.9 L-5.9 -188.7 16.4 -187.8 16.9 -187.8 17.55 -184.05 M-26.65 -186.95 Q-26.25 -183.3 -26.2 -181.0 -44.35 -180.85 -53.2 -177.95 L-55.85 -176.95 -55.6 -183.8 -54.8 -183.8 Q-53.9 -183.8 -49.95 -184.75 -45.9 -185.75 -44.2 -185.8 L-26.65 -186.95 M-15.0 -219.9 Q-15.0 -213.7 -13.4 -199.3 -11.8 -184.95 -11.8 -178.2 -11.8 -172.35 -12.35 -152.6 -12.3 -145.3 -11.6 -141.2 L-19.8 -141.2 Q-18.85 -145.85 -19.4 -156.1 L-21.0 -190.6 Q-21.7 -213.6 -24.65 -221.55 -22.0 -221.3 -19.1 -221.6 L-14.95 -221.05 -15.0 -219.9" fill="#ff4444" fill-rule="evenodd" stroke="none"/>
      <path d="M17.4 -223.6 L17.4 -224.7 17.6 -224.85 19.5 -216.75 20.5 -209.85 Q21.2 -205.35 22.0 -205.35 22.9 -205.35 22.9 -206.85 L21.15 -217.95 Q20.15 -223.6 19.35 -226.35 L20.8 -227.75 21.65 -221.8 Q22.75 -216.75 24.4 -214.2 L24.2 -213.4 Q24.2 -210.7 27.0 -199.85 29.8 -189.05 29.8 -187.0 29.8 -180.25 30.25 -168.5 L29.75 -173.5 Q26.7 -192.75 25.75 -192.75 24.75 -192.75 24.75 -190.5 24.75 -189.25 28.1 -171.9 28.95 -166.55 29.3 -155.25 28.4 -153.6 26.85 -152.05 L25.45 -167.6 Q23.75 -184.6 22.5 -191.35 L22.5 -191.5 22.35 -192.05 Q19.6 -206.4 19.8 -212.8 19.85 -214.75 18.85 -218.0 17.6 -221.85 17.4 -223.6 M18.2 -234.0 Q14.55 -232.2 12.8 -231.2 L-8.0 -230.85 Q-8.5 -230.5 -8.5 -229.95 L-8.4 -229.6 10.25 -229.35 9.55 -228.2 9.2 -228.2 5.15 -227.3 Q-4.0 -227.45 -17.5 -227.95 L-17.85 -228.05 -22.0 -229.0 Q-24.35 -229.0 -25.6 -228.25 L-28.4 -228.4 Q-30.3 -228.45 -30.6 -228.85 -30.6 -229.3 -31.0 -229.55 -32.55 -230.6 -46.4 -230.6 L-49.75 -230.25 -49.25 -231.4 -47.25 -231.35 Q-26.2 -231.35 -21.55 -230.7 L-17.4 -230.1 Q-15.85 -230.1 -15.85 -231.0 -15.85 -231.65 -21.65 -232.65 L-34.25 -233.75 -35.45 -233.7 -31.75 -233.9 -21.6 -233.4 Q-14.9 -233.4 -11.85 -233.55 -4.45 -232.95 18.2 -234.0" fill="#f7f7f7" fill-rule="evenodd" stroke="none"/>
      <path d="M2.05 -209.9 L2.55 -204.3 Q3.15 -194.8 6.6 -194.8 20.65 -194.8 20.0 -202.7 19.3 -206.45 19.25 -208.0 9.15 -208.45 2.05 -209.9 M29.55 -213.65 Q36.6 -212.8 36.6 -211.5 36.6 -207.8 28.4 -207.8 L25.4 -207.8 Q25.8 -205.8 25.4 -202.4 25.4 -196.65 24.4 -194.6 21.45 -188.6 10.8 -188.6 0.0 -188.6 -3.0 -198.0 -3.9 -200.95 -3.95 -204.5 L-3.8 -207.6 -3.8 -211.2 -3.75 -211.4 Q-15.0 -215.15 -15.0 -222.8 -15.0 -228.15 -12.6 -238.8 -10.2 -249.5 -10.2 -258.8 -10.4 -270.7 -9.85 -278.65 -8.85 -293.8 -4.0 -293.8 -1.1 -293.8 -1.0 -290.4 L-1.3 -287.05 -1.45 -285.8 -1.75 -282.8 -2.0 -280.55 -2.05 -279.95 -2.1 -279.8 -2.25 -278.3 -2.6 -275.15 Q-4.2 -260.5 -4.2 -256.2 -4.2 -247.9 -6.3 -237.5 -8.4 -227.1 -8.4 -222.3 -8.4 -217.4 14.1 -215.15 L29.55 -213.65 M-46.2 -283.55 L-46.15 -285.35 Q-45.65 -289.0 -43.2 -289.0 -41.7 -289.0 -39.4 -275.35 L-35.8 -254.4 Q-33.6 -244.7 -27.4 -219.9 -27.4 -215.2 -37.05 -210.45 -36.55 -207.95 -37.0 -203.5 -37.0 -195.6 -37.8 -192.95 -40.3 -184.6 -49.6 -184.6 -61.15 -184.6 -66.4 -192.95 -69.4 -197.75 -69.4 -202.0 L-69.35 -203.85 -72.8 -203.8 Q-80.25 -203.8 -82.75 -206.15 -83.55 -206.9 -83.75 -207.8 L-83.8 -208.6 -83.6 -210.4 -80.15 -210.45 -72.1 -210.2 Q-46.9 -210.2 -33.6 -220.6 -46.2 -265.9 -46.2 -280.6 L-46.2 -283.55 M-63.85 -204.1 L-62.2 -198.8 Q-59.3 -191.0 -50.1 -191.0 -45.95 -191.0 -44.3 -194.55 -43.15 -197.1 -43.05 -202.4 L-42.9 -208.05 Q-51.9 -204.9 -63.85 -204.1" fill="#000000" fill-rule="evenodd" stroke="none"/>
      <path d="M-1.3 -287.05 L-1.2 -288.1 Q1.65 -289.35 5.05 -291.45 6.05 -280.5 26.2 -226.2 L30.05 -213.8 29.55 -213.65 14.1 -215.15 Q-8.4 -217.4 -8.4 -222.3 -8.4 -227.1 -6.3 -237.5 -4.2 -247.9 -4.2 -256.2 -4.2 -260.5 -2.6 -275.15 L-2.25 -278.3 -2.1 -279.8 -2.05 -279.95 -2.0 -280.55 -1.75 -282.8 -1.45 -285.8 -1.3 -287.05 M-80.15 -210.45 L-79.4 -215.2 Q-69.0 -278.8 -68.25 -287.65 -58.85 -284.4 -46.2 -283.55 L-46.2 -280.6 Q-46.2 -265.9 -33.6 -220.6 -46.9 -210.2 -72.1 -210.2 L-80.15 -210.45" fill="#9aaffe" fill-rule="evenodd" stroke="none"/>
      <path d="M2.05 -209.9 Q9.15 -208.45 19.25 -208.0 19.3 -206.45 20.0 -202.7 20.65 -194.8 6.6 -194.8 3.15 -194.8 2.55 -204.3 L2.05 -209.9 M-63.85 -204.1 Q-51.9 -204.9 -42.9 -208.05 L-43.05 -202.4 Q-43.15 -197.1 -44.3 -194.55 -45.95 -191.0 -50.1 -191.0 -59.3 -191.0 -62.2 -198.8 L-63.85 -204.1" fill="#fff1dd" fill-rule="evenodd" stroke="none"/>
      <path d="M74.65 -498.65 Q75.35 -477.55 75.6 -456.25 77.0 -436.25 71.85 -436.25 L69.8 -436.6 68.35 -437.5 67.1 -506.15 Q66.8 -515.15 67.1 -523.75 67.7 -540.75 70.85 -540.75 73.2 -540.75 74.65 -498.65 M-58.9 -527.75 Q-58.3 -535.75 -55.15 -535.75 -50.0 -535.75 -49.4 -462.5 -48.15 -428.25 -53.15 -428.25 -54.65 -428.25 -55.2 -428.6 L-56.65 -429.5 Q-58.9 -489.5 -58.9 -519.5 -59.2 -523.75 -58.9 -527.75" fill="#000000" fill-rule="evenodd" stroke="none"/>
      <path d="M-94.5 -597.9 Q-68.35 -613.75 -12.15 -613.75 L22.75 -612.4 Q27.55 -611.35 33.8 -608.35 L50.1 -600.0 52.15 -598.95 50.75 -600.6 48.05 -603.5 Q26.35 -625.75 -6.0 -625.75 -51.25 -625.75 -76.3 -613.05 -84.35 -608.95 -89.85 -603.7 L-94.75 -598.25 -95.85 -597.05 -94.5 -597.9 M66.4 -594.55 Q70.6 -587.9 70.6 -586.4 70.6 -581.25 66.85 -581.25 L66.4 -581.35 65.35 -581.25 Q61.25 -581.25 56.25 -585.1 46.3 -592.7 45.0 -593.5 25.45 -605.75 -11.65 -605.75 -71.25 -605.75 -96.95 -584.0 -104.9 -577.25 -108.7 -569.05 L-111.0 -562.25 Q-112.5 -562.25 -113.05 -562.6 L-114.5 -563.5 -114.75 -567.25 -114.75 -567.35 -116.0 -565.25 Q-119.05 -565.25 -119.7 -568.0 L-119.75 -571.0 Q-119.75 -578.7 -114.35 -587.85 -108.25 -598.2 -96.95 -607.0 -68.3 -629.4 -19.15 -633.25 L-5.15 -633.75 Q29.1 -633.75 53.15 -610.75 60.9 -603.3 66.4 -594.55" fill="#000000" fill-rule="evenodd" stroke="none"/>
      <path d="M50.1 -600.0 L33.8 -608.35 Q27.55 -611.35 22.75 -612.4 L-12.15 -613.75 Q-68.35 -613.75 -94.5 -597.9 L-94.75 -598.25 -89.85 -603.7 Q-84.35 -608.95 -76.3 -613.05 -51.25 -625.75 -6.0 -625.75 26.35 -625.75 48.05 -603.5 L50.75 -600.6 50.1 -600.0" fill="#ff8080" fill-rule="evenodd" stroke="none"/>
    </g>
    <g id="sprite1" transform="matrix(1, 0, 0, 1, 92.95, 288.4)">
      <use height="350.8" transform="matrix(1.0, 0.0, 0.0, 1.0, -92.95, -288.4)" width="211.6" xlink:href="#sprite2"/>
    </g>
    <g id="sprite2" transform="matrix(1, 0, 0, 1, 93.4, 288.6)">
      <use height="350.8" transform="matrix(1.0, 0.0, 0.0, 1.0, -93.4, -288.6)" width="211.6" xlink:href="#shape3"/>
    </g>
    <g id="shape3" transform="matrix(1, 0, 0, 1, 93.4, 288.6)">
      <path d="M-61.75 -234.0 L-61.1 -233.3 Q-58.6 -230.65 -58.6 -229.6 -58.6 -228.1 -60.0 -227.25 -61.05 -226.6 -62.0 -226.6 -72.2 -226.6 -77.4 -240.95 -80.0 -248.1 -80.6 -255.5 -80.6 -256.65 -81.1 -260.8 -81.25 -264.9 -79.6 -267.8 -74.65 -276.6 -52.8 -276.6 -40.45 -276.6 -30.2 -273.4 -25.45 -271.95 -22.8 -270.25 -20.5 -271.8 -17.2 -271.8 L-14.85 -271.45 -12.35 -274.15 Q-8.85 -277.45 -3.6 -280.6 9.55 -288.6 20.0 -288.6 33.9 -288.6 39.45 -275.05 41.15 -270.8 41.85 -265.7 L42.2 -261.3 Q42.5 -258.4 42.25 -256.8 41.8 -253.8 39.2 -253.8 38.05 -253.8 36.95 -258.25 L36.55 -259.95 34.6 -267.6 34.55 -267.75 34.55 -267.8 34.5 -267.95 34.5 -268.0 Q30.1 -282.2 20.0 -282.2 6.65 -282.2 -2.6 -274.0 L-8.3 -268.35 -9.45 -267.3 -8.0 -265.25 -7.7 -264.6 -7.6 -264.4 -6.75 -262.55 -6.65 -262.35 -5.25 -259.15 -5.0 -258.5 Q-5.0 -255.4 -8.4 -255.4 -9.95 -255.4 -12.5 -258.8 -14.3 -261.25 -16.6 -265.4 -20.2 -264.25 -21.45 -259.55 L-21.5 -259.35 -21.7 -258.6 -22.45 -256.65 Q-23.2 -255.4 -24.8 -255.4 L-26.4 -255.65 -27.6 -256.4 -27.75 -258.5 -27.8 -260.3 Q-27.8 -262.15 -27.15 -264.0 L-31.85 -266.4 Q-40.75 -270.2 -52.1 -270.2 -69.7 -270.2 -73.8 -263.8 -75.15 -261.75 -75.0 -259.0 L-74.6 -256.0 Q-74.6 -248.15 -66.6 -239.1 L-61.75 -234.0" fill="#000000" fill-rule="evenodd" stroke="none"/>
      <path d="M36.55 -259.95 L36.75 -259.1 34.6 -258.95 Q34.7 -259.95 35.2 -260.7 26.45 -259.0 0.4 -259.0 L-5.15 -258.9 -5.25 -259.15 -6.65 -262.35 -6.75 -262.55 -7.6 -264.4 -7.7 -264.6 -8.0 -265.25 -9.45 -267.3 -8.3 -268.35 -2.6 -274.0 Q6.65 -282.2 20.0 -282.2 30.1 -282.2 34.5 -268.0 L34.5 -267.95 34.55 -267.8 34.55 -267.75 34.6 -267.6 36.55 -259.95 M-12.5 -258.8 L-21.7 -258.6 -21.5 -259.35 -21.45 -259.55 Q-20.2 -264.25 -16.6 -265.4 -14.3 -261.25 -12.5 -258.8 M-27.75 -258.5 L-33.2 -258.4 Q-36.75 -257.3 -38.2 -256.4 L-45.0 -252.0 Q-54.7 -244.4 -56.2 -242.4 -59.25 -238.25 -61.75 -234.0 L-66.6 -239.1 Q-74.6 -248.15 -74.6 -256.0 L-75.0 -259.0 Q-75.15 -261.75 -73.8 -263.8 -69.7 -270.2 -52.1 -270.2 -40.75 -270.2 -31.85 -266.4 L-27.15 -264.0 Q-27.8 -262.15 -27.8 -260.3 L-27.75 -258.5" fill="#ff4444" fill-rule="evenodd" stroke="none"/>
      <path d="M67.35 -264.15 Q75.7 -266.2 78.4 -266.2 81.9 -266.2 81.4 -262.2 81.4 -259.4 76.85 -251.1 73.2 -244.4 70.8 -241.2 82.5 -231.1 88.1 -219.25 92.7 -209.45 93.8 -196.85 94.35 -190.45 94.05 -174.3 93.75 -159.95 95.0 -151.8 96.3 -142.95 98.95 -127.2 L102.4 -107.4 Q102.65 -105.8 104.65 -96.35 106.2 -89.0 106.2 -85.2 106.2 -77.15 112.2 -69.9 115.2 -66.3 118.2 -64.1 118.2 -63.0 116.4 -60.0 114.35 -56.65 111.4 -53.55 103.3 -45.0 94.8 -45.0 86.55 -45.0 85.45 -45.75 85.7 -46.7 84.6 -47.0 82.4 -43.1 80.6 -41.4 80.2 -38.6 76.0 -38.6 72.25 -38.6 70.7 -41.55 69.8 -43.25 69.8 -45.0 69.35 -44.95 66.85 -42.5 64.45 -40.2 62.8 -40.2 60.0 -40.2 58.85 -42.5 57.75 -44.8 57.4 -44.8 56.2 -44.8 48.25 -41.7 L40.4 -38.6 Q36.5 -38.6 35.85 -41.2 L35.5 -43.0 Q35.25 -43.8 34.4 -43.8 30.6 -43.8 28.7 -42.0 26.8 -40.2 20.4 -40.2 16.7 -40.2 15.35 -41.3 14.6 -42.4 14.0 -42.4 11.05 -42.4 6.55 -38.9 2.05 -35.4 -1.2 -35.4 L-3.2 -35.6 Q-5.7 -36.15 -7.4 -38.2 -9.1 -41.0 -9.5 -41.0 -14.05 -41.0 -17.5 -39.0 -20.95 -37.0 -23.6 -37.0 -28.55 -37.0 -29.35 -38.6 -29.35 -40.2 -30.1 -40.2 -32.9 -40.2 -35.7 -38.6 L-37.2 -37.75 Q-37.5 -37.5 -37.95 -37.35 -38.65 -37.0 -38.8 -37.0 L-39.5 -37.0 -40.4 -37.0 -54.0 -39.4 Q-58.75 -39.4 -60.3 -42.6 -61.85 -45.8 -65.6 -45.8 -74.4 -45.8 -76.4 -51.75 -77.0 -53.6 -76.85 -55.9 L-76.6 -57.9 Q-76.6 -61.1 -75.2 -66.65 L-72.2 -78.3 Q-67.8 -96.2 -67.8 -114.6 -67.8 -132.35 -69.8 -150.3 -71.8 -168.25 -71.8 -185.7 -71.8 -199.4 -71.3 -204.85 -70.3 -215.25 -66.8 -223.8 -62.85 -233.4 -56.2 -242.4 -54.7 -244.4 -45.0 -252.0 L-38.2 -256.4 Q-36.75 -257.3 -33.2 -258.4 L0.4 -259.0 Q26.45 -259.0 35.2 -260.7 34.7 -259.95 34.6 -258.95 46.55 -259.55 58.0 -261.8 L67.35 -264.15 M73.6 -258.95 L60.25 -255.75 Q47.15 -253.0 34.4 -253.0 L27.65 -253.2 -33.4 -252.0 Q-37.9 -250.7 -40.6 -248.0 L-46.0 -243.75 Q-49.9 -240.9 -51.2 -239.0 -59.4 -226.7 -61.4 -221.0 -65.8 -208.6 -65.8 -185.3 -65.8 -170.35 -64.05 -153.75 L-61.8 -157.85 Q-58.2 -164.2 -58.2 -173.4 L-59.0 -197.7 Q-59.0 -215.4 -47.75 -230.4 -36.55 -245.4 -23.2 -245.4 -18.1 -245.4 -18.6 -242.3 -23.2 -240.2 -29.25 -236.5 -41.3 -229.15 -48.2 -220.4 -53.0 -214.3 -53.0 -197.9 L-52.2 -164.0 -52.2 -163.6 -52.0 -163.7 Q-43.05 -169.1 -34.95 -179.05 -30.5 -184.55 -23.0 -194.4 -19.3 -198.45 -11.3 -219.85 -12.6 -224.85 -12.6 -227.5 -12.6 -231.0 -9.6 -231.0 -7.6 -231.0 -2.75 -219.05 2.1 -207.15 3.0 -200.0 4.6 -187.55 4.6 -169.4 L4.6 -169.2 4.7 -169.35 Q10.5 -179.75 13.9 -193.85 17.0 -207.05 17.0 -219.1 17.0 -223.8 15.0 -229.8 L13.0 -236.2 13.2 -238.0 14.1 -238.5 Q14.85 -239.0 16.0 -239.0 20.2 -239.0 32.15 -219.95 L41.9 -204.05 Q47.25 -195.25 50.15 -191.2 L50.4 -190.8 Q50.6 -189.6 50.6 -191.6 50.6 -213.8 34.6 -232.2 29.75 -237.85 23.6 -242.75 L18.6 -246.6 Q18.6 -249.4 22.0 -249.4 36.0 -249.4 44.65 -233.2 48.5 -231.4 62.2 -210.75 69.75 -199.45 76.6 -188.0 76.6 -184.3 73.8 -184.2 L73.9 -180.45 Q73.95 -173.8 73.6 -161.6 L77.9 -147.7 Q82.2 -133.85 82.2 -131.0 82.2 -129.2 81.25 -127.2 79.65 -123.9 75.5 -120.1 68.5 -113.75 56.8 -108.2 29.9 -95.45 -3.2 -94.65 L-7.6 -94.6 Q-22.25 -94.6 -32.15 -103.7 -30.6 -91.75 -30.6 -80.8 -29.6 -66.6 -33.6 -66.6 L-35.2 -66.85 -36.4 -67.6 -37.0 -86.55 Q-37.4 -97.8 -38.4 -105.4 -38.7 -107.8 -39.9 -113.75 -41.4 -116.55 -41.4 -117.1 -41.4 -118.3 -41.05 -119.1 L-42.65 -126.4 Q-46.2 -142.0 -46.2 -143.2 -45.7 -149.85 -44.6 -156.35 L-43.8 -160.35 -48.25 -156.25 Q-61.45 -144.2 -62.4 -144.2 L-63.1 -144.25 -63.1 -144.15 Q-61.8 -129.55 -61.8 -114.5 -61.8 -96.75 -66.2 -76.85 L-69.2 -64.45 Q-70.6 -59.05 -70.6 -57.8 L-70.55 -54.8 Q-69.95 -52.0 -67.0 -52.0 -63.95 -52.0 -63.3 -53.5 -62.65 -55.0 -60.8 -55.0 -59.3 -55.0 -58.35 -53.75 L-56.75 -51.0 Q-54.3 -47.0 -48.4 -47.0 -44.9 -47.0 -39.65 -42.9 L-36.6 -44.55 Q-31.4 -47.0 -28.4 -47.0 -23.1 -47.0 -24.2 -43.2 -21.9 -43.55 -16.9 -45.85 -12.65 -47.8 -8.8 -47.8 -5.65 -47.8 -4.4 -44.7 -3.85 -43.35 -3.2 -42.55 -2.4 -41.6 -1.4 -41.6 -0.15 -41.6 5.0 -45.5 10.15 -49.4 15.6 -49.4 19.0 -49.4 19.4 -48.0 19.8 -46.6 21.7 -46.6 24.25 -46.6 27.8 -48.4 31.4 -50.2 34.0 -50.2 37.35 -50.2 39.05 -47.8 40.75 -45.4 41.4 -45.4 58.1 -51.8 58.4 -51.8 61.35 -51.8 62.1 -50.55 L63.4 -48.0 Q64.9 -49.8 66.0 -51.65 66.8 -52.6 69.2 -52.6 74.2 -52.6 75.45 -49.4 75.8 -48.55 75.8 -45.2 L75.85 -45.2 79.25 -50.15 84.0 -56.6 Q85.7 -56.6 86.45 -55.8 L87.5 -54.0 Q89.05 -51.4 94.9 -51.4 103.2 -51.4 106.85 -56.55 107.85 -58.0 108.95 -60.6 109.9 -62.9 110.4 -63.4 99.05 -81.8 94.65 -107.7 93.6 -114.0 92.05 -127.2 L91.7 -129.9 Q90.05 -144.35 88.6 -152.2 87.4 -159.0 88.05 -174.15 88.7 -189.05 87.2 -196.6 82.9 -217.9 72.2 -229.7 L65.45 -236.25 Q62.6 -239.0 62.6 -241.0 62.6 -241.75 66.85 -248.15 72.1 -256.05 73.6 -258.8 L73.8 -259.0 73.6 -258.95 M51.6 -214.6 Q56.15 -197.15 56.6 -179.5 57.7 -162.6 53.6 -162.6 L52.0 -162.85 50.8 -163.6 Q49.05 -186.25 23.2 -220.6 L23.0 -220.6 Q22.4 -197.9 17.6 -184.0 5.25 -148.2 1.6 -148.2 L0.0 -148.45 -1.2 -149.2 Q-1.7 -180.95 -2.4 -188.8 -2.85 -193.8 -7.65 -208.0 -9.05 -203.1 -12.15 -198.75 -20.8 -188.35 -27.0 -179.2 -30.4 -174.2 -36.45 -167.75 -36.25 -167.15 -36.2 -166.3 L-38.2 -155.85 Q-40.2 -145.15 -40.2 -143.2 -40.2 -141.35 -35.4 -122.4 L-34.55 -118.4 -34.05 -117.55 -30.95 -110.8 Q-25.3 -101.0 -7.2 -101.0 L-3.2 -101.05 Q27.75 -101.7 53.05 -112.95 63.65 -117.7 70.1 -123.05 72.8 -125.3 74.3 -127.2 76.2 -129.65 76.2 -131.6 76.2 -132.7 74.85 -136.7 L71.8 -146.0 Q67.4 -161.05 67.4 -176.0 67.2 -180.25 67.45 -184.35 67.75 -189.0 68.65 -191.0 L51.8 -214.7 51.45 -215.15 51.6 -214.6" fill="#000000" fill-rule="evenodd" stroke="none"/>
      <path d="M-52.2 -164.0 L-53.0 -197.9 Q-53.0 -214.3 -48.2 -220.4 -41.3 -229.15 -29.25 -236.5 -23.2 -240.2 -18.6 -242.3 -18.1 -245.4 -23.2 -245.4 -36.55 -245.4 -47.75 -230.4 -59.0 -215.4 -59.0 -197.7 L-58.2 -173.4 Q-58.2 -164.2 -61.8 -157.85 L-64.05 -153.75 Q-65.8 -170.35 -65.8 -185.3 -65.8 -208.6 -61.4 -221.0 -59.4 -226.7 -51.2 -239.0 -49.9 -240.9 -46.0 -243.75 L-40.6 -248.0 Q-37.9 -250.7 -33.4 -252.0 L27.65 -253.2 34.4 -253.0 Q47.15 -253.0 60.25 -255.75 L73.6 -258.95 73.6 -258.8 Q72.1 -256.05 66.85 -248.15 62.6 -241.75 62.6 -241.0 62.6 -239.0 65.45 -236.25 L72.2 -229.7 Q82.9 -217.9 87.2 -196.6 88.7 -189.05 88.05 -174.15 87.4 -159.0 88.6 -152.2 90.05 -144.35 91.7 -129.9 L92.05 -127.2 Q93.6 -114.0 94.65 -107.7 99.05 -81.8 110.4 -63.4 109.9 -62.9 108.95 -60.6 107.85 -58.0 106.85 -56.55 103.2 -51.4 94.9 -51.4 89.05 -51.4 87.5 -54.0 L86.45 -55.8 Q85.7 -56.6 84.0 -56.6 L79.25 -50.15 75.85 -45.2 75.8 -45.2 Q75.8 -48.55 75.45 -49.4 74.2 -52.6 69.2 -52.6 66.8 -52.6 66.0 -51.65 64.9 -49.8 63.4 -48.0 L62.1 -50.55 Q61.35 -51.8 58.4 -51.8 58.1 -51.8 41.4 -45.4 40.75 -45.4 39.05 -47.8 37.35 -50.2 34.0 -50.2 31.4 -50.2 27.8 -48.4 24.25 -46.6 21.7 -46.6 19.8 -46.6 19.4 -48.0 19.0 -49.4 15.6 -49.4 10.15 -49.4 5.0 -45.5 -0.15 -41.6 -1.4 -41.6 -2.4 -41.6 -3.2 -42.55 -3.85 -43.35 -4.4 -44.7 -5.65 -47.8 -8.8 -47.8 -12.65 -47.8 -16.9 -45.85 -21.9 -43.55 -24.2 -43.2 -23.1 -47.0 -28.4 -47.0 -31.4 -47.0 -36.6 -44.55 L-39.65 -42.9 Q-44.9 -47.0 -48.4 -47.0 -54.3 -47.0 -56.75 -51.0 L-58.35 -53.75 Q-59.3 -55.0 -60.8 -55.0 -62.65 -55.0 -63.3 -53.5 -63.95 -52.0 -67.0 -52.0 -69.95 -52.0 -70.55 -54.8 L-70.6 -57.8 Q-70.6 -59.05 -69.2 -64.45 L-66.2 -76.85 Q-61.8 -96.75 -61.8 -114.5 -61.8 -129.55 -63.1 -144.15 L-62.4 -144.2 Q-61.45 -144.2 -48.25 -156.25 L-43.8 -160.35 -44.6 -156.35 Q-45.7 -149.85 -46.2 -143.2 -46.2 -142.0 -42.65 -126.4 L-41.05 -119.1 Q-41.4 -118.3 -41.4 -117.1 -41.4 -116.55 -39.9 -113.75 -38.7 -107.8 -38.4 -105.4 -37.4 -97.8 -37.0 -86.55 L-36.4 -67.6 -35.2 -66.85 -33.6 -66.6 Q-29.6 -66.6 -30.6 -80.8 -30.6 -91.75 -32.15 -103.7 -22.25 -94.6 -7.6 -94.6 L-3.2 -94.65 Q29.9 -95.45 56.8 -108.2 68.5 -113.75 75.5 -120.1 79.65 -123.9 81.25 -127.2 82.2 -129.2 82.2 -131.0 82.2 -133.85 77.9 -147.7 L73.6 -161.6 Q73.95 -173.8 73.9 -180.45 L73.8 -184.2 Q76.6 -184.3 76.6 -188.0 69.75 -199.45 62.2 -210.75 48.5 -231.4 44.65 -233.2 36.0 -249.4 22.0 -249.4 18.6 -249.4 18.6 -246.6 L23.6 -242.75 Q29.75 -237.85 34.6 -232.2 50.6 -213.8 50.6 -191.6 L50.15 -191.2 Q47.25 -195.25 41.9 -204.05 L32.15 -219.95 Q20.2 -239.0 16.0 -239.0 14.85 -239.0 14.1 -238.5 L13.2 -238.0 13.0 -236.2 15.0 -229.8 Q17.0 -223.8 17.0 -219.1 17.0 -207.05 13.9 -193.85 10.5 -179.75 4.7 -169.35 L4.6 -169.4 Q4.6 -187.55 3.0 -200.0 2.1 -207.15 -2.75 -219.05 -7.6 -231.0 -9.6 -231.0 -12.6 -231.0 -12.6 -227.5 -12.6 -224.85 -11.3 -219.85 -19.3 -198.45 -23.0 -194.4 -30.5 -184.55 -34.95 -179.05 -43.05 -169.1 -52.0 -163.7 L-52.2 -164.0" fill="#ffff80" fill-rule="evenodd" stroke="none"/>
      <path d="M51.8 -214.7 L68.65 -191.0 Q67.75 -189.0 67.45 -184.35 67.2 -180.25 67.4 -176.0 67.4 -161.05 71.8 -146.0 L74.85 -136.7 Q76.2 -132.7 76.2 -131.6 76.2 -129.65 74.3 -127.2 72.8 -125.3 70.1 -123.05 63.65 -117.7 53.05 -112.95 27.75 -101.7 -3.2 -101.05 L-7.2 -101.0 Q-25.3 -101.0 -30.95 -110.8 L-34.05 -117.55 -34.55 -118.4 -35.4 -122.4 Q-40.2 -141.35 -40.2 -143.2 -40.2 -145.15 -38.2 -155.85 L-36.2 -166.3 Q-36.25 -167.15 -36.45 -167.75 -30.4 -174.2 -27.0 -179.2 -20.8 -188.35 -12.15 -198.75 -9.05 -203.1 -7.65 -208.0 -2.85 -193.8 -2.4 -188.8 -1.7 -180.95 -1.2 -149.2 L0.0 -148.45 1.6 -148.2 Q5.25 -148.2 17.6 -184.0 22.4 -197.9 23.0 -220.6 L23.2 -220.6 Q49.05 -186.25 50.8 -163.6 L52.0 -162.85 53.6 -162.6 Q57.7 -162.6 56.6 -179.5 56.15 -197.15 51.6 -214.6 L51.8 -214.7" fill="#fff1dd" fill-rule="evenodd" stroke="none"/>
      <path d="M39.3 4.6 L45.0 4.8 Q69.05 4.8 79.2 0.0 81.75 -1.25 85.65 -4.1 89.1 -6.6 91.8 -7.6 L61.2 -30.2 Q53.0 -35.95 36.4 -41.8 22.6 -46.7 22.6 -47.8 22.6 -48.5 36.35 -55.2 51.85 -62.8 56.0 -65.8 73.95 -78.85 77.8 -86.2 L77.8 -91.0 Q61.9 -91.2 58.65 -92.85 55.55 -94.4 41.2 -94.4 L27.8 -92.35 13.8 -89.6 Q12.0 -89.15 10.65 -88.15 8.35 -86.5 7.15 -83.3 L5.75 -80.0 Q4.85 -78.6 3.2 -78.6 -0.8 -78.6 0.2 -83.5 0.2 -91.85 14.2 -96.4 27.15 -100.6 48.4 -100.6 77.65 -100.6 83.6 -95.2 86.65 -92.45 83.8 -89.5 83.8 -79.2 70.8 -68.8 62.0 -61.75 37.4 -48.2 47.6 -44.2 74.4 -26.4 100.6 -9.0 100.6 -6.8 100.6 -4.5 96.2 -1.45 91.7 1.65 84.2 4.4 66.1 11.0 44.8 11.0 30.7 11.0 21.8 4.6 18.8 2.35 16.9 -0.2 15.4 -2.25 15.4 -3.2 15.4 -6.2 18.8 -6.2 21.05 -6.2 22.2 -4.5 L24.5 -0.7 Q28.2 3.75 39.3 4.6 M-48.75 9.6 Q-23.65 9.35 -19.05 6.9 -18.15 6.45 -17.65 5.05 -17.3 4.2 -14.8 4.2 -11.4 4.2 -11.4 7.3 -11.4 10.3 -18.2 12.8 -26.45 15.8 -40.4 15.8 -68.1 15.8 -82.05 8.55 -86.75 6.15 -89.2 3.2 -91.0 1.1 -91.0 -0.1 -91.0 -3.8 -76.4 -23.8 -74.25 -26.75 -65.4 -34.35 -54.65 -43.55 -51.6 -46.6 L-51.2 -47.2 Q-67.35 -53.4 -80.55 -70.2 -92.6 -85.45 -92.6 -95.5 -92.6 -96.0 -93.3 -97.2 -93.7 -98.2 -92.4 -98.85 -88.75 -100.6 -68.0 -100.6 -11.4 -100.6 -11.4 -92.1 -11.4 -89.0 -14.8 -89.0 L-25.8 -91.7 -27.3 -92.05 Q-37.9 -94.4 -45.4 -94.4 L-86.6 -94.2 Q-82.4 -83.6 -73.0 -70.2 -71.65 -68.25 -67.2 -64.75 L-58.8 -58.2 Q-48.45 -49.6 -36.85 -49.2 L-36.75 -49.2 -30.5 -49.35 Q-28.2 -49.3 -28.2 -47.9 -28.2 -46.7 -29.0 -46.75 L-31.95 -47.25 -36.8 -46.85 -37.6 -46.65 -43.65 -44.3 -43.8 -44.25 -43.95 -44.15 -44.1 -44.1 -47.4 -42.2 Q-52.3 -39.05 -55.6 -36.2 -67.7 -25.4 -68.6 -24.2 -71.65 -20.1 -75.95 -13.0 -80.45 -5.6 -84.4 -0.2 -76.55 9.6 -54.6 9.6 L-48.75 9.6" fill="#fff8bb" fill-opacity="0.9019608" fill-rule="evenodd" stroke="none"/>
      <path d="M10.65 -88.15 Q12.0 -89.15 13.8 -89.6 L27.8 -92.35 41.2 -94.4 Q55.55 -94.4 58.65 -92.85 61.9 -91.2 77.8 -91.0 L77.8 -86.2 Q73.95 -78.85 56.0 -65.8 51.85 -62.8 36.35 -55.2 22.6 -48.5 22.6 -47.8 22.6 -46.7 36.4 -41.8 53.0 -35.95 61.2 -30.2 L91.8 -7.6 Q89.1 -6.6 85.65 -4.1 81.75 -1.25 79.2 0.0 69.05 4.8 45.0 4.8 L39.3 4.6 37.35 0.25 36.55 -1.6 Q24.8 -27.95 22.0 -36.2 20.6 -40.3 19.0 -46.9 L20.0 -47.15 19.0 -46.9 Q16.35 -57.6 13.15 -74.85 L10.65 -88.15 M-27.3 -92.05 Q-29.15 -85.65 -31.35 -75.3 L-36.35 -49.2 -36.75 -49.2 -36.85 -49.2 Q-48.45 -49.6 -58.8 -58.2 L-67.2 -64.75 Q-71.65 -68.25 -73.0 -70.2 -82.4 -83.6 -86.6 -94.2 L-45.4 -94.4 Q-37.9 -94.4 -27.3 -92.05 M-36.8 -46.85 L-39.0 -35.4 Q-45.35 -7.1 -48.75 9.6 L-54.6 9.6 Q-76.55 9.6 -84.4 -0.2 -80.45 -5.6 -75.95 -13.0 -71.65 -20.1 -68.6 -24.2 -67.7 -25.4 -55.6 -36.2 -52.3 -39.05 -47.4 -42.2 L-44.1 -44.1 -43.95 -44.15 -43.8 -44.25 -43.65 -44.3 -37.6 -46.65 -36.8 -46.85" fill="#fffbd5" fill-opacity="0.7529412" fill-rule="evenodd" stroke="none"/>
      <path d="M33.25 -9.0 L33.8 -9.0 Q32.9 -11.7 31.3 -20.3 29.9 -27.5 28.0 -31.4 L24.25 -30.2 Q18.85 -28.4 8.4 -24.2 5.0 -24.2 5.0 -27.0 5.0 -29.75 15.0 -34.4 24.9 -39.0 30.4 -39.0 34.4 -39.0 39.8 -8.6 39.8 -5.4 39.6 -5.0 39.25 -4.3 38.6 -3.8 L41.2 -1.6 Q45.9 3.1 51.8 13.6 51.8 16.45 49.2 21.45 46.3 27.0 43.6 27.0 40.2 27.0 40.2 24.2 40.2 22.4 43.0 18.8 L44.6 16.6 44.6 16.65 45.1 15.8 45.8 13.85 45.8 13.7 Q45.8 11.65 40.55 7.4 L38.6 5.9 Q31.85 0.85 31.45 -1.6 L31.4 -1.9 31.45 -2.65 Q25.35 -3.2 16.8 -8.6 8.2 -14.0 8.2 -15.8 8.2 -19.0 11.6 -19.0 13.9 -19.0 28.6 -9.0 L33.25 -9.0 M39.6 38.1 L39.45 33.7 Q39.8 30.6 42.4 30.6 46.4 30.6 45.4 41.5 L45.75 44.5 Q46.0 47.4 45.4 49.6 43.65 56.6 34.4 56.6 27.2 56.6 23.4 49.45 22.2 47.2 21.5 44.5 L21.0 42.1 Q21.0 39.55 21.25 38.85 21.8 37.0 24.0 37.0 25.7 37.0 27.7 42.05 L27.8 42.25 28.3 43.7 Q30.65 50.4 31.8 50.4 36.85 50.4 38.6 47.3 39.9 45.1 39.7 40.5 L39.6 38.1 M-51.0 21.2 L-50.65 21.35 Q-42.6 25.0 -42.6 28.1 -42.6 31.0 -46.8 31.0 -55.5 31.0 -62.8 23.05 -65.3 20.25 -67.1 17.15 -68.6 14.55 -68.6 13.7 L-50.15 -1.95 Q-53.7 -4.15 -54.8 -11.0 -55.55 -16.05 -55.0 -21.2 L-55.2 -24.8 Q-55.35 -28.2 -54.95 -30.8 -53.75 -39.0 -47.6 -39.0 -37.35 -39.0 -23.8 -31.15 -19.4 -28.65 -15.45 -25.7 L-12.2 -23.1 Q-12.2 -21.65 -27.6 -11.4 -35.65 -6.05 -40.35 -3.45 -41.35 -0.55 -47.85 5.15 -53.0 9.65 -61.6 15.8 L-61.45 15.95 Q-59.95 17.15 -51.0 21.2 M-45.8 -7.4 L-45.1 -7.75 -35.15 -14.25 Q-28.15 -19.1 -22.6 -21.4 -24.55 -23.55 -34.7 -28.1 L-40.1 -30.35 Q-45.95 -32.65 -48.2 -32.6 -49.0 -29.0 -49.0 -21.8 -49.0 -16.25 -48.8 -14.95 -48.3 -11.8 -45.8 -7.4 M-36.65 45.65 L-36.6 46.5 Q-35.85 56.0 -31.0 56.0 -24.8 56.0 -23.3 49.1 L-22.9 46.3 -22.8 43.6 -22.8 39.6 Q-22.0 38.6 -20.0 38.6 -17.5 38.6 -17.0 41.25 -16.75 42.6 -17.0 44.1 -17.0 49.4 -18.6 54.0 -21.5 62.2 -28.4 62.2 -39.2 62.2 -42.2 54.3 -43.1 51.85 -43.15 48.85 L-43.0 46.2 -43.0 40.8 Q-42.55 37.0 -40.0 37.0 -38.05 37.0 -37.35 39.95 -37.05 41.05 -36.65 45.65" fill="#000000" fill-rule="evenodd" stroke="none"/>
      <path d="M24.25 -30.2 L28.0 -31.4 Q29.9 -27.5 31.3 -20.3 32.9 -11.7 33.8 -9.0 L33.25 -9.0 Q27.3 -22.6 24.25 -30.2 M40.55 7.4 Q45.8 11.65 45.8 13.7 L45.8 13.85 45.1 15.8 44.6 16.65 44.6 16.6 40.55 7.4 M-47.85 5.15 L-51.0 21.2 Q-59.95 17.15 -61.45 15.95 L-61.6 15.8 Q-53.0 9.65 -47.85 5.15 M-45.1 -7.75 L-45.8 -7.4 Q-48.3 -11.8 -48.8 -14.95 -49.0 -16.25 -49.0 -21.8 -49.0 -29.0 -48.2 -32.6 -45.95 -32.65 -40.1 -30.35 L-45.1 -7.75" fill="#e1e1e1" fill-rule="evenodd" stroke="none"/>
      <path d="M27.7 42.05 Q34.9 40.4 39.6 38.1 L39.7 40.5 Q39.9 45.1 38.6 47.3 36.85 50.4 31.8 50.4 30.65 50.4 28.3 43.7 L27.8 42.25 27.7 42.05 M-22.9 46.3 L-23.3 49.1 Q-24.8 56.0 -31.0 56.0 -35.85 56.0 -36.6 46.5 L-36.65 45.65 -23.6 46.2 -22.9 46.3" fill="#3c3c3c" fill-rule="evenodd" stroke="none"/>
      <path d="M-18.55 -99.2 L13.6 -99.2 13.6 -101.6 13.9 -101.6 Q14.35 -100.9 14.2 -99.9 14.2 -99.0 13.85 -98.4 13.35 -97.55 12.2 -97.2 L8.85 -96.6 Q10.1 -91.4 13.15 -74.85 18.35 -46.9 22.0 -36.2 24.8 -27.95 36.55 -1.6 L37.35 0.25 Q48.6 25.4 48.6 26.8 48.6 46.2 -23.6 46.2 -38.05 46.2 -43.15 44.35 -43.9 45.4 -45.6 45.4 -51.4 45.4 -52.6 39.0 -52.95 37.0 -52.8 34.55 L-52.6 32.4 Q-52.6 25.0 -39.0 -35.4 L-31.35 -75.3 Q-27.75 -92.1 -25.15 -98.4 -24.25 -100.7 -23.4 -101.6 L-20.8 -101.6 -20.8 -99.2 -19.4 -99.2 -19.4 -98.4 -19.4 -96.4 Q-19.4 -93.55 -25.7 -66.3 -32.7 -36.2 -33.4 -32.2 L-40.55 0.4 Q-46.6 27.75 -46.6 32.0 -46.6 32.8 -44.6 37.15 L-43.95 38.55 -42.4 38.6 -23.2 39.8 Q10.1 39.8 27.8 35.6 42.6 32.05 42.6 26.8 42.6 24.25 36.75 12.75 L29.55 -1.6 Q25.95 -8.85 23.8 -13.8 5.0 -56.6 5.0 -95.3 L5.1 -96.3 -2.0 -96.2 -3.2 -96.2 Q-11.05 -96.35 -16.6 -98.4 L-18.55 -99.2" fill="#000000" fill-rule="evenodd" stroke="none"/>
      <path d="M-18.55 -99.2 L-16.6 -98.4 Q-11.05 -96.35 -3.2 -96.2 L-2.0 -96.2 5.1 -96.3 5.0 -95.3 Q5.0 -56.6 23.8 -13.8 25.95 -8.85 29.55 -1.6 L36.75 12.75 Q42.6 24.25 42.6 26.8 42.6 32.05 27.8 35.6 10.1 39.8 -23.2 39.8 L-42.4 38.6 -43.95 38.55 -44.6 37.15 Q-46.6 32.8 -46.6 32.0 -46.6 27.75 -40.55 0.4 L-33.4 -32.2 Q-32.7 -36.2 -25.7 -66.3 -19.4 -93.55 -19.4 -96.4 L-19.4 -98.4 -19.4 -99.2 -19.4 -99.4 -19.45 -99.6 -19.2 -99.5 -18.55 -99.2" fill="#4b4c7f" fill-rule="evenodd" stroke="none"/>
      <path d="M13.1 -82.95 L13.0 -84.4 Q13.0 -86.8 13.2 -87.4 13.75 -89.4 16.0 -89.4 16.3 -89.4 32.6 -55.1 32.6 -54.25 31.4 -52.9 33.6 -51.8 34.2 -48.05 L34.2 -42.5 34.4 -40.3 Q34.5 -38.3 34.0 -36.8 32.45 -32.2 25.2 -32.2 18.75 -32.2 14.85 -37.1 13.05 -39.4 12.3 -41.8 L11.6 -41.8 Q6.1 -41.8 5.0 -56.6 4.45 -64.05 5.0 -71.6 4.0 -91.8 8.0 -91.8 10.4 -91.8 11.1 -82.8 L11.35 -75.1 Q11.4 -54.0 12.6 -49.4 11.4 -49.0 13.4 -49.0 16.8 -49.0 24.8 -56.2 24.8 -56.95 18.9 -67.95 13.75 -77.55 13.1 -82.95 M27.0 -46.75 L26.3 -48.7 24.4 -47.45 Q20.75 -45.0 17.85 -43.6 L19.6 -41.9 Q23.05 -38.4 25.0 -38.4 26.2 -38.4 27.8 -39.2 28.2 -39.8 28.2 -42.2 28.2 -43.7 27.0 -46.75 M-19.35 -78.0 L-19.4 -78.2 -19.4 -78.0 -25.35 -63.6 Q-29.0 -55.1 -33.8 -49.2 L-33.8 -48.8 -27.4 -48.2 -15.8 -48.2 Q-19.4 -53.65 -19.4 -63.8 L-19.15 -71.65 Q-19.05 -75.8 -19.35 -78.0 M-18.4 -80.4 Q-18.1 -83.2 -18.4 -85.4 L-18.6 -85.2 -18.6 -80.4 -18.4 -80.4 M-12.2 -81.8 Q-12.0 -78.2 -12.5 -73.05 L-13.0 -67.4 Q-13.0 -64.75 -11.4 -56.8 -9.8 -48.85 -9.8 -47.9 L-9.55 -46.0 Q-9.4 -44.8 -10.0 -44.0 -10.45 -43.4 -11.4 -42.95 L-11.4 -41.3 Q-11.4 -37.8 -12.8 -35.0 -15.05 -30.6 -20.0 -30.6 -27.8 -30.6 -31.0 -35.6 -32.55 -38.1 -32.6 -40.7 L-32.35 -42.6 Q-39.8 -44.25 -39.8 -48.7 -39.8 -50.6 -35.05 -60.05 -30.65 -68.85 -28.6 -71.8 -27.55 -73.25 -26.9 -77.15 L-25.8 -84.35 Q-24.25 -93.4 -20.0 -93.4 -12.8 -93.4 -12.2 -81.8 M-17.75 -41.85 L-20.4 -41.8 -26.7 -42.05 -26.35 -40.8 Q-25.4 -37.0 -20.5 -37.0 -18.15 -37.0 -17.75 -41.6 L-17.7 -41.85 -17.75 -41.85" fill="#000000" fill-rule="evenodd" stroke="none"/>
      <path d="M27.0 -46.75 Q28.2 -43.7 28.2 -42.2 28.2 -39.8 27.8 -39.2 26.2 -38.4 25.0 -38.4 23.05 -38.4 19.6 -41.9 L17.85 -43.6 Q20.75 -45.0 24.4 -47.45 L26.3 -48.7 27.0 -46.75 M-17.75 -41.85 L-17.75 -41.6 Q-18.15 -37.0 -20.5 -37.0 -25.4 -37.0 -26.35 -40.8 L-26.7 -42.05 -20.4 -41.8 -17.75 -41.85" fill="#fff1dd" fill-rule="evenodd" stroke="none"/>
      <path d="M13.1 -82.95 Q13.75 -77.55 18.9 -67.95 24.8 -56.95 24.8 -56.2 16.8 -49.0 13.4 -49.0 11.4 -49.0 12.6 -49.4 11.4 -54.0 11.35 -75.1 L11.1 -82.8 13.1 -82.95 M-19.4 -78.0 L-19.35 -78.0 Q-19.05 -75.8 -19.15 -71.65 L-19.4 -63.8 Q-19.4 -53.65 -15.8 -48.2 L-27.4 -48.2 -33.8 -48.8 -33.8 -49.2 Q-29.0 -55.1 -25.35 -63.6 L-19.4 -78.0" fill="#4b4c7f" fill-rule="evenodd" stroke="none"/>
      <path d="M14.2 -99.9 L14.2 -99.4 16.4 -98.4 Q23.35 -94.5 35.0 -79.5 35.0 -77.75 33.5 -74.85 31.7 -71.35 28.6 -68.4 20.1 -60.2 6.4 -60.2 3.2 -60.2 -1.4 -76.8 L-3.2 -83.7 -5.4 -93.6 -5.3 -96.2 -7.7 -96.3 -7.6 -96.0 -7.4 -93.6 Q-7.4 -91.85 -9.2 -86.55 -11.25 -80.55 -14.0 -75.0 -21.8 -59.4 -29.2 -59.4 -36.75 -59.4 -44.2 -65.5 -46.6 -67.45 -48.6 -69.75 -50.2 -71.55 -50.2 -71.8 -50.2 -73.55 -37.4 -87.4 -30.45 -94.9 -26.6 -98.4 L-24.75 -100.0 14.2 -100.0 14.2 -99.9 M9.05 -96.65 L-0.2 -96.2 Q1.5 -93.35 3.6 -86.15 7.0 -74.45 7.0 -67.2 L8.8 -67.0 Q23.7 -67.0 28.0 -80.4 L18.5 -88.0 Q9.5 -95.25 9.05 -96.65 M-19.4 -98.0 Q-19.4 -92.85 -28.7 -85.6 L-36.75 -79.5 Q-41.35 -75.85 -43.8 -72.8 -42.8 -71.3 -35.9 -68.8 -29.8 -66.6 -29.0 -66.6 -23.9 -66.6 -18.5 -78.85 -13.9 -89.35 -13.2 -97.05 -15.5 -97.6 -17.4 -98.4 L-19.65 -99.5 -19.4 -98.4 -19.4 -98.0" fill="#000000" fill-rule="evenodd" stroke="none"/>
      <path d="M-19.4 -98.0 L-19.4 -98.4 -19.65 -99.5 -17.4 -98.4 Q-15.5 -97.6 -13.2 -97.05 -13.9 -89.35 -18.5 -78.85 -23.9 -66.6 -29.0 -66.6 -29.8 -66.6 -35.9 -68.8 -42.8 -71.3 -43.8 -72.8 -41.35 -75.85 -36.75 -79.5 L-28.7 -85.6 Q-19.4 -92.85 -19.4 -98.0 M9.05 -96.65 Q9.5 -95.25 18.5 -88.0 L28.0 -80.4 Q23.7 -67.0 8.8 -67.0 L7.0 -67.2 Q7.0 -74.45 3.6 -86.15 1.5 -93.35 -0.2 -96.2 L9.05 -96.65" fill="#e1e1e1" fill-rule="evenodd" stroke="none"/>
      <path d="M7.0 -90.2 L4.0 -89.2 Q1.15 -88.15 0.2 -87.6 0.5 -86.65 4.2 -84.35 7.65 -82.2 8.0 -82.2 L9.0 -82.4 9.0 -90.2 7.0 -90.2 M14.95 -78.2 Q14.4 -73.8 11.6 -73.8 10.5 -73.8 3.65 -77.7 L-3.2 -81.75 -5.4 -83.2 Q-7.35 -80.3 -13.4 -76.45 -20.15 -72.2 -24.4 -72.2 -29.0 -72.2 -27.8 -84.6 L-27.8 -91.8 Q-27.3 -97.4 -24.4 -97.4 -22.95 -97.4 -17.35 -94.2 -11.7 -91.0 -8.1 -91.0 -6.2 -91.0 -4.7 -91.85 L-3.2 -92.85 -2.0 -93.8 Q2.0 -96.6 9.2 -96.6 13.95 -96.6 14.95 -90.95 L15.0 -85.1 14.95 -78.2 M17.8 -18.8 L19.6 -20.6 Q22.8 -23.8 24.0 -23.8 27.0 -23.8 27.0 -20.4 27.0 -18.85 26.15 -17.5 27.45 -12.95 28.1 -1.6 L28.6 14.3 28.6 21.8 Q28.35 24.95 27.5 26.5 L27.8 27.3 27.7 28.9 Q26.95 29.5 22.3 29.6 15.8 29.75 -30.25 28.75 -30.95 30.2 -32.0 30.2 -33.35 30.2 -34.2 28.65 L-34.8 28.6 Q-35.0 29.4 -35.0 27.4 L-35.6 26.0 Q-35.7 25.65 -35.15 25.35 L-35.55 20.15 Q-35.6 14.75 -35.0 5.8 -35.0 3.4 -36.6 -6.05 -38.2 -15.5 -38.2 -18.5 L-38.2 -19.1 Q-39.8 -21.05 -39.8 -23.4 -39.8 -26.2 -36.4 -26.2 L-28.2 -21.5 Q-20.2 -16.8 -18.2 -16.8 L-3.2 -16.9 15.6 -17.6 17.8 -18.8 M21.1 -13.75 Q13.75 -10.6 -1.6 -10.6 L-3.2 -10.6 Q-14.9 -10.75 -24.4 -12.8 -28.15 -13.6 -31.0 -14.65 -30.3 -10.95 -29.8 -5.5 -29.0 3.25 -29.0 12.2 L-29.0 21.8 -29.25 24.6 Q-21.6 24.2 -3.6 24.2 L24.3 23.25 Q23.2 16.2 21.9 -1.6 L21.1 -13.75 M-13.0 -85.4 Q-14.5 -86.6 -21.8 -88.4 L-21.8 -79.4 Q-20.5 -79.5 -17.35 -81.9 L-13.0 -85.4" fill="#000000" fill-rule="evenodd" stroke="none"/>
      <path d="M7.0 -90.2 L9.0 -90.2 9.0 -82.4 8.0 -82.2 Q7.65 -82.2 4.2 -84.35 0.5 -86.65 0.2 -87.6 1.15 -88.15 4.0 -89.2 L7.0 -90.2 M-13.0 -85.4 L-17.35 -81.9 Q-20.5 -79.5 -21.8 -79.4 L-21.8 -88.4 Q-14.5 -86.6 -13.0 -85.4" fill="#ff4444" fill-rule="evenodd" stroke="none"/>
      <path d="M21.1 -13.75 L21.9 -1.6 Q23.2 16.2 24.3 23.25 L-3.6 24.2 Q-21.6 24.2 -29.25 24.6 L-29.0 21.8 -29.0 12.2 Q-29.0 3.25 -29.8 -5.5 -30.3 -10.95 -31.0 -14.65 -28.15 -13.6 -24.4 -12.8 -14.9 -10.75 -3.2 -10.6 L-1.6 -10.6 Q13.75 -10.6 21.1 -13.75" fill="#e1e1e1" fill-rule="evenodd" stroke="none"/>
      <path d="M64.6 -150.6 Q64.1 -134.6 61.6 -134.6 L60.0 -134.85 58.8 -135.6 58.6 -166.8 Q57.6 -199.0 61.6 -199.0 65.6 -199.0 64.6 -166.8 64.85 -158.6 64.6 -150.6 M-15.4 -193.1 L-15.4 -188.6 Q-15.6 -173.6 -16.2 -159.2 -17.45 -130.6 -19.6 -130.6 -23.0 -130.6 -23.0 -133.4 -22.5 -197.4 -18.4 -197.4 -15.9 -197.4 -15.4 -193.1" fill="#000000" fill-rule="evenodd" stroke="none"/>
    </g>
  </defs>
</svg>
