<?xml version="1.0" encoding="UTF-8" standalone="no"?>
<svg xmlns:xlink="http://www.w3.org/1999/xlink" height="842.55px" width="1337.95px" xmlns="http://www.w3.org/2000/svg">
  <g transform="matrix(1, 0, 0, 1, 407.45, 285.05)">
    <use height="4.5" transform="matrix(5.4867, 0.0, 0.0, 81.5667, 3.2875, 23.0167)" width="99.75" xlink:href="#shape0"/>
    <use height="422.0" transform="matrix(1.0, 0.0, 0.0, 1.0, -8.5, -10.5)" width="561.45" xlink:href="#shape1"/>
  </g>
  <defs>
    <g id="shape0" transform="matrix(1, 0, 0, 1, 49.85, -2.5)">
      <path d="M49.9 7.0 L-49.85 7.0 -49.85 2.5 49.9 2.5 49.9 7.0" fill="#ffffff" fill-rule="evenodd" stroke="none"/>
    </g>
    <g id="shape1" transform="matrix(1, 0, 0, 1, 8.5, 10.5)">
      <path d="M7.9 -2.0 L8.05 -3.0 Q8.45 -5.5 9.0 -5.5 9.55 -5.5 9.95 -3.0 L10.1 -2.0 10.15 -1.55 10.4 0.55 10.45 1.1 10.45 1.2 10.9 8.4 10.95 9.65 12.0 8.75 27.3 8.75 Q27.8 2.2 29.5 -2.3 L29.8 -3.0 31.0 -3.0 31.85 -2.3 32.5 -1.5 32.5 8.7 55.7 8.65 Q56.4 3.7 58.0 0.5 59.6 1.15 60.5 2.5 L60.5 8.65 81.45 8.6 Q82.1 2.3 84.0 -1.5 85.05 3.2 85.75 8.6 L109.55 8.55 Q110.25 2.95 112.0 -0.5 113.6 0.15 114.5 1.5 L114.5 8.5 119.85 8.5 135.6 8.6 Q136.15 3.5 137.0 3.5 137.8 3.5 138.35 8.6 L161.2 8.75 Q161.4 1.85 161.75 -2.3 L161.8 -3.0 165.35 -3.0 165.35 -2.25 165.35 8.75 188.6 8.95 188.95 -2.1 189.0 -3.0 192.9 -3.0 192.95 -2.05 193.25 9.0 209.65 9.2 210.05 -1.9 210.1 -3.0 213.75 -3.0 213.8 -1.85 214.2 9.25 228.85 9.75 Q229.35 8.35 229.35 10.85 229.35 12.45 228.9 12.8 L227.85 13.25 214.3 13.3 214.45 26.2 Q230.05 26.4 232.45 26.7 L232.5 24.6 233.55 2.5 233.55 2.4 233.55 2.25 Q233.85 -0.25 234.2 -1.4 L234.4 -2.0 234.85 -2.5 235.35 -2.0 235.5 -1.65 235.6 -1.3 236.0 0.7 236.1 1.55 236.2 2.45 236.25 2.9 237.3 25.0 237.3 25.9 237.3 26.8 237.35 28.15 237.35 28.4 237.4 34.05 237.35 70.75 237.1 143.5 235.35 144.35 235.35 144.85 Q235.35 146.45 234.9 146.8 L233.85 147.25 191.6 147.25 190.85 147.5 190.8 147.25 Q100.7 147.1 6.5 145.5 L6.5 145.35 Q4.95 144.3 6.15 125.6 6.7 112.8 6.5 106.5 L6.5 69.35 Q6.3 49.1 6.55 30.75 L7.4 3.05 7.55 1.4 7.55 1.3 7.55 1.0 7.9 -2.0 M264.55 -1.95 L264.55 -2.0 264.6 -3.0 Q265.1 -10.5 265.85 -10.5 266.6 -10.5 267.15 -2.45 L267.15 -2.0 267.2 -1.7 267.35 1.05 267.35 1.15 267.35 1.4 267.4 1.7 267.4 2.35 267.45 2.65 267.45 2.95 267.5 3.9 267.55 4.55 267.55 5.2 267.7 10.75 268.85 9.75 363.05 9.6 363.0 7.7 362.95 4.2 362.9 -2.4 362.9 -3.0 368.05 -3.0 368.05 -2.4 368.0 9.6 368.0 13.65 368.0 25.2 368.3 52.5 368.45 74.75 368.45 87.5 368.35 111.75 368.25 207.75 405.0 207.7 411.15 207.7 497.55 207.55 503.15 207.55 511.85 207.5 551.95 207.65 551.95 212.15 502.0 211.9 496.4 211.85 409.85 211.1 403.75 211.0 368.25 210.55 368.15 227.5 368.15 227.75 410.5 227.6 510.6 227.5 510.85 227.5 541.8 227.55 551.95 227.7 551.95 232.5 551.4 232.5 551.5 233.6 550.95 235.35 550.9 235.5 550.9 235.55 547.0 243.4 546.5 244.3 544.65 247.7 528.65 276.75 Q505.75 318.7 497.8 340.5 L550.85 340.5 550.95 340.55 551.5 340.7 552.55 340.95 552.95 341.25 552.95 344.55 552.5 345.0 552.35 345.1 552.25 345.15 551.85 345.25 550.9 345.5 329.35 345.5 Q330.15 349.65 330.4 359.55 L330.5 370.75 446.85 370.5 447.85 370.5 448.8 370.5 449.75 370.5 450.7 370.5 451.65 370.5 452.6 370.5 547.7 371.2 549.35 371.25 550.8 371.25 550.95 371.25 551.4 371.25 552.15 371.25 552.95 371.3 552.95 375.3 552.65 375.3 549.15 375.3 Q442.5 375.35 330.45 373.6 L330.35 376.75 330.35 377.1 330.35 377.4 330.35 377.75 330.35 378.05 330.35 378.4 330.35 378.7 330.35 379.0 330.35 379.3 330.35 379.6 330.35 380.35 330.35 381.1 330.35 381.6 330.35 382.05 330.35 382.55 330.25 399.75 330.25 402.55 330.2 405.2 330.15 407.6 330.15 407.8 330.1 410.15 330.1 410.5 Q328.85 411.25 327.85 411.5 L326.55 405.45 Q326.2 403.25 326.0 400.75 325.7 397.85 325.55 394.55 325.35 390.5 325.35 376.85 325.15 366.7 325.35 358.5 325.55 350.25 326.2 346.3 324.65 349.9 321.0 355.55 317.15 361.5 314.55 364.65 315.35 367.55 315.35 372.85 L315.25 380.45 315.85 380.95 Q316.35 381.6 316.35 383.35 L316.35 384.1 Q317.35 385.35 317.35 386.0 L316.35 387.65 315.9 388.8 315.4 389.1 307.1 401.15 303.5 405.4 Q301.4 407.5 300.35 407.5 L298.35 407.0 297.55 406.55 Q297.4 406.35 297.35 405.25 L297.35 404.75 Q297.35 403.7 298.55 401.6 300.15 398.65 304.05 393.65 L307.65 389.3 Q234.8 389.4 156.5 387.65 L156.5 387.95 156.5 388.0 Q156.5 390.95 150.65 397.4 L150.4 397.7 148.3 400.05 147.7 400.75 147.65 400.75 147.35 401.1 145.6 403.15 145.3 403.55 143.9 405.25 143.25 406.15 143.1 406.35 143.0 406.5 Q141.55 406.0 141.2 405.7 L141.15 405.65 141.1 405.6 141.05 405.55 Q140.7 405.1 140.55 404.25 L140.5 403.35 Q140.5 402.25 141.35 400.5 142.0 399.0 143.25 397.1 L144.6 395.15 144.85 394.8 146.4 392.7 151.5 386.65 151.5 386.0 151.75 385.8 Q150.9 384.25 150.65 381.85 150.5 380.5 150.5 375.25 L75.0 375.5 34.7 375.15 2.4 374.65 -0.4 374.55 -4.25 374.25 Q-4.5 375.25 -4.5 372.75 -4.5 370.9 -2.5 370.0 L-2.4 370.0 -0.5 369.5 0.05 369.5 1.05 369.5 Q132.9 370.4 150.55 370.9 L150.65 368.25 Q150.85 366.8 151.2 365.7 150.5 365.0 150.5 363.35 150.5 361.35 157.55 348.75 L159.4 345.5 0.0 345.5 -0.15 345.45 -0.2 345.45 -0.75 345.2 Q-2.05 344.45 -2.4 343.0 L-2.5 342.0 -2.4 341.95 -2.15 341.85 -1.45 341.45 -1.05 341.25 -0.4 340.9 0.0 340.55 0.0 340.5 1.5 340.5 2.0 340.5 71.6 340.5 Q73.15 331.4 96.65 287.35 118.15 247.0 127.65 232.5 L51.4 232.5 51.5 233.6 Q51.5 235.15 44.65 247.7 L28.65 276.75 28.35 277.3 28.35 277.35 28.1 277.85 28.05 277.95 27.95 278.1 9.35 314.05 8.9 314.9 8.35 316.05 7.6 317.7 7.55 317.75 7.5 317.8 7.45 317.95 7.05 318.8 4.35 324.7 Q1.2 331.6 -1.0 337.35 L-1.0 321.9 -0.85 321.55 -0.8 321.5 -0.7 321.25 -0.6 321.05 -0.2 320.2 4.05 311.6 4.4 310.9 4.65 310.35 15.0 290.45 15.7 289.15 15.85 288.9 16.5 287.65 16.65 287.35 Q38.15 247.0 47.65 232.5 L-1.0 232.5 -1.0 227.5 -0.8 227.5 265.35 227.5 Q263.7 220.85 263.15 212.25 135.5 212.45 2.1 210.65 L-1.1 210.6 -2.15 210.6 -2.95 210.6 -8.5 210.5 -8.5 209.0 Q-7.85 208.0 -7.0 207.75 L-1.55 207.75 -1.0 207.75 124.0 207.5 124.65 207.5 125.9 207.5 126.2 207.5 129.35 207.5 Q243.55 207.9 262.9 208.5 262.7 204.2 262.75 199.4 263.55 178.75 263.35 169.0 L263.35 109.35 Q263.15 77.85 263.4 48.25 L263.4 47.65 263.4 46.5 263.4 46.1 264.25 3.25 264.55 -1.95 M394.85 -3.0 L395.45 -3.0 395.45 -2.45 395.6 -0.95 395.65 -0.65 395.8 -1.0 Q396.0 -1.5 396.25 -1.5 L396.75 -1.0 396.95 -0.4 397.55 3.25 397.6 3.4 397.6 3.5 398.65 25.6 398.7 27.7 Q401.05 27.4 416.65 27.2 L416.8 14.3 403.25 14.25 Q402.95 14.05 402.45 13.9 L402.2 13.8 Q401.75 13.45 401.75 11.85 401.75 9.35 402.25 10.75 L416.9 10.25 416.95 9.55 Q417.05 3.55 417.3 -0.85 L417.35 -2.45 417.35 -3.0 420.6 -3.0 421.0 -2.0 421.05 -0.9 421.45 9.55 421.45 10.2 437.85 10.0 437.85 9.6 438.2 -1.05 438.25 -2.35 438.3 -3.0 441.75 -3.0 442.1 -2.0 442.15 -1.1 442.5 9.65 442.5 9.95 465.75 9.75 465.75 -2.0 466.1 -3.0 471.05 -3.0 471.05 -2.2 471.05 1.65 471.0 9.75 492.75 9.6 492.95 -2.1 493.0 -3.0 494.8 -3.0 494.85 -2.1 495.5 9.6 511.25 9.5 516.6 9.5 516.6 9.05 Q516.05 6.15 516.05 1.65 L516.15 -1.95 516.25 -3.0 520.85 -3.0 520.95 -1.9 521.05 1.8 521.05 6.3 521.55 9.55 545.15 9.6 545.05 4.8 545.05 -1.55 545.1 -3.0 550.25 -3.0 550.3 -1.4 550.05 4.65 550.05 9.6 551.8 9.6 551.95 9.6 551.95 13.55 550.0 13.55 550.0 14.15 550.0 14.25 550.0 16.75 549.85 26.6 551.95 26.6 551.95 30.5 551.1 30.5 549.75 30.5 549.6 34.95 549.6 35.25 549.75 42.85 551.95 42.8 551.95 48.5 549.8 48.5 549.8 55.15 549.75 63.6 551.95 63.6 551.95 67.45 549.7 67.5 549.6 72.0 549.6 82.6 551.95 82.6 551.95 86.5 549.6 86.55 549.6 101.6 551.95 101.6 551.95 105.5 549.6 105.55 549.6 108.0 Q549.5 111.95 549.75 119.6 L551.95 119.6 551.95 123.5 549.9 123.55 550.0 126.35 Q550.0 137.1 547.5 143.6 L551.95 143.6 551.95 147.55 520.45 147.85 513.45 147.9 440.35 148.25 440.25 148.5 439.5 148.25 434.7 148.25 429.3 148.3 397.25 148.25 396.2 147.8 Q395.75 147.45 395.75 145.85 L395.75 145.35 394.0 144.5 Q393.75 119.75 393.75 71.75 L393.65 60.7 393.65 57.7 393.65 42.4 393.7 38.6 393.7 35.05 393.8 29.4 393.8 29.15 393.8 27.8 393.85 26.9 393.85 26.0 394.85 3.9 394.9 3.45 394.9 0.2 394.85 -2.45 394.85 -3.0 M544.05 34.95 L544.05 30.6 521.8 30.8 521.6 36.25 521.75 43.0 544.15 42.85 544.05 34.95 M544.85 14.25 L544.95 13.6 521.9 13.85 521.95 14.3 522.0 17.75 521.9 26.55 544.15 26.6 Q544.3 20.05 544.85 14.25 M516.6 86.9 L496.6 87.05 496.6 101.55 509.25 101.5 516.6 101.55 516.6 86.9 M496.6 74.85 L496.6 82.6 509.75 82.5 516.6 82.5 516.6 67.85 496.65 68.0 496.6 74.85 M491.6 82.6 L491.6 74.75 491.55 68.05 470.6 68.15 470.6 69.5 470.6 82.75 491.6 82.6 M521.7 67.8 L521.6 73.0 521.6 82.55 533.7 82.55 541.0 82.6 544.45 82.6 544.6 69.75 544.55 67.55 538.7 67.6 521.7 67.8 M516.6 48.5 L496.7 48.5 496.7 63.55 504.75 63.5 516.6 63.55 516.6 48.5 M496.5 31.05 L496.6 38.5 496.65 43.15 516.6 43.0 516.6 30.85 496.5 31.05 M491.6 43.15 L491.6 39.55 491.75 31.05 477.65 31.15 470.4 31.2 470.55 43.3 474.1 43.25 491.6 43.15 M492.4 14.25 L492.4 14.1 470.85 14.2 470.8 14.4 470.1 14.7 470.35 26.7 471.4 26.7 478.8 26.65 491.85 26.6 Q492.05 19.15 492.4 14.25 M495.9 14.05 L495.9 14.25 496.4 26.55 507.75 26.5 516.6 26.55 516.6 13.9 495.9 14.05 M544.4 86.6 L539.7 86.65 532.35 86.7 521.6 86.85 521.6 101.55 527.45 101.55 534.9 101.55 544.15 101.6 544.4 86.6 M544.5 63.6 L544.25 51.0 544.2 48.5 521.8 48.5 521.75 63.55 540.05 63.6 544.5 63.6 M491.55 63.6 L491.55 48.5 470.55 48.5 470.6 53.9 470.6 63.7 491.55 63.6 M458.6 87.25 L451.4 87.25 442.75 87.3 442.75 101.9 446.65 101.9 453.05 101.85 465.75 101.75 465.75 87.2 458.6 87.25 M437.75 87.3 L421.75 87.3 421.75 102.15 437.8 101.95 437.75 87.3 M442.75 68.25 L442.75 82.95 452.8 82.85 460.25 82.8 465.75 82.75 465.75 68.2 465.6 68.2 457.5 68.2 442.75 68.25 M416.75 83.25 L416.75 68.3 398.8 68.25 398.75 71.85 398.75 102.65 Q401.3 102.4 416.8 102.2 L416.75 87.3 401.25 87.25 400.2 86.8 Q399.75 86.45 399.75 84.85 399.75 83.3 400.0 83.35 L400.25 83.75 416.75 83.25 M421.75 68.3 L421.75 83.15 437.75 83.0 437.75 68.25 421.75 68.3 M442.85 57.8 L442.8 61.8 442.8 63.9 458.9 63.75 465.75 63.7 465.75 48.5 442.85 48.5 442.85 57.8 M437.65 48.5 L421.85 48.5 421.85 57.5 421.8 61.35 421.8 64.1 437.75 63.95 437.7 61.7 437.7 57.7 437.65 48.5 M416.6 43.7 L416.65 31.3 399.25 31.25 398.75 31.0 398.75 32.4 398.75 33.8 398.75 34.0 398.85 57.65 398.85 60.85 398.8 64.55 416.75 64.15 416.7 61.25 416.7 57.55 416.65 48.5 402.25 48.5 400.6 48.0 Q399.75 47.45 399.75 45.85 399.75 44.35 400.1 44.25 L401.0 44.0 416.6 43.7 M421.8 31.3 L421.85 43.65 437.65 43.5 437.65 31.3 421.8 31.3 M421.7 25.0 L421.75 27.15 437.65 26.95 437.8 14.3 421.55 14.3 421.7 25.0 M465.75 26.75 L465.75 14.2 442.6 14.3 442.7 23.5 442.75 26.9 465.75 26.75 M465.75 43.3 L465.75 31.2 442.8 31.3 442.85 43.45 465.6 43.3 465.75 43.3 M491.65 101.6 L491.6 87.1 470.6 87.2 470.6 101.7 491.65 101.6 M491.7 124.65 L491.7 124.05 470.85 124.15 470.85 124.55 470.95 127.2 470.95 128.15 Q470.85 137.45 469.15 143.7 L471.85 143.7 491.85 143.6 491.75 128.6 491.7 124.65 M496.85 124.7 L496.95 127.7 496.95 128.7 Q496.85 137.3 494.8 143.6 L510.25 143.5 510.65 143.5 510.75 143.5 510.85 143.5 510.95 143.5 512.3 143.5 514.65 143.55 516.6 143.55 516.6 123.9 496.8 124.05 496.85 124.7 M491.7 119.6 L491.65 106.05 470.6 106.15 470.6 107.75 Q470.5 111.85 470.7 119.7 L491.7 119.6 M516.6 119.55 L516.6 105.9 496.6 106.05 496.6 109.75 496.65 119.55 509.75 119.5 516.6 119.55 M544.1 143.25 L543.6 140.25 543.85 123.6 527.9 123.8 521.85 123.85 522.0 127.35 Q522.0 137.25 519.85 143.55 L521.75 143.55 544.9 143.6 544.1 143.25 M529.2 119.55 L543.9 119.6 544.1 105.6 533.6 105.7 526.05 105.8 521.6 105.85 521.6 109.0 Q521.5 112.55 521.7 119.2 L521.7 119.55 529.2 119.55 M363.0 13.6 L267.75 12.5 268.1 29.05 268.1 29.55 268.3 47.1 268.3 49.3 268.35 109.25 268.1 227.5 365.15 227.5 Q363.45 220.05 362.95 210.6 L362.95 195.45 Q363.5 179.35 363.35 170.75 L363.35 111.85 363.3 96.5 Q350.55 118.85 346.1 129.0 338.7 145.95 324.4 172.85 L301.85 215.5 300.05 214.7 Q299.35 214.05 299.35 212.35 299.35 211.1 312.6 183.9 325.85 156.65 340.5 128.0 L338.8 128.0 Q334.7 128.05 278.55 126.5 L273.85 133.5 272.05 132.7 Q271.35 132.05 271.35 130.35 271.35 128.35 306.45 70.75 341.4 13.5 341.85 13.5 L344.05 13.75 Q344.35 14.0 344.35 15.85 344.35 25.15 312.0 75.6 297.95 97.55 280.45 123.7 284.25 123.5 311.35 123.5 316.15 123.5 328.25 123.85 L342.3 124.5 342.4 124.25 Q354.2 101.15 363.3 84.3 L363.4 52.7 Q363.1 49.7 362.95 46.45 L363.0 14.15 363.0 13.6 M422.05 125.45 Q422.05 136.4 419.7 144.15 L435.4 143.95 436.45 143.95 438.0 143.95 437.95 140.15 437.9 126.85 437.85 124.25 422.0 124.3 422.05 125.45 M437.85 119.95 L437.8 106.25 421.75 106.3 Q421.6 111.45 421.9 120.15 L437.85 119.95 M465.75 143.75 L465.75 124.2 444.3 124.25 442.95 124.25 443.05 127.55 443.05 128.15 Q443.05 137.35 441.6 143.9 L465.75 143.75 M465.75 119.75 L465.75 106.2 451.35 106.25 445.2 106.25 442.75 106.25 442.75 106.75 Q442.65 109.6 442.7 113.7 L442.8 119.9 446.0 119.9 465.75 119.75 M396.6 144.7 L397.4 144.6 398.55 144.55 416.15 144.2 417.0 144.15 416.9 124.3 400.25 124.25 399.2 123.8 398.9 123.3 399.05 127.4 Q399.05 138.05 396.6 144.7 M398.75 106.0 L398.75 108.25 Q398.6 112.7 398.85 120.65 L399.0 120.35 399.25 120.75 416.85 120.2 416.8 106.3 399.25 106.25 398.75 106.0 M461.5 233.6 Q461.5 235.15 454.65 247.7 L438.65 276.75 Q415.75 318.7 407.8 340.5 L491.6 340.5 Q493.15 331.4 516.65 287.35 538.15 247.0 547.65 232.5 L461.4 232.5 461.5 233.6 M457.65 232.5 L381.4 232.5 381.5 233.6 Q381.5 235.15 374.65 247.7 L358.65 276.75 Q335.75 318.7 327.8 340.5 L401.6 340.5 Q403.15 331.4 426.65 287.35 448.15 247.0 457.65 232.5 M377.65 232.5 L301.4 232.5 301.5 233.6 Q301.5 235.15 294.65 247.7 L278.65 276.75 Q255.75 318.7 247.8 340.5 L321.6 340.5 Q323.15 331.4 346.65 287.35 368.15 247.0 377.65 232.5 M209.55 13.3 L193.35 13.3 193.45 25.95 209.4 26.15 209.4 24.0 209.55 13.3 M209.35 30.3 L193.5 30.3 193.5 42.5 209.25 42.65 209.35 30.3 M214.5 42.7 L230.1 43.0 231.0 43.25 Q231.35 43.35 231.35 44.85 231.35 46.45 230.5 47.0 L228.85 47.5 214.5 47.5 214.4 63.15 232.3 63.55 Q232.2 47.6 232.35 33.0 L232.35 32.8 232.4 31.4 232.4 30.0 231.85 30.25 214.5 30.3 214.5 42.7 M188.55 13.3 L165.35 13.2 165.35 25.75 188.35 25.9 188.4 22.5 188.55 13.3 M165.35 42.3 L188.3 42.45 188.35 30.3 165.35 30.2 165.35 42.3 M165.35 47.5 L165.35 62.7 188.35 62.9 188.3 47.5 165.35 47.5 M165.35 67.2 L165.35 81.75 188.35 81.95 188.35 67.25 165.35 67.2 M193.35 82.0 L209.35 82.15 209.35 67.3 193.35 67.25 193.35 82.0 M165.35 86.2 L165.35 100.75 188.35 100.9 188.35 86.3 165.35 86.2 M232.35 67.25 L214.35 67.3 214.35 82.25 230.85 82.75 231.1 82.35 Q231.35 82.3 231.35 83.85 231.35 85.45 230.9 85.8 L229.85 86.25 214.35 86.3 214.35 101.2 Q229.8 101.4 232.35 101.65 L232.35 70.85 232.35 67.25 M193.35 86.3 L193.35 100.95 209.35 101.15 209.35 86.3 193.35 86.3 M193.5 47.5 L193.4 62.95 209.35 63.1 209.25 47.5 193.5 47.5 M232.35 107.25 L232.35 105.0 231.85 105.25 214.3 105.3 214.25 119.2 231.85 119.75 232.1 119.35 232.3 119.65 232.35 107.25 M230.85 123.25 L214.25 123.3 214.1 143.15 214.95 143.2 232.55 143.55 233.7 143.6 234.55 143.7 Q232.05 137.05 232.05 126.4 L232.2 122.3 231.9 122.8 Q231.25 123.0 230.85 123.25 M209.4 105.3 L193.3 105.25 193.3 118.95 209.25 119.15 209.4 105.3 M209.05 124.45 L209.1 123.3 193.25 123.25 193.15 142.95 195.7 142.95 211.4 143.15 Q209.05 135.4 209.05 124.45 M188.35 105.25 L165.35 105.2 165.35 118.75 188.3 118.9 188.35 105.75 188.35 105.25 M188.05 127.15 L188.2 123.25 165.35 123.2 165.35 142.75 189.55 142.9 Q188.05 136.35 188.05 127.15 M134.5 37.5 L134.6 30.05 114.5 29.85 114.5 42.0 134.45 42.15 134.5 37.5 M139.55 42.15 L160.6 42.3 160.7 30.2 139.4 30.05 139.5 38.55 139.55 42.15 M134.7 25.55 Q134.9 18.0 135.25 13.05 L114.5 12.9 114.5 25.55 123.35 25.5 134.7 25.55 M139.6 47.5 L139.6 62.6 160.5 62.7 160.55 47.5 139.6 47.5 M138.75 13.1 L139.3 25.6 160.8 25.7 Q160.85 18.75 161.05 13.2 L138.75 13.1 M109.2 12.85 L86.2 12.6 Q86.8 18.7 87.0 25.6 L109.25 25.55 109.1 16.75 109.2 12.85 M81.15 12.55 L60.5 12.3 60.5 25.65 81.25 25.6 81.1 15.75 81.15 12.55 M87.0 41.85 L109.35 42.0 109.5 35.25 109.35 29.8 87.05 29.6 87.05 33.95 87.0 41.85 M81.5 34.25 L81.35 29.5 60.5 29.25 60.5 41.75 81.35 41.85 81.5 34.25 M86.9 47.5 L86.65 62.6 109.4 62.55 109.3 47.5 86.9 47.5 M109.45 66.8 L86.55 66.55 86.5 68.75 86.7 81.6 109.5 81.55 109.5 72.0 109.45 66.8 M81.45 66.5 L60.5 66.2 60.5 81.65 81.5 81.6 81.5 71.0 81.45 66.5 M121.35 81.5 L134.5 81.6 134.5 73.85 134.45 67.0 114.5 66.85 114.5 81.5 121.35 81.5 M86.75 85.6 L86.95 100.6 109.5 100.55 109.5 85.85 86.75 85.6 M160.5 67.15 L139.55 67.05 139.5 73.75 139.5 81.6 160.5 81.75 160.5 68.5 160.5 67.15 M134.45 62.55 L134.45 47.5 114.5 47.5 114.5 62.55 126.35 62.5 134.45 62.55 M139.5 86.1 L139.5 100.6 160.5 100.7 160.5 86.2 139.5 86.1 M114.5 85.9 L114.5 100.55 121.85 100.5 134.5 100.55 134.5 86.05 114.5 85.9 M81.3 47.5 L60.5 47.5 60.5 62.65 81.4 62.6 81.3 47.5 M55.3 12.25 L32.5 11.9 32.5 25.7 55.2 25.65 55.1 17.75 55.3 12.25 M55.5 36.25 L55.3 29.2 32.5 28.85 32.5 41.6 55.4 41.7 55.5 36.25 M27.15 11.8 L11.05 11.5 11.05 12.1 11.35 23.0 11.35 24.15 11.45 29.0 11.45 31.8 11.55 41.65 12.5 41.5 27.35 41.6 27.5 33.0 27.4 28.75 13.5 28.5 13.5 27.0 15.0 25.75 27.3 25.75 27.1 14.55 27.15 11.8 M11.6 47.5 L11.5 69.25 11.5 83.0 13.0 81.75 27.5 81.75 27.5 70.5 27.45 65.7 17.5 65.5 17.5 64.0 19.0 62.75 27.4 62.75 27.3 47.5 11.6 47.5 M32.5 81.7 L55.5 81.65 55.5 73.0 55.4 66.15 32.5 65.75 32.5 81.7 M11.5 84.5 L11.5 101.2 12.0 100.75 27.5 100.75 27.5 84.8 11.5 84.5 M32.5 84.85 L32.5 100.7 55.5 100.65 55.5 85.2 32.5 84.85 M32.5 47.5 L32.5 62.75 55.35 62.65 55.3 47.5 32.5 47.5 M60.5 118.65 L81.35 118.6 81.5 107.0 81.5 104.55 60.5 104.3 60.5 118.65 M55.5 109.0 L55.5 104.2 32.5 103.85 32.5 118.7 55.45 118.65 55.5 109.0 M55.1 127.35 L55.3 122.2 32.5 121.9 32.5 142.7 56.95 142.65 Q55.1 136.55 55.1 127.35 M60.5 142.65 L83.65 142.6 Q81.1 136.1 81.1 125.35 L81.25 122.55 60.5 122.3 60.5 142.65 M27.5 103.8 L11.5 103.55 11.45 119.25 12.0 118.75 27.45 118.75 27.5 107.25 27.5 103.8 M12.2 142.75 L13.05 142.75 13.85 142.75 29.35 142.7 Q27.15 136.3 27.15 126.4 L27.35 121.8 11.4 121.55 11.25 142.75 12.2 142.75 M160.5 106.75 L160.5 105.15 139.5 105.05 139.45 118.6 160.4 118.7 160.5 106.75 M134.5 105.05 L114.5 104.9 114.5 118.55 121.35 118.5 134.45 118.55 134.5 108.75 134.5 105.05 M134.15 126.7 L134.3 123.05 114.5 122.9 114.5 142.55 118.8 142.5 120.15 142.5 120.3 142.5 120.35 142.5 120.5 142.5 120.85 142.5 136.3 142.6 Q134.15 135.95 134.15 126.7 M161.95 142.7 Q160.15 136.15 160.15 126.2 L160.25 123.15 139.4 123.05 139.25 142.6 159.3 142.7 161.95 142.7 M109.5 108.0 L109.5 104.85 87.0 104.6 87.2 118.6 109.4 118.55 109.5 108.0 M87.0 142.25 L86.25 142.6 111.25 142.55 Q109.1 136.25 109.1 126.35 L109.25 122.85 87.25 122.6 87.5 139.25 87.0 142.25 M60.5 85.3 L60.5 100.65 81.5 100.6 81.5 85.55 60.5 85.3 M131.5 233.6 Q131.5 235.15 124.65 247.7 L108.65 276.75 Q85.75 318.7 77.8 340.5 L161.6 340.5 Q163.15 331.4 186.65 287.35 208.15 247.0 217.65 232.5 L131.4 232.5 131.5 233.6 M156.55 361.75 L232.35 361.5 Q298.85 361.9 310.45 362.5 311.0 360.0 316.4 350.8 L319.65 345.5 165.0 345.5 161.4 352.8 156.55 361.75 M155.5 384.75 L233.85 384.5 Q296.4 384.9 311.25 385.4 L311.6 385.1 Q311.35 384.3 311.35 383.25 L311.45 382.15 Q310.35 379.05 310.35 372.75 310.35 368.85 310.75 366.25 236.1 366.5 155.5 364.6 L155.5 384.75 M297.65 232.5 L221.4 232.5 221.5 233.6 Q221.5 235.15 214.65 247.7 L198.65 276.75 Q175.75 318.7 167.8 340.5 L241.6 340.5 Q243.15 331.4 266.65 287.35 288.15 247.0 297.65 232.5" fill="#000000" fill-rule="evenodd" stroke="none"/>
      <path d="M10.15 -1.55 L11.0 -2.25 29.5 -2.3 Q27.8 2.2 27.3 8.75 L12.0 8.75 10.95 9.65 10.9 8.4 10.45 1.2 10.45 1.1 10.4 0.55 10.15 -1.55 M31.85 -2.3 L122.85 -2.5 161.75 -2.3 Q161.4 1.85 161.2 8.75 L138.35 8.6 Q137.8 3.5 137.0 3.5 136.15 3.5 135.6 8.6 L119.85 8.5 114.5 8.5 114.5 1.5 Q113.6 0.15 112.0 -0.5 110.25 2.95 109.55 8.55 L85.75 8.6 Q85.05 3.2 84.0 -1.5 82.1 2.3 81.45 8.6 L60.5 8.65 60.5 2.5 Q59.6 1.15 58.0 0.5 56.4 3.7 55.7 8.65 L32.5 8.7 32.5 -1.5 31.85 -2.3 M165.35 -2.25 L188.95 -2.1 188.6 8.95 165.35 8.75 165.35 -2.25 M192.95 -2.05 L210.05 -1.9 209.65 9.2 193.25 9.0 192.95 -2.05 M213.8 -1.85 L234.2 -1.4 Q233.85 -0.25 233.55 2.25 L232.65 2.25 232.65 2.35 233.55 2.4 233.55 2.5 232.5 24.6 232.45 26.7 Q230.05 26.4 214.45 26.2 L214.3 13.3 227.85 13.25 228.9 12.8 Q229.35 12.45 229.35 10.85 229.35 8.35 228.85 9.75 L214.2 9.25 213.8 -1.85 M395.45 -3.0 L417.35 -3.0 417.35 -2.45 417.3 -0.85 Q417.05 3.55 416.95 9.55 L416.9 10.25 402.25 10.75 Q401.75 9.35 401.75 11.85 401.75 13.45 402.2 13.8 L402.45 13.9 Q402.95 14.05 403.25 14.25 L416.8 14.3 416.65 27.2 Q401.05 27.4 398.7 27.7 L398.65 25.6 397.6 3.5 397.6 3.4 398.45 3.35 398.5 3.25 397.55 3.25 396.95 -0.4 396.75 -1.0 396.25 -1.5 Q396.0 -1.5 395.8 -1.0 L395.6 -0.95 395.45 -2.45 395.45 -3.0 M420.6 -3.0 L438.3 -3.0 438.25 -2.35 438.2 -1.05 437.85 9.6 437.85 10.0 421.45 10.2 421.45 9.55 421.05 -0.9 421.0 -2.0 420.6 -3.0 M441.75 -3.0 L466.1 -3.0 465.75 -2.0 465.75 9.75 442.5 9.95 442.5 9.65 442.15 -1.1 442.1 -2.0 441.75 -3.0 M471.05 -3.0 L493.0 -3.0 492.95 -2.1 492.75 9.6 471.0 9.75 471.05 1.65 471.05 -2.2 471.05 -3.0 M494.8 -3.0 L516.25 -3.0 516.15 -1.95 516.05 1.65 Q516.05 6.15 516.6 9.05 L516.6 9.5 511.25 9.5 495.5 9.6 494.85 -2.1 494.8 -3.0 M520.85 -3.0 L545.1 -3.0 545.05 -1.55 545.05 4.8 545.15 9.6 521.55 9.55 521.05 6.3 521.05 1.8 520.95 -1.9 520.85 -3.0 M550.25 -3.0 L551.95 -3.0 551.95 9.6 551.8 9.6 550.05 9.6 550.05 4.65 550.3 -1.4 550.25 -3.0 M551.95 13.55 L551.95 26.6 549.85 26.6 550.0 16.75 550.0 14.25 550.0 14.15 550.0 13.55 551.95 13.55 M551.95 30.5 L551.95 42.8 549.75 42.85 549.6 35.25 549.6 34.95 549.75 30.5 551.1 30.5 551.95 30.5 M551.95 48.5 L551.95 63.6 549.75 63.6 549.8 55.15 549.8 48.5 551.95 48.5 M551.95 67.45 L551.95 82.6 549.6 82.6 549.6 72.0 549.7 67.5 551.95 67.45 M551.95 86.5 L551.95 101.6 549.6 101.6 549.6 86.55 551.95 86.5 M551.95 105.5 L551.95 119.6 549.75 119.6 Q549.5 111.95 549.6 108.0 L549.6 105.55 551.95 105.5 M551.95 123.5 L551.95 143.6 547.5 143.6 Q550.0 137.1 550.0 126.35 L549.9 123.55 551.95 123.5 M236.1 1.55 L236.0 0.7 235.6 -1.3 235.85 -1.25 Q236.35 -2.6 236.35 -0.1 L236.1 1.55 M544.85 14.25 Q544.3 20.05 544.15 26.6 L521.9 26.55 522.0 17.75 521.95 14.3 521.9 13.85 544.95 13.6 544.85 14.25 M544.05 34.95 L544.15 42.85 521.75 43.0 521.6 36.25 521.8 30.8 544.05 30.6 544.05 34.95 M495.9 14.05 L516.6 13.9 516.6 26.55 507.75 26.5 496.4 26.55 495.9 14.25 495.9 14.05 M492.4 14.25 Q492.05 19.15 491.85 26.6 L478.8 26.65 471.4 26.7 470.35 26.7 470.1 14.7 470.8 14.4 470.85 14.2 492.4 14.1 492.4 14.25 M491.6 43.15 L474.1 43.25 470.55 43.3 470.4 31.2 477.65 31.15 491.75 31.05 491.6 39.55 491.6 43.15 M496.5 31.05 L516.6 30.85 516.6 43.0 496.65 43.15 496.6 38.5 496.5 31.05 M516.6 48.5 L516.6 63.55 504.75 63.5 496.7 63.55 496.7 48.5 516.6 48.5 M521.7 67.8 L538.7 67.6 544.55 67.55 544.6 69.75 544.45 82.6 541.0 82.6 533.7 82.55 521.6 82.55 521.6 73.0 521.7 67.8 M491.6 82.6 L470.6 82.75 470.6 69.5 470.6 68.15 491.55 68.05 491.6 74.75 491.6 82.6 M496.6 74.85 L496.65 68.0 516.6 67.85 516.6 82.5 509.75 82.5 496.6 82.6 496.6 74.85 M516.6 86.9 L516.6 101.55 509.25 101.5 496.6 101.55 496.6 87.05 516.6 86.9 M544.5 63.6 L540.05 63.6 521.75 63.55 521.8 48.5 544.2 48.5 544.25 51.0 544.5 63.6 M544.4 86.6 L544.15 101.6 534.9 101.55 527.45 101.55 521.6 101.55 521.6 86.85 532.35 86.7 539.7 86.65 544.4 86.6 M491.55 63.6 L470.6 63.7 470.6 53.9 470.55 48.5 491.55 48.5 491.55 63.6 M529.2 119.55 L521.7 119.55 521.7 119.2 Q521.5 112.55 521.6 109.0 L521.6 105.85 526.05 105.8 533.6 105.7 544.1 105.6 543.9 119.6 529.2 119.55 M544.1 143.25 L544.9 143.6 521.75 143.55 519.85 143.55 Q522.0 137.25 522.0 127.35 L521.85 123.85 527.9 123.8 543.85 123.6 543.6 140.25 544.1 143.25 M516.6 119.55 L509.75 119.5 496.65 119.55 496.6 109.75 496.6 106.05 516.6 105.9 516.6 119.55 M491.7 119.6 L470.7 119.7 Q470.5 111.85 470.6 107.75 L470.6 106.15 491.65 106.05 491.7 119.6 M496.85 124.7 L496.8 124.05 516.6 123.9 516.6 143.55 514.65 143.55 512.3 143.5 510.95 143.5 510.85 143.5 510.75 143.5 510.65 143.5 510.25 143.5 494.8 143.6 Q496.85 137.3 496.95 128.7 L496.95 127.7 496.85 124.7 M491.7 124.65 L491.75 128.6 491.85 143.6 471.85 143.7 469.15 143.7 Q470.85 137.45 470.95 128.15 L470.95 127.2 470.85 124.55 470.85 124.15 491.7 124.05 491.7 124.65 M491.65 101.6 L470.6 101.7 470.6 87.2 491.6 87.1 491.65 101.6 M465.75 43.3 L465.6 43.3 442.85 43.45 442.8 31.3 465.75 31.2 465.75 43.3 M465.75 26.75 L442.75 26.9 442.7 23.5 442.6 14.3 465.75 14.2 465.75 26.75 M421.7 25.0 L421.55 14.3 437.8 14.3 437.65 26.95 421.75 27.15 421.7 25.0 M421.8 31.3 L437.65 31.3 437.65 43.5 421.85 43.65 421.8 31.3 M416.6 43.7 L401.0 44.0 400.1 44.25 Q399.75 44.35 399.75 45.85 399.75 47.45 400.6 48.0 L402.25 48.5 416.65 48.5 416.7 57.55 416.7 61.25 416.75 64.15 398.8 64.55 398.85 60.85 398.85 57.65 398.75 34.0 398.75 33.8 398.75 32.4 398.75 31.0 399.25 31.25 416.65 31.3 416.6 43.7 M437.65 48.5 L437.7 57.7 437.7 61.7 437.75 63.95 421.8 64.1 421.8 61.35 421.85 57.5 421.85 48.5 437.65 48.5 M442.85 57.8 L442.85 48.5 465.75 48.5 465.75 63.7 458.9 63.75 442.8 63.9 442.8 61.8 442.85 57.8 M421.75 68.3 L437.75 68.25 437.75 83.0 421.75 83.15 421.75 68.3 M416.75 83.25 L400.25 83.75 400.0 83.35 Q399.75 83.3 399.75 84.85 399.75 86.45 400.2 86.8 L401.25 87.25 416.75 87.3 416.8 102.2 Q401.3 102.4 398.75 102.65 L398.75 71.85 398.8 68.25 416.75 68.3 416.75 83.25 M442.75 68.25 L457.5 68.2 465.6 68.2 465.75 68.2 465.75 82.75 460.25 82.8 452.8 82.85 442.75 82.95 442.75 68.25 M437.75 87.3 L437.8 101.95 421.75 102.15 421.75 87.3 437.75 87.3 M458.6 87.25 L465.75 87.2 465.75 101.75 453.05 101.85 446.65 101.9 442.75 101.9 442.75 87.3 451.4 87.25 458.6 87.25 M398.75 106.0 L399.25 106.25 416.8 106.3 416.85 120.2 399.25 120.75 399.0 120.35 398.85 120.65 Q398.6 112.7 398.75 108.25 L398.75 106.0 M396.6 144.7 Q399.05 138.05 399.05 127.4 L398.9 123.3 399.2 123.8 400.25 124.25 416.9 124.3 417.0 144.15 416.15 144.2 398.55 144.55 397.4 144.6 396.6 144.7 M465.75 119.75 L446.0 119.9 442.8 119.9 442.7 113.7 Q442.65 109.6 442.75 106.75 L442.75 106.25 445.2 106.25 451.35 106.25 465.75 106.2 465.75 119.75 M465.75 143.75 L441.6 143.9 Q443.05 137.35 443.05 128.15 L443.05 127.55 442.95 124.25 444.3 124.25 465.75 124.2 465.75 143.75 M437.85 119.95 L421.9 120.15 Q421.6 111.45 421.75 106.3 L437.8 106.25 437.85 119.95 M422.05 125.45 L422.0 124.3 437.85 124.25 437.9 126.85 437.95 140.15 438.0 143.95 436.45 143.95 435.4 143.95 419.7 144.15 Q422.05 136.4 422.05 125.45 M27.15 11.8 L27.1 14.55 27.3 25.75 15.0 25.75 13.5 27.0 13.5 28.5 27.4 28.75 27.5 33.0 27.35 41.6 12.5 41.5 11.55 41.65 11.45 31.8 11.45 29.0 11.35 24.15 11.35 23.0 11.05 12.1 11.05 11.5 27.15 11.8 M55.5 36.25 L55.4 41.7 32.5 41.6 32.5 28.85 55.3 29.2 55.5 36.25 M55.3 12.25 L55.1 17.75 55.2 25.65 32.5 25.7 32.5 11.9 55.3 12.25 M81.3 47.5 L81.4 62.6 60.5 62.65 60.5 47.5 81.3 47.5 M114.5 85.9 L134.5 86.05 134.5 100.55 121.85 100.5 114.5 100.55 114.5 85.9 M139.5 86.1 L160.5 86.2 160.5 100.7 139.5 100.6 139.5 86.1 M134.45 62.55 L126.35 62.5 114.5 62.55 114.5 47.5 134.45 47.5 134.45 62.55 M160.5 67.15 L160.5 68.5 160.5 81.75 139.5 81.6 139.5 73.75 139.55 67.05 160.5 67.15 M86.75 85.6 L109.5 85.85 109.5 100.55 86.95 100.6 86.75 85.6 M121.35 81.5 L114.5 81.5 114.5 66.85 134.45 67.0 134.5 73.85 134.5 81.6 121.35 81.5 M81.45 66.5 L81.5 71.0 81.5 81.6 60.5 81.65 60.5 66.2 81.45 66.5 M109.45 66.8 L109.5 72.0 109.5 81.55 86.7 81.6 86.5 68.75 86.55 66.55 109.45 66.8 M86.9 47.5 L109.3 47.5 109.4 62.55 86.65 62.6 86.9 47.5 M81.5 34.25 L81.35 41.85 60.5 41.75 60.5 29.25 81.35 29.5 81.5 34.25 M87.0 41.85 L87.05 33.95 87.05 29.6 109.35 29.8 109.5 35.25 109.35 42.0 87.0 41.85 M81.15 12.55 L81.1 15.75 81.25 25.6 60.5 25.65 60.5 12.3 81.15 12.55 M109.2 12.85 L109.1 16.75 109.25 25.55 87.0 25.6 Q86.8 18.7 86.2 12.6 L109.2 12.85 M138.75 13.1 L161.05 13.2 Q160.85 18.75 160.8 25.7 L139.3 25.6 138.75 13.1 M139.6 47.5 L160.55 47.5 160.5 62.7 139.6 62.6 139.6 47.5 M134.7 25.55 L123.35 25.5 114.5 25.55 114.5 12.9 135.25 13.05 Q134.9 18.0 134.7 25.55 M139.55 42.15 L139.5 38.55 139.4 30.05 160.7 30.2 160.6 42.3 139.55 42.15 M134.5 37.5 L134.45 42.15 114.5 42.0 114.5 29.85 134.6 30.05 134.5 37.5 M188.05 127.15 Q188.05 136.35 189.55 142.9 L165.35 142.75 165.35 123.2 188.2 123.25 188.05 127.15 M188.35 105.25 L188.35 105.75 188.3 118.9 165.35 118.75 165.35 105.2 188.35 105.25 M209.05 124.45 Q209.05 135.4 211.4 143.15 L195.7 142.95 193.15 142.95 193.25 123.25 209.1 123.3 209.05 124.45 M209.4 105.3 L209.25 119.15 193.3 118.95 193.3 105.25 209.4 105.3 M230.85 123.25 Q231.25 123.0 231.9 122.8 L232.2 122.3 232.05 126.4 Q232.05 137.05 234.55 143.7 L233.7 143.6 232.55 143.55 214.95 143.2 214.1 143.15 214.25 123.3 230.85 123.25 M232.35 107.25 L232.3 119.65 232.1 119.35 231.85 119.75 214.25 119.2 214.3 105.3 231.85 105.25 232.35 105.0 232.35 107.25 M193.5 47.5 L209.25 47.5 209.35 63.1 193.4 62.95 193.5 47.5 M193.35 86.3 L209.35 86.3 209.35 101.15 193.35 100.95 193.35 86.3 M232.35 67.25 L232.35 70.85 232.35 101.65 Q229.8 101.4 214.35 101.2 L214.35 86.3 229.85 86.25 230.9 85.8 Q231.35 85.45 231.35 83.85 231.35 82.3 231.1 82.35 L230.85 82.75 214.35 82.25 214.35 67.3 232.35 67.25 M165.35 86.2 L188.35 86.3 188.35 100.9 165.35 100.75 165.35 86.2 M193.35 82.0 L193.35 67.25 209.35 67.3 209.35 82.15 193.35 82.0 M165.35 67.2 L188.35 67.25 188.35 81.95 165.35 81.75 165.35 67.2 M165.35 47.5 L188.3 47.5 188.35 62.9 165.35 62.7 165.35 47.5 M165.35 42.3 L165.35 30.2 188.35 30.3 188.3 42.45 165.35 42.3 M188.55 13.3 L188.4 22.5 188.35 25.9 165.35 25.75 165.35 13.2 188.55 13.3 M214.5 42.7 L214.5 30.3 231.85 30.25 232.4 30.0 232.4 31.4 232.35 32.8 232.35 33.0 Q232.2 47.6 232.3 63.55 L214.4 63.15 214.5 47.5 228.85 47.5 230.5 47.0 Q231.35 46.45 231.35 44.85 231.35 43.35 231.0 43.25 L230.1 43.0 214.5 42.7 M209.35 30.3 L209.25 42.65 193.5 42.5 193.5 30.3 209.35 30.3 M209.55 13.3 L209.4 24.0 209.4 26.15 193.45 25.95 193.35 13.3 209.55 13.3 M60.5 85.3 L81.5 85.55 81.5 100.6 60.5 100.65 60.5 85.3 M87.0 142.25 L87.5 139.25 87.25 122.6 109.25 122.85 109.1 126.35 Q109.1 136.25 111.25 142.55 L86.25 142.6 87.0 142.25 M109.5 108.0 L109.4 118.55 87.2 118.6 87.0 104.6 109.5 104.85 109.5 108.0 M161.95 142.7 L159.3 142.7 139.25 142.6 139.4 123.05 160.25 123.15 160.15 126.2 Q160.15 136.15 161.95 142.7 M134.15 126.7 Q134.15 135.95 136.3 142.6 L120.85 142.5 120.5 142.5 120.35 142.5 120.3 142.5 120.15 142.5 118.8 142.5 114.5 142.55 114.5 122.9 134.3 123.05 134.15 126.7 M134.5 105.05 L134.5 108.75 134.45 118.55 121.35 118.5 114.5 118.55 114.5 104.9 134.5 105.05 M160.5 106.75 L160.4 118.7 139.45 118.6 139.5 105.05 160.5 105.15 160.5 106.75 M12.2 142.75 L11.25 142.75 11.4 121.55 27.35 121.8 27.15 126.4 Q27.15 136.3 29.35 142.7 L13.85 142.75 13.05 142.75 12.2 142.75 M27.5 103.8 L27.5 107.25 27.45 118.75 12.0 118.75 11.45 119.25 11.5 103.55 27.5 103.8 M60.5 142.65 L60.5 122.3 81.25 122.55 81.1 125.35 Q81.1 136.1 83.65 142.6 L60.5 142.65 M55.1 127.35 Q55.1 136.55 56.95 142.65 L32.5 142.7 32.5 121.9 55.3 122.2 55.1 127.35 M55.5 109.0 L55.45 118.65 32.5 118.7 32.5 103.85 55.5 104.2 55.5 109.0 M60.5 118.65 L60.5 104.3 81.5 104.55 81.5 107.0 81.35 118.6 60.5 118.65 M32.5 47.5 L55.3 47.5 55.35 62.65 32.5 62.75 32.5 47.5 M32.5 84.85 L55.5 85.2 55.5 100.65 32.5 100.7 32.5 84.85 M11.5 84.5 L27.5 84.8 27.5 100.75 12.0 100.75 11.5 101.2 11.5 84.5 M32.5 81.7 L32.5 65.75 55.4 66.15 55.5 73.0 55.5 81.65 32.5 81.7 M11.6 47.5 L27.3 47.5 27.4 62.75 19.0 62.75 17.5 64.0 17.5 65.5 27.45 65.7 27.5 70.5 27.5 81.75 13.0 81.75 11.5 83.0 11.5 69.25 11.6 47.5" fill="#7d5802" fill-rule="evenodd" stroke="none"/>
      <path d="M235.35 -2.0 L264.15 -2.0 264.55 -1.95 264.25 3.25 263.4 46.1 263.4 46.5 263.4 47.65 263.4 48.25 Q263.15 77.85 263.35 109.35 L263.35 169.0 Q263.55 178.75 262.75 199.4 262.7 204.2 262.9 208.5 243.55 207.9 129.35 207.5 L126.2 207.5 125.9 207.5 124.65 207.5 124.0 207.5 -1.0 207.75 -1.0 207.5 Q-3.75 197.5 -3.8 181.5 -3.3 163.3 -3.5 154.5 L-3.5 101.25 -3.35 47.95 Q-3.0 20.75 -1.45 1.0 L-2.3 0.4 Q-2.75 -0.25 -2.5 -2.0 L7.9 -2.0 7.55 1.0 6.95 1.25 7.55 1.3 7.55 1.4 7.4 3.05 6.55 30.75 Q6.3 49.1 6.5 69.35 L6.5 106.5 Q6.7 112.8 6.15 125.6 4.95 144.3 6.5 145.35 L6.5 145.5 Q100.7 147.1 190.8 147.25 L190.85 147.5 191.6 147.25 233.85 147.25 234.9 146.8 Q235.35 146.45 235.35 144.85 L235.35 144.35 237.1 143.5 237.35 70.75 237.4 34.05 237.35 28.4 237.35 28.15 237.3 26.8 237.3 25.9 237.3 25.0 236.25 2.9 236.2 2.45 236.1 1.55 236.35 -0.1 Q236.35 -2.6 235.85 -1.25 L235.6 -1.3 235.5 -1.65 235.35 -2.0 M267.2 -1.7 L267.35 -0.55 267.35 -0.1 267.35 0.5 267.35 1.05 267.2 -1.7 M368.05 -3.0 L394.85 -3.0 394.85 -2.45 394.9 0.2 394.9 3.45 394.85 3.9 393.85 26.0 393.85 26.9 393.8 27.8 393.8 29.15 393.8 29.4 393.7 35.05 393.7 38.6 393.65 42.4 393.65 57.7 393.65 60.7 393.75 71.75 Q393.75 119.75 394.0 144.5 L395.75 145.35 395.75 145.85 Q395.75 147.45 396.2 147.8 L397.25 148.25 429.3 148.3 434.7 148.25 439.5 148.25 440.25 148.5 440.35 148.25 513.45 147.9 520.45 147.85 551.95 147.55 551.95 207.65 511.85 207.5 503.15 207.55 497.55 207.55 411.15 207.7 405.0 207.7 368.25 207.75 368.35 111.75 368.45 87.5 368.45 74.75 368.3 52.5 368.0 25.2 368.0 13.65 368.0 9.6 368.05 -2.4 368.05 -3.0 M395.6 -0.95 L395.8 -1.0 395.65 -0.65 395.6 -0.95 M397.55 3.25 L398.5 3.25 398.45 3.35 397.6 3.4 397.55 3.25 M233.55 2.4 L232.65 2.35 232.65 2.25 233.55 2.25 233.55 2.4" fill="#976a02" fill-rule="evenodd" stroke="none"/>
      <path d="M267.35 -0.55 L267.35 -1.0 268.85 -2.25 321.95 -2.35 362.9 -2.4 362.95 4.2 363.0 7.7 363.05 9.6 268.85 9.75 267.7 10.75 267.55 5.2 267.55 4.55 267.5 3.9 267.45 2.95 267.45 2.65 267.4 2.35 267.4 1.7 267.35 1.4 267.35 1.15 267.35 1.05 267.35 0.5 267.35 -0.1 267.35 -0.55 M551.95 212.15 L551.95 227.7 541.8 227.55 510.85 227.5 510.6 227.5 410.5 227.6 368.15 227.75 368.15 227.5 368.25 210.55 403.75 211.0 409.85 211.1 496.4 211.85 502.0 211.9 551.95 212.15 M-0.8 227.5 L-0.8 227.45 Q-2.5 224.55 -2.5 216.75 -2.5 213.1 -2.15 210.6 L-1.1 210.6 2.1 210.65 Q135.5 212.45 263.15 212.25 263.7 220.85 265.35 227.5 L-0.8 227.5" fill="#b88203" fill-rule="evenodd" stroke="none"/>
      <path d="M363.0 13.6 L363.0 14.15 362.95 46.45 Q363.1 49.7 363.4 52.7 L363.3 84.3 Q354.2 101.15 342.4 124.25 L342.3 124.5 328.25 123.85 Q316.15 123.5 311.35 123.5 284.25 123.5 280.45 123.7 297.95 97.55 312.0 75.6 344.35 25.15 344.35 15.85 344.35 14.0 344.05 13.75 L341.85 13.5 Q341.4 13.5 306.45 70.75 271.35 128.35 271.35 130.35 271.35 132.05 272.05 132.7 L273.85 133.5 278.55 126.5 Q334.7 128.05 338.8 128.0 L340.5 128.0 Q325.85 156.65 312.6 183.9 299.35 211.1 299.35 212.35 299.35 214.05 300.05 214.7 L301.85 215.5 324.4 172.85 Q338.7 145.95 346.1 129.0 350.55 118.85 363.3 96.5 L363.35 111.85 363.35 170.75 Q363.5 179.35 362.95 195.45 L362.95 210.6 Q363.45 220.05 365.15 227.5 L268.1 227.5 268.35 109.25 268.3 49.3 268.3 47.1 268.1 29.55 268.1 29.05 267.75 12.5 363.0 13.6" fill="#95622f" fill-rule="evenodd" stroke="none"/>
      <path d="M550.95 235.35 L550.95 340.55 550.85 340.5 497.8 340.5 Q505.75 318.7 528.65 276.75 L544.65 247.7 546.5 244.3 546.95 244.55 547.0 243.4 550.9 235.55 550.9 235.5 550.95 235.35 M297.35 405.25 Q224.4 405.5 145.3 403.55 L145.6 403.15 147.35 401.1 147.65 400.75 147.7 400.75 148.3 400.05 150.4 397.7 150.65 397.4 Q156.5 390.95 156.5 388.0 L156.5 387.95 156.5 387.65 Q234.8 389.4 307.65 389.3 L304.05 393.65 Q300.15 398.65 298.55 401.6 297.35 403.7 297.35 404.75 L297.35 405.25 M-1.45 341.45 Q-3.75 335.95 -3.8 328.1 -3.3 318.3 -3.5 313.5 L-3.5 285.0 Q-3.85 265.5 -3.5 255.75 L-3.8 241.0 Q-3.75 232.35 -1.0 227.5 L-1.0 232.5 47.65 232.5 Q38.15 247.0 16.65 287.35 L16.5 287.65 15.85 288.9 15.7 289.15 15.0 290.45 4.65 310.35 4.4 310.9 4.05 311.6 -0.2 320.2 -0.6 321.05 -0.7 321.25 -0.8 321.5 -0.85 321.55 -1.0 321.9 -1.0 337.35 Q1.2 331.6 4.35 324.7 L7.05 318.8 7.45 317.95 7.5 317.8 7.55 317.75 7.6 317.7 8.35 316.05 8.9 314.9 9.35 314.05 27.95 278.1 28.05 277.95 28.1 277.85 28.35 277.35 28.35 277.3 28.65 276.75 44.65 247.7 Q51.5 235.15 51.5 233.6 L51.4 232.5 127.65 232.5 Q118.15 247.0 96.65 287.35 73.15 331.4 71.6 340.5 L2.0 340.5 1.5 339.55 1.5 340.5 0.0 340.5 0.0 340.55 -0.4 340.9 -1.05 341.25 -1.45 341.45 M457.65 232.5 Q448.15 247.0 426.65 287.35 403.15 331.4 401.6 340.5 L327.8 340.5 Q335.75 318.7 358.65 276.75 L374.65 247.7 Q381.5 235.15 381.5 233.6 L381.4 232.5 457.65 232.5 M461.5 233.6 L461.4 232.5 547.65 232.5 Q538.15 247.0 516.65 287.35 493.15 331.4 491.6 340.5 L407.8 340.5 Q415.75 318.7 438.65 276.75 L454.65 247.7 Q461.5 235.15 461.5 233.6 M377.65 232.5 Q368.15 247.0 346.65 287.35 323.15 331.4 321.6 340.5 L247.8 340.5 Q255.75 318.7 278.65 276.75 L294.65 247.7 Q301.5 235.15 301.5 233.6 L301.4 232.5 377.65 232.5 M131.5 233.6 L131.4 232.5 217.65 232.5 Q208.15 247.0 186.65 287.35 163.15 331.4 161.6 340.5 L77.8 340.5 Q85.75 318.7 108.65 276.75 L124.65 247.7 Q131.5 235.15 131.5 233.6 M156.55 361.75 L161.4 352.8 165.0 345.5 319.65 345.5 316.4 350.8 Q311.0 360.0 310.45 362.5 298.85 361.9 232.35 361.5 L156.55 361.75 M297.65 232.5 Q288.15 247.0 266.65 287.35 243.15 331.4 241.6 340.5 L167.8 340.5 Q175.75 318.7 198.65 276.75 L214.65 247.7 Q221.5 235.15 221.5 233.6 L221.4 232.5 297.65 232.5" fill="#a86d35" fill-rule="evenodd" stroke="none"/>
      <path d="M552.25 345.15 Q552.75 349.15 552.35 356.75 L552.15 371.25 551.4 371.25 550.95 371.25 550.8 371.25 549.35 371.25 547.7 371.2 452.6 370.5 451.65 370.5 450.7 370.5 449.75 370.5 448.8 370.5 447.85 370.5 446.85 370.5 330.5 370.75 330.4 359.55 Q330.15 349.65 329.35 345.5 L550.9 345.5 551.85 345.25 552.25 345.15 M-2.4 370.0 Q-3.95 367.85 -4.35 363.65 L-4.5 356.5 -4.35 349.4 Q-3.95 345.15 -2.4 343.0 -2.05 344.45 -0.75 345.2 L-0.2 345.45 -0.15 345.55 0.0 345.5 159.4 345.5 157.55 348.75 Q150.5 361.35 150.5 363.35 150.5 365.0 151.2 365.7 150.85 366.8 150.65 368.25 L150.55 370.9 Q132.9 370.4 1.05 369.5 L1.0 369.25 0.05 369.5 -0.5 369.5 -2.4 370.0 M155.5 384.75 L155.5 364.6 Q236.1 366.5 310.75 366.25 310.35 368.85 310.35 372.75 310.35 379.05 311.45 382.15 L311.35 383.25 Q311.35 384.3 311.6 385.1 L311.25 385.4 Q296.4 384.9 233.85 384.5 L155.5 384.75" fill="#8d5c2e" fill-rule="evenodd" stroke="none"/>
      <path d="M552.65 375.3 L552.95 376.45 552.95 404.3 Q444.95 404.35 331.55 402.55 L330.25 402.55 330.25 399.75 330.35 382.55 330.35 382.05 330.35 381.6 330.35 381.1 330.35 380.35 330.35 379.6 330.35 379.3 330.35 379.0 330.35 378.7 330.35 378.4 330.35 378.05 330.35 377.75 330.35 377.4 330.35 377.1 330.35 376.75 330.45 373.6 Q442.5 375.35 549.15 375.3 L552.65 375.3 M140.55 404.25 Q75.0 404.45 3.25 402.55 L3.25 402.75 1.0 403.5 Q-1.5 400.0 -1.5 387.25 -1.5 378.65 -0.4 374.55 L2.4 374.65 34.7 375.15 75.0 375.5 150.5 375.25 Q150.5 380.5 150.65 381.85 150.9 384.25 151.75 385.8 L151.5 386.0 151.5 386.65 146.4 392.7 144.85 394.8 144.6 395.15 143.25 397.1 Q142.0 399.0 141.35 400.5 140.5 402.25 140.5 403.35 L140.55 404.25 M3.35 399.8 L3.35 400.05 4.0 399.75 3.35 399.8" fill="#a4e787" fill-rule="evenodd" stroke="none"/>
      <path d="M331.55 402.55 L331.35 402.85 331.25 404.5 330.2 405.2 330.25 402.55 331.55 402.55 M326.55 405.45 L316.85 405.5 303.5 405.4 307.1 401.15 315.4 389.1 315.9 388.8 316.35 387.65 317.35 386.0 Q317.35 385.35 316.35 384.1 L316.35 383.35 Q316.35 381.6 315.85 380.95 L315.25 380.45 315.35 372.85 Q315.35 367.55 314.55 364.65 317.15 361.5 321.0 355.55 324.65 349.9 326.2 346.3 325.55 350.25 325.35 358.5 325.15 366.7 325.35 376.85 325.35 390.5 325.55 394.55 325.7 397.85 326.0 400.75 326.2 403.25 326.55 405.45" fill="#734d26" fill-rule="evenodd" stroke="none"/>
    </g>
  </defs>
</svg>
