<?xml version="1.0" encoding="UTF-8" standalone="no"?>
<svg xmlns:xlink="http://www.w3.org/1999/xlink" height="842.55px" width="1337.95px" xmlns="http://www.w3.org/2000/svg">
  <g transform="matrix(1, 0, 0, 1, 407.45, 285.05)">
    <use height="4.5" transform="matrix(5.4867, 0.0, 0.0, 81.5667, 3.2875, 23.0167)" width="99.75" xlink:href="#shape0"/>
    <use height="517.75" transform="matrix(1.0, 0.0, 0.0, 1.0, -43.8, -116.0)" width="672.65" xlink:href="#shape1"/>
  </g>
  <defs>
    <g id="shape0" transform="matrix(1, 0, 0, 1, 49.85, -2.5)">
      <path d="M49.9 7.0 L-49.85 7.0 -49.85 2.5 49.9 2.5 49.9 7.0" fill="#ffffff" fill-rule="evenodd" stroke="none"/>
    </g>
    <g id="shape1" transform="matrix(1, 0, 0, 1, 43.8, 116.0)">
      <path d="M-42.55 147.75 L-42.6 147.75 -42.85 94.55 Q-42.65 46.65 -40.95 32.85 -40.95 23.0 -39.05 2.4 -37.15 -18.2 -37.15 -28.5 L-39.05 -104.1 -39.05 -104.5 Q-40.0 -105.35 -40.0 -106.5 -41.05 -107.4 -41.15 -108.1 -41.25 -109.35 -36.45 -110.3 -21.9 -113.2 38.25 -113.15 L114.1 -111.0 Q127.3 -112.35 306.0 -115.55 L351.7 -116.0 Q403.05 -115.05 405.2 -114.6 412.8 -113.15 524.8 -113.15 599.35 -113.2 612.15 -112.5 L615.7 -112.3 Q615.9 -113.15 616.15 -113.15 L616.5 -112.2 Q619.25 -111.9 619.8 -111.35 620.4 -110.9 619.7 -109.45 619.7 -107.2 617.3 -106.25 L617.15 -106.25 Q618.6 -84.5 619.7 5.2 620.4 64.4 620.65 123.8 L620.65 134.15 620.05 138.35 620.55 139.65 Q609.15 138.95 564.3 137.95 542.85 137.95 542.9 138.45 323.65 138.8 243.6 140.55 198.0 141.5 181.9 143.35 L180.25 143.2 180.15 143.35 177.9 143.35 178.3 140.6 178.3 133.1 Q178.05 84.2 177.35 35.55 176.5 -21.95 175.45 -45.5 L175.9 -55.85 177.55 -56.2 Q178.25 -56.6 177.35 -58.1 176.85 -59.3 176.9 -59.9 176.45 -62.95 177.65 -64.95 L171.0 -64.0 160.3 -63.0 Q131.85 -62.85 111.2 -61.75 67.2 -61.55 52.05 -58.95 L51.15 -58.8 51.1 -58.95 50.75 -58.7 Q44.8 -57.55 42.6 -55.85 40.85 -54.55 40.85 -52.05 L40.9 -50.65 40.85 -49.8 Q40.85 -30.2 41.85 -1.4 L43.7 47.6 Q44.7 75.5 49.2 107.55 52.2 129.2 55.2 138.4 L40.6 137.95 21.6 138.2 Q4.35 140.8 -1.45 141.05 L-36.45 143.15 Q-39.8 143.5 -40.5 144.3 -40.9 144.65 -40.95 146.05 -42.15 146.65 -42.55 147.75 M385.65 -49.65 Q384.15 -60.95 380.95 -68.2 363.85 -106.5 339.3 -106.5 311.6 -106.5 298.65 -43.65 292.1 -12.0 291.05 22.3 L292.25 58.3 293.65 59.2 295.55 59.5 Q297.9 59.5 298.65 57.6 314.8 49.4 326.75 53.1 329.85 54.0 335.2 55.95 339.85 57.05 344.3 55.45 L384.0 53.8 Q391.85 53.0 393.65 50.5 394.25 49.6 394.25 45.6 394.25 41.75 391.75 12.9 389.2 -17.45 387.6 -30.4 L385.65 -49.65" fill="#eaeaea" fill-rule="evenodd" stroke="none"/>
      <path d="M622.55 145.05 Q622.45 146.6 622.0 147.05 L621.85 147.25 621.6 149.15 619.7 206.25 Q619.65 232.8 620.5 252.05 L604.3 232.2 Q591.45 216.6 586.3 210.85 585.9 209.85 585.95 209.3 585.6 207.1 586.75 205.7 577.95 207.4 550.95 207.4 527.2 207.4 519.5 208.05 L519.1 207.4 517.95 207.55 517.2 207.4 Q516.65 207.4 516.25 208.5 514.7 208.9 514.9 209.55 L515.55 211.2 Q514.05 219.3 513.65 244.5 513.35 263.2 513.65 283.4 L513.65 322.3 513.85 333.1 501.05 333.15 500.8 320.85 500.8 293.05 Q499.8 283.75 499.85 279.45 L499.85 268.75 499.35 267.35 Q498.4 263.6 499.35 261.0 L497.5 261.35 496.2 259.85 491.3 255.0 Q485.15 247.0 461.3 246.05 452.8 245.7 435.7 246.0 L404.0 246.4 Q385.45 246.4 373.55 246.65 L354.55 248.3 Q325.2 250.5 319.5 252.35 317.6 252.95 317.45 253.8 317.35 254.2 317.65 254.85 317.65 255.8 319.85 258.75 318.95 265.4 318.7 278.75 318.35 292.2 318.6 306.6 L317.8 322.45 Q317.5 330.9 317.9 338.0 305.05 339.2 300.35 340.7 L300.3 340.6 300.05 340.6 Q299.65 338.65 299.35 338.7 296.45 338.65 295.85 349.4 295.55 354.8 295.8 360.8 L296.25 373.4 297.15 395.15 294.4 395.2 Q296.7 395.2 297.25 397.05 L297.4 398.3 297.35 399.05 Q297.05 400.2 295.8 400.8 295.5 401.0 147.2 401.2 -1.6 400.8 -27.2 400.4 -28.7 400.0 -29.8 399.4 L-32.6 397.6 Q-33.2 397.3 -38.6 393.4 -39.75 392.5 -40.65 389.7 -41.4 387.25 -41.4 385.6 L-42.2 370.0 -41.9 368.65 -41.9 156.05 -43.1 154.25 Q-43.8 153.2 -43.8 151.75 -43.85 150.15 -42.85 149.35 L-42.55 147.75 Q-42.15 146.65 -40.95 146.05 L-40.95 146.55 -41.45 147.2 Q-41.75 147.85 -40.7 148.3 -37.55 149.85 -22.65 149.85 L-1.7 149.2 8.3 147.0 Q39.2 142.9 56.55 143.4 L57.4 143.4 Q58.5 145.1 59.65 145.1 61.4 145.1 62.3 143.5 L62.45 143.5 63.1 142.75 172.35 143.3 173.1 145.45 173.1 145.6 Q173.05 148.45 175.0 148.45 201.15 149.75 240.4 149.85 278.7 149.85 283.2 148.6 L284.3 147.65 Q284.85 147.1 289.35 147.0 L422.35 146.3 Q559.1 145.7 587.6 146.05 614.35 146.35 621.85 145.15 L622.55 145.05 M177.9 143.35 L180.15 143.35 181.6 143.35 177.75 143.9 177.9 143.35 M178.05 195.1 Q176.4 191.55 176.4 189.95 176.4 163.1 176.15 160.15 175.4 150.75 171.0 148.45 167.15 146.45 154.15 147.15 L119.1 148.45 91.0 148.7 62.25 149.65 Q59.85 150.35 59.9 153.2 59.85 154.5 63.45 157.1 L61.2 169.2 Q58.9 182.25 58.95 189.6 58.9 191.3 56.95 195.0 55.8 198.35 59.15 200.35 68.65 205.95 123.85 206.0 168.75 205.95 176.45 200.35 179.05 198.35 178.05 195.1 M303.45 346.2 L303.25 345.8 304.1 345.8 303.45 346.2 M-25.8 394.0 L-29.8 391.6 Q-28.3 394.0 -25.8 394.0" fill="#cca300" fill-rule="evenodd" stroke="none"/>
      <path d="M51.6 -29.15 Q51.0 -43.45 48.9 -49.85 L50.75 -50.65 Q57.55 -53.4 61.3 -53.45 126.35 -54.9 168.15 -55.45 L171.9 -55.6 Q171.1 -49.15 170.65 -36.0 L161.8 -31.9 157.6 -30.1 155.45 -29.2 Q138.95 -22.35 135.75 -22.3 L132.65 -22.35 127.85 -22.9 Q126.3 -23.25 125.85 -23.8 125.45 -24.3 125.4 -25.7 L124.8 -28.25 Q120.2 -26.2 115.75 -24.5 107.15 -21.35 98.15 -21.35 85.2 -21.4 82.75 -24.8 L81.7 -27.2 Q81.15 -28.25 79.4 -28.25 70.1 -26.15 67.75 -26.1 L66.5 -26.1 62.7 -26.3 Q55.6 -26.9 51.6 -29.15 M304.45 -36.55 L304.85 -38.5 305.2 -40.35 337.55 -39.65 337.6 -29.1 336.95 -28.95 Q334.25 -29.0 333.25 -31.25 332.85 -32.15 332.25 -32.7 L331.45 -31.9 Q330.45 -30.9 325.05 -30.85 L321.5 -30.95 315.75 -31.55 315.65 -31.0 Q309.95 -31.7 306.0 -35.1 L304.45 -36.55 M311.2 -45.15 L306.15 -44.85 306.05 -44.85 Q316.9 -98.9 337.15 -98.9 L339.95 -98.55 Q338.15 -91.6 337.7 -62.75 337.55 -54.35 337.55 -45.6 L337.15 -45.6 333.45 -45.6 319.95 -45.45 311.2 -45.15 M344.85 -28.45 L345.0 -39.5 Q369.2 -39.1 374.2 -39.2 L380.45 -39.8 Q381.05 -33.9 380.45 -28.0 L380.25 -23.35 Q377.75 -22.35 373.55 -22.3 368.0 -22.3 366.05 -26.0 L365.55 -27.15 364.05 -27.05 Q362.3 -27.1 359.3 -28.25 L358.7 -27.9 358.5 -27.8 Q355.5 -26.15 354.55 -26.1 L352.55 -26.2 Q348.6 -26.6 344.85 -28.45 M342.95 -97.6 Q346.7 -96.05 351.15 -92.6 359.1 -86.35 366.05 -76.2 376.05 -61.6 379.25 -47.15 L345.0 -45.6 Q345.25 -87.55 342.95 -97.6" fill="#136c13" fill-rule="evenodd" stroke="none"/>
      <path d="M343.5 48.3 L343.55 48.0 344.05 43.05 344.45 37.7 344.6 33.95 381.45 36.55 386.2 37.15 386.25 37.6 387.1 44.05 Q387.1 46.4 367.95 47.25 L343.85 48.3 343.5 48.3 M298.9 42.35 L298.7 37.3 302.4 34.55 Q309.05 30.5 317.3 30.5 334.0 30.45 337.95 32.1 L338.1 32.15 338.35 37.55 338.95 45.8 338.95 45.9 339.15 47.5 339.2 48.3 299.1 48.3 298.9 42.4 299.35 42.35 298.9 42.35 M63.1 142.75 L63.2 141.65 63.75 140.95 Q63.95 140.35 63.2 139.9 L63.2 138.7 Q63.2 132.6 57.15 90.65 53.7 67.15 52.15 54.7 L60.1 52.85 Q67.0 50.9 71.05 50.95 147.15 50.7 166.05 49.1 L170.25 48.65 170.25 88.75 Q170.2 118.7 170.45 124.5 170.9 137.85 172.35 143.3 L63.1 142.75" fill="#9aed9a" fill-rule="evenodd" stroke="none"/>
      <path d="M620.55 139.65 L624.45 140.1 Q625.4 141.05 625.4 142.6 L625.25 143.9 Q624.7 144.55 622.55 145.05 L621.85 145.15 Q614.35 146.35 587.6 146.05 559.1 145.7 422.35 146.3 L289.35 147.0 Q284.85 147.1 284.3 147.65 L283.2 148.6 Q278.7 149.85 240.4 149.85 201.15 149.75 175.0 148.45 173.05 148.45 173.1 145.6 L173.1 145.45 172.35 143.3 Q170.9 137.85 170.45 124.5 170.2 118.7 170.25 88.75 L170.25 48.65 166.05 49.1 Q147.15 50.7 71.05 50.95 67.0 50.9 60.1 52.85 L52.15 54.7 Q53.7 67.15 57.15 90.65 63.2 132.6 63.2 138.7 L63.2 139.9 Q63.95 140.35 63.75 140.95 L63.2 141.65 63.1 142.75 62.45 143.5 62.3 143.5 Q61.4 145.1 59.65 145.1 58.5 145.1 57.4 143.4 L56.55 143.4 Q39.2 142.9 8.3 147.0 L-1.7 149.2 -22.65 149.85 Q-37.55 149.85 -40.7 148.3 -41.75 147.85 -41.45 147.2 L-40.95 146.55 -40.95 146.05 Q-40.9 144.65 -40.5 144.3 -39.8 143.5 -36.45 143.15 L-1.45 141.05 Q4.35 140.8 21.6 138.2 L40.6 137.95 55.2 138.4 Q52.2 129.2 49.2 107.55 44.7 75.5 43.7 47.6 L41.85 -1.4 Q40.85 -30.2 40.85 -49.8 L40.9 -50.65 40.85 -52.05 Q40.85 -54.55 42.6 -55.85 44.8 -57.55 50.75 -58.7 L51.15 -58.8 52.05 -58.95 Q67.2 -61.55 111.2 -61.75 L120.05 -61.8 Q144.2 -61.8 160.3 -63.0 L171.0 -64.0 177.65 -64.95 Q176.45 -62.95 176.9 -59.9 176.85 -59.3 177.35 -58.1 178.25 -56.6 177.55 -56.2 L175.9 -55.85 174.8 -55.75 175.45 -45.5 Q176.5 -21.95 177.35 35.55 178.05 84.2 178.3 133.1 L178.3 140.6 177.9 143.35 177.75 143.9 181.6 143.35 181.9 143.35 Q198.0 141.5 243.6 140.55 323.65 138.8 542.9 138.45 542.85 137.95 564.3 137.95 609.15 138.95 620.55 139.65 M620.5 252.05 L624.45 257.1 624.35 258.35 624.45 259.6 Q624.45 262.1 622.6 262.6 L622.5 262.6 Q623.65 273.5 624.5 302.15 L625.25 334.45 628.85 334.65 628.85 341.85 625.3 341.75 625.4 348.45 Q626.05 371.7 624.95 382.4 L625.6 382.3 Q624.6 383.85 624.95 386.25 624.9 386.85 625.4 388.05 L625.35 389.95 623.15 390.5 Q622.55 391.5 621.85 391.5 621.5 391.5 621.25 390.65 L618.2 390.75 Q609.15 390.95 540.5 389.6 540.25 390.55 540.25 388.15 L539.65 387.05 Q534.5 383.9 527.2 374.65 L520.15 374.85 Q511.1 374.85 502.65 372.45 L502.7 375.8 Q502.7 380.6 452.3 382.15 L452.35 385.3 452.05 387.15 465.9 386.35 465.7 386.5 Q464.5 387.45 465.35 389.1 L466.55 391.25 466.55 394.8 466.8 397.6 Q466.8 399.75 465.65 401.3 L465.25 401.75 427.45 401.75 425.15 399.85 Q423.5 397.95 423.2 395.7 L423.25 393.75 Q423.0 392.7 423.1 392.0 423.2 390.75 424.7 389.9 428.0 387.8 438.6 387.35 L438.55 382.5 Q418.45 382.9 392.1 382.9 356.45 382.9 345.9 378.1 L345.0 378.15 Q323.05 378.15 318.75 347.05 L311.75 346.6 304.1 345.8 303.25 345.8 303.45 346.2 318.9 373.4 334.9 401.75 324.5 401.75 Q319.0 391.95 314.6 381.75 L310.35 373.4 Q304.85 362.55 301.6 355.7 L302.75 373.4 302.95 376.6 304.25 401.75 297.45 401.75 297.35 399.05 297.4 398.3 297.25 397.05 297.15 395.15 296.25 373.4 295.8 360.8 Q295.55 354.8 295.85 349.4 296.45 338.65 299.35 338.7 299.65 338.65 300.05 340.6 L300.3 340.6 300.35 340.7 Q305.05 339.2 317.9 338.0 317.5 330.9 317.8 322.45 L318.6 306.6 Q318.35 292.2 318.7 278.75 318.95 265.4 319.85 258.75 317.65 255.8 317.65 254.85 317.35 254.2 317.45 253.8 317.6 252.95 319.5 252.35 325.2 250.5 354.55 248.3 L373.55 246.65 Q385.45 246.4 404.0 246.4 L435.7 246.0 Q452.8 245.7 461.3 246.05 485.15 247.0 491.3 255.0 L496.2 259.85 497.5 261.35 499.35 261.0 Q498.4 263.6 499.35 267.35 L499.85 268.75 499.85 279.45 Q499.8 283.75 500.8 293.05 L500.8 320.85 501.05 333.15 513.85 333.1 513.65 322.3 513.65 283.4 Q513.35 263.2 513.65 244.5 514.05 219.3 515.55 211.2 L514.9 209.55 Q514.7 208.9 516.25 208.5 516.65 207.4 517.2 207.4 L517.95 207.55 519.1 207.4 519.5 208.05 Q527.2 207.4 550.95 207.4 577.95 207.4 586.75 205.7 585.6 207.1 585.95 209.3 585.9 209.85 586.3 210.85 591.45 216.6 604.3 232.2 L620.5 252.05 M170.65 -36.0 Q171.1 -49.15 171.9 -55.6 L168.15 -55.45 Q126.35 -54.9 61.3 -53.45 57.55 -53.4 50.75 -50.65 L48.9 -49.85 Q51.0 -43.45 51.6 -29.15 L51.85 -18.2 Q51.85 -8.4 51.25 13.65 50.65 33.75 50.85 41.65 50.85 43.35 51.3 47.55 L57.75 46.25 66.2 45.1 Q64.35 35.45 61.8 -5.9 61.5 -12.8 61.8 -18.75 62.0 -23.5 62.7 -26.3 L66.5 -26.1 Q67.55 -18.85 68.9 0.75 70.05 16.3 70.8 32.15 71.5 40.75 70.45 44.7 L96.55 43.05 Q95.45 40.25 95.15 33.85 L95.1 22.3 Q94.85 15.4 95.15 9.85 95.7 -0.9 98.65 -0.9 103.5 -0.9 102.2 22.05 L102.25 34.55 Q101.95 40.2 101.0 42.9 L127.8 42.2 Q126.85 37.7 126.55 28.2 L126.45 10.05 Q126.2 -0.4 126.55 -9.25 126.85 -18.6 127.85 -22.9 L132.65 -22.35 Q134.45 -14.2 133.6 9.9 134.45 34.05 132.6 42.15 L156.3 41.95 Q155.35 36.4 155.05 25.05 L155.0 2.8 Q154.75 -9.55 155.05 -20.4 L155.45 -29.2 157.6 -30.1 161.8 -31.9 Q162.8 -20.85 162.15 2.55 163.0 31.85 161.2 41.9 L168.55 41.9 170.25 41.95 170.25 31.3 Q169.95 6.85 170.25 -16.15 L170.65 -36.0 M337.6 -29.1 L337.55 -39.65 305.2 -40.35 304.85 -38.5 304.45 -36.55 Q300.95 -16.6 299.3 3.5 L314.85 2.35 314.8 -4.7 Q314.55 -14.05 314.9 -21.85 315.1 -27.5 315.65 -31.0 L315.75 -31.55 321.5 -30.95 Q322.7 -23.05 321.95 -4.85 L322.15 2.15 337.7 1.95 337.65 -22.8 337.6 -29.1 M311.2 -45.15 L319.95 -45.45 333.45 -45.6 337.15 -45.6 337.55 -45.6 Q337.55 -54.35 337.7 -62.75 338.15 -91.6 339.95 -98.55 L337.15 -98.9 Q316.9 -98.9 306.05 -44.85 L306.15 -44.85 311.2 -45.15 M385.65 -49.65 L387.6 -30.4 Q389.2 -17.45 391.75 12.9 394.25 41.75 394.25 45.6 394.25 49.6 393.65 50.5 391.85 53.0 384.0 53.8 L344.3 55.45 Q339.85 57.05 335.2 55.95 329.85 54.0 326.75 53.1 314.8 49.4 298.65 57.6 297.9 59.5 295.55 59.5 L293.65 59.2 292.25 58.3 291.05 22.3 Q292.1 -12.0 298.65 -43.65 311.6 -106.5 339.3 -106.5 363.85 -106.5 380.95 -68.2 384.15 -60.95 385.65 -49.65 M342.95 -97.6 Q345.25 -87.55 345.0 -45.6 L379.25 -47.15 Q376.05 -61.6 366.05 -76.2 359.1 -86.35 351.15 -92.6 346.7 -96.05 342.95 -97.6 M380.25 -23.35 L380.45 -28.0 Q381.05 -33.9 380.45 -39.8 L374.2 -39.2 Q369.2 -39.1 345.0 -39.5 L344.85 -28.45 344.8 -22.9 345.05 1.95 351.95 1.9 351.9 -2.35 Q351.65 -11.3 352.0 -18.75 352.15 -23.15 352.55 -26.2 L354.55 -26.1 Q355.5 -26.15 358.5 -27.8 359.8 -20.3 359.05 -2.45 L359.2 1.75 381.35 0.35 381.75 0.3 Q380.15 -15.0 380.25 -23.35 M382.7 9.1 L380.7 9.1 359.3 9.25 Q359.3 21.2 357.75 25.6 L384.95 27.65 383.2 13.1 382.7 9.1 M343.85 48.3 L367.95 47.25 Q387.1 46.4 387.1 44.05 L386.25 37.6 386.2 37.15 381.45 36.55 344.6 33.95 344.45 37.7 344.05 43.05 343.55 48.0 343.5 48.3 343.85 48.3 M346.1 9.35 L345.05 9.35 345.05 9.65 344.85 24.65 353.4 25.3 Q352.3 21.55 352.0 13.0 L352.0 9.3 346.1 9.35 M337.7 9.45 L322.2 9.65 Q322.1 18.65 321.1 23.05 L337.85 24.15 337.7 16.45 337.7 9.45 M298.9 42.4 L299.1 48.3 339.2 48.3 339.15 47.5 338.95 45.9 338.95 45.8 338.35 37.55 338.1 32.15 337.95 32.1 Q334.0 30.45 317.3 30.5 309.05 30.5 302.4 34.55 L298.7 37.3 298.9 42.35 298.9 42.4 M474.2 292.6 Q480.5 298.05 480.8 300.2 L480.8 301.45 480.65 302.05 480.5 302.7 Q481.4 305.75 480.8 311.95 L480.2 333.3 479.7 343.95 478.8 354.05 480.45 355.5 Q487.25 361.0 494.5 364.45 L494.15 343.25 494.0 333.2 Q493.35 295.55 492.7 273.05 L345.75 273.05 Q344.6 273.05 343.65 275.95 342.9 278.2 342.9 279.1 342.85 287.2 345.25 302.5 347.65 317.75 347.65 326.55 L347.65 336.05 347.8 347.8 Q348.0 363.15 348.6 372.7 L359.55 374.2 392.0 375.55 438.5 374.7 438.5 368.4 438.25 363.55 Q419.9 363.5 393.25 363.05 392.8 365.8 389.75 365.8 381.6 365.8 376.9 360.1 373.8 356.3 373.8 354.05 373.75 351.55 375.2 350.65 L374.85 347.65 Q374.3 342.65 373.9 335.05 373.2 322.75 372.85 303.6 L372.85 297.6 Q370.9 296.0 370.95 295.65 370.95 293.1 372.95 292.4 L372.35 291.5 Q372.05 290.15 377.35 289.3 393.5 286.35 461.55 286.35 L462.05 286.35 462.5 286.35 Q467.0 286.35 474.2 292.6 M460.2 294.75 Q448.95 296.35 399.25 296.35 L384.05 296.05 Q387.7 298.6 392.35 302.8 L392.0 304.7 394.95 304.4 451.3 300.9 467.35 299.1 466.05 298.0 462.05 294.45 460.2 294.75 M326.4 275.6 Q326.5 288.55 325.75 313.95 L325.75 344.65 325.8 347.4 Q326.6 363.6 337.15 368.4 L341.15 369.9 Q340.5 362.95 340.5 358.9 L340.5 331.1 Q340.5 321.75 338.1 302.6 335.7 283.4 335.75 275.05 L335.75 273.15 Q331.35 271.85 326.15 266.3 L326.4 275.6 M328.35 257.85 Q336.5 263.05 339.75 266.4 L420.15 265.45 Q464.9 265.4 489.4 262.45 L488.85 261.3 Q484.3 253.8 449.9 253.8 L355.7 255.2 352.85 256.15 Q349.0 257.35 328.35 257.85 M390.7 310.05 Q391.85 317.4 392.55 334.55 L393.0 347.3 393.3 360.05 437.3 358.0 Q435.8 352.25 432.3 349.8 L428.1 347.6 Q427.05 347.05 426.55 346.25 426.1 345.6 426.1 344.75 426.1 341.1 426.85 340.1 428.55 337.7 435.4 337.75 444.85 337.75 449.25 345.4 451.4 349.15 452.35 354.8 L452.65 357.1 465.85 356.3 Q465.8 355.8 471.05 355.8 L472.05 355.8 459.35 344.95 457.2 343.1 Q457.2 340.65 460.1 340.65 463.1 340.65 467.95 344.55 L468.85 345.3 472.75 348.7 472.75 344.3 472.75 341.05 472.85 333.35 Q473.0 327.0 473.5 319.65 474.05 309.95 475.0 305.0 L466.05 306.9 Q443.6 310.6 395.45 310.65 L390.7 310.05 M386.85 306.5 Q384.15 305.65 380.0 302.85 381.05 313.6 380.95 334.05 L380.95 334.85 380.95 346.55 380.85 347.6 380.3 352.3 385.85 356.35 385.25 349.2 385.25 347.5 385.2 334.75 385.2 333.35 Q384.9 324.95 385.2 318.0 385.55 309.7 386.85 306.5 M403.15 322.95 Q403.8 322.95 404.45 321.8 405.05 320.6 405.45 320.6 406.3 320.6 406.6 322.35 407.05 321.8 407.9 319.45 408.6 319.4 408.45 320.5 408.45 323.8 406.65 323.85 406.05 323.85 405.8 323.35 L405.35 322.6 Q404.6 324.1 403.15 324.1 402.15 324.1 401.75 323.05 L401.5 321.85 Q401.5 320.6 402.1 320.6 402.6 320.6 402.65 321.8 402.55 322.95 403.15 322.95 M447.1 321.9 L446.25 321.45 445.3 322.4 Q445.3 322.9 446.1 322.95 L447.1 321.9 M446.25 324.1 Q445.05 324.1 444.55 323.3 444.25 322.8 444.25 322.35 444.25 320.25 446.35 320.25 447.65 320.25 448.3 321.9 L447.65 323.25 446.25 324.1 M442.45 320.5 L441.85 321.2 Q441.25 321.6 441.3 322.3 441.25 323.45 443.95 324.35 443.95 324.9 442.8 324.9 440.1 324.85 440.15 322.4 440.05 321.75 440.2 321.15 440.5 319.95 441.7 319.95 442.45 319.95 442.45 320.5 M433.45 321.4 Q433.4 322.05 432.9 322.05 432.65 322.05 432.1 321.5 L431.75 321.5 431.65 322.1 Q431.65 322.75 432.7 323.45 433.7 324.25 433.75 324.85 433.7 326.2 432.0 326.2 430.95 326.2 430.95 325.65 430.9 325.3 432.55 324.8 L430.75 323.15 430.55 322.3 Q430.55 320.3 431.9 320.3 433.15 320.3 433.45 321.4 M425.65 321.35 L425.0 320.7 Q425.0 319.95 426.85 319.95 428.4 319.95 429.25 324.7 429.25 326.5 427.05 326.5 425.8 326.5 425.3 325.65 425.0 325.15 425.0 324.7 424.95 323.15 427.65 323.1 427.0 321.1 426.45 321.1 L425.65 321.35 M410.7 320.2 Q410.7 319.45 412.85 319.45 414.75 319.4 415.1 323.15 415.1 324.2 414.15 324.25 413.7 324.9 412.25 324.9 410.65 324.9 410.65 323.55 410.65 321.55 413.7 322.1 413.35 320.65 412.0 320.55 L410.7 320.2 M416.65 317.8 L416.65 317.25 Q416.75 316.7 417.25 316.7 418.15 316.7 418.25 322.65 418.45 324.6 417.75 324.6 417.05 324.6 417.1 323.25 L417.1 321.2 Q416.65 319.95 416.65 317.8 M423.7 318.2 Q423.45 317.65 422.55 317.65 422.0 317.65 421.95 318.5 L421.95 319.35 422.0 320.0 Q423.3 320.05 423.3 320.5 423.3 320.9 422.15 321.0 L422.75 322.95 Q422.7 325.0 422.05 325.0 421.5 325.0 421.4 324.65 L421.4 324.3 421.65 322.95 Q421.15 322.15 420.95 321.05 419.3 320.95 419.35 320.5 419.35 320.0 420.85 319.95 L420.8 319.3 Q420.8 316.45 422.6 316.45 424.2 316.45 424.2 317.6 424.2 318.15 423.7 318.2 M411.95 323.75 Q412.9 323.75 413.35 323.3 L411.9 323.3 411.8 323.65 411.95 323.75 M426.7 325.35 Q427.65 325.35 428.2 324.9 L427.9 324.4 426.6 324.4 Q426.25 324.4 426.15 324.85 L426.7 325.35 M471.85 362.75 L453.0 363.45 Q452.95 367.75 452.25 372.1 L452.25 374.45 494.6 373.65 494.55 369.6 494.35 369.5 Q490.25 367.7 485.2 364.8 L479.4 361.45 477.15 362.1 476.3 362.95 Q475.65 362.95 475.15 362.45 L471.85 362.75 M580.1 213.85 Q572.8 214.0 522.35 212.8 L547.1 254.35 554.75 254.05 Q560.2 254.0 581.45 254.6 L613.85 255.85 Q603.8 245.35 581.45 213.8 L580.1 213.85 M617.4 268.3 L617.8 263.0 611.35 263.05 548.5 261.75 548.2 262.1 Q550.1 276.85 549.3 322.15 L549.05 333.0 548.9 341.0 548.1 366.15 Q554.1 363.75 558.05 360.05 556.95 358.75 556.55 356.45 L556.5 351.0 556.55 345.05 Q557.05 341.85 558.8 340.7 559.8 340.05 561.2 340.05 L569.15 340.6 Q576.3 341.75 578.2 345.4 579.6 348.15 578.2 351.4 578.15 352.05 578.65 354.1 579.0 356.15 578.2 357.55 575.85 361.45 563.9 361.75 561.6 364.3 558.3 366.5 553.85 369.4 547.85 371.35 L547.0 383.5 548.15 384.8 Q558.55 384.35 582.85 384.35 L620.1 383.05 Q618.95 371.0 618.25 341.6 L618.1 334.15 Q617.6 312.6 617.3 282.9 L617.4 268.3 M520.75 245.7 L520.75 283.15 Q521.25 314.6 520.75 333.05 L520.4 342.1 Q520.0 349.25 519.35 353.4 L534.25 369.5 541.55 368.15 541.3 360.05 541.25 341.25 541.2 333.0 541.2 330.25 Q541.5 310.8 542.15 292.15 542.95 271.7 543.95 262.55 538.15 259.4 527.2 237.45 L521.45 224.75 Q521.4 232.5 520.75 245.7 M557.35 310.35 Q561.35 310.3 560.95 316.2 560.95 318.45 560.6 319.2 559.8 320.7 557.05 320.75 554.05 320.7 553.25 318.55 L552.95 316.2 Q552.95 310.3 557.35 310.35 M501.45 342.9 L501.75 348.4 502.55 367.65 Q511.0 370.3 520.05 370.3 L523.9 370.25 513.65 355.0 Q513.6 352.55 515.0 351.6 514.55 347.9 514.25 342.35 L501.45 342.9 M566.55 346.6 Q567.0 346.6 568.4 347.45 L568.7 349.1 Q568.65 353.3 567.0 356.95 571.4 356.45 572.95 355.0 573.7 354.2 573.75 351.4 L573.7 346.6 560.95 344.8 560.95 356.75 Q562.85 354.0 564.3 350.3 565.65 346.6 566.55 346.6 M538.0 373.6 L542.3 378.25 Q542.0 375.85 541.85 372.9 L538.0 373.6 M601.9 320.75 Q598.05 320.7 597.1 318.55 L596.95 316.2 Q596.9 312.1 601.05 312.1 605.5 312.1 606.75 317.4 606.7 320.75 601.9 320.75 M311.8 9.9 L299.9 10.65 299.8 10.65 299.6 10.75 Q300.15 10.9 298.75 11.0 L298.15 22.15 298.15 22.25 298.15 22.35 298.3 27.9 Q299.35 27.25 300.6 26.7 307.95 23.1 316.0 22.85 315.15 18.9 314.9 11.35 L314.9 9.85 311.8 9.9 M178.05 195.1 Q179.05 198.35 176.45 200.35 168.75 205.95 123.85 206.0 68.65 205.95 59.15 200.35 55.8 198.35 56.95 195.0 58.9 191.3 58.95 189.6 58.9 182.25 61.2 169.2 L63.45 157.1 Q59.85 154.5 59.9 153.2 59.85 150.35 62.25 149.65 L91.0 148.7 119.1 148.45 154.15 147.15 Q167.15 146.45 171.0 148.45 175.4 150.75 176.15 160.15 176.4 163.1 176.4 189.95 176.4 191.55 178.05 195.1 M167.35 155.8 L152.65 156.05 Q150.95 156.5 70.8 157.0 70.05 160.85 68.2 172.65 66.05 185.8 66.05 188.05 66.05 190.0 65.55 192.95 65.7 195.15 69.4 196.25 77.75 198.6 123.15 198.6 162.0 198.6 169.35 194.35 171.65 192.95 170.7 191.0 169.25 189.1 169.3 188.65 167.35 166.5 167.35 155.8 M79.4 168.95 Q87.45 168.95 87.45 174.4 87.45 180.1 83.85 180.15 80.6 180.1 79.9 178.9 79.55 178.25 79.85 177.55 79.85 176.0 80.5 175.35 81.55 174.35 85.2 173.6 84.95 173.15 83.05 172.3 81.05 171.3 79.75 171.35 79.0 172.1 78.35 172.1 77.7 172.1 77.4 171.5 L77.2 170.85 Q77.2 168.95 79.4 168.95 M111.85 172.4 Q109.45 172.4 109.45 174.1 L109.45 175.35 Q110.0 176.25 112.9 176.25 L113.75 174.1 Q113.75 173.7 113.15 173.05 112.45 172.4 111.85 172.4 M110.75 170.15 Q115.4 170.15 116.0 174.0 116.0 175.1 115.15 176.75 114.2 178.65 112.95 178.65 108.25 178.65 107.25 176.55 106.8 175.5 107.2 174.2 L107.25 171.8 Q107.9 170.15 110.75 170.15 M119.45 170.8 Q119.1 171.2 118.8 171.2 117.95 171.2 117.65 170.45 117.55 170.0 117.6 169.55 117.6 168.5 118.05 168.35 L120.6 168.05 Q124.9 168.05 125.95 170.9 L126.1 173.85 Q126.1 180.15 122.65 180.15 121.7 180.1 121.35 179.55 L121.2 178.95 Q121.15 178.7 122.5 177.05 123.85 175.1 123.85 173.45 L123.85 171.8 Q123.45 170.45 121.05 170.45 119.8 170.4 119.45 170.8 M91.15 171.05 Q92.5 171.0 95.0 176.75 L96.8 174.5 Q97.35 173.7 98.4 173.7 100.3 173.7 101.25 176.85 L101.55 176.85 Q100.95 174.45 100.95 173.0 100.95 170.7 102.15 170.75 103.05 170.7 103.8 177.1 103.8 179.2 101.85 179.25 99.7 179.25 99.0 178.3 98.65 177.8 98.6 177.15 96.65 179.55 94.85 179.55 93.35 179.5 91.5 175.85 L89.95 172.1 Q89.95 171.05 91.15 171.05 M83.35 176.15 L82.55 177.0 Q82.2 177.15 82.1 177.45 L84.6 177.75 84.65 176.15 84.8 175.95 83.35 176.15 M156.75 170.45 Q157.6 168.95 159.25 168.95 162.2 168.95 162.95 179.6 163.4 182.5 161.9 182.5 160.45 182.5 159.7 171.8 L159.25 171.5 154.75 178.65 Q153.85 178.65 151.8 171.8 149.65 175.5 149.75 181.8 149.5 182.2 148.8 182.2 147.85 182.2 147.7 180.8 L147.65 179.25 Q147.65 177.0 148.4 173.75 149.6 168.95 151.6 168.95 152.95 168.95 154.05 170.65 L155.25 173.0 156.75 170.45 M131.3 169.25 Q132.5 169.25 133.85 183.8 133.8 188.45 132.75 188.45 131.45 188.45 131.4 185.0 L131.45 180.0 130.1 171.65 Q130.1 169.25 131.3 169.25 M139.45 168.95 Q143.8 168.95 144.8 171.9 L144.85 175.0 Q144.8 181.0 140.6 181.0 137.95 181.0 137.3 179.65 137.0 178.95 137.25 178.15 137.2 176.8 137.6 176.4 138.65 175.05 142.6 174.8 L142.6 173.0 Q142.0 171.2 140.7 171.2 L137.25 171.8 Q136.55 171.8 136.3 171.2 L136.05 170.6 Q136.05 168.95 139.45 168.95 M141.45 178.65 L142.3 177.75 142.45 177.25 Q141.3 176.95 139.5 177.95 L139.5 178.65 141.45 178.65" fill="#000000" fill-rule="evenodd" stroke="none"/>
      <path d="M51.6 -29.15 Q55.6 -26.9 62.7 -26.3 62.0 -23.5 61.8 -18.75 61.5 -12.8 61.8 -5.9 64.35 35.45 66.2 45.1 L57.75 46.25 51.3 47.55 Q50.85 43.35 50.85 41.65 50.65 33.75 51.25 13.65 51.85 -8.4 51.85 -18.2 L51.6 -29.15 M66.5 -26.1 L67.75 -26.1 Q70.1 -26.15 79.4 -28.25 81.15 -28.25 81.7 -27.2 L82.75 -24.8 Q85.2 -21.4 98.15 -21.35 107.15 -21.35 115.75 -24.5 120.2 -26.2 124.8 -28.25 L125.4 -25.7 Q125.45 -24.3 125.85 -23.8 126.3 -23.25 127.85 -22.9 126.85 -18.6 126.55 -9.25 126.2 -0.4 126.45 10.05 L126.55 28.2 Q126.85 37.7 127.8 42.2 L101.0 42.9 Q101.95 40.2 102.25 34.55 L102.2 22.05 Q103.5 -0.9 98.65 -0.9 95.7 -0.9 95.15 9.85 94.85 15.4 95.1 22.3 L95.15 33.85 Q95.45 40.25 96.55 43.05 L70.45 44.7 Q71.5 40.75 70.8 32.15 70.05 16.3 68.9 0.75 67.55 -18.85 66.5 -26.1 M132.65 -22.35 L135.75 -22.3 Q138.95 -22.35 155.45 -29.2 L155.05 -20.4 Q154.75 -9.55 155.0 2.8 L155.05 25.05 Q155.35 36.4 156.3 41.95 L132.6 42.15 Q134.45 34.05 133.6 9.9 134.45 -14.2 132.65 -22.35 M161.8 -31.9 L170.65 -36.0 170.25 -16.15 Q169.95 6.85 170.25 31.3 L170.25 41.95 168.55 41.9 161.2 41.9 Q163.0 31.85 162.15 2.55 162.8 -20.85 161.8 -31.9 M304.45 -36.55 L306.0 -35.1 Q309.95 -31.7 315.65 -31.0 315.1 -27.5 314.9 -21.85 314.55 -14.05 314.8 -4.7 L314.85 2.35 299.3 3.5 Q300.95 -16.6 304.45 -36.55 M321.5 -30.95 L325.05 -30.85 Q330.45 -30.9 331.45 -31.9 L332.25 -32.7 Q332.85 -32.15 333.25 -31.25 334.25 -29.0 336.95 -28.95 L337.6 -29.1 337.65 -22.8 337.7 1.95 322.15 2.15 321.95 -4.85 Q322.7 -23.05 321.5 -30.95 M344.85 -28.45 Q348.6 -26.6 352.55 -26.2 352.15 -23.15 352.0 -18.75 351.65 -11.3 351.9 -2.35 L351.95 1.9 345.05 1.95 344.8 -22.9 344.85 -28.45 M358.5 -27.8 L358.7 -27.9 359.3 -28.25 Q362.3 -27.1 364.05 -27.05 L365.55 -27.15 366.05 -26.0 Q368.0 -22.3 373.55 -22.3 377.75 -22.35 380.25 -23.35 380.15 -15.0 381.75 0.3 L381.35 0.35 359.2 1.75 359.05 -2.45 Q359.8 -20.3 358.5 -27.8 M382.7 9.1 L383.2 13.1 384.95 27.65 357.75 25.6 Q359.3 21.2 359.3 9.25 L380.7 9.1 382.7 9.1 M337.7 9.45 L337.7 16.45 337.85 24.15 321.1 23.05 Q322.1 18.65 322.2 9.65 L337.7 9.45 M346.1 9.35 L352.0 9.3 352.0 13.0 Q352.3 21.55 353.4 25.3 L344.85 24.65 345.05 9.65 345.05 9.35 346.1 9.35 M298.9 42.35 L299.35 42.35 298.9 42.4 298.9 42.35 M311.8 9.9 L314.9 9.85 314.9 11.35 Q315.15 18.9 316.0 22.85 307.95 23.1 300.6 26.7 299.35 27.25 298.3 27.9 L298.15 22.35 298.15 22.25 298.15 22.15 298.75 11.0 Q300.15 10.9 299.6 10.75 L299.8 10.65 299.9 10.65 311.8 9.9" fill="#775f00" fill-rule="evenodd" stroke="none"/>
      <path d="M343.5 48.3 L343.85 48.3 343.5 48.3" fill="#ffffdd" fill-opacity="0.5019608" fill-rule="evenodd" stroke="none"/>
      <path d="M460.2 294.75 L462.05 294.45 466.05 298.0 467.35 299.1 451.3 300.9 394.95 304.4 392.0 304.7 392.35 302.8 Q387.7 298.6 384.05 296.05 L399.25 296.35 Q448.95 296.35 460.2 294.75 M328.35 257.85 Q349.0 257.35 352.85 256.15 L355.7 255.2 449.9 253.8 Q484.3 253.8 488.85 261.3 L489.4 262.45 Q464.9 265.4 420.15 265.45 L339.75 266.4 Q336.5 263.05 328.35 257.85 M580.1 213.85 L581.45 213.8 Q603.8 245.35 613.85 255.85 L581.45 254.6 Q560.2 254.0 554.75 254.05 L547.1 254.35 522.35 212.8 Q572.8 214.0 580.1 213.85 M141.45 178.65 L139.5 178.65 139.5 177.95 Q141.3 176.95 142.45 177.25 L142.3 177.75 141.45 178.65 M139.45 168.95 Q136.05 168.95 136.05 170.6 L136.3 171.2 Q136.55 171.8 137.25 171.8 L140.7 171.2 Q142.0 171.2 142.6 173.0 L142.6 174.8 Q138.65 175.05 137.6 176.4 137.2 176.8 137.25 178.15 137.0 178.95 137.3 179.65 137.95 181.0 140.6 181.0 144.8 181.0 144.85 175.0 L144.8 171.9 Q143.8 168.95 139.45 168.95 M131.3 169.25 Q130.1 169.25 130.1 171.65 L131.45 180.0 131.4 185.0 Q131.45 188.45 132.75 188.45 133.8 188.45 133.85 183.8 132.5 169.25 131.3 169.25 M156.75 170.45 L155.25 173.0 154.05 170.65 Q152.95 168.95 151.6 168.95 149.6 168.95 148.4 173.75 147.65 177.0 147.65 179.25 L147.7 180.8 Q147.85 182.2 148.8 182.2 149.5 182.2 149.75 181.8 149.65 175.5 151.8 171.8 153.85 178.65 154.75 178.65 L159.25 171.5 159.7 171.8 Q160.45 182.5 161.9 182.5 163.4 182.5 162.95 179.6 162.2 168.95 159.25 168.95 157.6 168.95 156.75 170.45 M83.35 176.15 L84.8 175.95 84.65 176.15 84.6 177.75 82.1 177.45 Q82.2 177.15 82.55 177.0 L83.35 176.15 M91.15 171.05 Q89.95 171.05 89.95 172.1 L91.5 175.85 Q93.35 179.5 94.85 179.55 96.65 179.55 98.6 177.15 98.65 177.8 99.0 178.3 99.7 179.25 101.85 179.25 103.8 179.2 103.8 177.1 103.05 170.7 102.15 170.75 100.95 170.7 100.95 173.0 100.95 174.45 101.55 176.85 L101.25 176.85 Q100.3 173.7 98.4 173.7 97.35 173.7 96.8 174.5 L95.0 176.75 Q92.5 171.0 91.15 171.05 M119.45 170.8 Q119.8 170.4 121.05 170.45 123.45 170.45 123.85 171.8 L123.85 173.45 Q123.85 175.1 122.5 177.05 121.15 178.7 121.2 178.95 L121.35 179.55 Q121.7 180.1 122.65 180.15 126.1 180.15 126.1 173.85 L125.95 170.9 Q124.9 168.05 120.6 168.05 L118.05 168.35 Q117.6 168.5 117.6 169.55 117.55 170.0 117.65 170.45 117.95 171.2 118.8 171.2 119.1 171.2 119.45 170.8 M110.75 170.15 Q107.9 170.15 107.25 171.8 L107.2 174.2 Q106.8 175.5 107.25 176.55 108.25 178.65 112.95 178.65 114.2 178.65 115.15 176.75 116.0 175.1 116.0 174.0 115.4 170.15 110.75 170.15 M111.85 172.4 Q112.45 172.4 113.15 173.05 113.75 173.7 113.75 174.1 L112.9 176.25 Q110.0 176.25 109.45 175.35 L109.45 174.1 Q109.45 172.4 111.85 172.4 M79.4 168.95 Q77.2 168.95 77.2 170.85 L77.4 171.5 Q77.7 172.1 78.35 172.1 79.0 172.1 79.75 171.35 81.05 171.3 83.05 172.3 84.95 173.15 85.2 173.6 81.55 174.35 80.5 175.35 79.85 176.0 79.85 177.55 79.55 178.25 79.9 178.9 80.6 180.1 83.85 180.15 87.45 180.1 87.45 174.4 87.45 168.95 79.4 168.95 M167.35 155.8 Q167.35 166.5 169.3 188.65 169.25 189.1 170.7 191.0 171.65 192.95 169.35 194.35 162.0 198.6 123.15 198.6 77.75 198.6 69.4 196.25 65.7 195.15 65.55 192.95 66.05 190.0 66.05 188.05 66.05 185.8 68.2 172.65 70.05 160.85 70.8 157.0 150.95 156.5 152.65 156.05 L167.35 155.8" fill="#e6e6e6" fill-rule="evenodd" stroke="none"/>
      <path d="M628.85 341.85 L628.85 401.75 465.25 401.75 465.65 401.3 Q466.8 399.75 466.8 397.6 L466.55 394.8 466.55 391.25 465.35 389.1 Q464.5 387.45 465.7 386.5 L465.9 386.35 452.05 387.15 452.35 385.3 452.3 382.15 Q502.7 380.6 502.7 375.8 L502.65 372.45 Q511.1 374.85 520.15 374.85 L527.2 374.65 Q534.5 383.9 539.65 387.05 L540.25 388.15 Q540.25 390.55 540.5 389.6 609.15 390.95 618.2 390.75 L621.25 390.65 Q621.5 391.5 621.85 391.5 622.55 391.5 623.15 390.5 L625.35 389.95 625.4 388.05 Q624.9 386.85 624.95 386.25 624.6 383.85 625.6 382.3 L624.95 382.4 Q626.05 371.7 625.4 348.45 L625.3 341.75 628.85 341.85 M427.45 401.75 L334.9 401.75 318.9 373.4 303.45 346.2 304.1 345.8 311.75 346.6 318.75 347.05 Q323.05 378.15 345.0 378.15 L345.9 378.1 Q356.45 382.9 392.1 382.9 418.45 382.9 438.55 382.5 L438.6 387.35 Q428.0 387.8 424.7 389.9 423.2 390.75 423.1 392.0 423.0 392.7 423.25 393.75 L423.2 395.7 Q423.5 397.95 425.15 399.85 L427.45 401.75 M501.45 342.9 L514.25 342.35 Q514.55 347.9 515.0 351.6 513.6 352.55 513.65 355.0 L523.9 370.25 520.05 370.3 Q511.0 370.3 502.55 367.65 L501.75 348.4 501.45 342.9" fill="#c19a02" fill-rule="evenodd" stroke="none"/>
      <path d="M324.5 401.75 L304.25 401.75 302.95 376.6 302.75 373.4 301.6 355.7 Q304.85 362.55 310.35 373.4 L314.6 381.75 Q319.0 391.95 324.5 401.75" fill="#a08001" fill-rule="evenodd" stroke="none"/>
      <path d="M326.4 275.6 L326.15 266.3 Q331.35 271.85 335.75 273.15 L335.75 275.05 Q335.7 283.4 338.1 302.6 340.5 321.75 340.5 331.1 L340.5 358.9 Q340.5 362.95 341.15 369.9 L337.15 368.4 Q326.6 363.6 325.8 347.4 L325.75 344.65 325.75 313.95 Q326.5 288.55 326.4 275.6 M386.85 306.5 Q385.55 309.7 385.2 318.0 384.9 324.95 385.2 333.35 L385.2 334.75 385.25 347.5 385.25 349.2 385.85 356.35 380.3 352.3 380.85 347.6 380.95 346.55 380.95 334.85 380.95 334.05 Q381.05 313.6 380.0 302.85 384.15 305.65 386.85 306.5 M520.75 245.7 Q521.4 232.5 521.45 224.75 L527.2 237.45 Q538.15 259.4 543.95 262.55 542.95 271.7 542.15 292.15 541.5 310.8 541.2 330.25 L541.2 333.0 541.25 341.25 541.3 360.05 541.55 368.15 534.25 369.5 519.35 353.4 Q520.0 349.25 520.4 342.1 L520.75 333.05 Q521.25 314.6 520.75 283.15 L520.75 245.7 M538.0 373.6 L541.85 372.9 Q542.0 375.85 542.3 378.25 L538.0 373.6" fill="#c8c8c8" fill-rule="evenodd" stroke="none"/>
      <path d="M474.2 292.6 Q467.0 286.35 462.5 286.35 L462.05 286.35 461.55 286.35 Q393.5 286.35 377.35 289.3 372.05 290.15 372.35 291.5 L372.95 292.4 Q370.95 293.1 370.95 295.65 370.9 296.0 372.85 297.6 L372.85 303.6 Q373.2 322.75 373.9 335.05 374.3 342.65 374.85 347.65 L375.2 350.65 Q373.75 351.55 373.8 354.05 373.8 356.3 376.9 360.1 381.6 365.8 389.75 365.8 392.8 365.8 393.25 363.05 419.9 363.5 438.25 363.55 L438.5 368.4 438.5 374.7 392.0 375.55 359.55 374.2 348.6 372.7 Q348.0 363.15 347.8 347.8 L347.65 336.05 347.65 326.55 Q347.65 317.75 345.25 302.5 342.85 287.2 342.9 279.1 342.9 278.2 343.65 275.95 344.6 273.05 345.75 273.05 L492.7 273.05 Q493.35 295.55 494.0 333.2 L494.15 343.25 494.5 364.45 Q487.25 361.0 480.45 355.5 L478.8 354.05 479.7 343.95 480.2 333.3 480.8 311.95 Q481.4 305.75 480.5 302.7 L480.65 302.05 480.8 301.45 480.8 300.2 Q480.5 298.05 474.2 292.6 M390.7 310.05 L395.45 310.65 Q443.6 310.6 466.05 306.9 L475.0 305.0 Q474.05 309.95 473.5 319.65 473.0 327.0 472.85 333.35 L472.75 341.05 472.75 344.3 472.75 348.7 468.85 345.3 467.95 344.55 Q463.1 340.65 460.1 340.65 457.2 340.65 457.2 343.1 L459.35 344.95 472.05 355.8 471.05 355.8 Q465.8 355.8 465.85 356.3 L452.65 357.1 452.35 354.8 Q451.4 349.15 449.25 345.4 444.85 337.75 435.4 337.75 428.55 337.7 426.85 340.1 426.1 341.1 426.1 344.75 426.1 345.6 426.55 346.25 427.05 347.05 428.1 347.6 L432.3 349.8 Q435.8 352.25 437.3 358.0 L393.3 360.05 393.0 347.3 392.55 334.55 Q391.85 317.4 390.7 310.05 M403.15 322.95 Q402.55 322.95 402.65 321.8 402.6 320.6 402.1 320.6 401.5 320.6 401.5 321.85 L401.75 323.05 Q402.15 324.1 403.15 324.1 404.6 324.1 405.35 322.6 L405.8 323.35 Q406.05 323.85 406.65 323.85 408.45 323.8 408.45 320.5 408.6 319.4 407.9 319.45 407.05 321.8 406.6 322.35 406.3 320.6 405.45 320.6 405.05 320.6 404.45 321.8 403.8 322.95 403.15 322.95 M471.85 362.75 L475.15 362.45 Q475.65 362.95 476.3 362.95 L477.15 362.1 479.4 361.45 485.2 364.8 Q490.25 367.7 494.35 369.5 L494.55 369.6 494.6 373.65 452.25 374.45 452.25 372.1 Q452.95 367.75 453.0 363.45 L471.85 362.75 M426.7 325.35 L426.15 324.85 Q426.25 324.4 426.6 324.4 L427.9 324.4 428.2 324.9 Q427.65 325.35 426.7 325.35 M411.95 323.75 L411.8 323.65 411.9 323.3 413.35 323.3 Q412.9 323.75 411.95 323.75 M423.7 318.2 Q424.2 318.15 424.2 317.6 424.2 316.45 422.6 316.45 420.8 316.45 420.8 319.3 L420.85 319.95 Q419.35 320.0 419.35 320.5 419.3 320.95 420.95 321.05 421.15 322.15 421.65 322.95 L421.4 324.3 421.4 324.65 Q421.5 325.0 422.05 325.0 422.7 325.0 422.75 322.95 L422.15 321.0 Q423.3 320.9 423.3 320.5 423.3 320.05 422.0 320.0 L421.95 319.35 421.95 318.5 Q422.0 317.65 422.55 317.65 423.45 317.65 423.7 318.2 M416.65 317.8 Q416.65 319.95 417.1 321.2 L417.1 323.25 Q417.05 324.6 417.75 324.6 418.45 324.6 418.25 322.65 418.15 316.7 417.25 316.7 416.75 316.7 416.65 317.25 L416.65 317.8 M410.7 320.2 L412.0 320.55 Q413.35 320.65 413.7 322.1 410.65 321.55 410.65 323.55 410.65 324.9 412.25 324.9 413.7 324.9 414.15 324.25 415.1 324.2 415.1 323.15 414.75 319.4 412.85 319.45 410.7 319.45 410.7 320.2 M425.65 321.35 L426.45 321.1 Q427.0 321.1 427.65 323.1 424.95 323.15 425.0 324.7 425.0 325.15 425.3 325.65 425.8 326.5 427.05 326.5 429.25 326.5 429.25 324.7 428.4 319.95 426.85 319.95 425.0 319.95 425.0 320.7 L425.65 321.35 M433.45 321.4 Q433.15 320.3 431.9 320.3 430.55 320.3 430.55 322.3 L430.75 323.15 432.55 324.8 Q430.9 325.3 430.95 325.65 430.95 326.2 432.0 326.2 433.7 326.2 433.75 324.85 433.7 324.25 432.7 323.45 431.65 322.75 431.65 322.1 L431.75 321.5 432.1 321.5 Q432.65 322.05 432.9 322.05 433.4 322.05 433.45 321.4 M442.45 320.5 Q442.45 319.95 441.7 319.95 440.5 319.95 440.2 321.15 440.05 321.75 440.15 322.4 440.1 324.85 442.8 324.9 443.95 324.9 443.95 324.35 441.25 323.45 441.3 322.3 441.25 321.6 441.85 321.2 L442.45 320.5 M446.25 324.1 L447.65 323.25 448.3 321.9 Q447.65 320.25 446.35 320.25 444.25 320.25 444.25 322.35 444.25 322.8 444.55 323.3 445.05 324.1 446.25 324.1 M447.1 321.9 L446.1 322.95 Q445.3 322.9 445.3 322.4 L446.25 321.45 447.1 321.9 M617.4 268.3 L617.3 282.9 Q617.6 312.6 618.1 334.15 L618.25 341.6 Q618.95 371.0 620.1 383.05 L582.85 384.35 Q558.55 384.35 548.15 384.8 L547.0 383.5 547.85 371.35 Q553.85 369.4 558.3 366.5 561.6 364.3 563.9 361.75 575.85 361.45 578.2 357.55 579.0 356.15 578.65 354.1 578.15 352.05 578.2 351.4 579.6 348.15 578.2 345.4 576.3 341.75 569.15 340.6 L561.2 340.05 Q559.8 340.05 558.8 340.7 557.05 341.85 556.55 345.05 L556.5 351.0 556.55 356.45 Q556.95 358.75 558.05 360.05 554.1 363.75 548.1 366.15 L548.9 341.0 549.05 333.0 549.3 322.15 Q550.1 276.85 548.2 262.1 L548.5 261.75 611.35 263.05 617.8 263.0 617.4 268.3 M557.35 310.35 Q552.95 310.3 552.95 316.2 L553.25 318.55 Q554.05 320.7 557.05 320.75 559.8 320.7 560.6 319.2 560.95 318.45 560.95 316.2 561.35 310.3 557.35 310.35 M566.55 346.6 Q565.65 346.6 564.3 350.3 562.85 354.0 560.95 356.75 L560.95 344.8 573.7 346.6 573.75 351.4 Q573.7 354.2 572.95 355.0 571.4 356.45 567.0 356.95 568.65 353.3 568.7 349.1 L568.4 347.45 Q567.0 346.6 566.55 346.6 M601.9 320.75 Q606.7 320.75 606.75 317.4 605.5 312.1 601.05 312.1 596.9 312.1 596.95 316.2 L597.1 318.55 Q598.05 320.7 601.9 320.75" fill="#eeeeee" fill-rule="evenodd" stroke="none"/>
    </g>
  </defs>
</svg>
