<?xml version="1.0" encoding="UTF-8" standalone="no"?>
<svg xmlns:xlink="http://www.w3.org/1999/xlink" height="842.55px" width="1337.95px" xmlns="http://www.w3.org/2000/svg">
  <g transform="matrix(1, 0, 0, 1, 407.45, 285.05)">
    <use height="4.5" transform="matrix(5.4867, 0.0, 0.0, 81.5667, 3.2875, 23.0167)" width="99.75" xlink:href="#shape0"/>
    <use height="430.75" transform="matrix(1.0, 0.0, 0.0, 1.0, -13.05, -20.15)" width="585.0" xlink:href="#shape1"/>
  </g>
  <defs>
    <g id="shape0" transform="matrix(1, 0, 0, 1, 49.85, -2.5)">
      <path d="M49.9 7.0 L-49.85 7.0 -49.85 2.5 49.9 2.5 49.9 7.0" fill="#ffffff" fill-rule="evenodd" stroke="none"/>
    </g>
    <g id="shape1" transform="matrix(1, 0, 0, 1, 13.05, 20.15)">
      <path d="M6.95 311.25 Q9.55 310.05 12.9 308.8 20.75 305.9 31.4 303.2 L36.55 301.95 Q43.55 300.25 51.7 298.7 L54.6 298.15 65.45 296.25 Q89.6 292.2 115.75 289.95 L116.35 289.9 117.05 289.85 117.65 275.6 Q117.65 270.95 115.65 265.0 114.0 260.15 113.75 257.3 L113.3 257.45 109.5 258.4 110.05 259.15 110.15 259.45 Q110.15 263.35 105.4 263.35 100.6 263.35 93.15 252.35 90.75 248.8 88.5 244.7 L86.65 241.1 Q86.65 234.65 104.25 229.0 L107.65 227.95 107.65 225.5 107.65 221.85 109.4 192.15 109.65 186.6 109.45 178.9 Q108.9 168.35 107.15 152.05 105.15 133.8 104.8 122.4 L104.75 121.8 104.65 116.85 Q104.65 94.95 103.75 52.4 L103.75 51.15 101.3 51.8 98.9 52.35 98.35 52.35 Q92.0 55.55 79.7 59.85 55.5 68.35 48.4 68.35 44.0 68.35 42.9 66.75 42.65 66.35 42.65 64.85 42.65 63.45 43.7 62.7 44.1 57.5 47.85 49.2 54.75 33.95 72.9 8.35 L73.15 8.05 Q81.35 -3.6 89.7 -14.35 L94.25 -20.15 102.95 -20.15 92.6 -5.2 89.15 -0.35 Q99.1 -3.35 148.9 -10.9 207.9 -19.85 219.1 -20.15 L219.75 -20.15 220.05 -20.15 226.15 -20.1 Q238.35 -19.8 241.55 -18.35 242.8 -17.75 242.5 -17.05 L242.0 -16.25 Q242.0 -15.35 240.85 -15.45 236.25 -15.7 231.75 -15.55 208.1 -14.7 156.4 -4.65 147.7 -2.95 123.0 0.8 L98.4 4.35 92.0 3.65 Q88.0 3.0 87.1 2.5 L72.65 22.1 Q70.25 25.3 59.25 47.4 L53.7 58.3 52.55 60.35 56.15 59.55 Q64.8 57.5 72.15 54.85 L83.5 48.6 Q94.35 42.85 98.9 42.85 L100.85 42.95 Q111.15 37.65 138.7 31.25 L150.6 28.6 153.8 27.9 Q202.2 17.65 255.75 11.1 L255.8 11.1 Q257.4 10.9 259.55 8.1 L261.35 5.4 Q265.65 -1.6 268.25 -3.9 269.55 -5.1 274.2 -11.25 278.7 -17.2 280.75 -18.9 L282.15 -20.15 299.8 -20.15 Q292.85 -10.5 287.9 -4.5 272.45 14.2 259.75 20.35 248.65 25.75 228.25 25.2 L212.05 24.85 Q202.9 24.95 196.15 26.6 166.5 33.6 163.65 33.85 158.05 34.85 128.45 43.8 L111.6 48.85 Q113.0 55.85 113.05 69.75 113.15 81.85 112.55 102.55 L112.15 114.35 Q112.15 121.95 113.1 133.85 113.7 141.4 114.65 150.65 117.15 174.45 117.15 186.35 116.0 214.5 114.2 226.15 L125.3 223.65 Q136.7 221.3 148.5 219.6 144.6 212.7 145.65 144.85 145.3 120.8 145.7 98.35 146.2 70.55 147.9 60.15 146.95 58.9 146.65 56.35 L146.65 51.1 Q146.65 44.0 150.25 40.9 153.45 38.15 161.8 36.95 L182.45 34.8 Q198.65 33.1 213.25 30.1 L258.25 29.85 Q269.9 29.85 290.55 30.65 L290.5 28.75 Q290.5 27.5 295.3 20.35 300.25 13.0 306.5 5.1 323.3 -16.15 329.25 -16.15 335.65 -16.15 366.0 31.6 366.0 33.25 365.55 34.3 L392.3 35.85 Q494.0 41.8 494.0 43.7 L494.15 45.8 Q493.95 46.6 492.05 46.9 L489.05 47.1 489.0 49.2 481.95 86.15 Q474.7 123.05 474.0 135.85 473.4 148.35 473.3 188.0 472.95 210.1 471.3 217.55 L498.5 217.8 498.5 217.35 Q498.75 156.6 499.5 126.6 500.0 109.6 506.5 73.5 510.2 53.1 512.55 44.4 L506.6 41.45 Q484.95 30.55 482.5 29.85 480.3 28.55 477.5 28.15 L439.25 24.35 422.0 24.9 409.55 27.35 400.1 27.0 Q395.7 25.3 391.75 19.1 386.4 9.5 384.75 7.1 379.4 -0.65 353.0 -15.5 348.4 -18.05 344.55 -20.15 L366.85 -20.15 Q384.0 -8.3 392.0 3.85 396.15 7.85 397.0 10.6 397.25 11.7 398.75 14.35 L417.9 15.6 438.25 16.35 441.6 16.5 443.0 16.55 Q480.45 18.2 486.6 21.25 487.4 21.65 489.9 24.35 491.8 26.4 497.25 27.85 500.5 28.65 509.85 32.9 510.6 30.85 513.25 30.85 514.6 30.85 536.2 38.8 560.75 47.85 571.0 53.6 L571.95 54.15 571.95 63.5 Q563.65 57.95 562.5 57.35 L561.3 56.8 Q558.05 55.5 550.2 53.65 L536.0 50.2 Q534.7 51.35 531.75 51.35 528.85 51.35 522.0 48.6 L518.9 47.3 518.3 54.35 Q516.95 67.4 513.0 93.4 L511.25 104.95 Q507.0 133.05 507.0 134.35 L507.3 157.75 507.4 163.35 507.9 188.35 Q507.85 203.2 506.75 211.55 L506.5 213.45 505.55 217.9 525.15 218.25 527.0 218.35 Q528.15 218.85 528.75 220.6 L529.0 224.35 529.0 225.75 529.0 237.5 529.0 240.1 528.85 241.55 529.0 242.7 Q529.0 244.9 526.95 245.8 526.2 246.35 525.25 246.35 L524.6 246.3 523.25 246.35 517.3 245.0 Q511.7 243.75 505.25 244.35 L497.65 244.95 494.25 245.1 493.3 245.1 Q493.9 246.5 494.15 248.7 494.5 252.15 494.0 257.6 494.75 265.4 493.65 269.1 L511.0 269.6 524.25 270.35 538.25 271.85 Q542.0 272.1 549.5 274.1 559.4 275.9 571.15 276.6 L571.65 276.65 571.95 276.7 571.95 285.35 562.9 284.85 Q559.65 284.5 557.75 283.85 L553.6 282.25 Q550.65 281.25 546.7 280.5 536.95 278.65 514.95 277.5 L488.15 276.5 456.2 275.9 Q434.9 275.6 409.0 275.6 L400.75 275.6 371.65 275.5 368.2 275.5 365.9 275.5 366.3 277.1 366.6 278.3 Q367.6 282.8 368.0 287.6 L368.55 289.5 Q368.25 291.35 363.85 292.65 350.15 296.85 300.5 295.6 L292.5 297.35 229.25 299.35 Q226.6 299.35 225.8 297.35 225.5 296.65 225.5 295.1 L225.5 294.5 Q224.75 293.8 224.5 292.6 L224.5 292.55 224.5 289.7 216.4 291.0 196.4 294.1 Q185.3 295.75 164.15 295.85 L124.85 295.65 114.95 295.75 91.3 296.85 Q78.15 297.85 68.25 299.8 59.05 301.55 52.65 304.1 45.95 306.75 36.85 308.9 27.8 311.0 22.65 312.75 L21.65 313.1 Q17.2 314.75 3.3 322.35 L1.4 323.35 Q-2.95 323.35 -2.35 319.1 -2.35 315.45 6.95 311.25 M382.9 -20.15 L568.75 -20.15 571.95 -13.5 571.95 6.35 Q565.45 5.8 550.75 -18.05 L476.25 -17.65 Q394.5 -17.9 384.5 -19.15 383.4 -19.25 382.9 -20.15 M330.25 -5.3 Q328.7 -6.9 328.15 -6.9 327.5 -6.9 324.0 -3.05 L320.25 1.25 Q312.7 10.05 298.15 28.45 L296.25 30.85 296.65 30.9 321.9 32.0 Q320.7 30.15 319.85 27.35 318.25 21.85 318.5 15.5 L318.4 11.75 Q318.45 9.65 319.3 8.35 321.65 4.85 331.75 4.85 339.55 4.85 343.05 13.85 345.0 18.95 345.0 23.6 345.0 30.2 339.55 32.9 L360.5 34.05 346.1 14.75 Q334.45 -1.0 330.25 -5.3 M478.4 52.65 Q479.55 49.35 480.85 47.3 L466.25 47.35 447.95 47.1 448.0 48.1 Q448.0 49.2 447.4 50.35 445.85 53.15 440.5 56.3 432.7 60.95 419.25 64.9 386.7 74.35 342.75 74.35 264.7 74.35 229.8 68.5 217.7 66.45 210.5 63.6 208.35 62.75 202.65 59.6 195.85 55.9 184.25 50.4 L179.15 47.95 168.8 43.05 162.4 44.35 Q153.1 45.9 153.7 53.9 L153.9 56.55 154.3 58.55 Q154.55 60.75 154.15 64.1 L154.15 67.75 154.05 78.0 153.95 91.3 164.55 91.0 164.65 83.85 164.8 79.1 Q159.55 78.7 157.95 77.75 157.05 77.2 157.25 76.55 L157.65 75.85 157.65 74.1 Q157.8 73.3 158.9 72.85 160.45 72.25 165.2 72.05 165.85 63.7 167.1 61.1 162.5 58.35 159.75 56.05 155.65 52.55 155.65 49.85 155.65 48.0 156.9 46.85 158.0 45.85 159.4 45.85 L169.7 52.85 171.15 53.85 Q183.0 62.0 196.7 68.25 245.7 90.6 316.65 90.6 332.45 90.6 346.8 89.85 L350.6 89.6 Q396.0 86.75 426.35 75.85 L428.6 75.0 Q437.45 71.65 444.1 67.9 L446.6 66.4 Q450.3 64.1 453.2 61.65 459.85 56.05 460.65 51.35 L460.75 50.1 461.85 49.5 Q462.8 48.85 464.25 48.85 467.45 48.85 468.0 51.9 468.2 53.05 468.0 54.6 468.0 60.95 457.3 68.4 450.6 73.05 440.95 77.25 L431.6 81.0 440.2 80.85 444.25 80.85 Q450.05 80.85 454.6 81.0 455.55 74.85 457.25 74.85 459.3 74.85 460.3 81.25 467.2 81.7 469.55 82.65 471.85 83.55 470.0 84.7 470.0 86.45 469.7 86.7 468.85 87.45 464.85 87.6 L460.95 87.6 461.3 97.35 469.8 96.55 470.7 96.45 471.25 91.35 Q474.25 64.3 478.4 52.65 M435.0 49.25 L439.25 46.8 384.55 44.1 385.05 46.6 385.2 48.55 385.15 53.6 385.0 55.95 385.0 57.35 385.0 61.35 385.0 64.65 384.9 65.75 388.05 65.2 392.9 64.2 392.5 62.0 392.5 56.35 392.5 49.6 Q392.65 48.4 392.95 47.55 393.9 44.85 396.25 44.85 398.9 44.85 399.8 48.05 400.6 50.9 400.0 56.2 L400.0 62.55 412.45 59.25 Q404.8 58.95 402.8 57.75 401.9 57.2 402.1 56.55 L402.5 55.85 402.5 54.1 Q402.65 53.3 403.8 52.85 406.4 51.85 418.25 51.85 L429.15 52.45 435.0 49.25 M409.1 87.9 L400.45 90.0 Q401.65 93.4 401.7 100.55 401.8 108.1 401.0 122.6 401.0 128.55 402.5 140.25 L403.0 144.45 Q404.5 143.7 410.55 142.1 410.65 136.0 410.9 130.2 404.6 129.8 402.8 128.75 401.9 128.2 402.1 127.55 L402.5 126.85 Q402.5 124.85 403.5 124.5 L408.2 124.35 411.2 124.35 411.5 119.35 Q412.2 109.35 413.15 103.65 L402.75 103.35 Q402.5 104.35 402.5 101.85 L401.9 100.1 Q401.7 99.25 403.75 98.85 L414.45 98.1 Q415.25 95.85 416.25 95.85 419.2 95.85 420.0 98.0 426.6 97.85 435.75 97.85 436.15 90.55 437.1 87.05 L437.1 87.0 436.95 87.0 420.4 86.4 418.75 86.35 Q418.5 87.25 418.5 85.3 L409.1 87.9 M443.1 97.85 L453.5 97.65 453.55 94.6 453.9 87.5 441.75 87.15 Q442.75 90.6 443.1 97.85 M360.65 66.6 L377.0 66.6 377.85 66.6 377.5 63.95 377.5 56.2 377.5 47.6 Q377.7 45.25 378.25 43.75 L358.7 42.5 Q283.8 37.6 258.65 37.6 L240.05 37.7 Q229.15 37.75 220.1 37.95 222.3 38.45 223.0 41.9 223.5 44.75 223.0 49.6 223.75 56.55 222.3 59.4 L227.8 60.5 238.6 62.1 242.85 62.6 Q277.85 66.15 356.65 66.55 L360.65 66.6 M237.2 40.6 Q239.25 43.75 239.0 52.85 L239.05 58.1 Q238.75 59.8 237.75 60.65 236.8 61.35 235.25 61.35 234.05 61.35 233.1 59.0 232.2 56.95 231.55 53.2 230.8 49.05 230.5 44.7 L230.7 41.85 231.05 40.6 Q231.85 38.85 234.25 38.85 236.05 38.85 237.2 40.6 M326.0 13.35 L326.0 19.85 326.75 23.9 Q327.3 27.1 328.65 27.1 L337.25 26.35 337.5 22.6 Q337.5 20.05 336.45 17.7 334.55 13.5 330.0 12.85 L326.0 13.35 M380.1 213.65 Q378.95 205.85 378.55 187.35 L378.5 154.35 Q378.25 138.15 378.5 123.35 L376.75 123.35 Q362.3 123.35 360.95 118.4 360.6 117.1 361.1 113.85 361.55 110.8 361.0 109.35 L357.65 101.45 Q356.7 99.2 356.55 96.65 L324.95 98.3 Q328.65 104.35 334.0 121.2 334.0 129.35 309.75 129.35 308.0 129.35 302.5 98.85 L302.5 98.25 269.95 96.75 Q270.5 101.0 270.0 108.2 L270.45 112.65 Q270.7 116.1 270.05 118.35 268.0 125.35 256.75 125.35 246.15 125.35 243.8 123.35 243.05 122.7 243.2 121.9 L243.5 121.1 Q243.5 119.4 246.55 103.85 247.7 98.0 248.6 94.2 L241.45 92.75 235.8 91.3 Q230.8 89.8 226.7 87.95 L218.5 83.85 Q195.8 74.8 181.85 68.5 175.4 65.6 170.55 63.0 171.35 66.0 171.8 71.85 L173.4 71.85 Q185.8 71.85 188.7 73.65 190.15 74.55 189.15 75.7 189.15 78.35 187.2 78.85 L173.4 79.35 172.2 79.35 172.4 90.9 181.75 90.85 184.0 90.85 Q184.8 83.85 185.4 83.85 187.75 83.85 188.75 90.9 194.9 90.95 199.85 91.15 L199.65 89.85 Q199.65 87.6 200.7 83.9 202.1 78.85 204.25 78.85 209.25 78.85 208.0 86.1 L207.75 90.6 207.4 91.55 213.85 92.25 Q214.75 87.85 216.25 87.85 221.25 87.85 220.0 126.6 220.75 150.3 219.2 159.55 L219.55 159.65 Q221.75 160.55 220.0 161.7 L220.6 163.55 Q220.45 164.6 216.7 165.3 L216.25 165.35 156.8 167.35 154.9 167.35 152.85 167.25 152.35 185.55 Q151.65 206.5 150.7 214.85 L150.7 214.9 150.6 216.05 150.0 219.35 150.55 219.3 153.05 218.95 168.4 217.1 172.0 217.1 233.85 217.0 234.65 217.0 Q234.0 216.3 233.55 214.15 233.0 211.85 232.6 207.9 231.85 200.5 231.55 187.35 L231.55 186.85 231.55 185.3 231.5 155.35 231.4 138.8 Q231.4 130.75 231.55 123.1 232.2 92.85 235.25 92.85 240.4 92.85 239.0 155.2 240.3 212.65 236.0 217.0 L337.4 216.85 344.75 216.85 346.65 216.85 376.2 217.0 380.8 217.05 380.1 213.65 M372.95 99.45 Q372.5 97.85 372.5 96.95 L372.55 94.9 370.15 95.2 365.5 95.75 364.7 95.85 365.05 96.6 366.6 100.2 Q369.2 106.7 370.45 112.35 L371.0 115.35 378.5 115.35 378.15 113.55 Q377.45 110.75 375.3 105.8 373.6 101.85 372.95 99.45 M378.15 94.15 L377.75 94.2 379.65 98.35 379.85 96.3 380.2 93.8 378.15 94.15 M465.65 206.45 L465.55 204.55 465.5 187.45 Q465.7 175.7 466.2 164.05 L465.55 164.1 Q455.65 165.35 400.75 165.35 L400.45 165.35 400.25 165.35 400.0 165.35 Q396.5 165.0 396.5 161.85 L396.05 160.0 Q396.1 159.4 396.9 159.0 395.45 152.45 394.55 139.35 L393.5 113.1 Q393.25 106.05 393.55 99.6 393.8 94.35 394.5 91.25 L389.55 92.2 384.45 93.1 Q385.0 95.8 385.4 100.2 385.85 105.25 386.1 112.55 L389.0 119.1 Q389.0 121.55 388.05 122.1 L386.3 122.7 386.3 123.95 Q386.65 130.9 386.25 138.35 L386.25 138.45 386.0 154.2 Q386.95 198.9 384.85 212.95 L383.95 217.05 466.9 217.55 Q466.0 213.8 465.65 206.45 M322.7 118.95 L324.75 118.35 324.35 117.3 Q323.05 113.85 319.9 108.1 318.35 105.25 317.8 102.3 317.5 100.75 317.5 99.2 L317.55 98.35 316.25 98.35 315.0 98.35 309.9 98.35 310.9 102.65 311.8 107.3 312.7 114.4 313.0 120.6 Q317.85 120.25 322.7 118.95 M404.0 157.65 L413.2 157.15 Q411.0 156.2 410.5 150.85 L410.5 148.05 407.75 148.35 Q404.6 148.35 403.35 147.35 404.0 153.75 404.0 157.65 M467.95 129.55 L469.0 115.1 469.95 104.3 467.6 104.55 465.7 104.6 461.3 104.65 461.0 116.2 461.05 116.9 Q463.45 117.05 464.4 118.3 465.1 119.2 465.0 120.7 465.0 121.25 464.0 121.85 463.05 122.45 461.2 123.1 461.8 151.3 458.75 156.3 L465.2 155.7 466.55 155.55 466.95 146.85 467.95 129.55 M453.5 117.85 L453.5 116.35 453.4 104.55 443.3 104.35 443.05 119.9 448.7 118.75 453.5 117.85 M453.55 135.15 L453.55 125.15 445.3 126.85 443.2 127.25 443.3 135.1 447.75 134.85 453.55 135.15 M435.5 120.85 Q435.3 111.95 435.5 104.2 L419.95 103.8 419.25 123.85 435.5 121.4 435.5 120.85 M420.05 139.6 Q428.9 137.35 435.55 136.2 L435.55 128.55 Q424.85 130.25 418.9 130.35 L418.2 140.1 420.05 139.6 M430.5 145.6 L417.45 147.2 Q416.35 155.75 414.85 157.1 422.8 156.85 434.25 156.85 L438.3 156.85 Q436.55 154.85 435.85 145.05 L430.5 145.6 M456.05 156.45 Q454.45 153.7 453.85 142.9 L443.1 144.25 Q442.45 154.75 440.4 156.85 L456.05 156.45 M463.0 247.05 Q464.1 241.85 467.25 241.85 470.9 241.85 471.0 246.1 470.45 261.65 469.1 268.65 L486.65 268.95 Q486.5 264.65 486.5 257.6 486.25 253.7 486.55 250.1 486.85 246.85 487.65 245.05 482.0 244.8 479.25 243.65 478.25 243.2 476.25 241.6 474.95 240.6 473.0 240.6 415.2 240.6 375.55 241.2 L363.15 241.4 362.85 241.4 362.9 241.75 364.95 257.75 366.0 267.95 367.0 267.95 370.2 267.95 409.75 267.85 443.35 268.3 462.4 268.55 462.6 268.55 462.5 258.85 462.35 255.25 Q462.3 252.4 462.55 249.9 462.7 248.3 463.0 247.05 M361.35 224.75 L359.4 224.75 361.05 231.1 361.55 233.8 Q398.2 232.85 450.25 232.85 487.05 232.85 516.0 237.6 L520.9 238.45 520.85 237.2 521.5 224.85 361.35 224.75 M275.7 224.7 L243.25 224.65 243.0 226.85 240.4 243.8 270.75 243.35 Q272.65 243.35 275.8 241.65 279.75 239.55 290.45 238.05 310.05 235.3 353.55 234.0 L352.5 225.45 352.5 224.75 304.45 224.7 275.7 224.7 M355.5 250.05 L354.45 241.55 299.8 243.9 Q288.65 245.0 283.6 247.1 277.3 249.65 273.25 250.35 255.6 253.45 238.75 253.8 L236.35 267.1 Q245.25 264.1 282.05 259.25 L339.25 252.35 348.25 251.85 355.85 252.25 355.5 250.05 M358.65 266.95 Q357.65 263.1 356.65 257.35 345.3 260.05 304.3 265.35 250.0 272.35 241.75 272.35 L235.5 271.7 233.2 282.4 246.65 279.9 Q295.55 270.45 314.25 268.1 L356.45 268.0 Q357.2 267.15 358.65 266.95 M360.45 286.6 Q360.2 283.6 358.0 277.7 L357.2 275.5 324.85 275.5 292.85 276.85 265.8 282.2 231.65 288.5 230.95 290.7 240.3 290.15 Q256.5 289.6 360.25 287.35 L360.5 287.35 360.45 286.6 M262.15 96.05 L255.15 95.2 255.0 96.35 Q255.0 104.65 252.25 117.35 L262.5 117.35 Q261.95 110.95 261.85 105.95 L261.8 105.05 261.8 102.55 Q261.85 98.9 262.3 96.45 L262.4 96.05 262.15 96.05 M194.95 45.85 L198.7 48.25 Q198.8 46.45 199.9 45.85 201.7 44.85 208.25 44.85 L215.4 45.55 215.5 43.65 215.75 42.1 Q216.4 38.6 218.35 38.0 L184.35 39.8 182.95 40.0 Q188.05 41.75 193.6 45.05 L194.95 45.85 M172.35 98.3 L172.15 109.45 172.3 116.4 181.9 115.95 183.2 98.6 180.35 98.5 172.35 98.3 M214.4 56.8 L215.6 57.3 215.5 52.0 210.05 52.35 208.25 52.35 204.7 52.25 208.0 54.1 214.4 56.8 M206.3 114.9 L212.35 115.7 Q212.35 111.4 212.5 107.15 212.65 102.75 212.95 99.35 L205.9 99.2 Q206.4 105.15 206.3 114.9 M206.15 121.35 L206.0 124.45 Q206.35 132.75 206.3 139.1 L212.6 139.9 212.5 126.6 212.4 120.2 206.15 121.35 M209.4 144.7 L206.2 144.65 Q205.8 154.85 204.15 158.0 L212.7 158.45 212.6 144.85 209.4 144.7 M199.15 99.05 L189.35 98.75 Q189.55 105.6 189.2 115.55 L195.4 115.1 198.5 115.0 Q198.5 110.5 198.65 106.35 L199.15 99.05 M189.15 122.95 L189.2 139.1 189.2 139.2 198.25 138.85 198.65 138.85 198.65 124.7 198.6 122.2 189.15 122.95 M164.65 109.7 L164.5 98.05 153.9 97.6 153.7 117.4 157.8 116.9 164.65 116.65 164.65 109.7 M164.65 134.7 L164.65 124.25 162.4 124.35 153.6 123.55 153.25 146.7 Q155.4 144.6 164.95 142.6 L164.65 134.7 M172.15 141.3 L180.4 140.1 181.45 123.45 172.4 123.9 Q172.45 134.05 172.15 141.3 M177.9 147.85 L171.65 149.4 Q170.95 156.25 169.7 158.4 L174.4 158.35 180.25 157.95 Q179.65 157.15 179.65 155.85 179.65 153.65 180.0 147.45 L177.9 147.85 M188.75 146.0 Q187.9 154.9 186.05 157.9 L195.25 157.85 200.8 157.9 Q199.25 154.75 198.8 144.9 L188.75 146.0 M154.25 159.6 Q158.85 158.7 167.3 158.45 166.25 156.55 165.6 150.6 L156.4 151.35 Q154.1 151.35 153.2 150.0 L153.05 156.9 153.0 159.9 154.25 159.6 M167.0 249.5 L164.8 249.5 Q145.1 249.8 123.9 254.6 L121.0 255.4 Q123.5 260.85 125.15 274.85 124.9 284.7 123.55 289.3 L144.4 288.0 145.0 288.0 144.75 286.85 Q142.75 278.0 140.65 259.95 L140.65 255.1 Q141.2 252.15 143.85 251.9 L144.1 251.85 144.4 251.85 Q144.6 251.85 144.85 252.1 145.5 252.7 146.25 255.05 147.65 259.3 149.4 269.2 L151.25 280.35 152.15 286.85 152.15 287.7 162.7 287.35 170.05 287.2 174.5 287.15 Q183.95 287.0 193.65 287.1 201.05 287.15 214.25 285.4 L225.4 283.7 225.9 281.0 Q227.55 272.05 231.15 253.8 L198.0 251.4 167.0 249.5 M235.7 231.85 L237.35 224.65 167.65 224.6 Q158.85 224.6 128.45 232.5 103.1 239.05 95.4 241.85 98.3 247.1 104.2 252.95 110.3 249.7 131.25 247.85 161.25 245.2 233.15 243.9 L234.75 236.25 235.7 231.85" fill="#000000" fill-rule="evenodd" stroke="none"/>
      <path d="M47.85 49.2 Q47.45 47.35 47.4 45.45 L47.4 45.4 47.4 45.1 Q47.4 35.45 58.05 23.05 62.1 18.35 73.15 8.05 L72.9 8.35 Q54.75 33.95 47.85 49.2 M102.95 -20.15 L219.1 -20.15 Q207.9 -19.85 148.9 -10.9 99.1 -3.35 89.15 -0.35 L92.6 -5.2 102.95 -20.15 M226.15 -20.1 L282.15 -20.15 280.75 -18.9 Q278.7 -17.2 274.2 -11.25 269.55 -5.1 268.25 -3.9 265.65 -1.6 261.35 5.4 L259.55 8.1 257.65 8.25 255.8 11.1 255.75 11.1 Q202.2 17.65 153.8 27.9 L150.6 28.6 145.9 28.25 Q141.95 29.5 138.7 31.25 111.15 37.65 100.85 42.95 L98.9 42.85 Q94.35 42.85 83.5 48.6 L72.15 54.85 Q64.8 57.5 56.15 59.55 L53.7 58.3 59.25 47.4 Q70.25 25.3 72.65 22.1 L87.1 2.5 Q88.0 3.0 92.0 3.65 L98.4 4.35 123.0 0.8 Q147.7 -2.95 156.4 -4.65 208.1 -14.7 231.75 -15.55 236.25 -15.7 240.85 -15.45 242.0 -15.35 242.0 -16.25 L242.5 -17.05 Q242.8 -17.75 241.55 -18.35 238.35 -19.8 226.15 -20.1 M366.85 -20.15 L382.9 -20.15 Q383.4 -19.25 384.5 -19.15 394.5 -17.9 476.25 -17.65 L550.75 -18.05 Q565.45 5.8 571.95 6.35 L571.95 54.15 571.0 53.6 Q560.75 47.85 536.2 38.8 514.6 30.85 513.25 30.85 510.6 30.85 509.85 32.9 500.5 28.65 497.25 27.85 491.8 26.4 489.9 24.35 487.4 21.65 486.6 21.25 480.45 18.2 443.0 16.55 L442.8 16.35 441.6 16.5 438.25 16.35 417.9 15.6 398.75 14.35 Q397.25 11.7 397.0 10.6 396.15 7.85 392.0 3.85 384.0 -8.3 366.85 -20.15" fill="#4d2e00" fill-rule="evenodd" stroke="none"/>
      <path d="M6.95 311.25 Q1.25 307.9 0.05 300.0 -0.55 295.95 -0.05 289.5 0.4 283.35 0.15 282.35 -2.9 268.45 -3.45 255.7 -10.45 253.2 -12.35 244.1 -13.2 240.15 -13.0 235.15 L-12.6 230.2 Q-12.6 215.3 -12.05 208.9 -11.15 198.6 -7.85 185.6 -6.25 179.35 -5.3 170.05 L-5.3 170.0 -5.55 166.85 Q-6.5 154.6 -6.15 138.8 L-5.6 122.95 Q-7.1 99.7 -5.6 79.15 -4.3 61.2 -0.6 51.2 -4.45 49.4 -6.55 45.35 -8.6 41.45 -8.6 37.1 7.0 -12.85 20.4 -20.15 L31.6 -20.15 Q37.55 -17.6 40.15 -9.9 42.15 -10.35 47.1 -13.1 51.35 -15.4 53.9 -15.4 61.2 -15.4 65.25 -10.9 71.9 -19.4 78.4 -19.4 85.75 -19.4 89.7 -14.35 81.35 -3.6 73.15 8.05 62.1 18.35 58.05 23.05 47.4 35.45 47.4 45.1 L47.4 45.4 47.4 45.45 Q47.45 47.35 47.85 49.2 44.1 57.5 43.7 62.7 42.65 63.45 42.65 64.85 42.65 66.35 42.9 66.75 44.0 68.35 48.4 68.35 55.5 68.35 79.7 59.85 92.0 55.55 98.35 52.35 L98.9 52.35 101.3 51.8 103.75 52.4 Q104.65 94.95 104.65 116.85 L104.75 121.8 104.6 122.1 104.8 122.4 Q105.15 133.8 107.15 152.05 108.9 168.35 109.45 178.9 L109.4 181.6 109.4 192.15 107.65 221.85 107.65 225.5 Q106.5 227.6 104.25 229.0 86.65 234.65 86.65 241.1 L88.5 244.7 Q90.75 248.8 93.15 252.35 100.6 263.35 105.4 263.35 110.15 263.35 110.15 259.45 L110.05 259.15 Q112.3 260.15 114.0 261.15 115.3 268.1 115.4 270.85 L114.8 276.0 Q114.25 281.2 114.9 285.1 115.3 287.55 116.15 289.5 L115.75 289.95 Q89.6 292.2 65.45 296.25 64.25 294.3 63.7 292.05 63.2 290.05 63.4 289.6 L63.15 289.1 Q58.45 292.5 54.7 293.35 53.45 296.5 51.7 298.7 43.55 300.25 36.55 301.95 33.15 300.85 32.15 300.85 L31.4 303.2 Q20.75 305.9 12.9 308.8 9.55 310.05 6.95 311.25 M561.3 56.8 Q562.25 59.35 562.25 62.1 562.25 64.45 561.15 67.6 L559.0 73.35 Q564.65 76.75 568.0 81.05 571.25 85.2 571.25 88.7 571.25 91.0 564.3 107.55 L555.25 129.35 555.25 129.6 Q565.5 131.5 569.05 136.7 571.25 139.95 571.25 146.2 571.25 148.85 564.25 172.65 557.35 196.1 553.75 205.85 L553.5 206.35 559.25 205.6 Q568.25 205.6 571.95 212.05 L571.95 276.2 571.65 276.65 571.15 276.6 Q559.4 275.9 549.5 274.1 542.0 272.1 538.25 271.85 L524.25 270.35 511.0 269.6 493.65 269.1 Q494.75 265.4 494.0 257.6 494.5 252.15 494.15 248.7 L494.25 246.05 497.65 244.95 505.25 244.35 Q511.7 243.75 517.3 245.0 L523.25 246.35 524.6 246.3 525.25 246.35 Q526.2 246.35 526.95 245.8 529.0 244.9 529.0 242.7 L528.85 241.55 529.0 240.1 529.0 237.5 529.35 236.6 Q529.65 235.45 529.5 233.15 L529.25 228.7 529.0 225.75 529.0 224.35 528.75 220.6 Q528.15 218.85 527.0 218.35 L525.15 218.25 524.75 217.85 Q523.45 216.55 519.1 215.0 515.25 213.6 514.25 213.6 L507.1 213.45 506.75 211.55 Q507.85 203.2 507.9 188.35 L507.4 163.35 508.25 160.85 Q509.0 147.55 509.2 138.9 L509.0 138.35 Q511.2 114.45 511.25 104.95 L513.0 93.4 Q516.95 67.4 518.3 54.35 520.0 51.0 522.0 48.6 528.85 51.35 531.75 51.35 534.7 51.35 536.0 50.2 L550.2 53.65 Q558.05 55.5 561.3 56.8 M56.15 59.55 L52.55 60.35 53.7 58.3 56.15 59.55 M389.2 242.35 Q409.5 243.6 445.25 243.6 L463.5 243.55 463.0 247.05 Q462.7 248.3 462.55 249.9 462.3 252.4 462.35 255.25 L462.25 260.1 462.05 264.05 Q462.05 265.7 462.2 267.2 L454.0 267.85 443.35 268.3 409.75 267.85 370.2 267.95 366.7 266.35 366.65 266.2 364.95 257.75 362.9 241.75 363.15 241.4 375.55 241.2 387.65 242.25 388.5 242.35 389.2 242.35 M88.25 300.45 L85.4 301.1 76.55 303.45 Q71.5 302.8 68.25 299.8 78.15 297.85 91.3 296.85 89.95 299.0 88.25 300.45 M148.45 252.6 L149.4 252.6 Q152.0 252.6 167.0 249.5 L198.0 251.4 231.15 253.8 Q227.55 272.05 225.9 281.0 220.65 282.1 213.5 281.1 214.15 283.0 214.25 285.4 201.05 287.15 193.65 287.1 183.95 287.0 174.5 287.15 L174.15 286.1 170.05 287.2 162.7 287.35 Q155.95 286.25 151.25 280.35 L149.4 269.2 Q147.65 259.3 146.25 255.05 L146.9 254.1 148.45 252.6 M55.4 236.1 L55.05 236.55 55.2 236.75 55.4 236.1" fill="#88acff" fill-rule="evenodd" stroke="none"/>
      <path d="M116.15 289.5 Q115.3 287.55 114.9 285.1 114.25 281.2 114.8 276.0 L115.4 270.85 Q115.3 268.1 114.0 261.15 L113.3 257.45 113.75 257.3 Q114.0 260.15 115.65 265.0 117.65 270.95 117.65 275.6 L117.05 289.85 116.35 289.9 116.15 289.5 M104.25 229.0 Q106.5 227.6 107.65 225.5 L107.65 227.95 104.25 229.0 M109.4 192.15 L109.4 181.6 109.45 178.9 109.65 186.6 109.4 192.15 M299.8 -20.15 L344.55 -20.15 Q348.4 -18.05 353.0 -15.5 379.4 -0.65 384.75 7.1 386.4 9.5 391.75 19.1 395.7 25.3 400.1 27.0 L409.55 27.35 422.0 24.9 439.25 24.35 477.5 28.15 Q480.3 28.55 482.5 29.85 484.95 30.55 506.6 41.45 L512.55 44.4 Q510.2 53.1 506.5 73.5 500.0 109.6 499.5 126.6 498.75 156.6 498.5 217.35 L498.5 217.8 471.3 217.55 Q472.95 210.1 473.3 188.0 473.4 148.35 474.0 135.85 474.7 123.05 481.95 86.15 L489.0 49.2 489.05 47.1 492.05 46.9 Q493.95 46.6 494.15 45.8 L494.0 43.7 Q494.0 41.8 392.3 35.85 L365.55 34.3 Q366.0 33.25 366.0 31.6 335.65 -16.15 329.25 -16.15 323.3 -16.15 306.5 5.1 300.25 13.0 295.3 20.35 290.5 27.5 290.5 28.75 L290.55 30.65 Q269.9 29.85 258.25 29.85 L213.25 30.1 Q198.65 33.1 182.45 34.8 L161.8 36.95 Q153.45 38.15 150.25 40.9 146.65 44.0 146.65 51.1 L146.65 56.35 Q146.95 58.9 147.9 60.15 146.2 70.55 145.7 98.35 145.3 120.8 145.65 144.85 144.6 212.7 148.5 219.6 136.7 221.3 125.3 223.65 L114.2 226.15 Q116.0 214.5 117.15 186.35 117.15 174.45 114.65 150.65 113.7 141.4 113.1 133.85 113.65 125.9 113.65 120.85 113.65 115.35 112.55 102.55 113.15 81.85 113.05 69.75 113.0 55.85 111.6 48.85 L128.45 43.8 Q158.05 34.85 163.65 33.85 166.5 33.6 196.15 26.6 202.9 24.95 212.05 24.85 L228.25 25.2 Q248.65 25.75 259.75 20.35 272.45 14.2 287.9 -4.5 292.85 -10.5 299.8 -20.15 M259.55 8.1 Q257.4 10.9 255.8 11.1 L257.65 8.25 259.55 8.1 M150.6 28.6 L138.7 31.25 Q141.95 29.5 145.9 28.25 L150.6 28.6 M330.25 -5.3 Q327.95 -4.9 324.8 -2.55 L324.0 -3.05 Q327.5 -6.9 328.15 -6.9 328.7 -6.9 330.25 -5.3 M511.25 104.95 Q511.2 114.45 509.0 138.35 L508.75 141.05 507.3 157.75 507.0 134.35 Q507.0 133.05 511.25 104.95 M507.1 213.45 L514.25 213.6 Q515.25 213.6 519.1 215.0 523.45 216.55 524.75 217.85 L525.15 218.25 505.55 217.9 506.5 213.45 507.1 213.45 M529.0 225.75 L529.25 228.7 529.5 233.15 Q529.65 235.45 529.35 236.6 L529.0 237.5 529.0 225.75 M494.25 246.05 L494.15 248.7 Q493.9 246.5 493.3 245.1 L494.25 245.1 494.25 246.05 M447.4 50.35 Q448.0 49.2 448.0 48.1 L447.95 47.1 466.25 47.35 480.85 47.3 Q479.55 49.35 478.4 52.65 L468.0 51.9 Q467.45 48.85 464.25 48.85 462.8 48.85 461.85 49.5 L460.75 50.1 460.65 51.35 447.4 50.35 M385.05 46.6 L384.55 44.1 439.25 46.8 435.0 49.25 429.0 48.6 Q414.0 49.0 399.8 48.05 398.9 44.85 396.25 44.85 393.9 44.85 392.95 47.55 L386.4 46.8 385.05 46.6 M184.25 50.4 L184.15 50.4 Q178.75 52.2 171.15 53.85 L169.7 52.85 159.4 45.85 Q158.0 45.85 156.9 46.85 155.65 48.0 155.65 49.85 155.65 52.55 159.75 56.05 156.25 56.75 154.3 58.55 L153.9 56.55 153.7 53.9 Q153.1 45.9 162.4 44.35 L168.8 43.05 179.15 47.95 184.25 50.4 M240.05 37.7 Q238.65 38.7 237.55 40.1 L237.2 40.6 Q236.05 38.85 234.25 38.85 231.85 38.85 231.05 40.6 L230.7 41.85 227.75 41.85 223.0 41.9 Q222.3 38.45 220.1 37.95 229.15 37.75 240.05 37.7 M376.2 217.0 Q378.45 215.95 380.1 213.65 L380.8 217.05 376.2 217.0 M384.85 212.95 L422.25 211.6 444.7 212.05 447.15 212.1 463.75 212.5 463.95 211.6 465.65 206.45 Q466.0 213.8 466.9 217.55 L383.95 217.05 384.85 212.95 M463.0 247.05 L463.5 243.55 445.25 243.6 Q409.5 243.6 389.2 242.35 L387.65 242.25 375.55 241.2 Q415.2 240.6 473.0 240.6 474.95 240.6 476.25 241.6 478.25 243.2 479.25 243.65 482.0 244.8 487.65 245.05 486.85 246.85 486.55 250.1 486.25 253.7 486.5 257.6 486.5 264.65 486.65 268.95 L469.1 268.65 Q470.45 261.65 471.0 246.1 470.9 241.85 467.25 241.85 464.1 241.85 463.0 247.05 M462.2 267.2 Q462.05 265.7 462.05 264.05 L462.25 260.1 462.35 255.25 462.5 258.85 462.6 268.55 462.4 268.55 462.2 267.2 M361.05 231.1 L361.25 228.45 361.35 224.75 521.5 224.85 520.85 237.2 520.9 238.45 516.0 237.6 Q487.05 232.85 450.25 232.85 398.2 232.85 361.55 233.8 L361.05 231.1 M215.75 42.1 L205.0 42.95 Q199.65 43.75 194.95 45.85 L193.6 45.05 Q188.05 41.75 182.95 40.0 L184.35 39.8 218.35 38.0 Q216.4 38.6 215.75 42.1 M172.0 217.1 L180.9 216.2 192.45 215.4 Q206.7 214.6 224.65 214.6 L225.25 214.6 Q229.95 214.6 233.6 215.45 L233.65 215.9 233.85 217.0 172.0 217.1 M150.6 216.05 L150.6 216.9 150.55 219.3 150.0 219.35 150.6 216.05 M167.0 249.5 Q152.0 252.6 149.4 252.6 L148.45 252.6 144.85 252.1 Q144.6 251.85 144.4 251.85 L144.1 251.85 143.85 251.8 143.85 251.9 Q141.2 252.15 140.65 255.1 L140.65 259.95 Q142.75 278.0 144.75 286.85 L144.65 287.1 144.4 288.0 123.55 289.3 Q124.9 284.7 125.15 274.85 123.5 260.85 121.0 255.4 L123.9 254.6 Q145.1 249.8 164.8 249.5 L167.0 249.5 M234.75 236.25 L233.15 243.9 Q161.25 245.2 131.25 247.85 110.3 249.7 104.2 252.95 98.3 247.1 95.4 241.85 103.1 239.05 128.45 232.5 158.85 224.6 167.65 224.6 L237.35 224.65 235.7 231.85 235.45 232.75 234.75 236.25" fill="#aa7700" fill-rule="evenodd" stroke="none"/>
      <path d="M324.8 -2.55 Q327.95 -4.9 330.25 -5.3 334.45 -1.0 346.1 14.75 L360.5 34.05 339.55 32.9 Q345.0 30.2 345.0 23.6 345.0 18.95 343.05 13.85 339.55 4.85 331.75 4.85 321.65 4.85 319.3 8.35 318.45 9.65 318.4 11.75 L318.5 15.5 Q318.25 21.85 319.85 27.35 320.7 30.15 321.9 32.0 L296.65 30.9 298.15 28.45 Q312.7 10.05 320.25 1.25 322.7 -1.05 324.8 -2.55 M346.8 89.85 L349.25 89.6 350.6 89.6 346.8 89.85 M240.05 37.7 L258.65 37.6 Q283.8 37.6 358.7 42.5 L378.25 43.75 Q377.7 45.25 377.5 47.6 L377.5 56.2 377.5 63.95 377.85 66.6 377.0 66.6 360.65 66.6 360.25 66.25 356.65 66.55 Q277.85 66.15 242.85 62.6 L240.55 61.85 237.75 60.65 Q238.75 59.8 239.05 58.1 L239.0 52.85 Q239.25 43.75 237.2 40.6 L237.55 40.1 Q238.65 38.7 240.05 37.7 M235.8 91.3 L241.45 92.75 248.6 94.2 Q247.7 98.0 246.55 103.85 243.5 119.4 243.5 121.1 L243.2 121.9 Q243.05 122.7 243.8 123.35 246.15 125.35 256.75 125.35 268.0 125.35 270.05 118.35 270.7 116.1 270.45 112.65 L270.0 108.2 Q270.5 101.0 269.95 96.75 L302.5 98.25 302.5 98.85 Q308.0 129.35 309.75 129.35 334.0 129.35 334.0 121.2 328.65 104.35 324.95 98.3 L356.55 96.65 Q356.7 99.2 357.65 101.45 L361.0 109.35 Q361.55 110.8 361.1 113.85 360.6 117.1 360.95 118.4 362.3 123.35 376.75 123.35 L378.5 123.35 Q378.25 138.15 378.5 154.35 L378.55 187.35 Q378.95 205.85 380.1 213.65 378.45 215.95 376.2 217.0 L346.65 216.85 Q344.5 215.6 342.25 215.6 L337.4 216.85 236.0 217.0 Q240.3 212.65 239.0 155.2 240.4 92.85 235.25 92.85 232.2 92.85 231.55 123.1 231.4 130.75 231.4 138.8 L231.25 137.65 Q228.25 113.15 228.25 105.1 228.25 100.35 230.8 96.15 232.75 92.9 235.8 91.3 M326.0 13.35 L330.0 12.85 Q334.55 13.5 336.45 17.7 337.5 20.05 337.5 22.6 L337.25 26.35 328.65 27.1 Q327.3 27.1 326.75 23.9 L326.0 19.85 326.0 13.35 M385.15 53.6 L385.25 54.7 385.0 57.35 385.0 55.95 385.15 53.6 M370.15 95.2 L372.55 94.9 372.5 96.95 Q372.5 97.85 372.95 99.45 L370.15 95.2 M378.15 113.55 L378.5 115.35 371.0 115.35 370.45 112.35 Q372.15 114.35 373.75 114.35 376.6 114.35 378.15 113.55 M365.05 96.6 L364.7 95.85 365.5 95.75 365.05 96.6 M378.15 94.15 L379.85 96.3 379.65 98.35 377.75 94.2 378.15 94.15 M324.35 117.3 L324.75 118.35 322.7 118.95 323.55 118.15 324.35 117.3 M312.7 114.4 L311.8 107.3 Q313.5 111.3 313.5 112.2 313.5 113.3 312.7 114.4 M315.0 98.35 L316.25 98.35 317.55 98.35 317.5 99.2 Q317.5 100.75 317.8 102.3 L315.0 98.35 M304.45 224.7 L301.25 225.1 Q285.65 225.1 275.7 224.7 L304.45 224.7 M262.3 96.45 L262.15 96.05 262.4 96.05 262.3 96.45 M261.85 105.95 L261.75 105.6 261.8 105.05 261.85 105.95 M233.6 215.45 L233.55 214.15 Q234.0 216.3 234.65 217.0 L233.85 217.0 233.65 215.9 233.6 215.45" fill="#653d01" fill-rule="evenodd" stroke="none"/>
      <path d="M468.0 51.9 L478.4 52.65 Q474.25 64.3 471.25 91.35 L469.8 96.55 461.3 97.35 460.95 87.6 464.85 87.6 Q468.85 87.45 469.7 86.7 470.0 86.45 470.0 84.7 471.85 83.55 469.55 82.65 467.2 81.7 460.3 81.25 459.3 74.85 457.25 74.85 455.55 74.85 454.6 81.0 450.05 80.85 444.25 80.85 L440.2 80.85 440.95 77.25 Q450.6 73.05 457.3 68.4 468.0 60.95 468.0 54.6 468.2 53.05 468.0 51.9 M386.4 46.8 L392.95 47.55 Q392.65 48.4 392.5 49.6 L392.5 56.35 392.5 62.0 392.9 64.2 388.05 65.2 Q387.0 64.35 386.25 63.35 L385.0 61.35 385.0 57.35 385.25 54.7 385.15 53.6 385.2 48.55 Q385.65 47.6 386.4 46.8 M399.8 48.05 Q414.0 49.0 429.0 48.6 L435.0 49.25 429.15 52.45 418.25 51.85 Q406.4 51.85 403.8 52.85 402.65 53.3 402.5 54.1 L402.5 55.85 402.1 56.55 Q401.9 57.2 402.8 57.75 404.8 58.95 412.45 59.25 L400.0 62.55 400.0 56.2 Q400.6 50.9 399.8 48.05 M444.1 67.9 L444.2 67.65 445.25 67.1 446.6 66.4 444.1 67.9 M409.1 87.9 Q411.5 89.45 413.5 92.1 L420.05 86.65 420.4 86.4 436.95 87.0 437.1 87.05 Q436.15 90.55 435.75 97.85 426.6 97.85 420.0 98.0 419.2 95.85 416.25 95.85 415.25 95.85 414.45 98.1 L403.75 98.85 Q401.7 99.25 401.9 100.1 L402.5 101.85 Q402.5 104.35 402.75 103.35 L413.15 103.65 Q412.2 109.35 411.5 119.35 L411.2 124.35 408.2 124.35 403.5 124.5 Q402.5 124.85 402.5 126.85 L402.1 127.55 Q401.9 128.2 402.8 128.75 404.6 129.8 410.9 130.2 410.65 136.0 410.55 142.1 404.5 143.7 403.0 144.45 L402.5 140.25 Q401.0 128.55 401.0 122.6 401.8 108.1 401.7 100.55 401.65 93.4 400.45 90.0 L409.1 87.9 M443.1 97.85 Q442.75 90.6 441.75 87.15 L453.9 87.5 453.55 94.6 453.5 97.65 443.1 97.85 M235.8 91.3 Q232.75 92.9 230.8 96.15 228.25 100.35 228.25 105.1 228.25 113.15 231.25 137.65 L231.4 138.8 231.5 155.35 231.55 185.3 231.4 187.25 231.55 187.35 Q231.85 200.5 232.6 207.9 230.85 208.55 228.4 208.4 228.85 210.0 226.2 213.35 L224.65 214.6 Q206.7 214.6 192.45 215.4 187.2 214.7 184.5 213.3 L180.9 216.2 172.0 217.1 168.4 217.1 153.05 218.95 Q151.6 217.2 150.7 214.9 L150.7 214.85 Q151.65 206.5 152.35 185.55 154.75 172.65 156.8 167.35 L216.25 165.35 216.7 165.3 Q220.45 164.6 220.6 163.55 L220.0 161.7 Q221.75 160.55 219.55 159.65 L219.2 159.55 Q220.75 150.3 220.0 126.6 221.25 87.85 216.25 87.85 214.75 87.85 213.85 92.25 L207.4 91.55 207.75 90.6 208.0 86.1 Q209.25 78.85 204.25 78.85 202.1 78.85 200.7 83.9 199.65 87.6 199.65 89.85 L199.85 91.15 Q194.9 90.95 188.75 90.9 187.75 83.85 185.4 83.85 184.8 83.85 184.0 90.85 L181.75 90.85 172.4 90.9 172.2 79.35 173.4 79.35 187.2 78.85 Q189.15 78.35 189.15 75.7 190.15 74.55 188.7 73.65 185.8 71.85 173.4 71.85 L171.8 71.85 Q171.35 66.0 170.55 63.0 175.4 65.6 181.85 68.5 195.8 74.8 218.5 83.85 L226.7 87.95 Q230.8 89.8 235.8 91.3 M389.55 92.2 L394.5 91.25 Q393.8 94.35 393.55 99.6 393.25 106.05 393.5 113.1 L394.55 139.35 Q395.45 152.45 396.9 159.0 396.1 159.4 396.05 160.0 L396.5 161.85 Q396.5 165.0 400.0 165.35 L400.25 165.35 400.45 165.35 400.75 165.35 Q455.65 165.35 465.55 164.1 L466.2 164.05 Q465.7 175.7 465.5 187.45 L465.55 204.55 465.65 206.45 463.95 211.6 463.75 212.5 447.15 212.1 Q446.65 210.9 446.5 209.85 L446.0 209.35 444.7 212.05 422.25 211.6 384.85 212.95 Q386.95 198.9 386.0 154.2 L386.25 138.45 386.25 138.35 Q386.65 130.9 386.3 123.95 L386.3 122.7 388.05 122.1 Q389.0 121.55 389.0 119.1 L386.1 112.55 Q385.85 105.25 385.4 100.2 387.2 95.4 389.55 92.2 M404.0 157.65 Q404.0 153.75 403.35 147.35 404.6 148.35 407.75 148.35 L410.5 148.05 410.5 150.85 Q411.0 156.2 413.2 157.15 L404.0 157.65 M467.6 104.55 Q465.15 113.55 464.4 118.3 463.45 117.05 461.05 116.9 L461.0 116.2 461.3 104.65 465.7 104.6 467.6 104.55 M464.0 121.85 Q464.0 122.5 466.65 127.05 L467.95 129.55 466.95 146.85 465.2 155.7 458.75 156.3 Q461.8 151.3 461.2 123.1 463.05 122.45 464.0 121.85 M456.05 156.45 L440.4 156.85 Q442.45 154.75 443.1 144.25 L453.85 142.9 Q454.45 153.7 456.05 156.45 M430.5 145.6 L435.85 145.05 Q436.55 154.85 438.3 156.85 L434.25 156.85 Q422.8 156.85 414.85 157.1 416.35 155.75 417.45 147.2 L430.5 145.6 M420.05 139.6 L418.2 140.1 418.9 130.35 Q424.85 130.25 435.55 128.55 L435.55 136.2 Q428.9 137.35 420.05 139.6 M435.5 120.85 L435.5 121.4 419.25 123.85 419.95 103.8 435.5 104.2 Q435.3 111.95 435.5 120.85 M453.55 135.15 L447.75 134.85 443.3 135.1 443.2 127.25 445.3 126.85 453.55 125.15 453.55 135.15 M453.5 117.85 L448.7 118.75 443.05 119.9 443.3 104.35 453.4 104.55 453.5 116.35 453.5 117.85 M215.75 42.1 L215.5 43.65 215.4 45.55 208.25 44.85 Q201.7 44.85 199.9 45.85 198.8 46.45 198.7 48.25 L194.95 45.85 Q199.65 43.75 205.0 42.95 L215.75 42.1 M223.0 41.9 L227.75 41.85 230.7 41.85 230.5 44.7 Q230.8 49.05 231.55 53.2 232.2 56.95 233.1 59.0 230.7 60.2 227.8 60.5 L222.3 59.4 Q223.75 56.55 223.0 49.6 223.5 44.75 223.0 41.9 M154.3 58.55 Q156.25 56.75 159.75 56.05 162.5 58.35 167.1 61.1 165.85 63.7 165.2 72.05 160.45 72.25 158.9 72.85 157.8 73.3 157.65 74.1 L157.65 75.85 157.25 76.55 Q157.05 77.2 157.95 77.75 159.55 78.7 164.8 79.1 L164.65 83.85 164.55 91.0 153.95 91.3 154.05 78.0 Q155.3 74.0 156.85 71.1 155.4 69.65 154.25 67.9 L154.15 67.75 154.15 64.1 Q154.55 60.75 154.3 58.55 M172.35 98.3 L180.35 98.5 183.2 98.6 181.9 115.95 172.3 116.4 172.15 109.45 172.35 98.3 M210.05 52.35 L215.5 52.0 215.6 57.3 214.4 56.8 Q211.15 54.55 210.05 52.35 M153.05 156.9 L153.2 150.0 Q154.1 151.35 156.4 151.35 L165.6 150.6 Q166.25 156.55 167.3 158.45 158.85 158.7 154.25 159.6 L153.05 156.9 M188.75 146.0 L198.8 144.9 Q199.25 154.75 200.8 157.9 L195.25 157.85 186.05 157.9 Q187.9 154.9 188.75 146.0 M177.9 147.85 L180.0 147.45 Q179.65 153.65 179.65 155.85 179.65 157.15 180.25 157.95 L174.4 158.35 169.7 158.4 Q170.95 156.25 171.65 149.4 L177.9 147.85 M172.15 141.3 Q172.45 134.05 172.4 123.9 L181.45 123.45 180.4 140.1 172.15 141.3 M164.65 134.7 L164.95 142.6 Q155.4 144.6 153.25 146.7 L153.6 123.55 162.4 124.35 164.65 124.25 164.65 134.7 M164.65 109.7 L164.65 116.65 157.8 116.9 153.7 117.4 153.9 97.6 164.5 98.05 164.65 109.7 M189.15 122.95 L198.6 122.2 198.65 124.7 198.65 138.85 198.25 138.85 189.2 139.2 189.2 139.1 189.15 122.95 M199.15 99.05 L198.65 106.35 Q198.5 110.5 198.5 115.0 L195.4 115.1 189.2 115.55 Q189.55 105.6 189.35 98.75 L199.15 99.05 M209.4 144.7 L212.6 144.85 212.7 158.45 204.15 158.0 Q205.8 154.85 206.2 144.65 L209.4 144.7 M206.15 121.35 L212.4 120.2 212.5 126.6 212.6 139.9 206.3 139.1 Q206.35 132.75 206.0 124.45 L206.15 121.35 M206.3 114.9 Q206.4 105.15 205.9 99.2 L212.95 99.35 Q212.65 102.75 212.5 107.15 212.35 111.4 212.35 115.7 L206.3 114.9" fill="#aa5500" fill-rule="evenodd" stroke="none"/>
      <path d="M447.4 50.35 L460.65 51.35 Q459.85 56.05 453.2 61.65 450.3 64.1 446.6 66.4 L445.25 67.1 444.2 67.65 426.35 75.85 Q396.0 86.75 350.6 89.6 L349.25 89.6 346.8 89.85 Q332.45 90.6 316.65 90.6 245.7 90.6 196.7 68.25 183.0 62.0 171.15 53.85 178.75 52.2 184.15 50.4 L184.25 50.4 Q195.85 55.9 202.65 59.6 208.35 62.75 210.5 63.6 217.7 66.45 229.8 68.5 264.7 74.35 342.75 74.35 386.7 74.35 419.25 64.9 432.7 60.95 440.5 56.3 445.85 53.15 447.4 50.35" fill="#995b00" fill-rule="evenodd" stroke="none"/>
      <path d="M370.15 95.2 L372.95 99.45 Q373.6 101.85 375.3 105.8 377.45 110.75 378.15 113.55 376.6 114.35 373.75 114.35 372.15 114.35 370.45 112.35 369.2 106.7 366.6 100.2 L365.05 96.6 365.5 95.75 370.15 95.2 M324.35 117.3 L323.55 118.15 322.7 118.95 Q317.85 120.25 313.0 120.6 L312.7 114.4 Q313.5 113.3 313.5 112.2 313.5 111.3 311.8 107.3 L310.9 102.65 309.9 98.35 315.0 98.35 317.8 102.3 Q318.35 105.25 319.9 108.1 323.05 113.85 324.35 117.3 M262.15 96.05 L262.3 96.45 Q261.85 98.9 261.8 102.55 L261.8 105.05 261.75 105.6 261.85 105.95 Q261.95 110.95 262.5 117.35 L252.25 117.35 Q255.0 104.65 255.0 96.35 L255.15 95.2 262.15 96.05" fill="#ffffff" fill-rule="evenodd" stroke="none"/>
      <path d="M562.9 284.85 Q566.25 288.45 566.25 293.6 L566.25 321.35 Q566.45 325.45 570.45 347.45 L571.95 356.15 571.95 391.5 571.35 391.9 Q568.2 393.7 559.6 394.3 552.05 394.85 533.9 394.85 515.15 394.85 492.0 397.3 L449.0 402.75 Q388.7 410.6 340.25 410.6 327.6 410.6 283.75 404.75 239.9 398.85 225.25 398.85 218.3 398.85 165.25 399.6 106.8 400.45 105.15 400.85 103.0 401.35 46.9 402.6 L20.75 402.35 Q10.2 401.75 5.45 398.6 0.2 395.2 -1.8 386.75 -3.6 379.0 -3.6 362.2 -3.6 354.45 -2.1 349.85 -0.6 345.2 -0.6 332.6 0.0 326.6 3.3 322.35 17.2 314.75 21.65 313.1 L22.65 312.75 31.9 311.85 Q45.65 311.25 58.55 308.05 L76.55 303.45 85.4 301.1 88.25 300.45 Q100.5 297.7 114.95 295.75 L124.85 295.65 164.15 295.85 Q185.3 295.75 196.4 294.1 L216.4 291.0 Q221.95 291.5 224.5 292.55 L224.5 292.6 Q224.75 293.8 225.5 294.5 L225.5 295.1 Q225.5 296.65 225.8 297.35 226.6 299.35 229.25 299.35 L292.5 297.35 300.5 295.6 Q350.15 296.85 363.85 292.65 368.25 291.35 368.55 289.5 L368.0 287.6 Q367.6 282.8 366.6 278.3 L368.25 277.15 Q369.8 276.2 371.65 275.5 L400.75 275.6 Q414.55 277.35 429.9 277.35 449.05 277.35 455.55 276.0 L456.2 275.9 488.15 276.5 495.25 277.6 Q503.1 278.65 511.8 277.85 L514.95 277.5 Q536.95 278.65 546.7 280.5 550.65 281.25 553.6 282.25 L557.75 283.85 Q559.65 284.5 562.9 284.85 M360.25 287.35 L360.45 286.6 360.5 287.35 360.25 287.35 M217.95 313.25 Q216.35 310.85 214.25 310.85 L217.95 313.25" fill="#eeeeee" fill-rule="evenodd" stroke="none"/>
      <path d="M337.4 216.85 L342.25 215.6 Q344.5 215.6 346.65 216.85 L344.75 216.85 337.4 216.85 M368.25 277.15 L366.6 278.3 366.3 277.1 365.9 275.5 368.2 275.5 368.25 276.45 368.25 277.15 M304.45 224.7 L352.5 224.75 352.5 225.45 353.55 234.0 Q310.05 235.3 290.45 238.05 279.75 239.55 275.8 241.65 272.65 243.35 270.75 243.35 L240.4 243.8 243.0 226.85 243.25 224.65 275.7 224.7 Q285.65 225.1 301.25 225.1 L304.45 224.7 M364.95 257.75 L366.65 266.2 366.7 266.35 367.0 267.95 366.0 267.95 364.95 257.75 M358.65 266.95 Q357.2 267.15 356.45 268.0 L314.25 268.1 Q295.55 270.45 246.65 279.9 L233.2 282.4 235.5 271.7 241.75 272.35 Q250.0 272.35 304.3 265.35 345.3 260.05 356.65 257.35 357.65 263.1 358.65 266.95 M355.5 250.05 L355.85 252.25 348.25 251.85 339.25 252.35 282.05 259.25 Q245.25 264.1 236.35 267.1 L238.75 253.8 Q255.6 253.45 273.25 250.35 277.3 249.65 283.6 247.1 288.65 245.0 299.8 243.9 L354.45 241.55 355.5 250.05 M360.45 286.6 L360.25 287.35 Q256.5 289.6 240.3 290.15 L230.95 290.7 231.65 288.5 265.8 282.2 292.85 276.85 324.85 275.5 357.2 275.5 358.0 277.7 Q360.2 283.6 360.45 286.6 M234.75 236.25 L235.45 232.75 235.7 231.85 234.75 236.25" fill="#a96501" fill-rule="evenodd" stroke="none"/>
    </g>
  </defs>
</svg>
