<?xml version="1.0" encoding="UTF-8" standalone="no"?>
<svg xmlns:xlink="http://www.w3.org/1999/xlink" height="842.55px" width="1337.95px" xmlns="http://www.w3.org/2000/svg">
  <g transform="matrix(1, 0, 0, 1, 407.45, 285.05)">
    <use height="4.5" transform="matrix(5.4867, 0.0, 0.0, 81.5667, 3.2875, 23.0167)" width="99.75" xlink:href="#shape0"/>
    <use height="425.0" transform="matrix(1.0, 0.0, 0.0, 1.0, -2.0, -17.5)" width="557.95" xlink:href="#shape1"/>
  </g>
  <defs>
    <g id="shape0" transform="matrix(1, 0, 0, 1, 49.85, -2.5)">
      <path d="M49.9 7.0 L-49.85 7.0 -49.85 2.5 49.9 2.5 49.9 7.0" fill="#ffffff" fill-rule="evenodd" stroke="none"/>
    </g>
    <g id="shape1" transform="matrix(1, 0, 0, 1, 2.0, 17.5)">
      <path d="M547.2 232.5 L547.25 232.65 548.85 232.75 549.1 232.35 Q549.35 232.3 549.35 233.85 549.35 235.45 548.5 236.0 L548.2 236.15 Q549.6 242.65 549.65 251.75 L549.35 273.25 Q549.75 286.75 549.35 314.75 L549.1 396.4 549.35 397.75 Q549.35 399.35 548.5 399.9 L546.85 400.35 -2.0 400.35 -2.0 -3.5 Q158.25 -2.6 159.25 -2.0 L160.05 -1.3 160.15 -1.7 Q160.5 -2.85 161.0 -3.5 162.95 0.95 163.4 7.45 L163.5 13.3 Q164.2 28.15 164.4 60.3 164.6 90.2 164.35 120.25 L164.15 231.7 193.35 231.5 Q198.75 231.5 213.25 231.85 L222.0 232.1 221.55 231.5 352.35 231.5 Q528.5 231.95 546.75 232.6 L547.2 232.5 M364.6 380.65 Q365.3 385.4 367.85 387.5 L370.35 386.25 370.35 381.0 Q369.85 379.3 369.75 372.8 369.7 368.25 366.85 365.5 364.35 367.35 364.35 373.5 364.35 378.85 364.6 380.65 M388.35 344.0 Q388.35 341.5 385.85 340.5 384.2 343.15 379.8 359.7 375.35 376.6 375.35 381.1 375.35 383.8 377.85 386.5 L380.35 385.25 Q380.35 378.75 384.35 361.85 388.35 344.95 388.35 344.0 M159.3 86.85 L159.3 85.6 158.4 86.85 159.3 86.85 M190.55 368.55 Q188.35 361.5 187.0 361.5 185.2 361.5 184.8 362.05 184.5 362.5 184.5 364.5 184.5 369.5 190.0 381.5 L192.25 380.75 192.4 379.25 193.0 379.5 195.5 378.25 Q195.75 373.9 200.7 363.2 205.5 352.75 205.5 349.0 205.5 346.5 203.0 345.5 200.7 348.05 195.5 361.05 192.7 367.95 191.5 371.6 L190.55 368.55 M34.0 335.5 Q31.5 336.35 31.5 339.0 38.35 357.5 39.0 357.5 41.5 357.5 41.5 356.25 41.8 351.1 39.15 345.25 L34.0 335.5 M49.1 336.15 Q50.5 324.4 50.5 317.5 51.25 312.5 48.0 312.5 45.05 312.5 43.5 327.75 42.5 337.55 42.5 344.25 42.5 349.6 42.65 351.0 43.1 354.9 45.0 357.5 46.0 357.25 47.25 356.5 47.55 349.3 49.1 336.15 M27.0 140.0 L26.55 140.55 26.5 142.0 Q26.5 151.35 26.75 154.0 27.4 160.95 30.0 163.5 L32.25 162.5 32.5 152.35 Q33.6 139.5 29.0 139.5 L27.25 139.75 27.0 140.0 M45.55 147.75 Q47.5 137.75 47.5 132.6 47.5 130.85 47.0 130.3 46.65 129.9 45.0 129.5 42.3 131.2 40.2 141.7 38.5 150.2 38.5 155.35 38.5 163.2 41.0 164.5 L43.25 163.75 Q43.5 158.5 45.55 147.75 M33.5 77.5 L32.15 75.25 Q31.35 73.85 30.0 72.5 27.5 73.35 27.5 76.0 27.5 91.15 31.0 94.5 L33.5 93.25 33.5 77.5 M47.5 43.0 Q47.5 40.5 45.0 39.5 43.4 41.95 39.95 58.75 36.5 75.4 36.5 80.1 36.5 83.0 39.0 85.5 L41.5 84.25 Q41.5 80.5 44.5 62.5 47.5 44.5 47.5 43.0" fill="#b5feb4" fill-rule="evenodd" stroke="none"/>
      <path d="M388.35 344.0 Q388.35 344.95 384.35 361.85 380.35 378.75 380.35 385.25 L377.85 386.5 Q375.35 383.8 375.35 381.1 375.35 376.6 379.8 359.7 384.2 343.15 385.85 340.5 388.35 341.5 388.35 344.0 M364.6 380.65 Q364.35 378.85 364.35 373.5 364.35 367.35 366.85 365.5 369.7 368.25 369.75 372.8 369.85 379.3 370.35 381.0 L370.35 386.25 367.85 387.5 Q365.3 385.4 364.6 380.65 M47.5 43.0 Q47.5 44.5 44.5 62.5 41.5 80.5 41.5 84.25 L39.0 85.5 Q36.5 83.0 36.5 80.1 36.5 75.4 39.95 58.75 43.4 41.95 45.0 39.5 47.5 40.5 47.5 43.0 M33.5 77.5 L33.5 93.25 31.0 94.5 Q27.5 91.15 27.5 76.0 27.5 73.35 30.0 72.5 31.35 73.85 32.15 75.25 L33.5 77.5 M45.55 147.75 Q43.5 158.5 43.25 163.75 L41.0 164.5 Q38.5 163.2 38.5 155.35 38.5 150.2 40.2 141.7 42.3 131.2 45.0 129.5 46.65 129.9 47.0 130.3 47.5 130.85 47.5 132.6 47.5 137.75 45.55 147.75 M27.0 140.0 L27.25 139.75 29.0 139.5 Q33.6 139.5 32.5 152.35 L32.25 162.5 30.0 163.5 Q27.4 160.95 26.75 154.0 26.5 151.35 26.5 142.0 L26.55 140.55 27.0 140.0 M49.1 336.15 Q47.55 349.3 47.25 356.5 46.0 357.25 45.0 357.5 43.1 354.9 42.65 351.0 42.5 349.6 42.5 344.25 42.5 337.55 43.5 327.75 45.05 312.5 48.0 312.5 51.25 312.5 50.5 317.5 50.5 324.4 49.1 336.15 M34.0 335.5 L39.15 345.25 Q41.8 351.1 41.5 356.25 41.5 357.5 39.0 357.5 38.35 357.5 31.5 339.0 31.5 336.35 34.0 335.5 M190.55 368.55 L191.5 371.6 Q192.7 367.95 195.5 361.05 200.7 348.05 203.0 345.5 205.5 346.5 205.5 349.0 205.5 352.75 200.7 363.2 195.75 373.9 195.5 378.25 L193.0 379.5 192.4 379.25 192.25 380.75 190.0 381.5 Q184.5 369.5 184.5 364.5 184.5 362.5 184.8 362.05 185.2 361.5 187.0 361.5 188.35 361.5 190.55 368.55" fill="#ddffdd" fill-rule="evenodd" stroke="none"/>
      <path d="M546.75 232.6 L546.85 231.5 547.2 232.45 547.2 232.5 546.75 232.6" fill="#d5ffd5" fill-rule="evenodd" stroke="none"/>
      <path d="M70.75 -7.0 L70.9 -4.9 Q71.5 4.9 71.5 44.1 71.5 77.5 70.45 91.0 69.15 108.15 63.25 144.25 L59.5 169.45 Q57.25 184.6 55.35 194.2 50.3 219.55 41.05 238.55 42.7 238.7 44.2 239.9 L47.0 242.5 Q47.6 242.95 53.0 244.5 L59.0 245.5 131.75 246.25 Q137.2 246.25 147.25 242.4 155.0 239.4 158.5 238.25 154.0 227.9 148.0 192.55 L135.75 111.5 Q130.0 68.5 126.5 46.25 124.3 32.05 123.75 13.6 L123.55 -7.0 130.2 -7.0 130.5 -3.05 Q135.5 61.7 138.5 89.25 141.25 113.75 153.25 177.75 164.5 237.65 164.5 238.85 L164.5 239.35 164.5 239.85 164.35 241.0 164.25 241.5 163.95 242.0 163.75 242.2 Q157.2 251.5 96.0 251.5 54.6 251.5 46.75 249.55 44.3 248.95 44.45 247.9 44.65 246.75 44.0 246.5 39.5 244.7 38.15 242.2 L37.2 241.7 Q36.5 241.05 36.5 239.35 36.5 234.55 41.2 216.9 48.5 189.35 51.5 176.15 66.5 110.0 66.5 43.6 67.0 11.0 66.5 -4.75 L66.4 -7.0 70.75 -7.0 M117.0 18.5 Q119.5 22.4 119.5 26.75 119.5 28.1 118.05 31.9 116.4 36.3 114.0 40.25 107.25 51.5 99.5 51.5 88.25 51.5 85.75 43.25 84.95 40.65 85.15 37.6 L85.5 35.0 Q85.5 28.95 89.25 22.25 94.7 12.5 105.0 12.5 113.15 12.5 117.0 18.5 M103.25 18.0 Q95.05 18.0 91.95 26.5 90.4 30.8 90.5 35.1 90.5 40.25 90.95 41.5 92.65 46.0 99.4 46.0 103.6 46.0 109.5 36.25 L114.5 26.5 Q114.5 24.05 110.45 21.05 106.45 18.0 103.25 18.0" fill="#000000" fill-rule="evenodd" stroke="none"/>
      <path d="M123.55 -7.0 L123.75 13.6 Q124.3 32.05 126.5 46.25 130.0 68.5 135.75 111.5 L148.0 192.55 Q154.0 227.9 158.5 238.25 155.0 239.4 147.25 242.4 137.2 246.25 131.75 246.25 L59.0 245.5 53.0 244.5 Q47.6 242.95 47.0 242.5 L44.2 239.9 Q42.7 238.7 41.05 238.55 50.3 219.55 55.35 194.2 57.25 184.6 59.5 169.45 L63.25 144.25 Q69.15 108.15 70.45 91.0 71.5 77.5 71.5 44.1 71.5 4.9 70.9 -4.9 L70.75 -7.0 123.55 -7.0 M117.0 18.5 Q113.15 12.5 105.0 12.5 94.7 12.5 89.25 22.25 85.5 28.95 85.5 35.0 L85.15 37.6 Q84.95 40.65 85.75 43.25 88.25 51.5 99.5 51.5 107.25 51.5 114.0 40.25 116.4 36.3 118.05 31.9 119.5 28.1 119.5 26.75 119.5 22.4 117.0 18.5" fill="#a98701" fill-rule="evenodd" stroke="none"/>
      <path d="M103.25 18.0 Q106.45 18.0 110.45 21.05 114.5 24.05 114.5 26.5 L109.5 36.25 Q103.6 46.0 99.4 46.0 92.65 46.0 90.95 41.5 90.5 40.25 90.5 35.1 90.4 30.8 91.95 26.5 95.05 18.0 103.25 18.0" fill="#876b01" fill-rule="evenodd" stroke="none"/>
      <path d="M134.25 152.75 L132.0 153.5 Q128.5 147.95 128.5 138.0 128.5 133.4 129.65 128.5 131.05 122.35 133.5 120.0 L143.1 112.8 Q149.85 107.8 150.75 104.5 152.9 95.15 158.4 86.85 L160.5 83.95 Q170.9 70.5 187.5 70.5 194.0 70.5 196.8 74.0 L198.5 76.4 Q199.3 77.5 200.25 77.5 202.75 77.5 215.85 75.5 239.45 75.5 253.65 91.3 258.25 96.4 261.2 102.45 263.35 106.85 263.35 108.1 263.35 111.25 261.25 114.9 258.5 119.2 257.1 122.0 268.85 130.25 270.5 132.7 271.45 134.05 271.5 135.85 L271.35 140.35 Q271.35 156.5 255.35 156.5 L253.35 156.0 252.55 155.55 Q252.35 155.3 252.35 153.75 252.35 152.6 254.55 151.3 255.85 150.55 259.35 148.85 266.35 145.15 266.35 140.35 266.35 133.8 257.85 128.9 L252.0 125.8 Q249.35 124.35 249.35 123.35 249.35 122.8 253.85 117.55 258.35 112.3 258.35 108.0 258.35 106.35 255.55 102.2 252.25 97.3 247.35 93.0 233.45 80.75 216.0 80.75 205.0 80.75 203.2 82.3 202.7 84.45 200.0 85.5 198.7 85.05 197.8 83.45 L196.1 80.25 Q193.55 76.0 187.0 76.0 175.4 76.0 169.0 81.3 164.15 85.35 161.65 93.3 L160.5 97.4 158.45 106.2 Q156.6 112.75 153.0 114.25 135.85 121.55 133.9 133.0 133.3 136.5 133.9 142.9 134.55 149.8 134.25 152.75 M160.5 144.05 L167.0 143.5 Q178.9 143.5 186.75 149.45 192.3 153.65 194.25 159.0 196.8 166.05 205.0 168.2 209.4 169.35 216.0 170.0 227.2 174.0 231.45 182.25 234.35 187.85 234.35 197.1 234.35 203.5 234.0 205.6 233.6 208.1 232.1 210.1 225.8 216.25 217.75 226.75 L221.55 231.5 230.05 241.9 Q235.35 249.2 235.35 255.6 235.35 263.15 227.7 272.7 219.1 283.3 207.0 287.5 L208.65 290.8 Q209.5 292.7 209.5 294.25 209.5 303.3 198.95 310.75 182.4 322.5 145.5 322.5 L138.8 322.05 Q132.4 324.5 125.0 324.5 110.65 324.5 98.9 313.65 L89.8 304.7 Q84.55 299.7 80.0 297.5 74.65 295.0 68.75 281.4 63.5 269.3 63.5 264.0 63.5 257.15 67.8 251.65 72.8 245.35 85.0 238.5 L77.9 230.9 Q76.5 229.25 76.5 225.0 76.5 216.55 85.8 204.6 93.7 194.4 105.5 185.0 108.05 182.95 112.75 176.6 118.2 169.3 122.75 164.75 127.75 159.05 132.8 154.45 L134.5 153.0 Q143.2 145.5 148.5 145.5 L154.25 146.1 156.0 145.25 Q158.05 144.45 160.5 144.05 M215.25 231.5 Q211.5 227.55 211.5 226.85 211.5 225.95 214.3 222.95 L220.45 216.25 Q229.35 205.7 229.35 197.0 229.35 187.2 221.9 179.85 211.7 169.75 190.75 170.0 L190.6 164.2 Q190.4 160.0 188.9 157.25 184.4 149.0 167.0 149.0 L160.5 149.25 157.5 149.75 157.25 151.5 155.55 151.65 154.0 152.5 152.2 151.9 151.75 151.25 148.5 151.0 Q142.25 151.0 129.55 161.65 116.2 172.85 113.0 182.5 L116.05 183.55 Q117.65 184.2 118.5 185.5 115.9 190.95 110.05 192.0 L105.1 192.7 Q102.2 193.25 100.25 194.5 98.15 195.8 95.75 199.15 L92.25 204.25 84.5 214.6 Q81.5 219.35 81.5 224.5 81.5 225.45 87.5 232.45 L93.5 239.5 Q93.5 240.0 81.0 247.8 68.5 256.95 68.5 264.0 68.5 266.2 70.15 271.8 72.3 279.3 75.7 285.05 86.1 302.5 103.0 296.0 L103.25 296.45 103.5 298.25 Q103.5 302.0 97.5 302.0 100.0 308.35 105.9 312.9 113.85 319.0 125.35 319.0 134.1 319.0 141.6 314.15 147.8 309.0 149.0 308.5 L149.6 308.75 149.5 308.4 149.5 308.35 Q149.5 306.4 149.8 306.0 150.2 305.5 152.0 305.5 153.8 305.5 154.2 305.95 154.5 306.3 154.5 308.25 L154.25 310.5 Q153.0 311.25 152.0 311.5 L151.5 311.05 151.5 311.25 151.5 311.4 Q151.4 313.95 148.05 316.75 L160.35 315.75 Q186.55 313.8 193.0 308.5 194.55 307.25 199.4 301.4 204.5 295.3 204.5 294.25 204.5 293.65 202.0 290.55 199.5 287.45 199.5 286.35 199.5 285.4 204.3 282.45 L214.95 275.8 Q230.35 265.25 230.35 255.75 230.35 247.95 220.95 237.3 L215.25 231.5" fill="#000000" fill-rule="evenodd" stroke="none"/>
      <path d="M160.5 97.4 L160.5 117.25 160.5 144.05 Q158.05 144.45 156.0 145.25 L154.25 146.1 148.5 145.5 Q143.2 145.5 134.5 153.0 L134.25 152.75 Q134.55 149.8 133.9 142.9 133.3 136.5 133.9 133.0 135.85 121.55 153.0 114.25 156.6 112.75 158.45 106.2 L160.5 97.4 M160.5 149.25 L160.3 231.5 215.25 231.5 220.95 237.3 Q230.35 247.95 230.35 255.75 230.35 265.25 214.95 275.8 L204.3 282.45 Q199.5 285.4 199.5 286.35 199.5 287.45 202.0 290.55 204.5 293.65 204.5 294.25 204.5 295.3 199.4 301.4 194.55 307.25 193.0 308.5 186.55 313.8 160.35 315.75 L148.05 316.75 Q151.4 313.95 151.5 311.4 L152.0 311.5 Q153.0 311.25 154.25 310.5 L154.5 308.25 Q154.5 306.3 154.2 305.95 153.8 305.5 152.0 305.5 150.2 305.5 149.8 306.0 149.5 306.4 149.5 308.35 L149.0 308.5 Q147.8 309.0 141.6 314.15 134.1 319.0 125.35 319.0 113.85 319.0 105.9 312.9 100.0 308.35 97.5 302.0 103.5 302.0 103.5 298.25 L103.25 296.45 103.0 296.0 Q86.1 302.5 75.7 285.05 72.3 279.3 70.15 271.8 68.5 266.2 68.5 264.0 68.5 256.95 81.0 247.8 93.5 240.0 93.5 239.5 L87.5 232.45 Q81.5 225.45 81.5 224.5 81.5 219.35 84.5 214.6 L92.25 204.25 95.75 199.15 Q98.15 195.8 100.25 194.5 102.2 193.25 105.1 192.7 L110.05 192.0 Q115.9 190.95 118.5 185.5 117.65 184.2 116.05 183.55 L113.0 182.5 Q116.2 172.85 129.55 161.65 142.25 151.0 148.5 151.0 L151.75 151.25 152.2 151.9 154.0 152.5 155.55 151.65 157.25 151.5 157.5 149.75 160.5 149.25" fill="#97f96c" fill-rule="evenodd" stroke="none"/>
      <path d="M151.5 311.4 L151.5 311.25 151.5 311.05 152.0 311.5 151.5 311.4 M149.5 308.4 L149.6 308.75 149.0 308.5 149.5 308.4" fill="#d5ffd5" fill-rule="evenodd" stroke="none"/>
      <path d="M149.5 308.35 L149.5 308.4 149.0 308.5 149.5 308.35" fill="#9bfe9a" fill-rule="evenodd" stroke="none"/>
      <path d="M165.5 -4.25 L197.1 -4.3 Q196.5 -0.5 196.5 6.0 196.5 12.25 196.65 13.9 197.1 18.4 199.0 21.5 L201.5 20.25 201.5 -4.3 237.8 -4.4 237.4 -1.25 237.35 7.35 Q237.35 18.25 239.85 22.5 240.85 22.25 242.1 21.5 L242.35 7.25 Q242.9 -0.75 242.1 -4.4 L280.1 -4.5 Q279.35 0.3 279.35 8.0 279.35 17.45 280.45 22.5 L267.7 22.55 Q267.3 21.5 266.85 21.5 266.45 21.5 266.15 22.55 L189.0 22.75 187.5 24.0 187.5 25.5 188.7 25.55 Q187.05 37.45 186.65 54.55 186.5 61.3 186.5 87.25 L186.5 119.5 Q186.65 124.25 186.1 135.6 186.1 142.7 187.5 147.6 L187.5 148.5 187.8 148.5 189.0 151.5 191.25 150.75 191.25 148.6 199.75 148.75 Q198.8 152.6 198.55 163.25 198.3 171.85 198.5 182.35 198.5 196.4 198.65 200.4 199.15 211.7 201.0 218.5 L203.25 217.5 203.5 182.25 Q204.05 155.55 202.4 148.8 L279.25 149.9 Q278.6 151.35 278.25 153.35 L278.35 153.5 278.35 170.05 279.35 181.75 Q279.35 186.05 278.35 194.25 L278.35 208.25 277.7 208.65 Q278.6 214.3 281.85 217.5 L284.1 216.75 284.35 181.85 284.3 164.25 Q284.0 156.2 282.7 149.95 L293.65 150.05 293.85 150.5 294.95 150.05 324.7 150.25 Q323.65 153.75 323.4 164.5 323.15 172.7 323.35 182.85 323.35 208.4 325.85 217.5 326.85 217.25 328.1 216.5 L328.35 182.75 Q328.95 156.15 327.1 150.25 L364.3 150.3 Q363.6 154.45 363.4 163.25 363.15 171.85 363.35 182.35 363.35 208.95 365.85 218.5 366.85 218.25 368.1 217.5 L368.35 182.25 Q369.05 158.1 367.65 150.3 L377.75 150.25 377.85 150.5 Q378.85 150.25 380.1 149.5 L380.35 88.75 Q381.3 31.4 378.3 27.75 L378.85 27.25 379.9 26.8 Q380.35 26.45 380.35 24.85 380.35 23.3 380.1 23.35 L379.85 23.75 367.7 23.25 369.1 22.75 369.35 7.35 Q369.35 0.2 368.55 -3.9 393.55 -3.65 396.5 -3.3 L396.3 0.05 395.85 0.25 396.25 0.3 396.15 2.8 394.65 45.8 394.65 46.65 394.65 47.05 394.6 47.85 394.6 48.7 394.6 49.15 394.6 50.0 394.55 50.9 394.55 51.35 394.55 51.8 Q394.35 65.7 394.35 113.75 L394.35 206.0 Q394.55 210.5 394.15 219.6 381.8 218.95 279.85 218.5 L165.5 218.75 165.5 -4.25 M284.35 -4.45 L320.75 -4.3 Q320.5 -3.0 320.4 -1.25 L320.35 7.35 Q320.35 18.25 322.85 22.5 323.85 22.25 325.1 21.5 L325.35 7.25 Q325.75 -0.6 325.05 -4.25 L365.1 -3.95 Q364.35 0.1 364.35 7.25 364.35 19.6 366.7 23.25 344.35 22.8 284.35 22.5 L284.35 -4.45 M377.85 27.25 L377.85 27.5 Q375.8 27.5 375.4 57.0 375.15 71.95 375.35 88.85 L375.35 119.25 Q375.55 124.45 375.05 134.95 375.05 141.5 376.45 146.55 364.75 145.95 296.35 145.6 L296.35 134.05 317.15 134.2 Q317.7 140.55 319.85 144.5 L322.1 143.75 322.15 134.25 344.15 134.3 Q344.6 141.2 346.85 145.5 347.85 145.25 349.1 144.5 L349.15 134.3 369.85 134.25 370.9 133.8 Q371.35 133.45 371.35 131.85 371.35 130.3 371.1 130.35 L370.85 130.75 349.2 130.1 349.25 112.3 368.85 112.25 Q369.25 112.0 369.9 111.8 370.35 111.45 370.35 109.85 370.35 108.3 370.1 108.35 L369.85 108.75 349.25 108.1 349.35 91.3 368.85 91.25 Q369.25 91.0 369.9 90.8 370.35 90.45 370.35 88.85 370.35 87.3 370.1 87.35 L369.85 87.75 349.35 87.1 349.35 85.25 349.5 68.3 368.85 68.25 Q369.25 68.0 369.9 67.8 370.35 67.45 370.35 65.85 370.35 64.3 370.1 64.35 L369.85 64.75 349.5 64.1 349.3 45.3 366.85 45.25 367.9 44.8 Q368.35 44.45 368.35 42.85 368.35 41.3 368.1 41.35 L367.85 41.75 349.15 41.15 Q348.7 30.75 347.85 27.3 L377.85 27.25 M344.4 54.25 L344.3 64.0 322.55 63.8 322.35 55.25 322.65 45.25 344.6 45.3 344.4 54.25 M344.35 85.35 L344.35 87.05 322.35 86.8 322.35 84.85 322.55 68.25 344.25 68.3 344.35 85.35 M345.95 27.3 Q345.15 30.75 344.75 41.05 L322.65 40.8 322.65 40.15 Q322.6 32.1 320.65 27.2 L345.95 27.3 M344.35 112.3 L344.35 115.0 Q344.55 119.85 344.1 130.0 L322.15 129.8 322.25 112.25 344.35 112.3 M344.35 91.3 L344.35 108.0 322.25 107.8 322.35 91.25 344.35 91.3 M242.35 107.6 L242.35 90.4 264.35 90.7 264.35 107.55 242.35 107.6 M290.95 134.6 Q291.0 140.95 292.1 145.55 L283.35 145.5 269.1 145.55 269.15 133.8 291.0 134.0 290.95 134.6 M291.35 112.0 L291.35 118.5 291.2 129.55 283.85 129.5 269.2 129.55 269.25 111.8 291.35 112.0 M317.35 112.2 L317.35 114.75 Q317.5 119.15 316.95 129.7 L316.95 129.75 296.35 129.6 296.35 112.05 317.35 112.2 M241.85 149.5 Q239.8 149.5 239.4 164.75 239.15 172.6 239.35 182.35 239.35 205.8 241.85 215.5 242.85 215.25 244.1 214.5 L244.35 182.25 Q245.1 149.5 241.85 149.5 M242.35 129.6 L242.35 111.4 264.35 111.7 264.35 115.5 Q264.5 119.8 264.05 129.55 L242.35 129.6 M237.35 111.3 L237.35 113.75 Q237.5 118.15 236.95 128.7 L237.0 129.65 216.3 129.7 216.4 110.9 237.35 111.3 M216.5 89.95 L237.35 90.3 237.35 107.65 216.4 107.7 216.5 89.95 M216.5 86.7 L216.5 84.25 216.7 66.9 237.2 67.3 237.35 84.5 237.35 86.65 216.5 86.7 M216.55 43.9 L237.0 44.3 237.35 54.5 Q237.2 58.25 237.2 63.65 L216.75 63.7 216.55 43.9 M213.15 26.0 Q212.3 29.4 211.85 40.75 L200.0 40.75 198.5 42.0 198.5 43.5 211.75 43.8 211.55 53.25 211.45 63.7 199.0 63.75 197.5 65.0 197.5 66.5 211.4 66.8 211.5 84.35 211.5 86.7 198.0 86.75 196.5 88.0 196.5 89.5 211.5 89.85 211.5 107.7 199.0 107.75 197.5 109.0 197.5 110.5 211.5 110.8 211.5 114.0 Q211.7 119.05 211.15 129.7 L198.0 129.75 196.5 131.0 196.5 132.5 211.25 132.85 Q211.65 140.0 214.0 144.5 215.0 144.25 216.25 143.5 L216.3 132.95 237.2 133.3 Q237.75 139.6 239.85 143.5 L242.35 142.25 242.35 133.4 264.0 133.7 Q264.25 140.85 266.0 145.55 L191.3 145.75 191.5 87.35 Q191.85 66.0 191.5 55.5 L191.8 39.3 Q191.75 30.85 189.85 25.55 L213.15 26.0 M216.45 40.7 Q216.0 29.45 215.0 26.0 L239.35 26.4 Q237.0 30.75 236.95 39.4 L236.95 40.65 216.45 40.7 M269.35 90.8 L291.35 91.0 291.35 107.55 283.85 107.5 269.25 107.55 269.35 90.8 M296.35 91.05 L317.35 91.2 317.35 107.75 296.35 107.6 296.35 91.05 M317.35 84.75 L317.35 86.75 296.35 86.6 296.35 68.05 317.45 68.2 317.35 84.75 M291.35 54.75 L291.2 63.55 283.85 63.5 269.6 63.55 269.45 44.8 291.05 45.0 291.35 54.75 M264.4 51.75 L264.3 63.55 242.35 63.6 242.35 44.4 264.55 44.7 264.4 51.75 M264.35 84.35 L264.35 86.55 242.35 86.6 242.35 67.4 264.3 67.7 264.35 84.35 M269.35 86.55 L269.35 84.25 269.55 67.8 291.2 68.0 291.35 86.55 283.35 86.5 269.35 86.55 M265.45 26.75 Q264.9 31.5 264.65 40.55 L242.35 40.6 242.35 27.5 241.4 26.45 265.45 26.75 M296.35 45.05 L318.15 45.2 Q317.7 53.3 317.55 63.75 L296.35 63.6 296.35 45.05 M296.35 40.6 L296.35 27.05 319.6 27.2 Q318.85 32.6 318.4 40.75 L296.35 40.6 M292.35 27.0 Q291.0 31.45 290.95 38.5 L291.0 40.55 283.35 40.5 269.35 40.55 Q269.1 31.5 268.5 26.75 L292.35 27.0" fill="#a98701" fill-rule="evenodd" stroke="none"/>
      <path d="M197.1 -4.3 Q197.7 -8.4 199.0 -9.5 200.6 -8.85 201.5 -7.5 L201.5 -4.3 201.5 20.25 199.0 21.5 Q197.1 18.4 196.65 13.9 196.5 12.25 196.5 6.0 196.5 -0.5 197.1 -4.3 M237.8 -4.4 Q238.4 -7.5 239.85 -7.5 241.45 -7.5 242.1 -4.4 242.9 -0.75 242.35 7.25 L242.1 21.5 Q240.85 22.25 239.85 22.5 237.35 18.25 237.35 7.35 L237.4 -1.25 237.8 -4.4 M280.1 -4.5 Q280.7 -8.55 281.85 -10.5 283.45 -9.85 284.35 -8.5 L284.35 -4.45 284.35 22.5 Q344.35 22.8 366.7 23.25 364.35 19.6 364.35 7.25 364.35 0.1 365.1 -3.95 365.7 -7.3 366.85 -8.5 367.95 -7.1 368.55 -3.9 369.35 0.2 369.35 7.35 L369.1 22.75 367.7 23.25 379.85 23.75 380.1 23.35 Q380.35 23.3 380.35 24.85 380.35 26.45 379.9 26.8 L378.85 27.25 377.85 27.25 347.85 27.3 Q348.7 30.75 349.15 41.15 L367.85 41.75 368.1 41.35 Q368.35 41.3 368.35 42.85 368.35 44.45 367.9 44.8 L366.85 45.25 349.3 45.3 349.5 64.1 369.85 64.75 370.1 64.35 Q370.35 64.3 370.35 65.85 370.35 67.45 369.9 67.8 369.25 68.0 368.85 68.25 L349.5 68.3 349.35 85.25 349.35 87.1 369.85 87.75 370.1 87.35 Q370.35 87.3 370.35 88.85 370.35 90.45 369.9 90.8 369.25 91.0 368.85 91.25 L349.35 91.3 349.25 108.1 369.85 108.75 370.1 108.35 Q370.35 108.3 370.35 109.85 370.35 111.45 369.9 111.8 369.25 112.0 368.85 112.25 L349.25 112.3 349.2 130.1 370.85 130.75 371.1 130.35 Q371.35 130.3 371.35 131.85 371.35 133.45 370.9 133.8 L369.85 134.25 349.15 134.3 349.1 144.5 Q347.85 145.25 346.85 145.5 344.6 141.2 344.15 134.3 L322.15 134.25 322.1 143.75 319.85 144.5 Q317.7 140.55 317.15 134.2 L296.35 134.05 296.35 145.6 Q364.75 145.95 376.45 146.55 375.05 141.5 375.05 134.95 375.55 124.45 375.35 119.25 L375.35 88.85 Q375.15 71.95 375.4 57.0 375.8 27.5 377.85 27.5 378.05 27.5 378.3 27.75 381.3 31.4 380.35 88.75 L380.1 149.5 Q378.85 150.25 377.85 150.5 L377.75 150.25 367.65 150.3 Q369.05 158.1 368.35 182.25 L368.1 217.5 Q366.85 218.25 365.85 218.5 363.35 208.95 363.35 182.35 363.15 171.85 363.4 163.25 363.6 154.45 364.3 150.3 L327.1 150.25 Q328.95 156.15 328.35 182.75 L328.1 216.5 Q326.85 217.25 325.85 217.5 323.35 208.4 323.35 182.85 323.15 172.7 323.4 164.5 323.65 153.75 324.7 150.25 L294.95 150.05 293.85 150.5 293.65 150.05 282.7 149.95 Q284.0 156.2 284.3 164.25 L284.35 181.85 284.1 216.75 281.85 217.5 Q278.6 214.3 277.7 208.65 L278.35 208.25 278.35 194.25 Q279.35 186.05 279.35 181.75 L278.35 170.05 278.35 153.5 278.25 153.35 Q278.6 151.35 279.25 149.9 L202.4 148.8 Q204.05 155.55 203.5 182.25 L203.25 217.5 201.0 218.5 Q199.15 211.7 198.65 200.4 198.5 196.4 198.5 182.35 198.3 171.85 198.55 163.25 198.8 152.6 199.75 148.75 L191.25 148.6 191.25 150.75 189.0 151.5 187.8 148.5 187.5 148.5 187.5 147.6 Q186.1 142.7 186.1 135.6 186.65 124.25 186.5 119.5 L186.5 87.25 Q186.5 61.3 186.65 54.55 187.05 37.45 188.7 25.55 L187.5 25.5 187.5 24.0 189.0 22.75 266.15 22.55 Q266.45 21.5 266.85 21.5 267.3 21.5 267.7 22.55 L280.45 22.5 Q279.35 17.45 279.35 8.0 279.35 0.3 280.1 -4.5 M320.75 -4.3 Q321.4 -7.5 322.85 -7.5 324.35 -7.5 325.05 -4.25 325.75 -0.6 325.35 7.25 L325.1 21.5 Q323.85 22.25 322.85 22.5 320.35 18.25 320.35 7.35 L320.4 -1.25 Q320.5 -3.0 320.75 -4.3 M396.5 -3.3 L396.6 -5.1 396.8 -7.95 396.85 -8.5 397.9 -3.4 398.2 -1.45 Q399.6 8.35 399.65 21.9 L399.55 38.75 485.85 38.5 547.9 39.0 551.95 39.05 552.15 39.05 555.95 39.1 555.95 43.3 551.95 43.3 549.7 43.3 548.1 43.3 530.85 43.25 530.8 43.25 530.85 43.3 Q531.35 43.85 531.35 45.6 531.35 47.05 523.25 64.6 L523.2 64.7 523.25 64.7 Q525.95 64.55 547.15 64.5 L550.65 64.5 551.95 64.5 555.35 64.5 555.95 64.5 555.95 68.4 551.95 68.3 550.75 68.3 550.55 68.3 549.65 68.25 547.6 68.2 545.6 68.15 525.45 67.65 521.9 67.55 Q513.35 86.15 510.85 92.5 L508.45 100.6 508.25 101.25 508.7 100.9 508.85 100.75 546.35 100.5 546.6 100.5 547.1 100.5 547.15 100.5 549.75 100.55 551.25 100.6 551.25 100.55 551.95 100.55 552.85 100.6 555.95 100.65 555.95 104.6 553.95 104.55 553.9 104.55 551.95 104.55 551.25 104.5 549.7 104.45 549.55 104.45 548.55 104.45 546.6 104.4 545.55 104.35 511.3 103.6 510.6 103.6 507.65 103.5 504.3 115.9 Q500.6 130.0 494.85 137.5 L493.05 136.9 Q492.35 136.4 492.35 134.75 492.35 123.45 509.0 84.4 523.2 51.2 528.35 43.25 L489.25 43.0 Q488.2 46.8 478.8 65.5 L464.6 94.0 Q462.1 99.6 459.7 107.3 L455.8 120.2 Q452.65 130.0 448.25 137.65 L486.85 137.5 494.85 137.55 Q527.7 137.75 546.35 138.05 L551.45 138.1 551.95 138.1 555.95 138.2 555.95 142.3 551.95 142.3 551.45 142.3 546.35 142.3 Q497.3 142.25 445.9 141.4 L442.85 145.5 Q440.35 142.95 440.35 142.0 L440.35 141.95 440.4 141.3 440.35 141.3 402.35 140.5 402.35 139.0 403.85 137.75 441.25 137.65 Q444.5 126.5 460.05 92.85 476.7 56.8 484.8 42.95 L445.35 42.45 445.35 43.05 445.35 43.25 Q445.35 44.25 435.6 62.85 424.65 83.75 422.1 89.75 L413.5 114.15 Q406.7 133.5 405.35 133.5 L402.6 133.0 Q402.35 133.25 402.35 130.75 402.35 129.85 407.1 115.95 412.6 99.75 418.35 85.0 432.2 49.55 439.55 42.35 L399.55 41.6 399.35 52.75 Q399.75 73.0 399.35 113.85 L399.1 235.6 514.95 236.05 515.0 236.05 546.35 236.3 551.35 236.35 551.95 236.35 555.95 236.4 555.95 240.5 551.95 240.5 551.35 240.5 546.35 240.5 Q355.45 240.4 162.5 238.55 161.85 242.75 145.15 277.2 129.55 309.35 120.25 324.5 L344.35 324.5 Q495.05 324.85 546.35 325.3 L551.2 325.35 551.95 325.35 555.95 325.4 555.95 329.5 551.95 329.5 551.2 329.5 546.35 329.5 409.35 329.25 409.35 349.75 497.85 349.5 498.3 349.5 498.75 349.5 499.2 349.5 499.65 349.5 500.05 349.5 500.5 349.5 500.9 349.5 501.35 349.5 501.75 349.5 502.15 349.5 502.55 349.5 502.95 349.5 543.15 349.8 546.35 349.85 551.15 349.9 551.95 349.9 555.95 349.95 555.95 354.25 551.95 354.25 551.15 354.25 546.35 354.25 544.3 354.25 411.55 352.65 409.35 352.6 Q409.0 354.8 404.85 362.6 402.05 367.9 401.0 370.75 L498.35 370.5 498.8 370.5 499.2 370.5 499.65 370.5 500.05 370.5 500.9 370.5 501.3 370.5 501.7 370.5 502.1 370.5 502.5 370.5 503.25 370.5 543.3 370.75 546.25 370.8 551.15 370.85 551.95 370.85 555.95 370.85 555.95 375.25 551.95 375.25 551.15 375.25 546.1 375.25 Q474.85 374.95 400.4 373.6 L400.35 380.1 400.25 388.6 497.85 388.35 498.55 388.35 499.2 388.35 499.85 388.35 500.5 388.35 501.7 388.35 545.1 388.65 551.1 388.7 551.95 388.7 553.65 388.7 555.95 388.75 555.95 393.1 551.95 393.1 551.1 393.1 546.8 393.1 503.15 392.85 418.1 391.75 417.05 391.75 416.35 391.75 414.75 391.7 409.35 391.6 405.25 391.55 400.0 391.45 399.0 391.95 396.5 398.75 396.4 399.05 395.9 400.25 395.25 401.75 393.85 404.8 393.85 404.85 393.6 405.3 392.85 406.35 392.25 405.75 391.7 405.15 391.75 405.15 391.45 404.8 Q390.35 403.5 390.35 402.85 390.35 400.95 391.9 395.8 393.65 390.05 395.95 388.0 395.35 385.0 395.35 380.25 L395.4 373.5 395.35 373.5 395.35 372.0 395.6 371.8 395.7 371.35 Q395.35 370.55 395.35 369.85 395.35 366.25 399.95 358.5 403.2 353.0 405.5 350.7 404.55 347.65 404.4 342.25 285.7 342.45 162.5 341.1 L162.5 400.25 160.0 401.5 159.65 400.25 Q159.05 398.1 158.6 395.5 157.9 391.2 157.65 385.65 157.5 382.15 157.5 369.5 156.2 358.1 155.85 352.05 155.45 345.0 157.25 341.05 L147.55 340.9 Q148.3 345.1 148.5 354.55 148.7 363.05 148.5 371.75 L148.4 396.25 148.35 399.8 148.35 402.0 148.25 405.2 148.25 405.5 Q147.0 406.25 146.0 406.5 L145.0 402.3 144.95 402.0 Q144.55 399.85 144.3 397.5 L144.1 395.65 144.0 394.9 144.0 394.85 143.95 394.25 143.75 390.75 143.7 390.4 143.65 389.55 Q143.5 385.8 143.5 371.85 143.3 361.7 143.5 353.5 143.7 344.85 144.4 340.85 L130.25 340.7 Q131.2 344.6 131.45 355.5 131.7 364.0 131.5 372.75 L131.4 398.25 131.35 402.0 131.25 406.5 129.0 407.5 Q127.1 401.0 126.65 390.55 126.5 386.8 126.5 372.85 126.3 362.7 126.55 354.5 126.8 344.35 127.75 340.65 L120.4 340.55 120.25 342.5 Q119.0 343.25 118.0 343.5 116.45 341.95 115.4 337.0 114.5 332.8 114.5 329.5 114.5 328.75 114.8 328.1 114.5 327.45 114.5 326.35 114.5 323.05 131.65 288.0 149.8 251.0 160.0 235.5 L161.35 236.05 161.85 235.7 Q160.1 230.5 160.1 222.6 160.65 211.25 160.5 206.5 L160.5 110.5 Q160.5 59.45 160.65 45.95 161.1 8.55 163.0 -17.5 164.6 -16.85 165.5 -15.5 L165.5 -4.25 165.5 218.75 279.85 218.5 Q381.8 218.95 394.15 219.6 394.55 210.5 394.35 206.0 L394.35 113.75 Q394.35 65.7 394.55 51.8 L394.55 51.35 394.55 50.9 394.6 50.0 394.6 49.15 394.6 48.7 394.6 47.85 394.65 47.05 394.65 46.65 394.65 45.8 396.15 2.8 396.25 0.3 396.3 0.05 396.5 -3.3 M551.5 180.95 L551.95 180.95 555.95 181.0 555.95 185.3 552.55 185.3 551.95 185.3 551.5 185.3 550.55 185.25 550.2 185.25 546.25 185.25 533.35 185.2 533.35 185.25 Q533.35 186.2 528.65 196.7 523.4 208.3 522.6 210.75 L515.65 233.75 513.35 233.5 511.3 233.15 510.6 232.25 Q510.35 233.25 510.35 230.75 510.35 228.2 518.9 206.0 524.85 190.45 528.2 185.2 L483.25 184.8 Q482.4 189.1 475.1 204.5 465.8 224.15 458.85 230.5 457.4 230.0 457.05 229.7 456.35 229.05 456.35 227.35 456.35 226.85 460.45 219.65 465.35 210.95 468.1 203.75 473.0 190.85 477.5 184.75 L431.35 184.05 431.15 184.05 431.2 184.1 431.35 184.5 Q427.3 190.05 419.45 206.85 412.35 222.1 405.85 229.5 404.4 229.0 404.05 228.7 403.35 228.05 403.35 226.35 403.35 224.5 415.35 203.5 424.2 188.0 427.1 183.95 L404.35 183.5 404.35 182.0 405.85 180.75 495.85 180.5 546.25 180.9 551.5 180.95 M551.3 257.25 L551.95 257.25 552.15 257.25 555.95 257.35 555.95 261.5 551.3 261.5 546.35 261.5 Q399.85 261.4 252.2 260.3 L245.4 260.25 239.15 260.2 160.5 259.5 160.5 258.0 Q163.0 256.75 163.0 256.5 L369.85 256.5 Q496.45 256.8 546.35 257.2 L546.95 257.2 550.9 257.25 551.3 257.25 M551.25 282.25 L551.95 282.25 552.5 282.25 552.9 282.25 555.95 282.3 555.95 286.5 551.25 286.5 546.35 286.5 Q384.15 286.4 220.6 285.1 L149.5 284.5 149.5 283.0 Q152.0 281.75 152.0 281.5 L380.0 281.55 381.55 281.55 395.75 281.55 395.9 281.55 550.5 282.25 551.25 282.25 M551.25 308.3 L551.95 308.3 552.5 308.3 553.05 308.3 555.95 308.3 555.95 312.5 551.95 312.5 551.25 312.5 546.35 312.5 Q342.95 312.35 137.5 310.5 L137.5 309.0 Q140.0 307.75 140.0 307.5 L357.35 307.5 Q495.05 307.8 546.35 308.25 L551.25 308.3 M345.95 27.3 L320.65 27.2 Q322.6 32.1 322.65 40.15 L322.65 40.8 344.75 41.05 Q345.15 30.75 345.95 27.3 M344.35 85.35 L344.25 68.3 322.55 68.25 322.35 84.85 322.35 86.8 344.35 87.05 344.35 85.35 M344.4 54.25 L344.6 45.3 322.65 45.25 322.35 55.25 322.55 63.8 344.3 64.0 344.4 54.25 M344.35 112.3 L322.25 112.25 322.15 129.8 344.1 130.0 Q344.55 119.85 344.35 115.0 L344.35 112.3 M344.35 91.3 L322.35 91.25 322.25 107.8 344.35 108.0 344.35 91.3 M394.1 223.25 Q282.9 223.5 165.5 221.55 L165.5 235.5 364.85 235.5 396.4 235.6 Q394.25 230.85 394.1 223.25 M405.25 329.25 Q263.25 328.8 120.35 327.55 121.0 329.75 120.5 334.25 L120.5 337.75 145.55 337.7 Q145.75 337.5 146.0 337.5 L146.45 337.7 159.8 337.7 160.0 337.5 160.4 337.7 261.35 337.5 Q391.15 337.95 404.35 338.6 404.4 332.7 405.25 329.25 M292.35 27.0 L268.5 26.75 Q269.1 31.5 269.35 40.55 L283.35 40.5 291.0 40.55 290.95 38.5 Q291.0 31.45 292.35 27.0 M296.35 40.6 L318.4 40.75 Q318.85 32.6 319.6 27.2 L296.35 27.05 296.35 40.6 M296.35 45.05 L296.35 63.6 317.55 63.75 Q317.7 53.3 318.15 45.2 L296.35 45.05 M265.45 26.75 L241.4 26.45 242.35 27.5 242.35 40.6 264.65 40.55 Q264.9 31.5 265.45 26.75 M269.35 86.55 L283.35 86.5 291.35 86.55 291.2 68.0 269.55 67.8 269.35 84.25 269.35 86.55 M264.35 84.35 L264.3 67.7 242.35 67.4 242.35 86.6 264.35 86.55 264.35 84.35 M264.4 51.75 L264.55 44.7 242.35 44.4 242.35 63.6 264.3 63.55 264.4 51.75 M291.35 54.75 L291.05 45.0 269.45 44.8 269.6 63.55 283.85 63.5 291.2 63.55 291.35 54.75 M317.35 84.75 L317.45 68.2 296.35 68.05 296.35 86.6 317.35 86.75 317.35 84.75 M296.35 91.05 L296.35 107.6 317.35 107.75 317.35 91.2 296.35 91.05 M269.35 90.8 L269.25 107.55 283.85 107.5 291.35 107.55 291.35 91.0 269.35 90.8 M216.45 40.7 L236.95 40.65 236.95 39.4 Q237.0 30.75 239.35 26.4 L215.0 26.0 Q216.0 29.45 216.45 40.7 M213.15 26.0 L189.85 25.55 Q191.75 30.85 191.8 39.3 L191.5 55.5 Q191.85 66.0 191.5 87.35 L191.3 145.75 266.0 145.55 Q264.25 140.85 264.0 133.7 L242.35 133.4 242.35 142.25 239.85 143.5 Q237.75 139.6 237.2 133.3 L216.3 132.95 216.25 143.5 Q215.0 144.25 214.0 144.5 211.65 140.0 211.25 132.85 L196.5 132.5 196.5 131.0 198.0 129.75 211.15 129.7 Q211.7 119.05 211.5 114.0 L211.5 110.8 197.5 110.5 197.5 109.0 199.0 107.75 211.5 107.7 211.5 89.85 196.5 89.5 196.5 88.0 198.0 86.75 211.5 86.7 211.5 84.35 211.4 66.8 197.5 66.5 197.5 65.0 199.0 63.75 211.45 63.7 211.55 53.25 211.75 43.8 198.5 43.5 198.5 42.0 200.0 40.75 211.85 40.75 Q212.3 29.4 213.15 26.0 M216.55 43.9 L216.75 63.7 237.2 63.65 Q237.2 58.25 237.35 54.5 L237.0 44.3 216.55 43.9 M216.5 86.7 L237.35 86.65 237.35 84.5 237.2 67.3 216.7 66.9 216.5 84.25 216.5 86.7 M216.5 89.95 L216.4 107.7 237.35 107.65 237.35 90.3 216.5 89.95 M237.35 111.3 L216.4 110.9 216.3 129.7 237.0 129.65 236.95 128.7 Q237.5 118.15 237.35 113.75 L237.35 111.3 M242.35 129.6 L264.05 129.55 Q264.5 119.8 264.35 115.5 L264.35 111.7 242.35 111.4 242.35 129.6 M241.85 149.5 Q245.1 149.5 244.35 182.25 L244.1 214.5 Q242.85 215.25 241.85 215.5 239.35 205.8 239.35 182.35 239.15 172.6 239.4 164.75 239.8 149.5 241.85 149.5 M317.35 112.2 L296.35 112.05 296.35 129.6 316.95 129.75 316.95 129.7 Q317.5 119.15 317.35 114.75 L317.35 112.2 M291.35 112.0 L269.25 111.8 269.2 129.55 283.85 129.5 291.2 129.55 291.35 118.5 291.35 112.0 M290.95 134.6 L291.0 134.0 269.15 133.8 269.1 145.55 283.35 145.5 292.1 145.55 Q291.0 140.95 290.95 134.6 M242.35 107.6 L264.35 107.55 264.35 90.7 242.35 90.4 242.35 107.6" fill="#000000" fill-rule="evenodd" stroke="none"/>
      <path d="M397.9 -3.4 L398.85 -4.25 475.35 -4.5 Q552.1 -4.0 552.85 -3.25 553.35 -4.6 553.35 -2.1 553.35 -0.55 552.9 -0.2 L551.85 0.25 551.55 0.25 Q553.0 5.25 552.35 19.35 L552.15 39.05 551.95 39.05 547.9 39.0 485.85 38.5 399.55 38.75 399.65 21.9 Q399.6 8.35 398.2 -1.45 L397.9 -3.4 M551.15 354.25 L551.15 370.85 546.25 370.8 543.3 370.75 503.25 370.5 502.5 370.5 502.1 370.5 501.7 370.5 501.3 370.5 500.9 370.5 500.05 370.5 499.65 370.5 499.2 370.5 498.8 370.5 498.35 370.5 401.0 370.75 Q402.05 367.9 404.85 362.6 409.0 354.8 409.35 352.6 L411.55 352.65 544.3 354.25 546.35 354.25 551.15 354.25 M159.65 400.25 L155.0 400.35 149.5 400.05 148.35 399.8 148.4 396.25 148.5 371.75 Q148.7 363.05 148.5 354.55 148.3 345.1 147.55 340.9 L157.25 341.05 Q155.45 345.0 155.85 352.05 156.2 358.1 157.5 369.5 157.5 382.15 157.65 385.65 157.9 391.2 158.6 395.5 159.05 398.1 159.65 400.25 M394.1 223.25 Q394.25 230.85 396.4 235.6 L364.85 235.5 165.5 235.5 165.5 221.55 Q282.9 223.5 394.1 223.25 M395.9 400.25 L396.4 399.05 396.5 398.75 399.0 391.95 400.0 391.45 405.25 391.55 409.35 391.6 414.75 391.7 416.35 391.75 417.05 391.75 418.1 391.75 503.15 392.85 546.8 393.1 Q547.3 396.95 548.2 400.2 537.3 400.8 395.45 401.35 L395.6 400.95 395.9 400.25" fill="#876b01" fill-rule="evenodd" stroke="none"/>
      <path d="M549.7 43.3 Q550.25 49.2 550.65 64.5 L547.15 64.5 Q525.95 64.55 523.25 64.7 L523.2 64.7 523.25 64.6 Q531.35 47.05 531.35 45.6 531.35 43.85 530.85 43.3 L530.85 43.25 548.1 43.3 549.7 43.3 M551.25 104.5 L551.4 130.0 551.45 138.1 546.35 138.05 Q527.7 137.75 494.85 137.55 L486.85 137.5 448.25 137.65 Q452.65 130.0 455.8 120.2 L459.7 107.3 Q462.1 99.6 464.6 94.0 L478.8 65.5 Q488.2 46.8 489.25 43.0 L528.35 43.25 Q523.2 51.2 509.0 84.4 492.35 123.45 492.35 134.75 492.35 136.4 493.05 136.9 L494.85 137.5 Q500.6 130.0 504.3 115.9 L507.65 103.5 510.6 103.6 511.3 103.6 545.55 104.35 546.6 104.4 548.55 104.45 549.55 104.45 549.7 104.45 551.25 104.5 M551.45 142.3 L551.5 180.95 546.25 180.9 495.85 180.5 405.85 180.75 404.35 182.0 404.35 183.5 427.1 183.95 Q424.2 188.0 415.35 203.5 403.35 224.5 403.35 226.35 403.35 228.05 404.05 228.7 404.4 229.0 405.85 229.5 412.35 222.1 419.45 206.85 427.3 190.05 431.35 184.5 L431.2 184.1 431.35 184.05 477.5 184.75 Q473.0 190.85 468.1 203.75 465.35 210.95 460.45 219.65 456.35 226.85 456.35 227.35 456.35 229.05 457.05 229.7 457.4 230.0 458.85 230.5 465.8 224.15 475.1 204.5 482.4 189.1 483.25 184.8 L528.2 185.2 Q524.85 190.45 518.9 206.0 510.35 228.2 510.35 230.75 510.35 233.25 510.6 232.25 L511.3 233.15 513.35 233.5 515.65 233.75 522.6 210.75 Q523.4 208.3 528.65 196.7 533.35 186.2 533.35 185.25 L533.35 185.2 546.25 185.25 550.2 185.25 550.55 185.25 551.5 185.3 551.35 220.6 551.35 236.35 546.35 236.3 515.0 236.05 514.95 236.05 399.1 235.6 399.35 113.85 Q399.75 73.0 399.35 52.75 L399.55 41.6 439.55 42.35 Q432.2 49.55 418.35 85.0 412.6 99.75 407.1 115.95 402.35 129.85 402.35 130.75 402.35 133.25 402.6 133.0 L405.35 133.5 Q406.7 133.5 413.5 114.15 L422.1 89.75 Q424.65 83.75 435.6 62.85 445.35 44.25 445.35 43.25 L445.35 43.05 445.35 42.45 484.8 42.95 Q476.7 56.8 460.05 92.85 444.5 126.5 441.25 137.65 L403.85 137.75 402.35 139.0 402.35 140.5 440.35 141.3 440.4 141.3 440.35 141.95 440.35 142.0 Q440.35 142.95 442.85 145.5 L445.9 141.4 Q497.3 142.25 546.35 142.3 L551.45 142.3 M391.7 405.15 L391.6 405.1 Q391.4 405.8 391.4 404.75 L391.45 404.8 391.75 405.15 391.7 405.15" fill="#ba9501" fill-rule="evenodd" stroke="none"/>
      <path d="M550.75 68.3 L551.25 100.55 551.25 100.6 549.75 100.55 547.15 100.5 547.1 100.5 546.6 100.5 546.35 100.5 508.85 100.75 508.7 100.9 508.45 100.6 510.85 92.5 Q513.35 86.15 521.9 67.55 L525.45 67.65 545.6 68.15 547.6 68.2 549.65 68.25 550.55 68.3 550.75 68.3 M551.35 240.5 L551.3 257.25 550.9 257.25 546.95 257.2 546.35 257.2 Q496.45 256.8 369.85 256.5 L163.0 256.5 Q163.0 256.75 160.5 258.0 L160.5 259.5 239.15 260.2 245.4 260.25 252.2 260.3 Q399.85 261.4 546.35 261.5 L551.3 261.5 551.25 282.25 550.5 282.25 395.9 281.55 395.75 281.55 381.55 281.55 380.0 281.55 152.0 281.5 Q152.0 281.75 149.5 283.0 L149.5 284.5 220.6 285.1 Q384.15 286.4 546.35 286.5 L551.25 286.5 551.25 308.3 546.35 308.25 Q495.05 307.8 357.35 307.5 L140.0 307.5 Q140.0 307.75 137.5 309.0 L137.5 310.5 Q342.95 312.35 546.35 312.5 L551.25 312.5 551.2 325.35 546.35 325.3 Q495.05 324.85 344.35 324.5 L120.25 324.5 Q129.55 309.35 145.15 277.2 161.85 242.75 162.5 238.55 355.45 240.4 546.35 240.5 L551.35 240.5" fill="#a08001" fill-rule="evenodd" stroke="none"/>
      <path d="M551.2 329.5 L551.15 349.9 546.35 349.85 543.15 349.8 502.95 349.5 502.55 349.5 502.15 349.5 501.75 349.5 501.35 349.5 500.9 349.5 500.5 349.5 500.05 349.5 499.65 349.5 499.2 349.5 498.75 349.5 498.3 349.5 497.85 349.5 409.35 349.75 409.35 329.25 546.35 329.5 551.2 329.5 M551.15 375.25 L551.1 388.7 545.1 388.65 501.7 388.35 500.5 388.35 499.85 388.35 499.2 388.35 498.55 388.35 497.85 388.35 400.25 388.6 400.35 380.1 400.4 373.6 Q474.85 374.95 546.1 375.25 L551.15 375.25 M551.1 393.1 L551.1 399.65 551.95 400.6 Q553.35 402.25 553.35 402.85 553.35 404.5 552.85 405.1 L551.95 405.25 Q544.3 405.9 472.35 406.35 L431.3 406.0 Q400.45 405.65 393.6 405.3 L393.85 404.85 393.85 404.8 395.25 401.75 395.45 401.35 Q537.3 400.8 548.2 400.2 547.3 396.95 546.8 393.1 L551.1 393.1 M149.5 400.05 Q149.4 401.6 148.35 402.0 L148.35 399.8 149.5 400.05 M145.0 402.3 L139.5 402.35 131.35 402.0 131.4 398.25 131.5 372.75 Q131.7 364.0 131.45 355.5 131.2 344.6 130.25 340.7 L144.4 340.85 Q143.7 344.85 143.5 353.5 143.3 361.7 143.5 371.85 143.5 385.8 143.65 389.55 L143.7 390.4 143.75 390.75 143.95 394.25 144.0 394.85 144.0 394.9 144.1 395.65 144.3 397.5 Q144.55 399.85 144.95 402.0 L145.0 402.3 M405.25 329.25 Q404.4 332.7 404.35 338.6 391.15 337.95 261.35 337.5 L160.4 337.7 160.0 337.5 159.8 337.7 146.45 337.7 146.0 337.5 Q145.75 337.5 145.55 337.7 L120.5 337.75 120.5 334.25 Q121.0 329.75 120.35 327.55 263.25 328.8 405.25 329.25" fill="#6d5701" fill-rule="evenodd" stroke="none"/>
    </g>
  </defs>
</svg>
