<?xml version="1.0" encoding="UTF-8" standalone="no"?>
<svg xmlns:xlink="http://www.w3.org/1999/xlink" height="842.55px" width="1337.95px" xmlns="http://www.w3.org/2000/svg">
  <g transform="matrix(1, 0, 0, 1, 407.45, 285.05)">
    <use height="4.5" transform="matrix(5.4867, 0.0, 0.0, 81.5667, 3.2875, 23.0167)" width="99.75" xlink:href="#shape0"/>
    <use height="425.0" transform="matrix(1.0, 0.0, 0.0, 1.0, -2.0, -17.5)" width="557.95" xlink:href="#shape1"/>
  </g>
  <defs>
    <g id="shape0" transform="matrix(1, 0, 0, 1, 49.85, -2.5)">
      <path d="M49.9 7.0 L-49.85 7.0 -49.85 2.5 49.9 2.5 49.9 7.0" fill="#ffffff" fill-rule="evenodd" stroke="none"/>
    </g>
    <g id="shape1" transform="matrix(1, 0, 0, 1, 2.0, 17.5)">
      <path d="M66.55 -3.05 Q66.95 12.7 66.5 43.6 66.5 97.6 56.6 151.45 L55.65 151.1 Q53.4 150.15 49.65 147.5 42.15 142.25 34.5 142.25 26.05 142.25 21.0 148.5 17.25 153.15 17.25 157.1 16.0 161.75 21.0 161.75 23.35 161.75 24.25 159.9 L25.65 155.9 Q28.0 150.0 38.75 150.0 40.75 150.0 43.25 151.7 L48.15 155.4 Q51.45 157.8 55.1 159.15 L51.5 176.15 Q48.5 189.35 41.2 216.9 36.5 234.55 36.5 239.35 36.5 241.05 37.2 241.7 L38.15 242.2 Q39.5 244.7 44.0 246.5 44.65 246.75 44.45 247.9 44.3 248.95 46.75 249.55 51.45 250.7 68.2 251.2 L67.8 251.65 Q63.5 257.15 63.5 264.0 63.5 269.3 68.75 281.4 74.65 295.0 80.0 297.5 84.55 299.7 89.8 304.7 L98.9 313.65 Q106.6 320.75 115.4 323.2 114.5 325.6 114.5 326.35 114.5 327.45 114.8 328.1 114.5 328.75 114.5 329.5 114.5 331.95 115.0 334.9 111.6 336.35 106.05 339.15 94.35 345.0 90.75 345.0 81.85 345.0 76.85 342.55 73.45 340.85 70.65 337.15 67.45 332.8 65.95 331.7 62.6 329.25 56.5 329.25 37.0 329.25 28.25 349.6 28.25 353.0 28.5 354.5 L29.95 355.4 32.0 355.75 Q33.4 355.75 34.85 352.8 L38.3 346.4 Q44.75 337.0 59.75 337.0 62.35 337.0 64.2 339.45 65.3 340.95 67.6 344.9 73.0 352.75 85.5 352.75 L104.75 347.75 Q112.85 345.2 117.5 342.9 L118.0 343.5 Q119.0 343.25 120.25 342.5 L120.35 341.3 121.4 340.6 127.75 340.65 Q126.8 344.35 126.55 354.5 126.3 362.7 126.5 372.85 126.5 386.8 126.65 390.55 126.9 396.0 127.5 400.35 L-2.0 400.35 -2.0 -3.5 66.55 -3.05 M159.65 400.25 L159.65 400.35 157.1 400.35 159.65 400.25 M162.35 400.35 L162.5 400.25 162.5 341.1 Q285.7 342.45 404.4 342.25 404.55 347.65 405.5 350.7 403.2 353.0 399.95 358.5 395.35 366.25 395.35 369.85 395.35 370.55 395.7 371.35 L395.6 371.8 395.35 372.0 395.35 373.5 395.4 373.5 395.35 380.25 Q395.35 385.0 395.95 388.0 393.65 390.05 391.9 395.8 L390.7 400.35 162.35 400.35 M162.0 -0.8 Q160.95 19.8 160.65 45.95 L160.6 54.2 158.95 52.65 Q153.45 47.25 149.0 47.25 141.4 47.25 135.0 52.1 133.0 29.3 130.55 -2.55 158.85 -2.25 159.25 -2.0 L160.05 -1.3 160.15 -1.7 Q160.5 -2.85 161.0 -3.5 L162.0 -0.8 M160.55 63.3 L160.5 83.9 160.5 83.95 159.3 85.6 158.4 86.85 Q152.9 95.15 150.75 104.5 149.85 107.8 143.1 112.8 L141.95 113.7 Q139.55 98.6 138.5 89.25 137.3 78.35 135.8 61.6 141.35 55.0 149.75 55.0 150.95 55.0 152.5 56.7 L156.05 60.4 Q158.0 62.15 160.55 63.3 M134.25 152.75 Q134.55 149.8 133.9 142.9 133.3 136.5 133.9 133.0 134.65 128.5 137.75 124.7 139.85 122.1 142.95 119.8 147.05 116.8 153.0 114.25 156.6 112.75 158.45 106.2 159.35 101.9 160.2 98.65 L160.5 98.75 160.25 98.35 160.5 97.4 160.5 98.75 160.5 110.5 160.5 126.85 Q156.55 134.15 155.45 145.2 L155.45 145.5 154.25 146.1 151.0 145.6 150.5 145.55 149.45 145.5 149.35 145.5 149.15 145.5 148.9 145.5 148.6 145.5 148.5 145.5 147.35 145.6 Q144.7 145.95 141.3 148.0 138.2 149.8 134.5 153.0 L134.25 152.75 M346.0 369.5 Q339.85 371.75 330.85 371.75 318.65 371.75 309.9 365.5 L303.95 361.2 Q300.7 359.25 297.35 359.25 293.25 359.25 289.35 361.55 287.1 362.9 282.9 366.65 278.75 370.3 276.3 371.7 272.35 374.0 268.1 374.0 265.45 374.0 262.3 371.25 L256.3 365.15 Q247.65 356.25 239.35 356.25 224.85 356.25 216.65 362.0 210.1 366.6 210.1 372.1 L210.15 374.6 Q210.8 376.75 213.85 376.75 216.2 376.75 217.1 374.75 217.95 371.95 218.85 370.4 222.35 364.0 237.85 364.0 243.1 364.0 246.65 366.75 248.15 367.95 252.2 372.9 255.65 377.1 259.05 379.0 264.1 381.75 271.85 381.75 275.8 381.75 279.35 379.45 L285.2 374.4 Q288.9 370.75 291.3 369.3 295.15 367.0 299.6 367.0 302.35 367.0 304.1 369.0 L307.5 373.4 Q313.55 379.75 330.85 379.75 338.15 379.75 346.15 377.5 355.6 374.8 355.6 371.1 355.6 367.25 351.85 367.25 L346.0 369.5 M109.65 315.35 L105.9 312.9 104.7 311.95 Q99.75 307.7 97.5 302.0 103.5 302.0 103.5 298.25 L103.25 296.45 103.0 296.0 Q86.1 302.5 75.7 285.05 72.3 279.3 70.15 271.8 68.5 266.2 68.5 264.0 68.5 258.35 76.55 251.4 78.5 249.6 81.0 247.8 L84.25 245.75 93.5 239.5 87.5 232.45 Q81.5 225.45 81.5 224.5 81.5 219.35 84.5 214.6 L92.25 204.25 95.75 199.15 Q98.15 195.8 100.25 194.5 102.2 193.25 105.1 192.7 L110.05 192.0 Q115.9 190.95 118.5 185.5 117.65 184.2 116.05 183.55 L113.0 182.5 Q116.2 172.85 129.55 161.65 136.85 155.5 142.05 152.95 145.75 151.05 148.35 151.0 L148.5 151.0 151.75 151.25 152.2 151.9 154.0 152.5 155.55 151.65 157.25 151.5 157.5 149.75 160.5 149.25 160.5 162.9 Q158.5 166.35 158.5 169.35 158.5 171.25 159.85 174.25 L160.5 175.65 160.5 174.1 160.5 206.5 160.35 216.6 160.1 222.6 Q160.1 224.7 160.25 226.65 L159.85 227.15 157.0 230.35 156.1 231.35 Q148.95 239.0 147.7 240.75 L146.45 242.7 Q144.65 245.85 143.95 249.15 143.5 251.2 143.5 253.35 143.5 255.55 145.9 260.0 140.45 270.2 133.95 283.35 124.8 282.3 117.9 275.05 115.95 272.95 112.55 268.4 109.85 264.75 108.5 263.75 106.75 265.95 104.6 272.75 102.5 279.4 102.5 282.5 102.5 285.7 105.95 288.0 107.95 289.35 113.5 291.5 118.95 293.65 121.05 295.15 124.5 297.6 124.5 301.0 124.5 303.0 123.2 305.3 121.9 307.55 119.3 310.05 114.6 314.55 109.65 315.35 M153.65 400.35 L149.5 400.35 149.5 400.05 153.65 400.35" fill="#ffffff" fill-rule="evenodd" stroke="none"/>
      <path d="M56.6 151.45 L55.1 159.15 Q51.45 157.8 48.15 155.4 L43.25 151.7 Q40.75 150.0 38.75 150.0 28.0 150.0 25.65 155.9 L24.25 159.9 Q23.35 161.75 21.0 161.75 16.0 161.75 17.25 157.1 17.25 153.15 21.0 148.5 26.05 142.25 34.5 142.25 42.15 142.25 49.65 147.5 53.4 150.15 55.65 151.1 L56.6 151.45 M115.0 334.9 L115.4 337.0 Q116.3 341.15 117.5 342.9 112.85 345.2 104.75 347.75 L85.5 352.75 Q73.0 352.75 67.6 344.9 65.3 340.95 64.2 339.45 62.35 337.0 59.75 337.0 44.75 337.0 38.3 346.4 L34.85 352.8 Q33.4 355.75 32.0 355.75 L29.95 355.4 28.5 354.5 Q28.25 353.0 28.25 349.6 37.0 329.25 56.5 329.25 62.6 329.25 65.95 331.7 67.45 332.8 70.65 337.15 73.45 340.85 76.85 342.55 81.85 345.0 90.75 345.0 94.35 345.0 106.05 339.15 111.6 336.35 115.0 334.9 M120.35 341.3 L120.4 340.55 121.4 340.6 120.35 341.3 M160.6 54.2 L160.55 63.3 Q158.0 62.15 156.05 60.4 L152.5 56.7 Q150.95 55.0 149.75 55.0 141.35 55.0 135.8 61.6 L135.0 52.1 Q141.4 47.25 149.0 47.25 153.45 47.25 158.95 52.65 L160.6 54.2 M346.0 369.5 L351.85 367.25 Q355.6 367.25 355.6 371.1 355.6 374.8 346.15 377.5 338.15 379.75 330.85 379.75 313.55 379.75 307.5 373.4 L304.1 369.0 Q302.35 367.0 299.6 367.0 295.15 367.0 291.3 369.3 288.9 370.75 285.2 374.4 L279.35 379.45 Q275.8 381.75 271.85 381.75 264.1 381.75 259.05 379.0 255.65 377.1 252.2 372.9 248.15 367.95 246.65 366.75 243.1 364.0 237.85 364.0 222.35 364.0 218.85 370.4 217.95 371.95 217.1 374.75 216.2 376.75 213.85 376.75 210.8 376.75 210.15 374.6 L210.1 372.1 Q210.1 366.6 216.65 362.0 224.85 356.25 239.35 356.25 247.65 356.25 256.3 365.15 L262.3 371.25 Q265.45 374.0 268.1 374.0 272.35 374.0 276.3 371.7 278.75 370.3 282.9 366.65 287.1 362.9 289.35 361.55 293.25 359.25 297.35 359.25 300.7 359.25 303.95 361.2 L309.9 365.5 Q318.65 371.75 330.85 371.75 339.85 371.75 346.0 369.5" fill="#eefbff" fill-rule="evenodd" stroke="none"/>
      <path d="M396.5 -3.3 L396.3 0.05 395.85 0.25 396.25 0.3 396.15 2.8 394.65 45.8 394.65 46.65 394.65 47.05 394.6 47.85 394.6 48.7 394.6 49.15 394.6 50.0 394.55 50.9 394.55 51.35 394.55 51.8 Q394.35 65.7 394.35 113.75 L394.35 206.0 Q394.55 210.5 394.15 219.6 381.8 218.95 279.85 218.5 L224.3 218.65 218.3 218.65 165.65 218.75 165.5 218.75 165.5 -4.25 197.1 -4.3 Q196.5 -0.5 196.5 6.0 196.5 12.25 196.65 13.9 197.1 18.4 199.0 21.5 L201.5 20.25 201.5 -4.3 237.8 -4.4 237.4 -1.25 237.35 7.35 Q237.35 18.25 239.85 22.5 240.85 22.25 242.1 21.5 L242.35 7.25 Q242.9 -0.75 242.1 -4.4 L280.1 -4.5 Q279.35 0.3 279.35 8.0 279.35 17.45 280.45 22.5 L267.7 22.55 Q267.3 21.5 266.85 21.5 266.45 21.5 266.15 22.55 L189.0 22.75 187.5 24.0 187.5 25.5 188.7 25.55 Q187.05 37.45 186.65 54.55 L186.65 55.45 186.55 63.55 186.55 70.5 186.5 76.0 186.5 87.25 186.5 119.5 Q186.65 124.25 186.1 135.6 186.1 142.7 187.5 147.6 L187.5 148.5 187.8 148.5 188.85 151.2 189.0 151.5 189.15 151.5 191.25 150.75 191.25 148.6 199.75 148.75 Q198.8 152.6 198.55 163.25 L198.5 165.1 198.45 170.3 198.5 182.35 Q198.5 196.4 198.65 200.4 199.15 211.7 201.0 218.5 L203.25 217.5 203.5 182.25 203.65 171.05 203.65 167.8 Q203.55 153.5 202.4 148.8 L257.7 149.65 269.35 149.8 279.25 149.9 Q278.6 151.35 278.25 153.35 L278.35 153.5 278.35 170.05 279.35 181.75 Q279.35 186.05 278.35 194.25 L278.35 208.25 277.7 208.65 Q278.6 214.3 281.85 217.5 L284.1 216.75 284.35 181.85 284.3 164.25 Q284.0 156.2 282.7 149.95 L293.65 150.05 293.85 150.5 294.95 150.05 324.7 150.25 Q323.65 153.75 323.4 164.5 323.15 172.7 323.35 182.85 323.35 208.4 325.85 217.5 326.85 217.25 328.1 216.5 L328.35 182.75 Q328.95 156.15 327.1 150.25 L364.3 150.3 Q363.6 154.45 363.4 163.25 363.15 171.85 363.35 182.35 363.35 208.95 365.85 218.5 366.85 218.25 368.1 217.5 L368.35 182.25 Q369.05 158.1 367.65 150.3 L377.75 150.25 377.85 150.5 Q378.85 150.25 380.1 149.5 L380.35 88.75 Q381.3 31.4 378.3 27.75 L378.85 27.25 379.9 26.8 Q380.35 26.45 380.35 24.85 380.35 23.3 380.1 23.35 L379.85 23.75 367.7 23.25 369.1 22.75 369.35 7.35 Q369.35 0.2 368.55 -3.9 393.55 -3.65 396.5 -3.3 M123.55 -7.0 L123.55 -2.6 123.75 13.6 Q124.3 32.05 126.5 46.25 L128.4 58.8 130.2 71.1 135.75 111.5 136.7 117.6 133.5 120.0 Q131.05 122.35 129.65 128.5 128.5 133.4 128.5 138.0 128.5 147.95 132.0 153.5 L134.25 152.75 134.5 153.0 132.8 154.45 Q127.75 159.05 122.75 164.75 118.2 169.3 112.75 176.6 108.05 182.95 105.5 185.0 93.7 194.4 85.8 204.6 76.5 216.55 76.5 225.0 76.5 229.25 77.9 230.9 L85.0 238.5 Q78.5 242.15 74.05 245.65 L59.0 245.5 53.0 244.5 Q47.6 242.95 47.0 242.5 L44.2 239.9 Q42.7 238.7 41.05 238.55 50.3 219.55 55.35 194.2 57.25 184.6 59.5 169.45 L60.8 160.55 62.0 152.65 63.25 144.25 Q69.15 108.15 70.45 91.0 71.5 77.5 71.5 44.1 71.5 8.2 71.0 -3.05 L70.9 -4.9 70.75 -7.0 123.55 -7.0 M284.35 -4.45 L320.75 -4.3 Q320.5 -3.0 320.4 -1.25 L320.35 7.35 Q320.35 18.25 322.85 22.5 323.85 22.25 325.1 21.5 L325.35 7.25 Q325.75 -0.6 325.05 -4.25 L365.1 -3.95 Q364.35 0.1 364.35 7.25 364.35 19.6 366.7 23.25 344.35 22.8 284.35 22.5 L284.35 -4.45 M377.85 27.25 L377.85 27.5 Q375.8 27.5 375.4 57.0 375.15 71.95 375.35 88.85 L375.35 119.25 Q375.55 124.45 375.05 134.95 375.05 141.5 376.45 146.55 364.75 145.95 296.35 145.6 L296.35 134.05 317.15 134.2 Q317.7 140.55 319.85 144.5 L322.1 143.75 322.15 134.25 344.15 134.3 Q344.6 141.2 346.85 145.5 347.85 145.25 349.1 144.5 L349.15 134.3 369.85 134.25 370.9 133.8 Q371.35 133.45 371.35 131.85 371.35 130.3 371.1 130.35 L370.85 130.75 349.2 130.1 349.25 112.3 368.85 112.25 Q369.25 112.0 369.9 111.8 370.35 111.45 370.35 109.85 370.35 108.3 370.1 108.35 L369.85 108.75 349.25 108.1 349.35 91.3 368.85 91.25 Q369.25 91.0 369.9 90.8 370.35 90.45 370.35 88.85 370.35 87.3 370.1 87.35 L369.85 87.75 349.35 87.1 349.35 85.25 349.5 68.3 368.85 68.25 Q369.25 68.0 369.9 67.8 370.35 67.45 370.35 65.85 370.35 64.3 370.1 64.35 L369.85 64.75 349.5 64.1 349.3 45.3 366.85 45.25 367.9 44.8 Q368.35 44.45 368.35 42.85 368.35 41.3 368.1 41.35 L367.85 41.75 349.15 41.15 Q348.7 30.75 347.85 27.3 L377.85 27.25 M344.35 91.3 L344.35 108.0 322.25 107.8 322.35 91.25 344.35 91.3 M344.35 112.3 L344.35 115.0 Q344.55 119.85 344.1 130.0 L322.15 129.8 322.25 112.25 344.35 112.3 M344.4 54.25 L344.3 64.0 322.55 63.8 322.35 55.25 322.65 45.25 344.6 45.3 344.4 54.25 M344.35 85.35 L344.35 87.05 322.35 86.8 322.35 84.85 322.55 68.25 344.25 68.3 344.35 85.35 M345.95 27.3 Q345.15 30.75 344.75 41.05 L322.65 40.8 322.65 40.15 Q322.6 32.1 320.65 27.2 L345.95 27.3 M291.0 134.0 L290.95 134.6 Q291.0 140.95 292.1 145.55 L283.35 145.5 270.85 145.55 269.1 145.55 269.15 133.8 271.1 133.8 291.0 134.0 M291.35 112.0 L291.35 118.5 291.2 129.55 283.85 129.5 269.2 129.55 269.25 111.8 291.35 112.0 M317.35 112.2 L317.35 114.75 Q317.5 119.15 316.95 129.7 L316.95 129.75 296.35 129.6 296.35 112.05 317.35 112.2 M241.85 149.5 Q239.8 149.5 239.4 164.75 239.15 172.6 239.35 182.35 239.35 205.8 241.85 215.5 242.85 215.25 244.1 214.5 L244.35 182.25 Q245.1 149.5 241.85 149.5 M242.35 129.6 L242.35 111.4 257.65 111.6 262.75 111.7 264.35 111.7 264.35 115.5 Q264.45 119.25 264.15 127.15 L264.05 129.55 258.95 129.55 242.35 129.6 M237.35 111.3 L237.35 113.75 Q237.5 118.15 236.95 128.7 L237.0 129.65 216.3 129.7 216.4 110.9 237.35 111.3 M216.5 89.95 L237.35 90.3 237.35 107.65 216.4 107.7 216.5 89.95 M216.55 80.75 L216.65 75.5 216.7 66.9 237.2 67.3 237.3 79.55 237.35 84.5 237.35 86.05 237.35 86.65 216.5 86.7 216.5 84.25 216.55 80.75 M216.55 43.9 L237.0 44.3 237.35 54.5 Q237.2 58.25 237.2 63.65 L216.75 63.7 216.55 43.9 M213.15 26.0 Q212.3 29.4 211.85 40.75 L200.0 40.75 198.5 42.0 198.5 43.5 211.75 43.8 211.55 53.25 211.45 63.7 199.0 63.75 197.5 65.0 197.5 66.5 211.4 66.8 211.45 76.2 211.45 80.85 211.5 84.35 211.5 86.7 198.0 86.75 196.5 88.0 196.5 89.5 211.5 89.85 211.5 107.7 199.0 107.75 197.5 109.0 197.5 110.5 211.5 110.8 211.5 114.0 Q211.7 119.05 211.15 129.7 L198.0 129.75 196.5 131.0 196.5 132.5 211.25 132.85 Q211.65 140.0 214.0 144.5 215.0 144.25 216.25 143.5 L216.3 132.95 237.2 133.3 Q237.75 139.6 239.85 143.5 L242.35 142.25 242.35 133.4 263.85 133.7 264.0 133.7 264.0 133.95 Q264.2 139.6 265.4 143.75 L266.0 145.55 264.0 145.55 191.3 145.75 191.5 87.35 191.65 76.7 191.7 70.95 191.65 61.35 191.5 55.5 191.55 53.25 191.8 39.3 Q191.75 30.85 189.85 25.55 L213.15 26.0 M216.45 40.7 Q216.0 29.45 215.0 26.0 L239.35 26.4 Q237.0 30.75 236.95 39.4 L236.95 40.65 216.45 40.7 M269.35 90.8 L291.35 91.0 291.35 107.55 283.85 107.5 269.25 107.55 269.35 90.8 M296.35 91.05 L317.35 91.2 317.35 107.75 296.35 107.6 296.35 91.05 M317.35 84.75 L317.35 86.75 296.35 86.6 296.35 68.05 317.45 68.2 317.35 84.75 M291.2 63.55 L283.85 63.5 269.6 63.55 269.45 44.8 291.05 45.0 291.35 54.75 291.2 63.55 M269.35 86.55 L269.35 84.25 269.55 67.8 291.2 68.0 291.35 86.55 283.35 86.5 269.35 86.55 M264.35 84.35 L264.35 86.55 248.8 86.6 242.35 86.6 242.35 67.4 264.3 67.7 264.35 84.35 M244.2 90.4 L252.95 90.55 264.35 90.7 264.35 107.55 263.3 107.55 258.3 107.55 242.35 107.6 242.35 90.4 244.2 90.4 M264.4 51.75 L264.3 63.55 242.35 63.6 242.35 44.4 264.55 44.7 264.4 51.75 M265.45 26.75 Q264.9 31.5 264.65 40.55 L242.35 40.6 242.35 27.5 241.4 26.45 265.45 26.75 M296.35 45.05 L318.15 45.2 Q317.7 53.3 317.55 63.75 L296.35 63.6 296.35 45.05 M290.95 38.5 L291.0 40.55 283.35 40.5 269.35 40.55 Q269.1 31.5 268.5 26.75 L292.35 27.0 Q291.0 31.45 290.95 38.5 M296.35 40.6 L296.35 27.05 319.6 27.2 Q318.85 32.6 318.4 40.75 L296.35 40.6 M117.0 18.5 Q113.15 12.5 105.0 12.5 94.7 12.5 89.25 22.25 85.5 28.95 85.5 35.0 L85.15 37.6 Q84.95 40.65 85.75 43.25 88.25 51.5 99.5 51.5 107.25 51.5 114.0 40.25 116.4 36.3 118.05 31.9 119.5 28.1 119.5 26.75 119.5 22.4 117.0 18.5" fill="#a98701" fill-rule="evenodd" stroke="none"/>
      <path d="M66.55 -3.05 L66.5 -4.75 66.4 -7.0 70.75 -7.0 70.9 -4.9 71.0 -3.05 Q71.5 8.2 71.5 44.1 71.5 77.5 70.45 91.0 69.15 108.15 63.25 144.25 L62.0 152.65 60.8 160.55 59.5 169.45 Q57.25 184.6 55.35 194.2 50.3 219.55 41.05 238.55 42.7 238.7 44.2 239.9 L47.0 242.5 Q47.6 242.95 53.0 244.5 L59.0 245.5 74.05 245.65 Q78.5 242.15 85.0 238.5 L77.9 230.9 Q76.5 229.25 76.5 225.0 76.5 216.55 85.8 204.6 93.7 194.4 105.5 185.0 108.05 182.95 112.75 176.6 118.2 169.3 122.75 164.75 127.75 159.05 132.8 154.45 L134.5 153.0 Q138.2 149.8 141.3 148.0 144.7 145.95 147.35 145.6 L148.5 145.5 148.6 145.5 148.9 145.5 149.15 145.5 149.35 145.5 149.45 145.5 150.5 145.55 151.0 145.6 154.25 146.1 155.45 145.5 156.0 145.25 Q158.05 144.45 160.5 144.05 L160.5 126.85 160.5 110.5 160.5 98.75 160.5 97.4 160.25 98.35 160.2 98.65 Q159.35 101.9 158.45 106.2 156.6 112.75 153.0 114.25 147.05 116.8 142.95 119.8 139.85 122.1 137.75 124.7 134.65 128.5 133.9 133.0 133.3 136.5 133.9 142.9 134.55 149.8 134.25 152.75 L132.0 153.5 Q128.5 147.95 128.5 138.0 128.5 133.4 129.65 128.5 131.05 122.35 133.5 120.0 L136.7 117.6 135.75 111.5 130.2 71.1 128.4 58.8 126.5 46.25 Q124.3 32.05 123.75 13.6 L123.55 -2.6 123.55 -7.0 130.2 -7.0 130.5 -3.05 130.55 -2.55 Q133.0 29.3 135.0 52.1 L135.8 61.6 Q137.3 78.35 138.5 89.25 139.55 98.6 141.95 113.7 L143.1 112.8 Q149.85 107.8 150.75 104.5 152.9 95.15 158.4 86.85 L159.3 85.6 160.5 83.95 160.5 83.9 160.55 63.3 160.6 54.2 160.65 45.95 Q160.95 19.8 162.0 -0.8 L163.0 -17.5 Q164.6 -16.85 165.5 -15.5 L165.5 -4.25 165.5 218.75 165.65 218.75 218.3 218.65 224.3 218.65 279.85 218.5 Q381.8 218.95 394.15 219.6 394.55 210.5 394.35 206.0 L394.35 113.75 Q394.35 65.7 394.55 51.8 L394.55 51.35 394.55 50.9 394.6 50.0 394.6 49.15 394.6 48.7 394.6 47.85 394.65 47.05 394.65 46.65 394.65 45.8 396.15 2.8 396.25 0.3 396.3 0.05 396.5 -3.3 396.6 -5.1 396.8 -7.95 396.85 -8.5 397.9 -3.4 398.2 -1.45 Q399.6 8.35 399.65 21.9 L399.55 38.75 485.85 38.5 547.9 39.0 551.95 39.05 552.15 39.05 555.95 39.1 555.95 43.3 551.95 43.3 549.7 43.3 548.1 43.3 530.85 43.25 530.8 43.25 530.85 43.3 Q531.35 43.85 531.35 45.6 531.35 47.05 523.25 64.6 L523.2 64.7 523.25 64.7 Q525.95 64.55 547.15 64.5 L550.65 64.5 551.95 64.5 555.35 64.5 555.95 64.5 555.95 68.4 551.95 68.3 550.75 68.3 550.55 68.3 549.65 68.25 547.6 68.2 545.6 68.15 525.45 67.65 521.9 67.55 Q513.35 86.15 510.85 92.5 L508.45 100.6 508.25 101.25 508.7 100.9 508.85 100.75 546.35 100.5 546.6 100.5 547.1 100.5 547.15 100.5 549.75 100.55 551.25 100.6 551.25 100.55 551.95 100.55 552.85 100.6 555.95 100.65 555.95 104.6 553.95 104.55 553.9 104.55 551.95 104.55 551.25 104.5 549.7 104.45 549.55 104.45 548.55 104.45 546.6 104.4 545.55 104.35 511.3 103.6 510.6 103.6 507.65 103.5 504.3 115.9 Q500.6 130.0 494.85 137.5 L493.05 136.9 Q492.35 136.4 492.35 134.75 492.35 123.45 509.0 84.4 523.2 51.2 528.35 43.25 L489.25 43.0 Q488.2 46.8 478.8 65.5 L464.6 94.0 Q462.1 99.6 459.7 107.3 L455.8 120.2 Q452.65 130.0 448.25 137.65 L486.85 137.5 494.85 137.55 Q527.7 137.75 546.35 138.05 L551.45 138.1 551.95 138.1 555.95 138.2 555.95 142.3 551.95 142.3 551.45 142.3 546.35 142.3 Q497.3 142.25 445.9 141.4 L442.85 145.5 Q440.35 142.95 440.35 142.0 L440.35 141.95 440.4 141.3 440.35 141.3 402.35 140.5 402.35 139.0 403.85 137.75 441.25 137.65 Q444.5 126.5 460.05 92.85 476.7 56.8 484.8 42.95 L445.35 42.45 445.35 43.05 445.35 43.25 Q445.35 44.25 435.6 62.85 424.65 83.75 422.1 89.75 L413.5 114.15 Q406.7 133.5 405.35 133.5 L402.6 133.0 Q402.35 133.25 402.35 130.75 402.35 129.85 407.1 115.95 412.6 99.75 418.35 85.0 432.2 49.55 439.55 42.35 L399.55 41.6 399.35 52.75 Q399.75 73.0 399.35 113.85 L399.15 231.65 399.1 235.6 514.95 236.05 515.0 236.05 546.35 236.3 548.2 236.3 551.35 236.35 551.95 236.35 555.95 236.4 555.95 240.5 551.95 240.5 551.35 240.5 548.95 240.5 546.35 240.5 Q387.75 240.4 227.75 239.1 L222.45 239.05 162.5 238.55 Q161.95 242.1 149.75 267.65 L145.15 277.2 142.4 282.9 Q131.25 305.6 123.55 318.95 L120.4 324.25 120.25 324.5 344.35 324.5 Q495.05 324.85 546.35 325.3 L549.35 325.3 551.2 325.35 551.95 325.35 555.95 325.4 555.95 329.5 551.95 329.5 551.2 329.5 549.3 329.5 546.35 329.5 409.35 329.25 409.35 349.75 497.85 349.5 498.3 349.5 498.75 349.5 499.2 349.5 499.65 349.5 500.05 349.5 500.5 349.5 500.9 349.5 501.35 349.5 501.75 349.5 502.15 349.5 502.55 349.5 502.95 349.5 543.15 349.8 546.35 349.85 549.25 349.85 551.15 349.9 551.95 349.9 555.95 349.95 555.95 354.25 551.95 354.25 551.15 354.25 549.25 354.25 546.35 354.25 544.3 354.25 411.55 352.65 409.35 352.6 Q409.0 354.8 404.85 362.6 402.05 367.9 401.0 370.75 L498.35 370.5 498.8 370.5 499.2 370.5 499.65 370.5 500.05 370.5 500.9 370.5 501.3 370.5 501.7 370.5 502.1 370.5 502.5 370.5 503.25 370.5 543.3 370.75 546.25 370.8 549.2 370.8 551.15 370.85 551.95 370.85 555.95 370.85 555.95 375.25 551.95 375.25 551.15 375.25 546.1 375.25 Q474.85 374.95 400.4 373.6 L400.35 380.1 400.25 388.6 497.85 388.35 498.55 388.35 499.2 388.35 499.85 388.35 500.5 388.35 501.7 388.35 545.1 388.65 549.15 388.65 551.1 388.7 551.95 388.7 553.65 388.7 555.95 388.75 555.95 393.1 551.95 393.1 551.1 393.1 546.8 393.1 503.15 392.85 418.1 391.75 417.05 391.75 416.35 391.75 414.75 391.7 409.35 391.6 405.25 391.55 400.0 391.45 399.0 391.95 396.5 398.75 396.4 399.05 395.85 400.35 395.25 401.75 393.85 404.8 393.85 404.85 393.6 405.3 392.85 406.35 392.25 405.75 391.7 405.15 391.75 405.15 391.45 404.8 Q390.35 403.5 390.35 402.85 390.35 401.95 390.7 400.35 L391.9 395.8 Q393.65 390.05 395.95 388.0 395.35 385.0 395.35 380.25 L395.4 373.5 395.35 373.5 395.35 372.0 395.6 371.8 395.7 371.35 Q395.35 370.55 395.35 369.85 395.35 366.25 399.95 358.5 403.2 353.0 405.5 350.7 404.55 347.65 404.4 342.25 285.7 342.45 162.5 341.1 L162.5 400.25 162.35 400.35 160.0 401.5 159.65 400.35 159.65 400.25 Q159.05 398.1 158.6 395.5 157.9 391.2 157.65 385.65 157.5 382.15 157.5 369.5 156.2 358.1 155.85 352.05 155.45 345.0 157.25 341.05 L147.55 340.9 Q148.3 345.1 148.5 354.55 148.7 363.05 148.5 371.75 L148.4 396.25 148.35 399.8 148.35 402.0 148.25 405.2 148.25 405.5 Q147.0 406.25 146.0 406.5 L145.0 402.3 144.95 402.0 144.7 400.35 144.3 397.5 144.1 395.65 144.0 394.9 144.0 394.85 143.95 394.25 143.75 390.75 143.7 390.4 143.65 389.55 Q143.5 385.8 143.5 371.85 143.3 361.7 143.5 353.5 143.7 344.85 144.4 340.85 L130.25 340.7 Q131.2 344.6 131.45 355.5 131.7 364.0 131.5 372.75 L131.4 398.25 131.35 400.35 131.35 402.0 131.25 406.5 129.0 407.5 Q128.1 404.4 127.5 400.35 126.9 396.0 126.65 390.55 126.5 386.8 126.5 372.85 126.3 362.7 126.55 354.5 126.8 344.35 127.75 340.65 L121.4 340.6 120.4 340.55 120.35 341.3 120.25 342.5 Q119.0 343.25 118.0 343.5 L117.5 342.9 Q116.3 341.15 115.4 337.0 L115.0 334.9 Q114.5 331.95 114.5 329.5 114.5 328.75 114.8 328.1 114.5 327.45 114.5 326.35 114.5 325.6 115.4 323.2 106.6 320.75 98.9 313.65 L89.8 304.7 Q84.55 299.7 80.0 297.5 74.65 295.0 68.75 281.4 63.5 269.3 63.5 264.0 63.5 257.15 67.8 251.65 L68.2 251.2 Q51.45 250.7 46.75 249.55 44.3 248.95 44.45 247.9 44.65 246.75 44.0 246.5 39.5 244.7 38.15 242.2 L37.2 241.7 Q36.5 241.05 36.5 239.35 36.5 234.55 41.2 216.9 48.5 189.35 51.5 176.15 L55.1 159.15 56.6 151.45 Q66.5 97.6 66.5 43.6 66.95 12.7 66.55 -3.05 M197.1 -4.3 Q197.7 -8.4 199.0 -9.5 200.6 -8.85 201.5 -7.5 L201.5 -4.3 201.5 20.25 199.0 21.5 Q197.1 18.4 196.65 13.9 196.5 12.25 196.5 6.0 196.5 -0.5 197.1 -4.3 M237.8 -4.4 Q238.4 -7.5 239.85 -7.5 241.45 -7.5 242.1 -4.4 242.9 -0.75 242.35 7.25 L242.1 21.5 Q240.85 22.25 239.85 22.5 237.35 18.25 237.35 7.35 L237.4 -1.25 237.8 -4.4 M280.1 -4.5 Q280.7 -8.55 281.85 -10.5 283.45 -9.85 284.35 -8.5 L284.35 -4.45 284.35 22.5 Q344.35 22.8 366.7 23.25 364.35 19.6 364.35 7.25 364.35 0.1 365.1 -3.95 365.7 -7.3 366.85 -8.5 367.95 -7.1 368.55 -3.9 369.35 0.2 369.35 7.35 L369.1 22.75 367.7 23.25 379.85 23.75 380.1 23.35 Q380.35 23.3 380.35 24.85 380.35 26.45 379.9 26.8 L378.85 27.25 377.85 27.25 347.85 27.3 Q348.7 30.75 349.15 41.15 L367.85 41.75 368.1 41.35 Q368.35 41.3 368.35 42.85 368.35 44.45 367.9 44.8 L366.85 45.25 349.3 45.3 349.5 64.1 369.85 64.75 370.1 64.35 Q370.35 64.3 370.35 65.85 370.35 67.45 369.9 67.8 369.25 68.0 368.85 68.25 L349.5 68.3 349.35 85.25 349.35 87.1 369.85 87.75 370.1 87.35 Q370.35 87.3 370.35 88.85 370.35 90.45 369.9 90.8 369.25 91.0 368.85 91.25 L349.35 91.3 349.25 108.1 369.85 108.75 370.1 108.35 Q370.35 108.3 370.35 109.85 370.35 111.45 369.9 111.8 369.25 112.0 368.85 112.25 L349.25 112.3 349.2 130.1 370.85 130.75 371.1 130.35 Q371.35 130.3 371.35 131.85 371.35 133.45 370.9 133.8 L369.85 134.25 349.15 134.3 349.1 144.5 Q347.85 145.25 346.85 145.5 344.6 141.2 344.15 134.3 L322.15 134.25 322.1 143.75 319.85 144.5 Q317.7 140.55 317.15 134.2 L296.35 134.05 296.35 145.6 Q364.75 145.95 376.45 146.55 375.05 141.5 375.05 134.95 375.55 124.45 375.35 119.25 L375.35 88.85 Q375.15 71.95 375.4 57.0 375.8 27.5 377.85 27.5 378.05 27.5 378.3 27.75 381.3 31.4 380.35 88.75 L380.1 149.5 Q378.85 150.25 377.85 150.5 L377.75 150.25 367.65 150.3 Q369.05 158.1 368.35 182.25 L368.1 217.5 Q366.85 218.25 365.85 218.5 363.35 208.95 363.35 182.35 363.15 171.85 363.4 163.25 363.6 154.45 364.3 150.3 L327.1 150.25 Q328.95 156.15 328.35 182.75 L328.1 216.5 Q326.85 217.25 325.85 217.5 323.35 208.4 323.35 182.85 323.15 172.7 323.4 164.5 323.65 153.75 324.7 150.25 L294.95 150.05 293.85 150.5 293.65 150.05 282.7 149.95 Q284.0 156.2 284.3 164.25 L284.35 181.85 284.1 216.75 281.85 217.5 Q278.6 214.3 277.7 208.65 L278.35 208.25 278.35 194.25 Q279.35 186.05 279.35 181.75 L278.35 170.05 278.35 153.5 278.25 153.35 Q278.6 151.35 279.25 149.9 L269.35 149.8 257.7 149.65 202.4 148.8 Q203.55 153.5 203.65 167.8 L203.65 171.05 203.5 182.25 203.25 217.5 201.0 218.5 Q199.15 211.7 198.65 200.4 198.5 196.4 198.5 182.35 L198.45 170.3 198.5 165.1 198.55 163.25 Q198.8 152.6 199.75 148.75 L191.25 148.6 191.25 150.75 189.15 151.5 189.0 151.5 188.85 151.2 187.8 148.5 187.5 148.5 187.5 147.6 Q186.1 142.7 186.1 135.6 186.65 124.25 186.5 119.5 L186.5 87.25 186.5 76.0 186.55 70.5 186.55 63.55 186.65 55.45 186.65 54.55 Q187.05 37.45 188.7 25.55 L187.5 25.5 187.5 24.0 189.0 22.75 266.15 22.55 Q266.45 21.5 266.85 21.5 267.3 21.5 267.7 22.55 L280.45 22.5 Q279.35 17.45 279.35 8.0 279.35 0.3 280.1 -4.5 M320.75 -4.3 Q321.4 -7.5 322.85 -7.5 324.35 -7.5 325.05 -4.25 325.75 -0.6 325.35 7.25 L325.1 21.5 Q323.85 22.25 322.85 22.5 320.35 18.25 320.35 7.35 L320.4 -1.25 Q320.5 -3.0 320.75 -4.3 M551.5 185.3 L550.55 185.25 550.2 185.25 546.25 185.25 533.35 185.2 533.35 185.25 Q533.35 186.2 528.65 196.7 523.4 208.3 522.6 210.75 L516.15 232.2 515.65 233.75 513.35 233.5 511.3 233.15 510.6 232.25 Q510.45 232.85 510.4 232.15 L510.35 230.75 Q510.35 228.2 518.9 206.0 524.85 190.45 528.2 185.2 L483.25 184.8 Q482.4 189.1 475.1 204.5 465.8 224.15 458.85 230.5 457.4 230.0 457.05 229.7 456.35 229.05 456.35 227.35 456.35 226.85 460.45 219.65 465.35 210.95 468.1 203.75 473.0 190.85 477.5 184.75 L431.35 184.05 431.15 184.05 431.2 184.1 431.35 184.5 Q427.3 190.05 419.45 206.85 412.35 222.1 405.85 229.5 404.4 229.0 404.05 228.7 403.35 228.05 403.35 226.35 403.35 224.5 415.35 203.5 424.2 188.0 427.1 183.95 L404.35 183.5 404.35 182.0 405.85 180.75 495.85 180.5 546.25 180.9 551.5 180.95 551.95 180.95 555.95 181.0 555.95 185.3 552.55 185.3 551.95 185.3 551.5 185.3 M345.95 27.3 L320.65 27.2 Q322.6 32.1 322.65 40.15 L322.65 40.8 344.75 41.05 Q345.15 30.75 345.95 27.3 M344.35 85.35 L344.25 68.3 322.55 68.25 322.35 84.85 322.35 86.8 344.35 87.05 344.35 85.35 M344.4 54.25 L344.6 45.3 322.65 45.25 322.35 55.25 322.55 63.8 344.3 64.0 344.4 54.25 M344.35 112.3 L322.25 112.25 322.15 129.8 344.1 130.0 Q344.55 119.85 344.35 115.0 L344.35 112.3 M344.35 91.3 L322.35 91.25 322.25 107.8 344.35 108.0 344.35 91.3 M395.1 231.65 Q394.2 228.0 394.1 223.25 309.45 223.45 221.25 222.35 L214.95 222.25 165.5 221.55 165.5 235.5 364.85 235.5 396.4 235.6 Q395.6 233.8 395.1 231.65 M551.25 286.5 L549.55 286.5 546.35 286.5 Q384.15 286.4 220.6 285.1 L212.75 285.05 200.65 284.95 149.5 284.5 149.5 283.0 Q152.0 281.75 152.0 281.5 L380.0 281.55 381.55 281.55 395.75 281.55 395.9 281.55 550.5 282.25 551.25 282.25 551.95 282.25 552.5 282.25 552.9 282.25 555.95 282.3 555.95 286.5 551.25 286.5 M551.3 261.5 L549.6 261.5 546.35 261.5 Q399.85 261.4 252.2 260.3 L245.4 260.25 239.15 260.2 234.7 260.15 229.55 260.1 160.5 259.5 160.5 258.0 Q163.0 256.75 163.0 256.5 L369.85 256.5 Q496.45 256.8 546.35 257.2 L546.95 257.2 550.9 257.25 551.3 257.25 551.95 257.25 552.15 257.25 555.95 257.35 555.95 261.5 551.3 261.5 M405.25 329.25 Q263.25 328.8 120.35 327.55 120.95 329.5 120.6 333.3 L120.5 334.25 120.5 337.75 123.65 337.75 145.55 337.7 Q145.75 337.5 146.0 337.5 L146.45 337.7 159.8 337.7 160.0 337.5 160.4 337.7 261.35 337.5 Q391.15 337.95 404.35 338.6 404.4 332.7 405.25 329.25 M551.25 308.3 L551.95 308.3 552.5 308.3 553.05 308.3 555.95 308.3 555.95 312.5 551.95 312.5 551.25 312.5 549.4 312.5 546.35 312.5 Q373.2 312.4 198.6 311.05 L188.55 310.95 154.0 310.65 146.0 310.6 137.5 310.5 137.5 309.0 Q140.0 307.75 140.0 307.5 L357.35 307.5 Q495.05 307.8 546.35 308.25 L549.45 308.25 551.25 308.3 M296.35 40.6 L318.4 40.75 Q318.85 32.6 319.6 27.2 L296.35 27.05 296.35 40.6 M290.95 38.5 Q291.0 31.45 292.35 27.0 L268.5 26.75 Q269.1 31.5 269.35 40.55 L283.35 40.5 291.0 40.55 290.95 38.5 M296.35 45.05 L296.35 63.6 317.55 63.75 Q317.7 53.3 318.15 45.2 L296.35 45.05 M265.45 26.75 L241.4 26.45 242.35 27.5 242.35 40.6 264.65 40.55 Q264.9 31.5 265.45 26.75 M264.4 51.75 L264.55 44.7 242.35 44.4 242.35 63.6 264.3 63.55 264.4 51.75 M244.2 90.4 L242.35 90.4 242.35 107.6 258.3 107.55 263.3 107.55 264.35 107.55 264.35 90.7 252.95 90.55 244.2 90.4 M264.35 84.35 L264.3 67.7 242.35 67.4 242.35 86.6 248.8 86.6 264.35 86.55 264.35 84.35 M269.35 86.55 L283.35 86.5 291.35 86.55 291.2 68.0 269.55 67.8 269.35 84.25 269.35 86.55 M291.2 63.55 L291.35 54.75 291.05 45.0 269.45 44.8 269.6 63.55 283.85 63.5 291.2 63.55 M317.35 84.75 L317.45 68.2 296.35 68.05 296.35 86.6 317.35 86.75 317.35 84.75 M296.35 91.05 L296.35 107.6 317.35 107.75 317.35 91.2 296.35 91.05 M269.35 90.8 L269.25 107.55 283.85 107.5 291.35 107.55 291.35 91.0 269.35 90.8 M216.45 40.7 L236.95 40.65 236.95 39.4 Q237.0 30.75 239.35 26.4 L215.0 26.0 Q216.0 29.45 216.45 40.7 M213.15 26.0 L189.85 25.55 Q191.75 30.85 191.8 39.3 L191.55 53.25 191.5 55.5 191.65 61.35 191.7 70.95 191.65 76.7 191.5 87.35 191.3 145.75 264.0 145.55 266.0 145.55 265.4 143.75 Q264.2 139.6 264.0 133.95 L264.0 133.7 263.85 133.7 242.35 133.4 242.35 142.25 239.85 143.5 Q237.75 139.6 237.2 133.3 L216.3 132.95 216.25 143.5 Q215.0 144.25 214.0 144.5 211.65 140.0 211.25 132.85 L196.5 132.5 196.5 131.0 198.0 129.75 211.15 129.7 Q211.7 119.05 211.5 114.0 L211.5 110.8 197.5 110.5 197.5 109.0 199.0 107.75 211.5 107.7 211.5 89.85 196.5 89.5 196.5 88.0 198.0 86.75 211.5 86.7 211.5 84.35 211.45 80.85 211.45 76.2 211.4 66.8 197.5 66.5 197.5 65.0 199.0 63.75 211.45 63.7 211.55 53.25 211.75 43.8 198.5 43.5 198.5 42.0 200.0 40.75 211.85 40.75 Q212.3 29.4 213.15 26.0 M216.55 43.9 L216.75 63.7 237.2 63.65 Q237.2 58.25 237.35 54.5 L237.0 44.3 216.55 43.9 M216.55 80.75 L216.5 84.25 216.5 86.7 237.35 86.65 237.35 86.05 237.35 84.5 237.3 79.55 237.2 67.3 216.7 66.9 216.65 75.5 216.55 80.75 M216.5 89.95 L216.4 107.7 237.35 107.65 237.35 90.3 216.5 89.95 M237.35 111.3 L216.4 110.9 216.3 129.7 237.0 129.65 236.95 128.7 Q237.5 118.15 237.35 113.75 L237.35 111.3 M242.35 129.6 L258.95 129.55 264.05 129.55 264.15 127.15 Q264.45 119.25 264.35 115.5 L264.35 111.7 262.75 111.7 257.65 111.6 242.35 111.4 242.35 129.6 M241.85 149.5 Q245.1 149.5 244.35 182.25 L244.1 214.5 Q242.85 215.25 241.85 215.5 239.35 205.8 239.35 182.35 239.15 172.6 239.4 164.75 239.8 149.5 241.85 149.5 M317.35 112.2 L296.35 112.05 296.35 129.6 316.95 129.75 316.95 129.7 Q317.5 119.15 317.35 114.75 L317.35 112.2 M291.35 112.0 L269.25 111.8 269.2 129.55 283.85 129.5 291.2 129.55 291.35 118.5 291.35 112.0 M291.0 134.0 L271.1 133.8 269.15 133.8 269.1 145.55 270.85 145.55 283.35 145.5 292.1 145.55 Q291.0 140.95 290.95 134.6 L291.0 134.0 M103.25 18.0 Q95.05 18.0 91.95 26.5 90.4 30.8 90.5 35.1 90.5 40.25 90.95 41.5 92.65 46.0 99.4 46.0 103.6 46.0 109.5 36.25 L114.5 26.5 Q114.5 24.05 110.45 21.05 106.45 18.0 103.25 18.0 M117.0 18.5 Q119.5 22.4 119.5 26.75 119.5 28.1 118.05 31.9 116.4 36.3 114.0 40.25 107.25 51.5 99.5 51.5 88.25 51.5 85.75 43.25 84.95 40.65 85.15 37.6 L85.5 35.0 Q85.5 28.95 89.25 22.25 94.7 12.5 105.0 12.5 113.15 12.5 117.0 18.5 M160.5 162.9 L160.5 149.25 157.5 149.75 157.25 151.5 155.55 151.65 154.0 152.5 152.2 151.9 151.75 151.25 148.5 151.0 148.35 151.0 Q145.75 151.05 142.05 152.95 136.85 155.5 129.55 161.65 116.2 172.85 113.0 182.5 L116.05 183.55 Q117.65 184.2 118.5 185.5 115.9 190.95 110.05 192.0 L105.1 192.7 Q102.2 193.25 100.25 194.5 98.15 195.8 95.75 199.15 L92.25 204.25 84.5 214.6 Q81.5 219.35 81.5 224.5 81.5 225.45 87.5 232.45 L93.5 239.5 84.25 245.75 81.0 247.8 Q78.5 249.6 76.55 251.4 68.5 258.35 68.5 264.0 68.5 266.2 70.15 271.8 72.3 279.3 75.7 285.05 86.1 302.5 103.0 296.0 L103.25 296.45 103.5 298.25 Q103.5 302.0 97.5 302.0 99.75 307.7 104.7 311.95 L105.9 312.9 109.65 315.35 Q113.25 317.25 117.45 318.2 119.6 313.2 123.3 305.35 L125.2 301.35 131.65 288.0 133.95 283.35 Q140.45 270.2 145.9 260.0 154.2 244.3 160.0 235.5 L161.35 236.05 161.85 235.7 Q161.2 233.8 160.8 231.5 L160.3 231.5 160.3 227.6 160.25 226.65 Q160.1 224.7 160.1 222.6 L160.35 216.6 160.5 206.5 160.5 174.1 160.5 162.9" fill="#000000" fill-rule="evenodd" stroke="none"/>
      <path d="M148.35 399.8 L148.4 396.25 148.5 371.75 Q148.7 363.05 148.5 354.55 148.3 345.1 147.55 340.9 L157.25 341.05 Q155.45 345.0 155.85 352.05 156.2 358.1 157.5 369.5 157.5 382.15 157.65 385.65 157.9 391.2 158.6 395.5 159.05 398.1 159.65 400.25 L157.1 400.35 153.65 400.35 149.5 400.05 148.35 399.8 M395.85 400.35 L396.4 399.05 396.5 398.75 399.0 391.95 400.0 391.45 405.25 391.55 409.35 391.6 414.75 391.7 416.35 391.75 417.05 391.75 418.1 391.75 503.15 392.85 546.8 393.1 Q547.3 396.85 548.15 400.05 L548.2 400.2 547.35 400.25 543.7 400.35 Q520.15 400.85 395.45 401.35 L395.6 400.95 395.85 400.35 M551.15 370.85 L549.2 370.8 546.25 370.8 543.3 370.75 503.25 370.5 502.5 370.5 502.1 370.5 501.7 370.5 501.3 370.5 500.9 370.5 500.05 370.5 499.65 370.5 499.2 370.5 498.8 370.5 498.35 370.5 401.0 370.75 Q402.05 367.9 404.85 362.6 409.0 354.8 409.35 352.6 L411.55 352.65 544.3 354.25 546.35 354.25 549.25 354.25 551.15 354.25 551.15 370.85 M552.15 39.05 L551.95 39.05 547.9 39.0 485.85 38.5 399.55 38.75 399.65 21.9 Q399.6 8.35 398.2 -1.45 L397.9 -3.4 398.85 -4.25 475.35 -4.5 Q552.1 -4.0 552.85 -3.25 553.35 -4.6 553.35 -2.1 553.35 -0.55 552.9 -0.2 L551.85 0.25 551.55 0.25 Q553.0 5.25 552.35 19.35 L552.15 39.05 M395.1 231.65 Q395.6 233.8 396.4 235.6 L364.85 235.5 165.5 235.5 165.5 221.55 214.95 222.25 221.25 222.35 Q309.45 223.45 394.1 223.25 394.2 228.0 395.1 231.65 M103.25 18.0 Q106.45 18.0 110.45 21.05 114.5 24.05 114.5 26.5 L109.5 36.25 Q103.6 46.0 99.4 46.0 92.65 46.0 90.95 41.5 90.5 40.25 90.5 35.1 90.4 30.8 91.95 26.5 95.05 18.0 103.25 18.0" fill="#876b01" fill-rule="evenodd" stroke="none"/>
      <path d="M160.2 98.65 L160.25 98.35 160.5 98.75 160.2 98.65 M156.0 145.25 L155.45 145.5 155.45 145.2 156.0 145.25 M159.85 227.15 L160.25 226.65 160.3 227.6 159.85 227.15 M160.5 174.1 L160.5 175.65 159.85 174.25 160.5 174.1" fill="#97f96c" fill-rule="evenodd" stroke="none"/>
      <path d="M391.45 404.8 L391.75 405.15 391.7 405.15 391.6 405.1 Q391.4 405.8 391.4 404.75 L391.45 404.8 M551.35 236.35 L548.2 236.3 546.35 236.3 515.0 236.05 514.95 236.05 399.1 235.6 399.15 231.65 399.35 113.85 Q399.75 73.0 399.35 52.75 L399.55 41.6 439.55 42.35 Q432.2 49.55 418.35 85.0 412.6 99.75 407.1 115.95 402.35 129.85 402.35 130.75 402.35 133.25 402.6 133.0 L405.35 133.5 Q406.7 133.5 413.5 114.15 L422.1 89.75 Q424.65 83.75 435.6 62.85 445.35 44.25 445.35 43.25 L445.35 43.05 445.35 42.45 484.8 42.95 Q476.7 56.8 460.05 92.85 444.5 126.5 441.25 137.65 L403.85 137.75 402.35 139.0 402.35 140.5 440.35 141.3 440.4 141.3 440.35 141.95 440.35 142.0 Q440.35 142.95 442.85 145.5 L445.9 141.4 Q497.3 142.25 546.35 142.3 L551.45 142.3 551.5 180.95 546.25 180.9 495.85 180.5 405.85 180.75 404.35 182.0 404.35 183.5 427.1 183.95 Q424.2 188.0 415.35 203.5 403.35 224.5 403.35 226.35 403.35 228.05 404.05 228.7 404.4 229.0 405.85 229.5 412.35 222.1 419.45 206.85 427.3 190.05 431.35 184.5 L431.2 184.1 431.35 184.05 477.5 184.75 Q473.0 190.85 468.1 203.75 465.35 210.95 460.45 219.65 456.35 226.85 456.35 227.35 456.35 229.05 457.05 229.7 457.4 230.0 458.85 230.5 465.8 224.15 475.1 204.5 482.4 189.1 483.25 184.8 L528.2 185.2 Q524.85 190.45 518.9 206.0 510.35 228.2 510.35 230.75 L510.4 232.15 Q510.45 232.85 510.6 232.25 L511.3 233.15 513.35 233.5 515.65 233.75 516.15 232.2 522.6 210.75 Q523.4 208.3 528.65 196.7 533.35 186.2 533.35 185.25 L533.35 185.2 546.25 185.25 550.2 185.25 550.55 185.25 551.5 185.3 551.35 220.6 551.35 236.35 M551.45 138.1 L546.35 138.05 Q527.7 137.75 494.85 137.55 L486.85 137.5 448.25 137.65 Q452.65 130.0 455.8 120.2 L459.7 107.3 Q462.1 99.6 464.6 94.0 L478.8 65.5 Q488.2 46.8 489.25 43.0 L528.35 43.25 Q523.2 51.2 509.0 84.4 492.35 123.45 492.35 134.75 492.35 136.4 493.05 136.9 L494.85 137.5 Q500.6 130.0 504.3 115.9 L507.65 103.5 510.6 103.6 511.3 103.6 545.55 104.35 546.6 104.4 548.55 104.45 549.55 104.45 549.7 104.45 551.25 104.5 551.4 130.0 551.45 138.1 M550.65 64.5 L547.15 64.5 Q525.95 64.55 523.25 64.7 L523.2 64.7 523.25 64.6 Q531.35 47.05 531.35 45.6 531.35 43.85 530.85 43.3 L530.85 43.25 548.1 43.3 549.7 43.3 Q550.25 49.2 550.65 64.5" fill="#ba9501" fill-rule="evenodd" stroke="none"/>
      <path d="M551.2 325.35 L549.35 325.3 546.35 325.3 Q495.05 324.85 344.35 324.5 L120.25 324.5 120.4 324.25 123.55 318.95 Q131.25 305.6 142.4 282.9 L145.15 277.2 149.75 267.65 Q161.95 242.1 162.5 238.55 L222.45 239.05 227.75 239.1 Q387.75 240.4 546.35 240.5 L548.95 240.5 551.35 240.5 551.3 257.25 550.9 257.25 546.95 257.2 546.35 257.2 Q496.45 256.8 369.85 256.5 L163.0 256.5 Q163.0 256.75 160.5 258.0 L160.5 259.5 229.55 260.1 234.7 260.15 239.15 260.2 245.4 260.25 252.2 260.3 Q399.85 261.4 546.35 261.5 L549.6 261.5 551.3 261.5 551.25 282.25 550.5 282.25 395.9 281.55 395.75 281.55 381.55 281.55 380.0 281.55 152.0 281.5 Q152.0 281.75 149.5 283.0 L149.5 284.5 200.65 284.95 212.75 285.05 220.6 285.1 Q384.15 286.4 546.35 286.5 L549.55 286.5 551.25 286.5 551.25 308.3 549.45 308.25 546.35 308.25 Q495.05 307.8 357.35 307.5 L140.0 307.5 Q140.0 307.75 137.5 309.0 L137.5 310.5 146.0 310.6 154.0 310.65 188.55 310.95 198.6 311.05 Q373.2 312.4 546.35 312.5 L549.4 312.5 551.25 312.5 551.2 325.35 M551.25 100.55 L551.25 100.6 549.75 100.55 547.15 100.5 547.1 100.5 546.6 100.5 546.35 100.5 508.85 100.75 508.7 100.9 508.45 100.6 510.85 92.5 Q513.35 86.15 521.9 67.55 L525.45 67.65 545.6 68.15 547.6 68.2 549.65 68.25 550.55 68.3 550.75 68.3 551.25 100.55" fill="#a08001" fill-rule="evenodd" stroke="none"/>
      <path d="M131.35 402.0 L131.35 400.35 131.4 398.25 131.5 372.75 Q131.7 364.0 131.45 355.5 131.2 344.6 130.25 340.7 L144.4 340.85 Q143.7 344.85 143.5 353.5 143.3 361.7 143.5 371.85 143.5 385.8 143.65 389.55 L143.7 390.4 143.75 390.75 143.95 394.25 144.0 394.85 144.0 394.9 144.1 395.65 144.3 397.5 144.7 400.35 144.95 402.0 145.0 402.3 139.5 402.35 131.35 402.0 M148.35 402.0 L148.35 399.8 149.5 400.05 149.5 400.35 Q149.3 401.6 148.35 402.0 M393.6 405.3 L393.85 404.85 393.85 404.8 395.25 401.75 395.45 401.35 Q520.15 400.85 543.7 400.35 L547.35 400.25 548.2 400.2 548.15 400.05 Q547.3 396.85 546.8 393.1 L551.1 393.1 551.1 399.65 551.95 400.6 Q553.35 402.25 553.35 402.85 553.35 404.5 552.85 405.1 L551.95 405.25 Q544.3 405.9 472.35 406.35 L431.3 406.0 Q400.45 405.65 393.6 405.3 M551.1 388.7 L549.15 388.65 545.1 388.65 501.7 388.35 500.5 388.35 499.85 388.35 499.2 388.35 498.55 388.35 497.85 388.35 400.25 388.6 400.35 380.1 400.4 373.6 Q474.85 374.95 546.1 375.25 L551.15 375.25 551.1 388.7 M551.15 349.9 L549.25 349.85 546.35 349.85 543.15 349.8 502.95 349.5 502.55 349.5 502.15 349.5 501.75 349.5 501.35 349.5 500.9 349.5 500.5 349.5 500.05 349.5 499.65 349.5 499.2 349.5 498.75 349.5 498.3 349.5 497.85 349.5 409.35 349.75 409.35 329.25 546.35 329.5 549.3 329.5 551.2 329.5 551.15 349.9 M405.25 329.25 Q404.4 332.7 404.35 338.6 391.15 337.95 261.35 337.5 L160.4 337.7 160.0 337.5 159.8 337.7 146.45 337.7 146.0 337.5 Q145.75 337.5 145.55 337.7 L123.65 337.75 120.5 337.75 120.5 334.25 120.6 333.3 Q120.95 329.5 120.35 327.55 263.25 328.8 405.25 329.25" fill="#6d5701" fill-rule="evenodd" stroke="none"/>
      <path d="M160.5 126.85 L160.5 144.05 Q158.05 144.45 156.0 145.25 L155.45 145.2 Q156.55 134.15 160.5 126.85 M109.65 315.35 Q114.6 314.55 119.3 310.05 121.9 307.55 123.2 305.3 124.5 303.0 124.5 301.0 124.5 297.6 121.05 295.15 118.95 293.65 113.5 291.5 107.95 289.35 105.95 288.0 102.5 285.7 102.5 282.5 102.5 279.4 104.6 272.75 106.75 265.95 108.5 263.75 109.85 264.75 112.55 268.4 115.95 272.95 117.9 275.05 124.8 282.3 133.95 283.35 L131.65 288.0 125.2 301.35 123.3 305.35 Q119.6 313.2 117.45 318.2 113.25 317.25 109.65 315.35 M145.9 260.0 Q143.5 255.55 143.5 253.35 143.5 251.2 143.95 249.15 144.65 245.85 146.45 242.7 L147.7 240.75 Q148.95 239.0 156.1 231.35 L157.0 230.35 159.85 227.15 160.3 227.6 160.3 231.5 160.8 231.5 Q161.2 233.8 161.85 235.7 L161.35 236.05 160.0 235.5 Q154.2 244.3 145.9 260.0 M159.85 174.25 Q158.5 171.25 158.5 169.35 158.5 166.35 160.5 162.9 L160.5 174.1 159.85 174.25" fill="#38ab07" fill-rule="evenodd" stroke="none"/>
      <path d="M415.75 321.0 L415.9 320.8 418.35 317.75 397.8 309.3 Q387.35 303.95 387.35 297.75 387.35 294.35 389.85 289.05 392.35 283.7 392.35 282.75 L392.1 272.3 Q391.3 266.55 387.6 260.25 386.85 260.7 386.85 261.25 L386.75 261.95 378.85 262.5 Q371.8 262.5 370.4 260.9 369.95 260.35 370.1 259.7 L370.35 259.0 Q370.35 256.7 373.35 253.7 376.35 250.75 376.35 249.6 376.35 247.6 374.6 246.25 373.0 245.0 370.75 245.0 363.75 245.0 358.6 250.25 L355.4 253.85 Q353.9 255.5 352.85 255.5 349.65 255.5 349.4 254.9 349.6 254.0 349.3 253.5 348.05 251.5 328.85 251.5 L328.05 251.45 326.85 251.5 326.15 250.75 325.6 250.25 Q325.4 251.0 325.4 249.8 L322.25 246.15 Q317.7 240.75 314.85 240.75 305.5 240.75 300.65 247.2 299.5 248.65 297.8 251.85 296.6 254.2 295.85 254.5 293.1 253.6 292.95 252.5 L293.3 250.75 Q293.2 248.8 278.85 247.5 277.0 247.3 270.55 244.7 264.95 242.4 256.85 242.5 248.2 242.65 236.6 237.35 L229.15 233.7 Q225.75 232.0 224.75 232.0 221.05 232.0 212.7 236.75 204.35 241.5 201.85 241.5 199.3 241.5 195.25 240.15 L190.85 238.75 Q178.25 238.75 172.3 243.1 170.7 244.25 169.5 246.15 L169.5 246.25 169.1 247.65 Q168.6 248.5 167.0 248.5 166.3 248.5 164.75 247.15 L163.25 245.75 Q153.1 245.75 148.35 251.6 144.95 255.9 143.65 264.75 L141.75 278.45 Q140.1 285.05 135.25 286.0 130.05 295.0 123.65 310.75 L123.5 311.0 121.4 316.25 Q117.5 326.1 117.5 328.0 117.5 329.65 118.3 330.85 L121.5 335.5 120.5 337.2 120.5 340.9 141.1 338.0 170.0 334.5 Q183.7 334.5 185.8 336.75 186.95 338.0 187.85 338.3 L195.85 339.0 Q209.35 339.0 213.65 337.5 215.85 336.7 216.85 335.5 225.5 332.85 257.85 332.5 270.0 332.5 274.75 336.25 277.45 338.35 278.55 338.85 281.25 340.0 286.25 340.0 293.85 340.0 304.85 337.75 315.8 335.5 319.85 335.5 331.3 335.5 336.0 338.9 L338.5 341.2 Q339.55 342.25 340.6 342.25 358.0 342.25 366.2 339.9 374.35 337.5 386.85 337.5 L425.0 338.75 425.05 338.05 425.35 332.5 Q425.35 332.15 419.85 328.6 415.9 326.0 414.8 324.45 414.35 323.8 414.35 323.35 414.35 322.65 415.75 321.0 M380.15 244.6 Q381.45 247.2 381.35 250.0 381.35 253.0 377.85 256.5 L377.35 257.25 382.35 257.0 Q381.7 251.5 385.35 251.5 390.35 251.5 394.35 266.6 396.35 274.2 397.35 282.0 397.35 284.3 394.85 290.35 392.35 296.45 392.35 297.35 392.35 300.55 397.2 303.35 400.45 305.25 407.85 307.85 416.25 310.8 418.5 311.9 423.35 314.2 423.35 316.5 423.35 317.65 422.45 319.2 421.2 321.35 420.6 323.25 L425.1 326.35 Q429.5 329.5 430.35 331.0 L430.35 342.25 Q429.85 343.5 427.35 343.5 L425.35 343.0 425.05 341.4 Q372.75 347.5 348.35 347.5 337.8 347.5 333.6 344.25 331.45 342.6 329.75 342.0 326.75 341.0 320.75 341.0 314.35 341.0 303.35 343.25 292.35 345.5 286.35 345.5 280.05 345.5 277.1 344.35 275.55 343.7 273.55 341.75 269.75 338.0 257.75 338.0 L238.6 338.65 Q222.65 339.65 217.6 341.75 210.75 344.5 195.35 344.5 L186.95 343.8 Q185.65 343.45 184.3 342.25 181.65 340.0 169.85 340.0 151.65 340.0 143.1 342.75 134.55 345.5 119.0 345.5 114.0 345.5 112.8 344.25 112.5 343.95 112.5 342.75 112.5 342.35 117.0 341.5 L115.25 337.9 Q113.15 336.7 112.55 333.5 L112.5 328.25 Q112.5 324.75 119.05 306.3 126.5 285.25 131.75 281.75 137.65 277.75 137.55 270.25 L137.15 264.3 Q136.9 260.9 137.5 259.0 139.75 254.95 148.0 248.05 157.1 240.5 161.5 240.5 L166.15 241.0 Q167.65 239.2 170.5 237.5 177.3 233.5 187.35 233.5 188.6 233.5 194.35 234.75 L201.35 236.0 Q204.55 236.0 212.0 231.25 219.45 226.5 224.85 226.5 228.4 226.5 235.55 231.1 243.05 235.9 245.85 236.25 251.15 236.9 270.6 241.2 286.6 244.75 296.35 244.75 298.15 244.75 299.1 243.3 L300.7 240.15 Q303.2 235.5 310.85 235.5 323.35 235.5 328.6 245.8 332.55 244.5 341.35 244.5 349.8 244.5 351.75 245.85 352.85 246.6 352.85 248.25 353.85 247.85 361.25 243.05 366.65 239.5 370.35 239.5 377.5 239.5 380.15 244.6 M496.35 374.75 L493.0 374.3 490.85 374.5 Q486.6 374.5 484.8 372.15 482.95 369.75 480.1 369.75 473.25 369.75 466.85 374.15 L462.45 377.15 Q460.2 378.5 458.35 378.5 455.65 378.5 454.45 377.5 L453.05 375.25 Q451.4 372.0 444.75 372.0 437.3 372.0 434.95 373.75 432.6 375.5 425.85 375.5 415.25 375.5 412.1 373.15 L410.35 371.5 Q409.4 370.75 407.6 370.75 L402.35 371.5 Q402.35 375.9 400.65 379.85 L398.85 383.05 397.85 384.5 396.45 386.45 Q395.35 388.15 395.35 389.35 395.35 390.95 396.85 393.15 398.35 395.4 398.35 396.5 L398.35 396.75 411.85 399.0 Q438.0 399.0 443.25 398.25 L471.85 395.0 478.85 394.5 488.5 395.15 Q489.5 395.3 492.75 396.5 498.0 398.4 514.85 398.5 L514.35 393.25 Q508.55 394.35 501.15 388.45 L497.05 384.8 Q494.35 381.95 494.35 380.0 L494.35 379.75 Q494.45 377.35 496.35 375.0 L496.85 374.75 496.35 374.75 M396.4 372.8 Q395.6 370.4 395.85 369.2 396.6 365.5 408.35 365.5 410.8 365.5 412.15 366.2 L414.15 367.75 Q417.1 370.0 425.75 370.0 433.1 370.0 435.65 368.25 438.2 366.5 445.35 366.5 454.9 366.5 456.55 368.45 457.55 369.65 457.35 373.0 459.7 372.0 467.05 368.0 474.1 364.5 477.85 364.5 482.55 364.5 489.05 367.65 L492.85 369.65 495.85 369.5 Q500.9 369.5 502.1 371.85 502.75 373.05 502.35 374.5 502.35 376.35 500.25 379.55 L500.1 379.75 500.3 379.9 Q503.75 382.4 510.55 385.55 516.65 389.35 520.35 397.75 L520.35 402.25 Q520.35 403.5 517.85 403.5 L517.25 403.4 515.15 404.0 Q509.4 405.5 500.35 405.5 495.3 405.5 490.35 402.75 485.4 400.0 478.35 400.0 435.1 404.5 412.35 404.5 406.9 404.5 398.35 402.0 390.35 399.65 390.35 398.75 390.35 397.35 391.6 396.9 391.15 396.0 390.85 394.9 L390.35 390.0 Q390.35 385.9 391.65 384.1 394.45 381.0 397.35 376.5 397.35 375.45 396.4 372.8" fill="#000000" fill-rule="evenodd" stroke="none"/>
      <path d="M123.65 310.75 L125.4 312.4 Q129.45 316.25 131.75 316.25 137.15 316.25 143.25 312.9 149.35 309.5 153.0 309.5 155.55 309.5 155.9 310.05 L156.7 311.25 Q159.75 313.0 181.85 313.0 193.4 313.0 205.9 305.75 L214.05 300.75 Q217.9 298.5 219.85 298.5 222.7 298.5 235.1 308.25 247.55 318.0 252.75 318.0 254.65 318.0 258.1 316.05 262.65 313.3 265.75 311.75 278.1 305.5 293.85 305.5 301.5 305.5 307.75 307.45 L318.4 311.75 Q333.3 318.0 355.35 318.0 360.55 318.0 367.0 315.25 373.45 312.5 376.35 312.5 381.35 312.5 415.75 321.0 414.35 322.65 414.35 323.35 414.35 323.8 414.8 324.45 415.9 326.0 419.85 328.6 425.35 332.15 425.35 332.5 L425.05 338.05 425.0 338.75 386.85 337.5 Q374.35 337.5 366.2 339.9 358.0 342.25 340.6 342.25 339.55 342.25 338.5 341.2 L336.0 338.9 Q331.3 335.5 319.85 335.5 315.8 335.5 304.85 337.75 293.85 340.0 286.25 340.0 281.25 340.0 278.55 338.85 277.45 338.35 274.75 336.25 270.0 332.5 257.85 332.5 225.5 332.85 216.85 335.5 215.85 336.7 213.65 337.5 209.35 339.0 195.85 339.0 L187.85 338.3 Q186.95 338.0 185.8 336.75 183.7 334.5 170.0 334.5 L141.1 338.0 120.5 340.9 120.5 337.2 121.5 335.5 118.3 330.85 Q117.5 329.65 117.5 328.0 117.5 326.1 121.4 316.25 L123.5 311.0 123.65 310.75 M358.9 286.3 Q364.25 284.5 368.35 284.5 372.6 284.5 379.0 287.55 384.5 290.2 385.35 291.5 L384.05 293.75 Q383.45 294.5 381.35 294.5 378.25 294.5 375.45 292.25 372.65 290.0 367.5 290.0 366.25 290.0 361.95 291.25 L356.35 292.5 Q354.75 292.5 354.3 292.15 L353.6 291.25 Q353.35 292.25 353.35 289.75 353.35 288.15 358.9 286.3 M397.85 384.5 L398.85 383.05 400.65 379.85 Q402.35 375.9 402.35 371.5 L407.6 370.75 Q409.4 370.75 410.35 371.5 L412.1 373.15 Q415.25 375.5 425.85 375.5 432.6 375.5 434.95 373.75 437.3 372.0 444.75 372.0 451.4 372.0 453.05 375.25 L454.45 377.5 Q455.65 378.5 458.35 378.5 460.2 378.5 462.45 377.15 L466.85 374.15 Q473.25 369.75 480.1 369.75 482.95 369.75 484.8 372.15 486.6 374.5 490.85 374.5 L493.0 374.3 496.35 374.75 496.35 375.0 Q494.45 377.35 494.35 379.75 L494.35 380.0 Q494.35 381.95 497.05 384.8 495.75 385.65 493.9 386.5 487.5 389.5 482.35 389.5 476.15 389.5 467.15 387.15 L459.1 384.75 Q454.75 384.75 449.25 386.15 443.75 387.5 434.85 387.5 419.15 387.5 417.55 386.5 415.9 385.5 400.35 385.5 L398.3 385.15 397.85 384.5 M503.3 352.9 L503.1 352.75 503.25 352.55 503.3 352.9 M248.35 269.5 Q243.8 269.5 242.65 268.25 242.35 267.95 242.35 266.75 242.35 266.1 254.7 263.25 L267.35 260.5 Q270.65 260.5 272.25 262.05 L275.2 265.5 Q280.8 270.5 301.85 270.5 306.0 270.5 309.95 272.3 312.95 273.7 313.35 274.5 312.05 276.4 309.1 276.95 L297.35 277.5 298.85 276.5 Q289.05 282.7 277.5 274.9 274.1 272.6 270.35 268.85 L267.1 265.75 Q263.3 265.75 257.9 267.65 252.55 269.5 248.35 269.5" fill="#eefbff" fill-rule="evenodd" stroke="none"/>
      <path d="M123.65 310.75 Q130.05 295.0 135.25 286.0 140.1 285.05 141.75 278.45 L143.65 264.75 Q144.95 255.9 148.35 251.6 153.1 245.75 163.25 245.75 L164.75 247.15 Q166.3 248.5 167.0 248.5 168.6 248.5 169.1 247.65 L169.5 246.25 169.5 246.15 Q170.7 244.25 172.3 243.1 178.25 238.75 190.85 238.75 L195.25 240.15 Q199.3 241.5 201.85 241.5 204.35 241.5 212.7 236.75 221.05 232.0 224.75 232.0 225.75 232.0 229.15 233.7 L236.6 237.35 Q248.2 242.65 256.85 242.5 264.95 242.4 270.55 244.7 277.0 247.3 278.85 247.5 293.2 248.8 293.3 250.75 L292.95 252.5 Q293.1 253.6 295.85 254.5 296.6 254.2 297.8 251.85 299.5 248.65 300.65 247.2 305.5 240.75 314.85 240.75 317.7 240.75 322.25 246.15 L325.4 249.8 Q325.4 251.0 325.6 250.25 L326.15 250.75 326.85 251.5 328.05 251.45 328.85 251.5 Q348.05 251.5 349.3 253.5 349.6 254.0 349.4 254.9 349.65 255.5 352.85 255.5 353.9 255.5 355.4 253.85 L358.6 250.25 Q363.75 245.0 370.75 245.0 373.0 245.0 374.6 246.25 376.35 247.6 376.35 249.6 376.35 250.75 373.35 253.7 370.35 256.7 370.35 259.0 L370.1 259.7 Q369.95 260.35 370.4 260.9 371.8 262.5 378.85 262.5 L386.75 261.95 386.85 261.25 Q386.85 260.7 387.6 260.25 391.3 266.55 392.1 272.3 L392.35 282.75 Q392.35 283.7 389.85 289.05 387.35 294.35 387.35 297.75 387.35 303.95 397.8 309.3 L418.35 317.75 415.9 320.8 415.75 321.0 Q381.35 312.5 376.35 312.5 373.45 312.5 367.0 315.25 360.55 318.0 355.35 318.0 333.3 318.0 318.4 311.75 L307.75 307.45 Q301.5 305.5 293.85 305.5 278.1 305.5 265.75 311.75 262.65 313.3 258.1 316.05 254.65 318.0 252.75 318.0 247.55 318.0 235.1 308.25 222.7 298.5 219.85 298.5 217.9 298.5 214.05 300.75 L205.9 305.75 Q193.4 313.0 181.85 313.0 159.75 313.0 156.7 311.25 L155.9 310.05 Q155.55 309.5 153.0 309.5 149.35 309.5 143.25 312.9 137.15 316.25 131.75 316.25 129.45 316.25 125.4 312.4 L123.65 310.75 M358.9 286.3 Q353.35 288.15 353.35 289.75 353.35 292.25 353.6 291.25 L354.3 292.15 Q354.75 292.5 356.35 292.5 L361.95 291.25 Q366.25 290.0 367.5 290.0 372.65 290.0 375.45 292.25 378.25 294.5 381.35 294.5 383.45 294.5 384.05 293.75 L385.35 291.5 Q384.5 290.2 379.0 287.55 372.6 284.5 368.35 284.5 364.25 284.5 358.9 286.3 M397.85 384.5 L398.3 385.15 400.35 385.5 Q415.9 385.5 417.55 386.5 419.15 387.5 434.85 387.5 443.75 387.5 449.25 386.15 454.75 384.75 459.1 384.75 L467.15 387.15 Q476.15 389.5 482.35 389.5 487.5 389.5 493.9 386.5 495.75 385.65 497.05 384.8 L501.15 388.45 Q508.55 394.35 514.35 393.25 L514.85 398.5 Q498.0 398.4 492.75 396.5 489.5 395.3 488.5 395.15 L478.85 394.5 471.85 395.0 443.25 398.25 Q438.0 399.0 411.85 399.0 L398.35 396.75 398.35 396.5 Q398.35 395.4 396.85 393.15 395.35 390.95 395.35 389.35 395.35 388.15 396.45 386.45 L397.85 384.5 M248.35 269.5 Q252.55 269.5 257.9 267.65 263.3 265.75 267.1 265.75 L270.35 268.85 Q274.1 272.6 277.5 274.9 289.05 282.7 298.85 276.5 L297.35 277.5 309.1 276.95 Q312.05 276.4 313.35 274.5 312.95 273.7 309.95 272.3 306.0 270.5 301.85 270.5 280.8 270.5 275.2 265.5 L272.25 262.05 Q270.65 260.5 267.35 260.5 L254.7 263.25 Q242.35 266.1 242.35 266.75 242.35 267.95 242.65 268.25 243.8 269.5 248.35 269.5" fill="#ffffff" fill-rule="evenodd" stroke="none"/>
    </g>
  </defs>
</svg>
