<?xml version="1.0" encoding="UTF-8" standalone="no"?>
<svg xmlns:xlink="http://www.w3.org/1999/xlink" height="244.35px" width="255.3px" xmlns="http://www.w3.org/2000/svg">
  <g transform="matrix(1, 0, 0, 1, 75.9, 228.3)">
    <use height="35.5" transform="matrix(1.0, 0.0, 0.0, 1.0, -16.75, -166.6)" width="56.5" xlink:href="#shape0"/>
  </g>
  <defs>
    <g id="shape0" transform="matrix(1, 0, 0, 1, 16.75, 166.6)">
      <path d="M19.3 -138.0 Q23.2 -138.6 24.85 -141.65 L28.2 -149.0 32.0 -159.1 -10.15 -157.55 -10.75 -157.6 -10.65 -157.4 Q-10.55 -144.55 -4.25 -136.0 L-4.25 -135.75 Q-4.35 -131.1 -8.0 -131.1 -13.25 -131.1 -15.5 -143.0 -16.65 -149.0 -16.75 -155.25 L-16.75 -160.85 Q-16.15 -164.55 -11.3 -164.6 -1.85 -166.6 33.5 -166.6 38.75 -166.6 39.75 -163.7 L39.75 -160.5 Q32.6 -134.1 23.5 -134.1 19.25 -134.1 19.25 -137.6 L19.3 -138.0" fill="#000000" fill-rule="evenodd" stroke="none"/>
      <path d="M-10.15 -157.55 L32.0 -159.1 28.2 -149.0 24.85 -141.65 Q23.2 -138.6 19.3 -138.0 7.35 -135.0 -1.4 -135.0 L-4.25 -135.0 -4.25 -135.75 -4.25 -136.0 Q-10.55 -144.55 -10.65 -157.4 L-10.15 -157.55" fill="#ffbbbb" fill-rule="evenodd" stroke="none"/>
    </g>
  </defs>
</svg>
