<?xml version="1.0" encoding="UTF-8" standalone="no"?>
<svg xmlns:xlink="http://www.w3.org/1999/xlink" height="244.35px" width="255.3px" xmlns="http://www.w3.org/2000/svg">
  <g transform="matrix(1, 0, 0, 1, 75.9, 228.3)">
    <use height="53.45" transform="matrix(1.0, 0.0, 0.0, 1.0, 2.1, -199.85)" width="39.3" xlink:href="#shape0"/>
  </g>
  <defs>
    <g id="shape0" transform="matrix(1, 0, 0, 1, -2.1, 199.85)">
      <path d="M37.25 -199.85 L37.25 -161.4 41.4 -161.4 41.4 -146.4 35.9 -146.4 35.9 -156.35 7.6 -156.35 7.6 -146.4 2.1 -146.4 2.1 -161.4 4.45 -161.4 Q8.25 -167.65 10.6 -177.75 12.9 -187.9 12.9 -199.85 L37.25 -199.85 M31.45 -194.85 L18.35 -194.85 Q17.95 -184.25 15.75 -175.65 13.5 -167.05 10.05 -161.4 L31.45 -161.4 31.45 -194.85" fill="#000000" fill-rule="evenodd" stroke="none"/>
      <path d="M31.45 -194.85 L31.45 -161.4 10.05 -161.4 Q13.5 -167.05 15.75 -175.65 17.95 -184.25 18.35 -194.85 L31.45 -194.85" fill="#ffffff" fill-rule="evenodd" stroke="none"/>
    </g>
  </defs>
</svg>
