<?xml version="1.0" encoding="UTF-8" standalone="no"?>
<svg xmlns:xlink="http://www.w3.org/1999/xlink" height="244.35px" width="255.3px" xmlns="http://www.w3.org/2000/svg">
  <g transform="matrix(1, 0, 0, 1, 75.9, 228.3)">
    <use height="23.55" transform="matrix(1.0, 0.0, 0.0, 1.0, -4.05, -157.05)" width="38.2" xlink:href="#shape0"/>
  </g>
  <defs>
    <g id="shape0" transform="matrix(1, 0, 0, 1, 4.05, 157.05)">
      <path d="M19.35 -138.2 L19.35 -138.45 Q19.35 -139.6 23.35 -144.85 27.5 -150.2 27.6 -150.9 7.5 -150.55 0.75 -151.65 1.95 -147.3 2.85 -136.5 L2.85 -136.2 2.85 -136.1 2.85 -135.9 2.8 -135.15 2.65 -134.75 Q2.35 -134.65 2.25 -134.1 2.4 -133.5 -0.6 -133.5 L-3.75 -134.1 -4.05 -144.3 -4.05 -150.95 Q-3.85 -152.95 -2.95 -153.85 L-2.85 -154.35 -2.75 -155.95 Q-2.5 -156.55 -1.1 -156.75 0.75 -157.05 15.3 -157.05 30.55 -157.05 33.5 -154.3 34.4 -153.4 34.05 -152.3 L33.45 -151.2 Q33.45 -146.85 31.05 -143.15 28.5 -139.35 22.35 -134.7 20.6 -135.3 20.2 -135.65 19.4 -136.4 19.35 -138.2" fill="#000000" fill-rule="evenodd" stroke="none"/>
      <path d="M2.8 -135.15 L2.85 -135.9 2.85 -136.1 2.85 -136.2 2.85 -136.5 Q1.95 -147.3 0.75 -151.65 7.5 -150.55 27.6 -150.9 27.5 -150.2 23.35 -144.85 19.35 -139.6 19.35 -138.45 L19.35 -138.2 19.35 -138.0 Q10.15 -135.7 2.8 -135.15" fill="#ffe6e6" fill-rule="evenodd" stroke="none"/>
    </g>
  </defs>
</svg>
