<?xml version="1.0" encoding="UTF-8" standalone="no"?>
<svg xmlns:xlink="http://www.w3.org/1999/xlink" height="244.35px" width="255.3px" xmlns="http://www.w3.org/2000/svg">
  <g transform="matrix(1, 0, 0, 1, 75.9, 228.3)">
    <use height="32.85" transform="matrix(1.0, 0.0, 0.0, 1.0, 0.9, -175.0)" width="33.55" xlink:href="#shape0"/>
  </g>
  <defs>
    <g id="shape0" transform="matrix(1, 0, 0, 1, -0.9, 175.0)">
      <path d="M1.75 -173.25 Q15.4 -175.85 32.45 -174.6 35.6 -156.55 33.8 -144.0 21.15 -141.2 3.1 -142.6 -0.5 -157.15 1.75 -173.25 M28.05 -170.1 L6.3 -169.15 7.25 -147.45 29.05 -148.45 28.05 -170.1" fill="#000000" fill-rule="evenodd" stroke="none"/>
      <path d="M28.05 -170.1 L29.05 -148.45 7.25 -147.45 6.3 -169.15 28.05 -170.1" fill="#ffc4c4" fill-rule="evenodd" stroke="none"/>
    </g>
  </defs>
</svg>
