<?xml version="1.0" encoding="UTF-8" standalone="no"?>
<svg xmlns:xlink="http://www.w3.org/1999/xlink" height="244.35px" width="255.3px" xmlns="http://www.w3.org/2000/svg">
  <g transform="matrix(1, 0, 0, 1, 75.9, 228.3)">
    <use height="39.25" transform="matrix(1.0, 0.0, 0.0, 1.0, -28.5, -180.6)" width="84.8" xlink:href="#shape0"/>
  </g>
  <defs>
    <g id="shape0" transform="matrix(1, 0, 0, 1, 28.5, 180.6)">
      <path d="M40.75 -169.3 Q50.2 -161.8 53.8 -152.1 L-26.0 -143.85 Q-17.5 -162.65 -4.65 -171.4 6.6 -179.1 19.5 -177.95 31.1 -177.0 40.75 -169.3" fill="#fec5c5" fill-rule="evenodd" stroke="none"/>
      <path d="M40.75 -169.3 Q31.1 -177.0 19.5 -177.95 6.6 -179.1 -4.65 -171.4 -17.5 -162.65 -26.0 -143.85 L53.8 -152.1 Q50.2 -161.8 40.75 -169.3" fill="none" stroke="#000000" stroke-linecap="round" stroke-linejoin="round" stroke-width="5.0"/>
    </g>
  </defs>
</svg>
