<?xml version="1.0" encoding="UTF-8" standalone="no"?>
<svg xmlns:xlink="http://www.w3.org/1999/xlink" height="244.35px" width="255.3px" xmlns="http://www.w3.org/2000/svg">
  <g transform="matrix(1, 0, 0, 1, 75.9, 228.3)">
    <use height="43.2" transform="matrix(1.0, 0.0, 0.0, 1.0, -14.85, -176.85)" width="63.1" xlink:href="#shape0"/>
  </g>
  <defs>
    <g id="shape0" transform="matrix(1, 0, 0, 1, 14.85, 176.85)">
      <path d="M-2.5 -135.0 L-2.15 -134.25 Q-7.9 -132.3 -10.4 -136.9 -13.2 -142.05 -14.05 -147.9 -15.95 -161.2 -13.2 -174.2 17.05 -178.65 47.35 -175.65 50.1 -159.6 44.35 -146.05 43.9 -144.95 42.7 -144.3 41.5 -143.65 40.2 -143.15 L39.4 -140.65 39.05 -140.65 Q38.55 -141.5 38.3 -142.45 L38.95 -144.45 Q41.7 -157.3 42.0 -170.8 L29.5 -170.2 Q10.4 -169.65 -8.8 -170.0 -10.15 -164.5 -10.05 -158.8 -9.9 -145.7 -2.5 -135.0" fill="#000000" fill-rule="evenodd" stroke="none"/>
      <path d="M38.95 -144.45 Q38.6 -144.3 38.55 -144.1 31.8 -141.55 24.9 -139.55 9.35 -135.0 -1.4 -135.0 L-2.5 -135.0 Q-9.9 -145.7 -10.05 -158.8 -10.15 -164.5 -8.8 -170.0 10.4 -169.65 29.5 -170.2 L42.0 -170.8 Q41.7 -157.3 38.95 -144.45" fill="#ffe6e6" fill-rule="evenodd" stroke="none"/>
    </g>
  </defs>
</svg>
