<?xml version="1.0" encoding="UTF-8" standalone="no"?>
<svg xmlns:xlink="http://www.w3.org/1999/xlink" height="278.95px" width="282.3px" xmlns="http://www.w3.org/2000/svg">
  <g transform="matrix(1, 0, 0, 1, 122.85, 260.35)">
    <use height="69.4" transform="matrix(1.0, 0.0, 0.0, 1.0, -60.05, -260.35)" width="135.25" xlink:href="#shape0"/>
  </g>
  <defs>
    <g id="shape0" transform="matrix(1, 0, 0, 1, 60.05, 260.35)">
      <path d="M8.25 -210.7 Q8.95 -211.35 8.95 -212.3 8.95 -213.3 8.25 -214.0 7.55 -214.7 6.6 -214.7 5.6 -214.7 4.9 -214.0 4.2 -213.3 4.25 -212.3 4.2 -211.35 4.9 -210.7 5.6 -210.0 6.6 -209.95 7.55 -210.0 8.25 -210.7 M11.1 -218.3 L9.5 -205.2 Q-31.2 -226.05 -58.55 -192.45 -53.65 -226.45 -38.95 -233.6 -24.25 -240.8 11.1 -218.3 M48.2 -203.3 L45.25 -209.8 Q48.6 -226.15 59.5 -223.8 66.5 -222.35 73.7 -202.95 L73.4 -196.4 Q63.0 -203.2 48.2 -203.3 M71.5 -205.25 Q70.85 -205.9 69.85 -205.9 68.85 -205.9 68.15 -205.25 67.5 -204.55 67.5 -203.55 67.5 -202.55 68.15 -201.9 68.85 -201.2 69.85 -201.2 70.85 -201.2 71.5 -201.9 72.2 -202.55 72.2 -203.55 72.2 -204.55 71.5 -205.25" fill="#ffffff" fill-rule="evenodd" stroke="none"/>
      <path d="M8.25 -210.7 Q7.55 -210.0 6.6 -209.95 5.6 -210.0 4.9 -210.7 4.2 -211.35 4.25 -212.3 4.2 -213.3 4.9 -214.0 5.6 -214.7 6.6 -214.7 7.55 -214.7 8.25 -214.0 8.95 -213.3 8.95 -212.3 8.95 -211.35 8.25 -210.7 M71.5 -205.25 Q72.2 -204.55 72.2 -203.55 72.2 -202.55 71.5 -201.9 70.85 -201.2 69.85 -201.2 68.85 -201.2 68.15 -201.9 67.5 -202.55 67.5 -203.55 67.5 -204.55 68.15 -205.25 68.85 -205.9 69.85 -205.9 70.85 -205.9 71.5 -205.25" fill="#000000" fill-rule="evenodd" stroke="none"/>
      <path d="M9.5 -205.2 Q-31.2 -226.05 -58.55 -192.45 -53.65 -226.45 -38.95 -233.6 -24.25 -240.8 11.1 -218.3 M47.9 -246.8 Q50.55 -241.25 60.65 -235.65 M48.2 -203.3 Q63.0 -203.2 73.4 -196.4 M73.7 -202.95 Q66.5 -222.35 59.5 -223.8 48.6 -226.15 45.25 -209.8 M-37.3 -244.75 Q-9.55 -248.2 -1.3 -258.85" fill="none" stroke="#000000" stroke-linecap="round" stroke-linejoin="round" stroke-width="3.0"/>
    </g>
  </defs>
</svg>
