<?xml version="1.0" encoding="UTF-8" standalone="no"?>
<svg xmlns:xlink="http://www.w3.org/1999/xlink" height="278.95px" width="282.3px" xmlns="http://www.w3.org/2000/svg">
  <g transform="matrix(1, 0, 0, 1, 122.85, 260.35)">
    <use height="76.6" transform="matrix(1.0, 0.0, 0.0, 1.0, -86.4, -219.65)" width="202.2" xlink:href="#shape0"/>
  </g>
  <defs>
    <g id="shape0" transform="matrix(1, 0, 0, 1, 86.4, 219.65)">
      <path d="M37.3 -200.35 L18.6 -166.45 -0.1 -200.35 3.75 -202.6 8.45 -194.25 28.75 -194.25 33.45 -202.6 37.3 -200.35 M76.9 -207.05 Q82.2 -202.2 84.4 -197.5 87.05 -192.05 87.05 -184.95 87.05 -178.65 84.4 -173.15 82.0 -168.05 76.9 -162.4 L74.65 -164.6 Q79.75 -170.1 81.75 -174.55 84.0 -179.45 84.0 -184.95 84.0 -191.45 81.75 -196.1 79.75 -200.35 74.65 -205.05 L76.9 -207.05 M114.6 -213.5 L114.6 -194.9 Q115.8 -182.2 115.8 -169.4 L115.8 -148.1 Q115.2 -144.95 110.5 -143.95 L92.1 -143.05 Q42.15 -144.35 -12.9 -144.35 -80.55 -144.95 -81.45 -145.85 L-81.75 -147.5 -81.75 -155.45 Q-81.75 -159.05 -84.3 -167.0 -85.0 -170.6 -85.4 -177.95 -85.85 -185.7 -86.4 -189.05 L-86.4 -217.25 -84.2 -217.3 -80.7 -216.95 Q-78.9 -216.95 -77.8 -218.05 L-76.35 -219.35 Q-75.3 -219.65 1.65 -219.65 113.55 -217.85 114.15 -216.95 114.6 -216.35 114.6 -213.5 M109.95 -170.15 L108.75 -212.0 Q-32.15 -212.9 -54.35 -213.15 L-80.55 -213.95 Q-80.65 -203.8 -78.3 -181.95 -75.9 -159.75 -75.9 -150.5 -10.5 -150.65 109.95 -152.0 L109.95 -170.15 M53.15 -181.05 L53.15 -189.8 61.85 -189.8 61.85 -181.05 53.15 -181.05 M26.75 -190.0 L10.5 -190.0 18.6 -175.6 26.75 -190.0 M-41.6 -204.5 L-37.1 -204.5 -37.1 -200.7 -40.85 -200.7 Q-45.0 -200.7 -46.85 -199.5 -48.75 -198.25 -48.75 -196.0 -48.75 -191.6 -41.15 -191.6 L-37.4 -191.6 -37.4 -187.85 Q-40.75 -187.85 -43.25 -186.85 -45.75 -185.85 -47.7 -183.3 -49.7 -180.7 -49.7 -177.45 -49.7 -175.05 -48.25 -173.1 -46.85 -171.2 -42.15 -170.7 -39.1 -170.35 -37.65 -169.55 -36.25 -168.8 -35.3 -167.2 -34.35 -165.65 -34.35 -163.8 -34.35 -160.45 -37.1 -158.1 -39.9 -155.75 -44.6 -155.7 L-43.4 -159.95 Q-40.9 -160.1 -39.85 -161.25 -38.8 -162.35 -38.8 -163.55 -38.8 -166.1 -43.15 -166.6 -54.35 -167.8 -54.35 -177.3 -54.35 -181.2 -52.05 -184.3 -49.7 -187.4 -46.1 -188.95 -49.7 -189.4 -51.35 -191.65 -53.0 -193.95 -53.0 -196.3 -53.0 -199.6 -50.05 -202.05 -47.2 -204.5 -41.6 -204.5 M-16.15 -181.05 L-24.85 -181.05 -24.85 -189.8 -16.15 -189.8 -16.15 -181.05" fill="#000000" fill-rule="evenodd" stroke="none"/>
      <path d="M76.9 -207.05 L74.65 -205.05 Q79.75 -200.35 81.75 -196.1 84.0 -191.45 84.0 -184.95 84.0 -179.45 81.75 -174.55 79.75 -170.1 74.65 -164.6 L76.9 -162.4 Q82.0 -168.05 84.4 -173.15 87.05 -178.65 87.05 -184.95 87.05 -192.05 84.4 -197.5 82.2 -202.2 76.9 -207.05 M37.3 -200.35 L33.45 -202.6 28.75 -194.25 8.45 -194.25 3.75 -202.6 -0.1 -200.35 18.6 -166.45 37.3 -200.35 M-16.15 -181.05 L-16.15 -189.8 -24.85 -189.8 -24.85 -181.05 -16.15 -181.05 M-41.6 -204.5 Q-47.2 -204.5 -50.05 -202.05 -53.0 -199.6 -53.0 -196.3 -53.0 -193.95 -51.35 -191.65 -49.7 -189.4 -46.1 -188.95 -49.7 -187.4 -52.05 -184.3 -54.35 -181.2 -54.35 -177.3 -54.35 -167.8 -43.15 -166.6 -38.8 -166.1 -38.8 -163.55 -38.8 -162.35 -39.85 -161.25 -40.9 -160.1 -43.4 -159.95 L-44.6 -155.7 Q-39.9 -155.75 -37.1 -158.1 -34.35 -160.45 -34.35 -163.8 -34.35 -165.65 -35.3 -167.2 -36.25 -168.8 -37.65 -169.55 -39.1 -170.35 -42.15 -170.7 -46.85 -171.2 -48.25 -173.1 -49.7 -175.05 -49.7 -177.45 -49.7 -180.7 -47.7 -183.3 -45.75 -185.85 -43.25 -186.85 -40.75 -187.85 -37.4 -187.85 L-37.4 -191.6 -41.15 -191.6 Q-48.75 -191.6 -48.75 -196.0 -48.75 -198.25 -46.85 -199.5 -45.0 -200.7 -40.85 -200.7 L-37.1 -200.7 -37.1 -204.5 -41.6 -204.5 M26.75 -190.0 L18.6 -175.6 10.5 -190.0 26.75 -190.0 M53.15 -181.05 L61.85 -181.05 61.85 -189.8 53.15 -189.8 53.15 -181.05 M109.95 -170.15 L109.95 -152.0 Q-10.5 -150.65 -75.9 -150.5 -75.9 -159.75 -78.3 -181.95 -80.65 -203.8 -80.55 -213.95 L-54.35 -213.15 Q-32.15 -212.9 108.75 -212.0 L109.95 -170.15" fill="#ffffff" fill-rule="evenodd" stroke="none"/>
    </g>
  </defs>
</svg>
