<?xml version="1.0" encoding="UTF-8" standalone="no"?>
<svg xmlns:xlink="http://www.w3.org/1999/xlink" height="278.95px" width="282.3px" xmlns="http://www.w3.org/2000/svg">
  <g transform="matrix(1, 0, 0, 1, 122.85, 260.35)">
    <use height="46.7" transform="matrix(1.0, 0.0, 0.0, 1.0, -60.35, -238.85)" width="149.95" xlink:href="#shape0"/>
  </g>
  <defs>
    <g id="shape0" transform="matrix(1, 0, 0, 1, 60.35, 238.85)">
      <path d="M47.35 -218.9 Q47.6 -217.45 48.3 -216.15 50.35 -212.5 55.1 -212.5 65.05 -212.5 65.05 -222.6 64.75 -231.4 59.35 -232.85 61.6 -233.65 64.1 -233.65 77.9 -233.65 82.55 -223.8 84.75 -219.05 84.75 -210.35 L82.95 -197.0 Q77.6 -197.4 65.55 -197.4 L45.9 -197.25 Q44.4 -205.4 44.4 -209.75 45.7 -214.9 47.35 -218.9 M-53.5 -213.3 Q-52.75 -212.05 -51.85 -211.5 -50.2 -210.45 -46.0 -210.45 -35.65 -210.45 -35.65 -223.85 L-36.0 -228.05 Q-36.6 -230.05 -38.0 -231.0 L-21.75 -231.8 Q-11.15 -231.8 -9.8 -214.35 -9.5 -210.65 -9.55 -201.1 L-9.4 -195.45 -33.3 -196.3 -54.45 -196.2 Q-54.45 -207.1 -53.7 -213.4 L-53.5 -213.3" fill="#ffffff" fill-rule="evenodd" stroke="none"/>
      <path d="M48.65 -221.8 L49.5 -221.9 48.85 -222.25 48.65 -221.8 M47.35 -218.9 Q45.7 -214.9 44.4 -209.75 44.4 -205.4 45.9 -197.25 L65.55 -197.4 Q77.6 -197.4 82.95 -197.0 L84.75 -210.35 Q84.75 -219.05 82.55 -223.8 77.9 -233.65 64.1 -233.65 61.6 -233.65 59.35 -232.85 64.75 -231.4 65.05 -222.6 65.05 -212.5 55.1 -212.5 50.35 -212.5 48.3 -216.15 47.6 -217.45 47.35 -218.9 M64.0 -238.85 Q82.2 -238.85 87.6 -225.45 89.35 -221.15 89.6 -215.7 L89.5 -210.25 Q89.5 -200.85 87.55 -196.5 L87.6 -195.15 87.75 -193.75 Q87.65 -193.25 86.2 -193.0 83.65 -192.65 65.55 -192.65 L44.2 -193.65 43.45 -193.6 40.85 -194.1 39.65 -209.65 Q46.4 -238.85 64.0 -238.85 M-56.35 -222.2 Q-49.05 -236.8 -30.45 -236.8 -10.95 -236.8 -6.85 -223.15 -5.55 -218.9 -5.95 -213.55 L-6.6 -208.65 Q-6.6 -199.15 -6.85 -193.45 L-7.55 -193.05 -7.65 -192.7 Q-8.25 -192.2 -12.1 -192.15 -17.8 -192.05 -59.2 -193.45 L-59.2 -194.85 Q-60.85 -197.45 -60.15 -205.0 -60.15 -214.55 -56.35 -222.2 M-53.7 -213.4 Q-54.45 -207.1 -54.45 -196.2 L-33.3 -196.3 -9.4 -195.45 -9.55 -201.1 Q-9.5 -210.65 -9.8 -214.35 -11.15 -231.8 -21.75 -231.8 L-38.0 -231.0 Q-36.6 -230.05 -36.0 -228.05 L-35.65 -223.85 Q-35.65 -210.45 -46.0 -210.45 -50.2 -210.45 -51.85 -211.5 -52.75 -212.05 -53.5 -213.3 L-53.5 -214.8 -53.7 -213.4" fill="#000000" fill-rule="evenodd" stroke="none"/>
    </g>
  </defs>
</svg>
