<?xml version="1.0" encoding="UTF-8" standalone="no"?>
<svg xmlns:xlink="http://www.w3.org/1999/xlink" height="278.95px" width="282.3px" xmlns="http://www.w3.org/2000/svg">
  <g transform="matrix(1, 0, 0, 1, 122.85, 260.35)">
    <use height="78.8" transform="matrix(1.0, 0.0, 0.0, 1.0, -58.15, -237.0)" width="143.5" xlink:href="#shape0"/>
  </g>
  <defs>
    <g id="shape0" transform="matrix(1, 0, 0, 1, 58.15, 237.0)">
      <path d="M10.15 -202.9 L10.05 -201.75 Q10.3 -201.45 9.05 -201.3 -10.0 -211.45 -20.35 -215.65 -26.0 -218.0 -34.9 -222.65 -43.9 -226.4 -57.9 -227.45 L-58.15 -228.2 Q-58.3 -229.35 -56.05 -229.55 -48.05 -230.5 -18.4 -217.35 -7.65 -212.6 1.45 -207.95 10.05 -203.55 10.15 -202.9 M30.15 -201.7 L31.25 -201.75 Q31.4 -202.05 32.4 -202.55 33.85 -203.2 34.25 -203.9 35.45 -205.9 35.95 -206.15 36.5 -206.2 36.6 -205.6 36.7 -204.7 35.4 -203.0 L33.9 -201.6 36.25 -201.2 Q36.4 -201.95 36.55 -200.7 36.7 -199.4 34.2 -199.1 29.15 -198.55 27.65 -199.15 27.15 -199.4 27.05 -200.15 26.9 -201.3 30.15 -201.7 M33.65 -205.15 Q33.2 -204.35 31.5 -202.9 30.8 -203.2 30.75 -203.9 L31.3 -205.05 Q30.85 -205.15 30.55 -205.35 L30.4 -206.1 Q30.3 -206.7 50.6 -217.4 74.15 -229.85 83.95 -237.0 85.25 -236.6 85.35 -235.75 85.55 -233.95 74.35 -227.2 L62.7 -220.6 61.7 -220.05 Q65.95 -221.25 69.5 -222.75 73.9 -224.7 76.6 -226.6 77.85 -226.75 78.0 -225.35 L77.95 -225.0 Q78.35 -224.35 78.3 -222.85 78.75 -218.9 73.1 -211.5 66.45 -202.8 58.05 -201.85 46.75 -200.55 41.05 -203.05 37.5 -204.65 36.9 -207.0 L33.5 -205.3 33.65 -205.15 M51.15 -213.65 L51.1 -214.5 38.7 -208.0 Q40.0 -207.6 43.0 -205.75 48.7 -203.55 57.85 -204.6 65.3 -205.45 71.7 -215.55 73.95 -219.15 75.5 -222.65 74.3 -221.85 72.5 -220.95 67.0 -218.2 61.65 -217.35 L61.95 -215.95 Q62.2 -214.0 61.45 -212.15 60.4 -209.65 57.95 -209.35 53.55 -208.9 51.95 -211.05 51.1 -212.2 51.15 -213.65 M28.6 -194.6 L27.55 -193.65 Q26.85 -193.9 26.8 -194.4 26.75 -194.95 27.0 -195.25 25.45 -195.95 24.95 -196.55 25.55 -198.15 26.5 -198.25 27.5 -198.35 31.8 -196.85 36.15 -195.35 37.25 -194.45 36.45 -192.85 35.95 -192.8 34.8 -192.65 30.5 -193.95 L28.6 -194.6 M20.05 -188.75 L25.5 -172.75 25.5 -170.95 25.15 -170.7 Q20.25 -183.75 19.6 -186.9 L19.4 -188.55 20.05 -188.75 M10.8 -194.95 Q9.85 -194.85 9.05 -195.35 L8.9 -196.1 Q8.8 -196.85 10.95 -198.0 12.25 -197.85 12.35 -196.75 L12.25 -195.35 10.8 -194.95 M16.1 -158.45 L16.0 -158.85 16.55 -159.5 16.4 -159.85 18.75 -162.45 Q21.55 -165.4 24.55 -167.65 L25.25 -167.65 25.4 -167.1 25.1 -166.2 24.4 -164.65 Q24.35 -163.4 22.9 -161.65 21.65 -159.25 21.25 -159.2 L20.75 -159.35 20.55 -159.5 Q18.95 -158.45 17.0 -158.2 L16.1 -158.45 M-56.1 -221.5 L-55.55 -221.4 -54.15 -221.75 Q-45.85 -222.7 -34.1 -218.5 -23.2 -213.85 -21.5 -213.4 -10.5 -210.35 -7.8 -208.3 -5.4 -206.55 -4.8 -201.5 L-4.85 -200.2 Q-4.6 -199.75 -5.85 -199.6 L-10.4 -203.9 -10.75 -203.65 -15.55 -203.0 Q-38.55 -200.4 -49.85 -208.9 -56.5 -213.85 -57.15 -219.55 -57.4 -221.4 -56.1 -221.5 M-51.55 -216.5 Q-48.05 -210.55 -47.1 -209.8 -45.4 -208.5 -39.1 -206.1 -33.3 -203.85 -20.85 -204.85 L-12.2 -205.3 Q-17.0 -208.7 -22.95 -210.45 -22.95 -209.75 -23.3 -209.4 -24.3 -208.55 -28.2 -208.1 -33.8 -207.5 -35.55 -210.05 -36.45 -211.35 -36.25 -212.85 L-36.45 -214.4 -36.95 -214.55 Q-44.15 -216.8 -53.1 -218.9 L-51.55 -216.5 M-21.05 -199.6 Q-21.2 -199.85 -19.95 -200.0 L-8.85 -199.5 Q-8.65 -199.85 -8.5 -198.6 -8.35 -197.3 -11.05 -196.95 -22.3 -195.7 -21.0 -198.25 L-21.05 -199.6" fill="#000000" fill-rule="evenodd" stroke="none"/>
      <path d="M51.15 -213.65 Q51.1 -212.2 51.95 -211.05 53.55 -208.9 57.95 -209.35 60.4 -209.65 61.45 -212.15 62.2 -214.0 61.95 -215.95 L61.65 -217.35 Q67.0 -218.2 72.5 -220.95 74.3 -221.85 75.5 -222.65 73.95 -219.15 71.7 -215.55 65.3 -205.45 57.85 -204.6 48.7 -203.55 43.0 -205.75 40.0 -207.6 38.7 -208.0 L51.1 -214.5 51.15 -213.65 M-51.55 -216.5 L-53.1 -218.9 Q-44.15 -216.8 -36.95 -214.55 L-36.45 -214.4 -36.25 -212.85 Q-36.45 -211.35 -35.55 -210.05 -33.8 -207.5 -28.2 -208.1 -24.3 -208.55 -23.3 -209.4 -22.95 -209.75 -22.95 -210.45 -17.0 -208.7 -12.2 -205.3 L-20.85 -204.85 Q-33.3 -203.85 -39.1 -206.1 -45.4 -208.5 -47.1 -209.8 -48.05 -210.55 -51.55 -216.5" fill="#ffffff" fill-rule="evenodd" stroke="none"/>
    </g>
  </defs>
</svg>
