<?xml version="1.0" encoding="UTF-8" standalone="no"?>
<svg xmlns:xlink="http://www.w3.org/1999/xlink" height="278.95px" width="282.3px" xmlns="http://www.w3.org/2000/svg">
  <g transform="matrix(1, 0, 0, 1, 122.85, 260.35)">
    <use height="50.85" transform="matrix(1.0, 0.0, 0.0, 1.0, -65.35, -238.1)" width="145.8" xlink:href="#shape0"/>
  </g>
  <defs>
    <g id="shape0" transform="matrix(1, 0, 0, 1, 65.35, 238.1)">
      <path d="M-59.5 -203.1 Q-65.35 -213.25 -62.3 -227.9 -32.6 -210.9 -2.45 -204.5 -10.15 -194.75 -21.95 -191.1 -33.1 -187.6 -43.5 -190.7 -54.25 -194.0 -59.5 -203.1 M26.7 -205.55 Q54.35 -212.45 78.45 -236.1 74.75 -200.7 57.6 -194.55 50.3 -191.95 41.85 -195.05 33.55 -198.0 26.7 -205.55" fill="#ffffff" fill-rule="evenodd" stroke="none"/>
      <path d="M26.7 -205.55 Q33.55 -198.0 41.85 -195.05 50.3 -191.95 57.6 -194.55 74.75 -200.7 78.45 -236.1 54.35 -212.45 26.7 -205.55 M-59.5 -203.1 Q-54.25 -194.0 -43.5 -190.7 -33.1 -187.6 -21.95 -191.1 -10.15 -194.75 -2.45 -204.5 -32.6 -210.9 -62.3 -227.9 -65.35 -213.25 -59.5 -203.1" fill="none" stroke="#000000" stroke-linecap="round" stroke-linejoin="round" stroke-width="4.0"/>
    </g>
  </defs>
</svg>
