<?xml version="1.0" encoding="utf-8"?>
<!-- Generator: flash2svg, http://dissentgraphics.com/tools/flash2svg -->
<svg xmlns:xlink="http://www.w3.org/1999/xlink" id="sprite.__202781.__20(Acc).__2F129" image-rendering="optimizeSpeed" baseProfile="basic" version="1.1" style="background-color:#ffffff" x="0px" y="0px" width="550px" height="400px" viewBox="0 0 550 400" enable-background="new 0 0 550 400" xmlns="http://www.w3.org/2000/svg">
  <defs transform="matrix(1 0 0 1 0 0) "/>
  <g id="sprite.__202781.__20(Acc).__2F129">
    <g id="Layer.__211">
      <g id="Graphic.__2Fshape.__202761_1" overflow="visible">
        <g id="Layer.__314">
          <g id="shape679">
            <path id="path2854" fill="none" stroke="#000000" stroke-opacity="1" stroke-width="4" stroke-linecap="round" stroke-linejoin="round" d="M67.3,187.45 L62.65,187.45 C66.1,177.5 65.55,167.3 61,156.9 56.4,146.5 55.2,135.75 57.35,124.6 37.3,122.65 30.45,116.55 36.9,106.2 51.05,115.25 60.4,115.8 64.9,107.9 L68.5,121.8 C68.35,134.25 70.8,144.8 75.75,153.5 80.7,162.2 81.95,173.2 79.5,186.45 L68.2,187.4"/>
            <path id="path2855" fill="#CC8E00" fill-opacity="1" d="M64.05,124.35 L64.35,124.25 64.6,124.95 64.75,124.7 64.75,124.65 C65.9,126.5 65.95,128.7 64.9,131.25 L64.75,131.4 C64.15,130.55 63.8,129.7 63.7,128.8 L62.05,130.5 C61.5,136.75 62.05,142.85 63.7,148.9 L63.6,148.15 C63.55,147.9 63.65,147.8 63.9,147.85 L64.7,148.3 C64.15,147.4 63.7,146.35 63.4,145.2 63.35,144.95 63.45,144.85 63.7,144.85 65.55,145.55 66.75,146.5 67.25,147.7 L67.8,146.15 C67.9,146 68,145.9 68.15,145.9 68.7,146.7 69.05,147.45 69.1,148.15 L69.15,147.45 69.35,145.55 67.25,144.55 C66.3,144.2 65.6,143.6 65.1,142.85 L65.1,142.75 65.1,142.55 65.1,142.4 65.25,142.2 C65.4,142 65.6,141.9 65.85,141.9 67.5,141.7 69,141.9 70.35,142.55 L70.4,142.65 70.2,142.85 66.95,143.05 67.8,143.4 71.05,144.65 70.95,144.95 70.6,145.95 70.3,146.7 C70.15,147 70.15,147.3 70.2,147.65 L70.3,147.75 70.4,147.6 C70.7,146.95 71.15,146.7 71.8,146.85 72,146.95 72.1,147.1 72.05,147.3 71.85,147.95 71.5,148.55 70.95,149 L69.65,149.95 C69.2,149.85 69,149.6 69.05,149.2 68.8,150.05 68.15,150.85 67,151.55 L66.8,151.55 66.8,151.25 C65.55,151.65 64.65,151.4 64.15,150.5 L65.25,153.7 67.6,151.7 C67.8,151.5 68,151.4 68.15,151.45 69.1,152.6 68.7,153.8 66.95,154.95 L66.9,155.05 C68.45,154.2 69.9,153.7 71.35,153.6 L69.5,156.05 71.7,156.75 C70.25,157.6 68.75,158.3 67.3,158.75 L67.75,159.9 C68.5,160.15 69.25,160.55 70,161.15 70.1,160.4 70.3,159.7 70.55,159.05 L70.7,158.9 C72.95,161.85 72.6,164.3 69.55,166.15 L70.05,169.15 71.15,168 71.45,169.5 C72.1,168.95 72.85,168.45 73.7,168 74.35,168.6 74.35,169.35 73.6,170.25 L73.6,170.35 75.75,170.55 C74.1,172.45 72.7,174.35 71.65,176.2 L71.15,176.65 70.35,176.2 69.85,181 C69.9,181.95 69.75,182.95 69.35,183.95 L72.75,180.9 73.05,180.75 C73.2,181.9 73.1,182.85 72.65,183.55 L73.9,182.45 C74.25,184.8 72.85,185.85 69.6,185.6 L68.5,186.5 68.2,187.4 79.5,186.45 C81.95,173.2 80.7,162.2 75.75,153.5 70.8,144.8 68.35,134.25 68.5,121.8 67.15,122.95 65.2,123.75 62.65,124.2 62.7,124.2 62.8,124.25 62.85,124.35 L62.9,124.65 62.8,125.1 64.05,124.35z M64.1,133.7 C64.05,133.5 64.15,133.4 64.35,133.4 65.05,135.05 65.9,136.45 66.95,137.5 L67.1,137.65 C66.95,141.4 65.75,141.85 63.55,139 62.75,138 62.9,137.5 63.95,137.5 L64.1,133.7z M78.55,161.7 L78.7,161.85 77.3,167.05 76.45,167.8 C75.7,167.2 75.25,166.35 75.15,165.3 L74.75,165.45 C73.8,163.9 74.5,162.5 76.85,161.2 77.5,161.1 78.1,161.25 78.55,161.7z M76.45,172.7 C78.5,176.1 78,178.3 75.05,179.35 74.5,179.55 73.85,179.45 73.2,179 72.65,178.65 72.35,178.15 72.35,177.6 L74.65,177.45 C73.95,176.55 73.55,175.6 73.45,174.6 74.25,174.45 75,174.75 75.75,175.45 75.85,174.5 76.05,173.65 76.3,172.8 76.35,172.75 76.4,172.7 76.45,172.7z"/>
            <path id="path2856" fill="none" stroke="#000000" stroke-opacity="1" stroke-width="4" stroke-linecap="round" stroke-linejoin="round" d="M68.2,187.4 L79.5,186.45 C81.95,173.2 80.7,162.2 75.75,153.5 70.8,144.8 68.35,134.25 68.5,121.8 67.15,122.95 65.2,123.75 62.65,124.2"/>
            <path id="path2857" fill="#FF6600" fill-opacity="1" d="M64.1,133.7 L63.95,137.5 C62.9,137.5 62.75,138 63.55,139 65.75,141.85 66.95,141.4 67.1,137.65 L66.95,137.5 C65.9,136.45 65.05,135.05 64.35,133.4 64.15,133.4 64.05,133.5 64.1,133.7z"/>
            <path id="path2858" fill="#FFB300" fill-opacity="1" d="M78.55,161.7 C78.1,161.25 77.5,161.1 76.85,161.2 74.5,162.5 73.8,163.9 74.75,165.45 L75.15,165.3 C75.25,166.35 75.7,167.2 76.45,167.8 L77.3,167.05 78.7,161.85 78.55,161.7z M64.35,124.25 L64.05,124.35 62.8,125.1 61.75,125.95 C60.3,127.35 59.75,129.1 60.1,131.25 L61.15,131.15 61.6,130.85 62.05,130.5 63.7,128.8 C63.8,129.7 64.15,130.55 64.75,131.4 L64.9,131.25 C65.95,128.7 65.9,126.5 64.75,124.65 L64.75,124.7 64.6,124.95 64.35,124.25z"/>
            <path id="path2859" fill="#FF6600" fill-opacity="1" d="M76.45,172.7 C76.4,172.7 76.35,172.75 76.3,172.8 76.05,173.65 75.85,174.5 75.75,175.45 75,174.75 74.25,174.45 73.45,174.6 73.55,175.6 73.95,176.55 74.65,177.45 L72.35,177.6 C72.35,178.15 72.65,178.65 73.2,179 73.85,179.45 74.5,179.55 75.05,179.35 78,178.3 78.5,176.1 76.45,172.7z"/>
            <path id="path2860" fill="#008026" fill-opacity="1" d="M62.9,124.65 L62.85,124.35 C62.8,124.25 62.7,124.2 62.65,124.2 L62.55,124.15 62.25,124.2 62.15,124.3 62.05,124.5 61.75,125.95 62.8,125.1 62.9,124.65z M61.6,130.85 L61.15,131.15 C61,133.15 60.95,135.15 61,137.15 62.1,139.25 62.25,140.85 61.4,142 61.95,146.15 63,150.3 64.55,154.35 L65.25,153.7 64.15,150.5 63.7,148.9 C62.05,142.85 61.5,136.75 62.05,130.5 L61.6,130.85z M67.3,158.75 L66.5,159.05 66.8,159.75 67.75,159.9 67.3,158.75z"/>
            <path id="path2861" fill="#CC8E00" fill-opacity="1" d="M68.5,121.8 L64.9,107.9 C60.4,115.8 51.05,115.25 36.9,106.2 30.45,116.55 37.3,122.65 57.35,124.6 L62.15,124.3 62.25,124.2 62.55,124.15 62.65,124.2 C65.2,123.75 67.15,122.95 68.5,121.8z M63.7,110.85 C64.25,112.45 63.95,114.1 62.8,115.85 L62.65,115.95 C61.2,114.7 61,113.5 62,112.35 L62.7,113 62.75,112.9 C62.9,112.15 63.15,111.5 63.55,110.95 L63.7,110.85z M51.35,119.35 L51.4,119.5 C51.35,120.1 51.05,120.6 50.55,121.05 49.8,121.65 49.05,121.75 48.35,121.4 L48.35,121.25 C48.5,120.8 48.85,120.4 49.4,120.1 L48.2,119.4 47.9,119.65 47.7,119.65 C47.45,118.8 47.65,118 48.3,117.25 L48.55,116.95 C47.95,117.3 47.35,117.5 46.8,117.45 L46.9,117.8 46.85,117.9 C46.05,117.95 45.5,117.45 45.15,116.5 L45.05,117.8 44.8,118.2 44.7,118.1 43.8,118.2 42.45,118.1 43.35,118.4 C44.3,118.3 44.9,118.6 45.15,119.25 L44.85,119.4 C45.45,120 45.1,120.4 43.8,120.65 L43.7,120.55 C43.65,120.2 43.7,119.9 43.85,119.65 42.8,119.7 41.95,119.1 41.2,117.9 40.8,117.35 40.85,116.95 41.4,116.8 42.4,116.6 43.3,116.7 44.1,117.1 43.65,116.05 43.75,114.85 44.3,113.45 44.35,113.25 44.45,113.15 44.6,113.2 45.35,114.25 46,115.45 46.5,116.7 47.35,115.95 48.45,115.45 49.7,115.1 50.25,116.15 50,117.3 49,118.5 49.9,118.45 50.7,118.75 51.35,119.35z M46.3,118.3 C47.1,119.2 47.6,120.3 47.75,121.55 L47.7,121.75 C46.15,121.2 45.6,120.05 46.15,118.35 L46.3,118.3z M58.8,115.75 C59.6,116.15 60.15,116.75 60.45,117.55 L62.65,116.15 C63.7,117.7 63.4,119.3 61.75,120.95 L61.6,121.05 61.5,120.85 60.8,121.35 60.9,122.5 60.85,122.65 C60,122.5 59.6,122.1 59.6,121.5 L58.6,121.45 58.65,121.5 C57.65,121.85 56.55,121.7 55.35,120.95 53.7,119.8 53.05,118.75 53.5,117.85 55.05,117.6 56.5,117.75 57.75,118.25 57.6,117.45 57.9,116.65 58.65,115.85 58.7,115.8 58.75,115.75 58.8,115.75z"/>
            <path id="path2862" fill="none" stroke="#000000" stroke-opacity="1" stroke-width="4" stroke-linecap="round" stroke-linejoin="round" d="M62.65,124.2 C65.2,123.75 67.15,122.95 68.5,121.8 L64.9,107.9 C60.4,115.8 51.05,115.25 36.9,106.2 30.45,116.55 37.3,122.65 57.35,124.6 L62.15,124.3"/>
            <path id="path2863" fill="#FFB300" fill-opacity="1" d="M63.7,110.85 L63.55,110.95 C63.15,111.5 62.9,112.15 62.75,112.9 L62.7,113 62,112.35 C61,113.5 61.2,114.7 62.65,115.95 L62.8,115.85 C63.95,114.1 64.25,112.45 63.7,110.85z"/>
            <path id="path2864" fill="#FFB300" fill-opacity="1" d="M51.35,119.35 C50.7,118.75 49.9,118.45 49,118.5 50,117.3 50.25,116.15 49.7,115.1 48.45,115.45 47.35,115.95 46.5,116.7 46,115.45 45.35,114.25 44.6,113.2 44.45,113.15 44.35,113.25 44.3,113.45 43.75,114.85 43.65,116.05 44.1,117.1 43.3,116.7 42.4,116.6 41.4,116.8 40.85,116.95 40.8,117.35 41.2,117.9 41.95,119.1 42.8,119.7 43.85,119.65 43.7,119.9 43.65,120.2 43.7,120.55 L43.8,120.65 C45.1,120.4 45.45,120 44.85,119.4 L45.15,119.25 C44.9,118.6 44.3,118.3 43.35,118.4 L42.45,118.1 43.8,118.2 44.7,118.1 44.8,118.2 45.05,117.8 45.15,116.5 C45.5,117.45 46.05,117.95 46.85,117.9 L46.9,117.8 46.8,117.45 C47.35,117.5 47.95,117.3 48.55,116.95 L48.3,117.25 C47.65,118 47.45,118.8 47.7,119.65 L47.9,119.65 48.2,119.4 49.4,120.1 C48.85,120.4 48.5,120.8 48.35,121.25 L48.35,121.4 C49.05,121.75 49.8,121.65 50.55,121.05 51.05,120.6 51.35,120.1 51.4,119.5 L51.35,119.35z"/>
            <path id="path2865" fill="#FFB300" fill-opacity="1" d="M46.3,118.3 L46.15,118.35 C45.6,120.05 46.15,121.2 47.7,121.75 L47.75,121.55 C47.6,120.3 47.1,119.2 46.3,118.3z M63.7,144.85 C63.45,144.85 63.35,144.95 63.4,145.2 63.7,146.35 64.15,147.4 64.7,148.3 L63.9,147.85 C63.65,147.8 63.55,147.9 63.6,148.15 L63.7,148.9 64.15,150.5 C64.65,151.4 65.55,151.65 66.8,151.25 L66.8,151.55 67,151.55 C68.15,150.85 68.8,150.05 69.05,149.2 L69.1,148.15 C69.05,147.45 68.7,146.7 68.15,145.9 68,145.9 67.9,146 67.8,146.15 L67.25,147.7 C66.75,146.5 65.55,145.55 63.7,144.85z M69.85,181 L69.3,179 67.95,176.95 C67.85,176.95 67.8,177 67.8,177.1 67.65,179.15 67.65,181.1 67.9,183 L66.7,181.85 C66.2,183.3 66.45,184.35 67.4,184.95 L66.7,185.1 C66.2,185.15 65.95,185.45 65.95,185.9 66.5,186.3 67.05,186.55 67.55,186.6 L68.5,186.5 69.6,185.6 C72.85,185.85 74.25,184.8 73.9,182.45 L72.65,183.55 C73.1,182.85 73.2,181.9 73.05,180.75 L72.75,180.9 69.35,183.95 C69.75,182.95 69.9,181.95 69.85,181z M69.55,185 L70.55,184.85 69.75,185.25 69.55,185z"/>
            <path id="path2866" fill="#FF6600" fill-opacity="1" d="M58.8,115.75 C58.75,115.75 58.7,115.8 58.65,115.85 57.9,116.65 57.6,117.45 57.75,118.25 56.5,117.75 55.05,117.6 53.5,117.85 53.05,118.75 53.7,119.8 55.35,120.95 56.55,121.7 57.65,121.85 58.65,121.5 L58.6,121.45 59.6,121.5 C59.6,122.1 60,122.5 60.85,122.65 L60.9,122.5 60.8,121.35 61.5,120.85 61.6,121.05 61.75,120.95 C63.4,119.3 63.7,117.7 62.65,116.15 L60.45,117.55 C60.15,116.75 59.6,116.15 58.8,115.75z M58.3,119.25 L58.5,119.15 58.75,118.85 58.7,118.75 58.55,118.65 59.05,117.55 59.15,117.7 C59.45,118.45 59.95,118.8 60.65,118.8 L60.7,118.7 60.65,118.5 C61.2,118.5 61.7,118.25 62.25,117.75 61.7,118.5 61.4,119.15 61.35,119.8 60.1,119.85 59.1,120.25 58.3,120.9 58,120.5 57.55,120.2 57,120 L56.6,119.75 56.3,119.45 58.1,119.25 58.2,119.35 58.3,119.25z M67.75,159.9 L66.8,159.75 66.45,159.75 67.85,164.85 C67.05,164.9 66.55,165.3 66.4,165.95 67.1,166.15 67.75,166.6 68.3,167.25 L68.9,167.25 C69.1,167.1 69.15,166.85 69,166.4 L69.4,166.25 C69.45,166.2 69.5,166.15 69.55,166.15 72.6,164.3 72.95,161.85 70.7,158.9 L70.55,159.05 C70.3,159.7 70.1,160.4 70,161.15 69.25,160.55 68.5,160.15 67.75,159.9z M68.2,161.45 L68.1,161.6 68.1,161.45 68.2,161.45z"/>
            <path id="path2867" fill="#CC8E00" fill-opacity="1" d="M58.3,119.25 L58.2,119.35 58.1,119.25 56.3,119.45 56.6,119.75 57,120 C57.55,120.2 58,120.5 58.3,120.9 59.1,120.25 60.1,119.85 61.35,119.8 61.4,119.15 61.7,118.5 62.25,117.75 61.7,118.25 61.2,118.5 60.65,118.5 L60.7,118.7 60.65,118.8 C59.95,118.8 59.45,118.45 59.15,117.7 L59.05,117.55 58.55,118.65 58.7,118.75 58.75,118.85 58.5,119.15 58.3,119.25z M38.35,112.3 L38.4,112.45 C38.75,111 39.5,109.85 40.55,108.95 41.2,109.6 41.55,110.5 41.65,111.55 42,110.75 42.5,110.15 43.1,109.8 43.55,110.95 43.2,112.2 42.05,113.55 41,113.25 40.4,112.45 40.35,111.1 L38.95,114.05 38.85,114.15 C36.8,112.9 36.3,111.1 37.35,108.75 37.9,109.75 38.2,110.95 38.35,112.3z M62.05,124.5 L62.15,124.3 57.35,124.6 C55.2,135.75 56.4,146.5 61,156.9 65.55,167.3 66.1,177.5 62.65,187.45 L67.3,187.45 67.35,187.3 67.55,186.6 C67.05,186.55 66.5,186.3 65.95,185.9 65.95,185.45 66.2,185.15 66.7,185.1 L67.4,184.95 C66.45,184.35 66.2,183.3 66.7,181.85 L67.9,183 C67.65,181.1 67.65,179.15 67.8,177.1 67.8,177 67.85,176.95 67.95,176.95 L69.3,179 69.55,175.35 68.75,173.9 68.8,173.75 68.85,173.75 68.7,173.35 69.1,172.8 69.05,172.65 68.55,172.8 69,172.1 C68.95,171.5 69.1,170.9 69.35,170.3 L68.9,167.25 68.3,167.25 C67.75,166.6 67.1,166.15 66.4,165.95 66.55,165.3 67.05,164.9 67.85,164.85 L66.45,159.75 66.8,159.75 66.5,159.05 66.25,159.1 64.7,157.45 62.15,156.8 63.5,155.4 62.8,153.25 C62.75,152.8 62.9,152.55 63.3,152.5 L64.35,154.55 64.55,154.35 C63,150.3 61.95,146.15 61.4,142 61.05,142.45 60.55,142.85 59.85,143.2 L58.5,143.6 59,142.8 C57.85,142.05 57.65,140.5 58.3,138.2 58.5,137.45 58.9,136.9 59.45,136.55 L60.15,138.9 C60.4,138.25 60.65,137.6 60.95,137.05 L60.95,137 61,137.15 C60.95,135.15 61,133.15 61.15,131.15 L60.1,131.25 C59.75,129.1 60.3,127.35 61.75,125.95 L62.05,124.5z"/>
            <path id="path2868" fill="#A27100" fill-opacity="1" d="M38.35,112.3 C38.2,110.95 37.9,109.75 37.35,108.75 36.3,111.1 36.8,112.9 38.85,114.15 L38.95,114.05 40.35,111.1 C40.4,112.45 41,113.25 42.05,113.55 43.2,112.2 43.55,110.95 43.1,109.8 42.5,110.15 42,110.75 41.65,111.55 41.55,110.5 41.2,109.6 40.55,108.95 39.5,109.85 38.75,111 38.4,112.45 L38.35,112.3z M61,137.15 L60.95,137 60.95,137.05 C60.65,137.6 60.4,138.25 60.15,138.9 L59.45,136.55 C58.9,136.9 58.5,137.45 58.3,138.2 57.65,140.5 57.85,142.05 59,142.8 L58.5,143.6 59.85,143.2 C60.55,142.85 61.05,142.45 61.4,142 62.25,140.85 62.1,139.25 61,137.15z M70.2,142.85 L70.4,142.65 70.35,142.55 C69,141.9 67.5,141.7 65.85,141.9 65.6,141.9 65.4,142 65.25,142.2 L65.1,142.4 65.1,142.55 65.1,142.75 65.1,142.85 C65.6,143.6 66.3,144.2 67.25,144.55 L69.35,145.55 69.15,147.45 69.1,148.15 69.05,149.2 C69,149.6 69.2,149.85 69.65,149.95 L70.95,149 C71.5,148.55 71.85,147.95 72.05,147.3 72.1,147.1 72,146.95 71.8,146.85 71.15,146.7 70.7,146.95 70.4,147.6 L70.3,147.75 70.2,147.65 C70.15,147.3 70.15,147 70.3,146.7 L70.6,145.95 70.95,144.95 71.05,144.65 67.8,143.4 66.95,143.05 70.2,142.85z M69.5,156.05 L71.35,153.6 C69.9,153.7 68.45,154.2 66.9,155.05 L66.95,154.95 C68.7,153.8 69.1,152.6 68.15,151.45 68,151.4 67.8,151.5 67.6,151.7 L65.25,153.7 64.55,154.35 64.35,154.55 63.3,152.5 C62.9,152.55 62.75,152.8 62.8,153.25 L63.5,155.4 62.15,156.8 64.7,157.45 66.25,159.1 66.5,159.05 67.3,158.75 C68.75,158.3 70.25,157.6 71.7,156.75 L69.5,156.05z M69.35,170.3 C69.1,170.9 68.95,171.5 69,172.1 L68.55,172.8 69.05,172.65 69.1,172.8 68.7,173.35 68.85,173.75 68.8,173.75 68.75,173.9 69.55,175.35 70.35,176.2 71.15,176.65 71.65,176.2 C72.7,174.35 74.1,172.45 75.75,170.55 L73.6,170.35 73.6,170.25 C74.35,169.35 74.35,168.6 73.7,168 72.85,168.45 72.1,168.95 71.45,169.5 L71.15,168 70.05,169.15 69.35,170.3z M72.05,170.9 L71.85,171.15 71.7,171.15 72.05,170.9z M72.4,172.65 L72.5,172.35 72.8,172.3 72.4,172.65z"/>
            <path id="path2869" fill="none" stroke="#000000" stroke-opacity="1" stroke-width="4" stroke-linecap="round" stroke-linejoin="round" d="M62.15,124.3 L57.35,124.6 C55.2,135.75 56.4,146.5 61,156.9 65.55,167.3 66.1,177.5 62.65,187.45 L67.3,187.45"/>
            <path id="path2870" fill="#008026" fill-opacity="1" d="M68.2,161.45 L68.1,161.45 68.1,161.6 68.2,161.45z M69.55,166.15 C69.5,166.15 69.45,166.2 69.4,166.25 L69,166.4 C69.15,166.85 69.1,167.1 68.9,167.25 L69.35,170.3 70.05,169.15 69.55,166.15z M70.35,176.2 L69.55,175.35 69.3,179 69.85,181 70.35,176.2z M67.35,187.3 L67.3,187.45 67.35,187.65 67.6,187.85 67.95,187.8 68.15,187.6 68.2,187.4 68.5,186.5 67.55,186.6 67.35,187.3z"/>
            <path id="path2871" fill="#CC8E00" fill-opacity="1" d="M72.05,170.9 L71.7,171.15 71.85,171.15 72.05,170.9z"/>
            <path id="path2872" fill="#CC8E00" fill-opacity="1" d="M72.4,172.65 L72.8,172.3 72.5,172.35 72.4,172.65z"/>
            <path id="path2873" fill="#CC8E00" fill-opacity="1" d="M70.6,174.5 L70.5,174.55 70.5,174.6 70.6,174.5"/>
            <path id="path2874" fill="#CC8E00" fill-opacity="1" d="M69.55,185 L69.75,185.25 70.55,184.85 69.55,185z"/>
          </g>
        </g>
      </g>
    </g>
  </g>
</svg>