<?xml version="1.0" encoding="utf-8"?>
<!-- Generator: flash2svg, http://dissentgraphics.com/tools/flash2svg -->
<svg xmlns:xlink="http://www.w3.org/1999/xlink" id="sprite.__202781.__20(Acc).__2F132" image-rendering="optimizeSpeed" baseProfile="basic" version="1.1" style="background-color:#ffffff" x="0px" y="0px" width="550px" height="400px" viewBox="0 0 550 400" enable-background="new 0 0 550 400" xmlns="http://www.w3.org/2000/svg">
  <defs transform="matrix(1 0 0 1 0 0) "/>
  <g id="sprite.__202781.__20(Acc).__2F132">
    <g id="Layer.__214">
      <g id="Graphic.__2Fshape.__202765_1" overflow="visible">
        <g id="Layer.__332">
          <g id="shape696">
            <path id="path3507" fill="none" stroke="#000000" stroke-opacity="1" stroke-width="3.5" stroke-linecap="round" stroke-linejoin="round" d="M68.9,115.4 L69.65,118.8 C81.7,131.75 88.9,145.05 91.3,158.8 L80.8,149.05 C83.4,153.2 83.65,158.6 81.55,165.3 77.45,162.45 73.6,158.25 70.05,152.8 71.7,158.8 70.45,163.45 66.3,166.8 62.25,157.65 59.9,145.8 59.35,131.25 54.6,134.2 49.3,134.1 43.55,131 46.25,143.55 47.1,155.8 46.05,167.8 L39.05,158.8 C38.4,164.85 36.7,169.3 34.05,172.05 29.95,168.25 27.85,163.6 27.8,158.05 25.3,161.9 21.8,164.3 17.3,165.3 18.85,150.15 23,134.65 29.65,118.8 L30.6,113.95 32.1,105.8 C44.85,108.95 56.5,109.45 67.1,107.3 L68.9,115.4z"/>
            <path id="path3508" fill="#FFFFFF" fill-opacity="1" d="M69.65,118.8 L68.9,115.4 L53.55,125.05 C59.8,123.65 64.95,120.45 68.9,115.4 L67.1,107.3 C56.5,109.45 44.85,108.95 32.1,105.8 L30.6,113.95 L46.05,119.05 C40.1,118.7 34.95,117 30.6,113.95 L29.65,118.8 C34.55,124.6 39.2,128.65 43.55,131 49.3,134.1 54.6,134.2 59.35,131.25 63.1,128.95 66.5,124.8 69.65,118.8z"/>
            <path id="path3509" fill="none" stroke="#000000" stroke-opacity="1" stroke-width="3.5" stroke-linecap="round" stroke-linejoin="round" d="M30.6,113.95 L29.65,118.8 C34.55,124.6 39.2,128.65 43.55,131 49.3,134.1 54.6,134.2 59.35,131.25 63.1,128.95 66.5,124.8 69.65,118.8 L68.9,115.4"/>
            <path id="path3510" fill="none" stroke="#000000" stroke-opacity="1" stroke-width="2" stroke-linecap="round" stroke-linejoin="round" d="M53.55,125.05 C59.8,123.65 64.95,120.45 68.9,115.4"/>
            <path id="path3511" fill="none" stroke="#000000" stroke-opacity="1" stroke-width="3.5" stroke-linecap="round" stroke-linejoin="round" d="M68.9,115.4 L67.1,107.3 C56.5,109.45 44.85,108.95 32.1,105.8 L30.6,113.95"/>
            <path id="path3512" fill="none" stroke="#000000" stroke-opacity="1" stroke-width="2" stroke-linecap="round" stroke-linejoin="round" d="M46.05,119.05 C40.1,118.7 34.95,117 30.6,113.95"/>
            <path id="path3513" fill="#FFFFFF" fill-opacity="1" d="M69.65,118.8 C66.5,124.8 63.1,128.95 59.35,131.25 59.9,145.8 62.25,157.65 66.3,166.8 70.45,163.45 71.7,158.8 70.05,152.8 73.6,158.25 77.45,162.45 81.55,165.3 83.65,158.6 83.4,153.2 80.8,149.05 L91.3,158.8 C88.9,145.05 81.7,131.75 69.65,118.8z M17.3,165.3 C21.8,164.3 25.3,161.9 27.8,158.05 27.85,163.6 29.95,168.25 34.05,172.05 36.7,169.3 38.4,164.85 39.05,158.8 L46.05,167.8 C47.1,155.8 46.25,143.55 43.55,131 39.2,128.65 34.55,124.6 29.65,118.8 23,134.65 18.85,150.15 17.3,165.3z"/>
            <path id="path3514" fill="none" stroke="#000000" stroke-opacity="1" stroke-width="3.5" stroke-linecap="round" stroke-linejoin="round" d="M69.65,118.8 C66.5,124.8 63.1,128.95 59.35,131.25 59.9,145.8 62.25,157.65 66.3,166.8 70.45,163.45 71.7,158.8 70.05,152.8 73.6,158.25 77.45,162.45 81.55,165.3 83.65,158.6 83.4,153.2 80.8,149.05 L91.3,158.8 C88.9,145.05 81.7,131.75 69.65,118.8z"/>
            <path id="path3515" fill="none" stroke="#000000" stroke-opacity="1" stroke-width="3.5" stroke-linecap="round" stroke-linejoin="round" d="M17.3,165.3 C21.8,164.3 25.3,161.9 27.8,158.05 27.85,163.6 29.95,168.25 34.05,172.05 36.7,169.3 38.4,164.85 39.05,158.8 L46.05,167.8 C47.1,155.8 46.25,143.55 43.55,131 39.2,128.65 34.55,124.6 29.65,118.8 23,134.65 18.85,150.15 17.3,165.3z"/>
          </g>
        </g>
      </g>
    </g>
  </g>
</svg>