<?xml version="1.0" encoding="utf-8"?>
<!-- Generator: flash2svg, http://dissentgraphics.com/tools/flash2svg -->
<svg xmlns:xlink="http://www.w3.org/1999/xlink" id="sprite.__202781.__20(Acc).__2F138" image-rendering="optimizeSpeed" baseProfile="basic" version="1.1" style="background-color:#ffffff" x="0px" y="0px" width="550px" height="400px" viewBox="0 0 550 400" enable-background="new 0 0 550 400" xmlns="http://www.w3.org/2000/svg">
  <defs transform="matrix(1 0 0 1 0 0) "/>
  <g id="sprite.__202781.__20(Acc).__2F138">
    <g id="Layer.__220">
      <g id="Graphic.__2Fshape.__202775_1" overflow="visible">
        <g id="Layer.__366">
          <g id="shape729">
            <path id="path4730" fill="none" stroke="#000000" stroke-opacity="1" stroke-width="4" stroke-linecap="round" stroke-linejoin="round" d="M101.5,66.05 C101.85,63.15 103.4,60.65 106.15,58.5 109.3,56.05 113.15,54.8 117.65,54.8 122.15,54.8 126,56.05 129.15,58.5 132.3,60.95 133.9,63.9 133.9,67.4 133.9,70.9 132.3,73.9 129.15,76.35 126,78.8 122.15,80.05 117.65,80.05 113.15,80.05 109.3,78.8 106.15,76.35 103.2,74.05 101.65,71.1 101.4,67.45 L101.4,67.4 101.5,66.05z"/>
            <path id="path4731" fill="#FFFFFF" fill-opacity="0.5019607843137255" d="M101.5,66.05 L101.4,67.4 101.4,67.45 C101.65,71.1 103.2,74.05 106.15,76.35 109.3,78.8 113.15,80.05 117.65,80.05 122.15,80.05 126,78.8 129.15,76.35 132.3,73.9 133.9,70.9 133.9,67.4 133.9,63.9 132.3,60.95 129.15,58.5 126,56.05 122.15,54.8 117.65,54.8 113.15,54.8 109.3,56.05 106.15,58.5 103.4,60.65 101.85,63.15 101.5,66.05z M37.65,55.6 C33.15,55.6 29.3,56.85 26.15,59.3 23,61.75 21.4,64.7 21.4,68.2 21.4,71.7 23,74.7 26.15,77.15 29.3,79.6 33.15,80.8 37.65,80.8 42.15,80.8 46,79.6 49.15,77.15 52.3,74.7 53.85,71.8 53.9,68.35 L53.9,68.2 53.85,67 C53.5,64.05 51.95,61.45 49.15,59.3 46,56.85 42.15,55.6 37.65,55.6z"/>
            <path id="path4732" fill="none" stroke="#000000" stroke-opacity="1" stroke-width="4" stroke-linecap="round" stroke-linejoin="round" d="M101.5,66.05 L101.4,67.4 101.4,67.45 C101.65,71.1 103.2,74.05 106.15,76.35 109.3,78.8 113.15,80.05 117.65,80.05 122.15,80.05 126,78.8 129.15,76.35 132.3,73.9 133.9,70.9 133.9,67.4 133.9,63.9 132.3,60.95 129.15,58.5 126,56.05 122.15,54.8 117.65,54.8 113.15,54.8 109.3,56.05 106.15,58.5 103.4,60.65 101.85,63.15 101.5,66.05z"/>
            <path id="path4733" fill="none" stroke="#000000" stroke-opacity="1" stroke-width="4" stroke-linecap="round" stroke-linejoin="round" d="M37.65,55.6 C33.15,55.6 29.3,56.85 26.15,59.3 23,61.75 21.4,64.7 21.4,68.2 21.4,71.7 23,74.7 26.15,77.15 29.3,79.6 33.15,80.8 37.65,80.8 42.15,80.8 46,79.6 49.15,77.15 52.3,74.7 53.85,71.8 53.9,68.35 L53.9,68.2 53.85,67 C53.5,64.05 51.95,61.45 49.15,59.3 46,56.85 42.15,55.6 37.65,55.6z"/>
          </g>
        </g>
      </g>
    </g>
  </g>
</svg>