<?xml version="1.0" encoding="utf-8"?>
<!-- Generator: flash2svg, http://dissentgraphics.com/tools/flash2svg -->
<svg xmlns:xlink="http://www.w3.org/1999/xlink" id="Sprite.__202815.__2F156" image-rendering="optimizeSpeed" baseProfile="basic" version="1.1" style="background-color:#ffffff" x="0px" y="0px" width="550px" height="400px" viewBox="0 0 550 400" enable-background="new 0 0 550 400" xmlns="http://www.w3.org/2000/svg">
  <defs/>
  <g id="Sprite.__202815.__2F156">
    <g id="Layer.__214">
      <g id="shape16" transform="matrix(1 0 0 1 -30.699 62.5)">
        <path id="path27" transform="matrix(1 0 0 1 33.15 -59.999)" fill="none" stroke="#000000" stroke-opacity="1" stroke-width="5" stroke-linecap="round" stroke-linejoin="round" d="M49.9,107.35 C85.95,102.5 113.5,90.55 132.6,71.5 132,89.75 113.05,101.9 75.8,107.85 93.45,125.8 107.8,156.5 118.85,200 90.8,156.35 67.85,125.5 49.9,107.35z "/>
        <path id="path28" transform="matrix(1 0 0 1 33.15 -59.999)" fill="#262626" fill-opacity="1" d="M49.9,107.35 Q72.3,108.4 75.8,107.85 C113.05,101.9 132,89.75 132.6,71.5 113.5,90.55 85.95,102.5 49.9,107.35z "/>
        <path id="path29" transform="matrix(1 0 0 1 33.15 -59.999)" fill="none" stroke="#000000" stroke-opacity="1" stroke-width="5" stroke-linecap="round" stroke-linejoin="round" d="M49.9,107.35 Q72.3,108.4 75.8,107.85 C113.05,101.9 132,89.75 132.6,71.5 113.5,90.55 85.95,102.5 49.9,107.35z "/>
        <path id="path30" transform="matrix(1 0 0 1 33.15 -59.999)" fill="#262626" fill-opacity="1" d="M75.8,107.85 Q72.3,108.4 49.9,107.35 C67.85,125.5 90.8,156.35 118.85,200 107.8,156.5 93.45,125.8 75.8,107.85z M19.8,108.4 C25.3,109.75 35.35,109.4 49.9,107.35 13.25,101.55 -13.5,86.6 -30.4,62.5 -33.2,85.4 -16.45,100.7 19.8,108.4zM49.9,107.35 C35.35,109.4 25.3,109.75 19.8,108.4 8.05,123.55 -3.25,153.75 -14.15,199 12.75,151.35 34.1,120.8 49.9,107.35z"/>
        <path id="path31" transform="matrix(1 0 0 1 33.15 -59.999)" fill="none" stroke="#000000" stroke-opacity="1" stroke-width="5" stroke-linecap="round" stroke-linejoin="round" d="M75.8,107.85 Q72.3,108.4 49.9,107.35 C67.85,125.5 90.8,156.35 118.85,200 107.8,156.5 93.45,125.8 75.8,107.85z "/>
        <path id="path34" transform="matrix(1 0 0 1 33.15 -59.999)" fill="none" stroke="#000000" stroke-opacity="1" stroke-width="5" stroke-linecap="round" stroke-linejoin="round" d="M19.8,108.4 C25.3,109.75 35.35,109.4 49.9,107.35 13.25,101.55 -13.5,86.6 -30.4,62.5 -33.2,85.4 -16.45,100.7 19.8,108.4z "/>
        <path id="path37" transform="matrix(1 0 0 1 33.15 -59.999)" fill="none" stroke="#000000" stroke-opacity="1" stroke-width="5" stroke-linecap="round" stroke-linejoin="round" d="M49.9,107.35 C35.35,109.4 25.3,109.75 19.8,108.4 8.05,123.55 -3.25,153.75 -14.15,199 12.75,151.35 34.1,120.8 49.9,107.35z "/>
      </g>
    </g>
  </g>
</svg>