<?xml version="1.0" encoding="utf-8"?>
<!-- Generator: flash2svg, http://dissentgraphics.com/tools/flash2svg -->
<svg xmlns:xlink="http://www.w3.org/1999/xlink" id="Sprite.__202815.__2F157" image-rendering="optimizeSpeed" baseProfile="basic" version="1.1" style="background-color:#ffffff" x="0px" y="0px" width="550px" height="400px" viewBox="0 0 550 400" enable-background="new 0 0 550 400" xmlns="http://www.w3.org/2000/svg">
  <defs/>
  <g id="Sprite.__202815.__2F157">
    <g id="Layer.__215">
      <g id="shape25" transform="matrix(1 0 0 1 -30.699 62.5)">
        <path id="path39" transform="matrix(1 0 0 1 33.15 -59.999)" fill="none" stroke="#000000" stroke-opacity="1" stroke-width="5" stroke-linecap="round" stroke-linejoin="round" d="M49.9,107.35 C85.95,102.5 113.5,90.55 132.6,71.5 132,89.75 113.05,101.9 75.8,107.85 93.45,125.8 107.8,156.5 118.85,200 90.8,156.35 67.85,125.5 49.9,107.35z "/>
        <path id="path40" transform="matrix(1 0 0 1 33.15 -59.999)" fill="#262626" fill-opacity="1" d="M49.9,107.35 Q72.3,108.4 75.8,107.85 C113.05,101.9 132,89.75 132.6,71.5 113.5,90.55 85.95,102.5 49.9,107.35z "/>
        <path id="path41" transform="matrix(1 0 0 1 33.15 -59.999)" fill="none" stroke="#000000" stroke-opacity="1" stroke-width="5" stroke-linecap="round" stroke-linejoin="round" d="M49.9,107.35 Q72.3,108.4 75.8,107.85 C113.05,101.9 132,89.75 132.6,71.5 113.5,90.55 85.95,102.5 49.9,107.35z "/>
        <path id="path42" transform="matrix(1 0 0 1 33.15 -59.999)" fill="#262626" fill-opacity="1" d="M75.8,107.85 Q72.3,108.4 49.9,107.35 C67.85,125.5 90.8,156.35 118.85,200 107.8,156.5 93.45,125.8 75.8,107.85z M19.8,108.4 C25.3,109.75 35.35,109.4 49.9,107.35 13.25,101.55 -13.5,86.6 -30.4,62.5 -33.2,85.4 -16.45,100.7 19.8,108.4zM49.9,107.35 C35.35,109.4 25.3,109.75 19.8,108.4 8.05,123.55 -3.25,153.75 -14.15,199 12.75,151.35 34.1,120.8 49.9,107.35z"/>
        <path id="path43" transform="matrix(1 0 0 1 33.15 -59.999)" fill="none" stroke="#000000" stroke-opacity="1" stroke-width="5" stroke-linecap="round" stroke-linejoin="round" d="M75.8,107.85 Q72.3,108.4 49.9,107.35 C67.85,125.5 90.8,156.35 118.85,200 107.8,156.5 93.45,125.8 75.8,107.85z "/>
        <path id="path46" transform="matrix(1 0 0 1 33.15 -59.999)" fill="none" stroke="#000000" stroke-opacity="1" stroke-width="5" stroke-linecap="round" stroke-linejoin="round" d="M19.8,108.4 C25.3,109.75 35.35,109.4 49.9,107.35 13.25,101.55 -13.5,86.6 -30.4,62.5 -33.2,85.4 -16.45,100.7 19.8,108.4z "/>
        <path id="path49" transform="matrix(1 0 0 1 33.15 -59.999)" fill="none" stroke="#000000" stroke-opacity="1" stroke-width="5" stroke-linecap="round" stroke-linejoin="round" d="M49.9,107.35 C35.35,109.4 25.3,109.75 19.8,108.4 8.05,123.55 -3.25,153.75 -14.15,199 12.75,151.35 34.1,120.8 49.9,107.35z "/>
      </g>
    </g>
    <g id="Layer.__216">
      <g id="shape34" transform="matrix(1 0 0 1 15.6 55)">
        <path id="path51" transform="matrix(1 0 0 1 -13.099 -52.499)" fill="none" stroke="#6C1313" stroke-opacity="1" stroke-width="5" stroke-linecap="round" stroke-linejoin="round" d="M51.45,55 C52.6,56.85 53.3,58.85 53.55,61 M93.65,61 Q93.85,57.75 95.45,55"/>
        <path id="path52" transform="matrix(1 0 0 1 -13.099 -52.499)" fill="none" stroke="#6C1313" stroke-opacity="1" stroke-width="5" stroke-linecap="round" stroke-linejoin="round" d="M129.75,55 C131,57.6 131.6,59.95 131.6,62 131.6,66.45 129.75,70.2 126,73.3 122.3,76.45 117.85,78 112.6,78 107.35,78 102.9,76.45 99.15,73.3 95.45,70.2 93.6,66.45 93.6,62 L93.65,61 C79.1,57.5 65.7,57.5 53.55,61 L53.6,62.5 C53.6,66.95 51.75,70.7 48,73.8 44.3,76.95 39.85,78.5 34.6,78.5 29.35,78.5 24.9,76.95 21.15,73.8 17.45,70.7 15.6,66.95 15.6,62.5 15.6,59.75 16.3,57.25 17.75,55 "/>
        <path id="path53" transform="matrix(1 0 0 1 -13.099 -52.499)" fill="#FFFFFF" fill-opacity="0.25098039215686274" d="M95.45,55 Q93.85,57.75 93.65,61 L93.6,62 C93.6,66.45 95.45,70.2 99.15,73.3 102.9,76.45 107.35,78 112.6,78 117.85,78 122.3,76.45 126,73.3 129.75,70.2 131.6,66.45 131.6,62 131.6,59.95 131,57.6 129.75,55 L95.45,55z M17.75,55 C16.3,57.25 15.6,59.75 15.6,62.5 15.6,66.95 17.45,70.7 21.15,73.8 24.9,76.95 29.35,78.5 34.6,78.5 39.85,78.5 44.3,76.95 48,73.8 51.75,70.7 53.6,66.95 53.6,62.5 L53.55,61 C53.3,58.85 52.6,56.85 51.45,55 L17.75,55z"/>
        <path id="path54" transform="matrix(1 0 0 1 -13.099 -52.499)" fill="none" stroke="#6C1313" stroke-opacity="1" stroke-width="5" stroke-linecap="round" stroke-linejoin="round" d="M95.45,55 Q93.85,57.75 93.65,61 L93.6,62 C93.6,66.45 95.45,70.2 99.15,73.3 102.9,76.45 107.35,78 112.6,78 117.85,78 122.3,76.45 126,73.3 129.75,70.2 131.6,66.45 131.6,62 131.6,59.95 131,57.6 129.75,55 "/>
        <path id="path56" transform="matrix(1 0 0 1 -13.099 -52.499)" fill="none" stroke="#6C1313" stroke-opacity="1" stroke-width="5" stroke-linecap="round" stroke-linejoin="round" d="M17.75,55 C16.3,57.25 15.6,59.75 15.6,62.5 15.6,66.95 17.45,70.7 21.15,73.8 24.9,76.95 29.35,78.5 34.6,78.5 39.85,78.5 44.3,76.95 48,73.8 51.75,70.7 53.6,66.95 53.6,62.5 L53.55,61 C53.3,58.85 52.6,56.85 51.45,55 "/>
      </g>
    </g>
  </g>
</svg>