<?xml version="1.0" encoding="utf-8"?>
<!-- Generator: flash2svg, http://dissentgraphics.com/tools/flash2svg -->
<svg xmlns:xlink="http://www.w3.org/1999/xlink" id="sprite.__202781.__20(Acc).__2F18" image-rendering="optimizeSpeed" baseProfile="basic" version="1.1" style="background-color:#ffffff" x="0px" y="0px" width="550px" height="400px" viewBox="0 0 550 400" enable-background="new 0 0 550 400" xmlns="http://www.w3.org/2000/svg">
  <defs transform="matrix(1 0 0 1 0 0) "/>
  <g id="sprite.__202781.__20(Acc).__2F18">
    <g id="Layer.__219">
      <g id="Graphic.__2Fshape.__202617_1" overflow="visible">
        <g id="Layer.__761">
          <g id="shape1395">
            <path id="path2409" fill="#000000" fill-opacity="1" d="M68.05,-1.35 L57.65,-1.15 C46.35,-1.65 34.8,1.55 23,8.4 18.15,11.2 14.25,14.15 11.2,17.25 8.15,20.35 6.65,22.95 6.65,25.05 L6.8,26.05 C5.65,26.4 5.05,27.35 5.05,28.85 5.05,30.3 18.85,34.4 46.45,41.05 74.1,47.7 91.2,51.05 97.65,51.05 98.8,51.05 101.35,48.7 105.2,44.05 L113.85,33.85 123.85,24.35 129.2,18.9 C130.2,18.55 130.8,17.75 131,16.4 L131.05,16.15 131.05,15.85 131.05,15.45 C131.05,14.25 129.9,12.8 127.6,11.05 124.95,9 121.3,7.15 116.65,5.5 104.2,0.95 88,-1.35 68.05,-1.35z M116.55,11.95 C118.9,13.05 121.1,14.5 123.1,16.3 120.2,18.85 116.2,22.9 111.05,28.45 101.6,38.7 96.5,43.85 95.65,43.85 90.6,43.85 62.9,38.2 12.6,26.9 14.15,25.95 15.9,24.3 17.9,22 L23.85,15.05 C27.05,13 32.35,10.85 39.75,8.5 47.4,6.05 53.2,4.85 57.05,4.85 82.65,4.85 101,6.65 112.15,10.25 113.8,10.8 115.25,11.35 116.55,11.95z"/>
            <path id="path2410" fill="#BBBBBB" fill-opacity="1" d="M116.55,11.95 C115.25,11.35 113.8,10.8 112.15,10.25 101,6.65 82.65,4.85 57.05,4.85 53.2,4.85 47.4,6.05 39.75,8.5 32.35,10.85 27.05,13 23.85,15.05 L17.9,22 C15.9,24.3 14.15,25.95 12.6,26.9 62.9,38.2 90.6,43.85 95.65,43.85 96.5,43.85 101.6,38.7 111.05,28.45 116.2,22.9 120.2,18.85 123.1,16.3 121.1,14.5 118.9,13.05 116.55,11.95z M111.95,10.95 C113.2,11.5 113.7,12.8 113.45,14.95 113.45,16.25 112.4,19.15 110.3,23.7 108,28.6 106.2,31.05 104.85,31.05 103.4,31.05 102.5,30.5 102.1,29.45 101.95,29.1 101.85,28.5 101.85,27.65 101.85,27 103.2,24 105.85,18.65 108.5,13.3 110.05,10.65 110.45,10.65 L111.95,10.95z M91.25,40.65 C90,40.65 86.05,30.9 79.45,11.45 79.45,9.3 80.45,8.25 82.45,8.25 85.2,8.25 89.1,17.8 94.25,36.85 94.25,39.4 93.25,40.65 91.25,40.65z M69.45,30.35 C69.45,32.4 68.3,33.45 66.05,33.45 64.8,33.45 61.75,30 56.85,23.15 52.2,16.6 49.85,13.1 49.85,12.65 49.85,12 50.1,11.4 50.65,10.85 51.25,10.2 52,9.85 52.85,9.85 55.2,9.85 60.7,16.7 69.45,30.35z M41.25,31.05 C39.35,31.05 36.35,29.1 32.25,25.25 28.5,21.7 26.65,19.7 26.65,19.25 26.65,17.25 27.8,16.25 30.05,16.25 L44.65,28.05 C44.65,30.05 43.5,31.05 41.25,31.05z"/>
            <path id="path2411" fill="#000000" fill-opacity="1" d="M111.95,10.95 L110.45,10.65 C110.05,10.65 108.5,13.3 105.85,18.65 103.2,24 101.85,27 101.85,27.65 101.85,28.5 101.95,29.1 102.1,29.45 102.5,30.5 103.4,31.05 104.85,31.05 106.2,31.05 108,28.6 110.3,23.7 112.4,19.15 113.45,16.25 113.45,14.95 113.7,12.8 113.2,11.5 111.95,10.95z"/>
            <path id="path2412" fill="#000000" fill-opacity="1" d="M91.25,40.65 C93.25,40.65 94.25,39.4 94.25,36.85 89.1,17.8 85.2,8.25 82.45,8.25 80.45,8.25 79.45,9.3 79.45,11.45 86.05,30.9 90,40.65 91.25,40.65z"/>
            <path id="path2413" fill="#000000" fill-opacity="1" d="M69.45,30.35 C60.7,16.7 55.2,9.85 52.85,9.85 52,9.85 51.25,10.2 50.65,10.85 50.1,11.4 49.85,12 49.85,12.65 49.85,13.1 52.2,16.6 56.85,23.15 61.75,30 64.8,33.45 66.05,33.45 68.3,33.45 69.45,32.4 69.45,30.35z"/>
            <path id="path2414" fill="#000000" fill-opacity="1" d="M41.25,31.05 C43.5,31.05 44.65,30.05 44.65,28.05 L30.05,16.25 C27.8,16.25 26.65,17.25 26.65,19.25 26.65,19.7 28.5,21.7 32.25,25.25 36.35,29.1 39.35,31.05 41.25,31.05z M119.85,73.85 C117.05,75.4 114.05,76.55 110.8,77.35 96.9,80.75 67.1,82.45 21.45,82.45 L10.45,81.05 8.15,81.25 C7.85,81.5 7.65,81.95 7.55,82.6 6.95,83.15 6.65,84.1 6.65,85.35 11.7,95.35 15.45,101.9 17.9,105 L17.85,105.45 19.1,106.85 C20.25,107.95 21.75,108.95 23.5,109.85 29.15,112.8 36.65,114.25 46.05,114.25 68.2,114.25 86.8,112 101.9,107.45 107.55,105.8 112.05,103.95 115.4,101.95 L117.5,100.65 C119.9,100.1 124.4,91.95 131.05,76.25 131.4,73.6 130.4,72.25 128.05,72.25 L127.8,72.5 126.45,72.25 C123.95,72.25 121.75,72.8 119.85,73.85z M110.3,83.7 C109.85,84.3 109.4,85.2 109.05,86.45 108.5,88.35 108.25,90.15 108.25,91.85 L108.25,93.95 C108.5,94.9 109.15,95.5 110.2,95.75 L107,96.7 93.65,101.25 C79.45,105.65 63.45,107.85 45.65,107.85 38.05,107.85 32.2,107 28.1,105.25 L24.45,103.45 23.45,103.05 17.9,92.9 15.3,88.55 18.45,88.65 C42.8,88.65 63.35,88.1 80.05,87 L96.85,85.55 106.7,84.25 110.3,83.7z"/>
            <path id="path2415" fill="#BBBBBB" fill-opacity="1" d="M110.3,83.7 L106.7,84.25 96.85,85.55 80.05,87 C63.35,88.1 42.8,88.65 18.45,88.65 L15.3,88.55 17.9,92.9 23.45,103.05 24.45,103.45 28.1,105.25 C32.2,107 38.05,107.85 45.65,107.85 63.45,107.85 79.45,105.65 93.65,101.25 L107,96.7 110.2,95.75 C109.15,95.5 108.5,94.9 108.25,93.95 L108.25,91.85 C108.25,90.15 108.5,88.35 109.05,86.45 109.4,85.2 109.85,84.3 110.3,83.7z M83.05,98.1 C82.75,99.8 81.75,100.65 80.05,100.65 78.4,100.65 77.4,99.6 77.05,97.55 L77.05,94.25 77.05,90.05 C77.35,88.3 78.35,87.45 80.05,87.45 82.7,87.45 83.7,89.7 83.05,94.15 L83.05,98.1z M99.85,91.95 C99.85,94.05 99.8,95.35 99.65,95.9 99.3,97.45 98.35,98.25 96.85,98.25 95.2,98.25 94.2,97.25 93.85,95.3 L93.85,92.15 93.85,88.25 C94.15,86.65 95.15,85.85 96.85,85.85 99.5,85.85 100.5,87.9 99.85,91.95z M26.65,93.05 C26.65,90.9 27.65,89.85 29.65,89.85 32.05,89.85 34.1,93.3 35.85,100.15 35.85,102.1 34.7,103.05 32.45,103.05 30.8,103.05 29.3,101.4 28.05,98.15 27.1,95.75 26.65,94.05 26.65,93.05z M44.25,92.65 C44.25,92.1 44.55,91.5 45.1,90.9 45.7,90.2 46.4,89.85 47.25,89.85 49.9,89.85 51.45,93.1 51.85,99.55 51.85,102.4 50.85,103.85 48.85,103.85 47.2,103.85 45.95,102 45.1,98.35 L44.25,92.65z M67.85,96.05 C68.5,100.7 67.5,103.05 64.85,103.05 L63.25,102.8 62.05,102.05 61.85,96.05 C61.7,94.8 61.7,93.6 61.85,92.45 62.2,90.2 63.2,89.05 64.85,89.05 67.5,89.05 68.5,91.4 67.85,96.05z"/>
            <path id="path2416" fill="#000000" fill-opacity="1" d="M83.05,98.1 L83.05,94.15 C83.7,89.7 82.7,87.45 80.05,87.45 78.35,87.45 77.35,88.3 77.05,90.05 L77.05,94.25 77.05,97.55 C77.4,99.6 78.4,100.65 80.05,100.65 81.75,100.65 82.75,99.8 83.05,98.1z"/>
            <path id="path2417" fill="#000000" fill-opacity="1" d="M99.85,91.95 C100.5,87.9 99.5,85.85 96.85,85.85 95.15,85.85 94.15,86.65 93.85,88.25 L93.85,92.15 93.85,95.3 C94.2,97.25 95.2,98.25 96.85,98.25 98.35,98.25 99.3,97.45 99.65,95.9 99.8,95.35 99.85,94.05 99.85,91.95z"/>
            <path id="path2418" fill="#000000" fill-opacity="1" d="M26.65,93.05 C26.65,94.05 27.1,95.75 28.05,98.15 29.3,101.4 30.8,103.05 32.45,103.05 34.7,103.05 35.85,102.1 35.85,100.15 34.1,93.3 32.05,89.85 29.65,89.85 27.65,89.85 26.65,90.9 26.65,93.05z"/>
            <path id="path2419" fill="#000000" fill-opacity="1" d="M44.25,92.65 L45.1,98.35 C45.95,102 47.2,103.85 48.85,103.85 50.85,103.85 51.85,102.4 51.85,99.55 51.45,93.1 49.9,89.85 47.25,89.85 46.4,89.85 45.7,90.2 45.1,90.9 44.55,91.5 44.25,92.1 44.25,92.65z"/>
            <path id="path2420" fill="#000000" fill-opacity="1" d="M67.85,96.05 C68.5,91.4 67.5,89.05 64.85,89.05 63.2,89.05 62.2,90.2 61.85,92.45 61.7,93.6 61.7,94.8 61.85,96.05 L62.05,102.05 63.25,102.8 64.85,103.05 C67.5,103.05 68.5,100.7 67.85,96.05z M115.05,87.55 C115.6,85.15 115.2,83.65 113.9,83 117.55,82.25 120.55,81.5 122.9,80.7 L120.7,84.65 115.25,94.75 113,95.1 C113.5,94.55 113.95,93.75 114.3,92.7 114.8,91.1 115.05,89.4 115.05,87.55z"/>
            <path id="path2421" fill="#BBBBBB" fill-opacity="1" d="M115.05,87.55 C115.05,89.4 114.8,91.1 114.3,92.7 113.95,93.75 113.5,94.55 113,95.1 L115.25,94.75 120.7,84.65 122.9,80.7 C120.55,81.5 117.55,82.25 113.9,83 115.2,83.65 115.6,85.15 115.05,87.55z"/>
          </g>
        </g>
      </g>
    </g>
  </g>
</svg>