<?xml version="1.0" encoding="utf-8"?>
<!-- Generator: flash2svg, http://dissentgraphics.com/tools/flash2svg -->
<svg xmlns:xlink="http://www.w3.org/1999/xlink" id="sprite.__202781.__20(Acc).__2F36" image-rendering="optimizeSpeed" baseProfile="basic" version="1.1" style="background-color:#ffffff" x="0px" y="0px" width="550px" height="400px" viewBox="0 0 550 400" enable-background="new 0 0 550 400" xmlns="http://www.w3.org/2000/svg">
  <defs transform="matrix(1 0 0 1 0 0) "/>
  <g id="sprite.__202781.__20(Acc).__2F36">
    <g id="Layer.__237">
      <g id="Graphic.__2Fshape.__202641_1" overflow="visible">
        <g id="Layer.__1181">
          <g id="shape1809">
            <path id="path3911" fill="#FBFBFB" fill-opacity="1" d="M7.95,-28.5 L9.95,-31.45 5.85,-34.75 5.3,-35.2 -6.5,-44.65 -6.6,-44.75 -6.8,-44.9 -7.6,-45.45 -8.55,-46.1 C-9.4,-46.65 -12.95,-48.25 -19.2,-50.95 -21.35,-52 -23.1,-52.9 -24.45,-53.75 -23.8,-50.1 -23.5,-44.2 -23.5,-36.1 -23.5,-27.45 -21.3,-21.25 -16.85,-17.5 -16.2,-16.95 -15.5,-16.5 -14.75,-16.05 L-12.9,-16.05 C-11.95,-16.05 -11.3,-15.85 -10.9,-15.4 L-10.4,-14.5 -10.2,-14.5 -10.2,-14.25 -10.45,-12.45 -10.7,-12.05 C-10.95,-11.8 -11.55,-11.65 -12.45,-11.65 L-12.85,-11.5 C-14.75,-10.35 -17.7,-9.65 -21.7,-9.4 L-11.15,-8.2 -11.1,-8.7 -11.1,-8.2 -10.65,-8.15 -9.45,-7.95 -9.55,-8.5 -9.35,-9.85 -9.55,-12.4 -7.8,-18.85 C-7.8,-19.2 -8.75,-20.65 -10.65,-23.2 -12.6,-25.7 -13.55,-27.15 -13.55,-27.5 -13.55,-28.15 -13.3,-28.65 -12.75,-28.9 -11.7,-29.4 -10.8,-29.95 -10.1,-30.55 L-13.65,-35.2 C-15.9,-38.15 -17.05,-40.1 -17.05,-41.1 L-16.95,-42.4 -15.95,-42.6 C-14.75,-42.6 -10.45,-40.35 -3,-35.8 3.3,-31.95 6.9,-29.6 7.8,-28.65 L8.6,-29.9 7.9,-28.55 7.95,-28.5z M104.05,-38.6 L103.85,-38.45 C101.65,-37.6 99.8,-36.75 98.25,-35.95 L102.05,-32.65 102.3,-32.55 107.05,-33.75 115.85,-35.6 122.7,-37.25 126.8,-37.8 C128.25,-37.65 128.6,-36.5 127.95,-34.4 L127.6,-32.2 126,-29.1 C127.7,-29.15 128.45,-28.6 128.3,-27.45 128.25,-27.1 127.2,-26.15 125.15,-24.55 123,-22.95 121.6,-22.1 120.95,-21.95 121,-21.15 121.25,-20 121.75,-18.45 122.1,-17.25 122.25,-16.25 122.2,-15.4 L122.2,-15.25 121.85,-13.4 120.8,-13.2 120.8,-13.15 125.05,-8.5 C125.3,-9.2 126.3,-9.8 128,-10.25 L128.65,-10.4 128.85,-10.45 132.2,-11.95 132.5,-12.15 132.7,-12.3 132,-12.4 131.9,-12.4 131.8,-12.45 128.4,-13.05 127.7,-13.15 127.15,-13.3 125.65,-13.7 125.45,-13.75 125.25,-13.75 123.1,-14.35 122.55,-14.9 122.55,-14.95 122.45,-15.5 122.55,-16.35 122.6,-16.45 122.6,-16.5 C122.7,-17.55 123.15,-18.05 124,-18.1 L124.05,-18.1 125.45,-19.35 128.25,-21.7 128.45,-21.9 128.55,-21.95 128.65,-22.05 C132.8,-26.3 135.2,-30.9 135.9,-35.9 L136.6,-41.7 C136.7,-43.95 136.4,-46 135.7,-47.85 L134.6,-47.6 134.45,-47.55 134.05,-47.45 133.6,-47.35 132.4,-47 132,-46.95 104.4,-38.7 104.05,-38.6z"/>
            <path id="path3912" fill="#000000" fill-opacity="1" d="M5.3,-35.2 L5.85,-34.75 9.95,-31.45 10.35,-31.15 10.5,-31 C11.35,-31.05 11.9,-31.15 12.15,-31.35 L12.5,-31.7 12.75,-33.7 C-3.25,-50.75 -15.95,-59.25 -25.3,-59.25 L-27.45,-59.05 C-27.7,-58.9 -27.8,-58.5 -27.85,-57.85 -28.35,-57.3 -28.65,-56.3 -28.8,-54.9 L-28.8,-49.9 C-29.2,-43.15 -28.8,-36.65 -27.65,-30.4 -26.4,-23.45 -24.3,-18.45 -21.3,-15.4 -25.1,-14.6 -27,-13.15 -27,-11 L-27.1,-9.4 C-27.05,-8.5 -26.75,-7.7 -26.2,-6.95 -24.5,-4.8 -20.5,-3.7 -14.25,-3.7 L-7.2,-3.95 C-6.3,-4.15 -5.85,-4.85 -5.85,-6.05 L-5.85,-6.3 -5.9,-6.35 -5.9,-6.4 -6.15,-6.8 -6.9,-7.25 -7.15,-7.4 -7.4,-7.45 -8.35,-7.75 -9.45,-7.95 -10.65,-8.15 -11.1,-8.2 -11.15,-8.2 -21.7,-9.4 C-17.7,-9.65 -14.75,-10.35 -12.85,-11.5 L-12.55,-11.65 -12.45,-11.65 C-11.55,-11.65 -10.95,-11.8 -10.7,-12.05 L-10.45,-12.45 -10.2,-14.25 -10.2,-14.5 -10.4,-14.5 -10.9,-15.4 C-11.3,-15.85 -11.95,-16.05 -12.9,-16.05 L-14.75,-16.05 C-15.5,-16.5 -16.2,-16.95 -16.85,-17.5 -21.3,-21.25 -23.5,-27.45 -23.5,-36.1 -23.5,-44.2 -23.8,-50.1 -24.45,-53.75 -23.1,-52.9 -21.35,-52 -19.2,-50.95 -12.95,-48.25 -9.4,-46.65 -8.55,-46.1 L-7.6,-45.45 -6.8,-44.9 -6.6,-44.75 -6.5,-44.65 5.3,-35.2z M103.85,-38.45 L104.05,-38.6 104.4,-38.7 132,-46.95 132.4,-47 133.6,-47.35 134.05,-47.45 134.45,-47.55 134.6,-47.6 135.7,-47.85 C136.4,-46 136.7,-43.95 136.6,-41.7 L135.9,-35.9 C135.2,-30.9 132.8,-26.3 128.65,-22.05 L128.55,-21.95 128.45,-21.9 128.25,-21.7 125.45,-19.35 124.05,-18.1 124,-18.1 C123.15,-18.05 122.7,-17.55 122.6,-16.5 L122.6,-16.45 122.55,-16.35 122.45,-15.5 122.55,-14.95 122.55,-14.9 123.1,-14.35 125.25,-13.75 125.45,-13.75 125.65,-13.7 127.15,-13.3 127.7,-13.15 128.4,-13.05 131.8,-12.45 131.9,-12.4 132,-12.4 132.7,-12.3 132.5,-12.15 132.2,-11.95 128.85,-10.45 128.65,-10.4 128,-10.25 C126.3,-9.8 125.3,-9.2 125.05,-8.5 L124.95,-8.25 C124.8,-7.3 124.8,-6.8 124.9,-6.7 L125,-6.85 C125.65,-6 126.65,-5.5 128.1,-5.3 130.45,-5 132.7,-5.8 134.85,-7.7 136.75,-9.4 137.8,-11.05 138.05,-12.7 L138.4,-13.35 C138.55,-13.8 138.55,-14.25 138.3,-14.65 137.85,-15.5 136.45,-16.25 134.2,-16.8 135.5,-18.25 136.6,-20.15 137.55,-22.5 138.5,-24.9 139.35,-29.1 140.15,-35.1 L140.85,-38.25 141.6,-45.1 C141.95,-51.75 140.6,-55.25 137.65,-55.65 129.5,-51 124.4,-48.25 122.25,-47.5 120.15,-46.75 117.3,-45.95 113.75,-45.2 L105.15,-43.35 C98.8,-41.9 95.5,-40.2 95.25,-38.35 95.1,-37.4 95.25,-36.65 95.6,-36.2 L97,-35.3 98.25,-35.95 C99.8,-36.75 101.65,-37.6 103.85,-38.45z"/>
            <path id="path3913" fill="#E6E6E6" fill-opacity="1" d="M1.85,-19.85 L7.8,-28.65 C6.9,-29.6 3.3,-31.95 -3,-35.8 -10.45,-40.35 -14.75,-42.6 -15.95,-42.6 L-16.95,-42.4 -17.05,-41.1 C-17.05,-40.1 -15.9,-38.15 -13.65,-35.2 L-10.1,-30.55 C-10.8,-29.95 -11.7,-29.4 -12.75,-28.9 -13.3,-28.65 -13.55,-28.15 -13.55,-27.5 -13.55,-27.15 -12.6,-25.7 -10.65,-23.2 -8.75,-20.65 -7.8,-19.2 -7.8,-18.85 L-9.55,-12.4 -9.35,-9.85 -9.55,-8.5 -9.45,-7.95 -8.35,-7.75 -7.4,-7.45 -7.15,-7.4 1.85,-19.85z M-12.55,-11.65 L-12.45,-11.65 -12.85,-11.5 -12.55,-11.65z M-11.15,-8.2 L-11.1,-8.7 -11.1,-8.2 -11.15,-8.2z M107.05,-33.75 L102.3,-32.55 102.05,-32.65 102.15,-32.575 L102.3,-32.5 L102.15,-32.575 100.65,-33.5 102.35,-31.85 C102.55,-31.6 102.95,-31.35 103.6,-31.2 L114.15,-20.4 120.8,-13.15 120.8,-13.2 121.85,-13.4 122.2,-15.25 122.2,-15.4 C122.25,-16.25 122.1,-17.25 121.75,-18.45 121.25,-20 121,-21.15 120.95,-21.95 121.6,-22.1 123,-22.95 125.15,-24.55 127.2,-26.15 128.25,-27.1 128.3,-27.45 128.45,-28.6 127.7,-29.15 126,-29.1 L127.6,-32.2 127.95,-34.4 C128.6,-36.5 128.25,-37.65 126.8,-37.8 L122.7,-37.25 115.85,-35.6 107.05,-33.75z"/>
          </g>
        </g>
      </g>
    </g>
  </g>
</svg>