<?xml version="1.0" encoding="utf-8"?>
<!-- Generator: flash2svg, http://dissentgraphics.com/tools/flash2svg -->
<svg xmlns:xlink="http://www.w3.org/1999/xlink" id="sprite.__202781.__20(Acc).__2F50" image-rendering="optimizeSpeed" baseProfile="basic" version="1.1" style="background-color:#ffffff" x="0px" y="0px" width="550px" height="400px" viewBox="0 0 550 400" enable-background="new 0 0 550 400" xmlns="http://www.w3.org/2000/svg">
  <defs transform="matrix(1 0 0 1 0 0) "/>
  <g id="sprite.__202781.__20(Acc).__2F50">
    <g id="Layer.__201">
      <g id="MovieClip.__2Fsprite.__202658_1" overflow="visible">
        <g id="Layer.__349">
          <g id="Graphic.__2Fshape.__202747_2" overflow="visible">
            <g id="Layer.__350">
              <g id="shape1013">
                <path id="path1058" fill="#FFE711" fill-opacity="1" d="M253.838,0.85 Q252.113,-0.05 246.863,-2.15 C242.85,-3.762 240.413,-4.587 239.588,-4.587 L239.1,-4.55 239.025,-4.587 238.913,-4.512 238.2,-4.1 C233.888,-1.587 229.425,1.712 224.888,5.8 L213.263,17.088 C211.613,18.7 208.538,22.638 204.038,28.825 199.5,35.088 197.213,38.575 197.213,39.288 L197.438,40.113 C197.288,40.15 197.213,40.188 197.213,40.263 197.25,41.725 199.013,44.725 202.463,49.263 205.725,53.575 209.025,57.325 212.325,60.513 L223.463,70.788 C228.338,75.1 232.013,77.988 234.525,79.45 235.763,80.163 236.7,80.538 237.338,80.538 237.375,80.913 237.413,80.988 237.45,80.762 237.713,81.1 238.238,81.288 239.025,81.288 240.113,81.288 243.45,79.113 249,74.725 L260.138,65.95 260.4,65.725 282.863,48.55 C278.7,41.425 274.65,35.5 270.75,30.775 265.088,23.95 261.225,20.538 259.087,20.538 L258.188,20.613 C258.038,20.725 257.962,20.988 257.962,21.4 L258.113,21.55 259.688,23.425 280.65,47.725 C269.288,55.788 255.188,66.363 238.35,79.45 237.75,79.788 234.863,77.875 229.725,73.713 224.55,69.55 220.95,66.4 218.925,64.338 L214.575,59.913 C213.563,58.9 210.525,55.075 205.538,48.513 202.425,44.425 200.25,41.8 199.088,40.675 204.975,29.763 213.563,19.15 224.813,8.8 230.063,4 234.788,0.1 238.988,-2.863 244.05,-0.875 252.188,2.688 263.4,7.825 L261.75,10.038 261.263,10.9 260.4,12.55 C249.525,6.363 243.038,3.288 240.9,3.288 L240.638,3.288 240.525,3.288 240.413,3.325 240.075,3.438 C238.95,3.962 236.175,5.913 231.75,9.25 226.313,13.337 222.488,16.525 220.275,18.775 L212.363,27.663 C208.5,32.2 206.588,34.788 206.588,35.5 L206.7,35.988 206.588,36.813 211.163,43.563 C222.9,60.738 230.325,70.938 233.438,74.163 L234.9,75.288 235.313,75.25 235.463,75.288 236.213,75.063 C239.513,73.525 252.6,64.9 275.475,49.15 L275.775,49.413 C276.413,49.413 276.675,49.3 276.563,49.075 L276.713,48.288 276.713,48.213 C276.713,47.725 275.55,46.15 273.188,43.488 L267.938,37.6 267.188,36.625 262.8,31.45 C260.288,28.713 258.375,27.213 257.063,26.95 L256.688,26.913 256.65,26.913 256.05,27.1 C254.775,27.663 252.038,29.65 247.875,33.025 243.788,36.363 241.35,38.575 240.6,39.738 240.413,39.775 240.338,39.813 240.338,39.888 L240.375,40.15 240.375,40.225 240.338,40.3 C240.338,40.675 240.45,40.975 240.675,41.2 241.088,42.363 241.875,43.788 243.038,45.4 L246.713,49.938 247.275,50.538 C247.913,50.538 248.175,50.425 248.063,50.2 L248.213,49.338 248.1,49.15 C248.588,47.988 249.6,46.488 251.213,44.65 L253.688,41.8 253.95,41.463 254.025,41.538 254.588,42.025 255.188,42.363 255.563,42.55 255.413,43.263 C254.85,45.475 253.425,48.025 251.213,50.838 L247.725,55.113 239.25,46.188 234.3,40.975 236.288,39.138 C240.375,35.5 247.5,29.913 257.587,22.45 L257.962,22.188 257.888,21.738 257.663,21.475 257.025,21.288 255.488,22.338 C250.275,25.788 245.925,28.788 242.513,31.3 236.475,35.688 233.175,38.65 232.575,40.15 L232.463,40.263 232.5,40.375 232.463,40.6 232.688,41.125 C233.475,43.488 235.238,46.113 238.013,49.038 243.263,54.55 246.488,57.288 247.65,57.288 L247.819,57.288 247.838,57.288 248.025,57.288 248.438,57.138 C249.6,56.538 251.325,54.325 253.65,50.538 256.275,46.263 257.587,43.675 257.587,42.738 257.775,41.425 257.475,40.788 256.688,40.788 L254.625,39.588 C254.438,39.438 254.25,39.363 254.063,39.325 L254.025,39.288 253.875,39.288 253.838,39.288 253.2,39.363 C253.125,39.4 253.088,39.625 253.088,40 L250.05,43.488 C248.663,45.1 247.65,46.338 247.05,47.2 245.213,43.863 243.75,41.65 242.663,40.525 249.038,35.763 253.65,31.9 256.538,28.863 L274.5,48.138 C273.038,48.888 270.375,50.425 266.438,52.788 260.513,56.35 256.613,58.788 254.775,60.138 251.438,62.575 244.988,67 235.5,73.45 232.238,69.288 226.688,61.6 218.775,50.388 213.113,42.4 209.588,37.563 208.2,35.875 213.375,29.613 220.463,22.525 229.425,14.65 L239.063,6.475 241.013,4.863 250.913,9.587 259.837,13.788 260.4,13.675 C260.55,13.863 260.813,14.05 261.15,14.163 261.488,14.013 262.35,13 263.738,11.125 265.125,9.25 265.838,8.125 265.838,7.712 L265.838,7.637 265.838,7.6 265.275,6.813 C264.488,5.913 262.988,4.975 260.85,4 257.513,2.613 255.188,1.563 253.838,0.85z"/>
                <path id="path1059" fill="#FFFF22" fill-opacity="1" d="M261.263,10.9 L261.75,10.038 263.4,7.825 C252.188,2.688 244.05,-0.875 238.988,-2.863 234.788,0.1 230.063,4 224.813,8.8 213.563,19.15 204.975,29.763 199.088,40.675 200.25,41.8 202.425,44.425 205.538,48.513 210.525,55.075 213.563,58.9 214.575,59.913 L218.925,64.338 C220.95,66.4 224.55,69.55 229.725,73.713 234.863,77.875 237.75,79.788 238.35,79.45 255.188,66.363 269.288,55.788 280.65,47.725 L259.688,23.425 258.113,21.55 257.888,21.738 257.962,22.188 257.587,22.45 C247.5,29.913 240.375,35.5 236.288,39.138 L234.3,40.975 239.25,46.188 247.725,55.113 251.213,50.838 C253.425,48.025 254.85,45.475 255.413,43.263 L255.563,42.55 255.188,42.363 254.588,42.025 254.025,41.538 253.95,41.463 253.688,41.8 251.213,44.65 C249.6,46.488 248.588,47.988 248.1,49.15 L248.213,49.338 248.063,50.2 C248.175,50.425 247.913,50.538 247.275,50.538 L246.713,49.938 243.038,45.4 C241.875,43.788 241.088,42.363 240.675,41.2 240.45,40.975 240.338,40.675 240.338,40.3 L240.375,40.225 240.375,40.15 240.338,39.888 C240.338,39.813 240.413,39.775 240.6,39.738 241.35,38.575 243.788,36.363 247.875,33.025 252.038,29.65 254.775,27.663 256.05,27.1 L256.65,26.913 256.688,26.913 257.063,26.95 C258.375,27.213 260.288,28.713 262.8,31.45 L267.188,36.625 267.938,37.6 273.188,43.488 C275.55,46.15 276.713,47.725 276.713,48.213 L276.713,48.288 276.563,49.075 C276.675,49.3 276.413,49.413 275.775,49.413 L275.475,49.15 C252.6,64.9 239.513,73.525 236.213,75.063 L235.463,75.288 235.313,75.25 234.9,75.288 233.438,74.163 C230.325,70.938 222.9,60.738 211.163,43.563 L206.588,36.813 206.7,35.988 206.588,35.5 C206.588,34.788 208.5,32.2 212.363,27.663 L220.275,18.775 C222.488,16.525 226.313,13.337 231.75,9.25 236.175,5.913 238.95,3.962 240.075,3.438 L240.413,3.325 240.525,3.288 240.638,3.288 240.9,3.288 C243.038,3.288 249.525,6.363 260.4,12.55 L261.263,10.9z"/>
              </g>
            </g>
          </g>
        </g>
      </g>
    </g>
    <g id="Layer.__202">
      <g id="MovieClip.__2Fsprite.__202660_1" overflow="visible">
        <g id="Layer.__351">
          <g id="Graphic.__2Fshape.__202749_2" overflow="visible">
            <g id="Layer.__352">
              <g id="shape1014">
                <path id="path1060" fill="#FFE711" fill-opacity="1" d="M252.5,-26.5 C252.15,-25.05 252,-24 252,-23.35 L252.05,-22.6 C252.7,-22.25 256.85,-20.55 264.5,-17.5 285.15,-42.45 295.5,-55.3 295.5,-56.1 281.55,-60.7 273.15,-63 270.25,-63 L261.3,-45.25 C255.45,-33.3 252.5,-27.05 252.5,-26.5z M291.05,-54.85 C287.7,-51.4 282.1,-44.7 274.35,-34.75 L263.75,-21 C262.8,-21 261.2,-21.5 258.95,-22.5 L254.25,-24.6 C255.1,-26.8 258.25,-32.7 263.7,-42.25 268,-49.8 270.45,-55.75 271,-60.1 275.45,-59.6 282.25,-58 291.5,-55.25 L291.05,-54.85z M287.5,5.95 C287.85,8 288.85,9 290.5,9 312.85,3.75 324,1.05 324,0.9 L314.75,-12.5 C303,-7.05 293.95,-4 287.55,-3.25 L287.5,2.75 C287.35,3.85 287.35,4.9 287.5,5.95z M313.75,-8.6 L314.1,-8.6 C314.25,-7.55 315.15,-6.1 316.7,-4.25 L320,-0.25 306.1,2.35 C300.55,3.35 296,4.65 292.5,6.25 L290,6.25 290,0.25 C291.35,-1.1 294.9,-2.5 300.75,-4 302.45,-4.25 304.95,-5.15 308.3,-6.6 311.4,-7.95 313.2,-8.6 313.75,-8.6z M304.5,36.8 C303.85,36.85 303.55,37 303.65,37.15 L304,37.65 C304,40.65 303.85,43.45 303.5,46.1 L303.55,49.3 C303.75,50.35 305.8,50.85 309.75,50.8 L328.5,50.5 C335.35,50.5 339.35,50.15 340.5,49.5 341.15,49.15 341.15,48.5 340.5,47.6 340.15,45.05 340,43.2 340,42 L340,37.8 339.75,37.15 322,36.5 C311.95,36.5 306.15,36.6 304.5,36.8z M317.8,47.75 L306,47.3 306,44.5 306.25,41.15 C306.3,39.9 306.55,39.25 307,39.25 L307,39.05 337.5,39.05 C337.5,42.85 337.65,45.75 338,47.75 L317.8,47.75z M291.25,80.2 L285.25,76 C284.4,76 283.85,76.25 283.5,76.75 283.5,77.65 283.9,78.25 284.75,78.5 L281.05,83.1 C278.7,86.05 277.5,87.95 277.5,88.75 277.5,89.2 281.25,92.15 288.8,97.7 296.8,103.55 302.1,106.5 304.75,106.5 314.25,98.7 319,94.45 319,93.75 319,93 316.4,91.55 311.15,89.4 307.25,87.8 304.2,86.65 302.05,86 299.35,85.15 295.75,83.2 291.25,80.2z M315.55,94.05 L315.25,94.5 C309.1,100.35 305.55,103.3 304.55,103.3 303.6,103.3 300.25,101.6 294.55,98.15 289.1,94.9 284.25,91.8 280,88.75 L287,80.05 C289.7,82.3 293.8,84.65 299.35,87 308.65,90.95 314.05,93.3 315.55,94.05z M248.15,127.65 C247.4,124.7 246.85,121.25 246.5,117.25 246.65,112.45 246.5,108.75 245.95,106.15 244.9,101.4 242,99 237.25,99 L232.25,99.25 C225.55,99.7 222.1,101.05 221.9,103.35 221.85,104.05 222.05,105.1 222.6,106.55 223.2,108.05 223.5,109.1 223.5,109.75 L223.5,121.35 223.65,142.75 225,143 C232.05,143 238,142.1 242.8,140.3 246.95,138.75 249,137.2 249,135.55 249,132.45 248.7,129.8 248.15,127.65z M246.5,135.15 C246.5,136.05 244.1,137 239.3,138.05 234.6,139.05 230.3,139.55 226.45,139.55 225.6,139.55 225.45,139.45 226,139.3 L226,103 226.15,102.25 231.65,101.75 241,101.55 C244.65,121.3 246.5,132.5 246.5,135.15z M130.4,15.95 C130.45,16.95 130.8,17.7 131.45,18.25 132.9,19.45 137.5,20.5 145.15,21.4 148.4,21.75 154.15,22.8 162.45,24.5 L174,27 C175.05,27 176.45,25.1 178.15,21.25 179.7,17.7 180.5,15.25 180.5,13.95 180.5,13.2 180.1,12.55 179.25,12 178.7,12.45 178.4,13 178.25,13.55 178.15,13.85 177.95,14 177.6,14 L167.15,12.95 C159.8,12.1 154.15,11.3 150.25,10.5 145.7,9.65 139.75,8.3 132.5,6.5 L130.65,6.75 130.5,12.75 130.4,15.95z M133,9.25 C137.25,10.7 142.25,11.8 148,12.55 L176.9,16.65 C175.35,19.9 174.3,22.4 173.75,24.25 L133,16.75 133,9.25z M198.4,-50.5 L201,-30.4 C201.95,-22.55 203.8,-16 206.5,-10.75 201.15,-8.95 198.5,-7.8 198.5,-7.35 L198.65,-6.6 C199.05,-6.2 199.6,-6 200.25,-6 201.9,-6 203.75,-6.6 205.9,-7.75 207.95,-8.9 209,-9.85 209,-10.6 209,-11 208.05,-14.2 206.15,-20.2 204.2,-26.4 203.15,-30.45 203,-32.35 201.85,-46.8 200.3,-54 198.25,-54 189.1,-49.85 184.5,-47.7 184.5,-47.55 184.5,-46.85 185.2,-43.9 186.65,-38.75 188.1,-33.4 189.3,-29.65 190.15,-27.5 190.65,-26.2 191.75,-22.65 193.5,-16.8 194.8,-12.3 196.05,-9.05 197.25,-7 L198.4,-7.35 198.5,-10.35 C198.5,-12.1 194.9,-24.1 187.65,-46.35 L197.6,-50.85 C197.95,-50.6 198.25,-50.5 198.4,-50.5z M193.65,68.7 C190.45,64.25 188.15,62 186.75,62 167.9,81.25 158.5,91.05 158.5,91.5 165.75,101.5 170.5,106.5 172.75,106.5 177.75,99.05 181.4,94.05 183.75,91.5 L192.5,83.9 C196.15,80.65 198,77.85 198,75.5 198,75.05 196.55,72.75 193.65,68.7z M191.25,70 C193.85,73.15 195.15,75.15 195.15,76 195.15,76.5 192.15,79.95 186.1,86.35 179.1,93.7 174.35,99.2 171.9,102.8 169.75,101.65 167.9,99.85 166.35,97.4 164.7,94.75 163.05,92.9 161.4,91.8 L186,65.25 C186.9,65.25 188.65,66.85 191.25,70z"/>
                <path id="path1061" fill="#FFFF22" fill-opacity="1" d="M291.05,-54.85 L291.5,-55.25 C282.25,-58 275.45,-59.6 271,-60.1 270.45,-55.75 268,-49.8 263.7,-42.25 258.25,-32.7 255.1,-26.8 254.25,-24.6 L258.95,-22.5 C261.2,-21.5 262.8,-21 263.75,-21 L274.35,-34.75 C282.1,-44.7 287.7,-51.4 291.05,-54.85z"/>
                <path id="path1062" fill="#FFFF22" fill-opacity="1" d="M313.75,-8.6 C313.2,-8.6 311.4,-7.95 308.3,-6.6 304.95,-5.15 302.45,-4.25 300.75,-4 294.9,-2.5 291.35,-1.1 290,0.25 L290,6.25 292.5,6.25 C296,4.65 300.55,3.35 306.1,2.35 L320,-0.25 316.7,-4.25 C315.15,-6.1 314.25,-7.55 314.1,-8.6 L313.75,-8.6z"/>
                <path id="path1063" fill="#FFFF22" fill-opacity="1" d="M317.8,47.75 L338,47.75 C337.65,45.75 337.5,42.85 337.5,39.05 L307,39.05 307,39.25 C306.55,39.25 306.3,39.9 306.25,41.15 L306,44.5 306,47.3 317.8,47.75z"/>
                <path id="path1064" fill="#FFFF22" fill-opacity="1" d="M315.55,94.05 C314.05,93.3 308.65,90.95 299.35,87 293.8,84.65 289.7,82.3 287,80.05 L280,88.75 C284.25,91.8 289.1,94.9 294.55,98.15 300.25,101.6 303.6,103.3 304.55,103.3 305.55,103.3 309.1,100.35 315.25,94.5 L315.55,94.05z"/>
                <path id="path1065" fill="#FFFF22" fill-opacity="1" d="M246.5,135.15 C246.5,132.5 244.65,121.3 241,101.55 L231.65,101.75 226.15,102.25 226,103 226,139.3 C225.45,139.45 225.6,139.55 226.45,139.55 230.3,139.55 234.6,139.05 239.3,138.05 244.1,137 246.5,136.05 246.5,135.15z"/>
                <path id="path1066" fill="#FFFF22" fill-opacity="1" d="M133,9.25 L133,16.75 173.75,24.25 C174.3,22.4 175.35,19.9 176.9,16.65 L148,12.55 C142.25,11.8 137.25,10.7 133,9.25z M201,-30.4 L198.4,-50.5 C198.25,-50.5 197.95,-50.6 197.6,-50.85 L187.65,-46.35 C194.9,-24.1 198.5,-12.1 198.5,-10.35 L198.4,-7.35 198.5,-7.35 C198.5,-7.8 201.15,-8.95 206.5,-10.75 203.8,-16 201.95,-22.55 201,-30.4z"/>
                <path id="path1067" fill="#FFFF22" fill-opacity="1" d="M191.25,70 C188.65,66.85 186.9,65.25 186,65.25 L161.4,91.8 C163.05,92.9 164.7,94.75 166.35,97.4 167.9,99.85 169.75,101.65 171.9,102.8 174.35,99.2 179.1,93.7 186.1,86.35 192.15,79.95 195.15,76.5 195.15,76 195.15,75.15 193.85,73.15 191.25,70z"/>
              </g>
            </g>
          </g>
        </g>
      </g>
    </g>
  </g>
</svg>