<?xml version="1.0" encoding="utf-8"?>
<!-- Generator: flash2svg, http://dissentgraphics.com/tools/flash2svg -->
<svg xmlns:xlink="http://www.w3.org/1999/xlink" id="sprite.__202781.__20(Acc).__2F67" image-rendering="optimizeSpeed" baseProfile="basic" version="1.1" style="background-color:#ffffff" x="0px" y="0px" width="550px" height="400px" viewBox="0 0 550 400" enable-background="new 0 0 550 400" xmlns="http://www.w3.org/2000/svg">
  <defs transform="matrix(1 0 0 1 0 0) "/>
  <g id="sprite.__202781.__20(Acc).__2F67">
    <g id="Layer.__220">
      <g id="Graphic.__2Fshape.__202685_1" overflow="visible">
        <g id="Layer.__621">
          <g id="shape1277" transform="matrix(1 0 0 1 -33.399 -40.449)"/>
        </g>
        <g id="Layer.__622">
          <g id="shape1278">
            <path id="path1977" fill="#832517" fill-opacity="1" d="M-41.5,-12 Q-43.75,-10.7 -44.45,-8.15 C-44.9,-6.45 -44.65,-4.85 -43.8,-3.35 -42.95,-1.85 -41.65,-0.9 -40,-0.45 -38.3,0 -36.7,-0.2 -35.2,-1.05 -33.7,-1.9 -32.75,-3.2 -32.3,-4.9 -31.85,-6.55 -32.05,-8.15 -32.9,-9.65 -33.75,-11.15 -35.05,-12.15 -36.75,-12.6 -38.4,-13.05 -40,-12.85 -41.5,-12z"/>
            <path id="path1978" fill="none" stroke="#000000" stroke-opacity="1" stroke-width="2" stroke-linecap="round" stroke-linejoin="round" d="M-41.5,-12 Q-43.75,-10.7 -44.45,-8.15 C-44.9,-6.45 -44.65,-4.85 -43.8,-3.35 -42.95,-1.85 -41.65,-0.9 -40,-0.45 -38.3,0 -36.7,-0.2 -35.2,-1.05 -33.7,-1.9 -32.75,-3.2 -32.3,-4.9 -31.85,-6.55 -32.05,-8.15 -32.9,-9.65 -33.75,-11.15 -35.05,-12.15 -36.75,-12.6 -38.4,-13.05 -40,-12.85 -41.5,-12z"/>
          </g>
        </g>
        <g id="Layer.__623">
          <g id="shape1279">
            <path id="path1979" fill="#832517" fill-opacity="1" d="M-28.35,-9.2 Q-30.6,-7.9 -31.3,-5.35 C-31.75,-3.65 -31.5,-2.05 -30.65,-0.55 -29.8,0.95 -28.5,1.9 -26.85,2.35 -25.15,2.8 -23.55,2.6 -22.05,1.75 -20.55,0.9 -19.6,-0.4 -19.15,-2.1 -18.7,-3.75 -18.9,-5.35 -19.75,-6.85 -20.6,-8.35 -21.9,-9.35 -23.6,-9.8 -25.25,-10.25 -26.85,-10.05 -28.35,-9.2z"/>
            <path id="path1980" fill="none" stroke="#000000" stroke-opacity="1" stroke-width="2" stroke-linecap="round" stroke-linejoin="round" d="M-28.35,-9.2 Q-30.6,-7.9 -31.3,-5.35 C-31.75,-3.65 -31.5,-2.05 -30.65,-0.55 -29.8,0.95 -28.5,1.9 -26.85,2.35 -25.15,2.8 -23.55,2.6 -22.05,1.75 -20.55,0.9 -19.6,-0.4 -19.15,-2.1 -18.7,-3.75 -18.9,-5.35 -19.75,-6.85 -20.6,-8.35 -21.9,-9.35 -23.6,-9.8 -25.25,-10.25 -26.85,-10.05 -28.35,-9.2z"/>
          </g>
        </g>
        <g id="Layer.__624">
          <g id="shape1280">
            <path id="path1981" fill="#832517" fill-opacity="1" d="M136.45,-9.15 Q135.75,-6.65 137.1,-4.35 C137.95,-2.8 139.25,-1.85 140.9,-1.4 142.55,-0.95 144.15,-1.2 145.7,-2.05 147.2,-2.9 148.2,-4.2 148.65,-5.85 149.1,-7.5 148.85,-9.1 148,-10.65 147.1,-12.2 145.8,-13.15 144.15,-13.6 142.5,-14.05 140.9,-13.8 139.4,-12.95 137.85,-12.1 136.9,-10.8 136.45,-9.15z"/>
            <path id="path1982" fill="none" stroke="#000000" stroke-opacity="1" stroke-width="2" stroke-linecap="round" stroke-linejoin="round" d="M136.45,-9.15 Q135.75,-6.65 137.1,-4.35 C137.95,-2.8 139.25,-1.85 140.9,-1.4 142.55,-0.95 144.15,-1.2 145.7,-2.05 147.2,-2.9 148.2,-4.2 148.65,-5.85 149.1,-7.5 148.85,-9.1 148,-10.65 147.1,-12.2 145.8,-13.15 144.15,-13.6 142.5,-14.05 140.9,-13.8 139.4,-12.95 137.85,-12.1 136.9,-10.8 136.45,-9.15z"/>
          </g>
        </g>
        <g id="Layer.__625">
          <g id="shape1281">
            <path id="path1983" fill="#832517" fill-opacity="1" d="M147.8,-16.5 Q147.1,-14 148.45,-11.7 C149.3,-10.15 150.6,-9.2 152.25,-8.75 153.9,-8.3 155.5,-8.55 157.05,-9.4 158.55,-10.25 159.55,-11.55 160,-13.2 160.45,-14.85 160.2,-16.45 159.35,-18 158.45,-19.55 157.15,-20.5 155.5,-20.95 153.85,-21.4 152.25,-21.15 150.75,-20.3 149.2,-19.45 148.25,-18.15 147.8,-16.5z"/>
            <path id="path1984" fill="none" stroke="#000000" stroke-opacity="1" stroke-width="2" stroke-linecap="round" stroke-linejoin="round" d="M147.8,-16.5 Q147.1,-14 148.45,-11.7 C149.3,-10.15 150.6,-9.2 152.25,-8.75 153.9,-8.3 155.5,-8.55 157.05,-9.4 158.55,-10.25 159.55,-11.55 160,-13.2 160.45,-14.85 160.2,-16.45 159.35,-18 158.45,-19.55 157.15,-20.5 155.5,-20.95 153.85,-21.4 152.25,-21.15 150.75,-20.3 149.2,-19.45 148.25,-18.15 147.8,-16.5z"/>
          </g>
        </g>
      </g>
    </g>
  </g>
</svg>