<?xml version="1.0" encoding="utf-8"?>
<!-- Generator: flash2svg, http://dissentgraphics.com/tools/flash2svg -->
<svg xmlns:xlink="http://www.w3.org/1999/xlink" id="sprite.__202781.__20(Acc).__2F68" image-rendering="optimizeSpeed" baseProfile="basic" version="1.1" style="background-color:#ffffff" x="0px" y="0px" width="550px" height="400px" viewBox="0 0 550 400" enable-background="new 0 0 550 400" xmlns="http://www.w3.org/2000/svg">
  <defs transform="matrix(1 0 0 1 0 0) "/>
  <g id="sprite.__202781.__20(Acc).__2F68">
    <g id="Layer.__221">
      <g id="Graphic.__2Fshape.__202687_1" overflow="visible">
        <g id="Layer.__640">
          <g id="shape1296">
            <path id="path2034" fill="#000000" fill-opacity="1" d="M67.05,102.55 L65.25,102.8 64.8,103.05 C63.25,104.95 62.3,107.35 61.85,110.2 61.65,111.45 62.15,114.85 63.4,120.5 64.15,123.95 67.25,133.1 72.8,147.95 72.55,148.45 70.9,148.1 67.8,146.95 64.65,145.75 60,142.2 53.8,136.25 47.6,130.3 42.65,124.15 39,117.7 35.3,111.25 33,107.35 32.05,106.05 L30.65,106.95 30.45,106.85 C29.5,107.4 28.55,108.9 27.5,111.25 26.55,113.5 26.05,115.2 26.05,116.45 26.05,118.05 26.35,119.95 26.95,122.2 L26.95,121.95 C27.3,124.15 28.7,127.15 31.15,130.9 34.2,135.65 38.05,140.25 42.7,144.65 52.3,153.8 62,159.35 71.8,161.3 L69.9,161.9 C63.4,163.85 53.3,164.85 39.55,164.85 37.4,164.85 33.7,164.25 28.35,163.05 L20.85,161.25 18.1,160.95 17.05,165.4 C16.65,166.9 16.45,168.1 16.45,169.05 L16.45,170.25 C16.15,170.8 16.05,172.15 16.2,174.2 L16.2,174.6 16.2,174.7 16.3,174.65 20.55,176 C24.4,176.95 30.25,177.45 38.05,177.6 57.5,211.5 72.05,228.45 81.65,228.45 87,228.45 92.85,226.25 99.25,221.9 105.4,217.7 108.45,214.1 108.45,211.15 108.45,210.8 107,208.05 104.05,202.9 L100.65,197.3 94.25,185.05 C96.5,184.45 99.75,183 104.05,180.65 108.35,178.25 111.2,174.55 112.6,169.5 112.1,166.85 111.35,164.7 110.3,163 L94.45,137.1 C94.65,135 94.7,133.25 94.65,131.9 94.6,130.5 94.1,128.3 93.2,125.3 92.3,122.3 90.7,119.25 88.4,116.1 81.8,107.05 74.7,102.55 67.05,102.55z M68.35,108.85 C75.1,109.1 80.45,112.95 84.4,120.35 88.3,127.7 89.5,133.85 87.95,138.9 L90.75,143.4 C97.2,154.25 102.4,162.75 106.35,169 104.5,173.9 99.75,177.95 92.2,181.1 L87.35,171.45 C82.05,160.6 77.05,148.7 72.35,135.65 L67.25,115.15 C66.25,111 66.6,108.9 68.35,108.85z M33.85,118.45 C36.65,123.45 40,128.35 43.9,133.1 54.5,146 64.55,152.45 74.05,152.45 L74.5,152.45 76.1,156.75 C73.8,157.2 69.35,156.1 62.8,153.4 56.25,150.7 51.15,147.6 47.55,144.15 43.9,140.7 39.8,135.35 35.2,128.2 32.85,124.35 31.3,121.35 30.65,119.25 L31.75,114.35 33.85,118.45z M20.6,170.35 L21.25,165.8 C22.15,166.2 23.25,166.6 24.5,167 L27.05,167.75 26.85,169.65 C26.85,170.6 26.95,171.45 27.1,172.2 24.25,171.7 22.05,171.1 20.6,170.35z M30.85,168.55 L37.25,169.2 37.25,172.35 37.25,173.3 30.85,172.7 30.85,168.55z M63.65,167.45 L64.45,171.65 64.8,172.6 45.15,173.6 41.25,173.5 41.25,172.25 41.45,169.25 C50,169.2 57.4,168.55 63.65,167.4 L63.65,167.45z M67.45,166.6 L70.95,165.6 71.65,168.6 72.2,170.15 70.8,170.85 69.35,171.45 68.5,168.85 67.45,166.6z M78.25,162.45 L79.65,166.1 76.45,167.95 C75.95,167.1 75.75,166.35 75.8,165.75 L75.8,163.8 78.25,162.45z"/>
            <path id="path2035" fill="#444444" fill-opacity="1" d="M68.35,108.85 C66.6,108.9 66.25,111 67.25,115.15 L72.35,135.65 C77.05,148.7 82.05,160.6 87.35,171.45 L92.2,181.1 C99.75,177.95 104.5,173.9 106.35,169 102.4,162.75 97.2,154.25 90.75,143.4 L87.95,138.9 C89.5,133.85 88.3,127.7 84.4,120.35 80.45,112.95 75.1,109.1 68.35,108.85z"/>
            <path id="path2036" fill="#444444" fill-opacity="1" d="M33.85,118.45 L31.75,114.35 30.65,119.25 C31.3,121.35 32.85,124.35 35.2,128.2 39.8,135.35 43.9,140.7 47.55,144.15 51.15,147.6 56.25,150.7 62.8,153.4 69.35,156.1 73.8,157.2 76.1,156.75 L74.5,152.45 74.05,152.45 C64.55,152.45 54.5,146 43.9,133.1 40,128.35 36.65,123.45 33.85,118.45z"/>
            <path id="path2037" fill="#444444" fill-opacity="1" d="M20.6,170.35 C22.05,171.1 24.25,171.7 27.1,172.2 26.95,171.45 26.85,170.6 26.85,169.65 L27.05,167.75 24.5,167 C23.25,166.6 22.15,166.2 21.25,165.8 L20.6,170.35z"/>
            <path id="path2038" fill="#D9D9D9" fill-opacity="1" d="M30.85,168.55 L30.85,172.7 37.25,173.3 37.25,172.35 37.25,169.2 30.85,168.55z"/>
            <path id="path2039" fill="#444444" fill-opacity="1" d="M63.65,167.45 L63.65,167.4 C57.4,168.55 50,169.2 41.45,169.25 L41.25,172.25 41.25,173.5 45.15,173.6 64.8,172.6 64.45,171.65 63.65,167.45z"/>
            <path id="path2040" fill="#D9D9D9" fill-opacity="1" d="M67.45,166.6 L68.5,168.85 69.35,171.45 70.8,170.85 72.2,170.15 71.65,168.6 70.95,165.6 67.45,166.6z"/>
            <path id="path2041" fill="#444444" fill-opacity="1" d="M78.25,162.45 L75.8,163.8 75.8,165.75 C75.75,166.35 75.95,167.1 76.45,167.95 L79.65,166.1 78.25,162.45z M43.25,178 L46.45,182.55 58,199.45 C69.6,215.85 77.6,224.05 81.95,224.05 86.15,224.05 91.05,221.85 96.6,217.45 L104.15,211.35 C101.1,206.6 93.5,193 81.4,170.55 L81.4,170.6 L81.4,170.55 C79.65,171.45 77.15,172.5 73.9,173.65 L68.45,175.15 63.35,176.3 C57.7,177.45 52.9,178.05 48.85,178.05 L43.25,178z"/>
          </g>
        </g>
        <g id="Layer.__641">
          <g id="shape1297">
            <path id="path2042" fill="#000000" fill-opacity="1" d="M67.8,117.6 Q67.05,120.4 68.55,123 C69.5,124.65 70.95,125.75 72.85,126.25 74.75,126.75 76.55,126.55 78.25,125.6 79.95,124.6 81.05,123.15 81.55,121.3 82.05,119.45 81.8,117.65 80.8,116 79.85,114.25 78.4,113.15 76.5,112.65 74.6,112.15 72.8,112.4 71.1,113.4 69.4,114.35 68.3,115.75 67.8,117.6z M69.05,118 C69.5,116.45 70.4,115.3 71.75,114.55 73.1,113.7 74.6,113.5 76.15,113.95 77.7,114.35 78.85,115.25 79.65,116.65 80.45,118 80.65,119.45 80.2,121 80,121.8 79.65,122.5 79.2,123.1 77.45,121.45 76.05,120.45 75.05,120.2 L70.15,123.1 69.65,122.4 C68.85,121.05 68.65,119.55 69.05,118z M73.25,122.1 C74.15,121.6 74.75,121.4 75,121.45 L76.5,122.35 C76.05,123.25 75.3,123.55 74.35,123.3 73.95,123.2 73.7,123 73.55,122.65 L73.25,122.1z M72.5,122.6 C72.45,123.35 73.15,123.95 74.6,124.3 75.9,124.65 76.75,124.15 77.15,122.8 L78.65,123.65 77.55,124.5 C76.2,125.25 74.75,125.45 73.2,125.05 72.25,124.8 71.4,124.35 70.7,123.75 L72.35,122.75 72.5,122.6z"/>
            <path id="path2043" fill="#BBFFC8" fill-opacity="1" d="M69.05,118 C68.65,119.55 68.85,121.05 69.65,122.4 L70.15,123.1 75.05,120.2 C76.05,120.45 77.45,121.45 79.2,123.1 79.65,122.5 80,121.8 80.2,121 80.65,119.45 80.45,118 79.65,116.65 78.85,115.25 77.7,114.35 76.15,113.95 74.6,113.5 73.1,113.7 71.75,114.55 70.4,115.3 69.5,116.45 69.05,118z"/>
            <path id="path2044" fill="#FFCCCC" fill-opacity="1" d="M73.25,122.1 L73.55,122.65 C73.7,123 73.95,123.2 74.35,123.3 75.3,123.55 76.05,123.25 76.5,122.35 L75,121.45 C74.75,121.4 74.15,121.6 73.25,122.1z"/>
            <path id="path2045" fill="#FFFFFF" fill-opacity="1" d="M72.5,122.6 L72.35,122.75 70.7,123.75 C71.4,124.35 72.25,124.8 73.2,125.05 74.75,125.45 76.2,125.25 77.55,124.5 L78.65,123.65 77.15,122.8 C76.75,124.15 75.9,124.65 74.6,124.3 73.15,123.95 72.45,123.35 72.5,122.6z"/>
          </g>
        </g>
        <g id="Layer.__642">
          <g id="shape1298">
            <path id="path2046" fill="#000000" fill-opacity="1" d="M69.15,119.6 Q69.55,120.35 70.45,120.6 L72.15,120.4 C72.65,120.05 73,119.6 73.15,119.05 73.3,118.45 73.2,117.9 72.95,117.4 72.6,116.85 72.15,116.5 71.6,116.35 71,116.2 70.45,116.25 69.95,116.6 69.4,116.85 69.05,117.3 68.9,117.9 68.75,118.45 68.8,119.05 69.15,119.6z M69.55,118.25 C69.65,117.85 69.9,117.55 70.25,117.35 L71.35,117.25 C71.7,117.35 72,117.55 72.25,117.9 72.5,118.25 72.55,118.6 72.45,119 L71.7,119.9 70.6,120.05 69.7,119.35 C69.5,119 69.45,118.6 69.55,118.25z"/>
            <path id="path2047" fill="#FFFFFF" fill-opacity="1" d="M69.55,118.25 C69.45,118.6 69.5,119 69.7,119.35 L70.6,120.05 71.7,119.9 72.45,119 C72.55,118.6 72.5,118.25 72.25,117.9 72,117.55 71.7,117.35 71.35,117.25 L70.25,117.35 C69.9,117.55 69.65,117.85 69.55,118.25z M70.55,117.85 L71.2,117.75 71.7,118.2 71.75,118.8 71.4,119.3 70.8,119.4 70.25,118.95 C70.1,118.75 70.1,118.55 70.15,118.35 L70.55,117.85z"/>
            <path id="path2048" fill="#000000" fill-opacity="1" d="M70.55,117.85 L70.15,118.35 C70.1,118.55 70.1,118.75 70.25,118.95 L70.8,119.4 71.4,119.3 71.75,118.8 71.7,118.2 71.2,117.75 70.55,117.85z"/>
          </g>
        </g>
        <g id="Layer.__643">
          <g id="shape1299">
            <path id="path2049" fill="#000000" fill-opacity="1" d="M79.45,116.7 Q78.55,116.45 77.8,116.95 C77.25,117.2 76.9,117.65 76.75,118.25 76.6,118.8 76.65,119.4 77,119.95 77.25,120.45 77.7,120.8 78.3,120.95 L80,120.75 C80.5,120.4 80.85,119.95 81,119.4 81.15,118.8 81.05,118.25 80.8,117.75 80.45,117.2 80,116.85 79.45,116.7z M80.3,119.35 C80.2,119.7 79.95,120 79.55,120.25 L78.45,120.4 C78.05,120.25 77.75,120.05 77.55,119.7 77.35,119.35 77.3,118.95 77.4,118.6 77.5,118.2 77.75,117.9 78.1,117.7 L79.2,117.6 C79.55,117.7 79.85,117.9 80.1,118.25 80.35,118.6 80.4,118.95 80.3,119.35z"/>
            <path id="path2050" fill="#FFFFFF" fill-opacity="1" d="M80.3,119.35 C80.4,118.95 80.35,118.6 80.1,118.25 79.85,117.9 79.55,117.7 79.2,117.6 L78.1,117.7 C77.75,117.9 77.5,118.2 77.4,118.6 77.3,118.95 77.35,119.35 77.55,119.7 77.75,120.05 78.05,120.25 78.45,120.4 L79.55,120.25 C79.95,120 80.2,119.7 80.3,119.35z M79.55,118.55 L79.6,119.15 79.25,119.65 78.65,119.75 78.1,119.3 C77.95,119.1 77.95,118.9 78,118.7 L78.4,118.2 79.05,118.1 C79.3,118.15 79.45,118.3 79.55,118.55z"/>
            <path id="path2051" fill="#000000" fill-opacity="1" d="M79.55,118.55 C79.45,118.3 79.3,118.15 79.05,118.1 L78.4,118.2 78,118.7 C77.95,118.9 77.95,119.1 78.1,119.3 L78.65,119.75 79.25,119.65 79.6,119.15 79.55,118.55z"/>
          </g>
        </g>
        <g id="Layer.__644">
          <g id="shape1300">
            <path id="path2052" fill="#FFEC00" fill-opacity="1" d="M68,117.4 Q69.15,116 70,115.5 L71.05,115 71.75,114.85 77.75,114.6 C79.3,115.1 80.25,115.7 80.65,116.35 81.1,117 81.3,117.9 81.35,119.1 81.4,120.25 81.3,121.35 81.1,122.4 L80.95,122.85 C82.8,123.4 83.85,123.25 84.1,122.4 84.3,121.7 84.05,120.9 83.4,119.95 82.5,118.8 81.95,117.75 81.8,116.9 81.4,114.85 78.95,113.55 74.5,112.9 69.95,112.25 67.45,114.3 66.9,119.1 66.85,120.8 66.55,122.1 66.1,123.05 L66.15,123.2 C66.8,123.9 67.7,123.75 68.95,122.7 68.2,121.8 67.8,120.85 67.8,119.9 L68,117.4z"/>
            <path id="path2053" fill="#000000" fill-opacity="1" d="M70,115.5 Q69.15,116 68,117.4 L67.8,119.9 C67.8,120.85 68.2,121.8 68.95,122.7 L69.25,122.65 69.45,122.15 C68.65,120.2 68.45,118.7 68.8,117.65 L69.05,117.45 71.25,116 C73.4,114.95 75.85,114.85 78.5,115.7 L79.05,115.9 79.55,116.35 80.5,117.45 80.5,119.4 80.2,122.25 C80.15,122.3 80.05,122.35 79.9,122.45 L79.75,123 C79.8,123.25 80.15,123.5 80.9,123.75 83.15,124.4 84.5,124 84.95,122.55 85.2,121.8 85,120.9 84.4,119.8 83.4,118.05 82.8,116.8 82.55,116.05 82.35,115.25 81.75,114.5 80.8,113.8 79.8,113.15 78.25,112.5 76.1,111.95 74,111.35 71.9,111.6 69.8,112.7 67.7,113.8 66.5,115.45 66.25,117.7 L65.75,121.6 65.2,122.75 C65,123.5 65.25,123.95 66,124.2 L68.6,124.1 C69.55,123.75 69.65,123.3 68.95,122.7 67.7,123.75 66.8,123.9 66.15,123.2 L66,123.15 66.1,123.05 C66.55,122.1 66.85,120.8 66.9,119.1 67.45,114.3 69.95,112.25 74.5,112.9 78.95,113.55 81.4,114.85 81.8,116.9 81.95,117.75 82.5,118.8 83.4,119.95 84.05,120.9 84.3,121.7 84.1,122.4 83.85,123.25 82.8,123.4 80.95,122.85 L81.1,122.4 C81.3,121.35 81.4,120.25 81.35,119.1 81.3,117.9 81.1,117 80.65,116.35 80.25,115.7 79.3,115.1 77.75,114.6 L71.75,114.85 71.05,115 70,115.5z"/>
          </g>
        </g>
      </g>
    </g>
  </g>
</svg>