<?xml version="1.0" encoding="UTF-8" standalone="no"?>
<svg xmlns:xlink="http://www.w3.org/1999/xlink" height="720.75px" width="1716.8px" xmlns="http://www.w3.org/2000/svg">
  <g transform="matrix(1, 0, 0, 1, 307.05, 450.35)">
    <use height="101.0" transform="matrix(1.0, 0.0, 0.0, 1.0, -73.35, -40.5)" width="131.85" xlink:href="#sprite0"/>
  </g>
  <defs>
    <g id="sprite0" transform="matrix(1, 0, 0, 1, 65.95, 50.5)">
      <use height="101.0" transform="matrix(1.0, 0.0, 0.0, 1.0, -65.95, -50.5)" width="131.85" xlink:href="#shape0"/>
    </g>
    <g id="shape0" transform="matrix(1, 0, 0, 1, 65.95, 50.5)">
      <path d="M65.9 -6.25 Q65.9 8.3 60.95 16.25 51.35 31.5 23.9 31.5 13.5 31.5 7.85 29.25 4.45 27.85 0.7 24.25 -3.05 20.6 -6.35 19.25 -11.85 17.0 -22.1 17.0 -45.25 17.0 -47.95 45.8 L-47.95 49.25 -48.2 49.3 -48.2 49.5 Q-48.45 49.5 -50.45 50.5 -52.45 49.45 -52.9 47.35 L-52.95 44.35 -52.9 43.5 -52.95 42.4 -52.5 33.45 Q-52.3 28.05 -53.9 24.55 -54.9 22.3 -56.8 20.4 -60.35 24.95 -61.2 27.75 -61.7 27.75 -63.45 28.5 -65.95 26.0 -65.95 20.5 -65.95 14.15 -63.0 7.0 -61.35 3.1 -59.2 0.7 L-59.7 0.25 Q-59.95 1.25 -59.95 -1.25 L-59.8 -2.15 -59.95 -3.5 Q-59.95 -8.05 -52.9 -15.9 -45.65 -23.9 -34.45 -31.5 -6.4 -50.5 19.9 -50.5 42.7 -50.5 55.65 -34.2 65.9 -21.35 65.9 -6.25 M-59.2 13.45 L-59.65 13.4 -59.95 14.0 -59.95 14.15 -59.2 13.45" fill="#a4c8fd" fill-opacity="0.6509804" fill-rule="evenodd" stroke="none"/>
    </g>
  </defs>
</svg>
