<?xml version="1.0" encoding="UTF-8" standalone="no"?>
<svg xmlns:xlink="http://www.w3.org/1999/xlink" height="720.75px" width="1716.8px" xmlns="http://www.w3.org/2000/svg">
  <g transform="matrix(1, 0, 0, 1, 307.05, 450.35)">
    <use height="70.95" transform="matrix(1.0, 0.0, 0.0, 1.0, -26.85, -36.6)" width="124.65" xlink:href="#sprite0"/>
  </g>
  <defs>
    <g id="sprite0" transform="matrix(1, 0, 0, 1, 28.0, 35.5)">
      <use height="70.95" transform="matrix(1.0, 0.0, 0.0, 1.0, -28.0, -35.5)" width="124.65" xlink:href="#shape0"/>
    </g>
    <g id="shape0" transform="matrix(1, 0, 0, 1, 28.0, 35.5)">
      <path d="M95.2 -33.15 Q98.05 -29.15 95.35 -24.75 86.45 -18.7 50.25 -6.85 L26.8 0.45 9.5 5.6 9.45 5.4 8.5 5.7 8.55 5.85 8.4 5.9 10.9 13.95 Q14.4 26.2 14.05 28.75 13.7 31.3 10.55 34.0 7.35 36.7 4.9 34.4 2.45 32.1 1.1 29.4 L-5.2 10.0 -13.7 12.95 Q-22.45 15.8 -25.25 13.05 -26.1 12.15 -27.55 6.05 L-27.95 4.5 Q-29.1 -0.95 6.0 -10.3 83.8 -34.3 85.05 -34.5 L93.2 -35.35 Q94.4 -34.9 95.2 -33.15 M90.95 -29.4 L86.55 -29.2 62.85 -22.1 Q40.0 -15.3 39.05 -15.3 L-22.45 4.8 -21.05 9.85 Q-5.15 4.5 -3.05 5.1 -2.05 5.15 1.7 19.5 5.4 33.8 8.4 30.5 11.4 27.2 8.1 17.8 L4.4 7.2 3.8 5.4 Q3.3 3.9 4.05 3.3 L4.5 2.95 4.5 2.8 4.6 2.9 5.45 2.5 Q90.3 -25.7 90.8 -26.65 91.5 -27.6 91.5 -28.45 L91.45 -29.35 90.95 -29.4 M-3.7 7.6 L-3.6 7.6 -3.55 7.55 -3.4 7.5 -3.4 7.25 -3.95 7.65 -3.95 7.7 -3.7 7.6" fill="#000000" fill-rule="evenodd" stroke="none"/>
      <path d="M-3.95 7.65 L-3.4 7.25 -3.4 7.5 -3.55 7.55 -3.6 7.6 -3.7 7.6 -3.95 7.65 M90.95 -29.4 L91.45 -29.35 91.5 -28.45 Q91.5 -27.6 90.8 -26.65 90.3 -25.7 5.45 2.5 L4.6 2.9 4.5 2.8 4.5 2.95 4.05 3.3 Q3.3 3.9 3.8 5.4 L4.4 7.2 8.1 17.8 Q11.4 27.2 8.4 30.5 5.4 33.8 1.7 19.5 -2.05 5.15 -3.05 5.1 -5.15 4.5 -21.05 9.85 L-22.45 4.8 39.05 -15.3 Q40.0 -15.3 62.85 -22.1 L86.55 -29.2 90.95 -29.4" fill="#444444" fill-rule="evenodd" stroke="none"/>
    </g>
  </defs>
</svg>
