<?xml version="1.0" encoding="UTF-8" standalone="no"?>
<svg xmlns:xlink="http://www.w3.org/1999/xlink" height="720.75px" width="1716.8px" xmlns="http://www.w3.org/2000/svg">
  <g transform="matrix(1, 0, 0, 1, 307.05, 450.35)">
    <use height="157.8" transform="matrix(0.0, 1.0, -1.0, 0.0, 78.9, -12.15)" width="26.3" xlink:href="#sprite0"/>
  </g>
  <defs>
    <g id="sprite0" transform="matrix(1, 0, 0, 1, 13.15, 78.9)">
      <use height="157.8" transform="matrix(1.0, 0.0, 0.0, 1.0, -13.15, -78.9)" width="26.3" xlink:href="#shape0"/>
    </g>
    <g id="shape0" transform="matrix(1, 0, 0, 1, 13.15, 78.9)">
      <path d="M3.6 -57.35 L3.85 -57.1 Q5.4 -57.8 6.75 -59.15 9.5 -61.9 9.5 -65.75 9.5 -69.6 6.75 -72.35 4.0 -75.1 0.15 -75.1 -3.7 -75.1 -6.45 -72.35 -9.2 -69.6 -9.2 -65.75 -9.2 -61.9 -6.45 -59.15 -3.7 -56.4 0.15 -56.4 L3.0 -56.8 Q3.25 -57.5 3.6 -57.35 M13.15 -65.75 Q13.15 -60.3 9.3 -56.45 7.25 -54.4 4.75 -53.45 5.4 -48.1 5.55 -35.4 5.7 -14.3 6.1 -0.25 6.15 39.1 5.55 51.35 L5.45 53.75 Q7.55 54.7 9.3 56.45 13.15 60.3 13.15 65.75 13.15 71.2 9.3 75.05 5.45 78.9 0.0 78.9 -5.45 78.9 -9.3 75.05 -13.15 71.2 -13.15 65.75 -13.15 60.3 -9.3 56.45 -7.35 54.5 -5.0 53.55 L-5.05 51.35 -5.65 -0.15 -5.95 -36.2 Q-6.05 -48.65 -5.55 -53.75 -7.6 -54.75 -9.3 -56.45 -13.15 -60.3 -13.15 -65.75 -13.15 -71.2 -9.3 -75.05 -5.45 -78.9 0.0 -78.9 5.45 -78.9 9.3 -75.05 13.15 -71.2 13.15 -65.75 M2.35 -52.8 L0.0 -52.6 -3.2 -52.95 Q-2.55 -47.55 -2.45 -35.4 L-1.9 -0.25 Q-1.85 39.1 -2.4 51.35 L-2.5 52.85 0.0 52.6 3.0 52.95 3.0 51.35 2.35 -0.15 2.05 -36.2 Q1.95 -47.55 2.35 -52.8 M9.5 65.75 Q9.5 61.9 6.75 59.15 4.0 56.4 0.15 56.4 -3.7 56.4 -6.45 59.15 -9.2 61.9 -9.2 65.75 -9.2 69.6 -6.45 72.35 -3.7 75.1 0.15 75.1 4.0 75.1 6.75 72.35 9.5 69.6 9.5 65.75" fill="#000000" fill-rule="evenodd" stroke="none"/>
      <path d="M3.6 -57.35 Q3.25 -57.5 3.0 -56.8 L0.15 -56.4 Q-3.7 -56.4 -6.45 -59.15 -9.2 -61.9 -9.2 -65.75 -9.2 -69.6 -6.45 -72.35 -3.7 -75.1 0.15 -75.1 4.0 -75.1 6.75 -72.35 9.5 -69.6 9.5 -65.75 9.5 -61.9 6.75 -59.15 5.4 -57.8 3.85 -57.1 L3.6 -57.35 M9.5 65.75 Q9.5 69.6 6.75 72.35 4.0 75.1 0.15 75.1 -3.7 75.1 -6.45 72.35 -9.2 69.6 -9.2 65.75 -9.2 61.9 -6.45 59.15 -3.7 56.4 0.15 56.4 4.0 56.4 6.75 59.15 9.5 61.9 9.5 65.75" fill="#f4f402" fill-rule="evenodd" stroke="none"/>
      <path d="M2.35 -52.8 Q1.95 -47.55 2.05 -36.2 L2.35 -0.15 3.0 51.35 3.0 52.95 0.0 52.6 -2.5 52.85 -2.4 51.35 Q-1.85 39.1 -1.9 -0.25 L-2.45 -35.4 Q-2.55 -47.55 -3.2 -52.95 L0.0 -52.6 2.35 -52.8" fill="#ffffff" fill-rule="evenodd" stroke="none"/>
    </g>
  </defs>
</svg>
