<?xml version="1.0" encoding="UTF-8" standalone="no"?>
<svg xmlns:xlink="http://www.w3.org/1999/xlink" height="720.75px" width="1716.8px" xmlns="http://www.w3.org/2000/svg">
  <g transform="matrix(1, 0, 0, 1, 307.05, 450.35)">
    <use height="91.75" transform="matrix(1.5, 0.0, 0.0, 1.5, -66.6, -81.025)" width="120.6" xlink:href="#sprite0"/>
  </g>
  <defs>
    <g id="sprite0" transform="matrix(1, 0, 0, 1, 46.6, 51.25)">
      <use height="91.75" transform="matrix(1.0, 0.0, 0.0, 1.0, -46.6, -51.25)" width="120.6" xlink:href="#shape0"/>
    </g>
    <g id="shape0" transform="matrix(1, 0, 0, 1, 46.6, 51.25)">
      <path d="M32.25 21.0 Q12.25 19.75 25.0 38.5 6.2 25.2 1.75 39.75 -5.3 28.55 -19.0 36.25 -23.2 22.7 -46.6 40.5 -22.1 20.8 -43.75 3.75 -33.15 1.1 -36.0 -12.5 -21.45 -10.65 -31.0 -29.0 -13.3 -17.6 -6.5 -34.25 -0.2 -23.05 7.1 -30.8 17.7 -16.6 26.25 -36.75 15.55 -6.2 74.0 -51.25 62.6 -36.85 43.25 -22.5 26.0 -11.65 54.0 -11.0 26.1 -1.9 35.0 2.75 25.15 8.0 36.25 14.25 29.55 13.85 32.25 21.0" fill="#fde935" fill-opacity="0.8" fill-rule="evenodd" stroke="none"/>
      <path d="M-14.65 27.45 Q-9.45 30.15 -3.05 30.15 7.6 30.15 15.1 22.65 22.6 15.15 22.6 4.5 22.6 -2.8 19.05 -8.65 L16.3 -8.55 Q14.2 -9.25 12.25 -11.15 10.25 -13.1 9.5 -15.1 8.75 -17.0 9.55 -17.95 3.9 -21.15 -3.05 -21.15 -13.7 -21.15 -21.2 -13.65 -28.7 -6.15 -28.7 4.5 -28.7 10.9 -26.0 16.15 -29.05 10.45 -29.05 3.5 -29.05 -7.7 -21.15 -15.6 -13.25 -23.5 -2.05 -23.5 9.15 -23.5 17.05 -15.6 24.95 -7.7 24.95 3.5 24.95 14.7 17.05 22.6 9.15 30.5 -2.05 30.5 -9.0 30.5 -14.65 27.45" fill="#ffffff" fill-rule="evenodd" stroke="none"/>
      <path d="M-26.0 16.15 Q-28.7 10.9 -28.7 4.5 -28.7 -6.15 -21.2 -13.65 -13.7 -21.15 -3.05 -21.15 3.9 -21.15 9.55 -17.95 8.75 -17.0 9.5 -15.1 10.25 -13.1 12.25 -11.15 14.2 -9.25 16.3 -8.55 L19.05 -8.65 Q22.6 -2.8 22.6 4.5 22.6 15.15 15.1 22.65 7.6 30.15 -3.05 30.15 -9.45 30.15 -14.65 27.45 -18.2 25.65 -21.2 22.65 -24.2 19.65 -26.0 16.15" fill="#000000" fill-rule="evenodd" stroke="none"/>
    </g>
  </defs>
</svg>
