<?xml version="1.0" encoding="UTF-8" standalone="no"?>
<svg xmlns:xlink="http://www.w3.org/1999/xlink" height="720.75px" width="1716.8px" xmlns="http://www.w3.org/2000/svg">
  <g transform="matrix(1, 0, 0, 1, 307.05, 450.35)">
    <use height="129.0" transform="matrix(1.0, 0.0, 0.0, 1.0, -35.6, -65.55)" width="101.7" xlink:href="#sprite0"/>
  </g>
  <defs>
    <g id="sprite0" transform="matrix(1, 0, 0, 1, 50.85, 64.5)">
      <use height="38.4" transform="matrix(1.0, 0.0, 0.0, 1.0, -32.45, -17.1)" width="68.1" xlink:href="#morphshape0"/>
      <use height="129.0" transform="matrix(1.0, 0.0, 0.0, 1.0, -50.85, -64.5)" width="101.7" xlink:href="#shape0"/>
    </g>
    <g id="morphshape0" transform="matrix(1, 0, 0, 1, 32.45, 17.1)">
      <path d="M18.55 -1.8 Q18.5 9.4 18.6 10.45 19.6 21.5 24.8 21.3 L25.0 21.3 Q26.2 21.2 30.15 19.1 L30.4 19.0 34.9 16.1 35.35 15.75 35.65 15.1 35.45 14.4 Q34.4 13.1 33.05 10.5 L30.5 5.8 29.9 4.9 Q26.15 -0.3 18.75 -2.4 18.5 -2.15 18.55 -1.8 M-32.45 -8.25 Q-32.65 -6.3 -27.0 -0.9 -21.15 4.75 -17.55 4.65 -13.65 4.6 -10.55 2.75 -7.5 0.85 -7.7 -0.55 -7.6 -1.9 -12.8 -9.5 -18.15 -17.35 -19.05 -17.1 L-21.25 -16.85 Q-24.65 -16.3 -28.15 -13.65 L-30.2 -12.0 Q-32.6 -9.8 -32.45 -8.25" fill="#ffffff" fill-rule="evenodd" stroke="none"/>
      <path d="M-32.45 -8.25 Q-32.6 -9.8 -30.2 -12.0 L-28.15 -13.65 Q-24.65 -16.3 -21.25 -16.85 L-19.05 -17.1 Q-18.15 -17.35 -12.8 -9.5 -7.6 -1.9 -7.7 -0.55 -7.5 0.85 -10.55 2.75 -13.65 4.6 -17.55 4.65 -21.15 4.75 -27.0 -0.9 -32.65 -6.3 -32.45 -8.25 M18.55 -1.8 Q18.5 -2.15 18.75 -2.4 26.15 -0.3 29.9 4.9 L30.5 5.8 33.05 10.5 Q34.4 13.1 35.45 14.4 L35.65 15.1 35.35 15.75 34.9 16.1 30.4 19.0 30.15 19.1 Q26.2 21.2 25.0 21.3 L24.8 21.3 Q19.6 21.5 18.6 10.45 18.5 9.4 18.55 -1.8" fill="none" stroke="#000000" stroke-linecap="round" stroke-linejoin="round" stroke-opacity="0.0" stroke-width="1.0"/>
    </g>
    <g id="shape0" transform="matrix(1, 0, 0, 1, 50.85, 64.5)">
      <path d="M19.0 -7.75 Q27.4 -7.8 34.85 3.95 38.55 9.85 40.6 15.95 40.6 17.6 36.85 20.5 L38.55 24.2 Q45.7 39.9 50.85 56.05 50.95 65.3 43.9 64.45 36.8 63.6 33.2 54.55 L26.45 38.05 Q23.3 30.65 22.5 28.15 L21.35 25.05 Q16.75 22.6 15.1 12.85 14.05 6.35 14.45 -0.35 14.4 -4.0 14.65 -4.7 15.45 -7.75 19.0 -7.75 M29.05 5.45 Q25.5 0.5 19.55 -1.8 19.5 9.35 19.6 10.35 20.5 20.25 24.8 20.3 L24.9 20.3 Q26.05 20.2 29.85 18.1 L29.9 18.1 Q33.15 16.3 34.3 15.3 L34.65 15.0 Q33.6 13.65 32.2 10.95 L29.65 6.3 29.05 5.45 M33.6 45.75 Q38.7 59.05 42.8 59.55 46.85 60.05 46.3 56.1 46.25 52.95 36.05 31.0 L32.45 23.4 Q28.9 25.4 26.1 25.8 L33.6 45.75 M-50.15 -58.75 Q-48.2 -64.9 -41.2 -64.45 -34.2 -64.05 -31.0 -55.8 -27.8 -47.55 -25.8 -40.95 L-23.3 -32.75 Q-22.2 -28.85 -18.4 -22.05 L-18.05 -22.05 Q-13.9 -22.05 -8.35 -11.25 -5.55 -5.85 -3.6 -0.3 -3.6 2.5 -5.15 4.8 -7.95 8.9 -14.65 8.9 -30.3 8.9 -36.55 -8.25 -36.55 -9.4 -36.0 -10.7 -38.6 -15.3 -41.1 -21.0 -47.55 -35.7 -50.85 -50.85 -50.85 -56.7 -50.15 -58.75 M-45.75 -50.75 Q-45.75 -49.7 -43.1 -41.85 -39.9 -32.15 -36.05 -23.75 -34.15 -19.55 -32.25 -16.0 -28.65 -19.9 -23.8 -21.25 L-24.6 -23.2 -32.25 -44.75 Q-37.2 -58.55 -39.2 -59.5 L-43.05 -59.45 Q-46.2 -59.45 -45.75 -50.75 M-26.3 -1.65 Q-20.85 3.6 -17.55 3.65 -13.95 3.6 -11.05 1.9 -8.7 0.45 -8.7 -0.55 -8.7 -1.75 -13.6 -8.95 -18.5 -16.1 -19.05 -16.1 L-21.05 -15.9 Q-24.25 -15.35 -27.55 -12.85 L-29.5 -11.25 Q-31.5 -9.5 -31.45 -8.25 -31.45 -6.6 -26.3 -1.65" fill="#000000" fill-rule="evenodd" stroke="none"/>
      <path d="M33.6 45.75 L26.1 25.8 Q28.9 25.4 32.45 23.4 L36.05 31.0 Q46.25 52.95 46.3 56.1 46.85 60.05 42.8 59.55 38.7 59.05 33.6 45.75 M-45.75 -50.75 Q-46.2 -59.45 -43.05 -59.45 L-39.2 -59.5 Q-37.2 -58.55 -32.25 -44.75 L-24.6 -23.2 -23.8 -21.25 Q-28.65 -19.9 -32.25 -16.0 -34.15 -19.55 -36.05 -23.75 -39.9 -32.15 -43.1 -41.85 -45.75 -49.7 -45.75 -50.75" fill="#fff1dd" fill-rule="evenodd" stroke="none"/>
    </g>
  </defs>
</svg>
