<?xml version="1.0" encoding="UTF-8" standalone="no"?>
<svg xmlns:xlink="http://www.w3.org/1999/xlink" height="720.75px" width="1716.8px" xmlns="http://www.w3.org/2000/svg">
  <g transform="matrix(1, 0, 0, 1, 307.05, 450.35)">
    <use height="90.35" transform="matrix(1.0, 0.0, 0.0, 1.0, -26.85, -44.85)" width="50.9" xlink:href="#shape0"/>
  </g>
  <defs>
    <g id="shape0" transform="matrix(1, 0, 0, 1, 26.85, 44.85)">
      <path d="M19.2 -26.15 Q18.9 -29.0 19.2 -30.75 L14.8 -32.85 Q14.4 -33.0 14.05 -33.25 6.75 -36.75 3.55 -39.1 L0.65 -34.9 Q1.05 -34.65 1.5 -34.45 2.15 -34.15 2.75 -33.8 13.2 -28.75 19.2 -25.85 L19.2 -26.15 M23.95 -29.95 L24.0 -26.15 Q24.15 -24.2 23.95 -22.4 L23.7 -20.85 23.55 -15.85 Q23.2 -9.25 16.9 16.65 11.1 39.95 8.5 43.55 8.15 44.4 7.15 44.7 L-5.3 45.5 -5.45 45.5 -5.65 45.5 Q-12.05 45.5 -26.85 25.4 -26.9 24.35 -26.35 23.8 L-26.25 23.35 Q-7.55 -21.9 -2.4 -32.0 L-4.85 -34.1 Q-4.85 -36.0 -1.5 -40.45 1.7 -44.9 2.9 -44.85 5.7 -44.9 15.0 -39.0 23.9 -33.3 23.9 -32.5 L23.7 -31.45 23.95 -29.95 M16.6 -21.6 L16.25 -21.95 16.25 -21.9 16.25 -21.75 16.05 -20.95 14.6 -15.65 14.45 -15.25 14.4 -15.0 14.25 -14.55 14.1 -14.15 13.75 -12.85 Q10.1 -0.95 6.3 10.1 3.9 19.15 -5.7 40.5 L-5.5 40.7 0.65 40.2 5.15 40.4 6.15 38.15 Q6.95 36.45 14.1 7.55 L15.95 -1.6 16.1 -2.45 17.45 -9.3 17.5 -9.7 17.7 -10.55 18.95 -16.9 19.15 -17.55 19.65 -19.5 19.4 -19.6 19.35 -20.3 Q17.7 -20.65 16.6 -21.6 M1.0 -29.25 Q-1.25 -22.95 -9.95 -2.4 -19.05 19.2 -22.45 24.35 -18.55 27.55 -7.25 39.0 -6.2 35.2 -2.0 24.65 3.9 9.7 5.7 3.45 7.55 -2.85 11.0 -13.0 14.45 -23.15 14.05 -23.15 L1.0 -29.25" fill="#000000" fill-rule="evenodd" stroke="none"/>
      <path d="M19.2 -26.15 L19.2 -25.85 Q13.2 -28.75 2.75 -33.8 2.15 -34.15 1.5 -34.45 1.05 -34.65 0.65 -34.9 L3.55 -39.1 Q6.75 -36.75 14.05 -33.25 14.4 -33.0 14.8 -32.85 L19.2 -30.75 Q18.9 -29.0 19.2 -26.15" fill="#6f6f6f" fill-rule="evenodd" stroke="none"/>
      <path d="M3.6 -24.25 L3.4 -24.85 Q3.05 -25.45 2.35 -25.45 1.15 -25.45 1.15 -24.2 1.15 -23.15 2.35 -23.15 L3.35 -23.4 Q4.95 -22.45 7.75 -21.2 L9.7 -20.4 9.7 -20.15 Q9.55 -19.05 10.85 -19.0 11.95 -19.05 12.0 -20.2 L11.85 -20.8 Q11.55 -21.35 10.85 -21.35 L10.15 -21.15 Q7.7 -22.55 3.6 -24.25 M16.6 -21.6 L16.25 -21.75 16.25 -21.9 16.25 -21.95 16.6 -21.6 M1.0 -29.25 L14.05 -23.15 Q14.45 -23.15 11.0 -13.0 7.55 -2.85 5.7 3.45 3.9 9.7 -2.0 24.65 -6.2 35.2 -7.25 39.0 -18.55 27.55 -22.45 24.35 -19.05 19.2 -9.95 -2.4 -1.25 -22.95 1.0 -29.25 M8.6 -12.7 Q9.85 -12.7 9.85 -13.85 L9.7 -14.55 Q9.35 -15.1 8.6 -15.1 7.5 -15.1 7.5 -13.8 L7.5 -13.65 Q6.85 -13.55 3.45 -12.25 L1.3 -17.1 Q1.65 -17.35 1.65 -17.95 L1.5 -18.65 Q1.15 -19.2 0.45 -19.15 -0.7 -19.15 -0.7 -17.95 -0.7 -16.85 0.45 -16.85 L0.5 -16.9 2.35 -11.85 2.0 -11.7 -2.6 -10.15 Q-2.9 -10.65 -3.6 -10.65 -4.8 -10.65 -4.8 -9.45 -4.8 -8.35 -3.6 -8.35 -2.55 -8.35 -2.5 -9.35 L2.7 -11.05 3.0 -10.15 Q4.0 -7.6 4.75 -6.35 L4.6 -5.6 Q4.6 -4.5 5.85 -4.5 7.0 -4.5 7.0 -5.65 L6.85 -6.3 Q6.5 -6.9 5.85 -6.9 L3.9 -11.4 5.85 -12.0 7.95 -12.85 Q8.2 -12.7 8.6 -12.7" fill="#f87b29" fill-rule="evenodd" stroke="none"/>
      <path d="M3.6 -24.25 Q7.7 -22.55 10.15 -21.15 L10.85 -21.35 Q11.55 -21.35 11.85 -20.8 L12.0 -20.2 Q11.95 -19.05 10.85 -19.0 9.55 -19.05 9.7 -20.15 L9.7 -20.4 7.75 -21.2 Q4.95 -22.45 3.35 -23.4 L2.35 -23.15 Q1.15 -23.15 1.15 -24.2 1.15 -25.45 2.35 -25.45 3.05 -25.45 3.4 -24.85 L3.6 -24.25 M15.95 -1.6 L14.9 -1.3 14.9 -1.25 Q14.9 -0.15 13.7 -0.15 12.45 -0.15 12.45 -1.2 12.45 -2.45 13.7 -2.45 14.4 -2.45 14.7 -1.95 L16.1 -2.45 15.95 -1.6 M17.45 -9.3 L17.3 -9.5 17.05 -9.95 16.5 -9.85 Q15.3 -9.85 15.35 -10.95 15.35 -12.2 16.5 -12.2 17.2 -12.25 17.55 -11.7 L17.75 -11.05 17.65 -10.55 17.7 -10.55 17.5 -9.7 17.45 -9.3 M18.95 -16.9 L18.85 -17.0 Q18.55 -16.55 17.8 -16.5 16.65 -16.55 16.65 -17.65 16.65 -18.85 17.8 -18.85 18.55 -18.85 18.85 -18.3 L19.0 -17.65 19.0 -17.55 19.15 -17.55 18.95 -16.9 M8.6 -12.7 Q8.2 -12.7 7.95 -12.85 L5.85 -12.0 3.9 -11.4 5.85 -6.9 Q6.5 -6.9 6.85 -6.3 L7.0 -5.65 Q7.0 -4.5 5.85 -4.5 4.6 -4.5 4.6 -5.6 L4.75 -6.35 Q4.0 -7.6 3.0 -10.15 L2.7 -11.05 -2.5 -9.35 Q-2.55 -8.35 -3.6 -8.35 -4.8 -8.35 -4.8 -9.45 -4.8 -10.65 -3.6 -10.65 -2.9 -10.65 -2.6 -10.15 L2.0 -11.7 2.35 -11.85 0.5 -16.9 0.45 -16.85 Q-0.7 -16.85 -0.7 -17.95 -0.7 -19.15 0.45 -19.15 1.15 -19.2 1.5 -18.65 L1.65 -17.95 Q1.65 -17.35 1.3 -17.1 L3.45 -12.25 Q6.85 -13.55 7.5 -13.65 L7.5 -13.8 Q7.5 -15.1 8.6 -15.1 9.35 -15.1 9.7 -14.55 L9.85 -13.85 Q9.85 -12.7 8.6 -12.7" fill="#f7dd00" fill-rule="evenodd" stroke="none"/>
      <path d="M16.25 -21.75 L16.6 -21.6 Q17.7 -20.65 19.35 -20.3 L19.4 -19.6 19.65 -19.5 19.15 -17.55 19.0 -17.55 19.0 -17.65 18.85 -18.3 Q18.55 -18.85 17.8 -18.85 16.65 -18.85 16.65 -17.65 16.65 -16.55 17.8 -16.5 18.55 -16.55 18.85 -17.0 L18.95 -16.9 17.7 -10.55 17.65 -10.55 17.75 -11.05 17.55 -11.7 Q17.2 -12.25 16.5 -12.2 15.35 -12.2 15.35 -10.95 15.3 -9.85 16.5 -9.85 L17.05 -9.95 17.3 -9.5 17.45 -9.3 16.1 -2.45 14.7 -1.95 Q14.4 -2.45 13.7 -2.45 12.45 -2.45 12.45 -1.2 12.45 -0.15 13.7 -0.15 14.9 -0.15 14.9 -1.25 L14.9 -1.3 15.95 -1.6 14.1 7.55 Q6.95 36.45 6.15 38.15 L5.15 40.4 0.65 40.2 -5.5 40.7 -5.7 40.5 Q3.9 19.15 6.3 10.1 10.1 -0.95 13.75 -12.85 L14.1 -14.15 14.25 -14.55 14.4 -15.0 14.45 -15.25 14.6 -15.65 16.05 -20.95 16.25 -21.75" fill="#ee6409" fill-rule="evenodd" stroke="none"/>
    </g>
  </defs>
</svg>
