<?xml version="1.0" encoding="UTF-8" standalone="no"?>
<svg xmlns:xlink="http://www.w3.org/1999/xlink" height="720.75px" width="1716.8px" xmlns="http://www.w3.org/2000/svg">
  <g transform="matrix(1, 0, 0, 1, 307.05, 450.35)">
    <use height="183.0" transform="matrix(1.0, 0.0, 0.0, 1.0, -77.6, -93.5)" width="155.25" xlink:href="#sprite0"/>
  </g>
  <defs>
    <g id="sprite0" transform="matrix(1, 0, 0, 1, 77.6, 93.5)">
      <use height="183.0" transform="matrix(1.0, 0.0, 0.0, 1.0, -77.6, -93.5)" width="155.25" xlink:href="#shape0"/>
    </g>
    <g id="shape0" transform="matrix(1, 0, 0, 1, 77.6, 93.5)">
      <path d="M70.45 -85.05 L70.45 -85.1 28.95 -85.15 2.8 -85.35 Q4.05 -73.55 4.4 -44.2 4.65 -23.3 4.5 -2.25 16.15 -2.3 26.7 -2.5 L71.65 -2.5 71.65 -84.5 71.35 -84.5 Q71.05 -84.5 70.85 -84.65 L70.45 -85.05 M-77.3 46.0 L-77.3 -92.25 -77.0 -92.95 -76.3 -93.25 -68.1 -93.45 76.65 -93.5 77.35 -93.2 77.65 -92.5 77.65 71.4 Q77.45 74.8 77.5 80.2 L77.5 80.25 77.65 80.75 77.65 88.5 77.35 89.2 76.65 89.5 -76.3 89.5 -77.0 89.2 -77.3 88.5 -77.3 49.9 -77.3 46.0 M-70.5 -1.5 L-3.15 -2.2 Q-3.35 -24.2 -3.1 -45.0 -2.75 -73.8 -1.45 -85.4 -37.75 -85.75 -72.55 -86.6 -70.95 -76.55 -70.55 -45.75 -70.25 -23.75 -70.5 -1.5 M-3.15 59.85 L-3.1 54.8 -3.1 54.25 -3.1 54.0 -3.1 5.25 -3.1 4.6 -70.5 3.75 Q-70.25 23.3 -70.3 38.5 L-70.4 50.05 Q-70.7 73.55 -71.9 83.7 L-3.75 82.85 -3.75 82.6 -3.75 82.35 -3.75 82.1 -3.35 69.75 -3.35 68.25 -3.3 68.25 -3.15 59.85 M20.75 82.65 L29.75 82.5 71.65 82.5 71.65 4.95 35.7 4.85 4.4 4.65 4.4 5.1 Q4.85 39.35 4.5 61.65 L4.35 71.15 3.95 82.75 5.05 82.75 10.7 82.75 20.75 82.65" fill="#000000" fill-rule="evenodd" stroke="none"/>
      <path d="M70.45 -85.05 L70.85 -84.65 Q71.05 -84.5 71.35 -84.5 L71.65 -84.5 71.65 -2.5 26.7 -2.5 Q16.15 -2.3 4.5 -2.25 4.65 -23.3 4.4 -44.2 4.05 -73.55 2.8 -85.35 L28.95 -85.15 70.45 -85.1 70.45 -85.05 M-70.3 38.5 Q-70.25 23.3 -70.5 3.75 L-3.1 4.6 -3.1 5.25 -3.1 54.0 -3.1 54.25 -3.1 54.8 -3.15 59.85 -12.0 59.25 -24.25 60.25 Q-24.7 52.6 -29.9 45.1 -38.2 33.25 -54.35 33.25 -63.15 33.25 -70.3 38.5 M-70.5 -1.5 Q-70.25 -23.75 -70.55 -45.75 -70.95 -76.55 -72.55 -86.6 -37.75 -85.75 -1.45 -85.4 -2.75 -73.8 -3.1 -45.0 -3.35 -24.2 -3.15 -2.2 L-70.5 -1.5 M4.5 61.65 Q4.85 39.35 4.4 5.1 L4.4 4.65 35.7 4.85 71.65 4.95 71.65 82.5 29.75 82.5 20.75 82.65 20.75 82.35 Q21.0 76.55 17.05 70.75 12.7 64.5 4.5 61.65" fill="#bbe4ff" fill-rule="evenodd" stroke="none"/>
      <path d="M-77.3 49.9 L-77.35 49.75 -77.6 47.5 -77.3 46.0 -77.3 49.9 M-70.3 38.5 Q-63.15 33.25 -54.35 33.25 -38.2 33.25 -29.9 45.1 -24.7 52.6 -24.25 60.25 L-12.0 59.25 -3.15 59.85 -3.3 68.25 -3.35 68.25 Q-7.55 67.25 -12.5 67.25 -23.95 67.25 -25.45 70.0 L-26.2 71.9 Q-26.75 72.75 -29.0 72.75 -32.9 72.75 -32.7 67.2 L-31.75 61.35 Q-31.75 60.25 -33.0 57.3 -34.6 53.65 -36.95 50.5 -43.9 41.25 -53.85 41.25 -60.7 41.25 -66.65 46.5 L-70.4 50.05 -70.3 38.5 M4.5 61.65 Q12.7 64.5 17.05 70.75 21.0 76.55 20.75 82.35 L20.75 82.65 10.7 82.75 11.25 82.0 Q12.25 81.0 12.25 79.75 12.25 76.3 6.25 72.3 5.3 71.65 4.35 71.15 L4.5 61.65" fill="#000001" fill-rule="evenodd" stroke="none"/>
      <path d="M-3.35 68.25 L-3.35 69.75 -3.75 82.1 -3.75 82.35 -3.75 82.6 -3.75 82.85 -71.9 83.7 Q-70.7 73.55 -70.4 50.05 L-66.65 46.5 Q-60.7 41.25 -53.85 41.25 -43.9 41.25 -36.95 50.5 -34.6 53.65 -33.0 57.3 -31.75 60.25 -31.75 61.35 L-32.7 67.2 Q-32.9 72.75 -29.0 72.75 -26.75 72.75 -26.2 71.9 L-25.45 70.0 Q-23.95 67.25 -12.5 67.25 -7.55 67.25 -3.35 68.25 M10.7 82.75 L5.05 82.75 3.95 82.75 4.35 71.15 Q5.3 71.65 6.25 72.3 12.25 76.3 12.25 79.75 12.25 81.0 11.25 82.0 L10.7 82.75" fill="#bbffb3" fill-rule="evenodd" stroke="none"/>
    </g>
  </defs>
</svg>
