<?xml version="1.0" encoding="UTF-8" standalone="no"?>
<svg xmlns:xlink="http://www.w3.org/1999/xlink" height="720.75px" width="1716.8px" xmlns="http://www.w3.org/2000/svg">
  <g transform="matrix(1, 0, 0, 1, 307.05, 450.35)">
    <use height="464.4" transform="matrix(1.0, 0.0, 0.0, 1.0, -108.75, -232.2)" width="217.5" xlink:href="#sprite0"/>
  </g>
  <defs>
    <g id="sprite0" transform="matrix(1, 0, 0, 1, 108.75, 243.65)">
      <use height="441.5" transform="matrix(1.0, 0.0, 0.0, 1.0, -108.75, -220.75)" width="217.5" xlink:href="#shape0"/>
      <use height="21.9" transform="matrix(-0.1941, 0.7244, -0.7244, -0.1941, -75.3304, 44.1185)" width="68.9" xlink:href="#sprite1"/>
      <use height="21.9" transform="matrix(0.1941, 0.7244, -0.7244, 0.1941, 69.0951, 40.1674)" width="68.9" xlink:href="#sprite1"/>
      <use height="21.9" transform="matrix(0.1941, 0.7244, -0.7244, 0.1941, 7.3451, 64.9174)" width="68.9" xlink:href="#sprite1"/>
      <use height="21.9" transform="matrix(0.1941, 0.7244, -0.7244, 0.1941, 37.5951, 56.9174)" width="68.9" xlink:href="#sprite1"/>
      <use height="21.9" transform="matrix(0.0, 0.75, -0.75, 0.0, -11.1875, 17.1625)" width="68.9" xlink:href="#sprite1"/>
      <use height="21.9" transform="matrix(-0.1941, 0.7244, -0.7244, -0.1941, -40.0304, 32.1685)" width="68.9" xlink:href="#sprite1"/>
      <use height="21.9" transform="matrix(0.1941, 0.7244, -0.7244, 0.1941, 15.5951, -0.5826)" width="68.9" xlink:href="#sprite1"/>
      <use height="21.9" transform="matrix(-0.1941, 0.7244, -0.7244, -0.1941, -56.7804, -21.3315)" width="68.9" xlink:href="#sprite1"/>
      <use height="21.9" transform="matrix(0.0, 0.75, -0.75, 0.0, -33.9377, -35.587)" width="68.9" xlink:href="#sprite1"/>
      <use height="21.9" transform="matrix(0.0, 0.75, -0.75, 0.0, -9.1875, -43.0875)" width="68.9" xlink:href="#sprite1"/>
      <use height="21.9" transform="matrix(0.1941, 0.7244, -0.7244, 0.1941, 9.5951, -56.0826)" width="68.9" xlink:href="#sprite1"/>
      <use height="21.9" transform="matrix(0.1941, 0.7244, -0.7244, 0.1941, 45.5951, -16.5826)" width="68.9" xlink:href="#sprite1"/>
      <use height="21.9" transform="matrix(0.1941, 0.7244, -0.7244, 0.1941, 32.5951, -68.5826)" width="68.9" xlink:href="#sprite1"/>
      <use height="21.9" transform="matrix(0.1941, 0.7244, -0.7244, 0.1941, 52.5951, -80.5826)" width="68.9" xlink:href="#sprite1"/>
      <use height="21.9" transform="matrix(0.1941, 0.7244, -0.7244, 0.1941, 57.5951, -146.0826)" width="68.9" xlink:href="#sprite1"/>
      <use height="21.9" transform="matrix(0.1941, 0.7244, -0.7244, 0.1941, 35.5951, -133.0826)" width="68.9" xlink:href="#sprite1"/>
      <use height="21.9" transform="matrix(0.0, 0.75, -0.75, 0.0, 18.8125, -117.0875)" width="68.9" xlink:href="#sprite1"/>
      <use height="21.9" transform="matrix(0.0, 0.75, -0.75, 0.0, -4.9377, -107.587)" width="68.9" xlink:href="#sprite1"/>
      <use height="21.9" transform="matrix(-0.1941, 0.7244, -0.7244, -0.1941, -23.7804, -96.3315)" width="68.9" xlink:href="#sprite1"/>
      <use height="21.9" transform="matrix(0.1941, 0.7244, -0.7244, 0.1941, 92.0951, 20.1674)" width="68.9" xlink:href="#sprite1"/>
      <use height="21.9" transform="matrix(0.0, 0.75, -0.75, 0.0, -16.1875, -147.8375)" width="68.9" xlink:href="#sprite1"/>
      <use height="21.9" transform="matrix(0.0, 0.75, -0.75, 0.0, 8.8125, -159.8375)" width="68.9" xlink:href="#sprite1"/>
      <use height="21.9" transform="matrix(-0.1941, 0.7244, -0.7244, -0.1941, -37.7804, -138.8315)" width="68.9" xlink:href="#sprite1"/>
      <use height="21.9" transform="matrix(0.1941, 0.7244, -0.7244, 0.1941, 30.5951, -173.0826)" width="68.9" xlink:href="#sprite1"/>
      <use height="48.2" transform="matrix(1.0, 0.0, 0.0, 1.0, -21.35, -243.65)" width="48.2" xlink:href="#sprite2"/>
    </g>
    <g id="shape0" transform="matrix(1, 0, 0, 1, 108.75, 220.75)">
      <path d="M30.8 -172.7 L7.6 -201.5 Q2.55 -207.85 0.0 -211.45 -2.55 -207.85 -7.55 -201.5 L-31.6 -171.65 Q-42.45 -158.0 -51.3 -145.95 L-56.1 -139.4 -57.35 -137.65 -61.55 -131.65 Q-76.1 -110.75 -83.6 -95.55 -81.95 -94.45 -67.05 -92.45 -63.0 -92.45 -53.75 -94.45 L-42.35 -96.4 -41.3 -96.35 -40.5 -97.55 Q-37.1 -97.55 -36.6 -94.15 L-36.55 -93.45 -36.55 -92.7 -37.55 -90.05 Q-37.7 -89.25 -37.95 -88.75 L-38.2 -88.4 -38.3 -88.25 -38.35 -88.25 -38.4 -88.2 -39.6 -85.5 -45.4 -72.75 -46.6 -70.2 -66.35 -27.55 -66.45 -27.4 -68.75 -22.3 -69.25 -21.25 -69.6 -20.5 -70.2 -19.15 -70.35 -18.8 -71.05 -17.3 -71.7 -15.85 -87.65 20.35 -88.45 22.35 -88.5 22.35 -91.45 29.55 -91.75 30.2 -97.15 46.15 -99.95 54.4 -101.0 57.5 -101.05 57.9 -101.05 58.0 -101.05 58.1 -101.05 58.3 -101.05 58.7 Q-101.05 63.25 -97.6 66.65 -93.15 71.0 -83.8 72.35 -47.3 77.95 -20.95 77.15 L-16.1 77.1 -12.1 77.4 Q-8.85 77.25 -0.35 77.25 L11.6 77.7 Q11.85 77.5 12.15 77.4 L13.5 77.15 13.55 77.15 Q15.7 77.0 20.8 77.15 L21.0 77.15 Q43.95 77.85 74.65 73.7 L83.85 72.35 89.35 71.2 89.35 71.15 90.65 70.75 97.65 66.65 Q99.35 64.9 100.25 62.9 101.05 60.95 101.1 58.7 101.1 56.95 100.15 53.45 L98.75 48.75 98.7 48.6 Q96.9 43.15 93.8 35.25 L91.25 28.85 87.9 20.85 Q82.15 7.25 73.9 -11.05 L70.65 -18.2 70.6 -18.4 68.8 -22.3 68.8 -22.35 65.15 -30.25 48.55 -66.1 46.65 -70.2 46.45 -70.55 46.4 -70.65 45.8 -71.95 44.75 -74.25 44.65 -74.45 42.85 -78.4 39.1 -86.65 38.4 -88.2 Q37.8 -88.75 37.6 -90.05 L36.6 -92.7 Q36.45 -97.55 40.55 -97.55 L41.35 -96.35 42.4 -96.4 53.8 -94.45 Q63.0 -92.45 67.1 -92.45 81.95 -94.45 83.6 -95.55 L81.9 -98.95 Q73.9 -114.2 59.5 -134.65 L59.3 -134.9 58.15 -136.55 55.15 -140.75 53.3 -143.35 Q45.65 -153.8 36.5 -165.45 L35.9 -166.25 35.3 -166.95 31.65 -171.65 30.8 -172.7 M0.0 -220.6 L0.95 -220.75 Q2.4 -220.75 23.85 -194.75 45.3 -168.7 53.1 -157.45 64.75 -142.15 74.0 -128.55 92.0 -101.9 92.0 -92.9 92.0 -83.3 67.55 -83.3 62.15 -83.35 52.95 -85.3 L46.3 -86.7 56.3 -66.3 Q72.35 -33.15 76.4 -21.15 L93.05 15.9 Q108.75 51.55 108.75 58.4 108.75 63.65 108.0 65.75 106.05 71.35 99.05 75.55 80.65 86.4 29.0 87.6 31.2 95.2 33.7 110.75 L36.7 131.3 Q48.75 131.7 55.45 142.0 58.95 147.4 59.9 152.85 L59.7 156.6 Q61.95 157.4 61.9 160.5 61.9 165.9 61.25 168.45 59.85 174.2 54.9 178.5 52.35 180.7 48.95 182.5 L48.9 183.0 Q44.05 202.95 40.75 209.05 L40.9 210.25 Q40.9 211.15 38.4 212.75 35.5 214.6 30.9 216.25 18.1 220.75 0.15 220.75 -21.4 220.75 -34.6 215.25 -39.45 213.25 -42.25 210.85 -44.55 208.9 -44.6 207.55 L-44.9 207.4 -46.35 206.5 Q-46.45 205.3 -49.55 193.8 -52.6 182.65 -52.6 180.25 L-52.6 180.2 Q-61.6 171.65 -61.6 153.75 L-61.5 153.0 -61.6 151.35 Q-61.6 146.25 -56.3 138.25 -49.65 128.25 -40.85 128.25 L-38.6 128.5 -35.55 110.5 Q-32.9 95.35 -30.85 87.55 -81.0 86.2 -99.0 75.55 -106.05 71.35 -108.0 65.75 -108.75 63.65 -108.75 58.4 -108.75 51.55 -93.05 15.9 L-76.35 -21.15 Q-72.3 -33.15 -56.25 -66.3 L-46.3 -86.7 -52.95 -85.3 Q-62.15 -83.35 -67.5 -83.3 -92.0 -83.3 -91.95 -92.9 -91.95 -101.9 -73.95 -128.55 -64.75 -142.15 -53.1 -157.45 -45.3 -168.7 -23.85 -194.75 -2.4 -220.75 -0.9 -220.75 L0.0 -220.6 M1.5 86.35 Q-7.15 87.8 -12.2 86.2 -13.7 87.75 -15.35 87.75 L-23.9 87.7 Q-31.1 128.1 -34.45 141.25 L-33.55 141.9 -27.0 145.85 Q-15.45 151.6 2.15 151.6 10.25 151.6 23.65 147.35 L32.25 144.45 Q28.55 133.8 21.8 87.75 L15.4 87.75 Q13.95 87.75 12.7 86.65 L1.65 86.75 3.4 86.0 1.5 86.35 M-38.45 147.7 L-38.8 147.3 -38.9 147.25 -40.35 146.35 Q-40.55 145.95 -40.55 144.45 L-40.6 144.25 -40.6 143.95 -40.6 143.35 Q-40.6 141.5 -39.65 135.3 L-45.1 139.05 Q-53.4 145.3 -54.05 150.85 -51.85 151.85 -52.1 154.6 -48.6 157.3 -39.05 160.75 -22.55 166.75 -6.85 166.75 32.25 166.75 45.4 161.25 49.85 159.35 51.15 156.9 51.65 155.9 51.65 153.75 51.65 146.55 41.55 142.25 L37.85 140.65 37.9 141.35 37.85 143.5 Q39.9 144.3 39.9 147.0 39.9 150.1 28.15 154.6 15.15 159.6 2.15 159.6 -18.6 159.6 -31.3 152.85 -35.8 150.5 -38.45 147.7 M-54.25 164.05 L-54.3 166.5 Q-53.2 182.75 -1.85 182.75 47.05 182.75 51.3 169.5 L51.8 166.4 Q36.6 174.75 -6.85 174.75 -38.5 174.75 -52.55 165.25 L-54.25 164.05 M-42.05 188.85 Q-38.1 201.05 -38.1 202.75 L-38.25 203.85 -24.7 208.0 Q-9.9 212.75 0.15 212.75 14.0 212.75 26.1 209.0 31.3 207.4 34.6 205.8 35.3 201.95 38.4 191.75 L40.3 186.0 Q24.75 190.75 -1.85 190.75 -29.75 190.75 -43.05 185.9 L-42.05 188.85" fill="#000000" fill-rule="evenodd" stroke="none"/>
      <path d="M-57.35 -137.65 L-56.1 -139.4 -51.3 -145.95 Q-42.45 -158.0 -31.6 -171.65 L-7.55 -201.5 Q-2.55 -207.85 0.0 -211.45 2.55 -207.85 7.6 -201.5 L30.8 -172.7 Q-1.7 -154.45 -8.35 -152.0 -19.15 -148.05 -44.7 -141.2 L-57.35 -137.65 M35.3 -166.95 L35.9 -166.25 36.5 -165.45 Q45.65 -153.8 53.3 -143.35 17.7 -118.15 12.9 -115.5 L-15.35 -103.85 Q-31.1 -97.35 -36.6 -94.15 -37.1 -97.55 -40.5 -97.55 L-41.3 -96.35 -42.35 -96.4 -53.75 -94.45 Q-63.0 -92.45 -67.05 -92.45 -81.95 -94.45 -83.6 -95.55 -76.1 -110.75 -61.55 -131.65 L-55.85 -131.25 Q-38.0 -131.25 -0.35 -147.25 15.5 -153.95 25.85 -160.1 32.7 -164.2 35.3 -166.95 M58.15 -136.55 L59.3 -134.9 59.5 -134.65 Q73.9 -114.2 81.9 -98.95 L83.6 -95.55 Q81.95 -94.45 67.1 -92.45 63.0 -92.45 53.8 -94.45 L42.4 -96.4 41.35 -96.35 40.55 -97.55 Q36.45 -97.55 36.6 -92.7 L37.6 -90.05 Q37.8 -88.75 38.4 -88.2 L39.1 -86.65 42.85 -78.4 Q8.15 -54.35 -4.35 -48.0 L-39.35 -34.4 Q-66.3 -23.95 -69.25 -21.25 L-68.75 -22.3 -66.45 -27.4 -66.1 -27.25 -66.35 -27.55 -46.6 -70.2 -45.4 -72.75 -39.6 -85.5 -38.4 -88.2 -38.35 -88.25 -38.3 -88.25 -38.2 -88.4 -37.95 -88.75 Q-36.65 -88.25 -34.35 -88.25 -28.2 -88.25 -12.3 -94.8 2.75 -101.05 19.65 -110.25 37.3 -119.85 48.4 -128.05 55.0 -133.0 58.15 -136.55 M46.45 -70.55 L46.65 -70.2 48.55 -66.1 65.15 -30.25 Q52.9 -21.3 39.25 -11.7 9.6 9.25 0.15 13.25 -22.7 22.9 -53.65 34.05 -88.35 46.5 -94.6 46.5 L-97.15 46.15 -91.75 30.2 -91.45 29.55 -88.5 22.35 -88.45 22.35 -87.65 20.35 -71.7 -15.85 -71.05 -17.3 -70.35 -18.8 -70.2 -19.15 -69.6 -20.5 -69.35 -18.85 Q-68.15 -17.25 -63.35 -17.25 -57.35 -17.25 -38.75 -24.5 -20.75 -31.5 -0.6 -41.5 21.05 -52.2 34.5 -61.2 42.6 -66.6 46.45 -70.55 M68.8 -22.35 L68.8 -22.3 70.6 -18.4 69.95 -17.9 70.65 -18.2 73.9 -11.05 Q82.15 7.25 87.9 20.85 50.9 51.0 48.9 52.0 24.8 64.15 -1.3 72.5 L-15.55 76.9 -16.1 77.1 -20.95 77.15 Q-47.3 77.95 -83.8 72.35 -93.15 71.0 -97.6 66.65 -101.05 63.25 -101.05 58.7 L-101.05 58.3 -101.05 58.1 -101.05 58.0 -101.05 57.9 -101.0 57.5 -99.95 54.4 -95.35 54.75 Q-81.6 54.75 -53.2 44.6 -27.1 35.25 2.15 20.8 31.45 6.3 50.3 -6.6 64.3 -16.15 68.8 -22.35 M91.25 28.85 L93.8 35.25 Q96.9 43.15 98.7 48.6 L98.15 48.75 98.75 48.75 100.15 53.45 88.15 62.25 Q76.15 71.25 74.65 73.7 43.95 77.85 21.0 77.15 L20.8 77.15 Q15.7 77.0 13.55 77.15 L18.5 75.4 Q35.85 68.95 53.95 58.25 70.55 48.45 81.7 38.8 88.55 32.85 91.25 28.85" fill="#37930f" fill-rule="evenodd" stroke="none"/>
      <path d="M-57.35 -137.65 L-44.7 -141.2 Q-19.15 -148.05 -8.35 -152.0 -1.7 -154.45 30.8 -172.7 L31.65 -171.65 35.3 -166.95 Q32.7 -164.2 25.85 -160.1 15.5 -153.95 -0.35 -147.25 -38.0 -131.25 -55.85 -131.25 L-61.55 -131.65 -57.35 -137.65 M53.3 -143.35 L55.15 -140.75 58.15 -136.55 Q55.0 -133.0 48.4 -128.05 37.3 -119.85 19.65 -110.25 2.75 -101.05 -12.3 -94.8 -28.2 -88.25 -34.35 -88.25 -36.65 -88.25 -37.95 -88.75 -37.7 -89.25 -37.55 -90.05 L-36.55 -92.7 -36.55 -93.45 -36.6 -94.15 Q-31.1 -97.35 -15.35 -103.85 L12.9 -115.5 Q17.7 -118.15 53.3 -143.35 M42.85 -78.4 L44.65 -74.45 44.75 -74.25 45.8 -71.95 46.4 -70.65 46.45 -70.55 Q42.6 -66.6 34.5 -61.2 21.05 -52.2 -0.6 -41.5 -20.75 -31.5 -38.75 -24.5 -57.35 -17.25 -63.35 -17.25 -68.15 -17.25 -69.35 -18.85 L-69.6 -20.5 -69.25 -21.25 Q-66.3 -23.95 -39.35 -34.4 L-4.35 -48.0 Q8.15 -54.35 42.85 -78.4 M65.15 -30.25 L68.8 -22.35 Q64.3 -16.15 50.3 -6.6 31.45 6.3 2.15 20.8 -27.1 35.25 -53.2 44.6 -81.6 54.75 -95.35 54.75 L-99.95 54.4 -97.15 46.15 -94.6 46.5 Q-88.35 46.5 -53.65 34.05 -22.7 22.9 0.15 13.25 9.6 9.25 39.25 -11.7 52.9 -21.3 65.15 -30.25 M87.9 20.85 L91.25 28.85 Q88.55 32.85 81.7 38.8 70.55 48.45 53.95 58.25 35.85 68.95 18.5 75.4 L13.55 77.15 13.5 77.15 12.15 77.4 Q11.85 77.5 11.6 77.7 L-0.35 77.25 Q-8.85 77.25 -12.1 77.4 L-16.1 77.1 -15.55 76.9 -1.3 72.5 Q24.8 64.15 48.9 52.0 50.9 51.0 87.9 20.85 M100.15 53.45 Q101.1 56.95 101.1 58.7 101.05 60.95 100.25 62.9 99.35 64.9 97.65 66.65 L90.65 70.75 89.35 71.15 89.35 71.2 83.85 72.35 74.65 73.7 Q76.15 71.25 88.15 62.25 L100.15 53.45" fill="#ffffff" fill-rule="evenodd" stroke="none"/>
      <path d="M1.65 86.75 L12.7 86.65 Q13.95 87.75 15.4 87.75 L21.8 87.75 Q28.55 133.8 32.25 144.45 L23.65 147.35 Q10.25 151.6 2.15 151.6 -15.45 151.6 -27.0 145.85 L-33.55 141.9 -34.45 141.25 Q-31.1 128.1 -23.9 87.7 L-15.35 87.75 Q-13.7 87.75 -12.2 86.2 -7.15 87.8 1.5 86.35 L1.65 86.75" fill="#885f00" fill-rule="evenodd" stroke="none"/>
      <path d="M-38.45 147.7 Q-35.8 150.5 -31.3 152.85 -18.6 159.6 2.15 159.6 15.15 159.6 28.15 154.6 39.9 150.1 39.9 147.0 39.9 144.3 37.85 143.5 L37.9 141.35 37.85 140.65 41.55 142.25 Q51.65 146.55 51.65 153.75 51.65 155.9 51.15 156.9 49.85 159.35 45.4 161.25 32.25 166.75 -6.85 166.75 -22.55 166.75 -39.05 160.75 -48.6 157.3 -52.1 154.6 -51.85 151.85 -54.05 150.85 -53.4 145.3 -45.1 139.05 L-39.65 135.3 Q-40.6 141.5 -40.6 143.35 L-40.6 143.95 -40.6 144.25 -40.55 144.45 Q-40.55 145.95 -40.35 146.35 L-38.9 147.25 -38.45 147.7" fill="#6d4d01" fill-rule="evenodd" stroke="none"/>
      <path d="M-42.05 188.85 L-43.05 185.9 Q-29.75 190.75 -1.85 190.75 24.75 190.75 40.3 186.0 L38.4 191.75 Q35.3 201.95 34.6 205.8 31.3 207.4 26.1 209.0 14.0 212.75 0.15 212.75 -9.9 212.75 -24.7 208.0 L-38.25 203.85 -38.1 202.75 Q-38.1 201.05 -42.05 188.85" fill="#a20000" fill-rule="evenodd" stroke="none"/>
      <path d="M-54.25 164.05 L-52.55 165.25 Q-38.5 174.75 -6.85 174.75 36.6 174.75 51.8 166.4 L51.3 169.5 Q47.05 182.75 -1.85 182.75 -53.2 182.75 -54.3 166.5 L-54.25 164.05" fill="#bb0000" fill-rule="evenodd" stroke="none"/>
      <path d="M35.5 -16.3 L34.95 -16.05 35.45 -16.45 35.5 -16.3 M56.1 33.95 L56.5 33.8 56.55 33.9 56.1 33.95 M-67.35 -23.2 L-67.3 -23.3 -67.05 -23.05 -67.35 -23.2" fill="#ffffff" fill-rule="evenodd" stroke="none"/>
      <path d="M55.7 47.35 L50.45 50.45 49.5 50.75 52.2 48.8 57.65 44.55 Q57.0 46.05 55.7 47.35" fill="#37930f" fill-rule="evenodd" stroke="none"/>
    </g>
    <g id="sprite1" transform="matrix(1, 0, 0, 1, 34.45, 10.95)">
      <use height="21.9" transform="matrix(1.0, 0.0, 0.0, 1.0, -34.45, -10.95)" width="68.9" xlink:href="#shape1"/>
    </g>
    <g id="shape1" transform="matrix(1, 0, 0, 1, 34.45, 10.95)">
      <path d="M-11.2 2.6 L-10.05 4.45 -6.55 8.45 26.95 0.15 25.3 -0.25 -6.15 -7.85 Q-8.05 -6.05 -11.0 -2.0 L-21.55 -1.95 Q-21.95 -2.85 -22.7 -3.6 -24.25 -5.15 -26.45 -5.15 -28.65 -5.15 -30.2 -3.6 -31.75 -2.05 -31.75 0.15 -31.75 2.35 -30.2 3.9 -28.65 5.45 -26.45 5.45 -24.25 5.45 -22.7 3.9 L-21.65 2.45 -11.35 2.35 -11.2 2.6 M33.25 1.25 L-7.8 10.95 -12.75 4.65 -20.05 5.05 Q-22.85 8.85 -27.55 8.15 -30.75 7.45 -32.75 5.25 -33.85 3.95 -34.05 2.35 L-34.45 0.25 Q-34.25 -4.95 -30.9 -6.95 -27.55 -8.95 -24.6 -7.9 -21.65 -6.85 -20.25 -4.85 L-12.75 -4.35 -7.45 -10.95 33.25 -0.95 34.45 0.15 33.25 1.25 M-26.45 -3.35 L-26.25 -3.35 Q-24.95 -3.25 -24.05 -2.35 L-23.4 -1.45 -23.05 -0.25 -23.05 0.05 -23.1 0.65 -23.55 1.85 -24.05 2.45 Q-24.95 3.35 -26.25 3.4 L-26.45 3.4 Q-27.85 3.4 -28.85 2.45 -29.8 1.5 -29.8 0.05 -29.8 -1.35 -28.85 -2.35 -27.85 -3.35 -26.45 -3.35 M-26.45 -1.4 Q-27.05 -1.4 -27.45 -1.0 -27.85 -0.55 -27.85 0.05 -27.85 0.65 -27.45 1.05 -27.05 1.45 -26.45 1.45 -25.85 1.45 -25.45 1.05 -25.0 0.65 -25.0 0.05 -25.0 -0.55 -25.45 -1.0 -25.85 -1.4 -26.45 -1.4" fill="#000000" fill-rule="evenodd" stroke="none"/>
      <path d="M25.3 -0.25 L26.95 0.15 -6.55 8.45 -10.05 4.45 -11.2 2.6 -6.55 3.5 -3.55 4.35 2.35 3.5 Q13.55 2.6 25.3 -0.25" fill="#8ca2f2" fill-rule="evenodd" stroke="none"/>
      <path d="M25.3 -0.25 Q13.55 2.6 2.35 3.5 L-3.55 4.35 -6.55 3.5 -11.2 2.6 -11.35 2.35 -21.65 2.45 -22.7 3.9 Q-24.25 5.45 -26.45 5.45 -28.65 5.45 -30.2 3.9 -31.75 2.35 -31.75 0.15 -31.75 -2.05 -30.2 -3.6 -28.65 -5.15 -26.45 -5.15 -24.25 -5.15 -22.7 -3.6 -21.95 -2.85 -21.55 -1.95 L-11.0 -2.0 Q-8.05 -6.05 -6.15 -7.85 L25.3 -0.25 M-26.45 -3.35 Q-27.85 -3.35 -28.85 -2.35 -29.8 -1.35 -29.8 0.05 -29.8 1.5 -28.85 2.45 -27.85 3.4 -26.45 3.4 L-26.25 3.4 Q-24.95 3.35 -24.05 2.45 L-23.55 1.85 -23.1 0.65 -23.05 0.05 -23.05 -0.25 -23.4 -1.45 -24.05 -2.35 Q-24.95 -3.25 -26.25 -3.35 L-26.45 -3.35" fill="#bac7f8" fill-rule="evenodd" stroke="none"/>
    </g>
    <g id="sprite2" transform="matrix(1, 0, 0, 1, 24.1, 24.1)">
      <use height="48.2" transform="matrix(1.0, 0.0, 0.0, 1.0, -24.1, -24.1)" width="48.2" xlink:href="#shape2"/>
    </g>
    <g id="shape2" transform="matrix(1, 0, 0, 1, 24.1, 24.1)">
      <path d="M19.95 -16.05 L16.2 -16.05 16.2 -19.9 -16.0 -19.9 -16.0 -16.15 -19.55 -16.15 -19.55 16.05 -16.0 16.05 -16.0 20.0 16.2 20.0 16.2 16.15 19.95 16.15 19.95 -16.05 M12.2 -11.9 L15.95 -11.9 15.95 12.1 12.2 12.1 12.2 16.0 -11.8 16.0 -11.8 12.1 -15.55 12.1 -15.55 -11.9 -11.8 -11.9 -11.8 -15.9 12.2 -15.9 12.2 -11.9 M9.25 -5.95 L9.25 -9.9 -2.45 -9.9 -2.45 -9.95 -9.7 -9.95 -9.7 11.8 -2.45 11.8 -2.45 5.1 9.25 5.1 9.25 1.15 12.65 1.15 12.65 -5.95 9.25 -5.95 M13.4 -23.9 L24.1 -23.9 24.1 24.1 -23.9 24.1 -23.9 23.9 -23.9 20.1 -23.9 -23.9 -5.2 -24.0 13.4 -23.9 M5.2 -5.9 L5.2 1.1 -2.45 1.1 -2.45 -5.9 5.2 -5.9" fill="#f40202" fill-rule="evenodd" stroke="none"/>
      <path d="M9.25 -5.95 L12.65 -5.95 12.65 1.15 9.25 1.15 9.25 5.1 -2.45 5.1 -2.45 11.8 -9.7 11.8 -9.7 -9.95 -2.45 -9.95 -2.45 -9.9 9.25 -9.9 9.25 -5.95 M12.2 -11.9 L12.2 -15.9 -11.8 -15.9 -11.8 -11.9 -15.55 -11.9 -15.55 12.1 -11.8 12.1 -11.8 16.0 12.2 16.0 12.2 12.1 15.95 12.1 15.95 -11.9 12.2 -11.9 M19.95 -16.05 L19.95 16.15 16.2 16.15 16.2 20.0 -16.0 20.0 -16.0 16.05 -19.55 16.05 -19.55 -16.15 -16.0 -16.15 -16.0 -19.9 16.2 -19.9 16.2 -16.05 19.95 -16.05 M5.2 -5.9 L-2.45 -5.9 -2.45 1.1 5.2 1.1 5.2 -5.9" fill="#ffffff" fill-rule="evenodd" stroke="none"/>
      <path d="M-23.9 23.9 L-24.1 23.9 -24.1 20.1 -23.9 20.1 -23.9 23.9 M-5.2 -24.0 L-0.1 -24.1 13.4 -23.9 -5.2 -24.0" fill="#990000" fill-rule="evenodd" stroke="none"/>
    </g>
  </defs>
</svg>
