<?xml version="1.0" encoding="UTF-8" standalone="no"?>
<svg xmlns:xlink="http://www.w3.org/1999/xlink" height="720.75px" width="1716.8px" xmlns="http://www.w3.org/2000/svg">
  <g transform="matrix(1, 0, 0, 1, 307.05, 450.35)">
    <use height="274.5" transform="matrix(1.0, 0.0, 0.0, 1.0, -139.05, -136.9)" width="278.15" xlink:href="#sprite0"/>
  </g>
  <defs>
    <g id="sprite0" transform="matrix(1, 0, 0, 1, 1.5, 274.0)">
      <use height="274.5" transform="matrix(1.0, 0.0, 0.0, 1.0, -1.5, -274.0)" width="278.15" xlink:href="#shape0"/>
    </g>
    <g id="shape0" transform="matrix(1, 0, 0, 1, 1.5, 274.0)">
      <path d="M3.0 -23.0 L271.0 -23.0 271.0 -6.0 3.0 -6.0 3.0 -23.0" fill="#f8dccb" fill-rule="evenodd" stroke="none"/>
      <path d="M271.95 -26.0 L2.0 -26.0 2.0 -272.0 271.95 -272.0 271.95 -26.0" fill="#fae7da" fill-rule="evenodd" stroke="none"/>
      <path d="M254.25 -53.25 L254.35 -50.7 255.35 -50.85 255.95 -51.4 Q258.15 -52.4 259.9 -50.45 263.2 -46.85 264.1 -42.05 265.95 -32.4 265.6 -22.55 L265.6 -22.0 248.25 -22.0 246.3 -26.1 245.85 -27.6 Q244.6 -33.8 245.55 -40.2 246.45 -46.2 249.35 -51.5 251.1 -54.8 254.25 -53.25 M262.05 -54.45 Q260.0 -57.6 262.85 -59.6 L265.15 -58.5 265.5 -59.45 Q265.2 -59.8 265.3 -60.2 265.45 -62.65 268.0 -63.25 L272.0 -63.75 272.0 -44.5 270.2 -45.8 Q265.35 -49.4 262.05 -54.45 M265.5 -84.4 Q268.6 -87.4 272.0 -90.0 L272.0 -68.0 Q268.85 -67.15 265.55 -66.85 261.8 -66.6 261.45 -70.05 L263.5 -71.55 262.8 -72.3 Q262.4 -72.25 262.05 -72.5 260.0 -73.85 260.7 -76.3 261.95 -81.05 265.5 -84.4 M180.2 -22.0 L165.9 -22.0 Q166.55 -22.9 168.0 -23.25 L177.35 -22.95 180.2 -22.0 M203.2 -64.15 L203.05 -63.7 Q196.5 -50.5 188.5 -38.05 L187.5 -36.85 Q182.95 -32.5 177.05 -29.8 171.55 -27.35 165.55 -26.85 161.8 -26.6 161.45 -30.05 L163.5 -31.55 162.8 -32.3 162.05 -32.5 Q160.0 -33.85 160.7 -36.3 161.95 -41.05 165.5 -44.4 172.6 -51.2 181.05 -56.2 189.0 -60.95 197.5 -64.4 200.5 -65.65 203.2 -64.15 M217.05 -51.7 L218.1 -52.8 Q222.95 -56.85 229.05 -59.1 234.7 -61.2 240.75 -61.25 244.45 -61.25 244.6 -57.75 L242.45 -56.45 243.1 -55.65 243.85 -55.4 Q245.75 -53.9 244.9 -51.45 243.3 -46.85 239.55 -43.75 231.95 -37.5 223.2 -33.05 214.9 -28.9 206.2 -26.05 203.1 -25.0 200.55 -26.65 L200.75 -27.1 Q208.2 -39.85 217.05 -51.7 M226.15 -88.45 Q232.1 -86.3 237.1 -82.2 241.75 -78.4 244.85 -73.2 246.75 -70.0 243.8 -68.1 L241.6 -69.3 241.2 -68.35 Q241.45 -68.05 241.35 -67.55 241.05 -65.15 238.55 -64.65 233.75 -63.7 229.2 -65.35 219.9 -68.75 211.7 -74.1 203.9 -79.15 197.05 -85.2 194.6 -87.35 194.75 -90.4 L195.2 -90.45 224.65 -88.8 226.15 -88.45 M175.15 -128.5 L175.5 -129.45 Q175.2 -129.8 175.3 -130.2 175.45 -132.65 178.0 -133.25 L187.35 -132.95 Q196.75 -130.0 205.25 -125.0 213.2 -120.35 220.35 -114.55 222.9 -112.55 222.9 -109.5 L222.45 -109.4 Q207.7 -108.75 192.95 -109.75 L191.4 -110.0 Q185.35 -111.9 180.2 -115.8 175.35 -119.4 172.05 -124.45 170.0 -127.6 172.85 -129.6 L175.15 -128.5 M207.5 -174.4 Q210.5 -175.65 213.2 -174.15 L213.05 -173.7 Q206.5 -160.5 198.5 -148.05 L197.5 -146.85 Q192.95 -142.5 187.05 -139.8 181.55 -137.35 175.55 -136.85 171.8 -136.6 171.45 -140.05 L173.5 -141.55 172.8 -142.3 Q172.4 -142.25 172.05 -142.5 170.0 -143.85 170.7 -146.3 171.95 -151.05 175.5 -154.4 182.6 -161.2 191.05 -166.2 199.0 -170.95 207.5 -174.4 M260.35 -101.1 L260.85 -99.65 Q262.0 -93.4 261.05 -87.0 260.1 -81.05 257.2 -75.75 255.4 -72.45 252.3 -74.05 L252.2 -76.55 251.2 -76.4 250.6 -75.9 Q248.35 -74.9 246.65 -76.85 243.35 -80.45 242.5 -85.25 240.7 -94.95 241.1 -104.8 241.45 -114.05 243.2 -123.1 243.8 -126.3 246.5 -127.7 L246.8 -127.35 Q254.3 -114.65 260.35 -101.1 M272.0 -164.5 Q270.4 -167.05 272.0 -168.85 L272.0 -164.5 M252.45 -166.45 L253.1 -165.65 253.85 -165.4 Q255.75 -163.9 254.9 -161.45 253.3 -156.85 249.55 -153.75 241.95 -147.5 233.2 -143.05 224.9 -138.9 216.2 -136.05 213.1 -135.0 210.55 -136.65 L210.75 -137.1 Q218.2 -149.85 227.05 -161.7 L228.1 -162.8 Q232.95 -166.85 239.05 -169.1 244.7 -171.2 250.75 -171.25 254.45 -171.25 254.6 -167.75 L252.45 -166.45 M255.55 -150.2 Q256.45 -156.2 259.35 -161.5 261.1 -164.8 264.25 -163.25 L264.35 -160.7 265.35 -160.85 265.95 -161.4 Q268.15 -162.4 269.9 -160.45 L272.0 -157.65 272.0 -110.85 Q271.3 -110.1 270.35 -109.6 L270.05 -109.95 Q262.45 -122.65 256.3 -136.1 L255.85 -137.6 Q254.6 -143.8 255.55 -150.2 M270.7 -186.3 Q271.15 -188.15 272.0 -189.8 L272.0 -182.5 Q270.0 -183.85 270.7 -186.3 M272.0 -178.25 Q271.55 -179.0 271.45 -180.05 L272.0 -180.5 272.0 -178.25 M94.75 -50.4 L95.2 -50.45 124.65 -48.8 126.15 -48.45 Q132.1 -46.3 137.1 -42.2 141.75 -38.4 144.85 -33.2 146.75 -30.0 143.8 -28.1 L141.6 -29.3 141.2 -28.35 Q141.45 -28.05 141.35 -27.55 141.05 -25.15 138.55 -24.65 133.75 -23.7 129.2 -25.35 119.9 -28.75 111.7 -34.1 103.9 -39.15 97.05 -45.2 94.6 -47.35 94.75 -50.4 M160.35 -61.1 L160.85 -59.65 Q162.0 -53.4 161.05 -47.0 160.1 -41.05 157.2 -35.75 155.4 -32.45 152.3 -34.05 L152.2 -36.55 151.2 -36.4 150.6 -35.9 Q148.35 -34.9 146.65 -36.85 143.35 -40.45 142.5 -45.25 140.7 -54.95 141.1 -64.8 141.45 -74.05 143.2 -83.1 143.8 -86.3 146.5 -87.7 L146.8 -87.35 Q154.3 -74.65 160.35 -61.1 M55.2 -22.0 L41.6 -22.0 Q42.1 -27.6 43.2 -33.1 43.8 -36.3 46.5 -37.7 L46.8 -37.35 Q51.2 -29.85 55.2 -22.0 M22.4 -22.0 L4.0 -22.0 4.0 -35.7 5.25 -35.0 Q13.2 -30.35 20.35 -24.55 21.75 -23.45 22.4 -22.0 M4.0 -82.9 L7.5 -84.4 Q10.5 -85.65 13.2 -84.15 L13.05 -83.7 Q8.8 -75.25 4.0 -67.05 L4.0 -82.9 M53.1 -85.65 L53.85 -85.4 Q55.75 -83.9 54.9 -81.45 53.3 -76.85 49.55 -73.75 41.95 -67.5 33.2 -63.05 24.9 -58.9 16.2 -56.05 13.1 -55.0 10.55 -56.65 L10.75 -57.1 Q18.2 -69.85 27.05 -81.7 L28.1 -82.8 Q32.95 -86.85 39.05 -89.1 44.7 -91.2 50.75 -91.25 54.45 -91.25 54.6 -87.75 L52.45 -86.45 53.1 -85.65 M65.35 -80.85 L65.95 -81.4 Q68.15 -82.4 69.9 -80.45 73.2 -76.85 74.1 -72.05 75.95 -62.4 75.6 -52.55 75.3 -43.3 73.6 -34.25 73.0 -31.05 70.35 -29.6 L70.05 -29.95 Q62.45 -42.65 56.3 -56.1 L55.85 -57.6 Q54.6 -63.8 55.55 -70.2 56.45 -76.2 59.35 -81.5 61.1 -84.8 64.25 -83.25 L64.35 -80.7 65.35 -80.85 M72.85 -89.6 L75.15 -88.5 75.5 -89.45 Q75.2 -89.8 75.3 -90.2 75.45 -92.65 78.0 -93.25 L87.35 -92.95 Q96.75 -90.0 105.25 -85.0 113.2 -80.35 120.35 -74.55 122.9 -72.55 122.9 -69.5 L122.45 -69.4 Q107.7 -68.75 92.95 -69.75 L91.4 -70.0 Q85.35 -71.9 80.2 -75.8 75.35 -79.4 72.05 -84.45 70.0 -87.6 72.85 -89.6 M21.7 -104.1 Q13.9 -109.15 7.05 -115.2 4.6 -117.35 4.75 -120.4 L5.2 -120.45 34.65 -118.8 36.15 -118.45 Q42.1 -116.3 47.1 -112.2 51.75 -108.4 54.85 -103.2 56.75 -100.0 53.8 -98.1 L51.6 -99.3 51.2 -98.35 Q51.45 -98.05 51.35 -97.55 51.05 -95.15 48.55 -94.65 43.75 -93.7 39.2 -95.35 29.9 -98.75 21.7 -104.1 M4.0 -160.55 Q9.8 -158.2 15.25 -155.0 23.2 -150.35 30.35 -144.55 32.9 -142.55 32.9 -139.5 L32.45 -139.4 Q18.25 -138.8 4.0 -139.65 L4.0 -160.55 M56.5 -157.7 L56.8 -157.35 Q64.3 -144.65 70.35 -131.1 L70.85 -129.65 Q72.0 -123.4 71.05 -117.0 70.1 -111.05 67.2 -105.75 65.4 -102.45 62.3 -104.05 L62.2 -106.55 61.2 -106.4 60.6 -105.9 Q58.35 -104.9 56.65 -106.85 53.35 -110.45 52.5 -115.25 50.7 -124.95 51.1 -134.8 51.45 -144.05 53.2 -153.1 53.8 -156.3 56.5 -157.7 M155.55 -110.2 Q156.45 -116.2 159.35 -121.5 161.1 -124.8 164.25 -123.25 L164.35 -120.7 165.35 -120.85 165.95 -121.4 Q168.15 -122.4 169.9 -120.45 173.2 -116.85 174.1 -112.05 175.95 -102.4 175.6 -92.55 175.3 -83.3 173.6 -74.25 173.0 -71.05 170.35 -69.6 L170.05 -69.95 Q162.45 -82.65 156.3 -96.1 L155.85 -97.6 Q154.6 -103.8 155.55 -110.2 M154.6 -127.75 L152.45 -126.45 153.1 -125.65 153.85 -125.4 Q155.75 -123.9 154.9 -121.45 153.3 -116.85 149.55 -113.75 141.95 -107.5 133.2 -103.05 124.9 -98.9 116.2 -96.05 113.1 -95.0 110.55 -96.65 L110.75 -97.1 Q118.2 -109.85 127.05 -121.7 L128.1 -122.8 Q132.95 -126.85 139.05 -129.1 144.7 -131.2 150.75 -131.25 154.45 -131.25 154.6 -127.75 M97.5 -106.85 Q92.95 -102.5 87.05 -99.8 81.55 -97.35 75.55 -96.85 71.8 -96.6 71.45 -100.05 L73.5 -101.55 72.8 -102.3 72.05 -102.5 Q70.0 -103.85 70.7 -106.3 71.95 -111.05 75.5 -114.4 82.6 -121.2 91.05 -126.2 99.0 -130.95 107.5 -134.4 110.5 -135.65 113.2 -134.15 L113.05 -133.7 Q106.5 -120.5 98.5 -108.05 L97.5 -106.85 M84.1 -182.05 Q85.95 -172.4 85.6 -162.55 85.3 -153.3 83.6 -144.25 83.0 -141.05 80.35 -139.6 L80.05 -139.95 Q72.45 -152.65 66.3 -166.1 L65.85 -167.6 Q64.6 -173.8 65.55 -180.2 66.45 -186.2 69.35 -191.5 71.1 -194.8 74.25 -193.25 L74.35 -190.7 75.35 -190.85 75.95 -191.4 Q78.15 -192.4 79.9 -190.45 83.2 -186.85 84.1 -182.05 M151.1 -174.8 Q151.45 -184.05 153.2 -193.1 153.8 -196.3 156.5 -197.7 L156.8 -197.35 Q164.3 -184.65 170.35 -171.1 L170.85 -169.65 Q172.0 -163.4 171.05 -157.0 170.1 -151.05 167.2 -145.75 165.4 -142.45 162.3 -144.05 L162.2 -146.55 161.2 -146.4 160.6 -145.9 Q158.35 -144.9 156.65 -146.85 153.35 -150.45 152.5 -155.25 150.7 -164.95 151.1 -174.8 M134.65 -158.8 L136.15 -158.45 Q142.1 -156.3 147.1 -152.2 151.75 -148.4 154.85 -143.2 156.75 -140.0 153.8 -138.1 L151.6 -139.3 151.2 -138.35 Q151.45 -138.05 151.35 -137.55 151.05 -135.15 148.55 -134.65 143.75 -133.7 139.2 -135.35 129.9 -138.75 121.7 -144.1 113.9 -149.15 107.05 -155.2 104.6 -157.35 104.75 -160.4 L105.2 -160.45 134.65 -158.8 M85.3 -200.2 Q85.45 -202.65 88.0 -203.25 L97.35 -202.95 Q106.75 -200.0 115.25 -195.0 123.2 -190.35 130.35 -184.55 132.9 -182.55 132.9 -179.5 L132.45 -179.4 Q117.7 -178.75 102.95 -179.75 L101.4 -180.0 Q95.35 -181.9 90.2 -185.8 85.35 -189.4 82.05 -194.45 80.0 -197.6 82.85 -199.6 L85.15 -198.5 85.5 -199.45 Q85.2 -199.8 85.3 -200.2 M85.5 -224.4 Q92.6 -231.2 101.05 -236.2 109.0 -240.95 117.5 -244.4 120.5 -245.65 123.2 -244.15 L123.05 -243.7 Q116.5 -230.5 108.5 -218.05 L107.5 -216.85 Q102.95 -212.5 97.05 -209.8 91.55 -207.35 85.55 -206.85 81.8 -206.6 81.45 -210.05 L83.5 -211.55 82.8 -212.3 Q82.4 -212.25 82.05 -212.5 80.0 -213.85 80.7 -216.3 81.95 -221.05 85.5 -224.4 M105.6 -271.95 Q105.2 -263.0 103.6 -254.25 103.0 -251.05 100.35 -249.6 L100.05 -249.95 Q93.65 -260.65 88.25 -271.95 L105.6 -271.95 M49.05 -199.1 Q54.7 -201.2 60.75 -201.25 64.45 -201.25 64.6 -197.75 L62.45 -196.45 63.1 -195.65 63.85 -195.4 Q65.75 -193.9 64.9 -191.45 63.3 -186.85 59.55 -183.75 51.95 -177.5 43.2 -173.05 34.9 -168.9 26.2 -166.05 23.1 -165.0 20.55 -166.65 L20.75 -167.1 Q28.2 -179.85 37.05 -191.7 L38.1 -192.8 Q42.95 -196.85 49.05 -199.1 M14.75 -230.4 L15.2 -230.45 44.65 -228.8 46.15 -228.45 Q52.1 -226.3 57.1 -222.2 61.75 -218.4 64.85 -213.2 66.75 -210.0 63.8 -208.1 L61.6 -209.3 61.2 -208.35 Q61.45 -208.05 61.35 -207.55 61.05 -205.15 58.55 -204.65 53.75 -203.7 49.2 -205.35 39.9 -208.75 31.7 -214.1 23.9 -219.15 17.05 -225.2 14.6 -227.35 14.75 -230.4 M23.2 -204.15 L23.05 -203.7 Q16.5 -190.5 8.5 -178.05 L7.5 -176.85 Q5.85 -175.3 4.0 -173.9 L4.0 -197.9 Q10.6 -201.6 17.5 -204.4 20.5 -205.65 23.2 -204.15 M66.5 -267.7 L66.8 -267.35 Q74.3 -254.65 80.35 -241.1 L80.85 -239.65 Q82.0 -233.4 81.05 -227.0 80.1 -221.05 77.2 -215.75 75.4 -212.45 72.3 -214.05 L72.2 -216.55 71.2 -216.4 70.6 -215.9 Q68.35 -214.9 66.65 -216.85 63.35 -220.45 62.5 -225.25 60.7 -234.95 61.1 -244.8 61.45 -254.05 63.2 -263.1 63.8 -266.3 66.5 -267.7 M42.9 -249.5 L42.45 -249.4 Q27.7 -248.75 12.95 -249.75 L11.4 -250.0 Q7.5 -251.25 4.0 -253.25 L4.0 -271.95 10.35 -271.95 Q18.1 -269.2 25.25 -265.0 33.2 -260.35 40.35 -254.55 42.9 -252.55 42.9 -249.5 M270.35 -211.1 L270.85 -209.65 Q272.0 -203.4 271.05 -197.0 270.1 -191.05 267.2 -185.75 265.4 -182.45 262.3 -184.05 L262.2 -186.55 261.2 -186.4 260.6 -185.9 Q258.35 -184.9 256.65 -186.85 253.35 -190.45 252.5 -195.25 250.7 -204.95 251.1 -214.8 251.45 -224.05 253.2 -233.1 253.8 -236.3 256.5 -237.7 L256.8 -237.35 Q264.3 -224.65 270.35 -211.1 M204.75 -200.4 L205.2 -200.45 234.65 -198.8 236.15 -198.45 Q242.1 -196.3 247.1 -192.2 251.75 -188.4 254.85 -183.2 256.75 -180.0 253.8 -178.1 L251.6 -179.3 251.2 -178.35 251.35 -177.55 Q251.05 -175.15 248.55 -174.65 243.75 -173.7 239.2 -175.35 229.9 -178.75 221.7 -184.1 213.9 -189.15 207.05 -195.2 204.6 -197.35 204.75 -200.4 M236.2 -246.05 Q233.1 -245.0 230.55 -246.65 L230.75 -247.1 Q238.2 -259.85 247.05 -271.7 L247.25 -271.95 272.0 -271.95 272.0 -266.2 269.55 -263.75 Q261.95 -257.5 253.2 -253.05 244.9 -248.9 236.2 -246.05 M174.6 -237.75 L172.45 -236.45 173.1 -235.65 173.85 -235.4 Q175.75 -233.9 174.9 -231.45 173.3 -226.85 169.55 -223.75 161.95 -217.5 153.2 -213.05 144.9 -208.9 136.2 -206.05 133.1 -205.0 130.55 -206.65 L130.75 -207.1 Q138.2 -219.85 147.05 -231.7 L148.1 -232.8 Q152.95 -236.85 159.05 -239.1 164.7 -241.2 170.75 -241.25 174.45 -241.25 174.6 -237.75 M185.35 -230.85 L185.95 -231.4 Q188.15 -232.4 189.9 -230.45 193.2 -226.85 194.1 -222.05 195.95 -212.4 195.6 -202.55 195.3 -193.3 193.6 -184.25 193.0 -181.05 190.35 -179.6 L190.05 -179.95 Q182.45 -192.65 176.3 -206.1 L175.85 -207.6 Q174.6 -213.8 175.55 -220.2 176.45 -226.2 179.35 -231.5 181.1 -234.8 184.25 -233.25 L184.35 -230.7 185.35 -230.85 M192.85 -239.6 L195.15 -238.5 195.5 -239.45 Q195.2 -239.8 195.3 -240.2 195.45 -242.65 198.0 -243.25 L207.35 -242.95 Q216.75 -240.0 225.25 -235.0 233.2 -230.35 240.35 -224.55 242.9 -222.55 242.9 -219.5 L242.45 -219.4 Q227.7 -218.75 212.95 -219.75 L211.4 -220.0 Q205.35 -221.9 200.2 -225.8 195.35 -229.4 192.05 -234.45 190.0 -237.6 192.85 -239.6 M180.6 -255.9 Q178.35 -254.9 176.65 -256.85 173.35 -260.45 172.5 -265.25 171.85 -268.6 171.5 -271.95 L191.45 -271.95 191.05 -267.0 Q190.1 -261.05 187.2 -255.75 185.4 -252.45 182.3 -254.05 L182.2 -256.55 181.2 -256.4 180.6 -255.9 M171.2 -248.35 Q171.45 -248.05 171.35 -247.55 171.05 -245.15 168.55 -244.65 163.75 -243.7 159.2 -245.35 149.9 -248.75 141.7 -254.1 133.9 -259.15 127.05 -265.2 124.6 -267.35 124.75 -270.4 L125.2 -270.45 154.65 -268.8 156.15 -268.45 Q162.1 -266.3 167.1 -262.2 171.75 -258.4 174.85 -253.2 176.75 -250.0 173.8 -248.1 L171.6 -249.3 171.2 -248.35 M226.85 -271.95 L218.5 -258.05 217.5 -256.85 Q212.95 -252.5 207.05 -249.8 201.55 -247.35 195.55 -246.85 191.8 -246.6 191.45 -250.05 L193.5 -251.55 192.8 -252.3 192.05 -252.5 Q190.0 -253.85 190.7 -256.3 191.95 -261.05 195.5 -264.4 199.8 -268.5 204.6 -271.95 L226.85 -271.95" fill="#fcf0e9" fill-rule="evenodd" stroke="none"/>
      <path d="M269.05 -23.0 L269.05 -267.5 Q252.0 -267.35 189.95 -267.55 90.0 -267.8 -1.4 -269.05 L-1.5 -270.6 Q-1.5 -272.45 -0.35 -273.45 L25.4 -273.7 114.8 -274.0 276.1 -273.8 Q276.45 -211.85 276.45 -137.0 276.8 -101.55 276.5 -67.65 275.9 -0.2 272.75 -0.2 272.05 -0.2 269.05 -2.85 L269.05 -3.0 269.05 -23.0" fill="#000000" fill-rule="evenodd" stroke="none"/>
      <path d="M269.05 -3.0 L2.0 -3.0 2.0 -23.0 2.0 -268.0 M269.05 -23.0 L2.0 -23.0" fill="none" stroke="#000000" stroke-linecap="round" stroke-linejoin="round" stroke-width="7.0"/>
    </g>
  </defs>
</svg>
