<?xml version="1.0" encoding="UTF-8" standalone="no"?>
<svg xmlns:xlink="http://www.w3.org/1999/xlink" height="720.75px" width="1716.8px" xmlns="http://www.w3.org/2000/svg">
  <g transform="matrix(1, 0, 0, 1, 307.05, 450.35)">
    <use height="240.55" transform="matrix(0.0, 1.0, -1.0, 0.0, 232.25, -50.2)" width="100.35" xlink:href="#sprite0"/>
  </g>
  <defs>
    <g id="sprite0" transform="matrix(1, 0, 0, 1, 50.15, 231.3)">
      <use height="240.55" transform="matrix(1.0, 0.0, 0.0, 1.0, -50.15, -231.3)" width="100.35" xlink:href="#shape0"/>
    </g>
    <g id="shape0" transform="matrix(1, 0, 0, 1, 50.15, 231.3)">
      <path d="M0.1 -231.3 L1.5 -230.85 1.7 -230.65 2.45 -229.65 2.45 -229.6 13.8 -197.55 47.8 -196.65 Q48.6 -196.65 49.25 -196.15 L49.4 -195.95 50.1 -194.9 Q50.35 -194.15 50.1 -193.4 L49.25 -192.15 49.1 -192.05 22.2 -171.45 31.85 -139.0 31.9 -138.85 Q32.15 -138.1 31.9 -137.3 L31.9 -137.35 Q31.65 -136.6 31.05 -136.1 L31.0 -136.1 30.95 -136.05 Q30.3 -135.6 29.55 -135.6 L29.5 -135.6 Q28.7 -135.6 28.1 -136.05 L7.5 -150.2 7.5 5.05 7.4 9.05 7.0 9.0 0.5 9.25 Q-6.75 9.25 -7.4 8.2 L-7.3 8.0 -7.5 8.0 -7.5 -150.15 -28.0 -136.05 Q-28.65 -135.6 -29.4 -135.6 L-29.5 -135.6 Q-30.25 -135.6 -30.9 -136.05 L-30.95 -136.1 Q-31.6 -136.6 -31.8 -137.35 L-31.8 -137.3 Q-32.1 -138.1 -31.8 -138.85 L-31.75 -139.0 -22.1 -171.45 -49.15 -192.15 Q-49.8 -192.65 -50.0 -193.4 L-50.0 -193.35 Q-50.3 -194.15 -50.0 -194.9 -49.8 -195.65 -49.15 -196.1 L-49.15 -196.15 -49.1 -196.2 -47.7 -196.65 -13.7 -197.55 -2.3 -229.6 -2.3 -229.65 -1.6 -230.65 -1.4 -230.85 0.0 -231.3 0.1 -231.3 M10.5 -193.05 Q9.85 -193.5 9.6 -194.2 L9.55 -194.35 0.05 -221.25 -9.45 -194.35 -9.5 -194.2 Q-9.8 -193.5 -10.4 -193.05 L-10.45 -193.05 Q-11.05 -192.6 -11.8 -192.6 L-40.5 -191.8 -17.75 -174.4 -17.7 -174.35 Q-17.1 -173.9 -16.85 -173.2 L-16.8 -173.0 Q-16.65 -172.3 -16.85 -171.65 L-16.9 -171.5 -25.05 -144.15 -1.35 -160.45 -1.35 -160.4 Q-0.75 -160.9 0.0 -160.9 L0.15 -160.9 1.5 -160.45 25.15 -144.15 17.0 -171.5 16.95 -171.65 Q16.7 -172.3 16.9 -173.0 L16.95 -173.2 Q17.15 -173.9 17.8 -174.35 L17.8 -174.4 40.6 -191.8 11.85 -192.6 Q11.1 -192.65 10.5 -193.05 L10.4 -193.15 10.5 -193.05 M0.05 -155.35 L-2.5 -153.6 -2.5 4.35 0.5 4.25 2.5 4.3 2.5 -153.65 0.05 -155.35" fill="#000000" fill-rule="evenodd" stroke="none"/>
      <path d="M0.05 -155.35 L2.5 -153.65 2.5 4.3 0.5 4.25 -2.5 4.35 -2.5 -153.6 0.05 -155.35" fill="#ffffff" fill-rule="evenodd" stroke="none"/>
      <path d="M10.5 -193.05 L10.4 -193.15 10.5 -193.05 Q11.1 -192.65 11.85 -192.6 L40.6 -191.8 17.8 -174.4 17.8 -174.35 Q17.15 -173.9 16.95 -173.2 L16.9 -173.0 Q16.7 -172.3 16.95 -171.65 L17.0 -171.5 25.15 -144.15 1.5 -160.45 0.15 -160.9 0.0 -160.9 Q-0.75 -160.9 -1.35 -160.4 L-1.35 -160.45 -25.05 -144.15 -16.9 -171.5 -16.85 -171.65 Q-16.65 -172.3 -16.8 -173.0 L-16.85 -173.2 Q-17.1 -173.9 -17.7 -174.35 L-17.75 -174.4 -40.5 -191.8 -11.8 -192.6 Q-11.05 -192.6 -10.45 -193.05 L-10.4 -193.05 Q-9.8 -193.5 -9.5 -194.2 L-9.45 -194.35 0.05 -221.25 9.55 -194.35 9.6 -194.2 Q9.85 -193.5 10.5 -193.05" fill="#ffffcc" fill-rule="evenodd" stroke="none"/>
    </g>
  </defs>
</svg>
