<?xml version="1.0" encoding="UTF-8" standalone="no"?>
<svg xmlns:xlink="http://www.w3.org/1999/xlink" height="720.75px" width="1716.8px" xmlns="http://www.w3.org/2000/svg">
  <g transform="matrix(1, 0, 0, 1, 307.05, 450.35)">
    <use height="96.6" transform="matrix(1.0, 0.0, 0.0, 1.0, -69.1, -47.8)" width="138.2" xlink:href="#sprite0"/>
  </g>
  <defs>
    <g id="sprite0" transform="matrix(1, 0, 0, 1, 69.1, 48.3)">
      <use height="96.6" transform="matrix(1.0, 0.0, 0.0, 1.0, -69.1, -48.3)" width="138.2" xlink:href="#shape0"/>
    </g>
    <g id="shape0" transform="matrix(1, 0, 0, 1, 69.1, 48.3)">
      <path d="M-44.8 -38.3 Q-47.55 -37.85 -54.8 -34.35 L-57.25 -33.15 Q-52.1 -26.05 -48.4 -10.45 -44.7 5.2 -46.5 18.9 -47.85 29.3 -50.8 34.4 L-52.85 37.4 -50.05 38.15 Q-38.25 41.3 -7.5 41.35 9.0 41.4 35.2 40.9 51.45 40.85 55.75 35.4 60.0 29.95 62.35 16.75 64.65 3.55 62.0 -11.65 59.45 -26.9 52.15 -33.5 L48.55 -36.9 Q28.05 -41.05 6.0 -41.7 3.2 -41.8 -21.95 -41.1 L-44.8 -38.3 M-22.4 -47.35 Q-5.2 -48.8 10.95 -48.05 25.4 -47.4 52.0 -43.05 58.5 -37.1 61.25 -31.7 67.7 -18.3 68.45 -6.95 69.35 5.95 69.05 9.2 L67.6 21.1 Q66.35 31.1 60.2 39.15 54.05 47.1 37.7 47.85 21.35 48.55 -7.2 48.1 -39.6 47.55 -51.7 44.3 -58.1 42.6 -59.6 40.5 -67.85 37.1 -68.9 4.6 -69.5 -12.3 -68.3 -28.95 -67.6 -31.4 -66.15 -33.7 -65.0 -35.5 -63.75 -36.2 -62.05 -39.95 -50.75 -42.95 -39.45 -45.95 -22.4 -47.35 M-54.5 -15.35 Q-59.7 -29.95 -62.45 -24.4 L-62.5 -24.2 Q-63.7 -7.0 -63.15 3.95 -62.35 20.35 -57.95 33.75 -53.7 28.05 -51.5 13.7 -49.35 -0.75 -54.5 -15.35" fill="#000000" fill-rule="evenodd" stroke="none"/>
      <path d="M-44.8 -38.3 L-21.95 -41.1 Q3.2 -41.8 6.0 -41.7 28.05 -41.05 48.55 -36.9 L52.15 -33.5 Q59.45 -26.9 62.0 -11.65 64.65 3.55 62.35 16.75 60.0 29.95 55.75 35.4 51.45 40.85 35.2 40.9 9.0 41.4 -7.5 41.35 -38.25 41.3 -50.05 38.15 L-52.85 37.4 -50.8 34.4 Q-47.85 29.3 -46.5 18.9 -44.7 5.2 -48.4 -10.45 -52.1 -26.05 -57.25 -33.15 L-54.8 -34.35 Q-47.55 -37.85 -44.8 -38.3" fill="#fde8e8" fill-rule="evenodd" stroke="none"/>
      <path d="M-54.5 -15.35 Q-49.35 -0.75 -51.5 13.7 -53.7 28.05 -57.95 33.75 -62.35 20.35 -63.15 3.95 -63.7 -7.0 -62.5 -24.2 L-62.45 -24.4 Q-59.7 -29.95 -54.5 -15.35" fill="#fcd8d8" fill-rule="evenodd" stroke="none"/>
    </g>
  </defs>
</svg>
