<?xml version="1.0" encoding="UTF-8" standalone="no"?>
<svg xmlns:xlink="http://www.w3.org/1999/xlink" height="720.75px" width="1716.8px" xmlns="http://www.w3.org/2000/svg">
  <g transform="matrix(1, 0, 0, 1, 307.05, 450.35)">
    <use height="172.5" transform="matrix(1.0, 0.0, 0.0, 1.0, -2.2, -117.8)" width="150.45" xlink:href="#sprite0"/>
  </g>
  <defs>
    <g id="sprite0" transform="matrix(1, 0, 0, 1, 3.1, 118.5)">
      <use height="172.5" transform="matrix(1.0, 0.0, 0.0, 1.0, -3.1, -118.5)" width="150.45" xlink:href="#shape0"/>
    </g>
    <g id="shape0" transform="matrix(1, 0, 0, 1, 3.1, 118.5)">
      <path d="M19.65 -7.0 Q40.75 -7.0 52.65 7.25 56.6 12.0 58.9 17.6 62.55 16.0 70.15 16.0 83.15 16.75 87.7 20.45 L88.15 23.75 Q88.15 32.15 83.65 41.0 77.0 54.0 64.15 54.0 49.45 54.0 43.1 45.9 39.75 41.65 36.0 28.0 32.5 15.4 27.0 10.15 18.5 2.0 0.15 2.0 -2.15 2.0 -3.1 0.65 L-1.5 -0.75 Q0.2 -2.15 7.5 -4.55 14.75 -7.0 19.65 -7.0 M68.9 21.5 Q64.1 21.5 60.7 23.1 L60.95 24.3 64.0 24.95 69.0 25.5 Q73.15 25.5 77.65 24.0 L79.9 23.5 Q71.4 21.5 68.9 21.5 M55.75 35.1 Q54.55 34.2 54.15 32.5 L54.15 28.75 54.2 26.5 Q51.3 13.65 44.3 6.25 37.2 -1.15 10.35 -0.8 24.8 0.95 29.9 5.75 34.95 10.5 38.55 23.05 42.1 35.55 45.35 40.15 51.2 48.5 63.5 48.5 77.45 48.5 80.95 36.8 82.05 33.2 82.3 28.75 77.7 31.0 69.65 31.0 64.45 31.0 59.55 29.9 61.0 30.65 58.5 36.0 56.85 35.85 55.85 35.15 L55.85 35.8 55.75 35.1" fill="#000000" fill-rule="evenodd" stroke="none"/>
      <path d="M68.9 21.5 Q71.4 21.5 79.9 23.5 L77.65 24.0 Q73.15 25.5 69.0 25.5 L64.0 24.95 60.95 24.3 60.7 23.1 Q64.1 21.5 68.9 21.5" fill="#443600" fill-rule="evenodd" stroke="none"/>
      <path d="M55.75 35.1 L55.85 35.8 55.85 35.15 Q56.85 35.85 58.5 36.0 61.0 30.65 59.55 29.9 64.45 31.0 69.65 31.0 77.7 31.0 82.3 28.75 82.05 33.2 80.95 36.8 77.45 48.5 63.5 48.5 51.2 48.5 45.35 40.15 42.1 35.55 38.55 23.05 34.95 10.5 29.9 5.75 24.8 0.95 10.35 -0.8 37.2 -1.15 44.3 6.25 51.3 13.65 54.2 26.5 L54.15 28.75 54.15 32.5 Q54.55 34.2 55.75 35.1" fill="#806600" fill-rule="evenodd" stroke="none"/>
      <path d="M74.35 9.0 L74.6 9.3 74.55 9.35 74.35 9.0" fill="#000000" fill-opacity="0.5019608" fill-rule="evenodd" stroke="none"/>
      <path d="M74.35 9.0 Q75.15 -1.55 71.15 -10.55 68.75 -15.95 61.85 -25.35 54.75 -34.95 52.05 -40.8 47.5 -50.6 47.5 -62.25 47.5 -65.25 49.2 -72.0 51.6 -81.4 55.7 -89.25 68.15 -113.0 91.1 -113.0 119.35 -113.0 133.3 -93.2 138.1 -86.5 140.55 -78.25 142.35 -72.3 142.35 -68.5 142.35 -55.05 133.3 -49.3 127.3 -45.45 113.35 -43.65 98.0 -41.6 93.4 -39.6 84.35 -35.6 84.35 -25.25 84.35 -23.5 87.35 -18.05 L90.35 -12.5 Q90.35 -10.55 83.05 -0.95 76.7 7.45 74.6 9.3 L74.35 9.0" fill="#ffffff" fill-opacity="0.5019608" fill-rule="evenodd" stroke="none"/>
      <path d="M74.6 9.3 Q76.7 7.45 83.05 -0.95 90.35 -10.55 90.35 -12.5 L87.35 -18.05 Q84.35 -23.5 84.35 -25.25 84.35 -35.6 93.4 -39.6 98.0 -41.6 113.35 -43.65 127.3 -45.45 133.3 -49.3 142.35 -55.05 142.35 -68.5 142.35 -72.3 140.55 -78.25 138.1 -86.5 133.3 -93.2 119.35 -113.0 91.1 -113.0 68.15 -113.0 55.7 -89.25 51.6 -81.4 49.2 -72.0 47.5 -65.25 47.5 -62.25 47.5 -50.6 52.05 -40.8 54.75 -34.95 61.85 -25.35 68.75 -15.95 71.15 -10.55 75.15 -1.55 74.35 9.0 L74.35 9.5 74.55 9.35 74.6 9.3 M52.3 -94.0 Q66.8 -118.5 94.35 -118.5 124.15 -118.5 138.4 -96.05 143.2 -88.45 145.65 -79.1 147.35 -72.55 147.35 -68.25 147.35 -52.6 138.35 -45.3 131.9 -40.05 118.6 -38.15 L108.05 -36.9 Q102.05 -36.2 98.85 -35.3 89.85 -32.8 89.85 -25.25 89.85 -24.75 92.6 -20.15 95.35 -15.6 95.35 -12.5 80.25 20.5 70.85 20.5 69.1 20.5 68.05 17.95 67.35 16.2 67.35 15.1 67.35 13.25 68.85 8.75 70.35 4.25 70.35 2.0 70.35 -3.9 66.0 -10.5 L56.45 -23.0 Q50.0 -31.5 46.85 -39.25 42.5 -50.0 42.5 -62.85 42.5 -67.6 44.55 -75.3 47.3 -85.55 52.3 -94.0" fill="#d0d0d0" fill-opacity="0.5019608" fill-rule="evenodd" stroke="none"/>
    </g>
  </defs>
</svg>
