<?xml version="1.0" encoding="UTF-8" standalone="no"?>
<svg xmlns:xlink="http://www.w3.org/1999/xlink" height="720.75px" width="1716.8px" xmlns="http://www.w3.org/2000/svg">
  <g transform="matrix(1, 0, 0, 1, 307.05, 450.35)">
    <use height="204.35" transform="matrix(1.0, 0.0, 0.0, 1.0, -193.9, -102.2)" width="387.85" xlink:href="#sprite0"/>
  </g>
  <defs>
    <g id="sprite0" transform="matrix(1, 0, 0, 1, 193.9, 102.15)">
      <use height="137.35" transform="matrix(1.0, 0.0, 0.0, 1.0, -189.7, -39.6)" width="379.75" xlink:href="#shape0"/>
      <use height="204.35" transform="matrix(1.0, 0.0, 0.0, 1.0, -193.9, -102.15)" width="387.85" xlink:href="#shape1"/>
    </g>
    <g id="shape0" transform="matrix(1, 0, 0, 1, 189.7, 39.6)">
      <path d="M103.9 -38.65 Q104.0 -39.05 104.35 -39.25 L105.05 -39.4 Q151.15 -32.0 173.45 -18.45 182.75 -12.8 186.95 -6.6 190.7 -1.15 189.95 3.65 187.85 18.6 158.25 31.75 143.55 38.25 119.15 45.1 L112.75 46.8 108.1 48.05 106.4 48.45 106.35 48.45 51.15 59.4 50.15 59.55 47.9 59.9 45.45 60.25 Q-24.65 69.9 -104.45 59.85 L-114.7 58.45 -121.2 57.5 Q-171.2 50.0 -184.55 35.95 -189.45 30.8 -189.7 24.6 -189.85 23.1 -188.8 16.3 -186.7 1.2 -152.8 -16.95 -138.15 -24.85 -102.65 -39.5 L-101.9 -39.5 -101.45 -39.3 -100.9 -38.8 -100.85 -38.05 Q-104.25 -28.7 -105.8 -18.0 -106.0 -16.8 -105.6 -14.9 -105.15 -12.5 -103.65 -12.15 L-102.45 -12.1 -101.95 -12.1 -101.5 -11.85 -91.6 -7.5 Q-81.6 -3.2 -39.2 3.9 3.25 11.0 47.0 4.25 90.75 -2.45 100.25 -5.65 109.6 -8.9 111.9 -10.1 L112.55 -10.2 113.05 -9.95 114.0 -10.05 113.95 -10.0 114.35 -10.7 Q110.8 -24.55 104.0 -37.95 103.8 -38.3 103.9 -38.65 M154.8 7.15 Q153.2 4.9 148.85 3.25 145.85 2.05 143.75 1.75 142.55 1.75 140.75 4.75 138.8 7.95 138.4 10.4 L138.25 12.1 138.25 12.15 Q138.2 14.0 138.6 15.6 139.7 20.3 144.4 21.05 148.75 21.65 152.2 17.65 L152.15 17.65 Q154.95 14.3 155.5 10.7 155.8 8.6 154.8 7.15 M47.4 37.6 Q44.75 34.4 40.05 33.7 37.0 33.4 34.55 38.3 32.75 41.9 32.25 45.15 L32.25 45.1 31.85 46.45 31.9 46.4 Q31.6 47.35 31.8 48.15 L31.8 48.2 Q32.45 50.75 37.4 51.5 42.1 52.15 45.7 47.9 L45.7 47.95 Q48.5 44.5 49.05 40.95 49.1 39.75 47.4 37.6 M-74.85 34.1 Q-77.7 32.2 -82.45 31.5 -85.05 31.1 -86.0 33.45 L-86.0 33.5 Q-86.45 34.5 -87.15 39.45 L-87.85 44.25 Q-87.5 47.9 -83.45 48.5 -79.7 48.95 -76.05 44.1 -73.15 40.1 -72.75 37.5 -72.55 35.6 -74.85 34.1 M-153.7 5.0 Q-153.1 3.45 -153.85 2.5 -154.9 1.4 -157.7 1.0 -163.4 0.15 -167.75 4.45 -171.35 7.85 -171.9 11.5 L-172.3 12.7 -172.3 12.8 Q-172.55 13.7 -172.4 14.5 -171.8 17.05 -167.3 17.75 -162.3 18.4 -157.8 12.85 -154.3 8.35 -153.8 5.2 L-153.7 5.0" fill="#4d4d4d" fill-rule="evenodd" stroke="none"/>
      <path d="M101.15 55.25 L101.65 55.65 101.8 56.25 101.55 56.85 Q98.35 60.5 73.6 80.45 48.7 100.5 -3.4 97.3 -55.45 94.1 -74.2 81.15 L-96.0 66.2 -96.35 65.65 -96.35 65.0 -95.95 64.5 -95.3 64.35 -93.1 64.6 -76.1 66.4 -74.45 66.55 -73.45 66.65 Q-42.55 69.75 15.8 67.15 65.9 64.95 100.5 55.25 L101.15 55.25" fill="#404040" fill-rule="evenodd" stroke="none"/>
    </g>
    <g id="shape1" transform="matrix(1, 0, 0, 1, 193.9, 102.15)">
      <path d="M-107.7 63.9 L-121.85 61.95 Q-175.1 53.95 -189.05 36.95 -193.8 31.25 -193.9 24.4 -193.95 23.55 -192.8 15.95 -190.1 -2.1 -147.2 -24.95 -132.6 -32.8 -117.15 -39.0 -103.75 -44.5 -101.9 -44.2 L-101.05 -43.75 -99.85 -44.35 -99.35 -44.5 Q-92.4 -60.4 -79.95 -72.3 -48.3 -102.5 14.45 -102.05 L24.9 -101.0 Q69.4 -94.3 96.3 -53.2 L101.15 -45.3 Q105.95 -45.35 116.85 -43.7 161.85 -36.95 181.95 -18.55 189.05 -12.05 192.1 -4.8 194.4 0.65 193.85 4.45 191.6 19.55 164.0 32.85 149.15 39.9 111.75 52.75 L111.05 53.0 100.8 56.2 Q66.1 65.95 15.85 68.15 -42.6 70.75 -73.55 67.65 L-74.55 67.55 -76.2 67.4 -93.2 65.6 -95.4 65.35 -95.45 65.35 -107.7 63.9 M-92.3 -30.9 Q-83.4 -27.8 -73.9 -26.35 -33.9 -20.35 8.85 -21.55 29.0 -22.15 55.95 -25.05 72.8 -27.0 86.15 -30.9 L100.65 -35.0 98.15 -39.85 Q97.1 -40.55 97.0 -41.95 L93.1 -48.55 Q67.6 -89.0 23.9 -95.55 -14.4 -101.35 -42.5 -90.35 -65.25 -81.55 -80.25 -62.25 -90.55 -49.05 -96.2 -32.45 L-92.3 -30.9 M-102.25 -38.55 Q-137.7 -23.95 -152.3 -16.1 -185.6 1.75 -187.8 16.45 -188.85 23.15 -188.7 24.55 -188.45 30.4 -183.8 35.25 -170.6 49.1 -121.05 56.5 L-114.55 57.45 -104.35 58.85 -104.3 58.85 Q-24.65 68.85 45.3 59.25 L47.75 58.9 50.0 58.55 50.95 58.4 106.15 47.5 107.85 47.05 112.5 45.85 118.85 44.1 Q143.2 37.3 157.85 30.8 186.75 17.95 188.95 3.5 189.6 -1.0 186.15 -6.05 182.0 -12.05 172.9 -17.6 150.7 -31.05 104.9 -38.4 111.85 -24.75 115.4 -10.6 L114.75 -9.35 Q114.15 -8.75 112.65 -9.0 L112.35 -9.2 Q110.05 -8.0 100.55 -4.7 91.05 -1.5 47.15 5.25 3.25 12.0 -39.35 4.9 -81.95 -2.25 -92.0 -6.6 -102.0 -10.95 -102.2 -11.15 -102.9 -11.0 -103.8 -11.15 -105.95 -11.45 -106.6 -14.7 -107.05 -16.8 -106.8 -18.15 -105.2 -28.95 -101.8 -38.4 L-102.25 -38.55 M-87.65 -12.25 Q-29.25 4.6 11.8 2.35 52.85 0.1 59.75 -1.3 66.65 -2.7 71.75 -4.25 95.75 -9.65 110.1 -13.65 L106.8 -21.3 102.45 -31.3 Q28.75 -5.4 -75.05 -20.95 -91.0 -23.35 -98.0 -26.75 -100.25 -19.2 -100.55 -15.05 -96.7 -14.45 -87.65 -12.25 M-66.3 -15.6 Q-64.9 -16.45 -64.15 -16.3 -62.35 -16.05 -62.05 -15.55 -61.8 -15.15 -62.05 -13.2 L-63.0 -10.55 -65.5 -10.45 Q-67.1 -10.7 -67.5 -11.1 L-68.05 -12.1 Q-68.45 -11.15 -68.1 -13.6 -67.95 -14.7 -66.3 -15.6 M-12.15 -11.1 Q-11.95 -10.7 -12.2 -8.75 L-12.8 -6.6 -15.15 -5.9 Q-17.3 -8.65 -17.15 -9.4 -16.9 -11.35 -16.5 -11.7 L-14.25 -11.85 Q-12.5 -11.6 -12.15 -11.1 M50.6 -11.75 Q50.85 -11.4 50.55 -9.45 L50.0 -7.25 Q48.65 -6.7 47.6 -6.6 45.5 -9.3 45.6 -10.1 45.9 -12.05 46.25 -12.35 L48.5 -12.55 Q50.25 -12.3 50.6 -11.75 M100.05 -19.45 L100.3 -19.15 Q100.5 -19.0 100.3 -17.55 L99.75 -15.7 96.45 -15.45 Q94.45 -15.75 93.4 -17.15 93.0 -16.25 93.4 -18.7 93.6 -20.25 95.05 -20.4 L97.2 -20.4 100.05 -19.45 M156.5 10.85 Q155.9 14.75 152.95 18.3 149.1 22.75 144.25 22.05 138.9 21.2 137.65 15.85 137.2 14.1 137.25 12.1 137.25 11.1 137.4 10.25 137.8 7.65 139.9 4.2 142.15 0.5 143.9 0.75 146.1 1.1 149.2 2.3 153.9 4.1 155.65 6.55 156.85 8.35 156.5 10.85 M143.7 8.55 L143.1 9.35 Q142.5 9.95 142.3 11.4 142.05 12.7 143.05 14.6 144.05 16.45 145.05 16.6 147.6 17.0 149.4 14.25 150.95 10.95 151.6 10.0 L151.65 9.5 146.5 8.75 143.7 8.55 M50.05 41.1 Q49.45 44.9 46.45 48.55 42.5 53.25 37.25 52.5 31.5 51.6 30.8 48.4 30.55 47.3 30.9 46.1 L31.25 45.0 Q31.75 41.6 33.65 37.85 36.45 32.15 40.2 32.7 45.3 33.45 48.2 37.0 50.25 39.55 50.05 41.1 M44.35 40.85 L38.65 39.55 Q37.95 40.95 36.3 45.25 L36.8 46.85 Q40.25 47.4 42.15 45.3 L44.15 41.65 44.75 40.95 44.35 40.85 M-71.75 37.65 Q-72.15 40.45 -75.25 44.7 -79.35 50.15 -83.6 49.5 -88.55 48.75 -88.9 44.15 L-88.15 39.3 Q-87.4 34.15 -86.9 33.1 -85.65 30.0 -82.3 30.5 -77.3 31.25 -74.3 33.25 -71.4 35.2 -71.75 37.65 M-77.9 38.5 L-82.8 37.25 Q-83.45 41.65 -82.7 43.55 -78.7 41.5 -78.15 39.95 L-77.9 38.5 M-157.05 13.45 Q-161.95 19.55 -167.45 18.75 -172.8 17.95 -173.4 14.7 -173.6 13.65 -173.25 12.45 L-172.9 11.35 Q-172.3 7.35 -168.45 3.7 -163.75 -0.95 -157.55 0.0 -151.05 0.95 -152.8 5.35 -153.3 8.7 -157.05 13.45 M-159.15 5.7 L-158.85 5.35 -159.85 5.2 Q-161.55 4.95 -164.45 7.7 L-167.8 11.1 Q-168.1 13.05 -167.9 13.35 -163.35 13.3 -161.25 9.9 -160.0 6.8 -159.15 5.7" fill="#000000" fill-rule="evenodd" stroke="none"/>
      <path d="M100.05 -19.45 L97.2 -20.4 95.05 -20.4 Q93.6 -20.25 93.4 -18.7 93.0 -16.25 93.4 -17.15 94.45 -15.75 96.45 -15.45 L99.75 -15.7 100.3 -17.55 Q100.5 -19.0 100.3 -19.15 L100.05 -19.45 M50.6 -11.75 Q50.25 -12.3 48.5 -12.55 L46.25 -12.35 Q45.9 -12.05 45.6 -10.1 45.5 -9.3 47.6 -6.6 48.65 -6.7 50.0 -7.25 L50.55 -9.45 Q50.85 -11.4 50.6 -11.75 M-12.15 -11.1 Q-12.5 -11.6 -14.25 -11.85 L-16.5 -11.7 Q-16.9 -11.35 -17.15 -9.4 -17.3 -8.65 -15.15 -5.9 L-12.8 -6.6 -12.2 -8.75 Q-11.95 -10.7 -12.15 -11.1 M-66.3 -15.6 Q-67.95 -14.7 -68.1 -13.6 -68.45 -11.15 -68.05 -12.1 L-67.5 -11.1 Q-67.1 -10.7 -65.5 -10.45 L-63.0 -10.55 -62.05 -13.2 Q-61.8 -15.15 -62.05 -15.55 -62.35 -16.05 -64.15 -16.3 -64.9 -16.45 -66.3 -15.6 M-87.65 -12.25 Q-96.7 -14.45 -100.55 -15.05 -100.25 -19.2 -98.0 -26.75 -91.0 -23.35 -75.05 -20.95 28.75 -5.4 102.45 -31.3 L106.8 -21.3 110.1 -13.65 Q95.75 -9.65 71.75 -4.25 66.65 -2.7 59.75 -1.3 52.85 0.1 11.8 2.35 -29.25 4.6 -87.65 -12.25" fill="#eaeaea" fill-rule="evenodd" stroke="none"/>
      <path d="M-92.3 -30.9 L-96.2 -32.45 Q-90.55 -49.05 -80.25 -62.25 -65.25 -81.55 -42.5 -90.35 -14.4 -101.35 23.9 -95.55 67.6 -89.0 93.1 -48.55 L97.0 -41.95 Q97.1 -40.55 98.15 -39.85 L100.65 -35.0 86.15 -30.9 Q72.8 -27.0 55.95 -25.05 29.0 -22.15 8.85 -21.55 -33.9 -20.35 -73.9 -26.35 -83.4 -27.8 -92.3 -30.9" fill="#d5ffff" fill-opacity="0.5019608" fill-rule="evenodd" stroke="none"/>
      <path d="M143.7 8.55 L146.5 8.75 151.65 9.5 151.6 10.0 Q150.95 10.95 149.4 14.25 147.6 17.0 145.05 16.6 144.05 16.45 143.05 14.6 142.05 12.7 142.3 11.4 142.5 9.95 143.1 9.35 L143.7 8.55 M44.35 40.85 L44.15 41.65 42.15 45.3 Q40.25 47.4 36.8 46.85 L36.3 45.25 Q37.95 40.95 38.65 39.55 L44.35 40.85 M-77.9 38.5 L-78.15 39.95 Q-78.7 41.5 -82.7 43.55 -83.45 41.65 -82.8 37.25 L-77.9 38.5 M-159.15 5.7 Q-160.0 6.8 -161.25 9.9 -163.35 13.3 -167.9 13.35 -168.1 13.05 -167.8 11.1 L-164.45 7.7 Q-161.55 4.95 -159.85 5.2 L-159.15 5.7" fill="#ffffff" fill-rule="evenodd" stroke="none"/>
      <path d="M111.05 53.0 L108.5 55.7 Q93.85 71.25 89.85 73.8 L79.15 81.8 Q73.6 85.95 55.75 95.35 37.85 104.7 -10.1 101.25 -58.1 97.8 -91.3 76.25 -100.15 70.5 -107.7 63.9 L-95.45 65.35 -95.4 65.35 -73.65 80.3 Q-55.0 93.1 -3.35 96.3 48.3 99.5 72.95 79.65 97.6 59.8 100.8 56.2 L111.05 53.0" fill="#000001" fill-rule="evenodd" stroke="none"/>
    </g>
  </defs>
</svg>
