<?xml version="1.0" encoding="UTF-8" standalone="no"?>
<svg xmlns:xlink="http://www.w3.org/1999/xlink" height="720.75px" width="1716.8px" xmlns="http://www.w3.org/2000/svg">
  <g transform="matrix(1, 0, 0, 1, 307.05, 450.35)">
    <use height="35.9" transform="matrix(1.0, 0.0, 0.0, 1.0, -38.45, -20.45)" width="83.1" xlink:href="#shape0"/>
  </g>
  <defs>
    <g id="shape0" transform="matrix(1, 0, 0, 1, 41.5, 17.95)">
      <path d="M4.3 -2.15 Q7.85 -2.7 10.6 -4.55 L15.2 -8.6 Q21.75 -14.8 32.8 -17.95 L35.75 -17.95 Q41.4 -17.35 41.6 -6.05 40.0 -1.65 30.25 2.15 27.3 2.6 24.6 4.65 24.4 4.75 19.45 9.0 12.0 15.4 -7.3 17.15 -26.6 18.9 -33.2 16.8 -39.85 14.65 -40.6 13.6 -41.4 12.5 -41.5 8.85 -41.65 5.2 -39.25 2.75 -36.9 0.35 -26.1 -1.3 -15.3 -3.0 4.3 -2.15 M36.5 -11.9 Q36.65 -13.0 35.95 -12.65 L31.35 -12.35 Q23.35 -11.0 16.7 -4.2 13.3 -0.75 11.5 0.55 8.35 2.8 4.6 3.35 -21.0 1.45 -27.3 3.2 -33.6 4.95 -35.45 6.0 -37.25 7.0 -37.15 8.05 L-36.85 9.15 Q-36.5 11.55 -31.8 12.7 -22.7 14.9 0.15 11.6 10.85 10.0 18.5 3.6 L23.85 -0.8 Q26.7 -2.9 29.9 -3.35 L36.85 -6.2 Q36.3 -10.55 36.5 -11.9" fill="#000000" fill-rule="evenodd" stroke="none"/>
      <path d="M36.5 -11.9 Q36.3 -10.55 36.85 -6.2 L29.9 -3.35 Q26.7 -2.9 23.85 -0.8 L18.5 3.6 Q10.85 10.0 0.15 11.6 -22.7 14.9 -31.8 12.7 -36.5 11.55 -36.85 9.15 L-37.15 8.05 Q-37.25 7.0 -35.45 6.0 -33.6 4.95 -27.3 3.2 -21.0 1.45 4.6 3.35 8.35 2.8 11.5 0.55 13.3 -0.75 16.7 -4.2 23.35 -11.0 31.35 -12.35 L35.95 -12.65 Q36.65 -13.0 36.5 -11.9" fill="#373737" fill-rule="evenodd" stroke="none"/>
    </g>
  </defs>
</svg>
