<?xml version="1.0" encoding="UTF-8" standalone="no"?>
<svg xmlns:xlink="http://www.w3.org/1999/xlink" height="720.75px" width="1716.8px" xmlns="http://www.w3.org/2000/svg">
  <g transform="matrix(1, 0, 0, 1, 307.05, 450.35)">
    <use height="96.5" transform="matrix(1.0, 0.0, 0.0, 1.0, -27.75, -48.25)" width="55.5" xlink:href="#sprite0"/>
  </g>
  <defs>
    <g id="sprite0" transform="matrix(1, 0, 0, 1, 27.75, 48.25)">
      <use height="96.5" transform="matrix(1.0, 0.0, 0.0, 1.0, -27.75, -48.25)" width="55.5" xlink:href="#shape0"/>
      <use height="17.0" transform="matrix(1.0, 0.0, 0.0, 1.0, -16.75, 5.25)" width="30.7" xlink:href="#shape1"/>
    </g>
    <g id="shape0" transform="matrix(1, 0, 0, 1, 27.75, 48.25)">
      <path d="M-10.25 -39.75 Q-9.5 -42.0 -5.55 -42.65 -3.35 -43.75 -0.75 -43.75 3.25 -43.75 4.95 -41.8 6.65 -39.9 2.7 -39.25 L-3.05 -38.55 -10.15 -39.0 -10.25 -39.75 M-11.5 8.1 L-8.75 2.3 -5.9 -3.2 -10.75 -33.9 -7.25 -33.75 Q0.35 -33.75 6.4 -35.8 5.65 -31.25 4.65 -12.35 L4.05 -3.65 Q6.2 0.05 8.8 5.8 L3.25 5.25 Q-4.5 5.25 -11.5 8.1" fill="#ffffff" fill-opacity="0.7529412" fill-rule="evenodd" stroke="none"/>
      <path d="M-10.15 -39.0 L-3.05 -38.55 2.7 -39.25 Q6.65 -39.9 4.95 -41.8 3.25 -43.75 -0.75 -43.75 -3.35 -43.75 -5.55 -42.65 -9.5 -42.0 -10.25 -39.75 L-10.5 -39.0 -10.15 -39.0 M8.8 5.8 Q6.2 0.05 4.05 -3.65 L4.65 -12.35 Q5.65 -31.25 6.4 -35.8 0.35 -33.75 -7.25 -33.75 L-10.75 -33.9 -5.9 -3.2 -8.75 2.3 -11.5 8.1 -14.25 13.7 -16.75 19.15 Q-21.45 29.85 -22.1 36.75 -20.4 37.5 -17.15 39.5 -9.8 42.75 2.15 42.75 12.45 42.75 18.6 39.8 L22.25 37.8 Q20.3 34.0 15.1 20.75 L14.05 18.15 13.95 17.8 8.8 5.8 M9.5 -20.5 Q8.55 -12.9 8.35 -6.35 L19.75 18.1 Q27.1 33.75 27.75 40.6 L21.3 44.25 Q13.85 48.25 1.75 48.25 -13.9 48.25 -20.05 44.75 -24.6 42.15 -26.65 39.8 L-27.75 38.2 Q-27.8 35.85 -26.65 31.55 L-24.35 24.35 Q-19.3 9.85 -11.15 -6.0 -12.2 -10.05 -15.85 -36.15 -17.3 -40.7 -12.0 -44.45 -6.55 -48.35 -0.95 -48.25 4.6 -48.15 7.1 -46.05 9.6 -44.0 10.35 -41.95 11.1 -39.9 10.75 -35.65 10.7 -29.85 9.5 -20.5" fill="#000000" fill-rule="evenodd" stroke="none"/>
      <path d="M-11.5 8.1 Q-4.5 5.25 3.25 5.25 L8.8 5.8 13.95 17.8 13.4 18.4 14.05 18.15 15.1 20.75 Q20.3 34.0 22.25 37.8 L18.6 39.8 Q12.45 42.75 2.15 42.75 -9.8 42.75 -17.15 39.5 -20.4 37.5 -22.1 36.75 -21.45 29.85 -16.75 19.15 L-14.25 13.7 -11.5 8.1" fill="#81feb3" fill-opacity="0.7529412" fill-rule="evenodd" stroke="none"/>
    </g>
    <g id="shape1" transform="matrix(1, 0, 0, 1, 16.75, -5.25)">
      <path d="M8.8 5.8 L13.95 17.8 13.4 18.4 Q9.8 22.25 -0.25 22.25 -11.75 22.25 -16.75 19.15 L-14.25 13.7 -11.5 8.1 Q-4.5 5.25 3.25 5.25 L8.8 5.8" fill="#ffffff" fill-opacity="0.5019608" fill-rule="evenodd" stroke="none"/>
    </g>
  </defs>
</svg>
