<?xml version="1.0" encoding="UTF-8" standalone="no"?>
<svg xmlns:xlink="http://www.w3.org/1999/xlink" height="720.75px" width="1716.8px" xmlns="http://www.w3.org/2000/svg">
  <g transform="matrix(1, 0, 0, 1, 307.05, 450.35)">
    <use height="51.0" transform="matrix(1.0, 0.0, 0.0, 1.0, -18.5, -25.5)" width="37.0" xlink:href="#sprite0"/>
  </g>
  <defs>
    <g id="sprite0" transform="matrix(1, 0, 0, 1, 18.5, 25.5)">
      <use height="51.0" transform="matrix(1.0, 0.0, 0.0, 1.0, -18.5, -25.5)" width="37.0" xlink:href="#shape0"/>
    </g>
    <g id="shape0" transform="matrix(1, 0, 0, 1, 18.5, 25.5)">
      <path d="M-3.75 -7.5 Q1.45 -7.5 7.35 -3.1 L12.2 0.9 Q11.0 4.75 9.5 8.0 4.1 20.0 -3.1 20.0 -9.0 20.0 -11.75 14.75 -13.5 11.35 -13.5 7.25 -12.85 0.3 -10.7 -6.25 L-10.6 -6.45 -3.75 -7.5 M-3.7 -10.25 L-6.45 -10.0 -9.5 -9.5 Q-5.5 -19.25 0.75 -19.25 L3.2 -18.9 Q2.7 -15.65 0.55 -9.75 L-3.7 -10.25 M13.5 -4.0 L12.85 -1.4 Q11.25 -3.45 8.6 -5.6 6.1 -7.6 3.5 -8.75 5.05 -10.9 5.75 -17.7 7.85 -16.3 9.75 -13.75 13.5 -8.7 13.5 -4.0" fill="#ffffff" fill-rule="evenodd" stroke="none"/>
      <path d="M18.5 -4.0 Q13.15 25.5 -3.0 25.5 -12.6 25.5 -16.45 16.75 -17.7 13.95 -18.2 10.55 L-18.5 7.35 Q-18.5 5.4 -17.55 0.9 -16.3 -5.15 -14.2 -10.25 -7.95 -25.5 3.0 -25.5 11.05 -25.5 15.55 -15.2 18.5 -8.45 18.5 -4.0 M13.5 -4.0 Q13.5 -8.7 9.75 -13.75 7.85 -16.3 5.75 -17.7 5.05 -10.9 3.5 -8.75 6.1 -7.6 8.6 -5.6 11.25 -3.45 12.85 -1.4 L13.5 -4.0 M-3.7 -10.25 L0.55 -9.75 Q2.7 -15.65 3.2 -18.9 L0.75 -19.25 Q-5.5 -19.25 -9.5 -9.5 L-6.45 -10.0 -3.7 -10.25 M-3.75 -7.5 L-10.6 -6.45 -10.7 -6.25 Q-12.85 0.3 -13.5 7.25 -13.5 11.35 -11.75 14.75 -9.0 20.0 -3.1 20.0 4.1 20.0 9.5 8.0 11.0 4.75 12.2 0.9 L7.35 -3.1 Q1.45 -7.5 -3.75 -7.5" fill="#000000" fill-rule="evenodd" stroke="none"/>
    </g>
  </defs>
</svg>
