<?xml version="1.0" encoding="UTF-8" standalone="no"?>
<svg xmlns:xlink="http://www.w3.org/1999/xlink" height="720.75px" width="1716.8px" xmlns="http://www.w3.org/2000/svg">
  <g transform="matrix(1, 0, 0, 1, 307.05, 450.35)">
    <use height="362.15" transform="matrix(0.0, -1.0, 1.0, 0.0, -181.05, 18.25)" width="36.5" xlink:href="#sprite0"/>
  </g>
  <defs>
    <g id="sprite0" transform="matrix(1, 0, 0, 1, 17.6, 79.55)">
      <use height="362.15" transform="matrix(1.0, 0.0, 0.0, 1.0, -17.6, -79.55)" width="36.5" xlink:href="#shape0"/>
    </g>
    <g id="shape0" transform="matrix(1, 0, 0, 1, 17.6, 79.55)">
      <path d="M-1.7 166.0 L-6.7 166.0 -6.7 -70.85 -6.6 -73.75 Q-5.45 -77.55 -1.2 -79.2 3.0 -80.9 8.05 -74.75 L8.1 -58.5 8.1 -48.5 8.2 27.5 8.15 27.5 8.2 57.5 8.15 57.5 8.2 80.0 8.2 87.5 8.15 87.5 8.2 117.5 8.15 117.5 8.2 140.0 8.15 140.0 8.15 166.0 3.3 166.0 3.3 -70.85 3.15 -72.5 1.65 -73.8 Q-0.45 -74.95 -1.7 -72.1 L-1.7 166.0" fill="#000000" fill-rule="evenodd" stroke="none"/>
      <path d="M3.3 166.0 L-1.7 166.0 -1.7 -72.1 Q-0.45 -74.95 1.65 -73.8 L3.15 -72.5 3.3 -70.85 3.3 166.0" fill="#746736" fill-rule="evenodd" stroke="none"/>
      <path d="M3.3 111.0 L8.2 111.0 8.25 135.0 8.2 135.0 8.3 207.5 Q14.75 211.35 16.7 226.1 19.25 245.95 18.85 261.9 18.7 266.85 18.65 282.6 L-17.35 282.6 -17.35 281.7 -17.35 281.5 -17.55 261.9 Q-17.95 248.0 -16.0 231.15 L-15.4 226.1 Q-13.45 211.0 -6.7 207.3 L-6.7 111.0 -1.7 111.0 -1.7 209.35 Q-7.15 211.75 -9.05 216.8 -10.95 221.85 -12.45 237.65 L-12.6 239.4 -12.7 240.35 -13.45 255.25 -13.5 257.9 -13.5 277.6 -13.2 278.45 Q-12.95 278.75 -12.5 278.75 L3.55 278.75 5.8 278.75 13.8 278.85 Q14.2 278.85 14.5 278.55 L14.8 277.7 Q14.95 266.1 14.75 256.65 L14.7 254.5 Q14.4 244.35 13.65 236.75 12.2 221.5 10.1 216.4 8.0 211.3 3.45 209.35 L3.3 209.35 3.3 111.0" fill="#000000" fill-rule="evenodd" stroke="none"/>
      <path d="M-1.7 111.0 L3.3 111.0 3.3 209.35 3.45 209.35 Q8.0 211.3 10.1 216.4 12.2 221.5 13.65 236.75 14.4 244.35 14.7 254.5 L1.85 269.25 -13.45 255.25 -12.7 240.35 -12.6 239.4 -12.45 237.65 Q-10.95 221.85 -9.05 216.8 -7.15 211.75 -1.7 209.35 L-1.7 111.0" fill="#746736" fill-rule="evenodd" stroke="none"/>
      <path d="M14.7 254.5 L14.75 256.65 Q14.95 266.1 14.8 277.7 L14.5 278.55 Q14.2 278.85 13.8 278.85 L5.8 278.75 3.55 278.75 -12.5 278.75 Q-12.95 278.75 -13.2 278.45 L-13.5 277.6 -13.5 257.9 -13.45 255.25 1.85 269.25 14.7 254.5" fill="#0c62b8" fill-rule="evenodd" stroke="none"/>
    </g>
  </defs>
</svg>
