<?xml version="1.0" encoding="UTF-8" standalone="no"?>
<svg xmlns:xlink="http://www.w3.org/1999/xlink" height="720.75px" width="1716.8px" xmlns="http://www.w3.org/2000/svg">
  <g transform="matrix(1, 0, 0, 1, 307.05, 450.35)">
    <use height="398.7" transform="matrix(1.0, 0.0, 0.0, 1.0, -240.9, -199.35)" width="481.85" xlink:href="#sprite0"/>
  </g>
  <defs>
    <g id="sprite0" transform="matrix(1, 0, 0, 1, 240.9, 199.35)">
      <use height="398.7" transform="matrix(1.0, 0.0, 0.0, 1.0, -240.9, -199.35)" width="481.85" xlink:href="#shape0"/>
    </g>
    <g id="shape0" transform="matrix(1, 0, 0, 1, 240.9, 199.35)">
      <path d="M-233.9 76.5 Q-236.9 63.25 -236.9 49.25 -237.45 46.1 -237.3 43.15 L-237.15 41.65 Q-238.8 39.6 -239.9 33.35 L-240.9 23.75 Q-240.9 8.9 -232.55 -10.0 -229.3 -17.35 -225.1 -24.65 -220.75 -32.25 -215.3 -39.75 L-209.75 -47.1 Q-194.65 -66.2 -175.95 -80.75 -155.7 -96.5 -133.05 -104.95 L-131.4 -120.55 Q-128.9 -142.05 -128.9 -144.0 -128.9 -156.35 -140.9 -172.45 L-149.15 -183.05 Q-152.9 -188.0 -152.9 -190.0 L-152.75 -191.25 -152.9 -191.35 Q-152.1 -193.05 -150.75 -194.35 L-149.4 -195.35 Q-146.65 -195.35 -141.65 -189.15 L-134.4 -180.35 -126.35 -174.1 Q-120.15 -169.3 -118.05 -166.85 -114.35 -162.5 -112.45 -152.05 -111.05 -144.45 -111.05 -137.35 -111.05 -130.45 -112.55 -120.05 L-113.7 -110.55 Q-106.95 -113.7 -75.8 -124.45 -36.35 -138.15 -22.05 -140.35 L-18.85 -140.0 -19.05 -141.5 Q-19.05 -145.4 -15.8 -147.1 -12.35 -148.85 -4.15 -148.85 L-0.05 -149.35 Q-0.25 -153.2 0.25 -154.15 0.95 -155.35 3.95 -155.35 6.85 -155.35 8.1 -154.65 L9.7 -153.1 Q11.85 -150.85 20.35 -150.85 21.6 -150.85 25.15 -152.1 L27.0 -152.7 26.95 -153.35 Q26.95 -160.3 28.55 -161.85 29.7 -162.9 35.4 -163.05 54.1 -163.4 76.7 -175.6 80.4 -177.6 84.65 -181.4 89.3 -184.8 98.45 -187.1 103.65 -188.45 105.8 -193.65 106.9 -196.45 107.5 -197.2 108.7 -198.9 110.95 -199.35 L113.45 -198.85 113.7 -198.6 113.95 -197.0 113.95 -196.35 Q127.45 -195.85 132.0 -166.55 134.35 -151.55 133.95 -135.1 133.95 -130.0 132.4 -109.95 132.85 -110.35 134.45 -110.35 140.25 -110.35 155.95 -94.55 L155.95 -96.5 Q155.95 -104.55 160.6 -111.55 162.95 -115.1 170.85 -123.15 178.0 -130.5 181.05 -135.95 185.7 -144.3 185.7 -154.6 185.7 -163.05 179.35 -179.9 L175.85 -199.3 177.15 -198.95 178.95 -199.35 Q184.0 -199.35 194.95 -176.35 200.55 -164.75 200.85 -163.5 L200.95 -154.25 Q200.95 -141.9 189.95 -119.85 L182.4 -105.15 Q178.95 -98.3 178.95 -96.1 178.95 -84.5 184.9 -75.6 188.05 -70.9 197.95 -61.5 207.15 -52.8 211.0 -46.05 216.95 -35.65 216.95 -21.5 L216.85 -10.0 Q220.95 0.5 220.95 8.15 220.95 12.9 220.75 13.85 L220.7 14.2 Q230.95 16.5 230.95 29.0 230.95 35.25 229.0 40.7 227.7 44.3 225.75 46.5 229.65 51.65 235.95 62.5 L235.85 64.95 235.7 65.9 Q235.85 66.3 235.2 66.5 L235.55 68.7 235.95 72.5 Q235.95 79.4 230.95 85.2 234.4 89.05 234.4 95.9 L233.95 108.4 Q234.25 111.55 237.7 120.05 240.95 128.15 240.95 131.65 L240.7 133.9 Q239.95 134.65 237.45 134.65 235.65 134.65 232.6 132.6 228.9 130.15 227.45 129.65 219.0 126.7 212.9 126.3 L211.95 126.25 Q206.75 134.65 198.95 134.65 L196.9 134.3 196.2 133.4 Q195.95 134.4 195.95 131.9 L196.0 131.65 195.85 131.7 165.95 143.65 163.2 143.15 Q162.95 142.65 162.95 140.15 162.95 135.9 165.9 125.15 167.2 120.5 168.2 117.55 139.25 127.65 114.45 127.65 80.85 127.65 58.75 121.45 50.8 119.25 35.2 113.65 L30.9 112.15 22.95 119.2 Q6.95 133.35 6.95 140.4 L4.45 141.65 4.15 141.45 2.45 141.65 Q-0.8 141.65 -2.05 123.15 -2.05 118.5 2.4 109.7 4.25 106.05 6.3 103.6 L3.45 102.65 Q-14.05 96.95 -27.35 89.1 L-28.9 88.1 -37.25 99.3 Q-49.1 114.8 -50.45 117.85 -51.85 120.85 -65.5 129.15 -79.15 137.4 -81.25 140.05 -83.35 142.7 -85.25 148.95 -87.05 155.0 -87.05 159.9 -87.05 164.7 -82.65 175.7 -79.5 183.65 -77.05 188.05 -74.65 192.4 -70.0 197.9 L-68.65 199.35 Q-88.75 197.55 -98.1 178.0 -104.05 165.45 -104.05 152.65 -104.05 141.5 -97.25 129.05 -89.15 114.1 -76.05 109.15 -69.0 106.5 -63.6 99.2 -60.3 94.7 -55.7 84.95 -52.85 78.9 -50.8 75.4 -63.95 68.7 -74.25 62.65 L-74.85 62.3 Q-88.25 54.35 -96.75 47.5 -101.95 43.3 -105.85 39.2 L-106.05 39.0 -106.05 39.4 Q-106.05 40.85 -108.9 46.3 -106.2 48.0 -100.6 54.3 -92.2 63.65 -91.3 64.15 -89.05 65.35 -73.0 70.1 -58.05 75.3 -58.05 79.9 -58.05 81.1 -80.0 86.0 -104.1 91.35 -108.8 93.9 -111.55 95.4 -118.55 100.85 L-131.15 110.5 -129.9 114.0 Q-129.9 115.0 -130.2 115.75 L-129.9 116.15 Q-129.9 117.6 -130.05 117.55 L-130.4 117.65 -130.9 118.35 -132.9 118.65 Q-137.4 118.65 -143.0 116.35 -143.7 117.5 -149.75 124.05 -157.45 132.45 -160.15 136.9 -164.9 144.8 -164.9 158.65 -164.9 159.95 -161.9 164.6 -158.9 169.2 -158.9 169.75 L-158.95 171.25 -159.4 172.0 Q-159.4 172.5 -161.9 172.5 -169.85 172.5 -191.3 148.5 -209.75 127.95 -218.65 113.4 -229.3 96.05 -233.75 77.1 L-233.9 76.5 M187.4 -177.1 L186.55 -178.7 186.95 -176.95 Q189.6 -165.7 190.95 -154.25 190.95 -141.5 186.15 -132.95 183.25 -127.85 175.7 -120.75 168.25 -113.7 165.65 -108.85 161.3 -100.75 161.95 -88.6 L161.9 -88.45 163.85 -86.35 169.3 -80.4 Q183.25 -64.9 191.45 -53.35 L192.1 -52.5 Q203.8 -36.15 210.75 -23.05 L210.8 -26.5 Q210.9 -33.6 209.35 -38.35 L208.8 -39.9 Q206.5 -45.6 201.2 -50.6 190.15 -61.1 182.5 -73.1 L181.55 -74.65 Q176.8 -82.3 175.05 -88.4 L174.7 -89.7 Q173.95 -92.7 173.95 -95.35 173.95 -97.15 174.4 -99.3 L174.5 -99.65 Q175.3 -103.35 177.4 -107.95 178.85 -111.15 184.95 -122.4 195.95 -142.7 195.95 -154.6 195.95 -161.3 187.4 -177.1 M128.6 -128.2 L128.95 -135.0 Q128.95 -184.0 111.75 -189.95 L110.6 -188.6 Q108.0 -185.9 102.15 -183.1 L91.05 -177.95 Q84.15 -174.6 79.7 -170.85 69.85 -162.6 61.45 -160.35 56.1 -158.8 49.5 -158.0 L40.2 -156.95 Q35.95 -156.3 34.15 -154.9 33.05 -154.05 32.55 -152.7 L32.7 -152.6 32.95 -151.0 Q32.95 -148.85 29.2 -147.1 27.65 -146.35 26.0 -145.95 37.45 -145.3 47.85 -143.45 66.75 -140.2 82.1 -133.2 94.6 -127.55 108.15 -118.1 L117.6 -111.15 125.65 -104.95 126.95 -103.9 126.95 -105.0 127.25 -109.05 128.6 -128.2 M117.4 -116.5 Q113.2 -125.7 106.15 -146.95 98.95 -168.6 98.95 -172.35 98.95 -174.35 99.25 -174.8 99.65 -175.35 101.45 -175.35 104.85 -175.35 108.8 -165.05 L108.95 -164.7 Q111.35 -158.35 114.0 -148.25 116.9 -136.9 119.1 -125.4 L119.75 -121.95 119.95 -120.85 119.7 -117.1 117.45 -116.35 117.4 -116.5 M112.85 -168.5 L109.95 -176.75 Q109.95 -178.9 110.25 -179.5 110.7 -180.35 112.45 -180.35 116.65 -180.35 124.25 -151.3 L124.6 -150.1 125.95 -144.6 125.8 -142.9 125.7 -142.35 Q125.95 -141.35 123.45 -141.35 122.35 -141.35 112.85 -168.5 M67.45 -158.35 Q69.6 -158.35 72.65 -153.95 L76.95 -147.35 75.55 -145.1 Q74.9 -144.35 73.45 -144.35 69.7 -144.35 66.95 -149.7 64.95 -153.65 64.95 -155.35 64.95 -157.35 65.25 -157.8 65.65 -158.35 67.45 -158.35 M81.25 -164.8 Q81.65 -165.35 83.45 -165.35 85.2 -165.35 99.95 -135.6 99.95 -134.35 97.45 -134.35 92.8 -134.35 86.45 -148.1 80.95 -160.0 80.95 -162.35 80.95 -164.35 81.25 -164.8 M53.75 -144.2 Q53.05 -143.35 50.45 -143.35 L47.9 -143.5 Q44.15 -144.1 41.5 -146.35 L38.95 -149.5 Q38.95 -151.45 39.25 -151.85 39.65 -152.35 41.45 -152.35 42.65 -152.35 47.5 -150.65 53.55 -148.55 54.95 -146.35 L53.75 -144.2 M145.45 -93.8 L144.2 -95.05 132.65 -106.8 132.15 -107.3 132.1 -106.2 131.95 -104.75 Q131.95 -104.0 132.3 -103.05 132.65 -102.05 133.45 -100.9 134.85 -98.85 134.95 -97.75 L134.95 -97.6 134.7 -95.35 Q134.95 -94.35 132.45 -94.35 130.35 -94.35 129.0 -95.45 123.35 -96.2 115.1 -102.45 L114.7 -102.75 Q102.9 -112.5 94.9 -118.1 62.2 -140.85 17.35 -140.85 5.75 -140.85 -3.1 -138.65 -9.45 -137.1 -17.55 -133.35 -19.65 -134.05 -19.95 -136.05 -26.85 -132.9 -49.9 -125.75 L-86.0 -114.85 -110.55 -107.35 Q-112.0 -107.85 -112.35 -108.15 L-112.65 -108.55 -113.85 -108.45 -113.85 -108.2 -114.05 -103.6 -113.8 -101.3 Q-112.9 -96.85 -108.75 -90.2 -103.15 -81.25 -96.3 -76.1 -93.85 -74.25 -89.0 -71.55 L-86.95 -70.45 -85.35 -69.6 Q-84.65 -69.25 -83.95 -68.85 L-72.6 -63.2 Q-64.0 -59.05 -59.2 -55.6 -56.4 -53.6 -54.9 -51.85 L-54.8 -51.75 -54.6 -51.55 -54.3 -51.1 Q-50.8 -46.1 -45.5 -36.35 L-40.9 -27.75 -39.75 -25.5 -37.55 -21.15 -33.1 -11.6 -31.1 -6.8 Q-28.05 1.15 -28.05 5.15 -28.05 6.6 -28.2 6.55 -28.5 6.45 -28.55 6.65 L-29.05 7.35 -30.4 8.05 -30.35 8.1 Q-30.05 8.45 -30.05 10.4 -30.05 11.05 -33.15 15.7 L-33.75 16.6 Q-36.3 20.4 -36.3 20.9 -36.3 21.5 -35.15 22.4 L-34.3 22.95 Q-28.6 26.6 -6.35 34.05 28.25 45.6 30.7 46.9 L41.85 53.0 Q51.9 58.05 63.4 61.8 97.9 73.15 144.35 73.15 185.9 73.15 208.8 67.35 214.75 65.85 219.65 63.85 L222.0 62.8 227.75 60.05 223.15 53.25 220.7 49.45 220.15 49.55 218.45 49.65 Q215.95 49.65 214.0 48.75 206.95 45.45 206.95 30.4 206.95 26.25 208.0 22.35 L208.0 22.3 208.5 20.65 Q210.45 14.6 214.25 13.8 L214.95 11.6 Q215.95 8.9 215.95 7.65 215.95 -1.25 204.5 -22.2 L203.65 -23.7 Q194.65 -39.95 186.2 -51.6 L182.4 -55.8 178.65 -59.7 174.15 -64.4 174.1 -64.45 145.45 -93.8 M45.5 -7.9 Q46.8 -5.55 46.95 -2.5 L46.95 -1.85 Q46.95 7.75 44.5 14.65 39.8 27.65 27.45 27.65 20.3 27.65 15.05 25.95 9.55 24.15 6.1 20.55 L4.7 18.9 Q0.95 13.95 0.95 7.65 0.95 2.35 3.55 -3.65 L4.2 -5.05 6.1 -8.35 6.3 -8.65 Q9.75 -13.7 14.95 -15.4 17.7 -16.35 20.95 -16.35 40.8 -16.35 45.5 -7.9 M213.5 26.0 L213.45 26.0 213.25 26.5 214.0 26.15 213.5 26.0 M160.6 78.35 L157.0 78.5 155.15 78.55 153.8 78.55 152.65 78.6 147.7 78.65 144.45 78.65 Q121.05 78.65 93.8 74.4 76.15 71.6 60.25 67.6 L50.95 65.15 Q48.35 64.45 42.9 61.0 L41.15 59.85 38.15 57.85 Q27.75 50.75 25.45 49.65 19.55 46.8 6.8 43.0 L-0.05 41.05 -6.35 39.2 -15.5 36.4 Q-25.35 33.3 -31.55 30.35 L-37.05 29.65 -38.1 29.65 Q-38.3 27.8 -38.95 25.85 -41.0 24.05 -41.7 22.35 -43.8 21.25 -46.0 16.35 L-48.2 10.65 -48.5 9.75 -52.5 -4.35 -53.1 -6.4 -54.05 -9.35 Q-57.9 -20.75 -59.8 -24.35 L-60.45 -25.55 Q-61.9 -28.05 -63.65 -30.3 L-63.85 -30.55 Q-67.95 -35.75 -73.8 -39.6 L-74.25 -39.9 -80.05 -43.6 Q-87.05 -47.95 -95.1 -52.35 L-95.2 -52.4 -97.25 -53.5 -99.35 -54.65 -100.4 -55.2 -101.5 -55.75 Q-116.15 -63.5 -119.15 -65.4 -127.0 -70.4 -130.25 -76.15 L-130.95 -77.5 Q-131.95 -79.55 -132.55 -81.95 -133.9 -86.85 -133.9 -93.35 L-133.85 -95.0 -133.5 -100.35 -133.45 -100.6 -135.55 -99.3 -148.15 -91.2 -159.0 -83.75 -167.05 -77.85 Q-175.95 -71.1 -183.9 -64.2 -211.0 -40.55 -223.95 -17.55 -235.9 3.55 -235.9 24.15 -235.9 26.05 -233.75 36.45 L-230.4 33.75 Q-224.3 29.45 -214.4 25.65 -198.45 19.6 -179.35 17.2 L-171.3 16.4 -153.4 15.65 Q-145.65 15.65 -143.15 16.7 L-142.95 16.8 Q-130.15 8.3 -116.15 0.25 -115.45 -2.2 -114.4 -4.45 L-113.0 -7.35 -112.5 -8.2 -111.1 -10.45 -109.95 -12.0 -105.8 -16.9 -101.1 -21.95 -93.5 -29.55 -89.35 -33.6 -89.0 -33.9 -88.55 -34.35 -85.55 -33.85 -85.3 -33.6 Q-85.05 -33.45 -85.05 -32.0 L-85.25 -31.45 Q-85.95 -30.2 -89.4 -26.9 L-97.35 -19.0 -99.05 -17.15 -101.45 -14.3 -103.0 -12.35 Q-113.05 1.05 -113.05 14.15 -113.05 30.05 -89.0 46.5 L-81.05 51.65 -72.05 57.05 -47.55 70.8 Q-43.75 66.65 -39.05 66.65 -37.95 66.65 -37.25 67.0 L-36.8 67.35 -36.05 68.65 -37.65 70.55 Q-41.15 75.05 -43.8 80.8 L-48.35 92.55 -49.05 94.3 Q-50.5 97.8 -52.1 100.45 L-53.9 103.1 Q-57.9 108.35 -64.55 111.65 -80.15 119.35 -83.7 121.75 -88.9 125.3 -91.3 130.9 -93.45 136.1 -96.8 142.1 -99.05 146.85 -99.05 152.65 -99.05 174.2 -84.95 185.2 -86.45 181.65 -88.0 176.45 L-92.05 160.15 Q-92.05 142.75 -86.55 136.65 -81.95 131.7 -70.3 125.3 -58.85 119.05 -58.3 118.4 L-51.65 109.45 -44.05 98.85 -40.15 93.4 -35.55 87.1 -31.9 82.3 Q-25.85 74.65 -24.05 74.65 -22.45 74.65 -21.8 75.35 L-21.05 76.65 -23.45 80.4 -24.0 81.2 -25.25 83.05 Q-7.95 92.1 11.05 99.6 12.95 98.65 14.95 98.65 16.55 98.65 17.3 99.65 17.8 100.3 17.95 101.4 L14.25 105.3 13.05 106.4 11.9 107.5 10.45 108.9 Q2.95 117.25 2.95 123.5 2.95 126.3 3.6 129.95 6.55 124.35 14.85 116.8 L16.95 114.85 27.25 105.9 Q31.95 101.6 31.95 99.75 L32.1 97.95 32.2 97.15 32.65 96.9 34.45 96.65 Q36.25 96.65 37.4 97.35 38.55 98.1 38.95 99.65 L39.15 100.65 38.95 102.65 Q38.95 103.85 37.15 106.1 L35.1 108.3 Q77.75 122.15 113.85 122.15 147.55 122.15 181.2 107.2 L181.25 107.15 186.55 104.7 Q191.5 102.3 196.5 99.6 205.5 94.7 213.05 89.5 217.65 86.3 221.7 83.0 230.95 75.5 230.95 73.15 230.95 71.6 229.55 67.15 L228.55 63.9 226.95 64.8 Q225.45 65.6 223.9 66.35 L223.3 66.6 Q216.15 69.9 206.95 72.35 L197.15 74.55 Q181.35 77.5 160.7 78.35 L160.6 78.35 M200.2 103.9 L199.9 104.05 199.9 104.1 199.95 104.1 Q201.95 106.4 203.5 110.8 L204.1 112.6 204.25 113.15 204.45 113.8 204.85 115.4 Q205.95 119.95 205.95 124.5 L205.95 124.65 205.95 124.9 206.3 124.55 208.9 120.25 Q210.95 116.2 210.95 115.4 L209.15 109.15 206.65 100.7 200.2 103.9 M196.95 111.75 L196.45 111.15 193.35 107.25 Q182.7 112.2 172.6 115.95 172.95 116.95 172.95 118.0 172.95 120.4 171.55 125.5 170.05 130.9 169.95 133.4 171.45 133.1 178.1 130.4 L179.7 129.75 182.75 128.8 Q190.0 126.65 196.45 126.65 L198.6 126.9 Q200.95 123.25 200.95 120.65 200.95 116.7 196.95 111.75 M214.35 121.75 L213.9 122.7 215.05 122.7 215.8 122.7 218.95 122.65 222.75 123.35 231.95 125.15 Q231.15 120.9 229.65 108.05 L228.9 101.3 228.15 93.0 228.0 89.7 227.95 88.4 227.95 88.2 225.75 89.95 225.4 90.2 Q221.55 92.95 211.1 98.4 213.15 102.5 215.45 112.8 L215.95 115.25 Q215.95 117.95 214.5 121.4 L214.35 121.75 M214.95 19.15 L214.95 19.85 215.3 19.25 214.95 19.15 M222.95 32.65 Q222.95 35.0 222.0 37.15 220.4 40.65 216.95 40.65 215.0 40.65 213.65 40.0 215.1 43.65 216.6 44.25 218.1 44.8 219.7 43.5 L221.3 42.0 221.45 41.6 221.65 41.5 221.5 41.55 Q223.55 39.15 224.95 33.95 L222.95 32.6 222.95 32.65 M-7.05 -143.85 Q-12.0 -144.1 -13.85 -142.0 L-14.75 -140.4 -9.6 -142.35 -5.0 -143.8 -7.05 -143.85 M5.95 -148.6 Q5.5 -146.85 3.95 -145.75 L9.75 -146.3 8.55 -146.8 Q7.7 -148.35 5.95 -148.6 M-68.65 -55.5 L-68.85 -55.6 -74.35 -58.5 -81.55 -62.0 -89.15 -65.75 -94.5 -68.7 -95.05 -69.0 Q-99.95 -71.9 -102.3 -74.1 L-102.55 -74.35 Q-108.3 -79.85 -113.6 -89.2 -117.3 -95.65 -118.45 -99.95 -119.05 -102.05 -119.05 -103.6 L-118.95 -106.55 -118.65 -110.95 -117.55 -120.45 -116.6 -128.45 Q-116.05 -133.95 -116.05 -137.35 -116.05 -148.15 -117.0 -153.05 -118.15 -158.9 -121.7 -163.5 -124.75 -167.55 -132.75 -174.35 L-137.5 -178.3 -131.4 -169.1 Q-125.45 -159.7 -124.35 -155.15 -124.1 -154.05 -124.0 -150.85 L-123.9 -144.0 -124.1 -139.55 -124.65 -133.15 Q-125.1 -128.4 -125.9 -121.95 L-126.3 -118.5 -126.4 -118.0 -128.1 -103.35 -128.15 -102.85 -128.75 -96.75 -128.9 -93.35 Q-128.9 -84.3 -122.7 -77.2 -117.75 -71.6 -107.05 -65.55 L-103.3 -63.5 -98.45 -60.9 -98.05 -60.7 -93.4 -58.3 -92.1 -57.65 -91.65 -57.4 -90.6 -56.85 -86.4 -54.75 Q-80.45 -51.55 -75.5 -48.4 L-74.65 -47.85 -74.15 -47.5 -74.05 -47.45 -73.55 -47.1 -68.7 -43.7 -65.7 -41.4 -65.3 -41.1 Q-60.7 -37.35 -56.0 -29.05 L-54.1 -25.55 -53.8 -24.95 Q-51.85 -21.0 -49.85 -16.25 L-48.05 -11.8 -46.45 -7.6 -46.4 -7.45 -46.15 -6.8 -42.95 2.5 -42.85 2.75 -39.15 14.7 -38.05 13.15 -36.05 10.55 Q-35.65 1.95 -37.7 -6.2 L-38.0 -7.35 -38.0 -7.4 Q-39.35 -12.1 -41.5 -16.7 L-42.05 -17.9 -43.7 -21.3 -46.0 -25.95 -49.15 -31.95 -52.2 -37.3 -52.3 -37.45 -52.8 -38.25 -55.5 -42.5 Q-58.0 -46.2 -60.3 -48.9 L-63.05 -51.85 -64.5 -53.0 -68.65 -55.5 M37.5 -7.3 Q30.8 -10.85 16.7 -10.85 13.8 -10.85 11.6 -8.65 L10.7 -7.65 10.55 -7.4 Q9.15 -5.55 8.1 -2.6 L7.75 -1.6 Q7.0 0.65 6.55 3.05 L8.45 1.9 Q12.45 -0.15 18.6 -0.9 L26.45 -1.35 33.8 -0.55 Q37.3 0.35 39.75 2.2 L41.55 3.8 41.95 -1.5 41.95 -2.1 Q41.95 -4.55 38.75 -6.6 L37.5 -7.3 M-108.3 36.45 Q-118.05 25.0 -118.05 13.9 L-118.0 11.45 -117.8 9.1 -117.5 6.5 -117.75 6.7 -118.4 7.3 -118.7 7.55 -119.1 7.85 -129.25 15.45 -129.95 15.95 -130.4 16.25 -136.75 20.65 -151.55 30.45 -182.9 50.45 -186.35 52.6 -196.9 58.9 -195.25 62.15 Q-192.05 67.3 -184.75 74.6 L-184.65 74.7 -170.15 89.15 Q-165.9 94.1 -159.9 98.7 -155.6 102.0 -146.7 107.2 L-145.3 108.0 -144.45 108.45 -137.25 112.05 -137.9 104.75 -136.95 100.45 -135.05 93.2 Q-131.65 80.9 -127.85 69.9 L-125.0 62.0 Q-121.55 52.9 -118.45 47.1 -112.9 36.65 -108.55 36.65 L-108.3 36.65 -108.1 36.65 -108.3 36.45 M-131.5 22.9 Q-130.1 23.45 -129.9 25.4 L-134.15 29.8 -135.05 30.75 -136.0 31.7 -140.8 36.55 -148.45 44.2 -156.3 52.75 -161.65 58.85 -161.95 59.15 -165.85 63.95 -169.45 68.8 Q-171.65 71.95 -172.9 74.4 -172.9 75.65 -175.4 75.65 -178.9 75.65 -178.9 72.15 -178.9 70.55 -175.45 66.0 L-171.55 61.2 Q-166.2 54.9 -156.9 45.2 -144.25 32.0 -138.15 26.55 -133.9 22.65 -132.9 22.65 L-132.8 22.65 -131.5 22.9 M-140.25 52.5 L-139.85 51.9 -132.65 40.45 -123.9 26.65 Q-122.3 26.65 -121.7 27.35 L-121.05 28.65 -134.9 53.2 -137.2 57.3 -140.9 63.8 -141.1 64.2 Q-144.7 70.25 -148.05 75.35 L-148.45 76.0 Q-152.05 81.4 -155.4 85.65 L-155.75 85.55 -157.2 84.85 Q-157.9 84.2 -157.9 82.5 -157.9 81.45 -151.75 71.2 L-147.95 64.95 -147.85 64.8 -140.3 52.55 -140.25 52.5 M-169.75 23.45 L-172.05 23.6 -172.15 23.6 -172.7 23.6 -173.4 23.65 -176.6 23.65 -189.0 24.05 -197.15 24.85 -199.65 25.25 -204.1 26.35 Q-206.55 27.15 -207.9 28.15 L-211.8 30.75 -220.75 36.1 -229.45 41.1 -230.05 41.45 Q-230.5 45.5 -231.9 55.15 L-231.9 56.15 Q-231.8 63.75 -230.1 71.65 L-228.65 77.45 Q-224.25 93.2 -213.75 110.15 L-210.75 114.8 -207.65 119.35 -200.85 128.55 -200.05 129.55 Q-194.2 136.9 -187.35 144.3 L-178.0 153.95 -170.65 161.0 -170.3 159.35 -169.2 152.55 -168.65 148.7 Q-167.45 140.6 -165.8 135.6 L-165.1 133.65 -164.0 131.05 Q-158.95 120.25 -147.9 114.0 -160.1 107.4 -176.6 91.4 -187.35 81.0 -195.25 71.0 -202.9 61.25 -202.9 58.25 -202.9 57.85 -189.4 48.45 -187.25 46.95 -184.7 45.2 L-172.7 36.9 -155.45 25.15 -152.8 23.35 -151.85 22.75 -153.15 22.85 -159.15 23.0 -166.7 23.3 -167.7 23.35 -168.9 23.4 -169.75 23.45 M-119.45 65.25 Q-132.9 90.4 -132.9 104.25 L-132.3 106.85 -131.9 105.5 Q-131.9 103.15 -125.6 98.4 -119.4 93.75 -110.3 89.15 -87.55 77.65 -74.05 79.15 -106.6 59.5 -111.95 51.85 L-119.45 65.25 M6.15 9.75 Q6.85 13.55 10.7 16.9 16.7 22.15 27.35 22.15 36.25 22.15 39.95 10.7 L40.3 9.65 Q39.15 9.6 38.15 8.8 L36.9 7.7 36.95 8.4 Q36.95 11.55 35.0 13.7 32.25 16.65 26.45 16.65 19.95 16.65 15.5 12.65 12.55 10.0 12.05 7.75 L6.45 9.65 6.1 9.55 6.15 9.75" fill="#000000" fill-rule="evenodd" stroke="none"/>
      <path d="M186.95 -176.95 L187.4 -177.1 Q195.95 -161.3 195.95 -154.6 195.95 -142.7 184.95 -122.4 178.85 -111.15 177.4 -107.95 175.3 -103.35 174.5 -99.65 L173.45 -100.35 172.9 -99.35 Q170.45 -99.35 170.0 -97.1 L169.95 -93.95 169.3 -92.8 Q168.95 -91.85 168.95 -85.75 168.95 -82.7 169.3 -80.4 L163.85 -86.35 161.9 -88.45 161.95 -88.6 Q161.3 -100.75 165.65 -108.85 168.25 -113.7 175.7 -120.75 183.25 -127.85 186.15 -132.95 190.95 -141.5 190.95 -154.25 189.6 -165.7 186.95 -176.95 M192.1 -52.5 L196.8 -47.7 Q206.15 -38.35 206.45 -38.35 208.3 -38.35 208.65 -38.9 L209.35 -38.35 Q210.9 -33.6 210.8 -26.5 L210.75 -23.05 Q203.8 -36.15 192.1 -52.5" fill="#65411d" fill-rule="evenodd" stroke="none"/>
      <path d="M117.6 -111.15 L108.15 -118.1 Q94.6 -127.55 82.1 -133.2 66.75 -140.2 47.85 -143.45 37.45 -145.3 26.0 -145.95 27.65 -146.35 29.2 -147.1 32.95 -148.85 32.95 -151.0 L32.7 -152.6 32.55 -152.7 Q33.05 -154.05 34.15 -154.9 35.95 -156.3 40.2 -156.95 L49.5 -158.0 Q56.1 -158.8 61.45 -160.35 69.85 -162.6 79.7 -170.85 84.15 -174.6 91.05 -177.95 L102.15 -183.1 Q108.0 -185.9 110.6 -188.6 L111.75 -189.95 Q128.95 -184.0 128.95 -135.0 L128.6 -128.2 127.15 -136.0 125.9 -142.4 125.8 -142.9 125.95 -144.6 124.6 -150.1 124.25 -151.3 Q116.65 -180.35 112.45 -180.35 110.7 -180.35 110.25 -179.5 109.95 -178.9 109.95 -176.75 L112.85 -168.5 111.45 -169.35 109.65 -169.1 109.2 -168.85 Q108.95 -167.35 108.95 -165.1 L108.8 -165.05 Q104.85 -175.35 101.45 -175.35 99.65 -175.35 99.25 -174.8 98.95 -174.35 98.95 -172.35 98.95 -168.6 106.15 -146.95 113.2 -125.7 117.4 -116.5 L117.35 -116.4 116.95 -115.6 117.6 -111.15 M53.75 -144.2 L54.95 -146.35 Q53.55 -148.55 47.5 -150.65 42.65 -152.35 41.45 -152.35 39.65 -152.35 39.25 -151.85 38.95 -151.45 38.95 -149.5 L41.5 -146.35 Q44.15 -144.1 47.9 -143.5 L50.45 -143.35 Q53.05 -143.35 53.75 -144.2 M81.25 -164.8 Q80.95 -164.35 80.95 -162.35 80.95 -160.0 86.45 -148.1 92.8 -134.35 97.45 -134.35 99.95 -134.35 99.95 -135.6 85.2 -165.35 83.45 -165.35 81.65 -165.35 81.25 -164.8 M67.45 -158.35 Q65.65 -158.35 65.25 -157.8 64.95 -157.35 64.95 -155.35 64.95 -153.65 66.95 -149.7 69.7 -144.35 73.45 -144.35 74.9 -144.35 75.55 -145.1 L76.95 -147.35 72.65 -153.95 Q69.6 -158.35 67.45 -158.35 M5.95 -148.6 Q7.7 -148.35 8.55 -146.8 L9.75 -146.3 3.95 -145.75 Q5.5 -146.85 5.95 -148.6 M-7.05 -143.85 L-5.0 -143.8 -9.6 -142.35 -14.75 -140.4 -13.85 -142.0 Q-12.0 -144.1 -7.05 -143.85" fill="#827d79" fill-rule="evenodd" stroke="none"/>
      <path d="M-74.25 62.65 L-74.55 62.65 -74.85 62.3 -74.25 62.65 M169.3 -80.4 Q168.95 -82.7 168.95 -85.75 168.95 -91.85 169.3 -92.8 L169.95 -93.95 170.0 -97.1 Q170.45 -99.35 172.9 -99.35 L173.45 -100.35 174.5 -99.65 174.4 -99.3 Q173.95 -97.15 173.95 -95.35 173.95 -92.7 174.7 -89.7 L175.05 -88.4 174.7 -86.1 174.0 -85.8 173.95 -85.25 Q173.95 -83.3 181.55 -74.65 L182.5 -73.1 Q190.15 -61.1 201.2 -50.6 206.5 -45.6 208.8 -39.9 L208.7 -39.35 208.65 -38.9 Q208.3 -38.35 206.45 -38.35 206.15 -38.35 196.8 -47.7 L192.1 -52.5 191.45 -53.35 Q183.25 -64.9 169.3 -80.4 M117.6 -111.15 L116.95 -115.6 117.35 -116.4 117.4 -116.5 117.45 -116.35 119.7 -117.1 119.95 -120.85 119.75 -121.95 119.1 -125.4 Q116.9 -136.9 114.0 -148.25 111.35 -158.35 108.95 -164.7 L108.95 -165.1 Q108.95 -167.35 109.2 -168.85 L109.65 -169.1 111.45 -169.35 112.85 -168.5 Q122.35 -141.35 123.45 -141.35 125.95 -141.35 125.7 -142.35 L125.8 -142.9 125.9 -142.4 127.15 -136.0 128.6 -128.2 127.25 -109.05 126.95 -105.0 126.95 -103.9 125.65 -104.95 117.6 -111.15 M58.05 -119.05 L53.35 -120.15 Q40.9 -122.85 31.35 -122.85 12.0 -122.85 -12.85 -120.2 L-20.3 -119.35 -21.3 -119.25 Q-51.0 -115.7 -80.0 -109.55 -98.45 -105.65 -113.8 -101.3 L-114.05 -103.6 -113.85 -108.2 -112.65 -108.55 -112.35 -108.15 Q-112.0 -107.85 -110.55 -107.35 L-86.0 -114.85 -49.9 -125.75 Q-26.85 -132.9 -19.95 -136.05 -19.65 -134.05 -17.55 -133.35 -9.45 -137.1 -3.1 -138.65 5.75 -140.85 17.35 -140.85 62.2 -140.85 94.9 -118.1 102.9 -112.5 114.7 -102.75 L115.1 -102.45 Q123.35 -96.2 129.0 -95.45 130.35 -94.35 132.45 -94.35 134.95 -94.35 134.7 -95.35 L134.95 -97.6 134.95 -97.75 Q134.85 -98.85 133.45 -100.9 132.65 -102.05 132.3 -103.05 131.95 -104.0 131.95 -104.75 L132.1 -106.2 132.25 -106.55 132.65 -106.8 144.2 -95.05 145.45 -93.8 144.85 -93.55 144.95 -93.35 Q144.95 -90.35 141.45 -90.35 136.5 -90.35 123.4 -95.45 L115.3 -98.75 108.6 -101.45 98.5 -105.55 95.8 -106.6 95.1 -106.9 79.75 -112.55 79.55 -112.65 78.75 -112.9 76.65 -113.6 Q68.35 -116.4 60.95 -118.3 L58.05 -119.05 M151.85 -71.3 Q166.4 -70.9 173.7 -64.05 176.1 -61.8 177.7 -58.8 179.55 -55.4 180.35 -51.0 180.95 -47.75 180.95 -44.0 L180.95 -43.8 Q180.85 -40.65 178.45 -36.5 L176.2 -33.1 Q171.95 -27.35 167.0 -25.85 L166.1 -25.6 163.45 -25.35 157.95 -25.75 155.65 -26.2 Q144.15 -28.95 140.0 -40.6 138.2 -45.45 137.9 -51.55 L137.95 -57.5 137.6 -61.55 Q137.35 -64.35 137.95 -66.1 139.2 -69.7 144.35 -70.8 L149.95 -71.35 151.85 -71.3 M204.5 -22.2 Q215.95 -1.25 215.95 7.65 215.95 8.9 214.95 11.6 L214.25 13.8 Q210.45 14.6 208.5 20.65 L208.0 22.3 207.2 22.15 Q206.95 21.65 206.95 19.15 L211.95 5.65 Q211.95 1.95 205.95 -8.8 199.95 -19.55 199.95 -19.85 199.95 -21.65 200.5 -22.05 L202.95 -22.35 204.5 -22.2 M214.0 48.75 Q215.95 49.65 218.45 49.65 L220.15 49.55 223.15 53.25 227.75 60.05 222.0 62.8 219.65 63.85 Q218.15 61.85 216.7 58.5 L213.95 50.0 214.0 48.75 M42.9 61.0 Q48.35 64.45 50.95 65.15 L60.25 67.6 Q76.15 71.6 93.8 74.4 121.05 78.65 144.45 78.65 L147.7 78.65 152.65 78.6 153.8 78.55 155.15 78.55 157.0 78.5 160.6 78.35 160.7 78.4 160.7 78.35 Q181.35 77.5 197.15 74.55 L206.95 72.35 Q206.85 75.45 204.2 80.95 201.05 87.5 195.95 93.15 191.45 98.2 186.35 101.6 183.4 103.55 180.25 104.95 172.05 108.65 162.45 108.65 143.65 108.65 137.45 105.65 L135.7 104.5 135.05 103.5 134.95 102.5 Q134.95 99.0 141.65 96.0 L141.85 95.9 Q149.7 92.4 150.95 90.15 L151.8 88.5 Q150.95 87.35 150.95 85.4 150.95 84.05 151.65 82.55 150.15 83.35 147.7 84.15 140.05 86.65 127.95 86.65 L127.85 86.65 122.1 86.35 Q116.05 85.8 107.9 84.2 L100.8 82.7 Q87.85 79.8 70.6 74.75 39.25 65.6 25.95 60.15 5.85 51.0 -4.2 46.55 -9.2 44.3 -14.25 42.3 L-21.55 39.55 Q-30.0 36.45 -38.6 34.05 L-40.8 33.4 Q-41.05 34.4 -41.05 31.9 -41.05 30.25 -40.0 29.85 L-38.25 29.65 -38.1 29.65 -37.05 29.65 -31.55 30.35 Q-25.35 33.3 -15.5 36.4 L-6.35 39.2 -0.05 41.05 6.8 43.0 Q19.55 46.8 25.45 49.65 27.75 50.75 38.15 57.85 L41.15 59.85 40.9 60.15 42.9 61.0 M213.05 89.5 L211.65 88.85 Q210.95 88.2 210.95 86.5 L220.95 73.4 Q222.5 70.9 223.75 66.8 L223.8 66.65 223.3 66.6 223.9 66.35 Q225.45 65.6 226.95 64.8 L228.55 63.9 229.55 67.15 Q230.95 71.6 230.95 73.15 230.95 75.5 221.7 83.0 217.65 86.3 213.05 89.5 M195.65 85.45 L195.95 85.9 195.7 85.4 195.65 85.45 M209.15 109.15 L210.95 115.4 Q210.95 116.2 208.9 120.25 L206.3 124.55 205.95 124.5 Q205.95 119.95 204.85 115.4 L204.45 113.8 204.25 113.15 205.15 112.85 206.85 110.95 Q208.05 109.75 209.15 109.15 M225.75 89.95 L227.95 88.2 227.95 88.4 228.0 89.7 228.15 93.0 228.9 101.3 229.65 108.05 Q231.15 120.9 231.95 125.15 L222.75 123.35 218.95 122.65 215.8 122.7 215.05 122.7 213.9 122.7 214.35 121.75 214.6 121.6 214.5 121.4 Q215.95 117.95 215.95 115.25 L215.45 112.8 Q216.65 109.0 218.95 103.4 221.85 96.3 224.3 92.85 L225.45 91.45 225.5 91.4 226.3 90.6 225.75 89.95 M144.45 100.75 L144.45 100.65 144.45 100.75 M222.95 32.65 L222.95 32.6 224.95 33.95 Q223.55 39.15 221.5 41.55 L221.65 41.5 221.45 41.6 221.3 42.0 219.7 43.5 Q218.1 44.8 216.6 44.25 215.1 43.65 213.65 40.0 215.0 40.65 216.95 40.65 220.4 40.65 222.0 37.15 222.95 35.0 222.95 32.65 M214.95 19.15 L215.3 19.25 214.95 19.85 214.95 19.15 M-68.85 -55.6 L-69.05 -54.85 Q-69.05 -52.8 -67.95 -51.1 L-67.05 -49.95 Q-65.4 -48.2 -65.1 -46.0 L-65.05 -45.1 Q-65.05 -42.8 -65.7 -41.4 L-68.7 -43.7 -73.55 -47.1 -74.05 -47.45 -74.1 -47.55 -74.15 -47.5 -74.65 -47.85 -75.5 -48.4 Q-80.45 -51.55 -86.4 -54.75 L-90.6 -56.85 -91.65 -57.4 -92.1 -57.65 -93.4 -58.3 -98.05 -60.7 -98.45 -60.9 -103.3 -63.5 -103.15 -63.7 -100.55 -63.35 Q-98.75 -63.35 -97.45 -64.45 L-97.35 -64.6 -97.05 -64.8 -96.3 -65.8 Q-95.25 -67.45 -95.05 -69.0 L-94.5 -68.7 -89.15 -65.75 -81.55 -62.0 -74.35 -58.5 -68.85 -55.6 M-101.45 -14.3 Q-99.3 -15.55 -97.05 -17.75 L-97.05 -17.35 Q-97.05 -14.85 -99.05 -0.5 -99.05 12.3 -89.5 27.45 L-80.75 40.95 Q-75.35 49.45 -72.05 56.9 L-72.05 57.05 -81.05 51.65 -89.0 46.5 Q-113.05 30.05 -113.05 14.15 -113.05 1.05 -103.0 -12.35 L-101.45 -14.3 M-37.0 66.85 L-34.05 66.65 Q-29.7 66.65 -25.2 68.2 -21.05 69.65 -16.7 72.4 L-9.5 77.05 Q-5.3 79.55 -1.55 80.65 10.05 84.05 23.5 86.75 L34.95 88.85 35.8 89.0 38.6 89.5 Q41.8 90.15 43.0 90.75 44.25 91.4 44.7 92.65 L44.95 94.25 45.0 95.6 Q44.75 96.15 43.0 96.55 L37.4 97.35 Q36.25 96.65 34.45 96.65 L32.65 96.9 32.2 97.15 32.1 97.95 19.7 99.15 17.3 99.65 Q16.55 98.65 14.95 98.65 12.95 98.65 11.05 99.6 -7.95 92.1 -25.25 83.05 L-24.0 81.2 -23.9 81.25 -23.45 80.4 -21.05 76.65 -21.8 75.35 Q-22.45 74.65 -24.05 74.65 -25.85 74.65 -31.9 82.3 L-34.05 81.15 Q-34.05 80.35 -33.2 79.55 -31.8 78.2 -30.8 76.65 -31.45 75.55 -33.35 74.15 L-37.65 70.55 -36.05 68.65 -36.8 67.35 -37.25 67.0 -37.1 66.9 -37.0 66.85 M-167.05 -77.85 Q-182.2 -64.7 -197.55 -48.3 -214.15 -30.65 -223.4 -17.35 L-223.95 -17.55 Q-211.0 -40.55 -183.9 -64.2 -175.95 -71.1 -167.05 -77.85 M-133.85 -95.0 Q-149.7 -89.35 -159.0 -83.75 L-148.15 -91.2 -135.55 -99.3 Q-134.5 -99.85 -133.5 -100.35 L-133.85 -95.0 M-129.9 16.6 L-129.9 17.0 Q-129.9 18.35 -131.5 22.9 L-132.8 22.65 -132.9 22.65 Q-133.9 22.65 -138.15 26.55 -144.25 32.0 -156.9 45.2 -166.2 54.9 -171.55 61.2 L-175.45 66.0 Q-178.8 64.85 -182.9 64.15 L-183.15 73.9 Q-183.35 74.45 -184.65 74.6 L-184.75 74.6 Q-192.05 67.3 -195.25 62.15 L-196.9 58.9 -186.35 52.6 -182.9 50.45 -151.55 30.45 -136.75 20.65 -130.4 16.25 -129.95 15.95 -129.9 16.6 M-134.15 29.8 L-134.75 31.25 -138.3 40.5 Q-139.8 44.85 -139.9 46.65 L-140.2 51.65 -140.25 52.5 -140.3 52.55 -147.85 64.8 -147.95 64.95 -151.75 71.2 -152.5 70.05 Q-155.95 63.1 -156.65 62.4 -156.95 63.95 -156.6 69.35 -156.85 74.25 -160.4 75.65 -161.95 74.8 -164.1 72.95 L-167.95 69.75 -169.45 68.8 -165.85 63.95 -161.95 59.15 -161.65 58.85 -156.3 52.75 -148.45 44.2 -140.8 36.55 -136.0 31.7 -135.05 30.75 -134.15 29.8 M-141.1 64.2 L-142.15 75.9 Q-141.9 76.65 -144.4 76.65 -146.25 76.65 -148.05 75.35 -144.7 70.25 -141.1 64.2 M6.45 9.65 L12.05 7.75 Q12.55 10.0 15.5 12.65 19.95 16.65 26.45 16.65 32.25 16.65 35.0 13.7 36.95 11.55 36.95 8.4 L36.9 7.7 38.15 8.8 Q39.15 9.6 40.3 9.65 L39.95 10.7 Q36.25 22.15 27.35 22.15 16.7 22.15 10.7 16.9 6.85 13.55 6.15 9.75 L6.45 9.65 M-44.05 98.85 L-51.65 109.45 -58.3 118.4 Q-58.85 119.05 -70.3 125.3 -81.95 131.7 -86.55 136.65 -92.05 142.75 -92.05 160.15 L-88.0 176.45 Q-86.45 181.65 -84.95 185.2 -99.05 174.2 -99.05 152.65 -99.05 146.85 -96.8 142.1 -93.45 136.1 -91.3 130.9 -88.9 125.3 -83.7 121.75 -80.15 119.35 -64.55 111.65 -57.9 108.35 -53.9 103.1 L-52.1 100.45 Q-50.5 97.8 -49.05 94.3 -46.05 95.1 -44.8 97.05 -44.25 97.9 -44.05 98.85 M13.05 106.4 Q13.35 106.3 13.1 106.95 13.85 106.3 14.55 106.4 16.95 106.7 16.95 108.4 16.95 112.9 14.85 116.8 6.55 124.35 3.6 129.95 2.95 126.3 2.95 123.5 2.95 117.25 10.45 108.9 L11.9 107.5 13.05 106.4" fill="#ffffff" fill-rule="evenodd" stroke="none"/>
      <path d="M-29.3 -104.15 Q-14.6 -109.25 5.65 -113.0 34.45 -118.35 57.95 -118.35 L58.05 -119.05 60.95 -118.3 Q68.35 -116.4 76.65 -113.6 L78.75 -112.9 76.45 -113.15 62.95 -114.35 Q58.45 -114.35 58.45 -113.85 53.9 -114.5 50.8 -112.7 L49.4 -111.7 Q46.95 -109.55 46.95 -107.5 46.95 -105.0 47.2 -104.85 L50.45 -104.35 Q58.45 -104.35 68.0 -105.9 79.95 -107.8 79.95 -110.6 L79.7 -112.4 79.75 -112.55 95.1 -106.9 95.8 -106.6 98.5 -105.55 108.6 -101.45 115.3 -98.75 115.05 -98.1 Q111.5 -99.55 108.85 -100.15 L103.8 -100.45 102.9 -100.55 Q99.55 -100.9 97.2 -100.45 L96.1 -100.2 Q93.5 -99.45 92.25 -97.6 90.95 -95.65 90.95 -90.25 90.95 -85.7 93.45 -77.55 L93.8 -76.35 93.9 -76.1 95.35 -69.9 Q95.95 -66.45 95.95 -63.6 95.95 -60.4 92.85 -52.4 88.7 -41.8 81.95 -32.8 L81.2 -32.4 79.7 -35.45 Q75.45 -43.35 70.45 -43.35 68.55 -43.35 66.9 -41.7 L63.75 -38.1 Q58.75 -32.85 49.35 -32.85 29.4 -32.85 21.5 -31.3 11.95 -29.4 11.95 -24.1 11.95 -21.6 12.2 -22.6 L12.3 -22.5 11.4 -21.35 Q5.95 -13.9 5.95 -10.85 L6.05 -8.7 -0.9 -10.6 -11.7 -13.85 Q-17.25 -15.35 -21.05 -15.35 -24.85 -15.35 -31.55 -12.35 L-33.1 -11.6 -37.55 -21.15 -28.55 -20.35 Q-17.2 -20.35 -14.25 -22.6 -13.2 -23.45 -13.0 -24.8 L-13.05 -27.1 Q-13.05 -29.4 -13.35 -30.15 -13.85 -31.35 -15.55 -31.35 L-31.05 -32.35 Q-37.6 -32.35 -39.8 -30.1 -40.65 -29.25 -40.9 -27.75 L-45.5 -36.35 Q-37.35 -36.8 -33.05 -43.85 -30.05 -48.75 -30.05 -52.85 -30.05 -55.45 -31.3 -58.1 -32.3 -60.15 -33.8 -61.4 -44.5 -57.35 -54.3 -52.2 L-54.8 -51.75 -54.9 -51.85 Q-56.4 -53.6 -59.2 -55.6 -64.0 -59.05 -72.6 -63.2 L-83.95 -68.85 Q-84.65 -69.25 -85.35 -69.6 L-86.95 -70.45 -87.05 -71.5 Q-87.05 -72.75 -85.95 -74.0 -84.95 -78.2 -67.2 -87.25 -59.55 -91.15 -49.45 -95.7 L-43.55 -98.35 Q-37.25 -101.45 -29.3 -104.15 M66.7 -94.6 L66.45 -94.85 Q60.45 -97.35 57.45 -97.35 55.65 -97.35 55.25 -96.8 54.95 -96.35 54.95 -94.35 54.95 -93.05 55.65 -91.7 56.95 -89.35 59.95 -89.35 62.2 -89.35 64.45 -90.35 66.95 -91.5 66.95 -93.0 L66.7 -94.6 M74.45 -90.35 Q76.6 -90.35 79.25 -92.1 81.95 -93.9 81.95 -95.6 L76.45 -101.35 Q75.85 -101.35 73.5 -98.35 70.95 -95.15 70.95 -93.5 70.95 -91.0 71.2 -90.85 L74.45 -90.35 M57.45 -76.8 L56.0 -73.1 Q53.95 -66.7 53.95 -62.25 53.95 -58.0 56.0 -54.35 59.95 -47.35 69.95 -47.35 76.65 -47.35 81.2 -54.1 84.95 -59.7 84.95 -65.0 84.95 -66.0 83.3 -68.55 L81.6 -70.9 81.25 -71.9 Q80.65 -73.1 79.1 -73.7 L78.75 -74.05 76.65 -75.9 62.95 -76.85 57.45 -76.8 M-39.05 -79.85 Q-39.05 -81.35 -40.25 -82.85 -42.35 -85.35 -47.05 -85.35 -57.05 -85.35 -57.05 -73.35 L-57.0 -69.2 Q-56.1 -65.35 -51.55 -65.35 -44.25 -65.35 -41.0 -71.6 -39.05 -75.45 -39.05 -79.85 M7.95 -107.1 L6.45 -107.35 Q4.75 -107.35 3.25 -106.05 2.05 -105.1 1.0 -103.35 -1.05 -100.05 -1.05 -98.1 -1.05 -96.55 -0.85 -96.3 L-0.05 -95.85 1.95 -95.35 Q4.95 -95.35 7.45 -97.35 9.95 -99.35 9.95 -101.6 10.35 -106.15 7.95 -107.1 M-89.4 -33.65 L-92.5 -38.4 Q-96.05 -44.2 -96.05 -48.0 -95.4 -50.6 -95.25 -52.1 L-95.1 -52.35 Q-87.05 -47.95 -80.05 -43.6 -88.55 -37.5 -89.0 -33.9 L-89.4 -33.65 M-2.05 -36.6 Q-2.15 -45.35 -5.55 -45.35 -6.5 -45.35 -8.25 -42.85 -10.05 -40.3 -10.05 -38.75 L-8.0 -34.4 Q-5.85 -30.35 -5.05 -30.35 -2.8 -30.35 -2.25 -32.05 -2.05 -32.8 -2.05 -36.6 M-15.55 -92.35 Q-22.75 -92.35 -25.0 -87.35 -26.05 -85.1 -26.05 -79.85 -26.05 -75.75 -18.15 -67.05 L-10.3 -58.6 Q-10.3 -56.1 -10.8 -51.85 L-8.05 -51.35 Q-5.45 -51.35 -2.05 -60.35 0.95 -68.35 0.95 -71.25 1.7 -76.95 0.0 -82.1 -3.4 -92.35 -15.55 -92.35 M23.45 -62.35 Q18.8 -62.35 17.5 -60.35 16.95 -59.6 16.95 -57.35 16.95 -52.0 18.0 -49.85 21.2 -43.35 32.45 -43.35 35.45 -43.35 37.95 -48.35 36.35 -49.6 35.7 -52.3 L34.65 -56.9 Q32.8 -62.35 23.45 -62.35 M39.45 -93.9 L37.45 -95.35 Q33.3 -93.05 27.2 -91.25 L17.35 -88.6 Q6.95 -85.8 6.95 -80.85 6.95 -78.35 7.2 -77.85 7.95 -77.7 10.65 -77.9 L12.95 -77.85 17.15 -78.35 Q22.25 -79.15 26.45 -80.35 39.95 -84.3 39.95 -91.5 39.95 -93.25 39.45 -93.9" fill="#fad6a1" fill-rule="evenodd" stroke="none"/>
      <path d="M-12.85 -120.2 Q12.0 -122.85 31.35 -122.85 40.9 -122.85 53.35 -120.15 L58.05 -119.05 57.95 -118.35 Q34.45 -118.35 5.65 -113.0 -14.6 -109.25 -29.3 -104.15 -17.1 -114.55 -12.85 -120.2" fill="#fdc981" fill-rule="evenodd" stroke="none"/>
      <path d="M78.75 -112.9 L79.55 -112.65 79.7 -112.4 79.95 -110.6 Q79.95 -107.8 68.0 -105.9 58.45 -104.35 50.45 -104.35 L47.2 -104.85 Q46.95 -105.0 46.95 -107.5 46.95 -109.55 49.4 -111.7 L50.8 -112.7 Q53.9 -114.5 58.45 -113.85 58.45 -114.35 62.95 -114.35 L76.45 -113.15 78.75 -112.9 M74.45 -90.35 L71.2 -90.85 Q70.95 -91.0 70.95 -93.5 70.95 -95.15 73.5 -98.35 75.85 -101.35 76.45 -101.35 L81.95 -95.6 Q81.95 -93.9 79.25 -92.1 76.6 -90.35 74.45 -90.35 M66.7 -94.6 L66.95 -93.0 Q66.95 -91.5 64.45 -90.35 62.2 -89.35 59.95 -89.35 56.95 -89.35 55.65 -91.7 54.95 -93.05 54.95 -94.35 54.95 -96.35 55.25 -96.8 55.65 -97.35 57.45 -97.35 60.45 -97.35 66.45 -94.85 L66.7 -94.6 M57.45 -76.8 L62.95 -76.85 76.65 -75.9 78.75 -74.05 79.1 -73.7 Q80.65 -73.1 81.25 -71.9 L81.6 -70.9 83.3 -68.55 Q84.95 -66.0 84.95 -65.0 84.95 -59.7 81.2 -54.1 76.65 -47.35 69.95 -47.35 59.95 -47.35 56.0 -54.35 53.95 -58.0 53.95 -62.25 53.95 -66.7 56.0 -73.1 L57.45 -76.8 M81.2 -32.4 L81.35 -32.0 77.75 -27.65 Q64.3 -12.55 45.5 -7.9 40.8 -16.35 20.95 -16.35 17.7 -16.35 14.95 -15.4 9.75 -13.7 6.3 -8.65 L6.05 -8.7 5.95 -10.85 Q5.95 -13.9 11.4 -21.35 L12.3 -22.5 12.2 -22.6 Q11.95 -21.6 11.95 -24.1 11.95 -29.4 21.5 -31.3 29.4 -32.85 49.35 -32.85 58.75 -32.85 63.75 -38.1 L66.9 -41.7 Q68.55 -43.35 70.45 -43.35 75.45 -43.35 79.7 -35.45 L81.2 -32.4 M-37.55 -21.15 L-39.75 -25.5 -40.9 -27.75 Q-40.65 -29.25 -39.8 -30.1 -37.6 -32.35 -31.05 -32.35 L-15.55 -31.35 Q-13.85 -31.35 -13.35 -30.15 -13.05 -29.4 -13.05 -27.1 L-13.0 -24.8 Q-13.2 -23.45 -14.25 -22.6 -17.2 -20.35 -28.55 -20.35 L-37.55 -21.15 M-45.5 -36.35 Q-50.8 -46.1 -54.3 -51.1 L-54.6 -51.55 -54.3 -52.2 Q-44.5 -57.35 -33.8 -61.4 -32.3 -60.15 -31.3 -58.1 -30.05 -55.45 -30.05 -52.85 -30.05 -48.75 -33.05 -43.85 -37.35 -36.8 -45.5 -36.35 M7.95 -107.1 Q10.35 -106.15 9.95 -101.6 9.95 -99.35 7.45 -97.35 4.95 -95.35 1.95 -95.35 L-0.05 -95.85 -0.85 -96.3 Q-1.05 -96.55 -1.05 -98.1 -1.05 -100.05 1.0 -103.35 2.05 -105.1 3.25 -106.05 4.75 -107.35 6.45 -107.35 L7.95 -107.1 M-39.05 -79.85 Q-39.05 -75.45 -41.0 -71.6 -44.25 -65.35 -51.55 -65.35 -56.1 -65.35 -57.0 -69.2 L-57.05 -73.35 Q-57.05 -85.35 -47.05 -85.35 -42.35 -85.35 -40.25 -82.85 -39.05 -81.35 -39.05 -79.85 M-37.05 -56.85 L-37.05 -56.6 -36.9 -56.7 -37.05 -56.85 M39.45 -93.9 Q39.95 -93.25 39.95 -91.5 39.95 -84.3 26.45 -80.35 22.25 -79.15 17.15 -78.35 L12.95 -77.85 10.65 -77.9 Q7.95 -77.7 7.2 -77.85 6.95 -78.35 6.95 -80.85 6.95 -85.8 17.35 -88.6 L27.2 -91.25 Q33.3 -93.05 37.45 -95.35 L39.45 -93.9 M23.45 -62.35 Q32.8 -62.35 34.65 -56.9 L35.7 -52.3 Q36.35 -49.6 37.95 -48.35 35.45 -43.35 32.45 -43.35 21.2 -43.35 18.0 -49.85 16.95 -52.0 16.95 -57.35 16.95 -59.6 17.5 -60.35 18.8 -62.35 23.45 -62.35 M-15.55 -92.35 Q-3.4 -92.35 0.0 -82.1 1.7 -76.95 0.95 -71.25 0.95 -68.35 -2.05 -60.35 -5.45 -51.35 -8.05 -51.35 L-10.8 -51.85 Q-10.3 -56.1 -10.3 -58.6 L-18.15 -67.05 Q-26.05 -75.75 -26.05 -79.85 -26.05 -85.1 -25.0 -87.35 -22.75 -92.35 -15.55 -92.35 M-2.05 -36.6 Q-2.05 -32.8 -2.25 -32.05 -2.8 -30.35 -5.05 -30.35 -5.85 -30.35 -8.0 -34.4 L-10.05 -38.75 Q-10.05 -40.3 -8.25 -42.85 -6.5 -45.35 -5.55 -45.35 -2.15 -45.35 -2.05 -36.6" fill="#c17730" fill-rule="evenodd" stroke="none"/>
      <path d="M115.3 -98.75 L123.4 -95.45 Q136.5 -90.35 141.45 -90.35 144.95 -90.35 144.95 -93.35 L144.85 -93.55 145.45 -93.8 174.1 -64.45 173.7 -64.05 Q166.4 -70.9 151.85 -71.3 151.15 -74.0 145.7 -78.85 139.9 -84.0 131.25 -89.45 122.4 -95.05 115.05 -98.1 L115.3 -98.75" fill="#fde382" fill-rule="evenodd" stroke="none"/>
      <path d="M115.05 -98.1 Q122.4 -95.05 131.25 -89.45 139.9 -84.0 145.7 -78.85 151.15 -74.0 151.85 -71.3 L149.95 -71.35 144.35 -70.8 Q139.2 -69.7 137.95 -66.1 137.35 -64.35 137.6 -61.55 L137.95 -57.5 137.9 -51.55 Q138.2 -45.45 140.0 -40.6 144.15 -28.95 155.65 -26.2 143.45 -9.6 132.95 -1.85 115.95 12.65 107.7 18.4 102.45 22.15 100.0 23.4 93.6 26.7 85.45 27.65 83.45 27.85 78.0 29.75 L72.45 31.65 64.75 34.05 64.65 33.9 62.45 33.65 Q60.95 33.65 61.25 34.1 L61.65 34.85 56.3 36.1 45.25 36.4 44.25 35.85 Q43.95 35.65 43.95 35.9 L43.7 36.4 42.95 36.4 Q42.85 35.25 37.95 35.9 37.95 37.0 36.8 38.5 L36.75 38.6 Q28.15 34.65 21.15 30.15 17.7 27.7 15.05 25.95 20.3 27.65 27.45 27.65 39.8 27.65 44.5 14.65 46.95 7.75 46.95 -1.85 L46.95 -2.5 Q46.8 -5.55 45.5 -7.9 64.3 -12.55 77.75 -27.65 L81.35 -32.0 81.95 -32.8 Q88.7 -41.8 92.85 -52.4 95.95 -60.4 95.95 -63.6 95.95 -66.45 95.35 -69.9 L93.9 -76.1 93.8 -76.35 93.45 -77.55 Q90.95 -85.7 90.95 -90.25 90.95 -95.65 92.25 -97.6 93.5 -99.45 96.1 -100.2 L97.2 -100.45 Q99.55 -100.9 102.9 -100.55 L103.8 -100.45 108.85 -100.15 Q111.5 -99.55 115.05 -98.1 M-33.15 15.7 Q-30.05 11.05 -30.05 10.4 -30.05 8.45 -30.35 8.1 L-30.4 8.05 -29.05 7.35 -28.55 6.65 Q-28.5 6.45 -28.2 6.55 -28.05 6.6 -28.05 5.15 -28.05 1.15 -31.1 -6.8 L-33.1 -11.6 -31.55 -12.35 Q-24.85 -15.35 -21.05 -15.35 -17.25 -15.35 -11.7 -13.85 L-0.9 -10.6 6.05 -8.7 6.3 -8.65 6.1 -8.35 4.2 -5.05 3.55 -3.65 Q0.95 2.35 0.95 7.65 0.95 13.95 4.7 18.9 L6.1 20.55 4.35 19.75 Q0.6 18.2 -3.55 17.35 -12.1 15.65 -27.55 15.65 -30.7 15.65 -32.95 16.35 L-33.15 15.7 M38.75 -6.6 Q41.95 -4.55 41.95 -2.1 L41.95 -1.5 41.55 3.8 39.75 2.2 Q37.3 0.35 33.8 -0.55 L26.45 -1.35 18.6 -0.9 Q12.45 -0.15 8.45 1.9 L6.55 3.05 Q7.0 0.65 7.75 -1.6 L8.1 -2.6 Q9.15 -5.55 10.55 -7.4 L10.7 -7.65 11.6 -8.65 Q13.8 -10.85 16.7 -10.85 30.8 -10.85 37.5 -7.3 L37.6 -6.45 38.75 -6.6" fill="#603916" fill-rule="evenodd" stroke="none"/>
      <path d="M173.7 -64.05 L174.1 -64.45 174.15 -64.4 178.65 -59.7 182.4 -55.8 186.2 -51.6 Q194.65 -39.95 203.65 -23.7 L204.5 -22.2 202.95 -22.35 200.5 -22.05 Q199.95 -21.65 199.95 -19.85 199.95 -19.55 205.95 -8.8 211.95 1.95 211.95 5.65 L206.95 19.15 Q206.95 21.65 207.2 22.15 L208.0 22.35 Q206.95 26.25 206.95 30.4 206.95 45.45 214.0 48.75 L213.95 50.0 216.7 58.5 Q218.15 61.85 219.65 63.85 214.75 65.85 208.8 67.35 185.9 73.15 144.35 73.15 97.9 73.15 63.4 61.8 51.9 58.05 41.85 53.0 L30.7 46.9 Q28.25 45.6 -6.35 34.05 -28.6 26.6 -34.3 22.95 L-34.05 22.65 -35.15 22.4 Q-36.3 21.5 -36.3 20.9 -36.3 20.4 -33.75 16.6 L-32.95 16.35 Q-30.7 15.65 -27.55 15.65 -12.1 15.65 -3.55 17.35 0.6 18.2 4.35 19.75 L6.1 20.55 Q9.55 24.15 15.05 25.95 17.7 27.7 21.15 30.15 28.15 34.65 36.75 38.6 L41.45 40.65 43.7 41.55 Q58.05 47.1 89.2 53.55 130.75 62.15 161.35 62.15 189.55 62.15 196.95 46.65 199.35 41.7 199.4 35.4 L198.95 29.0 Q198.95 4.05 186.45 -21.45 L178.45 -36.5 Q180.85 -40.65 180.95 -43.8 L180.95 -44.0 Q180.95 -47.75 180.35 -51.0 179.55 -55.4 177.7 -58.8 176.1 -61.8 173.7 -64.05 M181.55 -74.65 Q173.95 -83.3 173.95 -85.25 L174.0 -85.8 174.7 -86.1 175.05 -88.4 Q176.8 -82.3 181.55 -74.65" fill="#b17236" fill-rule="evenodd" stroke="none"/>
      <path d="M36.75 38.6 L36.8 38.5 Q37.95 37.0 37.95 35.9 42.85 35.25 42.95 36.4 L43.7 36.4 43.95 35.9 Q43.95 35.65 44.25 35.85 L45.25 36.4 56.3 36.1 61.65 34.85 61.25 34.1 Q60.95 33.65 62.45 33.65 L64.65 33.9 64.75 34.05 72.45 31.65 78.0 29.75 Q83.45 27.85 85.45 27.65 93.6 26.7 100.0 23.4 102.45 22.15 107.7 18.4 115.95 12.65 132.95 -1.85 143.45 -9.6 155.65 -26.2 L157.95 -25.75 163.45 -25.35 166.1 -25.6 167.0 -25.85 Q171.95 -27.35 176.2 -33.1 L178.45 -36.5 186.45 -21.45 Q198.95 4.05 198.95 29.0 L199.4 35.4 Q199.35 41.7 196.95 46.65 189.55 62.15 161.35 62.15 130.75 62.15 89.2 53.55 58.05 47.1 43.7 41.55 L41.45 40.65 36.75 38.6" fill="#301404" fill-rule="evenodd" stroke="none"/>
      <path d="M127.85 86.65 L127.95 86.65 Q140.05 86.65 147.7 84.15 150.15 83.35 151.65 82.55 150.95 84.05 150.95 85.4 150.95 87.35 151.8 88.5 L150.95 90.15 Q149.7 92.4 141.85 95.9 L141.65 96.0 Q133.6 98.75 124.3 101.2 101.65 107.15 84.35 107.15 61.95 107.15 47.35 103.4 L42.3 101.9 42.45 101.65 Q93.65 101.65 115.5 95.45 127.95 91.9 127.95 88.0 L127.85 86.65" fill="#8b6e59" fill-rule="evenodd" stroke="none"/>
      <path d="M141.65 96.0 Q134.95 99.0 134.95 102.5 L135.05 103.5 135.7 104.5 137.45 105.65 Q143.65 108.65 162.45 108.65 172.05 108.65 180.25 104.95 183.4 103.55 186.35 101.6 191.45 98.2 195.95 93.15 201.05 87.5 204.2 80.95 206.85 75.45 206.95 72.35 216.15 69.9 223.3 66.6 L223.75 66.8 Q222.5 70.9 220.95 73.4 L210.95 86.5 Q210.95 88.2 211.65 88.85 L213.05 89.5 Q205.5 94.7 196.5 99.6 191.5 102.3 186.55 104.7 L181.25 107.15 181.0 106.7 181.2 107.2 Q147.55 122.15 113.85 122.15 77.75 122.15 35.1 108.3 L37.15 106.1 Q38.95 103.85 38.95 102.65 L39.15 100.65 39.5 100.8 40.65 101.3 41.55 101.6 42.3 101.9 47.35 103.4 Q61.95 107.15 84.35 107.15 101.65 107.15 124.3 101.2 133.6 98.75 141.65 96.0 M144.45 100.75 L144.45 100.65 144.45 100.75" fill="#9d8676" fill-rule="evenodd" stroke="none"/>
      <path d="M100.8 82.7 L107.9 84.2 Q116.05 85.8 122.1 86.35 L127.85 86.65 127.95 88.0 Q127.95 91.9 115.5 95.45 93.65 101.65 42.45 101.65 L41.55 101.6 40.65 101.3 39.5 100.8 39.15 100.65 38.95 99.65 Q38.55 98.1 37.4 97.35 L43.0 96.55 Q44.75 96.15 45.0 95.6 L44.95 94.25 44.7 92.65 Q44.25 91.4 43.0 90.75 41.8 90.15 38.6 89.5 L35.8 89.0 34.95 88.85 38.8 88.35 39.05 88.3 62.5 85.7 95.45 82.65 100.8 82.7" fill="#533112" fill-rule="evenodd" stroke="none"/>
      <path d="M-21.55 39.55 L-14.25 42.3 Q-9.2 44.3 -4.2 46.55 5.85 51.0 25.95 60.15 39.25 65.6 70.6 74.75 87.85 79.8 100.8 82.7 L95.45 82.65 62.5 85.7 39.05 88.3 38.95 87.4 38.8 88.35 34.95 88.85 23.5 86.75 Q13.1 82.1 -4.25 71.85 -24.65 59.8 -30.0 56.85 L-42.9 50.1 -49.05 45.1 -52.15 42.6 -52.9 42.0 -54.0 41.1 Q-53.75 38.9 -51.55 37.9 -49.5 36.95 -45.1 36.75 L-42.05 36.65 -40.65 36.7 Q-39.1 36.8 -38.6 37.2 -38.15 37.55 -37.8 38.4 -36.3 40.15 -24.15 40.15 L-21.55 39.55" fill="#8a6741" fill-rule="evenodd" stroke="none"/>
      <path d="M199.95 104.1 L200.2 103.9 206.65 100.7 209.15 109.15 Q208.05 109.75 206.85 110.95 L205.15 112.85 204.25 113.15 204.1 112.6 203.5 110.8 Q201.95 106.4 199.95 104.1" fill="#a69d97" fill-rule="evenodd" stroke="none"/>
      <path d="M196.95 111.75 Q200.95 116.7 200.95 120.65 200.95 123.25 198.6 126.9 L196.45 126.65 Q190.0 126.65 182.75 128.8 L182.95 127.7 Q194.1 116.35 196.95 111.75 M178.1 130.4 Q171.45 133.1 169.95 133.4 170.05 130.9 171.55 125.5 172.95 120.4 172.95 118.0 172.95 116.95 172.6 115.95 182.7 112.2 193.35 107.25 189.2 109.3 184.15 116.75 179.8 123.1 179.1 125.25 L178.5 125.65 Q176.95 126.8 176.95 127.9 176.95 130.4 177.2 129.4 L177.9 130.3 178.1 130.4 M215.45 112.8 Q213.15 102.5 211.1 98.4 221.55 92.95 225.4 90.2 L225.75 89.95 226.3 90.6 225.5 91.4 225.45 91.45 224.3 92.85 Q221.85 96.3 218.95 103.4 216.65 109.0 215.45 112.8" fill="#4a423f" fill-rule="evenodd" stroke="none"/>
      <path d="M193.35 107.25 L196.45 111.15 196.95 111.75 Q194.1 116.35 182.95 127.7 L182.75 128.8 179.7 129.75 178.1 130.4 177.9 130.3 177.2 129.4 Q176.95 130.4 176.95 127.9 176.95 126.8 178.5 125.65 L179.1 125.25 Q179.8 123.1 184.15 116.75 189.2 109.3 193.35 107.25" fill="#352f2e" fill-rule="evenodd" stroke="none"/>
      <path d="M-12.85 -120.2 Q-17.1 -114.55 -29.3 -104.15 -37.25 -101.45 -43.55 -98.35 L-49.45 -95.7 Q-59.55 -91.15 -67.2 -87.25 -84.95 -78.2 -85.95 -74.0 -87.05 -72.75 -87.05 -71.5 L-86.95 -70.45 -89.0 -71.55 Q-93.85 -74.25 -96.3 -76.1 -103.15 -81.25 -108.75 -90.2 -112.9 -96.85 -113.8 -101.3 -98.45 -105.65 -80.0 -109.55 -51.0 -115.7 -21.3 -119.25 L-20.9 -118.85 -20.3 -119.35 -12.85 -120.2" fill="#73340e" fill-rule="evenodd" stroke="none"/>
      <path d="M-69.05 -54.85 L-68.65 -55.5 -64.5 -53.0 -63.05 -51.85 -60.3 -48.9 Q-58.0 -46.2 -55.5 -42.5 L-52.8 -38.25 -52.3 -37.45 -52.55 -37.35 -52.2 -37.3 -49.15 -31.95 Q-49.4 -30.25 -50.0 -28.55 -51.2 -25.35 -53.05 -25.35 L-54.1 -25.55 -56.0 -29.05 Q-60.7 -37.35 -65.3 -41.1 L-65.7 -41.4 Q-65.05 -42.8 -65.05 -45.1 L-65.1 -46.0 Q-65.4 -48.2 -67.05 -49.95 L-67.95 -51.1 Q-69.05 -52.8 -69.05 -54.85" fill="#d2c2b0" fill-rule="evenodd" stroke="none"/>
      <path d="M-102.55 -74.35 L-102.3 -74.1 Q-99.95 -71.9 -95.05 -69.0 -95.25 -67.45 -96.3 -65.8 L-97.05 -64.8 -97.35 -64.6 -97.45 -64.45 Q-98.75 -63.35 -100.55 -63.35 L-103.15 -63.7 Q-104.25 -64.1 -105.0 -64.85 -106.05 -65.9 -106.05 -67.1 -106.05 -68.4 -105.5 -70.3 -104.9 -72.4 -104.8 -73.85 L-104.35 -74.1 -102.55 -74.35" fill="#523012" fill-rule="evenodd" stroke="none"/>
      <path d="M-38.1 29.65 L-38.25 29.65 -40.0 29.85 Q-41.05 30.25 -41.05 31.9 -41.05 34.4 -40.8 33.4 L-38.6 34.05 Q-30.0 36.45 -21.55 39.55 L-24.15 40.15 Q-36.3 40.15 -37.8 38.4 -38.15 37.55 -38.6 37.2 -39.1 36.8 -40.65 36.7 L-42.05 36.65 -45.1 36.75 Q-55.3 30.6 -57.55 26.65 -60.05 22.05 -60.05 14.65 -58.3 1.15 -58.05 -6.35 L-57.55 -6.85 Q-57.05 -7.35 -55.55 -7.35 -54.85 -7.35 -53.9 -6.15 L-53.1 -6.4 -52.5 -4.35 -48.5 9.75 -48.2 10.65 -46.0 16.35 Q-43.8 21.25 -41.7 22.35 -41.0 24.05 -38.95 25.85 -38.3 27.8 -38.1 29.65 M-103.3 -63.5 L-107.05 -65.55 Q-117.75 -71.6 -122.7 -77.2 -128.9 -84.3 -128.9 -93.35 L-128.75 -96.75 -128.15 -102.85 -128.1 -103.35 Q-121.85 -103.5 -118.65 -110.95 L-118.95 -106.55 -119.05 -103.6 Q-119.05 -102.05 -118.45 -99.95 -117.3 -95.65 -113.6 -89.2 -108.3 -79.85 -102.55 -74.35 L-104.35 -74.1 -104.8 -73.85 Q-104.9 -72.4 -105.5 -70.3 -106.05 -68.4 -106.05 -67.1 -106.05 -65.9 -105.0 -64.85 -104.25 -64.1 -103.15 -63.7 L-103.3 -63.5" fill="#512f11" fill-rule="evenodd" stroke="none"/>
      <path d="M-101.5 -55.75 L-100.4 -55.2 -99.35 -54.65 -97.25 -53.5 -95.2 -52.4 -95.25 -52.1 Q-95.4 -50.6 -96.05 -48.0 -96.05 -44.2 -92.5 -38.4 L-89.4 -33.65 -89.35 -33.6 -93.5 -29.55 -101.1 -21.95 Q-105.0 -18.65 -105.8 -16.9 L-109.95 -12.0 -111.1 -10.45 -112.5 -8.2 Q-113.35 -9.4 -115.7 -10.8 -121.8 -14.35 -134.4 -14.35 L-135.1 -14.35 -134.7 -14.5 -134.95 -14.7 -135.2 -14.35 -135.25 -14.25 Q-136.0 -13.2 -141.95 -12.95 L-142.15 -13.45 -142.35 -14.1 Q-142.9 -15.85 -142.9 -16.85 -142.9 -19.0 -120.1 -39.35 L-101.5 -55.75" fill="#a66529" fill-rule="evenodd" stroke="none"/>
      <path d="M-74.05 -47.45 L-74.15 -47.5 -74.1 -47.55 -74.05 -47.45 M-80.05 -43.6 L-74.25 -39.9 -82.0 -34.1 -85.25 -31.45 -85.05 -32.0 Q-85.05 -33.45 -85.3 -33.6 L-85.55 -33.85 -88.55 -34.35 -89.0 -33.9 Q-88.55 -37.5 -80.05 -43.6" fill="#ffe6b2" fill-rule="evenodd" stroke="none"/>
      <path d="M-82.0 -34.1 L-81.35 -33.55 Q-81.05 -32.95 -81.05 -30.85 -81.05 -29.4 -84.05 -24.85 -80.45 -24.85 -74.8 -28.6 -69.2 -32.35 -68.05 -32.35 L-65.55 -31.85 -65.3 -31.4 Q-65.1 -31.1 -65.05 -30.05 L-65.05 -29.6 -70.3 -21.5 -71.6 -19.3 -72.9 -17.1 -75.55 -12.2 -75.6 -12.1 Q-80.8 -2.15 -80.8 3.4 -80.8 13.0 -72.1 23.8 -66.05 31.25 -54.0 41.1 L-52.9 42.0 -52.15 42.6 -49.05 45.1 -42.9 50.1 -33.75 57.4 Q-26.2 64.1 -25.2 68.2 -29.7 66.65 -34.05 66.65 L-37.0 66.85 -37.15 66.9 -37.25 67.0 Q-37.95 66.65 -39.05 66.65 -43.75 66.65 -47.55 70.8 L-72.05 57.05 -72.05 56.9 Q-75.35 49.45 -80.75 40.95 L-89.5 27.45 Q-99.05 12.3 -99.05 -0.5 -97.05 -14.85 -97.05 -17.35 L-97.05 -17.75 Q-99.3 -15.55 -101.45 -14.3 L-99.05 -17.15 -97.35 -19.0 -89.4 -26.9 Q-85.95 -30.2 -85.25 -31.45 L-82.0 -34.1 M-90.8 -23.1 L-91.25 -22.85 -91.05 -22.35 -90.8 -23.1" fill="#7c4015" fill-rule="evenodd" stroke="none"/>
      <path d="M-74.25 -39.9 L-73.8 -39.6 Q-67.95 -35.75 -63.85 -30.55 L-64.05 -30.35 -63.65 -30.3 Q-61.9 -28.05 -60.45 -25.55 -61.4 -23.0 -64.3 -18.6 -69.1 -11.35 -73.05 -11.35 L-75.05 -11.85 -75.55 -12.2 -72.9 -17.1 -71.6 -19.3 -70.3 -21.5 -65.05 -29.6 -65.05 -30.05 Q-65.1 -31.1 -65.3 -31.4 L-65.55 -31.85 -68.05 -32.35 Q-69.2 -32.35 -74.8 -28.6 -80.45 -24.85 -84.05 -24.85 -81.05 -29.4 -81.05 -30.85 -81.05 -32.95 -81.35 -33.55 L-82.0 -34.1 -74.25 -39.9" fill="#e89c4d" fill-rule="evenodd" stroke="none"/>
      <path d="M-105.8 -16.9 Q-105.0 -18.65 -101.1 -21.95 L-105.8 -16.9 M-37.15 66.9 L-37.0 66.85 -37.1 66.9 -37.15 66.9" fill="#331e10" fill-rule="evenodd" stroke="none"/>
      <path d="M-60.45 -25.55 L-59.8 -24.35 Q-57.9 -20.75 -54.05 -9.35 L-53.1 -6.4 -53.9 -6.15 Q-54.85 -7.35 -55.55 -7.35 -57.05 -7.35 -57.55 -6.85 L-58.05 -6.35 Q-58.3 1.15 -60.05 14.65 -60.05 22.05 -57.55 26.65 -55.3 30.6 -45.1 36.75 -49.5 36.95 -51.55 37.9 -53.75 38.9 -54.0 41.1 -66.05 31.25 -72.1 23.8 -80.8 13.0 -80.8 3.4 -80.8 -2.15 -75.6 -12.1 L-75.05 -11.85 -73.05 -11.35 Q-69.1 -11.35 -64.3 -18.6 -61.4 -23.0 -60.45 -25.55" fill="#a05c20" fill-rule="evenodd" stroke="none"/>
      <path d="M-49.15 -31.95 L-46.0 -25.95 -43.7 -21.3 -42.05 -17.9 -42.05 -15.75 Q-42.05 -12.55 -42.25 -12.0 -42.9 -10.55 -46.35 -7.5 L-46.4 -7.45 -46.45 -7.6 -48.05 -11.8 -49.85 -16.25 Q-51.85 -21.0 -53.8 -24.95 L-53.05 -25.35 Q-51.2 -25.35 -50.0 -28.55 -49.4 -30.25 -49.15 -31.95" fill="#67421e" fill-rule="evenodd" stroke="none"/>
      <path d="M-42.05 -17.9 L-41.5 -16.7 Q-39.35 -12.1 -38.0 -7.4 L-38.0 -7.35 -37.7 -6.2 Q-35.65 1.95 -36.05 10.55 L-38.05 13.15 -39.15 14.7 -42.85 2.75 -42.55 2.65 -42.95 2.5 -46.15 -6.8 -46.4 -7.45 -46.35 -7.5 Q-42.9 -10.55 -42.25 -12.0 -42.05 -12.55 -42.05 -15.75 L-42.05 -17.9" fill="#5d3a18" fill-rule="evenodd" stroke="none"/>
      <path d="M-124.0 -150.85 Q-124.1 -154.05 -124.35 -155.15 -125.45 -159.7 -131.4 -169.1 L-137.5 -178.3 -132.75 -174.35 Q-124.75 -167.55 -121.7 -163.5 -118.15 -158.9 -117.0 -153.05 -116.05 -148.15 -116.05 -137.35 -116.05 -133.95 -116.6 -128.45 L-118.7 -137.05 Q-121.5 -147.5 -124.0 -150.85" fill="#3d1f0b" fill-rule="evenodd" stroke="none"/>
      <path d="M-128.1 -103.35 L-126.4 -118.0 -126.3 -118.5 -125.9 -121.95 Q-125.1 -128.4 -124.65 -133.15 -123.9 -137.25 -123.9 -138.85 L-124.1 -139.55 -123.9 -144.0 -124.0 -150.85 Q-121.5 -147.5 -118.7 -137.05 L-116.6 -128.45 -117.55 -120.45 -118.65 -110.95 Q-121.85 -103.5 -128.1 -103.35" fill="#b19473" fill-rule="evenodd" stroke="none"/>
      <path d="M-223.95 -17.55 L-223.4 -17.35 Q-214.15 -30.65 -197.55 -48.3 -182.2 -64.7 -167.05 -77.85 L-159.0 -83.75 Q-149.7 -89.35 -133.85 -95.0 L-133.9 -93.35 Q-133.9 -86.85 -132.55 -81.95 -140.75 -79.0 -150.3 -69.55 -159.5 -60.45 -168.25 -47.2 -176.5 -34.65 -181.65 -22.55 -186.05 -12.15 -186.75 -5.3 -188.9 -4.2 -188.9 -1.5 L-188.9 -1.1 -188.9 -0.5 Q-188.9 1.3 -182.85 11.75 L-179.35 17.2 Q-198.45 19.6 -214.4 25.65 -224.3 29.45 -230.4 33.75 L-233.75 36.45 Q-235.9 26.05 -235.9 24.15 -235.9 3.55 -223.95 -17.55" fill="#4a301f" fill-rule="evenodd" stroke="none"/>
      <path d="M-101.5 -55.75 L-120.1 -39.35 Q-142.9 -19.0 -142.9 -16.85 -142.9 -15.85 -142.35 -14.1 L-143.4 -13.85 Q-159.15 -8.8 -178.45 -6.85 L-180.05 -6.65 Q-184.85 -6.15 -186.4 -5.5 L-186.75 -5.3 Q-186.05 -12.15 -181.65 -22.55 -176.5 -34.65 -168.25 -47.2 -159.5 -60.45 -150.3 -69.55 -140.75 -79.0 -132.55 -81.95 -131.95 -79.55 -130.95 -77.5 L-130.25 -76.15 Q-127.0 -70.4 -119.15 -65.4 -116.15 -63.5 -101.5 -55.75 M-120.05 -56.85 Q-119.8 -58.9 -120.75 -60.75 -122.6 -64.35 -128.4 -64.35 -137.55 -64.35 -140.85 -59.6 -142.9 -56.65 -142.9 -50.6 L-143.15 -49.3 Q-143.3 -47.95 -142.85 -46.85 -141.45 -43.35 -134.4 -43.35 -127.8 -43.35 -123.4 -49.3 -120.05 -53.8 -120.05 -56.85" fill="#d38b43" fill-rule="evenodd" stroke="none"/>
      <path d="M-120.05 -56.85 Q-120.05 -53.8 -123.4 -49.3 -127.8 -43.35 -134.4 -43.35 -141.45 -43.35 -142.85 -46.85 -143.3 -47.95 -143.15 -49.3 L-142.9 -50.6 Q-142.9 -56.65 -140.85 -59.6 -137.55 -64.35 -128.4 -64.35 -122.6 -64.35 -120.75 -60.75 -119.8 -58.9 -120.05 -56.85" fill="#67300f" fill-rule="evenodd" stroke="none"/>
      <path d="M-142.35 -14.1 L-142.15 -13.45 -141.95 -12.95 Q-136.0 -13.2 -135.25 -14.25 L-135.2 -14.35 -135.1 -14.35 -134.4 -14.35 Q-121.8 -14.35 -115.7 -10.8 -113.35 -9.4 -112.5 -8.2 L-113.0 -7.35 -114.4 -4.45 Q-115.45 -2.2 -116.15 0.25 -130.15 8.3 -142.95 16.8 L-143.15 16.7 Q-145.65 15.65 -153.4 15.65 L-171.3 16.4 -179.35 17.2 -182.85 11.75 Q-188.9 1.3 -188.9 -0.5 L-188.9 -1.1 -188.9 -1.5 Q-188.9 -4.2 -186.75 -5.3 L-186.4 -5.5 Q-184.85 -6.15 -180.05 -6.65 L-178.45 -6.85 Q-159.15 -8.8 -143.4 -13.85 L-142.35 -14.1 M-169.75 23.45 L-171.4 23.65 -172.05 23.6 -172.15 23.6 -172.05 23.6 -169.75 23.45" fill="#a59a91" fill-rule="evenodd" stroke="none"/>
      <path d="M-129.25 15.45 L-119.1 7.85 -118.7 7.55 -118.4 7.3 -117.75 6.7 -117.5 6.5 -117.8 9.1 -118.0 11.45 -118.05 13.9 Q-118.05 25.0 -108.3 36.45 L-108.3 36.65 -108.55 36.65 Q-112.9 36.65 -118.45 47.1 -121.55 52.9 -125.0 62.0 -126.65 63.65 -127.4 63.65 -129.9 63.65 -130.15 61.95 -129.95 59.95 -130.15 59.4 -135.65 72.65 -137.9 72.65 L-140.65 72.15 -140.9 64.25 -140.9 63.8 -137.2 57.3 -134.9 53.2 -121.05 28.65 -121.7 27.35 Q-122.3 26.65 -123.9 26.65 L-132.65 40.45 -139.85 51.9 -140.25 52.5 -140.2 51.65 Q-139.55 46.15 -138.3 40.5 L-134.75 31.25 -134.15 29.8 -129.9 25.4 Q-130.1 23.45 -131.5 22.9 -129.9 18.35 -129.9 17.0 L-129.9 16.6 -129.25 15.45" fill="#4f423d" fill-rule="evenodd" stroke="none"/>
      <path d="M-172.15 23.6 L-172.05 23.6 -171.4 23.65 -169.75 23.45 -168.9 23.4 -167.7 23.35 -166.7 23.3 -159.15 23.0 -153.15 22.85 -151.85 22.75 -152.8 23.35 -155.45 25.15 -172.7 36.9 -184.7 45.2 Q-187.25 46.95 -189.4 48.45 L-198.5 35.35 -202.9 28.9 -202.35 28.0 Q-203.2 26.9 -204.1 26.35 L-199.65 25.25 -197.15 24.85 -189.0 24.05 -176.6 23.65 -173.4 23.65 -172.7 23.6 -172.15 23.6 M-228.0 71.9 L-230.1 71.65 Q-231.8 63.75 -231.9 56.15 L-230.85 62.15 Q-229.6 68.2 -228.0 71.9" fill="#311605" fill-rule="evenodd" stroke="none"/>
      <path d="M-140.9 64.25 L-140.65 72.15 -137.9 72.65 Q-135.65 72.65 -130.15 59.4 -129.95 59.95 -130.15 61.95 -129.9 63.65 -127.4 63.65 -126.65 63.65 -125.0 62.0 L-127.85 69.9 Q-131.65 80.9 -135.05 93.2 L-136.95 100.45 Q-137.3 94.6 -138.9 88.4 -139.4 86.4 -144.6 80.35 -147.15 77.4 -148.45 76.0 L-148.05 75.35 Q-146.25 76.65 -144.4 76.65 -141.9 76.65 -142.15 75.9 L-141.1 64.2 -140.9 64.25 M-184.65 74.6 Q-183.35 74.45 -183.15 73.9 L-182.9 64.15 Q-178.8 64.85 -175.45 66.0 -178.9 70.55 -178.9 72.15 -178.9 75.65 -175.4 75.65 -172.9 75.65 -172.9 74.4 -171.65 71.95 -169.45 68.8 L-167.95 69.75 -164.1 72.95 Q-161.95 74.8 -160.4 75.65 -156.85 74.25 -156.6 69.35 -156.95 63.95 -156.65 62.4 -155.95 63.1 -152.5 70.05 L-151.75 71.2 Q-157.9 81.45 -157.9 82.5 -157.9 84.2 -157.2 84.85 L-155.75 85.55 -155.9 85.9 Q-159.7 95.95 -159.9 98.7 -165.9 94.1 -170.15 89.15 L-184.65 74.7 -184.65 74.6" fill="#b7a494" fill-rule="evenodd" stroke="none"/>
      <path d="M-159.9 98.7 Q-159.7 95.95 -155.9 85.9 L-155.75 85.55 -155.4 85.65 Q-152.05 81.4 -148.45 76.0 -147.15 77.4 -144.6 80.35 -139.4 86.4 -138.9 88.4 -137.3 94.6 -136.95 100.45 L-137.9 104.75 -137.25 112.05 -144.45 108.45 -145.3 108.0 -146.7 107.2 Q-155.6 102.0 -159.9 98.7" fill="#cbc5c0" fill-rule="evenodd" stroke="none"/>
      <path d="M-119.45 65.25 L-111.95 51.85 Q-106.6 59.5 -74.05 79.15 -87.55 77.65 -110.3 89.15 -119.4 93.75 -125.6 98.4 -131.9 103.15 -131.9 105.5 L-132.3 106.85 -132.9 104.25 Q-132.9 90.4 -119.45 65.25" fill="#281408" fill-rule="evenodd" stroke="none"/>
      <path d="M-204.1 26.35 Q-203.2 26.9 -202.35 28.0 L-202.9 28.9 -198.5 35.35 -189.4 48.45 Q-202.9 57.85 -202.9 58.25 -202.9 61.25 -195.25 71.0 -187.35 81.0 -176.6 91.4 -160.1 107.4 -147.9 114.0 -158.95 120.25 -164.0 131.05 L-170.4 124.15 Q-177.25 116.85 -178.65 114.15 L-182.4 104.9 Q-185.0 98.4 -187.4 95.65 -189.9 96.3 -189.9 99.0 -189.9 105.25 -183.9 122.65 L-184.15 126.6 -184.2 132.5 Q-196.55 116.8 -200.85 114.9 -198.9 111.9 -198.9 110.9 -198.9 110.65 -218.8 76.75 -217.9 75.85 -217.9 74.15 -217.9 72.05 -222.25 58.85 -226.45 46.25 -229.45 41.1 L-220.75 36.1 -211.8 30.75 -207.9 28.15 Q-206.55 27.15 -204.1 26.35" fill="#734d26" fill-rule="evenodd" stroke="none"/>
      <path d="M-231.9 56.15 L-231.9 55.15 Q-230.5 45.5 -230.05 41.45 L-229.45 41.1 Q-226.45 46.25 -222.25 58.85 -217.9 72.05 -217.9 74.15 -217.9 75.85 -218.8 76.75 L-222.4 70.65 -224.7 73.15 Q-226.2 72.2 -228.0 71.9 -229.6 68.2 -230.85 62.15 L-231.9 56.15" fill="#422710" fill-rule="evenodd" stroke="none"/>
      <path d="M-233.75 77.1 L-233.9 76.75 -233.9 76.5 -233.75 77.1 M-218.8 76.75 Q-198.9 110.65 -198.9 110.9 -198.9 111.9 -200.85 114.9 L-201.9 114.65 Q-203.55 114.65 -204.05 115.2 L-204.9 116.9 -203.8 118.2 -203.6 118.4 -200.3 122.6 -200.4 122.65 -200.2 122.7 -192.0 133.4 -188.7 138.3 -178.0 153.95 -187.35 144.3 Q-194.2 136.9 -200.05 129.55 L-200.85 128.55 -207.65 119.35 -210.75 114.8 -213.75 110.15 Q-224.25 93.2 -228.65 77.45 L-230.1 71.65 -228.0 71.9 Q-226.2 72.2 -224.7 73.15 L-222.4 70.65 -218.8 76.75" fill="#da954b" fill-rule="evenodd" stroke="none"/>
      <path d="M-200.85 114.9 Q-196.55 116.8 -184.2 132.5 L-182.1 135.2 -175.5 143.9 -169.2 152.55 -170.3 159.35 Q-173.95 157.25 -185.8 141.55 L-192.0 133.4 -200.2 122.7 -200.3 122.6 -203.6 118.4 -203.8 118.2 -204.9 116.9 -204.05 115.2 Q-203.55 114.65 -201.9 114.65 L-200.85 114.9" fill="#79542a" fill-rule="evenodd" stroke="none"/>
      <path d="M-184.2 132.5 L-184.15 126.6 -183.9 122.65 Q-189.9 105.25 -189.9 99.0 -189.9 96.3 -187.4 95.65 -185.0 98.4 -182.4 104.9 L-178.65 114.15 Q-177.25 116.85 -170.4 124.15 L-164.0 131.05 -165.1 133.65 -165.8 135.6 Q-167.45 140.6 -168.65 148.7 L-169.2 152.55 -175.5 143.9 -182.1 135.2 -184.2 132.5 M-178.0 153.95 L-188.7 138.3 -192.0 133.4 -185.8 141.55 Q-173.95 157.25 -170.3 159.35 L-170.65 161.0 -178.0 153.95" fill="#7c5b33" fill-rule="evenodd" stroke="none"/>
      <path d="M-25.2 68.2 Q-26.2 64.1 -33.75 57.4 L-42.9 50.1 -30.0 56.85 Q-24.65 59.8 -4.25 71.85 13.1 82.1 23.5 86.75 10.05 84.05 -1.55 80.65 -5.3 79.55 -9.5 77.05 L-16.7 72.4 Q-21.05 69.65 -25.2 68.2 M17.3 99.65 L19.7 99.15 32.1 97.95 31.95 99.75 Q31.95 101.6 27.25 105.9 L16.95 114.85 14.85 116.8 Q16.95 112.9 16.95 108.4 16.95 106.7 14.55 106.4 13.85 106.3 13.1 106.95 13.35 106.3 13.05 106.4 L14.25 105.3 17.95 101.4 Q17.8 100.3 17.3 99.65 M-37.65 70.55 L-33.35 74.15 Q-31.45 75.55 -30.8 76.65 -31.8 78.2 -33.2 79.55 -34.05 80.35 -34.05 81.15 L-31.9 82.3 -35.55 87.1 -40.15 93.4 -44.05 98.85 Q-44.25 97.9 -44.8 97.05 -46.05 95.1 -49.05 94.3 L-48.35 92.55 -43.8 80.8 Q-41.15 75.05 -37.65 70.55" fill="#b1aca8" fill-rule="evenodd" stroke="none"/>
    </g>
  </defs>
</svg>
