<?xml version="1.0" encoding="UTF-8" standalone="no"?>
<svg xmlns:xlink="http://www.w3.org/1999/xlink" height="720.75px" width="1716.8px" xmlns="http://www.w3.org/2000/svg">
  <g transform="matrix(1, 0, 0, 1, 307.05, 450.35)">
    <use height="90.7" transform="matrix(1.0, 0.0, 0.0, 1.0, -109.05, -45.35)" width="218.2" xlink:href="#sprite0"/>
  </g>
  <defs>
    <g id="sprite0" transform="matrix(1, 0, 0, 1, 109.05, 45.35)">
      <use height="114.0" transform="matrix(0.7484, -0.0394, 0.0394, 0.7484, -109.0317, -39.9887)" width="136.1" xlink:href="#sprite1"/>
      <use height="114.0" transform="matrix(-0.7484, -0.0393, -0.0393, 0.7484, 109.1269, -40.0049)" width="136.1" xlink:href="#sprite1"/>
      <use height="76.5" transform="matrix(0.5065, 0.0, 0.0, 0.5065, -18.9248, -26.0748)" width="76.5" xlink:href="#shape1"/>
    </g>
    <g id="sprite1" transform="matrix(1, 0, 0, 1, 132.0, 39.0)">
      <use height="114.0" transform="matrix(1.0, 0.0, 0.0, 1.0, -132.0, -39.0)" width="136.1" xlink:href="#shape0"/>
    </g>
    <g id="shape0" transform="matrix(1, 0, 0, 1, 132.0, 39.0)">
      <path d="M-122.85 61.0 L-130.5 73.5 Q-124.95 58.2 -110.4 34.45 -96.25 11.2 -78.0 -12.75 -67.2 -15.2 -49.45 -25.85 -32.5 -36.15 -24.0 -37.5 -31.35 8.7 2.6 -3.0 -31.05 20.2 -32.25 -28.1 -80.85 -5.4 -122.85 61.0" fill="#000000" fill-rule="evenodd" stroke="none"/>
      <path d="M-122.85 61.0 Q-80.85 -5.4 -32.25 -28.1 -54.1 -8.4 -66.9 17.95 -76.2 4.6 -122.7 60.9 L-122.85 61.0 M-34.9 20.25 Q-35.85 18.0 -37.65 17.25 -44.65 7.6 -37.15 -11.6 L-34.9 20.25" fill="#000000" fill-rule="evenodd" stroke="none"/>
      <path d="M-32.25 -28.1 Q-31.05 20.2 2.6 -3.0 1.65 8.1 -8.65 19.15 -32.95 -0.9 -34.9 20.25 L-37.15 -11.6 Q-44.65 7.6 -37.65 17.25 -46.75 13.45 -77.25 45.0 -70.35 15.9 -122.7 60.9 -76.2 4.6 -66.9 17.95 -54.1 -8.4 -32.25 -28.1 M-77.25 45.0 Q-73.15 30.7 -66.9 17.95 -73.15 30.7 -77.25 45.0" fill="#000000" fill-rule="evenodd" stroke="none"/>
      <path d="M2.6 -3.0 Q-31.35 8.7 -24.0 -37.5 -32.5 -36.15 -49.45 -25.85 -67.2 -15.2 -78.0 -12.75 -96.25 11.2 -110.4 34.45 -124.95 58.2 -130.5 73.5 L-122.85 61.0 Q-80.85 -5.4 -32.25 -28.1 -31.05 20.2 2.6 -3.0 1.65 8.1 -8.65 19.15 -32.95 -0.9 -34.9 20.25 -36.45 18.9 -37.65 17.25 -46.75 13.45 -77.25 45.0 -70.35 15.9 -122.7 60.9 L-122.85 61.0 M-34.9 20.25 Q-35.85 18.0 -37.65 17.25" fill="none" stroke="#000000" stroke-linecap="round" stroke-linejoin="round" stroke-width="3.0"/>
      <path d="M-37.65 17.25 Q-44.65 7.6 -37.15 -11.6 L-34.9 20.25 M-66.9 17.95 Q-73.15 30.7 -77.25 45.0 M-122.7 60.9 Q-76.2 4.6 -66.9 17.95 -54.1 -8.4 -32.25 -28.1" fill="none" stroke="#000000" stroke-linecap="round" stroke-linejoin="round" stroke-opacity="0.0" stroke-width="1.0"/>
    </g>
    <g id="shape1" transform="matrix(1, 0, 0, 1, 38.25, 38.25)">
      <path d="M27.05 -27.05 Q38.25 -15.85 38.25 0.0 38.25 15.85 27.05 27.05 15.85 38.25 0.0 38.25 -15.85 38.25 -27.05 27.05 -38.25 15.85 -38.25 0.0 -38.25 -15.85 -27.05 -27.05 -15.85 -38.25 0.0 -38.25 15.85 -38.25 27.05 -27.05" fill="#000000" fill-rule="evenodd" stroke="none"/>
    </g>
  </defs>
</svg>
