<?xml version="1.0" encoding="UTF-8" standalone="no"?>
<svg xmlns:xlink="http://www.w3.org/1999/xlink" height="720.75px" width="1716.8px" xmlns="http://www.w3.org/2000/svg">
  <g transform="matrix(1, 0, 0, 1, 307.05, 450.35)">
    <use height="199.15" transform="matrix(0.25, 0.0, 0.0, 0.25, -21.95, -24.9375)" width="175.6" xlink:href="#sprite0"/>
  </g>
  <defs>
    <g id="sprite0" transform="matrix(1, 0, 0, 1, 87.8, 99.55)">
      <use height="199.15" transform="matrix(1.0, 0.0, 0.0, 1.0, -87.8, -99.55)" width="175.6" xlink:href="#shape0"/>
    </g>
    <g id="shape0" transform="matrix(1, 0, 0, 1, 87.8, 99.55)">
      <path d="M-75.3 -4.5 L-77.05 -6.1 Q-86.1 -26.95 -85.85 -48.95 -86.3 -51.2 -86.3 -53.6 -86.3 -72.0 -61.0 -85.05 -35.75 -98.05 0.0 -98.05 35.75 -98.05 61.05 -85.05 86.3 -72.0 86.3 -53.6 86.3 -49.65 85.15 -45.95 83.6 -23.15 74.95 -3.9 L73.05 -2.2 Q-1.15 62.9 -75.3 -4.5 M68.75 12.4 Q83.55 32.95 63.55 69.6 38.15 97.35 -1.5 98.1 -58.55 93.8 -69.65 47.6 -71.05 38.05 -66.0 22.7 L-64.2 24.2 -59.0 39.6 Q-1.0 90.85 66.5 35.3 69.6 30.8 65.5 24.55 69.15 22.05 67.05 13.8 L68.75 12.4 M49.5 -24.35 Q52.8 -25.75 55.95 -27.35 78.5 -38.75 78.5 -54.9 78.5 -71.05 55.95 -82.5 33.4 -93.9 1.5 -93.9 -30.4 -93.9 -52.95 -82.5 -75.5 -71.05 -75.5 -54.9 -75.5 -38.75 -52.95 -27.35 -49.05 -25.35 -44.85 -23.7 -24.9 -15.9 1.5 -15.9 28.95 -15.9 49.5 -24.35 M-85.85 -48.95 Q-78.25 -31.05 -61.0 -22.2 -35.75 -9.15 0.0 -9.15 35.75 -9.15 61.05 -22.2 80.9 -32.4 85.15 -45.95 80.9 -32.4 61.05 -22.2 35.75 -9.15 0.0 -9.15 -35.75 -9.15 -61.0 -22.2 -78.25 -31.05 -85.85 -48.95" fill="#6f4d00" fill-rule="evenodd" stroke="none"/>
      <path d="M73.05 -2.2 Q73.8 7.0 68.75 12.4 L67.05 13.8 Q69.15 22.05 65.5 24.55 69.6 30.8 66.5 35.3 -1.0 90.85 -59.0 39.6 L-64.2 24.2 Q0.0 76.25 65.5 24.55 0.0 76.25 -64.2 24.2 L-66.0 22.7 -68.0 11.5 -69.5 10.2 Q-75.1 1.95 -75.3 -4.5 -1.15 62.9 73.05 -2.2 M-68.0 11.5 Q-1.2 68.9 67.05 13.8 -1.2 68.9 -68.0 11.5 M-44.85 -23.7 Q-49.05 -25.35 -52.95 -27.35 -75.5 -38.75 -75.5 -54.9 -75.5 -71.05 -52.95 -82.5 -30.4 -93.9 1.5 -93.9 33.4 -93.9 55.95 -82.5 78.5 -71.05 78.5 -54.9 78.5 -38.75 55.95 -27.35 52.8 -25.75 49.5 -24.35 27.55 -39.8 2.2 -39.05 -22.4 -38.35 -44.85 -23.7" fill="#4d3500" fill-rule="evenodd" stroke="none"/>
      <path d="M49.5 -24.35 Q28.95 -15.9 1.5 -15.9 -24.9 -15.9 -44.85 -23.7 -22.4 -38.35 2.2 -39.05 27.55 -39.8 49.5 -24.35" fill="#78c565" fill-rule="evenodd" stroke="none"/>
      <path d="M-75.3 -4.5 L-77.05 -6.1 Q-86.1 -26.95 -85.85 -48.95 -86.3 -51.2 -86.3 -53.6 -86.3 -72.0 -61.0 -85.05 -35.75 -98.05 0.0 -98.05 35.75 -98.05 61.05 -85.05 86.3 -72.0 86.3 -53.6 86.3 -49.65 85.15 -45.95 83.6 -23.15 74.95 -3.9 L73.05 -2.2 Q73.8 7.0 68.75 12.4 83.55 32.95 63.55 69.6 38.15 97.35 -1.5 98.1 -58.55 93.8 -69.65 47.6 -71.05 38.05 -66.0 22.7 L-68.0 11.5 -69.5 10.2 Q-75.1 1.95 -75.3 -4.5 -1.15 62.9 73.05 -2.2 M67.05 13.8 L68.75 12.4 M-64.2 24.2 L-59.0 39.6 Q-1.0 90.85 66.5 35.3 69.6 30.8 65.5 24.55 0.0 76.25 -64.2 24.2 L-66.0 22.7 M65.5 24.55 Q69.15 22.05 67.05 13.8 -1.2 68.9 -68.0 11.5 M-44.85 -23.7 Q-49.05 -25.35 -52.95 -27.35 -75.5 -38.75 -75.5 -54.9 -75.5 -71.05 -52.95 -82.5 -30.4 -93.9 1.5 -93.9 33.4 -93.9 55.95 -82.5 78.5 -71.05 78.5 -54.9 78.5 -38.75 55.95 -27.35 52.8 -25.75 49.5 -24.35 28.95 -15.9 1.5 -15.9 -24.9 -15.9 -44.85 -23.7 M85.15 -45.95 Q80.9 -32.4 61.05 -22.2 35.75 -9.15 0.0 -9.15 -35.75 -9.15 -61.0 -22.2 -78.25 -31.05 -85.85 -48.95" fill="none" stroke="#000000" stroke-linecap="round" stroke-linejoin="round" stroke-width="3.0"/>
      <path d="M-44.85 -23.7 Q-22.4 -38.35 2.2 -39.05 27.55 -39.8 49.5 -24.35" fill="none" stroke="#000000" stroke-linecap="round" stroke-linejoin="round" stroke-width="3.0"/>
    </g>
  </defs>
</svg>
