<?xml version="1.0" encoding="UTF-8" standalone="no"?>
<svg xmlns:xlink="http://www.w3.org/1999/xlink" height="720.75px" width="1716.8px" xmlns="http://www.w3.org/2000/svg">
  <g transform="matrix(1, 0, 0, 1, 307.05, 450.35)">
    <use height="54.15" transform="matrix(1.0, 0.0, 0.0, 1.0, -80.5, -27.05)" width="161.0" xlink:href="#sprite0"/>
  </g>
  <defs>
    <g id="sprite0" transform="matrix(1, 0, 0, 1, 80.5, 27.05)">
      <use height="54.15" transform="matrix(1.0, 0.0, 0.0, 1.0, -80.5, -27.05)" width="161.0" xlink:href="#shape0"/>
    </g>
    <g id="shape0" transform="matrix(1, 0, 0, 1, 80.5, 27.05)">
      <path d="M79.0 -3.05 Q79.0 4.55 63.5 10.4 L54.45 19.45 Q-3.75 31.5 -51.0 19.95 L-61.3 11.15 Q-79.0 5.1 -79.0 -3.05 -79.0 -12.35 -55.85 -18.95 -32.7 -25.55 0.0 -25.55 32.7 -25.55 55.85 -18.95 79.0 -12.35 79.0 -3.05 M-61.3 11.15 L-55.85 12.85 Q-32.7 19.45 0.0 19.45 32.7 19.45 55.85 12.85 L63.5 10.4 55.85 12.85 Q32.7 19.45 0.0 19.45 -32.7 19.45 -55.85 12.85 L-61.3 11.15 M65.15 -3.0 Q65.15 -10.0 46.35 -14.9 27.5 -19.9 0.95 -19.9 -25.6 -19.9 -44.4 -14.9 -63.25 -10.0 -63.25 -3.0 -63.25 4.0 -44.4 8.95 -25.6 13.9 0.95 13.9 27.5 13.9 46.35 8.95 65.15 4.0 65.15 -3.0 65.15 4.0 46.35 8.95 27.5 13.9 0.95 13.9 -25.6 13.9 -44.4 8.95 -63.25 4.0 -63.25 -3.0 -63.25 -10.0 -44.4 -14.9 -25.6 -19.9 0.95 -19.9 27.5 -19.9 46.35 -14.9 65.15 -10.0 65.15 -3.0" fill="#ffffff" fill-rule="evenodd" stroke="none"/>
      <path d="M79.0 -3.05 Q79.0 4.55 63.5 10.4 L54.45 19.45 Q-3.75 31.5 -51.0 19.95 L-61.3 11.15 Q-79.0 5.1 -79.0 -3.05 -79.0 -12.35 -55.85 -18.95 -32.7 -25.55 0.0 -25.55 32.7 -25.55 55.85 -18.95 79.0 -12.35 79.0 -3.05 M65.15 -3.0 Q65.15 4.0 46.35 8.95 27.5 13.9 0.95 13.9 -25.6 13.9 -44.4 8.95 -63.25 4.0 -63.25 -3.0 -63.25 -10.0 -44.4 -14.9 -25.6 -19.9 0.95 -19.9 27.5 -19.9 46.35 -14.9 65.15 -10.0 65.15 -3.0 M63.5 10.4 L55.85 12.85 Q32.7 19.45 0.0 19.45 -32.7 19.45 -55.85 12.85 L-61.3 11.15" fill="none" stroke="#000000" stroke-linecap="round" stroke-linejoin="round" stroke-width="3.0"/>
    </g>
  </defs>
</svg>
