<?xml version="1.0" encoding="UTF-8" standalone="no"?>
<svg xmlns:xlink="http://www.w3.org/1999/xlink" height="720.75px" width="1716.8px" xmlns="http://www.w3.org/2000/svg">
  <g transform="matrix(1, 0, 0, 1, 307.05, 450.35)">
    <use height="113.7" transform="matrix(3.0, 0.0, 0.0, 3.0, -52.5, -170.1)" width="35.0" xlink:href="#sprite0"/>
  </g>
  <defs>
    <g id="sprite0" transform="matrix(1, 0, 0, 1, 17.5, 56.85)">
      <use height="113.7" transform="matrix(1.0, 0.0, 0.0, 1.0, -17.5, -56.85)" width="35.0" xlink:href="#shape0"/>
    </g>
    <g id="shape0" transform="matrix(1, 0, 0, 1, 17.5, 56.85)">
      <path d="M3.2 -52.1 L3.4 -52.6 3.2 -53.1 2.65 -53.3 2.15 -53.1 1.9 -52.6 Q1.9 -52.3 2.15 -52.1 2.35 -51.9 2.65 -51.9 2.95 -51.9 3.2 -52.1 M5.7 -46.9 Q17.7 -41.95 16.95 5.45 15.0 1.9 14.55 -11.05 L9.8 56.35 -8.9 56.35 Q-10.65 22.95 -14.95 -10.0 -15.25 -0.55 -16.65 7.05 -18.85 -35.7 -7.3 -46.9 -7.5 -50.65 -5.65 -53.35 -3.95 -55.9 -1.45 -56.25 1.15 -56.7 3.05 -54.5 5.25 -52.0 5.7 -46.9 M-5.45 -52.1 L-5.7 -51.6 -5.45 -51.1 -4.95 -50.9 -4.4 -51.1 -4.2 -51.6 -4.4 -52.1 -4.95 -52.3 -5.45 -52.1 M-2.95 -48.8 L1.2 -48.95 -2.95 -48.8" fill="url(#gradient0)" fill-rule="evenodd" stroke="none"/>
      <path d="M3.2 -52.1 Q2.95 -51.9 2.65 -51.9 2.35 -51.9 2.15 -52.1 1.9 -52.3 1.9 -52.6 L2.15 -53.1 2.65 -53.3 3.2 -53.1 3.4 -52.6 3.2 -52.1 M-5.45 -52.1 L-4.95 -52.3 -4.4 -52.1 -4.2 -51.6 -4.4 -51.1 -4.95 -50.9 -5.45 -51.1 -5.7 -51.6 -5.45 -52.1" fill="#b50b0e" fill-rule="evenodd" stroke="none"/>
      <path d="M5.7 -46.9 Q17.7 -41.95 16.95 5.45 15.0 1.9 14.55 -11.05 L9.8 56.35 -8.9 56.35 Q-10.65 22.95 -14.95 -10.0 -15.25 -0.55 -16.65 7.05 -18.85 -35.7 -7.3 -46.9 -7.5 -50.65 -5.65 -53.35 -3.95 -55.9 -1.45 -56.25 1.15 -56.7 3.05 -54.5 5.25 -52.0 5.7 -46.9" fill="none" stroke="#010101" stroke-linecap="round" stroke-linejoin="round" stroke-opacity="0.0" stroke-width="1.0"/>
      <path d="M1.2 -48.95 L-2.95 -48.8" fill="none" stroke="#b50b0e" stroke-linecap="round" stroke-linejoin="round" stroke-width="1.0"/>
    </g>
    <linearGradient gradientTransform="matrix(0.0, 0.0691, -1.0, 0.0, 100.25, 0.0)" gradientUnits="userSpaceOnUse" id="gradient0" spreadMethod="pad" x1="-819.2" x2="819.2">
      <stop offset="0.0" stop-color="#000000"/>
      <stop offset="0.8196078431372549" stop-color="#000000"/>
      <stop offset="1.0" stop-color="#000000" stop-opacity="0.0"/>
    </linearGradient>
  </defs>
</svg>
