<?xml version="1.0" encoding="UTF-8" standalone="no"?>
<svg xmlns:xlink="http://www.w3.org/1999/xlink" height="720.75px" width="1716.8px" xmlns="http://www.w3.org/2000/svg">
  <g transform="matrix(1, 0, 0, 1, 307.05, 450.35)">
    <use height="143.3" transform="matrix(1.0, 0.0, 0.0, 1.0, -91.3, -71.15)" width="183.65" xlink:href="#sprite0"/>
  </g>
  <defs>
    <g id="sprite0" transform="matrix(1, 0, 0, 1, 91.8, 71.6)">
      <use height="143.3" transform="matrix(1.0, 0.0, 0.0, 1.0, -91.8, -71.6)" width="183.65" xlink:href="#shape0"/>
    </g>
    <g id="shape0" transform="matrix(1, 0, 0, 1, 91.8, 71.6)">
      <path d="M32.55 -2.95 L38.9 3.6 Q32.6 23.55 13.05 38.05 L5.95 34.0 Q28.25 22.25 32.55 -2.95 M-51.0 3.55 L-65.7 -4.3 Q-43.1 -7.85 -26.8 -21.7 -34.55 -5.35 -51.0 3.55 M-88.85 -34.15 Q-90.8 -47.8 -84.35 -57.35 -77.05 -68.3 -54.9 -69.05 -54.0 -34.2 -88.85 -34.15" fill="#d00808" fill-rule="evenodd" stroke="none"/>
      <path d="M-29.9 -50.8 L-30.3 -51.4 Q-31.1 -52.15 -32.2 -52.15 -33.35 -52.15 -34.1 -51.4 L-34.6 -50.8 Q-34.9 -50.25 -34.85 -49.5 -34.9 -48.35 -34.1 -47.6 -33.35 -46.85 -32.2 -46.85 -31.1 -46.85 -30.3 -47.6 -29.55 -48.35 -29.55 -49.5 -29.6 -50.25 -29.9 -50.8 M-35.6 -42.95 Q-37.6 -44.9 -37.65 -47.6 -37.6 -50.8 -35.6 -52.7 -33.65 -54.75 -30.75 -54.7 -27.85 -54.75 -25.85 -52.7 -23.85 -50.7 -23.8 -47.8 -23.85 -44.95 -25.85 -42.95 -27.85 -40.95 -30.75 -40.9 -33.65 -40.95 -35.6 -42.95" fill="#000000" fill-rule="evenodd" stroke="none"/>
      <path d="M-29.9 -50.8 Q-29.6 -50.25 -29.55 -49.5 -29.55 -48.35 -30.3 -47.6 -31.1 -46.85 -32.2 -46.85 -33.35 -46.85 -34.1 -47.6 -34.9 -48.35 -34.85 -49.5 -34.9 -50.25 -34.6 -50.8 L-34.1 -51.4 Q-33.35 -52.15 -32.2 -52.15 -31.1 -52.15 -30.3 -51.4 L-29.9 -50.8 M61.75 27.45 L61.8 27.25 61.8 27.45 61.75 27.45 M61.9 27.45 L61.8 27.45 61.9 27.45" fill="#ffffff" fill-rule="evenodd" stroke="none"/>
      <path d="M5.95 34.0 L-51.0 3.55 Q-34.55 -5.35 -26.8 -21.7 -43.1 -7.85 -65.7 -4.3 L-82.05 -13.05 Q-87.45 -24.6 -88.85 -34.15 -54.0 -34.2 -54.9 -69.05 -44.05 -69.45 -29.7 -67.4 L32.55 -2.95 Q28.25 22.25 5.95 34.0 M-35.6 -42.95 Q-33.65 -40.95 -30.75 -40.9 -27.85 -40.95 -25.85 -42.95 -23.85 -44.95 -23.8 -47.8 -23.85 -50.7 -25.85 -52.7 -27.85 -54.75 -30.75 -54.7 -33.65 -54.75 -35.6 -52.7 -37.6 -50.8 -37.65 -47.6 -37.6 -44.9 -35.6 -42.95" fill="url(#gradient0)" fill-rule="evenodd" stroke="none"/>
      <path d="M38.9 3.6 L46.05 11.0 60.65 -0.3 Q59.05 12.4 61.8 27.25 L61.75 27.45 61.8 27.45 61.9 27.45 Q81.05 34.7 89.2 39.3 L68.55 40.0 66.9 42.75 Q60.3 53.75 50.85 59.2 L48.2 57.7 47.05 69.2 29.8 48.15 16.7 57.7 Q16.9 49.0 16.0 39.7 L13.05 38.05 Q32.6 23.55 38.9 3.6 M46.05 11.0 L61.8 27.25 46.05 11.0 M16.0 39.7 L28.6 46.7 16.0 39.7 M68.55 40.0 L58.55 39.65 Q49.3 29.15 47.2 24.2 56.25 27.1 61.75 27.45 56.25 27.1 47.2 24.2 49.3 29.15 58.55 39.65 L68.55 40.0 M29.8 48.15 L30.15 47.6 28.6 46.7 29.8 48.15 M30.15 47.6 L48.2 57.7 30.15 47.6" fill="url(#gradient1)" fill-rule="evenodd" stroke="none"/>
      <path d="M32.55 -2.95 L38.9 3.6 46.05 11.0 60.65 -0.3 Q59.05 12.4 61.8 27.25 L61.9 27.45 Q81.05 34.7 89.2 39.3 L68.55 40.0 66.9 42.75 Q60.3 53.75 50.85 59.2 L48.2 57.7 47.05 69.2 29.8 48.15 16.7 57.7 Q16.9 49.0 16.0 39.7 L13.05 38.05 5.95 34.0 -51.0 3.55 -65.7 -4.3 -82.05 -13.05 Q-87.45 -24.6 -88.85 -34.15 -90.8 -47.8 -84.35 -57.35 -77.05 -68.3 -54.9 -69.05 -44.05 -69.45 -29.7 -67.4 L32.55 -2.95 Q28.25 22.25 5.95 34.0 M-51.0 3.55 Q-34.55 -5.35 -26.8 -21.7 -43.1 -7.85 -65.7 -4.3 M61.75 27.45 L61.8 27.45 61.9 27.45 M61.8 27.25 L46.05 11.0 M61.75 27.45 Q56.25 27.1 47.2 24.2 49.3 29.15 58.55 39.65 L68.55 40.0 M28.6 46.7 L16.0 39.7 M30.15 47.6 L28.6 46.7 29.8 48.15 M48.2 57.7 L30.15 47.6 M38.9 3.6 Q32.6 23.55 13.05 38.05 M-88.85 -34.15 Q-54.0 -34.2 -54.9 -69.05" fill="none" stroke="#000000" stroke-linecap="round" stroke-linejoin="round" stroke-width="5.0"/>
      <path d="M-35.6 -42.95 Q-37.6 -44.9 -37.65 -47.6 -37.6 -50.8 -35.6 -52.7 -33.65 -54.75 -30.75 -54.7 -27.85 -54.75 -25.85 -52.7 -23.85 -50.7 -23.8 -47.8 -23.85 -44.95 -25.85 -42.95 -27.85 -40.95 -30.75 -40.9 -33.65 -40.95 -35.6 -42.95" fill="none" stroke="#000000" stroke-linecap="round" stroke-linejoin="round" stroke-width="3.0"/>
    </g>
    <linearGradient gradientTransform="matrix(0.0283, -0.0368, 0.7924, 0.6093, -84.4, -62.3)" gradientUnits="userSpaceOnUse" id="gradient0" spreadMethod="pad" x1="-819.2" x2="819.2">
      <stop offset="0.0" stop-color="#c8c8c8"/>
      <stop offset="1.0" stop-color="#ffffff"/>
    </linearGradient>
    <linearGradient gradientTransform="matrix(0.0283, -0.0368, 0.7924, 0.6093, -84.4, -62.3)" gradientUnits="userSpaceOnUse" id="gradient1" spreadMethod="pad" x1="-819.2" x2="819.2">
      <stop offset="0.0" stop-color="#a2a2a2"/>
      <stop offset="1.0" stop-color="#ffffff"/>
    </linearGradient>
  </defs>
</svg>
