<?xml version="1.0" encoding="UTF-8" standalone="no"?>
<svg xmlns:xlink="http://www.w3.org/1999/xlink" height="720.75px" width="1716.8px" xmlns="http://www.w3.org/2000/svg">
  <g transform="matrix(1, 0, 0, 1, 307.05, 450.35)">
    <use height="249.5" transform="matrix(1.0, 0.0, 0.0, 1.0, -207.35, -130.05)" width="428.85" xlink:href="#sprite0"/>
  </g>
  <defs>
    <g id="sprite0" transform="matrix(1, 0, 0, 1, 214.4, 124.75)">
      <use height="249.5" transform="matrix(1.0, 0.0, 0.0, 1.0, -214.4, -124.75)" width="428.85" xlink:href="#shape0"/>
    </g>
    <g id="shape0" transform="matrix(1, 0, 0, 1, 214.4, 124.75)">
      <path d="M36.55 -116.25 L63.5 -116.25 Q60.45 -118.25 58.7 -120.0 58.55 -119.45 58.5 -120.0 -2.85 -119.8 -69.95 -121.6 L-66.45 -119.95 Q-61.3 -117.3 -59.3 -115.5 L5.95 -115.75 Q22.85 -115.75 36.55 -116.25 M74.45 -116.25 L74.45 -113.75 74.45 -87.0 91.05 -86.65 91.05 -86.25 129.0 -85.8 128.4 -86.5 Q128.4 -87.75 130.9 -87.75 139.2 -87.75 177.6 -40.95 189.95 -25.9 203.2 -8.7 214.4 5.85 214.4 6.15 L214.4 6.25 214.4 7.75 214.3 7.85 214.15 8.75 213.7 9.0 213.3 9.15 Q214.1 11.7 214.35 15.4 L214.45 24.75 214.45 39.75 Q214.45 41.35 213.95 42.0 L206.45 42.3 206.45 124.75 201.6 124.75 201.45 123.6 Q-105.6 123.15 -140.65 122.15 L-140.65 123.35 Q-140.4 124.1 -142.9 124.1 -151.3 124.1 -182.9 93.25 -194.75 81.7 -204.15 71.2 L-207.4 67.55 -207.4 18.25 Q-207.95 -4.2 -207.9 -17.65 -207.8 -37.05 -206.05 -41.45 L-211.6 -46.75 Q-214.0 -49.1 -214.3 -52.5 L-214.4 -68.4 -214.35 -79.25 -213.9 -83.9 -214.4 -84.65 -214.4 -84.75 -214.4 -86.25 -214.25 -86.35 -214.15 -87.25 -213.7 -87.5 -211.9 -87.75 -211.15 -87.5 -76.55 -87.7 -76.35 -99.0 Q-76.0 -115.65 -74.5 -118.25 -75.4 -119.5 -75.4 -120.5 L-75.3 -121.75 -75.4 -121.75 -75.4 -123.25 -73.9 -124.5 -7.05 -124.75 Q53.05 -124.3 60.05 -123.65 L61.1 -123.7 61.2 -123.9 61.35 -123.7 62.45 -123.75 Q67.2 -123.75 70.25 -120.5 72.45 -118.1 72.45 -116.4 L72.45 -116.25 74.45 -116.25 M26.55 -19.35 L-21.35 -20.55 Q-21.4 -19.05 -21.8 -16.0 L28.2 -15.75 Q26.8 -17.95 26.55 -19.35 M-81.95 -50.75 L-85.55 -50.75 -92.95 -50.85 -94.05 -50.75 -95.25 -51.0 Q-97.0 -51.2 -97.3 -51.45 -97.55 -51.65 -97.15 -52.35 -99.8 -54.9 -103.0 -61.35 -107.55 -70.55 -107.55 -72.25 L-107.5 -72.75 -107.55 -72.75 -107.55 -74.25 -106.95 -74.35 -106.6 -74.8 -106.75 -75.25 -105.8 -75.4 -105.05 -75.75 -104.9 -75.5 -90.55 -75.75 -76.75 -75.25 -76.65 -83.0 Q-153.4 -83.45 -153.95 -84.0 L-154.2 -83.6 -154.4 -84.05 -209.4 -84.65 -196.75 -68.35 Q-180.1 -47.3 -172.9 -40.0 -151.85 -18.75 -131.45 4.5 L10.45 4.25 Q153.2 4.75 153.95 5.5 L154.2 5.1 154.4 5.55 209.45 6.2 196.75 -10.15 Q180.1 -31.2 172.9 -38.5 151.85 -59.75 131.45 -83.0 L74.45 -82.9 74.45 -20.75 73.2 -19.25 44.45 -18.75 33.35 -19.15 Q34.7 -17.1 35.45 -13.4 35.45 -10.85 34.5 -10.25 L29.95 -9.75 0.65 -10.6 -27.3 -12.0 -27.55 -15.0 Q-27.55 -16.75 -26.85 -19.6 L-26.55 -20.65 -34.7 -20.8 Q-33.55 -22.9 -32.9 -26.0 L15.7 -24.25 69.45 -24.25 69.45 -110.5 -58.55 -110.5 -58.55 -110.25 Q-59.8 -110.25 -59.6 -87.75 L-59.55 -82.95 -59.5 -78.65 -58.55 -26.25 -52.4 -26.2 Q-54.35 -23.25 -56.95 -21.15 L-62.55 -21.25 Q-63.15 -21.85 -63.4 -22.8 -64.8 -23.2 -69.0 -26.7 -73.5 -30.4 -74.4 -31.75 L-74.3 -31.9 Q-75.85 -32.55 -76.25 -33.75 L-76.4 -36.0 -76.15 -37.65 -77.35 -40.0 -77.35 -40.45 -77.65 -41.0 -77.65 -43.55 -77.65 -49.6 -77.65 -50.85 -78.4 -50.8 -78.55 -51.0 -78.9 -51.0 -82.05 -51.15 -81.95 -50.75 M-46.75 -21.0 L-52.0 -21.1 Q-50.25 -23.3 -48.9 -26.15 L-35.4 -26.0 Q-36.25 -22.5 -37.9 -20.85 L-43.5 -20.95 -43.9 -21.45 Q-45.45 -23.5 -45.9 -23.5 L-47.1 -22.95 -47.15 -22.0 -46.75 -21.0 M-135.15 -46.95 L-138.4 -46.75 Q-149.2 -46.75 -152.85 -55.4 -154.0 -58.15 -154.35 -61.45 L-154.4 -64.4 Q-154.4 -70.8 -153.4 -73.0 -150.75 -78.75 -141.4 -78.75 -130.9 -78.75 -127.15 -71.0 -125.4 -67.3 -125.4 -62.0 -125.4 -55.75 -126.65 -52.95 -128.3 -49.25 -132.1 -47.75 L-132.4 -48.25 Q-133.3 -47.5 -135.15 -47.5 L-135.15 -46.95 M209.15 14.0 Q209.15 10.9 209.85 9.0 L60.55 9.25 Q-75.85 8.8 -91.05 8.15 L-91.05 7.8 -129.0 7.3 -128.4 8.0 Q-128.4 9.25 -130.9 9.25 -132.5 9.25 -135.3 7.5 -134.65 9.8 -134.45 14.55 -134.2 19.2 -134.4 24.1 L-134.5 38.5 Q209.45 37.75 209.45 37.0 L209.45 23.5 Q209.15 17.45 209.15 14.0 M201.05 50.65 Q201.1 45.85 202.1 42.4 168.35 42.9 38.45 43.25 L-50.0 42.9 Q-122.35 42.5 -134.6 42.15 L-134.65 42.5 Q-134.4 43.25 -136.9 43.25 -137.95 43.25 -141.35 39.85 -140.8 45.2 -140.55 55.75 L-140.3 55.75 -140.3 61.2 -140.3 64.2 -140.3 65.75 -140.35 65.75 -140.4 69.0 -140.6 118.3 Q-110.25 118.05 201.45 117.6 L201.45 63.5 201.05 50.65 M-209.25 -75.2 L-209.4 -57.25 Q-208.7 -51.55 -201.4 -42.1 L-188.65 -26.5 Q-161.1 9.6 -139.9 34.25 L-139.4 34.25 -139.4 6.5 -139.0 5.9 -138.15 5.4 Q-150.25 -4.2 -177.6 -37.55 -189.95 -52.6 -203.2 -69.8 L-209.25 -77.7 -209.25 -75.2 M-202.45 -37.9 L-203.6 -39.05 Q-202.6 -32.05 -202.35 -11.7 -202.15 3.85 -202.4 19.6 L-202.4 51.5 -202.45 55.75 -202.05 55.75 -202.0 57.25 -202.15 59.75 -202.25 61.7 -202.05 65.75 -202.55 65.75 Q-192.85 76.65 -177.8 89.9 -161.0 104.7 -145.4 115.6 L-145.4 35.6 -157.0 21.95 Q-173.65 1.6 -183.15 -12.5 -194.0 -28.6 -202.45 -37.9 M-71.4 -115.25 L-72.4 -116.1 -72.25 -115.2 Q-71.0 -108.25 -71.2 -87.7 L-71.25 -83.0 -71.4 -77.0 -71.6 -37.8 -71.4 -35.9 -71.4 -34.7 -70.9 -34.75 Q-68.1 -34.75 -64.35 -30.8 L-63.55 -29.9 -63.55 -30.8 -63.55 -111.25 -63.5 -111.8 Q-67.5 -112.15 -71.4 -115.25 M-91.7 -55.3 L-85.55 -55.75 -77.1 -55.25 -76.85 -71.25 -77.15 -71.25 -103.2 -72.5 -98.15 -64.45 Q-94.45 -58.7 -92.65 -55.15 L-91.7 -55.3 M-147.65 -58.2 Q-144.8 -52.25 -139.05 -52.25 -131.75 -52.25 -130.35 -57.0 -129.9 -58.5 -130.1 -60.35 L-130.4 -62.0 Q-130.4 -66.7 -131.85 -68.7 -135.1 -73.25 -145.65 -73.25 -147.05 -73.25 -148.35 -69.25 -149.4 -66.1 -149.4 -65.0 -149.4 -61.9 -147.65 -58.2" fill="#000000" fill-rule="evenodd" stroke="none"/>
      <path d="M6.2 -76.7 L6.2 -76.3 6.0 -76.5 6.2 -76.7 M-34.7 -20.8 L-26.55 -20.65 -26.85 -19.6 Q-27.55 -16.75 -27.55 -15.0 L-27.3 -12.0 0.65 -10.6 29.95 -9.75 34.5 -10.25 Q35.45 -10.85 35.45 -13.4 34.7 -17.1 33.35 -19.15 L44.45 -18.75 73.2 -19.25 74.45 -20.75 74.45 -82.9 131.45 -83.0 Q151.85 -59.75 172.9 -38.5 180.1 -31.2 196.75 -10.15 L209.45 6.2 154.4 5.55 154.2 5.1 153.95 5.5 Q153.2 4.75 10.45 4.25 L-131.45 4.5 Q-151.85 -18.75 -172.9 -40.0 -180.1 -47.3 -196.75 -68.35 L-209.4 -84.65 -154.4 -84.05 -154.2 -83.6 -153.95 -84.0 Q-153.4 -83.45 -76.65 -83.0 L-76.75 -75.25 -90.55 -75.75 -104.9 -75.5 -105.05 -75.75 -105.8 -75.4 -106.75 -75.25 -106.6 -74.8 -106.95 -74.35 -107.55 -74.25 -107.55 -72.75 -107.5 -72.75 -107.55 -72.25 Q-107.55 -70.55 -103.0 -61.35 -99.8 -54.9 -97.15 -52.35 -97.55 -51.65 -97.3 -51.45 -97.0 -51.2 -95.25 -51.0 L-94.05 -50.75 -92.95 -50.85 -85.55 -50.75 -81.95 -50.75 Q-81.65 -49.35 -80.65 -47.25 -79.35 -44.55 -77.65 -43.55 L-77.65 -41.0 -77.35 -40.45 -77.35 -40.0 -76.15 -37.65 -76.4 -36.0 -76.25 -33.75 Q-75.85 -32.55 -74.3 -31.9 L-74.4 -31.75 Q-73.5 -30.4 -69.0 -26.7 -64.8 -23.2 -63.4 -22.8 -63.15 -21.85 -62.55 -21.25 L-56.95 -21.15 Q-63.3 -16.2 -73.65 -16.2 -79.95 -16.2 -86.6 -23.7 -92.75 -31.9 -94.9 -33.2 -99.75 -36.15 -104.55 -36.5 L-112.3 -35.9 Q-116.8 -35.25 -119.65 -35.95 -123.8 -37.0 -128.15 -41.25 L-132.1 -47.75 Q-128.3 -49.25 -126.65 -52.95 -125.4 -55.75 -125.4 -62.0 -125.4 -67.3 -127.15 -71.0 -130.9 -78.75 -141.4 -78.75 -150.75 -78.75 -153.4 -73.0 -154.4 -70.8 -154.4 -64.4 L-154.35 -61.45 Q-154.0 -58.15 -152.85 -55.4 -149.2 -46.75 -138.4 -46.75 L-135.15 -46.95 Q-132.25 -40.75 -128.4 -38.0 -125.05 -35.7 -120.35 -33.95 -117.9 -33.0 -107.7 -32.45 -97.9 -31.95 -94.9 -30.45 -94.4 -30.2 -92.45 -27.35 -90.0 -23.75 -87.95 -21.55 -80.35 -13.5 -69.65 -13.5 -58.05 -13.5 -52.0 -21.1 L-46.75 -21.0 -45.6 -19.2 Q-43.65 -16.5 -41.65 -16.5 -37.05 -16.5 -34.7 -20.8 M-78.4 -50.8 L-77.65 -50.85 -77.65 -49.6 -78.4 -50.8 M-64.35 -30.8 L-63.55 -30.8 -63.55 -29.9 -64.35 -30.8 M-37.9 -20.85 Q-39.35 -19.45 -41.4 -19.45 -42.2 -19.45 -43.5 -20.95 L-37.9 -20.85" fill="#af921d" fill-rule="evenodd" stroke="none"/>
      <path d="M-202.45 -37.9 Q-194.0 -28.6 -183.15 -12.5 -173.65 1.6 -157.0 21.95 L-145.4 35.6 -145.4 115.6 Q-161.0 104.7 -177.8 89.9 -192.85 76.65 -202.55 65.75 L-202.05 65.75 -202.25 61.7 -202.15 59.75 -202.0 57.25 -202.05 55.75 -202.45 55.75 -202.4 51.5 -202.4 19.6 Q-202.15 3.85 -202.35 -11.7 -202.6 -32.05 -203.6 -39.05 L-202.45 -37.9 M-209.25 -75.2 L-209.25 -77.7 -203.2 -69.8 Q-189.95 -52.6 -177.6 -37.55 -150.25 -4.2 -138.15 5.4 L-139.0 5.9 -139.4 6.5 -139.4 34.25 -139.9 34.25 Q-161.1 9.6 -188.65 -26.5 L-201.4 -42.1 Q-208.7 -51.55 -209.4 -57.25 L-209.25 -75.2" fill="#8a7317" fill-rule="evenodd" stroke="none"/>
      <path d="M201.05 50.65 L201.45 63.5 201.45 117.6 Q-110.25 118.05 -140.6 118.3 L-140.4 69.0 -140.35 65.75 -140.3 65.75 -140.3 64.2 -140.3 61.2 -140.3 55.75 -140.55 55.75 Q-140.8 45.2 -141.35 39.85 -137.95 43.25 -136.9 43.25 -134.4 43.25 -134.65 42.5 L-134.6 42.15 Q-122.35 42.5 -50.0 42.9 L38.45 43.25 Q168.35 42.9 202.1 42.4 201.1 45.85 201.05 50.65 M209.15 14.0 Q209.15 17.45 209.45 23.5 L209.45 37.0 Q209.45 37.75 -134.5 38.5 L-134.4 24.1 Q-134.2 19.2 -134.45 14.55 -134.65 9.8 -135.3 7.5 -132.5 9.25 -130.9 9.25 -128.4 9.25 -128.4 8.0 L-129.0 7.3 -91.05 7.8 -91.05 8.15 Q-75.85 8.8 60.55 9.25 L209.85 9.0 Q209.15 10.9 209.15 14.0" fill="#987e1b" fill-rule="evenodd" stroke="none"/>
      <path d="M36.55 -116.25 Q22.85 -115.75 5.95 -115.75 L-59.3 -115.5 Q-61.3 -117.3 -66.45 -119.95 L-69.95 -121.6 Q-2.85 -119.8 58.5 -120.0 58.55 -119.45 58.7 -120.0 60.45 -118.25 63.5 -116.25 L36.55 -116.25 M-147.65 -58.2 Q-149.4 -61.9 -149.4 -65.0 -149.4 -66.1 -148.35 -69.25 -147.05 -73.25 -145.65 -73.25 -135.1 -73.25 -131.85 -68.7 -130.4 -66.7 -130.4 -62.0 L-130.1 -60.35 Q-129.9 -58.5 -130.35 -57.0 -131.75 -52.25 -139.05 -52.25 -144.8 -52.25 -147.65 -58.2 M-91.7 -55.3 L-92.65 -55.15 Q-94.45 -58.7 -98.15 -64.45 L-103.2 -72.5 -77.15 -71.25 -76.85 -71.25 -77.1 -55.25 -85.55 -55.75 -91.7 -55.3" fill="#f7f7f7" fill-rule="evenodd" stroke="none"/>
      <path d="M6.0 -76.5 Q1.5 -81.15 -3.0 -82.75 -5.4 -83.6 -7.8 -83.6 -8.6 -83.6 -8.9 -82.75 L-9.05 -82.1 -9.05 -80.0 Q-9.05 -76.75 -5.95 -72.1 -3.05 -67.8 0.35 -66.85 -4.05 -63.95 -5.65 -61.3 -7.05 -58.95 -7.05 -54.7 L-7.05 -51.0 -6.3 -50.85 Q-5.45 -50.85 -2.8 -51.9 0.2 -53.1 2.95 -54.75 8.45 -58.05 10.05 -61.3 11.6 -58.05 17.15 -54.75 19.9 -53.1 22.9 -51.9 25.5 -50.85 26.4 -50.85 L27.1 -51.0 27.15 -54.7 Q27.15 -58.95 25.7 -61.3 24.1 -63.95 19.7 -66.85 23.1 -67.8 26.0 -72.1 29.15 -76.75 29.15 -80.0 L29.15 -82.1 28.95 -82.8 Q28.65 -83.6 27.9 -83.6 25.55 -83.6 23.25 -82.8 18.45 -81.15 13.7 -76.05 L13.45 -76.1 Q13.25 -76.1 12.5 -76.6 L10.8 -77.1 Q10.0 -77.1 9.3 -76.25 L8.55 -75.35 8.2 -75.5 Q7.8 -76.85 6.95 -76.85 L6.2 -76.7 6.0 -76.5 M10.95 -69.4 L10.95 -67.75 10.35 -67.4 Q10.1 -67.65 9.35 -69.35 L8.2 -69.25 7.95 -68.45 10.5 -66.0 Q12.8 -66.0 13.2 -66.75 13.45 -67.15 13.2 -67.7 13.1 -72.25 9.65 -72.25 7.45 -72.25 6.1 -70.25 5.2 -68.85 5.2 -67.95 5.2 -66.65 6.55 -65.2 8.4 -63.25 11.75 -63.25 14.2 -63.25 15.35 -64.65 L16.85 -66.4 Q17.45 -66.05 17.45 -65.7 17.45 -64.6 15.6 -63.25 13.7 -61.9 11.95 -61.9 7.3 -61.9 5.2 -64.75 3.95 -66.4 3.95 -67.9 3.95 -69.65 5.35 -71.45 7.1 -73.65 9.6 -73.65 14.75 -73.65 14.45 -67.75 L14.45 -66.0 Q14.0 -64.65 11.7 -64.65 9.4 -64.65 7.85 -66.4 6.7 -67.65 6.7 -68.25 6.7 -70.65 8.85 -70.65 10.4 -70.65 10.75 -70.2 L10.95 -69.4 M26.55 -19.35 Q26.8 -17.95 28.2 -15.75 L-21.8 -16.0 Q-21.4 -19.05 -21.35 -20.55 L26.55 -19.35 M-52.4 -26.2 L-58.55 -26.25 -59.5 -78.65 -59.55 -82.95 -59.6 -87.75 Q-59.8 -110.25 -58.55 -110.25 L-58.55 -110.5 69.45 -110.5 69.45 -24.25 15.7 -24.25 -32.9 -26.0 Q-32.15 -29.75 -32.15 -34.95 -32.15 -38.5 -32.65 -39.8 -32.95 -40.6 -34.1 -41.55 -37.35 -44.2 -40.15 -52.5 -42.0 -58.95 -43.4 -62.8 -45.95 -70.0 -47.9 -70.0 L-48.05 -69.95 -48.4 -70.0 -49.65 -69.7 -49.6 -68.2 -48.75 -67.6 Q-48.05 -64.55 -46.6 -60.8 L-43.35 -52.45 Q-40.5 -44.6 -36.9 -41.7 -35.6 -40.6 -35.2 -39.75 -34.65 -38.4 -34.65 -35.0 L-35.15 -27.15 -35.4 -26.0 -48.9 -26.15 -47.6 -29.65 Q-45.65 -35.75 -45.65 -48.4 -45.3 -53.5 -46.9 -53.5 L-48.15 -53.2 -48.1 -52.9 -49.15 -52.7 -49.1 -51.2 -47.9 -50.5 -47.85 -50.5 Q-46.55 -36.6 -51.45 -27.75 L-52.4 -26.2 M-49.65 -85.2 L-49.6 -83.7 -48.4 -83.0 Q-47.15 -83.7 -47.15 -84.5 -47.7 -85.5 -48.4 -85.5 L-49.65 -85.2" fill="#eeeeee" fill-rule="evenodd" stroke="none"/>
      <path d="M-72.25 -115.2 L-71.4 -115.25 Q-67.5 -112.15 -63.5 -111.8 L-63.55 -111.25 -63.55 -30.8 -64.35 -30.8 Q-68.1 -34.75 -70.9 -34.75 L-71.4 -34.7 -71.4 -35.9 -71.6 -37.8 -71.4 -77.0 -71.25 -83.0 -71.2 -87.7 Q-71.0 -108.25 -72.25 -115.2" fill="#dddddd" fill-rule="evenodd" stroke="none"/>
      <path d="M-81.95 -50.75 L-82.05 -51.15 -78.9 -51.0 -78.55 -51.0 -78.4 -50.8 -77.65 -49.6 -77.65 -43.55 Q-79.35 -44.55 -80.65 -47.25 -81.65 -49.35 -81.95 -50.75 M-56.95 -21.15 Q-54.35 -23.25 -52.4 -26.2 L-51.45 -27.75 Q-46.55 -36.6 -47.85 -50.5 L-48.1 -52.9 -48.15 -53.2 -46.9 -53.5 Q-45.3 -53.5 -45.65 -48.4 -45.65 -35.75 -47.6 -29.65 L-48.9 -26.15 Q-50.25 -23.3 -52.0 -21.1 -58.05 -13.5 -69.65 -13.5 -80.35 -13.5 -87.95 -21.55 -90.0 -23.75 -92.45 -27.35 -94.4 -30.2 -94.9 -30.45 -97.9 -31.95 -107.7 -32.45 -117.9 -33.0 -120.35 -33.95 -125.05 -35.7 -128.4 -38.0 -132.25 -40.75 -135.15 -46.95 L-135.15 -47.5 Q-133.3 -47.5 -132.4 -48.25 L-132.1 -47.75 -128.15 -41.25 Q-123.8 -37.0 -119.65 -35.95 -116.8 -35.25 -112.3 -35.9 L-104.55 -36.5 Q-99.75 -36.15 -94.9 -33.2 -92.75 -31.9 -86.6 -23.7 -79.95 -16.2 -73.65 -16.2 -63.3 -16.2 -56.95 -21.15 M-32.9 -26.0 Q-33.55 -22.9 -34.7 -20.8 -37.05 -16.5 -41.65 -16.5 -43.65 -16.5 -45.6 -19.2 L-46.75 -21.0 -47.15 -22.0 -47.1 -22.95 -45.9 -23.5 Q-45.45 -23.5 -43.9 -21.45 L-43.5 -20.95 Q-42.2 -19.45 -41.4 -19.45 -39.35 -19.45 -37.9 -20.85 -36.25 -22.5 -35.4 -26.0 L-35.15 -27.15 -34.65 -35.0 Q-34.65 -38.4 -35.2 -39.75 -35.6 -40.6 -36.9 -41.7 -40.5 -44.6 -43.35 -52.45 L-46.6 -60.8 Q-48.05 -64.55 -48.75 -67.6 L-49.15 -69.7 -48.05 -69.95 -47.9 -70.0 Q-45.95 -70.0 -43.4 -62.8 -42.0 -58.95 -40.15 -52.5 -37.35 -44.2 -34.1 -41.55 -32.95 -40.6 -32.65 -39.8 -32.15 -38.5 -32.15 -34.95 -32.15 -29.75 -32.9 -26.0" fill="#b3b3b3" fill-rule="evenodd" stroke="none"/>
      <path d="M-49.65 -85.2 L-48.4 -85.5 Q-47.7 -85.5 -47.15 -84.5 -47.15 -83.7 -48.4 -83.0 L-49.6 -83.7 -49.65 -85.2 M-48.75 -67.6 L-49.6 -68.2 -49.65 -69.7 -48.4 -70.0 -48.05 -69.95 -49.15 -69.7 -48.75 -67.6 M-47.85 -50.5 L-47.9 -50.5 -49.1 -51.2 -49.15 -52.7 -48.1 -52.9 -47.85 -50.5" fill="#bbbbbb" fill-rule="evenodd" stroke="none"/>
      <path d="M6.2 -76.7 L6.95 -76.85 Q7.8 -76.85 8.2 -75.5 L8.55 -75.35 9.3 -76.25 Q10.0 -77.1 10.8 -77.1 L12.5 -76.6 Q13.25 -76.1 13.45 -76.1 L13.7 -76.05 Q18.45 -81.15 23.25 -82.8 25.55 -83.6 27.9 -83.6 28.65 -83.6 28.95 -82.8 L29.15 -82.1 29.15 -80.0 Q29.15 -76.75 26.0 -72.1 23.1 -67.8 19.7 -66.85 24.1 -63.95 25.7 -61.3 27.15 -58.95 27.15 -54.7 L27.1 -51.0 26.4 -50.85 Q25.5 -50.85 22.9 -51.9 19.9 -53.1 17.15 -54.75 11.6 -58.05 10.05 -61.3 8.45 -58.05 2.95 -54.75 0.2 -53.1 -2.8 -51.9 -5.45 -50.85 -6.3 -50.85 L-7.05 -51.0 -7.05 -54.7 Q-7.05 -58.95 -5.65 -61.3 -4.05 -63.95 0.35 -66.85 -3.05 -67.8 -5.95 -72.1 -9.05 -76.75 -9.05 -80.0 L-9.05 -82.1 -8.9 -82.75 Q-8.6 -83.6 -7.8 -83.6 -5.4 -83.6 -3.0 -82.75 1.5 -81.15 6.0 -76.5 L6.2 -76.3 6.2 -76.7 M10.95 -69.4 L10.75 -70.2 Q10.4 -70.65 8.85 -70.65 6.7 -70.65 6.7 -68.25 6.7 -67.65 7.85 -66.4 9.4 -64.65 11.7 -64.65 14.0 -64.65 14.45 -66.0 L14.45 -67.75 Q14.75 -73.65 9.6 -73.65 7.1 -73.65 5.35 -71.45 3.95 -69.65 3.95 -67.9 3.95 -66.4 5.2 -64.75 7.3 -61.9 11.95 -61.9 13.7 -61.9 15.6 -63.25 17.45 -64.6 17.45 -65.7 17.45 -66.05 16.85 -66.4 L15.35 -64.65 Q14.2 -63.25 11.75 -63.25 8.4 -63.25 6.55 -65.2 5.2 -66.65 5.2 -67.95 5.2 -68.85 6.1 -70.25 7.45 -72.25 9.65 -72.25 13.1 -72.25 13.2 -67.7 13.45 -67.15 13.2 -66.75 12.8 -66.0 10.5 -66.0 L7.95 -68.45 8.2 -69.25 9.35 -69.35 Q10.1 -67.65 10.35 -67.4 L10.95 -67.75 10.95 -69.4" fill="#d9d9d9" fill-rule="evenodd" stroke="none"/>
      <path d="M-0.55 -58.45 Q-2.35 -50.15 -3.9 -50.15 -6.75 -51.0 -7.05 -52.75 L-6.4 -52.9 -5.65 -52.45 Q-5.05 -52.0 -4.25 -52.0 -3.75 -52.0 -3.0 -54.5 -3.55 -54.8 -4.05 -56.0 L-4.55 -57.7 Q-4.55 -58.65 -3.9 -59.15 L-2.55 -56.1 Q-1.6 -59.4 -1.15 -59.4 -0.55 -59.4 -0.55 -58.45 M0.6 -59.15 Q1.3 -59.15 1.35 -57.95 L1.2 -56.25 Q2.55 -56.6 2.5 -57.9 2.4 -59.2 3.1 -59.4 3.7 -58.9 3.7 -57.2 L3.7 -55.75 Q3.45 -54.9 1.85 -54.9 0.1 -54.9 -0.05 -55.4 L-0.05 -59.0 0.6 -59.15 M10.35 -57.95 L10.2 -56.25 Q11.55 -56.6 11.5 -57.9 11.4 -59.2 12.1 -59.4 12.7 -58.9 12.7 -57.2 L12.7 -55.75 Q12.45 -54.9 10.85 -54.9 9.1 -54.9 8.95 -55.4 L8.95 -59.0 9.6 -59.15 Q10.3 -59.15 10.35 -57.95 M5.1 -59.15 L6.45 -56.1 Q7.4 -59.4 7.85 -59.4 8.45 -59.4 8.45 -58.45 6.65 -50.15 5.1 -50.15 2.25 -51.0 1.95 -52.75 L2.6 -52.9 3.35 -52.45 Q3.95 -52.0 4.75 -52.0 5.25 -52.0 6.0 -54.5 5.45 -54.8 4.95 -56.0 4.45 -57.25 4.45 -57.7 4.45 -58.65 5.1 -59.15 M23.1 -56.85 L22.6 -56.1 24.2 -56.0 24.2 -56.75 23.1 -56.85 M23.1 -58.65 Q25.45 -58.65 25.45 -56.25 L25.45 -55.35 Q25.15 -54.65 23.45 -54.65 21.8 -54.65 21.35 -55.35 L21.2 -56.1 Q21.2 -56.55 21.95 -57.6 22.75 -58.65 23.1 -58.65 M17.6 -57.95 Q18.05 -58.7 19.95 -58.65 L20.85 -58.5 20.95 -58.1 Q20.95 -57.3 18.7 -57.0 L18.4 -55.95 Q18.6 -55.35 21.1 -55.5 L21.2 -54.95 Q21.2 -54.15 19.6 -54.15 17.8 -54.15 17.45 -55.3 L17.45 -56.5 Q17.45 -57.7 17.6 -57.95 M26.45 -55.1 Q26.45 -55.5 27.1 -55.65 L27.7 -55.15 27.5 -54.6 Q27.7 -54.4 27.1 -54.4 26.8 -54.4 26.5 -54.75 L26.45 -55.1" fill="#b3b3b3" fill-rule="evenodd" stroke="none"/>
    </g>
  </defs>
</svg>
