<?xml version="1.0" encoding="UTF-8" standalone="no"?>
<svg xmlns:xlink="http://www.w3.org/1999/xlink" height="720.75px" width="1716.8px" xmlns="http://www.w3.org/2000/svg">
  <g transform="matrix(1, 0, 0, 1, 307.05, 450.35)">
    <use height="384.0" transform="matrix(1.0, 0.0, 0.0, 1.0, -174.65, -270.85)" width="326.8" xlink:href="#sprite0"/>
  </g>
  <defs>
    <g id="sprite0" transform="matrix(1, 0, 0, 1, 197.75, 374.5)">
      <use height="384.0" transform="matrix(1.0, 0.0, 0.0, 1.0, -197.75, -374.5)" width="326.8" xlink:href="#shape0"/>
    </g>
    <g id="shape0" transform="matrix(1, 0, 0, 1, 197.75, 374.5)">
      <path d="M8.75 -102.8 L9.35 -103.1 11.5 -103.5 15.05 -103.45 Q32.5 -103.2 44.9 -100.1 L53.8 -97.8 Q58.35 -96.75 62.5 -96.75 66.9 -96.75 82.95 -107.1 L103.5 -121.0 Q91.15 -124.95 76.3 -128.35 60.3 -132.0 54.25 -132.0 51.35 -132.0 27.25 -121.75 L8.7 -113.75 3.5 -111.5 2.85 -111.5 1.9 -111.65 1.5 -111.8 1.45 -111.85 0.75 -112.75 Q0.5 -111.75 0.5 -114.25 L0.8 -114.55 1.6 -115.1 4.05 -116.5 4.7 -116.8 20.4 -124.3 21.2 -124.7 24.55 -126.25 Q49.15 -137.5 53.5 -137.5 56.45 -137.5 64.35 -134.35 73.15 -130.85 76.75 -130.25 L100.95 -127.05 Q114.5 -125.25 114.5 -124.15 114.5 -122.0 90.55 -106.75 66.65 -91.5 63.5 -91.5 61.45 -91.5 54.0 -93.15 L41.5 -95.75 16.4 -99.6 16.35 -99.6 16.15 -99.6 12.1 -100.1 11.0 -100.2 8.5 -100.5 8.5 -102.75 8.75 -102.8 M16.5 -64.15 L18.5 -64.5 20.3 -63.4 29.35 -57.3 Q40.8 -49.45 44.5 -46.0 L63.75 -26.75 Q78.95 -26.75 86.25 -30.05 L94.05 -33.5 Q100.0 -35.75 109.0 -37.5 L109.5 -38.0 Q88.6 -59.9 77.75 -68.75 71.2 -74.1 49.3 -77.65 L31.45 -80.45 28.15 -81.0 20.3 -82.55 16.05 -83.65 15.75 -83.75 Q15.5 -82.75 15.5 -85.25 15.5 -86.95 16.3 -87.3 L19.0 -87.5 Q23.6 -87.5 59.0 -79.5 64.15 -78.4 72.2 -75.45 82.2 -71.8 85.0 -69.0 L105.05 -49.75 Q117.5 -37.8 117.5 -37.25 72.6 -21.5 66.0 -21.5 31.0 -47.5 15.5 -61.5 L15.5 -63.75 16.35 -64.1 16.5 -64.15 M-22.7 -108.7 L-26.9 -110.65 -43.35 -118.75 Q-63.9 -129.0 -68.25 -129.0 -73.05 -129.0 -100.05 -124.9 -128.8 -120.55 -137.35 -118.0 L-115.95 -103.4 Q-100.25 -92.75 -96.85 -92.75 -51.8 -100.35 -41.4 -100.5 L-41.0 -100.5 Q-34.8 -100.5 -34.5 -98.35 L-34.5 -98.15 Q-34.5 -96.75 -66.8 -92.0 L-99.35 -87.5 Q-110.1 -87.5 -147.35 -121.0 -147.35 -123.3 -133.1 -125.3 L-104.35 -128.75 Q-73.6 -134.5 -68.0 -134.5 -65.55 -134.5 -52.4 -128.55 L-38.5 -122.0 Q-31.9 -119.3 -27.95 -117.3 -20.65 -113.5 -19.5 -109.75 -19.5 -108.5 -22.0 -108.5 L-22.05 -108.5 -22.7 -108.7 M-41.95 -86.4 Q-42.95 -84.35 -46.3 -81.8 L-48.0 -80.6 -48.25 -80.45 Q-51.1 -78.6 -63.65 -71.7 -74.6 -65.7 -80.15 -61.45 -88.3 -55.2 -90.35 -49.25 -92.6 -42.8 -99.05 -27.45 L-102.4 -19.55 -102.55 -19.15 -102.05 -19.4 Q-97.8 -21.3 -85.75 -25.5 -61.25 -34.15 -59.5 -38.0 -56.35 -44.8 -49.25 -54.5 L-41.6 -64.3 -38.5 -67.95 -38.0 -68.5 Q-35.5 -65.65 -35.5 -63.5 -35.5 -61.6 -45.1 -48.75 L-56.25 -33.5 Q-61.05 -24.45 -106.15 -11.7 L-106.35 -11.5 -106.65 -11.55 -106.85 -11.5 -107.4 -11.7 -109.1 -12.0 Q-109.35 -11.75 -109.35 -14.05 L-109.35 -14.25 Q-109.35 -20.85 -103.95 -35.0 -99.35 -47.05 -95.35 -54.0 -92.35 -59.2 -68.0 -75.35 -45.2 -90.5 -44.0 -90.5 -42.5 -90.5 -42.35 -90.15 L-42.0 -89.25 -41.75 -89.65 Q-41.5 -89.7 -41.5 -88.15 L-41.5 -87.8 -41.95 -86.4" fill="#000000" fill-rule="evenodd" stroke="none"/>
      <path d="M2.85 -111.5 L3.5 -111.5 8.7 -113.75 27.25 -121.75 Q51.35 -132.0 54.25 -132.0 60.3 -132.0 76.3 -128.35 91.15 -124.95 103.5 -121.0 L82.95 -107.1 Q66.9 -96.75 62.5 -96.75 58.35 -96.75 53.8 -97.8 L44.9 -100.1 Q32.5 -103.2 15.05 -103.45 L11.5 -103.5 9.35 -103.1 8.75 -102.8 Q6.3 -106.0 2.85 -111.5 M11.0 -100.2 L12.1 -100.1 16.15 -99.6 16.0 -99.5 15.5 -98.8 Q15.1 -98.5 13.5 -98.5 12.6 -98.5 11.0 -100.2 M4.05 -116.5 L1.6 -115.1 1.8 -116.0 Q2.2 -116.5 4.0 -116.5 L4.05 -116.5 M16.05 -83.65 L20.3 -82.55 28.15 -81.0 31.45 -80.45 49.3 -77.65 Q71.2 -74.1 77.75 -68.75 88.6 -59.9 109.5 -38.0 L109.0 -37.5 Q100.0 -35.75 94.05 -33.5 L86.25 -30.05 Q78.95 -26.75 63.75 -26.75 L44.5 -46.0 Q40.8 -49.45 29.35 -57.3 L20.3 -63.4 18.5 -64.5 16.5 -64.15 Q15.5 -67.35 15.5 -73.65 15.3 -78.15 15.5 -80.75 15.65 -82.55 16.05 -83.65 M-34.5 -98.35 Q-34.8 -100.5 -41.0 -100.5 L-41.4 -100.5 Q-51.8 -100.35 -96.85 -92.75 -100.25 -92.75 -115.95 -103.4 L-137.35 -118.0 Q-128.8 -120.55 -100.05 -124.9 -73.05 -129.0 -68.25 -129.0 -63.9 -129.0 -43.35 -118.75 L-26.9 -110.65 -22.7 -108.7 Q-23.65 -106.4 -28.05 -102.55 -31.5 -99.55 -34.5 -98.35 M-102.4 -19.55 L-99.05 -27.45 Q-92.6 -42.8 -90.35 -49.25 -88.3 -55.2 -80.15 -61.45 -74.6 -65.7 -63.65 -71.7 -51.1 -78.6 -48.25 -80.45 L-48.0 -80.6 -46.3 -81.8 Q-42.95 -84.35 -41.95 -86.4 -40.3 -84.15 -39.8 -80.6 L-38.5 -71.5 -38.5 -67.95 -41.6 -64.3 -49.25 -54.5 Q-56.35 -44.8 -59.5 -38.0 -61.25 -34.15 -85.75 -25.5 -97.8 -21.3 -102.05 -19.4 L-102.4 -19.55" fill="#a6d1fb" fill-opacity="0.3019608" fill-rule="evenodd" stroke="none"/>
      <path d="M-101.35 -280.9 L-100.2 -280.75 Q-98.7 -280.65 -98.0 -281.3 L-96.45 -283.45 Q-98.7 -285.6 -100.15 -288.2 L-102.85 -303.55 Q-102.2 -311.25 -100.85 -317.0 L-96.95 -332.4 -89.45 -326.25 Q-83.8 -321.5 -79.55 -318.5 -65.75 -309.0 -51.85 -307.85 L-51.25 -307.8 Q-51.15 -307.0 -50.75 -306.55 L-49.0 -305.6 Q-40.75 -311.8 -30.95 -325.1 -25.6 -332.4 -17.45 -344.6 -12.1 -340.15 5.5 -316.2 L8.65 -311.85 10.1 -311.9 9.75 -308.85 9.5 -307.25 Q8.15 -306.6 7.15 -306.4 6.15 -307.15 5.65 -308.35 -0.05 -307.5 -2.25 -306.1 -21.4 -303.0 -33.15 -303.3 L-33.65 -303.3 -33.75 -303.5 -33.9 -303.8 -38.25 -305.15 Q-48.1 -305.5 -58.85 -301.6 -69.7 -297.65 -79.25 -290.1 -85.1 -285.5 -89.7 -280.25 -88.0 -278.65 -86.85 -277.1 -88.0 -275.45 -88.5 -274.95 -89.15 -274.3 -90.6 -274.4 L-93.85 -275.15 Q-96.9 -276.3 -99.75 -279.15 L-101.35 -280.9" fill="#0a7beb" fill-rule="evenodd" stroke="none"/>
      <path d="M-101.35 -280.9 Q-108.2 -282.25 -108.8 -292.4 -109.0 -295.9 -108.45 -300.0 L-107.85 -303.6 Q-106.95 -313.65 -105.2 -322.55 -101.9 -340.05 -97.35 -339.7 -92.0 -339.25 -80.35 -323.75 -73.4 -315.7 -59.05 -312.15 -54.55 -311.05 -50.6 -310.5 -48.8 -313.4 -42.1 -320.1 -32.25 -329.9 -31.6 -331.0 L-26.3 -342.7 Q-21.9 -351.5 -18.65 -351.2 -13.65 -350.8 -2.6 -338.1 7.55 -326.5 11.7 -318.15 L11.25 -312.9 Q11.2 -312.1 10.1 -311.9 L8.65 -311.85 5.5 -316.2 Q-12.1 -340.15 -17.45 -344.6 -25.6 -332.4 -30.95 -325.1 -40.75 -311.8 -49.0 -305.6 L-50.75 -306.55 Q-51.15 -307.0 -51.25 -307.8 L-51.85 -307.85 Q-65.75 -309.0 -79.55 -318.5 -83.8 -321.5 -89.45 -326.25 L-96.95 -332.4 -100.85 -317.0 Q-102.2 -311.25 -102.85 -303.55 L-100.15 -288.2 Q-98.7 -285.6 -96.45 -283.45 L-98.0 -281.3 Q-98.7 -280.65 -100.2 -280.75 L-101.35 -280.9" fill="#000000" fill-rule="evenodd" stroke="none"/>
      <path d="M68.05 -257.5 Q73.5 -243.35 73.5 -229.85 L73.25 -223.1 71.0 -222.35 70.85 -222.85 Q70.3 -222.45 69.4 -222.35 L71.9 -217.05 Q75.4 -208.7 77.5 -199.35 81.5 -182.05 81.5 -170.85 81.5 -154.7 79.2 -145.4 L73.25 -125.9 Q78.85 -124.0 82.5 -113.85 83.9 -109.95 84.85 -105.2 L85.5 -101.1 Q85.5 -96.1 83.0 -81.0 80.5 -65.9 80.5 -60.6 79.25 -59.85 78.0 -59.35 73.5 -71.2 67.9 -81.8 64.5 -89.35 64.5 -101.1 64.5 -103.25 66.15 -119.8 62.05 -123.5 55.25 -136.25 L51.5 -143.4 Q51.25 -138.05 46.5 -124.05 43.65 -115.65 41.35 -110.8 L41.5 -109.6 Q41.5 -106.0 22.9 -93.05 6.35 -81.55 1.25 -79.35 L-33.6 -65.35 Q-49.9 -58.75 -57.5 -54.85 -60.4 -51.3 -71.45 -44.85 -83.85 -37.6 -88.6 -36.5 L-88.75 -35.85 -89.35 -34.8 Q-89.7 -34.5 -90.55 -34.4 L-90.5 -28.0 -90.55 -19.35 Q-91.15 -13.35 -94.0 -13.35 -103.7 -13.35 -105.7 -18.35 L-105.9 -18.9 -106.0 -18.75 Q-107.85 -15.25 -110.75 -12.15 -118.95 -3.5 -130.85 -3.5 -132.85 -3.5 -134.1 -4.75 -134.35 -3.75 -134.35 -6.25 -134.35 -6.45 -132.65 -7.0 -130.5 -7.75 -128.9 -9.3 -123.5 -14.6 -123.5 -29.6 -123.5 -35.65 -120.0 -41.7 -117.35 -46.25 -113.65 -48.45 -116.95 -52.65 -121.5 -62.35 -121.5 -64.9 -116.8 -71.4 -111.7 -78.35 -108.5 -78.35 -104.0 -78.35 -100.65 -70.15 L-99.5 -66.65 -97.85 -78.65 Q-96.95 -85.8 -97.5 -90.35 -98.05 -94.9 -101.55 -111.9 -104.4 -125.85 -104.5 -133.85 -104.65 -146.6 -107.2 -158.95 -108.8 -166.6 -112.7 -179.4 -116.65 -192.5 -118.05 -199.05 -120.5 -210.35 -120.5 -221.6 -120.5 -227.25 -117.95 -238.75 -114.15 -255.65 -107.05 -269.6 -85.4 -312.35 -41.5 -312.35 -37.7 -312.35 -35.95 -311.65 -28.4 -313.35 -14.0 -313.35 26.45 -313.35 51.75 -284.6 62.3 -272.6 68.05 -257.5 M-82.6 -232.15 L-89.5 -229.35 -91.55 -229.7 -92.25 -230.6 -92.35 -230.4 -92.5 -232.1 Q-92.5 -235.25 -86.9 -237.55 L-70.0 -243.1 Q-62.75 -245.45 -61.15 -248.75 -60.6 -249.95 -60.55 -251.7 L-60.5 -254.6 -59.9 -268.75 Q-59.2 -279.35 -57.0 -279.35 -55.1 -279.35 -37.4 -242.75 L-37.3 -242.8 -31.9 -243.95 Q-31.5 -246.5 -31.5 -250.1 L-31.5 -284.6 Q-31.5 -285.35 -29.0 -285.35 -13.25 -260.85 -5.75 -251.85 L6.5 -251.85 -2.5 -290.5 -2.5 -290.8 -2.5 -290.85 -2.45 -291.65 -2.2 -292.85 -1.95 -293.05 0.0 -293.35 0.05 -293.35 0.5 -293.35 Q2.0 -293.35 12.75 -278.25 26.1 -259.45 28.25 -256.85 33.45 -250.7 49.75 -239.9 L69.5 -227.3 Q61.35 -253.35 53.95 -268.85 45.75 -285.9 36.25 -294.55 27.35 -302.6 14.8 -305.55 4.75 -307.85 -13.6 -307.85 L-39.0 -305.35 Q-41.0 -305.35 -42.25 -306.6 L-42.35 -306.4 -42.5 -308.1 -42.5 -308.2 -53.8 -305.1 Q-75.1 -298.7 -84.75 -290.85 -89.5 -287.0 -94.6 -280.3 -100.05 -273.15 -102.0 -267.6 -105.3 -258.55 -108.75 -250.95 L-112.85 -241.85 Q-115.5 -235.4 -115.5 -221.1 -115.5 -210.7 -107.65 -181.95 -99.65 -152.85 -99.5 -146.1 -99.3 -139.7 -95.8 -110.65 -92.5 -83.05 -92.5 -71.85 -92.0 -66.4 -92.2 -60.75 -92.4 -54.5 -93.55 -50.75 L-93.65 -50.45 -94.35 -48.6 -91.9 -44.85 -90.15 -41.75 -64.4 -56.3 Q-63.25 -63.05 -42.85 -70.2 L-23.4 -76.35 Q-10.25 -80.25 -5.0 -82.1 7.8 -86.55 20.1 -96.45 L35.6 -109.4 Q36.05 -112.1 38.95 -118.1 43.2 -126.8 44.5 -131.35 45.15 -133.65 45.65 -143.15 45.9 -148.2 47.8 -150.95 46.5 -153.8 46.5 -154.5 L46.55 -155.85 38.4 -150.75 Q2.25 -129.05 -24.45 -129.05 -46.95 -129.05 -62.65 -143.45 -66.85 -147.3 -70.85 -152.8 L-70.5 -135.75 Q-64.75 -133.55 -63.0 -123.5 -62.3 -119.45 -62.35 -114.6 L-62.5 -110.35 Q-62.5 -99.25 -64.75 -92.35 -69.15 -78.85 -71.5 -67.6 L-72.0 -66.95 Q-72.5 -66.35 -74.0 -66.35 -80.3 -66.35 -81.55 -82.0 -82.15 -89.9 -81.5 -98.0 L-80.5 -117.85 Q-79.55 -127.15 -77.9 -131.8 -80.9 -135.7 -86.05 -145.8 -92.95 -159.25 -98.0 -171.85 L-107.65 -195.9 Q-108.5 -199.0 -108.5 -214.6 -106.6 -254.35 -98.5 -254.35 -96.9 -254.35 -96.25 -253.65 L-95.5 -252.35 Q-103.5 -237.2 -103.5 -214.85 -103.5 -195.9 -88.0 -164.8 L-77.35 -144.25 -76.15 -141.9 -76.4 -144.3 Q-76.85 -148.95 -76.85 -154.3 L-76.8 -162.15 -77.45 -163.3 -76.95 -164.45 -76.75 -164.6 -76.5 -180.6 -76.5 -206.85 Q-76.5 -208.9 -79.5 -219.35 -82.5 -229.75 -82.5 -232.0 L-82.5 -232.2 -82.6 -232.15 M6.3 -276.95 Q8.95 -266.65 12.5 -249.75 L12.6 -248.15 Q12.55 -247.45 11.8 -247.1 10.15 -246.35 1.0 -246.35 -10.55 -246.35 -18.45 -256.65 -22.65 -262.05 -26.25 -270.1 -26.3 -268.85 -25.55 -262.1 -24.8 -255.05 -24.9 -250.8 -25.25 -236.35 -35.0 -236.35 L-35.7 -236.35 -35.75 -236.1 -36.1 -235.7 Q-36.5 -235.35 -38.0 -235.35 -40.85 -235.35 -46.2 -246.8 -53.55 -262.65 -54.5 -264.1 -55.65 -253.35 -57.5 -243.85 -58.1 -240.55 -63.1 -239.2 -72.8 -236.6 -75.0 -235.6 L-79.05 -233.75 Q-73.55 -224.05 -72.05 -210.5 -71.35 -203.65 -71.5 -184.6 L-71.0 -161.35 -59.15 -149.65 Q-42.2 -134.3 -34.95 -134.3 L-13.45 -134.95 Q-5.75 -135.65 0.2 -137.7 5.0 -139.35 13.45 -143.75 L33.9 -154.3 Q64.4 -169.45 64.4 -173.05 61.15 -181.7 57.9 -192.35 51.4 -213.7 51.4 -228.2 L51.45 -232.55 49.15 -234.0 Q28.8 -246.95 23.25 -254.1 12.55 -268.25 6.3 -276.95 M49.0 -157.35 L67.6 -127.9 68.05 -129.4 71.5 -139.45 Q76.5 -155.15 76.5 -170.6 76.5 -188.45 68.5 -205.6 L63.0 -216.75 Q60.5 -222.1 60.5 -225.35 L60.6 -226.9 57.2 -228.95 57.5 -224.4 Q58.35 -210.3 59.15 -206.8 60.2 -202.3 65.35 -189.45 69.4 -179.4 69.4 -173.05 69.4 -172.45 60.7 -165.85 L48.95 -157.45 48.8 -157.35 49.0 -157.35 M69.5 -101.25 Q69.5 -96.85 70.25 -94.75 70.6 -93.75 72.0 -91.8 74.85 -87.9 75.75 -76.85 L76.25 -76.85 Q76.45 -79.8 78.55 -88.45 80.5 -96.45 80.5 -100.85 80.5 -106.65 78.65 -110.65 76.65 -115.05 71.5 -119.6 69.5 -107.6 69.5 -101.25 M-67.85 -120.0 Q-68.75 -125.15 -72.5 -127.35 -75.9 -113.85 -76.3 -111.05 -76.5 -109.3 -76.5 -98.1 -76.5 -86.85 -75.25 -81.6 L-68.0 -98.4 Q-67.5 -100.1 -67.5 -110.5 -67.5 -118.05 -67.85 -120.0 M-116.25 -62.1 L-109.0 -52.3 -107.05 -54.35 Q-104.15 -57.1 -102.35 -57.95 L-103.8 -60.9 -108.5 -71.85 Q-111.1 -71.3 -112.6 -67.8 -114.45 -63.5 -116.25 -62.1 M-101.25 -52.1 Q-101.8 -52.1 -104.05 -49.65 L-105.5 -47.9 -106.2 -46.8 -106.25 -46.6 Q-106.25 -45.65 -103.85 -42.0 -101.5 -38.4 -101.5 -33.85 -97.9 -35.05 -95.6 -35.3 L-95.1 -37.65 Q-97.15 -41.1 -99.5 -48.0 -99.5 -49.65 -98.55 -50.5 L-98.7 -50.85 Q-100.55 -52.1 -101.25 -52.1 M-100.4 -26.9 Q-99.25 -20.9 -98.75 -19.85 L-95.75 -19.6 Q-95.55 -22.35 -95.8 -29.3 -98.15 -28.5 -100.8 -28.35 L-100.4 -26.9 M-111.05 -44.4 L-111.05 -44.55 -112.0 -44.15 Q-118.5 -40.55 -118.5 -30.6 -118.5 -23.4 -120.75 -12.6 L-121.25 -11.85 -120.5 -12.2 Q-105.75 -19.5 -109.5 -29.35 -109.5 -30.35 -107.0 -30.35 L-106.5 -30.3 -106.55 -30.45 Q-107.2 -33.1 -109.1 -38.25 -110.45 -41.95 -111.05 -44.4" fill="#000000" fill-rule="evenodd" stroke="none"/>
      <path d="M-42.5 -308.1 L-42.5 -308.2 -42.5 -308.1 M-77.35 -144.25 L-76.4 -144.3 -76.15 -141.9 -77.35 -144.25 M-82.5 -232.0 L-82.6 -232.15 -82.5 -232.2 -82.5 -232.0 M-112.0 -44.15 L-111.05 -44.55 -111.05 -44.4 -112.0 -44.15 M-106.55 -30.45 L-106.5 -30.3 -107.0 -30.35 -106.55 -30.45 M-120.5 -12.2 L-121.25 -11.85 -120.75 -12.6 -120.5 -12.2" fill="#feb74e" fill-rule="evenodd" stroke="none"/>
      <path d="M-100.4 -26.9 L-100.8 -28.35 Q-98.15 -28.5 -95.8 -29.3 -95.55 -22.35 -95.75 -19.6 L-98.75 -19.85 Q-99.25 -20.9 -100.4 -26.9 M-101.25 -52.1 Q-100.55 -52.1 -98.7 -50.85 L-98.55 -50.5 Q-99.5 -49.65 -99.5 -48.0 -97.15 -41.1 -95.1 -37.65 L-95.6 -35.3 Q-97.9 -35.05 -101.5 -33.85 -101.5 -38.4 -103.85 -42.0 -106.25 -45.65 -106.25 -46.6 L-106.2 -46.8 -105.5 -47.9 -104.05 -49.65 Q-101.8 -52.1 -101.25 -52.1 M-116.25 -62.1 Q-114.45 -63.5 -112.6 -67.8 -111.1 -71.3 -108.5 -71.85 L-103.8 -60.9 -102.35 -57.95 Q-104.15 -57.1 -107.05 -54.35 L-109.0 -52.3 -116.25 -62.1" fill="#ffffff" fill-rule="evenodd" stroke="none"/>
      <path d="M6.3 -276.95 Q12.55 -268.25 23.25 -254.1 28.8 -246.95 49.15 -234.0 L51.45 -232.55 51.4 -228.2 Q51.4 -213.7 57.9 -192.35 61.15 -181.7 64.4 -173.05 64.4 -169.45 33.9 -154.3 L13.45 -143.75 Q5.0 -139.35 0.2 -137.7 -5.75 -135.65 -13.45 -134.95 L-34.95 -134.3 Q-42.2 -134.3 -59.15 -149.65 L-71.0 -161.35 -71.5 -184.6 Q-71.35 -203.65 -72.05 -210.5 -73.55 -224.05 -79.05 -233.75 L-75.0 -235.6 Q-72.8 -236.6 -63.1 -239.2 -58.1 -240.55 -57.5 -243.85 -55.65 -253.35 -54.5 -264.1 -53.55 -262.65 -46.2 -246.8 -40.85 -235.35 -38.0 -235.35 -36.5 -235.35 -36.1 -235.7 L-35.75 -236.1 -35.7 -236.35 -35.0 -236.35 Q-25.25 -236.35 -24.9 -250.8 -24.8 -255.05 -25.55 -262.1 -26.3 -268.85 -26.25 -270.1 -22.65 -262.05 -18.45 -256.65 -10.55 -246.35 1.0 -246.35 10.15 -246.35 11.8 -247.1 12.55 -247.45 12.6 -248.15 L12.5 -249.75 Q8.95 -266.65 6.3 -276.95" fill="#fff1dd" fill-rule="evenodd" stroke="none"/>
      <path d="M-42.5 -308.1 L-42.35 -306.4 -42.25 -306.6 Q-41.0 -305.35 -39.0 -305.35 L-13.6 -307.85 Q4.75 -307.85 14.8 -305.55 27.35 -302.6 36.25 -294.55 45.75 -285.9 53.95 -268.85 61.35 -253.35 69.5 -227.3 L49.75 -239.9 Q33.45 -250.7 28.25 -256.85 26.1 -259.45 12.75 -278.25 2.0 -293.35 0.5 -293.35 L0.05 -293.35 0.0 -293.35 -1.95 -293.05 -2.2 -292.85 -2.45 -291.65 -2.5 -290.85 -2.5 -290.8 -2.5 -290.5 6.5 -251.85 -5.75 -251.85 Q-13.25 -260.85 -29.0 -285.35 -31.5 -285.35 -31.5 -284.6 L-31.5 -250.1 Q-31.5 -246.5 -31.9 -243.95 L-37.3 -242.8 -37.4 -242.75 Q-55.1 -279.35 -57.0 -279.35 -59.2 -279.35 -59.9 -268.75 L-60.5 -254.6 -60.55 -251.7 Q-60.6 -249.95 -61.15 -248.75 -62.75 -245.45 -70.0 -243.1 L-86.9 -237.55 Q-92.5 -235.25 -92.5 -232.1 L-92.35 -230.4 -92.25 -230.6 -91.55 -229.7 -89.5 -229.35 -82.6 -232.15 -82.5 -232.0 Q-82.5 -229.75 -79.5 -219.35 -76.5 -208.9 -76.5 -206.85 L-76.5 -180.6 -76.75 -164.6 -76.95 -164.45 -77.45 -163.3 -76.8 -162.15 -76.85 -154.3 Q-76.85 -148.95 -76.4 -144.3 L-77.35 -144.25 -88.0 -164.8 Q-103.5 -195.9 -103.5 -214.85 -103.5 -237.2 -95.5 -252.35 L-96.25 -253.65 Q-96.9 -254.35 -98.5 -254.35 -106.6 -254.35 -108.5 -214.6 -108.5 -199.0 -107.65 -195.9 L-98.0 -171.85 Q-92.95 -159.25 -86.05 -145.8 -80.9 -135.7 -77.9 -131.8 -79.55 -127.15 -80.5 -117.85 L-81.5 -98.0 Q-82.15 -89.9 -81.55 -82.0 -80.3 -66.35 -74.0 -66.35 -72.5 -66.35 -72.0 -66.95 L-71.5 -67.6 Q-69.15 -78.85 -64.75 -92.35 -62.5 -99.25 -62.5 -110.35 L-62.35 -114.6 Q-62.3 -119.45 -63.0 -123.5 -64.75 -133.55 -70.5 -135.75 L-70.85 -152.8 Q-66.85 -147.3 -62.65 -143.45 -46.95 -129.05 -24.45 -129.05 2.25 -129.05 38.4 -150.75 L46.55 -155.85 46.5 -154.5 Q46.5 -153.8 47.8 -150.95 45.9 -148.2 45.65 -143.15 45.15 -133.65 44.5 -131.35 43.2 -126.8 38.95 -118.1 36.05 -112.1 35.6 -109.4 L20.1 -96.45 Q7.8 -86.55 -5.0 -82.1 -10.25 -80.25 -23.4 -76.35 L-42.85 -70.2 Q-63.25 -63.05 -64.4 -56.3 L-90.15 -41.75 -91.9 -44.85 -94.35 -48.6 -93.65 -50.45 -93.55 -50.75 Q-92.4 -54.5 -92.2 -60.75 -92.0 -66.4 -92.5 -71.85 -92.5 -83.05 -95.8 -110.65 -99.3 -139.7 -99.5 -146.1 -99.65 -152.85 -107.65 -181.95 -115.5 -210.7 -115.5 -221.1 -115.5 -235.4 -112.85 -241.85 L-108.75 -250.95 Q-105.3 -258.55 -102.0 -267.6 -100.05 -273.15 -94.6 -280.3 -89.5 -287.0 -84.75 -290.85 -75.1 -298.7 -53.8 -305.1 L-42.5 -308.2 -42.5 -308.1 M48.95 -157.45 L60.7 -165.85 Q69.4 -172.45 69.4 -173.05 69.4 -179.4 65.35 -189.45 60.2 -202.3 59.15 -206.8 58.35 -210.3 57.5 -224.4 L57.2 -228.95 60.6 -226.9 60.5 -225.35 Q60.5 -222.1 63.0 -216.75 L68.5 -205.6 Q76.5 -188.45 76.5 -170.6 76.5 -155.15 71.5 -139.45 L68.05 -129.4 67.6 -127.9 49.0 -157.35 48.95 -157.45 M69.5 -101.25 Q69.5 -107.6 71.5 -119.6 76.65 -115.05 78.65 -110.65 80.5 -106.65 80.5 -100.85 80.5 -96.45 78.55 -88.45 76.45 -79.8 76.25 -76.85 L75.75 -76.85 Q74.85 -87.9 72.0 -91.8 70.6 -93.75 70.25 -94.75 69.5 -96.85 69.5 -101.25 M-67.85 -120.0 Q-67.5 -118.05 -67.5 -110.5 -67.5 -100.1 -68.0 -98.4 L-75.25 -81.6 Q-76.5 -86.85 -76.5 -98.1 -76.5 -109.3 -76.3 -111.05 -75.9 -113.85 -72.5 -127.35 -68.75 -125.15 -67.85 -120.0 M-111.05 -44.4 Q-110.45 -41.95 -109.1 -38.25 -107.2 -33.1 -106.55 -30.45 L-107.0 -30.35 Q-109.5 -30.35 -109.5 -29.35 -105.75 -19.5 -120.5 -12.2 L-120.75 -12.6 Q-118.5 -23.4 -118.5 -30.6 -118.5 -40.55 -112.0 -44.15 L-111.05 -44.4" fill="#49cae9" fill-rule="evenodd" stroke="none"/>
      <path d="M128.6 -365.45 Q129.0 -358.65 127.35 -354.4 123.75 -345.45 122.45 -340.35 120.0 -330.95 107.2 -319.5 124.0 -320.15 127.9 -317.7 129.3 -316.85 129.0 -315.4 128.4 -314.1 128.45 -313.7 128.5 -312.7 127.0 -308.45 124.95 -302.85 121.85 -298.0 112.2 -283.0 96.8 -282.1 90.1 -281.75 88.45 -286.3 87.85 -287.85 87.3 -297.1 L87.05 -302.4 71.25 -289.1 Q68.85 -287.1 63.85 -275.65 59.2 -265.1 57.9 -265.0 56.1 -264.9 55.25 -265.7 L52.75 -265.5 Q38.3 -264.7 29.9 -275.2 25.7 -280.5 24.4 -286.1 L24.2 -289.6 Q24.35 -290.9 24.9 -291.6 24.95 -297.15 29.6 -302.0 33.6 -306.15 42.6 -311.0 47.8 -313.85 59.9 -319.85 L71.3 -326.3 71.1 -326.4 64.0 -329.5 Q59.0 -331.45 57.8 -332.5 57.05 -333.1 56.95 -334.6 56.5 -342.25 72.35 -354.05 77.4 -357.9 83.3 -361.45 88.15 -364.4 88.6 -364.4 92.35 -364.65 92.3 -349.75 L92.7 -343.65 105.7 -355.9 124.1 -373.45 125.2 -374.45 125.35 -374.5 Q128.0 -374.55 128.25 -371.55 L128.25 -371.3 Q128.75 -369.15 128.6 -365.45 M95.8 -329.15 Q96.75 -325.45 100.45 -322.25 L100.8 -322.0 100.85 -322.0 Q109.2 -328.4 113.55 -336.0 114.75 -338.15 119.15 -349.0 120.15 -351.5 121.75 -363.25 116.65 -358.0 107.65 -349.55 L94.4 -337.35 94.85 -335.45 Q95.5 -330.35 95.8 -329.15 M85.45 -324.9 Q85.75 -319.8 88.35 -315.45 L89.8 -313.4 96.75 -318.9 Q94.2 -320.95 92.35 -325.45 90.75 -329.3 90.05 -333.45 L85.35 -329.45 Q85.7 -327.8 85.45 -324.9 M82.2 -316.9 Q81.15 -320.85 81.0 -325.25 L80.95 -325.7 80.75 -325.55 Q63.5 -311.6 48.65 -308.25 42.8 -306.95 35.9 -296.75 L31.4 -289.9 30.65 -288.9 31.25 -287.3 Q33.3 -280.95 35.15 -279.8 44.6 -274.15 53.0 -270.9 L54.5 -270.3 Q55.3 -281.25 67.7 -294.15 73.4 -300.2 85.75 -310.15 83.5 -311.9 82.2 -316.9 M91.6 -300.2 Q92.15 -288.85 92.9 -286.4 113.55 -291.85 118.9 -299.25 120.45 -301.4 121.7 -305.45 122.9 -309.5 124.25 -311.35 L124.1 -314.05 Q108.5 -313.4 102.8 -314.35 L101.45 -314.65 90.95 -305.7 Q91.45 -303.7 91.6 -300.2 M87.0 -358.95 Q76.85 -352.1 71.3 -347.9 61.0 -340.2 61.25 -335.75 61.25 -335.3 71.25 -331.05 L75.7 -329.15 77.8 -330.7 Q81.4 -333.4 88.5 -339.8 L87.0 -358.95 M-155.05 -309.5 L-153.95 -300.05 -153.7 -294.75 Q-153.75 -292.85 -154.15 -291.7 -144.15 -285.55 -137.35 -280.8 L-137.35 -282.45 -136.8 -294.2 Q-136.9 -295.8 -138.3 -299.85 L-146.15 -304.6 -154.5 -310.2 -155.35 -310.8 -155.05 -309.5 M-175.75 -324.5 L-174.35 -316.25 -174.05 -310.7 Q-174.25 -307.55 -175.55 -306.55 -171.15 -302.0 -164.8 -298.2 L-158.9 -294.65 -158.45 -294.4 -158.55 -295.25 Q-158.75 -298.1 -158.6 -303.2 -158.8 -306.95 -160.75 -311.4 L-162.75 -316.1 -174.7 -324.8 -176.0 -325.75 -175.75 -324.5 M-136.9 -306.3 L-135.4 -305.55 Q-130.25 -303.15 -123.9 -300.7 -111.25 -296.1 -105.7 -293.85 -96.2 -290.05 -91.75 -286.4 -86.6 -282.15 -85.9 -276.6 -85.35 -275.95 -85.05 -274.7 L-84.8 -271.2 Q-85.45 -265.5 -89.05 -259.75 -96.2 -248.35 -110.65 -247.5 L-113.15 -247.4 Q-113.95 -246.55 -115.75 -246.45 -117.05 -246.4 -122.85 -256.35 -129.1 -267.2 -131.7 -268.85 L-165.0 -291.1 Q-184.25 -303.1 -188.35 -314.0 -190.25 -318.9 -194.85 -327.4 -196.95 -331.4 -197.35 -338.2 -197.9 -341.9 -197.65 -344.1 L-197.65 -344.3 Q-197.75 -347.35 -195.1 -347.55 L-194.95 -347.55 -193.7 -346.75 -173.45 -331.35 Q-150.55 -313.9 -142.95 -309.5 L-136.9 -306.3 M-111.85 -290.35 L-111.45 -287.85 -111.1 -281.4 Q-110.6 -274.4 -110.95 -268.35 -111.6 -258.85 -114.3 -256.65 -113.35 -254.35 -112.9 -252.1 L-111.5 -252.8 Q-103.55 -257.05 -94.8 -263.75 -93.1 -265.05 -91.75 -271.6 L-91.35 -273.25 -92.2 -274.2 -97.45 -280.45 Q-105.45 -289.8 -111.4 -290.4 L-111.85 -290.5 -111.85 -290.35 M-116.05 -291.15 Q-123.9 -292.75 -132.65 -296.95 L-132.4 -294.6 Q-132.35 -292.9 -133.1 -285.1 -133.5 -280.6 -133.95 -278.35 L-128.7 -274.25 Q-122.15 -268.85 -118.2 -263.5 L-118.05 -263.3 -117.95 -263.75 -116.55 -265.95 Q-114.6 -268.8 -115.25 -277.1 L-116.25 -286.6 Q-116.4 -289.4 -116.05 -291.15 M-182.5 -330.65 L-190.25 -336.85 Q-187.35 -325.35 -186.05 -322.95 -180.85 -313.4 -179.25 -311.0 L-178.7 -315.85 Q-178.95 -320.6 -181.1 -326.7 L-182.5 -330.65" fill="#000000" fill-rule="evenodd" stroke="none"/>
      <path d="M95.8 -329.15 Q95.5 -330.35 94.85 -335.45 L94.4 -337.35 107.65 -349.55 Q116.65 -358.0 121.75 -363.25 120.15 -351.5 119.15 -349.0 114.75 -338.15 113.55 -336.0 109.2 -328.4 100.85 -322.0 L100.8 -322.0 100.45 -322.25 Q96.75 -325.45 95.8 -329.15 M82.2 -316.9 Q83.5 -311.9 85.75 -310.15 73.4 -300.2 67.7 -294.15 55.3 -281.25 54.5 -270.3 L53.0 -270.9 Q44.6 -274.15 35.15 -279.8 33.3 -280.95 31.25 -287.3 L30.65 -288.9 31.4 -289.9 35.9 -296.75 Q42.8 -306.95 48.65 -308.25 63.5 -311.6 80.75 -325.55 L80.95 -325.7 81.0 -325.25 Q81.15 -320.85 82.2 -316.9 M-174.7 -324.8 L-162.75 -316.1 -160.75 -311.4 Q-158.8 -306.95 -158.6 -303.2 -158.75 -298.1 -158.55 -295.25 L-158.45 -294.4 -158.9 -294.65 -164.8 -298.2 Q-171.15 -302.0 -175.55 -306.55 -174.25 -307.55 -174.05 -310.7 L-174.35 -316.25 -175.75 -324.5 -174.7 -324.8 M-155.05 -309.5 L-155.35 -310.8 -154.5 -310.2 -146.15 -304.6 -138.3 -299.85 Q-136.9 -295.8 -136.8 -294.2 L-137.35 -282.45 -137.35 -280.8 Q-144.15 -285.55 -154.15 -291.7 -153.75 -292.85 -153.7 -294.75 L-153.95 -300.05 -155.05 -309.5 M-111.4 -290.4 Q-105.45 -289.8 -97.45 -280.45 L-92.2 -274.2 -91.35 -273.25 -91.75 -271.6 Q-93.1 -265.05 -94.8 -263.75 -103.55 -257.05 -111.5 -252.8 L-112.9 -252.1 Q-113.35 -254.35 -114.3 -256.65 -111.6 -258.85 -110.95 -268.35 -110.6 -274.4 -111.1 -281.4 L-111.45 -287.85 -111.85 -290.35 -111.4 -290.4 -111.85 -290.35 -111.85 -290.5 -111.4 -290.4 M-116.05 -291.15 Q-116.4 -289.4 -116.25 -286.6 L-115.25 -277.1 Q-114.6 -268.8 -116.55 -265.95 L-117.95 -263.75 -118.05 -263.3 -118.2 -263.5 Q-122.15 -268.85 -128.7 -274.25 L-133.95 -278.35 Q-133.5 -280.6 -133.1 -285.1 -132.35 -292.9 -132.4 -294.6 L-132.65 -296.95 Q-123.9 -292.75 -116.05 -291.15 M-182.5 -330.65 L-181.1 -326.7 Q-178.95 -320.6 -178.7 -315.85 L-179.25 -311.0 Q-180.85 -313.4 -186.05 -322.95 -187.35 -325.35 -190.25 -336.85 L-182.5 -330.65" fill="#ebd094" fill-rule="evenodd" stroke="none"/>
      <path d="M85.45 -324.9 Q85.7 -327.8 85.35 -329.45 L90.05 -333.45 Q90.75 -329.3 92.35 -325.45 94.2 -320.95 96.75 -318.9 L89.8 -313.4 88.35 -315.45 Q85.75 -319.8 85.45 -324.9 M87.0 -358.95 L88.5 -339.8 Q81.4 -333.4 77.8 -330.7 L75.7 -329.15 71.25 -331.05 Q61.25 -335.3 61.25 -335.75 61.0 -340.2 71.3 -347.9 76.85 -352.1 87.0 -358.95 M91.6 -300.2 Q91.45 -303.7 90.95 -305.7 L101.45 -314.65 102.8 -314.35 Q108.5 -313.4 124.1 -314.05 L124.25 -311.35 Q122.9 -309.5 121.7 -305.45 120.45 -301.4 118.9 -299.25 113.55 -291.85 92.9 -286.4 92.15 -288.85 91.6 -300.2" fill="#0a7beb" fill-rule="evenodd" stroke="none"/>
      <path d="M-174.7 -324.8 L-175.75 -324.5 -176.0 -325.75 -174.7 -324.8 M-111.4 -290.4 L-111.85 -290.35 -111.4 -290.4" fill="#bfbfbf" fill-rule="evenodd" stroke="none"/>
      <path d="M14.3 -125.65 Q7.5 -134.6 7.5 -136.75 L7.75 -139.0 Q8.0 -139.5 10.5 -139.5 11.2 -139.5 17.0 -130.7 23.3 -121.2 24.25 -120.25 L33.9 -111.8 Q38.5 -107.45 38.5 -102.75 38.5 -98.75 36.25 -91.7 38.4 -90.05 39.55 -84.7 L40.5 -76.6 Q40.5 -66.5 33.5 -66.5 31.9 -66.5 31.45 -66.85 L30.75 -67.75 30.65 -67.55 Q30.5 -67.7 30.5 -69.25 30.5 -70.3 34.0 -74.5 L35.5 -76.35 Q35.5 -77.8 33.5 -83.15 L33.2 -83.95 33.05 -83.65 33.0 -83.55 32.9 -83.3 32.65 -82.85 30.95 -80.35 Q29.65 -78.85 28.35 -78.55 L28.0 -78.5 Q26.55 -79.0 26.2 -79.3 25.5 -79.95 25.5 -81.6 L28.45 -88.5 29.5 -90.95 Q33.5 -100.2 33.5 -102.25 L20.5 -117.85 14.3 -125.65 M-49.1 -120.35 L-54.75 -108.5 -66.35 -85.6 Q-66.35 -83.8 -61.35 -79.05 L-61.15 -78.85 -61.1 -78.8 -56.75 -74.65 -54.5 -72.5 -55.8 -70.35 Q-56.2 -69.85 -57.05 -69.65 L-58.5 -69.5 Q-59.7 -69.5 -60.9 -70.0 L-61.0 -69.85 Q-62.5 -68.0 -62.5 -67.0 -62.5 -63.75 -58.5 -62.6 L-57.95 -62.4 Q-54.5 -61.3 -54.5 -59.0 -54.5 -57.55 -54.65 -57.6 L-55.0 -57.5 -55.5 -56.8 -57.5 -56.5 Q-65.7 -56.5 -67.35 -61.25 -68.15 -63.65 -67.35 -66.5 L-67.35 -72.55 Q-67.05 -74.05 -66.25 -75.0 L-67.85 -77.55 Q-70.1 -81.55 -71.35 -85.75 -57.85 -120.5 -47.0 -134.5 L-45.3 -133.85 Q-44.5 -133.35 -44.5 -131.75 -44.5 -130.35 -49.1 -120.35" fill="#000000" fill-rule="evenodd" stroke="none"/>
      <path d="M28.45 -88.5 L28.15 -87.75 24.6 -97.15 22.65 -102.35 22.05 -104.0 20.9 -107.05 20.75 -107.4 14.3 -125.65 20.5 -117.85 33.5 -102.25 Q33.5 -100.2 29.5 -90.95 L28.45 -88.5 M-56.75 -74.65 L-61.1 -78.8 -61.15 -78.85 -61.35 -79.05 Q-66.35 -83.8 -66.35 -85.6 L-54.75 -108.5 -49.1 -120.35 Q-51.7 -108.8 -54.6 -88.05 L-55.35 -82.65 -56.45 -74.35 -56.75 -74.65" fill="#ffffff" fill-rule="evenodd" stroke="none"/>
      <path d="M34.0 -74.5 L33.45 -73.9 30.95 -80.35 32.65 -82.85 32.9 -83.3 33.0 -83.55 33.05 -83.65 33.2 -83.95 33.5 -83.15 Q35.5 -77.8 35.5 -76.35 L34.0 -74.5 M-57.95 -62.4 L-58.5 -62.6 Q-62.5 -63.75 -62.5 -67.0 -62.5 -68.0 -61.0 -69.85 L-60.9 -70.0 Q-59.7 -69.5 -58.5 -69.5 L-57.05 -69.65 -57.95 -62.4" fill="#fff1dd" fill-rule="evenodd" stroke="none"/>
      <path d="M37.75 -46.25 L36.8 -48.4 23.9 -77.75 Q7.5 -116.4 7.5 -134.25 L7.65 -135.25 7.7 -135.45 Q8.15 -137.05 10.0 -138.5 L11.8 -132.85 20.75 -107.4 20.9 -107.05 22.05 -104.0 22.65 -102.35 24.6 -97.15 34.55 -71.05 Q51.5 -27.1 51.5 -24.75 51.5 -18.2 25.75 -12.25 15.5 -9.9 5.25 -8.5 L5.25 -7.25 Q5.0 -6.5 2.5 -6.5 1.35 -6.5 -0.3 -7.8 L-24.5 -6.5 Q-51.3 -6.5 -54.55 -8.35 -55.05 -8.65 -54.95 -9.5 L-57.25 -9.75 Q-57.5 -8.75 -57.5 -11.25 L-57.45 -12.75 -59.0 -10.5 Q-61.5 -11.35 -61.5 -14.0 L-61.2 -14.9 -61.5 -16.65 Q-61.5 -37.5 -55.35 -82.65 L-54.6 -88.05 Q-50.75 -115.4 -47.5 -126.75 -45.65 -133.25 -44.0 -134.5 -42.85 -133.25 -42.2 -131.35 L-42.1 -131.05 -42.1 -131.0 -42.0 -130.65 -41.5 -127.75 -41.5 -127.65 Q-41.5 -118.75 -45.45 -97.4 L-50.25 -70.25 -52.95 -41.65 -53.0 -41.0 -53.1 -40.45 -56.1 -23.3 -56.25 -22.85 -56.25 -22.8 -56.0 -23.15 -52.8 -27.65 Q-44.55 -38.95 -42.0 -41.5 -38.7 -38.9 -35.4 -31.45 -30.85 -21.3 -29.75 -19.5 -29.35 -22.7 -23.05 -31.35 -17.1 -39.5 -16.5 -39.5 -15.0 -39.5 -9.0 -29.9 -1.25 -17.45 0.25 -15.5 1.7 -18.1 5.05 -34.3 8.0 -48.5 10.0 -48.5 L19.75 -38.85 Q30.4 -28.35 35.5 -24.75 35.5 -28.05 36.9 -38.35 L38.1 -45.5 38.1 -45.55 37.75 -46.25 M31.7 -20.0 L31.75 -20.0 30.9 -20.6 24.15 -26.2 23.4 -26.9 11.5 -38.75 Q11.5 -34.15 8.15 -23.6 6.05 -17.05 5.45 -12.15 L29.55 -19.2 31.75 -20.0 31.7 -20.0 M41.7 -37.15 L41.5 -35.7 40.65 -30.55 40.5 -29.75 39.2 -22.75 45.5 -25.2 46.25 -25.5 46.25 -25.55 46.1 -25.95 46.05 -26.05 45.95 -26.4 42.05 -36.3 41.7 -37.15 M-22.6 -20.9 L-22.7 -20.75 Q-25.85 -16.05 -26.55 -12.15 -16.05 -11.8 -4.05 -11.75 -8.85 -17.7 -16.0 -30.25 -17.45 -27.7 -22.35 -21.3 L-22.6 -20.9 M-56.8 -13.65 L-51.95 -13.45 -33.15 -12.35 -31.8 -12.3 -32.6 -13.4 -35.45 -17.7 -35.55 -17.85 -35.75 -18.15 -44.0 -31.5 Q-48.1 -26.3 -56.8 -13.65" fill="#000000" fill-rule="evenodd" stroke="none"/>
      <path d="M29.55 -19.2 L5.45 -12.15 Q6.05 -17.05 8.15 -23.6 11.5 -34.15 11.5 -38.75 L23.4 -26.9 24.15 -26.2 30.9 -20.6 31.75 -20.0 31.7 -20.0 29.55 -19.2 M41.5 -35.7 L41.7 -37.15 42.05 -36.3 45.95 -26.4 46.05 -26.05 46.1 -25.95 46.25 -25.55 46.25 -25.5 45.5 -25.2 39.2 -22.75 40.5 -29.75 40.65 -30.55 41.5 -35.7 M-56.8 -13.65 Q-48.1 -26.3 -44.0 -31.5 L-35.75 -18.15 -35.55 -17.85 -35.45 -17.7 -32.6 -13.4 -31.8 -12.3 -33.15 -12.35 -51.95 -13.45 -56.8 -13.65 M-22.6 -20.9 L-22.35 -21.3 Q-17.45 -27.7 -16.0 -30.25 -8.85 -17.7 -4.05 -11.75 -16.05 -11.8 -26.55 -12.15 -25.85 -16.05 -22.7 -20.75 L-22.6 -20.9" fill="#ffffff" fill-rule="evenodd" stroke="none"/>
      <path d="M7.65 -135.25 L7.5 -134.25 Q7.5 -116.4 23.9 -77.75 L36.8 -48.4 37.75 -46.25 38.1 -45.5 36.9 -38.35 Q35.5 -28.05 35.5 -24.75 30.4 -28.35 19.75 -38.85 L10.0 -48.5 Q8.0 -48.5 5.05 -34.3 1.7 -18.1 0.25 -15.5 -1.25 -17.45 -9.0 -29.9 -15.0 -39.5 -16.5 -39.5 -17.1 -39.5 -23.05 -31.35 -29.35 -22.7 -29.75 -19.5 -30.85 -21.3 -35.4 -31.45 -38.7 -38.9 -42.0 -41.5 -44.55 -38.95 -52.8 -27.65 L-56.0 -23.15 -56.1 -23.3 -53.1 -40.45 -53.0 -41.0 -52.95 -41.65 -50.25 -70.25 -45.45 -97.4 Q-41.5 -118.75 -41.5 -127.65 L-41.5 -127.75 -42.0 -130.65 -41.8 -131.45 Q-33.7 -129.05 -24.45 -129.05 -9.85 -129.05 7.55 -135.5 L7.65 -135.25" fill="#0a7beb" fill-rule="evenodd" stroke="none"/>
      <path d="M35.5 -247.35 Q35.5 -252.85 38.0 -254.5 41.75 -241.25 48.3 -209.95 54.5 -180.4 54.5 -177.5 L54.25 -175.25 53.9 -174.85 Q53.5 -174.5 52.0 -174.5 48.0 -174.5 45.35 -188.9 43.9 -196.75 41.75 -211.0 40.65 -215.7 38.05 -231.25 35.5 -246.2 35.5 -247.35 M-21.3 -134.5 L-21.2 -134.0 -21.4 -132.2 Q-21.2 -131.4 -23.2 -131.4 -26.9 -131.4 -27.6 -139.6 L-27.6 -148.0 Q-27.85 -151.7 -27.6 -154.6 -27.4 -157.25 -26.75 -158.65 L-26.8 -159.2 Q-26.8 -161.05 -10.8 -164.35 7.6 -168.2 26.0 -168.2 32.75 -168.2 34.05 -164.35 34.7 -162.4 34.0 -160.3 34.0 -154.85 32.4 -149.4 L31.2 -149.0 Q29.3 -150.15 29.1 -151.85 L29.05 -152.4 Q29.05 -153.25 30.0 -156.0 L30.0 -163.8 19.6 -163.8 -8.55 -160.55 Q-18.65 -159.3 -23.8 -157.4 L-23.6 -154.25 -23.6 -148.1 Q-23.6 -145.65 -21.3 -134.5 M34.8 -14.55 L35.8 -12.6 Q37.75 -7.95 39.25 -7.0 L46.5 -7.0 46.45 -7.9 Q46.1 -13.95 47.05 -17.9 L47.2 -18.4 47.65 -19.75 47.6 -19.75 Q48.5 -22.1 50.0 -23.5 52.5 -21.0 52.5 -18.5 52.5 -11.95 51.55 -8.75 49.35 -1.5 42.5 -1.5 35.6 -1.5 32.1 -5.85 31.0 -7.25 30.25 -9.1 L29.5 -11.0 29.5 -15.5 30.0 -16.0 Q30.5 -16.5 32.0 -16.5 33.55 -16.5 34.8 -14.55 M-63.5 -235.35 Q-63.5 -240.85 -61.0 -242.5 -57.25 -229.25 -50.7 -197.95 -44.5 -168.4 -44.5 -165.5 L-44.75 -163.25 -45.1 -162.85 Q-45.5 -162.5 -47.0 -162.5 -51.0 -162.5 -53.65 -176.9 L-57.25 -199.0 Q-58.35 -203.7 -60.95 -219.25 -63.5 -234.2 -63.5 -235.35 M-33.9 -6.55 Q-33.2 -7.9 -32.0 -8.5 L-30.0 -7.85 Q-29.5 -7.45 -29.5 -5.75 -29.5 -0.9 -31.5 3.25 -34.55 9.5 -41.0 9.5 -48.05 9.5 -50.95 2.75 -51.9 0.65 -52.3 -1.9 L-52.5 -4.0 Q-52.5 -8.55 -50.0 -10.5 -48.35 -9.45 -47.8 -6.8 -47.6 -6.1 -47.3 -1.9 -46.8 4.25 -42.25 4.25 -36.95 4.25 -35.55 -1.05 L-34.5 -5.3 -33.9 -6.55" fill="#000000" fill-rule="evenodd" stroke="none"/>
      <path d="M29.1 -151.85 L13.45 -143.75 Q5.0 -139.35 0.2 -137.7 -5.75 -135.65 -13.45 -134.95 L-21.3 -134.5 Q-23.6 -145.65 -23.6 -148.1 L-23.6 -154.25 -23.8 -157.4 Q-18.65 -159.3 -8.55 -160.55 L19.6 -163.8 30.0 -163.8 30.0 -156.0 Q29.05 -153.25 29.05 -152.4 L29.1 -151.85" fill="#ffe6e6" fill-rule="evenodd" stroke="none"/>
      <path d="M35.5 -76.35 L33.45 -73.9 30.95 -80.35 Q32.05 -81.7 33.2 -83.95 L33.5 -83.15 Q35.5 -77.8 35.5 -76.35 M-57.95 -62.4 L-58.5 -62.6 Q-62.5 -63.75 -62.5 -67.0 -62.5 -68.0 -61.0 -69.85 L-60.9 -70.0 Q-59.7 -69.5 -58.5 -69.5 L-57.05 -69.65 -57.95 -62.4" fill="#fff1dd" fill-rule="evenodd" stroke="none"/>
      <path d="M47.6 -19.75 L47.65 -19.75 47.2 -18.4 47.05 -17.9 Q46.1 -13.95 46.45 -7.9 L46.5 -7.0 39.25 -7.0 Q37.75 -7.95 35.8 -12.6 L34.8 -14.55 Q43.45 -17.1 47.6 -19.75 M-33.9 -6.55 L-34.5 -5.3 -35.55 -1.05 Q-36.95 4.25 -42.25 4.25 -46.8 4.25 -47.3 -1.9 -47.6 -6.1 -47.8 -6.8 L-47.75 -7.1 -46.45 -7.0 -33.9 -6.55" fill="#0a7beb" fill-rule="evenodd" stroke="none"/>
    </g>
  </defs>
</svg>
