<?xml version="1.0" encoding="UTF-8" standalone="no"?>
<svg xmlns:xlink="http://www.w3.org/1999/xlink" height="720.75px" width="1716.8px" xmlns="http://www.w3.org/2000/svg">
  <g transform="matrix(1, 0, 0, 1, 307.05, 450.35)">
    <use height="253.5" transform="matrix(1.0, 0.0, 0.0, 1.0, -126.75, -126.75)" width="253.5" xlink:href="#shape0"/>
  </g>
  <defs>
    <g id="shape0" transform="matrix(1, 0, 0, 1, 126.75, 126.75)">
      <path d="M79.55 -79.55 Q47.4 -111.7 2.3 -112.45 L0.0 -112.5 Q-46.65 -112.5 -79.55 -79.55 -112.5 -46.6 -112.5 0.0 L-112.45 2.35 Q-111.65 47.45 -79.55 79.55 -46.65 112.5 0.0 112.5 46.6 112.5 79.55 79.55 112.5 46.65 112.5 0.0 112.5 -46.6 79.55 -79.55 M88.4 -88.4 Q125.0 -51.8 125.0 0.0 125.0 51.8 88.4 88.4 51.8 125.0 0.0 125.0 -51.8 125.0 -88.4 88.4 -125.0 51.8 -125.0 0.0 -125.0 -51.8 -88.4 -88.4 -51.8 -125.0 0.0 -125.0 51.8 -125.0 88.4 -88.4" fill="url(#gradient0)" fill-rule="evenodd" stroke="none"/>
      <path d="M79.55 -79.55 Q112.5 -46.6 112.5 0.0 112.5 46.65 79.55 79.55 46.6 112.5 0.0 112.5 -46.65 112.5 -79.55 79.55 -111.65 47.45 -112.45 2.35 L-112.5 0.0 Q-112.5 -46.6 -79.55 -79.55 -46.65 -112.5 0.0 -112.5 L2.3 -112.45 Q47.4 -111.7 79.55 -79.55 M88.4 -88.4 Q125.0 -51.8 125.0 0.0 125.0 51.8 88.4 88.4 51.8 125.0 0.0 125.0 -51.8 125.0 -88.4 88.4 -125.0 51.8 -125.0 0.0 -125.0 -51.8 -88.4 -88.4 -51.8 -125.0 0.0 -125.0 51.8 -125.0 88.4 -88.4" fill="none" stroke="#000000" stroke-linecap="round" stroke-linejoin="round" stroke-width="3.5"/>
    </g>
    <radialGradient cx="0" cy="0" gradientTransform="matrix(0.2411, -0.0161, 0.0161, 0.2411, -103.0, -101.0)" gradientUnits="userSpaceOnUse" id="gradient0" r="819.2" spreadMethod="pad">
      <stop offset="0.0" stop-color="#000000"/>
      <stop offset="1.0" stop-color="#dddddd"/>
    </radialGradient>
  </defs>
</svg>
