<?xml version="1.0" encoding="UTF-8" standalone="no"?>
<svg xmlns:xlink="http://www.w3.org/1999/xlink" height="720.75px" width="1716.8px" xmlns="http://www.w3.org/2000/svg">
  <g transform="matrix(1, 0, 0, 1, 307.05, 450.35)">
    <use height="258.0" transform="matrix(1.0, 0.0, 0.0, 1.0, -164.05, -162.5)" width="328.85" xlink:href="#sprite0"/>
  </g>
  <defs>
    <g id="sprite0" transform="matrix(1, 0, 0, 1, 161.85, 169.0)">
      <use height="255.0" transform="matrix(1.0, 0.0, 0.0, 1.0, -161.6, -166.55)" width="328.6" xlink:href="#shape0"/>
    </g>
    <g id="shape0" transform="matrix(1, 0, 0, 1, 161.6, 166.55)">
      <path d="M-155.65 -65.65 L-155.85 -67.25 Q-155.85 -71.3 -153.15 -74.05 -150.2 -77.0 -145.35 -77.0 L-142.7 -76.4 Q-139.55 -78.15 -133.15 -79.25 L-114.65 -81.25 Q-111.1 -88.4 -102.9 -88.4 -98.1 -88.4 -95.55 -84.5 L-94.4 -82.6 -42.55 -85.15 -15.55 -85.25 Q-8.55 -88.4 -3.55 -88.4 2.25 -88.4 4.9 -85.3 L26.95 -85.4 Q99.35 -85.05 100.7 -84.4 L103.95 -82.15 107.7 -78.4 Q108.65 -77.5 110.4 -74.75 112.15 -72.0 113.2 -70.9 115.4 -68.7 118.95 -64.0 122.7 -59.5 128.2 -55.9 137.85 -49.7 146.7 -41.75 151.2 -37.7 153.95 -34.4 161.05 -33.4 164.25 -30.75 167.0 -28.5 167.0 -24.0 167.0 -18.1 162.0 -15.4 L160.35 -14.6 Q154.0 -12.0 140.0 -11.0 69.3 -6.2 13.15 -4.65 L-2.1 -3.85 -74.55 -0.4 -94.5 -0.4 -96.4 -0.45 Q-99.15 2.0 -103.35 2.0 L-103.7 2.0 Q-115.85 1.8 -124.75 -13.15 -129.4 -21.05 -133.1 -32.0 -133.95 -33.7 -137.9 -38.6 L-145.55 -48.25 Q-154.5 -59.85 -155.65 -65.65" fill="#f2cb2f" fill-rule="evenodd" stroke="none"/>
      <path d="M160.35 -14.6 Q160.0 -4.85 158.55 8.85 156.6 27.65 156.45 41.6 L156.45 72.2 Q156.45 77.8 152.45 80.45 149.45 82.5 144.75 83.15 L131.9 83.7 Q88.2 83.45 77.95 83.7 76.1 83.7 72.95 84.75 L67.95 86.2 61.45 87.45 Q59.95 87.7 -22.05 88.45 L-103.65 87.45 -106.4 86.45 -111.05 85.0 -110.85 85.0 Q-103.35 85.0 -101.4 77.75 -100.85 75.65 -100.85 68.0 -100.85 59.85 -102.35 55.2 -103.85 50.55 -103.85 37.25 -103.85 36.05 -102.85 29.5 -101.9 23.25 -102.0 19.45 -102.25 11.8 -106.65 8.85 -105.85 4.5 -103.7 2.0 L-103.35 2.0 Q-99.15 2.0 -96.4 -0.45 L-94.5 -0.4 -74.55 -0.4 -2.1 -3.85 13.15 -4.65 Q69.3 -6.2 140.0 -11.0 154.0 -12.0 160.35 -14.6" fill="#e0b60e" fill-rule="evenodd" stroke="none"/>
      <path d="M-111.05 85.0 Q-116.75 84.8 -119.95 74.45 L-126.95 65.9 Q-130.95 60.7 -140.95 46.4 -144.55 45.25 -146.55 38.65 -158.7 22.4 -160.35 19.0 -161.55 16.6 -161.6 12.85 L-161.4 1.2 -161.25 -14.55 Q-159.6 -20.9 -156.65 -37.4 -155.95 -41.45 -156.25 -49.3 -156.6 -58.35 -156.4 -61.35 -156.2 -63.7 -155.65 -65.65 -154.5 -59.85 -145.55 -48.25 L-137.9 -38.6 Q-133.95 -33.7 -133.1 -32.0 -129.4 -21.05 -124.75 -13.15 -115.85 1.8 -103.7 2.0 -105.85 4.5 -106.65 8.85 -102.25 11.8 -102.0 19.45 -101.9 23.25 -102.85 29.5 -103.85 36.05 -103.85 37.25 -103.85 50.55 -102.35 55.2 -100.85 59.85 -100.85 68.0 -100.85 75.65 -101.4 77.75 -103.35 85.0 -110.85 85.0 L-111.05 85.0 M-127.8 24.7 L-127.4 20.35 -127.65 19.85 Q-127.95 21.0 -127.8 24.7" fill="#c09b0c" fill-rule="evenodd" stroke="none"/>
      <path d="M51.5 -153.25 L52.15 -152.85 Q54.7 -151.0 55.35 -147.95 L55.6 -142.05 Q55.6 -137.3 53.1 -123.5 50.6 -109.75 50.6 -107.55 50.6 -105.25 54.6 -91.25 L58.6 -77.55 Q58.6 -71.2 53.7 -68.15 48.85 -65.15 39.0 -63.85 L38.9 -66.05 38.6 -71.8 Q39.75 -83.25 37.1 -94.65 31.85 -117.4 13.1 -117.4 4.0 -117.4 0.1 -113.1 -2.4 -110.35 -2.4 -106.4 -2.4 -103.8 -0.9 -101.1 1.7 -96.4 7.6 -96.4 L14.6 -97.15 Q15.2 -94.0 15.45 -83.9 15.75 -72.25 16.35 -66.7 L16.9 -62.5 -2.85 -58.65 Q-24.3 -54.4 -33.9 -54.4 -38.55 -54.4 -41.5 -59.4 -44.05 -63.8 -45.35 -71.9 -46.2 -77.4 -46.4 -84.15 L-46.4 -90.3 Q-46.4 -97.1 -44.4 -106.65 -42.4 -116.15 -42.4 -125.15 -42.4 -127.3 -44.4 -135.0 L-46.4 -143.15 Q-46.4 -148.85 -42.45 -151.7 L-41.85 -152.1 Q-37.0 -155.15 -25.9 -155.15 L22.1 -157.4 Q44.55 -157.4 51.5 -153.25" fill="#aaaaaa" fill-rule="evenodd" stroke="none"/>
      <path d="M-52.15 -159.4 L-49.4 -160.95 Q-34.25 -168.1 14.6 -166.15 L22.1 -166.4 Q38.3 -166.4 45.85 -161.35 50.8 -158.1 51.5 -153.25 44.55 -157.4 22.1 -157.4 L-25.9 -155.15 Q-37.0 -155.15 -41.85 -152.1 L-42.45 -151.7 Q-46.1 -159.25 -52.15 -159.4" fill="#c8c8c8" fill-rule="evenodd" stroke="none"/>
      <path d="M39.0 -63.85 L39.0 -62.35 22.6 -62.15 17.15 -61.1 16.9 -62.5 16.35 -66.7 Q15.75 -72.25 15.45 -83.9 15.2 -94.0 14.6 -97.15 L7.6 -96.4 Q1.7 -96.4 -0.9 -101.1 -2.4 -103.8 -2.4 -106.4 -2.4 -110.35 0.1 -113.1 4.0 -117.4 13.1 -117.4 31.85 -117.4 37.1 -94.65 39.75 -83.25 38.6 -71.8 L38.9 -66.05 39.0 -63.85" fill="#919191" fill-rule="evenodd" stroke="none"/>
      <path d="M-41.5 -59.4 Q-44.5 -54.4 -49.4 -54.4 -64.0 -54.4 -67.1 -75.65 -68.1 -82.4 -67.85 -91.1 L-67.4 -100.05 Q-67.4 -117.25 -65.6 -131.15 -62.0 -159.4 -52.4 -159.4 L-52.15 -159.4 Q-46.1 -159.25 -42.45 -151.7 -46.4 -148.85 -46.4 -143.15 L-44.4 -135.0 Q-42.4 -127.3 -42.4 -125.15 -42.4 -116.15 -44.4 -106.65 -46.4 -97.1 -46.4 -90.3 L-46.4 -84.15 Q-46.2 -77.4 -45.35 -71.9 -44.05 -63.8 -41.5 -59.4" fill="#959595" fill-rule="evenodd" stroke="none"/>
      <path d="M39.0 -62.35 L40.1 -62.4 Q60.8 -62.4 66.15 -57.65 67.85 -56.1 67.9 -54.05 67.95 -52.95 67.6 -51.65 67.6 -44.5 49.4 -38.85 31.65 -33.4 10.6 -33.4 -2.7 -33.4 -6.35 -38.9 -7.5 -40.6 -7.6 -42.7 L-7.4 -44.55 Q-7.4 -51.55 -0.85 -55.35 4.55 -58.5 17.15 -61.1 L22.6 -62.15 39.0 -62.35" fill="#888888" fill-rule="evenodd" stroke="none"/>
    </g>
  </defs>
</svg>
