<?xml version="1.0" encoding="UTF-8" standalone="no"?>
<svg xmlns:xlink="http://www.w3.org/1999/xlink" height="720.75px" width="1716.8px" xmlns="http://www.w3.org/2000/svg">
  <g transform="matrix(1, 0, 0, 1, 307.05, 450.35)">
    <use height="168.7" transform="matrix(1.0, 0.0, 0.0, 1.0, -108.15, -84.35)" width="216.35" xlink:href="#sprite0"/>
  </g>
  <defs>
    <g id="sprite0" transform="matrix(1, 0, 0, 1, 108.15, 84.35)">
      <use height="168.7" transform="matrix(1.0, 0.0, 0.0, 1.0, -108.15, -84.35)" width="216.35" xlink:href="#shape0"/>
    </g>
    <g id="shape0" transform="matrix(1, 0, 0, 1, 108.15, 84.35)">
      <path d="M35.6 -29.6 Q30.05 -22.15 30.05 -11.65 30.05 -1.15 35.6 6.3 41.15 13.75 49.0 13.75 56.85 13.75 62.4 6.3 67.95 -1.15 67.95 -11.65 67.95 -22.15 62.4 -29.6 56.85 -37.05 49.0 -37.05 41.15 -37.05 35.6 -29.6 M50.6 -42.9 Q61.35 -42.9 68.95 -33.75 76.5 -24.6 76.5 -11.65 76.5 1.25 68.95 10.4 61.35 19.6 50.6 19.6 39.85 19.6 32.25 10.4 24.65 1.25 24.7 -11.65 24.65 -24.6 32.25 -33.75 39.85 -42.9 50.6 -42.9 M-62.05 -29.5 Q-54.45 -38.65 -43.7 -38.6 -33.0 -38.65 -25.4 -29.5 -17.8 -20.3 -17.8 -7.35 -17.8 5.55 -25.4 14.7 -33.0 23.85 -43.7 23.9 -54.45 23.85 -62.05 14.7 -69.65 5.55 -69.65 -7.35 -69.65 -20.3 -62.05 -29.5 M-58.7 -25.35 Q-64.25 -17.9 -64.25 -7.35 -64.25 3.15 -58.7 10.55 -53.15 18.0 -45.3 18.0 -37.45 18.0 -31.9 10.55 -26.35 3.15 -26.35 -7.35 -26.35 -17.9 -31.9 -25.35 -37.45 -32.75 -45.3 -32.75 -53.15 -32.75 -58.7 -25.35" fill="#484848" fill-rule="evenodd" stroke="none"/>
      <path d="M35.6 -29.6 Q41.15 -37.05 49.0 -37.05 56.85 -37.05 62.4 -29.6 67.95 -22.15 67.95 -11.65 67.95 -1.15 62.4 6.3 56.85 13.75 49.0 13.75 41.15 13.75 35.6 6.3 30.05 -1.15 30.05 -11.65 30.05 -22.15 35.6 -29.6 M-58.7 -25.35 Q-53.15 -32.75 -45.3 -32.75 -37.45 -32.75 -31.9 -25.35 -26.35 -17.9 -26.35 -7.35 -26.35 3.15 -31.9 10.55 -37.45 18.0 -45.3 18.0 -53.15 18.0 -58.7 10.55 -64.25 3.15 -64.25 -7.35 -64.25 -17.9 -58.7 -25.35" fill="#ffffff" fill-opacity="0.5019608" fill-rule="evenodd" stroke="none"/>
      <path d="M50.6 -42.9 Q39.85 -42.9 32.25 -33.75 24.65 -24.6 24.7 -11.65 24.65 1.25 32.25 10.4 39.85 19.6 50.6 19.6 61.35 19.6 68.95 10.4 76.5 1.25 76.5 -11.65 76.5 -24.6 68.95 -33.75 61.35 -42.9 50.6 -42.9 M0.4 73.1 Q-7.3 74.0 -30.0 71.6 -52.75 69.15 -83.9 40.95 -115.05 12.7 -102.6 -38.35 -90.2 -89.4 -77.6 -81.2 -65.1 -73.05 -22.45 -66.7 20.2 -60.35 47.95 -75.05 75.7 -89.75 84.35 -44.9 92.95 -0.1 81.6 20.05 78.95 30.9 85.85 36.05 L90.65 31.3 106.2 46.85 99.95 53.1 76.95 76.1 70.7 82.35 55.15 66.8 58.75 63.2 Q54.0 54.95 44.5 67.4 L28.8 70.8 30.25 69.45 34.0 65.95 Q35.95 64.0 31.45 68.2 L31.0 68.6 Q43.2 53.9 43.2 43.8 43.2 30.85 34.0 21.65 24.8 12.5 11.85 12.5 -1.1 12.5 -10.3 21.65 -19.45 30.85 -19.45 43.8 -19.45 56.75 -10.3 65.95 -5.45 70.75 0.4 73.1 M85.85 36.05 L58.75 63.2 85.85 36.05 M44.5 67.4 Q43.6 53.65 51.95 42.25 60.25 30.85 81.6 20.05 60.25 30.85 51.95 42.25 43.6 53.65 44.5 67.4 M-62.05 -29.5 Q-69.65 -20.3 -69.65 -7.35 -69.65 5.55 -62.05 14.7 -54.45 23.85 -43.7 23.9 -33.0 23.85 -25.4 14.7 -17.8 5.55 -17.8 -7.35 -17.8 -20.3 -25.4 -29.5 -33.0 -38.65 -43.7 -38.6 -54.45 -38.65 -62.05 -29.5" fill="#333333" fill-rule="evenodd" stroke="none"/>
      <path d="M99.95 53.1 L104.2 57.95 Q97.65 72.45 82.4 80.3 L76.95 76.1 99.95 53.1" fill="#666666" fill-rule="evenodd" stroke="none"/>
      <path d="M28.8 70.8 Q23.95 75.15 11.85 75.15 5.7 75.15 0.4 73.1 -5.45 70.75 -10.3 65.95 -19.45 56.75 -19.45 43.8 -19.45 30.85 -10.3 21.65 -1.1 12.5 11.85 12.5 24.8 12.5 34.0 21.65 43.2 30.85 43.2 43.8 43.2 53.9 31.0 68.6 L31.45 68.2 Q35.95 64.0 34.0 65.95 L30.25 69.45 28.8 70.8 M37.25 30.4 Q35.8 28.35 33.95 26.45 26.55 19.1 16.15 19.1 5.7 19.1 -1.7 26.45 -5.15 29.9 -6.95 34.05 -9.1 38.7 -9.05 44.3 -9.05 54.7 -1.7 62.05 5.4 69.15 15.25 69.45 L16.15 69.45 16.75 69.45 Q24.8 69.3 31.0 64.65 L33.95 62.05 Q41.35 54.7 41.35 44.3 41.35 36.5 37.25 30.4 M28.0 36.85 Q30.1 40.15 30.1 44.3 30.1 50.05 26.0 54.15 22.15 58.05 16.75 58.25 L16.75 53.8 16.75 58.25 16.15 58.25 Q10.35 58.25 6.25 54.15 2.15 50.05 2.15 44.3 2.15 41.45 3.15 39.05 4.15 36.5 6.25 34.4 10.35 30.35 16.15 30.35 21.9 30.35 26.0 34.4 L28.0 36.85 24.35 39.45 28.0 36.85 M16.75 53.8 Q20.3 53.55 22.85 51.0 25.65 48.2 25.65 44.3 25.6 41.6 24.35 39.45 L22.85 37.55 Q20.1 34.75 16.15 34.8 12.2 34.75 9.4 37.55 7.85 39.1 7.2 41.05 6.65 42.55 6.65 44.3 6.65 48.2 9.4 51.0 12.2 53.75 16.15 53.8 L16.75 53.8 M3.15 39.05 L7.2 41.05 3.15 39.05 M31.45 68.2 L30.25 69.45 31.45 68.2" fill="#444444" fill-rule="evenodd" stroke="none"/>
      <path d="M37.25 30.4 Q41.35 36.5 41.35 44.3 41.35 54.7 33.95 62.05 L31.0 64.65 Q24.8 69.3 16.75 69.45 L16.15 69.45 15.25 69.45 Q5.4 69.15 -1.7 62.05 -9.05 54.7 -9.05 44.3 -9.1 38.7 -6.95 34.05 -5.15 29.9 -1.7 26.45 5.7 19.1 16.15 19.1 26.55 19.1 33.95 26.45 35.8 28.35 37.25 30.4 L28.0 36.85 37.25 30.4 M16.75 58.25 Q22.15 58.05 26.0 54.15 30.1 50.05 30.1 44.3 30.1 40.15 28.0 36.85 L26.0 34.4 Q21.9 30.35 16.15 30.35 10.35 30.35 6.25 34.4 4.15 36.5 3.15 39.05 2.15 41.45 2.15 44.3 2.15 50.05 6.25 54.15 10.35 58.25 16.15 58.25 L16.75 58.25 16.75 69.45 16.75 58.25 M24.35 39.45 Q25.6 41.6 25.65 44.3 25.65 48.2 22.85 51.0 20.3 53.55 16.75 53.8 L16.15 53.8 Q12.2 53.75 9.4 51.0 6.65 48.2 6.65 44.3 6.65 42.55 7.2 41.05 7.85 39.1 9.4 37.55 12.2 34.75 16.15 34.8 20.1 34.75 22.85 37.55 L24.35 39.45 M-6.95 34.05 L3.15 39.05 -6.95 34.05" fill="#1e1e1e" fill-rule="evenodd" stroke="none"/>
      <path d="M35.6 -29.6 Q41.15 -37.05 49.0 -37.05 56.85 -37.05 62.4 -29.6 67.95 -22.15 67.95 -11.65 67.95 -1.15 62.4 6.3 56.85 13.75 49.0 13.75 41.15 13.75 35.6 6.3 30.05 -1.15 30.05 -11.65 30.05 -22.15 35.6 -29.6 M50.6 -42.9 Q61.35 -42.9 68.95 -33.75 76.5 -24.6 76.5 -11.65 76.5 1.25 68.95 10.4 61.35 19.6 50.6 19.6 39.85 19.6 32.25 10.4 24.65 1.25 24.7 -11.65 24.65 -24.6 32.25 -33.75 39.85 -42.9 50.6 -42.9 M0.4 73.1 Q-7.3 74.0 -30.0 71.6 -52.75 69.15 -83.9 40.95 -115.05 12.7 -102.6 -38.35 -90.2 -89.4 -77.6 -81.2 -65.1 -73.05 -22.45 -66.7 20.2 -60.35 47.95 -75.05 75.7 -89.75 84.35 -44.9 92.95 -0.1 81.6 20.05 78.95 30.9 85.85 36.05 L90.65 31.3 106.2 46.85 99.95 53.1 104.2 57.95 Q97.65 72.45 82.4 80.3 L76.95 76.1 70.7 82.35 55.15 66.8 58.75 63.2 Q54.0 54.95 44.5 67.4 L28.8 70.8 Q23.95 75.15 11.85 75.15 5.7 75.15 0.4 73.1 -5.45 70.75 -10.3 65.95 -19.45 56.75 -19.45 43.8 -19.45 30.85 -10.3 21.65 -1.1 12.5 11.85 12.5 24.8 12.5 34.0 21.65 43.2 30.85 43.2 43.8 43.2 53.9 31.0 68.6 L31.45 68.2 Q35.95 64.0 34.0 65.95 L30.25 69.45 28.8 70.8 M99.95 53.1 L76.95 76.1 M30.25 69.45 L31.45 68.2 M81.6 20.05 Q60.25 30.85 51.95 42.25 43.6 53.65 44.5 67.4 M58.75 63.2 L85.85 36.05 M-62.05 -29.5 Q-54.45 -38.65 -43.7 -38.6 -33.0 -38.65 -25.4 -29.5 -17.8 -20.3 -17.8 -7.35 -17.8 5.55 -25.4 14.7 -33.0 23.85 -43.7 23.9 -54.45 23.85 -62.05 14.7 -69.65 5.55 -69.65 -7.35 -69.65 -20.3 -62.05 -29.5 M-58.7 -25.35 Q-53.15 -32.75 -45.3 -32.75 -37.45 -32.75 -31.9 -25.35 -26.35 -17.9 -26.35 -7.35 -26.35 3.15 -31.9 10.55 -37.45 18.0 -45.3 18.0 -53.15 18.0 -58.7 10.55 -64.25 3.15 -64.25 -7.35 -64.25 -17.9 -58.7 -25.35" fill="none" stroke="#000000" stroke-linecap="round" stroke-linejoin="round" stroke-width="4.0"/>
      <path d="M37.25 30.4 Q41.35 36.5 41.35 44.3 41.35 54.7 33.95 62.05 L31.0 64.65 Q24.8 69.3 16.75 69.45 L16.15 69.45 15.25 69.45 Q5.4 69.15 -1.7 62.05 -9.05 54.7 -9.05 44.3 -9.1 38.7 -6.95 34.05 -5.15 29.9 -1.7 26.45 5.7 19.1 16.15 19.1 26.55 19.1 33.95 26.45 35.8 28.35 37.25 30.4 L28.0 36.85 Q30.1 40.15 30.1 44.3 30.1 50.05 26.0 54.15 22.15 58.05 16.75 58.25 L16.75 69.45 M3.15 39.05 Q4.15 36.5 6.25 34.4 10.35 30.35 16.15 30.35 21.9 30.35 26.0 34.4 L28.0 36.85 24.35 39.45 Q25.6 41.6 25.65 44.3 25.65 48.2 22.85 51.0 20.3 53.55 16.75 53.8 L16.75 58.25 16.15 58.25 Q10.35 58.25 6.25 54.15 2.15 50.05 2.15 44.3 2.15 41.45 3.15 39.05 L-6.95 34.05 M24.35 39.45 L22.85 37.55 Q20.1 34.75 16.15 34.8 12.2 34.75 9.4 37.55 7.85 39.1 7.2 41.05 6.65 42.55 6.65 44.3 6.65 48.2 9.4 51.0 12.2 53.75 16.15 53.8 L16.75 53.8 M7.2 41.05 L3.15 39.05" fill="none" stroke="#000000" stroke-linecap="round" stroke-linejoin="round" stroke-width="2.0"/>
    </g>
  </defs>
</svg>
