<?xml version="1.0" encoding="UTF-8" standalone="no"?>
<svg xmlns:xlink="http://www.w3.org/1999/xlink" height="720.75px" width="1716.8px" xmlns="http://www.w3.org/2000/svg">
  <g transform="matrix(1, 0, 0, 1, 307.05, 450.35)">
    <use height="116.6" transform="matrix(1.0, 0.0, 0.0, 1.0, -19.0, -58.3)" width="38.0" xlink:href="#shape0"/>
  </g>
  <defs>
    <g id="shape0" transform="matrix(1, 0, 0, 1, 19.0, 58.3)">
      <path d="M14.75 -49.4 Q12.25 -48.85 10.05 -47.2 8.85 -46.3 7.4 -46.2 L5.7 -46.4 2.85 -47.0 1.5 -47.25 0.45 -47.45 -0.25 -47.55 -1.05 -47.7 -1.35 -47.7 Q-1.55 -48.7 -2.2 -49.5 L-2.4 -49.75 -3.15 -50.75 -2.3 -51.35 Q-1.85 -51.5 -1.5 -51.75 L-0.8 -52.45 Q-0.5 -52.85 -0.6 -53.3 L-0.8 -53.5 -1.05 -53.7 -1.3 -53.85 -0.35 -53.95 -0.25 -53.95 -0.15 -53.6 0.6 -52.45 -0.85 -51.5 -1.4 -50.15 -1.4 -50.1 Q-1.55 -48.8 -0.95 -48.4 L-0.65 -48.05 -0.35 -47.8 Q0.0 -47.6 0.5 -47.55 L1.25 -47.5 1.8 -47.5 2.0 -47.5 2.95 -47.2 Q4.35 -47.0 6.2 -48.1 L8.3 -49.15 Q11.25 -50.3 14.55 -49.75 L14.7 -49.5 14.75 -49.4 M6.8 -54.55 L7.3 -54.85 6.95 -53.6 6.85 -53.15 6.25 -51.85 Q5.7 -53.0 4.75 -53.75 L5.65 -54.0 6.8 -54.55 M1.8 -51.5 L2.15 -51.3 2.3 -51.25 3.9 -50.55 4.05 -49.9 4.0 -49.7 4.0 -49.5 3.65 -49.3 0.5 -48.8 0.4 -49.05 0.3 -49.25 -0.1 -49.6 -0.5 -50.15 0.15 -50.4 Q1.3 -50.7 1.6 -51.6 L1.8 -51.5 M1.65 -53.0 L1.4 -53.8 Q2.9 -53.5 4.25 -52.55 L5.05 -51.85 5.8 -51.1 5.4 -50.55 4.95 -51.35 4.2 -51.9 3.6 -52.2 1.65 -53.0 M8.9 -56.25 L9.7 -56.2 11.05 -56.05 10.9 -55.15 Q10.3 -53.8 9.35 -52.7 L9.05 -52.4 8.15 -51.15 7.7 -49.95 7.75 -49.95 7.7 -49.9 6.2 -49.25 7.4 -50.5 7.95 -51.3 8.8 -53.15 Q9.3 -54.7 8.9 -56.25 M15.75 -46.2 L15.8 -46.05 Q12.45 -43.7 7.9 -43.95 L3.4 -44.75 1.6 -45.45 3.55 -44.85 7.15 -44.75 Q8.2 -44.9 9.0 -45.35 11.3 -46.65 13.55 -47.45 14.35 -46.65 15.75 -46.2 M3.0 -34.7 L4.2 -33.15 Q0.3 -33.35 -2.55 -36.1 -5.7 -39.1 -7.6 -42.55 L-8.15 -42.45 Q-7.6 -43.15 -7.35 -44.25 L-6.45 -48.05 -5.25 -52.4 -4.9 -52.6 -3.8 -53.1 -2.8 -53.5 Q-2.7 -53.1 -2.9 -52.8 -3.3 -52.4 -3.8 -52.25 L-3.85 -52.25 -4.2 -51.85 -4.35 -51.3 -4.45 -50.95 -4.5 -50.8 -4.6 -50.4 -4.5 -50.3 Q-5.75 -47.5 -3.85 -44.85 -1.25 -41.2 1.8 -37.9 1.9 -36.15 3.0 -34.7 M11.8 -42.8 L11.9 -42.4 Q14.05 -34.7 11.7 -26.9 11.05 -24.85 9.4 -23.6 3.55 -19.35 -3.1 -20.75 L-3.0 -21.05 -3.35 -21.25 -4.65 -21.15 -5.15 -21.3 -5.15 -21.2 -6.65 -21.6 Q-8.3 -22.3 -9.3 -23.6 L-9.35 -23.6 -9.7 -23.6 Q-10.2 -25.2 -10.2 -27.0 -10.2 -29.9 -9.15 -32.75 -7.75 -36.5 -7.9 -40.15 L-5.5 -37.15 Q-1.05 -31.15 4.9 -32.35 L5.8 -31.3 Q6.45 -31.95 6.0 -32.65 3.1 -37.6 -0.25 -41.9 L-1.85 -44.35 Q-2.85 -46.2 -3.15 -48.05 L-2.75 -47.45 -2.55 -47.25 -2.45 -47.05 Q-1.65 -45.85 -0.65 -44.95 2.85 -41.65 8.75 -42.3 L11.8 -42.8 M-8.65 -41.95 L-8.55 -41.75 -8.6 -41.4 Q-9.7 -38.65 -9.95 -35.05 -10.75 -36.95 -12.1 -38.7 -13.65 -40.75 -14.65 -43.0 -12.75 -46.35 -9.75 -49.15 L-7.45 -51.05 Q-8.15 -49.6 -8.35 -47.8 L-9.15 -41.65 -8.65 -41.95" fill="#b30000" fill-rule="evenodd" stroke="none"/>
      <path d="M7.55 -57.15 L7.4 -57.6 7.8 -57.95 7.8 -58.25 8.0 -58.3 8.2 -57.95 8.4 -57.85 11.2 -57.7 11.9 -57.45 12.2 -57.3 Q12.75 -55.35 11.75 -53.5 L9.85 -50.85 13.9 -51.3 14.65 -51.35 16.0 -50.15 Q16.5 -49.45 16.6 -48.6 L16.6 -48.45 16.6 -48.35 16.55 -48.3 16.55 -48.25 Q16.0 -47.75 15.6 -48.1 L15.15 -47.95 15.8 -47.65 Q17.05 -47.1 17.7 -45.85 L17.75 -45.0 Q15.45 -43.8 12.95 -43.05 15.2 -36.25 13.55 -29.35 L13.7 -29.4 15.5 -29.35 Q16.65 -29.3 17.5 -28.65 18.4 -28.0 18.95 -26.95 L18.95 -26.35 15.0 -25.8 12.65 -25.6 12.35 -25.6 Q10.65 -21.4 6.95 -19.65 11.6 -17.75 13.85 -13.25 16.15 -8.75 12.55 -4.85 11.35 -3.6 9.85 -3.85 10.4 -5.65 10.45 -7.8 10.55 -13.15 5.55 -16.15 3.85 -17.15 3.4 -18.65 L3.05 -18.6 1.05 -18.55 Q0.6 -16.5 0.5 -14.4 L0.65 -14.45 3.5 -13.6 4.0 -13.05 3.95 -12.85 Q3.4 -11.75 2.4 -11.15 1.5 -10.6 0.5 -10.35 0.85 -5.8 2.55 -1.2 L3.2 0.55 Q3.6 -0.6 4.8 -1.45 L7.25 -4.05 7.45 -4.1 Q8.4 -1.45 8.15 1.65 7.85 5.05 4.85 6.1 7.85 14.0 7.65 20.7 7.45 27.3 4.35 32.35 1.2 37.4 -2.35 43.75 -1.55 44.0 -0.8 44.4 L0.65 45.35 1.05 45.75 Q1.25 46.8 0.15 47.2 -1.85 47.9 -3.75 48.95 -4.7 49.4 -5.35 49.25 L-6.3 51.05 Q-7.15 52.65 -6.95 54.55 -6.9 55.75 -7.15 56.75 L-6.95 57.65 -7.0 58.05 -7.45 58.25 Q-8.05 58.45 -8.55 58.0 L-8.8 57.5 Q-10.2 56.35 -11.1 51.8 -11.95 47.15 -7.55 41.6 -3.15 35.95 0.3 30.55 -0.85 30.75 -2.2 29.85 -3.0 29.25 -2.95 28.4 -2.35 27.5 -1.15 27.15 L1.3 26.1 1.4 26.05 1.6 24.75 Q-0.35 24.55 -2.2 23.0 -2.15 21.65 -0.8 21.2 L1.7 20.05 1.75 20.0 Q1.6 15.65 0.25 11.05 -0.25 11.75 -1.65 11.8 -3.55 11.85 -4.95 10.9 -4.55 9.55 -3.65 8.45 L-1.9 6.5 -1.4 6.15 -3.6 -1.15 -6.85 -1.05 -7.45 -1.25 Q-7.5 -2.7 -6.35 -3.9 L-5.4 -5.1 -5.05 -6.0 -4.9 -6.3 -5.1 -7.0 Q-6.7 -13.9 -4.0 -19.75 L-4.65 -19.6 -4.65 -19.45 Q-4.65 -18.8 -5.1 -18.25 L-5.4 -17.95 -5.85 -18.1 Q-6.85 -14.4 -9.4 -10.55 -10.7 -8.6 -11.3 -6.15 -12.25 -2.35 -10.65 1.0 -13.7 -0.3 -14.7 -4.55 -16.25 -11.1 -14.3 -17.7 -13.25 -21.15 -10.25 -22.7 -12.5 -24.85 -11.15 -28.9 -12.55 -29.1 -12.95 -30.85 -13.1 -31.45 -13.75 -31.55 -16.85 -32.15 -19.0 -33.45 -18.15 -34.6 -16.6 -34.95 L-14.95 -35.35 -12.1 -35.4 -13.05 -36.65 Q-14.75 -39.05 -15.3 -41.8 L-15.5 -42.85 -15.5 -42.9 -15.5 -43.0 Q-15.6 -45.25 -13.8 -47.3 L-9.45 -51.95 Q-5.5 -56.0 0.4 -55.95 1.9 -55.5 3.25 -54.75 L4.85 -55.85 7.55 -57.15 M8.9 -56.25 Q9.3 -54.7 8.8 -53.15 L7.95 -51.3 7.4 -50.5 6.2 -49.25 7.7 -49.9 7.75 -49.95 7.7 -49.95 8.15 -51.15 9.05 -52.4 9.35 -52.7 Q10.3 -53.8 10.9 -55.15 L11.05 -56.05 9.7 -56.2 8.9 -56.25 M1.65 -53.0 L3.6 -52.2 4.2 -51.9 4.95 -51.35 5.4 -50.55 5.8 -51.1 5.05 -51.85 4.25 -52.55 Q2.9 -53.5 1.4 -53.8 L1.65 -53.0 M1.8 -51.5 L1.6 -51.6 Q1.3 -50.7 0.15 -50.4 L-0.5 -50.15 -0.1 -49.6 0.3 -49.25 0.4 -49.05 0.5 -48.8 3.65 -49.3 4.0 -49.5 4.0 -49.7 4.05 -49.9 3.9 -50.55 2.3 -51.25 2.15 -51.3 1.8 -51.5 M6.8 -54.55 L5.65 -54.0 4.75 -53.75 Q5.7 -53.0 6.25 -51.85 L6.85 -53.15 6.95 -53.6 7.3 -54.85 6.8 -54.55 M14.7 -49.5 L14.55 -49.75 Q11.25 -50.3 8.3 -49.15 L6.2 -48.1 Q4.35 -47.0 2.95 -47.2 L2.0 -47.5 1.8 -47.5 1.25 -47.5 0.5 -47.55 Q0.0 -47.6 -0.35 -47.8 L-0.65 -48.05 -0.95 -48.4 Q-1.55 -48.8 -1.4 -50.1 L-1.4 -50.15 -0.85 -51.5 0.6 -52.45 -0.15 -53.6 -0.25 -53.95 -0.35 -53.95 -1.3 -53.85 -1.05 -53.7 -0.8 -53.5 -0.6 -53.3 Q-0.5 -52.85 -0.8 -52.45 L-1.5 -51.75 Q-1.85 -51.5 -2.3 -51.35 L-3.15 -50.75 -2.4 -49.75 -2.2 -49.5 Q-1.55 -48.7 -1.35 -47.7 L-1.05 -47.7 -0.25 -47.55 0.45 -47.45 1.5 -47.25 2.85 -47.0 5.7 -46.4 7.4 -46.2 Q8.85 -46.3 10.05 -47.2 12.25 -48.85 14.75 -49.4 L14.8 -49.4 14.7 -49.5 M15.8 -46.05 L15.85 -46.1 15.75 -46.2 Q14.35 -46.65 13.55 -47.45 11.3 -46.65 9.0 -45.35 8.2 -44.9 7.15 -44.75 L3.55 -44.85 1.6 -45.45 3.4 -44.75 7.9 -43.95 Q12.45 -43.7 15.8 -46.05 M11.8 -42.8 L8.75 -42.3 Q2.85 -41.65 -0.65 -44.95 -1.65 -45.85 -2.45 -47.05 L-2.55 -47.25 -2.75 -47.45 -3.15 -48.05 Q-2.85 -46.2 -1.85 -44.35 L-0.25 -41.9 Q3.1 -37.6 6.0 -32.65 6.45 -31.95 5.8 -31.3 L4.9 -32.35 Q-1.05 -31.15 -5.5 -37.15 L-7.9 -40.15 Q-7.75 -36.5 -9.15 -32.75 -10.2 -29.9 -10.2 -27.0 -10.2 -25.2 -9.7 -23.6 L-9.35 -23.6 -9.3 -23.6 Q-8.3 -22.3 -6.65 -21.6 L-5.15 -21.2 -5.15 -21.3 -4.65 -21.15 -3.35 -21.25 -3.0 -21.05 -3.1 -20.75 Q3.55 -19.35 9.4 -23.6 11.05 -24.85 11.7 -26.9 14.05 -34.7 11.9 -42.4 L11.8 -42.8 M3.0 -34.7 Q1.9 -36.15 1.8 -37.9 -1.25 -41.2 -3.85 -44.85 -5.75 -47.5 -4.5 -50.3 L-4.6 -50.4 -4.5 -50.8 -4.45 -50.95 -4.35 -51.3 -4.2 -51.85 -3.85 -52.25 -3.8 -52.25 Q-3.3 -52.4 -2.9 -52.8 -2.7 -53.1 -2.8 -53.5 L-3.8 -53.1 -4.9 -52.6 -5.25 -52.4 -6.45 -48.05 -7.35 -44.25 Q-7.6 -43.15 -8.15 -42.45 L-7.6 -42.55 Q-5.7 -39.1 -2.55 -36.1 0.3 -33.35 4.2 -33.15 L3.0 -34.7 M13.95 -27.35 L16.05 -27.75 Q15.6 -28.2 14.9 -28.2 L13.2 -27.9 13.15 -27.9 12.85 -27.0 13.95 -27.35 M5.1 -18.95 L5.1 -19.0 4.5 -18.85 5.55 -18.45 5.15 -18.8 5.1 -18.95 M1.7 -12.6 L1.8 -12.65 1.7 -12.7 0.45 -13.0 0.45 -11.9 1.7 -12.6 M12.65 -8.2 L13.05 -8.6 13.25 -9.0 13.35 -9.3 13.4 -9.5 Q13.4 -9.85 13.75 -10.0 L13.85 -10.15 13.25 -11.9 Q12.45 -14.3 10.35 -15.7 L6.5 -18.45 6.25 -18.45 5.6 -18.4 7.0 -17.4 Q10.1 -14.5 11.8 -10.75 L12.45 -8.15 12.45 -8.1 12.65 -8.2 M6.7 -1.05 L5.3 0.55 Q4.5 1.55 3.55 1.6 L4.7 5.4 6.25 3.05 Q7.1 1.35 6.8 -0.4 L6.7 -1.05 M1.8 21.5 L0.3 22.25 -0.05 22.5 1.7 23.6 1.8 21.5 M2.95 24.65 L2.85 24.7 Q1.35 33.9 -5.75 42.15 -8.6 45.45 -9.1 49.55 -9.5 52.6 -8.5 55.75 L-8.4 55.7 Q-8.85 52.85 -7.25 49.45 -3.75 41.95 1.05 35.1 10.2 21.9 3.8 6.55 0.9 -0.4 -0.55 -7.7 -1.7 -13.7 0.6 -18.55 -2.5 -18.3 -3.1 -19.4 -3.75 -20.5 -4.15 -16.45 -4.6 -12.4 -2.9 -5.35 -1.2 1.65 0.35 5.6 4.25 15.45 2.9 24.45 L2.95 24.65 M1.1 27.6 L-0.05 28.2 -0.65 28.55 0.15 29.15 0.65 29.5 1.1 27.6 M-8.55 -41.75 L-8.25 -42.3 -8.65 -41.95 -9.15 -41.65 -8.35 -47.8 Q-8.15 -49.6 -7.45 -51.05 L-9.75 -49.15 Q-12.75 -46.35 -14.65 -43.0 -13.65 -40.75 -12.1 -38.7 -10.75 -36.95 -9.95 -35.05 -9.7 -38.65 -8.6 -41.4 L-8.55 -41.75 M-10.65 -30.4 L-10.1 -33.35 -10.45 -33.65 -10.75 -33.7 -14.85 -33.9 Q-13.15 -33.5 -11.5 -31.45 L-10.8 -30.4 -10.7 -30.25 -10.65 -30.4 M-9.7 -21.5 L-9.8 -21.6 -9.8 -21.55 Q-10.2 -20.4 -11.65 -18.95 -14.4 -16.3 -14.3 -12.6 -14.25 -8.5 -12.7 -4.75 -11.95 -8.15 -10.65 -11.35 -9.1 -15.0 -6.95 -18.55 L-6.35 -19.15 -6.35 -19.2 -6.25 -19.75 Q-8.1 -20.15 -9.7 -21.5 M-5.45 -2.75 L-3.95 -2.4 -4.45 -4.35 -5.2 -3.1 -5.45 -2.75 M-1.3 7.95 L-2.7 9.6 -2.9 9.95 Q-2.15 10.45 -0.9 9.6 L-0.3 9.4 -0.45 8.9 -0.9 7.6 -1.3 7.95 M-4.3 47.4 L-1.65 46.45 -1.2 46.2 Q-1.05 45.7 -2.15 45.3 L-2.9 44.7 -4.35 47.4 -4.4 47.45 -4.3 47.4" fill="#000000" fill-rule="evenodd" stroke="none"/>
      <path d="M5.1 -18.95 L5.15 -18.8 5.55 -18.45 4.5 -18.85 5.1 -19.0 5.1 -18.95 M13.95 -27.35 L12.85 -27.0 13.15 -27.9 13.2 -27.9 14.9 -28.2 Q15.6 -28.2 16.05 -27.75 L13.95 -27.35 M1.7 -12.7 L1.7 -12.6 0.45 -11.9 0.45 -13.0 1.7 -12.7 M12.45 -8.15 L11.8 -10.75 Q10.1 -14.5 7.0 -17.4 L5.6 -18.4 6.25 -18.45 6.5 -18.45 10.35 -15.7 Q12.45 -14.3 13.25 -11.9 L13.85 -10.15 13.75 -10.0 Q13.4 -9.85 13.4 -9.5 L13.35 -9.3 13.25 -9.0 13.05 -8.6 12.65 -8.2 12.45 -8.15 M1.1 27.6 L0.65 29.5 0.15 29.15 -0.65 28.55 -0.05 28.2 1.1 27.6 M2.95 24.65 L2.9 24.45 Q4.25 15.45 0.35 5.6 -1.2 1.65 -2.9 -5.35 -4.6 -12.4 -4.15 -16.45 -3.75 -20.5 -3.1 -19.4 -2.5 -18.3 0.6 -18.55 -1.7 -13.7 -0.55 -7.7 0.9 -0.4 3.8 6.55 10.2 21.9 1.05 35.1 -3.75 41.95 -7.25 49.45 -8.85 52.85 -8.4 55.7 L-8.5 55.75 Q-9.5 52.6 -9.1 49.55 -8.6 45.45 -5.75 42.15 1.35 33.9 2.85 24.7 L2.95 24.65 M1.8 21.5 L1.7 23.6 -0.05 22.5 0.3 22.25 1.8 21.5 M6.7 -1.05 L6.8 -0.4 Q7.1 1.35 6.25 3.05 L4.7 5.4 3.55 1.6 Q4.5 1.55 5.3 0.55 L6.7 -1.05 M-10.8 -30.4 L-11.5 -31.45 Q-13.15 -33.5 -14.85 -33.9 L-10.75 -33.7 -10.45 -33.65 -10.1 -33.35 -10.65 -30.4 -10.8 -30.4 M-9.7 -21.5 Q-8.1 -20.15 -6.25 -19.75 L-6.35 -19.2 -6.35 -19.15 -6.95 -18.55 Q-9.1 -15.0 -10.65 -11.35 -11.95 -8.15 -12.7 -4.75 -14.25 -8.5 -14.3 -12.6 -14.4 -16.3 -11.65 -18.95 -10.2 -20.4 -9.8 -21.55 L-9.7 -21.5 M-4.35 47.4 L-2.9 44.7 -2.15 45.3 Q-1.05 45.7 -1.2 46.2 L-1.65 46.45 -4.3 47.4 -4.35 47.4 M-1.3 7.95 L-0.9 7.6 -0.45 8.9 -0.3 9.4 -0.9 9.6 Q-2.15 10.45 -2.9 9.95 L-2.7 9.6 -1.3 7.95 M-5.45 -2.75 L-5.2 -3.1 -4.45 -4.35 -3.95 -2.4 -5.45 -2.75" fill="#3c783a" fill-rule="evenodd" stroke="none"/>
    </g>
  </defs>
</svg>
