<?xml version="1.0" encoding="UTF-8" standalone="no"?>
<svg xmlns:xlink="http://www.w3.org/1999/xlink" height="720.75px" width="1716.8px" xmlns="http://www.w3.org/2000/svg">
  <g transform="matrix(1, 0, 0, 1, 307.05, 450.35)">
    <use height="106.0" transform="matrix(0.4089, -0.9114, 0.9114, 0.4089, -89.7194, 57.1787)" width="173.15" xlink:href="#sprite0"/>
  </g>
  <defs>
    <g id="sprite0" transform="matrix(1, 0, 0, 1, 8.0, 96.5)">
      <use height="106.0" transform="matrix(1.0, 0.0, 0.0, 1.0, -8.0, -96.5)" width="173.15" xlink:href="#shape0"/>
    </g>
    <g id="shape0" transform="matrix(1, 0, 0, 1, 8.0, 96.5)">
      <path d="M70.1 -53.5 Q70.9 -57.35 73.45 -62.0 75.55 -66.0 78.9 -70.55 L79.8 -70.9 Q82.9 -68.3 93.4 -62.0 99.5 -58.3 108.15 -53.35 L111.1 -51.65 Q111.65 -51.75 111.65 -52.0 L112.15 -54.75 111.95 -55.5 121.45 -62.75 122.0 -63.15 126.2 -66.4 132.15 -71.2 133.65 -65.95 136.55 -56.35 Q133.7 -55.3 126.55 -51.55 114.15 -45.05 114.15 -44.25 114.15 -42.6 114.85 -42.1 L116.65 -41.5 133.0 -46.9 141.85 -49.85 141.85 -49.9 Q142.15 -50.95 142.15 -53.6 L139.5 -64.35 152.5 -68.0 Q153.25 -65.3 156.05 -58.75 159.9 -49.55 159.9 -48.25 159.9 -45.0 150.05 -44.55 L138.15 -44.75 137.95 -44.3 137.9 -44.3 133.15 -46.5 Q131.75 -46.5 130.15 -43.5 134.85 -39.8 145.85 -35.1 L148.25 -34.1 148.15 -34.0 Q148.8 -29.55 148.65 -26.9 148.45 -22.0 144.5 -22.0 143.5 -22.0 138.3 -25.15 L137.9 -25.6 Q132.85 -28.55 131.75 -29.25 L120.65 -36.5 118.85 -36.25 118.4 -36.0 118.15 -33.75 118.2 -33.55 Q118.8 -32.0 128.9 -24.25 130.85 -22.75 132.65 -21.5 133.4 -19.55 135.3 -17.7 140.15 -13.05 142.15 -9.75 126.0 -4.75 120.15 -4.75 117.95 -4.75 116.85 -10.6 116.3 -13.75 115.15 -15.2 118.15 -28.8 118.15 -31.5 L117.8 -33.35 Q117.2 -34.95 115.65 -36.5 114.45 -34.85 110.8 -19.05 107.4 -4.35 107.2 -0.45 99.2 1.25 95.05 -2.4 L95.0 -2.4 95.05 -2.6 95.1 -2.6 95.7 -4.35 97.4 -19.5 97.8 -22.3 100.55 -31.65 100.45 -31.65 100.7 -32.15 100.95 -32.7 Q102.65 -36.4 105.15 -39.5 L104.4 -40.8 Q104.05 -41.15 103.5 -41.3 L103.45 -41.35 102.15 -41.5 Q97.2 -41.5 94.35 -29.7 L85.0 -25.75 Q78.25 -22.85 74.8 -20.95 73.7 -24.2 72.4 -30.45 L70.7 -36.8 71.9 -37.25 71.95 -37.55 85.8 -41.6 Q95.7 -44.55 105.65 -47.0 L106.15 -49.75 Q106.15 -52.5 100.15 -52.5 97.2 -52.5 84.1 -48.05 L79.5 -50.45 Q73.2 -53.5 70.15 -53.5 L70.1 -53.5 M75.85 -45.1 L73.5 -44.25 73.9 -45.85 74.25 -45.7 75.85 -45.1 M138.05 -83.3 L138.1 -83.25 138.9 -81.75 137.8 -81.1 135.65 -81.5 135.4 -81.45 Q125.95 -75.1 120.85 -70.75 L120.5 -70.7 Q120.15 -72.55 120.15 -73.5 L120.7 -77.25 121.05 -80.85 Q122.3 -81.65 124.6 -84.25 L128.15 -88.0 Q135.7 -86.2 138.05 -83.3 M83.55 -75.85 L83.9 -77.0 Q86.45 -81.4 92.2 -81.75 L93.55 -81.8 93.35 -80.25 Q93.15 -78.35 93.15 -71.05 87.55 -74.6 83.55 -75.85 M115.15 -91.25 Q116.15 -88.6 116.15 -85.1 115.2 -79.25 115.2 -73.65 115.15 -69.1 115.9 -66.4 110.4 -61.45 108.85 -59.1 L108.15 -59.7 105.5 -62.0 99.7 -66.5 98.35 -67.5 98.15 -70.1 Q98.15 -72.65 98.9 -80.25 99.0 -83.3 98.6 -85.65 L102.95 -87.9 Q110.5 -91.3 115.15 -91.25 M109.25 -51.5 L108.95 -51.6 109.15 -51.5 109.25 -51.5 M92.65 -21.05 L92.45 -19.5 Q92.15 -16.9 92.15 -14.6 92.15 -12.5 92.3 -10.7 L91.5 -9.3 Q90.55 -7.0 87.0 -7.0 83.3 -7.0 79.15 -9.5 L81.75 -13.75 84.05 -17.65 88.05 -19.1 89.1 -19.5 92.65 -21.05" fill="#e6e6e6" fill-rule="evenodd" stroke="none"/>
      <path d="M138.15 -44.75 L150.05 -44.55 Q159.9 -45.0 159.9 -48.25 159.9 -49.55 156.05 -58.75 153.25 -65.3 152.5 -68.0 L139.5 -64.35 142.15 -53.6 Q142.15 -50.95 141.85 -49.9 L141.85 -49.85 133.0 -46.9 116.65 -41.5 114.85 -42.1 Q114.15 -42.6 114.15 -44.25 114.15 -45.05 126.55 -51.55 133.7 -55.3 136.55 -56.35 L133.65 -65.95 132.15 -71.2 126.2 -66.4 122.0 -63.15 121.45 -62.75 111.95 -55.5 112.15 -54.75 111.65 -52.0 Q111.65 -51.75 111.1 -51.65 L108.15 -53.35 Q99.5 -58.3 93.4 -62.0 82.9 -68.3 79.8 -70.9 L78.9 -70.55 Q75.55 -66.0 73.45 -62.0 70.9 -57.35 70.1 -53.5 L70.15 -53.5 Q73.2 -53.5 79.5 -50.45 L84.1 -48.05 Q97.2 -52.5 100.15 -52.5 106.15 -52.5 106.15 -49.75 L105.65 -47.0 Q95.7 -44.55 85.8 -41.6 L71.95 -37.55 71.9 -37.25 70.7 -36.8 72.4 -30.45 Q73.7 -24.2 74.8 -20.95 78.25 -22.85 85.0 -25.75 L94.35 -29.7 Q97.2 -41.5 102.15 -41.5 L103.45 -41.35 103.5 -41.3 Q104.05 -41.15 104.4 -40.8 L105.15 -39.5 Q102.65 -36.4 100.95 -32.7 L100.7 -32.15 100.45 -31.65 100.35 -31.35 100.55 -31.65 97.8 -22.3 97.4 -19.5 95.7 -4.35 95.1 -2.6 95.05 -2.6 95.0 -2.4 95.05 -2.4 Q99.2 1.25 107.2 -0.45 107.4 -4.35 110.8 -19.05 114.45 -34.85 115.65 -36.5 117.2 -34.95 117.8 -33.35 L118.15 -31.5 Q118.15 -28.8 115.15 -15.2 116.3 -13.75 116.85 -10.6 117.95 -4.75 120.15 -4.75 126.0 -4.75 142.15 -9.75 140.15 -13.05 135.3 -17.7 133.4 -19.55 132.65 -21.5 130.85 -22.75 128.9 -24.25 118.8 -32.0 118.2 -33.55 L118.15 -33.75 118.4 -36.0 118.85 -36.25 120.65 -36.5 131.75 -29.25 Q132.85 -28.55 137.9 -25.6 L138.3 -25.15 Q143.5 -22.0 144.5 -22.0 148.45 -22.0 148.65 -26.9 148.8 -29.55 148.15 -34.0 L148.25 -34.1 145.85 -35.1 Q134.85 -39.8 130.15 -43.5 131.75 -46.5 133.15 -46.5 L137.9 -44.3 137.95 -44.3 138.15 -44.15 138.15 -44.75 M68.7 -65.5 Q72.65 -73.45 76.65 -75.65 77.35 -77.6 82.2 -82.5 87.05 -87.4 88.9 -87.0 L93.2 -85.85 93.15 -87.25 Q93.15 -89.65 101.15 -93.05 109.35 -96.5 115.65 -96.5 120.1 -96.5 121.0 -88.85 L122.15 -90.0 127.15 -94.5 Q132.75 -94.5 138.9 -89.05 144.15 -84.35 144.15 -82.35 144.15 -80.4 140.7 -75.95 L137.4 -72.05 137.65 -71.1 Q142.7 -73.7 154.9 -75.35 161.4 -59.95 165.15 -48.35 165.15 -41.0 154.45 -39.75 L154.4 -39.85 154.4 -39.75 149.65 -39.5 148.45 -39.55 148.65 -39.5 154.4 -38.0 154.15 -29.75 Q154.15 -26.45 151.65 -21.55 148.6 -15.5 144.65 -15.5 L144.3 -15.5 148.15 -7.85 Q148.15 -6.3 138.15 -3.0 127.7 0.5 121.15 0.5 115.4 0.5 112.7 -2.1 L110.95 6.5 110.65 6.5 110.55 6.5 110.15 6.5 Q94.9 6.5 90.15 4.0 88.15 2.95 88.15 0.65 L88.2 -0.55 Q86.25 -0.85 79.65 -3.55 72.15 -6.6 72.15 -7.25 72.15 -8.75 76.1 -14.4 L77.05 -15.75 74.65 -15.5 73.6 -15.6 72.65 -15.5 Q70.05 -15.5 68.45 -19.5 L67.9 -21.05 65.0 -19.5 Q56.15 -14.95 36.3 -6.25 0.45 9.5 -5.0 9.5 L-7.75 9.0 -8.0 3.75 -7.75 0.35 Q-7.3 -1.1 -5.85 -1.9 -4.0 -4.8 28.55 -19.75 L46.15 -27.65 Q60.75 -34.05 65.4 -35.2 L64.05 -38.95 Q66.3 -41.35 67.2 -41.7 L67.15 -42.25 Q67.15 -45.85 67.45 -46.85 67.7 -47.7 68.25 -48.4 L68.05 -48.5 67.15 -48.5 64.4 -49.0 Q64.15 -50.5 64.15 -53.1 64.15 -55.7 67.05 -62.0 L68.7 -65.5 M75.85 -45.1 L74.25 -45.7 73.9 -45.85 73.5 -44.25 75.85 -45.1 M-2.15 2.4 Q34.05 -11.9 52.35 -19.5 62.15 -23.55 66.8 -25.7 66.4 -28.1 66.25 -30.6 62.1 -27.95 55.0 -24.85 L46.15 -21.2 Q40.6 -19.05 32.7 -16.05 4.15 -5.35 -2.55 0.55 -2.25 1.4 -2.25 2.25 L-2.5 2.5 -2.15 2.4 M138.1 -83.25 L138.35 -83.45 138.05 -83.3 Q135.7 -86.2 128.15 -88.0 L124.6 -84.25 Q122.3 -81.65 121.05 -80.85 L120.7 -77.25 120.15 -73.5 Q120.15 -72.55 120.5 -70.7 L120.55 -70.45 120.85 -70.75 Q125.95 -75.1 135.4 -81.45 L135.65 -81.5 137.8 -81.1 138.9 -81.75 138.1 -83.25 M136.25 -51.75 L137.05 -53.9 137.0 -53.8 Q136.4 -53.0 136.25 -51.75 M115.15 -91.25 Q110.5 -91.3 102.95 -87.9 L98.6 -85.65 Q99.0 -83.3 98.9 -80.25 98.15 -72.65 98.15 -70.1 L98.35 -67.5 99.7 -66.5 105.5 -62.0 108.15 -59.7 108.85 -59.1 Q110.4 -61.45 115.9 -66.4 115.15 -69.1 115.2 -73.65 115.2 -79.25 116.15 -85.1 116.15 -88.6 115.15 -91.25 M83.55 -75.85 Q87.55 -74.6 93.15 -71.05 93.15 -78.35 93.35 -80.25 L93.55 -81.8 92.2 -81.75 Q86.45 -81.4 83.9 -77.0 L83.55 -75.85 M109.25 -51.5 L109.15 -51.5 108.95 -51.6 109.25 -51.5 M92.65 -21.05 L89.1 -19.5 88.05 -19.1 84.05 -17.65 81.75 -13.75 79.15 -9.5 Q83.3 -7.0 87.0 -7.0 90.55 -7.0 91.5 -9.3 L92.3 -10.7 Q92.15 -12.5 92.15 -14.6 92.15 -16.9 92.45 -19.5 L92.65 -21.05 M95.05 -2.4 L94.95 -2.2 95.05 -2.4" fill="#000000" fill-rule="evenodd" stroke="none"/>
      <path d="M-2.25 2.25 Q-2.25 1.4 -2.55 0.55 4.15 -5.35 32.7 -16.05 40.6 -19.05 46.15 -21.2 L55.0 -24.85 Q62.1 -27.95 66.25 -30.6 66.4 -28.1 66.8 -25.7 62.15 -23.55 52.35 -19.5 34.05 -11.9 -2.15 2.4 L-2.25 2.25" fill="#ffffff" fill-rule="evenodd" stroke="none"/>
    </g>
  </defs>
</svg>
