<?xml version="1.0" encoding="UTF-8" standalone="no"?>
<svg xmlns:xlink="http://www.w3.org/1999/xlink" height="720.75px" width="1716.8px" xmlns="http://www.w3.org/2000/svg">
  <g transform="matrix(1, 0, 0, 1, 307.05, 450.35)">
    <use height="283.45" transform="matrix(1.0, 0.0, 0.0, 1.0, -14.25, -168.1)" width="19.9" xlink:href="#shape0"/>
  </g>
  <defs>
    <g id="shape0" transform="matrix(1, 0, 0, 1, 14.25, 168.1)">
      <path d="M-11.55 -155.15 L-12.4 -164.3 Q3.9 -146.7 4.15 68.65 L0.25 65.95 Q0.35 -116.25 -11.55 -155.15" fill="#aeaeae" fill-rule="evenodd" stroke="none"/>
      <path d="M0.25 65.95 L4.15 68.65 2.1 112.9 Q-1.8 115.2 -4.45 112.0 L-3.1 68.3 -3.05 67.6 0.25 65.95" fill="#333333" fill-rule="evenodd" stroke="none"/>
      <path d="M-11.55 -155.15 Q0.35 -116.25 0.25 65.95 L-3.05 67.6 Q-1.7 -40.45 -11.55 -155.15" fill="#ffffff" fill-rule="evenodd" stroke="none"/>
      <path d="M4.15 68.65 Q3.9 -146.7 -12.4 -164.3 L-11.55 -155.15 M0.25 65.95 L4.15 68.65 2.1 112.9 Q-1.8 115.2 -4.45 112.0 L-3.1 68.3 -3.05 67.6 Q-1.7 -40.45 -11.55 -155.15 M-3.05 67.6 L0.25 65.95" fill="none" stroke="#000000" stroke-linecap="round" stroke-linejoin="miter" stroke-miterlimit="768" stroke-width="3.0"/>
      <path d="M-11.55 -155.15 Q0.35 -116.25 0.25 65.95" fill="none" stroke="#010101" stroke-linecap="round" stroke-linejoin="miter" stroke-miterlimit="768" stroke-opacity="0.0" stroke-width="3.0"/>
    </g>
  </defs>
</svg>
