<?xml version="1.0" encoding="UTF-8" standalone="no"?>
<svg xmlns:xlink="http://www.w3.org/1999/xlink" height="720.75px" width="1716.8px" xmlns="http://www.w3.org/2000/svg">
  <g transform="matrix(1, 0, 0, 1, 307.05, 450.35)">
    <use height="92.55" transform="matrix(1.0, 0.0, 0.0, 1.0, -46.15, -46.25)" width="92.35" xlink:href="#shape0"/>
  </g>
  <defs>
    <g id="shape0" transform="matrix(1, 0, 0, 1, 46.15, 46.25)">
      <path d="M29.25 -31.7 L29.3 -31.7 Q25.6 -33.8 22.9 -32.9 20.85 -28.8 17.45 -24.85 19.3 -13.7 23.95 -5.25 L24.05 -5.2 24.1 -5.15 35.65 1.35 Q38.9 0.75 41.4 -5.9 L41.4 -5.85 Q42.9 -10.1 41.4 -15.5 39.95 -20.5 36.5 -25.05 33.1 -29.5 29.25 -31.7 M21.65 -33.85 L22.05 -34.8 Q17.35 -44.7 -1.8 -43.9 -8.7 -40.55 -9.2 -34.4 L-8.6 -33.75 -8.55 -33.7 -1.6 -25.5 Q7.95 -23.6 16.2 -25.8 19.65 -29.75 21.65 -33.85 M0.1 -46.15 L0.25 -46.05 Q19.2 -46.0 32.65 -32.55 46.15 -19.0 46.2 0.1 46.15 19.2 32.65 32.75 25.55 39.8 17.0 43.2 9.1 46.25 0.0 46.3 -19.15 46.3 -32.65 32.75 -46.2 19.2 -46.15 0.1 -46.2 -19.0 -32.65 -32.55 -19.4 -45.8 -0.75 -46.05 L-0.5 -46.15 0.1 -46.15 M9.15 42.65 Q1.5 39.3 -7.5 42.6 0.75 45.75 9.15 42.65 M32.6 21.35 L32.55 21.4 32.5 21.45 31.75 22.1 31.7 22.1 Q26.6 26.35 20.8 29.6 L20.35 29.9 Q16.3 34.75 13.55 39.75 15.15 41.05 18.2 40.2 21.75 39.2 26.05 35.85 30.35 32.5 33.8 28.2 37.15 23.85 38.5 19.9 36.4 18.3 32.6 21.35 M35.7 3.2 L35.15 2.9 35.05 2.85 23.5 -3.7 Q14.75 -2.45 8.45 5.95 L6.5 20.7 6.45 20.8 6.45 20.85 6.45 20.9 Q11.55 26.25 20.2 28.1 25.8 24.95 30.7 20.9 L31.55 20.2 31.6 20.15 34.15 17.8 Q36.45 11.05 35.7 3.2 M-20.6 22.6 L-20.65 22.55 -20.7 22.55 Q-25.85 19.0 -32.75 22.7 L-32.95 27.05 Q-23.85 42.7 -8.65 39.3 -9.0 33.6 -12.45 28.8 L-13.15 28.35 -13.2 28.35 -13.25 28.3 Q-17.4 25.65 -20.6 22.6 M-35.65 23.85 L-35.5 22.6 Q-40.0 14.6 -42.1 5.15 -42.35 17.95 -35.65 23.85 M-19.6 21.35 L-19.55 21.4 Q-16.5 24.3 -12.5 26.9 -2.3 27.7 4.95 20.35 L6.9 5.8 Q-1.1 -5.5 -8.6 -3.75 L-20.3 2.3 Q-24.1 9.05 -22.9 17.85 L-19.6 21.35 M-26.35 -27.0 Q-26.8 -30.3 -29.6 -31.1 -46.35 -15.1 -42.2 1.25 -37.85 -4.9 -32.85 -9.75 L-32.65 -10.7 -32.65 -10.8 -32.65 -10.85 Q-31.1 -19.45 -26.45 -26.85 L-26.4 -26.9 -26.35 -27.0 M-24.9 -26.2 L-25.1 -26.0 Q-29.55 -18.95 -31.05 -10.75 -27.95 -2.6 -20.15 0.45 L-9.35 -5.15 Q-2.6 -13.45 -2.65 -24.3 L-2.7 -24.35 -9.75 -32.6 Q-14.85 -35.85 -24.85 -26.25 L-24.9 -26.2" fill="#000000" fill-rule="evenodd" stroke="none"/>
      <path d="M29.25 -31.7 Q33.1 -29.5 36.5 -25.05 39.95 -20.5 41.4 -15.5 42.9 -10.1 41.4 -5.85 L41.4 -5.9 Q38.9 0.75 35.65 1.35 L24.1 -5.15 24.05 -5.2 23.95 -5.25 Q19.3 -13.7 17.45 -24.85 20.85 -28.8 22.9 -32.9 25.6 -33.8 29.3 -31.7 L29.25 -31.7 M21.65 -33.85 Q19.65 -29.75 16.2 -25.8 7.95 -23.6 -1.6 -25.5 L-8.55 -33.7 -8.6 -33.75 -9.2 -34.4 Q-8.7 -40.55 -1.8 -43.9 17.35 -44.7 22.05 -34.8 L21.65 -33.85 M-24.9 -26.2 L-24.85 -26.25 Q-14.85 -35.85 -9.75 -32.6 L-2.7 -24.35 -2.65 -24.3 Q-2.6 -13.45 -9.35 -5.15 L-20.15 0.45 Q-27.95 -2.6 -31.05 -10.75 -29.55 -18.95 -25.1 -26.0 L-24.9 -26.2 M-26.35 -27.0 L-26.4 -26.9 -26.45 -26.85 Q-31.1 -19.45 -32.65 -10.85 L-32.65 -10.8 -32.65 -10.7 -32.85 -9.75 Q-37.85 -4.9 -42.2 1.25 -46.35 -15.1 -29.6 -31.1 -26.8 -30.3 -26.35 -27.0 M-19.6 21.35 L-22.9 17.85 Q-24.1 9.05 -20.3 2.3 L-8.6 -3.75 Q-1.1 -5.5 6.9 5.8 L4.95 20.35 Q-2.3 27.7 -12.5 26.9 -16.5 24.3 -19.55 21.4 L-19.6 21.35 M-35.65 23.85 Q-42.35 17.95 -42.1 5.15 -40.0 14.6 -35.5 22.6 L-35.65 23.85 M-20.6 22.6 Q-17.4 25.65 -13.25 28.3 L-13.2 28.35 -13.15 28.35 -12.45 28.8 Q-9.0 33.6 -8.65 39.3 -23.85 42.7 -32.95 27.05 L-32.75 22.7 Q-25.85 19.0 -20.7 22.55 L-20.65 22.55 -20.6 22.6 M35.7 3.2 Q36.45 11.05 34.15 17.8 L31.6 20.15 31.55 20.2 30.7 20.9 Q25.8 24.95 20.2 28.1 11.55 26.25 6.45 20.9 L6.45 20.85 6.45 20.8 6.5 20.7 8.45 5.95 Q14.75 -2.45 23.5 -3.7 L35.05 2.85 35.15 2.9 35.7 3.2 M32.6 21.35 Q36.4 18.3 38.5 19.9 37.15 23.85 33.8 28.2 30.35 32.5 26.05 35.85 21.75 39.2 18.2 40.2 15.15 41.05 13.55 39.75 16.3 34.75 20.35 29.9 L20.8 29.6 Q26.6 26.35 31.7 22.1 L31.75 22.1 32.5 21.45 32.55 21.4 32.6 21.35 M9.15 42.65 Q0.75 45.75 -7.5 42.6 1.5 39.3 9.15 42.65" fill="#ffffff" fill-rule="evenodd" stroke="none"/>
    </g>
  </defs>
</svg>
