<?xml version="1.0" encoding="UTF-8" standalone="no"?>
<svg xmlns:xlink="http://www.w3.org/1999/xlink" height="720.75px" width="1716.8px" xmlns="http://www.w3.org/2000/svg">
  <g transform="matrix(1, 0, 0, 1, 307.05, 450.35)">
    <use height="116.25" transform="matrix(1.0, 0.0, 0.0, 1.0, -57.6, -109.3)" width="93.45" xlink:href="#sprite0"/>
  </g>
  <defs>
    <g id="sprite0" transform="matrix(1, 0, 0, 1, 61.35, 96.5)">
      <use height="58.0" transform="matrix(1.0, 0.0, 0.0, 1.0, -35.15, -38.25)" width="67.25" xlink:href="#shape0"/>
      <use height="60.0" transform="matrix(1.0, 0.0, 0.0, 1.0, -61.35, -95.5)" width="46.9" xlink:href="#shape1"/>
    </g>
    <g id="shape0" transform="matrix(1, 0, 0, 1, 35.15, 38.25)">
      <path d="M29.05 -5.7 L-5.5 -6.45 -22.25 -5.2 -23.15 -5.25 Q-22.7 -1.9 -22.2 4.5 -21.65 10.6 -21.25 16.8 L28.8 16.05 28.55 13.05 28.55 6.1 Q28.4 1.9 28.55 -1.45 28.65 -4.15 29.05 -5.7 M31.3 -7.5 L31.3 -7.3 Q31.85 -6.35 32.1 -3.85 L32.1 19.3 31.3 19.35 30.85 19.35 30.85 19.4 25.4 19.65 Q19.45 20.0 -24.5 19.0 -28.7 15.35 -35.15 4.85 L-35.15 -20.65 Q-34.65 -22.05 -32.35 -22.0 L-29.0 -22.0 18.1 -22.0 24.25 -15.45 31.3 -7.5 M20.8 -13.0 L16.5 -18.7 Q-24.8 -18.4 -29.7 -17.95 L-29.9 -17.8 -26.95 -13.75 -23.8 -8.8 -23.6 -8.85 -14.5 -10.2 -5.25 -10.45 23.95 -9.4 20.8 -13.0 M-25.65 -5.8 Q-27.2 -6.7 -31.6 -12.95 L-31.7 -10.65 Q-31.25 -0.95 -32.25 2.7 -30.55 4.65 -27.2 9.0 L-25.4 11.35 -25.95 -0.7 -25.65 -5.8" fill="#000000" fill-rule="evenodd" stroke="none"/>
      <path d="M29.05 -5.7 Q28.65 -4.15 28.55 -1.45 28.4 1.9 28.55 6.1 L28.55 13.05 28.8 16.05 -21.25 16.8 Q-21.65 10.6 -22.2 4.5 -22.7 -1.9 -23.15 -5.25 L-22.25 -5.2 -5.5 -6.45 29.05 -5.7" fill="#d5d5d5" fill-rule="evenodd" stroke="none"/>
      <path d="M17.25 -13.55 L17.5 -13.8 17.0 -14.2 6.75 -14.75 Q-3.0 -14.75 -3.5 -14.5 -2.35 -14.15 -3.75 -14.0 L-3.75 -13.25 15.2 -12.5 17.15 -12.75 17.25 -13.55 M7.15 -15.75 L7.25 -16.55 Q7.25 -17.8 7.0 -17.1 L-5.5 -17.75 -17.5 -17.6 -18.25 -17.0 -18.25 -16.25 4.85 -15.5 7.15 -15.75 M20.8 -13.0 L23.95 -9.4 -5.25 -10.45 -14.5 -10.2 -23.6 -8.85 -23.8 -8.8 -26.95 -13.75 -29.9 -17.8 -29.7 -17.95 Q-24.8 -18.4 16.5 -18.7 L20.8 -13.0" fill="#e6e6e6" fill-rule="evenodd" stroke="none"/>
      <path d="M-25.65 -5.8 L-25.95 -0.7 -25.4 11.35 -27.2 9.0 Q-30.55 4.65 -32.25 2.7 -31.25 -0.95 -31.7 -10.65 L-31.6 -12.95 Q-27.2 -6.7 -25.65 -5.8" fill="#c8c8c8" fill-rule="evenodd" stroke="none"/>
      <path d="M7.15 -15.75 L4.85 -15.5 -18.25 -16.25 -18.25 -17.0 -17.5 -17.6 -5.5 -17.75 7.0 -17.1 Q7.25 -17.8 7.25 -16.55 L7.15 -15.75 M17.25 -13.55 L17.15 -12.75 15.2 -12.5 -3.75 -13.25 -3.75 -14.0 Q-2.35 -14.15 -3.5 -14.5 -3.0 -14.75 6.75 -14.75 L17.0 -14.2 17.5 -13.8 17.25 -13.55" fill="#9d9d9d" fill-rule="evenodd" stroke="none"/>
      <path d="M3.35 -2.0 L2.6 -2.0 2.6 -1.25 3.1 -1.25 3.35 -1.55 3.35 -2.0 M3.1 -3.3 Q5.45 -3.3 4.85 -2.3 4.85 0.1 2.85 0.1 0.85 0.1 1.35 -1.65 L1.35 -2.75 Q1.6 -3.3 3.1 -3.3 M8.1 -1.5 L8.0 -1.0 Q8.1 -0.8 7.5 -0.8 L6.9 -1.15 6.85 -1.55 Q6.85 -1.9 7.5 -2.05 8.1 -2.0 8.1 -1.5 M11.85 -1.5 L11.75 -1.0 Q11.85 -0.8 11.25 -0.8 11.1 -0.8 10.65 -1.15 L10.6 -1.55 Q10.6 -1.9 11.25 -2.05 11.85 -2.0 11.85 -1.5 M24.3 2.95 L24.35 3.15 24.35 3.25 24.35 4.4 24.3 5.55 24.35 5.65 24.55 6.05 24.0 6.25 23.95 6.25 23.75 6.35 23.7 6.3 12.85 6.35 2.45 6.15 2.0 6.35 1.8 6.1 1.4 6.0 1.35 5.65 1.45 5.3 1.35 4.4 1.45 3.3 1.35 2.9 1.5 2.4 8.1 2.35 Q21.15 2.5 23.5 2.7 L23.75 2.6 Q24.1 2.6 24.3 2.95 M23.1 4.4 L23.15 3.8 19.25 3.85 15.2 3.8 15.1 4.1 14.85 5.15 23.2 5.35 23.1 4.4 M11.35 4.6 Q11.35 4.1 11.5 3.7 L2.65 3.55 2.6 4.4 2.6 5.15 11.35 5.1 11.35 4.6 M13.85 4.0 L13.25 3.9 13.0 4.25 12.6 4.5 13.75 4.5 13.85 4.0 M-23.5 -38.25 Q-22.75 -37.95 -22.25 -37.25 L-22.25 -12.85 -23.5 -12.25 Q-24.75 -15.2 -24.75 -25.25 -24.75 -35.25 -23.5 -38.25 M-14.5 -4.0 Q-7.4 -4.0 -4.35 1.3 -2.85 4.0 -2.75 6.9 L-2.55 8.55 Q-2.45 9.85 -2.85 10.75 -4.2 13.5 -10.75 13.5 -17.7 13.5 -19.6 9.8 -20.25 8.65 -20.25 5.5 -20.25 3.6 -18.25 -2.85 -18.25 -3.7 -17.5 -3.85 L-14.5 -4.0 M-12.05 -0.15 L-10.15 1.2 -9.4 0.45 -11.65 -0.6 -12.05 -0.15 M-13.75 -1.35 L-13.75 -1.25 -12.95 -0.75 -12.7 -1.0 -13.75 -1.35 M-6.85 2.25 Q-7.4 1.65 -8.25 1.1 L-8.95 2.05 -7.1 3.35 -6.5 2.6 -6.85 2.25 M-9.85 3.25 L-10.95 4.6 -9.2 5.95 -8.1 4.55 -9.85 3.25 M-5.5 4.5 L-5.9 3.6 -6.2 4.0 -5.5 4.5 M-6.55 8.2 L-5.25 6.3 -7.1 5.2 -8.3 6.7 -6.55 8.2 M-9.3 8.0 L-10.9 10.05 -10.1 10.75 -8.1 10.6 -7.35 9.45 -9.3 8.0 M-14.3 2.25 L-12.45 3.55 -12.35 3.65 -11.15 2.25 -13.0 0.85 -14.3 2.25 M-13.4 4.95 Q-14.55 4.1 -15.45 3.4 L-16.95 4.95 -14.8 6.7 -14.1 5.8 -13.4 4.95 M-15.4 1.5 L-13.9 0.1 -15.2 -0.95 Q-16.25 -0.55 -16.85 0.6 L-15.4 1.5 M-16.5 2.6 L-17.35 1.9 -17.7 3.85 -16.5 2.6 M-17.75 5.6 Q-17.75 7.95 -17.35 8.55 L-16.7 9.25 -15.5 7.6 -17.6 5.6 -17.75 5.6 M-10.25 7.3 L-12.05 5.95 -13.55 7.75 -11.75 9.3 -10.25 7.3 M-14.35 8.7 L-15.5 10.0 -12.75 10.65 -12.5 10.3 -14.35 8.7" fill="#000000" fill-rule="evenodd" stroke="none"/>
      <path d="M23.1 4.4 L23.2 5.35 14.85 5.15 15.1 4.1 15.2 3.8 19.25 3.85 23.15 3.8 23.1 4.4 M11.35 4.6 L11.35 5.1 2.6 5.15 2.6 4.4 2.65 3.55 11.5 3.7 Q11.35 4.1 11.35 4.6 M-12.05 -0.15 L-11.65 -0.6 -9.4 0.45 -10.15 1.2 -12.05 -0.15 M-5.5 4.5 L-6.2 4.0 -5.9 3.6 -5.5 4.5 M-9.85 3.25 L-8.1 4.55 -9.2 5.95 -10.95 4.6 -9.85 3.25 M-9.3 8.0 L-7.35 9.45 -8.1 10.6 -10.1 10.75 -10.9 10.05 -9.3 8.0 M-15.4 1.5 L-16.85 0.6 Q-16.25 -0.55 -15.2 -0.95 L-13.9 0.1 -15.4 1.5 M-13.4 4.95 L-14.1 5.8 -14.8 6.7 -16.95 4.95 -15.45 3.4 Q-14.55 4.1 -13.4 4.95 M-14.35 8.7 L-12.5 10.3 -12.75 10.65 -15.5 10.0 -14.35 8.7" fill="#9d9d9d" fill-rule="evenodd" stroke="none"/>
      <path d="M22.75 9.65 Q24.0 9.65 23.95 11.15 L23.95 11.6 Q23.85 11.9 23.25 11.9 22.7 11.9 22.3 11.5 L22.0 11.0 Q22.0 10.4 22.55 10.4 22.95 10.4 23.05 10.55 L23.1 10.75 23.1 11.15 22.95 11.25 22.7 10.75 22.4 10.75 22.35 10.95 22.95 11.6 23.65 11.4 23.65 11.15 Q23.6 10.0 22.75 10.0 22.2 10.0 21.85 10.5 L21.65 11.1 Q21.65 11.4 22.0 11.8 22.45 12.25 23.3 12.25 23.9 12.25 24.2 11.9 L24.55 11.5 24.7 11.65 24.25 12.25 23.35 12.6 Q22.15 12.6 21.65 11.9 21.3 11.45 21.35 11.1 21.35 10.65 21.7 10.2 22.1 9.65 22.75 9.65" fill="#cccccc" fill-rule="evenodd" stroke="none"/>
      <path d="M23.7 9.05 L23.75 9.05 Q25.5 7.15 27.3 7.15 L27.6 7.55 27.6 8.1 Q27.6 8.85 26.85 10.05 26.1 11.1 25.25 11.35 26.35 12.1 26.75 12.75 27.1 13.35 27.1 14.4 L27.1 15.35 26.95 15.35 26.05 15.1 24.6 14.4 Q23.2 13.55 22.85 12.75 22.45 13.55 21.05 14.4 L19.65 15.1 18.75 15.35 18.6 15.35 18.55 14.4 Q18.55 13.35 18.95 12.75 19.3 12.1 20.45 11.35 19.6 11.1 18.85 10.05 18.05 8.85 18.05 8.1 L18.05 7.55 Q18.1 7.15 18.4 7.15 20.1 7.15 21.85 8.95 L21.9 9.0 21.9 8.9 22.05 8.85 22.4 9.2 22.5 9.25 22.65 9.0 23.05 8.8 23.45 8.9 23.7 9.05 M22.75 9.65 Q22.1 9.65 21.7 10.2 21.35 10.65 21.35 11.1 21.3 11.45 21.65 11.9 22.15 12.6 23.35 12.6 L24.25 12.25 24.7 11.65 24.55 11.5 24.2 11.9 Q23.9 12.25 23.3 12.25 22.45 12.25 22.0 11.8 21.65 11.4 21.65 11.1 L21.85 10.5 Q22.2 10.0 22.75 10.0 23.6 10.0 23.65 11.15 L23.65 11.4 22.95 11.6 22.35 10.95 22.4 10.75 22.7 10.75 22.95 11.25 23.1 11.15 23.1 10.75 23.05 10.55 Q22.95 10.4 22.55 10.4 22.0 10.4 22.0 11.0 L22.3 11.5 Q22.7 11.9 23.25 11.9 23.85 11.9 23.95 11.6 L23.95 11.15 Q24.0 9.65 22.75 9.65" fill="#f2f2f2" fill-rule="evenodd" stroke="none"/>
      <path d="M20.5 13.3 L20.65 13.6 20.65 14.0 20.95 13.6 Q20.95 13.25 21.1 13.2 L21.25 13.75 21.25 14.15 Q21.2 14.35 20.8 14.35 L20.3 14.2 20.3 13.3 20.5 13.3 M20.2 13.45 Q19.75 15.55 19.35 15.55 L18.55 14.9 18.75 14.85 18.9 14.95 19.25 15.05 19.6 14.45 19.3 14.05 19.2 13.65 Q19.2 13.4 19.35 13.3 L19.7 14.05 20.05 13.2 20.2 13.45 M21.6 13.3 L21.95 14.05 22.3 13.2 22.45 13.45 Q22.0 15.55 21.6 15.55 L20.8 14.9 21.0 14.85 21.15 14.95 21.5 15.05 21.85 14.45 21.55 14.05 21.45 13.65 Q21.45 13.4 21.6 13.3 M22.75 13.3 L22.9 13.6 22.9 14.0 23.2 13.6 Q23.2 13.25 23.35 13.2 L23.5 13.75 23.5 14.15 23.05 14.35 22.55 14.2 22.55 13.3 22.75 13.3 M24.75 13.6 L25.3 13.4 25.55 13.45 25.55 13.55 Q25.55 13.75 25.0 13.8 L24.95 14.1 25.6 14.2 25.65 14.35 Q25.65 14.55 25.25 14.55 24.8 14.55 24.7 14.25 L24.7 13.95 24.75 13.6 M26.1 13.4 Q26.7 13.4 26.7 14.0 L26.7 14.25 26.2 14.4 25.65 14.25 25.65 14.05 25.8 13.65 26.1 13.4 M26.1 13.85 L26.0 14.05 26.4 14.05 26.4 13.9 26.1 13.85 M27.1 14.15 L27.25 14.3 27.2 14.4 27.1 14.45 26.95 14.4 26.95 14.3 27.1 14.15" fill="#b3b3b3" fill-rule="evenodd" stroke="none"/>
    </g>
    <g id="shape1" transform="matrix(1, 0, 0, 1, 61.35, 95.5)">
      <path d="M-21.0 -94.0 Q-20.5 -93.35 -20.5 -91.6 -20.5 -89.8 -21.9 -84.0 L-23.5 -77.75 -23.5 -71.75 Q-16.9 -73.2 -15.05 -69.6 -14.45 -68.4 -14.45 -66.85 L-14.5 -65.35 Q-16.5 -50.75 -16.75 -43.25 L-19.0 -42.5 Q-21.25 -44.75 -21.5 -49.75 -21.5 -52.65 -19.5 -66.0 L-19.5 -66.25 -28.25 -67.0 -28.5 -73.75 Q-28.5 -78.7 -26.9 -85.45 -25.2 -92.75 -23.0 -95.5 -21.3 -94.45 -21.0 -94.0 M-30.5 -58.5 L-30.5 -36.75 Q-31.0 -36.75 -33.0 -35.5 -35.55 -39.15 -35.45 -45.3 L-35.35 -55.25 Q-47.95 -56.4 -52.6 -60.85 -55.35 -63.45 -56.35 -69.75 -57.0 -73.35 -61.35 -86.25 -61.35 -88.0 -60.8 -88.3 L-58.35 -88.5 Q-55.6 -88.5 -53.4 -81.8 -51.85 -77.0 -51.35 -72.25 -50.45 -64.6 -42.75 -62.4 L-36.25 -60.95 Q-32.45 -60.05 -30.5 -58.5" fill="#ffff4d" fill-rule="evenodd" stroke="none"/>
    </g>
  </defs>
</svg>
