<?xml version="1.0" encoding="UTF-8" standalone="no"?>
<svg xmlns:xlink="http://www.w3.org/1999/xlink" height="720.75px" width="1716.8px" xmlns="http://www.w3.org/2000/svg">
  <g transform="matrix(1, 0, 0, 1, 307.05, 450.35)">
    <use height="137.8" transform="matrix(1.0, 0.0, 0.0, 1.0, -158.0, -73.15)" width="330.85" xlink:href="#sprite0"/>
  </g>
  <defs>
    <g id="sprite0" transform="matrix(1, 0, 0, 1, 165.4, 68.9)">
      <use height="137.8" transform="matrix(1.0, 0.0, 0.0, 1.0, -165.4, -68.9)" width="330.85" xlink:href="#shape0"/>
    </g>
    <g id="shape0" transform="matrix(1, 0, 0, 1, 165.4, 68.9)">
      <path d="M87.75 -67.85 L87.9 -68.35 Q88.3 -68.9 90.1 -68.9 90.9 -68.9 117.25 -32.6 143.45 3.5 143.45 3.95 L143.45 4.85 143.45 5.45 143.45 5.5 Q144.25 7.35 144.45 9.95 L144.4 14.2 144.45 15.45 Q144.45 17.05 144.0 17.4 L142.95 17.85 142.6 17.85 Q146.2 23.35 153.7 39.75 164.45 63.4 164.45 64.7 L164.45 65.3 164.95 65.35 165.2 64.95 Q165.45 64.9 165.45 66.45 165.45 68.05 165.0 68.4 L163.95 68.85 Q28.95 69.1 -112.4 67.1 L-112.4 66.8 -114.4 67.1 Q-118.85 67.1 -133.0 48.9 -146.75 31.2 -150.9 21.1 -158.7 3.8 -161.3 -2.9 -165.4 -13.55 -165.4 -25.05 -165.4 -28.35 -162.9 -29.9 L-162.75 -29.45 -139.15 -54.65 -139.25 -55.15 -139.4 -59.65 Q-139.8 -62.25 -139.35 -64.15 L-139.9 -64.15 -139.9 -67.9 -138.8 -67.85 -137.9 -68.65 -137.65 -68.65 -135.9 -68.9 -135.6 -68.65 -24.4 -68.9 Q68.7 -68.5 86.1 -67.9 L87.75 -67.85 M86.1 -64.15 Q-20.6 -63.95 -133.25 -65.8 -128.9 -56.8 -107.55 -28.55 -86.15 -0.3 -82.9 3.35 L25.95 3.1 86.1 3.45 Q124.6 3.7 137.05 4.05 126.5 -9.05 88.8 -64.15 L86.1 -64.15 M-134.15 -59.7 L-134.4 -60.05 -134.4 -59.55 Q-134.4 -54.65 -134.65 -51.65 L-134.85 -51.55 -134.85 -51.5 Q-126.05 -33.8 -106.1 -9.8 -96.4 1.8 -87.95 10.9 L-87.3 11.6 -87.4 10.35 Q-87.4 8.5 -86.75 7.2 L-89.9 3.35 -89.5 3.35 Q-99.95 -9.85 -134.15 -59.7 M-132.65 -40.55 L-137.6 -49.15 Q-139.9 -45.4 -146.4 -37.85 -156.7 -25.9 -160.4 -25.9 L-161.7 -26.2 -155.45 -6.45 Q-150.65 8.25 -146.4 17.85 -142.3 27.2 -129.85 41.4 L-116.8 56.4 Q-113.75 50.35 -104.9 35.6 -95.45 19.9 -90.55 14.7 -93.6 11.8 -100.65 3.15 -100.65 5.6 -104.15 9.1 -108.9 13.85 -116.4 13.85 -128.35 13.85 -135.65 4.4 -138.0 1.35 -139.55 -2.3 -140.65 -4.95 -140.65 -5.75 -140.65 -12.05 -137.35 -18.7 -132.7 -28.15 -124.2 -27.65 -129.6 -35.25 -132.65 -40.55 M-126.15 -25.5 Q-131.05 -23.15 -135.4 -16.35 -136.15 -15.15 -137.15 -11.3 -138.15 -7.45 -138.15 -5.65 -138.15 -2.85 -133.55 3.0 -132.95 -0.55 -125.95 -3.75 -116.15 -8.25 -112.35 -11.7 L-123.3 -26.4 -126.15 -25.5 M-102.95 0.25 L-108.25 -6.45 -110.75 -9.6 Q-111.4 -7.55 -115.65 -6.0 L-124.4 -2.65 Q-126.6 -1.35 -129.05 1.9 L-131.7 5.2 Q-126.35 11.15 -120.9 11.15 -103.15 11.15 -103.15 0.35 L-102.9 0.3 -102.95 0.25 M-7.55 17.2 L-84.9 16.15 Q-86.85 20.75 -96.55 35.45 L-93.65 35.35 Q-82.5 35.35 -74.9 43.85 -68.15 51.4 -68.15 59.95 L-68.25 64.3 26.45 64.1 Q86.15 64.3 120.1 64.6 119.85 63.25 119.85 61.35 119.85 59.8 120.95 56.25 122.4 51.45 124.9 47.4 132.3 35.45 145.35 35.35 L142.5 29.7 Q137.45 19.7 137.45 18.1 L137.45 17.85 Q90.9 17.95 43.25 17.65 44.95 20.5 46.35 26.95 46.35 32.55 40.9 39.2 32.95 48.85 18.35 48.85 2.55 48.85 -5.35 38.4 -7.85 35.1 -9.25 31.1 -10.15 28.5 -10.15 27.5 -10.15 25.35 -8.9 20.85 L-7.55 17.2 M-5.65 20.1 Q-7.65 23.85 -7.65 27.45 -7.65 28.75 -6.6 31.3 -5.15 34.75 -2.65 37.6 4.75 46.1 18.45 46.1 L18.5 46.1 18.35 45.2 19.85 42.0 Q21.35 39.0 21.35 36.15 21.35 31.3 19.35 28.0 17.35 24.75 17.35 22.1 17.35 20.6 18.65 18.15 L19.1 17.45 -4.15 17.25 -5.65 20.1 M-71.6 52.35 Q-73.45 47.35 -78.85 43.2 -85.55 38.1 -93.9 38.1 L-98.35 38.2 -105.5 48.8 Q-105.6 49.55 -106.15 50.7 -106.15 52.0 -97.15 61.1 L-97.15 64.35 -70.35 64.3 Q-70.85 62.3 -70.8 59.6 -70.8 54.4 -71.6 52.35 M-82.75 7.05 L-82.8 7.35 Q-82.7 7.6 -82.95 7.8 -82.4 9.1 -82.4 10.45 L-82.45 13.35 28.95 13.1 Q123.45 13.5 140.3 14.1 L139.9 12.75 Q139.45 10.85 139.45 9.85 L139.5 7.85 86.1 7.85 Q3.4 7.6 -82.55 6.25 L-82.75 7.05 M-110.4 64.35 L-99.25 64.35 -100.2 61.8 Q-101.2 58.8 -102.6 57.65 L-107.7 54.05 -108.35 52.95 -113.45 60.35 -110.4 64.1 -110.55 64.35 -110.4 64.35 M146.75 38.1 L145.2 38.1 Q134.25 38.1 126.7 48.85 123.6 53.3 122.35 58.15 121.35 61.75 121.75 64.6 L146.05 64.85 145.85 63.95 Q145.85 61.7 148.6 59.2 151.15 56.85 154.75 55.75 150.55 45.55 149.2 42.85 L146.75 38.1 M155.7 59.1 L152.15 60.55 Q147.95 62.15 148.0 64.9 L159.2 65.1 156.1 58.85 155.7 59.1 M42.3 21.9 L39.65 17.6 22.7 17.5 21.6 18.95 Q19.85 21.25 19.85 22.45 L21.85 28.1 Q23.85 33.9 23.85 36.7 L23.6 41.15 20.95 46.05 Q33.25 45.25 39.6 36.85 43.85 31.2 43.85 26.85 43.85 24.3 42.3 21.9" fill="#000000" fill-rule="evenodd" stroke="none"/>
      <path d="M-134.4 -59.55 L-134.15 -59.7 Q-99.95 -9.85 -89.5 3.35 L-89.9 3.35 -86.75 7.2 Q-87.4 8.5 -87.4 10.35 L-87.95 10.9 Q-96.4 1.8 -106.1 -9.8 -126.05 -33.8 -134.85 -51.5 L-134.65 -51.65 Q-134.4 -54.65 -134.4 -59.55" fill="#756113" fill-rule="evenodd" stroke="none"/>
      <path d="M-132.65 -40.55 Q-129.6 -35.25 -124.2 -27.65 -132.7 -28.15 -137.35 -18.7 -140.65 -12.05 -140.65 -5.75 -140.65 -4.95 -139.55 -2.3 -138.0 1.35 -135.65 4.4 -128.35 13.85 -116.4 13.85 -108.9 13.85 -104.15 9.1 -100.65 5.6 -100.65 3.15 -93.6 11.8 -90.55 14.7 -95.45 19.9 -104.9 35.6 -113.75 50.35 -116.8 56.4 L-129.85 41.4 Q-142.3 27.2 -146.4 17.85 -150.65 8.25 -155.45 -6.45 L-161.7 -26.2 -160.4 -25.9 Q-156.7 -25.9 -146.4 -37.85 -139.9 -45.4 -137.6 -49.15 L-132.65 -40.55 M-102.95 0.25 L-102.9 0.3 -103.15 0.35 -102.95 0.25" fill="#fe9292" fill-rule="evenodd" stroke="none"/>
      <path d="M-126.15 -25.5 L-123.3 -26.4 -112.35 -11.7 Q-116.15 -8.25 -125.95 -3.75 -132.95 -0.55 -133.55 3.0 -138.15 -2.85 -138.15 -5.65 -138.15 -7.45 -137.15 -11.3 -136.15 -15.15 -135.4 -16.35 -131.05 -23.15 -126.15 -25.5 M-125.65 -12.65 Q-122.15 -12.65 -122.15 -17.15 -121.4 -19.65 -124.4 -19.65 -128.65 -19.65 -128.65 -15.55 L-128.65 -14.1 Q-128.1 -12.65 -125.65 -12.65 M-5.65 20.1 L-4.15 17.25 19.1 17.45 18.65 18.15 Q17.35 20.6 17.35 22.1 17.35 24.75 19.35 28.0 21.35 31.3 21.35 36.15 21.35 39.0 19.85 42.0 L18.35 45.2 18.5 46.1 18.45 46.1 Q4.75 46.1 -2.65 37.6 -5.15 34.75 -6.6 31.3 -7.65 28.75 -7.65 27.45 -7.65 23.85 -5.65 20.1 M-1.65 25.25 L-1.65 27.4 Q-1.05 29.35 2.1 29.35 4.9 29.35 5.6 27.85 L5.85 25.6 Q5.5 20.35 1.35 20.35 -1.65 20.35 -1.65 25.25 M-110.65 4.9 Q-111.05 6.35 -113.15 6.35 -115.65 6.35 -116.65 4.4 L-117.15 2.25 Q-117.15 -0.65 -114.15 -0.65 -111.15 -0.65 -110.6 0.85 -110.35 1.7 -110.65 3.1 L-110.65 4.9 M-86.9 46.35 Q-81.8 46.35 -82.65 50.1 -82.65 51.85 -82.9 52.35 -83.6 53.85 -86.4 53.85 -90.75 53.85 -91.9 52.35 L-92.15 50.6 Q-92.15 49.2 -90.9 47.95 -89.4 46.35 -86.9 46.35 M-110.4 64.1 L-113.45 60.35 -108.35 52.95 -107.7 54.05 -102.6 57.65 Q-101.2 58.8 -100.2 61.8 L-99.25 64.35 -110.4 64.35 -110.4 64.1 M146.75 38.1 L149.2 42.85 Q150.55 45.55 154.75 55.75 151.15 56.85 148.6 59.2 145.85 61.7 145.85 63.95 L146.05 64.85 121.75 64.6 Q121.35 61.75 122.35 58.15 123.6 53.3 126.7 48.85 134.25 38.1 145.2 38.1 L146.75 38.1 M142.9 55.1 L142.85 52.85 Q144.15 47.85 139.1 47.85 135.35 47.85 135.35 52.0 L135.6 54.5 Q136.55 56.85 140.1 56.85 142.45 56.85 142.9 55.1 M32.85 21.15 Q34.05 19.35 36.1 19.35 40.4 19.35 39.85 23.85 39.85 27.85 36.1 27.85 32.55 27.85 31.85 26.1 L31.85 24.35 Q31.85 22.65 32.85 21.15" fill="#ffffff" fill-rule="evenodd" stroke="none"/>
      <path d="M-125.65 -12.65 Q-128.1 -12.65 -128.65 -14.1 L-128.65 -15.55 Q-128.65 -19.65 -124.4 -19.65 -121.4 -19.65 -122.15 -17.15 -122.15 -12.65 -125.65 -12.65 M-103.15 0.35 Q-103.15 11.15 -120.9 11.15 -126.35 11.15 -131.7 5.2 L-129.05 1.9 Q-126.6 -1.35 -124.4 -2.65 L-115.65 -6.0 Q-111.4 -7.55 -110.75 -9.6 L-108.25 -6.45 -102.95 0.25 -103.15 0.35 M-1.65 25.25 Q-1.65 20.35 1.35 20.35 5.5 20.35 5.85 25.6 L5.6 27.85 Q4.9 29.35 2.1 29.35 -1.05 29.35 -1.65 27.4 L-1.65 25.25 M-71.6 52.35 Q-70.8 54.4 -70.8 59.6 -70.85 62.3 -70.35 64.3 L-97.15 64.35 -97.15 61.1 Q-106.15 52.0 -106.15 50.7 -105.6 49.55 -105.5 48.8 L-98.35 38.2 -93.9 38.1 Q-85.55 38.1 -78.85 43.2 -73.45 47.35 -71.6 52.35 M-86.9 46.35 Q-89.4 46.35 -90.9 47.95 -92.15 49.2 -92.15 50.6 L-91.9 52.35 Q-90.75 53.85 -86.4 53.85 -83.6 53.85 -82.9 52.35 -82.65 51.85 -82.65 50.1 -81.8 46.35 -86.9 46.35 M-110.65 4.9 L-110.65 3.1 Q-110.35 1.7 -110.6 0.85 -111.15 -0.65 -114.15 -0.65 -117.15 -0.65 -117.15 2.25 L-116.65 4.4 Q-115.65 6.35 -113.15 6.35 -111.05 6.35 -110.65 4.9 M155.7 59.1 L156.1 58.85 159.2 65.1 148.0 64.9 Q147.95 62.15 152.15 60.55 L155.7 59.1 M142.9 55.1 Q142.45 56.85 140.1 56.85 136.55 56.85 135.6 54.5 L135.35 52.0 Q135.35 47.85 139.1 47.85 144.15 47.85 142.85 52.85 L142.9 55.1 M42.3 21.9 Q43.85 24.3 43.85 26.85 43.85 31.2 39.6 36.85 33.25 45.25 20.95 46.05 L23.6 41.15 23.85 36.7 Q23.85 33.9 21.85 28.1 L19.85 22.45 Q19.85 21.25 21.6 18.95 L22.7 17.5 39.65 17.6 42.3 21.9 M32.85 21.15 Q31.85 22.65 31.85 24.35 L31.85 26.1 Q32.55 27.85 36.1 27.85 39.85 27.85 39.85 23.85 40.4 19.35 36.1 19.35 34.05 19.35 32.85 21.15" fill="#ff3c3c" fill-rule="evenodd" stroke="none"/>
      <path d="M86.1 -64.15 L88.8 -64.15 Q126.5 -9.05 137.05 4.05 124.6 3.7 86.1 3.45 L25.95 3.1 -82.9 3.35 Q-86.15 -0.3 -107.55 -28.55 -128.9 -56.8 -133.25 -65.8 -20.6 -63.95 86.1 -64.15" fill="#af921d" fill-rule="evenodd" stroke="none"/>
      <path d="M-82.75 7.05 L-82.55 6.25 Q3.4 7.6 86.1 7.85 L139.5 7.85 139.45 9.85 Q139.45 10.85 139.9 12.75 L140.3 14.1 Q123.45 13.5 28.95 13.1 L-82.45 13.35 -82.4 10.45 Q-82.4 9.1 -82.95 7.8 -82.7 7.6 -82.8 7.35 L-82.75 7.05" fill="#927918" fill-rule="evenodd" stroke="none"/>
      <path d="M-7.55 17.2 L-8.9 20.85 Q-10.15 25.35 -10.15 27.5 -10.15 28.5 -9.25 31.1 -7.85 35.1 -5.35 38.4 2.55 48.85 18.35 48.85 32.95 48.85 40.9 39.2 46.35 32.55 46.35 26.95 44.95 20.5 43.25 17.65 90.9 17.95 137.45 17.85 L137.45 18.1 Q137.45 19.7 142.5 29.7 L145.35 35.35 Q132.3 35.45 124.9 47.4 122.4 51.45 120.95 56.25 119.85 59.8 119.85 61.35 119.85 63.25 120.1 64.6 86.15 64.3 26.45 64.1 L-68.25 64.3 -68.15 59.95 Q-68.15 51.4 -74.9 43.85 -82.5 35.35 -93.65 35.35 L-96.55 35.45 Q-86.85 20.75 -84.9 16.15 L-7.55 17.2" fill="#feb4b4" fill-rule="evenodd" stroke="none"/>
      <path d="M60.5 -57.25 Q64.5 -59.25 70.5 -59.25 80.15 -59.25 82.55 -55.25 84.15 -55.2 83.75 -52.0 L83.6 -49.75 Q87.25 -49.5 87.25 -44.15 L87.25 -41.5 Q86.75 -39.75 84.0 -39.75 L82.45 -39.8 82.1 -36.95 82.5 -36.7 82.65 -36.9 82.75 -36.15 Q82.75 -35.15 79.55 -34.0 76.05 -32.75 72.0 -32.75 67.0 -32.75 63.25 -34.5 61.6 -35.3 60.85 -35.9 L60.5 -35.75 Q59.65 -37.7 58.7 -41.5 L57.25 -47.25 57.25 -54.45 57.3 -54.45 Q57.6 -55.75 60.5 -57.25 M59.2 -51.55 L61.75 -39.6 61.75 -38.15 65.15 -36.85 Q69.15 -35.5 71.6 -35.5 77.4 -35.5 80.25 -36.8 79.75 -37.95 79.75 -39.65 79.75 -41.4 80.75 -48.0 L81.05 -49.85 80.35 -49.5 79.5 -49.15 79.5 -49.2 Q77.65 -48.6 74.9 -48.35 L74.6 -48.35 72.2 -48.25 71.75 -48.25 Q65.9 -48.25 61.9 -50.0 L61.85 -50.05 60.5 -50.75 59.2 -51.55 M62.45 -52.35 Q64.85 -50.95 66.25 -50.95 L79.1 -51.65 79.35 -51.9 79.55 -52.45 Q79.7 -53.0 80.75 -53.45 78.35 -56.5 66.75 -56.5 66.05 -56.5 59.75 -54.2 L62.45 -52.35 M22.0 -58.25 Q23.8 -58.75 -24.05 -58.75 -21.5 -53.45 -15.15 -34.2 -10.9 -21.25 -6.95 -8.2 L-6.5 -8.25 14.5 -9.0 22.5 -10.2 35.25 -10.25 46.3 -10.05 Q42.35 -19.85 30.15 -58.35 L22.0 -58.25 M30.05 -60.65 L31.25 -60.75 32.2 -59.7 32.25 -59.65 32.25 -59.6 Q34.65 -55.25 41.25 -34.65 L48.95 -9.85 Q50.85 -9.6 49.25 -9.15 L49.25 -8.6 49.25 -8.4 49.05 -7.25 Q49.25 -6.75 48.0 -6.75 47.8 -6.75 47.3 -7.75 L45.9 -7.7 16.05 -6.95 14.05 -6.7 13.8 -6.3 1.75 -5.75 -6.9 -6.05 Q-7.0 -5.75 -8.0 -5.75 L-8.25 -6.2 -9.15 -6.45 Q-9.75 -6.65 -9.55 -6.95 L-9.25 -7.15 -9.2 -7.55 -10.25 -7.45 -36.5 -6.25 -43.5 -5.0 Q-54.45 -2.25 -55.25 -2.25 -55.45 -1.75 -56.5 -1.75 -58.75 -1.75 -62.55 -11.75 L-68.0 -27.5 Q-69.3 -30.95 -72.25 -41.35 -75.25 -52.0 -75.25 -53.25 L-75.15 -54.4 -75.2 -54.45 Q-75.55 -54.65 -75.45 -54.95 L-75.25 -55.15 -74.9 -55.2 -74.0 -56.25 -73.7 -55.35 -30.5 -61.25 -26.15 -60.9 -25.0 -61.25 -9.25 -61.75 29.8 -60.05 Q29.85 -60.5 30.05 -60.65 M71.65 -47.3 L71.55 -47.3 Q69.15 -47.3 68.2 -45.05 67.75 -43.9 67.75 -42.65 L68.45 -40.1 Q69.65 -37.7 72.2 -37.7 L73.3 -37.75 73.15 -38.1 73.65 -39.3 Q73.65 -39.9 72.3 -41.65 70.9 -43.4 70.9 -44.65 70.9 -46.0 71.8 -47.1 L71.65 -47.3 M71.5 -44.65 Q71.5 -43.85 72.9 -42.05 74.25 -40.25 74.25 -39.35 L73.95 -37.9 Q76.65 -38.7 76.55 -42.4 76.55 -44.5 75.65 -45.2 73.15 -46.2 72.2 -46.8 L71.5 -44.65 M77.15 -42.4 Q77.15 -37.05 72.9 -37.05 69.35 -37.05 67.9 -39.8 L67.15 -42.7 Q67.15 -44.05 67.65 -45.35 68.6 -47.8 70.85 -47.8 73.15 -47.8 76.05 -45.7 77.15 -44.9 77.15 -42.4 M84.75 -43.9 Q84.75 -44.6 83.25 -45.75 L83.15 -45.8 82.7 -41.65 84.55 -42.55 Q84.75 -42.8 84.75 -43.9 M-26.75 -58.45 L-34.7 -58.7 -49.7 -56.2 Q-51.6 -55.25 -53.55 -54.7 -57.1 -53.75 -68.25 -53.75 L-73.25 -53.95 Q-63.95 -25.6 -56.05 -4.6 -54.15 -6.0 -46.9 -7.3 -38.45 -8.8 -27.5 -9.5 L-18.25 -9.75 -9.55 -9.5 -26.75 -56.25 -26.75 -58.45" fill="#000000" fill-rule="evenodd" stroke="none"/>
      <path d="M59.2 -51.55 L60.5 -50.75 61.85 -50.05 61.9 -50.0 Q65.9 -48.25 71.75 -48.25 L72.2 -48.25 74.6 -48.35 74.9 -48.35 Q77.65 -48.6 79.5 -49.2 L79.5 -49.15 80.35 -49.5 81.05 -49.85 80.75 -48.0 Q79.75 -41.4 79.75 -39.65 79.75 -37.95 80.25 -36.8 77.4 -35.5 71.6 -35.5 69.15 -35.5 65.15 -36.85 L61.75 -38.15 61.75 -39.6 59.2 -51.55 M71.5 -44.65 L72.2 -46.8 Q73.15 -46.2 75.65 -45.2 76.55 -44.5 76.55 -42.4 76.65 -38.7 73.95 -37.9 L74.25 -39.35 Q74.25 -40.25 72.9 -42.05 71.5 -43.85 71.5 -44.65 M74.3 -43.3 L74.3 -42.85 Q74.45 -42.45 75.2 -42.45 75.9 -42.45 75.9 -43.05 75.8 -44.05 74.95 -44.05 74.3 -44.05 74.3 -43.3 M77.15 -42.4 Q77.15 -44.9 76.05 -45.7 73.15 -47.8 70.85 -47.8 68.6 -47.8 67.65 -45.35 67.15 -44.05 67.15 -42.7 L67.9 -39.8 Q69.35 -37.05 72.9 -37.05 77.15 -37.05 77.15 -42.4 M69.95 -41.05 Q69.2 -41.05 69.05 -41.5 L69.05 -41.95 Q69.05 -42.7 69.55 -42.7 70.65 -42.7 70.65 -41.75 70.65 -41.05 69.95 -41.05" fill="#ff3c3c" fill-rule="evenodd" stroke="none"/>
      <path d="M79.35 -51.9 L79.1 -51.65 66.25 -50.95 Q64.85 -50.95 62.45 -52.35 L66.85 -53.75 Q75.9 -53.75 79.35 -51.9" fill="#bb5e00" fill-rule="evenodd" stroke="none"/>
      <path d="M79.35 -51.9 Q75.9 -53.75 66.85 -53.75 L62.45 -52.35 59.75 -54.2 Q66.05 -56.5 66.75 -56.5 78.35 -56.5 80.75 -53.45 79.7 -53.0 79.55 -52.45 L79.35 -51.9" fill="#fd0b0b" fill-rule="evenodd" stroke="none"/>
      <path d="M22.0 -58.25 L30.15 -58.35 Q42.35 -19.85 46.3 -10.05 L35.25 -10.25 22.5 -10.2 14.5 -9.0 -6.5 -8.25 -6.95 -8.2 Q-10.9 -21.25 -15.15 -34.2 -21.5 -53.45 -24.05 -58.75 23.8 -58.75 22.0 -58.25 M1.0 -13.4 Q0.85 -13.15 1.3 -12.95 2.75 -12.25 9.75 -12.25 13.45 -12.25 27.0 -14.5 40.25 -16.7 40.25 -17.15 41.0 -18.25 36.0 -18.25 L1.25 -13.65 1.0 -13.4 M19.0 -25.25 L13.5 -25.2 5.55 -24.55 Q2.75 -24.2 2.75 -23.15 L2.85 -22.45 Q3.35 -21.75 5.5 -21.75 L11.55 -22.45 24.15 -22.95 Q25.75 -23.15 25.75 -24.15 27.35 -25.25 19.0 -25.25 M18.0 -27.25 Q19.25 -27.55 19.25 -28.65 L19.0 -29.5 17.75 -29.75 Q2.65 -29.7 -0.95 -29.25 -2.75 -29.05 -2.75 -28.15 L-3.05 -27.95 Q-3.25 -27.65 -2.7 -27.45 L7.25 -26.75 18.0 -27.25 M19.0 -38.75 L14.3 -38.45 -3.1 -37.8 Q-4.3 -37.6 -4.4 -37.35 L-4.25 -37.15 -4.5 -36.95 Q-4.7 -36.65 -4.2 -36.45 L5.25 -35.75 Q22.25 -35.75 22.25 -37.65 22.25 -38.75 19.0 -38.75 M13.8 -40.45 Q14.5 -39.75 16.25 -39.75 18.75 -39.75 18.75 -41.15 L18.5 -42.0 16.25 -42.25 Q13.75 -42.15 13.75 -41.15 L13.8 -40.45 M18.5 -43.9 Q19.25 -44.05 19.25 -45.15 22.0 -46.25 9.0 -46.25 L-0.5 -46.2 Q-1.25 -46.1 -1.25 -45.15 L-1.55 -44.9 Q-1.75 -44.65 -1.2 -44.45 L9.0 -43.75 Q17.4 -43.75 18.5 -43.9 M23.75 -35.65 L24.25 -31.95 Q25.55 -28.25 29.5 -28.25 33.55 -28.25 34.25 -29.95 L34.25 -32.9 Q35.65 -37.25 30.0 -37.25 23.75 -37.25 23.75 -35.65 M27.25 -30.95 Q26.5 -30.95 26.55 -31.65 L26.75 -33.25 26.7 -34.35 27.55 -34.5 31.75 -34.7 31.75 -31.0 27.25 -30.95 M-33.25 -52.15 L-33.5 -53.0 -36.25 -53.25 Q-47.75 -51.05 -47.75 -49.65 -47.75 -49.0 -47.25 -48.5 L-46.0 -48.25 Q-33.25 -51.65 -33.25 -52.15 M-26.75 -58.45 L-26.75 -56.25 -9.55 -9.5 -18.25 -9.75 -27.5 -9.5 Q-38.45 -8.8 -46.9 -7.3 -54.15 -6.0 -56.05 -4.6 -63.95 -25.6 -73.25 -53.95 L-68.25 -53.75 Q-57.1 -53.75 -53.55 -54.7 -51.6 -55.25 -49.7 -56.2 L-34.7 -58.7 -26.75 -58.45 M-25.25 -20.4 Q-25.25 -19.15 -24.0 -18.75 -21.55 -19.85 -18.4 -20.4 -16.75 -20.75 -16.75 -21.65 L-17.0 -22.5 -18.5 -22.75 -24.0 -21.8 Q-25.25 -21.5 -25.25 -20.4 M-20.5 -32.25 L-25.55 -31.3 Q-26.75 -31.0 -26.75 -29.9 -26.75 -29.5 -25.5 -28.25 -19.25 -29.0 -19.25 -30.9 -19.25 -31.95 -20.5 -32.25 M-27.25 -43.4 Q-27.25 -44.45 -28.5 -44.75 L-32.65 -43.65 Q-34.25 -43.1 -34.25 -42.15 L-34.2 -41.45 Q-33.5 -40.75 -32.75 -40.75 -30.05 -40.75 -28.5 -41.75 -27.25 -42.55 -27.25 -43.4 M-17.25 -25.65 L-17.35 -26.4 -17.5 -26.2 Q-18.3 -26.75 -18.75 -26.75 L-21.25 -26.0 Q-23.75 -25.2 -23.75 -24.65 -23.75 -24.0 -23.25 -23.5 L-21.75 -23.25 Q-20.5 -23.25 -19.0 -23.9 -17.25 -24.7 -17.25 -25.65 M-48.15 -21.8 Q-48.5 -25.5 -49.0 -26.2 -44.25 -29.5 -33.75 -29.5 -29.65 -29.5 -29.2 -19.75 L-31.65 -19.05 -40.25 -18.45 Q-46.7 -18.45 -48.15 -21.8 M-52.25 -33.65 L-52.2 -32.95 Q-51.5 -32.25 -48.25 -32.25 -43.95 -32.25 -39.7 -33.5 -35.75 -34.65 -35.75 -35.65 L-35.85 -36.4 -36.0 -36.2 Q-36.8 -36.75 -37.25 -36.75 L-52.25 -33.65 M-53.2 -26.45 Q-52.5 -25.75 -50.7 -25.7 -50.95 -20.65 -50.5 -19.6 -48.9 -15.75 -41.25 -15.75 -35.2 -15.75 -30.45 -16.95 -25.75 -18.1 -25.75 -19.5 -25.75 -20.1 -28.25 -25.95 -30.95 -32.25 -32.0 -32.25 -37.1 -32.25 -44.95 -30.5 -53.25 -28.65 -53.25 -27.15 L-53.2 -26.45 M-60.0 -39.25 Q-57.25 -39.25 -57.25 -40.65 L-57.5 -41.5 -60.0 -41.75 Q-62.75 -41.6 -62.75 -40.65 L-62.7 -39.95 Q-62.2 -39.25 -60.0 -39.25 M-55.5 -46.7 Q-56.3 -47.25 -56.75 -47.25 -65.25 -47.25 -65.25 -45.15 L-65.2 -44.45 Q-64.5 -43.75 -64.0 -43.75 -55.25 -43.75 -55.25 -46.15 L-55.35 -46.9 -55.5 -46.7 M-44.75 -43.65 Q-44.75 -42.65 -43.5 -42.25 L-34.65 -44.0 Q-29.3 -45.1 -28.25 -47.25 -28.8 -48.25 -29.75 -48.25 -31.35 -48.25 -38.0 -46.25 -44.75 -44.2 -44.75 -43.65" fill="#f2f2f2" fill-rule="evenodd" stroke="none"/>
      <path d="M27.25 -30.95 L31.75 -31.0 31.75 -34.7 27.55 -34.5 26.7 -34.35 26.75 -33.25 26.55 -31.65 Q26.5 -30.95 27.25 -30.95 M23.75 -35.65 Q23.75 -37.25 30.0 -37.25 35.65 -37.25 34.25 -32.9 L34.25 -29.95 Q33.55 -28.25 29.5 -28.25 25.55 -28.25 24.25 -31.95 L23.75 -35.65 M18.5 -43.9 Q17.4 -43.75 9.0 -43.75 L-1.2 -44.45 Q-1.75 -44.65 -1.55 -44.9 L-1.25 -45.15 Q-1.25 -46.1 -0.5 -46.2 L9.0 -46.25 Q22.0 -46.25 19.25 -45.15 19.25 -44.05 18.5 -43.9 M13.8 -40.45 L13.75 -41.15 Q13.75 -42.15 16.25 -42.25 L18.5 -42.0 18.75 -41.15 Q18.75 -39.75 16.25 -39.75 14.5 -39.75 13.8 -40.45 M19.0 -38.75 Q22.25 -38.75 22.25 -37.65 22.25 -35.75 5.25 -35.75 L-4.2 -36.45 Q-4.7 -36.65 -4.5 -36.95 L-4.25 -37.15 -4.4 -37.35 Q-4.3 -37.6 -3.1 -37.8 L14.3 -38.45 19.0 -38.75 M18.0 -27.25 L7.25 -26.75 -2.7 -27.45 Q-3.25 -27.65 -3.05 -27.95 L-2.75 -28.15 Q-2.75 -29.05 -0.95 -29.25 2.65 -29.7 17.75 -29.75 L19.0 -29.5 19.25 -28.65 Q19.25 -27.55 18.0 -27.25 M19.0 -25.25 Q27.35 -25.25 25.75 -24.15 25.75 -23.15 24.15 -22.95 L11.55 -22.45 5.5 -21.75 Q3.35 -21.75 2.85 -22.45 L2.75 -23.15 Q2.75 -24.2 5.55 -24.55 L13.5 -25.2 19.0 -25.25 M1.0 -13.4 L1.25 -13.65 36.0 -18.25 Q41.0 -18.25 40.25 -17.15 40.25 -16.7 27.0 -14.5 13.45 -12.25 9.75 -12.25 2.75 -12.25 1.3 -12.95 0.85 -13.15 1.0 -13.4 M-33.25 -52.15 Q-33.25 -51.65 -46.0 -48.25 L-47.25 -48.5 Q-47.75 -49.0 -47.75 -49.65 -47.75 -51.05 -36.25 -53.25 L-33.5 -53.0 -33.25 -52.15 M-44.75 -43.65 Q-44.75 -44.2 -38.0 -46.25 -31.35 -48.25 -29.75 -48.25 -28.8 -48.25 -28.25 -47.25 -29.3 -45.1 -34.65 -44.0 L-43.5 -42.25 Q-44.75 -42.65 -44.75 -43.65 M-55.5 -46.7 L-55.35 -46.9 -55.25 -46.15 Q-55.25 -43.75 -64.0 -43.75 -64.5 -43.75 -65.2 -44.45 L-65.25 -45.15 Q-65.25 -47.25 -56.75 -47.25 -56.3 -47.25 -55.5 -46.7 M-60.0 -39.25 Q-62.2 -39.25 -62.7 -39.95 L-62.75 -40.65 Q-62.75 -41.6 -60.0 -41.75 L-57.5 -41.5 -57.25 -40.65 Q-57.25 -39.25 -60.0 -39.25 M-53.2 -26.45 L-53.25 -27.15 Q-53.25 -28.65 -44.95 -30.5 -37.1 -32.25 -32.0 -32.25 -30.95 -32.25 -28.25 -25.95 -25.75 -20.1 -25.75 -19.5 -25.75 -18.1 -30.45 -16.95 -35.2 -15.75 -41.25 -15.75 -48.9 -15.75 -50.5 -19.6 -50.95 -20.65 -50.7 -25.7 -52.5 -25.75 -53.2 -26.45 M-52.25 -33.65 L-37.25 -36.75 Q-36.8 -36.75 -36.0 -36.2 L-35.85 -36.4 -35.75 -35.65 Q-35.75 -34.65 -39.7 -33.5 -43.95 -32.25 -48.25 -32.25 -51.5 -32.25 -52.2 -32.95 L-52.25 -33.65 M-48.15 -21.8 Q-46.7 -18.45 -40.25 -18.45 L-31.65 -19.05 -29.2 -19.75 Q-29.65 -29.5 -33.75 -29.5 -44.25 -29.5 -49.0 -26.2 -48.5 -25.5 -48.15 -21.8 M-17.25 -25.65 Q-17.25 -24.7 -19.0 -23.9 -20.5 -23.25 -21.75 -23.25 L-23.25 -23.5 Q-23.75 -24.0 -23.75 -24.65 -23.75 -25.2 -21.25 -26.0 L-18.75 -26.75 Q-18.3 -26.75 -17.5 -26.2 L-17.35 -26.4 -17.25 -25.65 M-27.25 -43.4 Q-27.25 -42.55 -28.5 -41.75 -30.05 -40.75 -32.75 -40.75 -33.5 -40.75 -34.2 -41.45 L-34.25 -42.15 Q-34.25 -43.1 -32.65 -43.65 L-28.5 -44.75 Q-27.25 -44.45 -27.25 -43.4 M-20.5 -32.25 Q-19.25 -31.95 -19.25 -30.9 -19.25 -29.0 -25.5 -28.25 -26.75 -29.5 -26.75 -29.9 -26.75 -31.0 -25.55 -31.3 L-20.5 -32.25 M-25.25 -20.4 Q-25.25 -21.5 -24.0 -21.8 L-18.5 -22.75 -17.0 -22.5 -16.75 -21.65 Q-16.75 -20.75 -18.4 -20.4 -21.55 -19.85 -24.0 -18.75 -25.25 -19.15 -25.25 -20.4" fill="#808080" fill-rule="evenodd" stroke="none"/>
      <path d="M71.65 -47.3 L71.8 -47.1 Q70.9 -46.0 70.9 -44.65 70.9 -43.4 72.3 -41.65 73.65 -39.9 73.65 -39.3 L73.15 -38.1 73.3 -37.75 72.2 -37.7 Q69.65 -37.7 68.45 -40.1 L67.75 -42.65 Q67.75 -43.9 68.2 -45.05 69.15 -47.3 71.55 -47.3 L71.65 -47.3 M74.3 -43.3 Q74.3 -44.05 74.95 -44.05 75.8 -44.05 75.9 -43.05 75.9 -42.45 75.2 -42.45 74.45 -42.45 74.3 -42.85 L74.3 -43.3 M69.95 -41.05 Q70.65 -41.05 70.65 -41.75 70.65 -42.7 69.55 -42.7 69.05 -42.7 69.05 -41.95 L69.05 -41.5 Q69.2 -41.05 69.95 -41.05" fill="#ffffff" fill-rule="evenodd" stroke="none"/>
    </g>
  </defs>
</svg>
