<?xml version="1.0" encoding="UTF-8" standalone="no"?>
<svg xmlns:xlink="http://www.w3.org/1999/xlink" height="720.75px" width="1716.8px" xmlns="http://www.w3.org/2000/svg">
  <g transform="matrix(1, 0, 0, 1, 307.05, 450.35)">
    <use height="89.05" transform="matrix(1.0, 0.0, 0.0, 1.0, -25.6, -44.5)" width="51.2" xlink:href="#shape0"/>
  </g>
  <defs>
    <g id="shape0" transform="matrix(1, 0, 0, 1, 25.6, 44.5)">
      <path d="M12.0 -16.0 L12.0 26.0 -23.0 26.0 -23.0 -16.0 12.0 -16.0" fill="#ffffff" fill-opacity="0.0" fill-rule="evenodd" stroke="none"/>
      <path d="M2.35 -29.35 Q2.1 -27.9 -0.05 -23.3 L-2.2 -18.1 -1.85 -17.9 -1.7 -18.1 -1.6 -17.35 Q-4.3 -12.3 -6.95 -10.85 -6.35 -8.65 -5.95 -5.65 L-5.1 2.85 Q-5.1 3.3 -5.6 3.5 L-6.35 8.8 Q-6.35 9.0 -6.95 9.05 L-8.0 11.9 Q-6.75 11.3 -4.85 10.6 0.95 8.5 4.95 8.55 L6.85 5.9 Q9.55 2.25 11.15 1.55 L12.05 2.1 13.65 2.05 Q18.5 2.05 19.4 4.8 19.0 6.05 17.9 6.05 17.1 6.05 15.5 5.15 L11.65 5.05 11.4 4.8 9.7 6.95 7.35 9.7 7.4 9.9 7.15 11.3 5.4 11.35 Q-1.8 11.35 -9.35 15.55 L-9.45 15.5 -13.1 23.8 Q-20.2 39.6 -24.35 44.55 -25.6 44.15 -25.6 42.9 L-19.25 30.35 Q-20.15 29.95 -21.05 28.75 L-23.1 25.55 Q-22.35 24.05 -21.35 24.05 -19.35 24.05 -18.1 26.25 L-17.65 27.15 -16.1 24.05 -12.9 14.15 Q-10.7 7.8 -9.0 6.45 L-8.1 3.1 -7.75 2.1 Q-8.85 -0.65 -9.1 -8.35 L-8.9 -11.15 -9.1 -11.85 Q-9.1 -13.05 -7.1 -15.65 L-5.05 -17.75 -5.1 -18.35 Q-5.1 -19.4 -2.8 -25.1 -0.75 -30.15 0.55 -31.15 1.15 -32.45 4.2 -34.15 7.5 -35.95 8.15 -35.95 L9.25 -35.75 9.4 -34.6 Q9.4 -33.4 7.0 -32.0 L2.35 -29.35" fill="#000000" fill-rule="evenodd" stroke="none"/>
      <path d="M20.65 2.95 Q22.1 2.95 23.1 4.0 24.1 5.0 24.15 6.4 24.1 7.85 23.1 8.85 22.1 9.85 20.65 9.85 19.2 9.85 18.2 8.85 17.15 7.85 17.2 6.4 17.15 5.0 18.2 4.0 19.2 2.95 20.65 2.95" fill="#1a0be2" fill-rule="evenodd" stroke="none"/>
      <path d="M0.1 -44.5 Q2.95 -44.5 5.0 -42.5 7.0 -40.5 7.05 -37.65 7.0 -34.8 5.0 -32.8 2.95 -30.75 0.1 -30.75 -2.75 -30.75 -4.75 -32.8 -6.8 -34.8 -6.8 -37.65 -6.8 -40.5 -4.75 -42.5 -2.75 -44.5 0.1 -44.5 M-3.3 -41.05 Q-4.75 -39.65 -4.75 -37.65 -4.75 -35.65 -3.3 -34.25 -1.9 -32.85 0.1 -32.8 2.1 -32.85 3.55 -34.25 4.95 -35.65 4.95 -37.65 4.95 -39.65 3.55 -41.05 2.1 -42.45 0.1 -42.45 -1.9 -42.45 -3.3 -41.05 M7.1 -8.2 Q4.8 -5.9 1.55 -5.9 -1.7 -5.9 -4.0 -8.2 -6.3 -10.5 -6.3 -13.7 -6.3 -16.95 -4.0 -19.2 -1.7 -21.5 1.55 -21.5 4.8 -21.5 7.1 -19.2 9.4 -16.95 9.4 -13.7 9.4 -10.5 7.1 -8.2 M7.05 -13.7 Q7.05 -16.0 5.45 -17.55 3.8 -19.15 1.55 -19.15 -0.7 -19.15 -2.35 -17.55 -3.95 -16.0 -3.95 -13.7 -3.95 -11.45 -2.35 -9.85 -0.7 -8.25 1.55 -8.25 3.8 -8.25 5.45 -9.85 7.05 -11.45 7.05 -13.7 M9.3 0.05 Q10.6 1.3 10.65 3.15 10.6 5.0 9.3 6.3 8.0 7.6 6.2 7.6 4.35 7.6 3.05 6.3 1.7 5.0 1.7 3.15 1.7 1.3 3.05 0.05 4.35 -1.25 6.2 -1.25 8.0 -1.25 9.3 0.05 M6.2 0.05 Q4.9 0.05 3.95 1.0 3.05 1.85 3.05 3.15 3.05 4.45 3.95 5.35 4.9 6.25 6.2 6.25 7.45 6.25 8.35 5.35 9.25 4.45 9.3 3.15 9.25 1.85 8.35 1.0 7.45 0.05 6.2 0.05 M-14.1 -6.1 Q-15.1 -5.15 -15.05 -3.75 -15.1 -2.35 -14.1 -1.4 -13.1 -0.45 -11.7 -0.4 -10.35 -0.45 -9.35 -1.4 -8.35 -2.35 -8.35 -3.75 -8.35 -5.15 -9.35 -6.1 -10.35 -7.05 -11.7 -7.05 -13.1 -7.05 -14.1 -6.1 M-11.7 -8.5 Q-9.75 -8.5 -8.35 -7.1 -6.95 -5.7 -6.9 -3.75 -6.95 -1.75 -8.35 -0.35 -9.75 1.0 -11.7 1.05 -13.7 1.0 -15.1 -0.35 -16.5 -1.75 -16.5 -3.75 -16.5 -5.7 -15.1 -7.1 -13.7 -8.5 -11.7 -8.5 M24.15 2.95 Q25.6 4.35 25.6 6.4 25.6 8.45 24.15 9.9 22.7 11.35 20.65 11.35 18.6 11.35 17.15 9.9 15.65 8.45 15.7 6.4 15.65 4.35 17.15 2.95 18.6 1.5 20.65 1.5 22.7 1.5 24.15 2.95 M20.65 2.95 Q19.2 2.95 18.2 4.0 17.15 5.0 17.2 6.4 17.15 7.85 18.2 8.85 19.2 9.85 20.65 9.85 22.1 9.85 23.1 8.85 24.1 7.85 24.15 6.4 24.1 5.0 23.1 4.0 22.1 2.95 20.65 2.95" fill="#000000" fill-rule="evenodd" stroke="none"/>
      <path d="M-14.1 -6.1 Q-13.1 -7.05 -11.7 -7.05 -10.35 -7.05 -9.35 -6.1 -8.35 -5.15 -8.35 -3.75 -8.35 -2.35 -9.35 -1.4 -10.35 -0.45 -11.7 -0.4 -13.1 -0.45 -14.1 -1.4 -15.1 -2.35 -15.05 -3.75 -15.1 -5.15 -14.1 -6.1" fill="#28d220" fill-rule="evenodd" stroke="none"/>
      <path d="M-3.3 -41.05 Q-1.9 -42.45 0.1 -42.45 2.1 -42.45 3.55 -41.05 4.95 -39.65 4.95 -37.65 4.95 -35.65 3.55 -34.25 2.1 -32.85 0.1 -32.8 -1.9 -32.85 -3.3 -34.25 -4.75 -35.65 -4.75 -37.65 -4.75 -39.65 -3.3 -41.05" fill="#fffc5d" fill-rule="evenodd" stroke="none"/>
      <path d="M7.05 -13.7 Q7.05 -11.45 5.45 -9.85 3.8 -8.25 1.55 -8.25 -0.7 -8.25 -2.35 -9.85 -3.95 -11.45 -3.95 -13.7 -3.95 -16.0 -2.35 -17.55 -0.7 -19.15 1.55 -19.15 3.8 -19.15 5.45 -17.55 7.05 -16.0 7.05 -13.7" fill="#c33131" fill-rule="evenodd" stroke="none"/>
      <path d="M6.2 0.05 Q7.45 0.05 8.35 1.0 9.25 1.85 9.3 3.15 9.25 4.45 8.35 5.35 7.45 6.25 6.2 6.25 4.9 6.25 3.95 5.35 3.05 4.45 3.05 3.15 3.05 1.85 3.95 1.0 4.9 0.05 6.2 0.05" fill="#f94bff" fill-rule="evenodd" stroke="none"/>
    </g>
  </defs>
</svg>
