<?xml version="1.0" encoding="UTF-8" standalone="no"?>
<svg xmlns:xlink="http://www.w3.org/1999/xlink" height="720.75px" width="1716.8px" xmlns="http://www.w3.org/2000/svg">
  <g transform="matrix(1, 0, 0, 1, 307.05, 450.35)">
    <use height="212.95" transform="matrix(1.0, 0.0, 0.0, 1.0, -160.8, -106.55)" width="321.8" xlink:href="#shape0"/>
  </g>
  <defs>
    <g id="shape0" transform="matrix(1, 0, 0, 1, 160.8, 106.55)">
      <path d="M118.4 -11.25 L157.0 13.2 105.2 39.7 122.25 85.0 57.5 66.95 35.35 97.05 -1.7 71.8 -42.3 103.5 -64.3 72.2 -122.75 94.25 -107.45 51.75 -147.7 42.5 -121.05 8.4 -156.95 -21.7 -115.55 -37.75 -130.3 -73.45 -67.95 -56.6 -57.95 -90.3 -10.75 -66.2 16.2 -103.5 51.1 -68.2 100.25 -88.3 94.85 -48.95 145.4 -45.35 118.4 -11.25" fill="#ffffff" fill-opacity="0.7529412" fill-rule="evenodd" stroke="none"/>
      <path d="M118.4 -11.25 L157.0 13.2 105.2 39.7 122.25 85.0 57.5 66.95 35.35 97.05 -1.7 71.8 -42.3 103.5 -64.3 72.2 -122.75 94.25 -107.45 51.75 -147.7 42.5 -121.05 8.4 -156.95 -21.7 -115.55 -37.75 -130.3 -73.45 -67.95 -56.6 -57.95 -90.3 -10.75 -66.2 16.2 -103.5 51.1 -68.2 100.25 -88.3 94.85 -48.95 145.4 -45.35 118.4 -11.25" fill="none" stroke="#000000" stroke-linecap="round" stroke-linejoin="miter" stroke-miterlimit="768" stroke-opacity="0.7529412" stroke-width="4.0"/>
    </g>
  </defs>
</svg>
