<?xml version="1.0" encoding="UTF-8" standalone="no"?>
<svg xmlns:xlink="http://www.w3.org/1999/xlink" height="720.75px" width="1716.8px" xmlns="http://www.w3.org/2000/svg">
  <g transform="matrix(1, 0, 0, 1, 307.05, 450.35)">
    <use height="39.0" transform="matrix(1.0, 0.0, 0.0, 1.0, -135.65, -21.5)" width="271.3" xlink:href="#shape0"/>
  </g>
  <defs>
    <g id="shape0" transform="matrix(1, 0, 0, 1, 135.65, 21.5)">
      <path d="M-102.2 2.0 Q-55.25 0.75 -9.2 -7.65 66.25 -17.75 91.05 -19.1 115.85 -20.45 123.9 -17.1 131.95 -13.8 133.2 -7.7 134.4 -1.7 132.4 3.65 130.2 9.55 123.7 11.65 107.65 16.75 71.45 15.1 L-4.95 11.15 Q-52.35 7.35 -101.8 8.7 L-102.2 2.0 M-115.7 9.2 L-120.1 9.4 -121.3 11.0 Q-123.4 13.05 -126.45 13.1 -129.5 13.05 -131.55 11.0 -133.65 8.9 -133.65 5.85 -133.65 2.8 -131.55 0.75 -129.5 -1.35 -126.45 -1.35 -123.4 -1.35 -121.3 0.75 L-120.15 2.25 -115.7 2.2 -115.7 9.2" fill="#d1af61" fill-rule="evenodd" stroke="none"/>
      <path d="M-101.8 8.7 L-115.7 9.2 -115.7 2.2 -102.2 2.0 -101.8 8.7" fill="#666666" fill-rule="evenodd" stroke="none"/>
      <path d="M-102.2 2.0 Q-55.25 0.75 -9.2 -7.65 66.25 -17.75 91.05 -19.1 115.85 -20.45 123.9 -17.1 131.95 -13.8 133.2 -7.7 134.4 -1.7 132.4 3.65 130.2 9.55 123.7 11.65 107.65 16.75 71.45 15.1 L-4.95 11.15 Q-52.35 7.35 -101.8 8.7 L-115.7 9.2 -120.1 9.4 -121.3 11.0 Q-123.4 13.05 -126.45 13.1 -129.5 13.05 -131.55 11.0 -133.65 8.9 -133.65 5.85 -133.65 2.8 -131.55 0.75 -129.5 -1.35 -126.45 -1.35 -123.4 -1.35 -121.3 0.75 L-120.15 2.25 -115.7 2.2 -102.2 2.0 -101.8 8.7 M-115.7 2.2 L-115.7 9.2" fill="none" stroke="#000000" stroke-linecap="round" stroke-linejoin="miter" stroke-miterlimit="768" stroke-width="4.0"/>
    </g>
  </defs>
</svg>
