<?xml version="1.0" encoding="UTF-8" standalone="no"?>
<svg xmlns:xlink="http://www.w3.org/1999/xlink" height="720.75px" width="1716.8px" xmlns="http://www.w3.org/2000/svg">
  <g transform="matrix(1, 0, 0, 1, 307.05, 450.35)">
    <use height="22.4" transform="matrix(1.0, 0.0, 0.0, 1.0, -47.3, -10.95)" width="94.45" xlink:href="#shape0"/>
  </g>
  <defs>
    <g id="shape0" transform="matrix(1, 0, 0, 1, 47.3, 10.95)">
      <path d="M40.7 -8.95 Q42.6 -8.15 44.3 -5.15 46.0 -2.15 45.55 1.2 45.1 4.55 43.85 6.35 42.85 7.7 41.65 8.35 36.55 1.4 40.7 -8.95" fill="#6f3c3c" fill-rule="evenodd" stroke="none"/>
      <path d="M40.15 8.9 L39.8 8.9 39.8 8.7 40.15 8.85 40.15 8.9" fill="#ffffff" fill-rule="evenodd" stroke="none"/>
      <path d="M-15.0 9.9 L-27.5 9.9 Q-30.3 8.15 -31.3 6.1 -32.35 4.05 -32.05 0.45 -31.75 -3.15 -31.0 -5.7 -30.3 -8.25 -27.05 -9.45 L-15.5 -9.45 Q-17.35 -8.9 -19.15 -6.35 -21.05 -3.75 -21.05 -0.05 -21.05 3.65 -19.15 6.25 -17.35 8.8 -15.0 9.9" fill="#ba9501" fill-rule="evenodd" stroke="none"/>
      <path d="M40.7 -8.95 Q36.55 1.4 41.65 8.35 L40.95 8.7 40.15 8.85 39.8 8.7 39.8 8.9 -15.0 9.9 Q-17.35 8.8 -19.15 6.25 -21.05 3.65 -21.05 -0.05 -21.05 -3.75 -19.15 -6.35 -17.35 -8.9 -15.5 -9.45 L40.7 -8.95 M-27.5 9.9 Q-42.7 10.25 -43.9 6.25 -45.8 3.65 -45.8 -0.05 -45.8 -3.75 -43.9 -6.35 -42.7 -7.85 -27.05 -9.45 -30.3 -8.25 -31.0 -5.7 -31.75 -3.15 -32.05 0.45 -32.35 4.05 -31.3 6.1 -30.3 8.15 -27.5 9.9" fill="#532424" fill-rule="evenodd" stroke="none"/>
      <path d="M41.65 8.35 Q42.85 7.7 43.85 6.35 45.1 4.55 45.55 1.2 46.0 -2.15 44.3 -5.15 42.6 -8.15 40.7 -8.95 36.55 1.4 41.65 8.35 L40.95 8.7 40.15 8.85 40.2 8.9 40.15 8.9 39.8 8.9 -15.0 9.9 -27.5 9.9 Q-42.7 10.25 -43.9 6.25 -45.8 3.65 -45.8 -0.05 -45.8 -3.75 -43.9 -6.35 -42.7 -7.85 -27.05 -9.45 L-15.5 -9.45 40.7 -8.95 M40.15 8.85 L39.8 8.7 M-15.0 9.9 Q-17.35 8.8 -19.15 6.25 -21.05 3.65 -21.05 -0.05 -21.05 -3.75 -19.15 -6.35 -17.35 -8.9 -15.5 -9.45 M-27.05 -9.45 Q-30.3 -8.25 -31.0 -5.7 -31.75 -3.15 -32.05 0.45 -32.35 4.05 -31.3 6.1 -30.3 8.15 -27.5 9.9" fill="none" stroke="#000000" stroke-linecap="round" stroke-linejoin="round" stroke-width="3.0"/>
    </g>
  </defs>
</svg>
