<?xml version="1.0" encoding="UTF-8" standalone="no"?>
<svg xmlns:xlink="http://www.w3.org/1999/xlink" height="720.75px" width="1716.8px" xmlns="http://www.w3.org/2000/svg">
  <g transform="matrix(1, 0, 0, 1, 307.05, 450.35)">
    <use height="35.95" transform="matrix(1.0, 0.0, 0.0, 1.0, -17.9, -18.0)" width="35.75" xlink:href="#shape0"/>
  </g>
  <defs>
    <g id="shape0" transform="matrix(1, 0, 0, 1, 17.9, 18.0)">
      <path d="M15.3 -13.15 L9.35 13.65 Q0.35 17.35 -9.75 13.5 L-15.35 -13.25 Q-15.1 -12.45 -10.9 -11.85 L0.0 -11.25 10.85 -11.85 Q14.85 -12.45 15.3 -13.15 M11.95 -9.85 Q11.45 -9.9 11.15 -9.6 10.8 -9.3 10.8 -8.9 10.8 -8.5 11.15 -8.2 11.45 -7.9 11.95 -7.9 12.45 -7.9 12.8 -8.2 L13.1 -8.9 12.8 -9.6 Q12.45 -9.9 11.95 -9.85 M5.35 -5.95 Q5.35 -7.35 4.15 -8.35 2.95 -9.3 1.25 -9.3 -0.5 -9.3 -1.7 -8.35 -2.9 -7.35 -2.9 -5.95 -2.9 -4.6 -1.7 -3.6 -0.5 -2.6 1.25 -2.6 2.95 -2.6 4.15 -3.6 5.35 -4.6 5.35 -5.95 M6.05 6.15 Q7.45 6.15 8.45 5.4 9.45 4.7 9.45 3.65 9.45 2.6 8.45 1.85 7.45 1.1 6.05 1.15 4.6 1.1 3.6 1.85 2.6 2.6 2.6 3.65 2.6 4.7 3.6 5.4 4.6 6.15 6.05 6.15 M-2.1 10.25 Q-2.1 11.0 -1.3 11.6 -0.55 12.15 0.55 12.15 1.6 12.15 2.35 11.6 3.1 11.0 3.15 10.25 3.1 9.45 2.35 8.9 1.6 8.3 0.55 8.3 -0.55 8.3 -1.3 8.9 -2.1 9.45 -2.1 10.25 M-7.2 8.55 L-7.55 9.15 -7.2 9.75 -6.35 10.0 -5.55 9.75 -5.2 9.15 Q-5.25 8.8 -5.55 8.55 -5.9 8.3 -6.35 8.3 -6.85 8.3 -7.2 8.55 M-8.75 4.35 Q-8.05 4.9 -7.05 4.9 -6.1 4.9 -5.4 4.35 -4.7 3.8 -4.65 3.05 -4.7 2.25 -5.4 1.7 -6.1 1.1 -7.05 1.15 -8.05 1.1 -8.75 1.7 -9.45 2.25 -9.45 3.05 -9.45 3.8 -8.75 4.35 M-7.7 -8.25 Q-8.75 -8.25 -9.45 -7.7 -10.15 -7.2 -10.15 -6.45 -10.15 -5.7 -9.45 -5.15 -8.75 -4.65 -7.7 -4.6 -6.7 -4.65 -6.0 -5.15 -5.3 -5.7 -5.3 -6.45 -5.3 -7.2 -6.0 -7.7 -6.7 -8.25 -7.7 -8.25 M-11.05 -9.85 Q-11.4 -10.15 -11.85 -10.1 L-12.7 -9.85 Q-13.05 -9.55 -13.0 -9.15 -13.05 -8.75 -12.7 -8.45 -12.35 -8.15 -11.85 -8.15 -11.4 -8.15 -11.05 -8.45 -10.7 -8.75 -10.7 -9.15 -10.7 -9.55 -11.05 -9.85" fill="#d3bd5a" fill-rule="evenodd" stroke="none"/>
      <path d="M3.15 -12.5 L1.6 -12.35 0.05 -12.5 -0.6 -12.8 Q-0.6 -13.05 0.05 -13.15 L1.6 -13.3 3.15 -13.15 Q3.75 -13.05 3.8 -12.8 L3.15 -12.5 M4.0 -14.4 L5.55 -14.55 7.1 -14.4 Q7.7 -14.3 7.7 -14.05 7.7 -13.9 7.1 -13.75 L5.55 -13.6 4.0 -13.75 Q3.35 -13.9 3.35 -14.05 3.35 -14.3 4.0 -14.4 M5.35 -5.95 Q5.35 -4.6 4.15 -3.6 2.95 -2.6 1.25 -2.6 -0.5 -2.6 -1.7 -3.6 -2.9 -4.6 -2.9 -5.95 -2.9 -7.35 -1.7 -8.35 -0.5 -9.3 1.25 -9.3 2.95 -9.3 4.15 -8.35 5.35 -7.35 5.35 -5.95 M11.95 -9.85 Q12.45 -9.9 12.8 -9.6 L13.1 -8.9 12.8 -8.2 Q12.45 -7.9 11.95 -7.9 11.45 -7.9 11.15 -8.2 10.8 -8.5 10.8 -8.9 10.8 -9.3 11.15 -9.6 11.45 -9.9 11.95 -9.85 M-10.1 -13.25 Q-10.8 -13.4 -10.8 -13.6 -10.8 -13.85 -10.1 -13.95 L-8.5 -14.1 -6.9 -13.95 Q-6.25 -13.85 -6.2 -13.6 -6.25 -13.4 -6.9 -13.25 L-8.5 -13.1 -10.1 -13.25 M-11.05 -9.85 Q-10.7 -9.55 -10.7 -9.15 -10.7 -8.75 -11.05 -8.45 -11.4 -8.15 -11.85 -8.15 -12.35 -8.15 -12.7 -8.45 -13.05 -8.75 -13.0 -9.15 -13.05 -9.55 -12.7 -9.85 L-11.85 -10.1 Q-11.4 -10.15 -11.05 -9.85 M-7.7 -8.25 Q-6.7 -8.25 -6.0 -7.7 -5.3 -7.2 -5.3 -6.45 -5.3 -5.7 -6.0 -5.15 -6.7 -4.65 -7.7 -4.6 -8.75 -4.65 -9.45 -5.15 -10.15 -5.7 -10.15 -6.45 -10.15 -7.2 -9.45 -7.7 -8.75 -8.25 -7.7 -8.25 M-8.75 4.35 Q-9.45 3.8 -9.45 3.05 -9.45 2.25 -8.75 1.7 -8.05 1.1 -7.05 1.15 -6.1 1.1 -5.4 1.7 -4.7 2.25 -4.65 3.05 -4.7 3.8 -5.4 4.35 -6.1 4.9 -7.05 4.9 -8.05 4.9 -8.75 4.35 M-7.2 8.55 Q-6.85 8.3 -6.35 8.3 -5.9 8.3 -5.55 8.55 -5.25 8.8 -5.2 9.15 L-5.55 9.75 -6.35 10.0 -7.2 9.75 -7.55 9.15 -7.2 8.55 M-2.1 10.25 Q-2.1 9.45 -1.3 8.9 -0.55 8.3 0.55 8.3 1.6 8.3 2.35 8.9 3.1 9.45 3.15 10.25 3.1 11.0 2.35 11.6 1.6 12.15 0.55 12.15 -0.55 12.15 -1.3 11.6 -2.1 11.0 -2.1 10.25 M6.05 6.15 Q4.6 6.15 3.6 5.4 2.6 4.7 2.6 3.65 2.6 2.6 3.6 1.85 4.6 1.1 6.05 1.15 7.45 1.1 8.45 1.85 9.45 2.6 9.45 3.65 9.45 4.7 8.45 5.4 7.45 6.15 6.05 6.15" fill="#482102" fill-rule="evenodd" stroke="none"/>
      <path d="M-15.35 -13.25 L-15.4 -13.3 -15.4 -13.35 Q-15.4 -14.25 -10.9 -14.85 L0.0 -15.5 10.85 -14.85 Q15.35 -14.25 15.35 -13.35 L15.3 -13.15 Q14.85 -12.45 10.85 -11.85 L0.0 -11.25 -10.9 -11.85 Q-15.1 -12.45 -15.35 -13.25 M4.0 -14.4 Q3.35 -14.3 3.35 -14.05 3.35 -13.9 4.0 -13.75 L5.55 -13.6 7.1 -13.75 Q7.7 -13.9 7.7 -14.05 7.7 -14.3 7.1 -14.4 L5.55 -14.55 4.0 -14.4 M3.15 -12.5 L3.8 -12.8 Q3.75 -13.05 3.15 -13.15 L1.6 -13.3 0.05 -13.15 Q-0.6 -13.05 -0.6 -12.8 L0.05 -12.5 1.6 -12.35 3.15 -12.5 M-10.1 -13.25 L-8.5 -13.1 -6.9 -13.25 Q-6.25 -13.4 -6.2 -13.6 -6.25 -13.85 -6.9 -13.95 L-8.5 -14.1 -10.1 -13.95 Q-10.8 -13.85 -10.8 -13.6 -10.8 -13.4 -10.1 -13.25" fill="#93853e" fill-rule="evenodd" stroke="none"/>
      <path d="M-15.35 -13.25 L-15.4 -13.3 -15.4 -13.35 Q-15.4 -14.25 -10.9 -14.85 L0.0 -15.5 10.85 -14.85 Q15.35 -14.25 15.35 -13.35 L15.3 -13.15 9.35 13.65 Q0.35 17.35 -9.75 13.5 L-15.35 -13.25 Q-15.1 -12.45 -10.9 -11.85 L0.0 -11.25 10.85 -11.85 Q14.85 -12.45 15.3 -13.15" fill="none" stroke="#010101" stroke-linecap="round" stroke-linejoin="round" stroke-opacity="0.0" stroke-width="5.0"/>
    </g>
  </defs>
</svg>
