<?xml version="1.0" encoding="UTF-8" standalone="no"?>
<svg xmlns:xlink="http://www.w3.org/1999/xlink" height="720.75px" width="1716.8px" xmlns="http://www.w3.org/2000/svg">
  <g transform="matrix(1, 0, 0, 1, 307.05, 450.35)">
    <use height="316.05" transform="matrix(1.0, 0.0, 0.0, 1.0, -56.8, -208.05)" width="123.7" xlink:href="#sprite0"/>
  </g>
  <defs>
    <g id="sprite0" transform="matrix(1, 0, 0, 1, 58.25, 245.5)">
      <use height="300.8" transform="matrix(1.0, 0.0, 0.0, 1.0, -55.3, -245.5)" width="110.65" xlink:href="#shape0"/>
      <use height="53.7" transform="matrix(1.0, 0.0, 0.0, 1.0, -58.25, 16.85)" width="53.7" xlink:href="#shape1"/>
    </g>
    <g id="shape0" transform="matrix(1, 0, 0, 1, 55.3, 245.5)">
      <path d="M8.35 -244.85 Q8.65 -245.5 9.0 -245.5 12.25 -245.5 11.5 -195.3 L11.5 -194.75 Q11.75 -183.05 11.5 -164.75 L11.5 -159.45 11.5 -155.65 Q11.75 -143.95 11.5 -125.3 L11.5 -124.75 Q11.75 -113.05 11.5 -94.75 L11.5 -89.45 11.5 -75.45 11.25 -44.5 Q10.0 -43.75 9.0 -43.5 6.45 -47.4 6.2 -54.25 L6.15 -55.9 6.15 -56.65 6.5 -69.5 6.4 -75.45 6.45 -89.45 6.5 -94.6 6.5 -96.55 6.45 -98.05 6.45 -98.75 6.45 -99.65 6.45 -100.1 6.45 -100.55 6.4 -115.55 6.55 -119.45 6.45 -119.45 6.5 -124.6 6.5 -126.55 6.45 -128.05 6.45 -128.75 6.45 -129.65 6.45 -130.1 6.45 -130.55 6.4 -145.2 6.4 -145.45 6.4 -145.95 6.45 -159.45 6.5 -164.6 6.5 -166.55 6.45 -168.05 6.45 -168.75 6.45 -169.65 6.45 -170.1 6.45 -170.55 6.4 -175.2 6.4 -185.55 6.55 -189.45 6.45 -189.45 6.5 -194.6 6.5 -196.55 6.45 -198.05 6.45 -198.75 6.45 -199.65 6.45 -200.1 6.45 -200.55 6.4 -215.2 6.4 -215.55 7.65 -242.4 7.75 -242.8 Q8.0 -244.2 8.35 -244.85 M2.35 -54.25 L2.25 -44.5 Q1.0 -43.75 0.0 -43.5 -2.85 -47.85 -2.85 -55.9 L-2.5 -69.5 -2.6 -75.45 -2.55 -89.45 -2.5 -94.6 -2.55 -119.45 -2.5 -125.2 -2.6 -147.4 -2.6 -153.0 -2.55 -159.45 -2.5 -164.6 -2.55 -189.45 -2.5 -195.2 Q-3.25 -245.5 0.0 -245.5 0.35 -245.5 0.65 -244.9 L1.45 -241.9 2.65 -212.4 2.5 -194.75 2.5 -189.45 2.4 -189.45 2.65 -182.4 2.65 -175.2 2.5 -164.75 2.5 -159.45 2.5 -146.6 2.5 -145.45 2.55 -145.45 2.65 -142.4 2.5 -124.75 2.5 -119.45 2.4 -119.45 2.65 -112.4 2.5 -94.75 2.5 -89.45 2.5 -75.45 2.4 -56.7 2.35 -54.25" fill="#000000" fill-rule="evenodd" stroke="none"/>
      <path d="M6.2 -54.25 L3.75 -54.25 2.35 -54.25 2.4 -56.7 2.5 -75.45 2.5 -89.45 2.5 -94.75 2.65 -112.4 2.4 -119.45 2.5 -119.45 2.5 -124.75 2.65 -142.4 2.55 -145.45 2.5 -145.45 2.5 -146.6 2.5 -159.45 2.5 -164.75 2.65 -175.2 2.65 -182.4 2.4 -189.45 2.5 -189.45 2.5 -194.75 2.65 -212.4 1.45 -241.9 0.65 -244.9 4.5 -245.25 8.35 -244.85 Q8.0 -244.2 7.75 -242.8 L7.65 -242.4 6.4 -215.55 6.4 -215.2 6.45 -200.55 6.45 -200.1 6.45 -199.65 6.45 -198.75 6.45 -198.05 6.5 -196.55 6.5 -194.6 6.45 -189.45 6.55 -189.45 6.4 -185.55 6.4 -175.2 6.45 -170.55 6.45 -170.1 6.45 -169.65 6.45 -168.75 6.45 -168.05 6.5 -166.55 6.5 -164.6 6.45 -159.45 6.4 -145.95 6.4 -145.45 6.4 -145.2 6.45 -130.55 6.45 -130.1 6.45 -129.65 6.45 -128.75 6.45 -128.05 6.5 -126.55 6.5 -124.6 6.45 -119.45 6.55 -119.45 6.4 -115.55 6.45 -100.55 6.45 -100.1 6.45 -99.65 6.45 -98.75 6.45 -98.05 6.5 -96.55 6.5 -94.6 6.45 -89.45 6.4 -75.45 6.5 -69.5 6.15 -56.65 6.15 -55.9 6.2 -54.25" fill="#a2a2a2" fill-rule="evenodd" stroke="none"/>
      <path d="M1.45 -50.45 L1.55 -50.55 1.35 -50.55 Q-6.1 -46.25 -12.15 -42.25 L-6.7 -43.1 1.45 -50.45 M9.25 -54.65 L9.35 -54.7 9.5 -54.6 Q21.2 -52.6 31.75 -45.25 50.45 -32.15 54.45 -9.6 58.4 12.95 45.25 31.7 32.15 50.4 9.6 54.4 -12.95 58.35 -31.65 45.25 -43.9 36.65 -49.85 24.1 -53.0 17.4 -54.35 9.6 -57.55 -8.4 -49.85 -23.9 -47.9 -27.9 -45.2 -31.7 -32.1 -50.45 -9.55 -54.4 0.2 -56.1 9.25 -54.65 M24.2 -42.2 L25.3 -41.95 29.4 -40.7 28.25 -41.5 Q24.6 -44.05 20.85 -45.9 L24.2 -42.2 M22.05 -39.45 L22.35 -40.05 Q23.6 -42.25 15.95 -40.7 L14.75 -40.7 13.3 -40.65 12.05 -40.95 10.9 -41.2 9.6 -41.55 8.6 -41.85 8.55 -41.85 8.2 -41.95 8.1 -42.0 7.85 -42.1 7.5 -42.2 6.6 -42.55 -0.1 -42.1 -0.55 -42.0 Q-2.55 -41.6 0.25 -42.35 L-9.3 -40.2 -9.65 -40.15 -12.45 -39.85 -12.4 -39.85 -12.4 -39.9 -22.9 -37.65 -24.65 -37.35 Q-37.8 -30.35 -40.05 -27.5 L-45.9 -20.1 -37.7 -22.2 -34.55 -22.85 -22.55 -25.2 -19.1 -25.8 -18.55 -25.9 -6.8 -28.1 -4.5 -28.5 -2.9 -28.8 6.2 -29.8 8.35 -29.8 10.3 -29.8 15.95 -29.1 18.75 -28.5 Q25.4 -27.05 34.1 -23.9 L37.4 -22.7 45.9 -19.3 Q43.4 -25.9 35.95 -35.2 L35.75 -35.45 35.6 -35.25 29.6 -36.95 28.15 -37.4 Q24.5 -38.5 22.8 -39.15 L22.05 -39.45 M14.65 -43.75 L18.7 -43.3 12.65 -48.95 11.7 -49.2 14.65 -43.75 M9.2 -49.05 L9.05 -49.45 8.9 -49.3 Q6.2 -46.9 3.9 -44.0 L5.35 -44.05 7.4 -44.0 8.7 -44.05 8.2 -44.05 8.25 -44.45 8.75 -44.75 Q8.95 -47.95 9.2 -49.05 M-8.2 -13.65 L5.05 -14.75 5.85 -26.5 5.6 -26.55 2.6 -26.9 -5.55 -25.35 -7.8 -24.95 -9.8 -24.55 Q-9.6 -25.05 -9.85 -25.25 -11.6 -26.55 -20.6 -22.55 L-24.4 -21.8 Q-28.55 -21.05 -26.55 -21.35 L-39.85 -18.9 Q-49.25 -9.9 -49.6 -5.15 L-43.5 -7.1 -39.95 -8.0 -28.35 -10.45 -25.15 -11.0 -20.2 -11.9 -10.35 -13.4 -8.2 -13.65 M0.45 -43.85 L3.1 -47.7 -2.05 -43.6 0.45 -43.85 M49.35 -2.55 L48.25 -3.4 Q45.15 -6.05 41.45 -7.85 L40.25 -8.4 38.85 -8.95 38.75 -9.0 Q32.9 -11.2 25.15 -12.1 L20.85 -12.45 19.2 -12.55 18.45 -12.6 18.6 -11.2 Q14.55 -12.1 7.45 -3.55 L18.95 -2.85 21.25 -2.55 26.5 -1.65 Q33.45 -0.35 38.6 1.6 L41.1 2.6 Q46.0 4.8 48.75 7.65 49.6 2.7 49.35 -2.5 L49.35 -2.55 M18.25 -14.7 L17.0 -24.0 Q12.75 -24.35 7.35 -14.8 12.95 -15.0 18.25 -14.7 M34.45 2.8 L33.15 2.4 Q27.6 0.6 21.2 -0.25 L19.85 -0.4 19.15 -1.1 Q15.4 -2.4 7.35 -1.1 L4.6 -1.1 4.45 -1.1 4.45 -1.15 Q5.0 -3.85 -9.1 -0.1 L-12.0 0.25 -12.45 0.3 -12.55 -0.05 Q-13.7 -2.25 -25.9 2.5 L-28.4 3.0 -29.65 3.25 Q-29.8 0.9 -38.75 5.3 L-41.15 5.95 -41.5 6.05 Q-45.1 9.0 -45.55 18.95 -42.9 17.0 -38.7 15.65 L-36.65 15.0 -35.95 14.8 -26.35 13.0 -23.6 12.55 -19.55 11.8 -10.3 10.7 -7.85 10.5 Q-2.05 10.2 4.05 10.65 L6.85 10.85 18.1 12.45 19.7 12.8 21.0 13.05 Q28.5 14.65 33.85 16.85 L36.2 17.9 36.45 18.0 Q41.8 20.6 43.0 23.3 46.7 16.85 48.25 9.95 L47.8 9.65 44.4 7.5 40.6 5.35 38.1 4.25 34.8 2.95 Q35.95 2.25 34.45 2.8 M38.4 -11.95 L38.4 -12.2 Q37.6 -16.5 35.6 -21.0 28.4 -23.1 20.65 -14.55 L31.1 -13.4 38.4 -11.95 M4.7 -3.55 L4.95 -11.75 Q-1.65 -12.4 -9.1 -2.8 L4.7 -3.55 M47.05 -16.05 L45.95 -15.15 Q40.95 -11.95 41.05 -11.25 45.9 -9.85 48.85 -8.0 L48.6 -9.55 Q48.0 -12.95 47.05 -16.05 M-18.7 -41.1 L-18.3 -41.4 Q-13.5 -45.2 -9.45 -47.85 L-33.4 -37.75 Q-28.7 -39.2 -18.7 -41.1 M-28.95 -7.15 L-28.9 -7.5 Q-40.0 -1.95 -39.4 1.35 L-39.2 2.7 -28.75 0.3 Q-29.25 -4.15 -28.95 -7.15 M-26.15 -0.2 L-21.3 -1.05 -12.25 -2.45 -12.2 -3.6 -11.05 -10.15 Q-18.5 -10.65 -26.15 -0.2 M-21.4 23.85 L-19.05 23.4 -18.45 23.3 -7.5 22.15 -5.2 22.05 3.55 22.35 6.75 22.7 Q11.3 23.25 15.85 24.35 L18.0 24.85 20.15 25.45 Q24.0 26.55 27.35 27.8 L30.35 29.05 Q33.5 30.45 36.0 32.0 L36.45 32.4 40.25 27.6 40.4 27.4 41.75 25.35 Q39.1 22.9 34.8 20.75 L32.6 19.75 32.4 19.65 Q29.05 18.15 24.85 16.8 L19.4 15.25 17.75 14.85 17.7 14.85 Q16.55 13.0 6.85 13.15 L4.8 13.0 3.95 12.95 Q-1.6 12.65 -7.35 13.05 L-9.45 13.2 -9.7 13.25 -19.1 14.5 -22.6 15.15 -25.45 15.75 -25.55 15.8 Q-26.7 13.45 -34.95 18.25 L-36.8 18.85 -36.95 18.9 -36.15 20.3 Q-35.7 23.15 -38.4 30.6 -36.5 29.15 -33.3 27.75 L-31.95 27.15 -29.6 26.25 Q-25.65 24.75 -21.4 23.85 M-28.9 31.55 Q-29.7 32.1 -29.65 36.15 -29.65 40.2 -26.65 40.8 -24.75 39.85 -22.0 38.15 L-20.75 37.35 -20.35 37.2 Q-17.6 35.9 -13.6 34.75 L-10.6 33.95 Q-7.85 33.2 -4.55 32.6 L-1.95 32.05 -0.3 31.8 3.5 31.25 6.8 31.0 13.75 31.3 16.7 31.7 Q19.5 32.2 22.25 33.1 L23.15 33.4 26.95 34.8 Q30.1 36.2 31.15 37.55 L34.3 34.65 34.95 34.0 Q32.75 33.3 28.9 31.65 L28.85 31.65 25.6 30.25 24.75 29.9 Q21.05 28.4 18.8 27.75 L17.55 27.35 15.5 26.85 15.2 26.75 Q11.15 25.8 6.75 25.35 L4.15 25.1 3.5 25.05 -4.4 24.85 -6.6 24.95 -6.75 24.95 -16.8 25.85 -18.25 26.05 -19.9 26.3 -22.5 26.75 Q-23.3 26.9 -27.6 28.85 L-29.7 29.85 -30.05 30.0 -28.9 31.55 M-4.35 35.25 L-6.75 35.65 -8.8 36.05 -11.8 36.8 -12.35 36.95 Q-13.05 36.1 -13.6 36.15 -15.3 36.15 -17.75 38.95 L-19.25 39.7 -19.5 39.85 -19.7 39.95 -17.4 41.65 Q-20.8 42.85 -15.45 46.2 L-13.3 44.5 Q-11.8 43.55 -9.6 42.7 L-7.1 41.8 -4.1 40.9 -1.95 40.35 1.55 39.6 3.95 39.15 4.5 39.05 6.95 38.75 10.5 38.8 14.6 39.45 17.35 40.25 18.3 40.6 Q20.35 41.35 21.85 42.15 L23.1 42.85 25.5 41.5 28.3 39.7 27.3 38.9 25.45 37.1 23.7 35.8 Q22.9 35.35 22.0 35.05 L21.85 35.0 Q19.5 34.15 16.2 33.85 L12.8 33.7 12.55 33.7 6.85 33.85 3.6 34.15 3.2 34.2 Q2.95 32.3 -0.75 34.7 L-3.75 35.15 -4.35 35.25 M-3.35 45.4 L-4.85 44.0 -5.85 44.3 -3.35 45.4 M-0.95 42.95 L-1.8 43.15 -0.25 44.55 -0.95 42.95 M-10.35 46.35 L-10.4 46.35 -11.5 47.35 -6.9 48.15 -10.35 46.35 M-49.05 6.7 L-47.2 5.5 Q-45.3 4.45 -41.6 3.35 L-41.85 1.95 -42.95 -3.8 Q-49.55 3.4 -49.05 6.7 M5.4 47.3 L4.4 42.75 4.25 41.9 2.8 42.15 5.25 47.4 5.25 47.45 5.4 47.3 M9.1 41.45 L6.95 41.5 7.0 44.95 9.1 41.45 M15.35 42.5 L13.65 42.05 Q12.45 45.0 11.1 47.05 L15.35 42.5" fill="#000000" fill-rule="evenodd" stroke="none"/>
      <path d="M1.35 -50.55 L1.45 -50.45 -6.7 -43.1 -12.15 -42.25 Q-6.1 -46.25 1.35 -50.55 M24.2 -42.2 L20.85 -45.9 Q24.6 -44.05 28.25 -41.5 L29.4 -40.7 25.3 -41.95 24.2 -42.2 M22.05 -39.45 L22.8 -39.15 Q30.1 -31.3 34.1 -23.9 25.4 -27.05 18.75 -28.5 16.8 -38.3 22.05 -39.45 M35.6 -35.25 L35.75 -35.45 35.95 -35.2 Q43.4 -25.9 45.9 -19.3 L37.4 -22.7 Q33.9 -33.15 35.6 -35.25 M15.95 -29.1 L10.3 -29.8 8.35 -29.8 Q8.85 -32.15 13.15 -37.3 L13.3 -37.5 Q15.0 -32.8 15.95 -29.1 M6.2 -29.8 L-2.9 -28.8 -4.5 -28.5 Q-1.8 -36.15 7.8 -41.7 6.85 -36.1 6.2 -29.8 M-6.8 -28.1 L-18.55 -25.9 -0.75 -41.7 -2.15 -39.05 Q-5.0 -33.25 -6.8 -28.1 M-22.55 -25.2 L-34.55 -22.85 -18.75 -32.75 -13.65 -36.0 Q-19.75 -29.45 -22.55 -25.2 M-37.7 -22.2 L-45.9 -20.1 -40.05 -27.5 Q-37.8 -30.35 -24.65 -37.35 L-22.9 -37.65 Q-31.5 -30.45 -35.7 -24.95 L-37.7 -22.2 M14.65 -43.75 L11.7 -49.2 12.65 -48.95 18.7 -43.3 14.65 -43.75 M8.9 -49.3 L9.2 -49.05 Q8.95 -47.95 8.75 -44.75 L8.25 -44.45 8.2 -44.05 7.35 -44.05 7.25 -44.05 7.3 -44.1 Q6.75 -44.9 6.0 -44.5 L5.35 -44.05 3.9 -44.0 Q6.2 -46.9 8.9 -49.3 M0.45 -43.85 L-2.05 -43.6 3.1 -47.7 0.45 -43.85 M5.6 -26.55 L5.85 -26.5 5.05 -14.75 -8.2 -13.65 Q-4.4 -18.85 3.2 -24.2 5.4 -25.8 5.6 -26.55 M-10.35 -13.4 L-20.2 -11.9 -25.15 -11.0 Q-10.85 -21.95 -9.8 -24.55 L-7.8 -24.95 -8.8 -20.8 -10.35 -13.4 M-28.35 -10.45 L-39.95 -8.0 Q-39.45 -14.2 -24.6 -21.75 L-26.55 -21.35 Q-28.55 -21.05 -24.4 -21.8 -27.25 -15.2 -28.35 -10.45 M-43.5 -7.1 L-49.6 -5.15 Q-49.25 -9.9 -39.85 -18.9 -43.05 -13.7 -43.45 -10.1 L-43.5 -7.1 M49.35 -2.55 L49.35 -2.5 Q49.6 2.7 48.75 7.65 46.0 4.8 41.1 2.6 46.1 -3.8 49.35 -2.55 M38.6 1.6 Q33.45 -0.35 26.5 -1.65 L21.25 -2.55 Q23.3 -4.5 36.65 -7.3 L38.95 -7.85 Q39.25 -3.2 38.6 1.6 M18.95 -2.85 L7.45 -3.55 Q14.55 -12.1 18.6 -11.2 L18.95 -2.85 M18.25 -14.7 Q12.95 -15.0 7.35 -14.8 12.75 -24.35 17.0 -24.0 L18.25 -14.7 M34.45 2.8 Q35.95 2.25 34.8 2.95 L38.1 4.25 Q36.85 10.45 33.85 16.85 28.5 14.65 21.0 13.05 L19.7 12.8 Q22.45 8.1 29.7 4.85 L34.45 2.8 M47.8 9.65 L48.25 9.95 Q46.7 16.85 43.0 23.3 41.8 20.6 36.45 18.0 L36.2 17.9 Q36.25 17.75 44.5 12.85 47.45 11.1 47.8 9.65 M18.1 12.45 L6.85 10.85 Q16.85 -1.95 18.95 -0.25 18.8 7.1 18.1 12.45 M4.05 10.65 Q-2.05 10.2 -7.85 10.5 -5.0 4.15 -0.05 1.3 L4.45 -1.15 4.45 -1.1 4.6 -1.1 4.05 10.65 M-10.3 10.7 L-19.55 11.8 -23.6 12.55 Q-19.35 1.95 -12.45 0.3 L-12.0 0.25 -10.6 9.35 -10.3 10.7 M-26.35 13.0 L-35.95 14.8 -36.65 15.0 Q-37.55 12.05 -33.75 7.35 -30.05 2.65 -29.65 3.25 L-28.4 3.0 -28.0 5.7 -26.35 13.0 M-38.7 15.65 Q-42.9 17.0 -45.55 18.95 -45.1 9.0 -41.5 6.05 L-41.15 5.95 Q-39.85 12.85 -39.2 14.55 L-38.7 15.65 M4.7 -3.55 L-9.1 -2.8 Q-1.65 -12.4 4.95 -11.75 L4.7 -3.55 M38.4 -11.95 L31.1 -13.4 20.65 -14.55 Q28.4 -23.1 35.6 -21.0 37.6 -16.5 38.4 -12.2 L38.4 -11.95 M47.05 -16.05 Q48.0 -12.95 48.6 -9.55 L48.85 -8.0 Q45.9 -9.85 41.05 -11.25 40.95 -11.95 45.95 -15.15 L47.05 -16.05 M-18.7 -41.1 Q-28.7 -39.2 -33.4 -37.75 L-9.45 -47.85 Q-13.5 -45.2 -18.3 -41.4 L-18.7 -41.1 M-26.15 -0.2 Q-18.5 -10.65 -11.05 -10.15 L-12.2 -3.6 -12.25 -2.45 -21.3 -1.05 -26.15 -0.2 M-28.95 -7.15 Q-29.25 -4.15 -28.75 0.3 L-39.2 2.7 -39.4 1.35 Q-40.0 -1.95 -28.9 -7.5 L-28.95 -7.15 M-21.4 23.85 Q-25.65 24.75 -29.6 26.25 -24.5 17.9 -25.55 15.8 L-25.45 15.75 -24.75 17.5 -21.4 23.85 M-31.95 27.15 L-33.3 27.75 Q-36.5 29.15 -38.4 30.6 -35.7 23.15 -36.15 20.3 L-31.95 27.15 M17.7 14.85 L17.75 14.85 17.75 14.9 17.7 14.85 M40.25 27.6 L36.45 32.4 36.0 32.0 Q33.5 30.45 30.35 29.05 38.5 24.5 40.25 27.6 M27.35 27.8 Q24.0 26.55 20.15 25.45 L18.0 24.85 Q29.45 22.3 32.1 20.25 L30.3 23.4 27.35 27.8 M15.85 24.35 Q11.3 23.25 6.75 22.7 16.05 18.55 17.55 16.2 L15.85 24.35 M3.55 22.35 L-5.2 22.05 Q1.6 17.8 3.8 15.4 L3.65 19.4 3.55 22.35 M-7.5 22.15 L-18.45 23.3 Q-10.5 16.5 -9.55 13.85 L-7.5 22.15 M-22.0 38.15 Q-24.75 39.85 -26.65 40.8 -29.65 40.2 -29.65 36.15 -29.7 32.1 -28.9 31.55 -26.35 34.6 -22.0 38.15 M24.75 29.9 L25.6 30.25 23.15 33.4 22.25 33.1 Q19.5 32.2 16.7 31.7 23.05 30.75 24.75 29.9 M34.3 34.65 L31.15 37.55 Q30.1 36.2 26.95 34.8 32.05 34.9 34.3 34.65 M13.75 31.3 L6.8 31.0 Q13.15 29.05 14.9 27.75 L13.75 31.3 M3.5 31.25 L-0.3 31.8 -1.95 32.05 Q-2.55 30.55 2.7 26.55 L3.45 25.9 Q3.4 28.75 3.5 31.25 M-4.55 32.6 Q-7.85 33.2 -10.6 33.95 -6.65 28.7 -6.4 26.25 L-5.0 31.1 -4.55 32.6 M-13.6 34.75 Q-17.6 35.9 -20.35 37.2 -21.95 35.95 -18.8 29.0 L-18.55 28.4 -17.95 29.25 -13.6 34.75 M-4.35 35.25 L-3.75 35.15 -1.95 40.35 -4.1 40.9 Q-3.15 36.45 -4.35 35.25 M3.2 34.2 L3.6 34.15 Q3.7 36.9 3.95 39.15 L1.55 39.6 Q3.35 35.65 3.2 34.2 M12.55 33.7 L12.8 33.7 10.5 38.8 6.95 38.75 Q12.55 34.9 12.55 33.7 M25.5 41.5 L23.1 42.85 21.85 42.15 25.5 41.5 M17.35 40.25 L14.6 39.45 Q18.95 37.55 20.8 36.3 L17.35 40.25 M-7.1 41.8 L-9.6 42.7 Q-11.15 38.4 -12.35 36.95 L-11.8 36.8 -7.25 41.6 -7.1 41.8 M-13.3 44.5 L-15.45 46.2 Q-20.8 42.85 -17.4 41.65 L-16.0 42.65 -13.3 44.5 M-10.35 46.35 L-6.9 48.15 -11.5 47.35 -10.4 46.35 -10.35 46.35 M-0.95 42.95 L-0.25 44.55 -1.8 43.15 -0.95 42.95 M-3.35 45.4 L-5.85 44.3 -4.85 44.0 -3.35 45.4 M-49.05 6.7 Q-49.55 3.4 -42.95 -3.8 L-41.85 1.95 -41.6 3.35 Q-45.3 4.45 -47.2 5.5 L-49.05 6.7 M9.1 41.45 L7.0 44.95 6.95 41.5 9.1 41.45 M5.25 47.4 L2.8 42.15 4.25 41.9 4.4 42.75 5.4 47.3 5.25 47.4 M15.35 42.5 L11.1 47.05 Q12.45 45.0 13.65 42.05 L15.35 42.5" fill="#d9d9d9" fill-rule="evenodd" stroke="none"/>
      <path d="M-22.9 -37.65 L-12.4 -39.9 -12.4 -39.85 -12.45 -39.85 -9.65 -40.15 -9.3 -40.2 0.25 -42.35 Q-2.55 -41.6 -0.55 -42.0 L-0.1 -42.1 6.6 -42.55 7.5 -42.2 7.85 -42.1 8.1 -42.0 8.2 -41.95 8.55 -41.85 8.6 -41.85 9.6 -41.55 10.9 -41.2 12.05 -40.95 13.3 -40.65 14.75 -40.7 15.95 -40.7 Q23.6 -42.25 22.35 -40.05 L22.05 -39.45 Q16.8 -38.3 18.75 -28.5 L15.95 -29.1 Q15.0 -32.8 13.3 -37.5 L13.15 -37.3 Q8.85 -32.15 8.35 -29.8 L6.2 -29.8 Q6.85 -36.1 7.8 -41.7 -1.8 -36.15 -4.5 -28.5 L-6.8 -28.1 Q-5.0 -33.25 -2.15 -39.05 L-0.75 -41.7 -18.55 -25.9 -19.1 -25.8 -22.55 -25.2 Q-19.75 -29.45 -13.65 -36.0 L-18.75 -32.75 -34.55 -22.85 -37.7 -22.2 -35.7 -24.95 Q-31.5 -30.45 -22.9 -37.65 M22.8 -39.15 Q24.5 -38.5 28.15 -37.4 L29.6 -36.95 35.6 -35.25 Q33.9 -33.15 37.4 -22.7 L34.1 -23.9 Q30.1 -31.3 22.8 -39.15 M-8.2 -13.65 L-10.35 -13.4 -8.8 -20.8 -7.8 -24.95 -5.55 -25.35 2.6 -26.9 5.6 -26.55 Q5.4 -25.8 3.2 -24.2 -4.4 -18.85 -8.2 -13.65 M-25.15 -11.0 L-28.35 -10.45 Q-27.25 -15.2 -24.4 -21.8 L-20.6 -22.55 Q-11.6 -26.55 -9.85 -25.25 -9.6 -25.05 -9.8 -24.55 -10.85 -21.95 -25.15 -11.0 M-39.95 -8.0 L-43.5 -7.1 -43.45 -10.1 Q-43.05 -13.7 -39.85 -18.9 L-26.55 -21.35 -24.6 -21.75 Q-39.45 -14.2 -39.95 -8.0 M18.6 -11.2 L18.45 -12.6 19.2 -12.55 20.85 -12.45 25.15 -12.1 Q32.9 -11.2 38.75 -9.0 L38.85 -8.95 40.25 -8.4 41.45 -7.85 Q45.15 -6.05 48.25 -3.4 L49.35 -2.55 Q46.1 -3.8 41.1 2.6 L38.6 1.6 Q39.25 -3.2 38.95 -7.85 L36.65 -7.3 Q23.3 -4.5 21.25 -2.55 L18.95 -2.85 18.6 -11.2 M4.6 -1.1 L7.35 -1.1 Q15.4 -2.4 19.15 -1.1 L19.85 -0.4 21.2 -0.25 Q27.6 0.6 33.15 2.4 L34.45 2.8 29.7 4.85 Q22.45 8.1 19.7 12.8 L18.1 12.45 Q18.8 7.1 18.95 -0.25 16.85 -1.95 6.85 10.85 L4.05 10.65 4.6 -1.1 M38.1 4.25 L40.6 5.35 44.4 7.5 47.8 9.65 Q47.45 11.1 44.5 12.85 36.25 17.75 36.2 17.9 L33.85 16.85 Q36.85 10.45 38.1 4.25 M-7.85 10.5 L-10.3 10.7 -10.6 9.35 -12.0 0.25 -9.1 -0.1 Q5.0 -3.85 4.45 -1.15 L-0.05 1.3 Q-5.0 4.15 -7.85 10.5 M-23.6 12.55 L-26.35 13.0 -28.0 5.7 -28.4 3.0 -25.9 2.5 Q-13.7 -2.25 -12.55 -0.05 L-12.45 0.3 Q-19.35 1.95 -23.6 12.55 M-36.65 15.0 L-38.7 15.65 -39.2 14.55 Q-39.85 12.85 -41.15 5.95 L-38.75 5.3 Q-29.8 0.9 -29.65 3.25 -30.05 2.65 -33.75 7.35 -37.55 12.05 -36.65 15.0 M-18.45 23.3 L-19.05 23.4 -21.4 23.85 -24.75 17.5 -25.45 15.75 -22.6 15.15 -19.1 14.5 -9.7 13.25 -9.45 13.2 -7.35 13.05 Q-1.6 12.65 3.95 12.95 L4.8 13.0 6.85 13.15 Q16.55 13.0 17.7 14.85 L17.75 14.9 17.75 14.85 19.4 15.25 24.85 16.8 Q29.05 18.15 32.4 19.65 L32.6 19.75 34.8 20.75 Q39.1 22.9 41.75 25.35 L40.4 27.4 40.25 27.6 Q38.5 24.5 30.35 29.05 L27.35 27.8 30.3 23.4 32.1 20.25 Q29.45 22.3 18.0 24.85 L15.85 24.35 17.55 16.2 Q16.05 18.55 6.75 22.7 L3.55 22.35 3.65 19.4 3.8 15.4 Q1.6 17.8 -5.2 22.05 L-7.5 22.15 -9.55 13.85 Q-10.5 16.5 -18.45 23.3 M-29.6 26.25 L-31.95 27.15 -36.15 20.3 -36.95 18.9 -36.8 18.85 -34.95 18.25 Q-26.7 13.45 -25.55 15.8 -24.5 17.9 -29.6 26.25 M-28.9 31.55 L-30.05 30.0 -29.7 29.85 -27.6 28.85 Q-23.3 26.9 -22.5 26.75 L-19.9 26.3 -18.25 26.05 -16.8 25.85 -6.75 24.95 -6.6 24.95 -4.4 24.85 3.5 25.05 4.15 25.1 6.75 25.35 Q11.15 25.8 15.2 26.75 L15.5 26.85 17.55 27.35 18.8 27.75 Q21.05 28.4 24.75 29.9 23.05 30.75 16.7 31.7 L13.75 31.3 14.9 27.75 Q13.15 29.05 6.8 31.0 L3.5 31.25 Q3.4 28.75 3.45 25.9 L2.7 26.55 Q-2.55 30.55 -1.95 32.05 L-4.55 32.6 -5.0 31.1 -6.4 26.25 Q-6.65 28.7 -10.6 33.95 L-13.6 34.75 -17.95 29.25 -18.55 28.4 -18.8 29.0 Q-21.95 35.95 -20.35 37.2 L-20.75 37.35 -22.0 38.15 Q-26.35 34.6 -28.9 31.55 M25.6 30.25 L28.85 31.65 28.9 31.65 Q32.75 33.3 34.95 34.0 L34.3 34.65 Q32.05 34.9 26.95 34.8 L23.15 33.4 25.6 30.25 M-11.8 36.8 L-8.8 36.05 -6.75 35.65 -4.35 35.25 Q-3.15 36.45 -4.1 40.9 L-7.1 41.8 -7.25 41.6 -11.8 36.8 M-3.75 35.15 L-0.75 34.7 Q2.95 32.3 3.2 34.2 3.35 35.65 1.55 39.6 L-1.95 40.35 -3.75 35.15 M3.6 34.15 L6.85 33.85 12.55 33.7 Q12.55 34.9 6.95 38.75 L4.5 39.05 3.95 39.15 Q3.7 36.9 3.6 34.15 M12.8 33.7 L16.2 33.85 Q19.5 34.15 21.85 35.0 L22.0 35.05 Q22.9 35.35 23.7 35.8 L25.45 37.1 27.3 38.9 28.3 39.7 25.5 41.5 21.85 42.15 Q20.35 41.35 18.3 40.6 L17.35 40.25 20.8 36.3 Q18.95 37.55 14.6 39.45 L10.5 38.8 12.8 33.7 M-9.6 42.7 Q-11.8 43.55 -13.3 44.5 L-16.0 42.65 -17.4 41.65 -19.7 39.95 -19.5 39.85 -19.25 39.7 -17.75 38.95 Q-15.3 36.15 -13.6 36.15 -13.05 36.1 -12.35 36.95 -11.15 38.4 -9.6 42.7" fill="#010101" fill-rule="evenodd" stroke="none"/>
    </g>
    <g id="shape1" transform="matrix(1, 0, 0, 1, -11.75, 3.15)">
      <path d="M45.0 18.0 L65.45 23.95 44.85 29.95 38.85 50.55 32.9 30.1 11.75 23.95 32.75 17.85 38.85 -3.15 45.0 18.0" fill="#ffffff" fill-rule="evenodd" stroke="none"/>
    </g>
  </defs>
</svg>
