<?xml version="1.0" encoding="UTF-8" standalone="no"?>
<svg xmlns:xlink="http://www.w3.org/1999/xlink" height="720.75px" width="1716.8px" xmlns="http://www.w3.org/2000/svg">
  <g transform="matrix(1, 0, 0, 1, 307.05, 450.35)">
    <use height="295.65" transform="matrix(0.85, 0.0, 0.0, 0.85, -228.2476, -125.6735)" width="537.15" xlink:href="#sprite0"/>
  </g>
  <defs>
    <g id="sprite0" transform="matrix(1, 0, 0, 1, 261.0, 158.5)">
      <use height="295.65" transform="matrix(1.0, 0.0, 0.0, 1.0, -261.0, -158.5)" width="537.15" xlink:href="#shape0"/>
      <use height="295.65" transform="matrix(1.0, 0.0, 0.0, 1.0, -261.0, -158.5)" width="537.15" xlink:href="#shape1"/>
    </g>
    <g id="shape0" transform="matrix(1, 0, 0, 1, 261.0, 158.5)">
      <path d="M103.85 -158.5 Q144.6 -158.5 177.05 -129.75 188.05 -120.0 196.75 -108.05 202.95 -99.5 205.35 -94.0 L205.1 -92.55 213.85 -84.15 Q222.35 -76.1 225.6 -73.75 232.75 -44.75 225.65 -44.85 L216.55 -44.2 Q206.3 -43.9 182.85 -24.75 L172.8 -16.6 173.05 -16.05 173.9 -16.45 Q178.55 -18.5 188.35 -18.5 193.5 -18.5 208.1 -16.3 226.45 -13.55 233.15 -10.2 239.65 -7.75 242.35 -5.5 L241.95 -5.0 Q247.95 -0.85 253.4 4.6 276.1 27.3 276.15 59.5 276.1 91.7 253.4 114.4 230.7 137.1 198.5 137.15 166.3 137.1 143.6 114.4 126.6 97.4 122.35 75.15 121.9 95.6 119.35 102.3 L119.35 102.85 Q119.35 104.45 118.9 104.8 L117.85 105.25 117.3 105.25 116.35 105.5 115.4 105.25 Q11.8 105.5 -43.9 104.55 L-101.5 103.7 -101.7 103.55 -102.5 103.5 -102.5 102.0 -102.45 101.95 -102.5 100.25 Q-102.5 97.6 -98.4 87.1 -104.45 101.15 -116.15 112.85 -140.3 137.0 -174.5 137.0 -208.7 137.0 -232.85 112.85 -257.0 88.7 -257.0 54.5 -257.0 20.3 -232.85 -3.85 -208.7 -28.0 -174.5 -28.0 -156.65 -28.0 -141.5 -21.4 -143.5 -24.55 -143.5 -27.5 L-143.1 -28.8 -142.85 -29.05 Q-137.75 -33.25 -126.25 -39.7 L-114.6 -46.0 Q-121.4 -47.45 -144.55 -59.45 -165.25 -70.2 -167.5 -72.0 -175.5 -78.45 -180.45 -81.5 -184.1 -83.75 -187.7 -85.4 -188.7 -82.1 -194.0 -75.25 -200.5 -66.85 -209.7 -58.05 -226.15 -42.25 -232.0 -38.35 -243.4 -30.8 -249.5 -37.25 L-249.5 -37.55 Q-234.25 -59.7 -233.5 -61.75 L-233.5 -62.0 Q-237.45 -62.35 -241.1 -64.4 -244.5 -66.3 -244.5 -67.75 -244.5 -69.6 -242.05 -75.45 -239.5 -81.5 -238.5 -81.5 -237.55 -81.5 -229.9 -77.0 -222.2 -72.5 -221.0 -72.5 -219.75 -72.5 -212.75 -81.75 L-231.95 -90.3 Q-248.5 -97.7 -248.5 -99.9 -248.5 -104.25 -247.1 -106.35 -258.05 -113.15 -261.0 -130.5 L-260.15 -130.15 Q-233.3 -126.45 -203.2 -125.75 L-156.0 -123.5 Q-146.15 -122.35 -142.3 -120.9 -140.4 -120.2 -136.45 -114.85 L-130.75 -106.85 Q-120.2 -92.7 -117.25 -89.75 -114.5 -87.0 -97.1 -84.45 -74.15 -81.1 -68.15 -79.5 -54.95 -76.05 -39.6 -73.2 -22.2 -70.0 -14.25 -70.0 -13.65 -70.0 0.1 -73.9 17.8 -78.9 33.25 -82.5 87.2 -95.15 129.95 -95.85 128.45 -97.25 123.7 -106.5 119.45 -114.7 119.1 -115.8 117.7 -114.7 112.65 -118.7 116.4 -119.65 118.25 -122.45 L118.4 -122.65 118.4 -123.0 Q118.55 -123.85 118.85 -124.35 114.5 -125.6 108.8 -126.05 L104.3 -126.15 Q99.45 -130.9 100.05 -131.65 L97.0 -133.2 Q90.4 -135.4 85.5 -138.5 76.0 -144.45 78.15 -152.0 80.0 -158.5 84.85 -158.5 L86.35 -158.2 Q90.95 -158.5 103.85 -158.5 M100.7 -138.95 Q121.8 -129.2 130.9 -125.4 139.95 -121.65 146.45 -110.75 152.95 -99.9 153.55 -96.05 154.1 -92.2 153.65 -91.9 151.9 -90.65 147.6 -90.25 145.05 -90.0 117.35 -90.0 L117.25 -90.0 Q96.0 -89.15 40.7 -76.7 L4.15 -68.3 Q-12.15 -64.5 -14.15 -64.5 -23.9 -64.5 -45.2 -68.95 L-72.65 -75.0 -103.85 -80.7 Q-119.1 -83.6 -121.75 -86.25 -125.85 -90.35 -134.65 -102.75 -137.05 -106.2 -142.4 -110.75 -148.6 -116.1 -152.0 -116.5 -179.6 -119.85 -216.5 -120.0 -243.15 -120.25 -254.65 -122.65 L-253.2 -120.15 Q-246.85 -109.1 -244.25 -107.75 -236.65 -103.8 -222.35 -100.45 -203.3 -96.0 -193.0 -92.5 -178.25 -87.45 -163.05 -75.0 -158.3 -71.15 -142.45 -63.55 -123.35 -54.5 -108.0 -50.5 -88.15 -46.15 -77.75 -42.0 L-52.45 -33.85 Q-40.65 -30.05 -35.0 -27.25 -25.6 -34.45 -13.9 -41.75 7.6 -55.15 27.95 -63.25 51.1 -72.5 67.35 -72.5 87.5 -72.5 98.4 -67.6 102.05 -65.95 104.9 -63.6 L107.95 -60.9 Q156.4 -74.5 172.35 -74.5 L172.85 -74.5 173.35 -78.9 Q171.35 -89.9 171.35 -92.4 L171.6 -95.0 174.35 -95.5 Q179.8 -95.5 198.65 -87.0 L205.15 -84.0 Q199.9 -89.05 199.4 -91.6 191.85 -92.8 173.0 -105.45 L157.5 -116.05 Q149.45 -121.5 146.35 -123.0 113.7 -138.55 84.35 -151.75 83.7 -149.7 83.45 -146.9 L100.7 -138.95 M147.75 -101.7 Q145.2 -105.85 142.2 -109.6 132.95 -121.15 124.35 -123.0 L124.15 -123.05 123.6 -121.3 Q139.6 -97.5 140.55 -96.65 L149.9 -97.9 147.75 -101.7 M149.65 -126.5 Q191.05 -104.3 195.55 -101.05 L193.3 -104.45 Q182.5 -119.5 168.6 -127.75 125.95 -150.1 100.15 -152.4 109.15 -148.2 149.65 -126.5 M71.85 -61.5 Q82.8 -61.5 87.9 -55.1 L99.35 -58.45 99.95 -58.65 99.2 -59.0 92.95 -62.25 Q82.7 -67.0 66.75 -67.0 48.95 -67.0 21.35 -54.65 1.1 -45.6 -14.65 -35.0 -21.6 -30.4 -35.65 -17.35 -34.25 -17.1 -29.5 -14.6 -25.3 -12.4 -24.35 -11.65 -20.7 -14.6 -15.2 -16.75 -17.65 -19.55 -17.65 -20.25 L-17.5 -20.35 -17.5 -20.4 Q-5.05 -25.25 7.15 -29.4 L31.45 -37.5 Q31.4 -38.0 32.3 -40.25 33.5 -43.05 35.05 -44.75 38.7 -48.6 44.2 -52.4 50.15 -56.5 60.15 -59.3 68.1 -61.5 71.85 -61.5 M36.8 -39.5 L36.6 -39.2 36.9 -39.25 64.4 -48.0 81.85 -53.3 Q79.0 -56.0 72.25 -56.0 53.65 -56.0 42.85 -46.45 39.65 -43.6 36.8 -39.5 M47.35 -7.95 Q38.35 -14.45 38.35 -16.75 38.35 -20.5 55.5 -25.1 77.85 -31.1 83.1 -33.75 86.35 -35.4 121.85 -48.5 125.9 -48.5 134.85 -44.5 143.35 -40.7 143.35 -39.75 143.35 -37.45 132.6 -31.1 122.55 -25.15 107.65 -18.25 71.55 -1.5 59.35 -1.5 56.3 -1.5 47.35 -7.95 M60.25 -8.0 Q67.6 -8.0 94.15 -18.35 122.85 -29.6 134.6 -38.75 133.35 -40.0 127.25 -41.6 122.05 -43.0 121.1 -43.0 59.35 -21.4 45.85 -16.25 L51.95 -11.0 Q56.15 -8.0 60.25 -8.0 M211.95 -50.9 L226.5 -51.5 225.3 -57.0 Q223.2 -68.55 220.35 -71.0 L218.5 -72.5 217.85 -72.5 195.45 -80.65 195.4 -80.65 195.35 -80.5 Q195.35 -79.15 203.05 -66.75 209.3 -56.65 211.95 -50.9 M178.35 -78.75 L177.85 -73.3 Q178.15 -73.05 175.95 -70.7 173.8 -68.35 173.55 -68.75 149.5 -62.7 -8.35 -19.1 -3.0 -14.95 16.4 2.05 39.05 21.95 44.1 27.8 35.7 45.65 30.85 51.5 17.7 49.1 6.35 48.55 2.35 50.0 -46.15 62.3 -90.6 73.55 -91.6 75.25 -92.15 76.2 -96.95 100.75 -47.45 100.65 29.15 100.9 103.35 101.2 113.35 101.45 113.45 87.9 115.65 65.7 119.25 29.8 125.85 19.5 132.0 9.85 143.2 -1.0 155.4 -12.85 166.85 -19.25 180.7 -26.95 191.35 -38.0 L198.45 -44.35 Q205.05 -49.9 206.6 -50.2 204.25 -53.9 197.15 -68.25 190.35 -82.05 190.4 -82.55 182.25 -85.65 177.35 -87.75 178.35 -83.75 178.35 -78.75 M169.6 -14.1 L166.1 -11.3 164.15 -9.75 Q164.7 -9.4 197.5 57.05 L198.15 58.4 197.35 57.2 197.3 57.3 Q196.25 58.7 196.25 60.55 196.25 61.9 196.85 63.05 L196.95 63.25 197.85 64.45 Q199.45 66.05 201.75 66.05 204.05 66.05 205.65 64.45 207.25 62.85 207.25 60.55 L207.25 60.25 207.2 59.7 Q206.95 57.95 205.65 56.65 204.15 55.15 202.05 55.05 L201.75 55.05 201.35 55.05 201.9 57.25 200.9 55.1 Q188.2 28.25 171.15 -10.2 L171.05 -10.3 Q170.45 -10.85 170.4 -12.15 L170.05 -12.95 169.6 -14.1 M175.5 -11.1 L176.6 -8.85 193.25 24.45 193.8 24.25 Q202.5 24.3 203.05 24.05 202.65 23.1 202.8 14.4 202.95 5.55 203.55 4.7 L225.1 -6.0 213.3 -9.6 Q207.5 -11.2 201.75 -12.0 L188.75 -13.0 Q178.95 -13.0 175.85 -11.5 L175.5 -11.1 M270.15 59.5 Q270.1 29.8 249.15 8.85 242.7 2.4 235.45 -2.05 L224.15 0.8 Q215.9 2.8 211.7 4.95 226.2 8.4 237.45 19.7 253.75 36.0 253.75 59.1 253.75 82.15 237.45 98.5 221.15 114.75 198.05 114.8 174.95 114.75 158.65 98.5 142.35 82.15 142.35 59.1 142.35 36.0 158.65 19.7 163.15 15.15 168.2 11.9 L161.55 -2.05 Q154.25 2.4 147.85 8.85 126.9 29.8 126.9 59.5 126.9 89.2 147.85 110.15 168.8 131.1 198.5 131.15 228.2 131.1 249.15 110.15 270.1 89.2 270.15 59.5 M245.45 43.7 L241.35 46.55 Q237.0 49.2 232.0 50.9 233.35 55.85 233.35 60.6 233.35 70.5 228.35 78.25 225.2 83.15 220.4 86.3 222.6 87.7 226.15 91.75 229.0 95.0 230.3 96.95 L233.2 94.25 Q247.75 79.65 247.75 59.1 247.75 50.9 245.45 43.7 M235.45 43.75 Q242.5 39.95 243.95 39.6 240.3 31.05 233.2 23.95 221.95 12.7 207.15 10.15 206.25 15.55 206.95 25.35 221.55 27.9 228.65 42.25 L230.55 46.65 Q232.3 45.4 235.45 43.75 M177.05 28.5 Q175.5 26.95 170.85 17.35 166.65 20.15 162.9 23.95 154.6 32.25 151.05 42.5 159.05 42.65 165.2 46.65 L165.4 45.8 Q169.15 31.55 177.05 28.5 M174.85 43.45 Q168.35 53.35 168.35 61.1 168.35 71.05 172.4 76.5 179.45 86.0 198.75 86.0 217.35 86.0 224.65 73.75 228.35 67.5 228.35 60.25 228.35 50.45 220.6 42.25 211.65 32.8 197.25 32.5 L203.9 46.4 Q207.6 47.2 210.45 50.05 213.6 53.25 214.25 57.6 L214.4 58.9 214.4 59.7 Q214.4 65.4 210.45 69.35 206.5 73.3 200.8 73.3 195.1 73.3 191.15 69.35 189.8 67.95 188.9 66.4 L188.65 65.9 Q187.2 63.1 187.2 59.7 187.2 56.55 188.45 53.9 L180.05 36.2 179.3 37.2 174.85 43.45 M163.35 61.5 Q163.35 56.95 164.05 52.45 160.0 52.15 155.6 51.05 151.9 50.1 149.35 48.85 148.35 53.75 148.35 59.1 148.35 79.65 162.9 94.25 L167.45 98.3 Q168.45 96.35 170.55 93.15 173.55 88.6 175.4 86.7 169.45 83.45 166.35 78.05 163.85 73.65 163.35 67.9 L163.35 61.5 M179.35 89.0 Q174.8 97.85 172.2 101.65 183.65 108.75 198.05 108.8 213.55 108.75 225.6 100.55 L220.9 95.6 Q216.3 90.2 215.5 88.8 208.65 91.5 199.35 91.5 187.35 91.5 179.35 88.5 L179.35 89.0 M9.4 22.25 Q4.75 32.5 -5.15 32.5 -20.75 32.5 -28.1 21.5 -32.65 14.7 -32.65 8.0 -32.65 4.5 -32.1 1.5 -39.2 1.45 -44.3 -0.3 L-50.5 -3.05 -81.3 22.55 Q-81.5 22.35 -55.9 -8.25 L-55.7 -8.5 -55.9 -8.5 -56.15 -8.5 -61.75 -8.55 -61.85 -8.0 Q-61.8 -2.65 -68.0 1.9 -73.6 6.0 -76.4 5.2 -80.8 3.9 -87.1 1.35 -93.4 -1.25 -96.75 -1.55 L-107.95 5.6 -113.0 8.75 -113.05 8.8 -131.55 20.35 -136.7 23.55 -137.5 24.0 -169.0 43.25 -172.85 45.6 Q-174.3 44.95 -176.0 44.85 L-176.4 44.85 Q-179.95 44.85 -182.4 47.35 L-183.3 48.35 Q-184.9 50.5 -184.9 53.35 -184.9 55.45 -184.0 57.2 L-183.85 57.5 -182.4 59.35 Q-179.95 61.8 -176.4 61.8 -172.85 61.8 -170.4 59.35 -168.1 57.0 -167.95 53.75 -85.5 38.95 -85.5 38.5 -85.5 35.45 -83.0 33.5 L-82.85 33.65 Q-81.4 32.6 -68.8 26.15 -54.45 18.85 -49.65 17.5 -50.25 19.65 -52.25 22.25 -56.25 27.5 -63.15 30.0 L-42.9 31.0 Q-42.25 35.1 -43.1 35.25 L-47.05 35.45 -58.15 35.5 -68.85 34.65 -69.3 34.6 -68.9 34.75 Q-64.45 36.1 -55.9 39.0 -47.2 41.95 -43.15 43.55 L-42.65 42.1 Q-42.0 40.05 -40.85 38.65 L-48.65 38.5 -48.65 37.0 -47.15 35.75 -43.1 35.75 -4.15 35.5 Q25.15 35.85 34.95 36.3 L35.0 36.15 Q36.7 32.35 38.65 30.15 31.15 26.1 12.35 9.65 12.3 15.9 9.4 22.25 M6.65 4.6 Q-5.1 -5.9 -11.15 -12.2 L-17.65 -8.35 Q-27.65 -1.75 -27.65 8.25 -27.65 13.5 -22.15 19.55 -15.3 27.0 -5.25 27.0 3.2 27.0 5.95 16.9 7.9 9.75 6.65 4.6 M15.15 44.5 L29.6 46.25 Q30.8 45.1 33.25 40.0 L-35.65 38.75 -35.65 39.25 Q-35.65 43.3 -41.35 52.75 L-44.75 57.7 -26.95 52.8 2.75 44.4 11.3 44.3 12.5 44.35 13.2 44.35 13.85 44.4 15.15 44.5 M-243.5 -104.25 L-243.5 -104.05 Q-243.35 -102.8 -243.8 -100.2 -243.95 -98.55 -225.75 -91.15 -207.5 -83.75 -207.5 -82.65 -207.5 -81.0 -213.35 -73.8 -219.25 -66.5 -221.0 -66.5 -234.15 -74.15 -237.5 -75.5 L-239.0 -68.75 -232.5 -66.7 Q-226.5 -64.65 -226.5 -63.75 -226.5 -58.5 -238.85 -43.75 -238.5 -39.4 -229.05 -47.6 -217.5 -58.65 -213.0 -62.5 -211.4 -63.95 -200.85 -77.05 L-192.5 -87.25 -198.0 -88.75 Q-225.9 -94.4 -243.4 -104.2 L-243.5 -104.25 M-134.5 -22.5 Q-130.5 -23.25 -117.25 -29.65 L-92.25 -41.45 -96.1 -42.35 -107.9 -44.7 Q-114.1 -40.15 -136.5 -25.75 -135.1 -23.9 -134.5 -22.5 M-95.6 -6.5 L-95.5 -6.5 Q-89.65 -6.5 -78.0 -1.5 L-77.55 -1.3 -77.6 -4.8 Q-77.5 -12.25 -78.65 -15.6 -79.8 -18.95 -86.9 -26.95 L-94.5 -35.35 Q-106.85 -29.35 -133.1 -17.1 -124.1 -11.8 -116.15 -3.85 L-110.95 1.8 Q-96.7 -6.5 -96.0 -6.5 L-95.6 -6.5 M-85.9 -39.65 L-89.2 -37.95 Q-78.4 -27.95 -75.3 -19.3 -72.25 -10.7 -72.65 -5.75 -72.65 -2.65 -73.05 -0.35 L-69.55 -1.3 Q-66.65 -13.3 -66.65 -15.65 -66.65 -19.9 -68.8 -23.85 L-68.95 -23.9 -68.95 -24.15 Q-70.65 -27.15 -73.55 -29.95 L-78.35 -34.35 Q-79.6 -35.7 -80.15 -36.8 L-84.5 -39.0 -85.9 -39.65 M-64.5 -27.7 L-61.3 -28.05 -57.7 -28.3 -66.0 -31.1 -65.15 -29.2 -64.5 -27.7 M-61.65 -15.75 L-61.65 -13.1 -56.15 -13.5 -51.2 -13.35 -47.1 -17.25 -40.25 -23.15 -42.05 -23.65 Q-44.75 -23.5 -53.65 -23.5 L-63.05 -23.55 Q-61.65 -19.1 -61.65 -15.75 M-28.65 -7.2 L-28.45 -7.45 -33.05 -9.55 Q-37.85 -11.95 -39.7 -13.5 L-47.05 -6.45 -30.3 -4.3 -28.65 -7.2 M-80.0 38.7 L-75.65 65.0 -64.05 62.45 -77.95 37.35 -78.1 37.5 -80.0 38.7 M-67.7 44.45 L-64.75 50.0 -62.95 48.15 Q-59.7 45.05 -57.4 44.0 L-70.35 39.8 Q-69.15 41.7 -67.7 44.45 M-52.65 45.5 L-52.65 45.85 Q-52.65 46.7 -62.5 54.25 -61.9 55.35 -60.65 61.65 L-56.65 60.7 -44.95 47.95 -52.55 45.55 -52.65 45.5 M-89.6 45.05 L-92.35 46.2 Q-92.0 50.25 -92.0 54.5 -92.0 64.0 -93.85 72.75 -90.5 68.25 -78.95 65.7 -81.4 60.85 -83.3 53.55 -84.8 47.7 -85.25 42.85 L-89.6 45.05 M-126.25 54.1 L-143.3 55.8 -143.5 58.0 Q-143.5 66.1 -150.25 73.75 -153.6 77.55 -158.05 80.05 -153.75 83.5 -147.5 94.95 -144.05 92.45 -140.8 89.25 -126.25 74.65 -126.25 54.1 M-140.55 19.2 L-140.8 18.95 Q-153.05 6.65 -169.65 4.75 -168.8 6.65 -168.65 9.2 -168.5 12.15 -168.5 18.5 L-168.9 19.45 Q-164.0 20.55 -160.6 23.05 -157.2 25.5 -156.05 28.5 L-140.55 19.2 M-116.25 4.85 Q-118.25 2.55 -120.4 0.4 -142.8 -22.0 -174.5 -22.0 -206.2 -22.0 -228.6 0.4 -251.0 22.8 -251.0 54.5 -251.0 86.2 -228.6 108.6 -206.2 131.0 -174.5 131.0 -142.8 131.0 -120.4 108.6 -98.0 86.2 -98.0 54.5 L-98.2 48.2 -104.75 50.0 Q-112.15 51.85 -120.25 53.2 L-120.25 54.1 Q-120.25 77.15 -136.55 93.5 -152.85 109.75 -175.95 109.8 -199.05 109.75 -215.35 93.5 -231.65 77.15 -231.65 54.1 -231.65 31.0 -215.35 14.7 -199.05 -1.65 -175.95 -1.6 -152.85 -1.65 -136.55 14.7 L-135.25 16.05 -116.25 4.85 M-149.55 58.45 L-149.35 56.15 -161.6 56.5 Q-162.65 60.35 -165.6 63.35 -170.15 67.85 -176.6 67.9 -183.1 67.85 -187.6 63.35 -189.15 61.8 -190.2 60.0 L-190.5 59.45 Q-192.1 56.25 -192.1 52.4 -192.1 47.2 -189.2 43.25 L-187.6 41.4 Q-183.1 36.9 -176.6 36.9 L-175.85 36.9 Q-173.3 37.0 -171.05 37.85 L-160.2 31.0 Q-162.3 29.65 -164.75 28.25 -172.3 24.0 -177.65 24.0 -194.25 24.0 -200.95 39.25 -204.5 47.3 -204.5 56.1 -204.5 62.35 -199.25 69.25 -191.75 79.0 -178.15 79.0 -159.2 79.0 -152.4 67.1 -150.15 63.2 -149.55 58.45 M-96.3 81.6 L-96.8 83.0 -96.5 82.25 -96.3 81.6 M-174.5 10.6 Q-174.5 6.75 -173.8 4.45 L-175.95 4.4 Q-196.55 4.35 -211.1 18.95 -217.35 25.2 -220.9 32.6 L-219.0 32.5 Q-209.75 32.5 -205.75 35.0 L-205.25 35.35 Q-197.5 18.5 -178.0 18.5 L-173.7 18.7 Q-174.25 17.55 -174.5 15.7 L-174.5 10.6 M-222.8 37.15 Q-225.65 45.05 -225.65 54.1 -225.65 74.65 -211.1 89.25 L-209.45 90.8 Q-209.15 89.55 -205.3 84.15 -201.95 79.45 -199.2 77.1 -201.85 74.65 -203.95 71.5 -206.85 67.15 -208.4 61.85 -209.5 58.1 -209.5 56.0 -209.5 47.6 -207.25 40.5 L-216.35 39.5 Q-220.5 38.65 -222.8 37.15 M-199.9 86.1 Q-204.15 91.65 -206.1 93.7 -193.1 103.75 -175.95 103.8 -162.45 103.75 -151.55 97.55 L-163.6 82.4 Q-169.95 84.5 -178.0 84.5 -188.2 84.5 -195.4 80.0 -196.7 81.95 -199.9 86.1" fill="#000000" fill-rule="evenodd" stroke="none"/>
      <path d="M100.7 -138.95 L83.45 -146.9 Q83.7 -149.7 84.35 -151.75 113.7 -138.55 146.35 -123.0 149.45 -121.5 157.5 -116.05 L173.0 -105.45 Q191.85 -92.8 199.4 -91.6 199.9 -89.05 205.15 -84.0 L198.65 -87.0 Q179.8 -95.5 174.35 -95.5 L171.6 -95.0 171.35 -92.4 Q171.35 -89.9 173.35 -78.9 L172.85 -74.5 172.35 -74.5 Q156.4 -74.5 107.95 -60.9 L104.9 -63.6 Q102.05 -65.95 98.4 -67.6 87.5 -72.5 67.35 -72.5 51.1 -72.5 27.95 -63.25 7.6 -55.15 -13.9 -41.75 -25.6 -34.45 -35.0 -27.25 -40.65 -30.05 -52.45 -33.85 L-77.75 -42.0 Q-88.15 -46.15 -108.0 -50.5 -123.35 -54.5 -142.45 -63.55 -158.3 -71.15 -163.05 -75.0 -178.25 -87.45 -193.0 -92.5 -203.3 -96.0 -222.35 -100.45 -236.65 -103.8 -244.25 -107.75 -246.85 -109.1 -253.2 -120.15 L-254.65 -122.65 Q-243.15 -120.25 -216.5 -120.0 -179.6 -119.85 -152.0 -116.5 -148.6 -116.1 -142.4 -110.75 -137.05 -106.2 -134.65 -102.75 -125.85 -90.35 -121.75 -86.25 -119.1 -83.6 -103.85 -80.7 L-72.65 -75.0 -45.2 -68.95 Q-23.9 -64.5 -14.15 -64.5 -12.15 -64.5 4.15 -68.3 L40.7 -76.7 Q96.0 -89.15 117.25 -90.0 L117.35 -90.0 Q145.05 -90.0 147.6 -90.25 151.9 -90.65 153.65 -91.9 154.1 -92.2 153.55 -96.05 152.95 -99.9 146.45 -110.75 139.95 -121.65 130.9 -125.4 121.8 -129.2 100.7 -138.95 M36.9 -39.25 L36.8 -39.5 Q39.65 -43.6 42.85 -46.45 53.65 -56.0 72.25 -56.0 79.0 -56.0 81.85 -53.3 L64.4 -48.0 36.9 -39.25 M47.35 -7.95 Q56.3 -1.5 59.35 -1.5 71.55 -1.5 107.65 -18.25 122.55 -25.15 132.6 -31.1 143.35 -37.45 143.35 -39.75 143.35 -40.7 134.85 -44.5 125.9 -48.5 121.85 -48.5 86.35 -35.4 83.1 -33.75 77.85 -31.1 55.5 -25.1 38.35 -20.5 38.35 -16.75 38.35 -14.45 47.35 -7.95 M178.35 -78.75 Q178.35 -83.75 177.35 -87.75 182.25 -85.65 190.4 -82.55 190.35 -82.05 197.15 -68.25 204.25 -53.9 206.6 -50.2 205.05 -49.9 198.45 -44.35 L191.35 -38.0 Q180.7 -26.95 166.85 -19.25 155.4 -12.85 143.2 -1.0 132.0 9.85 125.85 19.5 119.25 29.8 115.65 65.7 113.45 87.9 113.35 101.45 103.35 101.2 29.15 100.9 -47.45 100.65 -96.95 100.75 -92.15 76.2 -91.6 75.25 -90.6 73.55 -46.15 62.3 2.35 50.0 6.35 48.55 17.7 49.1 30.85 51.5 35.7 45.65 44.1 27.8 39.05 21.95 16.4 2.05 -3.0 -14.95 -8.35 -19.1 149.5 -62.7 173.55 -68.75 173.8 -68.35 175.95 -70.7 178.15 -73.05 177.85 -73.3 L178.35 -78.75 M175.5 -11.1 L175.85 -11.5 Q178.95 -13.0 188.75 -13.0 L201.75 -12.0 Q207.5 -11.2 213.3 -9.6 L225.1 -6.0 203.55 4.7 Q202.95 5.55 202.8 14.4 202.65 23.1 203.05 24.05 202.5 24.3 193.8 24.25 L193.25 24.45 176.6 -8.85 175.5 -11.1 M6.65 4.6 Q7.9 9.75 5.95 16.9 3.2 27.0 -5.25 27.0 -15.3 27.0 -22.15 19.55 -27.65 13.5 -27.65 8.25 -27.65 -1.75 -17.65 -8.35 L-11.15 -12.2 Q-5.1 -5.9 6.65 4.6 M-28.65 -7.2 L-30.3 -4.3 -47.05 -6.45 -39.7 -13.5 Q-37.85 -11.95 -33.05 -9.55 L-28.45 -7.45 -28.65 -7.2" fill="#ee0000" fill-rule="evenodd" stroke="none"/>
    </g>
    <g id="shape1" transform="matrix(1, 0, 0, 1, 261.0, 158.5)">
      <path d="M103.85 -158.5 Q144.6 -158.5 177.05 -129.75 188.05 -120.0 196.75 -108.05 202.95 -99.5 205.35 -94.0 L205.1 -92.55 213.85 -84.15 Q222.35 -76.1 225.6 -73.75 232.75 -44.75 225.65 -44.85 L216.55 -44.2 Q206.3 -43.9 182.85 -24.75 L172.8 -16.6 173.05 -16.05 173.9 -16.45 Q178.55 -18.5 188.35 -18.5 193.5 -18.5 208.1 -16.3 226.45 -13.55 233.15 -10.2 239.65 -7.75 242.35 -5.5 L241.95 -5.0 Q247.95 -0.85 253.4 4.6 276.1 27.3 276.15 59.5 276.1 91.7 253.4 114.4 230.7 137.1 198.5 137.15 166.3 137.1 143.6 114.4 126.6 97.4 122.35 75.15 121.9 95.6 119.35 102.3 L119.35 102.85 Q119.35 104.45 118.9 104.8 L117.85 105.25 117.3 105.25 116.35 105.5 115.4 105.25 Q11.8 105.5 -43.9 104.55 L-101.5 103.7 -101.7 103.55 -102.5 103.5 -102.5 102.0 -102.45 101.95 -102.5 100.25 Q-102.5 97.6 -98.4 87.1 -104.45 101.15 -116.15 112.85 -140.3 137.0 -174.5 137.0 -208.7 137.0 -232.85 112.85 -257.0 88.7 -257.0 54.5 -257.0 20.3 -232.85 -3.85 -208.7 -28.0 -174.5 -28.0 -156.65 -28.0 -141.5 -21.4 -143.5 -24.55 -143.5 -27.5 L-143.1 -28.8 -142.85 -29.05 Q-137.75 -33.25 -126.25 -39.7 L-114.6 -46.0 Q-121.4 -47.45 -144.55 -59.45 -165.25 -70.2 -167.5 -72.0 -175.5 -78.45 -180.45 -81.5 -184.1 -83.75 -187.7 -85.4 -188.7 -82.1 -194.0 -75.25 -200.5 -66.85 -209.7 -58.05 -226.15 -42.25 -232.0 -38.35 -243.4 -30.8 -249.5 -37.25 L-249.5 -37.55 Q-234.25 -59.7 -233.5 -61.75 L-233.5 -62.0 Q-237.45 -62.35 -241.1 -64.4 -244.5 -66.3 -244.5 -67.75 -244.5 -69.6 -242.05 -75.45 -239.5 -81.5 -238.5 -81.5 -237.55 -81.5 -229.9 -77.0 -222.2 -72.5 -221.0 -72.5 -219.75 -72.5 -212.75 -81.75 L-231.95 -90.3 Q-248.5 -97.7 -248.5 -99.9 -248.5 -104.25 -247.1 -106.35 -258.05 -113.15 -261.0 -130.5 L-260.15 -130.15 Q-233.3 -126.45 -203.2 -125.75 L-156.0 -123.5 Q-146.15 -122.35 -142.3 -120.9 -140.4 -120.2 -136.45 -114.85 L-130.75 -106.85 Q-120.2 -92.7 -117.25 -89.75 -114.5 -87.0 -97.1 -84.45 -74.15 -81.1 -68.15 -79.5 -54.95 -76.05 -39.6 -73.2 -22.2 -70.0 -14.25 -70.0 -13.65 -70.0 0.1 -73.9 17.8 -78.9 33.25 -82.5 87.2 -95.15 129.95 -95.85 128.45 -97.25 123.7 -106.5 119.45 -114.7 119.1 -115.8 117.7 -114.7 112.65 -118.7 116.4 -119.65 118.25 -122.45 L118.4 -122.65 118.4 -123.0 Q118.55 -123.85 118.85 -124.35 114.5 -125.6 108.8 -126.05 L104.3 -126.15 Q99.45 -130.9 100.05 -131.65 L97.0 -133.2 Q90.4 -135.4 85.5 -138.5 76.0 -144.45 78.15 -152.0 80.0 -158.5 84.85 -158.5 L86.35 -158.2 Q90.95 -158.5 103.85 -158.5 M100.7 -138.95 Q121.8 -129.2 130.9 -125.4 139.95 -121.65 146.45 -110.75 152.95 -99.9 153.55 -96.05 154.1 -92.2 153.65 -91.9 151.9 -90.65 147.6 -90.25 145.05 -90.0 117.35 -90.0 L117.25 -90.0 Q96.0 -89.15 40.7 -76.7 L4.15 -68.3 Q-12.15 -64.5 -14.15 -64.5 -23.9 -64.5 -45.2 -68.95 L-72.65 -75.0 -103.85 -80.7 Q-119.1 -83.6 -121.75 -86.25 -125.85 -90.35 -134.65 -102.75 -137.05 -106.2 -142.4 -110.75 -148.6 -116.1 -152.0 -116.5 -179.6 -119.85 -216.5 -120.0 -243.15 -120.25 -254.65 -122.65 L-253.2 -120.15 Q-246.85 -109.1 -244.25 -107.75 -236.65 -103.8 -222.35 -100.45 -203.3 -96.0 -193.0 -92.5 -178.25 -87.45 -163.05 -75.0 -158.3 -71.15 -142.45 -63.55 -123.35 -54.5 -108.0 -50.5 -88.15 -46.15 -77.75 -42.0 L-52.45 -33.85 Q-40.65 -30.05 -35.0 -27.25 -25.6 -34.45 -13.9 -41.75 7.6 -55.15 27.95 -63.25 51.1 -72.5 67.35 -72.5 87.5 -72.5 98.4 -67.6 102.05 -65.95 104.9 -63.6 L107.95 -60.9 Q156.4 -74.5 172.35 -74.5 L172.85 -74.5 173.35 -78.9 Q171.35 -89.9 171.35 -92.4 L171.6 -95.0 174.35 -95.5 Q179.8 -95.5 198.65 -87.0 L205.15 -84.0 Q199.9 -89.05 199.4 -91.6 191.85 -92.8 173.0 -105.45 L157.5 -116.05 Q149.45 -121.5 146.35 -123.0 113.7 -138.55 84.35 -151.75 83.7 -149.7 83.45 -146.9 L100.7 -138.95 M147.75 -101.7 Q145.2 -105.85 142.2 -109.6 132.95 -121.15 124.35 -123.0 L124.15 -123.05 123.6 -121.3 Q139.6 -97.5 140.55 -96.65 L149.9 -97.9 147.75 -101.7 M149.65 -126.5 Q191.05 -104.3 195.55 -101.05 L193.3 -104.45 Q182.5 -119.5 168.6 -127.75 125.95 -150.1 100.15 -152.4 109.15 -148.2 149.65 -126.5 M99.2 -59.0 L92.95 -62.25 Q82.7 -67.0 66.75 -67.0 48.95 -67.0 21.35 -54.65 1.1 -45.6 -14.65 -35.0 -21.6 -30.4 -35.65 -17.35 -34.25 -17.1 -29.5 -14.6 -25.3 -12.4 -24.35 -11.65 -20.7 -14.6 -15.2 -16.75 -17.65 -19.55 -17.65 -20.25 L-17.5 -20.35 -17.5 -20.4 Q-5.05 -25.25 7.15 -29.4 L31.45 -37.5 Q31.4 -38.0 32.3 -40.25 33.5 -43.05 35.05 -44.75 38.7 -48.6 44.2 -52.4 50.15 -56.5 60.15 -59.3 68.1 -61.5 71.85 -61.5 82.8 -61.5 87.9 -55.1 L99.35 -58.45 99.95 -58.65 99.2 -59.0 M36.9 -39.25 L64.4 -48.0 81.85 -53.3 Q79.0 -56.0 72.25 -56.0 53.65 -56.0 42.85 -46.45 39.65 -43.6 36.8 -39.5 L36.6 -39.2 36.9 -39.25 M47.35 -7.95 Q38.35 -14.45 38.35 -16.75 38.35 -20.5 55.5 -25.1 77.85 -31.1 83.1 -33.75 86.35 -35.4 121.85 -48.5 125.9 -48.5 134.85 -44.5 143.35 -40.7 143.35 -39.75 143.35 -37.45 132.6 -31.1 122.55 -25.15 107.65 -18.25 71.55 -1.5 59.35 -1.5 56.3 -1.5 47.35 -7.95 M60.25 -8.0 Q67.6 -8.0 94.15 -18.35 122.85 -29.6 134.6 -38.75 133.35 -40.0 127.25 -41.6 122.05 -43.0 121.1 -43.0 59.35 -21.4 45.85 -16.25 L51.95 -11.0 Q56.15 -8.0 60.25 -8.0 M195.35 -80.5 Q195.35 -79.15 203.05 -66.75 209.3 -56.65 211.95 -50.9 L226.5 -51.5 225.3 -57.0 Q223.2 -68.55 220.35 -71.0 L218.5 -72.5 217.85 -72.5 195.45 -80.65 195.4 -80.65 195.35 -80.5 M178.35 -78.75 L177.85 -73.3 Q178.15 -73.05 175.95 -70.7 173.8 -68.35 173.55 -68.75 149.5 -62.7 -8.35 -19.1 -3.0 -14.95 16.4 2.05 39.05 21.95 44.1 27.8 35.7 45.65 30.85 51.5 17.7 49.1 6.35 48.55 2.35 50.0 -46.15 62.3 -90.6 73.55 -91.6 75.25 -92.15 76.2 -96.95 100.75 -47.45 100.65 29.15 100.9 103.35 101.2 113.35 101.45 113.45 87.9 115.65 65.7 119.25 29.8 125.85 19.5 132.0 9.85 143.2 -1.0 155.4 -12.85 166.85 -19.25 180.7 -26.95 191.35 -38.0 L198.45 -44.35 Q205.05 -49.9 206.6 -50.2 204.25 -53.9 197.15 -68.25 190.35 -82.05 190.4 -82.55 182.25 -85.65 177.35 -87.75 178.35 -83.75 178.35 -78.75 M169.6 -14.1 L166.1 -11.3 164.15 -9.75 Q164.7 -9.4 197.5 57.05 L198.15 58.4 197.35 57.2 197.3 57.3 Q196.25 58.7 196.25 60.55 196.25 61.9 196.85 63.05 L196.95 63.25 197.85 64.45 Q199.45 66.05 201.75 66.05 204.05 66.05 205.65 64.45 207.25 62.85 207.25 60.55 L207.25 60.25 207.2 59.7 Q206.95 57.95 205.65 56.65 204.15 55.15 202.05 55.05 L201.75 55.05 201.35 55.05 201.9 57.25 200.9 55.1 Q188.2 28.25 171.15 -10.2 L171.05 -10.3 Q170.45 -10.85 170.4 -12.15 L170.05 -12.95 169.6 -14.1 M175.5 -11.1 L176.6 -8.85 193.25 24.45 193.8 24.25 Q202.5 24.3 203.05 24.05 202.65 23.1 202.8 14.4 202.95 5.55 203.55 4.7 L225.1 -6.0 213.3 -9.6 Q207.5 -11.2 201.75 -12.0 L188.75 -13.0 Q178.95 -13.0 175.85 -11.5 L175.5 -11.1 M270.15 59.5 Q270.1 29.8 249.15 8.85 242.7 2.4 235.45 -2.05 L224.15 0.8 Q215.9 2.8 211.7 4.95 226.2 8.4 237.45 19.7 253.75 36.0 253.75 59.1 253.75 82.15 237.45 98.5 221.15 114.75 198.05 114.8 174.95 114.75 158.65 98.5 142.35 82.15 142.35 59.1 142.35 36.0 158.65 19.7 163.15 15.15 168.2 11.9 L161.55 -2.05 Q154.25 2.4 147.85 8.85 126.9 29.8 126.9 59.5 126.9 89.2 147.85 110.15 168.8 131.1 198.5 131.15 228.2 131.1 249.15 110.15 270.1 89.2 270.15 59.5 M245.45 43.7 L241.35 46.55 Q237.0 49.2 232.0 50.9 233.35 55.85 233.35 60.6 233.35 70.5 228.35 78.25 225.2 83.15 220.4 86.3 222.6 87.7 226.15 91.75 229.0 95.0 230.3 96.95 L233.2 94.25 Q247.75 79.65 247.75 59.1 247.75 50.9 245.45 43.7 M235.45 43.75 Q242.5 39.95 243.95 39.6 240.3 31.05 233.2 23.95 221.95 12.7 207.15 10.15 206.25 15.55 206.95 25.35 221.55 27.9 228.65 42.25 L230.55 46.65 Q232.3 45.4 235.45 43.75 M177.05 28.5 Q175.5 26.95 170.85 17.35 166.65 20.15 162.9 23.95 154.6 32.25 151.05 42.5 159.05 42.65 165.2 46.65 L165.4 45.8 Q169.15 31.55 177.05 28.5 M179.3 37.2 L174.85 43.45 Q168.35 53.35 168.35 61.1 168.35 71.05 172.4 76.5 179.45 86.0 198.75 86.0 217.35 86.0 224.65 73.75 228.35 67.5 228.35 60.25 228.35 50.45 220.6 42.25 211.65 32.8 197.25 32.5 L203.9 46.4 Q207.6 47.2 210.45 50.05 213.6 53.25 214.25 57.6 L214.4 58.9 214.4 59.7 Q214.4 65.4 210.45 69.35 206.5 73.3 200.8 73.3 195.1 73.3 191.15 69.35 189.8 67.95 188.9 66.4 L188.65 65.9 Q187.2 63.1 187.2 59.7 187.2 56.55 188.45 53.9 L180.05 36.2 179.3 37.2 M164.05 52.45 Q160.0 52.15 155.6 51.05 151.9 50.1 149.35 48.85 148.35 53.75 148.35 59.1 148.35 79.65 162.9 94.25 L167.45 98.3 Q168.45 96.35 170.55 93.15 173.55 88.6 175.4 86.7 169.45 83.45 166.35 78.05 163.85 73.65 163.35 67.9 L163.35 61.5 Q163.35 56.95 164.05 52.45 M179.35 89.0 Q174.8 97.85 172.2 101.65 183.65 108.75 198.05 108.8 213.55 108.75 225.6 100.55 L220.9 95.6 Q216.3 90.2 215.5 88.8 208.65 91.5 199.35 91.5 187.35 91.5 179.35 88.5 L179.35 89.0 M-43.1 35.75 L-4.15 35.5 Q25.15 35.85 34.95 36.3 L35.0 36.15 Q36.7 32.35 38.65 30.15 31.15 26.1 12.35 9.65 12.3 15.9 9.4 22.25 4.75 32.5 -5.15 32.5 -20.75 32.5 -28.1 21.5 -32.65 14.7 -32.65 8.0 -32.65 4.5 -32.1 1.5 -39.2 1.45 -44.3 -0.3 L-50.5 -3.05 -81.3 22.55 -81.2 22.4 -81.15 22.35 -81.15 22.3 -81.1 22.2 -81.0 22.1 -80.85 21.9 -80.75 21.75 -80.65 21.65 -80.6 21.55 -80.45 21.4 -80.4 21.35 -80.3 21.2 -80.15 21.0 -56.5 -7.5 -55.9 -8.25 -55.9 -8.3 -55.7 -8.5 -55.9 -8.5 -56.15 -8.5 -61.75 -8.55 -61.85 -8.0 Q-61.8 -2.65 -68.0 1.9 -73.6 6.0 -76.4 5.2 -80.8 3.9 -87.1 1.35 -93.4 -1.25 -96.75 -1.55 L-107.95 5.6 -113.0 8.75 -113.05 8.8 -131.55 20.35 -136.7 23.55 -137.5 24.0 -169.0 43.25 -172.85 45.6 Q-174.3 44.95 -176.0 44.85 L-176.4 44.85 Q-179.95 44.85 -182.4 47.35 L-183.3 48.35 Q-184.9 50.5 -184.9 53.35 -184.9 55.45 -184.0 57.2 L-183.85 57.5 -182.4 59.35 Q-179.95 61.8 -176.4 61.8 -172.85 61.8 -170.4 59.35 -168.1 57.0 -167.95 53.75 -85.5 38.95 -85.5 38.5 -85.5 35.45 -83.0 33.5 L-82.85 33.65 Q-81.4 32.6 -68.8 26.15 -54.45 18.85 -49.65 17.5 -50.25 19.65 -52.25 22.25 -56.25 27.5 -63.15 30.0 L-42.9 31.0 Q-42.25 35.1 -43.1 35.25 L-47.05 35.45 -58.15 35.5 -68.85 34.65 -69.3 34.6 -68.9 34.75 Q-64.45 36.1 -55.9 39.0 -47.2 41.95 -43.15 43.55 L-42.65 42.1 Q-42.0 40.05 -40.85 38.65 L-48.65 38.5 -48.65 37.0 -47.15 35.75 -43.1 35.75 M6.65 4.6 Q-5.1 -5.9 -11.15 -12.2 L-17.65 -8.35 Q-27.65 -1.75 -27.65 8.25 -27.65 13.5 -22.15 19.55 -15.3 27.0 -5.25 27.0 3.2 27.0 5.95 16.9 7.9 9.75 6.65 4.6 M15.15 44.5 L29.6 46.25 Q30.8 45.1 33.25 40.0 L-35.65 38.75 -35.65 39.25 Q-35.65 43.3 -41.35 52.75 L-44.75 57.7 -26.95 52.8 2.75 44.4 11.3 44.3 12.5 44.35 13.2 44.35 13.85 44.4 15.15 44.5 M-243.5 -104.05 Q-243.35 -102.8 -243.8 -100.2 -243.95 -98.55 -225.75 -91.15 -207.5 -83.75 -207.5 -82.65 -207.5 -81.0 -213.35 -73.8 -219.25 -66.5 -221.0 -66.5 -234.15 -74.15 -237.5 -75.5 L-239.0 -68.75 -232.5 -66.7 Q-226.5 -64.65 -226.5 -63.75 -226.5 -58.5 -238.85 -43.75 -238.5 -39.4 -229.05 -47.6 -217.5 -58.65 -213.0 -62.5 -211.4 -63.95 -200.85 -77.05 L-192.5 -87.25 -198.0 -88.75 Q-225.9 -94.4 -243.4 -104.2 L-243.5 -104.25 -243.5 -104.05 M-134.5 -22.5 Q-130.5 -23.25 -117.25 -29.65 L-92.25 -41.45 -96.1 -42.35 -107.9 -44.7 Q-114.1 -40.15 -136.5 -25.75 -135.1 -23.9 -134.5 -22.5 M-95.5 -6.5 Q-89.65 -6.5 -78.0 -1.5 L-77.55 -1.3 -77.6 -4.8 Q-77.5 -12.25 -78.65 -15.6 -79.8 -18.95 -86.9 -26.95 L-94.5 -35.35 Q-106.85 -29.35 -133.1 -17.1 -124.1 -11.8 -116.15 -3.85 L-110.95 1.8 Q-96.7 -6.5 -96.0 -6.5 L-95.6 -6.5 -95.5 -6.5 M-85.9 -39.65 L-89.2 -37.95 Q-78.4 -27.95 -75.3 -19.3 -72.25 -10.7 -72.65 -5.75 -72.65 -2.65 -73.05 -0.35 L-69.55 -1.3 Q-66.65 -13.3 -66.65 -15.65 -66.65 -19.9 -68.8 -23.85 L-68.95 -23.9 -68.95 -24.15 Q-70.65 -27.15 -73.55 -29.95 L-78.35 -34.35 Q-79.6 -35.7 -80.15 -36.8 L-84.5 -39.0 -85.9 -39.65 M-65.15 -29.2 L-64.5 -27.7 -61.3 -28.05 -57.7 -28.3 -66.0 -31.1 -65.15 -29.2 M-61.65 -15.75 L-61.65 -13.1 -56.15 -13.5 -51.2 -13.35 -47.1 -17.25 -40.25 -23.15 -42.05 -23.65 Q-44.75 -23.5 -53.65 -23.5 L-63.05 -23.55 Q-61.65 -19.1 -61.65 -15.75 M-28.65 -7.2 L-28.45 -7.45 -33.05 -9.55 Q-37.85 -11.95 -39.7 -13.5 L-47.05 -6.45 -30.3 -4.3 -28.65 -7.2 M-78.1 37.5 L-80.0 38.7 -75.65 65.0 -64.05 62.45 -77.95 37.35 -78.1 37.5 M-67.7 44.45 L-64.75 50.0 -62.95 48.15 Q-59.7 45.05 -57.4 44.0 L-70.35 39.8 Q-69.15 41.7 -67.7 44.45 M-52.55 45.55 L-52.65 45.5 -52.65 45.85 Q-52.65 46.7 -62.5 54.25 -61.9 55.35 -60.65 61.65 L-56.65 60.7 -44.95 47.95 -52.55 45.55 M-99.9 18.7 Q-97.25 24.2 -95.45 30.1 L-91.15 29.55 Q-91.65 28.4 -92.95 23.25 -94.35 17.7 -94.45 15.9 L-99.9 18.7 M-88.3 21.2 Q-85.5 31.15 -85.5 31.85 L-85.55 32.05 Q-85.6 32.7 -154.25 44.0 -154.5 43.85 -154.5 41.35 -154.5 39.75 -124.25 25.35 -95.9 11.8 -92.0 10.5 -91.25 10.7 -88.3 21.2 M-116.25 4.85 Q-118.25 2.55 -120.4 0.4 -142.8 -22.0 -174.5 -22.0 -206.2 -22.0 -228.6 0.4 -251.0 22.8 -251.0 54.5 -251.0 86.2 -228.6 108.6 -206.2 131.0 -174.5 131.0 -142.8 131.0 -120.4 108.6 -98.0 86.2 -98.0 54.5 L-98.2 48.2 -104.75 50.0 Q-112.15 51.85 -120.25 53.2 L-120.25 54.1 Q-120.25 77.15 -136.55 93.5 -152.85 109.75 -175.95 109.8 -199.05 109.75 -215.35 93.5 -231.65 77.15 -231.65 54.1 -231.65 31.0 -215.35 14.7 -199.05 -1.65 -175.95 -1.6 -152.85 -1.65 -136.55 14.7 L-135.25 16.05 -116.25 4.85 M-89.6 45.05 L-92.35 46.2 Q-92.0 50.25 -92.0 54.5 -92.0 64.0 -93.85 72.75 -90.5 68.25 -78.95 65.7 -81.4 60.85 -83.3 53.55 -84.8 47.7 -85.25 42.85 L-89.6 45.05 M-101.5 30.9 Q-103.05 26.0 -105.25 21.4 L-124.95 31.25 -123.85 33.85 -101.5 30.9 M-126.25 54.1 L-143.3 55.8 -143.5 58.0 Q-143.5 66.1 -150.25 73.75 -153.6 77.55 -158.05 80.05 -153.75 83.5 -147.5 94.95 -144.05 92.45 -140.8 89.25 -126.25 74.65 -126.25 54.1 M-130.35 33.95 L-132.65 35.1 -130.0 34.7 -130.35 33.95 M-140.55 19.2 L-140.8 18.95 Q-153.05 6.65 -169.65 4.75 -168.8 6.65 -168.65 9.2 -168.5 12.15 -168.5 18.5 L-168.9 19.45 Q-164.0 20.55 -160.6 23.05 -157.2 25.5 -156.05 28.5 L-140.55 19.2 M-149.55 58.45 L-149.35 56.15 -161.6 56.5 Q-162.65 60.35 -165.6 63.35 -170.15 67.85 -176.6 67.9 -183.1 67.85 -187.6 63.35 -189.15 61.8 -190.2 60.0 L-190.5 59.45 Q-192.1 56.25 -192.1 52.4 -192.1 47.2 -189.2 43.25 L-187.6 41.4 Q-183.1 36.9 -176.6 36.9 L-175.85 36.9 Q-173.3 37.0 -171.05 37.85 L-160.2 31.0 Q-162.3 29.65 -164.75 28.25 -172.3 24.0 -177.65 24.0 -194.25 24.0 -200.95 39.25 -204.5 47.3 -204.5 56.1 -204.5 62.35 -199.25 69.25 -191.75 79.0 -178.15 79.0 -159.2 79.0 -152.4 67.1 -150.15 63.2 -149.55 58.45 M-173.8 4.45 L-175.95 4.4 Q-196.55 4.35 -211.1 18.95 -217.35 25.2 -220.9 32.6 L-219.0 32.5 Q-209.75 32.5 -205.75 35.0 L-205.25 35.35 Q-197.5 18.5 -178.0 18.5 L-173.7 18.7 Q-174.25 17.55 -174.5 15.7 L-174.5 10.6 Q-174.5 6.75 -173.8 4.45 M-96.3 81.6 L-96.8 83.0 -96.5 82.25 -96.3 81.6 M-216.35 39.5 Q-220.5 38.65 -222.8 37.15 -225.65 45.05 -225.65 54.1 -225.65 74.65 -211.1 89.25 L-209.45 90.8 Q-209.15 89.55 -205.3 84.15 -201.95 79.45 -199.2 77.1 -201.85 74.65 -203.95 71.5 -206.85 67.15 -208.4 61.85 -209.5 58.1 -209.5 56.0 -209.5 47.6 -207.25 40.5 L-216.35 39.5 M-199.9 86.1 Q-204.15 91.65 -206.1 93.7 -193.1 103.75 -175.95 103.8 -162.45 103.75 -151.55 97.55 L-163.6 82.4 Q-169.95 84.5 -178.0 84.5 -188.2 84.5 -195.4 80.0 -196.7 81.95 -199.9 86.1" fill="#000000" fill-rule="evenodd" stroke="none"/>
      <path d="M195.45 -80.65 L217.85 -72.5 218.5 -72.5 220.35 -71.0 Q223.2 -68.55 225.3 -57.0 L226.5 -51.5 211.95 -50.9 Q209.3 -56.65 203.05 -66.75 195.35 -79.15 195.35 -80.5 L195.45 -80.65" fill="#ffffff" fill-rule="evenodd" stroke="none"/>
      <path d="M147.75 -101.7 L149.9 -97.9 140.55 -96.65 Q139.6 -97.5 123.6 -121.3 L124.15 -123.05 124.35 -123.0 Q132.95 -121.15 142.2 -109.6 145.2 -105.85 147.75 -101.7 M60.25 -8.0 Q56.15 -8.0 51.95 -11.0 L45.85 -16.25 Q59.35 -21.4 121.1 -43.0 122.05 -43.0 127.25 -41.6 133.35 -40.0 134.6 -38.75 122.85 -29.6 94.15 -18.35 67.6 -8.0 60.25 -8.0 M270.15 59.5 Q270.1 89.2 249.15 110.15 228.2 131.1 198.5 131.15 168.8 131.1 147.85 110.15 126.9 89.2 126.9 59.5 126.9 29.8 147.85 8.85 154.25 2.4 161.55 -2.05 L168.2 11.9 Q163.15 15.15 158.65 19.7 142.35 36.0 142.35 59.1 142.35 82.15 158.65 98.5 174.95 114.75 198.05 114.8 221.15 114.75 237.45 98.5 253.75 82.15 253.75 59.1 253.75 36.0 237.45 19.7 226.2 8.4 211.7 4.95 215.9 2.8 224.15 0.8 L235.45 -2.05 Q242.7 2.4 249.15 8.85 270.1 29.8 270.15 59.5 M-47.15 35.75 L-48.65 37.0 -48.65 38.5 -40.85 38.65 Q-42.0 40.05 -42.65 42.1 L-43.15 43.55 Q-47.2 41.95 -55.9 39.0 -64.45 36.1 -68.9 34.75 L-68.85 34.65 -58.15 35.5 -47.05 35.45 -47.15 35.75 M-243.4 -104.2 Q-225.9 -94.4 -198.0 -88.75 L-192.5 -87.25 -200.85 -77.05 Q-211.4 -63.95 -213.0 -62.5 -217.5 -58.65 -229.05 -47.6 -238.5 -39.4 -238.85 -43.75 -226.5 -58.5 -226.5 -63.75 -226.5 -64.65 -232.5 -66.7 L-239.0 -68.75 -237.5 -75.5 Q-234.15 -74.15 -221.0 -66.5 -219.25 -66.5 -213.35 -73.8 -207.5 -81.0 -207.5 -82.65 -207.5 -83.75 -225.75 -91.15 -243.95 -98.55 -243.8 -100.2 -243.35 -102.8 -243.5 -104.05 L-243.4 -104.2 M-134.5 -22.5 Q-135.1 -23.9 -136.5 -25.75 -114.1 -40.15 -107.9 -44.7 L-96.1 -42.35 -92.25 -41.45 -117.25 -29.65 Q-130.5 -23.25 -134.5 -22.5 M-78.1 37.5 L-77.95 37.35 -64.05 62.45 -75.65 65.0 -80.0 38.7 -78.1 37.5 M-52.65 45.85 L-52.55 45.55 -44.95 47.95 -56.65 60.7 -60.65 61.65 Q-61.9 55.35 -62.5 54.25 -52.65 46.7 -52.65 45.85 M-116.25 4.85 L-135.25 16.05 -136.55 14.7 Q-152.85 -1.65 -175.95 -1.6 -199.05 -1.65 -215.35 14.7 -231.65 31.0 -231.65 54.1 -231.65 77.15 -215.35 93.5 -199.05 109.75 -175.95 109.8 -152.85 109.75 -136.55 93.5 -120.25 77.15 -120.25 54.1 L-120.25 53.2 Q-112.15 51.85 -104.75 50.0 L-98.2 48.2 -98.0 54.5 Q-98.0 86.2 -120.4 108.6 -142.8 131.0 -174.5 131.0 -206.2 131.0 -228.6 108.6 -251.0 86.2 -251.0 54.5 -251.0 22.8 -228.6 0.4 -206.2 -22.0 -174.5 -22.0 -142.8 -22.0 -120.4 0.4 -118.25 2.55 -116.25 4.85 M-101.5 30.9 L-123.85 33.85 -124.95 31.25 -105.25 21.4 Q-103.05 26.0 -101.5 30.9" fill="#2f2f2f" fill-rule="evenodd" stroke="none"/>
      <path d="M99.35 -58.45 L87.9 -55.1 Q82.8 -61.5 71.85 -61.5 68.1 -61.5 60.15 -59.3 50.15 -56.5 44.2 -52.4 38.7 -48.6 35.05 -44.75 33.5 -43.05 32.3 -40.25 31.4 -38.0 31.45 -37.5 L7.15 -29.4 Q-5.05 -25.25 -17.5 -20.4 L-17.5 -20.35 -17.65 -20.25 Q-17.65 -19.55 -15.2 -16.75 -20.7 -14.6 -24.35 -11.65 -25.3 -12.4 -29.5 -14.6 -34.25 -17.1 -35.65 -17.35 -21.6 -30.4 -14.65 -35.0 1.1 -45.6 21.35 -54.65 48.95 -67.0 66.75 -67.0 82.7 -67.0 92.95 -62.25 L99.2 -59.0 99.35 -58.45 M149.65 -126.5 Q109.15 -148.2 100.15 -152.4 125.95 -150.1 168.6 -127.75 182.5 -119.5 193.3 -104.45 L195.55 -101.05 Q191.05 -104.3 149.65 -126.5 M169.6 -14.1 L170.05 -12.95 170.4 -12.15 Q170.45 -10.85 171.05 -10.3 L171.15 -10.2 Q188.2 28.25 200.9 55.1 L201.9 57.25 201.35 55.05 201.75 55.05 202.05 55.05 Q204.15 55.15 205.65 56.65 206.95 57.95 207.2 59.7 L207.25 60.25 207.25 60.55 Q207.25 62.85 205.65 64.45 204.05 66.05 201.75 66.05 199.45 66.05 197.85 64.45 L196.95 63.25 196.85 63.05 Q196.25 61.9 196.25 60.55 196.25 58.7 197.3 57.3 L197.35 57.2 198.15 58.4 197.5 57.05 Q164.7 -9.4 164.15 -9.75 L166.1 -11.3 169.6 -14.1 M179.3 37.2 L180.05 36.2 188.45 53.9 Q187.2 56.55 187.2 59.7 187.2 63.1 188.65 65.9 L188.9 66.4 Q189.8 67.95 191.15 69.35 195.1 73.3 200.8 73.3 206.5 73.3 210.45 69.35 214.4 65.4 214.4 59.7 L214.4 58.9 214.25 57.6 Q213.6 53.25 210.45 50.05 207.6 47.2 203.9 46.4 L197.25 32.5 Q211.65 32.8 220.6 42.25 228.35 50.45 228.35 60.25 228.35 67.5 224.65 73.75 217.35 86.0 198.75 86.0 179.45 86.0 172.4 76.5 168.35 71.05 168.35 61.1 168.35 53.35 174.85 43.45 L179.3 37.2 M-55.9 -8.3 L-55.9 -8.25 -56.5 -7.5 -80.15 21.0 -80.3 21.2 -80.4 21.35 -80.45 21.4 -80.6 21.55 -80.65 21.65 -80.75 21.75 -80.85 21.9 -81.0 22.1 -81.1 22.2 -81.15 22.3 -81.15 22.35 -81.2 22.4 -81.3 22.55 -50.5 -3.05 -44.3 -0.3 Q-39.2 1.45 -32.1 1.5 -32.65 4.5 -32.65 8.0 -32.65 14.7 -28.1 21.5 -20.75 32.5 -5.15 32.5 4.75 32.5 9.4 22.25 12.3 15.9 12.35 9.65 31.15 26.1 38.65 30.15 36.7 32.35 35.0 36.15 L34.95 36.3 Q25.15 35.85 -4.15 35.5 L-43.1 35.75 -43.1 35.25 Q-42.25 35.1 -42.9 31.0 L-63.15 30.0 Q-56.25 27.5 -52.25 22.25 -50.25 19.65 -49.65 17.5 -54.45 18.85 -68.8 26.15 -81.4 32.6 -82.85 33.65 L-83.0 33.5 Q-85.5 35.45 -85.5 38.5 -85.5 38.95 -167.95 53.75 -168.1 57.0 -170.4 59.35 -172.85 61.8 -176.4 61.8 -179.95 61.8 -182.4 59.35 L-183.85 57.5 -184.0 57.2 Q-184.9 55.45 -184.9 53.35 -184.9 50.5 -183.3 48.35 L-182.4 47.35 Q-179.95 44.85 -176.4 44.85 L-176.0 44.85 Q-174.3 44.95 -172.85 45.6 L-169.0 43.25 -137.5 24.0 -136.7 23.55 -131.55 20.35 -113.05 8.8 -113.0 8.75 -107.95 5.6 -96.75 -1.55 Q-93.4 -1.25 -87.1 1.35 -80.8 3.9 -76.4 5.2 -73.6 6.0 -68.0 1.9 -61.8 -2.65 -61.85 -8.0 L-61.75 -8.55 -56.15 -8.5 -55.9 -8.5 -55.9 -8.3 M-85.9 -39.65 L-84.5 -39.0 -80.15 -36.8 Q-79.6 -35.7 -78.35 -34.35 L-73.55 -29.95 Q-70.65 -27.15 -68.95 -24.15 L-68.95 -23.9 -68.8 -23.85 Q-66.65 -19.9 -66.65 -15.65 -66.65 -13.3 -69.55 -1.3 L-73.05 -0.35 Q-72.65 -2.65 -72.65 -5.75 -72.25 -10.7 -75.3 -19.3 -78.4 -27.95 -89.2 -37.95 L-85.9 -39.65 M-61.65 -15.75 Q-61.65 -19.1 -63.05 -23.55 L-53.65 -23.5 Q-44.75 -23.5 -42.05 -23.65 L-40.25 -23.15 -47.1 -17.25 -51.2 -13.35 -56.15 -13.5 -61.65 -13.1 -61.65 -15.75 M-88.3 21.2 Q-91.25 10.7 -92.0 10.5 -95.9 11.8 -124.25 25.35 -154.5 39.75 -154.5 41.35 -154.5 43.85 -154.25 44.0 -85.6 32.7 -85.55 32.05 L-85.5 31.85 Q-85.5 31.15 -88.3 21.2 M-149.55 58.45 Q-150.15 63.2 -152.4 67.1 -159.2 79.0 -178.15 79.0 -191.75 79.0 -199.25 69.25 -204.5 62.35 -204.5 56.1 -204.5 47.3 -200.95 39.25 -194.25 24.0 -177.65 24.0 -172.3 24.0 -164.75 28.25 -162.3 29.65 -160.2 31.0 L-171.05 37.85 Q-173.3 37.0 -175.85 36.9 L-176.6 36.9 Q-183.1 36.9 -187.6 41.4 L-189.2 43.25 Q-192.1 47.2 -192.1 52.4 -192.1 56.25 -190.5 59.45 L-190.2 60.0 Q-189.15 61.8 -187.6 63.35 -183.1 67.85 -176.6 67.9 -170.15 67.85 -165.6 63.35 -162.65 60.35 -161.6 56.5 L-149.35 56.15 -149.55 58.45" fill="#dddddd" fill-rule="evenodd" stroke="none"/>
    </g>
  </defs>
</svg>
