<?xml version="1.0" encoding="UTF-8" standalone="no"?>
<svg xmlns:xlink="http://www.w3.org/1999/xlink" height="720.75px" width="1716.8px" xmlns="http://www.w3.org/2000/svg">
  <g transform="matrix(1, 0, 0, 1, 307.05, 450.35)">
    <use height="370.55" transform="matrix(1.0, 0.0, 0.0, 1.0, -94.6, -185.3)" width="189.2" xlink:href="#shape0"/>
  </g>
  <defs>
    <g id="shape0" transform="matrix(1, 0, 0, 1, 94.6, 185.3)">
      <path d="M-93.1 183.75 L-93.1 123.75 -93.1 113.7 -93.1 103.75 -93.1 93.75 -93.1 83.75 -93.1 73.75 -93.1 63.75 -93.1 53.75 -93.1 43.75 -93.1 33.75 -83.9 22.95 -73.9 11.3 -63.9 -0.4 -53.9 -12.05 -43.9 -23.75 -33.9 -35.45 -23.9 -47.1 -13.9 -58.8 -3.9 -70.5 6.1 -82.2 16.1 -93.85 26.1 -105.55 36.1 -117.25 46.1 -128.9 56.1 -140.6 66.1 -152.3 76.1 -164.0 86.1 -175.65 93.1 -183.8 93.1 -173.8 93.1 -163.8 93.1 -153.8 93.1 -143.8 93.1 -133.8 93.1 -123.8 93.1 -113.8 93.1 -103.8 93.1 -93.8 93.1 -33.8 M86.1 -165.65 L76.1 -154.0 76.1 -144.0 86.1 -155.65 86.1 -165.65 86.1 -175.65 M66.1 -152.3 L66.1 -142.3 76.1 -154.0 76.1 -164.0 M66.1 -142.3 L56.1 -130.6 56.1 -120.6 66.1 -132.3 66.1 -142.3 M46.1 -128.9 L46.1 -118.9 56.1 -130.6 56.1 -140.6 M76.1 -144.0 L76.1 -134.0 86.1 -145.65 86.1 -155.65 93.1 -163.8 M76.1 -134.0 L76.1 -124.0 86.1 -135.65 86.1 -145.65 93.1 -153.8 M76.1 -144.0 L66.1 -132.3 66.1 -122.3 76.1 -134.0 M93.1 -123.8 L86.1 -115.65 86.1 -105.65 93.1 -113.8 M86.1 -125.65 L76.1 -114.0 76.1 -104.0 86.1 -115.65 86.1 -125.65 86.1 -135.65 93.1 -143.8 M76.1 -124.0 L76.1 -114.0 66.1 -102.3 66.1 -92.3 76.1 -104.0 76.1 -94.0 86.1 -105.65 86.1 -95.65 93.1 -103.8 M56.1 -120.6 L56.1 -110.6 66.1 -122.3 66.1 -112.3 76.1 -124.0 M46.1 -118.9 L36.1 -107.25 36.1 -97.25 46.1 -108.9 46.1 -118.9 M46.1 -108.9 L56.1 -120.6 M56.1 -90.6 L46.1 -78.9 46.1 -68.9 56.1 -80.6 56.1 -90.6 56.1 -100.6 46.1 -88.9 46.1 -78.9 36.1 -67.25 36.1 -57.25 46.1 -68.9 46.1 -58.9 56.1 -70.6 56.1 -80.6 66.1 -92.3 66.1 -82.3 76.1 -94.0 76.1 -83.95 86.1 -95.65 86.1 -85.65 93.1 -93.8 M56.1 -100.6 L56.1 -110.6 46.1 -98.9 46.1 -88.9 36.1 -77.25 36.1 -67.25 26.1 -55.55 26.1 -45.55 36.1 -57.25 36.1 -47.25 46.1 -58.9 46.1 -48.9 56.1 -60.6 56.1 -70.6 66.1 -82.3 66.1 -72.25 76.1 -83.95 76.1 -73.95 86.1 -85.65 M66.1 -102.3 L56.1 -90.6 M36.1 -97.25 L36.1 -87.25 46.1 -98.9 46.1 -108.9 M66.1 -102.3 L66.1 -112.3 56.1 -100.6 M86.1 -165.65 L93.1 -173.8 M86.1 -125.65 L93.1 -133.8 M66.1 -72.25 L56.1 -60.6 56.1 -50.6 66.1 -62.25 66.1 -72.25 M56.1 -50.6 L46.1 -38.9 36.1 -27.2 26.1 -15.5 16.1 -3.85 6.1 7.85 -3.9 19.55 -13.9 31.25 -23.9 42.9 -33.9 54.6 -43.9 66.3 -53.9 77.95 -63.9 89.65 -73.9 101.3 -83.9 113.0 -93.1 123.75 M46.1 -38.9 L46.1 -48.9 36.1 -37.2 36.1 -27.2 M76.1 -73.95 L66.1 -62.25 M36.1 -117.25 L36.1 -107.25 26.1 -95.55 26.1 -85.55 36.1 -97.25 M6.1 -82.2 L6.1 -72.2 16.1 -83.85 16.1 -93.85 M26.1 -95.55 L16.1 -83.85 16.1 -73.85 26.1 -85.55 26.1 -75.55 36.1 -87.25 36.1 -77.25 26.1 -65.55 26.1 -55.55 16.1 -43.85 16.1 -33.85 26.1 -45.55 26.1 -35.55 36.1 -47.25 36.1 -37.2 26.1 -25.55 26.1 -15.5 M26.1 -95.55 L26.1 -105.55 M-43.9 -23.75 L-43.9 -13.75 -33.9 -25.45 -33.9 -35.45 M-63.9 -0.4 L-63.9 9.6 -53.9 -2.05 -53.9 -12.05 M-63.9 9.6 L-73.9 21.3 -73.9 31.3 -63.9 19.6 -63.9 9.6 M-43.9 16.25 L-33.9 4.55 -33.9 -5.45 -43.9 6.25 -43.9 16.25 -43.9 26.25 -33.9 14.55 -33.9 4.55 -23.9 -7.1 -23.9 -17.1 -33.9 -5.45 -33.9 -15.45 -43.9 -3.75 -43.9 6.25 -53.9 17.95 -53.9 27.95 -43.9 16.25 M-53.9 7.95 L-63.9 19.6 -63.9 29.6 -53.9 17.95 -53.9 7.95 -53.9 -2.05 -43.9 -13.75 -43.9 -3.75 -53.9 7.95 M26.1 -75.55 L26.1 -65.55 16.1 -53.85 16.1 -43.85 6.1 -32.2 6.1 -22.2 16.1 -33.85 16.1 -23.85 26.1 -35.55 26.1 -25.55 16.1 -13.85 16.1 -3.85 M16.1 -73.85 L16.1 -63.85 26.1 -75.55 M6.1 -72.2 L6.1 -62.2 16.1 -73.85 M16.1 -53.85 L6.1 -42.2 6.1 -32.2 -3.9 -20.5 -3.9 -10.5 6.1 -22.2 6.1 -12.2 16.1 -23.85 16.1 -13.85 6.1 -2.15 6.1 7.85 M16.1 -53.85 L16.1 -63.85 6.1 -52.2 6.1 -42.2 -3.9 -30.5 -3.9 -20.5 -13.9 -8.8 -13.9 1.2 -3.9 -10.5 -3.9 -0.5 6.1 -12.2 6.1 -2.15 -3.9 9.5 -3.9 19.55 M6.1 -62.2 L-3.9 -50.5 -3.9 -40.5 6.1 -52.2 6.1 -62.2 M-3.9 -70.5 L-3.9 -60.5 6.1 -72.2 M-33.9 -25.45 L-23.9 -37.1 -23.9 -47.1 M-13.9 -38.8 L-3.9 -50.5 -3.9 -60.5 -13.9 -48.8 -13.9 -38.8 -13.9 -28.8 -3.9 -40.5 -3.9 -30.5 -13.9 -18.8 -13.9 -8.8 -23.9 2.9 -23.9 12.9 -13.9 1.2 -13.9 11.2 -3.9 -0.5 -3.9 9.5 -13.9 21.2 -13.9 31.25 M-13.9 -58.8 L-13.9 -48.8 -23.9 -37.1 -23.9 -27.1 -13.9 -38.8 M-23.9 -7.1 L-13.9 -18.8 -13.9 -28.8 -23.9 -17.1 -23.9 -27.1 -33.9 -15.45 -33.9 -25.45 M-23.9 2.9 L-33.9 14.55 -33.9 24.55 -23.9 12.9 -23.9 22.9 -13.9 11.2 -13.9 21.2 -23.9 32.9 -23.9 42.9 M-23.9 -7.1 L-23.9 2.9 M-33.9 34.55 L-33.9 44.6 -23.9 32.9 -23.9 22.9 -33.9 34.55 -33.9 24.55 -43.9 36.25 -43.9 46.25 -33.9 34.55 M-33.9 44.6 L-33.9 54.6 M-43.9 26.25 L-43.9 36.25 -53.9 47.95 -53.9 57.95 -43.9 46.25 -43.9 56.25 -33.9 44.6 M-53.9 27.95 L-53.9 37.95 -43.9 26.25 M-73.9 31.3 L-83.9 42.95 -83.9 52.95 -73.9 41.3 -73.9 31.3 M-63.9 29.6 L-63.9 39.6 -53.9 27.95 M-73.9 41.3 L-63.9 29.6 M-63.9 59.6 L-73.9 71.3 -73.9 81.3 -63.9 69.6 -63.9 59.6 -63.9 49.6 -73.9 61.3 -73.9 71.3 -83.9 82.95 -83.9 92.95 -73.9 81.3 -73.9 91.3 -63.9 79.6 -63.9 69.6 -53.9 57.95 -53.9 67.95 -43.9 56.25 -43.9 66.3 M-63.9 49.6 L-63.9 39.6 -73.9 51.3 -73.9 61.3 -83.9 72.95 -83.9 82.95 -93.1 93.75 M-63.9 59.6 L-53.9 47.95 -53.9 37.95 -63.9 49.6 M-83.9 52.95 L-83.9 62.95 -73.9 51.3 -73.9 41.3 M-93.1 53.75 L-83.9 42.95 -83.9 32.95 -93.1 43.75 M-83.9 22.95 L-83.9 32.95 -73.9 21.3 -73.9 11.3 M-93.1 63.75 L-83.9 52.95 M-83.9 72.95 L-93.1 83.75 M-83.9 113.0 L-83.9 102.95 -93.1 113.7 M-83.9 92.95 L-83.9 102.95 -73.9 91.3 -73.9 101.3 M-83.9 92.95 L-93.1 103.75 M-63.9 89.65 L-63.9 79.6 -53.9 67.95 -53.9 77.95 M-83.9 72.95 L-83.9 62.95 -93.1 73.75" fill="none" stroke="#000000" stroke-linecap="round" stroke-linejoin="round" stroke-width="3.0"/>
    </g>
  </defs>
</svg>
