<?xml version="1.0" encoding="UTF-8" standalone="no"?>
<svg xmlns:xlink="http://www.w3.org/1999/xlink" height="720.75px" width="1716.8px" xmlns="http://www.w3.org/2000/svg">
  <g transform="matrix(1, 0, 0, 1, 307.05, 450.35)">
    <use height="233.3" transform="matrix(1.0, 0.0, 0.0, 1.0, -52.2, -116.65)" width="98.35" xlink:href="#shape0"/>
  </g>
  <defs>
    <g id="shape0" transform="matrix(1, 0, 0, 1, 52.2, 116.65)">
      <path d="M26.55 -112.2 Q34.55 -113.45 40.75 -115.15 49.85 -93.2 37.6 -79.5 32.65 -82.75 26.55 -84.75 29.75 -97.95 26.55 -112.2 M-37.4 -95.95 Q-44.05 -95.3 -50.7 -93.7 -46.45 -98.75 -39.5 -102.15 L-37.4 -95.95" fill="#f1f2f3" fill-rule="evenodd" stroke="none"/>
      <path d="M26.55 -84.75 Q17.75 -87.7 6.55 -88.1 9.95 14.3 2.3 115.15 -0.95 106.8 -8.75 105.35 0.0 6.3 -5.9 -87.85 L-8.1 -87.7 -18.2 -87.7 -20.4 -96.2 Q-28.9 -96.8 -37.4 -95.95 L-39.5 -102.15 Q-26.45 -108.65 -4.0 -109.45 13.65 -110.25 26.55 -112.2 29.75 -97.95 26.55 -84.75 M6.55 -88.1 Q0.65 -88.35 -5.9 -87.85 0.65 -88.35 6.55 -88.1" fill="#c9040b" fill-rule="evenodd" stroke="none"/>
      <path d="M26.55 -112.2 Q34.55 -113.45 40.75 -115.15 49.85 -93.2 37.6 -79.5 32.65 -82.75 26.55 -84.75 17.75 -87.7 6.55 -88.1 9.95 14.3 2.3 115.15 -0.95 106.8 -8.75 105.35 0.0 6.3 -5.9 -87.85 L-8.1 -87.7 -18.2 -87.7 -20.4 -96.2 Q-28.9 -96.8 -37.4 -95.95 -44.05 -95.3 -50.7 -93.7 -46.45 -98.75 -39.5 -102.15 -26.45 -108.65 -4.0 -109.45 13.65 -110.25 26.55 -112.2 M-5.9 -87.85 Q0.65 -88.35 6.55 -88.1" fill="none" stroke="#000000" stroke-linecap="round" stroke-linejoin="round" stroke-width="3.0"/>
      <path d="M26.55 -112.2 Q29.75 -97.95 26.55 -84.75 M-39.5 -102.15 L-37.4 -95.95" fill="none" stroke="#010101" stroke-linecap="round" stroke-linejoin="round" stroke-opacity="0.0" stroke-width="3.0"/>
    </g>
  </defs>
</svg>
