<?xml version="1.0" encoding="UTF-8" standalone="no"?>
<svg xmlns:xlink="http://www.w3.org/1999/xlink" height="720.75px" width="1716.8px" xmlns="http://www.w3.org/2000/svg">
  <g transform="matrix(1, 0, 0, 1, 307.05, 450.35)">
    <use height="84.5" transform="matrix(1.0, 0.0, 0.0, 1.0, -26.5, -42.25)" width="53.0" xlink:href="#sprite0"/>
  </g>
  <defs>
    <g id="sprite0" transform="matrix(1, 0, 0, 1, 26.5, 42.25)">
      <use height="81.5" transform="matrix(1.0, 0.0, 0.0, 1.0, -25.0, -40.75)" width="50.0" xlink:href="#shape0"/>
      <use height="84.5" transform="matrix(1.0, 0.0, 0.0, 1.0, -26.5, -42.25)" width="53.0" xlink:href="#shape1"/>
    </g>
    <g id="shape0" transform="matrix(1, 0, 0, 1, 25.0, 40.75)">
      <path d="M25.0 -29.95 L25.0 30.2 Q24.95 34.55 17.65 37.65 10.35 40.75 0.0 40.75 -10.35 40.75 -17.7 37.65 -24.95 34.55 -25.0 30.2 L-25.0 -29.95 Q-25.0 -34.5 -17.7 -37.6 -10.35 -40.75 0.0 -40.75 10.35 -40.75 17.65 -37.6 25.0 -34.5 25.0 -29.95" fill="#ee0000" fill-rule="evenodd" stroke="none"/>
    </g>
    <g id="shape1" transform="matrix(1, 0, 0, 1, 26.5, 42.25)">
      <path d="M-25.0 -29.95 Q-24.95 -28.7 -24.35 -27.6 -22.85 -24.75 -17.7 -22.55 -10.35 -19.45 0.0 -19.45 10.35 -19.45 17.65 -22.55 22.8 -24.75 24.35 -27.6 24.95 -28.7 25.0 -29.95 24.95 -28.7 24.35 -27.6 22.8 -24.75 17.65 -22.55 10.35 -19.45 0.0 -19.45 -10.35 -19.45 -17.7 -22.55 -22.85 -24.75 -24.35 -27.6 -24.95 -28.7 -25.0 -29.95 -25.0 -34.5 -17.7 -37.6 -10.35 -40.75 0.0 -40.75 10.35 -40.75 17.65 -37.6 25.0 -34.5 25.0 -29.95 L25.0 -23.85 Q22.8 -19.75 17.65 -17.55 L16.0 -16.9 Q9.2 -14.45 0.0 -14.45 L-0.7 -14.45 Q-10.6 -14.55 -17.7 -17.55 -22.85 -19.75 -25.0 -23.6 L-25.0 -29.95 M14.5 -29.25 Q9.5 -31.25 4.5 -29.25 L4.5 -25.75 Q8.5 -28.75 14.5 -25.75 L14.5 -29.25 14.5 -25.75 Q8.5 -28.75 4.5 -25.75 L4.5 -29.25 Q9.5 -31.25 14.5 -29.25 M-24.35 -27.6 Q-22.85 -30.45 -17.7 -32.6 -10.35 -35.75 0.0 -35.75 10.35 -35.75 17.65 -32.6 22.85 -30.45 24.35 -27.6 22.85 -30.45 17.65 -32.6 10.35 -35.75 0.0 -35.75 -10.35 -35.75 -17.7 -32.6 -22.85 -30.45 -24.35 -27.6 M25.0 25.25 L25.0 30.2 Q24.95 34.55 17.65 37.65 10.35 40.75 0.0 40.75 -10.35 40.75 -17.7 37.65 -24.95 34.55 -25.0 30.2 L-25.0 25.25 Q-24.9 29.55 -17.7 32.65 -14.35 34.05 -10.4 34.85 L-1.3 35.75 0.0 35.75 Q10.35 35.75 17.65 32.65 24.9 29.55 25.0 25.25 M-10.1 -29.55 Q-11.3 -29.55 -12.15 -28.9 -13.0 -28.3 -13.0 -27.4 -13.0 -26.5 -12.15 -25.85 -11.3 -25.25 -10.1 -25.2 -8.9 -25.25 -8.05 -25.85 -7.2 -26.5 -7.2 -27.4 -7.2 -28.3 -8.05 -28.9 -8.9 -29.55 -10.1 -29.55 -8.9 -29.55 -8.05 -28.9 -7.2 -28.3 -7.2 -27.4 -7.2 -26.5 -8.05 -25.85 -8.9 -25.25 -10.1 -25.2 -11.3 -25.25 -12.15 -25.85 -13.0 -26.5 -13.0 -27.4 -13.0 -28.3 -12.15 -28.9 -11.3 -29.55 -10.1 -29.55" fill="#cccccc" fill-rule="evenodd" stroke="none"/>
      <path d="M-0.7 -14.45 L0.0 -14.45 Q9.2 -14.45 16.0 -16.9 -20.15 7.4 -1.3 35.75 L-10.4 34.85 Q-19.2 10.6 -0.7 -14.45" fill="#ffffff" fill-opacity="0.7529412" fill-rule="evenodd" stroke="none"/>
      <path d="M14.5 -29.25 L14.5 -25.75 Q8.5 -28.75 4.5 -25.75 L4.5 -29.25 Q9.5 -31.25 14.5 -29.25" fill="none" stroke="#000000" stroke-linecap="round" stroke-linejoin="round" stroke-width="2.0"/>
      <path d="M-1.3 35.75 Q-20.15 7.4 16.0 -16.9 M-10.4 34.85 Q-19.2 10.6 -0.7 -14.45" fill="none" stroke="#010101" stroke-linecap="round" stroke-linejoin="round" stroke-opacity="0.0" stroke-width="2.0"/>
      <path d="M25.0 -29.95 Q24.95 -28.7 24.35 -27.6 22.8 -24.75 17.65 -22.55 10.35 -19.45 0.0 -19.45 -10.35 -19.45 -17.7 -22.55 -22.85 -24.75 -24.35 -27.6 -24.95 -28.7 -25.0 -29.95 L-25.0 -23.6 Q-22.85 -19.75 -17.7 -17.55 -10.6 -14.55 -0.7 -14.45 L0.0 -14.45 Q9.2 -14.45 16.0 -16.9 L17.65 -17.55 Q22.8 -19.75 25.0 -23.85 L25.0 -29.95 Q25.0 -34.5 17.65 -37.6 10.35 -40.75 0.0 -40.75 -10.35 -40.75 -17.7 -37.6 -25.0 -34.5 -25.0 -29.95 M24.35 -27.6 Q22.85 -30.45 17.65 -32.6 10.35 -35.75 0.0 -35.75 -10.35 -35.75 -17.7 -32.6 -22.85 -30.45 -24.35 -27.6 M25.0 25.25 L25.0 30.2 Q24.95 34.55 17.65 37.65 10.35 40.75 0.0 40.75 -10.35 40.75 -17.7 37.65 -24.95 34.55 -25.0 30.2 L-25.0 25.25 -25.0 -23.6 M-1.3 35.75 L0.0 35.75 Q10.35 35.75 17.65 32.65 24.9 29.55 25.0 25.25 L25.0 -23.85 M-10.1 -29.55 Q-8.9 -29.55 -8.05 -28.9 -7.2 -28.3 -7.2 -27.4 -7.2 -26.5 -8.05 -25.85 -8.9 -25.25 -10.1 -25.2 -11.3 -25.25 -12.15 -25.85 -13.0 -26.5 -13.0 -27.4 -13.0 -28.3 -12.15 -28.9 -11.3 -29.55 -10.1 -29.55 M-10.4 34.85 L-1.3 35.75 M-25.0 25.25 Q-24.9 29.55 -17.7 32.65 -14.35 34.05 -10.4 34.85" fill="none" stroke="#000000" stroke-linecap="round" stroke-linejoin="round" stroke-width="3.0"/>
    </g>
  </defs>
</svg>
