<?xml version="1.0" encoding="UTF-8" standalone="no"?>
<svg xmlns:xlink="http://www.w3.org/1999/xlink" height="720.75px" width="1716.8px" xmlns="http://www.w3.org/2000/svg">
  <g transform="matrix(1, 0, 0, 1, 307.05, 450.35)">
    <use height="52.5" transform="matrix(1.0, 0.0, 0.0, 1.0, -53.25, -26.25)" width="106.5" xlink:href="#shape0"/>
  </g>
  <defs>
    <g id="shape0" transform="matrix(1, 0, 0, 1, 53.25, 26.25)">
      <path d="M46.75 17.1 Q47.75 15.2 47.75 12.5 47.75 9.8 46.75 7.9 45.7 6.0 44.3 6.0 42.85 6.0 41.85 7.9 40.8 9.8 40.8 12.5 40.8 15.2 41.85 17.1 42.85 19.0 44.3 19.0 45.7 19.0 46.75 17.1 M47.75 -12.5 Q47.75 -15.2 46.75 -17.1 45.7 -19.0 44.3 -19.0 42.85 -19.0 41.85 -17.1 40.8 -15.2 40.8 -12.5 40.8 -9.8 41.85 -7.9 42.85 -6.0 44.3 -6.0 45.7 -6.0 46.75 -7.9 47.75 -9.8 47.75 -12.5 M12.75 -13.25 Q7.6 -18.7 0.25 -18.75 L0.1 -18.75 0.0 -18.75 -0.15 -18.75 -0.45 -18.75 Q-7.65 -18.55 -12.8 -13.25 -18.05 -7.75 -18.05 0.0 -18.05 7.75 -12.8 13.25 -7.65 18.55 -0.4 18.75 L-0.15 18.75 0.0 18.75 0.1 18.75 0.25 18.75 Q7.6 18.7 12.75 13.25 18.1 7.75 18.1 0.0 18.1 -7.75 12.75 -13.25 M51.25 24.25 L-51.25 24.25 -51.25 -24.25 51.25 -24.25 51.25 24.25 M-47.3 12.5 Q-47.3 15.2 -46.3 17.1 -45.3 19.0 -43.85 19.0 -42.4 19.0 -41.35 17.1 -40.35 15.2 -40.35 12.5 -40.35 9.8 -41.35 7.9 -42.4 6.0 -43.85 6.0 -45.3 6.0 -46.3 7.9 -47.3 9.8 -47.3 12.5 M-47.3 -12.5 Q-47.3 -9.8 -46.3 -7.9 -45.3 -6.0 -43.85 -6.0 -42.4 -6.0 -41.35 -7.9 -40.35 -9.8 -40.35 -12.5 -40.35 -15.2 -41.35 -17.1 -42.4 -19.0 -43.85 -19.0 -45.3 -19.0 -46.3 -17.1 -47.3 -15.2 -47.3 -12.5" fill="#99ca4f" fill-rule="evenodd" stroke="none"/>
      <path d="M12.75 -13.25 Q18.1 -7.75 18.1 0.0 18.1 7.75 12.75 13.25 7.6 18.7 0.25 18.75 L0.1 18.75 0.0 18.75 -0.15 18.75 -0.4 18.75 Q-7.65 18.55 -12.8 13.25 -18.05 7.75 -18.05 0.0 -18.05 -7.75 -12.8 -13.25 -7.65 -18.55 -0.45 -18.75 L-0.15 -18.75 0.0 -18.75 0.1 -18.75 0.25 -18.75 Q7.6 -18.7 12.75 -13.25 M47.75 -12.5 Q47.75 -9.8 46.75 -7.9 45.7 -6.0 44.3 -6.0 42.85 -6.0 41.85 -7.9 40.8 -9.8 40.8 -12.5 40.8 -15.2 41.85 -17.1 42.85 -19.0 44.3 -19.0 45.7 -19.0 46.75 -17.1 47.75 -15.2 47.75 -12.5 M46.75 17.1 Q45.7 19.0 44.3 19.0 42.85 19.0 41.85 17.1 40.8 15.2 40.8 12.5 40.8 9.8 41.85 7.9 42.85 6.0 44.3 6.0 45.7 6.0 46.75 7.9 47.75 9.8 47.75 12.5 47.75 15.2 46.75 17.1 M-47.3 -12.5 Q-47.3 -15.2 -46.3 -17.1 -45.3 -19.0 -43.85 -19.0 -42.4 -19.0 -41.35 -17.1 -40.35 -15.2 -40.35 -12.5 -40.35 -9.8 -41.35 -7.9 -42.4 -6.0 -43.85 -6.0 -45.3 -6.0 -46.3 -7.9 -47.3 -9.8 -47.3 -12.5 M-47.3 12.5 Q-47.3 9.8 -46.3 7.9 -45.3 6.0 -43.85 6.0 -42.4 6.0 -41.35 7.9 -40.35 9.8 -40.35 12.5 -40.35 15.2 -41.35 17.1 -42.4 19.0 -43.85 19.0 -45.3 19.0 -46.3 17.1 -47.3 15.2 -47.3 12.5" fill="#bfdd91" fill-rule="evenodd" stroke="none"/>
      <path d="M51.25 24.25 L-51.25 24.25 -51.25 -24.25 51.25 -24.25 51.25 24.25" fill="none" stroke="#000000" stroke-linecap="round" stroke-linejoin="round" stroke-width="4.0"/>
      <path d="M0.95 -16.15 L0.95 -12.15 4.0 -11.55 Q5.45 -11.1 6.3 -10.45 7.1 -9.75 7.5 -8.9 7.95 -8.05 8.0 -7.2 L7.6 -5.85 Q7.25 -5.25 6.4 -5.25 5.4 -5.25 4.95 -5.75 4.3 -6.25 4.35 -6.7 L4.45 -8.05 4.7 -9.15 4.35 -9.5 3.6 -10.1 2.55 -10.45 0.95 -10.7 0.95 -2.45 2.05 -2.0 3.25 -1.6 5.3 -0.65 6.9 0.55 8.0 2.15 Q8.45 3.1 8.45 4.45 8.45 7.2 6.3 9.05 4.1 10.95 0.95 11.1 L0.95 16.2 -0.5 16.2 -0.5 11.2 Q-4.05 11.1 -6.2 9.55 -8.4 7.95 -8.4 5.55 -8.4 4.45 -7.9 3.95 -7.55 3.35 -6.7 3.35 -5.75 3.35 -5.25 3.85 -4.65 4.3 -4.6 4.9 L-5.0 6.4 -5.45 7.7 Q-4.9 8.65 -3.65 9.15 -2.35 9.75 -0.5 9.75 L-0.5 0.8 -1.85 0.3 -3.4 -0.3 Q-5.5 -1.15 -6.55 -2.45 -7.8 -3.8 -7.75 -6.0 -7.8 -8.55 -5.6 -10.35 -3.55 -12.05 -0.5 -12.15 L-0.5 -16.15 0.95 -16.15 M-1.7 -3.3 L-1.1 -3.05 -0.5 -2.95 -0.5 -10.7 Q-2.2 -10.7 -3.4 -9.75 -4.65 -8.8 -4.6 -7.3 -4.65 -5.75 -3.9 -4.9 -3.2 -3.95 -1.7 -3.3 M0.95 1.15 L0.95 9.75 Q3.0 9.65 4.1 8.55 5.05 7.55 5.05 5.75 5.05 4.3 4.35 3.35 3.6 2.25 1.8 1.55 L1.3 1.3 0.95 1.15" fill="#85b737" fill-rule="evenodd" stroke="none"/>
    </g>
  </defs>
</svg>
