<?xml version="1.0" encoding="UTF-8" standalone="no"?>
<svg xmlns:xlink="http://www.w3.org/1999/xlink" height="720.75px" width="1716.8px" xmlns="http://www.w3.org/2000/svg">
  <g transform="matrix(1, 0, 0, 1, 307.05, 450.35)">
    <use height="49.95" transform="matrix(1.4583, 0.0, 0.0, 1.4583, -25.0374, -22.8853)" width="34.75" xlink:href="#sprite0"/>
  </g>
  <defs>
    <g id="sprite0" transform="matrix(1, 0, 0, 1, 17.1, 24.95)">
      <use height="49.95" transform="matrix(1.0, 0.0, 0.0, 1.0, -17.1, -24.95)" width="34.75" xlink:href="#shape0"/>
    </g>
    <g id="shape0" transform="matrix(1, 0, 0, 1, 17.1, 24.95)">
      <path d="M7.6 -16.3 L7.25 -18.75 6.7 -20.05 6.2 -20.45 9.0 -22.75 6.2 -20.45 6.7 -20.05 7.25 -18.75 7.6 -16.3 1.3 -16.3 1.3 -21.35 -3.9 -21.35 -6.85 -21.3 -3.9 -21.35 -3.9 -16.3 -9.65 -16.3 Q-9.7 -18.05 -9.2 -19.2 L-8.45 -20.35 -7.6 -21.0 -9.2 -19.2 -7.6 -21.0 -6.85 -21.3 Q-6.65 -21.9 -5.65 -22.95 L-5.5 -23.1 -5.25 -23.4 -5.2 -23.45 Q-3.8 -24.2 -1.4 -23.85 L3.8 -23.85 Q7.3 -24.1 8.9 -22.85 L9.0 -22.75 Q10.5 -21.5 10.1 -18.8 L10.1 0.15 7.6 0.15 7.6 -2.6 7.6 -9.45 7.6 -2.6 1.3 -2.6 1.3 -9.45 7.6 -9.45 7.6 -16.3 M6.2 -20.45 Q5.25 -21.1 3.8 -21.3 L1.3 -21.35 3.8 -21.3 Q5.25 -21.1 6.2 -20.45 M1.3 -16.3 L1.3 -9.45 -3.9 -9.45 -3.9 -16.3 1.3 -16.3 M10.1 0.15 Q12.35 2.2 11.35 3.4 L11.2 3.6 11.5 3.6 16.15 17.65 Q16.85 19.0 16.55 19.85 L15.9 20.65 15.6 20.85 13.9 22.65 13.5 23.1 13.4 23.15 Q12.15 24.05 8.55 23.9 L7.35 20.15 13.65 20.15 14.1 21.3 Q14.25 22.1 13.9 22.65 14.25 22.1 14.1 21.3 L13.65 20.15 11.95 15.05 5.65 15.05 7.35 20.15 2.15 20.15 0.45 15.05 5.65 15.05 3.95 9.95 10.25 9.95 9.0 6.1 8.7 6.1 Q9.7 5.1 8.5 3.6 L7.6 2.65 10.1 0.15 M3.4 23.9 Q0.35 24.25 -1.45 23.15 -3.0 22.2 -3.6 20.15 L2.15 20.15 3.4 23.9 M-5.3 15.05 L-7.0 9.95 -1.25 9.95 0.45 15.05 -5.3 15.05 M-9.65 -2.6 L-9.65 -9.45 -3.9 -9.45 -3.9 -2.6 -9.65 -2.6 M11.2 3.6 L9.0 6.1 11.2 3.6 M2.65 6.1 L3.95 9.95 -1.25 9.95 -2.25 6.1 2.65 6.1 M1.3 2.65 L-3.9 2.65 -3.9 -2.6 1.3 -2.6 1.3 2.65 M11.95 15.05 L10.25 9.95 11.95 15.05 M15.6 20.85 L16.55 19.85 15.6 20.85 M-5.25 -23.4 L-5.95 -22.85 -5.25 -23.4" fill="#cabf32" fill-rule="evenodd" stroke="none"/>
      <path d="M7.6 -16.3 L7.6 -9.45 1.3 -9.45 1.3 -2.6 7.6 -2.6 7.6 0.15 10.1 0.15 7.6 2.65 7.6 0.15 7.6 2.65 8.5 3.6 Q9.7 5.1 8.7 6.1 L9.0 6.1 10.25 9.95 3.95 9.95 5.65 15.05 0.45 15.05 2.15 20.15 7.35 20.15 5.65 15.05 11.95 15.05 13.65 20.15 7.35 20.15 8.55 23.9 3.4 23.9 2.15 20.15 -3.6 20.15 -5.3 15.05 0.45 15.05 -1.25 9.95 -7.0 9.95 -8.25 6.1 -7.65 6.1 -8.9 5.35 Q-9.5 4.8 -9.65 3.95 L-9.65 2.65 -9.65 -2.6 -3.9 -2.6 -3.9 -9.45 -9.65 -9.45 -9.65 -16.3 -3.9 -16.3 -3.9 -21.35 1.3 -21.35 1.3 -16.3 7.6 -16.3 M1.3 -16.3 L-3.9 -16.3 -3.9 -9.45 1.3 -9.45 1.3 -16.3 M8.7 6.1 L2.65 6.1 8.7 6.1 M-2.25 6.1 L-1.25 9.95 3.95 9.95 2.65 6.1 -2.25 6.1 -7.65 6.1 -2.25 6.1 M1.3 2.65 L7.6 2.65 1.3 2.65 1.3 -2.6 -3.9 -2.6 -3.9 2.65 1.3 2.65 M-9.65 2.65 L-3.9 2.65 -9.65 2.65 M-8.9 5.35 L-8.55 4.75 Q-8.25 4.05 -8.45 3.8 L-9.45 3.85 -9.65 3.95 -9.45 3.85 -8.45 3.8 Q-8.25 4.05 -8.55 4.75 L-8.9 5.35" fill="#e5e041" fill-rule="evenodd" stroke="none"/>
      <path d="M9.0 -22.75 L6.2 -20.45 6.7 -20.05 7.25 -18.75 7.6 -16.3 7.6 -9.45 7.6 -2.6 7.6 0.15 10.1 0.15 10.1 -18.8 Q10.5 -21.5 9.0 -22.75 L8.9 -22.85 Q7.3 -24.1 3.8 -23.85 L-1.4 -23.85 Q-3.8 -24.2 -5.2 -23.45 M-5.25 -23.4 L-5.5 -23.1 -5.65 -22.95 M-6.85 -21.3 L-3.9 -21.35 1.3 -21.35 3.8 -21.3 Q5.25 -21.1 6.2 -20.45 M10.1 0.15 Q12.35 2.2 11.35 3.4 L11.2 3.6 11.5 3.6 16.15 17.65 Q16.85 19.0 16.55 19.85 L15.6 20.85 13.9 22.65 13.5 23.1 13.4 23.15 Q12.15 24.05 8.55 23.9 L3.4 23.9 Q0.35 24.25 -1.45 23.15 -3.0 22.2 -3.6 20.15 L-5.3 15.05 -7.0 9.95 -8.25 6.1 -7.65 6.1 -8.9 5.35 Q-9.5 4.8 -9.65 3.95 L-9.65 2.65 -9.65 -2.6 -9.65 -9.45 -9.65 -16.3 Q-9.7 -18.05 -9.2 -19.2 L-8.45 -20.35 -7.6 -21.0 -5.65 -22.95 M7.6 2.65 L10.1 0.15 M7.6 0.15 L7.6 2.65 8.5 3.6 Q9.7 5.1 8.7 6.1 L9.0 6.1 11.2 3.6 M2.65 6.1 L8.7 6.1 M2.65 6.1 L-2.25 6.1 -7.65 6.1 M7.6 2.65 L1.3 2.65 -3.9 2.65 -9.65 2.65 M10.25 9.95 L9.0 6.1 M13.9 22.65 Q14.25 22.1 14.1 21.3 L13.65 20.15 11.95 15.05 M10.25 9.95 L11.95 15.05 M-7.6 -21.0 L-9.2 -19.2 M-6.85 -21.3 L-7.6 -21.0" fill="none" stroke="#000000" stroke-linecap="round" stroke-linejoin="round" stroke-width="2.0"/>
      <path d="M1.3 -21.35 L1.3 -16.3 7.6 -16.3 M7.6 -9.45 L1.3 -9.45 1.3 -2.6 7.6 -2.6 M1.3 -16.3 L-3.9 -16.3 -3.9 -9.45 1.3 -9.45 1.3 -16.3 M-2.25 6.1 L-1.25 9.95 3.95 9.95 2.65 6.1 M5.65 15.05 L0.45 15.05 2.15 20.15 7.35 20.15 5.65 15.05 3.95 9.95 10.25 9.95 M3.4 23.9 L2.15 20.15 -3.6 20.15 M13.65 20.15 L7.35 20.15 8.55 23.9 M11.95 15.05 L5.65 15.05 M1.3 2.65 L1.3 -2.6 -3.9 -2.6 -3.9 2.65 M-9.65 -16.3 L-3.9 -16.3 -3.9 -21.35 M-9.65 -2.6 L-3.9 -2.6 -3.9 -9.45 -9.65 -9.45 M-5.3 15.05 L0.45 15.05 -1.25 9.95 -7.0 9.95" fill="none" stroke="#ff0000" stroke-linecap="round" stroke-linejoin="round" stroke-opacity="0.0" stroke-width="2.0"/>
      <path d="M-8.9 5.35 L-9.6 6.2 -11.1 7.25 -12.0 7.35 Q-12.3 7.1 -11.95 6.35 L-10.9 4.95 -9.65 3.95 -9.45 3.85 -8.45 3.8 Q-8.25 4.05 -8.55 4.75 L-8.9 5.35" fill="none" stroke="#000000" stroke-linecap="round" stroke-linejoin="round" stroke-width="1.0"/>
      <path d="M-1.15 -16.2 Q0.1 -16.2 1.0 -15.3 1.9 -14.4 1.9 -13.15 1.9 -11.9 1.0 -11.0 0.1 -10.1 -1.15 -10.1 -2.4 -10.1 -3.3 -11.0 -4.2 -11.9 -4.2 -13.15 -4.2 -14.4 -3.3 -15.3 -2.4 -16.2 -1.15 -16.2 M-1.1 -14.7 Q-1.7 -14.7 -2.15 -14.25 -2.6 -13.8 -2.6 -13.2 -2.6 -12.6 -2.15 -12.15 -1.7 -11.7 -1.1 -11.7 -0.5 -11.7 -0.05 -12.15 0.4 -12.6 0.4 -13.2 L-0.05 -14.25 Q-0.5 -14.7 -1.1 -14.7" fill="#2b2b2b" fill-rule="evenodd" stroke="none"/>
      <path d="M-1.1 -14.7 Q-0.5 -14.7 -0.05 -14.25 L0.4 -13.2 Q0.4 -12.6 -0.05 -12.15 -0.5 -11.7 -1.1 -11.7 -1.7 -11.7 -2.15 -12.15 -2.6 -12.6 -2.6 -13.2 -2.6 -13.8 -2.15 -14.25 -1.7 -14.7 -1.1 -14.7" fill="#ffffff" fill-rule="evenodd" stroke="none"/>
      <path d="M-1.15 -16.2 Q0.1 -16.2 1.0 -15.3 1.9 -14.4 1.9 -13.15 1.9 -11.9 1.0 -11.0 0.1 -10.1 -1.15 -10.1 -2.4 -10.1 -3.3 -11.0 -4.2 -11.9 -4.2 -13.15 -4.2 -14.4 -3.3 -15.3 -2.4 -16.2 -1.15 -16.2 M-1.1 -14.7 Q-0.5 -14.7 -0.05 -14.25 L0.4 -13.2 Q0.4 -12.6 -0.05 -12.15 -0.5 -11.7 -1.1 -11.7 -1.7 -11.7 -2.15 -12.15 -2.6 -12.6 -2.6 -13.2 -2.6 -13.8 -2.15 -14.25 -1.7 -14.7 -1.1 -14.7" fill="none" stroke="#000000" stroke-linecap="round" stroke-linejoin="round" stroke-width="1.0"/>
      <path d="M4.5 -6.3 Q5.3 -6.7 6.0 -5.8 7.8 -3.3 4.6 -0.5 0.4 0.2 -0.35 -2.6 -0.6 -3.65 0.25 -4.05 L3.1 -3.85 Q3.55 -5.85 4.5 -6.3" fill="#ff0000" fill-rule="evenodd" stroke="none"/>
      <path d="M4.5 -6.3 Q5.3 -6.7 6.0 -5.8 7.8 -3.3 4.6 -0.5 0.4 0.2 -0.35 -2.6 -0.6 -3.65 0.25 -4.05 L3.1 -3.85 Q3.55 -5.85 4.5 -6.3" fill="none" stroke="#000000" stroke-linecap="round" stroke-linejoin="round" stroke-width="1.0"/>
      <path d="M-14.65 15.5 L-12.15 6.05 Q-11.4 5.5 -10.5 6.5 L-13.0 15.95 -14.65 15.5" fill="#b3a366" fill-rule="evenodd" stroke="none"/>
      <path d="M-13.25 20.05 L-14.3 21.7 Q-14.7 21.6 -14.95 23.65 -16.95 21.5 -16.55 19.3 -15.1 20.85 -13.25 20.05" fill="#2b2b2b" fill-rule="evenodd" stroke="none"/>
      <path d="M-13.0 15.95 Q-11.95 17.45 -13.25 20.05 -15.1 20.85 -16.55 19.3 -16.05 16.6 -14.65 15.5 L-13.0 15.95" fill="#ffffff" fill-rule="evenodd" stroke="none"/>
      <path d="M-14.65 15.5 L-12.15 6.05 Q-11.4 5.5 -10.5 6.5 L-13.0 15.95 Q-11.95 17.45 -13.25 20.05 L-14.3 21.7 Q-14.7 21.6 -14.95 23.65 -16.95 21.5 -16.55 19.3 -16.05 16.6 -14.65 15.5 L-13.0 15.95 M-16.55 19.3 Q-15.1 20.85 -13.25 20.05" fill="none" stroke="#000000" stroke-linecap="round" stroke-linejoin="round" stroke-width="1.0"/>
    </g>
  </defs>
</svg>
