<?xml version="1.0" encoding="UTF-8" standalone="no"?>
<svg xmlns:xlink="http://www.w3.org/1999/xlink" height="720.75px" width="1716.8px" xmlns="http://www.w3.org/2000/svg">
  <g transform="matrix(1, 0, 0, 1, 307.05, 450.35)">
    <use height="184.25" transform="matrix(1.0, 0.0, 0.0, 1.0, -126.5, -64.75)" width="200.5" xlink:href="#shape0"/>
  </g>
  <defs>
    <g id="shape0" transform="matrix(1, 0, 0, 1, 126.5, 64.75)">
      <path d="M17.7 -39.7 L17.7 -46.7 17.7 -53.05 -19.15 -53.05 -19.15 -46.7 -19.15 -39.7 -28.45 -39.7 -28.45 -46.7 -28.45 -63.25 27.55 -63.25 27.55 -46.7 27.55 -39.7 17.7 -39.7" fill="#38351d" fill-rule="evenodd" stroke="none"/>
      <path d="M6.0 -39.7 L9.5 -43.2 -5.5 -43.2 -9.0 -39.7 -19.15 -39.7 -19.15 -46.7 17.7 -46.7 17.7 -39.7 6.0 -39.7 M27.55 -39.7 L27.55 -46.7 72.5 -46.7 65.5 -39.7 27.55 -39.7 M-28.45 -46.7 L-28.45 -39.7 -57.5 -39.7 -64.45 -39.7 -57.45 -46.7 -28.45 -46.7 M65.5 48.3 L65.5 55.3 -64.45 55.3 -64.45 55.25 -57.5 48.3 65.5 48.3 M-64.45 70.3 L46.5 70.3 5.0 103.0 -105.0 103.0 -64.45 71.05 -64.45 70.3" fill="#6a6537" fill-rule="evenodd" stroke="none"/>
      <path d="M-9.0 -39.7 L-11.0 -37.7 4.0 -37.7 6.0 -39.7 17.7 -39.7 27.55 -39.7 65.5 -39.7 65.5 48.3 -57.5 48.3 -57.5 -39.7 -28.45 -39.7 -19.15 -39.7 -9.0 -39.7 M65.5 55.3 L46.5 70.3 -64.45 70.3 -64.45 55.3 65.5 55.3 M5.0 103.0 L5.0 118.0 -125.0 118.0 -125.0 103.0 -105.0 103.0 5.0 103.0" fill="#656034" fill-rule="evenodd" stroke="none"/>
      <path d="M6.0 -39.7 L-9.0 -39.7 -5.5 -43.2 9.5 -43.2 6.0 -39.7" fill="#cccccc" fill-rule="evenodd" stroke="none"/>
      <path d="M65.5 -39.7 L72.5 -46.7 72.5 48.3 65.5 55.3 65.5 48.3 65.5 -39.7 M46.5 70.3 L65.5 55.3 65.5 70.3 5.0 118.0 5.0 103.0 46.5 70.3 M-64.45 55.3 L-64.45 70.3 -64.45 71.05 -105.0 103.0 -125.0 103.0 -64.45 55.3 M-64.45 -39.7 L-57.5 -39.7 -57.5 48.3 -64.45 55.25 -64.45 -39.7" fill="#59542f" fill-rule="evenodd" stroke="none"/>
      <path d="M-9.0 -39.7 L-11.0 -37.7 4.0 -37.7 6.0 -39.7 17.7 -39.7 17.7 -46.7 -19.15 -46.7 -19.15 -39.7 -9.0 -39.7 -5.5 -43.2 9.5 -43.2 6.0 -39.7 M17.7 -39.7 L27.55 -39.7 27.55 -46.7 27.55 -63.25 -28.45 -63.25 -28.45 -46.7 -28.45 -39.7 -19.15 -39.7 M72.5 -46.7 L65.5 -39.7 65.5 48.3 65.5 55.3 72.5 48.3 72.5 -46.7 27.55 -46.7 M27.55 -39.7 L65.5 -39.7 M17.7 -46.7 L17.7 -53.05 -19.15 -53.05 -19.15 -46.7 M46.5 70.3 L65.5 55.3 -64.45 55.3 -64.45 70.3 46.5 70.3 5.0 103.0 5.0 118.0 65.5 70.3 65.5 55.3 M-64.45 -39.7 L-57.45 -46.7 -28.45 -46.7 M-57.5 -39.7 L-64.45 -39.7 -64.45 55.25 -57.5 48.3 -57.5 -39.7 -28.45 -39.7 M-105.0 103.0 L-64.45 71.05 -64.45 70.3 M-64.45 55.3 L-64.45 55.25 M-125.0 103.0 L-125.0 118.0 5.0 118.0 M-105.0 103.0 L-125.0 103.0 -64.45 55.3 M5.0 103.0 L-105.0 103.0 M65.5 48.3 L-57.5 48.3" fill="none" stroke="#000000" stroke-linecap="round" stroke-linejoin="round" stroke-width="3.0"/>
    </g>
  </defs>
</svg>
