<?xml version="1.0" encoding="UTF-8" standalone="no"?>
<svg xmlns:xlink="http://www.w3.org/1999/xlink" height="720.75px" width="1716.8px" xmlns="http://www.w3.org/2000/svg">
  <g transform="matrix(1, 0, 0, 1, 307.05, 450.35)">
    <use height="145.0" transform="matrix(1.0, 0.0, 0.0, 1.0, -222.9, -72.5)" width="445.85" xlink:href="#sprite0"/>
  </g>
  <defs>
    <g id="sprite0" transform="matrix(1, 0, 0, 1, 222.95, 72.5)">
      <use height="145.0" transform="matrix(1.0, 0.0, 0.0, 1.0, -222.95, -72.5)" width="445.85" xlink:href="#shape0"/>
      <use height="145.0" transform="matrix(1.0, 0.0, 0.0, 1.0, -222.95, -72.5)" width="445.85" xlink:href="#shape1"/>
    </g>
    <g id="shape0" transform="matrix(1, 0, 0, 1, 222.95, 72.5)">
      <path d="M161.4 -72.0 L172.9 -72.5 Q202.2 -72.5 211.95 -52.95 215.7 -45.45 216.05 -37.45 L217.05 -36.35 217.4 -36.5 217.65 -35.55 217.9 -35.0 217.8 -34.75 220.9 -21.7 Q222.9 -12.35 222.9 -6.75 222.9 0.6 222.45 4.0 221.35 12.8 217.45 19.5 206.85 37.8 177.1 39.35 173.55 41.5 167.4 44.65 155.75 50.55 148.4 53.5 146.95 53.0 146.6 52.7 L146.45 52.5 144.4 53.55 Q118.55 66.5 65.4 66.5 50.15 66.5 40.45 62.55 L38.65 63.0 Q20.25 67.5 7.9 67.5 -2.1 67.5 -7.4 67.1 -25.65 72.5 -43.6 72.5 -58.5 72.5 -75.6 70.1 -94.9 67.45 -110.45 62.5 -117.05 60.45 -122.5 58.15 L-127.95 58.5 -145.6 57.55 Q-152.0 56.2 -154.65 52.5 -191.35 51.9 -209.95 26.5 -216.2 17.95 -219.6 7.6 -221.95 0.45 -221.95 -3.15 -221.95 -6.0 -219.45 -14.4 -216.95 -22.8 -216.95 -24.5 -216.95 -25.45 -218.95 -30.85 -220.95 -36.25 -220.95 -37.25 L-220.9 -37.9 Q-222.95 -42.35 -222.95 -43.25 -222.95 -45.65 -220.95 -49.9 -218.65 -54.75 -214.9 -59.0 -204.85 -70.5 -190.95 -70.5 -171.45 -70.5 -166.95 -67.25 -165.8 -66.45 -164.35 -65.0 -162.65 -64.0 -158.6 -64.0 L-150.35 -64.85 Q-142.55 -66.3 -119.95 -68.0 L-102.95 -71.5 -88.2 -70.1 -71.35 -68.0 -45.2 -65.0 64.4 -68.5 Q74.15 -70.25 116.9 -70.5 L131.25 -70.05 161.4 -72.0 M156.35 23.7 L157.65 23.3 156.15 23.0 156.35 23.7 M158.15 43.25 L158.7 42.95 158.5 42.8 158.35 43.0 158.15 43.25 M152.8 30.1 L152.9 30.6 152.95 30.1 152.8 30.1 M26.85 51.15 L26.9 52.25 27.35 52.0 26.85 51.15 M7.3 62.0 L7.25 61.9 7.0 62.0 7.3 62.0 M-214.9 -37.8 L-215.2 -38.15 -214.9 -37.8 M-119.9 -26.95 L-120.2 -27.15 -120.3 -26.95 -119.9 -26.95 M-142.2 46.45 L-141.95 46.2 -142.3 45.85 -142.45 46.0 -142.2 46.45" fill="#cc0000" fill-rule="evenodd" stroke="none"/>
    </g>
    <g id="shape1" transform="matrix(1, 0, 0, 1, 222.95, 72.5)">
      <path d="M44.4 -61.5 L15.75 -61.0 Q17.6 -58.65 18.95 -54.75 20.6 -49.85 20.9 -44.65 20.9 -41.15 19.95 -38.8 46.8 -42.5 70.9 -42.5 79.0 -42.5 138.15 -32.65 L138.9 -34.45 Q139.9 -36.4 139.9 -37.65 139.9 -43.9 132.9 -55.8 L126.75 -65.2 125.85 -65.15 Q117.0 -64.35 74.65 -64.0 64.4 -61.75 44.4 -61.5 M-121.55 -29.85 Q-124.1 -36.05 -123.4 -36.45 -113.15 -42.5 -98.95 -42.5 -91.5 -42.5 -71.85 -37.75 -52.2 -33.0 -37.7 -33.0 -18.2 -33.0 12.7 -37.75 L15.05 -38.1 Q14.4 -39.75 14.8 -42.1 L15.6 -46.0 Q15.95 -48.15 15.4 -49.5 14.05 -52.8 9.75 -57.45 L6.75 -60.85 Q-31.35 -60.15 -45.1 -59.5 -62.15 -59.5 -73.8 -62.75 -85.4 -66.0 -103.6 -66.0 L-113.2 -63.7 -119.45 -54.0 Q-125.95 -43.2 -125.95 -38.75 -125.95 -37.2 -125.3 -36.0 L-121.8 -29.7 -122.55 -29.2 -122.25 -29.0 -120.95 -28.2 -120.35 -27.05 -120.75 -28.05 -119.95 -27.5 -120.2 -27.15 -120.3 -26.95 -119.9 -26.95 Q-99.5 -26.45 -96.2 -25.0 L-91.85 -23.15 Q-88.85 -21.9 -86.6 -20.5 L-78.15 -15.85 Q-68.75 -12.0 -56.7 -12.0 -51.55 -12.0 -26.1 -15.75 -5.0 -18.2 19.05 -19.05 19.7 -19.5 20.4 -19.5 L22.9 -19.15 Q33.85 -19.5 45.4 -19.5 75.25 -19.5 91.55 -17.25 L101.85 -15.7 112.8 -15.0 Q129.1 -15.0 133.0 -16.1 L132.9 -17.65 133.95 -19.0 134.15 -21.0 136.2 -21.3 136.45 -21.55 136.2 -21.3 145.1 -29.4 Q143.55 -29.75 142.6 -28.5 L141.3 -28.5 140.9 -28.5 140.8 -28.5 122.5 -29.85 Q117.1 -30.6 108.75 -32.75 92.2 -37.0 71.3 -37.0 44.35 -37.0 13.15 -32.25 -18.1 -27.5 -37.6 -27.5 -52.9 -27.5 -72.3 -32.25 -91.65 -37.0 -99.1 -37.0 -109.35 -37.0 -120.1 -30.75 L-121.55 -29.85 M29.5 -13.85 Q32.95 -8.6 34.9 1.5 36.95 12.0 36.9 22.85 36.9 30.0 34.15 32.85 94.4 32.35 121.6 29.9 137.3 28.45 147.95 26.0 L156.35 23.7 157.65 23.3 156.15 23.0 Q156.9 19.5 156.9 17.0 156.9 4.0 145.4 -7.5 L138.0 -14.05 Q136.85 -12.65 134.4 -11.7 128.4 -9.5 113.4 -9.5 L100.4 -10.2 89.6 -11.75 Q73.35 -14.0 44.9 -14.0 L29.5 -13.85 M141.95 -53.45 Q144.25 -45.4 144.9 -37.15 144.9 -35.05 146.95 -31.1 L151.3 -35.05 152.2 -35.85 Q169.95 -51.5 170.4 -51.5 172.2 -51.5 172.6 -51.05 172.9 -50.7 172.9 -48.75 L166.6 -42.0 Q173.25 -44.0 178.4 -44.0 L186.4 -44.5 Q201.55 -44.5 210.25 -40.85 205.9 -67.0 172.3 -67.0 L136.85 -64.9 Q139.8 -60.9 141.95 -53.45 M161.4 -72.0 L172.9 -72.5 Q202.2 -72.5 211.95 -52.95 215.7 -45.45 216.05 -37.45 L217.05 -36.35 217.4 -36.5 217.65 -35.55 217.9 -35.0 217.8 -34.75 220.9 -21.7 Q222.9 -12.35 222.9 -6.75 222.9 0.6 222.45 4.0 221.35 12.8 217.45 19.5 206.85 37.8 177.1 39.35 173.55 41.5 167.4 44.65 155.75 50.55 148.4 53.5 146.95 53.0 146.6 52.7 L146.45 52.5 144.4 53.55 Q118.55 66.5 65.4 66.5 50.15 66.5 40.45 62.55 L38.65 63.0 Q20.25 67.5 7.9 67.5 -2.1 67.5 -7.4 67.1 -25.65 72.5 -43.6 72.5 -58.5 72.5 -75.6 70.1 -94.9 67.45 -110.45 62.5 -117.05 60.45 -122.5 58.15 L-127.95 58.5 -145.6 57.55 Q-152.0 56.2 -154.65 52.5 -191.35 51.9 -209.95 26.5 -216.2 17.95 -219.6 7.6 -221.95 0.45 -221.95 -3.15 -221.95 -6.0 -219.45 -14.4 -216.95 -22.8 -216.95 -24.5 -216.95 -25.45 -218.95 -30.85 -220.95 -36.25 -220.95 -37.25 L-220.9 -37.9 Q-222.95 -42.35 -222.95 -43.25 -222.95 -45.65 -220.95 -49.9 -218.65 -54.75 -214.9 -59.0 -204.85 -70.5 -190.95 -70.5 -171.45 -70.5 -166.95 -67.25 -165.8 -66.45 -164.35 -65.0 -162.65 -64.0 -158.6 -64.0 L-150.35 -64.85 Q-142.55 -66.3 -119.95 -68.0 L-102.95 -71.5 -88.2 -70.1 -71.35 -68.0 -45.2 -65.0 64.4 -68.5 Q74.15 -70.25 116.9 -70.5 L131.25 -70.05 161.4 -72.0 M150.35 -25.45 L144.15 -19.8 Q151.85 -15.85 156.95 -2.95 159.35 3.05 160.85 10.25 161.9 15.45 161.9 17.25 161.9 21.05 161.7 21.8 L161.7 21.9 165.4 20.5 Q169.6 18.9 176.35 12.25 184.1 4.6 185.4 3.75 194.45 -2.1 202.45 -13.0 210.9 -24.6 210.9 -32.5 L210.9 -33.85 Q197.15 -39.0 186.3 -39.0 172.45 -39.0 163.15 -35.25 159.5 -33.25 157.3 -32.3 L150.35 -25.45 M216.4 -15.35 Q215.2 -21.35 214.95 -25.5 213.35 -19.25 208.85 -12.0 201.5 -0.15 190.65 7.25 187.95 9.05 178.2 17.1 170.05 23.8 165.65 26.0 162.95 27.35 158.9 28.55 165.85 34.25 166.15 34.25 L176.4 33.85 Q178.0 33.05 179.4 32.5 181.2 32.95 181.4 33.15 L181.5 33.25 Q203.2 30.0 212.2 16.8 217.9 8.35 217.9 -5.75 217.9 -7.75 216.4 -15.35 M152.95 30.1 L152.8 30.1 Q119.85 37.45 27.7 38.4 30.15 43.35 33.45 47.25 38.9 53.75 46.3 57.15 49.9 56.0 52.9 54.5 L55.4 55.0 55.65 55.25 Q55.9 55.4 55.9 56.85 55.9 57.75 51.9 59.25 58.0 61.0 65.3 61.0 97.0 61.0 114.05 58.4 132.8 55.55 142.4 48.5 146.3 45.65 151.85 39.1 154.2 36.25 156.2 34.6 152.9 32.0 152.9 30.6 L152.95 30.1 M158.7 42.95 L165.95 39.05 Q163.55 38.55 161.4 37.7 160.6 40.1 158.5 42.8 L158.35 43.0 158.15 43.25 158.7 42.95 M22.9 38.45 L0.4 38.5 -58.6 38.45 Q-95.05 37.5 -121.15 32.45 -134.5 29.9 -146.25 26.05 L-143.85 34.0 Q-139.5 46.05 -134.45 48.5 L-126.4 52.1 -118.45 53.0 -118.2 53.25 Q-117.95 53.4 -117.95 54.85 L-117.95 55.2 Q-109.25 58.1 -98.9 60.55 -71.7 67.0 -43.7 67.0 -27.6 67.0 -13.25 64.0 -12.9 62.85 -13.1 62.25 -12.25 61.3 -11.7 60.2 L-10.85 60.35 Q-8.6 61.2 -3.75 61.65 L2.9 59.45 Q9.7 57.05 16.5 53.6 L24.4 49.5 26.25 50.05 25.1 47.45 22.9 40.75 22.9 38.45 M28.9 31.75 Q28.9 30.25 30.4 27.25 31.9 24.25 31.9 23.1 27.1 -4.25 19.8 -13.55 -4.4 -12.75 -25.65 -10.25 -51.1 -6.5 -56.6 -6.5 -71.25 -6.5 -81.35 -10.95 -84.4 -12.3 -87.25 -14.2 L-90.1 -16.0 Q-104.4 -21.05 -119.35 -22.75 L-125.9 -23.75 -126.6 -24.05 Q-137.7 -14.2 -141.25 -1.55 -144.1 8.55 -142.2 21.7 -130.4 23.65 -125.8 26.25 -124.55 26.95 -122.55 28.2 -120.6 29.25 -117.6 29.9 -102.65 33.0 0.8 33.0 L29.05 32.9 28.9 31.75 M30.45 56.0 Q28.7 54.2 27.35 52.0 L26.85 51.15 26.9 52.25 Q17.05 57.85 7.25 61.9 L7.0 62.0 7.3 62.0 Q23.4 62.0 35.25 59.9 32.55 58.15 30.45 56.0 M-168.2 -61.75 Q-173.6 -65.0 -191.1 -65.0 -203.95 -65.0 -212.2 -53.95 -216.35 -48.45 -217.95 -42.75 -217.95 -41.75 -215.25 -38.2 L-215.2 -38.15 -214.9 -37.8 Q-212.85 -40.05 -208.9 -42.0 -197.8 -47.5 -175.45 -47.5 L-165.75 -47.4 Q-171.95 -51.55 -171.95 -52.65 -171.95 -55.5 -168.45 -55.5 -165.4 -55.5 -148.4 -45.45 L-130.9 -34.65 -130.95 -39.0 Q-130.95 -47.45 -128.35 -54.1 -126.45 -59.0 -123.35 -62.1 L-126.2 -62.0 Q-147.7 -61.8 -152.1 -60.1 L-154.2 -59.0 Q-155.4 -58.5 -158.95 -58.5 -162.8 -58.5 -164.8 -59.5 L-168.2 -61.75 M-211.6 -33.25 Q-209.95 -30.65 -209.95 -29.15 L-210.0 -27.95 -197.75 -14.95 Q-179.95 3.25 -173.45 6.5 -169.45 8.5 -160.1 14.8 -153.45 18.85 -147.6 20.55 -147.95 17.85 -147.95 13.85 -147.95 4.75 -143.95 -8.25 -139.35 -23.2 -131.9 -26.55 L-131.95 -27.25 -131.9 -27.75 Q-138.3 -31.0 -149.45 -37.5 L-154.65 -40.55 Q-160.7 -42.0 -175.95 -42.0 -198.55 -42.0 -207.9 -36.3 -210.05 -35.0 -211.6 -33.25 M-216.2 -3.0 Q-216.2 1.75 -213.15 9.75 -209.1 20.3 -201.9 28.4 -180.9 52.15 -142.45 46.0 L-142.2 46.45 Q-141.95 46.8 -141.95 48.25 -141.95 49.05 -142.1 49.65 L-136.7 50.5 Q-139.7 48.45 -141.95 46.2 L-142.3 45.85 Q-149.95 38.3 -149.95 29.1 -150.15 26.4 -149.95 25.0 L-149.9 24.8 Q-192.2 9.85 -212.0 -22.45 -212.3 -18.85 -214.05 -14.75 -216.2 -9.75 -216.2 -3.0" fill="#000000" fill-rule="evenodd" stroke="none"/>
      <path d="M-121.8 -29.7 Q-121.7 -29.8 -121.55 -29.85 L-120.1 -30.75 Q-109.35 -37.0 -99.1 -37.0 -91.65 -37.0 -72.3 -32.25 -52.9 -27.5 -37.6 -27.5 -18.1 -27.5 13.15 -32.25 44.35 -37.0 71.3 -37.0 92.2 -37.0 108.75 -32.75 117.1 -30.6 122.5 -29.85 L140.8 -28.5 140.9 -28.5 141.3 -28.5 142.6 -28.5 Q143.55 -29.75 145.1 -29.4 L136.2 -21.3 136.45 -21.55 136.2 -21.3 134.15 -21.0 133.95 -19.0 132.9 -17.65 133.0 -16.1 Q129.1 -15.0 112.8 -15.0 L101.85 -15.7 91.55 -17.25 Q75.25 -19.5 45.4 -19.5 33.85 -19.5 22.9 -19.15 L20.4 -19.5 Q19.7 -19.5 19.05 -19.05 -5.0 -18.2 -26.1 -15.75 -51.55 -12.0 -56.7 -12.0 -68.75 -12.0 -78.15 -15.85 L-86.6 -20.5 Q-88.85 -21.9 -91.85 -23.15 L-96.2 -25.0 Q-99.5 -26.45 -119.9 -26.95 L-120.2 -27.15 -119.95 -27.5 -120.75 -28.05 -120.35 -27.05 -120.95 -28.2 -122.25 -29.0 -121.8 -29.7" fill="#000000" fill-opacity="0.3529412" fill-rule="evenodd" stroke="none"/>
      <path d="M174.3 -70.65 Q176.4 -70.65 181.15 -67.65 L185.0 -64.75 Q185.9 -65.4 187.0 -65.4 191.75 -65.4 191.0 -60.8 191.0 -58.65 189.6 -57.4 191.0 -53.9 191.8 -46.55 185.15 -20.85 179.0 -16.15 L179.0 -16.05 Q179.0 -13.7 176.8 -11.9 174.95 -10.4 173.5 -10.4 L172.8 -10.5 Q170.6 -7.85 165.15 -4.35 158.45 -0.05 154.05 1.65 142.6 6.15 128.15 9.6 110.5 13.85 98.4 13.85 L94.7 13.7 Q93.75 16.6 90.0 16.6 86.7 16.6 86.05 14.25 L86.05 12.6 82.15 12.6 Q58.9 12.6 47.25 14.25 L3.9 15.85 Q-33.85 15.85 -43.1 13.2 -43.2 14.25 -43.45 14.65 -44.1 15.6 -46.5 15.6 L-49.75 15.1 -50.0 12.35 Q-54.5 12.85 -68.1 12.85 -104.85 12.85 -141.35 -3.65 -154.45 -9.55 -163.8 -16.0 L-168.1 -19.15 Q-169.35 -18.4 -171.35 -18.4 L-175.6 -18.9 -175.85 -24.15 -175.85 -25.45 Q-177.6 -27.15 -179.7 -30.15 L-184.85 -38.15 Q-188.7 -42.95 -189.65 -46.8 -190.1 -48.7 -190.1 -54.15 -190.1 -58.05 -189.7 -60.65 -191.85 -61.35 -191.85 -63.9 -191.85 -65.65 -189.85 -67.65 -188.1 -69.4 -187.35 -69.4 -185.65 -69.4 -185.15 -68.2 -184.85 -67.45 -184.85 -65.15 -184.85 -62.25 -185.35 -61.35 L-186.0 -60.75 Q-185.9 -60.05 -186.1 -59.45 L-187.0 -57.35 Q-187.6 -55.9 -187.6 -54.3 -187.6 -45.15 -179.1 -34.6 L-174.3 -29.15 -172.35 -29.4 Q-168.9 -29.4 -167.1 -27.15 -165.85 -25.6 -165.85 -24.15 -165.85 -22.95 -166.1 -21.95 L-162.0 -18.75 Q-150.75 -10.65 -138.3 -5.1 -115.75 4.95 -88.8 7.9 L-49.85 9.35 -49.5 9.4 -48.95 8.35 Q-47.85 6.6 -46.0 6.6 -42.3 6.6 -42.8 10.0 L-41.25 10.35 -36.85 11.5 12.15 13.15 46.7 11.5 Q59.25 9.85 82.65 9.85 L86.1 9.95 Q86.25 9.0 86.55 8.6 87.35 7.6 90.5 7.6 96.1 7.6 95.25 10.8 L98.0 11.1 Q110.75 11.1 128.85 6.6 142.55 3.2 153.55 -1.1 160.05 -3.65 164.7 -7.25 L170.05 -12.05 170.0 -13.9 Q170.0 -19.7 175.0 -18.4 L175.85 -18.25 182.05 -28.35 Q189.3 -41.15 189.3 -46.55 189.3 -50.1 188.0 -52.75 L186.25 -56.45 Q183.0 -56.8 183.0 -60.3 L183.2 -62.0 Q181.7 -62.75 179.45 -64.15 174.35 -67.3 172.8 -69.1 173.45 -70.65 174.3 -70.65" fill="#000000" fill-rule="evenodd" stroke="none"/>
    </g>
  </defs>
</svg>
