<?xml version="1.0" encoding="UTF-8" standalone="no"?>
<svg xmlns:xlink="http://www.w3.org/1999/xlink" height="720.75px" width="1716.8px" xmlns="http://www.w3.org/2000/svg">
  <g transform="matrix(1, 0, 0, 1, 307.05, 450.35)">
    <use height="68.4" transform="matrix(1.0, 0.0, 0.0, 1.0, -61.6, -34.2)" width="123.15" xlink:href="#sprite0"/>
  </g>
  <defs>
    <g id="sprite0" transform="matrix(1, 0, 0, 1, 62.05, 30.55)">
      <use height="68.25" transform="matrix(1.0, 0.0, 0.0, 1.0, -62.05, -30.4)" width="123.15" xlink:href="#shape0"/>
      <use height="58.8" transform="matrix(1.0, 0.0, 0.0, 1.0, -60.95, -30.55)" width="121.6" xlink:href="#shape1"/>
    </g>
    <g id="shape0" transform="matrix(1, 0, 0, 1, 62.05, 30.4)">
      <path d="M-54.05 11.95 Q-49.9 15.5 -43.3 18.55 -25.55 26.8 -0.45 26.8 24.6 26.8 42.35 18.55 47.6 16.1 51.3 13.4 45.55 21.75 36.3 27.7 27.05 33.6 15.6 35.65 4.15 37.7 -13.4 36.25 -31.0 34.75 -40.7 27.7 -50.4 20.65 -54.05 11.95" fill="#d0d0d0" fill-rule="evenodd" stroke="none"/>
      <path d="M-54.05 11.95 Q-60.25 6.7 -60.95 0.4 L-61.05 -1.3 Q-61.05 -12.95 -43.3 -21.2 -25.55 -29.45 -0.45 -29.4 24.6 -29.45 42.35 -21.2 60.1 -12.95 60.1 -1.3 L59.65 2.45 59.6 2.6 Q57.95 8.45 51.3 13.4 47.6 16.1 42.35 18.55 24.6 26.8 -0.45 26.8 -25.55 26.8 -43.3 18.55 -49.9 15.5 -54.05 11.95" fill="#f2f2f2" fill-rule="evenodd" stroke="none"/>
      <path d="M51.3 13.4 Q57.95 8.45 59.6 2.6 L59.65 2.45 60.1 -1.3 Q60.1 -12.95 42.35 -21.2 24.6 -29.45 -0.45 -29.4 -25.55 -29.45 -43.3 -21.2 -61.05 -12.95 -61.05 -1.3 L-60.95 0.4 Q-60.25 6.7 -54.05 11.95 -49.9 15.5 -43.3 18.55 -25.55 26.8 -0.45 26.8 24.6 26.8 42.35 18.55 47.6 16.1 51.3 13.4 45.55 21.75 36.3 27.7 27.05 33.6 15.6 35.65 4.15 37.7 -13.4 36.25 -31.0 34.75 -40.7 27.7 -50.4 20.65 -54.05 11.95" fill="none" stroke="#000000" stroke-linecap="round" stroke-linejoin="round" stroke-width="2.0"/>
    </g>
    <g id="shape1" transform="matrix(1, 0, 0, 1, 60.95, 30.55)">
      <path d="M34.35 14.75 L38.85 12.95 Q44.85 10.25 48.65 7.25 55.35 1.9 55.35 -4.65 55.35 -11.6 47.95 -17.15 L49.95 -16.9 Q52.0 -16.2 52.1 -14.1 54.9 -13.45 56.7 -11.15 57.85 -9.7 57.6 -7.85 57.4 -6.4 58.45 -5.85 59.65 -5.3 59.65 -3.95 59.65 -0.65 57.45 0.65 59.0 2.15 57.0 5.2 55.05 8.25 51.55 6.95 49.5 17.0 39.85 14.45 36.25 21.85 30.0 18.9 23.7 24.4 17.8 20.55 13.4 22.95 10.2 24.05 L9.05 23.8 9.3 24.05 10.15 24.05 6.95 24.85 Q2.95 25.4 -1.8 23.6 -6.55 21.8 -11.65 23.1 -16.75 24.35 -18.75 23.2 -20.8 22.05 -23.8 20.8 -26.8 19.55 -27.65 20.05 -32.6 22.95 -36.15 19.15 -37.8 17.4 -40.05 17.0 L-46.2 15.95 Q-47.5 15.75 -47.85 14.45 -48.7 11.2 -51.8 10.6 -58.45 9.2 -57.35 2.85 -61.7 1.05 -58.75 -3.4 -58.4 -3.95 -58.7 -4.45 -61.25 -8.8 -57.85 -11.8 L-55.4 -14.75 Q-53.9 -16.95 -48.7 -18.15 -57.55 -12.2 -57.55 -4.65 -57.55 5.65 -41.0 12.95 -24.5 20.2 -1.1 20.25 L5.0 20.1 5.0 20.15 5.05 20.1 Q22.65 18.95 34.35 14.75" fill="#d8ac6b" fill-rule="evenodd" stroke="none"/>
      <path d="M47.95 -17.15 Q55.35 -11.6 55.35 -4.65 55.35 1.9 48.65 7.25 44.85 10.25 38.85 12.95 L34.35 14.75 Q22.65 18.95 5.05 20.1 L5.0 20.15 5.0 20.1 -1.1 20.25 Q-24.5 20.2 -41.0 12.95 -57.55 5.65 -57.55 -4.65 -57.55 -12.2 -48.7 -18.15 -45.45 -20.3 -41.0 -22.25 -24.5 -29.55 -1.1 -29.55 22.3 -29.55 38.85 -22.25 44.25 -19.9 47.95 -17.15 M10.15 24.05 L9.3 24.05 9.05 23.8 10.2 24.05 10.15 24.05 M14.8 28.25 L14.55 28.25 14.55 28.05 14.8 28.25" fill="#d29d4f" fill-rule="evenodd" stroke="none"/>
      <path d="M47.95 -17.15 Q55.35 -11.6 55.35 -4.65 55.35 1.9 48.65 7.25 44.85 10.25 38.85 12.95 L34.35 14.75 M5.0 20.1 L-1.1 20.25 Q-24.5 20.2 -41.0 12.95 -57.55 5.65 -57.55 -4.65 -57.55 -12.2 -48.7 -18.15 -53.9 -16.95 -55.4 -14.75 L-57.85 -11.8 Q-61.25 -8.8 -58.7 -4.45 -58.4 -3.95 -58.75 -3.4 -61.7 1.05 -57.35 2.85 -58.45 9.2 -51.8 10.6 -48.7 11.2 -47.85 14.45 -47.5 15.75 -46.2 15.95 L-40.05 17.0 Q-37.8 17.4 -36.15 19.15 -32.6 22.95 -27.65 20.05 -26.8 19.55 -23.8 20.8 -20.8 22.05 -18.75 23.2 -16.75 24.35 -11.65 23.1 -6.55 21.8 -1.8 23.6 2.95 25.4 6.95 24.85 M51.55 6.95 Q55.05 8.25 57.0 5.2 59.0 2.15 57.45 0.65 59.65 -0.65 59.65 -3.95 59.65 -5.3 58.45 -5.85 57.4 -6.4 57.6 -7.85 57.85 -9.7 56.7 -11.15 54.9 -13.45 52.1 -14.1 52.0 -16.2 49.95 -16.9 L47.95 -17.15 Q44.25 -19.9 38.85 -22.25 22.3 -29.55 -1.1 -29.55 -24.5 -29.55 -41.0 -22.25 -45.45 -20.3 -48.7 -18.15" fill="none" stroke="#000000" stroke-linecap="round" stroke-linejoin="round" stroke-width="2.0"/>
      <path d="M34.35 14.75 Q22.65 18.95 5.05 20.1 M6.95 24.85 L10.15 24.05 M10.2 24.05 Q13.4 22.95 17.8 20.55 23.7 24.4 30.0 18.9 36.25 21.85 39.85 14.45 49.5 17.0 51.55 6.95 M10.2 24.05 L10.15 24.05" fill="none" stroke="#000000" stroke-linecap="round" stroke-linejoin="round" stroke-width="2.0"/>
    </g>
  </defs>
</svg>
