<?xml version="1.0" encoding="UTF-8" standalone="no"?>
<svg xmlns:xlink="http://www.w3.org/1999/xlink" height="720.75px" width="1716.8px" xmlns="http://www.w3.org/2000/svg">
  <g transform="matrix(1, 0, 0, 1, 307.05, 450.35)">
    <use height="52.15" transform="matrix(1.5, 0.0, 0.0, 1.5, -42.3, -39.05)" width="56.45" xlink:href="#sprite0"/>
  </g>
  <defs>
    <g id="sprite0" transform="matrix(1, 0, 0, 1, 26.0, 23.3)">
      <use height="52.15" transform="matrix(1.0, 0.0, 0.0, 1.0, -26.0, -23.3)" width="56.45" xlink:href="#shape0"/>
    </g>
    <g id="shape0" transform="matrix(1, 0, 0, 1, 26.0, 23.3)">
      <path d="M7.85 -22.75 Q6.1 -22.55 5.35 -21.4 L5.25 -21.3 Q4.2 -19.55 5.75 -16.75 7.35 -13.9 10.8 -11.6 14.2 -9.3 17.45 -8.85 19.7 -8.6 20.95 -9.35 L21.0 -9.3 21.05 -9.4 21.85 -10.2 22.0 -10.5 Q22.0 -9.35 21.4 -8.4 20.05 -6.35 16.35 -6.75 12.65 -7.2 8.7 -9.85 4.8 -12.5 3.0 -15.8 1.15 -19.15 2.55 -21.15 3.85 -23.25 7.6 -22.8 L7.85 -22.75 M-22.05 -7.5 L-22.7 -6.85 Q-25.4 -3.9 -25.4 0.25 L-25.25 2.2 -25.5 -0.15 Q-25.5 -3.85 -23.15 -6.45 L-22.7 -6.9 -22.05 -7.5 -22.7 -6.9 -23.15 -6.45 Q-25.5 -3.85 -25.5 -0.15 L-25.25 2.2 Q-24.75 5.1 -22.7 7.3 -20.05 10.25 -16.25 10.25 -12.45 10.25 -9.75 7.3 -7.1 4.4 -10.2 0.45 -13.35 -3.5 -13.75 -6.55 -14.2 -9.65 -16.9 -9.7 -19.6 -9.75 -22.05 -7.5 M-17.15 12.1 Q-20.4 11.55 -22.85 8.9 -26.0 5.55 -26.0 0.8 -26.0 -3.95 -22.85 -7.3 -19.75 -10.65 -15.85 -10.65 -11.95 -10.65 -11.2 -7.3 -10.5 -3.95 -7.55 0.8 -4.6 5.55 -7.7 8.9 L-8.75 9.95 -10.6 9.65 Q-12.7 11.0 -15.25 11.2 L-16.2 11.25 -16.3 11.25 -17.15 12.1 -16.3 11.25 -16.2 11.25 -15.25 11.2 Q-12.7 11.0 -10.6 9.65 L-8.75 9.95 Q-6.65 10.55 -4.85 12.4 L0.8 18.55 Q3.55 21.65 1.95 24.55 0.35 27.4 -3.75 27.8 -7.85 28.2 -11.95 25.85 -16.1 23.45 -17.75 19.7 -19.5 15.95 -17.8 13.05 L-17.15 12.1 M-10.5 26.05 Q-7.75 27.15 -5.05 26.9 -1.5 26.6 -0.55 24.25 0.35 21.85 -2.5 18.95 -5.4 16.05 -7.1 13.5 -8.4 11.55 -10.85 11.3 L-12.35 11.25 Q-14.3 11.45 -15.6 12.25 -16.7 12.95 -17.35 14.1 -18.65 16.3 -17.65 19.05 L-17.4 19.8 -17.15 20.3 Q-15.8 23.15 -12.6 25.05 L-10.5 26.05 -12.6 25.05 Q-15.8 23.15 -17.15 20.3 L-17.4 19.8 -17.65 19.05 -17.3 19.85 Q-15.8 23.1 -12.2 25.15 L-10.5 26.05 M29.1 -4.15 L29.45 -3.45 29.65 -2.9 Q30.7 0.05 29.75 3.65 L29.0 5.85 29.75 3.65 Q30.7 0.05 29.65 -2.9 L29.45 -3.45 29.1 -4.15 Q27.85 -6.8 25.4 -7.45 22.6 -8.2 19.85 -5.95 17.15 -3.65 17.95 0.6 18.75 4.85 18.35 8.0 17.95 11.15 20.5 11.9 23.05 12.6 25.75 10.3 27.85 8.55 29.0 5.85 L29.6 4.0 Q30.65 0.0 29.4 -3.35 L29.1 -4.15 M24.95 -8.5 Q28.25 -7.65 29.65 -3.8 31.1 0.05 29.9 4.65 28.65 9.25 25.45 11.85 22.3 14.45 19.05 13.6 15.7 12.7 14.25 8.85 12.85 5.0 14.1 0.4 15.25 -4.0 18.2 -6.55 20.6 -7.1 22.55 -8.7 L24.95 -8.5" fill="#547d99" fill-rule="evenodd" stroke="none"/>
      <path d="M20.95 -9.35 Q19.7 -8.6 17.45 -8.85 14.2 -9.3 10.8 -11.6 7.35 -13.9 5.75 -16.75 4.2 -19.55 5.25 -21.3 L5.35 -21.4 Q6.1 -22.55 7.85 -22.75 L8.55 -22.75 Q8.1 -22.5 7.8 -22.05 L7.7 -21.85 Q6.9 -20.4 8.25 -18.0 9.7 -15.5 12.75 -13.45 15.8 -11.4 18.65 -11.0 20.65 -10.75 21.75 -11.4 L22.35 -11.9 22.0 -10.5 21.85 -10.2 21.05 -9.4 20.95 -9.35 M-25.25 2.2 Q-24.7 4.4 -23.15 6.15 -20.85 8.75 -17.6 8.75 -14.35 8.75 -12.0 6.15 -9.7 3.55 -12.75 0.85 -15.8 -1.9 -15.9 -5.2 -16.05 -8.5 -18.05 -8.75 -20.1 -9.05 -22.05 -7.5 -19.6 -9.75 -16.9 -9.7 -14.2 -9.65 -13.75 -6.55 -13.35 -3.5 -10.2 0.45 -7.1 4.4 -9.75 7.3 -12.45 10.25 -16.25 10.25 -20.05 10.25 -22.7 7.3 -24.75 5.1 -25.25 2.2 M-17.65 19.05 Q-18.65 16.3 -17.35 14.1 -16.7 12.95 -15.6 12.25 -14.3 11.45 -12.35 11.25 L-10.85 11.3 Q-8.4 11.55 -7.1 13.5 -5.4 16.05 -2.5 18.95 0.35 21.85 -0.55 24.25 -1.5 26.6 -5.05 26.9 -7.75 27.15 -10.5 26.05 -8.35 26.8 -6.25 26.6 -3.1 26.4 -2.7 24.6 -2.25 22.75 -4.65 20.35 -7.05 17.9 -8.4 15.3 -9.8 12.7 -12.9 12.95 -16.05 13.2 -17.3 15.35 -18.25 17.0 -17.65 19.05 M29.0 5.85 Q27.85 8.55 25.75 10.3 23.05 12.6 20.5 11.9 17.95 11.15 18.35 8.0 18.75 4.85 17.95 0.6 17.15 -3.65 19.85 -5.95 22.6 -8.2 25.4 -7.45 27.85 -6.8 29.1 -4.15 28.05 -6.05 26.25 -6.55 23.8 -7.2 22.6 -4.55 21.35 -1.9 21.35 1.5 21.3 4.9 20.25 7.45 19.2 10.0 21.6 10.65 24.0 11.3 26.4 9.25 28.0 7.85 29.0 5.85" fill="#a6953b" fill-rule="evenodd" stroke="none"/>
      <path d="M-21.9 -4.1 Q-23.0 -2.85 -23.2 -0.9 -23.45 1.0 -22.15 2.05 -20.9 3.05 -19.3 3.05 -17.75 3.0 -16.8 1.9 -15.85 0.75 -18.85 0.45 -21.85 0.15 -20.65 -2.35 -19.45 -4.9 -20.15 -5.1 -20.85 -5.3 -21.9 -4.1 M-19.85 -6.9 Q-18.7 -6.3 -18.65 -3.45 -18.6 -0.65 -15.45 0.85 -12.35 2.35 -14.15 4.35 -15.95 6.4 -18.5 6.4 -21.05 6.4 -22.85 4.35 -24.65 2.35 -24.65 -0.55 -24.65 -3.45 -22.85 -5.5 -21.05 -7.5 -19.85 -6.9 M-16.2 20.6 Q-17.25 18.4 -16.3 16.7 -15.3 15.0 -12.9 14.85 -10.45 14.65 -10.1 17.05 -9.8 19.4 -7.2 21.0 -4.55 22.6 -4.9 24.0 -5.25 25.35 -7.7 25.55 -10.1 25.7 -12.6 24.25 -15.15 22.8 -16.2 20.6 M-14.65 20.65 Q-14.0 22.0 -12.5 22.85 -11.05 23.7 -9.55 23.6 -8.1 23.5 -7.45 22.5 -6.85 21.5 -8.3 20.7 -9.75 19.85 -10.45 18.5 -11.15 17.1 -12.65 17.2 -14.1 17.3 -14.7 18.35 -15.3 19.35 -14.65 20.65 M17.15 -21.8 L16.55 -21.9 Q15.2 -22.15 14.75 -21.4 L14.6 -21.0 Q14.45 -20.4 16.05 -20.1 17.65 -19.85 18.7 -18.65 L20.1 -16.75 Q20.45 -16.15 20.9 -16.25 L21.6 -16.8 Q21.85 -17.2 21.75 -17.75 L22.0 -17.4 Q22.6 -16.4 22.65 -15.55 L22.65 -15.5 22.6 -14.95 22.35 -14.3 21.6 -13.65 19.35 -13.4 Q17.1 -13.75 14.75 -15.35 12.35 -16.95 11.25 -18.9 10.2 -20.65 10.7 -21.8 L10.85 -22.0 Q11.4 -22.9 12.75 -22.95 L13.2 -22.95 13.9 -22.9 14.95 -22.7 17.15 -21.8 M26.5 -4.85 Q28.35 -4.35 29.2 -2.05 29.95 0.3 29.25 3.1 28.45 5.9 26.65 7.45 24.75 9.1 22.9 8.6 21.0 8.05 21.9 6.2 L23.55 1.5 Q24.3 -1.35 24.45 -3.35 24.6 -5.4 26.5 -4.85 M25.3 -1.75 Q25.2 -0.65 25.7 1.1 26.2 2.85 24.7 4.0 23.2 5.15 24.35 5.45 25.5 5.75 26.6 4.75 27.7 3.8 28.15 2.15 28.6 0.5 28.1 -0.9 27.65 -2.3 26.5 -2.6 25.35 -2.9 25.3 -1.75" fill="#bbcfb6" fill-rule="evenodd" stroke="none"/>
      <path d="M22.35 -11.9 L21.75 -11.4 Q20.65 -10.75 18.65 -11.0 15.8 -11.4 12.75 -13.45 9.7 -15.5 8.25 -18.0 6.9 -20.4 7.7 -21.85 L7.8 -22.05 Q8.1 -22.5 8.55 -22.75 L8.6 -22.75 Q9.3 -23.25 10.55 -23.25 L11.65 -23.15 12.75 -22.95 Q11.4 -22.9 10.85 -22.0 L10.7 -21.8 Q10.2 -20.65 11.25 -18.9 12.35 -16.95 14.75 -15.35 17.1 -13.75 19.35 -13.4 L21.6 -13.65 22.35 -14.3 22.6 -14.95 Q23.15 -13.5 22.7 -12.45 L22.5 -12.15 22.35 -11.9 M-25.25 2.2 L-25.4 0.25 Q-25.4 -3.9 -22.7 -6.85 L-22.05 -7.5 Q-20.1 -9.05 -18.05 -8.75 -16.05 -8.5 -15.9 -5.2 -15.8 -1.9 -12.75 0.85 -9.7 3.55 -12.0 6.15 -14.35 8.75 -17.6 8.75 -20.85 8.75 -23.15 6.15 -24.7 4.4 -25.25 2.2 M-19.85 -6.9 Q-21.05 -7.5 -22.85 -5.5 -24.65 -3.45 -24.65 -0.55 -24.65 2.35 -22.85 4.35 -21.05 6.4 -18.5 6.4 -15.95 6.4 -14.15 4.35 -12.35 2.35 -15.45 0.85 -18.6 -0.65 -18.65 -3.45 -18.7 -6.3 -19.85 -6.9 M-17.65 19.05 Q-18.25 17.0 -17.3 15.35 -16.05 13.2 -12.9 12.95 -9.8 12.7 -8.4 15.3 -7.05 17.9 -4.65 20.35 -2.25 22.75 -2.7 24.6 -3.1 26.4 -6.25 26.6 -8.35 26.8 -10.5 26.05 L-12.2 25.15 Q-15.8 23.1 -17.3 19.85 L-17.65 19.05 M-16.2 20.6 Q-15.15 22.8 -12.6 24.25 -10.1 25.7 -7.7 25.55 -5.25 25.35 -4.9 24.0 -4.55 22.6 -7.2 21.0 -9.8 19.4 -10.1 17.05 -10.45 14.65 -12.9 14.85 -15.3 15.0 -16.3 16.7 -17.25 18.4 -16.2 20.6 M29.1 -4.15 L29.4 -3.35 Q30.65 0.0 29.6 4.0 L29.0 5.85 Q28.0 7.85 26.4 9.25 24.0 11.3 21.6 10.65 19.2 10.0 20.25 7.45 21.3 4.9 21.35 1.5 21.35 -1.9 22.6 -4.55 23.8 -7.2 26.25 -6.55 28.05 -6.05 29.1 -4.15 M26.5 -4.85 Q24.6 -5.4 24.45 -3.35 24.3 -1.35 23.55 1.5 L21.9 6.2 Q21.0 8.05 22.9 8.6 24.75 9.1 26.65 7.45 28.45 5.9 29.25 3.1 29.95 0.3 29.2 -2.05 28.35 -4.35 26.5 -4.85" fill="#9f5e4c" fill-rule="evenodd" stroke="none"/>
      <path d="M-21.9 -4.1 Q-20.85 -5.3 -20.15 -5.1 -19.45 -4.9 -20.65 -2.35 -21.85 0.15 -18.85 0.45 -15.85 0.75 -16.8 1.9 -17.75 3.0 -19.3 3.05 -20.9 3.05 -22.15 2.05 -23.45 1.0 -23.2 -0.9 -23.0 -2.85 -21.9 -4.1 M-14.65 20.65 Q-15.3 19.35 -14.7 18.35 -14.1 17.3 -12.65 17.2 -11.15 17.1 -10.45 18.5 -9.75 19.85 -8.3 20.7 -6.85 21.5 -7.45 22.5 -8.1 23.5 -9.55 23.6 -11.05 23.7 -12.5 22.85 -14.0 22.0 -14.65 20.65 M17.15 -21.8 L19.3 -20.8 Q20.7 -19.85 21.4 -18.65 L21.75 -17.8 21.75 -17.75 Q21.85 -17.2 21.6 -16.8 L20.9 -16.25 Q20.45 -16.15 20.1 -16.75 L18.7 -18.65 Q17.65 -19.85 16.05 -20.1 14.45 -20.4 14.6 -21.0 L14.75 -21.4 Q15.2 -22.15 16.55 -21.9 L17.15 -21.8 M25.3 -1.75 Q25.35 -2.9 26.5 -2.6 27.65 -2.3 28.1 -0.9 28.6 0.5 28.15 2.15 27.7 3.8 26.6 4.75 25.5 5.75 24.35 5.45 23.2 5.15 24.7 4.0 26.2 2.85 25.7 1.1 25.2 -0.65 25.3 -1.75" fill="#6d893f" fill-rule="evenodd" stroke="none"/>
      <path d="M7.85 -22.75 Q6.1 -22.55 5.35 -21.4 L5.25 -21.3 Q4.2 -19.55 5.75 -16.75 7.35 -13.9 10.8 -11.6 14.2 -9.3 17.45 -8.85 19.7 -8.6 20.95 -9.35 L21.05 -9.4 21.85 -10.2 22.0 -10.5 22.35 -11.9 21.75 -11.4 Q20.65 -10.75 18.65 -11.0 15.8 -11.4 12.75 -13.45 9.7 -15.5 8.25 -18.0 6.9 -20.4 7.7 -21.85 L7.8 -22.05 Q8.1 -22.5 8.55 -22.75 L7.85 -22.75 7.6 -22.8 Q3.85 -23.25 2.55 -21.15 1.15 -19.15 3.0 -15.8 4.8 -12.5 8.7 -9.85 12.65 -7.2 16.35 -6.75 20.05 -6.35 21.4 -8.4 22.0 -9.35 22.0 -10.5 M-21.9 -4.1 Q-23.0 -2.85 -23.2 -0.9 -23.45 1.0 -22.15 2.05 -20.9 3.05 -19.3 3.05 -17.75 3.0 -16.8 1.9 -15.85 0.75 -18.85 0.45 -21.85 0.15 -20.65 -2.35 -19.45 -4.9 -20.15 -5.1 -20.85 -5.3 -21.9 -4.1 M-25.25 2.2 L-25.4 0.25 Q-25.4 -3.9 -22.7 -6.85 L-22.05 -7.5 -22.7 -6.9 -23.15 -6.45 Q-25.5 -3.85 -25.5 -0.15 L-25.25 2.2 Q-24.7 4.4 -23.15 6.15 -20.85 8.75 -17.6 8.75 -14.35 8.75 -12.0 6.15 -9.7 3.55 -12.75 0.85 -15.8 -1.9 -15.9 -5.2 -16.05 -8.5 -18.05 -8.75 -20.1 -9.05 -22.05 -7.5 -19.6 -9.75 -16.9 -9.7 -14.2 -9.65 -13.75 -6.55 -13.35 -3.5 -10.2 0.45 -7.1 4.4 -9.75 7.3 -12.45 10.25 -16.25 10.25 -20.05 10.25 -22.7 7.3 -24.75 5.1 -25.25 2.2 M-19.85 -6.9 Q-21.05 -7.5 -22.85 -5.5 -24.65 -3.45 -24.65 -0.55 -24.65 2.35 -22.85 4.35 -21.05 6.4 -18.5 6.4 -15.95 6.4 -14.15 4.35 -12.35 2.35 -15.45 0.85 -18.6 -0.65 -18.65 -3.45 -18.7 -6.3 -19.85 -6.9 M-8.75 9.95 L-7.7 8.9 Q-4.6 5.55 -7.55 0.8 -10.5 -3.95 -11.2 -7.3 -11.95 -10.65 -15.85 -10.65 -19.75 -10.65 -22.85 -7.3 -26.0 -3.95 -26.0 0.8 -26.0 5.55 -22.85 8.9 -20.4 11.55 -17.15 12.1 L-16.3 11.25 -16.2 11.25 -15.25 11.2 Q-12.7 11.0 -10.6 9.65 L-8.75 9.95 Q-6.65 10.55 -4.85 12.4 L0.8 18.55 Q3.55 21.65 1.95 24.55 0.35 27.4 -3.75 27.8 -7.85 28.2 -11.95 25.85 -16.1 23.45 -17.75 19.7 -19.5 15.95 -17.8 13.05 L-17.15 12.1 M-10.5 26.05 Q-7.75 27.15 -5.05 26.9 -1.5 26.6 -0.55 24.25 0.35 21.85 -2.5 18.95 -5.4 16.05 -7.1 13.5 -8.4 11.55 -10.85 11.3 L-12.35 11.25 Q-14.3 11.45 -15.6 12.25 -16.7 12.95 -17.35 14.1 -18.65 16.3 -17.65 19.05 -18.25 17.0 -17.3 15.35 -16.05 13.2 -12.9 12.95 -9.8 12.7 -8.4 15.3 -7.05 17.9 -4.65 20.35 -2.25 22.75 -2.7 24.6 -3.1 26.4 -6.25 26.6 -8.35 26.8 -10.5 26.05 L-12.6 25.05 Q-15.8 23.15 -17.15 20.3 L-17.4 19.8 -17.65 19.05 -17.3 19.85 Q-15.8 23.1 -12.2 25.15 L-10.5 26.05 M-16.2 20.6 Q-15.15 22.8 -12.6 24.25 -10.1 25.7 -7.7 25.55 -5.25 25.35 -4.9 24.0 -4.55 22.6 -7.2 21.0 -9.8 19.4 -10.1 17.05 -10.45 14.65 -12.9 14.85 -15.3 15.0 -16.3 16.7 -17.25 18.4 -16.2 20.6 M-14.65 20.65 Q-14.0 22.0 -12.5 22.85 -11.05 23.7 -9.55 23.6 -8.1 23.5 -7.45 22.5 -6.85 21.5 -8.3 20.7 -9.75 19.85 -10.45 18.5 -11.15 17.1 -12.65 17.2 -14.1 17.3 -14.7 18.35 -15.3 19.35 -14.65 20.65 M29.0 5.85 L29.75 3.65 Q30.7 0.05 29.65 -2.9 L29.45 -3.45 29.1 -4.15 29.4 -3.35 Q30.65 0.0 29.6 4.0 L29.0 5.85 Q27.85 8.55 25.75 10.3 23.05 12.6 20.5 11.9 17.95 11.15 18.35 8.0 18.75 4.85 17.95 0.6 17.15 -3.65 19.85 -5.95 22.6 -8.2 25.4 -7.45 27.85 -6.8 29.1 -4.15 28.05 -6.05 26.25 -6.55 23.8 -7.2 22.6 -4.55 21.35 -1.9 21.35 1.5 21.3 4.9 20.25 7.45 19.2 10.0 21.6 10.65 24.0 11.3 26.4 9.25 28.0 7.85 29.0 5.85 M21.75 -17.75 L21.75 -17.8 21.4 -18.65 Q20.7 -19.85 19.3 -20.8 L17.15 -21.8 16.55 -21.9 Q15.2 -22.15 14.75 -21.4 L14.6 -21.0 Q14.45 -20.4 16.05 -20.1 17.65 -19.85 18.7 -18.65 L20.1 -16.75 Q20.45 -16.15 20.9 -16.25 L21.6 -16.8 Q21.85 -17.2 21.75 -17.75 L22.0 -17.4 Q22.6 -16.4 22.65 -15.55 L22.65 -15.5 22.6 -14.95 Q23.15 -13.5 22.7 -12.45 L22.5 -12.15 22.35 -11.9 M17.15 -21.8 L14.95 -22.7 13.9 -22.9 13.2 -22.95 12.75 -22.95 Q11.4 -22.9 10.85 -22.0 L10.7 -21.8 Q10.2 -20.65 11.25 -18.9 12.35 -16.95 14.75 -15.35 17.1 -13.75 19.35 -13.4 L21.6 -13.65 22.35 -14.3 22.6 -14.95 M12.75 -22.95 L11.65 -23.15 10.55 -23.25 Q9.3 -23.25 8.6 -22.75 L8.55 -22.75 M26.5 -4.85 Q28.35 -4.35 29.2 -2.05 29.95 0.3 29.25 3.1 28.45 5.9 26.65 7.45 24.75 9.1 22.9 8.6 21.0 8.05 21.9 6.2 L23.55 1.5 Q24.3 -1.35 24.45 -3.35 24.6 -5.4 26.5 -4.85 M24.95 -8.5 Q28.25 -7.65 29.65 -3.8 31.1 0.05 29.9 4.65 28.65 9.25 25.45 11.85 22.3 14.45 19.05 13.6 15.7 12.7 14.25 8.85 12.85 5.0 14.1 0.4 15.25 -4.0 18.2 -6.55 20.6 -7.1 22.55 -8.7 L24.95 -8.5 M25.3 -1.75 Q25.35 -2.9 26.5 -2.6 27.65 -2.3 28.1 -0.9 28.6 0.5 28.15 2.15 27.7 3.8 26.6 4.75 25.5 5.75 24.35 5.45 23.2 5.15 24.7 4.0 26.2 2.85 25.7 1.1 25.2 -0.65 25.3 -1.75" fill="none" stroke="#ffffff" stroke-linecap="round" stroke-linejoin="round" stroke-opacity="0.0" stroke-width="0.05"/>
      <path d="M-14.05 -16.3 Q-7.05 -23.3 2.85 -23.3 12.75 -23.3 19.75 -16.3 26.75 -9.3 26.75 0.6 26.75 10.5 19.75 17.5 12.75 24.5 2.85 24.5 -7.05 24.5 -14.05 17.5 -21.05 10.5 -21.05 0.6 -21.05 -9.3 -14.05 -16.3" fill="#436478" fill-rule="evenodd" stroke="none"/>
      <path d="M-18.5 -9.25 Q-17.3 -8.5 -15.0 -8.75 -11.8 -9.2 -8.35 -11.5 -4.95 -13.8 -3.35 -16.65 -1.8 -19.45 -2.85 -21.2 L-2.9 -21.3 Q-3.7 -22.45 -5.4 -22.65 L-5.15 -22.7 Q-1.45 -23.15 -0.1 -21.05 1.25 -19.05 -0.55 -15.7 -2.4 -12.4 -6.3 -9.75 -10.25 -7.1 -13.95 -6.65 -17.65 -6.25 -19.0 -8.3 -19.6 -9.25 -19.55 -10.4 L-19.4 -10.1 -18.6 -9.3 -18.55 -9.2 -18.5 -9.25 M17.35 -13.5 Q14.9 -15.75 11.55 -15.75 7.75 -15.75 5.05 -12.85 2.4 -9.9 2.4 -5.75 2.4 -1.6 5.05 1.3 7.75 4.25 11.55 4.25 15.35 4.25 18.0 1.3 20.05 -0.9 20.55 -3.8 L20.8 -6.15 Q20.8 -9.85 18.45 -12.45 L18.05 -12.9 17.35 -13.5 18.05 -12.9 18.45 -12.45 Q20.8 -9.85 20.8 -6.15 L20.55 -3.8 20.7 -5.75 Q20.7 -9.9 18.0 -12.85 L17.35 -13.5 M3.0 -13.3 Q6.15 -16.65 10.6 -16.65 15.05 -16.65 18.15 -13.3 21.3 -9.95 21.3 -5.2 21.3 -0.45 18.15 2.9 15.05 6.25 10.6 6.25 6.15 6.25 3.0 2.9 -0.1 -0.45 -0.1 -5.2 -0.1 -9.95 3.0 -13.3 M-21.0 7.65 L-21.15 9.55 Q-21.15 13.7 -18.45 16.65 L-17.8 17.3 -18.45 16.7 -18.9 16.25 Q-21.25 13.65 -21.25 9.95 L-21.0 7.65 -21.25 9.95 Q-21.25 13.65 -18.9 16.25 L-18.45 16.7 -17.8 17.3 Q-15.35 19.55 -12.0 19.55 -8.2 19.55 -5.5 16.65 -2.85 13.7 -2.85 9.55 -2.85 5.4 -5.5 2.5 -8.2 -0.45 -12.0 -0.45 -15.8 -0.45 -18.45 2.5 -20.5 4.7 -21.0 7.65 M-18.6 0.9 Q-15.5 -2.45 -11.05 -2.45 -6.6 -2.45 -3.45 0.9 -0.35 4.25 -0.35 9.0 -0.35 13.75 -3.45 17.1 -6.6 20.45 -11.05 20.45 -15.5 20.45 -18.6 17.1 -21.75 13.75 -21.75 9.0 -21.75 4.25 -18.6 0.9 M2.35 18.75 Q4.1 15.0 8.2 12.65 12.3 10.25 16.4 10.65 20.5 11.05 22.2 14.05 23.9 16.95 22.2 20.7 20.5 24.45 16.4 26.85 12.25 29.2 8.15 28.8 4.05 28.4 2.4 25.5 0.65 22.5 2.35 18.75 M22.05 20.05 Q23.05 17.3 21.8 15.1 20.3 12.6 16.8 12.25 13.2 11.95 9.65 14.05 6.05 16.1 4.55 19.35 3.0 22.6 4.45 25.1 5.9 27.6 9.5 27.9 12.15 28.15 14.9 27.05 L17.0 26.05 Q20.2 24.15 21.55 21.3 L21.8 20.8 22.05 20.05 21.8 20.8 21.55 21.3 Q20.2 24.15 17.0 26.05 L14.9 27.05 16.65 26.15 Q20.2 24.1 21.75 20.85 L22.05 20.05" fill="#547d99" fill-rule="evenodd" stroke="none"/>
      <path d="M-5.4 -22.65 Q-3.7 -22.45 -2.9 -21.3 L-2.85 -21.2 Q-1.8 -19.45 -3.35 -16.65 -4.95 -13.8 -8.35 -11.5 -11.8 -9.2 -15.0 -8.75 -17.3 -8.5 -18.5 -9.25 L-18.6 -9.3 -19.4 -10.1 -19.55 -10.4 Q-19.9 -11.05 -19.9 -11.8 L-19.3 -11.3 Q-18.25 -10.65 -16.2 -10.9 -13.4 -11.3 -10.35 -13.35 -7.3 -15.4 -5.85 -17.9 -4.5 -20.3 -5.25 -21.75 L-5.35 -21.95 -6.15 -22.65 -5.4 -22.65 M20.55 -3.8 Q20.05 -0.9 18.0 1.3 15.35 4.25 11.55 4.25 7.75 4.25 5.05 1.3 2.4 -1.6 2.4 -5.75 2.4 -9.9 5.05 -12.85 7.75 -15.75 11.55 -15.75 14.9 -15.75 17.35 -13.5 15.4 -15.05 12.9 -15.05 9.65 -15.05 7.3 -12.45 5.0 -9.85 5.0 -6.15 5.0 -2.45 7.3 0.15 9.65 2.75 12.9 2.75 16.15 2.75 18.45 0.15 20.0 -1.6 20.55 -3.8 M-17.8 17.3 Q-15.85 18.85 -13.35 18.85 -10.1 18.85 -7.75 16.25 -5.45 13.65 -5.45 9.95 -5.45 6.25 -7.75 3.65 -10.1 1.05 -13.35 1.05 -16.6 1.05 -18.9 3.65 -20.45 5.4 -21.0 7.65 -20.5 4.7 -18.45 2.5 -15.8 -0.45 -12.0 -0.45 -8.2 -0.45 -5.5 2.5 -2.85 5.4 -2.85 9.55 -2.85 13.7 -5.5 16.65 -8.2 19.55 -12.0 19.55 -15.35 19.55 -17.8 17.3 M14.9 27.05 Q12.15 28.15 9.5 27.9 5.9 27.6 4.45 25.1 3.0 22.6 4.55 19.35 6.05 16.1 9.65 14.05 13.2 11.95 16.8 12.25 20.3 12.6 21.8 15.1 23.05 17.3 22.05 20.05 22.65 18.0 21.7 16.35 20.45 14.2 17.3 13.95 14.15 13.7 11.0 15.55 7.75 17.4 6.4 20.25 5.05 23.1 6.3 25.25 7.5 27.4 10.65 27.6 12.75 27.8 14.9 27.05" fill="#a6953b" fill-rule="evenodd" stroke="none"/>
      <path d="M-6.15 -22.65 L-5.35 -21.95 -5.25 -21.75 Q-4.5 -20.3 -5.85 -17.9 -7.3 -15.4 -10.35 -13.35 -13.4 -11.3 -16.2 -10.9 -18.25 -10.65 -19.3 -11.3 L-19.9 -11.8 -20.05 -12.05 -20.25 -12.35 Q-20.75 -13.4 -20.2 -14.85 L-19.9 -14.2 -19.2 -13.55 -16.95 -13.3 Q-14.7 -13.65 -12.3 -15.25 -9.95 -16.85 -8.8 -18.8 -7.8 -20.55 -8.3 -21.7 L-8.45 -21.9 Q-9.0 -22.8 -10.3 -22.85 L-9.2 -23.05 -8.1 -23.15 Q-6.9 -23.15 -6.15 -22.65 M17.35 -13.5 L18.0 -12.85 Q20.7 -9.9 20.7 -5.75 L20.55 -3.8 Q20.0 -1.6 18.45 0.15 16.15 2.75 12.9 2.75 9.65 2.75 7.3 0.15 5.0 -2.45 5.0 -6.15 5.0 -9.85 7.3 -12.45 9.65 -15.05 12.9 -15.05 15.4 -15.05 17.35 -13.5 M-17.8 17.3 L-18.45 16.65 Q-21.15 13.7 -21.15 9.55 L-21.0 7.65 Q-20.45 5.4 -18.9 3.65 -16.6 1.05 -13.35 1.05 -10.1 1.05 -7.75 3.65 -5.45 6.25 -5.45 9.95 -5.45 13.65 -7.75 16.25 -10.1 18.85 -13.35 18.85 -15.85 18.85 -17.8 17.3 M-14.25 3.4 Q-16.8 3.4 -18.6 5.45 -20.4 7.45 -20.4 10.35 -20.4 13.25 -18.6 15.3 -16.8 17.3 -14.25 17.3 -11.7 17.3 -9.9 15.3 -8.1 13.25 -8.1 10.35 -8.1 7.45 -9.9 5.45 -11.7 3.4 -14.25 3.4 M14.9 27.05 Q12.75 27.8 10.65 27.6 7.5 27.4 6.3 25.25 5.05 23.1 6.4 20.25 7.75 17.4 11.0 15.55 14.15 13.7 17.3 13.95 20.45 14.2 21.7 16.35 22.65 18.0 22.05 20.05 L21.75 20.85 Q20.2 24.1 16.65 26.15 L14.9 27.05 M9.45 -11.5 Q7.65 -9.45 7.65 -6.55 7.65 -3.65 9.45 -1.65 11.25 0.4 13.8 0.4 16.35 0.4 18.15 -1.65 19.95 -3.65 19.95 -6.55 19.95 -9.45 18.15 -11.5 16.35 -13.5 13.8 -13.5 11.25 -13.5 9.45 -11.5 M12.35 17.1 Q9.8 18.55 8.8 20.75 7.7 22.95 8.65 24.65 9.65 26.35 12.1 26.55 14.5 26.7 17.05 25.25 19.55 23.8 20.65 21.6 21.65 19.4 20.7 17.7 19.7 16.0 17.3 15.85 14.85 15.65 12.35 17.1" fill="#9f5e4c" fill-rule="evenodd" stroke="none"/>
      <path d="M-10.3 -22.85 Q-9.0 -22.8 -8.45 -21.9 L-8.3 -21.7 Q-7.8 -20.55 -8.8 -18.8 -9.95 -16.85 -12.3 -15.25 -14.7 -13.65 -16.95 -13.3 L-19.2 -13.55 -19.9 -14.2 -20.2 -14.85 -20.2 -15.4 -20.2 -15.45 Q-20.2 -16.3 -19.55 -17.3 L-19.35 -17.65 Q-19.45 -17.1 -19.15 -16.7 -18.95 -16.35 -18.5 -16.15 L-17.35 -16.1 Q-16.05 -16.35 -14.65 -17.3 -13.25 -18.25 -12.55 -19.35 -12.05 -20.3 -12.2 -20.9 L-12.35 -21.3 Q-12.8 -22.05 -14.15 -21.8 L-14.75 -21.7 -12.5 -22.6 -11.45 -22.8 -10.75 -22.85 -10.3 -22.85 M-14.25 3.4 Q-11.7 3.4 -9.9 5.45 -8.1 7.45 -8.1 10.35 -8.1 13.25 -9.9 15.3 -11.7 17.3 -14.25 17.3 -16.8 17.3 -18.6 15.3 -20.4 13.25 -20.4 10.35 -20.4 7.45 -18.6 5.45 -16.8 3.4 -14.25 3.4 M-15.05 6.8 Q-16.6 6.8 -17.65 8.05 -18.75 9.25 -18.75 10.95 -18.75 12.65 -17.65 13.9 -16.6 15.1 -15.05 15.1 -13.5 15.1 -12.4 13.9 -11.35 12.65 -11.35 10.95 -11.35 9.25 -12.4 8.05 -13.5 6.8 -15.05 6.8 M9.45 -11.5 Q11.25 -13.5 13.8 -13.5 16.35 -13.5 18.15 -11.5 19.95 -9.45 19.95 -6.55 19.95 -3.65 18.15 -1.65 16.35 0.4 13.8 0.4 11.25 0.4 9.45 -1.65 7.65 -3.65 7.65 -6.55 7.65 -9.45 9.45 -11.5 M17.05 18.2 Q15.55 18.1 14.1 18.95 12.6 19.8 12.0 21.1 11.3 22.45 11.9 23.5 12.5 24.5 14.0 24.6 15.45 24.7 16.95 23.85 18.4 23.0 19.05 21.65 19.7 20.35 19.1 19.35 18.5 18.3 17.05 18.2 M11.95 -4.25 Q13.05 -3.0 14.6 -3.0 16.15 -3.0 17.2 -4.25 18.3 -5.45 18.3 -7.15 18.3 -8.85 17.2 -10.1 16.15 -11.3 14.6 -11.3 13.05 -11.3 11.95 -10.1 10.9 -8.85 10.9 -7.15 10.9 -5.45 11.95 -4.25 M12.35 17.1 Q14.85 15.65 17.3 15.85 19.7 16.0 20.7 17.7 21.65 19.4 20.65 21.6 19.55 23.8 17.05 25.25 14.5 26.7 12.1 26.55 9.65 26.35 8.65 24.65 7.7 22.95 8.8 20.75 9.8 18.55 12.35 17.1" fill="#bbcfb6" fill-rule="evenodd" stroke="none"/>
      <path d="M-14.75 -21.7 L-14.15 -21.8 Q-12.8 -22.05 -12.35 -21.3 L-12.2 -20.9 Q-12.05 -20.3 -12.55 -19.35 -13.25 -18.25 -14.65 -17.3 -16.05 -16.35 -17.35 -16.1 L-18.5 -16.15 Q-18.95 -16.35 -19.15 -16.7 -19.45 -17.1 -19.35 -17.65 L-19.3 -17.7 -19.0 -18.55 Q-18.3 -19.75 -16.85 -20.7 -15.8 -21.45 -14.75 -21.7 M-15.05 6.8 Q-13.5 6.8 -12.4 8.05 -11.35 9.25 -11.35 10.95 -11.35 12.65 -12.4 13.9 -13.5 15.1 -15.05 15.1 -16.6 15.1 -17.65 13.9 -18.75 12.65 -18.75 10.95 -18.75 9.25 -17.65 8.05 -16.6 6.8 -15.05 6.8 M11.95 -4.25 Q10.9 -5.45 10.9 -7.15 10.9 -8.85 11.95 -10.1 13.05 -11.3 14.6 -11.3 16.15 -11.3 17.2 -10.1 18.3 -8.85 18.3 -7.15 18.3 -5.45 17.2 -4.25 16.15 -3.0 14.6 -3.0 13.05 -3.0 11.95 -4.25 M17.05 18.2 Q18.5 18.3 19.1 19.35 19.7 20.35 19.05 21.65 18.4 23.0 16.95 23.85 15.45 24.7 14.0 24.6 12.5 24.5 11.9 23.5 11.3 22.45 12.0 21.1 12.6 19.8 14.1 18.95 15.55 18.1 17.05 18.2" fill="#6d893f" fill-rule="evenodd" stroke="none"/>
      <path d="M-5.4 -22.65 Q-3.7 -22.45 -2.9 -21.3 L-2.85 -21.2 Q-1.8 -19.45 -3.35 -16.65 -4.95 -13.8 -8.35 -11.5 -11.8 -9.2 -15.0 -8.75 -17.3 -8.5 -18.5 -9.25 L-18.6 -9.3 -19.4 -10.1 -19.55 -10.4 Q-19.6 -9.25 -19.0 -8.3 -17.65 -6.25 -13.95 -6.65 -10.25 -7.1 -6.3 -9.75 -2.4 -12.4 -0.55 -15.7 1.25 -19.05 -0.1 -21.05 -1.45 -23.15 -5.15 -22.7 L-5.4 -22.65 -6.15 -22.65 -5.35 -21.95 -5.25 -21.75 Q-4.5 -20.3 -5.85 -17.9 -7.3 -15.4 -10.35 -13.35 -13.4 -11.3 -16.2 -10.9 -18.25 -10.65 -19.3 -11.3 L-19.9 -11.8 Q-19.9 -11.05 -19.55 -10.4 M-10.3 -22.85 L-9.2 -23.05 -8.1 -23.15 Q-6.9 -23.15 -6.15 -22.65 M-20.2 -14.85 L-19.9 -14.2 -19.2 -13.55 -16.95 -13.3 Q-14.7 -13.65 -12.3 -15.25 -9.95 -16.85 -8.8 -18.8 -7.8 -20.55 -8.3 -21.7 L-8.45 -21.9 Q-9.0 -22.8 -10.3 -22.85 L-10.75 -22.85 -11.45 -22.8 -12.5 -22.6 -14.75 -21.7 -14.15 -21.8 Q-12.8 -22.05 -12.35 -21.3 L-12.2 -20.9 Q-12.05 -20.3 -12.55 -19.35 -13.25 -18.25 -14.65 -17.3 -16.05 -16.35 -17.35 -16.1 L-18.5 -16.15 Q-18.95 -16.35 -19.15 -16.7 -19.45 -17.1 -19.35 -17.65 L-19.55 -17.3 Q-20.2 -16.3 -20.2 -15.45 L-20.2 -15.4 -20.2 -14.85 Q-20.75 -13.4 -20.25 -12.35 L-20.05 -12.05 -19.9 -11.8 M20.55 -3.8 Q20.05 -0.9 18.0 1.3 15.35 4.25 11.55 4.25 7.75 4.25 5.05 1.3 2.4 -1.6 2.4 -5.75 2.4 -9.9 5.05 -12.85 7.75 -15.75 11.55 -15.75 14.9 -15.75 17.35 -13.5 L18.05 -12.9 18.45 -12.45 Q20.8 -9.85 20.8 -6.15 L20.55 -3.8 20.7 -5.75 Q20.7 -9.9 18.0 -12.85 L17.35 -13.5 Q15.4 -15.05 12.9 -15.05 9.65 -15.05 7.3 -12.45 5.0 -9.85 5.0 -6.15 5.0 -2.45 7.3 0.15 9.65 2.75 12.9 2.75 16.15 2.75 18.45 0.15 20.0 -1.6 20.55 -3.8 M3.0 -13.3 Q6.15 -16.65 10.6 -16.65 15.05 -16.65 18.15 -13.3 21.3 -9.95 21.3 -5.2 21.3 -0.45 18.15 2.9 15.05 6.25 10.6 6.25 6.15 6.25 3.0 2.9 -0.1 -0.45 -0.1 -5.2 -0.1 -9.95 3.0 -13.3 M-19.35 -17.65 L-19.3 -17.7 -19.0 -18.55 Q-18.3 -19.75 -16.85 -20.7 -15.8 -21.45 -14.75 -21.7 M-17.8 17.3 L-18.45 16.65 Q-21.15 13.7 -21.15 9.55 L-21.0 7.65 -21.25 9.95 Q-21.25 13.65 -18.9 16.25 L-18.45 16.7 -17.8 17.3 Q-15.85 18.85 -13.35 18.85 -10.1 18.85 -7.75 16.25 -5.45 13.65 -5.45 9.95 -5.45 6.25 -7.75 3.65 -10.1 1.05 -13.35 1.05 -16.6 1.05 -18.9 3.65 -20.45 5.4 -21.0 7.65 -20.5 4.7 -18.45 2.5 -15.8 -0.45 -12.0 -0.45 -8.2 -0.45 -5.5 2.5 -2.85 5.4 -2.85 9.55 -2.85 13.7 -5.5 16.65 -8.2 19.55 -12.0 19.55 -15.35 19.55 -17.8 17.3 M-14.25 3.4 Q-11.7 3.4 -9.9 5.45 -8.1 7.45 -8.1 10.35 -8.1 13.25 -9.9 15.3 -11.7 17.3 -14.25 17.3 -16.8 17.3 -18.6 15.3 -20.4 13.25 -20.4 10.35 -20.4 7.45 -18.6 5.45 -16.8 3.4 -14.25 3.4 M-15.05 6.8 Q-13.5 6.8 -12.4 8.05 -11.35 9.25 -11.35 10.95 -11.35 12.65 -12.4 13.9 -13.5 15.1 -15.05 15.1 -16.6 15.1 -17.65 13.9 -18.75 12.65 -18.75 10.95 -18.75 9.25 -17.65 8.05 -16.6 6.8 -15.05 6.8 M-18.6 0.9 Q-15.5 -2.45 -11.05 -2.45 -6.6 -2.45 -3.45 0.9 -0.35 4.25 -0.35 9.0 -0.35 13.75 -3.45 17.1 -6.6 20.45 -11.05 20.45 -15.5 20.45 -18.6 17.1 -21.75 13.75 -21.75 9.0 -21.75 4.25 -18.6 0.9 M2.35 18.75 Q4.1 15.0 8.2 12.65 12.3 10.25 16.4 10.65 20.5 11.05 22.2 14.05 23.9 16.95 22.2 20.7 20.5 24.45 16.4 26.85 12.25 29.2 8.15 28.8 4.05 28.4 2.4 25.5 0.65 22.5 2.35 18.75 M22.05 20.05 Q23.05 17.3 21.8 15.1 20.3 12.6 16.8 12.25 13.2 11.95 9.65 14.05 6.05 16.1 4.55 19.35 3.0 22.6 4.45 25.1 5.9 27.6 9.5 27.9 12.15 28.15 14.9 27.05 12.75 27.8 10.65 27.6 7.5 27.4 6.3 25.25 5.05 23.1 6.4 20.25 7.75 17.4 11.0 15.55 14.15 13.7 17.3 13.95 20.45 14.2 21.7 16.35 22.65 18.0 22.05 20.05 L21.8 20.8 21.55 21.3 Q20.2 24.15 17.0 26.05 L14.9 27.05 16.65 26.15 Q20.2 24.1 21.75 20.85 L22.05 20.05 M9.45 -11.5 Q11.25 -13.5 13.8 -13.5 16.35 -13.5 18.15 -11.5 19.95 -9.45 19.95 -6.55 19.95 -3.65 18.15 -1.65 16.35 0.4 13.8 0.4 11.25 0.4 9.45 -1.65 7.65 -3.65 7.65 -6.55 7.65 -9.45 9.45 -11.5 M11.95 -4.25 Q10.9 -5.45 10.9 -7.15 10.9 -8.85 11.95 -10.1 13.05 -11.3 14.6 -11.3 16.15 -11.3 17.2 -10.1 18.3 -8.85 18.3 -7.15 18.3 -5.45 17.2 -4.25 16.15 -3.0 14.6 -3.0 13.05 -3.0 11.95 -4.25 M17.05 18.2 Q18.5 18.3 19.1 19.35 19.7 20.35 19.05 21.65 18.4 23.0 16.95 23.85 15.45 24.7 14.0 24.6 12.5 24.5 11.9 23.5 11.3 22.45 12.0 21.1 12.6 19.8 14.1 18.95 15.55 18.1 17.05 18.2 M12.35 17.1 Q14.85 15.65 17.3 15.85 19.7 16.0 20.7 17.7 21.65 19.4 20.65 21.6 19.55 23.8 17.05 25.25 14.5 26.7 12.1 26.55 9.65 26.35 8.65 24.65 7.7 22.95 8.8 20.75 9.8 18.55 12.35 17.1" fill="none" stroke="#ffffff" stroke-linecap="round" stroke-linejoin="round" stroke-opacity="0.0" stroke-width="0.05"/>
    </g>
  </defs>
</svg>
