<?xml version="1.0" encoding="UTF-8" standalone="no"?>
<svg xmlns:xlink="http://www.w3.org/1999/xlink" height="720.75px" width="1716.8px" xmlns="http://www.w3.org/2000/svg">
  <g transform="matrix(1, 0, 0, 1, 307.05, 450.35)">
    <use height="329.25" transform="matrix(1.0, 0.0, 0.0, 1.0, -94.65, -164.6)" width="189.3" xlink:href="#sprite0"/>
  </g>
  <defs>
    <g id="sprite0" transform="matrix(1, 0, 0, 1, 53.95, 186.5)">
      <use height="329.25" transform="matrix(1.0, 0.0, 0.0, 1.0, -53.95, -186.5)" width="189.3" xlink:href="#shape0"/>
    </g>
    <g id="shape0" transform="matrix(1, 0, 0, 1, 53.95, 186.5)">
      <path d="M16.35 116.4 L20.2 131.0 6.75 137.5 Q-5.8 145.3 -8.8 134.5 -35.25 137.15 -51.95 126.5 L-51.95 108.0 -25.8 95.5 -25.8 -114.5 Q-31.15 -115.35 -36.15 -123.5 L-30.8 -128.5 Q-26.55 -153.85 -37.35 -184.5 L-0.85 -184.5 -2.0 -177.5 Q-11.1 -157.7 -8.7 -137.9 L-10.25 -128.5 -3.9 -123.5 -10.6 -116.5 -10.6 65.5 -10.6 100.0 1.85 116.85 16.35 116.4 M-10.25 -128.5 L-30.8 -128.5 -10.25 -128.5 M-37.25 112.3 L-31.3 114.0 Q-15.6 116.8 1.85 116.85 -15.6 116.8 -31.3 114.0 L-37.25 112.3 -51.95 108.0 -37.25 112.3 -25.8 100.0 -25.8 95.5 -25.8 100.0 -37.25 112.3" fill="#f7c500" fill-rule="evenodd" stroke="none"/>
      <path d="M-2.0 -177.5 Q43.5 -178.15 56.6 -127.95 69.8 -77.05 99.15 -101.25 106.25 -107.1 113.4 -109.2 120.0 -111.2 125.2 -109.5 130.2 -107.85 132.25 -103.1 134.35 -98.1 132.35 -91.0 L16.2 115.9 16.35 116.4 1.85 116.85 -10.6 100.0 -10.6 65.5 Q54.55 -13.75 116.05 -88.0 122.35 -95.75 116.05 -94.95 L108.85 -88.3 Q97.15 -77.25 89.6 -74.8 63.8 -66.6 40.2 -102.0 23.8 -126.65 17.2 -132.7 6.55 -142.35 -8.7 -137.9 -11.1 -157.7 -2.0 -177.5" fill="#fbcd15" fill-rule="evenodd" stroke="none"/>
      <path d="M-8.7 -137.9 Q6.55 -142.35 17.2 -132.7 23.8 -126.65 40.2 -102.0 63.8 -66.6 89.6 -74.8 97.15 -77.25 108.85 -88.3 L116.05 -94.95 Q122.35 -95.75 116.05 -88.0 54.55 -13.75 -10.6 65.5 L-10.6 -116.5 -3.9 -123.5 -10.25 -128.5 -8.7 -137.9" fill="#fbcd15" fill-opacity="0.0" fill-rule="evenodd" stroke="none"/>
      <path d="M-2.0 -177.5 Q43.5 -178.15 56.6 -127.95 69.8 -77.05 99.15 -101.25 106.25 -107.1 113.4 -109.2 120.0 -111.2 125.2 -109.5 130.2 -107.85 132.25 -103.1 134.35 -98.1 132.35 -91.0 L16.2 115.9 Q17.25 116.2 16.35 116.4 L20.2 131.0 6.75 137.5 Q-5.8 145.3 -8.8 134.5 -35.25 137.15 -51.95 126.5 L-51.95 108.0 -25.8 95.5 -25.8 -114.5 Q-31.15 -115.35 -36.15 -123.5 L-30.8 -128.5 Q-26.55 -153.85 -37.35 -184.5 L-0.85 -184.5 -2.0 -177.5 Q-11.1 -157.7 -8.7 -137.9 6.55 -142.35 17.2 -132.7 23.8 -126.65 40.2 -102.0 63.8 -66.6 89.6 -74.8 97.15 -77.25 108.85 -88.3 L116.05 -94.95 Q122.35 -95.75 116.05 -88.0 54.55 -13.75 -10.6 65.5 L-10.6 100.0 1.85 116.85 16.35 116.4 16.2 115.9 M-30.8 -128.5 L-10.25 -128.5 -8.7 -137.9 M-10.25 -128.5 L-3.9 -123.5 -10.6 -116.5 -10.6 65.5 M-51.95 108.0 L-37.25 112.3 -25.8 100.0 -25.8 95.5 M1.85 116.85 Q-15.6 116.8 -31.3 114.0 L-37.25 112.3" fill="none" stroke="#000000" stroke-linecap="round" stroke-linejoin="round" stroke-width="4.0"/>
      <path d="M29.55 -171.5 L29.55 -169.7 32.6 -167.65 35.65 -165.25 38.65 -162.4 41.7 -159.05 44.75 -155.1 47.8 -150.3 50.85 -144.35 53.9 -136.85 56.6 -127.95 56.9 -126.65 Q58.35 -121.35 59.95 -116.9 61.4 -112.9 63.0 -109.55 64.45 -106.5 66.05 -104.05 67.5 -101.75 69.1 -99.95 70.55 -98.3 72.15 -97.05 L75.15 -95.05 Q76.65 -94.3 78.2 -93.9 L81.25 -93.45 84.3 -93.6 87.35 -94.3 90.4 -95.5 Q91.85 -96.2 93.4 -97.15 L96.45 -99.15 99.15 -101.25 99.5 -101.55 102.55 -103.85 105.6 -105.8 108.65 -107.4 111.65 -108.65 113.4 -109.2 114.7 -109.55 117.75 -110.15 120.8 -110.25 120.8 -90.25 117.75 -85.65 114.7 -81.1 111.65 -76.5 108.65 -71.95 105.6 -67.35 102.55 -62.8 99.5 -58.2 96.45 -53.65 93.4 -49.05 90.4 -44.5 87.35 -39.9 84.3 -35.35 81.25 -30.75 78.2 -26.2 75.15 -21.65 72.15 -17.05 69.1 -12.5 66.05 -7.9 63.0 -3.35 59.95 1.25 56.9 5.8 53.9 10.4 50.85 14.95 47.8 19.55 44.75 24.1 41.7 28.7 38.65 33.25 35.65 37.85 32.6 42.4 29.55 47.0 26.5 51.55 23.45 56.15 20.4 60.7 17.4 65.3 14.35 69.85 11.3 74.45 8.25 79.0 5.2 83.6 2.15 88.15 -0.85 92.75 -0.85 -177.5 -2.0 -177.5 M-0.85 -177.5 L2.15 -177.45 4.6 -177.35 5.2 -177.3 5.8 -177.25 8.25 -176.95 11.3 -176.5 14.35 -175.85 17.4 -175.05 20.45 -174.05 Q23.6 -172.95 26.5 -171.4 L29.55 -169.7 29.55 47.0 M75.15 -95.05 L75.15 -21.65 M72.15 -97.05 L72.15 -17.05 M78.2 -93.9 L78.2 -26.2 M81.25 -93.45 L81.25 -30.75 M84.3 -93.6 L84.3 -35.35 M87.35 -94.3 L87.35 -39.9 M90.4 -95.5 L90.4 -44.5 M93.4 -97.15 L93.4 -49.05 M66.05 -104.05 L66.05 -7.9 M63.0 -109.55 L63.0 -3.35 M111.65 -108.65 L111.65 -76.5 M108.65 -107.4 L108.65 -71.95 M102.55 -103.85 L102.55 -62.8 M99.5 -101.55 L99.5 -58.2 M105.6 -105.8 L105.6 -67.35 M117.75 -110.15 L117.75 -85.65 M114.7 -109.55 L114.7 -81.1 M69.1 -99.95 L69.1 -12.5 M96.45 -99.15 L96.45 -53.65 M38.65 -162.4 L38.65 33.25 M44.75 -155.1 L44.75 24.1 M41.7 -159.05 L41.7 28.7 M35.65 -165.25 L35.65 37.85 M32.6 -167.65 L32.6 42.4 M26.5 -171.4 L26.5 51.55 M47.8 -150.3 L47.8 19.55 M2.15 -177.45 L2.15 88.15 M5.2 -177.3 L5.2 83.6 M8.25 -176.95 L8.25 79.0 M11.3 -176.5 L11.3 74.45 M14.35 -175.85 L14.35 69.85 M17.4 -175.05 L17.4 65.3 M20.45 -174.05 L20.4 60.7 M23.45 -171.5 L23.45 56.15 M50.85 -144.35 L50.85 14.95 M53.9 -136.85 L53.9 10.4 M59.95 -116.9 L59.95 1.25 M56.9 -126.65 L56.9 5.8" fill="none" stroke="#000000" stroke-linecap="round" stroke-linejoin="round" stroke-width="1.0"/>
    </g>
  </defs>
</svg>
