<?xml version="1.0" encoding="UTF-8" standalone="no"?>
<svg xmlns:xlink="http://www.w3.org/1999/xlink" height="720.75px" width="1716.8px" xmlns="http://www.w3.org/2000/svg">
  <g transform="matrix(1, 0, 0, 1, 307.05, 450.35)">
    <use height="175.0" transform="matrix(1.0, 0.0, 0.0, 1.0, -89.6, -92.55)" width="192.2" xlink:href="#sprite0"/>
  </g>
  <defs>
    <g id="sprite0" transform="matrix(1, 0, 0, 1, 96.1, 87.5)">
      <use height="175.0" transform="matrix(1.0, 0.0, 0.0, 1.0, -96.1, -87.5)" width="192.2" xlink:href="#shape0"/>
    </g>
    <g id="shape0" transform="matrix(1, 0, 0, 1, 96.1, 87.5)">
      <path d="M92.1 -72.1 L92.1 -83.05 Q1.3 -65.55 -92.1 -83.5 L-92.1 -72.5 -91.5 -72.45 Q1.6 -54.55 92.1 -72.1 M95.75 -86.6 L96.1 -85.5 96.1 67.5 95.75 68.65 94.85 69.4 Q0.0 106.0 -94.8 68.6 -95.6 68.3 -95.9 67.55 L-96.05 66.4 -96.1 66.0 -96.1 -85.5 Q-96.1 -86.35 -95.5 -86.9 -94.95 -87.5 -94.1 -87.5 -93.45 -87.5 -92.95 -87.15 -92.3 -87.6 -91.5 -87.45 2.45 -69.4 93.7 -87.45 L94.9 -87.35 95.75 -86.6 M92.1 66.15 L92.1 55.4 Q0.0 89.95 -92.1 54.65 L-92.1 65.4 Q0.0 101.2 92.1 66.15 M92.1 51.15 L92.1 -68.05 Q1.3 -50.55 -92.1 -68.5 L-92.1 50.4 Q0.0 86.2 92.1 51.15" fill="#000000" fill-rule="evenodd" stroke="none"/>
      <path d="M92.1 -72.1 Q1.6 -54.55 -91.5 -72.45 L-92.1 -72.5 -92.1 -83.5 Q1.3 -65.55 92.1 -83.05 L92.1 -72.1 M92.1 66.15 Q0.0 101.2 -92.1 65.4 L-92.1 54.65 Q0.0 89.95 92.1 55.4 L92.1 66.15" fill="#daffa2" fill-rule="evenodd" stroke="none"/>
      <path d="M92.1 51.15 Q0.0 86.2 -92.1 50.4 L-92.1 -68.5 Q1.3 -50.55 92.1 -68.05 L92.1 51.15" fill="#b5ff44" fill-rule="evenodd" stroke="none"/>
    </g>
  </defs>
</svg>
