<?xml version="1.0" encoding="UTF-8" standalone="no"?>
<svg xmlns:xlink="http://www.w3.org/1999/xlink" height="720.75px" width="1716.8px" xmlns="http://www.w3.org/2000/svg">
  <g transform="matrix(1, 0, 0, 1, 307.05, 450.35)">
    <use height="158.95" transform="matrix(1.0, 0.0, 0.0, 1.0, -15.05, -79.95)" width="68.5" xlink:href="#sprite0"/>
  </g>
  <defs>
    <g id="sprite0" transform="matrix(1, 0, 0, 1, 34.25, 79.5)">
      <use height="158.95" transform="matrix(1.0, 0.0, 0.0, 1.0, -34.25, -79.5)" width="68.5" xlink:href="#shape0"/>
    </g>
    <g id="shape0" transform="matrix(1, 0, 0, 1, 34.25, 79.5)">
      <path d="M-13.2 -13.2 L-13.2 -29.55 -22.2 -29.55 -22.2 -13.2 -31.75 -13.2 -31.75 -77.0 -3.6 -77.0 -3.6 -13.2 -13.2 -13.2" fill="#f7fcff" fill-rule="evenodd" stroke="none"/>
      <path d="M-22.2 -13.2 L-22.2 -29.55 -13.2 -29.55 -13.2 -13.2 -13.2 76.95 -22.2 76.95 -22.2 -13.2" fill="#765f01" fill-rule="evenodd" stroke="none"/>
      <path d="M-22.2 -13.2 L-22.2 -29.55 -13.2 -29.55 -13.2 -13.2 -3.6 -13.2 -3.6 -77.0 -31.75 -77.0 -31.75 -13.2 -22.2 -13.2 -22.2 76.95 -13.2 76.95 -13.2 -13.2" fill="none" stroke="#000000" stroke-linecap="round" stroke-linejoin="round" stroke-width="5.0"/>
      <path d="M31.65 -5.4 Q5.15 10.25 -13.2 -13.2 5.55 -4.9 27.8 -19.05 32.3 -12.2 31.65 -5.4" fill="#f7fcff" fill-rule="evenodd" stroke="none"/>
      <path d="M31.65 -5.4 Q5.15 10.25 -13.2 -13.2 5.55 -4.9 27.8 -19.05 32.3 -12.2 31.65 -5.4" fill="none" stroke="#000000" stroke-linecap="round" stroke-linejoin="round" stroke-width="5.0"/>
    </g>
  </defs>
</svg>
