<?xml version="1.0" encoding="UTF-8" standalone="no"?>
<svg xmlns:xlink="http://www.w3.org/1999/xlink" height="720.75px" width="1716.8px" xmlns="http://www.w3.org/2000/svg">
  <g transform="matrix(1, 0, 0, 1, 307.05, 450.35)">
    <use height="109.25" transform="matrix(1.0, 0.0, 0.0, 1.0, -77.95, -54.6)" width="155.9" xlink:href="#sprite0"/>
  </g>
  <defs>
    <g id="sprite0" transform="matrix(1, 0, 0, 1, 77.95, 54.6)">
      <use height="88.05" transform="matrix(1.0, 0.0, 0.0, 1.0, -76.45, -53.1)" width="152.9" xlink:href="#shape0"/>
      <use height="109.25" transform="matrix(1.0, 0.0, 0.0, 1.0, -77.95, -54.6)" width="155.9" xlink:href="#shape1"/>
    </g>
    <g id="shape0" transform="matrix(1, 0, 0, 1, 76.45, 53.1)">
      <path d="M65.85 -52.9 L66.9 -53.1 Q70.85 -53.1 73.65 -40.2 76.45 -27.35 76.45 -9.1 76.45 9.15 73.65 22.05 70.85 34.95 66.9 34.95 L65.65 34.65 64.65 33.85 Q60.35 30.6 52.5 27.45 40.95 -4.8 52.5 -45.9 60.2 -48.6 64.3 -51.6 65.05 -52.55 65.85 -52.9 M66.95 -19.8 Q66.5 -24.8 65.6 -28.95 63.7 -37.6 61.05 -37.6 L60.4 -37.45 59.4 -36.7 Q58.05 -29.1 57.55 -19.8 57.3 -14.7 57.3 -9.1 57.3 -2.6 57.65 3.25 58.25 12.85 59.8 20.6 L59.85 20.95 60.25 21.2 61.05 21.4 Q63.7 21.4 65.6 12.75 66.5 8.45 67.0 3.25 64.2 -10.15 66.95 -19.8 M-55.0 -27.65 Q-48.15 -32.45 -55.0 -41.1 -50.85 -44.45 -45.0 -41.6 -36.55 -34.85 -36.9 -30.0 L-25.55 -31.2 Q-40.4 -8.85 -27.0 9.5 L-36.65 8.75 -52.8 7.35 Q-64.6 4.15 -67.8 9.85 -85.1 -4.65 -67.8 -25.6 L-55.0 -27.65" fill="#a90101" fill-rule="evenodd" stroke="none"/>
    </g>
    <g id="shape1" transform="matrix(1, 0, 0, 1, 77.95, 54.6)">
      <path d="M52.5 27.45 Q41.15 22.8 22.45 18.25 -4.75 11.65 -27.0 9.5 -40.4 -8.85 -25.55 -31.2 -2.85 -33.9 23.8 -38.75 41.7 -42.05 52.5 -45.9 40.95 -4.8 52.5 27.45 M-36.65 8.75 Q-43.85 39.1 -38.3 49.4 -51.65 57.95 -62.0 46.9 L-52.8 7.35 -36.65 8.75 M59.4 -36.7 L60.4 -37.45 61.05 -37.6 Q63.7 -37.6 65.6 -28.95 66.5 -24.8 66.95 -19.8 L57.55 -19.8 Q58.05 -29.1 59.4 -36.7 M67.0 3.25 Q66.5 8.45 65.6 12.75 63.7 21.4 61.05 21.4 L60.25 21.2 59.85 20.95 59.8 20.6 Q58.25 12.85 57.65 3.25 57.3 -2.6 57.3 -9.1 57.3 -14.7 57.55 -19.8 L66.95 -19.8 Q64.2 -10.15 67.0 3.25 L57.65 3.25 67.0 3.25" fill="#ffffff" fill-rule="evenodd" stroke="none"/>
      <path d="M52.5 -45.9 Q60.2 -48.6 64.3 -51.6 65.05 -52.55 65.85 -52.9 L66.9 -53.1 Q70.85 -53.1 73.65 -40.2 76.45 -27.35 76.45 -9.1 76.45 9.15 73.65 22.05 70.85 34.95 66.9 34.95 L65.65 34.65 64.65 33.85 Q60.35 30.6 52.5 27.45 41.15 22.8 22.45 18.25 -4.75 11.65 -27.0 9.5 L-36.65 8.75 Q-43.85 39.1 -38.3 49.4 -51.65 57.95 -62.0 46.9 L-52.8 7.35 Q-64.6 4.15 -67.8 9.85 -85.1 -4.65 -67.8 -25.6 L-55.0 -27.65 Q-48.15 -32.45 -55.0 -41.1 -50.85 -44.45 -45.0 -41.6 -36.55 -34.85 -36.9 -30.0 L-25.55 -31.2 Q-2.85 -33.9 23.8 -38.75 41.7 -42.05 52.5 -45.9 40.95 -4.8 52.5 27.45 M59.4 -36.7 L60.4 -37.45 61.05 -37.6 Q63.7 -37.6 65.6 -28.95 66.5 -24.8 66.95 -19.8 L68.1 -20.1 68.4 -20.2 Q69.45 -20.2 70.25 -16.65 71.0 -13.15 71.0 -8.15 L70.85 -3.95 70.25 0.35 Q69.45 3.85 68.4 3.9 L68.05 3.8 67.0 3.25 Q66.5 8.45 65.6 12.75 63.7 21.4 61.05 21.4 L60.25 21.2 59.85 20.95 60.1 22.05 Q62.1 31.15 64.65 33.85 M59.4 -36.7 L60.1 -40.2 Q61.95 -48.75 64.3 -51.6 M59.85 20.95 L59.8 20.6 Q58.25 12.85 57.65 3.25 57.3 -2.6 57.3 -9.1 57.3 -14.7 57.55 -19.8 58.05 -29.1 59.4 -36.7 M66.95 -19.8 L57.55 -19.8 M67.0 3.25 Q64.2 -10.15 66.95 -19.8 M57.65 3.25 L67.0 3.25 M-36.9 -30.0 L-55.0 -27.65 M-52.8 7.35 L-36.65 8.75 M-25.55 -31.2 Q-40.4 -8.85 -27.0 9.5" fill="none" stroke="#000000" stroke-linecap="round" stroke-linejoin="round" stroke-width="3.0"/>
    </g>
  </defs>
</svg>
