<?xml version="1.0" encoding="UTF-8" standalone="no"?>
<svg xmlns:xlink="http://www.w3.org/1999/xlink" height="720.75px" width="1716.8px" xmlns="http://www.w3.org/2000/svg">
  <g transform="matrix(1, 0, 0, 1, 307.05, 450.35)">
    <use height="53.75" transform="matrix(1.0, 0.0, 0.0, 1.0, -2.0, -26.9)" width="4.0" xlink:href="#shape0"/>
  </g>
  <defs>
    <g id="shape0" transform="matrix(1, 0, 0, 1, 2.0, 26.9)">
      <path d="M0.0 -26.9 Q0.85 -26.9 1.45 -26.3 2.0 -25.75 2.0 -24.9 L2.0 24.85 Q2.0 25.7 1.45 26.3 0.85 26.85 0.0 26.85 -0.85 26.85 -1.4 26.3 -2.0 25.7 -2.0 24.85 L-2.0 -24.9 Q-2.0 -25.75 -1.4 -26.3 -0.85 -26.9 0.0 -26.9" fill="#000000" fill-rule="evenodd" stroke="none"/>
    </g>
  </defs>
</svg>
