<?xml version="1.0" encoding="UTF-8" standalone="no"?>
<svg xmlns:xlink="http://www.w3.org/1999/xlink" height="720.75px" width="1716.8px" xmlns="http://www.w3.org/2000/svg">
  <g transform="matrix(1, 0, 0, 1, 307.05, 450.35)">
    <use height="235.0" transform="matrix(1.0, 0.0, 0.0, 1.0, -173.95, -117.5)" width="347.95" xlink:href="#shape0"/>
  </g>
  <defs>
    <g id="shape0" transform="matrix(1, 0, 0, 1, 173.95, 117.5)">
      <path d="M86.0 -104.0 L86.0 104.0 114.0 104.0 114.0 -104.0 86.0 -104.0 74.0 -104.0 86.0 -104.0 M74.0 104.0 L74.0 -104.0 46.0 -104.0 46.0 104.0 74.0 104.0 86.0 104.0 74.0 104.0 M126.0 -104.0 L126.0 104.0 154.0 104.0 154.0 -104.0 126.0 -104.0 114.0 -104.0 126.0 -104.0 M6.0 -104.0 L6.0 104.0 34.0 104.0 34.0 -104.0 6.0 -104.0 -6.0 -104.0 6.0 -104.0 M-6.0 104.0 L-6.0 -104.0 -34.0 -104.0 -34.0 104.0 -6.0 104.0 6.0 104.0 -6.0 104.0 M46.0 -104.0 L34.0 -104.0 46.0 -104.0 M166.0 -104.0 L166.0 104.0 172.5 104.0 172.5 116.0 -172.45 116.0 -172.45 104.0 -166.0 104.0 -166.0 -104.0 -172.45 -104.0 -172.45 -116.0 172.5 -116.0 172.5 -104.0 166.0 -104.0 154.0 -104.0 166.0 -104.0 M154.0 104.0 L166.0 104.0 154.0 104.0 M114.0 104.0 L126.0 104.0 114.0 104.0 M34.0 104.0 L46.0 104.0 34.0 104.0 M-74.0 -104.0 L-74.0 104.0 -46.0 104.0 -46.0 -104.0 -74.0 -104.0 -86.0 -104.0 -74.0 -104.0 M-86.0 104.0 L-86.0 -104.0 -114.0 -104.0 -114.0 104.0 -86.0 104.0 -74.0 104.0 -86.0 104.0 M-34.0 -104.0 L-46.0 -104.0 -34.0 -104.0 M-154.0 -104.0 L-154.0 104.0 -126.0 104.0 -126.0 -104.0 -154.0 -104.0 -166.0 -104.0 -154.0 -104.0 M-154.0 104.0 L-166.0 104.0 -154.0 104.0 M-34.0 104.0 L-46.0 104.0 -34.0 104.0 M-114.0 104.0 L-126.0 104.0 -114.0 104.0 M-114.0 -104.0 L-126.0 -104.0 -114.0 -104.0" fill="#cccccc" fill-rule="evenodd" stroke="none"/>
      <path d="M86.0 -104.0 L86.0 104.0 114.0 104.0 114.0 -104.0 86.0 -104.0 74.0 -104.0 74.0 104.0 86.0 104.0 M126.0 -104.0 L126.0 104.0 154.0 104.0 154.0 -104.0 126.0 -104.0 114.0 -104.0 M6.0 -104.0 L6.0 104.0 34.0 104.0 34.0 -104.0 6.0 -104.0 -6.0 -104.0 -6.0 104.0 6.0 104.0 M74.0 -104.0 L46.0 -104.0 46.0 104.0 74.0 104.0 M34.0 -104.0 L46.0 -104.0 M166.0 -104.0 L166.0 104.0 172.5 104.0 172.5 116.0 -172.45 116.0 -172.45 104.0 -166.0 104.0 -166.0 -104.0 -172.45 -104.0 -172.45 -116.0 172.5 -116.0 172.5 -104.0 166.0 -104.0 154.0 -104.0 M46.0 104.0 L34.0 104.0 M126.0 104.0 L114.0 104.0 M166.0 104.0 L154.0 104.0 M-74.0 -104.0 L-74.0 104.0 -46.0 104.0 -46.0 -104.0 -74.0 -104.0 -86.0 -104.0 -86.0 104.0 -74.0 104.0 M-6.0 -104.0 L-34.0 -104.0 -34.0 104.0 -6.0 104.0 M-46.0 -104.0 L-34.0 -104.0 M-154.0 -104.0 L-154.0 104.0 -126.0 104.0 -126.0 -104.0 -154.0 -104.0 -166.0 -104.0 M-86.0 -104.0 L-114.0 -104.0 -114.0 104.0 -86.0 104.0 M-126.0 -104.0 L-114.0 -104.0 M-126.0 104.0 L-114.0 104.0 M-46.0 104.0 L-34.0 104.0 M-166.0 104.0 L-154.0 104.0" fill="none" stroke="#000000" stroke-linecap="round" stroke-linejoin="round" stroke-width="3.0"/>
    </g>
  </defs>
</svg>
