<?xml version="1.0" encoding="UTF-8" standalone="no"?>
<svg xmlns:xlink="http://www.w3.org/1999/xlink" height="720.75px" width="1716.8px" xmlns="http://www.w3.org/2000/svg">
  <g transform="matrix(1, 0, 0, 1, 307.05, 450.35)">
    <use height="87.0" transform="matrix(1.0, 0.0, 0.0, 1.0, -43.5, -43.5)" width="87.0" xlink:href="#sprite0"/>
  </g>
  <defs>
    <g id="sprite0" transform="matrix(1, 0, 0, 1, 43.5, 43.5)">
      <use height="85.0" transform="matrix(1.0, 0.0, 0.0, 1.0, -42.5, -42.5)" width="85.0" xlink:href="#shape0"/>
      <use height="87.0" transform="matrix(1.0, 0.0, 0.0, 1.0, -43.5, -43.5)" width="87.0" xlink:href="#shape1"/>
    </g>
    <g id="shape0" transform="matrix(1, 0, 0, 1, 42.5, 42.5)">
      <path d="M30.05 -30.05 Q42.5 -17.6 42.5 0.0 42.5 17.6 30.05 30.05 24.2 35.9 17.25 39.0 9.35 42.5 0.0 42.5 -9.35 42.5 -17.2 39.0 -24.2 35.9 -30.05 30.05 -42.5 17.6 -42.5 0.0 -42.5 -17.6 -30.05 -30.05 -17.6 -42.5 0.0 -42.5 17.6 -42.5 30.05 -30.05" fill="#333333" fill-rule="evenodd" stroke="none"/>
    </g>
    <g id="shape1" transform="matrix(1, 0, 0, 1, 43.5, 43.5)">
      <path d="M8.5 -13.05 Q7.2 -11.75 5.4 -11.75 3.6 -11.75 2.3 -13.05 1.0 -14.35 1.0 -16.15 1.0 -17.95 2.3 -19.25 3.6 -20.55 5.4 -20.55 7.2 -20.55 8.5 -19.25 9.8 -17.95 9.8 -16.15 9.8 -14.35 8.5 -13.05 M12.3 -5.25 Q13.6 -6.55 15.4 -6.55 17.2 -6.55 18.5 -5.25 19.8 -3.95 19.8 -2.15 19.8 -0.35 18.5 0.95 17.2 2.25 15.4 2.25 13.6 2.25 12.3 0.95 11.0 -0.35 11.0 -2.15 11.0 -3.95 12.3 -5.25 M28.5 -13.05 Q27.2 -11.75 25.4 -11.75 23.6 -11.75 22.3 -13.05 21.0 -14.35 21.0 -16.15 21.0 -17.95 22.3 -19.25 23.6 -20.55 25.4 -20.55 27.2 -20.55 28.5 -19.25 29.8 -17.95 29.8 -16.15 29.8 -14.35 28.5 -13.05" fill="#2b2b2b" fill-opacity="0.5019608" fill-rule="evenodd" stroke="none"/>
      <path d="M8.5 -13.05 Q7.2 -11.75 5.4 -11.75 3.6 -11.75 2.3 -13.05 1.0 -14.35 1.0 -16.15 1.0 -17.95 2.3 -19.25 3.6 -20.55 5.4 -20.55 7.2 -20.55 8.5 -19.25 9.8 -17.95 9.8 -16.15 9.8 -14.35 8.5 -13.05 M12.3 -5.25 Q13.6 -6.55 15.4 -6.55 17.2 -6.55 18.5 -5.25 19.8 -3.95 19.8 -2.15 19.8 -0.35 18.5 0.95 17.2 2.25 15.4 2.25 13.6 2.25 12.3 0.95 11.0 -0.35 11.0 -2.15 11.0 -3.95 12.3 -5.25 M28.5 -13.05 Q27.2 -11.75 25.4 -11.75 23.6 -11.75 22.3 -13.05 21.0 -14.35 21.0 -16.15 21.0 -17.95 22.3 -19.25 23.6 -20.55 25.4 -20.55 27.2 -20.55 28.5 -19.25 29.8 -17.95 29.8 -16.15 29.8 -14.35 28.5 -13.05" fill="none" stroke="#000000" stroke-linecap="round" stroke-linejoin="round" stroke-width="2.0"/>
      <path d="M30.05 -30.05 Q42.5 -17.6 42.5 0.0 42.5 17.6 30.05 30.05 24.2 35.9 17.25 39.0 9.35 42.5 0.0 42.5 -9.35 42.5 -17.2 39.0 -24.2 35.9 -30.05 30.05 -42.5 17.6 -42.5 0.0 -42.5 -17.6 -30.05 -30.05 -17.6 -42.5 0.0 -42.5 17.6 -42.5 30.05 -30.05" fill="none" stroke="#000000" stroke-linecap="round" stroke-linejoin="round" stroke-width="2.0"/>
    </g>
  </defs>
</svg>
