<?xml version="1.0" encoding="UTF-8" standalone="no"?>
<svg xmlns:xlink="http://www.w3.org/1999/xlink" height="720.75px" width="1716.8px" xmlns="http://www.w3.org/2000/svg">
  <g transform="matrix(1, 0, 0, 1, 307.05, 450.35)">
    <use height="205.0" transform="matrix(1.0, 0.0, 0.0, 1.0, -155.5, -102.5)" width="310.95" xlink:href="#shape0"/>
  </g>
  <defs>
    <g id="shape0" transform="matrix(1, 0, 0, 1, 155.5, 102.5)">
      <path d="M137.6 -6.1 L136.55 -5.3 133.0 -8.4 125.2 -15.55 Q117.7 -23.2 114.1 -31.0 113.5 -32.35 111.3 -42.6 108.95 -53.6 106.35 -60.65 98.0 -82.6 81.5 -84.35 L78.3 -86.4 78.5 -86.8 Q84.9 -90.35 94.35 -90.35 104.0 -90.35 109.9 -82.65 113.95 -77.35 118.75 -63.7 124.85 -46.15 128.1 -39.5 134.95 -25.3 145.15 -16.15 L140.85 -12.2 138.95 -10.15 Q137.45 -8.35 137.5 -7.3 L137.6 -6.1 M20.05 -90.65 Q16.85 -88.95 14.1 -86.95 11.7 -85.25 11.75 -84.95 11.75 -81.85 15.35 -81.8 16.55 -81.85 17.45 -83.15 18.75 -85.15 20.1 -86.1 21.65 -87.2 24.15 -88.0 25.25 -87.2 25.7 -87.2 27.9 -87.25 27.7 -87.9 L27.85 -88.95 Q34.75 -90.35 46.2 -90.35 58.85 -90.35 71.1 -84.75 71.5 -83.3 73.2 -82.7 L73.95 -83.35 75.45 -82.55 75.45 -82.5 Q75.45 -80.25 75.65 -81.15 96.8 -72.15 104.1 -56.2 106.7 -50.3 108.05 -42.4 L109.6 -29.55 Q106.4 -29.0 104.25 -24.25 102.4 -20.25 102.4 -17.5 L102.25 -16.5 Q102.1 -15.35 102.35 -14.45 103.3 -11.7 108.25 -11.7 114.7 -11.7 115.7 -17.95 L117.05 -16.5 Q120.6 -12.7 131.15 -3.75 140.85 4.45 144.8 9.15 L145.8 10.3 Q143.2 12.1 141.45 15.5 139.25 19.45 139.3 22.95 L139.8 27.35 Q139.95 28.25 140.25 28.95 L128.05 31.1 112.25 33.05 109.55 33.5 108.25 33.3 54.65 35.55 Q42.5 35.5 38.35 33.5 L35.95 32.1 Q34.6 31.45 32.4 31.5 28.8 31.45 28.8 34.05 28.8 36.3 29.05 36.45 33.1 37.3 34.6 39.1 37.85 40.45 54.3 40.45 81.15 40.45 95.2 39.7 L95.2 39.8 Q95.2 40.85 100.25 59.8 105.75 80.25 106.9 87.7 101.75 86.15 95.05 77.0 L90.7 71.0 Q89.25 69.15 88.3 68.6 88.9 67.95 88.95 67.2 L88.7 65.6 88.5 65.2 86.25 64.75 Q81.2 67.2 75.35 68.1 L41.65 69.7 26.85 69.0 16.25 67.95 Q11.4 67.5 9.05 68.0 6.1 68.5 4.55 70.6 3.75 71.55 1.65 78.0 L-0.75 85.25 Q-3.8 91.45 -8.7 91.5 -11.65 91.5 -14.05 78.6 -15.4 71.6 -15.9 69.7 -17.05 65.65 -18.4 65.65 -19.8 65.65 -20.2 66.2 L-20.65 67.2 -20.4 69.05 Q-46.65 77.95 -93.1 81.6 L-135.7 83.85 -136.05 84.4 Q-136.2 84.85 -135.45 85.2 L-133.35 85.75 Q-135.35 87.55 -137.3 90.9 -140.3 95.9 -141.55 96.9 -144.6 94.7 -146.85 91.45 -149.2 88.1 -149.2 85.9 -149.2 69.4 -145.15 58.4 L-140.35 45.85 Q-136.95 36.45 -133.9 25.2 -133.0 21.65 -131.6 18.3 L-131.55 18.2 -130.3 16.2 -130.6 16.05 Q-128.25 10.95 -124.8 6.3 -123.2 6.15 -123.35 5.4 L-123.15 4.2 Q-119.2 -0.75 -113.9 -5.15 L-104.35 -14.0 Q-99.55 -18.55 -95.7 -20.65 -90.05 -23.8 -65.1 -27.55 L-46.15 -30.7 Q-48.5 -20.85 -48.5 -18.35 -48.5 -16.7 -46.65 -12.7 -44.45 -7.95 -41.1 -3.8 -31.5 8.1 -18.4 8.1 -6.4 8.1 12.65 -66.75 12.6 -68.2 11.9 -68.65 L10.4 -69.2 Q6.0 -63.15 2.1 -50.0 0.9 -46.1 -4.1 -25.95 -7.6 -11.6 -10.45 -5.35 -14.45 3.35 -19.5 3.4 -26.55 3.35 -35.45 -5.4 -44.0 -13.8 -44.0 -19.0 -40.45 -39.7 -32.95 -59.05 -18.05 -97.55 1.85 -97.55 10.3 -97.55 18.15 -92.35 L20.2 -90.95 20.05 -90.65 M8.15 -24.7 Q4.55 -19.4 4.55 -15.65 4.55 -13.3 5.0 -12.55 6.6 -9.9 12.65 -9.9 19.25 -9.9 23.45 -13.9 27.0 -17.25 27.05 -21.05 24.65 -30.6 16.25 -30.55 12.15 -30.55 8.15 -24.7 M-142.25 -43.8 Q-142.05 -42.5 -142.0 -40.15 -142.05 -36.4 -143.8 -28.3 -143.85 -24.25 -144.7 -15.5 L-144.05 -9.45 Q-142.85 -3.6 -139.75 -3.6 -138.35 -3.6 -136.8 -7.4 -135.0 -11.8 -132.1 -13.25 L-132.45 -8.35 Q-132.65 -4.5 -132.4 -1.85 -131.9 2.8 -129.65 4.8 -132.7 9.05 -134.8 13.5 -141.95 8.4 -146.3 -0.15 -151.0 -9.5 -151.0 -19.25 -151.0 -25.1 -148.55 -32.1 -146.05 -39.3 -142.25 -43.8" fill="#b5a464" fill-rule="evenodd" stroke="none"/>
      <path d="M136.55 -5.3 L138.9 -3.25 Q147.1 3.8 150.55 8.5 L151.2 9.45 151.4 9.45 151.65 9.7 151.85 10.4 Q155.45 16.25 155.45 22.5 155.45 25.75 155.1 26.9 154.2 29.85 150.8 31.95 141.1 37.75 110.5 37.8 L110.2 37.8 106.45 38.65 99.7 39.4 Q101.55 45.1 105.45 59.75 111.4 82.2 111.4 87.3 111.4 90.15 110.8 91.05 109.7 92.6 106.0 92.6 97.35 92.6 90.9 82.5 87.1 76.55 85.45 70.15 81.95 71.3 75.05 71.95 59.7 73.25 14.45 73.3 10.2 73.3 7.55 76.9 6.0 78.95 3.8 84.75 1.6 90.4 -0.15 92.6 -3.0 96.2 -7.6 96.2 -16.65 96.2 -19.0 83.8 -19.75 80.2 -20.05 74.15 L-20.1 72.75 -23.75 73.9 Q-32.8 76.7 -45.3 79.2 -81.5 86.3 -122.25 86.35 L-129.4 86.15 -129.5 86.15 -129.4 86.9 -129.4 87.0 Q-129.45 88.95 -134.8 95.75 -140.2 102.5 -141.55 102.5 -150.2 102.5 -152.8 94.4 -153.65 91.9 -153.75 88.85 L-153.7 86.35 Q-153.7 74.3 -152.9 68.75 -152.25 64.3 -150.3 59.7 L-145.55 48.35 Q-142.0 38.6 -138.4 23.6 L-136.9 18.45 Q-146.1 16.05 -151.5 0.25 -153.5 -5.7 -154.7 -12.85 -155.5 -17.75 -155.5 -19.3 L-154.45 -25.75 Q-153.15 -32.0 -151.45 -37.55 -146.4 -53.95 -140.65 -53.95 -138.8 -53.95 -137.5 -40.35 -137.55 -26.7 -140.2 -18.4 L-140.2 -13.7 -140.0 -13.45 -135.45 -17.25 Q-131.15 -20.7 -129.85 -20.65 -127.25 -20.7 -127.15 -16.0 -127.15 -13.45 -127.6 -8.75 -127.65 -3.3 -125.4 -0.6 L-123.75 -2.5 Q-113.8 -13.55 -99.2 -21.9 -85.9 -29.55 -72.8 -32.8 -59.85 -36.05 -52.55 -33.7 L-48.5 -34.15 -45.35 -33.95 Q-41.65 -48.95 -36.55 -61.8 -25.8 -89.0 -12.25 -98.0 -5.55 -102.5 1.85 -102.5 10.25 -102.5 18.25 -98.0 L20.5 -96.65 25.2 -93.1 Q31.25 -95.55 35.55 -94.85 L46.2 -95.3 Q60.0 -95.3 73.4 -88.95 74.9 -90.0 77.3 -91.25 85.0 -95.3 94.8 -95.3 109.9 -95.3 118.55 -78.8 121.35 -73.4 123.65 -65.8 L126.25 -56.4 Q132.6 -37.7 142.65 -26.95 L148.65 -21.2 Q150.95 -18.95 150.95 -17.3 150.95 -16.25 146.05 -10.7 141.15 -5.1 139.75 -4.5 L138.1 -5.2 137.6 -6.1 137.5 -7.3 Q137.45 -8.35 138.95 -10.15 L140.85 -12.2 145.15 -16.15 Q134.95 -25.3 128.1 -39.5 124.85 -46.15 118.75 -63.7 113.95 -77.35 109.9 -82.65 104.0 -90.35 94.35 -90.35 84.9 -90.35 78.5 -86.8 L78.05 -86.55 Q78.15 -86.5 78.3 -86.4 L81.5 -84.35 Q98.0 -82.6 106.35 -60.65 108.95 -53.6 111.3 -42.6 113.5 -32.35 114.1 -31.0 117.7 -23.2 125.2 -15.55 L133.0 -8.4 136.55 -5.3 M95.2 39.7 Q81.15 40.45 54.3 40.45 37.85 40.45 34.6 39.1 33.1 37.3 29.05 36.45 28.8 36.3 28.8 34.05 28.8 31.45 32.4 31.5 34.6 31.45 35.95 32.1 L38.35 33.5 Q42.5 35.5 54.65 35.55 L108.25 33.3 109.55 33.5 112.25 33.05 128.05 31.1 140.25 28.95 Q139.95 28.25 139.8 27.35 L139.3 22.95 Q139.25 19.45 141.45 15.5 143.2 12.1 145.8 10.3 L144.8 9.15 Q140.85 4.45 131.15 -3.75 120.6 -12.7 117.05 -16.5 L115.7 -17.95 Q114.7 -11.7 108.25 -11.7 103.3 -11.7 102.35 -14.45 102.1 -15.35 102.25 -16.5 L102.4 -17.5 Q102.4 -20.25 104.25 -24.25 106.4 -29.0 109.6 -29.55 L108.05 -42.4 Q106.7 -50.3 104.1 -56.2 96.8 -72.15 75.65 -81.15 75.45 -80.25 75.45 -82.5 L75.45 -82.55 73.95 -83.35 73.2 -82.7 Q71.5 -83.3 71.1 -84.75 58.85 -90.35 46.2 -90.35 34.75 -90.35 27.85 -88.95 L27.7 -87.9 Q27.9 -87.25 25.7 -87.2 25.25 -87.2 24.15 -88.0 21.65 -87.2 20.1 -86.1 18.75 -85.15 17.45 -83.15 16.55 -81.85 15.35 -81.8 11.75 -81.85 11.75 -84.95 11.7 -85.25 14.1 -86.95 16.85 -88.95 20.05 -90.65 L20.35 -90.8 20.2 -90.95 18.15 -92.35 Q10.3 -97.55 1.85 -97.55 -18.05 -97.55 -32.95 -59.05 -40.45 -39.7 -44.0 -19.0 -44.0 -13.8 -35.45 -5.4 -26.55 3.35 -19.5 3.4 -14.45 3.35 -10.45 -5.35 -7.6 -11.6 -4.1 -25.95 0.9 -46.1 2.1 -50.0 6.0 -63.15 10.4 -69.2 L11.9 -68.65 Q12.6 -68.2 12.65 -66.75 -6.4 8.1 -18.4 8.1 -31.5 8.1 -41.1 -3.8 -44.45 -7.95 -46.65 -12.7 -48.5 -16.7 -48.5 -18.35 -48.5 -20.85 -46.15 -30.7 L-65.1 -27.55 Q-90.05 -23.8 -95.7 -20.65 -99.55 -18.55 -104.35 -14.0 L-113.9 -5.15 Q-119.2 -0.75 -123.15 4.2 L-123.35 5.4 Q-123.2 6.15 -124.8 6.3 -128.25 10.95 -130.6 16.05 L-130.3 16.2 -131.55 18.2 -131.6 18.3 Q-133.0 21.65 -133.9 25.2 -136.95 36.45 -140.35 45.85 L-145.15 58.4 Q-149.2 69.4 -149.2 85.9 -149.2 88.1 -146.85 91.45 -144.6 94.7 -141.55 96.9 -140.3 95.9 -137.3 90.9 -135.35 87.55 -133.35 85.75 L-135.45 85.2 Q-136.2 84.85 -136.05 84.4 L-135.7 83.85 -93.1 81.6 Q-46.65 77.95 -20.4 69.05 L-20.65 67.2 -20.2 66.2 Q-19.8 65.65 -18.4 65.65 -17.05 65.65 -15.9 69.7 -15.4 71.6 -14.05 78.6 -11.65 91.5 -8.7 91.5 -3.8 91.45 -0.75 85.25 L1.65 78.0 Q3.75 71.55 4.55 70.6 6.1 68.5 9.05 68.0 11.4 67.5 16.25 67.95 L26.85 69.0 41.65 69.7 75.35 68.1 Q81.2 67.2 86.25 64.75 L88.5 65.2 88.7 65.6 88.95 67.2 Q88.9 67.95 88.3 68.6 89.25 69.15 90.7 71.0 L95.05 77.0 Q101.75 86.15 106.9 87.7 105.75 80.25 100.25 59.8 95.2 40.85 95.2 39.8 L95.25 39.7 95.2 39.7 M8.15 -24.7 Q12.15 -30.55 16.25 -30.55 24.65 -30.6 27.05 -21.05 27.0 -17.25 23.45 -13.9 19.25 -9.9 12.65 -9.9 6.6 -9.9 5.0 -12.55 4.55 -13.3 4.55 -15.65 4.55 -19.4 8.15 -24.7 M9.05 -15.5 Q10.4 -14.85 12.5 -14.8 18.1 -14.85 20.75 -17.95 22.3 -19.8 22.3 -21.35 22.3 -24.05 13.75 -24.05 12.6 -24.05 10.8 -20.75 9.0 -17.5 9.05 -15.5 M107.0 -16.6 Q110.05 -16.65 111.4 -18.65 L111.4 -23.15 109.15 -23.35 Q106.9 -23.35 106.9 -17.3 L106.9 -16.6 107.0 -16.6 M147.8 15.2 Q143.75 19.0 143.8 22.35 143.8 23.45 144.7 25.6 L145.35 27.45 Q150.95 25.3 150.95 22.6 150.95 18.75 148.6 14.5 L147.8 15.2 M-142.25 -43.8 Q-146.05 -39.3 -148.55 -32.1 -151.0 -25.1 -151.0 -19.25 -151.0 -9.5 -146.3 -0.15 -141.95 8.4 -134.8 13.5 -132.7 9.05 -129.65 4.8 -131.9 2.8 -132.4 -1.85 -132.65 -4.5 -132.45 -8.35 L-132.1 -13.25 Q-135.0 -11.8 -136.8 -7.4 -138.35 -3.6 -139.75 -3.6 -142.85 -3.6 -144.05 -9.45 L-144.7 -15.5 Q-143.85 -24.25 -143.8 -28.3 -142.05 -36.4 -142.0 -40.15 -142.05 -42.5 -142.25 -43.8" fill="#000000" fill-rule="evenodd" stroke="none"/>
      <path d="M147.8 15.2 L148.6 14.5 Q150.95 18.75 150.95 22.6 150.95 25.3 145.35 27.45 L144.7 25.6 Q143.8 23.45 143.8 22.35 143.75 19.0 147.8 15.2" fill="#626262" fill-rule="evenodd" stroke="none"/>
      <path d="M106.9 -17.3 Q106.9 -23.35 109.15 -23.35 L111.4 -23.15 111.4 -18.65 Q110.05 -16.65 107.0 -16.6 L106.9 -17.3 M9.05 -15.5 Q9.0 -17.5 10.8 -20.75 12.6 -24.05 13.75 -24.05 22.3 -24.05 22.3 -21.35 22.3 -19.8 20.75 -17.95 18.1 -14.85 12.5 -14.8 10.4 -14.85 9.05 -15.5" fill="#ffffff" fill-rule="evenodd" stroke="none"/>
    </g>
  </defs>
</svg>
