<?xml version="1.0" encoding="UTF-8" standalone="no"?>
<svg xmlns:xlink="http://www.w3.org/1999/xlink" height="720.75px" width="1716.8px" xmlns="http://www.w3.org/2000/svg">
  <g transform="matrix(1, 0, 0, 1, 307.05, 450.35)">
    <use height="381.25" transform="matrix(0.85, 0.0, 0.0, 0.85, -134.6211, -162.8774)" width="316.8" xlink:href="#sprite0"/>
  </g>
  <defs>
    <g id="sprite0" transform="matrix(1, 0, 0, 1, 424.5, 555.45)">
      <use height="381.25" transform="matrix(1.0, 0.0, 0.0, 1.0, -424.5, -555.45)" width="316.8" xlink:href="#shape0"/>
    </g>
    <g id="shape0" transform="matrix(1, 0, 0, 1, 424.5, 555.45)">
      <path d="M-401.45 -224.45 Q-425.15 -223.45 -418.8 -235.25 -412.5 -247.1 -418.75 -258.3 -425.05 -269.5 -410.35 -276.25 -395.7 -282.95 -395.95 -295.7 -396.2 -308.45 -380.25 -310.2 -364.3 -311.9 -375.5 -318.2 -386.7 -324.5 -382.0 -331.9 -377.35 -339.3 -395.45 -348.6 -404.9 -353.45 -402.2 -364.1 -399.65 -374.2 -409.55 -378.75 -419.45 -383.35 -413.95 -395.75 -408.5 -408.2 -418.3 -414.8 -428.15 -421.45 -414.8 -431.25 -401.5 -441.05 -402.5 -458.15 -403.5 -475.25 -386.05 -478.1 -369.9 -480.9 -366.55 -497.2 -363.25 -513.5 -341.9 -508.35 -320.55 -503.25 -314.95 -514.4 -309.4 -525.55 -291.85 -516.0 -274.35 -506.45 -260.95 -515.45 -247.55 -524.5 -234.75 -510.8 -222.0 -497.1 -207.05 -495.9 -186.55 -497.5 -182.25 -480.55 -176.4 -457.65 -161.45 -453.25 -146.45 -448.9 -149.8 -436.05 -153.15 -423.15 -142.8 -414.3 -132.45 -405.5 -141.8 -393.0 -151.2 -380.5 -142.35 -367.4 -133.55 -354.3 -152.6 -348.2 -171.7 -342.1 -168.8 -330.0 -165.9 -317.85 -182.7 -315.55 -199.55 -313.25 -190.6 -305.9 -181.7 -298.55 -168.85 -298.35 -156.0 -298.15 -162.55 -282.5 -169.15 -266.85 -159.6 -257.65 -150.1 -248.5 -162.95 -238.45 -175.85 -228.4 -170.65 -219.1 -165.5 -209.85 -187.35 -214.8 -166.3 -246.6 -172.9 -272.15 -177.1 -288.35 -192.7 -296.35 -219.55 -309.85 -181.0 -341.05 -173.9 -346.85 -168.5 -352.85 L-168.0 -353.45 Q-144.8 -380.0 -154.65 -412.15 -166.9 -452.0 -204.25 -481.9 -241.65 -511.8 -306.7 -504.05 -357.8 -498.4 -387.1 -458.95 -416.4 -419.55 -393.1 -365.95 -385.85 -349.35 -364.75 -333.95 -345.3 -319.8 -372.1 -299.6 -398.9 -279.45 -405.7 -260.35 -412.55 -241.3 -401.45 -224.45" fill="#fd0202" fill-rule="evenodd" stroke="none"/>
      <path d="M-187.35 -214.8 Q-204.2 -212.7 -223.2 -219.25 -208.8 -252.3 -218.2 -269.55 -226.8 -285.2 -246.8 -290.05 -287.0 -299.75 -245.5 -332.4 -231.5 -343.45 -221.25 -361.25 -180.05 -432.9 -240.8 -460.85 -301.55 -488.8 -339.3 -452.25 -377.0 -415.7 -347.7 -390.8 -318.45 -365.9 -320.55 -328.45 -322.65 -291.05 -348.65 -272.35 -374.7 -253.65 -357.25 -225.0 -370.9 -219.6 -401.45 -224.45 -412.55 -241.3 -405.7 -260.35 -398.9 -279.45 -372.1 -299.6 -345.3 -319.8 -364.75 -333.95 -385.85 -349.35 -393.1 -365.95 -416.4 -419.55 -387.1 -458.95 -357.8 -498.4 -306.7 -504.05 -241.65 -511.8 -204.25 -481.9 -166.9 -452.0 -154.65 -412.15 -144.8 -380.0 -168.0 -353.45 L-168.5 -352.85 Q-173.9 -346.85 -181.0 -341.05 -219.55 -309.85 -192.7 -296.35 -177.1 -288.35 -172.9 -272.15 -166.3 -246.6 -187.35 -214.8" fill="#ffeeee" fill-rule="evenodd" stroke="none"/>
      <path d="M-401.45 -224.45 Q-425.15 -223.45 -418.8 -235.25 -412.5 -247.1 -418.75 -258.3 -425.05 -269.5 -410.35 -276.25 -395.7 -282.95 -395.95 -295.7 -396.2 -308.45 -380.25 -310.2 -364.3 -311.9 -375.5 -318.2 -386.7 -324.5 -382.0 -331.9 -377.35 -339.3 -395.45 -348.6 -404.9 -353.45 -402.2 -364.1 -399.65 -374.2 -409.55 -378.75 -419.45 -383.35 -413.95 -395.75 -408.5 -408.2 -418.3 -414.8 -428.15 -421.45 -414.8 -431.25 -401.5 -441.05 -402.5 -458.15 -403.5 -475.25 -386.05 -478.1 -369.9 -480.9 -366.55 -497.2 -363.25 -513.5 -341.9 -508.35 -320.55 -503.25 -314.95 -514.4 -309.4 -525.55 -291.85 -516.0 -274.35 -506.45 -260.95 -515.45 -247.55 -524.5 -234.75 -510.8 -222.0 -497.1 -207.05 -495.9 -186.55 -497.5 -182.25 -480.55 -176.4 -457.65 -161.45 -453.25 -146.45 -448.9 -149.8 -436.05 -153.15 -423.15 -142.8 -414.3 -132.45 -405.5 -141.8 -393.0 -151.2 -380.5 -142.35 -367.4 -133.55 -354.3 -152.6 -348.2 -171.7 -342.1 -168.8 -330.0 -165.9 -317.85 -182.7 -315.55 -199.55 -313.25 -190.6 -305.9 -181.7 -298.55 -168.85 -298.35 -156.0 -298.15 -162.55 -282.5 -169.15 -266.85 -159.6 -257.65 -150.1 -248.5 -162.95 -238.45 -175.85 -228.4 -170.65 -219.1 -165.5 -209.85 -187.35 -214.8 -204.2 -212.7 -223.2 -219.25 -208.8 -252.3 -218.2 -269.55 -226.8 -285.2 -246.8 -290.05 -287.0 -299.75 -245.5 -332.4 -231.5 -343.45 -221.25 -361.25 -180.05 -432.9 -240.8 -460.85 -301.55 -488.8 -339.3 -452.25 -377.0 -415.7 -347.7 -390.8 -318.45 -365.9 -320.55 -328.45 -322.65 -291.05 -348.65 -272.35 -374.7 -253.65 -357.25 -225.0 -370.9 -219.6 -401.45 -224.45 -412.55 -241.3 -405.7 -260.35 -398.9 -279.45 -372.1 -299.6 -345.3 -319.8 -364.75 -333.95 -385.85 -349.35 -393.1 -365.95 -416.4 -419.55 -387.1 -458.95 -357.8 -498.4 -306.7 -504.05 -241.65 -511.8 -204.25 -481.9 -166.9 -452.0 -154.65 -412.15 -144.8 -380.0 -168.0 -353.45 M-168.5 -352.85 Q-173.9 -346.85 -181.0 -341.05 -219.55 -309.85 -192.7 -296.35 -177.1 -288.35 -172.9 -272.15 -166.3 -246.6 -187.35 -214.8" fill="none" stroke="#000000" stroke-linecap="round" stroke-linejoin="round" stroke-width="4.0"/>
      <path d="M-249.15 -190.2 L-240.9 -191.25 -241.15 -190.95 -239.8 -191.25 Q-239.75 -187.85 -240.05 -186.65 -240.6 -184.3 -242.9 -184.3 -247.75 -184.3 -248.8 -188.75 L-248.85 -189.05 -249.15 -190.15 -249.15 -190.2 M-315.2 -188.7 L-308.55 -189.55 -308.35 -189.5 -304.7 -189.75 Q-303.45 -189.85 -302.95 -189.15 L-302.95 -189.05 -302.9 -189.05 -302.85 -188.95 -302.95 -187.45 -303.2 -186.2 Q-303.5 -185.1 -303.95 -184.35 -305.35 -182.3 -309.15 -182.95 -312.95 -183.65 -314.05 -186.3 L-315.2 -188.7" fill="#ff4d4d" fill-rule="evenodd" stroke="none"/>
      <path d="M-239.8 -191.25 L-239.8 -191.3 -239.85 -192.0 Q-239.95 -195.8 -239.5 -197.35 -238.7 -199.8 -236.0 -199.8 -233.45 -199.8 -232.5 -197.3 -231.6 -194.85 -232.2 -189.9 -232.2 -184.0 -232.9 -181.95 -234.95 -176.2 -242.5 -176.2 -251.5 -176.2 -255.5 -183.05 -256.8 -185.3 -257.4 -187.9 L-257.8 -190.25 Q-257.8 -191.5 -256.75 -192.5 -255.55 -193.8 -253.5 -193.8 -250.9 -193.8 -249.85 -192.25 L-249.15 -190.2 -249.15 -190.15 -248.85 -189.05 -248.8 -188.75 Q-247.75 -184.3 -242.9 -184.3 -240.6 -184.3 -240.05 -186.65 -239.75 -187.85 -239.8 -191.25 M-302.95 -189.15 Q-302.85 -192.7 -302.5 -193.65 -301.75 -195.8 -299.0 -195.8 -296.45 -195.8 -295.5 -193.85 -294.6 -191.95 -295.2 -188.15 -295.2 -184.95 -298.45 -180.2 -302.6 -174.2 -308.5 -174.2 -319.15 -174.2 -322.55 -181.7 -324.25 -185.5 -323.8 -189.25 -323.8 -194.8 -320.0 -194.8 -317.45 -194.8 -316.6 -192.8 L-316.1 -190.55 -315.6 -189.35 -315.2 -188.7 -314.05 -186.3 Q-312.95 -183.65 -309.15 -182.95 -305.35 -182.3 -303.95 -184.35 -303.5 -185.1 -303.2 -186.2 L-302.95 -187.45 -302.85 -188.95 -302.8 -189.4 -302.9 -189.05 -302.95 -189.05 -302.95 -189.15" fill="#000000" fill-rule="evenodd" stroke="none"/>
      <path d="M-239.95 -508.65 L-260.4 -512.75 -284.35 -514.05 Q-301.05 -514.2 -313.3 -510.2 -325.55 -506.2 -340.25 -490.5 -355.0 -474.8 -362.9 -446.65 -370.8 -418.55 -380.35 -395.6 -389.95 -372.65 -378.45 -353.7 -377.45 -360.0 -374.15 -375.8 L-372.65 -383.35 Q-371.95 -380.15 -366.3 -365.15 -363.05 -356.6 -354.35 -348.5 -363.65 -359.45 -357.3 -378.25 -356.5 -376.65 -355.85 -372.95 L-354.65 -365.8 Q-352.8 -356.2 -348.6 -352.25 -345.4 -367.7 -347.0 -379.05 -348.65 -390.4 -351.45 -395.9 -337.75 -387.6 -341.15 -365.45 -344.55 -343.35 -335.0 -332.85 -340.0 -341.8 -336.25 -357.85 -332.55 -373.95 -332.8 -392.6 -333.1 -411.3 -335.2 -414.65 -342.95 -411.05 -347.3 -408.05 L-338.0 -424.0 Q-332.45 -433.6 -327.7 -446.65 -322.95 -459.7 -322.05 -463.0 -319.4 -460.1 -322.2 -444.7 -324.75 -431.1 -326.15 -428.85 -308.3 -437.2 -295.65 -451.25 -287.65 -460.15 -283.45 -471.35 -282.65 -473.45 -280.9 -473.55 -280.45 -458.4 -296.25 -440.4 -279.65 -448.55 -264.35 -459.25 -257.05 -464.35 -254.85 -467.05 -254.1 -462.05 -257.35 -447.4 -252.2 -451.4 -244.65 -462.8 L-236.2 -475.9 Q-235.7 -475.75 -227.35 -438.25 -225.2 -440.5 -221.45 -445.7 -217.6 -451.05 -216.4 -454.1 -215.25 -457.2 -208.0 -446.85 -200.75 -436.55 -198.15 -434.1 -180.4 -420.25 -172.1 -410.6 L-171.5 -409.75 Q-172.8 -417.0 -175.65 -425.6 -178.05 -432.85 -182.25 -439.8 L-190.1 -454.15 -174.15 -441.25 Q-178.4 -458.6 -189.4 -474.85 -200.4 -491.15 -213.55 -498.45 -226.75 -505.8 -239.95 -508.65 M-286.3 -521.9 Q-272.05 -522.25 -245.8 -518.4 -219.6 -514.6 -201.05 -498.0 -182.55 -481.4 -174.65 -464.65 -166.8 -447.9 -165.7 -425.6 L-170.3 -428.5 Q-166.4 -422.55 -165.0 -409.35 -163.55 -395.85 -166.8 -391.8 -164.15 -385.75 -160.15 -379.8 -156.15 -373.9 -156.1 -366.55 -156.1 -359.25 -163.35 -350.1 -170.6 -340.95 -178.0 -338.2 L-176.8 -345.25 Q-178.55 -343.45 -182.8 -341.0 -186.85 -338.65 -190.6 -337.8 -188.75 -341.6 -188.85 -344.75 -191.35 -342.35 -193.55 -341.2 -198.65 -338.6 -204.45 -338.25 L-204.85 -338.4 -203.8 -342.35 Q-218.15 -335.25 -223.6 -336.35 L-221.8 -343.1 Q-238.05 -335.65 -250.5 -332.4 -270.05 -327.25 -287.15 -327.25 -305.35 -327.25 -321.75 -337.75 -325.6 -340.2 -331.8 -346.45 -333.6 -336.65 -322.9 -319.1 -332.55 -322.75 -336.85 -326.45 -341.15 -330.15 -344.6 -337.65 L-346.4 -337.65 Q-355.35 -338.25 -364.95 -349.4 -367.95 -352.85 -370.25 -356.8 L-370.6 -354.6 Q-372.25 -344.5 -369.95 -342.35 -381.95 -344.4 -386.9 -352.4 -391.9 -360.4 -392.25 -373.9 -392.65 -387.45 -386.45 -403.7 -380.3 -419.95 -374.5 -440.55 -368.7 -461.2 -361.75 -476.9 -354.8 -492.6 -342.85 -502.35 -330.95 -512.15 -315.75 -516.85 -300.55 -521.6 -286.3 -521.9 M-285.95 -438.15 Q-298.25 -432.35 -306.5 -432.25 L-329.25 -418.3 Q-327.0 -411.7 -326.45 -401.0 -325.3 -378.35 -330.2 -356.2 L-324.15 -350.35 Q-311.2 -335.0 -276.4 -335.0 -265.65 -335.0 -250.1 -339.55 -235.05 -343.95 -220.7 -350.95 -205.75 -358.25 -196.75 -365.9 -186.9 -374.3 -186.9 -381.0 -186.9 -382.2 -188.75 -386.45 L-192.9 -395.95 Q-198.9 -411.05 -198.9 -424.15 L-198.9 -424.3 Q-205.25 -430.1 -213.65 -444.9 -214.95 -442.45 -222.15 -434.1 -229.25 -425.85 -235.65 -424.25 -231.4 -426.15 -238.25 -458.55 -244.45 -449.2 -247.85 -446.15 -255.25 -439.5 -271.45 -437.75 -264.7 -443.4 -264.2 -451.4 -274.2 -443.75 -285.95 -438.15 M-190.4 -410.0 Q-190.05 -408.15 -184.6 -395.3 L-180.7 -385.55 Q-179.4 -382.05 -179.4 -381.15 -179.4 -373.05 -188.8 -363.7 L-189.65 -362.9 -189.75 -362.8 Q-191.95 -360.7 -196.85 -357.05 L-198.3 -346.2 Q-189.15 -348.6 -182.45 -366.9 -181.4 -360.85 -184.0 -347.1 -174.95 -354.35 -173.2 -367.45 -171.75 -378.35 -172.3 -380.2 -164.8 -371.15 -169.95 -356.75 L-172.1 -349.4 Q-168.15 -352.95 -164.65 -361.35 -161.2 -369.75 -166.55 -377.15 -171.9 -384.6 -173.05 -389.55 -174.2 -394.55 -173.9 -397.05 -178.45 -409.55 -190.75 -417.9 -190.85 -412.45 -190.4 -410.0 M-203.0 -352.6 Q-204.55 -351.65 -215.8 -345.05 -208.7 -344.0 -201.95 -353.35 L-203.0 -352.6" fill="#000000" fill-rule="evenodd" stroke="none"/>
      <path d="M-239.95 -508.65 Q-226.75 -505.8 -213.55 -498.45 -200.4 -491.15 -189.4 -474.85 -178.4 -458.6 -174.15 -441.25 L-190.1 -454.15 -182.25 -439.8 Q-178.05 -432.85 -175.65 -425.6 -172.8 -417.0 -171.5 -409.75 L-172.1 -410.6 Q-180.4 -420.25 -198.15 -434.1 -200.75 -436.55 -208.0 -446.85 -215.25 -457.2 -216.4 -454.1 -217.6 -451.05 -221.45 -445.7 -225.2 -440.5 -227.35 -438.25 -235.7 -475.75 -236.2 -475.9 L-244.65 -462.8 Q-252.2 -451.4 -257.35 -447.4 -254.1 -462.05 -254.85 -467.05 -257.05 -464.35 -264.35 -459.25 -279.65 -448.55 -296.25 -440.4 -280.45 -458.4 -280.9 -473.55 -282.65 -473.45 -283.45 -471.35 -287.65 -460.15 -295.65 -451.25 -308.3 -437.2 -326.15 -428.85 -324.75 -431.1 -322.2 -444.7 -319.4 -460.1 -322.05 -463.0 -322.95 -459.7 -327.7 -446.65 -332.45 -433.6 -338.0 -424.0 L-347.3 -408.05 Q-342.95 -411.05 -335.2 -414.65 -333.1 -411.3 -332.8 -392.6 -332.55 -373.95 -336.25 -357.85 -340.0 -341.8 -335.0 -332.85 -344.55 -343.35 -341.15 -365.45 -337.75 -387.6 -351.45 -395.9 -348.65 -390.4 -347.0 -379.05 -345.4 -367.7 -348.6 -352.25 -352.8 -356.2 -354.65 -365.8 L-355.85 -372.95 Q-356.5 -376.65 -357.3 -378.25 -363.65 -359.45 -354.35 -348.5 -363.05 -356.6 -366.3 -365.15 -371.95 -380.15 -372.65 -383.35 L-374.15 -375.8 Q-377.45 -360.0 -378.45 -353.7 -389.95 -372.65 -380.35 -395.6 -370.8 -418.55 -362.9 -446.65 -355.0 -474.8 -340.25 -490.5 -325.55 -506.2 -313.3 -510.2 -301.05 -514.2 -284.35 -514.05 L-260.4 -512.75 -239.95 -508.65 M-203.0 -352.6 L-201.95 -353.35 Q-208.7 -344.0 -215.8 -345.05 -204.55 -351.65 -203.0 -352.6 M-190.4 -410.0 Q-190.85 -412.45 -190.75 -417.9 -178.45 -409.55 -173.9 -397.05 -174.2 -394.55 -173.05 -389.55 -171.9 -384.6 -166.55 -377.15 -161.2 -369.75 -164.65 -361.35 -168.15 -352.95 -172.1 -349.4 L-169.95 -356.75 Q-164.8 -371.15 -172.3 -380.2 -171.75 -378.35 -173.2 -367.45 -174.95 -354.35 -184.0 -347.1 -181.4 -360.85 -182.45 -366.9 -189.15 -348.6 -198.3 -346.2 L-196.85 -357.05 Q-191.95 -360.7 -189.75 -362.8 L-189.65 -362.9 -188.8 -363.7 Q-179.4 -373.05 -179.4 -381.15 -179.4 -382.05 -180.7 -385.55 L-184.6 -395.3 Q-190.05 -408.15 -190.4 -410.0" fill="#8c75ea" fill-rule="evenodd" stroke="none"/>
      <path d="M-285.95 -438.15 Q-274.2 -443.75 -264.2 -451.4 -264.7 -443.4 -271.45 -437.75 -255.25 -439.5 -247.85 -446.15 -244.45 -449.2 -238.25 -458.55 -231.4 -426.15 -235.65 -424.25 -229.25 -425.85 -222.15 -434.1 -214.95 -442.45 -213.65 -444.9 -205.25 -430.1 -198.9 -424.3 L-198.9 -424.15 Q-198.9 -411.05 -192.9 -395.95 L-188.75 -386.45 Q-186.9 -382.2 -186.9 -381.0 -186.9 -374.3 -196.75 -365.9 -205.75 -358.25 -220.7 -350.95 -235.05 -343.95 -250.1 -339.55 -265.65 -335.0 -276.4 -335.0 -311.2 -335.0 -324.15 -350.35 L-330.2 -356.2 Q-325.3 -378.35 -326.45 -401.0 -327.0 -411.7 -329.25 -418.3 L-306.5 -432.25 Q-298.25 -432.35 -285.95 -438.15" fill="#fff1dd" fill-rule="evenodd" stroke="none"/>
      <path d="M-376.6 -376.6 Q-375.55 -374.75 -377.4 -373.1 L-377.85 -372.8 -378.95 -372.6 -380.8 -373.3 Q-382.05 -376.45 -382.4 -379.85 -383.05 -385.7 -378.9 -388.85 -376.9 -390.45 -375.0 -391.5 -370.0 -391.5 -366.95 -387.95 -363.6 -384.05 -363.85 -379.3 L-364.2 -378.3 Q-366.4 -377.35 -367.35 -379.7 L-367.75 -380.6 -369.05 -382.85 -370.65 -384.85 Q-371.85 -386.15 -373.8 -386.9 L-375.15 -386.45 -376.75 -385.6 -377.4 -385.1 Q-378.05 -383.75 -378.2 -382.15 -378.35 -380.4 -377.9 -379.0 -377.6 -377.95 -376.95 -377.15 L-376.6 -376.6 M-229.4 -265.45 L-227.35 -265.35 -226.85 -265.1 -226.15 -264.25 Q-225.85 -263.35 -225.8 -262.3 -227.95 -259.65 -230.7 -257.65 -235.45 -254.15 -240.25 -256.15 -242.65 -257.1 -244.5 -258.2 -247.0 -262.55 -245.45 -266.95 -243.75 -271.8 -239.5 -273.95 L-238.45 -274.15 Q-236.55 -272.75 -238.1 -270.75 L-239.2 -269.1 -240.75 -265.7 -240.9 -265.3 Q-241.45 -263.65 -241.1 -261.55 L-240.05 -260.6 -238.5 -259.65 -237.75 -259.35 Q-236.25 -259.45 -234.8 -260.1 -232.95 -261.0 -231.9 -262.25 L-231.05 -263.7 Q-230.5 -265.1 -229.4 -265.45" fill="#000000" fill-rule="evenodd" stroke="none"/>
      <path d="M-367.75 -380.6 L-371.75 -378.0 Q-374.3 -376.6 -376.6 -376.6 L-376.95 -377.15 Q-377.6 -377.95 -377.9 -379.0 -378.35 -380.4 -378.2 -382.15 -378.05 -383.75 -377.4 -385.1 L-376.75 -385.6 -375.15 -386.45 -373.8 -386.9 Q-371.85 -386.15 -370.65 -384.85 L-369.05 -382.85 -367.75 -380.6 M-239.2 -269.1 L-238.45 -269.55 -238.0 -269.75 Q-234.5 -269.4 -231.65 -267.4 L-229.4 -265.45 Q-230.5 -265.1 -231.05 -263.7 L-231.9 -262.25 Q-232.95 -261.0 -234.8 -260.1 -236.25 -259.45 -237.75 -259.35 L-238.5 -259.65 -240.05 -260.6 -241.1 -261.55 Q-241.45 -263.65 -240.9 -265.3 L-240.75 -265.7 -239.2 -269.1" fill="#fff1dd" fill-rule="evenodd" stroke="none"/>
      <path d="M-356.55 -367.05 Q-350.85 -362.75 -346.95 -352.7 L-333.45 -316.8 Q-328.55 -303.6 -328.95 -302.75 -332.2 -303.85 -335.45 -305.6 -357.0 -317.35 -378.45 -357.7 -368.1 -366.8 -356.55 -367.05 M-381.1 -362.8 Q-383.9 -368.25 -385.0 -371.25 -375.25 -378.55 -361.65 -380.2 -356.1 -378.55 -359.95 -371.75 -372.9 -369.35 -381.1 -362.8 M-238.95 -282.2 Q-247.75 -286.5 -246.05 -305.4 -244.35 -324.3 -262.15 -328.0 -223.95 -322.7 -216.65 -302.7 -209.35 -282.75 -217.6 -274.85 -228.4 -275.5 -238.95 -282.2 M-218.7 -270.35 L-220.35 -264.45 Q-220.8 -262.4 -223.3 -261.9 L-244.3 -270.4 Q-247.3 -276.75 -237.75 -276.1 -227.4 -270.35 -218.7 -270.35" fill="#ffeeee" fill-rule="evenodd" stroke="none"/>
      <path d="M-359.95 -371.75 Q-356.65 -372.55 -355.1 -370.25 -353.55 -367.95 -356.55 -367.05 -368.1 -366.8 -378.45 -357.7 L-381.1 -362.75 -381.1 -362.8 Q-372.9 -369.35 -359.95 -371.75 M-238.95 -282.2 Q-228.4 -275.5 -217.6 -274.85 -217.6 -272.95 -218.7 -270.35 -227.4 -270.35 -237.75 -276.1 -242.8 -278.0 -238.95 -282.2" fill="#fd2d2d" fill-rule="evenodd" stroke="none"/>
      <path d="M-373.1 -345.25 L-373.6 -346.2 -373.1 -345.3 -373.1 -345.25" fill="#ffffff" fill-rule="evenodd" stroke="none"/>
      <path d="M-359.95 -371.75 Q-356.65 -372.55 -355.1 -370.25 -353.55 -367.95 -356.55 -367.05 -350.85 -362.75 -346.95 -352.7 L-333.45 -316.8 Q-328.55 -303.6 -328.95 -302.75 -332.2 -303.85 -335.45 -305.6 -357.0 -317.35 -378.45 -357.7 L-381.1 -362.75 M-381.1 -362.8 Q-383.9 -368.25 -385.0 -371.25 -375.25 -378.55 -361.65 -380.2 -356.1 -378.55 -359.95 -371.75 M-373.1 -345.25 L-373.6 -346.2 -373.1 -345.3 M-217.6 -274.85 Q-209.35 -282.75 -216.65 -302.7 -223.95 -322.7 -262.15 -328.0 -244.35 -324.3 -246.05 -305.4 -247.75 -286.5 -238.95 -282.2 M-217.6 -274.85 Q-217.6 -272.95 -218.7 -270.35 L-220.35 -264.45 Q-220.8 -262.4 -223.3 -261.9 L-244.3 -270.4 Q-247.3 -276.75 -237.75 -276.1 -242.8 -278.0 -238.95 -282.2" fill="none" stroke="#000000" stroke-linecap="round" stroke-linejoin="round" stroke-width="5.0"/>
      <path d="M-359.95 -371.75 Q-372.9 -369.35 -381.1 -362.8 M-356.55 -367.05 Q-368.1 -366.8 -378.45 -357.7 M-238.95 -282.2 Q-228.4 -275.5 -217.6 -274.85 M-237.75 -276.1 Q-227.4 -270.35 -218.7 -270.35" fill="none" stroke="#000000" stroke-linecap="round" stroke-linejoin="round" stroke-width="3.0"/>
      <path d="M-344.15 -346.55 L-343.65 -346.25 Q-341.3 -344.75 -338.95 -342.8 -331.7 -327.1 -335.0 -322.1 -338.3 -317.1 -334.3 -312.05 L-328.6 -305.45 -326.0 -302.75 Q-323.9 -300.45 -321.5 -295.4 -319.75 -291.65 -316.35 -291.4 -313.15 -291.25 -308.55 -294.1 L-307.7 -294.6 Q-298.6 -299.65 -290.65 -290.45 -285.7 -284.6 -278.85 -289.35 -272.0 -294.1 -269.05 -293.85 -266.1 -293.6 -263.6 -291.8 -261.65 -290.45 -258.75 -290.0 L-257.0 -289.8 Q-254.85 -289.65 -253.4 -291.8 -252.0 -293.95 -250.65 -301.8 -249.3 -309.65 -235.35 -311.8 L-224.9 -313.65 -218.45 -308.2 Q-225.4 -300.15 -225.85 -297.95 -227.75 -288.9 -231.3 -289.15 L-236.1 -288.7 Q-237.35 -288.0 -240.05 -284.75 -242.8 -281.55 -243.7 -279.25 -244.6 -276.95 -247.4 -280.15 -250.25 -283.35 -251.95 -284.65 -253.65 -285.95 -254.9 -285.8 L-258.0 -285.25 Q-259.9 -284.85 -261.2 -283.65 -262.55 -282.5 -263.2 -280.45 L-265.2 -275.1 Q-266.55 -271.85 -270.95 -274.1 -275.35 -276.35 -278.75 -280.55 -282.2 -284.75 -288.5 -278.15 -294.8 -271.6 -298.6 -274.65 -302.4 -277.7 -303.8 -280.15 -305.2 -282.55 -306.65 -282.7 L-308.95 -282.6 Q-309.85 -282.45 -310.3 -282.0 L-312.7 -279.6 Q-314.4 -277.95 -316.85 -277.4 L-320.7 -276.55 Q-322.2 -276.3 -323.35 -279.35 L-325.0 -284.15 -326.1 -287.95 Q-326.7 -290.05 -328.0 -290.25 -329.25 -290.5 -333.65 -289.35 -338.1 -288.2 -337.95 -292.9 -337.8 -297.65 -335.95 -301.1 -334.1 -304.6 -337.3 -307.0 -340.6 -309.45 -341.9 -313.4 -343.25 -317.35 -342.85 -319.5 -342.45 -321.7 -342.8 -325.4 -343.2 -329.1 -344.0 -333.1 -344.8 -337.15 -344.15 -346.55 M-332.1 -344.95 L-312.05 -332.7 -307.35 -330.95 -307.3 -330.95 Q-301.2 -328.9 -290.1 -328.05 L-289.5 -327.1 -289.3 -326.8 -289.05 -326.4 -282.45 -316.15 Q-279.7 -318.85 -277.9 -327.2 L-277.7 -328.0 Q-271.8 -328.35 -263.85 -329.75 L-259.6 -330.6 Q-247.5 -330.1 -233.25 -322.85 L-227.7 -319.8 Q-242.6 -317.8 -247.45 -315.4 -252.35 -313.0 -255.3 -307.6 -258.3 -302.2 -258.15 -300.55 -258.05 -298.9 -259.45 -298.1 L-262.15 -298.0 -265.45 -300.5 Q-267.5 -302.35 -270.2 -302.6 -272.95 -302.85 -279.3 -298.7 -285.7 -294.6 -291.3 -299.5 -296.9 -304.45 -301.55 -303.5 L-308.65 -301.9 -314.05 -300.45 Q-317.0 -299.65 -319.5 -304.25 L-322.8 -310.5 Q-323.55 -312.15 -325.05 -312.15 -326.6 -312.2 -328.0 -315.65 -329.45 -319.15 -327.1 -325.7 -324.75 -332.3 -332.1 -344.95 M-312.25 -272.0 L-311.2 -273.0 Q-309.9 -274.05 -308.75 -273.95 -306.75 -273.8 -306.05 -272.8 -304.55 -270.7 -302.6 -269.25 -296.4 -264.6 -289.35 -271.3 -282.3 -278.05 -278.5 -273.05 -274.75 -268.1 -270.15 -266.8 -265.55 -265.5 -263.9 -267.35 -262.3 -269.2 -261.5 -270.9 -260.75 -272.6 -258.75 -274.7 -256.9 -276.8 -254.45 -277.1 L-252.4 -271.15 -250.15 -264.7 -248.95 -261.3 -247.65 -257.65 -247.4 -256.9 -246.5 -254.25 Q-279.25 -245.55 -316.0 -249.6 L-315.25 -254.65 -315.15 -255.2 -314.2 -261.3 -314.0 -262.5 -313.8 -263.55 -312.25 -272.0 M-259.6 -330.6 Q-260.85 -327.55 -262.45 -324.55 -264.55 -320.75 -267.2 -316.95 -270.45 -312.4 -274.55 -307.95 L-282.45 -316.15 Q-285.8 -311.35 -289.9 -308.15 -297.3 -312.35 -303.0 -318.9 -306.05 -322.4 -308.6 -326.5 L-312.05 -332.7 -308.6 -326.5 Q-306.05 -322.4 -303.0 -318.9 -297.3 -312.35 -289.9 -308.15 -285.8 -311.35 -282.45 -316.15 L-274.55 -307.95 Q-270.45 -312.4 -267.2 -316.95 -264.55 -320.75 -262.45 -324.55 -260.85 -327.55 -259.6 -330.6" fill="#ffeeee" fill-rule="evenodd" stroke="none"/>
      <path d="M-307.35 -330.95 L-307.05 -331.9 -307.05 -338.6 Q-294.9 -334.55 -277.0 -334.55 L-265.4 -335.6 -263.85 -329.75 Q-271.8 -328.35 -277.7 -328.0 L-277.9 -327.2 -284.75 -326.85 -287.75 -326.8 -289.3 -326.8 -289.5 -327.1 -290.1 -328.05 Q-301.2 -328.9 -307.3 -330.95 L-307.35 -330.95 M-247.1 -273.2 L-246.4 -271.25 -242.75 -261.3 -233.6 -236.25 -229.3 -224.5 -227.1 -218.45 -225.05 -212.9 -223.4 -208.3 Q-222.4 -204.7 -222.8 -202.15 -223.05 -200.55 -223.8 -199.4 -225.8 -196.4 -230.85 -194.0 -242.85 -188.25 -284.15 -188.25 L-296.25 -188.3 -325.65 -189.45 Q-327.15 -189.7 -329.55 -192.15 L-331.6 -194.35 -331.95 -195.4 -332.0 -195.7 Q-332.55 -200.6 -329.05 -221.6 L-328.85 -222.85 -327.65 -229.8 -327.55 -230.4 -327.05 -233.15 -321.95 -261.3 -320.55 -268.8 Q-316.6 -268.4 -313.65 -270.8 L-312.25 -272.0 -313.8 -263.55 -314.0 -262.5 -314.2 -261.3 -315.15 -255.2 -315.25 -254.65 -316.0 -249.6 -316.5 -246.5 -316.85 -244.0 -317.8 -237.8 -317.8 -237.75 -318.65 -231.45 -318.7 -231.5 -318.7 -231.45 -318.85 -230.4 -319.35 -226.8 -320.25 -220.95 -322.2 -207.3 -322.85 -203.5 -323.05 -202.35 -324.1 -197.7 -318.8 -196.6 -296.25 -195.8 Q-280.7 -195.75 -254.7 -196.0 -225.9 -199.9 -228.95 -207.25 L-229.2 -207.9 -230.7 -211.55 -230.85 -211.85 -236.35 -226.05 -236.75 -227.1 -244.65 -249.05 -243.85 -249.3 -244.65 -249.05 -244.65 -249.15 -246.5 -254.25 -247.4 -256.9 -247.65 -257.65 -248.95 -261.3 -250.15 -264.7 -252.4 -271.15 -254.45 -277.1 -254.25 -277.15 Q-251.75 -277.45 -248.3 -274.25 L-247.1 -273.2 M-243.85 -255.0 L-246.5 -254.25 -243.85 -255.0 M-319.45 -244.3 L-316.85 -244.0 -319.45 -244.3 M-319.45 -250.0 L-316.0 -249.6 -319.45 -250.0" fill="#000000" fill-rule="evenodd" stroke="none"/>
      <path d="M-246.5 -254.25 L-244.65 -249.15 -244.65 -249.05 Q-278.6 -239.65 -316.85 -244.0 -278.6 -239.65 -244.65 -249.05 L-236.75 -227.1 -236.35 -226.05 -230.85 -211.85 -230.7 -211.55 -229.2 -207.9 -228.95 -207.25 Q-225.9 -199.9 -254.7 -196.0 -280.7 -195.75 -296.25 -195.8 L-318.8 -196.6 -324.1 -197.7 -323.05 -202.35 -322.85 -203.5 -322.2 -207.3 -320.25 -220.95 -319.35 -226.8 -318.85 -230.4 -318.7 -231.45 -318.65 -231.45 -317.8 -237.75 -317.8 -237.8 -316.85 -244.0 -316.5 -246.5 -316.0 -249.6 Q-279.25 -245.55 -246.5 -254.25 M-229.2 -207.9 L-230.15 -207.9 Q-235.45 -207.9 -238.5 -205.45 -241.55 -203.05 -245.65 -202.15 -249.75 -201.25 -255.75 -203.3 -261.8 -205.4 -269.75 -201.3 -272.6 -199.65 -275.6 -199.2 L-281.75 -199.45 Q-284.25 -200.0 -286.8 -201.3 -295.6 -205.75 -303.3 -201.6 -310.65 -198.7 -317.45 -201.75 -320.0 -202.95 -322.5 -203.4 L-322.85 -203.5 -322.5 -203.4 Q-320.0 -202.95 -317.45 -201.75 -310.65 -198.7 -303.3 -201.6 -295.6 -205.75 -286.8 -201.3 -284.25 -200.0 -281.75 -199.45 L-275.6 -199.2 Q-272.6 -199.65 -269.75 -201.3 -261.8 -205.4 -255.75 -203.3 -249.75 -201.25 -245.65 -202.15 -241.55 -203.05 -238.5 -205.45 -235.45 -207.9 -230.15 -207.9 L-229.2 -207.9" fill="#382b25" fill-rule="evenodd" stroke="none"/>
      <path d="M-289.05 -326.4 L-289.3 -326.8 -287.75 -326.8 -284.75 -326.85 -277.9 -327.2 Q-279.7 -318.85 -282.45 -316.15 L-289.05 -326.4" fill="#fff1dd" fill-rule="evenodd" stroke="none"/>
      <path d="M-320.55 -268.8 L-322.45 -269.15 Q-324.55 -269.75 -326.0 -271.0 -327.6 -272.45 -328.35 -274.75 L-329.3 -277.95 Q-329.95 -280.05 -331.95 -281.0 -334.0 -282.0 -339.7 -283.8 -345.45 -285.55 -344.5 -289.8 L-342.25 -298.15 Q-341.0 -302.25 -345.8 -305.05 -350.65 -307.85 -350.8 -309.9 -351.0 -311.95 -350.05 -314.2 -349.15 -316.4 -348.55 -318.65 -347.95 -320.9 -347.8 -323.75 -347.65 -326.65 -350.95 -332.05 -354.25 -337.5 -348.15 -349.5 L-347.1 -348.6 -347.05 -348.55 -345.95 -347.75 -344.55 -346.8 -344.15 -346.55 Q-344.8 -337.15 -344.0 -333.1 -343.2 -329.1 -342.8 -325.4 -342.45 -321.7 -342.85 -319.5 -343.25 -317.35 -341.9 -313.4 -340.6 -309.45 -337.3 -307.0 -334.1 -304.6 -335.95 -301.1 -337.8 -297.65 -337.95 -292.9 -338.1 -288.2 -333.65 -289.35 -329.25 -290.5 -328.0 -290.25 -326.7 -290.05 -326.1 -287.95 L-325.0 -284.15 -323.35 -279.35 Q-322.2 -276.3 -320.7 -276.55 L-316.85 -277.4 Q-314.4 -277.95 -312.7 -279.6 L-310.3 -282.0 Q-309.85 -282.45 -308.95 -282.6 L-306.65 -282.7 Q-305.2 -282.55 -303.8 -280.15 -302.4 -277.7 -298.6 -274.65 -294.8 -271.6 -288.5 -278.15 -282.2 -284.75 -278.75 -280.55 -275.35 -276.35 -270.95 -274.1 -266.55 -271.85 -265.2 -275.1 L-263.2 -280.45 Q-262.55 -282.5 -261.2 -283.65 -259.9 -284.85 -258.0 -285.25 L-254.9 -285.8 Q-253.65 -285.95 -251.95 -284.65 -250.25 -283.35 -247.4 -280.15 -244.6 -276.95 -243.7 -279.25 -242.8 -281.55 -240.05 -284.75 -237.35 -288.0 -236.1 -288.7 L-231.3 -289.15 Q-227.75 -288.9 -225.85 -297.95 -225.4 -300.15 -218.45 -308.2 L-212.0 -302.75 Q-220.75 -298.6 -220.9 -290.55 -223.15 -280.35 -228.4 -280.9 -233.7 -281.45 -235.6 -280.85 -237.5 -280.25 -238.65 -276.0 -239.85 -271.8 -242.35 -271.4 -244.45 -271.15 -247.1 -273.2 L-248.3 -274.25 Q-251.75 -277.45 -254.25 -277.15 L-254.45 -277.1 Q-256.9 -276.8 -258.75 -274.7 -260.75 -272.6 -261.5 -270.9 -262.3 -269.2 -263.9 -267.35 -265.55 -265.5 -270.15 -266.8 -274.75 -268.1 -278.5 -273.05 -282.3 -278.05 -289.35 -271.3 -296.4 -264.6 -302.6 -269.25 -304.55 -270.7 -306.05 -272.8 -306.75 -273.8 -308.75 -273.95 -309.9 -274.05 -311.2 -273.0 L-312.25 -272.0 -313.65 -270.8 Q-316.6 -268.4 -320.55 -268.8 M-338.95 -342.8 L-338.7 -349.0 -332.1 -344.95 Q-324.75 -332.3 -327.1 -325.7 -329.45 -319.15 -328.0 -315.65 -326.6 -312.2 -325.05 -312.15 -323.55 -312.15 -322.8 -310.5 L-319.5 -304.25 Q-317.0 -299.65 -314.05 -300.45 L-308.65 -301.9 -301.55 -303.5 Q-296.9 -304.45 -291.3 -299.5 -285.7 -294.6 -279.3 -298.7 -272.95 -302.85 -270.2 -302.6 -267.5 -302.35 -265.45 -300.5 L-262.15 -298.0 -259.45 -298.1 Q-258.05 -298.9 -258.15 -300.55 -258.3 -302.2 -255.3 -307.6 -252.35 -313.0 -247.45 -315.4 -242.6 -317.8 -227.7 -319.8 -224.0 -317.65 -220.2 -315.05 -220.8 -314.5 -224.9 -313.65 L-235.35 -311.8 Q-249.3 -309.65 -250.65 -301.8 -252.0 -293.95 -253.4 -291.8 -254.85 -289.65 -257.0 -289.8 L-258.75 -290.0 Q-261.65 -290.45 -263.6 -291.8 -266.1 -293.6 -269.05 -293.85 -272.0 -294.1 -278.85 -289.35 -285.7 -284.6 -290.65 -290.45 -298.6 -299.65 -307.7 -294.6 L-308.55 -294.1 Q-313.15 -291.25 -316.35 -291.4 -319.75 -291.65 -321.5 -295.4 -323.9 -300.45 -326.0 -302.75 L-328.6 -305.45 -334.3 -312.05 Q-338.3 -317.1 -335.0 -322.1 -331.7 -327.1 -338.95 -342.8" fill="#fd0202" fill-rule="evenodd" stroke="none"/>
      <path d="M-320.55 -268.8 L-322.45 -269.15 Q-324.55 -269.75 -326.0 -271.0 -327.6 -272.45 -328.35 -274.75 L-329.3 -277.95 Q-329.95 -280.05 -331.95 -281.0 -334.0 -282.0 -339.7 -283.8 -345.45 -285.55 -344.5 -289.8 L-342.25 -298.15 Q-341.0 -302.25 -345.8 -305.05 -350.65 -307.85 -350.8 -309.9 -351.0 -311.95 -350.05 -314.2 -349.15 -316.4 -348.55 -318.65 -347.95 -320.9 -347.8 -323.75 -347.65 -326.65 -350.95 -332.05 -354.25 -337.5 -348.15 -349.5 L-347.1 -348.6 -347.05 -348.55 -345.95 -347.75 -344.55 -346.8 -344.15 -346.55 -343.65 -346.25 Q-341.3 -344.75 -338.95 -342.8 L-338.7 -349.0 -332.1 -344.95 -312.05 -332.7 -307.35 -330.95 M-263.85 -329.75 L-259.6 -330.6 Q-247.5 -330.1 -233.25 -322.85 L-227.7 -319.8 Q-224.0 -317.65 -220.2 -315.05 -220.8 -314.5 -224.9 -313.65 L-218.45 -308.2 -212.0 -302.75 Q-220.75 -298.6 -220.9 -290.55 -223.15 -280.35 -228.4 -280.9 -233.7 -281.45 -235.6 -280.85 -237.5 -280.25 -238.65 -276.0 -239.85 -271.8 -242.35 -271.4 -244.45 -271.15 -247.1 -273.2 M-320.55 -268.8 Q-316.6 -268.4 -313.65 -270.8 L-312.25 -272.0 -311.2 -273.0 Q-309.9 -274.05 -308.75 -273.95 -306.75 -273.8 -306.05 -272.8 -304.55 -270.7 -302.6 -269.25 -296.4 -264.6 -289.35 -271.3 -282.3 -278.05 -278.5 -273.05 -274.75 -268.1 -270.15 -266.8 -265.55 -265.5 -263.9 -267.35 -262.3 -269.2 -261.5 -270.9 -260.75 -272.6 -258.75 -274.7 -256.9 -276.8 -254.45 -277.1 L-254.25 -277.15 Q-251.75 -277.45 -248.3 -274.25 L-247.1 -273.2 M-338.95 -342.8 Q-331.7 -327.1 -335.0 -322.1 -338.3 -317.1 -334.3 -312.05 L-328.6 -305.45 -326.0 -302.75 Q-323.9 -300.45 -321.5 -295.4 -319.75 -291.65 -316.35 -291.4 -313.15 -291.25 -308.55 -294.1 L-307.7 -294.6 Q-298.6 -299.65 -290.65 -290.45 -285.7 -284.6 -278.85 -289.35 -272.0 -294.1 -269.05 -293.85 -266.1 -293.6 -263.6 -291.8 -261.65 -290.45 -258.75 -290.0 L-257.0 -289.8 Q-254.85 -289.65 -253.4 -291.8 -252.0 -293.95 -250.65 -301.8 -249.3 -309.65 -235.35 -311.8 L-224.9 -313.65 M-289.05 -326.4 L-282.45 -316.15 Q-279.7 -318.85 -277.9 -327.2 L-277.7 -328.0 Q-271.8 -328.35 -263.85 -329.75 M-289.5 -327.1 L-290.1 -328.05 Q-301.2 -328.9 -307.3 -330.95 L-307.35 -330.95 M-312.05 -332.7 L-308.6 -326.5 Q-306.05 -322.4 -303.0 -318.9 -297.3 -312.35 -289.9 -308.15 -285.8 -311.35 -282.45 -316.15 L-274.55 -307.95 Q-270.45 -312.4 -267.2 -316.95 -264.55 -320.75 -262.45 -324.55 -260.85 -327.55 -259.6 -330.6 M-246.5 -254.25 L-243.85 -255.0 M-244.65 -249.05 L-243.85 -249.3 M-246.5 -254.25 Q-279.25 -245.55 -316.0 -249.6 L-319.45 -250.0 M-316.85 -244.0 Q-278.6 -239.65 -244.65 -249.05 M-316.85 -244.0 L-319.45 -244.3 M-322.85 -203.5 L-322.5 -203.4 Q-320.0 -202.95 -317.45 -201.75 -310.65 -198.7 -303.3 -201.6 -295.6 -205.75 -286.8 -201.3 -284.25 -200.0 -281.75 -199.45 L-275.6 -199.2 Q-272.6 -199.65 -269.75 -201.3 -261.8 -205.4 -255.75 -203.3 -249.75 -201.25 -245.65 -202.15 -241.55 -203.05 -238.5 -205.45 -235.45 -207.9 -230.15 -207.9 L-229.2 -207.9" fill="none" stroke="#000000" stroke-linecap="round" stroke-linejoin="round" stroke-width="4.0"/>
      <path d="M-332.1 -344.95 Q-324.75 -332.3 -327.1 -325.7 -329.45 -319.15 -328.0 -315.65 -326.6 -312.2 -325.05 -312.15 -323.55 -312.15 -322.8 -310.5 L-319.5 -304.25 Q-317.0 -299.65 -314.05 -300.45 L-308.65 -301.9 -301.55 -303.5 Q-296.9 -304.45 -291.3 -299.5 -285.7 -294.6 -279.3 -298.7 -272.95 -302.85 -270.2 -302.6 -267.5 -302.35 -265.45 -300.5 L-262.15 -298.0 -259.45 -298.1 Q-258.05 -298.9 -258.15 -300.55 -258.3 -302.2 -255.3 -307.6 -252.35 -313.0 -247.45 -315.4 -242.6 -317.8 -227.7 -319.8 M-344.15 -346.55 Q-344.8 -337.15 -344.0 -333.1 -343.2 -329.1 -342.8 -325.4 -342.45 -321.7 -342.85 -319.5 -343.25 -317.35 -341.9 -313.4 -340.6 -309.45 -337.3 -307.0 -334.1 -304.6 -335.95 -301.1 -337.8 -297.65 -337.95 -292.9 -338.1 -288.2 -333.65 -289.35 -329.25 -290.5 -328.0 -290.25 -326.7 -290.05 -326.1 -287.95 L-325.0 -284.15 -323.35 -279.35 Q-322.2 -276.3 -320.7 -276.55 L-316.85 -277.4 Q-314.4 -277.95 -312.7 -279.6 L-310.3 -282.0 Q-309.85 -282.45 -308.95 -282.6 L-306.65 -282.7 Q-305.2 -282.55 -303.8 -280.15 -302.4 -277.7 -298.6 -274.65 -294.8 -271.6 -288.5 -278.15 -282.2 -284.75 -278.75 -280.55 -275.35 -276.35 -270.95 -274.1 -266.55 -271.85 -265.2 -275.1 L-263.2 -280.45 Q-262.55 -282.5 -261.2 -283.65 -259.9 -284.85 -258.0 -285.25 L-254.9 -285.8 Q-253.65 -285.95 -251.95 -284.65 -250.25 -283.35 -247.4 -280.15 -244.6 -276.95 -243.7 -279.25 -242.8 -281.55 -240.05 -284.75 -237.35 -288.0 -236.1 -288.7 L-231.3 -289.15 Q-227.75 -288.9 -225.85 -297.95 -225.4 -300.15 -218.45 -308.2" fill="none" stroke="#010101" stroke-linecap="round" stroke-linejoin="round" stroke-opacity="0.0" stroke-width="4.0"/>
      <path d="M-287.6 -290.75 Q-285.7 -295.55 -286.3 -296.95 L-288.3 -300.3 Q-289.6 -302.4 -289.2 -304.6 -288.65 -307.45 -285.3 -311.6 -287.35 -313.6 -285.3 -317.1 L-279.6 -317.1 Q-277.9 -314.35 -279.6 -311.6 L-279.35 -310.5 Q-278.85 -309.0 -277.6 -307.35 L-274.85 -303.5 Q-272.25 -298.75 -278.1 -291.8 -277.95 -294.7 -279.35 -296.85 L-280.3 -298.05 Q-282.4 -293.25 -287.6 -290.75 M-280.3 -298.05 L-282.4 -300.35 Q-286.6 -304.9 -285.3 -311.6 -282.8 -310.6 -279.6 -311.6 -282.8 -310.6 -285.3 -311.6 -286.6 -304.9 -282.4 -300.35 L-280.3 -298.05" fill="#fd0202" fill-rule="evenodd" stroke="none"/>
      <path d="M-287.6 -290.75 Q-285.7 -295.55 -286.3 -296.95 L-288.3 -300.3 Q-289.6 -302.4 -289.2 -304.6 -288.65 -307.45 -285.3 -311.6 -287.35 -313.6 -285.3 -317.1 L-279.6 -317.1 Q-277.9 -314.35 -279.6 -311.6 L-279.35 -310.5 Q-278.85 -309.0 -277.6 -307.35 L-274.85 -303.5 Q-272.25 -298.75 -278.1 -291.8 -277.95 -294.7 -279.35 -296.85 L-280.3 -298.05 M-279.6 -311.6 Q-282.8 -310.6 -285.3 -311.6 -286.6 -304.9 -282.4 -300.35 L-280.3 -298.05" fill="none" stroke="#000000" stroke-linecap="round" stroke-linejoin="round" stroke-width="2.5"/>
      <path d="M-280.3 -298.05 Q-282.4 -293.25 -287.6 -290.75" fill="none" stroke="#000000" stroke-linecap="round" stroke-linejoin="round" stroke-width="2.5"/>
      <path d="M-366.6 -484.85 Q-367.85 -478.85 -367.95 -472.45 -268.8 -463.4 -173.2 -472.45 -173.35 -478.55 -174.45 -484.3 L-169.85 -483.7 Q-127.05 -478.35 -127.05 -470.75 -127.05 -463.15 -169.85 -457.8 -212.55 -452.4 -273.0 -452.4 -333.5 -452.4 -376.25 -457.8 -419.0 -463.15 -419.0 -470.75 -419.0 -478.35 -376.25 -483.7 L-366.6 -484.85 M-175.0 -486.75 Q-268.85 -478.05 -366.15 -486.75 -360.75 -508.9 -339.45 -525.7 -310.95 -548.3 -270.6 -548.3 -230.25 -548.3 -201.7 -525.7 -180.4 -508.85 -175.0 -486.75" fill="#382b25" fill-rule="evenodd" stroke="none"/>
      <path d="M-174.45 -484.3 Q-173.35 -478.55 -173.2 -472.45 -268.8 -463.4 -367.95 -472.45 -367.85 -478.85 -366.6 -484.85 L-366.15 -486.75 Q-268.85 -478.05 -175.0 -486.75 L-174.45 -484.3" fill="#fd0202" fill-rule="evenodd" stroke="none"/>
      <path d="M-174.45 -484.3 Q-173.35 -478.55 -173.2 -472.45 -268.8 -463.4 -367.95 -472.45 -367.85 -478.85 -366.6 -484.85 L-376.25 -483.7 Q-419.0 -478.35 -419.0 -470.75 -419.0 -463.15 -376.25 -457.8 -333.5 -452.4 -273.0 -452.4 -212.55 -452.4 -169.85 -457.8 -127.05 -463.15 -127.05 -470.75 -127.05 -478.35 -169.85 -483.7 L-174.45 -484.3 -175.0 -486.75 Q-268.85 -478.05 -366.15 -486.75 L-366.6 -484.85 M-366.15 -486.75 Q-360.75 -508.9 -339.45 -525.7 -310.95 -548.3 -270.6 -548.3 -230.25 -548.3 -201.7 -525.7 -180.4 -508.85 -175.0 -486.75" fill="none" stroke="#000000" stroke-linecap="round" stroke-linejoin="round" stroke-width="5.0"/>
      <path d="M-156.3 -509.6 Q-147.2 -508.6 -132.6 -516.2 -118.05 -523.85 -109.7 -502.1 -121.75 -515.4 -137.65 -506.0 -153.55 -496.65 -163.6 -500.95 -173.7 -505.3 -178.0 -516.4 -182.35 -527.55 -193.2 -533.15 -198.6 -535.95 -204.85 -534.3 -211.05 -532.75 -219.7 -526.45 -234.3 -515.85 -243.25 -501.3 -250.5 -489.55 -254.85 -477.4 -255.3 -523.35 -220.4 -540.85 -203.45 -549.35 -190.65 -544.6 -177.85 -539.9 -171.65 -525.25 -165.45 -510.6 -156.3 -509.6 M-308.15 -538.25 Q-340.6 -548.2 -348.8 -533.45 -357.0 -518.75 -373.7 -517.1 -390.4 -515.5 -396.85 -526.1 -401.85 -534.8 -420.9 -534.2 -398.35 -542.0 -391.4 -531.9 -386.45 -524.55 -374.05 -525.5 -366.0 -526.15 -362.4 -531.8 -340.8 -565.4 -298.95 -546.8 -257.15 -528.25 -256.9 -483.4 -275.7 -528.3 -308.15 -538.25" fill="#fd0202" fill-rule="evenodd" stroke="none"/>
      <path d="M-156.3 -509.6 Q-147.2 -508.6 -132.6 -516.2 -118.05 -523.85 -109.7 -502.1 -121.75 -515.4 -137.65 -506.0 -153.55 -496.65 -163.6 -500.95 -173.7 -505.3 -178.0 -516.4 -182.35 -527.55 -193.2 -533.15 -198.6 -535.95 -204.85 -534.3 -211.05 -532.75 -219.7 -526.45 -234.3 -515.85 -243.25 -501.3 -250.5 -489.55 -254.85 -477.4 -255.3 -523.35 -220.4 -540.85 -203.45 -549.35 -190.65 -544.6 -177.85 -539.9 -171.65 -525.25 -165.45 -510.6 -156.3 -509.6 M-308.15 -538.25 Q-275.7 -528.3 -256.9 -483.4 -257.15 -528.25 -298.95 -546.8 -340.8 -565.4 -362.4 -531.8 -366.0 -526.15 -374.05 -525.5 -386.45 -524.55 -391.4 -531.9 -398.35 -542.0 -420.9 -534.2 -401.85 -534.8 -396.85 -526.1 -390.4 -515.5 -373.7 -517.1 -357.0 -518.75 -348.8 -533.45 -340.6 -548.2 -308.15 -538.25" fill="none" stroke="#000000" stroke-linecap="round" stroke-linejoin="round" stroke-width="4.0"/>
      <path d="M-221.3 -478.95 Q-223.35 -469.75 -236.6 -463.35 L-249.85 -471.5 -249.9 -471.45 Q-251.5 -469.65 -253.85 -469.45 -256.2 -469.3 -258.05 -470.9 -259.2 -471.9 -259.65 -473.15 L-276.75 -467.0 Q-285.7 -474.55 -290.2 -486.0 -294.6 -500.85 -294.9 -510.45 -277.35 -506.55 -266.35 -493.8 -262.65 -489.55 -259.7 -484.25 L-257.5 -480.05 Q-256.3 -480.95 -254.65 -481.05 -252.85 -481.15 -251.3 -480.25 -237.35 -502.05 -215.7 -503.6 L-221.3 -478.95 M-249.85 -471.5 Q-248.3 -473.35 -248.45 -475.65 -248.65 -478.05 -250.45 -479.6 L-251.3 -480.25 -250.45 -479.6 Q-248.65 -478.05 -248.45 -475.65 -248.3 -473.35 -249.85 -471.5 M-257.5 -480.05 L-258.6 -479.05 Q-260.25 -477.2 -260.05 -474.85 L-259.65 -473.15 -260.05 -474.85 Q-260.25 -477.2 -258.6 -479.05 L-257.5 -480.05" fill="#fd0202" fill-rule="evenodd" stroke="none"/>
      <path d="M-221.3 -478.95 Q-223.35 -469.75 -236.6 -463.35 L-249.85 -471.5 -249.9 -471.45 Q-251.5 -469.65 -253.85 -469.45 -256.2 -469.3 -258.05 -470.9 -259.2 -471.9 -259.65 -473.15 L-276.75 -467.0 Q-285.7 -474.55 -290.2 -486.0 -294.6 -500.85 -294.9 -510.45 -277.35 -506.55 -266.35 -493.8 -262.65 -489.55 -259.7 -484.25 L-257.5 -480.05 Q-256.3 -480.95 -254.65 -481.05 -252.85 -481.15 -251.3 -480.25 -237.35 -502.05 -215.7 -503.6 L-221.3 -478.95 M-259.65 -473.15 L-260.05 -474.85 Q-260.25 -477.2 -258.6 -479.05 L-257.5 -480.05 M-251.3 -480.25 L-250.45 -479.6 Q-248.65 -478.05 -248.45 -475.65 -248.3 -473.35 -249.85 -471.5" fill="none" stroke="#000000" stroke-linecap="round" stroke-linejoin="round" stroke-width="5.0"/>
      <path d="M-225.55 -404.25 L-188.3 -404.25 M-339.8 -403.2 L-290.0 -403.2" fill="none" stroke="#010101" stroke-linecap="round" stroke-linejoin="round" stroke-width="8.0"/>
    </g>
  </defs>
</svg>
