<?xml version="1.0" encoding="UTF-8" standalone="no"?>
<svg xmlns:xlink="http://www.w3.org/1999/xlink" height="720.75px" width="1716.8px" xmlns="http://www.w3.org/2000/svg">
  <g transform="matrix(1, 0, 0, 1, 307.05, 450.35)">
    <use height="72.4" transform="matrix(1.0, 0.0, 0.0, 1.0, -12.65, -36.2)" width="25.3" xlink:href="#sprite0"/>
  </g>
  <defs>
    <g id="sprite0" transform="matrix(1, 0, 0, 1, 12.65, 36.2)">
      <use height="72.4" transform="matrix(1.0, 0.0, 0.0, 1.0, -12.65, -36.2)" width="25.3" xlink:href="#shape0"/>
    </g>
    <g id="shape0" transform="matrix(1, 0, 0, 1, 12.65, 36.2)">
      <path d="M-0.55 -21.1 L-10.65 -33.9 6.8 -34.2 -0.55 -21.1 10.65 13.0 3.85 34.2 -8.25 13.1 -0.55 -21.1" fill="#13406c" fill-rule="evenodd" stroke="none"/>
      <path d="M-0.55 -21.1 L6.8 -34.2 -10.65 -33.9 -0.55 -21.1 10.65 13.0 3.85 34.2 -8.25 13.1 -0.55 -21.1" fill="none" stroke="#000000" stroke-linecap="round" stroke-linejoin="round" stroke-width="4.0"/>
    </g>
  </defs>
</svg>
