<?xml version="1.0" encoding="UTF-8" standalone="no"?>
<svg xmlns:xlink="http://www.w3.org/1999/xlink" height="720.75px" width="1716.8px" xmlns="http://www.w3.org/2000/svg">
  <g transform="matrix(1, 0, 0, 1, 307.05, 450.35)">
    <use height="179.0" transform="matrix(1.0, 0.0, 0.0, 1.0, -58.9, -89.55)" width="118.85" xlink:href="#shape0"/>
  </g>
  <defs>
    <g id="shape0" transform="matrix(1, 0, 0, 1, 58.9, 89.55)">
      <path d="M47.1 43.7 L47.1 43.8 42.65 42.5 39.65 41.7 40.45 41.1 Q40.45 40.75 39.85 40.55 L38.1 41.35 30.85 39.55 35.95 36.05 Q35.7 35.55 35.35 35.55 L29.45 39.2 20.2 36.95 20.25 36.75 Q29.45 32.55 32.7 28.05 L32.1 27.55 Q30.7 28.35 26.4 32.15 23.1 35.05 18.9 36.65 L16.1 35.95 9.5 33.55 Q16.8 31.1 17.95 29.05 17.7 28.55 17.35 28.55 8.9 31.95 6.85 32.45 L6.7 32.5 2.75 31.0 Q35.1 20.95 35.45 20.95 40.55 20.95 45.55 28.45 49.95 34.95 49.95 38.55 49.95 39.65 48.55 41.4 47.1 43.15 47.1 43.7 M6.6 38.45 L9.85 39.45 11.95 40.1 22.5 43.15 23.85 43.55 29.95 45.15 31.9 45.65 46.1 49.0 Q51.35 50.6 53.15 52.9 54.95 55.2 54.0 65.0 53.05 74.8 46.2 78.65 39.35 82.5 36.85 83.3 34.35 84.1 33.95 84.4 30.1 82.65 6.9 73.05 -4.65 68.3 -10.15 65.3 L-11.75 64.4 -13.9 62.95 -15.35 61.9 -16.75 60.85 Q-21.2 57.7 -25.9 55.25 L-26.85 54.75 -28.95 53.75 Q-46.25 46.4 -47.4 45.15 -49.9 42.45 -49.9 37.2 -49.9 35.7 -47.4 25.9 L-45.65 19.25 Q-40.35 21.95 -26.25 27.15 -13.1 32.0 -2.0 35.7 L0.25 36.4 6.6 38.45 M38.45 30.1 L38.35 29.7 37.7 29.55 25.95 35.6 26.0 35.95 Q26.3 36.3 26.7 36.3 38.45 32.1 38.45 30.1 M18.7 46.2 L16.65 46.0 14.05 45.7 0.7 44.2 -1.75 43.75 -2.3 43.6 Q-5.4 42.7 -10.65 39.6 L-18.9 35.05 Q-38.0 26.8 -41.3 26.8 -43.05 26.8 -43.05 27.7 L-43.0 28.45 Q-37.75 28.8 -32.5 31.15 -25.2 34.4 -21.4 35.45 -18.1 36.4 -12.4 39.8 -6.45 43.4 -4.5 44.1 L-3.45 44.45 -1.55 45.0 7.6 46.45 14.15 47.15 16.45 47.3 17.15 47.35 23.95 48.05 25.95 48.5 26.1 48.55 Q28.4 49.45 33.75 53.85 38.25 57.55 40.85 57.55 41.45 57.55 41.45 57.2 34.95 51.05 28.6 47.7 L28.0 47.5 25.85 47.1 18.7 46.2 M-49.3 63.7 L-49.3 66.95 Q-48.7 69.85 -46.85 73.0 -44.6 76.8 -42.4 76.8 -39.6 76.8 -39.8 70.65 -39.15 65.3 -43.65 65.3 -45.55 65.3 -45.55 69.5 L-45.5 70.95 -44.8 71.05 Q-44.4 71.05 -44.15 70.8 -44.15 66.8 -43.4 66.8 -41.05 66.8 -41.05 70.65 -41.05 75.45 -42.5 75.45 -44.5 75.45 -46.75 69.5 L-48.65 63.55 -49.3 63.7 M39.5 75.2 L40.45 75.3 Q42.95 75.3 45.5 71.35 47.7 68.05 47.7 66.75 47.7 65.8 46.85 65.8 L43.7 68.35 Q43.7 68.9 44.35 69.05 L45.85 68.05 Q45.7 68.95 40.85 73.8 L40.7 73.7 40.7 72.05 Q42.95 66.95 46.8 62.85 L50.2 59.6 50.1 59.2 49.35 59.05 Q45.25 61.85 42.4 65.9 39.45 70.05 39.45 73.3 L39.5 75.2 M1.6 60.05 L1.35 59.95 -0.25 59.2 -4.85 57.15 -6.05 56.6 -15.9 52.3 -16.4 52.45 -16.55 52.9 Q-16.55 53.85 -8.0 57.4 L-6.65 57.95 -1.85 59.9 -0.05 60.6 0.25 60.7 6.75 65.15 Q12.8 69.3 13.85 69.3 L14.45 68.7 1.6 60.05 M29.85 63.05 Q30.45 63.05 30.35 62.8 L30.45 62.25 10.35 55.75 9.85 55.6 8.7 55.25 3.4 53.4 2.15 52.95 Q-4.0 50.55 -9.05 47.8 L-9.65 47.45 -10.05 47.25 Q-12.65 45.95 -18.6 43.8 -24.15 41.8 -26.05 41.3 -36.9 38.3 -42.05 38.3 -42.4 38.3 -42.8 39.05 L-27.5 42.2 Q-20.3 43.65 -11.6 47.9 L-10.8 48.3 -10.6 48.4 1.3 53.35 2.45 53.85 7.05 55.75 7.3 55.85 8.85 56.45 Q25.65 63.05 29.85 63.05 M-15.45 67.75 L-13.2 69.15 -23.3 75.2 Q-34.5 81.95 -40.55 81.95 -43.9 81.95 -49.15 75.0 -53.9 68.65 -53.9 66.7 -53.9 61.85 -49.0 58.25 -44.15 54.65 -36.65 54.0 -34.05 55.25 -31.25 56.9 -40.05 61.25 -40.05 62.5 -40.05 63.15 -39.4 63.3 -35.35 60.35 -30.25 57.55 -26.35 59.9 -22.2 63.0 -30.8 66.45 -30.8 67.85 -30.8 68.4 -30.15 68.55 L-20.55 64.25 -16.7 66.95 -17.8 67.85 Q-17.8 68.4 -17.15 68.55 L-15.45 67.75" fill="#837a30" fill-rule="evenodd" stroke="none"/>
      <path d="M47.1 43.8 L47.1 43.7 Q47.1 43.15 48.55 41.4 49.95 39.65 49.95 38.55 49.95 34.95 45.55 28.45 40.55 20.95 35.45 20.95 35.1 20.95 2.75 31.0 L6.7 32.5 9.5 33.55 16.1 35.95 18.9 36.65 19.95 36.9 20.2 36.95 29.45 39.2 30.85 39.55 38.1 41.35 39.65 41.7 42.65 42.5 47.1 43.8 M55.5 45.45 L53.95 46.25 55.55 47.05 Q59.0 49.0 59.65 52.25 59.95 53.5 59.95 60.7 59.95 71.35 56.65 76.65 50.9 85.9 33.6 89.45 L23.9 86.05 Q12.8 82.3 5.8 79.1 -2.7 75.15 -9.25 71.5 -29.0 87.45 -40.9 87.45 -49.2 87.45 -54.85 76.95 -56.65 73.65 -57.95 69.75 L-58.9 66.45 Q-58.9 59.1 -56.0 56.35 -53.7 54.15 -45.2 50.6 L-48.65 49.45 Q-52.55 48.2 -53.6 46.4 -54.9 44.25 -54.9 37.8 -54.9 33.05 -53.0 25.15 -50.6 15.3 -47.4 13.45 L-36.75 16.85 Q-24.4 20.9 -14.0 24.75 L-5.3 28.0 Q-1.2 25.05 13.0 20.7 30.25 15.45 35.6 15.45 45.65 15.45 51.7 28.2 53.75 32.4 55.0 37.4 55.95 41.1 55.95 42.45 55.95 44.85 55.5 45.45 M6.6 38.45 L0.25 36.4 -2.0 35.7 Q-13.1 32.0 -26.25 27.15 -40.35 21.95 -45.65 19.25 L-47.4 25.9 Q-49.9 35.7 -49.9 37.2 -49.9 42.45 -47.4 45.15 -46.25 46.4 -28.95 53.75 L-26.85 54.75 -25.9 55.25 Q-21.2 57.7 -16.75 60.85 L-15.35 61.9 -13.9 62.95 -11.75 64.4 -10.15 65.3 Q-4.65 68.3 6.9 73.05 30.1 82.65 33.95 84.4 34.35 84.1 36.85 83.3 39.35 82.5 46.2 78.65 53.05 74.8 54.0 65.0 54.95 55.2 53.15 52.9 51.35 50.6 46.1 49.0 L31.9 45.65 29.95 45.15 23.85 43.55 22.5 43.15 11.95 40.1 9.85 39.45 6.6 38.45 M-31.25 56.9 Q-34.05 55.25 -36.65 54.0 -44.15 54.65 -49.0 58.25 -53.9 61.85 -53.9 66.7 -53.9 68.65 -49.15 75.0 -43.9 81.95 -40.55 81.95 -34.5 81.95 -23.3 75.2 L-13.2 69.15 -15.45 67.75 -16.7 66.95 -20.55 64.25 -20.9 63.95 -22.2 63.0 Q-26.35 59.9 -30.25 57.55 L-31.25 56.9" fill="#000000" fill-rule="evenodd" stroke="none"/>
      <path d="M6.7 32.5 L6.85 32.45 Q8.9 31.95 17.35 28.55 17.7 28.55 17.95 29.05 16.8 31.1 9.5 33.55 L6.7 32.5 M18.9 36.65 Q23.1 35.05 26.4 32.15 30.7 28.35 32.1 27.55 L32.7 28.05 Q29.45 32.55 20.25 36.75 L19.95 36.9 18.9 36.65 M29.45 39.2 L35.35 35.55 Q35.7 35.55 35.95 36.05 L30.85 39.55 29.45 39.2 M38.1 41.35 L39.85 40.55 Q40.45 40.75 40.45 41.1 L39.65 41.7 38.1 41.35 M18.7 46.2 L25.85 47.1 28.0 47.5 28.6 47.7 Q34.95 51.05 41.45 57.2 41.45 57.55 40.85 57.55 38.25 57.55 33.75 53.85 28.4 49.45 26.1 48.55 L25.95 48.5 23.95 48.05 17.15 47.35 16.45 47.3 14.15 47.15 7.6 46.45 -1.55 45.0 -3.45 44.45 -4.5 44.1 Q-6.45 43.4 -12.4 39.8 -18.1 36.4 -21.4 35.45 -25.2 34.4 -32.5 31.15 -37.75 28.8 -43.0 28.45 L-43.05 27.7 Q-43.05 26.8 -41.3 26.8 -38.0 26.8 -18.9 35.05 L-10.65 39.6 Q-5.4 42.7 -2.3 43.6 L-1.75 43.75 0.7 44.2 14.05 45.7 16.65 46.0 18.7 46.2 M38.45 30.1 Q38.45 32.1 26.7 36.3 26.3 36.3 26.0 35.95 L25.95 35.6 37.7 29.55 38.35 29.7 38.45 30.1 M29.85 63.05 Q25.65 63.05 8.85 56.45 L7.3 55.85 7.05 55.75 2.45 53.85 1.3 53.35 -10.6 48.4 -10.8 48.3 -11.6 47.9 Q-20.3 43.65 -27.5 42.2 L-42.8 39.05 Q-42.4 38.3 -42.05 38.3 -36.9 38.3 -26.05 41.3 -24.15 41.8 -18.6 43.8 -12.65 45.95 -10.05 47.25 L-9.65 47.45 -9.05 47.8 Q-4.0 50.55 2.15 52.95 L3.4 53.4 8.7 55.25 9.85 55.6 10.35 55.75 30.45 62.25 30.35 62.8 Q30.45 63.05 29.85 63.05 M1.6 60.05 L14.45 68.7 13.85 69.3 Q12.8 69.3 6.75 65.15 L0.25 60.7 -0.05 60.6 -1.85 59.9 -6.65 57.95 -8.0 57.4 Q-16.55 53.85 -16.55 52.9 L-16.4 52.45 -15.9 52.3 -6.05 56.6 -4.85 57.15 -0.25 59.2 1.35 59.95 1.6 60.05 M39.5 75.2 L39.45 73.3 Q39.45 70.05 42.4 65.9 45.25 61.85 49.35 59.05 L50.1 59.2 50.2 59.6 46.8 62.85 Q42.95 66.95 40.7 72.05 L40.7 73.7 40.85 73.8 Q45.7 68.95 45.85 68.05 L44.35 69.05 Q43.7 68.9 43.7 68.35 L46.85 65.8 Q47.7 65.8 47.7 66.75 47.7 68.05 45.5 71.35 42.95 75.3 40.45 75.3 L39.5 75.2 M-49.3 63.7 L-48.65 63.55 -46.75 69.5 Q-44.5 75.45 -42.5 75.45 -41.05 75.45 -41.05 70.65 -41.05 66.8 -43.4 66.8 -44.15 66.8 -44.15 70.8 -44.4 71.05 -44.8 71.05 L-45.5 70.95 -45.55 69.5 Q-45.55 65.3 -43.65 65.3 -39.15 65.3 -39.8 70.65 -39.6 76.8 -42.4 76.8 -44.6 76.8 -46.85 73.0 -48.7 69.85 -49.3 66.95 L-49.3 63.7 M-15.45 67.75 L-17.15 68.55 Q-17.8 68.4 -17.8 67.85 L-16.7 66.95 -15.45 67.75 M-20.55 64.25 L-30.15 68.55 Q-30.8 68.4 -30.8 67.85 -30.8 66.45 -22.2 63.0 L-20.9 63.95 -20.55 64.25 M-30.25 57.55 Q-35.35 60.35 -39.4 63.3 -40.05 63.15 -40.05 62.5 -40.05 61.25 -31.25 56.9 L-30.25 57.55" fill="#6a6326" fill-rule="evenodd" stroke="none"/>
      <path d="M-0.75 -25.55 L-0.75 -26.45 -1.55 -36.7 -1.7 -39.55 Q-3.2 -52.05 -6.85 -64.3 L-11.1 -77.3 Q-13.05 -83.35 -13.0 -86.25 L-12.8 -89.05 -10.4 -89.55 Q-7.55 -89.55 -3.05 -73.75 -2.55 -75.25 -1.15 -76.3 2.75 -67.5 5.85 -54.5 L6.3 -59.1 Q8.55 -80.1 11.15 -80.1 14.35 -80.1 18.35 -48.3 19.7 -49.9 21.55 -49.9 23.4 -49.9 24.25 -48.7 27.05 -65.0 28.6 -65.0 28.8 -65.0 29.8 -51.3 L29.9 -55.2 Q29.9 -57.2 30.15 -57.7 30.55 -58.4 32.1 -58.4 35.2 -58.4 37.45 -39.65 39.2 -35.7 38.85 -30.0 L38.65 -27.1 38.7 -26.25 39.6 -13.85 39.6 -14.0 Q42.3 -31.05 43.05 -31.0 L43.15 -31.0 Q44.3 -35.75 46.6 -35.75 48.0 -35.75 48.55 -35.05 L49.2 -33.85 47.65 -27.7 Q46.55 -24.05 46.6 -21.8 46.55 -19.25 47.0 -14.95 L48.1 -14.75 48.35 -12.75 47.7 -9.3 48.35 -4.5 Q50.1 7.6 50.1 13.2 50.1 23.35 46.95 30.3 44.55 35.35 39.75 40.6 L40.3 38.9 Q41.65 34.25 42.05 30.2 45.7 23.15 45.7 20.9 46.15 18.4 45.4 17.25 L45.7 13.35 Q45.7 9.55 44.75 2.1 44.1 10.15 43.05 16.15 41.8 16.15 40.45 17.8 39.7 18.65 38.9 20.0 38.65 20.05 38.35 20.35 37.25 21.25 35.2 24.15 L35.6 20.35 36.05 15.1 Q36.65 11.4 35.45 9.85 L35.2 9.5 35.8 7.3 35.15 2.5 34.95 2.0 Q34.85 5.15 33.9 8.8 L32.55 8.6 Q31.7 8.6 30.9 9.05 28.35 10.3 26.2 15.6 L25.85 8.2 25.55 4.0 24.6 -4.6 Q23.5 -12.2 21.95 -14.7 21.15 -15.95 20.25 -15.9 L19.4 -15.7 18.15 -15.45 17.8 -15.45 Q17.3 -12.2 16.55 -4.1 L16.1 -9.45 Q17.15 -15.3 17.15 -17.35 14.95 -30.2 14.95 -32.55 14.95 -35.4 15.25 -37.95 13.05 -50.2 11.35 -62.65 L10.9 -63.1 9.05 -38.55 10.5 -28.5 9.95 -26.55 9.25 -22.9 Q7.95 -30.25 6.6 -30.95 L6.3 -31.0 Q5.8 -31.0 5.4 -30.6 L4.7 -29.6 Q3.9 -28.05 3.2 -24.75 2.35 -20.7 1.75 -14.1 L-0.65 -25.1 -0.75 -25.55 M32.55 45.9 L32.25 45.8 Q31.65 45.35 31.65 43.8 31.65 43.05 33.65 40.3 L34.05 40.45 Q32.75 43.9 32.55 45.9 M-15.6 45.95 L-16.0 46.6 Q-16.55 47.3 -17.4 47.3 -35.0 47.3 -47.65 18.55 -51.7 9.35 -54.7 -1.5 -56.95 -9.7 -56.95 -11.2 -56.95 -19.45 -56.35 -21.4 -55.05 -26.1 -48.6 -32.9 L-47.1 -32.5 Q-46.4 -32.15 -46.4 -30.7 -46.4 -29.45 -49.45 -23.1 -51.8 -18.35 -52.35 -14.05 -55.2 -13.9 -55.15 -11.2 -55.2 -10.3 -52.15 -2.4 -48.4 7.3 -44.2 15.7 -31.2 41.65 -20.5 41.65 L-19.25 41.55 Q-17.15 44.9 -15.6 45.95 M-33.7 16.65 L-39.15 1.3 Q-41.5 -6.1 -43.5 -17.7 L-43.9 -20.15 -41.8 -13.9 Q-37.3 -0.7 -32.95 10.7 L-32.15 12.85 Q-31.75 16.7 -30.6 20.65 L-33.7 16.65 M-44.9 -27.75 Q-45.5 -33.2 -45.5 -37.3 -45.55 -42.85 -45.2 -44.35 -44.6 -47.4 -42.7 -49.3 L-44.65 -61.35 Q-44.85 -64.2 -44.65 -65.25 -44.4 -66.9 -42.45 -66.9 -42.15 -66.9 -35.5 -51.3 L-35.65 -51.3 -35.85 -47.75 Q-35.85 -46.15 -33.35 -32.65 L-35.4 -37.85 -35.65 -38.35 Q-33.8 -24.5 -30.95 -11.3 -35.05 -21.25 -38.4 -25.3 L-40.8 -38.45 -41.1 -37.3 Q-41.15 -32.5 -40.6 -27.4 -41.8 -28.2 -42.9 -28.2 L-44.9 -27.75 M-31.4 -41.75 L-25.6 -27.65 -25.55 -26.45 Q-24.9 -17.75 -24.05 -10.0 L-23.95 -9.45 -23.3 -3.65 -22.85 -0.5 Q-23.35 -0.7 -23.75 -1.05 L-26.2 -12.15 -24.3 -10.25 -27.25 -17.55 Q-29.2 -27.6 -31.35 -41.55 L-31.4 -41.75 M-23.15 -46.85 Q-25.35 -54.15 -30.35 -61.9 L-35.85 -69.45 -35.65 -73.0 -32.75 -73.5 Q-23.2 -73.5 -13.45 -54.1 L-10.75 -48.35 Q-11.45 -45.0 -11.85 -38.3 -16.55 -49.4 -20.5 -53.45 L-18.65 -45.4 Q-20.25 -47.1 -21.8 -47.05 L-23.15 -46.85 M26.15 -34.55 Q23.75 -22.45 23.75 -15.1 23.75 -13.5 24.75 -12.2 26.25 -10.25 27.25 -6.95 L26.9 -5.25 Q26.5 -4.6 25.15 -4.6 L25.5 -3.25 26.95 3.8 Q28.0 -1.2 28.1 -6.05 L27.85 -6.1 Q27.25 -6.6 27.25 -8.15 L27.8 -16.8 26.4 -34.55 26.15 -34.55 M-29.45 -12.85 L-28.15 -6.85 Q-29.7 -9.8 -29.7 -10.95 L-29.45 -12.85 M-21.65 -40.4 L-21.6 -40.2 Q-17.45 -26.35 -12.1 -2.3 L-12.1 5.2 Q-14.3 1.05 -16.1 1.05 -17.25 1.05 -17.8 1.6 L-18.4 -1.55 -18.65 -2.9 -19.15 -6.0 -20.15 -13.25 -17.3 -6.15 Q-17.7 -13.15 -18.5 -18.05 -20.25 -32.65 -21.65 -40.4 M-1.15 -7.15 L0.85 -1.05 0.45 8.45 Q-0.7 7.65 -2.05 7.7 L-2.4 7.7 Q-1.55 0.5 -1.15 -7.15 M13.25 15.25 L12.0 -0.05 11.75 -3.2 12.35 0.4 13.05 7.5 13.9 16.6 13.8 16.8 13.25 15.25 M19.25 13.4 L20.25 -1.75 20.45 -1.75 21.45 9.7 Q20.7 12.1 19.6 13.55 L19.25 13.4 M29.7 19.0 Q30.5 16.9 31.65 15.25 L31.65 15.35 30.8 17.25 29.75 19.45 29.7 19.0 M30.95 20.4 L29.3 28.2 29.85 23.0 30.95 20.4 M-10.25 29.05 L-9.95 28.9 -9.9 28.7 Q-9.2 31.1 -8.2 32.2 L-8.05 33.1 -8.7 33.5 Q-9.85 31.85 -10.15 29.75 L-10.25 29.05 M-24.35 34.1 L-27.3 32.45 Q-26.85 31.15 -26.85 29.8 L-25.9 31.5 -24.35 34.1 M5.35 -8.35 L6.3 -4.6 Q6.8 -6.0 7.0 -7.9 L5.45 -14.9 5.45 -18.05 Q6.35 -13.6 7.05 -8.1 L7.1 -7.55 7.35 -5.45 7.2 -3.65 6.6 3.55 Q5.65 1.95 5.75 0.65 6.3 -1.35 6.3 -2.7 L6.1 -3.15 5.8 -2.2 5.25 -1.85 5.35 -8.35 M5.15 2.7 L6.3 7.7 6.25 8.35 5.15 2.7 M-1.35 18.2 Q-1.3 16.05 -1.6 15.0 L-1.6 14.75 Q-0.55 16.75 0.2 18.85 L0.15 23.5 0.2 24.0 0.1 25.15 -0.5 22.35 -1.2 19.35 -1.35 18.2 M2.75 38.7 L2.05 34.8 2.3 34.55 2.6 33.65 2.8 34.35 2.85 38.3 2.8 38.65 2.75 38.7" fill="#ee0000" fill-rule="evenodd" stroke="none"/>
      <path d="M39.75 40.6 Q37.7 46.95 34.7 49.2 L33.15 48.65 Q32.5 48.15 32.55 46.6 L32.55 45.9 Q32.75 43.9 34.05 40.45 L33.65 40.3 33.15 40.15 32.65 39.35 Q30.15 49.2 26.4 49.2 L24.6 48.75 23.9 48.3 23.75 47.55 Q22.5 49.2 20.65 49.2 18.9 49.2 17.8 48.05 17.6 48.95 17.6 46.6 L17.6 46.4 Q16.85 49.15 15.4 51.1 14.4 46.8 14.15 40.8 L14.15 39.65 14.2 39.15 14.2 38.6 15.85 37.65 Q15.15 27.5 18.25 18.55 L18.5 19.0 18.5 27.35 18.4 28.65 Q17.6 31.9 17.6 34.1 17.6 35.3 18.1 36.45 17.4 38.65 17.4 39.5 17.35 41.0 18.35 42.25 L18.3 42.8 Q17.55 44.3 17.6 44.7 17.6 46.25 18.2 46.75 L19.8 47.3 Q25.1 43.55 27.85 34.65 L29.3 28.2 30.95 20.4 31.65 15.35 31.65 15.25 Q30.5 16.9 29.7 19.0 L29.2 17.0 Q28.6 15.4 27.7 14.3 26.9 14.8 26.35 15.6 L26.2 15.6 25.05 15.25 Q23.8 15.8 22.55 17.85 L22.45 17.55 21.8 15.65 21.45 9.7 20.45 -1.75 20.25 -1.75 19.25 13.4 18.5 13.35 17.15 13.55 Q15.15 14.1 13.9 16.6 L13.05 7.5 12.35 0.4 Q11.9 -4.45 11.8 -7.4 L11.6 -7.4 11.55 -5.1 11.75 -3.2 12.0 -0.05 13.25 15.25 Q12.75 14.3 12.0 14.3 10.7 14.25 10.2 18.0 8.6 20.9 7.3 25.45 L8.05 22.2 Q9.8 15.35 9.8 11.55 9.8 10.0 9.1 9.4 L7.65 8.6 Q5.8 11.2 4.45 15.05 2.8 10.05 0.45 8.45 L0.85 -1.05 -1.15 -7.15 -7.5 -26.05 -7.75 -26.55 Q-7.45 -21.9 -7.5 -14.95 -4.8 -3.4 -2.95 7.8 -3.85 8.0 -4.45 8.75 -5.8 5.8 -6.85 5.8 -9.05 5.8 -9.45 10.3 L-9.5 11.25 Q-10.85 7.5 -12.1 5.2 L-12.1 -2.3 Q-17.45 -26.35 -21.6 -40.2 L-21.65 -40.4 -21.8 -40.7 Q-21.45 -24.85 -20.15 -13.25 L-19.15 -6.0 -18.65 -2.9 -18.4 -1.55 -17.8 1.6 Q-18.2 1.9 -18.3 2.5 -18.5 3.35 -18.3 5.65 -18.3 11.15 -16.55 22.3 L-16.1 24.7 -18.45 21.3 Q-29.55 4.85 -29.7 4.85 L-32.1 5.3 -32.35 8.85 -32.15 12.85 -32.95 10.7 Q-37.3 -0.7 -41.8 -13.9 L-43.9 -20.15 -45.5 -25.25 -45.3 -27.7 -44.9 -27.75 -42.9 -28.2 Q-41.8 -28.2 -40.6 -27.4 -39.55 -26.7 -38.4 -25.3 -35.05 -21.25 -30.95 -11.3 -28.8 -6.1 -26.4 0.85 L-26.0 2.05 -27.05 -2.45 -28.15 -6.85 -29.45 -12.85 -32.4 -27.55 -33.35 -32.65 Q-35.85 -46.15 -35.85 -47.75 L-35.65 -51.3 -35.5 -51.3 -33.2 -51.8 Q-33.0 -51.8 -31.4 -41.75 L-31.35 -41.55 Q-29.2 -27.6 -27.25 -17.55 L-27.15 -17.0 -26.2 -12.15 -23.75 -1.05 -21.75 7.0 -22.85 -0.5 -23.3 -3.65 -23.95 -9.45 -24.05 -10.0 Q-24.9 -17.75 -25.55 -26.45 L-25.6 -27.65 -26.2 -36.9 -25.95 -43.3 Q-25.35 -46.25 -23.15 -46.85 L-21.8 -47.05 Q-20.25 -47.1 -18.65 -45.4 -15.45 -42.0 -12.1 -31.7 L-11.85 -38.3 Q-11.45 -45.0 -10.75 -48.35 -10.1 -51.8 -9.05 -51.8 -6.7 -51.8 -0.75 -25.55 L-0.65 -25.1 1.75 -14.1 Q2.35 -20.7 3.2 -24.75 3.9 -28.05 4.7 -29.6 L5.4 -30.6 Q5.8 -31.0 6.3 -31.0 L6.6 -30.95 Q7.95 -30.25 9.25 -22.9 L9.95 -26.55 10.5 -28.5 Q11.05 -30.1 11.6 -30.05 14.15 -30.05 16.1 -9.45 L16.55 -4.1 Q17.3 -12.2 17.8 -15.45 L18.15 -15.45 19.4 -15.7 20.25 -15.9 Q21.15 -15.95 21.95 -14.7 23.5 -12.2 24.6 -4.6 L25.55 4.0 25.85 8.2 26.2 15.6 Q28.35 10.3 30.9 9.05 31.7 8.6 32.55 8.6 L33.9 8.8 Q34.65 9.0 35.2 9.5 L35.45 9.85 Q36.65 11.4 36.05 15.1 L35.6 20.35 35.2 24.15 Q37.25 21.25 38.35 20.35 38.65 20.05 38.9 20.0 39.7 18.65 40.45 17.8 41.8 16.15 43.05 16.15 44.7 16.15 45.4 17.25 46.15 18.4 45.7 20.9 45.7 23.15 42.05 30.2 41.65 34.25 40.3 38.9 L39.75 40.6 M3.05 40.5 L3.0 40.5 Q2.8 41.35 2.8 39.4 L2.8 39.15 2.8 39.05 2.8 38.65 2.85 38.3 3.05 40.5 M-12.3 44.75 L-12.15 45.2 Q-12.15 46.35 -14.35 46.4 L-15.6 45.95 Q-17.15 44.9 -19.25 41.55 L-20.5 41.65 Q-31.2 41.65 -44.2 15.7 -48.4 7.3 -52.15 -2.4 -55.2 -10.3 -55.15 -11.2 -55.2 -13.9 -52.35 -14.05 L-52.1 -14.05 Q-48.4 -14.05 -44.3 -4.85 -42.05 0.1 -38.7 9.1 -37.6 11.65 -34.95 15.05 L-33.7 16.65 -30.6 20.65 Q-29.25 25.2 -26.85 29.8 -26.85 31.15 -27.3 32.45 L-24.35 34.1 Q-19.25 41.9 -12.3 44.75 M-8.2 32.2 Q-9.2 31.1 -9.9 28.7 L-9.95 28.9 -10.25 29.05 -11.25 24.45 Q-10.05 25.3 -8.7 29.25 L-8.6 30.1 -8.2 32.2 M-23.1 24.9 L-23.1 24.65 Q-21.6 27.65 -13.9 37.4 -19.05 36.3 -20.95 31.65 -22.25 26.45 -23.1 24.9 M5.45 -14.9 L5.35 -8.35 5.25 -1.85 5.1 2.5 5.15 2.7 6.25 8.35 6.3 7.7 6.6 3.55 7.2 -3.65 7.35 -5.45 7.1 -7.55 7.05 -8.1 Q6.35 -13.6 5.45 -18.05 L5.45 -14.9 M-1.35 18.2 L-1.2 19.35 -1.4 18.65 -1.35 18.2 M0.2 24.0 L0.15 23.5 0.2 18.85 Q1.9 23.7 1.9 29.0 L1.9 30.45 1.7 30.35 1.15 29.95 0.3 25.9 0.2 24.0 M24.6 27.85 L24.65 27.75 24.6 29.15 Q24.25 30.9 22.65 34.25 L22.65 34.05 Q23.3 31.6 24.6 27.85 M18.3 42.7 L18.4 42.3 18.5 42.4 18.3 42.7" fill="#eebe00" fill-rule="evenodd" stroke="none"/>
      <path d="M14.15 40.8 L14.0 47.3 Q12.9 48.0 12.0 48.25 L11.3 46.7 10.25 48.25 8.7 47.7 Q8.05 47.2 8.05 45.65 L8.1 45.15 6.75 45.45 Q3.85 45.4 3.05 40.6 L3.05 40.5 2.85 38.3 2.8 34.35 2.6 33.65 2.3 34.55 2.05 34.8 2.75 38.7 2.8 39.15 2.8 39.4 Q2.75 41.65 1.9 42.2 L-1.6 42.6 -2.65 42.45 -1.6 43.55 Q-1.6 46.35 -3.8 46.4 -8.35 46.35 -12.3 44.75 -19.25 41.9 -24.35 34.1 L-25.9 31.5 -26.85 29.8 Q-29.25 25.2 -30.6 20.65 -31.75 16.7 -32.15 12.85 L-32.35 8.85 -32.1 5.3 -29.7 4.85 Q-29.55 4.85 -18.45 21.3 L-16.1 24.7 -16.55 22.3 Q-18.3 11.15 -18.3 5.65 -18.5 3.35 -18.3 2.5 -18.2 1.9 -17.8 1.6 -17.25 1.05 -16.1 1.05 -14.3 1.05 -12.1 5.2 -10.85 7.5 -9.5 11.25 L-9.45 10.3 Q-9.05 5.8 -6.85 5.8 -5.8 5.8 -4.45 8.75 -3.85 8.0 -2.95 7.8 L-2.4 7.7 -2.05 7.7 Q-0.7 7.65 0.45 8.45 2.8 10.05 4.45 15.05 5.8 11.2 7.65 8.6 L9.1 9.4 Q9.8 10.0 9.8 11.55 9.8 15.35 8.05 22.2 L7.3 25.45 Q8.6 20.9 10.2 18.0 10.7 14.25 12.0 14.3 12.75 14.3 13.25 15.25 L13.8 16.8 13.9 16.6 Q15.15 14.1 17.15 13.55 L18.5 13.35 19.25 13.4 19.6 13.55 Q20.95 14.0 21.8 15.65 L22.45 17.55 22.55 17.85 Q23.8 15.8 25.05 15.25 L26.2 15.6 26.35 15.6 Q26.9 14.8 27.7 14.3 28.6 15.4 29.2 17.0 L29.7 19.0 29.75 19.45 29.9 20.75 29.85 23.0 29.3 28.2 27.85 34.65 Q25.1 43.55 19.8 47.3 L18.2 46.75 Q17.6 46.25 17.6 44.7 17.55 44.3 18.3 42.8 L18.3 42.7 18.5 42.4 18.4 42.3 18.35 42.25 Q17.35 41.0 17.4 39.5 17.4 38.65 18.1 36.45 17.6 35.3 17.6 34.1 17.6 31.9 18.4 28.65 L18.5 28.4 18.5 27.35 18.5 19.0 18.25 18.55 Q15.15 27.5 15.85 37.65 L14.2 38.6 14.2 39.15 14.15 39.65 14.15 40.8 M-10.25 29.05 L-10.15 29.75 Q-9.85 31.85 -8.7 33.5 L-7.65 34.7 -8.05 33.1 -8.2 32.2 -8.6 30.1 -8.7 29.25 Q-10.05 25.3 -11.25 24.45 L-10.25 29.05 M-23.1 24.9 Q-22.25 26.45 -20.95 31.65 -19.05 36.3 -13.9 37.4 -21.6 27.65 -23.1 24.65 L-23.1 24.9 M0.2 18.85 Q-0.55 16.75 -1.6 14.75 L-1.6 15.0 Q-1.3 16.05 -1.35 18.2 L-1.4 18.65 -1.2 19.35 -0.5 22.35 0.1 25.15 0.3 25.9 1.15 29.95 1.7 30.35 1.9 30.45 1.9 29.0 Q1.9 23.7 0.2 18.85 M24.6 27.85 Q23.3 31.6 22.65 34.05 L22.65 34.25 Q24.25 30.9 24.6 29.15 L24.65 27.75 24.6 27.85 M8.7 42.2 L8.9 41.45 8.65 41.95 8.7 42.2" fill="#ffeb3c" fill-rule="evenodd" stroke="none"/>
    </g>
  </defs>
</svg>
