<?xml version="1.0" encoding="UTF-8" standalone="no"?>
<svg xmlns:xlink="http://www.w3.org/1999/xlink" height="720.75px" width="1716.8px" xmlns="http://www.w3.org/2000/svg">
  <g transform="matrix(1, 0, 0, 1, 307.05, 450.35)">
    <use height="21.65" transform="matrix(1.0, 0.0, 0.0, 1.0, -18.85, -10.8)" width="37.7" xlink:href="#shape0"/>
  </g>
  <defs>
    <g id="shape0" transform="matrix(1, 0, 0, 1, 18.85, 10.8)">
      <path d="M4.75 -0.9 L2.5 -0.05 4.75 -0.9 M4.9 -4.45 Q6.8 -2.55 6.8 0.1 6.8 2.75 4.9 4.6 3.05 6.5 0.4 6.5 -2.25 6.5 -4.15 4.6 -6.0 2.75 -6.0 0.1 -6.0 -2.55 -4.15 -4.45 -2.25 -6.3 0.4 -6.3 3.05 -6.3 4.9 -4.45 M0.6 -1.4 L0.0 -4.55 0.6 -1.4 M-2.9 3.95 L-0.9 2.3 -2.9 3.95 M-1.25 -0.4 L-3.65 -1.55 -1.25 -0.4 M4.25 3.6 L2.6 2.55 4.25 3.6 M0.85 4.95 L0.85 3.6 0.85 4.95" fill="#bb0000" fill-rule="evenodd" stroke="none"/>
      <path d="M4.9 -4.45 Q3.05 -6.3 0.4 -6.3 -2.25 -6.3 -4.15 -4.45 -6.0 -2.55 -6.0 0.1 -6.0 2.75 -4.15 4.6 -2.25 6.5 0.4 6.5 3.05 6.5 4.9 4.6 6.8 2.75 6.8 0.1 6.8 -2.55 4.9 -4.45 M0.95 9.35 Q-16.05 9.8 -17.25 0.7 -18.5 -8.45 0.5 -9.3 16.7 -7.55 17.35 0.7 17.95 8.95 0.95 9.35" fill="#cccccc" fill-rule="evenodd" stroke="none"/>
      <path d="M2.5 -0.05 L4.75 -0.9 M0.0 -4.55 L0.6 -1.4 M0.85 3.6 L0.85 4.95 M2.6 2.55 L4.25 3.6 M-3.65 -1.55 L-1.25 -0.4 M-0.9 2.3 L-2.9 3.95" fill="none" stroke="#cccccc" stroke-linecap="round" stroke-linejoin="round" stroke-width="1.0"/>
      <path d="M4.9 -4.45 Q6.8 -2.55 6.8 0.1 6.8 2.75 4.9 4.6 3.05 6.5 0.4 6.5 -2.25 6.5 -4.15 4.6 -6.0 2.75 -6.0 0.1 -6.0 -2.55 -4.15 -4.45 -2.25 -6.3 0.4 -6.3 3.05 -6.3 4.9 -4.45 M0.95 9.35 Q-16.05 9.8 -17.25 0.7 -18.5 -8.45 0.5 -9.3 16.7 -7.55 17.35 0.7 17.95 8.95 0.95 9.35" fill="none" stroke="#000000" stroke-linecap="round" stroke-linejoin="round" stroke-width="3.0"/>
    </g>
  </defs>
</svg>
