<?xml version="1.0" encoding="UTF-8" standalone="no"?>
<svg xmlns:xlink="http://www.w3.org/1999/xlink" height="720.75px" width="1716.8px" xmlns="http://www.w3.org/2000/svg">
  <g transform="matrix(1, 0, 0, 1, 307.05, 450.35)">
    <use height="68.1" transform="matrix(1.0, 0.0, 0.0, 1.0, -27.8, -34.05)" width="55.6" xlink:href="#shape0"/>
    <use height="10.25" transform="matrix(1.0, 0.0, 0.0, 1.0, -0.4, 9.15)" width="10.45" xlink:href="#sprite0"/>
    <use height="10.25" transform="matrix(-0.3841, 0.6654, -0.6654, -0.3841, 20.9124, 8.6618)" width="10.45" xlink:href="#sprite0"/>
  </g>
  <defs>
    <g id="shape0" transform="matrix(1, 0, 0, 1, 27.8, 34.05)">
      <path d="M6.25 -27.2 L6.25 -27.15 5.05 -27.7 Q4.7 -25.05 1.3 -20.45 L0.2 -19.0 -1.65 -19.8 Q-4.65 -21.25 -6.3 -23.6 -9.7 -28.25 -9.7 -30.3 L-9.7 -30.45 -7.6 -30.45 Q-1.05 -30.3 5.05 -27.7 L6.25 -27.2 M-10.95 -30.5 L-10.9 -30.5 -10.95 -30.3 -10.95 -30.5" fill="#8accb8" fill-rule="evenodd" stroke="none"/>
      <path d="M6.25 -27.2 L5.05 -27.7 Q-1.05 -30.3 -7.6 -30.45 L-9.7 -30.45 -9.7 -30.5 -10.45 -30.5 -10.9 -30.5 -10.95 -30.5 -11.0 -30.5 -12.1 -30.5 -12.95 -30.5 -14.8 -30.45 -18.9 -30.0 -20.1 -29.25 -20.5 -28.5 -20.8 -27.9 -21.65 -26.2 -21.75 -26.05 Q-22.65 -24.25 -23.95 -16.0 L-24.55 -11.7 -24.7 -10.0 -24.75 -9.85 -24.8 -8.7 Q-24.95 -6.15 -24.6 -4.75 L-22.2 4.75 -21.85 6.1 -21.75 6.6 -20.95 9.25 -20.6 10.4 Q-19.35 13.85 -18.5 13.85 -11.9 13.85 -2.05 8.35 L-0.7 7.6 Q0.3 6.95 1.4 6.35 L2.4 5.7 6.9 2.7 7.35 2.35 8.2 1.75 Q11.75 -0.75 14.55 -3.0 L14.6 -3.25 15.0 -3.4 Q18.9 -6.65 21.25 -9.35 L21.95 -10.2 Q23.95 -12.75 24.5 -14.8 21.2 -17.7 13.65 -22.8 L12.35 -23.65 11.65 -24.15 9.05 -25.75 7.8 -26.4 6.25 -27.2 M27.8 -15.15 Q25.4 -9.1 22.35 -5.7 L18.4 -1.7 Q21.5 2.75 23.45 18.55 L23.65 21.85 Q23.6 24.8 22.45 27.1 18.9 34.05 5.45 34.05 -2.65 34.05 -7.8 31.05 -11.55 28.85 -11.55 27.4 L-10.3 24.75 Q-9.05 22.5 -9.05 21.05 L-10.25 15.5 Q-14.25 16.55 -17.8 16.55 -21.8 16.55 -25.55 4.1 -27.8 -5.45 -27.8 -8.2 -27.8 -10.95 -26.35 -18.6 -24.9 -26.3 -23.35 -28.65 L-21.75 -32.05 Q-16.85 -34.55 -8.7 -33.9 3.0 -32.45 16.25 -24.7 21.25 -21.75 24.7 -18.7 27.25 -16.4 27.8 -15.15 M10.95 4.3 Q0.8 11.7 -7.55 14.65 -6.75 16.55 -6.55 20.8 -6.55 24.15 -8.3 27.55 -8.3 28.3 -2.75 29.8 2.8 31.3 5.3 31.3 16.7 31.3 18.95 29.3 20.95 27.55 20.95 18.35 20.95 13.9 17.7 5.95 L15.6 0.75 10.95 4.3 M15.7 22.15 Q15.05 21.5 15.05 20.95 15.05 19.9 15.8 19.9 16.55 19.9 16.55 20.8 16.55 21.55 15.7 22.15" fill="#000000" fill-rule="evenodd" stroke="none"/>
      <path d="M0.2 -19.0 L1.3 -20.45 Q4.7 -25.05 5.05 -27.7 L6.25 -27.15 6.25 -27.2 7.8 -26.4 9.05 -25.75 Q8.8 -22.7 7.1 -20.3 4.65 -16.75 -0.35 -15.85 L-1.3 -15.75 -1.3 -15.7 -2.15 -15.65 -3.05 -15.6 -0.95 -17.65 0.2 -19.0" fill="#98aaa5" fill-rule="evenodd" stroke="none"/>
      <path d="M-3.05 -15.6 L-2.15 -15.65 -1.3 -15.7 -1.3 -15.75 -0.35 -15.85 Q4.65 -16.75 7.1 -20.3 8.8 -22.7 9.05 -25.75 L11.65 -24.15 12.35 -23.65 11.8 -22.45 Q11.3 -20.95 11.3 -19.95 L12.05 -17.65 Q12.6 -16.4 13.2 -15.8 L12.05 -15.85 10.45 -15.7 Q6.4 -16.65 4.35 -11.75 L3.6 -9.45 3.15 -7.1 Q2.25 -7.15 2.05 -8.85 1.8 -10.95 1.45 -11.35 L-0.15 -13.55 Q-1.3 -14.9 -3.15 -14.95 L-3.2 -15.6 -3.05 -15.6" fill="#b19cbc" fill-rule="evenodd" stroke="none"/>
      <path d="M12.35 -23.65 L13.65 -22.8 Q21.2 -17.7 24.5 -14.8 23.95 -12.75 21.95 -10.2 21.65 -11.5 20.65 -12.7 18.8 -15.05 14.95 -15.65 L13.2 -15.8 Q12.6 -16.4 12.05 -17.65 L11.3 -19.95 Q11.3 -20.95 11.8 -22.45 L12.35 -23.65" fill="#f59fc6" fill-rule="evenodd" stroke="none"/>
      <path d="M21.95 -10.2 L21.25 -9.35 Q18.9 -6.65 15.0 -3.4 L14.6 -3.25 14.55 -3.0 Q11.75 -0.75 8.2 1.75 L7.35 2.35 6.9 2.7 Q4.4 0.75 4.05 -0.8 L3.3 -4.2 3.1 -5.3 3.05 -5.6 3.15 -7.1 3.6 -9.45 4.35 -11.75 Q6.4 -16.65 10.45 -15.7 L12.05 -15.85 13.2 -15.8 14.95 -15.65 Q18.8 -15.05 20.65 -12.7 21.65 -11.5 21.95 -10.2 M4.55 -4.8 L4.45 -5.2 4.3 -5.2 4.35 -4.7 4.55 -4.8" fill="#d07796" fill-rule="evenodd" stroke="none"/>
      <path d="M3.15 -7.1 L3.05 -5.6 3.1 -5.3 Q1.95 -5.2 0.7 -4.0 -0.3 -3.05 -0.55 -2.25 -3.3 -9.0 -5.1 -10.75 -3.95 -12.1 -3.95 -14.65 L-4.1 -15.6 -3.95 -15.6 -3.2 -15.6 -3.15 -14.95 Q-1.3 -14.9 -0.15 -13.55 L1.45 -11.35 Q1.8 -10.95 2.05 -8.85 2.25 -7.15 3.15 -7.1" fill="#b699ca" fill-rule="evenodd" stroke="none"/>
      <path d="M6.9 2.7 L2.4 5.7 0.1 -0.6 -0.55 -2.25 Q-0.3 -3.05 0.7 -4.0 1.95 -5.2 3.1 -5.3 L3.3 -4.2 4.05 -0.8 Q4.4 0.75 6.9 2.7 M4.55 -4.8 L4.35 -4.7 4.3 -5.2 4.45 -5.2 4.55 -4.8" fill="#b5a5d7" fill-rule="evenodd" stroke="none"/>
      <path d="M15.7 22.15 Q16.55 21.55 16.55 20.8 16.55 19.9 15.8 19.9 15.05 19.9 15.05 20.95 15.05 21.5 15.7 22.15 M10.95 4.3 L15.6 0.75 17.7 5.95 Q20.95 13.9 20.95 18.35 20.95 27.55 18.95 29.3 16.7 31.3 5.3 31.3 2.8 31.3 -2.75 29.8 -8.3 28.3 -8.3 27.55 -6.55 24.15 -6.55 20.8 -6.75 16.55 -7.55 14.65 0.8 11.7 10.95 4.3" fill="#f7ead8" fill-rule="evenodd" stroke="none"/>
      <path d="M2.4 5.7 L1.4 6.35 Q0.3 6.95 -0.7 7.6 -1.0 1.6 -9.0 1.4 -7.45 -1.15 -7.45 -3.6 -8.45 -7.5 -9.5 -9.35 L-8.8 -9.35 -6.5 -9.75 Q-5.65 -10.1 -5.1 -10.75 -3.3 -9.0 -0.55 -2.25 L0.1 -0.6 2.4 5.7" fill="#aab9db" fill-rule="evenodd" stroke="none"/>
      <path d="M-20.8 -27.9 L-20.5 -28.5 -20.1 -29.25 -18.9 -30.0 -14.8 -30.45 -12.95 -30.5 Q-13.15 -29.15 -14.05 -27.1 L-15.0 -25.4 -16.25 -24.2 -17.05 -23.9 -17.5 -24.8 Q-18.8 -27.35 -20.8 -27.9" fill="#f6bdba" fill-rule="evenodd" stroke="none"/>
      <path d="M-9.7 -30.45 L-9.7 -30.3 Q-9.7 -28.25 -6.3 -23.6 -4.65 -21.25 -1.65 -19.8 L0.2 -19.0 -0.95 -17.65 -3.05 -15.6 -3.2 -15.6 -3.95 -15.6 -4.1 -15.6 -5.0 -15.65 Q-9.15 -16.25 -11.05 -21.55 -12.2 -24.8 -12.2 -28.05 L-12.1 -30.5 -11.0 -30.5 -10.95 -30.5 -10.95 -30.3 -10.9 -30.5 -10.45 -30.5 -9.7 -30.5 -9.7 -30.45" fill="#b2aeef" fill-rule="evenodd" stroke="none"/>
      <path d="M-12.95 -30.5 L-12.1 -30.5 -12.2 -28.05 Q-12.2 -24.8 -11.05 -21.55 -9.15 -16.25 -5.0 -15.65 L-4.1 -15.6 -3.95 -14.65 Q-3.95 -12.1 -5.1 -10.75 -5.65 -10.1 -6.5 -9.75 L-8.8 -9.35 -9.5 -9.35 -11.85 -9.8 Q-12.9 -10.15 -13.8 -10.75 L-14.2 -11.05 -14.2 -11.45 -16.9 -15.4 Q-15.95 -17.55 -15.95 -19.85 -16.4 -22.2 -17.05 -23.9 L-16.25 -24.2 -15.0 -25.4 -14.05 -27.1 Q-13.15 -29.15 -12.95 -30.5" fill="#c79bff" fill-rule="evenodd" stroke="none"/>
      <path d="M-24.75 -9.85 L-24.7 -10.0 -24.55 -11.7 -23.95 -16.0 Q-22.65 -24.25 -21.75 -26.05 L-21.65 -26.2 -20.8 -27.9 Q-18.8 -27.35 -17.5 -24.8 L-17.05 -23.9 Q-16.4 -22.2 -15.95 -19.85 -15.95 -17.55 -16.9 -15.4 L-17.55 -14.15 -17.7 -13.95 -17.95 -13.5 Q-20.2 -10.3 -24.1 -9.9 L-24.75 -9.85" fill="#feebff" fill-rule="evenodd" stroke="none"/>
      <path d="M-21.75 6.6 L-21.85 6.1 -22.2 4.75 -24.6 -4.75 Q-24.95 -6.15 -24.8 -8.7 L-24.5 -8.6 -22.05 -8.1 Q-19.55 -8.1 -17.6 -9.1 L-16.25 -10.0 Q-15.55 -8.35 -15.2 -4.25 -15.2 -1.75 -16.8 1.8 -18.75 6.1 -21.75 6.6" fill="#fdffdc" fill-rule="evenodd" stroke="none"/>
      <path d="M-24.8 -8.7 L-24.75 -9.85 -24.1 -9.9 Q-20.2 -10.3 -17.95 -13.5 L-17.7 -13.95 -17.55 -14.15 -16.9 -15.4 -14.2 -11.45 -14.2 -11.05 -14.75 -11.5 -15.25 -10.9 -16.25 -10.0 -17.6 -9.1 Q-19.55 -8.1 -22.05 -8.1 L-24.5 -8.6 -24.8 -8.7" fill="#d3b2ff" fill-rule="evenodd" stroke="none"/>
      <path d="M-20.6 10.4 L-20.95 9.25 -21.75 6.6 Q-18.75 6.1 -16.8 1.8 -15.2 -1.75 -15.2 -4.25 -15.55 -8.35 -16.25 -10.0 L-15.25 -10.9 -14.75 -11.5 -14.2 -11.05 -13.8 -10.75 Q-12.9 -10.15 -11.85 -9.8 L-9.5 -9.35 Q-8.45 -7.5 -7.45 -3.6 -7.45 -1.15 -9.0 1.4 L-9.65 2.45 Q-10.9 4.15 -12.8 5.9 -17.6 10.3 -20.6 10.4 M-10.7 1.95 L-10.7 2.1 -10.25 1.5 -10.7 1.95" fill="#badadb" fill-rule="evenodd" stroke="none"/>
      <path d="M-0.7 7.6 L-2.05 8.35 Q-11.9 13.85 -18.5 13.85 -19.35 13.85 -20.6 10.4 -17.6 10.3 -12.8 5.9 -10.9 4.15 -9.65 2.45 L-9.0 1.4 Q-1.0 1.6 -0.7 7.6 M-10.7 1.95 L-10.25 1.5 -10.7 2.1 -10.7 1.95" fill="#6bcbf1" fill-rule="evenodd" stroke="none"/>
    </g>
    <g id="sprite0" transform="matrix(1, 0, 0, 1, 5.95, 5.0)">
      <use height="10.25" transform="matrix(1.0, 0.0, 0.0, 1.0, -5.95, -5.0)" width="10.45" xlink:href="#shape1"/>
    </g>
    <g id="shape1" transform="matrix(1, 0, 0, 1, 5.95, 5.0)">
      <path d="M3.3 -3.8 Q4.25 -2.65 4.45 -1.4 4.6 -0.5 4.35 0.35 3.9 2.1 2.6 3.45 L1.45 4.25 Q-0.6 5.5 -2.95 5.15 -4.55 5.05 -5.4 3.45 L-5.95 1.45 Q-6.0 -0.05 -5.0 -1.2 -3.6 -2.65 -1.6 -3.0 L-0.2 -2.8 Q0.9 -2.65 1.35 -1.5 1.65 -0.6 1.55 0.2 1.25 2.1 -0.75 2.1 -1.8 2.2 -2.45 1.4 L-2.5 0.75 -1.2 0.65 Q-0.25 0.75 0.2 0.05 L-0.2 -1.3 Q-2.05 -2.1 -3.5 -0.85 -4.65 0.1 -5.0 1.4 L-4.7 2.05 -3.65 3.25 Q-2.45 4.25 -0.65 3.8 1.95 3.2 3.1 0.8 3.35 0.25 3.2 -0.3 2.45 -3.0 -0.45 -3.6 L-0.4 -4.55 0.65 -5.0 Q2.3 -5.1 3.3 -3.8" fill="#000000" fill-rule="evenodd" stroke="none"/>
    </g>
  </defs>
</svg>
