<?xml version="1.0" encoding="UTF-8" standalone="no"?>
<svg xmlns:xlink="http://www.w3.org/1999/xlink" height="720.75px" width="1716.8px" xmlns="http://www.w3.org/2000/svg">
  <g transform="matrix(1, 0, 0, 1, 307.05, 450.35)">
    <use height="259.1" transform="matrix(1.0, 0.0, 0.0, 1.0, -46.55, -130.05)" width="93.05" xlink:href="#sprite0"/>
  </g>
  <defs>
    <g id="sprite0" transform="matrix(1, 0, 0, 1, 46.5, 129.55)">
      <use height="251.9" transform="matrix(1.0, 0.0, 0.0, 1.0, -42.05, -125.1)" width="84.35" xlink:href="#shape0"/>
      <use height="259.1" transform="matrix(1.0, 0.0, 0.0, 1.0, -46.5, -129.55)" width="93.05" xlink:href="#sprite1"/>
    </g>
    <g id="shape0" transform="matrix(1, 0, 0, 1, 42.05, 125.1)">
      <path d="M-19.25 77.2 L-16.35 77.65 -2.1 77.4 -2.1 88.9 -5.85 89.25 Q-15.65 90.3 -19.35 91.4 L-19.25 77.2 M-31.35 86.15 L-32.6 86.45 -32.6 87.0 Q-33.1 87.25 -33.1 87.75 -33.1 88.4 -32.6 88.9 L-32.6 110.15 Q-32.45 110.9 -31.35 111.15 L-30.3 110.7 -30.1 98.5 -30.1 92.25 -30.3 89.05 -29.8 88.7 -29.6 87.75 -29.85 86.9 -30.75 86.75 Q-31.0 86.15 -31.35 86.15 M-29.1 8.5 Q-28.6 0.65 -30.35 0.65 L-31.6 0.95 -31.6 15.65 Q-31.45 16.4 -30.35 16.65 L-29.3 16.2 -29.1 8.5 M-30.85 -33.35 Q-32.1 -33.35 -32.1 -26.0 -32.1 -20.25 -30.85 -18.35 -30.0 -18.7 -29.85 -18.85 -29.6 -21.1 -29.6 -26.0 -29.25 -33.35 -30.85 -33.35 M-29.6 -62.0 L-29.55 -65.55 -29.3 -65.8 -29.1 -66.75 -29.35 -67.6 -30.0 -67.7 Q-30.35 -68.35 -30.85 -68.35 L-32.1 -68.05 -32.1 -67.5 -32.6 -66.75 Q-32.6 -66.1 -32.1 -65.6 L-32.1 -56.35 Q-31.95 -55.6 -30.85 -55.35 L-29.8 -55.8 -29.6 -62.0 M-32.6 -94.25 Q-32.6 -87.55 -31.35 -85.85 -30.5 -86.2 -30.35 -86.35 -30.1 -89.05 -30.1 -94.25 -29.7 -102.35 -31.35 -102.35 -32.6 -102.35 -32.6 -94.25 M33.65 80.15 L32.4 80.45 32.4 98.15 Q32.55 98.9 33.65 99.15 L34.7 98.7 34.9 89.5 Q35.25 80.15 33.65 80.15 M0.35 77.3 L5.75 76.95 Q5.85 83.0 6.8 88.05 L0.25 88.65 0.35 77.3 M0.35 60.85 L5.9 60.45 5.75 73.7 0.4 74.05 0.4 72.5 0.4 62.5 0.35 60.85 M7.9 57.1 L8.15 57.25 8.1 56.85 7.9 57.1 M21.4 39.25 L21.15 38.4 18.4 38.15 -5.75 40.05 Q-17.6 41.15 -17.6 43.0 L-16.35 44.65 10.2 41.6 Q21.4 40.4 21.4 39.25 M19.9 25.7 L19.9 25.65 19.85 25.55 19.8 25.5 19.65 25.7 3.15 25.15 -12.35 25.4 Q-16.6 25.25 -16.6 26.75 L-16.55 27.45 Q-15.85 28.15 -14.1 28.15 L18.65 27.65 Q19.9 27.65 19.9 26.25 L19.9 25.7 M32.15 17.15 L33.15 16.65 33.4 8.0 Q33.75 -0.85 32.15 -0.85 30.9 -0.85 30.9 8.0 30.9 15.0 32.15 17.15 M22.65 10.45 L23.3 10.4 Q23.0 15.45 22.9 25.5 L22.9 47.0 22.9 67.9 Q23.0 71.35 22.7 78.55 22.7 83.25 23.5 86.8 L21.9 86.65 9.4 87.8 9.4 85.0 9.2 76.6 12.4 76.2 Q21.9 74.9 21.9 72.75 L21.65 71.9 19.65 71.65 Q15.95 72.7 9.1 73.4 L8.9 69.0 8.4 60.2 10.95 59.9 Q20.9 58.7 20.9 57.25 L20.8 56.5 20.65 56.7 Q19.85 56.15 19.15 56.15 L16.9 56.9 12.9 57.45 12.85 57.8 9.6 57.9 9.6 58.0 5.35 58.0 0.25 58.15 -15.6 58.6 -18.35 58.9 -18.6 59.75 -18.85 60.0 -18.55 60.45 -10.6 61.15 -2.1 61.0 -2.1 74.2 -4.9 74.3 Q-17.35 74.8 -19.25 75.85 L-19.15 60.0 -19.1 49.25 -19.1 27.15 Q-19.25 15.75 -19.55 10.3 L-3.1 10.65 Q-3.0 15.1 -1.85 16.15 L-0.6 15.45 -0.6 10.65 -0.1 10.65 5.9 10.65 5.9 19.15 Q6.05 19.9 7.15 20.15 L8.2 19.7 8.4 12.0 8.5 10.65 22.65 10.45 M25.9 9.15 Q25.65 8.6 24.85 8.25 24.55 5.15 24.15 5.15 23.75 5.15 23.45 8.5 L23.35 8.55 23.3 8.5 23.15 8.7 8.5 8.25 Q8.4 4.15 7.15 4.15 L5.9 4.45 5.9 8.25 -0.1 8.15 -0.6 8.15 -0.6 4.65 Q-0.9 4.05 -1.85 3.65 -2.85 4.55 -3.05 8.15 L-19.7 8.2 Q-20.0 5.15 -20.35 5.15 -20.75 5.15 -21.0 8.2 L-22.85 8.2 Q-23.6 8.6 -23.6 9.25 L-23.55 9.95 -21.15 10.2 -21.4 15.95 Q-22.1 28.4 -22.1 52.4 L-22.1 74.15 Q-22.0 77.8 -22.3 85.4 -22.3 92.05 -20.85 96.15 L-19.6 95.45 -19.6 94.05 -16.85 94.15 -1.95 92.05 Q-1.65 92.45 -0.85 92.65 L0.2 92.2 0.2 91.75 7.35 90.7 8.15 93.65 9.15 93.15 9.35 90.4 23.8 88.05 24.15 89.15 24.45 89.05 24.65 89.65 25.9 88.95 25.9 9.15 M41.6 -101.9 Q41.2 -92.5 41.3 -62.4 41.45 -4.55 42.0 57.15 42.2 66.35 41.7 85.3 L42.3 110.2 12.15 115.9 -41.1 126.8 -40.75 -12.75 Q-40.7 -29.6 -41.35 -67.0 L-42.05 -125.1 Q1.8 -112.4 41.6 -101.9 M27.8 -25.5 L27.65 -25.3 Q27.2 -25.6 1.65 -25.85 L-23.85 -25.8 Q-24.05 -25.65 -24.4 -25.65 -24.6 -25.55 -24.6 -24.75 L-24.55 -24.05 1.65 -23.35 27.15 -23.55 Q27.9 -24.15 27.9 -24.75 L27.85 -25.45 27.8 -25.5 M33.15 -30.35 L31.9 -30.05 31.9 -15.35 Q32.05 -14.6 33.15 -14.35 L34.2 -14.8 34.4 -22.5 Q34.8 -30.35 33.15 -30.35 M33.9 -51.5 Q34.4 -58.85 32.65 -58.85 31.4 -58.85 31.4 -51.5 31.4 -45.75 32.65 -43.85 L33.65 -44.35 33.9 -51.5 M21.4 -50.85 L26.15 -51.05 Q26.9 -51.25 26.9 -52.25 L2.65 -56.6 -24.6 -60.85 -25.8 -60.75 Q-26.1 -60.6 -26.1 -59.75 L-26.05 -59.05 Q-22.8 -57.85 -5.7 -54.6 13.85 -50.85 21.4 -50.85 M20.9 -81.85 L26.65 -82.0 Q27.4 -82.2 27.4 -83.25 L3.15 -88.6 Q-21.35 -93.85 -23.35 -93.85 -26.1 -93.85 -26.1 -92.75 L-6.6 -87.3 Q14.2 -81.85 20.9 -81.85 M34.2 -75.8 L34.4 -83.5 Q34.8 -91.35 33.15 -91.35 L31.9 -91.05 31.9 -76.35 Q32.05 -75.6 33.15 -75.35 L34.2 -75.8" fill="#b4fefd" fill-opacity="0.5019608" fill-rule="evenodd" stroke="none"/>
    </g>
    <g id="sprite1" transform="matrix(1, 0, 0, 1, 0.0, 0.0)">
      <use height="259.1" transform="matrix(1.0, 0.0, 0.0, 1.0, 0.0, 0.0)" width="93.05" xlink:href="#sprite2"/>
    </g>
    <g id="sprite2" transform="matrix(1, 0, 0, 1, 0.0, 0.0)">
      <use height="259.1" transform="matrix(1.0, 0.0, 0.0, 1.0, 0.0, 0.0)" width="93.05" xlink:href="#shape1"/>
    </g>
    <g id="shape1" transform="matrix(1, 0, 0, 1, 0.0, 0.0)">
      <path d="M90.5 23.75 L93.05 24.45 93.0 243.3 90.3 243.85 88.95 244.1 Q50.0 251.4 1.5 259.1 L0.65 229.2 0.65 131.3 0.2 52.8 Q-0.1 8.45 0.1 5.4 L0.2 2.3 0.6 0.85 2.35 0.0 48.15 12.05 89.2 23.4 90.5 23.75 M79.65 54.2 Q78.55 53.95 78.4 53.2 L78.4 38.5 79.65 38.2 Q81.3 38.2 80.9 46.05 L80.7 53.75 79.65 54.2 M73.15 47.55 L67.4 47.7 Q60.7 47.7 39.9 42.25 L20.4 36.8 Q20.4 35.7 23.15 35.7 25.15 35.7 49.65 40.95 73.9 46.1 73.9 46.3 73.9 47.35 73.15 47.55 M72.65 78.5 L67.9 78.7 Q60.35 78.7 40.8 74.95 23.7 71.7 20.45 70.5 L20.4 69.8 Q20.4 68.95 20.7 68.8 L21.9 68.7 Q24.55 68.7 49.15 72.95 L73.4 77.3 Q73.4 78.3 72.65 78.5 M79.15 70.7 Q80.9 70.7 80.4 78.05 L80.15 85.2 79.15 85.7 Q77.9 83.8 77.9 78.05 77.9 70.7 79.15 70.7 M74.3 104.05 L74.35 104.1 74.4 104.8 Q74.4 105.4 73.65 106.0 L48.15 106.2 21.95 105.5 21.9 104.8 Q21.9 104.0 22.1 103.9 L22.65 103.75 48.15 103.7 Q73.7 103.95 74.15 104.25 L74.3 104.05 M79.65 99.2 Q81.3 99.2 80.9 107.05 L80.7 114.75 79.65 115.2 Q78.55 114.95 78.4 114.2 L78.4 99.5 79.65 99.2 M88.1 27.65 Q48.3 17.15 4.45 4.45 4.55 25.15 5.15 62.55 5.8 99.95 5.75 116.8 L5.4 256.35 58.65 245.45 88.8 239.75 88.2 214.85 Q88.7 195.9 88.5 186.7 87.95 125.0 87.8 67.15 87.7 37.05 88.1 27.65 M69.8 138.05 L69.85 138.1 69.95 138.05 Q70.25 134.7 70.65 134.7 71.05 134.7 71.35 137.8 72.15 138.15 72.4 138.7 L72.4 218.5 71.15 219.2 70.95 218.6 70.65 218.7 70.3 217.6 55.85 219.95 55.65 222.7 54.65 223.2 53.85 220.25 46.7 221.3 46.7 221.75 45.65 222.2 Q44.85 222.0 44.55 221.6 L29.65 223.7 26.9 223.6 26.9 225.0 25.65 225.7 Q24.2 221.6 24.2 214.95 24.5 207.35 24.4 203.7 L24.4 181.95 Q24.4 157.95 25.1 145.5 L25.35 139.75 22.95 139.5 22.9 138.8 Q22.9 138.15 23.65 137.75 L25.5 137.75 Q25.75 134.7 26.15 134.7 26.5 134.7 26.8 137.75 L43.45 137.7 Q43.65 134.1 44.65 133.2 45.6 133.6 45.9 134.2 L45.9 137.7 46.4 137.7 52.4 137.8 52.4 134.0 53.65 133.7 Q54.9 133.7 55.0 137.8 L69.65 138.25 69.8 138.05 M69.15 140.0 L55.0 140.2 54.9 141.55 54.7 149.25 53.65 149.7 Q52.55 149.45 52.4 148.7 L52.4 140.2 46.4 140.2 45.9 140.2 45.9 145.0 44.65 145.7 Q43.5 144.65 43.4 140.2 L26.95 139.85 27.4 156.7 27.4 178.8 27.35 189.55 27.25 205.4 Q29.15 204.35 41.6 203.85 L44.4 203.75 44.4 190.55 35.9 190.7 27.95 190.0 Q27.55 189.8 27.65 189.55 L27.9 189.3 Q27.9 188.55 28.15 188.45 L30.9 188.15 46.75 187.7 51.85 187.55 56.1 187.55 56.1 187.45 59.35 187.35 59.4 187.0 63.4 186.45 65.65 185.7 Q66.35 185.7 67.15 186.25 L67.3 186.05 67.4 186.8 Q67.4 188.25 57.45 189.45 L54.9 189.75 55.4 198.55 55.6 202.95 Q62.45 202.25 66.15 201.2 L68.15 201.45 68.4 202.3 Q68.4 204.45 58.9 205.75 L55.7 206.15 55.9 214.55 55.9 217.35 68.4 216.2 70.0 216.35 Q69.2 212.8 69.2 208.1 69.5 200.9 69.4 197.45 L69.4 176.55 69.4 155.05 Q69.5 145.0 69.8 139.95 L69.15 140.0 M78.65 146.7 Q77.4 144.55 77.4 137.55 77.4 128.7 78.65 128.7 80.25 128.7 79.9 137.55 L79.65 146.2 78.65 146.7 M66.15 155.25 L66.3 155.05 66.35 155.1 66.4 155.2 66.4 155.25 66.4 155.8 Q66.4 157.2 65.15 157.2 L32.4 157.7 Q30.65 157.7 29.95 157.0 L29.9 156.3 Q29.9 154.8 34.15 154.95 L49.65 154.7 66.15 155.25 M67.9 168.8 Q67.9 169.95 56.7 171.15 L30.15 174.2 Q28.9 172.95 28.9 172.55 28.9 170.7 40.75 169.6 L64.9 167.7 67.65 167.95 67.9 168.8 M54.4 186.65 L54.6 186.4 54.65 186.8 54.4 186.65 M46.85 190.4 L46.9 192.05 46.9 202.05 46.9 203.6 52.25 203.25 52.4 190.0 46.85 190.4 M46.85 206.85 L46.75 218.2 53.3 217.6 Q52.35 212.55 52.25 206.5 L46.85 206.85 M80.15 209.7 Q81.75 209.7 81.4 219.05 L81.2 228.25 80.15 228.7 Q79.05 228.45 78.9 227.7 L78.9 210.0 80.15 209.7 M16.15 43.2 L15.15 43.7 Q13.9 42.0 13.9 35.3 13.9 27.2 15.15 27.2 16.8 27.2 16.4 35.3 L16.15 43.2 M16.95 64.0 L16.9 67.55 16.7 73.75 15.65 74.2 Q14.55 73.95 14.4 73.2 L14.4 63.95 Q13.9 63.45 13.9 62.8 13.9 62.3 14.4 62.05 L14.4 61.5 15.65 61.2 Q16.15 61.2 16.5 61.85 L17.15 61.95 17.4 62.8 17.2 63.75 16.95 64.0 M16.65 110.7 L15.65 111.2 Q14.4 109.3 14.4 103.55 14.4 96.2 15.65 96.2 17.25 96.2 16.9 103.55 L16.65 110.7 M17.4 138.05 L17.2 145.75 16.15 146.2 Q15.05 145.95 14.9 145.2 L14.9 130.5 16.15 130.2 Q17.9 130.2 17.4 138.05 M15.15 215.7 L15.75 216.3 16.65 216.45 16.9 217.3 16.7 218.25 16.2 218.6 16.4 221.8 16.4 228.05 16.2 240.25 15.15 240.7 Q14.05 240.45 13.9 239.7 L13.9 218.45 Q13.4 217.95 13.4 217.3 13.4 216.8 13.9 216.55 L13.9 216.0 15.15 215.7 M27.25 206.75 L27.15 220.95 Q30.85 219.85 40.65 218.8 L44.4 218.45 44.4 206.95 30.15 207.2 27.25 206.75" fill="#3ebef4" fill-opacity="0.7529412" fill-rule="evenodd" stroke="none"/>
    </g>
  </defs>
</svg>
