<?xml version="1.0" encoding="UTF-8" standalone="no"?>
<svg xmlns:xlink="http://www.w3.org/1999/xlink" height="720.75px" width="1716.8px" xmlns="http://www.w3.org/2000/svg">
  <g transform="matrix(1, 0, 0, 1, 307.05, 450.35)">
    <use height="174.0" transform="matrix(1.0, 0.0, 0.0, 1.0, -30.0, -87.0)" width="60.0" xlink:href="#sprite0"/>
  </g>
  <defs>
    <g id="sprite0" transform="matrix(1, 0, 0, 1, 30.0, 87.0)">
      <use height="174.0" transform="matrix(1.0, 0.0, 0.0, 1.0, -30.0, -87.0)" width="60.0" xlink:href="#shape0"/>
      <use height="174.0" transform="matrix(1.0, 0.0, 0.0, 1.0, -30.0, -87.0)" width="60.0" xlink:href="#shape1"/>
    </g>
    <g id="shape0" transform="matrix(1, 0, 0, 1, 30.0, 87.0)">
      <path d="M30.0 55.0 L7.0 55.0 1.0 87.0 -7.0 55.0 -30.0 55.0 -10.0 43.0 0.0 -87.0 10.0 43.0 30.0 55.0" fill="#ff4d4d" fill-rule="evenodd" stroke="none"/>
    </g>
    <g id="shape1" transform="matrix(1, 0, 0, 1, 30.0, 87.0)">
      <path d="M7.0 55.0 L1.0 87.0 -7.0 55.0 -30.0 55.0 -10.0 43.0 0.0 -87.0 10.0 43.0 30.0 55.0 7.0 55.0" fill="url(#gradient0)" fill-rule="evenodd" stroke="none"/>
    </g>
    <radialGradient cx="0" cy="0" gradientTransform="matrix(0.022, 0.0, -1.0E-4, 0.1294, -0.05, 4.0)" gradientUnits="userSpaceOnUse" id="gradient0" r="819.2" spreadMethod="pad">
      <stop offset="0.0" stop-color="#ffffff"/>
      <stop offset="1.0" stop-color="#ffffff" stop-opacity="0.0"/>
    </radialGradient>
  </defs>
</svg>
