<?xml version="1.0" encoding="UTF-8" standalone="no"?>
<svg xmlns:xlink="http://www.w3.org/1999/xlink" height="720.75px" width="1716.8px" xmlns="http://www.w3.org/2000/svg">
  <g transform="matrix(1, 0, 0, 1, 307.05, 450.35)">
    <use height="44.6" transform="matrix(1.0, 0.0, 0.0, 1.0, -72.9, -22.3)" width="145.8" xlink:href="#sprite0"/>
  </g>
  <defs>
    <g id="sprite0" transform="matrix(1, 0, 0, 1, 72.9, 22.25)">
      <use height="44.6" transform="matrix(1.0, 0.0, 0.0, 1.0, -72.9, -22.25)" width="145.8" xlink:href="#shape0"/>
    </g>
    <g id="shape0" transform="matrix(1, 0, 0, 1, 72.9, 22.25)">
      <path d="M70.4 -8.1 L11.45 -8.1 11.6 -9.0 Q11.85 -10.65 12.75 -12.1 L69.05 -12.1 Q70.1 -10.25 70.4 -8.1 M11.0 -4.05 L70.65 -4.05 70.85 0.0 10.95 0.0 10.95 -2.35 11.0 -4.05 M70.8 4.0 L69.95 8.05 12.65 8.05 Q11.85 6.15 11.45 4.0 L70.8 4.0 M68.3 12.05 L67.75 12.95 67.55 13.25 65.2 16.1 18.9 16.1 Q16.5 14.35 14.85 12.05 L68.3 12.05 M-10.95 -2.35 L-10.95 0.0 -70.85 0.0 -70.65 -4.05 -11.0 -4.05 -10.95 -2.35 M-11.45 4.0 Q-11.9 6.15 -12.65 8.05 L-69.95 8.05 -70.8 4.0 -11.45 4.0 M-14.85 12.05 Q-16.55 14.35 -18.9 16.1 L-65.2 16.1 Q-66.55 14.85 -67.55 13.25 L-67.75 12.95 -68.3 12.05 -14.85 12.05 M-70.4 -8.1 Q-70.1 -10.25 -69.05 -12.1 L-12.75 -12.1 Q-11.9 -10.65 -11.6 -9.0 L-11.45 -8.1 -70.4 -8.1 M-65.35 -16.15 Q-63.5 -17.5 -58.4 -18.85 -53.35 -20.25 -41.85 -20.25 -30.4 -20.3 -24.65 -18.85 -18.9 -17.45 -16.9 -16.15 L-65.35 -16.15 M65.35 -16.15 L16.9 -16.15 Q18.9 -17.45 24.65 -18.85 30.4 -20.3 41.85 -20.25 53.35 -20.25 58.45 -18.85 63.5 -17.5 65.35 -16.15" fill="#ffffff" fill-rule="evenodd" stroke="none"/>
      <path d="M70.65 -4.05 L70.5 -7.35 70.4 -8.1 Q70.1 -10.25 69.05 -12.1 67.75 -14.35 65.35 -16.15 63.5 -17.5 58.45 -18.85 53.35 -20.25 41.85 -20.25 30.4 -20.3 24.65 -18.85 18.9 -17.45 16.9 -16.15 14.1 -14.35 12.75 -12.1 11.85 -10.65 11.6 -9.0 L11.45 -8.1 11.0 -4.05 10.95 -2.35 Q-0.45 -6.5 -10.95 -2.35 L-10.95 0.0 -11.45 4.0 Q-11.9 6.15 -12.65 8.05 -13.55 10.2 -14.85 12.05 -16.55 14.35 -18.9 16.1 -23.4 19.35 -32.5 20.05 -41.65 20.7 -56.35 20.05 -61.8 19.2 -65.2 16.1 -66.55 14.85 -67.55 13.25 L-67.75 12.95 -68.3 12.05 -69.95 8.05 -70.8 4.0 -70.9 2.9 -70.85 0.0 -70.65 -4.05 -70.5 -7.35 -70.4 -8.1 Q-70.1 -10.25 -69.05 -12.1 -67.75 -14.35 -65.35 -16.15 -63.5 -17.5 -58.4 -18.85 -53.35 -20.25 -41.85 -20.25 -30.4 -20.3 -24.65 -18.85 -18.9 -17.45 -16.9 -16.15 -14.1 -14.35 -12.75 -12.1 -11.9 -10.65 -11.6 -9.0 L-11.45 -8.1 -11.0 -4.05 -10.95 -2.35 M70.65 -4.05 L70.85 0.0 70.9 2.9 70.8 4.0 69.95 8.05 68.3 12.05 67.75 12.95 67.55 13.25 65.2 16.1 Q61.75 19.2 56.35 20.05 41.65 20.7 32.5 20.05 23.35 19.35 18.9 16.1 16.5 14.35 14.85 12.05 13.5 10.2 12.65 8.05 11.85 6.15 11.45 4.0 11.05 2.1 10.95 0.0 L10.95 -2.35" fill="none" stroke="#000000" stroke-linecap="round" stroke-linejoin="round" stroke-width="4.0"/>
      <path d="M70.4 -8.1 L11.45 -8.1 M11.0 -4.05 L70.65 -4.05 M69.05 -12.1 L12.75 -12.1 M65.35 -16.15 L16.9 -16.15 M70.85 0.0 L10.95 0.0 M11.45 4.0 L70.8 4.0 M69.95 8.05 L12.65 8.05 M14.85 12.05 L68.3 12.05 M65.2 16.1 L18.9 16.1 M-65.35 -16.15 L-16.9 -16.15 M-65.2 16.1 L-18.9 16.1 M-70.65 -4.05 L-11.0 -4.05 M-70.4 -8.1 L-11.45 -8.1 M-69.05 -12.1 L-12.75 -12.1 M-10.95 0.0 L-70.85 0.0 M-14.85 12.05 L-68.3 12.05 M-12.65 8.05 L-69.95 8.05 M-11.45 4.0 L-70.8 4.0" fill="none" stroke="#000000" stroke-linecap="round" stroke-linejoin="round" stroke-width="2.0"/>
    </g>
  </defs>
</svg>
