<?xml version="1.0" encoding="UTF-8" standalone="no"?>
<svg xmlns:xlink="http://www.w3.org/1999/xlink" height="720.75px" width="1716.8px" xmlns="http://www.w3.org/2000/svg">
  <g transform="matrix(1, 0, 0, 1, 307.05, 450.35)">
    <use height="28.2" transform="matrix(1.0, 0.0, 0.0, 1.0, -14.1, -14.1)" width="28.2" xlink:href="#sprite0"/>
  </g>
  <defs>
    <g id="sprite0" transform="matrix(1, 0, 0, 1, 14.1, 14.1)">
      <use height="28.2" transform="matrix(1.0, 0.0, 0.0, 1.0, -14.1, -14.1)" width="28.2" xlink:href="#shape0"/>
    </g>
    <g id="shape0" transform="matrix(1, 0, 0, 1, 14.1, 14.1)">
      <path d="M10.35 -0.05 Q10.35 -4.3 7.25 -7.4 4.25 -10.4 0.0 -10.4 -4.3 -10.4 -7.35 -7.4 -10.35 -4.3 -10.35 -0.05 -10.35 4.25 -7.35 7.25 -4.3 10.3 0.0 10.3 4.25 10.3 7.25 7.25 10.35 4.25 10.35 -0.05 M14.1 0.0 Q14.05 5.8 9.9 9.9 5.8 14.05 0.0 14.1 -5.85 14.05 -10.05 9.9 -14.15 5.8 -14.1 0.0 -14.15 -5.85 -10.05 -10.05 -5.85 -14.15 0.0 -14.1 5.8 -14.15 9.9 -10.05 14.05 -5.85 14.1 0.0" fill="url(#gradient0)" fill-rule="evenodd" stroke="none"/>
      <path d="M10.35 -0.05 Q10.35 4.25 7.25 7.25 4.25 10.3 0.0 10.3 -4.3 10.3 -7.35 7.25 -10.35 4.25 -10.35 -0.05 -10.35 -4.3 -7.35 -7.4 -4.3 -10.4 0.0 -10.4 4.25 -10.4 7.25 -7.4 10.35 -4.3 10.35 -0.05" fill="url(#gradient1)" fill-rule="evenodd" stroke="none"/>
    </g>
    <radialGradient cx="0" cy="0" gradientTransform="matrix(0.0204, 0.0, 0.0, 0.0204, -0.05, -0.05)" gradientUnits="userSpaceOnUse" id="gradient0" r="819.2" spreadMethod="pad">
      <stop offset="0.7372549019607844" stop-color="#ffffff" stop-opacity="0.0"/>
      <stop offset="0.8235294117647058" stop-color="#ec3636" stop-opacity="0.7882353"/>
      <stop offset="1.0" stop-color="#e60000"/>
    </radialGradient>
    <radialGradient cx="0" cy="0" gradientTransform="matrix(0.015, 0.0, 0.0, 0.015, -0.05, -0.05)" gradientUnits="userSpaceOnUse" id="gradient1" r="819.2" spreadMethod="pad">
      <stop offset="0.596078431372549" stop-color="#ffffff"/>
      <stop offset="1.0" stop-color="#e60000"/>
    </radialGradient>
  </defs>
</svg>
