<?xml version="1.0" encoding="UTF-8" standalone="no"?>
<svg xmlns:xlink="http://www.w3.org/1999/xlink" height="720.75px" width="1716.8px" xmlns="http://www.w3.org/2000/svg">
  <g transform="matrix(1, 0, 0, 1, 307.05, 450.35)">
    <use height="76.25" transform="matrix(-0.9263, -0.3748, 0.3748, -0.9263, 3.7177, 42.2194)" width="36.7" xlink:href="#sprite0"/>
  </g>
  <defs>
    <g id="sprite0" transform="matrix(1, 0, 0, 1, 18.35, 38.1)">
      <use height="76.25" transform="matrix(1.0, 0.0, 0.0, 1.0, -18.35, -38.1)" width="36.7" xlink:href="#shape0"/>
    </g>
    <g id="shape0" transform="matrix(1, 0, 0, 1, 18.35, 38.1)">
      <path d="M3.4 -2.15 Q3.2 -2.65 2.55 -2.55 2.1 -1.35 2.8 2.65 L-0.05 3.2 Q-1.6 3.35 -2.9 3.9 -3.15 4.05 -3.25 4.9 L0.4 4.7 3.2 3.95 Q4.2 3.5 4.05 0.85 3.8 -1.25 3.4 -2.15 M-3.4 -5.9 Q-5.05 -2.25 -4.8 -1.7 L-0.9 1.4 1.05 -2.65 Q-2.5 -6.35 -3.4 -5.9 M-1.2 -0.5 L-1.35 -0.45 -3.35 -2.3 -2.7 -3.95 Q-1.1 -3.8 -0.4 -2.2 L-1.2 -0.5 M-5.55 -13.3 L-5.5 -13.2 Q-5.0 -10.65 -3.95 -11.1 L-3.45 -11.65 -4.75 -14.55 Q-5.55 -14.95 -7.7 -14.1 -8.45 -13.75 -8.0 -12.7 L-4.8 -7.5 -2.95 -9.8 Q-1.25 -12.2 -1.4 -12.55 -1.65 -13.05 -2.25 -12.95 -4.2 -10.85 -4.75 -9.3 L-4.95 -9.45 -6.45 -12.9 -5.55 -13.3 M-6.9 -19.1 L-6.95 -19.65 Q-7.35 -20.5 -9.05 -19.5 L-9.1 -19.6 -10.0 -23.15 Q-8.75 -23.7 -8.9 -24.1 L-9.4 -24.65 -11.25 -24.5 Q-11.75 -24.3 -11.15 -22.0 L-10.3 -19.25 Q-10.2 -17.6 -8.25 -18.45 L-6.9 -19.1 M-4.65 -19.95 Q-5.7 -22.35 -6.45 -22.5 L-6.85 -22.1 -5.1 -17.85 -8.2 -17.15 Q-9.05 -16.75 -8.9 -16.0 -7.65 -15.25 -4.45 -16.6 L-3.5 -17.2 -4.65 -19.95 M-11.55 -34.05 Q9.6 -7.55 12.2 -1.65 13.35 1.05 13.65 15.55 13.75 23.45 14.4 28.4 11.2 24.55 5.5 19.1 -5.0 9.05 -6.15 6.4 -8.75 0.5 -13.9 -32.95 L-13.0 -33.35 -11.55 -34.05 M6.15 8.45 L5.5 6.9 Q4.55 5.55 3.25 6.15 -0.45 7.75 -0.85 8.75 L-0.35 9.7 1.7 12.9 Q2.0 14.75 2.4 15.4 3.15 16.5 7.05 14.8 L10.3 13.3 10.25 12.8 Q9.85 11.9 4.25 14.6 3.75 13.45 0.95 9.55 0.55 8.7 2.65 7.85 L4.25 7.15 5.75 10.6 5.1 10.95 5.05 10.9 4.5 9.55 Q4.15 8.75 3.45 8.75 L3.0 9.35 4.3 12.2 Q4.7 12.55 5.95 12.0 7.2 11.45 6.9 10.15 L6.15 8.45" fill="#fdf2d2" fill-rule="evenodd" stroke="none"/>
      <path d="M-4.65 -19.95 L-3.5 -17.2 -4.45 -16.6 Q-7.65 -15.25 -8.9 -16.0 -9.05 -16.75 -8.2 -17.15 L-5.1 -17.85 -6.85 -22.1 -6.45 -22.5 Q-5.7 -22.35 -4.65 -19.95 M-6.9 -19.1 L-8.25 -18.45 Q-10.2 -17.6 -10.3 -19.25 L-11.15 -22.0 Q-11.75 -24.3 -11.25 -24.5 L-9.4 -24.65 -8.9 -24.1 Q-8.75 -23.7 -10.0 -23.15 L-9.1 -19.6 -9.05 -19.5 Q-7.35 -20.5 -6.95 -19.65 L-6.9 -19.1 M-5.55 -13.3 L-6.45 -12.9 -4.95 -9.45 -4.75 -9.3 Q-4.2 -10.85 -2.25 -12.95 -1.65 -13.05 -1.4 -12.55 -1.25 -12.2 -2.95 -9.8 L-4.8 -7.5 -8.0 -12.7 Q-8.45 -13.75 -7.7 -14.1 -5.55 -14.95 -4.75 -14.55 L-3.45 -11.65 -3.95 -11.1 Q-5.0 -10.65 -5.5 -13.2 L-5.55 -13.3 M-1.2 -0.5 L-0.4 -2.2 Q-1.1 -3.8 -2.7 -3.95 L-3.35 -2.3 -1.35 -0.45 -1.2 -0.5 M-3.4 -5.9 Q-2.5 -6.35 1.05 -2.65 L-0.9 1.4 -4.8 -1.7 Q-5.05 -2.25 -3.4 -5.9 M3.4 -2.15 Q3.8 -1.25 4.05 0.85 4.2 3.5 3.2 3.95 L0.4 4.7 -3.25 4.9 Q-3.15 4.05 -2.9 3.9 -1.6 3.35 -0.05 3.2 L2.8 2.65 Q2.1 -1.35 2.55 -2.55 3.2 -2.65 3.4 -2.15 M-13.95 -37.0 Q-10.45 -38.3 -10.05 -38.05 2.15 -24.25 15.65 -3.6 16.65 -1.35 18.35 38.15 -9.0 9.9 -9.95 7.6 -15.4 -14.0 -18.35 -35.15 L-13.95 -37.0 M-11.55 -34.05 L-13.0 -33.35 -13.9 -32.95 Q-8.75 0.5 -6.15 6.4 -5.0 9.05 5.5 19.1 11.2 24.55 14.4 28.4 13.75 23.45 13.65 15.55 13.35 1.05 12.2 -1.65 9.6 -7.55 -11.55 -34.05 M6.15 8.45 L6.9 10.15 Q7.2 11.45 5.95 12.0 4.7 12.55 4.3 12.2 L3.0 9.35 3.45 8.75 Q4.15 8.75 4.5 9.55 L5.05 10.9 5.1 10.95 5.75 10.6 4.25 7.15 2.65 7.85 Q0.55 8.7 0.95 9.55 3.75 13.45 4.25 14.6 9.85 11.9 10.25 12.8 L10.3 13.3 7.05 14.8 Q3.15 16.5 2.4 15.4 2.0 14.75 1.7 12.9 L-0.35 9.7 -0.85 8.75 Q-0.45 7.75 3.25 6.15 4.55 5.55 5.5 6.9 L6.15 8.45" fill="#000000" fill-rule="evenodd" stroke="none"/>
    </g>
  </defs>
</svg>
