<?xml version="1.0" encoding="UTF-8" standalone="no"?>
<svg xmlns:xlink="http://www.w3.org/1999/xlink" height="720.75px" width="1716.8px" xmlns="http://www.w3.org/2000/svg">
  <g transform="matrix(1, 0, 0, 1, 307.05, 450.35)">
    <use height="254.95" transform="matrix(1.0, 0.0, 0.0, 1.0, -74.35, -127.5)" width="177.85" xlink:href="#sprite0"/>
  </g>
  <defs>
    <g id="sprite0" transform="matrix(1, 0, 0, 1, 135.5, 152.45)">
      <use height="254.95" transform="matrix(1.0, 0.0, 0.0, 1.0, -128.65, -152.45)" width="135.0" xlink:href="#shape0"/>
    </g>
    <g id="shape0" transform="matrix(1, 0, 0, 1, 128.65, 152.45)">
      <path d="M5.25 -61.65 Q6.2 -49.6 6.2 -19.0 6.15 11.6 6.35 40.85 6.35 62.65 -1.9 74.9 L-1.45 79.85 Q-1.25 83.4 -3.05 86.85 -4.85 90.25 -9.8 90.4 -14.75 90.5 -15.4 88.7 L-16.15 86.7 Q-19.65 88.25 -23.65 89.15 -23.7 95.25 -24.6 97.25 -27.0 102.5 -35.65 102.5 -40.7 102.5 -43.65 97.75 -45.65 94.5 -45.65 92.5 -45.65 91.65 -45.15 90.75 L-51.5 91.0 -66.65 91.5 -85.0 91.3 Q-85.8 94.05 -88.4 96.75 -92.9 101.5 -99.65 101.5 -107.95 101.5 -110.6 95.6 -111.45 93.7 -111.65 91.4 L-111.65 89.35 -111.45 87.8 -116.1 85.55 Q-123.05 81.25 -125.9 71.8 -128.65 62.75 -128.65 45.35 L-127.65 -26.65 Q-127.65 -45.3 -124.65 -59.25 L-123.4 -62.7 Q-122.95 -64.0 -123.35 -62.75 -114.45 -77.35 -85.05 -82.5 -86.65 -90.45 -87.2 -99.35 -87.65 -106.2 -87.65 -124.5 L-87.8 -135.85 Q-87.7 -142.3 -86.25 -145.85 -82.45 -155.5 -66.15 -151.0 L-60.15 -151.5 Q-23.7 -151.5 -16.65 -143.95 -14.4 -141.55 -15.3 -138.4 -15.75 -136.75 -16.65 -135.0 L-17.7 -83.0 Q-5.45 -81.8 -0.1 -79.45 1.6 -78.7 2.95 -76.15 4.3 -73.65 5.25 -61.65 M-63.45 -137.9 Q-60.55 -136.2 -35.9 -136.0 L-21.65 -135.5 -21.65 -142.25 Q-26.85 -143.1 -29.8 -144.05 L-33.45 -145.2 Q-37.35 -146.0 -61.15 -146.0 L-81.65 -145.0 -82.15 -139.5 -66.95 -139.0 Q-65.0 -138.75 -63.45 -137.9 M-21.65 -129.5 L-65.15 -132.5 -82.45 -134.45 -82.65 -124.4 -80.65 -86.15 -80.65 -83.25 -75.15 -84.0 Q-75.15 -84.5 -55.65 -84.5 L-22.45 -83.45 Q-22.85 -89.4 -22.85 -96.5 -22.85 -105.85 -21.65 -126.5 L-21.65 -129.5 M-108.75 -68.7 L-109.2 -68.4 -108.75 -68.45 -76.15 -69.5 Q-52.25 -69.5 -41.1 -67.45 -32.7 -65.9 -27.65 -62.55 L-26.8 -62.85 -1.9 -71.75 Q-1.7 -70.6 -1.65 -72.25 L-1.65 -72.5 -1.65 -72.9 Q-1.65 -74.05 -17.8 -76.1 L-17.9 -68.25 -20.15 -67.5 Q-21.2 -71.45 -21.8 -76.6 -41.8 -79.0 -55.75 -79.0 L-80.75 -77.55 -80.9 -75.25 -83.15 -74.5 -83.85 -77.1 Q-99.85 -74.6 -108.75 -68.7 M-119.65 -54.15 Q-119.8 -46.1 -120.65 -31.55 -121.65 -14.55 -121.65 -5.25 -121.65 11.25 -123.65 45.35 -123.65 54.35 -121.15 68.25 -117.6 86.0 -66.65 86.0 -55.05 86.0 -40.75 82.75 L-39.65 83.25 Q-34.25 81.35 -31.1 77.95 -26.7 73.15 -25.0 63.45 -23.55 54.8 -23.65 38.0 L-22.65 -12.25 Q-22.25 -32.5 -22.65 -43.0 -22.9 -55.15 -31.15 -58.5 -39.55 -61.95 -56.6 -62.45 L-114.15 -62.5 -115.3 -62.5 Q-118.4 -56.9 -119.25 -54.4 L-119.65 -54.15 M-84.35 -37.6 L-78.65 -38.5 -74.15 -38.0 -73.9 -37.75 Q-73.65 -37.6 -73.65 -36.15 -73.65 -34.75 -75.45 -34.25 -80.8 -32.85 -84.15 -31.5 -85.6 -32.0 -85.95 -32.3 -86.65 -32.95 -86.65 -34.65 -86.65 -36.85 -84.35 -37.6 M-102.65 -44.0 Q-91.9 -47.5 -79.15 -47.5 -55.65 -47.5 -44.35 -41.1 -37.45 -37.2 -36.65 -32.5 L-34.65 -24.55 Q-34.7 -35.0 -35.0 -38.3 -35.55 -44.1 -37.65 -46.45 -39.75 -48.85 -45.05 -49.55 L-59.75 -50.0 Q-74.5 -50.0 -80.0 -49.65 -92.1 -48.85 -99.5 -46.0 L-102.9 -44.45 -105.0 -43.2 -102.65 -44.0 M-115.65 -27.25 Q-116.05 -30.8 -115.95 -33.8 -115.7 -39.55 -113.0 -43.75 -104.65 -56.65 -74.15 -55.0 L-59.15 -55.5 Q-46.85 -55.5 -40.7 -53.9 -34.6 -52.3 -32.1 -48.5 -30.0 -45.15 -29.65 -38.25 L-29.65 -22.25 -29.6 -15.5 Q-29.8 -13.35 -30.65 -12.35 L-30.65 -11.75 -30.75 -9.8 Q-31.1 -8.95 -33.15 -8.5 L-58.15 -7.5 -94.6 -9.75 -110.9 -11.35 -110.9 -11.25 -113.15 -10.5 -113.85 -11.7 -116.65 -12.25 Q-117.1 -12.95 -115.85 -13.6 L-114.65 -14.05 Q-115.65 -17.75 -115.65 -23.75 L-115.6 -25.55 -115.65 -27.25 M-109.65 -35.65 L-110.7 -14.7 -105.15 -15.0 -99.15 -15.5 -72.0 -14.0 Q-50.25 -13.15 -39.2 -13.85 -40.2 -15.0 -40.25 -17.1 -39.65 -23.55 -40.4 -27.25 -43.4 -42.0 -78.75 -42.0 -88.65 -42.0 -98.65 -39.25 -107.0 -36.5 -108.65 -36.5 L-109.6 -36.55 -109.7 -36.55 -109.65 -35.65 M-11.0 -60.8 Q-18.2 -56.85 -22.0 -56.5 -18.95 -51.1 -18.15 -41.75 -17.65 -36.1 -17.65 -12.0 L-18.6 9.6 Q-19.4 31.65 -18.65 42.75 -16.2 74.45 -31.9 85.0 -11.6 82.9 -3.35 64.75 1.35 54.4 1.35 40.75 1.35 22.4 -0.15 -15.9 -1.4 -48.2 -1.6 -66.25 -2.85 -65.25 -11.0 -60.8 M-45.15 19.25 L-52.65 19.5 -64.8 18.0 -89.9 17.0 -106.05 16.5 Q-107.65 16.1 -107.65 14.75 L-107.75 14.3 Q-107.65 13.8 -106.5 13.4 -102.85 12.15 -90.15 12.0 L-80.65 11.5 Q-71.9 11.5 -43.65 16.85 -43.65 18.9 -45.15 19.25 M-40.6 90.8 Q-40.4 91.85 -40.45 93.75 -40.25 96.75 -35.65 96.75 L-29.9 96.0 -30.05 90.2 -36.65 90.5 -40.6 90.6 -40.6 90.8 M-7.4 81.15 L-10.75 83.75 Q-10.4 84.1 -9.9 84.25 -7.95 83.3 -7.4 81.15 M-91.7 91.1 L-97.1 90.7 -106.25 89.3 -105.7 91.35 Q-104.5 96.25 -102.4 96.25 -93.95 96.25 -91.75 91.4 L-91.6 91.1 -91.7 91.1" fill="#000000" fill-rule="evenodd" stroke="none"/>
      <path d="M-63.45 -137.9 Q-65.0 -138.75 -66.95 -139.0 L-82.15 -139.5 -81.65 -145.0 -61.15 -146.0 Q-37.35 -146.0 -33.45 -145.2 L-29.8 -144.05 Q-26.85 -143.1 -21.65 -142.25 L-21.65 -135.5 -35.9 -136.0 Q-60.55 -136.2 -63.45 -137.9 M-108.75 -68.45 L-108.75 -68.7 Q-99.85 -74.6 -83.85 -77.1 L-83.15 -74.5 -80.9 -75.25 -80.75 -77.55 -55.75 -79.0 Q-41.8 -79.0 -21.8 -76.6 -21.2 -71.45 -20.15 -67.5 L-17.9 -68.25 -17.8 -76.1 Q-1.65 -74.05 -1.65 -72.9 L-1.65 -72.5 -1.65 -72.25 Q-1.7 -70.6 -1.9 -71.75 L-26.8 -62.85 -27.65 -62.55 Q-32.7 -65.9 -41.1 -67.45 -52.25 -69.5 -76.15 -69.5 L-108.75 -68.45 M-119.65 -54.15 L-119.25 -54.4 Q-118.4 -56.9 -115.3 -62.5 L-114.15 -62.5 -56.6 -62.45 Q-39.55 -61.95 -31.15 -58.5 -22.9 -55.15 -22.65 -43.0 -22.25 -32.5 -22.65 -12.25 L-23.65 38.0 Q-23.55 54.8 -25.0 63.45 -26.7 73.15 -31.1 77.95 -34.25 81.35 -39.65 83.25 L-40.75 82.75 Q-55.05 86.0 -66.65 86.0 -117.6 86.0 -121.15 68.25 -123.65 54.35 -123.65 45.35 -121.65 11.25 -121.65 -5.25 -121.65 -14.55 -120.65 -31.55 -119.8 -46.1 -119.65 -54.15 M-115.65 -27.25 L-115.6 -25.55 -115.65 -23.75 Q-115.65 -17.75 -114.65 -14.05 L-115.85 -13.6 Q-117.1 -12.95 -116.65 -12.25 L-113.85 -11.7 -113.15 -10.5 -110.9 -11.25 -110.9 -11.35 -94.6 -9.75 -58.15 -7.5 -33.15 -8.5 Q-31.1 -8.95 -30.75 -9.8 L-30.65 -11.75 -30.65 -12.35 Q-29.8 -13.35 -29.6 -15.5 L-29.65 -22.25 -29.65 -38.25 Q-30.0 -45.15 -32.1 -48.5 -34.6 -52.3 -40.7 -53.9 -46.85 -55.5 -59.15 -55.5 L-74.15 -55.0 Q-104.65 -56.65 -113.0 -43.75 -115.7 -39.55 -115.95 -33.8 -116.05 -30.8 -115.65 -27.25 M-45.15 19.25 Q-43.65 18.9 -43.65 16.85 -71.9 11.5 -80.65 11.5 L-90.15 12.0 Q-102.85 12.15 -106.5 13.4 -107.65 13.8 -107.75 14.3 L-107.65 14.75 Q-107.65 16.1 -106.05 16.5 L-89.9 17.0 -64.8 18.0 -52.65 19.5 -45.15 19.25 M-11.0 -60.8 Q-2.85 -65.25 -1.6 -66.25 -1.4 -48.2 -0.15 -15.9 1.35 22.4 1.35 40.75 1.35 54.4 -3.35 64.75 -11.6 82.9 -31.9 85.0 -16.2 74.45 -18.65 42.75 -19.4 31.65 -18.6 9.6 L-17.65 -12.0 Q-17.65 -36.1 -18.15 -41.75 -18.95 -51.1 -22.0 -56.5 -18.2 -56.85 -11.0 -60.8" fill="#4d4d4d" fill-rule="evenodd" stroke="none"/>
      <path d="M-102.65 -44.0 L-105.0 -43.2 -102.9 -44.45 -99.5 -46.0 Q-92.1 -48.85 -80.0 -49.65 -74.5 -50.0 -59.75 -50.0 L-45.05 -49.55 Q-39.75 -48.85 -37.65 -46.45 -35.55 -44.1 -35.0 -38.3 -34.7 -35.0 -34.65 -24.55 L-36.65 -32.5 Q-37.45 -37.2 -44.35 -41.1 -55.65 -47.5 -79.15 -47.5 -91.9 -47.5 -102.65 -44.0 M-84.35 -37.6 Q-86.65 -36.85 -86.65 -34.65 -86.65 -32.95 -85.95 -32.3 -85.6 -32.0 -84.15 -31.5 -80.8 -32.85 -75.45 -34.25 -73.65 -34.75 -73.65 -36.15 -73.65 -37.6 -73.9 -37.75 L-74.15 -38.0 -78.65 -38.5 -84.35 -37.6 M-109.6 -36.55 L-108.65 -36.5 Q-107.0 -36.5 -98.65 -39.25 -88.65 -42.0 -78.75 -42.0 -43.4 -42.0 -40.4 -27.25 -39.65 -23.55 -40.25 -17.1 -40.2 -15.0 -39.2 -13.85 -50.25 -13.15 -72.0 -14.0 L-99.15 -15.5 -105.15 -15.0 -110.7 -14.7 -109.65 -35.65 -109.6 -36.55 M-91.75 91.4 Q-93.95 96.25 -102.4 96.25 -104.5 96.25 -105.7 91.35 L-106.25 89.3 -97.1 90.7 -91.7 91.1 -91.75 91.4 M-7.4 81.15 Q-7.95 83.3 -9.9 84.25 -10.4 84.1 -10.75 83.75 L-7.4 81.15 M-40.6 90.8 L-40.6 90.6 -36.65 90.5 -30.05 90.2 -29.9 96.0 -35.65 96.75 Q-40.25 96.75 -40.45 93.75 -40.4 91.85 -40.6 90.8" fill="#737373" fill-rule="evenodd" stroke="none"/>
    </g>
  </defs>
</svg>
