<?xml version="1.0" encoding="UTF-8" standalone="no"?>
<svg xmlns:xlink="http://www.w3.org/1999/xlink" height="720.75px" width="1716.8px" xmlns="http://www.w3.org/2000/svg">
  <g transform="matrix(1, 0, 0, 1, 307.05, 450.35)">
    <use height="267.0" transform="matrix(1.0, 0.0, 0.0, 1.0, -119.5, -134.55)" width="241.0" xlink:href="#shape0"/>
  </g>
  <defs>
    <g id="shape0" transform="matrix(1, 0, 0, 1, 119.5, 134.55)">
      <path d="M-24.5 -124.55 L-24.95 -125.0 Q-27.0 -127.3 -27.0 -129.55 L-27.3 -130.85 Q-27.45 -131.85 -27.0 -132.5 -25.6 -134.55 -18.0 -134.55 -9.15 -134.55 -7.2 -131.25 -6.6 -130.3 -6.65 -129.2 L-2.0 -129.55 Q3.8 -129.55 34.7 -123.25 L46.95 -121.15 47.5 -120.6 67.1 -116.45 67.5 -116.55 70.5 -116.05 70.75 -115.8 70.9 -115.6 76.05 -114.5 Q76.4 -124.55 83.35 -124.55 L89.35 -124.05 89.4 -123.7 91.0 -123.8 91.85 -123.7 Q92.1 -124.55 92.35 -124.55 92.65 -124.55 92.9 -123.55 L93.0 -123.55 93.25 -122.7 93.15 -122.2 Q94.5 -113.6 94.8 -73.8 95.05 -48.45 94.85 -22.8 L94.6 78.45 92.35 79.45 91.8 77.1 Q91.4 79.2 89.35 81.45 86.6 84.45 83.35 84.45 L81.0 83.95 80.2 83.5 Q80.0 83.25 80.0 81.7 L82.35 79.55 Q81.8 77.05 81.4 74.15 80.65 68.35 80.65 61.1 74.75 68.05 43.0 92.45 L41.0 91.95 40.85 91.85 40.85 91.95 40.8 101.05 Q47.45 95.45 78.5 71.45 L80.2 72.1 Q81.0 72.6 81.0 74.2 81.0 80.2 62.75 93.25 56.0 98.05 49.5 101.85 43.3 105.45 42.0 105.45 L40.8 105.4 40.75 122.95 41.2 123.1 Q42.0 123.6 42.0 125.2 42.0 128.3 33.0 132.45 25.05 132.45 22.5 127.45 L22.5 127.4 22.0 126.2 22.15 126.05 Q21.1 121.7 20.5 116.45 L20.0 116.45 Q18.85 116.45 3.9 111.55 -12.85 106.05 -27.0 103.95 -42.1 101.7 -57.2 97.9 -67.0 95.45 -71.2 93.85 L-71.25 99.5 -70.5 99.45 -68.5 100.1 Q-68.0 100.5 -68.0 102.2 -68.0 104.45 -69.0 104.95 L-74.5 105.45 Q-84.2 105.45 -87.0 95.95 -87.85 93.2 -87.95 87.25 -89.4 79.35 -89.4 68.55 -88.85 51.2 -89.0 43.45 L-89.0 -5.7 Q-89.2 -31.95 -88.95 -56.3 -88.65 -92.5 -87.4 -101.55 L-87.5 -101.55 Q-90.0 -102.4 -90.0 -105.05 -90.0 -106.35 -85.0 -109.0 -80.3 -111.55 -79.0 -111.55 -75.8 -111.55 -75.1 -109.1 -68.55 -112.3 -54.7 -116.6 -32.95 -123.4 -25.5 -124.55 L-24.5 -124.4 -21.5 -124.05 -21.25 -123.8 Q-21.0 -123.65 -21.0 -122.2 -21.0 -120.85 -34.7 -116.2 -47.5 -111.9 -52.25 -111.05 -55.05 -110.55 -65.05 -105.9 -68.3 -104.4 -70.65 -103.4 L-63.6 -102.05 -57.8 -100.8 -10.55 -123.7 -11.6 -125.6 -12.0 -128.05 -12.25 -129.05 -22.0 -129.05 Q-22.0 -126.8 -22.25 -125.3 L-24.5 -124.55 M86.6 -112.5 L87.35 -112.55 Q89.3 -112.55 90.6 -110.15 90.95 -117.45 91.4 -121.05 L89.85 -120.8 Q89.7 -115.55 82.0 -118.8 81.8 -117.7 81.85 -115.5 83.5 -115.25 86.35 -112.75 L86.6 -112.5 M39.45 -98.2 Q41.0 -95.5 41.0 -93.55 L40.25 -92.25 39.7 -91.85 Q40.55 -86.65 40.95 -80.5 46.15 -83.3 58.1 -89.5 78.5 -100.05 87.05 -105.1 L86.75 -105.6 Q84.9 -106.1 82.05 -109.05 L80.5 -110.7 78.6 -110.55 78.5 -110.55 78.4 -110.55 76.5 -110.55 68.6 -111.85 Q64.75 -109.3 54.55 -104.8 44.6 -100.35 39.3 -98.6 L39.2 -98.6 39.45 -98.2 M-3.7 -119.25 Q0.7 -117.55 26.4 -113.75 52.05 -110.0 54.95 -111.05 57.8 -112.1 58.9 -112.75 59.95 -113.4 55.8 -112.75 L58.25 -113.7 56.0 -114.1 54.1 -114.45 9.0 -123.05 Q5.25 -123.85 1.45 -122.5 L-3.85 -120.1 -3.95 -120.05 Q-4.55 -119.8 -5.1 -119.7 L-3.7 -119.25 M-46.95 -98.8 Q-18.95 -94.25 22.15 -94.05 L22.25 -95.1 Q22.0 -95.7 22.0 -96.7 22.0 -97.45 22.5 -98.2 L22.5 -98.55 22.7 -98.45 Q23.6 -99.65 25.8 -100.8 29.2 -102.55 32.0 -102.55 L33.9 -102.35 Q36.85 -104.05 42.9 -107.05 L46.05 -108.55 15.0 -110.05 Q-9.7 -112.1 -13.35 -116.2 -19.35 -113.0 -28.5 -108.5 -40.05 -102.85 -47.4 -99.65 L-48.7 -99.1 -46.95 -98.8 M41.3 -69.75 L41.0 -41.55 Q41.35 -22.8 41.0 14.3 L40.85 88.85 Q62.4 67.1 79.0 56.45 L80.8 56.8 Q81.15 44.05 81.0 37.95 L81.0 -7.8 Q81.0 -44.95 81.15 -54.0 81.5 -78.35 83.1 -95.8 77.55 -92.55 68.55 -88.4 47.15 -79.25 41.2 -76.35 L41.3 -69.75 M32.0 -96.8 Q30.0 -96.8 27.25 -95.25 L25.45 -94.05 25.5 -94.05 25.75 -93.6 26.0 -91.8 25.5 -88.8 25.0 -88.45 25.0 -78.0 26.0 -77.55 25.0 -75.75 25.0 124.3 Q27.05 123.55 30.1 123.3 L37.55 122.7 Q35.2 112.25 35.35 98.55 36.2 80.1 36.0 70.45 L36.0 14.2 Q36.0 -30.6 36.15 -42.5 36.4 -61.6 37.15 -77.0 37.0 -77.55 37.0 -78.3 L37.25 -78.45 38.05 -91.55 38.0 -91.55 Q35.45 -91.55 34.3 -94.15 33.15 -96.8 32.0 -96.8 M21.75 -87.55 L-28.95 -90.05 Q-62.85 -92.8 -71.8 -97.25 -71.25 -93.35 -70.95 -88.75 -70.8 -90.0 -69.7 -90.35 L-66.5 -90.55 Q-57.65 -90.55 -8.25 -84.05 13.1 -81.05 21.25 -79.1 L21.75 -87.55 M21.05 -74.55 Q11.6 -74.95 -23.15 -79.3 -62.5 -84.3 -70.75 -86.8 L-70.85 -86.5 Q-70.7 -83.25 -70.7 -79.65 -70.7 -70.6 -71.0 -53.3 -70.65 -36.05 -71.0 -1.2 L-71.2 78.5 -70.0 78.45 Q-61.85 78.45 -50.45 81.25 -45.9 82.4 -28.9 87.45 0.0 96.05 19.7 96.45 20.15 78.95 20.0 70.7 L20.0 14.45 Q20.0 -30.35 20.15 -42.2 20.4 -59.7 21.05 -74.55 M85.85 -53.05 Q86.25 -38.05 85.85 -7.7 L85.65 76.65 89.35 73.45 91.1 73.65 Q89.55 65.05 89.55 53.8 90.05 36.5 89.85 27.95 L89.85 -22.7 Q89.65 -49.7 89.9 -74.8 L90.3 -101.0 Q88.35 -99.0 84.0 -96.35 86.1 -88.35 86.15 -76.0 86.2 -68.1 85.85 -53.05 M-80.75 -102.8 Q-81.0 -101.8 -81.0 -104.3 L-80.95 -104.55 Q-84.05 -103.05 -85.7 -102.3 -84.35 -94.0 -84.05 -55.25 -83.8 -30.6 -84.0 -5.8 L-84.2 81.35 Q-82.55 82.85 -82.15 85.55 -81.85 87.6 -81.95 92.0 -81.7 95.8 -79.75 97.45 -78.0 98.95 -74.5 99.35 -76.4 90.4 -76.4 77.4 -75.85 59.35 -76.0 51.2 L-76.0 -1.3 -75.85 -54.25 Q-75.45 -79.65 -74.05 -98.75 -75.0 -99.7 -75.0 -100.7 L-74.95 -101.8 -76.5 -101.55 Q-79.5 -101.55 -80.75 -102.8 M-70.55 89.45 L-70.5 89.45 Q-57.6 89.45 -17.25 100.0 12.05 107.65 20.05 111.45 19.7 107.2 19.65 102.45 L19.0 102.45 Q-0.85 102.45 -16.7 97.5 -20.9 96.15 -26.45 93.9 -30.8 92.15 -32.0 91.95 -54.5 89.25 -62.1 87.75 -67.8 86.65 -71.2 84.85 L-71.2 89.45 -71.2 89.6 -70.55 89.45" fill="#000000" fill-rule="evenodd" stroke="none"/>
      <path d="M81.4 74.15 L81.0 74.2 Q81.0 72.6 80.2 72.1 L78.5 71.45 Q47.45 95.45 40.8 101.05 L40.85 91.95 41.0 91.95 43.0 92.45 Q74.75 68.05 80.65 61.1 80.65 68.35 81.4 74.15 M-24.5 -124.4 L-24.5 -124.55 -22.25 -125.3 Q-22.0 -126.8 -22.0 -129.05 L-12.25 -129.05 -12.0 -128.05 -11.6 -125.6 -10.55 -123.7 -57.8 -100.8 -63.6 -102.05 -70.65 -103.4 Q-68.3 -104.4 -65.05 -105.9 -55.05 -110.55 -52.25 -111.05 -47.5 -111.9 -34.7 -116.2 -21.0 -120.85 -21.0 -122.2 -21.0 -123.65 -21.25 -123.8 L-21.5 -124.05 -24.5 -124.4 M39.3 -98.6 Q44.6 -100.35 54.55 -104.8 64.75 -109.3 68.6 -111.85 L76.5 -110.55 78.4 -110.55 78.5 -110.55 78.6 -110.55 80.5 -110.7 82.05 -109.05 Q84.9 -106.1 86.75 -105.6 L87.05 -105.1 Q78.5 -100.05 58.1 -89.5 46.15 -83.3 40.95 -80.5 40.55 -86.65 39.7 -91.85 L40.25 -92.25 41.0 -93.55 Q41.0 -95.5 39.45 -98.2 L39.3 -98.6 M86.6 -112.5 L86.35 -112.75 Q83.5 -115.25 81.85 -115.5 81.8 -117.7 82.0 -118.8 89.7 -115.55 89.85 -120.8 L91.4 -121.05 Q90.95 -117.45 90.6 -110.15 89.3 -112.55 87.35 -112.55 L86.6 -112.5 M-3.95 -120.05 L-3.85 -120.1 1.45 -122.5 Q5.25 -123.85 9.0 -123.05 L54.1 -114.45 56.0 -114.1 58.25 -113.7 55.8 -112.75 Q59.95 -113.4 58.9 -112.75 57.8 -112.1 54.95 -111.05 52.05 -110.0 26.4 -113.75 0.7 -117.55 -3.7 -119.25 L-3.95 -120.05 M21.75 -87.55 L21.25 -79.1 Q13.1 -81.05 -8.25 -84.05 -57.65 -90.55 -66.5 -90.55 L-69.7 -90.35 Q-70.8 -90.0 -70.95 -88.75 -71.25 -93.35 -71.8 -97.25 -62.85 -92.8 -28.95 -90.05 L21.75 -87.55 M32.0 -96.8 Q33.15 -96.8 34.3 -94.15 35.45 -91.55 38.0 -91.55 L38.05 -91.55 37.25 -78.45 37.0 -78.3 Q37.0 -77.55 37.15 -77.0 36.4 -61.6 36.15 -42.5 36.0 -30.6 36.0 14.2 L36.0 70.45 Q36.2 80.1 35.35 98.55 35.2 112.25 37.55 122.7 L30.1 123.3 Q27.05 123.55 25.0 124.3 L25.0 -75.75 26.0 -77.55 25.0 -78.0 25.0 -88.45 25.5 -88.8 26.0 -91.8 25.75 -93.6 25.5 -94.05 25.45 -94.05 27.25 -95.25 Q30.0 -96.8 32.0 -96.8 M-80.75 -102.8 Q-79.5 -101.55 -76.5 -101.55 L-74.95 -101.8 -75.0 -100.7 Q-75.0 -99.7 -74.05 -98.75 -75.45 -79.65 -75.85 -54.25 L-76.0 -1.3 -76.0 51.2 Q-75.85 59.35 -76.4 77.4 -76.4 90.4 -74.5 99.35 -78.0 98.95 -79.75 97.45 -81.7 95.8 -81.95 92.0 -81.85 87.6 -82.15 85.55 -82.55 82.85 -84.2 81.35 L-84.0 -5.8 Q-83.8 -30.6 -84.05 -55.25 -84.35 -94.0 -85.7 -102.3 -84.05 -103.05 -80.95 -104.55 L-81.0 -104.3 Q-81.0 -101.8 -80.75 -102.8 M85.85 -53.05 Q86.2 -68.1 86.15 -76.0 86.1 -88.35 84.0 -96.35 88.35 -99.0 90.3 -101.0 L89.9 -74.8 Q89.65 -49.7 89.85 -22.7 L89.85 27.95 Q90.05 36.5 89.55 53.8 89.55 65.05 91.1 73.65 L89.35 73.45 85.65 76.65 85.85 -7.7 Q86.25 -38.05 85.85 -53.05 M-70.55 89.45 L-71.2 89.45 -71.2 84.85 Q-67.8 86.65 -62.1 87.75 -54.5 89.25 -32.0 91.95 -30.8 92.15 -26.45 93.9 -20.9 96.15 -16.7 97.5 -0.85 102.45 19.0 102.45 L19.65 102.45 Q19.7 107.2 20.05 111.45 12.05 107.65 -17.25 100.0 -57.6 89.45 -70.5 89.45 L-70.55 89.45" fill="#716431" fill-rule="evenodd" stroke="none"/>
      <path d="M-47.4 -99.65 Q-40.05 -102.85 -28.5 -108.5 -19.35 -113.0 -13.35 -116.2 -9.7 -112.1 15.0 -110.05 L46.05 -108.55 42.9 -107.05 Q36.85 -104.05 33.9 -102.35 L32.0 -102.55 Q29.2 -102.55 25.8 -100.8 23.6 -99.65 22.7 -98.45 L22.5 -98.55 22.5 -98.2 Q22.0 -97.45 22.0 -96.7 22.0 -95.7 22.25 -95.1 L22.15 -94.05 Q-18.95 -94.25 -46.95 -98.8 L-47.4 -99.65 M41.3 -69.75 L41.2 -76.35 Q47.15 -79.25 68.55 -88.4 77.55 -92.55 83.1 -95.8 81.5 -78.35 81.15 -54.0 81.0 -44.95 81.0 -7.8 L81.0 37.95 Q81.15 44.05 80.8 56.8 L79.0 56.45 Q62.4 67.1 40.85 88.85 L41.0 14.3 Q41.35 -22.8 41.0 -41.55 L41.3 -69.75 M21.05 -74.55 Q20.4 -59.7 20.15 -42.2 20.0 -30.35 20.0 14.45 L20.0 70.7 Q20.15 78.95 19.7 96.45 0.0 96.05 -28.9 87.45 -45.9 82.4 -50.45 81.25 -61.85 78.45 -70.0 78.45 L-71.2 78.5 -71.0 -1.2 Q-70.65 -36.05 -71.0 -53.3 -70.7 -70.6 -70.7 -79.65 -70.7 -83.25 -70.85 -86.5 L-70.75 -86.8 Q-62.5 -84.3 -23.15 -79.3 11.6 -74.95 21.05 -74.55" fill="#ffffff" fill-rule="evenodd" stroke="none"/>
      <path d="M121.5 -2.6 Q121.5 47.3 86.2 82.6 50.9 117.9 1.0 117.9 -48.9 117.9 -84.2 82.6 -119.5 47.3 -119.5 -2.6 -119.5 -52.5 -84.2 -87.8 -48.9 -123.1 1.0 -123.1 50.9 -123.1 86.2 -87.8 121.5 -52.5 121.5 -2.6" fill="url(#gradient0)" fill-rule="evenodd" stroke="none"/>
    </g>
    <radialGradient cx="0" cy="0" gradientTransform="matrix(0.1487, 0.0, 0.0, 0.1487, 1.0, -2.6)" gradientUnits="userSpaceOnUse" id="gradient0" r="819.2" spreadMethod="pad">
      <stop offset="0.0" stop-color="#ffe922"/>
      <stop offset="0.5098039215686274" stop-color="#ffeb3c" stop-opacity="0.5529412"/>
      <stop offset="1.0" stop-color="#fef078" stop-opacity="0.0"/>
    </radialGradient>
  </defs>
</svg>
