<?xml version="1.0" encoding="UTF-8" standalone="no"?>
<svg xmlns:xlink="http://www.w3.org/1999/xlink" height="720.75px" width="1716.8px" xmlns="http://www.w3.org/2000/svg">
  <g transform="matrix(1, 0, 0, 1, 307.05, 450.35)">
    <use height="490.85" transform="matrix(0.7115, 0.235, -0.235, 0.7115, -138.7486, -241.8326)" width="470.15" xlink:href="#sprite0"/>
  </g>
  <defs>
    <g id="sprite0" transform="matrix(1, 0, 0, 1, 376.05, 216.0)">
      <use height="437.35" transform="matrix(1.0, 0.0, 0.0, 1.0, -297.8, -188.4)" width="292.25" xlink:href="#shape0"/>
      <use height="436.85" transform="matrix(1.0, 0.0, 0.0, 1.0, -292.0, -186.0)" width="386.1" xlink:href="#shape1"/>
    </g>
    <g id="shape0" transform="matrix(1, 0, 0, 1, 297.8, 188.4)">
      <path d="M-22.4 -188.4 L-5.55 248.95 -297.8 -65.2 -22.4 -188.4" fill="#ffffff" fill-opacity="0.0" fill-rule="evenodd" stroke="none"/>
    </g>
    <g id="shape1" transform="matrix(1, 0, 0, 1, 292.0, 186.0)">
      <path d="M-5.55 -136.85 Q41.55 -147.0 59.35 -147.0 64.85 -147.0 64.85 -142.0 64.85 -138.3 42.5 -132.65 25.05 -128.25 1.1 -124.25 -11.3 -122.15 -23.9 -118.85 -8.15 -126.8 -8.15 -128.0 -8.05 -131.7 -11.6 -132.65 L-5.55 -136.85 M-30.55 -115.55 L-29.4 -115.85 Q8.1 -125.0 17.85 -125.0 25.1 -125.0 24.85 -120.0 L-25.0 -97.9 -49.8 -86.7 Q-72.8 -81.25 -103.7 -71.1 -70.85 -90.55 -39.4 -103.25 -61.05 -97.65 -94.1 -85.3 L-86.6 -88.85 Q-43.5 -109.25 -31.0 -115.35 L-30.55 -115.55 M-16.95 -92.5 Q30.45 -107.0 51.85 -107.0 60.65 -107.0 63.1 -104.45 64.35 -103.15 63.85 -101.65 63.85 -97.15 19.45 -83.9 L5.4 -79.95 -5.95 -79.05 Q1.85 -84.2 1.85 -85.75 2.15 -87.7 1.15 -89.45 -0.8 -93.0 -7.15 -93.0 L-16.95 -92.5 M17.95 -77.55 L29.65 -79.5 Q70.75 -86.0 82.85 -86.0 90.25 -86.0 89.85 -81.0 89.85 -79.15 29.55 -63.15 L-1.0 -54.95 Q19.85 -68.85 19.85 -72.0 20.4 -74.2 19.15 -76.15 L17.95 -77.55 M-9.3 -49.5 Q17.0 -56.0 30.35 -56.0 35.45 -56.0 37.15 -53.1 38.0 -51.6 37.85 -49.9 37.85 -48.05 34.6 -45.0 L75.85 -47.0 Q89.25 -47.0 92.9 -43.35 94.7 -41.45 93.85 -39.4 93.85 -31.55 64.65 -21.95 55.35 -18.9 43.45 -15.8 L34.6 -13.55 Q31.65 -15.0 26.85 -15.0 L21.85 -14.75 3.45 -12.55 Q39.6 -25.45 73.6 -36.75 4.35 -29.75 -11.2 -26.75 -23.5 -24.4 -37.2 -20.05 -46.55 -17.1 -71.4 -8.25 L-82.7 -4.15 -74.25 -10.05 -53.85 -22.15 -40.3 -30.25 Q-32.85 -32.55 -23.65 -36.0 L-35.2 -33.35 Q-20.2 -42.5 -9.3 -49.5 M35.3 -13.2 Q49.85 -14.5 49.85 -7.25 49.85 -0.5 6.8 19.1 6.1 24.15 -1.65 29.75 L-2.85 30.6 Q-5.4 26.9 -10.2 24.5 L-5.95 21.45 1.05 18.55 Q38.85 2.55 38.85 -7.75 38.85 -9.7 37.35 -11.45 L35.3 -13.2 M13.15 33.4 L19.85 31.75 Q49.3 25.0 62.85 25.0 69.9 25.0 72.05 27.8 73.15 29.2 72.85 30.75 72.85 36.65 59.7 42.7 49.3 47.5 27.7 53.6 L8.25 58.8 Q27.5 45.1 29.6 40.5 L35.1 39.0 29.75 40.1 29.85 39.5 Q30.0 37.7 29.1 36.1 27.4 33.0 22.35 33.0 L13.15 33.4 M-7.45 82.2 Q21.45 74.0 31.85 74.0 39.25 74.0 38.85 79.35 38.85 80.7 29.95 85.65 24.65 81.0 10.85 81.0 L-7.45 82.2 M33.7 122.05 Q35.1 123.0 36.1 124.3 37.75 126.45 37.85 128.75 37.85 133.65 30.5 138.9 34.85 132.65 34.85 127.85 34.85 124.55 33.7 122.05 M-17.65 179.3 Q-18.75 180.95 -22.05 183.35 L-22.95 183.05 -21.65 182.1 -17.65 179.3 M-41.05 242.7 Q-45.1 242.1 -46.1 239.2 -46.5 238.0 -46.35 236.6 L-46.15 235.25 -46.15 234.45 Q-39.8 232.75 -26.65 223.35 L-26.6 223.5 Q-25.6 225.4 -22.9 225.8 -24.95 227.75 -29.9 230.85 L-27.6 233.15 Q-37.4 239.6 -41.05 242.7 M-54.1 230.4 L-59.65 230.85 Q-64.2 230.85 -65.6 228.15 -66.15 227.1 -66.15 225.1 -66.15 224.6 -63.15 221.05 -59.65 216.9 -55.65 213.1 -49.5 207.3 -44.5 204.5 -49.15 216.95 -49.15 219.35 L-49.25 220.55 Q-49.3 221.75 -48.85 222.75 -48.4 223.85 -47.4 224.55 -54.15 229.2 -54.15 229.85 L-54.1 230.4 M-53.35 204.9 Q-52.15 206.3 -52.15 207.85 -52.15 212.85 -60.15 212.85 L-64.45 212.75 -53.35 204.9 M-77.0 209.4 Q-79.15 207.9 -79.15 205.85 -79.15 205.25 -75.45 202.65 L-70.15 202.85 -67.7 202.8 -77.0 209.4 M-80.05 180.9 L-82.15 181.5 Q-106.05 189.85 -107.5 189.85 -111.2 189.85 -112.45 187.5 -113.0 186.5 -113.0 184.85 -113.0 181.95 -80.45 169.4 -78.55 172.2 -75.25 174.75 -78.05 177.9 -80.05 180.9 M-82.15 153.6 L-92.45 156.95 -81.7 152.05 -82.15 153.6 M-138.55 171.85 Q-155.55 176.85 -161.0 176.85 -165.2 176.85 -166.5 174.15 -167.0 173.1 -167.0 171.1 -167.0 167.0 -128.65 148.1 -141.0 160.9 -141.0 166.75 L-141.05 167.85 Q-141.0 169.0 -140.5 169.95 -139.85 171.15 -138.55 171.85 M-102.15 124.05 Q-128.8 132.0 -137.0 132.0 -142.9 132.0 -144.5 128.9 -145.05 127.9 -145.05 126.65 L-145.0 125.5 Q-145.0 124.9 -143.45 123.6 L-137.5 124.0 Q-126.2 124.0 -105.75 118.9 L-90.8 114.85 -102.15 124.05 M-150.0 119.9 Q-187.1 136.0 -190.0 136.0 -194.2 136.0 -195.5 133.65 -196.0 132.7 -196.0 131.0 -196.0 128.1 -190.3 124.25 -187.35 122.2 -179.0 117.75 -182.05 118.45 -183.85 117.3 -169.65 111.65 -143.95 99.3 L-112.5 84.1 Q-150.0 111.9 -150.0 117.5 L-150.2 118.65 -150.0 119.9 M-161.95 83.95 Q-156.9 78.25 -146.75 71.05 -128.5 58.1 -99.25 44.0 -88.7 38.95 -78.4 34.5 L-56.8 31.4 Q-76.85 40.8 -96.35 50.25 -136.6 69.8 -161.95 83.95 M-94.6 37.7 L-110.55 44.1 -166.2 67.1 Q-190.45 77.0 -195.0 77.0 -198.3 77.0 -199.45 74.65 -200.0 73.55 -200.0 72.0 -200.0 67.0 -159.6 49.7 L-155.0 50.0 Q-148.25 50.0 -134.25 46.9 L-105.6 40.15 -94.6 37.7 M-195.65 51.75 L-200.5 52.0 Q-205.05 52.0 -206.45 49.65 -207.0 48.75 -207.0 47.0 -207.0 45.4 -206.35 44.4 L-204.75 42.5 Q-212.0 45.0 -214.5 45.0 -218.25 45.0 -219.5 42.65 -220.0 41.65 -220.0 40.0 -220.0 38.2 -167.4 12.25 -115.15 -13.55 -89.65 -24.5 -80.1 -28.6 -60.6 -34.8 L-85.45 -17.75 -90.95 -14.5 Q-128.5 7.6 -148.85 21.4 L-153.5 23.25 Q-166.4 28.4 -170.25 30.6 -177.0 34.45 -177.5 39.0 L-177.75 40.3 Q-190.15 46.3 -195.65 51.75 M-52.5 -40.3 L-60.4 -37.75 Q-84.2 -29.55 -113.55 -17.95 L-128.55 -11.85 -114.75 -19.75 Q-88.2 -33.6 -66.95 -44.9 -36.2 -56.3 -24.9 -60.0 -34.55 -57.7 -47.9 -55.1 L-29.45 -65.2 -17.4 -65.75 Q-25.3 -59.1 -51.15 -41.25 L-52.5 -40.3 M-228.85 32.55 Q-250.45 42.0 -256.0 42.0 -261.25 42.0 -261.0 37.0 -261.0 30.55 -154.5 -11.45 L-143.35 -15.8 -149.85 -12.25 Q-209.6 20.7 -228.85 32.55 M-89.25 -45.15 Q-108.55 -39.1 -134.25 -28.75 -153.4 -21.05 -221.8 9.1 -282.9 36.0 -284.0 36.0 -289.35 36.0 -289.0 31.0 -289.0 24.15 -229.95 -4.05 L-224.35 -6.7 Q-222.7 -6.0 -220.0 -6.0 -210.7 -6.0 -182.55 -15.6 L-123.4 -36.95 Q-93.25 -47.8 -71.4 -54.65 L-89.25 -45.15 M-237.5 -35.8 Q-256.15 -29.0 -260.5 -29.0 -266.4 -29.0 -266.0 -34.0 -266.0 -35.8 -262.95 -38.55 -262.45 -35.0 -258.0 -35.0 -256.75 -35.0 -242.25 -41.65 L-242.3 -41.55 Q-242.35 -39.8 -241.25 -38.4 -240.05 -36.85 -237.5 -35.8 M-270.35 -74.95 Q-284.35 -70.0 -287.0 -70.0 -292.35 -70.0 -292.0 -75.0 -292.0 -78.15 -279.1 -84.1 -258.45 -93.6 -257.75 -94.0 L-268.4 -90.55 Q-275.85 -88.0 -280.0 -88.0 -280.35 -88.0 -292.0 -99.75 -292.0 -110.15 -234.55 -130.85 -186.6 -148.1 -138.0 -159.75 -85.4 -172.45 -72.2 -175.25 -22.0 -186.0 1.85 -186.0 9.5 -186.0 13.9 -181.65 16.85 -178.75 16.85 -177.0 16.85 -173.1 -6.9 -167.75 -34.9 -162.2 -43.4 -160.0 L-44.4 -159.75 -31.75 -161.85 Q-16.95 -164.0 -3.65 -164.0 5.6 -164.0 8.15 -161.2 9.4 -159.8 8.85 -158.25 8.85 -155.2 0.65 -150.35 -2.0 -153.0 -9.15 -153.0 L-19.8 -152.35 -18.15 -153.0 -17.65 -153.25 Q-56.6 -148.4 -80.05 -143.25 L-81.25 -142.95 -81.15 -143.65 -81.15 -144.55 Q-53.15 -157.85 -53.15 -166.0 -52.8 -168.2 -54.35 -170.15 -57.5 -174.0 -67.15 -174.0 -79.7 -174.0 -109.2 -165.0 L-146.0 -153.0 Q-149.95 -151.85 -164.3 -146.5 -181.25 -140.15 -196.55 -133.75 -213.85 -126.55 -224.4 -121.2 L-251.75 -110.5 -252.75 -110.0 -252.2 -109.5 Q-251.3 -109.0 -249.75 -109.0 -247.55 -109.0 -240.05 -111.15 -241.0 -110.05 -241.0 -109.15 L-241.1 -108.0 Q-241.1 -106.85 -240.5 -105.9 -238.65 -103.0 -231.5 -103.0 L-228.05 -103.25 -248.45 -95.3 Q-275.0 -84.45 -275.0 -80.75 L-275.15 -79.7 Q-275.15 -78.6 -274.45 -77.75 -273.2 -76.15 -269.85 -75.45 L-270.35 -74.95 M-48.85 20.4 Q-62.8 21.25 -78.9 23.9 -6.45 0.95 12.6 -1.75 L11.35 -1.0 4.45 3.5 Q-19.0 9.8 -48.85 20.4 M4.85 -69.5 L3.85 -68.75 -8.9 -61.6 Q-6.15 -65.05 -6.15 -66.9 -5.75 -68.2 -6.2 -69.4 L-0.9 -69.75 4.85 -69.5 M-32.3 20.05 L-36.15 20.0 -40.1 20.05 Q-28.75 16.35 -19.8 14.4 L-32.3 20.05 M-77.25 -162.45 Q-70.9 -163.7 -67.4 -163.75 L-68.65 -163.0 Q-81.75 -156.35 -118.0 -143.05 L-187.0 -118.25 -224.6 -104.55 Q-223.0 -105.75 -223.0 -107.9 -223.0 -111.6 -202.05 -121.0 -183.4 -129.4 -154.2 -139.65 L-138.2 -145.1 -136.0 -145.75 -77.25 -162.45 M-149.35 -94.7 L-164.25 -89.5 -163.25 -90.0 Q-148.05 -98.2 -133.45 -106.65 L-111.85 -115.55 -83.55 -127.05 Q-46.75 -137.35 -15.9 -142.35 L-25.2 -138.55 -56.8 -127.0 Q-71.05 -124.6 -96.15 -116.1 -126.35 -105.8 -145.0 -96.75 L-149.35 -94.7 M-214.55 -54.75 Q-182.7 -70.0 -168.4 -76.35 L-157.5 -80.95 -156.65 -81.3 Q-127.4 -92.85 -102.15 -100.4 L-81.75 -106.35 -111.65 -89.75 Q-151.45 -71.65 -183.25 -54.5 L-196.6 -47.45 Q-216.7 -44.7 -229.75 -44.25 -224.95 -48.85 -214.55 -54.75 M-177.2 -28.5 Q-163.5 -34.9 -160.75 -36.5 L-154.15 -40.3 -134.7 -48.3 -131.05 -49.1 -95.9 -56.25 Q-113.25 -50.6 -153.3 -36.7 L-177.2 -28.5 M-45.3 -127.75 L-39.15 -129.2 -42.05 -127.65 -44.0 -127.15 Q-44.55 -127.55 -45.3 -127.75 M-78.65 -69.15 Q-36.15 -83.15 -17.9 -81.75 L-18.9 -81.25 -29.8 -75.95 Q-42.9 -75.55 -66.95 -71.35 L-78.65 -69.15 M-68.6 65.55 Q-38.2 54.35 -32.55 52.7 -26.25 50.85 -13.8 48.7 L-14.8 50.35 Q-37.95 57.0 -78.0 72.1 L-68.6 65.55 M-15.3 38.15 Q-26.0 40.6 -38.2 44.3 L-20.15 31.6 Q-16.75 32.35 -14.6 33.5 -12.75 34.5 -11.7 36.0 L-15.3 38.15 M-1.9 46.95 L-1.8 46.7 0.9 46.3 -1.9 46.95 M-3.05 49.45 L11.65 45.4 Q2.4 50.45 -6.75 56.0 L-3.05 49.45 M-44.65 36.25 L-61.25 47.65 -66.4 49.75 Q-91.3 61.1 -110.75 71.0 -133.05 80.6 -154.0 91.5 L-154.0 91.25 Q-123.15 73.3 -110.9 66.75 -85.4 53.0 -58.65 41.75 L-44.65 36.25 M-52.4 86.35 Q-60.2 89.45 -75.5 97.2 L-109.9 107.25 -120.5 110.25 Q-110.3 104.9 -95.75 97.75 -69.9 84.95 -57.2 79.05 -74.45 86.5 -123.1 108.05 L-135.55 113.55 -135.0 113.0 Q-124.35 104.7 -79.2 73.0 -43.45 60.9 -16.7 53.25 L-21.75 60.35 -28.05 68.7 -44.7 74.0 Q-40.25 74.1 -37.35 75.75 L-52.4 86.35 M-74.35 134.7 L-116.25 153.25 -116.5 153.5 Q-107.2 150.35 -97.7 147.35 L-123.25 158.5 -123.0 158.0 Q-114.1 147.4 -96.95 132.95 L-92.15 130.7 Q-77.6 123.95 -64.4 118.0 -70.3 127.05 -74.35 134.7 M-74.8 115.35 L-63.4 106.65 -54.9 104.05 -59.1 110.05 -69.9 113.7 -74.8 115.35 M-29.5 138.8 L-62.65 147.75 -70.75 150.1 -69.4 146.55 Q-37.5 132.9 -13.55 127.6 L-29.5 138.8 M-70.75 165.7 L-61.9 162.4 -68.25 167.8 -70.75 165.7 M-29.45 150.7 L-4.2 141.7 Q17.6 133.95 23.4 131.35 18.9 138.05 0.85 152.5 L-5.55 154.8 -30.4 163.5 Q-26.65 163.35 -21.1 166.4 L-18.9 167.7 -28.25 174.55 Q-31.45 173.1 -36.75 173.1 -44.1 173.1 -52.9 174.5 L-58.85 172.5 -52.45 167.2 Q-46.45 162.55 -35.5 154.9 L-29.45 150.7 M24.0 130.35 Q7.0 132.05 -7.1 134.35 L5.75 124.6 13.6 124.25 22.6 124.95 Q24.85 125.7 24.85 127.75 24.85 128.8 24.0 130.35 M-46.9 110.1 Q-24.3 100.0 -6.4 92.5 -11.15 93.65 -30.6 100.3 L-42.7 104.45 -38.75 99.25 -28.55 96.35 Q-9.25 91.25 0.1 91.25 L11.6 91.85 17.3 92.3 Q0.5 100.7 -29.4 114.35 L-59.35 127.95 Q-54.5 120.35 -46.9 110.1 M-59.25 192.35 L-53.1 188.65 -49.05 186.3 -45.95 187.25 -51.95 191.55 -59.25 192.35 M-32.6 177.05 L-33.35 178.25 -35.15 179.55 -36.55 179.15 -32.6 177.05 M-32.75 202.9 Q-31.3 204.15 -31.15 206.85 -31.15 208.0 -32.0 208.45 L-34.6 209.25 -35.3 209.5 -32.75 202.9" fill="#888888" fill-rule="evenodd" stroke="none"/>
      <path d="M-23.9 -118.85 L-30.55 -115.55 -31.0 -115.35 Q-43.5 -109.25 -86.6 -88.85 L-94.1 -85.3 Q-126.25 -70.1 -151.45 -57.8 -131.1 -70.95 -110.5 -82.0 -81.15 -95.3 -53.4 -109.4 -25.45 -123.6 -11.6 -132.65 -8.05 -131.7 -8.15 -128.0 -8.15 -126.8 -23.9 -118.85 M-49.8 -86.7 Q-30.65 -91.25 -16.95 -92.5 L-7.15 -93.0 Q-0.8 -93.0 1.15 -89.45 2.15 -87.7 1.85 -85.75 1.85 -84.2 -5.95 -79.05 -14.4 -78.05 -24.75 -75.95 L-27.15 -76.0 -29.8 -75.95 -18.9 -81.25 -17.9 -81.75 Q-36.15 -83.15 -78.65 -69.15 L-120.15 -60.95 -147.6 -55.55 Q-128.4 -62.9 -106.8 -70.1 L-103.7 -71.1 Q-72.8 -81.25 -49.8 -86.7 M34.6 -13.55 L35.3 -13.2 37.35 -11.45 Q38.85 -9.7 38.85 -7.75 38.85 2.55 1.05 18.55 L-5.95 21.45 Q25.85 -1.55 25.85 -4.4 26.6 -6.45 25.4 -8.35 23.0 -12.0 13.35 -12.0 -10.1 -12.0 -63.35 5.8 -105.8 20.9 -131.4 29.2 L-113.4 17.0 Q-87.15 8.55 -78.4 5.5 -54.7 -2.8 -37.9 -6.25 -23.75 -9.2 3.45 -12.55 L21.85 -14.75 26.85 -15.0 Q31.65 -15.0 34.6 -13.55 M-0.75 35.2 L13.15 33.4 22.35 33.0 Q27.4 33.0 29.1 36.1 30.0 37.7 29.85 39.5 L29.75 40.1 29.6 40.5 Q27.5 45.1 8.25 58.8 L-10.1 71.3 -24.65 80.85 -11.5 63.2 -6.75 56.0 Q2.4 50.45 11.65 45.4 L12.35 45.0 13.1 44.5 0.9 46.3 -1.8 46.7 Q-0.15 42.7 -0.15 40.1 -0.15 37.45 -0.75 35.2 M18.3 114.15 Q30.5 115.05 33.7 122.05 34.85 124.55 34.85 127.85 34.85 132.65 30.5 138.9 25.15 146.45 13.35 156.25 6.1 162.25 -5.25 170.4 L-17.65 179.3 -21.65 182.1 -22.95 183.05 -35.15 179.55 -33.35 178.25 -32.6 177.05 Q-31.1 174.85 -30.15 174.85 L-28.8 174.95 -28.25 174.55 -18.9 167.7 Q-7.55 159.25 0.85 152.5 18.9 138.05 23.4 131.35 L24.0 130.35 Q24.85 128.8 24.85 127.75 24.85 125.7 22.6 124.95 L13.6 124.25 5.75 124.6 12.5 119.25 18.3 114.15 M-8.2 203.1 Q10.05 196.85 19.35 196.85 26.9 196.85 28.6 199.8 29.5 201.25 28.85 203.0 28.85 204.25 20.25 211.85 11.5 219.6 0.4 228.15 -29.15 250.85 -37.65 250.85 -41.4 250.85 -42.65 248.15 -43.15 247.0 -43.15 245.1 -43.15 244.45 -41.05 242.7 -37.4 239.6 -27.6 233.15 L-17.3 226.5 13.1 207.6 -13.0 217.85 -14.6 218.5 -12.85 215.1 -11.0 211.25 Q-9.15 209.45 -9.15 208.85 L-9.35 207.25 Q-8.4 204.6 -8.2 203.1 M-44.5 204.5 L-43.15 200.95 -31.7 200.2 -32.75 202.9 -35.3 209.5 -36.9 213.6 -36.9 214.1 -24.2 209.2 -35.35 216.4 Q-42.9 221.4 -47.4 224.55 -48.4 223.85 -48.85 222.75 -49.3 221.75 -49.25 220.55 L-49.15 219.35 Q-49.15 216.95 -44.5 204.5 M-48.4 201.35 L-53.35 204.9 -64.45 212.75 -94.5 233.85 Q-98.25 233.85 -99.5 231.5 -100.0 230.55 -100.0 228.85 -100.0 226.25 -80.5 211.9 L-77.0 209.4 -67.7 202.8 -50.05 201.5 -48.4 201.35 M-92.45 156.95 L-111.0 165.25 Q-128.2 172.85 -133.5 172.85 -136.75 172.85 -138.55 171.85 -139.85 171.15 -140.5 169.95 -141.0 169.0 -141.05 167.85 L-141.0 166.75 Q-141.0 160.9 -128.65 148.1 -122.3 141.45 -112.65 133.0 L-102.15 124.05 -90.8 114.85 -66.65 107.65 -63.4 106.65 -74.8 115.35 -91.3 128.25 -96.95 132.95 Q-114.1 147.4 -123.0 158.0 L-123.25 158.5 -97.7 147.35 -87.75 142.95 -76.05 138.0 Q-79.95 145.85 -81.7 152.05 L-92.45 156.95 M-183.85 117.3 Q-195.75 122.0 -199.5 122.0 -203.25 122.0 -204.5 119.25 L-205.0 116.25 Q-205.0 107.95 -161.95 83.95 -136.6 69.8 -96.35 50.25 -76.85 40.8 -56.8 31.4 L-36.65 30.25 -35.85 30.25 -44.65 36.25 -58.65 41.75 Q-85.4 53.0 -110.9 66.75 -123.15 73.3 -154.0 91.25 L-154.0 91.5 Q-133.05 80.6 -110.75 71.0 -92.55 63.1 -73.4 56.1 L-75.8 57.75 Q-97.25 72.75 -112.5 84.1 L-143.95 99.3 Q-169.65 111.65 -183.85 117.3 M-166.0 48.0 L-166.95 48.3 Q-175.15 50.95 -179.25 52.75 -183.75 54.75 -187.75 60.45 -190.9 65.0 -195.0 65.0 -198.3 65.0 -199.45 62.65 -200.0 61.55 -200.0 60.0 -200.0 56.05 -195.65 51.75 -190.15 46.3 -177.75 40.3 -173.55 38.25 -168.5 36.15 -173.0 40.3 -173.0 42.25 L-173.05 43.3 -172.5 45.25 Q-171.05 47.85 -166.0 48.0 M-128.55 -11.85 L-181.1 17.85 Q-227.85 44.0 -232.5 44.0 -236.25 44.0 -237.5 41.65 -238.0 40.65 -238.0 39.0 -238.0 38.15 -228.85 32.55 -209.6 20.7 -149.85 -12.25 L-143.35 -15.8 Q-113.5 -32.2 -89.25 -45.15 L-71.4 -54.65 -57.75 -58.75 Q-44.85 -62.45 -33.8 -64.9 L-29.45 -65.2 -47.9 -55.1 -50.05 -53.95 -66.95 -44.9 Q-88.2 -33.6 -114.75 -19.75 L-128.55 -11.85 M-226.6 -9.05 L-234.1 -5.8 Q-268.6 9.0 -274.5 9.0 -280.5 9.0 -280.0 4.0 -280.0 -1.2 -234.2 -27.0 L-221.55 -34.0 -201.2 -35.6 Q-227.0 -17.65 -227.0 -11.0 L-226.6 -9.05 M-262.95 -38.55 L-263.0 -40.0 Q-263.0 -43.5 -198.1 -81.65 L-164.3 -101.45 -160.25 -102.85 Q-134.55 -111.55 -114.65 -117.75 L-121.55 -113.65 -133.45 -106.65 Q-148.05 -98.2 -163.25 -90.0 L-164.25 -89.5 -149.35 -94.7 Q-157.0 -91.2 -172.15 -84.7 -193.35 -75.5 -204.15 -70.4 -242.0 -52.5 -242.0 -43.15 L-242.25 -41.65 Q-256.75 -35.0 -258.0 -35.0 -262.45 -35.0 -262.95 -38.55 M-246.2 -76.95 Q-253.4 -71.95 -269.0 -60.0 -272.75 -60.0 -273.75 -63.5 L-274.0 -67.25 Q-274.0 -70.75 -270.35 -74.95 L-269.85 -75.45 -264.0 -75.0 Q-256.7 -75.0 -246.2 -76.95 M-86.55 -136.85 L-105.1 -131.1 -124.75 -124.6 -114.85 -130.4 Q-94.7 -138.1 -81.15 -144.55 L-81.15 -143.65 -81.25 -142.95 Q-81.9 -140.8 -86.55 -136.85 M-202.8 -99.35 L-222.0 -93.75 -196.7 -102.25 -197.25 -102.0 -202.8 -99.35 M4.35 3.55 Q-8.4 11.8 -22.1 21.0 L-32.3 20.05 -19.8 14.4 4.35 3.55 M-214.55 -54.75 Q-203.3 -61.15 -185.5 -69.0 L-168.4 -76.35 Q-182.7 -70.0 -214.55 -54.75 M-156.65 -81.3 L-128.25 -93.0 Q-122.8 -95.3 -80.0 -109.25 L-71.0 -112.2 -81.75 -106.35 -102.15 -100.4 Q-127.4 -92.85 -156.65 -81.3 M-111.65 -89.75 L-123.4 -83.15 Q-156.7 -64.25 -179.3 -50.05 L-196.6 -47.45 -183.25 -54.5 Q-151.45 -71.65 -111.65 -89.75 M-154.15 -40.3 L-159.75 -37.95 -196.75 -22.05 -205.75 -19.25 Q-190.45 -30.7 -178.6 -39.2 -165.9 -41.6 -134.7 -48.3 L-154.15 -40.3 M-42.05 -127.65 L-43.6 -126.85 -44.0 -127.15 -42.05 -127.65 M-68.6 65.55 L-39.5 45.15 -38.2 44.3 Q-26.0 40.6 -15.3 38.15 L-11.05 37.2 Q-10.4 38.7 -10.4 40.6 -10.4 43.0 -13.8 48.7 -26.25 50.85 -32.55 52.7 -38.2 54.35 -68.6 65.55 M-62.3 93.5 L-52.4 86.35 -37.35 75.75 -36.7 75.25 -29.15 70.2 -43.5 88.8 -62.3 93.5 M-13.55 127.6 Q-37.5 132.9 -69.4 146.55 -66.75 140.15 -62.05 132.35 L-52.25 128.6 Q-19.95 116.75 3.75 114.55 L-0.75 118.2 Q-4.6 121.2 -13.55 127.6 M-45.95 187.25 Q-41.4 188.7 -36.9 190.25 L-51.95 191.55 -45.95 187.25" fill="#4d4d4d" fill-rule="evenodd" stroke="none"/>
      <path d="M0.65 -150.35 L1.4 -149.35 Q2.45 -147.45 1.85 -145.4 1.85 -142.5 -5.55 -136.85 L-11.6 -132.65 Q-25.45 -123.6 -53.4 -109.4 -81.15 -95.3 -110.5 -82.0 -131.1 -70.95 -151.45 -57.8 L-157.6 -53.75 -147.6 -55.55 -120.15 -60.95 -78.65 -69.15 -66.95 -71.35 Q-42.9 -75.55 -29.8 -75.95 L-27.15 -76.0 -24.75 -75.95 Q-14.4 -78.05 -5.95 -79.05 L5.4 -79.95 7.85 -80.0 Q14.95 -80.0 17.95 -77.55 L19.15 -76.15 Q20.4 -74.2 19.85 -72.0 19.85 -68.85 -1.0 -54.95 L-9.3 -49.5 Q-20.2 -42.5 -35.2 -33.35 L-40.3 -30.25 -53.85 -22.15 -74.25 -10.05 -82.7 -4.15 -113.4 17.0 -131.4 29.2 Q-105.8 20.9 -63.35 5.8 -10.1 -12.0 13.35 -12.0 23.0 -12.0 25.4 -8.35 26.6 -6.45 25.85 -4.4 25.85 -1.55 -5.95 21.45 L-10.2 24.5 Q-5.4 26.9 -2.85 30.6 -1.45 32.65 -0.75 35.2 -0.15 37.45 -0.15 40.1 -0.15 42.7 -1.8 46.7 L-1.9 46.95 -3.05 49.45 -6.75 56.0 -11.5 63.2 -24.65 80.85 -28.25 85.55 Q-17.0 83.35 -7.45 82.2 L10.85 81.0 Q24.65 81.0 29.95 85.65 L31.15 86.9 Q33.55 89.9 32.85 93.1 32.85 100.6 18.3 114.15 L12.5 119.25 5.75 124.6 -7.1 134.35 -18.65 143.0 -29.45 150.7 -35.5 154.9 Q-46.45 162.55 -52.45 167.2 L-58.85 172.5 -52.9 174.5 Q-46.7 176.45 -37.5 178.9 L-36.55 179.15 -35.15 179.55 -22.95 183.05 -22.05 183.35 Q-16.35 185.1 -13.2 186.45 -2.15 191.15 -2.15 196.75 -2.15 198.0 -3.15 199.6 -4.6 201.85 -7.15 201.85 L-8.1 201.45 -8.15 202.35 -8.2 203.1 Q-8.4 204.6 -9.35 207.25 L-9.15 208.85 Q-9.15 209.45 -11.0 211.25 L-12.85 215.1 -14.6 218.5 Q-18.7 225.85 -21.65 225.85 L-22.9 225.8 Q-25.6 225.4 -26.6 223.5 L-26.65 223.35 Q-39.8 232.75 -46.15 234.45 L-48.65 234.85 Q-52.35 234.85 -53.6 232.5 -54.05 231.65 -54.1 230.4 L-54.15 229.85 Q-54.15 229.2 -47.4 224.55 -42.9 221.4 -35.35 216.4 L-24.2 209.2 -20.2 206.8 -18.15 202.5 Q-18.15 201.05 -19.65 200.65 L-28.5 200.1 -31.7 200.2 -43.15 200.95 -48.4 201.35 -50.05 201.5 -67.7 202.8 -70.15 202.85 -75.45 202.65 Q-82.85 201.9 -84.85 199.0 -85.7 197.8 -85.5 196.25 L-85.15 194.85 Q-85.15 188.4 -80.05 180.9 -78.05 177.9 -75.25 174.75 -78.55 172.2 -80.45 169.4 -83.15 165.45 -83.15 161.0 -83.15 157.7 -82.15 153.6 L-81.7 152.05 Q-79.95 145.85 -76.05 138.0 L-74.35 134.7 Q-70.3 127.05 -64.4 118.0 L-59.1 110.05 -54.9 104.05 -63.4 106.65 -66.65 107.65 -90.8 114.85 -105.75 118.9 Q-126.2 124.0 -137.5 124.0 L-143.45 123.6 Q-147.9 122.9 -149.45 120.9 L-150.0 119.9 -150.2 118.65 -150.0 117.5 Q-150.0 111.9 -112.5 84.1 -97.25 72.75 -75.8 57.75 L-73.4 56.1 -61.25 47.65 -44.65 36.25 -35.85 30.25 -36.65 30.25 -56.8 31.4 -78.4 34.5 -94.6 37.7 -105.6 40.15 -134.25 46.9 Q-148.25 50.0 -155.0 50.0 L-159.6 49.7 Q-162.5 49.15 -163.9 47.95 L-165.5 48.0 -166.0 48.0 Q-171.05 47.85 -172.5 45.25 L-173.05 43.3 -173.0 42.25 Q-173.0 40.3 -168.5 36.15 -162.6 30.65 -148.85 21.4 -128.5 7.6 -90.95 -14.5 L-85.45 -17.75 -60.6 -34.8 -52.5 -40.3 -51.15 -41.25 Q-25.3 -59.1 -17.4 -65.75 L-29.45 -65.2 -33.8 -64.9 Q-44.85 -62.45 -57.75 -58.75 L-71.4 -54.65 Q-93.25 -47.8 -123.4 -36.95 L-182.55 -15.6 Q-210.7 -6.0 -220.0 -6.0 -222.7 -6.0 -224.35 -6.7 -225.75 -7.3 -226.45 -8.35 L-226.6 -9.05 -227.0 -11.0 Q-227.0 -17.65 -201.2 -35.6 L-221.55 -34.0 -224.0 -34.0 Q-232.9 -34.0 -237.5 -35.8 -240.05 -36.85 -241.25 -38.4 -242.35 -39.8 -242.3 -41.55 L-242.25 -41.65 -242.0 -43.15 Q-242.0 -52.5 -204.15 -70.4 -193.35 -75.5 -172.15 -84.7 -157.0 -91.2 -149.35 -94.7 L-145.0 -96.75 Q-126.35 -105.8 -96.15 -116.1 -71.05 -124.6 -56.8 -127.0 L-47.15 -128.0 -45.3 -127.75 Q-44.55 -127.55 -44.0 -127.15 L-43.6 -126.85 -42.05 -127.65 -39.15 -129.2 -14.15 -142.25 -13.4 -142.75 -15.9 -142.35 Q-46.75 -137.35 -83.55 -127.05 L-89.55 -125.35 Q-100.65 -122.2 -114.65 -117.75 -134.55 -111.55 -160.25 -102.85 L-164.3 -101.45 Q-205.45 -87.6 -220.15 -83.3 -235.0 -79.0 -246.2 -76.95 -256.7 -75.0 -264.0 -75.0 L-269.85 -75.45 Q-273.2 -76.15 -274.45 -77.75 -275.15 -78.6 -275.15 -79.7 L-275.0 -80.75 Q-275.0 -84.45 -248.45 -95.3 L-228.05 -103.25 -231.5 -103.0 Q-238.65 -103.0 -240.5 -105.9 -241.1 -106.85 -241.1 -108.0 L-241.0 -109.15 Q-241.0 -110.05 -240.05 -111.15 -237.05 -114.85 -224.4 -121.2 -213.85 -126.55 -196.55 -133.75 -181.25 -140.15 -164.3 -146.5 -149.95 -151.85 -146.0 -153.0 L-109.2 -165.0 Q-79.7 -174.0 -67.15 -174.0 -57.5 -174.0 -54.35 -170.15 -52.8 -168.2 -53.15 -166.0 -53.15 -157.85 -81.15 -144.55 -94.7 -138.1 -114.85 -130.4 L-126.3 -126.15 Q-148.15 -118.15 -182.9 -106.8 L-196.7 -102.25 -222.0 -93.75 -202.8 -99.35 Q-185.85 -104.5 -163.95 -111.7 L-124.75 -124.6 -105.1 -131.1 -86.55 -136.85 Q-43.6 -149.8 -19.8 -152.35 L-9.15 -153.0 Q-2.0 -153.0 0.65 -150.35 M4.85 -69.5 L-0.9 -69.75 -6.2 -69.4 Q-5.75 -68.2 -6.15 -66.9 -6.15 -65.05 -8.9 -61.6 L3.85 -68.75 4.85 -69.5 M4.45 3.5 L11.35 -1.0 12.6 -1.75 Q-6.45 0.95 -78.9 23.9 -62.8 21.25 -48.85 20.4 L-40.1 20.05 -36.15 20.0 -32.3 20.05 -22.1 21.0 Q-8.4 11.8 4.35 3.55 L4.45 3.5 M-138.2 -145.1 L-154.2 -139.65 Q-183.4 -129.4 -202.05 -121.0 -223.0 -111.6 -223.0 -107.9 -223.0 -105.75 -224.6 -104.55 L-187.0 -118.25 -118.0 -143.05 Q-81.75 -156.35 -68.65 -163.0 L-67.4 -163.75 Q-70.9 -163.7 -77.25 -162.45 -86.5 -160.65 -101.85 -156.35 -118.95 -151.5 -138.2 -145.1 M-168.4 -76.35 L-185.5 -69.0 Q-203.3 -61.15 -214.55 -54.75 -224.95 -48.85 -229.75 -44.25 -216.7 -44.7 -196.6 -47.45 L-179.3 -50.05 Q-156.7 -64.25 -123.4 -83.15 L-111.65 -89.75 -81.75 -106.35 -71.0 -112.2 -80.0 -109.25 Q-122.8 -95.3 -128.25 -93.0 L-156.65 -81.3 -157.5 -80.95 -168.4 -76.35 M-196.75 -22.05 L-177.2 -28.5 -153.3 -36.7 Q-113.25 -50.6 -95.9 -56.25 L-131.05 -49.1 -134.7 -48.3 Q-165.9 -41.6 -178.6 -39.2 -190.45 -30.7 -205.75 -19.25 L-196.75 -22.05 M-38.2 44.3 L-39.5 45.15 -68.6 65.55 -78.0 72.1 -79.2 73.0 Q-124.35 104.7 -135.0 113.0 L-135.55 113.55 -135.75 113.75 Q-130.9 113.05 -120.5 110.25 L-109.9 107.25 -75.5 97.2 -72.0 96.15 -62.3 93.5 -43.5 88.8 -29.15 70.2 -28.05 68.7 -21.75 60.35 -16.7 53.25 -14.8 50.35 -13.8 48.7 Q-10.4 43.0 -10.4 40.6 -10.4 38.7 -11.05 37.2 L-11.7 36.0 Q-12.75 34.5 -14.6 33.5 -16.75 32.35 -20.15 31.6 L-38.2 44.3 M-61.9 162.4 Q-52.3 154.6 -37.0 144.0 L-29.5 138.8 -13.55 127.6 Q-4.6 121.2 -0.75 118.2 L3.75 114.55 Q18.1 102.35 22.35 93.0 L17.3 92.3 11.6 91.85 0.1 91.25 Q-9.25 91.25 -28.55 96.35 L-38.75 99.25 -42.7 104.45 -46.9 110.1 Q-54.5 120.35 -59.35 127.95 L-61.55 131.45 -62.05 132.35 Q-66.75 140.15 -69.4 146.55 L-70.75 150.1 Q-72.9 156.2 -72.9 160.85 -72.9 163.35 -70.75 165.7 L-68.25 167.8 -61.9 162.4 M-49.05 186.3 L-52.4 185.25 Q-60.6 182.8 -66.6 179.95 -72.8 186.7 -74.65 192.35 L-61.4 192.6 -59.25 192.35 -51.95 191.55 -36.9 190.25 Q-41.4 188.7 -45.95 187.25 L-49.05 186.3" fill="#6f6f6f" fill-rule="evenodd" stroke="none"/>
    </g>
  </defs>
</svg>
