<?xml version="1.0" encoding="UTF-8" standalone="no"?>
<svg xmlns:xlink="http://www.w3.org/1999/xlink" height="720.75px" width="1716.8px" xmlns="http://www.w3.org/2000/svg">
  <g transform="matrix(1, 0, 0, 1, 307.05, 450.35)">
    <use height="251.1" transform="matrix(1.0, 0.0, 0.0, 1.0, -207.35, -215.1)" width="375.75" xlink:href="#sprite0"/>
  </g>
  <defs>
    <g id="sprite0" transform="matrix(1, 0, 0, 1, 187.85, 125.55)">
      <use height="251.1" transform="matrix(1.0, 0.0, 0.0, 1.0, -187.85, -125.55)" width="375.75" xlink:href="#shape0"/>
    </g>
    <g id="shape0" transform="matrix(1, 0, 0, 1, 187.85, 125.55)">
      <path d="M97.15 -102.35 Q83.75 -112.9 95.65 -119.25 110.8 -124.55 129.65 -124.0 L186.4 -122.5 Q174.0 -106.5 180.7 -95.85 191.55 -78.6 181.15 -63.5 174.55 -54.25 167.9 -50.75 145.4 -52.0 135.65 -58.75 L126.4 -66.25 113.45 -67.35 100.65 -68.5 Q86.25 -68.5 94.9 -59.5 98.45 -43.35 88.4 -33.0 69.05 -8.25 82.4 16.5 97.0 37.25 102.0 51.05 78.95 30.65 50.35 15.85 50.0 -0.8 61.9 -19.5 74.6 -30.7 81.9 -45.0 87.65 -57.25 72.4 -67.0 62.8 -72.55 66.4 -81.75 73.5 -92.05 90.65 -89.25 105.85 -88.5 107.15 -91.95 118.55 -86.45 129.65 -86.5 143.2 -90.55 128.15 -95.25 L97.15 -102.35 M104.6 62.35 Q104.95 68.3 102.25 72.05 92.55 85.6 78.55 93.35 37.25 116.5 -8.1 121.5 -35.15 126.95 -40.6 120.75 -58.95 126.7 -62.1 120.75 L-79.1 118.5 -86.5 117.05 -56.35 83.0 Q-51.3 85.55 -34.85 84.25 -12.75 80.35 3.15 69.05 27.0 59.1 42.9 54.1 58.8 49.05 63.35 48.65 67.85 48.25 78.0 50.9 93.85 55.25 104.6 62.35 M-97.2 98.05 L-94.4 95.5 Q-70.2 75.5 -86.1 69.3 -79.85 63.1 -70.55 59.95 L-64.6 62.0 Q-52.1 64.5 -53.15 74.0 -90.35 99.55 -97.2 98.05 M-93.45 62.4 Q-100.25 54.9 -115.1 47.0 -159.8 58.7 -145.1 29.0 L-145.1 20.5 -150.35 20.0 Q-103.35 -3.4 -160.9 -3.05 -170.35 -5.55 -186.35 -7.0 -156.9 -17.7 -132.2 -21.5 -109.8 -24.9 -96.45 -21.95 -83.5 -19.05 -84.2 -11.45 -84.95 -3.35 -101.1 7.0 L-102.35 14.25 Q-87.95 22.85 -90.9 32.5 -81.35 32.9 -81.85 51.75 -79.1 56.0 -72.4 59.1 L-93.45 62.4" fill="#ffffff" fill-opacity="0.7529412" fill-rule="evenodd" stroke="none"/>
      <path d="M107.15 -91.95 Q108.1 -94.7 100.25 -100.05 L97.15 -102.35 128.15 -95.25 Q143.2 -90.55 129.65 -86.5 118.55 -86.45 107.15 -91.95 M113.45 -67.35 Q109.7 -59.75 94.9 -59.5 86.25 -68.5 100.65 -68.5 L113.45 -67.35 M102.0 51.05 Q104.35 57.45 104.6 62.35 93.85 55.25 78.0 50.9 67.85 48.25 63.35 48.65 58.8 49.05 42.9 54.1 27.0 59.1 3.15 69.05 18.6 58.05 28.15 40.0 32.85 33.05 39.4 38.25 51.85 41.9 53.65 31.75 50.5 24.05 50.35 15.85 78.95 30.65 102.0 51.05 M-86.5 117.05 Q-110.6 111.25 -97.2 98.05 -90.35 99.55 -53.15 74.0 -53.6 77.9 -56.35 83.0 L-86.5 117.05 M-86.1 69.3 Q-87.55 68.7 -89.35 68.25 -90.75 65.35 -93.45 62.4 L-72.4 59.1 -70.55 59.95 Q-79.85 63.1 -86.1 69.3 M-150.35 20.0 Q-153.55 19.05 -156.1 16.5 -136.6 3.35 -160.9 -3.05 -103.35 -3.4 -150.35 20.0" fill="#e0dddd" fill-opacity="0.7529412" fill-rule="evenodd" stroke="none"/>
      <path d="M107.15 -91.95 Q108.1 -94.7 100.25 -100.05 L97.15 -102.35 Q83.75 -112.9 95.65 -119.25 110.8 -124.55 129.65 -124.0 L186.4 -122.5 Q174.0 -106.5 180.7 -95.85 191.55 -78.6 181.15 -63.5 174.55 -54.25 167.9 -50.75 145.4 -52.0 135.65 -58.75 L126.4 -66.25 113.45 -67.35 Q109.7 -59.75 94.9 -59.5 98.45 -43.35 88.4 -33.0 69.05 -8.25 82.4 16.5 97.0 37.25 102.0 51.05 104.35 57.45 104.6 62.35 104.95 68.3 102.25 72.05 92.55 85.6 78.55 93.35 37.25 116.5 -8.1 121.5 -35.15 126.95 -40.6 120.75 -58.95 126.7 -62.1 120.75 L-79.1 118.5 -86.5 117.05 Q-110.6 111.25 -97.2 98.05 L-94.4 95.5 Q-70.2 75.5 -86.1 69.3 -87.55 68.7 -89.35 68.25 -90.75 65.35 -93.45 62.4 -100.25 54.9 -115.1 47.0 -159.8 58.7 -145.1 29.0 L-145.1 20.5 -150.35 20.0 Q-153.55 19.05 -156.1 16.5 -136.6 3.35 -160.9 -3.05 -170.35 -5.55 -186.35 -7.0 -156.9 -17.7 -132.2 -21.5 -109.8 -24.9 -96.45 -21.95 -83.5 -19.05 -84.2 -11.45 -84.95 -3.35 -101.1 7.0 L-102.35 14.25 Q-87.95 22.85 -90.9 32.5 -81.35 32.9 -81.85 51.75 -79.1 56.0 -72.4 59.1 L-70.55 59.95 -64.6 62.0 Q-52.1 64.5 -53.15 74.0 -53.6 77.9 -56.35 83.0 -51.3 85.55 -34.85 84.25 -12.75 80.35 3.15 69.05 18.6 58.05 28.15 40.0 32.85 33.05 39.4 38.25 51.85 41.9 53.65 31.75 50.5 24.05 50.35 15.85 50.0 -0.8 61.9 -19.5 74.6 -30.7 81.9 -45.0 87.65 -57.25 72.4 -67.0 62.8 -72.55 66.4 -81.75 73.5 -92.05 90.65 -89.25 105.85 -88.5 107.15 -91.95" fill="none" stroke="#010101" stroke-linecap="round" stroke-linejoin="round" stroke-opacity="0.22352941" stroke-width="3.0"/>
    </g>
  </defs>
</svg>
