<?xml version="1.0" encoding="UTF-8" standalone="no"?>
<svg xmlns:xlink="http://www.w3.org/1999/xlink" height="720.75px" width="1716.8px" xmlns="http://www.w3.org/2000/svg">
  <g transform="matrix(1, 0, 0, 1, 307.05, 450.35)">
    <use height="251.55" transform="matrix(1.0, 0.0, 0.0, 1.0, -24.4, -125.9)" width="48.8" xlink:href="#sprite0"/>
  </g>
  <defs>
    <g id="sprite0" transform="matrix(1, 0, 0, 1, 24.4, 125.9)">
      <use height="251.55" transform="matrix(1.0, 0.0, 0.0, 1.0, -24.4, -125.9)" width="48.8" xlink:href="#shape0"/>
    </g>
    <g id="shape0" transform="matrix(1, 0, 0, 1, 24.4, 125.9)">
      <path d="M3.75 -98.5 L3.75 108.5 -5.25 108.5 -5.25 -98.5 3.75 -98.5" fill="#2b2b2b" fill-rule="evenodd" stroke="none"/>
      <path d="M3.75 -98.5 L3.75 108.5 -5.25 108.5 -5.25 -98.5 3.75 -98.5" fill="none" stroke="#000000" stroke-linecap="round" stroke-linejoin="round" stroke-width="2.0"/>
      <path d="M-7.6 -70.75 Q-7.35 -72.3 -5.15 -70.2 L-5.05 -70.1 Q-2.85 -68.1 4.2 -67.4 2.7 -63.25 4.0 -59.55 5.3 -55.9 4.95 -55.0 4.55 -54.2 4.0 -54.75 3.4 -55.35 0.1 -57.2 -3.3 -59.2 -5.55 -59.15 -7.8 -59.1 -6.45 -61.95 -5.15 -64.8 -6.3 -67.85 L-7.0 -69.6 -7.6 -70.75 M0.3 -45.05 Q0.45 -45.45 0.25 -45.85 L-0.4 -46.45 -1.25 -46.4 -1.75 -45.8 Q-1.95 -45.35 -1.75 -44.95 L-1.1 -44.4 -0.3 -44.45 0.3 -45.05 M-2.55 -63.85 Q-2.8 -63.1 -2.5 -62.45 -2.25 -61.85 -1.5 -61.55 L-0.2 -61.6 Q0.5 -61.95 0.75 -62.65 1.0 -63.4 0.7 -64.0 0.4 -64.6 -0.3 -64.95 L-1.6 -64.9 Q-2.3 -64.6 -2.55 -63.85 M0.1 -42.8 L0.05 -42.8 0.1 -42.8 M4.3 -44.85 L3.4 -44.8 Q3.0 -44.65 2.9 -44.2 2.75 -43.8 2.95 -43.35 3.15 -42.95 3.6 -42.8 L4.35 -42.85 4.95 -43.45 4.95 -44.3 4.3 -44.85 M6.95 -42.05 Q10.1 -37.85 5.9 -37.1 L5.85 -37.1 5.85 -37.05 Q5.45 -32.3 1.55 -34.3 -2.0 -31.05 -3.4 -35.4 L-3.45 -35.4 Q-7.3 -35.25 -6.25 -39.65 L-6.25 -39.7 Q-8.9 -43.15 -5.35 -44.75 -5.05 -44.7 -4.5 -46.4 -3.95 -48.15 -0.85 -47.5 1.9 -49.6 4.2 -46.4 8.75 -46.5 6.95 -42.1 L6.95 -42.05 M2.75 -36.05 L2.7 -36.85 2.05 -37.45 1.2 -37.4 Q0.8 -37.2 0.7 -36.8 0.5 -36.35 0.7 -35.95 0.9 -35.55 1.35 -35.4 1.7 -35.25 2.15 -35.4 L2.75 -36.05 M6.1 -39.95 L5.4 -40.5 4.55 -40.45 Q4.15 -40.3 4.05 -39.85 3.85 -39.45 4.05 -39.0 L4.7 -38.5 Q5.05 -38.3 5.5 -38.5 L6.1 -39.15 6.1 -39.95 M-3.15 -38.4 L-3.65 -37.8 Q-3.8 -37.35 -3.6 -36.9 L-2.95 -36.4 Q-2.6 -36.2 -2.2 -36.4 L-1.6 -37.05 Q-1.45 -37.45 -1.6 -37.85 -1.85 -38.3 -2.3 -38.45 L-3.15 -38.4 M-3.45 -42.95 L-4.3 -42.9 -4.8 -42.3 Q-5.0 -41.9 -4.8 -41.45 L-4.15 -40.95 -3.35 -40.9 Q-2.95 -41.15 -2.8 -41.55 -2.6 -41.95 -2.8 -42.4 L-3.45 -42.95 M2.05 -39.8 L2.0 -39.75 2.05 -39.75 2.05 -39.8 M0.35 28.0 Q10.5 34.2 0.8 43.5 -11.8 34.45 0.35 28.0 M0.95 31.85 Q0.4 31.5 -0.15 31.6 -0.85 31.7 -1.15 32.2 -1.55 32.7 -1.4 33.35 -1.3 34.0 -0.75 34.35 L0.35 34.6 Q0.95 34.45 1.35 33.95 1.65 33.45 1.55 32.8 1.45 32.15 0.95 31.85 M0.65 -4.7 L-0.5 -4.9 Q-1.15 -4.8 -1.45 -4.3 -1.8 -3.8 -1.7 -3.15 -1.6 -2.5 -1.1 -2.2 L0.05 -1.95 Q0.65 -2.05 1.05 -2.55 1.4 -3.05 1.25 -3.7 1.15 -4.35 0.65 -4.7 M0.55 7.05 Q-12.1 -2.0 0.05 -8.45 10.25 -2.3 0.55 7.05 M4.6 112.8 Q-1.45 115.85 -6.1 112.85 -1.45 115.85 4.6 112.8 4.2 116.75 3.2 119.9 1.55 124.9 -0.8 124.9 -3.1 124.9 -4.7 119.9 -5.75 116.75 -6.1 112.85 L-6.25 111.3 -6.3 107.9 -6.3 107.6 Q-1.5 110.9 4.8 107.6 L4.8 107.9 4.7 111.3 4.6 112.8" fill="#f7de09" fill-rule="evenodd" stroke="none"/>
      <path d="M-7.6 -70.75 Q-7.35 -72.3 -5.15 -70.2 L-5.05 -70.1 Q-2.85 -68.1 4.2 -67.4 2.7 -63.25 4.0 -59.55 5.3 -55.9 4.95 -55.0 4.55 -54.2 4.0 -54.75 3.4 -55.35 0.1 -57.2 -3.3 -59.2 -5.55 -59.15 -7.8 -59.1 -6.45 -61.95 -5.15 -64.8 -6.3 -67.85 L-7.0 -69.6 -7.6 -70.75 M-2.55 -63.85 Q-2.3 -64.6 -1.6 -64.9 L-0.3 -64.95 Q0.4 -64.6 0.7 -64.0 1.0 -63.4 0.75 -62.65 0.5 -61.95 -0.2 -61.6 L-1.5 -61.55 Q-2.25 -61.85 -2.5 -62.45 -2.8 -63.1 -2.55 -63.85 M0.3 -45.05 L-0.3 -44.45 -1.1 -44.4 -1.75 -44.95 Q-1.95 -45.35 -1.75 -45.8 L-1.25 -46.4 -0.4 -46.45 0.25 -45.85 Q0.45 -45.45 0.3 -45.05 M4.3 -44.85 L4.95 -44.3 4.95 -43.45 4.35 -42.85 3.6 -42.8 Q3.15 -42.95 2.95 -43.35 2.75 -43.8 2.9 -44.2 3.0 -44.65 3.4 -44.8 L4.3 -44.85 M6.95 -42.05 Q10.1 -37.85 5.9 -37.1 L5.85 -37.1 5.85 -37.05 Q5.45 -32.3 1.55 -34.3 -2.0 -31.05 -3.4 -35.4 L-3.45 -35.4 Q-7.3 -35.25 -6.25 -39.65 L-6.25 -39.7 Q-8.9 -43.15 -5.35 -44.75 -5.05 -44.7 -4.5 -46.4 -3.95 -48.15 -0.85 -47.5 1.9 -49.6 4.2 -46.4 8.75 -46.5 6.95 -42.1 L6.95 -42.05 M-3.45 -42.95 L-2.8 -42.4 Q-2.6 -41.95 -2.8 -41.55 -2.95 -41.15 -3.35 -40.9 L-4.15 -40.95 -4.8 -41.45 Q-5.0 -41.9 -4.8 -42.3 L-4.3 -42.9 -3.45 -42.95 M-3.15 -38.4 L-2.3 -38.45 Q-1.85 -38.3 -1.6 -37.85 -1.45 -37.45 -1.6 -37.05 L-2.2 -36.4 Q-2.6 -36.2 -2.95 -36.4 L-3.6 -36.9 Q-3.8 -37.35 -3.65 -37.8 L-3.15 -38.4 M6.1 -39.95 L6.1 -39.15 5.5 -38.5 Q5.05 -38.3 4.7 -38.5 L4.05 -39.0 Q3.85 -39.45 4.05 -39.85 4.15 -40.3 4.55 -40.45 L5.4 -40.5 6.1 -39.95 M2.75 -36.05 L2.15 -35.4 Q1.7 -35.25 1.35 -35.4 0.9 -35.55 0.7 -35.95 0.5 -36.35 0.7 -36.8 0.8 -37.2 1.2 -37.4 L2.05 -37.45 2.7 -36.85 2.75 -36.05 M-6.1 112.85 Q-1.45 115.85 4.6 112.8 L4.7 111.3 4.8 107.9 4.8 107.6 Q-1.5 110.9 -6.3 107.6 L-6.3 107.9 -6.25 111.3 -6.1 112.85 Q-5.75 116.75 -4.7 119.9 -3.1 124.9 -0.8 124.9 1.55 124.9 3.2 119.9 4.2 116.75 4.6 112.8" fill="none" stroke="#000000" stroke-linecap="round" stroke-linejoin="round" stroke-width="1.5"/>
      <path d="M0.65 -4.7 Q1.15 -4.35 1.25 -3.7 1.4 -3.05 1.05 -2.55 0.65 -2.05 0.05 -1.95 L-1.1 -2.2 Q-1.6 -2.5 -1.7 -3.15 -1.8 -3.8 -1.45 -4.3 -1.15 -4.8 -0.5 -4.9 L0.65 -4.7 M0.95 31.85 Q1.45 32.15 1.55 32.8 1.65 33.45 1.35 33.95 0.95 34.45 0.35 34.6 L-0.75 34.35 Q-1.3 34.0 -1.4 33.35 -1.55 32.7 -1.15 32.2 -0.85 31.7 -0.15 31.6 0.4 31.5 0.95 31.85 M0.35 28.0 Q-11.8 34.45 0.8 43.5 10.5 34.2 0.35 28.0 M0.55 7.05 Q-12.1 -2.0 0.05 -8.45 10.25 -2.3 0.55 7.05" fill="none" stroke="#000000" stroke-linecap="round" stroke-linejoin="round" stroke-width="2.0"/>
      <path d="M-15.15 -107.4 Q-15.8 -107.8 -15.95 -108.45 -16.2 -109.15 -15.8 -109.8 L-14.75 -110.6 -13.45 -110.45 -5.2 -105.9 -9.75 -114.2 Q-10.15 -114.85 -9.9 -115.5 -9.75 -116.2 -9.1 -116.55 L-7.75 -116.7 Q-7.1 -116.55 -6.7 -115.9 L-2.5 -108.2 -2.5 -123.15 Q-2.5 -123.85 -1.95 -124.35 -1.45 -124.9 -0.75 -124.9 -0.05 -124.9 0.5 -124.35 1.0 -123.85 1.0 -123.15 L1.0 -108.2 5.25 -115.85 6.25 -116.7 7.6 -116.55 Q8.2 -116.25 8.45 -115.55 8.65 -114.85 8.3 -114.2 L3.75 -105.95 11.9 -110.5 13.25 -110.65 14.3 -109.85 Q14.65 -109.2 14.45 -108.5 14.25 -107.85 13.6 -107.45 L6.05 -103.25 21.65 -103.25 Q22.35 -103.25 22.9 -102.7 23.4 -102.2 23.4 -101.5 23.4 -100.8 22.9 -100.25 22.35 -99.75 21.65 -99.75 L6.0 -99.75 13.6 -95.55 Q14.25 -95.25 14.45 -94.55 14.65 -93.85 14.3 -93.2 13.95 -92.6 13.25 -92.35 L11.9 -92.5 3.65 -97.05 8.2 -88.8 Q8.55 -88.15 8.35 -87.45 8.15 -86.8 7.5 -86.4 L6.2 -86.25 Q5.5 -86.45 5.15 -87.1 L1.0 -94.6 1.0 -79.85 Q1.0 -79.15 0.5 -78.6 -0.05 -78.1 -0.75 -78.1 -1.45 -78.1 -1.95 -78.6 -2.5 -79.15 -2.5 -79.85 L-2.5 -94.6 -6.6 -87.1 Q-6.95 -86.45 -7.65 -86.25 L-8.95 -86.4 Q-9.6 -86.75 -9.8 -87.45 -10.05 -88.15 -9.65 -88.8 L-5.05 -97.2 -13.45 -92.55 -14.75 -92.4 Q-15.45 -92.6 -15.8 -93.25 -16.2 -93.9 -15.95 -94.55 -15.8 -95.25 -15.15 -95.6 L-7.65 -99.75 -21.65 -99.75 Q-22.35 -99.75 -22.85 -100.25 -23.4 -100.8 -23.4 -101.5 -23.4 -102.2 -22.85 -102.7 -22.35 -103.25 -21.65 -103.25 L-7.6 -103.25 -15.15 -107.4" fill="#fde302" fill-rule="evenodd" stroke="none"/>
      <path d="M-15.15 -107.4 L-7.6 -103.25 -21.65 -103.25 Q-22.35 -103.25 -22.85 -102.7 -23.4 -102.2 -23.4 -101.5 -23.4 -100.8 -22.85 -100.25 -22.35 -99.75 -21.65 -99.75 L-7.65 -99.75 -15.15 -95.6 Q-15.8 -95.25 -15.95 -94.55 -16.2 -93.9 -15.8 -93.25 -15.45 -92.6 -14.75 -92.4 L-13.45 -92.55 -5.05 -97.2 -9.65 -88.8 Q-10.05 -88.15 -9.8 -87.45 -9.6 -86.75 -8.95 -86.4 L-7.65 -86.25 Q-6.95 -86.45 -6.6 -87.1 L-2.5 -94.6 -2.5 -79.85 Q-2.5 -79.15 -1.95 -78.6 -1.45 -78.1 -0.75 -78.1 -0.05 -78.1 0.5 -78.6 1.0 -79.15 1.0 -79.85 L1.0 -94.6 5.15 -87.1 Q5.5 -86.45 6.2 -86.25 L7.5 -86.4 Q8.15 -86.8 8.35 -87.45 8.55 -88.15 8.2 -88.8 L3.65 -97.05 11.9 -92.5 13.25 -92.35 Q13.95 -92.6 14.3 -93.2 14.65 -93.85 14.45 -94.55 14.25 -95.25 13.6 -95.55 L6.0 -99.75 21.65 -99.75 Q22.35 -99.75 22.9 -100.25 23.4 -100.8 23.4 -101.5 23.4 -102.2 22.9 -102.7 22.35 -103.25 21.65 -103.25 L6.05 -103.25 13.6 -107.45 Q14.25 -107.85 14.45 -108.5 14.65 -109.2 14.3 -109.85 L13.25 -110.65 11.9 -110.5 3.75 -105.95 8.3 -114.2 Q8.65 -114.85 8.45 -115.55 8.2 -116.25 7.6 -116.55 L6.25 -116.7 5.25 -115.85 1.0 -108.2 1.0 -123.15 Q1.0 -123.85 0.5 -124.35 -0.05 -124.9 -0.75 -124.9 -1.45 -124.9 -1.95 -124.35 -2.5 -123.85 -2.5 -123.15 L-2.5 -108.2 -6.7 -115.9 Q-7.1 -116.55 -7.75 -116.7 L-9.1 -116.55 Q-9.75 -116.2 -9.9 -115.5 -10.15 -114.85 -9.75 -114.2 L-5.2 -105.9 -13.45 -110.45 -14.75 -110.6 -15.8 -109.8 Q-16.2 -109.15 -15.95 -108.45 -15.8 -107.8 -15.15 -107.4" fill="none" stroke="#000000" stroke-linecap="round" stroke-linejoin="round" stroke-width="2.0"/>
      <path d="M4.35 -106.6 Q6.5 -104.45 6.5 -101.45 6.5 -98.45 4.35 -96.35 2.25 -94.25 -0.75 -94.25 -3.75 -94.25 -5.9 -96.35 -8.0 -98.45 -8.0 -101.45 -8.0 -104.45 -5.9 -106.6 -3.75 -108.7 -0.75 -108.7 2.25 -108.7 4.35 -106.6" fill="#fde302" fill-rule="evenodd" stroke="none"/>
      <path d="M4.35 -106.6 Q6.5 -104.45 6.5 -101.45 6.5 -98.45 4.35 -96.35 2.25 -94.25 -0.75 -94.25 -3.75 -94.25 -5.9 -96.35 -8.0 -98.45 -8.0 -101.45 -8.0 -104.45 -5.9 -106.6 -3.75 -108.7 -0.75 -108.7 2.25 -108.7 4.35 -106.6" fill="none" stroke="#000000" stroke-linecap="round" stroke-linejoin="round" stroke-width="2.5"/>
    </g>
  </defs>
</svg>
