<?xml version="1.0" encoding="UTF-8" standalone="no"?>
<svg xmlns:xlink="http://www.w3.org/1999/xlink" height="720.75px" width="1716.8px" xmlns="http://www.w3.org/2000/svg">
  <g transform="matrix(1, 0, 0, 1, 307.05, 450.35)">
    <use height="141.05" transform="matrix(-0.1034, 0.9941, -0.9941, -0.1034, 70.2142, -8.912)" width="31.5" xlink:href="#sprite0"/>
  </g>
  <defs>
    <g id="sprite0" transform="matrix(1, 0, 0, 1, 15.75, 70.55)">
      <use height="141.05" transform="matrix(1.0, 0.0, 0.0, 1.0, -15.75, -70.55)" width="31.5" xlink:href="#shape0"/>
    </g>
    <g id="shape0" transform="matrix(1, 0, 0, 1, 15.75, 70.55)">
      <path d="M14.0 -65.45 L14.0 67.05 Q6.25 70.45 -1.5 67.05 L-14.0 -62.45 Q-4.0 -73.4 14.0 -65.45" fill="url(#gradient0)" fill-rule="evenodd" stroke="none"/>
      <path d="M14.0 -65.45 L14.0 67.05 Q6.25 70.45 -1.5 67.05 L-14.0 -62.45 Q-4.0 -73.4 14.0 -65.45" fill="none" stroke="#000000" stroke-linecap="round" stroke-linejoin="round" stroke-width="3.5"/>
    </g>
    <linearGradient gradientTransform="matrix(0.0224, 0.039, -0.8669, 0.4969, 136.6, -46.4)" gradientUnits="userSpaceOnUse" id="gradient0" spreadMethod="pad" x1="-819.2" x2="819.2">
      <stop offset="0.0" stop-color="#fbf0cf"/>
      <stop offset="1.0" stop-color="#ab6907"/>
    </linearGradient>
  </defs>
</svg>
