<?xml version="1.0" encoding="UTF-8" standalone="no"?>
<svg xmlns:xlink="http://www.w3.org/1999/xlink" height="720.75px" width="1716.8px" xmlns="http://www.w3.org/2000/svg">
  <g transform="matrix(1, 0, 0, 1, 307.05, 450.35)">
    <use height="93.35" transform="matrix(2.0586, 0.0, 0.0, 2.0586, -50.6418, -96.0341)" width="49.25" xlink:href="#sprite0"/>
  </g>
  <defs>
    <g id="sprite0" transform="matrix(1, 0, 0, 1, 24.6, 46.65)">
      <use height="93.35" transform="matrix(1.0, 0.0, 0.0, 1.0, -24.6, -46.65)" width="49.25" xlink:href="#shape0"/>
    </g>
    <g id="shape0" transform="matrix(1, 0, 0, 1, 24.6, 46.65)">
      <path d="M-10.85 -9.7 Q-17.0 -10.45 -23.6 -12.3 -15.5 -24.15 -2.35 -32.55 -1.7 -38.8 -1.35 -44.8 3.15 -46.9 6.4 -43.8 L6.4 -32.3 Q18.3 -22.25 23.65 -15.55 19.0 -13.0 13.9 -11.45 L8.9 -10.2 3.7 -9.45 Q-3.25 -8.75 -10.85 -9.7 M21.15 3.7 Q18.5 12.4 8.9 13.7 L4.7 14.45 Q-0.3 15.0 -5.35 14.2 -15.05 13.85 -18.1 5.7 L-6.9 7.2 Q1.0 8.25 7.85 6.85 L4.7 14.45 7.85 6.85 Q13.75 5.85 21.15 3.7 M2.35 -31.5 Q4.2 -31.6 6.4 -32.3 4.2 -31.6 2.35 -31.5 L8.9 -10.2 2.35 -31.5 Q-0.3 -31.4 -2.35 -32.55 -0.3 -31.4 2.35 -31.5" fill="#202421" fill-rule="evenodd" stroke="none"/>
      <path d="M13.9 -11.45 L13.45 -1.65 3.7 0.95 3.7 -9.45 8.9 -10.2 13.9 -11.45 M9.15 -3.8 L9.85 -4.4 10.15 -5.8 9.85 -7.25 9.15 -7.8 Q8.75 -7.8 8.45 -7.25 8.15 -6.65 8.15 -5.8 8.15 -4.95 8.45 -4.4 8.75 -3.8 9.15 -3.8" fill="#343a38" fill-rule="evenodd" stroke="none"/>
      <path d="M9.15 -3.8 Q8.75 -3.8 8.45 -4.4 8.15 -4.95 8.15 -5.8 8.15 -6.65 8.45 -7.25 8.75 -7.8 9.15 -7.8 L9.85 -7.25 10.15 -5.8 9.85 -4.4 9.15 -3.8 M-6.15 -6.9 Q-5.45 -7.6 -4.45 -7.6 -3.45 -7.6 -2.75 -6.9 -2.05 -6.2 -2.05 -5.2 -2.05 -4.2 -2.75 -3.5 -3.45 -2.8 -4.45 -2.8 -5.45 -2.8 -6.15 -3.5 -6.85 -4.2 -6.85 -5.2 -6.85 -6.2 -6.15 -6.9" fill="#b1bcb9" fill-rule="evenodd" stroke="none"/>
      <path d="M-18.1 5.7 L-10.85 0.95 3.7 0.95 7.85 6.85 Q1.0 8.25 -6.9 7.2 L-18.1 5.7" fill="#2c332e" fill-rule="evenodd" stroke="none"/>
      <path d="M13.45 -1.65 L21.15 3.7 Q13.75 5.85 7.85 6.85 L3.7 0.95 13.45 -1.65" fill="#2e3533" fill-rule="evenodd" stroke="none"/>
      <path d="M8.9 13.7 L8.9 31.2 16.4 34.4 16.4 40.45 Q13.6 46.05 2.45 45.65 -8.75 45.25 -12.55 40.95 L-12.55 35.25 -5.35 31.2 -5.35 14.2 Q-0.3 15.0 4.7 14.45 L8.9 13.7 M16.4 34.4 Q2.65 43.65 -12.55 35.25 2.65 43.65 16.4 34.4 M8.9 31.2 Q2.25 35.65 -5.35 31.2 2.25 35.65 8.9 31.2" fill="#242825" fill-rule="evenodd" stroke="none"/>
      <path d="M-10.85 0.95 L-10.85 -9.7 Q-3.25 -8.75 3.7 -9.45 L3.7 0.95 -10.85 0.95 M-6.15 -6.9 Q-6.85 -6.2 -6.85 -5.2 -6.85 -4.2 -6.15 -3.5 -5.45 -2.8 -4.45 -2.8 -3.45 -2.8 -2.75 -3.5 -2.05 -4.2 -2.05 -5.2 -2.05 -6.2 -2.75 -6.9 -3.45 -7.6 -4.45 -7.6 -5.45 -7.6 -6.15 -6.9" fill="#16221c" fill-rule="evenodd" stroke="none"/>
      <path d="M-10.85 -9.7 Q-17.0 -10.45 -23.6 -12.3 -15.5 -24.15 -2.35 -32.55 -1.7 -38.8 -1.35 -44.8 3.15 -46.9 6.4 -43.8 L6.4 -32.3 Q18.3 -22.25 23.65 -15.55 19.0 -13.0 13.9 -11.45 L13.45 -1.65 21.15 3.7 Q18.5 12.4 8.9 13.7 L8.9 31.2 16.4 34.4 16.4 40.45 Q13.6 46.05 2.45 45.65 -8.75 45.25 -12.55 40.95 L-12.55 35.25 -5.35 31.2 -5.35 14.2 Q-15.05 13.85 -18.1 5.7 L-10.85 0.95 -10.85 -9.7 Q-3.25 -8.75 3.7 -9.45 L8.9 -10.2 2.35 -31.5 Q-0.3 -31.4 -2.35 -32.55 M6.4 -32.3 Q4.2 -31.6 2.35 -31.5 M8.9 -10.2 L13.9 -11.45 M7.85 6.85 Q1.0 8.25 -6.9 7.2 L-18.1 5.7 M7.85 6.85 L3.7 0.95 -10.85 0.95 M4.7 14.45 L7.85 6.85 Q13.75 5.85 21.15 3.7 M4.7 14.45 L8.9 13.7 M3.7 0.95 L13.45 -1.65 M3.7 -9.45 L3.7 0.95 M-5.35 31.2 Q2.25 35.65 8.9 31.2 M-12.55 35.25 Q2.65 43.65 16.4 34.4 M-5.35 14.2 Q-0.3 15.0 4.7 14.45" fill="none" stroke="#000000" stroke-linecap="round" stroke-linejoin="round" stroke-width="2.0"/>
    </g>
  </defs>
</svg>
