<?xml version="1.0" encoding="UTF-8" standalone="no"?>
<svg xmlns:xlink="http://www.w3.org/1999/xlink" height="720.75px" width="1716.8px" xmlns="http://www.w3.org/2000/svg">
  <g transform="matrix(1, 0, 0, 1, 307.05, 450.35)">
    <use height="116.0" transform="matrix(1.0, 0.0, 0.0, 1.0, -43.1, -63.2)" width="95.0" xlink:href="#shape0"/>
  </g>
  <defs>
    <g id="shape0" transform="matrix(1, 0, 0, 1, 43.1, 63.2)">
      <path d="M13.95 -56.5 L9.6 -57.75 Q2.3 -57.9 -12.6 -57.2 -13.85 -57.2 -26.6 -51.95 -32.35 -50.9 -35.65 -44.45 -38.1 -39.7 -38.1 -35.7 -38.1 -29.55 -29.6 -24.4 -19.7 -18.45 -3.85 -18.45 34.2 -18.45 43.7 -26.45 46.75 -29.0 46.6 -32.35 45.9 -35.35 45.9 -35.85 45.9 -38.4 42.85 -41.5 39.8 -44.65 28.9 -50.7 18.0 -56.8 13.9 -54.2 L13.9 -56.45 13.95 -56.5 M8.4 -63.2 Q26.25 -63.2 32.9 -55.2 L32.35 -54.35 Q38.3 -51.95 43.15 -47.45 46.75 -44.15 49.05 -40.25 50.9 -37.15 50.9 -35.85 L50.85 -31.35 51.9 -30.2 51.9 -14.45 Q51.4 -14.45 49.4 -13.2 L48.8 -13.7 48.9 -12.7 Q48.9 -9.4 40.2 -6.9 30.25 -4.1 10.9 -3.4 L10.9 47.15 12.4 47.3 12.65 47.55 Q12.9 47.7 12.9 49.15 12.9 52.8 3.9 52.8 -7.1 52.8 -7.1 46.05 L-6.95 44.95 Q-8.6 40.55 -8.95 33.35 L-9.1 20.15 -9.15 6.3 Q-8.95 -0.6 -8.05 -3.35 -26.35 -4.5 -39.25 -13.35 L-39.6 -13.2 -40.35 -14.15 -42.1 -15.45 -41.85 -17.7 -41.8 -17.75 -41.95 -18.6 -42.1 -23.85 -42.15 -30.15 Q-43.1 -32.8 -43.1 -35.85 -43.1 -46.0 -34.35 -53.45 -22.95 -63.2 -0.6 -63.2 L5.35 -63.05 8.4 -63.2 M46.85 -21.95 Q38.05 -13.2 8.9 -13.2 -25.45 -13.2 -37.1 -23.05 L-37.2 -17.6 -35.3 -16.7 Q-30.95 -14.5 -28.3 -13.45 -16.6 -8.7 -2.7 -8.7 34.65 -8.7 42.0 -11.7 44.1 -12.55 44.55 -14.2 44.95 -15.75 46.4 -16.2 L47.85 -15.3 Q46.95 -17.6 46.9 -21.95 L46.9 -22.0 46.85 -21.95 M-4.15 7.3 Q-3.9 13.55 -4.1 20.05 -4.1 33.4 -4.25 41.95 -2.65 42.6 -2.2 43.35 L-1.55 44.55 Q-0.4 45.55 7.7 46.7 6.35 42.15 6.05 35.2 5.9 32.75 5.9 21.3 4.9 11.6 4.7 6.35 4.45 0.2 6.15 -3.3 L-2.6 -3.2 -5.2 -3.25 Q-4.4 -0.25 -4.15 7.3" fill="#000000" fill-rule="evenodd" stroke="none"/>
      <path d="M13.95 -56.5 L13.9 -56.45 13.9 -54.2 Q18.0 -56.8 28.9 -50.7 39.8 -44.65 42.85 -41.5 45.9 -38.4 45.9 -35.85 45.9 -35.35 46.6 -32.35 46.75 -29.0 43.7 -26.45 34.2 -18.45 -3.85 -18.45 -19.7 -18.45 -29.6 -24.4 -38.1 -29.55 -38.1 -35.7 -38.1 -39.7 -35.65 -44.45 -32.35 -50.9 -26.6 -51.95 -13.85 -57.2 -12.6 -57.2 2.3 -57.9 9.6 -57.75 L13.95 -56.5" fill="#770000" fill-rule="evenodd" stroke="none"/>
      <path d="M46.9 -21.95 Q46.95 -17.6 47.85 -15.3 L46.4 -16.2 Q44.95 -15.75 44.55 -14.2 44.1 -12.55 42.0 -11.7 34.65 -8.7 -2.7 -8.7 -16.6 -8.7 -28.3 -13.45 -30.95 -14.5 -35.3 -16.7 L-37.2 -17.6 -37.1 -23.05 Q-25.45 -13.2 8.9 -13.2 38.05 -13.2 46.85 -21.95 L46.9 -21.95" fill="#5e0000" fill-rule="evenodd" stroke="none"/>
      <path d="M-4.15 7.3 Q-4.4 -0.25 -5.2 -3.25 L-2.6 -3.2 6.15 -3.3 Q4.45 0.2 4.7 6.35 4.9 11.6 5.9 21.3 5.9 32.75 6.05 35.2 6.35 42.15 7.7 46.7 -0.4 45.55 -1.55 44.55 L-2.2 43.35 Q-2.65 42.6 -4.25 41.95 -4.1 33.4 -4.1 20.05 -3.9 13.55 -4.15 7.3" fill="#bfbfbf" fill-rule="evenodd" stroke="none"/>
    </g>
  </defs>
</svg>
