<?xml version="1.0" encoding="UTF-8" standalone="no"?>
<svg xmlns:xlink="http://www.w3.org/1999/xlink" height="720.75px" width="1716.8px" xmlns="http://www.w3.org/2000/svg">
  <g transform="matrix(1, 0, 0, 1, 307.05, 450.35)">
    <use height="57.05" transform="matrix(1.0, 0.0, 0.0, 1.0, -47.8, -29.65)" width="97.6" xlink:href="#sprite0"/>
  </g>
  <defs>
    <g id="sprite0" transform="matrix(1, 0, 0, 1, 0.0, 0.0)">
      <use height="57.05" transform="matrix(1.0, 0.0, 0.0, 1.0, 0.0, 0.0)" width="97.6" xlink:href="#shape0"/>
    </g>
    <g id="shape0" transform="matrix(1, 0, 0, 1, 0.0, 0.0)">
      <path d="M7.65 21.6 Q7.65 21.5 8.05 21.35 49.65 28.3 90.45 19.05 91.2 21.35 90.9 23.7 89.5 35.25 84.45 45.75 L84.35 46.5 79.9 47.25 Q50.35 54.25 18.95 48.6 9.2 36.75 7.65 21.6" fill="#6d4f0a" fill-rule="evenodd" stroke="none"/>
      <path d="M8.05 15.25 Q50.1 23.35 88.45 11.45 51.2 2.05 14.5 13.25 L8.05 15.25 M0.0 16.5 Q41.0 -10.05 90.85 6.15 95.1 7.5 96.85 12.0 99.1 31.55 94.55 39.55 90.0 47.5 88.2 51.0 80.6 54.2 73.7 55.6 47.85 58.55 23.95 55.6 13.75 54.65 8.45 43.15 3.15 31.6 0.0 16.5 M7.65 21.6 Q9.2 36.75 18.95 48.6 50.35 54.25 79.9 47.25 L84.35 46.5 84.45 45.75 Q89.5 35.25 90.9 23.7 91.2 21.35 90.45 19.05 49.65 28.3 8.05 21.35 7.65 21.5 7.65 21.6" fill="#000000" fill-rule="evenodd" stroke="none"/>
      <path d="M8.05 15.25 L14.5 13.25 Q51.2 2.05 88.45 11.45 50.1 23.35 8.05 15.25" fill="#5e4309" fill-rule="evenodd" stroke="none"/>
    </g>
  </defs>
</svg>
