<?xml version="1.0" encoding="UTF-8" standalone="no"?>
<svg xmlns:xlink="http://www.w3.org/1999/xlink" height="720.75px" width="1716.8px" xmlns="http://www.w3.org/2000/svg">
  <g transform="matrix(1, 0, 0, 1, 307.05, 450.35)">
    <use height="92.2" transform="matrix(1.0, 0.0, 0.0, 1.0, -62.95, -56.1)" width="140.8" xlink:href="#sprite0"/>
  </g>
  <defs>
    <g id="sprite0" transform="matrix(1, 0, 0, 1, 70.4, 46.1)">
      <use height="86.0" transform="matrix(1.0, 0.0, 0.0, 1.0, -68.1, -42.9)" width="135.65" xlink:href="#shape0"/>
      <use height="92.2" transform="matrix(1.0, 0.0, 0.0, 1.0, -70.4, -46.1)" width="140.8" xlink:href="#shape1"/>
    </g>
    <g id="shape0" transform="matrix(1, 0, 0, 1, 68.1, 42.9)">
      <path d="M8.55 -26.45 Q15.6 -22.1 26.1 -22.5 36.3 -22.9 39.45 -27.4 42.55 -32.05 42.75 -33.95 L43.35 -37.8 43.8 -38.4 44.55 -38.55 45.15 -38.1 57.55 -19.35 59.9 -15.55 60.05 -15.0 59.9 -14.5 Q59.75 -14.25 59.5 -14.15 L59.05 -13.9 58.65 -13.75 Q56.3 -13.65 54.5 -12.4 52.9 -11.4 52.85 -10.15 52.85 -8.3 53.55 -6.2 54.9 -2.25 58.25 -2.2 61.3 -2.2 63.0 -4.3 L63.65 -5.35 64.2 -5.8 64.9 -5.8 65.45 -5.25 Q67.6 -0.4 67.55 2.25 67.65 5.95 60.9 13.2 L60.9 13.25 56.5 17.75 54.75 19.55 54.8 19.75 56.05 20.8 56.25 20.95 57.1 22.0 60.0 25.1 59.95 25.1 Q63.6 29.3 63.7 34.95 L63.55 35.55 63.05 35.9 Q60.75 36.7 56.8 36.7 53.1 36.7 49.05 34.8 47.05 33.8 45.7 33.35 L45.3 33.1 45.05 32.75 28.55 33.5 Q24.55 33.85 17.85 33.65 11.65 33.45 10.05 34.55 8.3 35.8 4.55 39.3 0.45 43.1 -4.8 43.1 L-5.2 43.1 -5.6 43.0 -5.95 42.75 -6.25 42.35 Q-8.05 39.75 -4.85 29.5 L-4.85 29.2 -9.85 28.85 -26.6 27.75 -44.45 26.5 -44.55 26.5 Q-46.2 26.25 -48.2 28.4 L-48.3 28.5 -48.25 28.4 -48.4 28.6 -49.15 29.5 -52.5 33.85 Q-54.55 36.5 -56.8 36.9 -59.6 37.4 -60.4 34.5 L-61.05 31.75 Q-61.15 30.95 -60.85 29.6 L-59.75 22.1 Q-58.85 15.55 -56.9 10.6 L-56.9 10.55 Q-48.85 -10.25 -13.45 -10.25 L-0.4 -10.05 -0.35 -13.8 Q-0.35 -18.3 -1.05 -22.5 -1.6 -25.7 -3.2 -32.05 L-3.1 -32.75 -2.6 -33.25 -1.85 -33.2 Q0.2 -32.35 3.3 -30.15 L3.3 -30.1 Q7.45 -27.15 8.55 -26.45 M9.7 -11.8 Q8.1 -10.8 8.05 -9.55 8.05 -7.7 8.75 -5.6 10.1 -1.7 13.45 -1.6 16.55 -1.6 18.2 -3.75 19.5 -5.5 19.5 -7.7 19.45 -10.7 17.75 -12.15 16.2 -13.35 13.85 -13.2 11.5 -13.05 9.7 -11.85 L9.7 -11.8 M49.45 3.2 Q48.55 4.3 46.65 8.3 L46.25 8.7 45.7 8.85 45.15 8.65 42.8 6.95 Q41.6 6.15 39.35 6.15 37.65 6.2 36.8 8.1 L36.8 8.15 Q35.3 11.3 32.5 11.25 31.65 11.5 29.4 8.3 28.05 6.35 27.55 6.15 L26.8 6.25 26.7 6.35 26.6 6.75 26.6 7.2 Q30.05 13.55 32.0 13.75 33.25 13.65 36.2 11.4 L39.7 8.55 Q39.95 8.3 40.3 8.3 L40.9 8.5 43.45 9.95 43.4 9.95 Q45.7 11.15 46.75 11.2 48.05 11.1 48.85 9.25 49.55 7.45 49.55 5.05 L49.45 3.2 M-50.85 -31.95 Q-50.85 -28.75 -53.25 -24.75 -55.3 -21.3 -55.3 -18.6 -55.05 -14.95 -51.75 -7.75 -50.15 -4.2 -49.45 -3.4 -49.2 -3.15 -49.2 -2.7 -49.2 -2.3 -49.5 -2.0 L-52.5 1.25 -53.0 1.6 -53.6 1.6 -55.4 0.85 Q-56.75 0.35 -59.65 -4.25 -62.45 -8.7 -62.1 -13.7 -61.8 -18.6 -60.45 -22.0 L-60.45 -21.95 Q-59.25 -25.05 -59.25 -27.0 -59.25 -31.4 -60.6 -33.25 L-60.6 -33.3 -64.75 -36.4 Q-67.05 -38.15 -67.7 -39.45 -68.7 -41.35 -67.25 -42.6 -66.95 -42.9 -66.55 -42.9 L-62.8 -42.9 -62.7 -42.9 Q-56.7 -43.25 -53.3 -38.7 -50.85 -35.35 -50.85 -31.95" fill="#bbbbbb" fill-rule="evenodd" stroke="none"/>
    </g>
    <g id="shape1" transform="matrix(1, 0, 0, 1, 70.4, 46.1)">
      <path d="M2.7 -29.3 Q-0.25 -31.45 -2.25 -32.3 -0.6 -25.9 -0.05 -22.65 0.65 -18.4 0.65 -13.8 L0.6 -9.05 -13.45 -9.25 Q-48.05 -9.25 -55.95 10.95 -57.85 15.8 -58.75 22.25 L-59.85 29.8 Q-60.15 30.95 -60.05 31.6 L-59.4 34.25 Q-58.9 36.25 -56.95 35.9 -55.05 35.55 -53.3 33.25 L-49.9 28.85 -49.1 27.95 -48.95 27.75 Q-46.45 25.1 -44.35 25.5 L-26.55 26.75 -9.75 27.85 -3.9 28.25 -3.85 29.55 -3.85 29.65 Q-6.9 39.4 -5.4 41.85 L-5.5 41.9 Q-5.75 42.05 -5.2 42.1 L-4.8 42.1 Q0.05 42.1 3.9 38.55 7.7 35.0 9.45 33.75 11.15 32.45 17.85 32.65 24.5 32.85 28.5 32.5 L45.6 31.7 45.85 32.15 46.0 32.4 Q47.4 32.85 49.5 33.9 53.3 35.7 56.8 35.7 60.5 35.7 62.7 34.95 62.6 29.7 59.2 25.75 L56.35 22.65 55.45 21.55 54.1 20.45 Q53.75 20.1 53.75 19.55 53.75 19.1 55.8 17.05 L60.15 12.55 Q66.55 5.7 66.55 2.25 66.55 -0.25 64.5 -4.85 L63.8 -3.75 Q61.9 -1.2 58.25 -1.2 54.2 -1.2 52.6 -5.85 51.85 -8.15 51.85 -10.15 51.85 -11.9 53.95 -13.25 55.95 -14.6 58.55 -14.75 L59.2 -14.75 59.05 -15.0 56.7 -18.8 44.35 -37.55 43.75 -33.85 Q43.6 -31.8 40.3 -26.85 36.95 -21.95 26.15 -21.5 15.3 -21.1 8.05 -25.6 6.9 -26.3 2.7 -29.3 M19.05 -25.1 Q34.45 -25.1 38.95 -32.2 40.4 -34.5 40.75 -37.7 L40.95 -41.55 Q42.0 -47.65 46.2 -41.85 L49.65 -36.4 52.5 -31.65 Q59.5 -21.8 63.35 -15.45 70.4 -3.85 70.4 2.45 70.4 6.35 65.15 12.8 61.9 16.8 58.6 19.6 59.75 20.35 61.15 21.85 63.6 24.5 65.3 27.8 67.2 31.5 67.2 34.5 67.2 37.6 66.9 38.1 65.85 39.7 61.15 39.7 54.0 39.7 48.6 37.9 45.4 36.85 43.8 35.45 L41.45 36.05 22.7 37.15 15.6 36.95 11.95 36.75 Q10.5 38.3 6.7 41.15 0.05 46.1 -3.85 46.1 -8.15 46.1 -9.0 42.2 -9.25 40.95 -9.1 39.45 L-8.95 38.1 Q-8.95 34.6 -7.65 31.25 L-21.45 31.4 -45.65 30.45 Q-46.25 32.55 -48.2 35.25 -51.45 39.7 -55.35 39.7 L-61.45 39.25 Q-63.8 37.2 -63.9 34.95 L-64.0 29.6 Q-64.0 26.5 -62.6 20.5 -60.7 12.3 -56.85 5.75 -56.1 4.45 -55.6 4.1 -55.15 3.75 -58.45 1.6 -61.75 -0.6 -63.2 -5.2 -64.7 -9.8 -64.65 -14.35 -64.65 -15.7 -63.35 -21.45 L-62.1 -27.05 Q-62.1 -29.5 -63.4 -31.2 -64.1 -32.15 -66.25 -33.75 -68.3 -35.35 -69.1 -36.55 -70.4 -38.5 -70.4 -41.25 -70.4 -44.9 -66.9 -45.8 -63.75 -46.65 -59.2 -45.0 -54.6 -43.3 -51.5 -40.0 -48.0 -36.3 -48.0 -31.95 -48.0 -28.2 -50.25 -23.9 -52.5 -19.6 -52.5 -18.55 -52.5 -15.9 -49.9 -10.6 L-47.35 -5.65 -47.4 -5.1 Q-37.5 -12.9 -22.4 -13.1 -9.55 -13.85 -3.65 -13.1 -4.7 -16.2 -5.4 -20.45 -6.4 -26.7 -6.4 -33.8 -6.4 -35.85 -5.95 -36.45 -5.5 -37.1 -4.15 -37.1 -1.9 -37.1 8.75 -31.05 18.95 -25.1 19.05 -25.1 M18.35 -12.95 Q20.45 -11.25 20.5 -7.7 20.45 -5.15 19.0 -3.15 17.1 -0.6 13.45 -0.6 9.4 -0.65 7.8 -5.3 7.05 -7.55 7.05 -9.55 7.05 -11.3 9.15 -12.65 11.15 -14.05 13.75 -14.2 16.55 -14.4 18.35 -12.95 M1.0 -9.0 L1.05 -9.15 1.1 -9.1 1.0 -9.0 M16.75 -7.75 Q16.75 -8.95 15.9 -9.8 15.0 -10.7 13.8 -10.7 12.6 -10.7 11.75 -9.8 10.85 -8.95 10.85 -7.75 10.85 -6.55 11.75 -5.65 12.6 -4.8 13.8 -4.8 15.0 -4.8 15.9 -5.65 16.75 -6.55 16.75 -7.75 M55.7 -9.4 Q55.7 -8.5 56.15 -7.35 L56.8 -5.35 60.35 -5.35 61.05 -6.55 Q61.45 -7.25 61.45 -8.2 61.45 -9.65 60.55 -10.55 59.15 -12.0 56.0 -10.6 L55.85 -10.45 Q55.65 -10.35 55.7 -9.4 M-51.85 -31.95 Q-51.85 -35.05 -54.1 -38.1 -57.2 -42.25 -62.7 -41.9 L-66.55 -41.9 Q-68.3 -40.3 -64.15 -37.2 L-59.85 -33.9 Q-58.25 -31.9 -58.25 -27.0 -58.25 -24.9 -59.5 -21.6 -60.8 -18.35 -61.1 -13.65 -61.45 -8.95 -58.8 -4.75 -56.15 -0.55 -55.0 -0.05 L-53.3 0.65 -50.2 -2.75 Q-50.95 -3.6 -52.65 -7.35 -56.05 -14.75 -56.3 -18.55 -56.35 -21.5 -54.1 -25.25 -51.85 -29.0 -51.85 -31.95 M48.75 2.5 Q50.55 0.2 50.55 5.05 50.55 7.65 49.75 9.65 48.7 12.2 46.75 12.2 45.55 12.15 42.95 10.85 L40.35 9.3 36.8 12.2 Q33.45 14.75 32.0 14.75 29.5 14.75 25.6 7.45 L25.65 6.4 25.75 5.8 Q25.95 5.6 26.2 5.45 L27.55 5.15 Q28.45 5.15 30.2 7.7 32.0 10.25 32.5 10.25 34.7 10.25 35.9 7.7 37.0 5.15 39.35 5.15 41.95 5.15 43.4 6.15 L45.75 7.85 Q47.8 3.6 48.75 2.5" fill="#000000" fill-rule="evenodd" stroke="none"/>
      <path d="M16.75 -7.75 Q16.75 -6.55 15.9 -5.65 15.0 -4.8 13.8 -4.8 12.6 -4.8 11.75 -5.65 10.85 -6.55 10.85 -7.75 10.85 -8.95 11.75 -9.8 12.6 -10.7 13.8 -10.7 15.0 -10.7 15.9 -9.8 16.75 -8.95 16.75 -7.75 M55.7 -9.4 Q55.65 -10.35 55.85 -10.45 L56.0 -10.6 Q59.15 -12.0 60.55 -10.55 61.45 -9.65 61.45 -8.2 61.45 -7.25 61.05 -6.55 L60.35 -5.35 56.8 -5.35 56.15 -7.35 Q55.7 -8.5 55.7 -9.4" fill="#ffffff" fill-rule="evenodd" stroke="none"/>
    </g>
  </defs>
</svg>
