<?xml version="1.0" encoding="UTF-8" standalone="no"?>
<svg xmlns:xlink="http://www.w3.org/1999/xlink" height="720.75px" width="1716.8px" xmlns="http://www.w3.org/2000/svg">
  <g transform="matrix(1, 0, 0, 1, 307.05, 450.35)">
    <use height="129.4" transform="matrix(1.0, 0.0, 0.0, 1.0, -71.05, -79.5)" width="120.4" xlink:href="#shape0"/>
  </g>
  <defs>
    <g id="shape0" transform="matrix(1, 0, 0, 1, 71.05, 79.5)">
      <path d="M44.35 -62.75 Q44.35 -61.2 35.85 -49.75 27.35 -38.25 27.35 -34.65 27.35 -29.8 30.8 -23.7 31.7 -22.05 38.35 -12.15 49.35 4.2 49.35 18.25 49.35 30.65 39.95 40.55 30.55 50.4 3.95 49.85 -22.7 49.25 -34.7 40.45 -46.75 31.65 -52.35 25.95 L-61.15 15.15 Q-65.45 9.55 -67.3 4.45 -69.2 -0.7 -70.65 -12.5 -71.65 -17.8 -70.1 -24.1 -68.55 -30.4 -58.65 -31.45 -48.75 -32.5 -42.35 -26.75 L-41.45 -25.9 Q-42.75 -32.0 -44.45 -41.95 -47.65 -61.0 -47.65 -65.25 -47.65 -67.65 -45.15 -69.5 L-45.1 -69.45 Q-43.1 -71.9 -39.6 -73.85 -28.9 -79.9 -9.65 -79.25 -10.8 -79.6 1.75 -79.5 14.3 -79.4 25.25 -75.05 36.2 -70.7 40.05 -68.15 42.9 -66.25 43.3 -65.4 43.85 -65.3 44.05 -65.05 44.35 -64.7 44.35 -62.75 M23.15 -28.2 Q22.35 -31.3 22.35 -34.15 22.35 -37.8 29.35 -51.0 L31.85 -55.45 Q22.85 -53.5 6.35 -53.5 -23.1 -53.5 -37.1 -58.75 -39.75 -59.75 -41.65 -60.8 -40.45 -55.85 -40.1 -49.2 -39.5 -38.4 -37.85 -27.6 L-37.4 -24.85 -36.4 -19.25 -36.65 -18.75 Q-37.9 -18.0 -39.15 -17.5 L-39.2 -17.6 -40.65 -17.5 Q-42.65 -17.5 -45.4 -22.2 -48.15 -26.9 -56.15 -26.8 -61.55 -26.75 -63.15 -25.65 -65.55 -24.65 -65.6 -8.25 -65.65 11.05 -39.6 29.5 -29.65 36.6 -18.4 41.0 -8.1 45.0 -1.75 45.0 44.35 45.0 44.35 18.0 44.35 11.05 40.9 3.65 38.75 -1.1 33.35 -9.1 27.7 -17.55 25.8 -21.35 24.75 -23.45 24.0 -25.45 L23.15 -28.2 M17.7 -72.9 L-5.9 -74.0 Q-30.4 -74.0 -35.8 -71.8 -37.55 -71.1 -39.25 -69.9 -41.0 -68.7 -40.65 -67.0 L-40.9 -66.25 Q-37.25 -64.25 -26.3 -62.05 -11.1 -59.0 6.0 -59.0 30.25 -59.0 35.15 -60.4 38.45 -61.15 37.95 -62.8 36.85 -64.1 38.35 -62.5 33.3 -70.85 17.7 -72.9 M-52.4 -17.5 Q-43.2 -17.5 -40.8 -9.35 L-40.8 18.2 -42.9 18.5 Q-47.0 18.5 -53.6 5.75 -57.0 0.8 -59.4 -7.0 -59.4 -17.5 -52.4 -17.5 M-54.4 -7.0 Q-54.45 -4.35 -51.3 1.6 -48.2 7.5 -45.9 9.5 L-45.4 9.5 -45.4 -7.5 Q-48.7 -11.9 -50.35 -11.75 L-53.25 -11.55 Q-54.5 -11.5 -54.6 -10.2 L-54.4 -7.0" fill="#000000" fill-rule="evenodd" stroke="none"/>
      <path d="M-37.85 -27.6 Q-35.85 -29.1 -30.1 -30.2 L-9.75 -32.75 -4.15 -32.9 Q3.9 -32.9 13.35 -30.95 19.55 -29.65 23.15 -28.2 L24.0 -25.45 Q20.85 -23.35 17.15 -22.9 14.95 -22.65 0.25 -22.65 -31.25 -22.8 -37.4 -24.85 L-37.85 -27.6 M-36.55 -26.45 L-36.5 -26.65 Q-36.65 -26.5 -36.75 -26.5 L-36.55 -26.45" fill="#ffffa2" fill-opacity="0.5019608" fill-rule="evenodd" stroke="none"/>
      <path d="M24.0 -25.45 Q24.75 -23.45 25.8 -21.35 27.7 -17.55 33.35 -9.1 38.75 -1.1 40.9 3.65 44.35 11.05 44.35 18.0 44.35 45.0 -1.75 45.0 -8.1 45.0 -18.4 41.0 -29.65 36.6 -39.6 29.5 -65.65 11.05 -65.6 -8.25 -65.55 -24.65 -63.15 -25.65 -61.55 -26.75 -56.15 -26.8 -48.15 -26.9 -45.4 -22.2 -42.65 -17.5 -40.65 -17.5 L-39.2 -17.6 -39.15 -17.5 Q-37.9 -18.0 -36.65 -18.75 L-36.4 -19.25 -37.4 -24.85 Q-31.25 -22.8 0.25 -22.65 14.95 -22.65 17.15 -22.9 20.85 -23.35 24.0 -25.45 M-52.4 -17.5 Q-59.4 -17.5 -59.4 -7.0 -57.0 0.8 -53.6 5.75 -47.0 18.5 -42.9 18.5 L-40.8 18.2 -40.8 -9.35 Q-43.2 -17.5 -52.4 -17.5" fill="#fefe56" fill-opacity="0.5019608" fill-rule="evenodd" stroke="none"/>
      <path d="M-37.85 -27.6 Q-39.5 -38.4 -40.1 -49.2 -40.45 -55.85 -41.65 -60.8 -39.75 -59.75 -37.1 -58.75 -23.1 -53.5 6.35 -53.5 22.85 -53.5 31.85 -55.45 L29.35 -51.0 Q22.35 -37.8 22.35 -34.15 22.35 -31.3 23.15 -28.2 19.55 -29.65 13.35 -30.95 3.9 -32.9 -4.15 -32.9 L-9.75 -32.75 -30.1 -30.2 Q-35.85 -29.1 -37.85 -27.6 M17.7 -72.9 Q33.3 -70.85 38.35 -62.5 36.85 -64.1 37.95 -62.8 38.45 -61.15 35.15 -60.4 30.25 -59.0 6.0 -59.0 -11.1 -59.0 -26.3 -62.05 -37.25 -64.25 -40.9 -66.25 L-40.65 -67.0 Q-41.0 -68.7 -39.25 -69.9 -37.55 -71.1 -35.8 -71.8 -30.4 -74.0 -5.9 -74.0 L17.7 -72.9" fill="#ffffff" fill-opacity="0.050980393" fill-rule="evenodd" stroke="none"/>
      <path d="M-30.4 -31.45 L-28.9 -32.45 Q-28.1 -34.55 -22.95 -38.2 -21.2 -39.4 -17.6 -40.1 -13.95 -40.8 -11.8 -40.2 L-10.75 -39.6 Q-10.8 -39.35 -10.4 -39.45 L-10.4 -39.5 -10.4 -39.45 -10.35 -39.45 -10.3 -39.25 -10.3 -39.2 -10.35 -39.35 Q-14.15 -36.75 -19.9 -31.7 L-20.0 -31.4 -25.15 -31.7 -26.65 -31.7 -28.7 -31.75 Q-29.0 -31.25 -30.4 -31.45" fill="#ffffff" fill-opacity="0.5019608" fill-rule="evenodd" stroke="none"/>
      <path d="M-16.0 -18.55 Q-16.55 -17.35 -26.55 -16.95 L-29.55 -28.25 Q-29.7 -29.35 -29.95 -29.7 L-30.4 -31.45 Q-29.0 -31.25 -28.7 -31.75 L-26.65 -31.7 -25.15 -31.7 -20.0 -31.4 -19.9 -31.7 -19.75 -31.45 -18.9 -29.4 -16.3 -20.2 -16.25 -19.9 -16.25 -19.25 -16.0 -18.55" fill="#eef9ff" fill-opacity="0.5019608" fill-rule="evenodd" stroke="none"/>
      <path d="M-10.3 -39.2 L-7.25 -25.15 Q-7.6 -24.3 -11.2 -21.5 L-15.25 -18.4 -15.85 -18.45 -16.0 -18.55 -16.25 -19.25 -16.25 -19.9 -16.1 -20.25 -16.3 -20.2 -18.9 -29.4 -19.75 -31.45 -19.9 -31.7 Q-14.15 -36.75 -10.35 -39.35 L-10.3 -39.2" fill="#ddf5ff" fill-opacity="0.5019608" fill-rule="evenodd" stroke="none"/>
      <path d="M-10.15 -39.6 L-9.75 -39.8 -10.15 -39.6" fill="#eaeaea" fill-rule="evenodd" stroke="none"/>
      <path d="M3.55 -31.65 L3.45 -31.65 3.2 -31.6 0.9 -36.2 0.15 -37.55 Q-0.8 -38.0 -0.85 -39.25 -1.5 -39.3 -1.95 -40.65 -0.8 -39.8 -0.35 -39.85 1.9 -40.2 7.6 -37.5 9.5 -36.6 11.95 -33.85 14.35 -31.05 14.9 -28.9 L14.9 -27.7 Q14.7 -27.6 15.0 -27.3 L15.05 -27.25 14.9 -27.1 14.8 -27.1 14.9 -27.2 Q10.75 -29.15 3.55 -31.65" fill="#ffffff" fill-opacity="0.5019608" fill-rule="evenodd" stroke="none"/>
      <path d="M-5.9 -21.7 Q-7.3 -21.6 -12.6 -30.05 L-4.35 -38.25 Q-3.45 -38.95 -3.25 -39.35 L-1.95 -40.65 Q-1.5 -39.3 -0.85 -39.25 -0.8 -38.0 0.15 -37.55 L0.9 -36.2 3.2 -31.6 3.45 -31.65 3.55 -31.65 3.35 -31.35 2.05 -29.65 -4.65 -22.75 -4.85 -22.55 -5.5 -22.3 -5.9 -21.7" fill="#eef9ff" fill-opacity="0.5019608" fill-rule="evenodd" stroke="none"/>
      <path d="M-5.9 -21.7 L-5.5 -22.3 -4.85 -22.55 -4.55 -22.65 -4.65 -22.75 2.05 -29.65 3.35 -31.35 3.55 -31.65 Q10.75 -29.15 14.9 -27.2 L14.8 -27.1 4.15 -17.35 Q3.2 -17.3 -1.0 -19.0 L-5.75 -20.95 -5.95 -21.45 -5.9 -21.7" fill="#ddf5ff" fill-opacity="0.5019608" fill-rule="evenodd" stroke="none"/>
      <path d="M15.2 -27.1 L15.6 -26.9 15.2 -27.1" fill="#eaeaea" fill-rule="evenodd" stroke="none"/>
    </g>
  </defs>
</svg>
