<?xml version="1.0" encoding="UTF-8" standalone="no"?>
<svg xmlns:xlink="http://www.w3.org/1999/xlink" height="720.75px" width="1716.8px" xmlns="http://www.w3.org/2000/svg">
  <g transform="matrix(1, 0, 0, 1, 307.05, 450.35)">
    <use height="260.45" transform="matrix(1.0, 0.0, 0.0, 1.0, -59.5, -94.05)" width="1469.25" xlink:href="#sprite0"/>
  </g>
  <defs>
    <g id="sprite0" transform="matrix(1, 0, 0, 1, 489.65, 89.5)">
      <use height="171.95" transform="matrix(0.9984, -0.0075, 0.0075, 0.9984, -489.6575, -82.1984)" width="979.6" xlink:href="#sprite1"/>
    </g>
    <g id="sprite1" transform="matrix(1, 0, 0, 1, 0.0, 1.0)">
      <use height="171.95" transform="matrix(1.0, 0.0, 0.0, 1.0, 0.0, -1.0)" width="979.6" xlink:href="#shape0"/>
      <use height="127.8" transform="matrix(1.0, 0.0, 0.0, 1.0, 20.8, 23.45)" width="943.8" xlink:href="#sprite2"/>
    </g>
    <g id="shape0" transform="matrix(1, 0, 0, 1, 0.0, 1.0)">
      <path d="M21.5 40.4 Q41.15 22.85 68.2 21.3 L942.1 -1.0 Q1017.15 79.3 942.1 170.95 L68.2 152.55 Q41.15 151.0 21.5 133.45 0.0 114.2 0.0 86.9 0.0 59.65 21.5 40.4" fill="#ff0000" fill-opacity="0.8" fill-rule="evenodd" stroke="none"/>
    </g>
    <g id="sprite2" transform="matrix(1, 0, 0, 1, 0.0, -2.8)">
      <use height="127.75" transform="matrix(1.0, 0.0, 0.0, 1.0, 0.0, 2.8)" width="943.8" xlink:href="#sprite3"/>
    </g>
    <g id="sprite3" transform="matrix(1, 0, 0, 1, 0.0, -2.85)">
      <use height="127.75" transform="matrix(1.0, 0.0, 0.0, 1.0, 0.0, 2.85)" width="943.8" xlink:href="#shape1"/>
    </g>
    <g id="shape1" transform="matrix(1, 0, 0, 1, 0.0, -2.85)">
      <path d="M910.4 130.6 L60.7 113.4 Q36.6 112.25 19.15 99.2 0.0 84.9 0.0 64.6 0.0 44.35 19.15 30.05 36.6 17.0 60.7 15.85 L910.4 2.85 Q977.25 62.5 910.4 130.6" fill="#ffffff" fill-opacity="0.9529412" fill-rule="evenodd" stroke="none"/>
    </g>
  </defs>
</svg>
