<?xml version="1.0" encoding="utf-8"?>
<!-- Generator: flash2svg, http://dissentgraphics.com/tools/flash2svg -->
<svg xmlns:xlink="http://www.w3.org/1999/xlink" id="sprite.__20250.__20(Wings).__2F108" image-rendering="optimizeSpeed" baseProfile="basic" version="1.1" style="background-color:#ffffff" x="0px" y="0px" width="550px" height="400px" viewBox="0 0 550 400" enable-background="new 0 0 550 400" xmlns="http://www.w3.org/2000/svg">
  <defs transform="matrix(1 0 0 1 0 0) "/>
  <g id="sprite.__20250.__20(Wings).__2F108">
    <g id="Layer.__213">
      <g id="Graphic.__2Fshape.__20225_1" overflow="visible">
        <g id="Layer.__296">
          <g id="shape1386">
            <path id="path1784" fill="none" stroke="#8B7DC6" stroke-opacity="1" stroke-width="5" stroke-linecap="round" stroke-linejoin="round" d="M227.8,199.8 C229.15,196.35 229,192.85 227.4,189.4 Q225.5,185.3 221.05,183.85 L276.5,170.8 276.55,170.75"/>
            <path id="path1785" fill="none" stroke="#EEEEF7" stroke-opacity="1" stroke-width="3" stroke-linecap="round" stroke-linejoin="round" d="M276.55,170.75 C283.7,171.15 290.7,169.65 297.6,166.3 296.05,181.35 287.8,192.95 272.9,201.2 L287.2,207.5 C282.25,215.9 275.85,221.1 268,223.15 L278.95,243.5 C268.1,246.8 253.5,243.95 235.15,235 236.2,240.55 234.85,245.8 231.05,250.8 L219.3,240 C218.65,246.6 215.55,252.85 209.9,258.7 201.8,256.95 194.3,252.9 187.45,246.55 L183,258.3 C167.65,249.4 156.55,236.95 149.65,220.95"/>
            <path id="path1786" fill="none" stroke="#8B7DC6" stroke-opacity="1" stroke-width="5" stroke-linecap="round" stroke-linejoin="round" d="M149.65,220.95 C167.35,207.6 185.1,197.35 202.95,190.15 200.4,194.2 200,197.95 201.65,201.5 202.65,203.65 203.95,205.3 205.55,206.5 206.6,207.3 207.85,207.9 209.2,208.3 212.55,209.25 216.1,209.05 219.85,207.6 223.6,206.15 226.25,203.65 227.7,200.1"/>
            <path id="path1787" fill="none" stroke="#8F4E62" stroke-opacity="1" stroke-width="5" stroke-linecap="round" stroke-linejoin="round" d="M227.7,200.1 L227.8,199.8"/>
            <path id="path1788" fill="#EAE8F4" fill-opacity="1" d="M221.05,183.85 Q225.5,185.3 227.4,189.4 C229,192.85 229.15,196.35 227.8,199.8 L227.9,199.9 L253.35,225.45 L227.9,199.9 227.7,200.1 C226.25,203.65 223.6,206.15 219.85,207.6 216.1,209.05 212.55,209.25 209.2,208.3 207.85,207.9 206.6,207.3 205.55,206.5 L196.15,244.2 L205.55,206.5 C203.95,205.3 202.65,203.65 201.65,201.5 200,197.95 200.4,194.2 202.95,190.15 185.1,197.35 167.35,207.6 149.65,220.95 156.55,236.95 167.65,249.4 183,258.3 L187.45,246.55 C194.3,252.9 201.8,256.95 209.9,258.7 215.55,252.85 218.65,246.6 219.3,240 L231.05,250.8 C234.85,245.8 236.2,240.55 235.15,235 253.5,243.95 268.1,246.8 278.95,243.5 L268,223.15 C275.85,221.1 282.25,215.9 287.2,207.5 L272.9,201.2 C287.8,192.95 296.05,181.35 297.6,166.3 290.7,169.65 283.7,171.15 276.55,170.75 L276.5,170.8 221.05,183.85z M22.5,165.65 L22.5,165.6 C15.35,165.6 8.4,163.75 1.7,160 2.45,175.15 10.05,187.2 24.55,196.2 L9.9,201.75 C14.35,210.4 20.45,215.95 28.25,218.4 L16.25,238.15 C26.85,242 41.6,239.95 60.45,232 59.1,237.45 60.2,242.8 63.75,248 L76.05,237.85 C76.3,244.5 79.1,250.9 84.45,257.05 92.6,255.7 100.3,252.05 107.55,246.05 L111.35,258.1 C127.1,250 138.9,238.15 146.7,222.5 129.65,208.25 112.45,197.05 95,188.9 97.35,193.05 97.6,196.8 95.75,200.25 94.6,202.35 93.2,203.95 91.55,205.1 L98.95,243.3 L91.55,205.1 C90.4,205.85 89.2,206.35 87.85,206.65 84.4,207.45 80.85,207.05 77.2,205.45 73.5,203.8 71,201.15 69.75,197.5 L69.6,197.3 L42.75,221.5 L69.6,197.3 69.7,197.2 C68.55,193.65 68.85,190.2 70.65,186.85 72.05,184.2 74.25,182.45 77.3,181.65 L22.5,165.65z M69.7,197.2 L69.75,197.5 69.6,197.3 69.7,197.2z"/>
            <path id="path1789" fill="none" stroke="#8B7DC6" stroke-opacity="1" stroke-width="5" stroke-linecap="round" stroke-linejoin="round" d="M276.55,170.75 L276.5,170.8 221.05,183.85 Q225.5,185.3 227.4,189.4 C229,192.85 229.15,196.35 227.8,199.8"/>
            <path id="path1790" fill="none" stroke="#8F4E62" stroke-opacity="1" stroke-width="5" stroke-linecap="round" stroke-linejoin="round" d="M227.8,199.8 L227.9,199.9"/>
            <path id="path1791" fill="none" stroke="#8B7DC6" stroke-opacity="1" stroke-width="5" stroke-linecap="round" stroke-linejoin="round" d="M253.35,225.45 L227.9,199.9"/>
            <path id="path1792" fill="none" stroke="#8B7DC6" stroke-opacity="1" stroke-width="5" stroke-linecap="round" stroke-linejoin="round" d="M227.7,200.1 C226.25,203.65 223.6,206.15 219.85,207.6 216.1,209.05 212.55,209.25 209.2,208.3 207.85,207.9 206.6,207.3 205.55,206.5 L196.15,244.2 L205.55,206.5 C203.95,205.3 202.65,203.65 201.65,201.5 200,197.95 200.4,194.2 202.95,190.15 185.1,197.35 167.35,207.6 149.65,220.95"/>
            <path id="path1793" fill="none" stroke="#EEEEF7" stroke-opacity="1" stroke-width="3" stroke-linecap="round" stroke-linejoin="round" d="M149.65,220.95 C156.55,236.95 167.65,249.4 183,258.3 L187.45,246.55 C194.3,252.9 201.8,256.95 209.9,258.7 215.55,252.85 218.65,246.6 219.3,240 L231.05,250.8 C234.85,245.8 236.2,240.55 235.15,235 253.5,243.95 268.1,246.8 278.95,243.5 L268,223.15 C275.85,221.1 282.25,215.9 287.2,207.5 L272.9,201.2 C287.8,192.95 296.05,181.35 297.6,166.3 290.7,169.65 283.7,171.15 276.55,170.75"/>
            <path id="path1794" fill="none" stroke="#8F4E62" stroke-opacity="1" stroke-width="5" stroke-linecap="round" stroke-linejoin="round" d="M227.9,199.9 L227.8,199.8 227.7,200.1"/>
            <path id="path1795" fill="none" stroke="#8B7DC6" stroke-opacity="1" stroke-width="5" stroke-linecap="round" stroke-linejoin="round" d="M22.5,165.6 L22.5,165.65 77.3,181.65 C74.25,182.45 72.05,184.2 70.65,186.85 68.85,190.2 68.55,193.65 69.7,197.2"/>
            <path id="path1796" fill="none" stroke="#8F4E62" stroke-opacity="1" stroke-width="5" stroke-linecap="round" stroke-linejoin="round" d="M69.7,197.2 L69.75,197.5"/>
            <path id="path1797" fill="none" stroke="#8B7DC6" stroke-opacity="1" stroke-width="5" stroke-linecap="round" stroke-linejoin="round" d="M69.75,197.5 C71,201.15 73.5,203.8 77.2,205.45 80.85,207.05 84.4,207.45 87.85,206.65 89.2,206.35 90.4,205.85 91.55,205.1 93.2,203.95 94.6,202.35 95.75,200.25 97.6,196.8 97.35,193.05 95,188.9 112.45,197.05 129.65,208.25 146.7,222.5"/>
            <path id="path1798" fill="none" stroke="#EEEEF7" stroke-opacity="1" stroke-width="3" stroke-linecap="round" stroke-linejoin="round" d="M146.7,222.5 C138.9,238.15 127.1,250 111.35,258.1 L107.55,246.05 C100.3,252.05 92.6,255.7 84.45,257.05 79.1,250.9 76.3,244.5 76.05,237.85 L63.75,248 C60.2,242.8 59.1,237.45 60.45,232 41.6,239.95 26.85,242 16.25,238.15 L28.25,218.4 C20.45,215.95 14.35,210.4 9.9,201.75 L24.55,196.2 C10.05,187.2 2.45,175.15 1.7,160 8.4,163.75 15.35,165.6 22.5,165.6"/>
            <path id="path1799" fill="none" stroke="#8B7DC6" stroke-opacity="1" stroke-width="5" stroke-linecap="round" stroke-linejoin="round" d="M69.7,197.2 C68.55,193.65 68.85,190.2 70.65,186.85 72.05,184.2 74.25,182.45 77.3,181.65 L22.5,165.65 L22.5,165.6"/>
            <path id="path1800" fill="none" stroke="#EEEEF7" stroke-opacity="1" stroke-width="3" stroke-linecap="round" stroke-linejoin="round" d="M22.5,165.6 C15.35,165.6 8.4,163.75 1.7,160 2.45,175.15 10.05,187.2 24.55,196.2 L9.9,201.75 C14.35,210.4 20.45,215.95 28.25,218.4 L16.25,238.15 C26.85,242 41.6,239.95 60.45,232 59.1,237.45 60.2,242.8 63.75,248 L76.05,237.85 C76.3,244.5 79.1,250.9 84.45,257.05 92.6,255.7 100.3,252.05 107.55,246.05 L111.35,258.1 C127.1,250 138.9,238.15 146.7,222.5"/>
            <path id="path1801" fill="none" stroke="#8B7DC6" stroke-opacity="1" stroke-width="5" stroke-linecap="round" stroke-linejoin="round" d="M146.7,222.5 C129.65,208.25 112.45,197.05 95,188.9 97.35,193.05 97.6,196.8 95.75,200.25 94.6,202.35 93.2,203.95 91.55,205.1 L98.95,243.3 L91.55,205.1 C90.4,205.85 89.2,206.35 87.85,206.65 84.4,207.45 80.85,207.05 77.2,205.45 73.5,203.8 71,201.15 69.75,197.5"/>
            <path id="path1802" fill="none" stroke="#8B7DC6" stroke-opacity="1" stroke-width="5" stroke-linecap="round" stroke-linejoin="round" d="M42.75,221.5 L69.6,197.3"/>
            <path id="path1803" fill="none" stroke="#8F4E62" stroke-opacity="1" stroke-width="5" stroke-linecap="round" stroke-linejoin="round" d="M69.6,197.3 L69.7,197.2"/>
            <path id="path1804" fill="none" stroke="#8F4E62" stroke-opacity="1" stroke-width="5" stroke-linecap="round" stroke-linejoin="round" d="M69.75,197.5 L69.7,197.2 L69.6,197.3"/>
          </g>
        </g>
      </g>
    </g>
  </g>
</svg>