<?xml version="1.0" encoding="utf-8"?>
<!-- Generator: flash2svg, http://dissentgraphics.com/tools/flash2svg -->
<svg xmlns:xlink="http://www.w3.org/1999/xlink" id="sprite.__20250.__20(Wings).__2F13" image-rendering="optimizeSpeed" baseProfile="basic" version="1.1" style="background-color:#ffffff" x="0px" y="0px" width="550px" height="400px" viewBox="0 0 550 400" enable-background="new 0 0 550 400" xmlns="http://www.w3.org/2000/svg">
  <defs transform="matrix(1 0 0 1 0 0) "/>
  <g id="sprite.__20250.__20(Wings).__2F13">
    <g id="Layer.__214">
      <g id="Graphic.__2Fshape.__2113_1" overflow="visible">
        <g id="Layer.__279">
          <g id="shape599">
            <path id="path751" fill="#000000" fill-opacity="1" d="M129.05,230.25 L123.35,230.6 C122.85,229.55 122,229.05 120.85,229.05 120.2,229.05 119.15,230.5 117.7,233.35 L112,245.25 C104.9,259.85 97.1,273.2 88.65,285.25 86.65,288.1 82.3,297.15 75.6,312.4 68.55,328.45 65.05,337.9 65.05,340.75 65.05,343.35 66.05,344.65 68.05,344.65 68.25,344.65 68.85,343.6 69.8,341.45 70.05,341.65 70.3,341.8 70.65,341.9 L76.45,342.25 C80,342.25 83.35,341.65 86.4,340.45 L94.2,336.45 C101.15,332.6 108.7,330.65 116.75,330.65 128.4,330.65 140.15,332.3 151.9,335.65 L164.65,339.1 C169.35,340.15 173.95,340.65 178.45,340.65 187.8,340.65 193.85,339.75 196.7,337.95 L198.8,336.1 C199.35,335.55 200.1,335.25 201.05,335.25 204.75,335.25 206.85,336.4 207.35,338.75 L207.95,341.15 C208.35,341.9 209.15,342.25 210.35,342.25 212,342.25 213,341.6 213.35,340.35 L213.35,338.25 213.3,337.2 213.35,333.45 C213.35,327.8 212.55,323.8 211,321.35 L198.65,307.25 C195.5,303.7 192.85,299.25 190.75,294 188.7,288 186.9,283.4 185.45,280.25 184.6,278.5 180.4,268 172.8,248.85 167.1,234.6 163.65,227.45 162.45,227.45 161.7,227.45 161.1,227.6 160.65,227.9 160,227.6 159.1,227.45 158.05,227.45 156.7,227.45 154.45,228 151.25,229.05 L129.05,230.25z M125.65,236.65 L153.7,235.7 C154.45,235.55 154.95,235.25 155.3,234.8 155.65,234.35 156.4,234.05 157.45,233.85 L159.75,233.25 C160.7,236.05 163.65,243.3 168.65,255 175.85,271.75 180.2,282.1 181.65,286.05 185.45,296.35 190,305.35 195.25,313.05 L204.2,329.2 202.05,329.05 C199.7,329.05 198.15,329.3 197.3,329.85 196.75,330.2 196.2,330.8 195.55,331.65 193.65,333.4 187.95,334.25 178.45,334.25 172.25,334.25 162.8,332.9 150.1,330.15 135.4,326.95 125.9,325.1 121.65,324.65 L116.45,324.25 C106.2,324.25 99.55,325.15 96.4,326.9 95.55,327.4 94.55,328.25 93.45,329.45 92.4,330.6 91.3,331.5 90.25,332.05 84.1,335.35 78.55,337.15 73.5,337.5 L71.45,337.65 77.75,322.2 C84.4,305.5 89.7,294.45 93.65,289.05 102.2,277.5 108.4,268.6 112.25,262.3 118.85,251.55 122.65,243 123.6,236.65 L125.65,236.65z"/>
            <path id="path752" fill="#550000" fill-opacity="1" d="M125.65,236.65 L123.6,236.65 C122.65,243 118.85,251.55 112.25,262.3 108.4,268.6 102.2,277.5 93.65,289.05 89.7,294.45 84.4,305.5 77.75,322.2 L71.45,337.65 73.5,337.5 C78.55,337.15 84.1,335.35 90.25,332.05 91.3,331.5 92.4,330.6 93.45,329.45 94.55,328.25 95.55,327.4 96.4,326.9 99.55,325.15 106.2,324.25 116.45,324.25 L121.65,324.65 C125.9,325.1 135.4,326.95 150.1,330.15 162.8,332.9 172.25,334.25 178.45,334.25 187.95,334.25 193.65,333.4 195.55,331.65 196.2,330.8 196.75,330.2 197.3,329.85 198.15,329.3 199.7,329.05 202.05,329.05 L204.2,329.2 195.25,313.05 C190,305.35 185.45,296.35 181.65,286.05 180.2,282.1 175.85,271.75 168.65,255 163.65,243.3 160.7,236.05 159.75,233.25 L157.45,233.85 C156.4,234.05 155.65,234.35 155.3,234.8 154.95,235.25 154.45,235.55 153.7,235.7 L125.65,236.65z"/>
          </g>
        </g>
      </g>
    </g>
  </g>
</svg>