<?xml version="1.0" encoding="utf-8"?>
<!-- Generator: flash2svg, http://dissentgraphics.com/tools/flash2svg -->
<svg xmlns:xlink="http://www.w3.org/1999/xlink" id="sprite.__20250.__20(Wings).__2F135" image-rendering="optimizeSpeed" baseProfile="basic" version="1.1" style="background-color:#ffffff" x="0px" y="0px" width="550px" height="400px" viewBox="0 0 550 400" enable-background="new 0 0 550 400" xmlns="http://www.w3.org/2000/svg">
  <defs transform="matrix(1 0 0 1 0 0) ">
    <linearGradient gradientUnits="userSpaceOnUse" color-interpolation="sRGB" x1="97.801" y1="183" x2="97.801" y2="323.7" id="linearGradient64">
      <stop stop-color="#780000" stop-opacity="1" offset="0"/>
      <stop stop-color="#2C0000" stop-opacity="1" offset="1"/>
    </linearGradient>
  </defs>
  <g id="sprite.__20250.__20(Wings).__2F135">
    <g id="Layer.__225">
      <g id="MovieClip.__2Fsprite.__20244_1" overflow="visible">
        <g id="Layer.__748">
          <g id="Graphic.__2Fshape.__20270_17" overflow="visible">
            <g id="Layer.__749">
              <g id="shape969">
                <path id="path3868" fill="none" stroke="#B30000" stroke-opacity="1" stroke-width="3" stroke-linecap="round" stroke-linejoin="round" d="M254.45,233.8 Q279.05,199.8 266.95,178.8 C258.85,164.8 240.9,159.25 213.05,162.1 185.2,164.95 155.65,175.45 124.4,193.5 93.05,211.55 69.2,231.95 52.8,254.6 36.45,277.3 32.3,295.65 40.35,309.65 48.4,323.6 66.35,329.15 94.2,326.3 122.05,323.45 151.6,313 182.95,294.95 214.2,276.85 238.05,256.45 254.45,233.8z"/>
              </g>
            </g>
            <g id="Layer.__750">
              <g id="shape970">
                <path id="path3869" fill="none" stroke="#000000" stroke-opacity="1" stroke-width="2" stroke-linecap="round" stroke-linejoin="round" d="M199.45,152.95 L233.7,152.95 245.95,160.2 245.95,166.45 224.95,178.45 188.2,177.2 180.15,169.45 180.15,159.7 199.45,152.95z"/>
                <path id="path3870" fill="#262626" fill-opacity="1" d="M224.95,178.45 L224.95,171.7 188.2,170.2 188.2,177.2 224.95,178.45z M204.9,173.05 C205.25,173.05 205.5,173.15 205.75,173.4 206,173.65 206.15,173.95 206.15,174.3 206.15,174.65 206,174.9 205.75,175.15 205.5,175.4 205.25,175.55 204.9,175.55 204.55,175.55 204.25,175.4 204,175.15 203.75,174.9 203.65,174.65 203.65,174.3 203.65,173.95 203.75,173.65 204,173.4 Q204.4,173.05 204.9,173.05z M207.8,174.3 C207.8,173.95 207.9,173.65 208.15,173.4 208.4,173.15 208.7,173.05 209.05,173.05 L209.9,173.4 C210.15,173.65 210.3,173.95 210.3,174.3 210.3,174.65 210.15,174.9 209.9,175.15 209.65,175.4 209.4,175.55 209.05,175.55 208.7,175.55 208.4,175.4 208.15,175.15 207.9,174.9 207.8,174.65 207.8,174.3z M212.65,173.9 L213.55,173.55 214.4,173.9 C214.65,174.15 214.8,174.45 214.8,174.8 214.8,175.15 214.65,175.4 214.4,175.65 214.15,175.9 213.9,176.05 213.55,176.05 213.2,176.05 212.9,175.9 212.65,175.65 212.4,175.4 212.3,175.15 212.3,174.8 212.3,174.45 212.4,174.15 212.65,173.9z M196.9,174.8 C196.65,175.05 196.4,175.2 196.05,175.2 195.7,175.2 195.4,175.05 195.15,174.8 194.9,174.55 194.8,174.3 194.8,173.95 194.8,173.6 194.9,173.3 195.15,173.05 195.4,172.8 195.7,172.7 196.05,172.7 196.4,172.7 196.65,172.8 196.9,173.05 197.15,173.3 197.3,173.6 197.3,173.95 197.3,174.3 197.15,174.55 196.9,174.8z M200.55,172.7 C200.9,172.7 201.15,172.8 201.4,173.05 L201.8,173.95 C201.8,174.3 201.65,174.55 201.4,174.8 201.15,175.05 200.9,175.2 200.55,175.2 200.2,175.2 199.9,175.05 199.65,174.8 199.4,174.55 199.3,174.3 199.3,173.95 199.3,173.6 199.4,173.3 199.65,173.05 199.9,172.8 200.2,172.7 200.55,172.7z M218.9,173.9 C219.15,174.15 219.3,174.45 219.3,174.8 219.3,175.15 219.15,175.4 218.9,175.65 218.65,175.9 218.4,176.05 218.05,176.05 217.7,176.05 217.4,175.9 217.15,175.65 216.9,175.4 216.8,175.15 216.8,174.8 216.8,174.45 216.9,174.15 217.15,173.9 217.4,173.65 217.7,173.55 218.05,173.55 218.4,173.55 218.65,173.65 218.9,173.9z M191.55,172.7 C191.9,172.7 192.15,172.8 192.4,173.05 L192.8,173.95 C192.8,174.3 192.65,174.55 192.4,174.8 192.15,175.05 191.9,175.2 191.55,175.2 191.2,175.2 190.9,175.05 190.65,174.8 190.4,174.55 190.3,174.3 190.3,173.95 190.3,173.6 190.4,173.3 190.65,173.05 190.9,172.8 191.2,172.7 191.55,172.7z"/>
                <path id="path3871" fill="none" stroke="#000000" stroke-opacity="1" stroke-width="2" stroke-linecap="round" stroke-linejoin="round" d="M224.95,178.45 L224.95,171.7 188.2,170.2 188.2,177.2 224.95,178.45z"/>
                <path id="path3872" fill="#FFEF66" fill-opacity="1" d="M204.9,173.05 Q204.4,173.05 204,173.4 C203.75,173.65 203.65,173.95 203.65,174.3 203.65,174.65 203.75,174.9 204,175.15 204.25,175.4 204.55,175.55 204.9,175.55 205.25,175.55 205.5,175.4 205.75,175.15 206,174.9 206.15,174.65 206.15,174.3 206.15,173.95 206,173.65 205.75,173.4 205.5,173.15 205.25,173.05 204.9,173.05z"/>
                <path id="path3873" fill="#FFEF66" fill-opacity="1" d="M207.8,174.3 C207.8,174.65 207.9,174.9 208.15,175.15 208.4,175.4 208.7,175.55 209.05,175.55 209.4,175.55 209.65,175.4 209.9,175.15 210.15,174.9 210.3,174.65 210.3,174.3 210.3,173.95 210.15,173.65 209.9,173.4 L209.05,173.05 C208.7,173.05 208.4,173.15 208.15,173.4 207.9,173.65 207.8,173.95 207.8,174.3z"/>
                <path id="path3874" fill="#FFEF66" fill-opacity="1" d="M212.65,173.9 C212.4,174.15 212.3,174.45 212.3,174.8 212.3,175.15 212.4,175.4 212.65,175.65 212.9,175.9 213.2,176.05 213.55,176.05 213.9,176.05 214.15,175.9 214.4,175.65 214.65,175.4 214.8,175.15 214.8,174.8 214.8,174.45 214.65,174.15 214.4,173.9 L213.55,173.55 212.65,173.9z"/>
                <path id="path3875" fill="#FFEF66" fill-opacity="1" d="M196.9,174.8 C197.15,174.55 197.3,174.3 197.3,173.95 197.3,173.6 197.15,173.3 196.9,173.05 196.65,172.8 196.4,172.7 196.05,172.7 195.7,172.7 195.4,172.8 195.15,173.05 194.9,173.3 194.8,173.6 194.8,173.95 194.8,174.3 194.9,174.55 195.15,174.8 195.4,175.05 195.7,175.2 196.05,175.2 196.4,175.2 196.65,175.05 196.9,174.8z"/>
                <path id="path3876" fill="#FFEF66" fill-opacity="1" d="M200.55,172.7 C200.2,172.7 199.9,172.8 199.65,173.05 199.4,173.3 199.3,173.6 199.3,173.95 199.3,174.3 199.4,174.55 199.65,174.8 199.9,175.05 200.2,175.2 200.55,175.2 200.9,175.2 201.15,175.05 201.4,174.8 201.65,174.55 201.8,174.3 201.8,173.95 L201.4,173.05 C201.15,172.8 200.9,172.7 200.55,172.7z"/>
                <path id="path3877" fill="#FFEF66" fill-opacity="1" d="M218.9,173.9 C218.65,173.65 218.4,173.55 218.05,173.55 217.7,173.55 217.4,173.65 217.15,173.9 216.9,174.15 216.8,174.45 216.8,174.8 216.8,175.15 216.9,175.4 217.15,175.65 217.4,175.9 217.7,176.05 218.05,176.05 218.4,176.05 218.65,175.9 218.9,175.65 219.15,175.4 219.3,175.15 219.3,174.8 219.3,174.45 219.15,174.15 218.9,173.9z M222.6,174.2 C222.35,173.95 222.1,173.85 221.75,173.85 221.4,173.85 221.1,173.95 220.85,174.2 L220.75,174.3 220.5,175.1 C220.5,175.45 220.6,175.7 220.85,175.95 221.1,176.2 221.4,176.35 221.75,176.35 222.05,176.35 222.3,176.25 222.5,176.1 L222.475,176.075 L222.5,176.05 222.6,175.95 C222.85,175.7 223,175.45 223,175.1 223,174.75 222.85,174.45 222.6,174.2z M220.75,174.3 L220.5,175.1 C220.5,175.45 220.6,175.7 220.85,175.95 221.1,176.2 221.4,176.35 221.75,176.35 222.05,176.35 222.3,176.25 222.5,176.1 L222.475,176.075 L222.4,176.15 C222.15,176.4 221.9,176.55 221.55,176.55 221.2,176.55 220.9,176.4 220.65,176.15 220.4,175.9 220.3,175.65 220.3,175.3 220.3,174.95 220.4,174.65 220.65,174.4 L220.75,174.3z"/>
                <path id="path3878" fill="#FFEF66" fill-opacity="1" d="M191.55,172.7 C191.2,172.7 190.9,172.8 190.65,173.05 190.4,173.3 190.3,173.6 190.3,173.95 190.3,174.3 190.4,174.55 190.65,174.8 190.9,175.05 191.2,175.2 191.55,175.2 191.9,175.2 192.15,175.05 192.4,174.8 192.65,174.55 192.8,174.3 192.8,173.95 L192.4,173.05 C192.15,172.8 191.9,172.7 191.55,172.7z"/>
                <path id="path3879" fill="#262626" fill-opacity="1" d="M224.95,171.7 L224.95,178.45 245.95,166.45 245.95,160.2 224.95,171.7z M188.2,177.2 L188.2,170.2 180.15,159.7 180.15,169.45 188.2,177.2z M290.8,189.2 L290.8,184.65 265.95,183.65 265.95,188.35 290.8,189.2z M279.75,186.4 L279.9,186.45 280,186.55 280.1,186.65 280.2,186.8 280.2,186.9 C280.1,187.15 279.9,187.2 279.65,187.15 279.4,187.1 279.35,187 279.4,186.75 L279.55,186.45 279.75,186.4z M277.35,186.7 L277,186.85 276.8,186.85 276.65,186.65 C276.6,186.6 276.55,186.5 276.6,186.4 L276.8,186.1 277,186.05 277.4,186.2 C277.5,186.35 277.5,186.55 277.35,186.7z M282.35,187 L282.35,186.85 282.5,186.55 282.75,186.4 283,186.4 283.15,186.45 283.3,186.65 283.3,186.7 283.25,186.9 282.9,187.25 282.35,187.1 282.35,187z M288.8,187.15 L288.65,187.6 C288.5,187.7 288.35,187.7 288.2,187.6 L288.1,187.5 288.1,187.3 288.15,187.05 288.5,186.8 288.8,187.15z M285.95,186.6 L286.15,186.7 286.3,186.9 286.3,186.95 286.25,187.05 286.1,187.2 C285.85,187.35 285.6,187.3 285.4,187.1 L285.35,187 285.35,186.9 285.35,186.85 285.55,186.65 285.75,186.55 285.95,186.6z M269.5,185.8 L269.75,185.8 269.9,185.85 270.05,186.05 270.05,186.15 270,186.4 269.65,186.65 C269.5,186.7 269.35,186.65 269.2,186.5 L269.2,186.3 269.15,186.15 269.3,185.85 269.5,185.8z M274.3,186.95 L273.9,186.85 273.85,186.75 273.85,186.65 273.9,186.45 274.05,186.2 274.25,186.15 274.55,186.45 C274.6,186.7 274.5,186.85 274.3,186.95z M271.45,186.75 L271.45,186.55 271.55,186.25 C271.6,186.1 271.75,186.05 271.9,186.05 L272.2,186.4 272.05,186.8 271.55,186.85 271.45,186.75z M290.8,184.65 L290.8,189.2 305,181.1 305,176.85 290.8,184.65z M265.95,188.35 L265.95,183.65 260.5,176.55 260.5,183.15 265.95,188.35z M254.85,221.5 L254.85,225.8 257.5,229.2 257.5,226.15 254.85,221.5z M257.5,226.15 L257.5,229.2 269.65,229.75 269.65,226.8 257.5,226.15z M264.15,227.8 L264.4,227.65 264.55,227.7 264.7,227.8 264.85,227.9 264.95,228.05 264.95,228.15 264.65,228.4 C264.3,228.45 264.1,228.35 264.05,228.05 L264.15,227.8z M262.7,228.05 L262.4,228.55 261.85,228.5 261.8,228.2 262.05,227.8 262.3,227.65 262.4,227.65 C262.65,227.7 262.75,227.8 262.7,228.05z M260.55,227.7 L260.45,228.1 260,228.25 259.8,228.2 259.7,228 259.85,227.55 260.25,227.4 260.55,227.7z M267.25,228.5 C267,228.55 266.9,228.45 266.85,228.25 L266.85,228.15 266.85,228.1 266.95,228 267.15,227.9 C267.35,227.85 267.45,227.95 267.5,228.15 267.55,228.35 267.45,228.45 267.25,228.5z M269.65,226.8 L269.65,229.75 276.55,224.5 276.55,221.75 269.65,226.8z M239,245.55 L239,244 232.75,243.7 232.75,245.25 239,245.55z M239,244 L239,245.55 242.6,242.85 242.6,241.4 239,244z M232.75,245.25 L232.75,243.7 231.35,241.3 231.35,243.5 232.75,245.25z M43.75,191.35 L43.75,199.6 53.05,215.85 53.05,207.6 43.75,191.35z M53.05,207.6 L53.05,215.85 125.55,215.85 125.55,207.6 53.05,207.6z M58.9,211.2 C59.15,211.45 59.3,211.75 59.3,212.1 59.3,212.45 59.15,212.7 58.9,212.95 58.65,213.2 58.4,213.35 58.05,213.35 57.7,213.35 57.4,213.2 57.15,212.95 56.9,212.7 56.8,212.45 56.8,212.1 56.8,211.75 56.9,211.45 57.15,211.2 57.4,210.95 57.7,210.85 58.05,210.85 58.4,210.85 58.65,210.95 58.9,211.2z M65.15,211.2 L65.55,212.1 C65.55,212.45 65.4,212.7 65.15,212.95 64.9,213.2 64.65,213.35 64.3,213.35 63.95,213.35 63.65,213.2 63.4,212.95 63.15,212.7 63.05,212.45 63.05,212.1 L63.4,211.2 64.3,210.85 C64.65,210.85 64.9,210.95 65.15,211.2z M69.4,210.7 C69.65,210.45 69.95,210.35 70.3,210.35 70.65,210.35 70.9,210.45 71.15,210.7 L71.55,211.6 C71.55,211.95 71.4,212.2 71.15,212.45 70.9,212.7 70.65,212.85 70.3,212.85 69.95,212.85 69.65,212.7 69.4,212.45 69.15,212.2 69.05,211.95 69.05,211.6 L69.4,210.7z M96.75,212.35 L97.1,211.45 98,211.1 C98.35,211.1 98.6,211.2 98.85,211.45 99.1,211.7 99.25,212 99.25,212.35 99.25,212.7 99.1,212.95 98.85,213.2 98.6,213.45 98.35,213.6 98,213.6 97.65,213.6 97.35,213.45 97.1,213.2 96.85,212.95 96.75,212.7 96.75,212.35z M93.75,211.45 L94.15,212.35 C94.15,212.7 94,212.95 93.75,213.2 93.5,213.45 93.25,213.6 92.9,213.6 92.55,213.6 92.25,213.45 92,213.2 91.75,212.95 91.65,212.7 91.65,212.35 L92,211.45 C92.25,211.2 92.55,211.1 92.9,211.1 93.25,211.1 93.5,211.2 93.75,211.45z M102.6,211.45 L103.5,211.1 C103.85,211.1 104.1,211.2 104.35,211.45 L104.75,212.35 C104.75,212.7 104.6,212.95 104.35,213.2 104.1,213.45 103.85,213.6 103.5,213.6 103.15,213.6 102.85,213.45 102.6,213.2 102.35,212.95 102.25,212.7 102.25,212.35 L102.6,211.45z M108.35,211.7 C108.6,211.45 108.9,211.35 109.25,211.35 109.6,211.35 109.85,211.45 110.1,211.7 110.35,211.95 110.5,212.25 110.5,212.6 110.5,212.95 110.35,213.2 110.1,213.45 109.85,213.7 109.6,213.85 109.25,213.85 108.9,213.85 108.6,213.7 108.35,213.45 108.1,213.2 108,212.95 108,212.6 L108.35,211.7z M75.05,212.35 L75.4,211.45 C75.65,211.2 75.95,211.1 76.3,211.1 76.65,211.1 76.9,211.2 77.15,211.45 77.4,211.7 77.55,212 77.55,212.35 77.55,212.7 77.4,212.95 77.15,213.2 76.9,213.45 76.65,213.6 76.3,213.6 75.95,213.6 75.65,213.45 75.4,213.2 75.15,212.95 75.05,212.7 75.05,212.35z M81.7,211.1 C82.05,211.1 82.3,211.2 82.55,211.45 82.8,211.7 82.95,212 82.95,212.35 82.95,212.7 82.8,212.95 82.55,213.2 82.3,213.45 82.05,213.6 81.7,213.6 81.35,213.6 81.05,213.45 80.8,213.2 80.55,212.95 80.45,212.7 80.45,212.35 L80.8,211.45 C81.05,211.2 81.35,211.1 81.7,211.1z M86.15,213.2 C85.9,212.95 85.8,212.7 85.8,212.35 L86.15,211.45 87.05,211.1 C87.4,211.1 87.65,211.2 87.9,211.45 88.15,211.7 88.3,212 88.3,212.35 88.3,212.7 88.15,212.95 87.9,213.2 87.65,213.45 87.4,213.6 87.05,213.6 86.7,213.6 86.4,213.45 86.15,213.2z M114.85,211.1 C115.2,211.1 115.45,211.2 115.7,211.45 115.95,211.7 116.1,212 116.1,212.35 116.1,212.7 115.95,212.95 115.7,213.2 115.45,213.45 115.2,213.6 114.85,213.6 114.5,213.6 114.2,213.45 113.95,213.2 113.7,212.95 113.6,212.7 113.6,212.35 L113.95,211.45 114.85,211.1z M121.6,212.35 C121.6,212.7 121.45,212.95 121.2,213.2 120.95,213.45 120.7,213.6 120.35,213.6 120,213.6 119.7,213.45 119.45,213.2 119.2,212.95 119.1,212.7 119.1,212.35 L119.45,211.45 C119.7,211.2 120,211.1 120.35,211.1 120.7,211.1 120.95,211.2 121.2,211.45 L121.6,212.35z M141.55,202.85 L141.55,194.6 125.55,207.6 125.55,215.85 141.55,202.85z M80.05,255.85 L80.05,250.85 69.55,257.35 69.55,262.35 80.05,255.85z M69.55,262.35 L69.55,257.35 39.55,257.35 39.55,262.35 69.55,262.35z M56.15,261.15 L55.5,260.85 55.25,260.2 55.5,259.55 56.15,259.3 C56.4,259.3 56.6,259.4 56.8,259.55 L57.1,260.2 56.8,260.85 C56.6,261 56.4,261.1 56.15,261.15z M52.4,261.15 L51.75,260.85 51.5,260.2 51.75,259.55 52.4,259.3 C52.65,259.3 52.85,259.4 53.05,259.55 L53.35,260.2 53.05,260.85 52.4,261.15z M61.5,260.2 L61.75,259.55 62.4,259.3 C62.65,259.3 62.85,259.4 63.05,259.55 L63.35,260.2 63.05,260.85 C62.85,261 62.65,261.1 62.4,261.15 L61.75,260.85 61.5,260.2z M59.8,260.85 C59.6,261 59.4,261.1 59.15,261.15 L58.5,260.85 58.25,260.2 58.5,259.55 59.15,259.3 C59.4,259.3 59.6,259.4 59.8,259.55 L60.1,260.2 59.8,260.85z M66.7,260.2 L66.4,260.85 C66.2,261 66,261.1 65.75,261.15 L65.1,260.85 64.85,260.2 65.1,259.55 65.75,259.3 C66,259.3 66.2,259.4 66.4,259.55 L66.7,260.2z M45.65,261.15 L45,260.85 44.75,260.2 45,259.55 45.65,259.3 C45.9,259.3 46.1,259.4 46.3,259.55 L46.6,260.2 46.3,260.85 C46.1,261 45.9,261.1 45.65,261.15z M42.55,261.15 L41.9,260.85 41.65,260.2 41.9,259.55 42.55,259.3 C42.8,259.3 43,259.4 43.2,259.55 L43.5,260.2 43.2,260.85 C43,261 42.8,261.1 42.55,261.15z M50.25,259.8 L49.95,260.45 C49.75,260.6 49.55,260.7 49.3,260.75 L48.65,260.45 48.4,259.8 48.65,259.15 49.3,258.9 C49.55,258.9 49.75,259 49.95,259.15 L50.25,259.8z M33.4,258.1 L39.55,262.35 39.55,257.35 33.4,251.05 33.4,258.1z M110.95,311 L110.95,315.7 114.45,319.4 114.45,316.05 110.95,311z M130.45,316.75 L130.45,320 139.6,314.25 139.6,311.25 130.45,316.75z M130.45,320 L130.45,316.75 114.45,316.05 114.45,319.4 130.45,320z M127.95,318.7 L127.5,318.65 127.4,318.45 127.35,318.25 C127.4,318.1 127.5,318 127.65,318.05 L127.65,318 128.05,318.25 C128.1,318.45 128.1,318.6 127.95,318.7z M123.35,318.15 L123.65,318.05 123.65,318 C123.85,318.05 123.95,318.2 123.95,318.35 L123.7,318.75 123.25,318.7 123.15,318.65 123.15,318.45 123.35,318.15z M125.8,318.15 C126,318.15 126.1,318.25 126.15,318.45 126.2,318.65 126.15,318.75 125.9,318.8 L125.5,318.55 125.5,318.45 125.5,318.35 125.6,318.3 125.8,318.2 125.8,318.15z M119.3,317.8 L119.3,317.75 C119.5,317.75 119.6,317.85 119.65,318.05 119.7,318.25 119.65,318.35 119.4,318.4 L119,318.15 119,318.05 119,317.95 119.1,317.85 119.3,317.8z M121.05,318.45 L121,318.4 121,318.3 121.1,318.1 121.3,317.95 121.4,317.95 121.4,317.9 C121.6,317.95 121.7,318.1 121.7,318.25 L121.4,318.6 C121.25,318.65 121.15,318.6 121.05,318.45z M116.75,318.55 L116.65,318.5 116.6,318.3 116.65,318 117,317.75 117.15,317.65 C117.4,317.7 117.5,317.85 117.45,318.1 L117.25,318.5 116.75,318.55z M89.05,309.7 L89.05,302.7 65.05,313.7 65.05,319.8 65.4,319.8 89.05,309.7z M1.5,305.45 L1.5,313.45 11.3,320.95 11.3,314.95 1.5,305.45z M11.3,314.95 L11.3,320.95 65.05,319.8 65.05,313.7 11.3,314.95z M30.05,316.75 C30.3,316.75 30.5,316.85 30.7,317 L31,317.65 30.7,318.3 C30.5,318.45 30.3,318.55 30.05,318.6 L29.4,318.3 29.15,317.65 29.4,317 30.05,316.75z M26.8,318.3 C26.6,318.45 26.4,318.55 26.15,318.6 L25.5,318.3 25.25,317.65 25.5,317 26.15,316.75 C26.4,316.75 26.6,316.85 26.8,317 L27.1,317.65 26.8,318.3z M22.65,316.75 C22.9,316.75 23.1,316.85 23.3,317 L23.6,317.65 23.3,318.3 C23.1,318.45 22.9,318.55 22.65,318.6 L22,318.3 21.75,317.65 22,317 22.65,316.75z M19.85,317.4 L19.55,318.05 C19.35,318.2 19.15,318.3 18.9,318.35 L18.25,318.05 18,317.4 18.25,316.75 C18.45,316.6 18.65,316.5 18.9,316.5 L19.55,316.75 19.85,317.4z M15.4,316.5 L16.05,316.75 16.35,317.4 16.05,318.05 15.4,318.35 14.75,318.05 14.5,317.4 14.75,316.75 C14.95,316.6 15.15,316.5 15.4,316.5z M49.45,316.95 L49.15,317.6 48.5,317.9 47.85,317.6 47.6,316.95 47.85,316.3 48.5,316.05 C48.75,316.05 48.95,316.15 49.15,316.3 L49.45,316.95z M51.5,317.65 L51.75,317 52.4,316.75 C52.65,316.75 52.85,316.85 53.05,317 L53.35,317.65 53.05,318.3 52.4,318.6 51.75,318.3 51.5,317.65z M45.6,317.65 L45.3,318.3 44.65,318.6 44,318.3 43.75,317.65 44,317 C44.2,316.85 44.4,316.75 44.65,316.75 L45.3,317 45.6,317.65z M40.95,317 L41.25,317.65 40.95,318.3 40.3,318.6 39.65,318.3 39.4,317.65 39.65,317 40.3,316.75 C40.55,316.75 40.75,316.85 40.95,317z M37.95,317 L38.25,317.65 37.95,318.3 37.3,318.6 36.65,318.3 36.4,317.65 36.65,317 37.3,316.75 C37.55,316.75 37.75,316.85 37.95,317z M33.55,316.5 C33.8,316.5 34,316.6 34.2,316.75 L34.5,317.4 34.2,318.05 C34,318.2 33.8,318.3 33.55,318.35 L32.9,318.05 32.65,317.4 32.9,316.75 33.55,316.5z M61.95,317.4 L61.65,318.05 C61.45,318.2 61.25,318.3 61,318.35 L60.35,318.05 60.1,317.4 60.35,316.75 61,316.5 C61.25,316.5 61.45,316.6 61.65,316.75 L61.95,317.4z M56.4,316.75 C56.65,316.75 56.85,316.85 57.05,317 L57.35,317.65 57.05,318.3 C56.85,318.45 56.65,318.55 56.4,318.6 L55.75,318.3 55.5,317.65 55.75,317 56.4,316.75z M65.05,319.8 L65.05,319.95 65.4,319.8 65.05,319.8z"/>
                <path id="path3880" fill="none" stroke="#000000" stroke-opacity="1" stroke-width="2" stroke-linecap="round" stroke-linejoin="round" d="M224.95,171.7 L224.95,178.45 245.95,166.45 245.95,160.2 224.95,171.7z"/>
                <path id="path3881" fill="url(#linearGradient64)" fill-opacity="1" d="M233.7,152.95 L199.45,152.95 180.15,159.7 188.2,170.2 224.95,171.7 245.95,160.2 233.7,152.95z M305,176.85 L296.7,171.95 273.55,171.95 260.5,176.55 265.95,183.65 290.8,184.65 305,176.85z M261.25,218.55 L254.85,221.5 257.5,226.15 269.65,226.8 276.55,221.75 272.55,218.55 261.25,218.55z M239,244 L242.6,241.4 240.5,239.75 234.65,239.75 231.35,241.3 232.75,243.7 239,244z M43.75,191.35 L53.05,207.6 125.55,207.6 141.55,194.6 125.55,178.85 75.05,178.85 43.75,191.35z M50.3,245.35 L33.4,251.05 39.55,257.35 69.55,257.35 80.05,250.85 66.3,245.35 50.3,245.35z M139.6,311.25 L134.25,307.75 119.35,307.75 110.95,311 114.45,316.05 130.45,316.75 139.6,311.25z M1.5,305.45 L11.3,314.95 65.05,313.7 89.05,302.7 66.05,288.95 23.3,290.95 1.5,305.45z"/>
                <path id="path3882" fill="none" stroke="#000000" stroke-opacity="1" stroke-width="2" stroke-linecap="round" stroke-linejoin="round" d="M233.7,152.95 L199.45,152.95 180.15,159.7 188.2,170.2 224.95,171.7 245.95,160.2 233.7,152.95z"/>
                <path id="path3883" fill="none" stroke="#000000" stroke-opacity="1" stroke-width="2" stroke-linecap="round" stroke-linejoin="round" d="M188.2,177.2 L188.2,170.2 180.15,159.7 180.15,169.45 188.2,177.2z"/>
                <path id="path3884" fill="none" stroke="#000000" stroke-opacity="1" stroke-width="2" stroke-linecap="round" stroke-linejoin="round" d="M305,176.85 L305,181.1 290.8,189.2 265.95,188.35 260.5,183.15 260.5,176.55 273.55,171.95 296.7,171.95 305,176.85z"/>
                <path id="path3885" fill="none" stroke="#000000" stroke-opacity="1" stroke-width="2" stroke-linecap="round" stroke-linejoin="round" d="M290.8,189.2 L290.8,184.65 265.95,183.65 265.95,188.35 290.8,189.2z"/>
                <path id="path3886" fill="#FFEF66" fill-opacity="1" d="M279.75,186.4 L279.55,186.45 279.4,186.75 C279.35,187 279.4,187.1 279.65,187.15 279.9,187.2 280.1,187.15 280.2,186.9 L280.2,186.8 280.1,186.65 280,186.55 279.9,186.45 279.75,186.4z"/>
                <path id="path3887" fill="#FFEF66" fill-opacity="1" d="M277.35,186.7 C277.5,186.55 277.5,186.35 277.4,186.2 L277,186.05 276.8,186.1 276.6,186.4 C276.55,186.5 276.6,186.6 276.65,186.65 L276.8,186.85 277,186.85 277.35,186.7z"/>
                <path id="path3888" fill="#FFEF66" fill-opacity="1" d="M282.35,187 L282.35,187.1 282.9,187.25 283.25,186.9 283.3,186.7 283.3,186.65 283.15,186.45 283,186.4 282.75,186.4 282.5,186.55 282.35,186.85 282.35,187z"/>
                <path id="path3889" fill="#FFEF66" fill-opacity="1" d="M288.8,187.15 L288.5,186.8 288.15,187.05 288.1,187.3 288.1,187.5 288.2,187.6 C288.35,187.7 288.5,187.7 288.65,187.6 L288.8,187.15z"/>
                <path id="path3890" fill="#FFEF66" fill-opacity="1" d="M285.95,186.6 L285.75,186.55 285.55,186.65 285.35,186.85 285.35,186.9 285.35,187 285.4,187.1 C285.6,187.3 285.85,187.35 286.1,187.2 L286.25,187.05 286.3,186.95 286.3,186.9 286.15,186.7 285.95,186.6z"/>
                <path id="path3891" fill="#FFEF66" fill-opacity="1" d="M269.5,185.8 L269.3,185.85 269.15,186.15 269.2,186.3 269.2,186.5 C269.35,186.65 269.5,186.7 269.65,186.65 L270,186.4 270.05,186.15 270.05,186.05 269.9,185.85 269.75,185.8 269.5,185.8z"/>
                <path id="path3892" fill="#FFEF66" fill-opacity="1" d="M274.3,186.95 C274.5,186.85 274.6,186.7 274.55,186.45 L274.25,186.15 274.05,186.2 273.9,186.45 273.85,186.65 273.85,186.75 273.9,186.85 274.3,186.95z"/>
                <path id="path3893" fill="#FFEF66" fill-opacity="1" d="M271.45,186.75 L271.55,186.85 272.05,186.8 272.2,186.4 271.9,186.05 C271.75,186.05 271.6,186.1 271.55,186.25 L271.45,186.55 271.45,186.75z"/>
                <path id="path3894" fill="none" stroke="#000000" stroke-opacity="1" stroke-width="2" stroke-linecap="round" stroke-linejoin="round" d="M290.8,184.65 L290.8,189.2 305,181.1 305,176.85 290.8,184.65z"/>
                <path id="path3895" fill="none" stroke="#000000" stroke-opacity="1" stroke-width="2" stroke-linecap="round" stroke-linejoin="round" d="M305,176.85 L296.7,171.95 273.55,171.95 260.5,176.55 265.95,183.65 290.8,184.65 305,176.85z"/>
                <path id="path3896" fill="none" stroke="#000000" stroke-opacity="1" stroke-width="2" stroke-linecap="round" stroke-linejoin="round" d="M265.95,188.35 L265.95,183.65 260.5,176.55 260.5,183.15 265.95,188.35z"/>
                <path id="path3897" fill="none" stroke="#000000" stroke-opacity="1" stroke-width="2" stroke-linecap="round" stroke-linejoin="round" d="M254.85,225.8 L254.85,221.5 261.25,218.55 272.55,218.55 276.55,221.75 276.55,224.5 269.65,229.75 257.5,229.2 254.85,225.8z"/>
                <path id="path3898" fill="none" stroke="#000000" stroke-opacity="1" stroke-width="2" stroke-linecap="round" stroke-linejoin="round" d="M254.85,221.5 L254.85,225.8 257.5,229.2 257.5,226.15 254.85,221.5z"/>
                <path id="path3899" fill="none" stroke="#000000" stroke-opacity="1" stroke-width="2" stroke-linecap="round" stroke-linejoin="round" d="M261.25,218.55 L254.85,221.5 257.5,226.15 269.65,226.8 276.55,221.75 272.55,218.55 261.25,218.55z"/>
                <path id="path3900" fill="none" stroke="#000000" stroke-opacity="1" stroke-width="2" stroke-linecap="round" stroke-linejoin="round" d="M257.5,226.15 L257.5,229.2 269.65,229.75 269.65,226.8 257.5,226.15z"/>
                <path id="path3901" fill="#FFEF66" fill-opacity="1" d="M264.15,227.8 L264.05,228.05 C264.1,228.35 264.3,228.45 264.65,228.4 L264.95,228.15 264.95,228.05 264.85,227.9 264.7,227.8 264.55,227.7 264.4,227.65 264.15,227.8z"/>
                <path id="path3902" fill="#FFEF66" fill-opacity="1" d="M262.7,228.05 C262.75,227.8 262.65,227.7 262.4,227.65 L262.3,227.65 262.05,227.8 261.8,228.2 261.85,228.5 262.4,228.55 262.7,228.05z"/>
                <path id="path3903" fill="#FFEF66" fill-opacity="1" d="M260.55,227.7 L260.25,227.4 259.85,227.55 259.7,228 259.8,228.2 260,228.25 260.45,228.1 260.55,227.7z"/>
                <path id="path3904" fill="#FFEF66" fill-opacity="1" d="M267.25,228.5 C267.45,228.45 267.55,228.35 267.5,228.15 267.45,227.95 267.35,227.85 267.15,227.9 L266.95,228 266.85,228.1 266.85,228.15 266.85,228.25 C266.9,228.45 267,228.55 267.25,228.5z"/>
                <path id="path3905" fill="none" stroke="#000000" stroke-opacity="1" stroke-width="2" stroke-linecap="round" stroke-linejoin="round" d="M269.65,226.8 L269.65,229.75 276.55,224.5 276.55,221.75 269.65,226.8z"/>
                <path id="path3906" fill="none" stroke="#000000" stroke-opacity="1" stroke-width="2" stroke-linecap="round" stroke-linejoin="round" d="M240.5,239.75 L242.6,241.4 242.6,242.85 239,245.55 232.75,245.25 231.35,243.5 231.35,241.3 234.65,239.75 240.5,239.75z"/>
                <path id="path3907" fill="none" stroke="#000000" stroke-opacity="1" stroke-width="2" stroke-linecap="round" stroke-linejoin="round" d="M239,245.55 L239,244 232.75,243.7 232.75,245.25 239,245.55z"/>
                <path id="path3908" fill="none" stroke="#000000" stroke-opacity="1" stroke-width="2" stroke-linecap="round" stroke-linejoin="round" d="M239,244 L239,245.55 242.6,242.85 242.6,241.4 239,244z"/>
                <path id="path3909" fill="none" stroke="#000000" stroke-opacity="1" stroke-width="2" stroke-linecap="round" stroke-linejoin="round" d="M239,244 L242.6,241.4 240.5,239.75 234.65,239.75 231.35,241.3 232.75,243.7 239,244z"/>
                <path id="path3910" fill="none" stroke="#000000" stroke-opacity="1" stroke-width="2" stroke-linecap="round" stroke-linejoin="round" d="M232.75,245.25 L232.75,243.7 231.35,241.3 231.35,243.5 232.75,245.25z"/>
                <path id="path3911" fill="none" stroke="#000000" stroke-opacity="1" stroke-width="2" stroke-linecap="round" stroke-linejoin="round" d="M43.75,199.6 L43.75,191.35 75.05,178.85 125.55,178.85 141.55,194.6 141.55,202.85 125.55,215.85 53.05,215.85 43.75,199.6z"/>
                <path id="path3912" fill="none" stroke="#000000" stroke-opacity="1" stroke-width="2" stroke-linecap="round" stroke-linejoin="round" d="M43.75,191.35 L43.75,199.6 53.05,215.85 53.05,207.6 43.75,191.35z"/>
                <path id="path3913" fill="none" stroke="#000000" stroke-opacity="1" stroke-width="2" stroke-linecap="round" stroke-linejoin="round" d="M53.05,207.6 L53.05,215.85 125.55,215.85 125.55,207.6 53.05,207.6z"/>
                <path id="path3914" fill="#FFEF66" fill-opacity="1" d="M58.9,211.2 C58.65,210.95 58.4,210.85 58.05,210.85 57.7,210.85 57.4,210.95 57.15,211.2 56.9,211.45 56.8,211.75 56.8,212.1 56.8,212.45 56.9,212.7 57.15,212.95 57.4,213.2 57.7,213.35 58.05,213.35 58.4,213.35 58.65,213.2 58.9,212.95 59.15,212.7 59.3,212.45 59.3,212.1 59.3,211.75 59.15,211.45 58.9,211.2z"/>
                <path id="path3915" fill="#FFEF66" fill-opacity="1" d="M65.15,211.2 C64.9,210.95 64.65,210.85 64.3,210.85 L63.4,211.2 63.05,212.1 C63.05,212.45 63.15,212.7 63.4,212.95 63.65,213.2 63.95,213.35 64.3,213.35 64.65,213.35 64.9,213.2 65.15,212.95 65.4,212.7 65.55,212.45 65.55,212.1 L65.15,211.2z"/>
                <path id="path3916" fill="#FFEF66" fill-opacity="1" d="M69.4,210.7 L69.05,211.6 C69.05,211.95 69.15,212.2 69.4,212.45 69.65,212.7 69.95,212.85 70.3,212.85 70.65,212.85 70.9,212.7 71.15,212.45 71.4,212.2 71.55,211.95 71.55,211.6 L71.15,210.7 C70.9,210.45 70.65,210.35 70.3,210.35 69.95,210.35 69.65,210.45 69.4,210.7z"/>
                <path id="path3917" fill="#FFEF66" fill-opacity="1" d="M96.75,212.35 C96.75,212.7 96.85,212.95 97.1,213.2 97.35,213.45 97.65,213.6 98,213.6 98.35,213.6 98.6,213.45 98.85,213.2 99.1,212.95 99.25,212.7 99.25,212.35 99.25,212 99.1,211.7 98.85,211.45 98.6,211.2 98.35,211.1 98,211.1 L97.1,211.45 96.75,212.35z"/>
                <path id="path3918" fill="#FFEF66" fill-opacity="1" d="M93.75,211.45 C93.5,211.2 93.25,211.1 92.9,211.1 92.55,211.1 92.25,211.2 92,211.45 L91.65,212.35 C91.65,212.7 91.75,212.95 92,213.2 92.25,213.45 92.55,213.6 92.9,213.6 93.25,213.6 93.5,213.45 93.75,213.2 94,212.95 94.15,212.7 94.15,212.35 L93.75,211.45z"/>
                <path id="path3919" fill="#FFEF66" fill-opacity="1" d="M102.6,211.45 L102.25,212.35 C102.25,212.7 102.35,212.95 102.6,213.2 102.85,213.45 103.15,213.6 103.5,213.6 103.85,213.6 104.1,213.45 104.35,213.2 104.6,212.95 104.75,212.7 104.75,212.35 L104.35,211.45 C104.1,211.2 103.85,211.1 103.5,211.1 L102.6,211.45z"/>
                <path id="path3920" fill="#FFEF66" fill-opacity="1" d="M108.35,211.7 L108,212.6 C108,212.95 108.1,213.2 108.35,213.45 108.6,213.7 108.9,213.85 109.25,213.85 109.6,213.85 109.85,213.7 110.1,213.45 110.35,213.2 110.5,212.95 110.5,212.6 110.5,212.25 110.35,211.95 110.1,211.7 109.85,211.45 109.6,211.35 109.25,211.35 108.9,211.35 108.6,211.45 108.35,211.7z"/>
                <path id="path3921" fill="#FFEF66" fill-opacity="1" d="M75.05,212.35 C75.05,212.7 75.15,212.95 75.4,213.2 75.65,213.45 75.95,213.6 76.3,213.6 76.65,213.6 76.9,213.45 77.15,213.2 77.4,212.95 77.55,212.7 77.55,212.35 77.55,212 77.4,211.7 77.15,211.45 76.9,211.2 76.65,211.1 76.3,211.1 75.95,211.1 75.65,211.2 75.4,211.45 L75.05,212.35z"/>
                <path id="path3922" fill="#FFEF66" fill-opacity="1" d="M81.7,211.1 C81.35,211.1 81.05,211.2 80.8,211.45 L80.45,212.35 C80.45,212.7 80.55,212.95 80.8,213.2 81.05,213.45 81.35,213.6 81.7,213.6 82.05,213.6 82.3,213.45 82.55,213.2 82.8,212.95 82.95,212.7 82.95,212.35 82.95,212 82.8,211.7 82.55,211.45 82.3,211.2 82.05,211.1 81.7,211.1z"/>
                <path id="path3923" fill="#FFEF66" fill-opacity="1" d="M86.15,213.2 C86.4,213.45 86.7,213.6 87.05,213.6 87.4,213.6 87.65,213.45 87.9,213.2 88.15,212.95 88.3,212.7 88.3,212.35 88.3,212 88.15,211.7 87.9,211.45 87.65,211.2 87.4,211.1 87.05,211.1 L86.15,211.45 85.8,212.35 C85.8,212.7 85.9,212.95 86.15,213.2z"/>
                <path id="path3924" fill="#FFEF66" fill-opacity="1" d="M114.85,211.1 L113.95,211.45 113.6,212.35 C113.6,212.7 113.7,212.95 113.95,213.2 114.2,213.45 114.5,213.6 114.85,213.6 115.2,213.6 115.45,213.45 115.7,213.2 115.95,212.95 116.1,212.7 116.1,212.35 116.1,212 115.95,211.7 115.7,211.45 115.45,211.2 115.2,211.1 114.85,211.1z"/>
                <path id="path3925" fill="#FFEF66" fill-opacity="1" d="M121.6,212.35 L121.2,211.45 C120.95,211.2 120.7,211.1 120.35,211.1 120,211.1 119.7,211.2 119.45,211.45 L119.1,212.35 C119.1,212.7 119.2,212.95 119.45,213.2 119.7,213.45 120,213.6 120.35,213.6 120.7,213.6 120.95,213.45 121.2,213.2 121.45,212.95 121.6,212.7 121.6,212.35z"/>
                <path id="path3926" fill="none" stroke="#000000" stroke-opacity="1" stroke-width="2" stroke-linecap="round" stroke-linejoin="round" d="M43.75,191.35 L53.05,207.6 125.55,207.6 141.55,194.6 125.55,178.85 75.05,178.85 43.75,191.35z"/>
                <path id="path3927" fill="none" stroke="#000000" stroke-opacity="1" stroke-width="2" stroke-linecap="round" stroke-linejoin="round" d="M141.55,202.85 L141.55,194.6 125.55,207.6 125.55,215.85 141.55,202.85z"/>
                <path id="path3928" fill="none" stroke="#000000" stroke-opacity="1" stroke-width="2" stroke-linecap="round" stroke-linejoin="round" d="M80.05,250.85 L80.05,255.85 69.55,262.35 39.55,262.35 33.4,258.1 33.4,251.05 50.3,245.35 66.3,245.35 80.05,250.85z"/>
                <path id="path3929" fill="none" stroke="#000000" stroke-opacity="1" stroke-width="2" stroke-linecap="round" stroke-linejoin="round" d="M80.05,255.85 L80.05,250.85 69.55,257.35 69.55,262.35 80.05,255.85z"/>
                <path id="path3930" fill="none" stroke="#000000" stroke-opacity="1" stroke-width="2" stroke-linecap="round" stroke-linejoin="round" d="M69.55,262.35 L69.55,257.35 39.55,257.35 39.55,262.35 69.55,262.35z"/>
                <path id="path3931" fill="#FFEF66" fill-opacity="1" d="M56.15,261.15 C56.4,261.1 56.6,261 56.8,260.85 L57.1,260.2 56.8,259.55 C56.6,259.4 56.4,259.3 56.15,259.3 L55.5,259.55 55.25,260.2 55.5,260.85 56.15,261.15z"/>
                <path id="path3932" fill="#FFEF66" fill-opacity="1" d="M52.4,261.15 L53.05,260.85 53.35,260.2 53.05,259.55 C52.85,259.4 52.65,259.3 52.4,259.3 L51.75,259.55 51.5,260.2 51.75,260.85 52.4,261.15z"/>
                <path id="path3933" fill="#FFEF66" fill-opacity="1" d="M61.5,260.2 L61.75,260.85 62.4,261.15 C62.65,261.1 62.85,261 63.05,260.85 L63.35,260.2 63.05,259.55 C62.85,259.4 62.65,259.3 62.4,259.3 L61.75,259.55 61.5,260.2z"/>
                <path id="path3934" fill="#FFEF66" fill-opacity="1" d="M59.8,260.85 L60.1,260.2 59.8,259.55 C59.6,259.4 59.4,259.3 59.15,259.3 L58.5,259.55 58.25,260.2 58.5,260.85 59.15,261.15 C59.4,261.1 59.6,261 59.8,260.85z"/>
                <path id="path3935" fill="#FFEF66" fill-opacity="1" d="M66.7,260.2 L66.4,259.55 C66.2,259.4 66,259.3 65.75,259.3 L65.1,259.55 64.85,260.2 65.1,260.85 65.75,261.15 C66,261.1 66.2,261 66.4,260.85 L66.7,260.2z"/>
                <path id="path3936" fill="#FFEF66" fill-opacity="1" d="M45.65,261.15 C45.9,261.1 46.1,261 46.3,260.85 L46.6,260.2 46.3,259.55 C46.1,259.4 45.9,259.3 45.65,259.3 L45,259.55 44.75,260.2 45,260.85 45.65,261.15z"/>
                <path id="path3937" fill="#FFEF66" fill-opacity="1" d="M42.55,261.15 C42.8,261.1 43,261 43.2,260.85 L43.5,260.2 43.2,259.55 C43,259.4 42.8,259.3 42.55,259.3 L41.9,259.55 41.65,260.2 41.9,260.85 42.55,261.15z"/>
                <path id="path3938" fill="#FFEF66" fill-opacity="1" d="M50.25,259.8 L49.95,259.15 C49.75,259 49.55,258.9 49.3,258.9 L48.65,259.15 48.4,259.8 48.65,260.45 49.3,260.75 C49.55,260.7 49.75,260.6 49.95,260.45 L50.25,259.8z"/>
                <path id="path3939" fill="none" stroke="#000000" stroke-opacity="1" stroke-width="2" stroke-linecap="round" stroke-linejoin="round" d="M33.4,258.1 L39.55,262.35 39.55,257.35 33.4,251.05 33.4,258.1z"/>
                <path id="path3940" fill="none" stroke="#000000" stroke-opacity="1" stroke-width="2" stroke-linecap="round" stroke-linejoin="round" d="M50.3,245.35 L33.4,251.05 39.55,257.35 69.55,257.35 80.05,250.85 66.3,245.35 50.3,245.35z"/>
                <path id="path3941" fill="none" stroke="#000000" stroke-opacity="1" stroke-width="2" stroke-linecap="round" stroke-linejoin="round" d="M110.95,315.7 L110.95,311 119.35,307.75 134.25,307.75 139.6,311.25 139.6,314.25 130.45,320 114.45,319.4 110.95,315.7z"/>
                <path id="path3942" fill="none" stroke="#000000" stroke-opacity="1" stroke-width="2" stroke-linecap="round" stroke-linejoin="round" d="M110.95,311 L110.95,315.7 114.45,319.4 114.45,316.05 110.95,311z"/>
                <path id="path3943" fill="none" stroke="#000000" stroke-opacity="1" stroke-width="2" stroke-linecap="round" stroke-linejoin="round" d="M139.6,311.25 L134.25,307.75 119.35,307.75 110.95,311 114.45,316.05 130.45,316.75 139.6,311.25z"/>
                <path id="path3944" fill="none" stroke="#000000" stroke-opacity="1" stroke-width="2" stroke-linecap="round" stroke-linejoin="round" d="M130.45,316.75 L130.45,320 139.6,314.25 139.6,311.25 130.45,316.75z"/>
                <path id="path3945" fill="none" stroke="#000000" stroke-opacity="1" stroke-width="2" stroke-linecap="round" stroke-linejoin="round" d="M130.45,320 L130.45,316.75 114.45,316.05 114.45,319.4 130.45,320z"/>
                <path id="path3946" fill="#FFEF66" fill-opacity="1" d="M127.95,318.7 C128.1,318.6 128.1,318.45 128.05,318.25 L127.65,318 127.65,318.05 C127.5,318 127.4,318.1 127.35,318.25 L127.4,318.45 127.5,318.65 127.95,318.7z"/>
                <path id="path3947" fill="#FFEF66" fill-opacity="1" d="M123.35,318.15 L123.15,318.45 123.15,318.65 123.25,318.7 123.7,318.75 123.95,318.35 C123.95,318.2 123.85,318.05 123.65,318 L123.65,318.05 123.35,318.15z"/>
                <path id="path3948" fill="#FFEF66" fill-opacity="1" d="M125.8,318.15 L125.8,318.2 125.6,318.3 125.5,318.35 125.5,318.45 125.5,318.55 125.9,318.8 C126.15,318.75 126.2,318.65 126.15,318.45 126.1,318.25 126,318.15 125.8,318.15z"/>
                <path id="path3949" fill="#FFEF66" fill-opacity="1" d="M119.3,317.8 L119.1,317.85 119,317.95 119,318.05 119,318.15 119.4,318.4 C119.65,318.35 119.7,318.25 119.65,318.05 119.6,317.85 119.5,317.75 119.3,317.75 L119.3,317.8z"/>
                <path id="path3950" fill="#FFEF66" fill-opacity="1" d="M121.05,318.45 C121.15,318.6 121.25,318.65 121.4,318.6 L121.7,318.25 C121.7,318.1 121.6,317.95 121.4,317.9 L121.4,317.95 121.3,317.95 121.1,318.1 121,318.3 121,318.4 121.05,318.45z"/>
                <path id="path3951" fill="#FFEF66" fill-opacity="1" d="M116.75,318.55 L117.25,318.5 117.45,318.1 C117.5,317.85 117.4,317.7 117.15,317.65 L117,317.75 116.65,318 116.6,318.3 116.65,318.5 116.75,318.55z"/>
                <path id="path3952" fill="none" stroke="#000000" stroke-opacity="1" stroke-width="2" stroke-linecap="round" stroke-linejoin="round" d="M89.05,302.7 L89.05,309.7 65.4,319.8 65.05,319.95 65.05,319.8 11.3,320.95 1.5,313.45 1.5,305.45 23.3,290.95 66.05,288.95 89.05,302.7z"/>
                <path id="path3953" fill="none" stroke="#000000" stroke-opacity="1" stroke-width="2" stroke-linecap="round" stroke-linejoin="round" d="M89.05,309.7 L89.05,302.7 65.05,313.7 65.05,319.8 65.4,319.8 89.05,309.7z"/>
                <path id="path3954" fill="none" stroke="#000000" stroke-opacity="1" stroke-width="2" stroke-linecap="round" stroke-linejoin="round" d="M1.5,305.45 L1.5,313.45 11.3,320.95 11.3,314.95 1.5,305.45z"/>
                <path id="path3955" fill="none" stroke="#000000" stroke-opacity="1" stroke-width="2" stroke-linecap="round" stroke-linejoin="round" d="M11.3,314.95 L11.3,320.95 65.05,319.8 65.05,313.7 11.3,314.95z"/>
                <path id="path3956" fill="#FFEF66" fill-opacity="1" d="M30.05,316.75 L29.4,317 29.15,317.65 29.4,318.3 30.05,318.6 C30.3,318.55 30.5,318.45 30.7,318.3 L31,317.65 30.7,317 C30.5,316.85 30.3,316.75 30.05,316.75z"/>
                <path id="path3957" fill="#FFEF66" fill-opacity="1" d="M26.8,318.3 L27.1,317.65 26.8,317 C26.6,316.85 26.4,316.75 26.15,316.75 L25.5,317 25.25,317.65 25.5,318.3 26.15,318.6 C26.4,318.55 26.6,318.45 26.8,318.3z"/>
                <path id="path3958" fill="#FFEF66" fill-opacity="1" d="M22.65,316.75 L22,317 21.75,317.65 22,318.3 22.65,318.6 C22.9,318.55 23.1,318.45 23.3,318.3 L23.6,317.65 23.3,317 C23.1,316.85 22.9,316.75 22.65,316.75z"/>
                <path id="path3959" fill="#FFEF66" fill-opacity="1" d="M19.85,317.4 L19.55,316.75 18.9,316.5 C18.65,316.5 18.45,316.6 18.25,316.75 L18,317.4 18.25,318.05 18.9,318.35 C19.15,318.3 19.35,318.2 19.55,318.05 L19.85,317.4z"/>
                <path id="path3960" fill="#FFEF66" fill-opacity="1" d="M15.4,316.5 C15.15,316.5 14.95,316.6 14.75,316.75 L14.5,317.4 14.75,318.05 15.4,318.35 16.05,318.05 16.35,317.4 16.05,316.75 15.4,316.5z"/>
                <path id="path3961" fill="#FFEF66" fill-opacity="1" d="M49.45,316.95 L49.15,316.3 C48.95,316.15 48.75,316.05 48.5,316.05 L47.85,316.3 47.6,316.95 47.85,317.6 48.5,317.9 49.15,317.6 49.45,316.95z"/>
                <path id="path3962" fill="#FFEF66" fill-opacity="1" d="M51.5,317.65 L51.75,318.3 52.4,318.6 53.05,318.3 53.35,317.65 53.05,317 C52.85,316.85 52.65,316.75 52.4,316.75 L51.75,317 51.5,317.65z"/>
                <path id="path3963" fill="#FFEF66" fill-opacity="1" d="M45.6,317.65 L45.3,317 44.65,316.75 C44.4,316.75 44.2,316.85 44,317 L43.75,317.65 44,318.3 44.65,318.6 45.3,318.3 45.6,317.65z"/>
                <path id="path3964" fill="#FFEF66" fill-opacity="1" d="M40.95,317 C40.75,316.85 40.55,316.75 40.3,316.75 L39.65,317 39.4,317.65 39.65,318.3 40.3,318.6 40.95,318.3 41.25,317.65 40.95,317z"/>
                <path id="path3965" fill="#FFEF66" fill-opacity="1" d="M37.95,317 C37.75,316.85 37.55,316.75 37.3,316.75 L36.65,317 36.4,317.65 36.65,318.3 37.3,318.6 37.95,318.3 38.25,317.65 37.95,317z"/>
                <path id="path3966" fill="#FFEF66" fill-opacity="1" d="M33.55,316.5 L32.9,316.75 32.65,317.4 32.9,318.05 33.55,318.35 C33.8,318.3 34,318.2 34.2,318.05 L34.5,317.4 34.2,316.75 C34,316.6 33.8,316.5 33.55,316.5z"/>
                <path id="path3967" fill="#FFEF66" fill-opacity="1" d="M61.95,317.4 L61.65,316.75 C61.45,316.6 61.25,316.5 61,316.5 L60.35,316.75 60.1,317.4 60.35,318.05 61,318.35 C61.25,318.3 61.45,318.2 61.65,318.05 L61.95,317.4z"/>
                <path id="path3968" fill="#FFEF66" fill-opacity="1" d="M56.4,316.75 L55.75,317 55.5,317.65 55.75,318.3 56.4,318.6 C56.65,318.55 56.85,318.45 57.05,318.3 L57.35,317.65 57.05,317 C56.85,316.85 56.65,316.75 56.4,316.75z"/>
                <path id="path3969" fill="none" stroke="#000000" stroke-opacity="1" stroke-width="2" stroke-linecap="round" stroke-linejoin="round" d="M1.5,305.45 L11.3,314.95 65.05,313.7 89.05,302.7 66.05,288.95 23.3,290.95 1.5,305.45z"/>
                <path id="path3970" fill="none" stroke="#000000" stroke-opacity="1" stroke-width="2" stroke-linecap="round" stroke-linejoin="round" d="M65.05,319.8 L65.05,319.95 65.4,319.8 65.05,319.8z"/>
              </g>
            </g>
          </g>
        </g>
        <g id="Layer.__751">
          <g id="MovieClip.__2Fsprite.__20246_129" overflow="visible">
            <g id="Layer.__752">
              <g id="Graphic.__2Fshape.__20272_273" overflow="visible">
                <g id="Layer.__753">
                  <g id="shape971">
                    <path id="path3971" fill="#FFFFFF" fill-opacity="0.5019607843137255" d="M111.099,201.628 Q108.127,203.418 103.268,203.983 C100.124,204.351 97.038,204.252 93.894,203.737 90.635,203.173 88.006,202.216 86.005,200.843 94.694,203.247 99.896,202.707 101.553,199.224 L101.039,199.027 C99.495,198.365 98.752,197.58 98.81,196.672 98.752,195.765 99.495,194.98 101.039,194.317 102.582,193.655 104.411,193.336 106.584,193.336 108.699,193.336 110.528,193.655 112.071,194.317 113.557,194.98 114.3,195.765 114.3,196.672 114.3,198.659 113.214,200.327 111.099,201.628z M115.615,184.063 C117.216,185.265 117.844,186.565 117.444,187.988 117.044,189.484 115.558,190.809 112.986,192.011 116.13,187.792 113.614,185.78 105.326,185.976 L105.04,186.246 C103.954,187.056 102.411,187.571 100.296,187.792 98.181,188.037 96.237,187.939 94.408,187.473 92.522,187.007 91.321,186.344 90.807,185.437 90.235,184.554 90.464,183.72 91.55,182.91 92.636,182.125 94.179,181.61 96.294,181.365 100.753,180.849 104.754,180.874 108.298,181.414 111.442,181.929 113.9,182.812 115.615,184.063z M77.145,198.071 C75.03,198.071 73.201,197.752 71.658,197.089 68.4,195.691 66.399,194.195 65.77,192.6 65.198,191.153 65.77,189.803 67.428,188.552 69.028,187.35 71.372,186.467 74.459,185.903 77.66,185.314 81.089,185.191 84.805,185.559 74.687,186.492 71.944,188.43 76.459,191.398 L77.145,191.398 C79.26,191.398 81.089,191.717 82.633,192.379 84.176,193.042 84.919,193.827 84.919,194.734 84.919,195.642 84.176,196.427 82.633,197.089 81.089,197.752 79.26,198.071 77.145,198.071z"/>
                  </g>
                </g>
              </g>
            </g>
          </g>
        </g>
        <g id="Layer.__754">
          <g id="MovieClip.__2Fsprite.__20246_130" overflow="visible">
            <g id="Layer.__755">
              <g id="Graphic.__2Fshape.__20272_274" overflow="visible">
                <g id="Layer.__756">
                  <g id="shape972">
                    <path id="path3972" fill="#FFFFFF" fill-opacity="0.5019607843137255" d="M63.25,253.182 Q62.185,253.824 60.446,254.026 C59.32,254.157 58.215,254.122 57.089,253.938 55.923,253.736 54.981,253.393 54.265,252.901 57.376,253.762 59.238,253.569 59.832,252.322 L59.647,252.251 C59.095,252.014 58.829,251.733 58.849,251.408 58.829,251.083 59.095,250.802 59.647,250.565 60.2,250.328 60.855,250.214 61.633,250.214 62.39,250.214 63.045,250.328 63.598,250.565 64.13,250.802 64.396,251.083 64.396,251.408 64.396,252.12 64.007,252.717 63.25,253.182z M64.866,246.893 C65.44,247.324 65.665,247.789 65.521,248.299 65.378,248.834 64.846,249.309 63.925,249.739 65.051,248.228 64.15,247.508 61.182,247.578 L61.08,247.675 C60.691,247.965 60.139,248.149 59.381,248.228 58.624,248.316 57.928,248.281 57.273,248.114 56.598,247.947 56.168,247.71 55.984,247.385 55.779,247.069 55.861,246.77 56.25,246.48 56.639,246.199 57.191,246.015 57.949,245.927 59.545,245.743 60.978,245.751 62.247,245.945 63.372,246.129 64.252,246.445 64.866,246.893z M51.092,251.909 C50.335,251.909 49.68,251.795 49.128,251.557 47.961,251.057 47.245,250.521 47.02,249.95 46.815,249.432 47.02,248.949 47.613,248.501 48.186,248.07 49.025,247.754 50.13,247.552 51.277,247.341 52.505,247.297 53.835,247.429 50.212,247.763 49.23,248.457 50.847,249.52 L51.092,249.52 C51.85,249.52 52.505,249.634 53.057,249.871 53.61,250.108 53.876,250.389 53.876,250.714 53.876,251.039 53.61,251.32 53.057,251.557 52.505,251.795 51.85,251.909 51.092,251.909z"/>
                  </g>
                </g>
              </g>
            </g>
          </g>
        </g>
        <g id="Layer.__757">
          <g id="MovieClip.__2Fsprite.__20246_131" overflow="visible">
            <g id="Layer.__758">
              <g id="Graphic.__2Fshape.__20272_275" overflow="visible">
                <g id="Layer.__759">
                  <g id="shape973">
                    <path id="path3973" fill="#FFFFFF" fill-opacity="0.5019607843137255" d="M59.03,292.663 Q56.631,291.217 52.709,290.762 C50.171,290.465 47.68,290.544 45.142,290.96 42.512,291.415 40.389,292.188 38.774,293.296 45.788,291.356 49.987,291.792 51.325,294.603 L50.909,294.762 C49.664,295.297 49.064,295.93 49.11,296.663 49.064,297.396 49.664,298.029 50.909,298.564 52.155,299.099 53.632,299.356 55.385,299.356 57.092,299.356 58.569,299.099 59.815,298.564 61.014,298.029 61.614,297.396 61.614,296.663 61.614,295.059 60.737,293.712 59.03,292.663z M62.675,306.841 C63.967,305.871 64.475,304.821 64.152,303.673 63.829,302.465 62.629,301.396 60.553,300.425 63.091,303.831 61.06,305.455 54.37,305.297 L54.139,305.079 C53.263,304.425 52.017,304.009 50.31,303.831 48.602,303.633 47.034,303.712 45.557,304.089 44.034,304.465 43.065,305 42.65,305.732 42.189,306.445 42.373,307.118 43.25,307.772 44.127,308.405 45.372,308.821 47.08,309.019 50.679,309.435 53.909,309.415 56.769,308.98 59.307,308.564 61.291,307.851 62.675,306.841z M31.622,295.534 C29.915,295.534 28.439,295.792 27.193,296.326 24.563,297.455 22.948,298.663 22.44,299.95 21.979,301.118 22.44,302.207 23.778,303.217 25.07,304.188 26.962,304.901 29.454,305.356 32.038,305.831 34.806,305.93 37.805,305.633 29.638,304.881 27.424,303.316 31.069,300.92 L31.622,300.92 C33.33,300.92 34.806,300.663 36.052,300.128 37.298,299.594 37.898,298.96 37.898,298.227 37.898,297.495 37.298,296.861 36.052,296.326 34.806,295.792 33.33,295.534 31.622,295.534z"/>
                  </g>
                </g>
              </g>
            </g>
          </g>
        </g>
        <g id="Layer.__760">
          <g id="MovieClip.__2Fsprite.__20246_132" overflow="visible">
            <g id="Layer.__761">
              <g id="Graphic.__2Fshape.__20272_276" overflow="visible">
                <g id="Layer.__762">
                  <g id="shape974">
                    <path id="path3974" fill="#FFFFFF" fill-opacity="0.5019607843137255" d="M129.999,313.774 Q129.201,314.255 127.896,314.406 C127.052,314.505 126.223,314.479 125.379,314.34 124.504,314.189 123.798,313.932 123.261,313.563 125.594,314.209 126.991,314.064 127.436,313.128 L127.298,313.076 C126.883,312.898 126.684,312.687 126.699,312.443 126.684,312.2 126.883,311.989 127.298,311.811 127.712,311.633 128.203,311.548 128.786,311.548 129.354,311.548 129.845,311.633 130.26,311.811 130.659,311.989 130.858,312.2 130.858,312.443 130.858,312.977 130.567,313.425 129.999,313.774z M131.211,309.058 C131.641,309.381 131.81,309.73 131.702,310.112 131.595,310.514 131.196,310.869 130.505,311.192 131.349,310.059 130.674,309.519 128.449,309.572 L128.372,309.644 C128.08,309.861 127.666,310 127.098,310.059 126.53,310.125 126.008,310.099 125.517,309.973 125.011,309.848 124.689,309.67 124.55,309.427 124.397,309.19 124.458,308.966 124.75,308.748 125.042,308.538 125.456,308.399 126.024,308.333 127.221,308.195 128.295,308.202 129.247,308.347 130.091,308.485 130.751,308.722 131.211,309.058z M120.882,312.819 C120.315,312.819 119.824,312.733 119.409,312.555 118.534,312.18 117.997,311.778 117.828,311.35 117.675,310.961 117.828,310.599 118.273,310.263 118.703,309.94 119.332,309.703 120.161,309.552 121.021,309.394 121.941,309.361 122.939,309.46 120.223,309.71 119.486,310.23 120.698,311.027 L120.882,311.027 C121.45,311.027 121.941,311.113 122.356,311.291 122.77,311.469 122.97,311.679 122.97,311.923 122.97,312.167 122.77,312.377 122.356,312.555 121.941,312.733 121.45,312.819 120.882,312.819z"/>
                  </g>
                </g>
              </g>
            </g>
          </g>
        </g>
        <g id="Layer.__763">
          <g id="MovieClip.__2Fsprite.__20246_133" overflow="visible">
            <g id="Layer.__764">
              <g id="Graphic.__2Fshape.__20272_277" overflow="visible">
                <g id="Layer.__765">
                  <g id="shape975">
                    <path id="path3975" fill="#FFFFFF" fill-opacity="0.5019607843137255" d="M238.128,241.96 Q237.713,242.21 237.035,242.288 C236.596,242.34 236.166,242.326 235.727,242.254 235.272,242.175 234.905,242.042 234.626,241.85 235.839,242.186 236.565,242.11 236.796,241.624 L236.724,241.597 C236.509,241.504 236.405,241.395 236.413,241.268 236.405,241.142 236.509,241.032 236.724,240.94 236.939,240.847 237.195,240.803 237.498,240.803 237.793,240.803 238.048,240.847 238.264,240.94 238.471,241.032 238.575,241.142 238.575,241.268 238.575,241.546 238.423,241.778 238.128,241.96z M238.758,239.509 C238.981,239.676 239.069,239.858 239.013,240.056 238.958,240.265 238.75,240.45 238.391,240.618 238.83,240.029 238.479,239.748 237.322,239.776 L237.282,239.813 C237.131,239.926 236.916,239.998 236.62,240.029 236.325,240.063 236.054,240.05 235.799,239.985 235.536,239.919 235.368,239.827 235.296,239.7 235.217,239.577 235.248,239.461 235.4,239.348 235.552,239.238 235.767,239.166 236.062,239.132 236.684,239.06 237.243,239.064 237.737,239.139 238.176,239.211 238.519,239.334 238.758,239.509z M233.39,241.463 C233.095,241.463 232.84,241.419 232.624,241.326 232.17,241.131 231.89,240.923 231.803,240.7 231.723,240.498 231.803,240.31 232.034,240.135 232.257,239.967 232.584,239.844 233.015,239.765 233.462,239.683 233.94,239.666 234.459,239.718 233.047,239.848 232.664,240.118 233.294,240.532 L233.39,240.532 C233.685,240.532 233.94,240.577 234.156,240.669 234.371,240.762 234.475,240.871 234.475,240.998 234.475,241.124 234.371,241.234 234.156,241.326 233.94,241.419 233.685,241.463 233.39,241.463z"/>
                  </g>
                </g>
              </g>
            </g>
          </g>
        </g>
        <g id="Layer.__766">
          <g id="MovieClip.__2Fsprite.__20246_134" overflow="visible">
            <g id="Layer.__767">
              <g id="Graphic.__2Fshape.__20272_278" overflow="visible">
                <g id="Layer.__768">
                  <g id="shape976">
                    <path id="path3976" fill="#FFFFFF" fill-opacity="0.5019607843137255" d="M268.925,224.389 Q268.237,224.804 267.112,224.934 C266.385,225.02 265.67,224.997 264.942,224.878 264.188,224.747 263.58,224.526 263.117,224.208 265.128,224.764 266.332,224.639 266.715,223.833 L266.596,223.788 C266.239,223.634 266.067,223.453 266.08,223.243 266.067,223.032 266.239,222.851 266.596,222.697 266.953,222.544 267.377,222.47 267.88,222.47 268.369,222.47 268.792,222.544 269.15,222.697 269.494,222.851 269.666,223.032 269.666,223.243 269.666,223.702 269.414,224.089 268.925,224.389z M269.97,220.324 C270.34,220.602 270.486,220.903 270.393,221.233 270.301,221.579 269.957,221.886 269.361,222.164 270.089,221.187 269.507,220.722 267.588,220.767 L267.522,220.829 C267.271,221.017 266.914,221.136 266.424,221.187 265.935,221.244 265.485,221.221 265.062,221.113 264.625,221.005 264.347,220.852 264.228,220.642 264.096,220.438 264.149,220.245 264.4,220.057 264.651,219.876 265.009,219.756 265.498,219.7 266.53,219.58 267.456,219.586 268.276,219.711 269.004,219.83 269.573,220.035 269.97,220.324z M261.066,223.566 C260.576,223.566 260.153,223.492 259.796,223.339 259.042,223.015 258.579,222.669 258.433,222.3 258.301,221.965 258.433,221.653 258.817,221.363 259.187,221.085 259.73,220.881 260.444,220.75 261.185,220.614 261.979,220.585 262.839,220.67 260.497,220.886 259.862,221.335 260.907,222.022 L261.066,222.022 C261.556,222.022 261.979,222.096 262.336,222.249 262.693,222.402 262.865,222.584 262.865,222.794 262.865,223.004 262.693,223.186 262.336,223.339 261.979,223.492 261.556,223.566 261.066,223.566z"/>
                  </g>
                </g>
              </g>
            </g>
          </g>
        </g>
        <g id="Layer.__769">
          <g id="MovieClip.__2Fsprite.__20246_135" overflow="visible">
            <g id="Layer.__770">
              <g id="Graphic.__2Fshape.__20272_279" overflow="visible">
                <g id="Layer.__771">
                  <g id="shape977">
                    <path id="path3977" fill="#FFFFFF" fill-opacity="0.5019607843137255" d="M288.925,180.841 Q287.743,181.553 285.811,181.777 C284.56,181.924 283.333,181.885 282.082,181.68 280.786,181.455 279.74,181.075 278.945,180.528 282.4,181.485 284.469,181.27 285.129,179.884 L284.924,179.806 C284.31,179.543 284.015,179.231 284.037,178.87 284.015,178.509 284.31,178.196 284.924,177.933 285.538,177.67 286.265,177.543 287.129,177.543 287.97,177.543 288.698,177.67 289.312,177.933 289.903,178.196 290.198,178.509 290.198,178.87 290.198,179.66 289.767,180.324 288.925,180.841z M290.721,173.854 C291.358,174.333 291.608,174.85 291.449,175.416 291.29,176.011 290.699,176.538 289.676,177.016 290.926,175.338 289.926,174.537 286.629,174.616 L286.515,174.723 C286.083,175.045 285.47,175.25 284.628,175.338 283.787,175.435 283.014,175.396 282.287,175.211 281.536,175.025 281.059,174.762 280.854,174.401 280.627,174.05 280.718,173.718 281.15,173.396 281.582,173.084 282.196,172.879 283.037,172.781 284.81,172.576 286.402,172.586 287.811,172.801 289.062,173.006 290.039,173.357 290.721,173.854z M275.421,179.426 C274.58,179.426 273.852,179.299 273.238,179.036 271.942,178.479 271.147,177.884 270.897,177.25 270.669,176.674 270.897,176.138 271.556,175.64 272.192,175.162 273.125,174.811 274.352,174.586 275.625,174.352 276.99,174.303 278.467,174.45 274.443,174.82 273.352,175.591 275.148,176.772 L275.421,176.772 C276.262,176.772 276.99,176.899 277.603,177.162 278.217,177.426 278.513,177.738 278.513,178.099 278.513,178.46 278.217,178.772 277.603,179.036 276.99,179.299 276.262,179.426 275.421,179.426z"/>
                  </g>
                </g>
              </g>
            </g>
          </g>
        </g>
        <g id="Layer.__772">
          <g id="MovieClip.__2Fsprite.__20246_136" overflow="visible">
            <g id="Layer.__773">
              <g id="Graphic.__2Fshape.__20272_280" overflow="visible">
                <g id="Layer.__774">
                  <g id="shape978">
                    <path id="path3978" fill="#FFFFFF" fill-opacity="0.5019607843137255" d="M199.099,167.023 Q201.198,168.287 204.628,168.686 C206.847,168.945 209.026,168.876 211.246,168.512 213.546,168.114 215.402,167.439 216.814,166.469 210.681,168.166 207.009,167.785 205.838,165.326 L206.201,165.187 C207.291,164.72 207.816,164.166 207.775,163.525 207.816,162.884 207.291,162.33 206.201,161.862 205.112,161.395 203.821,161.17 202.287,161.17 200.794,161.17 199.503,161.395 198.413,161.862 197.364,162.33 196.84,162.884 196.84,163.525 196.84,164.928 197.606,166.105 199.099,167.023z M195.912,154.623 C194.782,155.472 194.338,156.39 194.62,157.394 194.903,158.451 195.952,159.386 197.768,160.234 195.548,157.256 197.324,155.836 203.175,155.974 L203.377,156.165 C204.143,156.736 205.233,157.1 206.726,157.256 208.219,157.429 209.591,157.36 210.882,157.031 212.214,156.702 213.061,156.234 213.425,155.593 213.828,154.97 213.667,154.381 212.9,153.809 212.133,153.255 211.044,152.892 209.551,152.718 206.403,152.355 203.579,152.372 201.077,152.753 198.857,153.117 197.122,153.74 195.912,154.623z M223.069,164.512 C224.562,164.512 225.853,164.287 226.943,163.819 229.243,162.832 230.655,161.776 231.099,160.65 231.503,159.628 231.099,158.676 229.929,157.793 228.799,156.944 227.144,156.321 224.965,155.922 222.706,155.507 220.285,155.42 217.662,155.68 224.804,156.338 226.741,157.706 223.553,159.801 L223.069,159.801 C221.576,159.801 220.285,160.027 219.195,160.494 218.105,160.962 217.581,161.516 217.581,162.157 217.581,162.797 218.105,163.352 219.195,163.819 220.285,164.287 221.576,164.512 223.069,164.512z"/>
                  </g>
                </g>
              </g>
            </g>
          </g>
        </g>
      </g>
    </g>
  </g>
</svg>