<?xml version="1.0" encoding="utf-8"?>
<!-- Generator: flash2svg, http://dissentgraphics.com/tools/flash2svg -->
<svg xmlns:xlink="http://www.w3.org/1999/xlink" id="sprite.__20250.__20(Wings).__2F28" image-rendering="optimizeSpeed" baseProfile="basic" version="1.1" style="background-color:#ffffff" x="0px" y="0px" width="550px" height="400px" viewBox="0 0 550 400" enable-background="new 0 0 550 400" xmlns="http://www.w3.org/2000/svg">
  <defs transform="matrix(1 0 0 1 0 0) ">
    <radialGradient gradientUnits="userSpaceOnUse" color-interpolation="sRGB" r="143.149" cx="269.901" cy="187.2" fx="269.901" fy="187.2" gradientTransform="matrix(1 0 0 1 0.05 0.05)" id="radialGradient14">
      <stop stop-color="#D9D9D9" stop-opacity="1" offset="0"/>
      <stop stop-color="#FFFFFF" stop-opacity="1" offset="0.11373"/>
      <stop stop-color="#626262" stop-opacity="1" offset="0.33333"/>
      <stop stop-color="#0D0D0D" stop-opacity="1" offset="0.52157"/>
      <stop stop-color="#000000" stop-opacity="1" offset="0.67843"/>
      <stop stop-color="#FFFFFF" stop-opacity="1" offset="0.75294"/>
    </radialGradient>
    <radialGradient gradientUnits="userSpaceOnUse" color-interpolation="sRGB" r="143.149" cx="270.9" cy="187.2" fx="270.9" fy="187.2" gradientTransform="matrix(1 0 0 1 0.05 0.05)" id="radialGradient15">
      <stop stop-color="#D9D9D9" stop-opacity="1" offset="0"/>
      <stop stop-color="#FFFFFF" stop-opacity="1" offset="0.11373"/>
      <stop stop-color="#626262" stop-opacity="1" offset="0.33333"/>
      <stop stop-color="#0D0D0D" stop-opacity="1" offset="0.52157"/>
      <stop stop-color="#000000" stop-opacity="1" offset="0.67843"/>
      <stop stop-color="#FFFFFF" stop-opacity="1" offset="0.75294"/>
    </radialGradient>
  </defs>
  <g id="sprite.__20250.__20(Wings).__2F28">
    <g id="Layer.__201">
      <g id="Graphic.__2Fshape.__20117_1" overflow="visible">
        <g id="Layer.__209">
          <g id="shape94">
            <path id="path90" fill="#000000" fill-opacity="1" d="M361.75,83.3 Q362.3,83.15 362.65,82.8 C360.8,83.3 360,83.55 360.35,83.55 L361.75,83.3z"/>
          </g>
        </g>
      </g>
    </g>
    <g id="Layer.__202">
      <g id="MovieClip.__2Fsprite.__20119_1" overflow="visible">
        <g id="Layer.__210">
          <g id="Graphic.__2Fshape.__20121_2" overflow="visible">
            <g id="Layer.__211">
              <g id="shape95">
                <path id="path91" fill="url(#radialGradient14)" fill-opacity="1" d="M278.55,80.25 L279.55,80.25 292.25,80.25 C295.65,78.65 297.35,77.05 297.35,75.45 297.35,74.3 297.2,73.6 296.85,73.35 L294.85,72.7 278.55,80.25z M231.85,80.25 L236.7,80.25 C240.45,74.9 242.35,71.85 242.35,71.05 242.35,70 242.1,69.4 241.55,69.15 L239.85,68.7 C238.15,70.35 235.15,74.2 230.85,80.25 L231.85,80.25z M258.45,80.25 L259.45,80.25 268.3,80.25 268.1,79.65 267.85,79.2 264.35,78.7 258.45,80.25z"/>
                <path id="path92" fill="url(#radialGradient15)" fill-opacity="1" d="M272.35,87.45 L287.05,82.6 C289.5,81.8 291.6,81 293.25,80.25 L292.25,80.25 279.55,80.25 270.45,84.65 265.45,87.35 C268.05,84.4 269.35,82.4 269.35,81.45 L269.3,80.25 268.3,80.25 259.45,80.25 C250.1,83.2 239,89 226.15,97.55 L225.85,97.75 223.95,99.05 225.4,97.05 233.8,85.6 237.7,80.25 236.7,80.25 231.85,80.25 218.45,99.85 214.15,106.45 209.3,110.75 C207.15,112.85 205.5,114.75 204.35,116.45 L204.35,105.4 204.5,105 C204.8,103.75 204.55,101 203.75,96.7 202.9,92.4 198.95,100.8 191.8,121.85 L186.75,137.45 C184.8,143.8 183.2,149.4 182,154.25 180.75,159.45 179.9,163.8 179.5,167.25 178.75,174.1 178.35,178.45 178.35,180.3 L178.35,180.45 178.35,181.55 177.95,180.45 C176.55,176.6 175.45,172.3 174.6,167.6 L172.35,154.25 C171.4,149.2 170.25,145.05 168.85,141.7 167.2,142.95 166.35,144.65 166.35,146.7 L167.15,154.25 167.2,154.65 C167.95,160.9 168.85,166.6 169.9,171.85 L171.35,178.5 C169.2,174.9 167.7,172.65 166.85,171.7 165.9,172.45 165.15,173.9 164.7,175.95 L164.35,178.95 C164.35,191.35 165.35,203.1 167.35,214.2 168.7,221.4 175.2,229.25 186.8,237.75 L193.7,242.4 C184.15,238.85 170.7,233.95 153.35,227.7 152.45,227.7 151.45,228.7 150.35,230.7 154.9,234.45 164.45,238.95 179,244.3 L194,249.45 C198.05,250.7 201.05,251.45 202.9,251.65 L202.85,252.1 188.85,251.7 171.35,252.2 C170.55,252.35 170.15,252.6 170.15,253 L170.35,254.45 C170.35,255.05 170.6,255.7 171.15,256.45 171.8,257.35 172.85,258.4 174.3,259.55 176.85,261.6 180.15,263.6 184.1,265.45 L185.15,265.95 C196.45,271.1 208.5,273.7 221.35,273.7 L235.6,272.95 246.5,272.8 C237.75,275.85 223.85,279.25 204.9,283.05 L180.7,288.05 C173.8,289.7 170.35,291 170.35,291.95 170.35,293 170.4,293.6 170.55,293.75 L171.35,294.2 173.35,294.7 215.5,286.45 C233.75,282.4 246,278.95 252.35,276.1 L252.4,276.1 252.35,276.2 C251.35,279.1 248.35,283.75 243.4,290.15 L236.35,299.55 C236.35,301.2 236.45,302.1 236.6,302.2 L240.35,302.7 C249,302.7 262.85,297.3 281.9,286.45 286.65,283.75 290.95,281.1 294.8,278.55 L290.35,285.2 C287.8,287.75 281.9,292.6 272.65,299.75 265.1,305.6 261.35,309 261.35,309.95 261.35,311.6 261.45,312.1 261.6,311.45 L262.3,312.35 264.35,312.7 C270.4,312.7 279.85,305.1 292.6,289.95 297.2,284.5 301.4,279.1 305.15,273.65 L309.35,267.2 309.35,292.7 309.6,294.2 312.85,294.7 C318.8,294.7 325.9,284.95 334.25,265.45 L337.9,256.45 338.75,254.25 340.5,249.45 C342.95,242.35 345.55,233.7 348.3,223.45 349.95,226.15 351.1,230.1 351.75,235.35 352.35,240.1 352.75,244.8 353,249.45 L353.05,250.95 352.95,256.45 C352.7,259.3 352.25,262.3 351.55,265.45 L350.8,268.55 348.25,278.55 C348.25,279.7 348.5,280.45 348.95,280.9 349.2,281.1 349.8,281.35 350.75,281.7 L358.9,265.45 359.3,264.5 C360.15,262.55 360.7,259.85 361.05,256.45 L361.25,250.45 361.25,249.45 C361.2,236 360.25,224.5 358.3,214.95 L366.75,226.7 C368.4,226.7 369.25,226.3 369.25,225.45 369.9,221.95 370.25,216.8 370.25,210.05 370.25,201.15 369.95,194.25 369.4,189.4 368.7,183.15 367.3,177.4 365.2,172.15 363.25,167.15 360,161.2 355.35,154.25 L349,145.25 350.15,146.15 C355.05,149.95 359.3,152.65 362.95,154.25 L364.2,154.8 C368.05,156.3 373.35,161.25 380.05,169.6 386,177 389.6,180.7 390.75,180.7 391.8,180.7 392.35,180.6 392.5,180.4 L392.75,179.7 393.1,179.6 393.25,178.2 C393.25,177 390.25,172.75 384.2,165.5 L374.4,154.25 373.5,153.45 C369.45,150.2 362.75,145.35 353.3,138.9 L351.15,137.45 346.35,134.25 357.55,136.7 361.2,137.45 C368.45,138.95 372.5,139.7 373.25,139.7 L378.05,139.2 C378.8,138.9 379.2,138.3 379.25,137.45 L379.25,137.3 C379.25,136.2 376.65,133.7 371.45,129.85 365.8,125.65 359.25,121.5 351.75,117.45 340.95,111.6 330.95,107.25 321.8,104.45 L351.9,104.85 364.25,105.25 364.25,105.05 C364.25,104 364.15,103.5 364,103.55 L363.75,103.95 C361.5,103.65 360,103.2 359.3,102.65 358.3,101.9 357.55,101.4 357.1,101.25 353.8,100.2 342.2,99.7 322.25,99.7 L305.9,99.75 313.2,95.35 C321.9,90.05 326.9,86.85 328.25,85.7 328,85.35 326.7,84.9 324.25,84.4 L318.75,83.7 311.85,83.95 C299.5,85.1 289.25,86.5 281.15,88.1 275.15,89.3 270.15,90.6 266.2,91.95 L272.35,87.45z M369.25,134.2 L368.75,134.45 369.15,134.1 369.25,134.2z M365.05,214.5 L365,214.7 364.75,214.45 365.05,214.5z M314.85,286.2 L315.35,286.55 314.85,287.2 314.85,286.2z M199.1,115.2 L199.35,115.95 198.85,115.65 199.1,115.2z M236.4,269.1 L235.95,269.1 235.95,268.9 236.4,269.1z M244.2,296.7 L243.6,296.95 244.1,296.45 244.2,296.7z"/>
              </g>
            </g>
          </g>
        </g>
      </g>
    </g>
  </g>
</svg>