<?xml version="1.0" encoding="utf-8"?>
<!-- Generator: flash2svg, http://dissentgraphics.com/tools/flash2svg -->
<svg xmlns:xlink="http://www.w3.org/1999/xlink" id="sprite.__20250.__20(Wings).__2F51" image-rendering="optimizeSpeed" baseProfile="basic" version="1.1" style="background-color:#ffffff" x="0px" y="0px" width="550px" height="400px" viewBox="0 0 550 400" enable-background="new 0 0 550 400" xmlns="http://www.w3.org/2000/svg">
  <defs transform="matrix(1 0 0 1 0 0) "/>
  <g id="sprite.__20250.__20(Wings).__2F51">
    <g id="Layer.__227">
      <g id="Graphic.__2Fshape.__20147_1" overflow="visible">
        <g id="Layer.__453">
          <g id="shape553">
            <path id="path1902" fill="#000000" fill-opacity="1" d="M51.35,331.4 Q51.2,332.2 51.65,332.85 C55.1,337.85 59.25,341 64,342.25 L55.45,346.4 C54.95,346.65 54.6,347 54.45,347.55 54.25,348.05 54.25,348.55 54.5,349.05 54.75,349.55 55.1,349.9 55.65,350.1 70.5,355.65 89.9,351.6 113.75,337.95 L114.35,337.4 114.7,336.65 117.75,323.15 C117.85,322.6 117.8,322.15 117.55,321.7 117.3,321.25 116.9,320.95 116.4,320.8 L114.95,320.9 C97.95,329 77.45,331.95 53.5,329.7 52.95,329.65 52.5,329.8 52.1,330.15 51.65,330.45 51.4,330.85 51.35,331.4z"/>
            <path id="path1903" fill="#89E063" fill-opacity="1" d="M66.55,338.3 L67.05,338.75 C68.5,338.9 70,338.9 71.55,338.75 L72.45,338.8 67.15,334.45 63.65,334.35 63.3,334.35 57.9,334.1 C60.45,336.55 63.3,338.1 66.5,338.65 L66.55,338.3z M73.65,339.85 L73.75,340.15 73.8,340.45 73.8,340.05 73.65,339.85z M63.95,348 L65.4,348.2 C70.85,348.75 76.85,348.2 83.35,346.6 86.7,345.75 90.15,344.65 93.75,343.25 L94.2,343.05 94.05,342.55 92.8,342.3 81.2,343.55 71.8,342.95 61.95,347.7 63.25,347.9 63.95,348z"/>
            <path id="path1904" fill="#EAEAEA" fill-opacity="1" d="M67.05,338.75 L66.55,338.3 66.5,338.65 67.05,338.75z M72.9,339.05 L73.65,339.85 73.8,340.05 73.8,340.45 73.8,340.5 73.65,341.5 72.7,342.5 71.8,342.95 81.2,343.55 92.8,342.3 94.05,342.55 94.2,343.05 95.15,342.7 96.15,342.3 96.3,342.2 C100.8,340.3 105.5,338 110.45,335.25 L110.9,334.95 111,334.9 113,326.2 C99.65,331.85 84.4,334.6 67.15,334.45 L72.45,338.8 72.9,339.05z"/>
          </g>
        </g>
      </g>
    </g>
  </g>
</svg>