<?xml version="1.0" encoding="utf-8"?>
<!-- Generator: flash2svg, http://dissentgraphics.com/tools/flash2svg -->
<svg xmlns:xlink="http://www.w3.org/1999/xlink" id="sprite.__20250.__20(Wings).__2F70" image-rendering="optimizeSpeed" baseProfile="basic" version="1.1" style="background-color:#ffffff" x="0px" y="0px" width="550px" height="400px" viewBox="0 0 550 400" enable-background="new 0 0 550 400" xmlns="http://www.w3.org/2000/svg">
  <defs transform="matrix(1 0 0 1 0 0) "/>
  <g id="sprite.__20250.__20(Wings).__2F70">
    <g id="Layer.__213">
      <g id="Graphic.__2Fshape.__20180_1" overflow="visible">
        <g id="Layer.__370">
          <g id="shape437">
            <path id="path688" fill="none" stroke="#000000" stroke-opacity="1" stroke-width="4" stroke-linecap="round" stroke-linejoin="round" d="M90.5,295.35 Q86.75,280.95 88.6,264.1 C105.25,265.6 119.15,275 130.4,292.25 L130.6,292.05 C131.7,290.95 133.05,290.4 134.6,290.4 136.15,290.4 137.5,290.95 138.55,292.05 L138.85,292.3 138.95,292.15 C150.1,274.95 164,265.6 180.65,264.1 181.9,275.35 181.25,285.75 178.75,295.35 182.6,302.7 184.4,311.05 184.25,320.35 178.8,320.8 173.3,320.3 167.75,318.8 172.8,322.3 178.1,325.45 183.65,328.2 181.7,330.65 177,331.15 169.55,329.8 170.8,333.45 170.9,337.15 169.8,340.8 155.35,336 143.85,322.95 135.35,301.6 L134.6,301.65 134.15,301.65 C125.6,322.95 114.15,336 99.7,340.8 98.55,337.15 98.65,333.45 99.95,329.8 92.5,331.15 87.8,330.65 85.85,328.2 91.4,325.4 96.8,322.2 102,318.65 96.25,320.3 90.55,320.85 85,320.35 84.85,311.05 86.65,302.7 90.5,295.35z"/>
            <path id="path689" fill="#FFFFFF" fill-opacity="1" d="M88.6,264.1 Q86.75,280.95 90.5,295.35 C86.65,302.7 84.85,311.05 85,320.35 90.55,320.85 96.25,320.3 102,318.65 112.15,311.55 121.45,302.95 129.95,292.8 L130.4,292.25 C119.15,275 105.25,265.6 88.6,264.1z"/>
            <path id="path690" fill="none" stroke="#000000" stroke-opacity="1" stroke-width="4" stroke-linecap="round" stroke-linejoin="round" d="M88.6,264.1 Q86.75,280.95 90.5,295.35 C86.65,302.7 84.85,311.05 85,320.35 90.55,320.85 96.25,320.3 102,318.65 112.15,311.55 121.45,302.95 129.95,292.8 L130.4,292.25 C119.15,275 105.25,265.6 88.6,264.1z"/>
            <path id="path691" fill="#FFFFFF" fill-opacity="1" d="M129,296.05 C128.95,294.8 129.3,293.75 129.95,292.8 121.45,302.95 112.15,311.55 102,318.65 96.8,322.2 91.4,325.4 85.85,328.2 87.8,330.65 92.5,331.15 99.95,329.8 98.65,333.45 98.55,337.15 99.7,340.8 114.15,336 125.6,322.95 134.15,301.65 133.3,301.6 132.5,301.35 131.75,300.9 L130.6,300 C129.55,298.9 129,297.6 129,296.05z"/>
            <path id="path692" fill="none" stroke="#000000" stroke-opacity="1" stroke-width="4" stroke-linecap="round" stroke-linejoin="round" d="M129,296.05 C128.95,294.8 129.3,293.75 129.95,292.8 121.45,302.95 112.15,311.55 102,318.65 96.8,322.2 91.4,325.4 85.85,328.2 87.8,330.65 92.5,331.15 99.95,329.8 98.65,333.45 98.55,337.15 99.7,340.8 114.15,336 125.6,322.95 134.15,301.65 133.3,301.6 132.5,301.35 131.75,300.9 L130.6,300 C129.55,298.9 129,297.6 129,296.05z"/>
            <path id="path693" fill="#FFFFFF" fill-opacity="1" d="M129.95,292.8 C129.3,293.75 128.95,294.8 129,296.05 129,297.6 129.55,298.9 130.6,300 L131.75,300.9 C132.5,301.35 133.3,301.6 134.15,301.65 L134.6,301.65 135.35,301.6 137.15,301.05 138.55,300 C139.65,298.9 140.2,297.6 140.25,296.05 140.2,294.6 139.75,293.35 138.85,292.3 L138.55,292.05 C137.5,290.95 136.15,290.4 134.6,290.4 133.05,290.4 131.7,290.95 130.6,292.05 L130.4,292.25 129.95,292.8z"/>
            <path id="path694" fill="none" stroke="#000000" stroke-opacity="1" stroke-width="4" stroke-linecap="round" stroke-linejoin="round" d="M129.95,292.8 C129.3,293.75 128.95,294.8 129,296.05 129,297.6 129.55,298.9 130.6,300 L131.75,300.9 C132.5,301.35 133.3,301.6 134.15,301.65 L134.6,301.65 135.35,301.6 137.15,301.05 138.55,300 C139.65,298.9 140.2,297.6 140.25,296.05 140.2,294.6 139.75,293.35 138.85,292.3 L138.55,292.05 C137.5,290.95 136.15,290.4 134.6,290.4 133.05,290.4 131.7,290.95 130.6,292.05 L130.4,292.25 129.95,292.8z"/>
            <path id="path695" fill="#FFFFFF" fill-opacity="1" d="M138.85,292.3 C139.75,293.35 140.2,294.6 140.25,296.05 140.2,297.6 139.65,298.9 138.55,300 L137.15,301.05 135.35,301.6 C143.85,322.95 155.35,336 169.8,340.8 170.9,337.15 170.8,333.45 169.55,329.8 177,331.15 181.7,330.65 183.65,328.2 178.1,325.45 172.8,322.3 167.75,318.8 157.3,311.55 147.7,302.7 138.95,292.2 L138.85,292.3z"/>
            <path id="path696" fill="none" stroke="#000000" stroke-opacity="1" stroke-width="4" stroke-linecap="round" stroke-linejoin="round" d="M138.85,292.3 C139.75,293.35 140.2,294.6 140.25,296.05 140.2,297.6 139.65,298.9 138.55,300 L137.15,301.05 135.35,301.6 C143.85,322.95 155.35,336 169.8,340.8 170.9,337.15 170.8,333.45 169.55,329.8 177,331.15 181.7,330.65 183.65,328.2 178.1,325.45 172.8,322.3 167.75,318.8 157.3,311.55 147.7,302.7 138.95,292.2"/>
            <path id="path697" fill="none" stroke="#000000" stroke-opacity="1" stroke-width="4" stroke-linecap="round" stroke-linejoin="round" d="M138.95,292.2 L138.95,292.15 138.85,292.3"/>
            <path id="path698" fill="#FFFFFF" fill-opacity="1" d="M138.95,292.15 L138.95,292.2 C147.7,302.7 157.3,311.55 167.75,318.8 173.3,320.3 178.8,320.8 184.25,320.35 184.4,311.05 182.6,302.7 178.75,295.35 181.25,285.75 181.9,275.35 180.65,264.1 164,265.6 150.1,274.95 138.95,292.15z"/>
            <path id="path699" fill="none" stroke="#000000" stroke-opacity="1" stroke-width="4" stroke-linecap="round" stroke-linejoin="round" d="M138.95,292.15 L138.95,292.2 C147.7,302.7 157.3,311.55 167.75,318.8 173.3,320.3 178.8,320.8 184.25,320.35 184.4,311.05 182.6,302.7 178.75,295.35 181.25,285.75 181.9,275.35 180.65,264.1 164,265.6 150.1,274.95 138.95,292.15z"/>
          </g>
        </g>
      </g>
    </g>
  </g>
</svg>