<?xml version="1.0" encoding="utf-8"?>
<!-- Generator: flash2svg, http://dissentgraphics.com/tools/flash2svg -->
<svg xmlns:xlink="http://www.w3.org/1999/xlink" id="sprite.__20250.__20(Wings).__2F78" image-rendering="optimizeSpeed" baseProfile="basic" version="1.1" style="background-color:#ffffff" x="0px" y="0px" width="550px" height="400px" viewBox="0 0 550 400" enable-background="new 0 0 550 400" xmlns="http://www.w3.org/2000/svg">
  <defs transform="matrix(1 0 0 1 0 0) "/>
  <g id="sprite.__20250.__20(Wings).__2F78">
    <g id="Layer.__227">
      <g id="Graphic.__2Fshape.__20195_1" overflow="visible">
        <g id="Layer.__458">
          <g id="shape511">
            <path id="path1079" fill="#FFFFFF" fill-opacity="1" d="M297.25,132.1 Q259.55,160.3 212.85,164.65 C201.95,193.8 181.55,220.35 151.6,244.3 L154.1,251.3 C188.65,222.6 222.6,211.2 255.9,217.05 282.1,198.5 295.9,170.2 297.25,132.1z M129.55,286.2 L128,279.3 C108.5,291.9 89.5,299.65 71.05,302.55 64.4,303.6 57.85,304 51.35,303.8 L15.3,340 C34.65,343.85 55.55,344.3 78,341.35 84.75,326.05 94.05,313.1 105.85,302.55 112.85,296.25 120.75,290.8 129.55,286.2z M126.75,268.35 L131.8,264 75.45,240.65 C46.1,243.8 18.5,241.3 -7.45,233.15 -1.8,262.8 15.65,279.55 44.8,283.3 50.25,266.75 77.6,261.75 126.75,268.35z M140.8,251.3 L143.3,244.3 C113.35,220.35 92.95,193.8 82.05,164.65 50.9,161.75 22.8,150.9 -2.35,132.1 -1,170.2 12.8,198.5 39,217.05 72.3,211.2 106.25,222.6 140.8,251.3z M250.1,283.3 C279.25,279.55 296.7,262.8 302.35,233.15 276.4,241.3 248.8,243.8 219.45,240.65 200.7,248.45 181.9,256.25 163.1,264 L168.15,268.35 C217.3,261.75 244.65,266.75 250.1,283.3z M166.9,279.3 L165.35,286.2 C174.15,290.8 182.05,296.25 189.1,302.55 200.85,313.1 210.15,326.05 216.9,341.35 239.35,344.3 260.25,343.85 279.6,340 L243.55,303.8 C237.05,304 230.5,303.6 223.85,302.55 205.4,299.65 186.4,291.9 166.9,279.3z"/>
            <path id="path1080" fill="none" stroke="#000000" stroke-opacity="1" stroke-width="5" stroke-linecap="round" stroke-linejoin="round" d="M297.25,132.1 Q259.55,160.3 212.85,164.65 C201.95,193.8 181.55,220.35 151.6,244.3 L154.1,251.3 C188.65,222.6 222.6,211.2 255.9,217.05 282.1,198.5 295.9,170.2 297.25,132.1z"/>
            <path id="path1081" fill="none" stroke="#000000" stroke-opacity="1" stroke-width="5" stroke-linecap="round" stroke-linejoin="round" d="M129.55,286.2 L128,279.3 C108.5,291.9 89.5,299.65 71.05,302.55 64.4,303.6 57.85,304 51.35,303.8 L15.3,340 C34.65,343.85 55.55,344.3 78,341.35 84.75,326.05 94.05,313.1 105.85,302.55 112.85,296.25 120.75,290.8 129.55,286.2z"/>
            <path id="path1082" fill="none" stroke="#000000" stroke-opacity="1" stroke-width="5" stroke-linecap="round" stroke-linejoin="round" d="M126.75,268.35 L131.8,264 75.45,240.65 C46.1,243.8 18.5,241.3 -7.45,233.15 -1.8,262.8 15.65,279.55 44.8,283.3 50.25,266.75 77.6,261.75 126.75,268.35z"/>
            <path id="path1083" fill="none" stroke="#000000" stroke-opacity="1" stroke-width="5" stroke-linecap="round" stroke-linejoin="round" d="M140.8,251.3 L143.3,244.3 C113.35,220.35 92.95,193.8 82.05,164.65 50.9,161.75 22.8,150.9 -2.35,132.1 -1,170.2 12.8,198.5 39,217.05 72.3,211.2 106.25,222.6 140.8,251.3z"/>
            <path id="path1084" fill="none" stroke="#000000" stroke-opacity="1" stroke-width="5" stroke-linecap="round" stroke-linejoin="round" d="M250.1,283.3 C279.25,279.55 296.7,262.8 302.35,233.15 276.4,241.3 248.8,243.8 219.45,240.65 200.7,248.45 181.9,256.25 163.1,264 L168.15,268.35 C217.3,261.75 244.65,266.75 250.1,283.3z"/>
            <path id="path1085" fill="none" stroke="#000000" stroke-opacity="1" stroke-width="5" stroke-linecap="round" stroke-linejoin="round" d="M166.9,279.3 L165.35,286.2 C174.15,290.8 182.05,296.25 189.1,302.55 200.85,313.1 210.15,326.05 216.9,341.35 239.35,344.3 260.25,343.85 279.6,340 L243.55,303.8 C237.05,304 230.5,303.6 223.85,302.55 205.4,299.65 186.4,291.9 166.9,279.3z"/>
          </g>
        </g>
        <g id="Layer.__459">
          <g id="shape512">
            <path id="path1086" fill="#999999" fill-opacity="1" d="M223.7,175.65 Q222.85,174.8 221.6,174.8 C220.75,174.8 220.05,175.1 219.45,175.65 218.9,176.25 218.6,176.95 218.6,177.8 218.6,178.65 218.9,179.35 219.45,179.9 220.05,180.5 220.75,180.8 221.6,180.8 222.45,180.8 223.15,180.5 223.7,179.9 224.3,179.35 224.6,178.65 224.6,177.8 224.6,176.95 224.3,176.25 223.7,175.65z M28.25,182.05 C27.4,182.05 26.7,182.35 26.1,182.9 25.55,183.5 25.25,184.2 25.25,185.05 25.25,185.9 25.55,186.6 26.1,187.15 26.7,187.75 27.4,188.05 28.25,188.05 29.1,188.05 29.8,187.75 30.35,187.15 30.95,186.6 31.25,185.9 31.25,185.05 31.25,184.2 30.95,183.5 30.35,182.9 29.8,182.35 29.1,182.05 28.25,182.05z M56.05,246.05 C55.2,246.05 54.5,246.35 53.9,246.9 53.35,247.5 53.05,248.2 53.05,249.05 53.05,249.9 53.35,250.6 53.9,251.15 54.5,251.75 55.2,252.05 56.05,252.05 56.9,252.05 57.6,251.75 58.15,251.15 58.75,250.6 59.05,249.9 59.05,249.05 59.05,248.2 58.75,247.5 58.15,246.9 57.6,246.35 56.9,246.05 56.05,246.05z M58.55,336.05 C59.4,336.05 60.1,335.75 60.65,335.15 61.25,334.6 61.55,333.9 61.55,333.05 61.55,332.2 61.25,331.5 60.65,330.9 60.1,330.35 59.4,330.05 58.55,330.05 57.7,330.05 57,330.35 56.4,330.9 55.85,331.5 55.55,332.2 55.55,333.05 55.55,333.9 55.85,334.6 56.4,335.15 57,335.75 57.7,336.05 58.55,336.05z M259,273.15 C259.6,272.6 259.9,271.9 259.9,271.05 259.9,270.2 259.6,269.5 259,268.9 258.45,268.35 257.75,268.05 256.9,268.05 256.05,268.05 255.35,268.35 254.75,268.9 254.2,269.5 253.9,270.2 253.9,271.05 253.9,271.9 254.2,272.6 254.75,273.15 255.35,273.75 256.05,274.05 256.9,274.05 257.75,274.05 258.45,273.75 259,273.15z M241.4,334.05 C242.25,334.05 242.95,333.75 243.5,333.15 244.1,332.6 244.4,331.9 244.4,331.05 244.4,330.2 244.1,329.5 243.5,328.9 242.95,328.35 242.25,328.05 241.4,328.05 240.55,328.05 239.85,328.35 239.25,328.9 238.7,329.5 238.4,330.2 238.4,331.05 238.4,331.9 238.7,332.6 239.25,333.15 239.85,333.75 240.55,334.05 241.4,334.05z"/>
            <path id="path1087" fill="none" stroke="#999999" stroke-opacity="1" stroke-width="5" stroke-linecap="round" stroke-linejoin="round" d="M196.9,211.6 C210.45,198.4 225.95,192.15 243.3,192.8 L233.85,205.25 C233.8,200.45 236.95,196.3 243.3,192.8 L235.6,170.6 C236.2,182.95 240.65,187.45 248.9,184.2 L248.9,172.8 C249.65,177.2 249.65,181 248.9,184.2 248.05,187.85 246.15,190.75 243.3,192.8 257.45,194.3 268.35,185.8 276.1,167.3"/>
            <path id="path1088" fill="none" stroke="#999999" stroke-opacity="1" stroke-width="5" stroke-linecap="round" stroke-linejoin="round" d="M34.15,199.3 C37.7,197.4 40.1,194.9 41.4,191.75 42.35,189.5 42.6,187.25 42.2,185 L23.15,173.3 C27.9,173 31.95,173.8 35.3,175.75 38.35,177.5 40.45,179.85 41.6,182.9 L42.2,185 C48.65,185.85 53.25,181.1 56,170.7 56.65,177.5 59.55,183.9 64.7,189.95 69,183.9 73.8,183.9 79.15,189.95 L64.7,189.95 C71.25,197.6 81.45,204.6 95.35,210.95"/>
            <path id="path1089" fill="none" stroke="#999999" stroke-opacity="1" stroke-width="5" stroke-linecap="round" stroke-linejoin="round" d="M86.75,257.95 C55.75,264 31.15,260.75 13,248.15 17.95,258.8 25.75,267.75 36.3,275"/>
            <path id="path1090" fill="none" stroke="#999999" stroke-opacity="1" stroke-width="5" stroke-linecap="round" stroke-linejoin="round" d="M69.6,331.45 C69.35,328.75 68.15,326.55 66.1,324.85 L46.65,330.8 C47.55,327.9 49.25,325.7 51.7,324.15 53.95,322.75 56.4,322.15 59.15,322.3 61.25,322.4 63.1,322.95 64.75,323.9 L66.1,324.85 L64.75,323.9 C74.35,314.3 83.95,308.5 93.55,306.55"/>
            <path id="path1091" fill="none" stroke="#999999" stroke-opacity="1" stroke-width="5" stroke-linecap="round" stroke-linejoin="round" d="M280.1,258.3 L274.65,257.55 L207.45,258.3 C230.85,255 253.25,254.75 274.65,257.55 L288.1,249.3"/>
            <path id="path1092" fill="none" stroke="#999999" stroke-opacity="1" stroke-width="5" stroke-linecap="round" stroke-linejoin="round" d="M228.15,331.75 C224,325.65 223.35,321.35 226.2,318.9 L202.05,305.45 L226.2,318.9 C229.3,316.15 236.6,315.65 248.1,317.3"/>
          </g>
        </g>
      </g>
    </g>
  </g>
</svg>