<?xml version="1.0" encoding="utf-8"?>
<!-- Generator: flash2svg, http://dissentgraphics.com/tools/flash2svg -->
<svg xmlns:xlink="http://www.w3.org/1999/xlink" id="sprite.__20250.__20(Wings).__2F8" image-rendering="optimizeSpeed" baseProfile="basic" version="1.1" style="background-color:#ffffff" x="0px" y="0px" width="550px" height="400px" viewBox="0 0 550 400" enable-background="new 0 0 550 400" xmlns="http://www.w3.org/2000/svg">
  <defs transform="matrix(1 0 0 1 0 0) "/>
  <g id="sprite.__20250.__20(Wings).__2F8">
    <g id="Layer.__209">
      <g id="Graphic.__2Fshape.__2103_1" overflow="visible">
        <g id="Layer.__269">
          <g id="shape589">
            <path id="path663" fill="#000000" fill-opacity="1" d="M138.45,215.4 C138,216.65 137.85,218 138,219.55 L138.55,223.6 C138.6,225.35 138.85,227 139.2,228.65 139.5,230.3 139.9,231.5 140.35,232.35 137.9,230.6 135.15,228.65 132,226.55 128.95,224.5 125.3,222.45 120.95,220.3 L109.1,214.7 C107.95,214.1 105.8,211.65 102.7,207.3 99.7,203.1 98.1,201 97.95,201.05 95.8,201.3 94.65,206.9 94.5,217.75 94.45,223.2 94.5,227.65 94.7,231.2 81.5,217.6 74.15,210.9 72.7,211.05 68.85,211.5 66.15,216.55 64.65,226.15 64.15,229.2 63.8,232.55 63.65,236.1 63.5,238.75 63.45,240.4 63.55,240.95 64,243 64.65,245.05 65.45,247 L66.3,248.9 57.2,242.3 C56.05,242.45 55.55,244.4 55.8,248.2 L56.65,255.2 57.3,260.65 C55.65,258.3 53.7,256.05 51.5,253.9 45.45,248.15 40.25,245.5 35.8,246.05 34.75,246.2 34.2,246.7 34.05,247.55 33.95,247.9 33.95,248.6 34.1,249.7 35.45,254.35 36.15,257.15 36.3,258.1 L34.35,270.55 C33,278.3 32.55,284.2 33.05,288.25 34.25,291.55 35.7,294.8 37.4,298.05 40.25,303.45 42.75,306.45 44.95,307.1 L44.75,313.9 C44.75,316.75 44.8,318.6 44.95,319.55 45.4,323.2 46.65,326.8 48.7,330.4 51.35,335 55.05,338.9 59.8,342.1 72.55,350.7 91.25,353.5 115.9,350.5 122.15,349.75 126.4,348.6 128.6,347.1 129.95,346.1 130.55,344.8 130.4,343.2 L130.15,342.25 C129.75,341.45 128.95,341.15 127.7,341.3 126.7,341.45 126.05,341.85 125.7,342.55 L125.15,343.95 C124.65,344.8 124.55,345.45 124.9,345.9 L122.55,345.9 104.75,347.4 C87.9,349.45 74.1,346.85 63.35,339.5 59.1,336.6 55.75,333.2 53.2,329.25 52.2,327.7 51.4,326.2 50.75,324.75 L50,322.7 49.85,322.2 49.25,319.55 49.2,319.15 49.15,319.1 49.2,319.05 49.2,319 C48.75,315.5 48.95,311.05 49.7,305.7 50.5,300.05 51.65,296 53.1,293.45 54.35,294.4 56.4,295.75 59.35,297.5 L63,299.55 65.1,300.6 66.45,301.25 C69.9,302.7 75.55,304.5 83.5,306.7 84.15,306.65 84.6,306.4 84.9,305.95 L92.15,312.85 C96.2,316.45 101.1,319.85 106.95,323.1 115.15,327.65 121.95,329.65 127.35,329 129.35,328.75 130.25,327.9 130.1,326.55 L116.4,321.2 C106.55,317.15 99.95,313.8 96.55,311.15 93.6,308.8 90.2,305.55 86.25,301.4 L77.4,291.9 73.4,287.5 71.4,284.85 C64.35,275.2 60.75,264.05 60.5,251.4 69.2,257.05 75.55,260.9 79.6,262.85 L79.85,263 80,263.1 83.45,264.35 C86.1,265.05 88.9,265.25 91.75,264.9 93.1,264.75 96.7,263.85 102.55,262.25 106.9,261.05 110.55,260.7 113.6,261.15 117.85,261.75 122.1,263.95 126.35,267.8 127.5,268.8 129.75,273 133.1,280.35 136.45,287.65 138.25,292.25 138.5,294.15 138.75,302.5 138.95,307.15 139.05,308.1 L139.5,310.65 140.4,311.05 141.6,311.1 C143.2,310.9 143.7,306.65 143.15,298.4 L142.75,293.65 C142.35,290.4 140.3,285 136.65,277.45 132.8,269.5 129.65,264.7 127.2,262.95 123.05,260 118.8,258.4 114.4,258.2 L109.15,258.5 109,258.5 109.05,257.8 109.05,257.75 C109,257.3 107.5,254.6 104.6,249.6 101.55,243.85 99.8,238.85 99.3,234.6 L98.7,229.5 98.7,229.4 98.7,229.25 98.6,228.25 98.6,228.2 98.45,226.5 98.4,226.4 98.4,226.2 98.4,225.65 98.4,225.4 98.4,225.35 99.5,212.55 99.65,212.55 C102.1,214.65 106.55,217.6 113,221.45 L114.65,222.45 117.1,223.9 118.3,224.6 118.7,224.85 119,225 128.95,230.85 130.5,231.8 130.85,231.95 C145.8,241.05 153.6,248.2 154.25,253.35 L154.1,262.75 153.45,275 C153.1,278.05 151.45,282.7 148.45,288.95 145.55,294.85 144.15,298 144.2,298.35 144.15,298.85 144.2,299.3 144.4,299.75 144.75,300.55 145.5,300.9 146.65,300.75 148,300.55 150.1,297.45 152.85,291.5 155.7,285.35 157.3,280.4 157.65,276.55 L158.3,264.1 158.35,262.35 159.25,262.75 160.4,262.8 C161.85,262.6 162.45,261.55 162.2,259.7 162.15,259.4 162.3,258.95 162.65,258.35 L162.95,257.45 170.35,256.05 177.35,255 C180.9,253 183.65,250.9 185.6,248.65 L187.1,247.1 190,244.3 193.35,241.2 C196.45,238.2 197.95,236 197.85,234.65 200.3,236.9 203.4,240.45 207.15,245.35 L207.95,246.4 208.1,246.6 208.2,246.75 212.9,253.7 213.3,254.55 C214.1,256.05 214.55,257.3 214.7,258.3 215.25,262.85 210.1,269.25 199.15,277.4 L198.7,277.75 198.4,277.95 192.55,282.05 176.75,292.2 C174.5,292.65 172.65,293.3 171.3,294.25 169.9,295.2 169.25,296.15 169.35,297.1 L169.45,297.55 169.45,297.65 C169.5,298.2 169.6,298.55 169.75,298.7 170.2,299.25 171.15,299.45 172.65,299.3 L177.05,296.95 181.05,296.1 C183.95,295.75 187.35,296.45 191.25,298.3 L202.4,304.65 C205.2,306.25 207.85,307.6 210.35,308.75 L210.8,308.95 211.65,309.3 212.45,309.65 213.3,310 215.75,310.85 C221.25,312.6 226.85,313.3 232.55,312.85 232.15,313.4 231.9,313.8 231.85,314.1 230.8,315.05 229,316.4 226.4,318.25 222.75,320.8 218.85,323.25 214.75,325.55 L212.95,326.55 212.7,326.7 211.85,327.1 209.45,328.35 208.8,328.65 C198.7,333.55 188.95,336.55 179.5,337.7 176.2,338.1 170.05,336.8 161.05,333.75 152.6,330.6 148.15,329.05 147.8,329.1 146.35,329.25 145.75,330.15 146,331.8 146.1,332.95 147.5,334.15 150.15,335.5 152.65,336.8 155.85,338 159.8,339.1 169,341.65 177,342.5 183.85,341.65 193.8,340.4 205.75,335.4 219.75,326.6 225.1,323.2 229.65,319.95 233.4,316.8 237,313.7 238.75,311.65 238.65,310.7 L238.2,309.35 236.1,309.25 C231.45,309.45 225.6,309 218.45,307.95 L217.1,307.65 C218.7,306.7 220.6,305.45 222.75,303.85 227.85,299.95 230.9,296.45 231.9,293.35 232.15,292.5 232.5,289.6 232.85,284.7 233.2,279.75 233.35,276.85 233.25,275.9 L232.9,273.4 C232.4,271.8 231.4,271.1 229.95,271.3 229.2,271.35 228.55,271.6 228,272.05 L226.25,273.4 C224.2,274.75 220.9,275.7 216.3,276.25 L215.1,276.2 214.4,276.05 207.9,276.25 C215.9,269.1 219.6,263 218.95,257.85 L216.7,253 C214.85,249.2 212.95,245.7 211,242.55 205,232.5 200.05,227.75 196.2,228.2 L188,239.75 188.35,233.35 185.25,225.95 178.05,210 C170.75,194.55 166.05,187 163.9,187.3 155.3,198.6 150.3,204.7 148.85,205.55 143,208.95 139.55,212.25 138.45,215.4z"/>
            <path id="path664" fill="#FFFFFF" fill-opacity="1" d="M165.6,197.15 L164.25,194.85 C162.1,198.05 157.9,202.25 151.65,207.4 L151.6,207.45 C151.55,207.45 151.5,207.5 151.45,207.55 L146.05,212.1 C143.95,213.95 142.7,215.15 142.3,215.75 L148.8,215.5 C151.45,216.35 154.4,217.15 157.55,217.9 163.85,219.4 168.3,219.9 170.85,219.35 L177.9,218.75 177.4,217.8 176.45,216.1 176.15,215.5 175.9,215.1 167.15,199.7 166.75,199.05 165.6,197.15z M89.2,233.45 L88.55,232.75 87.35,231.45 85.65,229.45 79.35,221.65 C77,218.85 75.15,216.95 73.75,215.95 72.1,217.85 70.55,221.75 69.2,227.6 68.55,230.5 68.1,233.05 67.9,235.3 L67.7,238.6 69.35,239.05 C72.7,239.8 75.1,239.05 76.45,236.85 78.3,239.5 81.1,239.6 84.85,237.15 86.4,236.1 87.85,234.9 89.2,233.45z M39.65,265.95 L38.9,270.65 C39.65,270.8 40.45,270.25 41.2,269.1 42.2,267.55 42.9,266.6 43.35,266.35 44.7,265.6 46.35,265.4 48.3,265.85 L52.6,265.7 53.65,264.75 53.4,264.5 51.65,262.3 50.35,260.7 C45.9,255 42.2,251.7 39.25,250.8 39.7,252.1 40.1,254.3 40.5,257.45 L40.55,257.5 40.55,257.55 40.55,257.8 40.55,258.15 39.85,264.75 39.75,265.35 39.65,265.95z M213.3,280.6 L213.15,281.15 C212.4,284.4 212.45,287.7 213.2,291.1 213.95,294.55 213.9,298.6 212.95,303.25 213.7,302.7 214.8,302 216.25,301.25 L218.1,300.2 C220.95,298.65 222.95,297.5 224.1,296.65 226.05,295.2 227.15,293.7 227.45,292.15 228.55,286.6 229.1,281.65 229.1,277.3 L228.85,276.95 225.75,278.9 C224.5,279.5 222.75,279.95 220.4,280.2 L216.15,280.45 216,280.45 215.9,280.45 213.95,280.6 213.3,280.6z M114.65,222.45 L113,221.45 C106.55,217.6 102.1,214.65 99.65,212.55 L99.5,212.55 98.4,225.35 98.4,225.4 98.4,225.65 98.4,226.2 98.4,226.4 98.45,226.5 98.6,228.2 98.6,228.25 98.7,229.25 98.7,229.4 98.7,229.5 C99.4,229.65 103.05,228.85 109.6,227.2 L118.7,224.85 118.3,224.6 117.1,223.9 114.65,222.45z M80,263.1 L79.85,263 79.6,262.85 C75.55,260.9 69.2,257.05 60.5,251.4 60.75,264.05 64.35,275.2 71.4,284.85 L73.4,287.5 C74.45,286.65 75.55,285.35 76.8,283.7 79.1,280.6 80.35,278.6 80.6,277.65 80.9,276.2 80.95,274.85 80.75,273.5 80.5,272.15 80.55,270.75 80.9,269.35 81.25,267.9 82.1,266.2 83.45,264.35 L80,263.1z M66.45,301.25 L65.1,300.6 63,299.55 59.35,297.5 C56.4,295.75 54.35,294.4 53.1,293.45 51.65,296 50.5,300.05 49.7,305.7 48.95,311.05 48.75,315.5 49.2,319 L49.2,319.05 49.15,319.1 49.2,319.15 49.25,319.55 49.85,322.2 50,322.7 50.75,324.75 50.95,324.8 C56,325.9 59.75,322.15 62.2,313.5 62.85,311.35 63.75,308.8 64.9,305.9 L66.45,301.25z M208.2,246.75 L208.1,246.6 207.95,246.4 207.15,245.35 C203.4,240.45 200.3,236.9 197.85,234.65 197.95,236 196.45,238.2 193.35,241.2 L190,244.3 187.1,247.1 C187.15,247.75 187.25,248.4 187.5,249.1 L188,249.2 C189.35,249.5 190.3,250.1 190.85,251 L191.75,252.25 202.95,253.5 213.3,254.55 212.9,253.7 208.2,246.75z M226.4,318.25 C229,316.4 230.8,315.05 231.85,314.1 231.9,313.8 232.15,313.4 232.55,312.85 226.85,313.3 221.25,312.6 215.75,310.85 L213.3,310 212.45,309.65 211.65,309.3 210.8,308.95 210.35,308.75 C210,309.5 209.65,310.5 209.4,311.75 209.1,313 209.3,314.95 210,317.6 210.7,320.2 210.85,322.35 210.5,324.1 L209.45,326.2 208.55,327.55 C208.45,328 208.55,328.35 208.8,328.65 L209.45,328.35 211.85,327.1 212.7,326.7 212.95,326.55 214.75,325.55 C218.85,323.25 222.75,320.8 226.4,318.25z"/>
            <path id="path665" fill="#FEE170" fill-opacity="1" d="M142.3,215.75 L142.2,215.95 C141.85,216.7 141.8,218.05 142.05,220.05 L142.95,225.8 C143.7,230.65 143.35,233.2 141.9,233.4 L141.85,233.4 C144.95,235.65 147.35,237.5 149.1,239.05 154.85,244.1 158,248.7 158.5,252.85 L158.55,255.75 C159.3,253.95 160.7,252.85 162.65,252.45 172.8,250.35 179,248.75 181.3,247.6 L181.1,246.75 C181,246.1 181.15,245.35 181.5,244.45 L182.75,241.8 C183.95,239.05 184.4,236.35 184.05,233.65 L184.05,233.6 184,233.4 184,233.35 183.9,232.65 182.6,228.7 178.3,219.5 177.9,218.75 170.85,219.35 C168.3,219.9 163.85,219.4 157.55,217.9 154.4,217.15 151.45,216.35 148.8,215.5 L142.3,215.75z M89.25,233.5 L89.2,233.45 C87.85,234.9 86.4,236.1 84.85,237.15 81.1,239.6 78.3,239.5 76.45,236.85 75.1,239.05 72.7,239.8 69.35,239.05 L67.7,238.6 C67.7,239.4 67.75,240.15 67.85,240.85 67.9,241.35 68.55,243 69.9,245.8 L71.85,250.05 71.75,251.6 71,252.25 76.65,256.15 C81.3,259.1 86,260.75 90.75,261 93.6,261.15 97.65,260.7 102.8,259.6 L103.8,259.4 C101.15,257.95 99,254.2 97.35,248.15 96.5,244.95 95.85,241.7 95.4,238.35 L95.35,238.35 95.15,238.25 95.05,238.2 94.65,238 94.6,237.95 94.5,237.9 89.25,233.5z M38.9,270.65 L38.75,271.3 C37.4,279.05 36.9,284.4 37.25,287.35 37.55,289.65 39.4,292.75 42.75,296.7 L45.65,300.35 C46.8,292.35 48.95,288.15 52.15,287.8 L66.9,296.65 C70.85,298.85 75.05,300.15 79.55,300.6 L73.8,294.35 71.9,292.25 C66.1,285.5 62.25,279.6 60.3,274.5 59.6,272.65 59,270.55 58.55,268.3 L58.1,268.35 C57.35,268.45 56.25,267.7 54.8,266.15 L53.65,264.75 52.6,265.7 48.3,265.85 C46.35,265.4 44.7,265.6 43.35,266.35 42.9,266.6 42.2,267.55 41.2,269.1 40.45,270.25 39.65,270.8 38.9,270.65z M201.65,281.4 L196.65,285 C193.1,287.45 189.3,289.9 185.25,292.35 188.1,292.9 191.25,293.85 194.8,295.3 199.95,297.45 203.85,299.55 206.6,301.65 L211.25,304.85 212.5,303.6 212.95,303.25 C213.9,298.6 213.95,294.55 213.2,291.1 212.45,287.7 212.4,284.4 213.15,281.15 L213.3,280.6 201.65,281.4z M228.9,276.9 L229.1,277.3 228.85,276.95 228.9,276.9z M130.85,231.95 L130.5,231.8 128.95,230.85 119,225 118.7,224.85 109.6,227.2 C103.05,228.85 99.4,229.65 98.7,229.5 L99.3,234.6 C99.8,238.85 101.55,243.85 104.6,249.6 107.5,254.6 109,257.3 109.05,257.75 L109.05,257.8 109,258.5 109.15,258.5 114.4,258.2 C118.8,258.4 123.05,260 127.2,262.95 129.65,264.7 132.8,269.5 136.65,277.45 140.3,285 142.35,290.4 142.75,293.65 L143.15,298.4 C143.7,306.65 143.2,310.9 141.6,311.1 L140.4,311.05 139.5,310.65 139.05,308.1 C138.95,307.15 138.75,302.5 138.5,294.15 138.25,292.25 136.45,287.65 133.1,280.35 129.75,273 127.5,268.8 126.35,267.8 122.1,263.95 117.85,261.75 113.6,261.15 110.55,260.7 106.9,261.05 102.55,262.25 96.7,263.85 93.1,264.75 91.75,264.9 88.9,265.25 86.1,265.05 83.45,264.35 82.1,266.2 81.25,267.9 80.9,269.35 80.55,270.75 80.5,272.15 80.75,273.5 80.95,274.85 80.9,276.2 80.6,277.65 80.35,278.6 79.1,280.6 76.8,283.7 75.55,285.35 74.45,286.65 73.4,287.5 L77.4,291.9 86.25,301.4 C90.2,305.55 93.6,308.8 96.55,311.15 99.95,313.8 106.55,317.15 116.4,321.2 L130.1,326.55 C130.25,327.9 129.35,328.75 127.35,329 121.95,329.65 115.15,327.65 106.95,323.1 101.1,319.85 96.2,316.45 92.15,312.85 L84.9,305.95 C84.6,306.4 84.15,306.65 83.5,306.7 75.55,304.5 69.9,302.7 66.45,301.25 L64.9,305.9 C63.75,308.8 62.85,311.35 62.2,313.5 59.75,322.15 56,325.9 50.95,324.8 L50.75,324.75 C51.4,326.2 52.2,327.7 53.2,329.25 55.75,333.2 59.1,336.6 63.35,339.5 74.1,346.85 87.9,349.45 104.75,347.4 L122.55,345.9 124.9,345.9 C124.55,345.45 124.65,344.8 125.15,343.95 L125.7,342.55 C126.05,341.85 126.7,341.45 127.7,341.3 128.95,341.15 129.75,341.45 130.15,342.25 L130.55,342.1 C130.8,342.95 131.65,343.55 133.05,343.9 133.7,344.05 135.8,342.6 139.25,339.65 142.7,336.65 144.5,334.65 144.75,333.7 L144.85,332.25 146,331.8 C145.75,330.15 146.35,329.25 147.8,329.1 148.15,329.05 152.6,330.6 161.05,333.75 170.05,336.8 176.2,338.1 179.5,337.7 188.95,336.55 198.7,333.55 208.8,328.65 208.55,328.35 208.45,328 208.55,327.55 L209.45,326.2 210.5,324.1 C210.85,322.35 210.7,320.2 210,317.6 209.3,314.95 209.1,313 209.4,311.75 209.65,310.5 210,309.5 210.35,308.75 207.85,307.6 205.2,306.25 202.4,304.65 L191.25,298.3 C187.35,296.45 183.95,295.75 181.05,296.1 L177.05,296.95 172.65,299.3 C171.15,299.45 170.2,299.25 169.75,298.7 169.6,298.55 169.5,298.2 169.45,297.65 L169.45,297.55 169.35,297.1 C169.25,296.15 169.9,295.2 171.3,294.25 172.65,293.3 174.5,292.65 176.75,292.2 L192.55,282.05 198.4,277.95 198.7,277.75 199.15,277.4 C210.1,269.25 215.25,262.85 214.7,258.3 214.55,257.3 214.1,256.05 213.3,254.55 L202.95,253.5 191.75,252.25 190.85,251 C190.3,250.1 189.35,249.5 188,249.2 L187.5,249.1 C187.25,248.4 187.15,247.75 187.1,247.1 L185.6,248.65 C183.65,250.9 180.9,253 177.35,255 L170.35,256.05 162.95,257.45 162.65,258.35 C162.3,258.95 162.15,259.4 162.2,259.7 162.45,261.55 161.85,262.6 160.4,262.8 L159.25,262.75 158.35,262.35 158.3,264.1 157.65,276.55 C157.3,280.4 155.7,285.35 152.85,291.5 150.1,297.45 148,300.55 146.65,300.75 145.5,300.9 144.75,300.55 144.4,299.75 144.2,299.3 144.15,298.85 144.2,298.35 144.15,298 145.55,294.85 148.45,288.95 151.45,282.7 153.1,278.05 153.45,275 L154.1,262.75 154.25,253.35 C153.6,248.2 145.8,241.05 130.85,231.95z"/>
          </g>
        </g>
      </g>
    </g>
  </g>
</svg>