<?xml version="1.0" encoding="utf-8"?>
<!-- Generator: flash2svg, http://dissentgraphics.com/tools/flash2svg -->
<svg xmlns:xlink="http://www.w3.org/1999/xlink" id="sprite.__20250.__20(Wings).__2F96" image-rendering="optimizeSpeed" baseProfile="basic" version="1.1" style="background-color:#ffffff" x="0px" y="0px" width="550px" height="400px" viewBox="0 0 550 400" enable-background="new 0 0 550 400" xmlns="http://www.w3.org/2000/svg">
  <defs transform="matrix(1 0 0 1 0 0) "/>
  <g id="sprite.__20250.__20(Wings).__2F96">
    <g id="Layer.__225">
      <g id="Graphic.__2Fshape.__20224_1" overflow="visible">
        <g id="Layer.__325">
          <g id="shape629">
            <path id="path988" fill="none" stroke="#000000" stroke-opacity="1" stroke-width="4.495" stroke-linecap="round" stroke-linejoin="round" d="M13.161,237.667 Q29.629,235.646 57.694,222.451 C75.572,213.947 88.831,209.417 97.388,208.929 85.442,254.025 96.897,272.503 131.828,264.371 129.75,275.228 123.043,285.693 111.715,295.689 89.584,273.343 76.481,272.618 72.422,293.364 70.992,291.864 69.727,290.23 68.776,288.477 60.143,283.763 39.07,295.558 5.559,323.862 15.27,295.631 -8.112,301.244 -64.663,340.691 L-64.819,340.751 -78.117,358.302 C-71.062,343.657 -59.112,325.291 -42.26,303.13 -25.834,281.453 -7.358,259.607 13.161,237.667z"/>
            <path id="path989" fill="#333333" fill-opacity="1" d="M57.694,222.451 Q29.629,235.646 13.161,237.667 C-7.358,259.607 -25.834,281.453 -42.26,303.13 -59.112,325.291 -71.062,343.657 -78.117,358.302 L-64.819,340.751 C-16.402,279.02 33.09,239.385 83.672,221.695 79.928,269.805 96.032,284.01 131.828,264.371 96.897,272.503 85.442,254.025 97.388,208.929 88.831,209.417 75.572,213.947 57.694,222.451z"/>
            <path id="path990" fill="none" stroke="#000000" stroke-opacity="1" stroke-width="4.495" stroke-linecap="round" stroke-linejoin="round" d="M57.694,222.451 Q29.629,235.646 13.161,237.667 C-7.358,259.607 -25.834,281.453 -42.26,303.13 -59.112,325.291 -71.062,343.657 -78.117,358.302 L-64.819,340.751 C-16.402,279.02 33.09,239.385 83.672,221.695 79.928,269.805 96.032,284.01 131.828,264.371 96.897,272.503 85.442,254.025 97.388,208.929 88.831,209.417 75.572,213.947 57.694,222.451z"/>
            <path id="path991" fill="#D9D0C9" fill-opacity="1" d="M72.422,293.364 C76.481,272.618 89.584,273.343 111.715,295.689 123.043,285.693 129.75,275.228 131.828,264.371 96.032,284.01 79.928,269.805 83.672,221.695 59.999,239.099 40.465,260.235 25.071,285.104 17.601,297.147 11.1,310.042 5.559,323.862 39.07,295.558 60.143,283.763 68.776,288.477 62.818,278.161 64.566,263.882 73.877,245.55 L72.422,293.364z"/>
            <path id="path992" fill="none" stroke="#000000" stroke-opacity="1" stroke-width="4.495" stroke-linecap="round" stroke-linejoin="round" d="M72.422,293.364 C76.481,272.618 89.584,273.343 111.715,295.689 123.043,285.693 129.75,275.228 131.828,264.371 96.032,284.01 79.928,269.805 83.672,221.695"/>
            <path id="path993" fill="none" stroke="#2702C1" stroke-opacity="0" stroke-width="1.498" stroke-linecap="round" stroke-linejoin="round" d="M83.672,221.695 C59.999,239.099 40.465,260.235 25.071,285.104 17.601,297.147 11.1,310.042 5.559,323.862"/>
            <path id="path994" fill="none" stroke="#000000" stroke-opacity="1" stroke-width="4.495" stroke-linecap="round" stroke-linejoin="round" d="M5.559,323.862 C39.07,295.558 60.143,283.763 68.776,288.477"/>
            <path id="path995" fill="none" stroke="#2702C1" stroke-opacity="0" stroke-width="1.498" stroke-linecap="round" stroke-linejoin="round" d="M68.776,288.477 C62.818,278.161 64.566,263.882 73.877,245.55 L72.422,293.364"/>
            <path id="path996" fill="none" stroke="#000000" stroke-opacity="1" stroke-width="4.495" stroke-linecap="round" stroke-linejoin="round" d="M68.776,288.477 C70.489,289.404 71.679,291.03 72.422,293.364 70.992,291.864 69.727,290.23 68.776,288.477"/>
            <path id="path997" fill="#FFFFFF" fill-opacity="1" d="M68.776,288.477 C70.489,289.404 71.679,291.03 72.422,293.364 L73.877,245.55 C64.566,263.882 62.818,278.161 68.776,288.477z M-64.819,340.751 L-64.663,340.691 C-12.711,289.408 17.173,270.902 25.071,285.104 40.465,260.235 59.999,239.099 83.672,221.695 33.09,239.385 -16.402,279.02 -64.819,340.751z"/>
            <path id="path998" fill="none" stroke="#000000" stroke-opacity="1" stroke-width="4.495" stroke-linecap="round" stroke-linejoin="round" d="M68.776,288.477 C70.489,289.404 71.679,291.03 72.422,293.364"/>
            <path id="path999" fill="none" stroke="#2702C1" stroke-opacity="0" stroke-width="1.498" stroke-linecap="round" stroke-linejoin="round" d="M72.422,293.364 L73.877,245.55 C64.566,263.882 62.818,278.161 68.776,288.477"/>
            <path id="path1000" fill="#D9D0C9" fill-opacity="1" d="M5.559,323.862 C11.1,310.042 17.601,297.147 25.071,285.104 17.173,270.902 -12.711,289.408 -64.663,340.691 -8.112,301.244 15.27,295.631 5.559,323.862z"/>
            <path id="path1001" fill="none" stroke="#2702C1" stroke-opacity="0" stroke-width="1.498" stroke-linecap="round" stroke-linejoin="round" d="M5.559,323.862 C11.1,310.042 17.601,297.147 25.071,285.104 17.173,270.902 -12.711,289.408 -64.663,340.691"/>
            <path id="path1002" fill="none" stroke="#000000" stroke-opacity="1" stroke-width="4.495" stroke-linecap="round" stroke-linejoin="round" d="M-64.663,340.691 C-8.112,301.244 15.27,295.631 5.559,323.862"/>
            <path id="path1003" fill="none" stroke="#000000" stroke-opacity="1" stroke-width="4.495" stroke-linecap="round" stroke-linejoin="round" d="M83.672,221.695 C33.09,239.385 -16.402,279.02 -64.819,340.751 L-64.663,340.691"/>
            <path id="path1004" fill="none" stroke="#2702C1" stroke-opacity="0" stroke-width="1.498" stroke-linecap="round" stroke-linejoin="round" d="M-64.663,340.691 C-12.711,289.408 17.173,270.902 25.071,285.104 40.465,260.235 59.999,239.099 83.672,221.695"/>
          </g>
        </g>
      </g>
    </g>
    <g id="Layer.__226">
      <g id="Graphic.__2Fshape.__20226_1" overflow="visible">
        <g id="Layer.__326">
          <g id="shape630">
            <path id="path1005" fill="none" stroke="#000000" stroke-opacity="1" stroke-width="4.494" stroke-linecap="round" stroke-linejoin="round" d="M271.998,234.831 Q255.484,233.236 227.09,220.771 C209.001,212.731 195.631,208.545 187.064,208.278 200.169,253.046 189.195,271.812 154.068,264.584 156.426,275.384 163.4,285.67 174.981,295.37 196.527,272.463 209.605,271.4 214.198,292.033 215.588,290.497 216.81,288.831 217.716,287.054 226.224,282.119 247.592,293.365 281.819,320.793 271.384,292.825 294.901,297.832 352.445,335.805 L352.603,335.86 366.348,353.061 C358.918,338.604 346.5,320.554 329.084,298.837 312.105,277.593 293.074,256.233 271.998,234.831z"/>
            <path id="path1006" fill="#333333" fill-opacity="1" d="M227.09,220.771 Q255.484,233.236 271.998,234.831 C293.074,256.233 312.105,277.593 329.084,298.837 346.5,320.554 358.918,338.604 366.348,353.061 L352.603,335.86 C302.615,275.405 252.121,237.062 201.104,220.684 206.087,268.677 190.356,283.292 154.068,264.584 189.195,271.812 200.169,253.046 187.064,208.278 195.631,208.545 209.001,212.731 227.09,220.771z"/>
            <path id="path1007" fill="none" stroke="#000000" stroke-opacity="1" stroke-width="4.494" stroke-linecap="round" stroke-linejoin="round" d="M227.09,220.771 Q255.484,233.236 271.998,234.831 C293.074,256.233 312.105,277.593 329.084,298.837 346.5,320.554 358.918,338.604 366.348,353.061 L352.603,335.86 C302.615,275.405 252.121,237.062 201.104,220.684 206.087,268.677 190.356,283.292 154.068,264.584 189.195,271.812 200.169,253.046 187.064,208.278 195.631,208.545 209.001,212.731 227.09,220.771z"/>
            <path id="path1008" fill="none" stroke="#000000" stroke-opacity="1" stroke-width="4.494" stroke-linecap="round" stroke-linejoin="round" d="M214.198,292.033 C215.588,290.497 216.81,288.831 217.716,287.054 216.028,288.025 214.88,289.681 214.198,292.033"/>
            <path id="path1009" fill="#D9D0C9" fill-opacity="1" d="M217.716,287.054 C216.028,288.025 214.88,289.681 214.198,292.033 L211.51,244.276 C221.29,262.36 223.405,276.589 217.716,287.054z M352.603,335.86 L352.445,335.805 C299.193,285.883 268.844,268.155 261.316,282.555 245.287,258.094 225.216,237.471 201.104,220.684 252.121,237.062 302.615,275.405 352.603,335.86z"/>
            <path id="path1010" fill="none" stroke="#000000" stroke-opacity="1" stroke-width="4.494" stroke-linecap="round" stroke-linejoin="round" d="M217.716,287.054 C216.028,288.025 214.88,289.681 214.198,292.033"/>
            <path id="path1011" fill="none" stroke="#2702C1" stroke-opacity="0" stroke-width="1.498" stroke-linecap="round" stroke-linejoin="round" d="M214.198,292.033 L211.51,244.276 C221.29,262.36 223.405,276.589 217.716,287.054"/>
            <path id="path1012" fill="#FFFFFF" fill-opacity="1" d="M214.198,292.033 C209.605,271.4 196.527,272.463 174.981,295.37 163.4,285.67 156.426,275.384 154.068,264.584 190.356,283.292 206.087,268.677 201.104,220.684 225.216,237.471 245.287,258.094 261.316,282.555 269.093,294.401 275.924,307.122 281.819,320.793 247.592,293.365 226.224,282.119 217.716,287.054 223.405,276.589 221.29,262.36 211.51,244.276 L214.198,292.033z"/>
            <path id="path1013" fill="none" stroke="#000000" stroke-opacity="1" stroke-width="4.494" stroke-linecap="round" stroke-linejoin="round" d="M214.198,292.033 C209.605,271.4 196.527,272.463 174.981,295.37 163.4,285.67 156.426,275.384 154.068,264.584 190.356,283.292 206.087,268.677 201.104,220.684"/>
            <path id="path1014" fill="none" stroke="#2702C1" stroke-opacity="0" stroke-width="1.498" stroke-linecap="round" stroke-linejoin="round" d="M201.104,220.684 C225.216,237.471 245.287,258.094 261.316,282.555 269.093,294.401 275.924,307.122 281.819,320.793"/>
            <path id="path1015" fill="none" stroke="#000000" stroke-opacity="1" stroke-width="4.494" stroke-linecap="round" stroke-linejoin="round" d="M281.819,320.793 C247.592,293.365 226.224,282.119 217.716,287.054"/>
            <path id="path1016" fill="none" stroke="#2702C1" stroke-opacity="0" stroke-width="1.498" stroke-linecap="round" stroke-linejoin="round" d="M217.716,287.054 C223.405,276.589 221.29,262.36 211.51,244.276 L214.198,292.033"/>
            <path id="path1017" fill="#FFFFFF" fill-opacity="1" d="M281.819,320.793 C275.924,307.122 269.093,294.401 261.316,282.555 268.844,268.155 299.193,285.883 352.445,335.805 294.901,297.832 271.384,292.825 281.819,320.793z"/>
            <path id="path1018" fill="none" stroke="#2702C1" stroke-opacity="0" stroke-width="1.498" stroke-linecap="round" stroke-linejoin="round" d="M281.819,320.793 C275.924,307.122 269.093,294.401 261.316,282.555 268.844,268.155 299.193,285.883 352.445,335.805"/>
            <path id="path1019" fill="none" stroke="#000000" stroke-opacity="1" stroke-width="4.494" stroke-linecap="round" stroke-linejoin="round" d="M352.445,335.805 C294.901,297.832 271.384,292.825 281.819,320.793"/>
            <path id="path1020" fill="none" stroke="#000000" stroke-opacity="1" stroke-width="4.494" stroke-linecap="round" stroke-linejoin="round" d="M201.104,220.684 C252.121,237.062 302.615,275.405 352.603,335.86 L352.445,335.805"/>
            <path id="path1021" fill="none" stroke="#2702C1" stroke-opacity="0" stroke-width="1.498" stroke-linecap="round" stroke-linejoin="round" d="M352.445,335.805 C299.193,285.883 268.844,268.155 261.316,282.555 245.287,258.094 225.216,237.471 201.104,220.684"/>
          </g>
        </g>
      </g>
    </g>
    <g id="Layer.__227">
      <g id="Graphic.__2Fshape.__20224_2" overflow="visible">
        <g id="Layer.__327">
          <g id="shape631">
            <path id="path1022" fill="none" stroke="#000000" stroke-opacity="1" stroke-width="4.497" stroke-linecap="round" stroke-linejoin="round" d="M51.479,136.731 Q65.969,144.831 96.424,150.763 C115.883,154.462 129.264,158.64 136.462,163.303 100.169,192.65 98.498,214.338 131.505,228.415 123.411,235.952 111.812,240.437 96.76,241.813 92.097,210.694 81.947,202.366 66.41,216.717 66.142,214.661 66.087,212.594 66.354,210.617 62.17,201.709 38.188,198.779 -5.593,201.827 18.929,184.774 -3.265,175.488 -72.232,173.918 L-72.394,173.874 -93.501,180.186 C-79.151,172.531 -58.651,164.765 -31.95,156.832 -5.878,149.038 21.948,142.319 51.479,136.731z"/>
            <path id="path1023" fill="#333333" fill-opacity="1" d="M96.424,150.763 Q65.969,144.831 51.479,136.731 C21.948,142.319 -5.878,149.038 -31.95,156.832 -58.651,164.765 -79.151,172.531 -93.501,180.186 L-72.394,173.874 C3.174,152.648 66.554,149.895 117.844,165.503 86.392,202.132 90.999,223.117 131.505,228.415 98.498,214.338 100.169,192.65 136.462,163.303 129.264,158.64 115.883,154.462 96.424,150.763z"/>
            <path id="path1024" fill="none" stroke="#000000" stroke-opacity="1" stroke-width="4.497" stroke-linecap="round" stroke-linejoin="round" d="M96.424,150.763 Q65.969,144.831 51.479,136.731 C21.948,142.319 -5.878,149.038 -31.95,156.832 -58.651,164.765 -79.151,172.531 -93.501,180.186 L-72.394,173.874 C3.174,152.648 66.554,149.895 117.844,165.503 86.392,202.132 90.999,223.117 131.505,228.415 98.498,214.338 100.169,192.65 136.462,163.303 129.264,158.64 115.883,154.462 96.424,150.763z"/>
            <path id="path1025" fill="#D9D0C9" fill-opacity="1" d="M66.41,216.717 C81.947,202.366 92.097,210.694 96.76,241.813 111.812,240.437 123.411,235.952 131.505,228.415 90.999,223.117 86.392,202.132 117.844,165.503 88.447,165.565 60.186,171.086 33.062,182.067 19.915,187.376 7.047,193.944 -5.593,201.827 38.188,198.779 62.17,201.709 66.354,210.617 67.641,198.768 77.49,188.272 95.84,178.974 L66.41,216.717z"/>
            <path id="path1026" fill="none" stroke="#000000" stroke-opacity="1" stroke-width="4.497" stroke-linecap="round" stroke-linejoin="round" d="M66.41,216.717 C81.947,202.366 92.097,210.694 96.76,241.813 111.812,240.437 123.411,235.952 131.505,228.415 90.999,223.117 86.392,202.132 117.844,165.503"/>
            <path id="path1027" fill="none" stroke="#2702C1" stroke-opacity="0" stroke-width="1.499" stroke-linecap="round" stroke-linejoin="round" d="M117.844,165.503 C88.447,165.565 60.186,171.086 33.062,182.067 19.915,187.376 7.047,193.944 -5.593,201.827"/>
            <path id="path1028" fill="none" stroke="#000000" stroke-opacity="1" stroke-width="4.497" stroke-linecap="round" stroke-linejoin="round" d="M-5.593,201.827 C38.188,198.779 62.17,201.709 66.354,210.617"/>
            <path id="path1029" fill="none" stroke="#2702C1" stroke-opacity="0" stroke-width="1.499" stroke-linecap="round" stroke-linejoin="round" d="M66.354,210.617 C67.641,198.768 77.49,188.272 95.84,178.974 L66.41,216.717"/>
            <path id="path1030" fill="none" stroke="#000000" stroke-opacity="1" stroke-width="4.497" stroke-linecap="round" stroke-linejoin="round" d="M66.354,210.617 C67.19,212.377 67.19,214.394 66.41,216.717 66.142,214.661 66.087,212.594 66.354,210.617"/>
            <path id="path1031" fill="#FFFFFF" fill-opacity="1" d="M66.354,210.617 C67.19,212.377 67.19,214.394 66.41,216.717 L95.84,178.974 C77.49,188.272 67.641,198.768 66.354,210.617z M-72.394,173.874 L-72.232,173.918 C0.016,163.216 35.079,165.934 33.062,182.067 60.186,171.086 88.447,165.565 117.844,165.503 66.554,149.895 3.174,152.648 -72.394,173.874z"/>
            <path id="path1032" fill="none" stroke="#000000" stroke-opacity="1" stroke-width="4.497" stroke-linecap="round" stroke-linejoin="round" d="M66.354,210.617 C67.19,212.377 67.19,214.394 66.41,216.717"/>
            <path id="path1033" fill="none" stroke="#2702C1" stroke-opacity="0" stroke-width="1.499" stroke-linecap="round" stroke-linejoin="round" d="M66.41,216.717 L95.84,178.974 C77.49,188.272 67.641,198.768 66.354,210.617"/>
            <path id="path1034" fill="#D9D0C9" fill-opacity="1" d="M-5.593,201.827 C7.047,193.944 19.915,187.376 33.062,182.067 35.079,165.934 0.016,163.216 -72.232,173.918 -3.265,175.488 18.929,184.774 -5.593,201.827z"/>
            <path id="path1035" fill="none" stroke="#2702C1" stroke-opacity="0" stroke-width="1.499" stroke-linecap="round" stroke-linejoin="round" d="M-5.593,201.827 C7.047,193.944 19.915,187.376 33.062,182.067 35.079,165.934 0.016,163.216 -72.232,173.918"/>
            <path id="path1036" fill="none" stroke="#000000" stroke-opacity="1" stroke-width="4.497" stroke-linecap="round" stroke-linejoin="round" d="M-72.232,173.918 C-3.265,175.488 18.929,184.774 -5.593,201.827"/>
            <path id="path1037" fill="none" stroke="#000000" stroke-opacity="1" stroke-width="4.497" stroke-linecap="round" stroke-linejoin="round" d="M117.844,165.503 C66.554,149.895 3.174,152.648 -72.394,173.874 L-72.232,173.918"/>
            <path id="path1038" fill="none" stroke="#2702C1" stroke-opacity="0" stroke-width="1.499" stroke-linecap="round" stroke-linejoin="round" d="M-72.232,173.918 C0.016,163.216 35.079,165.934 33.062,182.067 60.186,171.086 88.447,165.565 117.844,165.503"/>
          </g>
        </g>
      </g>
    </g>
    <g id="Layer.__228">
      <g id="Graphic.__2Fshape.__20226_2" overflow="visible">
        <g id="Layer.__328">
          <g id="shape632">
            <path id="path1039" fill="none" stroke="#000000" stroke-opacity="1" stroke-width="4.49" stroke-linecap="round" stroke-linejoin="round" d="M246.822,148.989 Q231.301,154.802 200.348,156.073 C180.585,156.794 166.748,158.903 158.942,162.422 190.346,196.852 188.73,218.51 154.032,227.435 160.887,236.093 171.659,242.266 186.309,245.89 195.597,215.877 206.869,209.185 220.043,225.689 220.617,223.7 220.983,221.668 221.017,219.676 226.487,211.514 250.6,212.232 293.353,221.831 271.716,201.308 295.021,195.484 363.328,204.316 L363.494,204.297 383.378,213.705 C370.366,203.989 351.301,193.238 326.141,181.388 301.582,169.77 275.128,158.95 246.822,148.989z"/>
            <path id="path1040" fill="#333333" fill-opacity="1" d="M200.348,156.073 Q231.301,154.802 246.822,148.989 C275.128,158.95 301.582,169.77 326.141,181.388 351.301,193.238 370.366,203.989 383.378,213.705 L363.494,204.297 C292.103,171.97 229.961,159.712 176.987,167.397 202.516,208.285 194.809,228.304 154.032,227.435 188.73,218.51 190.346,196.852 158.942,162.422 166.748,158.903 180.585,156.794 200.348,156.073z"/>
            <path id="path1041" fill="none" stroke="#000000" stroke-opacity="1" stroke-width="4.49" stroke-linecap="round" stroke-linejoin="round" d="M200.348,156.073 Q231.301,154.802 246.822,148.989 C275.128,158.95 301.582,169.77 326.141,181.388 351.301,193.238 370.366,203.989 383.378,213.705 L363.494,204.297 C292.103,171.97 229.961,159.712 176.987,167.397 202.516,208.285 194.809,228.304 154.032,227.435 188.73,218.51 190.346,196.852 158.942,162.422 166.748,158.903 180.585,156.794 200.348,156.073z"/>
            <path id="path1042" fill="none" stroke="#000000" stroke-opacity="1" stroke-width="4.49" stroke-linecap="round" stroke-linejoin="round" d="M220.043,225.689 C220.617,223.7 220.983,221.668 221.017,219.676 219.927,221.288 219.623,223.278 220.043,225.689"/>
            <path id="path1043" fill="#D9D0C9" fill-opacity="1" d="M221.017,219.676 C219.927,221.288 219.623,223.278 220.043,225.689 L196.678,184.005 C213.39,195.945 221.531,207.787 221.017,219.676z M363.494,204.297 L363.328,204.316 C293.63,182.877 258.613,180.281 258.174,196.508 233.055,181.587 205.993,171.883 176.987,167.397 229.961,159.712 292.103,171.97 363.494,204.297z"/>
            <path id="path1044" fill="none" stroke="#000000" stroke-opacity="1" stroke-width="4.49" stroke-linecap="round" stroke-linejoin="round" d="M221.017,219.676 C219.927,221.288 219.623,223.278 220.043,225.689"/>
            <path id="path1045" fill="none" stroke="#2702C1" stroke-opacity="0" stroke-width="1.497" stroke-linecap="round" stroke-linejoin="round" d="M220.043,225.689 L196.678,184.005 C213.39,195.945 221.531,207.787 221.017,219.676"/>
            <path id="path1046" fill="#FFFFFF" fill-opacity="1" d="M220.043,225.689 C206.869,209.185 195.597,215.877 186.309,245.89 171.659,242.266 160.887,236.093 154.032,227.435 194.809,228.304 202.516,208.285 176.987,167.397 205.993,171.883 233.055,181.587 258.174,196.508 270.351,203.728 282.064,212.148 293.353,221.831 250.6,212.232 226.487,211.514 221.017,219.676 221.531,207.787 213.39,195.945 196.678,184.005 L220.043,225.689z"/>
            <path id="path1047" fill="none" stroke="#000000" stroke-opacity="1" stroke-width="4.49" stroke-linecap="round" stroke-linejoin="round" d="M220.043,225.689 C206.869,209.185 195.597,215.877 186.309,245.89 171.659,242.266 160.887,236.093 154.032,227.435 194.809,228.304 202.516,208.285 176.987,167.397"/>
            <path id="path1048" fill="none" stroke="#2702C1" stroke-opacity="0" stroke-width="1.497" stroke-linecap="round" stroke-linejoin="round" d="M176.987,167.397 C205.993,171.883 233.055,181.587 258.174,196.508 270.351,203.728 282.064,212.148 293.353,221.831"/>
            <path id="path1049" fill="none" stroke="#000000" stroke-opacity="1" stroke-width="4.49" stroke-linecap="round" stroke-linejoin="round" d="M293.353,221.831 C250.6,212.232 226.487,211.514 221.017,219.676"/>
            <path id="path1050" fill="none" stroke="#2702C1" stroke-opacity="0" stroke-width="1.497" stroke-linecap="round" stroke-linejoin="round" d="M221.017,219.676 C221.531,207.787 213.39,195.945 196.678,184.005 L220.043,225.689"/>
            <path id="path1051" fill="#FFFFFF" fill-opacity="1" d="M293.353,221.831 C282.064,212.148 270.351,203.728 258.174,196.508 258.613,180.281 293.63,182.877 363.328,204.316 295.021,195.484 271.716,201.308 293.353,221.831z"/>
            <path id="path1052" fill="none" stroke="#2702C1" stroke-opacity="0" stroke-width="1.497" stroke-linecap="round" stroke-linejoin="round" d="M293.353,221.831 C282.064,212.148 270.351,203.728 258.174,196.508 258.613,180.281 293.63,182.877 363.328,204.316"/>
            <path id="path1053" fill="none" stroke="#000000" stroke-opacity="1" stroke-width="4.49" stroke-linecap="round" stroke-linejoin="round" d="M363.328,204.316 C295.021,195.484 271.716,201.308 293.353,221.831"/>
            <path id="path1054" fill="none" stroke="#000000" stroke-opacity="1" stroke-width="4.49" stroke-linecap="round" stroke-linejoin="round" d="M176.987,167.397 C229.961,159.712 292.103,171.97 363.494,204.297 L363.328,204.316"/>
            <path id="path1055" fill="none" stroke="#2702C1" stroke-opacity="0" stroke-width="1.497" stroke-linecap="round" stroke-linejoin="round" d="M363.328,204.316 C293.63,182.877 258.613,180.281 258.174,196.508 233.055,181.587 205.993,171.883 176.987,167.397"/>
          </g>
        </g>
      </g>
    </g>
  </g>
</svg>