<?xml version="1.0" encoding="UTF-8" standalone="no"?>
<svg xmlns:xlink="http://www.w3.org/1999/xlink" height="244.35px" width="255.3px" xmlns="http://www.w3.org/2000/svg">
  <g transform="matrix(1, 0, 0, 1, 75.9, 228.3)">
    <use height="31.5" transform="matrix(1.0, 0.0, 0.0, 1.0, -24.4, -166.5)" width="71.95" xlink:href="#shape0"/>
  </g>
  <defs>
    <g id="shape0" transform="matrix(1, 0, 0, 1, 24.4, 166.5)">
      <path d="M-17.2 -135.9 L-22.9 -136.85 Q-23.8 -139.0 -24.15 -142.5 -24.6 -147.0 -24.15 -151.8 L-24.15 -159.8 -23.1 -166.05 -19.95 -166.2 12.9 -166.5 Q41.75 -166.5 47.55 -163.05 L47.55 -159.3 Q47.55 -151.5 37.0 -138.6 38.0 -143.8 32.35 -141.9 L32.25 -143.1 Q32.25 -143.6 37.0 -149.55 41.7 -155.55 41.7 -160.2 -7.4 -160.45 -18.35 -161.45 -17.95 -157.9 -17.8 -147.35 -17.7 -140.8 -17.2 -135.9" fill="#000000" fill-rule="evenodd" stroke="none"/>
      <path d="M32.35 -141.9 Q28.65 -140.65 24.9 -139.55 9.35 -135.0 -1.4 -135.0 L-17.2 -135.9 Q-17.7 -140.8 -17.8 -147.35 -17.95 -157.9 -18.35 -161.45 -7.4 -160.45 41.7 -160.2 41.7 -155.55 37.0 -149.55 32.25 -143.6 32.25 -143.1 L32.35 -141.9" fill="#ffc4c4" fill-rule="evenodd" stroke="none"/>
    </g>
  </defs>
</svg>
