<?xml version="1.0" encoding="UTF-8" standalone="no"?>
<svg xmlns:xlink="http://www.w3.org/1999/xlink" height="244.35px" width="255.3px" xmlns="http://www.w3.org/2000/svg">
  <g transform="matrix(1, 0, 0, 1, 75.9, 228.3)">
    <use height="175.75" transform="matrix(1.0, 0.0, 0.0, 1.0, -59.65, -159.7)" width="137.85" xlink:href="#shape0"/>
  </g>
  <defs>
    <g id="shape0" transform="matrix(1, 0, 0, 1, 59.65, 159.7)">
      <path d="M23.2 -158.6 Q24.6 -158.65 27.25 -147.75 31.35 -136.95 45.9 -91.15 68.05 -21.55 78.2 3.75 L77.8 5.65 Q77.35 6.4 75.7 6.4 71.8 6.4 62.0 -23.1 L66.2 -8.6 65.7 -7.2 Q65.25 -6.45 63.7 -6.45 62.2 -6.45 60.25 -10.85 56.3 -13.1 44.6 -51.5 L53.2 4.25 Q53.2 9.6 49.7 9.65 43.25 9.6 32.75 -56.75 35.65 -20.55 37.2 -3.75 L37.2 5.05 34.7 6.4 Q33.35 1.1 31.55 -14.95 L32.2 7.9 31.95 9.1 31.35 10.2 Q30.8 10.7 29.2 10.7 L26.45 10.15 Q26.25 -5.7 23.65 -55.25 21.2 -101.85 21.2 -123.25 21.2 -131.65 21.6 -137.4 L20.2 -149.25 Q20.2 -154.9 20.45 -158.1 20.7 -158.65 23.2 -158.6 M3.2 -115.3 Q3.0 -97.35 -0.9 -50.2 L-5.8 7.2 Q-6.3 7.2 -8.3 8.55 -10.25 7.85 -10.65 6.45 L-10.8 4.0 Q-10.8 -3.9 -10.1 -13.65 -12.2 4.2 -13.05 15.25 L-13.65 15.7 -15.8 16.05 -18.55 15.5 -18.8 12.3 Q-17.1 -9.8 -15.0 -31.35 -25.65 13.9 -28.8 13.9 -35.8 7.75 -35.8 7.4 L-26.6 -33.55 Q-37.75 -3.1 -40.8 9.35 -41.3 9.35 -43.3 10.7 -46.5 7.25 -45.05 2.95 -49.3 0.8 -48.8 -1.35 L-39.5 -24.7 -44.35 -14.95 Q-51.05 -0.5 -56.3 8.55 L-57.1 8.25 -57.3 8.55 -59.05 7.9 Q-59.65 7.35 -59.65 5.6 -59.65 4.95 -52.95 -9.8 L-47.15 -23.65 Q-33.4 -56.2 -29.55 -66.75 L-15.8 -103.7 Q-9.0 -121.05 -2.55 -133.9 4.35 -159.7 6.2 -159.7 10.1 -159.7 9.2 -147.1 9.2 -145.4 4.2 -120.3 L3.2 -115.3 M43.95 -74.5 L37.4 -95.05 39.15 -84.7 41.5 -76.35 Q46.3 -59.8 50.5 -46.9 L48.6 -55.4 Q45.65 -68.65 43.95 -74.5" fill="#bb0000" fill-rule="evenodd" stroke="none"/>
    </g>
  </defs>
</svg>
