<?xml version="1.0" encoding="UTF-8" standalone="no"?>
<svg xmlns:xlink="http://www.w3.org/1999/xlink" height="244.35px" width="255.3px" xmlns="http://www.w3.org/2000/svg">
  <g transform="matrix(1, 0, 0, 1, 75.9, 228.3)">
    <use height="22.4" transform="matrix(1.0, 0.0, 0.0, 1.0, -13.2, -164.35)" width="56.2" xlink:href="#shape0"/>
  </g>
  <defs>
    <g id="shape0" transform="matrix(1, 0, 0, 1, 13.2, 164.35)">
      <path d="M13.8 -153.7 Q19.3 -153.7 23.2 -152.0 27.05 -150.25 27.05 -147.8 27.05 -145.4 23.2 -143.7 19.3 -141.95 13.8 -141.95 8.25 -141.95 4.35 -143.7 0.5 -145.4 0.5 -147.85 0.5 -150.25 4.35 -152.0 8.25 -153.7 13.8 -153.7" fill="#ff1111" fill-rule="evenodd" stroke="none"/>
      <path d="M43.0 -161.5 Q43.35 -158.1 36.25 -152.2 28.05 -145.45 18.3 -144.4 6.95 -143.2 -3.35 -148.0 -12.55 -152.25 -13.0 -156.45 L-13.2 -159.65 Q-13.2 -160.45 -10.55 -160.2 -8.2 -157.2 -1.5 -153.1 5.15 -149.05 16.15 -150.3 27.15 -151.55 33.85 -157.35 35.7 -158.95 37.5 -161.55 39.0 -163.85 39.85 -164.35 L41.9 -163.85 Q42.8 -163.4 43.0 -161.5" fill="#000000" fill-rule="evenodd" stroke="none"/>
    </g>
  </defs>
</svg>
