<?xml version="1.0" encoding="UTF-8" standalone="no"?>
<svg xmlns:xlink="http://www.w3.org/1999/xlink" height="300.7px" width="216.9px" xmlns="http://www.w3.org/2000/svg">
  <g transform="matrix(1, 0, 0, 1, 108.45, 318.75)">
    <path d="M61.4 -301.95 Q69.85 -295.0 75.35 -291.1 85.15 -284.15 94.35 -281.55 L94.9 -281.15 95.05 -280.5 94.75 -279.9 Q94.2 -279.2 80.45 -276.7 L81.3 -275.25 81.4 -275.05 81.5 -274.9 81.7 -274.65 81.8 -274.55 83.55 -271.95 Q88.7 -264.75 96.9 -248.95 L96.9 -249.0 Q105.3 -232.95 102.75 -220.5 L102.45 -219.95 101.9 -219.7 101.25 -219.8 100.85 -220.25 Q96.35 -230.15 74.75 -261.15 73.3 -261.1 72.8 -260.35 L87.35 -232.4 87.45 -231.8 87.2 -231.25 Q86.95 -231.05 86.65 -230.95 L86.05 -231.0 81.95 -232.95 81.55 -233.25 81.1 -233.85 80.25 -233.85 79.8 -233.95 Q51.75 -247.95 41.35 -268.85 38.35 -274.8 35.65 -283.8 L33.8 -289.45 Q33.05 -289.3 31.3 -275.85 29.75 -264.0 29.35 -255.6 L29.05 -254.9 28.35 -254.65 27.9 -254.65 27.35 -254.85 26.95 -255.3 18.15 -282.55 Q12.7 -296.95 8.4 -298.6 7.95 -291.7 3.85 -276.35 -0.65 -259.5 -15.95 -245.7 -16.2 -245.5 -16.55 -245.45 L-17.15 -245.6 -17.55 -246.05 -17.6 -246.65 Q-11.65 -271.9 -8.2 -285.05 -9.1 -285.75 -10.3 -285.75 L-14.85 -273.6 -21.1 -257.15 Q-24.25 -249.45 -39.85 -241.1 -55.1 -233.1 -76.25 -226.35 L-76.85 -226.35 -77.3 -226.65 -77.55 -227.25 -77.4 -227.8 -74.9 -231.9 Q-63.1 -250.85 -59.2 -258.25 L-60.55 -258.45 Q-63.0 -258.25 -70.5 -246.9 -84.25 -226.2 -84.35 -224.4 L-84.35 -224.1 Q-84.75 -222.85 -84.0 -222.15 -82.95 -221.4 -80.35 -221.4 -75.35 -221.45 -63.25 -225.55 L-62.55 -225.55 -62.05 -225.1 Q-61.85 -224.8 -61.95 -224.4 -63.45 -217.45 -64.55 -205.2 -64.5 -199.6 -61.9 -194.2 -59.0 -188.2 -59.05 -187.0 -59.0 -186.45 -62.25 -174.25 L-62.25 -174.2 Q-65.5 -162.4 -65.5 -151.4 -65.5 -142.9 -61.35 -134.8 L-58.45 -129.2 Q-57.05 -126.3 -57.05 -124.2 L-57.05 -124.0 -58.1 -118.9 -58.2 -118.6 -58.85 -115.05 -58.85 -115.0 Q-60.75 -105.1 -60.75 -102.6 L-60.9 -102.05 Q-61.05 -101.85 -61.3 -101.7 L-61.75 -101.45 -62.45 -101.4 Q-62.8 -101.5 -63.0 -101.8 -69.95 -111.4 -69.85 -114.55 -69.85 -128.9 -74.45 -138.1 -77.05 -143.25 -77.75 -145.55 -79.25 -150.35 -79.25 -157.3 -79.25 -163.7 -76.8 -170.2 L-76.85 -170.2 Q-74.6 -176.35 -74.55 -180.15 -74.55 -184.05 -76.85 -197.2 -79.25 -210.65 -79.2 -212.3 L-79.1 -214.2 -80.55 -214.4 Q-81.3 -214.05 -81.7 -212.75 -82.8 -209.05 -81.75 -199.7 L-79.6 -179.9 -79.6 -179.85 Q-79.6 -175.5 -82.0 -169.8 -84.35 -164.5 -84.35 -157.3 -84.35 -147.5 -79.3 -135.7 L-79.25 -135.65 Q-73.95 -125.0 -74.05 -123.5 -74.05 -121.05 -74.65 -117.3 L-75.2 -112.25 Q-75.1 -106.85 -69.3 -100.8 -67.45 -98.85 -59.75 -86.9 L-59.25 -86.05 -59.1 -85.8 Q-57.1 -78.45 -52.8 -77.45 L-52.55 -77.35 -52.3 -77.35 -52.05 -77.35 -51.65 -77.35 Q-49.2 -77.45 -49.2 -80.75 -49.25 -82.0 -50.1 -83.7 L-52.3 -87.7 Q-55.7 -94.15 -55.7 -102.0 -55.7 -104.75 -53.3 -117.1 L-53.3 -117.15 Q-51.9 -122.65 -51.9 -124.9 -51.95 -128.9 -56.05 -137.0 -59.1 -142.95 -60.0 -147.5 L-60.05 -147.7 -59.75 -148.4 -59.1 -148.7 -58.4 -148.45 Q-49.75 -140.85 -46.2 -138.6 L-45.95 -138.4 Q-40.75 -135.15 -35.4 -132.9 -24.5 -128.4 -12.85 -128.25 L-12.65 -128.25 -12.15 -128.25 Q4.85 -128.25 24.25 -133.35 42.6 -138.2 58.9 -146.4 L65.9 -150.1 66.6 -150.2 67.2 -149.8 67.4 -149.1 Q67.0 -145.95 67.0 -143.3 67.0 -134.75 70.85 -127.3 L71.55 -126.05 71.6 -125.95 71.65 -125.9 72.05 -125.2 72.0 -125.25 75.95 -119.7 77.6 -117.75 77.85 -117.35 84.4 -108.75 84.45 -108.7 86.0 -106.3 86.05 -106.25 86.05 -106.2 Q95.4 -90.7 92.65 -69.85 L92.65 -69.75 89.6 -55.5 89.6 -55.4 89.5 -55.15 89.3 -54.75 88.9 -54.5 88.2 -54.25 87.65 -54.2 Q87.4 -54.25 87.2 -54.45 L86.9 -54.9 Q85.75 -58.45 82.45 -64.25 L79.6 -68.65 79.4 -69.0 Q79.1 -70.1 78.3 -70.65 77.85 -53.0 73.95 -36.75 L73.6 -36.2 72.95 -36.0 72.35 -36.2 Q72.05 -36.45 72.0 -36.75 69.6 -47.5 64.05 -55.35 L60.8 -59.9 60.75 -59.9 59.55 -61.55 Q58.85 -62.45 59.1 -62.65 L58.8 -62.6 58.6 -60.05 Q57.65 -46.55 47.45 -18.7 L47.0 -18.15 46.3 -18.05 45.7 -18.45 Q45.45 -18.8 45.5 -19.15 48.1 -42.45 33.8 -55.6 33.75 -48.95 31.0 -40.2 L31.0 -40.15 Q26.2 -26.85 24.75 -20.85 L24.4 -20.3 23.75 -20.1 23.15 -20.1 22.55 -20.3 Q22.25 -20.5 22.2 -20.85 21.2 -24.45 20.85 -32.2 L20.35 -45.65 Q20.2 -48.1 18.4 -51.4 17.7 -37.85 11.9 -20.75 L11.5 -20.25 10.9 -20.1 Q10.55 -20.1 10.3 -20.35 L10.0 -20.9 Q8.9 -26.8 8.45 -27.85 L8.4 -28.05 Q6.0 -37.85 4.25 -48.05 L3.35 -35.05 2.3 -22.35 2.1 -21.8 1.6 -21.5 1.0 -21.5 0.55 -21.8 Q-12.65 -38.4 -16.9 -56.45 L-22.85 -27.15 Q-22.95 -26.75 -23.25 -26.5 L-23.95 -26.35 Q-24.35 -26.4 -24.6 -26.7 -31.9 -35.4 -36.05 -50.8 L-36.05 -50.75 -38.75 -60.25 -38.75 -60.2 Q-39.8 -63.4 -40.45 -63.6 L-40.85 -63.55 Q-40.95 -60.6 -41.75 -55.6 -43.15 -47.05 -47.4 -33.75 L-47.75 -33.25 -48.3 -33.05 -48.9 -33.2 -49.25 -33.65 Q-52.2 -40.9 -59.0 -54.1 L-60.5 -58.7 -60.5 -59.25 Q-60.95 -62.15 -62.2 -63.5 L-65.5 -50.85 Q-65.65 -47.4 -66.55 -45.8 L-67.1 -45.35 -67.85 -45.35 -68.35 -45.85 Q-74.35 -58.95 -81.3 -76.15 L-84.8 -84.5 Q-87.95 -74.15 -88.95 -48.5 L-89.15 -47.9 -89.7 -47.55 -90.35 -47.65 Q-90.7 -47.8 -90.85 -48.1 -102.1 -70.3 -101.5 -83.5 -100.95 -96.6 -97.55 -109.35 -94.3 -121.85 -94.3 -128.25 -94.3 -138.3 -101.2 -150.65 L-106.1 -159.3 -106.15 -159.35 Q-108.5 -163.95 -108.45 -166.95 -108.45 -175.75 -103.8 -185.15 -98.0 -196.7 -96.15 -205.25 -94.8 -211.9 -95.15 -224.4 -95.55 -238.45 -94.8 -244.0 -92.05 -265.2 -77.9 -282.6 -70.45 -292.05 -63.6 -298.35 -56.75 -304.75 -45.8 -310.4 -34.85 -316.05 -27.05 -316.85 L-27.1 -316.85 Q-16.05 -318.75 1.9 -318.75 30.8 -318.75 48.9 -310.4 58.0 -306.15 61.4 -301.95 M84.55 -227.7 L87.9 -227.3 88.4 -227.1 88.75 -226.65 88.75 -226.1 Q87.5 -220.05 86.05 -208.45 L85.75 -207.85 85.15 -207.6 84.5 -207.75 84.1 -208.25 Q83.7 -209.35 83.65 -209.8 83.15 -212.4 83.25 -218.2 L83.4 -226.7 83.55 -227.25 84.0 -227.65 84.55 -227.7 M94.8 -220.25 L96.25 -218.65 96.4 -217.9 Q96.25 -216.9 97.65 -212.0 L101.15 -199.75 103.9 -189.55 Q104.65 -186.4 104.65 -181.05 104.65 -179.5 101.85 -163.25 99.05 -147.35 99.05 -146.15 99.05 -138.65 103.6 -132.15 106.05 -128.6 106.95 -126.55 L106.95 -126.5 Q108.45 -122.8 108.45 -117.9 108.45 -113.15 106.1 -106.0 L105.7 -105.5 105.05 -105.35 Q104.7 -105.4 104.45 -105.6 L104.15 -106.2 Q102.2 -120.3 96.25 -129.2 L91.4 -136.0 91.35 -136.05 Q88.95 -139.75 89.0 -142.25 88.95 -142.6 93.25 -158.05 97.4 -173.1 97.4 -179.05 97.4 -185.7 94.25 -193.15 90.85 -201.05 90.9 -205.75 90.9 -207.85 92.35 -219.7 92.4 -220.15 92.75 -220.35 L94.8 -220.25 M89.15 -167.2 L89.6 -166.75 89.65 -166.1 88.2 -160.4 Q84.05 -144.6 84.0 -142.25 84.0 -138.4 86.1 -134.5 87.05 -132.7 90.85 -127.55 98.1 -117.65 98.1 -108.05 L97.05 -96.85 96.8 -96.3 96.25 -96.0 95.6 -96.1 Q95.3 -96.25 95.15 -96.55 94.85 -97.2 93.1 -102.6 91.35 -107.75 85.2 -116.25 78.8 -125.0 76.25 -129.5 72.15 -136.7 72.15 -144.0 72.15 -146.1 73.6 -154.6 73.65 -155.0 74.0 -155.2 81.8 -160.85 84.65 -163.6 L87.95 -167.0 Q88.15 -167.25 88.5 -167.3 L89.15 -167.2 M-45.4 -63.75 Q-46.8 -63.15 -46.2 -63.7 L-46.0 -64.25 -45.4 -63.75 M-44.9 -63.4 L-44.65 -63.15 -44.6 -63.2 -44.6 -63.15 -44.5 -63.05 -44.6 -63.0 -44.65 -62.95 -44.8 -62.75 -44.7 -63.0 -44.9 -63.4 M-46.6 -62.9 Q-46.5 -62.15 -46.05 -62.1 -45.55 -61.6 -44.85 -62.25 -44.65 -62.4 -44.15 -63.45 -44.05 -63.8 -44.1 -64.1 L-44.45 -64.65 -45.05 -64.85 -45.65 -64.65 -46.35 -64.0 -46.6 -63.5 -46.6 -62.9" fill="#51b087" fill-rule="evenodd" stroke="none"/>
    <path d="M-45.4 -63.75 L-46.0 -64.25 -46.2 -63.7 Q-46.8 -63.15 -45.4 -63.75 L-44.9 -63.4 -45.1 -63.8 -45.1 -63.85 -45.15 -63.85 -45.4 -63.75 M-44.9 -63.4 L-44.7 -63.0 -44.8 -62.75 -44.65 -62.95 -44.6 -63.0 -44.5 -63.05 -44.6 -63.15 -44.6 -63.2 -44.65 -63.15 -44.9 -63.4 M-46.6 -62.9 L-46.6 -63.5 -46.35 -64.0 -45.65 -64.65 -45.05 -64.85 -44.45 -64.65 -44.1 -64.1 Q-44.05 -63.8 -44.15 -63.45 -44.65 -62.4 -44.85 -62.25 -45.55 -61.6 -46.05 -62.1 -46.5 -62.15 -46.6 -62.9" fill="#000000" fill-rule="evenodd" stroke="none"/>
  </g>
</svg>
