<?xml version="1.0" encoding="UTF-8" standalone="no"?>
<svg xmlns:xlink="http://www.w3.org/1999/xlink" height="181.25px" width="224.95px" xmlns="http://www.w3.org/2000/svg">
  <g transform="matrix(1, 0, 0, 1, 117.4, 317.4)">
    <path d="M50.75 -307.95 Q74.0 -298.8 79.65 -290.15 85.35 -281.65 88.25 -270.6 91.0 -260.2 92.2 -257.4 L92.25 -257.35 100.4 -244.55 100.4 -244.5 Q107.65 -233.15 107.55 -229.65 107.55 -228.05 106.45 -224.25 106.35 -223.9 106.05 -223.7 L105.35 -223.55 104.7 -223.95 Q101.05 -228.65 98.55 -230.2 L95.75 -230.3 95.7 -230.15 95.35 -227.1 95.1 -226.5 94.55 -226.2 93.9 -226.3 Q89.75 -228.55 79.85 -235.75 L79.85 -235.8 Q72.6 -241.7 63.8 -262.5 L63.1 -264.2 Q62.65 -263.3 62.65 -262.25 63.85 -246.75 63.55 -240.25 L63.25 -239.55 Q62.95 -239.3 62.55 -239.3 62.15 -239.3 61.85 -239.6 59.9 -241.5 50.8 -253.45 L42.4 -263.05 43.0 -246.2 42.85 -245.6 42.3 -245.25 41.7 -245.25 41.2 -245.6 Q35.8 -253.2 32.6 -259.0 29.95 -263.7 25.65 -269.0 L25.75 -266.4 Q26.05 -256.75 25.2 -250.4 24.35 -243.95 21.5 -237.5 L21.1 -237.05 20.5 -236.9 19.95 -237.1 19.6 -237.55 Q15.0 -250.4 -5.65 -264.65 -11.7 -254.1 -12.55 -247.8 L-12.85 -247.2 Q-13.1 -247.0 -13.45 -246.95 L-14.1 -247.1 Q-24.2 -253.55 -23.95 -254.85 -24.05 -255.4 -22.0 -259.2 L-22.05 -259.2 -20.85 -261.7 Q-23.45 -259.35 -27.5 -256.15 L-47.0 -241.15 -47.6 -240.95 Q-48.0 -240.95 -48.25 -241.2 L-48.55 -241.75 -48.45 -242.4 Q-42.9 -252.8 -41.1 -257.8 -40.45 -259.65 -40.35 -260.65 L-44.45 -255.6 Q-48.2 -251.05 -54.35 -241.4 -59.8 -232.8 -72.15 -219.5 L-72.85 -219.2 Q-73.25 -219.2 -73.55 -219.45 L-73.9 -220.1 Q-75.05 -231.85 -66.3 -246.8 -68.3 -246.65 -71.5 -240.55 -75.65 -232.7 -76.35 -227.05 -77.05 -221.45 -75.95 -216.2 -75.2 -212.2 -74.0 -209.7 L-69.65 -216.05 Q-63.45 -224.6 -59.1 -229.05 L-58.9 -229.25 -58.1 -229.7 -57.55 -229.8 Q-57.25 -229.8 -57.0 -229.6 L-56.65 -229.1 -56.65 -228.5 Q-57.65 -225.35 -58.3 -221.05 -59.35 -214.35 -59.35 -207.9 -59.35 -204.1 -55.75 -190.45 -52.15 -176.35 -52.15 -172.2 -52.1 -170.0 -55.25 -159.85 -58.2 -150.45 -58.3 -147.0 -56.7 -143.05 -54.4 -141.45 L-54.05 -141.1 -53.95 -140.6 -53.95 -140.55 Q-52.45 -138.0 -54.0 -136.7 -54.3 -136.4 -54.65 -136.4 -55.1 -136.4 -55.35 -136.65 -60.8 -141.55 -62.45 -143.95 -64.5 -146.9 -64.5 -150.5 -64.55 -151.95 -62.85 -157.2 -62.35 -160.6 -65.1 -161.85 -67.2 -160.3 -67.7 -156.8 L-67.7 -156.75 Q-67.9 -155.6 -67.9 -149.75 -67.9 -145.95 -66.25 -142.65 -66.05 -142.3 -66.2 -141.9 L-66.7 -141.3 -67.45 -141.25 -69.05 -141.8 -69.85 -141.7 -70.35 -141.75 -70.8 -142.05 -71.0 -142.5 Q-72.3 -149.85 -73.1 -158.9 L-73.25 -160.85 Q-75.0 -160.25 -75.4 -156.75 L-75.35 -149.6 Q-75.35 -143.4 -74.85 -140.15 L-75.0 -139.4 -75.65 -139.0 -76.95 -138.75 -77.65 -138.9 Q-80.3 -140.5 -81.3 -142.75 L-81.3 -142.8 -81.85 -143.9 Q-89.35 -156.65 -87.0 -166.25 L-84.95 -175.45 -85.0 -175.5 Q-85.3 -176.3 -86.3 -176.75 -87.05 -175.35 -88.75 -168.6 -90.9 -160.4 -90.65 -158.45 -90.35 -156.5 -87.75 -149.3 L-87.75 -149.35 Q-85.05 -141.8 -85.1 -139.35 -85.1 -138.35 -85.6 -136.8 L-86.0 -136.3 -86.65 -136.15 Q-97.6 -136.95 -97.75 -141.1 -98.05 -144.5 -97.9 -147.85 -98.3 -149.8 -99.35 -150.95 -101.45 -148.75 -101.95 -146.7 L-102.0 -146.3 -102.25 -145.8 Q-102.45 -145.55 -102.7 -145.45 L-103.3 -145.45 Q-104.35 -145.8 -105.2 -146.25 L-106.8 -147.65 -106.95 -147.8 -107.1 -147.9 -107.15 -147.95 -107.55 -148.55 -107.95 -149.4 -108.05 -149.8 Q-108.85 -151.75 -109.0 -154.6 -109.3 -160.6 -106.6 -166.6 L-104.15 -172.2 Q-104.15 -173.85 -105.5 -174.65 -110.4 -169.6 -111.35 -165.85 L-112.55 -161.45 -113.0 -160.9 -113.7 -160.75 -114.3 -161.1 Q-116.4 -163.6 -117.3 -172.5 -118.25 -181.2 -109.9 -196.2 -101.95 -210.5 -102.05 -215.3 -102.8 -240.0 -94.45 -257.4 -86.15 -274.8 -81.0 -281.5 -75.9 -288.2 -60.4 -300.75 -44.85 -313.4 -17.5 -316.7 9.7 -319.95 50.65 -307.95 L50.75 -307.95 M85.15 -226.25 Q88.15 -224.6 92.65 -222.4 L93.05 -222.0 93.2 -221.45 Q92.9 -210.0 100.0 -193.0 L100.0 -192.95 Q101.1 -189.8 101.65 -188.8 103.15 -186.35 100.25 -179.95 L97.7 -174.15 Q97.7 -172.05 98.55 -171.0 L98.6 -170.95 Q99.1 -170.5 100.9 -169.65 105.2 -167.65 105.2 -161.15 105.2 -158.35 102.95 -151.15 102.85 -150.8 102.55 -150.6 L101.85 -150.45 Q101.5 -150.5 101.25 -150.8 101.0 -151.05 101.0 -151.4 100.9 -157.45 98.9 -157.75 L96.75 -157.3 Q94.1 -145.25 86.65 -142.6 L86.05 -142.6 Q85.75 -142.7 85.55 -142.9 L85.3 -143.45 85.45 -144.05 Q87.75 -148.3 87.95 -153.8 88.25 -160.6 86.35 -164.35 L86.25 -164.95 86.55 -165.5 Q94.55 -173.85 94.6 -181.15 L93.35 -185.2 89.5 -194.9 Q83.95 -207.95 83.65 -209.8 83.15 -212.4 83.25 -218.2 83.3 -222.2 83.65 -225.5 L83.95 -226.05 84.5 -226.4 85.15 -226.25 M84.85 -153.4 L84.85 -153.35 Q83.65 -147.45 82.05 -145.75 81.1 -144.75 80.4 -144.5 79.15 -144.0 78.45 -145.0 L78.35 -145.15 Q75.15 -151.1 75.3 -151.35 74.2 -151.35 73.5 -150.95 L73.05 -150.5 Q72.9 -146.6 70.5 -145.1 L69.85 -144.95 69.2 -145.3 68.95 -145.95 Q68.95 -148.9 68.35 -150.6 68.2 -150.95 68.35 -151.25 L68.75 -151.8 71.45 -153.45 71.65 -153.55 Q77.85 -158.0 81.45 -160.85 L81.8 -161.05 Q83.0 -161.75 84.35 -158.8 85.25 -156.8 84.85 -153.4 M63.9 -148.75 L64.5 -148.45 64.75 -147.9 64.95 -146.5 64.85 -146.0 64.5 -145.55 Q64.25 -145.4 64.0 -145.4 63.0 -145.3 61.7 -144.1 L57.75 -141.15 57.15 -141.05 56.6 -141.35 Q56.0 -141.75 55.8 -143.8 55.65 -144.2 55.8 -144.55 L56.3 -145.1 58.9 -146.4 63.3 -148.65 63.9 -148.75" fill="#49cae9" fill-rule="evenodd" stroke="none"/>
  </g>
</svg>
