<?xml version="1.0" encoding="UTF-8" standalone="no"?>
<svg xmlns:xlink="http://www.w3.org/1999/xlink" height="258.3px" width="196.15px" xmlns="http://www.w3.org/2000/svg">
  <g transform="matrix(1, 0, 0, 1, 103.2, 263.6)">
    <path d="M61.75 -254.6 L62.5 -254.6 Q72.45 -250.6 91.15 -233.2 L91.5 -232.6 92.9 -221.45 92.9 -221.2 92.95 -220.75 92.8 -220.1 92.35 -219.7 91.7 -219.65 Q91.4 -219.75 91.2 -220.0 L84.55 -228.35 84.35 -228.55 84.0 -229.0 84.0 -228.95 83.25 -229.85 78.2 -235.8 78.15 -235.85 78.1 -235.95 77.65 -236.5 77.3 -236.9 77.3 -236.85 77.05 -237.15 Q69.95 -245.35 65.5 -249.55 L65.5 -249.5 65.15 -249.85 64.9 -250.05 64.85 -250.15 63.2 -251.55 62.95 -251.8 62.45 -252.15 62.45 -252.2 61.95 -252.55 61.55 -252.85 Q61.2 -253.05 61.15 -253.4 61.05 -253.8 61.25 -254.15 L61.75 -254.6 M14.35 -258.35 L14.9 -257.95 15.05 -257.3 14.75 -256.7 14.6 -256.55 14.6 -256.5 14.25 -256.25 14.3 -256.25 13.85 -255.8 13.8 -255.8 13.5 -255.5 13.45 -255.45 12.45 -254.5 12.45 -254.55 10.65 -252.85 10.65 -252.8 8.55 -250.9 Q-4.2 -239.5 -19.05 -239.65 L-21.35 -239.65 -21.5 -239.65 -21.8 -239.7 -22.15 -239.8 -22.1 -239.8 -22.35 -239.9 -22.95 -240.3 -23.05 -241.0 -22.7 -241.6 Q-20.4 -243.5 -18.45 -245.35 L-18.1 -245.55 13.7 -258.35 14.35 -258.35 M76.8 -157.35 L77.3 -157.75 78.0 -157.95 78.65 -157.6 78.9 -156.95 78.9 -156.85 Q77.7 -129.25 78.1 -122.35 78.5 -115.55 81.05 -107.75 83.6 -99.7 84.2 -96.85 84.75 -94.0 84.75 -88.95 L84.75 -87.4 84.75 -87.35 84.7 -87.05 84.6 -86.65 84.55 -86.55 84.5 -86.45 84.45 -86.35 82.85 -83.05 82.75 -82.95 82.45 -82.5 81.9 -82.1 81.25 -82.15 80.75 -82.6 80.65 -83.25 81.0 -85.3 Q81.0 -91.15 79.65 -96.75 L76.6 -107.15 Q74.0 -116.2 72.8 -125.25 71.95 -131.85 71.85 -138.45 L71.9 -153.25 72.0 -153.65 72.3 -154.0 72.5 -154.15 73.2 -154.65 73.5 -154.9 76.1 -156.85 76.15 -156.9 76.65 -157.25 76.8 -157.35 M45.9 -83.3 L46.5 -83.75 47.25 -83.65 47.3 -83.65 Q48.85 -83.9 56.7 -69.2 62.15 -58.95 65.3 -51.5 L64.75 -58.45 64.7 -58.95 64.9 -59.55 65.4 -59.95 66.45 -60.1 Q67.3 -60.35 77.05 -42.05 L77.15 -41.35 76.8 -40.1 76.7 -39.75 75.1 -33.9 74.85 -32.95 Q71.8 -21.65 61.8 -13.35 L61.1 -13.15 Q60.7 -13.15 60.45 -13.45 L60.2 -13.7 59.9 -14.25 Q57.5 -35.15 55.0 -39.8 L54.85 -40.05 54.85 -40.0 Q54.2 -41.0 52.95 -41.5 L52.7 -41.65 52.7 -41.6 52.55 -41.7 52.3 -41.75 52.35 -41.75 51.5 -41.95 51.45 -41.95 51.25 -41.65 Q50.95 -41.4 50.55 -41.4 50.15 -41.4 49.9 -41.65 49.6 -41.9 49.55 -42.3 L49.4 -44.4 48.65 -58.25 Q47.4 -74.7 45.8 -82.6 45.7 -83.0 45.9 -83.3 M51.55 -69.05 L51.55 -69.0 51.6 -68.2 52.45 -69.0 51.45 -69.85 51.55 -69.05 M6.45 -64.4 L6.9 -64.85 7.55 -64.9 8.1 -64.55 8.3 -63.95 Q8.7 -47.35 11.65 -44.45 13.65 -48.15 14.85 -49.5 L15.45 -49.85 16.15 -49.7 16.55 -49.2 17.95 -45.4 21.6 -35.45 21.65 -35.05 21.5 -34.65 19.8 -31.4 18.9 -29.75 Q13.5 -19.85 9.0 -13.0 L8.75 -12.65 8.4 -12.1 4.5 -6.7 4.5 -6.75 4.45 -6.65 4.4 -6.6 4.2 -6.35 4.0 -6.1 3.9 -5.95 3.85 -5.95 3.65 -5.65 3.15 -5.35 2.6 -5.35 2.1 -5.65 Q-3.9 -12.75 -7.65 -21.3 L-7.7 -21.5 -9.15 -24.7 Q-11.45 -29.55 -12.9 -31.3 L-12.9 -31.35 -12.95 -31.4 -13.05 -31.5 -13.3 -32.15 -13.2 -36.7 -11.8 -51.9 -12.05 -93.9 -12.05 -94.9 -11.8 -95.55 -11.2 -95.9 -10.5 -95.75 -10.1 -95.2 Q-2.0 -69.3 0.25 -51.4 2.4 -56.65 6.45 -64.4 M70.2 -48.85 L69.45 -49.55 69.5 -48.15 70.2 -48.85 M-61.4 -263.6 L-60.7 -263.25 -60.45 -262.8 -60.4 -262.35 Q-60.4 -260.55 -61.8 -257.45 L-64.55 -251.55 -64.6 -251.55 Q-68.65 -242.6 -68.65 -232.9 L-68.2 -229.8 -68.3 -229.3 Q-69.7 -225.95 -70.05 -223.15 L-70.35 -222.6 -70.9 -222.3 -71.55 -222.4 -71.95 -222.85 -72.1 -223.15 -73.45 -226.4 -73.65 -226.9 -73.6 -226.85 -73.8 -227.3 -73.95 -227.75 Q-75.3 -231.6 -75.8 -235.1 -76.3 -238.8 -75.95 -242.2 L-75.95 -242.3 -74.65 -247.8 -74.6 -247.9 -73.55 -250.5 -73.5 -250.55 -73.4 -250.85 -73.1 -251.4 -72.85 -251.9 -72.6 -252.3 -71.65 -253.75 -71.3 -254.2 -70.5 -255.25 -70.5 -255.3 -70.4 -255.4 -70.3 -255.5 -70.35 -255.5 -70.2 -255.6 -70.15 -255.7 -70.1 -255.7 -70.2 -255.65 -69.55 -256.35 -69.35 -256.7 -67.5 -258.55 -67.5 -258.5 -67.5 -258.55 -67.35 -258.65 -67.0 -259.0 -67.0 -259.05 -65.35 -260.55 -65.35 -260.6 -65.15 -260.7 -62.05 -263.35 Q-61.8 -263.65 -61.4 -263.6 M-94.3 -78.35 L-93.9 -78.95 -93.2 -79.15 Q-92.85 -79.15 -92.55 -78.8 -92.3 -78.5 -92.3 -78.1 L-93.35 -46.55 -92.1 -41.2 -92.25 -40.45 Q-92.45 -40.15 -92.8 -40.0 L-93.55 -40.1 Q-93.9 -40.3 -94.05 -40.65 L-94.2 -41.2 -94.25 -41.25 -94.35 -41.55 -94.35 -41.65 -94.4 -41.7 -95.15 -40.2 -95.15 -40.25 -95.5 -39.45 Q-98.1 -33.9 -99.2 -28.55 L-99.25 -28.5 -99.25 -28.4 -99.25 -28.3 -99.3 -28.25 -99.35 -28.05 -99.35 -28.0 -99.4 -27.8 -99.7 -27.25 Q-99.95 -27.05 -100.25 -27.0 L-100.85 -27.15 -101.3 -27.6 Q-103.2 -32.1 -103.2 -36.45 -103.2 -43.75 -101.55 -50.75 L-101.5 -50.9 -97.85 -63.25 Q-97.0 -65.95 -96.3 -68.7 -95.1 -73.4 -94.3 -78.35 M-73.4 -64.45 Q-73.4 -66.35 -72.8 -66.6 -72.15 -67.35 -71.2 -66.6 L-70.6 -65.8 Q-69.65 -64.25 -67.75 -58.6 -64.7 -49.4 -58.05 -37.45 -58.5 -41.4 -57.95 -45.65 L-57.0 -52.85 -56.8 -53.45 -56.25 -53.8 -55.6 -53.75 -55.15 -53.3 -54.9 -52.85 -54.9 -52.9 Q-45.35 -35.35 -40.85 -32.1 L-39.1 -31.2 -38.7 -30.85 -38.55 -30.3 -38.55 -30.15 -38.6 -30.0 -38.6 -29.95 -38.9 -27.75 -38.95 -27.75 -39.05 -26.8 -39.2 -25.85 Q-40.65 -15.65 -40.7 -11.05 L-40.7 -10.75 -40.7 -10.7 -40.9 -10.1 Q-41.1 -9.8 -41.45 -9.7 L-42.05 -9.75 Q-58.3 -16.45 -65.6 -28.75 L-65.8 -29.05 -65.8 -29.1 -65.95 -29.4 -66.35 -30.05 -67.95 -32.9 -68.15 -33.25 -68.65 -34.15 -68.75 -34.3 -68.75 -34.35 -69.35 -35.5 -69.4 -35.65 -69.45 -35.75 -69.55 -35.9 -70.45 -37.8 -70.4 -37.8 -71.45 -40.35 -71.5 -40.6 -73.4 -64.4 -73.4 -64.45 M-68.05 -53.7 L-68.8 -54.4 -68.75 -53.0 -68.05 -53.7" fill="#a0adde" fill-rule="evenodd" stroke="none"/>
    <path d="M-79.8 -211.9 L-79.15 -211.8 -78.7 -211.3 -78.5 -210.8 -78.5 -210.7 -77.35 -203.5 -77.3 -203.35 -77.3 -202.45 -76.9 -191.85 -76.9 -191.8 Q-76.1 -185.65 -73.0 -170.85 L-66.4 -150.35 Q-61.1 -133.9 -60.45 -129.15 L-60.65 -128.45 -61.25 -128.05 -61.95 -128.15 -62.4 -128.7 Q-63.55 -132.1 -64.3 -133.1 L-64.7 -131.85 -64.75 -131.45 Q-60.85 -112.75 -60.1 -106.1 -60.05 -105.7 -60.25 -105.4 L-60.85 -105.0 -61.55 -105.1 -62.05 -105.6 Q-64.0 -111.05 -69.2 -122.15 L-69.2 -122.2 -69.6 -123.15 -71.65 -128.35 -71.65 -128.4 -71.8 -128.7 -71.8 -128.75 -72.05 -129.5 -72.05 -129.55 -73.65 -134.5 -73.75 -134.85 -73.8 -134.85 -73.85 -135.15 -74.0 -135.65 -74.15 -136.1 -74.15 -136.15 -74.45 -137.2 -74.4 -137.2 -74.55 -137.7 -74.55 -137.65 -74.7 -138.15 -74.9 -138.9 -74.9 -138.95 -74.95 -139.2 -75.1 -139.7 -75.05 -139.65 -75.15 -139.95 -75.25 -140.35 -75.5 -141.3 -75.5 -141.35 -75.55 -141.55 Q-77.3 -148.95 -78.35 -157.0 -79.65 -167.05 -79.8 -178.1 L-79.8 -178.15 -79.8 -178.2 -79.8 -178.25 -79.8 -178.65 -79.8 -178.7 -79.8 -179.05 -79.8 -179.1 -79.8 -179.55 -79.85 -182.0 Q-79.85 -186.8 -80.6 -210.9 L-80.4 -211.55 -79.8 -211.9" fill="#a0adde" fill-rule="evenodd" stroke="none"/>
  </g>
</svg>
