<?xml version="1.0" encoding="UTF-8" standalone="no"?>
<svg xmlns:xlink="http://www.w3.org/1999/xlink" height="184.6px" width="211.0px" xmlns="http://www.w3.org/2000/svg">
  <g transform="matrix(1, 0, 0, 1, 107.0, 318.55)">
    <path d="M37.7 -312.0 Q37.7 -312.35 37.95 -312.6 L38.45 -312.95 39.1 -312.9 41.9 -311.75 Q57.75 -305.15 70.5 -295.55 91.55 -279.45 88.05 -267.75 L89.9 -267.4 Q91.3 -267.4 92.2 -268.0 L92.2 -267.95 93.15 -268.55 93.15 -268.7 93.45 -269.25 93.95 -269.55 94.55 -269.5 95.0 -269.1 Q103.95 -254.75 103.9 -244.2 103.9 -241.35 102.05 -235.8 100.35 -230.7 100.3 -228.75 100.35 -227.6 102.0 -224.25 103.9 -220.4 104.0 -217.75 104.2 -214.95 99.15 -210.95 L99.1 -210.95 Q96.7 -209.1 95.4 -208.6 L93.9 -208.4 Q92.9 -208.6 92.75 -209.7 L92.75 -209.75 Q92.6 -211.0 92.6 -212.25 L92.6 -212.3 92.25 -218.7 91.45 -221.5 Q91.35 -221.75 91.4 -221.95 L91.55 -222.4 92.85 -224.7 92.9 -224.7 Q95.0 -228.9 93.8 -235.9 91.45 -248.9 89.2 -251.15 89.75 -249.3 89.7 -247.4 89.6 -243.45 86.2 -240.25 82.95 -237.15 74.8 -236.3 L74.2 -236.45 Q73.9 -236.6 73.8 -236.9 73.65 -237.25 73.75 -237.55 L73.9 -238.15 Q75.95 -245.4 74.1 -251.2 71.8 -247.95 64.5 -244.05 L63.9 -243.95 Q63.6 -244.0 63.35 -244.2 L63.05 -244.7 63.05 -245.3 Q65.95 -253.45 61.5 -267.25 60.45 -268.5 59.15 -268.85 61.5 -262.6 62.0 -255.15 62.55 -246.25 56.5 -241.25 L55.9 -241.05 Q55.55 -241.05 55.3 -241.2 L54.9 -241.7 54.9 -242.3 Q55.85 -245.95 51.6 -252.55 49.55 -255.75 47.55 -257.9 50.15 -253.65 52.2 -246.45 54.6 -238.25 46.7 -233.75 L45.95 -233.65 Q45.55 -233.8 45.35 -234.15 45.1 -234.5 45.25 -234.9 46.85 -240.9 44.95 -243.85 42.75 -247.0 36.05 -253.7 31.7 -258.3 27.05 -267.6 L26.85 -268.05 Q26.65 -255.7 23.05 -240.4 L22.65 -239.85 22.0 -239.65 21.4 -239.9 Q21.1 -240.15 21.05 -240.5 19.6 -253.1 12.55 -266.05 L10.05 -270.9 10.05 -270.7 Q8.3 -259.25 -7.05 -242.05 -7.3 -241.8 -7.65 -241.75 L-8.3 -241.85 Q-8.6 -242.05 -8.7 -242.4 L-8.75 -243.05 Q-5.15 -254.3 -10.2 -261.0 -10.4 -255.3 -12.65 -251.2 -15.55 -245.8 -24.25 -238.55 -33.05 -231.25 -42.9 -229.85 L-43.55 -230.0 -44.0 -230.5 -44.0 -231.15 -43.55 -231.7 Q-31.6 -239.05 -29.75 -242.55 -28.0 -245.95 -28.2 -249.35 -28.3 -250.6 -28.65 -251.3 -28.8 -249.45 -29.5 -246.45 -30.7 -240.8 -47.75 -231.7 -64.75 -222.7 -67.6 -223.35 L-68.2 -223.65 -68.45 -224.25 -68.3 -224.85 Q-63.35 -232.7 -59.4 -236.65 L-51.8 -244.35 Q-48.6 -248.1 -48.55 -251.4 L-48.55 -253.65 Q-48.95 -254.55 -50.1 -254.8 -50.95 -248.85 -62.3 -236.5 -69.7 -228.55 -72.4 -216.75 L-72.75 -216.2 -73.35 -216.0 -74.0 -216.2 -74.35 -216.7 Q-80.1 -237.25 -71.7 -249.55 -66.25 -257.6 -63.2 -261.35 -72.4 -257.8 -76.9 -245.55 -80.7 -235.1 -79.2 -225.05 -77.15 -211.4 -74.05 -209.3 -72.7 -208.55 -70.6 -208.35 -71.5 -212.2 -70.05 -218.55 L-69.75 -219.1 -69.15 -219.35 Q-64.25 -219.9 -56.75 -223.8 L-56.15 -223.9 -55.55 -223.65 -55.3 -223.05 -55.4 -222.45 Q-59.9 -214.75 -61.55 -198.6 -63.2 -182.6 -59.0 -173.4 -54.65 -163.9 -53.1 -156.9 -51.45 -149.55 -54.6 -144.6 L-55.15 -144.2 -55.85 -144.25 -56.35 -144.75 -56.4 -145.45 Q-54.9 -150.05 -57.2 -153.5 -59.75 -157.25 -67.1 -164.95 -74.7 -172.95 -77.85 -184.15 L-80.3 -192.2 -80.5 -192.75 -80.7 -191.55 -80.7 -191.5 -80.75 -186.9 Q-80.75 -179.0 -77.35 -172.8 -74.95 -168.45 -69.85 -163.5 -63.0 -156.95 -62.1 -155.75 -58.4 -151.2 -58.4 -146.25 -58.4 -144.55 -59.6 -142.15 -60.35 -140.9 -60.55 -139.85 L-60.6 -139.6 -61.05 -138.25 -60.75 -138.45 Q-58.45 -138.9 -52.4 -142.65 L-51.8 -142.8 -51.2 -142.55 -48.65 -140.35 -48.35 -139.9 -48.25 -139.4 -48.5 -138.9 -51.05 -136.25 -51.1 -136.25 Q-53.15 -134.25 -58.6 -134.05 L-59.75 -133.95 -59.85 -133.95 Q-66.65 -133.75 -69.4 -140.55 -71.95 -146.75 -73.3 -156.45 L-73.75 -160.1 Q-74.75 -159.25 -74.75 -157.65 L-74.75 -157.55 Q-75.2 -150.95 -73.05 -143.3 -73.0 -143.0 -73.1 -142.7 -73.95 -140.2 -75.9 -139.5 L-82.55 -139.2 Q-87.6 -139.6 -91.85 -144.95 -96.1 -150.25 -96.5 -154.65 -96.9 -158.95 -95.65 -165.35 L-93.6 -174.7 Q-94.0 -175.75 -94.9 -175.95 -100.8 -164.4 -97.45 -148.5 L-97.55 -147.8 -98.05 -147.35 -98.75 -147.35 Q-104.6 -148.95 -105.25 -163.55 -105.85 -177.5 -104.45 -182.0 -102.95 -186.95 -102.6 -187.05 L-102.0 -187.3 -101.4 -187.15 Q-98.85 -185.55 -97.2 -185.25 -96.4 -185.1 -95.9 -185.45 L-97.4 -189.65 Q-98.45 -192.7 -97.35 -195.65 -96.35 -198.45 -90.85 -202.95 -86.15 -206.85 -86.95 -211.95 -87.9 -217.6 -88.5 -219.9 -89.25 -222.6 -88.85 -223.75 L-87.55 -229.75 -86.5 -234.75 -86.45 -235.1 -86.7 -234.8 Q-88.1 -233.35 -90.15 -228.3 -92.4 -223.05 -92.45 -221.7 -92.4 -220.5 -90.8 -217.1 -88.95 -213.15 -89.25 -210.85 -89.5 -208.5 -91.15 -206.5 -92.65 -204.65 -95.6 -202.2 -98.3 -200.0 -100.05 -194.35 L-100.45 -193.8 -101.05 -193.65 -101.65 -193.9 -102.0 -194.5 -102.7 -199.95 Q-102.7 -201.4 -101.45 -204.6 -100.45 -207.25 -100.75 -209.2 -101.1 -211.15 -103.5 -213.95 -106.35 -217.15 -106.95 -225.55 -107.6 -233.9 -100.75 -242.05 -94.0 -250.1 -90.1 -251.95 -87.2 -253.4 -85.7 -254.5 -87.4 -258.1 -87.7 -260.75 -88.1 -263.75 -84.45 -271.1 -80.2 -279.8 -74.65 -287.4 -57.8 -310.55 -39.0 -310.45 L-30.7 -309.65 -30.65 -309.65 -25.5 -308.55 -23.45 -308.6 -23.5 -308.6 Q-23.0 -309.15 -22.8 -310.75 -24.95 -312.0 -29.15 -313.35 L-29.6 -313.65 -29.85 -314.2 -29.7 -314.8 -29.25 -315.2 Q-27.4 -316.1 -20.8 -317.25 L-0.45 -318.55 Q13.65 -318.75 23.25 -315.0 L38.35 -309.15 37.9 -311.4 37.7 -312.0 M90.8 -237.25 Q92.0 -235.5 91.5 -230.9 L91.5 -230.85 Q91.05 -226.45 85.0 -220.8 84.7 -220.55 84.3 -220.55 83.85 -220.55 83.6 -220.85 83.3 -221.15 83.3 -221.55 L83.4 -227.95 Q83.35 -229.85 82.45 -231.7 L82.35 -232.2 82.55 -232.7 82.95 -233.05 Q86.6 -234.65 89.2 -237.4 89.4 -237.65 89.75 -237.7 L90.3 -237.65 90.8 -237.25 M87.75 -217.6 L88.4 -217.3 88.65 -216.6 88.6 -214.35 Q88.6 -205.05 90.75 -201.25 93.0 -197.35 96.2 -193.3 99.5 -189.1 101.2 -185.1 102.9 -181.1 103.0 -173.2 103.1 -165.15 98.9 -161.05 94.25 -156.45 92.85 -157.8 L92.55 -158.15 92.45 -158.6 Q92.3 -162.25 91.7 -163.55 L89.35 -167.65 89.2 -168.25 89.45 -168.8 Q94.55 -175.3 94.6 -181.15 L93.35 -185.2 89.5 -194.9 Q83.95 -207.95 83.65 -209.8 83.3 -211.45 83.25 -214.4 83.25 -214.7 83.4 -214.9 L83.8 -215.3 87.0 -217.4 87.75 -217.6 M85.95 -163.7 L86.0 -163.65 86.1 -163.55 86.25 -163.4 86.5 -163.1 87.35 -161.85 Q88.65 -160.0 88.85 -156.45 89.15 -152.7 84.8 -150.25 L80.0 -147.3 79.4 -147.1 78.8 -147.3 78.45 -147.8 78.45 -148.45 Q80.65 -154.5 80.75 -159.85 L80.85 -160.25 81.15 -160.6 84.65 -163.6 Q85.0 -164.4 85.95 -163.7 M71.45 -153.45 L71.65 -153.55 74.0 -155.2 74.7 -155.4 75.3 -155.05 75.55 -154.35 Q75.25 -147.35 73.1 -144.35 70.7 -140.9 66.25 -141.95 65.95 -142.05 65.75 -142.25 63.7 -144.2 63.65 -148.0 L63.7 -148.65 64.15 -149.15 71.45 -153.45 M58.2 -144.6 Q58.5 -142.95 59.4 -141.3 L59.65 -140.8 59.75 -140.1 59.35 -139.5 Q54.3 -136.25 50.0 -135.4 45.45 -134.55 41.05 -137.35 40.7 -137.55 40.65 -137.95 40.55 -138.3 40.75 -138.65 L41.25 -139.15 Q52.6 -143.3 56.8 -145.3 L57.35 -145.4 57.9 -145.15 58.2 -144.6 M-22.4 -310.5 L-22.3 -310.4 -22.4 -310.5 -22.7 -311.05 -22.75 -311.3 -22.8 -310.75 -22.4 -310.5" fill="#f3e8fd" fill-rule="evenodd" stroke="none"/>
  </g>
</svg>
