<?xml version="1.0" encoding="UTF-8" standalone="no"?>
<svg xmlns:xlink="http://www.w3.org/1999/xlink" height="183.85px" width="282.75px" xmlns="http://www.w3.org/2000/svg">
  <g transform="matrix(1, 0, 0, 1, 151.85, 316.1)">
    <path d="M97.95 -311.75 Q117.1 -303.9 125.1 -288.6 L125.1 -288.55 Q133.1 -273.15 130.1 -262.0 128.2 -255.0 123.35 -248.95 118.8 -243.25 117.1 -238.55 115.5 -234.0 119.2 -226.1 122.95 -218.2 127.35 -216.2 L127.85 -215.7 127.9 -215.0 Q127.8 -214.65 127.5 -214.45 L126.8 -214.3 Q121.35 -215.2 114.65 -217.95 110.5 -219.65 105.45 -223.05 L105.1 -223.4 105.0 -223.85 105.05 -226.45 Q105.45 -233.35 105.35 -238.15 L105.35 -238.2 Q105.25 -249.8 96.4 -266.1 88.95 -279.85 77.8 -292.85 70.7 -301.2 56.25 -308.2 L55.75 -308.7 Q55.6 -309.05 55.75 -309.35 L56.15 -309.9 Q58.25 -311.3 60.85 -312.45 75.35 -318.95 97.85 -311.75 L97.95 -311.75 M51.35 -304.55 Q59.9 -300.5 67.5 -295.1 79.95 -286.2 87.8 -274.15 93.5 -265.5 96.8 -255.15 L98.15 -250.4 99.1 -246.35 Q100.2 -241.15 100.7 -232.05 L100.45 -231.35 Q100.2 -231.05 99.8 -231.0 L99.1 -231.2 Q93.3 -235.7 90.95 -241.65 L90.45 -243.2 87.7 -237.3 85.9 -233.25 85.55 -232.75 84.95 -232.55 84.35 -232.7 Q80.0 -235.6 70.0 -248.65 L62.3 -258.85 60.4 -246.0 60.1 -245.4 Q59.85 -245.2 59.55 -245.15 L58.9 -245.3 58.5 -245.75 53.0 -263.0 50.25 -270.25 Q44.9 -247.5 44.5 -242.0 L44.3 -241.45 43.8 -241.15 43.25 -241.15 42.75 -241.45 Q38.75 -246.2 30.2 -264.75 L24.35 -277.95 Q23.85 -272.5 19.9 -266.2 18.0 -263.25 14.7 -259.05 L8.0 -251.3 Q7.75 -251.1 7.45 -251.0 L6.8 -251.1 Q6.5 -251.25 6.35 -251.55 6.2 -251.85 6.3 -252.2 7.55 -258.9 2.85 -272.95 L-3.55 -262.7 Q-14.0 -246.3 -24.1 -240.9 L-24.8 -240.8 -25.4 -241.2 -25.6 -241.9 -22.3 -260.0 Q-20.7 -270.0 -20.4 -274.35 L-24.25 -266.8 Q-29.65 -256.9 -36.5 -246.55 -56.05 -217.1 -75.9 -201.9 L-76.45 -201.7 -77.05 -201.85 -77.45 -202.35 Q-80.15 -209.6 -75.95 -226.3 -73.35 -236.7 -70.1 -244.1 -76.8 -237.1 -79.05 -231.8 -81.9 -225.0 -82.45 -210.85 -82.95 -197.85 -76.05 -191.6 -70.1 -201.4 -61.45 -210.1 L-60.85 -210.4 -60.2 -210.25 -59.8 -209.65 Q-59.7 -209.35 -59.85 -209.0 L-62.8 -202.65 Q-65.45 -196.45 -65.45 -187.8 -65.45 -184.45 -63.1 -176.55 -60.65 -168.4 -60.65 -165.3 -60.65 -162.85 -62.0 -159.5 -63.5 -156.0 -64.85 -155.5 -65.2 -155.35 -65.55 -155.5 -65.95 -155.65 -66.1 -155.95 L-66.2 -156.7 Q-65.15 -161.3 -71.35 -167.15 L-71.3 -167.15 -77.1 -172.3 -84.0 -178.7 Q-87.85 -182.3 -88.25 -192.7 -88.4 -197.5 -89.0 -199.8 L-89.5 -201.2 -90.65 -201.3 -90.65 -200.9 Q-91.25 -198.6 -91.25 -194.85 -91.25 -184.85 -87.85 -178.25 -85.55 -173.7 -80.4 -169.25 -73.9 -163.6 -72.6 -161.95 -68.9 -157.25 -68.9 -150.6 -68.85 -148.65 -70.55 -145.3 -63.45 -147.45 -61.85 -149.95 L-61.45 -150.3 -60.9 -150.45 -60.4 -150.25 -40.85 -135.95 -40.5 -135.45 -40.5 -134.85 -40.85 -134.35 -41.45 -134.15 -49.15 -134.15 -49.65 -134.25 -50.7 -134.9 Q-59.05 -136.9 -59.9 -136.5 L-60.15 -136.4 Q-84.95 -127.9 -94.55 -136.85 L-104.6 -146.25 -105.45 -144.1 Q-106.3 -141.7 -106.5 -139.5 L-106.8 -138.9 Q-107.05 -138.65 -107.45 -138.6 L-108.1 -138.8 -109.95 -140.25 -110.0 -140.25 Q-118.1 -147.0 -118.0 -152.85 -118.0 -157.25 -115.55 -162.3 L-108.25 -174.7 Q-102.4 -184.25 -102.95 -200.5 -103.55 -217.3 -101.5 -227.0 -99.45 -236.8 -96.4 -245.2 L-96.35 -245.2 -90.85 -259.9 -90.9 -259.9 -88.75 -265.4 -88.5 -265.8 -88.05 -266.0 Q-83.9 -266.95 -79.45 -268.55 -71.75 -271.4 -66.55 -277.7 L-66.6 -277.7 -66.9 -278.4 -66.95 -278.8 -66.9 -279.4 -66.5 -279.85 -65.95 -280.05 -65.9 -280.05 Q-65.5 -280.05 -65.2 -279.75 L-65.15 -279.7 Q-62.2 -285.0 -64.8 -294.8 L-65.1 -295.85 -65.1 -296.45 -64.75 -296.95 Q-58.2 -301.9 -50.35 -305.5 -21.15 -318.9 11.45 -315.4 30.05 -313.4 45.75 -307.0 L51.35 -304.55 M85.0 -228.25 L85.65 -227.95 89.4 -224.15 Q90.3 -228.85 90.7 -228.85 L91.4 -229.0 92.0 -228.65 92.25 -227.95 92.05 -219.3 Q92.05 -208.65 94.6 -201.25 96.25 -196.35 100.15 -190.8 104.7 -184.25 106.6 -179.95 108.5 -175.55 108.25 -169.45 108.0 -163.4 104.95 -158.25 102.0 -153.3 97.65 -148.3 97.4 -148.0 97.05 -147.95 L96.35 -148.1 95.95 -148.7 Q95.85 -149.1 96.05 -149.4 98.55 -154.15 99.0 -156.25 L91.9 -149.85 Q79.55 -139.55 71.05 -138.6 L70.9 -138.55 70.9 -138.6 70.8 -138.55 70.7 -138.55 69.7 -138.5 69.4 -138.5 Q56.05 -142.0 45.6 -138.2 45.2 -138.05 44.85 -138.2 L44.35 -138.75 Q44.15 -139.15 44.35 -139.5 L44.85 -140.05 Q55.7 -144.8 58.9 -146.4 65.75 -149.85 71.45 -153.45 L71.65 -153.55 Q81.35 -160.5 84.65 -163.6 94.5 -173.05 94.6 -181.15 L93.35 -185.2 89.5 -194.9 Q83.95 -207.95 83.65 -209.8 83.15 -212.4 83.25 -218.2 83.3 -222.85 83.95 -227.4 84.0 -227.8 84.3 -228.0 L85.0 -228.25 M-118.75 -306.85 Q-96.25 -314.05 -81.75 -307.6 -75.05 -304.65 -71.6 -300.15 -69.5 -297.4 -68.6 -294.1 L-68.25 -292.0 -67.9 -288.25 Q-67.75 -286.3 -68.55 -283.85 -69.7 -280.1 -72.5 -277.4 L-71.9 -277.5 -71.35 -277.45 -70.9 -277.1 -70.75 -276.55 -70.75 -276.45 Q-70.75 -276.05 -71.05 -275.75 -71.35 -275.45 -71.75 -275.45 L-72.35 -275.45 Q-72.75 -275.45 -73.0 -275.7 L-73.35 -276.35 -73.3 -276.7 Q-76.15 -274.3 -80.35 -272.8 L-83.95 -271.65 -83.9 -271.65 Q-89.15 -270.1 -93.85 -269.5 L-96.9 -269.2 -105.45 -268.45 Q-113.95 -266.15 -116.05 -260.3 -118.1 -254.25 -113.6 -244.5 L-113.6 -244.45 Q-108.0 -232.15 -119.45 -223.15 -128.8 -215.85 -135.5 -213.1 -142.25 -210.35 -147.7 -209.45 L-148.4 -209.55 -148.8 -210.15 -148.75 -210.85 -148.25 -211.35 Q-143.85 -213.3 -140.1 -221.2 -136.4 -229.1 -138.0 -233.65 -139.7 -238.4 -144.25 -244.1 -149.1 -250.15 -151.0 -257.15 -154.05 -268.25 -145.95 -283.65 L-145.95 -283.7 Q-138.0 -299.0 -118.85 -306.85 L-118.75 -306.85" fill="#cb4545" fill-rule="evenodd" stroke="none"/>
  </g>
</svg>
