<?xml version="1.0" encoding="UTF-8" standalone="no"?>
<svg xmlns:xlink="http://www.w3.org/1999/xlink" height="180.45px" width="227.95px" xmlns="http://www.w3.org/2000/svg">
  <g transform="matrix(1, 0, 0, 1, 116.2, 315.95)">
    <path d="M50.25 -267.7 L49.9 -267.7 Q49.7 -258.3 45.55 -251.8 41.0 -244.65 31.9 -238.75 L31.2 -238.6 Q30.8 -238.7 30.55 -239.0 L30.25 -239.4 30.05 -239.85 30.15 -240.4 Q33.65 -248.45 33.65 -263.85 33.65 -265.6 33.25 -266.35 L33.2 -266.35 31.8 -267.5 Q21.3 -256.45 1.0 -241.95 L0.95 -241.95 -7.8 -236.05 Q-8.15 -235.85 -8.5 -235.85 -8.85 -235.95 -9.1 -236.2 L-9.35 -236.85 -9.45 -245.4 Q-9.7 -261.0 -9.9 -263.0 -10.3 -267.0 -11.7 -269.45 -15.2 -264.3 -23.7 -249.7 L-23.75 -249.7 Q-31.1 -237.15 -39.85 -227.95 -40.1 -227.7 -40.45 -227.65 L-41.05 -227.75 -41.5 -228.25 -41.55 -228.85 Q-38.25 -242.9 -36.9 -256.4 -36.15 -263.95 -36.7 -267.35 -36.95 -268.75 -37.4 -269.35 L-37.7 -269.5 Q-50.3 -245.75 -52.45 -238.75 -52.55 -238.45 -52.8 -238.25 L-53.4 -238.05 -54.0 -238.25 -54.35 -238.75 Q-55.65 -242.25 -59.4 -245.8 -63.95 -237.3 -65.45 -218.45 -66.25 -208.8 -66.5 -196.9 L-66.65 -185.55 Q-66.7 -174.55 -60.9 -153.0 -60.85 -152.7 -60.95 -152.35 L-61.35 -151.9 -61.95 -151.75 Q-62.3 -151.8 -62.55 -152.0 -69.35 -157.9 -77.2 -177.05 -85.0 -196.15 -85.0 -217.2 -85.0 -218.75 -83.8 -225.05 L-82.95 -230.35 Q-84.65 -226.55 -86.35 -218.65 -88.95 -206.25 -84.95 -188.65 -80.9 -171.05 -72.05 -156.35 -65.3 -145.25 -56.2 -141.35 -55.9 -143.35 -56.0 -144.05 L-55.9 -144.65 -55.5 -145.1 -54.9 -145.2 -54.35 -144.95 Q-48.85 -140.3 -46.2 -138.6 -45.85 -138.35 -45.75 -137.95 L-45.65 -137.35 Q-45.55 -136.95 -45.75 -136.6 -46.0 -136.3 -46.4 -136.2 L-53.95 -135.5 Q-58.6 -135.5 -67.25 -141.0 -74.05 -145.3 -78.0 -146.0 L-76.1 -138.85 -76.2 -138.1 Q-76.4 -137.8 -76.75 -137.65 -84.2 -134.9 -95.75 -145.0 -101.8 -150.25 -106.8 -156.45 -106.9 -155.0 -107.8 -150.7 -107.9 -150.3 -108.25 -150.05 L-109.0 -149.9 -109.65 -150.35 Q-116.8 -161.75 -116.15 -169.3 -115.6 -176.7 -109.3 -192.15 -103.15 -207.3 -101.0 -218.2 -98.85 -229.25 -94.95 -244.05 -91.1 -258.85 -86.3 -270.65 -81.45 -282.6 -69.85 -295.35 -58.25 -308.25 -31.05 -313.4 -4.1 -318.55 23.25 -313.35 50.7 -308.15 66.45 -295.55 82.2 -283.0 88.1 -272.5 93.9 -262.05 97.3 -251.8 100.65 -241.5 101.3 -227.05 101.95 -213.0 104.45 -207.3 107.05 -201.5 109.3 -190.95 111.45 -180.45 111.75 -168.85 112.05 -156.9 106.8 -150.3 101.65 -143.8 99.7 -142.4 L99.05 -142.25 Q98.7 -142.25 98.45 -142.5 98.2 -142.7 98.15 -143.05 L98.2 -143.7 Q100.65 -148.55 100.7 -150.6 L100.65 -152.15 Q97.8 -149.8 90.0 -144.95 71.65 -133.65 54.2 -136.3 53.8 -136.35 53.6 -136.65 53.35 -136.95 53.35 -137.35 53.35 -137.75 53.65 -138.0 L59.6 -143.85 58.9 -143.85 58.4 -144.0 58.0 -144.4 57.85 -144.65 57.75 -145.15 57.9 -145.7 58.25 -146.05 58.9 -146.4 60.05 -146.95 62.2 -148.05 Q67.15 -150.7 71.45 -153.45 L71.65 -153.55 74.95 -155.95 Q75.2 -156.15 75.55 -156.15 L76.15 -155.95 76.5 -155.4 76.5 -154.8 Q76.05 -153.5 75.7 -150.65 L75.6 -148.5 Q89.05 -159.5 94.15 -169.6 99.5 -180.3 99.5 -192.6 99.5 -198.5 97.1 -209.8 94.75 -220.45 92.85 -222.8 90.9 -221.05 90.85 -218.7 90.85 -214.95 93.25 -206.2 95.65 -197.1 95.65 -192.3 95.65 -189.0 95.2 -185.8 L94.9 -185.2 94.3 -184.95 93.65 -185.1 93.25 -185.6 89.5 -194.9 Q83.95 -207.95 83.65 -209.8 83.15 -212.4 83.25 -218.2 L83.25 -218.3 Q83.25 -218.7 83.5 -218.95 L84.1 -219.3 84.7 -219.5 84.7 -219.55 84.85 -219.7 Q71.1 -253.65 69.5 -257.75 65.75 -248.3 63.25 -238.6 L62.85 -238.05 62.2 -237.85 Q61.8 -237.9 61.55 -238.1 56.0 -243.35 53.4 -256.1 51.0 -267.5 50.25 -267.7" fill="#fef39a" fill-rule="evenodd" stroke="none"/>
  </g>
</svg>
