<?xml version="1.0" encoding="UTF-8" standalone="no"?>
<svg xmlns:xlink="http://www.w3.org/1999/xlink" height="189.2px" width="215.4px" xmlns="http://www.w3.org/2000/svg">
  <g transform="matrix(1, 0, 0, 1, 103.35, 319.6)">
    <path d="M-84.95 -145.6 Q-83.55 -153.15 -83.55 -156.6 -83.55 -158.25 -85.45 -177.1 -87.35 -196.25 -87.35 -213.5 L-87.6 -227.15 Q-87.65 -232.45 -87.1 -236.0 -86.35 -241.35 -77.6 -269.95 -71.65 -289.75 -63.4 -298.7 -58.75 -303.75 -53.6 -306.55 -49.5 -308.8 -39.95 -312.05 -27.4 -316.75 -26.3 -316.85 L-26.25 -316.9 2.05 -319.25 4.0 -319.55 4.55 -319.55 16.3 -318.0 Q43.7 -314.75 48.3 -312.7 57.2 -308.75 63.9 -302.25 L63.85 -302.3 73.8 -291.2 Q82.25 -281.6 85.95 -269.4 L85.95 -269.45 Q88.3 -261.7 89.6 -248.1 L90.05 -243.8 Q93.85 -209.5 108.05 -167.55 L109.15 -164.35 109.15 -163.4 108.6 -162.65 Q108.2 -162.35 107.7 -162.35 106.3 -162.3 101.5 -164.1 97.25 -165.7 94.05 -165.7 92.3 -165.7 91.0 -164.45 89.55 -163.05 88.55 -160.25 86.85 -152.65 85.6 -151.9 L85.0 -151.55 84.3 -151.6 Q77.25 -153.4 75.35 -150.25 74.95 -149.45 74.25 -146.7 73.5 -143.7 72.3 -142.6 71.85 -142.15 71.3 -142.15 70.65 -142.15 70.25 -142.55 67.85 -144.85 66.7 -145.0 L66.4 -144.95 65.75 -145.05 65.2 -145.35 63.4 -147.0 Q63.05 -147.35 62.95 -147.85 62.85 -148.35 63.05 -148.75 63.25 -149.25 63.7 -149.45 67.65 -151.65 71.2 -153.9 L71.4 -154.0 Q81.05 -160.85 84.35 -163.95 L87.75 -167.55 Q94.05 -174.8 94.1 -181.15 L92.9 -185.05 89.05 -194.7 Q83.45 -207.85 83.15 -209.7 82.65 -212.3 82.75 -218.2 L82.9 -227.95 Q82.85 -230.55 81.1 -233.0 L80.85 -233.65 80.9 -234.3 Q82.2 -238.7 82.9 -243.2 82.6 -248.2 79.9 -248.45 79.0 -248.45 78.4 -248.1 L78.35 -248.1 78.05 -247.95 Q77.95 -241.3 77.45 -237.85 76.4 -231.0 71.95 -227.4 L71.2 -227.05 70.35 -227.2 69.85 -227.45 69.35 -227.85 69.05 -228.4 Q65.8 -241.1 64.8 -243.6 61.0 -253.0 55.45 -253.2 54.55 -253.2 54.0 -252.85 L53.55 -252.55 Q52.7 -244.25 48.25 -235.1 L48.25 -235.05 Q45.65 -229.85 38.8 -219.15 L38.95 -219.75 38.75 -220.55 38.25 -221.05 38.15 -221.1 37.55 -221.45 36.65 -221.65 36.6 -221.65 Q36.15 -221.6 35.85 -221.3 L35.35 -220.55 Q35.25 -220.25 35.3 -219.95 33.6 -233.1 28.7 -247.3 23.55 -262.0 19.45 -263.4 L5.8 -244.7 Q-9.0 -224.85 -14.65 -220.6 -14.25 -221.0 -14.2 -221.55 -14.2 -222.15 -14.55 -222.6 L-14.7 -222.8 -15.65 -223.35 -16.75 -223.1 -17.3 -222.35 Q-14.7 -238.85 -15.15 -247.1 -15.55 -253.85 -17.8 -254.15 -19.65 -254.0 -21.4 -251.0 -24.8 -245.45 -26.05 -244.4 -28.25 -242.5 -39.6 -238.15 -47.8 -235.05 -53.8 -233.1 L-53.95 -233.05 -54.8 -233.05 -55.5 -233.45 -55.9 -234.15 -55.95 -234.5 -55.95 -235.2 -55.65 -235.8 -55.5 -235.95 -55.45 -236.0 -42.1 -252.4 Q-34.7 -262.65 -34.6 -268.85 L-34.75 -271.0 Q-35.25 -272.15 -36.65 -272.1 -38.2 -271.75 -49.2 -249.7 L-60.45 -237.85 Q-69.35 -228.6 -69.75 -226.5 L-69.55 -225.2 -68.9 -224.85 -67.65 -224.75 Q-65.45 -224.8 -56.65 -227.9 L-55.7 -227.9 -54.95 -227.35 Q-54.65 -226.95 -54.65 -226.45 L-54.65 -220.5 Q-54.65 -215.1 -53.75 -212.55 L-53.7 -212.55 Q-52.05 -207.65 -50.75 -199.85 -50.7 -199.25 -51.0 -198.75 -51.35 -198.25 -51.95 -198.1 -64.7 -195.6 -65.0 -189.5 -64.9 -186.4 -61.15 -182.65 -56.3 -177.7 -56.55 -176.45 L-56.7 -175.75 -60.45 -168.4 Q-64.05 -161.0 -64.05 -154.95 -64.1 -153.5 -62.75 -153.2 L-61.95 -152.7 -61.65 -152.05 Q-50.8 -142.3 -46.4 -139.3 -45.9 -139.0 -45.75 -138.35 -45.65 -137.75 -46.0 -137.25 L-48.6 -133.15 -49.2 -132.55 -49.6 -132.15 -49.6 -132.1 Q-50.9 -130.35 -52.8 -130.4 -56.2 -130.15 -59.2 -136.1 -61.25 -140.0 -62.9 -140.25 -64.1 -140.2 -64.8 -139.0 L-64.75 -139.1 -66.25 -135.5 Q-66.45 -135.0 -66.95 -134.7 L-67.95 -134.55 -68.8 -135.1 Q-69.45 -135.85 -71.75 -141.75 L-71.65 -141.6 Q-73.85 -145.8 -76.7 -145.95 -78.35 -145.85 -82.3 -143.65 L-81.9 -144.1 -81.7 -144.9 -81.85 -145.6 -81.9 -145.65 -82.2 -146.15 -82.9 -146.7 -83.2 -146.8 -83.75 -146.8 -84.55 -146.4 -84.95 -145.6 M94.2 -251.05 L94.85 -251.65 95.8 -251.8 96.6 -251.35 Q104.35 -243.4 111.3 -239.35 L111.85 -238.8 112.05 -238.05 111.85 -237.3 111.5 -236.7 111.0 -236.2 110.3 -236.0 Q105.75 -235.75 104.5 -234.25 104.2 -233.65 104.2 -231.9 104.25 -227.5 109.25 -217.0 L109.4 -216.15 109.05 -215.4 108.4 -214.9 102.25 -213.2 101.15 -213.35 Q100.6 -213.7 100.45 -214.25 95.15 -234.6 94.45 -245.0 L94.0 -250.15 Q93.95 -250.65 94.2 -251.05 M-90.3 -233.95 Q-91.35 -224.25 -91.35 -213.85 -91.35 -206.5 -90.95 -198.25 -90.95 -197.6 -91.35 -197.15 -91.8 -196.7 -92.4 -196.65 L-93.1 -196.65 Q-94.2 -196.55 -95.3 -195.25 -97.7 -192.55 -99.2 -191.75 L-100.2 -191.55 Q-100.75 -191.7 -101.1 -192.1 -101.45 -192.5 -101.45 -193.05 L-101.45 -200.05 -101.35 -200.5 Q-97.7 -211.7 -97.65 -216.7 L-97.85 -219.1 Q-98.3 -220.35 -99.75 -220.3 -100.6 -220.3 -100.6 -220.65 -100.9 -220.25 -101.35 -220.05 -101.8 -219.9 -102.25 -220.05 -102.75 -220.2 -103.05 -220.6 L-103.35 -221.5 -103.35 -221.55 -103.2 -222.15 -102.85 -222.65 Q-99.05 -226.25 -93.0 -234.95 L-92.25 -235.5 Q-91.75 -235.7 -91.25 -235.5 L-90.5 -234.9 Q-90.25 -234.45 -90.3 -233.95" fill="#f19fad" fill-rule="evenodd" stroke="none"/>
    <path d="M38.8 -219.15 L38.7 -219.0 38.3 -218.4 37.6 -217.8 36.65 -217.75 Q36.15 -217.9 35.85 -218.3 35.55 -218.7 35.55 -219.2 L35.4 -219.6 35.4 -219.65 35.3 -219.95 Q35.25 -220.25 35.35 -220.55 L35.85 -221.3 Q36.15 -221.6 36.6 -221.65 L36.65 -221.65 37.55 -221.45 38.15 -221.1 38.25 -221.05 38.75 -220.55 38.95 -219.75 38.8 -219.15 M-14.65 -220.6 L-14.7 -220.6 -14.75 -220.55 -14.85 -220.45 Q-15.1 -220.25 -15.45 -220.15 L-16.35 -220.25 -17.0 -220.85 -17.05 -220.95 -17.1 -221.05 -17.15 -221.1 -17.35 -221.5 -17.35 -222.2 -17.3 -222.35 -16.75 -223.1 -15.65 -223.35 -14.7 -222.8 -14.55 -222.6 Q-14.2 -222.15 -14.2 -221.55 -14.25 -221.0 -14.65 -220.6 M-82.3 -143.65 L-82.5 -143.55 -82.9 -143.3 -84.0 -143.15 -84.9 -143.85 Q-85.25 -144.35 -85.1 -144.95 L-84.95 -145.6 -84.55 -146.4 -83.75 -146.8 -83.2 -146.8 -82.9 -146.7 -82.2 -146.15 -81.9 -145.65 -81.85 -145.6 -81.7 -144.9 -81.9 -144.1 -82.3 -143.65" fill="#ffaaaa" fill-rule="evenodd" stroke="none"/>
  </g>
</svg>
