<?xml version="1.0" encoding="UTF-8" standalone="no"?>
<svg xmlns:xlink="http://www.w3.org/1999/xlink" height="292.9px" width="208.95px" xmlns="http://www.w3.org/2000/svg">
  <g transform="matrix(1, 0, 0, 1, 103.35, 315.1)">
    <path d="M58.35 -301.4 Q72.1 -293.5 84.1 -282.1 89.65 -276.8 100.35 -264.6 L100.6 -263.9 100.3 -263.2 Q100.0 -262.95 99.6 -262.95 99.2 -262.95 98.95 -263.2 96.85 -265.15 93.65 -265.6 93.9 -263.65 95.55 -259.1 98.6 -250.6 101.4 -240.5 104.2 -230.4 104.8 -220.35 L104.65 -219.8 104.25 -219.4 103.65 -219.3 Q103.3 -219.35 103.1 -219.55 L99.0 -223.75 Q97.35 -225.5 95.55 -227.9 L94.8 -226.0 Q92.45 -216.0 93.6 -206.9 94.75 -197.05 99.95 -188.35 113.6 -165.5 94.25 -142.6 94.0 -142.35 93.65 -142.25 L92.95 -142.35 Q92.65 -142.55 92.5 -142.9 L92.5 -143.6 Q94.95 -150.35 92.75 -156.4 90.55 -162.3 86.9 -163.85 86.55 -164.0 86.4 -164.3 L86.25 -164.9 86.55 -165.5 Q94.55 -173.85 94.6 -181.15 L93.35 -185.2 89.5 -194.9 Q86.0 -203.1 84.6 -206.9 83.75 -209.1 83.65 -209.8 83.15 -212.4 83.25 -218.2 L83.35 -223.35 83.55 -223.95 84.1 -224.3 84.75 -224.25 Q87.45 -223.0 90.35 -222.25 85.1 -240.45 82.2 -246.35 L82.1 -234.85 81.95 -234.35 81.6 -234.0 81.1 -233.85 80.35 -233.85 79.9 -233.95 79.55 -234.2 Q70.9 -244.25 64.8 -255.65 57.7 -268.8 50.65 -278.45 52.2 -270.6 51.2 -263.2 50.4 -257.7 48.95 -243.45 L48.75 -242.9 Q48.5 -242.65 48.25 -242.55 L47.65 -242.6 47.15 -242.95 Q40.8 -251.4 42.05 -264.35 43.05 -275.3 36.35 -286.9 35.75 -279.9 32.45 -268.4 27.5 -251.4 7.8 -237.5 L7.15 -237.35 Q6.75 -237.4 6.5 -237.6 L6.2 -238.25 Q6.15 -238.6 6.4 -238.9 7.25 -240.3 8.45 -245.8 10.5 -255.2 9.75 -269.75 9.0 -283.0 4.05 -292.8 -3.05 -276.8 -8.85 -267.7 -20.75 -249.05 -38.5 -236.8 L-39.2 -236.65 Q-39.6 -236.7 -39.85 -237.0 L-40.1 -237.65 -39.8 -238.35 Q-38.45 -239.85 -36.55 -245.4 L-30.75 -262.15 Q-27.8 -270.45 -28.55 -276.95 -33.25 -264.95 -41.6 -252.9 -51.6 -238.7 -65.0 -226.2 -69.5 -222.05 -74.35 -218.05 -74.7 -217.8 -75.05 -217.85 -75.5 -217.9 -75.75 -218.15 L-76.0 -218.85 Q-75.8 -224.85 -74.2 -240.6 L-79.05 -231.45 Q-83.85 -221.8 -82.05 -208.5 -75.9 -209.6 -68.85 -216.0 L-68.25 -216.25 -67.6 -216.05 -67.2 -215.55 -67.2 -214.9 Q-68.45 -211.3 -68.55 -206.9 L-68.55 -206.75 -68.55 -206.7 Q-68.65 -198.35 -65.0 -191.9 L-64.5 -191.05 Q-52.75 -172.2 -60.55 -149.95 L-60.95 -149.45 -61.55 -149.3 -62.15 -149.55 -62.45 -150.1 Q-63.35 -154.6 -65.0 -158.75 -68.4 -167.3 -75.25 -174.45 -83.05 -182.65 -84.4 -192.75 L-84.85 -189.15 Q-85.85 -179.45 -74.25 -164.4 -63.15 -150.05 -66.9 -131.65 L-65.0 -133.6 Q-59.7 -139.2 -57.1 -145.6 L-56.7 -146.1 -56.1 -146.25 -55.55 -146.0 Q-49.15 -140.45 -46.2 -138.6 -30.05 -128.25 -12.15 -128.25 4.85 -128.25 24.25 -133.35 42.6 -138.2 58.9 -146.4 65.75 -149.85 71.45 -153.45 L71.65 -153.55 Q79.75 -159.35 83.45 -162.5 L84.1 -162.75 84.8 -162.45 Q90.15 -157.05 89.2 -150.55 87.8 -141.05 83.4 -133.05 86.75 -131.45 90.3 -133.3 L90.95 -133.4 91.55 -133.05 Q91.75 -133.05 92.4 -123.7 92.95 -115.0 99.75 -96.85 104.45 -84.35 103.35 -72.95 102.85 -67.3 100.9 -61.9 L100.45 -61.35 99.7 -61.25 99.15 -61.7 Q98.9 -62.0 98.95 -62.4 99.4 -65.4 97.9 -72.95 96.25 -81.15 92.4 -94.75 91.7 -96.95 89.85 -99.8 L89.55 -84.55 88.85 -72.95 Q87.3 -57.45 83.1 -44.65 L82.65 -44.1 81.9 -44.05 81.3 -44.5 Q81.05 -44.85 81.2 -45.25 83.6 -54.85 79.15 -67.7 L77.35 -72.95 73.1 -85.15 72.2 -72.95 70.65 -62.3 Q69.0 -54.1 63.45 -37.25 L63.05 -36.75 62.4 -36.6 Q62.05 -36.65 61.8 -36.9 L61.5 -37.5 Q60.6 -46.8 58.75 -58.55 L56.85 -69.15 Q55.1 -56.45 50.3 -35.95 L49.95 -35.4 49.3 -35.2 Q48.95 -35.2 48.7 -35.4 48.4 -35.65 48.35 -36.0 46.05 -46.65 44.65 -56.25 L43.25 -50.0 Q41.2 -42.05 34.4 -30.9 L33.9 -30.5 33.25 -30.5 Q32.9 -30.6 32.75 -30.85 L32.55 -31.5 32.9 -39.35 Q31.3 -56.3 28.55 -72.95 L28.55 -73.05 27.05 -81.25 27.0 -81.0 25.25 -72.95 Q20.05 -49.7 15.35 -36.4 L14.95 -35.9 14.35 -35.75 Q14.0 -35.8 13.75 -36.0 L13.45 -36.55 Q11.4 -48.35 4.1 -56.45 L3.2 -50.5 Q2.65 -47.3 2.45 -43.75 L2.2 -43.1 1.6 -42.8 0.9 -42.95 0.5 -43.5 Q-2.95 -54.8 -5.4 -66.1 -6.15 -69.5 -7.5 -72.95 -9.7 -78.6 -13.55 -84.4 L-17.0 -72.95 Q-19.3 -64.5 -19.9 -58.6 -21.35 -43.55 -19.9 -29.8 -19.85 -29.45 -20.05 -29.15 -20.3 -28.85 -20.6 -28.75 L-21.3 -28.75 -21.8 -29.25 Q-30.4 -46.3 -34.8 -62.25 L-37.5 -72.95 Q-38.65 -78.05 -39.0 -81.7 -41.15 -77.35 -42.65 -72.95 -47.0 -60.7 -46.9 -48.2 -46.75 -30.45 -42.55 -23.75 L-42.4 -23.1 -42.7 -22.5 Q-42.95 -22.25 -43.25 -22.2 L-43.9 -22.35 Q-55.4 -29.45 -61.25 -47.3 -65.45 -60.0 -69.7 -77.2 L-72.45 -64.2 Q-75.3 -50.45 -74.7 -44.7 -74.65 -44.35 -74.85 -44.05 L-75.4 -43.65 -76.05 -43.65 -76.55 -44.1 Q-83.1 -56.3 -85.75 -72.5 -87.9 -85.8 -88.75 -96.25 -91.1 -90.1 -92.5 -83.2 -95.0 -71.3 -93.7 -61.35 L-93.8 -60.75 -94.25 -60.35 -94.85 -60.25 Q-95.15 -60.3 -95.4 -60.5 -106.05 -70.55 -102.4 -113.4 L-100.3 -135.45 Q-100.2 -144.95 -100.65 -158.75 -101.5 -185.2 -99.6 -206.9 -97.7 -228.65 -93.05 -245.65 -84.25 -278.45 -65.0 -296.1 -60.15 -300.6 -54.6 -304.1 -52.1 -305.7 -42.0 -308.6 L-33.1 -310.9 Q-24.05 -312.95 -14.7 -314.05 13.15 -317.2 35.7 -310.9 47.8 -307.5 58.35 -301.4" fill="#9c1f1f" fill-rule="evenodd" stroke="none"/>
  </g>
</svg>
