<?xml version="1.0" encoding="UTF-8" standalone="no"?>
<svg xmlns:xlink="http://www.w3.org/1999/xlink" height="300.25px" width="198.1px" xmlns="http://www.w3.org/2000/svg">
  <g transform="matrix(1, 0, 0, 1, 90.05, 325.4)">
    <path d="M-82.15 -162.1 Q-85.05 -173.4 -86.5 -181.0 -90.05 -199.55 -90.05 -217.05 -90.05 -236.75 -89.6 -242.85 -88.6 -255.75 -84.45 -270.4 -83.25 -274.9 -79.8 -281.85 -76.45 -288.7 -70.6 -297.45 -64.65 -306.4 -54.3 -312.55 L-40.75 -320.3 -40.8 -320.3 Q-36.7 -322.45 -28.35 -323.95 -20.2 -325.45 -4.0 -325.4 12.05 -325.35 21.05 -323.6 31.3 -323.55 38.1 -320.75 46.1 -317.5 56.1 -308.05 65.5 -299.15 82.45 -279.3 85.75 -275.55 89.95 -261.95 90.1 -261.45 89.9 -260.9 L89.15 -260.15 88.05 -260.1 Q87.5 -260.3 87.25 -260.8 81.55 -270.9 77.5 -271.15 76.5 -271.15 75.8 -270.75 L75.75 -270.7 Q75.35 -270.45 74.9 -270.5 74.4 -270.55 74.05 -270.8 L73.85 -271.0 75.0 -272.0 Q74.6 -273.3 72.9 -273.3 L65.45 -265.45 66.35 -264.25 65.8 -264.0 64.95 -264.05 Q64.5 -264.25 64.25 -264.55 L64.2 -264.6 58.3 -273.05 58.3 -273.0 Q50.75 -283.2 48.05 -284.25 L47.95 -284.3 48.1 -284.25 49.1 -284.3 49.85 -284.95 48.55 -285.7 Q48.2 -287.4 46.4 -287.4 L27.85 -266.55 27.25 -268.15 26.7 -267.55 26.35 -266.85 26.45 -266.05 26.5 -265.85 26.45 -266.0 25.2 -269.35 Q20.75 -279.7 17.6 -281.25 L17.15 -281.4 17.75 -281.5 18.15 -282.2 16.9 -281.45 16.25 -281.85 16.85 -282.95 17.3 -282.9 17.4 -283.4 Q17.4 -285.65 14.9 -285.65 L3.9 -274.0 3.85 -272.5 3.35 -272.6 2.65 -273.2 2.4 -274.05 2.4 -274.1 2.6 -277.05 2.6 -277.15 2.6 -277.3 2.6 -277.35 2.6 -277.75 Q2.5 -285.85 0.05 -286.2 L0.0 -286.2 -0.1 -286.15 -0.05 -286.2 -0.4 -286.2 -0.45 -286.2 Q-0.75 -286.25 -1.0 -286.4 L-1.65 -287.3 -1.7 -287.4 -1.45 -288.1 -2.1 -287.65 -2.4 -287.7 -3.35 -287.25 -2.85 -288.65 Q-1.2 -288.65 -0.3 -287.65 L-0.2 -287.65 Q-0.6 -289.2 -2.4 -289.2 -5.15 -289.2 -12.05 -278.85 -19.85 -267.1 -20.55 -266.55 -30.55 -258.25 -48.0 -251.8 -55.4 -249.0 -61.35 -247.4 L-61.35 -245.9 -61.85 -246.0 Q-62.3 -246.2 -62.55 -246.55 L-62.85 -247.4 -62.85 -247.5 -62.85 -247.7 -63.05 -258.75 -63.05 -258.9 Q-62.9 -262.35 -60.2 -274.1 -57.0 -288.6 -47.8 -296.2 L-41.95 -300.25 -41.95 -300.2 Q-40.55 -301.1 -40.3 -301.0 -40.3 -301.75 -40.45 -302.15 -41.1 -303.05 -42.75 -303.05 -58.3 -302.8 -64.05 -275.6 -66.0 -266.65 -66.65 -255.6 L-66.9 -245.2 Q-66.9 -230.1 -65.75 -219.55 L-65.0 -219.1 -63.85 -219.05 -61.05 -221.9 Q-60.7 -222.25 -60.15 -222.3 -59.65 -222.35 -59.2 -222.0 L-58.65 -221.2 Q-58.5 -220.75 -58.65 -220.25 -61.25 -213.65 -63.3 -202.4 -64.95 -193.7 -66.1 -183.25 L-66.9 -173.85 Q-66.8 -166.5 -66.2 -159.4 -65.1 -146.85 -63.85 -146.6 -62.35 -146.8 -61.95 -149.2 L-61.45 -150.1 -60.45 -150.45 Q-59.9 -150.45 -59.45 -150.1 -49.75 -141.45 -45.95 -139.0 -29.95 -128.75 -12.15 -128.75 4.8 -128.75 24.15 -133.85 42.4 -138.65 58.7 -146.85 65.5 -150.3 71.2 -153.9 L71.4 -154.0 Q81.05 -160.85 84.35 -163.95 L86.4 -166.1 Q86.75 -166.45 87.25 -166.55 L88.25 -166.4 88.9 -165.65 88.95 -164.7 Q88.0 -160.95 87.25 -152.45 86.25 -141.55 86.25 -135.35 L86.55 -133.0 Q86.85 -132.8 87.25 -132.55 L87.25 -132.5 88.35 -132.45 Q88.8 -132.8 94.7 -141.45 L95.25 -141.9 95.95 -142.1 96.3 -142.1 97.05 -141.85 97.6 -141.25 97.8 -140.45 97.65 -138.55 97.65 -124.8 97.65 -104.25 100.5 -74.45 Q101.55 -63.1 105.0 -48.6 L104.6 -49.3 103.85 -49.65 103.2 -49.75 103.6 -48.2 101.7 -48.5 97.3 -51.35 Q93.55 -54.0 91.95 -54.0 91.65 -54.0 89.15 -52.05 86.55 -50.05 86.55 -49.55 L86.75 -49.35 Q86.1 -49.15 85.4 -48.6 L85.55 -48.4 85.75 -48.25 Q86.1 -47.95 86.5 -47.9 L87.2 -47.9 Q84.55 -46.75 80.4 -40.55 L79.65 -39.45 75.85 -33.9 75.85 -33.85 75.8 -33.8 Q75.45 -33.35 74.9 -33.25 74.25 -33.15 73.75 -33.5 L74.6 -34.7 47.25 -53.4 Q44.85 -53.4 44.85 -50.9 L44.9 -50.5 46.35 -50.2 46.2 -49.8 45.55 -49.15 44.7 -49.0 44.5 -49.05 44.15 -49.05 Q38.75 -48.85 31.35 -39.2 L31.3 -39.1 25.25 -30.45 25.2 -30.4 24.55 -29.9 23.7 -29.85 Q23.35 -29.9 23.1 -30.1 L24.0 -31.3 Q7.55 -47.45 5.85 -47.45 4.15 -47.45 3.75 -46.05 L5.15 -45.5 4.75 -44.95 Q4.4 -44.65 4.05 -44.55 L3.3 -44.6 3.25 -44.6 -0.55 -45.25 Q-5.2 -45.05 -11.45 -36.8 L-15.85 -30.55 -15.6 -31.2 -15.75 -31.95 -16.15 -32.75 -17.1 -31.3 Q-18.0 -33.2 -20.55 -35.9 -22.45 -38.9 -24.65 -39.9 L-27.45 -42.3 -27.35 -44.1 Q-27.65 -45.75 -29.7 -45.75 -31.25 -45.75 -31.85 -44.7 L-32.85 -44.85 -33.05 -44.8 -33.35 -44.5 -33.0 -43.75 -32.6 -43.45 -31.95 -43.8 -45.65 -29.05 -46.2 -28.4 -46.0 -29.15 -46.05 -29.5 -46.3 -30.6 -46.75 -30.1 -47.5 -29.15 -48.7 -34.25 Q-51.6 -42.75 -55.85 -42.75 -57.2 -42.75 -57.7 -41.85 L-59.2 -42.0 -59.2 -41.7 -58.8 -40.85 -58.65 -40.65 -58.45 -40.75 -58.6 -40.65 -58.85 -40.5 -59.15 -40.3 -59.1 -40.3 -68.15 -34.45 -68.2 -34.4 -69.05 -33.85 -68.8 -34.2 -68.7 -34.45 -68.65 -34.55 -68.1 -36.25 -69.0 -35.7 -70.1 -34.95 Q-67.3 -42.95 -64.45 -60.6 -61.8 -76.8 -60.15 -93.65 -60.15 -108.5 -61.95 -128.1 -62.35 -136.6 -70.85 -150.1 -77.55 -160.75 -80.7 -162.4 L-81.05 -163.9 -81.1 -163.85 -82.0 -163.15 -82.15 -162.1 M72.5 -267.65 L72.85 -267.55 73.55 -266.95 73.75 -266.05 73.75 -265.95 73.7 -265.7 73.7 -265.6 73.7 -265.5 73.7 -265.45 73.25 -264.45 72.3 -264.05 72.2 -265.55 71.95 -265.8 72.25 -266.15 72.5 -267.65 M105.55 -40.5 L106.0 -40.5 Q106.45 -40.5 106.9 -40.15 L107.4 -39.45 107.4 -39.4 107.4 -39.35 108.0 -37.3 Q108.15 -36.85 107.95 -36.35 L107.35 -35.65 Q106.95 -35.35 106.45 -35.4 105.95 -35.45 105.6 -35.75 L102.8 -38.15 102.75 -38.15 Q102.4 -38.5 102.3 -39.0 102.15 -39.5 102.4 -39.95 L102.6 -40.25 103.75 -39.3 105.95 -39.0 105.55 -40.5 M72.65 -31.95 L72.75 -31.85 Q73.15 -31.45 73.2 -30.85 73.25 -30.3 72.85 -29.8 L72.75 -29.65 72.45 -29.35 Q72.0 -29.0 71.4 -29.0 70.8 -29.0 70.4 -29.45 L70.35 -29.5 70.3 -29.55 70.2 -29.65 70.05 -29.8 Q69.65 -30.3 69.7 -30.9 69.7 -31.45 70.1 -31.85 L71.15 -30.8 71.2 -30.8 71.7 -30.75 72.65 -31.95 M-73.2 -43.6 L-73.25 -43.6 Q-73.85 -43.75 -74.15 -44.25 L-74.4 -45.3 -74.4 -45.35 -74.35 -45.4 -72.5 -52.7 -72.65 -53.05 -72.75 -53.8 -72.75 -53.85 -72.7 -53.9 Q-72.6 -54.45 -72.15 -54.8 L-71.05 -55.05 -71.0 -55.05 -71.25 -53.55 -70.75 -53.5 -71.05 -52.2 -71.1 -52.05 -72.9 -45.05 -73.2 -43.6 M73.0 -266.85 L73.15 -264.85 73.45 -265.2 73.7 -265.7 73.25 -266.6 73.0 -266.85 M83.9 -207.4 L83.85 -207.5 83.15 -209.7 Q82.65 -212.3 82.75 -218.2 L82.9 -227.95 Q82.85 -230.7 80.85 -233.35 L77.9 -232.95 76.75 -232.85 Q76.2 -233.0 75.9 -233.5 L75.45 -234.25 Q75.15 -234.75 75.25 -235.3 75.3 -235.85 75.75 -236.2 77.35 -237.75 77.9 -243.55 78.35 -248.45 78.4 -257.55 78.4 -258.1 78.75 -258.5 79.1 -258.95 79.65 -259.0 L80.7 -258.8 Q84.15 -256.9 89.45 -245.2 L90.6 -242.7 90.75 -241.95 90.55 -241.25 Q90.05 -240.45 90.05 -239.0 90.1 -237.95 92.0 -233.5 L92.0 -233.55 96.55 -222.35 Q103.25 -204.35 103.25 -188.2 L103.05 -173.85 103.05 -173.75 102.65 -172.85 Q102.25 -172.5 101.75 -172.4 L101.45 -172.35 101.55 -173.85 Q89.65 -208.0 85.25 -208.05 L85.95 -206.2 85.2 -206.55 Q84.75 -206.55 84.4 -206.8 L83.9 -207.4 M88.2 -49.55 L88.05 -49.55 88.05 -49.6 88.2 -49.55 M-72.5 -52.7 L-72.2 -52.4 -71.55 -52.1 -71.4 -52.7 -72.2 -53.85 -72.5 -52.7" fill="#d2d2dc" fill-rule="evenodd" stroke="none"/>
    <path d="M73.85 -271.0 Q72.9 -269.8 72.5 -267.65 L72.25 -266.15 71.95 -265.8 72.2 -265.55 72.3 -264.05 72.65 -256.35 72.2 -256.35 68.2 -261.65 66.35 -264.25 65.45 -265.45 72.9 -273.3 Q74.6 -273.3 75.0 -272.0 L73.85 -271.0 M47.95 -284.3 Q48.25 -284.0 46.45 -278.75 L46.35 -278.55 46.15 -278.0 46.15 -277.95 44.0 -271.35 43.95 -271.2 Q38.55 -254.3 35.75 -248.9 35.45 -248.35 34.9 -248.15 L33.8 -248.2 Q33.25 -248.45 33.05 -249.0 L28.25 -261.25 26.5 -265.85 26.45 -266.05 26.35 -266.85 26.7 -267.55 27.25 -268.15 27.85 -266.55 46.4 -287.4 Q48.2 -287.4 48.55 -285.7 L49.85 -284.95 49.1 -284.3 48.1 -284.25 47.95 -284.3 M17.6 -281.25 L15.75 -277.95 15.75 -277.9 5.9 -262.55 5.85 -262.5 5.6 -262.15 5.35 -261.9 5.3 -261.85 5.25 -261.8 5.25 -261.75 5.1 -261.6 5.05 -261.55 4.85 -261.35 4.8 -261.3 4.45 -260.95 Q4.0 -260.55 3.4 -260.55 2.75 -260.55 2.35 -261.0 1.9 -261.45 1.9 -262.05 L2.05 -266.95 2.4 -274.05 2.65 -273.2 3.35 -272.6 3.85 -272.5 3.9 -274.0 14.9 -285.65 Q17.4 -285.65 17.4 -283.4 L17.3 -282.9 16.85 -282.95 16.25 -281.85 16.9 -281.45 18.15 -282.2 17.75 -281.5 17.15 -281.4 17.6 -281.25 M-0.1 -286.15 L-0.2 -286.15 -0.4 -286.2 -0.05 -286.2 -0.1 -286.15 M-1.7 -287.4 L-1.85 -286.95 Q-5.6 -277.0 -8.45 -270.5 -12.3 -261.8 -14.6 -259.15 -20.85 -251.85 -36.15 -244.85 L-48.7 -239.35 Q-55.9 -236.2 -60.35 -233.45 L-61.35 -233.25 Q-61.9 -233.35 -62.25 -233.75 L-62.65 -234.65 -62.85 -244.85 -62.85 -247.4 -62.55 -246.55 Q-62.3 -246.2 -61.85 -246.0 L-61.35 -245.9 -61.35 -247.4 Q-55.4 -249.0 -48.0 -251.8 -30.55 -258.25 -20.55 -266.55 -19.85 -267.1 -12.05 -278.85 -5.15 -289.2 -2.4 -289.2 -0.6 -289.2 -0.2 -287.65 L-0.3 -287.65 Q-1.2 -288.65 -2.85 -288.65 L-3.35 -287.25 -2.4 -287.7 -2.1 -287.65 -1.45 -288.1 -1.7 -287.4 M105.0 -48.6 L105.05 -48.55 105.05 -48.5 105.05 -48.45 104.95 -47.55 104.3 -46.85 103.95 -46.75 104.95 -42.7 105.55 -40.5 105.95 -39.0 103.75 -39.3 102.6 -40.25 Q91.95 -49.15 88.25 -49.55 L88.05 -48.6 87.3 -47.95 87.2 -47.9 86.5 -47.9 Q86.1 -47.95 85.75 -48.25 L85.55 -48.4 85.4 -48.6 Q86.1 -49.15 86.75 -49.35 L86.55 -49.55 Q86.55 -50.05 89.15 -52.05 91.65 -54.0 91.95 -54.0 93.55 -54.0 97.3 -51.35 L101.7 -48.5 103.6 -48.2 103.2 -49.75 103.85 -49.65 104.6 -49.3 105.0 -48.6 M73.75 -33.5 L72.65 -31.95 71.7 -30.75 71.2 -30.8 71.15 -30.8 70.1 -31.85 Q64.4 -37.6 59.6 -41.7 51.35 -48.85 46.35 -50.2 L44.9 -50.5 44.85 -50.9 Q44.85 -53.4 47.25 -53.4 L74.6 -34.7 73.75 -33.5 M23.1 -30.1 L21.1 -27.9 Q20.1 -28.9 17.7 -32.55 14.95 -36.75 13.25 -38.8 9.35 -43.6 5.15 -45.5 L3.75 -46.05 Q4.15 -47.45 5.85 -47.45 7.55 -47.45 24.0 -31.3 L23.1 -30.1 M-17.1 -31.3 L-19.95 -26.8 -24.6 -36.8 Q-28.4 -43.85 -31.85 -44.7 -31.25 -45.75 -29.7 -45.75 -27.65 -45.75 -27.35 -44.1 L-27.45 -42.3 -24.65 -39.9 Q-22.45 -38.9 -20.55 -35.9 -18.0 -33.2 -17.1 -31.3 M-46.2 -28.4 L-46.3 -28.25 Q-46.7 -27.8 -47.25 -27.7 L-48.3 -27.9 -48.4 -27.95 -50.55 -25.15 -51.65 -26.1 -51.6 -29.75 Q-51.6 -32.85 -52.05 -35.1 -52.95 -39.7 -55.85 -41.25 L-56.45 -41.1 Q-56.7 -40.7 -57.1 -40.5 L-57.95 -40.4 -58.0 -40.4 Q-58.35 -40.45 -58.6 -40.65 L-58.45 -40.75 -58.65 -40.65 -58.8 -40.85 -59.2 -41.7 -59.2 -42.0 -57.7 -41.85 Q-57.2 -42.75 -55.85 -42.75 -51.6 -42.75 -48.7 -34.25 L-47.5 -29.15 -46.75 -30.1 -46.3 -30.6 -46.05 -29.5 -46.0 -29.15 -46.2 -28.4 M-69.05 -33.85 Q-69.2 -33.8 -69.3 -33.7 L-70.2 -33.45 -71.05 -33.8 -71.35 -34.1 -76.15 -30.95 Q-74.75 -36.25 -73.2 -43.6 L-72.9 -45.05 -71.1 -52.05 -71.05 -52.2 -70.75 -53.5 -71.25 -53.55 -71.0 -55.05 Q-69.3 -64.5 -67.7 -75.1 -66.1 -85.55 -66.1 -86.55 -66.1 -102.0 -69.6 -119.3 -71.55 -128.85 -77.15 -149.25 L-77.3 -149.8 -80.1 -160.1 -81.4 -161.1 -81.85 -161.5 -82.15 -162.0 -82.15 -162.05 -82.15 -162.1 -82.0 -163.15 -81.1 -163.85 -81.05 -163.9 -80.7 -162.4 Q-77.55 -160.75 -70.85 -150.1 -62.35 -136.6 -61.95 -128.1 -60.15 -108.5 -60.15 -93.65 -61.8 -76.8 -64.45 -60.6 -67.3 -42.95 -70.1 -34.95 L-69.0 -35.7 -68.1 -36.25 -68.65 -34.55 -68.7 -34.45 -68.8 -34.2 -69.05 -33.85 M73.0 -266.85 L73.25 -266.6 73.7 -265.7 73.45 -265.2 73.15 -264.85 73.0 -266.85 M103.05 -173.75 L102.7 -170.0 Q102.25 -167.7 101.25 -164.75 L101.25 -164.7 Q99.1 -158.45 94.2 -149.35 L93.45 -148.7 92.5 -148.65 91.7 -149.15 Q91.35 -149.6 91.35 -150.1 L92.0 -160.55 Q91.85 -165.85 89.8 -166.6 89.3 -166.75 88.95 -167.15 88.6 -167.55 88.65 -168.05 88.6 -168.6 88.95 -169.0 93.05 -174.15 93.9 -178.85 L94.1 -181.15 92.9 -185.05 89.05 -194.7 Q85.2 -203.8 83.9 -207.4 L84.4 -206.8 Q84.75 -206.55 85.2 -206.55 L85.95 -206.2 85.25 -208.05 Q89.65 -208.0 101.55 -173.85 L101.45 -172.35 101.75 -172.4 Q102.25 -172.5 102.65 -172.85 L103.05 -173.75 M88.2 -49.55 L88.05 -49.6 88.05 -49.55 88.2 -49.55 M-72.5 -52.7 L-72.2 -53.85 -71.4 -52.7 -71.55 -52.1 -72.2 -52.4 -72.5 -52.7" fill="#bec7e9" fill-rule="evenodd" stroke="none"/>
  </g>
</svg>
