<?xml version="1.0" encoding="UTF-8" standalone="no"?>
<svg xmlns:xlink="http://www.w3.org/1999/xlink" height="183.15px" width="304.55px" xmlns="http://www.w3.org/2000/svg">
  <g transform="matrix(1, 0, 0, 1, 157.45, 316.9)">
    <path d="M52.5 -300.45 L59.7 -296.4 Q71.2 -289.6 83.0 -280.6 L83.05 -280.55 Q97.0 -269.3 98.75 -266.4 L98.9 -265.75 98.55 -265.15 Q98.25 -264.9 97.9 -264.9 L93.45 -264.9 Q103.25 -242.9 103.65 -239.55 L103.5 -238.95 103.0 -238.5 102.35 -238.5 96.9 -240.2 96.4 -240.35 Q97.35 -237.3 98.75 -230.3 101.2 -218.05 98.8 -214.75 L98.35 -214.4 97.75 -214.35 Q97.45 -214.4 97.25 -214.6 L77.05 -239.0 Q65.9 -252.6 59.9 -261.45 57.1 -265.5 55.45 -268.55 54.9 -264.3 54.7 -255.05 54.55 -249.7 54.55 -242.7 L54.4 -242.15 53.95 -241.75 53.35 -241.7 52.85 -242.0 Q49.6 -245.45 38.05 -264.2 28.0 -280.5 22.15 -282.8 26.55 -261.15 25.15 -238.5 L24.9 -237.9 Q24.7 -237.65 24.35 -237.55 L23.75 -237.65 Q23.45 -237.8 23.3 -238.1 16.95 -250.2 11.8 -257.3 1.75 -271.25 -11.2 -280.4 -10.0 -261.35 -15.95 -246.75 L-16.35 -246.3 -16.95 -246.15 -17.5 -246.35 -17.85 -246.85 Q-18.7 -249.65 -24.35 -259.65 L-28.75 -267.15 Q-29.2 -262.0 -32.75 -251.7 -38.05 -236.55 -44.55 -230.45 -44.8 -230.25 -45.1 -230.2 L-45.65 -230.3 -46.1 -230.65 -46.25 -231.25 -44.5 -254.75 Q-43.9 -267.95 -45.4 -272.9 -49.2 -252.55 -57.25 -234.1 -59.95 -227.95 -63.55 -221.15 -64.95 -218.55 -66.25 -216.9 L-65.3 -217.4 Q-58.1 -222.25 -55.85 -229.6 L-55.35 -230.15 -54.65 -230.25 -54.05 -229.8 Q-53.85 -229.5 -53.9 -229.1 -59.85 -201.05 -59.2 -180.6 -58.55 -160.55 -56.65 -157.2 L-56.5 -156.65 -56.7 -156.1 -57.15 -155.75 -57.75 -155.7 Q-61.2 -156.5 -69.35 -171.2 -76.75 -184.55 -80.95 -220.15 -82.95 -210.5 -81.45 -194.15 -79.55 -173.3 -71.25 -160.7 -63.8 -149.4 -52.1 -143.0 L-42.3 -137.2 -41.9 -136.75 -41.8 -136.2 -41.95 -134.75 -42.1 -134.2 -42.45 -133.85 -43.0 -133.75 Q-54.6 -134.35 -66.65 -146.1 -77.25 -156.5 -81.2 -168.85 L-81.6 -166.4 Q-82.7 -155.75 -72.25 -145.4 L-72.2 -145.35 -71.95 -145.0 -71.9 -144.5 Q-72.3 -141.95 -71.4 -137.1 -71.35 -136.7 -71.55 -136.35 L-72.2 -135.95 -72.95 -136.1 Q-85.4 -144.9 -91.75 -155.6 L-93.6 -158.8 -94.0 -156.75 Q-95.2 -147.3 -95.05 -145.95 L-95.2 -145.25 -95.75 -144.85 -96.45 -144.9 Q-107.7 -149.35 -100.2 -193.75 L-98.05 -205.8 -95.6 -218.25 Q-89.75 -246.25 -82.3 -267.8 -78.0 -280.45 -68.5 -290.2 -65.05 -293.7 -60.95 -296.85 -48.6 -306.4 -30.05 -312.45 L-30.1 -312.45 Q5.85 -325.4 52.3 -300.55 L52.35 -300.55 52.5 -300.45 M64.4 -301.55 L64.45 -302.25 64.9 -302.75 Q71.8 -306.3 84.2 -303.7 90.25 -302.5 98.2 -295.0 105.95 -287.65 110.6 -265.9 L111.9 -261.35 111.85 -260.65 111.35 -260.2 110.65 -260.15 Q110.3 -260.25 110.1 -260.55 104.9 -268.65 95.8 -278.6 85.7 -288.7 64.85 -301.0 L64.4 -301.55 M101.75 -257.0 Q101.7 -257.35 101.95 -257.65 L102.55 -258.0 103.25 -257.85 Q106.25 -256.1 112.7 -256.0 L113.3 -255.8 113.65 -255.3 116.15 -247.05 Q119.35 -236.4 122.3 -230.2 127.4 -219.55 133.85 -215.35 139.7 -211.65 145.7 -214.1 L146.4 -214.1 146.9 -213.7 147.1 -213.05 146.8 -212.45 Q141.95 -207.65 135.4 -206.45 L121.45 -204.15 Q122.75 -201.7 126.6 -198.1 L126.85 -197.55 126.8 -196.95 126.35 -196.5 125.75 -196.35 Q116.4 -197.45 104.3 -206.2 L103.9 -206.65 103.9 -207.25 Q104.7 -210.35 105.0 -215.85 105.45 -225.35 103.55 -228.25 103.3 -228.6 103.35 -228.95 103.4 -229.4 103.75 -229.6 L104.5 -229.8 105.15 -229.45 108.15 -225.95 110.5 -223.5 Q111.2 -229.4 107.95 -240.8 104.3 -253.65 102.0 -256.35 L101.75 -257.0 M83.55 -220.1 L84.1 -220.45 84.8 -220.35 85.25 -219.8 85.65 -218.8 Q86.15 -217.7 86.95 -216.55 L88.9 -214.25 Q92.0 -211.05 95.1 -206.35 L95.3 -206.2 95.75 -205.65 96.5 -204.05 98.8 -197.75 102.0 -188.0 Q108.05 -169.15 103.4 -155.75 L102.95 -155.2 102.2 -155.1 101.65 -155.55 Q101.4 -155.85 101.45 -156.25 101.75 -158.75 97.6 -165.3 94.95 -156.9 88.75 -150.3 83.1 -144.4 77.95 -143.0 L77.35 -143.0 Q77.05 -143.1 76.9 -143.35 L76.7 -143.9 76.85 -144.5 Q81.75 -152.2 84.4 -162.9 L84.45 -163.2 84.7 -163.65 Q94.5 -173.05 94.6 -181.15 L93.35 -185.2 89.5 -194.9 Q86.35 -202.25 84.95 -206.0 83.75 -209.0 83.65 -209.8 83.15 -212.35 83.25 -218.0 L83.25 -218.05 83.25 -218.2 83.3 -219.5 83.55 -220.1 M75.55 -156.05 L76.15 -155.8 76.5 -155.25 76.45 -154.65 Q73.05 -146.85 70.1 -143.6 67.05 -140.2 62.0 -139.05 L61.4 -139.1 60.95 -139.45 60.75 -140.0 60.35 -146.45 60.5 -147.0 60.9 -147.4 Q66.4 -150.25 74.95 -155.85 L75.55 -156.05 M-70.6 -298.55 Q-70.65 -298.15 -70.95 -297.9 -85.65 -285.4 -90.65 -267.5 -100.05 -234.3 -102.8 -216.15 L-103.1 -215.6 -103.8 -214.85 Q-103.5 -214.75 -103.3 -214.45 L-103.15 -213.75 -103.95 -208.15 Q-104.0 -207.8 -104.3 -207.5 L-109.15 -204.05 -109.85 -203.85 -110.45 -204.2 -110.7 -204.85 -110.45 -205.55 Q-107.2 -209.2 -105.4 -213.45 -108.7 -210.55 -114.25 -206.45 -126.65 -197.45 -136.15 -196.35 L-136.75 -196.5 -137.15 -196.95 -137.25 -197.55 -136.95 -198.1 Q-133.15 -201.7 -131.85 -204.15 L-145.8 -206.45 Q-152.35 -207.65 -157.15 -212.45 L-157.45 -213.05 -157.3 -213.7 Q-157.1 -214.0 -156.75 -214.1 L-156.1 -214.1 Q-150.1 -211.65 -144.2 -215.35 L-144.25 -215.35 Q-137.8 -219.55 -132.7 -230.2 -129.75 -236.4 -126.5 -247.05 L-120.95 -265.9 Q-116.35 -287.65 -108.55 -295.0 -100.65 -302.5 -94.55 -303.7 -77.55 -307.3 -70.85 -299.3 -70.55 -299.0 -70.6 -298.55" fill="#f7ed8c" fill-rule="evenodd" stroke="none"/>
  </g>
</svg>
