<?xml version="1.0" encoding="UTF-8" standalone="no"?>
<svg xmlns:xlink="http://www.w3.org/1999/xlink" height="198.95px" width="223.4px" xmlns="http://www.w3.org/2000/svg">
  <g transform="matrix(1, 0, 0, 1, 110.85, 316.5)">
    <path d="M85.7 -225.65 L87.0 -225.5 Q88.35 -225.6 88.8 -226.9 L89.0 -228.25 89.1 -228.55 89.05 -228.55 Q86.05 -230.55 69.35 -240.6 L47.4 -253.35 50.1 -238.35 50.1 -237.85 49.8 -237.4 Q49.55 -237.25 49.3 -237.2 41.7 -235.75 22.65 -252.15 12.65 -260.75 8.45 -265.6 L10.1 -259.45 Q13.1 -249.0 14.8 -244.8 L14.85 -244.2 14.55 -243.7 Q14.3 -243.5 14.0 -243.45 10.2 -242.75 -6.6 -256.65 -17.35 -265.6 -21.35 -269.4 -21.8 -261.65 -27.45 -247.4 -31.4 -237.5 -40.15 -227.7 L-40.5 -227.45 -40.9 -227.4 Q-41.2 -227.4 -41.4 -227.55 L-41.8 -227.9 -41.9 -228.4 Q-41.6 -242.75 -41.7 -249.75 -49.25 -230.1 -53.65 -220.2 -56.2 -214.65 -57.7 -212.15 -58.55 -210.75 -59.15 -210.2 -60.55 -208.95 -61.35 -210.05 L-61.55 -210.45 -61.6 -210.85 Q-60.9 -217.45 -62.0 -222.95 -65.95 -206.95 -67.95 -201.7 L-68.0 -201.55 -68.3 -201.1 -68.8 -200.9 -69.35 -201.0 -69.9 -201.25 -70.25 -201.5 -70.45 -201.85 -70.45 -201.9 Q-72.65 -209.25 -72.5 -217.1 L-71.95 -227.45 Q-78.7 -216.8 -76.2 -203.8 -74.2 -193.3 -68.75 -187.25 -68.5 -186.95 -68.5 -186.5 -68.65 -182.45 -67.3 -177.15 L-64.15 -163.7 Q-62.55 -156.55 -66.3 -147.55 -64.0 -148.9 -62.4 -150.7 L-61.7 -151.0 -60.95 -150.75 Q-50.25 -141.2 -46.2 -138.6 L-44.5 -137.5 -44.1 -137.0 -44.05 -136.35 -44.45 -135.85 Q-47.55 -133.7 -52.15 -134.75 -56.2 -135.7 -62.1 -141.2 -63.75 -137.85 -65.8 -135.85 -68.6 -133.2 -69.5 -133.35 L-70.05 -133.5 Q-78.45 -139.1 -81.1 -149.9 L-81.1 -149.95 Q-83.35 -159.1 -80.75 -169.15 -87.6 -160.2 -85.25 -148.85 -84.05 -143.0 -81.65 -139.15 L-81.5 -138.6 Q-81.5 -137.0 -82.45 -135.7 -83.4 -134.3 -86.6 -134.3 L-87.2 -134.5 -87.55 -135.0 -87.55 -135.6 Q-86.55 -138.65 -89.5 -140.75 -93.35 -143.45 -95.9 -150.95 -98.5 -158.55 -96.25 -163.05 L-94.7 -166.45 -97.65 -163.35 Q-101.4 -159.15 -101.4 -151.75 -101.4 -144.55 -97.4 -141.8 L-96.95 -141.2 -97.1 -140.5 Q-97.3 -140.15 -97.65 -140.05 L-98.4 -140.1 Q-102.15 -142.1 -108.0 -147.55 -114.4 -153.2 -106.35 -170.2 -98.9 -186.05 -100.0 -198.65 -101.25 -211.6 -100.75 -223.9 -100.3 -236.3 -94.45 -251.95 -88.6 -267.6 -81.2 -278.2 -73.85 -288.85 -53.2 -303.25 -32.55 -317.8 -8.8 -316.4 14.65 -315.05 36.9 -309.95 59.3 -304.9 78.1 -284.2 96.85 -263.6 101.05 -242.85 L100.95 -242.15 Q100.75 -241.85 100.4 -241.7 L99.7 -241.7 99.2 -242.15 Q98.5 -243.15 92.55 -246.15 99.35 -229.25 99.35 -215.45 L99.1 -214.75 Q98.8 -214.45 98.4 -214.45 97.95 -214.45 97.65 -214.7 L95.75 -216.55 Q96.8 -193.8 108.25 -178.55 114.7 -169.95 111.5 -162.15 108.5 -154.55 96.15 -147.85 L95.6 -147.75 Q95.35 -147.75 95.1 -147.9 L92.45 -149.35 91.95 -149.85 Q91.75 -150.2 91.85 -150.5 L92.3 -151.1 Q99.0 -155.7 101.1 -162.3 L101.1 -162.25 101.4 -163.45 Q103.0 -170.4 99.8 -179.45 99.85 -175.8 99.05 -172.1 L98.85 -171.05 Q96.8 -162.7 90.6 -154.25 L88.15 -151.15 87.6 -150.8 86.95 -150.85 83.65 -152.25 80.4 -153.55 Q78.05 -154.5 76.65 -155.6 76.4 -155.8 76.3 -156.1 L76.3 -156.7 76.65 -157.2 Q82.3 -161.4 84.65 -163.6 94.5 -173.05 94.6 -181.15 L93.35 -185.2 89.5 -194.9 Q83.95 -207.95 83.65 -209.8 83.15 -212.4 83.25 -218.2 L83.4 -224.8 Q83.4 -224.45 83.65 -224.15 83.9 -223.9 84.3 -223.85 L84.35 -223.85 85.2 -223.75 85.85 -223.9 86.25 -224.4 86.3 -224.5 86.25 -225.05 85.85 -225.6 85.7 -225.65 M90.05 -119.35 Q88.65 -126.45 85.3 -133.0 82.2 -139.0 84.5 -144.15 85.25 -145.85 86.55 -147.4 86.75 -147.7 87.1 -147.75 L87.7 -147.7 Q90.4 -146.5 92.4 -144.85 97.7 -140.45 98.1 -132.95 98.6 -123.5 92.25 -118.1 L92.1 -118.0 92.25 -118.15 92.55 -118.6 92.55 -119.15 92.35 -119.55 92.3 -119.6 91.75 -120.1 91.2 -120.4 90.85 -120.4 90.55 -120.25 90.15 -119.75 90.05 -119.35 M73.45 -154.6 L74.0 -154.4 74.35 -153.95 Q75.3 -151.85 78.8 -149.95 L80.05 -149.35 80.55 -148.85 80.6 -148.15 80.15 -147.6 Q76.95 -145.55 72.2 -144.9 L71.5 -145.05 71.1 -145.65 71.15 -146.35 71.95 -148.05 Q69.45 -146.4 65.8 -144.7 60.65 -142.35 54.6 -142.75 54.25 -142.75 54.0 -143.0 L53.7 -143.55 53.75 -144.2 54.25 -144.65 Q67.2 -150.75 71.45 -153.45 L71.65 -153.55 72.85 -154.4 Q73.1 -154.6 73.45 -154.6" fill="#634d2e" fill-rule="evenodd" stroke="none"/>
    <path d="M83.4 -224.8 L83.4 -224.85 83.55 -225.4 83.95 -225.75 84.5 -225.85 85.4 -225.75 85.65 -225.7 85.7 -225.65 85.85 -225.6 86.25 -225.05 86.3 -224.5 86.25 -224.4 85.85 -223.9 85.2 -223.75 84.35 -223.85 84.3 -223.85 Q83.9 -223.9 83.65 -224.15 83.4 -224.45 83.4 -224.8 M92.1 -118.0 L91.8 -117.75 91.1 -117.55 Q90.7 -117.6 90.45 -117.85 90.15 -118.15 90.15 -118.55 L90.1 -119.15 90.05 -119.35 90.15 -119.75 90.55 -120.25 90.85 -120.4 91.2 -120.4 91.75 -120.1 92.3 -119.6 92.35 -119.55 92.55 -119.15 92.55 -118.6 92.25 -118.15 92.1 -118.0" fill="#947252" fill-rule="evenodd" stroke="none"/>
  </g>
</svg>
