<?xml version="1.0" encoding="UTF-8" standalone="no"?>
<svg xmlns:xlink="http://www.w3.org/1999/xlink" height="287.8px" width="203.6px" xmlns="http://www.w3.org/2000/svg">
  <g transform="matrix(1, 0, 0, 1, 99.8, 319.4)">
    <path d="M78.95 -255.1 Q76.85 -254.9 72.75 -250.0 L66.0 -241.3 65.9 -241.2 65.85 -241.2 Q65.4 -240.75 64.8 -240.75 64.2 -240.75 63.75 -241.2 L63.55 -241.4 Q63.1 -241.85 63.1 -242.45 L63.0 -251.25 Q62.3 -256.75 59.7 -257.0 L50.7 -249.1 Q40.65 -240.0 38.3 -238.25 L37.4 -238.0 37.25 -238.0 Q36.65 -238.0 36.2 -238.45 35.75 -238.9 35.75 -239.5 L35.75 -239.85 36.0 -267.25 36.0 -267.3 Q35.5 -281.25 33.1 -283.05 14.0 -252.2 9.55 -246.95 9.15 -246.5 8.55 -246.45 7.95 -246.4 7.5 -246.75 L7.25 -246.95 6.8 -247.5 Q6.65 -247.8 6.65 -248.15 6.65 -249.7 7.4 -254.5 7.15 -257.0 4.15 -257.0 L4.0 -257.0 3.85 -257.0 3.75 -256.95 Q2.85 -256.9 2.25 -256.3 L2.0 -256.0 1.7 -255.7 -3.8 -251.45 Q-11.4 -245.35 -13.35 -244.7 L-13.85 -244.6 -14.0 -244.6 Q-14.6 -244.6 -15.05 -245.05 -15.5 -245.5 -15.5 -246.1 L-15.5 -246.5 -15.45 -246.8 Q-11.1 -267.7 -11.1 -274.75 L-11.05 -274.95 Q-10.8 -276.95 -11.35 -277.95 -11.75 -278.4 -12.4 -278.55 -39.8 -247.65 -48.2 -240.5 -48.5 -240.25 -48.85 -240.15 L-49.6 -240.2 -49.85 -240.25 Q-50.45 -240.45 -50.75 -240.95 -51.1 -241.5 -50.9 -242.1 L-50.85 -242.4 -50.65 -242.8 Q-36.7 -264.1 -36.5 -266.35 -36.5 -267.6 -36.65 -268.2 -37.05 -269.05 -38.0 -269.2 L-53.95 -258.7 -54.0 -258.7 Q-71.4 -247.5 -75.65 -246.25 -76.15 -246.1 -76.55 -246.25 -77.0 -246.4 -77.3 -246.8 L-77.6 -247.65 -77.35 -248.5 -68.8 -259.8 Q-64.0 -265.95 -63.8 -266.7 L-63.85 -268.45 -64.75 -269.2 -65.75 -269.25 Q-68.8 -268.9 -90.4 -237.4 L-90.4 -236.8 -90.35 -236.75 Q-89.7 -236.0 -87.4 -236.0 -85.25 -236.1 -70.55 -243.85 -55.9 -251.6 -50.45 -255.4 L-49.45 -255.7 Q-48.95 -255.65 -48.55 -255.25 -48.15 -254.9 -48.1 -254.35 -48.05 -253.85 -48.35 -253.35 -65.75 -226.8 -65.95 -225.25 L-65.95 -225.05 Q-66.15 -223.95 -65.7 -223.35 -65.15 -222.85 -63.85 -222.85 -63.25 -222.95 -61.65 -223.8 L-60.8 -224.0 -59.95 -223.7 -59.5 -222.95 Q-59.35 -222.5 -59.5 -222.05 L-59.95 -220.5 Q-62.15 -212.45 -62.15 -206.35 -62.15 -198.45 -60.75 -193.95 L-60.75 -193.9 Q-59.3 -189.1 -59.3 -183.1 -59.3 -177.35 -62.25 -170.2 -65.0 -163.65 -65.0 -157.3 L-65.0 -157.1 Q-65.55 -152.4 -64.75 -150.05 -64.45 -149.25 -63.95 -148.85 L-63.5 -150.5 Q-63.35 -151.1 -62.75 -151.4 L-61.65 -151.55 -61.2 -151.4 Q-60.85 -151.35 -60.6 -151.1 -50.5 -142.05 -46.35 -139.25 L-46.2 -139.15 -46.0 -139.05 -46.15 -139.15 -46.1 -139.1 -45.95 -139.0 Q-29.95 -128.75 -12.15 -128.75 4.8 -128.75 24.15 -133.85 L25.0 -134.05 24.95 -134.05 Q35.15 -136.8 44.7 -140.55 45.25 -140.8 45.85 -140.55 L46.65 -139.75 Q46.9 -139.15 46.65 -138.6 L41.3 -125.6 41.3 -125.65 Q30.8 -101.8 17.95 -88.45 L6.85 -74.7 Q-0.7 -65.15 -7.5 -60.15 L-27.45 -45.25 Q-37.1 -37.25 -37.45 -33.05 -37.45 -32.45 -37.85 -32.05 -38.3 -31.65 -38.85 -31.6 -39.45 -31.55 -39.9 -31.95 -40.35 -32.35 -40.4 -32.9 -40.8 -35.45 -40.25 -42.9 L-40.25 -43.0 Q-43.8 -75.35 -50.05 -85.95 -56.4 -96.75 -61.95 -104.75 L-62.0 -104.75 -71.95 -119.0 -72.0 -119.05 Q-84.8 -137.85 -90.9 -154.8 -99.55 -178.65 -99.55 -208.75 L-99.8 -223.8 Q-99.9 -230.3 -99.05 -234.55 -97.5 -243.2 -85.5 -266.85 -77.75 -282.3 -66.9 -296.1 -57.1 -308.8 -36.1 -316.6 L-28.3 -319.3 -27.45 -319.35 -26.75 -318.9 -26.35 -318.15 Q-26.05 -316.9 -24.35 -316.9 L-6.65 -319.25 Q71.0 -319.25 94.7 -261.8 102.25 -243.55 103.55 -220.75 103.95 -213.5 103.7 -206.0 L103.7 -205.95 103.35 -198.55 Q103.35 -191.2 98.25 -171.3 L97.55 -170.4 96.45 -170.2 94.05 -170.45 92.85 -170.4 Q92.3 -170.4 91.85 -170.75 91.4 -171.1 91.3 -171.65 91.2 -172.2 91.5 -172.65 94.05 -177.1 94.1 -181.15 L92.9 -185.05 89.05 -194.7 Q83.45 -207.85 83.15 -209.7 82.65 -212.3 82.75 -218.2 L82.9 -227.95 82.9 -228.05 82.9 -228.1 Q82.8 -230.15 81.65 -232.15 L81.55 -232.35 81.45 -232.45 81.45 -232.5 81.25 -232.85 Q80.9 -233.35 81.0 -233.85 81.5 -237.1 81.0 -242.55 L81.0 -242.8 Q81.55 -249.45 80.75 -252.75 80.2 -254.9 78.95 -255.1 M83.6 -134.65 L84.25 -135.3 85.2 -135.4 86.45 -135.3 91.3 -135.5 92.1 -135.35 92.7 -134.85 96.05 -130.05 Q102.4 -119.8 102.4 -109.25 102.45 -87.25 87.6 -64.0 87.3 -63.55 86.75 -63.35 L85.75 -63.4 Q85.2 -63.65 84.95 -64.1 84.7 -64.6 84.85 -65.15 87.65 -76.75 83.45 -92.6 L79.95 -105.5 79.95 -105.55 Q78.15 -113.1 78.15 -118.95 78.1 -124.35 82.15 -131.9 L83.6 -134.65" fill="#98f898" fill-rule="evenodd" stroke="none"/>
  </g>
</svg>
