<?xml version="1.0" encoding="UTF-8" standalone="no"?>
<svg xmlns:xlink="http://www.w3.org/1999/xlink" height="190.85px" width="235.05px" xmlns="http://www.w3.org/2000/svg">
  <g transform="matrix(1, 0, 0, 1, 125.95, 328.05)">
    <path d="M54.45 -254.15 Q54.85 -247.5 55.6 -244.0 L55.5 -243.3 Q55.3 -243.0 54.95 -242.85 L54.25 -242.9 Q44.2 -246.85 36.7 -255.85 29.65 -264.35 23.5 -271.0 22.75 -265.35 22.35 -255.7 21.8 -244.35 23.9 -237.4 L23.9 -236.8 23.6 -236.3 23.05 -236.1 22.45 -236.25 Q21.65 -236.7 17.1 -241.8 12.65 -246.8 7.35 -258.05 2.45 -268.35 -1.45 -279.65 -1.75 -278.45 -1.85 -275.9 -2.2 -270.15 -6.45 -261.7 -10.5 -253.7 -11.35 -248.95 L-11.75 -248.35 Q-12.05 -248.1 -12.45 -248.15 L-13.1 -248.45 -13.35 -249.15 Q-13.35 -250.45 -14.95 -255.3 -16.65 -260.55 -17.25 -268.15 L-17.55 -271.45 Q-21.45 -258.8 -23.6 -253.5 -30.0 -238.05 -45.3 -228.95 L-45.85 -228.8 Q-46.15 -228.8 -46.4 -229.0 L-46.75 -229.5 -46.75 -230.05 Q-43.35 -241.65 -44.45 -250.6 -45.3 -257.2 -46.9 -260.4 -49.5 -251.6 -55.35 -243.25 -64.5 -230.35 -73.55 -218.1 -73.05 -216.95 -71.6 -216.75 -69.65 -216.45 -68.1 -217.45 L-66.0 -221.45 -65.5 -221.9 -64.85 -221.9 -64.3 -221.5 -64.15 -220.9 Q-64.8 -212.4 -63.4 -198.9 -62.05 -185.7 -51.4 -176.95 L-51.05 -176.3 Q-51.0 -175.95 -51.25 -175.6 L-51.85 -175.2 -61.75 -174.1 Q-57.3 -169.95 -49.75 -168.8 -49.35 -168.75 -49.1 -168.4 -48.85 -168.1 -48.9 -167.7 -49.3 -164.5 -52.0 -160.95 L-57.15 -154.2 -53.45 -148.5 -53.3 -147.85 -53.6 -147.25 Q-53.9 -147.0 -54.25 -147.0 L-56.1 -146.45 Q-50.0 -141.2 -46.9 -139.05 L-46.5 -138.5 -46.5 -137.85 -46.95 -137.35 -47.55 -137.2 Q-53.7 -137.75 -59.85 -139.35 -73.25 -142.95 -83.65 -153.7 L-84.45 -150.7 -84.85 -150.15 Q-85.1 -149.95 -85.45 -149.95 L-86.05 -150.15 Q-101.0 -161.6 -100.9 -170.95 -100.9 -180.05 -98.7 -186.7 L-98.35 -187.2 -97.75 -187.4 -97.2 -187.2 Q-95.4 -186.0 -93.15 -185.35 -94.8 -190.15 -97.85 -205.15 -101.7 -223.8 -91.1 -250.55 L-87.7 -258.45 -84.1 -266.0 Q-71.65 -290.7 -47.0 -303.4 -42.7 -305.65 -38.0 -307.5 -29.35 -310.95 -19.4 -313.1 26.65 -323.15 58.6 -301.0 86.65 -281.55 103.3 -260.7 L103.5 -260.05 103.25 -259.45 102.65 -259.1 102.0 -259.25 Q95.55 -263.1 90.3 -262.0 L89.95 -261.6 Q95.8 -257.1 100.75 -249.75 106.95 -240.45 108.45 -229.7 109.45 -222.05 108.9 -213.5 108.85 -212.05 108.25 -210.75 L107.8 -210.3 107.15 -210.2 106.55 -210.6 Q105.1 -212.5 100.3 -215.5 L96.5 -217.75 100.8 -211.0 101.0 -210.3 Q99.55 -200.85 99.6 -191.2 99.75 -175.7 107.8 -170.0 L108.15 -169.5 108.15 -168.9 107.8 -168.4 107.25 -168.2 97.35 -167.55 97.35 -167.45 Q97.75 -164.6 105.1 -163.15 L105.6 -162.9 105.9 -162.4 105.85 -161.8 105.45 -161.35 Q100.15 -157.9 95.8 -156.7 L84.0 -156.3 84.35 -155.8 Q87.8 -153.2 91.5 -152.25 L92.05 -151.85 92.2 -151.1 91.85 -150.5 Q79.9 -141.4 63.2 -146.7 62.8 -146.8 62.65 -147.15 62.45 -147.55 62.55 -147.95 L63.05 -148.5 Q67.5 -150.95 71.45 -153.45 L71.65 -153.55 Q81.35 -160.5 84.65 -163.6 94.5 -173.05 94.6 -181.15 L93.35 -185.2 89.5 -194.9 Q83.95 -207.95 83.65 -209.8 83.15 -212.4 83.25 -218.2 L83.4 -226.55 Q83.4 -226.95 83.7 -227.25 L84.4 -227.55 86.65 -227.85 Q79.45 -235.0 70.4 -244.6 L54.05 -262.1 54.45 -254.15 M-49.6 -310.95 Q-49.6 -310.65 -49.75 -310.4 L-50.15 -310.05 Q-69.75 -299.45 -83.05 -280.35 -90.75 -269.45 -95.7 -257.55 -95.85 -257.25 -96.1 -257.05 -96.45 -256.9 -96.75 -256.9 -102.05 -257.7 -108.7 -261.9 -117.75 -267.6 -122.45 -275.75 -125.3 -280.65 -125.85 -287.0 -126.35 -293.35 -124.4 -298.45 -115.05 -322.9 -94.1 -327.1 -80.8 -329.9 -66.0 -324.45 -58.5 -321.7 -52.95 -315.55 -51.2 -313.6 -49.8 -311.45 L-49.6 -310.95" fill="#fef1c4" fill-rule="evenodd" stroke="none"/>
  </g>
</svg>
