<?xml version="1.0" encoding="UTF-8" standalone="no"?>
<svg xmlns:xlink="http://www.w3.org/1999/xlink" height="249.4px" width="190.35px" xmlns="http://www.w3.org/2000/svg">
  <g transform="matrix(1, 0, 0, 1, 84.6, 314.25)">
    <path d="M27.95 -309.6 Q46.05 -305.6 77.4 -307.75 L78.45 -307.4 Q78.9 -307.05 79.0 -306.5 79.1 -305.95 78.8 -305.45 76.15 -301.3 67.3 -293.5 L61.15 -288.55 Q64.15 -287.7 67.65 -286.1 77.75 -281.4 82.55 -272.7 90.0 -259.3 93.0 -254.8 95.6 -250.95 100.85 -235.25 105.8 -220.45 105.75 -218.75 L105.5 -214.2 105.0 -213.35 104.1 -213.0 Q103.6 -212.95 103.2 -213.25 91.3 -221.2 83.65 -225.55 83.25 -225.75 83.1 -226.1 82.85 -226.5 82.9 -226.9 L82.9 -227.95 Q82.85 -229.45 82.3 -230.85 L80.85 -233.35 Q77.9 -233.5 77.6 -232.6 L77.6 -231.25 77.3 -230.3 Q76.95 -229.9 76.45 -229.75 L75.45 -229.9 Q64.55 -235.25 50.25 -240.3 L50.3 -240.3 Q45.75 -241.85 24.35 -246.85 7.3 -250.85 5.3 -253.85 L-2.8 -263.15 Q-9.2 -270.0 -11.0 -270.25 -12.4 -270.25 -13.1 -269.75 L-13.25 -267.5 Q-13.25 -266.9 -13.7 -266.45 -14.15 -266.0 -14.75 -266.0 L-17.0 -266.0 -17.75 -266.2 -18.3 -266.75 -18.5 -267.5 Q-18.4 -273.1 -18.75 -277.8 -19.75 -291.95 -24.0 -292.25 L-24.2 -292.25 Q-26.25 -292.05 -26.25 -289.35 L-23.25 -262.15 -23.25 -262.0 Q-23.25 -244.6 -30.45 -227.95 -39.2 -207.85 -56.1 -195.45 L-56.15 -195.4 -56.35 -195.25 -57.4 -195.0 Q-58.0 -195.05 -58.35 -195.5 -58.75 -195.95 -58.75 -196.5 L-58.75 -197.0 -58.7 -197.3 Q-56.75 -206.15 -56.75 -211.6 -56.75 -221.55 -58.2 -228.9 -59.75 -236.5 -59.75 -254.35 L-59.8 -266.45 -59.8 -266.5 Q-59.6 -274.05 -58.15 -278.45 -54.2 -291.0 -46.7 -297.7 -43.55 -300.55 -40.95 -301.75 -41.55 -303.25 -44.0 -303.25 -47.45 -303.25 -50.3 -301.9 -57.5 -298.4 -61.05 -286.5 L-62.5 -280.45 Q-64.0 -272.95 -64.3 -263.6 L-64.3 -263.55 -64.25 -254.5 Q-64.25 -248.35 -62.75 -232.5 -61.25 -216.45 -61.25 -211.35 -61.2 -204.5 -65.35 -195.1 L-69.25 -185.85 -69.3 -185.4 -69.5 -184.0 Q-69.15 -182.75 -66.5 -182.75 -61.0 -182.8 -55.15 -186.65 -54.75 -186.95 -54.25 -186.9 L-53.4 -186.6 -52.85 -185.85 Q-52.05 -183.15 -49.65 -179.9 -45.3 -174.05 -45.5 -172.75 -45.3 -171.35 -48.25 -168.55 L-48.3 -168.5 -53.3 -164.05 -56.3 -161.0 Q-56.65 -160.65 -57.05 -160.55 L-57.95 -160.6 -58.7 -161.15 -60.7 -164.1 -61.5 -163.65 -61.45 -163.65 Q-62.25 -162.9 -62.25 -161.75 -62.25 -158.8 -61.3 -156.0 -61.15 -155.5 -61.35 -154.95 -61.65 -154.05 -61.6 -152.0 L-60.8 -151.25 -60.4 -150.65 -59.5 -149.9 -58.95 -149.6 Q-49.65 -141.4 -45.95 -139.0 -29.95 -128.75 -12.15 -128.75 L-6.45 -128.9 Q8.0 -129.6 24.15 -133.85 42.4 -138.65 58.7 -146.85 65.3 -150.15 70.8 -153.65 L71.7 -153.85 72.6 -153.5 73.1 -152.7 Q73.45 -151.0 74.15 -149.4 75.15 -147.0 76.7 -145.8 L77.15 -145.25 77.3 -144.6 77.35 -143.65 77.75 -140.75 77.65 -140.2 Q76.85 -138.25 77.65 -136.5 78.3 -135.2 79.85 -134.4 L80.6 -133.55 Q80.75 -133.0 80.5 -132.45 79.95 -131.25 79.75 -129.35 L79.75 -125.25 Q79.75 -124.6 79.3 -124.15 78.85 -123.75 78.25 -123.75 77.6 -123.75 77.2 -124.2 72.4 -129.05 70.0 -129.25 66.45 -128.95 64.5 -111.3 64.45 -110.75 64.05 -110.4 63.6 -110.0 63.05 -110.0 62.5 -110.0 62.1 -110.3 61.25 -110.95 57.8 -115.7 L57.9 -115.6 Q54.8 -119.15 52.0 -119.25 50.95 -119.05 48.8 -116.8 L48.85 -116.85 45.8 -113.45 Q45.45 -113.1 45.0 -113.0 L44.05 -113.15 Q43.6 -113.4 43.4 -113.85 L41.6 -117.25 Q40.0 -119.25 37.5 -119.25 36.35 -118.95 33.3 -114.45 29.85 -109.45 29.75 -107.0 L29.75 -106.6 29.75 -106.15 Q29.75 -105.55 29.35 -105.1 28.9 -104.7 28.3 -104.65 27.65 -104.65 27.2 -105.1 L26.8 -105.5 26.75 -105.55 Q16.0 -115.95 16.0 -116.25 13.2 -116.1 11.45 -112.5 L9.75 -108.45 Q8.6 -105.8 7.45 -104.3 7.05 -103.85 6.45 -103.75 5.8 -103.7 5.35 -104.05 4.35 -104.75 -1.05 -111.95 -4.8 -116.95 -6.0 -117.25 -8.2 -117.0 -12.1 -110.8 L-18.2 -101.45 Q-18.65 -101.0 -19.25 -101.0 -19.85 -101.0 -20.3 -101.45 L-25.7 -109.25 Q-28.9 -114.0 -30.5 -114.25 -31.4 -113.95 -41.85 -102.95 -42.3 -102.5 -42.9 -102.45 -43.55 -102.45 -43.95 -102.9 L-47.0 -105.75 -47.25 -106.1 -47.85 -107.05 Q-48.15 -107.5 -48.05 -108.0 L-47.65 -108.9 -46.75 -109.85 Q-46.9 -112.25 -50.0 -112.25 -54.2 -112.2 -57.5 -108.75 -61.2 -104.0 -63.05 -102.8 L-63.2 -102.7 -63.8 -102.5 -64.0 -102.5 -64.75 -102.7 -65.35 -103.3 -65.6 -103.8 -65.75 -104.5 -65.85 -115.2 Q-66.6 -122.0 -70.0 -122.25 -75.55 -122.25 -81.15 -119.75 L-82.2 -119.7 Q-82.75 -119.85 -83.05 -120.35 -83.35 -120.85 -83.25 -121.4 -81.6 -130.2 -80.6 -147.8 -79.7 -165.2 -79.6 -183.8 L-79.6 -184.85 Q-79.6 -205.9 -82.05 -220.25 -84.6 -234.85 -84.6 -243.35 -84.6 -272.65 -72.5 -290.35 -64.9 -301.45 -52.95 -307.25 -40.35 -313.4 -22.85 -313.5 L-22.0 -313.2 -21.45 -312.45 Q-21.3 -312.0 -21.45 -311.5 -21.6 -311.05 -22.0 -310.75 L-26.15 -307.3 -26.15 -307.35 Q-28.05 -305.45 -28.25 -304.75 -28.1 -302.75 -25.5 -302.75 -24.9 -302.85 -22.65 -304.3 L-16.25 -308.3 Q-5.8 -314.3 3.35 -314.25 9.4 -314.25 15.9 -312.65 L28.0 -309.6 27.95 -309.6 M92.8 -211.05 Q102.85 -190.45 102.75 -185.25 102.9 -184.45 100.1 -179.25 97.85 -175.15 97.75 -173.6 97.85 -171.75 100.0 -168.6 102.75 -164.6 102.75 -159.35 102.8 -155.5 98.95 -150.5 L97.95 -149.15 Q97.65 -148.8 97.25 -148.65 L96.35 -148.6 89.5 -149.25 82.45 -148.65 81.7 -148.7 Q81.3 -148.8 81.05 -149.1 L80.4 -149.75 Q77.35 -152.6 77.5 -154.6 L78.25 -157.9 78.25 -157.95 Q78.15 -158.4 78.3 -158.75 L78.8 -159.45 84.35 -163.95 Q94.0 -173.25 94.1 -181.15 L92.9 -185.05 89.05 -194.7 Q83.45 -207.85 83.15 -209.7 82.7 -212.1 82.75 -217.25 82.75 -217.8 83.1 -218.25 83.45 -218.65 84.05 -218.7 L85.05 -218.5 87.9 -216.55 92.4 -213.45 92.95 -212.7 92.9 -211.7 92.8 -211.05 M89.5 -132.75 L95.7 -133.1 96.55 -132.95 97.15 -132.4 100.95 -127.15 Q105.8 -120.6 105.75 -115.85 105.75 -106.95 101.0 -99.65 L100.3 -99.1 99.35 -99.05 Q98.85 -99.2 98.55 -99.6 98.25 -100.0 98.25 -100.5 98.25 -124.0 94.0 -124.25 92.2 -124.1 90.8 -121.4 88.5 -117.0 86.65 -116.25 L85.55 -116.15 Q84.95 -116.35 84.7 -116.85 L84.45 -117.25 84.25 -118.0 Q84.25 -120.85 85.9 -129.15 L85.95 -131.15 86.1 -132.0 86.7 -132.6 87.5 -132.8 89.5 -132.75 M-21.6 -65.4 L-21.95 -66.45 -21.95 -66.9 -21.65 -67.75 -20.9 -68.25 -20.05 -68.3 Q-19.6 -68.15 -19.3 -67.8 L-19.05 -67.6 Q-18.6 -67.3 -18.45 -66.8 -18.3 -66.35 -18.45 -65.85 -18.6 -65.4 -19.05 -65.1 -19.5 -64.8 -20.0 -64.85 L-20.6 -64.9 Q-21.2 -64.95 -21.6 -65.4 M-59.4 -94.0 L-59.35 -95.1 -58.55 -95.85 -57.45 -95.9 -56.95 -95.7 Q-56.55 -95.55 -56.3 -95.2 L-55.95 -94.45 -56.1 -93.65 -56.15 -93.55 Q-56.45 -93.0 -57.05 -92.8 L-58.15 -92.9 -58.65 -93.15 Q-59.2 -93.45 -59.4 -94.0 M-59.2 -68.5 Q-58.7 -68.5 -58.25 -68.15 -57.85 -67.8 -57.75 -67.25 L-57.7 -67.0 Q-57.6 -66.4 -57.95 -65.85 L-58.9 -65.25 -59.0 -65.2 -60.0 -65.35 -60.7 -66.1 -60.75 -67.1 -60.7 -67.3 -60.15 -68.15 Q-59.75 -68.5 -59.2 -68.5" fill="#ffff6f" fill-rule="evenodd" stroke="none"/>
  </g>
</svg>
