<?xml version="1.0" encoding="UTF-8" standalone="no"?>
<svg xmlns:xlink="http://www.w3.org/1999/xlink" height="296.8px" width="272.95px" xmlns="http://www.w3.org/2000/svg">
  <g transform="matrix(1, 0, 0, 1, 144.35, 381.05)">
    <path d="M32.0 -326.4 L31.95 -326.4 Q54.1 -338.0 55.35 -339.15 L56.15 -340.05 56.3 -340.25 Q56.9 -340.8 56.75 -341.5 56.5 -342.55 55.25 -343.85 52.25 -346.9 44.45 -351.2 28.45 -359.95 3.15 -363.25 -22.1 -366.55 -41.25 -359.4 -48.95 -356.6 -52.15 -351.25 L-52.15 -351.2 Q-55.05 -346.4 -52.45 -343.9 L-52.1 -343.4 Q-52.05 -343.1 -52.15 -342.8 L-52.55 -342.35 -53.1 -342.15 Q-59.3 -342.25 -64.5 -344.35 -70.4 -346.65 -68.5 -353.35 -66.9 -359.45 -54.95 -367.15 -43.3 -374.7 -29.75 -378.0 -16.6 -381.2 -3.2 -381.05 10.2 -380.95 38.1 -370.1 66.2 -359.25 75.55 -335.85 L75.6 -335.25 75.3 -334.7 74.75 -334.45 Q69.75 -333.8 60.35 -330.95 52.5 -328.55 34.5 -320.1 L33.85 -320.0 27.25 -321.45 Q26.85 -321.55 26.65 -321.8 26.4 -322.1 26.45 -322.45 L26.5 -323.1 26.7 -323.55 Q26.8 -323.75 27.05 -323.85 L32.0 -326.4 M49.1 -269.9 Q43.35 -259.6 38.2 -247.6 L37.75 -247.1 37.1 -247.0 Q36.75 -247.05 36.55 -247.3 L36.25 -247.9 Q35.2 -258.7 30.0 -277.3 27.45 -286.55 25.5 -290.65 24.6 -292.5 23.9 -293.2 L23.75 -293.35 -7.9 -244.9 -8.45 -244.5 -9.15 -244.55 -9.65 -245.0 -9.7 -245.7 Q-4.95 -262.9 -4.9 -267.65 L-4.9 -267.8 Q-4.35 -271.35 -5.1 -273.1 -5.6 -274.3 -6.85 -274.45 -10.25 -268.5 -20.7 -256.7 -31.75 -244.35 -51.3 -235.95 L-51.95 -235.9 -52.5 -236.3 -52.7 -236.95 -52.45 -237.55 Q-46.1 -244.8 -43.7 -248.15 -39.8 -253.9 -39.7 -254.6 L-40.05 -255.9 -42.3 -254.45 -83.5 -228.4 -84.1 -228.25 -84.65 -228.45 -85.0 -228.95 Q-86.7 -234.05 -77.95 -253.75 -69.8 -272.25 -58.25 -283.1 L-61.25 -283.2 Q-71.7 -273.95 -78.05 -261.8 -84.45 -249.6 -87.5 -236.75 -89.95 -226.7 -89.95 -224.75 L-90.0 -224.45 Q-90.5 -222.95 -89.9 -222.15 -89.05 -221.4 -86.9 -221.4 L-83.5 -222.65 -82.75 -222.6 -82.2 -222.1 Q-82.05 -221.75 -82.2 -221.35 -86.65 -209.1 -78.15 -200.3 L-77.85 -199.8 Q-77.8 -199.5 -77.9 -199.2 -83.55 -185.35 -82.2 -180.9 -80.75 -176.4 -77.05 -169.55 -76.85 -169.2 -76.95 -168.8 L-78.7 -160.35 Q-80.1 -153.35 -74.05 -149.35 L-73.65 -148.85 -73.65 -148.15 -74.05 -147.15 Q-75.2 -143.85 -75.6 -141.3 L-75.95 -140.7 Q-76.25 -140.45 -76.65 -140.45 L-77.3 -140.75 Q-80.55 -144.05 -84.95 -147.8 -86.45 -147.75 -86.6 -147.3 L-86.6 -134.1 -86.75 -133.6 -87.1 -133.2 -87.65 -133.1 Q-95.65 -133.35 -101.25 -144.2 -106.75 -154.65 -107.4 -159.5 -108.05 -164.4 -107.05 -170.55 -106.15 -176.45 -106.15 -177.9 L-106.15 -180.45 Q-106.65 -181.85 -108.75 -181.85 -109.6 -181.7 -117.5 -175.1 L-118.1 -174.9 -118.75 -175.1 -119.1 -175.65 -119.05 -176.3 Q-109.9 -197.2 -105.1 -213.2 L-104.85 -214.05 -104.85 -214.15 -104.55 -215.1 -95.8 -250.2 -95.0 -253.7 Q-90.4 -273.05 -75.45 -291.15 L-67.3 -299.55 -66.05 -300.65 -65.9 -300.75 Q-53.4 -311.05 -35.25 -316.55 -26.65 -319.15 -14.05 -318.45 L-13.3 -318.65 22.55 -316.6 Q56.45 -313.85 82.3 -285.75 L82.4 -285.6 96.0 -264.3 Q104.7 -250.75 117.8 -239.9 L118.15 -239.35 118.05 -238.65 117.55 -238.2 116.9 -238.2 Q109.25 -240.4 91.15 -248.55 96.65 -239.25 103.1 -231.1 L103.3 -230.55 103.15 -229.95 102.65 -229.55 102.05 -229.5 Q87.55 -233.4 77.2 -241.25 66.95 -249.05 58.85 -255.8 51.6 -261.9 49.1 -269.9 M128.6 -259.65 L128.5 -259.0 Q125.0 -252.0 119.55 -245.7 L119.1 -245.4 118.6 -245.4 Q118.3 -245.45 118.1 -245.65 L117.25 -246.45 Q102.3 -261.2 91.7 -282.75 L89.35 -287.0 Q89.15 -287.3 89.2 -287.65 89.25 -288.05 89.55 -288.25 L90.15 -288.5 90.8 -288.3 Q97.3 -283.0 104.7 -278.35 117.7 -270.1 128.3 -260.2 L128.6 -259.65 M107.25 -236.2 Q107.65 -236.1 107.85 -235.8 L108.0 -235.05 107.65 -234.45 106.5 -233.55 Q106.25 -233.35 106.0 -233.3 L105.45 -233.4 105.05 -233.75 103.95 -235.3 103.75 -235.9 103.95 -236.5 104.45 -236.85 105.1 -236.85 105.85 -236.6 107.25 -236.2 M84.55 -231.0 L88.25 -229.25 88.7 -228.85 Q99.0 -210.55 92.15 -203.9 L90.5 -202.1 Q90.5 -201.0 91.1 -200.4 L91.15 -200.35 Q93.15 -198.75 96.15 -192.9 99.25 -186.85 98.65 -184.7 98.15 -182.7 96.4 -179.05 L95.9 -178.6 95.25 -178.55 94.7 -178.95 Q94.45 -179.25 94.5 -179.6 L94.6 -181.15 93.35 -185.2 89.5 -194.9 Q83.95 -207.95 83.65 -209.8 83.15 -212.4 83.25 -218.2 L83.4 -227.95 83.15 -229.85 Q83.05 -230.25 83.25 -230.6 L83.8 -231.05 84.55 -231.0 M100.45 -173.45 Q102.3 -170.1 105.8 -160.75 L111.2 -145.8 111.2 -145.1 110.65 -144.55 Q110.25 -144.4 109.9 -144.55 L101.55 -147.6 101.15 -145.45 100.75 -144.9 100.0 -144.75 99.75 -144.8 Q99.5 -144.85 99.35 -145.0 L99.05 -145.4 96.95 -149.25 Q96.7 -149.55 96.75 -149.9 96.75 -150.3 97.05 -150.55 L99.55 -153.4 99.6 -153.45 Q104.75 -159.05 98.05 -171.3 L97.9 -171.8 98.05 -172.3 98.7 -173.45 99.25 -173.9 99.95 -173.9 100.45 -173.45 M91.9 -171.25 L92.4 -171.05 Q93.45 -170.2 96.05 -166.35 98.85 -162.2 98.2 -159.45 97.65 -156.9 94.45 -152.65 L92.35 -149.3 Q93.8 -148.1 95.65 -144.05 98.6 -137.5 95.4 -135.15 92.7 -133.05 88.05 -131.55 83.1 -129.95 78.45 -133.15 73.4 -136.4 77.6 -144.95 L79.25 -148.25 77.5 -149.75 Q74.7 -152.0 75.0 -155.5 L75.1 -155.9 75.4 -156.25 80.45 -160.05 84.65 -163.6 Q88.55 -167.3 90.9 -170.8 L91.35 -171.2 91.9 -171.25 M82.95 -128.45 L90.25 -129.1 90.75 -129.1 91.2 -128.8 Q92.35 -127.5 94.35 -123.7 96.3 -119.9 96.0 -113.6 95.65 -107.4 92.55 -101.05 89.5 -94.8 87.1 -92.25 86.9 -92.05 86.6 -91.95 L86.0 -92.0 85.55 -92.4 Q85.35 -92.65 85.4 -92.95 85.45 -97.6 86.35 -110.0 83.55 -107.5 80.2 -102.7 79.95 -102.4 79.55 -102.3 L78.85 -102.45 78.4 -103.0 Q74.95 -115.05 77.45 -120.75 79.95 -126.55 82.3 -128.25 L82.95 -128.45 M69.9 -151.85 L70.25 -151.45 70.9 -150.35 Q72.15 -148.35 73.7 -147.25 L74.1 -146.6 73.95 -145.85 Q73.0 -144.5 70.85 -139.45 L70.7 -139.2 70.3 -138.7 69.65 -138.55 Q69.25 -138.65 69.05 -138.9 65.25 -143.05 62.85 -143.15 62.25 -142.95 58.75 -138.85 54.45 -133.85 50.8 -131.7 L50.25 -131.6 Q49.9 -131.65 49.7 -131.8 L49.35 -132.3 48.35 -135.85 44.05 -132.45 Q39.4 -128.7 36.65 -128.5 33.45 -128.05 30.85 -134.05 L30.75 -134.6 31.0 -135.1 31.45 -135.4 Q45.85 -139.8 58.9 -146.4 64.25 -149.05 68.85 -151.85 L69.4 -152.0 69.9 -151.85 M27.3 -133.35 L27.4 -132.7 27.05 -132.15 25.7 -130.75 Q22.35 -127.05 21.15 -127.25 20.05 -127.15 17.3 -129.5 L16.8 -129.9 16.45 -130.55 16.6 -131.25 17.25 -131.65 24.25 -133.35 26.15 -133.85 26.8 -133.8 27.3 -133.35 M3.95 -129.35 L9.75 -130.2 10.3 -130.15 10.75 -129.75 10.9 -129.2 10.9 -128.55 10.7 -127.95 Q8.4 -124.85 3.3 -124.85 L2.85 -124.95 2.75 -125.0 2.35 -125.35 2.2 -125.9 2.4 -126.45 Q3.0 -127.45 3.05 -128.35 3.05 -128.75 3.3 -129.0 3.55 -129.3 3.95 -129.35 M-100.7 -248.35 Q-103.45 -235.0 -108.15 -219.7 L-108.5 -219.2 -109.1 -219.0 Q-109.45 -219.05 -109.7 -219.25 L-114.7 -222.9 Q-132.6 -235.1 -144.1 -247.8 L-144.35 -248.4 -144.15 -249.0 Q-133.25 -265.75 -98.3 -285.0 -88.35 -290.5 -79.1 -294.9 L-78.45 -294.95 -77.9 -294.6 -77.65 -294.0 Q-77.7 -293.65 -77.9 -293.35 L-83.05 -286.4 Q-90.95 -274.95 -96.45 -261.15 -100.0 -252.4 -100.7 -248.35 M-54.6 -241.5 Q-59.7 -233.75 -59.8 -232.15 L-59.75 -230.8 Q-59.1 -230.0 -56.7 -229.95 L-56.2 -229.75 -55.8 -229.35 -53.65 -225.2 Q-51.8 -221.8 -52.0 -217.1 -52.15 -212.5 -54.8 -207.65 -57.15 -203.45 -59.2 -200.85 L-55.35 -195.35 Q-51.8 -190.3 -51.85 -187.1 -51.85 -183.95 -53.6 -180.05 -55.3 -176.4 -58.9 -173.05 -59.05 -172.2 -58.85 -171.5 -58.5 -170.6 -54.75 -166.7 -50.35 -162.1 -51.6 -157.3 -52.7 -153.1 -56.15 -149.05 -52.5 -143.55 -52.0 -141.25 L-52.0 -141.15 Q-51.85 -140.65 -52.85 -138.25 L-52.9 -138.25 Q-53.95 -135.9 -56.9 -135.0 L-59.85 -134.15 -59.8 -134.15 -61.25 -133.8 Q-69.0 -132.05 -72.2 -138.6 L-72.3 -139.1 Q-72.25 -141.4 -70.45 -144.9 L-68.65 -147.8 -70.4 -149.6 Q-73.3 -152.45 -75.05 -156.0 -77.0 -159.55 -72.25 -169.4 L-78.15 -178.8 Q-80.4 -182.25 -77.65 -190.7 L-74.4 -200.6 -76.0 -202.75 Q-78.75 -206.45 -79.3 -213.1 -79.9 -219.75 -77.3 -224.45 L-74.35 -229.9 -73.85 -230.4 -73.2 -230.65 -64.15 -237.0 Q-59.65 -240.2 -56.05 -242.85 L-55.35 -243.05 -54.75 -242.75 -54.45 -242.15 -54.6 -241.5 M-42.55 -136.2 L-42.45 -135.65 -42.7 -135.1 Q-46.55 -130.75 -51.55 -129.75 L-52.1 -129.8 -52.55 -130.15 -52.9 -130.6 -53.1 -131.1 -53.0 -131.65 -52.65 -132.1 Q-51.0 -133.15 -49.3 -135.4 L-47.4 -138.1 -47.0 -138.5 -46.5 -138.6 -46.0 -138.45 -42.95 -136.65 -42.55 -136.2 M-59.4 -130.2 L-58.7 -129.95 Q-53.25 -125.0 -52.85 -121.1 -52.4 -117.5 -52.4 -111.9 -52.35 -99.55 -64.7 -84.6 L-65.25 -84.25 -65.9 -84.3 -66.35 -84.75 -66.5 -85.35 -65.05 -96.55 -65.05 -96.6 Q-63.6 -105.7 -63.75 -110.15 -63.8 -112.2 -64.2 -113.15 L-64.25 -113.3 Q-66.2 -109.9 -70.2 -101.0 L-70.6 -100.5 -71.2 -100.4 Q-71.55 -100.45 -71.8 -100.65 L-72.05 -101.2 Q-73.95 -112.0 -71.15 -119.85 -68.35 -127.85 -65.5 -130.15 L-64.75 -130.35 -60.65 -130.2 -59.4 -130.2 M-16.45 -128.2 L-15.85 -128.35 -12.15 -128.25 -6.4 -128.4 -5.7 -128.15 Q-5.4 -127.9 -5.35 -127.5 L-5.3 -127.2 -5.35 -126.8 -5.6 -126.45 Q-9.4 -122.35 -11.7 -122.45 -15.2 -122.35 -16.85 -127.05 L-16.85 -127.7 -16.45 -128.2 M-35.95 -131.8 L-35.9 -132.0 -35.6 -132.4 -35.1 -132.65 -34.6 -132.55 Q-29.9 -130.7 -25.0 -129.6 L-24.4 -129.2 -24.25 -128.5 -24.6 -127.9 Q-28.2 -124.8 -31.2 -124.85 -33.6 -124.6 -36.0 -131.1 L-35.95 -131.8" fill="#e6e6e6" fill-rule="evenodd" stroke="none"/>
  </g>
</svg>
