<?xml version="1.0" encoding="UTF-8" standalone="no"?>
<svg xmlns:xlink="http://www.w3.org/1999/xlink" height="233.35px" width="272.45px" xmlns="http://www.w3.org/2000/svg">
  <g transform="matrix(1, 0, 0, 1, 162.7, 337.8)">
    <path d="M63.35 -297.4 Q77.3 -285.8 86.05 -270.0 94.7 -254.4 102.8 -240.6 L109.0 -230.75 Q111.0 -226.8 107.7 -224.45 L107.05 -224.3 Q106.65 -224.35 106.4 -224.6 L106.15 -224.95 Q104.65 -228.6 101.3 -231.05 101.25 -224.95 102.25 -217.4 102.95 -211.75 102.45 -206.4 L102.15 -205.75 Q101.9 -205.5 101.5 -205.5 101.1 -205.5 100.85 -205.7 95.25 -210.15 91.95 -213.3 L91.65 -209.55 91.65 -209.45 Q91.75 -199.8 93.4 -190.55 L93.3 -189.85 92.7 -189.4 92.0 -189.45 91.5 -190.0 89.5 -194.9 Q86.0 -203.1 84.6 -206.85 83.75 -209.1 83.65 -209.8 83.15 -212.4 83.25 -218.2 L83.35 -223.75 83.55 -224.3 Q83.7 -224.55 84.0 -224.65 L84.55 -224.7 Q85.8 -224.5 87.05 -225.05 L83.05 -230.4 82.9 -230.65 Q81.9 -233.05 71.9 -241.85 63.3 -249.35 59.15 -258.9 56.9 -251.7 58.85 -245.6 L58.8 -244.85 58.2 -244.35 57.45 -244.4 Q55.95 -245.2 54.55 -246.15 45.65 -252.45 40.0 -261.45 35.15 -269.2 31.4 -276.6 30.6 -256.65 27.9 -249.65 25.0 -241.95 18.8 -232.35 L18.25 -231.95 17.55 -231.95 17.05 -232.4 16.95 -233.1 Q18.25 -239.3 18.0 -245.85 17.45 -259.65 7.0 -268.25 17.75 -240.65 9.4 -225.7 L8.8 -225.25 8.05 -225.3 7.55 -225.85 Q3.6 -237.0 -5.55 -243.6 L-5.55 -243.55 Q-14.55 -250.0 -18.95 -257.35 L-19.1 -257.8 -19.25 -259.55 -20.8 -256.3 Q-23.65 -250.25 -32.2 -236.6 L-32.45 -236.2 -32.45 -236.15 Q-36.55 -229.8 -42.65 -224.3 -49.5 -218.2 -58.9 -213.25 L-59.55 -213.15 Q-59.9 -213.25 -60.15 -213.5 L-60.4 -214.1 Q-60.5 -216.25 -59.9 -222.9 L-59.65 -225.95 Q-60.8 -223.6 -62.65 -218.0 L-64.8 -211.85 Q-66.95 -205.85 -68.45 -202.85 -60.75 -205.35 -57.95 -206.95 L-57.3 -207.05 Q-56.95 -207.0 -56.7 -206.75 L-56.45 -206.1 -56.7 -205.45 Q-58.05 -203.9 -58.9 -200.85 -59.85 -197.7 -60.25 -192.95 -61.1 -183.85 -56.2 -178.65 -50.75 -172.9 -50.4 -163.3 -50.1 -153.85 -53.1 -148.25 -55.8 -143.0 -54.6 -129.5 -54.55 -129.1 -54.8 -128.75 -55.1 -128.45 -55.5 -128.4 -55.9 -128.35 -56.2 -128.6 -59.05 -130.95 -61.75 -133.5 -65.05 -136.65 -65.65 -143.1 L-66.4 -156.0 Q-66.85 -165.95 -69.35 -171.5 L-71.05 -174.4 Q-76.0 -181.05 -78.5 -187.8 -80.7 -193.85 -80.95 -200.0 -88.15 -189.5 -79.75 -177.35 L-79.75 -177.3 -79.5 -177.0 Q-73.55 -168.65 -71.5 -155.4 L-71.6 -154.75 -72.05 -154.35 -72.7 -154.25 Q-78.45 -155.55 -82.7 -158.9 L-84.8 -160.8 Q-90.7 -166.75 -94.6 -173.55 -95.45 -173.25 -95.65 -172.1 -96.25 -169.05 -95.5 -166.3 -95.4 -166.0 -95.55 -165.65 L-95.95 -165.2 -96.55 -165.05 -97.1 -165.3 Q-108.8 -175.2 -100.65 -193.15 -91.45 -213.5 -90.1 -234.9 -88.75 -256.75 -80.05 -273.35 -71.4 -290.0 -56.85 -299.25 -42.45 -308.4 -20.25 -314.0 L-19.15 -314.25 -9.8 -316.0 Q7.5 -318.35 25.65 -314.3 49.35 -309.0 63.35 -297.4 M101.3 -231.4 L101.35 -231.4 101.3 -231.4 M96.3 -178.55 Q97.85 -173.35 98.9 -166.6 100.0 -159.7 96.3 -151.35 L95.85 -150.85 95.2 -150.75 Q94.85 -150.85 94.6 -151.1 94.35 -151.35 94.35 -151.7 94.15 -155.5 93.45 -157.9 91.15 -147.85 84.75 -142.45 L84.1 -142.25 Q83.7 -142.25 83.4 -142.5 L83.1 -143.15 Q83.05 -143.55 83.3 -143.85 L83.7 -148.4 Q84.15 -153.25 83.65 -162.15 L83.7 -162.6 83.95 -162.95 84.65 -163.6 Q92.9 -171.5 94.35 -178.5 L94.7 -179.05 95.3 -179.3 95.9 -179.1 96.3 -178.55 M-43.35 -336.25 Q-30.9 -332.25 -23.3 -327.0 -20.45 -325.1 -19.1 -321.55 L-19.05 -321.0 -19.35 -320.5 -19.85 -320.2 Q-26.55 -318.85 -42.35 -314.65 -59.8 -310.05 -78.1 -288.7 -96.4 -267.4 -96.3 -242.65 -96.2 -217.35 -106.9 -196.0 -116.85 -176.25 -101.75 -165.6 L-95.7 -164.05 -95.15 -163.95 -94.7 -163.75 -94.35 -163.4 Q-89.8 -153.6 -81.6 -152.45 -81.25 -152.4 -81.0 -152.15 -80.8 -151.9 -80.75 -151.5 L-80.2 -146.55 Q-76.65 -118.6 -109.4 -109.3 L-110.0 -109.3 -110.5 -109.65 -110.7 -110.2 -110.55 -110.75 Q-107.55 -115.6 -106.95 -119.0 -111.05 -113.8 -114.75 -111.55 -120.5 -108.05 -124.15 -104.7 -124.4 -104.5 -124.65 -104.45 L-125.25 -104.55 -125.7 -104.95 -125.8 -105.5 Q-125.3 -112.85 -130.05 -122.55 -134.95 -132.45 -145.6 -145.2 -156.65 -158.5 -155.2 -174.45 L-153.4 -194.15 -154.4 -192.6 -160.2 -182.0 -160.65 -181.55 -161.25 -181.5 Q-161.6 -181.55 -161.8 -181.75 L-162.1 -182.3 Q-166.1 -208.65 -142.8 -229.2 -130.3 -240.25 -126.15 -244.6 -120.7 -250.35 -117.45 -256.55 -115.95 -259.5 -113.45 -268.0 L-103.15 -301.45 Q-95.3 -326.75 -75.55 -333.55 -55.9 -340.4 -43.35 -336.25" fill="#d6cbde" fill-rule="evenodd" stroke="none"/>
  </g>
</svg>
