<?xml version="1.0" encoding="UTF-8" standalone="no"?>
<svg xmlns:xlink="http://www.w3.org/1999/xlink" height="264.1px" width="202.1px" xmlns="http://www.w3.org/2000/svg">
  <g transform="matrix(1, 0, 0, 1, 95.4, 314.05)">
    <path d="M48.65 -265.2 Q48.2 -259.6 49.55 -246.85 L49.4 -246.2 48.9 -245.8 48.25 -245.8 47.15 -246.4 47.1 -246.45 Q40.7 -251.75 28.35 -267.9 L26.25 -270.75 Q21.15 -263.85 19.55 -255.3 17.8 -246.4 18.05 -236.75 L17.9 -236.15 17.4 -235.8 16.75 -235.8 Q15.3 -236.25 14.05 -237.7 L14.05 -237.65 Q7.25 -245.1 -0.75 -265.5 L-1.65 -267.8 Q-3.5 -262.35 -7.55 -252.65 -12.95 -239.6 -29.8 -236.35 L-30.45 -236.45 -30.9 -237.0 -30.95 -237.65 -29.55 -241.25 Q-26.15 -249.45 -23.15 -257.75 L-23.15 -257.7 Q-21.65 -262.0 -21.45 -265.8 L-26.4 -258.85 Q-43.1 -236.45 -55.0 -227.45 L-55.65 -227.25 -56.25 -227.5 -56.6 -228.1 -56.4 -228.8 -56.1 -229.45 -56.1 -229.5 Q-52.95 -239.0 -51.8 -249.35 -51.1 -255.6 -52.25 -260.1 L-57.3 -249.15 Q-72.2 -218.0 -90.6 -206.1 -86.9 -203.55 -82.4 -206.55 L-81.7 -206.75 -81.1 -206.4 -80.85 -205.75 Q-80.9 -198.4 -77.1 -169.25 -77.1 -168.9 -77.25 -168.6 L-77.75 -168.2 -78.35 -168.15 Q-78.7 -168.25 -78.9 -168.5 -93.7 -187.15 -95.2 -210.3 -96.5 -229.8 -88.35 -255.6 -81.3 -277.9 -66.75 -292.45 -54.7 -304.45 -42.3 -307.4 41.8 -327.7 80.3 -286.05 92.8 -272.55 100.1 -252.6 102.3 -246.45 104.4 -238.75 L106.65 -230.15 106.7 -229.5 106.35 -229.0 105.8 -228.8 105.2 -228.95 Q99.7 -232.2 92.2 -235.9 94.4 -208.55 93.35 -192.25 L93.15 -191.7 92.65 -191.4 92.05 -191.4 Q91.75 -191.5 91.55 -191.75 89.75 -194.25 89.5 -194.9 86.0 -203.1 84.6 -206.85 83.75 -209.1 83.65 -209.8 83.15 -212.4 83.25 -218.2 L83.4 -227.95 83.35 -228.85 Q83.3 -229.25 83.55 -229.55 L84.2 -229.95 86.4 -230.45 Q71.65 -238.7 60.0 -251.05 51.35 -260.2 48.65 -265.2 M84.85 -163.8 L86.65 -165.6 87.2 -165.85 87.8 -165.8 88.25 -165.3 88.35 -164.7 Q85.75 -151.05 81.5 -137.95 81.4 -137.6 81.1 -137.4 L80.4 -137.25 79.8 -137.6 Q79.55 -137.9 79.55 -138.25 L79.8 -146.4 Q80.05 -153.55 80.8 -160.0 80.85 -160.4 81.2 -160.65 L84.65 -163.6 84.85 -163.8 M31.7 -135.5 L32.75 -135.8 33.25 -135.85 33.7 -135.6 34.0 -135.15 Q36.05 -127.75 38.2 -117.2 39.7 -109.7 40.5 -102.65 L40.35 -102.0 39.8 -101.6 39.15 -101.6 38.65 -102.0 36.75 -104.7 Q31.15 -112.25 27.0 -114.95 27.55 -102.6 24.1 -86.75 20.35 -69.6 5.95 -57.45 5.65 -57.2 5.25 -57.25 L4.6 -57.55 Q4.3 -57.85 4.3 -58.25 L0.45 -72.9 0.3 -73.35 -1.55 -68.5 -1.55 -68.45 Q-3.1 -64.2 -5.5 -59.9 -8.5 -54.65 -12.15 -50.3 L-12.6 -50.0 -13.15 -49.95 -13.6 -50.2 -26.95 -62.45 Q-31.15 -66.4 -35.25 -74.15 L-35.85 -72.4 -40.0 -60.3 Q-40.15 -59.95 -40.45 -59.75 L-41.2 -59.65 Q-43.5 -60.2 -51.3 -66.4 -59.05 -72.5 -64.25 -91.15 L-64.3 -91.15 Q-69.25 -108.85 -67.35 -123.25 -73.35 -122.1 -81.3 -113.4 L-81.8 -113.1 -82.35 -113.15 -82.8 -113.45 Q-84.7 -115.5 -83.6 -121.3 -82.6 -126.65 -78.0 -133.6 -73.5 -140.5 -71.2 -142.85 L-70.65 -143.15 -70.0 -143.05 -69.55 -142.55 Q-65.4 -132.5 -51.3 -118.2 -53.1 -130.55 -54.2 -142.55 L-53.95 -143.3 Q-53.7 -143.65 -53.3 -143.65 L-52.55 -143.45 -46.55 -138.8 -46.2 -138.6 -44.55 -137.55 -44.5 -137.55 Q-38.9 -134.15 -33.05 -132.0 L-28.6 -130.5 Q-20.6 -128.25 -12.15 -128.25 L-2.45 -128.65 -0.15 -128.85 13.85 -130.95 24.25 -133.35 31.7 -135.5 M-63.6 -224.4 Q-64.25 -219.65 -65.75 -213.35 L-63.8 -213.9 -63.2 -213.9 Q-62.85 -213.8 -62.65 -213.5 L-62.5 -212.9 Q-62.9 -208.3 -62.45 -187.55 -62.0 -166.8 -57.8 -136.7 -57.75 -136.35 -57.95 -136.0 L-58.45 -135.6 -59.15 -135.6 -59.65 -136.05 Q-65.95 -146.95 -70.95 -165.45 -75.9 -183.95 -76.7 -197.15 L-77.6 -210.35 -77.6 -210.85 -77.4 -211.35 Q-70.75 -218.75 -65.4 -225.15 L-64.85 -225.5 -64.2 -225.45 -63.75 -225.0 -63.6 -224.4" fill="#fefdab" fill-rule="evenodd" stroke="none"/>
  </g>
</svg>
