<?xml version="1.0" encoding="UTF-8" standalone="no"?>
<svg xmlns:xlink="http://www.w3.org/1999/xlink" height="177.9px" width="216.8px" xmlns="http://www.w3.org/2000/svg">
  <g transform="matrix(1, 0, 0, 1, 108.4, 316.55)">
    <path d="M60.3 -299.35 Q86.5 -283.2 95.4 -257.95 L95.4 -258.0 99.8 -242.9 99.75 -242.2 99.2 -241.7 98.5 -241.7 96.55 -242.4 Q97.75 -235.0 97.25 -219.65 96.7 -203.25 92.55 -194.65 93.55 -194.5 94.25 -195.45 L94.25 -195.4 96.35 -198.55 96.8 -198.95 97.4 -199.0 97.95 -198.75 98.2 -198.2 Q99.3 -191.7 104.9 -180.65 110.8 -169.05 106.8 -157.75 L106.45 -157.25 105.85 -157.05 Q105.5 -157.1 105.25 -157.25 L104.9 -157.75 102.35 -166.15 Q101.15 -169.9 99.2 -172.4 L96.0 -161.7 Q93.05 -151.85 83.2 -149.05 L82.6 -149.05 Q82.3 -149.15 82.1 -149.4 L81.9 -149.95 81.75 -160.6 81.85 -161.05 82.15 -161.4 84.65 -163.6 84.85 -163.8 Q94.5 -173.15 94.6 -181.15 L93.35 -185.2 90.05 -193.6 89.5 -194.9 Q86.0 -203.1 84.6 -206.85 83.75 -209.1 83.65 -209.8 83.15 -212.4 83.25 -218.2 L83.35 -222.9 83.6 -223.55 Q83.85 -223.85 84.2 -223.85 L84.9 -223.7 Q88.2 -221.5 92.5 -221.3 L89.2 -224.0 Q84.3 -227.7 81.65 -238.6 79.3 -248.05 77.15 -255.25 74.15 -249.15 74.95 -242.35 L74.8 -241.7 74.3 -241.3 73.65 -241.3 73.15 -241.7 Q61.75 -258.5 53.9 -275.5 L52.45 -278.7 Q51.8 -274.65 52.0 -269.0 52.2 -261.05 51.75 -252.6 L51.5 -251.95 50.9 -251.65 50.25 -251.75 49.85 -252.3 Q45.55 -263.5 42.5 -270.2 L42.5 -270.25 Q40.0 -275.85 36.5 -280.1 35.95 -273.5 32.75 -263.95 29.15 -253.4 29.8 -244.75 L29.7 -244.25 29.3 -243.85 28.8 -243.7 28.55 -243.7 28.15 -243.75 27.85 -244.0 Q19.2 -253.0 18.35 -264.95 17.7 -272.75 8.75 -277.85 9.3 -267.8 6.1 -261.85 2.85 -255.75 -0.05 -251.45 -0.3 -251.2 -0.6 -251.1 L-1.25 -251.1 Q-1.6 -251.25 -1.75 -251.55 L-3.9 -256.8 Q-5.6 -261.25 -7.2 -269.35 -8.05 -273.65 -9.55 -276.4 -10.65 -270.5 -15.55 -256.15 -22.0 -237.35 -36.05 -231.7 -36.45 -231.55 -36.8 -231.7 L-37.35 -232.25 Q-37.55 -232.65 -37.35 -233.0 -32.05 -245.95 -37.0 -255.35 -38.05 -248.15 -41.75 -243.15 -46.0 -237.4 -49.75 -232.8 L-49.75 -232.85 Q-53.55 -228.25 -56.9 -224.5 L-57.2 -224.25 -57.35 -224.05 -61.75 -219.15 Q-65.55 -214.8 -68.05 -205.05 L-68.4 -204.5 -68.95 -204.3 -69.55 -204.45 -69.95 -204.9 Q-73.2 -212.55 -74.15 -221.55 -75.1 -230.55 -74.7 -235.8 L-74.3 -240.75 Q-76.3 -239.55 -77.15 -236.2 -80.35 -223.7 -77.0 -211.45 -73.2 -197.35 -65.45 -189.75 -65.55 -193.45 -64.2 -200.5 L-63.85 -201.1 -63.2 -201.35 -62.55 -201.1 -62.25 -200.5 Q-60.55 -190.0 -56.35 -180.2 -51.25 -168.0 -52.7 -156.4 L-52.7 -156.35 Q-54.2 -149.3 -56.15 -144.05 L-53.85 -144.2 -53.2 -144.0 -52.95 -143.8 -49.35 -140.9 -49.05 -140.4 -49.05 -139.8 -49.35 -139.3 -49.95 -139.1 -51.6 -138.75 Q-52.9 -138.35 -58.8 -139.8 L-59.05 -139.9 Q-68.5 -144.6 -71.6 -148.5 L-79.55 -158.15 -80.5 -153.85 Q-81.65 -148.5 -80.8 -145.25 -80.7 -144.9 -80.9 -144.5 -81.15 -144.15 -81.55 -144.05 L-82.3 -144.15 Q-89.45 -148.15 -97.95 -164.3 -100.1 -168.35 -101.1 -170.85 -103.25 -166.2 -105.15 -160.15 -105.25 -159.8 -105.5 -159.6 L-106.15 -159.45 -106.7 -159.65 -107.05 -160.2 Q-110.85 -176.65 -103.8 -190.9 -96.2 -206.4 -98.3 -220.0 -100.5 -234.15 -96.8 -247.55 -93.15 -260.85 -84.55 -279.1 -75.9 -297.65 -50.0 -307.95 -24.3 -318.25 5.95 -316.2 36.15 -314.2 60.3 -299.35 M75.55 -154.25 L75.45 -153.75 Q70.9 -145.55 62.1 -142.3 L61.55 -142.25 61.05 -142.55 Q60.8 -142.75 60.8 -143.05 L60.1 -146.15 Q60.0 -146.5 60.2 -146.8 L60.65 -147.25 Q66.5 -150.3 71.45 -153.45 L71.65 -153.55 73.9 -155.15 74.4 -155.35 74.95 -155.25 75.35 -154.9 75.4 -154.75 75.55 -154.25" fill="#fefd89" fill-rule="evenodd" stroke="none"/>
  </g>
</svg>
