<?xml version="1.0" encoding="UTF-8" standalone="no"?>
<svg xmlns:xlink="http://www.w3.org/1999/xlink" height="322.8px" width="212.7px" xmlns="http://www.w3.org/2000/svg">
  <g transform="matrix(1, 0, 0, 1, 108.8, 318.6)">
    <path d="M76.5 -286.45 Q79.75 -282.95 82.6 -279.1 L88.15 -271.6 Q90.8 -268.05 95.75 -264.55 100.6 -261.1 103.2 -260.35 L103.75 -259.95 103.9 -259.3 103.65 -258.7 Q103.4 -258.45 103.05 -258.4 L92.9 -257.2 Q95.2 -253.1 98.65 -243.0 L98.65 -242.95 Q104.15 -221.9 98.7 -212.55 L98.2 -212.15 97.55 -212.1 97.05 -212.45 96.9 -212.65 Q97.15 -209.95 97.75 -205.95 99.5 -193.7 97.85 -166.65 96.25 -139.3 65.95 -118.55 L65.35 -118.4 Q65.0 -118.4 64.75 -118.6 L64.4 -119.1 64.4 -119.7 Q67.25 -128.1 72.9 -141.85 78.6 -155.75 80.55 -158.6 82.55 -161.6 84.65 -163.6 L84.85 -163.8 Q94.5 -173.15 94.6 -181.15 L93.35 -185.2 89.5 -194.9 Q86.0 -203.1 84.6 -206.85 83.75 -209.1 83.65 -209.8 83.15 -212.4 83.25 -218.2 L83.4 -227.95 Q83.35 -229.8 82.55 -231.55 82.35 -231.9 82.45 -232.2 L82.85 -232.8 83.55 -232.95 88.1 -232.85 82.2 -234.75 Q72.55 -237.9 60.05 -245.5 47.45 -253.2 39.65 -263.7 L32.35 -273.45 32.7 -270.4 32.65 -270.0 32.45 -269.65 Q28.3 -264.35 11.35 -252.2 -5.65 -240.15 -24.55 -235.1 -43.4 -230.1 -47.4 -229.3 L-48.15 -229.45 Q-48.5 -229.7 -48.55 -230.05 L-48.45 -230.8 Q-40.05 -244.85 -29.9 -255.6 -52.05 -238.3 -63.1 -214.05 -65.55 -208.65 -68.2 -196.5 L-68.55 -195.95 -69.15 -195.75 -69.8 -195.95 -70.15 -196.45 Q-76.35 -218.55 -68.45 -237.95 L-62.1 -253.5 Q-75.6 -237.4 -77.8 -217.5 -80.2 -196.35 -66.7 -179.85 -66.75 -183.6 -66.0 -189.05 L-65.6 -189.7 -64.9 -189.95 -64.25 -189.6 Q-64.0 -189.35 -64.0 -188.95 -63.85 -168.9 -52.3 -139.95 -50.25 -134.9 -51.0 -123.25 L-51.25 -122.65 Q-51.55 -122.4 -51.9 -122.35 L-52.55 -122.5 -52.95 -123.1 Q-54.75 -129.9 -61.3 -137.0 -67.25 -143.45 -71.4 -153.4 -72.9 -142.25 -66.15 -134.9 -57.85 -125.9 -55.65 -119.1 -54.45 -115.6 -55.35 -107.35 -46.7 -114.45 -46.3 -122.9 -46.0 -131.8 -46.95 -136.4 L-46.8 -137.1 -46.5 -137.6 -45.9 -138.05 -45.15 -137.9 -44.55 -137.55 -44.5 -137.55 Q-38.9 -134.15 -33.05 -132.0 L-28.6 -130.5 Q-20.6 -128.25 -12.15 -128.25 L-2.45 -128.65 -0.15 -128.85 13.85 -130.95 24.25 -133.35 31.7 -135.5 Q41.85 -138.6 51.3 -142.8 L54.85 -144.4 58.9 -146.4 Q65.75 -149.85 71.45 -153.45 L71.65 -153.55 72.2 -153.95 72.85 -154.1 73.5 -153.8 73.75 -153.2 73.55 -152.55 Q66.8 -143.25 61.75 -126.25 57.35 -111.75 61.75 -100.75 63.3 -109.6 71.25 -115.85 L77.85 -120.95 Q78.9 -121.75 79.3 -121.95 80.6 -122.7 80.85 -121.65 81.35 -121.35 80.85 -120.55 78.7 -100.35 87.5 -79.7 96.55 -58.4 95.65 -40.45 95.2 -32.85 92.35 -22.95 L91.95 -22.4 91.3 -22.25 Q90.9 -22.3 90.7 -22.55 90.4 -22.85 90.4 -23.2 90.15 -30.4 89.55 -37.15 89.05 -42.75 84.85 -48.95 83.65 -39.35 80.4 -28.1 76.6 -15.2 67.1 -6.9 66.8 -6.65 66.4 -6.65 66.0 -6.65 65.75 -6.95 65.45 -7.25 65.45 -7.65 L65.55 -10.95 Q66.1 -20.85 64.95 -30.2 64.3 -35.55 62.7 -40.0 L61.1 -34.3 Q54.75 -13.5 40.0 -2.15 39.7 -1.9 39.35 -1.95 38.95 -2.0 38.7 -2.25 38.4 -2.55 38.4 -2.95 L38.4 -4.75 38.4 -4.8 38.45 -5.45 Q38.85 -13.6 37.1 -21.85 35.65 -28.6 33.1 -30.25 L32.9 -29.85 Q28.2 -21.55 22.85 -14.4 L22.3 -14.05 21.65 -14.1 21.05 -14.4 Q20.8 -14.5 20.7 -14.65 L20.5 -15.05 Q18.2 -25.25 14.7 -31.9 13.5 -28.35 10.9 -22.15 6.4 -11.5 -0.9 -5.8 L-1.45 -5.6 -2.0 -5.7 -2.3 -5.85 -2.8 -6.45 -7.9 -22.6 Q-10.25 -30.2 -14.95 -36.2 -16.6 -33.15 -19.65 -26.1 -23.5 -17.45 -25.15 -10.05 L-25.45 -9.55 Q-25.7 -9.35 -26.05 -9.3 L-26.65 -9.4 Q-37.65 -15.6 -45.5 -26.0 -52.1 -34.75 -55.35 -40.8 -56.85 -35.45 -56.75 -27.1 -56.65 -16.95 -51.75 -6.95 L-51.7 -6.2 Q-51.8 -5.8 -52.15 -5.6 L-52.85 -5.5 Q-73.25 -10.4 -81.65 -27.85 -89.0 -43.15 -91.95 -55.8 -94.15 -50.4 -95.65 -44.15 -97.6 -36.2 -99.0 -26.95 L-99.35 -26.3 -100.0 -26.1 Q-100.4 -26.1 -100.65 -26.35 L-103.75 -29.25 -103.8 -29.3 Q-110.05 -36.35 -108.5 -50.3 -107.05 -63.95 -101.05 -76.95 -95.2 -89.7 -93.25 -100.55 -91.3 -111.4 -93.0 -132.1 L-98.3 -196.45 Q-102.1 -242.4 -78.8 -276.45 -59.55 -304.6 -26.35 -314.3 -9.6 -319.2 4.6 -318.5 39.8 -317.85 65.7 -296.3 73.3 -290.0 76.55 -286.45 L76.5 -286.45" fill="#ddddff" fill-rule="evenodd" stroke="none"/>
    <path d="M-19.55 3.9 L-20.05 4.2 -20.6 4.15 -20.75 4.1 -21.3 3.65 -21.4 3.0 -21.05 2.4 Q-20.0 1.5 -19.7 1.95 -19.0 2.1 -19.05 2.95 L-19.05 3.0 -19.15 3.35 -19.3 3.55 -19.55 3.9" fill="#000000" fill-rule="evenodd" stroke="none"/>
  </g>
</svg>
