<?xml version="1.0" encoding="UTF-8" standalone="no"?>
<svg xmlns:xlink="http://www.w3.org/1999/xlink" height="165.1px" width="256.45px" xmlns="http://www.w3.org/2000/svg">
  <g transform="matrix(1, 0, 0, 1, 130.35, 314.7)">
    <path d="M62.75 -299.7 Q73.4 -293.5 82.6 -282.0 89.2 -273.75 97.0 -259.9 L99.05 -256.45 99.2 -255.85 98.95 -255.25 Q98.7 -255.0 98.4 -254.95 L97.75 -255.0 Q94.35 -256.75 91.0 -258.65 95.95 -251.5 96.95 -240.7 98.25 -225.7 93.65 -218.05 89.35 -210.85 89.35 -200.2 L89.1 -199.55 88.55 -199.2 87.85 -199.3 87.4 -199.8 84.6 -206.85 Q83.75 -209.1 83.65 -209.8 83.15 -212.4 83.25 -218.2 L83.35 -224.7 83.6 -225.3 84.15 -225.65 84.8 -225.6 Q87.15 -224.5 89.95 -224.45 87.7 -227.95 81.7 -238.1 73.8 -251.45 71.55 -261.75 70.05 -268.5 69.55 -272.0 67.35 -268.25 65.1 -261.55 62.2 -252.8 62.0 -250.65 L61.7 -250.05 61.15 -249.75 60.5 -249.85 60.05 -250.35 53.85 -265.7 Q50.4 -273.4 47.85 -277.55 48.05 -273.85 47.65 -267.6 46.85 -255.25 40.85 -242.1 L40.4 -241.65 39.7 -241.55 39.15 -241.95 38.95 -242.6 39.15 -246.05 Q39.5 -256.7 37.4 -268.2 35.5 -278.35 30.05 -286.3 28.05 -274.5 24.5 -259.9 20.3 -242.95 5.95 -232.65 L5.35 -232.5 Q5.0 -232.5 4.75 -232.7 4.5 -232.9 4.4 -233.2 L4.4 -233.8 Q5.8 -238.1 7.9 -248.7 9.8 -258.55 4.5 -274.55 -1.45 -263.6 -5.45 -258.45 L-5.45 -258.4 Q-16.3 -244.45 -27.2 -238.8 L-27.95 -238.75 Q-28.35 -238.85 -28.5 -239.2 L-28.6 -239.95 Q-23.8 -256.7 -26.05 -265.95 -27.95 -262.35 -33.05 -254.5 -40.85 -242.6 -51.4 -233.8 -61.65 -225.35 -64.3 -213.6 L-64.7 -213.0 -65.4 -212.85 -66.05 -213.15 -66.3 -213.85 Q-66.3 -215.5 -66.9 -218.8 -67.55 -222.0 -67.85 -226.45 -71.35 -219.0 -69.95 -207.35 L-70.0 -206.9 -70.25 -206.55 -71.15 -203.85 -72.4 -199.4 Q-74.95 -184.9 -68.5 -175.45 -61.7 -165.6 -59.95 -153.7 -59.9 -153.3 -60.1 -153.0 -60.35 -152.65 -60.7 -152.55 L-61.4 -152.65 -61.9 -153.2 Q-65.05 -162.35 -72.6 -169.0 -79.6 -175.1 -81.45 -176.15 L-82.1 -170.05 -82.4 -169.4 -83.05 -169.15 -83.75 -169.35 Q-90.0 -174.55 -91.1 -185.4 -91.9 -193.15 -91.45 -199.35 -92.95 -196.8 -93.95 -194.15 L-94.35 -193.65 -94.95 -193.5 -95.55 -193.7 -95.85 -194.25 Q-101.9 -219.55 -95.8 -242.55 -93.6 -250.8 -89.6 -259.7 L-83.25 -272.8 Q-74.0 -291.65 -54.4 -302.4 -37.15 -311.9 -13.85 -314.05 7.1 -316.05 28.5 -311.8 48.9 -307.85 62.75 -299.7 M96.75 -212.7 L102.2 -219.6 102.85 -220.0 103.6 -219.85 104.85 -219.15 Q107.75 -217.7 108.55 -216.85 L108.6 -216.8 Q109.95 -215.35 110.9 -213.75 L111.0 -213.0 110.55 -212.4 109.8 -212.3 Q106.35 -213.2 97.75 -211.1 L97.15 -211.15 96.65 -211.55 Q96.5 -211.85 96.5 -212.15 96.55 -212.5 96.75 -212.7 M94.45 -200.3 L94.75 -200.7 Q106.35 -210.8 116.8 -202.5 120.7 -199.45 123.35 -194.4 125.8 -189.75 126.0 -185.65 126.85 -171.05 119.1 -164.95 112.1 -159.4 97.15 -160.3 96.8 -160.3 96.55 -160.5 L96.25 -161.05 96.3 -161.65 Q97.2 -163.95 97.75 -168.7 98.55 -174.55 99.25 -175.75 L99.65 -176.2 100.25 -176.3 Q106.5 -175.4 110.3 -176.55 113.9 -177.65 115.6 -180.05 117.25 -182.55 117.0 -188.15 116.75 -193.45 111.6 -194.3 L111.65 -194.3 Q106.75 -194.9 104.6 -191.15 L108.45 -191.5 Q111.75 -191.65 113.05 -186.85 113.7 -184.3 112.2 -182.75 110.95 -181.35 107.85 -180.85 101.85 -179.95 99.7 -181.65 97.2 -183.55 97.5 -184.8 95.05 -194.75 94.4 -199.8 94.35 -200.05 94.45 -200.3 M91.9 -171.95 L92.6 -171.95 93.1 -171.5 93.2 -170.85 Q91.15 -158.75 85.9 -154.35 L85.9 -154.4 Q81.75 -150.9 81.35 -150.15 L80.85 -149.65 80.1 -149.65 79.6 -150.1 Q79.4 -150.45 79.5 -150.8 80.8 -156.3 81.15 -160.15 L81.45 -160.8 Q89.3 -168.3 91.4 -171.55 L91.9 -171.95 M-106.1 -218.7 L-105.85 -218.0 -105.75 -210.15 -105.95 -209.5 -106.45 -209.1 -107.15 -209.15 Q-111.65 -211.05 -116.95 -208.75 L-117.55 -208.7 -118.05 -209.0 -118.3 -209.5 -118.25 -210.1 Q-115.95 -215.1 -112.75 -217.1 -109.45 -219.2 -106.8 -219.0 L-106.1 -218.7 M-115.8 -201.95 Q-110.5 -204.4 -105.75 -203.0 L-105.25 -202.75 -105.05 -202.25 Q-103.55 -193.25 -98.9 -187.6 L-98.7 -187.05 -98.0 -182.05 Q-97.4 -179.5 -100.1 -176.65 L-100.35 -176.45 Q-105.2 -173.95 -108.3 -174.35 -111.75 -174.7 -113.25 -178.3 -114.85 -182.05 -112.55 -184.15 -111.0 -185.8 -107.05 -186.4 -108.45 -188.1 -110.3 -188.55 -113.15 -189.2 -115.65 -186.1 -118.55 -182.55 -117.8 -178.8 -117.1 -175.2 -113.45 -172.25 -106.9 -167.0 -100.95 -170.85 -95.1 -174.65 -95.6 -178.25 L-95.45 -178.95 -94.8 -179.4 -94.1 -179.25 -93.65 -178.65 Q-91.0 -167.5 -83.3 -163.95 L-82.85 -163.5 -82.75 -162.85 -83.05 -162.3 Q-96.25 -150.55 -110.2 -154.9 -124.15 -159.2 -129.2 -172.9 -131.2 -178.3 -129.7 -184.5 L-129.7 -184.55 Q-128.3 -190.2 -124.45 -194.95 -120.65 -199.75 -115.8 -201.95 M-75.55 -162.35 L-75.2 -162.35 -74.75 -162.25 Q-70.85 -160.25 -69.75 -159.35 -67.85 -157.85 -66.8 -154.8 L-66.75 -154.25 -67.0 -153.8 Q-69.9 -150.75 -75.3 -151.95 -77.95 -152.55 -81.1 -154.1 L-81.55 -154.55 -81.6 -155.2 -81.35 -155.75 Q-78.7 -158.3 -76.4 -161.85 L-76.05 -162.2 -75.55 -162.35" fill="#ffff88" fill-rule="evenodd" stroke="none"/>
  </g>
</svg>
