<?xml version="1.0" encoding="UTF-8" standalone="no"?>
<svg xmlns:xlink="http://www.w3.org/1999/xlink" height="177.5px" width="221.6px" xmlns="http://www.w3.org/2000/svg">
  <g transform="matrix(1, 0, 0, 1, 107.55, 316.45)">
    <path d="M70.9 -298.55 Q88.1 -290.95 97.15 -282.15 106.3 -273.4 111.3 -254.6 116.3 -235.9 112.15 -220.3 L111.75 -219.75 111.15 -219.55 110.55 -219.75 Q110.3 -219.95 110.2 -220.25 L103.1 -245.05 Q100.7 -224.85 93.6 -205.35 L95.8 -206.55 96.5 -206.5 97.0 -206.05 97.1 -205.4 96.7 -203.4 96.7 -203.35 Q93.9 -188.7 101.15 -175.85 108.75 -162.3 104.65 -149.5 L104.3 -149.0 103.7 -148.8 Q103.4 -148.8 103.15 -148.95 L102.75 -149.45 99.75 -157.3 Q98.75 -155.2 96.8 -152.25 93.3 -147.15 83.4 -143.2 L82.75 -143.15 82.2 -143.55 82.0 -144.15 82.2 -144.75 85.6 -149.7 Q93.0 -161.0 91.7 -171.6 L91.85 -172.2 Q94.6 -176.85 94.6 -181.15 L93.35 -185.2 89.5 -194.9 Q86.0 -203.1 84.6 -206.85 83.75 -209.1 83.65 -209.8 83.15 -212.4 83.25 -218.2 L83.4 -225.75 83.65 -226.35 84.25 -226.7 84.9 -226.55 Q87.4 -225.1 90.35 -224.65 83.85 -237.55 75.6 -250.9 68.05 -263.15 61.2 -272.1 61.3 -264.7 60.7 -259.65 59.95 -253.3 58.0 -248.15 L57.55 -247.65 56.9 -247.55 Q56.5 -247.65 56.3 -247.9 56.05 -248.2 56.05 -248.55 L55.7 -250.3 Q54.55 -253.05 50.3 -266.45 L50.3 -266.4 Q48.0 -272.8 46.05 -276.1 45.3 -261.15 44.4 -254.65 43.5 -247.9 40.45 -239.65 L39.95 -239.1 39.2 -239.05 Q38.8 -239.2 38.6 -239.55 34.15 -248.6 26.2 -260.6 18.85 -271.7 16.5 -287.95 7.7 -269.75 4.7 -264.85 -2.5 -253.4 -7.9 -239.9 L-8.3 -239.45 Q-8.55 -239.3 -8.9 -239.3 L-9.45 -239.5 -9.8 -240.0 -11.6 -246.05 -11.6 -246.1 Q-12.85 -250.45 -12.05 -266.75 -20.05 -257.5 -22.1 -254.4 -33.6 -237.45 -51.95 -219.85 -52.2 -219.65 -52.5 -219.6 L-53.1 -219.7 -53.55 -220.15 -53.6 -220.75 -48.75 -248.8 Q-53.2 -239.35 -55.45 -231.85 -59.55 -218.0 -63.1 -204.75 -63.25 -204.35 -63.6 -204.1 L-64.35 -204.05 -64.95 -204.5 Q-72.5 -218.05 -71.45 -240.25 -77.0 -229.25 -75.1 -217.25 -72.9 -203.35 -62.8 -196.9 L-62.4 -196.45 -62.3 -195.9 Q-62.75 -193.1 -62.75 -179.1 -62.8 -164.55 -61.35 -153.35 -61.3 -153.0 -61.5 -152.7 L-62.05 -152.3 -62.75 -152.3 -63.25 -152.8 Q-73.3 -173.0 -77.05 -188.35 -77.55 -173.6 -72.05 -161.05 -67.85 -151.35 -62.4 -142.2 L-62.25 -141.5 -62.6 -140.9 -63.25 -140.7 Q-69.7 -140.85 -74.85 -145.0 L-77.45 -147.35 Q-77.3 -145.1 -75.85 -143.15 L-75.65 -142.55 -75.9 -141.95 -76.45 -141.6 -77.05 -141.65 Q-85.9 -145.6 -93.9 -155.85 -98.4 -161.6 -100.4 -165.1 L-100.75 -157.1 -100.95 -156.5 -101.5 -156.15 -102.15 -156.2 -102.6 -156.65 Q-108.3 -166.75 -107.45 -171.8 -106.7 -176.85 -102.05 -185.05 -97.65 -192.85 -96.55 -199.05 -95.95 -202.9 -96.6 -210.2 -97.1 -216.7 -96.6 -231.45 -96.0 -249.05 -81.95 -271.7 -65.65 -297.85 -41.6 -308.35 -13.4 -320.7 30.45 -314.25 37.6 -313.2 55.3 -305.0 62.95 -301.45 69.9 -295.4 L69.85 -296.2 69.8 -296.95 69.75 -297.0 69.5 -297.65 69.7 -298.25 70.25 -298.6 70.9 -298.55 M83.95 -162.7 L84.5 -162.55 84.9 -162.15 85.05 -161.55 Q84.1 -152.9 73.9 -142.0 L73.3 -141.7 72.7 -141.8 72.25 -142.3 Q72.1 -142.6 72.2 -142.95 74.2 -151.15 75.3 -153.95 76.4 -157.05 78.9 -158.85 L83.4 -162.45 83.95 -162.7 M70.15 -150.45 L68.6 -147.15 Q68.15 -145.75 62.9 -142.45 57.85 -139.3 53.0 -138.95 L52.4 -139.1 52.0 -139.5 51.95 -140.1 52.05 -141.85 Q51.85 -142.15 51.9 -142.4 L52.05 -142.95 52.45 -143.3 54.85 -144.4 58.9 -146.4 Q64.15 -149.05 68.7 -151.75 L69.35 -151.9 69.9 -151.65 70.2 -151.1 70.15 -150.45" fill="#efabba" fill-rule="evenodd" stroke="none"/>
  </g>
</svg>
