<?xml version="1.0" encoding="UTF-8" standalone="no"?>
<svg xmlns:xlink="http://www.w3.org/1999/xlink" height="213.95px" width="255.95px" xmlns="http://www.w3.org/2000/svg">
  <g transform="matrix(1, 0, 0, 1, 154.6, 317.0)">
    <path d="M50.0 -309.05 Q61.9 -303.9 73.4 -292.1 85.75 -279.35 93.7 -264.85 101.7 -250.15 101.35 -239.25 101.0 -228.35 99.8 -225.15 L99.25 -224.6 98.5 -224.55 Q98.1 -224.7 97.95 -225.1 87.8 -247.65 83.95 -255.05 L84.3 -230.55 84.1 -229.95 Q83.9 -229.7 83.6 -229.6 L82.95 -229.6 82.45 -230.0 Q78.45 -236.2 69.85 -244.9 L72.75 -235.9 72.7 -235.15 72.15 -234.65 71.4 -234.65 Q62.15 -238.55 50.8 -248.15 38.75 -258.4 31.95 -270.55 31.4 -267.45 33.05 -257.45 L35.95 -242.25 35.85 -241.7 35.45 -241.25 34.9 -241.1 34.35 -241.3 30.25 -244.6 Q25.1 -248.55 20.0 -251.75 5.7 -260.6 -4.55 -261.55 -1.35 -258.95 2.15 -255.45 12.15 -245.5 12.1 -237.0 L11.9 -236.4 11.45 -236.05 10.8 -236.05 10.3 -236.4 Q8.85 -238.2 2.05 -240.7 L2.1 -240.7 -13.15 -245.65 Q-33.25 -252.2 -39.45 -258.35 -41.5 -250.0 -49.4 -234.75 L-49.4 -234.7 Q-59.25 -216.95 -62.5 -208.2 L-63.0 -207.65 -63.75 -207.6 Q-64.15 -207.7 -64.3 -208.05 -68.0 -214.95 -69.4 -229.1 L-70.25 -240.5 Q-72.05 -236.3 -72.35 -230.05 -72.65 -222.7 -70.95 -214.7 -69.3 -206.9 -66.5 -201.85 -63.85 -197.05 -61.2 -196.9 L-60.95 -196.9 -60.25 -196.65 -59.95 -196.0 Q-59.1 -189.05 -54.6 -181.4 L-48.25 -170.4 Q-46.4 -167.1 -46.0 -161.95 -45.6 -156.8 -48.1 -152.1 L-48.6 -151.65 -49.25 -151.6 Q-49.6 -151.75 -49.8 -152.0 L-50.0 -152.65 Q-49.55 -161.8 -52.35 -167.0 L-52.75 -167.65 Q-52.45 -163.95 -53.4 -157.35 -54.85 -147.95 -56.65 -143.4 L-57.65 -140.95 -58.05 -140.45 -58.7 -140.3 Q-59.05 -140.35 -59.25 -140.55 L-59.55 -141.1 Q-62.4 -157.25 -64.3 -160.95 -65.3 -153.1 -69.15 -145.65 L-69.65 -145.15 -70.3 -145.15 Q-70.65 -145.25 -70.85 -145.5 -74.75 -151.15 -79.2 -156.0 L-85.45 -162.55 -85.55 -162.65 Q-91.45 -170.7 -91.85 -181.6 L-92.15 -189.25 -94.05 -185.05 Q-94.2 -184.75 -94.5 -184.55 L-95.1 -184.45 -95.65 -184.7 -95.95 -185.25 -96.1 -186.05 Q-99.0 -201.4 -98.85 -214.3 -98.85 -218.85 -98.45 -223.1 -97.35 -234.85 -91.9 -253.35 -86.4 -272.05 -78.55 -283.65 -71.65 -294.0 -61.8 -300.55 L-56.15 -303.85 -51.7 -306.1 Q-26.9 -318.3 -17.6 -316.35 L-17.1 -316.05 -16.8 -315.55 -16.85 -314.95 -17.25 -314.5 -18.7 -313.55 -18.35 -313.55 -7.55 -314.85 Q10.4 -317.15 18.0 -316.35 38.1 -314.25 50.0 -309.05 M89.35 -232.3 L89.75 -231.75 Q91.05 -227.5 92.55 -224.15 L92.8 -223.55 92.85 -223.1 92.75 -222.7 Q91.7 -220.8 91.3 -217.3 L91.3 -217.25 Q91.0 -214.95 91.0 -207.6 91.0 -199.7 94.9 -193.15 99.1 -186.1 99.1 -178.95 99.1 -173.65 96.6 -167.05 94.15 -160.45 87.35 -154.35 87.05 -154.15 86.75 -154.1 L86.1 -154.25 Q85.8 -154.45 85.7 -154.75 L85.7 -155.4 89.4 -167.6 89.6 -168.0 Q94.55 -175.05 94.6 -181.15 L93.35 -185.2 89.5 -194.9 Q83.95 -207.95 83.65 -209.8 83.2 -212.15 83.25 -217.05 L83.5 -217.75 Q83.75 -218.05 84.15 -218.05 L85.3 -217.95 Q85.65 -222.45 86.6 -225.75 87.8 -229.9 87.8 -231.45 L88.05 -232.1 88.65 -232.45 89.35 -232.3 M83.85 -161.2 L83.95 -160.65 Q83.55 -157.45 78.05 -150.75 72.45 -143.95 67.8 -143.45 L67.15 -143.55 66.75 -144.05 66.7 -144.65 67.8 -150.75 67.95 -151.15 68.3 -151.5 71.45 -153.45 71.65 -153.55 82.3 -161.55 82.85 -161.75 83.4 -161.65 83.85 -161.2 M-57.5 -311.75 L-57.25 -311.25 -57.1 -310.65 -57.2 -310.0 -57.6 -309.55 Q-68.05 -303.8 -76.0 -295.6 -83.4 -288.1 -88.85 -278.25 -91.25 -273.9 -95.65 -263.95 -97.45 -259.9 -99.35 -251.15 -101.95 -239.85 -102.85 -227.9 -104.6 -205.6 -100.35 -187.45 L-100.3 -187.15 -100.6 -182.5 Q-101.45 -165.15 -104.2 -153.75 -106.95 -142.3 -117.85 -127.15 -128.75 -112.0 -131.0 -110.35 -131.35 -110.15 -131.7 -110.15 -132.1 -110.2 -132.35 -110.5 L-132.6 -111.2 Q-132.3 -117.45 -132.55 -120.8 -136.4 -108.8 -136.3 -104.05 -136.3 -103.65 -136.55 -103.35 L-137.2 -103.05 Q-137.6 -103.0 -137.9 -103.25 -142.75 -107.2 -143.8 -112.0 -144.85 -116.6 -144.55 -124.8 -144.3 -132.95 -141.7 -143.2 L-139.45 -151.6 Q-148.4 -140.95 -151.9 -133.95 L-152.4 -133.5 -153.0 -133.45 Q-153.35 -133.5 -153.55 -133.75 L-153.8 -134.35 -154.3 -140.3 Q-155.6 -153.25 -151.4 -162.2 -147.3 -171.1 -139.5 -179.35 -131.15 -188.2 -128.7 -192.1 -123.9 -199.8 -123.9 -209.3 -123.9 -214.1 -125.7 -227.35 -127.5 -240.8 -127.5 -246.3 -127.5 -250.15 -124.5 -260.25 -120.7 -273.15 -114.8 -284.1 -97.2 -317.1 -70.25 -317.0 -63.15 -317.0 -58.75 -313.0 L-58.75 -312.95 -57.5 -311.75" fill="#a8a8a8" fill-rule="evenodd" stroke="none"/>
  </g>
</svg>
