<?xml version="1.0" encoding="UTF-8" standalone="no"?>
<svg xmlns:xlink="http://www.w3.org/1999/xlink" height="212.5px" width="204.25px" xmlns="http://www.w3.org/2000/svg">
  <g transform="matrix(1, 0, 0, 1, 97.75, 314.5)">
    <path d="M6.65 -311.5 Q14.6 -314.5 29.25 -314.5 34.2 -314.6 46.7 -308.3 62.4 -300.45 63.8 -299.9 L64.55 -299.25 64.75 -298.3 64.3 -297.45 63.55 -296.7 63.4 -296.55 Q60.4 -294.3 57.35 -293.05 L57.6 -292.95 57.65 -292.95 Q64.9 -290.35 80.5 -276.6 86.75 -271.15 91.9 -258.8 L91.9 -258.85 Q102.65 -234.4 106.4 -224.5 L106.45 -223.55 105.9 -222.8 Q105.5 -222.5 105.0 -222.5 104.5 -222.5 104.1 -222.8 99.1 -226.55 90.3 -229.45 L82.4 -231.75 Q81.8 -231.9 81.5 -232.4 L80.85 -233.35 78.0 -233.0 77.05 -232.9 51.4 -238.55 51.45 -238.5 Q46.6 -239.55 38.45 -242.2 29.1 -245.3 27.05 -247.05 L27.05 -247.1 18.8 -254.0 18.85 -253.95 Q12.4 -259.1 10.5 -259.25 8.5 -259.25 7.95 -258.1 L7.4 -257.4 6.6 -257.15 5.75 -257.35 4.9 -257.9 Q4.35 -258.2 4.2 -258.8 4.05 -259.4 4.35 -259.9 5.85 -262.55 6.5 -265.5 7.25 -269.1 7.25 -275.85 L7.3 -276.05 Q7.85 -280.5 7.1 -282.75 6.7 -283.7 5.95 -284.05 L0.95 -270.8 Q-5.0 -255.15 -8.05 -251.1 -11.75 -246.0 -32.8 -235.35 -55.2 -224.05 -68.05 -222.25 -68.6 -222.2 -69.05 -222.5 L-69.7 -223.3 Q-69.85 -223.85 -69.6 -224.35 -65.15 -234.25 -50.5 -252.8 -38.0 -268.8 -37.75 -269.5 -37.75 -270.4 -38.0 -271.05 L-38.05 -271.1 Q-38.7 -272.15 -40.15 -272.25 L-53.85 -265.25 Q-68.5 -257.85 -70.45 -257.5 L-71.5 -257.7 Q-72.0 -258.0 -72.15 -258.5 L-72.1 -259.55 -71.4 -260.35 -70.0 -261.05 Q-67.45 -263.35 -61.75 -271.4 L-50.0 -287.7 Q-32.8 -309.65 -18.25 -309.5 -17.65 -309.5 -17.2 -309.1 -14.95 -306.95 -14.0 -306.75 -13.2 -306.75 -12.45 -307.35 L-12.5 -307.35 Q-11.8 -308.0 -11.75 -308.85 -11.8 -310.0 -12.85 -311.1 L-13.25 -311.9 -13.15 -312.8 -12.55 -313.45 -11.7 -313.65 -3.4 -313.15 -2.5 -312.75 Q-2.1 -312.4 -2.0 -311.9 L-2.15 -310.95 -2.25 -310.75 Q-2.1 -308.75 0.5 -308.75 1.7 -308.85 6.45 -311.4 L6.65 -311.5 M84.95 -224.8 Q88.95 -223.05 93.0 -220.9 L93.65 -220.25 93.8 -219.4 93.75 -218.6 Q93.85 -217.95 95.05 -216.05 L95.05 -216.1 98.55 -210.75 Q103.75 -202.1 103.75 -194.25 103.8 -191.55 101.5 -188.15 99.85 -185.7 99.75 -184.1 L99.9 -183.7 99.9 -183.65 Q100.4 -182.05 102.55 -178.3 105.75 -172.65 105.75 -167.6 105.75 -163.15 103.7 -156.8 L101.85 -151.05 101.5 -150.4 Q101.2 -150.15 100.85 -150.05 L100.45 -149.85 99.85 -149.45 99.2 -149.4 80.7 -150.5 Q80.1 -150.5 79.7 -150.95 79.25 -151.4 79.25 -152.0 79.2 -153.55 80.95 -156.8 82.15 -159.1 82.25 -159.85 L82.15 -160.95 Q82.0 -161.35 82.15 -161.75 82.25 -162.2 82.6 -162.45 L84.35 -163.95 Q94.0 -173.25 94.1 -181.15 L93.95 -182.0 93.95 -181.95 92.9 -185.05 89.05 -194.7 Q83.45 -207.85 83.15 -209.7 82.65 -212.3 82.75 -218.2 L82.85 -223.45 Q82.85 -223.95 83.15 -224.35 83.45 -224.75 83.95 -224.85 L84.95 -224.8 M99.85 -135.2 L100.5 -134.6 100.75 -133.8 100.75 -132.8 Q101.95 -123.45 102.35 -118.1 103.15 -107.7 98.95 -102.55 L98.2 -102.05 Q97.7 -101.9 97.25 -102.05 96.8 -102.25 96.55 -102.6 96.25 -103.0 96.25 -103.5 96.25 -108.5 94.75 -114.0 93.15 -119.95 91.0 -120.25 89.95 -120.2 89.15 -119.2 L86.6 -116.5 85.85 -116.25 85.05 -116.4 Q84.7 -116.6 84.5 -116.95 84.2 -117.35 80.6 -127.95 L78.7 -132.65 Q78.45 -133.15 78.55 -133.65 78.65 -134.2 79.1 -134.5 79.5 -134.85 80.05 -134.85 L90.0 -134.75 99.05 -135.3 99.85 -135.2 M74.45 -152.7 Q73.7 -151.1 74.6 -149.65 L74.8 -148.85 74.8 -148.0 74.8 -147.7 74.75 -142.35 74.75 -140.7 Q74.75 -140.15 74.35 -139.7 73.95 -139.3 73.4 -139.2 72.8 -139.15 72.35 -139.5 70.1 -141.2 68.0 -141.25 63.25 -141.2 60.5 -136.85 L57.35 -129.8 56.8 -129.2 56.0 -129.0 55.2 -129.25 51.65 -133.3 51.65 -133.35 Q50.05 -135.25 47.5 -135.25 45.9 -135.0 42.4 -129.8 39.2 -125.05 38.4 -122.95 L37.95 -122.3 37.15 -122.0 36.35 -122.15 Q35.25 -122.65 34.0 -124.45 L32.3 -127.2 Q30.05 -130.25 26.5 -130.25 24.5 -130.0 21.9 -125.55 18.05 -119.2 15.25 -119.5 13.55 -119.5 11.75 -120.45 L11.7 -120.5 9.95 -121.25 9.9 -121.25 1.25 -122.45 -3.0 -123.25 Q-5.65 -123.2 -7.45 -120.45 L-9.6 -115.9 -10.2 -115.2 -11.1 -115.0 Q-11.6 -115.05 -11.95 -115.35 L-16.9 -120.4 -16.95 -120.45 Q-20.75 -124.1 -22.5 -124.25 -24.05 -124.05 -28.15 -119.8 L-33.4 -114.45 Q-33.75 -114.1 -34.25 -114.0 L-35.15 -114.15 -35.8 -114.75 -40.95 -124.05 Q-44.85 -130.05 -48.0 -130.25 -49.0 -130.0 -52.1 -126.35 L-52.85 -125.9 -53.75 -125.95 -54.45 -126.5 -54.75 -127.35 -54.75 -129.55 Q-55.0 -131.95 -55.9 -132.9 -56.35 -133.3 -56.4 -133.8 L-56.75 -136.65 -56.75 -136.85 -56.8 -141.9 -56.95 -142.75 -56.95 -143.5 -56.6 -144.15 -56.05 -144.85 -55.4 -145.4 -54.55 -145.5 -53.8 -145.15 Q-48.5 -140.65 -45.95 -139.0 -29.95 -128.75 -12.15 -128.75 4.8 -128.75 24.15 -133.85 42.4 -138.65 58.7 -146.85 65.5 -150.3 71.2 -153.9 L71.4 -154.0 72.2 -154.55 73.1 -154.85 74.0 -154.5 74.5 -153.7 74.45 -152.7 M-46.0 -300.25 Q-49.5 -295.7 -53.3 -289.2 L-53.25 -289.2 Q-56.75 -282.85 -57.75 -281.4 -61.4 -275.8 -73.55 -265.25 L-74.4 -264.85 -75.3 -265.05 -75.9 -265.75 -76.0 -266.65 Q-73.3 -279.7 -71.2 -282.6 -70.45 -283.7 -67.7 -290.2 -65.0 -296.85 -61.8 -300.85 L-61.85 -300.85 Q-53.05 -312.35 -35.1 -313.95 -34.6 -314.0 -34.15 -313.7 L-33.55 -312.9 Q-33.4 -312.4 -33.6 -311.9 -33.8 -311.45 -34.25 -311.15 -40.25 -307.7 -46.0 -300.3 L-46.0 -300.25 M-81.7 -207.15 L-80.9 -207.45 -80.0 -207.2 -79.45 -206.55 Q-78.95 -205.85 -77.45 -205.75 -69.5 -211.5 -63.75 -215.15 L-62.7 -215.4 Q-62.15 -215.3 -61.75 -214.85 L-61.1 -214.0 Q-58.1 -210.35 -58.25 -208.85 -58.15 -208.2 -60.9 -202.25 -63.15 -197.35 -63.25 -196.5 -63.1 -194.95 -60.55 -191.75 -57.1 -187.45 -57.25 -185.25 -57.2 -182.45 -60.35 -175.15 L-63.25 -168.0 Q-63.2 -166.8 -61.9 -164.65 L-61.7 -163.9 -61.9 -163.1 Q-62.25 -162.55 -62.25 -161.75 -62.25 -158.8 -61.3 -156.0 -61.15 -155.5 -61.35 -154.95 -61.65 -154.05 -61.6 -152.0 L-60.8 -151.3 Q-60.45 -150.95 -60.35 -150.4 -60.25 -149.85 -60.5 -149.4 L-61.0 -148.65 -62.6 -146.0 -63.15 -145.45 -63.9 -145.25 -74.15 -144.75 -74.95 -144.9 -75.5 -145.45 -75.75 -146.25 -75.75 -153.0 -75.5 -153.8 Q-73.85 -156.35 -73.75 -157.85 -73.85 -158.95 -76.55 -163.65 -79.8 -169.3 -79.75 -174.0 -79.8 -179.2 -76.75 -189.55 -76.9 -192.1 -79.4 -195.1 -82.8 -199.2 -82.75 -203.6 -82.75 -204.85 -82.25 -206.4 L-81.7 -207.15 M-87.65 -199.0 L-86.75 -198.8 -86.1 -198.1 -84.8 -195.55 Q-81.85 -190.45 -82.0 -189.75 L-82.0 -189.5 Q-84.15 -177.2 -84.25 -174.5 L-81.5 -165.5 -79.5 -158.25 -79.55 -157.9 Q-80.7 -152.95 -80.3 -148.2 -80.1 -145.9 -79.45 -144.15 L-79.4 -143.35 -79.7 -142.65 -79.75 -142.6 -80.1 -142.25 Q-82.4 -140.6 -83.7 -140.1 L-84.65 -140.05 Q-85.15 -140.2 -85.45 -140.6 L-85.75 -141.5 -85.5 -146.7 -85.5 -146.75 Q-85.3 -150.8 -85.6 -153.6 -86.4 -161.05 -91.0 -161.25 -93.2 -161.25 -95.6 -160.1 L-96.6 -160.05 Q-97.1 -160.15 -97.4 -160.55 L-97.75 -161.5 -97.75 -162.0 -97.7 -162.4 Q-94.3 -174.25 -88.95 -197.85 L-88.5 -198.65 Q-88.15 -199.0 -87.65 -199.0 M-75.8 -248.3 Q-75.95 -248.85 -75.7 -249.3 L-74.9 -250.0 -74.5 -250.15 Q-60.05 -256.25 -56.65 -257.2 L-55.7 -257.15 Q-55.25 -257.0 -55.0 -256.55 L-54.75 -255.7 Q-54.75 -255.2 -55.05 -254.8 -60.25 -248.2 -68.9 -232.9 -72.7 -226.15 -75.15 -221.05 -75.4 -220.5 -76.0 -220.3 L-77.1 -220.35 Q-77.7 -220.6 -77.9 -221.15 L-78.15 -221.8 Q-79.8 -225.9 -79.75 -228.35 -79.75 -235.45 -75.75 -247.7 L-75.8 -248.3 M-59.9 -128.2 Q-59.7 -127.8 -59.8 -127.3 -60.6 -123.1 -62.15 -118.45 L-62.2 -118.4 -66.85 -106.45 -67.5 -105.65 -68.5 -105.5 -69.4 -106.05 Q-69.75 -106.45 -69.75 -107.0 -69.85 -107.85 -72.65 -114.85 -75.85 -122.75 -75.75 -124.35 -75.8 -126.0 -74.85 -128.2 L-74.2 -128.95 Q-73.8 -129.25 -73.25 -129.15 L-66.5 -128.75 -61.5 -129.05 -60.55 -128.9 -59.9 -128.2" fill="#e6e6e6" fill-rule="evenodd" stroke="none"/>
  </g>
</svg>
