<?xml version="1.0" encoding="UTF-8" standalone="no"?>
<svg xmlns:xlink="http://www.w3.org/1999/xlink" height="195.75px" width="234.8px" xmlns="http://www.w3.org/2000/svg">
  <g transform="matrix(1, 0, 0, 1, 117.4, 325.2)">
    <path d="M23.9 -322.55 Q48.15 -316.05 55.8 -312.75 63.5 -309.5 66.9 -307.65 70.55 -305.65 73.15 -302.35 L77.15 -297.35 77.2 -297.35 Q87.55 -284.4 91.8 -277.0 98.5 -265.4 97.65 -256.7 96.9 -248.45 98.4 -237.2 L101.45 -217.5 Q102.65 -209.25 110.05 -193.85 117.5 -178.3 117.4 -177.4 117.5 -170.5 108.15 -159.25 L108.15 -159.2 103.8 -154.1 Q103.45 -153.75 103.0 -153.6 L102.05 -153.7 101.35 -154.3 Q100.2 -156.3 97.85 -156.3 95.3 -156.15 92.05 -152.2 L92.05 -152.15 Q87.6 -146.85 84.15 -147.05 83.4 -146.65 81.05 -150.45 79.3 -152.45 77.05 -152.5 L73.0 -150.65 71.95 -150.6 71.15 -151.2 70.75 -151.75 Q70.4 -152.3 70.55 -152.85 70.65 -153.45 71.15 -153.8 81.0 -160.85 84.35 -163.95 94.0 -173.25 94.1 -181.15 L92.9 -185.05 89.05 -194.7 Q83.45 -207.85 83.15 -209.7 82.65 -212.3 82.75 -218.2 L82.9 -227.95 82.7 -229.55 82.75 -230.25 82.9 -231.35 82.95 -231.35 Q83.2 -233.4 82.9 -236.0 L82.95 -235.95 Q79.6 -259.45 76.2 -259.75 L74.8 -259.45 74.75 -259.4 74.35 -259.15 74.15 -255.55 Q74.2 -253.25 75.9 -249.3 77.95 -244.55 77.85 -243.55 L77.6 -244.35 77.2 -243.9 77.4 -243.75 77.8 -243.1 77.85 -242.7 77.85 -242.65 Q77.85 -242.05 77.4 -241.65 76.95 -241.2 76.35 -241.2 L76.2 -241.2 76.1 -241.2 75.95 -241.2 75.55 -241.35 75.45 -241.4 75.05 -241.75 74.9 -241.95 74.9 -242.0 74.85 -242.1 74.75 -242.3 74.65 -242.35 74.7 -242.25 74.55 -242.4 74.35 -242.6 Q71.95 -245.05 63.45 -249.05 52.3 -254.3 51.85 -256.0 L51.8 -256.0 Q51.3 -257.15 50.0 -265.05 48.55 -270.85 46.05 -271.15 44.85 -270.95 44.4 -268.9 44.05 -267.3 43.8 -260.85 43.3 -246.3 37.45 -241.15 37.0 -240.75 36.4 -240.75 35.8 -240.75 35.4 -241.2 34.95 -241.65 34.95 -242.25 34.9 -246.1 31.1 -252.45 L31.05 -252.5 Q29.25 -255.6 27.7 -257.25 27.3 -257.6 27.25 -258.1 L27.25 -258.2 26.4 -258.7 25.75 -258.8 23.1 -256.7 Q22.1 -255.1 21.05 -252.55 L21.1 -252.65 17.25 -242.5 16.5 -241.8 15.4 -241.75 Q14.85 -241.95 14.6 -242.45 10.6 -249.3 -3.3 -259.1 L-3.8 -259.7 Q-6.45 -265.2 -9.35 -265.45 -10.0 -265.4 -10.6 -264.9 L-10.6 -264.85 Q-11.4 -264.15 -11.4 -262.9 L-8.65 -258.35 -5.25 -253.4 -5.0 -252.5 Q-5.0 -252.0 -5.3 -251.6 -9.05 -246.85 -17.8 -240.45 -25.5 -234.95 -26.85 -233.0 L-27.5 -232.4 -28.4 -232.3 Q-29.45 -232.4 -30.3 -233.85 L-30.55 -234.45 -30.8 -239.4 Q-30.8 -240.65 -29.75 -244.1 -28.9 -246.95 -28.9 -248.05 L-29.05 -250.2 Q-29.45 -251.05 -30.3 -251.25 -50.6 -228.5 -57.1 -222.5 L-57.45 -222.05 Q-57.9 -221.7 -58.45 -221.7 -60.0 -221.3 -60.0 -224.65 -60.05 -235.9 -51.25 -249.0 L-45.4 -257.2 Q-43.2 -260.4 -43.05 -261.45 -43.05 -262.15 -43.3 -262.65 L-43.25 -262.6 Q-44.05 -263.55 -46.05 -263.55 -55.8 -263.2 -71.6 -208.6 L-71.3 -206.35 -70.7 -205.9 -69.55 -205.85 Q-68.65 -205.95 -66.95 -207.0 L-66.1 -207.2 -65.25 -206.95 -64.75 -206.25 Q-64.6 -205.8 -64.7 -205.35 L-65.95 -199.85 Q-65.9 -194.7 -62.8 -188.25 -59.35 -180.95 -59.4 -175.95 -59.35 -173.45 -62.35 -167.3 -64.9 -162.1 -65.0 -159.9 -64.4 -151.7 -61.2 -151.2 L-60.3 -150.8 Q-50.1 -141.7 -46.05 -139.1 L-45.5 -138.35 -45.45 -137.4 Q-45.6 -136.9 -46.0 -136.6 L-46.95 -136.35 -54.95 -136.45 Q-64.15 -136.45 -68.35 -133.35 L-70.95 -130.95 Q-72.65 -129.4 -74.45 -129.45 -77.6 -129.35 -82.15 -132.75 -85.65 -135.4 -87.85 -135.5 L-91.95 -134.95 -92.85 -134.9 -93.55 -135.4 -93.9 -136.2 Q-94.35 -140.35 -97.25 -144.1 L-97.2 -144.1 Q-98.4 -145.65 -105.15 -152.4 L-105.15 -152.35 Q-110.9 -158.0 -113.5 -163.05 -117.4 -170.25 -117.4 -179.65 -117.55 -185.8 -105.85 -204.15 -94.95 -221.4 -94.8 -225.85 -94.8 -231.05 -97.55 -237.8 -100.55 -245.25 -100.5 -248.5 -100.6 -254.15 -91.8 -269.5 -84.6 -282.1 -79.85 -287.85 -74.7 -294.0 -66.8 -301.35 -58.7 -308.85 -52.6 -311.15 -46.8 -313.4 -38.15 -318.2 -29.15 -323.3 -20.4 -324.1 L-5.0 -324.85 -4.35 -324.95 -3.35 -325.2 23.65 -322.6 23.9 -322.55" fill="#f9e586" fill-rule="evenodd" stroke="none"/>
  </g>
</svg>
