<?xml version="1.0" encoding="UTF-8" standalone="no"?>
<svg xmlns:xlink="http://www.w3.org/1999/xlink" height="272.1px" width="225.6px" xmlns="http://www.w3.org/2000/svg">
  <g transform="matrix(1, 0, 0, 1, 102.1, 315.6)">
    <path d="M9.45 -311.1 L9.95 -310.9 Q15.4 -308.7 28.4 -305.75 44.25 -302.15 49.4 -300.55 60.7 -297.2 64.8 -293.1 70.85 -287.3 77.25 -277.05 L77.25 -277.0 86.2 -261.95 Q94.0 -249.3 97.6 -230.9 L97.6 -230.85 Q100.45 -210.3 102.3 -200.5 104.35 -189.4 107.25 -165.0 111.1 -132.9 112.25 -124.8 117.15 -89.4 123.2 -81.2 L123.5 -80.45 123.35 -79.65 122.8 -79.0 117.5 -75.85 Q104.95 -68.25 92.4 -62.65 49.35 -43.5 0.6 -43.5 -45.15 -43.5 -79.5 -52.0 -89.55 -54.5 -99.05 -57.85 L-101.05 -58.6 Q-101.65 -58.8 -101.9 -59.35 -102.2 -59.9 -102.0 -60.45 -98.95 -70.55 -95.8 -93.6 -94.0 -107.2 -92.45 -122.7 -91.2 -135.25 -91.2 -137.25 -91.2 -141.3 -92.9 -158.15 -94.65 -175.2 -94.65 -180.45 -94.65 -193.85 -92.55 -214.95 L-88.8 -249.75 Q-88.55 -252.4 -88.65 -264.2 L-88.65 -264.3 Q-88.0 -277.15 -83.75 -286.5 -71.0 -315.6 -24.45 -315.6 -12.6 -315.6 -4.55 -313.3 3.15 -311.1 7.5 -311.1 L8.7 -311.15 9.45 -311.1 M70.45 -252.6 Q75.1 -244.65 75.6 -241.9 L75.45 -241.0 74.85 -240.3 73.9 -240.15 Q44.05 -244.05 27.6 -244.05 2.3 -244.05 -21.1 -235.95 -33.45 -231.7 -50.1 -224.1 L-51.1 -223.65 -52.1 -223.55 Q-52.6 -223.65 -52.9 -224.05 L-53.25 -225.0 Q-53.3 -225.85 -52.6 -226.9 -52.2 -230.85 -48.1 -242.7 L-44.1 -254.7 -44.1 -256.9 Q-44.95 -257.4 -45.6 -258.0 L-47.1 -258.15 Q-51.6 -257.8 -56.45 -238.4 -58.2 -231.7 -59.5 -223.9 L-60.6 -216.75 -60.65 -216.35 Q-61.0 -215.1 -60.7 -214.05 -60.05 -212.4 -57.0 -212.4 L-56.15 -212.15 -55.6 -211.45 -55.5 -210.55 Q-56.55 -205.95 -57.2 -199.2 -57.85 -192.3 -58.15 -181.95 L-58.5 -168.65 -58.8 -167.8 -59.55 -167.3 -60.45 -167.3 -61.2 -167.85 Q-63.85 -171.4 -70.15 -190.15 -75.1 -204.85 -76.5 -205.2 -79.3 -205.05 -79.35 -201.15 -77.85 -188.3 -73.5 -175.7 L-73.5 -175.65 Q-68.65 -161.5 -62.0 -155.45 L-61.6 -154.85 -61.5 -154.1 -61.6 -152.0 Q-50.15 -141.75 -45.95 -139.0 -29.95 -128.75 -12.15 -128.75 4.8 -128.75 24.15 -133.85 42.4 -138.65 58.7 -146.85 65.5 -150.3 71.2 -153.9 L71.4 -154.0 Q81.05 -160.85 84.35 -163.95 94.0 -173.25 94.1 -181.15 L92.9 -185.05 89.05 -194.7 Q83.45 -207.85 83.15 -209.7 82.65 -212.3 82.75 -218.2 L82.9 -227.95 82.65 -229.8 Q82.5 -230.35 82.75 -230.8 83.0 -231.35 83.5 -231.55 85.2 -232.4 85.2 -234.9 L84.05 -239.45 Q82.5 -245.05 80.65 -249.8 75.3 -263.7 69.9 -264.0 66.5 -264.0 66.45 -260.85 66.55 -259.25 70.45 -252.6" fill="#444444" fill-rule="evenodd" stroke="none"/>
  </g>
</svg>
