<?xml version="1.0" encoding="UTF-8" standalone="no"?>
<svg xmlns:xlink="http://www.w3.org/1999/xlink" height="290.3px" width="255.4px" xmlns="http://www.w3.org/2000/svg">
  <g transform="matrix(1, 0, 0, 1, 143.25, 338.45)">
    <path d="M36.15 -308.75 Q45.35 -312.2 53.05 -312.2 85.0 -312.2 101.55 -286.35 L101.55 -286.3 Q106.95 -277.8 110.0 -267.5 112.15 -260.15 112.15 -256.5 L112.15 -256.45 Q110.35 -221.55 110.35 -204.6 L110.05 -203.9 Q109.75 -203.6 109.35 -203.6 L108.85 -203.6 108.4 -203.7 108.0 -204.05 Q103.7 -211.05 98.7 -227.4 94.2 -242.1 88.5 -249.8 80.45 -260.65 52.75 -276.45 25.2 -292.2 18.8 -292.25 L14.2 -292.2 13.3 -292.2 13.15 -292.25 12.85 -292.3 12.55 -292.3 Q11.75 -292.05 7.75 -285.4 L-2.35 -267.5 Q-19.3 -237.75 -30.95 -224.65 L-46.5 -207.15 Q-55.05 -197.15 -60.0 -189.7 -72.85 -170.5 -69.5 -155.85 L-69.6 -155.15 -70.1 -154.7 -70.8 -154.7 -71.35 -155.15 Q-76.75 -164.5 -79.9 -176.5 -83.05 -188.25 -83.05 -198.3 -83.05 -215.7 -71.65 -239.55 -68.95 -245.3 -64.6 -253.15 -60.4 -260.9 -59.85 -262.7 -59.55 -263.75 -59.6 -264.4 L-60.05 -264.3 -63.85 -262.65 Q-68.75 -260.0 -76.1 -241.2 -83.65 -222.0 -86.1 -210.0 -87.45 -203.65 -87.15 -193.35 -86.5 -181.75 -83.95 -172.5 -81.45 -163.25 -79.7 -159.7 L-79.65 -159.5 -78.75 -156.1 -77.0 -149.15 Q-77.0 -148.75 -77.3 -148.45 -77.6 -148.15 -77.95 -148.15 L-78.65 -148.4 Q-91.05 -160.0 -97.15 -178.8 L-99.3 -185.95 -99.3 -186.15 Q-100.6 -198.6 -100.7 -208.1 -100.95 -228.7 -95.3 -246.0 -89.15 -265.05 -77.75 -280.25 -64.8 -297.5 -47.05 -306.95 -27.0 -317.8 -2.35 -317.8 20.95 -317.8 30.5 -312.7 32.35 -311.75 35.45 -309.25 L36.15 -308.75 M54.85 -260.65 L34.55 -276.45 Q34.2 -276.7 34.15 -277.05 L34.3 -277.75 Q34.45 -278.1 34.85 -278.2 L35.55 -278.2 Q51.25 -271.45 65.8 -263.25 77.95 -256.4 83.95 -248.75 88.3 -243.2 91.4 -233.85 L91.45 -233.75 Q94.3 -220.75 94.3 -218.1 94.3 -217.1 95.25 -213.3 96.2 -209.3 96.2 -207.3 L97.15 -194.85 Q97.15 -188.8 96.1 -183.0 L95.8 -182.45 Q95.55 -182.2 95.2 -182.2 L94.55 -182.35 Q94.25 -182.55 94.2 -182.9 L93.35 -185.2 89.5 -194.9 Q83.95 -207.95 83.65 -209.8 83.15 -212.4 83.25 -218.2 L83.4 -227.95 Q83.35 -230.05 82.3 -232.05 L82.2 -232.25 Q79.55 -241.65 54.85 -260.65 M90.5 -169.8 L91.2 -169.65 91.65 -169.1 91.65 -168.4 Q86.3 -156.4 75.95 -143.3 L75.45 -143.0 74.85 -143.0 74.35 -143.35 74.15 -143.95 74.15 -146.75 74.15 -146.9 75.5 -155.95 75.65 -156.35 75.9 -156.65 Q82.15 -161.25 84.65 -163.6 87.75 -166.6 89.9 -169.4 90.15 -169.75 90.5 -169.8 M61.3 -145.4 Q57.5 -141.8 56.45 -141.55 L55.85 -141.55 Q55.55 -141.65 55.35 -141.9 L55.15 -142.5 55.15 -143.2 55.25 -143.65 55.6 -144.4 56.1 -145.0 58.9 -146.4 60.15 -147.0 60.8 -147.1 61.4 -146.7 61.6 -146.0 61.3 -145.4 M-19.2 -323.25 L-19.45 -322.6 Q-19.7 -322.3 -20.1 -322.25 -67.9 -315.7 -90.75 -271.0 -99.45 -254.0 -103.45 -233.35 -105.95 -220.8 -105.95 -213.25 -105.95 -198.05 -105.75 -194.45 -105.15 -183.75 -102.6 -175.65 L-100.9 -171.1 -100.9 -171.15 Q-98.4 -165.2 -95.05 -159.55 L-95.05 -159.6 Q-91.7 -153.95 -83.65 -144.2 -76.05 -134.95 -71.95 -134.8 -68.9 -134.85 -68.9 -138.1 L-69.25 -139.95 -69.2 -140.6 -68.7 -141.05 -68.05 -141.1 -67.5 -140.75 Q-62.25 -134.05 -60.2 -133.85 -57.6 -133.95 -57.6 -137.25 L-60.8 -144.95 Q-62.35 -148.55 -63.2 -151.8 L-63.15 -152.45 -62.7 -152.95 -62.1 -153.05 Q-61.75 -153.0 -61.5 -152.75 -51.2 -142.45 -47.35 -139.4 L-47.0 -139.0 -47.0 -138.45 Q-51.05 -117.8 -74.0 -93.45 -91.55 -74.9 -126.6 -48.35 L-127.3 -48.15 Q-127.7 -48.2 -127.95 -48.5 L-128.15 -48.75 -128.4 -49.25 -128.3 -49.75 Q-120.5 -69.9 -119.3 -74.85 -117.85 -81.05 -117.85 -95.55 -117.85 -108.9 -121.75 -124.85 -123.9 -133.55 -130.5 -153.85 -136.7 -173.0 -139.25 -184.35 -143.25 -202.15 -143.25 -218.35 -143.25 -228.5 -139.15 -246.1 -134.15 -267.9 -125.6 -286.25 -101.25 -338.55 -60.65 -338.45 -37.5 -338.45 -24.65 -328.65 -22.15 -326.75 -19.5 -323.9 L-19.2 -323.25" fill="#b835b9" fill-rule="evenodd" stroke="none"/>
  </g>
</svg>
