<?xml version="1.0" encoding="UTF-8" standalone="no"?>
<svg xmlns:xlink="http://www.w3.org/1999/xlink" height="311.3px" width="242.05px" xmlns="http://www.w3.org/2000/svg">
  <g transform="matrix(1, 0, 0, 1, 123.55, 319.45)">
    <path d="M60.05 -303.7 Q77.95 -290.25 83.3 -279.15 88.65 -268.1 92.85 -261.8 97.05 -255.5 104.0 -249.5 110.95 -243.45 114.55 -236.8 118.15 -230.2 118.45 -225.5 118.75 -221.3 115.95 -211.2 L115.65 -210.7 Q115.4 -210.5 115.1 -210.45 114.8 -210.45 114.55 -210.6 L114.1 -211.0 Q110.75 -217.2 107.95 -220.75 104.65 -224.95 96.2 -239.55 L96.2 -239.5 96.2 -239.55 95.95 -239.25 Q95.85 -234.0 101.25 -206.55 L101.25 -206.05 101.0 -205.65 100.95 -205.65 100.5 -205.35 100.0 -205.4 99.5 -205.65 98.7 -206.55 98.45 -206.85 Q90.0 -216.0 87.4 -220.2 L87.05 -220.8 86.95 -220.95 86.95 -220.9 85.65 -223.0 85.1 -223.9 85.1 -223.85 84.8 -224.3 84.75 -224.35 84.65 -224.5 84.15 -225.3 84.15 -225.35 83.55 -226.25 83.5 -226.4 78.7 -236.7 78.65 -236.85 Q71.95 -250.8 70.65 -252.75 L70.6 -252.8 69.2 -254.45 68.85 -254.65 68.65 -254.65 68.4 -254.4 68.4 -254.35 Q67.9 -253.5 67.9 -252.3 L67.9 -252.25 Q67.9 -251.1 68.85 -249.7 L68.9 -249.7 Q69.8 -248.25 69.85 -246.45 69.9 -244.7 69.35 -242.2 L69.35 -242.15 Q68.85 -240.15 61.2 -231.9 L60.65 -231.55 60.0 -231.7 59.55 -232.2 Q59.4 -232.55 59.55 -232.85 64.7 -250.05 42.3 -267.1 39.4 -258.95 41.05 -253.75 42.7 -248.4 43.05 -244.55 43.3 -241.6 42.9 -238.65 L42.6 -238.05 42.0 -237.75 41.35 -237.95 40.95 -238.45 Q38.9 -245.0 30.65 -249.55 L14.05 -258.8 Q9.2 -261.55 6.75 -264.95 L6.75 -265.0 Q4.75 -267.8 -2.9 -280.8 -5.1 -280.2 -5.25 -278.2 L-5.25 -278.15 Q-5.55 -275.3 -4.95 -271.45 -4.35 -267.55 -1.0 -256.45 1.3 -248.9 1.5 -243.65 L1.3 -243.05 Q1.1 -242.8 0.75 -242.7 L0.1 -242.7 -0.4 -243.15 Q-2.85 -247.4 -8.85 -255.35 -19.2 -268.95 -18.5 -276.0 L-18.5 -276.1 Q-19.0 -279.1 -20.55 -279.15 L-20.65 -279.15 Q-22.4 -279.2 -23.25 -278.15 -24.2 -276.9 -24.2 -274.3 -24.2 -259.55 -26.9 -250.7 -29.6 -241.85 -38.0 -233.25 -46.45 -224.65 -60.75 -213.15 -73.9 -202.6 -78.05 -189.25 L-78.55 -188.65 -79.3 -188.6 Q-79.7 -188.75 -79.9 -189.1 -85.15 -199.4 -85.1 -204.05 -85.05 -209.1 -83.15 -212.55 L-83.1 -212.75 Q-81.15 -216.3 -72.8 -226.25 -64.5 -236.3 -63.4 -242.15 -62.3 -248.0 -64.7 -252.6 L-64.75 -252.65 Q-67.15 -257.25 -64.05 -265.3 -61.0 -273.35 -53.7 -278.5 -46.4 -283.65 -42.55 -286.05 -38.75 -288.45 -38.7 -289.45 L-38.7 -289.6 -38.8 -291.35 -38.85 -291.45 -39.05 -291.4 -39.7 -291.25 -42.2 -290.35 Q-45.55 -289.05 -52.15 -286.15 -65.4 -280.3 -73.15 -258.25 -73.15 -254.85 -71.25 -251.55 -69.35 -248.2 -69.35 -245.2 -69.35 -240.15 -72.6 -234.7 L-72.65 -234.6 Q-74.6 -231.35 -79.65 -225.1 -84.8 -218.85 -86.75 -215.4 -90.0 -209.8 -90.0 -204.65 L-90.0 -204.6 Q-88.35 -195.65 -84.45 -186.75 -81.45 -179.9 -76.2 -177.6 L-76.1 -177.55 Q-74.65 -176.95 -73.05 -176.7 L-73.0 -176.7 Q-71.3 -177.05 -71.05 -178.1 L-71.0 -178.2 Q-70.85 -179.35 -72.15 -181.25 L-72.15 -181.3 Q-75.95 -186.8 -71.05 -194.35 -70.0 -196.05 -65.7 -200.85 L-65.1 -201.15 -64.45 -201.05 -64.0 -200.5 -64.0 -199.85 -67.4 -188.8 Q-67.25 -186.7 -64.25 -182.85 -60.65 -178.15 -60.75 -176.2 -60.7 -175.65 -64.6 -165.35 -67.1 -158.7 -67.35 -149.7 L-67.6 -149.05 Q-67.85 -148.8 -68.2 -148.75 L-68.9 -148.9 -69.3 -149.45 Q-71.75 -158.2 -71.75 -162.65 -71.9 -165.25 -77.7 -170.05 -86.0 -176.9 -86.5 -177.6 L-86.5 -177.55 Q-87.3 -178.5 -89.45 -186.9 -90.9 -192.35 -93.1 -192.55 -95.0 -192.6 -95.45 -190.9 -95.65 -190.15 -95.65 -186.65 -95.65 -177.95 -89.8 -172.9 -84.0 -168.35 -81.5 -165.85 -76.65 -161.2 -76.75 -157.3 L-76.65 -155.55 -76.65 -155.4 -76.75 -149.7 -76.65 -143.8 Q-76.45 -141.65 -75.65 -140.05 L-75.55 -139.4 -75.9 -138.85 Q-76.15 -138.65 -76.45 -138.6 L-77.1 -138.8 Q-80.95 -141.3 -86.8 -150.3 -92.2 -158.55 -93.9 -159.15 L-94.5 -159.25 -94.45 -158.85 Q-94.2 -157.0 -91.8 -151.4 -89.35 -145.75 -84.1 -139.0 -78.7 -132.1 -76.6 -128.8 L-76.6 -128.75 Q-73.05 -123.2 -73.1 -118.75 L-73.1 -118.55 Q-73.95 -114.45 -74.05 -110.5 -74.15 -106.9 -73.35 -105.05 -72.75 -103.75 -71.45 -103.7 -69.25 -103.9 -67.0 -113.5 -65.15 -121.6 -65.1 -125.45 L-66.75 -131.95 -66.7 -132.6 -66.25 -133.1 -65.6 -133.2 -65.0 -132.85 Q-61.5 -128.55 -56.6 -130.75 -55.8 -132.35 -58.55 -138.25 -61.85 -145.35 -62.55 -147.6 -63.35 -150.15 -63.25 -150.6 L-62.95 -151.3 -62.3 -151.55 -61.6 -151.3 Q-50.55 -141.4 -46.3 -138.65 L-46.2 -138.6 Q-30.05 -128.25 -12.15 -128.25 4.85 -128.25 24.25 -133.35 33.85 -135.9 42.85 -139.3 L48.95 -141.75 53.05 -143.55 53.4 -143.65 53.65 -143.7 54.2 -143.6 54.6 -143.2 54.75 -142.7 Q54.8 -136.0 57.75 -130.05 59.85 -125.85 64.85 -120.45 69.8 -115.15 73.45 -113.5 77.55 -111.85 79.65 -102.95 81.0 -102.3 82.05 -103.2 83.45 -104.6 84.35 -108.4 84.3 -112.15 81.95 -117.75 L80.65 -120.95 80.6 -121.65 81.0 -122.15 81.65 -122.35 82.25 -122.05 83.15 -121.2 83.2 -121.2 90.0 -115.05 90.0 -115.1 Q92.1 -112.9 92.2 -108.7 L92.2 -108.3 92.2 -108.0 Q92.25 -105.9 92.85 -104.4 L92.9 -104.15 Q94.1 -94.85 98.45 -85.4 L98.45 -85.45 102.65 -76.8 Q104.7 -72.55 104.65 -70.5 104.7 -67.6 99.85 -58.85 95.3 -50.8 95.25 -44.75 95.25 -40.9 97.55 -36.9 L97.55 -36.85 99.35 -33.25 99.4 -32.55 98.9 -32.0 98.2 -31.9 97.6 -32.3 94.85 -36.15 Q90.55 -42.1 89.0 -47.3 88.55 -48.7 88.35 -50.0 88.05 -51.65 88.05 -53.2 88.05 -55.3 89.55 -61.8 90.9 -68.05 90.9 -70.85 L90.9 -70.95 Q91.15 -73.1 90.5 -74.15 89.85 -75.0 88.35 -75.0 86.3 -74.8 84.5 -64.65 83.35 -58.4 83.15 -54.7 L83.15 -54.65 Q82.35 -46.95 82.3 -43.55 83.0 -33.7 85.15 -24.85 L85.05 -24.2 84.55 -23.7 83.85 -23.7 Q83.5 -23.8 83.3 -24.1 78.8 -31.05 75.05 -38.25 71.1 -45.65 73.5 -56.9 L73.55 -56.95 74.25 -60.6 Q74.8 -63.45 75.0 -70.15 74.6 -81.85 70.95 -88.0 67.5 -93.65 65.9 -93.8 L64.3 -93.75 63.7 -92.95 Q64.25 -93.05 67.6 -86.35 71.55 -78.45 71.55 -73.3 71.5 -68.2 71.25 -66.2 L70.3 -61.15 Q69.75 -58.05 61.3 -45.1 L60.75 -44.7 60.1 -44.7 59.6 -45.15 Q59.4 -45.5 59.5 -45.85 62.95 -63.95 61.85 -68.3 60.15 -74.5 54.95 -79.65 52.7 -81.9 48.3 -93.5 44.7 -102.85 44.15 -103.1 42.1 -103.1 41.65 -101.3 L42.45 -93.8 Q42.95 -89.15 48.55 -80.3 L55.15 -69.85 Q57.85 -65.55 57.85 -61.75 57.85 -58.75 56.9 -55.1 L56.85 -55.0 56.85 -54.95 56.75 -54.7 56.75 -54.75 55.3 -50.55 53.5 -45.45 Q51.75 -40.45 46.6 -29.5 41.85 -19.4 45.6 -15.4 L45.85 -14.75 45.65 -14.05 45.05 -13.7 44.35 -13.85 Q39.05 -17.0 37.5 -24.0 35.95 -30.85 36.3 -32.55 L36.3 -32.7 Q42.85 -54.2 42.9 -57.45 42.9 -63.7 42.05 -65.95 L42.05 -66.0 35.8 -78.45 35.75 -78.5 Q35.0 -80.1 32.95 -90.6 31.2 -99.6 29.7 -100.05 27.7 -99.05 27.95 -93.3 28.3 -85.55 31.45 -78.45 34.75 -71.0 35.2 -67.75 L35.2 -67.6 35.2 -67.55 Q35.45 -53.45 26.6 -43.25 L26.55 -43.25 19.55 -34.4 Q16.05 -29.85 17.2 -20.4 L17.1 -19.8 16.65 -19.4 16.05 -19.3 Q15.75 -19.35 15.55 -19.55 3.3 -31.0 13.25 -47.75 22.5 -63.45 17.9 -83.0 13.45 -101.95 11.6 -101.75 9.65 -101.3 9.65 -98.8 9.65 -95.6 11.4 -89.15 L13.9 -79.15 Q14.9 -74.05 15.25 -62.5 L15.15 -62.0 Q-0.55 -32.4 0.0 -14.25 0.0 -13.95 -0.15 -13.7 L-0.6 -13.3 -1.2 -13.25 -1.75 -13.6 Q-10.55 -23.55 -11.55 -30.6 -12.6 -37.65 -10.7 -44.05 L-10.7 -44.15 -8.5 -49.5 Q-6.8 -54.85 -6.8 -61.6 -6.8 -67.3 -9.55 -77.05 -12.4 -87.1 -12.65 -91.2 -13.0 -95.5 -10.4 -100.95 L-8.85 -104.05 -9.35 -104.05 Q-14.3 -103.95 -16.35 -97.15 -17.05 -94.85 -17.35 -92.05 L-17.5 -89.5 Q-17.5 -84.95 -14.75 -75.2 L-14.7 -75.2 Q-11.9 -65.15 -11.65 -59.35 -11.4 -53.55 -15.5 -43.2 -19.45 -33.25 -21.65 -16.45 -21.7 -16.05 -22.05 -15.8 -22.35 -15.55 -22.75 -15.6 -23.2 -15.65 -23.4 -15.95 -30.8 -25.35 -31.1 -30.1 L-31.1 -30.15 Q-31.25 -32.4 -30.85 -36.3 L-30.8 -36.6 Q-30.25 -37.85 -28.45 -44.95 -26.65 -52.15 -26.2 -54.45 -25.9 -56.65 -29.45 -67.35 -33.15 -78.7 -33.25 -81.55 -33.45 -84.5 -29.15 -94.0 L-25.2 -102.2 Q-25.8 -103.1 -27.15 -103.1 -32.35 -102.85 -38.15 -79.25 -38.05 -74.5 -34.45 -66.35 -30.65 -57.5 -30.7 -54.0 -30.65 -53.1 -33.3 -45.7 -40.95 -20.6 -41.05 -9.15 -41.05 -8.8 -41.3 -8.5 L-41.9 -8.15 -42.55 -8.3 -43.0 -8.8 Q-46.7 -19.6 -47.4 -22.15 -48.15 -24.8 -48.55 -28.3 L-48.55 -28.65 Q-46.35 -38.3 -46.35 -42.0 -46.35 -46.5 -50.5 -59.85 -54.75 -73.6 -54.75 -80.0 -54.8 -81.0 -52.25 -87.05 -50.05 -92.55 -50.0 -93.45 L-50.35 -95.75 Q-50.95 -97.4 -52.6 -97.4 -54.4 -97.15 -57.1 -89.65 -59.75 -82.4 -59.8 -79.8 -59.8 -68.9 -55.6 -57.1 L-55.6 -57.15 -52.7 -49.05 Q-51.35 -44.8 -51.35 -42.0 -51.35 -38.9 -53.2 -21.65 -53.25 -21.25 -53.55 -21.0 -53.85 -20.75 -54.25 -20.75 -54.7 -20.8 -54.95 -21.1 L-55.2 -21.8 Q-55.05 -28.1 -61.0 -35.45 -67.65 -43.6 -66.25 -49.25 -65.1 -54.35 -65.1 -55.45 -65.1 -61.8 -69.65 -68.5 -74.65 -75.9 -74.6 -79.4 -74.6 -80.7 -73.6 -83.95 -72.7 -86.8 -72.7 -87.85 -72.7 -88.75 -73.1 -89.55 L-73.1 -89.6 Q-73.7 -90.9 -75.25 -90.9 -77.5 -90.7 -78.65 -86.1 -79.6 -82.6 -79.6 -78.85 -79.55 -73.95 -75.05 -66.6 -70.2 -58.6 -70.25 -54.85 -70.25 -48.1 -72.1 -39.3 -73.95 -30.75 -73.7 -26.4 -73.45 -22.0 -72.35 -16.7 -71.75 -13.8 -71.8 -13.0 L-72.0 -12.2 Q-72.35 -11.75 -72.85 -11.8 -73.2 -11.75 -73.55 -12.0 L-74.25 -12.95 Q-84.0 -24.55 -84.0 -39.4 -84.0 -51.1 -89.0 -60.45 L-92.3 -66.7 Q-92.5 -67.1 -92.35 -67.45 L-92.35 -67.5 -93.55 -70.15 -93.65 -70.35 Q-94.3 -72.85 -94.3 -75.4 -94.3 -85.15 -88.6 -114.25 -88.6 -115.1 -89.0 -115.9 -89.65 -117.25 -91.2 -117.25 -94.8 -117.05 -97.4 -99.95 L-99.3 -81.1 Q-99.3 -74.35 -98.1 -70.3 L-97.35 -68.35 -97.25 -67.95 -97.3 -67.55 -97.45 -67.2 -97.5 -67.35 Q-97.4 -63.9 -100.0 -48.5 -101.9 -37.1 -98.0 -25.55 L-98.0 -24.9 -98.35 -24.4 -99.0 -24.25 -99.6 -24.45 Q-113.7 -36.25 -112.5 -53.25 -111.35 -69.5 -112.1 -72.65 L-112.15 -72.85 Q-112.4 -79.95 -117.6 -86.25 L-121.6 -91.45 Q-123.55 -94.7 -123.55 -98.4 -123.55 -107.25 -120.85 -117.95 L-115.0 -137.5 Q-106.55 -164.65 -106.55 -187.35 L-106.5 -220.25 Q-105.6 -240.2 -100.25 -253.6 -93.45 -271.15 -78.0 -287.2 -69.65 -295.9 -47.1 -307.35 L-39.75 -311.15 -39.15 -311.5 -39.1 -311.5 -35.25 -313.7 -34.75 -313.85 -34.35 -313.75 -34.35 -313.8 Q-17.05 -320.9 11.65 -319.05 42.05 -317.15 60.05 -303.7 M83.9 -217.7 L84.55 -217.7 85.05 -217.35 Q90.65 -209.9 101.45 -197.0 L101.65 -196.6 101.65 -196.15 Q100.95 -192.5 100.95 -189.15 L101.15 -186.5 101.15 -186.3 101.95 -183.0 102.1 -182.7 102.15 -182.6 Q102.85 -180.85 104.05 -179.45 L104.15 -179.4 104.25 -179.25 104.3 -179.15 104.35 -179.15 104.45 -179.05 Q106.5 -176.9 107.2 -175.5 108.45 -173.05 108.45 -168.95 L108.4 -167.65 Q107.8 -162.85 102.7 -152.5 97.4 -141.8 97.15 -139.8 L97.6 -138.35 97.6 -137.75 97.2 -137.25 96.6 -137.05 Q96.25 -137.1 96.0 -137.3 91.7 -140.9 91.85 -143.05 91.85 -144.35 92.9 -147.15 L92.85 -147.15 Q93.7 -149.5 93.75 -150.55 91.75 -162.55 88.75 -166.9 L88.55 -167.5 88.8 -168.1 89.0 -168.4 Q93.65 -174.45 94.45 -179.3 L94.5 -179.4 94.5 -179.45 94.5 -179.6 94.55 -179.65 94.55 -179.75 94.55 -179.8 94.55 -179.95 94.6 -180.2 94.6 -180.5 94.6 -180.55 94.6 -180.75 94.6 -180.9 94.6 -181.15 93.35 -185.2 93.05 -186.05 93.1 -186.05 89.5 -194.9 Q83.95 -207.95 83.65 -209.8 83.2 -212.05 83.25 -216.75 L83.45 -217.3 83.9 -217.7 M83.3 -162.15 L83.9 -162.05 84.3 -161.6 85.25 -159.8 Q87.65 -155.3 87.65 -151.85 L87.65 -151.7 87.0 -144.9 86.95 -141.9 86.9 -141.75 86.85 -140.95 87.0 -140.55 87.05 -140.35 Q87.25 -138.35 87.9 -137.1 L88.5 -136.3 88.65 -136.0 94.05 -122.15 94.05 -121.5 93.7 -120.95 93.05 -120.8 Q92.7 -120.85 92.45 -121.05 88.5 -124.65 81.55 -137.25 L78.0 -143.8 77.9 -144.0 Q75.75 -151.8 74.65 -154.85 74.5 -155.15 74.65 -155.5 L75.0 -156.0 78.05 -158.2 78.85 -158.8 79.15 -159.05 82.75 -161.95 83.3 -162.15 M68.1 -151.4 L68.75 -151.55 69.35 -151.25 69.65 -150.6 Q69.85 -147.9 70.75 -142.5 L72.9 -128.35 Q73.3 -124.85 75.25 -119.25 L75.25 -118.6 74.8 -118.05 74.1 -117.95 Q64.3 -119.95 59.4 -142.95 L59.4 -143.1 Q59.3 -146.1 60.95 -147.0 L67.75 -151.15 68.1 -151.4 M29.8 -101.15 L29.7 -102.15 32.35 -102.2 32.1 -102.15 33.6 -100.65 Q35.25 -101.6 32.7 -102.2 L32.45 -102.2 32.1 -102.25 30.5 -102.25 29.45 -102.1 Q29.1 -102.0 28.9 -101.7 28.65 -101.4 28.7 -101.0 L28.8 -100.7 29.05 -100.4 Q29.35 -100.15 29.75 -100.15 L29.9 -100.15 30.95 -100.15 32.35 -100.2 32.05 -100.25 30.9 -100.25 30.5 -100.25 29.95 -100.15 29.8 -101.05 29.8 -101.15 M32.4 -100.2 Q34.05 -99.85 33.6 -100.65 L32.9 -100.3 32.6 -100.2 32.4 -100.2" fill="#ffff80" fill-rule="evenodd" stroke="none"/>
    <path d="M29.8 -101.15 L29.8 -101.05 29.95 -100.15 30.5 -100.25 30.9 -100.25 32.05 -100.25 32.35 -100.2 30.95 -100.15 29.9 -100.15 29.75 -100.15 Q29.35 -100.15 29.05 -100.4 L28.8 -100.7 28.7 -101.0 Q28.65 -101.4 28.9 -101.7 29.1 -102.0 29.45 -102.1 L30.5 -102.25 32.1 -102.25 32.45 -102.2 32.7 -102.2 Q35.25 -101.6 33.6 -100.65 L32.1 -102.15 32.35 -102.2 29.7 -102.15 29.8 -101.15" fill="#000000" fill-rule="evenodd" stroke="none"/>
  </g>
</svg>
