<?xml version="1.0" encoding="UTF-8" standalone="no"?>
<svg xmlns:xlink="http://www.w3.org/1999/xlink" height="196.2px" width="254.4px" xmlns="http://www.w3.org/2000/svg">
  <g transform="matrix(1, 0, 0, 1, 124.8, 323.45)">
    <path d="M7.55 -315.6 L5.85 -315.7 5.2 -315.75 Q-9.25 -316.35 -13.35 -315.65 -38.15 -311.2 -50.7 -304.55 -65.65 -296.75 -75.4 -285.55 -81.8 -278.1 -85.85 -267.75 -89.7 -257.9 -90.45 -248.15 L-90.6 -246.2 Q-99.35 -210.8 -105.0 -202.05 -112.05 -191.15 -113.25 -188.75 -116.85 -181.3 -116.7 -173.15 -116.6 -165.05 -108.2 -155.5 -99.8 -146.0 -98.1 -153.55 -101.2 -158.4 -102.8 -164.05 -104.1 -168.55 -104.1 -171.1 -104.1 -175.5 -99.9 -186.85 -95.7 -198.2 -93.4 -211.3 -91.15 -224.4 -89.95 -226.9 -88.8 -229.4 -87.4 -229.0 -86.0 -228.6 -87.25 -214.1 -88.55 -199.6 -92.8 -185.35 -101.7 -165.1 -90.2 -153.05 -73.75 -136.05 -52.8 -139.35 -67.3 -144.85 -67.95 -145.35 -70.3 -147.1 -70.3 -148.9 -70.3 -152.1 -65.75 -152.1 L-59.75 -150.9 -53.75 -149.7 -49.7 -150.3 -49.7 -151.0 -49.15 -150.35 -48.05 -150.55 -49.3 -151.45 -57.4 -157.05 -65.45 -165.05 Q-65.3 -166.85 -64.7 -167.3 L-64.15 -167.45 -63.75 -167.3 -63.6 -167.25 -63.55 -167.3 Q-51.25 -167.4 -48.9 -168.9 L-44.15 -173.35 -43.9 -173.85 -44.15 -173.8 Q-48.1 -173.35 -55.85 -179.35 -63.65 -185.4 -63.65 -188.45 -63.65 -189.45 -62.7 -190.45 -61.55 -191.65 -59.7 -191.65 -57.55 -191.65 -54.45 -188.75 L-48.45 -189.25 Q-57.1 -192.25 -61.05 -212.0 -63.1 -222.15 -63.5 -233.0 L-75.75 -232.6 Q-79.5 -232.6 -80.4 -234.15 -80.6 -234.45 -80.6 -235.95 -80.6 -238.15 -77.75 -240.05 L-55.25 -253.75 -53.55 -253.75 -51.7 -253.45 -51.65 -253.45 -51.6 -253.4 -50.55 -252.7 Q-49.95 -252.2 -49.95 -249.85 -49.95 -246.3 -56.4 -243.4 L-57.1 -242.7 -56.35 -242.75 Q-42.35 -244.5 -14.0 -257.55 -12.55 -257.55 -12.1 -257.2 L-11.0 -256.35 Q-10.55 -256.25 -10.55 -253.85 -10.55 -252.85 -11.45 -251.6 L-11.4 -251.15 -16.35 -243.65 -16.35 -243.2 -16.2 -243.25 Q-9.5 -245.3 3.45 -255.3 L15.4 -265.05 Q19.55 -265.05 19.45 -261.1 19.45 -259.4 10.6 -245.4 L-0.2 -228.55 -0.55 -228.0 -0.05 -228.2 Q8.5 -231.75 16.6 -239.0 L30.5 -251.95 Q32.35 -253.5 39.25 -264.4 45.65 -274.55 46.55 -274.55 51.65 -274.55 55.15 -260.85 58.05 -249.5 58.05 -238.65 L58.3 -238.45 Q61.8 -241.6 62.85 -245.6 L63.65 -253.75 Q63.8 -253.75 64.55 -254.2 65.3 -254.7 66.7 -254.7 71.6 -254.7 70.3 -247.95 L70.05 -245.2 75.9 -240.35 Q84.6 -233.3 87.6 -232.35 86.7 -234.15 84.9 -239.25 83.0 -244.55 83.0 -245.55 83.0 -249.1 87.0 -249.1 L91.15 -243.65 94.25 -242.2 Q98.65 -240.1 99.25 -240.1 97.95 -241.4 95.4 -244.7 92.35 -248.7 92.35 -249.7 92.35 -253.75 95.95 -253.75 L101.4 -249.5 Q102.1 -250.0 103.15 -250.3 94.3 -257.4 89.45 -269.1 L85.45 -278.6 Q82.85 -284.1 79.2 -288.4 61.1 -309.75 26.35 -314.0 L7.55 -315.6 M5.55 -323.45 Q63.35 -323.45 90.0 -287.45 91.9 -284.9 94.4 -277.25 96.85 -269.75 98.55 -267.65 101.65 -261.6 106.25 -257.8 111.65 -253.4 118.9 -252.15 L122.6 -251.35 Q123.95 -250.8 123.95 -249.25 123.95 -246.25 117.05 -243.9 113.4 -242.7 110.35 -242.25 L120.15 -234.25 Q120.15 -232.05 118.5 -231.4 L109.95 -230.7 Q104.25 -230.7 99.55 -232.0 L104.1 -225.6 Q104.1 -223.5 103.45 -222.8 102.2 -221.35 97.85 -221.35 L93.3 -221.55 Q94.95 -212.2 95.8 -208.6 100.65 -187.95 109.0 -187.95 113.15 -187.95 117.6 -191.85 122.05 -195.8 122.75 -197.05 123.45 -198.3 123.65 -198.3 L123.95 -194.25 Q123.95 -190.5 116.6 -180.5 125.45 -187.0 125.95 -187.0 130.15 -187.0 129.55 -181.55 129.55 -178.8 127.45 -173.9 124.8 -167.75 120.4 -162.6 L118.25 -160.25 Q118.15 -157.55 114.0 -153.35 109.6 -148.9 102.6 -144.85 86.6 -135.55 70.05 -134.8 68.45 -133.9 62.95 -132.5 L45.8 -131.9 Q34.15 -132.7 33.5 -135.0 L24.5 -132.4 Q4.95 -127.25 -12.15 -127.25 -26.8 -127.25 -40.25 -134.05 L-40.65 -133.9 -41.35 -134.2 Q-44.6 -131.9 -54.0 -131.9 -80.1 -131.9 -91.2 -140.85 L-92.65 -142.1 -94.25 -140.4 Q-95.6 -138.55 -97.35 -138.55 -103.5 -138.55 -110.9 -147.3 -118.35 -156.05 -121.55 -160.85 -124.8 -165.65 -124.8 -172.45 -124.8 -179.25 -121.05 -188.65 -118.95 -193.85 -112.55 -203.85 -106.35 -213.45 -103.6 -220.9 -99.25 -232.5 -98.4 -248.4 L-95.4 -262.5 Q-91.35 -276.7 -83.45 -288.0 -58.6 -323.45 -1.9 -323.45 L1.9 -323.3 5.55 -323.45 M47.0 -258.5 Q37.95 -247.65 22.5 -234.2 0.1 -214.7 -10.8 -214.7 -15.4 -214.7 -14.7 -218.7 -14.7 -222.3 1.5 -242.7 -4.95 -239.7 -11.4 -237.0 -24.1 -231.65 -27.15 -231.65 -30.6 -231.65 -31.5 -233.2 -31.7 -233.55 -31.7 -235.0 -31.7 -236.0 -27.5 -241.05 -40.05 -235.8 -55.65 -233.8 L-55.65 -230.7 Q-55.65 -220.85 -52.85 -211.25 -48.2 -195.45 -38.1 -195.45 -35.1 -195.45 -34.3 -193.4 -34.05 -192.75 -34.05 -191.05 -34.05 -187.7 -37.6 -185.15 -40.7 -182.9 -45.75 -182.15 -39.65 -179.75 -34.3 -178.85 L-31.8 -178.25 Q-31.2 -177.9 -31.2 -176.7 -31.2 -173.1 -40.1 -166.45 -45.5 -162.45 -50.45 -160.65 L-49.6 -159.95 Q-44.05 -156.65 -38.25 -155.25 L-35.75 -154.45 Q-35.0 -154.0 -35.0 -152.8 -35.0 -150.25 -40.4 -146.55 L-43.15 -144.85 Q-29.35 -135.0 -1.4 -135.0 9.35 -135.0 24.9 -139.55 39.95 -143.95 54.3 -150.95 69.25 -158.25 78.25 -165.9 88.1 -174.3 88.1 -181.0 88.1 -182.2 86.25 -186.45 L82.1 -195.95 Q76.1 -211.05 76.1 -224.15 L76.1 -227.4 Q73.5 -229.2 71.25 -231.45 68.8 -233.95 67.05 -236.7 L67.0 -236.7 Q62.25 -227.05 54.5 -227.05 51.55 -227.05 50.9 -232.6 50.6 -235.4 50.9 -238.45 50.9 -242.3 49.45 -248.55 L47.0 -258.5 M86.65 -222.7 L84.35 -223.35 84.25 -218.2 Q84.15 -212.5 84.6 -210.0 84.95 -208.15 90.4 -195.3 L94.3 -185.55 Q95.6 -182.05 95.6 -181.15 95.6 -172.7 85.35 -162.9 82.0 -159.7 72.0 -152.6 66.25 -148.95 59.35 -145.5 51.45 -141.5 43.05 -138.3 45.55 -137.6 56.4 -139.4 L57.5 -139.6 Q57.3 -144.6 61.15 -144.6 64.2 -144.6 67.7 -142.25 79.9 -142.25 91.75 -148.15 L87.0 -147.95 Q83.0 -147.95 83.0 -151.25 83.0 -151.5 87.1 -152.8 92.85 -154.6 97.05 -156.35 112.7 -163.0 119.9 -173.85 L120.4 -174.55 119.7 -174.25 112.6 -171.45 Q109.85 -169.55 106.75 -169.55 102.95 -169.55 102.05 -171.05 101.85 -171.4 101.85 -172.9 101.85 -174.95 103.0 -175.65 L109.6 -179.15 109.8 -179.65 Q86.65 -188.15 86.65 -220.85 L86.65 -222.7 M-88.7 -226.45 L-89.0 -224.9 Q-88.85 -223.8 -88.7 -226.45" fill="#000000" fill-rule="evenodd" stroke="none"/>
  </g>
</svg>
