<?xml version="1.0" encoding="UTF-8" standalone="no"?>
<svg xmlns:xlink="http://www.w3.org/1999/xlink" height="312.9px" width="281.45px" xmlns="http://www.w3.org/2000/svg">
  <g transform="matrix(1, 0, 0, 1, 156.55, 337.65)">
    <path d="M68.65 -304.05 Q58.6 -310.85 42.6 -314.15 25.0 -317.75 -3.15 -318.15 L-15.2 -317.3 -21.45 -316.65 -27.15 -315.95 -34.75 -314.7 Q-41.25 -313.5 -46.1 -311.75 -50.05 -310.35 -55.3 -306.9 -60.15 -303.7 -66.1 -298.7 -78.5 -288.35 -87.95 -270.0 -91.7 -262.75 -96.15 -243.85 -100.65 -224.65 -100.8 -214.15 L-100.8 -213.5 Q-100.8 -203.75 -97.4 -185.65 L-96.95 -183.3 Q-93.1 -163.55 -81.9 -150.8 L-78.35 -150.8 -74.3 -150.65 Q-71.05 -150.65 -68.3 -151.95 -68.0 -154.55 -66.95 -158.15 -65.55 -163.05 -65.55 -166.7 -65.55 -173.55 -67.45 -190.05 -69.35 -206.55 -69.35 -211.1 L-69.35 -214.2 -74.05 -228.45 Q-77.75 -239.6 -77.75 -249.45 -77.75 -254.45 -74.8 -263.5 L-73.75 -266.65 Q-69.75 -278.05 -65.0 -280.4 -63.75 -281.05 -62.45 -281.05 -60.2 -281.05 -59.15 -279.65 L-63.4 -272.0 Q-70.45 -258.7 -70.6 -251.8 -70.75 -244.9 -68.8 -237.9 -66.4 -230.15 -65.55 -226.3 L-65.05 -226.1 -65.0 -226.15 Q-60.05 -244.25 -53.9 -259.4 -45.55 -280.1 -40.35 -280.1 -37.65 -280.1 -37.0 -277.75 L-37.6 -274.45 Q-40.0 -261.05 -40.3 -254.7 -40.6 -248.35 -38.7 -240.35 -35.35 -246.75 -26.55 -267.4 -19.8 -281.65 -11.25 -286.75 -9.85 -286.75 -9.35 -286.35 L-8.15 -285.55 Q-7.7 -284.75 -7.7 -282.35 -13.3 -267.15 -13.3 -261.95 -13.3 -254.0 -8.75 -248.2 -5.0 -243.45 7.7 -233.55 12.55 -240.4 18.4 -266.75 19.5 -271.8 24.35 -290.5 32.65 -270.65 32.65 -239.4 38.0 -247.4 43.3 -264.05 47.8 -278.2 48.45 -278.2 52.95 -278.2 52.6 -271.8 L60.15 -262.75 Q74.45 -245.25 82.75 -235.7 L83.0 -237.6 Q83.0 -241.8 79.25 -250.25 75.5 -258.7 75.5 -263.0 75.5 -265.2 75.65 -265.75 76.35 -267.9 78.95 -267.9 96.9 -240.55 106.5 -232.35 103.95 -249.35 91.75 -267.65 L86.65 -276.1 82.25 -283.8 107.05 -277.6 Q94.5 -285.45 88.95 -290.35 83.35 -295.3 77.85 -298.45 72.3 -301.65 68.65 -304.05 M47.55 -321.1 Q64.2 -315.6 81.8 -303.05 85.55 -300.35 107.3 -286.15 124.9 -274.7 124.9 -273.8 124.9 -270.25 118.95 -270.25 107.75 -270.25 99.8 -271.6 103.5 -265.15 107.7 -256.1 112.1 -246.55 113.9 -240.05 115.65 -233.6 114.7 -223.55 113.7 -213.5 112.3 -213.35 111.65 -214.9 107.05 -219.85 L101.3 -226.15 100.8 -226.7 100.85 -225.8 Q101.75 -213.85 102.2 -192.1 102.2 -181.9 100.95 -172.4 98.5 -153.8 92.35 -153.5 91.2 -151.85 87.6 -150.45 83.5 -148.9 81.3 -148.9 75.0 -148.9 73.85 -153.9 L72.0 -152.6 Q66.25 -148.95 59.35 -145.5 42.95 -137.25 24.5 -132.4 4.95 -127.25 -12.15 -127.25 -30.35 -127.25 -46.75 -137.75 -50.65 -140.25 -60.6 -149.05 -61.5 -146.95 -66.25 -145.15 -71.15 -143.2 -74.3 -143.2 -78.35 -143.2 -80.6 -144.15 -87.95 -144.8 -94.7 -158.15 -97.3 -163.25 -99.45 -169.4 -107.55 -94.65 -119.85 -69.1 -132.2 -43.55 -141.35 -33.4 -150.55 -23.3 -140.7 -33.25 -147.15 -24.75 -150.95 -24.75 -154.3 -24.75 -155.15 -26.6 L-149.75 -37.95 Q-139.95 -58.7 -137.5 -69.75 -133.75 -86.8 -133.35 -90.0 -132.75 -94.45 -132.75 -107.15 -132.75 -124.05 -137.95 -157.9 -143.2 -191.75 -143.2 -208.7 -143.2 -215.3 -140.65 -231.0 -136.75 -255.1 -129.35 -275.1 -106.3 -337.65 -58.8 -337.65 -35.3 -337.65 -21.05 -327.6 L-18.05 -325.3 -15.15 -324.8 Q-11.7 -325.9 -0.95 -326.8 L5.1 -327.15 Q29.2 -327.15 47.55 -321.1 M49.85 -260.05 Q46.9 -250.75 43.2 -242.45 32.0 -217.55 20.65 -217.55 16.5 -217.55 17.1 -221.55 17.1 -222.65 21.4 -230.55 25.65 -239.85 25.65 -248.05 25.65 -251.85 24.75 -258.2 L23.55 -252.05 Q17.25 -222.3 7.0 -222.3 6.75 -222.3 -2.55 -231.25 L-14.0 -242.45 Q-20.0 -248.7 -20.35 -260.55 -26.15 -250.4 -27.65 -247.0 -28.85 -244.25 -34.65 -227.15 -39.25 -213.75 -40.35 -213.75 -44.15 -213.75 -45.5 -228.25 L-46.45 -240.75 Q-47.05 -248.05 -47.95 -251.75 -51.75 -242.95 -57.65 -222.15 L-61.55 -207.75 Q-59.85 -193.65 -58.5 -166.25 L-58.55 -163.65 Q-51.2 -152.75 -49.15 -150.35 -36.2 -135.0 -1.4 -135.0 9.35 -135.0 24.9 -139.55 39.95 -143.95 54.3 -150.95 69.25 -158.25 78.25 -165.9 88.1 -174.3 88.1 -181.0 88.1 -182.2 86.25 -186.45 L82.1 -195.95 Q76.1 -211.05 76.1 -224.15 L76.1 -231.65 Q71.85 -238.8 63.7 -246.3 52.9 -256.25 51.65 -257.7 L49.85 -260.05 M93.35 -235.65 L88.5 -244.6 Q92.5 -209.65 84.65 -217.15 L86.0 -206.0 90.4 -195.3 94.3 -185.55 94.7 -184.45 94.85 -185.5 95.2 -192.1 93.3 -228.2 93.35 -235.65 M85.35 -162.9 L80.4 -158.75 Q81.1 -156.85 81.8 -156.85 83.0 -156.85 85.3 -157.8 87.6 -158.7 88.75 -158.75 89.3 -161.55 91.75 -170.25 89.3 -166.7 85.35 -162.9 M-31.1 -325.0 Q-42.0 -330.2 -58.8 -330.2 -102.05 -330.2 -123.4 -269.55 -130.1 -250.55 -133.75 -227.75 L-136.1 -208.45 Q-136.1 -195.4 -130.9 -159.15 -125.75 -122.85 -125.75 -107.15 -125.75 -93.05 -129.5 -74.7 -130.8 -68.4 -133.55 -60.9 L-134.45 -58.45 -133.05 -60.7 Q-117.65 -85.75 -114.95 -111.8 -112.6 -127.05 -110.8 -143.0 L-104.85 -189.75 -106.0 -195.95 Q-107.9 -207.2 -107.9 -213.85 -107.9 -222.1 -106.0 -234.45 -102.75 -255.3 -95.45 -272.4 -76.05 -317.8 -34.2 -324.25 -32.3 -325.15 -31.1 -325.0 M-155.6 -31.85 L-156.55 -30.05 -156.55 -30.3 -155.6 -31.85" fill="#000000" fill-rule="evenodd" stroke="none"/>
  </g>
</svg>
