<?xml version="1.0" encoding="UTF-8" standalone="no"?>
<svg xmlns:xlink="http://www.w3.org/1999/xlink" height="195.4px" width="221.1px" xmlns="http://www.w3.org/2000/svg">
  <g transform="matrix(1, 0, 0, 1, 111.15, 321.5)">
    <path d="M53.5 -310.25 Q74.25 -299.45 87.55 -281.55 100.85 -263.7 104.7 -248.6 108.55 -233.5 105.85 -200.5 L105.85 -200.9 Q105.0 -193.0 105.0 -189.2 105.0 -185.25 107.5 -178.2 109.95 -171.15 109.95 -165.6 109.95 -157.15 103.5 -148.65 100.0 -144.05 99.05 -142.3 97.05 -138.6 97.05 -134.7 97.05 -133.0 98.35 -130.7 L99.05 -129.45 99.3 -129.15 99.3 -129.0 100.25 -127.25 Q89.0 -127.9 85.9 -132.4 83.95 -135.2 82.6 -138.3 L79.8 -134.8 Q74.3 -128.5 62.85 -126.1 L62.85 -135.55 62.8 -135.5 Q61.3 -134.35 50.05 -128.9 L51.1 -141.6 Q38.4 -136.05 24.5 -132.4 4.95 -127.25 -12.15 -127.25 -23.1 -127.25 -33.35 -131.05 L-34.0 -126.75 -38.1 -126.75 -48.55 -127.45 Q-58.45 -128.5 -65.55 -132.85 -71.3 -136.4 -78.7 -142.5 -77.25 -136.75 -77.1 -133.95 -99.3 -138.9 -106.95 -171.15 -111.15 -188.7 -111.15 -207.0 -111.15 -214.95 -106.8 -230.85 -101.1 -251.85 -91.35 -269.4 -64.25 -318.2 -14.95 -321.0 11.15 -322.55 28.4 -319.15 41.1 -316.7 53.5 -310.25 M63.55 -253.8 Q67.85 -245.9 91.05 -228.15 91.05 -226.45 90.85 -226.45 90.55 -226.45 90.45 -225.9 90.6 -225.3 87.6 -225.3 L84.4 -225.8 84.25 -218.2 Q84.15 -212.5 84.6 -210.0 84.95 -208.15 90.4 -195.3 L94.3 -185.55 Q95.6 -182.05 95.6 -181.15 95.6 -172.7 85.35 -162.9 82.0 -159.7 72.0 -152.6 66.25 -148.95 59.35 -145.5 L58.15 -144.9 58.2 -140.55 68.7 -143.5 68.7 -135.6 Q77.05 -141.75 82.25 -150.65 L86.2 -157.5 Q85.25 -155.8 86.1 -155.3 L86.65 -146.8 Q87.15 -139.65 91.35 -138.25 92.35 -144.3 97.6 -151.2 100.95 -155.65 102.05 -157.8 104.1 -161.65 104.0 -165.8 103.9 -170.0 100.95 -179.05 98.0 -188.2 99.2 -201.35 100.3 -214.5 101.15 -230.7 101.45 -236.4 96.55 -249.1 90.3 -265.3 79.75 -278.7 48.95 -317.95 -2.7 -314.45 L-20.0 -312.9 Q-36.1 -310.15 -49.75 -302.25 -91.55 -278.05 -103.1 -211.25 -106.2 -193.45 -98.35 -170.55 -95.2 -161.35 -91.25 -154.6 -87.35 -147.95 -84.4 -146.5 -84.9 -155.55 -85.35 -161.0 -83.2 -156.45 -72.3 -147.25 -61.4 -138.0 -53.2 -136.4 L-43.1 -134.6 -49.4 -138.6 Q-54.65 -143.5 -58.65 -149.85 -67.35 -163.6 -68.3 -206.1 L-72.3 -211.65 Q-75.5 -216.7 -76.95 -221.5 -81.4 -236.1 -69.6 -247.65 -74.25 -234.5 -72.0 -226.05 -71.2 -223.0 -69.2 -219.55 L-65.8 -213.85 Q-62.65 -219.7 -58.7 -228.1 -54.8 -236.5 -53.7 -260.05 -50.65 -257.8 -49.05 -255.1 -43.45 -245.7 -42.75 -230.5 -30.95 -244.75 -27.05 -251.0 -20.65 -261.25 -20.55 -273.75 L-16.95 -273.85 Q-13.35 -273.05 -5.85 -232.55 5.45 -246.25 7.7 -254.45 9.95 -262.7 9.95 -266.1 L9.65 -281.7 Q11.5 -281.0 17.15 -269.25 22.75 -257.55 32.55 -244.4 29.2 -267.4 29.75 -277.15 32.45 -272.9 37.75 -262.1 43.0 -251.3 58.2 -238.2 L58.2 -260.25 58.6 -261.0 Q59.2 -261.75 63.55 -253.8 M76.1 -230.85 L72.4 -234.45 Q68.0 -239.05 64.35 -244.35 L64.05 -244.35 Q63.35 -238.05 66.25 -229.1 55.35 -230.2 47.45 -237.25 39.45 -244.35 38.65 -248.65 L39.55 -229.6 Q20.6 -243.85 15.3 -259.85 12.75 -241.85 -10.15 -220.1 L-16.8 -257.7 Q-24.2 -237.5 -46.95 -218.75 L-48.8 -239.45 Q-49.85 -226.35 -63.1 -206.85 L-63.1 -205.5 -62.05 -184.8 Q-60.9 -165.0 -51.25 -153.1 L-49.15 -150.35 Q-36.2 -135.0 -1.4 -135.0 9.35 -135.0 24.9 -139.55 39.95 -143.95 54.3 -150.95 69.25 -158.25 78.25 -165.9 88.1 -174.3 88.1 -181.0 88.1 -182.2 86.25 -186.45 L82.1 -195.95 Q76.1 -211.05 76.1 -224.15 L76.1 -230.85 M-42.0 -137.0 L-42.0 -136.95 -41.85 -136.75 -41.4 -136.25 -41.3 -136.25 -41.85 -136.85 -42.0 -137.0 M-77.9 -144.35 L-78.3 -144.9 -78.4 -145.0 -78.35 -144.75 -77.9 -144.35" fill="#000000" fill-rule="evenodd" stroke="none"/>
  </g>
</svg>
