<?xml version="1.0" encoding="UTF-8" standalone="no"?>
<svg xmlns:xlink="http://www.w3.org/1999/xlink" height="195.5px" width="259.55px" xmlns="http://www.w3.org/2000/svg">
  <g transform="matrix(1, 0, 0, 1, 131.3, 322.75)">
    <path d="M57.75 -308.25 Q83.1 -296.2 96.1 -272.6 109.1 -249.05 106.4 -232.35 103.7 -215.7 105.0 -208.25 106.25 -200.8 108.5 -197.85 110.75 -194.95 119.55 -185.85 128.35 -176.7 128.25 -167.65 128.1 -158.65 122.3 -151.65 116.5 -144.65 105.95 -143.4 L101.2 -143.05 Q86.1 -134.0 70.9 -137.45 L68.7 -136.8 Q55.0 -133.1 41.95 -136.2 40.8 -136.45 40.55 -137.4 32.75 -134.55 24.5 -132.4 4.95 -127.25 -12.15 -127.25 -25.05 -127.25 -37.05 -132.5 -48.2 -128.2 -60.75 -131.9 -81.95 -123.55 -100.55 -135.0 -115.15 -135.3 -123.45 -142.35 -131.75 -149.4 -131.25 -159.5 -130.8 -169.65 -128.1 -175.65 -125.45 -181.65 -115.6 -191.05 -105.8 -200.45 -104.8 -210.1 -103.85 -219.8 -100.55 -236.75 -97.25 -253.7 -93.95 -263.15 -88.85 -277.85 -82.1 -287.45 -66.4 -309.8 -33.7 -318.55 -22.8 -321.45 -11.2 -322.5 -3.4 -323.2 14.5 -321.75 32.35 -320.3 57.75 -308.25 M70.65 -258.9 Q85.5 -251.6 86.6 -234.75 88.4 -236.75 89.95 -243.35 94.0 -230.65 84.35 -222.8 L84.25 -218.2 Q84.15 -212.5 84.6 -210.0 84.95 -208.15 90.4 -195.3 L94.3 -185.55 Q95.6 -182.05 95.6 -181.15 95.6 -172.7 85.35 -162.9 82.0 -159.7 72.0 -152.6 66.25 -148.95 59.35 -145.5 L50.35 -141.25 Q57.95 -140.45 80.25 -150.7 81.6 -145.05 76.85 -142.1 96.05 -145.95 106.65 -155.2 L111.35 -159.6 110.05 -153.2 Q126.35 -166.0 113.7 -179.1 101.05 -192.25 98.7 -204.05 96.35 -215.9 98.1 -225.45 99.85 -235.1 97.75 -246.45 95.6 -257.8 80.0 -279.2 64.4 -300.65 38.7 -308.35 12.95 -316.05 -25.45 -310.45 -63.9 -304.9 -78.95 -272.2 -94.05 -239.55 -94.5 -218.6 -94.95 -197.65 -109.15 -185.6 -123.4 -173.6 -121.25 -159.3 -119.15 -145.05 -106.65 -141.7 L-107.4 -149.0 Q-98.2 -141.3 -89.3 -138.45 -81.15 -135.9 -74.15 -135.85 -77.0 -139.1 -75.6 -142.55 -62.5 -138.75 -56.15 -138.45 L-47.05 -137.95 Q-50.6 -140.3 -58.6 -147.35 L-59.3 -146.7 Q-60.0 -146.05 -62.65 -145.9 -60.45 -161.25 -59.65 -172.05 -58.9 -182.15 -60.95 -190.2 L-54.85 -186.8 -54.7 -187.1 Q-56.1 -197.45 -56.9 -207.5 -57.5 -215.0 -56.75 -222.2 -63.95 -212.05 -63.9 -206.7 -81.15 -214.5 -81.35 -236.2 -81.45 -248.7 -76.1 -259.4 -69.65 -272.45 -56.7 -274.1 -67.1 -265.25 -71.75 -252.55 -76.4 -239.85 -74.25 -230.9 -72.1 -221.95 -68.25 -217.1 -65.65 -228.75 -44.15 -237.7 -38.05 -243.3 -33.55 -250.9 -29.0 -258.55 -26.7 -266.85 -26.2 -268.65 -24.7 -268.85 -19.55 -258.2 -27.8 -245.1 L-28.95 -243.35 Q-5.75 -252.05 0.2 -259.85 7.0 -268.75 7.8 -281.1 21.25 -269.25 21.6 -256.8 21.75 -252.3 20.8 -248.3 35.55 -256.55 52.3 -250.65 60.95 -247.6 64.4 -238.85 68.2 -242.35 69.65 -249.6 71.1 -256.85 70.65 -258.9 M11.95 -267.2 Q10.8 -258.5 -0.35 -248.35 -11.6 -238.2 -35.3 -232.25 -45.4 -229.75 -51.85 -225.8 -52.35 -218.25 -51.25 -203.35 -50.15 -188.45 -46.75 -179.2 -45.25 -175.25 -44.5 -172.55 -49.8 -172.2 -53.5 -175.0 L-53.5 -160.9 Q-53.5 -158.75 -53.85 -156.75 L-49.15 -150.35 Q-36.2 -135.0 -1.4 -135.0 9.35 -135.0 24.9 -139.55 39.95 -143.95 54.3 -150.95 69.25 -158.25 78.25 -165.9 88.1 -174.3 88.1 -181.0 88.1 -182.2 86.25 -186.45 L82.1 -195.95 Q76.1 -211.05 76.1 -224.15 L76.1 -247.05 Q74.2 -239.15 70.5 -235.1 66.75 -231.05 59.3 -229.55 55.45 -251.35 32.4 -243.5 L10.9 -236.2 12.6 -254.35 Q13.25 -261.0 11.95 -267.2" fill="#000000" fill-rule="evenodd" stroke="none"/>
  </g>
</svg>
