<?xml version="1.0" encoding="UTF-8" standalone="no"?>
<svg xmlns:xlink="http://www.w3.org/1999/xlink" height="310.7px" width="228.25px" xmlns="http://www.w3.org/2000/svg">
  <g transform="matrix(1, 0, 0, 1, 110.7, 322.5)">
    <path d="M31.1 -318.8 Q44.3 -315.75 52.05 -311.2 84.55 -292.1 95.95 -270.55 108.75 -246.3 113.7 -235.1 117.8 -225.8 117.55 -225.7 105.85 -231.05 102.15 -235.4 103.05 -233.95 104.1 -229.15 106.0 -220.8 105.55 -220.3 99.25 -222.35 95.7 -223.95 93.6 -207.55 100.5 -160.9 106.35 -121.15 95.25 -90.85 L95.35 -91.15 Q95.3 -75.5 94.9 -69.8 L94.2 -61.1 93.85 -56.45 Q92.65 -42.75 87.65 -25.35 L66.6 -19.95 64.8 -14.45 64.1 -12.95 Q56.8 -11.5 49.95 -11.85 L48.1 -11.95 41.65 -13.0 38.95 -13.7 36.8 -13.2 Q30.6 -12.25 22.1 -16.15 22.95 -22.1 23.4 -30.8 L23.65 -36.2 17.85 -12.35 Q-0.1 -11.3 -9.65 -16.1 L-32.2 -15.25 -35.3 -29.75 Q-35.2 -17.25 -34.9 -15.25 -45.2 -15.1 -55.85 -15.3 -56.4 -16.8 -57.65 -18.3 -69.2 -18.45 -80.55 -21.15 L-82.45 -31.2 Q-86.5 -30.4 -105.25 -35.65 -108.05 -44.25 -109.3 -54.9 -110.55 -65.55 -110.2 -75.4 -109.95 -82.0 -104.25 -120.75 L-103.55 -127.25 Q-102.7 -131.75 -102.55 -136.85 -102.25 -148.9 -105.95 -164.5 -113.05 -194.3 -109.55 -226.0 -106.05 -257.75 -92.3 -275.1 -78.6 -292.45 -72.75 -297.45 -66.35 -302.95 -60.3 -307.05 -36.25 -323.3 1.65 -322.45 17.0 -322.1 31.1 -318.8 M53.15 -255.3 L54.9 -268.95 55.35 -272.25 56.4 -268.45 Q62.95 -244.8 64.25 -238.4 L82.15 -234.1 82.35 -234.05 83.8 -233.7 Q91.9 -231.7 96.75 -230.05 96.55 -231.8 93.85 -239.15 91.0 -247.0 91.15 -248.25 91.35 -248.45 98.4 -246.05 101.0 -245.15 102.25 -244.5 99.6 -254.1 93.15 -263.95 52.25 -326.65 -26.45 -310.9 -41.35 -307.95 -55.4 -299.0 -71.55 -288.7 -87.25 -264.05 -103.0 -239.4 -102.75 -212.05 -102.55 -184.65 -99.25 -171.4 -95.95 -158.15 -94.8 -140.15 -94.45 -134.15 -95.3 -128.15 -97.75 -109.7 -99.85 -97.6 -102.0 -85.6 -102.6 -79.6 -103.2 -74.05 -102.7 -68.45 -102.05 -60.95 -100.7 -53.75 -99.65 -48.3 -98.2 -42.95 -95.0 -41.0 -91.15 -40.8 L-83.55 -39.9 Q-88.05 -89.85 -87.0 -90.0 -85.05 -86.65 -79.7 -57.5 -74.65 -30.3 -74.65 -28.55 -71.65 -26.4 -60.95 -26.6 -66.65 -55.15 -66.7 -59.4 L-66.45 -60.0 Q-63.3 -56.65 -57.95 -39.6 -52.65 -22.6 -52.3 -22.35 L-51.1 -22.0 Q-45.75 -20.55 -41.75 -22.05 -38.05 -54.2 -36.9 -70.55 -35.05 -62.6 -32.5 -49.6 -27.45 -24.2 -27.6 -22.95 L-20.9 -22.75 Q-16.2 -23.1 -14.7 -23.8 -1.95 -76.95 -1.15 -77.05 -0.3 -73.85 -4.1 -22.65 L-4.1 -21.75 Q1.45 -18.15 12.4 -18.25 L26.75 -68.9 Q30.25 -51.7 28.85 -21.45 L34.8 -20.95 Q38.55 -20.75 39.7 -21.7 43.35 -51.3 43.4 -68.7 46.9 -40.75 46.5 -21.75 51.4 -19.35 55.2 -19.9 L60.3 -20.9 Q63.4 -29.8 65.6 -39.1 L67.6 -49.0 69.75 -60.75 71.65 -70.8 Q71.95 -60.0 70.9 -31.15 L75.7 -30.65 82.0 -30.9 Q89.1 -47.1 88.05 -82.8 L70.9 -88.5 Q75.7 -101.95 75.95 -126.35 76.2 -149.7 76.05 -155.5 L72.0 -152.6 Q66.25 -148.95 59.35 -145.5 42.95 -137.25 24.5 -132.4 4.95 -127.25 -12.15 -127.25 -30.35 -127.25 -46.75 -137.75 -49.65 -139.6 -55.95 -145.0 -55.65 -116.3 -44.65 -98.3 L-37.75 -87.0 -37.05 -85.8 Q-37.5 -85.35 -38.85 -84.8 -41.85 -83.55 -49.25 -81.7 -60.5 -78.85 -63.8 -79.1 -72.4 -94.9 -77.75 -122.95 -83.1 -151.0 -83.05 -167.55 -83.05 -184.1 -77.65 -184.15 -78.0 -163.6 -73.9 -138.05 -69.8 -112.55 -64.8 -99.9 -59.85 -87.25 -58.55 -86.8 L-46.45 -88.5 Q-63.9 -114.35 -63.65 -149.75 L-63.55 -159.1 -63.75 -161.75 -63.5 -163.15 Q-63.25 -191.05 -62.45 -215.75 L-72.95 -208.15 Q-81.95 -201.7 -85.0 -202.05 -83.75 -206.45 -72.05 -215.7 -60.85 -224.55 -55.9 -225.9 L-51.4 -263.3 Q-47.95 -239.35 -48.45 -234.1 L-48.65 -232.1 -43.85 -232.95 -38.2 -233.85 -37.65 -239.75 Q-35.9 -259.2 -35.4 -262.25 L-34.7 -268.3 Q-29.55 -256.05 -27.55 -246.4 L-25.6 -237.3 -25.25 -235.95 Q-16.25 -233.85 -8.8 -238.3 L-8.75 -241.95 Q-8.65 -252.7 -7.7 -273.4 L-7.3 -283.45 Q-6.5 -280.95 -3.45 -267.3 L-2.25 -262.15 Q-0.1 -253.4 2.15 -247.4 L2.85 -245.7 6.5 -236.8 7.65 -236.65 Q12.3 -236.2 16.1 -236.7 19.95 -237.25 22.95 -238.85 L23.5 -248.75 Q25.2 -275.8 27.2 -279.05 34.1 -269.05 36.3 -234.55 L38.9 -234.3 Q45.2 -233.9 51.2 -235.05 51.8 -243.3 52.75 -251.55 L53.15 -255.3 M28.45 -231.35 L9.9 -230.35 9.3 -230.4 -0.2 -231.35 -0.65 -233.3 -1.3 -236.6 -3.8 -250.8 -3.85 -251.0 -3.8 -250.7 -3.1 -235.95 Q-3.0 -232.35 -3.2 -231.8 -14.4 -227.7 -26.9 -229.05 L-29.95 -229.45 Q-30.55 -230.35 -30.65 -231.25 L-31.0 -232.9 -31.9 -242.4 -32.15 -236.15 -32.4 -229.55 Q-36.35 -228.25 -39.6 -227.5 -45.8 -226.1 -49.4 -226.75 L-50.6 -220.05 Q-56.9 -217.85 -55.45 -218.05 -54.6 -190.55 -55.6 -159.35 L-49.15 -150.35 Q-36.2 -135.0 -1.4 -135.0 9.35 -135.0 24.9 -139.55 39.95 -143.95 54.3 -150.95 69.25 -158.25 78.25 -165.9 88.1 -174.3 88.1 -181.0 88.1 -182.2 86.25 -186.45 L82.1 -195.95 Q76.1 -211.05 76.1 -224.15 L76.1 -228.5 67.75 -230.15 60.5 -231.8 58.9 -232.2 60.45 -231.85 60.25 -233.5 Q59.75 -239.95 57.4 -250.95 L55.7 -228.95 Q44.75 -226.65 34.15 -227.55 L32.75 -227.7 30.3 -228.0 29.9 -228.15 29.15 -245.3 28.45 -231.35 M84.4 -226.55 L84.25 -218.2 Q84.15 -212.5 84.6 -210.0 84.95 -208.15 90.4 -195.3 L90.55 -194.9 90.55 -195.3 90.3 -197.65 Q88.15 -220.35 88.35 -225.5 L84.4 -226.55 M85.35 -162.9 L82.35 -160.3 82.35 -142.05 Q82.35 -106.65 78.85 -92.6 L84.7 -90.8 84.7 -90.9 84.7 -91.2 85.1 -90.7 88.5 -89.85 Q97.9 -117.2 95.2 -146.1 L92.75 -171.85 Q90.2 -167.5 85.35 -162.9" fill="#000000" fill-rule="evenodd" stroke="none"/>
  </g>
</svg>
