<?xml version="1.0" encoding="UTF-8" standalone="no"?>
<svg xmlns:xlink="http://www.w3.org/1999/xlink" height="295.05px" width="232.15px" xmlns="http://www.w3.org/2000/svg">
  <g transform="matrix(1, 0, 0, 1, 120.9, 325.45)">
    <path d="M52.95 -248.0 Q54.55 -255.65 54.1 -257.7 48.5 -248.8 38.55 -239.0 28.6 -229.2 17.0 -231.45 24.55 -234.8 24.95 -261.8 4.7 -235.55 4.0 -232.45 L-55.6 -222.4 Q-54.9 -227.1 -52.95 -232.3 -50.9 -237.8 -49.2 -243.6 L-48.8 -245.3 Q-54.8 -237.9 -57.8 -233.1 -60.8 -228.3 -60.85 -224.1 L-60.55 -211.25 Q-60.25 -202.55 -61.8 -186.6 -63.4 -170.7 -55.55 -159.25 -50.75 -152.25 -49.15 -150.35 -36.2 -135.0 -1.4 -135.0 9.35 -135.0 24.9 -139.55 39.95 -143.95 54.3 -150.95 69.25 -158.25 78.25 -165.9 87.2 -173.5 88.05 -179.7 L87.85 -182.35 86.25 -186.45 82.1 -195.95 Q76.1 -211.05 76.1 -224.15 L76.1 -232.75 Q76.2 -233.7 67.85 -236.0 58.7 -238.5 50.65 -239.15 51.5 -241.1 52.95 -248.0 M60.1 -263.3 Q62.15 -248.3 60.8 -246.3 76.25 -244.05 97.05 -237.95 96.5 -243.6 84.2 -268.85 L99.4 -265.9 77.55 -286.45 Q54.8 -307.65 22.6 -315.35 -9.45 -323.05 -32.05 -312.95 -68.05 -296.75 -86.3 -271.45 -105.7 -244.5 -106.5 -205.3 -106.65 -197.65 -104.8 -186.8 L-99.75 -163.25 Q-97.7 -153.95 -106.05 -120.35 -114.45 -86.8 -111.85 -77.7 -109.3 -68.65 -106.2 -64.95 -102.4 -76.95 -101.15 -77.05 -95.55 -66.7 -85.95 -56.0 -76.7 -45.65 -63.15 -41.55 L-62.9 -53.7 Q-46.05 -44.05 -40.45 -41.15 L-39.95 -44.25 -38.15 -52.2 Q-36.95 -50.35 -27.9 -45.1 -18.85 -39.9 -12.05 -38.15 -8.7 -45.95 -5.85 -50.95 L-2.9 -56.1 Q1.7 -50.3 3.9 -36.6 26.15 -39.55 36.0 -48.65 45.8 -57.75 51.5 -62.4 57.0 -49.8 55.6 -49.4 73.85 -53.5 81.8 -63.85 84.5 -67.4 85.6 -69.4 88.35 -66.4 88.75 -61.75 L88.8 -61.15 89.05 -61.55 Q94.15 -69.15 93.2 -81.25 92.2 -93.65 90.65 -103.0 86.8 -96.2 75.8 -93.45 83.05 -111.3 80.05 -123.85 77.0 -136.45 74.9 -143.05 72.75 -149.65 72.75 -153.1 L72.0 -152.6 Q66.25 -148.95 59.35 -145.5 42.95 -137.25 24.5 -132.4 4.95 -127.25 -12.15 -127.25 -27.75 -127.25 -42.0 -134.9 -40.45 -132.4 -40.1 -121.3 -39.6 -106.25 -51.4 -97.5 -63.15 -88.8 -70.0 -88.25 -58.6 -107.1 -72.55 -129.2 -86.5 -151.35 -88.9 -166.45 -91.35 -181.55 -84.8 -200.75 -83.9 -204.05 -85.25 -211.0 -86.6 -218.0 -86.75 -228.75 L-66.85 -231.0 Q-66.0 -236.0 -56.5 -246.45 -47.0 -256.95 -42.25 -260.05 -40.7 -256.85 -41.95 -246.75 -43.2 -236.65 -44.7 -233.3 L-1.0 -240.35 Q5.35 -246.95 15.2 -261.9 25.2 -277.15 25.85 -281.5 29.25 -278.7 31.45 -262.3 33.05 -250.7 32.25 -244.0 39.75 -248.35 49.85 -264.4 56.5 -275.05 56.75 -279.75 58.55 -274.45 60.1 -263.3 M110.45 -258.85 Q105.2 -256.6 98.75 -258.2 L100.45 -252.85 Q103.45 -240.6 104.75 -227.9 L104.4 -226.2 94.5 -229.65 Q95.9 -219.0 94.85 -208.3 92.9 -197.1 94.15 -185.95 L94.3 -185.55 Q95.6 -182.05 95.6 -181.15 95.6 -179.5 95.2 -177.8 97.9 -166.05 102.8 -147.8 107.65 -129.6 95.95 -111.5 100.7 -96.5 101.25 -77.15 101.75 -57.85 80.7 -45.75 L81.75 -55.9 Q79.45 -51.55 69.35 -46.1 59.25 -40.65 46.75 -39.7 L47.65 -47.65 Q39.35 -39.85 22.45 -33.8 10.1 -29.45 -2.7 -30.65 L-3.55 -42.65 Q-4.25 -39.85 -5.45 -36.0 -6.7 -32.2 -7.4 -31.05 -8.1 -29.95 -20.6 -33.35 -32.3 -36.55 -35.5 -39.1 L-35.2 -38.6 Q-34.75 -37.6 -35.0 -32.95 -37.85 -32.95 -45.2 -36.05 -51.3 -38.65 -56.85 -42.5 -56.6 -35.55 -54.45 -33.25 -64.5 -32.7 -82.4 -43.35 -100.35 -54.0 -100.55 -61.2 -101.3 -59.95 -101.75 -50.9 -121.0 -64.8 -120.9 -78.25 -120.65 -113.35 -109.55 -146.35 -106.6 -155.2 -109.35 -164.2 -121.0 -201.95 -109.55 -239.8 -92.6 -295.95 -35.35 -320.6 L-35.45 -320.55 Q-32.15 -321.9 -30.65 -322.15 L-17.65 -324.15 Q20.55 -329.8 52.75 -311.0 84.45 -292.45 109.85 -264.0 111.55 -262.1 111.15 -259.45 L110.45 -258.85 M88.85 -229.55 L83.0 -229.55 Q83.2 -229.35 83.2 -228.1 L83.25 -227.25 Q83.45 -218.5 84.55 -213.05 L85.1 -210.65 88.85 -210.65 88.85 -229.55 M88.6 -199.65 L88.6 -203.55 86.85 -203.35 87.0 -203.0 88.6 -199.65 M85.35 -162.9 L78.35 -157.2 86.4 -133.15 Q90.05 -122.2 86.55 -107.95 100.55 -128.1 95.8 -145.35 91.0 -162.65 89.9 -167.75 87.95 -165.35 85.35 -162.9 M-34.1 -321.45 Q-36.2 -321.75 -34.15 -321.55 L-34.1 -321.45 M-66.55 -208.4 L-68.05 -224.1 -79.55 -223.1 -77.2 -207.15 -77.05 -205.9 -77.05 -205.6 -66.5 -206.35 -66.45 -206.8 -66.55 -208.4 M-73.0 -198.0 L-77.45 -198.0 Q-79.25 -192.4 -81.15 -184.65 -83.05 -176.95 -79.15 -160.35 -75.3 -143.75 -64.3 -129.2 -53.35 -114.65 -57.8 -100.8 -41.05 -119.4 -54.1 -143.45 -55.8 -144.85 -58.7 -148.9 -62.75 -154.6 -65.5 -161.0 -73.75 -180.35 -67.0 -198.85 L-73.0 -198.0" fill="#000000" fill-rule="evenodd" stroke="none"/>
    <path d="M88.85 -229.55 L88.85 -210.65 85.1 -210.65 84.55 -213.05 Q83.45 -218.5 83.25 -227.25 L83.2 -228.1 Q83.2 -229.35 83.0 -229.55 L88.85 -229.55 M-77.2 -207.15 L-79.55 -223.1 -68.05 -224.1 -66.55 -208.4 -77.2 -207.15" fill="#ffffff" fill-rule="evenodd" stroke="none"/>
    <path d="M88.25 -213.05 L88.85 -213.05 M85.25 -213.05 L86.25 -213.05 M84.7 -227.25 L83.95 -227.25 M87.7 -227.25 L86.7 -227.25 M-77.7 -220.8 L-78.5 -220.7 M-74.7 -221.2 L-75.7 -221.1 M-71.7 -221.6 L-72.7 -221.5 M-68.7 -221.9 L-69.7 -221.8 M-68.25 -208.2 L-67.25 -208.3 M-71.2 -207.8 L-70.2 -207.9 M-74.2 -207.45 L-73.2 -207.55 M-77.2 -207.15 L-76.2 -207.25" fill="none" stroke="#ff0000" stroke-linecap="round" stroke-linejoin="round" stroke-width="2.0"/>
  </g>
</svg>
