<?xml version="1.0" encoding="UTF-8" standalone="no"?>
<svg xmlns:xlink="http://www.w3.org/1999/xlink" height="210.8px" width="196.75px" xmlns="http://www.w3.org/2000/svg">
  <g transform="matrix(1, 0, 0, 1, 101.15, 338.05)">
    <path d="M-71.8 -180.35 L-71.7 -180.45 -71.6 -179.75 -71.8 -180.35" fill="#fff1dd" fill-rule="evenodd" stroke="none"/>
    <path d="M13.05 -338.05 Q4.9 -332.15 -4.2 -321.4 L-4.65 -320.6 0.25 -321.3 9.65 -323.35 Q25.8 -326.4 44.55 -326.4 74.15 -326.45 82.8 -314.7 79.25 -315.75 64.15 -311.15 L54.8 -308.3 Q68.3 -303.45 77.95 -285.8 82.55 -277.4 85.55 -248.45 L81.9 -251.7 Q85.1 -242.5 84.4 -228.0 L84.25 -218.2 Q84.15 -212.5 84.6 -210.0 84.95 -208.15 90.4 -195.3 L94.3 -185.55 Q95.6 -182.05 95.6 -181.15 95.6 -172.7 85.35 -162.9 82.0 -159.7 72.0 -152.6 66.25 -148.95 59.35 -145.5 42.95 -137.25 24.5 -132.4 4.95 -127.25 -12.15 -127.25 -30.35 -127.25 -46.75 -137.75 -50.85 -140.35 -61.7 -150.1 L-61.75 -150.1 -62.25 -150.55 -63.1 -151.3 Q-63.1 -151.55 -62.75 -151.3 -68.8 -157.35 -71.45 -163.35 L-77.2 -176.15 Q-87.95 -196.8 -93.5 -214.25 -101.1 -238.3 -101.1 -262.7 L-101.15 -271.55 Q-100.65 -278.7 -97.65 -278.65 -97.1 -278.7 -90.25 -267.2 -89.0 -273.75 -82.75 -283.7 -76.5 -293.7 -64.95 -304.85 -53.4 -316.0 -32.65 -325.55 -11.9 -335.15 6.9 -338.05 L13.05 -338.05 M-71.7 -180.45 Q-73.9 -193.8 -73.85 -208.2 -73.8 -222.65 -59.45 -250.65 -45.15 -278.7 -12.45 -282.6 20.2 -286.55 38.6 -266.75 45.05 -259.8 48.8 -251.55 L50.6 -247.1 Q51.8 -249.45 51.8 -251.15 51.8 -255.5 40.1 -289.4 L40.15 -290.45 Q43.2 -288.55 49.25 -285.4 L51.95 -284.0 Q62.9 -278.25 69.3 -273.65 74.35 -270.05 76.55 -267.2 75.65 -275.0 73.55 -281.2 71.4 -287.45 66.55 -293.5 61.7 -299.6 39.3 -308.55 L40.65 -309.1 Q54.65 -314.75 61.65 -317.9 L64.35 -318.45 61.9 -318.8 54.25 -319.7 43.95 -320.6 Q19.7 -320.6 2.5 -316.05 -1.95 -314.9 -15.3 -314.2 L-15.3 -314.5 Q-15.3 -314.95 -12.8 -318.75 -10.1 -322.85 -9.45 -324.8 L-8.85 -325.35 -9.55 -325.1 Q-48.95 -312.7 -66.6 -294.15 -73.75 -286.6 -78.35 -277.05 -81.25 -271.15 -84.75 -257.15 L-85.05 -255.0 -85.4 -254.6 -87.6 -254.3 Q-89.9 -254.3 -92.0 -257.95 -94.75 -262.8 -95.25 -263.25 -95.25 -242.3 -82.9 -208.1 L-81.75 -204.95 Q-78.6 -196.4 -72.45 -181.55 L-71.9 -180.3 -71.8 -180.35 -71.6 -179.75 -71.7 -180.45 M58.25 -252.75 Q58.8 -247.35 57.15 -241.35 55.45 -235.35 50.7 -230.75 45.15 -247.4 42.45 -252.15 38.5 -258.95 31.85 -264.8 14.5 -280.1 -11.65 -275.25 -37.8 -270.45 -51.6 -247.95 -65.4 -225.45 -67.3 -210.05 L-68.05 -196.1 Q-68.05 -189.35 -65.95 -179.35 L-62.55 -163.85 Q-58.7 -158.7 -53.85 -154.4 L-49.15 -150.35 Q-36.2 -135.0 -1.4 -135.0 9.35 -135.0 24.9 -139.55 39.95 -143.95 54.3 -150.95 69.25 -158.25 78.25 -165.9 88.1 -174.3 88.1 -181.0 88.1 -182.2 86.25 -186.45 L82.1 -195.95 Q77.05 -208.6 76.25 -219.9 L76.15 -222.5 76.1 -224.15 76.1 -225.75 Q78.3 -230.55 75.8 -246.4 74.65 -253.6 70.8 -260.9 63.05 -266.95 56.75 -270.8 L54.05 -272.5 55.8 -266.05 Q57.7 -258.15 58.25 -252.75" fill="#000000" fill-rule="evenodd" stroke="none"/>
  </g>
</svg>
