<?xml version="1.0" encoding="UTF-8" standalone="no"?>
<svg xmlns:xlink="http://www.w3.org/1999/xlink" height="325.25px" width="234.75px" xmlns="http://www.w3.org/2000/svg">
  <g transform="matrix(1, 0, 0, 1, 114.2, 326.7)">
    <path d="M63.05 -267.1 Q62.5 -269.65 63.1 -271.85 L65.8 -266.25 Q77.1 -243.15 85.05 -233.35 90.9 -226.2 92.55 -225.4 L90.95 -224.9 Q87.4 -224.2 84.4 -226.25 L84.25 -218.2 Q84.15 -213.3 84.5 -210.75 L84.6 -210.0 Q84.95 -208.15 90.4 -195.3 L90.95 -194.0 90.9 -195.3 Q90.55 -201.25 91.35 -211.1 92.05 -220.4 93.15 -221.95 98.95 -213.65 104.4 -202.05 106.2 -209.15 102.15 -220.55 98.05 -232.0 97.3 -234.45 L105.55 -235.0 Q104.4 -236.5 91.25 -259.05 78.9 -280.25 75.75 -283.2 66.1 -292.2 61.65 -295.75 50.45 -304.65 38.75 -309.9 4.9 -325.2 -33.25 -310.9 -65.15 -298.95 -79.4 -273.85 -93.65 -248.8 -97.5 -236.4 -101.4 -224.0 -102.5 -193.8 -103.65 -163.65 -103.85 -148.05 -104.05 -132.45 -105.55 -94.05 -107.05 -55.7 -104.1 -57.95 -100.7 -61.05 -99.55 -63.65 -98.15 -52.1 -89.85 -39.3 -82.4 -27.9 -79.05 -26.7 L-79.4 -34.1 -79.2 -37.6 Q-68.6 -26.05 -58.55 -19.8 -48.25 -13.4 -35.85 -12.65 -35.85 -15.85 -28.25 -27.65 -26.35 -24.2 -15.7 -17.65 -5.75 -11.45 -1.1 -10.15 L0.3 -10.0 Q0.45 -11.7 2.1 -17.35 3.9 -23.45 4.7 -23.8 6.65 -23.75 11.0 -18.6 15.85 -12.85 16.75 -12.35 20.35 -21.15 21.8 -22.3 29.3 -12.4 34.4 -10.85 45.15 -13.8 52.55 -20.6 59.95 -27.45 63.5 -32.35 65.05 -31.95 67.5 -25.5 L67.65 -24.7 Q75.7 -28.9 80.0 -51.15 L82.3 -46.1 Q84.6 -40.7 85.2 -40.05 85.8 -39.4 86.45 -44.05 87.1 -48.75 87.2 -51.7 87.4 -58.5 84.6 -88.4 81.8 -118.5 82.3 -122.85 L75.5 -116.15 Q75.85 -119.7 74.9 -121.1 69.7 -115.25 60.6 -112.65 61.95 -116.95 62.3 -128.25 L62.55 -147.15 59.35 -145.5 Q42.95 -137.25 24.5 -132.4 4.95 -127.25 -12.15 -127.25 -30.35 -127.25 -46.75 -137.75 -49.5 -139.5 -55.2 -144.4 -53.25 -126.95 -49.0 -109.95 L-48.85 -109.6 Q-61.75 -114.0 -68.55 -124.65 -84.35 -129.45 -93.05 -150.3 -101.1 -169.6 -98.8 -192.1 -98.0 -199.75 -94.1 -204.1 -93.5 -182.65 -88.9 -164.7 -84.35 -146.75 -75.7 -137.85 -76.2 -140.0 -77.15 -151.05 -69.2 -134.75 -60.0 -127.65 -64.85 -148.2 -65.5 -171.75 -66.05 -191.7 -64.1 -210.75 L-72.9 -210.75 Q-62.0 -223.2 -55.5 -240.55 -49.55 -256.3 -45.85 -270.05 -40.1 -263.7 -40.4 -251.8 -40.6 -241.25 -43.6 -231.35 -44.1 -229.75 -44.1 -228.0 -32.9 -240.65 -25.05 -261.45 -20.55 -273.4 -19.3 -280.6 -16.6 -259.9 -22.05 -249.1 -27.5 -238.35 -31.6 -233.4 -25.5 -235.25 -10.65 -248.95 2.25 -260.9 4.35 -273.15 11.85 -263.45 14.45 -252.1 17.8 -259.35 17.3 -268.75 16.85 -278.15 13.55 -287.05 L13.4 -287.45 Q21.7 -279.85 25.9 -267.9 30.25 -255.55 39.5 -246.0 L39.85 -245.7 40.3 -245.35 40.2 -246.1 Q39.25 -251.7 38.65 -257.9 37.8 -265.95 35.1 -273.15 L34.8 -274.3 Q34.5 -275.95 35.5 -277.25 L46.05 -265.8 Q58.75 -252.15 67.15 -246.75 68.7 -245.75 71.15 -243.0 67.8 -251.3 66.0 -256.55 64.15 -261.7 63.05 -267.1 M5.9 -255.7 Q-4.75 -242.0 -19.5 -232.0 -29.0 -225.6 -37.5 -225.9 -45.05 -217.9 -53.7 -214.95 L-56.85 -214.6 Q-52.95 -221.15 -48.8 -238.25 -52.2 -229.3 -57.25 -220.25 -58.9 -217.35 -60.75 -215.15 -57.9 -191.5 -56.75 -163.95 L-56.6 -160.75 -49.15 -150.35 Q-36.2 -135.0 -1.4 -135.0 9.35 -135.0 24.9 -139.55 39.95 -143.95 54.3 -150.95 69.25 -158.25 78.25 -165.9 88.1 -174.3 88.1 -181.0 88.1 -182.2 86.25 -186.45 L82.1 -195.95 Q79.05 -203.6 77.55 -210.75 76.25 -217.0 76.15 -222.85 L76.1 -224.15 76.1 -231.85 60.8 -242.75 Q51.65 -249.35 46.35 -256.1 L47.25 -233.6 Q47.3 -231.6 46.75 -230.0 45.45 -230.05 36.05 -238.0 27.45 -245.25 22.6 -254.0 20.05 -241.75 4.55 -231.6 8.6 -237.5 6.15 -253.9 L5.9 -255.7 M107.6 -226.05 L107.6 -225.6 Q109.8 -218.3 111.2 -211.65 112.55 -205.05 112.5 -199.1 112.45 -193.2 103.2 -183.55 100.2 -196.45 98.05 -201.0 99.8 -185.6 98.35 -169.0 96.5 -147.85 88.2 -131.9 89.5 -109.4 92.25 -81.95 94.95 -54.5 93.2 -41.8 91.45 -29.1 83.3 -24.15 84.25 -27.05 80.5 -30.4 76.65 -20.35 63.5 -13.45 63.0 -19.4 61.4 -20.0 54.95 -10.2 32.9 -2.75 25.2 -6.95 24.35 -10.45 L24.1 -10.15 17.2 -1.85 7.65 -11.15 Q6.25 -7.55 6.15 -1.45 -1.6 -3.6 -9.9 -6.45 -17.45 -9.05 -27.0 -15.5 -30.55 -9.95 -30.0 -5.95 -53.0 -5.75 -71.05 -18.95 L-71.7 -19.45 -71.45 -12.95 Q-91.8 -22.55 -99.1 -35.85 -102.95 -42.85 -103.4 -46.3 L-106.45 -41.2 Q-113.65 -51.35 -114.15 -63.75 -114.4 -69.8 -113.45 -88.65 -111.15 -135.75 -112.0 -182.95 -112.25 -197.25 -108.15 -227.0 -106.75 -238.65 -100.65 -253.4 -94.25 -268.9 -85.0 -282.1 -76.35 -294.35 -67.0 -302.1 -60.45 -307.5 -49.8 -313.3 -32.25 -322.9 -21.7 -324.5 L-9.4 -326.5 Q38.05 -329.25 71.5 -297.9 84.7 -285.5 94.0 -270.4 96.2 -265.4 106.3 -246.7 111.75 -236.55 120.35 -228.3 L120.55 -227.65 Q113.7 -224.7 107.6 -226.05 M85.35 -162.9 Q82.0 -159.7 72.0 -152.6 L69.85 -151.3 69.95 -150.05 Q70.6 -138.15 70.3 -133.85 L70.0 -129.1 Q72.15 -130.75 81.15 -146.45 83.55 -142.2 82.95 -137.15 89.1 -152.1 90.4 -168.4 88.3 -165.7 85.35 -162.9" fill="#000000" fill-rule="evenodd" stroke="none"/>
  </g>
</svg>
