<?xml version="1.0" encoding="UTF-8" standalone="no"?>
<svg xmlns:xlink="http://www.w3.org/1999/xlink" height="196.95px" width="228.45px" xmlns="http://www.w3.org/2000/svg">
  <g transform="matrix(1, 0, 0, 1, 115.8, 324.2)">
    <path d="M38.2 -307.45 Q31.9 -309.05 24.6 -311.95 3.9 -320.2 -20.5 -314.55 -44.95 -308.9 -64.1 -291.05 -83.25 -273.2 -89.3 -245.95 -90.6 -240.05 -92.95 -235.0 -93.55 -236.1 -94.05 -241.65 -95.2 -240.15 -99.75 -228.55 -104.35 -217.0 -99.05 -207.3 -93.75 -197.65 -96.25 -192.85 -98.8 -188.1 -102.45 -181.8 -106.15 -175.55 -107.75 -168.35 -109.35 -161.2 -100.05 -157.9 -99.85 -152.35 -96.45 -148.0 -93.05 -143.65 -91.05 -143.4 -91.1 -147.1 -90.1 -149.55 L-86.1 -146.8 Q-82.6 -144.45 -74.8 -141.8 -77.2 -144.55 -78.2 -146.7 -78.4 -147.15 -76.6 -146.1 -73.45 -144.2 -70.95 -143.1 -60.8 -138.6 -51.1 -140.95 L-53.6 -143.0 -59.35 -147.95 Q-59.95 -146.7 -66.05 -142.9 -64.45 -156.65 -75.1 -173.2 -85.8 -189.8 -79.65 -203.55 L-76.2 -209.7 Q-77.25 -192.65 -70.0 -180.35 -62.8 -168.05 -60.0 -156.5 -49.75 -170.35 -58.45 -186.85 -69.45 -207.6 -54.5 -229.55 -55.95 -228.85 -59.05 -231.05 -62.15 -233.3 -61.75 -234.7 -46.85 -243.4 -38.0 -255.25 -33.6 -261.15 -31.75 -265.3 -26.25 -255.55 -37.25 -244.9 -44.7 -237.7 -53.75 -234.5 -39.9 -230.6 -28.8 -241.1 -25.55 -244.2 -22.15 -249.05 L-18.85 -253.55 Q-12.2 -240.85 -29.4 -232.3 L-29.45 -232.25 -29.4 -232.25 Q-12.2 -234.0 -2.75 -247.4 -0.1 -251.15 5.85 -261.6 L5.85 -261.8 Q12.5 -249.5 -2.55 -237.3 L-3.1 -236.85 -2.45 -237.15 Q8.5 -242.65 12.95 -254.4 13.75 -256.55 15.0 -263.2 16.1 -268.8 16.45 -268.85 22.75 -262.6 21.5 -255.0 24.5 -256.9 27.1 -263.85 L29.5 -270.3 37.85 -259.05 Q46.0 -247.8 46.45 -247.95 46.1 -250.3 48.95 -259.55 51.8 -268.75 52.9 -268.85 56.55 -261.55 61.2 -255.75 69.9 -244.95 87.6 -235.0 L83.9 -234.4 84.1 -232.6 Q84.4 -227.45 84.25 -218.2 84.15 -212.5 84.6 -210.0 84.95 -208.15 90.4 -195.3 L94.3 -185.55 Q95.6 -182.05 95.6 -181.15 95.6 -172.8 85.6 -163.15 88.65 -154.6 88.8 -154.7 100.15 -161.6 101.65 -173.15 102.9 -183.15 97.05 -190.4 86.0 -204.0 93.85 -218.15 94.45 -219.2 95.25 -219.4 95.1 -212.65 97.05 -205.7 100.1 -210.15 99.6 -220.5 L98.8 -230.0 Q105.7 -224.95 104.8 -212.05 109.1 -218.9 103.35 -228.85 L93.55 -244.7 Q91.95 -248.15 91.15 -258.0 89.5 -266.9 83.1 -275.4 76.65 -283.9 68.6 -293.2 60.5 -302.5 34.85 -312.3 L38.2 -307.45 M25.65 -320.55 L25.85 -320.6 Q46.2 -318.6 62.65 -307.6 71.7 -301.55 81.6 -290.65 93.2 -277.9 96.95 -267.55 99.9 -259.5 100.45 -249.4 110.7 -237.8 112.3 -224.2 113.85 -210.65 108.15 -204.5 102.4 -198.4 99.9 -197.65 101.2 -194.8 105.45 -187.4 113.7 -173.15 106.25 -161.65 103.9 -158.0 99.85 -154.55 L95.45 -151.0 Q90.0 -145.3 95.85 -140.0 88.9 -141.9 83.55 -149.55 L83.05 -150.3 Q81.35 -148.05 78.8 -145.8 70.0 -138.0 58.7 -136.4 57.6 -136.25 56.95 -135.6 L57.3 -137.65 56.4 -137.35 Q46.6 -133.8 36.45 -132.8 34.1 -132.55 33.55 -134.7 L34.0 -135.15 32.0 -134.55 Q28.3 -133.4 24.5 -132.4 10.4 -128.7 -2.4 -127.65 L-12.15 -127.25 Q-20.7 -127.25 -28.9 -129.55 L-33.4 -131.05 Q-38.75 -133.05 -43.95 -136.05 L-43.3 -135.65 Q-54.15 -131.1 -66.2 -136.0 -73.5 -132.0 -85.3 -139.45 L-84.15 -134.85 Q-98.45 -136.4 -102.8 -141.8 -107.65 -147.75 -107.95 -152.7 -118.95 -155.8 -114.55 -172.9 -111.1 -186.25 -104.05 -198.5 L-103.85 -198.85 Q-111.5 -209.55 -109.15 -222.85 -106.25 -239.45 -96.05 -252.85 -94.8 -262.1 -81.85 -282.4 -68.55 -303.35 -49.9 -313.2 -28.85 -324.35 -1.5 -324.2 7.95 -324.2 16.55 -322.8 23.35 -321.65 25.65 -320.55 M55.05 -253.45 Q50.9 -243.8 54.95 -234.4 42.05 -239.1 31.85 -251.45 L30.0 -253.9 Q27.25 -248.95 21.05 -246.9 L18.35 -247.05 18.2 -246.9 Q13.15 -238.7 3.1 -234.6 -0.4 -233.15 -3.5 -232.65 -6.25 -232.2 -6.45 -232.65 -12.0 -228.8 -18.85 -228.2 L-32.95 -228.85 Q-34.6 -229.05 -35.3 -229.95 -41.85 -227.95 -48.55 -228.55 -54.5 -216.2 -55.0 -204.7 -55.4 -196.0 -53.25 -192.9 -39.6 -173.1 -53.15 -155.75 L-49.15 -150.35 -47.1 -148.15 -45.05 -146.3 Q-43.4 -145.0 -41.55 -143.8 -36.6 -140.65 -30.05 -138.6 L-28.9 -138.25 -25.05 -137.3 Q-15.25 -135.1 -2.4 -135.0 L-1.4 -135.0 Q9.35 -135.0 24.9 -139.55 L32.0 -141.75 Q43.35 -145.6 54.3 -150.95 L55.25 -151.4 Q69.55 -158.5 78.25 -165.9 88.1 -174.3 88.1 -181.0 88.1 -182.2 86.25 -186.45 L82.1 -195.95 Q76.1 -211.05 76.1 -224.15 L76.1 -233.65 Q64.9 -236.25 56.25 -251.2 L55.05 -253.45 M76.8 -156.05 L72.0 -152.6 66.65 -149.4 66.75 -145.9 Q73.8 -149.15 77.0 -155.75 L77.4 -156.5 76.8 -156.05" fill="#000000" fill-rule="evenodd" stroke="none"/>
  </g>
</svg>
