<?xml version="1.0" encoding="UTF-8" standalone="no"?>
<svg xmlns:xlink="http://www.w3.org/1999/xlink" height="227.5px" width="179.65px" xmlns="http://www.w3.org/2000/svg">
  <g transform="matrix(1, 0, 0, 1, 84.05, 354.75)">
    <path d="M11.8 -354.75 Q18.55 -342.1 19.55 -325.95 L20.7 -303.8 21.45 -303.65 Q26.45 -313.75 32.95 -324.85 40.4 -337.45 56.45 -353.1 61.9 -341.0 53.6 -303.4 L50.8 -291.45 Q59.85 -285.1 67.5 -275.9 75.95 -265.7 81.1 -253.7 85.2 -244.1 84.4 -228.0 L84.25 -218.2 Q84.15 -212.5 84.6 -210.0 84.95 -208.15 90.4 -195.3 L94.3 -185.55 Q95.6 -182.05 95.6 -181.15 95.6 -172.7 85.35 -162.9 82.0 -159.7 72.0 -152.6 66.25 -148.95 59.35 -145.5 42.95 -137.25 24.5 -132.4 4.95 -127.25 -12.15 -127.25 -30.35 -127.25 -46.75 -137.75 -50.85 -140.35 -61.7 -150.1 L-61.75 -150.1 -62.25 -150.55 -63.1 -151.3 Q-63.1 -151.55 -62.75 -151.3 -68.8 -157.35 -71.45 -163.35 L-78.15 -178.2 Q-79.1 -180.3 -81.0 -190.7 -82.95 -201.25 -82.95 -204.75 -82.95 -214.4 -81.25 -225.4 -78.9 -240.55 -73.75 -253.3 -77.9 -254.9 -79.75 -259.3 L-81.55 -263.1 -81.7 -263.85 -81.7 -265.65 -77.9 -267.75 Q-74.15 -269.75 -72.6 -270.35 L-73.05 -271.05 Q-74.65 -272.7 -75.25 -274.75 -75.8 -276.65 -80.05 -283.15 -84.05 -289.25 -84.05 -289.75 L-84.05 -290.65 -83.15 -291.45 -82.25 -292.0 -81.15 -292.4 Q-74.5 -294.3 -68.2 -294.75 L-51.8 -295.35 -47.4 -295.2 Q-48.45 -299.7 -49.8 -304.05 -52.25 -312.05 -51.9 -320.95 -51.75 -324.9 -50.25 -328.0 -44.15 -327.85 -39.3 -322.0 L-30.0 -310.55 Q-29.7 -310.2 -29.1 -310.05 L-26.15 -324.05 -24.1 -336.6 Q-22.6 -345.1 -21.15 -345.35 -12.5 -338.7 -8.8 -326.85 L-3.1 -308.15 Q-2.2 -316.95 1.0 -328.5 5.1 -343.3 11.7 -354.5 L11.8 -354.75 M11.2 -336.5 Q9.25 -331.95 5.4 -319.2 2.5 -309.65 0.3 -305.2 -0.45 -303.7 -1.1 -302.8 -1.95 -301.6 -3.5 -301.8 L-3.5 -302.4 Q-4.65 -302.55 -6.2 -304.8 -8.7 -308.3 -12.25 -317.0 L-18.2 -331.5 Q-19.1 -328.55 -20.6 -319.5 -22.2 -310.05 -22.25 -306.8 -22.3 -304.05 -23.25 -301.7 L-24.1 -300.05 Q-25.0 -300.0 -26.35 -300.75 -29.5 -302.45 -35.05 -308.25 L-44.95 -319.45 Q-45.5 -316.75 -43.3 -307.55 -41.2 -299.0 -39.55 -295.55 L-39.3 -295.05 -38.9 -293.9 Q-32.6 -294.3 -26.9 -294.0 -6.35 -292.95 6.9 -283.15 23.8 -270.6 29.4 -253.95 37.4 -271.75 42.55 -290.35 L43.95 -295.65 Q49.65 -318.15 51.2 -341.8 48.85 -335.65 34.15 -313.45 L26.85 -302.45 23.15 -297.0 Q19.5 -291.85 18.85 -291.5 18.45 -292.3 17.4 -297.95 L16.25 -304.5 12.9 -325.85 Q8.0 -358.3 11.2 -336.5 M49.4 -286.0 Q43.3 -262.95 37.65 -254.35 30.0 -242.85 23.3 -252.5 16.55 -262.2 10.25 -268.5 -8.0 -286.8 -28.5 -286.0 -39.4 -285.65 -48.7 -278.0 -58.0 -270.35 -63.75 -259.4 -64.95 -257.15 -66.65 -256.1 L-67.4 -254.45 Q-73.7 -240.15 -75.95 -222.65 -77.25 -212.6 -76.95 -205.5 -75.9 -181.8 -62.95 -164.4 -58.95 -158.95 -53.85 -154.4 L-49.15 -150.35 Q-36.2 -135.0 -1.4 -135.0 9.35 -135.0 24.9 -139.55 39.95 -143.95 54.3 -150.95 69.25 -158.25 78.25 -165.9 88.1 -174.3 88.1 -181.0 88.1 -182.2 86.25 -186.45 L82.1 -195.95 Q77.05 -208.6 76.25 -219.9 L76.15 -222.5 76.1 -224.15 76.1 -225.75 Q78.3 -230.55 75.8 -246.4 73.15 -263.35 55.2 -281.05 L49.4 -286.0 M-48.8 -288.35 L-49.15 -288.35 Q-63.55 -288.85 -74.95 -286.2 L-74.05 -285.35 Q-72.7 -284.15 -72.0 -282.55 -69.75 -277.7 -65.7 -274.45 L-64.35 -273.25 Q-59.15 -279.75 -52.9 -285.05 L-48.8 -288.35 M-73.5 -261.8 L-73.1 -261.0 -72.3 -260.05 -71.65 -259.65 -71.15 -259.45 Q-70.95 -261.5 -70.25 -263.55 L-73.35 -262.3 -73.5 -261.8" fill="#000000" fill-rule="evenodd" stroke="none"/>
  </g>
</svg>
