<?xml version="1.0" encoding="UTF-8" standalone="no"?>
<svg xmlns:xlink="http://www.w3.org/1999/xlink" height="202.0px" width="220.35px" xmlns="http://www.w3.org/2000/svg">
  <g transform="matrix(1, 0, 0, 1, 111.3, 326.75)">
    <path d="M73.65 -252.35 Q79.3 -238.7 85.25 -234.4 84.35 -229.95 84.4 -228.0 L84.25 -218.2 Q84.15 -212.5 84.6 -210.0 L85.55 -207.2 90.4 -195.3 94.3 -185.55 Q95.6 -182.05 95.6 -181.15 95.6 -176.25 92.15 -170.85 L90.45 -159.3 Q88.95 -149.5 85.7 -136.8 93.35 -143.3 97.0 -166.05 100.6 -188.85 97.0 -205.2 93.4 -221.6 92.55 -226.35 L91.7 -231.2 Q95.0 -229.25 100.25 -226.2 100.45 -230.2 94.0 -245.1 88.4 -258.1 84.35 -264.95 L91.95 -263.9 Q87.2 -281.05 72.35 -292.65 25.9 -329.15 -26.5 -314.55 -65.8 -303.55 -87.7 -265.35 -97.1 -248.95 -100.75 -230.55 -104.4 -212.2 -101.8 -186.15 -99.2 -160.15 -76.0 -138.8 -83.45 -164.5 -84.7 -176.35 -85.95 -188.2 -85.25 -188.75 -82.4 -178.4 -76.85 -164.65 -67.25 -140.9 -60.0 -135.9 -74.4 -172.25 -72.95 -188.85 -62.1 -154.0 -49.6 -142.2 L-54.55 -155.0 Q-58.15 -164.6 -60.0 -181.15 L-62.85 -206.05 Q-67.25 -211.35 -72.4 -221.75 -76.9 -230.8 -73.5 -237.8 L-72.85 -235.1 Q-70.35 -225.15 -59.8 -215.0 -60.95 -217.8 -54.65 -233.1 -48.4 -248.4 -47.15 -256.75 -46.6 -260.5 -45.8 -262.6 -44.05 -260.3 -41.75 -251.8 -39.5 -243.3 -40.6 -240.9 -32.4 -249.8 -28.8 -262.35 -25.5 -274.1 -23.05 -285.65 L-22.95 -285.85 -18.55 -270.15 Q-15.15 -257.55 -10.7 -251.0 L-5.6 -243.85 Q-1.65 -252.3 -0.25 -264.1 0.95 -274.8 -1.05 -282.2 7.45 -275.9 14.75 -264.55 20.4 -255.9 26.45 -247.35 29.1 -255.55 32.1 -270.0 L34.3 -282.15 Q45.5 -266.2 47.65 -257.6 L50.55 -246.1 51.45 -242.35 Q55.75 -248.9 57.7 -257.15 59.6 -265.2 60.1 -273.0 67.95 -266.05 73.65 -252.35 M23.45 -238.1 L5.3 -264.4 Q5.35 -256.35 2.5 -247.0 -0.4 -237.7 0.7 -227.8 -11.15 -234.8 -16.6 -244.95 -22.1 -255.15 -22.35 -262.95 -26.0 -249.3 -32.45 -239.6 -38.9 -229.9 -47.8 -225.2 -46.45 -231.3 -46.45 -233.55 L-46.45 -234.4 Q-51.05 -229.35 -53.55 -213.15 L-55.05 -202.15 -55.3 -202.05 -55.8 -202.35 Q-54.25 -187.35 -51.25 -172.9 -48.3 -158.5 -44.15 -145.6 L-41.55 -143.8 Q-36.6 -140.65 -30.05 -138.6 L-28.9 -138.25 -25.05 -137.3 Q-15.25 -135.1 -2.4 -135.0 L-1.4 -135.0 -0.05 -135.0 Q6.25 -135.2 14.05 -136.8 19.15 -137.85 24.9 -139.55 L32.0 -141.75 Q42.0 -145.15 51.7 -149.7 L54.3 -150.95 55.25 -151.4 Q69.55 -158.5 78.25 -165.9 83.1 -170.05 85.55 -173.75 88.1 -177.6 88.1 -181.0 88.1 -182.2 86.25 -186.45 L82.1 -195.95 Q79.8 -201.7 78.4 -207.2 76.1 -216.05 76.1 -224.15 L76.1 -232.75 Q72.05 -238.85 68.8 -244.5 65.75 -249.8 63.8 -255.6 62.5 -247.7 58.0 -239.25 53.45 -230.8 44.65 -226.85 47.1 -234.8 45.0 -242.7 42.9 -250.65 38.0 -261.9 35.4 -244.4 26.4 -233.3 25.6 -235.0 23.45 -238.1 M104.5 -251.35 L97.0 -256.35 97.75 -255.8 101.2 -248.4 Q103.35 -242.7 105.15 -234.9 106.3 -229.9 109.05 -213.65 102.8 -214.25 101.7 -216.2 108.6 -194.2 104.3 -165.15 100.0 -136.1 78.45 -127.25 79.8 -132.4 79.3 -135.4 76.25 -131.1 68.7 -126.85 L68.8 -135.25 Q63.6 -130.4 55.8 -125.7 54.7 -139.15 54.85 -143.3 L51.7 -141.85 Q42.2 -137.65 32.0 -134.55 28.3 -133.4 24.5 -132.4 L14.05 -129.95 -0.05 -127.85 -2.4 -127.65 -12.15 -127.25 Q-20.7 -127.25 -28.9 -129.55 L-33.4 -131.05 Q-37.05 -132.4 -40.55 -134.2 L-40.05 -132.7 -39.9 -132.0 -37.95 -124.75 Q-44.95 -127.15 -54.55 -137.95 -53.4 -129.1 -52.4 -125.1 -59.25 -126.0 -70.35 -139.0 L-66.2 -126.4 Q-71.9 -127.25 -76.55 -130.75 -115.5 -161.85 -110.8 -217.9 -104.5 -293.4 -32.9 -321.45 -29.65 -322.75 -10.6 -326.5 L-14.0 -325.6 -12.4 -326.0 -10.6 -326.5 Q27.85 -328.7 59.5 -309.6 91.65 -290.25 104.5 -251.35 M84.75 -162.3 L76.8 -155.05 76.65 -153.55 75.25 -140.9 Q81.35 -147.3 82.55 -152.5 L84.75 -162.3 M61.2 -140.15 L61.2 -139.0 Q67.15 -143.7 68.45 -150.15 L61.2 -146.4 61.2 -140.15" fill="#000000" fill-rule="evenodd" stroke="none"/>
  </g>
</svg>
