<?xml version="1.0" encoding="UTF-8" standalone="no"?>
<svg xmlns:xlink="http://www.w3.org/1999/xlink" height="288.7px" width="262.25px" xmlns="http://www.w3.org/2000/svg">
  <g transform="matrix(1, 0, 0, 1, 126.95, 323.0)">
    <path d="M62.25 -308.25 Q86.05 -295.35 97.35 -272.65 107.0 -253.15 109.6 -225.9 L101.45 -226.85 Q109.5 -200.7 102.35 -170.85 101.2 -166.2 99.45 -161.75 103.1 -153.35 101.25 -144.25 108.9 -135.25 110.3 -125.4 111.6 -115.75 108.95 -109.8 L109.05 -109.7 Q117.6 -101.9 113.9 -91.95 L112.6 -88.85 113.05 -88.6 Q127.6 -78.85 124.75 -59.8 122.65 -46.15 131.05 -37.0 L131.2 -36.65 131.1 -36.3 130.9 -36.05 130.85 -36.0 Q112.95 -29.45 99.15 -47.8 83.85 -40.0 60.3 -42.55 55.7 -55.1 53.95 -61.2 53.6 -55.25 53.6 -52.7 L53.4 -44.75 53.1 -43.0 Q34.7 -38.85 14.4 -38.45 12.1 -47.9 11.05 -53.1 L10.9 -53.9 10.45 -52.9 Q5.4 -40.55 3.75 -37.1 L-5.7 -59.35 Q-6.9 -53.25 -8.65 -39.7 -33.5 -36.05 -51.65 -38.15 L-57.0 -51.9 -57.05 -38.3 Q-76.8 -40.3 -92.45 -47.75 -106.25 -29.5 -124.15 -36.0 L-124.15 -36.05 -124.4 -36.3 -124.5 -36.65 -124.35 -37.0 Q-115.95 -46.15 -118.05 -59.8 -120.9 -78.85 -106.35 -88.6 L-105.9 -88.85 -107.15 -91.95 Q-110.9 -101.9 -102.35 -109.7 L-102.25 -109.8 Q-104.9 -115.75 -103.55 -125.4 -103.15 -128.4 -102.15 -131.3 L-103.0 -143.7 Q-106.3 -191.5 -105.85 -208.35 L-105.55 -217.7 -105.45 -220.35 Q-105.05 -227.55 -104.55 -230.85 -103.55 -238.15 -101.65 -245.3 -93.55 -275.75 -69.4 -300.3 -57.6 -312.3 -36.0 -318.35 -15.8 -324.05 6.1 -322.8 38.95 -320.9 62.25 -308.25 M54.85 -276.3 Q60.35 -264.35 68.85 -254.55 77.9 -244.1 81.85 -241.1 L85.85 -238.0 97.65 -235.9 102.35 -234.9 Q102.4 -236.0 99.05 -246.85 94.75 -260.75 87.3 -272.75 63.85 -310.35 20.35 -312.4 L-1.6 -313.2 Q-13.35 -313.25 -21.95 -311.65 -79.4 -301.1 -92.9 -240.85 L-93.65 -237.4 Q-99.6 -207.8 -90.2 -181.15 -88.6 -176.55 -86.25 -171.7 L-82.7 -164.9 -81.15 -162.2 -74.8 -152.35 Q-70.95 -146.85 -64.15 -141.3 L-61.15 -138.95 -54.9 -134.65 Q-51.1 -132.15 -46.7 -129.7 -51.7 -137.8 -56.25 -165.95 -60.75 -194.1 -60.5 -205.2 -60.3 -216.35 -60.85 -218.45 -80.95 -215.75 -80.0 -219.55 -73.25 -222.45 -54.95 -227.05 -53.7 -230.0 -49.5 -241.95 L-45.8 -252.6 Q-38.45 -272.9 -35.25 -277.05 -33.2 -274.2 -32.0 -257.2 L-31.15 -240.3 Q-29.15 -243.7 -20.6 -262.2 -12.05 -279.7 -8.2 -282.95 -5.95 -279.55 -5.85 -259.3 -6.15 -239.6 -5.85 -239.1 10.75 -240.6 27.35 -244.4 30.05 -272.25 34.65 -283.0 L37.95 -268.35 Q41.7 -251.1 44.15 -247.65 L45.0 -246.45 52.15 -268.1 54.85 -276.3 M11.0 -231.6 L-7.7 -230.15 -9.7 -230.1 -14.4 -230.0 -14.2 -237.1 Q-13.75 -252.15 -13.25 -258.1 L-17.3 -250.15 Q-20.65 -243.8 -24.15 -238.75 -31.4 -228.4 -39.35 -223.55 L-39.35 -224.85 -39.35 -225.0 -39.35 -225.25 -39.35 -225.45 -39.35 -225.65 -39.35 -225.85 -39.35 -226.0 -39.3 -235.05 -39.35 -238.15 -39.35 -240.85 -39.55 -246.65 -39.6 -247.25 -39.65 -247.05 -40.7 -243.6 -41.45 -241.1 -46.05 -226.0 -46.1 -225.8 -47.35 -221.75 -52.45 -221.05 Q-52.0 -198.6 -49.95 -178.95 -47.9 -159.3 -43.6 -145.2 L-41.55 -143.8 Q-36.6 -140.65 -30.05 -138.6 L-28.9 -138.25 -25.05 -137.3 Q-15.25 -135.1 -2.4 -135.0 L-1.4 -135.0 -0.05 -135.0 Q6.25 -135.2 14.05 -136.8 19.15 -137.85 24.9 -139.55 L32.0 -141.75 Q42.0 -145.15 51.7 -149.7 L54.3 -150.95 55.25 -151.4 Q69.55 -158.5 78.25 -165.9 L81.15 -168.5 81.8 -169.15 84.3 -172.0 84.65 -172.45 85.55 -173.75 87.0 -176.25 87.95 -179.15 88.05 -179.9 88.1 -180.75 88.1 -181.0 Q88.1 -182.2 86.25 -186.45 L82.1 -195.95 Q79.8 -201.7 78.4 -207.2 76.1 -216.05 76.1 -224.15 L76.1 -235.0 Q73.55 -236.55 65.8 -245.65 59.0 -253.75 56.2 -257.85 49.0 -241.05 52.45 -230.75 40.05 -237.85 37.1 -244.6 L35.0 -249.4 34.1 -236.45 33.8 -236.35 33.5 -236.25 Q26.85 -234.2 19.0 -232.8 L11.95 -231.75 11.4 -231.65 11.0 -231.6 M84.25 -229.55 L84.4 -228.0 84.25 -218.2 Q84.15 -212.5 84.6 -210.0 L85.55 -207.2 90.4 -195.3 94.3 -185.55 Q95.6 -182.05 95.6 -181.15 95.6 -176.7 92.8 -171.9 91.15 -169.15 88.65 -166.3 L86.4 -163.95 85.55 -163.1 85.35 -162.9 82.8 -160.65 72.0 -152.6 69.15 -150.85 Q69.45 -149.8 67.4 -142.2 L65.15 -134.3 68.25 -136.45 76.25 -142.2 Q80.2 -145.1 83.6 -149.1 86.05 -152.1 88.25 -155.75 L91.15 -161.1 Q93.05 -165.1 94.65 -169.7 L95.2 -171.3 Q101.85 -191.55 96.9 -215.25 L94.4 -228.05 84.25 -229.55 M92.35 -143.65 L92.95 -147.45 93.15 -149.75 90.15 -145.45 85.85 -140.2 84.35 -138.5 Q78.05 -131.85 71.05 -127.5 L72.55 -125.05 Q77.05 -118.55 86.1 -114.0 L88.8 -112.75 89.0 -112.55 89.1 -112.2 89.0 -111.85 88.95 -111.8 Q87.8 -110.2 86.45 -109.35 83.8 -107.7 80.45 -109.0 L80.35 -109.0 Q79.45 -109.15 77.7 -104.7 75.85 -99.9 79.9 -92.55 83.6 -85.9 89.1 -84.15 L90.25 -83.85 96.15 -84.05 Q99.35 -85.0 102.55 -87.75 L102.6 -87.85 Q105.9 -90.6 106.9 -94.6 107.85 -98.6 107.55 -100.6 107.25 -102.15 105.2 -102.45 102.85 -99.7 96.85 -99.85 96.6 -99.9 96.5 -100.05 96.35 -100.2 96.35 -100.45 96.35 -100.7 96.5 -100.85 100.15 -105.65 102.85 -116.45 105.45 -127.0 96.6 -136.7 94.55 -135.3 91.7 -134.55 L91.55 -134.5 91.2 -134.55 91.0 -134.9 91.0 -135.25 91.35 -137.35 92.35 -143.65 M24.5 -132.4 L14.05 -129.95 -0.05 -127.85 -2.4 -127.65 -12.15 -127.25 Q-20.7 -127.25 -28.9 -129.55 L-33.4 -131.05 Q-35.1 -131.7 -40.3 -135.6 L-33.1 -118.25 Q-45.25 -120.8 -55.65 -126.45 -56.2 -123.25 -57.0 -121.25 -58.6 -117.45 -60.4 -115.5 L-64.7 -111.8 Q-63.1 -108.9 -63.35 -102.8 -63.65 -96.5 -67.35 -87.05 -71.1 -77.45 -79.3 -75.45 -82.45 -74.65 -84.05 -74.6 -81.85 -65.0 -88.6 -53.45 -76.55 -48.95 -70.85 -48.2 -64.8 -47.45 -63.6 -46.9 -63.25 -65.45 -61.45 -78.05 -56.5 -66.35 -51.5 -56.15 -46.45 -45.95 -45.1 -45.05 L-16.3 -45.95 Q-11.9 -69.7 -7.05 -81.95 -4.3 -71.1 -1.15 -63.95 3.25 -54.15 3.7 -54.15 8.55 -69.2 11.2 -82.2 L11.45 -83.6 Q13.9 -75.35 15.85 -64.9 L19.3 -46.6 46.1 -50.35 Q47.1 -74.25 49.15 -86.3 L65.3 -50.95 Q75.3 -47.85 94.05 -53.55 L93.3 -57.3 Q89.2 -66.0 90.55 -73.55 L90.4 -74.6 86.0 -75.45 Q77.8 -77.45 74.05 -87.05 70.35 -96.5 70.05 -102.8 69.8 -108.9 71.45 -111.8 68.75 -113.75 67.1 -115.5 65.3 -117.45 63.75 -121.25 L63.0 -123.35 Q58.35 -121.45 53.45 -120.4 57.8 -140.5 59.35 -145.45 L55.25 -143.5 51.7 -141.85 Q42.2 -137.65 32.0 -134.55 28.3 -133.4 24.5 -132.4 M102.65 -77.7 Q98.9 -75.5 97.2 -75.15 L97.05 -75.15 Q97.0 -69.1 98.85 -63.5 100.1 -59.75 102.25 -56.2 108.8 -45.15 118.6 -44.35 116.45 -51.05 117.45 -57.45 118.45 -64.0 116.95 -70.7 115.45 -77.2 107.95 -81.55 106.45 -80.0 102.65 -77.7 M-62.8 -130.8 Q-76.05 -139.9 -86.2 -154.5 L-86.45 -152.1 Q-86.6 -149.75 -86.2 -147.45 L-84.25 -135.25 -84.25 -134.9 -84.3 -134.85 -84.5 -134.55 -84.85 -134.5 Q-87.8 -135.25 -89.85 -136.7 -93.25 -133.05 -94.95 -129.2 -97.75 -123.0 -96.1 -116.45 -94.7 -110.75 -93.0 -106.7 -91.5 -103.1 -89.75 -100.85 L-89.6 -100.45 -89.75 -100.05 -90.1 -99.85 -92.45 -99.9 Q-96.6 -100.25 -98.45 -102.45 -99.6 -102.3 -100.15 -101.75 -100.7 -101.35 -100.85 -100.6 -101.15 -98.6 -100.15 -94.6 L-99.55 -92.75 Q-98.4 -89.95 -95.9 -87.85 L-95.8 -87.75 Q-93.65 -85.85 -91.4 -84.8 -87.5 -83.0 -83.55 -83.85 -77.25 -85.2 -73.15 -92.55 -69.15 -99.9 -71.0 -104.7 -72.75 -109.15 -73.65 -109.0 L-73.75 -109.0 Q-78.8 -107.05 -82.25 -111.8 L-82.25 -111.85 -82.35 -112.2 -82.25 -112.55 -82.05 -112.75 Q-69.55 -118.3 -64.5 -127.1 L-64.4 -127.3 -64.25 -127.6 -64.25 -127.55 -62.8 -130.8 M-97.95 -178.3 Q-97.15 -160.4 -95.9 -142.55 L-94.55 -144.25 Q-96.6 -154.45 -91.7 -163.85 -94.7 -169.75 -97.8 -177.9 L-97.95 -178.3 M-98.7 -79.5 Q-100.35 -80.65 -101.2 -81.55 -108.75 -77.2 -110.2 -70.7 -111.75 -64.0 -110.75 -57.45 -109.75 -51.05 -111.9 -44.35 -103.25 -45.05 -97.1 -53.75 L-95.5 -56.2 Q-91.65 -62.65 -90.65 -69.85 -90.3 -72.45 -90.3 -75.15 L-90.9 -75.25 Q-92.65 -75.75 -95.95 -77.7 L-98.7 -79.5" fill="#000000" fill-rule="evenodd" stroke="none"/>
    <path d="M-102.05 -76.05 L-101.7 -75.95 -101.55 -74.85 -102.0 -76.0 -102.05 -76.05" fill="#a20000" fill-rule="evenodd" stroke="none"/>
    <path d="M-87.05 -84.75 Q-77.1 -84.55 -62.45 -75.75 -69.25 -60.05 -74.4 -56.0 L-75.15 -55.55 Q-77.1 -54.4 -82.6 -51.95 -86.35 -57.2 -88.8 -61.75 -91.8 -67.45 -92.7 -72.05 -90.55 -74.5 -89.1 -77.8 -87.8 -80.9 -87.05 -84.75 -87.8 -80.9 -89.1 -77.8 L-81.15 -71.8 -89.1 -77.8 Q-90.55 -74.5 -92.7 -72.05 L-95.6 -71.95 -96.3 -72.05 Q-98.05 -72.15 -99.35 -72.8 -100.75 -73.5 -101.55 -74.85 L-101.7 -75.95 -102.05 -76.05 Q-105.05 -73.55 -108.75 -71.7 -114.45 -68.85 -121.85 -67.65 -123.6 -71.7 -124.6 -76.45 L-124.65 -76.75 Q-125.95 -83.75 -121.85 -97.45 -104.95 -94.75 -97.2 -88.5 -99.5 -85.0 -100.6 -82.05 -99.5 -85.0 -97.2 -88.5 -91.8 -88.8 -87.05 -84.75 M-111.6 -83.35 L-100.6 -82.05 Q-101.95 -78.65 -101.7 -75.95 -101.95 -78.65 -100.6 -82.05 L-111.6 -83.35" fill="#910000" fill-rule="evenodd" stroke="none"/>
    <path d="M-92.7 -72.05 Q-91.8 -67.45 -88.8 -61.75 -86.35 -57.2 -82.6 -51.95 -77.1 -54.4 -75.15 -55.55 L-74.4 -56.0 Q-69.25 -60.05 -62.45 -75.75 -77.1 -84.55 -87.05 -84.75 -87.8 -80.9 -89.1 -77.8 L-81.15 -71.8 M-102.05 -76.05 L-102.0 -76.0 -101.55 -74.85 -101.7 -75.95 Q-101.95 -78.65 -100.6 -82.05 L-111.6 -83.35 M-92.7 -72.05 Q-90.55 -74.5 -89.1 -77.8 M-101.55 -74.85 Q-100.75 -73.5 -99.35 -72.8 -98.05 -72.15 -96.3 -72.05 L-95.6 -71.95 -92.7 -72.05 M-100.6 -82.05 Q-99.5 -85.0 -97.2 -88.5 -104.95 -94.75 -121.85 -97.45 -125.95 -83.75 -124.65 -76.75 L-124.6 -76.45 Q-123.6 -71.7 -121.85 -67.65 -114.45 -68.85 -108.75 -71.7 -105.05 -73.55 -102.05 -76.05 M-87.05 -84.75 Q-91.8 -88.8 -97.2 -88.5" fill="none" stroke="#000000" stroke-linecap="round" stroke-linejoin="round" stroke-width="4.0"/>
    <path d="M99.3 -75.1 L100.15 -74.3 99.1 -74.9 99.05 -74.9 99.3 -75.1" fill="#a20000" fill-rule="evenodd" stroke="none"/>
    <path d="M104.85 -91.2 Q112.55 -97.5 129.45 -100.15 134.35 -83.8 133.0 -77.4 L132.7 -76.55 Q132.0 -74.45 129.35 -69.05 123.1 -70.65 118.35 -72.55 112.35 -74.95 108.75 -77.9 L106.55 -75.9 106.0 -75.55 Q104.55 -74.5 103.15 -74.2 L100.15 -74.3 99.3 -75.1 Q97.45 -77.0 96.2 -80.4 L87.0 -74.35 96.2 -80.4 Q97.45 -77.0 99.3 -75.1 L99.05 -74.9 Q98.3 -71.15 96.7 -67.3 94.2 -61.5 89.25 -55.75 85.4 -57.75 81.55 -60.7 L81.25 -60.95 Q75.8 -65.4 70.1 -78.5 84.7 -87.35 94.7 -87.55 95.2 -83.4 96.2 -80.4 95.2 -83.4 94.7 -87.55 98.6 -91.25 104.85 -91.2 106.75 -87.85 107.75 -84.6 L117.7 -85.1 107.75 -84.6 Q106.75 -87.85 104.85 -91.2 M107.75 -84.6 Q108.8 -81.15 108.75 -77.9 108.8 -81.15 107.75 -84.6" fill="#910000" fill-rule="evenodd" stroke="none"/>
    <path d="M108.75 -77.9 Q112.35 -74.95 118.35 -72.55 123.1 -70.65 129.35 -69.05 132.0 -74.45 132.7 -76.55 L133.0 -77.4 Q134.35 -83.8 129.45 -100.15 112.55 -97.5 104.85 -91.2 106.75 -87.85 107.75 -84.6 L117.7 -85.1 M99.3 -75.1 Q97.45 -77.0 96.2 -80.4 L87.0 -74.35 M99.3 -75.1 L100.15 -74.3 103.15 -74.2 Q104.55 -74.5 106.0 -75.55 L106.55 -75.9 108.75 -77.9 Q108.8 -81.15 107.75 -84.6 M99.05 -74.9 L99.1 -74.9 100.15 -74.3 M96.2 -80.4 Q95.2 -83.4 94.7 -87.55 84.7 -87.35 70.1 -78.5 75.8 -65.4 81.25 -60.95 L81.55 -60.7 Q85.4 -57.75 89.25 -55.75 94.2 -61.5 96.7 -67.3 98.3 -71.15 99.05 -74.9 M104.85 -91.2 Q98.6 -91.25 94.7 -87.55" fill="none" stroke="#000000" stroke-linecap="round" stroke-linejoin="round" stroke-width="4.0"/>
  </g>
</svg>
