<?xml version="1.0" encoding="UTF-8" standalone="no"?>
<svg xmlns:xlink="http://www.w3.org/1999/xlink" height="196.05px" width="250.8px" xmlns="http://www.w3.org/2000/svg">
  <g transform="matrix(1, 0, 0, 1, 125.0, 322.6)">
    <path d="M0.25 -322.55 L0.25 -322.6 Q32.3 -322.85 63.2 -306.35 97.6 -288.0 110.95 -270.6 L101.1 -269.3 Q115.35 -258.85 123.8 -239.65 131.2 -222.85 111.1 -203.15 L111.1 -207.25 109.05 -199.15 Q107.8 -196.35 106.8 -191.0 105.75 -185.65 109.6 -177.5 113.4 -169.35 108.7 -160.85 104.0 -152.35 98.05 -147.4 93.05 -144.65 90.75 -135.75 L87.95 -137.25 Q85.25 -139.4 84.35 -140.6 73.5 -128.5 57.55 -126.55 58.25 -131.25 58.2 -134.4 53.0 -128.6 45.25 -127.8 37.45 -127.0 33.3 -129.95 L28.7 -133.15 24.5 -132.4 14.05 -129.95 -0.05 -127.85 -2.4 -127.65 -12.15 -127.25 Q-20.7 -127.25 -28.9 -129.55 L-33.4 -131.05 Q-39.35 -133.25 -45.05 -136.7 L-46.25 -137.4 -44.8 -127.05 Q-69.0 -125.1 -84.45 -137.9 L-85.3 -138.5 -83.7 -129.75 Q-94.95 -130.5 -104.65 -138.3 -109.4 -142.15 -110.85 -147.95 -114.85 -142.05 -114.1 -137.2 -132.1 -149.45 -120.35 -167.3 -108.65 -185.15 -112.05 -194.3 -115.5 -203.45 -114.4 -212.1 -116.6 -207.8 -116.75 -207.95 L-116.75 -208.8 Q-121.4 -213.8 -116.35 -225.05 -108.7 -242.05 -99.75 -258.55 L-93.65 -271.25 Q-87.8 -283.7 -79.25 -293.05 -52.55 -322.35 -5.5 -322.35 L0.25 -322.55 M66.6 -249.45 Q71.2 -241.6 82.1 -234.15 93.0 -226.7 98.25 -221.25 103.25 -216.05 101.5 -204.55 109.5 -213.0 110.05 -220.95 L110.8 -232.75 Q114.9 -226.6 115.35 -217.4 120.75 -227.85 115.0 -239.05 109.25 -250.25 96.75 -263.15 84.25 -276.05 81.4 -278.05 87.55 -276.7 95.55 -276.85 L71.9 -292.85 Q57.95 -302.1 35.6 -308.1 13.25 -314.1 -0.9 -314.75 -15.1 -315.45 -34.2 -310.7 -53.3 -305.95 -68.5 -290.15 -83.75 -274.35 -92.1 -256.8 -100.4 -239.25 -107.7 -229.45 -100.15 -237.1 -94.4 -238.45 L-95.2 -219.85 Q-95.75 -204.7 -87.6 -194.8 -86.15 -207.55 -76.35 -222.25 -66.6 -236.95 -64.15 -246.4 -63.15 -250.5 -58.75 -259.2 -59.65 -236.7 -58.4 -229.6 -57.15 -222.4 -56.2 -221.45 -54.55 -242.05 -41.6 -258.95 -29.75 -274.45 -19.5 -290.8 -20.4 -283.35 -20.1 -266.95 -19.75 -250.6 -17.85 -243.6 -16.0 -236.65 -15.0 -234.4 -13.35 -251.75 -4.75 -272.1 2.0 -288.15 4.1 -296.0 5.8 -284.0 9.05 -270.2 12.55 -255.45 25.45 -244.7 22.45 -256.95 21.6 -276.15 L21.4 -279.85 25.05 -274.35 Q36.45 -257.4 53.2 -240.6 55.8 -255.6 53.65 -268.55 62.0 -257.3 66.6 -249.45 M7.7 -249.1 Q2.75 -256.35 1.15 -263.85 -6.9 -243.8 -8.4 -220.75 -22.6 -227.35 -25.05 -240.45 -27.5 -253.6 -27.0 -260.15 L-26.5 -267.65 Q-39.45 -252.75 -45.65 -234.05 -50.95 -218.05 -48.55 -201.45 -56.5 -204.95 -60.55 -212.35 -61.8 -206.85 -61.85 -202.55 -61.85 -198.3 -55.95 -186.35 -50.05 -174.45 -56.8 -161.05 L-53.6 -156.4 -49.15 -150.35 -47.1 -148.15 -45.05 -146.3 Q-43.4 -145.0 -41.55 -143.8 -36.6 -140.65 -30.05 -138.6 L-28.9 -138.25 -25.05 -137.3 Q-15.25 -135.1 -2.4 -135.0 L-1.4 -135.0 -0.05 -135.0 Q6.25 -135.2 14.05 -136.8 19.15 -137.85 24.9 -139.55 L32.0 -141.75 Q42.0 -145.15 51.7 -149.7 L54.3 -150.95 55.25 -151.4 Q69.55 -158.5 78.25 -165.9 83.1 -170.05 85.55 -173.75 88.1 -177.6 88.1 -181.0 88.1 -182.2 86.25 -186.45 L82.1 -195.95 Q79.8 -201.7 78.4 -207.2 76.1 -216.05 76.1 -224.15 L76.1 -226.4 Q66.9 -232.15 60.55 -244.85 L59.75 -228.0 59.65 -225.85 Q48.6 -234.45 38.5 -245.05 34.3 -249.5 31.05 -254.35 31.75 -245.9 35.75 -231.1 17.4 -234.85 7.7 -249.1 M84.35 -222.8 L84.25 -218.2 Q84.15 -212.5 84.6 -210.0 L85.55 -207.2 90.4 -195.3 91.8 -192.0 Q95.55 -198.95 94.9 -207.2 94.2 -216.2 84.35 -222.8 M94.3 -185.55 Q95.6 -182.05 95.6 -181.15 95.6 -175.95 91.75 -170.25 94.55 -166.1 94.9 -154.95 106.65 -164.95 102.8 -175.25 98.35 -187.05 98.75 -192.95 95.55 -191.7 92.0 -191.45 L94.3 -185.55 M85.35 -162.9 Q82.0 -159.7 72.0 -152.6 L64.75 -148.3 Q64.3 -143.45 64.3 -139.6 L64.4 -135.3 Q75.1 -140.55 84.2 -152.0 L87.3 -147.85 Q87.4 -149.55 88.25 -154.3 89.05 -159.1 87.05 -164.55 L85.55 -163.1 85.35 -162.9 M55.25 -143.5 L51.7 -141.85 Q44.7 -138.8 37.4 -136.25 48.65 -131.8 57.65 -144.65 L55.25 -143.5 M-105.9 -222.3 Q-107.8 -209.45 -107.35 -204.3 -106.95 -199.2 -105.0 -189.3 -103.05 -179.45 -109.05 -170.9 -115.1 -162.3 -116.5 -156.65 L-118.2 -149.7 Q-115.55 -155.75 -107.8 -160.8 -107.85 -160.2 -105.0 -152.3 -102.15 -144.5 -91.15 -139.1 L-90.25 -151.4 Q-78.75 -142.0 -65.8 -136.1 -60.05 -133.5 -54.05 -134.0 L-54.2 -143.55 -63.3 -150.75 Q-62.55 -149.7 -69.45 -145.3 -71.65 -158.35 -83.8 -166.15 -95.95 -174.0 -94.4 -180.5 L-92.85 -184.25 Q-91.3 -178.1 -78.35 -170.45 -65.4 -162.9 -66.2 -157.45 -58.2 -174.6 -65.9 -190.1 -73.65 -205.65 -69.65 -219.95 -82.05 -193.6 -80.6 -182.35 -96.35 -188.4 -100.6 -203.0 -104.3 -215.6 -100.85 -227.95 -104.8 -224.2 -107.7 -219.75 L-105.9 -222.3 M-53.85 -136.7 L-53.55 -137.05 Q-53.55 -137.65 -53.85 -136.7" fill="#000000" fill-rule="evenodd" stroke="none"/>
  </g>
</svg>
