<?xml version="1.0" encoding="UTF-8" standalone="no"?>
<svg xmlns:xlink="http://www.w3.org/1999/xlink" height="296.0px" width="229.3px" xmlns="http://www.w3.org/2000/svg">
  <g transform="matrix(1, 0, 0, 1, 110.85, 322.55)">
    <path d="M28.0 -319.5 Q48.4 -315.25 73.15 -299.3 98.65 -300.2 112.05 -269.0 125.45 -237.8 110.85 -207.15 105.65 -217.7 103.35 -222.7 102.65 -205.25 98.45 -197.8 94.05 -190.0 93.0 -189.0 L94.3 -185.55 Q95.6 -182.05 95.6 -181.15 95.6 -176.0 91.8 -170.35 92.5 -143.0 101.9 -115.55 111.8 -86.8 92.6 -65.6 89.7 -57.1 80.45 -49.9 64.8 -37.65 46.25 -33.75 40.8 -29.8 31.25 -27.9 12.6 -24.2 -0.45 -33.9 -16.85 -18.5 -41.1 -35.3 L-41.45 -35.55 Q-71.25 -32.15 -86.3 -59.05 L-87.0 -58.55 Q-117.35 -83.0 -107.4 -113.25 -97.45 -143.55 -105.7 -162.15 -114.0 -180.75 -108.95 -216.85 -103.9 -253.0 -82.65 -286.5 -78.55 -292.95 -65.3 -303.05 -52.1 -313.1 -44.55 -315.55 -9.05 -327.15 28.0 -319.5 M48.2 -263.7 Q45.1 -249.05 35.45 -236.85 21.7 -219.45 3.25 -216.2 10.1 -231.6 11.15 -245.25 12.15 -258.9 9.9 -261.7 3.1 -248.1 -20.65 -232.9 -44.45 -217.7 -58.65 -200.95 -53.4 -184.3 -51.4 -172.75 -49.4 -161.25 -51.35 -153.3 L-49.15 -150.35 -47.1 -148.15 -45.05 -146.3 Q-43.4 -145.0 -41.55 -143.8 -36.6 -140.65 -30.05 -138.6 L-28.9 -138.25 -25.05 -137.3 Q-15.25 -135.1 -2.4 -135.0 L-1.4 -135.0 -0.05 -135.0 Q6.25 -135.2 14.05 -136.8 19.15 -137.85 24.9 -139.55 L32.0 -141.75 Q42.0 -145.15 51.7 -149.7 L54.3 -150.95 55.25 -151.4 Q69.55 -158.5 78.25 -165.9 83.1 -170.05 85.55 -173.75 88.1 -177.6 88.1 -181.0 88.1 -182.2 86.25 -186.45 L82.1 -195.95 Q79.8 -201.7 78.4 -207.2 76.1 -216.05 76.1 -224.15 L76.1 -232.25 Q73.95 -233.7 71.65 -236.65 69.3 -239.6 65.85 -245.3 65.95 -240.0 67.4 -234.7 55.15 -241.35 52.15 -250.95 L48.2 -263.7 M57.5 -262.55 Q59.85 -253.85 60.3 -253.3 62.55 -259.4 63.45 -270.15 73.6 -240.0 91.8 -226.5 86.25 -224.7 84.4 -225.45 L84.25 -218.2 Q84.15 -212.5 84.6 -210.0 L85.55 -207.2 88.45 -199.9 Q91.55 -203.1 93.35 -207.45 97.35 -217.45 97.25 -239.45 L96.95 -248.2 Q101.05 -242.9 109.1 -227.75 110.25 -229.9 109.45 -240.0 108.5 -252.0 105.0 -262.45 94.55 -293.4 69.05 -290.15 39.25 -313.1 7.25 -314.1 -24.8 -315.1 -51.35 -302.6 -77.9 -290.15 -93.55 -243.7 -101.45 -220.3 -102.0 -202.1 -102.6 -183.6 -98.0 -169.85 -93.45 -156.15 -92.25 -146.8 -91.05 -137.45 -95.25 -124.65 -99.45 -111.95 -100.5 -97.6 -101.55 -83.3 -91.45 -74.4 -92.35 -85.7 -89.95 -89.15 -86.9 -72.8 -75.35 -56.75 -63.85 -40.75 -46.5 -40.3 -48.35 -41.25 -49.4 -48.05 -49.55 -49.0 -49.35 -49.65 -49.05 -46.75 -34.9 -37.95 -20.85 -29.2 -3.1 -36.05 -9.75 -41.55 -8.35 -48.25 11.05 -29.9 26.0 -33.25 40.9 -36.6 46.25 -42.5 51.55 -48.4 52.95 -52.4 54.55 -43.6 51.55 -41.0 72.3 -48.6 81.45 -62.2 90.55 -75.8 90.95 -86.9 93.7 -80.65 93.05 -77.55 101.9 -94.05 93.35 -116.4 84.0 -140.85 85.35 -162.9 82.0 -159.7 72.0 -152.6 66.25 -148.95 59.35 -145.5 L55.25 -143.5 51.7 -141.85 Q42.2 -137.65 32.0 -134.55 28.3 -133.4 24.5 -132.4 L14.05 -129.95 -0.05 -127.85 -2.4 -127.65 -12.15 -127.25 Q-20.7 -127.25 -28.9 -129.55 L-33.4 -131.05 Q-39.35 -133.25 -45.05 -136.7 L-46.75 -137.75 -47.1 -137.95 -53.6 -143.0 -56.4 -145.4 Q-60.75 -139.35 -68.85 -134.65 -69.5 -134.25 -70.85 -135.0 -63.6 -141.75 -60.45 -148.95 -54.85 -162.15 -62.05 -182.25 -65.5 -191.8 -65.8 -199.0 -66.65 -194.4 -65.75 -187.75 -81.1 -191.8 -83.65 -206.4 -86.2 -221.05 -79.5 -232.45 -82.5 -212.35 -73.25 -199.95 -73.3 -216.2 -62.2 -230.8 L-55.95 -239.2 Q-61.9 -220.35 -62.6 -209.75 -43.85 -227.1 -20.45 -243.25 2.95 -259.45 12.45 -278.9 19.0 -271.95 19.15 -256.0 19.3 -240.0 16.05 -229.25 L15.85 -228.65 16.3 -228.95 Q33.1 -241.1 39.4 -260.7 44.7 -277.2 47.15 -286.15 55.1 -271.3 57.5 -262.55" fill="#000000" fill-rule="evenodd" stroke="none"/>
  </g>
</svg>
