<?xml version="1.0" encoding="UTF-8" standalone="no"?>
<svg xmlns:xlink="http://www.w3.org/1999/xlink" height="330.2px" width="244.35px" xmlns="http://www.w3.org/2000/svg">
  <g transform="matrix(1, 0, 0, 1, 131.2, 322.7)">
    <path d="M59.35 -306.65 Q69.05 -299.25 88.15 -293.55 97.6 -290.7 105.05 -289.25 104.2 -287.7 98.35 -284.2 93.4 -281.2 90.45 -279.95 93.8 -275.35 96.1 -269.05 100.7 -256.45 95.5 -248.1 93.9 -215.1 108.45 -189.6 123.0 -164.15 92.6 -133.7 L92.15 -151.1 Q86.65 -145.2 85.3 -143.2 80.85 -113.3 95.45 -84.3 110.0 -55.25 102.45 -40.35 94.85 -25.45 85.2 -21.05 86.15 -32.4 85.05 -36.4 81.55 -23.3 69.8 -14.0 59.45 -5.8 49.1 -5.55 L50.25 -14.4 Q49.3 -12.55 40.8 -6.0 30.55 1.9 20.8 0.7 L21.75 -8.5 Q16.45 -1.6 2.85 7.5 -18.9 -5.15 -21.0 -11.45 -21.75 -10.1 -18.8 -0.3 -49.65 1.9 -70.9 -17.35 -72.95 -19.25 -74.4 -22.05 -74.85 -19.35 -71.3 -7.65 -98.85 -8.05 -108.65 -20.25 -118.55 -32.6 -120.65 -44.3 L-123.85 -36.5 Q-131.85 -47.15 -131.15 -64.25 -130.6 -77.4 -125.6 -106.25 -118.55 -147.4 -115.1 -169.35 -111.7 -191.35 -111.3 -212.9 -110.95 -234.45 -100.7 -260.55 -90.5 -286.65 -66.45 -303.55 -36.0 -324.95 6.05 -322.45 35.15 -320.8 59.35 -306.65 M39.4 -305.75 Q6.0 -318.6 -26.75 -311.15 -56.0 -304.45 -75.05 -283.7 -94.45 -262.6 -101.75 -228.5 -102.85 -223.5 -103.25 -211.6 -103.9 -193.25 -104.4 -186.6 -106.55 -157.35 -112.9 -126.2 -119.3 -95.1 -121.65 -76.7 -124.05 -58.3 -123.65 -51.4 -123.45 -53.4 -116.45 -68.85 -110.6 -34.3 -101.6 -25.75 -92.6 -17.2 -88.25 -16.2 -83.9 -15.2 -81.45 -15.3 -83.5 -25.4 -80.95 -42.35 -68.1 -25.75 -54.0 -15.95 -39.95 -6.2 -27.65 -7.65 -29.25 -13.0 -25.95 -26.95 -19.75 -18.65 -12.45 -12.6 -5.15 -6.6 2.95 -1.15 10.25 -8.2 20.3 -19.05 L24.6 -23.85 Q28.5 -17.8 27.65 -7.65 41.0 -14.6 51.6 -25.9 54.5 -28.95 55.8 -32.2 58.9 -22.3 58.25 -15.6 71.85 -23.2 79.85 -41.85 83.4 -50.2 84.3 -53.6 87.95 -51.65 90.15 -46.8 92.3 -42.1 92.35 -36.75 102.5 -57.3 87.4 -85.3 72.3 -113.35 77.4 -139.65 74.85 -138.3 72.2 -137.2 63.95 -133.8 54.9 -134.85 57.6 -142.25 58.2 -144.9 42.3 -137.1 24.5 -132.4 4.95 -127.25 -12.15 -127.25 -30.35 -127.25 -46.75 -137.75 L-50.05 -140.15 -46.7 -126.45 Q-56.45 -131.85 -66.05 -141.85 -70.05 -143.8 -74.15 -144.85 -73.25 -143.1 -71.4 -133.0 -91.7 -137.45 -99.8 -158.8 -105.6 -174.15 -98.95 -185.35 -99.55 -181.55 -96.15 -169.55 -92.8 -157.5 -87.2 -150.5 L-80.85 -142.95 Q-82.7 -145.2 -82.95 -157.2 -80.5 -155.3 -72.85 -152.3 -81.0 -166.9 -81.75 -171.75 L-82.7 -178.9 Q-83.1 -185.55 -80.3 -191.25 -78.15 -168.95 -59.7 -145.3 -64.3 -160.85 -66.2 -176.7 -68.1 -192.6 -61.1 -216.4 -64.25 -215.5 -69.7 -215.0 L-60.6 -248.55 Q-63.95 -241.4 -70.05 -234.05 -75.75 -227.25 -79.4 -225.25 -82.35 -235.0 -77.65 -260.3 -75.85 -254.5 -75.45 -246.65 L-75.3 -239.7 Q-71.1 -244.95 -64.25 -254.55 -55.7 -266.6 -52.5 -272.65 -50.75 -268.4 -55.25 -245.9 -59.3 -225.65 -60.3 -223.85 -47.65 -227.8 -36.0 -240.25 -21.85 -255.35 -17.65 -275.6 -15.25 -274.3 -11.35 -263.5 -8.3 -255.0 -7.05 -249.4 -0.65 -257.15 1.4 -260.7 7.25 -270.8 14.1 -291.2 18.95 -270.3 15.55 -249.75 14.5 -243.15 12.7 -237.5 11.4 -233.45 10.95 -232.8 21.2 -238.2 26.35 -242.45 32.6 -247.7 37.65 -256.2 44.0 -266.9 47.05 -276.8 61.4 -242.95 53.75 -231.0 62.0 -230.85 70.65 -234.65 79.9 -238.75 85.2 -245.6 91.3 -253.4 90.4 -262.85 89.4 -273.8 79.15 -285.6 86.75 -285.95 91.15 -287.05 79.4 -288.1 65.25 -294.3 L52.9 -299.95 Q45.05 -303.55 39.4 -305.75 M70.05 -226.5 Q51.95 -221.75 42.05 -224.4 49.45 -233.8 48.8 -244.65 48.45 -250.25 46.35 -255.65 41.95 -245.35 31.65 -237.5 13.55 -223.7 -4.1 -221.75 1.25 -231.65 5.15 -242.7 8.75 -253.1 9.55 -260.65 4.65 -242.4 -12.35 -232.05 -11.8 -240.65 -13.45 -245.1 -14.45 -247.75 -17.1 -253.4 -20.7 -242.75 -32.0 -232.5 -42.2 -223.25 -53.6 -218.8 -55.3 -212.6 -58.35 -196.25 -61.4 -179.9 -55.4 -159.0 L-49.15 -150.35 Q-36.2 -135.0 -1.4 -135.0 9.35 -135.0 24.9 -139.55 39.95 -143.95 54.3 -150.95 59.8 -153.65 64.5 -156.35 66.05 -157.9 68.05 -158.5 73.85 -162.15 78.25 -165.9 88.1 -174.3 88.1 -181.0 88.1 -182.2 86.25 -186.45 L82.1 -195.95 Q76.1 -211.05 76.1 -224.15 L76.1 -228.55 Q73.25 -227.35 70.05 -226.5 M84.6 -210.0 Q84.95 -208.15 90.4 -195.3 L94.3 -185.55 Q95.6 -182.05 95.6 -181.15 95.6 -172.7 85.35 -162.9 82.0 -159.7 72.0 -152.6 L69.7 -151.2 Q68.15 -148.05 67.2 -144.75 L66.75 -143.8 Q80.2 -148.6 87.2 -156.05 94.2 -163.5 96.95 -169.0 97.05 -164.0 98.3 -157.9 99.55 -151.85 99.4 -150.9 110.6 -173.0 100.4 -188.95 90.15 -204.9 89.05 -217.8 87.95 -230.7 89.05 -237.8 87.15 -235.7 85.05 -233.9 84.4 -226.2 84.25 -218.2 84.15 -212.5 84.6 -210.0" fill="#000000" fill-rule="evenodd" stroke="none"/>
  </g>
</svg>
