<?xml version="1.0" encoding="UTF-8" standalone="no"?>
<svg xmlns:xlink="http://www.w3.org/1999/xlink" height="200.35px" width="234.35px" xmlns="http://www.w3.org/2000/svg">
  <g transform="matrix(1, 0, 0, 1, 113.55, 322.25)">
    <path d="M6.3 -314.1 Q-29.9 -314.1 -50.4 -304.2 -66.55 -296.4 -80.0 -277.95 -91.2 -262.55 -95.7 -251.85 -100.6 -240.05 -100.6 -226.75 -100.6 -219.85 -98.2 -212.05 -95.85 -204.3 -95.85 -202.35 -95.85 -195.7 -101.7 -184.05 -107.55 -172.35 -107.55 -170.1 -107.55 -164.4 -99.35 -151.65 -92.25 -144.2 -91.5 -142.65 -91.3 -143.65 -91.6 -147.95 -93.05 -151.55 -93.9 -155.05 -94.8 -158.6 -95.2 -165.5 -95.6 -172.35 -86.4 -207.45 -85.2 -211.85 -88.45 -225.65 -81.9 -216.0 -81.2 -210.8 -80.55 -205.6 -81.65 -201.75 L-85.45 -188.95 Q-87.75 -181.05 -88.15 -166.9 -88.55 -152.8 -78.2 -142.25 L-74.9 -137.9 -74.6 -137.5 -74.7 -138.15 Q-75.6 -143.95 -75.55 -151.7 -75.45 -161.7 -77.4 -164.3 L-61.2 -144.45 -60.9 -144.15 -66.05 -164.3 Q-70.55 -167.8 -74.75 -179.75 -76.55 -185.0 -77.5 -192.25 -78.55 -200.55 -76.2 -206.4 -74.8 -192.4 -70.45 -183.25 -61.75 -164.95 -47.55 -160.05 -59.3 -177.45 -62.0 -187.4 -64.9 -198.15 -62.2 -216.55 L-67.05 -224.9 Q-69.25 -229.8 -67.85 -237.6 -66.45 -245.4 -61.7 -252.55 L-59.5 -255.45 Q-61.05 -247.95 -61.9 -241.1 -62.75 -234.25 -61.2 -231.2 -59.7 -228.2 -55.8 -223.25 -55.25 -237.25 -47.35 -251.6 -43.4 -258.8 -39.6 -263.55 L-39.4 -263.45 Q-44.7 -247.9 -41.7 -235.95 -41.55 -243.35 -33.65 -252.15 -26.4 -260.7 -26.4 -264.0 L-25.75 -280.45 Q-17.1 -270.45 -11.1 -260.45 -10.5 -260.85 -9.95 -265.35 -9.45 -269.9 -13.45 -285.15 -5.05 -281.9 -3.7 -266.7 L-0.9 -269.95 Q1.75 -273.05 3.4 -275.65 5.0 -278.2 8.8 -288.45 L10.45 -281.8 Q11.8 -274.85 12.45 -272.6 15.35 -261.9 22.55 -255.65 22.3 -257.15 22.15 -260.15 21.8 -267.85 31.25 -277.8 L31.6 -272.8 Q32.25 -264.85 48.45 -251.1 L48.6 -250.5 48.75 -251.0 48.75 -252.15 48.3 -264.4 Q48.0 -271.7 48.05 -275.75 L48.15 -275.85 Q50.6 -273.2 54.05 -258.25 54.45 -256.55 56.05 -254.1 57.55 -251.8 60.6 -248.35 63.4 -245.2 77.1 -235.65 L91.95 -225.3 Q90.25 -227.9 86.0 -243.3 84.55 -248.45 83.05 -252.15 L98.25 -237.6 Q110.95 -226.35 111.15 -216.75 113.55 -220.95 113.55 -225.0 113.55 -229.2 108.75 -235.4 105.8 -239.25 103.75 -242.55 101.1 -244.2 89.1 -264.1 88.25 -265.5 85.35 -271.2 82.05 -277.25 78.55 -282.0 67.7 -296.85 52.65 -302.6 36.5 -308.75 31.0 -310.35 18.1 -314.1 6.3 -314.1 M60.9 -306.95 Q68.3 -302.4 75.25 -296.05 L85.0 -286.45 Q87.2 -284.25 90.45 -278.3 L97.35 -265.85 103.0 -256.25 Q106.05 -251.25 109.1 -247.95 L112.5 -243.15 115.85 -237.55 Q117.45 -233.55 118.55 -228.85 119.4 -225.35 119.4 -222.5 119.4 -219.65 115.15 -210.1 110.9 -200.55 103.7 -199.7 107.35 -204.95 106.05 -211.85 104.75 -218.8 102.5 -222.95 100.2 -227.15 97.0 -230.4 99.3 -223.1 99.3 -221.85 99.3 -218.2 96.75 -212.1 L95.55 -209.5 95.0 -205.1 Q95.4 -201.15 96.95 -196.65 100.05 -187.55 106.05 -184.65 116.8 -179.45 118.85 -174.35 119.65 -172.35 120.45 -168.4 121.25 -164.45 120.3 -157.45 119.35 -150.5 109.05 -141.95 108.8 -148.75 106.35 -152.75 L102.0 -159.55 Q98.05 -144.3 87.6 -140.55 L86.3 -140.85 Q80.75 -129.4 63.65 -128.4 69.8 -133.7 69.9 -142.35 L69.6 -143.25 Q69.25 -140.7 64.35 -137.65 59.45 -134.7 52.1 -134.25 55.15 -137.85 53.95 -142.9 39.95 -136.45 24.5 -132.4 4.95 -127.25 -12.15 -127.25 -30.35 -127.25 -46.75 -137.75 L-53.6 -143.0 -53.55 -134.55 Q-53.0 -127.8 -59.35 -121.9 -59.4 -130.6 -68.55 -143.25 -67.05 -131.8 -64.05 -125.55 -65.75 -125.55 -71.25 -127.55 -78.6 -130.3 -81.75 -133.95 L-85.3 -138.3 Q-85.45 -135.6 -85.7 -134.55 -87.05 -129.25 -92.85 -125.25 -90.75 -128.6 -93.45 -133.4 -94.85 -135.85 -100.95 -143.15 -106.9 -150.3 -109.55 -155.2 -113.65 -162.8 -113.55 -170.25 -113.45 -175.5 -107.55 -187.05 -101.7 -198.5 -101.7 -201.9 L-105.45 -210.75 Q-109.15 -220.5 -108.75 -226.65 -105.4 -277.95 -58.2 -309.0 -42.15 -319.6 -15.2 -321.75 -3.5 -322.7 10.9 -321.75 40.15 -319.65 60.9 -306.95 M6.75 -269.1 Q0.1 -259.7 -3.15 -257.0 L-3.15 -256.95 -5.25 -249.75 Q-6.6 -245.45 -14.2 -240.25 -10.75 -250.95 -20.6 -262.4 -21.0 -257.4 -23.25 -253.95 -25.5 -250.55 -30.3 -246.1 -35.15 -241.65 -35.95 -236.1 -36.75 -230.6 -34.4 -225.55 -37.85 -224.4 -42.05 -226.45 -45.8 -228.3 -48.1 -236.5 -49.95 -230.35 -50.55 -224.35 -51.15 -218.35 -48.1 -212.35 -46.55 -209.25 -45.7 -208.25 L-49.65 -208.85 Q-54.25 -209.75 -55.8 -211.35 -57.0 -202.8 -57.0 -200.7 -57.0 -184.65 -44.6 -168.6 -36.95 -158.7 -33.05 -153.15 -36.7 -151.1 -43.55 -152.05 -50.4 -153.05 -55.4 -155.8 L-49.15 -150.35 Q-36.2 -135.0 -1.4 -135.0 9.35 -135.0 24.9 -139.55 39.95 -143.95 54.3 -150.95 69.25 -158.25 78.25 -165.9 88.1 -174.3 88.1 -181.0 88.1 -182.2 86.25 -186.45 L82.1 -195.95 Q77.05 -208.6 76.25 -219.9 L76.15 -222.5 76.1 -224.15 76.1 -225.75 76.25 -226.05 77.0 -229.4 69.4 -233.3 Q60.55 -237.6 56.4 -242.6 55.35 -235.95 53.9 -233.95 L46.95 -226.5 Q51.45 -237.55 47.1 -242.6 42.75 -247.7 37.0 -253.0 31.95 -257.6 29.7 -260.85 L28.85 -262.25 Q28.35 -261.55 28.85 -253.0 29.35 -244.45 33.45 -246.75 32.55 -244.05 27.55 -244.3 22.55 -244.55 13.6 -255.0 4.65 -265.5 6.75 -269.1 M87.0 -204.45 L88.45 -208.3 Q89.65 -211.4 88.85 -215.7 88.0 -220.05 84.35 -224.1 L84.25 -218.2 Q84.15 -212.5 84.6 -210.0 L84.65 -209.75 88.85 -199.0 88.8 -200.4 88.8 -204.15 87.0 -204.45 M102.05 -180.45 Q103.8 -175.45 104.05 -170.2 105.4 -167.45 108.15 -163.85 110.9 -160.3 112.2 -156.75 113.5 -158.1 113.7 -163.25 113.9 -168.4 111.2 -172.65 108.5 -176.95 102.85 -180.0 L102.05 -180.45 M92.6 -165.25 Q92.55 -159.4 90.55 -150.9 96.6 -156.55 97.15 -160.55 97.7 -164.6 97.9 -168.55 98.1 -172.55 95.45 -179.05 94.95 -175.7 92.95 -172.15 L92.85 -171.6 Q92.65 -171.15 92.6 -165.25 M85.35 -162.9 Q82.8 -160.45 76.45 -155.8 L76.65 -148.7 76.3 -140.0 Q80.5 -144.65 82.8 -152.95 L85.55 -162.9 85.6 -163.15 85.35 -162.9 M60.45 -144.3 Q64.4 -145.55 67.0 -149.6 L60.4 -146.0 60.45 -144.3" fill="#000000" fill-rule="evenodd" stroke="none"/>
  </g>
</svg>
