<?xml version="1.0" encoding="UTF-8" standalone="no"?>
<svg xmlns:xlink="http://www.w3.org/1999/xlink" height="257.2px" width="235.6px" xmlns="http://www.w3.org/2000/svg">
  <g transform="matrix(1, 0, 0, 1, 122.75, 384.45)">
    <path d="M85.0 -351.7 Q86.45 -351.7 89.0 -353.65 88.6 -342.0 82.55 -333.15 80.45 -330.0 78.3 -327.6 L86.0 -329.1 86.45 -329.15 Q82.55 -316.35 76.5 -311.1 72.65 -307.75 69.15 -306.0 70.9 -304.65 72.35 -302.85 73.85 -300.8 80.0 -297.05 86.1 -293.35 92.7 -291.6 99.25 -289.9 105.4 -289.7 101.9 -285.25 100.85 -284.6 96.35 -281.9 92.15 -280.2 95.6 -275.65 98.3 -263.25 99.95 -255.6 101.0 -246.4 L101.7 -238.5 Q100.5 -223.5 103.75 -212.9 99.8 -211.65 98.2 -217.0 97.05 -212.45 97.05 -211.2 97.05 -207.45 106.2 -191.3 115.35 -175.2 111.9 -163.7 110.65 -159.55 107.5 -154.6 106.55 -162.6 105.0 -167.35 104.5 -164.75 103.25 -162.9 99.55 -158.25 96.15 -152.55 97.85 -146.05 103.45 -148.05 96.5 -143.0 91.35 -143.15 86.2 -143.35 82.95 -148.2 81.75 -144.35 73.1 -138.3 64.4 -132.3 57.8 -132.0 52.55 -131.75 53.5 -134.95 L51.6 -133.95 Q48.1 -132.3 41.1 -132.3 36.6 -132.3 33.7 -134.75 L33.45 -134.95 24.5 -132.4 Q4.95 -127.25 -12.15 -127.25 -30.35 -127.25 -46.75 -137.75 L-50.15 -140.25 Q-54.15 -132.4 -57.6 -131.1 -61.3 -134.25 -63.35 -137.8 -66.7 -139.2 -73.5 -142.95 -72.9 -139.1 -69.55 -136.35 -73.1 -134.7 -75.3 -134.7 -85.3 -134.7 -91.95 -144.3 -94.7 -148.3 -96.25 -153.05 -98.4 -151.85 -104.2 -148.95 -110.0 -146.15 -114.0 -140.55 -113.0 -137.05 -109.6 -135.45 -117.75 -135.15 -120.2 -138.7 -122.7 -142.3 -122.75 -147.0 -122.85 -151.75 -119.9 -156.3 -116.65 -161.45 -107.55 -168.15 -110.3 -166.95 -115.7 -175.5 -107.7 -175.3 -107.0 -180.0 -106.3 -184.7 -108.0 -192.85 L-107.85 -192.35 Q-109.95 -199.85 -109.95 -203.1 -109.95 -213.0 -106.7 -223.95 -104.6 -231.1 -101.65 -236.6 -108.0 -237.85 -111.6 -243.1 -105.9 -245.0 -99.3 -248.55 -95.8 -250.55 -93.1 -261.15 -90.4 -271.8 -87.1 -275.8 -92.4 -278.05 -96.65 -281.0 -100.9 -284.0 -104.9 -288.85 -100.25 -291.65 -97.3 -292.25 -100.55 -294.25 -106.8 -301.25 -114.35 -309.7 -116.15 -315.5 L-106.05 -315.5 -112.05 -320.0 Q-115.45 -322.9 -120.5 -335.15 -125.55 -347.45 -118.75 -372.25 L-108.5 -361.85 -94.9 -348.6 Q-96.25 -354.65 -95.85 -363.9 -95.85 -368.45 -93.5 -374.1 -89.35 -364.9 -77.25 -352.95 -67.15 -346.0 -61.55 -345.0 -64.8 -348.15 -64.4 -355.55 L-63.95 -362.9 Q-57.05 -357.45 -52.25 -354.9 -47.5 -352.35 -35.3 -350.25 -23.15 -348.2 -7.8 -335.3 L-5.3 -332.7 Q-2.75 -336.2 1.45 -339.65 5.6 -343.1 12.5 -344.2 19.4 -345.3 29.15 -354.35 L38.9 -363.3 39.2 -360.2 Q39.45 -357.25 34.85 -348.05 L34.7 -347.75 Q45.55 -353.35 56.0 -356.8 66.45 -360.3 73.7 -369.8 80.05 -378.15 84.15 -384.45 85.3 -382.8 85.95 -380.3 L86.4 -377.25 Q86.25 -357.55 85.0 -351.7 M19.05 -323.55 Q34.1 -314.3 43.85 -315.9 46.15 -316.3 48.6 -317.55 49.95 -318.2 49.95 -317.4 49.95 -316.0 46.3 -311.15 L46.25 -311.05 48.75 -311.1 Q55.3 -311.1 60.25 -309.9 64.5 -310.4 70.0 -314.3 75.45 -318.25 77.55 -322.3 69.6 -321.0 64.25 -323.65 68.5 -326.4 72.5 -331.15 L82.3 -343.75 Q75.9 -340.15 72.8 -341.1 L75.95 -345.65 75.9 -345.9 Q75.9 -351.3 75.95 -345.65 80.65 -353.0 81.1 -370.2 75.9 -358.8 65.45 -353.45 54.95 -348.15 42.05 -342.2 29.1 -336.25 23.15 -334.85 27.3 -339.2 28.35 -346.55 21.75 -341.05 17.35 -339.6 9.4 -336.95 5.75 -334.45 2.1 -332.0 0.45 -328.65 L3.6 -328.8 Q10.2 -328.8 14.55 -326.6 L19.05 -323.55 M10.95 -319.15 L1.6 -319.95 Q-5.05 -320.15 -19.85 -316.4 -34.7 -312.65 -47.0 -306.85 -59.35 -301.05 -70.3 -296.4 -63.75 -294.45 -61.0 -291.15 -68.3 -284.8 -75.4 -277.05 -83.85 -267.85 -84.95 -265.3 -86.0 -262.8 -87.1 -258.25 L-88.85 -249.45 Q-89.5 -245.25 -99.45 -242.35 L-89.6 -242.35 -95.95 -235.8 Q-103.45 -212.4 -103.9 -206.0 -104.35 -199.6 -100.8 -188.9 -97.3 -178.25 -104.0 -173.7 L-98.2 -173.7 -98.15 -172.7 Q-98.1 -169.55 -100.45 -167.1 L-108.55 -159.2 Q-114.3 -153.8 -116.1 -150.4 -116.95 -148.8 -117.35 -147.0 -114.7 -149.75 -109.85 -153.2 -102.05 -158.65 -96.4 -161.2 L-96.3 -161.65 Q-95.5 -164.2 -94.05 -165.3 -92.9 -164.05 -92.05 -161.65 L-91.55 -159.85 -89.95 -153.1 Q-87.55 -144.65 -79.35 -140.6 L-79.35 -156.35 Q-70.5 -146.95 -65.0 -146.2 L-64.85 -150.55 Q-61.6 -147.45 -57.35 -139.75 -53.05 -151.55 -56.5 -163.55 -52.9 -159.9 -49.9 -153.0 L-49.9 -159.0 Q-51.35 -170.75 -55.15 -177.65 L-59.4 -185.2 -58.2 -185.25 Q-55.15 -185.25 -52.5 -182.55 -48.8 -182.2 -44.05 -188.2 -56.9 -185.8 -58.8 -195.2 -59.4 -198.05 -59.4 -208.2 L-59.35 -212.3 Q-64.95 -207.7 -65.0 -197.25 -67.9 -198.2 -70.95 -203.5 -74.0 -208.85 -73.85 -215.4 -73.5 -231.75 -70.8 -238.65 -68.15 -245.55 -58.8 -251.1 L-58.75 -251.1 -64.75 -237.85 Q-70.5 -224.8 -67.95 -211.7 -65.65 -215.8 -60.65 -221.3 -55.7 -226.75 -53.55 -229.65 -48.9 -235.85 -47.35 -244.9 -45.8 -240.4 -46.25 -234.2 -46.7 -228.05 -53.1 -220.8 -41.25 -227.0 -33.95 -238.85 -30.35 -244.75 -24.5 -260.7 L-24.95 -245.65 Q-25.15 -239.7 -26.3 -237.85 -18.4 -243.45 -12.1 -262.5 L-7.2 -277.6 -7.2 -277.65 -7.05 -278.15 -7.0 -277.55 Q-5.7 -260.0 -2.9 -252.85 -0.1 -245.75 0.6 -234.6 L0.6 -234.45 0.7 -234.5 Q2.75 -236.4 4.65 -241.2 6.45 -245.6 6.45 -249.3 6.45 -253.05 4.8 -258.25 3.2 -263.3 0.8 -273.85 21.75 -256.0 33.15 -239.35 35.85 -247.55 35.85 -253.2 35.85 -258.35 31.75 -266.35 L28.6 -272.45 Q40.65 -266.8 41.2 -258.65 41.7 -250.55 41.05 -246.45 49.45 -256.8 49.45 -265.85 49.45 -273.6 48.7 -277.9 53.85 -275.9 55.75 -265.8 L57.85 -256.6 Q59.1 -251.05 62.85 -247.7 66.5 -244.4 74.85 -239.3 L84.15 -233.55 Q83.65 -243.65 79.85 -259.3 86.6 -253.6 88.85 -243.75 90.0 -238.65 90.0 -231.45 87.65 -209.2 86.75 -213.1 L85.8 -217.05 85.0 -218.6 84.3 -219.95 84.25 -218.2 Q84.15 -212.5 84.6 -210.0 84.95 -208.15 90.4 -195.3 L94.3 -185.55 Q95.6 -182.05 95.6 -181.15 95.6 -172.7 85.35 -162.9 L81.8 -159.85 81.6 -159.7 72.0 -152.6 Q66.25 -148.95 59.35 -145.5 L57.95 -144.8 42.25 -137.65 Q44.7 -137.25 53.25 -141.2 L62.85 -145.65 Q63.95 -145.1 60.8 -139.65 69.6 -142.15 77.4 -150.3 L84.15 -157.85 Q85.85 -156.7 89.2 -152.9 94.85 -162.35 97.35 -167.6 99.85 -172.8 99.3 -181.55 101.85 -179.35 106.7 -171.9 105.25 -178.55 104.25 -180.9 L97.2 -193.85 Q91.2 -205.55 91.2 -211.5 91.2 -215.05 92.1 -218.55 92.5 -220.1 94.45 -225.9 92.3 -224.4 90.95 -225.25 L91.8 -226.9 Q95.0 -233.7 95.45 -243.9 95.85 -254.1 89.25 -270.1 84.5 -281.5 82.45 -284.25 84.35 -285.3 89.2 -286.5 80.25 -289.65 74.75 -292.65 70.95 -294.75 64.5 -299.2 58.3 -303.75 51.6 -305.05 44.85 -306.35 32.95 -303.95 34.8 -309.45 36.65 -310.35 25.5 -309.95 19.95 -313.9 13.6 -318.45 10.95 -319.15 M52.35 -252.3 Q47.7 -239.4 40.5 -239.4 L39.65 -239.6 Q37.85 -232.4 30.15 -226.2 29.95 -228.25 28.9 -231.9 26.1 -241.5 10.85 -255.25 14.85 -242.85 7.8 -232.65 0.75 -222.4 -7.45 -219.9 -5.7 -225.2 -5.5 -231.8 -5.25 -242.15 -8.15 -248.0 L-9.25 -250.6 Q-12.1 -244.45 -19.45 -236.4 -24.5 -230.85 -31.65 -226.5 L-31.65 -230.45 Q-41.1 -217.1 -47.15 -214.3 -53.2 -211.5 -53.4 -211.9 L-53.4 -212.6 -53.8 -205.0 Q-54.2 -199.5 -53.25 -195.65 -52.25 -191.85 -47.85 -191.7 -43.45 -191.7 -45.35 -198.2 -39.3 -195.8 -39.55 -190.6 -39.8 -185.4 -43.4 -182.2 -47.0 -179.05 -49.2 -177.8 -47.7 -175.05 -45.7 -170.0 -43.75 -164.95 -43.3 -156.25 -42.9 -148.55 -45.35 -145.65 -30.0 -135.0 -1.4 -135.0 9.35 -135.0 24.9 -139.55 39.95 -143.95 54.3 -150.95 69.25 -158.25 78.25 -165.9 88.1 -174.3 88.1 -181.0 88.1 -182.2 86.25 -186.45 L82.1 -195.95 Q76.1 -211.05 76.1 -224.15 L76.1 -231.2 74.1 -233.05 Q70.4 -236.2 64.1 -239.1 57.8 -242.05 55.65 -244.9 53.45 -247.8 52.65 -253.1 L52.35 -252.3 M-46.65 -336.8 Q-49.25 -334.95 -61.2 -337.7 -73.2 -340.55 -88.7 -354.65 -88.2 -349.85 -85.55 -338.6 -98.1 -339.55 -115.8 -357.3 -116.3 -355.85 -115.25 -344.05 -114.2 -332.3 -104.0 -322.85 -95.05 -314.55 -88.65 -313.35 -94.4 -310.95 -104.65 -310.0 -103.65 -306.35 -92.75 -298.4 -82.6 -291.0 -80.6 -290.85 -84.35 -289.0 -92.35 -286.5 L-81.6 -281.65 Q-76.8 -286.55 -71.05 -290.75 L-82.25 -295.8 Q-71.55 -306.3 -27.6 -321.75 -22.55 -322.75 -16.95 -324.7 L-9.55 -326.95 Q-18.35 -337.8 -33.1 -342.55 -47.85 -347.3 -56.7 -349.65 -56.3 -345.55 -54.75 -343.55 -53.25 -341.65 -46.65 -336.8 M-47.05 -148.1 L-47.0 -148.05 -46.75 -147.8 Q-46.9 -148.3 -47.0 -148.1 L-47.05 -148.1" fill="#000000" fill-rule="evenodd" stroke="none"/>
  </g>
</svg>
