<?xml version="1.0" encoding="UTF-8" standalone="no"?>
<svg xmlns:xlink="http://www.w3.org/1999/xlink" height="301.25px" width="236.9px" xmlns="http://www.w3.org/2000/svg">
  <g transform="matrix(1, 0, 0, 1, 119.4, 323.0)">
    <path d="M71.9 -299.35 Q83.8 -293.0 92.25 -278.4 98.6 -267.4 100.05 -258.5 102.1 -245.85 95.25 -236.95 94.1 -238.5 93.35 -240.25 L91.65 -237.75 90.6 -236.45 Q94.1 -225.65 103.2 -216.3 117.05 -202.0 117.5 -182.6 117.95 -163.15 100.65 -153.5 L100.75 -153.6 Q98.25 -151.9 94.7 -151.25 L96.25 -154.5 Q93.2 -150.15 89.15 -146.35 80.7 -138.45 69.55 -137.3 L70.5 -141.8 60.1 -136.35 Q54.0 -133.05 45.35 -132.6 47.3 -135.65 47.9 -141.0 L40.6 -137.35 Q42.95 -121.15 57.6 -103.3 72.25 -85.5 77.2 -62.85 81.35 -43.85 72.6 -31.7 67.8 -24.95 59.95 -23.5 73.75 -44.65 55.9 -63.1 38.0 -81.55 27.55 -98.05 17.05 -114.55 14.0 -130.05 2.5 -127.25 -13.55 -127.25 -22.2 -127.25 -30.45 -129.6 L-38.4 -129.35 Q-37.45 -112.95 -50.85 -95.4 -64.55 -77.45 -78.55 -60.05 -91.75 -43.7 -84.95 -21.75 -113.0 -40.9 -104.8 -67.25 -96.95 -92.4 -82.25 -103.7 -67.55 -115.05 -64.45 -122.55 -61.35 -130.1 -60.45 -136.65 L-71.8 -145.85 Q-71.25 -141.95 -69.25 -139.35 L-74.45 -139.5 Q-81.35 -139.95 -91.5 -148.9 L-95.2 -152.3 -93.85 -146.3 Q-96.1 -145.9 -101.05 -150.5 -106.0 -155.15 -108.55 -159.05 L-111.35 -163.25 -111.5 -163.45 -111.85 -163.95 -112.25 -164.35 -112.55 -164.7 -112.45 -164.6 -113.6 -166.0 -114.55 -166.65 Q-123.65 -183.6 -115.6 -200.1 -110.65 -210.25 -104.1 -219.5 L-103.4 -224.35 Q-101.6 -233.15 -98.75 -242.05 L-108.6 -241.15 Q-104.65 -244.5 -100.75 -251.1 -95.2 -260.55 -87.5 -275.3 -79.8 -290.05 -71.95 -297.35 -64.1 -304.7 -52.5 -311.35 -45.2 -315.55 -36.0 -318.25 -32.2 -319.3 -20.85 -320.85 L-4.0 -322.9 16.5 -321.85 Q27.2 -320.75 46.2 -313.1 56.75 -308.85 71.9 -299.35 M78.9 -248.65 L82.9 -236.85 83.35 -235.55 Q89.55 -250.55 79.75 -264.0 L76.3 -269.0 Q91.25 -255.75 91.1 -250.35 L91.85 -251.25 92.05 -253.0 Q93.75 -264.95 86.8 -275.35 83.65 -280.05 69.3 -290.95 53.0 -303.25 43.05 -306.35 -24.5 -327.35 -63.55 -293.35 -75.25 -283.2 -84.0 -267.4 -92.8 -251.65 -95.5 -248.4 L-95.9 -247.9 Q-88.4 -252.2 -86.75 -256.0 -87.1 -249.95 -91.2 -242.9 -95.35 -235.9 -98.1 -225.75 -94.4 -231.75 -92.95 -233.35 -78.1 -249.65 -71.7 -267.2 -65.3 -256.45 -80.3 -237.85 -95.3 -219.3 -105.9 -205.25 -116.55 -191.2 -112.1 -178.8 L-111.9 -180.0 Q-110.35 -188.4 -105.9 -195.6 -100.35 -204.5 -94.15 -210.95 L-94.1 -211.15 Q-90.55 -210.05 -98.9 -196.2 -107.3 -182.4 -105.65 -172.25 -104.0 -162.2 -101.6 -158.4 -101.15 -173.65 -95.9 -184.05 -90.7 -194.45 -90.7 -193.25 -88.85 -191.9 -92.1 -178.95 -95.35 -166.0 -88.3 -157.1 -81.25 -148.2 -77.2 -146.35 L-77.55 -153.35 Q-77.85 -159.85 -77.75 -166.5 -70.85 -154.45 -67.9 -151.3 -64.95 -148.15 -54.45 -143.15 L-52.5 -142.2 Q-64.85 -165.15 -64.1 -182.1 -63.35 -199.85 -61.3 -206.0 -66.45 -199.95 -71.45 -197.2 -76.2 -194.55 -74.85 -197.6 -65.75 -226.55 -62.45 -235.3 -58.35 -246.1 -51.3 -255.4 -41.95 -267.8 -28.0 -273.9 -38.2 -263.6 -45.95 -252.2 -52.3 -242.9 -62.45 -217.2 L-65.75 -208.9 -62.75 -212.15 -55.7 -219.05 Q-43.5 -229.85 -27.35 -237.95 -16.0 -243.65 -6.6 -253.7 2.6 -263.5 6.75 -273.9 7.8 -268.2 6.9 -262.95 L6.25 -260.1 Q5.6 -257.3 5.6 -247.95 5.55 -238.6 7.85 -234.7 L9.05 -240.9 Q9.45 -243.05 12.95 -251.75 16.45 -260.25 16.8 -260.3 18.0 -252.05 19.35 -247.0 20.7 -242.0 22.85 -235.8 24.95 -229.6 28.3 -226.0 L26.4 -236.85 Q25.65 -241.5 26.15 -249.45 26.65 -257.45 31.35 -276.75 35.95 -268.7 42.5 -260.2 49.05 -251.7 57.65 -248.45 66.25 -245.25 77.8 -234.9 74.85 -250.65 72.95 -257.3 77.1 -254.05 78.9 -248.65 M18.2 -259.9 Q18.95 -258.2 18.15 -259.95 L18.2 -259.9 M34.05 -231.3 Q35.85 -223.35 38.1 -216.75 26.65 -216.25 20.6 -227.95 17.65 -233.7 15.05 -239.6 L14.45 -235.5 Q13.65 -228.05 15.9 -221.15 16.0 -220.85 15.7 -220.4 3.2 -220.65 1.15 -234.45 -0.75 -246.9 1.4 -250.55 -4.1 -243.2 -14.7 -237.1 -27.35 -229.85 -40.25 -223.3 -49.25 -218.7 -53.55 -211.05 -56.5 -201.75 -57.65 -189.9 -58.8 -178.05 -55.9 -167.85 -53.0 -157.65 -45.5 -145.55 -31.65 -135.0 -2.8 -135.0 7.95 -135.0 23.5 -139.55 38.55 -143.95 52.9 -150.95 67.85 -158.25 76.85 -165.9 86.7 -174.3 86.7 -181.0 86.7 -182.2 84.85 -186.45 L80.7 -195.95 Q75.65 -208.6 74.85 -219.9 L74.75 -222.5 74.7 -224.15 74.7 -225.75 74.85 -226.05 75.5 -228.85 74.4 -229.65 Q59.95 -239.45 48.1 -245.75 40.2 -249.9 34.85 -258.85 32.85 -249.4 32.55 -244.35 32.25 -239.3 34.05 -231.3 M77.05 -233.1 L77.0 -233.1 77.05 -233.1 M82.9 -219.9 L82.85 -218.2 Q82.75 -212.5 83.2 -210.0 83.55 -208.15 89.0 -195.3 L92.9 -185.55 Q94.2 -182.05 94.2 -181.15 94.2 -172.7 83.95 -162.9 L78.95 -158.75 Q79.05 -158.0 78.4 -154.95 L77.0 -148.15 Q76.2 -144.45 75.75 -143.8 82.95 -150.9 90.25 -159.0 97.55 -167.15 99.0 -183.0 L99.85 -195.3 Q102.0 -191.25 103.6 -187.05 106.95 -178.05 103.8 -162.8 111.3 -169.25 110.15 -183.95 108.95 -198.7 99.4 -207.8 89.8 -216.9 86.7 -226.75 86.9 -221.05 89.35 -215.35 84.95 -217.0 82.9 -219.9 M70.6 -152.6 Q64.85 -148.95 57.95 -145.5 L52.45 -142.85 Q53.1 -142.15 53.0 -141.05 L60.5 -144.8 Q67.75 -148.25 72.9 -154.25 L70.6 -152.6 M20.5 -131.15 Q22.1 -110.35 40.3 -89.8 58.45 -69.25 64.95 -59.35 71.45 -49.45 70.05 -36.5 76.2 -51.7 69.4 -70.65 62.55 -89.65 49.45 -104.45 36.3 -119.3 35.1 -135.35 33.8 -135.45 20.5 -131.15 M-55.3 -142.4 L-55.5 -142.5 -55.4 -142.2 -55.3 -142.4 M-54.3 -133.3 L-54.55 -133.45 Q-55.0 -118.4 -72.8 -103.4 -90.65 -88.45 -97.6 -69.6 -104.55 -50.75 -92.15 -33.65 -94.1 -42.5 -90.65 -51.15 -87.25 -59.85 -80.35 -68.9 L-58.2 -96.85 Q-43.0 -115.8 -44.5 -132.75 L-44.95 -133.0 -54.3 -133.3" fill="#000000" fill-rule="evenodd" stroke="none"/>
  </g>
</svg>
