<?xml version="1.0" encoding="UTF-8" standalone="no"?>
<svg xmlns:xlink="http://www.w3.org/1999/xlink" height="214.1px" width="336.95px" xmlns="http://www.w3.org/2000/svg">
  <g transform="matrix(1, 0, 0, 1, 174.4, 330.0)">
    <path d="M46.9 -315.75 Q38.3 -320.45 17.45 -321.6 -3.45 -322.75 -27.3 -318.7 -33.25 -317.65 -47.0 -314.05 -49.3 -313.35 -57.1 -309.1 -57.2 -310.25 -64.8 -301.85 -72.4 -293.45 -87.15 -270.85 -101.95 -248.25 -102.8 -225.6 -103.65 -202.95 -97.25 -185.3 -95.1 -179.45 -90.0 -167.65 -83.95 -153.6 -80.85 -145.8 -80.55 -147.85 -81.2 -155.25 -81.15 -161.6 -77.05 -161.6 -73.05 -154.9 -66.1 -146.9 -52.15 -130.85 -36.3 -124.45 L-39.35 -130.25 Q-40.5 -132.45 -40.85 -134.35 -43.85 -135.9 -46.75 -137.75 L-48.65 -139.05 Q-49.5 -137.6 -51.65 -137.6 -53.95 -137.6 -59.05 -147.7 L-63.1 -151.3 Q-63.2 -154.3 -62.75 -155.5 L-62.85 -155.85 Q-65.7 -162.45 -66.25 -166.25 -67.85 -176.8 -69.0 -182.7 L-69.25 -186.3 Q-70.85 -179.9 -71.45 -179.9 -73.45 -179.9 -75.1 -182.4 L-72.9 -204.8 Q-69.95 -220.25 -55.6 -247.35 -50.1 -257.8 -45.25 -265.3 L-40.5 -272.55 -39.4 -272.65 -39.05 -272.65 -37.5 -272.3 -36.3 -271.45 -36.25 -270.75 -36.2 -270.6 Q-35.95 -269.85 -35.95 -268.25 L-36.15 -267.0 -35.95 -248.15 Q-30.65 -260.3 -21.4 -275.2 -12.7 -289.3 -7.9 -292.4 L-5.55 -293.25 Q2.05 -279.5 6.0 -270.05 14.9 -248.55 20.4 -232.15 L20.9 -232.15 Q21.1 -238.45 21.85 -252.7 21.85 -261.05 19.5 -271.85 L17.1 -281.9 Q17.1 -285.8 20.65 -285.8 21.35 -285.8 34.55 -268.55 49.4 -249.05 55.9 -242.7 54.25 -251.55 47.2 -268.6 L41.2 -283.35 40.6 -284.75 40.6 -285.05 40.6 -285.1 Q40.6 -288.65 44.15 -288.65 L48.7 -285.75 Q53.2 -281.4 60.9 -270.35 73.45 -252.4 78.95 -239.4 L86.8 -217.4 Q85.95 -215.05 84.25 -214.75 84.3 -211.65 84.6 -210.0 84.95 -208.15 90.4 -195.3 L94.3 -185.55 Q95.6 -182.05 95.6 -181.15 95.6 -172.7 85.35 -162.9 82.0 -159.7 72.0 -152.6 66.25 -148.95 59.35 -145.5 L54.6 -143.2 52.0 -137.3 48.45 -130.0 Q52.55 -131.3 64.0 -141.45 L75.25 -151.25 Q79.3 -151.25 79.4 -145.1 L78.7 -137.35 78.7 -136.9 78.95 -137.1 Q84.2 -142.3 93.05 -163.6 101.85 -184.75 101.85 -191.15 101.85 -197.8 91.4 -244.7 91.4 -249.1 95.45 -249.1 97.0 -249.1 98.5 -248.15 L101.25 -246.25 81.45 -277.65 Q71.4 -293.35 63.45 -302.2 55.5 -311.1 46.9 -315.75 M58.15 -317.25 Q74.1 -306.35 87.0 -283.9 113.6 -241.65 113.6 -236.65 113.6 -230.7 110.05 -230.7 107.7 -230.7 105.1 -233.6 101.95 -237.15 100.7 -237.7 103.7 -231.5 106.05 -213.3 107.0 -206.0 107.7 -201.45 L107.7 -201.2 108.55 -189.25 Q108.0 -184.5 106.55 -178.35 102.75 -166.9 91.6 -143.4 78.7 -116.2 74.9 -120.8 71.1 -125.4 70.9 -130.1 70.8 -132.6 71.7 -136.4 L71.45 -137.0 Q68.3 -133.5 59.6 -127.9 48.4 -120.65 41.8 -120.65 38.55 -120.65 37.9 -122.7 37.55 -123.75 37.85 -125.0 37.85 -126.55 44.4 -138.0 L45.05 -139.1 Q35.1 -135.2 24.5 -132.4 4.95 -127.25 -12.15 -127.25 -21.7 -127.25 -30.75 -130.15 -29.2 -126.25 -27.4 -120.75 -27.4 -117.95 -28.6 -116.85 -29.7 -115.9 -32.4 -115.9 -43.6 -115.9 -57.1 -126.15 -64.3 -131.6 -73.6 -140.6 -72.95 -137.35 -73.1 -134.85 -73.3 -130.0 -77.05 -130.0 -82.85 -130.0 -90.75 -148.4 -95.0 -158.35 -101.05 -175.75 -107.2 -190.95 -108.45 -199.85 -109.75 -208.75 -109.8 -220.2 -109.85 -231.65 -104.75 -246.65 -99.65 -261.7 -91.2 -277.35 -82.6 -293.25 -74.5 -303.2 -71.0 -307.45 -68.0 -310.05 -65.6 -315.4 -48.15 -320.85 -28.8 -326.95 -3.65 -329.5 L12.7 -330.0 Q39.4 -330.0 58.15 -317.25 M58.75 -259.4 Q60.55 -252.15 62.15 -243.7 L63.65 -235.2 63.65 -229.55 Q63.05 -226.1 59.7 -226.1 58.75 -226.1 46.1 -241.85 31.5 -259.95 28.6 -263.0 29.65 -252.55 28.05 -236.5 25.8 -213.85 25.65 -209.35 24.9 -208.15 22.55 -208.15 22.1 -208.15 21.85 -207.7 18.75 -216.7 11.25 -236.05 -2.8 -272.1 -7.7 -281.0 L-11.9 -275.15 Q-22.8 -260.0 -26.2 -252.7 -28.15 -248.55 -32.15 -231.5 -35.65 -216.6 -36.65 -216.6 -41.85 -216.6 -42.95 -234.2 -43.45 -243.05 -42.95 -252.1 L-42.95 -252.5 -43.1 -252.2 -46.95 -245.35 Q-58.45 -225.75 -59.45 -223.45 L-61.25 -218.75 -60.65 -217.5 -60.4 -214.8 Q-62.3 -197.1 -62.3 -194.75 -62.3 -174.5 -55.15 -159.1 L-54.25 -157.35 -49.15 -150.35 Q-36.2 -135.0 -1.4 -135.0 9.35 -135.0 24.9 -139.55 39.95 -143.95 54.3 -150.95 69.25 -158.25 78.25 -165.9 88.1 -174.3 88.1 -181.0 88.1 -182.2 86.25 -186.45 L82.1 -195.95 Q76.1 -211.05 76.1 -224.15 L76.1 -224.8 74.1 -229.55 69.65 -241.3 Q67.2 -247.6 65.75 -249.85 L58.75 -259.4" fill="#000000" fill-rule="evenodd" stroke="none"/>
    <path d="M98.65 -305.55 Q93.45 -310.35 86.4 -311.55 L80.6 -312.4 Q73.4 -313.35 67.6 -309.65 L67.55 -309.55 Q78.0 -299.55 87.0 -283.9 113.6 -241.65 113.6 -236.65 113.6 -230.7 110.05 -230.7 107.7 -230.7 105.1 -233.6 101.95 -237.15 100.7 -237.7 103.7 -231.5 106.05 -213.3 107.0 -206.0 107.7 -201.45 L107.7 -201.2 108.55 -189.25 Q108.0 -184.5 106.55 -178.35 L105.85 -176.35 109.8 -182.1 Q114.45 -181.2 116.35 -176.0 L121.35 -162.55 126.95 -180.6 Q132.75 -200.15 123.5 -218.25 121.1 -222.95 125.95 -224.65 L145.35 -215.25 Q134.35 -231.85 126.8 -250.15 L110.7 -288.5 Q106.55 -298.35 98.65 -305.55 M162.55 -205.0 L162.45 -203.9 Q162.2 -201.25 159.5 -200.6 156.55 -201.05 153.95 -202.4 144.45 -207.3 134.5 -211.0 135.2 -208.9 135.45 -206.5 135.85 -203.2 135.65 -199.95 134.0 -176.3 124.95 -154.45 123.45 -150.8 119.85 -150.2 117.6 -149.95 116.6 -152.15 112.6 -160.85 110.05 -170.05 107.2 -165.4 103.35 -161.6 101.5 -159.75 99.4 -160.3 L91.6 -143.4 Q78.7 -116.2 74.9 -120.8 71.1 -125.4 70.9 -130.1 70.8 -132.6 71.7 -136.4 L71.45 -137.0 Q68.3 -133.5 59.6 -127.9 48.4 -120.65 41.8 -120.65 38.55 -120.65 37.9 -122.7 37.55 -123.75 37.85 -125.0 37.85 -126.55 44.4 -138.0 L45.05 -139.1 Q35.1 -135.2 24.5 -132.4 4.95 -127.25 -12.15 -127.25 -21.7 -127.25 -30.75 -130.15 -29.2 -126.25 -27.4 -120.75 -27.4 -117.95 -28.6 -116.85 -29.7 -115.9 -32.4 -115.9 -43.6 -115.9 -57.1 -126.15 -64.3 -131.6 -73.6 -140.6 -72.95 -137.35 -73.1 -134.85 -73.3 -130.0 -77.05 -130.0 -82.7 -130.0 -90.3 -147.4 L-94.55 -147.7 Q-99.5 -148.85 -103.4 -152.2 L-102.95 -150.3 -102.65 -148.5 -102.55 -146.75 Q-102.55 -144.2 -103.45 -141.95 L-104.5 -139.6 Q-131.2 -153.15 -140.7 -176.8 -150.2 -200.5 -145.95 -209.55 L-171.3 -200.7 -173.4 -201.45 -174.4 -203.4 Q-143.7 -251.25 -134.15 -281.5 -124.65 -311.75 -111.35 -316.35 -98.05 -320.95 -79.65 -314.8 -74.1 -312.95 -70.1 -308.65 L-70.15 -308.05 -68.0 -310.05 Q-65.6 -315.4 -48.15 -320.85 -28.8 -326.95 -3.65 -329.5 L12.7 -330.0 Q39.4 -330.0 58.15 -317.25 L62.25 -314.2 Q63.1 -315.35 64.65 -316.05 73.45 -319.85 83.2 -318.95 104.05 -318.55 113.8 -300.55 L130.8 -260.05 130.0 -261.4 130.85 -258.85 Q137.95 -237.3 151.55 -219.55 L162.55 -205.0 M46.9 -315.75 Q38.3 -320.45 17.45 -321.6 -3.45 -322.75 -27.3 -318.7 -33.25 -317.65 -47.0 -314.05 -49.3 -313.35 -57.1 -309.1 -57.2 -310.25 -64.8 -301.85 -72.4 -293.45 -87.15 -270.85 -101.95 -248.25 -102.8 -225.6 -103.65 -202.95 -97.25 -185.3 -95.1 -179.45 -90.0 -167.65 -83.95 -153.6 -80.85 -145.8 -80.55 -147.85 -81.2 -155.25 -81.15 -161.6 -77.05 -161.6 -73.05 -154.9 -66.1 -146.9 -52.15 -130.85 -36.3 -124.45 L-39.35 -130.25 Q-40.5 -132.45 -40.85 -134.35 -43.85 -135.9 -46.75 -137.75 L-48.65 -139.05 Q-49.5 -137.6 -51.65 -137.6 -53.95 -137.6 -59.05 -147.7 L-63.1 -151.3 Q-63.2 -154.3 -62.75 -155.5 L-62.85 -155.85 Q-65.7 -162.45 -66.25 -166.25 -67.85 -176.8 -69.0 -182.7 L-69.25 -186.3 Q-70.85 -179.9 -71.45 -179.9 -73.45 -179.9 -75.1 -182.4 L-72.9 -204.8 Q-69.95 -220.25 -55.6 -247.35 -50.1 -257.8 -45.25 -265.3 L-40.5 -272.55 -39.4 -272.65 -39.05 -272.65 -37.5 -272.3 -36.3 -271.45 -36.25 -270.75 -36.2 -270.6 Q-35.95 -269.85 -35.95 -268.25 L-36.15 -267.0 -35.95 -248.15 Q-30.65 -260.3 -21.4 -275.2 -12.7 -289.3 -7.9 -292.4 L-5.55 -293.25 Q2.05 -279.5 6.0 -270.05 14.9 -248.55 20.4 -232.15 L20.9 -232.15 Q21.1 -238.45 21.85 -252.7 21.85 -261.05 19.5 -271.85 L17.1 -281.9 Q17.1 -285.8 20.65 -285.8 21.35 -285.8 34.55 -268.55 49.4 -249.05 55.9 -242.7 54.25 -251.55 47.2 -268.6 L41.2 -283.35 40.6 -284.75 40.6 -285.05 40.6 -285.1 Q40.6 -288.65 44.15 -288.65 L48.7 -285.75 Q53.2 -281.4 60.9 -270.35 73.45 -252.4 78.95 -239.4 L86.8 -217.4 Q85.95 -215.05 84.25 -214.75 84.3 -211.65 84.6 -210.0 84.95 -208.15 90.4 -195.3 L94.3 -185.55 Q95.6 -182.05 95.6 -181.15 95.6 -172.7 85.35 -162.9 82.0 -159.7 72.0 -152.6 66.25 -148.95 59.35 -145.5 L54.6 -143.2 52.0 -137.3 48.45 -130.0 Q52.55 -131.3 64.0 -141.45 L75.25 -151.25 Q79.3 -151.25 79.4 -145.1 L78.7 -137.35 78.7 -136.9 78.95 -137.1 Q84.2 -142.3 93.05 -163.6 101.85 -184.75 101.85 -191.15 101.85 -197.8 91.4 -244.7 91.4 -249.1 95.45 -249.1 97.0 -249.1 98.5 -248.15 L101.25 -246.25 81.45 -277.65 Q71.4 -293.35 63.45 -302.2 55.5 -311.1 46.9 -315.75 M58.75 -259.4 Q60.55 -252.15 62.15 -243.7 L63.65 -235.2 63.65 -229.55 Q63.05 -226.1 59.7 -226.1 58.75 -226.1 46.1 -241.85 31.5 -259.95 28.6 -263.0 29.65 -252.55 28.05 -236.5 25.8 -213.85 25.65 -209.35 24.9 -208.15 22.55 -208.15 22.1 -208.15 21.85 -207.7 18.75 -216.7 11.25 -236.05 -2.8 -272.1 -7.7 -281.0 L-11.9 -275.15 Q-22.8 -260.0 -26.2 -252.7 -28.15 -248.55 -32.15 -231.5 -35.65 -216.6 -36.65 -216.6 -41.85 -216.6 -42.95 -234.2 -43.45 -243.05 -42.95 -252.1 L-42.95 -252.5 -43.1 -252.2 -46.95 -245.35 Q-58.45 -225.75 -59.45 -223.45 L-61.25 -218.75 -60.65 -217.5 -60.4 -214.8 Q-62.3 -197.1 -62.3 -194.75 -62.3 -174.5 -55.15 -159.1 L-54.25 -157.35 -49.15 -150.35 Q-36.2 -135.0 -1.4 -135.0 9.35 -135.0 24.9 -139.55 39.95 -143.95 54.3 -150.95 69.25 -158.25 78.25 -165.9 88.1 -174.3 88.1 -181.0 88.1 -182.2 86.25 -186.45 L82.1 -195.95 Q76.1 -211.05 76.1 -224.15 L76.1 -224.8 74.1 -229.55 69.65 -241.3 Q67.2 -247.6 65.75 -249.85 L58.75 -259.4 M-74.35 -303.35 L-83.6 -310.5 Q-117.85 -321.3 -127.95 -282.0 -138.1 -242.7 -163.1 -210.05 L-137.0 -224.65 -134.45 -223.55 Q-146.85 -199.05 -134.05 -175.9 -127.5 -164.0 -116.9 -155.55 L-110.8 -150.8 -110.55 -150.65 -110.55 -151.15 -110.65 -152.9 -110.95 -154.55 Q-111.5 -156.8 -110.8 -158.8 -109.7 -161.95 -106.25 -162.5 L-93.3 -154.7 Q-96.75 -163.3 -101.05 -175.75 -107.2 -190.95 -108.45 -199.85 -109.75 -208.75 -109.8 -220.2 -109.85 -231.65 -104.75 -246.65 -99.65 -261.7 -91.2 -277.35 -82.6 -293.25 -74.5 -303.2 L-74.35 -303.35" fill="#000000" fill-rule="evenodd" stroke="none"/>
  </g>
</svg>
