<?xml version="1.0" encoding="UTF-8" standalone="no"?>
<svg xmlns:xlink="http://www.w3.org/1999/xlink" height="219.7px" width="237.45px" xmlns="http://www.w3.org/2000/svg">
  <g transform="matrix(1, 0, 0, 1, 118.25, 326.2)">
    <path d="M30.9 -324.75 Q42.95 -323.05 51.7 -318.45 60.5 -313.8 69.6 -304.3 77.55 -296.05 90.0 -279.4 108.85 -254.2 108.85 -231.2 106.0 -200.05 106.0 -196.5 106.0 -178.75 112.6 -166.55 L117.15 -157.9 Q119.2 -152.95 119.2 -147.1 108.3 -119.7 102.6 -119.7 98.5 -119.7 98.35 -122.85 98.25 -124.6 99.0 -127.85 L98.55 -128.35 Q92.7 -116.85 88.35 -116.85 86.25 -116.85 83.45 -121.85 L82.25 -124.15 82.05 -124.1 Q78.1 -122.55 74.2 -122.55 70.15 -122.55 67.9 -123.85 63.55 -118.75 62.9 -118.75 60.1 -118.75 59.5 -121.4 59.2 -122.7 59.45 -124.2 L60.4 -127.8 Q58.35 -129.45 54.95 -132.85 L51.7 -128.85 Q50.2 -127.15 47.95 -127.15 44.15 -127.15 39.2 -132.2 37.0 -134.45 35.95 -135.8 30.35 -133.95 24.5 -132.4 4.95 -127.25 -12.15 -127.25 -26.9 -127.25 -40.45 -134.15 L-42.7 -132.15 -46.35 -129.0 -45.6 -127.1 Q-42.5 -119.2 -42.5 -115.5 -42.5 -111.15 -46.05 -111.15 -49.8 -111.15 -58.35 -121.75 -59.2 -119.8 -60.8 -116.85 L-61.85 -114.95 -61.35 -114.55 Q-61.35 -111.85 -64.15 -111.25 -64.3 -111.15 -64.35 -111.15 L-65.0 -111.15 -65.75 -111.15 Q-69.85 -111.15 -73.75 -114.55 L-79.2 -119.2 Q-78.25 -115.0 -78.35 -112.1 -78.5 -106.5 -83.7 -106.5 -86.55 -106.5 -96.9 -114.4 -107.05 -122.2 -111.35 -127.4 -116.5 -133.6 -117.65 -137.8 -118.25 -140.0 -118.25 -147.6 -118.25 -153.9 -115.3 -169.1 -112.7 -182.3 -113.75 -190.2 -117.05 -214.65 -112.8 -232.6 -110.7 -241.35 -105.15 -255.1 -99.3 -269.55 -92.4 -282.65 -83.2 -300.15 -75.9 -308.4 -74.7 -314.5 -59.5 -319.4 -38.2 -326.2 1.9 -326.2 L30.9 -324.75 M31.7 -318.95 Q-41.05 -318.95 -60.45 -311.75 -70.2 -307.25 -73.75 -298.55 -77.35 -289.85 -88.4 -272.65 -99.45 -255.45 -106.25 -229.3 -108.35 -221.25 -107.8 -209.0 -106.7 -195.0 -106.5 -188.3 -106.3 -181.85 -108.7 -167.8 -111.15 -153.3 -111.15 -147.45 -111.15 -138.7 -105.85 -131.9 -100.4 -124.95 -86.45 -116.1 -86.25 -118.35 -86.0 -125.5 -85.25 -131.45 -81.8 -131.45 L-67.7 -119.85 -65.75 -123.75 Q-64.2 -126.45 -62.85 -127.65 -73.0 -141.45 -88.35 -166.7 -95.6 -178.9 -98.3 -194.05 -100.3 -205.1 -100.3 -221.45 L-100.3 -231.0 Q-99.75 -238.65 -96.9 -238.65 -95.3 -238.65 -93.15 -218.4 -90.65 -194.35 -88.55 -187.35 -83.6 -170.65 -57.8 -136.4 L-66.6 -161.35 Q-68.7 -168.7 -69.2 -177.7 -70.05 -177.05 -71.45 -177.05 -76.8 -177.05 -80.65 -201.3 -82.6 -213.45 -83.45 -225.85 L-83.35 -232.65 Q-83.15 -239.95 -82.5 -246.05 -80.5 -265.05 -75.15 -265.05 -72.7 -265.05 -71.95 -262.7 L-71.7 -260.05 -74.0 -248.2 Q-76.35 -236.9 -76.35 -226.2 -76.35 -213.2 -72.1 -199.15 L-70.2 -192.8 Q-67.3 -212.1 -63.6 -220.5 -59.9 -228.95 -56.65 -238.55 -53.4 -248.15 -44.2 -268.8 -35.0 -289.5 -32.8 -289.5 -30.65 -289.5 -26.1 -272.4 -21.85 -256.55 -21.85 -246.05 L-21.85 -245.8 -21.7 -245.95 Q-17.1 -253.1 -15.45 -261.3 -14.35 -266.6 -14.35 -273.8 L-14.7 -275.0 -14.4 -277.0 -14.45 -277.95 Q-13.7 -279.05 -11.55 -279.15 L-11.25 -279.15 Q-9.85 -279.15 -8.9 -278.1 -4.6 -274.4 1.95 -257.8 10.9 -232.9 14.1 -225.7 14.25 -231.85 15.2 -245.1 15.2 -253.65 10.5 -264.2 L7.25 -271.2 Q5.8 -274.55 5.8 -276.2 5.3 -280.1 9.35 -280.1 17.5 -280.1 40.1 -247.95 L40.6 -247.95 39.9 -265.75 Q39.95 -271.65 40.8 -274.95 L40.6 -275.35 Q40.6 -279.1 44.1 -279.15 L44.15 -279.15 46.05 -277.85 Q49.45 -274.65 58.1 -263.25 68.3 -249.85 76.0 -238.45 L84.4 -226.3 84.25 -218.2 Q84.15 -212.5 84.6 -210.0 84.9 -208.55 88.4 -200.1 L88.55 -219.9 88.55 -234.75 Q88.55 -238.35 87.2 -242.85 85.85 -247.4 85.85 -249.6 85.85 -250.65 86.7 -251.65 87.75 -252.8 89.3 -252.8 94.65 -252.8 95.7 -236.65 96.05 -231.6 95.9 -225.5 L95.7 -220.25 Q96.1 -197.85 95.2 -182.9 L95.6 -181.15 Q95.6 -178.65 94.7 -176.0 L93.8 -168.35 Q92.15 -156.8 77.95 -136.85 L73.05 -130.2 78.05 -130.75 81.8 -131.45 Q84.65 -131.45 85.75 -130.15 87.0 -129.45 88.9 -127.15 90.3 -128.8 93.15 -133.8 96.15 -137.95 100.2 -137.95 102.65 -137.95 103.7 -136.85 L105.05 -135.0 110.6 -142.0 Q112.2 -144.5 112.2 -147.6 112.2 -150.15 110.15 -155.25 L105.6 -165.95 Q99.0 -182.2 99.0 -196.25 99.0 -202.1 101.85 -231.55 101.85 -245.25 93.6 -261.55 86.35 -275.95 74.05 -289.75 62.7 -302.55 50.85 -310.75 38.95 -318.95 31.7 -318.95 M47.95 -264.6 L47.7 -255.05 Q48.9 -230.7 44.15 -230.7 42.2 -230.7 32.6 -244.05 21.75 -259.15 19.45 -261.25 21.75 -255.35 22.15 -252.85 L22.3 -245.1 Q22.2 -232.6 21.15 -220.35 19.0 -195.9 14.1 -195.9 12.7 -195.9 12.2 -196.25 L10.8 -197.1 Q10.35 -214.05 -2.25 -245.25 -4.7 -251.4 -9.1 -261.5 -11.25 -254.4 -16.6 -239.15 -26.15 -211.85 -30.0 -211.85 L-31.95 -212.2 -33.35 -213.0 -33.6 -217.3 -31.2 -227.9 Q-28.85 -238.8 -28.85 -244.15 -28.85 -258.1 -33.8 -269.55 -36.85 -263.4 -43.35 -247.65 -49.9 -231.75 -53.55 -224.4 -58.0 -215.5 -62.3 -182.3 -62.15 -174.85 -59.8 -165.45 -51.35 -152.95 -49.15 -150.35 -36.2 -135.0 -1.4 -135.0 9.35 -135.0 24.9 -139.55 39.95 -143.95 54.3 -150.95 69.25 -158.25 78.25 -165.9 84.7 -171.4 86.95 -176.15 L87.2 -178.2 87.65 -182.9 86.25 -186.45 82.1 -195.95 Q76.1 -211.05 76.1 -224.15 L76.1 -225.8 Q71.2 -231.95 59.25 -248.7 L47.95 -264.6 M72.55 -150.35 L71.25 -142.7 71.45 -142.5 Q79.5 -147.95 83.75 -161.45 80.1 -158.35 72.4 -152.85 L72.55 -150.35 M53.35 -142.6 Q49.1 -140.7 44.7 -138.95 L44.45 -138.85 44.5 -138.75 44.95 -138.3 Q47.05 -135.85 47.5 -135.85 49.1 -135.85 50.65 -139.25 51.85 -141.85 53.45 -142.45 L54.5 -142.7 Q57.15 -142.7 62.5 -135.85 L66.15 -149.1 59.35 -145.5 53.35 -142.6 M-47.75 -138.4 L-51.45 -141.25 -49.5 -136.6 -48.7 -137.5 -47.75 -138.4" fill="#000000" fill-rule="evenodd" stroke="none"/>
  </g>
</svg>
