<?xml version="1.0" encoding="UTF-8" standalone="no"?>
<svg xmlns:xlink="http://www.w3.org/1999/xlink" height="283.7px" width="237.85px" xmlns="http://www.w3.org/2000/svg">
  <g transform="matrix(1, 0, 0, 1, 115.8, 330.0)">
    <path d="M34.6 -312.05 Q33.6 -310.75 32.4 -310.75 30.35 -310.75 29.25 -311.55 27.45 -312.8 26.1 -313.3 18.85 -315.85 -7.6 -315.85 -57.85 -315.85 -75.3 -294.0 -77.9 -290.75 -80.65 -286.0 L-84.0 -280.1 Q-81.6 -280.05 -80.65 -278.4 -80.15 -277.7 -80.15 -276.45 -80.15 -275.6 -80.45 -274.9 -81.7 -271.25 -87.3 -261.4 -95.2 -247.4 -97.35 -238.05 -97.85 -235.9 -98.9 -220.15 -99.95 -204.65 -99.95 -199.95 -100.2 -178.6 -99.0 -168.15 -98.1 -159.6 -90.4 -148.4 L-85.3 -141.25 -84.0 -139.35 Q-76.35 -135.0 -75.05 -134.5 -66.85 -131.4 -64.85 -129.5 -57.2 -128.75 -47.2 -138.05 -51.0 -140.6 -59.65 -148.25 L-59.9 -146.75 -60.65 -142.8 -63.85 -137.5 -64.0 -137.5 -65.8 -137.8 -67.2 -138.7 -67.05 -139.25 Q-68.15 -141.35 -67.45 -145.8 -67.45 -150.95 -66.15 -155.8 L-66.6 -157.75 Q-68.2 -164.1 -73.2 -170.95 L-81.35 -181.75 Q-85.35 -187.9 -85.35 -193.8 -86.55 -201.95 -81.8 -201.95 -81.4 -201.95 -76.25 -191.2 -70.65 -179.55 -69.1 -177.5 -63.75 -170.2 -61.8 -166.4 L-61.7 -166.2 -61.45 -166.65 Q-57.8 -172.45 -57.3 -173.45 -55.45 -177.2 -55.45 -181.05 -55.45 -182.05 -57.05 -184.5 L-60.5 -189.85 Q-65.55 -198.3 -65.55 -206.5 -62.25 -227.4 -55.7 -229.15 L-51.3 -233.35 Q-45.4 -238.65 -43.7 -238.65 -40.8 -238.65 -40.0 -236.4 L-39.75 -234.05 -39.5 -233.8 Q-39.05 -234.1 -34.15 -240.5 -30.45 -245.3 -27.15 -245.3 L-26.95 -245.3 -26.7 -245.3 Q-24.35 -245.3 -22.7 -243.15 L-21.1 -240.55 Q-18.9 -241.85 -12.25 -248.9 -6.7 -254.7 -4.25 -254.7 -1.85 -254.7 2.05 -249.05 6.45 -242.7 8.15 -241.75 8.65 -242.75 8.05 -247.55 8.1 -251.85 12.1 -251.85 L12.5 -251.8 13.05 -251.85 Q15.75 -251.85 28.1 -246.5 28.25 -247.25 27.65 -254.05 27.85 -260.4 31.9 -260.4 32.75 -260.4 39.05 -255.8 44.95 -251.45 47.85 -248.9 48.35 -249.3 48.7 -250.65 49.35 -251.85 51.65 -251.85 54.8 -251.85 55.35 -249.05 L56.75 -249.1 Q72.7 -249.1 93.55 -226.3 101.6 -217.5 107.15 -208.6 112.55 -199.95 112.55 -196.15 113.55 -199.1 114.3 -204.8 L114.95 -211.95 Q114.95 -228.9 104.15 -247.35 L96.7 -259.0 Q93.3 -264.2 93.3 -265.85 93.3 -266.9 93.55 -267.65 L93.05 -269.5 Q92.4 -272.6 92.15 -277.25 90.25 -275.85 88.35 -275.85 87.45 -275.85 78.8 -285.25 L67.2 -297.55 Q63.15 -301.25 53.4 -306.3 L36.8 -314.9 34.6 -312.05 M23.0 -322.05 L21.35 -323.6 Q20.9 -324.35 20.9 -325.95 20.9 -330.0 25.25 -330.0 29.25 -330.0 51.95 -315.9 76.9 -300.45 87.6 -289.0 89.5 -291.4 91.65 -291.4 96.2 -291.4 99.15 -279.85 L101.25 -268.0 101.2 -266.75 Q103.85 -263.8 107.6 -257.85 114.1 -247.55 116.6 -241.05 121.1 -229.5 121.75 -225.6 122.05 -223.65 122.05 -212.55 120.85 -201.15 118.25 -190.25 113.1 -168.6 106.25 -168.6 L104.35 -168.95 102.95 -169.8 Q102.7 -171.2 102.7 -174.05 102.7 -175.15 104.15 -180.8 105.55 -186.45 105.55 -192.0 105.55 -199.35 101.65 -205.3 L97.15 -211.65 Q93.75 -216.35 91.2 -220.6 90.45 -221.85 84.4 -225.65 L84.25 -218.2 Q84.15 -212.5 84.6 -210.0 84.95 -208.15 90.4 -195.3 L94.3 -185.55 Q95.6 -182.05 95.6 -181.15 95.6 -172.7 85.35 -162.9 82.0 -159.7 72.0 -152.6 66.25 -148.95 59.35 -145.5 52.6 -142.1 45.5 -139.25 L38.0 -136.5 Q31.4 -134.2 24.5 -132.4 4.95 -127.25 -12.15 -127.25 -18.45 -127.25 -24.5 -128.5 -29.05 -129.45 -33.5 -131.1 -36.5 -132.2 -39.45 -133.65 -41.15 -131.55 -44.7 -129.05 -52.55 -123.5 -61.15 -123.5 -63.55 -123.5 -68.8 -122.15 -67.75 -122.35 -68.15 -121.85 -70.3 -119.35 -72.05 -118.1 -71.05 -115.55 -70.75 -110.75 L-70.75 -100.45 Q-70.75 -98.55 -78.5 -72.65 -86.4 -46.3 -87.5 -46.3 -93.1 -46.3 -99.75 -63.3 -106.0 -79.35 -106.0 -89.75 L-106.25 -90.45 Q-107.6 -89.8 -108.55 -87.45 -109.3 -85.7 -111.95 -85.7 -116.85 -85.7 -115.5 -90.1 -101.55 -125.9 -93.8 -131.4 L-91.4 -135.05 Q-94.9 -138.1 -98.75 -145.35 -104.85 -156.85 -106.0 -166.45 -107.35 -176.9 -106.95 -199.7 -106.95 -204.15 -105.75 -221.2 -104.55 -238.1 -104.1 -240.55 -102.45 -249.85 -96.3 -263.8 L-92.15 -272.15 -92.25 -272.15 -94.3 -272.2 -95.45 -272.15 Q-98.25 -272.15 -99.15 -273.55 L-99.25 -273.65 -99.4 -274.05 Q-99.7 -274.95 -99.5 -276.2 L-99.4 -276.3 -98.35 -278.25 Q-88.85 -294.9 -70.15 -308.1 -30.65 -336.0 21.35 -322.05 L23.0 -322.05 M31.45 -237.25 Q28.85 -237.25 18.55 -242.55 L15.9 -243.9 15.65 -240.8 Q16.85 -229.75 12.1 -229.75 10.3 -229.75 3.1 -236.4 L-4.75 -244.15 -21.6 -229.75 Q-23.2 -229.75 -27.1 -235.5 L-27.35 -235.9 -31.45 -230.7 Q-39.75 -220.4 -43.2 -220.4 L-45.15 -220.7 -46.55 -221.55 Q-46.75 -222.85 -46.75 -227.15 L-49.8 -225.05 -51.7 -223.9 -54.75 -217.7 Q-58.5 -210.5 -58.5 -206.6 -58.5 -198.85 -53.35 -191.9 L-49.8 -186.95 Q-48.2 -184.2 -48.2 -181.55 -48.2 -178.5 -51.85 -170.0 -54.45 -164.05 -56.45 -160.5 L-49.15 -150.35 Q-42.4 -142.35 -29.65 -138.5 L-24.5 -137.15 Q-14.5 -135.0 -1.4 -135.0 8.05 -135.0 21.15 -138.5 L24.9 -139.55 Q31.6 -141.5 38.2 -144.0 46.35 -147.1 54.3 -150.95 69.25 -158.25 78.25 -165.9 88.1 -174.3 88.1 -181.0 88.1 -182.2 86.25 -186.45 L82.1 -195.95 Q76.1 -211.05 76.1 -224.15 L76.1 -230.6 69.7 -234.25 55.0 -242.5 Q54.85 -241.4 54.5 -240.8 53.55 -239.15 50.7 -239.15 47.25 -239.15 42.2 -242.95 36.45 -247.35 35.35 -247.7 36.0 -244.6 35.85 -242.1 35.55 -237.25 31.45 -237.25 M-73.85 -126.7 L-73.6 -126.9 -73.8 -126.9 Q-77.5 -127.4 -81.9 -130.0 -83.4 -130.9 -84.1 -130.9 -85.1 -130.9 -86.05 -129.55 -88.9 -124.6 -77.6 -122.55 L-73.85 -126.7 M-75.75 -116.85 Q-84.0 -117.05 -90.6 -123.85 L-92.65 -121.05 Q-98.4 -113.25 -101.15 -105.05 -98.3 -102.2 -96.85 -101.35 -96.15 -101.0 -96.15 -100.8 -99.0 -91.3 -99.0 -88.8 -99.0 -85.9 -95.25 -75.2 L-91.2 -64.35 -90.95 -64.1 -90.9 -64.2 Q-82.05 -81.95 -78.0 -103.45 -76.55 -111.1 -75.75 -116.85" fill="#000000" fill-rule="evenodd" stroke="none"/>
    <path d="M-73.8 -126.9 L-73.85 -126.7 -77.6 -122.55 Q-88.9 -124.6 -86.05 -129.55 -85.1 -130.9 -84.1 -130.9 -83.4 -130.9 -81.9 -130.0 -77.5 -127.4 -73.8 -126.9" fill="#333333" fill-rule="evenodd" stroke="none"/>
  </g>
</svg>
