<?xml version="1.0" encoding="UTF-8" standalone="no"?>
<svg xmlns:xlink="http://www.w3.org/1999/xlink" height="249.15px" width="284.85px" xmlns="http://www.w3.org/2000/svg">
  <g transform="matrix(1, 0, 0, 1, 149.95, 326.9)">
    <path d="M78.15 -297.6 L83.25 -292.3 83.85 -291.65 84.05 -291.45 85.8 -289.4 86.4 -288.65 87.1 -287.8 91.15 -282.4 91.15 -282.35 91.75 -281.55 91.85 -281.4 Q95.05 -276.8 97.75 -271.85 100.8 -266.2 103.2 -260.1 107.75 -248.75 109.15 -237.85 109.8 -232.95 109.8 -228.1 110.4 -222.5 109.75 -219.4 L109.8 -219.05 Q109.8 -216.95 107.95 -216.1 L107.75 -216.0 Q107.1 -215.65 106.25 -215.65 L106.0 -215.65 105.8 -215.65 105.7 -215.65 Q104.75 -215.7 104.35 -215.95 L102.95 -216.8 103.0 -217.05 101.9 -217.65 98.8 -219.55 99.4 -212.8 99.35 -198.05 Q99.55 -181.55 97.35 -166.2 L97.3 -165.9 95.75 -157.15 95.15 -154.6 93.3 -148.35 Q91.0 -142.1 87.95 -138.9 84.8 -135.7 80.85 -135.7 76.75 -135.7 76.6 -139.9 76.55 -142.15 77.3 -146.05 72.5 -140.3 65.85 -134.75 60.1 -130.0 59.1 -130.0 57.7 -130.0 57.25 -130.35 L55.9 -131.2 Q55.65 -132.6 55.65 -135.85 55.65 -139.2 56.65 -143.9 L56.75 -144.2 Q41.5 -136.85 24.5 -132.4 4.95 -127.25 -12.15 -127.25 -30.35 -127.25 -46.75 -137.75 -48.2 -138.65 -55.95 -147.0 L-53.35 -140.75 Q-51.85 -137.25 -51.85 -135.95 -51.85 -130.95 -55.45 -130.95 -59.3 -130.95 -64.75 -137.45 -67.65 -140.9 -71.25 -146.3 L-71.7 -146.3 Q-71.1 -142.85 -70.7 -133.15 L-72.4 -132.85 -72.75 -132.85 Q-89.5 -139.15 -101.6 -164.0 L-103.0 -161.85 -103.45 -161.3 Q-101.3 -156.9 -101.0 -155.35 -100.85 -154.3 -101.35 -149.15 -101.85 -144.45 -102.35 -143.15 -103.55 -140.2 -106.2 -139.45 L-106.7 -134.65 Q-106.1 -131.7 -107.2 -129.75 -108.1 -128.2 -110.45 -127.6 -109.2 -125.2 -108.4 -121.6 -107.65 -118.4 -107.4 -114.45 L-107.3 -111.2 Q-108.1 -103.4 -119.65 -91.55 -131.0 -79.95 -136.3 -80.5 -141.65 -81.05 -139.9 -85.3 -139.55 -88.4 -137.45 -90.05 -135.4 -91.8 -135.15 -93.75 -134.75 -97.85 -135.5 -100.7 -135.8 -101.8 -137.25 -105.35 -140.0 -111.6 -138.9 -121.85 -138.05 -129.65 -137.65 -130.9 L-137.15 -132.4 Q-138.95 -133.95 -139.65 -136.45 -140.45 -139.35 -139.75 -142.35 -136.55 -150.25 -133.55 -154.65 -137.85 -156.5 -139.05 -160.4 -139.55 -162.05 -139.0 -167.45 -138.55 -171.45 -135.75 -175.55 L-134.7 -176.95 Q-135.8 -178.05 -136.25 -179.45 -136.65 -180.6 -136.2 -184.85 -133.45 -191.95 -130.95 -196.05 -133.9 -197.75 -134.7 -201.7 -135.35 -204.85 -134.7 -207.85 -134.6 -209.0 -131.3 -213.8 -128.1 -218.65 -128.0 -219.55 -127.85 -220.85 -128.7 -225.25 -129.55 -229.7 -129.45 -230.65 -128.9 -235.8 -123.45 -241.7 L-118.0 -247.5 Q-117.9 -248.65 -118.65 -251.5 -119.4 -254.3 -119.25 -255.45 -119.0 -258.2 -116.9 -260.7 L-112.55 -264.95 Q-106.5 -270.5 -106.5 -276.85 -106.55 -281.7 -98.3 -288.05 -89.05 -295.25 -79.5 -294.25 L-78.85 -294.15 Q-62.3 -313.15 -37.8 -323.8 -14.2 -327.8 -8.2 -326.6 L15.0 -325.35 Q32.2 -325.25 52.2 -315.7 61.95 -311.05 70.45 -304.35 L75.8 -299.85 78.15 -297.6 M6.85 -319.35 Q-21.1 -323.5 12.6 -318.4 L6.85 -319.35 M53.95 -306.3 Q37.5 -314.05 13.6 -318.25 L-19.05 -319.15 -33.35 -315.85 Q-46.75 -312.7 -50.55 -309.55 -67.2 -298.75 -69.8 -294.95 L-72.95 -290.65 Q-71.45 -288.85 -70.85 -285.85 -70.45 -283.65 -70.6 -281.05 L-70.85 -278.75 Q-71.4 -273.65 -72.55 -271.8 -74.6 -268.5 -79.85 -268.55 L-79.7 -266.6 -79.6 -258.2 Q-80.15 -253.5 -83.2 -249.75 -85.65 -246.75 -88.95 -245.75 L-88.15 -242.85 -87.0 -233.55 Q-87.55 -228.4 -89.0 -226.0 -90.8 -223.1 -94.1 -222.0 L-93.9 -221.1 Q-93.55 -218.95 -93.55 -216.3 L-93.7 -213.95 Q-94.25 -208.95 -95.45 -207.0 -96.5 -205.3 -98.3 -204.5 -97.55 -202.4 -96.9 -199.65 L-95.55 -188.7 Q-95.9 -185.55 -96.2 -184.9 -96.75 -183.95 -97.75 -183.4 -98.7 -184.4 -98.75 -180.7 L-98.6 -174.2 Q-94.3 -163.0 -86.3 -153.35 -83.05 -149.45 -78.9 -145.55 L-78.85 -146.5 -78.9 -155.0 Q-78.35 -161.5 -75.25 -161.5 -72.1 -161.5 -71.1 -159.4 -69.6 -156.3 -68.6 -155.65 -68.5 -158.9 -69.05 -169.55 -69.6 -180.85 -69.55 -186.75 L-69.35 -191.5 Q-71.15 -190.2 -71.95 -190.2 -77.4 -190.2 -76.0 -196.4 -76.0 -202.2 -72.35 -216.15 -68.5 -230.85 -68.15 -236.55 -67.2 -237.7 -64.8 -237.7 -61.95 -237.7 -61.4 -234.55 L-61.35 -230.95 Q-61.35 -224.6 -62.55 -221.3 L-66.95 -209.1 -66.95 -204.1 -66.7 -204.35 Q-65.75 -206.2 -64.4 -207.0 -53.05 -220.4 -41.75 -242.3 L-34.45 -256.55 Q-31.35 -262.2 -30.0 -262.2 -26.6 -262.2 -25.5 -251.9 L-24.7 -237.7 -23.75 -236.55 Q-19.8 -243.55 -10.3 -269.8 -7.0 -269.8 -6.55 -265.95 -4.5 -263.55 -3.0 -255.4 L-0.7 -238.65 Q2.2 -242.35 9.7 -260.25 12.45 -266.85 14.3 -270.7 L14.25 -272.5 Q14.25 -276.3 17.8 -276.3 L21.2 -274.35 Q23.75 -271.55 26.6 -264.75 31.2 -253.75 31.7 -245.1 34.4 -249.85 34.45 -258.5 L34.3 -274.15 35.3 -274.8 Q36.1 -275.5 37.5 -275.5 39.3 -275.5 54.0 -238.55 L57.2 -238.65 Q80.65 -238.65 97.15 -229.95 L103.35 -226.15 Q102.6 -247.55 87.0 -271.2 84.6 -274.85 79.25 -284.25 73.7 -292.8 66.7 -297.9 61.65 -301.7 53.95 -306.3 M41.05 -251.6 Q41.05 -244.05 36.0 -233.05 31.1 -222.3 28.1 -222.3 L26.2 -222.6 24.8 -223.45 Q24.45 -242.35 19.3 -254.85 L17.7 -258.65 Q7.25 -224.2 -2.35 -224.2 -4.1 -224.2 -8.2 -242.45 L-10.1 -251.1 -14.1 -240.35 Q-22.05 -219.45 -25.4 -219.45 L-27.3 -219.75 -28.7 -220.6 Q-28.8 -222.55 -30.3 -229.2 -31.7 -235.5 -31.7 -239.6 -32.0 -239.6 -32.65 -240.8 -38.0 -228.95 -50.65 -211.2 L-53.75 -206.9 -50.75 -211.1 -58.55 -202.2 Q-58.75 -198.2 -59.9 -189.3 -61.35 -178.6 -61.35 -174.4 -61.35 -169.3 -60.6 -164.2 L-49.15 -150.35 Q-36.2 -135.0 -1.4 -135.0 9.35 -135.0 24.9 -139.55 39.95 -143.95 54.3 -150.95 69.25 -158.25 78.25 -165.9 88.1 -174.3 88.1 -181.0 88.1 -182.2 86.25 -186.45 L82.1 -195.95 Q76.1 -211.05 76.1 -224.15 L76.1 -228.2 56.55 -230.95 Q51.75 -231.6 50.05 -232.35 48.05 -233.25 48.05 -234.95 46.25 -236.9 44.4 -241.35 41.7 -247.7 41.3 -251.6 L41.05 -251.6 M84.4 -226.95 L84.25 -218.2 Q84.15 -212.5 84.6 -210.0 84.95 -208.15 90.4 -195.3 L91.85 -191.8 92.25 -196.4 93.75 -218.2 94.1 -222.5 Q87.75 -226.4 86.2 -226.65 L84.4 -226.95 M85.35 -162.9 Q83.35 -161.0 78.95 -157.65 81.35 -157.1 82.35 -154.5 83.05 -150.85 83.45 -150.2 86.2 -155.75 88.3 -165.9 L85.35 -162.9 M72.1 -152.65 L72.0 -152.6 63.8 -147.8 Q64.25 -146.25 63.65 -143.65 67.55 -143.4 71.05 -150.55 L72.1 -152.65 M-83.7 -275.65 L-82.0 -276.4 Q-78.15 -277.9 -77.85 -280.7 -77.7 -282.2 -78.2 -283.45 -78.75 -284.85 -80.05 -286.05 L-80.85 -286.8 -86.25 -284.75 -91.25 -282.7 Q-99.65 -279.25 -100.6 -274.5 -101.6 -269.75 -101.25 -265.7 -102.4 -262.5 -104.75 -261.15 -111.7 -257.3 -112.0 -254.15 -112.25 -251.9 -110.75 -249.7 -109.25 -247.5 -109.5 -245.05 -109.6 -244.2 -111.5 -242.75 L-115.75 -239.6 Q-121.95 -234.85 -122.5 -229.55 -122.8 -227.0 -119.35 -223.15 -115.95 -219.4 -116.1 -217.9 -116.25 -216.6 -121.3 -213.6 -126.35 -210.65 -126.45 -207.15 -126.55 -203.65 -125.3 -202.65 L-123.6 -201.45 Q-121.65 -201.0 -121.2 -199.2 L-121.1 -198.05 -121.1 -197.55 -121.15 -197.35 -121.2 -196.95 Q-121.3 -196.0 -125.1 -190.5 -128.95 -185.0 -129.15 -183.95 -128.1 -182.2 -126.3 -180.95 L-122.15 -176.05 -124.15 -173.95 -126.6 -172.15 Q-131.75 -168.55 -131.95 -166.25 -132.35 -162.7 -126.85 -160.9 -124.05 -160.0 -123.1 -159.3 L-122.15 -158.3 -121.95 -157.95 -121.65 -156.8 Q-132.55 -143.85 -132.7 -142.2 -133.0 -139.45 -128.9 -137.2 L-127.85 -136.65 -126.9 -136.05 Q-125.5 -135.15 -124.9 -134.45 L-113.85 -133.95 Q-113.7 -135.45 -114.3 -138.45 -114.95 -141.45 -114.85 -142.55 -114.75 -143.7 -113.7 -144.6 L-112.9 -145.1 Q-112.3 -145.75 -111.2 -146.1 -108.8 -146.9 -108.5 -149.65 -108.1 -153.65 -110.2 -158.6 -112.3 -163.6 -111.2 -165.0 L-105.45 -172.45 -104.55 -173.6 -108.6 -186.45 Q-108.5 -187.5 -107.0 -188.7 -105.9 -190.6 -102.85 -190.45 L-102.45 -190.4 -103.05 -192.15 -107.5 -204.9 -108.2 -205.8 -108.1 -207.4 Q-108.55 -211.3 -104.6 -211.05 L-104.45 -211.15 -103.6 -211.65 Q-101.0 -213.2 -100.8 -214.95 -100.6 -216.7 -102.65 -219.8 L-103.0 -220.3 -104.1 -222.3 Q-105.1 -222.8 -105.4 -223.55 L-105.25 -225.35 Q-105.05 -227.35 -103.35 -228.2 L-101.8 -228.7 -99.7 -229.1 Q-94.4 -230.15 -93.95 -234.3 -93.7 -236.75 -96.45 -242.05 L-97.35 -243.8 -98.7 -247.0 -99.05 -247.45 -99.1 -249.0 -99.1 -249.05 Q-99.3 -253.1 -95.15 -252.65 L-94.3 -252.5 -93.8 -252.3 -93.6 -252.35 Q-88.1 -253.05 -86.8 -257.85 -86.0 -261.25 -86.65 -268.25 L-86.6 -271.05 -86.15 -272.9 Q-85.75 -274.5 -83.7 -275.65 M-69.4 -134.05 L-68.85 -136.4 -69.35 -134.05 -69.4 -134.05 M-132.0 -110.6 Q-130.0 -105.0 -127.95 -95.5 -115.6 -100.85 -114.35 -112.55 -114.0 -116.1 -117.55 -122.2 L-120.55 -127.9 -127.95 -129.3 Q-131.7 -122.55 -131.85 -120.85 -132.65 -113.3 -132.0 -110.6" fill="#000000" fill-rule="evenodd" stroke="none"/>
    <path d="M78.15 -297.6 Q82.85 -303.05 86.55 -304.85 90.45 -306.75 93.1 -301.8 L95.95 -294.25 Q98.1 -289.15 98.95 -283.8 100.45 -273.75 97.75 -271.85 95.05 -276.8 91.85 -281.4 L91.75 -281.55 91.4 -282.05 Q91.0 -289.45 87.6 -296.35 87.05 -296.1 83.25 -292.3 L78.15 -297.6 M109.15 -237.85 Q113.7 -232.6 114.2 -227.9 114.3 -227.0 113.45 -222.5 112.6 -218.1 112.75 -216.8 112.85 -215.9 116.1 -211.05 119.35 -206.25 119.5 -205.1 120.1 -202.1 119.5 -198.95 118.65 -195.0 115.7 -193.3 118.2 -189.2 121.0 -182.1 121.4 -177.85 121.05 -176.7 120.55 -175.3 119.5 -174.2 L120.55 -172.8 Q123.35 -168.7 123.8 -164.7 124.35 -159.35 123.8 -157.65 122.65 -153.75 118.35 -151.9 121.35 -147.5 124.55 -139.6 125.25 -136.6 124.45 -133.7 123.75 -131.25 121.95 -129.65 L122.5 -128.15 123.7 -119.1 Q124.75 -108.85 122.1 -102.6 L120.3 -98.0 Q119.55 -95.1 120.0 -91.0 120.2 -89.1 122.3 -87.35 124.35 -85.65 124.7 -82.55 126.45 -78.35 121.15 -77.75 115.8 -77.2 104.5 -88.8 92.9 -100.65 92.1 -108.45 L92.2 -111.7 Q92.45 -115.65 93.2 -118.85 94.0 -122.45 95.25 -124.85 92.9 -125.45 92.0 -127.0 90.9 -128.95 91.55 -131.9 L91.0 -136.7 Q89.1 -137.25 87.95 -138.9 91.0 -142.1 93.3 -148.35 L93.3 -146.9 Q93.6 -144.15 96.0 -143.35 L97.7 -142.35 98.5 -141.85 Q99.5 -140.95 99.65 -139.8 99.75 -138.7 99.1 -135.7 98.45 -132.7 98.65 -131.2 L109.7 -131.7 111.75 -133.3 112.7 -133.9 113.7 -134.45 Q117.8 -136.7 117.5 -139.45 117.3 -141.2 108.95 -150.6 106.7 -151.15 106.5 -153.3 106.35 -154.4 106.75 -155.2 L106.95 -155.55 Q107.3 -156.15 107.9 -156.55 108.85 -157.25 111.65 -158.2 117.15 -160.0 116.75 -163.5 116.5 -165.8 111.4 -169.4 L108.95 -171.2 106.2 -174.1 106.2 -174.2 Q106.1 -175.25 106.5 -176.1 107.3 -177.9 109.85 -178.15 L111.1 -178.2 Q112.9 -179.45 113.95 -181.2 113.7 -182.25 109.85 -187.75 106.05 -193.25 105.95 -194.2 L105.95 -194.6 105.9 -194.8 105.9 -195.3 106.0 -196.5 Q106.45 -198.3 108.4 -198.7 L109.2 -199.2 Q112.75 -201.1 112.45 -204.35 112.05 -208.0 106.5 -210.9 101.0 -213.85 100.9 -215.15 100.8 -216.0 101.9 -217.65 L103.0 -217.05 102.95 -216.8 104.35 -215.95 Q104.75 -215.7 105.7 -215.65 L105.8 -215.65 106.0 -215.65 106.25 -215.65 Q107.1 -215.65 107.75 -216.0 L107.95 -216.1 Q109.8 -216.95 109.8 -219.05 L109.75 -219.4 Q110.4 -222.5 109.8 -228.1 109.8 -232.95 109.15 -237.85 M97.3 -165.9 Q99.9 -164.1 100.0 -163.55 100.0 -163.2 96.45 -157.0 L95.15 -154.6 95.75 -157.15 97.3 -165.9 M112.8 -126.55 L105.35 -125.15 102.35 -119.45 Q98.75 -113.35 99.15 -109.8 100.4 -98.1 112.75 -92.75 114.8 -102.3 116.8 -107.85 117.45 -110.55 116.65 -118.1 116.5 -119.8 112.8 -126.55" fill="#000001" fill-rule="evenodd" stroke="none"/>
    <path d="M83.25 -292.3 Q87.05 -296.1 87.6 -296.35 91.0 -289.45 91.4 -282.05 L91.15 -282.35 91.15 -282.4 87.1 -287.8 86.4 -288.65 85.8 -289.4 84.05 -291.45 83.85 -291.65 83.25 -292.3" fill="#333333" fill-rule="evenodd" stroke="none"/>
    <path d="M116.95 -125.6 L117.2 -123.65 Q119.5 -123.1 122.85 -119.8 L127.95 -115.0 128.2 -123.1 Q128.2 -130.8 126.9 -135.1 125.45 -134.75 120.55 -129.35 L116.95 -125.6 M108.3 -125.9 Q107.25 -125.95 106.55 -125.2 105.8 -124.45 105.8 -123.4 105.8 -122.35 106.55 -121.65 107.25 -120.9 108.3 -120.9 109.35 -120.9 110.1 -121.65 110.8 -122.35 110.8 -123.4 110.8 -124.45 110.1 -125.2 109.35 -125.95 108.3 -125.9 M108.3 -132.3 Q110.3 -132.35 112.05 -131.5 114.7 -133.45 118.55 -138.15 122.4 -142.9 127.7 -143.1 132.95 -143.3 134.0 -136.4 135.05 -129.5 134.9 -122.9 L134.9 -110.9 Q133.5 -106.35 129.4 -106.35 124.5 -106.35 114.8 -117.35 L114.55 -117.1 Q111.95 -114.5 108.3 -114.45 105.5 -114.5 103.3 -116.0 L95.8 -110.2 Q90.5 -105.85 87.0 -106.1 83.5 -106.35 81.15 -116.9 80.0 -122.2 80.2 -127.75 L80.15 -135.8 Q80.85 -141.35 85.15 -141.0 89.45 -140.65 96.2 -136.9 102.9 -133.2 104.9 -131.7 106.45 -132.35 108.3 -132.3 M87.2 -132.7 Q86.35 -123.2 90.05 -114.8 90.85 -115.25 95.45 -120.8 97.8 -123.6 99.5 -124.75 99.65 -126.05 100.2 -127.1 88.2 -132.6 87.2 -132.7" fill="#000000" fill-rule="evenodd" stroke="none"/>
    <path d="M116.95 -125.6 L120.55 -129.35 Q125.45 -134.75 126.9 -135.1 128.2 -130.8 128.2 -123.1 L127.95 -115.0 122.85 -119.8 Q119.5 -123.1 117.2 -123.65 L116.95 -125.6 M108.3 -125.9 Q109.35 -125.95 110.1 -125.2 110.8 -124.45 110.8 -123.4 110.8 -122.35 110.1 -121.65 109.35 -120.9 108.3 -120.9 107.25 -120.9 106.55 -121.65 105.8 -122.35 105.8 -123.4 105.8 -124.45 106.55 -125.2 107.25 -125.95 108.3 -125.9 M87.2 -132.7 Q88.2 -132.6 100.2 -127.1 99.65 -126.05 99.5 -124.75 97.8 -123.6 95.45 -120.8 90.85 -115.25 90.05 -114.8 86.35 -123.2 87.2 -132.7" fill="#333333" fill-rule="evenodd" stroke="none"/>
    <path d="M-143.15 -155.7 Q-138.95 -154.95 -132.65 -150.45 -126.35 -146.05 -124.55 -144.4 L-121.1 -144.6 Q-119.1 -144.45 -117.4 -143.45 -114.6 -145.1 -110.25 -149.35 -105.95 -153.65 -100.65 -153.3 -95.45 -152.95 -95.1 -146.0 -94.8 -139.05 -95.65 -132.5 L-96.9 -120.55 Q-98.75 -116.2 -102.8 -116.65 -107.7 -117.15 -116.2 -129.05 L-116.5 -128.85 Q-119.3 -126.55 -122.95 -126.9 -125.75 -127.25 -127.75 -128.95 -130.1 -127.7 -135.85 -123.95 -141.55 -120.2 -145.0 -120.85 -148.45 -121.45 -149.7 -132.15 -150.3 -137.6 -149.5 -143.05 L-148.7 -151.05 Q-147.45 -156.5 -143.15 -155.7 M-120.05 -137.35 Q-120.7 -138.2 -121.75 -138.25 -122.8 -138.4 -123.6 -137.75 -124.4 -137.05 -124.5 -136.05 -124.65 -135.0 -123.95 -134.25 -123.35 -133.4 -122.3 -133.3 -121.25 -133.2 -120.4 -133.85 -119.65 -134.5 -119.5 -135.55 -119.4 -136.55 -120.05 -137.35 M-109.2 -140.4 L-113.2 -137.05 -113.15 -135.1 Q-110.9 -134.3 -107.95 -130.65 L-103.35 -125.4 Q-102.85 -127.7 -102.25 -133.4 -101.45 -141.05 -102.3 -145.45 -103.8 -145.25 -109.2 -140.4 M-142.05 -147.2 Q-143.85 -137.9 -141.1 -129.15 -140.25 -129.55 -135.05 -134.55 -132.45 -137.1 -130.65 -138.0 -130.35 -139.3 -129.7 -140.3 -141.05 -147.0 -142.05 -147.2" fill="#000000" fill-rule="evenodd" stroke="none"/>
    <path d="M-120.05 -137.35 Q-119.4 -136.55 -119.5 -135.55 -119.65 -134.5 -120.4 -133.85 -121.25 -133.2 -122.3 -133.3 -123.35 -133.4 -123.95 -134.25 -124.65 -135.0 -124.5 -136.05 -124.4 -137.05 -123.6 -137.75 -122.8 -138.4 -121.75 -138.25 -120.7 -138.2 -120.05 -137.35 M-142.05 -147.2 Q-141.05 -147.0 -129.7 -140.3 -130.35 -139.3 -130.65 -138.0 -132.45 -137.1 -135.05 -134.55 -140.25 -129.55 -141.1 -129.15 -143.85 -137.9 -142.05 -147.2 M-109.2 -140.4 Q-103.8 -145.25 -102.3 -145.45 -101.45 -141.05 -102.25 -133.4 -102.85 -127.7 -103.35 -125.4 L-107.95 -130.65 Q-110.9 -134.3 -113.15 -135.1 L-113.2 -137.05 -109.2 -140.4" fill="#333333" fill-rule="evenodd" stroke="none"/>
    <path d="M-108.75 -299.8 Q-104.85 -297.95 -99.9 -292.05 -95.0 -286.15 -93.65 -284.05 -92.0 -284.1 -90.25 -283.4 -88.4 -282.7 -87.05 -281.3 -83.9 -282.15 -78.6 -285.15 -73.3 -288.2 -68.3 -286.45 -63.3 -284.8 -64.85 -277.95 -66.3 -271.2 -68.85 -265.05 L-73.15 -253.85 Q-76.05 -250.15 -79.85 -251.6 -84.45 -253.35 -89.55 -267.1 L-89.9 -266.95 -96.65 -266.75 Q-99.25 -267.8 -100.8 -270.0 L-109.85 -267.2 Q-116.35 -265.05 -119.55 -266.6 -122.7 -268.1 -121.15 -278.75 -120.3 -284.1 -118.15 -289.2 L-115.3 -296.75 Q-112.6 -301.7 -108.75 -299.8 M-92.55 -277.4 L-94.45 -277.35 Q-95.4 -276.95 -95.8 -276.0 -96.2 -275.0 -95.75 -274.05 -95.35 -273.1 -94.35 -272.75 L-92.45 -272.8 Q-91.55 -273.2 -91.15 -274.2 -90.75 -275.15 -91.15 -276.1 -91.6 -277.05 -92.55 -277.4 M-79.9 -276.25 L-84.6 -274.05 Q-84.75 -273.1 -85.05 -272.1 -83.1 -270.75 -81.2 -266.5 L-78.15 -260.2 Q-77.05 -262.35 -75.0 -267.65 -72.25 -274.85 -71.9 -279.3 -73.4 -279.55 -79.9 -276.25 M-109.8 -291.3 Q-114.0 -282.75 -113.6 -273.6 -112.7 -273.75 -106.4 -277.25 -103.2 -279.0 -101.15 -279.5 -100.6 -280.65 -99.65 -281.45 -108.9 -290.85 -109.8 -291.3" fill="#000000" fill-rule="evenodd" stroke="none"/>
    <path d="M-92.55 -277.4 Q-91.6 -277.05 -91.15 -276.1 -90.75 -275.15 -91.15 -274.2 -91.55 -273.2 -92.45 -272.8 L-94.35 -272.75 Q-95.35 -273.1 -95.75 -274.05 -96.2 -275.0 -95.8 -276.0 -95.4 -276.95 -94.45 -277.35 L-92.55 -277.4 M-109.8 -291.3 Q-108.9 -290.85 -99.65 -281.45 -100.6 -280.65 -101.15 -279.5 -103.2 -279.0 -106.4 -277.25 -112.7 -273.75 -113.6 -273.6 -114.0 -282.75 -109.8 -291.3 M-79.9 -276.25 Q-73.4 -279.55 -71.9 -279.3 -72.25 -274.85 -75.0 -267.65 -77.05 -262.35 -78.15 -260.2 L-81.2 -266.5 Q-83.1 -270.75 -85.05 -272.1 -84.75 -273.1 -84.6 -274.05 L-79.9 -276.25" fill="#333333" fill-rule="evenodd" stroke="none"/>
  </g>
</svg>
