<?xml version="1.0" encoding="UTF-8" standalone="no"?>
<svg xmlns:xlink="http://www.w3.org/1999/xlink" height="201.1px" width="246.0px" xmlns="http://www.w3.org/2000/svg">
  <g transform="matrix(1, 0, 0, 1, 124.9, 328.25)">
    <path d="M59.75 -312.95 L64.8 -308.6 Q74.75 -302.95 83.35 -297.75 100.3 -287.55 100.3 -285.0 100.3 -282.6 98.45 -282.0 L93.45 -281.55 96.0 -278.4 Q103.25 -269.0 104.85 -264.1 L109.7 -249.85 109.8 -239.4 Q111.15 -226.9 106.25 -226.9 104.0 -226.9 96.55 -235.25 L95.55 -236.35 Q94.75 -234.55 94.75 -233.45 94.75 -228.1 98.85 -221.5 100.6 -218.7 107.95 -209.35 114.2 -201.35 117.0 -195.85 121.1 -187.7 121.1 -179.75 121.1 -175.3 117.15 -168.35 112.25 -159.6 106.0 -161.35 104.2 -155.4 98.65 -147.5 90.9 -136.55 83.6 -136.55 80.35 -136.55 78.05 -143.05 L77.0 -146.65 76.8 -146.55 Q69.4 -142.25 68.15 -142.25 64.8 -142.25 63.65 -144.9 63.1 -146.1 63.15 -147.45 L59.35 -145.5 Q42.95 -137.25 24.5 -132.4 4.95 -127.25 -12.15 -127.25 -30.35 -127.25 -46.75 -137.75 L-47.15 -138.0 Q-50.9 -130.85 -55.4 -131.0 L-55.8 -131.15 -69.8 -131.9 Q-69.45 -130.65 -69.95 -129.5 -70.85 -127.15 -74.8 -127.15 -92.2 -127.15 -101.2 -136.75 -107.9 -143.85 -107.9 -152.55 L-108.15 -153.3 Q-110.9 -151.95 -115.2 -147.7 -118.8 -144.15 -120.4 -144.15 -125.15 -144.15 -123.95 -148.9 -123.95 -150.35 -120.6 -156.75 -117.3 -163.15 -117.3 -168.6 -117.3 -173.35 -121.1 -186.15 -124.9 -199.0 -124.9 -205.3 L-123.45 -212.95 Q-121.55 -221.4 -119.2 -228.6 -115.4 -240.25 -111.3 -245.8 -115.2 -247.95 -119.2 -252.55 -119.2 -256.1 -111.8 -260.75 -102.05 -266.85 -100.9 -268.1 L-108.5 -272.8 Q-109.8 -273.95 -109.8 -276.55 L-94.75 -285.55 Q-77.05 -296.05 -66.95 -302.9 -66.55 -303.15 -62.45 -307.85 -58.0 -312.9 -53.6 -316.4 -41.35 -326.1 -25.5 -327.75 -27.0 -327.7 -26.15 -327.95 -24.65 -328.45 5.45 -328.1 35.5 -327.75 45.55 -322.2 55.55 -316.7 59.75 -312.95 M16.0 -321.0 L-14.4 -323.4 Q-20.0 -322.75 -32.65 -318.5 -45.3 -314.3 -57.55 -300.55 -68.85 -291.75 -74.85 -287.35 -85.45 -279.5 -95.7 -275.1 -96.15 -274.85 -96.65 -274.65 -93.6 -274.25 -92.65 -272.2 L-92.35 -270.15 Q-92.35 -267.4 -97.65 -260.15 -103.15 -252.65 -106.0 -252.1 L-103.7 -250.9 -103.55 -250.9 Q-101.0 -250.9 -100.25 -248.9 L-99.95 -247.6 -99.95 -247.35 -99.95 -247.05 -99.95 -246.6 Q-99.95 -245.0 -102.75 -241.0 L-108.85 -232.15 Q-117.8 -218.2 -117.8 -204.6 -117.8 -198.3 -114.05 -184.25 -110.3 -170.2 -110.3 -160.75 -106.35 -164.35 -104.5 -164.35 -100.55 -164.35 -100.6 -157.8 -101.3 -150.55 -100.9 -149.15 -98.75 -142.3 -76.95 -135.45 -77.1 -139.85 -71.95 -139.85 L-70.7 -139.85 Q-74.05 -141.6 -75.75 -143.45 -86.2 -154.85 -86.3 -163.85 -86.5 -173.85 -89.05 -179.8 -90.75 -183.85 -94.45 -187.55 -98.7 -191.75 -99.8 -193.7 -102.2 -197.85 -102.2 -204.8 -92.0 -229.3 -90.25 -229.3 -87.35 -229.3 -86.8 -226.2 L-86.8 -222.85 Q-86.8 -218.0 -91.0 -212.45 -95.2 -206.9 -95.2 -204.8 -95.2 -201.55 -92.7 -197.5 L-87.2 -189.55 Q-79.2 -177.75 -79.2 -164.35 -79.2 -157.95 -74.0 -151.8 -67.65 -144.35 -56.4 -141.75 -55.95 -142.7 -55.7 -144.8 L-57.3 -146.2 -58.3 -146.05 -60.2 -146.35 -61.6 -147.25 -61.9 -150.25 -63.1 -151.3 Q-63.2 -154.3 -62.75 -155.5 -63.7 -158.4 -63.75 -161.4 -65.35 -168.45 -67.95 -173.95 -70.2 -178.8 -70.95 -181.75 -72.2 -186.8 -72.2 -194.85 -72.2 -199.7 -70.15 -208.45 -67.95 -217.65 -64.6 -226.15 -55.9 -248.15 -47.0 -248.15 L-45.25 -247.95 -47.95 -231.4 Q-20.15 -232.55 -10.0 -237.0 -6.7 -238.45 -3.45 -241.05 L2.0 -245.1 Q3.2 -245.8 10.4 -253.4 16.95 -260.3 18.75 -260.3 23.5 -260.3 22.3 -251.15 22.3 -247.25 20.4 -238.65 L20.4 -237.95 Q23.85 -233.5 56.85 -257.1 L59.8 -254.45 Q67.25 -248.75 87.15 -232.25 87.15 -229.5 84.35 -228.95 L84.4 -228.0 84.25 -218.2 Q84.15 -212.5 84.6 -210.0 84.95 -208.15 90.4 -195.3 L94.3 -185.55 Q95.6 -182.05 95.6 -181.15 95.6 -172.7 85.35 -162.9 82.0 -159.7 72.0 -152.6 L68.2 -150.3 69.8 -150.65 Q72.1 -151.8 75.45 -154.35 77.5 -155.9 79.4 -155.9 84.55 -155.9 84.4 -152.2 84.4 -151.85 83.8 -151.25 L84.45 -149.9 Q84.95 -146.1 85.35 -144.85 95.3 -153.6 98.75 -171.0 L100.5 -181.7 Q101.25 -186.05 102.45 -186.05 107.4 -186.05 110.4 -173.45 113.1 -175.0 113.75 -176.75 L114.0 -179.55 Q114.0 -186.0 109.9 -193.65 107.3 -198.35 100.8 -207.1 94.1 -216.05 91.75 -220.3 87.6 -227.6 87.6 -233.55 87.6 -238.15 87.85 -239.2 88.3 -241.25 93.2 -247.2 94.95 -247.05 102.7 -240.35 L102.7 -247.45 Q99.7 -258.15 89.5 -271.85 L82.95 -280.35 81.4 -282.5 80.4 -283.05 Q79.8 -283.55 79.9 -284.2 L80.15 -284.85 82.55 -288.3 83.45 -288.8 Q71.3 -294.45 55.55 -306.65 39.8 -318.9 16.0 -321.0 M14.25 -243.65 L14.0 -244.35 Q11.25 -243.35 5.85 -239.45 -0.75 -234.65 -5.0 -232.35 -21.85 -223.25 -48.45 -223.25 -53.6 -223.25 -54.4 -225.3 -54.85 -226.35 -54.25 -227.85 L-54.5 -228.35 Q-65.15 -214.0 -65.15 -194.85 -65.15 -186.45 -59.9 -173.85 -55.75 -163.8 -54.9 -158.3 L-49.15 -150.35 Q-36.2 -135.0 -1.4 -135.0 9.35 -135.0 24.9 -139.55 39.95 -143.95 54.3 -150.95 69.25 -158.25 78.25 -165.9 88.1 -174.3 88.1 -181.0 88.1 -182.2 86.25 -186.45 L82.1 -195.95 Q76.1 -211.05 76.1 -224.15 L76.1 -231.1 Q70.95 -234.1 63.6 -241.05 59.6 -244.85 55.8 -249.05 51.85 -244.9 46.5 -241.05 30.95 -229.75 16.35 -229.75 12.95 -229.75 12.3 -232.4 12.0 -233.75 12.35 -235.2 12.35 -237.95 14.25 -243.65" fill="#000000" fill-rule="evenodd" stroke="none"/>
  </g>
</svg>
