<?xml version="1.0" encoding="UTF-8" standalone="no"?>
<svg xmlns:xlink="http://www.w3.org/1999/xlink" height="356.15px" width="251.35px" xmlns="http://www.w3.org/2000/svg">
  <g transform="matrix(1, 0, 0, 1, 140.45, 323.5)">
    <path d="M11.45 -317.15 L-3.65 -317.75 -9.15 -317.25 Q-37.45 -314.9 -49.4 -309.35 -61.35 -303.85 -65.65 -299.55 -70.0 -295.25 -77.0 -285.8 -84.0 -276.35 -92.05 -256.7 -100.1 -237.05 -102.9 -215.0 -105.2 -190.1 -107.45 -177.5 L-107.45 -166.95 Q-107.15 -167.85 -103.85 -172.75 L-102.55 -172.9 -101.9 -172.85 Q-99.8 -172.7 -99.15 -170.85 -98.95 -170.3 -98.9 -169.25 L-98.9 -168.85 -98.9 -168.75 -98.9 -168.5 Q-98.9 -166.8 -101.25 -154.7 -103.65 -142.65 -103.65 -135.35 L-100.85 -108.1 Q-98.05 -80.75 -98.05 -68.6 -97.65 -61.75 -98.1 -55.9 -98.55 -50.3 -99.8 -47.4 L-95.65 -44.2 Q-92.2 -41.85 -86.45 -42.85 L-83.95 -43.15 -78.0 -47.25 Q-65.85 -55.2 -57.35 -55.2 -47.6 -55.2 -42.25 -53.05 -36.95 -50.9 -31.9 -50.9 -9.8 -50.9 8.0 -84.55 13.95 -95.85 18.05 -107.15 L18.05 -109.85 Q18.6 -118.25 21.6 -118.25 L21.7 -118.25 22.6 -118.15 Q25.65 -117.45 25.8 -112.1 L25.15 -104.35 25.4 -104.35 30.8 -126.0 Q32.1 -131.3 33.15 -134.9 L24.5 -132.4 Q4.95 -127.25 -12.15 -127.25 -30.35 -127.25 -46.75 -137.75 -49.45 -139.5 -55.15 -144.35 -54.9 -133.3 -57.2 -132.9 -59.5 -132.5 -60.45 -134.8 -61.4 -137.1 -62.45 -137.75 L-70.0 -167.1 Q-76.8 -193.4 -76.8 -198.15 L-76.55 -208.4 Q-75.75 -209.55 -73.35 -209.55 -71.65 -209.55 -68.5 -196.15 L-63.85 -162.45 -63.85 -176.3 -62.65 -200.7 Q-62.1 -207.05 -61.2 -211.05 L-62.1 -211.3 -62.8 -211.7 Q-64.35 -212.8 -63.65 -215.75 -63.65 -217.65 -57.2 -234.2 -69.15 -215.65 -73.35 -215.65 -77.3 -215.65 -76.8 -219.65 -76.8 -220.45 -62.45 -240.95 -48.15 -261.35 -47.85 -261.35 -45.35 -261.35 -44.65 -259.3 -44.4 -258.6 -44.4 -256.95 L-44.45 -256.5 Q-43.95 -255.9 -43.65 -254.9 L-43.45 -252.2 Q-43.45 -246.95 -52.35 -226.1 L-52.35 -225.6 -52.1 -225.75 Q-44.65 -230.7 -24.6 -252.5 L-5.55 -273.6 Q-1.55 -273.6 -1.4 -261.6 L-2.0 -242.25 Q-0.5 -244.5 6.5 -260.85 9.4 -267.6 11.8 -270.5 L15.05 -272.65 15.25 -272.65 Q16.55 -272.65 16.95 -272.3 L17.15 -272.1 17.95 -271.5 18.05 -271.45 18.2 -271.25 Q21.3 -267.9 21.5 -256.5 21.55 -251.15 21.0 -242.6 20.3 -233.75 20.15 -230.45 27.4 -246.85 31.45 -271.45 L32.5 -272.05 Q33.35 -272.65 34.75 -272.65 39.4 -272.65 42.8 -257.0 45.75 -238.7 46.75 -233.55 49.45 -238.15 49.55 -247.1 L49.4 -262.05 50.35 -262.65 Q51.2 -263.25 52.6 -263.25 55.65 -263.25 56.25 -257.55 L56.4 -257.55 68.9 -244.25 75.75 -237.15 75.7 -237.2 76.05 -236.85 78.25 -234.65 78.4 -234.7 86.55 -227.25 Q85.2 -234.9 77.8 -249.15 70.75 -262.65 70.75 -263.0 70.75 -266.95 74.8 -266.95 80.05 -266.95 95.95 -236.4 L104.1 -219.45 Q100.35 -242.65 89.5 -265.25 78.95 -287.45 71.45 -295.4 63.9 -303.35 53.65 -307.55 43.35 -311.8 35.0 -314.35 26.6 -316.95 11.45 -317.15 M31.9 -321.0 Q64.3 -317.5 83.45 -287.3 102.55 -257.15 107.55 -236.4 110.75 -223.0 110.75 -217.15 111.05 -211.0 110.75 -206.5 L110.7 -205.7 110.75 -205.55 Q111.05 -202.6 110.75 -200.9 110.2 -197.85 107.3 -197.8 L107.2 -197.8 Q106.85 -197.8 106.5 -199.0 104.15 -203.75 93.8 -226.55 L93.85 -226.35 94.45 -222.45 94.5 -222.1 Q96.55 -216.5 95.7 -198.05 96.0 -191.45 95.75 -185.05 L95.25 -182.85 95.6 -181.4 95.6 -181.15 95.6 -180.95 95.55 -179.95 Q95.2 -175.95 92.65 -171.65 82.65 -130.95 75.25 -130.95 72.35 -130.95 71.75 -133.55 71.45 -134.85 71.7 -136.4 L75.8 -155.3 75.2 -154.9 72.5 -152.95 72.0 -152.6 Q66.25 -148.95 59.35 -145.5 50.15 -140.85 40.3 -137.3 L40.1 -135.25 38.6 -126.3 Q36.7 -116.25 34.55 -107.7 27.8 -81.1 21.6 -81.1 L19.65 -81.4 18.25 -82.25 18.15 -86.7 Q15.65 -80.8 12.65 -75.35 -4.95 -43.45 -31.45 -43.45 -38.1 -43.45 -44.45 -45.55 -50.85 -47.7 -56.85 -47.7 -66.2 -47.7 -74.3 -40.85 L-76.0 -39.35 -73.65 -38.0 -66.7 -33.35 Q-58.9 -29.3 -50.15 -27.4 -47.25 -26.75 -46.5 -26.3 -45.35 -25.6 -45.35 -23.95 -45.35 -20.65 -53.3 -16.85 -62.7 -12.35 -75.25 -12.35 -81.2 -12.35 -85.65 -14.1 -85.6 -12.05 -85.7 -9.95 -85.7 -4.25 -89.5 4.1 L-93.3 12.45 Q-93.3 16.0 -88.55 28.0 -88.55 32.65 -93.1 32.65 -105.45 32.65 -113.9 21.15 -121.1 11.35 -121.1 1.5 L-121.2 1.15 Q-122.0 1.8 -122.3 6.9 -122.55 11.0 -125.95 11.0 -132.8 11.0 -134.15 2.6 -134.85 -1.6 -134.15 -6.05 -130.8 -24.55 -125.6 -33.0 -135.6 -36.4 -138.9 -46.3 -141.4 -53.9 -139.85 -62.1 L-139.85 -71.05 Q-139.25 -77.75 -135.95 -77.75 -124.65 -77.75 -114.0 -64.35 -110.6 -60.0 -107.8 -54.95 L-107.4 -54.25 -107.2 -54.25 -106.6 -54.15 -105.05 -68.85 Q-105.05 -80.15 -107.9 -106.0 -110.75 -131.9 -110.75 -134.9 L-110.65 -138.65 Q-113.05 -134.75 -114.7 -134.75 -119.45 -134.75 -118.25 -139.15 -118.25 -145.2 -113.6 -182.65 -108.7 -222.05 -105.45 -239.4 -102.25 -256.8 -92.25 -273.4 -82.25 -290.05 -77.55 -295.4 -72.9 -300.75 -55.2 -312.85 -37.55 -325.0 2.7 -323.3 L31.9 -321.0 M56.2 -249.65 L56.15 -249.35 Q50.9 -202.55 43.2 -202.55 39.85 -202.55 39.9 -211.15 39.9 -215.45 40.6 -220.0 40.6 -227.7 39.1 -236.75 38.4 -241.2 35.5 -255.15 L32.65 -243.25 Q30.5 -234.45 28.55 -228.65 22.7 -211.0 15.9 -211.0 12.25 -211.0 12.45 -229.25 12.55 -238.4 13.4 -247.8 L12.95 -254.45 8.4 -244.6 Q-3.1 -221.35 -10.3 -221.35 -14.8 -221.35 -13.75 -227.15 -13.75 -228.7 -11.65 -235.05 L-9.1 -242.25 -9.1 -256.35 Q-24.8 -238.6 -34.55 -228.85 -46.45 -217.0 -53.75 -213.0 L-53.75 -212.65 Q-53.75 -206.2 -55.15 -193.6 -56.6 -181.05 -56.6 -174.4 L-55.5 -159.2 -49.5 -150.8 -49.15 -150.35 Q-36.2 -135.0 -1.4 -135.0 9.35 -135.0 24.9 -139.55 39.95 -143.95 54.3 -150.95 69.25 -158.25 78.25 -165.9 86.55 -172.95 87.85 -178.8 L87.95 -182.0 87.7 -182.75 86.6 -185.6 86.25 -186.45 82.1 -195.95 Q76.1 -211.05 76.1 -224.15 L76.1 -224.9 56.3 -249.5 56.2 -249.65 M88.75 -209.25 L84.25 -214.85 Q84.3 -211.7 84.6 -210.0 84.9 -208.5 88.5 -199.8 L89.05 -208.9 88.75 -209.25 M82.6 -160.5 L81.85 -159.9 81.95 -158.95 81.55 -153.75 84.45 -161.9 84.5 -162.1 84.35 -161.95 82.6 -160.5 M-132.85 -59.6 Q-132.85 -43.55 -121.1 -40.35 L-118.0 -39.75 -115.8 -40.1 Q-113.7 -45.95 -111.85 -49.35 -113.25 -51.95 -114.6 -53.95 -121.55 -64.25 -132.4 -67.45 -132.85 -64.8 -132.85 -59.6 M-121.6 -11.1 Q-117.25 -17.55 -116.6 -17.55 -115.75 -17.55 -115.9 -13.85 -116.15 -7.95 -115.75 -4.55 -113.95 10.7 -99.85 20.15 L-100.3 12.2 Q-100.3 7.95 -96.55 0.65 -92.85 -6.6 -92.85 -10.45 -92.85 -14.85 -94.25 -18.3 -95.45 -21.15 -95.65 -22.8 L-96.4 -22.8 Q-106.2 -22.8 -112.6 -28.65 L-115.1 -31.2 Q-125.15 -22.4 -127.15 -3.2 -126.4 -3.95 -121.6 -11.1 M-85.5 -29.1 Q-86.95 -27.35 -88.4 -26.1 L-87.25 -24.75 Q-83.0 -19.7 -81.55 -19.7 L-69.9 -20.4 Q-60.0 -21.15 -59.85 -21.6 -69.45 -24.95 -80.0 -31.65 L-82.5 -33.25 Q-83.6 -31.4 -85.5 -29.1 M-106.75 -42.95 Q-109.8 -38.3 -109.8 -36.65 L-109.35 -35.35 Q-108.4 -33.9 -105.3 -32.4 -100.8 -30.25 -96.5 -30.25 -93.1 -30.25 -92.45 -31.55 L-90.7 -34.4 -90.0 -35.7 Q-96.9 -35.8 -102.35 -39.4 -104.95 -41.2 -106.6 -43.05 L-106.75 -43.2 -106.75 -42.95" fill="#000000" fill-rule="evenodd" stroke="none"/>
    <path d="M-132.85 -59.6 Q-132.85 -64.8 -132.4 -67.45 -121.55 -64.25 -114.6 -53.95 -113.25 -51.95 -111.85 -49.35 -113.7 -45.95 -115.8 -40.1 L-118.0 -39.75 -121.1 -40.35 Q-132.85 -43.55 -132.85 -59.6 M-106.6 -43.05 Q-104.95 -41.2 -102.35 -39.4 -96.9 -35.8 -90.0 -35.7 L-90.7 -34.4 -92.45 -31.55 Q-93.1 -30.25 -96.5 -30.25 -100.8 -30.25 -105.3 -32.4 -108.4 -33.9 -109.35 -35.35 L-109.8 -36.65 Q-109.8 -38.3 -106.75 -42.95 L-106.6 -43.05 M-85.5 -29.1 Q-83.6 -31.4 -82.5 -33.25 L-80.0 -31.65 Q-69.45 -24.95 -59.85 -21.6 -60.0 -21.15 -69.9 -20.4 L-81.55 -19.7 Q-83.0 -19.7 -87.25 -24.75 L-88.4 -26.1 Q-86.95 -27.35 -85.5 -29.1" fill="#ffed4d" fill-rule="evenodd" stroke="none"/>
  </g>
</svg>
