<?xml version="1.0" encoding="UTF-8" standalone="no"?>
<svg xmlns:xlink="http://www.w3.org/1999/xlink" height="336.25px" width="232.8px" xmlns="http://www.w3.org/2000/svg">
  <g transform="matrix(1, 0, 0, 1, 121.1, 323.75)">
    <path d="M13.55 -317.7 L12.05 -318.0 Q-4.2 -318.0 -29.1 -315.15 -42.25 -311.15 -46.5 -308.65 -50.75 -306.2 -57.65 -303.15 -64.6 -300.1 -77.75 -283.95 -90.9 -267.85 -93.05 -256.4 L-98.45 -225.15 -99.95 -216.3 -99.95 -212.65 Q-99.95 -203.75 -106.5 -167.1 -113.05 -130.4 -113.05 -122.3 -113.05 -113.75 -111.45 -107.0 -110.55 -103.25 -107.85 -96.25 -102.7 -82.65 -102.7 -67.55 -102.7 -60.15 -108.35 -44.5 -114.0 -28.9 -114.0 -22.4 -114.0 -16.75 -110.7 -9.75 L-109.3 -6.7 -106.5 -13.85 Q-102.1 -24.7 -101.75 -27.15 -101.6 -28.3 -102.15 -40.15 -101.9 -51.4 -97.85 -51.4 -97.1 -51.4 -96.8 -47.85 L-95.65 -38.1 Q-92.65 -21.0 -80.85 -5.3 L-77.4 -15.4 Q-75.35 -20.75 -73.4 -22.8 -72.7 -23.55 -72.0 -23.85 L-71.0 -24.1 -70.75 -24.1 -70.5 -24.1 -70.1 -24.05 Q-68.4 -23.8 -67.6 -22.55 -64.55 -20.15 -58.9 -14.2 -48.15 -2.75 -46.05 -1.3 L-41.6 -11.4 Q-40.0 -15.15 -35.6 -19.45 L-35.25 -19.45 Q-34.05 -19.45 -29.55 -13.65 L-23.95 -6.25 Q-21.4 -9.4 -19.5 -14.9 -17.3 -21.1 -17.3 -26.7 -16.35 -27.9 -14.0 -27.9 -13.75 -27.9 -7.0 -18.9 0.3 -9.15 2.95 -6.75 11.3 -19.4 14.8 -26.15 20.4 -21.15 28.8 -10.5 30.35 -13.4 33.95 -18.45 35.3 -17.85 44.15 -3.9 46.7 -8.25 49.6 -21.95 52.05 -33.6 53.55 -33.6 58.55 -33.6 60.15 -23.55 60.9 -18.75 60.9 -7.95 62.35 -11.15 63.9 -30.0 64.35 -35.5 65.05 -39.05 65.1 -41.3 65.55 -42.25 L66.15 -43.1 Q67.2 -45.8 68.6 -45.8 71.2 -45.8 72.05 -40.8 72.75 -39.15 73.2 -36.5 75.0 -26.25 76.9 -22.15 78.75 -18.1 82.85 -16.3 L83.0 -22.2 Q83.0 -32.25 86.75 -50.15 90.45 -68.1 90.45 -69.45 90.45 -75.65 83.9 -91.9 77.4 -107.8 77.3 -116.7 69.9 -108.85 58.65 -105.65 55.65 -107.35 55.65 -108.85 L61.55 -118.3 Q67.85 -128.4 69.55 -135.7 70.05 -137.9 70.6 -149.8 L70.85 -151.9 Q65.6 -148.65 59.35 -145.5 42.95 -137.25 24.5 -132.4 4.95 -127.25 -12.15 -127.25 -30.35 -127.25 -46.75 -137.75 -48.65 -138.95 -51.95 -141.65 -49.1 -133.6 -46.3 -126.65 -43.6 -119.7 -39.4 -113.15 L-34.35 -105.15 -34.1 -104.75 Q-34.45 -101.75 -38.1 -101.75 -45.45 -101.75 -57.45 -113.85 -66.6 -123.05 -72.9 -132.85 -73.7 -134.1 -74.45 -136.45 -78.6 -138.45 -83.35 -145.9 -88.7 -154.3 -90.0 -160.15 -91.9 -169.35 -91.9 -184.85 -91.2 -212.75 -90.3 -223.2 L-88.75 -243.9 Q-88.1 -254.2 -86.3 -258.85 -84.05 -264.55 -80.65 -269.5 -72.65 -281.3 -61.8 -283.4 -56.0 -284.15 -48.35 -283.35 -40.7 -282.6 -38.3 -280.4 -35.95 -278.25 -36.0 -276.1 -36.05 -273.95 -40.0 -274.9 L-49.0 -276.3 -57.55 -276.8 Q-62.9 -276.65 -68.6 -272.75 -74.4 -268.85 -77.75 -262.35 -81.15 -255.9 -81.7 -249.2 L-82.35 -241.15 -82.65 -232.1 Q-82.8 -224.35 -83.1 -222.1 -83.45 -219.85 -84.15 -202.5 -84.9 -185.15 -85.1 -172.7 -85.35 -160.3 -77.65 -151.2 -78.7 -161.8 -78.7 -165.4 L-78.7 -188.65 Q-78.2 -201.75 -77.25 -214.05 -77.6 -211.65 -76.95 -222.3 L-76.75 -230.35 Q-76.25 -238.8 -70.5 -250.25 -64.8 -261.7 -56.9 -262.9 -49.0 -264.1 -49.85 -261.8 L-50.0 -261.15 -56.5 -255.25 Q-63.7 -249.15 -65.8 -245.05 -67.95 -240.95 -68.6 -233.5 L-69.8 -216.75 -70.25 -208.0 -71.35 -187.05 Q-72.3 -168.95 -72.0 -153.8 -71.7 -138.7 -52.85 -121.0 L-52.35 -120.55 -51.65 -119.9 -52.1 -120.8 Q-59.55 -136.35 -61.35 -148.65 L-61.5 -149.9 -63.1 -151.3 Q-63.2 -154.3 -62.75 -155.5 -63.75 -158.55 -63.75 -161.75 -63.75 -163.25 -62.9 -164.3 -63.65 -176.35 -63.65 -192.7 -63.65 -199.05 -62.95 -212.7 -62.2 -227.3 -61.6 -229.05 -59.3 -235.35 -51.05 -248.5 -41.3 -264.1 -37.15 -264.1 -34.6 -264.1 -33.6 -262.45 -33.1 -261.55 -33.1 -260.5 -33.1 -259.2 -42.6 -246.3 L-48.6 -237.7 Q-38.15 -238.9 -26.25 -244.05 -16.7 -248.2 -8.45 -254.75 L-4.5 -258.05 Q5.35 -266.95 7.8 -266.75 10.25 -266.55 11.3 -259.25 L12.0 -254.75 Q12.65 -250.8 13.2 -248.5 L16.0 -253.3 16.8 -254.75 19.25 -259.25 Q24.4 -268.85 25.25 -268.85 28.6 -268.85 28.9 -265.4 31.0 -263.75 39.1 -255.35 L39.7 -254.75 Q47.55 -246.75 55.6 -241.6 63.05 -236.85 75.65 -235.1 L86.35 -232.9 86.75 -232.65 Q87.25 -232.25 87.25 -231.3 87.25 -230.1 86.75 -229.35 86.3 -228.65 85.35 -228.35 L85.25 -228.3 85.2 -228.3 84.4 -228.1 84.4 -228.0 84.25 -218.2 Q84.15 -212.5 84.6 -210.0 84.8 -208.9 86.75 -204.05 L88.95 -198.8 88.0 -219.7 Q87.85 -226.25 88.05 -231.25 88.25 -237.3 88.9 -241.05 80.15 -252.55 80.15 -252.8 L80.35 -254.95 81.4 -255.55 Q82.3 -256.15 83.7 -256.15 85.05 -256.15 90.15 -251.85 95.7 -247.1 97.1 -246.55 94.75 -255.2 80.15 -274.45 80.15 -276.5 82.4 -277.4 85.35 -278.6 90.45 -276.1 L92.35 -276.35 Q87.8 -279.55 75.45 -287.55 L61.85 -296.3 54.0 -301.9 Q48.4 -305.8 41.1 -309.15 33.8 -312.55 24.35 -315.05 L13.55 -317.7 M9.15 -323.75 L19.15 -322.8 Q38.1 -321.0 55.75 -310.3 61.1 -307.05 67.5 -302.35 L74.3 -297.45 75.45 -296.75 Q85.35 -291.05 98.05 -282.15 111.7 -272.65 111.7 -271.25 111.7 -267.15 97.35 -267.9 103.1 -254.0 103.75 -251.35 104.1 -250.05 104.1 -239.65 104.45 -235.3 104.2 -231.95 103.7 -225.5 100.7 -225.5 L94.85 -233.2 Q96.15 -216.25 96.65 -178.7 L94.9 -158.1 Q93.9 -147.05 85.0 -128.2 L84.0 -126.15 Q85.0 -123.2 84.4 -116.45 84.4 -111.05 86.45 -104.95 87.55 -101.65 91.0 -94.0 97.6 -79.25 97.6 -69.2 97.6 -66.05 96.55 -60.45 L94.3 -48.4 Q90.95 -29.45 90.95 -8.15 90.95 -2.95 87.4 -2.95 L86.55 -3.1 85.1 -2.95 Q76.8 -2.95 70.8 -17.2 70.5 -11.45 63.7 1.55 56.85 14.5 56.3 12.15 L55.15 6.6 Q54.55 3.35 53.75 -7.45 L53.55 -7.95 51.35 3.55 Q49.9 10.05 46.05 10.05 43.15 10.05 36.2 -5.75 33.85 7.75 31.55 6.85 29.25 5.95 22.9 -3.8 19.75 -8.65 16.15 -13.15 9.65 2.65 6.55 6.0 5.45 8.15 4.6 8.15 L4.5 8.15 Q-3.95 -0.9 -12.2 -14.7 -14.65 -7.35 -16.5 -2.95 -19.9 5.3 -23.35 5.3 -26.25 5.3 -34.3 -7.85 L-37.3 -1.8 Q-42.45 8.15 -43.7 8.15 -52.1 8.15 -63.9 -5.8 L-69.5 -13.0 -73.35 -2.45 Q-75.5 3.85 -76.35 10.1 L-77.05 10.05 Q-79.5 10.05 -86.65 -0.4 -93.95 -11.1 -95.7 -17.8 L-96.15 -18.25 Q-97.25 -16.65 -101.75 -5.55 -105.35 3.4 -107.2 3.4 L-108.6 3.25 Q-111.15 3.2 -115.95 -6.4 -120.85 -16.25 -121.1 -22.4 -121.1 -29.05 -115.45 -46.2 -109.8 -63.3 -109.8 -67.9 -109.8 -76.8 -111.4 -83.35 -112.3 -86.95 -114.95 -93.5 -120.15 -106.2 -120.15 -122.3 L-106.3 -204.85 -107.0 -204.85 Q-106.2 -219.5 -104.75 -229.0 -100.85 -254.5 -95.25 -269.3 -89.65 -284.1 -72.75 -299.4 -55.9 -314.7 -37.15 -318.85 -18.45 -323.0 -9.5 -323.2 L6.3 -323.65 9.15 -323.75 M6.2 -254.25 Q0.15 -249.1 -8.9 -243.85 -31.95 -230.7 -48.9 -230.7 L-52.7 -230.8 Q-54.1 -228.15 -54.7 -226.2 -56.6 -220.0 -56.75 -210.1 L-56.6 -193.05 -56.75 -173.05 Q-56.6 -167.15 -55.6 -159.3 -50.75 -152.25 -49.15 -150.35 -36.2 -135.0 -1.4 -135.0 9.35 -135.0 24.9 -139.55 39.95 -143.95 54.3 -150.95 69.25 -158.25 78.25 -165.9 84.45 -171.2 86.75 -175.8 88.1 -178.5 88.1 -181.0 88.1 -182.0 86.75 -185.25 L86.25 -186.45 82.1 -195.95 Q76.1 -211.05 76.1 -224.15 L76.1 -228.0 Q59.35 -229.45 41.6 -243.4 34.6 -248.9 29.55 -254.75 L29.3 -255.0 Q27.65 -256.9 26.65 -258.35 L25.0 -254.75 20.85 -246.55 Q12.0 -229.75 7.45 -229.75 6.05 -229.75 5.55 -230.1 L4.15 -230.95 Q3.9 -233.1 3.9 -237.0 3.9 -240.4 5.8 -252.1 L6.2 -254.25 M86.75 -164.25 L85.35 -162.9 78.2 -156.15 Q79.35 -151.05 77.8 -144.15 L76.8 -139.9 73.9 -128.65 Q72.9 -125.0 68.85 -117.95 76.45 -124.6 81.25 -134.0 86.05 -143.45 88.8 -166.45 L86.75 -164.25" fill="#000000" fill-rule="evenodd" stroke="none"/>
  </g>
</svg>
