<?xml version="1.0" encoding="utf-8"?>
<!-- Generator: flash2svg, http://dissentgraphics.com/tools/flash2svg -->
<svg xmlns:xlink="http://www.w3.org/1999/xlink" id="sprite.__202781.__20(Acc).__2F102" image-rendering="optimizeSpeed" baseProfile="basic" version="1.1" style="background-color:#ffffff" x="0px" y="0px" width="550px" height="400px" viewBox="0 0 550 400" enable-background="new 0 0 550 400" xmlns="http://www.w3.org/2000/svg">
  <defs transform="matrix(1 0 0 1 0 0) "/>
  <g id="sprite.__202781.__20(Acc).__2F102">
    <g id="Layer.__203">
      <g id="Graphic.__2Fshape.__202728_1" overflow="visible">
        <g id="Layer.__252">
          <g id="shape445">
            <path id="path498" fill="#BB0000" fill-opacity="1" d="M23.9,164.55 L19.9,190.55 C44.55,195.65 68.55,195.65 91.9,190.55 L82.4,164.55 C64.15,167.65 44.65,167.65 23.9,164.55z M57.35,189.65 C46,189.95 39.95,187.05 39.15,181 38.3,174.9 44.25,171.55 56.9,171 67.7,172.15 73.3,175.5 73.75,181 74.15,186.5 68.7,189.4 57.35,189.65z"/>
            <path id="path499" fill="none" stroke="#000000" stroke-opacity="1" stroke-width="4" stroke-linecap="round" stroke-linejoin="round" d="M23.9,164.55 L19.9,190.55 C44.55,195.65 68.55,195.65 91.9,190.55 L82.4,164.55 C64.15,167.65 44.65,167.65 23.9,164.55z"/>
          </g>
        </g>
        <g id="Layer.__253">
          <g id="shape446">
            <path id="path500" fill="#CCCCCC" fill-opacity="1" d="M73.25,180.5 C72.8,175 67.2,171.65 56.4,170.5 43.75,171.05 37.8,174.4 38.65,180.5 39.45,186.55 45.5,189.45 56.85,189.15 68.2,188.9 73.65,186 73.25,180.5z M56.3,186.3 C54.55,186.3 53,185.65 51.75,184.4 50.5,183.15 49.9,181.65 49.9,179.9 49.9,178.15 50.5,176.6 51.75,175.35 53,174.1 54.55,173.5 56.3,173.5 58.05,173.5 59.55,174.1 60.8,175.35 62.05,176.6 62.7,178.15 62.7,179.9 62.7,181.65 62.05,183.15 60.8,184.4 59.55,185.65 58.05,186.3 56.3,186.3z"/>
            <path id="path501" fill="none" stroke="#000000" stroke-opacity="1" stroke-width="3" stroke-linecap="round" stroke-linejoin="round" d="M73.25,180.5 C72.8,175 67.2,171.65 56.4,170.5 43.75,171.05 37.8,174.4 38.65,180.5 39.45,186.55 45.5,189.45 56.85,189.15 68.2,188.9 73.65,186 73.25,180.5z"/>
            <path id="path502" fill="#BB0000" fill-opacity="1" d="M56.3,186.3 C58.05,186.3 59.55,185.65 60.8,184.4 62.05,183.15 62.7,181.65 62.7,179.9 62.7,178.15 62.05,176.6 60.8,175.35 59.55,174.1 58.05,173.5 56.3,173.5 54.55,173.5 53,174.1 51.75,175.35 50.5,176.6 49.9,178.15 49.9,179.9 49.9,181.65 50.5,183.15 51.75,184.4 53,185.65 54.55,186.3 56.3,186.3z"/>
            <path id="path503" fill="none" stroke="#000000" stroke-opacity="1" stroke-width="3" stroke-linecap="round" stroke-linejoin="round" d="M56.3,186.3 C58.05,186.3 59.55,185.65 60.8,184.4 62.05,183.15 62.7,181.65 62.7,179.9 62.7,178.15 62.05,176.6 60.8,175.35 59.55,174.1 58.05,173.5 56.3,173.5 54.55,173.5 53,174.1 51.75,175.35 50.5,176.6 49.9,178.15 49.9,179.9 49.9,181.65 50.5,183.15 51.75,184.4 53,185.65 54.55,186.3 56.3,186.3z"/>
          </g>
        </g>
      </g>
    </g>
  </g>
</svg>