<?xml version="1.0" encoding="utf-8"?>
<!-- Generator: flash2svg, http://dissentgraphics.com/tools/flash2svg -->
<svg xmlns:xlink="http://www.w3.org/1999/xlink" id="sprite.__202781.__20(Acc).__2F105" image-rendering="optimizeSpeed" baseProfile="basic" version="1.1" style="background-color:#ffffff" x="0px" y="0px" width="550px" height="400px" viewBox="0 0 550 400" enable-background="new 0 0 550 400" xmlns="http://www.w3.org/2000/svg">
  <defs transform="matrix(1 0 0 1 0 0) "/>
  <g id="sprite.__202781.__20(Acc).__2F105">
    <g id="Layer.__207">
      <g id="Graphic.__2Fshape.__202734_1" overflow="visible">
        <g id="Layer.__258">
          <g id="shape451">
            <path id="path517" fill="#FFFFFF" fill-opacity="1" d="M13.5,190 L11,189.75 C7.45,189.75 4.1,191.4 1,194.75 -2.15,198.05 -3.45,200.95 -2.95,203.5 -2.45,206.05 -1,208.6 1.45,211.25 3.9,213.9 6.5,215.35 9.25,215.7 L13.5,190z"/>
            <path id="path518" fill="none" stroke="#000000" stroke-opacity="1" stroke-width="4" stroke-linecap="round" stroke-linejoin="round" d="M9.25,215.7 L13.5,190"/>
          </g>
        </g>
        <g id="Layer.__259">
          <g id="shape452">
            <path id="path519" fill="none" stroke="#000000" stroke-opacity="1" stroke-width="4" stroke-linecap="round" stroke-linejoin="round" d="M15.5,190.25 C14,190.95 12.55,191.2 11.15,190.95 L6.4,190.7 Q3.8,190.8 2.8,194.35 C2.15,196.7 1.75,197.7 1.6,197.35 1.5,197 1.05,197.75 0.25,199.7 -0.55,201.65 -0.5,203.2 0.35,204.25 1.25,205.35 1.75,206.4 1.85,207.45 2,208.5 2.55,209.5 3.55,210.35 4.55,211.2 5.1,212.35 5.15,213.8 5.2,215.25 6,216.05 7.45,216.15 L11.25,215.95"/>
          </g>
        </g>
      </g>
    </g>
    <g id="Layer.__208">
      <g id="Graphic.__2Fshape.__202736_1" overflow="visible">
        <g id="Layer.__260">
          <g id="shape453">
            <path id="path520" fill="none" stroke="#000000" stroke-opacity="1" stroke-width="4" stroke-linecap="round" stroke-linejoin="round" d="M18.65,-40.3 C20,-35.95 20.3,-29.35 19.65,-20.5 17.2,-14.55 12.65,-12.3 6.05,-13.85 3.6,-8.5 1.25,-4.5 -1.1,-1.9 -5.45,2.85 -11.15,4.65 -18.25,3.4 -23.25,2.45 -26.3,-0.6 -27.4,-5.85 -28.5,-11.1 -27.8,-17.35 -25.25,-24.7 -22.5,-32.65 -18.3,-38.8 -12.65,-43.15 -6.05,-48.3 1.6,-50 10.35,-48.25 14.45,-47.45 17.2,-44.8 18.65,-40.3z"/>
            <path id="path521" fill="#FFFFFF" fill-opacity="1" d="M12.4,-30.7 L10.55,-25.2 9.15,-21.3 C8.1,-18.55 7.1,-16.1 6.05,-13.85 12.65,-12.3 17.2,-14.55 19.65,-20.5 20.3,-29.35 20,-35.95 18.65,-40.3 17.2,-44.8 14.45,-47.45 10.35,-48.25 1.6,-50 -6.05,-48.3 -12.65,-43.15 -18.3,-38.8 -22.5,-32.65 -25.25,-24.7 -27.8,-17.35 -28.5,-11.1 -27.4,-5.85 -26.3,-0.6 -23.25,2.45 -18.25,3.4 -11.15,4.65 -5.45,2.85 -1.1,-1.9 1.25,-4.5 3.6,-8.5 6.05,-13.85 M116.55,-31.55 L118.4,-26.05 119.8,-22.15 C120.85,-19.4 121.85,-16.95 122.9,-14.7 125.35,-9.35 127.7,-5.35 130.05,-2.75 134.4,2 140.1,3.8 147.25,2.55 152.2,1.6 155.25,-1.45 156.35,-6.7 157.4,-11.95 156.7,-18.2 154.2,-25.55 151.45,-33.5 147.25,-39.65 141.6,-44 134.95,-49.15 127.3,-50.85 118.65,-49.1 114.5,-48.3 111.75,-45.65 110.35,-41.15 109,-36.8 108.65,-30.2 109.3,-21.35 111.75,-15.4 116.3,-13.15 122.9,-14.7z"/>
            <path id="path522" fill="none" stroke="#000000" stroke-opacity="1" stroke-width="4" stroke-linecap="round" stroke-linejoin="round" d="M12.4,-30.7 L10.55,-25.2 9.15,-21.3 C8.1,-18.55 7.1,-16.1 6.05,-13.85 12.65,-12.3 17.2,-14.55 19.65,-20.5 20.3,-29.35 20,-35.95 18.65,-40.3 17.2,-44.8 14.45,-47.45 10.35,-48.25 1.6,-50 -6.05,-48.3 -12.65,-43.15 -18.3,-38.8 -22.5,-32.65 -25.25,-24.7 -27.8,-17.35 -28.5,-11.1 -27.4,-5.85 -26.3,-0.6 -23.25,2.45 -18.25,3.4 -11.15,4.65 -5.45,2.85 -1.1,-1.9 1.25,-4.5 3.6,-8.5 6.05,-13.85"/>
            <path id="path523" fill="none" stroke="#000000" stroke-opacity="1" stroke-width="4" stroke-linecap="round" stroke-linejoin="round" d="M109.3,-21.35 C108.65,-30.2 109,-36.8 110.35,-41.15 111.75,-45.65 114.5,-48.3 118.65,-49.1 127.3,-50.85 134.95,-49.15 141.6,-44 147.25,-39.65 151.45,-33.5 154.2,-25.55 156.7,-18.2 157.4,-11.95 156.35,-6.7 155.25,-1.45 152.2,1.6 147.25,2.55 140.1,3.8 134.4,2 130.05,-2.75 127.7,-5.35 125.35,-9.35 122.9,-14.7 116.3,-13.15 111.75,-15.4 109.3,-21.35z"/>
            <path id="path524" fill="none" stroke="#000000" stroke-opacity="1" stroke-width="4" stroke-linecap="round" stroke-linejoin="round" d="M116.55,-31.55 L118.4,-26.05 119.8,-22.15 C120.85,-19.4 121.85,-16.95 122.9,-14.7 125.35,-9.35 127.7,-5.35 130.05,-2.75 134.4,2 140.1,3.8 147.25,2.55 152.2,1.6 155.25,-1.45 156.35,-6.7 157.4,-11.95 156.7,-18.2 154.2,-25.55 151.45,-33.5 147.25,-39.65 141.6,-44 134.95,-49.15 127.3,-50.85 118.65,-49.1 114.5,-48.3 111.75,-45.65 110.35,-41.15 109,-36.8 108.65,-30.2 109.3,-21.35 111.75,-15.4 116.3,-13.15 122.9,-14.7"/>
          </g>
        </g>
      </g>
    </g>
  </g>
</svg>