<?xml version="1.0" encoding="utf-8"?>
<!-- Generator: flash2svg, http://dissentgraphics.com/tools/flash2svg -->
<svg xmlns:xlink="http://www.w3.org/1999/xlink" id="sprite.__202781.__20(Acc).__2F107" image-rendering="optimizeSpeed" baseProfile="basic" version="1.1" style="background-color:#ffffff" x="0px" y="0px" width="550px" height="400px" viewBox="0 0 550 400" enable-background="new 0 0 550 400" xmlns="http://www.w3.org/2000/svg">
  <defs transform="matrix(1 0 0 1 0 0) "/>
  <g id="sprite.__202781.__20(Acc).__2F107">
    <g id="Layer.__211">
      <g id="Graphic.__2Fshape.__202734_3" overflow="visible">
        <g id="Layer.__265">
          <g id="shape458">
            <path id="path544" fill="#FFFFFF" fill-opacity="1" d="M13.5,190 L11,189.75 C7.45,189.75 4.1,191.4 1,194.75 -2.15,198.05 -3.45,200.95 -2.95,203.5 -2.45,206.05 -1,208.6 1.45,211.25 3.9,213.9 6.5,215.35 9.25,215.7 L13.5,190z"/>
            <path id="path545" fill="none" stroke="#000000" stroke-opacity="1" stroke-width="4" stroke-linecap="round" stroke-linejoin="round" d="M9.25,215.7 L13.5,190"/>
          </g>
        </g>
        <g id="Layer.__266">
          <g id="shape459">
            <path id="path546" fill="none" stroke="#000000" stroke-opacity="1" stroke-width="4" stroke-linecap="round" stroke-linejoin="round" d="M15.5,190.25 C14,190.95 12.55,191.2 11.15,190.95 L6.4,190.7 Q3.8,190.8 2.8,194.35 C2.15,196.7 1.75,197.7 1.6,197.35 1.5,197 1.05,197.75 0.25,199.7 -0.55,201.65 -0.5,203.2 0.35,204.25 1.25,205.35 1.75,206.4 1.85,207.45 2,208.5 2.55,209.5 3.55,210.35 4.55,211.2 5.1,212.35 5.15,213.8 5.2,215.25 6,216.05 7.45,216.15 L11.25,215.95"/>
          </g>
        </g>
      </g>
    </g>
    <g id="Layer.__212">
      <g id="Graphic.__2Fshape.__202742_1" overflow="visible">
        <g id="Layer.__267">
          <g id="shape460">
            <path id="path547" fill="#000000" fill-opacity="1" d="M10.35,-17.45 L10.35,-17.9 10.35,-19 10.35,-19.1 C9.9,-20.25 5.6,-24.5 -2.55,-31.75 L-3.1,-32.25 -3.25,-32.35 -3.5,-32.4 C-6.95,-31.75 -13.1,-26.6 -21.95,-16.85 L-42.9,6.3 C-48,12 -53,21.15 -57.85,33.7 -62.75,46.2 -62.4,60.95 -56.8,78 -51.2,95 -45.75,104.6 -40.5,106.75 -35.25,108.9 -30.6,109.05 -26.5,107.2 -22.4,105.35 -19.15,100.35 -16.7,92.25 -15.05,86.6 -13.95,80.7 -13.5,74.65 L-13.5,74.6 C-13.5,70.25 -14.65,63.8 -16.9,55.15 -19.15,46.6 -20.3,40.15 -20.3,35.9 -20.3,25.45 -15.2,14.2 -5.05,2.1 L4.2,-8.4 C8.05,-12.65 10.1,-15.65 10.35,-17.45z M121.4,-31.65 L121.25,-31.55 120.8,-30.95 C113.5,-22.8 109.7,-18.15 109.45,-16.95 L109.45,-16.8 109.6,-15.7 109.7,-15.25 C110.15,-13.5 112.5,-10.75 116.85,-7 L127.2,2.35 C138.7,13.15 145.1,23.75 146.35,34.1 146.85,38.35 146.5,44.85 145.25,53.6 144,62.45 143.6,69 144.15,73.3 145.3,79.3 147.05,85 149.4,90.45 152.75,98.2 156.55,102.75 160.85,104.1 165.1,105.45 169.75,104.75 174.75,102 179.7,99.25 183.95,89.1 187.5,71.55 191.05,54 189.65,39.3 183.35,27.45 177.05,15.6 171.05,7.1 165.3,2.05 L141.8,-18.5 C131.85,-27.1 125.15,-31.5 121.65,-31.7 L121.4,-31.65z"/>
            <path id="path548" fill="#DDDDDD" fill-opacity="1" d="M1.05,-13.15 L2.6,-14.95 4.45,-17.35 -4.2,-26.35 -5.6,-25.15 -8,-23.05 -4.55,-18.65 C-2.05,-15.6 -0.2,-13.75 1.05,-13.15z M117.65,-13.7 L119.4,-12.1 C120.5,-12.85 122.1,-14.85 124.25,-18.2 L127.2,-22.95 124.55,-24.75 123.05,-25.8 115.55,-15.85 117.65,-13.7z"/>
            <path id="path549" fill="#FFFFFF" fill-opacity="1" d="M-4.55,-18.65 L-8,-23.05 C-15.2,-16.6 -23.95,-7.45 -34.2,4.35 -46.45,18.45 -53.45,32 -55.1,45 -56.75,58 -55.75,69.3 -52.1,78.95 -48.5,88.6 -45.1,95.6 -41.85,99.95 -38.65,104.25 -34.5,105.15 -29.4,102.65 -24.3,100.1 -21.25,94 -20.2,84.3 -19.25,74.6 -19.6,66.35 -21.35,59.55 L-25.15,44.75 C-25.9,41.65 -26.15,38 -25.8,33.8 L-25.8,33.75 C-25.45,29.55 -24.5,25.5 -22.95,21.6 -21.45,17.7 -19.55,13.9 -17.3,10.25 -15.1,6.6 -11.9,2.3 -7.7,-2.65 L1.05,-13.15 C-0.2,-13.75 -2.05,-15.6 -4.55,-18.65z M127.2,-22.95 L124.25,-18.2 C122.1,-14.85 120.5,-12.85 119.4,-12.1 L129.3,-2.7 C134.05,1.75 137.75,5.65 140.4,9 143.05,12.35 145.35,15.9 147.35,19.6 149.3,23.3 150.7,27.2 151.55,31.35 152.4,35.5 152.6,39.15 152.15,42.3 L150.15,57.45 C149.2,64.4 149.8,72.6 151.95,82.1 154.1,91.6 157.85,97.3 163.2,99.25 168.55,101.15 172.6,99.75 175.25,95.1 177.9,90.4 180.5,83.05 182.95,73.1 185.4,63.1 185.05,51.75 181.9,39.05 178.75,26.3 170.25,13.7 156.4,1.15 144.85,-9.35 135.1,-17.4 127.2,-22.95z"/>
          </g>
        </g>
      </g>
    </g>
  </g>
</svg>