<?xml version="1.0" encoding="utf-8"?>
<!-- Generator: flash2svg, http://dissentgraphics.com/tools/flash2svg -->
<svg xmlns:xlink="http://www.w3.org/1999/xlink" id="sprite.__202781.__20(Acc).__2F124" image-rendering="optimizeSpeed" baseProfile="basic" version="1.1" style="background-color:#ffffff" x="0px" y="0px" width="550px" height="400px" viewBox="0 0 550 400" enable-background="new 0 0 550 400" xmlns="http://www.w3.org/2000/svg">
  <defs transform="matrix(1 0 0 1 0 0) "/>
  <g id="sprite.__202781.__20(Acc).__2F124">
    <g id="Layer.__206">
      <g id="Graphic.__2Fshape.__202751_1" overflow="visible">
        <g id="Layer.__287">
          <g id="shape652">
            <path id="path1911" fill="none" stroke="#000000" stroke-opacity="1" stroke-width="2" stroke-linecap="round" stroke-linejoin="round" d="M67.35,108.5 L71.25,108.5 Q74.2,108.7 77.9,112.95 C80.45,110.1 82.8,108.7 85,108.85 L85.05,108.85 C87.9,108.8 90.15,110.4 91.7,113.65 93.3,116.45 92.5,120.95 89.25,127.2 L89.2,127.25 86.05,132.05 86.15,132.15 C96.35,141.05 101.45,148.6 101.5,154.8 101.35,161.5 98.6,165.75 93.35,167.6 88.1,169.45 85.5,170.25 85.65,170 85.8,169.75 85.7,169.2 85.3,168.35 84.9,167.55 84.75,167.05 84.85,166.9 84.95,166.7 87,165.85 91.05,164.4 95.1,162.95 97.3,160.2 97.6,156.15 97.85,152.1 95.45,147.5 90.4,142.35 86.9,138.85 84.6,136.4 83.5,135.05 81,137.55 78.15,139.5 75,140.9 69.05,143.5 65.85,144.7 65.35,144.5 L64.15,143.35 C63.9,142.8 63.9,142.5 64.15,142.4 L73.05,138.15 C78.7,135.4 83,131.35 85.95,126 88.8,120.6 89.8,117 88.85,115.25 87.9,113.45 86.6,112.75 84.95,113.1 L84.9,113.1 C83.3,113.15 81.45,114.2 79.4,116.15 78.95,116.55 78.45,116.75 77.9,116.75 77.35,116.75 76.85,116.55 76.45,116.15 74.3,114.1 72.4,112.95 70.85,112.75 L68.5,112.8"/>
            <path id="path1912" fill="#3A4C64" fill-opacity="1" d="M77.9,112.95 Q74.2,108.7 71.25,108.5 L67.35,108.5 68.5,112.8 70.85,112.75 C72.4,112.95 74.3,114.1 76.45,116.15 76.85,116.55 77.35,116.75 77.9,116.75 78.45,116.75 78.95,116.55 79.4,116.15 81.45,114.2 83.3,113.15 84.9,113.1 L84.95,113.1 C86.6,112.75 87.9,113.45 88.85,115.25 89.8,117 88.8,120.6 85.95,126 83,131.35 78.7,135.4 73.05,138.15 L64.15,142.4 C63.9,142.5 63.9,142.8 64.15,143.35 L65.35,144.5 C65.85,144.7 69.05,143.5 75,140.9 78.15,139.5 81,137.55 83.5,135.05 L86.05,132.05 89.2,127.25 89.25,127.2 C92.5,120.95 93.3,116.45 91.7,113.65 90.15,110.4 87.9,108.8 85.05,108.85 L85,108.85 C82.8,108.7 80.45,110.1 77.9,112.95z"/>
            <path id="path1913" fill="none" stroke="#000000" stroke-opacity="1" stroke-width="2" stroke-linecap="round" stroke-linejoin="round" d="M68.5,112.8 L70.85,112.75 C72.4,112.95 74.3,114.1 76.45,116.15 76.85,116.55 77.35,116.75 77.9,116.75 78.45,116.75 78.95,116.55 79.4,116.15 81.45,114.2 83.3,113.15 84.9,113.1 L84.95,113.1 C86.6,112.75 87.9,113.45 88.85,115.25 89.8,117 88.8,120.6 85.95,126 83,131.35 78.7,135.4 73.05,138.15 L64.15,142.4 C63.9,142.5 63.9,142.8 64.15,143.35 L65.35,144.5 C65.85,144.7 69.05,143.5 75,140.9 78.15,139.5 81,137.55 83.5,135.05 L86.05,132.05 89.2,127.25 89.25,127.2 C92.5,120.95 93.3,116.45 91.7,113.65 90.15,110.4 87.9,108.8 85.05,108.85 L85,108.85 C82.8,108.7 80.45,110.1 77.9,112.95 Q74.2,108.7 71.25,108.5 L67.35,108.5"/>
            <path id="path1914" fill="#3A4C64" fill-opacity="1" d="M83.5,135.05 C84.6,136.4 86.9,138.85 90.4,142.35 95.45,147.5 97.85,152.1 97.6,156.15 97.3,160.2 95.1,162.95 91.05,164.4 87,165.85 84.95,166.7 84.85,166.9 84.75,167.05 84.9,167.55 85.3,168.35 85.7,169.2 85.8,169.75 85.65,170 85.5,170.25 88.1,169.45 93.35,167.6 98.6,165.75 101.35,161.5 101.5,154.8 101.45,148.6 96.35,141.05 86.15,132.15 L86.05,132.05 83.5,135.05z M43.85,125.95 C43.5,126.55 43.1,126.85 42.6,126.8 42.1,126.75 41.7,127 41.4,127.5 40.95,128.2 40.8,129.6 40.9,131.65 40.95,133.7 41.9,135.75 43.75,137.8 45.5,139.8 48.05,141.3 51.4,142.3 54.65,143.3 56.6,143.6 57.2,143.15 57.65,142.8 57.95,142.35 58.05,141.8 58.1,141.2 57.95,140.7 57.6,140.25 57.25,139.75 54.95,138.9 50.65,137.75 46.35,136.6 44.15,134.1 44,130.35 L43.85,125.95z M27.1,108.8 C29.15,110.3 30.35,110.2 30.7,108.45 L30.8,107.65 C22.05,101.05 16.4,101.1 13.75,107.8 13,109.8 13.65,113.05 15.8,117.5 17.6,121.25 19.75,124.2 22.2,126.35 24.65,128.5 25.9,128.9 25.95,127.65 26,126.35 26.15,125.45 26.4,124.95 22.65,121.75 20,118.55 18.4,115.35 17.05,112.7 16.65,110.45 17.2,108.6 17.7,107.15 18.95,106.45 21,106.5 22.95,106.55 25,107.3 27.1,108.8z M21.6,174.15 C21.9,174.6 22.35,174.95 22.9,175.1 42.85,179.45 62.8,179.45 82.75,175.1 83.3,174.95 83.75,174.6 84.05,174.15 84.35,173.65 84.45,173.1 84.35,172.55 84.25,172 83.95,171.55 83.4,171.2 L81.8,170.9 C62.45,175.2 43.15,175.2 23.85,170.9 L22.2,171.2 C21.75,171.55 21.45,172 21.3,172.55 21.15,173.1 21.25,173.65 21.6,174.15z"/>
            <path id="path1915" fill="none" stroke="#000000" stroke-opacity="1" stroke-width="2" stroke-linecap="round" stroke-linejoin="round" d="M83.5,135.05 C84.6,136.4 86.9,138.85 90.4,142.35 95.45,147.5 97.85,152.1 97.6,156.15 97.3,160.2 95.1,162.95 91.05,164.4 87,165.85 84.95,166.7 84.85,166.9 84.75,167.05 84.9,167.55 85.3,168.35 85.7,169.2 85.8,169.75 85.65,170 85.5,170.25 88.1,169.45 93.35,167.6 98.6,165.75 101.35,161.5 101.5,154.8 101.45,148.6 96.35,141.05 86.15,132.15 L86.05,132.05 83.5,135.05z"/>
            <path id="path1916" fill="none" stroke="#000000" stroke-opacity="1" stroke-width="2" stroke-linecap="round" stroke-linejoin="round" d="M43.85,125.95 C43.5,126.55 43.1,126.85 42.6,126.8 42.1,126.75 41.7,127 41.4,127.5 40.95,128.2 40.8,129.6 40.9,131.65 40.95,133.7 41.9,135.75 43.75,137.8 45.5,139.8 48.05,141.3 51.4,142.3 54.65,143.3 56.6,143.6 57.2,143.15 57.65,142.8 57.95,142.35 58.05,141.8 58.1,141.2 57.95,140.7 57.6,140.25 57.25,139.75 54.95,138.9 50.65,137.75 46.35,136.6 44.15,134.1 44,130.35 L43.85,125.95z"/>
            <path id="path1917" fill="none" stroke="#000000" stroke-opacity="1" stroke-width="2" stroke-linecap="round" stroke-linejoin="round" d="M27.1,108.8 C29.15,110.3 30.35,110.2 30.7,108.45 L30.8,107.65 C22.05,101.05 16.4,101.1 13.75,107.8 13,109.8 13.65,113.05 15.8,117.5 17.6,121.25 19.75,124.2 22.2,126.35 24.65,128.5 25.9,128.9 25.95,127.65 26,126.35 26.15,125.45 26.4,124.95 22.65,121.75 20,118.55 18.4,115.35 17.05,112.7 16.65,110.45 17.2,108.6 17.7,107.15 18.95,106.45 21,106.5 22.95,106.55 25,107.3 27.1,108.8z"/>
            <path id="path1918" fill="none" stroke="#000000" stroke-opacity="1" stroke-width="2" stroke-linecap="round" stroke-linejoin="round" d="M21.6,174.15 C21.9,174.6 22.35,174.95 22.9,175.1 42.85,179.45 62.8,179.45 82.75,175.1 83.3,174.95 83.75,174.6 84.05,174.15 84.35,173.65 84.45,173.1 84.35,172.55 84.25,172 83.95,171.55 83.4,171.2 L81.8,170.9 C62.45,175.2 43.15,175.2 23.85,170.9 L22.2,171.2 C21.75,171.55 21.45,172 21.3,172.55 21.15,173.1 21.25,173.65 21.6,174.15z"/>
          </g>
        </g>
        <g id="Layer.__288">
          <g id="shape653">
            <path id="path1919" fill="#3A4C64" fill-opacity="1" d="M65.65,147 C67.4,145.25 68.25,143.2 68.25,140.75 68.25,138.3 67.4,136.25 65.65,134.5 63.9,132.75 61.85,131.9 59.4,131.9 56.95,131.9 54.9,132.75 53.15,134.5 51.4,136.25 50.55,138.3 50.55,140.75 50.55,143.2 51.4,145.25 53.15,147 54.9,148.75 56.95,149.6 59.4,149.6 61.85,149.6 63.9,148.75 65.65,147z"/>
            <path id="path1920" fill="none" stroke="#000000" stroke-opacity="1" stroke-width="2" stroke-linecap="round" stroke-linejoin="round" d="M65.65,147 C67.4,145.25 68.25,143.2 68.25,140.75 68.25,138.3 67.4,136.25 65.65,134.5 63.9,132.75 61.85,131.9 59.4,131.9 56.95,131.9 54.9,132.75 53.15,134.5 51.4,136.25 50.55,138.3 50.55,140.75 50.55,143.2 51.4,145.25 53.15,147 54.9,148.75 56.95,149.6 59.4,149.6 61.85,149.6 63.9,148.75 65.65,147z"/>
          </g>
        </g>
      </g>
    </g>
  </g>
</svg>