<?xml version="1.0" encoding="utf-8"?>
<!-- Generator: flash2svg, http://dissentgraphics.com/tools/flash2svg -->
<svg xmlns:xlink="http://www.w3.org/1999/xlink" id="sprite.__202781.__20(Acc).__2F139" image-rendering="optimizeSpeed" baseProfile="basic" version="1.1" style="background-color:#ffffff" x="0px" y="0px" width="550px" height="400px" viewBox="0 0 550 400" enable-background="new 0 0 550 400" xmlns="http://www.w3.org/2000/svg">
  <defs transform="matrix(1 0 0 1 0 0) "/>
  <g id="sprite.__202781.__20(Acc).__2F139">
    <g id="Layer.__221">
      <g id="Graphic.__2Fshape.__202777_1" overflow="visible">
        <g id="Layer.__371">
          <g id="shape734">
            <path id="path4915" fill="#FFFFFF" fill-opacity="1" d="M149.4,33.05 L149.4,32.85 148.75,29.15 148.3,28.3 148.2,28.25 147.45,27.9 C132.9,25.35 118.6,25.95 104.45,29.65 97.8,31.35 91.25,33.75 84.75,36.8 82,38 78.25,38.45 73.4,38.15 L73.3,38.15 72.65,37.95 69.1,36.7 54.55,31.45 53.9,31.2 C40.75,26.5 23.95,26.2 3.5,30.25 3.2,30.3 2.95,30.4 2.75,30.65 2.5,30.9 2.3,31.15 2.25,31.5 L2,32.85 1.55,35 1.5,35.25 -0.15,44.5 C-1.3,50.65 -0.05,57.75 3.65,65.7 7.3,73.85 15.8,78.85 29.1,80.8 L29.25,80.8 C43,81.45 52.75,79.75 58.45,75.8 L58.4,75.8 C60.25,74.55 61.95,73.15 63.45,71.6 L63.55,71.45 C66.7,68.1 69.1,64.1 70.65,59.35 L70.65,59.4 C72.55,53.55 74.8,50.45 77.4,50.1 79.9,49.85 81.75,50.9 82.9,53.25 L82.95,53.35 C84.85,58.25 87.05,62.5 89.6,66.05 L89.8,66.3 C91.45,68.55 93.2,70.5 95.15,72.25 100.85,77.4 110.6,79.25 124.4,77.8 L124.5,77.8 C136.25,75.75 143.85,70 147.3,60.6 150.25,52.5 150.95,43.3 149.4,33.05z M93.55,62.3 C87.95,52.15 87.15,45.25 91.2,41.5 108.35,32.3 126.25,29.75 144.95,33.85 146.2,42.7 145.5,50.65 142.95,57.7 140,65.55 133.55,70.35 123.65,72.1 L123.75,72.1 C111.75,73.35 103.25,71.8 98.3,67.55 96.6,66 95,64.25 93.55,62.3z M6.05,36.2 C36.65,31.65 56.5,34.9 65.55,46.05 66.8,51.2 64.9,58.3 59.75,67.35 L55.6,70.85 55.55,70.85 C50.5,74.2 41.9,75.6 29.8,75.05 18.5,73.4 11.25,69.25 8.05,62.5 4.85,55.6 3.7,49.5 4.65,44.15 L6.05,36.2z"/>
            <path id="path4916" fill="none" stroke="#000000" stroke-opacity="1" stroke-width="3" stroke-linecap="round" stroke-linejoin="round" d="M149.4,33.05 L149.4,32.85 148.75,29.15 148.3,28.3 148.2,28.25 147.45,27.9 C132.9,25.35 118.6,25.95 104.45,29.65 97.8,31.35 91.25,33.75 84.75,36.8 82,38 78.25,38.45 73.4,38.15 L73.3,38.15 72.65,37.95 69.1,36.7 54.55,31.45 53.9,31.2 C40.75,26.5 23.95,26.2 3.5,30.25 3.2,30.3 2.95,30.4 2.75,30.65 2.5,30.9 2.3,31.15 2.25,31.5 L2,32.85 1.55,35 1.5,35.25 -0.15,44.5 C-1.3,50.65 -0.05,57.75 3.65,65.7 7.3,73.85 15.8,78.85 29.1,80.8 L29.25,80.8 C43,81.45 52.75,79.75 58.45,75.8 L58.4,75.8 C60.25,74.55 61.95,73.15 63.45,71.6 L63.55,71.45 C66.7,68.1 69.1,64.1 70.65,59.35 L70.65,59.4 C72.55,53.55 74.8,50.45 77.4,50.1 79.9,49.85 81.75,50.9 82.9,53.25 L82.95,53.35 C84.85,58.25 87.05,62.5 89.6,66.05 L89.8,66.3 C91.45,68.55 93.2,70.5 95.15,72.25 100.85,77.4 110.6,79.25 124.4,77.8 L124.5,77.8 C136.25,75.75 143.85,70 147.3,60.6 150.25,52.5 150.95,43.3 149.4,33.05z"/>
            <path id="path4917" fill="#000000" fill-opacity="0.9333333333333333" d="M93.55,62.3 C95,64.25 96.6,66 98.3,67.55 103.25,71.8 111.75,73.35 123.75,72.1 L123.65,72.1 C133.55,70.35 140,65.55 142.95,57.7 145.5,50.65 146.2,42.7 144.95,33.85 126.25,29.75 108.35,32.3 91.2,41.5 87.15,45.25 87.95,52.15 93.55,62.3z"/>
            <path id="path4918" fill="none" stroke="#000000" stroke-opacity="1" stroke-width="3" stroke-linecap="round" stroke-linejoin="round" d="M93.55,62.3 C95,64.25 96.6,66 98.3,67.55 103.25,71.8 111.75,73.35 123.75,72.1 L123.65,72.1 C133.55,70.35 140,65.55 142.95,57.7 145.5,50.65 146.2,42.7 144.95,33.85 126.25,29.75 108.35,32.3 91.2,41.5 87.15,45.25 87.95,52.15 93.55,62.3z"/>
            <path id="path4919" fill="#000000" fill-opacity="0.9333333333333333" d="M6.05,36.2 L4.65,44.15 C3.7,49.5 4.85,55.6 8.05,62.5 11.25,69.25 18.5,73.4 29.8,75.05 41.9,75.6 50.5,74.2 55.55,70.85 L55.6,70.85 59.75,67.35 C64.9,58.3 66.8,51.2 65.55,46.05 56.5,34.9 36.65,31.65 6.05,36.2z"/>
            <path id="path4920" fill="none" stroke="#000000" stroke-opacity="1" stroke-width="3" stroke-linecap="round" stroke-linejoin="round" d="M6.05,36.2 L4.65,44.15 C3.7,49.5 4.85,55.6 8.05,62.5 11.25,69.25 18.5,73.4 29.8,75.05 41.9,75.6 50.5,74.2 55.55,70.85 L55.6,70.85 59.75,67.35 C64.9,58.3 66.8,51.2 65.55,46.05 56.5,34.9 36.65,31.65 6.05,36.2z"/>
          </g>
        </g>
      </g>
    </g>
  </g>
</svg>