<?xml version="1.0" encoding="utf-8"?>
<!-- Generator: flash2svg, http://dissentgraphics.com/tools/flash2svg -->
<svg xmlns:xlink="http://www.w3.org/1999/xlink" id="sprite.__202781.__20(Acc).__2F14" image-rendering="optimizeSpeed" baseProfile="basic" version="1.1" style="background-color:#ffffff" x="0px" y="0px" width="550px" height="400px" viewBox="0 0 550 400" enable-background="new 0 0 550 400" xmlns="http://www.w3.org/2000/svg">
  <defs transform="matrix(1 0 0 1 0 0) "/>
  <g id="sprite.__202781.__20(Acc).__2F14">
    <g id="Layer.__215">
      <g id="Graphic.__2Fshape.__202609_1" overflow="visible">
        <g id="Layer.__669">
          <g id="shape1303">
            <path id="path2078" fill="#000000" fill-opacity="1" d="M140.85,47.65 C140.85,43.6 139,39.85 135.3,36.3 130.25,31.5 122.9,29.1 113.3,29.1 105.05,29.1 98.8,32.35 94.6,38.8 92.5,42.05 91.25,45 90.8,47.65 L69.55,46.6 59.75,46.95 C59.4,44.8 58.5,42.65 57.15,40.55 52.75,33.9 44.15,30.6 31.3,30.6 22.5,30.6 16.2,34.65 12.35,42.8 11.1,45.45 10.2,48.05 9.7,50.6 5.95,46.95 3.1,45.1 1.05,45.1 -0.2,45.1 -0.8,45.8 -0.8,47.15 3.75,51.45 7.05,54.05 9.15,55 L9.1,56.05 C9.1,58.85 10.6,61.95 13.65,65.3 18.15,70.35 24.7,72.85 33.3,72.85 43.85,72.85 51.4,69.7 55.85,63.35 58.5,59.6 59.85,55.35 59.85,50.65 L59.95,49.85 84.8,50.85 90.65,50.65 C90.8,54.2 92.05,57.6 94.3,60.85 98.65,67.2 106,70.35 116.3,70.35 127.15,70.35 134.45,67.25 138.1,61.05 139.85,58.05 140.8,53.75 140.85,48.15 L140.85,48.05 140.85,47.65z M132.8,44.1 C131,44.1 130.1,44.8 130.1,46.15 130.1,46.4 131.1,47.05 133.1,48.1 134.6,48.9 135.9,49.45 137.05,49.7 136.9,53.25 136.25,55.95 135.1,57.85 131.75,63.65 124.55,66.55 113.6,66.55 106.6,66.55 101.35,64.05 97.8,59.1 95.5,55.85 94.35,52.75 94.35,49.7 94.35,46.55 96.1,43.1 99.6,39.3 103.4,35.15 107.3,33.1 111.35,33.1 119.85,33.1 126.4,34.6 131.05,37.6 134.2,39.65 136.15,42.15 136.85,45.05 Q134.75,44.1 132.8,44.1z M28.85,34.6 C40.7,34.6 48.8,37.1 53.05,42.1 55.1,44.45 56.1,47.35 56.1,50.7 56.1,54.8 54.95,58.35 52.6,61.3 48.55,66.45 41.5,69.05 31.35,69.05 26.1,69.05 21.55,67.2 17.6,63.55 14.45,60.6 12.85,58.05 12.85,55.95 13.3,52.2 14.25,48.6 15.8,45.1 18.85,38.1 23.2,34.6 28.85,34.6z"/>
            <path id="path2079" fill="#DDFFFF" fill-opacity="0.30196078431372547" d="M132.8,44.1 Q134.75,44.1 136.85,45.05 C136.15,42.15 134.2,39.65 131.05,37.6 126.4,34.6 119.85,33.1 111.35,33.1 107.3,33.1 103.4,35.15 99.6,39.3 96.1,43.1 94.35,46.55 94.35,49.7 94.35,52.75 95.5,55.85 97.8,59.1 101.35,64.05 106.6,66.55 113.6,66.55 124.55,66.55 131.75,63.65 135.1,57.85 136.25,55.95 136.9,53.25 137.05,49.7 135.9,49.45 134.6,48.9 133.1,48.1 131.1,47.05 130.1,46.4 130.1,46.15 130.1,44.8 131,44.1 132.8,44.1z"/>
            <path id="path2080" fill="#DDFFFF" fill-opacity="0.30196078431372547" d="M28.85,34.6 C23.2,34.6 18.85,38.1 15.8,45.1 14.25,48.6 13.3,52.2 12.85,55.95 12.85,58.05 14.45,60.6 17.6,63.55 21.55,67.2 26.1,69.05 31.35,69.05 41.5,69.05 48.55,66.45 52.6,61.3 54.95,58.35 56.1,54.8 56.1,50.7 56.1,47.35 55.1,44.45 53.05,42.1 48.8,37.1 40.7,34.6 28.85,34.6z"/>
          </g>
        </g>
      </g>
    </g>
  </g>
</svg>