<?xml version="1.0" encoding="utf-8"?>
<!-- Generator: flash2svg, http://dissentgraphics.com/tools/flash2svg -->
<svg xmlns:xlink="http://www.w3.org/1999/xlink" id="sprite.__202781.__20(Acc).__2F140" image-rendering="optimizeSpeed" baseProfile="basic" version="1.1" style="background-color:#ffffff" x="0px" y="0px" width="550px" height="400px" viewBox="0 0 550 400" enable-background="new 0 0 550 400" xmlns="http://www.w3.org/2000/svg">
  <defs transform="matrix(1 0 0 1 0 0) "/>
  <g id="sprite.__202781.__20(Acc).__2F140">
    <g id="Layer.__201">
      <g id="Graphic.__2Fshape.__202766_1" overflow="visible">
        <g id="Layer.__275">
          <g id="shape378">
            <path id="path563" fill="none" stroke="#000000" stroke-opacity="1" stroke-width="5" stroke-linecap="round" stroke-linejoin="round" d="M120.85,80.2 C119,80.75 117.05,81.05 114.95,81.05 L114.1,81.05 109.95,80.45 C108.7,80.15 107.55,79.7 106.45,79.15 104.55,78.2 102.8,76.95 101.2,75.35 L100.75,74.9 C97.3,71.25 95.55,66.8 95.55,61.65 95.55,56.3 97.45,51.7 101.2,47.9 105,44.15 109.6,42.25 114.95,42.25 119.1,42.25 122.75,43.4 125.95,45.65 L128.65,47.9 L130.95,50.65 C131.7,51.7 132.3,52.75 132.8,53.9 133.35,55.15 133.8,56.5 134.05,57.9 L134.35,61.65 C134.35,67 132.45,71.6 128.65,75.35 126.35,77.7 123.75,79.3 120.85,80.2z"/>
            <path id="path564" fill="none" stroke="#000000" stroke-opacity="1" stroke-width="4" stroke-linecap="round" stroke-linejoin="round" d="M82.8,164.3 C129.05,139.55 141.75,111.5 120.85,80.2"/>
            <path id="path565" fill="#FFFFFF" fill-opacity="0.7019607843137254" d="M130.95,50.65 L128.65,47.9 125.95,45.65 100.75,74.9 101.2,75.35 C102.8,76.95 104.55,78.2 106.45,79.15 L130.95,50.65z M109.95,80.45 L114.1,81.05 134.05,57.9 C133.8,56.5 133.35,55.15 132.8,53.9 L109.95,80.45z"/>
            <path id="path566" fill="none" stroke="#000000" stroke-opacity="1" stroke-width="5" stroke-linecap="round" stroke-linejoin="round" d="M130.95,50.65 L128.65,47.9 125.95,45.65"/>
            <path id="path567" fill="none" stroke="#000000" stroke-opacity="1" stroke-width="5" stroke-linecap="round" stroke-linejoin="round" d="M100.75,74.9 L101.2,75.35 C102.8,76.95 104.55,78.2 106.45,79.15"/>
            <path id="path568" fill="#FFFFFF" fill-opacity="0.5019607843137255" d="M114.95,42.25 C109.6,42.25 105,44.15 101.2,47.9 97.45,51.7 95.55,56.3 95.55,61.65 95.55,66.8 97.3,71.25 100.75,74.9 L125.95,45.65 C122.75,43.4 119.1,42.25 114.95,42.25z M114.95,81.05 C117.05,81.05 119,80.75 120.85,80.2 123.75,79.3 126.35,77.7 128.65,75.35 132.45,71.6 134.35,67 134.35,61.65 L134.05,57.9 114.1,81.05 114.95,81.05z M106.45,79.15 C107.55,79.7 108.7,80.15 109.95,80.45 L132.8,53.9 C132.3,52.75 131.7,51.7 130.95,50.65 L106.45,79.15z"/>
            <path id="path569" fill="none" stroke="#000000" stroke-opacity="1" stroke-width="5" stroke-linecap="round" stroke-linejoin="round" d="M125.95,45.65 C122.75,43.4 119.1,42.25 114.95,42.25 C109.6,42.25 105,44.15 101.2,47.9 97.45,51.7 95.55,56.3 95.55,61.65 95.55,66.8 97.3,71.25 100.75,74.9"/>
            <path id="path570" fill="none" stroke="#000000" stroke-opacity="1" stroke-width="5" stroke-linecap="round" stroke-linejoin="round" d="M114.1,81.05 L114.95,81.05 C117.05,81.05 119,80.75 120.85,80.2 123.75,79.3 126.35,77.7 128.65,75.35 132.45,71.6 134.35,67 134.35,61.65 L134.05,57.9"/>
            <path id="path571" fill="none" stroke="#000000" stroke-opacity="1" stroke-width="5" stroke-linecap="round" stroke-linejoin="round" d="M106.45,79.15 C107.55,79.7 108.7,80.15 109.95,80.45"/>
            <path id="path572" fill="none" stroke="#000000" stroke-opacity="1" stroke-width="5" stroke-linecap="round" stroke-linejoin="round" d="M132.8,53.9 C132.3,52.75 131.7,51.7 130.95,50.65"/>
            <path id="path573" fill="none" stroke="#000000" stroke-opacity="1" stroke-width="5" stroke-linecap="round" stroke-linejoin="round" d="M109.95,80.45 L114.1,81.05"/>
            <path id="path574" fill="none" stroke="#000000" stroke-opacity="1" stroke-width="5" stroke-linecap="round" stroke-linejoin="round" d="M134.05,57.9 C133.8,56.5 133.35,55.15 132.8,53.9"/>
          </g>
        </g>
      </g>
    </g>
    <g id="Layer.__202">
      <g id="Graphic.__2Fshape.__202768_1" overflow="visible">
        <g id="Layer.__276">
          <g id="shape379">
            <path id="path575" fill="none" stroke="#000000" stroke-opacity="1" stroke-width="4" stroke-linecap="round" stroke-linejoin="round" d="M94.9,83.3 Q105.85,91.25 112.4,92.05 C102.3,94.9 89.4,91.9 73.65,83.05 67.7,91.1 56.15,94.75 39.1,94 43.85,93.95 49.15,91.55 55,86.85 64.35,79.4 70.6,78.1 73.65,83.05 80.5,77.9 87.6,78 94.9,83.3z"/>
            <path id="path576" fill="#404040" fill-opacity="1" d="M112.4,92.05 Q105.85,91.25 94.9,83.3 C87.6,78 80.5,77.9 73.65,83.05 89.4,91.9 102.3,94.9 112.4,92.05z M73.65,83.05 C70.6,78.1 64.35,79.4 55,86.85 49.15,91.55 43.85,93.95 39.1,94 56.15,94.75 67.7,91.1 73.65,83.05z"/>
            <path id="path577" fill="none" stroke="#000000" stroke-opacity="1" stroke-width="4" stroke-linecap="round" stroke-linejoin="round" d="M112.4,92.05 Q105.85,91.25 94.9,83.3 C87.6,78 80.5,77.9 73.65,83.05 89.4,91.9 102.3,94.9 112.4,92.05z"/>
            <path id="path578" fill="none" stroke="#000000" stroke-opacity="1" stroke-width="4" stroke-linecap="round" stroke-linejoin="round" d="M73.65,83.05 C70.6,78.1 64.35,79.4 55,86.85 49.15,91.55 43.85,93.95 39.1,94 56.15,94.75 67.7,91.1 73.65,83.05z"/>
          </g>
        </g>
      </g>
    </g>
  </g>
</svg>