<?xml version="1.0" encoding="utf-8"?>
<!-- Generator: flash2svg, http://dissentgraphics.com/tools/flash2svg -->
<svg xmlns:xlink="http://www.w3.org/1999/xlink" id="sprite.__202781.__20(Acc).__2F153" image-rendering="optimizeSpeed" baseProfile="basic" version="1.1" style="background-color:#ffffff" x="0px" y="0px" width="550px" height="400px" viewBox="0 0 550 400" enable-background="new 0 0 550 400" xmlns="http://www.w3.org/2000/svg">
  <defs transform="matrix(1 0 0 1 0 0) "/>
  <g id="sprite.__202781.__20(Acc).__2F153">
    <g id="Layer.__217">
      <g id="Graphic.__2Fshape.__202789_1" overflow="visible">
        <g id="Layer.__459">
          <g id="shape558" transform="matrix(1 0 0 1 57.4 177.3)"/>
        </g>
      </g>
    </g>
    <g id="Layer.__218">
      <g id="MovieClip.__2Fsprite.__202551_1" overflow="visible">
        <g id="Layer.__460">
          <g id="Graphic.__2Fshape.__202801_15" overflow="visible">
            <g id="Layer.__461">
              <g id="shape559">
                <path id="path2114" fill="#2B2B2B" fill-opacity="1" d="M142.22,211.346 L-16.359,178.209 -17.8,185.104 140.78,218.241 142.22,211.346z"/>
                <path id="path2115" fill="none" stroke="#000000" stroke-opacity="1" stroke-width="1.565" stroke-linecap="round" stroke-linejoin="round" d="M142.22,211.346 L-16.359,178.209 -17.8,185.104 140.78,218.241 142.22,211.346z"/>
              </g>
            </g>
            <g id="Layer.__462">
              <g id="shape560">
                <path id="path2116" fill="#F7DE09" fill-opacity="1" d="M14.446,187.817 C15.756,186.332 16.577,185.464 16.947,185.221 17.271,185.009 17.289,184.733 16.908,184.453 16.488,184.166 15.283,184.194 13.27,184.453 11.257,184.712 9.235,184.249 7.288,183.043 6.191,186.572 5.006,188.802 3.739,189.697 L3.647,189.758 C2.342,190.644 2.053,191.264 2.833,191.547 L3.81,191.271 5.263,191.015 C6.953,190.768 8.439,191.119 9.759,192.074 11.07,193.068 11.846,192.99 12.048,191.833 12.25,190.676 13.052,189.324 14.446,187.817z M10.375,186.446 C10.696,186.633 10.908,186.958 11.027,187.342 L10.857,188.346 C10.624,188.697 10.338,188.917 10.008,188.968 9.631,189.049 9.286,188.977 8.927,188.782 8.568,188.587 8.356,188.263 8.275,187.887 L8.445,186.883 C8.708,186.578 8.994,186.358 9.333,186.269 Q9.84,186.135 10.375,186.446z M27.149,184.994 L27.11,184.986 C25.043,183.595 23.826,184.06 23.376,186.405 21.481,187.248 20.949,188.456 21.725,190.097 21.052,191.596 21.158,192.617 21.983,193.07 22.808,193.522 23.182,193.84 23.111,193.985 23.54,195.953 24.794,196.455 26.836,195.483 L26.874,195.491 C29.022,196.499 30.247,195.996 30.578,194.026 L30.586,193.988 C32.96,193.724 33.492,192.516 32.221,190.372 33.672,188.596 33.176,187.333 30.803,186.637 L30.765,186.629 30.773,186.591 C30.838,184.366 29.63,183.834 27.149,184.994z M25.756,186.302 L26.12,186.858 26.038,187.441 C25.913,187.654 25.728,187.776 25.513,187.851 25.259,187.917 25.029,187.869 24.853,187.753 24.632,187.666 24.51,187.481 24.474,187.274 L24.58,186.576 25.105,186.166 25.756,186.302z M23.786,189.609 L24.15,190.164 24.06,190.785 23.534,191.195 C23.319,191.27 23.089,191.222 22.883,191.059 L22.504,190.58 22.601,189.921 23.165,189.519 C23.381,189.444 23.61,189.492 23.786,189.609z M29.888,189.485 L30.452,189.083 31.073,189.172 31.475,189.736 C31.503,189.982 31.463,190.173 31.347,190.349 31.222,190.563 31.037,190.684 30.821,190.759 30.606,190.834 30.376,190.786 30.17,190.623 29.987,190.544 29.865,190.359 29.791,190.144 L29.888,189.485z M29.021,187.704 C28.767,187.771 28.537,187.723 28.37,187.568 28.148,187.482 28.027,187.297 27.99,187.089 L28.088,186.43 28.621,185.982 29.234,186.11 29.636,186.673 C29.703,186.927 29.663,187.119 29.508,187.286 L29.021,187.704z M26.381,193.069 L26.215,193.674 25.727,194.092 C25.474,194.159 25.244,194.111 25.076,193.956 L24.697,193.477 24.794,192.818 25.32,192.408 C25.574,192.341 25.804,192.389 25.971,192.544 26.147,192.66 26.306,192.854 26.381,193.069z M28.328,193.316 L28.426,192.657 C28.551,192.443 28.744,192.284 28.998,192.217 29.205,192.18 29.435,192.228 29.611,192.345 L30.012,192.908 C30.087,193.124 30.047,193.316 29.892,193.483 L29.405,193.901 C29.151,193.968 28.922,193.92 28.708,193.795 L28.328,193.316z M149.351,219.844 C152.085,219.576 153.558,218.844 153.806,217.657 154.054,216.469 153.006,215.171 150.616,213.792 149.111,212.958 147.391,212.199 145.401,211.583 146.323,215.014 145.754,217.733 143.726,219.788 145.758,220.013 147.63,220.044 149.351,219.844z M142.515,219.655 L143.726,219.788 C145.754,217.733 146.323,215.014 145.401,211.583 L144.267,211.266 141.679,210.645 141.449,210.597 C142.462,214.167 141.87,217.002 139.672,219.101 L139.902,219.149 142.515,219.655z M82.434,202.223 C82.452,201.947 82.554,201.649 82.802,201.421 83.011,201.185 83.273,201.079 83.626,201.113 83.978,201.147 84.239,201.241 84.475,201.451 84.703,201.698 84.8,201.998 84.812,202.321 L84.445,203.123 C84.197,203.351 83.927,203.495 83.575,203.461 83.214,203.466 82.962,203.333 82.734,203.086 82.498,202.876 82.4,202.576 82.434,202.223z M56.764,196.7 L56.389,197.541 C56.179,197.777 55.917,197.882 55.565,197.848 55.212,197.814 54.952,197.72 54.724,197.472 54.488,197.263 54.382,197.001 54.416,196.649 L54.753,195.8 C55.001,195.572 55.263,195.466 55.616,195.5 55.976,195.496 56.236,195.59 56.465,195.837 56.693,196.085 56.79,196.385 56.764,196.7z"/>
                <path id="path2117" fill="none" stroke="#000000" stroke-opacity="1" stroke-width="1.174" stroke-linecap="round" stroke-linejoin="round" d="M14.446,187.817 C15.756,186.332 16.577,185.464 16.947,185.221 17.271,185.009 17.289,184.733 16.908,184.453 16.488,184.166 15.283,184.194 13.27,184.453 11.257,184.712 9.235,184.249 7.288,183.043 6.191,186.572 5.006,188.802 3.739,189.697 L3.647,189.758 C2.342,190.644 2.053,191.264 2.833,191.547 L3.81,191.271 5.263,191.015 C6.953,190.768 8.439,191.119 9.759,192.074 11.07,193.068 11.846,192.99 12.048,191.833 12.25,190.676 13.052,189.324 14.446,187.817z"/>
                <path id="path2118" fill="none" stroke="#000000" stroke-opacity="1" stroke-width="1.174" stroke-linecap="round" stroke-linejoin="round" d="M10.375,186.446 Q9.84,186.135 9.333,186.269 C8.994,186.358 8.708,186.578 8.445,186.883 L8.275,187.887 C8.356,188.263 8.568,188.587 8.927,188.782 9.286,188.977 9.631,189.049 10.008,188.968 10.338,188.917 10.624,188.697 10.857,188.346 L11.027,187.342 C10.908,186.958 10.696,186.633 10.375,186.446z"/>
                <path id="path2119" fill="none" stroke="#000000" stroke-opacity="1" stroke-width="1.174" stroke-linecap="round" stroke-linejoin="round" d="M27.149,184.994 L27.11,184.986 C25.043,183.595 23.826,184.06 23.376,186.405 21.481,187.248 20.949,188.456 21.725,190.097 21.052,191.596 21.158,192.617 21.983,193.07 22.808,193.522 23.182,193.84 23.111,193.985 23.54,195.953 24.794,196.455 26.836,195.483 L26.874,195.491 C29.022,196.499 30.247,195.996 30.578,194.026 L30.586,193.988 C32.96,193.724 33.492,192.516 32.221,190.372 33.672,188.596 33.176,187.333 30.803,186.637 L30.765,186.629 30.773,186.591 C30.838,184.366 29.63,183.834 27.149,184.994z"/>
                <path id="path2120" fill="none" stroke="#000000" stroke-opacity="1" stroke-width="1.174" stroke-linecap="round" stroke-linejoin="round" d="M25.756,186.302 L25.105,186.166 24.58,186.576 24.474,187.274 C24.51,187.481 24.632,187.666 24.853,187.753 25.029,187.869 25.259,187.917 25.513,187.851 25.728,187.776 25.913,187.654 26.038,187.441 L26.12,186.858 25.756,186.302z"/>
                <path id="path2121" fill="none" stroke="#000000" stroke-opacity="1" stroke-width="1.174" stroke-linecap="round" stroke-linejoin="round" d="M23.786,189.609 C23.61,189.492 23.381,189.444 23.165,189.519 L22.601,189.921 22.504,190.58 22.883,191.059 C23.089,191.222 23.319,191.27 23.534,191.195 L24.06,190.785 24.15,190.164 23.786,189.609z"/>
                <path id="path2122" fill="none" stroke="#000000" stroke-opacity="1" stroke-width="1.174" stroke-linecap="round" stroke-linejoin="round" d="M29.888,189.485 L29.791,190.144 C29.865,190.359 29.987,190.544 30.17,190.623 30.376,190.786 30.606,190.834 30.821,190.759 31.037,190.684 31.222,190.563 31.347,190.349 31.463,190.173 31.503,189.982 31.475,189.736 L31.073,189.172 30.452,189.083 29.888,189.485z"/>
                <path id="path2123" fill="none" stroke="#000000" stroke-opacity="1" stroke-width="1.174" stroke-linecap="round" stroke-linejoin="round" d="M29.021,187.704 L29.508,187.286 C29.663,187.119 29.703,186.927 29.636,186.673 L29.234,186.11 28.621,185.982 28.088,186.43 27.99,187.089 C28.027,187.297 28.148,187.482 28.37,187.568 28.537,187.723 28.767,187.771 29.021,187.704z"/>
                <path id="path2124" fill="none" stroke="#000000" stroke-opacity="1" stroke-width="1.174" stroke-linecap="round" stroke-linejoin="round" d="M26.381,193.069 C26.306,192.854 26.147,192.66 25.971,192.544 25.804,192.389 25.574,192.341 25.32,192.408 L24.794,192.818 24.697,193.477 25.076,193.956 C25.244,194.111 25.474,194.159 25.727,194.092 L26.215,193.674 26.381,193.069z"/>
                <path id="path2125" fill="none" stroke="#000000" stroke-opacity="1" stroke-width="1.174" stroke-linecap="round" stroke-linejoin="round" d="M28.328,193.316 L28.708,193.795 C28.922,193.92 29.151,193.968 29.405,193.901 L29.892,193.483 C30.047,193.316 30.087,193.124 30.012,192.908 L29.611,192.345 C29.435,192.228 29.205,192.18 28.998,192.217 28.744,192.284 28.551,192.443 28.426,192.657 L28.328,193.316z"/>
                <path id="path2126" fill="none" stroke="#000000" stroke-opacity="1" stroke-width="1.174" stroke-linecap="round" stroke-linejoin="round" d="M153.806,217.657 C153.558,218.844 152.085,219.576 149.351,219.844 147.63,220.044 145.758,220.013 143.726,219.788 L142.515,219.655 139.902,219.149 139.672,219.101 C141.87,217.002 142.462,214.167 141.449,210.597 L141.679,210.645 144.267,211.266 145.401,211.583 C147.391,212.199 149.111,212.958 150.616,213.792 153.006,215.171 154.054,216.469 153.806,217.657z"/>
                <path id="path2127" fill="none" stroke="#000000" stroke-opacity="1" stroke-width="1.174" stroke-linecap="round" stroke-linejoin="round" d="M149.351,219.844 C152.085,219.576 153.558,218.844 153.806,217.657 154.054,216.469 153.006,215.171 150.616,213.792 149.111,212.958 147.391,212.199 145.401,211.583 146.323,215.014 145.754,217.733 143.726,219.788 145.758,220.013 147.63,220.044 149.351,219.844z"/>
                <path id="path2128" fill="none" stroke="#000000" stroke-opacity="1" stroke-width="1.174" stroke-linecap="round" stroke-linejoin="round" d="M142.515,219.655 L143.726,219.788 C145.754,217.733 146.323,215.014 145.401,211.583 L144.267,211.266 141.679,210.645 141.449,210.597 C142.462,214.167 141.87,217.002 139.672,219.101 L139.902,219.149 142.515,219.655z"/>
                <path id="path2129" fill="#F7DE09" fill-opacity="1" d="M91.703,203.401 C85.723,208.867 81.754,208.158 79.756,201.264 84.016,196.757 87.985,197.467 91.703,203.401"/>
                <path id="path2130" fill="none" stroke="#000000" stroke-opacity="1" stroke-width="1.565" stroke-linecap="round" stroke-linejoin="round" d="M91.703,203.401 C85.723,208.867 81.754,208.158 79.756,201.264 84.016,196.757 87.985,197.467 91.703,203.401"/>
                <path id="path2131" fill="none" stroke="#000000" stroke-opacity="1" stroke-width="1.565" stroke-linecap="round" stroke-linejoin="round" d="M82.434,202.223 C82.4,202.576 82.498,202.876 82.734,203.086 82.962,203.333 83.214,203.466 83.575,203.461 83.927,203.495 84.197,203.351 84.445,203.123 L84.812,202.321 C84.8,201.998 84.703,201.698 84.475,201.451 84.239,201.241 83.978,201.147 83.626,201.113 83.273,201.079 83.011,201.185 82.802,201.421 82.554,201.649 82.452,201.947 82.434,202.223z"/>
                <path id="path2132" fill="#F7DE09" fill-opacity="1" d="M51.785,195.659 C53.782,202.553 57.751,203.262 63.739,197.757 59.983,191.815 56.014,191.106 51.785,195.659"/>
                <path id="path2133" fill="none" stroke="#000000" stroke-opacity="1" stroke-width="1.565" stroke-linecap="round" stroke-linejoin="round" d="M51.785,195.659 C53.782,202.553 57.751,203.262 63.739,197.757 59.983,191.815 56.014,191.106 51.785,195.659"/>
                <path id="path2134" fill="none" stroke="#000000" stroke-opacity="1" stroke-width="1.565" stroke-linecap="round" stroke-linejoin="round" d="M56.764,196.7 C56.79,196.385 56.693,196.085 56.465,195.837 56.236,195.59 55.976,195.496 55.616,195.5 55.263,195.466 55.001,195.572 54.753,195.8 L54.416,196.649 C54.382,197.001 54.488,197.263 54.724,197.472 54.952,197.72 55.212,197.814 55.565,197.848 55.917,197.882 56.179,197.777 56.389,197.541 L56.764,196.7z"/>
              </g>
            </g>
            <g id="Layer.__463">
              <g id="shape561">
                <path id="path2135" fill="#FDE302" fill-opacity="1" d="M-29.951,173.381 L-29.46,174.283 -24.28,178.763 -35.733,176.37 C-36.078,176.298 -36.408,176.349 -36.732,176.561 -37.057,176.773 -37.282,177.086 -37.354,177.431 -37.426,177.775 -37.337,178.114 -37.125,178.438 -36.912,178.762 -36.638,178.979 -36.293,179.051 L-24.84,181.445 -31.412,183.429 C-31.796,183.549 -32.044,183.777 -32.192,184.106 L-32.294,185.164 C-32.174,185.549 -31.946,185.796 -31.617,185.945 -31.297,186.132 -30.982,186.158 -30.597,186.038 L-23.511,183.881 -28.317,189.473 -28.64,190.445 -28.195,191.377 C-27.89,191.641 -27.554,191.751 -27.185,191.708 -26.824,191.704 -26.516,191.568 -26.253,191.264 L-21.865,186.144 -24.114,196.907 C-24.186,197.252 -24.097,197.591 -23.885,197.915 -23.672,198.239 -23.398,198.456 -23.053,198.528 -22.709,198.6 -22.332,198.519 -22.008,198.307 -21.683,198.095 -21.505,197.812 -21.432,197.468 L-19.191,186.743 -17.213,193.153 C-17.093,193.537 -16.865,193.785 -16.536,193.933 -16.216,194.12 -15.901,194.146 -15.516,194.027 -15.132,193.907 -14.884,193.679 -14.697,193.358 L-14.604,192.338 -16.822,185.159 -11.123,190.028 C-10.818,190.291 -10.481,190.401 -10.113,190.359 -9.744,190.316 -9.436,190.18 -9.172,189.876 L-8.849,188.904 C-8.892,188.535 -9.028,188.227 -9.332,187.963 L-14.422,183.622 -3.122,185.983 C-2.777,186.055 -2.4,185.974 -2.076,185.762 -1.752,185.549 -1.573,185.267 -1.501,184.922 -1.429,184.578 -1.472,184.209 -1.684,183.885 -1.896,183.561 -2.217,183.374 -2.562,183.302 L-13.861,180.94 -7.451,178.962 C-7.067,178.842 -6.819,178.614 -6.632,178.293 L-6.539,177.273 C-6.658,176.889 -6.887,176.641 -7.207,176.454 -7.528,176.267 -7.881,176.234 -8.265,176.353 L-15.314,178.518 -10.508,172.926 -10.177,171.916 C-10.22,171.547 -10.393,171.231 -10.66,170.976 -10.964,170.712 -11.301,170.602 -11.67,170.645 -12.039,170.687 -12.347,170.823 -12.572,171.136 L-17.006,176.286 -14.501,164.296 C-14.429,163.952 -14.472,163.583 -14.684,163.259 -14.896,162.935 -15.217,162.748 -15.562,162.676 -15.906,162.604 -16.237,162.654 -16.561,162.866 -16.885,163.079 -17.11,163.391 -17.182,163.736 L-19.68,175.687 -21.689,169.231 C-21.808,168.846 -22.036,168.598 -22.357,168.411 -22.678,168.224 -23.03,168.191 -23.415,168.31 L-24.196,168.987 -24.297,170.045 -22.116,177.017 -27.708,172.21 C-28.013,171.947 -28.349,171.836 -28.718,171.879 -29.087,171.922 -29.403,172.096 -29.62,172.37 L-29.951,173.381z"/>
                <path id="path2136" fill="none" stroke="#000000" stroke-opacity="1" stroke-width="1.565" stroke-linecap="round" stroke-linejoin="round" d="M-29.951,173.381 L-29.46,174.283 -24.28,178.763 -35.733,176.37 C-36.078,176.298 -36.408,176.349 -36.732,176.561 -37.057,176.773 -37.282,177.086 -37.354,177.431 -37.426,177.775 -37.337,178.114 -37.125,178.438 -36.912,178.762 -36.638,178.979 -36.293,179.051 L-24.84,181.445 -31.412,183.429 C-31.796,183.549 -32.044,183.777 -32.192,184.106 L-32.294,185.164 C-32.174,185.549 -31.946,185.796 -31.617,185.945 -31.297,186.132 -30.982,186.158 -30.597,186.038 L-23.511,183.881 -28.317,189.473 -28.64,190.445 -28.195,191.377 C-27.89,191.641 -27.554,191.751 -27.185,191.708 -26.824,191.704 -26.516,191.568 -26.253,191.264 L-21.865,186.144 -24.114,196.907 C-24.186,197.252 -24.097,197.591 -23.885,197.915 -23.672,198.239 -23.398,198.456 -23.053,198.528 -22.709,198.6 -22.332,198.519 -22.008,198.307 -21.683,198.095 -21.505,197.812 -21.432,197.468 L-19.191,186.743 -17.213,193.153 C-17.093,193.537 -16.865,193.785 -16.536,193.933 -16.216,194.12 -15.901,194.146 -15.516,194.027 -15.132,193.907 -14.884,193.679 -14.697,193.358 L-14.604,192.338 -16.822,185.159 -11.123,190.028 C-10.818,190.291 -10.481,190.401 -10.113,190.359 -9.744,190.316 -9.436,190.18 -9.172,189.876 L-8.849,188.904 C-8.892,188.535 -9.028,188.227 -9.332,187.963 L-14.422,183.622 -3.122,185.983 C-2.777,186.055 -2.4,185.974 -2.076,185.762 -1.752,185.549 -1.573,185.267 -1.501,184.922 -1.429,184.578 -1.472,184.209 -1.684,183.885 -1.896,183.561 -2.217,183.374 -2.562,183.302 L-13.861,180.94 -7.451,178.962 C-7.067,178.842 -6.819,178.614 -6.632,178.293 L-6.539,177.273 C-6.658,176.889 -6.887,176.641 -7.207,176.454 -7.528,176.267 -7.881,176.234 -8.265,176.353 L-15.314,178.518 -10.508,172.926 -10.177,171.916 C-10.22,171.547 -10.393,171.231 -10.66,170.976 -10.964,170.712 -11.301,170.602 -11.67,170.645 -12.039,170.687 -12.347,170.823 -12.572,171.136 L-17.006,176.286 -14.501,164.296 C-14.429,163.952 -14.472,163.583 -14.684,163.259 -14.896,162.935 -15.217,162.748 -15.562,162.676 -15.906,162.604 -16.237,162.654 -16.561,162.866 -16.885,163.079 -17.11,163.391 -17.182,163.736 L-19.68,175.687 -21.689,169.231 C-21.808,168.846 -22.036,168.598 -22.357,168.411 -22.678,168.224 -23.03,168.191 -23.415,168.31 L-24.196,168.987 -24.297,170.045 -22.116,177.017 -27.708,172.21 C-28.013,171.947 -28.349,171.836 -28.718,171.879 -29.087,171.922 -29.403,172.096 -29.62,172.37 L-29.951,173.381z"/>
              </g>
            </g>
            <g id="Layer.__464">
              <g id="shape562">
                <path id="path2137" fill="#FDE302" fill-opacity="1" d="M-17.979,175.48 Q-20.277,175 -22.268,176.303 C-23.565,177.151 -24.373,178.342 -24.693,179.874 -25.013,181.406 -24.749,182.82 -23.909,184.155 -23.022,185.46 -21.832,186.268 -20.3,186.589 -18.768,186.909 -17.353,186.645 -16.057,185.796 -14.752,184.909 -13.944,183.719 -13.623,182.187 -13.303,180.655 -13.567,179.24 -14.416,177.944 -15.256,176.609 -16.446,175.801 -17.979,175.48z"/>
                <path id="path2138" fill="none" stroke="#000000" stroke-opacity="1" stroke-width="1.957" stroke-linecap="round" stroke-linejoin="round" d="M-17.979,175.48 Q-20.277,175 -22.268,176.303 C-23.565,177.151 -24.373,178.342 -24.693,179.874 -25.013,181.406 -24.749,182.82 -23.909,184.155 -23.022,185.46 -21.832,186.268 -20.3,186.589 -18.768,186.909 -17.353,186.645 -16.057,185.796 -14.752,184.909 -13.944,183.719 -13.623,182.187 -13.303,180.655 -13.567,179.24 -14.416,177.944 -15.256,176.609 -16.446,175.801 -17.979,175.48z"/>
              </g>
            </g>
          </g>
        </g>
      </g>
    </g>
  </g>
</svg>