<?xml version="1.0" encoding="utf-8"?>
<!-- Generator: flash2svg, http://dissentgraphics.com/tools/flash2svg -->
<svg xmlns:xlink="http://www.w3.org/1999/xlink" id="sprite.__202781.__20(Acc).__2F154" image-rendering="optimizeSpeed" baseProfile="basic" version="1.1" style="background-color:#ffffff" x="0px" y="0px" width="550px" height="400px" viewBox="0 0 550 400" enable-background="new 0 0 550 400" xmlns="http://www.w3.org/2000/svg">
  <defs transform="matrix(1 0 0 1 0 0) "/>
  <g id="sprite.__202781.__20(Acc).__2F154">
    <g id="Layer.__219">
      <g id="Graphic.__2Fshape.__202791_1" overflow="visible">
        <g id="Layer.__476">
          <g id="shape574">
            <path id="path2240" fill="none" stroke="#000000" stroke-opacity="1" stroke-width="4" stroke-linecap="round" stroke-linejoin="round" d="M50.8,64.05 L50.85,65.55 C50.85,69.3 49.55,72.45 46.9,75.1 44.25,77.75 41.1,79.05 37.35,79.05 33.6,79.05 30.45,77.75 27.8,75.1 25.15,72.45 23.85,69.3 23.85,65.55 23.85,61.8 25.15,58.65 27.8,56 30.45,53.35 33.6,52.05 37.35,52.05 41.1,52.05 44.25,53.35 46.9,56 49.15,58.25 50.45,60.95 50.8,64.05z M102.85,64.05 C103,60.5 104.3,57.5 106.8,55 109.45,52.35 112.6,51.05 116.35,51.05 120.1,51.05 123.25,52.35 125.9,55 128.55,57.65 129.85,60.8 129.85,64.55 129.85,68.3 128.55,71.45 125.9,74.1 123.25,76.75 120.1,78.05 116.35,78.05 112.6,78.05 109.45,76.75 106.8,74.1 104.15,71.45 102.85,68.3 102.85,64.55 L102.85,64.05z"/>
            <path id="path2241" fill="none" stroke="#B3B3B3" stroke-opacity="1" stroke-width="4" stroke-linecap="round" stroke-linejoin="round" d="M102.85,64.05 C85.5,58.2 68.15,58.2 50.8,64.05"/>
            <path id="path2242" fill="#FFFFFF" fill-opacity="0.5019607843137255" d="M102.85,64.05 L102.85,64.55 C102.85,68.3 104.15,71.45 106.8,74.1 109.45,76.75 112.6,78.05 116.35,78.05 120.1,78.05 123.25,76.75 125.9,74.1 128.55,71.45 129.85,68.3 129.85,64.55 129.85,60.8 128.55,57.65 125.9,55 123.25,52.35 120.1,51.05 116.35,51.05 112.6,51.05 109.45,52.35 106.8,55 104.3,57.5 103,60.5 102.85,64.05z M37.35,52.05 C33.6,52.05 30.45,53.35 27.8,56 25.15,58.65 23.85,61.8 23.85,65.55 23.85,69.3 25.15,72.45 27.8,75.1 30.45,77.75 33.6,79.05 37.35,79.05 41.1,79.05 44.25,77.75 46.9,75.1 49.55,72.45 50.85,69.3 50.85,65.55 L50.8,64.05 C50.45,60.95 49.15,58.25 46.9,56 44.25,53.35 41.1,52.05 37.35,52.05z"/>
            <path id="path2243" fill="none" stroke="#000000" stroke-opacity="1" stroke-width="4" stroke-linecap="round" stroke-linejoin="round" d="M102.85,64.05 L102.85,64.55 C102.85,68.3 104.15,71.45 106.8,74.1 109.45,76.75 112.6,78.05 116.35,78.05 120.1,78.05 123.25,76.75 125.9,74.1 128.55,71.45 129.85,68.3 129.85,64.55 129.85,60.8 128.55,57.65 125.9,55 123.25,52.35 120.1,51.05 116.35,51.05 112.6,51.05 109.45,52.35 106.8,55 104.3,57.5 103,60.5 102.85,64.05z"/>
            <path id="path2244" fill="none" stroke="#000000" stroke-opacity="1" stroke-width="4" stroke-linecap="round" stroke-linejoin="round" d="M37.35,52.05 C33.6,52.05 30.45,53.35 27.8,56 25.15,58.65 23.85,61.8 23.85,65.55 23.85,69.3 25.15,72.45 27.8,75.1 30.45,77.75 33.6,79.05 37.35,79.05 41.1,79.05 44.25,77.75 46.9,75.1 49.55,72.45 50.85,69.3 50.85,65.55 L50.8,64.05 C50.45,60.95 49.15,58.25 46.9,56 44.25,53.35 41.1,52.05 37.35,52.05z"/>
          </g>
        </g>
      </g>
    </g>
  </g>
</svg>