<?xml version="1.0" encoding="utf-8"?>
<!-- Generator: flash2svg, http://dissentgraphics.com/tools/flash2svg -->
<svg xmlns:xlink="http://www.w3.org/1999/xlink" id="sprite.__202781.__20(Acc).__2F28" image-rendering="optimizeSpeed" baseProfile="basic" version="1.1" style="background-color:#ffffff" x="0px" y="0px" width="550px" height="400px" viewBox="0 0 550 400" enable-background="new 0 0 550 400" xmlns="http://www.w3.org/2000/svg">
  <defs transform="matrix(1 0 0 1 0 0) "/>
  <g id="sprite.__202781.__20(Acc).__2F28">
    <g id="Layer.__229">
      <g id="Graphic.__2Fshape.__202625_1" overflow="visible">
        <g id="Layer.__997">
          <g id="shape1625">
            <path id="path3241" fill="#000000" fill-opacity="1" d="M123.6,64.55 C124.85,60.9 125.45,58.05 125.45,56.05 125.45,45.4 122.6,35.4 116.85,26.05 105.95,8.3 86.9,-0.55 59.65,-0.55 49.85,-0.55 43.05,1.25 39.2,4.8 37.95,5.95 37.05,7.25 36.5,8.75 36.2,9.55 36,10.4 35.85,11.25 35.4,12.5 33.6,14.7 30.45,17.95 27.15,21.3 25.3,23.45 24.85,24.45 23.2,28.25 21.75,32.7 20.55,37.75 19.3,43.05 18.65,47.5 18.65,51.15 19.25,59.7 21.95,67.8 26.7,75.45 36.05,90.65 51.2,98.25 72.05,98.25 91.6,98.25 106.25,91.8 116.1,78.85 119.35,74.5 121.85,69.75 123.6,64.55z M117.85,62.65 C116.3,67.1 114.15,71.2 111.3,74.9 102.55,86.2 89.5,91.85 72.05,91.85 54.2,91.85 41,85.6 32.5,73.1 29.65,68.95 27.55,64.35 26.1,59.3 25.15,55.85 24.65,53.15 24.65,51.15 24.65,49.4 25.25,46.05 26.5,41 L28.85,31.65 C30.1,26.5 31.85,23.1 34.05,21.45 37.1,19.2 40.85,17.35 45.35,15.85 48.1,14.95 49.45,13.7 49.45,12.15 49.4,9.55 47.9,8.45 45.05,8.85 L45.25,8.65 C47.1,6.8 48.2,5.85 48.45,5.85 59.55,5.85 66.7,5.95 69.85,6.15 79,6.8 86.75,8.35 93.1,10.9 110.65,17.85 119.45,32.9 119.45,55.95 119.45,57.4 118.9,59.6 117.85,62.65z"/>
            <path id="path3242" fill="#FFFFFF" fill-opacity="1" d="M117.85,62.65 C118.9,59.6 119.45,57.4 119.45,55.95 119.45,32.9 110.65,17.85 93.1,10.9 86.75,8.35 79,6.8 69.85,6.15 66.7,5.95 59.55,5.85 48.45,5.85 48.2,5.85 47.1,6.8 45.25,8.65 L45.05,8.85 C47.9,8.45 49.4,9.55 49.45,12.15 49.45,13.7 48.1,14.95 45.35,15.85 40.85,17.35 37.1,19.2 34.05,21.45 31.85,23.1 30.1,26.5 28.85,31.65 L26.5,41 C25.25,46.05 24.65,49.4 24.65,51.15 24.65,53.15 25.15,55.85 26.1,59.3 27.55,64.35 29.65,68.95 32.5,73.1 41,85.6 54.2,91.85 72.05,91.85 89.5,91.85 102.55,86.2 111.3,74.9 114.15,71.2 116.3,67.1 117.85,62.65z M97.05,26.9 C97.4,22.45 98.4,20.25 100.05,20.25 102,20.25 103.25,29.8 103.85,48.85 103.85,52.45 102.85,54.25 100.85,54.25 98.75,54.25 97.5,50.9 97.1,44.25 L97.05,34.05 Q96.8,30.25 97.05,26.9z M86.45,70.65 C88.45,70.65 89.45,71.8 89.45,74.05 89.45,76.15 88.3,78.35 86.05,80.65 82.9,83.85 78.5,85.45 72.85,85.45 65.6,85.45 60.4,84.1 57.25,81.45 56.25,80.6 55.5,79.7 55.05,78.65 L54.65,77.25 54.85,74.85 55.75,74.35 C56.25,74 56.9,73.85 57.65,73.85 58.6,73.85 59.35,74.1 59.85,74.65 L61.25,76.45 C62.95,78.2 66.65,79.05 72.35,79.05 78.25,79.05 81.6,77.65 82.4,74.85 82.65,73.45 82.9,72.5 83.2,71.95 83.7,71.1 84.8,70.65 86.45,70.65z M34.65,31.85 C35,28.4 36,26.65 37.65,26.65 38.45,26.65 39.45,31.75 40.65,41.9 L42.25,57.35 C42.25,60.6 41.25,62.25 39.25,62.25 L37.65,62 36.45,61.25 C35.25,51.9 34.65,43.9 34.65,37.25 34.5,35.4 34.5,33.6 34.65,31.85z"/>
            <path id="path3243" fill="#000000" fill-opacity="1" d="M97.05,26.9 Q96.8,30.25 97.05,34.05 L97.1,44.25 C97.5,50.9 98.75,54.25 100.85,54.25 102.85,54.25 103.85,52.45 103.85,48.85 103.25,29.8 102,20.25 100.05,20.25 98.4,20.25 97.4,22.45 97.05,26.9z"/>
            <path id="path3244" fill="#000000" fill-opacity="1" d="M86.45,70.65 C84.8,70.65 83.7,71.1 83.2,71.95 82.9,72.5 82.65,73.45 82.4,74.85 81.6,77.65 78.25,79.05 72.35,79.05 66.65,79.05 62.95,78.2 61.25,76.45 L59.85,74.65 C59.35,74.1 58.6,73.85 57.65,73.85 56.9,73.85 56.25,74 55.75,74.35 L54.85,74.85 54.65,77.25 55.05,78.65 C55.5,79.7 56.25,80.6 57.25,81.45 60.4,84.1 65.6,85.45 72.85,85.45 78.5,85.45 82.9,83.85 86.05,80.65 88.3,78.35 89.45,76.15 89.45,74.05 89.45,71.8 88.45,70.65 86.45,70.65z"/>
            <path id="path3245" fill="#000000" fill-opacity="1" d="M34.65,31.85 C34.5,33.6 34.5,35.4 34.65,37.25 34.65,43.9 35.25,51.9 36.45,61.25 L37.65,62 39.25,62.25 C41.25,62.25 42.25,60.6 42.25,57.35 L40.65,41.9 C39.45,31.75 38.45,26.65 37.65,26.65 36,26.65 35,28.4 34.65,31.85z"/>
          </g>
        </g>
      </g>
    </g>
  </g>
</svg>