<?xml version="1.0" encoding="utf-8"?>
<!-- Generator: flash2svg, http://dissentgraphics.com/tools/flash2svg -->
<svg xmlns:xlink="http://www.w3.org/1999/xlink" id="sprite.__202781.__20(Acc).__2F43" image-rendering="optimizeSpeed" baseProfile="basic" version="1.1" style="background-color:#ffffff" x="0px" y="0px" width="550px" height="400px" viewBox="0 0 550 400" enable-background="new 0 0 550 400" xmlns="http://www.w3.org/2000/svg">
  <defs transform="matrix(1 0 0 1 0 0) "/>
  <g id="sprite.__202781.__20(Acc).__2F43">
    <g id="Layer.__244">
      <g id="Graphic.__2Fshape.__202653_1" overflow="visible">
        <g id="Layer.__1349">
          <g id="shape1976">
            <path id="path4513" fill="#000000" fill-opacity="1" d="M146.8,-91.65 L145.05,-91.95 C140.55,-88.8 137.65,-86.5 136.4,-85 134.5,-82.8 133.55,-80.05 133.55,-76.7 133.55,-74.85 134.5,-72.7 136.45,-70.2 138.35,-67.7 139.3,-66.1 139.3,-65.45 139.3,-64.7 138.6,-63.65 137.15,-62.25 L132.45,-57.85 C127.85,-53.35 125.55,-49 125.55,-44.8 125.55,-41.75 127.35,-37.9 130.9,-33.3 132.95,-30.65 136.45,-26.65 141.3,-21.2 132.8,-14.85 128.55,-9.6 128.55,-5.45 128.55,0.95 136.55,9.95 152.55,21.55 154.2,22.75 155.6,25.05 156.8,28.5 158.45,33.3 159.65,36.35 160.4,37.65 164.65,45.25 173.9,49.05 188.05,49.05 195.85,49.05 201.25,48.5 204.2,47.45 206.05,46.8 208.4,45.5 211.3,43.55 211.65,43.9 212,44.85 212.25,46.3 212.55,48 212.95,49.3 213.4,50.15 215.15,53.4 219.55,55.05 226.55,55.05 234.2,55.05 241.55,52.9 248.5,48.55 251.2,46.9 253.4,45.2 255.15,43.35 L256.35,42 C265.2,41.5 272.85,37.25 279.3,29.25 281.85,26.1 283.9,22.75 285.5,19.1 286.85,15.95 287.55,13.5 287.55,11.7 287.55,7.55 287.35,5.1 287,4.4 L279.05,-6.7 C284.4,-14.65 287.35,-19.45 287.95,-21.15 288.35,-22.3 288.55,-25.95 288.55,-32.2 L288.7,-38.2 C288.65,-39.9 288.3,-41.35 287.55,-42.6 286.1,-45 280.85,-49.3 271.8,-55.45 L277.7,-63.05 C278.25,-64 278.55,-65.95 278.55,-68.95 278.15,-72.4 276.75,-75.75 274.3,-79.1 269.5,-85.65 262.1,-88.95 252.05,-88.95 L248.55,-88.7 248.55,-93.55 C248.9,-97.1 248.15,-100.55 246.3,-103.9 242.55,-110.6 235.15,-113.95 224.05,-113.95 218.35,-113.95 213.5,-113.3 209.55,-112.05 206.65,-110.8 205,-110.2 204.55,-110.2 204.1,-110.2 202.45,-111 199.6,-112.55 196.8,-114.15 193.95,-114.95 191.05,-114.95 178.7,-114.95 167.7,-111.35 158.05,-104.2 154.6,-101.65 151.75,-98.9 149.45,-96 148.05,-94.2 147.15,-92.75 146.8,-91.65z M149.05,-85.95 C149.9,-86.3 150.7,-86.7 151.55,-87.2 151.55,-89.15 152.35,-91.3 153.9,-93.7 155.7,-96.45 158.2,-98.9 161.4,-101.1 169.65,-106.85 180.65,-109.7 194.3,-109.7 L199.35,-106.8 C202.65,-104.9 204.55,-103.95 205.05,-103.95 205.9,-103.95 207.5,-104.75 209.8,-106.3 212.1,-107.9 213.85,-108.7 215.05,-108.7 227.1,-108.7 235.45,-106.35 240.1,-101.7 242.4,-99.35 243.55,-96.75 243.55,-93.8 242.9,-89.55 242.65,-86.45 242.8,-84.45 L245.55,-83.95 C247.15,-83.95 248.15,-84.9 248.5,-86.8 254.95,-85.65 260.75,-83.15 265.8,-79.3 270.95,-75.4 273.55,-72.1 273.55,-69.45 273.55,-67.4 272.05,-64.35 269.05,-60.3 266.05,-56.25 264.55,-54.05 264.55,-53.7 264.55,-52.95 267.7,-50.7 274.05,-46.9 280.4,-42.25 283.55,-37.4 283.55,-32.45 283.55,-27.5 281.55,-22.25 277.55,-16.7 L273.45,-11.35 C272.2,-9.7 271.55,-8.5 271.55,-7.8 271.55,-6.75 272.1,-5.55 273.25,-4.2 L277.05,-0.15 C280.7,3.8 282.55,7.75 282.55,11.7 282.55,19.45 277.4,25.75 267.05,30.6 L256.4,35.15 C253.15,36.6 251.55,38 251.55,39.3 L251.6,40.45 248.45,44.1 C244.4,47.75 237.4,49.55 227.55,49.55 222.65,49.55 219.35,47.45 217.7,43.3 L215.95,39 C215.15,37.7 214,37.05 212.55,37.05 211.6,37.05 210.85,37.4 210.2,38.1 209.25,39.15 208.25,39.9 207.2,40.45 202.55,42.7 192.35,43.8 176.55,43.8 174.8,43.8 171.95,41.3 168.1,36.3 164.4,31.55 162.55,28.55 162.55,27.3 162.55,25.3 161.05,22.85 158,19.9 156.4,18.35 153.1,15.65 148.05,11.75 143.35,8.1 140.05,5.25 138.1,3.2 135.05,0.05 133.55,-2.75 133.55,-5.2 133.55,-7.25 136.05,-10.3 141.05,-14.35 146.05,-18.35 148.55,-20.8 148.55,-21.7 148.55,-22.8 147.6,-24.2 145.75,-25.9 L139.55,-31 C133.55,-35.95 130.55,-40.55 130.55,-44.7 130.55,-47.25 132.9,-51.05 137.55,-56.05 142.2,-61 144.55,-64.35 144.55,-66.05 144.55,-67.1 143.55,-68.85 141.55,-71.4 139.55,-73.95 138.55,-75.4 138.55,-75.8 138.55,-78.05 140.2,-80.8 143.55,-84 L147.45,-87.9 149.05,-85.95z M181.55,58.8 C181.55,57.15 180.4,55.25 178.1,53.05 175.3,50.4 172.1,49.05 168.55,49.05 166,49.05 164.4,49.8 163.85,51.25 163.65,51.75 163.55,53.4 163.55,56.2 163.55,58.75 163.7,60.4 164.05,61.05 165.4,63.7 168.75,65.05 174.05,65.05 179.05,65.05 181.55,62.95 181.55,58.8z M173.4,59.55 L168.55,58.8 168.55,55.05 172.6,56.85 176.3,58.8 173.4,59.55z M163.1,75.8 C163.4,75.25 163.55,73.75 163.55,71.3 163.55,69.15 162.65,66.65 160.8,63.8 158.35,59.95 155.1,58.05 151.05,58.05 147.4,64.65 145.55,68.65 145.55,70.05 145.55,70.55 145.6,71 145.7,71.45 145.9,72.45 146.3,73.35 146.85,74.2 148.6,76.75 151.85,78.05 156.55,78.05 160.05,78.05 162.25,77.3 163.1,75.8z M151.8,69.3 C152.95,68.15 154.15,67.55 155.3,67.55 157.45,67.55 158.55,68.85 158.55,71.45 158.55,72.5 158.4,73 158.1,72.95 L154.8,72.8 151.05,70.05 151.8,69.3z"/>
            <path id="path4514" fill="#FFFFFF" fill-opacity="1" d="M149.05,-85.95 L147.45,-87.9 143.55,-84 C140.2,-80.8 138.55,-78.05 138.55,-75.8 138.55,-75.4 139.55,-73.95 141.55,-71.4 143.55,-68.85 144.55,-67.1 144.55,-66.05 144.55,-64.35 142.2,-61 137.55,-56.05 132.9,-51.05 130.55,-47.25 130.55,-44.7 130.55,-40.55 133.55,-35.95 139.55,-31 L145.75,-25.9 C147.6,-24.2 148.55,-22.8 148.55,-21.7 148.55,-20.8 146.05,-18.35 141.05,-14.35 136.05,-10.3 133.55,-7.25 133.55,-5.2 133.55,-2.75 135.05,0.05 138.1,3.2 140.05,5.25 143.35,8.1 148.05,11.75 153.1,15.65 156.4,18.35 158,19.9 161.05,22.85 162.55,25.3 162.55,27.3 162.55,28.55 164.4,31.55 168.1,36.3 171.95,41.3 174.8,43.8 176.55,43.8 192.35,43.8 202.55,42.7 207.2,40.45 208.25,39.9 209.25,39.15 210.2,38.1 210.85,37.4 211.6,37.05 212.55,37.05 214,37.05 215.15,37.7 215.95,39 L217.7,43.3 C219.35,47.45 222.65,49.55 227.55,49.55 237.4,49.55 244.4,47.75 248.45,44.1 L251.6,40.45 251.55,39.3 C251.55,38 253.15,36.6 256.4,35.15 L267.05,30.6 C277.4,25.75 282.55,19.45 282.55,11.7 282.55,7.75 280.7,3.8 277.05,-0.15 L273.25,-4.2 C272.1,-5.55 271.55,-6.75 271.55,-7.8 271.55,-8.5 272.2,-9.7 273.45,-11.35 L277.55,-16.7 C281.55,-22.25 283.55,-27.5 283.55,-32.45 283.55,-37.4 280.4,-42.25 274.05,-46.9 267.7,-50.7 264.55,-52.95 264.55,-53.7 264.55,-54.05 266.05,-56.25 269.05,-60.3 272.05,-64.35 273.55,-67.4 273.55,-69.45 273.55,-72.1 270.95,-75.4 265.8,-79.3 260.75,-83.15 254.95,-85.65 248.5,-86.8 248.15,-84.9 247.15,-83.95 245.55,-83.95 L242.8,-84.45 C242.65,-86.45 242.9,-89.55 243.55,-93.8 243.55,-96.75 242.4,-99.35 240.1,-101.7 235.45,-106.35 227.1,-108.7 215.05,-108.7 213.85,-108.7 212.1,-107.9 209.8,-106.3 207.5,-104.75 205.9,-103.95 205.05,-103.95 204.55,-103.95 202.65,-104.9 199.35,-106.8 L194.3,-109.7 C180.65,-109.7 169.65,-106.85 161.4,-101.1 158.2,-98.9 155.7,-96.45 153.9,-93.7 152.35,-91.3 151.55,-89.15 151.55,-87.2 150.7,-86.7 149.9,-86.3 149.05,-85.95z"/>
            <path id="path4515" fill="#FFFFFF" fill-opacity="1" d="M173.4,59.55 L176.3,58.8 172.6,56.85 168.55,55.05 168.55,58.8 173.4,59.55z"/>
            <path id="path4516" fill="#FFFFFF" fill-opacity="1" d="M151.8,69.3 L151.05,70.05 154.8,72.8 158.1,72.95 C158.4,73 158.55,72.5 158.55,71.45 158.55,68.85 157.45,67.55 155.3,67.55 154.15,67.55 152.95,68.15 151.8,69.3z"/>
          </g>
        </g>
      </g>
    </g>
    <g id="Layer.__245">
      <g id="MovieClip.__2Fsprite.__20225_1" overflow="visible">
        <g id="Layer.__1350">
          <g id="Graphic.__2Fshape.__202677_45" overflow="visible">
            <g id="Layer.__1351">
              <g id="shape1977">
                <path id="path4517" fill="#000000" fill-opacity="1" d="M216.763,9.05 Q216.938,8.55 216.938,7.075 C217.15,5.438 216.838,4.613 216,4.613 215.563,4.613 215.275,4.813 215.138,5.212 215.063,5.475 215.038,5.913 215.05,6.55 L215.063,6.738 C215.075,7.3 215.05,7.688 215,7.887 214.913,8.288 214.663,8.488 214.275,8.488 213.438,8.488 212.938,8.088 212.775,7.3 L212.738,7.1 C212.663,6.788 212.588,6.588 212.525,6.488 212.35,6.238 212.05,6.113 211.625,6.113 211.288,6.113 211.013,6.213 210.813,6.425 210.65,6.588 210.563,6.775 210.563,6.988 L210.663,7.575 C210.763,8.012 210.925,8.413 211.138,8.775 211.8,9.913 212.888,10.488 214.375,10.488 215.625,10.488 216.425,10.013 216.763,9.05z M199.275,7.3 L199.275,7.463 C199.25,7.913 199.163,8.25 199.025,8.463 198.788,8.813 198.363,8.988 197.725,8.988 196.713,8.988 196.15,8.463 196.025,7.425 L196.025,7.387 C195.963,6.825 195.9,6.488 195.838,6.35 195.7,6.025 195.413,5.863 195,5.863 194.375,5.863 194.063,6.325 194.063,7.238 193.988,7.863 194.088,8.488 194.375,9.113 194.938,10.363 196.113,10.988 197.875,10.988 198.85,10.988 199.688,10.488 200.375,9.488 200.913,8.7 201.188,8.05 201.188,7.512 201.4,6.25 201.088,5.613 200.25,5.613 199.8,5.613 199.513,5.788 199.388,6.137 199.325,6.3 199.288,6.688 199.275,7.3z"/>
                <path id="path4518" fill="#666766" fill-opacity="1" d="M212.738,7.1 L212.775,7.3 C212.938,8.088 213.438,8.488 214.275,8.488 214.663,8.488 214.913,8.288 215,7.887 215.05,7.688 215.075,7.3 215.063,6.738 L212.738,7.1z M197.725,8.988 C198.363,8.988 198.788,8.813 199.025,8.463 199.163,8.25 199.25,7.913 199.275,7.463 L196.025,7.387 196.025,7.425 C196.15,8.463 196.713,8.988 197.725,8.988z"/>
              </g>
            </g>
            <g id="Layer.__1352">
              <g id="shape1978">
                <path id="path4519" fill="#000000" fill-opacity="1" d="M212.1,-74.687 Q209.188,-75.537 206.875,-75.537 C205.388,-75.537 203.913,-75.187 202.463,-74.487 L202.313,-74.6 C201.638,-75.062 200.2,-75.287 198,-75.287 192.325,-75.287 188.238,-72.225 185.725,-66.1 184.913,-64.125 184.325,-61.938 183.95,-59.537 183.713,-58.075 183.6,-56.912 183.6,-56.062 183.6,-54.65 183.813,-52.6 184.225,-49.912 184.638,-47.225 184.85,-44.462 184.85,-41.625 184.85,-38.988 184.688,-36.062 184.35,-32.875 184.013,-29.687 183.85,-27.037 183.85,-24.937 183.763,-24.5 183.763,-24.15 183.875,-23.9 L183.9,-23.812 184.063,-23.638 C184.225,-23.487 184.463,-23.412 184.788,-23.412 L184.85,-23.412 185.038,-23.412 186.375,-23.675 C187.238,-23.862 187.775,-24.025 187.988,-24.15 L188,-24.162 188.063,-23.975 188.1,-20.562 C188.25,-19.125 188.675,-18.412 189.375,-18.412 189.475,-18.412 190.1,-18.825 191.25,-19.65 L191.25,-19.662 192.2,-20.35 C193.338,-21.187 194.125,-21.825 194.55,-22.25 194.813,-22.513 194.938,-22.7 194.938,-22.812 194.938,-23.462 194.538,-23.787 193.75,-23.787 192.938,-23.787 192.213,-23.45 191.575,-22.775 191,-22.025 190.563,-21.55 190.275,-21.362 L190.263,-21.362 190.25,-21.35 190.188,-21.475 190.163,-24.2 C190,-25.587 189.538,-26.287 188.75,-26.287 187.775,-26.287 186.8,-26.062 185.813,-25.625 186.088,-27.112 186.313,-29.325 186.475,-32.287 186.625,-35.187 186.713,-38.187 186.725,-41.3 L186.725,-41.562 C186.725,-45.1 186.513,-48.062 186.1,-50.475 185.688,-52.887 185.475,-54.787 185.475,-56.187 185.475,-60.975 186.463,-64.825 188.438,-67.725 189.675,-69.525 191.25,-70.887 193.175,-71.825 195.225,-72.825 197.675,-73.337 200.538,-73.35 L199.45,-72.45 C199.025,-72.025 198.813,-71.725 198.813,-71.537 198.813,-70.95 199.163,-70.662 199.875,-70.662 200.013,-70.662 200.325,-70.812 200.788,-71.112 L202.375,-72.1 C204.05,-73.062 205.625,-73.537 207.088,-73.537 208.075,-73.537 209.088,-73.412 210.138,-73.15 L213.15,-72.387 C215.288,-72.6 217.3,-73.087 219.188,-73.862 L215.938,-73.85 C215.325,-73.85 214.05,-74.125 212.1,-74.687z M223.438,-69.55 L222.825,-69.012 220.813,-67.287 C221.463,-67.15 222.188,-66.9 223,-66.537 224.613,-65.787 225.8,-64.725 226.563,-63.35 227.813,-61.1 228.688,-59.6 229.188,-58.85 229.6,-58.212 230.238,-56.613 231.1,-54.05 231.913,-51.65 232.313,-50.312 232.313,-50.037 L232.25,-48.975 C230.263,-50.3 228.638,-51.325 227.35,-52.062 L227.35,-52.35 C227.338,-52.637 227.288,-52.925 227.175,-53.212 227.05,-53.5 226.875,-53.775 226.65,-54.062 225.763,-54.113 225.313,-53.937 225.275,-53.537 L225.275,-53.162 C223.45,-54.062 221.338,-54.937 218.938,-55.787 218.175,-56.05 216.013,-56.587 212.425,-57.425 209.725,-58.062 208.213,-58.6 207.875,-59.037 207.35,-59.712 206.663,-60.5 205.825,-61.4 204.638,-62.662 203.863,-63.287 203.5,-63.287 203.088,-63.287 202.788,-63.188 202.625,-62.975 L202.563,-62.225 C202.563,-61.662 203.088,-60.938 204.138,-60.037 205.175,-59.15 206.525,-58.25 208.188,-57.337 212.138,-55.187 215.913,-53.925 219.5,-53.537 220.788,-53.4 222.713,-52.537 225.288,-50.962 225.35,-48.9 225.838,-46.7 226.775,-44.337 L227.813,-41.962 C228.125,-41.25 228.275,-40.8 228.275,-40.6 228.275,-39.488 227.45,-38.225 225.813,-36.825 224.313,-35.55 222.313,-34.3 219.825,-33.087 217.438,-31.925 214.988,-30.975 212.475,-30.238 209.888,-29.475 207.688,-29.1 205.9,-29.1 200.1,-29.1 196.125,-30.375 193.963,-32.937 L193.063,-34.162 193.625,-35.412 C194.05,-35.837 194.863,-36.4 196.075,-37.087 196.988,-37.613 197.438,-38.037 197.438,-38.35 L194.075,-42.837 C195.45,-44.125 196.763,-45.863 198,-48.037 199.188,-50.125 200.138,-52.325 200.85,-54.625 201.575,-56.962 201.938,-59.012 201.938,-60.787 L201.988,-62.075 202,-62.225 C202.013,-63.162 202,-64.037 201.938,-64.825 201.75,-67.462 201.188,-68.787 200.25,-68.787 L200.188,-68.787 C199.6,-68.762 199.313,-68.4 199.313,-67.687 L200.063,-60.85 C200.063,-58 199.475,-55.212 198.288,-52.488 196.863,-49.2 194.763,-46.55 192,-44.512 L191.938,-44.475 191.938,-44.6 C192.275,-46.1 192.438,-47.312 192.438,-48.25 192.438,-49.937 192.313,-51.4 192.063,-52.65 191.813,-53.9 191.688,-56 191.688,-58.937 L191.675,-61.962 C191.713,-63.175 191.838,-64.137 192.063,-64.85 192.7,-66.862 193.625,-68.412 194.825,-69.5 195.425,-70.037 195.963,-70.4 196.438,-70.562 196.438,-71.212 196.038,-71.537 195.25,-71.537 194.613,-71.537 194.038,-71.412 193.513,-71.162 192.225,-70.55 191.263,-69.187 190.625,-67.075 L190.25,-65.537 C190,-64.262 189.85,-62.837 189.8,-61.25 L189.813,-58.975 C189.813,-57.937 189.938,-56.1 190.188,-53.437 190.438,-50.775 190.563,-49.025 190.563,-48.187 190.563,-47.087 190.225,-45.787 189.563,-44.275 188.9,-42.762 188.563,-41.95 188.563,-41.812 L188.5,-41.3 C188.55,-40.875 188.925,-40.662 189.625,-40.662 190.613,-40.662 191.625,-41.012 192.675,-41.7 192.813,-41.225 193.1,-40.687 193.538,-40.1 194.175,-39.238 194.5,-38.712 194.5,-38.537 194.5,-38.375 194.313,-38.125 193.925,-37.762 L192.663,-36.637 191.888,-35.85 191.25,-36.787 C191.013,-36.787 190.813,-36.7 190.625,-36.537 190.413,-36.35 190.313,-36.1 190.313,-35.787 190.313,-35.25 190.4,-34.738 190.563,-34.225 190.488,-34.025 190.463,-33.675 190.475,-33.175 L190.8,-32.887 C190.875,-32.687 191.025,-32.55 191.263,-32.475 192.838,-31.087 193.938,-30.187 194.563,-29.787 197.3,-28.037 200.175,-27.162 203.213,-27.162 L204.65,-27.2 C207.088,-27.312 209.663,-27.738 212.375,-28.45 215.45,-29.263 218.35,-30.35 221.088,-31.725 222.2,-32.287 223.225,-32.85 224.15,-33.437 224.213,-33.137 224.313,-32.837 224.438,-32.55 224.65,-32.087 224.9,-31.738 225.2,-31.5 L225.213,-31.212 225.313,-30.537 C225.138,-30.1 225.138,-29.7 225.325,-29.312 225.463,-29.025 225.7,-28.8 226.038,-28.613 225.925,-28.388 225.85,-28.1 225.813,-27.738 L225.813,-26.662 C224.913,-27.575 224.225,-28.037 223.75,-28.037 222.938,-28.037 222.363,-26.437 222,-23.225 221.875,-23.325 221.538,-23.75 221,-24.5 220.4,-25.187 219.813,-25.537 219.25,-25.537 219,-25.537 218.638,-25.3 218.175,-24.812 L217.438,-23.975 216.938,-24.9 C216.6,-25.325 216.163,-25.537 215.625,-25.537 215.338,-25.537 214.875,-25.087 214.263,-24.175 213.625,-23.25 213.313,-22.562 213.313,-22.1 L213.313,-22 213.313,-21.888 213.213,-22 210.25,-24.787 C209.638,-24.787 209.138,-24.4 208.775,-23.638 L208.338,-22.612 C208.163,-22.2 207.988,-21.888 207.813,-21.662 207.663,-21.775 207.15,-22.412 206.288,-23.562 205.55,-24.55 205.038,-25.037 204.75,-25.037 204.275,-25.037 203.663,-24.437 202.9,-23.25 L201.438,-20.975 200.138,-22.875 C199.5,-23.812 199,-24.287 198.625,-24.287 198.413,-24.287 197.375,-23.3 195.513,-21.337 L193.813,-19.537 193.838,-19.287 C193.938,-18.875 194.325,-18.662 195,-18.662 195.488,-18.662 196.175,-19.162 197.038,-20.15 197.475,-20.662 197.9,-21.2 198.313,-21.787 198.725,-21.025 199.275,-20.25 199.938,-19.437 200.775,-18.425 201.425,-17.912 201.875,-17.912 202.213,-17.912 202.775,-18.55 203.588,-19.825 L204.938,-22.037 C205.5,-21.075 205.975,-20.312 206.375,-19.75 207.113,-18.687 207.738,-18.162 208.25,-18.162 208.563,-18.162 208.975,-18.662 209.488,-19.65 210.1,-20.837 210.475,-21.513 210.625,-21.662 210.963,-21.312 211.338,-20.975 211.75,-20.65 212.55,-19.987 213.138,-19.662 213.5,-19.662 214.288,-19.662 214.688,-19.962 214.688,-20.562 L214.538,-20.7 214.6,-20.725 C214.913,-20.862 215.163,-21.175 215.363,-21.662 215.5,-22.013 215.638,-22.45 215.75,-22.975 215.85,-22.825 215.938,-22.575 216.013,-22.237 L216.225,-21.4 C216.45,-20.737 216.913,-20.412 217.625,-20.412 218.225,-20.412 218.638,-20.8 218.85,-21.562 219.125,-22.55 219.3,-23.087 219.375,-23.162 L220.813,-21.2 C221.588,-20.175 222.188,-19.662 222.625,-19.662 223.488,-19.662 224.038,-21.5 224.25,-25.162 224.563,-25.15 224.9,-24.925 225.275,-24.513 225.513,-24.25 225.75,-24.075 225.988,-23.987 L226.125,-23.237 C226.5,-21.525 227.125,-20.662 228,-20.662 228.488,-20.662 228.788,-20.837 228.9,-21.187 L228.913,-21.2 228.913,-21.212 228.938,-21.912 229.05,-21.2 C229.188,-20.162 229.288,-18.587 229.375,-16.475 L229.738,-16.25 C229.825,-16.187 230,-16.163 230.25,-16.163 231.05,-16.163 231.925,-17.275 232.875,-19.487 233.75,-21.525 234.188,-23.15 234.188,-24.35 L234.213,-25.2 C234.2,-25.85 234.138,-26.437 234,-26.975 233.675,-28.263 233.038,-29.062 232.075,-29.375 232.113,-29.687 232.063,-30.075 231.938,-30.562 L232.05,-30.988 232.063,-31.412 C232.3,-31.712 232.538,-32.113 232.75,-32.6 233.213,-33.637 233.438,-34.475 233.438,-35.125 232.813,-37.437 232.5,-38.625 232.5,-38.687 L232.975,-39.975 C233.288,-40.887 233.438,-41.45 233.438,-41.687 L233.238,-42.875 C233.075,-43.787 232.875,-44.637 232.638,-45.4 L232.45,-45.975 233.5,-45.162 C233.963,-45.162 234.263,-45.375 234.375,-45.787 L234.438,-46.912 C234.438,-50.462 233.663,-54 232.125,-57.525 230.9,-60.337 228,-64.337 223.438,-69.55z M229.125,-48.412 L229.063,-48.037 C230.725,-44.637 231.563,-42.512 231.563,-41.662 231.563,-41.55 231.35,-41.113 230.938,-40.35 230.525,-39.587 230.313,-39.05 230.313,-38.75 230.313,-38.387 230.525,-37.9 230.938,-37.287 231.35,-36.675 231.563,-35.975 231.563,-35.187 231.563,-34.613 231.275,-33.95 230.688,-33.212 L230.425,-32.863 228.625,-33.037 226.788,-32.875 226.6,-33.062 C226.2,-33.437 226,-33.75 226,-34 L226.188,-34.8 226.175,-34.912 227.588,-36.075 C229.3,-37.712 230.15,-39.225 230.15,-40.637 230.15,-40.787 230.038,-41.15 229.825,-41.738 L228.85,-44.175 C227.938,-46.312 227.463,-47.537 227.4,-47.85 227.338,-48.238 227.3,-48.837 227.313,-49.662 L228.013,-49.187 229.125,-48.412z M230.063,-30.725 L230.063,-30.35 C230.063,-30.275 229.588,-30.212 228.625,-30.15 L227.188,-30.1 226.95,-30.638 C226.85,-30.9 226.925,-31.037 227.188,-31.037 L227.188,-31.1 229.9,-31.1 C229.95,-30.988 230.025,-30.888 230.125,-30.812 L230.063,-30.725z"/>
                <path id="path4520" fill="#FFFF6F" fill-opacity="1" d="M213.15,-72.387 L210.138,-73.15 C209.088,-73.412 208.075,-73.537 207.088,-73.537 205.625,-73.537 204.05,-73.062 202.375,-72.1 L200.788,-71.112 C200.325,-70.812 200.013,-70.662 199.875,-70.662 199.163,-70.662 198.813,-70.95 198.813,-71.537 198.813,-71.725 199.025,-72.025 199.45,-72.45 L200.538,-73.35 C197.675,-73.337 195.225,-72.825 193.175,-71.825 191.25,-70.887 189.675,-69.525 188.438,-67.725 186.463,-64.825 185.475,-60.975 185.475,-56.187 185.475,-54.787 185.688,-52.887 186.1,-50.475 186.513,-48.062 186.725,-45.1 186.725,-41.562 L186.725,-41.3 C186.713,-38.187 186.625,-35.187 186.475,-32.287 186.313,-29.325 186.088,-27.112 185.813,-25.625 186.8,-26.062 187.775,-26.287 188.75,-26.287 189.538,-26.287 190,-25.587 190.163,-24.2 L190.188,-21.475 190.25,-21.35 190.263,-21.362 190.275,-21.362 C190.563,-21.55 191,-22.025 191.575,-22.775 192.213,-23.45 192.938,-23.787 193.75,-23.787 194.538,-23.787 194.938,-23.462 194.938,-22.812 194.938,-22.7 194.813,-22.513 194.55,-22.25 L195.513,-21.337 C197.375,-23.3 198.413,-24.287 198.625,-24.287 199,-24.287 199.5,-23.812 200.138,-22.875 L201.438,-20.975 202.9,-23.25 C203.663,-24.437 204.275,-25.037 204.75,-25.037 205.038,-25.037 205.55,-24.55 206.288,-23.562 207.15,-22.412 207.663,-21.775 207.813,-21.662 207.988,-21.888 208.163,-22.2 208.338,-22.612 L208.775,-23.638 C209.138,-24.4 209.638,-24.787 210.25,-24.787 L213.213,-22 213.313,-21.888 213.313,-22 213.313,-22.1 C213.313,-22.562 213.625,-23.25 214.263,-24.175 214.875,-25.087 215.338,-25.537 215.625,-25.537 216.163,-25.537 216.6,-25.325 216.938,-24.9 L217.438,-23.975 218.175,-24.812 C218.638,-25.3 219,-25.537 219.25,-25.537 219.813,-25.537 220.4,-25.187 221,-24.5 221.538,-23.75 221.875,-23.325 222,-23.225 222.363,-26.437 222.938,-28.037 223.75,-28.037 224.225,-28.037 224.913,-27.575 225.813,-26.662 L225.813,-27.738 C225.85,-28.1 225.925,-28.388 226.038,-28.613 225.7,-28.8 225.463,-29.025 225.325,-29.312 225.138,-29.7 225.138,-30.1 225.313,-30.537 L225.213,-31.212 225.2,-31.5 C224.9,-31.738 224.65,-32.087 224.438,-32.55 224.313,-32.837 224.213,-33.137 224.15,-33.437 223.225,-32.85 222.2,-32.287 221.088,-31.725 218.35,-30.35 215.45,-29.263 212.375,-28.45 209.663,-27.738 207.088,-27.312 204.65,-27.2 L203.213,-27.162 C200.175,-27.162 197.3,-28.037 194.563,-29.787 193.938,-30.187 192.838,-31.087 191.263,-32.475 191.025,-32.55 190.875,-32.687 190.8,-32.887 L190.475,-33.175 C190.463,-33.675 190.488,-34.025 190.563,-34.225 190.4,-34.738 190.313,-35.25 190.313,-35.787 190.313,-36.1 190.413,-36.35 190.625,-36.537 190.813,-36.7 191.013,-36.787 191.25,-36.787 L191.888,-35.85 192.663,-36.637 193.925,-37.762 C194.313,-38.125 194.5,-38.375 194.5,-38.537 194.5,-38.712 194.175,-39.238 193.538,-40.1 193.1,-40.687 192.813,-41.225 192.675,-41.7 191.625,-41.012 190.613,-40.662 189.625,-40.662 188.925,-40.662 188.55,-40.875 188.5,-41.3 L188.563,-41.812 C188.563,-41.95 188.9,-42.762 189.563,-44.275 190.225,-45.787 190.563,-47.087 190.563,-48.187 190.563,-49.025 190.438,-50.775 190.188,-53.437 189.938,-56.1 189.813,-57.937 189.813,-58.975 L189.8,-61.25 C189.85,-62.837 190,-64.262 190.25,-65.537 L190.625,-67.075 C191.263,-69.187 192.225,-70.55 193.513,-71.162 194.038,-71.412 194.613,-71.537 195.25,-71.537 196.038,-71.537 196.438,-71.212 196.438,-70.562 195.963,-70.4 195.425,-70.037 194.825,-69.5 193.625,-68.412 192.7,-66.862 192.063,-64.85 191.838,-64.137 191.713,-63.175 191.675,-61.962 L191.688,-58.937 C191.688,-56 191.813,-53.9 192.063,-52.65 192.313,-51.4 192.438,-49.937 192.438,-48.25 192.438,-47.312 192.275,-46.1 191.938,-44.6 L191.938,-44.475 192,-44.512 C194.763,-46.55 196.863,-49.2 198.288,-52.488 199.475,-55.212 200.063,-58 200.063,-60.85 L199.313,-67.687 C199.313,-68.4 199.6,-68.762 200.188,-68.787 L200.25,-68.787 C201.188,-68.787 201.75,-67.462 201.938,-64.825 202,-64.037 202.013,-63.162 202,-62.225 L202.563,-62.225 202.625,-62.975 C202.788,-63.188 203.088,-63.287 203.5,-63.287 203.863,-63.287 204.638,-62.662 205.825,-61.4 206.663,-60.5 207.35,-59.712 207.875,-59.037 208.213,-58.6 209.725,-58.062 212.425,-57.425 216.013,-56.587 218.175,-56.05 218.938,-55.787 221.338,-54.937 223.45,-54.062 225.275,-53.162 L225.275,-53.537 C225.313,-53.937 225.763,-54.113 226.65,-54.062 226.875,-53.775 227.05,-53.5 227.175,-53.212 227.288,-52.925 227.338,-52.637 227.35,-52.35 L227.35,-52.062 C228.638,-51.325 230.263,-50.3 232.25,-48.975 L232.313,-50.037 C232.313,-50.312 231.913,-51.65 231.1,-54.05 230.238,-56.613 229.6,-58.212 229.188,-58.85 228.688,-59.6 227.813,-61.1 226.563,-63.35 225.8,-64.725 224.613,-65.787 223,-66.537 222.188,-66.9 221.463,-67.15 220.813,-67.287 L222.825,-69.012 223.438,-69.55 223.763,-69.85 222.788,-70.737 C220.5,-72.825 219.3,-73.862 219.188,-73.862 217.3,-73.087 215.288,-72.6 213.15,-72.387z"/>
                <path id="path4521" fill="#FFFF6F" fill-opacity="1" d="M229.125,-48.412 L228.013,-49.187 227.313,-49.662 C227.3,-48.837 227.338,-48.238 227.4,-47.85 227.463,-47.537 227.938,-46.312 228.85,-44.175 L229.825,-41.738 C230.038,-41.15 230.15,-40.787 230.15,-40.637 230.15,-39.225 229.3,-37.712 227.588,-36.075 L226.175,-34.912 226.188,-34.8 226,-34 C226,-33.75 226.2,-33.437 226.6,-33.062 L226.788,-32.875 228.625,-33.037 230.425,-32.863 230.688,-33.212 C231.275,-33.95 231.563,-34.613 231.563,-35.187 231.563,-35.975 231.35,-36.675 230.938,-37.287 230.525,-37.9 230.313,-38.387 230.313,-38.75 230.313,-39.05 230.525,-39.587 230.938,-40.35 231.35,-41.113 231.563,-41.55 231.563,-41.662 231.563,-42.512 230.725,-44.637 229.063,-48.037 L229.125,-48.412z M228.113,-28.175 L228.1,-27.587 C227.825,-26.225 227.688,-25.312 227.688,-24.85 L227.75,-24.75 C228,-24.875 228.288,-25.25 228.613,-25.875 228.925,-26.487 229.313,-26.787 229.75,-26.787 230.713,-26.787 231.188,-24.687 231.188,-20.475 231.938,-21.625 232.313,-22.9 232.313,-24.312 232.313,-25.037 231.938,-25.9 231.188,-26.912 L230.225,-28.25 228.625,-28.162 228.113,-28.175z M225.625,-71.912 L225.1,-71.925 225.388,-71.562 225.625,-71.912z"/>
                <path id="path4522" fill="#DD0000" fill-opacity="1" d="M230.063,-30.725 L230.125,-30.812 C230.025,-30.888 229.95,-30.988 229.9,-31.1 L227.188,-31.1 227.188,-31.037 C226.925,-31.037 226.85,-30.9 226.95,-30.638 L227.188,-30.1 228.625,-30.15 C229.588,-30.212 230.063,-30.275 230.063,-30.35 L230.063,-30.725z M227.75,-24.75 L227.688,-24.725 227.688,-24.85 227.75,-24.75z"/>
                <path id="path4523" fill="#FFF1DD" fill-opacity="1" d="M225.288,-50.962 C222.713,-52.537 220.788,-53.4 219.5,-53.537 215.913,-53.925 212.138,-55.187 208.188,-57.337 206.525,-58.25 205.175,-59.15 204.138,-60.037 203.088,-60.938 202.563,-61.662 202.563,-62.225 L202,-62.225 201.988,-62.075 201.938,-60.787 C201.938,-59.012 201.575,-56.962 200.85,-54.625 200.138,-52.325 199.188,-50.125 198,-48.037 196.763,-45.863 195.45,-44.125 194.075,-42.837 L197.438,-38.35 C197.438,-38.037 196.988,-37.613 196.075,-37.087 194.863,-36.4 194.05,-35.837 193.625,-35.412 L193.063,-34.162 193.963,-32.937 C196.125,-30.375 200.1,-29.1 205.9,-29.1 207.688,-29.1 209.888,-29.475 212.475,-30.238 214.988,-30.975 217.438,-31.925 219.825,-33.087 222.313,-34.3 224.313,-35.55 225.813,-36.825 227.45,-38.225 228.275,-39.488 228.275,-40.6 228.275,-40.8 228.125,-41.25 227.813,-41.962 L226.775,-44.337 C225.838,-46.7 225.35,-48.9 225.288,-50.962z"/>
                <path id="path4524" fill="#FF1111" fill-opacity="1" d="M201.288,-11.937 L201.138,-12.062 201.138,-11.95 201.288,-11.937z M191.888,-18.925 L191.75,-18.975 191.875,-18.912 191.888,-18.925z M191.45,-12.025 L191.438,-12.1 191.425,-12.025 191.45,-12.025z"/>
              </g>
            </g>
            <g id="Layer.__1353">
              <g id="shape1979">
                <path id="path4525" fill="#FFFFFF" fill-opacity="1" d="M209.263,-25.837 L210.163,-22.8 210.988,-20 211.15,-19.825 211.113,-19.562 211.263,-19.075 211.938,-19.662 C212.7,-20.263 213.088,-20.662 213.088,-20.85 L210.563,-24.087 209.263,-25.837z M197.2,-24.35 L197.163,-24.362 195.125,-21.475 C195.125,-20.95 195.475,-20.3 196.175,-19.525 L197.2,-24.35z"/>
                <path id="path4526" fill="#000000" fill-opacity="1" d="M210.563,-24.087 L213.088,-20.85 C213.088,-20.662 212.7,-20.263 211.938,-19.662 L211.263,-19.075 C210.938,-18.763 210.775,-18.5 210.775,-18.287 210.775,-17.75 211.113,-17.462 211.775,-17.412 L211.963,-17.412 C212.25,-17.412 212.538,-17.487 212.825,-17.638 L214.338,-14.525 C215.775,-11.638 216.588,-9.762 216.775,-8.912 216.113,-8.825 215.575,-8.712 215.188,-8.55 214.575,-8.312 214.275,-7.975 214.275,-7.537 214.275,-6.95 214.625,-6.662 215.338,-6.662 217.05,-6.662 218.1,-6.887 218.463,-7.35 218.6,-7.525 218.675,-7.762 218.688,-8.075 L218.65,-8.95 C218.063,-10.825 217.4,-12.687 216.663,-14.525 215.75,-16.763 214.975,-18.312 214.325,-19.187 214.875,-20.013 215.15,-20.625 215.15,-21.013 215.15,-21.162 214.238,-22.55 212.413,-25.187 210.513,-27.925 209.363,-29.287 208.963,-29.287 208.338,-29.287 208.025,-28.888 208.025,-28.075 208.025,-27.738 208.438,-27 209.263,-25.837 L210.563,-24.087z M193.063,-21.575 L193.25,-20.763 C193.413,-20.212 193.6,-19.7 193.813,-19.225 193.2,-18.287 192.475,-16.562 191.625,-14.037 191.175,-12.675 190.75,-11.275 190.338,-9.812 189.988,-8.537 189.813,-7.825 189.813,-7.662 L189.738,-7.312 C189.7,-7.062 189.738,-6.837 189.825,-6.625 190.113,-5.987 190.963,-5.662 192.375,-5.662 193.463,-5.662 194.15,-5.762 194.45,-5.975 194.613,-6.087 194.688,-6.337 194.688,-6.725 194.688,-7.362 194.438,-7.712 193.938,-7.775 L193.75,-7.787 191.7,-7.6 191.688,-7.6 191.688,-7.725 C191.9,-8.85 192.638,-10.987 193.9,-14.138 L195.138,-17.287 195.663,-16.925 C196,-16.75 196.363,-16.662 196.75,-16.662 197.375,-16.662 197.688,-17.013 197.688,-17.725 197.688,-17.875 197.263,-18.388 196.413,-19.275 L196.175,-19.525 C195.475,-20.3 195.125,-20.95 195.125,-21.475 L197.163,-24.362 197.175,-24.375 C198.513,-26.362 199.188,-27.65 199.188,-28.225 199.188,-28.937 198.875,-29.287 198.25,-29.287 194.788,-24.437 193.063,-21.862 193.063,-21.575z"/>
                <path id="path4527" fill="#FFF1DD" fill-opacity="1" d="M211.963,-17.412 L211.788,-17.35 C212.375,-15.45 212.825,-14.05 213.15,-13.162 213.613,-11.9 214.238,-10.475 215.013,-8.887 L215.188,-8.55 C215.575,-8.712 216.113,-8.825 216.775,-8.912 216.588,-9.762 215.775,-11.638 214.338,-14.525 L212.825,-17.638 C212.538,-17.487 212.25,-17.412 211.963,-17.412z M195.663,-16.925 L195.138,-17.287 193.9,-14.138 C192.638,-10.987 191.9,-8.85 191.688,-7.725 L191.7,-7.6 193.75,-7.787 193.938,-7.775 194.813,-12.475 195.663,-16.925z M191.7,-7.6 L191.688,-7.6 191.688,-7.725 191.7,-7.6z"/>
              </g>
            </g>
            <g id="Layer.__1354">
              <g id="shape1980">
                <path id="path4528" fill="#000000" fill-opacity="1" d="M212.275,-28.387 L213.288,-28.662 213.288,-30.45 212.375,-30.175 C209.788,-29.412 207.588,-29.037 205.8,-29.037 202.813,-29.037 200.313,-29.375 198.288,-30.05 L198.288,-28.375 C197.6,-26.337 196.463,-21.05 194.863,-12.525 192.975,-2.475 191.988,3.175 191.875,4.438 191.363,4.525 191.113,4.875 191.113,5.475 191.113,5.887 191.575,6.262 192.488,6.6 192.675,6.663 192.825,6.775 192.938,6.938 193.038,7.075 193.275,7.175 193.638,7.238 194.775,7.438 198.225,7.538 204.013,7.538 210.9,7.538 215.338,7.063 217.338,6.1 218.175,5.7 218.725,5.163 218.975,4.488 219.125,4.087 219.2,3.4 219.2,2.437 219.2,0.212 218.525,-2.325 217.188,-5.162 L215.313,-8.937 C214.538,-10.525 213.913,-11.95 213.45,-13.212 213.013,-14.425 212.325,-16.55 211.413,-19.612 L211.425,-19.662 210.463,-22.85 209.013,-27.65 C210.075,-27.85 211.163,-28.1 212.275,-28.387z M207.588,-27.425 C207.625,-26.437 209.188,-21.337 212.263,-12.15 210.825,-12.275 208.213,-12.337 204.425,-12.337 200.688,-12.337 198.15,-12.313 196.825,-12.263 L198.1,-17.888 198.05,-17.862 C199.138,-23.425 199.7,-26.625 199.738,-27.475 L200.588,-27.3 C200.538,-26.862 200.55,-26.312 200.613,-25.65 200.425,-25.138 200.438,-24.65 200.625,-24.162 200.988,-23.2 202.088,-22.712 203.925,-22.712 205.663,-22.712 206.713,-22.875 207.1,-23.212 207.238,-23.325 207.3,-23.475 207.288,-23.662 L207.238,-24.05 C207.15,-25.487 207.013,-26.575 206.838,-27.325 L207.588,-27.425z M213.675,-7.962 L213.625,-7.562 C213.663,-6.375 213.613,-5.45 213.5,-4.775 213.025,-2.062 210.538,-0.713 206.05,-0.713 202.438,-0.713 199.875,-2.562 198.375,-6.275 198.225,-6.625 197.813,-7.9 197.15,-10.1 L197.063,-10.375 198.625,-10.3 201.675,-10.212 C207.813,-10.212 211.525,-10.312 212.813,-10.513 L213.675,-7.962z M202.65,-27.1 L203.113,-27.1 205.138,-27.162 205.113,-24.712 202.488,-24.712 202.65,-27.075 202.65,-27.1z M195.913,-6.888 L196.363,-5.7 195.738,-5.787 195.913,-6.888z M200.45,-0.113 C200.138,0.362 199.7,0.6 199.113,0.6 198.875,0.6 198.725,0.55 198.663,0.45 L198.488,0.287 198.488,-2.1 C199.1,-1.363 199.788,-0.738 200.538,-0.238 L200.45,-0.113z M202.95,0.887 C203.688,1.1 204.463,1.225 205.3,1.275 205.288,1.762 205.238,2.1 205.175,2.287 L203.55,2.287 C203.388,2.125 203.25,1.862 203.125,1.487 L202.95,0.887z"/>
                <path id="path4529" fill="#222222" fill-opacity="1" d="M207.588,-27.425 L206.838,-27.325 C207.013,-26.575 207.15,-25.487 207.238,-24.05 L207.288,-23.662 C207.3,-23.475 207.238,-23.325 207.1,-23.212 206.713,-22.875 205.663,-22.712 203.925,-22.712 202.088,-22.712 200.988,-23.2 200.625,-24.162 200.438,-24.65 200.425,-25.138 200.613,-25.65 200.55,-26.312 200.538,-26.862 200.588,-27.3 L199.738,-27.475 C199.7,-26.625 199.138,-23.425 198.05,-17.862 L198.1,-17.888 196.825,-12.263 C198.15,-12.313 200.688,-12.337 204.425,-12.337 208.213,-12.337 210.825,-12.275 212.263,-12.15 209.188,-21.337 207.625,-26.437 207.588,-27.425z M207.875,3.95 C207.588,3.712 207.363,3.6 207.175,3.6 207.013,3.6 206.925,3.637 206.888,3.712 L206.775,3.95 C206.563,4.175 205.825,4.288 204.55,4.288 203.113,4.288 202.15,3.988 201.638,3.387 201.388,3.087 201.25,2.762 201.238,2.412 197.85,2.225 196.063,1.5 195.888,0.212 195.838,-0.175 195.938,-0.75 196.2,-1.5 196.475,-2.312 196.613,-2.863 196.613,-3.15 L195.4,-3.35 195.388,-3.262 195.288,-2.613 195.256,-2.394 195.213,-2.1 194.988,-0.638 C194.5,2.15 194.025,4.037 193.563,5.012 L193.575,5.012 194.263,5.163 C196.275,5.45 201.988,5.6 211.375,5.6 213.113,5.288 214.388,4.913 215.2,4.475 216.45,3.8 217.15,3.187 217.3,2.637 L217.3,2.625 217.325,2.412 C217.325,2.15 217.188,1.6 216.925,0.762 216.788,1.65 216.5,2.15 216.05,2.287 213.763,2.925 212.413,3.1 212.025,2.812 212.113,2.462 212.075,2.387 211.925,2.6 L211.863,2.712 211.363,3.35 C210.688,3.975 209.963,4.288 209.175,4.288 208.588,4.288 208.15,4.175 207.875,3.95z"/>
                <path id="path4530" fill="#FFFFFF" fill-opacity="1" d="M213.675,-7.962 L212.813,-10.513 C211.525,-10.312 207.813,-10.212 201.675,-10.212 L198.625,-10.3 197.063,-10.375 197.15,-10.1 C197.813,-7.9 198.225,-6.625 198.375,-6.275 199.875,-2.562 202.438,-0.713 206.05,-0.713 210.538,-0.713 213.025,-2.062 213.5,-4.775 213.613,-5.45 213.663,-6.375 213.625,-7.562 L213.675,-7.962z M214.913,-1.838 L214.738,-1.775 214.85,-1.95 214.913,-1.838z M214.913,-1.838 L214.738,-1.775 C214.25,-1.038 213.563,-0.437 212.675,0.037 L212.988,0.287 215.113,0.287 215.113,-1.4 214.913,-1.838z M207.675,1.237 L207.675,1.262 C208.438,1.987 208.925,2.35 209.113,2.35 209.4,2.35 209.7,2.15 209.988,1.737 L210.588,0.8 C209.725,1.012 208.75,1.162 207.675,1.237z"/>
                <path id="path4531" fill="#90A446" fill-opacity="1" d="M195.288,-2.613 L195.388,-3.262 195.375,-3.275 195.288,-2.613z"/>
                <path id="path4532" fill="#FFFFFF" fill-opacity="1" d="M202.65,-27.1 L202.65,-27.075 202.488,-24.712 205.113,-24.712 205.138,-27.162 203.113,-27.1 202.65,-27.1z"/>
                <path id="path4533" fill="#FFFFFF" fill-opacity="1" d="M195.913,-6.888 L195.738,-5.787 196.363,-5.7 195.913,-6.888z"/>
                <path id="path4534" fill="#FFFFFF" fill-opacity="1" d="M200.45,-0.113 L200.538,-0.238 C199.788,-0.738 199.1,-1.363 198.488,-2.1 L198.488,0.287 198.663,0.45 C198.725,0.55 198.875,0.6 199.113,0.6 199.7,0.6 200.138,0.362 200.45,-0.113z"/>
                <path id="path4535" fill="#FFFFFF" fill-opacity="1" d="M202.95,0.887 L203.125,1.487 C203.25,1.862 203.388,2.125 203.55,2.287 L205.175,2.287 C205.238,2.1 205.288,1.762 205.3,1.275 204.463,1.225 203.688,1.1 202.95,0.887z"/>
              </g>
            </g>
            <g id="Layer.__1355">
              <g id="shape1981">
                <path id="path4536" fill="#000000" fill-opacity="1" d="M221.313,-56.575 Q220.7,-56.625 220.463,-56.212 C220.363,-56.05 220.288,-55.712 220.25,-55.2 220.238,-54.975 220.475,-52.238 220.975,-46.975 221.5,-41.562 221.85,-38.837 222.025,-38.825 222.638,-38.762 223,-39.238 223.088,-40.238 223.113,-40.55 223.313,-41.85 223.675,-44.137 L223.625,-46.162 C223.563,-47.675 223.475,-49.075 223.338,-50.375 222.925,-54.425 222.25,-56.488 221.313,-56.575z M216.188,-35.475 L216.188,-36.275 C216.025,-36.762 215.5,-37 214.625,-37 208.45,-37 204.638,-36.812 203.2,-36.45 L203.05,-36.4 203,-36.5 C202.475,-36.5 202.163,-36.187 202.063,-35.562 L202.063,-34.162 C202.075,-33.125 202.188,-32.1 202.375,-31.1 202.75,-29.113 203.375,-28.125 204.25,-28.125 204.863,-28.125 205.175,-28.513 205.188,-29.287 L205.188,-29.35 203.588,-34.7 203.563,-34.75 203.713,-34.738 C205.2,-34.55 208.65,-34.575 214.063,-34.812 213.813,-34.05 213.225,-33.075 212.288,-31.875 L211.725,-31.1 211.538,-30.825 211.475,-30.725 211.4,-30.6 211.363,-30.525 211.325,-30.462 C211.188,-30.212 211.1,-30.013 211.075,-29.85 L211.063,-29.75 C211.063,-29.162 211.413,-28.875 212.125,-28.875 213.638,-28.875 215,-31.075 216.188,-35.475z M197.325,-54.125 C197.338,-51.613 197.438,-49.1 197.625,-46.613 197.988,-41.637 198.6,-39.113 199.463,-39.037 200.075,-38.988 200.438,-39.475 200.525,-40.488 199.763,-51.488 199.175,-57 198.775,-57.037 197.938,-57.113 197.463,-56.137 197.325,-54.125z"/>
                <path id="path4537" fill="#FFBBBB" fill-opacity="1" d="M211.725,-31.1 L212.288,-31.875 C213.225,-33.075 213.813,-34.05 214.063,-34.812 208.65,-34.575 205.2,-34.55 203.713,-34.738 L203.588,-34.7 205.188,-29.35 205.188,-29.287 205.188,-29.1 205.9,-29.1 C207.363,-29.1 209.088,-29.35 211.075,-29.85 211.1,-30.013 211.188,-30.212 211.325,-30.462 L211.363,-30.525 211.4,-30.6 211.475,-30.725 211.538,-30.825 211.725,-31.1z"/>
              </g>
            </g>
            <g id="Layer.__1356">
              <g id="shape1982">
                <path id="path4538" fill="#000000" fill-opacity="1" d="M223.113,-75.675 Q221.888,-77.812 219.975,-79.55 C215.925,-83.212 210.138,-85.037 202.625,-85.037 195.663,-85.037 190.175,-83.537 186.175,-80.525 184.9,-79.562 183.838,-78.475 182.975,-77.287 L181.913,-75.537 C180.4,-73.075 179.388,-71.3 178.85,-70.212 177.85,-68.175 177.35,-66.45 177.35,-65.037 L177.363,-64.062 C176.038,-63.688 174.913,-63.162 173.975,-62.475 172.388,-61.313 171.6,-59.988 171.6,-58.5 171.6,-56.837 173.3,-55.387 176.7,-54.125 L176.588,-53.462 176.6,-51.412 C176.538,-50.8 176.538,-50.2 176.588,-49.625 176.7,-48.488 177.063,-47.912 177.663,-47.912 177.775,-47.912 178.888,-48.687 180.975,-50.225 182.163,-51.113 183.038,-51.787 183.575,-52.275 189.013,-51.2 195.313,-50.662 202.5,-50.662 205.413,-50.662 208.288,-51.037 211.125,-51.787 215.238,-52.375 219.238,-52.462 223.15,-52.025 L227.1,-51.738 C228.563,-51.75 230.113,-51.95 231.75,-52.35 L234.938,-52.975 C238.4,-53.687 240.875,-54.5 242.363,-55.437 243.75,-56.3 244.438,-57.375 244.438,-58.662 244.438,-60.025 243.938,-61.225 242.95,-62.238 240.963,-64.275 237.313,-65.287 232,-65.287 L229,-65.25 228.238,-66.687 C226.538,-69.887 225.15,-72.237 224.063,-73.725 L223.113,-75.675z M226.388,-63.925 L226.575,-63.825 226.925,-63.1 C225.613,-62.137 224.775,-61.6 224.438,-61.475 L223.513,-60.85 C223,-60.512 222.275,-60.225 221.35,-59.988 L220.913,-59.887 C221.025,-60.412 221.025,-61.15 220.938,-62.1 L220.938,-62.162 C222.188,-62.2 223.6,-62.637 225.188,-63.475 225.625,-63.7 226,-63.925 226.325,-64.137 226.338,-64.025 226.35,-63.95 226.388,-63.925z M219.45,-59.625 C217.588,-59.337 215.138,-59.137 212.088,-59.025 L212.25,-59.35 C212.375,-59.662 212.438,-60.162 212.438,-60.85 L212.45,-61.462 C212.438,-61.925 212.35,-62.35 212.188,-62.725 L211.838,-63.337 213.313,-65.037 C214.775,-66.787 215.588,-67.662 215.75,-67.662 217.05,-67.662 218.025,-66.2 218.663,-63.287 L219.263,-60.275 219.45,-59.625z M210.313,-61.912 C210.475,-61.575 210.563,-61.3 210.563,-61.063 210.563,-60.938 210.438,-60.688 210.188,-60.313 209.938,-59.938 209.813,-59.688 209.813,-59.563 209.75,-59.325 209.738,-59.125 209.775,-58.962 L206.95,-58.912 206.688,-59.438 C206.35,-60.063 206.188,-60.537 206.188,-60.85 206.188,-61.188 206.338,-61.512 206.625,-61.8 207.163,-62.337 208.1,-62.6 209.438,-62.6 209.8,-62.6 210.088,-62.375 210.313,-61.912z M206.413,-56.925 C214.238,-57.025 220.325,-57.887 224.675,-59.525 226.088,-60.063 227.225,-60.637 228.088,-61.262 228.6,-60.7 229.15,-60.412 229.75,-60.412 230.375,-60.412 230.688,-60.787 230.688,-61.537 230.688,-61.75 230.425,-62.4 229.9,-63.475 L237.313,-63.037 C238.388,-62.975 239.138,-62.863 239.575,-62.675 L240.563,-61.975 C240.7,-61.863 241.075,-61.325 241.663,-60.375 242.263,-59.425 242.563,-58.9 242.563,-58.787 242.563,-57.875 241.638,-57.025 239.8,-56.212 238.175,-55.5 236.2,-54.962 233.875,-54.6 L231.125,-54.1 C230.6,-53.988 223.825,-53.825 210.813,-53.6 208.875,-52.937 206.088,-52.6 202.475,-52.6 197.025,-52.6 191,-53.187 184.413,-54.35 177.125,-55.637 173.475,-57.012 173.475,-58.475 173.475,-59.925 175.6,-61.162 179.85,-62.188 L184.238,-63.125 184.863,-63.262 184.85,-63.162 184.85,-63.1 C184.688,-62.537 184.6,-62.188 184.6,-62.063 L184.663,-59.725 185.025,-59.5 185.538,-59.412 C185.8,-59.412 186.113,-59.95 186.488,-61.037 187.875,-60.175 190.175,-59.35 193.363,-58.587 195.463,-58.087 197.7,-57.675 200.063,-57.35 202.163,-57.062 203.763,-56.912 204.875,-56.912 L206.113,-56.912 206.25,-56.912 206.413,-56.925z M178.538,-51.475 L178.475,-51.537 178.65,-53.475 C179.338,-53.262 180.063,-53.062 180.85,-52.875 179.688,-52.262 178.913,-51.8 178.538,-51.475z M197.075,-60.8 L197.363,-59.563 C195.05,-59.988 192.888,-60.625 190.875,-61.475 189.713,-61.962 188.55,-62.55 187.388,-63.238 L187.175,-63.363 187.5,-64.475 188.563,-63.662 C190.525,-62.325 192.75,-61.662 195.25,-61.662 L196.95,-61.688 197.075,-60.8z"/>
                <path id="path4539" fill="#222222" fill-opacity="1" d="M223.063,-71.725 C221.225,-75.1 218.938,-77.687 216.2,-79.5 212.638,-81.862 208.15,-83.037 202.75,-83.037 195.688,-83.037 190.3,-81.525 186.6,-78.512 185.4,-77.525 184.4,-76.387 183.588,-75.1 L182.413,-72.912 C181.075,-70.65 180.038,-68.212 179.325,-65.587 L179.038,-64.45 C180.3,-64.675 181.725,-64.787 183.288,-64.787 L185.325,-64.637 C185.825,-66.225 186.375,-67.712 186.975,-69.1 188.888,-73.562 190.688,-75.787 192.375,-75.787 193.25,-75.787 193.688,-75.462 193.688,-74.812 L191.775,-72.362 C190.325,-70.462 189.213,-68.75 188.438,-67.225 L188.075,-66.3 C189.713,-65.275 190.675,-64.712 190.938,-64.6 191.675,-64.287 192.063,-64.1 192.125,-64.037 192.238,-63.925 193.8,-63.762 196.8,-63.575 L196.813,-63.75 C196.813,-67.437 197.588,-69.287 199.125,-69.287 200.4,-69.287 202.475,-67.287 205.35,-63.275 206.163,-64.112 207.338,-64.537 208.875,-64.537 L210.325,-64.35 C210.75,-64.912 211.45,-65.737 212.438,-66.85 214.15,-68.812 215.05,-69.787 215.125,-69.787 217.188,-69.787 218.775,-68.537 219.888,-66.037 220.175,-65.375 220.413,-64.675 220.613,-63.912 L223.813,-64.912 C224.625,-65.187 225.2,-65.6 225.538,-66.137 L225.588,-66.2 225.025,-67.575 C224.35,-69.187 223.7,-70.575 223.063,-71.725z"/>
                <path id="path4540" fill="#FFFFFF" fill-opacity="1" d="M226.388,-63.925 C226.35,-63.95 226.338,-64.025 226.325,-64.137 226,-63.925 225.625,-63.7 225.188,-63.475 223.6,-62.637 222.188,-62.2 220.938,-62.162 L220.938,-62.1 C221.025,-61.15 221.025,-60.412 220.913,-59.887 L221.35,-59.988 C222.275,-60.225 223,-60.512 223.513,-60.85 L224.438,-61.475 C224.775,-61.6 225.613,-62.137 226.925,-63.1 L226.575,-63.825 226.388,-63.925z"/>
                <path id="path4541" fill="#FFFFFF" fill-opacity="1" d="M219.45,-59.625 L219.263,-60.275 218.663,-63.287 C218.025,-66.2 217.05,-67.662 215.75,-67.662 215.588,-67.662 214.775,-66.787 213.313,-65.037 L211.838,-63.337 212.188,-62.725 C212.35,-62.35 212.438,-61.925 212.45,-61.462 L212.438,-60.85 C212.438,-60.162 212.375,-59.662 212.25,-59.35 L212.088,-59.025 C215.138,-59.137 217.588,-59.337 219.45,-59.625z"/>
                <path id="path4542" fill="#FFFFFF" fill-opacity="1" d="M210.313,-61.912 C210.088,-62.375 209.8,-62.6 209.438,-62.6 208.1,-62.6 207.163,-62.337 206.625,-61.8 206.338,-61.512 206.188,-61.188 206.188,-60.85 206.188,-60.537 206.35,-60.063 206.688,-59.438 L206.95,-58.912 209.775,-58.962 C209.738,-59.125 209.75,-59.325 209.813,-59.563 209.813,-59.688 209.938,-59.938 210.188,-60.313 210.438,-60.688 210.563,-60.938 210.563,-61.063 210.563,-61.3 210.475,-61.575 210.313,-61.912z M199.25,-66.787 C198.875,-65.887 198.688,-64.887 198.688,-63.787 198.688,-62.813 198.9,-61.762 199.313,-60.625 L199.825,-59.187 204.613,-58.912 C204.45,-59.55 204.35,-60.2 204.313,-60.875 204.313,-61.287 204.4,-61.7 204.563,-62.087 L204.375,-62.162 202.238,-64.012 199.25,-66.787z"/>
                <path id="path4543" fill="#222222" fill-opacity="1" d="M206.413,-56.925 L206.25,-56.912 206.113,-56.912 204.875,-56.912 C203.763,-56.912 202.163,-57.062 200.063,-57.35 197.7,-57.675 195.463,-58.087 193.363,-58.587 190.175,-59.35 187.875,-60.175 186.488,-61.037 186.113,-59.95 185.8,-59.412 185.538,-59.412 L185.025,-59.5 184.663,-59.725 184.6,-62.063 C184.6,-62.188 184.688,-62.537 184.85,-63.1 L184.85,-63.162 184.863,-63.262 184.238,-63.125 179.85,-62.188 C175.6,-61.162 173.475,-59.925 173.475,-58.475 173.475,-57.012 177.125,-55.637 184.413,-54.35 191,-53.187 197.025,-52.6 202.475,-52.6 206.088,-52.6 208.875,-52.937 210.813,-53.6 223.825,-53.825 230.6,-53.988 231.125,-54.1 L233.875,-54.6 C236.2,-54.962 238.175,-55.5 239.8,-56.212 241.638,-57.025 242.563,-57.875 242.563,-58.787 242.563,-58.9 242.263,-59.425 241.663,-60.375 241.075,-61.325 240.7,-61.863 240.563,-61.975 L239.575,-62.675 C239.138,-62.863 238.388,-62.975 237.313,-63.037 L229.9,-63.475 C230.425,-62.4 230.688,-61.75 230.688,-61.537 230.688,-60.787 230.375,-60.412 229.75,-60.412 229.15,-60.412 228.6,-60.7 228.088,-61.262 227.225,-60.637 226.088,-60.063 224.675,-59.525 220.325,-57.887 214.238,-57.025 206.413,-56.925z"/>
                <path id="path4544" fill="#222222" fill-opacity="1" d="M178.538,-51.475 C178.913,-51.8 179.688,-52.262 180.85,-52.875 180.063,-53.062 179.338,-53.262 178.65,-53.475 L178.475,-51.537 178.538,-51.475z M204.563,-62.087 L204.375,-62.162 204.6,-62.175 204.563,-62.087z"/>
                <path id="path4545" fill="#FFFFFF" fill-opacity="1" d="M197.075,-60.8 L196.95,-61.688 195.25,-61.662 C192.75,-61.662 190.525,-62.325 188.563,-63.662 L187.5,-64.475 187.175,-63.363 187.388,-63.238 C188.55,-62.55 189.713,-61.962 190.875,-61.475 192.888,-60.625 195.05,-59.988 197.363,-59.563 L197.075,-60.8z"/>
              </g>
            </g>
          </g>
        </g>
      </g>
    </g>
  </g>
</svg>