<?xml version="1.0" encoding="utf-8"?>
<!-- Generator: flash2svg, http://dissentgraphics.com/tools/flash2svg -->
<svg xmlns:xlink="http://www.w3.org/1999/xlink" id="sprite.__202781.__20(Acc).__2F53" image-rendering="optimizeSpeed" baseProfile="basic" version="1.1" style="background-color:#ffffff" x="0px" y="0px" width="550px" height="400px" viewBox="0 0 550 400" enable-background="new 0 0 550 400" xmlns="http://www.w3.org/2000/svg">
  <defs transform="matrix(1 0 0 1 0 0) "/>
  <g id="sprite.__202781.__20(Acc).__2F53">
    <g id="Layer.__205">
      <g id="Graphic.__2Fshape.__202665_1" overflow="visible">
        <g id="Layer.__397">
          <g id="shape1059">
            <path id="path1221" fill="#000000" fill-opacity="1" d="M82.65,90.95 L81.6,92.1 81.6,92.15 80.5,92.65 79.05,93.35 77.8,93.55 77.3,93.55 77.25,93.55 70.3,93.1 70.35,93.75 70.3,93.75 C69.75,98.35 69.65,101.85 70,104.3 75.55,107.9 79.6,110.25 82.2,111.4 81.25,113.75 80.45,116.25 79.75,119 77.5,127.55 77,135.7 78.15,143.45 80.35,158.6 84.95,169.1 92,175 94.3,176.9 96.85,178.3 99.7,179.25 L102.5,179.9 102.85,180.25 102.95,180.5 104.1,180.45 104.2,180.3 104.5,180.4 105.4,179.65 C105.65,179.35 105.75,178.95 105.75,178.4 107.8,175.7 109.75,172.45 111.6,168.7 115.15,161.25 116.95,154.05 116.95,147.1 L117.1,147.05 C119.05,133.05 119.55,122.9 118.6,116.55 118.3,114.55 117.35,113.5 115.7,113.35 L111.55,113.95 C109.15,114.3 107.35,114.9 106.2,115.7 L104.45,113.45 C101.95,110.4 99.45,108 96.9,106.15 95.3,105 94,104.3 93,104.05 L94.65,98.15 96.05,89.1 95.9,89.15 94.5,89.4 C93.25,88.65 90.6,88.3 86.55,88.3 85.2,88.3 83.9,89.2 82.65,90.95z M90.65,91.9 L89.5,97.45 C88.65,100.7 88.4,103.25 88.7,105.2 88.75,105.55 89.1,105.95 89.8,106.4 90.45,106.95 92,107.6 94.4,108.45 96.95,109.3 99.1,110.6 100.8,112.25 106.45,117.7 110.65,129.95 113.45,149 113.85,151.9 113,155.75 110.95,160.5 L109.15,158.55 C109.6,157.05 109.8,156 109.75,155.4 109.6,154.65 108.7,154 107,153.4 L105.3,155.5 C103.75,154.45 102.65,154 102.1,154.1 100.75,154.3 100.35,154.4 100.9,154.45 L100.25,155.15 C100.1,155.4 100.1,155.95 100.25,156.8 L102.9,160.25 C102.25,162 102,163.45 102.2,164.6 102.35,165.65 102.65,166.3 103.15,166.6 103.5,166.85 104.1,167.1 105.05,167.4 105.65,166.7 106.3,165.55 107.05,163.95 L108.9,164.8 108,166.4 103.6,173.9 103.45,174.25 102.25,173.65 96.4,171.2 96.1,167.95 C95.75,165.8 95.25,164.05 94.55,162.6 93.9,161.35 93.35,160.8 92.9,160.85 92.55,160.9 92.2,161.1 91.85,161.5 L91.8,162.75 C91.85,163.2 92.05,164.05 92.45,165.3 L93.2,168.7 C87.6,163.05 83.5,151.4 80.95,133.75 L85.7,112.05 86.65,111.35 86.95,109.9 86.05,109.25 85.5,108.35 84.5,108.25 81.15,105.95 C78.1,103.85 75.85,102.95 74.3,103.25 74.25,102.15 74.3,101.1 74.45,100.15 77.2,102 79.15,102.85 80.4,102.7 80.95,102.6 81.3,102.45 81.35,102.25 L81.3,101.05 C81.25,100.9 80.15,100.25 77.95,99 76.7,98.25 75.75,97.75 75.1,97.45 L75.55,96.3 75.8,96.3 76.8,96.3 77.8,96.3 79.15,96.25 79.7,97 C80.85,98.65 81.8,99.45 82.45,99.4 L83.15,99.2 82.95,99.05 83.3,97.75 82.15,95.5 C82.9,95.1 83.55,94.6 84,93.95 L85.35,92.35 85.55,92.25 C85.8,93.75 86,94.7 86.15,95.05 86.35,95.5 86.8,95.7 87.45,95.65 88.1,95.55 88.25,94.15 87.95,91.4 L90.65,91.9z"/>
            <path id="path1222" fill="#E1E1E1" fill-opacity="1" d="M90.65,91.9 L87.95,91.4 C88.25,94.15 88.1,95.55 87.45,95.65 86.8,95.7 86.35,95.5 86.15,95.05 86,94.7 85.8,93.75 85.55,92.25 L85.35,92.35 84,93.95 C83.55,94.6 82.9,95.1 82.15,95.5 L83.3,97.75 82.95,99.05 83.15,99.2 82.45,99.4 C81.8,99.45 80.85,98.65 79.7,97 L79.15,96.25 77.8,96.3 76.8,96.3 75.8,96.3 75.55,96.3 75.1,97.45 C75.75,97.75 76.7,98.25 77.95,99 80.15,100.25 81.25,100.9 81.3,101.05 L81.35,102.25 C81.3,102.45 80.95,102.6 80.4,102.7 79.15,102.85 77.2,102 74.45,100.15 74.3,101.1 74.25,102.15 74.3,103.25 75.85,102.95 78.1,103.85 81.15,105.95 L84.5,108.25 85.5,108.35 86.05,109.25 86.95,109.9 86.65,111.35 85.7,112.05 80.95,133.75 C83.5,151.4 87.6,163.05 93.2,168.7 L92.45,165.3 C92.05,164.05 91.85,163.2 91.8,162.75 L91.85,161.5 C92.2,161.1 92.55,160.9 92.9,160.85 93.35,160.8 93.9,161.35 94.55,162.6 95.25,164.05 95.75,165.8 96.1,167.95 L96.4,171.2 102.25,173.65 103.45,174.25 103.6,173.9 108,166.4 108.9,164.8 107.05,163.95 C106.3,165.55 105.65,166.7 105.05,167.4 104.1,167.1 103.5,166.85 103.15,166.6 102.65,166.3 102.35,165.65 102.2,164.6 102,163.45 102.25,162 102.9,160.25 L100.25,156.8 C100.1,155.95 100.1,155.4 100.25,155.15 L100.9,154.45 C100.35,154.4 100.75,154.3 102.1,154.1 102.65,154 103.75,154.45 105.3,155.5 L107,153.4 C108.7,154 109.6,154.65 109.75,155.4 109.8,156 109.6,157.05 109.15,158.55 L110.95,160.5 C113,155.75 113.85,151.9 113.45,149 110.65,129.95 106.45,117.7 100.8,112.25 99.1,110.6 96.95,109.3 94.4,108.45 92,107.6 90.45,106.95 89.8,106.4 89.1,105.95 88.75,105.55 88.7,105.2 88.4,103.25 88.65,100.7 89.5,97.45 L90.65,91.9z M94.15,133.1 C94.75,134.75 96.5,137.2 99.45,140.35 L101.15,142.15 104.3,141.95 C105.95,142.15 108.35,143.2 111.45,145.05 L111.05,146.75 C110.8,147.05 110.2,147.25 109.3,147.4 L104.4,146.9 98.85,146.5 C98.1,146.6 96.4,147.5 93.75,149.25 L89.05,151.95 87.25,152.05 C86.85,152.2 86.55,151.65 86.4,150.35 86.1,148.35 86.9,146.7 88.75,145.4 87.6,144.25 86.35,142.7 85,140.85 84.75,139.1 86.1,137.1 89.1,134.85 91.45,133 93.05,132 93.8,131.9 94.05,131.85 94.15,132.25 94.15,133.1z"/>
            <path id="path1223" fill="#000000" fill-opacity="1" d="M94.15,133.1 C94.15,132.25 94.05,131.85 93.8,131.9 93.05,132 91.45,133 89.1,134.85 86.1,137.1 84.75,139.1 85,140.85 86.35,142.7 87.6,144.25 88.75,145.4 86.9,146.7 86.1,148.35 86.4,150.35 86.55,151.65 86.85,152.2 87.25,152.05 L89.05,151.95 93.75,149.25 C96.4,147.5 98.1,146.6 98.85,146.5 L104.4,146.9 109.3,147.4 C110.2,147.25 110.8,147.05 111.05,146.75 L111.45,145.05 C108.35,143.2 105.95,142.15 104.3,141.95 L101.15,142.15 99.45,140.35 C96.5,137.2 94.75,134.75 94.15,133.1z M94.05,143.4 L92.5,141.95 90.15,140.1 C90.2,139.3 90.55,138.75 91.3,138.45 92.15,138.1 92.65,137.55 92.9,136.85 93.45,139.5 94.35,141.6 95.6,143.1 L94.05,143.4z M114.3,117.6 C114.45,118.85 114.4,122.5 114.1,128.55 L114,130.55 C112.55,126.25 110.55,122.2 108.1,118.4 L114.3,117.6z"/>
            <path id="path1224" fill="#E1E1E1" fill-opacity="1" d="M94.05,143.4 L95.6,143.1 C94.35,141.6 93.45,139.5 92.9,136.85 92.65,137.55 92.15,138.1 91.3,138.45 90.55,138.75 90.2,139.3 90.15,140.1 L92.5,141.95 94.05,143.4z"/>
            <path id="path1225" fill="#E1E1E1" fill-opacity="1" d="M114.3,117.6 L108.1,118.4 C110.55,122.2 112.55,126.25 114,130.55 L114.1,128.55 C114.4,122.5 114.45,118.85 114.3,117.6z M77.25,93.55 L77.3,93.55 77.8,93.55 77.65,93.05 77.25,93.55z"/>
          </g>
        </g>
      </g>
    </g>
  </g>
</svg>