<?xml version="1.0" encoding="utf-8"?>
<!-- Generator: flash2svg, http://dissentgraphics.com/tools/flash2svg -->
<svg xmlns:xlink="http://www.w3.org/1999/xlink" id="sprite.__202781.__20(Acc).__2F58" image-rendering="optimizeSpeed" baseProfile="basic" version="1.1" style="background-color:#ffffff" x="0px" y="0px" width="550px" height="400px" viewBox="0 0 550 400" enable-background="new 0 0 550 400" xmlns="http://www.w3.org/2000/svg">
  <defs transform="matrix(1 0 0 1 0 0) "/>
  <g id="sprite.__202781.__20(Acc).__2F58">
    <g id="Layer.__210">
      <g id="Graphic.__2Fshape.__202671_1" overflow="visible">
        <g id="Layer.__476">
          <g id="shape1135">
            <path id="path1482" fill="#000000" fill-opacity="1" d="M89.2,97 L87.2,96.95 C80.4,96.95 74.4,98.25 69.2,100.85 64.55,103.3 60.1,104.05 55.9,103 L51.15,101.75 45.8,102.05 45.15,102.3 43.95,102.1 41.6,112.05 C40.8,115.25 40.4,117.7 40.45,119.45 40,122.3 40.7,123.75 42.6,123.75 L43.9,122.7 44.35,123.1 45.7,122.3 45.75,122.6 C45.5,124.05 45.75,125.65 46.55,127.5 46.85,129.05 47.1,130.05 47.35,130.45 48.05,131.55 50.3,133.9 54.05,137.45 57.8,141 60.1,143.45 61.05,144.9 62.7,147.45 64.9,153.05 67.65,161.8 L70.2,170 C70.15,173.2 71.1,174.8 73.05,174.8 74.1,174.8 74.8,174.25 75.05,173.2 L75.45,172.95 75.95,172.05 75.3,169.3 C75.55,164.75 76.6,160.4 78.45,156.35 79.8,153.3 82.25,149.4 85.7,144.65 89.25,139.75 91.65,136 92.9,133.4 95.05,128.9 96.15,124.1 96.15,119.05 L96.05,117.6 C97.1,118.7 97.95,119.25 98.55,119.25 99.8,119.25 100.5,118.65 100.75,117.4 L100.7,114.85 C100.05,110.2 98.3,105.45 95.55,100.7 L95.75,99.85 95.9,99.35 C95.9,98.95 95.7,98.6 95.35,98.35 94.95,98 94.35,97.7 93.55,97.5 L92.35,95.85 89.2,97z M47.8,114.55 L47.4,114.45 47.25,114.45 47.15,114.45 46.1,114.5 46.9,106.1 C57.55,107.4 65.25,107.05 70.05,105 74.8,102.95 80.3,101.9 86.5,101.8 L90.7,101.55 92,104.4 C92.3,105.6 92.85,106.85 93.6,108.1 L93.35,108.2 92.6,108.35 C91.95,107.85 91.35,107.55 90.9,107.5 L90.8,107.45 90.6,107.45 90.5,107.45 C89.75,107.45 89.25,107.65 89.1,108.05 L88.95,108.65 88.9,108.8 88.9,109 88.9,109.9 C89.45,115.45 89.75,119.8 89.8,122.85 L89.65,127.1 88.05,132.05 85.5,137.3 76.5,149.6 C74.35,152.85 72.75,155.65 71.8,158 L71.45,156.85 70.05,152.45 69.55,150.95 68.85,149.45 C67.65,146.7 66.4,144.6 65.15,143.2 L58.3,136.1 C54.9,132.55 52.75,130.1 51.8,128.75 51.25,127.9 50.6,125.15 49.9,120.45 L49.9,120.3 49.95,119.35 C49.95,118.1 49.7,117.2 49.2,116.55 L48.95,115.55 C48.7,115 48.3,114.7 47.8,114.55z"/>
            <path id="path1483" fill="#F7F7F7" fill-opacity="1" d="M47.8,114.55 C48.3,114.7 48.7,115 48.95,115.55 L49.2,116.55 C49.7,117.2 49.95,118.1 49.95,119.35 L49.9,120.3 49.9,120.45 C50.6,125.15 51.25,127.9 51.8,128.75 52.75,130.1 54.9,132.55 58.3,136.1 L65.15,143.2 C66.4,144.6 67.65,146.7 68.85,149.45 L69.55,150.95 70.05,152.45 71.45,156.85 71.8,158 C72.75,155.65 74.35,152.85 76.5,149.6 L85.5,137.3 88.05,132.05 89.65,127.1 89.8,122.85 C89.75,119.8 89.45,115.45 88.9,109.9 L88.9,109 88.9,108.8 88.95,108.65 89.1,108.05 C89.25,107.65 89.75,107.45 90.5,107.45 L90.6,107.45 90.8,107.45 90.9,107.5 C91.35,107.55 91.95,107.85 92.6,108.35 L93.35,108.2 93.6,108.1 C92.85,106.85 92.3,105.6 92,104.4 L90.7,101.55 86.5,101.8 C80.3,101.9 74.8,102.95 70.05,105 65.25,107.05 57.55,107.4 46.9,106.1 L46.1,114.5 47.15,114.45 47.25,114.45 47.4,114.45 47.8,114.55z"/>
          </g>
        </g>
        <g id="Layer.__477">
          <g id="shape1136">
            <path id="path1484" fill="#000000" fill-opacity="1" d="M98.3,83.35 L94.15,79.4 C91.65,77.25 89,76.1 86.15,75.85 83.25,75.6 80.1,76.15 76.65,77.5 75,78.15 73.8,78.75 73,79.3 71.95,77.3 69.6,76.15 65.95,75.85 63.1,75.6 60.9,76.1 59.25,77.3 58.5,77.85 57.15,79.35 55.2,81.9 51.15,87.1 44.9,90.55 36.45,92.3 L36.5,92.95 C36.8,93.3 38.95,93.6 42.9,93.95 49.95,94.55 57,93 64.15,89.25 66.8,87.85 69.05,86.35 70.95,84.75 L73.3,82.15 75.55,83.15 81.3,85.85 C87.25,88.5 93.05,90.05 98.8,90.5 L111.3,91.15 C111.95,91.1 112.35,90.95 112.45,90.75 L112.45,90.1 109.85,89.45 C106.85,88.6 103,86.55 98.3,83.35z M95.25,82.45 C97.8,85.4 99.6,87.4 100.7,88.35 L93.75,87.75 C83.3,83.85 77.25,81.35 75.6,80.3 78.55,78.55 81.55,77.8 84.5,78.05 Q90.95,78.6 95.25,82.45z"/>
            <path id="path1485" fill="#F7F7F7" fill-opacity="1" d="M95.25,82.45 Q90.95,78.6 84.5,78.05 C81.55,77.8 78.55,78.55 75.6,80.3 77.25,81.35 83.3,83.85 93.75,87.75 L100.7,88.35 C99.6,87.4 97.8,85.4 95.25,82.45z M45.8,91.55 L45.8,91.8 45.45,91.85 45.8,91.55z M54.8,84.15 C49.45,88.75 46.45,91.2 45.8,91.55 L45.8,91.8 C53.55,91.2 59.3,89.7 63,87.35 L67.1,84 C68.75,82.5 70.25,81.35 71.5,80.6 70.8,79.85 70.2,79.3 69.65,79.05 68.7,78.6 66.65,78.25 63.6,78 62.6,77.9 59.65,79.95 54.8,84.15z"/>
          </g>
        </g>
      </g>
    </g>
  </g>
</svg>