<?xml version="1.0" encoding="utf-8"?>
<!-- Generator: flash2svg, http://dissentgraphics.com/tools/flash2svg -->
<svg xmlns:xlink="http://www.w3.org/1999/xlink" id="sprite.__202781.__20(Acc).__2F66" image-rendering="optimizeSpeed" baseProfile="basic" version="1.1" style="background-color:#ffffff" x="0px" y="0px" width="550px" height="400px" viewBox="0 0 550 400" enable-background="new 0 0 550 400" xmlns="http://www.w3.org/2000/svg">
  <defs transform="matrix(1 0 0 1 0 0) "/>
  <g id="sprite.__202781.__20(Acc).__2F66">
    <g id="Layer.__219">
      <g id="MovieClip.__2Fsprite.__202670_1" overflow="visible">
        <g id="Layer.__604">
          <g id="Graphic.__2Fshape.__202761_18" overflow="visible">
            <g id="Layer.__605">
              <g id="shape1261">
                <path id="path1922" fill="#000000" fill-opacity="1" d="M96.5,90.7 Q91.6,90.7 84.35,93.15 C79.5,94.75 76.5,96 75.35,96.95 L73.75,98.35 C74.4,99.25 75.45,99.7 77,99.7 89.25,99.7 98.2,102.4 103.85,107.85 107.5,111.35 110.5,117.3 112.85,125.7 115.35,134.8 117.7,140.75 119.95,143.6 124.2,149 131.2,151.7 141,151.7 149.55,151.7 156.05,147.35 160.5,138.7 163.5,132.8 165,127.05 165,121.45 L164.55,118.15 C161.5,115.7 155.65,114.2 147,113.7 141.95,113.7 138.2,114.25 135.75,115.3 134.2,111.55 132.15,108.1 129.5,104.95 121.55,95.45 110.55,90.7 96.5,90.7z M154.5,121.7 C151.5,122.7 148.6,123.2 145.85,123.2 L140.85,122.65 137.8,122 137.55,120.8 C139.8,119.75 142.55,119.2 145.75,119.2 147.4,119.2 151.1,119.85 156.75,121.2 L154.5,121.7z M132.7,133.5 L132.7,132.85 C133.35,133.3 134.25,133.6 135.35,133.7 137,130.15 137.35,128.1 136.4,127.6 139.65,128.35 143.05,128.7 146.5,128.7 151.85,128.7 156.1,127.95 159.15,126.45 159,129.4 158.55,132.1 157.8,134.5 155.45,142.3 149.65,146.2 140.35,146.2 132.15,146.2 126.1,143.4 122.2,137.85 120.05,134.8 117.75,129.1 115.4,120.75 113,112.4 110.1,106.6 106.75,103.45 103.35,100.25 96.85,98.05 87.2,96.9 105.1,96.65 116.4,99 121.15,103.95 125.8,108.9 129.1,115.65 131.05,124.2 L131,126.45 131,130.2 C131.25,131.35 131.8,132.2 132.6,132.8 L132.7,133.5z"/>
                <path id="path1923" fill="#443600" fill-opacity="1" d="M154.5,121.7 L156.75,121.2 C151.1,119.85 147.4,119.2 145.75,119.2 142.55,119.2 139.8,119.75 137.55,120.8 L137.8,122 140.85,122.65 145.85,123.2 C148.6,123.2 151.5,122.7 154.5,121.7z"/>
                <path id="path1924" fill="#806600" fill-opacity="1" d="M132.7,133.5 L132.6,132.8 C131.8,132.2 131.25,131.35 131,130.2 L131,126.45 131.05,124.2 C129.1,115.65 125.8,108.9 121.15,103.95 116.4,99 105.1,96.65 87.2,96.9 96.85,98.05 103.35,100.25 106.75,103.45 110.1,106.6 113,112.4 115.4,120.75 117.75,129.1 120.05,134.8 122.2,137.85 126.1,143.4 132.15,146.2 140.35,146.2 149.65,146.2 155.45,142.3 157.8,134.5 158.55,132.1 159,129.4 159.15,126.45 156.1,127.95 151.85,128.7 146.5,128.7 143.05,128.7 139.65,128.35 136.4,127.6 137.35,128.1 137,130.15 135.35,133.7 134.25,133.6 133.35,133.3 132.7,132.85 L132.7,133.5z"/>
              </g>
            </g>
            <g id="Layer.__606">
              <g id="shape1262">
                <path id="path1925" fill="#D0D0D0" fill-opacity="0.5019607843137255" d="M129.2,3.75 Q124.2,12.2 121.45,22.45 C120.1,27.6 119.4,31.75 119.4,34.9 119.4,43.45 120.85,51.35 123.75,58.5 125.85,63.65 129.05,69.1 133.35,74.75 L142.9,87.25 C145.8,91.65 147.25,95.8 147.25,99.75 147.25,101.25 146.75,103.5 145.75,106.5 144.75,109.5 144.25,111.6 144.25,112.85 144.25,113.6 144.5,114.55 144.95,115.7 145.65,117.4 146.6,118.25 147.75,118.25 154,118.25 162.2,107.25 172.25,85.25 172.25,83.2 171.35,80.65 169.5,77.6 167.65,74.55 166.75,72.85 166.75,72.5 166.75,67.45 169.75,64.1 175.75,62.45 177.9,61.85 180.95,61.3 184.95,60.85 L195.5,59.6 C204.35,58.35 210.95,55.95 215.25,52.45 221.25,47.6 224.25,39.95 224.25,29.5 224.25,26.65 223.7,23 222.55,18.65 220.9,12.4 218.5,6.75 215.3,1.7 205.8,-13.25 191.1,-20.75 171.25,-20.75 152.9,-20.75 138.85,-12.6 129.2,3.75z"/>
                <path id="path1926" fill="#FFFFFF" fill-opacity="0.5019607843137255" d="M126.1,25.75 C124.95,30.25 124.4,33.5 124.4,35.5 124.4,43.25 125.9,50.4 128.95,56.95 130.75,60.85 134,66 138.75,72.4 143.35,78.65 146.45,83.6 148.05,87.2 150.7,93.2 151.8,99.7 151.25,106.75 L151.5,107.05 C152.9,105.8 155.7,102.4 159.95,96.8 164.8,90.4 167.25,86.55 167.25,85.25 L164.25,79.7 C162.25,76.05 161.25,73.65 161.25,72.5 161.25,65.6 164.25,60.8 170.3,58.15 173.35,56.8 180,55.45 190.25,54.1 199.55,52.9 206.2,51 210.2,48.45 216.25,44.6 219.25,38.2 219.25,29.25 219.25,26.7 218.65,23.45 217.45,19.5 215.8,14 213.4,9 210.2,4.55 200.9,-8.65 186.85,-15.25 168,-15.25 152.7,-15.25 140.9,-7.35 132.6,8.5 129.85,13.75 127.7,19.5 126.1,25.75z"/>
                <path id="path1927" fill="#000000" fill-opacity="0.5019607843137255" d="M151.25,106.75 L151.45,107.1 151.5,107.05 151.25,106.75z"/>
              </g>
            </g>
          </g>
        </g>
      </g>
    </g>
  </g>
</svg>