<?xml version="1.0" encoding="utf-8"?>
<!-- Generator: flash2svg, http://dissentgraphics.com/tools/flash2svg -->
<svg xmlns:xlink="http://www.w3.org/1999/xlink" id="sprite.__202781.__20(Acc).__2F73" image-rendering="optimizeSpeed" baseProfile="basic" version="1.1" style="background-color:#ffffff" x="0px" y="0px" width="550px" height="400px" viewBox="0 0 550 400" enable-background="new 0 0 550 400" xmlns="http://www.w3.org/2000/svg">
  <defs transform="matrix(1 0 0 1 0 0) "/>
  <g id="sprite.__202781.__20(Acc).__2F73">
    <g id="Layer.__226">
      <g id="Graphic.__2Fshape.__202695_1" overflow="visible">
        <g id="Layer.__721">
          <g id="shape1376">
            <path id="path2349" fill="#000000" fill-opacity="1" d="M79.1,109.55 Q77.65,109.55 74.85,111.3 C74.5,111.5 73.95,112 73.3,112.85 L72.7,113.55 73.55,113.1 75.1,112.15 C76.1,111.15 77.4,110.65 79.05,110.7 81.6,110.65 83.8,111.35 85.55,112.8 L81.05,112.4 C79.5,112.35 78.05,112.7 76.75,113.35 L75.95,113.75 75.9,113.8 75.2,114.3 75.05,114.5 75,114.75 75.05,115.1 75.65,115.4 77.2,114.45 C78.1,113.8 79.4,113.5 81.1,113.5 84.65,113.5 87.15,114.2 88.6,115.65 L88.7,115.55 88.8,115.65 89.15,115.45 89.15,115.4 89.3,115.2 89.25,115.05 89.55,113.8 C90.3,112.85 92.1,112.4 94.85,112.4 98.7,112.4 101.2,114 102.35,117.25 102.7,118.3 102.95,119.45 103,120.7 L103,122.6 C103,125 102.5,127 101.55,128.65 L99.7,131.75 97.65,134 93.9,137.2 C92.5,138.25 91.05,139.1 89.55,139.85 88.05,140.55 85.15,141.45 80.85,142.5 L74.35,144.05 74.4,144.4 75.35,144.7 75.6,144.7 75.8,144.7 76.75,144.7 77.25,144.65 78,144.65 80.2,144.45 80.2,144.5 83.35,143.5 C85.55,142.75 88.2,141.65 91.25,140.1 91.9,139.75 92.35,139.55 92.7,139.45 L95.5,137.5 99.45,133.8 C101.05,131.95 102.2,129.95 102.85,127.8 103.5,125.6 103.85,124.15 103.85,123.5 L103.9,120.55 C103.95,119.25 103.75,118 103.35,116.85 102,113.1 99.15,111.25 94.85,111.3 L90.8,111.75 C92.25,110.6 94.65,110 97.9,110.05 98.95,110.05 100.2,110.75 101.7,112.1 102.95,113.25 103.85,114.35 104.4,115.4 105.1,116.75 105.5,117.85 105.6,118.7 L105.6,121.8 C105.55,124.45 105.35,126.35 104.9,127.5 L101.05,134.55 C99.95,136.5 97.6,138.6 94,140.95 92.65,141.8 90.8,142.55 88.35,143.3 L81.25,145.25 80.2,145.45 77.95,145.9 77.6,145.95 C76.35,146.1 75.75,145.95 75.85,145.6 75.7,145.7 75.75,145.8 75.9,145.95 L77.65,146.2 79.1,146.25 C84.1,146.25 88.45,145.35 92.2,143.6 95.35,145.55 97.8,147.2 99.5,148.55 L105.05,152.95 C108,155.2 109.5,158.4 109.5,162.5 109.5,164.4 107.55,166.65 103.65,169.2 L97.8,172.5 97.8,172.8 97.7,173.65 97.7,176.6 C100.5,175.3 103.95,173.4 108.05,170.85 111.45,168.2 113.15,165 113.2,161.35 113.15,157.3 111.75,154.15 108.95,151.85 L101.3,146 95.4,142.05 95.1,142 C97.8,140.25 100.1,137.95 102.05,135.1 105.1,130.45 106.65,126 106.65,121.85 106.65,119.2 106.3,116.9 105.6,115.05 104.05,110.95 101.05,108.9 96.6,108.9 93.85,108.9 91.6,109.65 89.9,111.2 89,112 88.4,112.75 88.15,113.5 L86.6,112.1 C84.4,110.4 81.9,109.55 79.1,109.55z M25.05,108.3 L23.5,107.4 21.5,106.6 18.35,106.4 17.25,106.8 C16.85,106.9 16.35,107.1 15.8,107.4 L13.7,108.7 11.25,111 C10.45,111.9 9.65,113.15 8.85,114.75 8,116.3 7.3,118 6.65,119.75 5.7,122.25 5.4,124.5 5.65,126.5 5.9,128.5 6.2,129.85 6.6,130.6 L8.05,132.75 10.25,135.15 12.9,137.8 13.7,138.6 15,139.45 18.8,142 C19.15,142.15 19.55,142.35 19.9,142.7 L21.3,143.8 23.7,145.2 C24.65,145.75 25.15,145.85 25.2,145.4 L25.2,145.05 25.35,145 25.4,144.9 25.2,144.75 24.45,144.15 19.35,140.45 C18.6,140 17.9,139.65 17.15,139.3 16,138.65 14.85,137.85 13.8,137 12,135.6 10.35,134 8.9,132.2 7.45,130.45 6.65,128.4 6.6,126.15 6.55,125.8 6.6,125.45 6.65,125.15 L7.05,123.1 7.5,121.4 8.6,118.15 9.65,115.55 11.25,112.7 12.45,111.15 13.75,109.85 C14.6,109.2 15.5,108.65 16.5,108.2 L19.45,107.4 21.3,107.6 22.9,108.2 23.45,108.5 24.5,109.2 24.6,109.3 25.5,109.65 25.5,109.75 25.45,110.2 25.1,110.9 25.05,111.05 25,111.1 24.9,110.95 24.35,110.6 C23.6,110.15 23,109.85 22.6,109.75 L21.9,109.55 21.15,109.3 19.65,109.15 18.7,109.1 C17.55,109.05 16.6,109.45 15.75,110.2 15.1,110.75 14.55,111.3 14,111.95 L12.05,114.5 11.25,116.05 C10.8,116.9 10.4,117.85 10.15,118.8 9.85,119.85 9.65,120.9 9.5,122.05 9.4,122.9 9.35,123.75 9.35,124.65 L9.4,127.8 C9.45,129 9.85,130.05 10.5,130.95 L12.15,133 14.2,135.15 16.5,136.9 18.5,138.35 20.95,139.9 23.25,141.3 24.65,142.15 25.3,142.55 25.9,142.9 26,142.95 26.2,142.8 26.5,142.65 26.75,142.45 26.7,142.4 25.65,141.2 24.9,140.55 24.7,140.4 24.6,140.35 24.65,140.35 24,139.85 22.1,138.45 19.95,137.15 19.3,136.75 16.8,135.4 C15.25,134.5 14,133.5 13.15,132.4 12.3,131.3 11.65,130.25 11.25,129.3 10.8,128.35 10.6,127.4 10.55,126.45 L10.55,123.5 C10.55,122.5 10.75,121.2 11.15,119.55 11.55,117.9 12.15,116.45 12.9,115.25 13.65,114.05 14.5,112.95 15.45,112 15.9,111.5 16.4,111.1 17.05,110.85 17.55,110.6 18.1,110.35 18.7,110.2 L20.2,110.35 21.35,110.75 22.8,111.25 24.95,111.9 C25.4,112.05 25.55,111.95 25.4,111.65 25.85,111 26.05,110.4 26.05,109.95 L25.95,109.35 26.15,109.1 25.35,108.5 25.05,108.3z"/>
            <path id="path2350" fill="#3A4C64" fill-opacity="1" d="M94.5,142.4 L92.9,143.3 C93.55,143.55 94.55,144.1 95.9,144.95 L101.25,148.85 103.05,150.2 C106.15,152.6 108.05,154.35 108.75,155.4 109.1,155.95 109.5,157.15 109.95,158.9 L110.6,162.7 C110.55,164.55 108.7,166.8 105.05,169.5 L104.85,169.6 100.75,172.35 99.55,172.95 99.1,173.05 C99.05,173.85 99.1,174.45 99.3,174.9 L99.95,174.6 100.8,173.85 101.3,173.55 105.7,170.9 C109.95,168.2 112.1,165 112.1,161.35 112.1,158 110.85,155.15 108.3,152.75 L108.25,152.7 107.25,152 101.6,147.75 98.25,145.2 97.95,145 97.6,144.75 97.15,144.4 97.1,144.3 97.1,144.4 96.4,143.85 96.35,143.8 L96.35,143.85 L96.35,143.8 94.5,142.4z M75.05,114.5 L75.2,114.3 75.9,113.8 75.95,113.75 76.75,113.35 C78.05,112.7 79.5,112.35 81.05,112.4 L85.55,112.8 C83.8,111.35 81.6,110.65 79.05,110.7 77.4,110.65 76.1,111.15 75.1,112.15 L73.55,113.1 75.05,114.5z M80.15,144.5 L80.2,144.5 80.2,144.45 78,144.65 77.25,144.65 77.6,145.95 77.95,145.9 80.2,145.45 81.25,145.25 88.35,143.3 C90.8,142.55 92.65,141.8 94,140.95 97.6,138.6 99.95,136.5 101.05,134.55 L104.9,127.5 C105.35,126.35 105.55,124.45 105.6,121.8 L105.6,118.7 C105.5,117.85 105.1,116.75 104.4,115.4 103.85,114.35 102.95,113.25 101.7,112.1 100.2,110.75 98.95,110.05 97.9,110.05 94.65,110 92.25,110.6 90.8,111.75 L94.85,111.3 C99.15,111.25 102,113.1 103.35,116.85 103.75,118 103.95,119.25 103.9,120.55 L103.85,123.5 C103.85,124.15 103.5,125.6 102.85,127.8 102.2,129.95 101.05,131.95 99.45,133.8 L95.5,137.5 92.7,139.45 C92.35,139.55 91.9,139.75 91.25,140.1 88.2,141.65 85.55,142.75 83.35,143.5 L80.2,144.5z M21.15,109.3 L21.9,109.55 22.6,109.75 C23,109.85 23.6,110.15 24.35,110.6 L24.9,110.95 24.7,110.7 24.7,110.65 25.05,111.05 25.1,110.9 25.45,110.2 25.5,109.75 25.5,109.65 24.6,109.3 24.5,109.2 23.45,108.5 22.9,108.2 21.3,107.6 19.45,107.4 16.5,108.2 C15.5,108.65 14.6,109.2 13.75,109.85 L12.45,111.15 11.25,112.7 9.65,115.55 8.6,118.15 7.5,121.4 7.05,123.1 6.65,125.15 C6.6,125.45 6.55,125.8 6.6,126.15 6.65,128.4 7.45,130.45 8.9,132.2 10.35,134 12,135.6 13.8,137 14.85,137.85 16,138.65 17.15,139.3 17.9,139.65 18.6,140 19.35,140.45 L24.45,144.15 25.2,144.75 25.9,142.9 25.3,142.55 24.65,142.15 23.25,141.3 20.95,139.9 18.5,138.35 16.5,136.9 14.2,135.15 12.15,133 10.5,130.95 C9.85,130.05 9.45,129 9.4,127.8 L9.35,124.65 C9.35,123.75 9.4,122.9 9.5,122.05 9.65,120.9 9.85,119.85 10.15,118.8 10.4,117.85 10.8,116.9 11.25,116.05 L12.05,114.5 14,111.95 C14.55,111.3 15.1,110.75 15.75,110.2 16.6,109.45 17.55,109.05 18.7,109.1 L19.65,109.15 21.15,109.3z M25,111.1 L24.9,110.95 24.7,110.7 24.7,110.65 25.05,111.05 25,111.1z M25.8,139.95 L25.7,139.95 25.8,140 26,140.15 25.8,139.95z"/>
          </g>
        </g>
        <g id="Layer.__722">
          <g id="shape1377">
            <path id="path2351" fill="#000000" fill-opacity="1" d="M48.9,144.7 Q47.7,145 46.15,145.8 C45.1,146.35 41.45,146.6 35.2,146.6 31.2,146.6 28.3,146.2 26.45,145.35 L26.1,145.2 26.05,145.15 25.75,145 25.45,144.8 25.3,144.7 22.55,142.8 22.05,142.45 21.85,142.4 21.8,142.45 21.3,143.45 24.4,145.95 C26.15,147.2 29.9,147.9 35.7,147.95 41.55,148 45.3,147.7 46.95,146.95 48.65,146.15 50.25,145.75 51.7,145.75 53.35,145.75 55.05,146.2 56.7,147.1 57.1,149.15 58.1,151 59.7,152.6 61.85,154.75 64.5,155.85 67.6,155.85 70.65,155.85 73.3,154.75 75.45,152.6 77.6,150.45 78.7,147.8 78.7,144.75 78.7,141.65 77.6,139 75.45,136.85 73.3,134.7 70.65,133.6 67.6,133.6 64.5,133.6 61.85,134.7 59.7,136.85 58.15,138.4 57.2,140.15 56.75,142.15 55.5,141.2 53.8,140.7 51.6,140.7 50.15,140.7 47.9,141.25 44.85,142.3 41.8,143.35 38.5,143.85 34.85,143.85 31.2,143.8 28.3,143.2 26.25,141.95 L23.6,140.2 23.5,140.35 23.4,140.5 22.95,141.25 23.75,141.9 26,143.45 28.1,144.6 C29.25,145.15 31.55,145.4 35.1,145.4 38.75,145.4 42.1,144.85 45.15,143.8 48.2,142.7 50.3,142.15 51.55,142.15 53.9,142.15 55.4,142.65 56.1,143.65 L56.5,144.2 56.45,144.75 56.45,145.6 C55.75,144.5 54.5,144.05 52.75,144.2 L48.9,144.7z M59.15,142 C59.55,140.65 60.25,139.5 61.3,138.45 63.05,136.7 65.15,135.85 67.6,135.9 70.05,135.85 72.1,136.7 73.85,138.45 L74.1,138.75 74.15,138.8 75.5,140.75 75.8,141.35 75.95,141.9 74.35,141.1 C72.4,140.25 70.4,139.85 68.4,139.85 65.15,139.85 62.35,140.4 60,141.55 59.65,141.7 59.4,141.85 59.15,142z M58.8,145.55 C61.35,143.5 63.7,142.35 65.85,142.2 L65.35,144.05 C65.1,145.2 65.1,146.15 65.35,147 L65.85,148.6 66.35,149.25 65.85,149.2 C63.75,149 61.9,148.4 60.35,147.35 L58.85,146.1 58.8,145.55z M70.3,142.3 L75.1,143.9 76.15,144.2 74.3,146.5 C73.05,147.75 71.5,148.6 69.75,149 70.4,148.45 70.75,147.45 70.8,145.95 70.85,144.4 70.65,143.2 70.3,142.3z M76.3,143.5 L76.35,143.8 76.35,143.9 76.2,143.6 76.3,143.5z M73.85,151 C72.1,152.7 70.05,153.55 67.6,153.55 65.15,153.55 63.05,152.7 61.3,151 L61.15,150.75 60.8,150.4 61.2,150.55 C62.8,151.15 64.75,151.45 67,151.45 70.25,151.45 72.95,150.5 75.2,148.55 L75.8,148.05 75.5,148.7 73.85,151z"/>
            <path id="path2352" fill="#3A4C64" fill-opacity="1" d="M59.15,142 C59.4,141.85 59.65,141.7 60,141.55 62.35,140.4 65.15,139.85 68.4,139.85 70.4,139.85 72.4,140.25 74.35,141.1 L75.95,141.9 75.8,141.35 75.5,140.75 74.15,138.8 74.1,138.75 73.85,138.45 C72.1,136.7 70.05,135.85 67.6,135.9 65.15,135.85 63.05,136.7 61.3,138.45 60.25,139.5 59.55,140.65 59.15,142z"/>
            <path id="path2353" fill="#FFFFFF" fill-opacity="1" d="M58.8,145.55 L58.85,146.1 60.35,147.35 C61.9,148.4 63.75,149 65.85,149.2 L66.35,149.25 65.85,148.6 65.35,147 C65.1,146.15 65.1,145.2 65.35,144.05 L65.85,142.2 C63.7,142.35 61.35,143.5 58.8,145.55z"/>
            <path id="path2354" fill="#FFFFFF" fill-opacity="1" d="M70.3,142.3 C70.65,143.2 70.85,144.4 70.8,145.95 70.75,147.45 70.4,148.45 69.75,149 71.5,148.6 73.05,147.75 74.3,146.5 L76.15,144.2 75.1,143.9 70.3,142.3z"/>
            <path id="path2355" fill="#3A4C64" fill-opacity="1" d="M73.85,151 L75.5,148.7 75.8,148.05 75.2,148.55 C72.95,150.5 70.25,151.45 67,151.45 64.75,151.45 62.8,151.15 61.2,150.55 L60.8,150.4 61.15,150.75 61.3,151 C63.05,152.7 65.15,153.55 67.6,153.55 70.05,153.55 72.1,152.7 73.85,151z M46.15,145.8 Q47.7,145 48.9,144.7 L52.75,144.2 C54.5,144.05 55.75,144.5 56.45,145.6 L56.45,144.75 56.5,144.2 56.1,143.65 C55.4,142.65 53.9,142.15 51.55,142.15 50.3,142.15 48.2,142.7 45.15,143.8 42.1,144.85 38.75,145.4 35.1,145.4 31.55,145.4 29.25,145.15 28.1,144.6 L26,143.45 23.75,141.9 22.95,141.25 22.4,142 22.05,142.45 22.55,142.8 25.3,144.7 25.45,144.8 25.75,145 26.05,145.15 26.1,145.2 26.45,145.35 C28.3,146.2 31.2,146.6 35.2,146.6 41.45,146.6 45.1,146.35 46.15,145.8z"/>
          </g>
        </g>
      </g>
    </g>
  </g>
</svg>