<?xml version="1.0" encoding="utf-8"?>
<!-- Generator: flash2svg, http://dissentgraphics.com/tools/flash2svg -->
<svg xmlns:xlink="http://www.w3.org/1999/xlink" id="sprite.__202781.__20(Acc).__2F77" image-rendering="optimizeSpeed" baseProfile="basic" version="1.1" style="background-color:#ffffff" x="0px" y="0px" width="550px" height="400px" viewBox="0 0 550 400" enable-background="new 0 0 550 400" xmlns="http://www.w3.org/2000/svg">
  <defs transform="matrix(1 0 0 1 0 0) "/>
  <g id="sprite.__202781.__20(Acc).__2F77">
    <g id="Layer.__230">
      <g id="Graphic.__2Fshape.__202703_1" overflow="visible">
        <g id="Layer.__784">
          <g id="shape1439">
            <path id="path2633" fill="none" stroke="#000000" stroke-opacity="1" stroke-width="2.5" stroke-linecap="round" stroke-linejoin="round" d="M47.05,115.95 C49.35,115.1 51.45,115.1 53.4,115.95 57.05,114.7 62.2,114.7 68.8,115.95 68.45,121.7 67.5,125.75 66.05,128.1 65.05,129.7 63.95,131.1 62.8,132.35 60.25,130.9 58.1,129.3 56.4,127.5 L61.9,137.3 C61.4,140 59.45,141 56.1,140.25 52.6,136.35 51.05,131.25 51.4,125 L49.2,124.75 C49.25,131.2 48.2,136.6 46.05,140.85 42.6,141.7 40.3,140.7 39.05,137.95 L43.4,128.95 C41.9,130.3 40.1,131.7 38,133.1 L34.65,129.65 C33.1,127.7 32.1,123.1 31.7,115.95 38.25,114.7 43.4,114.7 47.05,115.95z"/>
            <path id="path2634" fill="#FFFFFF" fill-opacity="1" d="M51.4,125 Q52.35,124.9 53.05,124.3 L53.4,123.7 C54.15,121.95 54.15,119.4 53.4,115.95 51.45,115.1 49.35,115.1 47.05,115.95 46.55,119.1 46.75,121.85 47.6,124.1 L49.2,124.75 51.4,125z"/>
            <path id="path2635" fill="none" stroke="#000000" stroke-opacity="1" stroke-width="2.5" stroke-linecap="round" stroke-linejoin="round" d="M51.4,125 Q52.35,124.9 53.05,124.3 L53.4,123.7 C54.15,121.95 54.15,119.4 53.4,115.95 51.45,115.1 49.35,115.1 47.05,115.95 46.55,119.1 46.75,121.85 47.6,124.1 L49.2,124.75 51.4,125z"/>
            <path id="path2636" fill="#FFFFFF" fill-opacity="1" d="M53.05,124.3 Q52.35,124.9 51.4,125 C51.05,131.25 52.6,136.35 56.1,140.25 59.45,141 61.4,140 61.9,137.3 L56.4,127.5 C55.25,126.35 54.3,125.1 53.55,123.75 L53.05,124.3z"/>
            <path id="path2637" fill="none" stroke="#000000" stroke-opacity="1" stroke-width="2.5" stroke-linecap="round" stroke-linejoin="round" d="M53.05,124.3 Q52.35,124.9 51.4,125 C51.05,131.25 52.6,136.35 56.1,140.25 59.45,141 61.4,140 61.9,137.3 L56.4,127.5 C55.25,126.35 54.3,125.1 53.55,123.75 L53.05,124.3z"/>
            <path id="path2638" fill="#FFFFFF" fill-opacity="1" d="M53.4,123.7 L53.05,124.3 53.55,123.75 C54.3,125.1 55.25,126.35 56.4,127.5 58.1,129.3 60.25,130.9 62.8,132.35 63.95,131.1 65.05,129.7 66.05,128.1 67.5,125.75 68.45,121.7 68.8,115.95 62.2,114.7 57.05,114.7 53.4,115.95 54.15,119.4 54.15,121.95 53.4,123.7z M47.6,124.1 C46.75,121.85 46.55,119.1 47.05,115.95 43.4,114.7 38.25,114.7 31.7,115.95 32.1,123.1 33.1,127.7 34.65,129.65 L38,133.1 C40.1,131.7 41.9,130.3 43.4,128.95 45.25,127.3 46.65,125.65 47.6,124.1z M49.2,124.75 L47.6,124.1 C46.65,125.65 45.25,127.3 43.4,128.95 L39.05,137.95 C40.3,140.7 42.6,141.7 46.05,140.85 48.2,136.6 49.25,131.2 49.2,124.75z"/>
            <path id="path2639" fill="none" stroke="#000000" stroke-opacity="1" stroke-width="2.5" stroke-linecap="round" stroke-linejoin="round" d="M53.4,123.7 L53.05,124.3 53.55,123.75 C54.3,125.1 55.25,126.35 56.4,127.5 58.1,129.3 60.25,130.9 62.8,132.35 63.95,131.1 65.05,129.7 66.05,128.1 67.5,125.75 68.45,121.7 68.8,115.95 62.2,114.7 57.05,114.7 53.4,115.95 54.15,119.4 54.15,121.95 53.4,123.7z"/>
            <path id="path2640" fill="none" stroke="#000000" stroke-opacity="1" stroke-width="2.5" stroke-linecap="round" stroke-linejoin="round" d="M47.6,124.1 C46.75,121.85 46.55,119.1 47.05,115.95 43.4,114.7 38.25,114.7 31.7,115.95 32.1,123.1 33.1,127.7 34.65,129.65 L38,133.1 C40.1,131.7 41.9,130.3 43.4,128.95 45.25,127.3 46.65,125.65 47.6,124.1z"/>
            <path id="path2641" fill="none" stroke="#000000" stroke-opacity="1" stroke-width="2.5" stroke-linecap="round" stroke-linejoin="round" d="M49.2,124.75 L47.6,124.1 C46.65,125.65 45.25,127.3 43.4,128.95 L39.05,137.95 C40.3,140.7 42.6,141.7 46.05,140.85 48.2,136.6 49.25,131.2 49.2,124.75z"/>
          </g>
        </g>
      </g>
    </g>
  </g>
</svg>