<?xml version="1.0" encoding="utf-8"?>
<!-- Generator: flash2svg, http://dissentgraphics.com/tools/flash2svg -->
<svg xmlns:xlink="http://www.w3.org/1999/xlink" id="sprite.__202781.__20(Acc).__2F80" image-rendering="optimizeSpeed" baseProfile="basic" version="1.1" style="background-color:#ffffff" x="0px" y="0px" width="550px" height="400px" viewBox="0 0 550 400" enable-background="new 0 0 550 400" xmlns="http://www.w3.org/2000/svg">
  <defs transform="matrix(1 0 0 1 0 0) "/>
  <g id="sprite.__202781.__20(Acc).__2F80">
    <g id="Layer.__233">
      <g id="Graphic.__2Fshape.__202707_1" overflow="visible">
        <g id="Layer.__830">
          <g id="shape1484">
            <path id="path2799" fill="#000000" fill-opacity="1" d="M116.6,-26.4 L120.5,-29.25 C127.45,-34 136.9,-36.7 148.95,-37.4 L148.7,-36.25 C146.8,-32.5 144.35,-26.25 141.3,-17.55 L142.1,-17.85 144.25,-19.65 152.35,-19.65 C148.85,-11.2 145.4,-3.75 141.95,2.7 L138.95,8.1 C139,9.05 140.05,8.7 142.15,7.05 L142.25,6.95 148.05,1.55 C154,-4.45 156.9,-13.25 156.8,-24.85 L148.15,-23.9 C151.9,-30 153.45,-36.15 152.8,-42.35 146.4,-41.8 138.65,-40.65 129.6,-38.95 123.05,-37.7 118.65,-35.25 116.4,-31.55 L115.45,-29.65 C114.8,-28 114.5,-26.1 114.55,-24 L116.6,-26.4z M-43.6,-19.45 L-43.85,-19.3 -44.25,-18.9 C-45.05,-15 -44.9,-11.2 -43.75,-7.5 -39.7,5.65 -32.25,12.55 -21.35,13.15 L-20.85,13.15 -19.2,13.2 -20.5,12.55 -21.4,12.05 C-25.95,9.6 -29.9,6.1 -33.25,1.6 -36.95,-3.25 -39.35,-8.7 -40.45,-14.65 L-40,-15.25 C-35.3,-14 -31.8,-14.6 -29.55,-17 L-29.95,-17.4 C-32.4,-20.15 -34.5,-23.15 -36.15,-26.45 L-38.75,-31.65 C-30.85,-33.35 -22.5,-32.85 -13.65,-30.15 L-6.7,-28.05 -0.6,-25.6 0.1,-24.75 C0.55,-27.8 -0.7,-29.95 -3.55,-31.25 L-3.7,-31.3 C-14.95,-36.35 -28.5,-38.05 -44.35,-36.4 -44.75,-31.85 -42.5,-26.15 -37.55,-19.3 L-43.6,-19.45z"/>
            <path id="path2800" fill="#FBFBFB" fill-opacity="1" d="M120.5,-29.25 L116.6,-26.4 C117.2,-24.75 117.8,-22.5 118.45,-19.55 124.25,-25.05 131,-29.15 138.75,-31.85 139.35,-26.7 137.55,-22.05 133.3,-17.8 136.9,-15.45 141.05,-14.7 145.7,-15.6 L147.1,-15.85 C145.15,-12.45 143.15,-9.2 141.1,-6.05 138.75,-2.5 136.05,-0.4 133.1,0.3 L132.95,0.5 C135.3,2.6 137.3,5.15 138.95,8.1 L141.95,2.7 C145.4,-3.75 148.85,-11.2 152.35,-19.65 L144.25,-19.65 142.1,-17.85 141.3,-17.55 C144.35,-26.25 146.8,-32.5 148.7,-36.25 L148.95,-37.4 C136.9,-36.7 127.45,-34 120.5,-29.25z M119.4,-14.75 L118.8,-17.7 118.45,-19.4 C119.45,-17 119.75,-15.45 119.4,-14.75z M-0.6,-25.6 L-6.7,-28.05 -13.65,-30.15 C-22.5,-32.85 -30.85,-33.35 -38.75,-31.65 L-36.15,-26.45 C-34.5,-23.15 -32.4,-20.15 -29.95,-17.4 L-29.55,-17 C-31.8,-14.6 -35.3,-14 -40,-15.25 L-40.45,-14.65 C-39.35,-8.7 -36.95,-3.25 -33.25,1.6 -29.9,6.1 -25.95,9.6 -21.4,12.05 L-20.5,12.55 -16.6,6.7 -15.95,5.75 -15.45,5 -15,4.25 -14.35,3.25 C-20.95,3.05 -26.5,-0.25 -31,-6.7 -31.5,-7.4 -31.55,-8.15 -31.15,-8.9 L-17.3,-10.6 C-19.95,-12.45 -22.6,-15.2 -25.25,-18.75 -27.5,-21.75 -28.2,-24.3 -27.3,-26.35 -18.85,-23.55 -10.55,-20.4 -2.4,-16.85 -1.05,-20.3 -0.45,-23.2 -0.6,-25.6z M-21.7,13.15 L-22.2,13.15 -22.15,13.45 -21.7,13.15z"/>
            <path id="path2801" fill="#000000" fill-opacity="1" d="M139.5,-17.95 L139.45,-18 139.5,-17.9 139.5,-17.95"/>
            <path id="path2802" fill="#EAEAEA" fill-opacity="1" d="M118.45,-19.55 L118.4,-19.5 118.45,-19.4 C123.5,-10.15 128.35,-3.55 132.95,0.5 L133.1,0.3 C136.05,-0.4 138.75,-2.5 141.1,-6.05 143.15,-9.2 145.15,-12.45 147.1,-15.85 L145.7,-15.6 C141.05,-14.7 136.9,-15.45 133.3,-17.8 137.55,-22.05 139.35,-26.7 138.75,-31.85 131,-29.15 124.25,-25.05 118.45,-19.55z M-31.15,-8.9 C-31.55,-8.15 -31.5,-7.4 -31,-6.7 -26.5,-0.25 -20.95,3.05 -14.35,3.25 -9.7,-4.2 -5.7,-10.9 -2.4,-16.85 -10.55,-20.4 -18.85,-23.55 -27.3,-26.35 -28.2,-24.3 -27.5,-21.75 -25.25,-18.75 -22.6,-15.2 -19.95,-12.45 -17.3,-10.6 L-31.15,-8.9z M-15.95,5.75 L-16.6,6.7 -14.75,6.65 -15.95,5.75z M-3.15,-15 C-3.75,-13.4 -3.95,-12.45 -3.7,-12.1 L-3.65,-12.3 C-3.8,-12.65 -3.65,-13.55 -3.15,-15z"/>
            <path id="path2803" fill="#FBFBFB" fill-opacity="1" d="M-26.6,-4.8 L-26.6,-4.9 -26.65,-4.9 -26.6,-4.8"/>
          </g>
        </g>
      </g>
    </g>
  </g>
</svg>