<?xml version="1.0" encoding="utf-8"?>
<!-- Generator: flash2svg, http://dissentgraphics.com/tools/flash2svg -->
<svg xmlns:xlink="http://www.w3.org/1999/xlink" id="sprite.__202781.__20(Acc).__2F91" image-rendering="optimizeSpeed" baseProfile="basic" version="1.1" style="background-color:#ffffff" x="0px" y="0px" width="550px" height="400px" viewBox="0 0 550 400" enable-background="new 0 0 550 400" xmlns="http://www.w3.org/2000/svg">
  <defs transform="matrix(1 0 0 1 0 0) "/>
  <g id="sprite.__202781.__20(Acc).__2F91">
    <g id="Layer.__244">
      <g id="Graphic.__2Fshape.__202729_1" overflow="visible">
        <g id="Layer.__995">
          <g id="shape1649">
            <path id="path3434" fill="#000000" fill-opacity="1" d="M76.95,106.65 L76.4,106.4 70.45,104.85 69.05,104.75 67.85,105.5 C67.5,105.85 67.3,106.3 67.25,106.75 L66.8,110.45 C60.95,110.6 56.05,111.05 52.05,111.9 48.1,112.75 43.55,114.2 38.35,116.35 38.8,112.15 38.8,109.75 38.4,109.15 38.05,108.7 36.3,108.65 33.15,109.1 29.95,109.55 27.9,110.2 27,110.95 24.9,112.75 23.5,114.8 22.85,117.1 18.25,117.95 14.1,120.45 10.35,124.6 5.85,129.6 4.1,134.4 5.1,139.05 L12.6,138.5 20.1,137.55 C17.65,146.7 16.75,155.85 17.35,165 15.8,167.7 16.05,169.7 18.05,171 19.2,172.15 21.65,172.65 25.4,172.5 30.9,172.25 35.2,170.75 38.3,168.05 L43.4,173.7 43.55,173.85 C49.55,179.4 54.75,181.8 59.1,181 63.45,180.55 67.95,176.6 72.6,169.05 L72.7,168.9 76.6,161.2 77.85,161.95 C81.45,164.1 83.85,165.2 85.1,165.25 86.25,165.4 87,165.25 87.35,164.8 88.65,164.15 88.9,163.05 88.05,161.45 L86.95,160 C88.05,150.7 86.8,140.9 83.2,130.6 L90.9,127.3 91.95,126.4 92.35,125.1 C92.35,124.65 92.2,124.2 91.95,123.8 90,120.85 88.35,118.5 87,116.85 84.65,113.9 82.3,112.15 79.95,111.5 79.35,109.05 78.35,107.4 76.95,106.65z M75.8,109.9 C76.65,111.55 76.85,112.55 76.4,112.9 75.8,113.35 75.5,113.7 75.55,113.9 75.6,114.25 76.35,114.45 77.9,114.5 L82.95,117.5 C86.15,119.9 87.85,122.55 88,125.5 85.05,127.1 82.75,127.95 81.15,128.1 L77,127.85 76.1,127.45 C75.8,124.3 75.5,122 75.2,120.55 L75.2,120.6 C74.65,117.6 73.35,114.75 71.4,112.1 L71,108.2 75.8,109.9z M70.55,121.5 L71.35,127.65 C65.3,130.5 59.7,132.2 54.6,132.75 49.3,133.3 43.45,132.8 37.05,131.2 L38.05,121.6 C43.35,119.25 48.1,117.65 52.25,116.75 56.6,115.8 61.75,115.25 67.75,115.2 69.15,117.15 70.1,119.2 70.55,121.45 L70.55,121.5z M78.75,132.2 C82,141.55 83.2,150.5 82.25,159 L80.25,157.85 80.3,157.9 76.9,155.85 76.8,155.8 76.7,155.75 76.65,155.7 69.6,151.5 C65.75,149.05 61.3,148.15 56.15,148.8 54.05,148.65 50.2,150.7 44.6,155.05 42.1,157 39.5,159.6 36.75,162.8 L36.2,163.45 36.2,163.5 C33.75,166.1 30.1,167.5 25.2,167.75 L21.1,167.35 21.75,166.85 C22.05,166.4 22.2,165.9 22.15,165.4 21.5,156.3 22.4,147.2 24.85,138.15 L33.65,136.45 C34.1,136.35 34.45,136.2 34.75,135.95 47.9,139.15 60.7,137.85 73.1,132.05 L73.9,132.2 78.75,132.2z M26.3,121.1 C25.95,120.2 25.8,119.55 25.9,119.2 26.5,116.45 27.65,114.45 29.35,113.3 L35.65,111.65 C34.7,121.25 33.55,128.1 32.3,132.15 30.5,132.9 26.5,133.6 20.35,134.15 L7.9,135.4 C9.65,130.85 12.25,127.35 15.65,124.85 18.75,122.6 21.25,121.4 23.2,121.2 L26.3,121.1z M67.15,155.55 L72.5,158.75 68.45,166.65 C64.9,172.45 61.55,175.65 58.45,176.3 55.3,176.55 51.45,174.65 46.9,170.5 L46.85,170.45 46.75,170.35 41.55,164.6 C43.6,162.25 45.6,160.3 47.5,158.8 L47.55,158.75 C51.85,155.4 54.7,153.7 56.15,153.55 L56.5,153.5 C60.55,152.95 64.05,153.65 67.1,155.55 L67.15,155.55z M17,172.75 L15.15,172.8 C14.55,173.05 14.15,173.5 13.95,174.15 12.55,177.85 11.5,181.1 10.8,183.85 L10.5,183.95 C9.9,184.2 9.5,184.65 9.3,185.3 6.05,194.05 4.55,200.2 4.9,203.75 L6.05,206.4 24.45,203.6 25.85,202.8 C26.2,202.35 26.4,201.8 26.4,201.25 L26.4,192.95 29.1,192.45 C29.65,192.3 30.15,192.05 30.5,191.65 L31.05,190.1 31.05,179.55 C31.05,179.05 30.9,178.6 30.6,178.2 30.3,177.8 29.95,177.5 29.5,177.35 L17,172.75z M17.6,178 L26.3,181.2 26.3,188.15 24.75,188.45 15.4,185 C15.95,182.95 16.65,180.6 17.6,178z M21.65,192.35 L21.65,199.3 9.7,201.55 C9.95,198.7 11.05,194.55 12.95,189.15 L21.65,192.35z M78.55,188.2 C78.9,188.65 79.35,188.9 79.9,189.05 L82.65,189.55 82.65,197.85 C82.6,198.4 82.8,198.95 83.2,199.4 83.55,199.85 84.05,200.1 84.6,200.2 96.5,202.3 102.65,203.25 103,203 103.35,202.75 103.75,201.9 104.15,200.35 104.45,196.8 103,190.65 99.75,181.9 99.5,181.25 99.1,180.8 98.5,180.55 L98.25,180.45 C97.5,177.7 96.45,174.45 95.1,170.75 94.85,170.1 94.45,169.65 93.85,169.4 L92.05,169.35 79.55,173.95 C79.1,174.1 78.7,174.4 78.4,174.8 78.1,175.2 77.95,175.65 78,176.15 L78,186.7 C78,187.25 78.2,187.75 78.55,188.2z M93.65,181.6 L84.25,185.05 82.75,184.75 82.75,177.8 91.45,174.6 93.65,181.6z M87.4,188.95 L96.1,185.75 C97.95,191.15 99.05,195.3 99.35,198.15 L87.4,195.9 87.4,188.95z"/>
            <path id="path3435" fill="#663300" fill-opacity="1" d="M75.8,109.9 L71,108.2 71.4,112.1 C73.35,114.75 74.65,117.6 75.2,120.6 L75.2,120.55 C75.5,122 75.8,124.3 76.1,127.45 L77,127.85 81.15,128.1 C82.75,127.95 85.05,127.1 88,125.5 87.85,122.55 86.15,119.9 82.95,117.5 L77.9,114.5 C76.35,114.45 75.6,114.25 75.55,113.9 75.5,113.7 75.8,113.35 76.4,112.9 76.85,112.55 76.65,111.55 75.8,109.9z"/>
            <path id="path3436" fill="#663300" fill-opacity="1" d="M70.55,121.5 L70.55,121.45 C70.1,119.2 69.15,117.15 67.75,115.2 61.75,115.25 56.6,115.8 52.25,116.75 48.1,117.65 43.35,119.25 38.05,121.6 L37.05,131.2 C43.45,132.8 49.3,133.3 54.6,132.75 59.7,132.2 65.3,130.5 71.35,127.65 L70.55,121.5z"/>
            <path id="path3437" fill="#663300" fill-opacity="1" d="M78.75,132.2 L73.9,132.2 73.1,132.05 C60.7,137.85 47.9,139.15 34.75,135.95 34.45,136.2 34.1,136.35 33.65,136.45 L24.85,138.15 C22.4,147.2 21.5,156.3 22.15,165.4 22.2,165.9 22.05,166.4 21.75,166.85 L21.1,167.35 25.2,167.75 C30.1,167.5 33.75,166.1 36.2,163.5 L36.2,163.45 36.75,162.8 C39.5,159.6 42.1,157 44.6,155.05 50.2,150.7 54.05,148.65 56.15,148.8 61.3,148.15 65.75,149.05 69.6,151.5 L76.65,155.7 76.7,155.75 76.8,155.8 76.9,155.85 80.3,157.9 80.25,157.85 82.25,159 C83.2,150.5 82,141.55 78.75,132.2z"/>
            <path id="path3438" fill="#663300" fill-opacity="1" d="M26.3,121.1 L23.2,121.2 C21.25,121.4 18.75,122.6 15.65,124.85 12.25,127.35 9.65,130.85 7.9,135.4 L20.35,134.15 C26.5,133.6 30.5,132.9 32.3,132.15 33.55,128.1 34.7,121.25 35.65,111.65 L29.35,113.3 C27.65,114.45 26.5,116.45 25.9,119.2 25.8,119.55 25.95,120.2 26.3,121.1z"/>
            <path id="path3439" fill="#663300" fill-opacity="1" d="M67.15,155.55 L67.1,155.55 C64.05,153.65 60.55,152.95 56.5,153.5 L56.15,153.55 C54.7,153.7 51.85,155.4 47.55,158.75 L47.5,158.8 C45.6,160.3 43.6,162.25 41.55,164.6 L46.75,170.35 46.85,170.45 46.9,170.5 C51.45,174.65 55.3,176.55 58.45,176.3 61.55,175.65 64.9,172.45 68.45,166.65 L72.5,158.75 67.15,155.55z"/>
            <path id="path3440" fill="#663300" fill-opacity="1" d="M17.6,178 C16.65,180.6 15.95,182.95 15.4,185 L24.75,188.45 26.3,188.15 26.3,181.2 17.6,178z"/>
            <path id="path3441" fill="#663300" fill-opacity="1" d="M21.65,192.35 L12.95,189.15 C11.05,194.55 9.95,198.7 9.7,201.55 L21.65,199.3 21.65,192.35z"/>
            <path id="path3442" fill="#663300" fill-opacity="1" d="M93.65,181.6 L91.45,174.6 82.75,177.8 82.75,184.75 84.25,185.05 93.65,181.6z"/>
            <path id="path3443" fill="#663300" fill-opacity="1" d="M87.4,188.95 L87.4,195.9 99.35,198.15 C99.05,195.3 97.95,191.15 96.1,185.75 L87.4,188.95z"/>
          </g>
        </g>
      </g>
    </g>
  </g>
</svg>