<?xml version="1.0" encoding="utf-8"?>
<!-- Generator: flash2svg, http://dissentgraphics.com/tools/flash2svg -->
<svg xmlns:xlink="http://www.w3.org/1999/xlink" id="sprite.__202781.__20(Acc).__2F95" image-rendering="optimizeSpeed" baseProfile="basic" version="1.1" style="background-color:#ffffff" x="0px" y="0px" width="550px" height="400px" viewBox="0 0 550 400" enable-background="new 0 0 550 400" xmlns="http://www.w3.org/2000/svg">
  <defs transform="matrix(1 0 0 1 0 0) "/>
  <g id="sprite.__202781.__20(Acc).__2F95">
    <g id="Layer.__248">
      <g id="Graphic.__2Fshape.__202737_1" overflow="visible">
        <g id="Layer.__1055">
          <g id="shape1709">
            <path id="path3656" fill="none" stroke="#000000" stroke-opacity="1" stroke-width="4" stroke-linecap="round" stroke-linejoin="round" d="M65.4,121.55 C61.55,130.9 55.5,136.9 47.15,139.55 46.5,136.7 45.7,133.95 44.8,131.3 43.35,127.05 41.75,123.35 39.9,120.1 37.95,120.95 34.75,120.75 30.4,119.45 L31.4,108.05 C42.75,110.3 55.15,110 68.65,107.05 L71.4,119.8 65.4,121.55z"/>
            <path id="path3657" fill="#333333" fill-opacity="1" d="M49.9,131.3 L44.8,131.3 C45.7,133.95 46.5,136.7 47.15,139.55 55.5,136.9 61.55,130.9 65.4,121.55 65.55,119.95 65.7,118.95 65.85,118.5 L55.15,119.55 C59,120 62.55,119.65 65.85,118.5 67,115.05 67.95,111.25 68.65,107.05 55.15,110 42.75,110.3 31.4,108.05 34.5,111.5 37.35,115.5 39.9,120.1 41.75,123.35 43.35,127.05 44.8,131.3"/>
            <path id="path3658" fill="none" stroke="#000000" stroke-opacity="1" stroke-width="2" stroke-linecap="round" stroke-linejoin="round" d="M49.9,131.3 L44.8,131.3"/>
            <path id="path3659" fill="none" stroke="#000000" stroke-opacity="1" stroke-width="4" stroke-linecap="round" stroke-linejoin="round" d="M44.8,131.3 C45.7,133.95 46.5,136.7 47.15,139.55 55.5,136.9 61.55,130.9 65.4,121.55 65.55,119.95 65.7,118.95 65.85,118.5"/>
            <path id="path3660" fill="none" stroke="#000000" stroke-opacity="1" stroke-width="2" stroke-linecap="round" stroke-linejoin="round" d="M55.15,119.55 C59,120 62.55,119.65 65.85,118.5"/>
            <path id="path3661" fill="none" stroke="#000000" stroke-opacity="1" stroke-width="4" stroke-linecap="round" stroke-linejoin="round" d="M65.85,118.5 C67,115.05 67.95,111.25 68.65,107.05 55.15,110 42.75,110.3 31.4,108.05 34.5,111.5 37.35,115.5 39.9,120.1 41.75,123.35 43.35,127.05 44.8,131.3"/>
            <path id="path3662" fill="#333333" fill-opacity="1" d="M65.85,118.5 C65.7,118.95 65.55,119.95 65.4,121.55 L71.4,119.8 68.65,107.05 C67.95,111.25 67,115.05 65.85,118.5z M39.9,120.1 C37.35,115.5 34.5,111.5 31.4,108.05 L30.4,119.45 C34.75,120.75 37.95,120.95 39.9,120.1z"/>
            <path id="path3663" fill="none" stroke="#000000" stroke-opacity="1" stroke-width="4" stroke-linecap="round" stroke-linejoin="round" d="M65.85,118.5 C65.7,118.95 65.55,119.95 65.4,121.55 L71.4,119.8 68.65,107.05 C67.95,111.25 67,115.05 65.85,118.5z"/>
            <path id="path3664" fill="none" stroke="#000000" stroke-opacity="1" stroke-width="4" stroke-linecap="round" stroke-linejoin="round" d="M39.9,120.1 C37.35,115.5 34.5,111.5 31.4,108.05 L30.4,119.45 C34.75,120.75 37.95,120.95 39.9,120.1z"/>
          </g>
        </g>
      </g>
    </g>
  </g>
</svg>