<?xml version="1.0" encoding="utf-8"?>
<!-- Generator: flash2svg, http://dissentgraphics.com/tools/flash2svg -->
<svg xmlns:xlink="http://www.w3.org/1999/xlink" id="sprite.__202781.__20(Acc).__2F96" image-rendering="optimizeSpeed" baseProfile="basic" version="1.1" style="background-color:#ffffff" x="0px" y="0px" width="550px" height="400px" viewBox="0 0 550 400" enable-background="new 0 0 550 400" xmlns="http://www.w3.org/2000/svg">
  <defs transform="matrix(1 0 0 1 0 0) "/>
  <g id="sprite.__202781.__20(Acc).__2F96">
    <g id="Layer.__249">
      <g id="Graphic.__2Fshape.__202739_1" overflow="visible">
        <g id="Layer.__1070">
          <g id="shape1724">
            <path id="path3714" fill="#000000" fill-opacity="1" d="M8.85,-5.4 Q6.85,-5.4 6.15,-4.8 L6.15,3.35 C7.4,11 8.4,16.8 9.2,20.75 10.45,26.9 11.7,30.35 12.95,31.15 L12.85,37.6 C12.85,45.75 12.9,50.55 13.05,51.95 L13.45,55.9 C11.7,55.15 9.8,54.15 7.75,52.85 L1.4,48.5 C0.45,48.45 -0.15,48.6 -0.3,48.85 -0.5,49.1 -0.6,49.7 -0.55,50.75 4.7,57.25 9.65,60.9 14.35,61.65 15.3,66.4 16.7,70.8 18.55,74.85 19.4,76.8 20.4,78.65 21.45,80.4 L22.25,81.75 C32.45,97.6 50.35,105.55 76,105.55 77.15,105.55 78.3,105.35 79.4,104.9 L79.8,104.75 C104.9,104.65 125.5,100.65 141.6,92.75 147.4,89.9 152.05,86.85 155.55,83.5 158.45,80.7 159.9,78.5 159.9,76.95 159.9,74.5 158.7,71.7 156.25,68.55 154.7,66.6 152,63.7 148.05,59.85 L143.15,54.9 142.6,54.3 139.5,50.85 C136.8,47.5 135.25,44.45 134.9,41.7 L132.9,23.2 C132.25,18.95 131.35,15.1 130.2,11.75 L130.25,11.25 C127,3.2 124.15,-3.55 121.7,-8.95 116.5,-20.1 112.85,-25.7 110.7,-25.7 108.8,-25.7 106.85,-23.3 104.9,-18.5 L101.75,-9.7 101.5,-8.95 98.95,-0.9 98.15,0.9 C97.2,2.95 95.2,3.9 92.15,3.7 88.45,3 85.8,2.7 84.15,2.75 70.35,3.3 61.3,4.05 57.05,4.95 L53.3,5.65 45.8,5.95 C41.9,5.95 34.85,4.05 24.6,0.3 L8.85,-5.4z"/>
            <path id="path3715" fill="#FFFFFF" fill-opacity="1" d="M105.9,-8.95 L103.65,-3.2 102.5,1.15 C102.05,2.95 101.25,4.4 100.15,5.55 97.4,8.5 93.1,9.7 87.35,9.15 L80,8.15 72.85,7.85 45.9,10.25 C42.4,10.2 35.8,8.65 26.05,5.5 L10.05,0.1 C13.7,16.4 15.5,25.85 15.5,28.45 L15.45,29.6 C16.1,33.55 16.8,39.25 17.55,46.75 17.9,50.7 18.4,54.25 18.95,57.5 L19.45,60.3 C20.05,63.1 20.7,65.6 21.45,67.8 22.4,72.1 23.3,75.45 24.05,77.8 24.8,77.35 25.7,76.9 26.85,76.4 30.35,74.85 34.65,73.25 39.75,71.65 52.45,67.65 61.85,65.95 67.95,66.5 L70.25,66.9 C70.5,66.5 70.6,66.95 70.6,68.3 70.6,69.15 67.2,71.3 60.35,74.75 L49.9,79.75 C49.3,80 46.55,81.85 41.65,85.3 38.35,87.6 35.95,89.05 34.4,89.6 L36.3,90.75 40.1,92.75 C41.75,90.4 46.5,87.35 54.3,83.5 62.7,79.3 68.75,76.75 72.5,75.85 L74.1,76.3 C74.35,76.5 74.5,77.05 74.5,77.95 74.5,79.3 71.5,83.05 65.55,89.2 L56.15,98.4 C63.1,100.05 70.65,100.85 78.8,100.85 L80.65,101.2 88.65,99.9 115.8,95.9 C132.65,92.85 144.1,89 150.15,84.4 148.2,84.3 147.05,83.55 146.65,82.1 146.4,81.35 146.4,80.55 146.65,79.65 146.65,78 147.25,75.9 148.45,73.45 149.4,71.35 150.45,69.95 151.6,69.3 L145.8,62.1 C145.05,63.35 143.35,64.75 140.8,66.3 138.65,67.6 136.45,68.7 134.25,69.6 132.9,68.35 132.25,67.5 132.25,67.1 132.25,66.15 133.3,64.15 135.45,61 L135.6,60.4 C134.15,59.95 131.75,59.6 128.3,59.45 125.25,59.3 123.45,59 122.9,58.6 128.25,52.5 131.95,49 134.1,48.05 132.1,45.35 131,43.45 130.8,42.4 L130.1,38.4 129.85,38.6 127.45,38.9 C124.1,38.95 121.3,39.95 119,41.9 L111.55,48.5 C110.3,48 109.65,47.1 109.65,45.8 109.65,43.4 111.9,40.85 116.45,38.1 120.55,35.65 123.75,34.4 126,34.45 L129.45,34.65 C126.9,20.55 125.6,12.2 125.55,9.6 L120.95,1.2 115.65,-8.95 C113.4,-13.4 111.75,-16.95 110.7,-19.6 109.65,-18.1 108.45,-15.6 107.05,-12.1 L105.9,-8.95z M108.5,-8.95 C109.25,-10.25 110,-10.9 110.85,-10.85 111.2,-10.85 111.85,-10.2 112.7,-8.95 114.4,-6.35 117.05,-1.1 120.6,6.85 120.6,8.6 116.4,9.45 108.05,9.45 L105.2,9.05 104.95,6.95 C104.95,4.3 105.45,0.9 106.5,-3.2 107.15,-5.75 107.8,-7.7 108.5,-8.95z M81.5,22.3 L81.5,19.95 C81.65,18.65 82.3,18 83.45,18 L84,19.6 85.85,20 C86.5,24.95 87.25,28.85 88.05,31.6 89.35,36.15 91.3,40.3 93.85,44 96.6,48 101.2,52.6 107.75,57.8 L116.65,64.5 116.55,65.45 116.65,65.5 116.45,67.3 C116.6,67.75 116.05,67.95 114.75,68 101.4,68 91.85,61 86.15,47 84.3,42.45 83,37.4 82.2,31.9 81.7,28.65 81.45,25.9 81.5,23.75 L81.5,23 81.5,22.3z M49.5,43.8 C60.9,43.8 68.15,45.9 71.3,50.05 L70.35,51.85 C70.05,52.25 69.5,52.45 68.75,52.45 L66.2,51.75 62.6,50.25 C58.8,48.8 54.55,48.05 49.8,48.05 42.75,48.05 37.55,48.85 34.1,50.4 33.15,50.85 32.2,51.4 31.25,52.1 L29.6,53.15 28.25,52.55 C27.9,52.2 27.7,51.6 27.7,50.75 27.7,47.4 33.3,45.25 44.45,44.2 L49.5,43.8z M37.85,16.3 C37.85,17.55 35.4,19.5 30.55,22.2 26.1,24.65 23.6,25.85 23.05,25.9 21.9,25.85 20,22.95 17.35,17.1 14.9,11.75 13.65,8.75 13.65,8.15 13.65,7.3 13.9,6.45 14.45,5.55 15.1,4.5 15.85,3.95 16.75,3.95 19.5,3.95 23.8,5.8 29.6,9.45 35.1,12.9 37.85,15.2 37.85,16.3z"/>
            <path id="path3716" fill="#BA0101" fill-opacity="1" d="M108.5,-8.95 C107.8,-7.7 107.15,-5.75 106.5,-3.2 105.45,0.9 104.95,4.3 104.95,6.95 L105.2,9.05 108.05,9.45 C116.4,9.45 120.6,8.6 120.6,6.85 117.05,-1.1 114.4,-6.35 112.7,-8.95 111.85,-10.2 111.2,-10.85 110.85,-10.85 110,-10.9 109.25,-10.25 108.5,-8.95z M110.55,-4.1 L110.45,-4 110.45,-4.2 110.55,-4.1z M109.65,4.55 L109.65,4.15 109.7,4.55 109.65,4.55z"/>
            <path id="path3717" fill="#BA0101" fill-opacity="1" d="M81.5,22.3 L81.5,23 81.5,23.75 C81.45,25.9 81.7,28.65 82.2,31.9 83,37.4 84.3,42.45 86.15,47 91.85,61 101.4,68 114.75,68 116.05,67.95 116.6,67.75 116.45,67.3 L116.65,65.5 116.55,65.45 116.65,64.5 107.75,57.8 C101.2,52.6 96.6,48 93.85,44 91.3,40.3 89.35,36.15 88.05,31.6 87.25,28.85 86.5,24.95 85.85,20 L84,19.6 83.45,18 C82.3,18 81.65,18.65 81.5,19.95 L81.5,22.3z"/>
            <path id="path3718" fill="#000000" fill-opacity="1" d="M49.5,43.8 L44.45,44.2 C33.3,45.25 27.7,47.4 27.7,50.75 27.7,51.6 27.9,52.2 28.25,52.55 L29.6,53.15 31.25,52.1 C32.2,51.4 33.15,50.85 34.1,50.4 37.55,48.85 42.75,48.05 49.8,48.05 54.55,48.05 58.8,48.8 62.6,50.25 L66.2,51.75 68.75,52.45 C69.5,52.45 70.05,52.25 70.35,51.85 L71.3,50.05 C68.15,45.9 60.9,43.8 49.5,43.8z M154.25,73.25 C154.9,74.4 155.2,75.3 155.2,75.95 155.2,77.9 154.5,79.8 153.05,81.6 152.6,81.25 151.85,80.95 150.85,80.65 149.85,80.3 149.75,80 150.55,79.75 151,78.8 152.05,76.95 153.7,74.2 L154.25,73.25z"/>
            <path id="path3719" fill="#BA0101" fill-opacity="1" d="M37.85,16.3 C37.85,15.2 35.1,12.9 29.6,9.45 23.8,5.8 19.5,3.95 16.75,3.95 15.85,3.95 15.1,4.5 14.45,5.55 13.9,6.45 13.65,7.3 13.65,8.15 13.65,8.75 14.9,11.75 17.35,17.1 20,22.95 21.9,25.85 23.05,25.9 23.6,25.85 26.1,24.65 30.55,22.2 35.4,19.5 37.85,17.55 37.85,16.3z M143.2,59.05 L142.2,57.95 139.15,54.4 136.45,51.1 134.1,48.05 C131.95,49 128.25,52.5 122.9,58.6 123.45,59 125.25,59.3 128.3,59.45 131.75,59.6 134.15,59.95 135.6,60.4 L135.65,60.4 135.45,61 C133.3,64.15 132.25,66.15 132.25,67.1 132.25,67.5 132.9,68.35 134.25,69.6 136.45,68.7 138.65,67.6 140.8,66.3 143.35,64.75 145.05,63.35 145.8,62.1 L143.5,59.4 143.2,59.05z M135.6,60.4 L135.65,60.4 135.45,61 135.6,60.4z M26.85,76.4 C25.7,76.9 24.8,77.35 24.05,77.8 L24.2,78.4 25.5,81.5 C26.85,84 28.6,85.95 30.8,87.35 L31.2,87.6 34.4,89.6 C35.95,89.05 38.35,87.6 41.65,85.3 46.55,81.85 49.3,80 49.9,79.75 L60.35,74.75 C67.2,71.3 70.6,69.15 70.6,68.3 70.6,66.95 70.5,66.5 70.25,66.9 L67.95,66.5 C61.85,65.95 52.45,67.65 39.75,71.65 34.65,73.25 30.35,74.85 26.85,76.4z M55.2,72.85 L55.2,72.45 55.8,72.35 55.2,72.85z M44.8,94.85 L45.2,94.55 45.65,95.15 44.8,94.85z M45.2,94.55 L45.65,95.15 51.45,97.15 56.15,98.4 65.55,89.2 C71.5,83.05 74.5,79.3 74.5,77.95 74.5,77.05 74.35,76.5 74.1,76.3 L72.5,75.85 C68.75,76.75 62.7,79.3 54.3,83.5 46.5,87.35 41.75,90.4 40.1,92.75 L44.8,94.85 45.2,94.55z M63.4,84 L63.85,83.8 63.45,84.2 63.4,84z"/>
            <path id="path3720" fill="#BA0101" fill-opacity="1" d="M154.25,73.25 L153.7,74.2 C152.05,76.95 151,78.8 150.55,79.75 149.75,80 149.85,80.3 150.85,80.65 151.85,80.95 152.6,81.25 153.05,81.6 154.5,79.8 155.2,77.9 155.2,75.95 155.2,75.3 154.9,74.4 154.25,73.25z M143.15,54.9 C143.1,54.25 143,54.1 142.8,54.35 L142.6,54.3 143.15,54.9z M21.45,80.4 C21.45,80.95 21.5,81.25 21.6,81.35 21.8,81.4 22,81.5 22.25,81.75 L21.45,80.4z"/>
          </g>
        </g>
      </g>
    </g>
  </g>
</svg>