<?xml version="1.0" encoding="UTF-8" standalone="no"?>
<svg xmlns:xlink="http://www.w3.org/1999/xlink" height="720.75px" width="1716.8px" xmlns="http://www.w3.org/2000/svg">
  <g transform="matrix(1, 0, 0, 1, 307.05, 450.35)">
    <use height="137.5" transform="matrix(1.0, 0.0, 0.0, 1.0, -70.4, -72.45)" width="142.35" xlink:href="#shape0"/>
  </g>
  <defs>
    <g id="shape0" transform="matrix(1, 0, 0, 1, 70.4, 72.45)">
      <path d="M32.9 -55.45 Q17.25 -67.05 1.5 -67.75 L0.8 -67.75 0.2 -67.75 Q-15.55 -67.05 -31.2 -55.45 L-25.1 -45.05 Q-19.75 -35.65 -10.2 -20.85 -6.1 -25.9 0.5 -26.65 L1.3 -26.65 Q7.85 -25.9 11.9 -20.85 21.45 -35.65 26.8 -45.05 L32.9 -55.45 M0.8 -72.45 L1.7 -72.45 Q21.4 -71.6 40.95 -57.1 40.0 -55.8 33.3 -44.1 26.6 -32.4 14.7 -13.85 9.6 -20.15 1.45 -21.1 L0.95 -21.1 0.45 -21.1 Q-7.8 -20.15 -12.95 -13.85 -24.85 -32.4 -31.55 -44.1 L-39.2 -57.1 Q-19.65 -71.6 0.05 -72.45 L0.8 -72.45 M11.7 -10.1 Q16.05 -5.7 16.05 0.55 16.05 6.8 11.7 11.15 7.3 15.55 1.05 15.55 L-0.8 15.4 Q-5.85 14.85 -9.55 11.15 -13.95 6.8 -13.95 0.55 -13.95 -5.7 -9.55 -10.1 -5.85 -13.8 -0.8 -14.35 L1.05 -14.45 Q7.3 -14.45 11.7 -10.1 M9.5 -8.85 Q6.0 -12.35 1.0 -12.35 L-0.5 -12.25 Q-4.55 -11.8 -7.5 -8.85 -11.0 -5.35 -11.0 -0.35 -11.0 4.65 -7.5 8.15 -4.55 11.1 -0.5 11.55 L1.0 11.65 Q6.0 11.65 9.5 8.15 13.0 4.65 13.0 -0.35 13.0 -5.35 9.5 -8.85 M71.3 -4.35 Q74.1 19.85 65.05 37.4 L64.7 38.05 64.3 38.8 64.2 38.8 Q53.6 55.4 31.3 65.05 L23.8 51.9 Q17.0 40.25 6.95 20.65 14.95 19.35 19.95 12.8 L20.2 12.4 20.45 11.9 Q23.7 4.35 20.8 -3.2 42.8 -4.3 56.3 -4.2 69.75 -4.2 71.3 -4.35 M61.2 35.15 Q68.45 21.1 66.2 1.75 L54.2 1.85 Q43.4 1.8 25.8 2.65 28.1 8.7 25.5 14.75 L25.3 15.15 25.1 15.45 Q21.15 20.75 14.7 21.75 22.75 37.4 28.2 46.75 L34.2 57.25 Q52.05 49.55 60.5 36.25 L60.6 36.25 60.9 35.65 61.2 35.15 M-54.7 -4.2 Q-41.2 -4.3 -19.2 -3.2 -22.1 4.35 -18.8 11.9 L-18.55 12.4 -18.3 12.8 Q-13.35 19.35 -5.3 20.65 -15.4 40.25 -22.2 51.9 -29.05 63.6 -29.7 65.05 -52.05 55.35 -62.7 38.8 L-63.05 38.15 -63.45 37.4 Q-72.55 19.85 -69.7 -4.35 -68.15 -4.2 -54.7 -4.2 M-23.9 13.75 Q-26.5 7.7 -24.2 1.65 -41.8 0.8 -52.6 0.85 L-64.6 0.75 Q-66.85 20.15 -59.6 34.15 L-59.3 34.75 -59.0 35.25 Q-50.5 48.55 -32.6 56.25 L-26.6 45.75 Q-21.15 36.4 -13.1 20.75 -19.55 19.75 -23.5 14.45 L-23.7 14.15 -23.9 13.75" fill="#000000" fill-rule="evenodd" stroke="none"/>
      <path d="M32.9 -55.45 L26.8 -45.05 Q21.45 -35.65 11.9 -20.85 7.85 -25.9 1.3 -26.65 L0.5 -26.65 Q-6.1 -25.9 -10.2 -20.85 -19.75 -35.65 -25.1 -45.05 L-31.2 -55.45 Q-15.55 -67.05 0.2 -67.75 L0.8 -67.75 1.5 -67.75 Q17.25 -67.05 32.9 -55.45 M9.5 -8.85 Q13.0 -5.35 13.0 -0.35 13.0 4.65 9.5 8.15 6.0 11.65 1.0 11.65 L-0.5 11.55 Q-4.55 11.1 -7.5 8.15 -11.0 4.65 -11.0 -0.35 -11.0 -5.35 -7.5 -8.85 -4.55 -11.8 -0.5 -12.25 L1.0 -12.35 Q6.0 -12.35 9.5 -8.85 M61.2 35.15 L60.9 35.65 60.6 36.25 60.5 36.25 Q52.05 49.55 34.2 57.25 L28.2 46.75 Q22.75 37.4 14.7 21.75 21.15 20.75 25.1 15.45 L25.3 15.15 25.5 14.75 Q28.1 8.7 25.8 2.65 43.4 1.8 54.2 1.85 L66.2 1.75 Q68.45 21.1 61.2 35.15 M-23.9 13.75 L-23.7 14.15 -23.5 14.45 Q-19.55 19.75 -13.1 20.75 -21.15 36.4 -26.6 45.75 L-32.6 56.25 Q-50.5 48.55 -59.0 35.25 L-59.3 34.75 -59.6 34.15 Q-66.85 20.15 -64.6 0.75 L-52.6 0.85 Q-41.8 0.8 -24.2 1.65 -26.5 7.7 -23.9 13.75" fill="#ffff3c" fill-rule="evenodd" stroke="none"/>
    </g>
  </defs>
</svg>
