<?xml version="1.0" encoding="UTF-8" standalone="no"?>
<svg xmlns:xlink="http://www.w3.org/1999/xlink" height="720.75px" width="1716.8px" xmlns="http://www.w3.org/2000/svg">
  <g transform="matrix(1, 0, 0, 1, 307.05, 450.35)">
    <use height="398.85" transform="matrix(1.0, 0.0, 0.0, 1.0, -119.5, -199.5)" width="239.2" xlink:href="#sprite0"/>
  </g>
  <defs>
    <g id="sprite0" transform="matrix(1, 0, 0, 1, 119.6, 199.4)">
      <use height="398.85" transform="matrix(1.0, 0.0, 0.0, 1.0, -119.6, -199.4)" width="239.2" xlink:href="#shape0"/>
    </g>
    <g id="shape0" transform="matrix(1, 0, 0, 1, 119.6, 199.4)">
      <path d="M109.8 -175.8 L105.15 -177.35 Q105.6 -177.0 109.8 -175.8 M109.8 -180.9 L110.3 -175.6 110.45 -173.2 110.6 -164.65 110.45 -153.4 110.5 -144.1 Q89.2 -113.75 86.5 -110.7 87.95 -101.4 87.9 -68.35 L87.6 1.35 Q87.8 10.0 89.25 30.3 90.6 48.95 90.6 59.85 93.1 69.05 105.25 94.45 116.6 118.15 116.6 119.45 116.6 120.75 116.2 121.45 118.55 126.85 119.25 134.9 119.6 138.8 119.6 153.7 119.6 165.3 119.3 168.5 118.75 174.5 117.25 178.1 L117.25 178.2 Q117.25 181.2 110.4 185.6 104.7 189.3 100.75 190.45 48.0 199.45 36.75 199.45 -23.05 199.45 -60.25 195.7 -83.35 193.35 -90.6 190.7 -103.55 186.05 -107.95 184.2 -111.8 182.6 -114.05 181.0 L-115.1 181.45 Q-118.45 178.1 -119.3 168.5 -119.6 165.3 -119.6 153.7 -119.6 138.8 -119.25 134.9 -118.55 126.85 -116.2 121.45 -116.6 120.75 -116.6 119.45 -116.6 118.15 -105.25 94.45 -93.1 69.05 -90.6 59.85 -90.6 48.95 -89.25 30.3 -87.8 10.0 -87.6 1.35 L-87.9 -68.35 Q-87.95 -101.4 -86.45 -110.7 -89.2 -113.75 -110.6 -144.3 L-110.35 -146.9 -109.9 -147.15 -109.6 -147.25 Q-110.2 -150.1 -110.45 -153.4 L-110.6 -164.65 Q-110.6 -176.3 -109.6 -181.9 L-109.3 -183.3 -106.1 -184.05 Q-104.05 -185.05 -99.1 -186.6 -89.85 -189.45 -76.6 -192.15 -40.8 -199.4 -7.25 -199.4 32.3 -199.4 59.7 -194.0 87.05 -188.6 99.6 -184.7 L105.9 -182.5 109.8 -180.9 M112.25 -146.9 L112.1 -145.5 112.0 -145.5 112.25 -146.9 M105.65 -154.15 L105.6 -164.55 105.7 -174.8 91.0 -179.9 Q71.55 -186.7 60.05 -188.5 L39.55 -191.7 Q23.1 -194.15 12.75 -194.15 -69.7 -194.15 -105.1 -179.4 L-106.25 -179.95 Q-105.85 -177.8 -105.7 -175.4 L-105.6 -164.55 -105.7 -149.55 -105.75 -145.6 Q-104.55 -146.9 -104.9 -147.2 -105.6 -147.85 -105.6 -149.55 -105.6 -155.35 -83.1 -161.05 -72.05 -163.85 -57.35 -166.15 L-57.6 -166.65 Q-57.6 -167.3 -49.6 -167.65 L-49.25 -167.4 -46.35 -167.8 -29.1 -169.9 -14.35 -170.2 -14.1 -170.4 -14.0 -170.2 -1.25 -170.4 30.75 -170.35 56.15 -170.2 Q72.05 -169.7 80.6 -167.7 L85.0 -166.85 85.05 -166.4 87.25 -165.4 Q89.45 -164.2 93.65 -162.4 95.7 -161.5 97.75 -159.65 L105.4 -154.15 105.65 -153.95 105.65 -154.15 M105.7 -175.0 L105.7 -175.1 Q103.8 -175.85 105.7 -175.0 M49.65 -60.8 Q59.15 -79.75 67.25 -102.4 L75.25 -121.75 Q79.65 -132.4 80.25 -139.9 L80.15 -158.35 Q80.1 -160.5 80.2 -162.5 65.4 -164.3 27.35 -164.75 27.65 -158.25 27.25 -147.3 27.25 -131.5 17.65 -81.8 21.2 -84.5 30.05 -90.15 44.55 -99.4 45.25 -99.4 47.35 -99.4 48.05 -94.7 48.5 -91.45 48.4 -83.4 48.25 -67.3 49.6 -60.75 L49.6 -60.7 49.65 -60.8 M84.35 -137.95 L89.75 -138.4 Q96.95 -138.4 98.8 -137.35 L98.85 -137.3 Q103.4 -143.15 105.8 -145.6 L105.75 -147.45 94.75 -155.65 Q93.85 -156.3 93.15 -157.3 L92.0 -158.95 Q90.35 -160.7 85.25 -161.7 L85.25 -153.4 Q85.25 -145.6 84.25 -137.95 L84.25 -137.9 84.35 -137.95 M89.75 -133.4 L83.6 -133.5 Q82.2 -125.35 79.65 -117.35 77.75 -111.4 74.3 -103.35 80.35 -103.25 83.25 -102.25 83.55 -108.2 84.05 -111.25 L83.6 -112.4 Q85.7 -120.1 95.9 -133.45 L89.75 -133.4 M67.25 -88.2 Q58.05 -69.4 54.9 -60.05 L54.7 -59.35 56.75 -59.4 Q68.3 -59.4 74.9 -58.9 L81.75 -81.4 82.65 -81.05 Q82.75 -89.9 83.0 -96.4 75.2 -96.45 71.85 -97.9 L67.25 -88.2 M43.1 -92.85 Q37.3 -92.2 30.95 -87.35 22.95 -80.5 17.75 -76.4 L16.65 -76.8 15.25 -69.7 7.0 -28.75 Q3.25 -9.5 3.25 -5.15 3.25 15.0 4.75 33.2 L5.4 42.6 6.25 42.6 Q9.5 42.6 14.2 48.75 L19.75 56.6 Q29.3 66.4 39.55 66.2 L45.2 65.65 Q46.25 65.55 46.75 65.95 47.65 59.0 50.25 50.85 54.25 38.15 54.25 31.45 54.25 27.3 53.9 23.25 L53.9 23.1 Q52.95 11.6 49.25 1.0 46.7 -6.4 45.8 -10.5 44.25 -17.75 44.25 -27.05 44.25 -39.5 45.55 -47.1 L46.7 -52.2 Q42.8 -59.4 42.95 -70.75 44.0 -85.2 43.25 -92.15 L43.25 -92.9 43.1 -92.85 M53.4 -55.3 Q49.25 -41.15 49.25 -26.9 49.25 -17.9 50.8 -11.2 51.6 -7.8 54.25 -0.6 57.55 8.4 58.7 19.4 L61.85 19.05 69.75 18.6 71.3 18.6 Q71.45 -5.8 72.3 -24.3 L50.25 -25.4 50.25 -26.9 Q51.65 -27.1 51.25 -27.4 L50.95 -27.9 Q51.95 -28.4 68.75 -28.4 L72.45 -28.35 Q73.15 -42.85 74.25 -53.4 L70.25 -53.4 60.7 -54.25 53.4 -55.3 M82.45 -60.15 L82.45 -61.3 82.25 -60.15 81.9 -57.9 82.0 -57.85 82.2 -57.8 82.45 -57.7 82.45 -59.55 82.45 -60.15 M82.45 -53.95 Q82.2 -53.75 81.85 -53.65 L81.7 -53.65 81.05 -53.55 80.4 -50.3 Q77.6 -36.65 76.7 -28.3 L82.6 -28.0 82.6 -32.9 82.45 -53.9 82.45 -53.95 M76.25 -22.4 Q76.05 -8.0 76.2 18.7 L82.6 19.3 Q82.4 12.75 82.35 5.6 L82.6 -23.9 76.35 -24.1 76.25 -22.4 M76.2 23.6 L76.25 32.7 76.6 45.15 Q80.55 44.05 83.25 43.6 L84.35 43.75 Q83.25 34.45 82.75 23.35 L76.2 23.6 M55.3 52.8 Q55.75 51.95 66.25 48.35 L71.4 46.7 71.35 43.95 71.25 32.35 71.3 23.6 69.75 23.6 59.05 23.55 59.25 31.2 Q59.25 39.2 55.25 52.65 L55.2 52.85 Q51.25 66.1 51.25 73.2 51.25 76.4 53.15 84.1 55.25 84.7 55.25 85.95 55.25 86.3 53.85 86.95 L54.75 90.45 Q58.25 103.4 58.25 107.7 L58.25 109.4 Q64.75 107.7 70.55 105.65 L77.15 103.1 Q75.05 98.6 73.65 86.05 L73.0 86.1 Q71.6 86.25 68.65 88.0 65.9 89.6 62.25 89.6 57.7 89.6 56.55 88.35 56.25 88.05 56.25 86.85 56.25 84.85 69.95 81.9 L73.2 81.25 72.3 69.1 71.6 52.85 57.75 55.6 55.95 55.0 Q55.25 54.5 55.25 52.85 L55.3 52.8 M46.4 69.4 L46.45 69.05 45.7 69.35 40.25 69.6 Q21.6 69.6 12.25 59.05 10.15 56.7 6.75 51.2 L5.7 49.65 5.75 51.25 Q6.25 64.9 6.25 82.95 L6.2 93.2 Q10.2 90.8 19.7 88.5 L42.75 84.1 Q42.75 83.6 47.35 83.6 46.25 77.65 46.25 73.1 46.25 71.3 46.4 69.4 M76.75 51.75 L77.25 68.35 Q77.25 72.8 76.7 80.6 L90.25 78.6 91.6 78.75 Q87.15 64.7 85.0 48.8 82.35 50.35 76.75 51.75 M111.6 121.1 Q111.6 120.3 111.9 119.65 104.45 109.45 98.95 97.75 96.75 99.35 92.4 101.45 82.95 106.05 68.75 110.35 37.35 119.85 6.0 121.35 L6.0 121.6 Q4.75 122.35 3.75 122.6 L3.5 121.45 -5.75 121.6 Q-71.25 121.6 -90.05 115.35 -95.55 113.55 -99.7 110.0 L-103.75 107.05 Q-106.55 112.0 -109.75 116.65 L-109.1 116.6 Q-61.0 140.35 -52.6 140.35 L1.85 140.05 Q55.65 139.65 62.25 139.1 67.3 138.6 70.0 137.35 73.55 135.95 76.25 135.1 81.05 133.65 86.75 129.85 89.65 127.95 108.25 119.6 L110.75 120.1 111.0 120.35 111.25 121.05 111.25 121.85 111.25 121.95 Q111.25 124.3 102.2 128.65 L87.5 135.85 Q83.35 137.1 79.75 138.45 80.25 139.55 80.25 140.6 L79.0 184.7 76.75 185.45 Q74.25 180.55 74.25 164.7 74.25 147.0 75.85 140.0 L73.25 141.1 71.2 142.35 Q69.2 143.35 66.75 143.6 65.05 143.75 64.5 144.15 63.95 144.6 60.8 144.85 L46.25 145.35 Q48.45 149.2 48.3 157.0 48.15 166.85 49.25 169.85 L49.25 189.2 46.75 190.45 Q44.15 184.2 43.5 174.75 43.25 171.05 43.25 157.85 43.25 148.0 45.05 145.35 L18.25 145.6 18.25 191.2 15.75 192.45 Q13.95 187.2 13.45 180.45 L13.25 167.95 Q13.25 151.75 15.05 145.6 L-1.75 145.6 -8.6 145.6 Q-24.0 145.5 -36.25 145.05 -35.25 145.65 -34.6 146.6 L-34.6 189.2 -37.1 190.45 Q-39.0 186.35 -39.45 179.2 L-39.6 167.45 Q-39.6 150.45 -37.25 145.0 L-64.75 142.85 Q-63.95 146.3 -63.7 151.1 L-63.6 163.35 Q-63.6 179.45 -63.85 187.7 L-66.1 188.45 Q-68.0 183.85 -68.45 176.05 L-68.6 163.2 Q-69.4 154.5 -69.5 149.65 -69.6 145.05 -68.65 142.25 L-75.7 140.75 Q-81.25 139.25 -84.4 136.8 -86.75 134.9 -88.1 134.15 -87.75 137.65 -87.6 143.1 -87.4 150.9 -87.6 158.7 L-87.8 186.6 -84.6 187.95 Q-79.0 190.3 -64.15 190.65 L-42.35 191.2 36.25 193.95 Q55.05 193.95 75.75 189.9 99.55 185.2 112.6 177.05 L112.6 173.6 Q114.6 167.6 114.6 153.35 L111.65 121.9 111.65 121.85 111.6 121.1 M96.9 93.2 Q94.85 88.4 93.1 83.4 L91.3 83.9 76.3 85.75 76.25 86.35 Q76.05 88.55 79.45 94.55 81.45 98.05 82.05 100.9 L88.15 97.75 Q94.4 94.35 96.9 93.2 M50.8 103.6 Q44.95 101.85 42.75 101.85 27.35 101.85 19.15 106.25 L14.45 109.25 Q12.4 110.6 10.75 110.6 L8.25 110.1 7.45 109.65 Q7.25 109.4 7.25 107.85 7.25 105.4 17.25 101.15 27.9 96.6 36.25 96.6 46.9 96.6 51.1 98.7 49.45 93.4 48.4 88.8 L26.75 94.35 6.25 99.6 6.15 99.6 6.05 115.95 Q33.9 115.1 54.9 110.2 L52.65 103.65 50.8 103.6 M98.75 131.6 Q102.55 139.6 104.1 152.15 106.3 170.0 107.25 174.1 L107.25 179.2 104.75 180.45 Q101.05 173.25 98.55 159.55 96.25 147.15 96.25 137.7 96.25 133.5 98.75 131.6 M-55.15 -162.4 Q-69.4 -160.85 -79.55 -158.25 L-83.05 -157.25 Q-81.8 -153.4 -80.7 -148.2 L-54.6 -150.4 -50.1 -149.9 -49.85 -149.65 Q-49.6 -149.5 -49.6 -148.05 -49.6 -146.7 -50.9 -146.5 L-55.95 -146.45 Q-66.35 -146.45 -79.8 -143.4 -78.75 -137.4 -77.85 -129.95 L-72.6 -130.65 -47.1 -133.4 -44.3 -133.05 -45.1 -140.4 Q-45.8 -146.9 -51.8 -156.85 L-55.15 -162.4 M-46.45 -128.0 L-64.6 -126.15 -69.3 -124.65 Q-71.95 -123.85 -77.15 -123.55 -76.3 -114.8 -75.6 -104.3 L-62.6 -104.4 -43.75 -103.5 Q-42.6 -108.8 -42.6 -113.05 -42.6 -116.75 -43.85 -128.9 -44.8 -128.3 -46.45 -128.0 M-39.6 -141.35 Q-37.5 -127.3 -37.6 -113.05 -37.6 -106.05 -40.35 -96.3 -35.25 -95.4 -26.55 -81.9 L-23.1 -98.0 Q-18.35 -118.55 -17.25 -124.25 -16.55 -128.0 -15.5 -136.1 L-15.3 -136.1 Q-14.6 -142.05 -14.6 -146.65 L-16.55 -164.75 -45.95 -163.3 Q-41.8 -156.3 -39.6 -141.35 M21.8 -156.2 Q21.8 -161.2 22.05 -164.8 L9.5 -164.85 Q10.6 -163.2 11.05 -156.35 L21.75 -155.7 21.8 -155.7 21.8 -156.2 M6.7 -156.4 L6.7 -157.1 Q6.95 -163.35 8.0 -164.85 L-0.5 -164.9 -11.85 -164.8 Q-10.3 -160.4 -9.9 -157.35 L-9.75 -155.9 5.75 -156.4 6.7 -156.4 M21.25 -150.4 L11.3 -150.9 11.35 -135.95 17.75 -135.15 18.0 -135.55 Q18.25 -135.6 18.25 -134.05 L18.0 -132.45 Q17.4 -131.9 14.6 -131.9 L11.25 -131.95 11.25 -131.9 Q11.25 -119.8 10.0 -108.6 L14.05 -107.9 Q15.7 -107.45 15.65 -106.8 L15.25 -106.05 15.15 -104.4 Q14.9 -103.85 13.8 -103.65 L9.35 -103.45 8.4 -97.55 Q7.2 -90.75 3.0 -73.8 L9.0 -72.85 9.8 -72.55 13.5 -90.15 19.05 -111.7 Q22.4 -124.45 22.25 -132.9 21.9 -142.8 21.85 -150.5 L21.25 -150.4 M-9.6 -146.3 Q-9.6 -141.85 -10.2 -136.3 L0.25 -136.4 6.9 -136.2 6.85 -137.45 6.65 -151.15 -9.65 -152.45 -9.6 -146.3 M-9.75 -155.45 L-9.7 -155.15 -9.7 -155.4 -9.75 -155.45 M-12.25 -122.95 L-15.15 -109.2 -12.1 -109.4 Q-0.45 -109.4 6.35 -108.9 7.05 -118.05 6.95 -132.15 L-10.6 -133.0 Q-11.25 -128.35 -12.25 -122.95 M-90.6 -126.15 Q-90.6 -127.8 -81.45 -129.35 L-82.6 -134.45 -84.3 -142.35 Q-90.25 -140.9 -91.85 -138.85 L-93.0 -137.15 Q-93.75 -136.15 -95.1 -135.4 -97.6 -136.25 -97.6 -138.9 -97.6 -144.05 -90.7 -146.2 L-85.15 -147.5 -85.6 -152.8 Q-85.6 -155.4 -83.4 -157.15 -96.35 -153.2 -105.75 -145.6 -102.8 -142.55 -96.6 -134.45 L-90.6 -126.1 -90.6 -126.15 M-82.25 -69.85 Q-81.3 -71.1 -81.6 -71.9 -81.3 -72.2 -79.6 -72.55 L-79.6 -72.9 -79.6 -101.25 -82.6 -101.4 -82.6 -102.9 Q-81.1 -103.05 -81.6 -103.35 -82.2 -103.75 -82.05 -103.85 L-79.6 -104.15 -79.6 -113.4 Q-79.6 -117.9 -80.4 -123.4 L-83.6 -123.4 -89.25 -124.0 Q-84.9 -117.15 -83.6 -112.4 L-84.0 -111.25 Q-82.8 -103.1 -82.55 -73.8 L-82.5 -69.85 -82.5 -69.45 -82.25 -69.85 M-71.6 -73.4 Q-59.35 -73.4 -55.85 -71.9 L-55.0 -71.35 -54.1 -73.75 Q-47.6 -90.25 -46.2 -94.6 L-44.6 -99.95 -46.55 -99.9 -75.4 -101.05 Q-74.65 -88.35 -74.15 -73.25 L-71.6 -73.4 M-73.5 -45.4 Q-66.8 -45.4 -65.05 -44.35 -64.6 -44.05 -64.6 -43.05 -64.6 -41.0 -66.05 -40.65 L-73.45 -40.4 -73.3 -17.3 -71.1 -17.4 -65.05 -17.25 -65.6 -25.65 Q-65.6 -42.45 -56.45 -67.55 L-60.1 -67.4 Q-68.65 -67.4 -73.95 -67.55 L-73.85 -62.85 -73.5 -45.4 M-82.4 -68.45 L-82.5 -68.5 -82.5 -68.45 -82.5 -43.95 Q-81.85 -44.4 -79.4 -44.8 L-79.6 -67.9 -82.4 -68.45 M-82.5 -41.3 L-82.6 -32.9 -82.5 -16.3 -79.0 -16.8 -79.35 -40.6 Q-81.95 -40.8 -82.5 -41.3 M-82.45 -42.55 Q-82.25 -43.3 -82.5 -43.75 L-82.5 -42.35 -82.45 -42.55 M-60.6 -25.3 L-59.85 -16.6 -59.1 -16.35 Q-58.35 -16.0 -58.4 -15.55 L-58.6 -15.05 Q-58.6 -13.35 -59.5 -12.85 L-59.1 -8.5 Q-57.6 7.4 -57.6 17.45 -57.6 35.3 -62.3 51.85 -59.95 52.65 -55.45 56.0 L-48.85 60.85 Q-45.85 61.95 -35.1 62.35 -31.45 62.5 -28.95 63.4 -26.6 48.55 -26.6 37.85 -26.6 25.2 -29.1 6.5 -31.6 -12.25 -31.6 -40.15 -31.6 -53.9 -27.95 -74.45 L-33.6 -81.9 Q-37.9 -87.8 -41.9 -91.3 -44.0 -85.0 -49.1 -71.65 -54.65 -57.15 -57.0 -48.6 -60.6 -35.65 -60.6 -25.3 M-7.95 -104.25 L-16.0 -105.45 -18.1 -96.3 Q-20.95 -83.9 -22.85 -73.5 L-22.1 -73.65 -21.5 -73.55 Q-19.45 -74.4 -14.6 -74.4 L-2.2 -74.15 Q0.4 -85.05 4.25 -96.15 5.15 -98.85 5.8 -103.4 L1.75 -103.4 -7.95 -104.25 M-23.35 -70.55 L-22.85 -71.3 -23.2 -71.35 -23.35 -70.55 M-25.35 -37.65 Q-25.6 -36.65 -25.6 -39.15 -25.6 -40.8 -24.3 -41.2 L-21.1 -41.4 Q-19.95 -41.4 -17.2 -40.2 -14.35 -39.0 -12.35 -38.9 L-7.4 -38.65 Q-6.65 -53.35 -3.5 -68.4 L-23.6 -69.15 Q-26.6 -51.55 -26.6 -40.15 -26.6 -30.95 -24.85 -9.5 L-24.1 -0.25 -22.45 20.45 -20.0 20.0 -8.15 18.95 -7.9 9.6 -7.55 -6.45 Q-21.55 -6.85 -24.35 -9.65 L-24.35 -9.55 -24.4 -9.45 -24.4 -9.4 -24.5 -9.35 -24.5 -9.4 -24.6 -11.0 -24.6 -11.15 Q-24.6 -12.95 -24.3 -13.2 L-22.1 -13.4 -7.5 -11.65 -7.6 -25.65 -7.6 -33.4 Q-15.3 -33.6 -18.3 -35.35 -19.8 -36.35 -20.75 -36.75 -22.4 -37.5 -25.35 -37.65 M8.9 -68.6 L8.9 -68.65 8.8 -68.65 1.65 -68.4 Q-1.65 -54.55 -2.85 -44.05 L-3.4 -38.25 0.8 -37.4 1.9 -42.45 6.55 -59.4 8.9 -68.6 M-3.75 -33.4 Q-4.35 -22.9 -3.85 -11.1 L-1.55 -10.7 Q-1.3 -24.0 0.15 -33.5 L-3.75 -33.4 M-1.6 -6.4 L-2.6 -6.4 -3.6 -6.4 -3.6 -5.9 Q-2.95 4.75 -2.9 18.75 L-1.1 19.1 -0.85 19.35 Q-0.6 19.5 -0.6 20.95 -0.6 21.8 -2.9 22.65 -2.9 34.1 -3.3 47.75 L-1.1 47.6 0.8 47.85 -0.55 20.95 -1.6 -4.65 -1.6 -6.4 M-8.85 24.1 Q-16.0 25.5 -22.1 25.6 -21.6 33.7 -21.6 37.85 -21.6 44.35 -21.9 49.85 -21.0 49.45 -19.65 49.15 L-8.55 48.05 -8.6 44.85 -8.25 24.0 -8.85 24.1 M-53.05 74.2 Q-55.6 71.25 -55.6 70.45 -55.6 68.5 -55.3 68.1 -54.9 67.6 -53.1 67.6 -52.6 67.6 -49.1 70.65 -45.35 73.9 -44.6 75.35 -45.35 77.6 -47.6 77.6 -50.1 77.6 -53.05 74.2 M-30.1 70.2 L-30.0 69.6 -30.05 69.6 Q-46.45 69.4 -57.0 62.9 -60.4 60.75 -63.4 57.85 L-64.0 57.2 -64.1 57.6 Q-69.6 73.75 -79.7 88.6 -67.45 88.7 -33.25 93.6 -32.55 83.6 -30.1 70.2 M-25.4 72.6 L-26.45 78.3 -25.45 78.0 Q-20.55 76.8 -8.75 76.0 -7.95 70.4 -8.05 62.9 L-8.4 54.2 -18.6 54.6 -22.2 54.1 -22.8 59.35 Q-23.3 63.15 -25.4 72.6 M-3.45 53.5 L-3.6 57.1 -4.35 72.25 -4.75 75.75 -2.6 75.6 1.3 76.05 Q1.55 65.4 1.4 59.1 L1.05 52.2 -1.85 53.1 -3.45 53.5 M-63.0 6.65 L-64.1 -6.8 -64.6 -12.45 -71.1 -12.4 -73.35 -12.4 -73.55 5.6 -73.1 5.6 Q-65.05 5.6 -63.05 6.65 L-63.0 6.7 -63.0 6.65 M-82.5 -12.6 L-82.35 5.6 -82.35 6.65 -79.0 6.05 -78.65 6.0 -78.95 -12.45 -82.5 -12.6 M-82.35 10.3 Q-82.55 23.4 -83.4 34.4 -83.8 39.35 -84.35 43.85 L-84.55 45.55 -85.0 48.9 -84.1 45.65 -83.65 43.9 -81.65 35.25 -83.3 34.8 -83.4 34.4 -83.1 33.7 Q-82.55 32.7 -82.6 32.1 L-80.95 31.55 Q-78.85 20.25 -78.6 10.55 L-82.35 10.3 M-64.1 10.35 L-73.1 10.6 -73.6 10.6 Q-73.65 22.05 -74.35 30.7 L-72.1 30.6 -63.45 31.2 Q-62.6 24.55 -62.6 17.85 L-62.85 9.4 Q-63.2 10.15 -64.1 10.35 M-67.65 49.8 Q-65.4 42.65 -64.1 35.5 L-72.1 35.6 -74.8 35.6 Q-75.5 42.0 -76.6 46.5 L-77.15 48.6 Q-69.9 48.65 -68.05 49.65 L-67.75 50.0 -67.65 49.8 M-68.9 53.4 L-68.85 53.3 -69.05 53.35 -77.6 53.6 -78.7 53.6 Q-81.0 60.3 -84.85 68.8 L-83.2 69.45 Q-78.75 71.25 -77.7 72.45 -72.4 63.0 -68.9 53.4 M-79.7 75.3 L-81.6 75.6 -87.85 75.25 -92.2 84.0 Q-91.7 83.6 -90.1 83.6 -87.8 83.6 -85.75 85.1 L-79.6 75.65 -79.25 75.1 -79.7 75.3 M-95.1 89.6 L-95.35 89.5 Q-97.9 95.8 -100.9 101.75 -98.3 102.0 -96.5 102.75 -95.95 99.9 -91.3 93.15 L-89.65 90.8 Q-90.8 90.2 -94.75 89.0 L-95.1 89.6 M-89.55 101.55 L-92.9 105.35 Q-89.55 108.05 -87.75 108.85 -75.15 114.5 -32.5 115.75 -33.2 113.6 -33.45 110.7 L-33.55 107.6 -33.6 107.6 Q-34.95 107.6 -37.8 106.1 -40.65 104.6 -42.1 104.6 L-89.35 103.1 Q-89.55 103.0 -89.55 101.55 M-85.1 97.6 Q-41.95 97.6 -35.1 100.6 -34.05 101.05 -33.6 101.9 L-33.6 101.6 -33.45 96.5 -41.6 96.6 Q-55.9 94.7 -67.15 94.15 L-82.75 92.9 -86.4 97.7 -85.1 97.6 M-111.3 121.0 L-111.6 119.6 -111.6 119.25 -111.75 119.5 -111.85 119.65 Q-111.6 120.3 -111.6 121.1 L-114.6 153.35 Q-114.6 167.6 -112.6 173.6 L-112.6 176.0 Q-108.9 177.5 -91.35 185.05 -92.15 180.55 -92.45 174.65 L-92.6 158.85 Q-92.8 149.55 -92.6 142.1 -92.45 136.05 -92.0 132.55 -109.15 126.05 -111.3 121.0 M-7.35 88.6 Q-8.95 94.4 -16.0 105.85 -20.3 112.8 -23.3 115.95 L-5.75 116.1 2.4 116.05 Q0.7 105.5 0.85 91.0 L1.2 79.85 Q-0.3 80.85 -3.7 81.35 L-5.7 81.6 -7.35 88.6 M-21.2 101.45 Q-12.75 88.95 -10.25 82.15 L-27.3 84.5 Q-28.65 96.45 -28.65 112.45 L-21.2 101.45 M-8.6 145.6 Q-5.2 145.6 -5.15 159.55 -5.1 178.1 -4.6 180.45 L-4.6 190.2 -7.1 191.45 Q-8.5 188.6 -10.15 169.95 -11.6 153.65 -11.6 148.35 L-11.35 146.1 -8.6 145.6" fill="#000000" fill-rule="evenodd" stroke="none"/>
      <path d="M-105.7 -149.55 L-105.6 -164.55 -105.7 -175.4 Q-105.85 -177.8 -106.25 -179.95 L-105.1 -179.4 Q-69.7 -194.15 12.75 -194.15 23.1 -194.15 39.55 -191.7 L60.05 -188.5 Q71.55 -186.7 91.0 -179.9 L105.7 -174.8 105.6 -164.55 105.65 -154.15 105.4 -154.15 97.75 -159.65 Q95.7 -161.5 93.65 -162.4 89.45 -164.2 87.25 -165.4 L85.05 -166.4 85.0 -166.85 80.6 -167.7 Q72.05 -169.7 56.15 -170.2 L30.75 -170.35 -1.25 -170.4 -14.0 -170.2 -14.1 -170.4 -14.35 -170.2 -29.1 -169.9 -46.35 -167.8 -49.25 -167.4 -49.6 -167.65 Q-57.6 -167.3 -57.6 -166.65 L-57.35 -166.15 Q-72.05 -163.85 -83.1 -161.05 -105.6 -155.35 -105.6 -149.55 L-105.7 -149.55 M43.1 -92.85 L43.25 -92.15 Q44.0 -85.2 42.95 -70.75 42.8 -59.4 46.7 -52.2 L45.55 -47.1 Q44.25 -39.5 44.25 -27.05 44.25 -17.75 45.8 -10.5 46.7 -6.4 49.25 1.0 52.95 11.6 53.9 23.1 L53.9 23.25 Q54.25 27.3 54.25 31.45 54.25 38.15 50.25 50.85 47.65 59.0 46.75 65.95 46.25 65.55 45.2 65.65 L39.55 66.2 Q29.3 66.4 19.75 56.6 L14.2 48.75 Q9.5 42.6 6.25 42.6 L5.4 42.6 4.75 33.2 Q3.25 15.0 3.25 -5.15 3.25 -9.5 7.0 -28.75 L15.25 -69.7 16.65 -76.8 17.75 -76.4 Q22.95 -80.5 30.95 -87.35 37.3 -92.2 43.1 -92.85 M111.25 121.05 L111.0 120.35 110.75 120.1 108.25 119.6 Q89.65 127.95 86.75 129.85 81.05 133.65 76.25 135.1 73.55 135.95 70.0 137.35 67.3 138.6 62.25 139.1 55.65 139.65 1.85 140.05 L-52.6 140.35 Q-61.0 140.35 -109.1 116.6 L-109.75 116.65 Q-106.55 112.0 -103.75 107.05 L-99.7 110.0 Q-95.55 113.55 -90.05 115.35 -71.25 121.6 -5.75 121.6 L3.5 121.45 3.75 122.6 Q4.75 122.35 6.0 121.6 L6.0 121.35 Q37.35 119.85 68.75 110.35 82.95 106.05 92.4 101.45 96.75 99.35 98.95 97.75 104.45 109.45 111.9 119.65 111.6 120.3 111.6 121.1 L111.25 121.05 M-60.6 -25.3 Q-60.6 -35.65 -57.0 -48.6 -54.65 -57.15 -49.1 -71.65 -44.0 -85.0 -41.9 -91.3 -37.9 -87.8 -33.6 -81.9 L-27.95 -74.45 Q-31.6 -53.9 -31.6 -40.15 -31.6 -12.25 -29.1 6.5 -26.6 25.2 -26.6 37.85 -26.6 48.55 -28.95 63.4 -31.45 62.5 -35.1 62.35 -45.85 61.95 -48.85 60.85 L-55.45 56.0 Q-59.95 52.65 -62.3 51.85 -57.6 35.3 -57.6 17.45 -57.6 7.4 -59.1 -8.5 L-59.5 -12.85 Q-58.6 -13.35 -58.6 -15.05 L-58.4 -15.55 Q-58.35 -16.0 -59.1 -16.35 L-59.85 -16.6 -60.6 -25.3" fill="#aaaaaa" fill-rule="evenodd" stroke="none"/>
      <path d="M49.6 -60.75 Q48.25 -67.3 48.4 -83.4 48.5 -91.45 48.05 -94.7 47.35 -99.4 45.25 -99.4 44.55 -99.4 30.05 -90.15 21.2 -84.5 17.65 -81.8 27.25 -131.5 27.25 -147.3 27.65 -158.25 27.35 -164.75 65.4 -164.3 80.2 -162.5 80.1 -160.5 80.15 -158.35 L80.25 -139.9 Q79.65 -132.4 75.25 -121.75 L67.25 -102.4 Q59.15 -79.75 49.65 -60.8 L49.6 -60.75 M50.8 103.6 L52.65 103.65 54.9 110.2 Q33.9 115.1 6.05 115.95 L6.15 99.6 6.25 99.6 26.75 94.35 48.4 88.8 Q49.45 93.4 51.1 98.7 46.9 96.6 36.25 96.6 27.9 96.6 17.25 101.15 7.25 105.4 7.25 107.85 7.25 109.4 7.45 109.65 L8.25 110.1 10.75 110.6 Q12.4 110.6 14.45 109.25 L19.15 106.25 Q27.35 101.85 42.75 101.85 44.95 101.85 50.8 103.6 M-39.6 -141.35 Q-41.8 -156.3 -45.95 -163.3 L-16.55 -164.75 -14.6 -146.65 Q-14.6 -142.05 -15.3 -136.1 L-15.5 -136.1 Q-16.55 -128.0 -17.25 -124.25 -18.35 -118.55 -23.1 -98.0 L-26.55 -81.9 Q-35.25 -95.4 -40.35 -96.3 -37.6 -106.05 -37.6 -113.05 -37.5 -127.3 -39.6 -141.35 M-85.1 97.6 L-86.4 97.7 -82.75 92.9 -67.15 94.15 Q-55.9 94.7 -41.6 96.6 L-33.45 96.5 -33.6 101.6 -33.6 101.9 Q-34.05 101.05 -35.1 100.6 -41.95 97.6 -85.1 97.6 M-89.55 101.55 Q-89.55 103.0 -89.35 103.1 L-42.1 104.6 Q-40.65 104.6 -37.8 106.1 -34.95 107.6 -33.6 107.6 L-33.55 107.6 -33.45 110.7 Q-33.2 113.6 -32.5 115.75 -75.15 114.5 -87.75 108.85 -89.55 108.05 -92.9 105.35 L-89.55 101.55" fill="#404040" fill-rule="evenodd" stroke="none"/>
      <path d="M-105.7 -149.55 L-105.6 -149.55 Q-105.6 -147.85 -104.9 -147.2 -104.55 -146.9 -105.75 -145.6 L-105.7 -149.55 M84.25 -137.95 Q85.25 -145.6 85.25 -153.4 L85.25 -161.7 Q90.35 -160.7 92.0 -158.95 L93.15 -157.3 Q93.85 -156.3 94.75 -155.65 L105.75 -147.45 105.8 -145.6 Q103.4 -143.15 98.85 -137.3 L98.8 -137.35 Q96.95 -138.4 89.75 -138.4 L84.35 -137.95 84.25 -137.95 M67.25 -88.2 L71.85 -97.9 Q75.2 -96.45 83.0 -96.4 82.75 -89.9 82.65 -81.05 L81.75 -81.4 74.9 -58.9 Q68.3 -59.4 56.75 -59.4 L54.7 -59.35 54.9 -60.05 Q58.05 -69.4 67.25 -88.2 M89.75 -133.4 L95.9 -133.45 Q85.7 -120.1 83.6 -112.4 L84.05 -111.25 Q83.55 -108.2 83.25 -102.25 80.35 -103.25 74.3 -103.35 77.75 -111.4 79.65 -117.35 82.2 -125.35 83.6 -133.5 L89.75 -133.4 M53.4 -55.3 L60.7 -54.25 70.25 -53.4 74.25 -53.4 Q73.15 -42.85 72.45 -28.35 L68.75 -28.4 Q51.95 -28.4 50.95 -27.9 L51.25 -27.4 Q51.65 -27.1 50.25 -26.9 L50.25 -25.4 72.3 -24.3 Q71.45 -5.8 71.3 18.6 L69.75 18.6 61.85 19.05 58.7 19.4 Q57.55 8.4 54.25 -0.6 51.6 -7.8 50.8 -11.2 49.25 -17.9 49.25 -26.9 49.25 -41.15 53.4 -55.3 M82.25 -60.15 L82.45 -60.15 82.45 -59.55 82.45 -57.7 82.2 -57.8 82.0 -57.85 81.9 -57.9 82.25 -60.15 M55.25 52.65 Q59.25 39.2 59.25 31.2 L59.05 23.55 69.75 23.6 71.3 23.6 71.25 32.35 71.35 43.95 71.4 46.7 66.25 48.35 Q55.75 51.95 55.3 52.8 L55.25 52.65 M76.2 23.6 L82.75 23.35 Q83.25 34.45 84.35 43.75 L83.25 43.6 Q80.55 44.05 76.6 45.15 L76.25 32.7 76.2 23.6 M76.25 -22.4 L76.35 -24.1 82.6 -23.9 82.35 5.6 Q82.4 12.75 82.6 19.3 L76.2 18.7 Q76.05 -8.0 76.25 -22.4 M82.45 -53.95 L82.45 -53.9 82.6 -32.9 82.6 -28.0 76.7 -28.3 Q77.6 -36.65 80.4 -50.3 L81.05 -53.55 81.7 -53.65 81.85 -53.65 Q82.2 -53.75 82.45 -53.95 M55.25 52.85 Q55.25 54.5 55.95 55.0 L57.75 55.6 71.6 52.85 72.3 69.1 73.2 81.25 69.95 81.9 Q56.25 84.85 56.25 86.85 56.25 88.05 56.55 88.35 57.7 89.6 62.25 89.6 65.9 89.6 68.65 88.0 71.6 86.25 73.0 86.1 L73.65 86.05 Q75.05 98.6 77.15 103.1 L70.55 105.65 Q64.75 107.7 58.25 109.4 L58.25 107.7 Q58.25 103.4 54.75 90.45 L53.85 86.95 Q55.25 86.3 55.25 85.95 55.25 84.7 53.15 84.1 51.25 76.4 51.25 73.2 51.25 66.1 55.2 52.85 L55.25 52.85 M45.7 69.35 L46.4 69.4 Q46.25 71.3 46.25 73.1 46.25 77.65 47.35 83.6 42.75 83.6 42.75 84.1 L19.7 88.5 Q10.2 90.8 6.2 93.2 L6.25 82.95 Q6.25 64.9 5.75 51.25 L6.75 51.2 Q10.15 56.7 12.25 59.05 21.6 69.6 40.25 69.6 L45.7 69.35 M76.75 51.75 Q82.35 50.35 85.0 48.8 87.15 64.7 91.6 78.75 L90.25 78.6 76.7 80.6 Q77.25 72.8 77.25 68.35 L76.75 51.75 M111.65 121.9 L114.6 153.35 Q114.6 167.6 112.6 173.6 L112.6 177.05 Q99.55 185.2 75.75 189.9 55.05 193.95 36.25 193.95 L-42.35 191.2 -64.15 190.65 Q-79.0 190.3 -84.6 187.95 L-87.8 186.6 -87.6 158.7 Q-87.4 150.9 -87.6 143.1 -87.75 137.65 -88.1 134.15 -86.75 134.9 -84.4 136.8 -81.25 139.25 -75.7 140.75 L-68.65 142.25 Q-69.6 145.05 -69.5 149.65 -69.4 154.5 -68.6 163.2 L-68.45 176.05 Q-68.0 183.85 -66.1 188.45 L-63.85 187.7 Q-63.6 179.45 -63.6 163.35 L-63.7 151.1 Q-63.95 146.3 -64.75 142.85 L-37.25 145.0 Q-39.6 150.45 -39.6 167.45 L-39.45 179.2 Q-39.0 186.35 -37.1 190.45 L-34.6 189.2 -34.6 146.6 Q-35.25 145.65 -36.25 145.05 -24.0 145.5 -8.6 145.6 L-1.75 145.6 15.05 145.6 Q13.25 151.75 13.25 167.95 L13.45 180.45 Q13.95 187.2 15.75 192.45 L18.25 191.2 18.25 145.6 45.05 145.35 Q43.25 148.0 43.25 157.85 43.25 171.05 43.5 174.75 44.15 184.2 46.75 190.45 L49.25 189.2 49.25 169.85 Q48.15 166.85 48.3 157.0 48.45 149.2 46.25 145.35 L60.8 144.85 Q63.95 144.6 64.5 144.15 65.05 143.75 66.75 143.6 69.2 143.35 71.2 142.35 L73.25 141.1 75.85 140.0 Q74.25 147.0 74.25 164.7 74.25 180.55 76.75 185.45 L79.0 184.7 80.25 140.6 Q80.25 139.55 79.75 138.45 83.35 137.1 87.5 135.85 L102.2 128.65 Q111.25 124.3 111.25 121.95 L111.65 121.9 M96.9 93.2 Q94.4 94.35 88.15 97.75 L82.05 100.9 Q81.45 98.05 79.45 94.55 76.05 88.55 76.25 86.35 L76.3 85.75 91.3 83.9 93.1 83.4 Q94.85 88.4 96.9 93.2 M98.75 131.6 Q96.25 133.5 96.25 137.7 96.25 147.15 98.55 159.55 101.05 173.25 104.75 180.45 L107.25 179.2 107.25 174.1 Q106.3 170.0 104.1 152.15 102.55 139.6 98.75 131.6 M-46.45 -128.0 Q-44.8 -128.3 -43.85 -128.9 -42.6 -116.75 -42.6 -113.05 -42.6 -108.8 -43.75 -103.5 L-62.6 -104.4 -75.6 -104.3 Q-76.3 -114.8 -77.15 -123.55 -71.95 -123.85 -69.3 -124.65 L-64.6 -126.15 -46.45 -128.0 M-55.15 -162.4 L-51.8 -156.85 Q-45.8 -146.9 -45.1 -140.4 L-44.3 -133.05 -47.1 -133.4 -72.6 -130.65 -77.85 -129.95 Q-78.75 -137.4 -79.8 -143.4 -66.35 -146.45 -55.95 -146.45 L-50.9 -146.5 Q-49.6 -146.7 -49.6 -148.05 -49.6 -149.5 -49.85 -149.65 L-50.1 -149.9 -54.6 -150.4 -80.7 -148.2 Q-81.8 -153.4 -83.05 -157.25 L-79.55 -158.25 Q-69.4 -160.85 -55.15 -162.4 M21.75 -155.7 L11.05 -156.35 Q10.6 -163.2 9.5 -164.85 L22.05 -164.8 Q21.8 -161.2 21.8 -156.2 L21.75 -155.7 M-9.6 -146.3 L-9.65 -152.45 6.65 -151.15 6.85 -137.45 6.9 -136.2 0.25 -136.4 -10.2 -136.3 Q-9.6 -141.85 -9.6 -146.3 M21.25 -150.4 L21.85 -150.5 Q21.9 -142.8 22.25 -132.9 22.4 -124.45 19.05 -111.7 L13.5 -90.15 9.8 -72.55 9.0 -72.85 3.0 -73.8 Q7.2 -90.75 8.4 -97.55 L9.35 -103.45 13.8 -103.65 Q14.9 -103.85 15.15 -104.4 L15.25 -106.05 15.65 -106.8 Q15.7 -107.45 14.05 -107.9 L10.0 -108.6 Q11.25 -119.8 11.25 -131.9 L11.25 -131.95 14.6 -131.9 Q17.4 -131.9 18.0 -132.45 L18.25 -134.05 Q18.25 -135.6 18.0 -135.55 L17.75 -135.15 11.35 -135.95 11.3 -150.9 21.25 -150.4 M6.7 -156.4 L5.75 -156.4 -9.75 -155.9 -9.9 -157.35 Q-10.3 -160.4 -11.85 -164.8 L-0.5 -164.9 8.0 -164.85 Q6.95 -163.35 6.7 -157.1 L6.7 -156.4 M-90.6 -126.1 L-96.6 -134.45 Q-102.8 -142.55 -105.75 -145.6 -96.35 -153.2 -83.4 -157.15 -85.6 -155.4 -85.6 -152.8 L-85.15 -147.5 -90.7 -146.2 Q-97.6 -144.05 -97.6 -138.9 -97.6 -136.25 -95.1 -135.4 -93.75 -136.15 -93.0 -137.15 L-91.85 -138.85 Q-90.25 -140.9 -84.3 -142.35 L-82.6 -134.45 -81.45 -129.35 Q-90.6 -127.8 -90.6 -126.15 L-90.6 -126.1 M-12.25 -122.95 Q-11.25 -128.35 -10.6 -133.0 L6.95 -132.15 Q7.05 -118.05 6.35 -108.9 -0.45 -109.4 -12.1 -109.4 L-15.15 -109.2 -12.25 -122.95 M-82.5 -69.85 L-82.55 -73.8 Q-82.8 -103.1 -84.0 -111.25 L-83.6 -112.4 Q-84.9 -117.15 -89.25 -124.0 L-83.6 -123.4 -80.4 -123.4 Q-79.6 -117.9 -79.6 -113.4 L-79.6 -104.15 -82.05 -103.85 Q-82.2 -103.75 -81.6 -103.35 -81.1 -103.05 -82.6 -102.9 L-82.6 -101.4 -79.6 -101.25 -79.6 -72.9 -79.6 -72.55 Q-81.3 -72.2 -81.6 -71.9 -81.3 -71.1 -82.25 -69.85 L-82.5 -69.85 M-73.5 -45.4 L-73.85 -62.85 -73.95 -67.55 Q-68.65 -67.4 -60.1 -67.4 L-56.45 -67.55 Q-65.6 -42.45 -65.6 -25.65 L-65.05 -17.25 -71.1 -17.4 -73.3 -17.3 -73.45 -40.4 -66.05 -40.65 Q-64.6 -41.0 -64.6 -43.05 -64.6 -44.05 -65.05 -44.35 -66.8 -45.4 -73.5 -45.4 M-71.6 -73.4 L-74.15 -73.25 Q-74.65 -88.35 -75.4 -101.05 L-46.55 -99.9 -44.6 -99.95 -46.2 -94.6 Q-47.6 -90.25 -54.1 -73.75 L-55.0 -71.35 -55.85 -71.9 Q-59.35 -73.4 -71.6 -73.4 M-82.5 -68.45 L-82.4 -68.45 -79.6 -67.9 -79.4 -44.8 Q-81.85 -44.4 -82.5 -43.95 L-82.5 -68.45 M-82.5 -41.3 Q-81.95 -40.8 -79.35 -40.6 L-79.0 -16.8 -82.5 -16.3 -82.6 -32.9 -82.5 -41.3 M-7.95 -104.25 L1.75 -103.4 5.8 -103.4 Q5.15 -98.85 4.25 -96.15 0.4 -85.05 -2.2 -74.15 L-14.6 -74.4 Q-19.45 -74.4 -21.5 -73.55 L-22.1 -73.65 -22.85 -73.5 Q-20.95 -83.9 -18.1 -96.3 L-16.0 -105.45 -7.95 -104.25 M-25.35 -37.65 Q-22.4 -37.5 -20.75 -36.75 -19.8 -36.35 -18.3 -35.35 -15.3 -33.6 -7.6 -33.4 L-7.6 -25.65 -7.5 -11.65 -22.1 -13.4 -24.3 -13.2 Q-24.6 -12.95 -24.6 -11.15 L-24.6 -11.0 -24.5 -9.4 -24.5 -9.35 -24.4 -9.4 -24.4 -9.45 -24.35 -9.55 -24.35 -9.65 Q-21.55 -6.85 -7.55 -6.45 L-7.9 9.6 -8.15 18.95 -20.0 20.0 -22.45 20.45 -24.1 -0.25 -24.85 -9.5 Q-26.6 -30.95 -26.6 -40.15 -26.6 -51.55 -23.6 -69.15 L-3.5 -68.4 Q-6.65 -53.35 -7.4 -38.65 L-12.35 -38.9 Q-14.35 -39.0 -17.2 -40.2 -19.95 -41.4 -21.1 -41.4 L-24.3 -41.2 Q-25.6 -40.8 -25.6 -39.15 -25.6 -36.65 -25.35 -37.65 M8.8 -68.65 L8.9 -68.6 6.55 -59.4 1.9 -42.45 0.8 -37.4 -3.4 -38.25 -2.85 -44.05 Q-1.65 -54.55 1.65 -68.4 L8.8 -68.65 M-53.05 74.2 Q-50.1 77.6 -47.6 77.6 -45.35 77.6 -44.6 75.35 -45.35 73.9 -49.1 70.65 -52.6 67.6 -53.1 67.6 -54.9 67.6 -55.3 68.1 -55.6 68.5 -55.6 70.45 -55.6 71.25 -53.05 74.2 M-8.85 24.1 L-8.25 24.0 -8.6 44.85 -8.55 48.05 -19.65 49.15 Q-21.0 49.45 -21.9 49.85 -21.6 44.35 -21.6 37.85 -21.6 33.7 -22.1 25.6 -16.0 25.5 -8.85 24.1 M-1.6 -6.4 L-1.6 -4.65 -0.55 20.95 0.8 47.85 -1.1 47.6 -3.3 47.75 Q-2.9 34.1 -2.9 22.65 -0.6 21.8 -0.6 20.95 -0.6 19.5 -0.85 19.35 L-1.1 19.1 -2.9 18.75 Q-2.95 4.75 -3.6 -5.9 L-3.6 -6.4 -2.6 -6.4 -1.6 -6.4 M-3.75 -33.4 L0.15 -33.5 Q-1.3 -24.0 -1.55 -10.7 L-3.85 -11.1 Q-4.35 -22.9 -3.75 -33.4 M-30.05 69.6 L-30.1 70.2 Q-32.55 83.6 -33.25 93.6 -67.45 88.7 -79.7 88.6 -69.6 73.75 -64.1 57.6 L-63.4 57.85 Q-60.4 60.75 -57.0 62.9 -46.45 69.4 -30.05 69.6 M-25.4 72.6 Q-23.3 63.15 -22.8 59.35 L-22.2 54.1 -18.6 54.6 -8.4 54.2 -8.05 62.9 Q-7.95 70.4 -8.75 76.0 -20.55 76.8 -25.45 78.0 L-26.45 78.3 -25.4 72.6 M-63.05 6.65 Q-65.05 5.6 -73.1 5.6 L-73.55 5.6 -73.35 -12.4 -71.1 -12.4 -64.6 -12.45 -64.1 -6.8 -63.0 6.65 -63.05 6.65 M-3.45 53.5 L-1.85 53.1 1.05 52.2 1.4 59.1 Q1.55 65.4 1.3 76.05 L-2.6 75.6 -4.75 75.75 -4.35 72.25 -3.6 57.1 -3.45 53.5 M-68.05 49.65 Q-69.9 48.65 -77.15 48.6 L-76.6 46.5 Q-75.5 42.0 -74.8 35.6 L-72.1 35.6 -64.1 35.5 Q-65.4 42.65 -67.65 49.8 L-68.05 49.65 M-64.1 10.35 Q-63.2 10.15 -62.85 9.4 L-62.6 17.85 Q-62.6 24.55 -63.45 31.2 L-72.1 30.6 -74.35 30.7 Q-73.65 22.05 -73.6 10.6 L-73.1 10.6 -64.1 10.35 M-82.35 10.3 L-78.6 10.55 Q-78.85 20.25 -80.95 31.55 L-82.6 32.1 Q-82.55 32.7 -83.1 33.7 L-83.4 34.4 -83.3 34.8 -81.65 35.25 -83.65 43.9 -84.1 45.65 -85.0 48.9 -84.55 45.55 -84.35 43.85 Q-83.8 39.35 -83.4 34.4 -82.55 23.4 -82.35 10.3 M-82.5 -12.6 L-78.95 -12.45 -78.65 6.0 -79.0 6.05 -82.35 6.65 -82.35 5.6 -82.5 -12.6 M-69.05 53.35 L-68.9 53.4 Q-72.4 63.0 -77.7 72.45 -78.75 71.25 -83.2 69.45 L-84.85 68.8 Q-81.0 60.3 -78.7 53.6 L-77.6 53.6 -69.05 53.35 M-79.7 75.3 L-79.6 75.65 -85.75 85.1 Q-87.8 83.6 -90.1 83.6 -91.7 83.6 -92.2 84.0 L-87.85 75.25 -81.6 75.6 -79.7 75.3 M-95.1 89.6 L-94.75 89.0 Q-90.8 90.2 -89.65 90.8 L-91.3 93.15 Q-95.95 99.9 -96.5 102.75 -98.3 102.0 -100.9 101.75 -97.9 95.8 -95.35 89.5 L-95.1 89.6 M-111.6 121.1 L-111.3 121.0 Q-109.15 126.05 -92.0 132.55 -92.45 136.05 -92.6 142.1 -92.8 149.55 -92.6 158.85 L-92.45 174.65 Q-92.15 180.55 -91.35 185.05 -108.9 177.5 -112.6 176.0 L-112.6 173.6 Q-114.6 167.6 -114.6 153.35 L-111.6 121.1 M-8.6 145.6 L-11.35 146.1 -11.6 148.35 Q-11.6 153.65 -10.15 169.95 -8.5 188.6 -7.1 191.45 L-4.6 190.2 -4.6 180.45 Q-5.1 178.1 -5.15 159.55 -5.2 145.6 -8.6 145.6 M-21.2 101.45 L-28.65 112.45 Q-28.65 96.45 -27.3 84.5 L-10.25 82.15 Q-12.75 88.95 -21.2 101.45 M-7.35 88.6 L-5.7 81.6 -3.7 81.35 Q-0.3 80.85 1.2 79.85 L0.85 91.0 Q0.7 105.5 2.4 116.05 L-5.75 116.1 -23.3 115.95 Q-20.3 112.8 -16.0 105.85 -8.95 94.4 -7.35 88.6" fill="#808080" fill-rule="evenodd" stroke="none"/>
      <path d="M111.65 121.85 L111.65 121.9 111.25 121.95 111.65 121.85" fill="#959595" fill-rule="evenodd" stroke="none"/>
    </g>
  </defs>
</svg>
