<?xml version="1.0" encoding="UTF-8" standalone="no"?>
<svg xmlns:xlink="http://www.w3.org/1999/xlink" height="720.75px" width="1716.8px" xmlns="http://www.w3.org/2000/svg">
  <g transform="matrix(1, 0, 0, 1, 307.05, 450.35)">
    <use height="183.75" transform="matrix(1.0, 0.0, 0.0, 1.0, -74.5, -102.45)" width="153.25" xlink:href="#shape0"/>
  </g>
  <defs>
    <g id="shape0" transform="matrix(1, 0, 0, 1, 74.5, 102.45)">
      <path d="M22.25 71.65 L22.45 71.5 Q26.25 68.35 31.65 58.75 L33.95 54.5 38.15 46.05 40.15 41.8 45.75 29.05 46.3 27.7 Q62.25 -10.25 62.25 -24.9 62.0 -30.45 59.5 -35.95 54.45 -46.95 43.2 -46.95 31.85 -46.95 24.95 -39.15 21.65 -35.4 14.95 -22.0 9.0 -10.1 2.85 -4.9 -6.4 2.9 -21.8 2.9 -45.6 2.9 -60.25 -16.1 -65.25 -22.65 -68.35 -30.35 -70.75 -36.45 -70.75 -39.35 -70.75 -45.7 -67.05 -54.45 -63.15 -63.7 -56.45 -72.35 -40.0 -93.55 -17.75 -98.6 38.6 -95.2 60.7 -72.95 75.0 -58.5 75.0 -34.7 75.0 -23.4 71.95 -9.05 68.6 6.8 62.45 21.5 L57.9 31.45 52.15 41.8 49.4 46.05 Q44.55 53.15 39.05 58.75 L34.15 63.4 Q28.7 68.1 22.7 71.5 L22.3 71.75 22.25 71.65" fill="#ffffff" fill-opacity="0.7529412" fill-rule="evenodd" stroke="none"/>
      <path d="M16.9 -18.05 Q10.5 -6.2 4.7 -0.95 -3.9 6.8 -16.55 6.8 -47.15 6.8 -63.55 -14.25 -69.1 -21.3 -72.2 -29.85 -74.5 -36.1 -74.5 -39.35 -74.5 -43.1 -71.35 -52.1 -67.25 -63.65 -60.8 -73.45 -41.8 -102.45 -11.8 -102.45 7.05 -102.45 29.95 -94.2 54.8 -85.9 65.2 -74.45 78.75 -59.4 78.75 -34.7 78.75 -20.65 74.9 -6.25 73.3 -0.35 65.0 23.8 63.1 29.25 58.05 38.2 L57.9 38.5 53.65 45.95 53.6 46.05 49.7 53.05 Q48.4 55.65 45.35 58.75 41.3 62.95 34.15 68.1 L29.95 71.0 29.2 71.5 Q14.6 81.3 10.45 81.3 8.5 81.3 8.5 79.55 8.5 79.1 16.65 71.5 L17.4 70.8 Q23.85 64.3 27.6 58.75 L30.1 54.5 30.7 53.3 34.0 46.05 35.9 41.8 41.15 29.05 41.75 27.4 Q45.65 16.15 53.05 0.25 58.5 -12.9 58.5 -24.7 58.5 -29.1 55.75 -34.45 51.4 -42.95 42.7 -42.95 33.65 -42.95 27.15 -35.2 24.15 -31.6 16.9 -18.05 M22.3 71.75 L22.7 71.5 Q28.7 68.1 34.15 63.4 L39.05 58.75 Q44.55 53.15 49.4 46.05 L52.15 41.8 57.9 31.45 62.45 21.5 Q68.6 6.8 71.95 -9.05 75.0 -23.4 75.0 -34.7 75.0 -58.5 60.7 -72.95 38.6 -95.2 -17.75 -98.6 -40.0 -93.55 -56.45 -72.35 -63.15 -63.7 -67.05 -54.45 -70.75 -45.7 -70.75 -39.35 -70.75 -36.45 -68.35 -30.35 -65.25 -22.65 -60.25 -16.1 -45.6 2.9 -21.8 2.9 -6.4 2.9 2.85 -4.9 9.0 -10.1 14.95 -22.0 21.65 -35.4 24.95 -39.15 31.85 -46.95 43.2 -46.95 54.45 -46.95 59.5 -35.95 62.0 -30.45 62.25 -24.9 62.25 -10.25 46.3 27.7 L45.75 29.05 40.15 41.8 38.15 46.05 33.95 54.5 31.65 58.75 Q26.25 68.35 22.45 71.5 L22.25 71.65 22.0 71.9 22.3 71.75" fill="#000000" fill-rule="evenodd" stroke="none"/>
    </g>
  </defs>
</svg>
