<?xml version="1.0" encoding="UTF-8" standalone="no"?>
<svg xmlns:xlink="http://www.w3.org/1999/xlink" height="720.75px" width="1716.8px" xmlns="http://www.w3.org/2000/svg">
  <g transform="matrix(1, 0, 0, 1, 307.05, 450.35)">
    <use height="154.85" transform="matrix(1.0, 0.0, 0.0, 1.0, -86.35, -77.9)" width="172.75" xlink:href="#sprite0"/>
  </g>
  <defs>
    <g id="sprite0" transform="matrix(1, 0, 0, 1, 86.35, 77.4)">
      <use height="154.85" transform="matrix(1.0, 0.0, 0.0, 1.0, -86.35, -77.4)" width="172.75" xlink:href="#shape0"/>
    </g>
    <g id="shape0" transform="matrix(1, 0, 0, 1, 86.35, 77.4)">
      <path d="M77.0 -59.5 Q78.8 -66.6 80.35 -70.7 L80.4 -70.85 80.45 -70.95 80.6 -71.35 Q78.2 -70.15 74.65 -68.65 L64.05 -64.45 59.9 -62.95 59.5 -62.8 44.9 -57.45 33.2 -53.05 28.65 -51.15 Q21.5 -46.6 14.5 -37.9 L13.35 -36.5 3.45 -23.85 1.85 -21.9 -1.1 -18.4 -1.7 -17.7 -12.3 -5.95 -12.95 -5.2 -24.7 7.8 -36.5 20.8 -38.5 23.0 -49.75 35.25 Q-56.75 42.65 -59.65 45.25 -56.35 48.55 -52.6 53.6 L-52.6 53.7 -52.55 53.65 -47.7 50.35 Q-43.55 47.7 -37.15 44.1 L-23.1 36.35 -20.65 35.05 -8.4 28.55 12.55 17.55 13.4 17.1 23.95 10.4 25.05 9.7 44.9 -3.1 55.6 -10.05 68.4 -18.4 68.45 -18.4 Q68.5 -19.65 68.9 -21.9 69.65 -26.5 71.55 -35.35 L74.2 -47.65 77.0 -59.5 M81.0 -77.1 L81.9 -77.4 84.9 -76.9 85.15 -76.65 85.35 -76.3 86.1 -75.95 Q86.4 -75.6 86.4 -73.65 86.4 -72.1 80.95 -48.75 L80.15 -45.35 75.05 -24.2 75.05 -24.15 74.5 -22.0 Q73.85 -18.15 70.3 -13.65 67.45 -10.45 57.35 -3.6 52.8 -0.55 46.85 3.25 L25.05 16.55 16.9 21.35 13.9 23.1 -7.65 35.5 -19.15 42.15 -22.85 44.25 -35.45 51.45 -46.0 57.1 Q-51.0 59.6 -52.1 59.6 L-52.85 59.45 -53.85 74.6 Q-53.6 75.6 -56.1 75.6 -58.35 75.6 -63.4 65.3 -75.5 75.65 -77.8 76.65 -80.15 77.6 -80.4 77.45 L-81.35 75.75 Q-86.15 67.65 -86.35 65.3 -86.55 62.95 -80.1 57.6 L-70.5 49.65 Q-73.6 42.35 -73.6 41.35 L-73.35 39.1 -70.6 38.6 Q-67.5 38.6 -63.45 41.8 -60.55 37.8 -50.45 26.9 L-39.7 15.5 -39.65 15.4 -38.15 13.85 -26.25 1.35 -25.55 0.65 -25.55 0.6 -14.45 -11.15 -4.45 -21.9 -3.35 -23.15 Q-0.8 -26.05 2.2 -29.95 L10.0 -41.05 12.65 -44.3 Q19.0 -51.65 26.9 -56.15 L31.95 -58.75 43.35 -63.7 Q51.5 -67.0 62.55 -70.85 L72.95 -74.4 81.0 -77.1 M-66.55 58.6 L-68.15 54.95 -81.6 65.85 -79.4 71.75 Q-76.65 69.05 -65.9 60.05 L-66.55 58.6 M-57.6 54.6 Q-60.35 49.7 -65.1 48.85 -63.1 52.2 -58.85 62.6 -57.6 57.1 -57.6 54.6" fill="#000000" fill-rule="evenodd" stroke="none"/>
      <path d="M74.65 -68.65 Q78.2 -70.15 80.6 -71.35 L80.45 -70.95 80.4 -70.85 80.35 -70.7 Q78.8 -66.6 77.0 -59.5 L74.65 -68.65 M71.55 -35.35 Q69.65 -26.5 68.9 -21.9 68.5 -19.65 68.45 -18.4 L68.4 -18.4 55.6 -10.05 54.85 -12.8 52.4 -21.9 49.4 -33.65 Q46.75 -48.9 44.95 -57.2 L44.9 -57.45 59.5 -62.8 59.9 -62.95 64.05 -64.45 Q68.35 -46.5 71.55 -35.35 M44.9 -3.1 L25.05 9.7 23.95 10.4 18.35 -20.25 18.05 -21.9 Q16.15 -31.4 14.5 -37.9 21.5 -46.6 28.65 -51.15 L33.2 -53.05 39.4 -24.25 39.95 -21.9 Q42.65 -10.65 44.9 -3.1 M12.55 17.55 L-8.4 28.55 Q-9.85 14.8 -11.05 6.25 -12.0 -0.35 -12.95 -5.2 L-12.3 -5.95 -1.7 -17.7 -1.1 -18.4 1.85 -21.9 3.45 -23.85 3.9 -21.9 Q9.1 3.2 12.55 17.55 M-20.65 35.05 L-23.1 36.35 -37.15 44.1 Q-38.6 37.55 -38.6 35.85 -38.25 27.5 -38.5 23.0 L-36.5 20.8 -24.7 7.8 -22.05 27.0 -20.65 35.05 M-47.7 50.35 L-52.55 53.65 -52.6 53.6 Q-56.35 48.55 -59.65 45.25 -56.75 42.65 -49.75 35.25 L-48.6 45.25 -47.7 50.35" fill="#ffffff" fill-rule="evenodd" stroke="none"/>
      <path d="M74.65 -68.65 L77.0 -59.5 74.2 -47.65 71.55 -35.35 Q68.35 -46.5 64.05 -64.45 L74.65 -68.65 M55.6 -10.05 L44.9 -3.1 Q42.65 -10.65 39.95 -21.9 L39.4 -24.25 33.2 -53.05 44.9 -57.45 44.95 -57.2 Q46.75 -48.9 49.4 -33.65 L52.4 -21.9 54.85 -12.8 55.6 -10.05 M23.95 10.4 L13.4 17.1 12.55 17.55 Q9.1 3.2 3.9 -21.9 L3.45 -23.85 13.35 -36.5 14.5 -37.9 Q16.15 -31.4 18.05 -21.9 L18.35 -20.25 23.95 10.4 M-8.4 28.55 L-20.65 35.05 -22.05 27.0 -24.7 7.8 -12.95 -5.2 Q-12.0 -0.35 -11.05 6.25 -9.85 14.8 -8.4 28.55 M-37.15 44.1 Q-43.55 47.7 -47.7 50.35 L-48.6 45.25 -49.75 35.25 -38.5 23.0 Q-38.25 27.5 -38.6 35.85 -38.6 37.55 -37.15 44.1 M-66.55 58.6 L-65.9 60.05 Q-76.65 69.05 -79.4 71.75 L-81.6 65.85 -68.15 54.95 -66.55 58.6 M-57.6 54.6 Q-57.6 57.1 -58.85 62.6 -63.1 52.2 -65.1 48.85 -60.35 49.7 -57.6 54.6" fill="#ff2222" fill-rule="evenodd" stroke="none"/>
    </g>
  </defs>
</svg>
