<?xml version="1.0" encoding="UTF-8" standalone="no"?>
<svg xmlns:xlink="http://www.w3.org/1999/xlink" height="720.75px" width="1716.8px" xmlns="http://www.w3.org/2000/svg">
  <g transform="matrix(1, 0, 0, 1, 307.05, 450.35)">
    <use height="259.1" transform="matrix(0.667, 0.7365, -0.7365, 0.667, 98.2342, -195.9555)" width="255.45" xlink:href="#sprite0"/>
  </g>
  <defs>
    <g id="sprite0" transform="matrix(1, 0, 0, 1, 127.7, 129.55)">
      <use height="259.1" transform="matrix(1.0, 0.0, 0.0, 1.0, -127.7, -129.55)" width="255.45" xlink:href="#shape0"/>
    </g>
    <g id="shape0" transform="matrix(1, 0, 0, 1, 127.7, 129.55)">
      <path d="M24.8 -103.55 L28.05 -101.2 28.2 -101.0 28.75 -100.55 28.8 -100.5 29.6 -100.05 29.65 -100.0 46.65 -90.0 Q45.55 -92.35 44.55 -96.4 L44.2 -96.75 44.35 -96.6 44.55 -96.4 44.15 -98.0 44.4 -98.25 Q39.05 -102.0 34.25 -106.05 32.1 -106.0 28.75 -104.75 25.35 -103.5 24.9 -103.65 L24.4 -103.8 24.8 -103.55 M24.7 -99.4 L23.25 -100.3 23.05 -100.45 Q-26.65 -131.0 -70.1 -88.45 -119.95 -39.65 -106.15 29.55 -101.15 54.45 -90.95 69.8 -80.75 85.15 -72.85 85.55 -65.0 85.9 -55.15 72.6 -49.3 66.45 -44.85 66.2 -40.4 65.95 -40.95 73.0 -41.55 79.95 -51.1 93.5 -65.3 113.65 -88.0 96.75 -110.7 79.8 -123.05 32.55 -135.4 -14.7 -114.9 -59.15 -94.45 -103.65 -47.2 -125.1 -40.95 -128.0 -34.6 -129.55 L-3.5 -129.55 Q18.0 -124.35 40.1 -104.85 L45.55 -100.7 Q50.5 -96.95 56.8 -94.85 63.15 -92.8 71.95 -96.0 78.55 -98.4 82.4 -98.35 85.15 -101.4 95.85 -99.8 98.65 -98.85 103.65 -91.3 L110.35 -81.2 Q116.55 -74.05 127.75 -70.65 127.85 -69.95 127.3 -68.45 126.65 -66.65 115.45 -66.8 116.8 -62.8 118.15 -51.35 122.05 -18.7 119.45 4.15 116.6 28.95 108.25 50.2 98.8 74.1 83.85 88.85 L81.2 91.8 Q66.8 105.4 48.35 116.05 28.65 127.4 14.45 129.4 7.8 130.35 -18.85 125.25 L-19.75 124.1 Q-20.15 123.8 -19.15 122.85 -17.9 121.7 -15.1 120.85 -10.9 119.6 -8.55 118.55 2.8 113.45 20.0 97.2 42.6 75.75 58.0 36.95 64.7 20.05 68.15 4.1 71.5 -11.8 70.85 -23.0 70.4 -30.5 69.85 -44.8 69.0 -57.2 67.0 -66.35 66.5 -68.35 67.0 -69.55 L64.45 -66.95 Q63.75 -66.15 62.75 -66.5 61.5 -66.95 58.8 -71.65 55.55 -77.2 56.8 -80.6 57.35 -82.2 57.95 -83.1 L56.5 -83.4 Q52.85 -84.55 37.9 -91.2 L35.45 -92.6 24.7 -99.4 M51.35 -88.1 Q54.15 -87.1 58.85 -86.55 L65.1 -85.75 Q56.95 -90.0 49.6 -94.75 50.1 -92.6 50.4 -89.4 L50.0 -88.65 51.35 -88.1 M30.75 -108.85 Q-7.8 -138.65 -51.15 -117.75 -102.55 -93.05 -117.7 -35.65 -132.8 21.7 -105.6 69.2 -78.4 116.6 -56.8 93.5 -48.7 85.65 -45.55 76.05 -43.6 70.2 -45.05 70.35 -46.5 70.5 -48.25 71.75 -52.9 74.95 -59.75 84.35 -67.0 91.3 -75.25 89.3 -83.55 87.25 -92.1 74.05 -97.45 65.85 -103.75 49.35 -114.2 22.55 -113.6 -2.95 -113.05 -27.2 -102.45 -52.15 -97.6 -63.7 -87.6 -76.35 -78.3 -88.15 -67.95 -96.75 -42.3 -118.1 -18.1 -118.6 1.15 -119.0 20.8 -106.25 23.3 -107.15 30.75 -108.85 M71.25 -86.25 Q78.5 -86.45 84.9 -92.95 L83.45 -93.7 Q81.7 -94.3 72.5 -91.7 67.4 -90.3 63.75 -90.1 L71.25 -86.25 M88.85 -96.3 L89.85 -95.55 Q90.3 -95.05 89.2 -90.4 L89.05 -90.5 Q84.95 -87.3 82.75 -86.2 72.15 -82.1 63.9 -82.45 L63.65 -82.45 63.55 -82.5 60.4 -82.65 60.25 -81.5 Q59.65 -78.15 61.05 -75.55 L63.5 -71.6 Q66.1 -74.9 67.3 -75.55 L69.25 -75.45 Q70.4 -72.9 72.1 -69.8 75.55 -63.6 78.3 -60.95 83.1 -74.3 85.05 -77.45 85.75 -78.6 86.25 -78.65 L86.9 -78.35 90.9 -75.1 Q95.2 -71.85 97.05 -71.2 99.6 -70.25 107.1 -70.3 L117.1 -70.9 111.05 -75.65 Q106.8 -78.95 105.3 -82.5 96.95 -95.9 94.8 -96.65 L88.85 -96.3 M3.95 126.05 L15.35 125.45 Q45.05 121.0 78.75 89.1 92.9 75.7 102.7 53.5 111.7 33.05 115.45 9.35 119.0 -13.65 116.6 -33.2 114.85 -47.2 111.55 -66.95 100.4 -66.45 96.1 -67.95 L90.75 -70.1 Q88.15 -71.45 87.0 -73.7 L83.1 -64.2 Q81.05 -59.55 80.0 -57.8 L79.8 -57.55 Q79.0 -56.5 78.05 -56.8 75.15 -57.85 72.55 -62.25 L70.3 -66.15 70.55 -64.7 Q74.85 -37.75 74.1 -19.6 72.55 17.8 54.6 54.1 40.35 82.9 22.4 99.85 6.7 114.75 -1.4 119.2 -3.05 120.1 -6.2 121.35 -8.35 122.2 -9.8 123.45 -6.6 124.6 -2.35 125.35 L-2.2 125.4 -0.15 125.7 3.95 126.05" fill="#000000" fill-rule="evenodd" stroke="none"/>
      <path d="M30.75 -108.85 Q23.3 -107.15 20.8 -106.25 1.15 -119.0 -18.1 -118.6 -42.3 -118.1 -67.95 -96.75 -78.3 -88.15 -87.6 -76.35 -97.6 -63.7 -102.45 -52.15 -113.05 -27.2 -113.6 -2.95 -114.2 22.55 -103.75 49.35 -97.45 65.85 -92.1 74.05 -83.55 87.25 -75.25 89.3 -67.0 91.3 -59.75 84.35 -52.9 74.95 -48.25 71.75 -46.5 70.5 -45.05 70.35 -43.6 70.2 -45.55 76.05 -48.7 85.65 -56.8 93.5 -78.4 116.6 -105.6 69.2 -132.8 21.7 -117.7 -35.65 -102.55 -93.05 -51.15 -117.75 -7.8 -138.65 30.75 -108.85 M88.85 -96.3 L94.8 -96.65 Q96.95 -95.9 105.3 -82.5 106.8 -78.95 111.05 -75.65 L117.1 -70.9 107.1 -70.3 Q99.6 -70.25 97.05 -71.2 95.2 -71.85 90.9 -75.1 L86.9 -78.35 86.25 -78.65 Q85.75 -78.6 85.05 -77.45 83.1 -74.3 78.3 -60.95 75.55 -63.6 72.1 -69.8 70.4 -72.9 69.25 -75.45 L67.3 -75.55 Q66.1 -74.9 63.5 -71.6 L61.05 -75.55 Q59.65 -78.15 60.25 -81.5 L60.4 -82.65 63.55 -82.5 63.65 -82.45 63.9 -82.45 Q72.15 -82.1 82.75 -86.2 84.95 -87.3 89.05 -90.5 L89.2 -90.4 Q90.3 -95.05 89.85 -95.55 L88.85 -96.3" fill="#650101" fill-rule="evenodd" stroke="none"/>
      <path d="M24.9 -103.65 Q25.35 -103.5 28.75 -104.75 32.1 -106.0 34.25 -106.05 39.05 -102.0 44.4 -98.25 L44.15 -98.0 44.55 -96.4 44.35 -96.6 44.2 -96.75 44.55 -96.4 Q45.55 -92.35 46.65 -90.0 L29.65 -100.0 29.6 -100.05 28.8 -100.5 28.75 -100.55 28.2 -101.0 28.05 -101.2 24.8 -103.55 24.9 -103.65 M51.35 -88.1 L50.0 -88.65 50.4 -89.4 Q50.1 -92.6 49.6 -94.75 56.95 -90.0 65.1 -85.75 L58.85 -86.55 Q54.15 -87.1 51.35 -88.1 M71.25 -86.25 L63.75 -90.1 Q67.4 -90.3 72.5 -91.7 81.7 -94.3 83.45 -93.7 L84.9 -92.95 Q78.5 -86.45 71.25 -86.25" fill="#540101" fill-rule="evenodd" stroke="none"/>
      <path d="M3.95 126.05 L4.9 125.0 Q5.1 124.45 4.65 123.9 4.25 123.35 4.5 122.75 5.5 119.9 15.15 116.8 25.55 113.4 26.7 112.2 28.25 110.5 29.85 106.95 L32.65 100.2 Q36.7 91.35 43.25 87.7 L45.25 87.3 Q47.15 87.0 48.65 86.15 53.65 83.4 56.85 74.5 58.45 70.1 59.75 62.3 61.1 54.5 61.75 52.8 63.45 48.0 71.15 40.15 78.85 32.3 79.6 30.25 80.35 28.15 80.1 28.05 80.55 22.2 80.1 17.35 L79.15 10.45 Q78.3 3.5 82.0 -6.8 83.15 -10.1 86.25 -17.0 88.4 -22.85 87.35 -25.45 L86.2 -29.55 83.1 -38.5 Q81.1 -43.6 81.25 -46.55 81.55 -54.9 83.85 -60.6 L84.75 -63.0 Q84.85 -63.7 83.75 -64.05 L83.1 -64.2 87.0 -73.7 Q88.15 -71.45 90.75 -70.1 L96.1 -67.95 Q100.4 -66.45 111.55 -66.95 114.85 -47.2 116.6 -33.2 119.0 -13.65 115.45 9.35 111.7 33.05 102.7 53.5 92.9 75.7 78.75 89.1 45.05 121.0 15.35 125.45 L3.95 126.05" fill="#f7f7f7" fill-rule="evenodd" stroke="none"/>
      <path d="M83.1 -64.2 L83.75 -64.05 Q84.85 -63.7 84.75 -63.0 L83.85 -60.6 Q81.55 -54.9 81.25 -46.55 81.1 -43.6 83.1 -38.5 L86.2 -29.55 87.35 -25.45 Q88.4 -22.85 86.25 -17.0 83.15 -10.1 82.0 -6.8 78.3 3.5 79.15 10.45 L80.1 17.35 Q80.55 22.2 80.1 28.05 80.35 28.15 79.6 30.25 78.85 32.3 71.15 40.15 63.45 48.0 61.75 52.8 61.1 54.5 59.75 62.3 58.45 70.1 56.85 74.5 53.65 83.4 48.65 86.15 47.15 87.0 45.25 87.3 L43.25 87.7 Q36.7 91.35 32.65 100.2 L29.85 106.95 Q28.25 110.5 26.7 112.2 25.55 113.4 15.15 116.8 5.5 119.9 4.5 122.75 4.25 123.35 4.65 123.9 5.1 124.45 4.9 125.0 L3.95 126.05 -0.15 125.7 -2.2 125.4 -2.35 125.35 Q-6.6 124.6 -9.8 123.45 -8.35 122.2 -6.2 121.35 -3.05 120.1 -1.4 119.2 6.7 114.75 22.4 99.85 40.35 82.9 54.6 54.1 72.55 17.8 74.1 -19.6 74.85 -37.75 70.55 -64.7 L70.3 -66.15 72.55 -62.25 Q75.15 -57.85 78.05 -56.8 79.0 -56.5 79.8 -57.55 L80.0 -57.8 Q81.05 -59.55 83.1 -64.2" fill="#a4aac1" fill-rule="evenodd" stroke="none"/>
    </g>
  </defs>
</svg>
