<?xml version="1.0" encoding="UTF-8" standalone="no"?>
<svg xmlns:xlink="http://www.w3.org/1999/xlink" height="720.75px" width="1716.8px" xmlns="http://www.w3.org/2000/svg">
  <g transform="matrix(1, 0, 0, 1, 307.05, 450.35)">
    <use height="169.5" transform="matrix(1.0, 0.0, 0.0, 1.0, -125.35, -75.0)" width="325.65" xlink:href="#sprite0"/>
  </g>
  <defs>
    <g id="sprite0" transform="matrix(1, 0, 0, 1, 125.35, 75.0)">
      <use height="169.5" transform="matrix(1.0, 0.0, 0.0, 1.0, -125.35, -75.0)" width="325.65" xlink:href="#shape0"/>
    </g>
    <g id="shape0" transform="matrix(1, 0, 0, 1, 125.35, 75.0)">
      <path d="M5.9 -60.05 L11.8 -60.5 Q18.1 -60.5 20.75 -59.7 21.6 -61.45 24.4 -64.3 L26.7 -66.5 Q14.0 -69.0 -1.3 -69.0 L-5.3 -68.95 -1.2 -65.5 Q3.2 -61.55 4.6 -59.85 L5.9 -60.05 M21.95 -55.75 L21.8 -55.0 Q22.3 -54.5 19.8 -54.5 L4.2 -55.05 Q3.75 -50.7 1.35 -41.7 L-0.65 -35.05 Q2.45 -33.75 6.95 -28.75 L14.25 -20.7 34.5 -21.5 Q35.0 -25.45 36.85 -30.15 38.6 -34.5 40.45 -36.65 37.2 -37.8 29.5 -46.75 24.0 -53.2 22.2 -55.7 L21.95 -55.8 21.95 -55.75 M26.45 -57.95 L34.85 -49.75 43.75 -40.5 43.8 -40.5 51.9 -39.4 62.55 -37.5 65.45 -41.05 69.15 -45.05 Q55.45 -59.4 32.85 -65.15 31.95 -63.4 29.35 -60.7 L26.45 -57.95 M10.45 -15.35 L10.0 -15.55 9.3 -15.5 Q8.15 -15.5 -3.2 -30.0 -3.7 -29.5 -4.2 -29.5 L-5.75 -29.8 Q-9.35 -29.8 -15.95 -28.35 -24.6 -26.5 -29.2 -26.5 L-30.95 -26.5 Q-31.9 -24.0 -35.55 -17.7 -37.7 -14.05 -39.5 -11.55 L-34.4 -6.25 Q-28.15 0.65 -26.3 6.1 L-24.0 5.7 6.35 3.6 Q6.5 -0.15 8.3 -6.1 10.0 -11.65 10.45 -15.35 M14.5 -2.55 Q13.55 0.6 12.3 3.0 14.4 4.1 18.4 7.7 L23.25 12.6 23.25 12.65 23.3 12.5 Q25.1 12.5 25.85 13.8 L34.3 13.0 37.95 12.25 Q40.95 11.5 42.3 11.5 L43.35 11.55 Q43.5 9.05 45.3 3.75 L46.55 0.55 46.3 0.3 Q43.25 -0.85 39.3 -8.6 L36.3 -14.85 Q31.65 -14.5 20.8 -14.5 L16.3 -14.6 Q16.3 -8.45 14.5 -2.55 M75.8 -18.35 L77.8 -20.5 78.1 -20.4 80.4 -22.15 82.95 -23.9 81.25 -27.25 Q77.35 -35.25 72.4 -41.35 70.55 -38.3 64.8 -32.95 75.3 -19.55 75.3 -18.75 L75.25 -17.65 75.8 -18.35 M59.8 -31.5 Q50.1 -31.5 45.3 -33.7 45.1 -30.45 42.7 -24.0 41.5 -20.7 40.3 -18.7 42.15 -16.6 45.1 -12.0 L49.5 -4.5 Q59.8 -4.45 64.35 -2.65 65.55 -5.1 68.05 -9.0 71.1 -13.75 72.8 -15.5 69.05 -15.5 64.3 -24.0 L60.75 -31.65 59.8 -31.5 M69.3 -0.4 L69.35 -0.35 69.35 -0.45 69.3 -0.4 M74.55 -1.25 Q74.55 6.35 81.95 14.4 L87.0 19.55 Q89.3 21.95 89.3 23.0 93.7 22.85 101.35 18.75 109.35 14.5 113.3 14.5 116.35 14.5 119.95 18.15 121.9 20.15 126.4 26.25 130.65 31.95 133.15 34.35 137.1 38.0 140.7 38.0 164.25 38.0 174.05 24.25 179.05 17.35 179.3 9.6 179.3 6.25 176.25 -0.45 172.6 -8.5 166.8 -15.45 150.55 -35.0 127.2 -35.0 110.35 -35.0 95.5 -24.75 L85.9 -17.7 Q82.25 -15.15 79.65 -14.65 L77.45 -9.45 Q74.55 -3.45 74.55 -1.25 M87.45 -26.7 Q90.2 -28.35 93.3 -30.0 113.25 -40.5 127.3 -40.5 155.0 -40.5 172.1 -17.75 177.9 -9.95 181.5 -0.8 184.3 6.35 184.3 9.6 184.3 12.75 182.75 17.4 180.65 23.65 176.6 28.75 L173.75 31.95 Q175.7 35.85 177.2 41.0 179.3 48.2 179.3 53.35 L179.05 57.2 Q178.2 59.1 174.55 57.25 174.3 70.25 168.8 78.5 167.75 77.1 165.25 71.95 163.2 67.75 160.55 65.25 L160.3 65.25 Q159.25 71.3 154.95 80.3 151.1 88.35 146.8 94.5 145.0 89.45 143.4 80.1 141.6 69.85 140.3 65.5 L140.05 65.0 135.95 72.0 Q133.0 77.2 130.8 78.5 128.3 77.6 128.3 74.25 128.3 73.0 129.3 69.2 130.3 65.35 130.3 64.1 130.3 60.7 126.8 56.3 123.3 51.9 123.3 48.0 123.3 46.45 125.1 39.95 L126.35 36.0 Q124.45 34.2 122.6 31.9 114.65 20.25 113.3 20.25 109.65 20.25 107.05 21.55 L105.1 22.8 Q106.8 24.8 107.2 27.85 L107.3 33.5 107.3 41.0 Q106.35 46.5 101.3 46.5 96.3 46.5 91.05 41.75 87.75 38.75 86.35 35.75 80.35 38.85 73.05 42.0 L65.3 45.2 Q65.05 49.1 58.85 57.25 51.85 66.5 46.8 66.5 39.5 66.5 37.65 61.4 36.8 55.5 35.3 54.05 27.0 55.5 19.8 55.5 -57.8 55.5 -95.15 32.5 L-98.8 30.15 Q-99.55 33.1 -105.45 36.75 -111.45 40.5 -113.7 40.5 -118.65 40.5 -120.65 35.25 -121.7 32.45 -121.7 29.25 -121.7 27.8 -118.4 18.75 L-116.0 12.55 Q-119.7 6.25 -119.7 1.25 L-119.7 1.1 -125.35 -11.5 Q-125.35 -14.0 -123.4 -16.05 -121.0 -18.5 -116.85 -18.5 L-108.7 -17.9 Q-107.05 -22.2 -102.8 -28.75 -94.95 -40.9 -83.65 -51.2 -69.85 -63.85 -54.7 -69.9 -36.5 -77.2 -18.2 -74.0 L-1.2 -74.5 Q39.4 -74.5 67.1 -52.0 76.95 -43.95 83.15 -34.65 86.2 -30.05 87.45 -26.7 M170.8 37.9 L169.9 35.3 Q158.85 43.5 141.3 43.5 135.85 43.5 130.3 39.4 L128.3 48.1 Q128.3 51.1 132.2 54.85 135.8 58.45 135.3 61.75 136.45 61.05 137.45 57.65 138.3 54.8 140.8 54.5 144.15 59.3 146.25 66.9 148.1 73.65 148.3 79.75 L148.8 80.0 153.95 68.7 Q156.65 61.5 156.3 55.5 L156.8 55.0 Q157.3 54.5 158.8 54.5 160.3 54.5 163.95 60.0 L168.05 66.5 Q168.75 60.7 170.6 51.7 L172.3 43.5 Q172.3 41.65 170.8 37.9 M102.9 24.4 L101.95 25.1 Q100.55 27.35 93.9 31.45 L91.3 33.0 94.25 35.55 Q100.05 40.7 102.05 41.0 101.8 34.9 101.85 31.5 101.9 26.55 103.75 23.75 L102.9 24.4 M85.7 31.2 Q86.2 30.5 87.8 30.5 L87.9 30.5 90.95 28.45 88.8 28.5 Q84.4 28.5 83.3 25.75 L83.3 25.0 Q81.8 24.45 80.45 23.4 L78.65 25.2 Q75.3 28.05 68.8 30.3 50.9 36.5 15.8 36.5 -52.15 36.5 -86.2 17.55 -98.0 10.95 -104.15 2.9 -108.7 -3.05 -108.7 -7.15 L-108.7 -7.7 -111.55 -4.75 Q-114.2 -2.3 -114.2 1.25 -114.2 6.15 -108.25 13.25 -100.75 22.15 -87.15 29.5 -49.2 50.0 19.7 50.0 L35.3 48.9 35.3 48.75 35.95 48.15 Q36.75 47.5 38.3 47.5 38.75 47.5 39.35 48.25 51.0 46.2 63.6 41.8 76.35 37.4 85.5 32.0 L85.7 31.2 M64.0 2.7 L63.8 2.45 59.8 2.5 51.25 2.05 Q51.05 4.4 50.05 8.05 49.25 10.95 48.3 12.75 52.05 14.0 56.45 21.5 L57.3 21.5 Q60.9 21.5 64.7 23.2 L67.15 24.55 Q71.4 22.85 74.8 20.45 L76.65 19.25 Q74.9 16.65 73.3 13.0 L72.65 11.45 Q70.45 10.95 68.3 7.1 66.75 4.3 66.4 3.0 L65.8 3.5 Q64.35 3.0 64.0 2.7 M45.75 17.2 L38.75 17.95 30.3 18.5 25.85 18.3 Q25.1 20.95 23.25 24.65 L19.6 31.0 Q38.8 30.75 52.0 28.5 51.3 26.6 51.3 25.35 L51.5 23.3 Q49.35 21.25 45.75 17.2 M58.15 27.25 L57.95 27.2 57.95 27.3 58.15 27.25 M15.4 31.0 L15.3 30.0 Q15.3 28.35 19.3 20.25 L20.35 18.25 Q17.6 17.2 13.35 12.65 L9.5 8.15 Q3.3 11.5 -23.7 11.5 -24.0 12.8 -26.7 17.65 -29.7 23.05 -29.7 24.0 -29.7 25.75 -28.7 28.8 -9.1 31.0 15.2 31.0 L15.4 31.0 M44.0 60.65 Q44.0 61.25 45.55 61.25 51.85 61.25 55.85 53.25 L58.55 47.7 Q49.75 50.8 41.85 52.7 L41.9 52.85 Q44.3 58.05 44.3 60.0 L44.0 60.65 M-81.45 -31.5 Q-80.55 -33.7 -75.7 -40.0 L-72.25 -44.35 -74.4 -46.75 Q-76.15 -49.2 -76.55 -50.95 -87.35 -42.65 -95.2 -29.85 -90.7 -31.4 -81.45 -31.5 M-109.7 -12.5 L-109.55 -12.5 -109.55 -12.55 -109.7 -12.55 Q-113.05 -12.45 -119.1 -12.75 L-119.6 -12.5 Q-120.1 -12.25 -120.1 -10.75 L-118.7 -9.15 Q-117.95 -8.2 -117.6 -7.15 -114.85 -12.5 -109.7 -12.5 M-103.8 -4.85 Q-101.2 0.4 -96.35 5.0 -95.6 3.6 -93.0 3.2 L-79.65 1.55 Q-78.35 -1.2 -75.35 -5.75 L-72.8 -9.5 Q-75.65 -11.65 -78.4 -18.35 L-80.7 -25.3 -94.7 -24.5 Q-96.65 -24.5 -97.85 -25.25 -101.85 -17.9 -104.95 -9.25 L-105.45 -9.05 Q-104.8 -6.9 -103.8 -4.85 M-40.3 -65.85 L-43.3 -56.7 Q-45.5 -50.55 -47.05 -47.1 L-46.8 -46.45 Q-44.15 -44.7 -39.2 -39.95 -33.5 -34.5 -31.05 -31.05 L-23.2 -32.5 -9.7 -34.5 -7.3 -34.35 Q-6.45 -37.9 -3.65 -46.5 -1.45 -53.25 -0.05 -56.5 -2.4 -58.05 -6.45 -62.1 -12.0 -67.65 -12.6 -68.75 -27.95 -68.15 -40.3 -65.85 M-65.85 -57.7 Q-69.15 -56.05 -72.2 -54.0 L-69.4 -51.2 -66.6 -47.9 Q-62.6 -49.5 -53.7 -49.5 L-51.3 -49.4 Q-50.45 -52.95 -47.65 -60.15 L-45.8 -64.7 Q-57.3 -62.05 -65.85 -57.7 M-56.65 -41.95 L-64.7 -42.5 -66.0 -42.6 -67.2 -42.5 -67.5 -42.5 Q-69.65 -38.2 -77.3 -29.1 L-68.55 -13.4 -68.45 -13.35 -56.7 -13.5 Q-48.15 -13.5 -44.65 -13.2 L-40.1 -20.5 -35.6 -27.25 -36.45 -27.75 Q-36.65 -27.9 -36.65 -28.7 -39.4 -30.9 -43.65 -35.3 L-50.8 -43.1 Q-53.35 -42.05 -56.65 -41.95 M-71.4 -0.25 Q-73.9 3.85 -75.5 5.8 -66.7 19.15 -66.7 19.5 L-66.85 21.1 Q-58.05 23.95 -47.5 26.0 -46.9 24.8 -44.25 24.1 L-35.45 21.85 Q-34.8 20.0 -32.5 15.85 -30.75 12.7 -29.2 10.9 -30.0 10.65 -30.4 10.25 L-30.55 10.05 Q-34.9 8.35 -39.65 0.35 L-43.3 -7.15 -44.2 -6.5 -46.0 -7.1 -46.55 -8.1 -62.7 -7.5 -67.35 -7.65 Q-68.45 -5.1 -71.4 -0.25 M-35.05 28.05 L-34.7 28.1 -34.75 27.85 -35.05 28.05 M-90.55 9.75 Q-83.6 14.65 -74.25 18.4 L-76.95 13.75 -80.05 7.1 -80.3 7.05 -81.5 7.35 -90.75 8.9 -91.55 9.05 -90.55 9.75 M-114.2 22.1 Q-116.7 26.6 -116.7 28.35 -116.7 31.15 -114.2 34.5 -111.3 34.2 -106.9 30.75 L-102.55 27.4 Q-108.35 22.85 -112.35 17.85 -112.95 19.9 -114.2 22.1" fill="#000000" fill-rule="evenodd" stroke="none"/>
      <path d="M74.55 -1.25 Q74.55 -3.45 77.45 -9.45 L79.65 -14.65 Q82.25 -15.15 85.9 -17.7 L95.5 -24.75 Q110.35 -35.0 127.2 -35.0 150.55 -35.0 166.8 -15.45 172.6 -8.5 176.25 -0.45 179.3 6.25 179.3 9.6 179.05 17.35 174.05 24.25 164.25 38.0 140.7 38.0 137.1 38.0 133.15 34.35 130.65 31.95 126.4 26.25 121.9 20.15 119.95 18.15 116.35 14.5 113.3 14.5 109.35 14.5 101.35 18.75 93.7 22.85 89.3 23.0 89.3 21.95 87.0 19.55 L81.95 14.4 Q74.55 6.35 74.55 -1.25 M102.9 24.4 L103.75 23.75 Q101.9 26.55 101.85 31.5 101.8 34.9 102.05 41.0 100.05 40.7 94.25 35.55 L91.3 33.0 93.9 31.45 Q100.55 27.35 101.95 25.1 L102.9 24.4 M44.0 60.65 L44.3 60.0 Q44.3 58.05 41.9 52.85 L41.85 52.7 Q49.75 50.8 58.55 47.7 L55.85 53.25 Q51.85 61.25 45.55 61.25 44.0 61.25 44.0 60.65 M-114.2 22.1 Q-112.95 19.9 -112.35 17.85 -108.35 22.85 -102.55 27.4 L-106.9 30.75 Q-111.3 34.2 -114.2 34.5 -116.7 31.15 -116.7 28.35 -116.7 26.6 -114.2 22.1" fill="#908878" fill-rule="evenodd" stroke="none"/>
      <path d="M170.8 37.9 Q172.3 41.65 172.3 43.5 L170.6 51.7 Q168.75 60.7 168.05 66.5 L163.95 60.0 Q160.3 54.5 158.8 54.5 157.3 54.5 156.8 55.0 L156.3 55.5 Q156.65 61.5 153.95 68.7 L148.8 80.0 148.3 79.75 Q148.1 73.65 146.25 66.9 144.15 59.3 140.8 54.5 138.3 54.8 137.45 57.65 136.45 61.05 135.3 61.75 135.8 58.45 132.2 54.85 128.3 51.1 128.3 48.1 L130.3 39.4 Q135.85 43.5 141.3 43.5 158.85 43.5 169.9 35.3 L170.8 37.9 M-109.7 -12.55 L-109.7 -12.5 Q-114.85 -12.5 -117.6 -7.15 -117.95 -8.2 -118.7 -9.15 L-120.1 -10.75 Q-120.1 -12.25 -119.6 -12.5 L-119.1 -12.75 Q-113.05 -12.45 -109.7 -12.55" fill="#f8f8f8" fill-rule="evenodd" stroke="none"/>
      <path d="M85.7 31.2 L85.5 32.0 Q76.35 37.4 63.6 41.8 51.0 46.2 39.35 48.25 38.75 47.5 38.3 47.5 36.75 47.5 35.95 48.15 L35.3 48.75 35.3 48.9 19.7 50.0 Q-49.2 50.0 -87.15 29.5 -100.75 22.15 -108.25 13.25 -114.2 6.15 -114.2 1.25 -114.2 -2.3 -111.55 -4.75 L-108.7 -7.7 -108.7 -7.15 Q-108.7 -3.05 -104.15 2.9 -98.0 10.95 -86.2 17.55 -52.15 36.5 15.8 36.5 50.9 36.5 68.8 30.3 75.3 28.05 78.65 25.2 L80.45 23.4 Q81.8 24.45 83.3 25.0 L83.3 25.75 Q84.4 28.5 88.8 28.5 L90.95 28.45 87.9 30.5 87.8 30.5 Q86.2 30.5 85.7 31.2" fill="#207848" fill-rule="evenodd" stroke="none"/>
      <path d="M22.2 -55.7 L21.95 -55.75 21.95 -55.8 22.2 -55.7 M26.45 -57.95 L29.35 -60.7 Q31.95 -63.4 32.85 -65.15 55.45 -59.4 69.15 -45.05 L65.45 -41.05 62.55 -37.5 51.9 -39.4 43.8 -40.5 43.75 -40.5 34.85 -49.75 26.45 -57.95 M14.5 -2.55 Q16.3 -8.45 16.3 -14.6 L20.8 -14.5 Q31.65 -14.5 36.3 -14.85 L39.3 -8.6 Q43.25 -0.85 46.3 0.3 L46.55 0.55 45.3 3.75 Q43.5 9.05 43.35 11.55 L42.3 11.5 Q40.95 11.5 37.95 12.25 L34.3 13.0 25.85 13.8 Q25.1 12.5 23.3 12.5 L23.25 12.65 23.25 12.6 18.4 7.7 Q14.4 4.1 12.3 3.0 13.55 0.6 14.5 -2.55 M75.3 -18.75 L75.8 -18.35 75.25 -17.65 75.3 -18.75 M64.0 2.7 Q64.35 3.0 65.8 3.5 L66.4 3.0 Q66.75 4.3 68.3 7.1 70.45 10.95 72.65 11.45 L73.3 13.0 Q74.9 16.65 76.65 19.25 L74.8 20.45 Q71.4 22.85 67.15 24.55 L64.7 23.2 Q60.9 21.5 57.3 21.5 L56.45 21.5 Q52.05 14.0 48.3 12.75 49.25 10.95 50.05 8.05 51.05 4.4 51.25 2.05 L59.8 2.5 63.8 2.45 64.0 2.7 M15.2 31.0 L15.4 31.0 15.2 31.0 M-56.65 -41.95 Q-53.35 -42.05 -50.8 -43.1 L-43.65 -35.3 Q-39.4 -30.9 -36.65 -28.7 -36.65 -27.9 -36.45 -27.75 L-35.6 -27.25 -40.1 -20.5 -44.65 -13.2 Q-48.15 -13.5 -56.7 -13.5 L-68.45 -13.35 -68.55 -13.4 -77.3 -29.1 Q-69.65 -38.2 -67.5 -42.5 L-67.2 -42.5 -66.0 -42.6 -64.7 -42.5 -56.65 -41.95 M-90.75 8.9 L-81.5 7.35 -80.3 7.05 -80.05 7.1 -76.95 13.75 -74.25 18.4 Q-83.6 14.65 -90.55 9.75 L-90.75 8.9" fill="#268c4f" fill-rule="evenodd" stroke="none"/>
      <path d="M22.2 -55.7 Q24.0 -53.2 29.5 -46.75 37.2 -37.8 40.45 -36.65 38.6 -34.5 36.85 -30.15 35.0 -25.45 34.5 -21.5 L14.25 -20.7 6.95 -28.75 Q2.45 -33.75 -0.65 -35.05 L1.35 -41.7 Q3.75 -50.7 4.2 -55.05 L19.8 -54.5 Q22.3 -54.5 21.8 -55.0 L21.95 -55.75 22.2 -55.7 M75.3 -18.75 Q75.3 -19.55 64.8 -32.95 70.55 -38.3 72.4 -41.35 77.35 -35.25 81.25 -27.25 L82.95 -23.9 80.4 -22.15 78.1 -20.4 77.8 -20.5 75.8 -18.35 75.3 -18.75 M15.2 31.0 Q-9.1 31.0 -28.7 28.8 -29.7 25.75 -29.7 24.0 -29.7 23.05 -26.7 17.65 -24.0 12.8 -23.7 11.5 3.3 11.5 9.5 8.15 L13.35 12.65 Q17.6 17.2 20.35 18.25 L19.3 20.25 Q15.3 28.35 15.3 30.0 L15.4 31.0 15.2 31.0 M-103.8 -4.85 Q-104.8 -6.9 -105.45 -9.05 L-104.95 -9.25 Q-101.85 -17.9 -97.85 -25.25 -96.65 -24.5 -94.7 -24.5 L-80.7 -25.3 -78.4 -18.35 Q-75.65 -11.65 -72.8 -9.5 L-75.35 -5.75 Q-78.35 -1.2 -79.65 1.55 L-93.0 3.2 Q-95.6 3.6 -96.35 5.0 -101.2 0.4 -103.8 -4.85 M-65.85 -57.7 Q-57.3 -62.05 -45.8 -64.7 L-47.65 -60.15 Q-50.45 -52.95 -51.3 -49.4 L-53.7 -49.5 Q-62.6 -49.5 -66.6 -47.9 L-69.4 -51.2 -72.2 -54.0 Q-69.15 -56.05 -65.85 -57.7" fill="#217843" fill-rule="evenodd" stroke="none"/>
      <path d="M5.9 -60.05 L4.6 -59.85 Q3.2 -61.55 -1.2 -65.5 L-5.3 -68.95 -1.3 -69.0 Q14.0 -69.0 26.7 -66.5 L24.4 -64.3 Q21.6 -61.45 20.75 -59.7 18.1 -60.5 11.8 -60.5 L5.9 -60.05" fill="#2b9956" fill-rule="evenodd" stroke="none"/>
      <path d="M10.45 -15.35 Q10.0 -11.65 8.3 -6.1 6.5 -0.15 6.35 3.6 L-24.0 5.7 -26.3 6.1 Q-28.15 0.65 -34.4 -6.25 L-39.5 -11.55 Q-37.7 -14.05 -35.55 -17.7 -31.9 -24.0 -30.95 -26.5 L-29.2 -26.5 Q-24.6 -26.5 -15.95 -28.35 -9.35 -29.8 -5.75 -29.8 L-4.2 -29.5 Q-3.7 -29.5 -3.2 -30.0 8.15 -15.5 9.3 -15.5 L10.0 -15.55 10.45 -15.35 M59.8 -31.5 L60.75 -31.65 64.3 -24.0 Q69.05 -15.5 72.8 -15.5 71.1 -13.75 68.05 -9.0 65.55 -5.1 64.35 -2.65 59.8 -4.45 49.5 -4.5 L45.1 -12.0 Q42.15 -16.6 40.3 -18.7 41.5 -20.7 42.7 -24.0 45.1 -30.45 45.3 -33.7 50.1 -31.5 59.8 -31.5 M45.75 17.2 Q49.35 21.25 51.5 23.3 L51.3 25.35 Q51.3 26.6 52.0 28.5 38.8 30.75 19.6 31.0 L23.25 24.65 Q25.1 20.95 25.85 18.3 L30.3 18.5 38.75 17.95 45.75 17.2 M-81.45 -31.5 Q-90.7 -31.4 -95.2 -29.85 -87.35 -42.65 -76.55 -50.95 -76.15 -49.2 -74.4 -46.75 L-72.25 -44.35 -75.7 -40.0 Q-80.55 -33.7 -81.45 -31.5 M-40.3 -65.85 Q-27.95 -68.15 -12.6 -68.75 -12.0 -67.65 -6.45 -62.1 -2.4 -58.05 -0.05 -56.5 -1.45 -53.25 -3.65 -46.5 -6.45 -37.9 -7.3 -34.35 L-9.7 -34.5 -23.2 -32.5 -31.05 -31.05 Q-33.5 -34.5 -39.2 -39.95 -44.15 -44.7 -46.8 -46.45 L-47.05 -47.1 Q-45.5 -50.55 -43.3 -56.7 L-40.3 -65.85" fill="#237e47" fill-rule="evenodd" stroke="none"/>
      <path d="M-71.4 -0.25 Q-68.45 -5.1 -67.35 -7.65 L-62.7 -7.5 -46.55 -8.1 -46.0 -7.1 -44.2 -6.5 -43.3 -7.15 -39.65 0.35 Q-34.9 8.35 -30.55 10.05 L-30.4 10.25 Q-30.0 10.65 -29.2 10.9 -30.75 12.7 -32.5 15.85 -34.8 20.0 -35.45 21.85 L-44.25 24.1 Q-46.9 24.8 -47.5 26.0 -58.05 23.95 -66.85 21.1 L-66.7 19.5 Q-66.7 19.15 -75.5 5.8 -73.9 3.85 -71.4 -0.25" fill="#1f7240" fill-rule="evenodd" stroke="none"/>
      <path d="M157.3 -14.25 Q157.3 -18.75 160.35 -21.0 165.0 -24.5 177.3 -24.5 186.6 -24.5 194.1 -21.0 200.3 -18.1 200.3 -16.25 200.3 -8.5 178.8 -8.5 165.7 -8.5 160.35 -11.0 157.3 -12.45 157.3 -14.25 M106.35 4.6 L115.95 -0.75 Q122.35 -5.15 123.65 -9.55 L123.65 -9.6 122.05 -9.55 Q120.0 -9.55 114.4 -4.05 L106.2 4.45 105.65 4.95 106.35 4.6 M131.7 -15.5 L131.95 -13.55 Q131.95 -6.45 119.65 3.9 106.85 14.6 96.55 14.65 L94.4 14.1 93.5 13.6 Q93.3 13.35 93.3 11.7 93.3 9.8 107.5 -2.65 122.15 -15.55 127.15 -16.5 L131.45 -15.95 131.7 -15.5 M167.55 -4.8 Q173.1 -7.15 178.3 -7.5 L181.8 -7.0 182.05 -6.55 182.3 -4.75 181.8 -2.0 178.85 -1.55 179.3 0.75 Q179.3 4.1 178.35 6.75 177.05 10.5 174.3 10.5 168.4 10.5 166.8 4.15 166.55 3.2 166.45 1.5 L165.8 1.5 Q163.8 1.5 162.55 0.25 162.3 1.25 162.3 -1.25 162.3 -2.6 167.55 -4.8 M163.55 -15.75 L178.7 -14.0 192.3 -16.0 185.15 -17.65 Q178.2 -19.0 174.05 -19.0 165.45 -18.15 163.55 -16.25 L163.55 -15.75 M137.05 2.25 Q137.3 2.4 137.3 3.85 137.3 4.65 134.45 6.05 L135.1 8.1 Q135.3 9.15 135.3 13.75 135.3 16.5 134.3 19.0 132.9 22.5 130.3 22.5 123.9 22.5 122.5 16.35 122.35 15.55 122.3 10.6 L116.3 12.5 114.3 12.0 113.5 11.55 Q113.3 11.3 113.3 9.75 113.3 6.3 133.8 1.5 L136.8 2.0 137.05 2.25 M128.9 10.0 L129.3 15.75 Q129.75 14.65 128.9 8.35 L128.9 8.3 128.5 8.45 128.9 10.0" fill="#000000" fill-rule="evenodd" stroke="none"/>
      <path d="M106.2 4.45 L114.4 -4.05 Q120.0 -9.55 122.05 -9.55 L123.65 -9.6 123.65 -9.55 Q122.35 -5.15 115.95 -0.75 L106.35 4.6 106.2 4.45 M163.55 -15.75 L163.55 -16.25 Q165.45 -18.15 174.05 -19.0 178.2 -19.0 185.15 -17.65 L192.3 -16.0 178.7 -14.0 163.55 -15.75" fill="#f8f8f8" fill-rule="evenodd" stroke="none"/>
    </g>
  </defs>
</svg>
