<?xml version="1.0" encoding="UTF-8" standalone="no"?>
<svg xmlns:xlink="http://www.w3.org/1999/xlink" height="720.75px" width="1716.8px" xmlns="http://www.w3.org/2000/svg">
  <g transform="matrix(1, 0, 0, 1, 307.05, 450.35)">
    <use height="162.9" transform="matrix(1.0, 0.0, 0.0, 1.0, -64.9, -97.45)" width="167.85" xlink:href="#sprite0"/>
  </g>
  <defs>
    <g id="sprite0" transform="matrix(1, 0, 0, 1, 64.9, 97.45)">
      <use height="162.9" transform="matrix(1.0, 0.0, 0.0, 1.0, -64.9, -97.45)" width="167.85" xlink:href="#shape0"/>
      <use height="45.35" transform="matrix(1.9574, 0.0, 0.0, 0.8945, -1.451, -41.4828)" width="2.35" xlink:href="#sprite1"/>
      <use height="45.35" transform="matrix(1.9574, 0.0, 0.0, 0.5465, -1.451, -25.0036)" width="2.35" xlink:href="#sprite1"/>
    </g>
    <g id="shape0" transform="matrix(1, 0, 0, 1, 64.9, 97.45)">
      <path d="M-6.9 -60.8 L-6.9 -75.8 6.1 -75.8 6.1 -60.75 6.6 -60.7 12.6 -59.8 Q17.25 -58.85 21.6 -57.2 33.65 -52.7 43.45 -42.9 61.6 -24.75 61.6 0.95 61.6 26.65 43.45 44.8 25.3 62.95 -0.4 62.95 -26.1 62.95 -44.25 44.8 -62.4 26.65 -62.4 0.95 -62.4 -24.75 -44.25 -42.9 -34.0 -53.15 -21.4 -57.6 -17.05 -59.15 -12.4 -60.0 L-6.4 -60.8 -3.65 -60.95 -6.9 -60.8 M6.1 -60.75 L2.9 -60.95 -0.4 -61.05 -0.9 -61.05 -3.65 -60.95 -0.9 -61.05 -0.4 -61.05 2.9 -60.95 6.1 -60.75 M15.1 -59.8 L15.1 -69.8 24.1 -69.8 24.1 -57.2 Q19.75 -58.85 15.1 -59.8 M-24.9 -57.6 L-24.9 -69.8 -15.9 -69.8 -15.9 -60.0 Q-20.55 -59.15 -24.9 -57.6 M-0.35 -45.55 Q-19.65 -45.55 -33.25 -31.9 -46.9 -18.3 -46.85 0.95 -46.9 20.25 -33.25 33.85 -19.65 47.45 -0.35 47.45 18.9 47.45 32.5 33.85 46.1 20.25 46.15 0.95 46.1 -18.3 32.5 -31.9 18.9 -45.55 -0.35 -45.55" fill="#feabab" fill-rule="evenodd" stroke="none"/>
      <path d="M-0.35 -45.55 Q18.9 -45.55 32.5 -31.9 46.1 -18.3 46.15 0.95 46.1 20.25 32.5 33.85 18.9 47.45 -0.35 47.45 -19.65 47.45 -33.25 33.85 -46.9 20.25 -46.85 0.95 -46.9 -18.3 -33.25 -31.9 -19.65 -45.55 -0.35 -45.55" fill="#ffffff" fill-rule="evenodd" stroke="none"/>
      <path d="M-6.9 -60.8 L-6.9 -75.8 6.1 -75.8 6.1 -60.75 6.6 -60.7 12.6 -59.8 Q17.25 -58.85 21.6 -57.2 33.65 -52.7 43.45 -42.9 61.6 -24.75 61.6 0.95 61.6 26.65 43.45 44.8 25.3 62.95 -0.4 62.95 -26.1 62.95 -44.25 44.8 -62.4 26.65 -62.4 0.95 -62.4 -24.75 -44.25 -42.9 -34.0 -53.15 -21.4 -57.6 -17.05 -59.15 -12.4 -60.0 L-6.4 -60.8 -3.65 -60.95 -0.9 -61.05 -0.4 -61.05 2.9 -60.95 6.1 -60.75 M15.1 -59.8 L15.1 -69.8 24.1 -69.8 24.1 -57.2 M-24.9 -57.6 L-24.9 -69.8 -15.9 -69.8 -15.9 -60.0 M-0.35 -45.55 Q18.9 -45.55 32.5 -31.9 46.1 -18.3 46.15 0.95 46.1 20.25 32.5 33.85 18.9 47.45 -0.35 47.45 -19.65 47.45 -33.25 33.85 -46.9 20.25 -46.85 0.95 -46.9 -18.3 -33.25 -31.9 -19.65 -45.55 -0.35 -45.55" fill="none" stroke="#000000" stroke-linecap="round" stroke-linejoin="round" stroke-width="5.0"/>
      <path d="M-0.85 -80.9 Q2.65 -86.5 9.75 -90.6 16.85 -94.7 23.45 -94.95 30.0 -95.2 32.15 -91.45 34.35 -87.75 30.8 -82.2 27.3 -76.65 20.2 -72.55 13.1 -68.45 6.5 -68.15 -0.05 -67.9 -2.25 -71.6 -4.4 -75.35 -0.85 -80.9" fill="none" stroke="#000000" stroke-linecap="round" stroke-linejoin="round" stroke-width="5.0"/>
      <path d="M34.6 -94.95 Q41.2 -94.65 48.3 -90.55 55.4 -86.45 58.9 -80.9 62.45 -75.35 60.3 -71.6 58.1 -67.9 51.55 -68.15 44.95 -68.4 37.85 -72.5 30.75 -76.6 27.25 -82.2 23.7 -87.75 25.9 -91.45 28.05 -95.2 34.6 -94.95" fill="none" stroke="#000000" stroke-linecap="round" stroke-linejoin="round" stroke-width="5.0"/>
      <path d="M62.35 -77.6 Q68.65 -75.7 74.45 -69.9 80.25 -64.1 82.15 -57.8 84.15 -51.5 81.1 -48.45 78.05 -45.4 71.75 -47.4 65.5 -49.35 59.7 -55.15 53.9 -60.95 51.95 -67.2 49.95 -73.45 53.0 -76.5 56.05 -79.55 62.35 -77.6" fill="none" stroke="#000000" stroke-linecap="round" stroke-linejoin="round" stroke-width="5.0"/>
      <path d="M87.55 -54.85 Q92.05 -50.05 94.15 -42.15 96.3 -34.2 94.8 -27.8 93.35 -21.35 89.2 -20.25 85.05 -19.15 80.6 -24.0 76.15 -28.8 74.0 -36.75 71.9 -44.65 73.35 -51.05 74.8 -57.5 78.95 -58.6 83.1 -59.7 87.55 -54.85" fill="none" stroke="#000000" stroke-linecap="round" stroke-linejoin="round" stroke-width="5.0"/>
      <path d="M97.4 -24.45 Q100.45 -18.65 100.45 -10.45 100.45 -2.25 97.4 3.6 94.35 9.4 90.0 9.4 85.7 9.4 82.65 3.6 79.6 -2.25 79.6 -10.45 79.6 -18.65 82.65 -24.45 85.7 -30.25 90.0 -30.25 94.35 -30.25 97.4 -24.45" fill="none" stroke="#000000" stroke-linecap="round" stroke-linejoin="round" stroke-width="5.0"/>
    </g>
    <g id="sprite1" transform="matrix(1, 0, 0, 1, 1.15, 45.2)">
      <use height="45.35" transform="matrix(1.0, 0.0, 0.0, 1.0, -1.15, -45.2)" width="2.35" xlink:href="#shape1"/>
    </g>
    <g id="shape1" transform="matrix(1, 0, 0, 1, 1.15, 45.2)">
      <path d="M1.1 0.15 L-1.15 0.15 -1.15 -43.75 Q1.6 -53.25 1.1 0.15" fill="#000000" fill-rule="evenodd" stroke="none"/>
    </g>
  </defs>
</svg>
