<?xml version="1.0" encoding="UTF-8" standalone="no"?>
<svg xmlns:xlink="http://www.w3.org/1999/xlink" height="720.75px" width="1716.8px" xmlns="http://www.w3.org/2000/svg">
  <g transform="matrix(1, 0, 0, 1, 307.05, 450.35)">
    <use height="36.55" transform="matrix(1.5, 0.0, 0.0, 1.5, -65.35, -26.375)" width="86.4" xlink:href="#sprite0"/>
  </g>
  <defs>
    <g id="sprite0" transform="matrix(1, 0, 0, 1, 43.2, 18.25)">
      <use height="36.55" transform="matrix(1.0, 0.0, 0.0, 1.0, -43.2, -18.25)" width="86.4" xlink:href="#shape0"/>
    </g>
    <g id="shape0" transform="matrix(1, 0, 0, 1, 43.2, 18.25)">
      <path d="M-41.4 -14.2 L-40.6 -17.25 42.2 11.9 41.25 14.55 -41.4 -14.2" fill="#5c110a" fill-rule="evenodd" stroke="none"/>
      <path d="M-41.4 -14.2 L41.25 14.55 42.2 11.9 -40.6 -17.25 -41.4 -14.2 -42.2 -11.25 M40.2 17.3 L41.25 14.55" fill="none" stroke="#000000" stroke-linecap="round" stroke-linejoin="round" stroke-width="2.0"/>
      <path d="M-42.2 -11.25 L40.2 17.3" fill="none" stroke="#000000" stroke-linecap="round" stroke-linejoin="round" stroke-width="1.0"/>
    </g>
  </defs>
</svg>
