<?xml version="1.0" encoding="UTF-8" standalone="no"?>
<svg xmlns:xlink="http://www.w3.org/1999/xlink" height="720.75px" width="1716.8px" xmlns="http://www.w3.org/2000/svg">
  <g transform="matrix(1, 0, 0, 1, 307.05, 450.35)">
    <use height="371.0" transform="matrix(1.0, 0.0, 0.0, 1.0, -240.75, -185.5)" width="480.55" xlink:href="#sprite0"/>
  </g>
  <defs>
    <g id="sprite0" transform="matrix(1, 0, 0, 1, 240.75, 185.5)">
      <use height="371.0" transform="matrix(1.0, 0.0, 0.0, 1.0, -240.75, -185.5)" width="480.55" xlink:href="#shape0"/>
    </g>
    <g id="shape0" transform="matrix(1, 0, 0, 1, 240.75, 185.5)">
      <path d="M135.2 -97.6 L122.75 -97.6 -123.7 -97.6 -123.7 -96.8 -161.8 -41.3 -161.8 58.5 -161.8 110.7 183.95 110.7 183.95 -41.3 183.95 -69.8 183.95 -97.6 173.7 -97.6 143.3 -97.6 135.2 -97.6 143.3 -97.6 143.3 67.2 135.2 58.5 135.2 -97.6 M236.3 -97.6 L223.35 -97.6 202.9 -97.6 183.95 -97.6 202.9 -97.6 223.35 -97.6 236.3 -97.6 236.3 -96.8 198.2 -41.3 183.95 -41.3 198.2 -41.3 198.2 183.0 183.55 183.0 183.95 110.7 183.55 183.0 -161.8 183.0 -176.05 183.0 -176.05 -41.3 -176.05 -69.8 -176.05 -110.0 -153.4 -102.85 -153.35 -102.9 -150.6 -102.0 -137.15 -97.75 -137.05 -97.7 -136.65 -97.6 -147.5 -121.0 226.5 -121.0 -147.5 -121.0 -156.3 -140.0 -167.65 -164.5 -167.65 -183.0 206.35 -183.0 206.35 -164.5 -167.65 -164.5 206.35 -164.5 217.7 -140.0 226.5 -121.0 237.15 -97.95 236.3 -97.6 M-137.3 -100.25 L-136.65 -97.6 -137.3 -100.25 M202.9 -97.6 L183.95 -69.8 202.9 -97.6 M223.35 -97.6 L185.95 -42.85 223.35 -97.6 M-224.8 -125.7 L-216.7 -123.1 -216.7 58.5 -224.8 58.5 -224.8 -125.7 M-123.7 -97.6 L-136.65 -97.6 -123.7 -97.6 M-150.6 -102.0 L-153.35 -102.85 -153.4 -102.85 -153.35 -102.85 -153.35 -102.9 -153.35 -102.85 -150.6 -102.0 M-176.05 -41.3 L-161.8 -41.3 -176.05 -41.3 M-174.05 -42.85 L-136.65 -97.6 -174.05 -42.85 M-161.8 183.0 L-161.8 110.7 -161.8 183.0 M-153.35 -102.85 L-176.05 -69.8 -153.35 -102.85 M217.7 -140.0 L-156.3 -140.0 217.7 -140.0" fill="#8f6401" fill-rule="evenodd" stroke="none"/>
      <path d="M122.75 -97.6 L135.2 -97.6 135.2 58.5 122.75 58.5 122.75 -97.6 M173.7 -97.6 L183.95 -97.6 183.95 -69.8 183.95 -41.3 183.95 110.7 173.7 99.75 173.7 -97.6 M-147.5 -121.0 L-136.65 -97.6 -137.05 -97.7 -137.15 -97.75 -150.6 -102.0 -153.35 -102.9 -153.4 -102.85 -176.05 -110.0 -185.85 -113.05 -176.05 -110.0 -176.05 -69.8 -176.05 -41.3 -176.05 183.0 -186.3 169.0 -186.3 167.75 -186.3 99.75 -186.3 167.75 -224.8 125.25 -237.25 111.5 -238.25 -130.1 Q-231.2 -163.9 -167.65 -183.0 L-167.65 -164.5 -156.3 -140.0 -147.5 -121.0 M-216.7 -123.1 L-224.8 -125.7 -238.25 -130.1 -224.8 -125.7 -224.8 58.5 -224.8 125.25 -224.8 58.5 -186.3 99.75 -186.3 58.5 -186.3 -113.2 -185.85 -113.05 -216.7 -123.1" fill="#765301" fill-rule="evenodd" stroke="none"/>
      <path d="M173.7 99.75 L183.95 110.7 -161.8 110.7 -161.8 58.5 -119.8 58.5 -91.7 88.6 112.85 88.6 89.5 58.5 122.75 58.5 135.2 58.5 143.3 67.2 173.7 99.75 M-224.8 58.5 L-216.7 58.5 -186.3 58.5 -186.3 99.75 -224.8 58.5" fill="#a27100" fill-rule="evenodd" stroke="none"/>
      <path d="M89.5 58.5 L112.85 88.6 -91.7 88.6 -119.8 58.5 89.5 58.5 M85.35 65.75 L-98.65 65.75 85.35 65.75 M91.1 73.25 L-92.15 73.25 91.1 73.25 M97.1 81.25 L-85.9 81.25 97.1 81.25" fill="#3c3c3c" fill-rule="evenodd" stroke="none"/>
      <path d="M122.75 -97.6 L135.2 -97.6 143.3 -97.6 173.7 -97.6 183.95 -97.6 202.9 -97.6 223.35 -97.6 236.3 -97.6 237.3 -97.6 237.15 -97.95 226.5 -121.0 -147.5 -121.0 -136.65 -97.6 -137.3 -100.25 M206.35 -164.5 L206.35 -183.0 -167.65 -183.0 -167.65 -164.5 206.35 -164.5 217.7 -140.0 226.5 -121.0 M183.95 -97.6 L183.95 -69.8 202.9 -97.6 M183.95 -41.3 L198.2 -41.3 236.3 -96.8 M183.95 -69.8 L183.95 -41.3 183.95 110.7 183.55 183.0 198.2 183.0 198.2 -41.3 M185.95 -42.85 L223.35 -97.6 M183.95 110.7 L173.7 99.75 143.3 67.2 135.2 58.5 122.75 58.5 89.5 58.5 112.85 88.6 -91.7 88.6 -119.8 58.5 -161.8 58.5 -161.8 110.7 183.95 110.7 M122.75 58.5 L122.75 -97.6 -123.7 -97.6 M-123.7 -96.8 L-161.8 -41.3 -161.8 58.5 M173.7 -97.6 L173.7 99.75 M135.2 58.5 L135.2 -97.6 M143.3 -97.6 L143.3 67.2 M-224.8 -125.7 L-216.7 -123.1 -185.85 -113.05 -176.05 -110.0 -153.4 -102.85 -153.35 -102.85 -153.35 -102.9 M-150.6 -102.0 L-137.15 -97.75 -137.05 -97.7 -136.65 -97.6 -123.7 -97.6 M-238.25 -130.1 L-224.8 -125.7 -224.8 58.5 -216.7 58.5 -216.7 -123.1 M-186.3 -113.2 L-186.3 58.5 -186.3 99.75 -186.3 167.75 -186.3 169.0 -176.05 183.0 -176.05 -41.3 -176.05 -69.8 -176.05 -110.0 M-167.65 -183.0 Q-231.2 -163.9 -238.25 -130.1 L-237.25 111.5 -224.8 125.25 -224.8 58.5 -186.3 99.75 M-153.35 -102.85 L-150.6 -102.0 M-156.3 -140.0 L-147.5 -121.0 M-136.65 -97.6 L-174.05 -42.85 M-161.8 -41.3 L-176.05 -41.3 M-167.65 -164.5 L-156.3 -140.0 217.7 -140.0 M-176.05 -69.8 L-153.35 -102.85 M-161.8 110.7 L-161.8 183.0 183.55 183.0 M-186.3 58.5 L-216.7 58.5 M-224.8 125.25 L-186.3 167.75 M-176.05 183.0 L-161.8 183.0 M89.5 58.5 L-119.8 58.5 M-85.9 81.25 L97.1 81.25 M-92.15 73.25 L91.1 73.25 M-98.65 65.75 L85.35 65.75" fill="none" stroke="#000000" stroke-linecap="round" stroke-linejoin="round" stroke-width="5.0"/>
      <path d="M147.25 -115.3 Q172.5 -122.7 196.9 -133.7 L212.3 -93.0 Q185.3 -78.1 161.3 -79.0 L147.25 -115.3 M61.65 -100.65 Q88.85 -102.15 115.2 -107.4 L126.2 -74.0 Q100.7 -60.55 71.65 -65.8 L61.65 -100.65 M19.3 -100.55 L19.3 -66.0 Q-11.4 -65.9 -31.65 -70.0 L-31.65 -106.1 Q-5.8 -101.8 19.3 -100.55 M-75.9 -115.55 L-75.9 -78.0 Q-127.5 -80.7 -130.65 -91.0 L-130.65 -132.75 Q-102.9 -122.55 -75.9 -115.55" fill="#ffffff" fill-rule="evenodd" stroke="none"/>
      <path d="M115.2 -107.4 Q131.4 -110.65 147.25 -115.3 172.5 -122.7 196.9 -133.7 207.15 -138.35 217.3 -143.6 M19.3 -100.55 Q36.45 -99.7 53.3 -100.25 L61.65 -100.65 Q88.85 -102.15 115.2 -107.4 L126.2 -74.0 Q100.7 -60.55 71.65 -65.8 L61.65 -100.65 M19.3 -100.55 L19.3 -66.0 Q-11.4 -65.9 -31.65 -70.0 L-31.65 -106.1 Q-53.5 -109.75 -75.9 -115.55 L-75.9 -78.0 Q-127.5 -80.7 -130.65 -91.0 L-130.65 -132.75 Q-143.9 -137.65 -157.3 -143.25 M147.25 -115.3 L161.3 -79.0 Q185.3 -78.1 212.3 -93.0 L196.9 -133.7 M-75.9 -115.55 Q-102.9 -122.55 -130.65 -132.75 M-31.65 -106.1 Q-5.8 -101.8 19.3 -100.55" fill="none" stroke="#000000" stroke-linecap="round" stroke-linejoin="round" stroke-width="5.0"/>
    </g>
  </defs>
</svg>
