<?xml version="1.0" encoding="UTF-8" standalone="no"?>
<svg xmlns:xlink="http://www.w3.org/1999/xlink" height="720.75px" width="1716.8px" xmlns="http://www.w3.org/2000/svg">
  <g transform="matrix(1, 0, 0, 1, 307.05, 450.35)">
    <use height="114.5" transform="matrix(1.0, 0.0, 0.0, 1.0, -64.6, -75.5)" width="155.5" xlink:href="#shape0"/>
  </g>
  <defs>
    <g id="shape0" transform="matrix(1, 0, 0, 1, 64.6, 75.5)">
      <path d="M63.9 -72.0 L63.6 -69.6 63.95 -60.0 63.9 -45.9 63.85 -39.25 64.1 -39.35 66.4 -39.5 67.75 -39.35 68.15 -39.5 68.95 -39.25 69.15 -39.25 69.2 -39.0 Q69.6 -38.4 69.4 -37.0 69.4 -34.55 63.9 -18.45 L71.9 -18.5 79.35 -18.35 79.65 -18.45 84.15 -18.5 Q88.85 -18.5 89.35 -17.6 L89.65 -18.5 90.75 -18.4 90.9 -17.4 Q83.7 13.5 80.65 13.5 L79.4 13.25 Q78.95 12.8 78.9 12.2 L79.0 12.9 Q79.0 13.2 78.15 13.35 L66.15 13.5 55.45 13.15 55.15 14.0 54.15 14.5 53.95 14.3 53.9 14.6 Q53.9 16.35 51.1 25.35 48.05 35.2 46.15 37.5 L45.35 37.0 44.65 37.8 -2.85 38.0 -48.9 37.35 -49.85 39.0 Q-50.9 38.55 -51.05 37.4 L-51.1 36.85 -51.1 36.6 Q-51.1 36.15 -50.75 35.85 L-45.6 23.75 -41.05 13.95 -50.35 14.0 -63.55 13.3 -63.6 12.6 -63.75 11.9 -63.7 11.8 Q-64.6 11.2 -64.6 9.85 -64.6 7.05 -57.9 -5.95 -53.4 -14.6 -51.2 -18.05 L-51.55 -18.2 Q-51.9 -18.4 -51.8 -18.7 L-51.6 -18.9 Q-51.6 -19.85 -50.8 -19.95 L-49.85 -19.95 -49.85 -20.0 -49.8 -19.95 -44.6 -20.0 -40.6 -19.9 -40.6 -40.7 -40.5 -40.7 Q-39.8 -44.55 -33.5 -58.35 L-26.1 -73.7 -26.1 -73.9 Q-26.1 -74.75 -25.4 -74.9 L-25.35 -75.0 -25.25 -74.95 -24.85 -75.0 Q55.4 -75.25 57.65 -75.5 62.5 -75.5 63.65 -73.95 L63.9 -72.0 M59.15 -72.95 L15.4 -72.5 -24.3 -73.15 -37.75 -41.45 6.9 -41.5 Q46.15 -41.3 52.1 -41.0 L51.9 -42.15 Q51.9 -43.25 61.4 -71.75 60.2 -72.95 59.15 -72.95 M66.65 -37.0 L66.4 -37.0 63.85 -37.4 63.8 -28.3 64.4 -30.05 66.65 -37.0 M53.9 -27.75 L53.9 -14.4 53.75 8.6 Q55.55 1.9 61.4 -17.5 L61.6 -18.1 61.4 -18.5 61.4 -61.55 Q58.9 -53.65 53.9 -40.25 L53.35 -40.05 53.2 -39.8 Q53.75 -37.0 53.9 -27.75 M88.65 -16.2 L84.15 -16.0 81.0 -16.1 71.9 -16.0 63.25 -16.25 Q62.35 -8.25 56.15 11.05 L66.15 11.0 79.1 11.5 Q80.2 7.9 88.8 -16.15 L88.85 -16.25 88.65 -16.2 M51.4 11.5 L51.4 -39.2 6.9 -39.0 -38.55 -39.65 -38.7 -39.35 Q-38.2 -36.25 -38.05 -27.4 L-38.0 -19.55 -37.85 -19.5 Q-37.6 -19.45 -37.6 -18.9 -37.6 -18.15 -38.0 -17.85 L-38.1 -13.65 -38.3 11.2 -38.25 11.2 -38.1 11.9 -37.35 12.0 -37.1 12.05 7.15 12.0 51.5 12.4 52.4 12.45 Q51.55 12.15 51.4 11.5 M44.9 35.85 Q44.9 34.35 51.85 14.3 L7.15 14.5 -38.15 13.85 -38.5 13.85 Q-39.45 16.6 -42.65 23.9 L-48.0 35.55 -2.85 35.5 Q41.7 35.75 44.9 36.0 L44.9 35.85 M-49.0 -17.65 Q-50.45 -14.7 -57.1 -3.25 -57.9 -1.7 -59.65 4.2 -61.0 8.8 -63.0 11.6 L-62.85 11.55 -50.35 11.5 -40.6 11.7 -40.6 -17.55 -44.6 -17.5 -49.0 -17.65" fill="#000000" fill-rule="evenodd" stroke="none"/>
      <path d="M66.65 -37.0 L64.4 -30.05 63.8 -28.3 63.85 -37.4 66.4 -37.0 66.65 -37.0 M59.15 -72.95 Q60.2 -72.95 61.4 -71.75 51.9 -43.25 51.9 -42.15 L52.1 -41.0 Q46.15 -41.3 6.9 -41.5 L-37.75 -41.45 -24.3 -73.15 15.4 -72.5 59.15 -72.95 M88.8 -16.15 Q80.2 7.9 79.1 11.5 L66.15 11.0 56.15 11.05 Q62.35 -8.25 63.25 -16.25 L71.9 -16.0 81.0 -16.1 84.15 -16.0 88.65 -16.2 88.8 -16.15 M-49.0 -17.65 L-44.6 -17.5 -40.6 -17.55 -40.6 11.7 -50.35 11.5 -62.85 11.55 -63.0 11.6 Q-61.0 8.8 -59.65 4.2 -57.9 -1.7 -57.1 -3.25 -50.45 -14.7 -49.0 -17.65 M44.9 35.85 L44.9 36.0 Q41.7 35.75 -2.85 35.5 L-48.0 35.55 -42.65 23.9 Q-39.45 16.6 -38.5 13.85 L-38.15 13.85 7.15 14.5 51.85 14.3 Q44.9 34.35 44.9 35.85" fill="#dbaf02" fill-rule="evenodd" stroke="none"/>
      <path d="M-38.25 11.2 L-38.3 11.2 -38.1 -13.65 -38.0 -17.85 Q-37.6 -18.15 -37.6 -18.9 -37.6 -19.45 -37.85 -19.5 L-38.0 -19.55 -38.05 -27.4 Q-38.2 -36.25 -38.7 -39.35 L-38.55 -39.65 6.9 -39.0 51.4 -39.2 51.4 11.5 51.5 12.4 7.15 12.0 -37.1 12.05 -38.25 11.2" fill="#caa202" fill-rule="evenodd" stroke="none"/>
      <path d="M53.9 -27.75 Q53.75 -37.0 53.2 -39.8 L53.35 -40.05 53.9 -40.25 Q58.9 -53.65 61.4 -61.55 L61.4 -18.5 61.6 -18.1 61.4 -17.5 Q55.55 1.9 53.75 8.6 L53.9 -14.4 53.9 -27.75 M88.65 -16.2 L88.85 -16.25 88.8 -16.15 88.65 -16.2" fill="#ba9501" fill-rule="evenodd" stroke="none"/>
      <path d="M-38.25 11.2 L-37.1 12.05 -37.35 12.0 -38.1 11.9 -38.25 11.2 M51.5 12.4 L51.4 11.5 Q51.55 12.15 52.4 12.45 L51.5 12.4" fill="#a08001" fill-rule="evenodd" stroke="none"/>
    </g>
  </defs>
</svg>
