<?xml version="1.0" encoding="UTF-8" standalone="no"?>
<svg xmlns:xlink="http://www.w3.org/1999/xlink" height="720.75px" width="1716.8px" xmlns="http://www.w3.org/2000/svg">
  <g transform="matrix(1, 0, 0, 1, 307.05, 450.35)">
    <use height="43.1" transform="matrix(1.25, 0.0, 0.0, 1.25, -29.0, -26.9375)" width="46.4" xlink:href="#sprite0"/>
  </g>
  <defs>
    <g id="sprite0" transform="matrix(1, 0, 0, 1, 23.2, 21.55)">
      <use height="43.1" transform="matrix(1.0, 0.0, 0.0, 1.0, -23.2, -21.55)" width="46.4" xlink:href="#shape0"/>
    </g>
    <g id="shape0" transform="matrix(1, 0, 0, 1, 23.2, 21.55)">
      <path d="M2.05 -7.65 Q3.0 -7.4 3.9 -6.65 9.75 -12.0 21.65 -14.9 25.25 9.45 5.9 6.55 13.15 10.05 15.9 18.6 6.35 23.35 2.15 16.6 0.05 19.05 -2.1 16.6 -6.3 23.35 -15.85 18.6 -13.15 10.3 -7.1 6.85 -25.15 9.15 -21.6 -14.9 -9.7 -12.0 -3.85 -6.65 -2.95 -7.4 -2.0 -7.65 L2.05 -7.65 M4.9 10.85 Q5.25 17.8 11.4 17.1 9.25 12.65 4.9 10.85 M-11.35 17.1 Q-4.15 17.85 -5.1 10.6 -9.2 12.65 -11.35 17.1 M-5.35 1.1 Q-5.15 -7.25 -18.35 -9.15 -18.95 4.5 -5.35 1.1 M5.65 1.1 Q19.0 4.5 18.4 -9.15 5.2 -7.25 5.65 1.1" fill="#fb9cff" fill-opacity="0.7529412" fill-rule="evenodd" stroke="none"/>
      <path d="M2.05 -7.65 Q3.8 -16.55 6.95 -18.95 9.6 -20.95 11.75 -20.45 13.7 -20.0 13.85 -18.1 13.95 -16.1 11.65 -14.65 M2.05 -7.65 L-2.0 -7.65 Q-2.95 -7.4 -3.85 -6.65 -9.7 -12.0 -21.6 -14.9 -25.15 9.15 -7.1 6.85 -13.15 10.3 -15.85 18.6 -6.3 23.35 -2.1 16.6 0.05 19.05 2.15 16.6 6.35 23.35 15.9 18.6 13.15 10.05 5.9 6.55 25.25 9.45 21.65 -14.9 9.75 -12.0 3.9 -6.65 3.0 -7.4 2.05 -7.65 M-2.0 -7.65 Q-3.75 -16.55 -6.9 -18.95 -9.55 -20.95 -11.7 -20.45 -13.65 -20.0 -13.8 -18.1 -13.9 -16.1 -11.6 -14.65 M-11.35 17.1 Q-9.2 12.65 -5.1 10.6 -4.15 17.85 -11.35 17.1 M4.9 10.85 Q9.25 12.65 11.4 17.1 5.25 17.8 4.9 10.85 M-5.35 1.1 Q-5.15 -7.25 -18.35 -9.15 -18.95 4.5 -5.35 1.1 M5.65 1.1 Q5.2 -7.25 18.4 -9.15 19.0 4.5 5.65 1.1" fill="none" stroke="#fb9cff" stroke-linecap="round" stroke-linejoin="round" stroke-opacity="0.7529412" stroke-width="2.0"/>
    </g>
  </defs>
</svg>
