<?xml version="1.0" encoding="UTF-8" standalone="no"?>
<svg xmlns:xlink="http://www.w3.org/1999/xlink" height="720.75px" width="1716.8px" xmlns="http://www.w3.org/2000/svg">
  <g transform="matrix(1, 0, 0, 1, 307.05, 450.35)">
    <use height="200.0" transform="matrix(1.0, 0.0, 0.0, 1.0, -214.4, -100.0)" width="428.85" xlink:href="#sprite0"/>
  </g>
  <defs>
    <g id="sprite0" transform="matrix(1, 0, 0, 1, 214.4, 100.0)">
      <use height="200.0" transform="matrix(1.0, 0.0, 0.0, 1.0, -214.4, -100.0)" width="428.85" xlink:href="#shape0"/>
    </g>
    <g id="shape0" transform="matrix(1, 0, 0, 1, 214.4, 100.0)">
      <path d="M211.7 -30.1 L211.95 -31.0 Q214.45 -31.0 214.45 -26.4 214.45 -6.55 199.75 23.05 194.35 32.45 185.85 45.25 172.6 65.1 165.45 71.35 L165.45 71.75 164.95 72.05 Q160.4 79.4 117.95 89.0 L112.0 91.65 Q105.9 94.4 99.8 95.65 L99.75 95.65 49.55 98.5 Q9.0 100.0 -7.05 100.0 L-65.0 97.35 Q-110.3 94.6 -122.85 92.7 -142.05 90.05 -160.55 85.3 -177.55 81.05 -194.9 74.4 -206.5 70.0 -211.45 68.45 L-211.9 69.0 -213.7 68.2 -214.0 67.8 -214.15 67.75 Q-214.4 68.75 -214.4 66.25 L-214.4 66.1 -214.4 65.85 Q-214.4 50.2 -208.0 26.05 L-202.45 10.35 Q-197.9 -2.1 -195.4 -5.3 L-195.4 -5.65 Q-195.4 -7.8 -185.85 -28.3 -176.15 -49.15 -171.65 -56.25 -165.6 -65.65 -156.65 -81.0 -152.3 -88.7 -147.15 -93.75 L-146.05 -95.0 Q-145.3 -95.65 -143.4 -96.1 L-120.9 -97.7 -23.6 -98.7 79.95 -99.5 86.45 -100.0 101.85 -99.35 Q126.55 -98.55 162.95 -98.0 164.45 -98.0 168.2 -96.5 170.05 -96.0 174.2 -92.75 175.75 -91.5 176.75 -89.9 L176.95 -90.0 Q180.3 -85.15 194.9 -61.6 L211.45 -34.75 211.45 -30.25 Q211.45 -29.0 208.95 -29.0 L208.6 -29.5 204.45 -35.25 197.35 -45.15 194.05 -49.7 190.95 -53.95 187.95 -58.0 187.1 -59.3 Q185.7 -61.6 183.35 -66.4 L180.25 -72.85 177.5 -78.85 Q175.1 -71.3 167.0 -53.9 L165.25 -50.1 159.25 -37.65 155.7 -30.5 153.95 -26.25 150.55 -17.7 Q147.15 -9.5 143.45 -4.25 L141.25 -1.65 Q146.5 2.4 153.6 18.45 L154.15 19.65 160.05 34.6 160.25 35.1 162.9 43.25 162.95 43.25 163.45 44.95 165.45 52.25 165.45 63.65 173.3 54.15 Q183.3 41.4 189.15 31.65 L191.55 27.5 193.75 23.2 193.8 23.05 194.2 22.15 194.65 21.15 194.7 21.0 Q199.15 10.6 211.7 -30.1 M19.8 -94.3 L-69.8 -93.6 -77.4 -93.5 -141.4 -92.5 Q-142.25 -92.5 -144.3 -90.2 -146.3 -87.95 -146.9 -86.5 -148.55 -82.5 -153.4 -75.25 -162.6 -61.9 -168.4 -52.0 -173.05 -44.35 -181.7 -26.1 L-186.45 -15.85 Q-181.55 -15.15 -163.9 -11.0 -156.25 -9.65 -149.35 -7.7 -144.3 -6.25 -142.9 -6.25 L-115.65 -6.35 -109.75 -6.4 -20.4 -6.9 -15.0 -6.95 Q21.5 -7.2 33.75 -7.4 67.0 -5.9 88.55 -8.95 L91.45 -9.4 96.2 -10.15 Q115.85 -13.45 119.75 -14.75 L124.95 -15.0 126.8 -14.85 Q128.35 -18.55 137.3 -32.1 L149.15 -50.3 151.25 -53.85 151.45 -54.25 Q154.2 -59.45 158.85 -75.15 162.0 -85.8 164.35 -90.95 154.3 -92.7 133.1 -93.6 L127.35 -93.8 Q107.35 -94.5 78.7 -94.5 L27.65 -94.35 19.8 -94.3 M168.35 -89.8 L168.45 -85.65 Q161.9 -67.55 156.25 -53.85 L154.75 -50.25 Q141.1 -18.0 132.85 -12.25 135.45 -10.1 137.45 -6.25 L137.4 -5.45 137.9 -5.85 Q140.7 -8.3 142.2 -11.25 L152.2 -35.25 159.25 -50.15 161.0 -53.85 Q173.45 -80.6 173.45 -82.9 174.5 -85.15 174.3 -86.45 173.9 -88.6 168.45 -90.05 L168.3 -90.1 168.35 -89.8 M93.0 -3.1 L85.7 -2.55 66.3 -1.75 Q43.25 -1.2 -17.2 -1.05 L-22.85 -1.0 -62.05 -1.0 Q-90.4 -1.0 -112.35 -1.5 L-118.1 -1.65 Q-157.95 -2.8 -174.95 -5.75 -183.75 -7.25 -187.2 -9.5 L-188.65 -10.75 Q-190.4 -6.5 -190.4 -5.5 L-190.4 -5.45 Q-190.35 -3.7 -183.0 -1.6 -174.6 0.8 -159.4 2.75 -143.1 4.85 -122.2 6.05 L-116.75 6.35 Q-89.75 7.75 -55.55 7.75 L-26.6 7.85 -20.6 7.9 20.65 8.2 Q59.9 8.4 80.45 7.4 L81.35 7.35 88.45 6.95 Q109.5 5.45 121.7 2.0 129.25 -0.15 134.25 -3.2 133.0 -3.85 130.4 -6.35 L126.95 -9.75 119.4 -9.6 104.95 -5.0 Q101.2 -3.85 93.0 -3.1 M148.05 24.15 L147.5 23.1 142.95 14.4 142.4 13.35 136.5 2.1 Q130.25 6.05 120.25 8.5 107.35 11.7 85.7 12.95 L78.85 13.25 77.8 13.3 63.2 13.7 55.0 13.8 18.45 13.65 -22.6 13.25 -28.85 13.2 -55.55 13.0 Q-96.55 13.0 -120.15 12.05 L-125.4 11.8 -130.9 11.5 Q-167.4 9.25 -183.25 4.1 L-187.95 2.25 -192.3 -0.3 -196.5 10.3 -201.0 22.1 -202.35 26.1 Q-203.7 30.0 -204.15 32.25 -204.95 36.1 -205.25 41.85 L-205.7 51.25 Q-206.3 58.65 -208.85 64.1 -204.6 64.55 -197.05 67.45 L-193.65 68.8 -187.1 71.45 Q-174.45 76.4 -163.9 79.4 -144.85 84.75 -120.1 88.25 L-119.8 88.3 -108.05 89.8 -74.45 92.8 -62.5 93.45 -54.95 93.8 Q-39.65 94.45 -22.95 94.65 L-11.2 94.75 -7.3 94.75 -6.8 94.75 -6.35 94.75 82.5 92.25 82.85 92.2 84.4 92.05 94.05 91.05 101.1 89.95 Q108.85 88.5 112.7 86.3 116.35 84.25 117.95 84.0 138.7 80.95 152.15 74.6 156.45 72.55 160.0 70.15 L160.25 70.0 161.2 68.85 Q159.3 63.65 157.9 56.05 155.45 42.5 153.45 36.5 152.3 32.95 149.5 27.1 L148.05 24.15" fill="#000000" fill-rule="evenodd" stroke="none"/>
      <path d="M19.8 -94.3 L27.65 -94.35 78.7 -94.5 Q107.35 -94.5 127.35 -93.8 L133.1 -93.6 Q154.3 -92.7 164.35 -90.95 162.0 -85.8 158.85 -75.15 154.2 -59.45 151.45 -54.25 L151.25 -53.85 149.15 -50.3 137.3 -32.1 Q128.35 -18.55 126.8 -14.85 L124.95 -15.0 119.75 -14.75 Q115.85 -13.45 96.2 -10.15 L91.45 -9.4 88.55 -8.95 Q67.0 -5.9 33.75 -7.4 21.5 -7.2 -15.0 -6.95 L-20.4 -6.9 -109.75 -6.4 -115.65 -6.35 -142.9 -6.25 Q-144.3 -6.25 -149.35 -7.7 -156.25 -9.65 -163.9 -11.0 -181.55 -15.15 -186.45 -15.85 L-181.7 -26.1 Q-173.05 -44.35 -168.4 -52.0 -162.6 -61.9 -153.4 -75.25 -148.55 -82.5 -146.9 -86.5 -146.3 -87.95 -144.3 -90.2 -142.25 -92.5 -141.4 -92.5 L-77.4 -93.5 -69.8 -93.6 19.8 -94.3" fill="#cca300" fill-rule="evenodd" stroke="none"/>
      <path d="M137.45 -6.25 Q135.45 -10.1 132.85 -12.25 141.1 -18.0 154.75 -50.25 L156.25 -53.85 Q161.9 -67.55 168.45 -85.65 L168.35 -89.8 168.45 -90.05 Q173.9 -88.6 174.3 -86.45 174.5 -85.15 173.45 -82.9 173.45 -80.6 161.0 -53.85 L159.25 -50.15 152.2 -35.25 142.2 -11.25 Q140.7 -8.3 137.9 -5.85 L137.45 -6.25" fill="#aa8800" fill-rule="evenodd" stroke="none"/>
      <path d="M93.0 -3.1 Q101.2 -3.85 104.95 -5.0 L119.4 -9.6 126.95 -9.75 130.4 -6.35 Q133.0 -3.85 134.25 -3.2 129.25 -0.15 121.7 2.0 109.5 5.45 88.45 6.95 L81.35 7.35 80.45 7.4 Q59.9 8.4 20.65 8.2 L-20.6 7.9 -26.6 7.85 -55.55 7.75 Q-89.75 7.75 -116.75 6.35 L-122.2 6.05 Q-143.1 4.85 -159.4 2.75 -174.6 0.8 -183.0 -1.6 -190.35 -3.7 -190.4 -5.45 L-190.4 -5.5 Q-190.4 -6.5 -188.65 -10.75 L-187.2 -9.5 Q-183.75 -7.25 -174.95 -5.75 -157.95 -2.8 -118.1 -1.65 L-112.35 -1.5 Q-90.4 -1.0 -62.05 -1.0 L-22.85 -1.0 -17.2 -1.05 Q43.25 -1.2 66.3 -1.75 L85.7 -2.55 93.0 -3.1" fill="#bb9500" fill-rule="evenodd" stroke="none"/>
      <path d="M211.45 -30.25 L211.7 -30.1 Q199.15 10.6 194.7 21.0 L194.65 21.15 194.2 22.15 193.8 23.05 193.75 23.2 193.7 23.05 Q192.3 19.25 187.95 19.25 185.4 19.25 183.5 21.25 182.7 22.1 182.25 23.0 181.7 24.15 181.7 25.35 L181.9 27.4 Q182.8 31.75 187.95 31.75 L189.15 31.65 Q183.3 41.4 173.3 54.15 L165.45 63.65 165.45 52.25 163.45 44.95 162.95 43.25 165.95 43.75 Q168.65 43.75 170.5 41.75 172.2 39.9 172.2 37.6 171.7 31.25 165.95 31.25 163.4 31.25 161.5 33.25 160.65 34.15 160.25 35.1 L160.05 34.6 154.15 19.65 153.6 18.45 Q146.5 2.4 141.25 -1.65 L143.45 -4.25 Q147.15 -9.5 150.55 -17.7 L153.95 -26.25 Q155.45 -25.25 157.95 -25.25 160.55 -25.25 162.45 -27.25 164.2 -29.1 164.2 -31.4 163.65 -37.0 159.25 -37.65 L165.25 -50.1 167.0 -53.9 Q175.1 -71.3 177.5 -78.85 L180.25 -72.85 183.35 -66.4 180.95 -66.75 Q178.35 -66.75 176.5 -64.75 174.7 -62.9 174.7 -60.65 174.7 -58.75 175.45 -57.25 176.95 -54.25 180.95 -54.25 183.65 -54.25 185.5 -56.25 186.8 -57.65 187.1 -59.3 L187.95 -58.0 190.95 -53.95 194.05 -49.7 197.35 -45.15 Q196.35 -44.65 195.5 -43.75 193.7 -41.9 193.7 -39.65 193.7 -37.8 194.5 -36.25 196.0 -33.25 199.95 -33.25 202.55 -33.25 204.45 -35.25 L208.6 -29.5 208.95 -29.0 Q211.45 -29.0 211.45 -30.25 M177.45 12.75 Q179.2 10.9 179.2 8.6 178.6 2.25 172.95 2.25 170.35 2.25 168.5 4.25 166.7 6.1 166.7 8.35 166.7 10.2 167.5 11.75 169.0 14.75 172.95 14.75 175.55 14.75 177.45 12.75 M198.2 -11.4 Q197.7 -17.75 191.95 -17.75 189.4 -17.75 187.5 -15.75 185.7 -13.85 185.7 -11.65 185.7 -9.8 186.5 -8.25 188.0 -5.25 191.95 -5.25 194.65 -5.25 196.5 -7.25 198.2 -9.1 198.2 -11.4" fill="#6f5ffe" fill-rule="evenodd" stroke="none"/>
      <path d="M137.9 -5.85 L137.4 -5.45 137.45 -6.25 137.9 -5.85" fill="#ba9501" fill-rule="evenodd" stroke="none"/>
      <path d="M168.35 -89.8 L168.3 -90.1 168.45 -90.05 168.35 -89.8" fill="#a08001" fill-rule="evenodd" stroke="none"/>
      <path d="M193.75 23.2 L191.55 27.5 189.15 31.65 187.95 31.75 Q182.8 31.75 181.9 27.4 L181.7 25.35 Q181.7 24.15 182.25 23.0 182.7 22.1 183.5 21.25 185.4 19.25 187.95 19.25 192.3 19.25 193.7 23.05 L193.75 23.2 M162.95 43.25 L162.9 43.25 160.25 35.1 Q160.65 34.15 161.5 33.25 163.4 31.25 165.95 31.25 171.7 31.25 172.2 37.6 172.2 39.9 170.5 41.75 168.65 43.75 165.95 43.75 L162.95 43.25 M153.95 -26.25 L155.7 -30.5 159.25 -37.65 Q163.65 -37.0 164.2 -31.4 164.2 -29.1 162.45 -27.25 160.55 -25.25 157.95 -25.25 155.45 -25.25 153.95 -26.25 M183.35 -66.4 Q185.7 -61.6 187.1 -59.3 186.8 -57.65 185.5 -56.25 183.65 -54.25 180.95 -54.25 176.95 -54.25 175.45 -57.25 174.7 -58.75 174.7 -60.65 174.7 -62.9 176.5 -64.75 178.35 -66.75 180.95 -66.75 L183.35 -66.4 M197.35 -45.15 L204.45 -35.25 Q202.55 -33.25 199.95 -33.25 196.0 -33.25 194.5 -36.25 193.7 -37.8 193.7 -39.65 193.7 -41.9 195.5 -43.75 196.35 -44.65 197.35 -45.15 M198.2 -11.4 Q198.2 -9.1 196.5 -7.25 194.65 -5.25 191.95 -5.25 188.0 -5.25 186.5 -8.25 185.7 -9.8 185.7 -11.65 185.7 -13.85 187.5 -15.75 189.4 -17.75 191.95 -17.75 197.7 -17.75 198.2 -11.4 M177.45 12.75 Q175.55 14.75 172.95 14.75 169.0 14.75 167.5 11.75 166.7 10.2 166.7 8.35 166.7 6.1 168.5 4.25 170.35 2.25 172.95 2.25 178.6 2.25 179.2 8.6 179.2 10.9 177.45 12.75 M142.4 13.35 L142.95 14.4 147.5 23.1 148.05 24.15 147.5 24.5 Q145.5 25.75 143.45 25.75 139.1 25.75 137.6 23.15 136.7 21.65 136.7 19.35 136.7 16.2 139.25 14.5 140.7 13.55 142.4 13.35 M160.0 70.15 Q156.45 72.55 152.15 74.6 149.6 74.0 148.45 71.75 147.7 70.25 147.7 68.35 147.7 66.1 149.5 64.25 151.35 62.25 153.95 62.25 159.7 62.25 160.2 68.6 L160.0 70.15 M94.05 91.05 L84.4 92.05 83.5 90.75 Q82.7 89.2 82.7 87.35 82.7 85.15 84.5 83.25 86.4 81.25 88.95 81.25 94.6 81.25 95.2 87.6 95.2 89.45 94.05 91.05 M-11.2 94.75 L-22.95 94.65 Q-23.3 93.6 -23.3 92.35 -23.3 90.1 -21.5 88.25 -19.65 86.25 -17.05 86.25 -11.3 86.25 -10.8 92.6 -10.8 93.75 -11.2 94.75 M-108.05 89.8 L-119.8 88.3 -120.1 88.25 -120.15 87.35 Q-120.15 85.15 -118.4 83.25 -116.5 81.25 -113.9 81.25 -108.3 81.25 -107.65 87.6 L-107.7 88.35 -108.05 89.8 M-187.1 71.45 L-193.65 68.8 -197.05 67.45 -197.15 66.35 Q-197.15 64.15 -195.4 62.25 -193.5 60.25 -190.9 60.25 -185.15 60.25 -184.65 66.6 -184.65 68.9 -186.35 70.75 L-187.1 71.45 M-187.95 2.25 L-183.25 4.1 Q-181.9 5.65 -181.65 8.6 -181.65 10.9 -183.35 12.75 -185.2 14.75 -187.9 14.75 -191.85 14.75 -193.35 11.75 -194.15 10.2 -194.15 8.35 -194.15 6.1 -192.4 4.25 -190.5 2.3 -187.95 2.25 M55.0 13.8 L63.2 13.7 Q64.9 15.25 65.2 18.6 65.2 20.9 63.45 22.75 L62.5 23.6 Q60.95 24.75 58.95 24.75 56.35 24.75 54.8 23.45 54.0 22.75 53.5 21.75 52.7 20.2 52.7 18.35 52.7 16.15 54.5 14.25 L55.0 13.8 M140.95 38.25 Q146.7 38.25 147.2 44.6 147.2 46.9 145.5 48.75 143.65 50.75 140.95 50.75 137.0 50.75 135.5 47.75 134.7 46.2 134.7 44.35 134.7 42.1 136.5 40.25 138.35 38.25 140.95 38.25 M110.35 23.2 Q111.05 24.55 111.2 26.6 111.2 28.9 109.5 30.75 107.65 32.75 104.95 32.75 101.0 32.75 99.5 29.75 98.7 28.2 98.7 26.4 L98.7 26.35 Q98.7 24.65 99.7 23.2 L100.5 22.25 Q102.35 20.25 104.95 20.25 108.85 20.25 110.35 23.2 M102.95 44.25 Q108.7 44.25 109.2 50.6 109.2 52.9 107.5 54.75 105.65 56.75 102.95 56.75 98.95 56.75 97.45 53.75 96.7 52.25 96.7 50.35 96.7 48.1 98.5 46.25 100.35 44.25 102.95 44.25 M119.7 71.35 Q119.7 69.1 121.5 67.25 123.35 65.25 125.95 65.25 131.7 65.25 132.2 71.6 132.2 73.9 130.5 75.75 128.65 77.75 125.95 77.75 122.0 77.75 120.5 74.75 119.7 73.2 119.7 71.35 M54.5 43.25 Q56.35 41.25 58.95 41.25 64.6 41.25 65.2 47.6 L65.2 47.7 Q65.2 49.95 63.45 51.75 L62.9 52.3 Q61.2 53.75 58.95 53.75 55.0 53.75 53.5 50.75 52.7 49.2 52.7 47.35 52.7 45.1 54.5 43.25 M33.2 36.6 Q33.2 38.9 31.5 40.75 29.65 42.75 26.95 42.75 23.0 42.75 21.5 39.75 20.7 38.2 20.7 36.35 20.7 34.15 22.5 32.25 24.4 30.25 26.95 30.25 32.7 30.25 33.2 36.6 M37.2 79.6 Q37.2 81.9 35.5 83.75 33.65 85.75 30.95 85.75 24.7 85.75 24.7 79.35 24.7 77.15 26.5 75.25 28.4 73.25 30.95 73.25 36.7 73.25 37.2 79.6 M-3.8 30.6 Q-3.8 32.9 -5.55 34.75 -7.45 36.75 -10.05 36.75 -14.0 36.75 -15.5 33.75 -16.3 32.2 -16.3 30.35 -16.3 28.35 -14.8 26.6 L-14.5 26.25 Q-12.6 24.25 -10.05 24.25 -6.45 24.25 -4.85 26.85 -4.0 28.3 -3.8 30.6 M-52.05 36.75 Q-56.0 36.75 -57.5 33.75 -58.3 32.2 -58.3 30.35 -58.3 28.45 -56.95 26.8 L-56.5 26.25 Q-54.6 24.25 -52.05 24.25 -48.5 24.25 -46.95 26.8 -46.0 28.25 -45.8 30.6 -45.8 32.9 -47.55 34.75 -49.45 36.75 -52.05 36.75 M-69.4 67.25 Q-67.55 65.25 -65.05 65.25 -59.3 65.25 -58.8 71.6 -58.8 73.9 -60.5 75.75 -62.35 77.75 -65.05 77.75 -68.9 77.75 -70.4 74.75 -71.15 73.2 -71.15 71.35 -71.15 69.1 -69.4 67.25 M-11.5 66.75 Q-12.3 65.2 -12.3 63.35 -12.3 61.15 -10.5 59.25 -8.6 57.25 -6.05 57.25 -0.3 57.25 0.2 63.6 0.2 65.9 -1.5 67.75 -3.35 69.75 -6.05 69.75 -10.0 69.75 -11.5 66.75 M-102.65 20.6 L-102.9 22.3 Q-103.3 23.6 -104.35 24.75 -105.95 26.45 -108.15 26.7 L-108.9 26.75 -109.95 26.7 Q-113.15 26.35 -114.4 23.75 L-114.95 22.25 -115.15 20.35 Q-115.15 18.1 -113.4 16.25 -111.5 14.25 -108.9 14.25 -103.15 14.25 -102.65 20.6 M-102.9 47.25 Q-97.15 47.25 -96.65 53.6 -96.65 55.9 -98.35 57.75 -100.2 59.75 -102.9 59.75 -106.95 59.75 -108.4 56.75 -109.15 55.3 -109.15 53.35 -109.15 51.1 -107.4 49.25 -105.5 47.25 -102.9 47.25 M-140.65 46.6 Q-140.65 48.9 -142.4 50.75 -144.3 52.75 -146.9 52.75 -153.15 52.75 -153.15 46.35 -153.15 44.15 -151.4 42.25 -149.5 40.25 -146.9 40.25 -141.3 40.25 -140.65 46.6 M-183.15 32.35 Q-183.15 30.1 -181.4 28.25 -179.8 26.55 -177.7 26.3 L-176.9 26.25 -175.8 26.35 Q-171.25 26.9 -170.65 32.6 -170.65 34.9 -172.4 36.75 -174.3 38.75 -176.9 38.75 -180.85 38.75 -182.35 35.75 -183.15 34.2 -183.15 32.35" fill="#ffffff" fill-rule="evenodd" stroke="none"/>
      <path d="M142.4 13.35 Q140.7 13.55 139.25 14.5 136.7 16.2 136.7 19.35 136.7 21.65 137.6 23.15 139.1 25.75 143.45 25.75 145.5 25.75 147.5 24.5 L148.05 24.15 149.5 27.1 Q152.3 32.95 153.45 36.5 155.45 42.5 157.9 56.05 159.3 63.65 161.2 68.85 L160.25 70.0 160.0 70.15 160.2 68.6 Q159.7 62.25 153.95 62.25 151.35 62.25 149.5 64.25 147.7 66.1 147.7 68.35 147.7 70.25 148.45 71.75 149.6 74.0 152.15 74.6 138.7 80.95 117.95 84.0 116.35 84.25 112.7 86.3 108.85 88.5 101.1 89.95 L94.05 91.05 Q95.2 89.45 95.2 87.6 94.6 81.25 88.95 81.25 86.4 81.25 84.5 83.25 82.7 85.15 82.7 87.35 82.7 89.2 83.5 90.75 L84.4 92.05 82.85 92.2 82.5 92.25 -6.35 94.75 -6.8 94.75 -7.3 94.75 -11.2 94.75 Q-10.8 93.75 -10.8 92.6 -11.3 86.25 -17.05 86.25 -19.65 86.25 -21.5 88.25 -23.3 90.1 -23.3 92.35 -23.3 93.6 -22.95 94.65 -39.65 94.45 -54.95 93.8 L-62.5 93.45 -74.45 92.8 -108.05 89.8 -107.7 88.35 -107.65 87.6 Q-108.3 81.25 -113.9 81.25 -116.5 81.25 -118.4 83.25 -120.15 85.15 -120.15 87.35 L-120.1 88.25 Q-144.85 84.75 -163.9 79.4 -174.45 76.4 -187.1 71.45 L-186.35 70.75 Q-184.65 68.9 -184.65 66.6 -185.15 60.25 -190.9 60.25 -193.5 60.25 -195.4 62.25 -197.15 64.15 -197.15 66.35 L-197.05 67.45 Q-204.6 64.55 -208.85 64.1 -206.3 58.65 -205.7 51.25 L-205.25 41.85 Q-204.95 36.1 -204.15 32.25 -203.7 30.0 -202.35 26.1 L-201.0 22.1 -196.5 10.3 -192.3 -0.3 -187.95 2.25 Q-190.5 2.3 -192.4 4.25 -194.15 6.1 -194.15 8.35 -194.15 10.2 -193.35 11.75 -191.85 14.75 -187.9 14.75 -185.2 14.75 -183.35 12.75 -181.65 10.9 -181.65 8.6 -181.9 5.65 -183.25 4.1 -167.4 9.25 -130.9 11.5 L-125.4 11.8 -120.15 12.05 Q-96.55 13.0 -55.55 13.0 L-28.85 13.2 -22.6 13.25 18.45 13.65 55.0 13.8 54.5 14.25 Q52.7 16.15 52.7 18.35 52.7 20.2 53.5 21.75 54.0 22.75 54.8 23.45 56.35 24.75 58.95 24.75 60.95 24.75 62.5 23.6 L63.45 22.75 Q65.2 20.9 65.2 18.6 64.9 15.25 63.2 13.7 L77.8 13.3 78.85 13.25 85.7 12.95 Q107.35 11.7 120.25 8.5 130.25 6.05 136.5 2.1 L142.4 13.35 M-183.15 32.35 Q-183.15 34.2 -182.35 35.75 -180.85 38.75 -176.9 38.75 -174.3 38.75 -172.4 36.75 -170.65 34.9 -170.65 32.6 -171.25 26.9 -175.8 26.35 L-176.9 26.25 -177.7 26.3 Q-179.8 26.55 -181.4 28.25 -183.15 30.1 -183.15 32.35 M-140.65 46.6 Q-141.3 40.25 -146.9 40.25 -149.5 40.25 -151.4 42.25 -153.15 44.15 -153.15 46.35 -153.15 52.75 -146.9 52.75 -144.3 52.75 -142.4 50.75 -140.65 48.9 -140.65 46.6 M-102.9 47.25 Q-105.5 47.25 -107.4 49.25 -109.15 51.1 -109.15 53.35 -109.15 55.3 -108.4 56.75 -106.95 59.75 -102.9 59.75 -100.2 59.75 -98.35 57.75 -96.65 55.9 -96.65 53.6 -97.15 47.25 -102.9 47.25 M-102.65 20.6 Q-103.15 14.25 -108.9 14.25 -111.5 14.25 -113.4 16.25 -115.15 18.1 -115.15 20.35 L-114.95 22.25 -114.4 23.75 Q-113.15 26.35 -109.95 26.7 L-108.9 26.75 -108.15 26.7 Q-105.95 26.45 -104.35 24.75 -103.3 23.6 -102.9 22.3 L-102.65 20.6 M-11.5 66.75 Q-10.0 69.75 -6.05 69.75 -3.35 69.75 -1.5 67.75 0.2 65.9 0.2 63.6 -0.3 57.25 -6.05 57.25 -8.6 57.25 -10.5 59.25 -12.3 61.15 -12.3 63.35 -12.3 65.2 -11.5 66.75 M-69.4 67.25 Q-71.15 69.1 -71.15 71.35 -71.15 73.2 -70.4 74.75 -68.9 77.75 -65.05 77.75 -62.35 77.75 -60.5 75.75 -58.8 73.9 -58.8 71.6 -59.3 65.25 -65.05 65.25 -67.55 65.25 -69.4 67.25 M-52.05 36.75 Q-49.45 36.75 -47.55 34.75 -45.8 32.9 -45.8 30.6 -46.0 28.25 -46.95 26.8 -48.5 24.25 -52.05 24.25 -54.6 24.25 -56.5 26.25 L-56.95 26.8 Q-58.3 28.45 -58.3 30.35 -58.3 32.2 -57.5 33.75 -56.0 36.75 -52.05 36.75 M-3.8 30.6 Q-4.0 28.3 -4.85 26.85 -6.45 24.25 -10.05 24.25 -12.6 24.25 -14.5 26.25 L-14.8 26.6 Q-16.3 28.35 -16.3 30.35 -16.3 32.2 -15.5 33.75 -14.0 36.75 -10.05 36.75 -7.45 36.75 -5.55 34.75 -3.8 32.9 -3.8 30.6 M37.2 79.6 Q36.7 73.25 30.95 73.25 28.4 73.25 26.5 75.25 24.7 77.15 24.7 79.35 24.7 85.75 30.95 85.75 33.65 85.75 35.5 83.75 37.2 81.9 37.2 79.6 M33.2 36.6 Q32.7 30.25 26.95 30.25 24.4 30.25 22.5 32.25 20.7 34.15 20.7 36.35 20.7 38.2 21.5 39.75 23.0 42.75 26.95 42.75 29.65 42.75 31.5 40.75 33.2 38.9 33.2 36.6 M54.5 43.25 Q52.7 45.1 52.7 47.35 52.7 49.2 53.5 50.75 55.0 53.75 58.95 53.75 61.2 53.75 62.9 52.3 L63.45 51.75 Q65.2 49.95 65.2 47.7 L65.2 47.6 Q64.6 41.25 58.95 41.25 56.35 41.25 54.5 43.25 M119.7 71.35 Q119.7 73.2 120.5 74.75 122.0 77.75 125.95 77.75 128.65 77.75 130.5 75.75 132.2 73.9 132.2 71.6 131.7 65.25 125.95 65.25 123.35 65.25 121.5 67.25 119.7 69.1 119.7 71.35 M102.95 44.25 Q100.35 44.25 98.5 46.25 96.7 48.1 96.7 50.35 96.7 52.25 97.45 53.75 98.95 56.75 102.95 56.75 105.65 56.75 107.5 54.75 109.2 52.9 109.2 50.6 108.7 44.25 102.95 44.25 M110.35 23.2 Q108.85 20.25 104.95 20.25 102.35 20.25 100.5 22.25 L99.7 23.2 Q98.7 24.65 98.7 26.35 L98.7 26.4 Q98.7 28.2 99.5 29.75 101.0 32.75 104.95 32.75 107.65 32.75 109.5 30.75 111.2 28.9 111.2 26.6 111.05 24.55 110.35 23.2 M140.95 38.25 Q138.35 38.25 136.5 40.25 134.7 42.1 134.7 44.35 134.7 46.2 135.5 47.75 137.0 50.75 140.95 50.75 143.65 50.75 145.5 48.75 147.2 46.9 147.2 44.6 146.7 38.25 140.95 38.25" fill="#7566ff" fill-rule="evenodd" stroke="none"/>
    </g>
  </defs>
</svg>
