<?xml version="1.0" encoding="UTF-8" standalone="no"?>
<svg xmlns:xlink="http://www.w3.org/1999/xlink" height="720.75px" width="1716.8px" xmlns="http://www.w3.org/2000/svg">
  <g transform="matrix(1, 0, 0, 1, 307.05, 450.35)">
    <use height="72.9" transform="matrix(0.75, 0.0, 0.0, 0.75, -31.125, -27.3375)" width="83.0" xlink:href="#sprite0"/>
  </g>
  <defs>
    <g id="sprite0" transform="matrix(1, 0, 0, 1, 41.5, 36.45)">
      <use height="72.9" transform="matrix(1.0, 0.0, 0.0, 1.0, -41.5, -36.45)" width="83.0" xlink:href="#shape0"/>
    </g>
    <g id="shape0" transform="matrix(1, 0, 0, 1, 41.5, 36.45)">
      <path d="M-14.0 34.0 Q-27.0 32.15 -40.0 26.95 -37.5 -3.95 -25.25 -20.7 -14.2 -35.85 0.75 -34.9 15.5 -34.05 26.4 -18.2 38.2 -1.0 40.0 26.95 29.05 31.35 18.1 33.35 L18.1 -1.05 Q0.15 -8.55 -14.0 -1.05 L-14.0 34.0" fill="#ffffff" fill-rule="evenodd" stroke="none"/>
      <path d="M18.1 33.35 Q2.05 36.2 -14.0 34.0 L-14.0 -1.05 Q0.15 -8.55 18.1 -1.05 L18.1 33.35" fill="#373737" fill-rule="evenodd" stroke="none"/>
      <path d="M-14.0 34.0 Q-27.0 32.15 -40.0 26.95 -37.5 -3.95 -25.25 -20.7 -14.2 -35.85 0.75 -34.9 15.5 -34.05 26.4 -18.2 38.2 -1.0 40.0 26.95 29.05 31.35 18.1 33.35 2.05 36.2 -14.0 34.0 L-14.0 -1.05 Q0.15 -8.55 18.1 -1.05 L18.1 33.35" fill="none" stroke="#000000" stroke-linecap="round" stroke-linejoin="round" stroke-width="3.0"/>
    </g>
  </defs>
</svg>
