<?xml version="1.0" encoding="UTF-8" standalone="no"?>
<svg xmlns:xlink="http://www.w3.org/1999/xlink" height="720.75px" width="1716.8px" xmlns="http://www.w3.org/2000/svg">
  <g transform="matrix(1, 0, 0, 1, 307.05, 450.35)">
    <use height="87.6" transform="matrix(1.0, 0.0, 0.0, 1.0, -5.0, -43.9)" width="10.0" xlink:href="#shape0"/>
  </g>
  <defs>
    <g id="shape0" transform="matrix(1, 0, 0, 1, 5.0, 43.9)">
      <path d="M3.5 32.2 L3.5 42.2 -3.5 42.2 -3.5 32.2 3.5 32.2" fill="#b32222" fill-rule="evenodd" stroke="none"/>
      <path d="M-3.5 32.2 Q-2.95 -5.45 -0.2 -42.4 2.75 -5.1 3.5 32.2 L-3.5 32.2" fill="#ffffff" fill-rule="evenodd" stroke="none"/>
      <path d="M3.5 32.2 L3.5 42.2 -3.5 42.2 -3.5 32.2 Q-2.95 -5.45 -0.2 -42.4 2.75 -5.1 3.5 32.2 L-3.5 32.2" fill="none" stroke="#000000" stroke-linecap="round" stroke-linejoin="round" stroke-width="3.0"/>
    </g>
  </defs>
</svg>
