<?xml version="1.0" encoding="UTF-8" standalone="no"?>
<svg xmlns:xlink="http://www.w3.org/1999/xlink" height="720.75px" width="1716.8px" xmlns="http://www.w3.org/2000/svg">
  <g transform="matrix(1, 0, 0, 1, 307.05, 450.35)">
    <use height="116.4" transform="matrix(1.0, 0.0, 0.0, 1.0, -228.65, -60.2)" width="457.3" xlink:href="#sprite0"/>
  </g>
  <defs>
    <g id="sprite0" transform="matrix(1, 0, 0, 1, 228.65, 58.2)">
      <use height="116.4" transform="matrix(1.0, 0.0, 0.0, 1.0, -228.65, -58.2)" width="457.3" xlink:href="#shape0"/>
    </g>
    <g id="shape0" transform="matrix(1, 0, 0, 1, 228.65, 58.2)">
      <path d="M-31.55 -2.05 L-31.55 7.95 -31.55 9.0 Q-38.85 14.95 -46.3 16.6 L-46.3 -7.1 Q-38.85 -7.1 -31.55 -2.05 M-166.0 -33.65 L-168.65 -35.2 Q-169.7 -35.85 -169.75 -36.35 -173.2 -39.1 -173.9 -42.95 L-168.65 -42.8 -155.65 -38.75 -155.75 -38.6 -156.4 -37.45 -156.5 -36.8 -156.45 -36.45 -156.05 -36.1 -155.3 -35.95 -154.7 -36.1 -154.2 -36.45 -153.85 -36.85 -153.7 -37.2 -150.5 -37.25 -139.3 -34.1 -146.3 -37.15 -131.35 -35.7 -128.0 -34.55 -130.4 -35.5 Q-114.15 -32.7 -98.85 -25.1 -85.35 -18.45 -72.2 -11.05 L-79.7 -13.4 -81.15 -13.7 -78.3 -11.95 -96.1 -18.05 Q-113.85 -24.25 -132.15 -26.85 -141.5 -29.1 -151.05 -30.3 L-146.05 -28.3 -157.15 -28.75 -166.0 -33.65 -165.0 -33.6 -158.05 -33.15 -130.2 -30.25 -129.65 -30.2 -115.1 -27.95 -112.2 -27.45 -104.25 -26.05 -112.2 -27.45 -115.1 -27.95 -129.65 -30.2 -130.2 -30.25 -158.05 -33.15 -165.0 -33.6 -166.0 -33.65 M-174.05 -44.95 L-173.85 -47.55 -171.95 -46.15 -171.6 -45.75 -172.3 -45.8 -172.35 -45.75 -173.8 -45.1 -174.05 -44.95 M-165.05 -46.1 L-176.0 -51.8 Q-177.95 -52.85 -174.85 -53.55 L-170.5 -51.5 -168.85 -52.55 Q-151.75 -47.9 -134.6 -42.3 L-124.25 -38.8 Q-143.55 -43.6 -163.25 -45.2 L-165.05 -46.1 M-181.95 -16.95 L-181.95 -17.4 -180.85 -17.55 -175.4 -16.1 -174.8 -18.9 Q-174.6 -19.7 -173.75 -20.2 L-172.85 -20.55 -169.7 -17.45 -172.05 -15.8 Q-171.8 -15.45 -171.6 -15.45 L-167.7 -15.85 -165.65 -14.35 -165.3 -14.8 -150.6 -12.95 -116.25 -10.45 -113.75 -10.35 -111.5 -10.25 -118.3 -11.65 -120.5 -12.15 -136.0 -15.85 -140.3 -16.95 Q-112.9 -16.55 -86.6 -9.35 L-79.15 -9.05 -68.4 -8.65 -67.95 -8.65 -66.8 -8.6 Q-64.7 -8.5 -63.85 -7.15 L-63.55 -6.45 -69.65 -6.05 -75.05 -5.85 -71.85 -4.75 -74.5 -4.9 -85.15 -5.9 -88.5 -6.05 -98.4 -6.75 -106.4 -7.5 -133.45 -9.6 -136.0 -9.75 -136.6 -9.8 -161.3 -11.05 Q-164.85 -11.2 -165.8 -12.15 -170.55 -12.15 -174.45 -10.45 L-174.45 -11.4 -174.85 -11.55 -175.4 -13.4 -182.0 -16.55 -181.95 -16.95 M-152.35 -20.2 Q-166.7 -24.3 -180.5 -29.0 -181.4 -29.3 -178.85 -29.55 L-166.85 -27.75 -167.5 -27.0 -167.55 -26.7 -167.3 -26.05 -166.3 -25.35 -164.8 -24.85 -164.3 -24.8 Q-163.1 -25.5 -161.8 -25.55 L-154.55 -25.7 -148.8 -24.7 -150.9 -25.65 -136.0 -24.65 Q-127.5 -21.7 -118.7 -19.05 L-118.5 -19.0 -137.3 -20.8 -152.35 -20.2 M-156.85 -42.1 L-144.8 -40.65 -142.25 -39.65 -152.8 -40.3 -152.95 -40.25 -156.85 -42.1 M-142.65 -40.35 L-130.65 -38.05 -140.4 -39.5 -142.65 -40.35 M-108.0 -31.9 L-101.6 -29.95 Q-92.4 -25.7 -83.65 -20.55 L-73.8 -17.55 -59.15 -13.1 Q-56.9 -12.45 -57.6 -10.3 L-65.75 -11.05 -67.2 -11.2 Q-78.1 -17.4 -89.15 -23.4 -98.4 -28.4 -108.0 -31.9 M-55.9 -4.75 L-59.25 -6.7 -56.65 -6.4 Q-55.3 -6.25 -55.35 -4.8 L-55.9 -4.75 M-54.3 3.55 L-54.3 4.7 -55.9 4.85 Q-83.05 7.7 -110.25 6.35 L-145.75 4.25 -159.25 1.2 -161.4 0.65 Q-167.7 -1.0 -171.35 -5.05 L-158.2 -5.05 -171.35 -5.05 -171.4 -5.1 -166.55 -5.6 -160.0 -5.95 -158.2 -5.05 Q-153.15 -2.55 -147.7 -0.8 L-139.45 1.4 Q-132.8 2.8 -125.65 3.2 L-134.35 1.35 -139.65 -0.05 -148.6 -2.8 -155.0 -5.05 -126.6 -5.3 -155.0 -5.05 -155.75 -5.3 -158.45 -6.05 -141.7 -6.9 -140.8 -6.8 -140.55 -6.75 -138.2 -6.1 -126.6 -5.3 -83.5 -3.1 Q-73.3 -2.7 -64.8 -0.1 L-63.4 0.3 Q-59.4 1.65 -55.75 3.5 L-54.3 3.55 M-54.3 12.25 L-54.3 18.95 -64.25 20.6 Q-62.7 19.2 -62.8 17.2 L-62.85 17.25 Q-83.9 23.3 -106.0 25.1 L-107.25 25.2 Q-88.45 21.1 -70.15 15.3 L-60.85 13.5 -59.3 13.6 Q-54.7 13.85 -54.6 12.3 L-54.3 12.25 M-71.3 5.75 Q-66.9 6.15 -63.55 4.55 L-63.55 4.4 -62.85 4.25 -63.6 4.25 Q-63.8 3.4 -64.85 3.25 -80.1 0.65 -95.6 -0.7 L-125.8 -2.3 -126.3 -2.15 Q-127.45 -1.6 -126.85 -1.55 -103.05 0.35 -79.25 4.4 L-90.3 5.5 Q-81.0 6.15 -71.8 5.8 L-71.3 5.75 M-70.3 12.15 Q-82.25 12.85 -94.9 12.4 L-96.75 12.9 Q-84.85 12.65 -72.9 13.0 L-104.5 14.65 Q-96.85 13.05 -89.7 10.95 L-101.45 12.2 -100.75 12.15 Q-126.25 11.05 -151.6 13.7 L-152.3 13.8 Q-165.95 11.55 -175.1 3.75 -175.35 3.55 -173.85 3.45 L-173.1 3.6 -151.75 6.75 Q-146.95 7.85 -141.3 7.9 L-139.2 7.95 -123.85 8.85 -118.2 9.0 Q-89.3 10.55 -60.85 8.75 L-70.3 12.15 M-100.95 20.65 Q-138.55 28.85 -175.5 30.3 L-180.35 28.7 -177.9 28.65 -157.7 27.45 Q-129.7 25.05 -100.95 20.65 M-173.45 30.85 Q-160.9 31.7 -148.2 31.05 L-157.2 33.0 -159.75 32.75 Q-166.95 32.45 -173.45 30.85 M-93.5 -13.9 L-99.55 -15.4 -100.9 -16.05 -105.2 -17.95 -100.35 -16.3 -93.5 -13.9 M-90.15 26.6 L-97.5 28.1 -101.75 28.35 -104.7 28.5 -89.4 26.3 -90.15 26.6 M-110.35 36.55 L-118.65 39.15 -120.25 39.45 Q-139.2 42.75 -156.85 47.1 L-165.3 47.2 Q-166.3 47.05 -166.8 47.9 L-167.05 48.55 -167.05 48.9 -168.95 48.65 -175.35 47.7 -151.0 44.0 -129.85 40.35 -110.35 36.55 M-85.9 38.25 L-103.3 41.95 -126.3 46.55 -127.55 46.8 Q-135.9 48.4 -143.9 49.05 L-152.65 49.45 -140.65 46.95 -126.5 44.55 Q-99.55 39.5 -73.75 30.05 -69.9 28.65 -67.8 26.95 L-61.55 25.35 -62.3 25.85 -85.9 38.25 M-61.55 25.35 L-62.3 25.85 -61.55 25.35 M-173.45 -8.05 L-166.45 -8.2 -173.05 -7.3 -173.45 -8.05 M-125.55 31.15 L-126.4 31.3 Q-135.8 32.95 -144.7 33.25 L-125.7 31.05 -123.75 30.85 -125.55 31.15" fill="#b9a679" fill-rule="evenodd" stroke="none"/>
      <path d="M-31.55 7.95 L-31.55 -2.05 Q141.35 2.4 212.25 -11.25 229.8 -14.6 223.85 0.95 221.4 4.4 211.8 6.3 L187.7 7.95 Q72.9 14.1 -31.55 7.95" fill="#73511e" fill-rule="evenodd" stroke="none"/>
      <path d="M-182.45 -46.5 L-184.8 -46.55 -184.85 -46.45 Q-189.15 -46.05 -192.9 -44.65 L-190.7 -46.2 -190.3 -46.8 Q-190.45 -49.05 -192.85 -49.25 L-198.8 -49.55 -199.75 -49.2 -200.75 -48.5 -201.2 -47.75 -201.3 -47.05 Q-201.45 -45.9 -200.7 -45.35 -197.5 -43.2 -194.4 -44.1 L-197.15 -42.75 -197.3 -42.3 -197.3 -42.25 -197.85 -42.4 -200.8 -42.55 Q-202.45 -41.8 -204.8 -41.55 -207.05 -41.3 -207.3 -39.3 L-207.3 -38.55 -206.95 -38.0 Q-205.1 -36.85 -203.05 -36.55 L-207.3 -34.3 -207.2 -33.85 Q-205.8 -33.2 -204.35 -32.7 L-208.8 -32.3 Q-211.05 -32.3 -211.3 -30.3 L-211.25 -29.6 Q-210.85 -27.75 -208.85 -27.3 -200.3 -25.6 -197.3 -31.55 L-197.4 -31.7 -195.85 -31.75 Q-193.05 -30.2 -189.85 -29.4 -191.1 -28.8 -192.15 -27.85 L-192.3 -27.3 Q-192.2 -26.55 -191.8 -26.4 -188.55 -24.9 -184.95 -24.65 -189.4 -23.55 -192.85 -21.55 -189.65 -23.85 -192.8 -27.55 L-196.45 -26.85 Q-203.6 -25.9 -209.5 -23.8 L-209.9 -24.2 Q-210.8 -24.95 -211.9 -25.2 L-214.8 -25.55 -217.65 -24.4 -217.75 -27.55 Q-207.35 -34.8 -205.8 -45.55 -198.9 -52.85 -191.6 -53.6 L-182.45 -46.5 M-195.3 -39.95 L-194.1 -39.3 -195.55 -39.0 -195.3 -39.8 -195.3 -39.95 M-181.95 -17.65 L-181.95 -16.95 -182.0 -16.55 -182.1 -15.45 -186.3 -14.95 Q-185.3 -15.85 -184.5 -17.1 L-182.6 -17.5 -181.95 -17.65 M-214.5 -19.65 L-214.2 -19.55 Q-206.75 -17.65 -199.15 -19.25 -195.25 -20.05 -193.25 -21.25 -192.7 -19.65 -191.65 -18.65 L-196.8 -18.25 Q-198.7 -18.3 -199.15 -16.9 L-202.8 -17.55 Q-203.8 -17.5 -203.9 -16.45 L-203.95 -15.9 -204.8 -16.55 -204.85 -16.4 -206.25 -16.35 Q-215.3 -18.2 -219.3 -12.3 -219.4 -9.9 -216.85 -9.95 -211.4 -10.2 -206.1 -11.55 -204.2 -12.05 -203.35 -12.7 L-202.5 -11.5 -206.3 -10.3 Q-206.2 -9.55 -205.8 -9.4 -198.85 -6.25 -190.65 -6.9 L-185.0 -7.5 -188.2 -5.05 -188.25 -5.05 -188.15 -4.95 -186.45 -3.0 -185.5 -1.85 -190.9 -1.5 -192.05 -1.4 -195.8 -1.55 -196.8 -1.25 -197.65 -0.8 -207.35 1.0 -207.3 0.45 -207.85 -0.3 -208.35 -0.9 -199.1 -2.05 Q-192.8 -3.2 -197.8 -6.55 -211.85 -10.7 -218.3 -3.3 -218.35 -1.55 -217.0 -1.0 L-217.15 -0.9 Q-218.6 0.5 -218.3 2.45 -217.5 3.7 -216.4 4.35 L-214.9 5.75 Q-216.65 6.45 -218.15 7.45 L-218.3 7.95 Q-217.8 10.75 -214.8 11.1 L-213.55 11.15 -202.95 10.2 Q-202.4 11.0 -200.9 10.8 L-197.15 10.35 -199.3 12.45 -199.0 12.85 -196.0 13.55 -206.7 13.0 -217.8 11.45 Q-218.5 11.6 -219.6 12.15 L-220.8 12.7 Q-222.35 13.25 -222.35 14.7 L-222.3 15.45 Q-208.5 20.65 -192.75 20.35 -197.0 20.6 -200.15 23.15 L-200.2 23.3 -201.8 23.35 -206.3 23.0 -206.3 22.95 -206.35 22.2 Q-206.45 19.95 -208.7 20.25 -210.85 20.55 -212.8 19.45 -213.4 19.5 -213.95 19.95 L-214.85 19.75 -220.8 19.45 -221.8 19.75 Q-223.35 20.25 -222.95 21.6 -221.45 26.95 -214.35 24.3 -216.25 25.45 -217.3 27.7 -217.35 28.55 -217.05 29.05 L-217.35 29.45 -217.8 29.45 Q-219.45 30.2 -221.8 30.45 L-222.75 30.7 -222.8 27.45 Q-228.15 23.0 -222.25 9.95 L-222.15 7.55 Q-221.9 1.1 -223.75 -3.05 -218.45 -12.1 -217.75 -21.65 L-217.85 -20.35 Q-216.25 -19.55 -214.5 -19.65 M-202.85 29.6 Q-196.6 29.05 -191.1 27.4 L-189.35 27.65 -189.5 26.9 -189.1 28.55 -189.8 28.45 -189.85 28.55 Q-191.85 28.85 -193.6 30.15 -194.2 30.6 -194.35 31.2 -194.95 30.85 -195.85 30.75 L-201.8 30.45 -204.85 31.65 Q-206.35 32.25 -206.35 33.7 L-206.3 34.45 -205.95 34.95 -203.5 35.95 -203.8 36.0 -204.8 36.05 Q-213.25 36.05 -221.2 37.95 -221.9 36.55 -222.75 30.7 -217.0 36.25 -210.9 34.05 -209.6 33.55 -209.3 32.2 -209.4 30.4 -210.95 29.95 L-209.3 29.9 -202.85 29.6 M-193.9 34.0 L-193.4 33.4 -193.1 33.6 -192.45 33.95 -193.85 34.0 -193.9 34.0 M-212.4 42.85 L-200.8 41.35 Q-201.55 43.45 -199.75 44.3 L-208.2 46.3 -208.3 46.7 Q-208.4 49.1 -205.8 49.2 L-194.45 49.95 -194.1 50.0 Q-192.55 51.4 -189.55 51.75 L-189.4 51.8 Q-191.1 53.2 -193.2 54.45 -201.35 55.8 -211.05 49.95 -210.75 45.05 -212.4 42.85 M-189.05 20.2 L-189.15 20.5 -191.75 20.3 -189.05 20.2 M-187.15 32.0 L-186.05 33.2 -186.55 33.25 -188.35 33.55 -187.45 32.45 -187.15 32.0 M-182.65 38.8 L-182.35 38.75 -182.35 38.85 -182.65 38.8 M-191.05 40.25 L-191.0 40.6 Q-190.55 42.1 -189.65 43.0 L-191.0 43.1 -194.0 43.45 -193.3 42.2 -193.45 41.5 Q-193.65 40.95 -194.0 40.55 L-191.05 40.25" fill="#af9761" fill-rule="evenodd" stroke="none"/>
      <path d="M-192.9 -44.65 Q-189.15 -46.05 -184.85 -46.45 L-184.8 -46.55 -182.45 -46.5 -178.35 -42.15 -179.3 -41.5 -177.85 -41.45 Q-176.65 -39.65 -176.65 -38.25 L-176.65 -37.9 -176.7 -37.5 -176.95 -36.85 Q-179.5 -34.65 -182.7 -34.1 L-183.7 -34.05 -183.2 -30.55 -183.8 -30.55 -183.8 -30.45 Q-187.25 -30.7 -189.85 -29.4 -193.05 -30.2 -195.85 -31.75 L-197.4 -31.7 -197.9 -32.2 Q-198.8 -32.95 -199.9 -33.3 L-201.8 -33.55 Q-203.0 -33.05 -204.35 -32.7 -205.8 -33.2 -207.2 -33.85 L-207.3 -34.3 -203.05 -36.55 Q-200.55 -36.2 -197.7 -37.15 -196.15 -37.65 -195.55 -39.0 L-194.1 -39.3 -195.3 -39.95 -195.45 -40.5 Q-196.0 -41.85 -197.3 -42.25 L-197.3 -42.3 -197.15 -42.75 -194.4 -44.1 -192.9 -44.65 M-217.05 29.05 Q-217.35 28.55 -217.3 27.7 -216.25 25.45 -214.35 24.3 L-213.85 24.1 -213.2 23.7 Q-210.85 22.75 -207.5 23.1 -211.3 23.7 -213.3 26.7 -213.2 27.45 -212.75 27.85 -211.2 29.3 -209.3 29.9 L-210.95 29.95 -211.85 29.75 -212.2 29.75 Q-212.95 29.0 -213.9 28.7 L-215.8 28.45 Q-216.55 28.55 -217.05 29.05 M-201.8 23.35 L-200.2 23.3 -193.8 22.45 -189.6 22.6 -189.65 23.3 -189.65 23.45 -189.7 23.8 -189.5 26.9 -191.1 27.4 Q-196.6 29.05 -202.85 29.6 L-202.8 29.55 Q-195.6 27.25 -200.8 23.45 L-200.8 23.55 -201.8 23.35 M-192.75 20.35 Q-208.5 20.65 -222.3 15.45 L-222.35 14.7 Q-222.35 13.25 -220.8 12.7 L-219.6 12.15 Q-218.5 11.6 -217.8 11.45 L-206.7 13.0 -196.0 13.55 -191.7 13.5 Q-191.2 16.05 -189.7 18.0 L-188.75 19.1 -188.8 19.25 -189.05 20.2 -191.75 20.3 -192.75 20.35 M-197.15 10.35 L-200.9 10.8 Q-202.4 11.0 -202.95 10.2 L-182.0 8.55 -182.15 8.85 -182.8 8.9 -197.15 10.35 M-207.35 1.0 L-197.65 -0.8 Q-198.25 -0.3 -198.0 0.6 -196.7 5.75 -189.85 3.1 -188.6 2.55 -188.3 1.2 -188.45 -1.05 -190.85 -1.3 L-192.05 -1.4 -190.9 -1.5 -185.5 -1.85 -181.5 4.65 -202.8 4.45 -202.8 4.55 Q-206.35 4.05 -209.45 4.4 L-209.45 4.2 -209.45 3.9 Q-207.75 2.85 -207.35 1.0 M-199.15 -16.9 Q-198.7 -18.3 -196.8 -18.25 L-191.65 -18.65 Q-190.1 -18.95 -188.8 -19.55 L-186.9 -19.3 Q-185.8 -18.95 -184.9 -18.2 L-184.3 -17.55 -184.5 -17.1 Q-185.3 -15.85 -186.3 -14.95 -187.75 -13.7 -189.65 -13.15 -190.25 -14.3 -191.75 -14.75 L-198.4 -16.7 -199.15 -16.9 M-203.5 35.95 L-205.95 34.95 -206.3 34.45 -206.35 33.7 Q-206.35 32.25 -204.85 31.65 L-201.8 30.45 -195.85 30.75 Q-194.95 30.85 -194.35 31.2 L-194.3 32.45 -193.4 33.4 -193.9 34.0 -194.3 34.3 -196.8 35.5 -201.8 35.45 -203.5 35.95 M-194.45 49.95 L-205.8 49.2 Q-208.4 49.1 -208.3 46.7 L-208.2 46.3 -199.75 44.3 -198.85 44.6 -197.55 44.8 -199.3 46.7 Q-199.2 47.45 -198.75 47.8 -196.75 49.5 -194.45 49.95 M-191.0 43.1 L-189.65 43.0 -189.35 43.25 -191.0 43.1 M-186.25 44.2 L-183.5 43.7 -184.6 45.8 Q-184.85 44.95 -186.25 44.2 M-186.5 48.35 L-187.7 49.9 -187.85 50.1 -188.25 50.6 -192.85 50.1 Q-190.7 50.1 -188.25 49.1 L-186.5 48.35" fill="#957951" fill-rule="evenodd" stroke="none"/>
      <path d="M-197.4 -31.7 L-197.3 -31.55 Q-200.3 -25.6 -208.85 -27.3 -210.85 -27.75 -211.25 -29.6 L-211.3 -30.3 Q-211.05 -32.3 -208.8 -32.3 L-204.35 -32.7 Q-203.0 -33.05 -201.8 -33.55 L-199.9 -33.3 Q-198.8 -32.95 -197.9 -32.2 L-197.4 -31.7 M-194.4 -44.1 Q-197.5 -43.2 -200.7 -45.35 -201.45 -45.9 -201.3 -47.05 L-201.2 -47.75 -200.75 -48.5 -199.75 -49.2 -198.8 -49.55 -192.85 -49.25 Q-190.45 -49.05 -190.3 -46.8 L-190.7 -46.2 -192.9 -44.65 -194.4 -44.1 M-214.35 24.3 Q-221.45 26.95 -222.95 21.6 -223.35 20.25 -221.8 19.75 L-220.8 19.45 -214.85 19.75 -213.95 19.95 Q-212.4 20.4 -212.3 22.2 -212.5 23.15 -213.2 23.7 L-213.85 24.1 -214.35 24.3 M-206.3 23.0 L-201.8 23.35 -200.8 23.55 -200.8 23.45 Q-195.6 27.25 -202.8 29.55 L-202.85 29.6 -209.3 29.9 Q-211.2 29.3 -212.75 27.85 -213.2 27.45 -213.3 26.7 -211.3 23.7 -207.5 23.1 L-206.3 23.0 M-202.95 10.2 L-213.55 11.15 -214.8 11.1 Q-217.8 10.75 -218.3 7.95 L-218.15 7.45 Q-216.65 6.45 -214.9 5.75 -212.35 7.6 -209.55 4.95 L-209.45 4.4 Q-206.35 4.05 -202.8 4.55 L-202.8 4.45 -181.5 4.65 -181.15 5.9 -181.15 6.05 -182.0 8.55 -202.95 10.2 M-203.35 -12.7 Q-204.2 -12.05 -206.1 -11.55 -211.4 -10.2 -216.85 -9.95 -219.4 -9.9 -219.3 -12.3 -215.3 -18.2 -206.25 -16.35 L-204.85 -16.4 -204.8 -16.55 -203.95 -15.9 Q-204.05 -14.1 -203.35 -12.7 M-221.2 37.95 Q-213.25 36.05 -204.8 36.05 L-203.8 36.0 -203.5 35.95 -201.8 35.45 -196.8 35.5 -191.1 35.75 Q-192.0 36.5 -192.25 37.7 L-192.3 38.45 -191.8 39.45 -194.5 40.1 Q-195.1 39.7 -195.85 39.6 L-198.8 39.45 Q-200.1 39.6 -200.75 41.15 L-200.8 41.35 -212.4 42.85 Q-213.7 41.05 -216.2 40.95 L-216.45 40.95 -216.75 40.95 Q-219.7 41.0 -221.2 37.95" fill="#7b6940" fill-rule="evenodd" stroke="none"/>
      <path d="M-203.05 -36.55 Q-205.1 -36.85 -206.95 -38.0 L-207.3 -38.55 -207.3 -39.3 Q-207.05 -41.3 -204.8 -41.55 -202.45 -41.8 -200.8 -42.55 L-197.85 -42.4 -197.3 -42.25 Q-196.0 -41.85 -195.45 -40.5 L-195.3 -39.95 -195.3 -39.8 -195.55 -39.0 Q-196.15 -37.65 -197.7 -37.15 -200.55 -36.2 -203.05 -36.55 M-222.75 30.7 L-221.8 30.45 Q-219.45 30.2 -217.8 29.45 L-217.35 29.45 -217.75 30.15 Q-218.8 32.9 -215.85 33.5 -212.4 34.2 -211.3 31.2 -211.55 30.45 -212.05 29.9 L-212.2 29.75 -211.85 29.75 -210.95 29.95 Q-209.4 30.4 -209.3 32.2 -209.6 33.55 -210.9 34.05 -217.0 36.25 -222.75 30.7 M-191.8 39.45 L-192.3 38.45 -192.25 37.7 Q-192.0 36.5 -191.1 35.75 L-189.75 34.95 Q-187.65 34.15 -185.5 33.7 L-182.25 35.95 -182.3 38.25 -182.3 38.55 -182.35 38.75 -182.65 38.8 -182.85 38.75 -188.8 38.45 -189.8 38.75 Q-190.9 39.1 -191.05 39.95 L-191.8 39.45 M-194.45 49.95 Q-196.75 49.5 -198.75 47.8 -199.2 47.45 -199.3 46.7 L-197.55 44.8 Q-195.25 44.95 -194.0 43.45 L-191.0 43.1 -189.35 43.25 Q-188.2 44.2 -186.25 44.2 -184.85 44.95 -184.6 45.8 L-186.5 48.35 -188.25 49.1 Q-190.7 50.1 -192.85 50.1 L-194.1 50.0 -194.45 49.95" fill="#a38a54" fill-rule="evenodd" stroke="none"/>
      <path d="M-182.45 -46.5 L-191.6 -53.6 Q-144.3 -58.4 -107.2 -45.5 -92.1 -40.25 -79.75 -32.5 -80.05 -31.8 -79.1 -30.6 L-74.05 -24.5 -90.2 -29.25 Q-96.0 -32.8 -102.25 -35.8 -125.1 -46.8 -149.85 -48.55 L-151.7 -48.35 Q-143.15 -45.6 -134.6 -42.3 -151.75 -47.9 -168.85 -52.55 L-170.5 -51.5 -174.85 -53.55 Q-177.95 -52.85 -176.0 -51.8 L-165.05 -46.1 -166.85 -46.55 Q-169.45 -46.25 -168.3 -45.8 L-167.65 -45.55 -171.6 -45.75 -171.95 -46.15 -173.85 -47.55 -174.05 -44.95 -175.1 -44.3 -175.5 -43.65 -175.55 -43.3 Q-175.3 -42.95 -175.05 -42.95 L-173.9 -42.95 Q-173.2 -39.1 -169.75 -36.35 -169.7 -35.85 -168.65 -35.2 L-166.0 -33.65 Q-175.05 -34.1 -183.7 -34.05 -175.05 -34.1 -166.0 -33.65 L-157.15 -28.75 -160.8 -28.8 -160.8 -28.75 -165.8 -28.1 -166.85 -27.75 -178.85 -29.55 Q-181.4 -29.3 -180.5 -29.0 -166.7 -24.3 -152.35 -20.2 L-154.45 -20.1 Q-162.8 -22.2 -170.85 -24.55 -172.95 -24.4 -172.1 -23.8 -168.65 -21.35 -164.75 -19.15 -167.55 -18.65 -169.7 -17.45 L-172.85 -20.55 -173.75 -20.2 Q-174.6 -19.7 -174.8 -18.9 L-175.4 -16.1 -180.85 -17.55 -181.95 -17.4 -181.95 -16.95 -181.95 -17.65 -182.3 -24.75 -182.3 -24.85 -183.2 -30.55 -183.7 -34.05 -182.7 -34.1 Q-179.5 -34.65 -176.95 -36.85 L-176.7 -37.5 -176.65 -37.9 -176.65 -38.25 Q-176.65 -39.65 -177.85 -41.45 L-178.35 -42.15 -182.45 -46.5 M-168.65 -42.8 L-159.7 -42.3 -153.8 -39.95 -154.3 -39.8 Q-155.2 -39.55 -155.65 -38.75 L-168.65 -42.8 M-144.2 -40.55 L-142.65 -40.35 -140.4 -39.5 -140.65 -39.5 -144.2 -40.55 M-83.05 -24.6 L-71.15 -21.45 -68.45 -18.85 Q-62.8 -13.6 -57.05 -13.7 L-55.0 -11.5 -54.85 -11.3 -54.3 -10.7 -54.3 -6.0 -65.75 -11.05 -57.6 -10.3 Q-56.9 -12.45 -59.15 -13.1 L-73.8 -17.55 Q-78.25 -21.3 -83.05 -24.6 M-150.5 -37.25 L-147.0 -37.2 -139.3 -34.1 -150.5 -37.25 M-185.5 -1.85 L-186.45 -3.0 Q-180.45 -3.2 -174.05 -4.6 L-171.7 -5.05 -171.35 -5.05 -171.7 -5.05 -171.4 -5.1 -171.35 -5.05 Q-167.7 -1.0 -161.4 0.65 L-159.25 1.2 -163.1 1.1 -171.85 0.45 -171.9 0.6 Q-175.85 2.4 -173.1 3.6 L-173.85 3.45 Q-175.35 3.55 -175.1 3.75 -165.95 11.55 -152.3 13.8 -153.95 14.05 -155.25 14.65 -173.8 13.95 -183.95 10.2 L-182.35 9.5 -182.15 8.85 -182.0 8.55 -181.15 6.05 -181.15 5.9 -181.5 4.65 -185.5 -1.85 M-188.2 -5.05 L-185.0 -7.5 -184.45 -8.3 Q-182.25 -11.55 -182.1 -15.45 L-182.0 -16.55 -175.4 -13.4 -174.85 -11.55 -174.45 -11.4 -174.45 -10.45 -178.45 -8.05 -178.55 -7.8 -173.45 -8.05 -173.05 -7.3 -177.55 -6.6 -178.7 -6.45 -187.85 -5.2 -188.2 -5.05 M-189.5 26.9 L-189.7 23.8 -189.65 23.45 -189.55 22.3 -189.2 20.7 -189.15 20.5 -189.05 20.2 -188.8 19.25 -188.75 19.1 -169.35 19.9 -183.05 21.3 Q-175.15 23.6 -165.35 22.0 -154.15 20.15 -142.8 19.6 -145.8 21.3 -148.35 23.45 -134.1 23.25 -117.05 19.4 -100.6 15.75 -83.9 16.25 L-83.5 16.25 -97.3 19.8 -100.95 20.65 Q-129.7 25.05 -157.7 27.45 L-177.9 28.65 -180.35 28.7 -175.5 30.3 -175.55 30.3 -175.4 30.7 -174.95 30.75 Q-172.7 34.8 -167.9 35.65 L-168.55 35.8 -168.5 36.2 -165.7 35.85 -159.15 35.05 -144.7 33.25 Q-135.8 32.95 -126.4 31.3 L-125.55 31.15 Q-129.05 32.6 -132.3 34.3 L-135.45 35.95 Q-158.0 40.05 -179.55 41.55 -179.8 43.5 -177.8 43.5 -160.2 43.7 -142.5 40.2 L-144.35 41.45 Q-134.6 41.45 -121.95 36.65 L-116.85 34.8 Q-102.45 32.0 -87.85 29.75 -99.15 33.0 -110.35 36.55 L-129.85 40.35 -135.2 41.1 -151.0 44.0 -175.35 47.7 -168.95 48.65 Q-173.75 50.1 -178.35 51.7 -172.0 56.55 -161.55 53.4 -152.8 50.75 -143.9 49.05 -135.9 48.4 -127.55 46.8 L-126.3 46.55 -119.75 46.1 Q-107.7 45.5 -103.3 41.95 L-85.9 38.25 Q-130.95 57.55 -193.2 54.45 -191.1 53.2 -189.4 51.8 L-188.55 51.05 -187.85 50.1 -187.7 49.9 -186.5 48.35 -184.6 45.8 -183.5 43.7 -182.35 38.85 -182.35 38.75 -182.3 38.55 -182.3 38.25 -182.25 35.95 -185.5 33.7 -185.75 33.45 -186.05 33.2 -187.15 32.0 -188.95 28.85 -189.05 28.55 -189.1 28.55 -189.5 26.9 M-54.3 1.3 L-54.3 1.4 -63.4 0.3 -64.8 -0.1 -64.1 -0.4 -58.4 0.0 -54.3 1.3 M-54.3 9.9 L-54.3 12.25 -54.6 12.3 Q-54.55 11.65 -55.3 10.7 L-57.15 10.95 -54.3 9.9 M-54.3 18.95 L-54.3 20.4 -54.5 20.55 -65.4 23.45 -65.3 22.2 -72.3 25.35 -76.5 26.5 -75.65 25.4 Q-68.1 24.05 -65.3 21.4 L-64.25 20.6 -54.3 18.95 M-139.65 -0.05 L-134.35 1.35 -139.45 1.4 -147.7 -0.8 -139.65 -0.05 M-83.5 -4.6 L-92.85 -4.8 -129.65 -6.35 Q-129.5 -7.0 -130.0 -7.4 L-129.05 -7.45 -129.25 -7.65 Q-117.0 -5.75 -106.35 -6.8 L-106.4 -7.5 -98.4 -6.75 -88.5 -6.05 -83.5 -4.6 M-64.15 13.35 L-60.85 13.5 -70.15 15.3 -64.15 13.35 M-99.55 -15.4 Q-108.8 -17.65 -118.1 -18.95 L-118.7 -19.05 Q-127.5 -21.7 -136.0 -24.65 -120.4 -22.85 -105.2 -17.95 L-100.9 -16.05 -99.55 -15.4 M-132.15 -26.85 L-146.05 -28.3 -151.05 -30.3 Q-141.5 -29.1 -132.15 -26.85 M-150.9 -25.65 L-148.8 -24.7 -154.55 -25.7 -150.9 -25.65 M-150.6 -12.95 L-165.3 -14.8 -165.65 -14.35 -167.7 -15.85 -159.45 -16.5 Q-155.25 -14.55 -150.6 -12.95 M-120.5 -12.15 L-118.3 -11.65 -111.5 -10.25 -113.75 -10.35 -120.5 -12.15 M-61.55 25.35 L-67.8 26.95 -67.35 26.55 -61.0 25.0 -61.55 25.35 M-136.0 -15.85 L-139.2 -16.55 -141.05 -16.95 -140.3 -16.95 -136.0 -15.85 M-132.3 34.3 Q-152.7 37.5 -182.25 35.95 -152.7 37.5 -132.3 34.3" fill="#b39b66" fill-rule="evenodd" stroke="none"/>
      <path d="M-217.65 -24.4 L-214.8 -25.55 -211.9 -25.2 Q-210.8 -24.95 -209.9 -24.2 L-209.5 -23.8 -209.3 -23.55 Q-209.15 -21.7 -210.8 -20.8 -212.75 -19.75 -214.5 -19.65 -216.25 -19.55 -217.85 -20.35 L-217.75 -21.65 -217.7 -22.95 -217.65 -24.4 M-184.95 -24.65 Q-188.55 -24.9 -191.8 -26.4 -192.2 -26.55 -192.3 -27.3 L-192.15 -27.85 Q-191.1 -28.8 -189.85 -29.4 -187.25 -30.7 -183.8 -30.45 L-183.8 -30.55 -183.2 -30.55 -182.3 -24.85 -182.3 -24.75 -182.3 -24.6 -184.95 -24.65 M-217.35 29.45 L-217.05 29.05 Q-216.55 28.55 -215.8 28.45 L-213.9 28.7 Q-212.95 29.0 -212.2 29.75 L-212.05 29.9 Q-211.55 30.45 -211.3 31.2 -212.4 34.2 -215.85 33.5 -218.8 32.9 -217.75 30.15 L-217.35 29.45 M-214.9 5.75 L-216.4 4.35 Q-214.2 5.6 -210.75 4.45 L-209.45 3.9 -209.45 4.2 -209.45 4.4 -209.55 4.95 Q-212.35 7.6 -214.9 5.75 M-197.65 -0.8 L-196.8 -1.25 -195.8 -1.55 -192.05 -1.4 -190.85 -1.3 Q-188.45 -1.05 -188.3 1.2 -188.6 2.55 -189.85 3.1 -196.7 5.75 -198.0 0.6 -198.25 -0.3 -197.65 -0.8 M-202.5 -11.5 L-203.35 -12.7 Q-204.05 -14.1 -203.95 -15.9 L-203.9 -16.45 Q-203.8 -17.5 -202.8 -17.55 L-199.15 -16.9 -198.4 -16.7 -191.75 -14.75 Q-190.25 -14.3 -189.65 -13.15 L-189.3 -11.8 Q-191.05 -8.1 -195.5 -8.65 -200.45 -9.25 -202.5 -11.5 M-194.35 31.2 Q-194.2 30.6 -193.6 30.15 -191.85 28.85 -189.85 28.55 L-189.8 28.45 -189.1 28.55 -189.05 28.55 -188.95 28.85 -187.15 32.0 -187.45 32.45 -188.35 33.55 Q-190.05 35.05 -192.45 33.95 L-193.1 33.6 -193.4 33.4 -194.3 32.45 -194.35 31.2 M-200.8 41.35 L-200.75 41.15 Q-200.1 39.6 -198.8 39.45 L-195.85 39.6 Q-195.1 39.7 -194.5 40.1 L-194.0 40.55 Q-193.65 40.95 -193.45 41.5 L-193.3 42.2 -194.0 43.45 Q-195.25 44.95 -197.55 44.8 L-198.85 44.6 -199.75 44.3 Q-201.55 43.45 -200.8 41.35 M-191.05 39.95 Q-190.9 39.1 -189.8 38.75 L-188.8 38.45 -182.85 38.75 -182.65 38.8 -182.35 38.85 -183.5 43.7 -186.25 44.2 Q-188.2 44.2 -189.35 43.25 L-189.65 43.0 Q-190.55 42.1 -191.0 40.6 L-191.05 40.25 -191.05 39.95" fill="#a88e57" fill-rule="evenodd" stroke="none"/>
      <path d="M-167.65 -45.55 L-168.3 -45.8 Q-169.45 -46.25 -166.85 -46.55 L-165.05 -46.1 -163.25 -45.2 -167.65 -45.55 M-134.6 -42.3 Q-143.15 -45.6 -151.7 -48.35 L-149.85 -48.55 Q-125.1 -46.8 -102.25 -35.8 -96.0 -32.8 -90.2 -29.25 L-117.5 -37.05 -124.25 -38.8 -134.6 -42.3 M-74.05 -24.5 L-79.1 -30.6 Q-80.05 -31.8 -79.75 -32.5 -72.05 -27.7 -65.45 -21.95 L-74.05 -24.5 M-159.7 -42.3 L-156.85 -42.1 -152.95 -40.25 -153.8 -39.95 -159.7 -42.3 M-144.8 -40.65 L-144.2 -40.55 -140.65 -39.5 -142.25 -39.65 -144.8 -40.65 M-101.6 -29.95 L-83.05 -24.6 Q-78.25 -21.3 -73.8 -17.55 L-83.65 -20.55 Q-92.4 -25.7 -101.6 -29.95 M-71.15 -21.45 L-62.45 -19.25 -61.15 -18.0 -60.25 -17.15 -61.15 -18.0 -60.25 -17.15 -57.05 -13.7 Q-62.8 -13.6 -68.45 -18.85 L-71.15 -21.45 M-147.0 -37.2 L-146.3 -37.15 -139.3 -34.1 -147.0 -37.2 M-131.35 -35.7 L-130.4 -35.5 -128.0 -34.55 -131.35 -35.7 M-72.2 -11.05 L-67.95 -8.65 -68.4 -8.65 -78.3 -11.95 -81.15 -13.7 -79.7 -13.4 -72.2 -11.05 M-55.15 -4.3 L-55.9 -4.75 -55.35 -4.8 Q-55.3 -6.25 -56.65 -6.4 L-59.25 -6.7 -67.2 -11.2 -65.75 -11.05 -54.3 -6.0 -54.3 -4.05 -55.15 -4.3 M-54.3 1.4 L-54.3 3.55 -55.75 3.5 Q-59.4 1.65 -63.4 0.3 L-54.3 1.4 M-64.45 -2.1 L-58.4 0.0 -64.1 -0.4 -63.35 -0.8 -64.45 -2.1 M-134.35 1.35 L-125.65 3.2 Q-132.8 2.8 -139.45 1.4 L-134.35 1.35 M-159.25 1.2 L-145.75 4.25 -159.8 3.2 Q-160.8 3.25 -160.55 3.4 -156.6 5.6 -151.75 6.75 L-173.1 3.6 Q-175.85 2.4 -171.9 0.6 L-171.85 0.45 -163.1 1.1 -159.25 1.2 M-63.55 4.4 L-63.6 4.25 -62.85 4.25 -63.55 4.4 M-79.25 4.4 L-72.9 5.5 -71.3 5.75 -71.8 5.8 Q-81.0 6.15 -90.3 5.5 L-79.25 4.4 M-74.5 -4.9 L-83.5 -4.6 -88.5 -6.05 -85.15 -5.9 -74.5 -4.9 M-174.95 30.75 L-173.45 30.85 Q-166.95 32.45 -159.75 32.75 L-157.2 33.0 -167.9 35.65 Q-172.7 34.8 -174.95 30.75 M-118.2 9.0 L-123.85 8.85 -139.2 7.95 -125.55 8.55 -118.2 9.0 M-101.45 12.2 L-89.7 10.95 Q-96.85 13.05 -104.5 14.65 -118.3 17.55 -133.95 18.85 L-142.5 19.45 Q-155.35 20.15 -169.35 19.9 L-188.75 19.1 -189.7 18.0 Q-191.2 16.05 -191.7 13.5 L-191.05 11.75 -189.8 11.15 Q-187.05 10.05 -183.95 10.2 -173.8 13.95 -155.25 14.65 -148.25 14.9 -140.05 14.75 L-126.65 14.2 -125.75 14.15 -125.05 14.1 -124.4 14.05 -112.75 13.25 -101.45 12.2 M-118.1 -18.95 L-118.5 -19.0 -118.7 -19.05 -118.1 -18.95 M-159.15 35.05 L-165.7 35.85 -159.15 35.05" fill="#a58b52" fill-rule="evenodd" stroke="none"/>
      <path d="M-173.9 -42.95 L-175.05 -42.95 Q-175.3 -42.95 -175.55 -43.3 L-175.5 -43.65 -175.1 -44.3 -174.05 -44.95 -173.8 -45.1 -172.35 -45.75 -172.3 -45.8 -171.6 -45.75 -167.65 -45.55 -163.25 -45.2 Q-143.55 -43.6 -124.25 -38.8 L-117.5 -37.05 -90.2 -29.25 -74.05 -24.5 -65.45 -21.95 -65.15 -21.7 -62.45 -19.25 -71.15 -21.45 -83.05 -24.6 -101.6 -29.95 -108.0 -31.9 -111.5 -33.0 Q-121.05 -36.0 -130.65 -38.05 L-142.65 -40.35 -144.2 -40.55 -144.8 -40.65 -156.85 -42.1 -159.7 -42.3 -168.65 -42.8 -173.9 -42.95 M-166.85 -27.75 L-165.8 -28.1 -160.8 -28.75 -160.8 -28.8 -157.15 -28.75 -146.05 -28.3 -132.15 -26.85 Q-113.85 -24.25 -96.1 -18.05 L-78.3 -11.95 -68.4 -8.65 -79.15 -9.05 -93.5 -13.9 -100.35 -16.3 -105.2 -17.95 Q-120.4 -22.85 -136.0 -24.65 L-150.9 -25.65 -154.55 -25.7 -161.8 -25.55 Q-163.1 -25.5 -164.3 -24.8 L-164.8 -24.85 -166.3 -25.35 -167.3 -26.05 -167.55 -26.7 -167.5 -27.0 -166.85 -27.75 M-63.85 -7.15 L-55.15 -4.3 -54.3 -4.05 -54.3 -1.4 -69.65 -6.05 -63.55 -6.45 -63.85 -7.15 M-63.55 4.4 L-63.55 4.55 Q-66.9 6.15 -71.3 5.75 L-72.9 5.5 -79.25 4.4 Q-103.05 0.35 -126.85 -1.55 -127.45 -1.6 -126.3 -2.15 L-125.8 -2.3 -95.6 -0.7 Q-80.1 0.65 -64.85 3.25 -63.8 3.4 -63.6 4.25 L-63.55 4.4 M-129.65 -6.35 L-129.7 -6.2 -140.55 -6.75 -140.8 -6.8 -141.7 -6.9 -166.45 -8.2 -173.45 -8.05 -178.55 -7.8 -178.45 -8.05 -174.45 -10.45 Q-170.55 -12.15 -165.8 -12.15 -164.85 -11.2 -161.3 -11.05 L-136.6 -9.8 -136.45 -9.75 Q-133.35 -8.9 -130.35 -7.6 L-130.0 -7.4 Q-129.5 -7.0 -129.65 -6.35 M-64.15 13.35 L-72.9 13.0 Q-84.85 12.65 -96.75 12.9 L-94.9 12.4 Q-82.25 12.85 -70.3 12.15 L-57.15 10.95 -55.3 10.7 Q-54.55 11.65 -54.6 12.3 -54.7 13.85 -59.3 13.6 L-60.85 13.5 -64.15 13.35 M-148.2 31.05 Q-128.2 27.0 -107.25 25.2 L-106.0 25.1 Q-83.9 23.3 -62.85 17.25 L-62.8 17.2 Q-62.7 19.2 -64.25 20.6 L-65.3 21.4 Q-67.45 22.7 -71.4 23.4 L-75.3 24.05 -75.3 23.7 -75.95 23.8 -86.6 25.9 -89.4 26.3 -104.7 28.5 -114.35 29.75 -123.75 30.85 -125.7 31.05 -144.7 33.25 -159.15 35.05 -165.7 35.85 -168.5 36.2 -168.55 35.8 -167.9 35.65 -157.2 33.0 -148.2 31.05 M-152.3 13.8 L-151.6 13.7 Q-126.25 11.05 -100.75 12.15 L-101.45 12.2 -112.75 13.25 -124.4 14.05 -125.05 14.1 -125.75 14.15 -126.65 14.2 -140.05 14.75 Q-148.25 14.9 -155.25 14.65 -153.95 14.05 -152.3 13.8 M-156.85 47.1 Q-139.2 42.75 -120.25 39.45 L-118.65 39.15 Q-94.6 34.75 -72.3 25.35 L-65.3 22.2 -65.4 23.45 Q-65.75 25.1 -67.35 26.55 L-67.8 26.95 Q-69.9 28.65 -73.75 30.05 -99.55 39.5 -126.5 44.55 L-140.65 46.95 -166.75 50.05 -169.05 50.2 -166.9 49.65 -156.85 47.1" fill="#d7cbb0" fill-rule="evenodd" stroke="none"/>
      <path d="M-192.85 -21.55 Q-189.4 -23.55 -184.95 -24.65 L-182.3 -24.6 -182.3 -24.75 -181.95 -17.65 -182.6 -17.5 -184.5 -17.1 -184.3 -17.55 -184.9 -18.2 Q-185.8 -18.95 -186.9 -19.3 L-188.8 -19.55 Q-190.1 -18.95 -191.65 -18.65 -192.7 -19.65 -193.25 -21.25 L-193.3 -21.3 Q-193.1 -21.45 -192.85 -21.55 M-178.35 -42.15 L-177.85 -41.45 -179.3 -41.5 -178.35 -42.15 M-200.2 23.3 L-200.15 23.15 Q-197.0 20.6 -192.75 20.35 L-191.75 20.3 -189.15 20.5 -189.2 20.7 -189.55 22.3 -189.65 23.45 -189.65 23.3 -189.6 22.6 -193.8 22.45 -200.2 23.3 M-196.0 13.55 L-199.0 12.85 -199.3 12.45 -197.15 10.35 -182.8 8.9 -182.15 8.85 -182.35 9.5 -183.95 10.2 Q-187.05 10.05 -189.8 11.15 L-191.05 11.75 -191.7 13.5 -196.0 13.55 M-217.0 -1.0 Q-218.35 -1.55 -218.3 -3.3 -211.85 -10.7 -197.8 -6.55 -192.8 -3.2 -199.1 -2.05 L-208.35 -0.9 Q-209.4 -1.9 -210.9 -1.6 -212.3 -1.3 -213.8 -2.55 L-213.85 -2.45 Q-215.65 -2.25 -217.0 -1.0 M-191.1 27.4 L-189.5 26.9 -189.35 27.65 -191.1 27.4 M-189.4 51.8 L-189.55 51.75 Q-192.55 51.4 -194.1 50.0 L-192.85 50.1 -188.25 50.6 -187.85 50.1 -188.55 51.05 -189.4 51.8" fill="#705f3a" fill-rule="evenodd" stroke="none"/>
      <path d="M-169.7 -17.45 Q-167.55 -18.65 -164.75 -19.15 L-162.4 -19.5 -154.45 -20.1 -152.35 -20.2 -137.3 -20.8 -118.5 -19.0 -118.1 -18.95 Q-108.8 -17.65 -99.55 -15.4 L-93.5 -13.9 -79.15 -9.05 -86.6 -9.35 Q-112.9 -16.55 -140.3 -16.95 L-141.05 -16.95 Q-150.35 -17.05 -159.45 -16.5 L-167.7 -15.85 -171.6 -15.45 Q-171.8 -15.45 -172.05 -15.8 L-169.7 -17.45 M-130.65 -38.05 Q-121.05 -36.0 -111.5 -33.0 L-108.0 -31.9 Q-98.4 -28.4 -89.15 -23.4 -78.1 -17.4 -67.2 -11.2 L-59.25 -6.7 -55.9 -4.75 -55.15 -4.3 -63.85 -7.15 Q-64.7 -8.5 -66.8 -8.6 L-67.95 -8.65 -72.2 -11.05 Q-85.35 -18.45 -98.85 -25.1 -114.15 -32.7 -130.4 -35.5 L-131.35 -35.7 -146.3 -37.15 -147.0 -37.2 -150.5 -37.25 -153.7 -37.2 -153.85 -36.85 -154.2 -36.45 -154.7 -36.1 -155.3 -35.95 -156.05 -36.1 -156.45 -36.45 -156.5 -36.8 -156.4 -37.45 -155.75 -38.6 -155.65 -38.75 Q-155.2 -39.55 -154.3 -39.8 L-153.8 -39.95 -152.95 -40.25 -152.8 -40.3 -142.25 -39.65 -140.65 -39.5 -140.4 -39.5 -130.65 -38.05 M-186.45 -3.0 L-188.15 -4.95 -188.25 -5.05 -188.2 -5.05 -187.85 -5.2 -178.7 -6.45 -177.55 -6.6 -173.05 -7.3 -166.45 -8.2 -141.7 -6.9 -158.45 -6.05 -160.0 -5.95 -166.55 -5.6 -171.4 -5.1 -171.7 -5.05 -174.05 -4.6 Q-180.45 -3.2 -186.45 -3.0 M-54.3 -1.4 L-54.3 1.3 -58.4 0.0 -64.45 -2.1 -68.05 -3.4 -71.85 -4.75 -75.05 -5.85 -69.65 -6.05 -54.3 -1.4 M-54.3 4.7 L-54.3 9.9 -57.15 10.95 -70.3 12.15 -60.85 8.75 Q-89.3 10.55 -118.2 9.0 L-125.55 8.55 -139.2 7.95 -141.3 7.9 Q-146.95 7.85 -151.75 6.75 -156.6 5.6 -160.55 3.4 -160.8 3.25 -159.8 3.2 L-145.75 4.25 -110.25 6.35 Q-83.05 7.7 -55.9 4.85 L-54.3 4.7 M-72.9 13.0 L-64.15 13.35 -70.15 15.3 Q-88.45 21.1 -107.25 25.2 -128.2 27.0 -148.2 31.05 -160.9 31.7 -173.45 30.85 L-174.95 30.75 -175.4 30.7 -175.55 30.3 -175.5 30.3 Q-138.55 28.85 -100.95 20.65 L-97.3 19.8 -83.5 16.25 -72.9 13.0 M-129.25 -7.65 L-129.05 -7.45 -130.0 -7.4 -130.35 -7.6 Q-133.35 -8.9 -136.45 -9.75 L-136.35 -9.75 -136.0 -9.75 -133.45 -9.6 Q-130.9 -9.15 -129.25 -7.65 M-87.85 29.75 L-84.0 29.15 Q-78.55 28.35 -76.5 26.5 L-72.3 25.35 Q-94.6 34.75 -118.65 39.15 L-110.35 36.55 Q-99.15 33.0 -87.85 29.75 M-167.05 48.9 L-167.05 48.55 -166.8 47.9 Q-166.3 47.05 -165.3 47.2 L-156.85 47.1 -166.9 49.65 -167.05 48.9 M-140.65 46.95 L-152.65 49.45 -162.5 51.25 Q-165.95 51.85 -166.75 50.05 L-140.65 46.95 M-61.0 25.0 L-67.35 26.55 Q-65.75 25.1 -65.4 23.45 L-54.5 20.55 -61.0 25.0 M-188.25 -5.05 L-171.7 -5.05 -188.25 -5.05" fill="#887344" fill-rule="evenodd" stroke="none"/>
      <path d="M-209.5 -23.8 Q-203.6 -25.9 -196.45 -26.85 L-192.8 -27.55 Q-189.65 -23.85 -192.85 -21.55 -193.1 -21.45 -193.3 -21.3 L-193.25 -21.25 Q-195.25 -20.05 -199.15 -19.25 -206.75 -17.65 -214.2 -19.55 L-214.5 -19.65 Q-212.75 -19.75 -210.8 -20.8 -209.15 -21.7 -209.3 -23.55 L-209.5 -23.8 M-213.95 19.95 Q-213.4 19.5 -212.8 19.45 -210.85 20.55 -208.7 20.25 -206.45 19.95 -206.35 22.2 L-206.3 22.95 -206.3 23.0 -207.5 23.1 Q-210.85 22.75 -213.2 23.7 -212.5 23.15 -212.3 22.2 -212.4 20.4 -213.95 19.95 M-185.0 -7.5 L-190.65 -6.9 Q-198.85 -6.25 -205.8 -9.4 -206.2 -9.55 -206.3 -10.3 L-202.5 -11.5 Q-200.45 -9.25 -195.5 -8.65 -191.05 -8.1 -189.3 -11.8 L-189.65 -13.15 Q-187.75 -13.7 -186.3 -14.95 L-182.1 -15.45 Q-182.25 -11.55 -184.45 -8.3 L-185.0 -7.5 M-196.8 35.5 L-194.3 34.3 -193.9 34.0 -193.85 34.0 -192.45 33.95 Q-190.05 35.05 -188.35 33.55 L-186.55 33.25 -186.05 33.2 -185.75 33.45 -185.5 33.7 Q-187.65 34.15 -189.75 34.95 L-191.1 35.75 -196.8 35.5 M-194.5 40.1 L-191.8 39.45 -191.05 39.95 -191.05 40.25 -194.0 40.55 -194.5 40.1" fill="#8d7847" fill-rule="evenodd" stroke="none"/>
      <path d="M-216.4 4.35 Q-217.5 3.7 -218.3 2.45 -218.6 0.5 -217.15 -0.9 L-217.0 -1.0 Q-215.65 -2.25 -213.85 -2.45 L-213.8 -2.55 Q-212.3 -1.3 -210.9 -1.6 -209.4 -1.9 -208.35 -0.9 L-207.85 -0.3 -207.3 0.45 -207.35 1.0 Q-207.75 2.85 -209.45 3.9 L-210.75 4.45 Q-214.2 5.6 -216.4 4.35" fill="#806744" fill-rule="evenodd" stroke="none"/>
      <path d="M-46.3 -7.1 L-46.3 16.6 Q-50.25 22.85 -54.3 20.4 L-54.3 18.95 -54.3 12.25 -54.3 9.9 -54.3 4.7 -54.3 3.55 -54.3 1.4 -54.3 1.3 -54.3 -1.4 -54.3 -4.05 -54.3 -6.0 -54.3 -10.7 Q-50.3 -14.0 -46.3 -7.1" fill="#6f5f3c" fill-rule="evenodd" stroke="none"/>
      <path d="M-164.75 -19.15 Q-168.65 -21.35 -172.1 -23.8 -172.95 -24.4 -170.85 -24.55 -162.8 -22.2 -154.45 -20.1 L-162.4 -19.5 -164.75 -19.15 M-71.85 -4.75 L-68.05 -3.4 -64.45 -2.1 -63.35 -0.8 -64.1 -0.4 -64.8 -0.1 Q-73.3 -2.7 -83.5 -3.1 L-126.6 -5.3 -138.2 -6.1 -140.55 -6.75 -129.7 -6.2 -129.65 -6.35 -92.85 -4.8 -83.5 -4.6 -74.5 -4.9 -71.85 -4.75 M-155.0 -5.05 L-148.6 -2.8 -139.65 -0.05 -147.7 -0.8 Q-153.15 -2.55 -158.2 -5.05 L-160.0 -5.95 -158.45 -6.05 -155.75 -5.3 -155.0 -5.05 -158.2 -5.05 -155.0 -5.05 M-72.9 13.0 L-83.5 16.25 -83.9 16.25 Q-100.6 15.75 -117.05 19.4 -134.1 23.25 -148.35 23.45 -145.8 21.3 -142.8 19.6 L-138.8 19.45 -133.95 18.85 Q-118.3 17.55 -104.5 14.65 L-72.9 13.0 M-106.4 -7.5 L-106.35 -6.8 Q-117.0 -5.75 -129.25 -7.65 -130.9 -9.15 -133.45 -9.6 L-106.4 -7.5 M-113.75 -10.35 L-116.25 -10.45 -150.6 -12.95 Q-155.25 -14.55 -159.45 -16.5 -150.35 -17.05 -141.05 -16.95 L-139.2 -16.55 -136.0 -15.85 -120.5 -12.15 -113.75 -10.35 M-89.4 26.3 L-86.6 25.9 -90.15 26.6 -89.4 26.3 M-75.3 24.05 L-71.4 23.4 Q-67.45 22.7 -65.3 21.4 -68.1 24.05 -75.65 25.4 L-75.3 24.05 M-97.5 28.1 L-119.85 32.8 -135.45 35.95 -132.3 34.3 Q-122.2 32.65 -114.35 29.75 -122.2 32.65 -132.3 34.3 -129.05 32.6 -125.55 31.15 L-123.75 30.85 -114.35 29.75 -104.7 28.5 -101.75 28.35 -97.5 28.1 M-142.5 40.2 L-137.8 39.2 -116.85 34.8 -121.95 36.65 Q-134.6 41.45 -144.35 41.45 L-142.5 40.2 M-129.85 40.35 L-151.0 44.0 -135.2 41.1 -129.85 40.35 M-168.95 48.65 L-167.05 48.9 -166.9 49.65 -169.05 50.2 -166.75 50.05 Q-165.95 51.85 -162.5 51.25 L-152.65 49.45 -143.9 49.05 Q-152.8 50.75 -161.55 53.4 -172.0 56.55 -178.35 51.7 -173.75 50.1 -168.95 48.65 M-126.3 46.55 L-103.3 41.95 Q-107.7 45.5 -119.75 46.1 L-126.3 46.55 M-136.45 -9.75 L-136.6 -9.8 -136.0 -9.75 -136.35 -9.75 -136.45 -9.75" fill="#c0ad83" fill-rule="evenodd" stroke="none"/>
      <path d="M-169.35 19.9 Q-155.35 20.15 -142.5 19.45 L-133.95 18.85 -138.8 19.45 -142.8 19.6 Q-154.15 20.15 -165.35 22.0 -175.15 23.6 -183.05 21.3 L-169.35 19.9 M-86.6 25.9 L-75.95 23.8 -75.3 23.7 -75.3 24.05 -75.65 25.4 -76.5 26.5 Q-78.55 28.35 -84.0 29.15 L-87.85 29.75 Q-102.45 32.0 -116.85 34.8 L-137.8 39.2 -142.5 40.2 Q-160.2 43.7 -177.8 43.5 -179.8 43.5 -179.55 41.55 -158.0 40.05 -135.45 35.95 L-119.85 32.8 -97.5 28.1 -90.15 26.6 -86.6 25.9" fill="#b49e6d" fill-rule="evenodd" stroke="none"/>
      <path d="M-217.75 -21.65 L-217.7 -22.95" fill="none" stroke="#000000" stroke-linecap="square" stroke-linejoin="round" stroke-width="5.0"/>
      <path d="M-31.55 7.95 L-31.55 -2.05 Q-38.85 -7.1 -46.3 -7.1 L-46.3 16.6 Q-38.85 14.95 -31.55 9.0 L-31.55 7.95 Q72.9 14.1 187.7 7.95 L211.8 6.3 Q221.4 4.4 223.85 0.95 229.8 -14.6 212.25 -11.25 141.35 2.4 -31.55 -2.05 M-191.6 -53.6 Q-198.9 -52.85 -205.8 -45.55 -207.35 -34.8 -217.75 -27.55 L-217.65 -24.4 M-79.75 -32.5 Q-92.1 -40.25 -107.2 -45.5 -144.3 -58.4 -191.6 -53.6 M-62.45 -19.25 L-65.15 -21.7 -65.45 -21.95 Q-72.05 -27.7 -79.75 -32.5 M-217.75 -21.65 Q-218.45 -12.1 -223.75 -3.05 -221.9 1.1 -222.15 7.55 L-222.25 9.95 Q-228.15 23.0 -222.8 27.45 L-222.75 30.7 Q-221.9 36.55 -221.2 37.95 -219.7 41.0 -216.75 40.95 L-216.45 40.95 -216.2 40.95 Q-213.7 41.05 -212.4 42.85 -210.75 45.05 -211.05 49.95 -201.35 55.8 -193.2 54.45 -130.95 57.55 -85.9 38.25 L-62.3 25.85 -61.55 25.35 -61.0 25.0 M-54.3 -10.7 Q-50.3 -14.0 -46.3 -7.1 M-54.3 -10.7 L-54.3 -6.0 -54.3 -4.05 -54.3 -1.4 -54.3 1.3 -54.3 1.4 -54.3 3.55 -54.3 4.7 -54.3 9.9 -54.3 12.25 -54.3 18.95 -54.3 20.4 Q-50.25 22.85 -46.3 16.6 M-61.15 -18.0 L-62.45 -19.25 M-61.15 -18.0 L-60.25 -17.15 -57.05 -13.7 M-54.5 20.55 L-54.3 20.4 M-54.5 20.55 L-61.0 25.0" fill="none" stroke="#000000" stroke-linecap="round" stroke-linejoin="round" stroke-width="5.0"/>
      <path d="M-183.7 -34.05 Q-175.05 -34.1 -166.0 -33.65 M-126.6 -5.3 L-155.0 -5.05 M-158.2 -5.05 L-171.35 -5.05 -171.7 -5.05 -188.25 -5.05 M-158.2 -5.05 L-155.0 -5.05" fill="none" stroke="#958a2f" stroke-linecap="round" stroke-linejoin="round" stroke-width="3.0"/>
      <path d="M-166.0 -33.65 L-165.0 -33.6 -158.05 -33.15 -130.2 -30.25 -129.65 -30.2 -115.1 -27.95 -112.2 -27.45 -104.25 -26.05" fill="none" stroke="#958a2f" stroke-linecap="round" stroke-linejoin="round" stroke-width="3.0"/>
      <path d="M-57.05 -13.7 L-55.0 -11.5" fill="none" stroke="#000000" stroke-linecap="round" stroke-linejoin="round" stroke-width="5.0"/>
      <path d="M-54.85 -11.3 L-54.3 -10.7" fill="none" stroke="#000000" stroke-linecap="square" stroke-linejoin="round" stroke-width="5.0"/>
      <path d="M-114.35 29.75 Q-122.2 32.65 -132.3 34.3 M-182.25 35.95 Q-152.7 37.5 -132.3 34.3" fill="none" stroke="#817729" stroke-linecap="round" stroke-linejoin="round" stroke-width="3.0"/>
      <path d="M-188.75 19.1 Q-190.5 17.25 -191.3 14.8 L-191.7 13.5 -191.05 11.75 -182.35 9.5 -181.15 5.9 -188.2 -5.05 Q-183.4 -9.4 -182.55 -16.0 -181.4 -25.1 -183.7 -34.05 -181.4 -33.95 -179.3 -35.25 L-178.9 -35.5 -178.5 -35.7 -176.95 -36.85 -176.65 -37.9 Q-182.1 -45.8 -189.5 -51.9 L-191.6 -53.6 M-193.2 54.45 L-188.55 51.05 M-187.85 50.1 Q-184.7 46.2 -183.15 41.45 L-182.35 38.85 M-182.3 38.25 L-182.25 35.95 -185.75 33.45 M-186.05 33.2 Q-190.45 28.4 -189.4 21.95 L-189.15 20.5" fill="none" stroke="#000000" stroke-linecap="round" stroke-linejoin="round" stroke-width="4.0"/>
      <path d="M-182.3 38.55 L-182.3 38.25" fill="none" stroke="#000000" stroke-linecap="round" stroke-linejoin="round" stroke-width="4.0"/>
    </g>
  </defs>
</svg>
