<?xml version="1.0" encoding="UTF-8" standalone="no"?>
<svg xmlns:xlink="http://www.w3.org/1999/xlink" height="720.75px" width="1716.8px" xmlns="http://www.w3.org/2000/svg">
  <g transform="matrix(1, 0, 0, 1, 307.05, 450.35)">
    <use height="76.0" transform="matrix(1.0, 0.0, 0.0, 1.0, -94.1, -35.25)" width="189.55" xlink:href="#sprite0"/>
  </g>
  <defs>
    <g id="sprite0" transform="matrix(1, 0, 0, 1, 94.1, 35.2)">
      <use height="76.0" transform="matrix(1.0, 0.0, 0.0, 1.0, -94.1, -35.2)" width="189.55" xlink:href="#shape0"/>
    </g>
    <g id="shape0" transform="matrix(1, 0, 0, 1, 94.1, 35.2)">
      <path d="M15.2 -13.7 Q14.5 -13.1 13.85 -13.1 12.95 -13.1 12.65 -13.45 L12.6 -13.8 Q12.6 -15.05 16.8 -15.35 L23.6 -15.85 24.4 -15.7 24.5 -15.3 Q24.45 -14.35 21.85 -14.25 L17.5 -14.3 Q15.95 -14.3 15.2 -13.7 M9.05 -19.9 Q11.9 -22.0 26.65 -24.75 41.35 -27.55 52.9 -28.45 L70.7 -29.65 83.4 -29.0 Q85.4 -27.85 88.45 -26.7 91.45 -25.55 93.85 -23.7 96.2 -21.85 95.15 -12.55 59.7 31.55 53.3 37.1 L52.15 38.05 50.85 38.1 Q42.3 40.05 23.6 40.55 4.85 41.05 -2.3 40.45 L-15.0 38.8 Q-20.5 37.75 -21.3 37.1 -24.05 38.3 -27.9 39.1 L-42.95 40.3 -55.05 40.25 -72.1 39.75 -89.35 39.0 -93.1 38.6 -94.1 34.9 -93.95 31.25 Q-93.5 29.3 -91.55 24.95 L-91.5 24.85 -91.5 24.75 -89.35 21.15 Q-86.75 17.45 -81.55 11.6 L-69.8 -0.95 -62.55 -8.75 Q-57.2 -14.3 -49.9 -19.1 -42.6 -23.9 -26.2 -24.4 -9.85 -24.95 1.6 -22.45 7.0 -21.3 9.05 -19.9 M9.25 -7.45 L16.2 -8.85 Q18.15 -8.85 19.1 -7.55 L36.3 -6.95 Q37.95 -6.95 41.35 -7.9 44.85 -8.85 46.3 -8.85 51.1 -8.85 50.6 -8.05 50.6 -7.4 49.45 -7.45 L42.75 -6.95 Q37.6 -5.6 36.25 -5.6 L24.75 -5.55 Q20.0 -5.65 18.5 -6.45 17.9 -7.55 16.75 -7.55 10.7 -6.1 9.2 -6.1 6.3 -6.1 6.8 -7.6 L9.25 -7.45 M3.1 -2.8 Q3.1 -3.2 4.55 -3.8 6.0 -4.35 7.1 -4.35 L9.55 -3.95 20.0 -3.6 29.8 -2.95 32.45 -3.3 40.4 -3.7 47.45 -4.35 Q49.55 -4.35 49.55 -3.8 49.55 -2.25 35.5 -2.6 L29.9 -1.6 14.65 -1.85 Q8.7 -1.85 8.1 -2.4 L7.95 -2.8 7.05 -2.95 3.9 -2.1 3.4 -2.2 Q3.1 -2.5 3.1 -2.8 M17.35 -10.95 L13.95 -10.5 12.0 -10.1 11.3 -10.2 Q11.0 -10.5 11.05 -10.8 11.05 -11.15 13.15 -11.7 L17.5 -12.35 Q18.85 -12.35 19.55 -11.75 20.25 -11.2 20.6 -11.2 L25.85 -11.75 28.7 -12.35 29.65 -12.2 29.75 -11.8 Q29.75 -11.35 26.5 -10.6 L21.75 -9.85 Q20.0 -9.85 19.1 -10.4 18.2 -10.95 17.35 -10.95 M-1.95 19.45 L-0.95 19.35 0.15 19.35 36.85 18.0 Q45.25 8.45 59.45 -5.3 73.6 -19.05 78.6 -24.45 77.7 -24.3 66.25 -24.7 54.75 -25.1 44.05 -23.05 L23.9 -18.7 12.45 -16.05 2.5 -4.6 Q-9.95 9.05 -14.8 18.3 L-18.0 24.05 Q-13.2 21.15 -5.9 19.95 L-4.35 19.75 -1.95 19.45 M25.8 -14.45 L25.55 -15.05 Q25.55 -16.7 35.1 -16.7 40.3 -16.7 47.85 -18.4 L58.15 -20.85 58.95 -20.7 59.05 -20.3 Q59.05 -19.4 54.8 -18.25 50.05 -17.0 43.65 -16.6 37.05 -15.2 32.65 -15.7 30.2 -16.0 28.1 -15.2 L26.35 -14.35 25.8 -14.45 M34.5 -12.05 Q34.5 -12.45 37.3 -13.35 40.3 -14.35 42.45 -14.35 L45.3 -13.9 50.05 -13.45 56.95 -14.1 57.9 -13.95 58.0 -13.55 Q58.0 -12.1 50.0 -12.1 L45.35 -12.5 42.35 -12.95 Q40.25 -12.95 37.85 -12.15 L35.5 -11.35 34.8 -11.45 Q34.5 -11.75 34.5 -12.05 M59.85 -18.8 Q59.85 -19.8 65.65 -20.1 L66.6 -19.95 66.7 -19.55 Q66.7 -18.1 60.8 -18.1 L60.1 -18.2 59.85 -18.8 M60.05 0.45 L60.6 1.45 58.05 3.55 Q47.0 12.15 41.9 17.05 L43.65 17.2 47.65 13.55 55.1 7.15 Q55.6 7.15 55.9 7.65 L49.15 14.4 45.65 17.7 Q47.45 18.4 48.95 19.85 L54.15 14.95 63.5 6.85 63.95 6.4 68.6 1.7 68.95 1.35 72.6 -2.5 73.85 -3.75 79.55 -9.1 81.75 -10.85 82.7 -10.7 82.8 -10.3 82.75 -10.15 80.9 -8.25 72.55 -0.35 69.75 2.3 69.6 2.45 68.15 3.75 63.9 7.7 Q54.9 16.1 50.05 21.1 L51.5 23.45 55.1 19.9 56.5 18.5 54.75 22.4 52.1 24.8 52.5 25.9 53.9 24.4 52.9 27.05 53.35 29.3 55.7 27.9 Q57.9 26.45 68.95 13.65 L85.9 -6.45 91.95 -13.9 92.1 -14.05 92.25 -14.2 92.35 -16.05 Q92.4 -17.2 91.9 -18.3 91.3 -17.4 89.2 -17.25 L91.15 -19.55 89.95 -20.75 89.65 -21.0 86.15 -17.35 84.1 -17.4 88.65 -21.8 87.2 -22.7 82.55 -17.2 Q80.95 -16.9 80.05 -16.05 79.4 -15.5 79.75 -14.35 79.1 -14.5 79.1 -15.05 L86.35 -23.15 85.3 -23.7 75.5 -14.0 75.95 -13.55 Q75.95 -13.25 74.8 -11.95 L67.8 -5.1 66.0 -3.4 63.85 -1.45 63.15 -1.95 63.0 -2.05 65.8 -4.6 72.7 -11.35 65.8 -5.05 62.7 -2.2 Q57.0 -5.85 59.95 0.25 L57.55 2.45 60.05 0.45 M69.65 -3.65 L77.05 -10.65 80.1 -13.55 80.9 -12.3 78.25 -9.9 72.95 -5.1 67.95 0.25 67.4 0.9 64.8 3.6 62.85 5.65 56.05 11.9 Q55.35 11.75 55.35 11.2 55.35 10.3 61.9 3.85 L65.95 -0.1 66.95 -1.1 69.65 -3.65 M71.35 7.15 Q70.65 7.0 70.65 6.45 70.65 6.1 71.5 5.2 L71.35 7.15 M65.35 11.3 Q64.7 10.8 64.1 10.7 L64.9 9.75 Q65.5 11.1 65.35 11.3 M41.35 2.85 L34.5 2.8 29.15 3.4 Q25.8 3.4 24.9 2.8 24.0 2.15 20.15 2.15 19.6 2.15 19.3 1.8 19.2 2.1 19.2 1.45 19.2 0.4 23.05 0.4 25.35 0.4 25.6 1.25 25.85 2.05 29.05 2.05 L38.75 1.8 Q41.55 1.8 43.15 0.15 L43.75 0.65 Q41.95 2.7 41.35 2.85 M40.35 23.15 L42.0 23.15 40.15 22.45 38.55 22.5 38.45 22.4 Q32.65 17.65 30.6 22.1 L30.35 22.65 2.15 23.75 -1.5 24.05 -6.6 24.55 -7.2 24.65 -9.85 25.15 Q-15.35 26.65 -18.15 29.75 L-13.85 29.1 -9.5 28.65 -6.9 28.45 -1.4 28.2 3.85 28.0 13.85 27.9 14.35 28.2 14.45 28.45 Q14.45 29.5 4.6 29.9 L0.95 30.0 -1.3 30.05 -6.95 30.3 -10.65 30.5 -19.45 31.5 -19.55 31.65 Q-18.95 32.75 -17.45 33.6 L-13.85 33.05 -12.45 32.85 Q-13.95 34.5 -15.2 34.65 L-12.6 35.35 -7.0 34.9 -7.0 36.2 15.1 37.05 Q29.65 37.0 48.55 33.8 L48.3 32.7 48.35 32.7 48.15 31.6 48.0 31.45 48.1 31.45 47.65 29.55 47.25 29.55 46.75 29.15 47.55 29.15 47.2 28.0 47.15 28.0 46.6 28.05 45.95 28.05 44.5 28.1 43.15 26.85 45.15 26.75 45.85 26.75 46.55 26.7 Q45.7 25.45 44.25 24.45 L44.1 24.45 43.9 24.5 40.95 24.65 36.85 24.8 34.2 24.9 30.35 25.0 30.15 25.0 30.1 25.0 30.35 22.65 29.75 24.95 29.75 25.0 29.65 25.0 29.55 25.0 22.25 25.3 21.55 23.8 21.6 25.35 21.25 25.4 5.15 26.15 3.2 26.4 -1.45 26.8 -3.35 26.9 Q-4.65 26.9 -4.95 26.55 L-5.05 26.2 Q-5.1 25.7 -1.5 25.3 L2.6 24.85 12.3 24.2 30.05 23.4 30.1 23.4 30.35 22.65 30.35 23.4 33.55 23.25 34.4 23.2 36.7 23.2 39.4 23.2 40.35 23.2 41.25 23.25 40.35 23.15 M31.25 10.45 L26.5 11.15 Q24.1 11.15 22.0 10.35 L19.45 9.55 13.15 10.65 Q11.95 10.65 11.7 10.3 L11.55 9.95 11.75 9.45 Q13.65 9.65 19.5 8.15 20.0 8.15 21.7 9.0 23.35 9.8 26.55 9.8 L33.35 8.9 Q33.95 9.1 34.0 9.45 33.95 9.8 31.25 10.45 M31.85 7.4 L31.35 7.3 Q31.05 7.0 31.1 6.7 31.05 5.4 34.95 5.4 L38.65 5.8 38.75 6.2 Q38.75 7.25 37.6 7.15 L34.7 6.8 31.85 7.4 M28.7 5.95 Q28.7 6.3 22.55 7.4 L20.95 7.05 17.0 6.65 12.3 6.05 8.3 6.65 Q5.45 6.65 4.9 5.65 L4.7 4.2 -0.3 4.9 Q-2.45 4.9 -2.75 4.5 L-2.7 3.8 2.1 3.4 Q3.45 2.9 4.85 2.9 5.85 2.9 6.15 4.1 6.5 5.3 8.3 5.3 L12.35 4.65 14.65 5.3 21.05 4.9 Q22.4 4.9 22.35 6.05 L27.1 5.4 28.6 5.55 28.7 5.95 M34.55 14.8 L33.2 14.9 30.95 14.75 30.65 14.45 Q28.7 14.0 9.6 14.05 L-7.25 14.15 -9.1 14.4 -10.55 14.05 -10.6 13.7 Q-10.6 13.05 -6.5 12.8 L1.4 12.65 28.5 13.05 32.05 13.4 Q34.8 13.6 34.8 14.2 L34.55 14.8 M37.4 18.85 L37.45 18.85 37.75 18.9 37.7 18.9 37.45 18.85 37.35 18.85 37.4 18.85 M13.95 1.2 Q13.95 1.8 9.9 2.65 8.85 2.65 8.55 2.25 8.3 1.8 7.5 1.8 L4.6 2.4 Q4.0 2.4 3.7 2.05 L3.65 1.7 Q3.65 1.35 4.85 0.9 6.2 0.4 7.75 0.4 9.35 0.4 9.6 0.85 L10.0 1.3 12.6 0.65 13.85 0.8 13.95 1.2 M2.4 9.3 Q2.3 9.6 2.35 8.95 2.3 8.25 6.45 7.9 7.05 8.1 7.1 8.45 7.05 8.85 5.4 9.3 L3.25 9.65 Q2.7 9.65 2.4 9.3 M0.4 9.9 Q-0.5 9.9 -0.8 9.55 L-0.85 9.2 Q-0.85 8.75 0.4 8.65 L1.4 8.8 1.55 9.2 Q1.55 9.9 0.4 9.9 M-2.45 15.85 L1.95 15.3 3.8 15.15 Q6.4 15.15 7.15 15.75 7.85 16.3 9.25 16.3 12.55 16.3 14.1 15.15 L14.75 15.65 Q14.1 16.45 12.05 17.1 L9.2 17.65 Q7.25 17.65 6.65 17.05 L5.65 16.45 -1.4 16.9 -1.85 16.95 -4.0 17.4 -5.05 17.2 -5.25 17.05 -5.3 16.7 Q-5.35 16.45 -4.55 16.25 L-2.45 15.85 M20.0 28.7 Q20.0 28.25 21.7 28.0 L21.7 29.35 20.95 29.4 Q20.35 29.4 20.05 29.05 L20.0 28.7 M7.35 35.4 Q7.25 35.7 6.7 34.55 L7.0 34.6 Q7.35 34.8 7.35 35.4 M28.8 27.4 L29.1 27.35 29.4 27.35 29.45 28.45 29.2 28.45 28.8 28.45 28.45 28.45 28.0 28.45 24.7 28.95 24.05 29.05 23.4 27.75 26.55 27.5 28.25 27.4 28.8 27.4 M28.45 29.85 L28.1 31.05 27.6 31.1 27.6 31.05 25.1 31.3 24.55 30.15 28.0 29.85 28.45 29.85 M29.75 29.75 L30.0 29.7 29.75 30.9 29.75 30.45 29.75 29.75 M27.2 33.3 Q27.1 33.6 27.1 32.95 L27.15 32.75 27.5 32.8 27.2 33.3 M-44.1 -14.55 Q-44.15 -14.95 -38.25 -15.7 L-32.35 -16.35 Q-28.85 -16.35 -27.75 -15.4 -26.65 -14.45 -22.8 -14.45 L-14.4 -15.1 Q-11.4 -15.1 -11.4 -14.55 L-22.75 -13.1 Q-26.6 -13.1 -27.8 -14.0 -29.1 -14.95 -32.6 -14.95 L-37.85 -14.4 -41.85 -13.85 Q-43.65 -13.85 -44.05 -14.2 L-44.1 -14.55 M-53.9 -4.2 L-46.75 -4.85 -41.85 -4.7 -41.75 -4.3 -47.8 -3.45 -55.45 -2.85 Q-57.1 -2.85 -57.5 -3.2 L-57.55 -3.55 -53.9 -4.2 M-47.55 -9.95 Q-47.55 -12.1 -42.1 -12.1 L-22.25 -10.7 -17.1 -11.25 -13.5 -11.85 Q-9.85 -11.85 -8.5 -11.1 -10.25 -9.35 -22.35 -9.35 L-42.1 -10.7 -46.3 -10.25 Q-46.3 -9.6 -46.45 -9.3 L-46.85 -9.1 -47.55 -9.95 M-50.55 -6.6 Q-52.6 -6.6 -52.55 -7.4 -52.55 -8.05 -40.8 -9.2 L-38.95 -9.35 -33.4 -8.0 Q-27.05 -6.7 -22.7 -6.7 L-18.0 -7.35 -17.3 -7.2 -17.2 -6.8 Q-17.2 -5.35 -22.75 -5.35 -34.5 -5.35 -36.3 -6.6 -36.95 -8.05 -37.5 -8.05 L-45.5 -7.3 -50.55 -6.6 M-44.7 -0.8 L-43.25 0.3 Q-41.1 1.8 -33.4 1.3 L-33.3 1.7 Q-33.3 2.65 -37.9 2.65 -41.95 2.65 -44.05 1.35 -46.2 0.05 -47.55 0.05 -49.95 0.05 -51.8 0.8 L-53.75 1.65 Q-54.45 1.5 -54.4 0.85 -54.4 0.45 -52.7 -0.35 -50.5 -1.35 -47.55 -1.35 -45.65 -1.35 -44.7 -0.8 M-37.35 -4.05 L-34.35 -4.35 Q-32.1 -4.35 -31.2 -3.1 -31.35 -2.35 -32.35 -2.35 L-36.05 -2.85 Q-37.15 -2.85 -37.45 -3.2 L-37.5 -3.55 -37.35 -4.05 M-28.4 -1.1 Q-29.1 -1.25 -29.05 -1.9 -29.1 -3.35 -25.25 -3.35 L-19.3 -2.75 -14.15 -2.2 -11.5 -2.85 -10.85 -2.3 Q-10.85 -0.85 -14.0 -0.85 L-19.7 -1.4 -25.2 -1.95 -28.0 -1.7 -28.4 -1.1 M-7.8 -14.8 L-5.45 -14.85 Q-3.35 -14.85 -2.15 -14.1 -2.65 -13.35 -3.05 -13.35 -8.0 -13.35 -7.95 -14.3 L-7.8 -14.8 M-11.6 -6.7 L-7.45 -7.35 -6.5 -7.2 -6.4 -6.8 Q-6.4 -6.35 -8.1 -5.85 L-11.65 -5.35 Q-14.4 -5.35 -15.6 -6.1 L-15.1 -7.3 Q-14.25 -6.7 -11.6 -6.7 M-4.0 -10.55 Q-4.05 -9.85 -5.45 -9.85 -6.55 -9.85 -6.85 -10.2 L-6.9 -10.55 -6.75 -11.05 -5.45 -11.1 -4.1 -10.95 -4.0 -10.55 M-61.3 -3.5 Q-75.45 12.85 -82.85 22.3 L-83.2 22.75 Q-74.15 20.05 -57.7 20.05 -35.1 20.05 -23.0 26.2 L-20.3 18.25 Q-19.1 14.1 -9.65 1.75 -0.25 -10.6 4.85 -15.75 -9.2 -19.55 -28.15 -19.7 -47.15 -19.85 -61.3 -3.5 M-18.5 4.15 L-22.7 3.65 -22.75 3.1 Q-22.75 2.4 -22.05 2.4 -17.0 2.4 -16.95 3.45 L-17.15 4.05 -18.5 4.15 M-24.15 2.8 L-28.0 2.9 -32.2 2.55 -32.25 2.2 -32.1 1.9 -30.0 1.55 -27.1 1.4 -23.65 1.55 -23.5 1.95 Q-23.55 2.7 -24.15 2.8 M-21.0 8.9 L-30.75 9.15 Q-33.9 9.15 -38.0 8.05 L-42.35 6.9 Q-49.55 7.0 -51.9 5.9 -54.4 4.8 -55.85 4.8 L-60.7 5.35 -64.15 5.9 -64.7 5.8 -64.95 5.2 Q-64.95 4.75 -62.7 4.15 -59.9 3.4 -55.75 3.4 -52.9 3.4 -51.35 4.7 -47.9 6.15 -45.6 5.8 -42.85 5.35 -41.15 5.8 -36.8 6.9 -35.75 7.55 L-24.3 7.65 Q-20.35 7.65 -20.35 8.2 -20.4 8.8 -21.0 8.9 M-47.25 10.4 L-45.8 9.9 -42.25 9.4 Q-41.1 9.4 -40.55 10.15 -40.15 10.85 -36.45 10.55 L-31.55 11.05 -27.15 11.45 Q-24.8 11.6 -23.5 12.9 L-24.3 13.65 -30.75 12.95 Q-32.05 12.2 -32.75 12.05 L-40.25 11.65 Q-40.7 10.8 -42.35 10.8 L-46.5 11.4 Q-47.2 11.4 -47.5 11.05 L-47.55 10.8 -57.55 11.15 Q-60.9 11.15 -60.95 9.8 -60.45 8.15 -60.6 7.45 -63.05 7.45 -64.4 7.95 L-66.8 8.4 -68.1 8.3 -68.15 7.6 Q-68.15 7.4 -66.0 6.85 L-61.25 6.15 Q-59.2 6.15 -59.0 7.2 -58.85 7.75 -59.15 8.55 -59.2 10.5 -57.1 10.2 L-51.25 9.4 Q-47.3 9.4 -47.25 10.3 L-47.25 10.45 -47.25 10.4 M-33.1 17.2 Q-33.85 17.0 -33.8 16.6 -33.85 15.65 -24.45 15.65 -22.75 15.65 -22.75 16.2 -22.75 17.4 -30.9 17.4 L-33.1 17.2 M-32.05 17.6 L-27.35 18.15 Q-26.8 18.45 -26.7 18.65 -27.75 19.9 -28.9 19.9 L-33.95 18.9 Q-37.9 17.95 -38.7 17.95 L-55.45 18.9 -56.2 18.55 -56.25 18.2 Q-56.25 17.15 -42.5 16.85 L-40.5 16.8 -39.35 16.65 -33.15 17.4 -32.05 17.6 M-88.5 30.4 L-87.1 30.1 -85.55 29.75 Q-86.75 34.3 -88.45 34.55 L-88.45 34.7 -79.7 35.3 -77.8 35.5 Q-70.7 36.1 -51.0 36.2 -26.75 36.3 -25.2 34.8 L-24.2 33.75 Q-24.95 33.85 -25.7 32.55 L-23.8 32.4 Q-24.4 31.65 -25.5 30.95 L-26.55 30.8 -34.2 29.7 Q-44.65 28.1 -44.65 27.25 L-44.55 26.95 Q-44.4 26.65 -43.85 26.65 L-43.15 26.7 -32.0 28.15 -38.3 26.4 -38.8 26.25 -39.2 26.4 -40.65 26.2 -54.25 25.45 Q-66.5 25.45 -76.05 27.1 L-80.15 27.85 -80.55 27.95 -81.6 28.2 -83.65 28.85 -85.0 27.3 -85.45 29.45 -87.0 29.9 -88.5 30.35 -88.5 30.4 M-59.15 2.15 L-59.65 2.05 -59.95 1.45 Q-59.95 0.35 -58.75 0.65 L-57.95 0.8 -57.85 1.2 Q-57.85 2.0 -59.15 2.15 M-56.2 15.3 L-56.25 14.6 Q-56.25 13.4 -48.2 13.4 -46.6 13.4 -45.95 14.8 L-42.45 16.6 Q-46.25 16.4 -47.15 15.7 -47.35 14.7 -48.2 14.7 L-50.55 15.15 -55.45 15.4 -56.2 15.3 M-58.65 17.95 Q-58.65 18.9 -62.3 18.9 -64.2 18.9 -64.55 18.5 L-64.85 17.75 -73.5 17.4 Q-74.2 17.25 -74.2 16.7 -74.2 15.65 -72.2 15.65 -64.95 15.65 -64.0 16.4 -62.9 17.35 -58.75 17.55 L-58.65 17.95 M-72.6 14.65 L-73.15 14.55 -73.4 13.95 Q-73.4 13.45 -72.2 12.95 -70.95 12.4 -69.3 12.4 L-60.85 12.8 -60.75 13.2 Q-60.75 14.3 -63.55 14.2 L-69.5 13.8 Q-70.8 13.8 -71.65 14.25 L-72.6 14.65 M-61.1 24.05 L-68.85 24.35 Q-77.75 24.95 -82.7 26.45 -81.95 26.6 -81.2 27.25 L-79.0 26.85 -77.75 26.65 -76.55 26.45 -61.1 24.2 -54.45 24.15 -61.1 24.05 M-66.55 30.7 Q-66.55 29.8 -59.0 29.7 L-66.5 31.05 -66.55 30.7 M-75.55 28.3 L-62.45 27.45 -57.85 27.4 -49.05 27.8 Q-47.35 28.05 -46.75 28.4 -47.75 29.6 -50.55 29.3 L-54.85 28.9 -57.9 28.7 -75.25 29.35 -75.55 28.3 M-74.85 32.3 L-74.95 31.15 Q-74.55 31.3 -74.75 31.6 L-74.85 32.3 M-85.0 27.3 L-86.85 28.35 -85.8 28.15 -85.0 27.3 M-83.0 29.35 L-81.15 29.05 Q-81.9 30.0 -83.0 29.35 M-88.5 32.2 L-88.5 32.7 -88.4 32.65 -88.15 32.1 -88.5 32.2" fill="#000000" fill-rule="evenodd" stroke="none"/>
      <path d="M15.2 -13.7 Q15.95 -14.3 17.5 -14.3 L21.85 -14.25 Q24.45 -14.35 24.5 -15.3 L24.4 -15.7 23.6 -15.85 16.8 -15.35 Q12.6 -15.05 12.6 -13.8 L12.65 -13.45 Q12.95 -13.1 13.85 -13.1 14.5 -13.1 15.2 -13.7 M-4.35 19.75 L-5.9 19.95 Q-13.2 21.15 -18.0 24.05 L-14.8 18.3 Q-9.95 9.05 2.5 -4.6 L12.45 -16.05 23.9 -18.7 44.05 -23.05 Q54.75 -25.1 66.25 -24.7 77.7 -24.3 78.6 -24.45 73.6 -19.05 59.45 -5.3 45.25 8.45 36.85 18.0 L0.15 19.35 -0.95 19.35 -1.95 19.45 Q-2.5 16.5 -3.75 18.7 L-4.35 19.75 M17.35 -10.95 Q18.2 -10.95 19.1 -10.4 20.0 -9.85 21.75 -9.85 L26.5 -10.6 Q29.75 -11.35 29.75 -11.8 L29.65 -12.2 28.7 -12.35 25.85 -11.75 20.6 -11.2 Q20.25 -11.2 19.55 -11.75 18.85 -12.35 17.5 -12.35 L13.15 -11.7 Q11.05 -11.15 11.05 -10.8 11.0 -10.5 11.3 -10.2 L12.0 -10.1 13.95 -10.5 17.35 -10.95 M3.1 -2.8 Q3.1 -2.5 3.4 -2.2 L3.9 -2.1 7.05 -2.95 7.95 -2.8 8.1 -2.4 Q8.7 -1.85 14.65 -1.85 L29.9 -1.6 35.5 -2.6 Q49.55 -2.25 49.55 -3.8 49.55 -4.35 47.45 -4.35 L40.4 -3.7 32.45 -3.3 29.8 -2.95 20.0 -3.6 9.55 -3.95 7.1 -4.35 Q6.0 -4.35 4.55 -3.8 3.1 -3.2 3.1 -2.8 M9.25 -7.45 L6.8 -7.6 Q6.3 -6.1 9.2 -6.1 10.7 -6.1 16.75 -7.55 17.9 -7.55 18.5 -6.45 20.0 -5.65 24.75 -5.55 L36.25 -5.6 Q37.6 -5.6 42.75 -6.95 L49.45 -7.45 Q50.6 -7.4 50.6 -8.05 51.1 -8.85 46.3 -8.85 44.85 -8.85 41.35 -7.9 37.95 -6.95 36.3 -6.95 L19.1 -7.55 Q18.15 -8.85 16.2 -8.85 L9.25 -7.45 M59.85 -18.8 L60.1 -18.2 60.8 -18.1 Q66.7 -18.1 66.7 -19.55 L66.6 -19.95 65.65 -20.1 Q59.85 -19.8 59.85 -18.8 M34.5 -12.05 Q34.5 -11.75 34.8 -11.45 L35.5 -11.35 37.85 -12.15 Q40.25 -12.95 42.35 -12.95 L45.35 -12.5 50.0 -12.1 Q58.0 -12.1 58.0 -13.55 L57.9 -13.95 56.95 -14.1 50.05 -13.45 45.3 -13.9 42.45 -14.35 Q40.3 -14.35 37.3 -13.35 34.5 -12.45 34.5 -12.05 M25.8 -14.45 L26.35 -14.35 28.1 -15.2 Q30.2 -16.0 32.65 -15.7 37.05 -15.2 43.65 -16.6 50.05 -17.0 54.8 -18.25 59.05 -19.4 59.05 -20.3 L58.95 -20.7 58.15 -20.85 47.85 -18.4 Q40.3 -16.7 35.1 -16.7 25.55 -16.7 25.55 -15.05 L25.8 -14.45 M63.0 -2.05 L62.7 -2.2 65.8 -5.05 72.7 -11.35 65.8 -4.6 63.0 -2.05 M59.95 0.25 L60.05 0.45 57.55 2.45 59.95 0.25 M41.35 2.85 Q41.95 2.7 43.75 0.65 L43.15 0.15 Q41.55 1.8 38.75 1.8 L29.05 2.05 Q25.85 2.05 25.6 1.25 25.35 0.4 23.05 0.4 19.2 0.4 19.2 1.45 19.2 2.1 19.3 1.8 19.6 2.15 20.15 2.15 24.0 2.15 24.9 2.8 25.8 3.4 29.15 3.4 L34.5 2.8 41.35 2.85 M30.1 25.0 L29.9 25.0 30.35 22.65 30.1 25.0 M40.35 23.2 L40.35 23.15 40.35 23.2 M34.55 14.8 L34.8 14.2 Q34.8 13.6 32.05 13.4 L28.5 13.05 1.4 12.65 -6.5 12.8 Q-10.6 13.05 -10.6 13.7 L-10.55 14.05 -9.1 14.4 -7.25 14.15 9.6 14.05 Q28.7 14.0 30.65 14.45 L30.95 14.75 33.2 14.9 34.55 14.8 M28.7 5.95 L28.6 5.55 27.1 5.4 22.35 6.05 Q22.4 4.9 21.05 4.9 L14.65 5.3 12.35 4.65 8.3 5.3 Q6.5 5.3 6.15 4.1 5.85 2.9 4.85 2.9 3.45 2.9 2.1 3.4 L-2.7 3.8 -2.75 4.5 Q-2.45 4.9 -0.3 4.9 L4.7 4.2 4.9 5.65 Q5.45 6.65 8.3 6.65 L12.3 6.05 17.0 6.65 20.95 7.05 22.55 7.4 Q28.7 6.3 28.7 5.95 M31.85 7.4 L34.7 6.8 37.6 7.15 Q38.75 7.25 38.75 6.2 L38.65 5.8 34.95 5.4 Q31.05 5.4 31.1 6.7 31.05 7.0 31.35 7.3 L31.85 7.4 M31.25 10.45 Q33.95 9.8 34.0 9.45 33.95 9.1 33.35 8.9 L26.55 9.8 Q23.35 9.8 21.7 9.0 20.0 8.15 19.5 8.15 13.65 9.65 11.75 9.45 L11.55 9.95 11.7 10.3 Q11.95 10.65 13.15 10.65 L19.45 9.55 22.0 10.35 Q24.1 11.15 26.5 11.15 L31.25 10.45 M-4.55 16.25 Q-5.35 16.45 -5.3 16.7 L-5.25 17.05 -5.05 17.2 -4.0 17.4 -1.85 16.95 -1.4 16.9 5.65 16.45 6.65 17.05 Q7.25 17.65 9.2 17.65 L12.05 17.1 Q14.1 16.45 14.75 15.65 L14.1 15.15 Q12.55 16.3 9.25 16.3 7.85 16.3 7.15 15.75 6.4 15.15 3.8 15.15 L1.95 15.3 -2.45 15.85 Q-3.65 14.95 -4.55 16.25 M0.4 9.9 Q1.55 9.9 1.55 9.2 L1.4 8.8 0.4 8.65 Q-0.85 8.75 -0.85 9.2 L-0.8 9.55 Q-0.5 9.9 0.4 9.9 M2.4 9.3 Q2.7 9.65 3.25 9.65 L5.4 9.3 Q7.05 8.85 7.1 8.45 7.05 8.1 6.45 7.9 2.3 8.25 2.35 8.95 2.3 9.6 2.4 9.3 M13.95 1.2 L13.85 0.8 12.6 0.65 10.0 1.3 9.6 0.85 Q9.35 0.4 7.75 0.4 6.2 0.4 4.85 0.9 3.65 1.35 3.65 1.7 L3.7 2.05 Q4.0 2.4 4.6 2.4 L7.5 1.8 Q8.3 1.8 8.55 2.25 8.85 2.65 9.9 2.65 13.95 1.8 13.95 1.2 M29.75 30.45 L28.9 29.8 29.6 29.75 29.75 29.75 29.75 30.45 M-47.25 10.3 Q-47.3 9.4 -51.25 9.4 L-57.1 10.2 Q-59.2 10.5 -59.15 8.55 -58.85 7.75 -59.0 7.2 -59.2 6.15 -61.25 6.15 L-66.0 6.85 Q-68.15 7.4 -68.15 7.6 L-68.1 8.3 -66.8 8.4 -64.4 7.95 Q-63.05 7.45 -60.6 7.45 -60.45 8.15 -60.95 9.8 -60.9 11.15 -57.55 11.15 L-47.55 10.8 -47.5 11.05 Q-47.2 11.4 -46.5 11.4 L-42.35 10.8 Q-40.7 10.8 -40.25 11.65 L-32.75 12.05 Q-32.05 12.2 -30.75 12.95 L-24.3 13.65 -23.5 12.9 Q-24.8 11.6 -27.15 11.45 L-31.55 11.05 -36.45 10.55 Q-40.15 10.85 -40.55 10.15 -41.1 9.4 -42.25 9.4 L-45.8 9.9 -47.25 10.4 -47.25 10.3 M-21.0 8.9 Q-20.4 8.8 -20.35 8.2 -20.35 7.65 -24.3 7.65 L-35.75 7.55 Q-36.8 6.9 -41.15 5.8 -42.85 5.35 -45.6 5.8 -47.9 6.15 -51.35 4.7 -52.9 3.4 -55.75 3.4 -59.9 3.4 -62.7 4.15 -64.95 4.75 -64.95 5.2 L-64.7 5.8 -64.15 5.9 -60.7 5.35 -55.85 4.8 Q-54.4 4.8 -51.9 5.9 -49.55 7.0 -42.35 6.9 L-38.0 8.05 Q-33.9 9.15 -30.75 9.15 L-21.0 8.9 M-24.15 2.8 Q-23.55 2.7 -23.5 1.95 L-23.65 1.55 -27.1 1.4 -30.0 1.55 -32.1 1.9 -32.25 2.2 -32.2 2.55 -28.0 2.9 -24.15 2.8 M-18.5 4.15 L-17.15 4.05 -16.95 3.45 Q-17.0 2.4 -22.05 2.4 -22.75 2.4 -22.75 3.1 L-22.7 3.65 -18.5 4.15 M-61.3 -3.5 Q-47.15 -19.85 -28.15 -19.7 -9.2 -19.55 4.85 -15.75 -0.25 -10.6 -9.65 1.75 -19.1 14.1 -20.3 18.25 L-23.0 26.2 Q-35.1 20.05 -57.7 20.05 -74.15 20.05 -83.2 22.75 L-82.85 22.3 Q-75.45 12.85 -61.3 -3.5 M-4.0 -10.55 L-4.1 -10.95 -5.45 -11.1 -6.75 -11.05 -6.9 -10.55 -6.85 -10.2 Q-6.55 -9.85 -5.45 -9.85 -4.05 -9.85 -4.0 -10.55 M-11.6 -6.7 Q-14.25 -6.7 -15.1 -7.3 L-15.6 -6.1 Q-14.4 -5.35 -11.65 -5.35 L-8.1 -5.85 Q-6.4 -6.35 -6.4 -6.8 L-6.5 -7.2 -7.45 -7.35 -11.6 -6.7 M-7.8 -14.8 L-7.95 -14.3 Q-8.0 -13.35 -3.05 -13.35 -2.65 -13.35 -2.15 -14.1 -3.35 -14.85 -5.45 -14.85 L-7.8 -14.8 M-28.4 -1.1 L-28.0 -1.7 -25.2 -1.95 -19.7 -1.4 -14.0 -0.85 Q-10.85 -0.85 -10.85 -2.3 L-11.5 -2.85 -14.15 -2.2 -19.3 -2.75 -25.25 -3.35 Q-29.1 -3.35 -29.05 -1.9 -29.1 -1.25 -28.4 -1.1 M-37.35 -4.05 L-37.5 -3.55 -37.45 -3.2 Q-37.15 -2.85 -36.05 -2.85 L-32.35 -2.35 Q-31.35 -2.35 -31.2 -3.1 -32.1 -4.35 -34.35 -4.35 L-37.35 -4.05 M-44.7 -0.8 Q-45.65 -1.35 -47.55 -1.35 -50.5 -1.35 -52.7 -0.35 -54.4 0.45 -54.4 0.85 -54.45 1.5 -53.75 1.65 L-51.8 0.8 Q-49.95 0.05 -47.55 0.05 -46.2 0.05 -44.05 1.35 -41.95 2.65 -37.9 2.65 -33.3 2.65 -33.3 1.7 L-33.4 1.3 Q-41.1 1.8 -43.25 0.3 L-44.7 -0.8 M-50.55 -6.6 L-45.5 -7.3 -37.5 -8.05 Q-36.95 -8.05 -36.3 -6.6 -34.5 -5.35 -22.75 -5.35 -17.2 -5.35 -17.2 -6.8 L-17.3 -7.2 -18.0 -7.35 -22.7 -6.7 Q-27.05 -6.7 -33.4 -8.0 L-38.95 -9.35 -40.8 -9.2 Q-52.55 -8.05 -52.55 -7.4 -52.6 -6.6 -50.55 -6.6 M-47.55 -9.95 L-46.85 -9.1 -46.45 -9.3 Q-46.3 -9.6 -46.3 -10.25 L-42.1 -10.7 -22.35 -9.35 Q-10.25 -9.35 -8.5 -11.1 -9.85 -11.85 -13.5 -11.85 L-17.1 -11.25 -22.25 -10.7 -42.1 -12.1 Q-47.55 -12.1 -47.55 -9.95 M-53.9 -4.2 L-57.55 -3.55 -57.5 -3.2 Q-57.1 -2.85 -55.45 -2.85 L-47.8 -3.45 -41.75 -4.3 -41.85 -4.7 -46.75 -4.85 -53.9 -4.2 M-44.1 -14.55 L-44.05 -14.2 Q-43.65 -13.85 -41.85 -13.85 L-37.85 -14.4 -32.6 -14.95 Q-29.1 -14.95 -27.8 -14.0 -26.6 -13.1 -22.75 -13.1 L-11.4 -14.55 Q-11.4 -15.1 -14.4 -15.1 L-22.8 -14.45 Q-26.65 -14.45 -27.75 -15.4 -28.85 -16.35 -32.35 -16.35 L-38.25 -15.7 Q-44.15 -14.95 -44.1 -14.55 M-32.05 17.6 L-33.15 17.4 -39.35 16.65 -40.5 16.8 -42.5 16.85 Q-56.25 17.15 -56.25 18.2 L-56.2 18.55 -55.45 18.9 -38.7 17.95 Q-37.9 17.95 -33.95 18.9 L-28.9 19.9 Q-27.75 19.9 -26.7 18.65 -26.8 18.45 -27.35 18.15 L-32.05 17.6 M-33.1 17.2 L-30.9 17.4 Q-22.75 17.4 -22.75 16.2 -22.75 15.65 -24.45 15.65 -33.85 15.65 -33.8 16.6 -33.85 17.0 -33.1 17.2 M-79.0 26.85 L-81.2 27.25 Q-81.95 26.6 -82.7 26.45 -77.75 24.95 -68.85 24.35 L-61.1 24.05 -61.1 24.2 -76.55 26.45 -78.55 26.55 -79.0 26.85 M-72.6 14.65 L-71.65 14.25 Q-70.8 13.8 -69.5 13.8 L-63.55 14.2 Q-60.75 14.3 -60.75 13.2 L-60.85 12.8 -69.3 12.4 Q-70.95 12.4 -72.2 12.95 -73.4 13.45 -73.4 13.95 L-73.15 14.55 -72.6 14.65 M-58.65 17.95 L-58.75 17.55 Q-62.9 17.35 -64.0 16.4 -64.95 15.65 -72.2 15.65 -74.2 15.65 -74.2 16.7 -74.2 17.25 -73.5 17.4 L-64.85 17.75 -64.55 18.5 Q-64.2 18.9 -62.3 18.9 -58.65 18.9 -58.65 17.95 M-56.2 15.3 L-55.45 15.4 -50.55 15.15 -48.2 14.7 Q-47.35 14.7 -47.15 15.7 -46.25 16.4 -42.45 16.6 L-45.95 14.8 Q-46.6 13.4 -48.2 13.4 -56.25 13.4 -56.25 14.6 L-56.2 15.3 M-59.15 2.15 Q-57.85 2.0 -57.85 1.2 L-57.95 0.8 -58.75 0.65 Q-59.95 0.35 -59.95 1.45 L-59.65 2.05 -59.15 2.15 M-85.0 27.3 L-85.8 28.15 -86.85 28.35 -85.0 27.3 M-88.4 32.65 L-88.5 32.7 -88.5 32.2 -88.4 32.65" fill="#ffffff" fill-rule="evenodd" stroke="none"/>
      <path d="M-4.35 19.75 L-3.75 18.7 Q-2.5 16.5 -1.95 19.45 L-4.35 19.75 M63.0 -2.05 L63.15 -1.95 63.85 -1.45 66.0 -3.4 67.8 -5.1 74.8 -11.95 Q75.95 -13.25 75.95 -13.55 L75.5 -14.0 85.3 -23.7 86.35 -23.15 79.1 -15.05 Q79.1 -14.5 79.75 -14.35 79.4 -15.5 80.05 -16.05 80.95 -16.9 82.55 -17.2 L87.2 -22.7 88.65 -21.8 84.1 -17.4 86.15 -17.35 89.65 -21.0 89.95 -20.75 91.15 -19.55 89.2 -17.25 Q91.3 -17.4 91.9 -18.3 92.4 -17.2 92.35 -16.05 L92.25 -14.2 92.1 -14.05 91.95 -13.9 85.9 -6.45 68.95 13.65 Q57.9 26.45 55.7 27.9 L53.35 29.3 52.9 27.05 53.9 24.4 52.5 25.9 52.1 24.8 54.75 22.4 56.5 18.5 55.1 19.9 51.5 23.45 50.05 21.1 Q54.9 16.1 63.9 7.7 L68.15 3.75 69.6 2.45 69.75 2.3 72.55 -0.35 80.9 -8.25 82.75 -10.15 82.8 -10.3 82.7 -10.7 81.75 -10.85 79.55 -9.1 73.85 -3.75 72.6 -2.5 68.95 1.35 68.6 1.7 63.95 6.4 63.5 6.85 54.15 14.95 48.95 19.85 Q47.45 18.4 45.65 17.7 L49.15 14.4 55.9 7.65 Q55.6 7.15 55.1 7.15 L47.65 13.55 43.65 17.2 41.9 17.05 Q47.0 12.15 58.05 3.55 L60.6 1.45 60.05 0.45 59.95 0.25 Q57.0 -5.85 62.7 -2.2 L63.0 -2.05 M65.35 11.3 Q65.5 11.1 64.9 9.75 L64.1 10.7 Q64.7 10.8 65.35 11.3 M71.35 7.15 L71.5 5.2 Q70.65 6.1 70.65 6.45 70.65 7.0 71.35 7.15 M69.65 -3.65 L66.95 -1.1 65.95 -0.1 61.9 3.85 Q55.35 10.3 55.35 11.2 55.35 11.75 56.05 11.9 L62.85 5.65 64.8 3.6 67.4 0.9 67.95 0.25 72.95 -5.1 78.25 -9.9 80.9 -12.3 80.1 -13.55 77.05 -10.65 69.65 -3.65 M30.1 25.0 L30.15 25.0 30.35 25.0 34.2 24.9 36.85 24.8 40.95 24.65 43.9 24.5 44.1 24.45 44.25 24.45 Q45.7 25.45 46.55 26.7 L45.85 26.75 45.15 26.75 43.15 26.85 44.5 28.1 45.95 28.05 46.6 28.05 47.15 28.0 47.2 28.0 47.55 29.15 46.75 29.15 47.25 29.55 47.65 29.55 48.1 31.45 48.0 31.45 48.15 31.6 48.35 32.7 48.3 32.7 48.55 33.8 Q29.65 37.0 15.1 37.05 L-7.0 36.2 -7.0 34.9 -12.6 35.35 -15.2 34.65 Q-13.95 34.5 -12.45 32.85 L-13.85 33.05 -17.45 33.6 Q-18.95 32.75 -19.55 31.65 L-19.45 31.5 -10.65 30.5 -6.95 30.3 -1.3 30.05 0.95 30.0 4.6 29.9 Q14.45 29.5 14.45 28.45 L14.35 28.2 13.85 27.9 3.85 28.0 -1.4 28.2 -6.9 28.45 -9.5 28.65 -13.85 29.1 -18.15 29.75 Q-15.35 26.65 -9.85 25.15 L-7.2 24.65 -6.6 24.55 -1.5 24.05 2.15 23.75 30.35 22.65 30.6 22.1 Q32.65 17.65 38.45 22.4 L38.55 22.5 40.15 22.45 42.0 23.15 40.35 23.15 40.35 23.2 39.4 23.2 36.7 23.2 34.4 23.2 33.55 23.25 30.35 23.4 30.35 22.65 30.1 23.4 30.05 23.4 12.3 24.2 2.6 24.85 -1.5 25.3 Q-5.1 25.7 -5.05 26.2 L-4.95 26.55 Q-4.65 26.9 -3.35 26.9 L-1.45 26.8 3.2 26.4 5.15 26.15 21.25 25.4 21.6 25.35 21.55 23.8 22.25 25.3 29.55 25.0 29.65 25.0 29.75 25.0 29.75 24.95 30.35 22.65 29.9 25.0 30.1 25.0 M-4.55 16.25 Q-3.65 14.95 -2.45 15.85 L-4.55 16.25 M29.75 30.45 L29.75 30.9 30.0 29.7 29.75 29.75 29.6 29.75 28.9 29.8 29.75 30.45 M28.45 29.85 L28.0 29.85 24.55 30.15 25.1 31.3 27.6 31.05 27.6 31.1 28.1 31.05 28.45 29.85 M28.8 27.4 L28.25 27.4 26.55 27.5 23.4 27.75 24.05 29.05 24.7 28.95 28.0 28.45 28.45 28.45 28.8 28.45 29.2 28.45 29.45 28.45 29.4 27.35 29.1 27.35 28.8 27.4 M7.35 35.4 Q7.35 34.8 7.0 34.6 L6.7 34.55 Q7.25 35.7 7.35 35.4 M20.0 28.7 L20.05 29.05 Q20.35 29.4 20.95 29.4 L21.7 29.35 21.7 28.0 Q20.0 28.25 20.0 28.7 M27.2 33.3 L27.5 32.8 27.15 32.75 27.1 32.95 Q27.1 33.6 27.2 33.3 M-88.5 30.35 L-87.0 29.9 -85.45 29.45 -85.0 27.3 -83.65 28.85 -81.6 28.2 -80.55 27.95 -80.15 27.85 -76.05 27.1 Q-66.5 25.45 -54.25 25.45 L-40.65 26.2 -39.2 26.4 -38.8 26.25 -38.3 26.4 -32.0 28.15 -43.15 26.7 -43.85 26.65 Q-44.4 26.65 -44.55 26.95 L-44.65 27.25 Q-44.65 28.1 -34.2 29.7 L-26.55 30.8 -25.5 30.95 Q-24.4 31.65 -23.8 32.4 L-25.7 32.55 Q-24.95 33.85 -24.2 33.75 L-25.2 34.8 Q-26.75 36.3 -51.0 36.2 -70.7 36.1 -77.8 35.5 L-79.7 35.3 -88.45 34.7 -88.45 34.55 Q-86.75 34.3 -85.55 29.75 L-87.1 30.1 -88.5 30.4 -88.5 30.35 M-79.0 26.85 L-78.55 26.55 -76.55 26.45 -77.75 26.65 -79.0 26.85 M-74.85 32.3 L-74.75 31.6 Q-74.55 31.3 -74.95 31.15 L-74.85 32.3 M-75.55 28.3 L-75.25 29.35 -57.9 28.7 -54.85 28.9 -50.55 29.3 Q-47.75 29.6 -46.75 28.4 -47.35 28.05 -49.05 27.8 L-57.85 27.4 -62.45 27.45 -75.55 28.3 M-66.55 30.7 L-66.5 31.05 -59.0 29.7 Q-66.55 29.8 -66.55 30.7 M-83.0 29.35 Q-81.9 30.0 -81.15 29.05 L-83.0 29.35 M-88.4 32.65 L-88.5 32.2 -88.15 32.1 -88.4 32.65" fill="#660000" fill-rule="evenodd" stroke="none"/>
      <path d="M7.6 -25.4 Q10.3 -27.5 24.3 -30.25 38.25 -33.05 49.15 -33.95 L66.05 -35.15 78.05 -34.5 Q80.0 -33.35 82.85 -32.2 85.75 -31.05 88.0 -29.2 90.2 -27.35 90.15 -17.55 55.65 26.05 49.55 31.6 L48.5 32.55 47.25 32.6 Q39.15 34.55 21.4 35.05 3.65 35.55 -3.1 34.95 L-15.15 33.3 Q-20.4 32.25 -21.15 31.6 -23.75 32.8 -27.4 33.6 -32.75 34.7 -41.6 34.8 L-53.1 34.75 -69.25 34.25 -85.6 33.5 -89.15 33.1 -90.1 29.4 -89.95 25.75 Q-89.55 23.8 -87.7 19.45 L-87.65 19.35 -87.65 19.25 -85.6 15.65 Q-83.1 11.95 -78.2 6.1 L-67.1 -6.45 -60.2 -14.25 Q-55.15 -19.8 -48.2 -24.6 -41.3 -29.4 -25.8 -29.9 -10.3 -30.45 0.55 -27.95 5.65 -26.8 7.6 -25.4 M15.65 -19.8 Q14.15 -19.8 13.45 -19.2 12.8 -18.6 12.15 -18.6 11.35 -18.6 11.05 -18.95 L11.0 -19.3 Q11.0 -20.55 14.95 -20.85 L21.4 -21.35 22.15 -21.2 22.25 -20.8 Q22.25 -19.85 19.75 -19.75 L15.65 -19.8 M10.4 -15.6 L9.75 -15.7 9.5 -16.3 Q9.5 -16.65 11.5 -17.2 L15.65 -17.85 Q16.9 -17.85 17.55 -17.25 18.25 -16.7 18.55 -16.7 L23.55 -17.25 26.25 -17.85 27.15 -17.7 27.25 -17.3 Q27.25 -16.85 24.15 -16.1 L19.65 -15.35 Q18.0 -15.35 17.15 -15.9 16.3 -16.45 15.5 -16.45 L12.25 -16.0 10.4 -15.6 M17.15 -13.05 L33.45 -12.45 Q35.0 -12.45 38.25 -13.4 41.55 -14.35 42.9 -14.35 47.45 -14.35 47.0 -13.55 47.0 -12.9 45.9 -12.95 L39.55 -12.45 Q34.7 -11.1 33.4 -11.1 L22.5 -11.05 Q18.0 -11.15 16.55 -11.95 16.0 -13.05 14.9 -13.05 9.2 -11.6 7.75 -11.6 5.05 -11.6 5.5 -13.1 L7.8 -12.95 14.4 -14.35 Q16.25 -14.35 17.15 -13.05 M6.6 -8.3 L5.7 -8.45 2.75 -7.6 2.25 -7.7 2.0 -8.3 Q2.0 -8.7 3.35 -9.3 L5.75 -9.85 8.1 -9.45 18.0 -9.1 27.3 -8.45 29.8 -8.8 37.3 -9.2 44.0 -9.85 Q46.0 -9.85 46.0 -9.3 46.0 -7.75 32.65 -8.1 28.85 -7.1 27.4 -7.1 L12.9 -7.35 6.75 -7.9 6.6 -8.3 M4.9 -1.4 Q5.2 -0.2 6.9 -0.2 L10.75 -0.85 12.9 -0.2 19.0 -0.6 Q20.3 -0.6 20.25 0.55 L24.75 -0.1 26.15 0.05 26.25 0.45 Q26.25 0.8 20.4 1.9 L18.9 1.55 15.15 1.15 10.7 0.55 6.9 1.15 Q4.2 1.15 3.7 0.15 L3.5 -1.3 Q1.05 -0.6 -1.25 -0.6 -3.25 -0.6 -3.55 -1.0 L-3.5 -1.7 1.05 -2.1 3.65 -2.6 Q4.6 -2.6 4.9 -1.4 M2.5 -3.8 Q2.5 -4.15 3.65 -4.6 L6.4 -5.1 Q7.95 -5.1 8.15 -4.65 8.3 -4.2 8.5 -4.2 9.15 -4.2 11.0 -4.85 L12.15 -4.7 12.25 -4.3 Q12.25 -3.7 8.4 -2.85 7.45 -2.85 7.15 -3.25 6.9 -3.7 6.15 -3.7 L3.4 -3.1 Q2.85 -3.1 2.55 -3.45 L2.5 -3.8 M17.3 -3.7 L17.25 -4.05 Q17.25 -5.1 20.9 -5.1 23.05 -5.1 23.3 -4.25 23.55 -3.45 26.55 -3.45 L35.75 -3.7 Q38.4 -3.7 39.9 -5.35 L40.5 -4.85 Q38.8 -2.8 38.25 -2.65 L31.75 -2.7 26.65 -2.1 Q23.5 -2.1 22.65 -2.7 21.8 -3.35 18.15 -3.35 17.6 -3.35 17.3 -3.7 M1.4 -10.1 Q-10.4 3.55 -15.0 12.8 L-18.0 18.55 Q-12.0 14.75 -1.85 13.85 L33.95 12.5 Q41.9 2.95 55.35 -10.8 68.75 -24.55 73.55 -29.95 72.7 -29.8 61.85 -30.2 50.95 -30.6 40.8 -28.55 L21.7 -24.2 10.85 -21.55 Q8.7 -18.6 1.4 -10.1 M39.25 -19.85 L41.95 -19.4 46.45 -18.95 53.0 -19.6 53.9 -19.45 54.0 -19.05 Q54.0 -17.6 46.4 -17.6 L42.0 -18.0 39.15 -18.45 Q37.2 -18.45 34.9 -17.65 L32.65 -16.85 32.0 -16.95 31.75 -17.55 Q31.75 -17.95 34.4 -18.85 37.25 -19.85 39.25 -19.85 M25.65 -20.7 L24.0 -19.85 23.5 -19.95 23.25 -20.55 Q23.25 -22.2 32.3 -22.2 37.2 -22.2 44.35 -23.9 L54.15 -26.35 54.9 -26.2 55.0 -25.8 Q55.0 -24.9 50.95 -23.75 46.45 -22.5 40.4 -22.1 34.15 -20.7 30.0 -21.2 27.65 -21.5 25.65 -20.7 M79.85 -29.2 L70.6 -19.5 71.0 -19.05 Q71.0 -18.2 63.3 -10.6 L54.05 -1.95 Q43.6 6.65 38.75 11.55 L40.4 11.7 44.2 8.05 51.25 1.65 Q51.75 1.65 52.0 2.15 L45.6 8.9 42.3 12.2 Q44.05 12.9 45.45 14.35 L50.35 9.45 59.65 0.9 67.85 -8.0 Q72.9 -13.5 76.5 -16.35 L77.4 -16.2 77.5 -15.8 Q77.5 -15.35 63.6 -1.75 52.1 9.5 46.5 15.6 L47.85 17.95 51.25 14.4 60.8 3.95 Q69.5 -6.95 76.65 -13.1 L77.25 -12.55 Q77.25 -12.05 71.25 -5.65 63.9 2.2 61.75 4.8 54.0 14.15 48.4 19.3 L48.8 20.4 61.4 6.4 Q61.75 6.4 62.0 6.9 L49.15 21.55 49.6 23.8 49.75 23.8 Q53.95 18.5 63.95 7.3 L86.35 -17.85 86.4 -18.45 66.65 1.65 Q66.0 1.5 66.0 0.95 66.0 0.1 71.45 -5.0 L77.9 -10.85 86.45 -19.7 86.55 -21.55 Q86.6 -22.7 86.15 -23.8 L83.2 -19.75 78.65 -14.35 Q78.0 -14.5 78.0 -15.05 78.0 -15.65 81.9 -20.7 L85.4 -25.05 84.3 -26.25 84.0 -26.5 Q81.2 -22.95 68.15 -10.6 L60.45 -1.9 Q55.95 3.1 52.15 6.4 51.5 6.25 51.5 5.7 51.5 4.35 65.05 -9.15 L83.05 -27.3 81.7 -28.2 Q78.55 -24.0 74.65 -19.85 74.0 -20.0 74.0 -20.55 L80.9 -28.65 Q80.4 -28.95 79.85 -29.2 M62.15 -25.45 L62.25 -25.05 Q62.25 -23.6 56.65 -23.6 L56.0 -23.7 55.75 -24.3 Q55.75 -25.3 61.25 -25.6 L62.15 -25.45 M53.55 -3.05 Q59.45 -7.75 67.95 -16.85 L53.55 -3.05 M37.25 17.65 L38.85 17.65 37.1 16.95 Q-3.65 17.7 -10.3 19.65 -15.5 21.15 -18.15 24.25 L-14.1 23.6 12.15 22.4 12.65 22.7 12.75 22.95 Q12.75 24.15 -0.05 24.5 -14.3 24.85 -19.4 26.0 L-19.5 26.15 Q-18.9 27.25 -17.5 28.1 L-14.1 27.55 -4.6 26.65 Q-2.55 26.65 -2.0 27.4 -2.1 28.0 -2.65 28.0 L-8.75 28.3 -15.35 29.15 -12.9 29.85 -6.6 29.3 0.25 28.9 5.65 29.1 Q6.0 29.3 6.0 29.9 5.8 30.8 5.1 30.7 L-1.85 30.2 -7.55 30.7 13.35 31.55 Q27.15 31.5 45.05 28.3 L15.25 30.65 14.5 30.55 14.25 29.95 Q14.25 29.45 31.4 28.15 L44.85 27.2 44.65 26.1 31.9 27.55 25.65 28.15 Q25.1 28.15 24.8 27.8 L24.75 27.45 Q24.75 26.1 35.9 25.95 L43.0 25.9 44.65 25.95 44.25 24.05 Q34.8 24.3 18.5 26.3 L7.25 27.9 6.5 27.8 6.25 27.2 Q6.25 26.35 19.05 25.0 L38.9 23.7 44.15 23.65 43.8 22.5 43.7 22.5 25.55 22.95 18.9 23.9 Q18.35 23.9 18.05 23.55 L18.0 23.2 Q18.0 22.25 25.8 21.9 L43.15 21.2 Q42.35 19.95 41.0 18.95 L33.95 19.3 19.15 19.9 3.9 20.65 -4.1 21.4 -5.65 21.05 -5.75 20.7 Q-5.75 19.65 10.7 18.7 L31.65 17.7 37.3 17.7 38.15 17.75 37.25 17.65 M30.5 9.4 L28.35 9.25 28.1 8.95 Q26.25 8.5 8.15 8.55 L-7.85 8.65 -9.6 8.9 Q-10.6 8.95 -10.95 8.55 L-11.0 8.2 Q-11.0 7.55 -7.1 7.3 L0.4 7.15 26.05 7.55 29.4 7.9 Q32.0 8.1 32.0 8.7 L31.8 9.3 30.5 9.4 M31.95 1.3 L29.25 1.9 28.75 1.8 28.5 1.2 Q28.5 -0.1 32.15 -0.1 L35.65 0.3 35.75 0.7 Q35.75 1.75 34.65 1.65 L31.95 1.3 M31.25 3.95 Q31.25 4.3 28.65 4.95 L24.15 5.65 Q21.9 5.65 19.9 4.85 L17.45 4.05 11.5 5.15 Q10.35 5.15 10.1 4.8 L10.0 4.45 10.15 3.95 Q12.0 4.15 17.5 2.65 18.0 2.65 19.6 3.5 21.2 4.3 24.2 4.3 L30.65 3.4 Q31.25 3.6 31.25 3.95 M34.55 13.35 L34.8 13.4 34.55 13.35 34.45 13.35 34.5 13.35 34.55 13.35 M10.45 11.6 L7.75 12.15 Q5.9 12.15 5.35 11.55 4.8 10.95 4.4 10.95 L-2.7 11.45 -4.75 11.9 Q-5.65 11.9 -5.95 11.55 L-6.0 11.2 Q-6.0 10.5 0.9 9.8 L2.65 9.65 Q5.1 9.65 5.8 10.25 6.5 10.8 7.8 10.8 10.95 10.8 12.4 9.65 L13.0 10.15 Q12.4 10.95 10.45 11.6 M5.75 2.95 Q5.75 3.35 4.15 3.8 L2.15 4.15 Q1.6 4.15 1.3 3.8 L1.25 3.45 Q1.25 2.75 5.15 2.4 5.75 2.6 5.75 2.95 M0.5 3.7 Q0.5 4.4 -0.6 4.4 L-1.7 4.05 -1.75 3.7 Q-1.75 3.25 -0.6 3.15 L0.4 3.3 0.5 3.7 M-40.85 -17.6 L-22.05 -16.2 -17.15 -16.75 -13.75 -17.35 Q-10.25 -17.35 -9.0 -16.6 -10.65 -14.85 -22.1 -14.85 L-40.85 -16.2 -44.8 -15.75 Q-44.8 -15.1 -44.95 -14.8 L-45.35 -14.6 -46.0 -15.45 Q-46.0 -17.6 -40.85 -17.6 M-42.7 -19.7 L-42.75 -20.05 Q-42.75 -20.45 -37.2 -21.2 L-31.6 -21.85 Q-28.3 -21.85 -27.25 -20.9 -26.2 -19.95 -22.55 -19.95 L-14.6 -20.6 Q-11.75 -20.6 -11.75 -20.05 L-22.5 -18.6 Q-26.15 -18.6 -27.3 -19.5 -28.5 -20.45 -31.85 -20.45 L-36.8 -19.9 -40.6 -19.35 Q-42.3 -19.35 -42.7 -19.7 M-55.5 -9.05 L-52.0 -9.7 -45.25 -10.35 -40.6 -10.2 -40.5 -9.8 -46.25 -8.95 -53.5 -8.35 Q-55.05 -8.35 -55.45 -8.7 L-55.5 -9.05 M-55.75 -4.3 Q-55.75 -3.5 -57.0 -3.35 L-57.5 -3.45 -57.75 -4.05 Q-57.75 -5.15 -56.6 -4.85 L-55.85 -4.7 -55.75 -4.3 M-50.9 -5.85 Q-48.8 -6.85 -46.0 -6.85 -44.2 -6.85 -43.3 -6.3 L-41.95 -5.2 Q-39.9 -3.7 -32.6 -4.2 L-32.5 -3.8 Q-32.5 -2.85 -36.85 -2.85 -40.7 -2.85 -42.7 -4.15 -44.7 -5.45 -46.0 -5.45 -48.25 -5.45 -50.05 -4.7 -51.55 -3.95 -51.85 -3.85 -52.5 -4.0 -52.5 -4.65 -52.5 -5.05 -50.9 -5.85 M-53.75 -2.1 Q-51.05 -2.1 -49.6 -0.8 -46.35 0.65 -44.15 0.3 -41.55 -0.15 -39.95 0.3 -35.8 1.4 -34.85 2.05 L-24.0 2.15 Q-20.25 2.15 -20.25 2.7 -20.25 3.3 -20.85 3.4 L-30.1 3.65 Q-33.05 3.65 -36.95 2.55 -40.85 1.4 -41.1 1.4 -47.9 1.5 -50.15 0.4 -52.5 -0.7 -53.85 -0.7 L-58.45 -0.15 -61.75 0.4 -62.25 0.3 -62.5 -0.3 Q-62.5 -0.75 -60.35 -1.35 L-53.75 -2.1 M-50.75 -12.9 Q-50.75 -13.55 -39.6 -14.7 L-37.85 -14.85 -32.6 -13.5 Q-26.55 -12.2 -22.45 -12.2 L-18.0 -12.85 -17.35 -12.7 -17.25 -12.3 Q-17.25 -10.85 -22.5 -10.85 -33.65 -10.85 -35.35 -12.1 -35.95 -13.55 -36.5 -13.55 L-44.05 -12.8 -48.85 -12.1 Q-50.75 -12.1 -50.75 -12.9 M-31.6 -7.85 L-35.1 -8.35 Q-36.15 -8.35 -36.45 -8.7 L-36.5 -9.05 -36.35 -9.55 -33.5 -9.85 Q-31.35 -9.85 -30.5 -8.6 -30.65 -7.85 -31.6 -7.85 M-31.35 -3.6 L-29.35 -3.95 -26.6 -4.1 -23.35 -3.95 -23.25 -3.55 Q-23.25 -2.8 -23.85 -2.7 L-27.5 -2.6 -31.45 -2.95 -31.5 -3.3 -31.35 -3.6 M-28.5 -7.4 Q-28.5 -8.85 -24.85 -8.85 L-19.25 -8.25 -14.35 -7.7 -11.85 -8.35 -11.25 -7.8 Q-11.25 -6.35 -14.25 -6.35 L-19.6 -6.9 -24.8 -7.45 -27.5 -7.2 -27.85 -6.6 Q-28.5 -6.75 -28.5 -7.4 M-22.5 -2.4 Q-22.5 -3.1 -21.85 -3.1 -17.05 -3.1 -17.0 -2.05 L-17.2 -1.45 -18.5 -1.35 Q-21.75 -1.35 -22.45 -1.85 L-22.5 -2.4 M-3.85 -18.85 Q-8.5 -18.85 -8.5 -19.8 L-8.35 -20.3 -6.1 -20.35 Q-4.1 -20.35 -3.0 -19.6 -3.45 -18.85 -3.85 -18.85 M-7.1 -12.7 L-7.0 -12.3 Q-7.0 -11.85 -8.6 -11.35 L-12.0 -10.85 Q-14.6 -10.85 -15.75 -11.6 L-15.25 -12.8 Q-14.45 -12.2 -11.95 -12.2 L-8.0 -12.85 -7.1 -12.7 M-7.45 -15.7 L-7.5 -16.05 -7.35 -16.55 -6.1 -16.6 -4.85 -16.45 -4.75 -16.05 Q-4.75 -15.35 -6.1 -15.35 -7.15 -15.35 -7.45 -15.7 M-59.0 -9.0 Q-72.45 7.35 -79.45 16.8 L-79.75 17.25 Q-71.2 14.55 -55.6 14.55 -34.15 14.55 -22.75 20.7 -21.4 16.85 -20.2 12.75 -19.0 8.6 -10.1 -3.75 -1.2 -16.1 3.65 -21.25 -9.65 -25.05 -27.6 -25.2 -45.6 -25.35 -59.0 -9.0 M-45.7 4.9 L-44.35 4.4 Q-42.6 3.9 -41.0 3.9 -39.9 3.9 -39.4 4.65 -39.0 5.35 -35.5 5.05 -33.35 4.85 -30.85 5.55 L-26.65 5.95 Q-24.45 6.1 -23.25 7.4 -23.7 8.15 -24.0 8.15 -28.25 8.15 -30.1 7.45 -31.3 6.7 -32.0 6.55 L-39.1 6.15 Q-39.5 5.3 -41.1 5.3 L-45.0 5.9 -45.95 5.55 -46.0 5.3 -55.5 5.65 Q-58.65 5.65 -58.7 4.3 -58.2 2.65 -58.35 1.95 -60.7 1.95 -62.0 2.45 L-64.25 2.9 -65.45 2.8 -65.5 2.1 Q-65.5 1.9 -63.5 1.35 -61.1 0.65 -59.0 0.65 -57.05 0.65 -56.85 1.7 -56.7 2.25 -57.0 3.05 -57.0 5.0 -55.05 4.7 L-49.5 3.9 Q-45.75 3.9 -45.75 4.8 L-45.75 4.95 -45.7 4.9 M-30.25 11.9 L-32.3 11.7 Q-33.0 11.5 -33.0 11.1 -33.0 10.15 -24.1 10.15 -22.5 10.15 -22.5 10.7 -22.5 11.9 -30.25 11.9 M-32.35 11.9 L-31.3 12.1 -26.85 12.65 -26.25 13.15 Q-27.25 14.4 -28.35 14.4 L-33.1 13.4 Q-36.85 12.45 -37.6 12.45 L-53.5 13.4 Q-53.9 13.4 -54.2 13.05 L-54.25 12.7 Q-54.25 11.65 -41.25 11.35 L-39.35 11.3 -38.25 11.15 -32.35 11.9 M-84.8 24.9 L-77.0 23.4 Q-66.3 21.75 -60.1 21.95 L-55.75 21.9 Q-46.8 21.9 -45.25 22.9 -46.2 24.1 -48.85 23.8 L-55.8 23.2 Q-73.3 23.2 -81.4 25.3 L-84.8 26.7 -84.8 27.2 -75.6 25.55 -74.0 25.4 Q-71.3 25.4 -71.75 26.1 L-71.85 26.8 -77.45 27.0 -80.1 27.65 Q-82.75 28.75 -84.75 29.05 L-84.75 29.2 -76.45 29.8 -49.25 30.7 Q-26.3 30.8 -24.8 29.3 L-23.85 28.25 -27.1 28.4 -43.35 26.35 Q-54.0 24.6 -63.95 25.55 L-64.0 25.2 Q-64.0 24.15 -54.5 24.15 -47.9 24.15 -40.55 25.6 -33.25 27.05 -27.2 27.05 L-23.45 26.9 -25.1 25.45 -33.35 24.2 Q-43.25 22.6 -43.25 21.75 -43.25 21.15 -42.5 21.15 L-31.25 22.65 -37.25 20.9 -37.7 20.75 -38.1 20.9 -52.35 19.95 Q-67.45 19.95 -78.25 22.7 L-84.8 24.85 -84.8 24.9 M-40.45 29.3 L-41.6 29.4 -46.05 29.05 -54.35 28.7 -74.6 29.65 -75.25 28.85 Q-75.25 28.25 -73.25 28.15 L-60.1 27.45 -54.25 27.4 Q-40.25 27.4 -40.25 28.7 L-40.45 29.3 M-48.85 9.65 L-53.5 9.9 -54.2 9.8 -54.25 9.1 Q-54.25 7.9 -46.6 7.9 -45.1 7.9 -44.5 9.3 -42.75 10.4 -41.2 11.1 -44.75 10.9 -45.65 10.2 -45.8 9.2 -46.6 9.2 L-48.85 9.65 M-58.5 7.7 Q-58.5 8.8 -61.15 8.7 L-66.8 8.3 Q-68.05 8.3 -68.85 8.75 L-69.75 9.15 -70.25 9.05 -70.5 8.45 Q-70.5 7.95 -69.35 7.45 -68.15 6.9 -66.6 6.9 L-58.6 7.3 -58.5 7.7 M-58.85 18.7 L-52.55 18.65 -58.85 18.55 -66.15 18.85 Q-79.25 19.8 -83.25 22.85 L-74.6 21.15 -58.85 18.7 M-60.0 13.4 Q-61.75 13.4 -62.1 13.0 L-62.4 12.25 -70.6 11.9 Q-71.25 11.75 -71.25 11.2 -71.25 10.15 -69.35 10.15 -62.5 10.15 -61.6 10.9 -60.55 11.85 -56.6 12.05 L-56.5 12.45 Q-56.5 13.4 -60.0 13.4" fill="#000000" fill-rule="evenodd" stroke="none"/>
      <path d="M37.3 17.7 L31.65 17.7 10.7 18.7 Q-5.75 19.65 -5.75 20.7 L-5.65 21.05 -4.1 21.4 3.9 20.65 19.15 19.9 33.95 19.3 41.0 18.95 Q42.35 19.95 43.15 21.2 L25.8 21.9 Q18.0 22.25 18.0 23.2 L18.05 23.55 Q18.35 23.9 18.9 23.9 L25.55 22.95 43.7 22.5 43.8 22.5 44.15 23.65 38.9 23.7 19.05 25.0 Q6.25 26.35 6.25 27.2 L6.5 27.8 7.25 27.9 18.5 26.3 Q34.8 24.3 44.25 24.05 L44.65 25.95 43.0 25.9 35.9 25.95 Q24.75 26.1 24.75 27.45 L24.8 27.8 Q25.1 28.15 25.65 28.15 L31.9 27.55 44.65 26.1 44.85 27.2 31.4 28.15 Q14.25 29.45 14.25 29.95 L14.5 30.55 15.25 30.65 45.05 28.3 Q27.15 31.5 13.35 31.55 L-7.55 30.7 -1.85 30.2 5.1 30.7 Q5.8 30.8 6.0 29.9 6.0 29.3 5.65 29.1 L0.25 28.9 -6.6 29.3 -12.9 29.85 -15.35 29.15 -8.75 28.3 -2.65 28.0 Q-2.1 28.0 -2.0 27.4 -2.55 26.65 -4.6 26.65 L-14.1 27.55 -17.5 28.1 Q-18.9 27.25 -19.5 26.15 L-19.4 26.0 Q-14.3 24.85 -0.05 24.5 12.75 24.15 12.75 22.95 L12.65 22.7 12.15 22.4 -14.1 23.6 -18.15 24.25 Q-15.5 21.15 -10.3 19.65 -3.65 17.7 37.1 16.95 L38.85 17.65 37.25 17.65 37.3 17.7 M53.55 -3.05 L67.95 -16.85 Q59.45 -7.75 53.55 -3.05 M62.15 -25.45 L61.25 -25.6 Q55.75 -25.3 55.75 -24.3 L56.0 -23.7 56.65 -23.6 Q62.25 -23.6 62.25 -25.05 L62.15 -25.45 M79.85 -29.2 Q80.4 -28.95 80.9 -28.65 L74.0 -20.55 Q74.0 -20.0 74.65 -19.85 78.55 -24.0 81.7 -28.2 L83.05 -27.3 65.05 -9.15 Q51.5 4.35 51.5 5.7 51.5 6.25 52.15 6.4 55.95 3.1 60.45 -1.9 L68.15 -10.6 Q81.2 -22.95 84.0 -26.5 L84.3 -26.25 85.4 -25.05 81.9 -20.7 Q78.0 -15.65 78.0 -15.05 78.0 -14.5 78.65 -14.35 L83.2 -19.75 86.15 -23.8 Q86.6 -22.7 86.55 -21.55 L86.45 -19.7 77.9 -10.85 71.45 -5.0 Q66.0 0.1 66.0 0.95 66.0 1.5 66.65 1.65 L86.4 -18.45 86.35 -17.85 63.95 7.3 Q53.95 18.5 49.75 23.8 L49.6 23.8 49.15 21.55 62.0 6.9 Q61.75 6.4 61.4 6.4 L48.8 20.4 48.4 19.3 Q54.0 14.15 61.75 4.8 63.9 2.2 71.25 -5.65 77.25 -12.05 77.25 -12.55 L76.65 -13.1 Q69.5 -6.95 60.8 3.95 L51.25 14.4 47.85 17.95 46.5 15.6 Q52.1 9.5 63.6 -1.75 77.5 -15.35 77.5 -15.8 L77.4 -16.2 76.5 -16.35 Q72.9 -13.5 67.85 -8.0 L59.65 0.9 50.35 9.45 45.45 14.35 Q44.05 12.9 42.3 12.2 L45.6 8.9 52.0 2.15 Q51.75 1.65 51.25 1.65 L44.2 8.05 40.4 11.7 38.75 11.55 Q43.6 6.65 54.05 -1.95 L63.3 -10.6 Q71.0 -18.2 71.0 -19.05 L70.6 -19.5 79.85 -29.2 M25.65 -20.7 Q27.65 -21.5 30.0 -21.2 34.15 -20.7 40.4 -22.1 46.45 -22.5 50.95 -23.75 55.0 -24.9 55.0 -25.8 L54.9 -26.2 54.15 -26.35 44.35 -23.9 Q37.2 -22.2 32.3 -22.2 23.25 -22.2 23.25 -20.55 L23.5 -19.95 24.0 -19.85 25.65 -20.7 M39.25 -19.85 Q37.25 -19.85 34.4 -18.85 31.75 -17.95 31.75 -17.55 L32.0 -16.95 32.65 -16.85 34.9 -17.65 Q37.2 -18.45 39.15 -18.45 L42.0 -18.0 46.4 -17.6 Q54.0 -17.6 54.0 -19.05 L53.9 -19.45 53.0 -19.6 46.45 -18.95 41.95 -19.4 39.25 -19.85 M1.4 -10.1 Q8.7 -18.6 10.85 -21.55 L21.7 -24.2 40.8 -28.55 Q50.95 -30.6 61.85 -30.2 72.7 -29.8 73.55 -29.95 68.75 -24.55 55.35 -10.8 41.9 2.95 33.95 12.5 L-1.85 13.85 Q-12.0 14.75 -18.0 18.55 L-15.0 12.8 Q-10.4 3.55 1.4 -10.1 M17.3 -3.7 Q17.6 -3.35 18.15 -3.35 21.8 -3.35 22.65 -2.7 23.5 -2.1 26.65 -2.1 L31.75 -2.7 38.25 -2.65 Q38.8 -2.8 40.5 -4.85 L39.9 -5.35 Q38.4 -3.7 35.75 -3.7 L26.55 -3.45 Q23.55 -3.45 23.3 -4.25 23.05 -5.1 20.9 -5.1 17.25 -5.1 17.25 -4.05 L17.3 -3.7 M2.5 -3.8 L2.55 -3.45 Q2.85 -3.1 3.4 -3.1 L6.15 -3.7 Q6.9 -3.7 7.15 -3.25 7.45 -2.85 8.4 -2.85 12.25 -3.7 12.25 -4.3 L12.15 -4.7 11.0 -4.85 Q9.15 -4.2 8.5 -4.2 8.3 -4.2 8.15 -4.65 7.95 -5.1 6.4 -5.1 L3.65 -4.6 Q2.5 -4.15 2.5 -3.8 M4.9 -1.4 Q4.6 -2.6 3.65 -2.6 L1.05 -2.1 -3.5 -1.7 -3.55 -1.0 Q-3.25 -0.6 -1.25 -0.6 1.05 -0.6 3.5 -1.3 L3.7 0.15 Q4.2 1.15 6.9 1.15 L10.7 0.55 15.15 1.15 18.9 1.55 20.4 1.9 Q26.25 0.8 26.25 0.45 L26.15 0.05 24.75 -0.1 20.25 0.55 Q20.3 -0.6 19.0 -0.6 L12.9 -0.2 10.75 -0.85 6.9 -0.2 Q5.2 -0.2 4.9 -1.4 M6.6 -8.3 L6.75 -7.9 12.9 -7.35 27.4 -7.1 Q28.85 -7.1 32.65 -8.1 46.0 -7.75 46.0 -9.3 46.0 -9.85 44.0 -9.85 L37.3 -9.2 29.8 -8.8 27.3 -8.45 18.0 -9.1 8.1 -9.45 5.75 -9.85 3.35 -9.3 Q2.0 -8.7 2.0 -8.3 L2.25 -7.7 2.75 -7.6 5.7 -8.45 6.6 -8.3 M17.15 -13.05 Q16.25 -14.35 14.4 -14.35 L7.8 -12.95 5.5 -13.1 Q5.05 -11.6 7.75 -11.6 9.2 -11.6 14.9 -13.05 16.0 -13.05 16.55 -11.95 18.0 -11.15 22.5 -11.05 L33.4 -11.1 Q34.7 -11.1 39.55 -12.45 L45.9 -12.95 Q47.0 -12.9 47.0 -13.55 47.45 -14.35 42.9 -14.35 41.55 -14.35 38.25 -13.4 35.0 -12.45 33.45 -12.45 L17.15 -13.05 M10.4 -15.6 L12.25 -16.0 15.5 -16.45 Q16.3 -16.45 17.15 -15.9 18.0 -15.35 19.65 -15.35 L24.15 -16.1 Q27.25 -16.85 27.25 -17.3 L27.15 -17.7 26.25 -17.85 23.55 -17.25 18.55 -16.7 Q18.25 -16.7 17.55 -17.25 16.9 -17.85 15.65 -17.85 L11.5 -17.2 Q9.5 -16.65 9.5 -16.3 L9.75 -15.7 10.4 -15.6 M15.65 -19.8 L19.75 -19.75 Q22.25 -19.85 22.25 -20.8 L22.15 -21.2 21.4 -21.35 14.95 -20.85 Q11.0 -20.55 11.0 -19.3 L11.05 -18.95 Q11.35 -18.6 12.15 -18.6 12.8 -18.6 13.45 -19.2 14.15 -19.8 15.65 -19.8 M31.25 3.95 Q31.25 3.6 30.65 3.4 L24.2 4.3 Q21.2 4.3 19.6 3.5 18.0 2.65 17.5 2.65 12.0 4.15 10.15 3.95 L10.0 4.45 10.1 4.8 Q10.35 5.15 11.5 5.15 L17.45 4.05 19.9 4.85 Q21.9 5.65 24.15 5.65 L28.65 4.95 Q31.25 4.3 31.25 3.95 M31.95 1.3 L34.65 1.65 Q35.75 1.75 35.75 0.7 L35.65 0.3 32.15 -0.1 Q28.5 -0.1 28.5 1.2 L28.75 1.8 29.25 1.9 31.95 1.3 M30.5 9.4 L31.8 9.3 32.0 8.7 Q32.0 8.1 29.4 7.9 L26.05 7.55 0.4 7.15 -7.1 7.3 Q-11.0 7.55 -11.0 8.2 L-10.95 8.55 Q-10.6 8.95 -9.6 8.9 L-7.85 8.65 8.15 8.55 Q26.25 8.5 28.1 8.95 L28.35 9.25 30.5 9.4 M-45.75 4.8 Q-45.75 3.9 -49.5 3.9 L-55.05 4.7 Q-57.0 5.0 -57.0 3.05 -56.7 2.25 -56.85 1.7 -57.05 0.65 -59.0 0.65 -61.1 0.65 -63.5 1.35 -65.5 1.9 -65.5 2.1 L-65.45 2.8 -64.25 2.9 -62.0 2.45 Q-60.7 1.95 -58.35 1.95 -58.2 2.65 -58.7 4.3 -58.65 5.65 -55.5 5.65 L-46.0 5.3 -45.95 5.55 -45.0 5.9 -41.1 5.3 Q-39.5 5.3 -39.1 6.15 L-32.0 6.55 Q-31.3 6.7 -30.1 7.45 -28.25 8.15 -24.0 8.15 -23.7 8.15 -23.25 7.4 -24.45 6.1 -26.65 5.95 L-30.85 5.55 Q-33.35 4.85 -35.5 5.05 -39.0 5.35 -39.4 4.65 -39.9 3.9 -41.0 3.9 -42.6 3.9 -44.35 4.4 L-45.7 4.9 -45.75 4.8 M-59.0 -9.0 Q-45.6 -25.35 -27.6 -25.2 -9.65 -25.05 3.65 -21.25 -1.2 -16.1 -10.1 -3.75 -19.0 8.6 -20.2 12.75 -21.4 16.85 -22.75 20.7 -34.15 14.55 -55.6 14.55 -71.2 14.55 -79.75 17.25 L-79.45 16.8 Q-72.45 7.35 -59.0 -9.0 M-7.45 -15.7 Q-7.15 -15.35 -6.1 -15.35 -4.75 -15.35 -4.75 -16.05 L-4.85 -16.45 -6.1 -16.6 -7.35 -16.55 -7.5 -16.05 -7.45 -15.7 M-7.1 -12.7 L-8.0 -12.85 -11.95 -12.2 Q-14.45 -12.2 -15.25 -12.8 L-15.75 -11.6 Q-14.6 -10.85 -12.0 -10.85 L-8.6 -11.35 Q-7.0 -11.85 -7.0 -12.3 L-7.1 -12.7 M-3.85 -18.85 Q-3.45 -18.85 -3.0 -19.6 -4.1 -20.35 -6.1 -20.35 L-8.35 -20.3 -8.5 -19.8 Q-8.5 -18.85 -3.85 -18.85 M-22.5 -2.4 L-22.45 -1.85 Q-21.75 -1.35 -18.5 -1.35 L-17.2 -1.45 -17.0 -2.05 Q-17.05 -3.1 -21.85 -3.1 -22.5 -3.1 -22.5 -2.4 M-28.5 -7.4 Q-28.5 -6.75 -27.85 -6.6 L-27.5 -7.2 -24.8 -7.45 -19.6 -6.9 -14.25 -6.35 Q-11.25 -6.35 -11.25 -7.8 L-11.85 -8.35 -14.35 -7.7 -19.25 -8.25 -24.85 -8.85 Q-28.5 -8.85 -28.5 -7.4 M-31.35 -3.6 L-31.5 -3.3 -31.45 -2.95 -27.5 -2.6 -23.85 -2.7 Q-23.25 -2.8 -23.25 -3.55 L-23.35 -3.95 -26.6 -4.1 -29.35 -3.95 -31.35 -3.6 M-31.6 -7.85 Q-30.65 -7.85 -30.5 -8.6 -31.35 -9.85 -33.5 -9.85 L-36.35 -9.55 -36.5 -9.05 -36.45 -8.7 Q-36.15 -8.35 -35.1 -8.35 L-31.6 -7.85 M-50.75 -12.9 Q-50.75 -12.1 -48.85 -12.1 L-44.05 -12.8 -36.5 -13.55 Q-35.95 -13.55 -35.35 -12.1 -33.65 -10.85 -22.5 -10.85 -17.25 -10.85 -17.25 -12.3 L-17.35 -12.7 -18.0 -12.85 -22.45 -12.2 Q-26.55 -12.2 -32.6 -13.5 L-37.85 -14.85 -39.6 -14.7 Q-50.75 -13.55 -50.75 -12.9 M-53.75 -2.1 L-60.35 -1.35 Q-62.5 -0.75 -62.5 -0.3 L-62.25 0.3 -61.75 0.4 -58.45 -0.15 -53.85 -0.7 Q-52.5 -0.7 -50.15 0.4 -47.9 1.5 -41.1 1.4 -40.85 1.4 -36.95 2.55 -33.05 3.65 -30.1 3.65 L-20.85 3.4 Q-20.25 3.3 -20.25 2.7 -20.25 2.15 -24.0 2.15 L-34.85 2.05 Q-35.8 1.4 -39.95 0.3 -41.55 -0.15 -44.15 0.3 -46.35 0.65 -49.6 -0.8 -51.05 -2.1 -53.75 -2.1 M-50.9 -5.85 Q-52.5 -5.05 -52.5 -4.65 -52.5 -4.0 -51.85 -3.85 -51.55 -3.95 -50.05 -4.7 -48.25 -5.45 -46.0 -5.45 -44.7 -5.45 -42.7 -4.15 -40.7 -2.85 -36.85 -2.85 -32.5 -2.85 -32.5 -3.8 L-32.6 -4.2 Q-39.9 -3.7 -41.95 -5.2 L-43.3 -6.3 Q-44.2 -6.85 -46.0 -6.85 -48.8 -6.85 -50.9 -5.85 M-55.75 -4.3 L-55.85 -4.7 -56.6 -4.85 Q-57.75 -5.15 -57.75 -4.05 L-57.5 -3.45 -57.0 -3.35 Q-55.75 -3.5 -55.75 -4.3 M-55.5 -9.05 L-55.45 -8.7 Q-55.05 -8.35 -53.5 -8.35 L-46.25 -8.95 -40.5 -9.8 -40.6 -10.2 -45.25 -10.35 -52.0 -9.7 -55.5 -9.05 M-42.7 -19.7 Q-42.3 -19.35 -40.6 -19.35 L-36.8 -19.9 -31.85 -20.45 Q-28.5 -20.45 -27.3 -19.5 -26.15 -18.6 -22.5 -18.6 L-11.75 -20.05 Q-11.75 -20.6 -14.6 -20.6 L-22.55 -19.95 Q-26.2 -19.95 -27.25 -20.9 -28.3 -21.85 -31.6 -21.85 L-37.2 -21.2 Q-42.75 -20.45 -42.75 -20.05 L-42.7 -19.7 M-40.85 -17.6 Q-46.0 -17.6 -46.0 -15.45 L-45.35 -14.6 -44.95 -14.8 Q-44.8 -15.1 -44.8 -15.75 L-40.85 -16.2 -22.1 -14.85 Q-10.65 -14.85 -9.0 -16.6 -10.25 -17.35 -13.75 -17.35 L-17.15 -16.75 -22.05 -16.2 -40.85 -17.6 M0.5 3.7 L0.4 3.3 -0.6 3.15 Q-1.75 3.25 -1.75 3.7 L-1.7 4.05 -0.6 4.4 Q0.5 4.4 0.5 3.7 M5.75 2.95 Q5.75 2.6 5.15 2.4 1.25 2.75 1.25 3.45 L1.3 3.8 Q1.6 4.15 2.15 4.15 L4.15 3.8 Q5.75 3.35 5.75 2.95 M10.45 11.6 Q12.4 10.95 13.0 10.15 L12.4 9.65 Q10.95 10.8 7.8 10.8 6.5 10.8 5.8 10.25 5.1 9.65 2.65 9.65 L0.9 9.8 Q-6.0 10.5 -6.0 11.2 L-5.95 11.55 Q-5.65 11.9 -4.75 11.9 L-2.7 11.45 4.4 10.95 Q4.8 10.95 5.35 11.55 5.9 12.15 7.75 12.15 L10.45 11.6 M-84.8 24.85 L-78.25 22.7 Q-67.45 19.95 -52.35 19.95 L-38.1 20.9 -37.7 20.75 -37.25 20.9 -31.25 22.65 -42.5 21.15 Q-43.25 21.15 -43.25 21.75 -43.25 22.6 -33.35 24.2 L-25.1 25.45 -23.45 26.9 -27.2 27.05 Q-33.25 27.05 -40.55 25.6 -47.9 24.15 -54.5 24.15 -64.0 24.15 -64.0 25.2 L-63.95 25.55 Q-54.0 24.6 -43.35 26.35 L-27.1 28.4 -23.85 28.25 -24.8 29.3 Q-26.3 30.8 -49.25 30.7 L-76.45 29.8 -84.75 29.2 -84.75 29.05 Q-82.75 28.75 -80.1 27.65 L-77.45 27.0 -71.85 26.8 -71.75 26.1 Q-71.3 25.4 -74.0 25.4 L-75.6 25.55 -84.8 27.2 -84.8 26.7 -81.4 25.3 Q-73.3 23.2 -55.8 23.2 L-48.85 23.8 Q-46.2 24.1 -45.25 22.9 -46.8 21.9 -55.75 21.9 L-60.1 21.95 Q-66.3 21.75 -77.0 23.4 L-84.8 24.9 -84.8 24.85 M-32.35 11.9 L-38.25 11.15 -39.35 11.3 -41.25 11.35 Q-54.25 11.65 -54.25 12.7 L-54.2 13.05 Q-53.9 13.4 -53.5 13.4 L-37.6 12.45 Q-36.85 12.45 -33.1 13.4 L-28.35 14.4 Q-27.25 14.4 -26.25 13.15 L-26.85 12.65 -31.3 12.1 -32.35 11.9 M-30.25 11.9 Q-22.5 11.9 -22.5 10.7 -22.5 10.15 -24.1 10.15 -33.0 10.15 -33.0 11.1 -33.0 11.5 -32.3 11.7 L-30.25 11.9 M-58.5 7.7 L-58.6 7.3 -66.6 6.9 Q-68.15 6.9 -69.35 7.45 -70.5 7.95 -70.5 8.45 L-70.25 9.05 -69.75 9.15 -68.85 8.75 Q-68.05 8.3 -66.8 8.3 L-61.15 8.7 Q-58.5 8.8 -58.5 7.7 M-48.85 9.65 L-46.6 9.2 Q-45.8 9.2 -45.65 10.2 -44.75 10.9 -41.2 11.1 -42.75 10.4 -44.5 9.3 -45.1 7.9 -46.6 7.9 -54.25 7.9 -54.25 9.1 L-54.2 9.8 -53.5 9.9 -48.85 9.65 M-40.45 29.3 L-40.25 28.7 Q-40.25 27.4 -54.25 27.4 L-60.1 27.45 -73.25 28.15 Q-75.25 28.25 -75.25 28.85 L-74.6 29.65 -54.35 28.7 -46.05 29.05 -41.6 29.4 -40.45 29.3 M-58.85 18.55 L-58.85 18.7 -74.6 21.15 -83.25 22.85 Q-79.25 19.8 -66.15 18.85 L-58.85 18.55 M-60.0 13.4 Q-56.5 13.4 -56.5 12.45 L-56.6 12.05 Q-60.55 11.85 -61.6 10.9 -62.5 10.15 -69.35 10.15 -71.25 10.15 -71.25 11.2 -71.25 11.75 -70.6 11.9 L-62.4 12.25 -62.1 13.0 Q-61.75 13.4 -60.0 13.4" fill="#ffffff" fill-rule="evenodd" stroke="none"/>
    </g>
  </defs>
</svg>
