<?xml version="1.0" encoding="UTF-8" standalone="no"?>
<svg xmlns:xlink="http://www.w3.org/1999/xlink" height="720.75px" width="1716.8px" xmlns="http://www.w3.org/2000/svg">
  <g transform="matrix(1, 0, 0, 1, 307.05, 450.35)">
    <use height="89.0" transform="matrix(1.0, 0.0, 0.0, 1.0, -70.1, -44.5)" width="140.25" xlink:href="#shape0"/>
  </g>
  <defs>
    <g id="shape0" transform="matrix(1, 0, 0, 1, 70.1, 44.5)">
      <path d="M35.55 -33.2 L35.55 -32.7 36.2 -15.5 Q27.75 -15.35 23.15 -16.5 L18.55 -19.05 17.75 -18.85 17.75 -18.7 15.7 -18.2 15.65 -18.2 15.7 -18.35 16.25 -20.4 16.85 -20.55 17.0 -21.5 16.4 -22.0 15.6 -22.8 Q12.6 -25.8 12.6 -29.0 12.6 -30.7 13.95 -32.3 L15.3 -33.95 15.25 -34.45 18.7 -34.7 Q27.35 -35.1 35.55 -33.2 M36.4 -34.9 L36.2 -34.9 33.85 -35.5 Q18.7 -39.75 4.95 -33.3 6.05 -4.8 9.65 23.5 L9.0 24.55 Q10.05 25.5 11.45 24.9 18.25 21.65 26.4 22.75 44.75 24.15 62.05 30.35 L62.1 29.0 61.5 28.45 Q61.7 20.35 62.45 12.3 63.6 -0.9 63.0 -14.1 62.75 -17.65 60.95 -20.1 54.0 -29.25 42.4 -32.8 L36.6 -34.8 36.4 -34.9 M2.25 -36.45 L5.05 -38.3 Q10.25 -40.1 23.6 -40.1 46.8 -40.1 58.2 -31.15 60.75 -29.2 64.35 -25.0 L65.7 -23.55 65.4 -21.9 Q65.2 -19.95 65.4 -17.4 65.4 12.8 64.75 27.1 L64.75 35.15 Q64.8 36.9 65.0 38.35 62.45 36.75 59.1 35.4 44.9 29.65 22.95 29.7 9.55 29.65 6.0 32.1 L2.25 -36.45 M40.2 -17.5 Q38.7 -17.55 38.3 -18.25 L37.8 -18.9 Q37.55 -29.15 37.05 -32.8 44.15 -30.95 50.9 -27.35 L58.75 -20.1 58.45 -18.75 Q57.15 -18.6 56.45 -17.0 55.75 -15.5 54.0 -15.5 53.55 -15.5 52.8 -16.45 52.05 -17.4 51.4 -17.4 50.65 -17.4 50.4 -16.25 50.15 -15.15 48.1 -15.15 45.85 -15.15 44.5 -17.25 L42.95 -19.4 Q42.45 -19.4 42.2 -18.45 41.95 -17.55 40.2 -17.5 M28.0 -4.05 L27.95 -3.95 27.95 -4.05 28.0 -4.05 M28.55 -2.0 L30.35 -3.65 30.7 -3.2 31.35 -3.5 Q31.85 -5.6 32.4 -5.7 L33.25 -3.7 Q34.25 -1.9 35.75 -1.9 36.4 -1.9 37.75 -3.65 39.05 -5.4 39.8 -5.2 40.85 -0.9 44.3 -0.85 45.3 -0.85 45.5 -1.25 L46.55 -2.7 46.65 -1.05 46.35 -0.65 Q46.25 0.25 47.55 1.35 L47.2 3.85 Q45.65 1.85 44.2 1.85 43.45 1.8 42.7 2.7 L41.5 3.6 Q40.55 3.55 39.25 2.35 37.95 1.15 35.55 1.15 34.05 1.15 32.7 1.7 32.25 0.1 31.35 0.15 L31.25 0.15 28.55 -2.0 M43.15 5.15 L43.15 5.35 43.05 5.35 43.15 5.15 M43.65 8.25 L43.75 7.45 Q47.0 8.35 50.4 9.8 L50.7 9.9 Q50.35 11.35 50.05 13.95 L49.65 17.05 48.55 17.0 Q46.35 17.0 46.35 17.8 L46.35 18.0 45.45 18.5 45.4 18.55 45.3 18.2 Q46.1 16.3 44.85 16.35 44.45 16.3 44.2 16.55 42.3 14.65 42.3 13.95 42.75 12.65 42.4 12.0 43.6 10.15 43.65 8.25 M41.3 6.8 L41.3 6.95 Q41.3 7.85 41.95 8.1 41.95 9.85 40.25 11.3 L39.75 11.7 37.55 13.05 34.7 14.15 34.4 13.95 33.05 15.05 32.15 14.35 Q32.05 13.3 28.95 13.3 L29.15 5.6 31.35 5.6 Q36.2 5.6 41.3 6.8 M50.9 24.65 L50.7 24.6 50.9 24.5 50.9 24.65 M26.9 16.3 L26.3 16.4 21.25 15.3 21.05 15.4 Q20.95 14.7 20.25 14.3 18.0 16.45 17.05 16.75 18.85 14.95 19.05 12.45 L19.35 11.95 Q17.0 9.95 17.0 8.25 L17.25 6.4 27.4 5.65 Q26.75 8.2 26.8 13.15 L26.9 16.3 M1.45 29.9 Q-4.25 27.65 -27.25 26.5 -50.35 25.35 -64.4 33.1 L-65.2 33.1 -64.7 33.05 Q-66.2 23.25 -66.65 -6.35 -66.9 -22.05 -67.55 -27.75 -47.2 -40.35 -28.45 -39.95 -9.75 -39.65 -0.9 -35.9 -0.25 -30.9 2.9 30.65 2.25 30.2 1.45 29.9 M-44.15 -9.65 L-44.7 -9.6 -45.35 -15.1 Q-35.3 -17.85 -22.55 -17.85 L-21.95 -17.85 -22.1 -16.8 -21.95 -15.05 -25.95 -12.35 Q-34.85 -10.85 -35.5 -9.55 L-36.2 -9.45 -36.4 -6.85 Q-37.45 -8.75 -38.4 -8.9 L-38.4 -9.1 -44.15 -9.65 M-13.0 -32.15 L-13.05 -32.7 Q-9.0 -31.9 -4.9 -30.55 L-4.9 -28.85 -5.4 -29.2 Q-9.3 -27.8 -9.3 -26.75 L-9.2 -26.3 -9.0 -26.1 -9.2 -24.75 Q-10.2 -26.15 -10.8 -26.15 L-11.05 -26.1 -15.45 -27.25 -14.35 -28.3 Q-13.0 -30.15 -13.0 -32.15 M-64.45 -24.8 L-64.2 -17.7 Q-63.1 5.1 -59.25 27.05 -55.1 23.5 -49.05 22.85 -25.15 20.95 -1.4 25.05 L-1.2 24.0 Q-3.15 12.8 -2.8 3.25 -2.2 -15.25 -4.15 -33.15 L-4.45 -32.15 Q-18.35 -37.3 -33.3 -36.2 -50.7 -35.85 -64.45 -24.8 M-15.0 -30.45 Q-16.0 -28.0 -19.0 -27.95 L-22.1 -28.85 -22.8 -28.7 -23.4 -28.15 -23.6 -28.15 -26.15 -26.3 Q-25.5 -27.65 -25.45 -28.9 L-25.45 -29.05 -25.45 -29.3 -27.5 -32.15 Q-26.85 -33.25 -26.8 -34.05 L-26.85 -34.15 -26.8 -34.15 Q-20.85 -34.2 -14.7 -33.05 L-15.0 -30.45 M-5.4 2.5 L-5.3 2.5 Q-5.3 11.3 -4.45 16.65 L-13.0 14.3 -16.25 15.5 -16.35 15.5 -16.3 15.4 Q-14.7 13.7 -14.7 12.9 -19.35 10.2 -20.4 7.3 -20.75 6.45 -20.7 3.85 L-20.9 2.05 -17.85 2.05 -5.4 2.5 M-2.25 23.05 L-1.2 24.0 -2.3 23.05 -2.25 23.05 M-37.95 2.9 Q-37.95 3.55 -36.55 5.75 -40.65 7.35 -40.65 8.65 L-40.3 9.45 -39.75 9.5 -39.65 10.45 Q-42.2 11.25 -43.15 11.8 L-43.35 11.8 -43.35 11.9 -43.7 12.35 -43.35 13.15 -43.5 15.5 Q-44.95 13.6 -48.85 13.65 L-50.0 13.85 -50.1 14.6 Q-50.1 16.2 -52.45 18.35 -54.6 15.65 -55.5 15.65 -55.75 15.65 -58.8 18.85 L-59.4 9.0 Q-51.9 4.35 -42.95 3.05 L-37.95 2.55 -37.95 2.9 M-58.5 20.7 L-58.7 20.7 -58.5 20.7" fill="#ffffff" fill-rule="evenodd" stroke="none"/>
      <path d="M36.4 -34.9 L36.6 -34.8 42.4 -32.8 Q54.0 -29.25 60.95 -20.1 62.75 -17.65 63.0 -14.1 63.6 -0.9 62.45 12.3 61.7 20.35 61.5 28.45 L62.1 29.0 62.05 30.35 Q44.75 24.15 26.4 22.75 18.25 21.65 11.45 24.9 10.05 25.5 9.0 24.55 L9.65 23.5 Q6.05 -4.8 4.95 -33.3 18.7 -39.75 33.85 -35.5 L36.2 -34.9 36.4 -34.9 M35.55 -33.2 Q27.35 -35.1 18.7 -34.7 L15.25 -34.45 15.3 -33.95 13.95 -32.3 Q12.6 -30.7 12.6 -29.0 12.6 -25.8 15.6 -22.8 L16.4 -22.0 17.0 -21.5 16.85 -20.55 16.25 -20.4 15.7 -18.35 15.65 -18.2 15.7 -18.2 17.75 -18.7 17.75 -18.85 18.55 -19.05 23.15 -16.5 Q27.75 -15.35 36.2 -15.5 L35.55 -32.7 35.55 -33.2 M6.4 -32.3 L8.05 -13.25 Q9.55 -14.35 13.85 -14.5 L17.55 -14.7 25.25 -14.2 Q22.9 -14.7 21.05 -15.5 L18.2 -17.1 Q17.1 -16.6 15.0 -16.05 L13.7 -16.15 13.65 -17.45 14.5 -20.7 Q12.55 -21.55 11.6 -24.65 L10.95 -29.0 Q10.95 -32.5 12.2 -33.95 L6.4 -32.3 M4.4 -41.1 Q11.6 -43.8 23.6 -43.8 48.8 -43.85 61.35 -34.6 66.2 -31.0 70.15 -23.6 69.65 -23.05 69.4 10.25 L69.1 44.2 Q69.1 44.5 67.45 44.5 64.2 41.75 57.1 39.0 42.85 33.4 22.6 33.4 12.35 33.35 9.65 34.4 L4.2 35.7 1.95 34.6 Q-5.85 31.35 -26.95 31.35 -48.55 31.35 -56.9 34.05 -61.6 35.6 -65.55 41.05 -67.75 40.35 -68.7 33.7 -69.45 25.05 -70.1 22.6 L-70.1 -30.6 -69.55 -30.7 Q-68.75 -31.6 -64.9 -33.3 -59.75 -35.6 -56.5 -37.6 -44.85 -44.9 -24.55 -44.5 -9.25 -44.25 -2.3 -41.45 -0.1 -40.55 1.0 -39.65 2.25 -40.35 4.4 -41.1 M2.25 -36.45 L6.0 32.1 Q9.55 29.65 22.95 29.7 44.9 29.65 59.1 35.4 62.45 36.75 65.0 38.35 64.8 36.9 64.75 35.15 L64.75 27.1 Q65.4 12.8 65.4 -17.4 65.2 -19.95 65.4 -21.9 L65.7 -23.55 64.35 -25.0 Q60.75 -29.2 58.2 -31.15 46.8 -40.1 23.6 -40.1 10.25 -40.1 5.05 -38.3 L2.25 -36.45 M8.25 -10.65 L9.5 6.7 Q11.2 4.5 23.25 4.05 L27.1 3.85 27.2 3.85 Q24.75 -9.3 24.75 -12.05 L24.75 -12.35 17.4 -12.8 Q10.95 -12.8 9.6 -12.0 9.2 -11.05 8.25 -10.65 M40.2 -17.5 Q41.95 -17.55 42.2 -18.45 42.45 -19.4 42.95 -19.4 L44.5 -17.25 Q45.85 -15.15 48.1 -15.15 50.15 -15.15 50.4 -16.25 50.65 -17.4 51.4 -17.4 52.05 -17.4 52.8 -16.45 53.55 -15.5 54.0 -15.5 55.75 -15.5 56.45 -17.0 57.15 -18.6 58.45 -18.75 L58.75 -20.1 50.9 -27.35 Q44.15 -30.95 37.05 -32.8 37.55 -29.15 37.8 -18.9 L38.3 -18.25 Q38.7 -17.55 40.2 -17.5 M34.05 -13.35 L29.4 -13.55 36.0 -12.15 36.15 -13.6 34.05 -13.35 M37.85 -16.45 L37.9 -14.75 Q37.9 -12.4 37.35 -11.8 L44.6 -9.85 Q59.0 -5.5 61.45 -1.8 L61.45 -6.95 Q61.35 -13.1 60.1 -18.6 59.75 -17.45 57.65 -15.7 55.15 -13.7 54.1 -13.65 52.25 -14.6 51.45 -14.6 49.9 -13.35 48.0 -13.35 44.15 -13.35 42.7 -16.3 41.8 -15.7 40.25 -15.7 39.25 -15.7 37.85 -16.45 M27.95 -4.05 L27.95 -3.95 28.0 -4.05 29.8 -5.1 Q29.9 -5.8 30.7 -6.75 31.75 -7.95 33.05 -7.95 34.05 -7.95 34.55 -6.2 35.05 -4.15 35.55 -3.9 L37.3 -5.7 Q38.3 -6.95 39.6 -6.95 41.05 -6.95 42.4 -5.1 L43.95 -2.7 Q44.3 -2.9 45.45 -4.1 46.65 -5.25 47.55 -5.25 48.2 -5.25 48.7 -1.0 L48.7 -0.75 49.35 0.35 49.7 -3.2 Q49.95 -5.2 50.35 -6.0 L48.2 -6.95 Q36.2 -10.8 26.6 -12.1 27.55 -10.2 27.95 -4.05 M28.55 -2.0 L31.25 0.15 31.35 0.15 Q32.25 0.1 32.7 1.7 34.05 1.15 35.55 1.15 37.95 1.15 39.25 2.35 40.55 3.55 41.5 3.6 L42.7 2.7 Q43.45 1.8 44.2 1.85 45.65 1.85 47.2 3.85 L47.55 1.35 Q46.25 0.25 46.35 -0.65 L46.65 -1.05 46.55 -2.7 45.5 -1.25 Q45.3 -0.85 44.3 -0.85 40.85 -0.9 39.8 -5.2 39.05 -5.4 37.75 -3.65 36.4 -1.9 35.75 -1.9 34.25 -1.9 33.25 -3.7 L32.4 -5.7 Q31.85 -5.6 31.35 -3.5 L30.7 -3.2 30.35 -3.65 28.55 -2.0 M57.3 -10.3 Q56.4 -11.2 56.45 -11.4 56.4 -12.35 57.3 -12.35 58.1 -12.35 58.15 -11.4 L58.0 -10.65 57.3 -10.3 M57.45 -8.2 Q57.45 -9.3 58.65 -9.3 59.45 -9.3 59.5 -8.35 L59.35 -7.4 58.45 -7.25 Q57.9 -7.3 57.55 -7.75 57.45 -7.35 57.45 -8.2 M51.75 -4.85 L51.4 4.95 51.3 7.95 51.65 8.3 51.95 8.45 58.55 10.75 Q60.2 11.45 61.05 12.2 L61.4 -0.35 Q61.2 -0.2 61.05 -0.2 55.25 -3.6 51.8 -5.3 L51.75 -4.85 M43.15 5.35 L44.7 5.75 46.75 6.5 50.05 7.75 Q49.55 6.35 49.4 3.15 L49.05 4.4 Q48.35 6.55 48.0 6.55 L46.9 6.25 45.75 5.25 44.3 3.7 43.15 5.15 43.05 5.35 43.15 5.35 M41.3 6.8 Q36.2 5.6 31.35 5.6 L29.15 5.6 28.95 13.3 Q32.05 13.3 32.15 14.35 L33.05 15.05 34.4 13.95 34.7 14.15 37.55 13.05 39.75 11.7 40.25 11.3 Q41.95 9.85 41.95 8.1 41.3 7.85 41.3 6.95 L41.3 6.8 M43.65 8.25 Q43.6 10.15 42.4 12.0 42.75 12.65 42.3 13.95 42.3 14.65 44.2 16.55 44.45 16.3 44.85 16.35 46.1 16.3 45.3 18.2 L45.4 18.55 45.45 18.5 46.35 18.0 46.35 17.8 Q46.35 17.0 48.55 17.0 L49.65 17.05 50.05 13.95 Q50.35 11.35 50.7 9.9 L50.4 9.8 Q47.0 8.35 43.75 7.45 L43.65 8.25 M41.15 15.45 L40.45 14.1 Q38.25 15.85 35.05 16.0 L34.4 18.4 Q34.4 18.65 33.5 18.7 32.65 18.7 31.7 16.8 L31.05 15.25 30.15 15.3 28.85 15.15 28.8 16.6 28.8 16.8 28.7 20.5 35.55 21.05 Q42.8 22.2 49.85 24.3 49.35 23.5 49.35 21.6 L49.45 19.35 49.25 19.35 47.6 19.15 Q47.25 19.95 44.3 21.4 L43.35 21.25 43.3 19.7 43.4 18.2 Q42.45 17.65 41.15 15.45 M50.9 24.5 L50.7 24.6 50.9 24.65 Q55.55 26.1 60.1 27.95 L60.95 14.6 Q55.25 11.6 52.05 10.35 L50.9 24.5 M30.6 2.25 L30.5 1.85 Q29.35 1.85 28.1 0.55 L28.15 2.35 28.15 3.8 28.35 3.5 28.9 3.85 38.7 4.55 Q36.25 3.5 32.7 3.5 31.15 3.5 30.6 2.25 M26.9 16.3 L26.8 13.15 Q26.75 8.2 27.4 5.65 L17.25 6.4 17.0 8.25 Q17.0 9.95 19.35 11.95 L19.05 12.45 Q18.85 14.95 17.05 16.75 18.0 16.45 20.25 14.3 20.95 14.7 21.05 15.4 L21.25 15.3 26.3 16.4 26.9 16.3 M26.45 18.35 Q23.35 18.35 21.6 17.35 L20.65 16.65 19.35 17.9 Q17.75 19.0 16.2 19.05 L15.05 18.9 15.0 17.9 Q14.95 17.15 15.9 14.8 16.45 13.45 16.95 12.6 16.05 12.05 15.65 10.6 L15.3 8.1 15.35 6.7 Q11.85 7.45 10.15 8.6 L9.65 8.35 10.6 23.0 Q18.9 20.45 27.6 20.5 L27.1 18.3 26.45 18.35 M1.45 29.9 Q2.25 30.2 2.9 30.65 -0.25 -30.9 -0.9 -35.9 -9.75 -39.65 -28.45 -39.95 -47.2 -40.35 -67.55 -27.75 -66.9 -22.05 -66.65 -6.35 -66.2 23.25 -64.7 33.05 L-65.2 33.1 -64.4 33.1 Q-50.35 25.35 -27.25 26.5 -4.25 27.65 1.45 29.9 M-43.0 -32.05 Q-49.15 -30.4 -55.15 -27.5 -58.95 -25.6 -63.05 -23.8 L-61.3 -10.55 Q-58.95 -12.4 -52.25 -14.8 -47.05 -16.7 -41.8 -17.85 -42.35 -19.0 -42.45 -21.65 L-43.0 -29.1 -43.0 -32.05 M-44.15 -9.65 L-38.4 -9.1 -38.4 -8.9 Q-37.45 -8.75 -36.4 -6.85 L-36.2 -9.45 -35.5 -9.55 Q-34.85 -10.85 -25.95 -12.35 L-21.95 -15.05 -22.1 -16.8 -21.95 -17.85 -22.55 -17.85 Q-35.3 -17.85 -45.35 -15.1 L-44.7 -9.6 -44.15 -9.65 M-46.25 -9.0 L-46.4 -12.1 -46.25 -14.85 Q-54.6 -12.45 -61.0 -8.1 L-59.6 6.65 Q-57.6 5.35 -53.05 3.8 -49.5 2.55 -45.4 1.75 L-46.2 -8.05 -46.3 -8.1 -46.4 -8.55 -46.25 -9.0 M-44.45 -7.55 L-43.35 1.4 Q-36.1 0.2 -27.3 0.35 L-20.4 0.2 Q-20.95 -2.05 -21.45 -7.4 L-21.8 -12.35 Q-24.5 -10.2 -34.3 -8.35 -35.0 -4.3 -35.25 -3.7 -34.95 -3.55 -35.7 -3.55 -36.35 -3.6 -37.95 -5.65 L-39.2 -7.4 -40.65 -7.25 -44.45 -7.55 M-64.45 -24.8 Q-50.7 -35.85 -33.3 -36.2 -18.35 -37.3 -4.45 -32.15 L-4.15 -33.15 Q-2.2 -15.25 -2.8 3.25 -3.15 12.8 -1.2 24.0 L-1.4 25.05 Q-25.15 20.95 -49.05 22.85 -55.1 23.5 -59.25 27.05 -63.1 5.1 -64.2 -17.7 L-64.45 -24.8 M-13.0 -32.15 Q-13.0 -30.15 -14.35 -28.3 L-15.45 -27.25 -11.05 -26.1 -10.8 -26.15 Q-10.2 -26.15 -9.2 -24.75 L-9.0 -26.1 -9.2 -26.3 -9.3 -26.75 Q-9.3 -27.8 -5.4 -29.2 L-4.9 -28.85 -4.9 -30.55 Q-9.0 -31.9 -13.05 -32.7 L-13.0 -32.15 M-18.85 -26.15 Q-21.25 -26.15 -22.5 -26.7 -22.8 -26.0 -24.45 -24.95 -26.45 -23.8 -27.15 -23.8 L-28.1 -23.9 -28.15 -25.2 Q-28.2 -26.45 -27.15 -28.6 -28.0 -28.95 -28.65 -30.45 L-29.2 -32.5 Q-29.2 -33.45 -28.75 -34.15 -35.2 -33.95 -41.45 -32.45 -40.75 -29.2 -39.95 -18.6 L-39.95 -18.25 -29.65 -19.55 -22.45 -19.75 Q-6.35 -19.75 -5.0 -16.65 L-4.9 -27.35 -6.05 -26.5 -7.25 -25.95 -7.25 -25.75 -7.75 -22.05 Q-7.75 -21.8 -8.6 -21.75 -9.7 -21.8 -10.7 -23.1 L-11.4 -24.25 -13.0 -24.15 Q-15.3 -24.15 -16.85 -25.15 -17.85 -25.75 -18.0 -26.2 L-18.85 -26.15 M-15.0 -30.45 L-14.7 -33.05 Q-20.85 -34.2 -26.8 -34.15 L-26.85 -34.15 -26.8 -34.05 Q-26.85 -33.25 -27.5 -32.15 L-25.45 -29.3 -25.45 -29.05 -25.45 -28.9 Q-25.5 -27.65 -26.15 -26.3 L-23.6 -28.15 -23.4 -28.15 -22.8 -28.7 -22.1 -28.85 -19.0 -27.95 Q-16.0 -28.0 -15.0 -30.45 M-20.4 -16.8 Q-20.45 -14.05 -19.4 -8.1 L-18.75 0.15 -17.5 0.15 -5.3 0.05 -5.25 -1.35 -5.0 -16.25 Q-5.45 -15.7 -5.9 -15.7 -7.7 -15.7 -12.25 -16.8 L-20.3 -17.8 -20.4 -16.8 M-5.4 2.5 L-17.85 2.05 -20.9 2.05 -20.7 3.85 Q-20.75 6.45 -20.4 7.3 -19.35 10.2 -14.7 12.9 -14.7 13.7 -16.3 15.4 L-16.35 15.5 -16.25 15.5 -13.0 14.3 -4.45 16.65 Q-5.3 11.3 -5.3 2.5 L-5.4 2.5 M-2.25 23.05 L-2.95 22.35 Q-3.65 20.8 -4.15 18.45 L-5.6 18.7 Q-8.0 18.7 -10.35 17.5 -12.75 16.2 -13.0 16.2 -16.55 18.0 -17.85 18.0 L-19.35 17.9 -19.4 16.95 -17.0 13.3 Q-22.45 11.2 -22.45 4.25 L-22.25 2.05 -27.1 2.1 -26.8 2.5 Q-34.0 16.1 -36.25 19.55 L-25.7 20.15 -2.3 23.05 -1.2 24.0 -2.25 23.05 M-37.95 2.9 L-37.95 2.55 -42.95 3.05 Q-51.9 4.35 -59.4 9.0 L-58.8 18.85 Q-55.75 15.65 -55.5 15.65 -54.6 15.65 -52.45 18.35 -50.1 16.2 -50.1 14.6 L-50.0 13.85 -48.85 13.65 Q-44.95 13.6 -43.5 15.5 L-43.35 13.15 -43.7 12.35 -43.35 11.9 -43.35 11.8 -43.15 11.8 Q-42.2 11.25 -39.65 10.45 L-39.75 9.5 -40.3 9.45 -40.65 8.65 Q-40.65 7.35 -36.55 5.75 -37.95 3.55 -37.95 2.9 M-58.7 20.7 L-58.5 24.4 Q-49.85 20.05 -38.3 19.6 -38.1 18.5 -28.0 2.15 L-36.65 2.45 -33.9 6.3 -37.25 8.1 -38.1 9.05 Q-37.7 9.95 -37.25 11.4 -37.3 11.75 -38.95 12.5 L-41.6 13.25 -41.65 14.6 Q-41.7 17.05 -42.35 18.55 -42.0 18.7 -42.8 18.7 -46.0 15.85 -47.5 15.85 -48.05 15.85 -50.0 18.35 L-52.6 21.4 Q-53.75 20.7 -55.05 17.9 -57.9 20.7 -58.5 20.7 L-58.7 20.7" fill="#000000" fill-rule="evenodd" stroke="none"/>
      <path d="M6.4 -32.3 L12.2 -33.95 Q10.95 -32.5 10.95 -29.0 L11.6 -24.65 Q12.55 -21.55 14.5 -20.7 L13.65 -17.45 13.7 -16.15 15.0 -16.05 Q17.1 -16.6 18.2 -17.1 L21.05 -15.5 Q22.9 -14.7 25.25 -14.2 L17.55 -14.7 13.85 -14.5 Q9.55 -14.35 8.05 -13.25 L6.4 -32.3 M34.05 -13.35 L36.15 -13.6 36.0 -12.15 29.4 -13.55 34.05 -13.35" fill="#d7429c" fill-rule="evenodd" stroke="none"/>
      <path d="M8.25 -10.65 Q9.2 -11.05 9.6 -12.0 10.95 -12.8 17.4 -12.8 L24.75 -12.35 24.75 -12.05 Q24.75 -9.3 27.2 3.85 L27.1 3.85 23.25 4.05 Q11.2 4.5 9.5 6.7 L8.25 -10.65 M-58.5 20.7 Q-57.9 20.7 -55.05 17.9 -53.75 20.7 -52.6 21.4 L-50.0 18.35 Q-48.05 15.85 -47.5 15.85 -46.0 15.85 -42.8 18.7 -42.0 18.7 -42.35 18.55 -41.7 17.05 -41.65 14.6 L-41.6 13.25 -38.95 12.5 Q-37.3 11.75 -37.25 11.4 -37.7 9.95 -38.1 9.05 L-37.25 8.1 -33.9 6.3 -36.65 2.45 -28.0 2.15 Q-38.1 18.5 -38.3 19.6 -49.85 20.05 -58.5 24.4 L-58.7 20.7 -58.5 20.7" fill="#79ee2b" fill-rule="evenodd" stroke="none"/>
      <path d="M37.85 -16.45 Q39.25 -15.7 40.25 -15.7 41.8 -15.7 42.7 -16.3 44.15 -13.35 48.0 -13.35 49.9 -13.35 51.45 -14.6 52.25 -14.6 54.1 -13.65 55.15 -13.7 57.65 -15.7 59.75 -17.45 60.1 -18.6 61.35 -13.1 61.45 -6.95 L61.45 -1.8 Q59.0 -5.5 44.6 -9.85 L37.35 -11.8 Q37.9 -12.4 37.9 -14.75 L37.85 -16.45 M57.45 -8.2 Q57.45 -7.35 57.55 -7.75 57.9 -7.3 58.45 -7.25 L59.35 -7.4 59.5 -8.35 Q59.45 -9.3 58.65 -9.3 57.45 -9.3 57.45 -8.2 M57.3 -10.3 L58.0 -10.65 58.15 -11.4 Q58.1 -12.35 57.3 -12.35 56.4 -12.35 56.45 -11.4 56.4 -11.2 57.3 -10.3" fill="#3233e7" fill-rule="evenodd" stroke="none"/>
      <path d="M28.0 -4.05 L27.95 -4.05 Q27.55 -10.2 26.6 -12.1 36.2 -10.8 48.2 -6.95 L50.35 -6.0 Q49.95 -5.2 49.7 -3.2 L49.35 0.35 48.7 -0.75 48.7 -1.0 Q48.2 -5.25 47.55 -5.25 46.65 -5.25 45.45 -4.1 44.3 -2.9 43.95 -2.7 L42.4 -5.1 Q41.05 -6.95 39.6 -6.95 38.3 -6.95 37.3 -5.7 L35.55 -3.9 Q35.05 -4.15 34.55 -6.2 34.05 -7.95 33.05 -7.95 31.75 -7.95 30.7 -6.75 29.9 -5.8 29.8 -5.1 L28.0 -4.05 M43.15 5.15 L44.3 3.7 45.75 5.25 46.9 6.25 48.0 6.55 Q48.35 6.55 49.05 4.4 L49.4 3.15 Q49.55 6.35 50.05 7.75 L46.75 6.5 44.7 5.75 43.15 5.35 43.15 5.15 M30.6 2.25 Q31.15 3.5 32.7 3.5 36.25 3.5 38.7 4.55 L28.9 3.85 28.35 3.5 28.15 3.8 28.15 2.35 28.1 0.55 Q29.35 1.85 30.5 1.85 L30.6 2.25 M-43.0 -32.05 L-43.0 -29.1 -42.45 -21.65 Q-42.35 -19.0 -41.8 -17.85 -47.05 -16.7 -52.25 -14.8 -58.95 -12.4 -61.3 -10.55 L-63.05 -23.8 Q-58.95 -25.6 -55.15 -27.5 -49.15 -30.4 -43.0 -32.05" fill="#ff1a1a" fill-rule="evenodd" stroke="none"/>
      <path d="M51.75 -4.85 L51.8 -5.3 Q55.25 -3.6 61.05 -0.2 61.2 -0.2 61.4 -0.35 L61.05 12.2 Q60.2 11.45 58.55 10.75 L51.95 8.45 51.65 8.3 51.3 7.95 51.4 4.95 51.75 -4.85" fill="#60d940" fill-rule="evenodd" stroke="none"/>
      <path d="M41.15 15.45 Q42.45 17.65 43.4 18.2 L43.3 19.7 43.35 21.25 44.3 21.4 Q47.25 19.95 47.6 19.15 L49.25 19.35 49.45 19.35 49.35 21.6 Q49.35 23.5 49.85 24.3 42.8 22.2 35.55 21.05 L28.7 20.5 28.8 16.8 28.8 16.6 28.85 15.15 30.15 15.3 31.05 15.25 31.7 16.8 Q32.65 18.7 33.5 18.7 34.4 18.65 34.4 18.4 L35.05 16.0 Q38.25 15.85 40.45 14.1 L41.15 15.45" fill="#835fba" fill-rule="evenodd" stroke="none"/>
      <path d="M50.9 24.65 L50.9 24.5 52.05 10.35 Q55.25 11.6 60.95 14.6 L60.1 27.95 Q55.55 26.1 50.9 24.65" fill="#a48c75" fill-rule="evenodd" stroke="none"/>
      <path d="M26.45 18.35 L27.1 18.3 27.6 20.5 Q18.9 20.45 10.6 23.0 L9.65 8.35 10.15 8.6 Q11.85 7.45 15.35 6.7 L15.3 8.1 15.65 10.6 Q16.05 12.05 16.95 12.6 16.45 13.45 15.9 14.8 14.95 17.15 15.0 17.9 L15.05 18.9 16.2 19.05 Q17.75 19.0 19.35 17.9 L20.65 16.65 21.6 17.35 Q23.35 18.35 26.45 18.35" fill="#1e8cfb" fill-rule="evenodd" stroke="none"/>
      <path d="M-46.25 -9.0 L-46.4 -8.55 -46.3 -8.1 -46.2 -8.05 -45.4 1.75 Q-49.5 2.55 -53.05 3.8 -57.6 5.35 -59.6 6.65 L-61.0 -8.1 Q-54.6 -12.45 -46.25 -14.85 L-46.4 -12.1 -46.25 -9.0" fill="#9c38e0" fill-rule="evenodd" stroke="none"/>
      <path d="M-44.45 -7.55 L-40.65 -7.25 -39.2 -7.4 -37.95 -5.65 Q-36.35 -3.6 -35.7 -3.55 -34.95 -3.55 -35.25 -3.7 -35.0 -4.3 -34.3 -8.35 -24.5 -10.2 -21.8 -12.35 L-21.45 -7.4 Q-20.95 -2.05 -20.4 0.2 L-27.3 0.35 Q-36.1 0.2 -43.35 1.4 L-44.45 -7.55" fill="#e9ff1a" fill-rule="evenodd" stroke="none"/>
      <path d="M-18.85 -26.15 L-18.0 -26.2 Q-17.85 -25.75 -16.85 -25.15 -15.3 -24.15 -13.0 -24.15 L-11.4 -24.25 -10.7 -23.1 Q-9.7 -21.8 -8.6 -21.75 -7.75 -21.8 -7.75 -22.05 L-7.25 -25.75 -7.25 -25.95 -6.05 -26.5 -4.9 -27.35 -5.0 -16.65 Q-6.35 -19.75 -22.45 -19.75 L-29.65 -19.55 -39.95 -18.25 -39.95 -18.6 Q-40.75 -29.2 -41.45 -32.45 -35.2 -33.95 -28.75 -34.15 -29.2 -33.45 -29.2 -32.5 L-28.65 -30.45 Q-28.0 -28.95 -27.15 -28.6 -28.2 -26.45 -28.15 -25.2 L-28.1 -23.9 -27.15 -23.8 Q-26.45 -23.8 -24.45 -24.95 -22.8 -26.0 -22.5 -26.7 -21.25 -26.15 -18.85 -26.15" fill="#1affd0" fill-rule="evenodd" stroke="none"/>
      <path d="M-20.4 -16.8 L-20.3 -17.8 -12.25 -16.8 Q-7.7 -15.7 -5.9 -15.7 -5.45 -15.7 -5.0 -16.25 L-5.25 -1.35 -5.3 0.05 -17.5 0.15 -18.75 0.15 -19.4 -8.1 Q-20.45 -14.05 -20.4 -16.8" fill="#ffba1a" fill-rule="evenodd" stroke="none"/>
      <path d="M-2.3 23.05 L-25.7 20.15 -36.25 19.55 Q-34.0 16.1 -26.8 2.5 L-27.1 2.1 -22.25 2.05 -22.45 4.25 Q-22.45 11.2 -17.0 13.3 L-19.4 16.95 -19.35 17.9 -17.85 18.0 Q-16.55 18.0 -13.0 16.2 -12.75 16.2 -10.35 17.5 -8.0 18.7 -5.6 18.7 L-4.15 18.45 Q-3.65 20.8 -2.95 22.35 L-2.25 23.05 -2.3 23.05" fill="#84b861" fill-rule="evenodd" stroke="none"/>
    </g>
  </defs>
</svg>
