<?xml version="1.0" encoding="UTF-8" standalone="no"?>
<svg xmlns:xlink="http://www.w3.org/1999/xlink" height="720.75px" width="1716.8px" xmlns="http://www.w3.org/2000/svg">
  <g transform="matrix(1, 0, 0, 1, 307.05, 450.35)">
    <use height="66.0" transform="matrix(1.0, 0.0, 0.0, 1.0, -53.3, -16.0)" width="106.65" xlink:href="#sprite0"/>
  </g>
  <defs>
    <g id="sprite0" transform="matrix(1, 0, 0, 1, 53.3, 33.0)">
      <use height="61.05" transform="matrix(1.0, 0.0, 0.0, 1.0, -47.6, -33.0)" width="100.95" xlink:href="#shape0"/>
      <use height="66.0" transform="matrix(1.0, 0.0, 0.0, 1.0, -53.3, -33.0)" width="106.65" xlink:href="#shape1"/>
    </g>
    <g id="shape0" transform="matrix(1, 0, 0, 1, 47.6, 33.0)">
      <path d="M10.85 -17.5 L13.3 -30.5 10.85 -17.5 Q-15.55 2.05 -32.65 25.55 -42.7 22.0 -45.1 -3.95 L-44.8 -4.3 Q-22.45 -31.0 13.3 -30.5 32.4 -25.8 48.3 -29.0 L50.85 -17.5 Q31.8 -13.7 10.85 -17.5" fill="#fec5c5" fill-rule="evenodd" stroke="none"/>
      <path d="M13.3 -30.5 L10.85 -17.5 Q31.8 -13.7 50.85 -17.5 L48.3 -29.0 Q32.4 -25.8 13.3 -30.5 -22.45 -31.0 -44.8 -4.3 L-45.1 -3.95 Q-42.7 22.0 -32.65 25.55 -15.55 2.05 10.85 -17.5" fill="none" stroke="#000000" stroke-linecap="round" stroke-linejoin="round" stroke-width="5.0"/>
    </g>
    <g id="shape1" transform="matrix(1, 0, 0, 1, 53.3, 33.0)">
      <path d="M-32.65 25.55 L-36.15 30.5 Q-52.35 24.95 -50.65 3.5 L-45.1 -3.95 Q-42.7 22.0 -32.65 25.55" fill="#ffffff" fill-rule="evenodd" stroke="none"/>
      <path d="M10.85 -17.5 Q31.8 -13.7 50.85 -17.5 L48.3 -29.0 Q32.4 -25.8 13.3 -30.5 L10.85 -17.5 Q-15.55 2.05 -32.65 25.55 L-36.15 30.5 Q-52.35 24.95 -50.65 3.5 L-45.1 -3.95 -44.8 -4.3 Q-22.45 -31.0 13.3 -30.5 M-32.65 25.55 Q-42.7 22.0 -45.1 -3.95" fill="none" stroke="#000000" stroke-linecap="round" stroke-linejoin="round" stroke-width="5.0"/>
    </g>
  </defs>
</svg>
