<?xml version="1.0" encoding="UTF-8" standalone="no"?>
<svg xmlns:xlink="http://www.w3.org/1999/xlink" height="720.75px" width="1716.8px" xmlns="http://www.w3.org/2000/svg">
  <g transform="matrix(1, 0, 0, 1, 307.05, 450.35)">
    <use height="101.75" transform="matrix(0.9842, -0.174, 0.174, 0.9842, -109.0673, -33.1088)" width="204.2" xlink:href="#sprite0"/>
  </g>
  <defs>
    <g id="sprite0" transform="matrix(1, 0, 0, 1, 109.4, 51.15)">
      <use height="29.0" transform="matrix(0.9659, 0.2588, -0.2588, 0.9659, -23.9872, -51.1604)" width="27.0" xlink:href="#sprite1"/>
      <use height="29.0" transform="matrix(0.9212, 0.3825, -0.3789, 0.9227, 11.8794, -43.7354)" width="27.0" xlink:href="#sprite1"/>
      <use height="29.0" transform="matrix(0.5695, 0.8179, -0.8156, 0.5729, 58.819, -31.2696)" width="27.0" xlink:href="#sprite1"/>
      <use height="29.0" transform="matrix(-0.3827, 0.9226, -0.9239, -0.3797, 94.8151, 11.2766)" width="27.0" xlink:href="#sprite1"/>
      <use height="29.0" transform="matrix(0.5695, 0.8179, -0.8156, 0.5729, 58.819, -31.2696)" width="27.0" xlink:href="#sprite1"/>
      <use height="29.0" transform="matrix(-0.9967, -0.0576, 0.0572, -0.9967, 45.8387, 45.1007)" width="27.0" xlink:href="#sprite1"/>
      <use height="29.0" transform="matrix(-0.3827, 0.9226, -0.9239, -0.3797, 94.8151, 11.2766)" width="27.0" xlink:href="#sprite1"/>
      <use height="29.0" transform="matrix(-0.8137, -0.577, 0.577, -0.8137, -5.8358, 38.2038)" width="27.0" xlink:href="#sprite1"/>
      <use height="71.05" transform="matrix(1.0, 0.0, 0.0, 1.0, -109.4, -43.4)" width="182.9" xlink:href="#shape1"/>
    </g>
    <g id="sprite1" transform="matrix(1, 0, 0, 1, 13.5, 23.0)">
      <use height="29.0" transform="matrix(1.0, 0.0, 0.0, 1.0, -13.5, -23.0)" width="27.0" xlink:href="#shape0"/>
    </g>
    <g id="shape0" transform="matrix(1, 0, 0, 1, 13.5, 23.0)">
      <path d="M-2.0 -14.0 Q-4.0 -6.75 -5.75 -1.25 L6.25 -1.5 Q3.25 -8.2 -1.3 -14.0 L-2.0 -14.0 M-2.5 -23.0 Q0.75 -23.0 13.5 0.35 13.5 1.65 13.15 2.45 12.8 3.25 10.1 4.4 7.4 5.55 -11.0 6.0 L-12.8 5.4 Q-13.5 4.9 -13.5 3.25 -13.5 0.95 -8.5 -11.0 -3.55 -23.0 -2.5 -23.0" fill="#000000" fill-rule="evenodd" stroke="none"/>
      <path d="M-2.0 -14.0 L-1.3 -14.0 Q3.25 -8.2 6.25 -1.5 L-5.75 -1.25 Q-4.0 -6.75 -2.0 -14.0" fill="#bfbfbf" fill-rule="evenodd" stroke="none"/>
    </g>
    <g id="shape1" transform="matrix(1, 0, 0, 1, 109.4, 43.4)">
      <path d="M-30.25 -24.75 L-30.35 -24.55 -30.4 -24.65 -30.25 -24.75" fill="#b7b7b7" fill-rule="evenodd" stroke="none"/>
      <path d="M-30.4 -24.65 L-30.5 -26.25 Q-30.5 -27.9 -29.2 -28.3 L-26.0 -28.5 Q49.7 -13.9 58.8 -9.1 67.9 -4.35 70.7 0.0 73.5 4.3 73.5 12.6 73.5 18.45 70.35 23.45 67.15 28.4 48.3 27.5 29.45 26.6 12.85 21.2 L-25.35 8.45 Q-38.7 3.95 -45.25 2.25 -45.5 3.25 -45.5 0.75 -45.5 -2.5 -41.0 -2.5 L-33.4 0.1 -27.35 2.1 -4.8 9.25 Q33.2 21.0 47.8 21.85 62.4 22.7 65.6 19.4 68.8 16.05 68.65 9.25 68.5 2.4 56.4 -4.4 46.85 -9.75 28.05 -13.5 L-4.8 -18.85 Q-15.7 -20.55 -22.6 -22.3 L-26.5 -23.4 -30.25 -24.75 -30.4 -24.65" fill="#000000" fill-rule="evenodd" stroke="none"/>
      <path d="M-33.4 0.1 Q-32.95 -3.5 -30.85 -11.35 -28.6 -19.7 -26.5 -23.4 L-22.6 -22.3 Q-15.7 -20.55 -4.8 -18.85 L28.05 -13.5 Q46.85 -9.75 56.4 -4.4 68.5 2.4 68.65 9.25 68.8 16.05 65.6 19.4 62.4 22.7 47.8 21.85 33.2 21.0 -4.8 9.25 L-27.35 2.1 -33.4 0.1" fill="#bfbfbf" fill-rule="evenodd" stroke="none"/>
      <path d="M-94.45 -40.85 Q-90.95 -43.85 -78.25 -43.35 -65.6 -42.85 -48.4 -39.2 -31.25 -35.6 -27.5 -32.85 -25.75 -31.6 -24.95 -30.0 -25.95 -5.95 -35.05 5.05 L-36.2 6.35 Q-38.75 7.5 -42.2 8.15 L-54.2 9.15 -65.05 9.05 Q-88.25 9.05 -95.4 -1.45 L-97.3 -5.05 Q-102.7 -5.95 -106.4 -13.4 -109.4 -19.45 -109.4 -22.45 -109.4 -30.45 -97.95 -37.8 L-94.45 -40.85 M-29.25 -25.2 L-29.3 -25.25 Q-32.7 -27.6 -47.55 -30.9 -46.85 -26.3 -47.95 -21.6 -49.1 -16.95 -59.4 -16.95 -69.7 -16.95 -71.5 -19.7 -72.1 -20.55 -71.9 -21.65 L-71.55 -22.7 Q-71.55 -27.2 -70.55 -31.7 L-69.5 -35.1 Q-81.45 -36.95 -89.9 -36.95 -92.4 -36.95 -94.15 -33.7 L-95.4 -30.35 Q-95.4 -24.1 -91.65 -11.05 -87.95 2.0 -67.05 2.8 -46.4 3.6 -37.75 -0.1 -33.55 -4.65 -29.55 -23.4 L-29.55 -23.45 -29.5 -24.9 -29.2 -25.15 -29.25 -25.2 M-100.4 -29.0 Q-103.65 -24.6 -103.65 -22.2 -103.65 -18.95 -99.7 -14.65 -100.35 -19.8 -100.4 -29.0 M-53.75 -32.25 L-63.7 -34.15 Q-64.3 -31.1 -66.55 -22.45 L-53.8 -22.45 Q-54.25 -27.1 -54.15 -29.7 L-53.75 -32.25" fill="#000000" fill-rule="evenodd" stroke="none"/>
      <path d="M-29.5 -24.9 L-29.55 -23.45 -29.55 -23.4 Q-33.55 -4.65 -37.75 -0.1 -46.4 3.6 -67.05 2.8 -87.95 2.0 -91.65 -11.05 -95.4 -24.1 -95.4 -30.35 L-94.15 -33.7 Q-92.4 -36.95 -89.9 -36.95 -81.45 -36.95 -69.5 -35.1 L-70.55 -31.7 Q-71.55 -27.2 -71.55 -22.7 L-71.9 -21.65 Q-72.1 -20.55 -71.5 -19.7 -69.7 -16.95 -59.4 -16.95 -49.1 -16.95 -47.95 -21.6 -46.85 -26.3 -47.55 -30.9 -32.7 -27.6 -29.3 -25.25 L-29.25 -25.2 -29.5 -24.9" fill="#ffc133" fill-rule="evenodd" stroke="none"/>
      <path d="M-53.75 -32.25 L-54.15 -29.7 Q-54.25 -27.1 -53.8 -22.45 L-66.55 -22.45 Q-64.3 -31.1 -63.7 -34.15 L-53.75 -32.25" fill="#664700" fill-rule="evenodd" stroke="none"/>
    </g>
  </defs>
</svg>
