<?xml version="1.0" encoding="UTF-8" standalone="no"?>
<svg xmlns:xlink="http://www.w3.org/1999/xlink" height="720.75px" width="1716.8px" xmlns="http://www.w3.org/2000/svg">
  <g transform="matrix(1, 0, 0, 1, 307.05, 450.35)">
    <use height="63.0" transform="matrix(1.0, 0.0, 0.0, 1.0, -49.3, -31.5)" width="98.6" xlink:href="#shape0"/>
  </g>
  <defs>
    <g id="shape0" transform="matrix(1, 0, 0, 1, 49.3, 31.5)">
      <path d="M5.3 -25.65 L5.9 -26.25 5.4 -26.35 Q-0.4 -27.6 -9.3 -23.65 -3.65 -22.9 1.85 -21.25 1.9 -22.45 2.85 -23.3 L5.3 -25.65 M14.0 -29.25 L13.85 -28.8 Q11.3 -25.65 9.0 -22.2 7.75 -20.45 6.4 -19.65 18.8 -14.9 24.95 -4.15 26.35 -8.15 31.85 -10.95 37.75 -14.0 42.65 -17.75 L45.1 -17.65 46.1 -17.35 Q51.05 -6.95 48.35 4.45 45.5 16.3 39.95 27.3 39.0 29.2 37.0 29.9 32.3 26.3 28.1 21.8 25.35 18.85 24.85 16.0 -3.85 44.55 -40.75 20.5 -48.55 15.4 -49.2 6.15 -50.45 -10.0 -34.35 -18.55 -29.0 -21.45 -23.65 -23.55 -22.0 -25.1 -19.35 -26.1 -8.25 -30.25 3.1 -31.5 L11.95 -31.2 Q13.85 -31.1 14.0 -29.25 M24.45 -1.55 Q10.7 -15.85 -11.6 -17.95 -35.85 -20.25 -44.85 1.9 -47.35 8.0 -42.3 13.4 -18.45 38.95 15.25 19.6 20.1 16.8 22.85 11.7 L23.3 11.55 24.1 11.35 25.35 11.4 25.7 10.7 Q28.85 11.35 30.8 14.65 33.5 19.2 36.7 23.6 L36.8 23.65 Q40.85 16.05 43.35 7.95 45.85 -0.45 44.75 -9.7 44.6 -11.0 43.85 -12.1 39.2 -10.1 34.3 -5.3 30.45 -1.65 26.3 -0.65 26.1 -0.4 25.7 -0.2 L25.4 -0.5 24.5 -0.4 Q24.4 -1.0 24.45 -1.55 M0.95 13.8 Q-4.75 20.55 -12.05 16.6 -12.9 16.15 -12.65 15.15 -7.65 14.2 -2.95 10.95 -0.4 9.15 0.05 6.05 -3.25 4.35 -9.2 6.8 -13.5 8.5 -14.3 5.05 -9.85 1.75 -3.0 1.05 -0.55 0.8 1.45 0.0 L3.1 0.15 4.05 0.5 4.7 1.0 Q5.7 8.05 0.95 13.8 M-33.1 -6.7 L-32.45 -6.25 -32.15 -5.05 -32.0 -3.2 Q-32.0 -1.75 -33.25 -0.8 L-34.1 -0.3 Q-35.95 0.4 -37.65 -0.5 L-38.3 -1.0 -38.55 -2.8 Q-38.5 -4.35 -38.1 -5.7 -37.7 -7.2 -36.5 -7.25 L-34.9 -7.2 -33.1 -6.7 M-24.35 -6.15 L-23.95 -6.25 -22.6 -5.7 -21.05 -5.15 -20.6 -4.95 Q-20.05 -4.5 -20.15 -3.75 -20.3 -2.3 -21.35 -1.2 L-22.7 0.2 Q-20.55 3.0 -20.75 6.9 L-20.6 11.1 Q-20.15 15.7 -23.35 16.95 -24.15 16.2 -23.55 15.35 -22.8 14.2 -22.8 12.75 -22.85 11.65 -22.5 10.6 -23.25 9.55 -23.45 8.45 L-23.75 4.85 Q-23.85 3.5 -23.45 2.45 L-24.2 1.85 -24.6 1.5 -24.9 1.2 -24.95 0.9 -24.8 0.05 -24.45 -0.9 Q-23.95 -2.1 -22.7 -3.0 -22.65 -3.55 -23.55 -3.75 L-24.85 -4.2 -25.35 -4.65 -25.25 -5.2 -25.05 -5.55 -24.75 -5.85 -24.35 -6.15" fill="#000000" fill-rule="evenodd" stroke="none"/>
      <path d="M5.4 -26.35 L5.3 -25.65 2.85 -23.3 Q1.9 -22.45 1.85 -21.25 -3.65 -22.9 -9.3 -23.65 -0.4 -27.6 5.4 -26.35 M-24.35 -6.15 L-24.75 -5.85 -25.05 -5.55 -25.25 -5.2 -25.35 -4.65 -24.85 -4.2 -23.55 -3.75 Q-22.65 -3.55 -22.7 -3.0 -23.95 -2.1 -24.45 -0.9 L-24.8 0.05 -24.95 0.9 -24.9 1.2 -24.6 1.5 -24.2 1.85 -23.45 2.45 Q-23.85 3.5 -23.75 4.85 L-23.45 8.45 Q-23.25 9.55 -22.5 10.6 -22.85 11.65 -22.8 12.75 -22.8 14.2 -23.55 15.35 -24.15 16.2 -23.35 16.95 -20.15 15.7 -20.6 11.1 L-20.75 6.9 Q-20.55 3.0 -22.7 0.2 L-21.35 -1.2 Q-20.3 -2.3 -20.15 -3.75 -20.05 -4.5 -20.6 -4.95 L-21.05 -5.15 -22.6 -5.7 -23.95 -6.25 -24.35 -6.15 M-33.1 -6.7 L-34.9 -7.2 -36.5 -7.25 Q-37.7 -7.2 -38.1 -5.7 -38.5 -4.35 -38.55 -2.8 L-38.3 -1.0 -37.65 -0.5 Q-35.95 0.4 -34.1 -0.3 L-33.25 -0.8 Q-32.0 -1.75 -32.0 -3.2 L-32.15 -5.05 -32.45 -6.25 -33.1 -6.7 M0.95 13.8 Q5.7 8.05 4.7 1.0 L4.05 0.5 3.1 0.15 1.45 0.0 Q-0.55 0.8 -3.0 1.05 -9.85 1.75 -14.3 5.05 -13.5 8.5 -9.2 6.8 -3.25 4.35 0.05 6.05 -0.4 9.15 -2.95 10.95 -7.65 14.2 -12.65 15.15 -12.9 16.15 -12.05 16.6 -4.75 20.55 0.95 13.8 M24.45 -1.55 Q24.4 -1.0 24.5 -0.4 L25.4 -0.5 25.7 -0.2 Q26.1 -0.4 26.3 -0.65 30.45 -1.65 34.3 -5.3 39.2 -10.1 43.85 -12.1 44.6 -11.0 44.75 -9.7 45.85 -0.45 43.35 7.95 40.85 16.05 36.8 23.65 L36.7 23.6 Q33.5 19.2 30.8 14.65 28.85 11.35 25.7 10.7 L25.35 11.4 24.1 11.35 23.3 11.55 22.85 11.7 Q20.1 16.8 15.25 19.6 -18.45 38.95 -42.3 13.4 -47.35 8.0 -44.85 1.9 -35.85 -20.25 -11.6 -17.95 10.7 -15.85 24.45 -1.55" fill="#f9d239" fill-rule="evenodd" stroke="none"/>
      <path d="M5.4 -26.35 L5.3 -25.65 5.4 -26.35" fill="#c8c8c8" fill-rule="evenodd" stroke="none"/>
    </g>
  </defs>
</svg>
