<?xml version="1.0" encoding="UTF-8" standalone="no"?>
<svg xmlns:xlink="http://www.w3.org/1999/xlink" height="720.75px" width="1716.8px" xmlns="http://www.w3.org/2000/svg">
  <g transform="matrix(1, 0, 0, 1, 307.05, 450.35)">
    <use height="105.6" transform="matrix(0.75, 0.0, 0.0, 0.75, -76.425, -39.6)" width="203.85" xlink:href="#sprite0"/>
  </g>
  <defs>
    <g id="sprite0" transform="matrix(1, 0, 0, 1, 101.9, 52.8)">
      <use height="105.6" transform="matrix(1.0, 0.0, 0.0, 1.0, -101.9, -52.8)" width="203.85" xlink:href="#shape0"/>
      <use height="105.6" transform="matrix(1.0, 0.0, 0.0, 1.0, -101.9, -52.8)" width="203.85" xlink:href="#shape1"/>
    </g>
    <g id="shape0" transform="matrix(1, 0, 0, 1, 101.9, 52.8)">
      <path d="M61.55 -50.35 L62.2 -50.9 62.85 -51.2 Q63.65 -50.1 64.55 -49.15 L64.8 -48.9 Q65.3 -48.15 65.0 -46.75 L62.0 -47.3 64.85 -46.35 65.95 -45.7 66.45 -44.75 66.55 -44.35 67.05 -44.65 67.6 -44.85 71.35 -45.45 72.45 -45.5 Q84.15 -45.5 92.0 -36.8 95.7 -32.8 99.0 -28.4 L96.0 -27.05 Q102.2 -13.35 101.95 2.6 101.85 10.65 97.55 18.0 93.6 24.7 89.25 28.3 80.95 40.5 67.25 46.25 51.85 52.7 39.0 47.85 7.95 59.75 -22.4 42.95 -25.35 41.35 -28.8 43.95 -47.05 57.25 -62.15 48.5 -64.45 47.15 -65.9 45.15 -69.1 44.65 -70.95 37.65 -72.85 30.6 -75.05 29.35 -76.7 28.45 -79.5 31.8 L-83.4 33.1 Q-92.95 29.1 -99.25 21.45 -105.55 13.75 -96.8 -10.1 -88.05 -34.0 -58.5 -37.0 -57.3 -37.1 -55.05 -38.35 -23.0 -56.35 8.55 -44.45 15.85 -41.75 23.65 -46.1 40.95 -55.8 57.75 -51.5 L61.55 -50.35 M62.0 -47.3 L60.55 -47.5 60.45 -46.6 Q61.3 -47.3 62.0 -47.3 M46.5 2.15 L50.35 2.55 46.3 1.05 46.45 1.45 46.5 2.15 M4.95 25.1 L4.6 25.05 4.6 25.2 4.95 25.1" fill="#ffdddd" fill-rule="evenodd" stroke="none"/>
    </g>
    <g id="shape1" transform="matrix(1, 0, 0, 1, 101.9, 52.8)">
      <path d="M63.9 -49.5 L64.55 -49.15 64.8 -48.9 Q65.3 -48.15 65.0 -46.75 L62.0 -47.3 60.55 -47.5 60.1 -47.55 Q42.25 -49.7 23.7 -40.65 20.0 -38.85 16.35 -38.2 16.45 -32.25 8.3 -24.55 2.5 -19.0 7.15 -11.55 20.3 9.45 4.65 24.25 L4.6 25.05 4.6 25.2 4.95 25.1 Q10.45 23.1 16.1 20.5 23.55 17.05 30.15 12.2 34.85 8.7 41.25 10.9 66.4 19.45 91.15 16.55 94.4 11.8 96.3 6.7 L96.4 6.45 96.75 6.8 97.2 5.85 Q103.8 -9.3 94.2 -20.35 88.4 -27.05 91.4 -32.5 81.8 -41.85 67.05 -40.9 L65.95 -40.8 64.75 -40.7 Q64.5 -40.65 64.35 -41.45 L64.6 -42.1 65.5 -43.45 66.55 -44.35 67.05 -44.65 67.6 -44.85 71.35 -45.45 72.45 -45.5 Q84.15 -45.5 92.0 -36.8 95.7 -32.8 99.0 -28.4 L96.0 -27.05 Q102.2 -13.35 101.95 2.6 101.85 10.65 97.55 18.0 93.6 24.7 89.25 28.3 80.95 40.5 67.25 46.25 51.85 52.7 39.0 47.85 7.95 59.75 -22.4 42.95 -25.35 41.35 -28.8 43.95 -47.05 57.25 -62.15 48.5 -64.45 47.15 -65.9 45.15 -69.1 44.65 -70.95 37.65 -72.85 30.6 -75.05 29.35 -76.7 28.45 -79.5 31.8 L-83.4 33.1 Q-92.95 29.1 -99.25 21.45 -105.55 13.75 -96.8 -10.1 -88.05 -34.0 -58.5 -37.0 -57.3 -37.1 -55.05 -38.35 -23.0 -56.35 8.55 -44.45 15.85 -41.75 23.65 -46.1 40.95 -55.8 57.75 -51.5 L61.55 -50.35 63.9 -49.5 M9.6 -38.15 Q-9.8 -40.65 -29.5 -39.85 -40.0 -39.45 -50.15 -32.6 -62.65 -24.15 -75.4 -25.85 -82.75 -20.25 -89.65 -13.1 -97.95 -4.65 -96.75 7.2 -95.6 19.0 -88.2 25.0 -63.65 19.15 -36.4 17.25 -18.85 16.05 -14.4 27.5 -10.75 27.3 -7.1 25.75 -4.5 24.65 -1.65 24.05 L0.15 22.6 0.2 22.35 Q0.5 20.65 2.1 20.3 L2.65 20.15 Q12.95 8.7 4.3 -9.45 -4.15 -27.1 10.6 -38.0 L9.6 -38.15 M32.35 -23.8 Q32.25 -25.05 33.6 -24.85 L36.5 -20.3 Q37.2 -22.0 38.35 -23.35 48.0 -34.9 60.4 -36.95 L64.35 -37.5 69.7 -37.95 Q81.85 -37.4 88.3 -26.0 94.05 -15.75 88.5 -8.0 85.65 5.15 69.95 5.5 L63.25 5.25 Q44.25 16.15 35.9 -7.25 33.05 -15.4 32.35 -23.8 M45.25 -2.45 Q61.35 1.45 79.5 -4.4 81.65 -5.1 83.35 -6.45 L83.85 -7.15 85.2 -8.45 85.55 -8.75 86.05 -9.55 86.1 -9.65 Q86.0 -10.95 86.25 -12.05 L86.75 -14.25 87.05 -15.7 87.1 -16.45 Q80.2 -32.15 65.45 -32.1 48.35 -32.05 39.5 -15.15 L40.9 -12.55 Q43.45 -7.85 45.25 -2.45 M85.7 23.25 L78.4 22.7 Q70.8 21.55 63.65 19.85 48.25 16.25 32.8 15.3 L20.8 26.45 Q19.15 28.0 16.9 28.75 L14.75 29.55 Q6.05 33.4 -1.4 31.9 L-3.7 32.85 Q-13.65 36.4 -19.85 29.6 -20.1 29.35 -19.9 28.6 -41.55 21.05 -66.5 27.75 L-66.5 28.65 Q-67.2 40.4 -62.55 37.15 -61.3 36.25 -59.2 36.2 -59.15 42.2 -61.6 44.2 -55.4 46.95 -47.45 45.3 -41.4 44.0 -35.3 40.3 -22.55 32.45 -11.45 38.8 10.2 51.15 32.95 44.9 L29.35 42.4 Q28.5 41.75 29.05 40.45 33.45 42.4 37.95 43.3 L39.15 42.9 41.2 43.6 41.6 43.9 Q62.0 45.95 83.25 25.7 L85.7 23.25 M46.5 2.15 L50.35 2.55 46.3 1.05 46.45 1.45 46.5 2.15" fill="#000000" fill-rule="evenodd" stroke="none"/>
      <path d="M45.25 -2.45 Q43.45 -7.85 40.9 -12.55 L39.5 -15.15 Q48.35 -32.05 65.45 -32.1 80.2 -32.15 87.1 -16.45 L87.05 -15.7 86.75 -14.25 86.25 -12.05 Q86.0 -10.95 86.1 -9.65 L86.05 -9.55 85.55 -8.75 85.2 -8.45 83.85 -7.15 83.35 -6.45 Q81.65 -5.1 79.5 -4.4 61.35 1.45 45.25 -2.45" fill="#fff1dd" fill-rule="evenodd" stroke="none"/>
      <path d="M-21.75 10.3 Q-21.35 13.4 -23.0 16.2 -25.8 21.2 -25.35 27.0 -25.0 31.4 -27.35 35.15 L-37.0 37.0 Q-41.95 38.2 -45.05 34.55 L-42.25 24.45 Q-40.2 16.55 -38.75 8.5 -37.95 4.2 -33.45 3.75 -31.45 6.4 -28.2 7.35 -25.25 8.25 -22.45 9.6 -22.0 9.8 -21.75 10.3 M-32.0 11.9 L-34.1 20.65 -36.65 29.25 -36.85 30.0 Q-35.75 31.0 -32.85 30.3 L-31.4 29.95 Q-31.1 25.0 -29.3 20.5 -26.7 13.7 -32.0 11.9" fill="#000000" fill-rule="evenodd" stroke="none"/>
      <path d="M-32.0 11.9 Q-26.7 13.7 -29.3 20.5 -31.1 25.0 -31.4 29.95 L-32.85 30.3 Q-35.75 31.0 -36.85 30.0 L-36.65 29.25 -34.1 20.65 -32.0 11.9" fill="#ffffff" fill-rule="evenodd" stroke="none"/>
      <path d="M61.85 -39.05 Q64.3 -36.15 64.0 -31.85 63.65 -27.45 61.7 -23.9 L61.0 -23.2 Q56.15 -25.2 56.95 -31.9 57.4 -36.1 60.6 -38.6 61.05 -39.0 61.85 -39.05 M67.3 -7.65 Q67.25 -4.4 67.45 -1.2 L67.15 0.15 Q61.6 1.4 60.6 -5.5 59.9 -10.1 62.85 -12.85 63.65 -13.55 64.35 -13.5 67.35 -11.35 67.3 -7.65" fill="#000000" fill-rule="evenodd" stroke="none"/>
    </g>
  </defs>
</svg>
