<?xml version="1.0" encoding="UTF-8" standalone="no"?>
<svg xmlns:xlink="http://www.w3.org/1999/xlink" height="720.75px" width="1716.8px" xmlns="http://www.w3.org/2000/svg">
  <g transform="matrix(1, 0, 0, 1, 307.05, 450.35)">
    <use height="14.0" transform="matrix(1.0, 0.0, 0.0, 1.0, -64.1, -7.0)" width="128.25" xlink:href="#shape0"/>
  </g>
  <defs>
    <g id="shape0" transform="matrix(1, 0, 0, 1, 64.1, 7.0)">
      <path d="M16.9 -1.5 L16.9 -6.0 16.9 -1.5 M6.9 -1.5 L6.9 -6.0 6.9 -1.5 M16.9 -6.0 L26.9 -6.0 36.9 -6.0 46.9 -6.0 56.9 -6.0 63.15 -6.0 63.15 6.0 -63.1 6.0 -63.1 -6.0 -53.1 -6.0 -43.1 -6.0 -33.1 -6.0 -23.1 -6.0 -13.1 -6.0 -3.1 -6.0 6.9 -6.0 16.9 -6.0 M46.9 -1.5 L46.9 -6.0 46.9 -1.5 M56.9 -1.6 L56.9 -6.0 56.9 -1.6 M26.9 -1.5 L26.9 -6.0 26.9 -1.5 M36.9 -1.5 L36.9 -6.0 36.9 -1.5 M7.6 0.45 L7.6 0.35 5.85 0.35 5.55 1.15 5.6 1.15 Q5.7 0.9 5.95 0.8 L6.35 0.75 7.25 0.75 6.25 3.75 6.5 3.75 7.6 0.45 M16.25 2.9 L16.35 2.5 16.65 2.1 17.35 2.8 17.45 3.1 17.3 3.45 16.9 3.6 Q16.6 3.6 16.45 3.4 L16.25 2.9 M17.25 0.6 L17.4 1.0 17.3 1.35 16.95 1.75 16.55 1.4 16.35 1.2 16.3 0.95 Q16.25 0.75 16.45 0.6 L16.85 0.45 Q17.1 0.45 17.25 0.6 M17.5 0.5 L16.85 0.3 Q16.4 0.3 16.2 0.55 15.95 0.75 15.95 1.1 L16.05 1.5 16.55 2.0 16.05 2.5 Q15.9 2.7 15.9 2.95 L16.1 3.45 Q16.35 3.7 16.85 3.75 L17.55 3.5 17.8 2.9 17.6 2.35 17.05 1.85 17.6 1.4 17.75 1.0 17.5 0.5 M26.65 0.5 Q26.8 0.3 27.0 0.3 27.2 0.3 27.35 0.45 L27.6 0.9 27.65 1.4 27.6 1.9 27.35 2.05 27.1 2.1 Q26.85 2.1 26.7 1.9 26.45 1.6 26.5 1.1 26.45 0.7 26.65 0.5 M27.85 2.55 L28.15 1.5 Q28.15 0.9 27.8 0.5 27.5 0.15 27.1 0.15 26.6 0.15 26.3 0.55 26.05 0.9 26.05 1.35 26.05 1.8 26.3 2.05 26.55 2.3 26.9 2.35 L27.6 2.1 27.25 2.85 26.7 3.35 26.1 3.5 26.1 3.6 26.25 3.6 27.1 3.35 27.85 2.55 M33.95 0.8 L33.95 0.9 34.2 0.8 34.35 0.85 34.4 0.95 34.4 1.45 34.4 3.25 34.4 3.6 34.3 3.7 34.0 3.7 34.0 3.8 35.25 3.8 35.25 3.7 34.95 3.7 34.85 3.55 34.8 3.25 34.8 0.45 34.75 0.45 33.95 0.8 M37.35 0.65 L37.55 1.05 37.7 2.0 37.6 3.2 37.35 3.6 37.1 3.7 Q36.8 3.7 36.65 3.35 36.5 2.9 36.5 2.25 L36.55 1.4 Q36.6 0.95 36.8 0.75 36.95 0.6 37.1 0.6 L37.35 0.65 M37.8 0.8 Q37.5 0.4 37.1 0.45 L36.65 0.6 Q36.35 0.75 36.2 1.2 36.0 1.6 36.05 2.15 36.0 2.85 36.3 3.3 36.6 3.85 37.1 3.85 L37.6 3.7 38.0 3.1 38.15 2.1 Q38.15 1.3 37.8 0.8 M45.8 2.95 L45.8 0.15 45.75 0.15 44.95 0.55 44.95 0.6 45.2 0.55 45.35 0.6 45.4 0.7 45.4 1.15 45.4 2.95 45.4 3.3 45.3 3.4 45.0 3.45 45.0 3.55 46.25 3.55 46.25 3.45 45.95 3.4 45.85 3.3 45.8 2.95 M48.3 2.95 L48.3 0.15 48.25 0.15 47.45 0.55 47.45 0.6 47.7 0.55 47.85 0.6 47.9 0.7 47.9 1.15 47.9 2.95 47.9 3.3 47.8 3.4 47.5 3.45 47.5 3.55 48.75 3.55 48.75 3.45 48.45 3.4 48.35 3.3 48.3 2.95 M55.8 0.45 L55.75 0.45 54.95 0.8 54.95 0.9 55.1 0.85 55.2 0.8 55.35 0.85 55.4 0.95 55.4 1.45 55.4 3.25 55.4 3.6 55.3 3.7 55.1 3.7 55.0 3.7 55.0 3.8 56.25 3.8 56.25 3.7 55.95 3.7 55.85 3.55 55.8 3.25 55.8 0.45 M58.25 2.65 L58.8 1.8 58.95 1.3 58.65 0.7 Q58.4 0.4 58.0 0.45 57.6 0.4 57.35 0.65 L57.05 1.35 57.15 1.35 57.45 0.95 Q57.6 0.8 57.85 0.8 L58.35 1.0 58.5 1.5 58.15 2.45 56.95 3.7 56.95 3.8 58.9 3.8 59.15 3.15 59.05 3.15 58.9 3.35 58.7 3.4 58.35 3.45 57.45 3.45 58.25 2.65 M-33.1 -1.5 L-33.1 -6.0 -33.1 -1.5 M-13.1 -1.5 L-13.1 -6.0 -13.1 -1.5 M-23.1 -1.5 L-23.1 -6.0 -23.1 -1.5 M-3.1 -1.5 L-3.1 -6.0 -3.1 -1.5 M-53.1 -1.5 L-53.1 -6.0 -53.1 -1.5 M-43.1 -1.5 L-43.1 -6.0 -43.1 -1.5 M-52.95 0.45 L-53.05 0.45 -53.85 0.8 -53.8 0.9 -53.55 0.8 -53.45 0.85 -53.4 0.95 -53.35 1.45 -53.35 3.25 -53.4 3.6 -53.5 3.7 -53.8 3.7 -53.8 3.8 -52.55 3.8 -52.55 3.7 -52.85 3.7 -52.95 3.55 -52.95 3.25 -52.95 0.45 M-42.55 1.3 L-42.85 0.7 Q-43.1 0.4 -43.5 0.45 -43.9 0.4 -44.15 0.65 L-44.45 1.35 -44.35 1.35 -44.05 0.95 Q-43.9 0.8 -43.65 0.8 L-43.15 1.0 Q-43.0 1.2 -43.0 1.5 -43.0 1.9 -43.35 2.45 L-44.55 3.7 -44.55 3.8 -42.6 3.8 -42.35 3.15 -42.45 3.15 -42.6 3.35 -42.8 3.4 -43.15 3.45 -44.05 3.45 -43.25 2.65 -42.7 1.8 -42.55 1.3 M-32.3 2.7 Q-32.3 2.4 -32.45 2.2 L-32.95 1.85 -32.5 1.1 -32.65 0.7 Q-32.85 0.4 -33.25 0.45 -33.6 0.4 -33.8 0.6 L-34.15 1.15 -34.05 1.15 Q-33.85 0.75 -33.45 0.75 -33.2 0.75 -33.05 0.9 -32.9 1.05 -32.9 1.3 L-32.95 1.7 -33.25 1.95 -33.65 2.1 -33.65 2.15 -33.55 2.15 -33.2 2.25 -32.9 2.4 -32.75 2.65 -32.7 3.0 -32.85 3.45 -33.3 3.65 -33.5 3.65 -33.7 3.55 -33.9 3.45 -34.0 3.45 -34.15 3.5 -34.2 3.6 -34.1 3.8 -33.6 3.85 Q-32.95 3.85 -32.6 3.45 -32.3 3.15 -32.3 2.7 M-23.4 2.6 L-24.6 2.6 -23.4 0.95 -23.4 2.6 M-22.6 2.95 L-22.6 2.6 -23.0 2.6 -23.0 0.45 -23.3 0.45 -24.8 2.6 -24.8 2.95 -23.4 2.95 -23.4 3.8 -23.0 3.8 -23.0 2.95 -22.6 2.95 M-12.65 3.05 L-12.55 2.55 Q-12.55 2.1 -12.85 1.8 -13.25 1.4 -13.9 1.3 L-13.65 0.85 -12.65 0.85 -12.5 0.45 -13.65 0.45 -14.3 1.75 -13.6 1.85 Q-13.25 2.0 -13.05 2.25 L-12.85 2.8 -13.05 3.35 -13.55 3.55 -13.95 3.45 Q-14.05 3.35 -14.1 3.35 L-14.2 3.3 -14.35 3.35 -14.4 3.5 -14.3 3.7 -13.85 3.8 -13.25 3.7 -12.9 3.45 -12.65 3.05 M-3.35 1.95 L-3.15 1.95 Q-2.85 1.95 -2.7 2.25 -2.55 2.55 -2.55 2.95 L-2.7 3.55 -3.1 3.75 -3.4 3.6 -3.65 3.2 -3.7 2.65 -3.7 2.15 -3.35 1.95 M-2.1 2.7 Q-2.1 2.25 -2.35 2.0 -2.6 1.7 -2.95 1.7 L-3.65 1.95 -3.4 1.4 -3.1 0.95 -2.7 0.65 -2.15 0.5 -2.15 0.45 -2.3 0.45 -2.85 0.55 -3.5 0.95 -4.0 1.65 -4.2 2.5 Q-4.2 3.2 -3.7 3.65 L-3.15 3.85 Q-2.65 3.85 -2.35 3.45 L-2.1 2.7" fill="#d8cb63" fill-rule="evenodd" stroke="none"/>
      <path d="M58.25 2.65 L57.45 3.45 58.35 3.45 58.7 3.4 58.9 3.35 59.05 3.15 59.15 3.15 58.9 3.8 56.95 3.8 56.95 3.7 58.15 2.45 58.5 1.5 58.35 1.0 57.85 0.8 Q57.6 0.8 57.45 0.95 L57.15 1.35 57.05 1.35 57.35 0.65 Q57.6 0.4 58.0 0.45 58.4 0.4 58.65 0.7 L58.95 1.3 58.8 1.8 58.25 2.65 M55.8 0.45 L55.8 3.25 55.85 3.55 55.95 3.7 56.25 3.7 56.25 3.8 55.0 3.8 55.0 3.7 55.1 3.7 55.3 3.7 55.4 3.6 55.4 3.25 55.4 1.45 55.4 0.95 55.35 0.85 55.2 0.8 55.1 0.85 54.95 0.9 54.95 0.8 55.75 0.45 55.8 0.45 M48.3 2.95 L48.35 3.3 48.45 3.4 48.75 3.45 48.75 3.55 47.5 3.55 47.5 3.45 47.8 3.4 47.9 3.3 47.9 2.95 47.9 1.15 47.9 0.7 47.85 0.6 47.7 0.55 47.45 0.6 47.45 0.55 48.25 0.15 48.3 0.15 48.3 2.95 M45.8 2.95 L45.85 3.3 45.95 3.4 46.25 3.45 46.25 3.55 45.0 3.55 45.0 3.45 45.3 3.4 45.4 3.3 45.4 2.95 45.4 1.15 45.4 0.7 45.35 0.6 45.2 0.55 44.95 0.6 44.95 0.55 45.75 0.15 45.8 0.15 45.8 2.95 M37.8 0.8 Q38.15 1.3 38.15 2.1 L38.0 3.1 37.6 3.7 37.1 3.85 Q36.6 3.85 36.3 3.3 36.0 2.85 36.05 2.15 36.0 1.6 36.2 1.2 36.35 0.75 36.65 0.6 L37.1 0.45 Q37.5 0.4 37.8 0.8 M37.35 0.65 L37.1 0.6 Q36.95 0.6 36.8 0.75 36.6 0.95 36.55 1.4 L36.5 2.25 Q36.5 2.9 36.65 3.35 36.8 3.7 37.1 3.7 L37.35 3.6 37.6 3.2 37.7 2.0 37.55 1.05 37.35 0.65 M33.95 0.8 L34.75 0.45 34.8 0.45 34.8 3.25 34.85 3.55 34.95 3.7 35.25 3.7 35.25 3.8 34.0 3.8 34.0 3.7 34.3 3.7 34.4 3.6 34.4 3.25 34.4 1.45 34.4 0.95 34.35 0.85 34.2 0.8 33.95 0.9 33.95 0.8 M27.85 2.55 L27.1 3.35 26.25 3.6 26.1 3.6 26.1 3.5 26.7 3.35 27.25 2.85 27.6 2.1 26.9 2.35 Q26.55 2.3 26.3 2.05 26.05 1.8 26.05 1.35 26.05 0.9 26.3 0.55 26.6 0.15 27.1 0.15 27.5 0.15 27.8 0.5 28.15 0.9 28.15 1.5 L27.85 2.55 M26.65 0.5 Q26.45 0.7 26.5 1.1 26.45 1.6 26.7 1.9 26.85 2.1 27.1 2.1 L27.35 2.05 27.6 1.9 27.65 1.4 27.6 0.9 27.35 0.45 Q27.2 0.3 27.0 0.3 26.8 0.3 26.65 0.5 M17.5 0.5 L17.75 1.0 17.6 1.4 17.05 1.85 17.6 2.35 17.8 2.9 17.55 3.5 16.85 3.75 Q16.35 3.7 16.1 3.45 L15.9 2.95 Q15.9 2.7 16.05 2.5 L16.55 2.0 16.05 1.5 15.95 1.1 Q15.95 0.75 16.2 0.55 16.4 0.3 16.85 0.3 L17.5 0.5 M17.25 0.6 Q17.1 0.45 16.85 0.45 L16.45 0.6 Q16.25 0.75 16.3 0.95 L16.35 1.2 16.55 1.4 16.95 1.75 17.3 1.35 17.4 1.0 17.25 0.6 M16.25 2.9 L16.45 3.4 Q16.6 3.6 16.9 3.6 L17.3 3.45 17.45 3.1 17.35 2.8 16.65 2.1 16.35 2.5 16.25 2.9 M7.6 0.45 L6.5 3.75 6.25 3.75 7.25 0.75 6.35 0.75 5.95 0.8 Q5.7 0.9 5.6 1.15 L5.55 1.15 5.85 0.35 7.6 0.35 7.6 0.45 M-2.1 2.7 L-2.35 3.45 Q-2.65 3.85 -3.15 3.85 L-3.7 3.65 Q-4.2 3.2 -4.2 2.5 L-4.0 1.65 -3.5 0.95 -2.85 0.55 -2.3 0.45 -2.15 0.45 -2.15 0.5 -2.7 0.65 -3.1 0.95 -3.4 1.4 -3.65 1.95 -2.95 1.7 Q-2.6 1.7 -2.35 2.0 -2.1 2.25 -2.1 2.7 M-3.35 1.95 L-3.7 2.15 -3.7 2.65 -3.65 3.2 -3.4 3.6 -3.1 3.75 -2.7 3.55 -2.55 2.95 Q-2.55 2.55 -2.7 2.25 -2.85 1.95 -3.15 1.95 L-3.35 1.95 M-12.65 3.05 L-12.9 3.45 -13.25 3.7 -13.85 3.8 -14.3 3.7 -14.4 3.5 -14.35 3.35 -14.2 3.3 -14.1 3.35 Q-14.05 3.35 -13.95 3.45 L-13.55 3.55 -13.05 3.35 -12.85 2.8 -13.05 2.25 Q-13.25 2.0 -13.6 1.85 L-14.3 1.75 -13.65 0.45 -12.5 0.45 -12.65 0.85 -13.65 0.85 -13.9 1.3 Q-13.25 1.4 -12.85 1.8 -12.55 2.1 -12.55 2.55 L-12.65 3.05 M-22.6 2.95 L-23.0 2.95 -23.0 3.8 -23.4 3.8 -23.4 2.95 -24.8 2.95 -24.8 2.6 -23.3 0.45 -23.0 0.45 -23.0 2.6 -22.6 2.6 -22.6 2.95 M-23.4 2.6 L-23.4 0.95 -24.6 2.6 -23.4 2.6 M-32.3 2.7 Q-32.3 3.15 -32.6 3.45 -32.95 3.85 -33.6 3.85 L-34.1 3.8 -34.2 3.6 -34.15 3.5 -34.0 3.45 -33.9 3.45 -33.7 3.55 -33.5 3.65 -33.3 3.65 -32.85 3.45 -32.7 3.0 -32.75 2.65 -32.9 2.4 -33.2 2.25 -33.55 2.15 -33.65 2.15 -33.65 2.1 -33.25 1.95 -32.95 1.7 -32.9 1.3 Q-32.9 1.05 -33.05 0.9 -33.2 0.75 -33.45 0.75 -33.85 0.75 -34.05 1.15 L-34.15 1.15 -33.8 0.6 Q-33.6 0.4 -33.25 0.45 -32.85 0.4 -32.65 0.7 L-32.5 1.1 -32.95 1.85 -32.45 2.2 Q-32.3 2.4 -32.3 2.7 M-42.55 1.3 L-42.7 1.8 -43.25 2.65 -44.05 3.45 -43.15 3.45 -42.8 3.4 -42.6 3.35 -42.45 3.15 -42.35 3.15 -42.6 3.8 -44.55 3.8 -44.55 3.7 -43.35 2.45 Q-43.0 1.9 -43.0 1.5 -43.0 1.2 -43.15 1.0 L-43.65 0.8 Q-43.9 0.8 -44.05 0.95 L-44.35 1.35 -44.45 1.35 -44.15 0.65 Q-43.9 0.4 -43.5 0.45 -43.1 0.4 -42.85 0.7 L-42.55 1.3 M-52.95 0.45 L-52.95 3.25 -52.95 3.55 -52.85 3.7 -52.55 3.7 -52.55 3.8 -53.8 3.8 -53.8 3.7 -53.5 3.7 -53.4 3.6 -53.35 3.25 -53.35 1.45 -53.4 0.95 -53.45 0.85 -53.55 0.8 -53.8 0.9 -53.85 0.8 -53.05 0.45 -52.95 0.45" fill="#000000" fill-rule="evenodd" stroke="none"/>
      <path d="M6.9 -6.0 L6.9 -1.5 M16.9 -6.0 L16.9 -1.5 M16.9 -6.0 L26.9 -6.0 36.9 -6.0 46.9 -6.0 56.9 -6.0 63.15 -6.0 63.15 6.0 -63.1 6.0 -63.1 -6.0 -53.1 -6.0 -43.1 -6.0 -33.1 -6.0 -23.1 -6.0 -13.1 -6.0 -3.1 -6.0 6.9 -6.0 16.9 -6.0 M36.9 -6.0 L36.9 -1.5 M26.9 -6.0 L26.9 -1.5 M56.9 -6.0 L56.9 -1.6 M46.9 -6.0 L46.9 -1.5 M-43.1 -6.0 L-43.1 -1.5 M-53.1 -6.0 L-53.1 -1.5 M-3.1 -6.0 L-3.1 -1.5 M-23.1 -6.0 L-23.1 -1.5 M-13.1 -6.0 L-13.1 -1.5 M-33.1 -6.0 L-33.1 -1.5" fill="none" stroke="#000000" stroke-linecap="round" stroke-linejoin="round" stroke-width="2.0"/>
    </g>
  </defs>
</svg>
