<?xml version="1.0" encoding="UTF-8" standalone="no"?>
<svg xmlns:xlink="http://www.w3.org/1999/xlink" height="720.75px" width="1716.8px" xmlns="http://www.w3.org/2000/svg">
  <g transform="matrix(1, 0, 0, 1, 307.05, 450.35)">
    <use height="136.65" transform="matrix(1.0, 0.0, 0.0, 1.0, -23.25, -12.35)" width="222.5" xlink:href="#sprite0"/>
  </g>
  <defs>
    <g id="sprite0" transform="matrix(1, 0, 0, 1, 31.75, 12.25)">
      <use height="136.65" transform="matrix(1.0, 0.0, 0.0, 1.0, -31.75, -12.25)" width="222.5" xlink:href="#shape0"/>
    </g>
    <g id="shape0" transform="matrix(1, 0, 0, 1, 31.75, 12.25)">
      <path d="M13.25 0.0 Q13.25 4.05 10.4 6.9 7.55 9.75 3.5 9.75 L-19.5 9.75 Q-23.55 9.75 -26.4 6.9 -29.25 4.05 -29.25 0.0 -29.25 -4.05 -26.4 -6.9 -23.55 -9.75 -19.5 -9.75 L3.5 -9.75 Q7.55 -9.75 10.4 -6.9 13.25 -4.05 13.25 0.0 L3.25 0.0 13.25 0.0" fill="#999999" fill-opacity="0.0" fill-rule="evenodd" stroke="none"/>
      <path d="M13.25 0.0 Q13.25 -4.05 10.4 -6.9 7.55 -9.75 3.5 -9.75 L-19.5 -9.75 Q-23.55 -9.75 -26.4 -6.9 -29.25 -4.05 -29.25 0.0 -29.25 4.05 -26.4 6.9 -23.55 9.75 -19.5 9.75 L3.5 9.75 Q7.55 9.75 10.4 6.9 13.25 4.05 13.25 0.0 L3.25 0.0 M13.25 0.0 L32.75 0.0" fill="none" stroke="#999999" stroke-linecap="round" stroke-linejoin="round" stroke-width="5.0"/>
      <path d="M63.4 9.0 Q62.35 12.9 58.85 14.9 55.35 16.9 51.45 15.9 L29.25 9.95 Q25.35 8.85 23.35 5.4 21.3 1.9 22.35 -2.0 23.4 -5.95 26.9 -7.95 30.4 -9.95 34.3 -8.9 L56.5 -2.95 Q60.4 -1.9 62.45 1.6 64.45 5.05 63.4 9.0 L53.75 6.4 63.4 9.0" fill="#999999" fill-opacity="0.0" fill-rule="evenodd" stroke="none"/>
      <path d="M63.4 9.0 Q64.45 5.05 62.45 1.6 60.4 -1.9 56.5 -2.95 L34.3 -8.9 Q30.4 -9.95 26.9 -7.95 23.4 -5.95 22.35 -2.0 21.3 1.9 23.35 5.4 25.35 8.85 29.25 9.95 L51.45 15.9 Q55.35 16.9 58.85 14.9 62.35 12.9 63.4 9.0 L53.75 6.4 M63.4 9.0 L82.25 14.05" fill="none" stroke="#999999" stroke-linecap="round" stroke-linejoin="round" stroke-width="5.0"/>
      <path d="M111.25 31.3 Q109.2 34.8 105.3 35.85 101.4 36.85 97.9 34.85 L78.0 23.35 Q74.5 21.3 73.45 17.45 72.4 13.55 74.45 10.05 76.45 6.5 80.35 5.5 84.25 4.45 87.75 6.45 L107.65 17.95 Q111.15 20.0 112.2 23.9 113.25 27.75 111.25 31.3 L102.6 26.3 111.25 31.3" fill="#999999" fill-opacity="0.0" fill-rule="evenodd" stroke="none"/>
      <path d="M111.25 31.3 Q113.25 27.75 112.2 23.9 111.15 20.0 107.65 17.95 L87.75 6.45 Q84.25 4.45 80.35 5.5 76.45 6.5 74.45 10.05 72.4 13.55 73.45 17.45 74.5 21.3 78.0 23.35 L97.9 34.85 Q101.4 36.85 105.3 35.85 109.2 34.8 111.25 31.3 L102.6 26.3 M111.25 31.3 L128.15 41.05" fill="none" stroke="#999999" stroke-linecap="round" stroke-linejoin="round" stroke-width="5.0"/>
      <path d="M150.4 63.65 Q147.5 66.5 143.5 66.5 139.45 66.5 136.6 63.65 L120.35 47.35 Q117.45 44.5 117.45 40.45 117.45 36.45 120.35 33.6 123.2 30.7 127.2 30.7 131.25 30.7 134.1 33.6 L150.4 49.85 Q153.25 52.7 153.25 56.75 153.25 60.75 150.4 63.65 L143.3 56.55 150.4 63.65" fill="#999999" fill-opacity="0.0" fill-rule="evenodd" stroke="none"/>
      <path d="M150.4 63.65 Q153.25 60.75 153.25 56.75 153.25 52.7 150.4 49.85 L134.1 33.6 Q131.25 30.7 127.2 30.7 123.2 30.7 120.35 33.6 117.45 36.45 117.45 40.45 117.45 44.5 120.35 47.35 L136.6 63.65 Q139.45 66.5 143.5 66.5 147.5 66.5 150.4 63.65 L143.3 56.55 M150.4 63.65 L164.15 77.4" fill="none" stroke="#999999" stroke-linecap="round" stroke-linejoin="round" stroke-width="5.0"/>
      <path d="M178.5 105.0 Q174.95 107.0 171.1 105.95 167.2 104.9 165.15 101.4 L153.65 81.5 153.0 80.1 Q151.85 77.2 152.7 74.1 153.7 70.2 157.25 68.2 160.75 66.15 164.65 67.2 168.5 68.2 170.55 71.75 L182.05 91.65 Q184.05 95.15 183.05 99.05 182.0 102.95 178.5 105.0 L173.5 96.35 178.5 105.0" fill="#999999" fill-opacity="0.0" fill-rule="evenodd" stroke="none"/>
      <path d="M178.5 105.0 Q182.0 102.95 183.05 99.05 184.05 95.15 182.05 91.65 L170.55 71.75 Q168.5 68.2 164.65 67.2 160.75 66.15 157.25 68.2 153.7 70.2 152.7 74.1 151.85 77.2 153.0 80.1 L153.65 81.5 165.15 101.4 Q167.2 104.9 171.1 105.95 174.95 107.0 178.5 105.0 L173.5 96.35 M178.5 105.0 L188.25 121.9" fill="none" stroke="#999999" stroke-linecap="round" stroke-linejoin="round" stroke-width="5.0"/>
    </g>
  </defs>
</svg>
