<?xml version="1.0" encoding="UTF-8" standalone="no"?>
<svg xmlns:xlink="http://www.w3.org/1999/xlink" height="720.75px" width="1716.8px" xmlns="http://www.w3.org/2000/svg">
  <g transform="matrix(1, 0, 0, 1, 307.05, 450.35)">
    <use height="48.0" transform="matrix(1.0, 0.0, 0.0, 1.0, -24.0, -24.0)" width="48.0" xlink:href="#sprite0"/>
  </g>
  <defs>
    <g id="sprite0" transform="matrix(1, 0, 0, 1, 24.0, 24.0)">
      <use height="48.0" transform="matrix(1.0, 0.0, 0.0, 1.0, -24.0, -24.0)" width="48.0" xlink:href="#shape0"/>
    </g>
    <g id="shape0" transform="matrix(1, 0, 0, 1, 24.0, 24.0)">
      <path d="M19.9 -16.1 L19.9 16.0 16.1 16.0 16.1 19.9 -16.1 19.9 -16.1 15.9 -19.6 15.9 -19.6 -16.2 -16.1 -16.2 -16.1 -20.0 16.1 -20.0 16.1 -16.1 19.9 -16.1 M12.0 12.0 L15.9 12.0 15.9 -12.0 12.1 -12.0 12.1 -16.0 8.0 -16.0 -4.0 -16.0 -11.9 -16.0 -11.9 -12.0 -15.6 -12.0 -15.6 12.0 -12.0 12.0 -12.0 16.0 -8.0 16.0 -8.0 15.9 -4.0 15.9 -4.0 16.0 0.0 16.0 0.0 15.9 8.0 15.9 8.0 16.0 12.0 16.0 12.0 12.0" fill="#ffffff" fill-rule="evenodd" stroke="none"/>
      <path d="M19.9 -16.1 L16.1 -16.1 16.1 -20.0 -16.1 -20.0 -16.1 -16.2 -19.6 -16.2 -19.6 15.9 -16.1 15.9 -16.1 19.9 16.1 19.9 16.1 16.0 19.9 16.0 19.9 -16.1 M12.0 12.0 L12.0 8.0 8.0 8.0 8.0 4.0 12.0 4.0 12.0 -8.0 0.0 -8.0 0.0 -12.0 8.0 -12.0 8.0 -16.0 12.1 -16.0 12.1 -12.0 15.9 -12.0 15.9 12.0 12.0 12.0 M-4.0 -16.0 L-4.0 -8.0 -12.0 -8.0 -12.0 4.0 -8.0 4.0 -8.0 8.0 -4.0 8.0 -4.0 15.9 -8.0 15.9 -8.0 8.0 -12.0 8.0 -12.0 12.0 -15.6 12.0 -15.6 -12.0 -11.9 -12.0 -11.9 -16.0 -4.0 -16.0 M0.0 15.9 L0.0 8.0 4.0 8.0 4.0 12.0 8.0 12.0 8.0 15.9 0.0 15.9 M8.0 -4.0 L8.0 0.0 -8.0 0.0 -8.0 -4.0 8.0 -4.0 M24.0 24.0 L-24.0 24.0 -24.0 -24.0 24.0 -24.0 24.0 24.0" fill="#000099" fill-rule="evenodd" stroke="none"/>
      <path d="M8.0 -16.0 L8.0 -12.0 0.0 -12.0 0.0 -8.0 12.0 -8.0 12.0 4.0 8.0 4.0 8.0 8.0 12.0 8.0 12.0 12.0 12.0 16.0 8.0 16.0 8.0 15.9 8.0 12.0 4.0 12.0 4.0 8.0 0.0 8.0 0.0 15.9 0.0 16.0 -4.0 16.0 -4.0 15.9 -4.0 8.0 -8.0 8.0 -8.0 4.0 -12.0 4.0 -12.0 -8.0 -4.0 -8.0 -4.0 -16.0 8.0 -16.0 M8.0 -4.0 L-8.0 -4.0 -8.0 0.0 8.0 0.0 8.0 -4.0 M-12.0 12.0 L-12.0 8.0 -8.0 8.0 -8.0 15.9 -8.0 16.0 -12.0 16.0 -12.0 12.0" fill="#eeeeff" fill-rule="evenodd" stroke="none"/>
    </g>
  </defs>
</svg>
