<?xml version="1.0" encoding="UTF-8" standalone="no"?>
<svg xmlns:xlink="http://www.w3.org/1999/xlink" height="720.75px" width="1716.8px" xmlns="http://www.w3.org/2000/svg">
  <g transform="matrix(1, 0, 0, 1, 307.05, 450.35)">
    <use height="74.05" transform="matrix(1.0, 0.0, 0.0, 1.0, -20.0, -42.05)" width="40.85" xlink:href="#sprite0"/>
  </g>
  <defs>
    <g id="sprite0" transform="matrix(1, 0, 0, 1, 20.4, 37.05)">
      <use height="14.4" transform="matrix(1.0, 0.0, 0.0, 1.0, -11.15, -37.05)" width="17.1" xlink:href="#shape0"/>
      <use height="68.05" transform="matrix(1.0, 0.0, 0.0, 1.0, -20.4, -31.05)" width="40.85" xlink:href="#shape1"/>
    </g>
    <g id="shape0" transform="matrix(1, 0, 0, 1, 11.15, 37.05)">
      <path d="M-7.7 -24.15 L-9.65 -33.4 Q-1.35 -37.85 4.45 -33.05 L2.3 -24.85 Q-2.9 -26.05 -7.7 -24.15" fill="#a48861" fill-rule="evenodd" stroke="none"/>
      <path d="M-7.7 -24.15 L-9.65 -33.4 Q-1.35 -37.85 4.45 -33.05 L2.3 -24.85" fill="none" stroke="#000000" stroke-linecap="round" stroke-linejoin="round" stroke-width="3.0"/>
    </g>
    <g id="shape1" transform="matrix(1, 0, 0, 1, 20.4, 31.05)">
      <path d="M2.3 -24.45 L2.5 -24.8 2.3 -24.45 M-17.05 -15.65 Q-14.85 -20.2 -10.2 -22.9 L-7.7 -24.15 -9.65 -28.5 Q-1.35 -30.65 4.45 -28.35 L2.5 -24.8 2.95 -24.65 Q9.8 -22.85 13.35 -16.6 16.95 -10.4 15.1 -3.45 14.1 0.25 11.8 3.05 14.55 5.15 16.5 8.4 L16.75 8.9 Q12.25 15.4 3.05 15.65 L3.2 25.4 Q10.55 27.25 18.0 23.0 15.95 29.5 9.9 33.05 3.35 36.8 -3.8 34.85 -11.0 32.9 -14.75 26.45 -18.5 19.95 -16.55 12.75 -15.45 8.45 -12.65 5.4 -14.95 3.5 -16.55 0.7 L-17.35 -0.8 Q-8.85 3.2 -0.9 -1.75 L-0.3 -13.3 Q-8.95 -10.35 -17.05 -15.65 M11.8 3.05 Q9.85 5.35 7.0 7.0 0.85 10.55 -6.05 8.7 -9.85 7.7 -12.65 5.4 -9.85 7.7 -6.05 8.7 0.85 10.55 7.0 7.0 9.85 5.35 11.8 3.05" fill="#7a5978" fill-rule="evenodd" stroke="none"/>
      <path d="M16.75 8.9 Q20.15 15.15 18.3 22.1 L18.0 23.0 Q10.55 27.25 3.2 25.4 L3.05 15.65 Q12.25 15.4 16.75 8.9 M-17.35 -0.8 Q-19.9 -6.35 -18.25 -12.4 L-17.05 -15.65 Q-8.95 -10.35 -0.3 -13.3 L-0.9 -1.75 Q-8.85 3.2 -17.35 -0.8" fill="#ffffff" fill-rule="evenodd" stroke="none"/>
      <path d="M2.5 -24.8 L2.3 -24.45 M-17.05 -15.65 Q-14.85 -20.2 -10.2 -22.9 L-7.7 -24.15 -9.65 -28.5 Q-1.35 -30.65 4.45 -28.35 L2.5 -24.8 2.95 -24.65 Q9.8 -22.85 13.35 -16.6 16.95 -10.4 15.1 -3.45 14.1 0.25 11.8 3.05 14.55 5.15 16.5 8.4 L16.75 8.9 Q20.15 15.15 18.3 22.1 L18.0 23.0 Q15.95 29.5 9.9 33.05 3.35 36.8 -3.8 34.85 -11.0 32.9 -14.75 26.45 -18.5 19.95 -16.55 12.75 -15.45 8.45 -12.65 5.4 -14.95 3.5 -16.55 0.7 L-17.35 -0.8 Q-19.9 -6.35 -18.25 -12.4 L-17.05 -15.65 M-12.65 5.4 Q-9.85 7.7 -6.05 8.7 0.85 10.55 7.0 7.0 9.85 5.35 11.8 3.05" fill="none" stroke="#000000" stroke-linecap="round" stroke-linejoin="round" stroke-width="3.0"/>
      <path d="M-17.05 -15.65 Q-8.95 -10.35 -0.3 -13.3 L-0.9 -1.75 Q-8.85 3.2 -17.35 -0.8 M18.0 23.0 Q10.55 27.25 3.2 25.4 L3.05 15.65 Q12.25 15.4 16.75 8.9" fill="none" stroke="#000000" stroke-linecap="round" stroke-linejoin="round" stroke-width="2.0"/>
    </g>
  </defs>
</svg>
