<?xml version="1.0" encoding="UTF-8" standalone="no"?>
<svg xmlns:xlink="http://www.w3.org/1999/xlink" height="720.75px" width="1716.8px" xmlns="http://www.w3.org/2000/svg">
  <g transform="matrix(1, 0, 0, 1, 307.05, 450.35)">
    <use height="126.65" transform="matrix(1.0, 0.0, 0.0, 1.0, -92.75, -63.35)" width="184.35" xlink:href="#sprite0"/>
    <use height="9.6" transform="matrix(1.0, 0.0, 0.0, 1.0, 38.35, 2.2)" width="21.6" xlink:href="#shape2"/>
    <use height="24.0" transform="matrix(1.0, 0.0, 0.0, 1.0, -2.1, -22.7)" width="94.85" xlink:href="#shape3"/>
  </g>
  <defs>
    <g id="sprite0" transform="matrix(1, 0, 0, 1, 92.75, 63.35)">
      <use height="100.5" transform="matrix(1.0, 0.0, 0.0, 1.0, -89.0, -51.7)" width="176.1" xlink:href="#shape0"/>
      <use height="126.65" transform="matrix(1.0, 0.0, 0.0, 1.0, -92.75, -63.35)" width="184.35" xlink:href="#shape1"/>
    </g>
    <g id="shape0" transform="matrix(1, 0, 0, 1, 89.0, 51.7)">
      <path d="M53.25 -51.2 Q53.4 -51.5 53.7 -51.6 L54.3 -51.65 54.85 -51.4 73.05 -32.0 Q87.2 -15.65 87.1 -8.7 87.25 0.4 72.05 8.05 L72.15 8.0 62.15 14.2 62.1 14.2 62.05 14.25 61.9 14.35 61.85 14.35 61.65 14.45 61.6 14.5 Q52.55 19.65 51.65 20.55 L47.8 23.3 47.1 23.45 46.5 23.1 Q45.45 21.9 41.6 19.35 L41.6 19.4 Q37.6 16.85 23.75 16.05 10.3 15.2 9.45 15.95 9.0 16.6 9.15 17.7 31.0 16.65 38.95 22.0 43.5 25.0 44.6 27.1 45.4 28.5 44.9 29.6 44.55 30.7 43.05 31.4 38.5 33.6 28.85 32.65 L8.7 30.7 -10.2 29.45 Q-18.15 29.3 -27.35 34.2 -32.05 36.65 -35.0 39.75 L-35.5 40.05 -36.1 40.0 -36.55 39.6 -36.75 39.05 -36.75 33.3 -36.75 33.2 Q-34.8 18.25 -28.15 2.75 -21.6 -12.6 -11.35 -22.0 -13.1 -41.85 -12.75 -48.0 L-12.45 -48.65 -11.75 -48.95 -11.1 -48.7 0.55 -39.1 Q11.15 -30.8 15.1 -30.7 30.35 -30.7 39.85 -33.1 L52.1 -36.2 Q53.85 -36.7 53.95 -37.5 L53.1 -50.6 53.25 -51.2 M76.1 9.6 Q76.45 9.6 76.7 9.85 L76.85 10.0 Q79.25 12.65 79.1 13.7 79.2 14.35 77.5 16.95 75.55 19.8 73.05 22.3 65.25 29.8 55.45 29.8 L50.55 29.3 Q50.15 29.15 50.0 28.8 49.8 28.4 49.95 28.05 L50.1 27.15 50.1 26.95 50.35 26.3 Q51.45 25.0 75.5 9.75 L76.1 9.6 M-74.5 35.3 Q-60.75 32.8 -58.25 32.8 -50.7 32.8 -45.4 37.1 -40.9 40.7 -41.0 43.8 -40.95 45.7 -42.95 48.4 L-43.4 48.75 -44.0 48.8 -44.5 48.5 Q-51.85 40.3 -66.7 41.35 L-84.45 41.95 Q-89.0 40.95 -89.0 36.45 -89.0 34.0 -87.55 33.65 L-87.3 33.55 -85.75 33.35 -85.2 33.35 Q-85.0 33.4 -84.8 33.6 L-80.55 34.55 -74.5 35.3" fill="#ffffff" fill-rule="evenodd" stroke="none"/>
    </g>
    <g id="shape1" transform="matrix(1, 0, 0, 1, 92.75, 63.35)">
      <path d="M15.1 -29.7 Q10.95 -29.7 -0.1 -38.35 L-11.75 -47.95 Q-12.1 -41.8 -10.3 -21.6 -20.65 -12.25 -27.2 3.15 -33.8 18.5 -35.75 33.3 L-35.75 39.05 Q-32.7 35.85 -27.85 33.3 -18.35 28.3 -10.15 28.45 L8.8 29.7 28.95 31.65 Q38.25 32.55 42.6 30.5 46.95 28.45 38.4 22.8 30.45 17.55 8.35 18.75 7.7 16.55 8.65 15.35 9.55 14.15 23.8 15.05 38.05 15.9 42.15 18.55 46.2 21.2 47.25 22.45 49.95 20.75 50.95 19.85 51.85 18.9 61.15 13.6 L61.4 13.45 61.6 13.35 61.65 13.3 Q64.6 11.75 71.6 7.15 86.1 -0.15 86.1 -8.7 86.1 -15.4 72.3 -31.35 L54.1 -50.7 54.95 -37.55 Q55.05 -35.95 52.35 -35.25 L40.1 -32.1 Q30.5 -29.7 15.1 -29.7 M31.1 -36.15 Q46.95 -37.6 50.1 -39.95 48.4 -51.5 49.1 -63.35 54.6 -59.55 67.6 -43.8 L86.3 -20.55 Q92.0 -13.1 91.55 -7.8 91.1 -2.5 80.95 6.55 82.1 7.45 82.65 9.15 83.3 11.15 83.1 13.3 83.1 19.05 75.85 26.0 67.2 34.3 55.6 34.3 49.85 34.3 47.2 32.75 46.0 33.65 41.75 35.2 37.5 36.75 27.95 36.45 L-4.0 33.8 Q-19.75 33.8 -29.4 40.95 -32.15 42.95 -35.05 46.2 L-37.7 48.9 Q-44.45 63.3 -45.5 63.3 L-46.2 63.25 Q-46.25 62.15 -47.4 55.65 -48.6 49.15 -54.95 46.95 -61.4 44.7 -71.4 45.55 -81.45 46.35 -86.9 44.45 -92.4 42.55 -92.7 38.25 -93.0 33.9 -92.0 32.15 -91.05 30.4 -88.9 30.05 L-81.95 30.5 -75.15 31.05 Q-57.0 28.3 -54.5 28.3 -48.15 28.3 -41.45 34.45 L-41.2 29.25 Q-40.75 20.65 -32.7 1.5 -24.65 -17.7 -18.3 -23.1 -17.75 -25.4 -17.75 -27.7 -17.75 -35.9 -16.0 -59.05 -5.55 -51.5 2.2 -43.35 9.9 -35.2 15.6 -35.2 L31.1 -36.15 M76.65 16.4 L78.1 13.7 Q78.1 12.9 76.1 10.65 L76.05 10.6 Q52.2 25.7 51.1 26.95 L51.1 27.15 50.9 28.35 55.45 28.8 Q64.85 28.8 72.35 21.55 74.8 19.15 76.65 16.4 M-80.75 35.5 Q-85.1 34.7 -85.5 34.3 L-87.2 34.55 Q-88.0 34.85 -88.0 36.45 -88.0 40.15 -84.25 40.95 L-66.8 40.35 Q-51.35 39.25 -43.75 47.8 -42.0 45.45 -42.0 43.8 -42.0 41.1 -46.05 37.85 -51.05 33.8 -58.25 33.8 -60.75 33.8 -74.5 36.3 L-80.75 35.5" fill="#000000" fill-rule="evenodd" stroke="none"/>
    </g>
    <g id="shape2" transform="matrix(1, 0, 0, 1, -38.35, -2.2)">
      <path d="M59.7 2.55 L59.95 4.4 Q59.95 6.6 58.35 8.6 56.45 11.0 53.55 11.0 49.7 11.0 47.9 10.3 45.85 11.8 43.95 11.8 41.5 11.8 39.8 9.55 38.45 7.75 38.35 6.2 L38.75 5.8 Q39.15 5.4 40.35 5.4 41.35 5.4 41.85 6.2 42.35 7.0 43.35 7.0 45.35 7.0 46.65 6.1 46.9 5.4 47.55 5.3 48.4 4.6 48.75 4.6 50.0 4.6 50.55 5.2 L51.1 6.05 53.45 6.6 Q54.75 6.6 56.1 4.4 57.5 2.2 57.95 2.2 59.4 2.2 59.7 2.55" fill="#000000" fill-rule="evenodd" stroke="none"/>
    </g>
    <g id="shape3" transform="matrix(1, 0, 0, 1, 2.1, 35.7)">
      <path d="M66.45 -35.55 L69.9 -35.65 78.4 -35.25 91.6 -34.25 92.55 -34.15 Q92.9 -32.9 92.6 -31.45 92.05 -29.15 89.65 -28.9 85.4 -28.5 81.0 -28.7 L80.55 -23.9 80.25 -22.25 Q79.5 -20.05 77.25 -19.8 L72.45 -20.2 Q71.55 -20.45 71.15 -21.3 L70.75 -22.4 70.65 -24.3 Q70.65 -26.85 71.7 -29.05 L69.95 -29.2 Q68.6 -29.2 67.3 -29.8 L66.4 -30.55 64.85 -31.75 Q64.7 -32.5 64.7 -33.45 64.7 -35.3 66.45 -35.55 M13.3 -20.8 Q8.95 -18.8 4.6 -17.1 1.1 -15.85 -2.05 -17.95 L-2.1 -19.5 Q6.4 -24.15 15.5 -27.45 L20.3 -29.55 Q25.1 -31.9 30.2 -31.2 L30.6 -28.8 22.8 -25.0 Q24.1 -24.55 24.7 -23.35 26.45 -19.7 25.25 -15.75 24.75 -14.15 23.4 -13.2 19.5 -10.65 14.75 -12.4 14.05 -12.7 13.7 -13.25 11.55 -16.7 13.3 -20.8" fill="#000000" fill-rule="evenodd" stroke="none"/>
    </g>
  </defs>
</svg>
