<?xml version="1.0" encoding="UTF-8" standalone="no"?>
<svg xmlns:xlink="http://www.w3.org/1999/xlink" height="720.75px" width="1716.8px" xmlns="http://www.w3.org/2000/svg">
  <g transform="matrix(1, 0, 0, 1, 307.05, 450.35)">
    <use height="74.55" transform="matrix(1.0, 0.0, 0.0, 1.0, -22.5, -37.05)" width="45.0" xlink:href="#shape0"/>
  </g>
  <defs>
    <g id="shape0" transform="matrix(1, 0, 0, 1, 22.5, 37.05)">
      <path d="M8.5 -21.5 L3.55 -21.5 8.5 -21.5 15.0 -21.5 20.5 35.5 -20.5 35.5 -15.0 -21.5 -8.5 -21.5 -8.5 -32.75 Q-1.3 -38.3 8.5 -32.75 L8.5 -21.5 M-3.55 -21.5 L-8.5 -21.5 -3.55 -21.5 3.55 -21.5 3.55 -27.75 Q0.5 -31.75 -3.55 -27.75 L-3.55 -21.5" fill="#aaaaaa" fill-rule="evenodd" stroke="none"/>
      <path d="M3.55 -21.5 L8.5 -21.5 M-8.5 -21.5 L-3.55 -21.5 M3.55 -21.5 L-3.55 -21.5 M-8.5 -21.5 L-15.0 -21.5 -20.5 35.5 20.5 35.5 15.0 -21.5 8.5 -21.5" fill="none" stroke="#000000" stroke-linecap="round" stroke-linejoin="round" stroke-width="4.0"/>
      <path d="M8.5 -21.5 L8.5 -32.75 Q-1.3 -38.3 -8.5 -32.75 L-8.5 -21.5 M-3.55 -21.5 L-3.55 -27.75 Q0.5 -31.75 3.55 -27.75 L3.55 -21.5" fill="none" stroke="#000000" stroke-linecap="round" stroke-linejoin="round" stroke-width="3.0"/>
    </g>
  </defs>
</svg>
