<?xml version="1.0" encoding="UTF-8" standalone="no"?>
<svg xmlns:xlink="http://www.w3.org/1999/xlink" height="720.75px" width="1716.8px" xmlns="http://www.w3.org/2000/svg">
  <g transform="matrix(1, 0, 0, 1, 307.05, 450.35)">
    <use height="57.4" transform="matrix(1.0, 0.0, 0.0, 1.0, -130.55, -27.75)" width="261.15" xlink:href="#sprite0"/>
  </g>
  <defs>
    <g id="sprite0" transform="matrix(1, 0, 0, 1, 130.55, 28.7)">
      <use height="57.05" transform="matrix(1.0, 0.0, 0.0, 1.0, -130.55, -28.5)" width="261.15" xlink:href="#shape0"/>
    </g>
    <g id="shape0" transform="matrix(1, 0, 0, 1, 130.55, 28.5)">
      <path d="M98.95 0.1 Q103.5 4.65 103.5 11.05 103.5 17.45 98.95 22.0 94.4 26.55 88.0 26.55 81.6 26.55 77.05 22.0 72.5 17.45 72.5 11.05 72.5 4.65 77.05 0.1 81.6 -4.45 88.0 -4.45 94.4 -4.45 98.95 0.1 M93.65 5.4 Q91.3 3.05 88.05 3.1 84.75 3.05 82.4 5.4 80.05 7.75 80.05 11.05 80.05 14.35 82.4 16.7 84.75 19.0 88.05 19.05 91.3 19.0 93.65 16.7 96.0 14.35 96.0 11.05 96.0 7.75 93.65 5.4" fill="#4d4d4d" fill-rule="evenodd" stroke="none"/>
      <path d="M93.65 5.4 Q96.0 7.75 96.0 11.05 96.0 14.35 93.65 16.7 91.3 19.0 88.05 19.05 84.75 19.0 82.4 16.7 80.05 14.35 80.05 11.05 80.05 7.75 82.4 5.4 84.75 3.05 88.05 3.1 91.3 3.05 93.65 5.4" fill="#7b7b7b" fill-rule="evenodd" stroke="none"/>
      <path d="M98.95 0.1 Q103.5 4.65 103.5 11.05 103.5 17.45 98.95 22.0 94.4 26.55 88.0 26.55 81.6 26.55 77.05 22.0 72.5 17.45 72.5 11.05 72.5 4.65 77.05 0.1 81.6 -4.45 88.0 -4.45 94.4 -4.45 98.95 0.1 M93.65 5.4 Q96.0 7.75 96.0 11.05 96.0 14.35 93.65 16.7 91.3 19.0 88.05 19.05 84.75 19.0 82.4 16.7 80.05 14.35 80.05 11.05 80.05 7.75 82.4 5.4 84.75 3.05 88.05 3.1 91.3 3.05 93.65 5.4" fill="none" stroke="#000000" stroke-linecap="round" stroke-linejoin="round" stroke-width="4.0"/>
      <path d="M-81.35 5.4 Q-83.7 3.05 -86.95 3.1 -90.25 3.05 -92.6 5.4 -94.95 7.75 -94.95 11.05 -94.95 14.35 -92.6 16.7 -90.25 19.0 -86.95 19.05 -83.7 19.0 -81.35 16.7 -79.0 14.35 -79.0 11.05 -79.0 7.75 -81.35 5.4 M-76.05 0.1 Q-71.5 4.65 -71.5 11.05 -71.5 17.45 -76.05 22.0 -80.6 26.55 -87.0 26.55 -93.4 26.55 -97.95 22.0 -102.5 17.45 -102.5 11.05 -102.5 4.65 -97.95 0.1 -93.4 -4.45 -87.0 -4.45 -80.6 -4.45 -76.05 0.1" fill="#4d4d4d" fill-rule="evenodd" stroke="none"/>
      <path d="M-81.35 5.4 Q-79.0 7.75 -79.0 11.05 -79.0 14.35 -81.35 16.7 -83.7 19.0 -86.95 19.05 -90.25 19.0 -92.6 16.7 -94.95 14.35 -94.95 11.05 -94.95 7.75 -92.6 5.4 -90.25 3.05 -86.95 3.1 -83.7 3.05 -81.35 5.4" fill="#7b7b7b" fill-rule="evenodd" stroke="none"/>
      <path d="M-81.35 5.4 Q-79.0 7.75 -79.0 11.05 -79.0 14.35 -81.35 16.7 -83.7 19.0 -86.95 19.05 -90.25 19.0 -92.6 16.7 -94.95 14.35 -94.95 11.05 -94.95 7.75 -92.6 5.4 -90.25 3.05 -86.95 3.1 -83.7 3.05 -81.35 5.4 M-76.05 0.1 Q-71.5 4.65 -71.5 11.05 -71.5 17.45 -76.05 22.0 -80.6 26.55 -87.0 26.55 -93.4 26.55 -97.95 22.0 -102.5 17.45 -102.5 11.05 -102.5 4.65 -97.95 0.1 -93.4 -4.45 -87.0 -4.45 -80.6 -4.45 -76.05 0.1" fill="none" stroke="#000000" stroke-linecap="round" stroke-linejoin="round" stroke-width="4.0"/>
      <path d="M123.55 -26.5 Q125.6 -26.5 127.1 -25.0 128.55 -23.55 128.55 -21.5 L128.55 -16.5 Q129.75 -2.8 85.7 3.6 L85.65 3.6 Q50.6 8.65 0.05 8.65 -50.6 8.65 -85.55 3.6 -129.65 -2.8 -128.45 -16.5 L-128.45 -21.5 Q-128.45 -23.55 -126.95 -25.0 -125.5 -26.5 -123.45 -26.5 -121.4 -26.5 -119.9 -25.0 -118.45 -23.55 -118.45 -21.5 -117.45 -16.15 -84.1 -11.3 -49.7 -6.35 0.05 -6.35 49.75 -6.35 84.25 -11.3 117.55 -16.15 118.55 -21.5 118.55 -23.55 120.05 -25.0 121.5 -26.5 123.55 -26.5" fill="#4d4d4d" fill-rule="evenodd" stroke="none"/>
      <path d="M123.55 -26.5 Q121.5 -26.5 120.05 -25.0 118.55 -23.55 118.55 -21.5 117.55 -16.15 84.25 -11.3 49.75 -6.35 0.05 -6.35 -49.7 -6.35 -84.1 -11.3 -117.45 -16.15 -118.45 -21.5 -118.45 -23.55 -119.9 -25.0 -121.4 -26.5 -123.45 -26.5 -125.5 -26.5 -126.95 -25.0 -128.45 -23.55 -128.45 -21.5 L-128.45 -16.5 Q-129.65 -2.8 -85.55 3.6 -50.6 8.65 0.05 8.65 50.6 8.65 85.65 3.6 L85.7 3.6 Q129.75 -2.8 128.55 -16.5 L128.55 -21.5 Q128.55 -23.55 127.1 -25.0 125.6 -26.5 123.55 -26.5" fill="none" stroke="#000000" stroke-linecap="round" stroke-linejoin="round" stroke-width="4.0"/>
    </g>
  </defs>
</svg>
