<?xml version="1.0" encoding="UTF-8" standalone="no"?>
<svg xmlns:xlink="http://www.w3.org/1999/xlink" height="720.75px" width="1716.8px" xmlns="http://www.w3.org/2000/svg">
  <g transform="matrix(1, 0, 0, 1, 307.05, 450.35)">
    <use height="311.35" transform="matrix(1.0, 0.0, 0.0, 1.0, -142.6, -214.3)" width="329.6" xlink:href="#shape0"/>
  </g>
  <defs>
    <g id="shape0" transform="matrix(1, 0, 0, 1, 142.6, 214.3)">
      <path d="M182.15 88.9 L187.0 89.55 187.0 93.8 171.15 93.65 Q121.1 93.15 114.55 94.75 105.25 97.05 38.9 97.05 L-133.1 96.05 Q-135.6 96.05 -135.6 93.3 -135.6 91.7 -135.15 91.45 L-134.5 91.3 Q-136.1 84.95 -137.05 76.25 -138.85 59.75 -139.6 55.8 -141.15 47.55 -140.55 31.7 L-139.6 15.65 Q-139.6 11.55 -140.65 4.0 L-142.15 -8.1 Q-142.8 -16.5 -140.85 -21.25 L-141.6 -21.45 -142.4 -21.9 Q-142.6 -22.15 -142.6 -23.7 -142.6 -25.55 -139.2 -31.1 L-136.55 -35.25 Q-131.15 -43.45 -126.7 -47.55 -125.6 -57.35 -125.6 -62.1 L-125.6 -97.95 Q-126.6 -99.1 -126.6 -101.2 L-126.35 -102.3 Q-124.45 -104.2 -120.15 -107.25 L-113.7 -111.35 -104.6 -115.5 -99.6 -117.65 -96.6 -118.95 -94.3 -118.5 -78.6 -119.35 Q-78.8 -123.7 -78.6 -126.2 L-84.2 -126.5 -96.35 -127.45 -96.6 -137.6 -97.3 -140.5 Q-97.7 -142.6 -96.65 -143.95 -93.4 -147.95 -75.1 -147.95 L-63.95 -147.6 -54.1 -146.7 -53.6 -145.2 -53.6 -136.95 Q-51.95 -133.5 -53.55 -130.95 -56.55 -125.95 -72.6 -125.95 L-73.5 -125.95 Q-73.3 -123.35 -73.55 -119.4 L-72.1 -119.45 -44.1 -119.95 Q-20.0 -119.95 -12.2 -121.5 -13.6 -120.2 -13.6 -118.0 -11.4 -108.85 -11.5 -94.05 L-11.55 -73.35 -10.75 -73.5 -5.6 -73.95 2.85 -73.4 10.9 -72.45 11.15 -72.2 11.4 -70.8 Q13.0 -68.6 13.45 -62.1 L13.6 -56.2 15.45 -56.45 Q21.5 -56.95 68.9 -56.95 L170.4 -54.6 176.65 -54.45 177.45 -54.4 178.95 -54.35 179.0 -54.35 184.0 -54.1 184.0 -48.95 183.9 -48.95 180.4 -49.2 175.95 -49.55 170.4 -49.9 121.4 -51.45 29.65 -51.6 13.65 -52.2 Q13.5 -51.55 13.45 -52.4 L13.4 -51.95 Q13.4 -50.7 13.95 -44.15 14.35 -37.5 13.4 -33.95 13.15 -32.95 8.15 -31.0 2.25 -28.75 -10.25 -25.1 L156.9 -25.45 170.9 -25.95 171.15 -25.95 177.1 -25.7 180.4 -25.55 183.1 -25.4 184.0 -25.35 184.0 -19.9 183.7 -19.9 181.35 -19.9 178.6 -19.9 176.35 -19.9 28.7 -19.95 27.8 -19.95 28.9 -19.95 Q-113.2 -20.2 -136.0 -20.9 -134.35 -11.8 -134.3 1.05 L-134.6 29.3 Q-134.4 37.25 -132.45 56.65 -130.6 74.9 -130.6 84.4 L-130.65 91.3 Q-31.05 91.05 -29.1 91.3 103.9 91.3 106.9 91.05 L114.05 89.5 150.4 88.05 150.75 88.05 151.1 88.05 153.2 88.05 154.05 88.05 154.35 88.05 154.8 88.05 177.55 88.6 182.15 88.9 M7.9 -66.2 L-1.65 -63.45 Q-6.45 -61.95 -10.1 -61.95 -15.55 -61.95 -16.55 -73.7 L-16.6 -90.95 Q-17.45 -101.3 -17.55 -106.95 L-17.5 -109.9 -21.05 -106.15 Q-29.05 -98.2 -34.7 -97.95 L-34.6 -96.95 -34.6 -81.95 -35.7 -31.05 -35.85 -25.7 -37.6 -25.05 -24.55 -25.1 Q-23.9 -27.65 -15.15 -30.2 L-12.3 -31.0 Q-1.5 -34.25 2.4 -36.45 7.1 -39.05 8.1 -43.65 8.4 -44.95 8.4 -51.7 8.4 -61.45 7.9 -66.2 M-99.6 -214.1 L-99.6 -214.3 -99.55 -214.3 -99.6 -214.1 M-58.6 -142.7 L-91.6 -142.7 -91.6 -142.45 Q-90.15 -142.45 -90.65 -138.15 L-91.35 -130.7 -76.75 -130.8 -76.1 -130.95 -75.4 -130.8 -58.6 -130.95 -58.6 -142.7 M-78.4 -114.45 L-94.2 -114.4 Q-95.55 -112.1 -99.6 -109.5 -102.15 -107.9 -105.8 -106.15 L-113.85 -102.45 -115.9 -101.55 -116.55 -101.2 -103.15 -101.6 -80.6 -101.95 Q-47.0 -101.55 -39.2 -101.0 -37.7 -101.75 -30.8 -103.7 -21.75 -107.6 -20.6 -114.7 L-73.6 -114.45 -73.85 -107.95 Q-75.1 -107.2 -76.1 -106.95 -77.95 -108.6 -78.4 -114.45 M-130.85 -31.1 Q-133.55 -27.15 -135.45 -24.75 L-124.6 -24.8 Q-126.3 -27.35 -127.0 -31.1 -127.45 -33.35 -127.55 -36.1 L-130.85 -31.1 M-120.85 -24.85 L-38.15 -25.05 -39.75 -31.05 Q-41.65 -40.25 -41.15 -53.2 -39.6 -72.75 -39.6 -81.7 -39.3 -86.7 -39.3 -90.15 -39.3 -96.7 -40.85 -96.7 L-120.6 -96.45 -120.8 -31.1 -120.85 -24.85 M-11.6 -67.2 L-7.6 -68.15 -11.6 -68.45 -11.6 -67.2" fill="#000000" fill-rule="evenodd" stroke="none"/>
      <path d="M-78.4 -114.45 Q-77.95 -108.6 -76.1 -106.95 -75.1 -107.2 -73.85 -107.95 L-73.6 -114.45 -20.6 -114.7 Q-21.75 -107.6 -30.8 -103.7 -37.7 -101.75 -39.2 -101.0 -47.0 -101.55 -80.6 -101.95 L-103.15 -101.6 -116.55 -101.2 -115.9 -101.55 -113.85 -102.45 -105.8 -106.15 Q-102.15 -107.9 -99.6 -109.5 -95.55 -112.1 -94.2 -114.4 L-78.4 -114.45 M-58.6 -142.7 L-58.6 -130.95 -75.4 -130.8 -76.1 -130.95 -76.75 -130.8 -91.35 -130.7 -90.65 -138.15 Q-90.15 -142.45 -91.6 -142.45 L-91.6 -142.7 -58.6 -142.7" fill="#eeeeee" fill-rule="evenodd" stroke="none"/>
      <path d="M7.9 -66.2 Q8.4 -61.45 8.4 -51.7 8.4 -44.95 8.1 -43.65 7.1 -39.05 2.4 -36.45 -1.5 -34.25 -12.3 -31.0 L-15.15 -30.2 Q-23.9 -27.65 -24.55 -25.1 L-37.6 -25.05 -35.85 -25.7 -35.7 -31.05 -34.6 -81.95 -34.6 -96.95 -34.7 -97.95 Q-29.05 -98.2 -21.05 -106.15 L-17.5 -109.9 -17.55 -106.95 Q-17.45 -101.3 -16.6 -90.95 L-16.55 -73.7 Q-15.55 -61.95 -10.1 -61.95 -6.45 -61.95 -1.65 -63.45 L7.9 -66.2" fill="#eaeaea" fill-rule="evenodd" stroke="none"/>
      <path d="M-130.85 -31.1 L-127.55 -36.1 Q-127.45 -33.35 -127.0 -31.1 -126.3 -27.35 -124.6 -24.8 L-135.45 -24.75 Q-133.55 -27.15 -130.85 -31.1" fill="#ffbbbb" fill-rule="evenodd" stroke="none"/>
      <path d="M-11.6 -67.2 L-11.6 -68.45 -7.6 -68.15 -11.6 -67.2 M-120.85 -24.85 L-120.8 -31.1 -120.6 -96.45 -40.85 -96.7 Q-39.3 -96.7 -39.3 -90.15 -39.3 -86.7 -39.6 -81.7 -39.6 -72.75 -41.15 -53.2 -41.65 -40.25 -39.75 -31.05 L-38.15 -25.05 -120.85 -24.85" fill="#e1e1e1" fill-rule="evenodd" stroke="none"/>
      <path d="M180.4 -49.2 L180.4 -25.55 177.1 -25.7 171.15 -25.95 170.9 -25.95 156.9 -25.45 -10.25 -25.1 Q2.25 -28.75 8.15 -31.0 13.15 -32.95 13.4 -33.95 14.35 -37.5 13.95 -44.15 13.4 -50.7 13.4 -51.95 L13.45 -52.4 Q13.5 -51.55 13.65 -52.2 L29.65 -51.6 121.4 -51.45 170.4 -49.9 175.95 -49.55 180.4 -49.2" fill="#ffc4c4" fill-rule="evenodd" stroke="none"/>
      <path d="M181.35 -19.9 Q182.95 -8.8 182.4 32.8 L182.15 88.9 177.55 88.6 154.8 88.05 154.35 88.05 154.05 88.05 153.2 88.05 151.1 88.05 150.75 88.05 150.4 88.05 114.05 89.5 106.9 91.05 Q103.9 91.3 -29.1 91.3 -31.05 91.05 -130.65 91.3 L-130.6 84.4 Q-130.6 74.9 -132.45 56.65 -134.4 37.25 -134.6 29.3 L-134.3 1.05 Q-134.35 -11.8 -136.0 -20.9 -113.2 -20.2 28.9 -19.95 L27.8 -19.95 28.7 -19.95 176.35 -19.9 178.6 -19.9 181.35 -19.9" fill="#ffdddd" fill-rule="evenodd" stroke="none"/>
    </g>
  </defs>
</svg>
