<?xml version="1.0" encoding="UTF-8" standalone="no"?>
<svg xmlns:xlink="http://www.w3.org/1999/xlink" height="720.75px" width="1716.8px" xmlns="http://www.w3.org/2000/svg">
  <g transform="matrix(1, 0, 0, 1, 307.05, 450.35)">
    <use height="149.8" transform="matrix(1.0, 0.0, 0.0, 1.0, -101.85, -74.9)" width="203.75" xlink:href="#shape0"/>
  </g>
  <defs>
    <g id="shape0" transform="matrix(1, 0, 0, 1, 101.85, 74.9)">
      <path d="M80.45 -43.8 L76.45 -43.8 76.45 -65.4 -77.95 -65.4 -77.95 -43.8 -81.95 -43.8 -81.95 -73.4 80.45 -73.4 80.45 -43.8" fill="#aaaaaa" fill-rule="evenodd" stroke="none"/>
      <path d="M18.25 -2.6 L18.85 -7.4 1.65 -7.4 -19.15 -7.4 -13.95 22.6 15.25 22.6 18.25 -2.6 M97.2 -14.6 L26.0 -14.6 24.45 -14.6 26.0 -14.6 97.2 -14.6 100.4 -14.6 100.4 73.4 26.0 73.4 -27.6 73.4 -100.35 73.4 -100.35 -14.6 -97.15 -14.6 -95.15 -43.8 -81.95 -43.8 -77.95 -43.8 76.45 -43.8 80.45 -43.8 95.2 -43.8 97.2 -14.6 M-23.95 -14.6 L-27.6 -14.6 -97.15 -14.6 -27.6 -14.6 -23.95 -14.6 24.45 -14.6 24.45 -24.2 -23.95 -24.2 -23.95 -14.6 M60.05 -31.0 L60.05 -38.6 -66.75 -38.6 -66.75 -31.0 60.05 -31.0 M78.45 -25.2 Q78.45 -23.65 79.55 -22.5 80.7 -21.4 82.25 -21.4 83.8 -21.4 84.95 -22.5 86.05 -23.65 86.05 -25.2 86.05 -26.75 84.95 -27.85 83.8 -29.0 82.25 -29.0 80.7 -29.0 79.55 -27.85 78.45 -26.75 78.45 -25.2 M42.05 -19.8 L64.85 -19.8 64.85 -26.2 42.05 -26.2 42.05 -19.8 M93.05 -7.05 Q91.05 -9.05 88.15 -9.05 85.3 -9.05 83.25 -7.05 81.25 -5.0 81.25 -2.1 81.25 0.75 83.25 2.75 85.3 4.8 88.15 4.8 91.05 4.8 93.05 2.75 95.1 0.75 95.1 -2.1 95.1 -5.0 93.05 -7.05 M-91.15 -32.9 Q-91.15 -30.7 -89.6 -29.15 -88.05 -27.6 -85.85 -27.6 -83.65 -27.6 -82.05 -29.15 -80.5 -30.7 -80.5 -32.9 -80.5 -35.1 -82.05 -36.65 -83.65 -38.25 -85.85 -38.25 -88.05 -38.25 -89.6 -36.65 -91.15 -35.1 -91.15 -32.9 M-93.95 -7.05 Q-95.95 -5.0 -95.95 -2.1 -95.95 0.75 -93.95 2.75 -91.9 4.8 -89.05 4.8 -86.15 4.8 -84.15 2.75 -82.1 0.75 -82.1 -2.1 -82.1 -5.0 -84.15 -7.05 -86.15 -9.05 -89.05 -9.05 -91.9 -9.05 -93.95 -7.05 M-61.75 -25.4 L-66.75 -25.4 -66.75 -20.4 -61.75 -20.4 -61.75 -25.4 M-54.75 -25.8 L-54.75 -20.2 -32.35 -20.2 -32.35 -25.8 -54.75 -25.8 M-43.2 14.2 Q-52.05 5.35 -64.55 5.35 -77.1 5.35 -85.9 14.2 -94.75 23.05 -94.75 35.55 -94.75 48.1 -85.9 56.95 -77.1 65.75 -64.55 65.75 -52.05 65.75 -43.2 56.95 -34.35 48.1 -34.35 35.55 -34.35 23.05 -43.2 14.2 M-27.6 68.2 L-27.6 73.4 -27.6 68.2 -27.6 57.0 -35.55 57.0 -35.55 68.2 -27.6 68.2 M-27.6 -14.6 L-27.6 57.0 -27.6 -14.6 M-21.55 45.4 L-21.55 63.4 21.25 63.4 21.25 45.4 -21.55 45.4 M95.25 35.55 Q95.25 23.05 86.4 14.2 77.55 5.35 65.05 5.35 52.5 5.35 43.7 14.2 34.85 23.05 34.85 35.55 34.85 48.1 43.7 56.95 52.5 65.75 65.05 65.75 77.55 65.75 86.4 56.95 95.25 48.1 95.25 35.55 M26.0 69.0 L31.65 69.0 31.65 56.2 26.0 56.2 26.0 69.0 26.0 73.4 26.0 69.0 M26.0 56.2 L26.0 -14.6 26.0 56.2" fill="#444444" fill-rule="evenodd" stroke="none"/>
      <path d="M78.45 -25.2 Q78.45 -26.75 79.55 -27.85 80.7 -29.0 82.25 -29.0 83.8 -29.0 84.95 -27.85 86.05 -26.75 86.05 -25.2 86.05 -23.65 84.95 -22.5 83.8 -21.4 82.25 -21.4 80.7 -21.4 79.55 -22.5 78.45 -23.65 78.45 -25.2 M-91.15 -32.9 Q-91.15 -35.1 -89.6 -36.65 -88.05 -38.25 -85.85 -38.25 -83.65 -38.25 -82.05 -36.65 -80.5 -35.1 -80.5 -32.9 -80.5 -30.7 -82.05 -29.15 -83.65 -27.6 -85.85 -27.6 -88.05 -27.6 -89.6 -29.15 -91.15 -30.7 -91.15 -32.9" fill="#6a6a6a" fill-rule="evenodd" stroke="none"/>
      <path d="M60.05 -31.0 L-66.75 -31.0 -66.75 -38.6 60.05 -38.6 60.05 -31.0" fill="#373737" fill-rule="evenodd" stroke="none"/>
      <path d="M1.65 -7.4 L3.65 -2.6 18.25 -2.6 15.25 22.6 -13.95 22.6 -19.15 -7.4 1.65 -7.4 M-2.35 13.8 Q-2.35 11.95 -3.65 10.7 -4.9 9.4 -6.75 9.4 -8.6 9.4 -9.85 10.7 -11.15 11.95 -11.15 13.8 -11.15 15.65 -9.85 16.95 -8.6 18.2 -6.75 18.2 -4.9 18.2 -3.65 16.95 -2.35 15.65 -2.35 13.8 L3.25 13.8 Q3.25 15.65 4.55 16.95 5.8 18.2 7.65 18.2 9.5 18.2 10.75 16.95 12.05 15.65 12.05 13.8 12.05 11.95 10.75 10.7 9.5 9.4 7.65 9.4 5.8 9.4 4.55 10.7 3.25 11.95 3.25 13.8 L-2.35 13.8" fill="#333333" fill-rule="evenodd" stroke="none"/>
      <path d="M93.05 -7.05 Q95.1 -5.0 95.1 -2.1 95.1 0.75 93.05 2.75 91.05 4.8 88.15 4.8 85.3 4.8 83.25 2.75 81.25 0.75 81.25 -2.1 81.25 -5.0 83.25 -7.05 85.3 -9.05 88.15 -9.05 91.05 -9.05 93.05 -7.05 M-93.95 -7.05 Q-91.9 -9.05 -89.05 -9.05 -86.15 -9.05 -84.15 -7.05 -82.1 -5.0 -82.1 -2.1 -82.1 0.75 -84.15 2.75 -86.15 4.8 -89.05 4.8 -91.9 4.8 -93.95 2.75 -95.95 0.75 -95.95 -2.1 -95.95 -5.0 -93.95 -7.05 M-2.35 13.8 Q-2.35 15.65 -3.65 16.95 -4.9 18.2 -6.75 18.2 -8.6 18.2 -9.85 16.95 -11.15 15.65 -11.15 13.8 -11.15 11.95 -9.85 10.7 -8.6 9.4 -6.75 9.4 -4.9 9.4 -3.65 10.7 -2.35 11.95 -2.35 13.8 M3.25 13.8 Q3.25 11.95 4.55 10.7 5.8 9.4 7.65 9.4 9.5 9.4 10.75 10.7 12.05 11.95 12.05 13.8 12.05 15.65 10.75 16.95 9.5 18.2 7.65 18.2 5.8 18.2 4.55 16.95 3.25 15.65 3.25 13.8" fill="#1a1a1a" fill-rule="evenodd" stroke="none"/>
      <path d="M1.65 -7.4 L18.85 -7.4 18.25 -2.6 3.65 -2.6 1.65 -7.4 M42.05 -19.8 L42.05 -26.2 64.85 -26.2 64.85 -19.8 42.05 -19.8 M-54.75 -25.8 L-32.35 -25.8 -32.35 -20.2 -54.75 -20.2 -54.75 -25.8 M-61.75 -25.4 L-61.75 -20.4 -66.75 -20.4 -66.75 -25.4 -61.75 -25.4 M4.45 51.8 L4.45 55.4 -5.55 55.4 -5.55 50.2 -5.55 55.4 4.45 55.4 4.45 51.8 M-13.15 49.8 L-13.15 55.4 -16.75 55.4 -13.15 55.4 -13.15 49.8 M-13.15 57.0 L-13.15 55.4 -5.55 55.4 -5.55 58.6 -5.55 55.4 -13.15 55.4 -13.15 57.0 M-27.6 68.2 L-35.55 68.2 -35.55 57.0 -27.6 57.0 -27.6 68.2 M-21.55 45.4 L21.25 45.4 21.25 63.4 -21.55 63.4 -21.55 45.4 M4.45 60.2 L4.45 55.4 10.85 55.4 4.45 55.4 4.45 60.2 M26.0 56.2 L31.65 56.2 31.65 69.0 26.0 69.0 26.0 56.2" fill="#6f6f6f" fill-rule="evenodd" stroke="none"/>
      <path d="M-23.95 -14.6 L-23.95 -24.2 24.45 -24.2 24.45 -14.6 -23.95 -14.6" fill="#2b2b2b" fill-rule="evenodd" stroke="none"/>
      <path d="M95.25 35.55 Q95.25 48.1 86.4 56.95 77.55 65.75 65.05 65.75 52.5 65.75 43.7 56.95 34.85 48.1 34.85 35.55 34.85 23.05 43.7 14.2 52.5 5.35 65.05 5.35 77.55 5.35 86.4 14.2 95.25 23.05 95.25 35.55" fill="url(#gradient0)" fill-rule="evenodd" stroke="none"/>
      <path d="M-43.2 14.2 Q-34.35 23.05 -34.35 35.55 -34.35 48.1 -43.2 56.95 -52.05 65.75 -64.55 65.75 -77.1 65.75 -85.9 56.95 -94.75 48.1 -94.75 35.55 -94.75 23.05 -85.9 14.2 -77.1 5.35 -64.55 5.35 -52.05 5.35 -43.2 14.2" fill="url(#gradient1)" fill-rule="evenodd" stroke="none"/>
      <path d="M18.25 -2.6 L18.85 -7.4 1.65 -7.4 3.65 -2.6 18.25 -2.6 15.25 22.6 -13.95 22.6 -19.15 -7.4 1.65 -7.4 M24.45 -14.6 L26.0 -14.6 97.2 -14.6 95.2 -43.8 80.45 -43.8 76.45 -43.8 -77.95 -43.8 -81.95 -43.8 -95.15 -43.8 -97.15 -14.6 -27.6 -14.6 -23.95 -14.6 -23.95 -24.2 24.45 -24.2 24.45 -14.6 -23.95 -14.6 M60.05 -31.0 L-66.75 -31.0 -66.75 -38.6 60.05 -38.6 60.05 -31.0 M78.45 -25.2 Q78.45 -26.75 79.55 -27.85 80.7 -29.0 82.25 -29.0 83.8 -29.0 84.95 -27.85 86.05 -26.75 86.05 -25.2 86.05 -23.65 84.95 -22.5 83.8 -21.4 82.25 -21.4 80.7 -21.4 79.55 -22.5 78.45 -23.65 78.45 -25.2 M42.05 -19.8 L42.05 -26.2 64.85 -26.2 64.85 -19.8 42.05 -19.8 M-77.95 -43.8 L-77.95 -65.4 76.45 -65.4 76.45 -43.8 M80.45 -43.8 L80.45 -73.4 -81.95 -73.4 -81.95 -43.8 M93.05 -7.05 Q95.1 -5.0 95.1 -2.1 95.1 0.75 93.05 2.75 91.05 4.8 88.15 4.8 85.3 4.8 83.25 2.75 81.25 0.75 81.25 -2.1 81.25 -5.0 83.25 -7.05 85.3 -9.05 88.15 -9.05 91.05 -9.05 93.05 -7.05 M97.2 -14.6 L100.4 -14.6 100.4 73.4 26.0 73.4 -27.6 73.4 -100.35 73.4 -100.35 -14.6 -97.15 -14.6 M-91.15 -32.9 Q-91.15 -35.1 -89.6 -36.65 -88.05 -38.25 -85.85 -38.25 -83.65 -38.25 -82.05 -36.65 -80.5 -35.1 -80.5 -32.9 -80.5 -30.7 -82.05 -29.15 -83.65 -27.6 -85.85 -27.6 -88.05 -27.6 -89.6 -29.15 -91.15 -30.7 -91.15 -32.9 M-93.95 -7.05 Q-91.9 -9.05 -89.05 -9.05 -86.15 -9.05 -84.15 -7.05 -82.1 -5.0 -82.1 -2.1 -82.1 0.75 -84.15 2.75 -86.15 4.8 -89.05 4.8 -91.9 4.8 -93.95 2.75 -95.95 0.75 -95.95 -2.1 -95.95 -5.0 -93.95 -7.05 M-54.75 -25.8 L-32.35 -25.8 -32.35 -20.2 -54.75 -20.2 -54.75 -25.8 M-61.75 -25.4 L-61.75 -20.4 -66.75 -20.4 -66.75 -25.4 -61.75 -25.4 M-2.35 13.8 Q-2.35 15.65 -3.65 16.95 -4.9 18.2 -6.75 18.2 -8.6 18.2 -9.85 16.95 -11.15 15.65 -11.15 13.8 -11.15 11.95 -9.85 10.7 -8.6 9.4 -6.75 9.4 -4.9 9.4 -3.65 10.7 -2.35 11.95 -2.35 13.8 L3.25 13.8 Q3.25 11.95 4.55 10.7 5.8 9.4 7.65 9.4 9.5 9.4 10.75 10.7 12.05 11.95 12.05 13.8 12.05 15.65 10.75 16.95 9.5 18.2 7.65 18.2 5.8 18.2 4.55 16.95 3.25 15.65 3.25 13.8 M-43.2 14.2 Q-34.35 23.05 -34.35 35.55 -34.35 48.1 -43.2 56.95 -52.05 65.75 -64.55 65.75 -77.1 65.75 -85.9 56.95 -94.75 48.1 -94.75 35.55 -94.75 23.05 -85.9 14.2 -77.1 5.35 -64.55 5.35 -52.05 5.35 -43.2 14.2 M-5.55 58.6 L-5.55 55.4 -13.15 55.4 -13.15 57.0 M-16.75 55.4 L-13.15 55.4 -13.15 49.8 M-5.55 50.2 L-5.55 55.4 4.45 55.4 4.45 51.8 M-27.6 73.4 L-27.6 68.2 -35.55 68.2 -35.55 57.0 -27.6 57.0 -27.6 -14.6 M-27.6 57.0 L-27.6 68.2 M-21.55 45.4 L21.25 45.4 21.25 63.4 -21.55 63.4 -21.55 45.4 M95.25 35.55 Q95.25 48.1 86.4 56.95 77.55 65.75 65.05 65.75 52.5 65.75 43.7 56.95 34.85 48.1 34.85 35.55 34.85 23.05 43.7 14.2 52.5 5.35 65.05 5.35 77.55 5.35 86.4 14.2 95.25 23.05 95.25 35.55 M10.85 55.4 L4.45 55.4 4.45 60.2 M26.0 56.2 L31.65 56.2 31.65 69.0 26.0 69.0 26.0 73.4 M26.0 56.2 L26.0 69.0 M26.0 -14.6 L26.0 56.2" fill="none" stroke="#000000" stroke-linecap="round" stroke-linejoin="round" stroke-width="3.0"/>
    </g>
    <radialGradient cx="0" cy="0" gradientTransform="matrix(0.0392, 0.0, 0.0, 0.0392, 64.4, 35.8)" gradientUnits="userSpaceOnUse" id="gradient0" r="819.2" spreadMethod="pad">
      <stop offset="0.0" stop-color="#373737"/>
      <stop offset="1.0" stop-color="#000000"/>
    </radialGradient>
    <radialGradient cx="0" cy="0" gradientTransform="matrix(0.037, 0.0, 0.0, 0.037, -65.95, 35.8)" gradientUnits="userSpaceOnUse" id="gradient1" r="819.2" spreadMethod="pad">
      <stop offset="0.0" stop-color="#3c3c3c"/>
      <stop offset="1.0" stop-color="#000000"/>
    </radialGradient>
  </defs>
</svg>
