<?xml version="1.0" encoding="UTF-8" standalone="no"?>
<svg xmlns:xlink="http://www.w3.org/1999/xlink" height="720.75px" width="1716.8px" xmlns="http://www.w3.org/2000/svg">
  <g transform="matrix(1, 0, 0, 1, 307.05, 450.35)">
    <use height="30.75" transform="matrix(1.0, 0.0, 0.0, 1.0, -14.85, -14.85)" width="30.75" xlink:href="#shape0"/>
  </g>
  <defs>
    <g id="shape0" transform="matrix(1, 0, 0, 1, 14.85, 14.85)">
      <path d="M15.9 0.55 Q15.9 6.9 11.4 11.4 6.9 15.9 0.55 15.9 -5.85 15.9 -10.35 11.4 -14.85 6.9 -14.85 0.55 -14.85 -5.85 -10.35 -10.35 -5.85 -14.85 0.55 -14.85 6.9 -14.85 11.4 -10.35 15.9 -5.85 15.9 0.55 M-6.65 9.6 Q-5.1 10.85 -3.25 11.5 -1.45 12.1 0.55 12.1 5.35 12.1 8.75 8.75 12.1 5.35 12.1 0.55 L12.0 -0.9 Q11.55 -4.75 8.75 -7.55 L8.4 -7.9 Q5.05 -10.95 0.55 -10.95 -4.3 -10.95 -7.65 -7.55 -11.05 -4.2 -11.05 0.55 -11.05 5.35 -7.65 8.75 L-6.65 9.6" fill="#000000" fill-rule="evenodd" stroke="none"/>
      <path d="M8.4 -7.9 L8.75 -7.55 Q11.55 -4.75 12.0 -0.9 L12.1 0.55 Q12.1 5.35 8.75 8.75 5.35 12.1 0.55 12.1 -1.45 12.1 -3.25 11.5 -5.1 10.85 -6.65 9.6 -4.1 9.25 -1.15 8.25 L1.2 7.35 1.4 7.35 1.4 7.3 Q6.0 5.3 7.35 2.5 9.0 -1.1 8.35 -5.15 8.05 -6.85 8.4 -7.9" fill="#641c1c" fill-rule="evenodd" stroke="none"/>
      <path d="M8.4 -7.9 Q8.05 -6.85 8.35 -5.15 9.0 -1.1 7.35 2.5 6.0 5.3 1.4 7.3 L1.4 7.35 1.2 7.35 -1.15 8.25 Q-4.1 9.25 -6.65 9.6 L-7.65 8.75 Q-11.05 5.35 -11.05 0.55 -11.05 -4.2 -7.65 -7.55 -4.3 -10.95 0.55 -10.95 5.05 -10.95 8.4 -7.9 M0.55 -5.5 L0.35 -5.4 0.0 -4.9 Q-0.7 -2.85 -0.9 -0.8 L-0.9 0.7 Q-0.9 2.8 -0.3 4.95 L0.8 5.55 1.55 5.35 2.0 3.9 Q2.5 2.2 2.5 0.55 L2.5 0.3 2.5 -0.75 2.5 -1.05 Q2.25 -3.15 1.45 -5.15 L0.55 -5.5 M0.55 -8.85 L0.4 -9.4 Q0.1 -9.8 -0.6 -9.8 L-0.95 -9.75 -1.2 -9.8 -2.2 -9.55 Q-4.0 -9.05 -6.1 -7.4 -9.65 -4.6 -9.65 -1.2 -9.85 0.05 -8.55 2.35 L-8.25 1.4 Q-7.85 -0.05 -6.95 -1.3 L-5.45 -3.3 -2.75 -5.75 0.55 -8.85" fill="#782121" fill-rule="evenodd" stroke="none"/>
      <path d="M0.55 -8.85 L-2.75 -5.75 -5.45 -3.3 -6.95 -1.3 Q-7.85 -0.05 -8.25 1.4 L-8.55 2.35 Q-9.85 0.05 -9.65 -1.2 -9.65 -4.6 -6.1 -7.4 -4.0 -9.05 -2.2 -9.55 L-1.2 -9.8 -0.95 -9.75 -0.6 -9.8 Q0.1 -9.8 0.4 -9.4 L0.55 -8.85" fill="#932828" fill-rule="evenodd" stroke="none"/>
      <path d="M0.55 -5.5 L1.45 -5.15 Q2.25 -3.15 2.5 -1.05 L2.5 -0.75 2.5 0.3 2.5 0.55 Q2.5 2.2 2.0 3.9 L1.55 5.35 0.8 5.55 -0.3 4.95 Q-0.9 2.8 -0.9 0.7 L-0.9 -0.8 Q-0.7 -2.85 0.0 -4.9 L0.35 -5.4 0.55 -5.5" fill="#421313" fill-rule="evenodd" stroke="none"/>
    </g>
  </defs>
</svg>
