<?xml version="1.0" encoding="UTF-8" standalone="no"?>
<svg xmlns:xlink="http://www.w3.org/1999/xlink" height="720.75px" width="1716.8px" xmlns="http://www.w3.org/2000/svg">
  <g transform="matrix(1, 0, 0, 1, 307.05, 450.35)">
    <use height="91.2" transform="matrix(1.0, 0.0, 0.0, 1.0, -115.55, 4.95)" width="225.95" xlink:href="#shape0"/>
  </g>
  <defs>
    <g id="shape0" transform="matrix(1, 0, 0, 1, 115.55, -4.95)">
      <path d="M108.4 16.85 L108.4 25.1 49.8 94.15 -107.65 94.15 -113.55 84.85 -113.55 75.85 -56.5 6.95 108.4 6.95 108.4 15.95 108.4 16.85 49.8 84.85 49.8 94.15 49.8 84.85 108.4 16.85 M-16.5 75.85 L49.8 75.85 49.8 84.85 -16.5 84.85 49.8 84.85 49.8 75.85 -16.5 75.85 -24.5 75.85 -48.5 75.85 -48.5 84.85 -24.5 84.85 -16.5 84.85 -16.5 75.85 M108.4 6.95 L49.8 75.85 108.4 6.95 M-113.55 84.85 L-48.5 84.85 -113.55 84.85 M-48.5 75.85 L-113.55 75.85 -48.5 75.85" fill="#484848" fill-rule="evenodd" stroke="none"/>
      <path d="M-24.5 84.85 L-48.5 84.85 -48.5 75.85 -24.5 75.85 -24.5 84.85" fill="#1a1a1a" fill-rule="evenodd" stroke="none"/>
      <path d="M-16.5 75.85 L-16.5 84.85 -24.5 84.85 -24.5 75.85 -16.5 75.85" fill="#373737" fill-rule="evenodd" stroke="none"/>
      <path d="M108.4 16.85 L108.4 25.1 49.8 94.15 -107.65 94.15 -113.55 84.85 -113.55 75.85 -56.5 6.95 108.4 6.95 108.4 15.95 M108.4 16.85 L49.8 84.85 49.8 94.15 M-16.5 84.85 L49.8 84.85 49.8 75.85 -16.5 75.85 -16.5 84.85 -24.5 84.85 -48.5 84.85 -113.55 84.85 M49.8 75.85 L108.4 6.95 M-24.5 75.85 L-48.5 75.85 -48.5 84.85 M-16.5 75.85 L-24.5 75.85 -24.5 84.85 M-113.55 75.85 L-48.5 75.85" fill="none" stroke="#000000" stroke-linecap="round" stroke-linejoin="round" stroke-width="4.0"/>
      <path d="M1.65 27.75 L1.7 27.55 3.25 27.6 1.65 27.75 3.25 27.6 Q8.15 27.95 10.1 30.6 12.3 33.65 9.3 38.0 6.3 42.35 -0.15 45.4 -6.65 48.45 -12.75 48.45 L-16.45 48.1 Q-10.35 44.75 -9.95 36.55 -9.6 28.8 1.65 27.75 M-2.55 33.65 Q-3.25 34.4 -3.25 35.4 -3.25 36.4 -2.55 37.1 -1.8 37.85 -0.8 37.85 0.2 37.85 0.9 37.1 1.65 36.4 1.65 35.4 1.65 34.4 0.9 33.65 0.2 32.95 -0.8 32.95 -1.8 32.95 -2.55 33.65 M-14.35 35.4 Q-13.6 36.15 -13.6 37.15 -13.6 38.15 -14.35 38.85 -15.05 39.6 -16.05 39.6 -17.05 39.6 -17.8 38.85 -18.5 38.15 -18.5 37.15 -18.5 36.15 -17.8 35.4 -17.05 34.7 -16.05 34.7 -15.05 34.7 -14.35 35.4" fill="#373737" fill-rule="evenodd" stroke="none"/>
      <path d="M1.7 27.55 L1.65 27.75 Q-9.6 28.8 -9.95 36.55 -10.35 44.75 -16.45 48.1 -19.7 47.45 -21.15 45.4 -23.4 42.35 -20.4 38.0 -19.4 36.55 -17.95 35.25 -15.25 32.65 -10.95 30.6 -4.5 27.55 1.7 27.55 M-2.55 33.65 Q-1.8 32.95 -0.8 32.95 0.2 32.95 0.9 33.65 1.65 34.4 1.65 35.4 1.65 36.4 0.9 37.1 0.2 37.85 -0.8 37.85 -1.8 37.85 -2.55 37.1 -3.25 36.4 -3.25 35.4 -3.25 34.4 -2.55 33.65 M-14.35 35.4 Q-15.05 34.7 -16.05 34.7 -17.05 34.7 -17.8 35.4 -18.5 36.15 -18.5 37.15 -18.5 38.15 -17.8 38.85 -17.05 39.6 -16.05 39.6 -15.05 39.6 -14.35 38.85 -13.6 38.15 -13.6 37.15 -13.6 36.15 -14.35 35.4" fill="#262626" fill-rule="evenodd" stroke="none"/>
      <path d="M1.7 27.55 Q-4.5 27.55 -10.95 30.6 -15.25 32.65 -17.95 35.25 -19.4 36.55 -20.4 38.0 -23.4 42.35 -21.15 45.4 -19.7 47.45 -16.45 48.1 -10.35 44.75 -9.95 36.55 -9.6 28.8 1.65 27.75 L3.25 27.6 1.7 27.55 M-16.45 48.1 L-12.75 48.45 Q-6.65 48.45 -0.15 45.4 6.3 42.35 9.3 38.0 12.3 33.65 10.1 30.6 8.15 27.95 3.25 27.6" fill="none" stroke="#000000" stroke-linecap="round" stroke-linejoin="round" stroke-width="3.0"/>
    </g>
  </defs>
</svg>
