<?xml version="1.0" encoding="UTF-8" standalone="no"?>
<svg xmlns:xlink="http://www.w3.org/1999/xlink" height="720.75px" width="1716.8px" xmlns="http://www.w3.org/2000/svg">
  <g transform="matrix(1, 0, 0, 1, 307.05, 450.35)">
    <use height="90.7" transform="matrix(1.0, 0.0, 0.0, 1.0, -108.0, -26.55)" width="220.2" xlink:href="#sprite0"/>
  </g>
  <defs>
    <g id="sprite0" transform="matrix(1, 0, 0, 1, 110.1, 45.3)">
      <use height="90.7" transform="matrix(1.0, 0.0, 0.0, 1.0, -110.1, -45.3)" width="220.2" xlink:href="#shape0"/>
    </g>
    <g id="shape0" transform="matrix(1, 0, 0, 1, 110.1, 45.3)">
      <path d="M-99.3 -24.95 Q-99.2 -36.95 -95.25 -41.5 -93.5 -42.55 -91.6 -43.1 -96.35 -20.85 -87.7 16.8 -87.95 17.1 -87.55 17.55 L-85.25 26.75 -85.05 27.6 -85.3 27.9 -85.5 28.1 -85.55 28.1 -85.9 27.4 -85.85 27.25 -85.7 27.05 -85.6 26.85 -85.7 26.8 Q-85.9 26.8 -86.0 26.95 L-86.1 27.1 -86.2 26.95 -86.25 26.95 -86.4 26.95 Q-86.85 26.6 -87.3 26.55 L-87.6 26.25 -88.0 26.1 -88.2 26.1 -88.25 26.15 -88.7 26.05 -88.75 26.1 -88.7 26.15 -88.6 26.25 -88.4 26.4 -88.45 26.5 -88.65 26.55 -88.65 26.5 -88.75 26.2 -88.9 26.0 -88.95 26.05 -89.1 26.05 -89.2 26.15 -89.25 26.2 -89.3 26.25 -89.45 26.25 -89.5 26.35 -89.55 26.55 -89.6 26.7 -89.75 26.8 -89.8 26.85 -89.75 27.05 -90.3 27.6 -90.85 28.3 Q-98.35 -2.1 -99.2 -19.8 L-95.0 -19.65 Q-92.9 -22.35 -95.05 -24.85 L-99.3 -24.95 M-73.65 35.35 L-74.7 40.85 Q-80.9 47.05 -87.7 40.6 L-89.9 32.15 -88.75 32.95 -88.25 33.1 -88.25 33.25 -88.3 33.25 -88.4 33.3 -88.25 33.45 -88.05 33.85 -88.0 33.8 -87.95 33.7 -87.95 33.65 -87.9 33.7 Q-88.0 34.15 -87.7 34.55 L-87.5 33.55 -87.3 33.15 -87.05 33.4 -87.0 33.35 -86.9 32.85 -86.9 32.6 -86.65 32.4 -86.6 32.4 -86.5 32.7 Q-86.3 33.35 -85.85 33.3 -85.7 33.0 -85.95 32.7 L-86.0 32.7 -85.9 32.7 -85.9 32.6 -85.95 32.5 Q-85.75 32.35 -85.85 32.0 L-85.8 31.3 -85.75 31.0 -85.6 30.7 -85.2 30.85 -85.15 30.75 -85.25 30.65 Q-85.35 30.5 -85.55 30.4 L-85.4 29.7 -85.05 29.4 -84.7 28.95 -84.65 28.95 -83.55 33.0 Q-78.4 32.65 -73.65 35.35 M-82.9 39.35 L-83.0 39.3 -83.15 39.35 -83.3 39.2 -83.3 39.25 -83.35 39.25 -83.6 39.4 -83.7 39.55 -83.7 39.6 -83.6 39.8 -83.55 40.15 -83.25 39.95 -83.2 39.8 -83.1 39.85 -82.95 39.85 -82.8 39.7 -82.85 39.65 -82.95 39.6 -82.95 39.55 -82.9 39.35 M-84.95 27.95 L-84.8 28.5 -84.85 28.6 -85.0 28.75 -85.05 28.7 -85.1 28.7 -85.35 28.75 -85.25 28.5 -85.0 28.0 -84.95 27.95 M-89.8 25.1 L-89.95 25.25 Q-90.05 25.65 -89.75 25.6 L-89.75 25.35 -89.55 25.2 -89.45 25.0 -89.6 25.0 -89.8 25.1 M-91.55 20.65 L-91.55 20.6 -91.55 20.45 -91.6 20.3 -91.65 20.25 -91.7 20.25 -91.85 20.5 -91.85 20.6 -91.85 20.7 Q-91.75 21.35 -91.15 21.5 L-91.1 21.4 -91.55 20.8 -91.55 20.65 M-85.0 30.55 L-85.05 30.5 -85.15 30.55 -85.05 30.65 -85.0 30.55" fill="#605c42" fill-rule="evenodd" stroke="none"/>
      <path d="M-99.2 -19.8 L-107.6 -20.0 Q-109.7 -22.5 -107.3 -25.2 L-99.3 -24.95 -95.05 -24.85 Q-92.9 -22.35 -95.0 -19.65 L-99.2 -19.8 M-91.6 -43.1 Q-84.25 -45.35 -75.3 -40.5 -72.25 -33.35 -70.8 -24.1 L107.65 -18.65 Q109.75 -16.7 107.3 -14.55 L-70.1 -19.05 Q-69.3 -10.9 -69.55 -1.35 L-69.85 -1.8 -70.45 -2.9 -70.7 -4.45 -70.7 -4.6 -70.75 -4.65 -70.9 -5.1 -71.3 -7.45 -71.35 -7.5 Q-71.75 -6.65 -71.2 -5.15 L-70.9 -4.05 -70.85 -3.75 -70.8 -2.7 -70.65 -1.3 -70.85 -1.25 -71.55 -1.4 -71.5 -1.2 -71.55 -0.9 -71.5 -0.8 -71.5 -0.75 -71.8 -0.5 -71.85 -0.5 -71.95 -0.55 -72.15 -0.5 -72.45 -0.3 -72.6 -0.05 -72.65 0.15 -72.7 0.65 -72.7 0.7 -72.75 0.85 -72.75 1.0 -72.45 1.4 -72.45 1.45 -72.5 1.45 -72.75 2.15 -73.0 2.8 -73.1 2.9 -73.2 2.9 -73.6 2.9 -73.7 2.85 -73.85 2.8 -73.9 2.85 -73.85 2.85 Q-74.15 2.8 -74.3 3.0 L-74.25 3.1 -73.7 3.15 -73.65 3.15 -72.85 3.65 -73.0 4.15 -73.0 4.6 -73.4 4.9 -74.25 5.0 -74.55 4.85 -74.6 4.85 -75.0 4.65 Q-75.05 5.1 -74.35 5.3 L-73.85 5.6 Q-73.55 5.7 -73.3 5.9 L-73.05 6.1 -73.2 6.55 -73.3 7.1 -73.6 7.4 -73.45 7.5 -73.35 7.75 -73.1 7.45 -73.05 7.4 -72.35 7.15 -72.6 7.7 -72.9 8.5 -72.95 8.75 -73.1 8.65 -73.85 8.15 -74.0 8.0 -74.15 7.8 -74.25 7.7 -74.35 7.65 -74.25 7.85 -74.5 7.6 -75.0 7.0 -75.05 7.0 Q-74.85 8.05 -73.75 8.8 L-73.65 9.0 -73.6 9.15 -73.75 9.3 -74.1 9.45 -74.2 9.4 -74.65 9.1 -74.65 9.05 -74.75 8.85 -74.8 8.85 -75.0 8.65 Q-75.05 8.6 -75.1 8.7 -75.25 8.95 -75.0 9.2 L-74.95 9.35 -74.8 9.95 -74.75 10.25 -74.85 10.25 -74.8 10.2 -74.85 10.2 Q-74.95 10.05 -74.95 10.2 L-75.15 10.05 -75.9 9.95 -75.9 10.0 -75.7 10.2 -75.6 10.3 -75.85 10.2 -76.0 10.15 -76.2 9.8 -76.6 8.7 Q-76.75 8.1 -77.05 7.6 L-77.1 7.6 -77.1 7.75 -77.25 7.85 -77.25 8.4 -77.1 9.15 -76.35 10.5 -76.3 10.55 -76.35 10.55 -76.55 10.4 -76.6 10.25 -76.7 10.25 -76.75 10.3 -77.55 10.2 -77.55 10.25 -77.6 10.3 -77.65 10.35 Q-78.0 10.7 -77.4 11.2 L-77.15 11.35 -77.1 11.45 -77.0 11.7 -77.1 11.7 -77.45 11.7 -77.55 11.6 -77.9 11.35 -78.2 11.4 -78.2 11.5 -78.15 11.5 -78.05 12.1 Q-77.85 12.4 -77.9 12.8 L-77.85 13.1 -77.9 13.2 -77.95 13.25 -78.05 13.35 -78.1 13.4 -78.2 13.4 -78.3 13.4 -78.4 13.4 -79.25 12.9 -79.2 13.3 -79.1 13.85 Q-79.0 14.15 -79.05 14.5 L-79.05 14.75 -79.2 14.8 -79.45 14.8 -79.8 14.7 -80.3 14.8 -80.35 14.85 -80.35 14.95 -80.25 15.1 -79.8 15.45 -80.25 15.6 -80.5 15.6 -80.6 15.5 Q-81.1 14.8 -81.55 14.95 -81.6 15.55 -80.95 16.05 L-80.7 16.55 -80.95 16.85 -81.15 17.1 -81.25 17.05 -81.4 17.05 -81.45 17.0 -82.15 16.65 -82.45 16.45 Q-82.7 16.3 -82.9 16.1 L-83.0 15.9 -83.1 15.85 -83.45 15.45 -83.55 15.5 -83.5 15.8 -83.4 15.85 -83.45 15.85 -83.55 15.8 -83.55 15.85 Q-83.0 17.1 -81.7 17.75 L-81.7 17.85 -81.65 18.0 -81.9 18.15 -82.1 18.45 -82.35 18.65 -82.8 18.5 -83.25 18.55 -83.15 18.75 -83.75 18.55 -83.95 18.45 -84.0 18.4 Q-85.15 17.75 -86.25 17.4 L-86.45 17.3 -86.25 17.45 -86.05 17.6 -86.5 17.55 -85.95 17.95 Q-85.45 18.05 -84.95 18.3 L-84.9 18.3 -84.05 18.75 -83.9 18.85 -83.35 19.1 -83.45 19.2 -83.55 19.3 -83.55 19.35 -83.7 19.4 Q-84.35 19.6 -84.8 20.2 L-85.05 20.85 -85.3 20.8 -85.45 20.75 -85.45 20.85 -85.55 20.95 -85.2 21.5 -85.2 21.6 -85.05 22.25 Q-84.85 23.2 -83.95 23.45 L-83.65 23.8 -82.55 23.4 -81.55 22.55 -81.0 21.55 -80.7 21.6 -80.65 21.6 -79.5 23.1 -79.0 23.55 -78.9 23.8 Q-78.6 24.5 -77.95 24.8 L-77.9 24.7 -78.75 23.3 Q-79.1 22.55 -79.8 22.25 L-80.3 21.4 -80.55 20.8 -80.2 20.15 -79.85 19.75 -79.65 19.85 -79.5 19.8 -79.4 19.75 -79.35 19.75 -79.2 19.7 -79.15 19.75 -79.1 19.85 Q-78.45 19.95 -77.95 20.55 L-77.9 20.45 -78.35 19.95 -78.3 19.85 -78.65 19.65 -78.7 19.6 -78.75 19.6 -78.95 19.5 -79.2 19.45 -78.75 19.15 -78.65 19.35 -78.2 18.9 -77.85 18.5 -77.5 19.0 -77.05 19.4 -76.7 19.5 Q-76.55 19.45 -76.7 19.4 L-77.2 18.9 -77.45 18.6 -77.45 18.15 -77.5 17.85 -77.4 17.7 -77.35 17.55 -77.3 17.5 -77.25 17.4 -77.1 17.5 -76.95 17.4 -76.95 17.45 -76.9 17.55 -76.95 17.6 -76.95 17.7 -76.6 18.05 -76.45 18.15 -76.0 18.3 -76.0 18.25 Q-75.95 17.95 -76.2 17.85 L-76.6 17.55 -76.6 17.45 -76.65 17.3 -76.65 17.05 -76.7 16.95 Q-76.55 16.8 -76.3 16.8 L-75.95 16.7 -75.85 16.8 -75.25 17.3 -74.85 17.3 Q-74.85 17.0 -75.15 16.95 L-75.4 16.85 -75.45 16.6 -75.5 16.3 -75.1 16.05 -74.5 15.75 -74.45 15.7 -74.3 15.7 -73.95 15.65 -73.85 15.6 -73.7 15.5 -73.7 15.6 -73.6 15.7 -73.5 15.7 -73.5 15.65 -73.45 15.55 -73.45 15.5 -73.2 15.55 -73.2 15.5 -73.15 15.3 -73.0 15.2 -72.95 15.2 -72.65 14.95 -72.55 14.9 -72.5 15.05 -72.5 15.1 -72.55 15.25 -72.7 15.55 -72.7 15.75 -72.7 15.8 -72.7 16.2 Q-72.75 16.65 -72.35 16.9 L-72.3 17.15 -72.3 17.2 -72.2 17.45 Q-71.95 17.95 -71.65 17.75 L-71.55 17.55 -71.5 17.6 -71.45 17.55 -71.2 17.35 -71.25 17.2 -71.15 16.85 -70.95 16.15 -70.8 15.75 -70.8 15.8 Q-71.85 25.0 -73.65 35.35 -78.4 32.65 -83.55 33.0 L-84.65 28.95 -84.7 28.95 -84.7 28.9 -84.5 28.5 Q-84.65 28.35 -84.8 28.5 L-84.95 27.95 -84.7 27.5 -84.8 27.5 -85.05 27.6 -85.25 26.75 -87.55 17.55 -87.5 17.6 -87.05 17.6 -87.0 17.55 -87.0 17.4 -87.6 16.8 -87.65 16.75 -87.7 16.75 -87.7 16.8 Q-96.35 -20.85 -91.6 -43.1 M-70.1 -19.05 L-70.8 -24.1 -70.1 -19.05 M-74.65 0.65 L-74.8 0.55 -74.95 0.65 -75.05 0.95 -74.9 1.15 -74.85 1.1 -74.75 0.95 -74.7 0.8 -74.65 0.65 M-78.9 0.9 L-78.95 0.85 -79.15 0.9 -79.35 1.15 -79.25 1.5 -79.1 1.35 -78.95 1.15 -78.9 0.9 M-79.3 -0.3 L-79.35 -0.35 -79.5 -0.2 -79.3 -0.1 -79.3 -0.3 M-77.7 5.85 Q-77.55 5.75 -77.75 5.65 -77.95 5.5 -77.9 5.75 -77.9 5.95 -77.7 5.85 M-75.4 7.15 L-75.4 7.0 -75.5 6.8 -75.55 6.75 -75.75 6.45 -75.75 6.5 -75.85 6.5 Q-76.05 6.65 -75.85 6.9 -75.7 7.05 -75.5 7.15 L-75.4 7.15 M-72.35 18.05 L-72.45 18.05 -72.65 18.2 -72.7 18.25 -72.65 18.3 -72.85 18.3 -72.9 18.3 -72.9 18.4 -73.1 18.5 -73.45 18.35 -73.5 18.35 -73.55 18.4 -73.25 18.75 -73.4 18.9 -73.4 18.85 -73.65 18.55 -73.7 18.55 Q-73.95 18.65 -73.75 18.9 L-73.55 19.2 -73.55 19.25 Q-73.85 19.95 -73.3 20.1 L-73.05 20.2 -72.2 20.1 -72.0 19.95 -71.85 20.2 -71.5 19.6 Q-71.45 19.25 -71.55 18.95 L-72.0 18.4 Q-72.05 18.3 -72.15 18.35 L-72.35 18.05 M-79.0 9.9 L-79.0 10.05 Q-78.95 10.4 -78.6 10.35 L-78.6 10.2 -78.7 10.05 -78.85 9.85 -79.0 9.85 -79.0 9.9 M-79.55 7.45 L-79.7 7.4 -80.15 7.5 -80.45 7.6 -80.75 7.85 -80.65 7.9 -80.25 7.85 Q-80.1 7.65 -79.85 7.7 L-79.55 7.45 M-73.4 16.0 L-73.5 16.0 -73.7 16.0 -73.9 16.05 -73.95 16.1 -73.95 16.2 -73.85 16.3 -73.75 16.3 -73.65 16.25 -73.6 16.35 -73.45 16.6 -73.2 16.4 Q-73.15 16.15 -73.4 16.0 M-76.75 21.65 L-76.85 21.7 -76.9 22.1 -76.65 22.5 -76.5 22.65 -76.45 22.55 -76.5 22.25 -76.55 21.95 -76.75 21.65 M-73.95 21.4 L-73.95 21.45 -73.95 21.55 -73.9 21.7 -73.8 21.75 -73.75 21.7 -73.75 21.75 -73.6 21.9 -73.65 21.95 -74.2 22.05 -74.05 22.15 -73.8 22.25 -73.8 22.3 -73.5 22.55 -72.8 22.8 -72.2 22.65 -72.3 22.6 -72.3 22.55 Q-72.15 22.6 -72.1 22.45 L-72.1 22.4 -72.0 22.4 -72.0 22.35 -71.9 21.95 -71.9 21.55 -72.05 21.2 -72.25 21.15 -72.75 21.2 -73.5 21.15 -73.65 21.2 -73.7 21.15 Q-73.8 21.05 -73.85 21.05 L-73.9 21.05 Q-74.1 21.2 -73.95 21.4 M-80.25 25.95 L-80.35 25.5 Q-80.75 25.4 -80.6 25.7 L-80.6 26.3 Q-80.75 26.7 -80.35 26.75 L-80.3 26.4 -80.25 25.95 M-80.55 23.9 L-80.6 23.9 Q-80.95 24.25 -80.3 24.55 L-80.25 24.55 -80.15 24.55 -80.15 24.4 -80.4 24.05 -80.4 24.0 -80.55 23.9 M-84.1 13.75 L-84.2 13.75 -84.45 14.15 -84.45 14.8 -84.15 15.3 -84.1 15.25 -84.1 14.7 -84.05 14.2 Q-83.95 13.95 -84.1 13.75 M-83.7 3.1 L-83.75 3.1 -83.85 3.1 Q-84.1 3.55 -83.25 3.8 L-83.2 3.7 -83.7 3.1" fill="#82815e" fill-rule="evenodd" stroke="none"/>
      <path d="M-69.55 -1.35 L-69.9 5.95 -70.0 6.45 -70.2 9.5 -70.25 10.65 -70.3 11.05 -70.3 11.3 -70.35 11.7 -70.55 12.85 -70.75 15.05 -70.7 15.15 -70.7 15.3 -70.7 15.35 -70.75 15.4 -70.75 15.5 -70.65 15.5 -70.75 15.65 -70.75 15.85 -70.8 15.8 -70.8 15.75 -70.95 16.15 -71.15 16.85 -71.25 17.2 -71.2 17.35 -71.45 17.55 -71.5 17.6 -71.55 17.55 -71.65 17.75 Q-71.95 17.95 -72.2 17.45 L-72.3 17.2 -72.3 17.15 -72.35 16.9 Q-72.75 16.65 -72.7 16.2 L-72.7 15.8 -72.7 15.75 -72.7 15.55 -72.55 15.25 -72.5 15.1 -72.5 15.05 -72.55 14.9 -72.6 14.85 Q-72.75 14.55 -72.9 14.75 L-73.0 14.85 -72.85 14.85 -72.65 14.95 -72.95 15.2 -73.0 15.2 -73.15 15.3 -73.2 15.5 -73.2 15.55 -73.45 15.5 -73.45 15.55 -73.5 15.65 -73.5 15.7 -73.6 15.7 -73.7 15.6 -73.7 15.5 -73.85 15.6 -73.95 15.65 -74.3 15.7 -74.45 15.7 -74.5 15.75 -75.1 16.05 -75.5 16.3 -75.45 16.6 -75.4 16.85 -75.15 16.95 Q-74.85 17.0 -74.85 17.3 L-75.25 17.3 -75.85 16.8 -75.95 16.7 -76.3 16.8 Q-76.55 16.8 -76.7 16.95 L-76.65 17.05 -76.65 17.3 -76.6 17.45 -76.6 17.55 -76.2 17.85 Q-75.95 17.95 -76.0 18.25 L-76.0 18.3 -76.45 18.15 -76.6 18.05 -76.95 17.7 -76.95 17.6 -76.9 17.55 -76.95 17.45 -76.95 17.4 -77.1 17.5 -77.25 17.4 -77.3 17.5 -77.35 17.55 -77.4 17.7 -77.5 17.85 -77.45 18.15 -77.45 18.6 -77.2 18.9 -76.7 19.4 Q-76.55 19.45 -76.7 19.5 L-77.05 19.4 -77.5 19.0 -77.85 18.5 -78.2 18.9 -78.65 19.35 -78.75 19.15 -79.2 19.45 -78.95 19.5 -78.75 19.6 -78.7 19.6 -78.65 19.65 -78.3 19.85 -78.35 19.95 -77.9 20.45 -77.95 20.55 Q-78.45 19.95 -79.1 19.85 L-79.15 19.75 -79.2 19.7 -79.35 19.75 -79.4 19.75 -79.5 19.8 -79.65 19.85 -79.85 19.75 -80.2 20.15 -80.55 20.8 -80.3 21.4 -79.8 22.25 Q-79.1 22.55 -78.75 23.3 L-77.9 24.7 -77.95 24.8 Q-78.6 24.5 -78.9 23.8 L-79.0 23.55 -79.5 23.1 -80.65 21.6 -80.7 21.6 -81.0 21.55 -81.55 22.55 -82.55 23.4 -83.65 23.8 -83.95 23.45 Q-84.85 23.2 -85.05 22.25 L-85.2 21.6 -85.2 21.5 -85.55 20.95 -85.45 20.85 -85.45 20.75 -85.3 20.8 -85.05 20.85 -84.8 20.2 Q-84.35 19.6 -83.7 19.4 L-83.55 19.35 -83.55 19.3 -83.45 19.2 -83.35 19.1 -83.9 18.85 -84.05 18.75 -84.9 18.3 -84.95 18.3 Q-85.45 18.05 -85.95 17.95 L-86.5 17.55 -86.05 17.6 -86.25 17.45 -86.45 17.3 -86.25 17.4 Q-85.15 17.75 -84.0 18.4 L-83.95 18.45 -83.75 18.55 -83.15 18.75 -83.25 18.55 -82.8 18.5 -82.35 18.65 -82.1 18.45 -81.9 18.15 -81.65 18.0 -81.7 17.85 -81.7 17.75 Q-83.0 17.1 -83.55 15.85 L-83.55 15.8 -83.45 15.85 -83.1 16.15 -83.1 16.05 -83.4 15.85 -83.5 15.8 -83.55 15.5 -83.45 15.45 -83.1 15.85 -83.0 15.9 -82.9 16.1 Q-82.7 16.3 -82.45 16.45 L-82.15 16.65 -81.45 17.0 -81.4 17.05 -81.25 17.05 -81.15 17.1 -80.95 16.85 -80.7 16.55 -80.95 16.05 Q-81.6 15.55 -81.55 14.95 -81.1 14.8 -80.6 15.5 L-80.5 15.6 -80.25 15.6 -79.8 15.45 -80.25 15.1 -80.35 14.95 -80.35 14.85 -80.3 14.8 -79.8 14.7 -79.45 14.8 -79.2 14.8 -79.05 14.75 -79.05 14.5 Q-79.0 14.15 -79.1 13.85 L-79.2 13.3 -79.25 12.9 -78.4 13.4 -78.3 13.4 -78.2 13.4 -78.1 13.4 -78.05 13.35 -77.95 13.25 -77.9 13.2 -77.85 13.1 -77.9 12.8 Q-77.85 12.4 -78.05 12.1 L-78.15 11.5 -78.2 11.5 -78.2 11.4 -77.9 11.35 -77.55 11.6 -77.45 11.7 -77.1 11.7 -77.0 11.7 -77.1 11.45 -77.15 11.35 -77.4 11.2 Q-78.0 10.7 -77.65 10.35 L-77.6 10.3 -77.2 10.7 -77.15 10.6 -77.1 10.6 -77.55 10.25 -77.55 10.2 -76.75 10.3 -76.7 10.25 -76.6 10.25 -76.55 10.4 -76.35 10.55 -76.3 10.55 -76.35 10.5 -77.1 9.15 -77.25 8.4 -77.25 7.85 -77.1 7.75 -77.1 7.6 -77.05 7.6 Q-76.75 8.1 -76.6 8.7 L-76.2 9.8 -76.0 10.15 -75.85 10.2 -75.6 10.3 -75.7 10.2 -75.9 10.0 -75.9 9.95 -75.15 10.05 -74.95 10.2 Q-74.95 10.05 -74.85 10.2 L-74.8 10.2 -74.85 10.25 -74.75 10.25 -74.8 9.95 -74.95 9.35 -75.0 9.2 Q-75.25 8.95 -75.1 8.7 -75.05 8.6 -75.0 8.65 L-74.8 8.85 -74.75 8.85 -74.65 9.05 -74.65 9.1 -74.2 9.4 -74.1 9.45 -73.75 9.3 -73.6 9.15 -73.65 9.0 -73.75 8.8 Q-74.85 8.05 -75.05 7.0 L-75.0 7.0 -74.5 7.6 -74.25 7.85 -74.35 7.65 -74.25 7.7 -74.15 7.8 -74.0 8.0 -73.85 8.15 -73.1 8.65 -72.95 8.75 -72.9 8.5 -72.6 7.7 -72.35 7.15 -73.05 7.4 -73.1 7.45 -73.35 7.75 -73.45 7.5 -73.6 7.4 -73.3 7.1 -73.2 6.55 -73.05 6.1 -73.3 5.9 Q-73.55 5.7 -73.85 5.6 L-74.35 5.3 Q-75.05 5.1 -75.0 4.65 L-74.6 4.85 -74.55 4.85 -74.25 5.0 -73.4 4.9 -73.0 4.6 -73.0 4.15 -72.85 3.65 -73.65 3.15 -73.7 3.15 -74.25 3.1 -74.3 3.0 Q-74.15 2.8 -73.85 2.85 L-73.9 2.85 -73.85 2.8 -73.7 2.85 -73.6 2.9 -73.2 2.9 -73.1 2.9 -73.0 2.8 -72.75 2.15 -72.5 1.45 -72.45 1.45 -72.4 1.9 -72.35 1.8 -72.3 1.65 -72.35 1.6 -72.45 1.45 -72.45 1.4 -72.75 1.0 -72.75 0.85 -72.7 0.7 -72.7 0.65 -72.65 0.15 -72.6 -0.05 -72.45 -0.3 -72.15 -0.5 -71.95 -0.55 -71.85 -0.5 -71.8 -0.5 -71.5 -0.75 -71.5 -0.8 -71.55 -0.9 -71.5 -1.2 -71.55 -1.4 -70.85 -1.25 -70.65 -1.3 -70.8 -2.7 -70.85 -3.75 -70.9 -4.05 -71.2 -5.15 Q-71.75 -6.65 -71.35 -7.5 L-71.3 -7.45 -70.9 -5.1 -70.75 -4.65 -70.7 -4.6 -70.7 -4.45 -70.45 -2.9 -69.85 -1.8 -69.55 -1.35 M-89.9 32.15 L-90.85 28.3 -90.3 27.6 -89.75 27.05 -89.8 26.85 -89.75 26.8 -89.6 26.7 -89.55 26.55 -89.5 26.35 -89.45 26.25 -89.3 26.25 -89.25 26.2 -89.2 26.15 -89.1 26.05 -88.95 26.05 -88.9 26.0 -88.75 26.2 -88.65 26.5 -88.65 26.55 -88.45 26.5 -88.4 26.4 -88.6 26.25 -88.7 26.15 -88.75 26.1 -88.7 26.05 -88.25 26.15 -88.2 26.1 -88.0 26.1 -87.6 26.25 -87.3 26.55 Q-86.85 26.6 -86.4 26.95 L-86.25 26.95 -86.2 26.95 -86.1 27.1 -86.0 26.95 Q-85.9 26.8 -85.7 26.8 L-85.6 26.85 -85.7 27.05 -85.85 27.25 -85.9 27.4 -85.55 28.1 -85.5 28.1 -85.3 27.9 -85.05 27.6 -84.8 27.5 -84.7 27.5 -84.95 27.95 -85.0 28.0 -85.25 28.5 -85.35 28.75 -85.1 28.7 -85.05 28.7 -85.0 28.75 -84.85 28.6 -84.8 28.5 Q-84.65 28.35 -84.5 28.5 L-84.7 28.9 -84.7 28.95 -85.05 29.4 -85.4 29.7 -85.55 30.4 Q-85.35 30.5 -85.25 30.65 L-85.15 30.75 -85.2 30.85 -85.6 30.7 -85.75 31.0 -85.8 31.3 -85.85 32.0 Q-85.75 32.35 -85.95 32.5 L-85.9 32.6 -85.9 32.7 -86.0 32.7 -85.95 32.7 Q-85.7 33.0 -85.85 33.3 -86.3 33.35 -86.5 32.7 L-86.6 32.4 -86.65 32.4 -86.9 32.6 -86.9 32.85 -87.0 33.35 -87.05 33.4 -87.3 33.15 -87.5 33.55 -87.7 34.55 Q-88.0 34.15 -87.9 33.7 L-87.95 33.65 -87.95 33.7 -88.0 33.8 -88.05 33.85 -88.25 33.45 -88.4 33.3 -88.3 33.25 -88.25 33.25 -88.25 33.1 -88.75 32.95 -89.9 32.15 M-79.3 -0.3 L-79.3 -0.1 -79.5 -0.2 -79.35 -0.35 -79.3 -0.3 M-78.9 0.9 L-78.95 1.15 -79.1 1.35 -79.25 1.5 -79.35 1.15 -79.15 0.9 -78.95 0.85 -78.9 0.9 M-74.65 0.65 L-74.7 0.8 -74.75 0.95 -74.85 1.1 -74.9 1.15 -75.05 0.95 -74.95 0.65 -74.8 0.55 -74.65 0.65 M-77.7 5.85 Q-77.9 5.95 -77.9 5.75 -77.95 5.5 -77.75 5.65 -77.55 5.75 -77.7 5.85 M-70.75 15.5 L-70.75 15.65 -70.8 15.8 -70.75 15.65 -70.75 15.5 M-70.7 15.15 L-70.7 15.35 -70.7 15.15 M-72.35 18.05 L-72.15 18.35 Q-72.05 18.3 -72.0 18.4 L-71.55 18.95 Q-71.45 19.25 -71.5 19.6 L-71.85 20.2 -72.0 19.95 -72.2 20.1 -73.05 20.2 -73.3 20.1 Q-73.85 19.95 -73.55 19.25 L-73.55 19.2 -73.75 18.9 Q-73.95 18.65 -73.7 18.55 L-73.65 18.55 -73.4 18.85 -73.4 18.9 -73.25 18.75 -73.55 18.4 -73.5 18.35 -73.45 18.35 -73.1 18.5 -72.9 18.4 -72.9 18.3 -72.85 18.3 -72.65 18.3 -72.7 18.25 -72.65 18.2 -72.45 18.05 -72.35 18.05 M-75.4 7.15 L-75.5 7.15 Q-75.7 7.05 -75.85 6.9 -76.05 6.65 -75.85 6.5 L-75.75 6.5 -75.75 6.45 -75.55 6.75 -75.5 6.8 -75.4 7.0 -75.4 7.15 M-76.9 8.9 L-76.55 9.75 -76.6 9.65 -76.95 8.7 -76.9 8.9 M-77.6 11.95 L-77.75 11.9 -77.55 12.55 -77.5 12.65 -77.5 12.55 -77.45 12.4 Q-77.35 12.0 -77.1 12.15 L-77.1 12.1 -77.35 12.05 -77.45 12.0 -77.6 11.95 M-79.55 7.45 L-79.85 7.7 Q-80.1 7.65 -80.25 7.85 L-80.65 7.9 -80.75 7.85 -80.45 7.6 -80.15 7.5 -79.7 7.4 -79.55 7.45 M-79.0 9.9 L-79.0 9.85 -78.85 9.85 -78.7 10.05 -78.6 10.2 -78.6 10.35 Q-78.95 10.4 -79.0 10.05 L-79.0 9.9 M-79.6 15.1 L-79.75 15.1 -79.65 15.2 -79.6 15.1 M-82.5 16.5 L-82.1 16.85 -81.7 17.2 -81.65 17.1 -81.6 17.1 -82.2 16.7 -82.5 16.5 M-81.6 17.25 L-81.6 17.3 -81.55 17.3 -81.6 17.25 M-73.4 16.0 Q-73.15 16.15 -73.2 16.4 L-73.45 16.6 -73.6 16.35 -73.65 16.25 -73.75 16.3 -73.85 16.3 -73.95 16.2 -73.95 16.1 -73.9 16.05 -73.7 16.0 -73.5 16.0 -73.4 16.0 M-73.3 19.4 L-73.35 19.35 -73.4 19.35 -73.3 19.4 M-73.95 21.4 Q-74.1 21.2 -73.9 21.05 L-73.85 21.05 Q-73.8 21.05 -73.7 21.15 L-73.65 21.2 -73.5 21.15 -72.75 21.2 -72.25 21.15 -72.05 21.2 -71.9 21.55 -71.9 21.95 -72.0 22.35 -72.0 22.4 -72.1 22.4 -72.1 22.45 Q-72.15 22.6 -72.3 22.55 L-72.3 22.6 -72.2 22.65 -72.8 22.8 -73.5 22.55 -73.8 22.3 -73.8 22.25 -74.05 22.15 -74.2 22.05 -73.65 21.95 -73.6 21.9 -73.75 21.75 -73.75 21.7 -73.8 21.75 -73.9 21.7 -73.95 21.55 -73.95 21.45 -73.95 21.4 M-76.75 21.65 L-76.55 21.95 -76.5 22.25 -76.45 22.55 -76.5 22.65 -76.65 22.5 -76.9 22.1 -76.85 21.7 -76.75 21.65 M-73.05 21.85 L-73.0 21.85 -73.05 21.85 M-80.55 23.9 L-80.4 24.0 -80.4 24.05 -80.15 24.4 -80.15 24.55 -80.25 24.55 -80.3 24.55 Q-80.95 24.25 -80.6 23.9 L-80.55 23.9 M-80.25 25.95 L-80.3 26.4 -80.35 26.75 Q-80.75 26.7 -80.6 26.3 L-80.6 25.7 Q-80.75 25.4 -80.35 25.5 L-80.25 25.95 M-82.9 39.35 L-82.95 39.55 -82.95 39.6 -82.85 39.65 -82.8 39.7 -82.95 39.85 -83.1 39.85 -83.2 39.8 -83.25 39.95 -83.55 40.15 -83.6 39.8 -83.7 39.6 -83.7 39.55 -83.6 39.4 -83.35 39.25 -83.3 39.25 -83.3 39.2 -83.15 39.35 -83.0 39.3 -82.9 39.35 M-83.7 3.1 L-83.2 3.7 -83.25 3.8 Q-84.1 3.55 -83.85 3.1 L-83.75 3.1 -83.7 3.1 M-84.1 13.75 Q-83.95 13.95 -84.05 14.2 L-84.1 14.7 -84.1 15.25 -84.15 15.3 -84.45 14.8 -84.45 14.15 -84.2 13.75 -84.1 13.75 M-87.7 16.8 L-87.7 16.75 -87.65 16.75 -87.6 16.8 -87.0 17.4 -87.0 17.55 -87.05 17.6 -87.5 17.6 -87.55 17.55 Q-87.95 17.1 -87.7 16.8 M-91.55 20.65 L-91.55 20.8 -91.1 21.4 -91.15 21.5 Q-91.75 21.35 -91.85 20.7 L-91.85 20.6 -91.85 20.5 -91.7 20.25 -91.65 20.25 -91.6 20.3 -91.55 20.45 -91.55 20.6 -91.55 20.65 M-89.8 25.1 L-89.6 25.0 -89.45 25.0 -89.55 25.2 -89.75 25.35 -89.75 25.6 Q-90.05 25.65 -89.95 25.25 L-89.8 25.1 M-89.1 26.55 L-89.05 26.65 -89.05 26.7 -88.95 26.65 Q-89.05 26.25 -89.1 26.55 M-85.4 29.15 L-85.35 29.35 -85.35 29.3 -85.25 29.2 -85.35 29.1 -85.4 29.15 M-85.0 30.55 L-85.05 30.65 -85.15 30.55 -85.05 30.5 -85.0 30.55 M-87.4 32.75 L-87.45 32.8 -87.4 32.8 -87.4 32.75" fill="#650040" fill-rule="evenodd" stroke="none"/>
      <path d="M-99.2 -19.8 L-107.6 -20.0 Q-109.7 -22.5 -107.3 -25.2 L-99.3 -24.95 Q-99.2 -36.95 -95.25 -41.5 -93.5 -42.55 -91.6 -43.1 -84.25 -45.35 -75.3 -40.5 -72.25 -33.35 -70.8 -24.1 L107.65 -18.65 Q109.75 -16.7 107.3 -14.55 L-70.1 -19.05 Q-69.3 -10.9 -69.55 -1.35 L-69.9 5.95 -70.25 10.65 -70.3 11.05 -70.3 11.3 -70.35 11.7 -70.7 15.15 M-70.7 15.35 L-70.75 15.5 M-70.8 15.8 Q-71.85 25.0 -73.65 35.35 L-74.7 40.85 Q-80.9 47.05 -87.7 40.6 L-89.9 32.15 -90.85 28.3 Q-98.35 -2.1 -99.2 -19.8 L-95.0 -19.65 Q-92.9 -22.35 -95.05 -24.85 L-99.3 -24.95 M-70.8 -24.1 L-70.1 -19.05 M-70.8 15.8 L-70.75 15.65 -70.75 15.5 M-70.7 15.35 L-70.7 15.15" fill="none" stroke="#000000" stroke-linecap="round" stroke-linejoin="round" stroke-width="3.0"/>
    </g>
  </defs>
</svg>
