<?xml version="1.0" encoding="UTF-8" standalone="no"?>
<svg xmlns:xlink="http://www.w3.org/1999/xlink" height="233.15px" width="217.4px" xmlns="http://www.w3.org/2000/svg">
  <g transform="matrix(1, 0, 0, 1, 105.85, 323.5)">
    <path d="M0.0 -320.75 Q4.3 -323.5 9.35 -323.5 41.6 -323.5 66.5 -300.2 L66.55 -300.15 Q91.0 -278.55 96.45 -260.8 101.9 -243.1 99.3 -225.75 L99.0 -225.15 98.4 -224.9 97.75 -225.05 97.35 -225.6 Q88.75 -256.35 86.55 -256.55 85.5 -256.55 84.8 -256.1 L84.15 -255.7 Q84.0 -254.6 84.0 -253.3 87.8 -238.1 87.8 -234.85 L88.3 -221.6 88.15 -220.95 87.6 -220.6 87.0 -220.6 86.5 -221.0 Q79.2 -231.8 68.6 -243.9 59.2 -254.6 53.55 -267.4 L52.05 -271.0 Q51.5 -271.65 50.8 -271.65 L50.3 -271.7 Q50.4 -245.95 44.55 -240.35 44.3 -240.1 43.95 -240.05 L43.35 -240.2 42.9 -240.7 Q38.65 -253.0 34.3 -260.75 L27.65 -271.9 24.6 -275.95 Q24.3 -276.2 24.3 -276.55 23.9 -279.95 21.6 -280.05 L19.85 -279.6 19.25 -279.2 Q18.35 -265.15 14.85 -250.55 L14.5 -250.0 13.9 -249.8 Q13.55 -249.8 13.3 -249.95 L12.9 -250.45 Q7.95 -264.6 5.8 -269.65 1.0 -280.75 -1.75 -281.0 -3.8 -281.0 -4.2 -278.85 L-4.4 -278.35 Q-6.95 -275.5 -11.75 -268.4 -20.2 -255.85 -21.8 -254.0 -22.0 -253.8 -22.3 -253.7 L-22.85 -253.7 -23.35 -254.05 -23.55 -254.3 -23.75 -254.7 -23.75 -255.2 Q-22.7 -259.6 -24.0 -268.05 L-24.05 -268.05 Q-25.15 -275.15 -26.7 -276.2 L-38.05 -257.1 Q-50.95 -235.55 -56.75 -228.4 -56.95 -228.15 -57.25 -228.05 L-57.85 -228.1 -58.35 -228.45 -58.55 -229.05 -58.55 -246.75 -61.0 -246.05 Q-65.25 -244.0 -64.45 -228.8 -64.05 -220.85 -63.2 -217.15 -62.85 -215.5 -62.4 -214.8 L-62.4 -214.7 -62.05 -214.75 -61.5 -214.75 Q-60.9 -214.8 -60.05 -215.35 L-59.3 -215.45 Q-58.9 -215.4 -58.65 -215.05 -58.45 -214.75 -58.5 -214.3 L-59.0 -211.1 Q-60.75 -198.7 -60.75 -189.15 -58.95 -173.0 -58.95 -170.6 L-59.2 -169.9 -59.85 -169.6 -60.3 -169.55 -60.8 -169.65 -61.25 -169.95 -61.4 -170.45 Q-61.55 -171.85 -62.3 -173.65 -63.55 -176.55 -65.75 -176.65 -67.4 -176.65 -68.15 -175.85 L-68.35 -174.4 Q-66.85 -168.25 -63.95 -162.3 L-62.75 -160.0 -62.6 -159.6 Q-62.4 -157.7 -61.8 -155.8 L-61.8 -155.15 Q-62.2 -154.15 -62.1 -151.8 -50.45 -141.35 -46.2 -138.6 -30.05 -128.25 -12.15 -128.25 4.85 -128.25 24.25 -133.35 42.6 -138.2 58.9 -146.4 L70.15 -152.15 70.85 -152.2 71.45 -151.75 71.6 -151.05 Q70.25 -142.9 81.75 -130.05 84.35 -130.4 84.35 -133.7 84.35 -139.35 87.65 -145.55 87.85 -145.9 88.2 -146.05 L88.95 -146.0 89.45 -145.45 Q92.25 -138.35 92.2 -136.65 92.2 -124.6 82.5 -116.3 75.75 -110.55 61.6 -104.95 43.3 -97.8 41.05 -96.65 L41.1 -96.65 Q35.9 -93.95 33.7 -90.75 L33.25 -90.4 32.65 -90.35 29.9 -91.15 Q22.5 -93.35 20.4 -100.75 L20.4 -100.8 Q19.85 -102.35 16.3 -103.75 11.5 -105.7 4.6 -105.95 L4.55 -105.95 Q-4.2 -106.3 -10.55 -109.05 L-10.9 -109.3 -11.1 -109.65 -11.4 -110.55 -11.45 -110.8 Q-11.7 -113.55 -14.45 -113.55 L-18.15 -111.95 -18.2 -111.95 Q-22.7 -110.25 -26.2 -110.25 -34.75 -110.25 -38.45 -112.15 -40.35 -113.05 -41.2 -113.6 L-41.95 -114.1 -42.25 -114.45 -42.35 -114.6 -42.65 -114.85 -44.6 -116.3 -52.85 -122.05 Q-63.85 -129.55 -77.75 -135.25 -92.25 -141.2 -96.4 -156.9 L-97.1 -159.45 -97.15 -159.75 -97.15 -159.8 Q-97.15 -162.6 -98.35 -164.7 L-101.2 -168.15 Q-105.85 -173.2 -105.85 -180.25 -105.95 -181.35 -104.15 -183.95 L-104.2 -183.95 -100.8 -188.9 Q-96.2 -196.35 -96.2 -202.9 -96.2 -206.85 -100.0 -235.55 L-100.0 -235.7 Q-100.05 -243.15 -93.3 -260.1 -87.1 -275.85 -82.85 -281.4 L-72.7 -294.8 Q-69.05 -299.8 -57.55 -308.3 -46.05 -316.9 -28.65 -318.05 L-8.3 -319.55 -7.5 -319.65 -7.3 -319.65 -7.05 -319.65 -2.95 -319.15 -2.75 -319.1 -2.6 -319.05 0.05 -320.75 0.0 -320.75 M92.85 -217.4 L93.45 -217.15 93.8 -216.55 Q95.9 -203.75 101.3 -191.55 L101.35 -191.5 109.5 -175.15 Q113.05 -168.05 110.5 -159.55 L110.15 -159.05 109.55 -158.85 108.95 -159.05 Q108.7 -159.25 108.6 -159.55 106.3 -167.05 102.8 -170.95 L102.75 -170.85 Q97.75 -157.95 98.75 -150.8 L98.6 -150.1 Q98.4 -149.8 98.05 -149.7 L97.35 -149.75 96.85 -150.25 Q96.35 -151.35 95.45 -151.8 95.15 -151.9 95.0 -152.15 L94.35 -153.3 Q93.65 -154.35 93.75 -162.2 93.3 -168.7 92.0 -171.7 L91.9 -172.15 92.05 -172.6 Q94.6 -177.05 94.6 -181.15 L93.35 -185.2 89.5 -194.9 Q83.95 -207.95 83.65 -209.8 83.4 -211.05 83.3 -213.05 L83.5 -213.65 83.95 -214.05 84.6 -214.1 85.1 -213.75 87.95 -210.15 Q90.7 -210.75 91.85 -216.6 L92.2 -217.2 92.85 -217.4 M86.5 -165.45 Q86.75 -165.7 87.1 -165.75 L87.8 -165.55 88.2 -164.95 88.6 -162.3 Q88.6 -157.8 86.25 -153.6 84.75 -151.0 80.45 -145.85 80.15 -145.55 79.8 -145.5 L79.1 -145.65 Q75.85 -147.9 75.95 -150.55 75.9 -151.95 77.05 -153.95 77.85 -155.5 77.85 -156.5 L77.85 -156.55 Q77.7 -157.4 84.65 -163.6 L84.7 -163.65 86.5 -165.45 M-3.05 -318.8 L-2.85 -318.9 -5.5 -318.45 -5.85 -318.3 Q-6.6 -317.9 -6.35 -317.35 -6.5 -316.8 -5.7 -316.45 L-5.15 -316.35 -3.65 -316.3 Q-3.5 -316.15 -2.05 -317.1 L-1.6 -317.6 -1.6 -318.3 -1.7 -318.45 -2.05 -318.8 -2.6 -318.95 -3.05 -318.8 M-3.65 -318.3 L-3.1 -318.8 -2.75 -317.9 -2.75 -317.8 -2.45 -316.95 -4.8 -316.6 Q-5.45 -316.25 -4.5 -317.3 L-4.35 -317.5 -4.55 -317.65 Q-5.6 -318.6 -4.95 -318.3 L-4.1 -318.3 -3.65 -318.3 M-42.15 -115.7 L-42.15 -115.75 -42.15 -115.7" fill="#f5faba" fill-rule="evenodd" stroke="none"/>
    <path d="M-3.65 -318.3 L-4.1 -318.3 -4.95 -318.3 Q-5.6 -318.6 -4.55 -317.65 L-4.35 -317.5 -4.5 -317.3 Q-5.45 -316.25 -4.8 -316.6 L-2.45 -316.95 -2.75 -317.8 -2.75 -317.9 -3.1 -318.8 -3.65 -318.3 M-3.05 -318.8 L-2.6 -318.95 -2.05 -318.8 -1.7 -318.45 -1.6 -318.3 -1.6 -317.6 -2.05 -317.1 Q-3.5 -316.15 -3.65 -316.3 L-5.15 -316.35 -5.7 -316.45 Q-6.5 -316.8 -6.35 -317.35 -6.6 -317.9 -5.85 -318.3 L-5.5 -318.45 -2.85 -318.9 -3.05 -318.8" fill="#000000" fill-rule="evenodd" stroke="none"/>
  </g>
</svg>
