<?xml version="1.0" encoding="UTF-8" standalone="no"?>
<svg xmlns:xlink="http://www.w3.org/1999/xlink" height="237.65px" width="208.35px" xmlns="http://www.w3.org/2000/svg">
  <g transform="matrix(1, 0, 0, 1, 107.15, 318.15)">
    <path d="M60.45 -303.65 Q81.7 -290.3 86.55 -275.4 91.35 -260.75 95.0 -245.6 L98.95 -228.8 99.05 -228.45 99.0 -227.7 98.45 -227.2 Q98.05 -227.05 97.7 -227.2 85.95 -232.2 82.5 -236.2 78.85 -240.4 72.8 -249.2 67.25 -257.25 66.7 -257.5 65.35 -257.5 64.7 -256.75 L74.7 -237.1 74.75 -236.4 74.35 -235.8 73.65 -235.65 Q67.2 -236.4 62.45 -241.15 57.85 -245.8 53.9 -253.75 50.4 -260.9 47.45 -263.05 L47.4 -263.1 47.4 -263.05 Q43.6 -251.65 34.2 -242.85 L33.5 -242.55 Q33.1 -242.55 32.85 -242.8 L32.5 -243.45 Q32.45 -243.85 32.7 -244.15 34.15 -246.35 32.05 -257.15 29.7 -269.15 27.55 -270.0 L27.55 -269.95 26.1 -270.4 27.8 -252.45 27.6 -251.8 Q27.4 -251.55 27.05 -251.45 L26.4 -251.45 Q15.45 -255.95 5.55 -268.2 -3.5 -255.85 -6.15 -252.85 -9.0 -249.7 -19.8 -242.35 -30.6 -235.0 -35.75 -233.3 L-36.35 -233.3 Q-36.7 -233.4 -36.85 -233.6 L-37.1 -234.2 -36.95 -234.75 -22.95 -256.85 -23.1 -257.6 Q-23.55 -259.3 -24.75 -259.35 -26.35 -259.1 -38.6 -239.95 -51.1 -220.55 -51.0 -215.25 L-51.15 -214.7 -51.6 -214.3 -52.25 -214.25 -52.75 -214.6 Q-60.3 -223.25 -60.3 -232.2 -60.4 -240.85 -53.6 -258.65 L-53.7 -258.95 -54.5 -258.8 Q-58.25 -257.15 -61.7 -241.6 -65.25 -225.95 -61.9 -221.35 -58.3 -216.55 -54.0 -210.35 L-53.85 -209.65 -54.2 -209.05 Q-54.5 -208.8 -54.85 -208.8 -63.65 -209.05 -68.35 -218.05 L-71.3 -224.15 Q-73.45 -220.05 -77.65 -217.4 L-78.4 -217.25 -79.05 -217.7 -79.15 -218.45 Q-76.65 -230.05 -76.75 -245.6 -76.85 -260.85 -65.85 -275.5 -73.2 -275.3 -76.85 -265.45 -81.2 -253.75 -80.85 -240.8 L-80.55 -226.2 Q-80.55 -221.5 -83.45 -216.25 -85.85 -212.0 -86.1 -210.5 -81.0 -209.75 -78.4 -213.1 L-77.9 -213.45 -77.25 -213.45 -76.8 -213.05 -76.6 -212.5 Q-76.45 -178.2 -69.0 -146.7 L-69.1 -146.0 Q-69.3 -145.65 -69.7 -145.55 L-70.4 -145.6 Q-72.2 -146.45 -74.0 -146.55 L-77.25 -140.15 -77.65 -139.7 -78.2 -139.6 Q-90.5 -140.65 -94.3 -145.1 -98.15 -149.45 -99.25 -153.05 -100.0 -155.55 -101.1 -156.85 -103.15 -154.8 -103.85 -148.6 L-104.15 -148.0 Q-104.4 -147.8 -104.75 -147.75 L-105.4 -147.9 -105.8 -148.45 Q-108.4 -158.0 -105.9 -166.6 -103.6 -174.9 -95.8 -184.25 -105.7 -197.55 -105.3 -217.1 -104.95 -236.95 -102.15 -246.2 -99.4 -255.5 -91.95 -269.6 -84.55 -283.7 -72.4 -294.7 -60.2 -305.75 -47.65 -310.5 -35.15 -315.3 -9.9 -318.1 L-9.8 -318.1 Q-1.3 -318.3 12.45 -317.8 39.3 -316.85 60.45 -303.65 M84.3 -227.3 L85.0 -227.1 Q88.0 -224.9 91.2 -223.35 L91.55 -223.05 91.7 -222.6 Q93.0 -215.7 92.2 -193.4 L91.95 -192.75 91.4 -192.45 90.75 -192.55 Q90.4 -192.7 90.3 -193.0 L89.5 -194.9 Q83.95 -207.95 83.65 -209.8 83.15 -212.4 83.25 -218.2 L83.4 -226.35 83.65 -227.0 Q83.9 -227.3 84.3 -227.3 M96.7 -176.1 L97.35 -176.35 97.95 -176.1 98.3 -175.5 100.5 -161.45 101.2 -150.8 101.0 -150.15 Q100.8 -149.85 100.45 -149.75 L99.8 -149.85 99.3 -150.3 97.5 -153.95 93.45 -149.9 Q91.1 -147.6 90.35 -148.15 89.2 -148.25 89.65 -149.9 L90.25 -151.45 90.3 -151.5 90.3 -151.55 Q93.25 -160.65 94.45 -166.0 L96.35 -175.5 96.7 -176.1 M88.05 -166.8 L88.7 -166.7 89.15 -166.25 89.2 -165.6 85.7 -152.35 Q83.6 -145.5 82.1 -139.1 L81.75 -138.6 81.2 -138.35 80.65 -138.45 Q80.35 -138.6 80.2 -138.9 76.35 -146.85 74.65 -154.9 L74.7 -155.45 75.0 -155.9 Q82.7 -161.75 84.65 -163.6 L87.5 -166.5 88.05 -166.8 M85.75 -117.75 Q87.4 -109.75 87.7 -106.75 88.0 -103.7 87.0 -97.6 86.0 -91.7 82.65 -81.2 L82.25 -80.65 81.6 -80.5 Q81.2 -80.55 80.95 -80.8 L80.7 -81.45 Q80.25 -92.1 77.9 -101.2 75.45 -110.65 76.35 -116.3 77.15 -121.85 80.15 -127.9 L80.15 -127.95 80.35 -128.5 80.85 -128.9 81.45 -128.9 81.95 -128.55 Q84.0 -126.05 85.75 -117.75 M71.0 -151.7 L72.2 -148.1 Q72.65 -147.6 70.8 -145.7 L67.8 -142.5 Q65.8 -140.15 61.1 -140.15 L52.4 -141.1 52.2 -141.15 Q51.85 -141.2 51.65 -141.4 L51.35 -142.0 51.45 -142.6 51.95 -143.05 58.9 -146.4 Q64.6 -149.25 69.5 -152.25 L70.1 -152.4 70.65 -152.15 71.0 -151.7 M-71.05 -215.35 Q-65.25 -207.0 -57.1 -205.55 L-52.85 -204.95 -52.15 -204.6 -51.9 -203.9 Q-52.5 -177.5 -55.55 -160.2 -58.7 -142.65 -60.1 -136.8 -60.2 -136.45 -60.45 -136.25 L-61.1 -136.05 -61.7 -136.25 -62.05 -136.8 Q-63.35 -142.35 -65.7 -150.05 L-65.7 -150.1 Q-68.05 -157.95 -69.7 -170.7 -71.35 -183.4 -72.9 -214.75 L-72.7 -215.35 Q-72.55 -215.65 -72.2 -215.75 L-71.6 -215.75 -71.05 -215.35 M-58.45 -127.65 L-58.05 -127.3 Q-55.6 -123.3 -55.05 -120.35 -54.8 -119.1 -54.8 -112.55 -54.8 -106.05 -57.95 -95.1 -61.1 -84.1 -63.25 -81.2 L-63.6 -80.9 -64.05 -80.8 -64.95 -80.8 -65.45 -80.95 -65.85 -81.35 -65.95 -81.9 Q-65.05 -90.05 -66.4 -97.55 -67.9 -105.4 -67.45 -110.15 L-67.4 -110.25 Q-64.55 -128.0 -59.85 -127.75 L-59.0 -127.75 -58.45 -127.65" fill="#ffff80" fill-rule="evenodd" stroke="none"/>
  </g>
</svg>
