<?xml version="1.0" encoding="UTF-8" standalone="no"?>
<svg xmlns:xlink="http://www.w3.org/1999/xlink" height="210.65px" width="205.05px" xmlns="http://www.w3.org/2000/svg">
  <g transform="matrix(1, 0, 0, 1, 103.1, 319.7)">
    <path d="M50.95 -267.4 Q51.05 -261.65 59.2 -252.1 66.15 -244.0 74.7 -237.45 L75.1 -236.85 75.0 -236.15 74.7 -235.65 74.15 -235.2 73.45 -235.25 68.45 -237.45 Q54.75 -243.65 46.3 -251.55 L46.3 -251.6 46.25 -251.65 46.2 -251.65 Q44.85 -252.95 36.2 -265.4 32.0 -271.4 29.65 -273.1 28.95 -273.65 28.55 -273.6 L28.25 -273.05 Q33.45 -258.55 36.4 -254.55 39.4 -250.5 44.9 -244.45 L45.15 -243.85 44.95 -243.2 44.4 -242.8 43.75 -242.9 Q27.5 -250.55 16.4 -264.4 11.85 -270.1 8.55 -275.7 8.35 -276.05 8.45 -276.45 9.05 -279.1 9.05 -281.4 L9.05 -281.5 Q9.3 -283.2 8.7 -284.05 8.0 -284.8 6.5 -284.8 L6.65 -284.5 -2.8 -267.7 -2.75 -267.75 Q-13.3 -249.2 -25.35 -234.95 L-27.1 -232.95 -27.7 -232.6 -28.4 -232.75 -28.8 -233.35 -28.7 -234.05 -28.25 -234.95 -25.75 -240.35 -25.7 -240.4 -25.6 -240.65 Q-23.5 -245.85 -21.5 -252.65 -18.1 -264.7 -18.1 -267.3 -18.1 -269.05 -18.35 -269.8 L-19.3 -270.5 -19.35 -270.55 -20.65 -270.7 Q-20.35 -270.5 -32.15 -240.0 L-32.55 -239.5 -33.15 -239.35 Q-33.5 -239.4 -33.7 -239.6 L-34.05 -240.1 Q-35.05 -244.45 -35.55 -251.0 -36.1 -257.65 -32.05 -267.35 L-25.7 -281.95 -25.7 -282.4 -36.45 -268.8 Q-52.35 -249.05 -62.0 -238.75 L-62.55 -238.45 -63.15 -238.55 -63.6 -238.95 -63.75 -239.55 Q-61.3 -260.8 -53.7 -274.3 L-56.55 -271.3 Q-61.8 -265.5 -65.35 -253.2 L-65.7 -252.7 -66.3 -252.5 Q-67.4 -252.4 -70.8 -249.55 L-71.3 -249.35 -71.8 -249.4 -72.25 -249.75 Q-73.45 -251.3 -75.85 -251.3 L-76.55 -251.55 -76.85 -252.15 Q-77.05 -253.65 -78.45 -253.7 -81.4 -253.7 -81.5 -251.05 L-81.5 -251.0 Q-81.25 -247.25 -80.6 -244.7 L-80.7 -244.0 Q-82.05 -241.5 -81.65 -234.95 L-81.5 -232.95 -81.5 -232.85 -80.85 -210.5 -80.9 -210.15 Q-83.9 -200.45 -84.6 -180.65 -85.1 -166.85 -80.45 -154.1 L-80.45 -153.45 Q-80.55 -153.15 -80.8 -152.95 L-81.45 -152.75 Q-83.8 -152.85 -88.3 -155.25 -92.9 -157.65 -95.3 -165.25 -97.25 -171.4 -98.25 -176.85 L-101.35 -173.6 Q-101.6 -173.35 -101.9 -173.3 L-102.5 -173.4 -102.95 -173.8 -103.1 -174.4 -101.75 -185.95 -101.25 -191.65 Q-100.25 -204.05 -99.35 -221.1 L-99.3 -221.2 -99.05 -223.15 Q-98.7 -229.25 -98.0 -234.95 -95.25 -257.9 -86.95 -274.25 -79.1 -289.8 -67.15 -298.85 -54.65 -308.4 -45.95 -311.65 -37.3 -314.9 -19.9 -317.45 L-19.85 -317.45 -17.4 -317.8 -17.2 -317.85 10.2 -319.7 Q59.15 -319.75 87.3 -268.55 92.05 -260.0 101.9 -238.05 L101.9 -237.35 101.5 -236.8 100.8 -236.65 Q100.4 -236.75 100.15 -237.0 82.15 -260.1 80.35 -260.35 L78.4 -260.05 78.65 -259.65 Q87.5 -246.45 91.2 -234.95 L92.85 -228.7 92.75 -228.05 92.3 -227.6 91.6 -227.5 Q91.25 -227.6 91.05 -227.9 88.4 -231.4 84.8 -234.95 81.15 -238.6 76.6 -242.3 68.55 -248.9 65.3 -252.35 62.2 -255.5 53.0 -271.55 50.95 -271.05 50.95 -267.4 M90.1 -167.5 L90.25 -166.85 Q89.55 -159.45 89.55 -155.55 89.55 -145.2 93.8 -135.65 L93.75 -135.65 96.7 -129.0 Q98.1 -125.3 98.1 -122.3 98.15 -117.8 94.35 -109.65 L93.95 -109.2 93.3 -109.05 Q92.95 -109.15 92.75 -109.35 L92.45 -109.95 Q91.85 -115.1 90.1 -119.45 88.2 -124.15 84.1 -129.5 78.9 -136.4 77.95 -138.0 75.0 -143.1 75.0 -148.75 L75.05 -148.9 Q75.75 -153.15 75.3 -155.45 L75.35 -156.0 75.65 -156.45 Q82.1 -161.2 84.65 -163.6 L88.5 -167.6 89.0 -167.95 89.6 -167.9 90.1 -167.5 M-71.4 -204.3 L-70.95 -203.85 Q-69.85 -201.65 -67.95 -201.6 L-66.7 -201.85 -66.7 -201.9 -65.95 -202.9 Q-65.75 -203.25 -65.35 -203.3 L-64.6 -203.2 -64.15 -202.65 -63.6 -201.5 Q-63.1 -200.9 -62.05 -200.8 -61.65 -200.8 -61.4 -200.45 L-61.15 -199.75 Q-62.15 -181.35 -58.9 -167.65 L-56.3 -156.75 Q-55.15 -151.05 -55.15 -146.5 -55.15 -140.1 -58.65 -119.25 L-59.0 -118.65 -59.65 -118.45 Q-60.05 -118.45 -60.3 -118.7 L-60.65 -119.3 Q-62.0 -129.05 -63.5 -132.35 -65.1 -135.75 -70.7 -142.95 -76.55 -150.5 -78.35 -161.5 -80.2 -172.3 -80.2 -186.2 -80.2 -189.7 -77.85 -201.4 L-77.5 -202.0 -76.8 -202.2 -76.3 -202.2 Q-74.65 -202.2 -73.75 -202.85 L-73.7 -202.9 -72.65 -204.0 -72.1 -204.35 -71.4 -204.3" fill="#283960" fill-rule="evenodd" stroke="none"/>
  </g>
</svg>
