<?xml version="1.0" encoding="UTF-8" standalone="no"?>
<svg xmlns:xlink="http://www.w3.org/1999/xlink" height="185.25px" width="217.25px" xmlns="http://www.w3.org/2000/svg">
  <g transform="matrix(1, 0, 0, 1, 108.35, 320.0)">
    <path d="M51.15 -306.25 Q69.9 -295.65 91.45 -289.2 L92.05 -288.7 92.15 -287.95 91.65 -287.35 81.95 -281.7 86.8 -274.9 Q92.3 -267.25 93.85 -253.1 95.35 -239.4 99.75 -229.25 L99.8 -228.6 99.5 -228.1 98.9 -227.85 98.3 -227.95 95.4 -228.55 Q93.45 -228.8 93.35 -229.0 L93.95 -219.75 Q94.55 -209.8 95.15 -204.45 96.9 -189.0 108.5 -180.5 L108.85 -180.05 108.9 -179.45 108.6 -178.95 100.55 -171.7 107.45 -168.55 107.85 -168.2 108.0 -167.65 107.9 -167.15 Q104.05 -160.25 96.35 -155.8 89.6 -151.95 85.75 -151.75 86.25 -148.95 89.05 -144.8 L89.2 -144.15 88.9 -143.5 88.3 -143.25 70.3 -142.5 62.55 -142.6 64.65 -137.95 64.7 -137.35 64.4 -136.8 Q64.15 -136.6 63.85 -136.55 51.6 -135.0 46.7 -139.5 46.4 -139.75 46.4 -140.05 46.3 -140.45 46.5 -140.75 46.65 -141.05 47.0 -141.15 L54.85 -144.4 58.9 -146.4 Q65.75 -149.85 71.45 -153.45 L71.65 -153.55 Q81.35 -160.5 84.65 -163.6 94.5 -173.05 94.6 -181.15 L93.35 -185.2 89.5 -194.9 Q83.95 -207.95 83.65 -209.8 83.15 -212.4 83.25 -218.2 L83.4 -226.5 Q83.4 -226.95 83.7 -227.25 84.0 -227.55 84.4 -227.5 L86.3 -227.6 Q79.9 -233.45 75.9 -242.85 71.9 -252.2 69.05 -260.75 L65.2 -254.85 Q61.3 -248.65 55.7 -243.65 55.4 -243.4 55.05 -243.4 54.7 -243.4 54.4 -243.6 54.1 -243.8 54.05 -244.15 L54.1 -244.85 Q60.15 -256.85 58.5 -264.0 54.45 -255.45 40.3 -246.65 24.1 -236.6 11.6 -238.3 11.2 -238.35 11.0 -238.6 L10.7 -239.2 Q10.65 -239.55 10.9 -239.85 L11.4 -240.25 Q12.85 -240.75 16.35 -242.75 36.75 -254.65 29.75 -269.3 28.0 -263.05 24.7 -256.75 16.6 -241.4 -4.8 -238.05 L-5.5 -238.2 -5.9 -238.8 -5.8 -239.5 Q-3.0 -244.65 -1.6 -253.85 -0.2 -263.2 -4.35 -270.05 -8.3 -257.35 -15.25 -250.15 -22.65 -242.5 -28.6 -238.7 L-29.25 -238.55 Q-29.65 -238.6 -29.85 -238.85 L-30.15 -239.45 -31.7 -260.4 -33.8 -252.65 Q-37.3 -239.4 -39.05 -235.75 -41.4 -230.7 -46.6 -224.5 -51.75 -218.5 -56.3 -215.2 -56.65 -214.95 -57.0 -215.0 -57.4 -215.05 -57.65 -215.3 L-57.9 -216.0 -56.7 -233.2 Q-56.3 -242.6 -56.95 -246.85 -58.75 -239.35 -60.75 -225.95 -63.45 -207.8 -59.35 -197.45 L-59.3 -196.8 -59.7 -196.3 -60.3 -196.1 -60.9 -196.3 Q-69.35 -203.15 -72.85 -211.65 L-74.35 -216.0 -73.6 -208.75 Q-72.3 -199.9 -65.1 -194.45 -64.85 -194.25 -64.75 -193.85 -63.05 -186.85 -61.35 -181.05 -59.65 -175.35 -53.85 -167.0 -53.7 -166.75 -53.7 -166.35 L-53.95 -165.75 Q-54.2 -165.5 -54.5 -165.45 L-66.05 -165.0 Q-63.7 -159.45 -57.15 -150.7 -56.9 -150.35 -56.95 -149.95 -57.0 -149.55 -57.35 -149.3 -57.65 -149.05 -58.05 -149.1 -72.2 -150.85 -79.95 -170.6 -81.4 -164.05 -74.5 -155.4 -63.85 -142.15 -52.0 -142.65 L-51.3 -142.4 -46.55 -138.8 -46.2 -138.6 -44.55 -137.55 -44.5 -137.55 -42.95 -136.65 -42.55 -136.15 Q-42.4 -135.8 -42.5 -135.45 L-42.9 -134.95 -43.55 -134.75 Q-61.55 -136.45 -75.65 -145.85 -75.55 -143.6 -75.05 -140.6 -75.0 -140.2 -75.2 -139.85 -75.45 -139.55 -75.85 -139.45 L-76.55 -139.6 Q-84.0 -144.25 -90.0 -151.0 -96.05 -157.85 -98.9 -168.65 -101.5 -178.55 -101.6 -190.65 -103.6 -189.55 -105.8 -187.45 -106.1 -187.2 -106.45 -187.2 L-107.1 -187.4 -107.45 -187.95 Q-109.85 -198.0 -105.8 -216.15 -101.85 -234.1 -99.8 -239.85 L-99.65 -240.2 -101.65 -239.5 -102.4 -239.55 -102.9 -240.05 -102.9 -240.8 Q-93.8 -263.85 -81.8 -282.45 -73.8 -294.85 -53.8 -304.5 L-56.2 -311.35 -56.2 -311.95 -55.8 -312.45 -55.25 -312.65 Q-52.15 -312.65 -34.15 -315.15 L-15.8 -317.85 Q-0.25 -321.8 17.65 -318.55 34.9 -315.5 51.15 -306.25" fill="#e3bbff" fill-rule="evenodd" stroke="none"/>
  </g>
</svg>
