<?xml version="1.0" encoding="UTF-8" standalone="no"?>
<svg xmlns:xlink="http://www.w3.org/1999/xlink" height="93.45px" width="128.15px" xmlns="http://www.w3.org/2000/svg">
  <g transform="matrix(1, 0, 0, 1, 75.95, 346.4)">
    <path d="M13.9 -326.0 L17.25 -304.65 Q17.85 -300.85 18.4 -298.1 L19.3 -293.45 22.3 -297.6 26.0 -303.0 33.35 -314.0 Q47.95 -336.05 50.3 -342.15 L50.75 -342.65 51.45 -342.75 52.0 -342.4 52.2 -341.7 Q50.65 -318.0 44.95 -295.4 L43.5 -290.05 Q38.35 -271.4 30.3 -253.55 L29.9 -253.1 29.35 -252.95 28.8 -253.15 Q28.55 -253.35 28.45 -253.65 22.95 -270.0 6.3 -282.35 -6.7 -292.0 -26.95 -293.0 -32.6 -293.3 -38.85 -292.9 L-39.45 -293.1 -39.85 -293.6 -40.25 -294.65 -40.45 -295.1 Q-42.15 -298.6 -44.25 -307.3 -46.55 -316.85 -45.9 -319.65 L-45.5 -320.25 -44.8 -320.45 Q-44.45 -320.4 -44.2 -320.1 L-34.3 -308.95 Q-28.9 -303.3 -25.85 -301.6 L-24.65 -301.1 -24.2 -302.05 -24.2 -302.1 Q-23.3 -304.25 -23.25 -306.8 -23.2 -310.1 -21.55 -319.65 -20.05 -328.8 -19.15 -331.8 L-18.8 -332.3 -18.25 -332.5 -17.65 -332.35 -17.25 -331.85 -11.3 -317.35 Q-7.8 -308.85 -5.4 -305.35 -4.15 -303.65 -3.4 -303.4 L-2.75 -303.1 -2.6 -302.85 -1.9 -303.35 -0.6 -305.65 Q1.6 -310.05 4.45 -319.5 8.2 -331.95 10.15 -336.6 L9.15 -343.85 8.95 -345.1 Q8.7 -347.45 10.9 -345.6 L10.95 -345.35 11.0 -344.9 13.9 -326.0 M-48.75 -289.35 Q-48.45 -289.35 -48.2 -289.15 L-47.85 -288.65 -47.85 -288.05 -48.2 -287.55 -52.25 -284.3 Q-58.45 -279.05 -63.6 -272.65 L-64.05 -272.3 -64.6 -272.3 -65.05 -272.55 -66.3 -273.65 Q-70.55 -277.05 -72.9 -282.1 L-72.9 -282.15 Q-73.55 -283.55 -74.7 -284.6 L-74.75 -284.65 -75.6 -285.45 -75.95 -286.05 -75.75 -286.75 Q-75.55 -287.1 -75.15 -287.15 -63.7 -289.85 -49.15 -289.35 L-48.75 -289.35 M-69.3 -263.2 L-70.15 -259.35 -70.45 -258.75 Q-70.7 -258.55 -71.0 -258.45 L-71.6 -258.55 -72.0 -258.7 -71.9 -258.7 Q-72.5 -258.85 -73.0 -259.35 L-73.9 -260.4 -74.45 -261.45 -74.5 -261.8 Q-74.5 -263.25 -73.65 -263.25 L-73.7 -263.2 -70.65 -264.45 Q-70.3 -264.65 -69.9 -264.45 L-69.35 -263.95 Q-69.15 -263.6 -69.3 -263.2" fill="#298975" fill-rule="evenodd" stroke="none"/>
  </g>
</svg>
