<?xml version="1.0" encoding="UTF-8" standalone="no"?>
<svg xmlns:xlink="http://www.w3.org/1999/xlink" height="288.95px" width="233.25px" xmlns="http://www.w3.org/2000/svg">
  <g transform="matrix(1, 0, 0, 1, 117.65, 316.1)">
    <path d="M8.3 -297.35 L8.35 -296.8 Q3.3 -274.9 -18.65 -249.15 -40.8 -223.2 -63.8 -225.05 L-64.4 -225.3 -64.7 -225.9 -64.6 -226.5 -64.15 -226.95 Q-47.4 -234.1 -41.0 -263.8 -34.35 -294.7 -11.8 -303.3 L-11.65 -303.35 Q-5.1 -304.75 1.05 -302.35 4.3 -301.2 8.05 -297.75 L8.3 -297.35 M14.55 -301.45 L14.2 -300.95 13.6 -300.8 13.05 -300.8 12.1 -300.7 Q11.7 -300.65 11.4 -300.9 6.95 -304.25 1.85 -306.45 -3.4 -308.8 -15.5 -312.4 -15.85 -312.5 -16.05 -312.75 L-16.25 -313.4 -16.0 -314.0 -15.45 -314.3 Q4.05 -318.5 24.95 -313.0 L25.55 -312.55 25.65 -311.85 25.3 -311.25 Q22.5 -309.15 21.05 -306.2 L20.55 -305.7 Q18.0 -304.6 15.7 -302.95 14.85 -302.3 14.55 -301.45 M29.25 -306.7 L29.4 -307.35 29.95 -307.8 Q59.3 -317.75 78.45 -287.15 96.8 -257.75 114.75 -254.85 115.15 -254.8 115.4 -254.45 L115.6 -253.7 115.25 -253.05 Q108.1 -247.45 97.35 -248.95 97.0 -249.05 96.75 -249.25 91.15 -255.05 85.7 -266.05 80.35 -276.8 65.65 -291.2 51.05 -305.55 30.25 -305.85 29.85 -305.85 29.6 -306.1 L29.25 -306.7 M22.45 -301.3 Q47.0 -304.3 65.7 -283.9 77.7 -270.85 83.5 -258.95 L83.6 -258.25 83.2 -257.7 82.55 -257.5 Q82.2 -257.5 81.95 -257.75 78.0 -261.4 61.95 -267.45 45.45 -273.6 21.8 -299.6 21.55 -299.9 21.55 -300.3 L21.8 -300.95 Q22.05 -301.25 22.45 -301.3 M53.95 -266.85 Q72.35 -257.95 88.55 -246.45 103.6 -235.7 102.15 -219.15 L101.85 -218.55 101.3 -218.25 100.65 -218.35 100.2 -218.85 Q99.7 -220.05 97.45 -222.75 95.1 -225.5 84.6 -230.65 73.85 -235.9 47.6 -245.0 20.85 -254.3 7.25 -277.35 7.05 -277.7 7.15 -278.1 8.05 -281.9 12.7 -295.45 L13.15 -296.0 13.8 -296.15 Q19.25 -295.6 30.3 -284.3 41.45 -272.95 53.95 -266.85 M84.85 -224.65 L93.1 -219.95 93.4 -219.65 Q95.35 -216.75 95.55 -213.8 96.1 -206.45 92.75 -204.85 L88.85 -202.7 Q87.6 -201.65 86.3 -203.7 85.55 -204.8 84.75 -207.35 83.15 -212.35 83.25 -218.2 L83.35 -223.8 Q83.35 -224.2 83.6 -224.45 83.85 -224.7 84.2 -224.75 L84.85 -224.65 M89.75 -198.85 Q101.95 -192.75 98.15 -185.3 L98.0 -185.1 97.55 -184.65 95.85 -182.8 Q95.6 -182.5 95.25 -182.45 L94.55 -182.55 94.1 -183.1 93.35 -185.2 89.5 -194.9 88.35 -197.6 88.3 -198.15 88.6 -198.7 89.15 -198.95 89.75 -198.85 M93.55 -175.25 L94.05 -175.45 Q95.9 -175.5 97.35 -174.25 98.8 -173.1 98.9 -169.45 L98.7 -168.85 Q96.6 -166.0 93.5 -164.25 88.85 -161.7 83.65 -160.2 L83.0 -160.2 82.5 -160.65 82.4 -161.35 82.75 -161.9 84.65 -163.6 84.85 -163.8 Q90.85 -169.6 93.15 -174.85 L93.55 -175.25 M82.9 -155.35 Q88.9 -156.45 94.05 -159.7 L94.55 -159.85 95.05 -159.75 95.45 -159.35 95.5 -159.2 95.6 -159.0 99.1 -154.5 Q103.1 -149.55 98.8 -140.15 L98.45 -139.75 97.85 -139.6 97.3 -139.8 Q93.95 -142.3 88.1 -144.65 81.6 -147.3 80.55 -154.2 L80.6 -154.75 80.95 -155.15 81.5 -155.35 82.9 -155.35 M96.95 -108.4 Q102.5 -99.5 100.25 -89.8 97.95 -80.2 96.45 -78.25 96.2 -77.9 95.8 -77.85 95.4 -77.8 95.05 -78.05 94.7 -78.3 94.65 -78.7 93.85 -84.75 89.0 -92.6 88.05 -79.6 85.35 -66.05 82.25 -50.6 72.2 -43.7 L71.65 -43.5 71.1 -43.7 Q70.8 -43.85 70.7 -44.15 L70.65 -44.7 Q71.25 -47.85 70.3 -53.0 L68.55 -60.0 Q57.05 -41.0 50.55 -36.05 43.4 -30.65 40.8 -30.7 40.5 -30.7 40.25 -30.85 L39.85 -31.25 39.75 -31.8 Q40.15 -35.2 38.8 -43.55 L38.75 -43.55 Q37.7 -50.4 36.55 -52.8 L28.9 -40.05 Q25.95 -35.55 21.5 -32.15 L20.95 -31.95 20.4 -32.1 20.0 -32.5 12.05 -42.15 Q9.0 -45.75 6.6 -49.3 L5.7 -46.95 Q4.45 -43.85 3.65 -38.75 2.85 -33.75 3.95 -28.45 L3.9 -27.85 3.5 -27.4 2.95 -27.25 1.6 -27.2 1.55 -27.2 Q-13.75 -26.65 -23.05 -37.6 -31.15 -47.1 -37.55 -56.3 -39.0 -52.95 -37.35 -48.3 L-37.3 -47.95 Q-37.5 -44.8 -38.25 -42.0 L-38.3 -42.0 Q-39.7 -37.15 -42.1 -33.05 L-42.65 -32.55 -43.4 -32.65 -43.9 -33.25 Q-46.45 -41.9 -52.2 -45.0 -58.5 -48.35 -62.3 -52.65 -65.75 -56.55 -70.4 -66.8 -73.75 -59.55 -68.75 -52.45 L-68.6 -51.9 -68.75 -51.3 -69.25 -50.95 -69.85 -50.95 Q-83.65 -54.9 -94.35 -69.3 -104.15 -82.5 -106.5 -99.75 -109.45 -98.2 -113.2 -91.55 L-113.65 -91.15 -114.25 -91.05 Q-114.55 -91.1 -114.75 -91.3 L-115.05 -91.8 Q-120.9 -117.0 -113.65 -132.65 L-102.1 -158.2 Q-97.65 -168.15 -97.25 -175.35 -96.85 -182.65 -96.8 -187.65 -96.75 -191.8 -97.25 -199.7 L-97.0 -200.4 -96.3 -200.75 -95.6 -200.5 -93.1 -198.4 -92.8 -198.05 -92.7 -197.6 -92.75 -192.65 Q-92.75 -188.85 -89.8 -185.95 L-89.45 -185.45 -89.45 -184.8 Q-93.3 -174.0 -84.8 -167.65 L-84.4 -167.3 -84.25 -166.75 -84.3 -166.45 Q-87.6 -155.9 -79.9 -151.7 L-79.5 -151.3 -79.4 -150.7 -79.6 -150.2 -80.55 -148.5 Q-81.3 -145.75 -80.65 -142.6 -79.95 -139.4 -80.35 -137.65 -80.8 -135.3 -84.5 -131.8 -72.55 -126.5 -64.65 -132.95 -57.55 -138.9 -56.75 -144.95 L-56.4 -145.6 -55.75 -145.85 -55.1 -145.6 -52.95 -143.8 -46.55 -138.8 -46.2 -138.6 -44.55 -137.55 -44.5 -137.55 Q-38.9 -134.15 -33.05 -132.0 L-28.6 -130.5 Q-20.6 -128.25 -12.15 -128.25 L-2.45 -128.65 -0.15 -128.85 13.85 -130.95 24.25 -133.35 31.7 -135.5 Q41.8 -138.6 51.3 -142.8 L54.45 -144.2 54.5 -144.2 54.85 -144.4 58.9 -146.4 Q65.75 -149.85 71.45 -153.45 L71.65 -153.55 73.9 -155.15 Q74.15 -155.35 74.5 -155.35 L75.1 -155.1 75.2 -155.05 75.55 -154.95 76.2 -154.55 76.4 -153.85 Q75.75 -148.5 79.9 -145.45 L84.45 -142.05 84.75 -141.65 84.85 -141.15 Q83.65 -130.4 87.55 -123.8 L96.95 -108.4 M-49.2 -305.4 Q-48.85 -305.35 -48.65 -305.0 -48.4 -304.7 -48.45 -304.35 L-48.75 -303.7 Q-59.5 -293.45 -68.2 -269.6 -77.15 -245.2 -87.0 -234.65 -96.45 -224.55 -98.7 -220.05 L-98.75 -219.9 -99.25 -219.45 Q-101.7 -218.3 -105.0 -217.35 L-105.0 -217.4 Q-110.2 -215.95 -113.55 -211.9 L-114.05 -211.6 -114.6 -211.55 -115.1 -211.85 Q-118.9 -215.8 -112.15 -224.85 -106.0 -233.15 -99.25 -239.85 -92.7 -246.45 -81.55 -270.3 -70.15 -294.75 -49.9 -305.3 L-49.2 -305.4 M-14.25 -307.2 L-14.7 -306.8 Q-22.0 -304.2 -28.25 -298.9 -36.55 -291.9 -41.65 -279.8 -44.15 -273.9 -49.35 -255.8 -52.75 -243.95 -69.5 -228.45 L-69.55 -228.4 Q-86.05 -214.7 -87.95 -212.3 -90.25 -209.4 -91.35 -205.9 L-91.65 -205.4 Q-91.9 -205.25 -92.2 -205.2 L-92.8 -205.3 -93.2 -205.75 Q-98.7 -216.9 -87.7 -224.95 -77.6 -232.4 -71.75 -245.7 L-52.3 -288.5 Q-38.4 -318.75 -14.65 -308.7 L-14.2 -308.3 -14.05 -307.75 -14.25 -307.2 M-70.75 -220.35 L-70.15 -220.7 -69.45 -220.8 -69.4 -220.8 -69.0 -220.65 Q-65.6 -219.8 -61.55 -212.2 -57.15 -203.95 -60.45 -200.25 -63.35 -196.8 -68.65 -194.0 -73.9 -191.2 -87.55 -190.8 L-88.05 -190.9 -88.45 -191.25 Q-89.45 -192.85 -89.45 -194.35 L-89.2 -195.0 -88.65 -195.35 -87.95 -195.25 -87.75 -195.15 -87.9 -197.9 Q-88.25 -204.2 -79.05 -212.9 L-72.45 -218.95 -70.75 -220.35 M-58.75 -194.75 Q-56.0 -193.2 -54.3 -188.6 -52.3 -183.85 -64.6 -175.15 L-64.75 -175.1 Q-75.1 -170.25 -81.3 -172.3 -84.85 -173.5 -85.45 -176.8 -86.05 -179.8 -83.95 -184.7 L-83.6 -185.1 -83.1 -185.3 Q-70.55 -185.95 -60.6 -194.05 L-59.9 -194.65 -59.35 -194.9 -58.75 -194.75 M-57.5 -174.95 L-56.9 -174.8 -56.5 -174.3 Q-53.75 -166.5 -57.1 -164.25 L-60.55 -161.7 -60.6 -161.7 -60.8 -161.55 Q-69.2 -157.25 -73.75 -156.55 -79.25 -155.65 -79.9 -159.35 L-79.9 -159.4 Q-81.25 -165.5 -79.35 -166.4 L-78.75 -166.6 Q-67.9 -165.95 -58.1 -174.7 L-57.5 -174.95 M-72.65 -151.25 Q-68.35 -152.2 -62.5 -155.35 L-61.75 -155.8 -61.05 -155.9 -60.45 -155.6 -60.25 -154.95 -60.25 -150.65 -60.25 -150.55 Q-60.75 -145.25 -63.35 -139.85 -66.05 -134.15 -75.75 -133.15 L-76.35 -133.25 -76.75 -133.7 -76.8 -134.3 -76.55 -134.85 Q-75.7 -135.7 -75.6 -136.8 -75.5 -138.8 -76.3 -140.15 -77.45 -142.05 -76.75 -145.95 -76.0 -150.1 -72.75 -151.2 L-72.65 -151.25" fill="#fefe4e" fill-rule="evenodd" stroke="none"/>
  </g>
</svg>
