<?xml version="1.0" encoding="UTF-8" standalone="no"?>
<svg xmlns:xlink="http://www.w3.org/1999/xlink" height="182.95px" width="238.2px" xmlns="http://www.w3.org/2000/svg">
  <g transform="matrix(1, 0, 0, 1, 119.2, 315.85)">
    <path d="M55.15 -264.8 Q56.4 -253.4 54.2 -240.4 L53.85 -239.8 53.15 -239.6 Q52.75 -239.65 52.5 -239.9 35.65 -256.8 24.25 -273.8 L22.6 -276.25 22.6 -276.2 Q23.45 -257.1 26.45 -244.95 L26.4 -244.3 26.0 -243.85 25.4 -243.7 24.8 -243.9 Q11.6 -254.9 8.1 -269.95 5.4 -281.3 3.8 -291.45 1.3 -283.95 -3.85 -271.7 -12.35 -251.5 -14.0 -234.3 -14.05 -233.95 -14.25 -233.7 -14.5 -233.5 -14.85 -233.4 L-15.45 -233.5 -15.9 -234.0 Q-16.95 -236.3 -18.85 -243.35 -20.75 -250.4 -21.1 -266.95 -21.35 -279.4 -20.85 -286.75 -30.2 -272.2 -40.8 -258.35 -53.55 -241.7 -55.2 -221.35 L-55.5 -220.7 Q-55.8 -220.45 -56.2 -220.45 -56.6 -220.45 -56.9 -220.75 -58.05 -221.7 -59.4 -229.45 -60.5 -235.8 -59.9 -254.5 -62.45 -249.1 -63.2 -246.15 -65.65 -236.55 -75.55 -221.7 -85.15 -207.25 -86.6 -194.65 -86.65 -194.3 -86.95 -194.0 -87.3 -193.75 -87.7 -193.8 L-88.35 -194.15 Q-96.8 -204.3 -96.2 -219.85 L-95.5 -237.1 Q-100.55 -235.25 -107.0 -228.75 -107.25 -228.45 -107.65 -228.45 L-108.35 -228.7 -108.7 -229.35 -108.5 -230.05 Q-101.25 -239.8 -93.0 -257.25 -84.6 -274.95 -69.25 -290.85 -53.8 -306.85 -34.45 -311.65 -15.2 -316.45 -0.85 -315.75 13.35 -315.1 35.85 -309.05 58.4 -303.0 72.45 -293.65 L96.15 -277.65 96.5 -277.15 96.5 -276.55 96.15 -276.05 95.6 -275.85 84.9 -276.4 97.5 -263.85 Q110.1 -250.8 115.9 -239.5 121.9 -227.85 116.25 -216.95 L115.8 -216.5 115.15 -216.4 Q114.8 -216.5 114.6 -216.75 114.35 -217.0 114.35 -217.35 114.0 -224.2 111.65 -229.25 L111.05 -220.9 Q110.5 -212.6 102.25 -203.85 102.0 -203.65 101.7 -203.55 L101.1 -203.65 Q100.8 -203.8 100.65 -204.1 100.45 -204.4 100.5 -204.7 102.15 -215.6 97.55 -220.55 92.35 -225.95 81.55 -233.35 70.4 -240.95 65.75 -248.95 61.8 -255.65 55.15 -264.8 M84.35 -223.8 L85.0 -223.55 Q95.2 -216.7 95.9 -207.25 96.55 -199.35 93.2 -192.55 95.9 -192.9 98.35 -193.85 L99.05 -193.9 99.55 -193.5 99.75 -192.85 Q99.4 -187.15 103.75 -175.6 107.95 -164.75 95.55 -154.2 L94.85 -153.95 Q94.45 -153.95 94.2 -154.25 93.9 -154.55 93.9 -154.9 93.55 -165.7 90.95 -169.7 L90.75 -170.25 90.95 -170.8 Q94.6 -176.25 94.6 -181.15 L93.35 -185.2 91.1 -191.1 91.0 -191.4 90.85 -191.65 89.5 -194.9 Q86.0 -203.1 84.6 -206.85 83.75 -209.1 83.65 -209.8 83.15 -212.4 83.25 -218.2 L83.35 -222.85 Q83.35 -223.25 83.65 -223.55 83.9 -223.85 84.35 -223.8 M84.85 -163.8 L86.3 -165.25 Q86.55 -165.55 86.9 -165.55 L87.55 -165.4 88.0 -164.9 Q90.1 -159.2 89.2 -154.15 88.4 -149.4 88.3 -147.8 L88.05 -147.2 87.5 -146.9 86.9 -146.95 86.45 -147.35 84.2 -150.35 Q75.25 -139.5 64.85 -134.4 L64.1 -134.35 63.5 -134.85 Q63.25 -135.2 63.3 -139.6 63.3 -143.5 63.75 -148.4 L63.9 -148.85 64.25 -149.2 71.45 -153.45 71.65 -153.55 Q81.35 -160.5 84.65 -163.6 L84.85 -163.8 M36.55 -135.7 L36.4 -136.3 36.6 -136.85 37.05 -137.2 Q44.35 -139.75 51.3 -142.8 L54.85 -144.4 57.2 -145.55 57.85 -145.6 58.4 -145.3 58.65 -144.7 58.45 -144.05 Q48.95 -130.5 37.0 -135.35 36.7 -135.45 36.55 -135.7 M-100.3 -228.8 L-99.9 -228.3 -99.85 -227.65 Q-103.25 -215.6 -99.65 -203.25 -95.7 -189.85 -81.75 -183.85 -82.25 -195.5 -70.55 -220.35 L-70.05 -220.85 -69.3 -220.9 -68.75 -220.4 -68.7 -219.65 Q-72.55 -205.75 -65.0 -190.55 -57.1 -174.65 -65.3 -157.0 L-65.8 -156.55 -66.45 -156.5 -67.05 -156.9 -67.2 -157.6 Q-66.7 -162.5 -78.85 -169.6 -89.9 -176.1 -92.9 -181.65 L-93.4 -180.25 Q-94.65 -174.35 -83.25 -167.0 -71.4 -159.4 -68.75 -146.95 L-65.1 -149.6 Q-64.3 -150.35 -64.1 -150.15 L-64.3 -150.8 -64.0 -151.45 Q-63.75 -151.7 -63.35 -151.75 L-62.7 -151.55 Q-56.95 -147.2 -53.55 -144.3 L-53.3 -143.95 -53.2 -143.55 -53.05 -134.0 -53.3 -133.3 Q-53.55 -133.05 -53.95 -133.0 -60.2 -132.45 -66.2 -135.2 -78.45 -140.8 -89.4 -149.45 L-90.15 -139.1 -90.35 -138.45 Q-90.6 -138.2 -90.9 -138.1 L-91.6 -138.2 Q-103.0 -143.8 -105.95 -151.95 L-108.4 -159.15 Q-114.9 -154.65 -117.25 -149.3 L-117.75 -148.8 -118.5 -148.75 -119.05 -149.2 -119.15 -149.9 -117.5 -156.9 Q-116.05 -162.7 -109.9 -171.45 -104.15 -179.7 -105.95 -189.1 -107.9 -199.05 -108.35 -204.25 -108.75 -208.65 -107.45 -218.55 L-107.65 -218.55 Q-109.55 -218.1 -108.75 -219.9 L-108.65 -220.1 -108.55 -220.3 Q-105.6 -224.85 -101.55 -228.65 L-100.95 -228.95 -100.3 -228.8" fill="#ababfe" fill-rule="evenodd" stroke="none"/>
  </g>
</svg>
