<?xml version="1.0" encoding="utf-8"?>
<!-- Generator: flash2svg, http://dissentgraphics.com/tools/flash2svg -->
<svg xmlns:xlink="http://www.w3.org/1999/xlink" id="Sprite.__20535.__2F276" image-rendering="optimizeSpeed" baseProfile="basic" version="1.1" style="background-color:#ffffff" x="0px" y="0px" width="550px" height="400px" viewBox="0 0 550 400" enable-background="new 0 0 550 400" xmlns="http://www.w3.org/2000/svg">
  <defs/>
  <g id="Sprite.__20535.__2F276">
    <g id="Layer.__203">
      <g id="shape18" transform="matrix(1 0 0 1 -97.799 -317.749)">
        <path id="path15" transform="matrix(1 0 0 1 97.75 317.7)" fill="#3343CC" fill-opacity="1" d="M79.9,-287.9 L79.65,-288.35 C69.35,-299.35 54.9,-307.4 36.25,-312.5 17.6,-317.6 0.65,-318.95 -14.6,-316.6 -28.15,-314.55 -36.05,-313 -38.3,-312.05 -49.8,-307.3 -59.65,-301.35 -67.9,-294.15 -76.25,-286.9 -82.95,-277.05 -88,-264.6 -91.7,-255.55 -94.4,-246.55 -96.15,-237.6 L-96.15,-237.55 C-97.55,-229.3 -98.05,-223.85 -97.65,-221.2 -97.3,-218.55 -96.75,-215.9 -96.05,-213.3 -95.6,-211.55 -95,-210.6 -94.25,-210.4 -93.4,-209.85 -92.45,-210.35 -91.4,-211.8 -90.25,-213.5 -88.95,-214.75 -87.5,-215.55 L-85.45,-216.85 C-83.05,-217.2 -80.75,-216.85 -78.6,-215.85 L-77.1,-214.9 -76.5,-214.7 -75.9,-214.85 C-75.75,-215 -75.6,-215.15 -75.55,-215.35 L-75.55,-216 C-75.8,-216.75 -75.9,-217.5 -75.75,-218.15 -74.25,-215.95 -72.45,-213.85 -70.3,-211.8 L-64.4,-206.2 C-64.15,-206.05 -63.9,-205.95 -63.65,-206 L-63,-206.4 C-62.85,-206.65 -62.75,-206.9 -62.8,-207.15 -63.1,-209.65 -62.9,-213.45 -62.25,-218.55 -61.6,-223.75 -60.8,-229 -59.75,-234.25 -58.7,-239.55 -57.15,-246.05 -55.05,-253.75 L-54.05,-257.25 C-52.7,-261.2 -50.3,-264.95 -46.9,-268.55 L-47.6,-267 C-52,-257.35 -52.95,-248.5 -50.5,-240.35 -48.05,-232.25 -45.85,-226.9 -43.8,-224.25 -43.65,-224.1 -43.5,-223.95 -43.25,-223.9 L-42.65,-223.9 -42.15,-224.3 C-42.05,-224.45 -42,-224.65 -42,-224.85 -42.05,-226.9 -41.95,-228.95 -41.6,-231.05 -40.55,-237.9 -38.1,-244.3 -34.3,-250.2 -29.95,-256.95 -25.15,-262.85 -20,-267.95 L-19.7,-268.5 -19.6,-269.1 C-19.45,-270.15 -19,-270.9 -18.3,-271.25 -17.65,-269.9 -17.6,-267.15 -18.05,-262.9 -18.75,-257.35 -16.75,-251.7 -12.05,-245.95 -7.4,-240.25 -1.5,-236.95 5.55,-236.1 L6.15,-236.2 6.55,-236.65 6.65,-237.25 6.35,-237.8 C2.9,-241.25 0.25,-246.65 -1.7,-254.05 7.15,-244.45 13.45,-239.4 17.2,-238.95 L26.45,-237.9 27.05,-238.1 27.45,-238.6 27.45,-239.2 C27.1,-240.35 26.85,-242.5 26.6,-245.65 L25.25,-259 24.95,-261.75 C30.2,-257.2 35.45,-253.75 40.7,-251.3 L41.3,-251.2 41.85,-251.5 42.1,-252.05 44.6,-272.1 44.65,-272.1 44.9,-272.2 C46.3,-270.85 46.85,-269.2 46.6,-267.15 L46.7,-266.6 47.05,-266.2 C51.3,-263.25 55.65,-259.5 60.1,-254.9 64.55,-250.3 68.35,-246.1 71.6,-242.35 74.75,-238.65 76.9,-235.95 77.95,-234.25 L78,-234.15 83.65,-227.1 C83.75,-226.95 83.9,-226.85 84.15,-226.8 L84.75,-226.8 C84.95,-226.85 85.1,-227 85.25,-227.15 L85.4,-227.55 C85.9,-228.85 86.45,-231.6 87,-235.8 87.45,-239.45 86.6,-244.45 84.45,-250.75 87.7,-247.85 91.2,-245.15 94.9,-242.6 99.35,-239.55 102.15,-235.65 103.25,-230.95 L103.65,-230.4 104.3,-230.2 104.95,-230.5 105.25,-231.1 C105.4,-233.15 105.25,-235.25 104.85,-237.45 103.4,-244.75 100.15,-251.2 95,-256.8 93.1,-258.85 90.05,-264.6 85.9,-273.95 L85.85,-273.95 82.3,-282.25 79.9,-287.9z "/>
      </g>
    </g>
  </g>
</svg>