<?xml version="1.0" encoding="UTF-8" standalone="no"?>
<svg xmlns:xlink="http://www.w3.org/1999/xlink" height="199.15px" width="208.05px" xmlns="http://www.w3.org/2000/svg">
  <g transform="matrix(1, 0, 0, 1, 93.9, 320.4)">
    <path d="M3.65 -320.35 L26.45 -316.55 Q64.15 -308.4 74.7 -286.95 L74.65 -287.05 86.9 -265.5 86.9 -265.45 Q94.35 -252.2 95.75 -243.45 97.05 -235.5 97.75 -221.8 98.6 -205.5 99.2 -200.05 101.85 -174.55 113.85 -158.45 L114.15 -157.5 Q114.15 -156.95 113.8 -156.55 113.4 -156.15 112.9 -156.05 112.35 -156.0 111.9 -156.25 100.55 -162.7 99.25 -162.85 97.15 -162.5 84.2 -137.75 83.9 -137.3 83.4 -137.05 82.85 -136.85 82.35 -137.05 81.8 -137.25 81.55 -137.75 75.9 -148.45 74.3 -148.8 72.35 -148.5 69.05 -142.7 L69.1 -142.75 65.7 -135.95 64.95 -135.25 63.95 -135.2 Q63.4 -135.35 63.1 -135.8 L59.5 -142.1 59.55 -142.05 57.9 -144.25 57.65 -144.65 57.5 -145.15 Q57.45 -145.65 57.7 -146.05 L58.35 -146.65 58.7 -146.85 Q65.5 -150.3 71.2 -153.9 L71.4 -154.0 Q81.05 -160.85 84.35 -163.95 94.0 -173.25 94.1 -181.15 L92.9 -185.05 89.05 -194.7 Q83.45 -207.85 83.15 -209.7 82.65 -212.3 82.75 -218.2 L82.9 -227.95 Q82.85 -230.7 80.85 -233.35 L80.1 -233.35 79.3 -233.55 78.75 -234.15 Q58.3 -271.75 56.85 -272.1 57.25 -272.0 56.95 -268.15 L56.95 -268.1 55.85 -254.8 Q53.2 -232.6 43.15 -220.4 L42.4 -219.9 Q41.95 -219.75 41.5 -219.9 L40.8 -220.45 Q40.5 -220.85 40.5 -221.35 40.5 -244.7 39.85 -252.55 38.45 -269.9 34.3 -270.2 32.55 -270.2 31.75 -268.65 30.7 -266.55 30.85 -262.35 L31.35 -254.5 Q31.5 -249.65 30.4 -247.5 L30.4 -247.45 Q24.5 -235.6 12.15 -221.5 11.75 -221.05 11.2 -221.0 L10.15 -221.25 Q9.65 -221.6 9.55 -222.15 8.65 -225.95 -3.15 -242.45 L-7.1 -248.15 -7.15 -248.15 -9.8 -252.2 -11.6 -248.35 -11.6 -248.4 Q-15.65 -239.25 -17.3 -233.8 -17.45 -233.35 -17.85 -233.05 -18.25 -232.75 -18.7 -232.75 L-19.6 -233.0 -20.15 -233.7 Q-29.55 -259.5 -31.9 -259.85 -38.2 -259.55 -44.25 -240.75 -49.95 -223.1 -50.15 -208.55 -50.15 -208.05 -50.5 -207.65 L-51.35 -207.1 -52.3 -207.25 -53.0 -208.0 Q-54.4 -211.1 -57.8 -223.7 L-57.75 -223.65 Q-60.75 -233.15 -62.45 -233.5 -65.95 -233.25 -66.9 -210.55 L-66.9 -210.5 -66.9 -185.1 -66.9 -185.0 Q-67.8 -172.1 -66.9 -159.4 -66.0 -146.9 -64.15 -140.95 -62.8 -136.55 -61.3 -136.6 -57.15 -137.65 -58.0 -141.9 -59.05 -146.9 -60.15 -148.3 -60.6 -148.75 -60.55 -149.35 -60.5 -150.0 -60.05 -150.4 -59.6 -150.8 -59.0 -150.8 -58.4 -150.8 -57.95 -150.3 -50.65 -142.55 -48.7 -141.0 L-48.15 -140.25 -48.15 -139.35 -49.0 -134.9 -49.3 -125.45 -49.6 -124.7 Q-49.9 -124.35 -50.3 -124.2 L-51.1 -124.15 Q-53.3 -124.5 -56.4 -129.0 L-56.4 -128.95 Q-58.35 -131.7 -60.2 -131.85 L-61.85 -131.6 -61.9 -131.4 Q-62.0 -130.85 -62.4 -130.45 -63.35 -129.65 -63.85 -127.75 -64.35 -122.5 -64.65 -122.05 -64.85 -121.7 -65.2 -121.45 L-66.0 -121.25 -66.8 -121.5 Q-71.2 -124.2 -77.2 -138.2 L-82.25 -149.7 Q-86.65 -149.2 -89.45 -147.65 L-90.1 -147.5 -90.6 -147.45 -91.4 -147.65 -91.95 -148.2 -92.2 -148.95 -92.2 -149.0 -92.15 -149.25 Q-91.95 -150.75 -92.1 -158.05 L-92.45 -175.3 -93.25 -197.85 Q-93.85 -212.15 -93.9 -221.1 L-93.9 -221.15 Q-93.75 -227.2 -92.75 -231.45 -91.8 -236.0 -80.35 -263.9 -77.7 -270.5 -72.35 -277.7 -67.2 -284.7 -62.6 -291.6 -58.0 -298.7 -47.65 -308.35 -45.05 -312.15 -38.65 -316.25 L-36.4 -317.55 Q-34.15 -318.65 -31.5 -319.3 -26.6 -320.5 -20.35 -320.15 L-20.3 -320.15 Q-14.0 -319.55 -9.0 -319.9 -3.85 -320.25 -0.55 -320.05 L2.65 -320.15 Q3.1 -320.45 3.65 -320.35" fill="#fbfbfb" fill-rule="evenodd" stroke="none"/>
  </g>
</svg>
