<?xml version="1.0" encoding="UTF-8" standalone="no"?>
<svg xmlns:xlink="http://www.w3.org/1999/xlink" height="182.9px" width="210.3px" xmlns="http://www.w3.org/2000/svg">
  <g transform="matrix(1, 0, 0, 1, 105.15, 322.8)">
    <path d="M-54.65 -188.2 L-54.85 -187.5 Q-56.5 -184.85 -58.45 -176.05 -60.0 -169.05 -60.3 -165.15 L-60.5 -164.5 -61.0 -164.0 -61.5 -163.65 -61.45 -163.65 Q-62.25 -162.9 -62.25 -161.75 -62.25 -158.8 -61.3 -156.0 -61.15 -155.5 -61.35 -154.95 -61.65 -154.1 -61.6 -152.0 L-62.1 -152.45 Q-62.4 -152.75 -62.85 -152.8 L-63.1 -152.8 -63.7 -152.7 -63.85 -152.6 -64.45 -152.15 -64.55 -151.95 Q-64.85 -151.5 -64.75 -151.0 L-64.3 -150.15 Q-65.75 -151.5 -67.2 -151.55 -69.0 -151.45 -71.75 -149.25 L-72.5 -148.65 Q-73.0 -148.25 -73.6 -148.3 L-74.6 -148.85 -76.85 -151.05 Q-79.9 -153.6 -88.0 -158.85 L-88.05 -158.85 Q-95.9 -164.4 -99.7 -169.95 -105.15 -177.7 -105.15 -187.95 -105.2 -206.7 -93.25 -231.25 -90.75 -236.45 -85.1 -246.65 -81.8 -252.75 -81.65 -253.85 -81.65 -254.55 -81.95 -255.1 -82.6 -256.05 -84.15 -256.05 -87.3 -255.85 -90.8 -250.15 L-91.55 -249.55 -92.5 -249.5 Q-93.0 -249.7 -93.3 -250.1 -93.6 -250.55 -93.55 -251.05 -93.25 -255.9 -92.65 -257.95 L-92.6 -258.0 Q-90.55 -264.5 -85.15 -272.7 -79.85 -280.8 -74.15 -286.15 L-74.15 -286.2 -67.0 -293.4 -67.0 -293.45 Q-62.75 -297.8 -59.9 -300.2 -51.3 -307.5 -38.3 -311.65 L-38.4 -311.65 Q-19.3 -319.1 -4.15 -321.35 11.1 -323.6 13.9 -322.4 50.15 -313.6 66.0 -301.4 81.85 -289.2 92.65 -273.25 101.5 -260.45 103.6 -241.6 104.0 -238.1 104.25 -227.15 104.25 -226.65 103.9 -226.2 L103.05 -225.65 102.05 -225.8 Q101.55 -226.05 101.35 -226.55 L95.15 -239.45 89.3 -251.3 Q87.2 -251.25 87.2 -249.0 87.25 -245.05 89.85 -239.5 L89.85 -239.55 96.05 -227.8 Q105.15 -210.0 105.15 -191.15 105.25 -184.85 95.6 -168.5 91.55 -161.75 89.3 -157.45 L88.45 -156.75 87.35 -156.8 84.65 -157.25 Q82.6 -157.15 78.0 -153.75 75.1 -151.6 73.3 -150.6 L73.4 -150.7 73.9 -151.6 73.75 -152.6 73.35 -153.3 73.25 -153.45 73.05 -153.65 72.95 -153.75 72.75 -153.9 72.15 -154.1 71.4 -154.0 Q81.05 -160.85 84.35 -163.95 94.0 -173.25 94.1 -181.15 L92.9 -185.05 89.05 -194.7 Q83.45 -207.85 83.15 -209.7 82.65 -212.3 82.75 -218.2 L82.9 -227.95 Q82.85 -230.7 80.85 -233.35 77.9 -233.5 77.6 -232.6 L77.6 -232.75 77.3 -233.65 76.8 -234.05 76.55 -234.15 75.6 -234.15 74.85 -233.55 74.8 -233.5 74.7 -233.3 Q74.5 -232.9 74.6 -232.45 74.65 -231.9 75.05 -231.55 L75.35 -231.35 Q67.65 -234.8 62.25 -241.75 L62.2 -241.8 Q52.3 -254.8 50.7 -255.1 48.65 -254.85 48.25 -249.8 47.5 -240.75 46.35 -239.25 L45.6 -238.65 Q45.15 -238.5 44.7 -238.65 44.2 -238.8 43.9 -239.2 41.9 -241.85 35.3 -252.8 31.5 -258.6 28.9 -260.7 L26.9 -261.6 26.35 -261.55 26.4 -261.55 25.8 -261.35 25.5 -261.15 25.5 -261.05 25.4 -260.55 25.3 -259.75 25.45 -259.0 Q25.0 -249.7 20.9 -235.3 L20.4 -234.5 Q20.0 -234.2 19.5 -234.2 19.0 -234.2 18.65 -234.45 18.2 -234.7 18.05 -235.15 13.9 -246.45 9.45 -255.75 5.8 -263.3 3.15 -266.45 L0.6 -268.25 -0.25 -267.75 -0.2 -267.75 Q-0.95 -267.1 -0.95 -266.0 L-0.95 -265.75 Q-0.95 -265.2 -1.3 -264.8 -20.6 -241.85 -24.25 -239.3 -24.8 -238.95 -25.4 -239.05 L-26.35 -239.65 Q-26.75 -240.15 -26.6 -240.75 -26.45 -242.1 -25.2 -245.65 -24.35 -248.3 -24.3 -249.45 L-24.3 -250.1 -24.3 -250.2 -24.35 -250.55 -24.35 -250.75 -24.45 -251.2 -24.45 -251.25 Q-24.8 -252.1 -25.8 -252.2 L-26.2 -252.25 -26.25 -252.25 Q-30.75 -252.1 -37.65 -245.9 -44.7 -239.7 -51.6 -229.65 -58.8 -219.35 -63.1 -208.95 -67.85 -197.8 -67.85 -189.6 L-67.7 -184.8 -66.9 -184.3 -65.75 -184.25 Q-64.75 -184.5 -62.5 -187.3 -59.55 -191.2 -55.95 -190.6 L-55.9 -190.6 -56.35 -190.6 Q-56.9 -190.55 -57.25 -190.1 -57.65 -189.7 -57.65 -189.1 L-57.65 -188.3 Q-57.65 -187.7 -57.25 -187.25 L-56.85 -186.95 -56.25 -186.8 -55.2 -187.1 Q-54.75 -187.5 -54.65 -188.05 L-54.65 -188.2 M-62.15 -152.25 L-61.6 -152.0 -61.6 -151.35 -61.8 -150.5 -61.95 -150.3 -62.2 -150.1 -62.5 -149.95 -62.65 -149.85 -63.5 -149.75 -63.95 -149.9 -64.15 -150.6 -63.8 -151.6 -63.75 -151.65 -63.65 -151.75 -63.1 -152.15 -62.95 -152.2 -62.15 -152.25 M-63.0 -149.15 L-62.2 -149.2 -61.65 -149.45 -61.5 -149.65 -61.35 -149.8 Q-60.95 -150.3 -61.0 -150.9 -61.05 -151.5 -61.45 -151.85 L-50.7 -142.6 -50.3 -142.05 -50.15 -141.4 Q-50.2 -140.8 -50.6 -140.35 -51.05 -139.9 -51.65 -139.9 L-51.7 -139.9 -51.8 -139.9 Q-56.2 -140.2 -58.55 -142.3 L-58.5 -142.3 Q-59.45 -143.0 -62.35 -147.9 L-62.4 -147.95 -63.7 -149.55 Q-63.45 -149.3 -63.0 -149.15" fill="#a3827e" fill-rule="evenodd" stroke="none"/>
    <path d="M77.6 -232.6 L77.35 -231.9 77.3 -231.85 76.5 -231.2 76.45 -231.2 76.3 -231.2 76.1 -231.15 76.05 -231.15 75.65 -231.2 75.45 -231.3 75.35 -231.35 75.05 -231.55 Q74.65 -231.9 74.6 -232.45 74.5 -232.9 74.7 -233.3 L74.8 -233.5 74.85 -233.55 75.6 -234.15 76.55 -234.15 76.8 -234.05 77.3 -233.65 77.6 -232.75 77.6 -232.6 M-55.95 -190.6 Q-55.4 -190.55 -55.0 -190.1 -54.65 -189.7 -54.65 -189.1 L-54.65 -188.3 -54.65 -188.2 -54.65 -188.05 Q-54.75 -187.5 -55.2 -187.1 L-56.25 -186.8 -56.85 -186.95 -57.25 -187.25 Q-57.65 -187.7 -57.65 -188.3 L-57.65 -189.1 Q-57.65 -189.7 -57.25 -190.1 -56.9 -190.55 -56.35 -190.6 L-55.9 -190.6 -55.95 -190.6" fill="#fffdfe" fill-rule="evenodd" stroke="none"/>
    <path d="M73.75 -152.6 L73.9 -151.8 73.65 -151.05 73.15 -150.55 73.1 -150.5 73.0 -150.45 72.95 -150.45 72.45 -150.35 72.4 -150.35 72.1 -150.4 72.0 -150.4 71.65 -150.55 71.15 -151.1 71.05 -151.25 70.75 -151.8 70.7 -151.85 70.6 -152.05 70.5 -152.7 70.55 -152.9 70.55 -153.0 70.6 -153.15 70.8 -153.45 70.95 -153.65 71.4 -153.95 72.0 -154.1 72.2 -154.1 72.4 -154.05 72.5 -154.0 72.75 -153.9 72.95 -153.75 73.05 -153.65 73.25 -153.45 73.05 -153.65 73.25 -153.45 73.35 -153.3 73.75 -152.6 M73.3 -153.35 L73.25 -153.45 73.3 -153.35" fill="#e9e1df" fill-rule="evenodd" stroke="none"/>
  </g>
</svg>
