<?xml version="1.0" encoding="UTF-8" standalone="no"?>
<svg xmlns:xlink="http://www.w3.org/1999/xlink" height="349.8px" width="224.45px" xmlns="http://www.w3.org/2000/svg">
  <g transform="matrix(1, 0, 0, 1, 109.9, 335.3)">
    <path d="M17.55 -267.7 L17.35 -268.0 17.2 -268.55 17.2 -268.7 17.2 -268.75 17.2 -268.8 17.2 -268.95 Q17.35 -271.25 17.05 -273.15 16.2 -278.45 12.1 -278.6 4.1 -278.4 -7.7 -263.65 -17.4 -251.55 -21.4 -242.1 -26.2 -230.25 -33.2 -222.65 -41.3 -213.85 -47.1 -209.25 -47.5 -208.95 -48.0 -208.95 L-48.9 -209.2 -49.45 -209.95 Q-49.65 -210.45 -49.45 -210.9 L-46.9 -218.45 -46.9 -218.4 Q-45.0 -224.05 -44.95 -225.35 L-44.8 -226.9 -45.95 -227.75 -47.0 -227.8 Q-50.6 -227.45 -55.55 -205.4 L-55.6 -205.2 -55.6 -205.15 -55.6 -205.1 -56.55 -200.6 -56.6 -200.55 -56.65 -200.15 Q-56.8 -199.55 -57.3 -199.2 L-58.4 -199.0 -59.35 -199.6 -59.75 -200.2 Q-63.8 -206.5 -63.8 -215.75 -63.85 -221.55 -58.8 -237.2 -54.0 -252.4 -51.1 -256.7 -45.55 -265.1 -31.05 -281.65 -16.65 -298.2 -15.2 -297.9 -14.65 -298.1 -1.55 -289.6 0.0 -289.95 0.0 -292.35 L-0.65 -293.45 Q-1.7 -295.4 -3.3 -297.0 -8.45 -302.1 -16.85 -302.1 -21.3 -301.9 -29.7 -292.75 L-29.7 -292.7 Q-38.1 -283.55 -46.9 -269.25 -56.05 -254.55 -61.65 -240.6 L-61.65 -240.55 Q-67.75 -225.5 -67.85 -215.9 -67.05 -208.3 -65.3 -200.9 -62.8 -190.5 -59.75 -187.75 L-59.35 -187.1 -59.25 -186.35 -60.75 -176.8 Q-62.15 -167.6 -62.15 -166.45 L-62.05 -163.15 -60.4 -152.75 -59.45 -149.35 -59.4 -148.8 -57.55 -143.15 Q-57.4 -142.65 -57.6 -142.1 -57.85 -141.55 -58.4 -141.3 L-58.85 -141.1 -59.7 -141.0 -60.5 -141.4 Q-77.8 -158.15 -85.65 -167.15 -94.55 -177.3 -98.1 -185.1 -100.6 -190.5 -101.6 -197.25 L-101.6 -197.55 -101.45 -203.5 -101.7 -205.9 -102.0 -206.5 -102.3 -207.4 -102.4 -224.3 Q-102.4 -259.1 -83.9 -287.0 -65.5 -314.95 -9.6 -334.45 L-9.45 -334.5 -4.05 -335.3 Q-0.7 -335.2 -0.95 -332.9 L0.35 -322.55 0.2 -321.7 -0.35 -321.05 Q-0.75 -320.8 -1.2 -320.85 L-2.75 -320.65 -2.85 -320.35 -2.85 -320.1 Q-3.0 -319.3 -2.15 -318.95 L3.15 -318.7 44.3 -323.6 45.1 -323.45 45.7 -322.9 Q58.5 -303.35 73.05 -282.3 L73.0 -282.35 94.55 -253.0 Q104.95 -238.45 109.2 -226.45 114.55 -211.25 114.55 -189.85 114.55 -179.35 109.35 -163.15 L108.7 -162.3 107.7 -162.1 Q107.1 -162.2 106.75 -162.6 106.4 -163.05 106.4 -163.6 L106.4 -176.05 Q105.9 -185.95 104.2 -187.9 L98.05 -174.15 Q90.25 -157.3 83.95 -148.55 L83.0 -147.95 81.9 -148.2 81.7 -148.35 81.2 -148.9 81.0 -149.6 Q81.0 -150.7 81.7 -155.95 81.65 -157.8 80.8 -158.65 L80.3 -159.35 Q80.15 -159.8 80.3 -160.25 L80.8 -160.95 84.35 -163.95 Q94.0 -173.25 94.1 -181.15 L92.9 -185.05 89.05 -194.7 Q83.45 -207.85 83.15 -209.7 82.65 -212.3 82.75 -218.2 L82.9 -227.95 82.35 -230.65 Q82.15 -231.1 82.3 -231.6 L82.85 -232.35 84.95 -234.5 Q87.5 -237.8 87.55 -240.35 87.2 -239.7 77.45 -244.8 63.45 -252.3 51.45 -261.55 48.8 -263.6 39.45 -274.95 31.95 -284.0 30.95 -284.3 31.05 -283.95 22.75 -271.3 L20.4 -267.7 20.35 -267.6 Q20.0 -267.1 19.4 -266.95 18.75 -266.85 18.25 -267.2 L17.9 -267.45 17.55 -267.7 M20.5 -267.95 L20.5 -268.9 19.9 -269.7 19.7 -269.85 18.9 -270.2 19.55 -269.95 19.7 -269.85 20.05 -269.55 20.55 -268.6 20.5 -267.95 20.45 -267.8 20.5 -267.9 20.5 -267.95 M85.8 -110.45 Q86.3 -103.85 88.1 -98.45 89.1 -95.35 94.2 -83.5 100.35 -69.05 106.0 -54.05 106.2 -53.55 106.0 -53.0 L105.3 -52.2 104.8 -51.95 103.9 -51.8 Q103.45 -51.9 103.1 -52.2 97.3 -57.55 82.45 -72.3 81.25 -70.5 80.25 -57.7 78.55 -36.15 77.8 -33.25 76.85 -29.3 68.65 -10.5 L66.0 -4.5 65.4 -3.8 Q64.95 -3.55 64.45 -3.6 63.95 -3.65 63.6 -4.0 L63.15 -4.8 Q60.15 -20.8 58.1 -25.2 57.55 -26.35 52.3 -44.55 L52.3 -44.6 Q49.0 -56.2 47.0 -56.55 47.75 -56.3 43.6 -37.35 38.95 -16.4 37.45 -7.2 L36.95 -6.3 Q36.5 -5.95 35.95 -5.95 L35.0 -5.95 Q34.45 -5.95 34.05 -6.3 33.6 -6.7 33.55 -7.25 32.05 -17.85 30.55 -23.9 L27.5 -34.95 27.4 -35.5 Q27.5 -37.15 26.95 -38.0 26.4 -38.6 25.25 -38.6 24.45 -38.6 23.95 -38.25 L23.9 -38.25 23.3 -37.9 Q21.75 -32.9 18.5 -24.75 L18.5 -24.7 Q14.3 -14.45 13.65 -12.4 L13.1 -11.7 Q12.7 -11.4 12.25 -11.4 L11.4 -11.6 10.85 -12.3 Q9.15 -16.1 4.75 -30.2 L4.75 -30.3 Q0.75 -41.1 -1.9 -41.45 L-4.8 -28.25 Q-7.35 -16.85 -8.8 -7.9 -8.9 -7.35 -9.3 -7.0 -9.75 -6.65 -10.3 -6.65 L-10.55 -6.65 Q-11.05 -6.65 -11.4 -6.95 L-11.95 -7.7 Q-16.55 -22.05 -25.05 -40.45 -33.7 -59.05 -35.7 -59.4 -37.6 -59.2 -38.3 -39.75 -38.55 -14.7 -38.85 -6.95 -38.85 -6.5 -39.1 -6.1 -39.4 -5.75 -39.8 -5.6 L-40.65 -5.5 -41.6 -5.7 Q-42.0 -5.8 -42.3 -6.05 L-42.7 -6.7 Q-44.05 -10.75 -46.7 -24.9 L-46.7 -24.85 Q-48.9 -34.75 -50.75 -35.75 L-51.35 -36.2 -51.6 -36.4 -72.15 13.55 Q-72.4 14.1 -72.95 14.35 L-74.1 14.4 -74.95 13.6 -81.5 -1.3 Q-92.3 -26.2 -93.4 -37.1 -94.45 -46.95 -96.35 -75.15 -98.05 -96.85 -98.8 -97.05 -100.15 -96.7 -107.0 -85.2 -107.3 -84.7 -107.85 -84.55 L-108.95 -84.65 -109.05 -84.7 -109.75 -85.45 Q-110.0 -86.0 -109.8 -86.5 -106.0 -98.35 -105.75 -115.7 -105.65 -125.65 -106.1 -144.45 -107.0 -155.95 -105.6 -167.0 -104.25 -177.7 -104.95 -184.45 -105.0 -185.0 -104.65 -185.45 -104.35 -185.9 -103.8 -186.05 L-102.75 -185.95 -102.05 -185.15 Q-99.7 -179.5 -99.0 -178.45 -86.6 -158.75 -80.05 -150.8 -64.95 -132.6 -53.05 -132.45 -49.75 -132.45 -49.7 -135.35 L-51.05 -139.3 Q-51.25 -139.8 -51.1 -140.25 L-50.55 -141.05 -49.65 -141.35 Q-49.15 -141.35 -48.75 -141.0 L-45.95 -139.0 Q-29.95 -128.75 -12.15 -128.75 4.8 -128.75 24.15 -133.85 42.4 -138.65 58.7 -146.85 65.5 -150.3 71.2 -153.9 L71.4 -154.0 76.35 -157.6 77.25 -157.9 78.1 -157.6 78.7 -156.9 78.7 -155.95 Q77.05 -150.45 74.1 -137.75 73.95 -136.35 74.2 -135.15 74.5 -133.45 76.1 -133.4 77.1 -133.7 82.8 -140.5 83.1 -140.85 83.55 -141.0 L84.45 -140.95 85.2 -140.4 85.45 -139.55 85.45 -131.55 Q85.45 -115.7 85.8 -110.45 M-59.6 -149.35 Q-59.75 -149.85 -60.2 -150.15 L-61.25 -150.4 -61.3 -150.35 Q-61.85 -150.3 -62.15 -149.9 -62.55 -149.5 -62.55 -148.9 L-62.5 -148.5 -62.35 -147.95 Q-62.15 -147.4 -61.6 -147.05 L-60.5 -146.9 -60.4 -146.95 Q-59.9 -147.15 -59.6 -147.6 -59.3 -148.15 -59.45 -148.7 L-59.4 -148.8 -59.6 -149.35 M-59.85 -148.85 L-59.55 -148.9 -59.6 -149.3 -59.45 -148.9 -59.45 -148.75 -59.45 -148.7 -59.6 -148.2 Q-59.9 -147.7 -60.5 -147.5 L-60.6 -147.45 -60.7 -147.45 -60.0 -148.6 -60.85 -148.4 -60.9 -148.4 -62.35 -148.0 -62.5 -148.5 -61.0 -148.7 -60.95 -148.7 -59.85 -148.85" fill="#48771a" fill-rule="evenodd" stroke="none"/>
    <path d="M20.35 -267.6 L20.3 -267.55 19.7 -267.0 18.85 -266.9 Q18.4 -267.0 18.1 -267.25 L17.75 -267.55 17.55 -267.7 17.9 -267.45 18.25 -267.2 Q18.75 -266.85 19.4 -266.95 20.0 -267.1 20.35 -267.6 M20.5 -267.95 L20.5 -267.9 20.45 -267.8 20.5 -267.95" fill="#59941f" fill-rule="evenodd" stroke="none"/>
    <path d="M-59.45 -148.7 Q-59.3 -148.15 -59.6 -147.6 -59.9 -147.15 -60.4 -146.95 L-60.5 -146.9 -61.6 -147.05 Q-62.15 -147.4 -62.35 -147.95 L-62.5 -148.5 -62.55 -148.9 Q-62.55 -149.5 -62.15 -149.9 -61.85 -150.3 -61.3 -150.35 L-61.25 -150.4 -60.2 -150.15 Q-59.75 -149.85 -59.6 -149.35 L-59.85 -148.85 -60.95 -148.7 -61.0 -148.7 -62.5 -148.5 -62.35 -148.0 -60.9 -148.4 -60.85 -148.4 -60.0 -148.6 -60.7 -147.45 -60.6 -147.45 -60.5 -147.5 Q-59.9 -147.7 -59.6 -148.2 L-59.45 -148.7" fill="#000000" fill-rule="evenodd" stroke="none"/>
  </g>
</svg>
