<?xml version="1.0" encoding="UTF-8" standalone="no"?>
<svg xmlns:xlink="http://www.w3.org/1999/xlink" height="194.25px" width="308.0px" xmlns="http://www.w3.org/2000/svg">
  <g transform="matrix(1, 0, 0, 1, 160.1, 324.65)">
    <path d="M60.9 -307.85 Q62.3 -307.4 66.3 -303.35 69.55 -304.9 73.3 -305.9 90.45 -310.7 107.3 -284.55 112.45 -276.55 116.95 -266.55 L116.95 -266.5 Q120.35 -258.8 120.5 -257.45 L120.5 -257.4 Q123.3 -232.65 147.5 -205.65 L147.9 -204.75 147.9 -204.4 147.7 -203.55 147.05 -202.95 146.2 -202.85 Q144.0 -203.1 137.75 -205.9 L137.8 -205.9 132.05 -208.45 Q131.2 -208.05 131.15 -206.95 L131.5 -204.9 Q135.45 -197.45 136.05 -195.05 138.0 -188.25 129.0 -179.65 L125.6 -176.65 Q125.15 -176.25 124.55 -176.25 123.9 -176.3 123.5 -176.75 121.3 -179.25 116.75 -183.4 L116.8 -183.4 Q110.1 -189.5 107.9 -190.3 L104.3 -181.15 103.15 -178.5 105.1 -173.95 106.75 -169.2 106.75 -169.15 Q108.0 -164.55 108.0 -160.75 108.05 -158.95 106.55 -155.5 104.7 -151.4 101.75 -148.45 101.4 -148.1 100.9 -148.0 L100.0 -148.2 Q99.55 -148.45 99.35 -148.9 98.7 -150.3 97.65 -157.05 97.1 -159.1 96.2 -160.35 L96.15 -160.4 Q95.0 -161.9 93.1 -161.9 L89.3 -157.95 85.6 -153.7 Q77.15 -143.8 74.0 -141.7 73.5 -141.4 72.95 -141.45 72.4 -141.55 72.05 -141.95 71.65 -142.4 71.65 -142.95 L71.75 -149.1 Q71.5 -150.35 70.6 -150.95 70.15 -151.25 70.0 -151.75 69.8 -152.25 70.0 -152.7 70.15 -153.2 70.6 -153.5 L71.2 -153.9 71.4 -154.0 Q81.05 -160.85 84.35 -163.95 L85.45 -165.05 Q89.4 -169.05 91.55 -172.75 83.0 -191.05 78.5 -208.15 77.6 -211.55 76.85 -218.95 76.0 -226.8 75.35 -230.0 72.95 -241.45 64.65 -242.15 64.15 -242.2 63.8 -242.5 L63.3 -243.3 61.05 -251.8 Q60.4 -251.3 60.3 -250.2 61.0 -245.8 60.75 -244.15 L60.35 -243.35 59.6 -242.85 58.7 -242.95 Q58.25 -243.15 58.0 -243.55 L54.5 -249.0 49.1 -257.35 Q44.6 -263.75 42.05 -265.75 L41.15 -266.3 40.85 -266.4 40.6 -266.4 40.35 -266.4 40.05 -266.35 39.9 -266.3 Q38.55 -265.95 38.45 -264.45 L38.35 -264.05 Q37.7 -262.4 37.3 -259.9 35.7 -250.05 34.75 -249.1 34.4 -248.7 33.9 -248.55 L32.9 -248.7 Q32.4 -249.0 32.2 -249.5 31.5 -251.2 30.7 -258.55 30.2 -260.9 29.4 -262.2 L26.85 -263.5 25.7 -263.15 25.4 -262.85 25.0 -261.95 Q22.1 -258.85 17.85 -250.95 L9.3 -235.0 8.7 -234.4 7.85 -234.2 Q7.35 -234.25 7.0 -234.55 L6.5 -235.25 Q5.55 -238.55 3.55 -250.7 L3.55 -250.6 Q2.45 -255.35 1.15 -257.75 L-1.4 -259.7 Q-2.45 -259.65 -2.9 -259.25 L-3.3 -258.9 Q-6.25 -256.8 -9.35 -250.55 L-9.3 -250.65 Q-14.45 -238.65 -16.75 -235.0 -17.1 -234.5 -17.7 -234.35 L-18.8 -234.5 Q-19.35 -234.85 -19.5 -235.4 -20.5 -239.35 -22.5 -252.15 L-22.5 -252.1 Q-23.15 -255.45 -23.75 -257.7 -23.9 -258.25 -23.65 -258.75 L-23.35 -259.2 Q-23.35 -259.95 -23.65 -260.6 -24.05 -261.45 -24.8 -261.6 L-27.6 -259.5 Q-30.9 -255.45 -35.95 -245.05 -46.25 -224.0 -49.2 -220.55 -49.6 -220.1 -50.2 -220.05 -50.8 -220.0 -51.25 -220.35 -51.75 -220.75 -51.8 -221.3 -52.35 -224.55 -53.4 -237.1 L-53.35 -237.05 Q-54.7 -246.35 -57.35 -246.65 -58.6 -246.65 -59.25 -246.25 L-59.4 -243.55 Q-58.65 -236.65 -57.45 -229.8 L-57.55 -228.95 Q-59.3 -225.15 -61.05 -217.0 -64.0 -203.95 -64.05 -199.1 L-61.3 -183.7 -61.3 -183.45 Q-61.3 -179.65 -63.2 -172.45 -65.0 -165.7 -65.0 -162.3 L-65.0 -162.05 Q-65.5 -159.25 -64.85 -157.8 -64.3 -156.9 -62.9 -156.9 L-62.4 -156.8 -62.35 -156.8 -61.5 -156.05 Q-61.2 -155.5 -61.4 -154.9 L-61.6 -152.0 -59.45 -150.1 -59.0 -149.65 -47.8 -140.3 -47.85 -140.35 -46.5 -139.4 -46.4 -139.35 -46.15 -139.15 Q-45.7 -138.85 -45.55 -138.35 -45.4 -137.85 -45.55 -137.35 L-46.25 -136.6 -47.25 -136.4 -47.5 -136.45 Q-49.15 -136.45 -49.85 -135.75 -50.45 -134.95 -50.15 -133.35 -50.05 -132.8 -50.35 -132.3 -50.7 -131.8 -51.2 -131.65 L-52.3 -131.75 -57.3 -134.2 -67.55 -139.3 -68.3 -139.5 -68.85 -140.0 Q-71.15 -143.8 -72.4 -144.05 L-74.3 -143.7 -74.5 -143.45 -74.5 -141.75 -72.45 -138.25 -72.4 -138.25 Q-69.85 -134.2 -69.95 -132.15 -69.95 -131.55 -70.35 -131.1 -70.75 -130.7 -71.3 -130.65 -71.9 -130.6 -72.35 -130.95 L-83.75 -139.35 -83.8 -139.4 Q-90.8 -144.85 -92.3 -148.55 -92.95 -150.0 -93.3 -153.6 L-93.8 -159.55 Q-94.5 -165.4 -96.9 -165.7 -97.95 -165.5 -99.7 -163.5 -101.35 -161.65 -103.4 -158.4 L-106.6 -153.0 Q-106.9 -152.5 -107.45 -152.3 L-108.55 -152.4 -109.05 -152.65 -109.65 -153.2 -109.9 -154.0 -109.9 -166.7 -109.8 -167.15 -109.4 -168.55 -110.25 -168.9 Q-113.55 -171.7 -117.65 -183.05 L-120.85 -192.35 Q-123.1 -191.65 -130.05 -185.85 L-137.05 -179.55 Q-137.5 -179.15 -138.15 -179.1 -138.75 -179.15 -139.2 -179.55 L-142.4 -182.7 -142.45 -182.75 Q-151.05 -191.75 -148.7 -198.45 -148.0 -200.8 -143.65 -208.1 L-143.25 -210.15 Q-143.3 -211.2 -144.05 -211.65 L-149.95 -209.4 -149.9 -209.4 Q-156.3 -206.9 -158.45 -206.7 L-159.3 -206.9 -159.9 -207.5 -160.1 -208.3 -160.1 -208.65 -159.65 -209.6 Q-134.15 -235.4 -130.15 -260.0 L-130.15 -260.05 Q-129.95 -261.4 -126.15 -268.95 -121.2 -278.7 -115.65 -286.45 -97.55 -311.75 -80.6 -306.15 -73.65 -303.95 -68.5 -299.8 L-67.95 -300.5 -67.85 -300.6 -63.4 -304.35 -63.4 -304.3 Q-58.5 -307.95 -52.05 -310.5 -47.85 -312.15 -43.15 -315.2 L-37.65 -318.55 -37.15 -318.7 -7.2 -324.6 -6.65 -324.6 -3.65 -324.3 Q10.0 -323.1 26.5 -319.7 44.65 -316.05 54.15 -311.35 L60.15 -308.25 60.1 -308.25 60.9 -307.85 M55.6 -142.1 L49.55 -136.55 Q49.15 -136.25 48.65 -136.25 48.1 -136.25 47.7 -136.6 47.3 -136.95 47.2 -137.45 L46.45 -139.25 Q46.15 -139.65 46.15 -140.1 L46.4 -140.95 47.1 -141.5 53.9 -144.5 54.95 -144.6 Q55.45 -144.5 55.75 -144.0 L56.05 -143.0 55.6 -142.1 M-41.75 -136.55 L-41.55 -136.45 -41.45 -136.4 Q-39.05 -135.05 -36.55 -133.95 -36.15 -133.75 -35.9 -133.4 L-35.65 -132.6 -35.85 -131.8 -36.4 -131.0 -37.0 -130.5 -37.7 -130.4 Q-39.2 -130.4 -43.2 -133.85 L-43.25 -133.85 -43.5 -134.1 Q-43.95 -134.5 -44.0 -135.05 -44.05 -135.65 -43.7 -136.1 -43.4 -136.55 -42.8 -136.7 L-41.75 -136.55" fill="#20ad79" fill-rule="evenodd" stroke="none"/>
  </g>
</svg>
