<?xml version="1.0" encoding="UTF-8" standalone="no"?>
<svg xmlns:xlink="http://www.w3.org/1999/xlink" height="320.4px" width="229.25px" xmlns="http://www.w3.org/2000/svg">
  <g transform="matrix(1, 0, 0, 1, 121.1, 324.3)">
    <path d="M69.65 -306.95 Q84.8 -295.3 91.2 -286.65 97.6 -278.05 103.45 -262.9 109.3 -247.75 107.9 -223.6 105.3 -211.85 102.6 -211.85 102.3 -211.85 100.6 -214.5 L101.25 -195.2 Q98.6 -172.45 94.3 -150.1 L91.75 -137.85 Q92.5 -120.6 91.9 -58.05 88.1 -23.75 81.8 -23.75 L79.85 -24.0 78.45 -24.8 Q78.3 -28.1 74.35 -39.95 70.0 -31.65 60.5 -19.55 48.25 -3.9 43.2 -3.9 L42.0 -3.95 37.7 -21.85 31.9 -15.65 Q21.15 -4.85 15.4 -4.85 11.95 -4.85 11.25 -7.25 L10.05 -10.65 7.25 -7.55 Q5.6 -5.8 3.8 -5.8 0.15 -5.8 -3.25 -12.1 -5.95 -6.75 -7.0 -6.75 -12.05 -6.75 -23.75 -12.95 L-36.8 -20.15 -33.45 -15.75 Q-32.15 -14.0 -32.15 -11.95 -32.15 -8.9 -36.2 -8.65 -53.45 -8.65 -67.25 -22.95 -74.2 -30.2 -78.0 -38.0 L-78.25 -38.0 Q-76.95 -33.9 -76.65 -31.3 -76.35 -29.0 -77.3 -27.75 -77.55 -23.75 -81.8 -23.75 -91.05 -23.75 -100.5 -43.85 -107.65 -59.2 -110.05 -72.2 L-113.45 -67.4 Q-116.0 -64.1 -117.55 -64.1 -118.95 -64.1 -119.45 -64.45 -120.65 -65.2 -120.85 -65.3 L-121.1 -68.85 -115.9 -106.7 Q-110.75 -146.15 -110.75 -155.3 L-112.55 -197.7 Q-112.55 -209.05 -108.5 -227.45 -103.4 -250.7 -94.45 -270.0 -83.1 -294.35 -67.35 -307.95 -48.4 -324.3 -24.3 -323.95 -24.3 -324.2 -9.35 -324.3 45.95 -323.75 59.1 -313.2 65.0 -310.55 69.65 -306.95 M99.95 -233.75 Q99.25 -261.6 85.85 -283.2 79.3 -292.35 66.45 -301.55 53.55 -310.75 23.05 -315.55 L-0.35 -316.75 1.65 -316.8 -0.3 -316.8 -0.35 -316.8 -11.75 -316.8 -12.8 -316.8 -13.15 -316.8 -13.7 -316.8 Q-31.15 -316.45 -45.4 -310.4 L-45.85 -310.2 -46.25 -310.05 -46.5 -309.95 -46.65 -309.9 Q-57.55 -305.05 -66.6 -296.8 L-66.65 -296.75 -66.95 -296.5 -67.25 -296.2 -67.7 -295.75 -68.3 -295.15 -68.4 -295.1 -68.7 -294.8 -68.75 -294.75 -69.95 -293.55 -71.15 -292.3 -71.75 -291.65 -86.65 -270.2 -87.05 -269.5 -87.3 -269.05 -87.55 -268.55 -87.8 -268.05 -88.1 -267.4 -89.05 -265.45 -89.1 -265.35 -89.35 -264.9 -89.6 -264.35 -92.4 -258.05 -92.6 -257.5 -92.7 -257.25 -92.8 -257.05 -92.85 -256.85 -92.95 -256.7 -94.0 -254.0 -94.15 -253.5 -94.3 -253.1 -95.1 -250.95 -95.25 -250.5 -97.2 -244.6 -97.45 -243.85 -99.2 -237.6 -100.15 -233.9 -102.0 -225.65 -102.3 -224.15 -102.4 -223.7 -102.45 -223.45 -102.55 -222.75 -103.55 -217.0 -103.65 -216.2 -105.45 -200.0 -105.5 -198.7 -105.5 -198.25 -105.5 -198.15 -105.55 -197.8 -105.55 -197.7 -105.55 -197.0 -105.5 -196.6 -104.8 -181.95 Q-103.65 -157.2 -103.65 -155.3 L-103.65 -155.15 Q-103.7 -149.45 -106.35 -121.55 -108.45 -99.9 -114.05 -79.9 L-109.35 -91.65 Q-107.75 -93.25 -106.05 -93.65 -106.0 -90.25 -105.4 -83.95 -103.65 -65.4 -90.45 -46.1 L-85.5 -39.3 -85.35 -44.25 -85.4 -45.45 Q-86.35 -60.8 -81.8 -60.8 -79.95 -60.8 -77.65 -56.75 L-77.15 -55.8 Q-73.8 -48.5 -71.35 -43.95 -61.25 -25.45 -44.4 -19.2 L-43.95 -19.05 -43.9 -19.05 -43.9 -19.1 -43.9 -20.5 -44.15 -22.75 Q-44.8 -26.15 -46.75 -33.25 L-46.75 -33.45 -46.75 -33.7 -46.75 -33.8 -46.1 -35.9 -45.6 -36.5 -45.15 -36.8 -44.75 -37.0 -44.45 -37.1 -44.1 -37.15 -43.3 -37.25 -43.2 -37.25 -39.95 -34.6 -32.9 -28.4 Q-21.15 -18.85 -9.7 -15.9 -9.45 -16.2 -8.1 -20.7 L-7.85 -21.25 -7.15 -22.55 -7.0 -22.85 -6.25 -23.9 -5.15 -24.65 Q-4.45 -25.05 -3.65 -25.05 L-3.4 -25.05 -3.2 -25.05 -3.15 -25.05 Q0.2 -25.05 1.45 -22.0 3.35 -17.4 3.9 -16.85 5.15 -17.75 5.4 -22.3 L5.4 -22.85 Q5.55 -26.95 9.35 -26.95 L9.45 -26.95 9.65 -26.95 10.45 -26.75 13.05 -24.4 13.85 -23.05 13.9 -23.0 14.25 -22.25 14.65 -21.4 16.65 -15.45 17.1 -14.0 17.15 -14.0 17.25 -14.05 17.6 -14.3 17.7 -14.35 20.1 -16.3 20.1 -16.35 20.5 -16.7 20.75 -16.9 20.95 -17.05 21.6 -17.7 32.55 -28.3 34.85 -30.6 35.5 -31.3 36.1 -31.85 36.2 -32.0 37.65 -33.45 38.55 -34.4 38.65 -34.4 38.7 -34.4 38.8 -34.4 38.85 -34.4 39.35 -34.35 39.9 -34.2 Q41.4 -33.75 41.85 -32.1 L41.95 -31.65 Q43.8 -30.0 44.7 -25.55 L45.65 -19.8 Q46.15 -16.6 46.75 -15.4 L58.25 -28.65 Q65.45 -37.25 67.2 -42.5 67.6 -43.75 69.7 -56.95 L69.85 -58.05 Q71.45 -68.4 73.85 -68.4 74.8 -68.4 75.8 -66.9 77.15 -64.8 78.6 -59.7 80.9 -50.3 82.2 -46.4 L82.3 -46.15 82.5 -45.6 82.45 -46.0 Q81.7 -51.9 82.2 -56.7 L82.35 -58.2 82.8 -66.15 82.8 -66.25 83.35 -79.6 83.4 -81.6 83.65 -88.45 83.7 -89.15 83.7 -89.85 83.7 -90.1 Q84.65 -118.6 82.05 -110.05 81.5 -108.25 80.2 -105.9 75.9 -102.7 75.25 -102.7 72.75 -102.7 72.0 -104.65 71.6 -105.6 71.7 -106.75 71.7 -109.1 73.6 -115.9 L64.35 -98.6 Q58.2 -87.6 55.45 -87.6 52.5 -87.6 51.9 -89.6 49.15 -90.05 49.15 -92.85 49.15 -96.7 51.85 -103.4 L51.85 -108.4 51.75 -108.85 51.65 -108.75 Q49.8 -107.45 47.95 -107.45 43.45 -107.45 43.45 -110.75 45.05 -135.15 47.5 -140.05 36.4 -135.55 24.5 -132.4 4.95 -127.25 -12.15 -127.25 -27.0 -127.25 -40.65 -134.25 -34.7 -115.3 -34.1 -110.6 L-34.05 -110.55 -34.05 -110.35 -34.05 -109.8 Q-34.05 -108.9 -34.35 -108.2 L-34.4 -107.7 -35.3 -107.1 Q-36.1 -106.5 -37.5 -106.5 L-37.55 -106.5 -37.6 -106.5 -38.0 -106.5 Q-40.95 -106.5 -43.55 -111.7 -48.4 -116.6 -48.8 -118.25 L-49.0 -114.55 Q-49.0 -109.6 -43.85 -97.35 -38.7 -86.0 -38.7 -85.6 -38.7 -81.1 -42.25 -81.1 -42.65 -81.1 -53.65 -93.35 L-70.5 -112.55 Q-71.25 -113.5 -72.1 -115.6 -72.95 -114.95 -74.2 -114.95 -76.35 -114.95 -80.55 -123.5 -84.45 -131.6 -85.35 -136.55 L-87.9 -148.7 Q-88.1 -150.05 -88.1 -157.8 -84.6 -216.1 -79.35 -222.75 -79.5 -229.65 -77.7 -236.9 -72.45 -258.55 -66.0 -262.75 -59.6 -266.95 -59.15 -266.6 L-58.05 -265.75 -58.25 -265.8 -58.7 -265.45 Q-60.1 -263.8 -65.4 -253.85 -71.9 -241.75 -70.75 -220.6 L-64.45 -230.2 Q-55.7 -244.0 -45.35 -262.3 -34.85 -281.05 -33.8 -281.05 L-33.6 -281.05 -33.45 -281.05 -33.4 -281.05 -33.15 -281.0 -33.0 -281.0 -32.95 -281.0 -32.55 -280.9 -32.4 -280.85 -32.35 -280.8 -32.15 -280.75 -32.05 -280.7 -32.0 -280.65 -31.65 -280.45 -31.3 -280.15 -31.1 -279.95 -30.9 -279.7 -30.75 -279.5 Q-29.95 -278.9 -29.55 -277.7 L-29.3 -275.0 Q-29.3 -269.4 -31.55 -261.05 -34.5 -250.25 -35.0 -247.2 L-34.75 -247.0 -34.65 -247.05 -29.1 -253.1 -28.65 -253.65 -28.5 -253.8 -28.05 -254.35 -27.85 -254.55 -19.2 -265.8 -15.4 -270.95 -14.9 -271.7 Q-2.8 -288.55 -2.25 -288.55 -0.5 -288.55 0.5 -287.8 L1.15 -287.15 Q2.8 -286.25 2.45 -283.3 2.45 -281.45 -0.25 -272.4 -2.95 -263.3 -2.95 -254.35 -2.95 -248.45 -2.25 -244.45 -0.6 -235.15 -0.1 -231.4 0.0 -230.7 0.45 -230.45 L3.15 -233.05 3.5 -233.45 4.0 -233.95 4.95 -234.85 22.65 -255.55 Q30.8 -267.7 31.4 -279.05 L31.2 -281.3 Q31.2 -285.8 34.75 -285.8 L34.9 -285.8 35.15 -285.75 36.05 -285.5 36.55 -285.2 36.6 -285.15 36.95 -284.9 37.3 -284.55 37.6 -284.2 37.7 -284.1 Q39.45 -281.9 40.85 -276.7 L40.95 -276.35 41.25 -275.05 41.4 -274.35 41.45 -274.2 41.45 -274.1 41.5 -274.0 41.8 -272.4 Q43.45 -263.75 43.9 -252.8 L44.15 -252.55 44.15 -252.7 44.15 -252.75 44.6 -269.05 44.65 -269.45 44.95 -272.45 45.05 -273.15 45.1 -273.35 45.45 -275.25 45.65 -275.95 45.65 -276.05 45.8 -276.55 46.35 -277.95 46.95 -279.0 47.1 -279.15 Q47.75 -279.9 48.55 -280.05 L48.75 -280.1 48.8 -280.1 48.9 -280.1 49.0 -280.1 50.75 -279.15 50.8 -279.15 Q54.95 -279.15 65.15 -264.2 67.05 -261.5 82.05 -233.0 L81.35 -241.05 Q79.3 -263.15 77.75 -270.7 L78.45 -270.75 Q79.4 -270.75 80.35 -270.2 82.2 -269.2 83.9 -266.2 85.6 -263.15 88.4 -255.4 95.0 -237.15 99.95 -232.35 L99.95 -233.75 M53.1 -265.6 Q49.3 -225.15 42.25 -225.15 39.65 -225.15 38.25 -236.45 37.9 -239.4 36.9 -253.05 L34.75 -263.05 Q30.5 -253.2 21.15 -240.1 14.4 -230.7 8.05 -224.15 1.65 -217.55 -0.8 -217.55 -5.4 -217.55 -8.2 -236.3 -9.55 -245.65 -10.05 -255.05 L-8.8 -266.2 Q-18.55 -250.95 -37.5 -222.3 -41.3 -222.3 -42.5 -230.45 -43.1 -234.55 -42.95 -238.65 L-41.55 -252.35 -47.1 -243.75 -47.1 -241.15 -49.0 -193.2 Q-49.0 -169.2 -43.5 -145.1 -29.7 -135.0 -1.4 -135.0 9.35 -135.0 24.9 -139.55 39.95 -143.95 54.3 -150.95 69.25 -158.25 78.25 -165.9 88.1 -174.3 88.1 -181.0 88.1 -182.2 86.25 -186.45 L82.1 -195.95 Q76.1 -211.05 76.1 -224.15 L76.1 -229.25 Q70.75 -241.15 68.85 -244.15 L55.55 -262.3 53.1 -265.6 M84.4 -211.75 L84.6 -210.0 Q84.95 -208.15 90.4 -195.3 L92.9 -189.2 92.95 -208.9 Q92.95 -219.95 93.8 -225.9 L90.2 -232.75 Q89.15 -223.7 89.15 -216.95 89.15 -211.85 85.1 -211.85 84.85 -211.85 84.35 -212.45 L84.4 -211.75 M81.25 -127.25 L82.85 -132.15 Q86.6 -143.65 90.75 -168.85 88.55 -165.95 85.35 -162.9 82.0 -159.7 72.0 -152.6 66.25 -148.95 59.35 -145.5 L58.95 -145.3 58.7 -145.15 54.5 -143.15 54.25 -142.25 49.55 -122.05 54.5 -132.15 56.5 -135.9 Q56.95 -136.55 57.65 -136.8 L58.75 -137.0 Q62.15 -137.0 62.75 -134.85 63.0 -134.0 62.8 -132.75 62.8 -128.75 59.5 -110.45 L58.95 -107.4 60.3 -110.05 63.9 -117.05 64.8 -118.7 Q75.8 -139.85 76.2 -139.85 77.2 -139.85 77.75 -137.65 78.85 -132.9 77.6 -117.95 L80.15 -124.2 Q80.15 -125.95 81.1 -126.8 L81.25 -127.25 M-51.15 -142.5 L-51.25 -142.95 -52.15 -149.45 Q-55.0 -170.95 -56.15 -192.7 -55.85 -218.05 -54.7 -232.0 -60.7 -222.0 -65.5 -208.9 L-70.05 -196.85 -70.35 -196.85 -70.55 -196.85 -70.8 -196.9 -70.85 -196.95 -71.45 -197.15 Q-74.4 -201.75 -76.25 -206.6 -78.25 -192.85 -78.25 -187.85 L-81.1 -157.9 -81.1 -157.85 -81.05 -157.75 -80.7 -154.25 -80.65 -153.7 -79.95 -147.35 -79.85 -146.8 -79.85 -146.6 -79.8 -146.1 -79.7 -145.4 -78.75 -137.25 -78.6 -136.15 -78.6 -135.9 -78.5 -135.3 -78.5 -135.1 -78.45 -134.95 -78.4 -134.45 -77.9 -130.15 -77.85 -129.95 -77.85 -129.8 -77.8 -129.4 -77.55 -127.25 -77.5 -129.65 -74.95 -156.7 Q-74.25 -157.7 -73.45 -156.2 L-73.45 -147.05 -72.75 -145.15 -72.65 -144.8 -72.6 -144.6 -72.55 -144.35 -72.5 -144.1 -72.5 -144.05 -72.45 -143.95 -72.45 -143.9 -72.35 -143.4 -72.35 -143.25 -72.3 -143.1 -72.3 -142.95 -71.1 -136.95 -70.9 -136.2 -70.9 -136.1 -70.8 -135.7 -70.65 -134.95 Q-69.05 -127.8 -66.1 -121.85 -62.35 -114.15 -56.4 -108.5 -56.15 -109.45 -56.15 -112.45 L-56.4 -116.4 -58.05 -134.65 -58.05 -139.1 Q-57.5 -142.65 -54.6 -142.7 L-54.5 -142.7 Q-54.35 -142.7 -50.1 -136.1 L-51.15 -142.5" fill="#000000" fill-rule="evenodd" stroke="none"/>
    <path d="M-0.35 -316.75 L23.05 -315.55 Q53.55 -310.75 66.45 -301.55 79.3 -292.35 85.85 -283.2 99.25 -261.6 99.95 -233.75 83.1 -272.25 82.75 -272.25 L80.95 -271.95 80.35 -271.7 80.35 -270.2 Q79.4 -270.75 78.45 -270.75 L77.75 -270.7 Q79.3 -263.15 81.35 -241.05 77.4 -250.6 70.3 -262.35 59.15 -280.8 53.55 -280.8 51.5 -280.8 50.45 -279.5 L49.75 -279.9 49.0 -280.1 48.9 -280.1 48.8 -280.1 48.75 -280.1 48.55 -280.05 Q47.75 -279.9 47.1 -279.15 L46.95 -279.0 46.35 -277.95 45.8 -276.55 45.65 -276.05 45.65 -275.95 45.45 -275.25 45.1 -273.35 45.0 -273.35 44.55 -275.15 Q41.75 -285.55 38.55 -285.55 37.7 -285.55 36.95 -284.9 L36.6 -285.15 36.55 -285.2 36.05 -285.5 35.15 -285.75 34.9 -285.8 34.75 -285.8 Q31.2 -285.8 31.2 -281.3 L31.4 -279.05 Q30.8 -267.7 22.65 -255.55 L4.95 -234.85 4.0 -233.95 3.5 -233.85 3.5 -233.9 2.5 -246.45 Q1.4 -262.0 1.4 -265.15 1.4 -268.0 2.8 -275.8 4.15 -283.6 4.15 -286.65 4.15 -288.15 3.45 -288.65 L1.9 -289.25 0.5 -287.8 Q-0.5 -288.55 -2.25 -288.55 -2.8 -288.55 -14.9 -271.7 L-15.4 -270.95 -19.2 -265.8 -27.85 -254.55 -28.05 -254.35 -28.5 -253.8 -28.65 -253.65 -28.6 -259.45 Q-26.7 -273.5 -26.7 -278.55 -26.7 -280.95 -27.15 -280.35 L-29.55 -280.8 -30.45 -280.65 -30.95 -281.75 -31.65 -280.45 -32.0 -280.65 -32.05 -280.7 -32.15 -280.75 -32.35 -280.8 -32.4 -280.85 -32.55 -280.9 -32.95 -281.0 -33.0 -281.0 -33.15 -281.0 -33.4 -281.05 -33.45 -281.05 -33.6 -281.05 -33.8 -281.05 Q-34.85 -281.05 -45.35 -262.3 -55.7 -244.0 -64.45 -230.2 L-65.3 -235.7 Q-65.3 -244.05 -61.55 -253.35 -57.8 -262.6 -57.8 -263.5 -57.8 -265.05 -58.2 -265.3 L-58.7 -265.45 -58.25 -265.8 -58.05 -265.75 -59.15 -266.6 Q-59.6 -266.95 -66.0 -262.75 -72.45 -258.55 -77.7 -236.9 -79.5 -229.65 -79.35 -222.75 -84.6 -216.1 -88.1 -157.8 -88.1 -150.05 -87.9 -148.7 L-85.35 -136.55 Q-84.45 -131.6 -80.55 -123.5 -76.35 -114.95 -74.2 -114.95 -72.95 -114.95 -72.1 -115.6 -71.25 -113.5 -70.5 -112.55 L-53.65 -93.35 Q-42.65 -81.1 -42.25 -81.1 -38.7 -81.1 -38.7 -85.6 -38.7 -86.0 -43.85 -97.35 -49.0 -109.6 -49.0 -114.55 L-48.8 -118.25 Q-48.4 -116.6 -43.55 -111.7 -40.95 -106.5 -38.0 -106.5 L-37.6 -106.5 -37.5 -106.5 Q-36.1 -106.5 -35.3 -107.1 L-34.4 -107.7 -34.35 -108.2 Q-34.05 -108.9 -34.05 -109.8 L-34.05 -110.35 -34.05 -110.55 -34.1 -110.6 Q-34.7 -115.3 -40.65 -134.25 -27.0 -127.25 -12.15 -127.25 4.95 -127.25 24.5 -132.4 36.4 -135.55 47.5 -140.05 45.05 -135.15 43.45 -110.75 43.45 -107.45 47.95 -107.45 49.8 -107.45 51.65 -108.75 L51.85 -108.4 51.85 -103.4 Q49.15 -96.7 49.15 -92.85 49.15 -90.05 51.9 -89.6 52.5 -87.6 55.45 -87.6 58.2 -87.6 64.35 -98.6 L73.6 -115.9 Q71.7 -109.1 71.7 -106.75 71.6 -105.6 72.0 -104.65 72.75 -102.7 75.25 -102.7 75.9 -102.7 80.2 -105.9 81.5 -108.25 82.05 -110.05 84.65 -118.6 83.7 -90.1 L83.7 -89.85 83.7 -89.15 83.65 -88.45 83.4 -81.6 83.35 -79.6 82.8 -66.25 82.8 -66.15 82.35 -58.2 Q78.75 -67.2 77.15 -67.2 L75.8 -66.9 Q74.8 -68.4 73.85 -68.4 71.45 -68.4 69.85 -58.05 L69.7 -56.95 66.7 -50.05 62.1 -38.95 Q58.7 -33.6 51.75 -25.5 L49.85 -23.3 Q46.0 -37.05 42.25 -37.05 40.25 -37.05 39.9 -35.4 L39.9 -34.2 39.35 -34.35 38.85 -34.4 38.8 -34.4 38.7 -34.4 38.65 -34.4 38.55 -34.4 37.65 -33.45 36.2 -32.0 36.1 -31.85 35.5 -31.3 34.85 -30.6 32.55 -28.3 21.6 -17.7 20.95 -17.05 20.75 -16.9 Q19.95 -19.2 17.6 -23.0 14.15 -28.6 12.2 -28.6 11.3 -28.6 10.1 -27.45 L9.35 -26.95 Q5.55 -26.95 5.4 -22.85 L5.15 -22.7 Q2.55 -26.7 -0.45 -26.7 L-2.7 -26.5 Q-3.1 -26.3 -3.15 -25.05 L-3.2 -25.05 -3.4 -25.05 -3.65 -25.05 Q-4.45 -25.05 -5.15 -24.65 L-6.25 -23.9 -7.0 -22.85 -7.15 -22.55 -7.85 -21.25 -9.15 -22.15 Q-11.65 -23.75 -18.9 -27.3 -35.25 -35.3 -40.35 -40.85 L-44.75 -37.0 -45.15 -36.8 -45.6 -36.5 -46.1 -35.9 -46.75 -33.8 -46.75 -33.7 -46.75 -33.45 -46.75 -33.25 Q-44.8 -26.15 -44.15 -22.75 -75.75 -56.85 -76.1 -56.85 L-77.65 -56.75 Q-79.95 -60.8 -81.8 -60.8 -86.35 -60.8 -85.4 -45.45 -96.7 -72.55 -98.75 -78.75 -104.85 -97.1 -104.85 -114.7 -104.85 -128.9 -103.4 -136.1 -102.0 -143.3 -102.0 -151.6 L-102.0 -151.95 Q-97.1 -195.15 -90.95 -223.8 -83.4 -258.4 -62.75 -288.55 -57.0 -296.9 -49.35 -306.0 L-45.85 -310.2 -45.4 -310.4 Q-31.15 -316.45 -13.7 -316.8 L-13.15 -316.8 -12.8 -316.8 -11.75 -316.8 -0.35 -316.8 -0.3 -316.8 -0.35 -316.75 M58.7 -145.15 L58.95 -145.3 59.35 -145.5 Q66.25 -148.95 72.0 -152.6 82.0 -159.7 85.35 -162.9 88.55 -165.95 90.75 -168.85 86.6 -143.65 82.85 -132.15 L81.25 -127.25 Q79.75 -137.75 78.45 -137.75 L77.75 -137.65 Q77.2 -139.85 76.2 -139.85 75.8 -139.85 64.8 -118.7 L65.4 -132.75 Q65.4 -135.1 64.8 -134.5 L62.75 -134.85 Q62.15 -137.0 58.75 -137.0 L57.65 -136.8 58.7 -145.15 M-70.55 -196.85 L-70.35 -196.85 -70.05 -196.85 -65.5 -208.9 Q-60.7 -222.0 -54.7 -232.0 -55.85 -218.05 -56.15 -192.7 -55.0 -170.95 -52.15 -149.45 L-51.25 -142.95 -51.15 -142.5 -52.6 -144.4 Q-54.05 -143.85 -54.6 -142.7 -57.5 -142.65 -58.05 -139.1 L-58.05 -134.65 -56.4 -116.4 -70.05 -145.35 Q-72.4 -145.35 -72.65 -144.85 L-72.65 -144.8 -72.75 -145.15 -72.75 -145.2 -72.75 -147.1 Q-72.75 -156.15 -70.8 -196.85 L-70.55 -196.85" fill="#ffffff" fill-rule="evenodd" stroke="none"/>
    <path d="M85.1 -211.85 Q89.15 -211.85 89.15 -216.95 89.15 -223.7 90.2 -232.75 L93.8 -225.9 Q92.95 -219.95 92.95 -208.9 L92.9 -189.2 90.4 -195.3 Q84.95 -208.15 84.6 -210.0 L84.4 -211.75 85.1 -211.85" fill="#f7feff" fill-rule="evenodd" stroke="none"/>
  </g>
</svg>
