<?xml version="1.0" encoding="UTF-8" standalone="no"?>
<svg xmlns:xlink="http://www.w3.org/1999/xlink" height="320.8px" width="228.15px" xmlns="http://www.w3.org/2000/svg">
  <g transform="matrix(1, 0, 0, 1, 114.55, 325.25)">
    <path d="M70.05 -303.6 Q81.2 -292.35 98.0 -285.5 106.4 -282.1 112.55 -280.8 112.55 -277.85 105.6 -275.15 100.65 -273.2 91.65 -272.5 120.15 -226.15 105.0 -210.7 104.3 -211.1 103.65 -211.45 114.75 -183.7 106.7 -157.65 105.55 -152.55 105.55 -148.75 105.55 -141.35 110.85 -130.9 116.15 -120.5 111.3 -103.6 106.5 -86.7 104.05 -89.95 101.6 -93.25 102.55 -99.35 L101.05 -94.25 100.25 -91.75 Q98.8 -62.15 96.05 -53.85 93.75 -47.1 88.7 -35.0 L83.0 -48.05 82.25 -49.8 Q81.4 -41.1 71.7 -22.05 69.85 -28.9 65.65 -38.0 L61.05 -47.65 Q60.1 -40.7 58.1 -31.9 52.75 -8.65 43.7 -8.65 39.65 -8.65 39.65 -11.95 42.4 -30.95 37.95 -40.6 L37.65 -41.3 Q36.05 -36.4 27.25 -16.2 24.1 -9.1 23.55 -5.55 22.65 -6.15 22.1 -7.05 19.25 -12.0 17.45 -24.7 12.4 -13.6 12.95 -5.75 8.75 -9.85 5.8 -18.85 L5.6 -19.4 Q3.3 -6.85 1.3 -4.45 -3.25 -17.95 -7.8 -23.85 -10.45 -27.25 -16.1 -38.35 -15.9 -31.1 -16.9 -26.5 -20.1 -12.05 -22.55 -10.05 -27.45 -19.65 -29.7 -23.05 L-35.45 -31.95 Q-38.4 -36.85 -40.3 -41.6 L-42.5 -33.85 Q-48.35 -13.3 -50.35 -13.3 L-50.5 -13.3 Q-54.65 -32.6 -59.5 -40.8 L-61.1 -43.7 -61.35 -41.95 -63.5 -34.05 Q-67.2 -21.05 -70.45 -18.0 L-70.95 -21.95 Q-73.15 -38.9 -77.5 -48.9 L-81.15 -56.5 Q-82.0 -58.15 -83.25 -62.25 -82.25 -55.95 -85.85 -36.25 -95.3 -45.85 -99.15 -52.45 -103.3 -59.6 -105.1 -68.4 -106.95 -77.25 -106.95 -88.35 -106.95 -100.55 -103.7 -109.95 -100.45 -119.4 -100.45 -128.25 -100.45 -134.45 -107.5 -147.15 -114.55 -159.85 -114.55 -166.25 -114.55 -174.1 -109.9 -186.15 -103.55 -202.65 -102.6 -206.5 -100.65 -214.1 -100.75 -225.8 L-100.75 -226.65 -101.25 -246.05 Q-97.4 -260.2 -89.25 -273.95 L-79.1 -289.15 -75.85 -293.3 Q-61.0 -311.6 -47.4 -316.85 -44.7 -318.7 -38.8 -320.6 -28.45 -323.95 -16.85 -324.9 -16.85 -325.25 1.4 -325.25 35.45 -325.25 54.9 -315.45 61.25 -312.25 65.75 -308.15 L70.05 -303.6 M48.45 -309.5 Q30.55 -317.75 1.9 -317.75 -15.95 -317.75 -26.95 -315.85 -34.6 -315.05 -45.35 -309.5 -56.15 -303.95 -62.95 -297.65 -69.75 -291.35 -77.15 -282.0 -91.1 -264.8 -93.8 -243.9 -94.55 -238.35 -94.15 -224.45 -93.8 -211.8 -95.2 -205.05 -97.05 -196.4 -102.9 -184.7 -107.45 -175.55 -107.45 -166.95 -107.45 -164.15 -105.25 -159.8 L-100.35 -151.15 Q-93.3 -138.5 -93.3 -128.25 -93.3 -121.75 -96.6 -109.1 -99.95 -96.45 -100.5 -83.45 -101.05 -70.45 -89.95 -48.55 -88.85 -77.5 -84.95 -87.15 -83.7 -84.8 -80.4 -76.55 -73.45 -59.35 -67.45 -46.3 -66.6 -47.8 -66.5 -51.05 -64.2 -59.55 -62.85 -65.15 -60.15 -64.0 -59.45 -59.15 L-59.5 -58.95 Q-58.6 -55.5 -58.1 -54.55 -51.3 -41.3 -48.35 -34.05 -44.1 -47.25 -42.7 -55.75 -41.8 -61.6 -41.85 -64.55 L-41.4 -64.5 -40.45 -64.6 Q-39.15 -64.6 -37.8 -60.55 L-35.1 -51.05 Q-31.0 -35.9 -23.85 -27.35 L-16.9 -61.4 -16.45 -59.05 Q-12.6 -39.9 1.3 -22.45 L2.35 -35.1 3.9 -56.8 Q6.0 -42.1 9.35 -28.25 9.85 -27.15 10.95 -21.1 17.4 -40.15 17.5 -54.8 21.15 -49.3 21.35 -45.7 L21.85 -32.25 Q22.2 -24.65 23.15 -21.1 L23.75 -21.1 Q25.25 -27.15 30.05 -40.5 33.2 -50.6 32.75 -57.85 49.35 -44.25 46.5 -19.05 56.65 -46.7 57.6 -60.1 L57.8 -63.35 59.1 -63.65 60.35 -62.15 61.6 -60.5 64.85 -55.95 Q70.55 -47.95 72.95 -37.0 77.05 -53.75 77.35 -72.1 79.7 -71.65 80.4 -69.25 L83.3 -64.75 Q86.7 -58.85 87.85 -55.2 L88.55 -55.45 88.65 -55.7 91.65 -69.95 Q94.35 -90.5 85.15 -105.75 L85.15 -105.8 85.6 -105.2 85.75 -105.0 85.6 -105.3 85.8 -105.1 85.65 -105.3 78.7 -115.0 78.55 -115.15 77.7 -116.1 76.85 -117.05 76.85 -117.1 75.2 -119.05 71.2 -124.7 70.75 -125.4 70.7 -125.55 69.95 -126.85 Q66.0 -134.5 66.0 -143.3 66.0 -146.0 66.4 -149.25 63.05 -147.35 59.35 -145.5 42.95 -137.25 24.5 -132.4 4.95 -127.25 -12.15 -127.25 L-12.65 -127.25 -12.85 -127.25 Q-24.7 -127.4 -35.75 -131.95 -41.25 -134.25 -46.5 -137.6 L-46.75 -137.75 Q-50.35 -140.05 -59.05 -147.7 -58.1 -143.25 -55.15 -137.45 -50.9 -129.05 -50.9 -124.9 -50.9 -122.55 -52.35 -116.9 -54.7 -104.7 -54.7 -102.0 -54.7 -94.4 -51.45 -88.2 L-49.2 -84.15 Q-48.2 -82.2 -48.2 -80.75 -48.2 -76.35 -51.65 -76.35 L-52.15 -76.35 -52.6 -76.35 -53.0 -76.45 Q-57.9 -77.45 -60.1 -85.55 L-60.6 -86.35 Q-68.2 -98.15 -70.05 -100.1 -76.15 -106.5 -76.2 -112.25 L-75.65 -117.45 Q-75.05 -121.1 -75.05 -123.5 -75.05 -124.9 -80.2 -135.25 -85.35 -147.3 -85.35 -157.3 -85.35 -164.75 -82.95 -170.2 -80.6 -175.7 -80.6 -179.9 L-82.75 -199.6 Q-84.9 -218.9 -78.05 -214.75 L-78.2 -212.25 Q-78.25 -210.65 -75.85 -197.35 -73.55 -184.1 -73.55 -180.15 -73.6 -176.2 -75.9 -169.85 -78.25 -163.55 -78.25 -157.3 -78.25 -150.55 -76.8 -145.85 -76.1 -143.6 -73.55 -138.55 -68.85 -129.2 -68.85 -114.55 -68.85 -111.6 -62.2 -102.35 L-61.75 -101.8 -61.75 -102.6 Q-61.75 -105.15 -59.8 -115.2 L-59.15 -119.0 -58.95 -120.55 Q-58.7 -122.7 -59.05 -119.1 L-58.05 -124.2 Q-58.05 -126.1 -59.35 -128.8 L-62.25 -134.35 Q-66.5 -142.65 -66.5 -151.4 -66.5 -162.55 -63.25 -174.5 L-60.05 -187.0 Q-60.05 -188.1 -62.8 -193.75 -65.55 -199.4 -65.55 -205.3 -64.4 -217.6 -62.9 -224.6 -75.25 -220.4 -80.35 -220.4 -86.45 -220.4 -85.35 -224.4 -85.35 -226.3 -71.35 -247.45 -63.4 -259.45 -60.55 -259.45 -58.85 -259.45 -57.85 -258.65 -61.5 -251.5 -74.05 -231.4 L-76.55 -227.3 Q-55.5 -234.0 -40.35 -242.0 -25.15 -250.1 -22.05 -257.55 -21.05 -259.9 -15.8 -273.95 -10.85 -286.75 -10.3 -286.75 -8.35 -286.75 -7.1 -285.35 -10.55 -272.2 -16.65 -246.45 -1.55 -260.05 2.9 -276.6 7.3 -293.15 7.45 -299.8 12.7 -299.8 19.1 -282.85 L27.9 -255.65 28.35 -255.65 Q28.75 -264.1 30.3 -276.0 32.2 -290.45 33.8 -290.45 34.65 -290.45 36.6 -284.1 39.3 -275.2 42.25 -269.3 52.55 -248.7 80.25 -234.85 L81.6 -234.85 82.35 -233.85 86.45 -231.95 71.7 -260.3 Q72.2 -262.2 75.25 -262.2 97.2 -230.7 101.75 -220.7 104.2 -232.85 96.05 -248.5 87.85 -264.2 82.7 -271.4 L80.95 -274.0 80.65 -274.35 80.45 -274.75 Q79.2 -276.7 79.2 -277.25 L79.2 -277.5 Q93.5 -280.05 94.05 -280.6 84.75 -283.2 74.75 -290.3 69.25 -294.2 60.65 -301.25 57.4 -305.35 48.45 -309.5 M10.3 -280.1 Q8.3 -268.35 -0.95 -253.5 -11.65 -236.4 -21.1 -236.4 -24.05 -236.4 -24.8 -238.55 L-25.05 -241.75 -25.25 -242.45 Q-31.45 -237.65 -42.75 -232.55 L-54.7 -227.6 Q-54.85 -224.25 -56.6 -216.95 -58.5 -209.05 -58.5 -205.65 -58.5 -201.0 -55.65 -196.95 -52.8 -192.9 -52.8 -186.65 L-54.1 -181.1 Q-57.55 -172.3 -58.8 -164.0 L-53.4 -156.1 -49.15 -150.35 Q-46.05 -146.7 -41.7 -143.9 -27.9 -135.0 -1.4 -135.0 9.35 -135.0 24.9 -139.55 L26.2 -139.9 40.45 -144.8 Q47.45 -147.6 54.3 -150.95 61.6 -154.5 67.5 -158.15 73.65 -162.0 78.25 -165.9 L82.8 -170.25 82.85 -170.3 Q86.05 -173.85 87.3 -177.05 L87.7 -178.1 87.95 -179.3 88.1 -181.0 Q88.1 -182.2 86.25 -186.45 L82.1 -195.95 Q76.1 -211.05 76.1 -224.15 L76.1 -228.7 Q63.05 -233.1 51.7 -244.6 42.5 -253.9 37.25 -264.3 L36.65 -264.3 Q35.5 -258.25 35.5 -255.9 35.5 -248.9 39.7 -239.65 36.75 -238.4 28.8 -243.85 20.8 -249.35 16.8 -262.8 12.8 -276.3 10.8 -280.1 L10.3 -280.1 M84.4 -226.7 L84.25 -218.2 Q84.15 -212.5 84.6 -210.0 L85.05 -208.6 Q86.5 -220.2 87.8 -226.3 L84.4 -226.7 M93.35 -219.6 Q91.9 -207.85 91.9 -205.75 91.9 -201.2 95.15 -193.55 98.4 -185.9 98.4 -179.05 98.4 -173.0 94.2 -157.8 L90.0 -142.25 Q90.0 -140.0 92.2 -136.6 L97.05 -129.75 Q103.15 -120.7 105.15 -106.35 107.45 -113.3 107.45 -117.9 107.45 -122.6 106.0 -126.15 105.15 -128.15 102.75 -131.6 98.05 -138.35 98.05 -146.15 98.05 -147.35 100.85 -163.45 103.65 -179.5 103.65 -181.05 103.65 -186.25 102.95 -189.35 L100.2 -199.45 96.7 -211.75 Q95.2 -217.0 95.4 -218.1 94.0 -220.1 93.35 -219.6 M88.7 -166.35 L85.35 -162.9 Q82.45 -160.1 74.55 -154.4 73.15 -146.05 73.15 -144.0 73.15 -136.95 77.1 -130.0 79.65 -125.55 86.0 -116.85 92.3 -108.2 94.05 -102.9 L96.05 -97.0 97.1 -108.05 Q97.1 -117.35 90.05 -126.95 86.2 -132.2 85.2 -134.05 83.0 -138.15 83.0 -142.25 83.0 -144.65 87.2 -160.65 L88.7 -166.35" fill="#000000" fill-rule="evenodd" stroke="none"/>
  </g>
</svg>
