<?xml version="1.0" encoding="UTF-8" standalone="no"?>
<svg xmlns:xlink="http://www.w3.org/1999/xlink" height="212.0px" width="244.5px" xmlns="http://www.w3.org/2000/svg">
  <g transform="matrix(1, 0, 0, 1, 124.35, 322.3)">
    <path d="M56.5 -259.25 Q64.55 -246.0 72.0 -238.5 79.45 -231.0 83.7 -233.15 87.95 -235.35 89.0 -235.35 90.95 -233.0 90.95 -232.25 90.95 -229.35 88.55 -227.6 86.75 -226.3 84.4 -226.1 L84.25 -218.2 Q84.15 -212.5 84.6 -210.0 84.95 -208.15 90.4 -195.3 L94.3 -185.55 Q95.6 -182.05 95.6 -181.15 95.6 -172.7 85.35 -162.9 82.0 -159.7 72.0 -152.6 66.25 -148.95 59.35 -145.5 42.95 -137.25 24.5 -132.4 4.95 -127.25 -12.15 -127.25 -30.35 -127.25 -46.75 -137.75 -50.0 -139.8 -57.35 -146.25 L-57.5 -146.35 -57.55 -146.1 Q-58.0 -143.3 -58.5 -141.45 L-58.55 -140.1 Q-59.1 -136.65 -61.95 -136.65 L-63.9 -136.9 -65.3 -137.75 Q-62.05 -148.0 -71.75 -155.85 -73.4 -157.2 -79.65 -161.3 -84.0 -164.2 -85.1 -166.0 -87.75 -170.25 -90.95 -193.9 L-90.9 -196.0 -90.75 -197.1 Q-90.05 -199.1 -87.4 -199.1 -84.95 -199.1 -83.65 -196.0 -82.55 -193.4 -82.3 -188.65 L-81.8 -179.75 Q-81.25 -174.65 -79.65 -171.95 -78.9 -170.7 -71.2 -165.35 -66.65 -162.2 -64.5 -160.35 L-66.5 -170.85 Q-66.5 -179.45 -59.25 -196.0 L-58.95 -196.75 -53.75 -208.95 Q-51.4 -215.3 -51.4 -219.2 -51.4 -220.35 -52.35 -222.85 L-53.1 -225.15 -59.45 -222.05 Q-66.25 -217.95 -66.85 -213.25 L-64.35 -211.45 Q-62.3 -209.9 -62.3 -208.75 -62.3 -205.3 -67.2 -205.3 L-68.6 -205.35 -69.55 -205.3 Q-71.55 -205.3 -72.7 -206.1 -79.0 -208.2 -81.35 -215.6 -83.0 -220.8 -82.5 -226.2 L-82.4 -228.5 Q-81.9 -234.2 -79.2 -242.7 -74.45 -257.55 -66.7 -257.55 -64.5 -257.55 -63.65 -255.85 -63.15 -254.9 -63.15 -253.85 -63.15 -252.55 -65.05 -249.75 L-69.25 -243.7 Q-74.6 -235.6 -75.3 -228.5 L-75.4 -226.45 Q-75.4 -222.05 -72.6 -218.35 -70.75 -222.45 -66.6 -225.75 L-62.45 -228.5 Q-57.8 -231.2 -50.05 -234.65 -38.0 -239.95 -33.5 -243.4 -26.1 -249.2 -26.0 -257.25 L-27.45 -259.25 Q-28.65 -260.45 -28.8 -261.1 L-29.8 -262.55 Q-29.8 -266.0 -25.75 -266.0 -24.75 -266.0 -23.35 -265.0 -19.8 -264.65 -19.0 -261.6 L-19.0 -260.5 Q-16.1 -256.95 -12.35 -251.0 -10.9 -253.1 -8.65 -259.65 -6.25 -266.65 -6.25 -269.55 -6.25 -270.55 -7.65 -275.5 -9.1 -280.45 -9.1 -282.25 -9.1 -285.8 -5.1 -285.8 -2.85 -285.8 -1.5 -282.5 L0.2 -280.8 Q4.55 -276.3 8.7 -270.65 18.7 -256.95 20.15 -241.3 26.85 -248.65 31.1 -254.55 36.9 -262.7 36.9 -267.3 36.9 -271.55 34.05 -275.65 31.2 -279.75 31.2 -280.35 31.2 -283.9 35.25 -283.9 L35.5 -283.9 35.7 -283.9 Q39.55 -283.9 45.65 -276.1 48.45 -272.55 56.5 -259.25 M43.8 -265.15 Q42.8 -256.65 33.6 -245.95 L24.5 -235.6 Q20.6 -231.0 21.35 -230.1 L24.1 -227.1 Q26.1 -224.95 26.1 -223.8 26.1 -221.7 24.2 -220.85 23.2 -220.4 18.75 -222.15 14.25 -223.9 12.9 -228.7 11.55 -233.55 12.6 -240.25 13.65 -247.0 12.75 -251.75 11.85 -256.55 6.0 -263.25 0.15 -269.9 0.1 -266.4 -4.7 -237.35 -11.25 -237.35 L-20.4 -249.65 Q-22.25 -244.6 -26.5 -240.45 -31.85 -235.25 -42.95 -230.0 L-46.05 -228.5 Q-45.5 -227.25 -45.1 -225.45 L-44.4 -219.45 Q-44.4 -210.4 -51.25 -196.0 L-51.9 -194.65 Q-55.75 -186.8 -57.1 -183.15 -59.45 -176.65 -59.45 -171.1 L-58.0 -164.5 -57.4 -161.95 Q-51.0 -152.55 -49.15 -150.35 -36.2 -135.0 -1.4 -135.0 9.35 -135.0 24.9 -139.55 39.95 -143.95 54.3 -150.95 69.25 -158.25 78.25 -165.9 88.1 -174.3 88.1 -181.0 88.1 -182.2 86.25 -186.45 L82.1 -195.95 Q76.1 -211.05 76.1 -224.15 L76.1 -227.15 Q68.15 -229.55 61.75 -237.1 58.35 -241.1 52.25 -252.8 49.75 -257.55 43.8 -265.15 M88.2 -269.85 Q62.05 -318.95 -1.35 -317.75 L-9.75 -317.75 Q-43.55 -317.75 -67.55 -294.5 -75.95 -286.4 -82.05 -276.3 -86.65 -268.8 -88.35 -263.35 -94.35 -244.4 -95.95 -234.2 L-96.65 -228.5 Q-97.5 -219.95 -97.5 -207.3 -97.5 -203.65 -100.6 -199.15 L-102.95 -196.0 -107.35 -190.65 Q-117.2 -178.75 -117.2 -168.85 -117.2 -161.4 -105.05 -151.65 -101.2 -148.6 -96.55 -145.65 L-92.5 -143.2 Q-88.55 -141.35 -86.95 -137.2 -86.4 -135.8 -85.3 -129.55 -84.45 -124.95 -82.55 -122.95 -80.35 -120.7 -75.9 -120.25 -76.45 -122.65 -76.8 -126.1 -76.8 -130.5 -73.35 -130.5 -71.95 -130.5 -55.9 -120.95 -55.1 -125.75 -51.15 -125.75 L-42.4 -122.25 Q-33.45 -118.75 -29.2 -118.75 -24.6 -118.75 -22.4 -121.8 -20.2 -124.9 -18.25 -124.9 -15.15 -124.9 -8.55 -119.6 -7.25 -120.8 -4.8 -122.35 0.75 -125.75 5.1 -125.75 6.3 -125.75 12.6 -122.35 18.9 -118.95 21.35 -118.95 24.4 -118.95 27.2 -120.95 30.05 -123.0 30.5 -123.0 36.1 -123.0 38.6 -119.1 L40.1 -119.9 Q46.25 -123.0 51.65 -123.0 55.8 -123.0 57.1 -121.1 L57.8 -119.8 Q58.15 -119.2 58.75 -119.2 67.15 -119.2 72.4 -126.25 L76.05 -131.15 Q78.05 -133.35 80.35 -133.35 84.6 -133.35 86.35 -127.05 L86.55 -125.8 87.7 -126.5 Q95.2 -130.65 95.2 -132.5 95.2 -134.0 93.8 -136.0 92.35 -138.0 92.35 -139.25 92.35 -143.2 95.6 -146.9 96.9 -148.4 102.75 -153.4 107.65 -157.65 109.9 -161.05 113.15 -166.0 113.15 -172.05 113.15 -176.5 110.25 -181.65 109.05 -183.75 104.05 -190.65 99.95 -196.3 98.4 -200.1 96.15 -205.65 97.1 -211.1 98.5 -218.8 97.5 -230.55 L95.2 -250.05 Q94.2 -258.65 88.2 -269.85 M104.25 -224.6 Q104.1 -201.1 106.6 -197.1 107.8 -195.2 112.15 -189.95 120.15 -180.2 120.15 -172.5 120.15 -162.05 110.2 -151.5 L103.3 -144.8 Q100.2 -141.7 100.2 -140.35 100.2 -139.15 101.2 -136.45 102.2 -133.8 102.2 -132.6 102.2 -128.7 99.0 -124.1 94.6 -117.8 86.3 -116.95 85.4 -115.9 83.7 -115.9 80.4 -115.9 79.55 -118.35 79.05 -119.7 78.95 -122.05 77.1 -120.05 69.75 -115.55 61.2 -110.3 57.8 -110.3 55.35 -110.3 53.9 -112.85 52.45 -115.4 51.3 -115.4 L37.6 -111.25 37.05 -111.25 36.65 -111.25 Q34.65 -111.25 33.3 -112.9 31.95 -114.55 30.5 -114.55 29.1 -114.55 26.55 -112.9 23.95 -111.25 21.6 -111.25 20.6 -111.25 12.4 -114.5 L4.15 -117.8 -0.6 -115.9 Q-4.8 -114.0 -5.55 -114.0 L-6.05 -114.0 Q-7.4 -113.05 -10.3 -113.05 -12.9 -113.05 -14.8 -114.35 -16.7 -115.65 -17.1 -115.65 -17.9 -115.65 -18.6 -114.95 L-20.1 -113.45 Q-22.8 -111.25 -29.05 -111.25 -36.3 -111.25 -40.85 -113.65 -45.4 -116.1 -48.45 -116.1 -49.6 -116.1 -50.25 -115.05 -50.9 -114.0 -52.1 -114.0 L-53.7 -114.15 -55.9 -114.0 Q-60.25 -114.0 -61.45 -115.5 -62.6 -117.05 -69.1 -117.05 L-70.2 -116.7 -70.2 -116.45 Q-70.2 -114.5 -72.1 -113.25 -73.9 -112.1 -76.6 -112.1 -82.85 -112.1 -85.9 -114.9 -88.05 -116.9 -89.85 -122.0 -92.15 -128.6 -93.65 -131.15 -96.85 -136.65 -102.7 -140.35 -115.8 -148.55 -120.25 -154.7 -124.35 -160.3 -124.35 -168.95 -124.35 -175.45 -121.2 -181.4 -119.2 -185.15 -114.35 -190.85 -109.3 -196.8 -107.7 -199.55 -106.1 -202.3 -105.5 -205.05 -105.0 -207.3 -105.2 -209.55 -105.95 -219.0 -104.7 -228.5 -103.45 -238.75 -99.85 -249.1 -97.75 -255.1 -93.65 -268.4 -89.35 -280.35 -82.55 -288.85 -66.85 -308.55 -29.95 -320.45 10.15 -325.35 42.65 -317.25 75.15 -309.2 89.75 -278.65 104.4 -248.1 104.25 -224.6" fill="#000000" fill-rule="evenodd" stroke="none"/>
  </g>
</svg>
