<?xml version="1.0" encoding="UTF-8" standalone="no"?>
<svg xmlns:xlink="http://www.w3.org/1999/xlink" height="199.65px" width="231.55px" xmlns="http://www.w3.org/2000/svg">
  <g transform="matrix(1, 0, 0, 1, 118.15, 322.95)">
    <path d="M58.8 -309.1 Q61.85 -307.45 67.6 -302.85 74.4 -297.45 79.65 -292.0 88.55 -282.75 95.6 -269.6 L89.65 -269.45 Q98.55 -262.25 102.1 -250.45 106.75 -235.0 100.7 -215.1 97.6 -216.4 97.2 -216.8 99.0 -210.85 99.5 -204.4 100.55 -191.7 94.95 -185.1 101.2 -177.45 105.05 -172.0 113.4 -160.25 113.4 -153.0 113.4 -147.7 106.95 -140.55 99.4 -132.3 90.45 -132.3 88.5 -132.3 91.9 -136.55 86.3 -132.3 80.85 -131.75 75.35 -131.25 72.35 -131.8 63.9 -128.75 58.35 -133.5 52.8 -131.1 47.75 -130.7 44.55 -129.95 40.25 -130.55 35.95 -131.2 30.15 -133.95 L24.5 -132.4 Q4.95 -127.25 -12.15 -127.25 L-22.2 -128.05 Q-32.2 -131.5 -38.3 -133.85 -39.55 -131.7 -42.05 -129.15 -47.15 -124.05 -50.9 -123.45 -54.7 -122.9 -59.65 -124.1 -58.05 -126.0 -57.15 -127.95 -56.25 -129.9 -56.65 -131.2 L-59.85 -131.1 -60.0 -131.1 -68.85 -131.8 Q-69.25 -130.65 -70.5 -130.25 L-75.9 -129.9 Q-86.5 -129.9 -93.5 -133.15 L-93.25 -131.8 -97.7 -132.95 Q-102.65 -134.25 -106.35 -136.1 -118.6 -142.2 -118.15 -154.55 -118.0 -159.6 -114.15 -169.0 -109.4 -180.75 -103.2 -185.55 -106.55 -190.7 -108.05 -201.85 -110.3 -219.0 -104.95 -239.8 -100.4 -257.6 -96.25 -267.4 -88.5 -285.5 -76.4 -295.75 -65.8 -307.85 -43.95 -315.3 -22.15 -322.8 -10.1 -322.85 L4.05 -322.95 Q33.75 -322.95 58.8 -309.1 M56.85 -249.9 Q64.15 -248.1 75.1 -241.4 80.45 -238.85 97.5 -226.15 97.6 -247.3 85.3 -264.8 79.15 -273.55 73.0 -278.05 75.8 -277.65 83.4 -275.65 79.05 -280.85 73.4 -286.25 67.7 -291.65 51.25 -303.4 34.8 -315.15 -3.8 -315.65 -23.95 -314.95 -38.85 -309.75 -52.75 -304.85 -64.3 -295.15 -95.2 -262.65 -100.0 -223.45 -101.75 -209.35 -99.6 -197.5 -97.8 -187.4 -94.65 -184.65 L-102.65 -173.95 Q-111.15 -161.95 -111.15 -154.35 -111.15 -148.75 -104.25 -143.75 -107.55 -152.85 -104.45 -159.05 L-100.5 -166.7 -100.5 -165.4 -100.5 -154.8 Q-100.5 -147.3 -95.0 -142.9 -90.95 -139.6 -83.6 -137.65 -87.05 -142.3 -87.05 -146.15 L-87.0 -150.0 Q-82.4 -145.1 -81.0 -144.05 -74.35 -138.95 -61.8 -138.25 L-72.0 -142.05 Q-70.3 -145.7 -63.5 -144.65 -56.75 -143.6 -53.75 -140.5 -50.75 -137.45 -49.65 -134.9 -48.8 -132.9 -48.9 -132.4 -44.45 -135.45 -44.55 -142.65 -44.65 -147.85 -55.0 -150.9 -56.65 -149.45 -61.15 -148.85 -62.35 -148.95 -63.9 -149.85 -65.4 -150.75 -65.5 -151.35 -65.8 -152.5 -59.8 -155.55 -53.8 -158.65 -50.55 -162.95 -56.7 -166.25 -60.1 -175.0 -62.15 -180.3 -62.65 -185.4 -68.7 -188.75 -72.8 -199.4 -76.95 -210.1 -76.0 -220.15 -75.05 -230.2 -70.55 -236.45 -66.05 -242.7 -65.25 -242.75 L-65.25 -242.1 -65.3 -241.6 Q-75.35 -222.15 -63.45 -199.65 L-63.15 -199.35 Q-62.55 -213.45 -43.5 -252.3 L-43.45 -252.3 Q-42.55 -238.05 -49.7 -221.25 -40.6 -232.0 -38.1 -236.1 -34.6 -241.85 -30.85 -252.9 -28.25 -260.75 -27.05 -267.75 -25.35 -255.2 -13.7 -242.3 -20.15 -252.85 -11.3 -267.85 L-5.05 -262.6 Q5.05 -254.2 15.9 -251.7 11.2 -263.35 11.9 -270.35 L22.95 -260.8 Q29.5 -255.25 46.0 -248.1 37.25 -260.55 40.15 -270.0 L43.5 -262.3 Q44.6 -259.6 47.1 -255.65 49.55 -251.7 56.85 -249.9 M21.1 -255.85 Q24.1 -247.75 28.45 -244.2 13.85 -243.1 2.05 -249.7 -2.8 -252.4 -8.15 -258.65 -8.15 -257.9 -9.2 -254.7 -10.3 -251.55 -9.05 -244.2 -7.85 -236.85 -3.3 -234.05 -7.1 -231.9 -11.15 -233.0 -15.2 -234.15 -20.7 -240.3 -26.25 -246.55 -25.85 -249.05 -27.7 -239.7 -34.8 -229.1 -41.75 -218.75 -55.65 -204.85 -57.0 -200.3 -57.0 -198.0 -57.0 -193.65 -54.6 -186.45 -55.05 -185.4 -55.5 -184.9 L-56.6 -184.25 Q-54.85 -172.5 -42.25 -165.15 -43.65 -160.6 -48.5 -156.45 -41.75 -154.5 -38.8 -148.8 -36.8 -144.9 -36.85 -140.2 -21.65 -135.0 -1.4 -135.0 9.35 -135.0 24.9 -139.55 39.95 -143.95 54.3 -150.95 69.25 -158.25 78.25 -165.9 88.1 -174.3 88.1 -181.0 88.1 -182.2 86.25 -186.45 L82.1 -195.95 Q76.1 -211.05 76.1 -224.15 L76.1 -232.3 Q74.2 -233.85 72.1 -235.25 L53.15 -246.1 57.6 -241.05 51.85 -240.6 Q45.4 -240.6 32.7 -247.65 23.3 -252.85 21.1 -255.85 M84.25 -218.2 Q84.15 -212.5 84.6 -210.0 84.95 -208.15 90.4 -195.3 L91.45 -192.8 92.1 -195.0 Q92.8 -197.85 92.95 -201.25 93.5 -212.0 88.95 -224.7 87.85 -227.85 85.15 -227.8 84.45 -226.2 84.25 -218.2 M86.45 -158.7 Q88.85 -155.75 89.1 -152.05 89.35 -147.9 87.05 -144.25 84.75 -140.65 78.6 -136.65 81.7 -137.75 87.3 -141.05 92.85 -144.35 93.85 -147.0 94.8 -149.65 93.8 -155.75 93.35 -161.7 96.45 -162.9 97.95 -160.95 99.25 -156.2 100.5 -151.7 100.5 -148.65 100.5 -146.0 98.85 -141.75 106.7 -146.75 107.15 -151.9 107.55 -157.05 98.8 -168.75 L94.35 -175.0 Q92.0 -169.25 85.35 -162.9 82.0 -159.7 72.0 -152.6 66.25 -148.95 59.35 -145.5 53.1 -142.35 46.55 -139.7 L46.5 -139.7 42.85 -138.25 Q45.15 -137.55 46.2 -137.55 54.95 -137.55 60.8 -141.0 66.6 -144.45 70.2 -148.1 71.1 -147.55 71.1 -145.65 71.1 -141.75 64.3 -136.9 73.45 -137.1 77.5 -141.25 81.5 -145.4 83.55 -149.7 85.5 -154.0 86.45 -158.7" fill="#000000" fill-rule="evenodd" stroke="none"/>
  </g>
</svg>
