<?xml version="1.0" encoding="UTF-8" standalone="no"?>
<svg xmlns:xlink="http://www.w3.org/1999/xlink" height="194.6px" width="230.7px" xmlns="http://www.w3.org/2000/svg">
  <g transform="matrix(1, 0, 0, 1, 116.5, 321.85)">
    <path d="M72.6 -297.55 Q72.45 -298.05 68.35 -301.5 109.55 -270.35 104.6 -234.05 99.6 -197.75 108.05 -187.8 116.5 -177.85 113.35 -162.25 110.1 -146.7 99.3 -148.35 96.55 -145.7 92.1 -143.4 80.35 -137.3 64.9 -136.9 L61.05 -135.25 Q48.35 -129.95 37.95 -136.4 L37.85 -136.45 32.0 -134.55 Q28.3 -133.4 24.5 -132.4 10.4 -128.7 -2.4 -127.65 L-12.15 -127.25 Q-20.7 -127.25 -28.9 -129.55 L-33.4 -131.05 -36.65 -132.35 Q-42.95 -130.3 -51.9 -129.75 -60.8 -129.25 -75.2 -133.1 -86.6 -129.65 -96.75 -140.85 -99.55 -143.95 -104.25 -144.75 -113.0 -146.0 -115.4 -151.55 -117.6 -156.65 -115.35 -167.55 -113.0 -178.9 -106.45 -193.9 -104.2 -199.15 -103.55 -202.25 -102.65 -206.5 -103.55 -211.2 -106.2 -224.8 -102.45 -244.5 -98.35 -266.05 -88.8 -280.1 -75.7 -299.5 -52.35 -311.2 -43.95 -315.45 -28.85 -320.05 4.65 -324.65 31.35 -317.5 58.0 -310.4 66.05 -303.3 L72.6 -297.55 M79.0 -277.45 Q77.9 -279.65 69.95 -290.35 61.95 -301.05 26.6 -310.85 -8.75 -320.7 -43.05 -305.45 -75.75 -290.9 -93.8 -251.5 -96.8 -244.95 -97.05 -232.1 -97.3 -220.7 -95.55 -214.1 -94.0 -208.25 -100.05 -192.35 L-105.0 -180.1 Q-107.65 -173.4 -108.35 -170.2 -111.95 -154.55 -105.7 -152.7 -106.9 -155.5 -105.65 -161.9 -105.45 -163.25 -104.6 -163.75 -105.0 -161.8 -97.15 -151.3 -89.35 -140.8 -79.65 -138.35 -84.9 -143.25 -83.6 -146.0 -79.15 -143.1 -69.05 -139.65 -58.95 -136.2 -54.35 -136.5 -49.8 -136.8 -46.7 -137.7 L-46.75 -137.75 -47.1 -137.95 -53.6 -143.0 -54.85 -144.1 Q-57.9 -140.0 -62.9 -140.0 -59.5 -145.8 -58.45 -154.5 -57.45 -163.25 -58.85 -173.4 L-52.75 -167.35 Q-56.05 -183.9 -58.05 -189.95 L-63.05 -204.0 -64.8 -203.45 -67.6 -203.55 Q-81.95 -217.35 -76.9 -229.2 -75.25 -222.8 -71.5 -216.95 L-70.25 -215.6 Q-69.5 -220.3 -69.1 -225.05 -68.55 -231.1 -65.2 -235.7 -65.05 -233.95 -65.05 -227.05 -65.1 -220.15 -63.8 -215.55 -44.45 -227.35 -36.95 -246.75 -31.75 -260.2 -28.7 -273.4 -27.8 -273.15 -24.35 -266.65 -20.9 -260.2 -20.6 -256.8 -18.2 -261.05 -11.0 -278.55 -10.45 -276.45 -6.8 -267.55 -2.05 -256.05 14.35 -246.85 L13.55 -257.65 Q18.0 -250.85 28.7 -242.8 39.4 -234.75 53.05 -236.4 L50.05 -239.35 Q41.15 -248.85 37.6 -260.55 L37.55 -260.95 Q40.3 -258.05 50.4 -249.25 60.45 -240.5 66.75 -236.45 L63.35 -249.9 Q75.55 -239.65 80.35 -236.3 87.5 -231.35 87.35 -230.9 86.15 -228.85 84.4 -228.6 L84.4 -228.0 84.25 -218.2 Q84.15 -212.5 84.6 -210.0 84.95 -208.15 90.4 -195.3 L94.3 -185.55 Q95.6 -182.05 95.6 -181.15 95.6 -172.7 85.35 -162.9 82.0 -159.7 72.0 -152.6 L71.2 -152.1 67.55 -149.9 67.45 -149.85 Q63.65 -147.65 59.35 -145.5 L55.25 -143.5 46.2 -139.2 Q61.1 -140.55 68.25 -145.3 L71.1 -147.35 Q73.05 -145.15 71.2 -143.25 92.75 -149.45 99.0 -159.0 L101.9 -163.8 Q103.35 -160.8 103.2 -155.05 110.9 -172.15 101.05 -187.4 91.2 -202.7 96.35 -228.65 101.55 -254.6 76.8 -288.85 80.4 -279.25 79.0 -277.45 M76.1 -231.85 L73.2 -232.8 73.5 -232.35 Q74.0 -228.65 59.6 -231.95 L59.4 -231.75 58.5 -230.9 Q41.65 -226.6 27.35 -234.75 -0.2 -239.1 -10.6 -258.1 L-11.45 -259.75 Q-14.85 -250.25 -19.8 -246.7 -24.75 -243.1 -27.25 -241.8 -26.6 -255.8 -26.75 -256.2 -31.3 -239.15 -41.1 -227.1 -50.9 -215.05 -58.0 -212.35 -56.0 -203.3 -52.55 -192.9 -49.15 -182.5 -46.7 -173.3 -44.3 -164.15 -46.95 -154.1 -49.95 -155.3 -51.15 -156.1 L-51.4 -153.3 -49.15 -150.35 -47.1 -148.15 -45.05 -146.3 -44.85 -146.15 -44.75 -146.05 -41.95 -144.05 -41.55 -143.8 Q-36.6 -140.65 -30.05 -138.6 L-28.9 -138.25 -28.6 -138.2 -25.05 -137.3 Q-15.25 -135.1 -2.4 -135.0 L-1.4 -135.0 Q9.35 -135.0 24.9 -139.55 L32.0 -141.75 Q43.35 -145.6 54.3 -150.95 L55.25 -151.4 Q69.55 -158.5 78.25 -165.9 88.1 -174.3 88.1 -181.0 88.1 -182.2 86.25 -186.45 L82.1 -195.95 Q76.1 -211.05 76.1 -224.15 L76.1 -231.85" fill="#000000" fill-rule="evenodd" stroke="none"/>
  </g>
</svg>
