<?xml version="1.0" encoding="UTF-8" standalone="no"?>
<svg xmlns:xlink="http://www.w3.org/1999/xlink" height="505.75px" width="388.3px" xmlns="http://www.w3.org/2000/svg">
  <g transform="matrix(1, 0, 0, 1, 195.95, 386.55)">
    <use height="0.0" transform="matrix(1.0, 0.0, 0.0, 1.0, -57.75, -252.55)" width="0.0" xlink:href="#sprite0"/>
    <use height="310.65" transform="matrix(1.0, 0.0, 0.0, 1.0, -108.5, -323.35)" width="215.4" xlink:href="#shape0"/>
  </g>
  <defs>
    <g id="shape0" transform="matrix(1, 0, 0, 1, 108.5, 323.35)">
      <path d="M49.25 -272.65 Q54.25 -263.6 58.0 -253.85 L58.8 -252.05 Q59.8 -253.95 60.9 -263.7 L61.65 -271.25 62.65 -269.45 Q70.8 -254.6 80.3 -241.65 L81.8 -247.55 83.5 -244.25 Q88.3 -233.95 97.0 -219.75 L98.9 -216.7 Q99.8 -226.6 98.45 -235.4 L97.0 -241.7 Q95.2 -247.9 91.7 -254.9 86.35 -265.65 86.3 -265.95 L95.45 -262.4 Q92.35 -267.2 88.6 -271.95 67.0 -299.25 34.05 -309.9 -3.25 -321.9 -44.2 -308.05 -54.05 -304.75 -70.65 -289.2 L-70.65 -296.3 Q-76.9 -290.55 -91.45 -252.45 -106.0 -214.35 -99.45 -188.35 -92.9 -162.4 -89.0 -150.2 -85.15 -138.05 -82.9 -132.9 -80.65 -127.8 -70.8 -112.75 L-72.4 -110.8 Q-81.75 -99.0 -85.0 -77.9 -88.25 -56.85 -86.75 -52.05 L-77.2 -64.7 Q-74.95 -60.7 -75.9 -44.9 -76.9 -29.15 -79.65 -22.0 -53.4 -29.25 -40.15 -51.45 -26.95 -73.7 -37.95 -106.8 -11.35 -111.15 9.7 -121.3 30.7 -131.5 42.75 -139.5 17.0 -130.55 14.05 -129.95 L-0.05 -127.85 -2.4 -127.65 -12.15 -127.25 Q-20.7 -127.25 -28.9 -129.55 L-33.4 -131.05 Q-39.35 -133.25 -45.05 -136.7 L-46.75 -137.75 -47.1 -137.95 -47.95 -138.55 Q-45.3 -129.2 -46.6 -112.0 -47.95 -94.8 -65.85 -83.85 -53.25 -117.15 -72.1 -152.55 -79.55 -166.6 -80.0 -183.85 -80.5 -203.35 -71.75 -217.05 -78.55 -182.0 -67.45 -156.75 -56.4 -131.45 -55.3 -120.6 -54.4 -111.45 -55.45 -105.75 -48.95 -121.95 -53.4 -137.2 -57.85 -152.45 -61.45 -170.85 -65.1 -189.3 -59.6 -224.35 -66.7 -225.1 -65.7 -226.7 L-63.4 -228.15 Q-46.9 -238.7 -40.0 -244.15 -54.1 -237.0 -71.2 -241.5 -30.8 -251.8 -16.55 -259.7 -20.75 -248.55 -34.25 -238.9 -41.55 -233.7 -45.95 -231.7 -1.4 -240.9 8.4 -255.85 14.55 -265.3 15.6 -268.2 26.45 -257.25 25.9 -245.15 25.35 -233.75 23.8 -232.2 38.15 -241.1 40.25 -259.9 41.95 -275.8 40.9 -285.05 45.5 -279.4 49.25 -272.65 M11.75 -219.7 Q16.6 -227.15 16.75 -239.4 16.9 -248.8 15.5 -254.55 10.5 -240.85 -13.0 -232.7 -34.3 -225.3 -52.5 -224.4 -58.45 -189.3 -50.25 -152.25 L-50.1 -151.55 -49.15 -150.35 -47.1 -148.15 -45.05 -146.3 Q-43.4 -145.0 -41.55 -143.8 -36.6 -140.65 -30.05 -138.6 L-28.9 -138.25 -25.05 -137.3 Q-15.25 -135.1 -2.4 -135.0 L-1.4 -135.0 -0.05 -135.0 Q6.25 -135.2 14.05 -136.8 19.15 -137.85 24.9 -139.55 L32.0 -141.75 Q42.0 -145.15 51.7 -149.7 L54.3 -150.95 55.25 -151.4 Q69.55 -158.5 78.25 -165.9 83.1 -170.05 85.55 -173.75 88.1 -177.6 88.1 -181.0 88.1 -182.2 86.25 -186.45 L82.1 -195.95 Q79.8 -201.7 78.4 -207.2 76.1 -216.05 76.1 -224.15 L76.1 -231.8 Q74.0 -234.35 66.1 -247.25 L65.3 -248.6 Q64.35 -244.3 61.1 -234.3 58.45 -237.15 55.05 -243.85 48.2 -257.2 47.6 -261.2 48.1 -247.3 38.65 -234.45 29.15 -221.6 11.75 -219.7 M106.0 -247.8 L101.1 -250.95 Q102.95 -247.6 104.2 -244.0 107.95 -233.1 106.45 -219.75 104.45 -202.05 100.85 -199.25 L97.0 -205.85 93.7 -210.6 Q95.45 -184.15 99.7 -156.95 103.95 -129.8 93.9 -113.6 84.85 -99.1 75.6 -95.7 81.8 -108.85 80.9 -122.95 79.6 -142.1 77.85 -154.35 L77.55 -156.6 72.0 -152.6 Q66.65 -149.25 60.35 -146.0 57.8 -142.85 49.6 -136.45 41.4 -130.1 17.15 -117.95 -7.15 -105.85 -17.2 -104.15 L-28.75 -102.55 Q-24.85 -95.55 -26.25 -68.9 -27.65 -42.3 -52.05 -28.3 -76.45 -14.35 -95.15 -12.7 -88.85 -17.65 -86.0 -29.15 -83.5 -39.2 -83.85 -43.85 L-90.2 -37.35 Q-95.75 -49.3 -94.75 -70.75 -93.8 -92.2 -80.75 -111.65 -87.05 -122.1 -90.35 -131.1 -93.65 -140.1 -94.15 -142.35 -94.7 -144.6 -104.0 -172.6 -113.35 -200.65 -103.3 -241.0 -98.0 -262.15 -89.9 -279.1 -87.35 -284.45 -83.8 -290.8 -78.05 -301.15 -70.65 -308.6 L-67.35 -311.8 Q-66.5 -306.45 -66.65 -302.1 -59.75 -311.25 -35.7 -318.0 -23.7 -321.35 -12.95 -322.95 27.8 -326.0 61.65 -306.3 97.2 -285.6 106.0 -247.8 M88.4 -218.55 Q86.25 -222.4 84.4 -226.3 L84.25 -218.2 Q84.15 -212.5 84.6 -210.0 L85.55 -207.2 88.45 -199.95 Q88.9 -207.85 90.1 -215.75 L88.4 -218.55 M85.35 -162.9 Q84.1 -161.7 83.1 -161.7 88.05 -141.6 87.75 -117.3 97.05 -134.3 93.6 -150.65 L89.75 -167.6 Q87.95 -165.4 85.55 -163.1 L85.35 -162.9" fill="#000000" fill-rule="evenodd" stroke="none"/>
      <path d="M-71.8 -112.6 Q-73.5 -108.75 -74.2 -105.25 L-84.85 -104.8 -74.2 -105.25 Q-73.5 -108.75 -71.8 -112.6 -51.45 -111.6 -38.35 -103.6 -27.65 -104.4 -11.1 -96.35 -16.0 -81.7 -21.45 -76.4 L-21.7 -76.1 Q-25.55 -72.55 -29.5 -70.1 -35.3 -75.75 -38.55 -81.75 -40.7 -85.65 -41.8 -89.7 L-42.05 -89.9 -42.9 -89.0 Q-59.25 -87.55 -74.65 -97.9 -78.25 -94.4 -84.4 -91.3 -89.35 -88.8 -95.9 -86.5 -99.25 -92.0 -100.2 -94.2 L-100.55 -95.05 Q-102.7 -101.8 -98.95 -119.85 -80.65 -118.6 -71.8 -112.6 M-74.2 -105.25 Q-75.05 -101.4 -74.65 -97.9 -75.05 -101.4 -74.2 -105.25 M-28.8 -90.25 L-39.35 -95.9 Q-38.55 -99.2 -38.35 -103.6 -38.55 -99.2 -39.35 -95.9 L-28.8 -90.25 M-42.05 -89.9 Q-40.3 -92.1 -39.35 -95.9 -40.3 -92.1 -42.05 -89.9" fill="#f7f700" fill-rule="evenodd" stroke="none"/>
      <path d="M-41.8 -89.7 L-41.85 -89.65 -42.9 -89.0 -42.05 -89.9 -41.8 -89.7" fill="#ff7777" fill-rule="evenodd" stroke="none"/>
      <path d="M-84.85 -104.8 L-74.2 -105.25 Q-73.5 -108.75 -71.8 -112.6 -80.65 -118.6 -98.95 -119.85 -102.7 -101.8 -100.55 -95.05 L-100.2 -94.2 Q-99.25 -92.0 -95.9 -86.5 -89.35 -88.8 -84.4 -91.3 -78.25 -94.4 -74.65 -97.9 -75.05 -101.4 -74.2 -105.25 M-71.8 -112.6 Q-51.45 -111.6 -38.35 -103.6 -27.65 -104.4 -11.1 -96.35 -16.0 -81.7 -21.45 -76.4 L-21.7 -76.1 Q-25.55 -72.55 -29.5 -70.1 -35.3 -75.75 -38.55 -81.75 -40.7 -85.65 -41.8 -89.7 L-41.85 -89.65 -42.9 -89.0 Q-59.25 -87.55 -74.65 -97.9 M-38.35 -103.6 Q-38.55 -99.2 -39.35 -95.9 L-28.8 -90.25 M-42.05 -89.9 L-42.9 -89.0 M-39.35 -95.9 Q-40.3 -92.1 -42.05 -89.9" fill="none" stroke="#000000" stroke-linecap="round" stroke-linejoin="round" stroke-width="5.0"/>
    </g>
  </defs>
</svg>
