<?xml version="1.0" encoding="utf-8"?>
<!-- Generator: flash2svg, http://dissentgraphics.com/tools/flash2svg -->
<svg xmlns:xlink="http://www.w3.org/1999/xlink" id="Sprite.__20813.__2F275" image-rendering="optimizeSpeed" baseProfile="basic" version="1.1" style="background-color:#ffffff" x="0px" y="0px" width="550px" height="400px" viewBox="0 0 550 400" enable-background="new 0 0 550 400" xmlns="http://www.w3.org/2000/svg">
  <defs/>
  <g id="Sprite.__20813.__2F275">
    <g id="Layer.__2015">
      <g id="shape83" transform="matrix(1 0 0 1 -112.749 -322.799)">
        <path id="path74" transform="matrix(1 0 0 1 112.7 322.75)" fill="#000000" fill-opacity="1" d="M33.45,-319.55 Q18.6,-322.55 2.2,-322.75 C-23.85,-323.1 -42.8,-319.8 -54.75,-312.8 -63.65,-307.6 -72.65,-298.9 -81.75,-286.65 -86.55,-280.2 -90.35,-273.35 -93.1,-266.05 -94.05,-263.55 -94.7,-261 -95.1,-258.4 -99.3,-253.55 -103.05,-246.65 -106.35,-237.7 -109.7,-228.75 -111.75,-220.25 -112.55,-212.2 -113.35,-204.15 -111.85,-198.25 -108,-194.4 -108.15,-190.95 -108.15,-187.5 -108,-184.05 -107.4,-170.9 -103.15,-161.55 -95.2,-156 L-94.45,-155.15 C-94.1,-154.85 -93.65,-154.65 -93.15,-154.55 L-92.15,-154.45 -91.7,-154.65 -90.1,-151.6 C-85.35,-143.35 -79.35,-139.5 -72.1,-140.15 L-72.1,-146.95 C-69.25,-145.65 -66.9,-144.25 -65.1,-142.8 -60.35,-138.95 -54.2,-137.2 -46.55,-137.6 L-46.75,-137.75 C-35.8,-130.75 -24.3,-127.25 -12.15,-127.25 L3.45,-128.25 9.35,-129.1 C14.3,-129.95 19.35,-131.05 24.5,-132.4 36.8,-135.65 48.4,-140 59.35,-145.5 L64.25,-148.05 64.95,-147.95 C65.2,-148.05 65.3,-147.95 65.2,-147.6 L65.3,-147.85 66.85,-141.3 C68.45,-141.45 70.9,-142.2 74.2,-143.65 80.75,-146.55 85.95,-149.65 89.7,-152.95 L92.1,-152.9 C92.8,-153.05 93.45,-153.35 94.05,-153.8 L94.6,-154.45 C102.05,-163.1 106.3,-171.9 107.35,-180.85 108.4,-189.7 107.5,-198.35 104.7,-206.9 102.25,-214.35 99.65,-220.45 96.85,-225.2 100.4,-229.45 102.15,-235.6 102,-243.65 101.85,-252 100.35,-260.05 97.45,-267.7 96.55,-270 93.8,-274.9 89.25,-282.45 84.5,-290.25 81.25,-295.1 79.4,-297.05 75.45,-301.2 70.4,-304.85 64.25,-308 52.8,-313.9 42.5,-317.75 33.45,-319.55z M65.1,-300 C69.55,-296.85 73.75,-293.05 77.65,-288.5 81.55,-283.95 83.85,-280.9 84.5,-279.3 85.15,-277.75 87.5,-273.8 91.45,-267.5 95.4,-261.2 96.95,-254.4 96.05,-247.1 L93.8,-227.9 92.15,-229.95 C90.6,-224.3 92.1,-217.2 96.65,-208.75 101.2,-200.3 103.15,-191.7 102.45,-183.05 101.75,-174.35 99.1,-167.4 94.55,-162.25 L94.4,-165.1 94.2,-168.3 C92.85,-166.05 90.5,-163.2 87.2,-159.65 81.9,-154.05 76.55,-150.15 71.1,-147.95 L70.95,-151.95 72,-152.6 C78.65,-157.35 83.1,-160.75 85.35,-162.9 92.2,-169.45 95.6,-175.5 95.6,-181.15 95.6,-181.75 95.15,-183.2 94.3,-185.55 L90.4,-195.3 85.3,-207.8 84.6,-210 C84.3,-211.65 84.2,-214.4 84.25,-218.2 L84.4,-228 C84.65,-231.05 84.95,-233.05 85.4,-233.95 L85.8,-234.1 85.55,-234.3 C86.8,-237.35 86.55,-240.8 84.85,-244.75 82.9,-249.45 80.25,-253.65 76.9,-257.35 73.45,-261.15 69.4,-263.8 64.7,-265.25 63.4,-265.1 63.3,-265.05 64.35,-265 65.4,-265 67.85,-262.5 71.7,-257.45 75.55,-252.45 78.2,-247.6 79.65,-242.85 81.1,-238.1 81.1,-236.55 79.6,-238.1 77.55,-239.2 74.65,-240.35 71,-241.55 67.35,-242.8 62.8,-245.45 57.45,-249.6 52.1,-253.75 49.6,-256.65 50,-258.35 49.65,-258.3 49.4,-258.15 49.25,-257.95 47.55,-255.6 47.8,-253.05 49.95,-250.2 50.15,-249.4 50.5,-248.55 51.05,-247.6 52.55,-244.95 53.5,-242.1 53.95,-239.05 L54.35,-235.9 46.1,-238.75 C40.75,-240.55 36.5,-243.95 33.35,-248.9 30.15,-253.9 27.9,-257.85 26.65,-260.8 25.65,-263.05 25.2,-264.25 25.25,-264.35 L24.5,-265.25 C21.9,-263.05 20.85,-259.6 21.4,-254.85 21.95,-250 22.85,-245.3 24.15,-240.75 24.7,-238.9 25.3,-237.25 26.05,-235.7 L16.5,-241.35 C12.1,-243.9 8.7,-248.4 6.25,-254.85 3.8,-261.3 2.5,-267.2 2.4,-272.55 L2.2,-272.35 C0.95,-268.85 -0.15,-265.2 -1.15,-261.45 -2.3,-257.1 -4.1,-253.05 -6.5,-249.2 L-9.05,-245.2 -10.45,-253.8 C-11.2,-258.45 -10.25,-265.7 -7.55,-275.55 L-6.3,-279.95 -6.85,-281.9 -13.95,-271.35 -16.6,-266.4 C-19.6,-260.15 -23.05,-254.15 -27,-248.5 -29.15,-245.45 -30.95,-242.45 -32.4,-239.6 -32.8,-241.8 -33.05,-245.7 -33.15,-251.3 -33.3,-256.9 -31.95,-264.7 -29.2,-274.65 -26.45,-284.65 -26.05,-286.2 -27.95,-279.3 L-35.3,-268.2 C-39.2,-262.05 -42.55,-254.85 -45.35,-246.5 -48.4,-237.45 -50.15,-226.75 -50.6,-214.3 -50.85,-207.55 -50.05,-202.65 -48.3,-199.6 -49.95,-200.9 -51.5,-202.4 -52.95,-204.15 L-54.75,-206.6 C-59.6,-213.65 -61,-225.5 -58.85,-242.25 L-59.55,-241.9 -60.3,-241.2 C-61.65,-237.35 -62.75,-233.5 -63.65,-229.55 -65.3,-222.3 -64.8,-215.3 -62.25,-208.6 L-61.1,-205.9 -61.1,-202.9 C-60.75,-199 -59.8,-195.35 -58.2,-191.9 -57.25,-189.85 -56.15,-187.8 -54.95,-185.85 -57.1,-187.5 -60.4,-190.35 -64.75,-194.5 -69.2,-198.65 -71.8,-204.9 -72.65,-213.35 -73.2,-218.7 -73.25,-222.25 -72.8,-223.95 -75.5,-221.25 -76.9,-217.55 -77,-212.8 -77.15,-206.35 -75.7,-200.35 -72.75,-194.8 -70.65,-190.85 -68.25,-187.7 -65.55,-185.4 -64.05,-174.8 -62.1,-166.35 -59.65,-160.05 -57.25,-153.75 -53.9,-148.75 -49.65,-145.1 -51.4,-146.5 -52.2,-146.5 -52.05,-145.1 -52,-144.3 -51.95,-143.5 -52,-142.7 -56.65,-143.6 -62.55,-147 -69.65,-152.85 -72.55,-155.25 -74.75,-157.1 -76.2,-158.4 L-76,-157.15 -76.05,-151.25 C-76.1,-150 -75.85,-148.25 -75.35,-146.05 L-81.1,-150.9 C-84.75,-154.2 -88.05,-159.85 -91,-167.8 -92.3,-171.25 -93.05,-173.65 -93.3,-175 L-93.5,-174.9 -95.05,-163.45 C-98.15,-168.15 -100.45,-175.4 -101.9,-185.2 -103.4,-195.15 -102.3,-206 -98.65,-217.75 -95,-229.55 -93.3,-236.3 -93.6,-238 -97.7,-232.35 -100.75,-226.75 -102.8,-221.1 -104.85,-215.45 -106.15,-210.95 -106.75,-207.6 -107.2,-212.15 -106.5,-218.3 -104.75,-226.05 -103,-233.8 -100.7,-239.7 -97.85,-243.75 L-89.95,-254.95 C-89.3,-257 -89.05,-258.75 -89.2,-260.3 -87.7,-266.75 -85.05,-272.8 -81.2,-278.5 -74.35,-288.65 -68.25,-295.65 -62.9,-299.4 -44,-312.75 -18.75,-317.85 12.8,-314.6 23.85,-313.45 34.25,-311.55 43.9,-308.8 53.55,-306.05 60.6,-303.15 65.1,-300zM32.65,-241.15 C38.3,-234.1 46.3,-230.8 56.75,-231.3 L59.55,-231.55 58.8,-241.7 C60.05,-240.7 61.3,-239.75 62.65,-238.85 67.3,-235.7 71.8,-233.8 76.2,-233.2 L76.1,-232.75 76.1,-224.15 C76.1,-218.95 76.8,-213.5 78.25,-207.8 79.2,-203.95 80.5,-200 82.1,-195.95 L86.25,-186.45 C87.5,-183.6 88.1,-181.8 88.1,-181 88.1,-176.55 84.8,-171.5 78.25,-165.9 72.25,-160.8 64.25,-155.8 54.3,-150.95 44.75,-146.3 34.95,-142.5 24.9,-139.55 19.25,-137.9 14.05,-136.65 9.35,-135.9 L3.45,-135.2 -1.4,-135 C-20.65,-135 -34.85,-138.5 -44.05,-145.55 L-41.7,-145.6 C-45.25,-149.15 -48.75,-153.7 -52.1,-159.2 -55.45,-164.75 -57.35,-169.45 -57.8,-173.35 -58.25,-177.3 -58.75,-180.05 -59.25,-181.7 -56.9,-180.9 -54.35,-180.6 -51.65,-180.75 -51.55,-180.6 -50.2,-180.6 -47.55,-180.75 -50.2,-186.1 -52.4,-191.45 -54.15,-196.85 -50.45,-194.15 -45.95,-193.35 -40.65,-194.4 -43.75,-203.3 -45.25,-211.05 -45.15,-217.7 -45,-226.7 -42.95,-235.35 -39.1,-243.6 L-38.25,-245.5 C-38.1,-240.7 -37.25,-236.1 -35.7,-231.75 L-35.8,-231.4 -35.6,-231.45 -34.8,-229.45 -34.4,-229.3 C-28.1,-235.45 -24.05,-240.35 -22.2,-244.1 -20.2,-248.1 -18.05,-251.95 -15.7,-255.7 L-13.55,-241.95 C-12.9,-238.1 -12.5,-235.05 -12.35,-232.9 L-11.75,-232.9 C-7.05,-236.7 -3.75,-240.65 -1.9,-244.75 L1.1,-251.35 C2.1,-248.2 3.75,-245.25 6.05,-242.55 12.6,-234.8 21.95,-230.8 34,-230.65 32.25,-234.8 30.5,-240.2 28.75,-246.8 29.9,-244.85 31.2,-243 32.65,-241.15z"/>
      </g>
    </g>
  </g>
</svg>