<?xml version="1.0" encoding="UTF-8" standalone="no"?>
<svg xmlns:xlink="http://www.w3.org/1999/xlink" height="214.0px" width="224.5px" xmlns="http://www.w3.org/2000/svg">
  <g transform="matrix(1, 0, 0, 1, 102.45, 326.2)">
    <path d="M3.45 -318.9 L-0.65 -318.55 Q-3.85 -318.75 -8.9 -318.4 -14.0 -318.05 -20.45 -318.65 -26.45 -319.0 -31.15 -317.85 -33.65 -317.25 -35.75 -316.2 L-37.85 -315.0 Q-44.05 -311.0 -46.55 -307.35 -56.8 -297.75 -61.35 -290.8 -65.95 -283.85 -71.15 -276.8 -76.35 -269.8 -78.95 -263.35 -90.3 -235.65 -91.3 -231.15 -92.25 -227.0 -92.4 -221.1 -92.35 -212.2 -91.75 -197.95 L-90.95 -175.35 -90.6 -158.05 Q-90.45 -150.6 -90.7 -149.0 L-90.7 -148.95 -90.8 -148.65 -90.2 -149.0 Q-87.1 -150.7 -82.25 -151.25 -81.2 -151.25 -75.85 -138.8 -70.1 -125.4 -66.0 -122.75 -65.8 -123.15 -65.35 -127.9 -64.75 -130.55 -63.35 -131.65 L-63.25 -132.4 Q-62.55 -133.35 -60.2 -133.35 -57.7 -133.35 -55.2 -129.85 -52.55 -126.0 -50.8 -125.6 L-50.5 -135.1 Q-50.2 -137.9 -49.6 -139.8 -51.6 -141.35 -59.05 -149.3 -57.7 -147.75 -56.55 -142.2 -55.4 -136.55 -60.95 -135.15 -66.55 -133.8 -68.4 -159.3 -69.3 -172.1 -68.4 -185.1 L-68.4 -210.55 Q-67.4 -235.0 -62.45 -235.0 -59.75 -235.0 -56.35 -224.1 -53.0 -211.65 -51.65 -208.6 -51.45 -223.3 -45.7 -241.2 -39.2 -261.35 -31.9 -261.35 -28.65 -261.35 -18.75 -234.25 -17.05 -239.75 -12.95 -249.0 L-10.05 -255.25 -5.9 -249.0 -1.9 -243.3 Q10.15 -226.4 11.0 -222.5 23.2 -236.45 29.05 -248.15 30.0 -250.1 29.85 -254.45 L29.35 -262.25 Q29.0 -271.7 34.3 -271.7 39.8 -271.7 41.35 -252.7 42.0 -244.8 42.0 -221.35 51.75 -233.3 54.35 -255.0 L55.45 -268.25 Q55.85 -273.6 56.85 -273.6 59.0 -273.6 80.05 -234.85 L81.6 -234.85 Q84.35 -231.45 84.4 -228.0 L84.25 -218.2 Q84.15 -212.5 84.6 -210.0 84.95 -208.15 90.4 -195.3 L94.3 -185.55 Q95.6 -182.05 95.6 -181.15 95.6 -172.7 85.35 -162.9 82.0 -159.7 72.0 -152.6 66.25 -148.95 59.35 -145.5 L59.0 -145.3 59.05 -145.25 60.8 -142.85 64.35 -136.65 67.75 -143.45 Q71.65 -150.3 74.3 -150.3 76.6 -150.3 82.85 -138.45 96.4 -164.35 99.25 -164.35 100.7 -164.35 112.65 -157.55 100.4 -173.95 97.7 -199.9 97.1 -205.35 96.25 -221.75 95.55 -235.3 94.25 -243.2 92.9 -251.75 85.6 -264.75 L73.35 -286.3 Q62.95 -307.1 26.1 -315.1 L3.45 -318.9 M69.65 -304.1 Q80.0 -294.05 88.15 -277.65 94.7 -264.5 102.2 -242.0 104.6 -234.8 103.45 -220.65 102.15 -204.55 103.15 -198.3 104.5 -190.25 113.45 -172.3 122.05 -155.15 122.05 -154.45 122.05 -151.8 121.6 -151.05 120.35 -148.9 115.65 -148.9 109.85 -148.9 100.1 -156.15 L92.8 -139.95 Q87.35 -128.25 83.2 -128.25 80.3 -128.25 79.5 -129.9 78.15 -130.95 76.8 -133.1 75.45 -135.25 73.6 -139.25 72.85 -136.35 70.1 -131.65 66.45 -125.4 63.4 -125.4 62.85 -125.4 57.3 -134.35 L52.5 -142.2 Q39.15 -136.25 24.5 -132.4 4.95 -127.25 -12.15 -127.25 -28.0 -127.25 -42.5 -135.2 -42.55 -130.45 -43.5 -124.95 -45.0 -115.9 -47.95 -115.9 -52.6 -115.9 -57.95 -121.6 L-58.5 -118.5 Q-59.9 -112.2 -62.45 -112.2 -74.55 -112.2 -80.25 -124.7 -83.3 -131.4 -85.6 -142.7 -86.65 -141.9 -90.55 -140.3 -95.0 -138.55 -96.9 -138.55 -101.35 -138.55 -102.2 -140.55 -102.65 -141.6 -102.2 -142.85 -102.2 -144.15 -99.9 -150.4 -97.6 -156.7 -97.85 -163.0 L-98.8 -183.45 Q-99.5 -197.6 -99.5 -204.6 L-99.65 -221.55 Q-99.6 -227.5 -98.75 -231.4 -97.9 -235.35 -94.9 -243.2 L-86.05 -266.0 Q-84.05 -271.2 -79.0 -280.15 -73.95 -289.15 -70.7 -292.8 -67.5 -296.5 -62.8 -303.75 L-55.4 -312.35 Q-43.45 -325.35 -16.5 -325.35 L-7.05 -325.2 Q-5.25 -326.2 0.95 -326.2 25.1 -326.2 42.1 -320.55 58.2 -315.15 69.65 -304.1 M34.75 -242.95 Q6.85 -201.6 6.5 -201.6 L4.6 -201.85 3.2 -202.7 Q2.95 -206.95 3.9 -216.2 3.9 -221.15 1.55 -225.5 0.2 -228.1 -3.55 -232.7 -7.25 -237.2 -8.65 -239.9 L-8.9 -240.35 Q-9.85 -238.45 -12.6 -227.65 -14.65 -219.45 -16.85 -219.45 -21.05 -219.45 -25.9 -231.0 L-29.5 -240.3 Q-31.5 -245.5 -32.65 -247.45 -44.45 -225.2 -46.25 -201.1 L-46.7 -187.6 Q-46.8 -182.75 -47.95 -182.75 L-49.9 -183.05 -51.3 -183.9 Q-53.65 -192.95 -61.35 -214.3 L-61.35 -176.3 Q-61.35 -170.5 -60.85 -165.65 L-60.0 -165.75 Q-51.35 -153.0 -49.15 -150.35 -36.2 -135.0 -1.4 -135.0 9.35 -135.0 24.9 -139.55 39.95 -143.95 54.3 -150.95 69.25 -158.25 78.25 -165.9 88.1 -174.3 88.1 -181.0 88.1 -182.2 86.25 -186.45 L82.1 -195.95 Q76.1 -211.05 76.1 -224.15 L76.1 -229.1 Q74.0 -231.75 70.35 -237.75 L61.0 -252.8 Q61.4 -240.65 54.95 -227.05 52.7 -222.25 44.65 -211.55 37.15 -201.6 36.65 -201.6 33.65 -201.6 33.1 -203.8 32.8 -204.9 33.1 -206.25 33.1 -208.6 35.0 -228.45 L34.75 -242.95" fill="#000000" fill-rule="evenodd" stroke="none"/>
  </g>
</svg>
