<?xml version="1.0" encoding="UTF-8" standalone="no"?>
<svg xmlns:xlink="http://www.w3.org/1999/xlink" height="202.75px" width="209.45px" xmlns="http://www.w3.org/2000/svg">
  <g transform="matrix(1, 0, 0, 1, 100.6, 330.0)">
    <path d="M42.55 -312.8 Q31.05 -318.25 19.9 -320.35 8.7 -322.45 -5.9 -322.0 -20.5 -321.55 -22.5 -319.55 -27.1 -319.25 -41.95 -312.35 -56.8 -305.5 -63.3 -299.9 -69.8 -294.3 -74.55 -285.2 -76.9 -280.65 -81.1 -269.55 -91.35 -242.55 -92.35 -235.8 -92.9 -232.1 -92.4 -223.3 -91.9 -214.55 -91.45 -198.6 -91.0 -182.65 -85.7 -172.25 -80.45 -161.85 -73.85 -155.9 -69.25 -151.8 -60.5 -149.0 L-63.1 -151.3 Q-63.2 -154.3 -62.75 -155.5 L-63.3 -157.65 Q-65.5 -160.8 -64.6 -171.7 -61.35 -215.4 -58.55 -227.95 L-58.75 -228.0 Q-59.95 -228.05 -59.95 -229.3 -59.95 -232.55 -56.65 -233.0 L-56.4 -233.1 -56.05 -233.05 -55.45 -233.1 Q-53.15 -233.1 -49.7 -230.8 -45.9 -228.3 -44.85 -228.1 -42.95 -230.8 -36.2 -244.4 -30.2 -256.6 -29.55 -256.6 -27.3 -256.6 -20.9 -250.25 L-12.55 -241.75 Q-12.05 -243.05 -12.05 -247.1 L-12.1 -254.55 Q-11.75 -264.1 -7.0 -264.1 -3.05 -264.1 7.45 -255.3 16.8 -247.4 20.4 -242.45 21.05 -243.35 22.45 -250.65 24.35 -257.55 27.65 -257.55 31.15 -257.55 38.25 -250.7 45.25 -243.3 46.55 -242.25 L51.15 -247.35 Q55.0 -251.85 57.8 -251.85 64.95 -251.85 80.8 -234.85 L81.6 -234.85 83.4 -232.05 84.4 -230.95 84.25 -229.55 84.4 -228.0 84.25 -218.2 Q84.15 -212.5 84.6 -210.0 84.95 -208.15 90.4 -195.3 L94.3 -185.55 Q95.6 -182.05 95.6 -181.15 95.6 -175.65 91.25 -169.55 95.0 -173.35 98.4 -177.75 101.35 -181.6 101.8 -192.75 L102.7 -209.55 Q101.75 -216.35 101.6 -224.75 101.4 -233.2 100.35 -236.2 99.3 -239.25 97.65 -245.55 95.95 -251.9 87.85 -268.05 79.7 -284.2 73.4 -291.0 67.1 -297.85 58.35 -303.35 49.55 -308.9 42.55 -312.8 M19.7 -227.85 Q19.6 -227.85 18.45 -230.6 16.8 -234.1 14.75 -237.35 7.8 -248.1 -2.95 -254.2 L-7.15 -236.55 Q-10.35 -224.2 -13.15 -224.2 L-18.6 -233.75 Q-24.35 -243.8 -26.95 -245.8 -29.8 -237.7 -36.6 -226.0 -43.7 -213.75 -46.05 -213.75 L-48.0 -214.05 -49.4 -214.9 Q-50.55 -222.15 -52.8 -225.35 L-52.8 -223.1 -55.65 -188.8 Q-56.05 -175.75 -56.6 -168.9 -56.9 -164.8 -57.5 -162.05 -51.05 -152.6 -49.15 -150.35 -36.2 -135.0 -1.4 -135.0 9.35 -135.0 24.9 -139.55 39.95 -143.95 54.3 -150.95 69.25 -158.25 78.25 -165.9 88.1 -174.3 88.1 -181.0 88.1 -182.2 86.25 -186.45 L82.1 -195.95 Q76.1 -211.05 76.1 -224.15 L76.1 -229.6 Q73.7 -231.35 70.15 -234.25 60.25 -242.35 58.05 -243.4 57.1 -242.25 52.85 -234.3 49.45 -227.85 47.95 -227.85 46.75 -227.85 39.45 -236.75 31.2 -246.75 29.8 -247.95 L25.35 -236.5 Q21.7 -227.85 19.7 -227.85 M108.85 -209.2 Q108.85 -182.6 97.1 -165.1 84.3 -146.05 62.45 -146.05 L60.8 -146.2 59.35 -145.5 Q42.95 -137.25 24.5 -132.4 4.95 -127.25 -12.15 -127.25 -30.15 -127.25 -46.35 -137.5 -84.0 -146.05 -91.5 -165.95 -99.05 -185.85 -99.4 -195.45 -99.8 -205.1 -100.3 -210.05 -100.15 -212.55 -100.5 -223.1 -100.9 -233.65 -99.45 -240.85 -98.0 -248.05 -88.2 -272.15 -84.2 -282.3 -81.35 -287.65 -76.65 -296.6 -70.5 -303.15 -60.6 -313.75 -25.3 -327.65 L-11.75 -330.0 Q29.85 -330.0 57.95 -312.2 80.7 -297.8 93.8 -272.4 103.3 -253.9 106.95 -231.25 108.85 -219.55 108.85 -209.2" fill="#000000" fill-rule="evenodd" stroke="none"/>
  </g>
</svg>
