<?xml version="1.0" encoding="UTF-8" standalone="no"?>
<svg xmlns:xlink="http://www.w3.org/1999/xlink" height="287.7px" width="242.85px" xmlns="http://www.w3.org/2000/svg">
  <g transform="matrix(1, 0, 0, 1, 111.45, 323.25)">
    <path d="M6.45 -320.85 Q93.45 -320.85 109.05 -204.9 111.35 -187.65 121.2 -134.4 130.2 -85.85 130.2 -83.25 L130.15 -82.05 Q131.4 -80.8 131.4 -78.15 131.4 -72.85 119.75 -65.5 108.2 -58.2 89.4 -51.5 44.55 -35.55 0.45 -35.55 -36.05 -35.55 -74.05 -43.2 -90.9 -46.6 -100.95 -50.35 L-105.05 -52.05 -105.3 -52.05 Q-109.0 -52.05 -109.95 -53.9 L-110.2 -55.25 Q-111.45 -56.45 -111.45 -57.6 -111.45 -59.45 -110.15 -60.6 -109.85 -68.4 -108.4 -75.55 -107.65 -79.45 -104.4 -91.35 -98.55 -112.75 -98.55 -137.25 L-102.0 -180.6 Q-102.0 -191.5 -99.25 -219.9 L-95.85 -256.5 -95.25 -268.65 Q-93.65 -281.2 -88.05 -291.4 -70.6 -323.25 -20.1 -323.25 -4.15 -323.25 4.4 -320.5 L6.45 -320.85 M7.5 -309.6 Q3.0 -309.6 -4.95 -311.85 -12.85 -314.1 -24.45 -314.1 -69.85 -314.1 -82.4 -285.9 -86.5 -276.75 -87.15 -264.25 -87.05 -252.3 -87.3 -249.6 L-91.05 -214.8 Q-93.15 -193.8 -93.15 -180.45 -93.15 -175.25 -91.4 -158.3 -89.7 -141.35 -89.7 -137.25 -89.7 -135.25 -90.95 -122.55 -92.5 -107.0 -94.35 -93.4 -97.5 -70.2 -100.55 -60.0 L-98.55 -59.3 Q-89.1 -55.95 -79.15 -53.45 -44.95 -45.0 0.6 -45.0 49.05 -45.0 91.8 -64.05 104.25 -69.6 116.7 -77.15 L122.0 -80.3 Q115.75 -88.6 110.75 -124.6 109.6 -132.7 105.75 -164.85 102.85 -189.15 100.8 -200.25 99.0 -210.05 96.1 -230.65 92.6 -248.7 84.9 -261.15 82.35 -265.25 75.95 -276.25 69.7 -286.3 63.75 -292.05 59.8 -295.9 48.95 -299.15 43.85 -300.7 28.05 -304.3 14.9 -307.3 9.4 -309.5 L8.9 -309.7 7.5 -309.6 M64.95 -260.85 Q64.95 -265.5 69.9 -265.5 76.2 -265.5 82.05 -250.35 83.95 -245.55 85.5 -239.85 L86.7 -234.9 Q86.7 -231.3 84.1 -230.15 L84.4 -228.0 84.25 -218.2 Q84.15 -212.5 84.6 -210.0 84.95 -208.15 90.4 -195.3 L94.3 -185.55 Q95.6 -182.05 95.6 -181.15 95.6 -172.7 85.35 -162.9 82.0 -159.7 72.0 -152.6 66.25 -148.95 59.35 -145.5 42.95 -137.25 24.5 -132.4 4.95 -127.25 -12.15 -127.25 -30.35 -127.25 -46.75 -137.75 -51.1 -140.55 -63.1 -151.3 L-63.0 -154.3 Q-69.95 -160.55 -74.95 -175.2 -79.35 -187.95 -80.85 -201.0 -80.85 -206.7 -76.5 -206.7 -74.15 -206.7 -68.75 -190.65 -62.55 -172.25 -60.0 -168.75 L-59.65 -182.0 Q-59.35 -192.4 -58.7 -199.35 -58.05 -206.25 -57.0 -210.9 -61.35 -210.9 -62.15 -213.65 -62.55 -215.05 -62.1 -216.75 L-61.0 -224.15 Q-59.65 -232.0 -57.9 -238.8 -52.7 -259.65 -47.1 -259.65 L-44.7 -259.25 -43.2 -258.15 Q-42.6 -257.7 -42.6 -254.7 L-46.7 -242.25 Q-50.9 -229.95 -51.15 -226.35 -51.75 -225.6 -51.75 -225.0 L-50.7 -225.45 Q-34.0 -233.15 -21.6 -237.4 2.05 -245.55 27.6 -245.55 44.1 -245.55 74.1 -241.65 73.6 -244.25 69.15 -251.85 64.95 -259.05 64.95 -260.85 M76.1 -230.8 Q50.85 -236.4 26.7 -236.4 -6.8 -236.4 -34.25 -223.65 L-46.4 -217.2 -46.2 -214.05 Q-46.2 -211.35 -48.5 -197.95 -50.85 -184.55 -50.85 -178.35 -50.85 -174.9 -49.05 -166.95 -47.25 -158.95 -47.25 -155.4 -47.25 -151.65 -49.15 -150.35 -36.2 -135.0 -1.4 -135.0 9.35 -135.0 24.9 -139.55 39.95 -143.95 54.3 -150.95 69.25 -158.25 78.25 -165.9 88.1 -174.3 88.1 -181.0 88.1 -182.2 86.25 -186.45 L82.1 -195.95 Q76.1 -211.05 76.1 -224.15 L76.1 -230.8" fill="#000000" fill-rule="evenodd" stroke="none"/>
  </g>
</svg>
