<?xml version="1.0" encoding="UTF-8" standalone="no"?>
<svg xmlns:xlink="http://www.w3.org/1999/xlink" height="37.5px" width="70.3px" xmlns="http://www.w3.org/2000/svg">
  <g transform="matrix(1, 0, 0, 1, -33.05, 141.8)">
    <path d="M79.4 -124.8 L79.65 -124.7 79.05 -123.9 79.4 -124.8" fill="#ff7777" fill-rule="evenodd" stroke="none"/>
    <path d="M58.15 -133.75 Q58.05 -130.3 58.6 -127.5 54.65 -125.65 50.75 -123.9 54.65 -125.65 58.6 -127.5 58.05 -130.3 58.15 -133.75 68.45 -137.6 78.0 -136.25 85.75 -140.05 100.65 -139.1 101.5 -126.6 99.0 -120.95 L98.95 -120.7 Q97.05 -116.85 94.85 -113.8 88.8 -116.25 84.55 -119.75 81.75 -122.1 79.65 -124.7 L79.4 -124.8 Q80.1 -127.0 79.65 -130.15 79.2 -132.85 78.0 -136.25 79.2 -132.85 79.65 -130.15 L89.25 -129.1 79.65 -130.15 Q80.1 -127.0 79.4 -124.8 L79.05 -123.9 Q70.35 -120.0 60.5 -121.85 58.85 -118.1 55.25 -113.9 52.25 -110.5 48.05 -106.8 43.85 -109.85 42.5 -111.25 L42.0 -111.75 Q38.3 -116.2 35.55 -130.85 49.65 -135.5 58.15 -133.75 M58.6 -127.5 Q59.15 -124.35 60.5 -121.85 59.15 -124.35 58.6 -127.5" fill="#ffffff" fill-rule="evenodd" stroke="none"/>
    <path d="M50.75 -123.9 Q54.65 -125.65 58.6 -127.5 58.05 -130.3 58.15 -133.75 49.65 -135.5 35.55 -130.85 38.3 -116.2 42.0 -111.75 L42.5 -111.25 Q43.85 -109.85 48.05 -106.8 52.25 -110.5 55.25 -113.9 58.85 -118.1 60.5 -121.85 59.15 -124.35 58.6 -127.5 M79.65 -124.7 Q81.75 -122.1 84.55 -119.75 88.8 -116.25 94.85 -113.8 97.05 -116.85 98.95 -120.7 L99.0 -120.95 Q101.5 -126.6 100.65 -139.1 85.75 -140.05 78.0 -136.25 79.2 -132.85 79.65 -130.15 L89.25 -129.1 M79.65 -130.15 Q80.1 -127.0 79.4 -124.8 L79.05 -123.9 79.65 -124.7 M79.05 -123.9 Q70.35 -120.0 60.5 -121.85 M58.15 -133.75 Q68.45 -137.6 78.0 -136.25" fill="none" stroke="#000000" stroke-linecap="round" stroke-linejoin="round" stroke-width="5.0"/>
  </g>
</svg>
