<?xml version="1.0" encoding="UTF-8" standalone="no"?>
<svg xmlns:xlink="http://www.w3.org/1999/xlink" height="342.0px" width="237.9px" xmlns="http://www.w3.org/2000/svg">
  <g transform="matrix(1, 0, 0, 1, 118.05, 273.9)">
    <use height="151.95" transform="matrix(1.0, 0.0, 0.0, 1.0, -57.1, -140.2)" width="108.7" xlink:href="#shape0"/>
  </g>
  <defs>
    <g id="shape0" transform="matrix(1, 0, 0, 1, 57.1, 140.2)">
      <path d="M27.95 -133.05 L23.9 -131.95 Q17.25 -130.2 10.85 -129.0 L16.65 -109.8 21.05 -94.8 21.05 -94.9 22.85 -89.0 Q26.55 -76.8 28.6 -71.25 L49.95 -12.9 51.6 -8.3 Q51.6 -2.8 50.7 -0.45 49.2 3.6 44.15 6.0 32.15 11.75 -9.15 11.75 -43.85 11.75 -50.65 10.55 -52.7 10.25 -56.6 5.65 -58.65 3.3 -52.05 -33.15 L-41.8 -89.0 -40.2 -97.0 Q-34.85 -123.55 -32.05 -131.9 L-32.05 -138.6 Q-19.9 -134.55 -2.0 -134.55 8.75 -134.55 24.3 -139.1 L27.95 -140.2 27.95 -133.05 M5.15 -127.75 L5.15 -128.1 5.1 -128.1 Q-4.15 -126.8 -12.75 -126.8 -18.55 -126.8 -24.2 -127.85 L-20.7 -122.6 Q-13.6 -112.5 -7.4 -112.5 -5.0 -112.5 0.9 -121.4 L5.15 -127.75 M14.0 -97.0 Q8.45 -114.2 6.4 -122.1 -1.9 -107.15 -7.35 -107.15 -17.25 -107.15 -27.05 -124.05 L-31.85 -97.0 -33.2 -89.0 -33.55 -86.6 -39.0 -62.5 -39.15 -61.5 -24.1 -59.1 Q5.6 -59.1 18.05 -62.9 22.3 -64.15 24.5 -65.65 19.6 -79.7 16.6 -89.0 L14.0 -97.0 M26.35 -60.4 Q24.6 -59.05 21.6 -58.05 9.3 -54.0 -24.45 -54.0 -35.7 -54.0 -40.05 -55.8 L-40.7 -51.6 Q-28.65 -47.95 -22.25 -47.85 -15.85 -47.75 -2.15 -48.35 11.55 -48.95 16.7 -51.35 L24.8 -55.5 Q26.95 -56.8 27.6 -56.85 L26.35 -60.4 M29.35 -51.95 L29.2 -52.35 28.8 -51.75 Q27.0 -49.4 22.85 -47.7 10.9 -42.75 -20.65 -42.75 -35.95 -42.75 -41.5 -46.45 L-42.8 -37.8 -42.8 -37.75 -43.65 -31.45 -43.7 -31.5 -43.7 -31.45 -44.35 -26.8 -45.25 -20.95 -46.7 -9.05 Q-46.2 -9.85 -45.45 -9.35 L-43.85 -9.15 Q-43.05 -9.5 -42.35 -10.4 -41.7 -11.25 -40.9 -16.25 L-39.6 -25.15 Q-39.1 -29.0 -38.7 -35.7 -39.05 -36.1 -36.65 -36.1 -36.1 -36.1 -28.8 -9.4 L-25.75 -9.7 -23.95 -9.55 Q-22.65 -14.9 -19.85 -28.0 L-18.75 -33.35 -18.65 -33.25 -16.95 -33.35 Q-15.6 -33.35 -14.2 -23.95 -12.8 -14.6 -10.65 -9.7 L-6.85 -9.85 Q-6.65 -14.35 -6.1 -18.1 -5.55 -21.85 -5.1 -34.5 L-3.65 -35.25 -2.75 -34.35 Q-0.7 -28.5 6.5 -9.0 L10.25 -9.0 12.4 -33.1 Q12.65 -35.9 15.0 -35.7 16.3 -35.6 14.8 -35.65 16.95 -32.3 22.7 -12.55 L27.9 -12.55 Q27.3 -30.15 27.4 -37.95 L28.05 -38.0 Q28.3 -40.5 38.55 -16.1 42.65 -17.25 41.3 -18.25 L41.5 -18.2 41.5 -18.3 38.65 -26.05 38.25 -27.1 29.35 -51.95 M6.45 -5.9 L4.1 -5.8 Q1.4 -12.15 -0.05 -17.65 L-1.05 -19.85 -1.7 -21.3 -1.8 -19.85 -1.95 -17.3 Q-2.2 -14.1 -4.15 -5.75 L-11.75 -5.1 Q-14.4 -5.1 -17.8 -19.0 L-19.75 -6.45 Q-20.75 -5.6 -21.55 -5.35 L-25.75 -5.1 -29.4 -5.35 Q-30.1 -5.15 -32.5 -6.4 L-35.95 -23.25 -39.7 -5.75 Q-39.7 -5.4 -40.85 -5.1 L-47.45 -5.7 -48.7 0.8 -49.0 2.05 -49.1 2.3 -48.15 2.25 -46.9 2.4 -15.1 3.75 -13.85 3.8 -11.1 3.85 -4.95 3.9 -4.4 3.9 3.75 3.95 20.3 4.0 Q30.75 2.15 35.6 -0.5 43.1 -4.55 44.0 -7.85 L44.0 -7.9 44.1 -8.75 Q44.1 -10.05 43.05 -13.6 L37.25 -12.2 Q35.1 -14.4 30.25 -26.65 31.15 -19.45 31.15 -11.15 29.85 -8.9 23.0 -8.9 L21.9 -8.95 20.65 -8.9 20.25 -9.45 20.2 -9.4 Q17.8 -15.2 15.2 -26.2 14.5 -16.8 13.25 -6.9 11.8 -6.3 9.4 -6.05 L6.45 -5.9" fill="#000000" fill-rule="evenodd" stroke="none"/>
      <path d="M5.15 -127.75 L5.1 -128.1 5.15 -128.1 5.15 -127.75 M14.0 -97.0 L16.6 -89.0 Q19.6 -79.7 24.5 -65.65 22.3 -64.15 18.05 -62.9 5.6 -59.1 -24.1 -59.1 L-39.15 -61.5 -39.0 -62.5 -33.55 -86.6 -33.2 -89.0 -31.85 -97.0 -27.05 -124.05 Q-17.25 -107.15 -7.35 -107.15 -1.9 -107.15 6.4 -122.1 8.45 -114.2 14.0 -97.0 M28.8 -51.75 L29.35 -51.95 38.25 -27.1 38.65 -26.05 41.5 -18.3 41.5 -18.2 41.3 -18.25 Q42.65 -17.25 38.55 -16.1 28.3 -40.5 28.05 -38.0 L27.4 -37.95 Q27.3 -30.15 27.9 -12.55 L22.7 -12.55 Q16.95 -32.3 14.8 -35.65 16.3 -35.6 15.0 -35.7 12.65 -35.9 12.4 -33.1 L10.25 -9.0 6.5 -9.0 Q-0.7 -28.5 -2.75 -34.35 L-3.65 -35.25 -5.1 -34.5 Q-5.55 -21.85 -6.1 -18.1 -6.65 -14.35 -6.85 -9.85 L-10.65 -9.7 Q-12.8 -14.6 -14.2 -23.95 -15.6 -33.35 -16.95 -33.35 L-18.65 -33.25 -18.75 -33.35 -19.85 -28.0 Q-22.65 -14.9 -23.95 -9.55 L-25.75 -9.7 -28.8 -9.4 Q-36.1 -36.1 -36.65 -36.1 -39.05 -36.1 -38.7 -35.7 -39.1 -29.0 -39.6 -25.15 L-40.9 -16.25 Q-41.7 -11.25 -42.35 -10.4 -43.05 -9.5 -43.85 -9.15 L-45.45 -9.35 Q-46.2 -9.85 -46.7 -9.05 L-45.25 -20.95 -44.35 -26.8 -43.7 -31.45 -43.65 -31.45 -42.8 -37.75 -42.8 -37.8 -41.5 -46.45 Q-35.95 -42.75 -20.65 -42.75 10.9 -42.75 22.85 -47.7 27.0 -49.4 28.8 -51.75" fill="#fbfbfb" fill-rule="evenodd" stroke="none"/>
      <path d="M5.1 -128.1 L5.15 -127.75 0.9 -121.4 Q-5.0 -112.5 -7.4 -112.5 -13.6 -112.5 -20.7 -122.6 L-24.2 -127.85 Q-18.55 -126.8 -12.75 -126.8 -4.15 -126.8 5.1 -128.1" fill="#fff1dd" fill-rule="evenodd" stroke="none"/>
      <path d="M26.35 -60.4 L27.6 -56.85 Q26.95 -56.8 24.8 -55.5 L16.7 -51.35 Q11.55 -48.95 -2.15 -48.35 -15.85 -47.75 -22.25 -47.85 -28.65 -47.95 -40.7 -51.6 L-40.05 -55.8 Q-35.7 -54.0 -24.45 -54.0 9.3 -54.0 21.6 -58.05 24.6 -59.05 26.35 -60.4" fill="#c4c2cd" fill-rule="evenodd" stroke="none"/>
      <path d="M6.45 -5.9 L9.4 -6.05 Q11.8 -6.3 13.25 -6.9 14.5 -16.8 15.2 -26.2 17.8 -15.2 20.2 -9.4 L20.25 -9.45 20.65 -8.9 21.9 -8.95 23.0 -8.9 Q29.85 -8.9 31.15 -11.15 31.15 -19.45 30.25 -26.65 35.1 -14.4 37.25 -12.2 L43.05 -13.6 Q44.1 -10.05 44.1 -8.75 L44.0 -7.9 44.0 -7.85 Q43.1 -4.55 35.6 -0.5 30.75 2.15 20.3 4.0 L3.75 3.95 -4.4 3.9 -4.95 3.9 -11.1 3.85 -13.85 3.8 -15.1 3.75 -46.9 2.4 -48.15 2.25 -49.1 2.3 -49.0 2.05 -48.7 0.8 -47.45 -5.7 -40.85 -5.1 Q-39.7 -5.4 -39.7 -5.75 L-35.95 -23.25 -32.5 -6.4 Q-30.1 -5.15 -29.4 -5.35 L-25.75 -5.1 -21.55 -5.35 Q-20.75 -5.6 -19.75 -6.45 L-17.8 -19.0 Q-14.4 -5.1 -11.75 -5.1 L-4.15 -5.75 Q-2.2 -14.1 -1.95 -17.3 L-1.8 -19.85 -1.7 -21.3 -1.05 -19.85 -0.05 -17.65 Q1.4 -12.15 4.1 -5.8 L6.45 -5.9" fill="#113e80" fill-rule="evenodd" stroke="none"/>
    </g>
  </defs>
</svg>
