<?xml version="1.0" encoding="UTF-8" standalone="no"?>
<svg xmlns:xlink="http://www.w3.org/1999/xlink" height="342.0px" width="237.9px" xmlns="http://www.w3.org/2000/svg">
  <g transform="matrix(1, 0, 0, 1, 118.05, 273.9)">
    <use height="150.35" transform="matrix(1.0, 0.0, 0.0, 1.0, -68.4, -138.6)" width="124.45" xlink:href="#shape0"/>
  </g>
  <defs>
    <g id="shape0" transform="matrix(1, 0, 0, 1, 68.4, 138.6)">
      <path d="M3.8 -127.9 L0.65 -127.55 0.45 -126.9 0.45 -126.85 Q-1.2 -122.25 -4.4 -118.65 L-2.1 -115.6 Q1.5 -121.45 3.8 -127.8 L3.85 -127.9 3.8 -127.9 M7.5 -118.1 L5.75 -124.55 Q3.45 -118.85 0.15 -113.5 L0.1 -113.45 -0.1 -113.15 -0.05 -113.2 -0.75 -112.1 -0.8 -112.05 -0.85 -112.0 Q-2.85 -108.95 -5.6 -105.85 L-3.45 -101.4 -3.5 -101.15 -3.3 -100.45 -2.9 -100.1 -2.85 -99.95 Q1.2 -90.1 3.4 -76.8 9.05 -90.35 11.0 -102.05 L11.4 -105.15 8.8 -113.6 8.75 -113.85 8.5 -114.55 8.45 -114.8 8.05 -116.25 7.8 -117.1 7.7 -117.35 7.5 -118.1 M19.25 -101.0 L21.05 -94.9 21.05 -94.8 22.7 -89.5 22.85 -89.0 24.3 -84.35 24.4 -83.95 Q27.0 -75.6 28.6 -71.25 L31.4 -63.65 31.8 -62.6 32.2 -61.45 32.25 -61.3 32.95 -59.4 33.25 -58.6 33.5 -57.9 Q35.7 -52.5 41.0 -44.35 52.6 -27.85 55.9 -18.25 56.2 -17.4 55.85 -16.5 55.5 -15.6 54.65 -15.2 L52.85 -15.05 48.85 -15.85 49.15 -15.1 49.95 -12.9 51.6 -8.3 Q52.6 -4.7 52.2 -2.15 51.95 -0.55 51.2 0.6 49.2 3.6 44.15 6.0 32.15 11.75 -9.15 11.75 L-21.25 11.7 -50.65 10.55 Q-52.15 10.3 -54.55 7.85 L-56.6 5.65 -56.95 4.6 -57.0 4.3 Q-57.35 1.15 -56.0 -8.7 L-55.8 -10.3 -55.9 -10.35 -55.95 -10.35 -58.2 -10.5 -58.3 -10.5 Q-61.35 -10.4 -64.9 -8.7 L-66.4 -8.55 Q-67.25 -8.7 -67.8 -9.3 -68.35 -9.9 -68.4 -10.7 -68.5 -11.55 -68.1 -12.25 L-55.05 -34.35 Q-51.05 -40.75 -49.75 -45.7 L-49.55 -46.8 -47.35 -58.95 -46.95 -61.3 -46.85 -61.85 -46.55 -63.4 -46.55 -63.45 -46.15 -65.55 -42.9 -83.25 -42.8 -83.95 -41.8 -89.0 -40.2 -97.0 Q-34.85 -123.55 -32.05 -131.9 L-32.05 -138.6 Q-19.9 -134.55 -2.0 -134.55 L9.2 -135.55 16.65 -109.8 19.25 -101.0 M13.35 -98.35 Q11.0 -86.65 5.2 -73.25 L7.1 -73.55 7.15 -73.6 Q9.6 -74.9 11.3 -77.4 13.5 -80.9 19.05 -81.5 L18.85 -82.15 18.25 -83.95 17.8 -85.35 16.6 -89.0 16.4 -89.5 14.0 -97.0 13.55 -98.3 13.5 -98.55 13.45 -98.7 13.4 -98.55 13.35 -98.35 M-24.8 -126.75 L-26.3 -128.2 -29.95 -108.35 -29.1 -107.35 Q-23.65 -100.25 -16.7 -76.5 -14.05 -75.0 -12.35 -72.3 L1.05 -72.75 0.1 -78.6 0.05 -78.7 Q-2.9 -94.75 -8.75 -105.35 L-8.9 -105.65 Q-15.2 -116.9 -24.8 -126.75 M8.7 -51.95 L17.75 -51.5 29.35 -51.95 28.05 -55.55 27.8 -56.25 27.5 -57.25 Q18.15 -53.7 8.7 -51.95 M20.05 -78.6 L19.7 -78.55 Q15.5 -78.2 13.85 -75.75 L13.8 -75.7 Q12.55 -73.85 11.0 -72.55 17.1 -70.95 21.3 -73.7 L21.65 -73.85 20.05 -78.6 M-39.55 -57.7 Q-25.9 -53.7 -12.55 -53.3 L-12.45 -53.3 -12.4 -53.3 2.9 -54.05 3.15 -54.05 3.2 -54.05 Q13.35 -55.45 23.4 -58.95 L26.45 -60.05 26.4 -60.05 26.5 -60.05 26.05 -61.3 25.95 -61.65 25.25 -63.65 24.3 -66.3 Q20.3 -64.8 16.35 -63.65 8.0 -61.2 -0.35 -60.25 -0.95 -60.2 -1.4 -60.55 -1.95 -61.0 -2.0 -61.6 -2.1 -62.2 -1.65 -62.65 -1.25 -63.2 -0.65 -63.25 L2.45 -63.65 Q12.9 -65.2 23.3 -69.15 L23.25 -69.3 23.25 -69.4 22.95 -70.2 22.8 -70.65 22.7 -70.95 Q16.6 -67.05 7.35 -70.55 -2.8 -68.9 -12.95 -69.3 L-13.0 -69.3 Q-26.45 -67.25 -37.6 -70.25 L-38.0 -67.8 -38.05 -67.6 -38.2 -66.85 -38.15 -66.8 Q-30.95 -64.7 -23.85 -63.65 L-6.75 -62.75 Q-6.15 -62.75 -5.65 -62.3 -5.2 -61.95 -5.2 -61.3 -5.2 -60.75 -5.55 -60.25 L-5.6 -60.2 Q-6.05 -59.75 -6.6 -59.75 L-6.65 -59.75 Q-22.15 -59.1 -37.95 -63.65 L-38.75 -63.85 -38.8 -63.65 -38.85 -63.4 -38.95 -62.8 -38.95 -62.6 -39.0 -62.5 -39.2 -61.3 -39.35 -60.35 -39.35 -60.3 -39.55 -58.95 -39.75 -57.75 -39.5 -57.65 -39.55 -57.7 M14.55 -25.8 Q10.1 -36.3 7.85 -48.4 L7.85 -49.0 Q5.1 -49.7 2.8 -50.95 L-12.3 -50.3 -13.95 -49.7 -14.15 -48.85 -14.2 -48.75 Q-17.55 -35.85 -23.0 -24.65 -19.45 -24.7 -16.9 -20.45 -15.95 -18.85 -14.65 -18.7 -13.05 -18.85 -10.95 -20.9 L-10.9 -20.9 Q-4.5 -27.05 1.45 -21.15 3.35 -19.3 5.15 -19.35 6.95 -19.55 8.75 -21.7 11.8 -25.4 14.55 -25.8 M33.3 -47.3 L30.85 -47.75 18.95 -48.6 18.1 -48.5 18.05 -48.5 Q14.2 -48.1 10.9 -48.45 13.4 -35.6 18.4 -24.55 L18.5 -24.4 18.85 -23.65 22.75 -16.2 23.6 -14.9 24.05 -14.15 24.05 -14.1 24.7 -13.0 24.8 -12.85 25.2 -13.45 26.05 -14.4 26.9 -15.0 Q29.2 -16.45 33.25 -15.25 L35.7 -15.0 36.4 -15.4 38.65 -17.45 39.7 -18.3 Q41.75 -19.9 47.5 -19.55 L50.65 -19.25 46.05 -27.35 42.9 -32.55 42.55 -33.1 38.05 -39.9 33.3 -47.3 M23.95 -67.25 L23.9 -67.25 23.95 -67.25 23.65 -68.2 Q15.95 -65.25 8.2 -63.65 L-0.55 -62.25 -0.85 -62.05 -0.9 -62.0 -1.0 -61.7 -0.75 -61.3 -0.45 -61.25 Q6.05 -62.0 12.55 -63.65 18.25 -65.1 23.95 -67.25 M-30.15 4.1 L-21.25 4.2 20.3 4.0 22.9 3.65 Q43.85 0.5 46.1 -4.6 46.4 -5.35 46.35 -6.1 L46.05 -7.25 46.0 -7.4 44.95 -10.0 44.4 -11.25 42.9 -15.1 41.9 -14.95 42.15 -14.9 40.5 -14.65 38.35 -13.1 Q37.35 -12.1 35.7 -11.9 L32.4 -12.35 Q29.85 -13.1 28.4 -12.4 27.15 -11.55 26.8 -9.25 26.7 -8.65 26.2 -8.25 25.65 -7.9 25.05 -8.0 L24.1 -8.6 22.15 -11.5 21.5 -12.55 20.4 -14.3 Q18.0 -18.3 16.0 -22.6 13.85 -23.15 11.05 -19.8 L11.05 -19.75 Q8.25 -16.5 5.35 -16.35 2.35 -16.1 -0.65 -19.0 -4.6 -22.8 -8.85 -18.8 L-8.85 -18.75 Q-12.05 -15.7 -14.6 -15.75 -17.45 -15.55 -19.45 -18.9 -21.55 -22.4 -24.75 -21.2 L-27.2 -16.85 -29.85 -12.55 -29.9 -12.5 -30.5 -11.55 -30.55 -11.45 -30.6 -11.4 -34.05 -7.1 -34.35 -6.75 -34.5 -6.6 -34.85 -6.2 Q-35.25 -5.75 -35.85 -5.7 L-36.95 -6.0 Q-37.45 -6.4 -37.5 -7.0 -37.8 -9.9 -38.75 -10.65 -39.75 -11.0 -41.55 -9.65 L-41.6 -9.65 Q-42.95 -8.75 -44.05 -8.3 -45.45 -7.75 -46.95 -7.55 L-48.55 0.15 -48.7 0.7 -48.7 0.8 -48.95 1.8 -49.1 2.3 Q-48.7 2.15 -43.8 3.4 L-30.15 4.1 -30.35 4.9 -30.15 4.1 M24.5 -17.25 L24.5 -17.3 24.5 -17.25 M-11.65 -126.8 Q-8.95 -124.2 -6.3 -121.0 -4.0 -123.8 -2.65 -127.2 L-2.9 -127.2 -3.4 -127.15 -7.95 -126.9 -8.6 -126.85 -9.75 -126.85 -11.2 -126.8 -11.65 -126.8 M-14.85 -125.7 L-16.15 -126.85 -17.45 -126.95 -21.25 -127.4 Q-12.95 -118.55 -7.15 -108.6 L-3.85 -112.9 -7.4 -117.65 -7.4 -117.7 -7.6 -117.95 -8.0 -118.4 Q-11.4 -122.5 -14.85 -125.7 M-31.5 -100.5 L-33.6 -90.8 -35.05 -83.95 -35.2 -83.05 -35.3 -82.7 -35.45 -81.7 -35.0 -81.45 Q-29.55 -78.5 -24.75 -78.45 L-20.3 -77.95 Q-26.1 -97.35 -30.7 -104.45 L-31.5 -100.5 M-36.0 -78.55 L-36.05 -78.6 -36.1 -78.35 -36.45 -76.45 -37.05 -73.25 -36.9 -73.2 Q-27.25 -70.55 -15.8 -71.95 -17.0 -73.35 -18.6 -74.1 L-18.65 -74.15 -18.7 -74.15 Q-21.2 -75.45 -24.75 -75.45 -30.05 -75.4 -36.0 -78.55 M-38.55 -64.85 L-38.5 -64.8 -34.15 -63.65 Q-20.3 -60.2 -6.65 -60.75 L-6.35 -60.85 -6.2 -61.3 -6.3 -61.55 -6.7 -61.75 -6.75 -61.75 Q-18.1 -61.3 -29.65 -63.65 L-38.4 -65.85 -38.55 -64.85 M-40.3 -54.1 L-41.2 -48.55 Q-38.35 -48.25 -33.25 -48.45 -28.1 -48.65 -20.5 -50.8 -30.3 -51.85 -40.2 -54.75 L-40.25 -54.65 -40.25 -54.6 -40.3 -54.1 M-43.3 -12.1 Q-39.55 -14.85 -37.3 -13.25 -35.9 -12.6 -35.15 -10.55 L-34.4 -11.45 -34.3 -11.6 -33.95 -12.05 -33.05 -13.15 -33.0 -13.2 -33.05 -13.1 -32.35 -14.2 -32.4 -14.15 -32.35 -14.3 -32.25 -14.4 -32.05 -14.75 -27.75 -22.05 -27.15 -23.1 Q-21.0 -34.9 -17.3 -48.65 -30.45 -45.25 -35.85 -45.5 -40.15 -45.75 -41.25 -45.5 L-41.6 -45.35 -41.65 -45.4 -41.65 -45.35 -41.7 -45.3 -42.75 -43.45 -53.45 -25.0 Q-58.25 -16.95 -59.75 -14.95 L-55.15 -14.75 Q-50.05 -14.2 -48.4 -12.15 L-47.3 -11.15 Q-46.65 -10.75 -45.9 -10.8 -45.25 -10.85 -43.8 -11.75 L-43.4 -12.05 -43.3 -12.1 M-10.2 -13.55 L-10.25 -13.55 -10.2 -13.6 -10.2 -13.55" fill="#000000" fill-rule="evenodd" stroke="none"/>
      <path d="M3.8 -127.8 Q1.5 -121.45 -2.1 -115.6 L-4.4 -118.65 Q-1.2 -122.25 0.45 -126.85 L0.45 -126.9 0.65 -127.55 3.8 -127.9 3.8 -127.8 M4.75 -112.7 L5.55 -112.5 5.9 -111.85 5.75 -111.05 Q4.95 -110.0 4.6 -108.6 7.6 -107.55 9.2 -105.45 L9.4 -104.7 9.05 -104.05 8.3 -103.85 Q7.85 -103.9 7.6 -104.2 6.4 -105.75 4.25 -106.55 4.15 -105.1 4.4 -103.35 L4.2 -102.6 3.55 -102.2 Q3.1 -102.15 2.8 -102.4 2.45 -102.65 2.4 -103.05 2.1 -105.35 2.25 -107.15 L0.5 -107.5 -0.2 -107.9 -0.4 -108.6 0.0 -109.3 0.75 -109.5 2.6 -109.15 Q3.05 -110.95 4.1 -112.3 L4.75 -112.7 M-3.45 -101.4 L-3.1 -101.85 -2.35 -102.05 -0.7 -101.75 Q-0.6 -103.3 -0.05 -104.55 L0.5 -105.1 Q0.85 -105.3 1.25 -105.1 L1.8 -104.6 1.8 -103.8 Q1.35 -102.65 1.35 -101.2 4.45 -100.15 6.1 -98.0 L6.3 -97.25 5.95 -96.6 5.2 -96.4 Q4.75 -96.45 4.5 -96.75 3.4 -98.1 1.6 -98.95 1.9 -97.55 2.55 -96.0 L2.55 -95.2 2.0 -94.65 1.2 -94.7 0.7 -95.2 0.15 -96.7 -0.15 -97.6 -0.6 -99.65 -2.6 -100.05 -2.9 -100.1 -3.3 -100.45 -3.5 -101.15 -3.45 -101.4 M8.8 -113.6 L8.45 -113.8 Q8.3 -112.25 8.55 -110.35 L8.35 -109.6 Q8.1 -109.3 7.7 -109.25 7.25 -109.2 6.95 -109.45 6.6 -109.7 6.55 -110.1 6.2 -112.55 6.45 -114.5 L4.0 -115.0 Q3.55 -115.05 3.3 -115.4 3.05 -115.7 3.1 -116.1 3.15 -116.55 3.5 -116.8 L4.25 -117.0 6.85 -116.5 7.5 -118.1 7.7 -117.35 7.8 -117.1 8.05 -116.25 8.45 -114.8 8.5 -114.55 8.75 -113.85 8.8 -113.6 M23.95 -67.25 Q18.25 -65.1 12.55 -63.65 6.05 -62.0 -0.45 -61.25 L-0.75 -61.3 -1.0 -61.7 -0.9 -62.0 -0.85 -62.05 -0.55 -62.25 8.2 -63.65 Q15.95 -65.25 23.65 -68.2 L23.95 -67.25 23.9 -67.25 23.95 -67.25 M33.3 -47.3 L38.05 -39.9 42.55 -33.1 42.9 -32.55 46.05 -27.35 50.65 -19.25 47.5 -19.55 Q41.75 -19.9 39.7 -18.3 L38.65 -17.45 36.4 -15.4 35.7 -15.0 33.25 -15.25 Q29.2 -16.45 26.9 -15.0 L26.05 -14.4 25.2 -13.45 24.8 -12.85 24.7 -13.0 24.05 -14.1 24.05 -14.15 23.6 -14.9 22.75 -16.2 18.85 -23.65 18.5 -24.4 18.4 -24.55 Q13.4 -35.6 10.9 -48.45 14.2 -48.1 18.05 -48.5 L18.1 -48.5 18.95 -48.6 30.85 -47.75 33.3 -47.3 M14.55 -25.8 Q11.8 -25.4 8.75 -21.7 6.95 -19.55 5.15 -19.35 3.35 -19.3 1.45 -21.15 -4.5 -27.05 -10.9 -20.9 L-10.95 -20.9 Q-13.05 -18.85 -14.65 -18.7 -15.95 -18.85 -16.9 -20.45 -19.45 -24.7 -23.0 -24.65 -17.55 -35.85 -14.2 -48.75 L-14.15 -48.85 -13.95 -49.7 -12.3 -50.3 2.8 -50.95 Q5.1 -49.7 7.85 -49.0 L7.85 -48.4 Q10.1 -36.3 14.55 -25.8 M24.5 -17.25 L24.5 -17.3 24.5 -17.25 M-14.85 -125.7 Q-11.4 -122.5 -8.0 -118.4 L-7.6 -117.95 -7.4 -117.7 -7.4 -117.65 -3.85 -112.9 -7.15 -108.6 Q-12.95 -118.55 -21.25 -127.4 L-17.45 -126.95 -16.15 -126.85 -14.85 -125.7 M-4.65 -93.5 Q-4.9 -93.2 -5.3 -93.2 -5.65 -93.2 -5.95 -93.5 L-6.2 -94.15 -5.95 -94.8 -5.3 -95.05 Q-4.9 -95.05 -4.65 -94.8 -4.35 -94.5 -4.35 -94.15 -4.35 -93.75 -4.65 -93.5 M-7.1 -92.4 L-6.6 -92.25 -6.45 -91.75 Q-6.45 -91.45 -6.6 -91.25 -6.85 -91.05 -7.1 -91.05 L-7.6 -91.25 -7.8 -91.75 -7.6 -92.25 -7.1 -92.4 M-6.75 -88.1 L-6.1 -88.35 -5.45 -88.1 -5.15 -87.45 Q-5.15 -87.05 -5.45 -86.8 -5.7 -86.5 -6.1 -86.5 -6.45 -86.5 -6.75 -86.8 L-7.0 -87.45 -6.75 -88.1 M-3.65 -90.05 Q-3.9 -89.75 -4.3 -89.75 -4.65 -89.75 -4.95 -90.05 L-5.2 -90.7 -4.95 -91.35 -4.3 -91.6 -3.65 -91.35 -3.35 -90.7 Q-3.35 -90.3 -3.65 -90.05 M-3.05 -87.65 L-2.85 -87.15 -3.05 -86.65 Q-3.25 -86.45 -3.55 -86.45 L-4.0 -86.65 -4.2 -87.15 -4.0 -87.65 -3.55 -87.85 -3.05 -87.65 M-1.6 -83.9 Q-1.6 -83.5 -1.9 -83.25 -2.15 -82.95 -2.55 -82.95 L-3.2 -83.25 -3.45 -83.9 -3.2 -84.55 -2.55 -84.8 Q-2.15 -84.8 -1.9 -84.55 L-1.6 -83.9 M-4.5 -83.7 Q-4.5 -83.5 -4.65 -83.35 L-4.95 -83.2 -5.3 -83.35 -5.4 -83.7 -5.3 -84.0 -4.95 -84.15 -4.65 -84.0 -4.5 -83.7 M-3.7 -81.6 L-3.2 -81.8 -2.75 -81.6 -2.55 -81.1 -2.75 -80.6 -3.2 -80.4 -3.7 -80.6 -3.9 -81.1 -3.7 -81.6 M-5.2 -79.4 L-4.9 -79.55 -4.55 -79.4 -4.4 -79.1 -4.55 -78.75 -4.9 -78.6 -5.2 -78.75 -5.35 -79.1 -5.2 -79.4 M-0.5 -79.2 L-0.2 -78.55 Q-0.2 -78.15 -0.5 -77.9 -0.75 -77.6 -1.15 -77.6 L-1.8 -77.9 -2.05 -78.55 -1.8 -79.2 -1.15 -79.45 -0.5 -79.2 M-3.2 -78.2 L-2.75 -78.0 -2.55 -77.5 -2.75 -77.0 -3.2 -76.8 -3.7 -77.0 -3.9 -77.5 -3.7 -78.0 -3.2 -78.2 M-4.2 -76.0 L-3.75 -75.85 -3.55 -75.35 -3.75 -74.85 -4.2 -74.65 -4.7 -74.85 -4.9 -75.35 -4.7 -75.85 -4.2 -76.0 M-1.85 -75.55 L-1.2 -75.3 Q-0.9 -75.0 -0.9 -74.65 -0.9 -74.25 -1.2 -74.0 -1.45 -73.7 -1.85 -73.7 -2.2 -73.7 -2.5 -74.0 L-2.75 -74.65 -2.5 -75.3 -1.85 -75.55 M-29.55 -87.35 Q-30.3 -87.35 -30.85 -87.9 -31.35 -88.4 -31.35 -89.2 -31.35 -89.95 -30.85 -90.5 -30.3 -91.0 -29.55 -91.0 -28.8 -91.0 -28.25 -90.5 -27.7 -89.95 -27.7 -89.2 -27.7 -88.4 -28.25 -87.9 -28.8 -87.35 -29.55 -87.35 M-30.75 -85.6 Q-30.2 -85.05 -30.2 -84.3 -30.2 -83.5 -30.75 -83.0 -31.3 -82.45 -32.05 -82.45 -32.8 -82.45 -33.35 -83.0 -33.85 -83.5 -33.85 -84.3 -33.85 -85.05 -33.35 -85.6 -32.8 -86.1 -32.05 -86.1 -31.3 -86.1 -30.75 -85.6 M-29.2 -82.5 Q-29.2 -83.25 -28.7 -83.8 -28.15 -84.3 -27.4 -84.3 -26.65 -84.3 -26.1 -83.8 -25.55 -83.25 -25.55 -82.5 -25.55 -81.7 -26.1 -81.2 -26.65 -80.65 -27.4 -80.65 -28.15 -80.65 -28.7 -81.2 -29.2 -81.7 -29.2 -82.5 M-38.55 -64.85 L-38.4 -65.85 -29.65 -63.65 Q-18.1 -61.3 -6.75 -61.75 L-6.7 -61.75 -6.3 -61.55 -6.2 -61.3 -6.35 -60.85 -6.65 -60.75 Q-20.3 -60.2 -34.15 -63.65 L-38.5 -64.8 -38.55 -64.85 M-43.3 -12.1 L-43.4 -12.05 -43.8 -11.75 Q-45.25 -10.85 -45.9 -10.8 -46.65 -10.75 -47.3 -11.15 L-48.4 -12.15 Q-50.05 -14.2 -55.15 -14.75 L-59.75 -14.95 Q-58.25 -16.95 -53.45 -25.0 L-42.75 -43.45 -41.7 -45.3 -41.65 -45.35 -41.65 -45.4 -41.6 -45.35 -41.25 -45.5 Q-40.15 -45.75 -35.85 -45.5 -30.45 -45.25 -17.3 -48.65 -21.0 -34.9 -27.15 -23.1 L-27.75 -22.05 -32.05 -14.75 -32.25 -14.4 -32.35 -14.3 -32.4 -14.15 -32.35 -14.2 -33.05 -13.1 -33.0 -13.2 -33.05 -13.15 -33.95 -12.05 -34.3 -11.6 -34.4 -11.45 -35.15 -10.55 Q-35.9 -12.6 -37.3 -13.25 -39.55 -14.85 -43.3 -12.1 M-8.85 -18.75 L-8.85 -18.8 -8.85 -18.75" fill="#ffffff" fill-rule="evenodd" stroke="none"/>
      <path d="M4.75 -112.7 L4.1 -112.3 Q3.05 -110.95 2.6 -109.15 L0.75 -109.5 0.0 -109.3 -0.4 -108.6 -0.2 -107.9 0.5 -107.5 2.25 -107.15 Q2.1 -105.35 2.4 -103.05 2.45 -102.65 2.8 -102.4 3.1 -102.15 3.55 -102.2 L4.2 -102.6 4.4 -103.35 Q4.15 -105.1 4.25 -106.55 6.4 -105.75 7.6 -104.2 7.85 -103.9 8.3 -103.85 L9.05 -104.05 9.4 -104.7 9.2 -105.45 Q7.6 -107.55 4.6 -108.6 4.95 -110.0 5.75 -111.05 L5.9 -111.85 5.55 -112.5 4.75 -112.7 M-0.75 -112.1 L-0.05 -113.2 -0.1 -113.15 0.1 -113.45 0.15 -113.5 Q3.45 -118.85 5.75 -124.55 L7.5 -118.1 6.85 -116.5 4.25 -117.0 3.5 -116.8 Q3.15 -116.55 3.1 -116.1 3.05 -115.7 3.3 -115.4 3.55 -115.05 4.0 -115.0 L6.45 -114.5 Q6.2 -112.55 6.55 -110.1 6.6 -109.7 6.95 -109.45 7.25 -109.2 7.7 -109.25 8.1 -109.3 8.35 -109.6 L8.55 -110.35 Q8.3 -112.25 8.45 -113.8 L8.8 -113.6 11.4 -105.15 11.0 -102.05 Q9.05 -90.35 3.4 -76.8 1.2 -90.1 -2.85 -99.95 L-2.6 -100.05 -0.6 -99.65 -0.15 -97.6 0.15 -96.7 0.7 -95.2 1.2 -94.7 2.0 -94.65 2.55 -95.2 2.55 -96.0 Q1.9 -97.55 1.6 -98.95 3.4 -98.1 4.5 -96.75 4.75 -96.45 5.2 -96.4 L5.95 -96.6 6.3 -97.25 6.1 -98.0 Q4.45 -100.15 1.35 -101.2 1.35 -102.65 1.8 -103.8 L1.8 -104.6 1.25 -105.1 Q0.85 -105.3 0.5 -105.1 L-0.05 -104.55 Q-0.6 -103.3 -0.7 -101.75 L-2.35 -102.05 -3.1 -101.85 -3.45 -101.4 -5.6 -105.85 Q-2.85 -108.95 -0.85 -112.0 L-0.75 -112.1 M13.55 -98.3 L14.0 -97.0 16.4 -89.5 16.6 -89.0 17.8 -85.35 18.25 -83.95 18.85 -82.15 19.05 -81.5 Q13.5 -80.9 11.3 -77.4 9.6 -74.9 7.15 -73.6 L7.1 -73.55 5.2 -73.25 Q11.0 -86.65 13.35 -98.35 L13.55 -98.3 M-24.8 -126.75 Q-15.2 -116.9 -8.9 -105.65 L-8.75 -105.35 Q-2.9 -94.75 0.05 -78.7 L0.1 -78.6 1.05 -72.75 -12.35 -72.3 Q-14.05 -75.0 -16.7 -76.5 -23.65 -100.25 -29.1 -107.35 L-29.95 -108.35 -26.3 -128.2 -24.8 -126.75 M-8.85 -18.8 Q-4.6 -22.8 -0.65 -19.0 2.35 -16.1 5.35 -16.35 8.25 -16.5 11.05 -19.75 L11.05 -19.8 Q13.85 -23.15 16.0 -22.6 18.0 -18.3 20.4 -14.3 L21.5 -12.55 22.15 -11.5 24.1 -8.6 25.05 -8.0 Q25.65 -7.9 26.2 -8.25 26.7 -8.65 26.8 -9.25 27.15 -11.55 28.4 -12.4 29.85 -13.1 32.4 -12.35 L35.7 -11.9 Q37.35 -12.1 38.35 -13.1 L40.5 -14.65 42.15 -14.9 41.9 -14.95 42.9 -15.1 44.4 -11.25 44.95 -10.0 46.0 -7.4 46.05 -7.25 46.35 -6.1 Q46.4 -5.35 46.1 -4.6 43.85 0.5 22.9 3.65 L20.3 4.0 -21.25 4.2 -30.15 4.1 -43.8 3.4 Q-48.7 2.15 -49.1 2.3 L-48.95 1.8 -48.7 0.8 -48.7 0.7 -48.55 0.15 -46.95 -7.55 Q-45.45 -7.75 -44.05 -8.3 -42.95 -8.75 -41.6 -9.65 L-41.55 -9.65 Q-39.75 -11.0 -38.75 -10.65 -37.8 -9.9 -37.5 -7.0 -37.45 -6.4 -36.95 -6.0 L-35.85 -5.7 Q-35.25 -5.75 -34.85 -6.2 L-34.5 -6.6 -34.35 -6.75 -34.05 -7.1 -30.6 -11.4 -30.55 -11.45 -30.5 -11.55 -29.9 -12.5 -29.85 -12.55 -27.2 -16.85 -24.75 -21.2 Q-21.55 -22.4 -19.45 -18.9 -17.45 -15.55 -14.6 -15.75 -12.05 -15.7 -8.85 -18.75 L-8.85 -18.8 M20.25 -8.95 L22.9 3.65 20.25 -8.95 M-31.5 -100.5 L-30.7 -104.45 Q-26.1 -97.35 -20.3 -77.95 L-24.75 -78.45 Q-29.55 -78.5 -35.0 -81.45 L-35.45 -81.7 -35.3 -82.7 -35.2 -83.05 -35.05 -83.95 -33.6 -90.8 -31.5 -100.5 M-4.65 -93.5 Q-4.35 -93.75 -4.35 -94.15 -4.35 -94.5 -4.65 -94.8 -4.9 -95.05 -5.3 -95.05 L-5.95 -94.8 -6.2 -94.15 -5.95 -93.5 Q-5.65 -93.2 -5.3 -93.2 -4.9 -93.2 -4.65 -93.5 M-7.1 -92.4 L-7.6 -92.25 -7.8 -91.75 -7.6 -91.25 -7.1 -91.05 Q-6.85 -91.05 -6.6 -91.25 -6.45 -91.45 -6.45 -91.75 L-6.6 -92.25 -7.1 -92.4 M-30.75 -85.6 Q-31.3 -86.1 -32.05 -86.1 -32.8 -86.1 -33.35 -85.6 -33.85 -85.05 -33.85 -84.3 -33.85 -83.5 -33.35 -83.0 -32.8 -82.45 -32.05 -82.45 -31.3 -82.45 -30.75 -83.0 -30.2 -83.5 -30.2 -84.3 -30.2 -85.05 -30.75 -85.6 M-29.55 -87.35 Q-28.8 -87.35 -28.25 -87.9 -27.7 -88.4 -27.7 -89.2 -27.7 -89.95 -28.25 -90.5 -28.8 -91.0 -29.55 -91.0 -30.3 -91.0 -30.85 -90.5 -31.35 -89.95 -31.35 -89.2 -31.35 -88.4 -30.85 -87.9 -30.3 -87.35 -29.55 -87.35 M-1.85 -75.55 L-2.5 -75.3 -2.75 -74.65 -2.5 -74.0 Q-2.2 -73.7 -1.85 -73.7 -1.45 -73.7 -1.2 -74.0 -0.9 -74.25 -0.9 -74.65 -0.9 -75.0 -1.2 -75.3 L-1.85 -75.55 M-4.2 -76.0 L-4.7 -75.85 -4.9 -75.35 -4.7 -74.85 -4.2 -74.65 -3.75 -74.85 -3.55 -75.35 -3.75 -75.85 -4.2 -76.0 M-3.2 -78.2 L-3.7 -78.0 -3.9 -77.5 -3.7 -77.0 -3.2 -76.8 -2.75 -77.0 -2.55 -77.5 -2.75 -78.0 -3.2 -78.2 M-0.5 -79.2 L-1.15 -79.45 -1.8 -79.2 -2.05 -78.55 -1.8 -77.9 -1.15 -77.6 Q-0.75 -77.6 -0.5 -77.9 -0.2 -78.15 -0.2 -78.55 L-0.5 -79.2 M-5.2 -79.4 L-5.35 -79.1 -5.2 -78.75 -4.9 -78.6 -4.55 -78.75 -4.4 -79.1 -4.55 -79.4 -4.9 -79.55 -5.2 -79.4 M-3.7 -81.6 L-3.9 -81.1 -3.7 -80.6 -3.2 -80.4 -2.75 -80.6 -2.55 -81.1 -2.75 -81.6 -3.2 -81.8 -3.7 -81.6 M-4.5 -83.7 L-4.65 -84.0 -4.95 -84.15 -5.3 -84.0 -5.4 -83.7 -5.3 -83.35 -4.95 -83.2 -4.65 -83.35 Q-4.5 -83.5 -4.5 -83.7 M-1.6 -83.9 L-1.9 -84.55 Q-2.15 -84.8 -2.55 -84.8 L-3.2 -84.55 -3.45 -83.9 -3.2 -83.25 -2.55 -82.95 Q-2.15 -82.95 -1.9 -83.25 -1.6 -83.5 -1.6 -83.9 M-3.05 -87.65 L-3.55 -87.85 -4.0 -87.65 -4.2 -87.15 -4.0 -86.65 -3.55 -86.45 Q-3.25 -86.45 -3.05 -86.65 L-2.85 -87.15 -3.05 -87.65 M-3.65 -90.05 Q-3.35 -90.3 -3.35 -90.7 L-3.65 -91.35 -4.3 -91.6 -4.95 -91.35 -5.2 -90.7 -4.95 -90.05 Q-4.65 -89.75 -4.3 -89.75 -3.9 -89.75 -3.65 -90.05 M-6.75 -88.1 L-7.0 -87.45 -6.75 -86.8 Q-6.45 -86.5 -6.1 -86.5 -5.7 -86.5 -5.45 -86.8 -5.15 -87.05 -5.15 -87.45 L-5.45 -88.1 -6.1 -88.35 -6.75 -88.1 M-29.2 -82.5 Q-29.2 -81.7 -28.7 -81.2 -28.15 -80.65 -27.4 -80.65 -26.65 -80.65 -26.1 -81.2 -25.55 -81.7 -25.55 -82.5 -25.55 -83.25 -26.1 -83.8 -26.65 -84.3 -27.4 -84.3 -28.15 -84.3 -28.7 -83.8 -29.2 -83.25 -29.2 -82.5 M-10.2 -13.55 L-10.2 -13.6 -10.25 -13.55 -10.2 -13.55 M-27.7 -7.45 L-30.15 4.1 -27.7 -7.45" fill="#185abc" fill-rule="evenodd" stroke="none"/>
      <path d="M13.55 -98.3 L13.35 -98.35 13.4 -98.55 13.5 -98.55 13.55 -98.3" fill="#1e449d" fill-rule="evenodd" stroke="none"/>
      <path d="M20.05 -78.6 L21.65 -73.85 21.3 -73.7 Q17.1 -70.95 11.0 -72.55 12.55 -73.85 13.8 -75.7 L13.85 -75.75 Q15.5 -78.2 19.7 -78.55 L20.05 -78.6 M8.7 -51.95 Q18.15 -53.7 27.5 -57.25 L27.8 -56.25 28.05 -55.55 29.35 -51.95 17.75 -51.5 8.7 -51.95 M-36.1 -78.35 L-36.0 -78.55 Q-30.05 -75.4 -24.75 -75.45 -21.2 -75.45 -18.7 -74.15 L-18.6 -74.1 Q-17.0 -73.35 -15.8 -71.95 -27.25 -70.55 -36.9 -73.2 L-37.05 -73.25 -36.45 -76.45 -36.1 -78.35 M-40.3 -54.1 L-40.25 -54.6 -40.25 -54.65 -40.2 -54.75 Q-30.3 -51.85 -20.5 -50.8 -28.1 -48.65 -33.25 -48.45 -38.35 -48.25 -41.2 -48.55 L-40.3 -54.1" fill="#a35735" fill-rule="evenodd" stroke="none"/>
      <path d="M-39.75 -57.75 L-39.55 -58.95 -39.35 -60.3 -39.35 -60.35 -39.2 -61.3 -39.0 -62.5 -38.95 -62.6 -38.95 -62.8 -38.85 -63.4 -38.8 -63.65 -38.75 -63.85 -37.95 -63.65 Q-22.15 -59.1 -6.65 -59.75 L-6.6 -59.75 Q-6.05 -59.75 -5.6 -60.2 L-5.55 -60.25 Q-5.2 -60.75 -5.2 -61.3 -5.2 -61.95 -5.65 -62.3 -6.15 -62.75 -6.75 -62.75 L-23.85 -63.65 Q-30.95 -64.7 -38.15 -66.8 L-38.2 -66.85 -38.05 -67.6 -38.0 -67.8 -37.6 -70.25 Q-26.45 -67.25 -13.0 -69.3 L-12.95 -69.3 Q-2.8 -68.9 7.35 -70.55 16.6 -67.05 22.7 -70.95 L22.8 -70.65 22.95 -70.2 23.25 -69.4 23.25 -69.3 23.3 -69.15 Q12.9 -65.2 2.45 -63.65 L-0.65 -63.25 Q-1.25 -63.2 -1.65 -62.65 -2.1 -62.2 -2.0 -61.6 -1.95 -61.0 -1.4 -60.55 -0.95 -60.2 -0.35 -60.25 8.0 -61.2 16.35 -63.65 20.3 -64.8 24.3 -66.3 L25.25 -63.65 25.95 -61.65 26.05 -61.3 26.5 -60.05 26.4 -60.05 26.45 -60.05 23.4 -58.95 Q13.35 -55.45 3.2 -54.05 L3.15 -54.05 2.9 -54.05 -12.4 -53.3 -12.45 -53.3 -12.55 -53.3 Q-25.9 -53.7 -39.55 -57.7 L-39.75 -57.75" fill="#444444" fill-rule="evenodd" stroke="none"/>
      <path d="M-11.65 -126.8 L-11.2 -126.8 -9.75 -126.85 -8.6 -126.85 -7.95 -126.9 -3.4 -127.15 -2.9 -127.2 -2.65 -127.2 Q-4.0 -123.8 -6.3 -121.0 -8.95 -124.2 -11.65 -126.8" fill="#fff1dd" fill-rule="evenodd" stroke="none"/>
      <path d="M-30.15 4.1 L-30.35 4.9 M22.9 3.65 L20.25 -8.95 M-30.15 4.1 L-27.7 -7.45" fill="none" stroke="#000000" stroke-linecap="round" stroke-linejoin="round" stroke-width="2.0"/>
      <path d="M3.45 -62.0 Q3.7 -59.3 1.9 -57.15 0.1 -55.05 -2.65 -54.85 -5.4 -54.6 -7.45 -56.4 -9.55 -58.2 -9.8 -60.9 -10.0 -63.65 -8.25 -65.75 -6.5 -67.85 -3.75 -68.1 -1.0 -68.3 1.1 -66.5 3.25 -64.75 3.45 -62.0 M-0.85 -64.15 L-5.95 -63.7 -5.55 -58.65 -0.45 -59.1 -0.85 -64.15" fill="#eede55" fill-rule="evenodd" stroke="none"/>
      <path d="M3.45 -62.0 Q3.7 -59.3 1.9 -57.15 0.1 -55.05 -2.65 -54.85 -5.4 -54.6 -7.45 -56.4 -9.55 -58.2 -9.8 -60.9 -10.0 -63.65 -8.25 -65.75 -6.5 -67.85 -3.75 -68.1 -1.0 -68.3 1.1 -66.5 3.25 -64.75 3.45 -62.0 M-0.85 -64.15 L-0.45 -59.1 -5.55 -58.65 -5.95 -63.7 -0.85 -64.15" fill="none" stroke="#000000" stroke-linecap="round" stroke-linejoin="round" stroke-width="1.5"/>
      <path d="M-9.65 -64.35 L-5.25 -62.65 -4.7 -62.15 -4.7 -61.4 -5.15 -60.8 -5.8 -60.75 -10.25 -62.45 -10.75 -63.0 -10.8 -63.75 -10.35 -64.3 -9.65 -64.35 M2.9 -65.4 L3.6 -65.45 4.15 -65.0 4.25 -64.25 3.8 -63.65 -0.3 -61.2 -1.0 -61.15 -1.55 -61.65 Q-1.8 -62.0 -1.65 -62.4 L-1.2 -63.0 2.9 -65.4" fill="#ffffff" fill-rule="evenodd" stroke="none"/>
      <path d="M2.9 -65.4 L-1.2 -63.0 -1.65 -62.4 Q-1.8 -62.0 -1.55 -61.65 L-1.0 -61.15 -0.3 -61.2 3.8 -63.65 4.25 -64.25 4.15 -65.0 3.6 -65.45 2.9 -65.4 M-9.65 -64.35 L-10.35 -64.3 -10.8 -63.75 -10.75 -63.0 -10.25 -62.45 -5.8 -60.75 -5.15 -60.8 -4.7 -61.4 -4.7 -62.15 -5.25 -62.65 -9.65 -64.35" fill="none" stroke="#000000" stroke-linecap="round" stroke-linejoin="round" stroke-width="1.0"/>
      <path d="M-15.6 -78.35 Q-16.05 -78.3 -16.35 -78.55 -16.7 -78.8 -16.75 -79.2 L-16.55 -79.95 Q-14.05 -83.25 -8.05 -84.0 L-7.35 -83.8 Q-7.0 -83.55 -6.95 -83.1 -6.9 -82.7 -7.15 -82.4 -7.4 -82.05 -7.8 -82.0 -12.85 -81.35 -14.95 -78.7 L-15.6 -78.35 M-11.75 -97.25 Q-12.0 -96.9 -12.4 -96.85 -17.45 -96.2 -19.55 -93.55 -19.8 -93.25 -20.2 -93.2 L-20.95 -93.4 -21.35 -94.05 -21.15 -94.8 Q-18.65 -98.1 -12.65 -98.85 L-11.95 -98.65 Q-11.6 -98.4 -11.55 -97.95 -11.5 -97.55 -11.75 -97.25 M-10.0 -91.55 L-9.3 -91.35 Q-8.95 -91.1 -8.9 -90.65 -8.85 -90.25 -9.1 -89.95 L-9.75 -89.55 Q-14.8 -88.9 -16.9 -86.25 -17.15 -85.95 -17.55 -85.9 L-18.3 -86.1 -18.7 -86.75 -18.5 -87.5 Q-16.0 -90.8 -10.0 -91.55 M-27.95 -109.0 L-27.75 -109.75 Q-25.25 -113.05 -19.25 -113.8 L-18.55 -113.6 Q-18.2 -113.35 -18.15 -112.9 -18.1 -112.5 -18.35 -112.2 -18.6 -111.85 -19.0 -111.8 -24.05 -111.15 -26.15 -108.5 L-26.8 -108.15 Q-27.25 -108.1 -27.55 -108.35 -27.9 -108.6 -27.95 -109.0 M-22.65 -101.0 L-23.3 -100.65 Q-23.75 -100.6 -24.05 -100.85 L-24.45 -101.5 -24.25 -102.25 Q-21.75 -105.55 -15.75 -106.3 L-15.05 -106.1 Q-14.7 -105.85 -14.65 -105.4 -14.6 -105.0 -14.85 -104.7 -15.1 -104.35 -15.5 -104.3 -20.55 -103.65 -22.65 -101.0" fill="#ffffff" fill-rule="evenodd" stroke="none"/>
      <path d="M-17.2 -99.9 L-17.2 -100.7 -16.65 -101.2 Q-16.25 -101.4 -15.85 -101.2 L-15.3 -100.65 Q-14.1 -97.75 -15.2 -93.7 L-15.15 -93.8 -14.35 -93.95 Q-13.95 -93.9 -13.7 -93.6 -11.2 -90.35 -12.0 -84.35 L-12.05 -84.25 Q-10.1 -81.75 -9.5 -77.3 -9.45 -76.9 -9.7 -76.55 -9.95 -76.25 -10.4 -76.15 L-10.9 -76.25 -11.1 -76.4 -11.5 -77.05 -11.55 -77.3 Q-12.2 -82.1 -14.75 -84.15 L-15.15 -84.85 Q-15.25 -85.25 -14.95 -85.6 -14.7 -85.95 -14.3 -85.95 L-13.9 -85.95 Q-13.6 -90.0 -15.3 -92.35 L-15.5 -92.8 -16.05 -91.3 Q-16.25 -90.95 -16.6 -90.8 L-17.4 -90.75 -17.9 -91.3 Q-18.1 -91.75 -17.9 -92.1 -16.0 -96.8 -17.2 -99.9 M-20.95 -107.6 L-20.55 -108.25 -19.8 -108.45 Q-19.4 -108.4 -19.15 -108.05 -16.65 -104.8 -17.45 -98.8 -17.5 -98.4 -17.85 -98.15 -18.15 -97.9 -18.55 -97.95 L-19.2 -98.35 Q-19.5 -98.7 -19.45 -99.1 -18.75 -104.1 -20.75 -106.8 L-20.95 -107.6 M-25.25 -114.2 L-25.45 -114.95 -25.05 -115.6 -24.3 -115.8 -23.65 -115.4 Q-21.15 -112.2 -21.95 -106.2 L-22.3 -105.55 Q-22.65 -105.3 -23.1 -105.35 -23.5 -105.4 -23.75 -105.7 L-23.95 -106.45 Q-23.25 -111.5 -25.25 -114.2" fill="#ffffff" fill-rule="evenodd" stroke="none"/>
      <path d="M24.35 -5.1 L20.7 -6.2 17.3 -3.05 M16.7 -7.45 L20.7 -6.2 22.6 -8.05 M26.15 1.95 L21.7 0.5 18.2 2.85 M17.9 -0.7 L21.7 0.5 25.25 -1.9 M-25.35 -2.45 L-28.6 -4.85 -32.7 -3.35 M-31.8 -7.15 L-28.6 -4.85 -23.85 -6.6 M-26.5 3.1 L-29.7 1.05 -34.15 3.1 M-33.85 -1.6 L-29.7 1.05 -25.95 -0.7" fill="none" stroke="#ffffff" stroke-linecap="round" stroke-linejoin="round" stroke-width="1.0"/>
    </g>
  </defs>
</svg>
