<?xml version="1.0" encoding="UTF-8" standalone="no"?>
<svg xmlns:xlink="http://www.w3.org/1999/xlink" height="342.0px" width="237.9px" xmlns="http://www.w3.org/2000/svg">
  <g transform="matrix(1, 0, 0, 1, 118.05, 273.9)">
    <use height="150.35" transform="matrix(1.0, 0.0, 0.0, 1.0, -57.05, -138.6)" width="109.35" xlink:href="#shape0"/>
  </g>
  <defs>
    <g id="shape0" transform="matrix(1, 0, 0, 1, 57.05, 138.6)">
      <path d="M7.6 -125.1 L5.95 -123.8 7.6 -125.1 M5.95 -123.8 Q5.2 -126.9 5.15 -128.1 L-0.35 -127.4 -0.95 -127.35 -9.75 -126.85 -12.75 -126.8 -19.75 -127.2 -20.45 -127.25 -26.25 -128.3 -27.05 -124.05 -29.85 -108.95 -31.5 -100.5 -33.6 -90.8 -35.05 -83.95 -36.45 -76.45 -38.75 -63.85 -39.0 -62.5 -39.2 -61.3 -39.8 -57.5 -39.85 -57.15 -39.9 -56.85 -40.25 -54.65 -41.5 -46.5 -42.8 -37.8 -42.8 -37.75 -43.65 -31.45 -43.7 -31.5 -43.7 -31.45 -43.85 -30.4 -44.35 -26.8 -45.25 -20.95 -46.75 -10.0 -47.75 -10.55 Q-48.1 -8.4 -47.25 -6.95 -48.1 -8.4 -47.75 -10.55 L-46.75 -10.0 -47.2 -7.3 -47.25 -6.95 -48.05 -2.35 -49.1 2.3 Q-48.7 2.15 -43.8 3.4 L-21.25 4.2 20.3 4.0 Q49.1 0.1 46.05 -7.25 L44.3 -11.55 44.15 -11.85 41.85 -17.7 38.65 -26.05 38.25 -27.1 30.35 -49.1 30.35 -49.15 27.35 -57.65 27.0 -58.6 26.9 -58.9 26.8 -59.2 26.05 -61.3 24.7 -65.2 Q20.9 -75.95 18.25 -83.95 L16.6 -89.0 16.4 -89.5 14.0 -97.0 12.7 -101.0 10.1 -109.3 10.05 -109.45 Q7.1 -119.0 5.95 -123.8 M26.7 -67.4 L24.7 -65.2 26.7 -67.4 M29.1 -59.85 L27.0 -58.6 29.1 -59.85 M19.25 -101.0 L21.05 -94.9 21.05 -94.8 22.7 -89.5 22.85 -89.0 24.4 -83.95 Q27.0 -75.6 28.6 -71.25 L32.25 -61.3 41.4 -36.25 45.7 -24.5 47.9 -18.45 49.95 -12.9 51.6 -8.3 Q52.6 -4.7 52.2 -2.15 51.95 -0.55 51.2 0.6 49.2 3.6 44.15 6.0 32.15 11.75 -9.15 11.75 L-21.25 11.7 -50.65 10.55 Q-52.15 10.3 -54.55 7.85 L-56.6 5.65 -56.95 4.6 -57.0 4.3 Q-57.55 -0.6 -54.05 -21.6 L-53.85 -22.85 -52.65 -29.8 -52.55 -30.4 -52.05 -33.15 -46.95 -61.3 -42.8 -83.95 -41.8 -89.0 -40.2 -97.0 Q-34.85 -123.55 -32.05 -131.9 L-32.05 -138.6 Q-19.9 -134.55 -2.0 -134.55 L8.7 -135.45 16.65 -109.8 19.25 -101.0 M43.15 -19.5 Q42.25 -18.7 41.85 -17.7 42.25 -18.7 43.15 -19.5 M-28.3 -124.5 L-27.05 -124.05 -28.3 -124.5 M-41.25 -66.25 L-38.75 -63.85 -41.25 -66.25 M-42.0 -57.8 L-39.9 -56.85 -42.0 -57.8" fill="#000000" fill-rule="evenodd" stroke="none"/>
      <path d="M-0.35 -127.4 L5.15 -128.1 Q5.2 -126.9 5.95 -123.8 L4.05 -122.4 5.9 -117.15 0.4 -117.15 0.4 -111.9 -8.6 -117.8 -17.4 -111.65 -19.5 -117.5 -26.25 -117.5 -23.6 -122.8 -27.05 -124.05 -26.25 -128.3 -20.45 -127.25 Q-16.9 -119.1 -8.6 -117.8 -2.2 -121.0 -0.35 -127.4 M9.5 -102.8 L-2.3 -102.8 -2.3 -107.5 9.5 -107.5 9.5 -102.8" fill="#ffffff" fill-rule="evenodd" stroke="none"/>
      <path d="M5.95 -123.8 Q7.1 -119.0 10.05 -109.45 L10.1 -109.3 12.7 -101.0 14.0 -97.0 16.4 -89.5 16.6 -89.0 18.25 -83.95 Q20.9 -75.95 24.7 -65.2 16.0 -56.65 2.6 -55.9 -3.75 -60.15 -7.65 -65.9 L-15.2 -56.0 Q-29.8 -56.3 -38.75 -63.85 -29.8 -56.3 -15.2 -56.0 L-7.65 -65.9 Q-3.75 -60.15 2.6 -55.9 16.0 -56.65 24.7 -65.2 L26.05 -61.3 26.8 -59.2 26.9 -58.9 26.85 -58.85 27.0 -58.6 27.35 -57.65 30.35 -49.15 30.35 -49.1 38.25 -27.1 38.65 -26.05 41.85 -17.7 Q41.0 -15.8 42.05 -13.3 L37.25 -16.0 Q37.1 -12.1 38.4 -11.4 38.85 -11.15 39.25 -10.95 L40.3 -10.65 40.45 -10.55 Q42.6 -8.95 42.1 -4.9 L36.85 -7.85 Q38.9 -3.9 35.85 -1.8 32.9 -3.9 34.0 -7.8 L29.55 -4.5 Q28.6 -7.85 31.6 -10.05 L32.4 -10.6 Q34.0 -12.5 33.05 -16.15 L28.2 -12.55 Q29.75 -16.75 26.5 -18.4 23.85 -16.0 25.4 -12.2 L20.6 -14.95 Q20.0 -11.3 22.8 -9.8 L23.35 -9.6 23.4 -9.65 Q25.95 -7.9 25.45 -3.85 L20.15 -6.8 Q22.2 -2.85 19.2 -0.75 16.25 -2.85 17.3 -6.75 L12.9 -3.45 Q11.8 -7.15 14.05 -8.85 16.45 -10.75 15.4 -15.05 L10.55 -11.4 Q12.05 -15.6 8.8 -17.3 6.15 -14.85 7.7 -11.1 L2.85 -13.8 Q2.75 -9.85 4.05 -9.2 L4.9 -8.8 Q5.55 -8.5 5.95 -8.45 L6.05 -8.4 6.1 -8.35 Q8.25 -6.75 7.75 -2.7 L2.5 -5.65 Q4.55 -1.7 1.8 1.85 -1.45 -1.7 -0.35 -5.6 L-4.8 -2.3 Q-5.8 -5.65 -2.8 -7.85 L-1.95 -8.4 Q-0.35 -10.3 -1.3 -13.95 L-6.15 -10.35 Q-4.6 -14.55 -7.9 -16.2 -10.5 -13.8 -8.95 -10.0 L-13.8 -12.7 Q-14.35 -9.1 -11.55 -7.6 L-11.0 -7.4 Q-8.4 -5.7 -8.9 -1.65 L-14.15 -4.6 Q-12.1 -0.6 -15.15 1.5 -18.1 -0.65 -17.05 -4.55 L-21.5 -1.25 Q-22.5 -4.75 -21.15 -5.95 L-18.7 -8.15 Q-17.6 -9.2 -18.6 -12.85 L-23.45 -9.2 Q-21.9 -13.45 -25.2 -15.1 -27.85 -12.7 -26.3 -8.9 L-31.1 -11.65 Q-31.25 -7.7 -29.95 -7.0 -29.5 -6.75 -29.05 -6.6 L-28.05 -6.25 -27.85 -6.2 Q-25.7 -4.55 -26.25 -0.5 L-31.5 -3.5 Q-29.45 0.5 -32.5 2.6 -35.4 0.45 -34.35 -3.45 L-38.8 -0.15 Q-39.75 -3.45 -36.75 -5.7 L-35.95 -6.2 Q-34.35 -8.15 -35.25 -11.8 L-40.15 -8.15 Q-38.6 -12.35 -41.85 -14.05 -44.5 -11.6 -42.95 -7.85 L-46.75 -10.0 -45.25 -20.95 -44.35 -26.8 -43.85 -30.4 -43.7 -31.45 -43.65 -31.45 -42.8 -37.75 -42.8 -37.8 -41.5 -46.5 -40.25 -54.65 -39.9 -56.85 -39.85 -57.15 Q-4.05 -41.95 26.85 -58.85 -4.05 -41.95 -39.85 -57.15 L-39.8 -57.5 -39.2 -61.3 -39.0 -62.5 -38.75 -63.85 -36.45 -76.45 -35.05 -83.95 -33.6 -90.8 -31.5 -100.5 -29.85 -108.95 -27.05 -124.05 -23.6 -122.8 -26.25 -117.5 -19.5 -117.5 -17.4 -111.65 -8.6 -117.8 0.4 -111.9 0.4 -117.15 5.9 -117.15 4.05 -122.4 5.95 -123.8 M9.5 -102.8 L9.5 -107.5 -2.3 -107.5 -2.3 -102.8 9.5 -102.8 M-48.05 -2.35 L-47.25 -6.95 Q-46.7 -6.0 -45.55 -5.4 L-45.0 -5.25 Q-42.4 -3.5 -42.9 0.55 L-48.05 -2.35" fill="url(#gradient0)" fill-rule="evenodd" stroke="none"/>
      <path d="M26.9 -58.9 L27.0 -58.6 26.85 -58.85 26.9 -58.9 M-43.65 -31.45 L-43.7 -31.45 -43.7 -31.5 -43.65 -31.45" fill="#ce350f" fill-rule="evenodd" stroke="none"/>
      <path d="M-46.75 -10.0 L-42.95 -7.85 Q-44.5 -11.6 -41.85 -14.05 -38.6 -12.35 -40.15 -8.15 L-35.25 -11.8 Q-34.35 -8.15 -35.95 -6.2 L-36.75 -5.7 Q-39.75 -3.45 -38.8 -0.15 L-34.35 -3.45 Q-35.4 0.45 -32.5 2.6 -29.45 0.5 -31.5 -3.5 L-26.25 -0.5 Q-25.7 -4.55 -27.85 -6.2 L-27.9 -6.25 -28.1 -6.35 -29.1 -6.6 -29.05 -6.6 Q-29.5 -6.75 -29.95 -7.0 -31.25 -7.7 -31.1 -11.65 L-26.3 -8.9 Q-27.85 -12.7 -25.2 -15.1 -21.9 -13.45 -23.45 -9.2 L-18.6 -12.85 Q-17.6 -9.2 -18.7 -8.15 L-21.15 -5.95 Q-22.5 -4.75 -21.5 -1.25 L-17.05 -4.55 Q-18.1 -0.65 -15.15 1.5 -12.1 -0.6 -14.15 -4.6 L-8.9 -1.65 Q-8.4 -5.7 -11.0 -7.4 L-11.55 -7.6 Q-14.35 -9.1 -13.8 -12.7 L-8.95 -10.0 Q-10.5 -13.8 -7.9 -16.2 -4.6 -14.55 -6.15 -10.35 L-1.3 -13.95 Q-0.35 -10.3 -1.95 -8.4 L-2.8 -7.85 Q-5.8 -5.65 -4.8 -2.3 L-0.35 -5.6 Q-1.45 -1.7 1.8 1.85 4.55 -1.7 2.5 -5.65 L7.75 -2.7 Q8.25 -6.75 6.1 -8.35 L5.9 -8.5 4.85 -8.8 4.9 -8.8 4.05 -9.2 Q2.75 -9.85 2.85 -13.8 L7.7 -11.1 Q6.15 -14.85 8.8 -17.3 12.05 -15.6 10.55 -11.4 L15.4 -15.05 Q16.45 -10.75 14.05 -8.85 11.8 -7.15 12.9 -3.45 L17.3 -6.75 Q16.25 -2.85 19.2 -0.75 22.2 -2.85 20.15 -6.8 L25.45 -3.85 Q25.95 -7.9 23.4 -9.65 L23.35 -9.65 22.8 -9.8 Q20.0 -11.3 20.6 -14.95 L25.4 -12.2 Q23.85 -16.0 26.5 -18.4 29.75 -16.75 28.2 -12.55 L33.05 -16.15 Q34.0 -12.5 32.4 -10.6 L31.6 -10.05 Q28.6 -7.85 29.55 -4.5 L34.0 -7.8 Q32.9 -3.9 35.85 -1.8 38.9 -3.9 36.85 -7.85 L42.1 -4.9 Q42.6 -8.95 40.45 -10.55 L40.45 -10.6 40.25 -10.7 39.25 -11.0 39.25 -10.95 Q38.85 -11.15 38.4 -11.4 37.1 -12.1 37.25 -16.0 L42.05 -13.3 Q41.0 -15.8 41.85 -17.7 L44.15 -11.85 44.3 -11.55 46.05 -7.25 Q49.1 0.1 20.3 4.0 L-21.25 4.2 -43.8 3.4 Q-48.7 2.15 -49.1 2.3 L-48.05 -2.35 -42.9 0.55 Q-42.4 -3.5 -45.0 -5.25 L-45.55 -5.4 Q-46.7 -6.0 -47.25 -6.95 L-47.2 -7.3 -46.75 -10.0" fill="url(#gradient1)" fill-rule="evenodd" stroke="none"/>
      <path d="M23.4 -9.65 L23.35 -9.6 23.35 -9.65 23.4 -9.65" fill="url(#gradient2)" fill-rule="evenodd" stroke="none"/>
      <path d="M23.35 -9.6 L22.8 -9.8 23.35 -9.65 23.35 -9.6" fill="#f19941" fill-rule="evenodd" stroke="none"/>
      <path d="M-20.45 -127.25 L-19.75 -127.2 -12.75 -126.8 -9.75 -126.85 -0.95 -127.35 -0.35 -127.4 Q-2.2 -121.0 -8.6 -117.8 -16.9 -119.1 -20.45 -127.25" fill="#fff1dd" fill-rule="evenodd" stroke="none"/>
      <path d="M5.95 -123.8 L7.6 -125.1 M5.95 -123.8 L4.05 -122.4 5.9 -117.15 0.4 -117.15 0.4 -111.9 -8.6 -117.8 -17.4 -111.65 -19.5 -117.5 -26.25 -117.5 -23.6 -122.8 -27.05 -124.05 -28.3 -124.5 M9.5 -102.8 L-2.3 -102.8 -2.3 -107.5 9.5 -107.5 9.5 -102.8" fill="none" stroke="#000000" stroke-linecap="round" stroke-linejoin="round" stroke-width="3.0"/>
      <path d="M24.7 -65.2 L26.7 -67.4 M-38.75 -63.85 Q-29.8 -56.3 -15.2 -56.0 L-7.65 -65.9 Q-3.75 -60.15 2.6 -55.9 16.0 -56.65 24.7 -65.2 M27.0 -58.6 L29.1 -59.85 M26.85 -58.85 Q-4.05 -41.95 -39.85 -57.15 M26.85 -58.85 L26.9 -58.9 M-20.45 -127.25 Q-16.9 -119.1 -8.6 -117.8 -2.2 -121.0 -0.35 -127.4 M-39.9 -56.85 L-42.0 -57.8 M-38.75 -63.85 L-41.25 -66.25" fill="none" stroke="#000000" stroke-linecap="round" stroke-linejoin="round" stroke-width="4.0"/>
      <path d="M41.85 -17.7 Q42.25 -18.7 43.15 -19.5 M-46.75 -10.0 L-42.95 -7.85 Q-44.5 -11.6 -41.85 -14.05 -38.6 -12.35 -40.15 -8.15 L-35.25 -11.8 Q-34.35 -8.15 -35.95 -6.2 L-36.75 -5.7 Q-39.75 -3.45 -38.8 -0.15 L-34.35 -3.45 Q-35.4 0.45 -32.5 2.6 -29.45 0.5 -31.5 -3.5 L-26.25 -0.5 Q-25.7 -4.55 -27.85 -6.2 L-28.05 -6.25 -29.05 -6.6 Q-29.5 -6.75 -29.95 -7.0 -31.25 -7.7 -31.1 -11.65 L-26.3 -8.9 Q-27.85 -12.7 -25.2 -15.1 -21.9 -13.45 -23.45 -9.2 L-18.6 -12.85 Q-17.6 -9.2 -18.7 -8.15 L-21.15 -5.95 Q-22.5 -4.75 -21.5 -1.25 L-17.05 -4.55 Q-18.1 -0.65 -15.15 1.5 -12.1 -0.6 -14.15 -4.6 L-8.9 -1.65 Q-8.4 -5.7 -11.0 -7.4 L-11.55 -7.6 Q-14.35 -9.1 -13.8 -12.7 L-8.95 -10.0 Q-10.5 -13.8 -7.9 -16.2 -4.6 -14.55 -6.15 -10.35 L-1.3 -13.95 Q-0.35 -10.3 -1.95 -8.4 L-2.8 -7.85 Q-5.8 -5.65 -4.8 -2.3 L-0.35 -5.6 Q-1.45 -1.7 1.8 1.85 4.55 -1.7 2.5 -5.65 L7.75 -2.7 Q8.25 -6.75 6.1 -8.35 L6.05 -8.4 5.95 -8.45 Q5.55 -8.5 4.9 -8.8 L4.05 -9.2 Q2.75 -9.85 2.85 -13.8 L7.7 -11.1 Q6.15 -14.85 8.8 -17.3 12.05 -15.6 10.55 -11.4 L15.4 -15.05 Q16.45 -10.75 14.05 -8.85 11.8 -7.15 12.9 -3.45 L17.3 -6.75 Q16.25 -2.85 19.2 -0.75 22.2 -2.85 20.15 -6.8 L25.45 -3.85 Q25.95 -7.9 23.4 -9.65 L23.35 -9.65 23.35 -9.6 22.8 -9.8 Q20.0 -11.3 20.6 -14.95 L25.4 -12.2 Q23.85 -16.0 26.5 -18.4 29.75 -16.75 28.2 -12.55 L33.05 -16.15 Q34.0 -12.5 32.4 -10.6 L31.6 -10.05 Q28.6 -7.85 29.55 -4.5 L34.0 -7.8 Q32.9 -3.9 35.85 -1.8 38.9 -3.9 36.85 -7.85 L42.1 -4.9 Q42.6 -8.95 40.45 -10.55 L40.3 -10.65 39.25 -10.95 Q38.85 -11.15 38.4 -11.4 37.1 -12.1 37.25 -16.0 L42.05 -13.3 Q41.0 -15.8 41.85 -17.7 M-47.25 -6.95 Q-48.1 -8.4 -47.75 -10.55 L-46.75 -10.0 M-47.25 -6.95 Q-46.7 -6.0 -45.55 -5.4 L-45.0 -5.25 Q-42.4 -3.5 -42.9 0.55 L-48.05 -2.35 M6.05 -8.4 L5.9 -8.5 4.85 -8.8 5.15 -8.7 5.95 -8.45 M40.45 -10.55 L40.45 -10.6 40.3 -10.65 39.85 -10.8 39.5 -10.9 39.25 -11.0 M39.85 -10.8 L40.45 -10.6 40.25 -10.7 39.25 -11.0 M-28.05 -6.25 L-28.85 -6.5 -29.1 -6.6 M-27.9 -6.25 L-28.1 -6.35 -29.1 -6.6 M-27.85 -6.2 L-27.9 -6.25 -28.05 -6.25 M-27.9 -6.25 L-28.85 -6.5" fill="none" stroke="#010101" stroke-linecap="round" stroke-linejoin="round" stroke-opacity="0.0" stroke-width="2.0"/>
      <path d="M-6.45 -77.2 Q-6.35 -76.4 -6.85 -75.75 -7.3 -75.15 -8.1 -75.0 -8.9 -74.9 -9.55 -75.4 -10.15 -75.85 -10.25 -76.65 -10.4 -77.5 -9.95 -78.1 -9.45 -78.75 -8.65 -78.85 -7.8 -78.95 -7.2 -78.5 -6.6 -78.0 -6.45 -77.2" fill="#ffffff" fill-rule="evenodd" stroke="none"/>
      <path d="M-6.45 -77.2 Q-6.35 -76.4 -6.85 -75.75 -7.3 -75.15 -8.1 -75.0 -8.9 -74.9 -9.55 -75.4 -10.15 -75.85 -10.25 -76.65 -10.4 -77.5 -9.95 -78.1 -9.45 -78.75 -8.65 -78.85 -7.8 -78.95 -7.2 -78.5 -6.6 -78.0 -6.45 -77.2" fill="none" stroke="#000000" stroke-linecap="round" stroke-linejoin="round" stroke-width="1.5"/>
      <path d="M-7.5 -107.35 Q-7.4 -106.55 -7.9 -105.9 -8.35 -105.3 -9.15 -105.15 -9.95 -105.05 -10.6 -105.55 -11.2 -106.0 -11.3 -106.8 -11.45 -107.65 -11.0 -108.25 -10.5 -108.9 -9.7 -109.0 -8.85 -109.1 -8.25 -108.65 -7.65 -108.15 -7.5 -107.35" fill="#ffffff" fill-rule="evenodd" stroke="none"/>
      <path d="M-7.5 -107.35 Q-7.4 -106.55 -7.9 -105.9 -8.35 -105.3 -9.15 -105.15 -9.95 -105.05 -10.6 -105.55 -11.2 -106.0 -11.3 -106.8 -11.45 -107.65 -11.0 -108.25 -10.5 -108.9 -9.7 -109.0 -8.85 -109.1 -8.25 -108.65 -7.65 -108.15 -7.5 -107.35" fill="none" stroke="#000000" stroke-linecap="round" stroke-linejoin="round" stroke-width="1.5"/>
      <path d="M-7.15 -92.1 Q-7.05 -91.3 -7.55 -90.65 -8.0 -90.05 -8.8 -89.9 -9.6 -89.8 -10.25 -90.3 -10.85 -90.75 -10.95 -91.55 -11.1 -92.4 -10.65 -93.0 L-9.35 -93.75 Q-8.5 -93.85 -7.9 -93.4 -7.3 -92.9 -7.15 -92.1" fill="#ffffff" fill-rule="evenodd" stroke="none"/>
      <path d="M-7.15 -92.1 Q-7.05 -91.3 -7.55 -90.65 -8.0 -90.05 -8.8 -89.9 -9.6 -89.8 -10.25 -90.3 -10.85 -90.75 -10.95 -91.55 -11.1 -92.4 -10.65 -93.0 L-9.35 -93.75 Q-8.5 -93.85 -7.9 -93.4 -7.3 -92.9 -7.15 -92.1" fill="none" stroke="#000000" stroke-linecap="round" stroke-linejoin="round" stroke-width="1.5"/>
    </g>
    <linearGradient gradientTransform="matrix(1.0E-4, -0.0273, 0.0406, 1.0E-4, 3.5, -20.0)" gradientUnits="userSpaceOnUse" id="gradient0" spreadMethod="pad" x1="-819.2" x2="819.2">
      <stop offset="0.0" stop-color="#f19941"/>
      <stop offset="1.0" stop-color="#ce350f"/>
    </linearGradient>
    <linearGradient gradientTransform="matrix(0.0, 0.0129, -1.0, 0.0, -7.2, -7.1)" gradientUnits="userSpaceOnUse" id="gradient1" spreadMethod="pad" x1="-819.2" x2="819.2">
      <stop offset="0.0" stop-color="#f19941"/>
      <stop offset="1.0" stop-color="#f44a02"/>
    </linearGradient>
    <linearGradient gradientTransform="matrix(0.0, -0.0649, 1.0, 0.0, 25.8, -47.95)" gradientUnits="userSpaceOnUse" id="gradient2" spreadMethod="pad" x1="-819.2" x2="819.2">
      <stop offset="0.0" stop-color="#ce350f"/>
      <stop offset="1.0" stop-color="#f7ac00"/>
    </linearGradient>
  </defs>
</svg>
