<?xml version="1.0" encoding="UTF-8" standalone="no"?>
<svg xmlns:xlink="http://www.w3.org/1999/xlink" height="342.0px" width="237.9px" xmlns="http://www.w3.org/2000/svg">
  <g transform="matrix(1, 0, 0, 1, 118.05, 273.9)">
    <use height="150.35" transform="matrix(1.0, 0.0, 0.0, 1.0, -57.05, -138.6)" width="109.35" xlink:href="#shape0"/>
  </g>
  <defs>
    <g id="shape0" transform="matrix(1, 0, 0, 1, 57.05, 138.6)">
      <path d="M11.95 -125.5 L16.65 -109.8 19.25 -101.0 21.05 -94.9 21.05 -94.8 22.7 -89.5 22.85 -89.0 24.4 -83.95 Q27.0 -75.6 28.6 -71.25 L32.25 -61.3 41.4 -36.25 45.7 -24.5 47.9 -18.45 49.95 -12.9 51.6 -8.3 Q52.6 -4.7 52.2 -2.15 51.95 -0.55 51.2 0.6 49.2 3.6 44.15 6.0 32.15 11.75 -9.15 11.75 L-21.25 11.7 -50.65 10.55 Q-52.15 10.3 -54.55 7.85 L-56.6 5.65 -56.95 4.6 -57.0 4.3 Q-57.55 -0.6 -54.05 -21.6 L-53.85 -22.85 -52.65 -29.8 -52.55 -30.4 -52.05 -33.15 -46.95 -61.3 -42.8 -83.95 -41.8 -89.0 -40.2 -97.0 Q-34.85 -123.55 -32.05 -131.9 L-32.05 -138.6 Q-19.9 -134.55 -2.0 -134.55 L7.0 -135.2 8.2 -135.4 11.8 -126.0 11.95 -125.5 M5.55 -125.65 L5.15 -128.05 5.15 -128.1 -0.95 -127.35 -2.55 -127.2 -9.75 -126.85 -12.75 -126.8 -19.0 -127.1 -19.75 -127.2 -24.15 -127.85 -26.2 -128.3 -26.25 -128.3 -27.1 -123.8 -28.1 -118.2 -29.7 -109.8 -29.85 -108.95 -31.5 -100.5 -31.5 -100.45 -33.6 -90.8 -33.65 -90.65 -34.65 -89.85 -33.75 -90.2 -34.65 -89.85 -33.65 -90.65 -33.75 -90.2 -35.05 -83.95 -35.85 -79.7 -36.45 -76.45 -38.8 -63.55 -39.0 -62.5 -39.2 -61.3 -39.9 -56.95 -40.15 -55.2 -40.25 -54.65 -40.8 -50.9 -31.3 -53.6 -31.15 -53.65 -31.1 -53.65 -31.0 -53.65 -18.15 -56.4 -17.1 -56.6 -16.8 -56.65 Q-4.55 -58.65 7.55 -58.6 L7.6 -58.6 21.2 -58.0 21.3 -58.0 27.45 -57.25 27.35 -57.65 26.05 -61.3 25.3 -63.45 24.85 -64.7 18.25 -83.95 17.95 -84.85 16.6 -89.0 16.4 -89.5 15.15 -93.35 14.0 -97.0 13.0 -100.05 12.7 -101.0 10.1 -109.3 10.05 -109.45 9.7 -110.55 6.4 -122.05 6.15 -123.1 6.0 -123.65 5.55 -125.65 M-14.2 -54.0 L-15.2 -53.85 -16.35 -14.5 -8.5 -9.45 -8.5 -15.85 -8.05 -16.9 Q-7.6 -17.35 -7.0 -17.35 L5.05 -17.35 Q5.65 -17.35 6.1 -16.9 L6.55 -15.85 6.55 -10.45 12.15 -15.8 6.3 -55.6 5.3 -55.6 Q-4.4 -55.5 -14.2 -54.0 M19.85 -55.1 L9.3 -55.6 15.25 -15.45 15.2 -14.75 14.8 -14.15 6.1 -5.85 Q5.65 -5.45 5.05 -5.45 4.4 -5.45 4.0 -5.9 3.55 -6.35 3.55 -6.95 L3.55 -14.35 0.55 -14.35 0.55 4.15 20.3 4.0 Q49.1 0.1 46.05 -7.25 L44.3 -11.55 44.15 -11.85 40.6 -20.95 36.3 -12.4 35.5 -11.7 Q34.95 -11.5 34.4 -11.7 33.85 -11.9 33.6 -12.4 23.85 -31.85 19.85 -55.1 M23.95 -54.7 L22.9 -54.8 Q26.6 -34.1 35.0 -16.5 L39.1 -24.8 38.75 -25.75 38.65 -26.05 38.25 -27.1 30.35 -49.1 30.35 -49.15 28.6 -54.1 27.8 -54.2 23.95 -54.7 M-45.45 -19.35 L-45.6 -18.35 -42.5 -14.9 Q-34.75 -31.2 -32.45 -50.2 L-33.5 -49.9 -40.6 -47.8 -41.3 -47.55 -41.5 -46.5 -42.8 -37.8 -42.8 -37.75 -43.65 -31.45 -43.7 -31.5 -43.7 -31.45 -43.85 -30.4 -44.35 -26.8 -45.25 -20.95 -45.45 -19.35 M-18.25 -53.35 L-29.35 -51.0 Q-31.7 -29.65 -40.8 -11.55 L-41.5 -10.9 -42.4 -10.75 Q-42.95 -10.85 -43.25 -11.25 L-46.1 -14.45 -47.2 -7.3 -48.05 -2.35 -49.1 2.3 Q-48.7 2.15 -43.8 3.4 L-21.25 4.2 -2.45 4.15 -2.45 -14.35 -5.5 -14.35 -5.5 -6.75 Q-5.5 -6.2 -5.85 -5.75 -6.25 -5.35 -6.75 -5.25 -7.35 -5.2 -7.8 -5.5 L-18.7 -12.5 Q-19.05 -12.7 -19.2 -13.05 L-19.4 -13.8 -18.25 -53.35" fill="#000000" fill-rule="evenodd" stroke="none"/>
      <path d="M-2.55 -127.2 L-0.95 -127.35 5.15 -128.1 5.15 -128.05 5.55 -125.65 -3.0 -125.0 -3.05 -125.0 -3.25 -125.0 -3.95 -124.7 -4.25 -124.0 -3.95 -123.3 -3.75 -123.15 -0.85 -114.25 -10.8 -114.45 -8.65 -117.5 -10.8 -114.45 -11.45 -114.5 -12.05 -114.3 -12.45 -113.8 -12.45 -113.2 -12.25 -112.55 -13.45 -111.0 -13.0 -120.05 -12.85 -120.3 -12.7 -120.45 -8.65 -117.5 Q-6.2 -121.05 -4.0 -124.75 L-2.55 -127.2 M6.0 -123.65 L6.15 -123.1 6.4 -122.05 9.7 -110.55 10.05 -109.45 10.1 -109.3 12.7 -101.0 13.0 -100.05 14.0 -97.0 15.15 -93.35 Q1.95 -97.05 -11.85 -95.6 L-7.25 -100.55 Q-2.4 -106.25 1.55 -112.85 -2.4 -106.25 -7.25 -100.55 L-11.85 -95.6 -19.25 -94.45 -19.3 -94.6 -21.5 -99.8 -7.95 -100.5 Q-7.65 -100.5 -7.4 -100.7 L-7.05 -101.2 -7.05 -101.75 -10.15 -112.45 0.5 -112.25 1.1 -112.4 1.45 -112.9 1.45 -113.55 -1.65 -123.1 6.0 -123.65 M-33.65 -90.65 L-33.6 -90.8 -33.5 -90.75 Q-28.3 -95.05 -23.6 -99.65 L-21.25 -94.05 Q-27.45 -92.65 -33.75 -90.2 L-33.65 -90.65 -33.5 -90.75 -33.65 -90.65 M-28.1 -118.2 L-27.1 -123.8 -26.25 -128.3 -26.2 -128.3 -25.75 -117.05 -26.1 -116.9 -26.65 -116.4 -26.7 -116.35 -28.1 -118.2 M-24.15 -127.85 L-19.75 -127.2 -19.0 -127.1 Q-17.25 -124.5 -14.55 -122.05 L-14.7 -121.95 -15.0 -121.3 -23.8 -117.85 -24.15 -127.85 M0.25 -120.9 Q0.25 -120.35 0.65 -119.95 1.05 -119.55 1.65 -119.5 2.25 -119.55 2.65 -119.95 3.05 -120.35 3.05 -120.9 3.05 -121.5 2.65 -121.9 2.25 -122.3 1.65 -122.3 1.05 -122.3 0.65 -121.9 0.25 -121.5 0.25 -120.9 M1.55 -112.85 L1.45 -112.9 1.55 -112.85 Q4.2 -117.25 6.4 -122.05 4.2 -117.25 1.55 -112.85 M19.85 -55.1 Q23.85 -31.85 33.6 -12.4 33.85 -11.9 34.4 -11.7 34.95 -11.5 35.5 -11.7 L36.3 -12.4 40.6 -20.95 44.15 -11.85 44.3 -11.55 46.05 -7.25 Q49.1 0.1 20.3 4.0 L0.55 4.15 0.55 -14.35 3.55 -14.35 3.55 -6.95 Q3.55 -6.35 4.0 -5.9 4.4 -5.45 5.05 -5.45 5.65 -5.45 6.1 -5.85 L14.8 -14.15 15.2 -14.75 15.25 -15.45 9.3 -55.6 19.85 -55.1 M-21.1 -124.3 Q-21.7 -124.3 -22.1 -123.9 -22.5 -123.5 -22.5 -122.9 -22.5 -122.35 -22.1 -121.95 -21.7 -121.55 -21.1 -121.5 -20.5 -121.55 -20.1 -121.95 -19.7 -122.35 -19.7 -122.9 -19.7 -123.5 -20.1 -123.9 -20.5 -124.3 -21.1 -124.3 M-25.35 -115.05 L-24.45 -115.45 -24.4 -115.45 -24.35 -115.45 -24.3 -115.5 -15.05 -119.15 -15.5 -110.3 -15.25 -109.55 -14.8 -109.3 -14.55 -109.25 Q-14.15 -109.25 -13.8 -109.5 -13.5 -109.8 -13.5 -110.2 L-13.45 -111.0 -12.25 -112.55 -9.3 -102.4 -21.5 -101.8 -15.45 -108.5 Q-21.5 -111.0 -25.45 -114.95 L-25.35 -115.05 M-3.35 -117.9 Q-3.75 -118.3 -4.35 -118.3 -4.95 -118.3 -5.35 -117.9 -5.75 -117.5 -5.75 -116.9 -5.75 -116.35 -5.35 -115.95 -4.95 -115.55 -4.35 -115.5 -3.75 -115.55 -3.35 -115.95 -2.95 -116.35 -2.95 -116.9 -2.95 -117.5 -3.35 -117.9 M-16.7 -114.65 Q-16.7 -115.25 -17.1 -115.65 -17.5 -116.05 -18.1 -116.05 -18.7 -116.05 -19.1 -115.65 -19.5 -115.25 -19.5 -114.65 -19.5 -114.1 -19.1 -113.7 -18.7 -113.3 -18.1 -113.25 -17.5 -113.3 -17.1 -113.7 -16.7 -114.1 -16.7 -114.65 M-12.1 -105.65 Q-12.5 -106.05 -13.1 -106.05 -13.7 -106.05 -14.1 -105.65 -14.5 -105.25 -14.5 -104.65 -14.5 -104.1 -14.1 -103.7 -13.7 -103.3 -13.1 -103.25 -12.5 -103.3 -12.1 -103.7 -11.7 -104.1 -11.7 -104.65 -11.7 -105.25 -12.1 -105.65 M-15.45 -108.5 L-14.8 -109.3 -15.45 -108.5 M-4.6 -108.2 Q-4.2 -108.6 -4.2 -109.15 -4.2 -109.75 -4.6 -110.15 -5.0 -110.55 -5.6 -110.55 -6.2 -110.55 -6.6 -110.15 -7.0 -109.75 -7.0 -109.15 -7.0 -108.6 -6.6 -108.2 -6.2 -107.8 -5.6 -107.75 -5.0 -107.8 -4.6 -108.2 M-16.6 -98.55 Q-17.2 -98.55 -17.6 -98.15 -18.0 -97.75 -18.0 -97.15 -18.0 -96.6 -17.6 -96.2 -17.2 -95.8 -16.6 -95.75 -16.0 -95.8 -15.6 -96.2 -15.2 -96.6 -15.2 -97.15 -15.2 -97.75 -15.6 -98.15 -16.0 -98.55 -16.6 -98.55 M-18.25 -53.35 L-19.4 -13.8 -19.2 -13.05 Q-19.05 -12.7 -18.7 -12.5 L-7.8 -5.5 Q-7.35 -5.2 -6.75 -5.25 -6.25 -5.35 -5.85 -5.75 -5.5 -6.2 -5.5 -6.75 L-5.5 -14.35 -2.45 -14.35 -2.45 4.15 -21.25 4.2 -43.8 3.4 Q-48.7 2.15 -49.1 2.3 L-48.05 -2.35 -47.2 -7.3 -46.1 -14.45 -43.25 -11.25 Q-42.95 -10.85 -42.4 -10.75 L-41.5 -10.9 -40.8 -11.55 Q-31.7 -29.65 -29.35 -51.0 L-18.25 -53.35" fill="#6e7daa" fill-rule="evenodd" stroke="none"/>
      <path d="M-10.8 -114.45 L-0.85 -114.25 -3.75 -123.15 -3.95 -123.3 -4.25 -124.0 -3.95 -124.7 -3.25 -125.0 -3.05 -125.0 -3.0 -125.0 5.55 -125.65 6.0 -123.65 -1.65 -123.1 1.45 -113.55 1.45 -112.9 1.1 -112.4 0.5 -112.25 -10.15 -112.45 -7.05 -101.75 -7.05 -101.2 -7.4 -100.7 Q-7.65 -100.5 -7.95 -100.5 L-21.5 -99.8 -19.3 -94.6 -19.25 -94.45 -11.85 -95.6 Q1.95 -97.05 15.15 -93.35 L16.4 -89.5 16.6 -89.0 17.95 -84.85 Q12.15 -86.2 5.55 -87.0 5.55 -82.3 2.35 -79.6 -0.5 -77.2 -4.95 -77.1 -9.25 -76.95 -12.85 -79.0 -16.75 -81.2 -18.0 -84.95 L-35.85 -79.7 -35.05 -83.95 -33.75 -90.2 Q-27.45 -92.65 -21.25 -94.05 L-23.6 -99.65 -21.5 -101.8 -9.3 -102.4 -12.25 -112.55 -12.45 -113.2 -12.45 -113.8 -12.05 -114.3 -11.45 -114.5 -10.8 -114.45 -12.25 -112.55 -10.8 -114.45 M25.3 -63.45 L26.05 -61.3 27.35 -57.65 27.45 -57.25 21.3 -58.0 21.2 -58.0 7.6 -58.6 7.55 -58.6 Q-4.55 -58.65 -16.8 -56.65 L-17.1 -56.6 -18.15 -56.4 -31.0 -53.65 -31.1 -53.65 -31.15 -53.65 -31.3 -53.6 -40.8 -50.9 -40.25 -54.65 -40.15 -55.2 -39.9 -56.95 Q-9.05 -70.65 25.3 -63.45 M-26.2 -128.3 L-24.15 -127.85 -23.8 -117.85 -15.0 -121.3 -14.7 -121.95 -14.55 -122.05 -12.75 -120.5 -12.85 -120.3 -13.0 -120.05 -13.45 -111.0 -14.8 -109.3 -13.45 -111.0 -13.5 -110.2 Q-13.5 -109.8 -13.8 -109.5 -14.15 -109.25 -14.55 -109.25 L-14.8 -109.3 -15.25 -109.55 -15.5 -110.3 -15.05 -119.15 -24.3 -115.5 -24.35 -115.45 -24.4 -115.45 -24.45 -115.45 -25.35 -115.05 -25.5 -115.0 -26.7 -116.35 -26.65 -116.4 -26.1 -116.9 -25.75 -117.05 -26.2 -128.3 M0.25 -120.9 Q0.25 -121.5 0.65 -121.9 1.05 -122.3 1.65 -122.3 2.25 -122.3 2.65 -121.9 3.05 -121.5 3.05 -120.9 3.05 -120.35 2.65 -119.95 2.25 -119.55 1.65 -119.5 1.05 -119.55 0.65 -119.95 0.25 -120.35 0.25 -120.9 M-14.2 -54.0 L-14.2 -53.8 -15.3 -15.05 -9.5 -11.3 -9.5 -15.85 Q-9.5 -16.85 -8.75 -17.6 -8.0 -18.35 -7.0 -18.35 L5.05 -18.35 Q6.05 -18.35 6.8 -17.6 7.55 -16.85 7.55 -15.85 L7.55 -12.8 11.1 -16.15 5.3 -55.45 5.3 -55.6 6.3 -55.6 12.15 -15.8 6.55 -10.45 6.55 -15.85 6.1 -16.9 Q5.65 -17.35 5.05 -17.35 L-7.0 -17.35 Q-7.6 -17.35 -8.05 -16.9 L-8.5 -15.85 -8.5 -9.45 -16.35 -14.5 -15.2 -53.85 -14.2 -54.0 M38.75 -25.75 L39.1 -24.8 35.0 -16.5 Q26.6 -34.1 22.9 -54.8 L23.95 -54.7 Q27.4 -35.4 35.05 -18.8 L38.2 -25.25 Q38.4 -25.6 38.75 -25.75 M-21.1 -124.3 Q-20.5 -124.3 -20.1 -123.9 -19.7 -123.5 -19.7 -122.9 -19.7 -122.35 -20.1 -121.95 -20.5 -121.55 -21.1 -121.5 -21.7 -121.55 -22.1 -121.95 -22.5 -122.35 -22.5 -122.9 -22.5 -123.5 -22.1 -123.9 -21.7 -124.3 -21.1 -124.3 M-3.35 -117.9 Q-2.95 -117.5 -2.95 -116.9 -2.95 -116.35 -3.35 -115.95 -3.75 -115.55 -4.35 -115.5 -4.95 -115.55 -5.35 -115.95 -5.75 -116.35 -5.75 -116.9 -5.75 -117.5 -5.35 -117.9 -4.95 -118.3 -4.35 -118.3 -3.75 -118.3 -3.35 -117.9 M-16.7 -114.65 Q-16.7 -114.1 -17.1 -113.7 -17.5 -113.3 -18.1 -113.25 -18.7 -113.3 -19.1 -113.7 -19.5 -114.1 -19.5 -114.65 -19.5 -115.25 -19.1 -115.65 -18.7 -116.05 -18.1 -116.05 -17.5 -116.05 -17.1 -115.65 -16.7 -115.25 -16.7 -114.65 M-12.1 -105.65 Q-11.7 -105.25 -11.7 -104.65 -11.7 -104.1 -12.1 -103.7 -12.5 -103.3 -13.1 -103.25 -13.7 -103.3 -14.1 -103.7 -14.5 -104.1 -14.5 -104.65 -14.5 -105.25 -14.1 -105.65 -13.7 -106.05 -13.1 -106.05 -12.5 -106.05 -12.1 -105.65 M-4.6 -108.2 Q-5.0 -107.8 -5.6 -107.75 -6.2 -107.8 -6.6 -108.2 -7.0 -108.6 -7.0 -109.15 -7.0 -109.75 -6.6 -110.15 -6.2 -110.55 -5.6 -110.55 -5.0 -110.55 -4.6 -110.15 -4.2 -109.75 -4.2 -109.15 -4.2 -108.6 -4.6 -108.2 M-16.6 -98.55 Q-16.0 -98.55 -15.6 -98.15 -15.2 -97.75 -15.2 -97.15 -15.2 -96.6 -15.6 -96.2 -16.0 -95.8 -16.6 -95.75 -17.2 -95.8 -17.6 -96.2 -18.0 -96.6 -18.0 -97.15 -18.0 -97.75 -17.6 -98.15 -17.2 -98.55 -16.6 -98.55 M-19.25 -94.45 L-21.25 -94.05 -19.25 -94.45 M-33.5 -49.9 L-32.45 -50.2 Q-34.75 -31.2 -42.5 -14.9 L-45.6 -18.35 -45.45 -19.35 -44.85 -19.0 -42.75 -16.7 Q-35.7 -32.1 -33.5 -49.9" fill="#ffffff" fill-rule="evenodd" stroke="none"/>
      <path d="M-2.55 -127.2 L-4.0 -124.75 Q-6.2 -121.05 -8.65 -117.5 L-12.7 -120.45 -12.75 -120.5 -14.55 -122.05 Q-17.25 -124.5 -19.0 -127.1 L-12.75 -126.8 -9.75 -126.85 -2.55 -127.2 M17.95 -84.85 L18.25 -83.95 24.85 -64.7 25.3 -63.45 Q-9.05 -70.65 -39.9 -56.95 L-39.2 -61.3 -39.0 -62.5 -38.8 -63.55 -36.45 -76.45 -35.85 -79.7 -18.0 -84.95 Q-16.75 -81.2 -12.85 -79.0 -9.25 -76.95 -4.95 -77.1 -0.5 -77.2 2.35 -79.6 5.55 -82.3 5.55 -87.0 12.15 -86.2 17.95 -84.85 M-33.6 -90.8 L-31.5 -100.45 -31.5 -100.5 -29.85 -108.95 -29.7 -109.8 -28.1 -118.2 -26.7 -116.35 -25.5 -115.0 -25.45 -114.95 Q-21.5 -111.0 -15.45 -108.5 L-21.5 -101.8 -23.6 -99.65 Q-28.3 -95.05 -33.5 -90.75 L-33.6 -90.8 M5.3 -55.6 L5.3 -55.45 11.1 -16.15 7.55 -12.8 7.55 -15.85 Q7.55 -16.85 6.8 -17.6 6.05 -18.35 5.05 -18.35 L-7.0 -18.35 Q-8.0 -18.35 -8.75 -17.6 -9.5 -16.85 -9.5 -15.85 L-9.5 -11.3 -15.3 -15.05 -14.2 -53.8 -14.2 -54.0 Q-4.4 -55.5 5.3 -55.6 M23.95 -54.7 L27.8 -54.2 28.6 -54.1 30.35 -49.15 30.35 -49.1 38.25 -27.1 38.65 -26.05 38.75 -25.75 Q38.4 -25.6 38.2 -25.25 L35.05 -18.8 Q27.4 -35.4 23.95 -54.7 M-45.45 -19.35 L-45.25 -20.95 -44.35 -26.8 -43.85 -30.4 -43.7 -31.45 -43.7 -31.5 -43.65 -31.45 -42.8 -37.75 -42.8 -37.8 -41.5 -46.5 -41.3 -47.55 -40.6 -47.8 -33.5 -49.9 Q-35.7 -32.1 -42.75 -16.7 L-44.85 -19.0 -45.45 -19.35" fill="#4b3219" fill-rule="evenodd" stroke="none"/>
      <path d="M-2.55 -127.2 L-4.0 -124.75 Q-6.2 -121.05 -8.65 -117.5 L-10.8 -114.45 M-33.75 -90.2 L-34.65 -89.85 -33.65 -90.65 -33.5 -90.75 Q-28.3 -95.05 -23.6 -99.65 L-21.5 -101.8 -15.45 -108.5 M1.55 -112.85 Q4.2 -117.25 6.4 -122.05 M1.55 -112.85 Q-2.4 -106.25 -7.25 -100.55 L-11.85 -95.6 Q1.95 -97.05 15.15 -93.35 M17.95 -84.85 Q12.15 -86.2 5.55 -87.0 5.55 -82.3 2.35 -79.6 -0.5 -77.2 -4.95 -77.1 -9.25 -76.95 -12.85 -79.0 -16.75 -81.2 -18.0 -84.95 L-35.85 -79.7 M-14.8 -109.3 L-13.45 -111.0 M-12.75 -120.5 L-14.55 -122.05 M-12.75 -120.5 L-12.7 -120.45 -8.65 -117.5 M-12.25 -112.55 L-10.8 -114.45 M-14.8 -109.3 L-15.45 -108.5 M-12.25 -112.55 L-13.45 -111.0 M-19.0 -127.1 Q-17.25 -124.5 -14.55 -122.05 M-19.25 -94.45 L-11.85 -95.6 M-21.25 -94.05 L-19.25 -94.45 M-33.75 -90.2 Q-27.45 -92.65 -21.25 -94.05 M25.3 -63.45 Q-9.05 -70.65 -39.9 -56.95" fill="none" stroke="#000000" stroke-linecap="round" stroke-linejoin="round" stroke-width="3.0"/>
      <path d="M-26.7 -116.35 L-25.5 -115.0 -25.45 -114.95 M-26.7 -116.35 L-28.1 -118.2 M-15.45 -108.5 Q-21.5 -111.0 -25.45 -114.95" fill="none" stroke="#000000" stroke-linecap="round" stroke-linejoin="round" stroke-width="3.0"/>
      <path d="M-8.45 -35.9 L3.3 -36.4 3.35 -35.1 -8.4 -34.6 -8.45 -35.9 M-2.4 -34.25 Q-1.3 -34.25 -0.45 -33.5 0.4 -32.65 0.5 -31.45 0.5 -30.3 -0.3 -29.45 -1.05 -28.6 -2.2 -28.5 -3.75 -28.45 -4.65 -27.4 -5.6 -26.35 -5.55 -24.9 -5.55 -23.6 -4.65 -22.7 L-6.3 -23.8 Q-8.15 -25.5 -8.25 -27.95 -8.35 -30.45 -6.65 -32.3 -5.1 -34.0 -2.9 -34.2 L-2.5 -34.25 -2.4 -34.25 M-1.7 -32.6 L-1.75 -32.6 -2.4 -32.8 Q-2.8 -32.85 -3.1 -32.5 -3.4 -32.25 -3.35 -31.85 L-3.05 -31.15 -2.35 -30.9 Q-2.0 -30.9 -1.7 -31.25 L-1.65 -31.25 Q-1.4 -31.55 -1.45 -31.95 L-1.7 -32.6 M0.2 -29.0 Q1.15 -30.1 1.1 -31.5 1.05 -32.9 0.15 -33.8 L1.8 -32.6 Q3.6 -30.95 3.7 -28.45 3.8 -26.0 2.15 -24.15 L2.15 -24.1 Q0.5 -22.35 -1.9 -22.2 L-2.0 -22.2 -2.05 -22.2 -2.55 -22.25 -3.1 -22.35 -4.05 -22.9 Q-4.9 -23.75 -4.95 -24.95 -5.0 -26.1 -4.2 -26.95 -3.4 -27.8 -2.2 -27.9 -0.8 -27.95 0.2 -29.0 M-2.8 -25.2 L-3.05 -24.5 -2.75 -23.85 -2.75 -23.8 -2.05 -23.6 Q-1.7 -23.6 -1.4 -23.9 L-1.35 -23.95 -1.15 -24.6 -1.4 -25.3 -1.45 -25.3 -2.15 -25.5 Q-2.55 -25.55 -2.8 -25.2 M-7.85 -21.3 L3.9 -21.8 3.95 -20.45 -7.8 -19.95 -7.85 -21.3" fill="#ffffff" fill-rule="evenodd" stroke="none"/>
      <path d="M-2.95 -50.9 Q-3.55 -50.9 -3.9 -50.5 L-3.95 -50.5 Q-4.35 -50.1 -4.35 -49.5 -4.35 -48.9 -3.95 -48.5 L-3.9 -48.45 Q-3.55 -48.1 -2.95 -48.1 -2.4 -48.1 -1.95 -48.45 L-1.95 -48.5 Q-1.6 -48.9 -1.55 -49.45 L-1.55 -49.5 -1.55 -49.55 Q-1.6 -50.1 -1.95 -50.5 -2.4 -50.9 -2.95 -50.9 M0.45 -49.55 L0.45 -49.45 Q0.4 -48.1 -0.5 -47.1 L-0.55 -47.1 Q-1.55 -46.1 -2.95 -46.1 -4.45 -46.1 -5.35 -47.1 -6.35 -48.1 -6.35 -49.5 -6.35 -50.9 -5.35 -51.85 L-5.35 -51.9 Q-4.45 -52.9 -2.95 -52.9 -1.55 -52.9 -0.55 -51.9 L-0.5 -51.85 Q0.35 -50.9 0.45 -49.55" fill="#ffffff" fill-rule="evenodd" stroke="none"/>
      <path d="M-37.05 -64.55 L-38.95 -65.15 -38.85 -68.95 -35.9 -68.4 Q-31.65 -67.2 -23.65 -67.75 L-21.65 -67.85 -21.35 -63.9 -23.35 -63.75 Q-32.25 -63.1 -37.05 -64.55 M-17.4 -95.1 L-14.65 -78.4 -18.55 -77.65 -22.1 -94.55 -17.4 -95.1 M23.65 -70.8 L25.1 -66.6 14.35 -62.65 12.95 -66.4 23.65 -70.8 M5.3 -96.0 L9.75 -94.95 7.45 -78.25 3.5 -78.8 5.3 -96.0" fill="#b48250" fill-rule="evenodd" stroke="none"/>
      <path d="M5.3 -96.0 L3.5 -78.8 7.45 -78.25 9.75 -94.95 5.3 -96.0 M23.65 -70.8 L12.95 -66.4 14.35 -62.65 25.1 -66.6 23.65 -70.8 M-17.4 -95.1 L-22.1 -94.55 -18.55 -77.65 -14.65 -78.4 -17.4 -95.1 M-37.05 -64.55 Q-32.25 -63.1 -23.35 -63.75 L-21.35 -63.9 -21.65 -67.85 -23.65 -67.75 Q-31.65 -67.2 -35.9 -68.4 L-38.85 -68.95 -38.95 -65.15 -37.05 -64.55" fill="none" stroke="#000000" stroke-linecap="square" stroke-linejoin="round" stroke-width="2.0"/>
      <path d="M-22.9 -82.4 Q-4.4 -85.15 6.45 -83.75 17.45 -82.4 17.9 -79.0 L18.9 -69.4 Q19.25 -66.25 17.3 -65.0 L18.1 -57.8 Q18.45 -52.7 17.95 -48.3 1.35 -46.0 -16.8 -46.9 -18.25 -55.45 -17.55 -65.35 -16.35 -63.75 -13.7 -63.3 L-8.5 -63.45 -4.65 -63.6 -8.5 -63.45 -13.7 -63.3 Q-16.35 -63.75 -17.55 -65.35 -18.55 -66.7 -18.55 -68.95 L-18.7 -72.2 -18.9 -78.05 Q-19.2 -81.9 -22.9 -82.25 L-22.9 -82.4 M17.9 -79.0 Q-1.6 -81.4 -18.9 -78.05 -1.6 -81.4 17.9 -79.0 M17.15 -68.45 Q17.1 -69.2 16.55 -69.65 15.95 -70.15 15.15 -70.1 14.35 -70.05 13.8 -69.55 13.25 -69.05 13.3 -68.3 13.3 -67.6 13.9 -67.1 14.5 -66.6 15.3 -66.65 16.1 -66.7 16.65 -67.2 17.2 -67.75 17.15 -68.45 M17.3 -65.0 Q15.55 -63.95 12.1 -64.3 L10.55 -64.2 12.1 -64.3 Q15.55 -63.95 17.3 -65.0 M-3.5 -63.65 L-3.35 -59.5 -0.55 -59.5 Q-1.05 -59.45 1.05 -57.95 3.3 -56.35 6.9 -59.95 L8.25 -60.0 8.05 -64.1 10.55 -64.2 9.45 -70.5 Q3.75 -68.9 -4.65 -70.15 L-4.65 -63.6 -3.5 -63.65 M-11.8 -69.35 Q-12.65 -69.35 -13.2 -68.85 -13.7 -68.3 -13.65 -67.55 -13.65 -66.85 -13.1 -66.4 -12.5 -65.9 -11.7 -65.9 -10.9 -65.95 -10.35 -66.5 -9.8 -67.0 -9.85 -67.7 -9.9 -68.45 -10.45 -68.95 -11.0 -69.4 -11.8 -69.35" fill="#b48250" fill-rule="evenodd" stroke="none"/>
      <path d="M-16.8 -46.9 Q-24.4 -47.7 -25.35 -50.7 L-26.25 -73.3 -26.5 -80.0 Q-26.6 -81.15 -25.45 -81.8 -24.65 -82.25 -23.65 -82.3 L-22.9 -82.25 Q-19.2 -81.9 -18.9 -78.05 L-18.7 -72.2 -18.55 -68.95 Q-18.55 -66.7 -17.55 -65.35 -18.25 -55.45 -16.8 -46.9 M17.15 -68.45 Q17.2 -67.75 16.65 -67.2 16.1 -66.7 15.3 -66.65 14.5 -66.6 13.9 -67.1 13.3 -67.6 13.3 -68.3 13.25 -69.05 13.8 -69.55 14.35 -70.05 15.15 -70.1 15.95 -70.15 16.55 -69.65 17.1 -69.2 17.15 -68.45 M-11.8 -69.35 Q-11.0 -69.4 -10.45 -68.95 -9.9 -68.45 -9.85 -67.7 -9.8 -67.0 -10.35 -66.5 -10.9 -65.95 -11.7 -65.9 -12.5 -65.9 -13.1 -66.4 -13.65 -66.85 -13.65 -67.55 -13.7 -68.3 -13.2 -68.85 -12.65 -69.35 -11.8 -69.35 M-18.7 -72.2 Q-22.4 -70.85 -26.25 -73.3 -22.4 -70.85 -18.7 -72.2" fill="#825a3c" fill-rule="evenodd" stroke="none"/>
      <path d="M8.05 -64.1 L8.25 -60.0 6.9 -59.95 Q3.3 -56.35 1.05 -57.95 -1.05 -59.45 -0.55 -59.5 L-3.35 -59.5 -3.5 -63.65 -4.65 -63.6 -4.65 -70.15 Q3.75 -68.9 9.45 -70.5 L10.55 -64.2 8.05 -64.1 -3.5 -63.65 8.05 -64.1" fill="#bbbbbb" fill-rule="evenodd" stroke="none"/>
      <path d="M-22.9 -82.4 Q-4.4 -85.15 6.45 -83.75 17.45 -82.4 17.9 -79.0 L18.9 -69.4 Q19.25 -66.25 17.3 -65.0 L18.1 -57.8 Q18.45 -52.7 17.95 -48.3 1.35 -46.0 -16.8 -46.9 -24.4 -47.7 -25.35 -50.7 L-26.25 -73.3 -26.5 -80.0 Q-26.6 -81.15 -25.45 -81.8 -24.65 -82.25 -23.65 -82.3 L-22.9 -82.4 M-22.9 -82.25 Q-19.2 -81.9 -18.9 -78.05 -1.6 -81.4 17.9 -79.0 M10.55 -64.2 L12.1 -64.3 Q15.55 -63.95 17.3 -65.0 M-3.5 -63.65 L-4.65 -63.6 -8.5 -63.45 -13.7 -63.3 Q-16.35 -63.75 -17.55 -65.35 -18.25 -55.45 -16.8 -46.9 M8.05 -64.1 L10.55 -64.2 M-22.9 -82.25 L-23.65 -82.3 M-18.9 -78.05 L-18.7 -72.2 -18.55 -68.95 Q-18.55 -66.7 -17.55 -65.35 M-26.25 -73.3 Q-22.4 -70.85 -18.7 -72.2 M-3.5 -63.65 L8.05 -64.1" fill="none" stroke="#000000" stroke-linecap="round" stroke-linejoin="round" stroke-width="3.0"/>
      <path d="M8.05 -64.1 L8.25 -60.0 6.9 -59.95 Q3.3 -56.35 1.05 -57.95 -1.05 -59.45 -0.55 -59.5 L-3.35 -59.5 -3.5 -63.65 M10.55 -64.2 L9.45 -70.5 Q3.75 -68.9 -4.65 -70.15 L-4.65 -63.6" fill="none" stroke="#000000" stroke-linecap="round" stroke-linejoin="round" stroke-width="2.0"/>
    </g>
  </defs>
</svg>
