<?xml version="1.0" encoding="UTF-8" standalone="no"?>
<svg xmlns:xlink="http://www.w3.org/1999/xlink" height="342.0px" width="237.9px" xmlns="http://www.w3.org/2000/svg">
  <g transform="matrix(1, 0, 0, 1, 118.05, 273.9)">
    <use height="150.35" transform="matrix(1.0, 0.0, 0.0, 1.0, -57.05, -138.6)" width="109.35" xlink:href="#shape0"/>
  </g>
  <defs>
    <g id="shape0" transform="matrix(1, 0, 0, 1, 57.05, 138.6)">
      <path d="M-2.15 -127.25 L-1.65 -127.3 -0.95 -127.35 5.15 -128.1 5.15 -128.05 Q5.2 -126.8 6.1 -123.25 L6.15 -123.1 6.25 -122.7 6.25 -122.35 Q13.15 -54.65 45.15 -3.25 43.2 -1.3 38.15 0.35 31.15 -10.85 25.3 -23.05 15.2 -44.0 8.6 -67.85 L5.6 -79.6 4.9 -82.65 2.4 -94.7 1.4 -100.3 Q0.5 -105.7 -0.25 -111.2 L-1.35 -119.9 -2.15 -127.25 M-28.9 -13.2 Q-31.55 -4.3 -34.6 4.0 L-43.8 3.4 -45.45 3.0 Q-23.3 -53.85 -22.55 -127.55 L-22.55 -127.6 -22.5 -127.55 -19.75 -127.2 -18.7 -127.05 -13.65 -126.8 -13.75 -120.85 -14.15 -110.15 -15.05 -94.7 -16.05 -82.75 -16.35 -79.6 -17.7 -67.85 Q-21.55 -38.1 -28.9 -13.2" fill="#33309e" fill-rule="evenodd" stroke="none"/>
      <path d="M6.25 -122.7 L6.15 -123.1 6.1 -123.25 Q5.2 -126.8 5.15 -128.05 L5.15 -128.1 -0.95 -127.35 -1.65 -127.3 -2.15 -127.25 -3.35 -127.15 -9.75 -126.85 -12.75 -126.8 -13.65 -126.8 -18.7 -127.05 -19.75 -127.2 -22.5 -127.55 -22.55 -127.6 -22.55 -127.55 -24.75 -127.95 -24.9 -128.0 -26.25 -128.3 -27.1 -123.8 -27.6 -121.1 -29.7 -109.8 -29.85 -108.95 -31.5 -100.5 -31.5 -100.45 -33.6 -90.8 -35.05 -83.95 -36.45 -76.45 -38.8 -63.55 -39.0 -62.5 -39.2 -61.3 -40.15 -55.2 -40.25 -54.65 -40.65 -51.95 -41.5 -46.5 -42.8 -37.8 -42.8 -37.75 -43.65 -31.45 -43.7 -31.5 -43.7 -31.45 -43.85 -30.4 -44.35 -26.8 -45.25 -20.95 -45.55 -18.75 -47.2 -7.3 -48.05 -2.35 -49.1 2.3 -49.05 2.3 -45.45 3.0 -43.8 3.4 -34.6 4.0 -21.25 4.2 -3.3 4.2 20.3 4.0 Q31.75 2.45 38.15 0.35 43.2 -1.3 45.15 -3.25 46.95 -5.1 46.05 -7.25 L44.3 -11.55 44.25 -11.6 44.15 -11.85 38.65 -26.05 38.25 -27.1 30.5 -48.75 30.35 -49.1 30.35 -49.15 28.4 -54.55 27.6 -56.9 27.35 -57.65 26.05 -61.3 24.85 -64.7 18.25 -83.95 16.6 -89.0 16.4 -89.5 14.0 -97.0 13.0 -100.05 12.7 -101.0 11.2 -105.75 10.1 -109.3 10.05 -109.45 9.7 -110.55 6.7 -120.9 6.3 -122.35 6.25 -122.7 5.6 -129.5 6.25 -122.7 M19.25 -101.0 L21.05 -94.9 21.05 -94.8 22.7 -89.5 22.85 -89.0 24.4 -83.95 Q27.0 -75.6 28.6 -71.25 L32.25 -61.3 41.4 -36.25 45.7 -24.5 47.9 -18.45 49.95 -12.9 51.6 -8.3 Q52.6 -4.7 52.2 -2.15 51.95 -0.55 51.2 0.6 49.2 3.6 44.15 6.0 32.15 11.75 -9.15 11.75 L-21.25 11.7 -50.65 10.55 Q-52.15 10.3 -54.55 7.85 L-56.6 5.65 -56.95 4.6 -57.0 4.3 Q-57.55 -0.6 -54.05 -21.6 L-53.85 -22.85 -52.65 -29.8 -52.55 -30.4 -52.05 -33.15 -46.95 -61.3 -42.8 -83.95 -41.8 -89.0 -40.2 -97.0 Q-34.85 -123.55 -32.05 -131.9 L-32.05 -138.6 Q-19.9 -134.55 -2.0 -134.55 3.25 -134.55 9.6 -135.6 14.05 -118.6 16.65 -109.8 L19.25 -101.0" fill="#000000" fill-rule="evenodd" stroke="none"/>
      <path d="M45.15 -3.25 Q13.15 -54.65 6.25 -122.35 L6.3 -122.35 6.7 -120.9 9.7 -110.55 10.05 -109.45 10.1 -109.3 11.2 -105.75 12.7 -101.0 13.0 -100.05 14.0 -97.0 16.4 -89.5 16.6 -89.0 18.25 -83.95 24.85 -64.7 26.05 -61.3 27.35 -57.65 27.6 -56.9 28.4 -54.55 30.35 -49.15 30.35 -49.1 30.5 -48.75 38.25 -27.1 38.65 -26.05 44.15 -11.85 44.25 -11.6 44.3 -11.55 46.05 -7.25 Q46.95 -5.1 45.15 -3.25 M-22.55 -127.55 Q-23.3 -53.85 -45.45 3.0 L-49.05 2.3 -49.1 2.3 -48.05 -2.35 -47.2 -7.3 -45.55 -18.75 -45.25 -20.95 -44.35 -26.8 -43.85 -30.4 -43.7 -31.45 -43.65 -31.45 -42.8 -37.75 -42.8 -37.8 -41.5 -46.5 -40.65 -51.95 -40.25 -54.65 -40.15 -55.2 -39.2 -61.3 -39.0 -62.5 -38.8 -63.55 -36.45 -76.45 -35.05 -83.95 -33.6 -90.8 -31.5 -100.45 -31.5 -100.5 -29.85 -108.95 -29.7 -109.8 -27.6 -121.1 -27.1 -123.8 -26.25 -128.3 -24.9 -128.0 -24.75 -127.95 -22.55 -127.55" fill="#7d37e6" fill-rule="evenodd" stroke="none"/>
      <path d="M2.4 -94.7 L4.9 -82.65 Q-5.05 -80.6 -16.05 -82.75 L-15.05 -94.7 Q-4.85 -92.2 2.4 -94.7 M5.6 -79.6 L8.6 -67.85 Q-3.55 -65.4 -17.7 -67.85 L-16.35 -79.6 Q-4.85 -77.3 5.6 -79.6" fill="#800000" fill-rule="evenodd" stroke="none"/>
      <path d="M4.9 -82.65 L5.6 -79.6 Q-4.85 -77.3 -16.35 -79.6 L-16.05 -82.75 Q-5.05 -80.6 4.9 -82.65" fill="#430101" fill-rule="evenodd" stroke="none"/>
      <path d="M25.3 -23.05 Q31.15 -10.85 38.15 0.35 31.75 2.45 20.3 4.0 L-3.3 4.2 -21.25 4.2 -34.6 4.0 Q-31.55 -4.3 -28.9 -13.2 L-23.25 -2.75 -15.85 -19.25 -4.25 -3.3 6.75 -20.5 20.15 -3.1 25.3 -23.05" fill="#ff2894" fill-rule="evenodd" stroke="none"/>
      <path d="M8.6 -67.85 Q15.2 -44.0 25.3 -23.05 L20.15 -3.1 6.75 -20.5 -4.25 -3.3 -15.85 -19.25 -23.25 -2.75 -28.9 -13.2 Q-21.55 -38.1 -17.7 -67.85 -3.55 -65.4 8.6 -67.85" fill="#cf1874" fill-rule="evenodd" stroke="none"/>
      <path d="M-1.35 -119.9 L-0.25 -111.2 Q0.5 -105.7 1.4 -100.3 L2.4 -94.7 Q-4.85 -92.2 -15.05 -94.7 L-14.15 -110.15 -13.75 -120.85 Q-10.85 -117.3 -7.45 -114.85 L-1.35 -119.9 M-0.25 -111.2 Q-4.1 -112.5 -7.45 -114.85 -4.1 -112.5 -0.25 -111.2 M1.4 -100.3 Q-7.35 -104.25 -14.15 -110.15 -7.35 -104.25 1.4 -100.3" fill="#ffffff" fill-rule="evenodd" stroke="none"/>
      <path d="M-2.15 -127.25 L-1.35 -119.9 -7.45 -114.85 Q-10.85 -117.3 -13.75 -120.85 L-13.65 -126.8 -12.75 -126.8 -9.75 -126.85 -3.35 -127.15 -2.15 -127.25" fill="#fff1dd" fill-rule="evenodd" stroke="none"/>
      <path d="M45.15 -3.25 Q13.15 -54.65 6.25 -122.35 L6.25 -122.7 5.6 -129.5 M-22.5 -127.55 L-22.55 -127.6" fill="none" stroke="#000000" stroke-linecap="round" stroke-linejoin="round" stroke-width="4.0"/>
      <path d="M-2.15 -127.25 L-1.35 -119.9 -0.25 -111.2 Q0.5 -105.7 1.4 -100.3 L2.4 -94.7 4.9 -82.65 5.6 -79.6 8.6 -67.85 Q15.2 -44.0 25.3 -23.05 31.15 -10.85 38.15 0.35 M-28.9 -13.2 Q-31.55 -4.3 -34.6 4.0 M-22.55 -127.6 L-22.55 -127.55 Q-23.3 -53.85 -45.45 3.0 M-13.65 -126.8 L-13.75 -120.85 M-15.05 -94.7 L-14.15 -110.15 -13.75 -120.85 M-16.05 -82.75 L-15.05 -94.7 M-16.35 -79.6 L-16.05 -82.75 M-17.7 -67.85 L-16.35 -79.6 M-17.7 -67.85 Q-21.55 -38.1 -28.9 -13.2" fill="none" stroke="#000000" stroke-linecap="round" stroke-linejoin="round" stroke-width="4.0"/>
      <path d="M-13.75 -120.85 Q-10.85 -117.3 -7.45 -114.85 L-1.35 -119.9 M-7.45 -114.85 Q-4.1 -112.5 -0.25 -111.2 M-15.05 -94.7 Q-4.85 -92.2 2.4 -94.7 M8.6 -67.85 Q-3.55 -65.4 -17.7 -67.85 M-14.15 -110.15 Q-7.35 -104.25 1.4 -100.3" fill="none" stroke="#000000" stroke-linecap="round" stroke-linejoin="round" stroke-width="3.0"/>
      <path d="M-16.05 -82.75 Q-5.05 -80.6 4.9 -82.65 M-16.35 -79.6 Q-4.85 -77.3 5.6 -79.6" fill="none" stroke="#000000" stroke-linecap="round" stroke-linejoin="round" stroke-width="2.0"/>
    </g>
  </defs>
</svg>
