<?xml version="1.0" encoding="UTF-8" standalone="no"?>
<svg xmlns:xlink="http://www.w3.org/1999/xlink" height="342.0px" width="237.9px" xmlns="http://www.w3.org/2000/svg">
  <g transform="matrix(1, 0, 0, 1, 118.05, 273.9)">
    <use height="151.95" transform="matrix(1.0, 0.0, 0.0, 1.0, -60.75, -140.2)" width="112.35" xlink:href="#shape0"/>
  </g>
  <defs>
    <g id="shape0" transform="matrix(1, 0, 0, 1, 60.75, 140.2)">
      <path d="M27.95 -133.05 L23.9 -131.95 Q17.25 -130.2 10.85 -129.0 L16.65 -109.8 19.95 -98.6 20.6 -97.9 20.45 -96.85 Q25.95 -78.5 28.6 -71.25 31.4 -63.65 36.05 -54.15 L43.55 -39.05 Q51.6 -22.0 51.6 -8.65 51.6 -2.85 50.7 -0.45 49.2 3.6 44.15 6.0 32.15 11.75 -9.15 11.75 -43.85 11.75 -50.65 10.55 -52.85 10.2 -53.45 9.35 -54.15 8.4 -55.25 8.0 -60.75 6.0 -60.75 3.5 -60.75 -0.1 -57.7 -0.65 -57.05 -8.2 -45.75 -68.5 -36.15 -119.65 -32.05 -131.9 L-32.05 -138.6 Q-19.9 -134.55 -2.0 -134.55 8.75 -134.55 24.3 -139.1 L27.95 -140.2 27.95 -133.05 M2.85 -106.5 L2.3 -107.05 Q2.55 -99.1 2.25 -86.3 L2.15 -56.05 9.8 -56.85 Q15.85 -57.25 25.6 -62.25 13.8 -97.95 8.75 -114.7 L2.85 -106.5 M4.6 -122.2 Q5.25 -123.05 6.25 -123.45 L5.15 -128.1 -1.05 -127.35 Q2.45 -122.4 2.45 -119.2 L4.6 -122.2 M7.2 -52.1 Q3.3 -52.1 1.6 -52.75 L1.5 -52.7 1.4 -52.65 1.1 -52.5 0.25 -52.15 0.0 -52.1 Q-1.75 -58.55 -2.15 -69.15 L-2.25 -86.2 -2.25 -86.35 -2.25 -86.75 -2.25 -87.6 -2.35 -90.45 -2.4 -97.55 -2.4 -103.55 -2.3 -106.65 -2.25 -108.0 -2.0 -112.75 -1.9 -113.5 -4.4 -117.55 -6.5 -121.1 -9.3 -115.5 -9.25 -115.15 -9.2 -114.75 -8.95 -112.65 -8.9 -112.25 -8.85 -111.7 -8.4 -105.6 Q-7.95 -97.95 -7.95 -87.6 L-7.95 -73.1 -7.95 -72.6 -7.95 -72.15 -7.95 -71.9 -7.95 -70.7 -8.0 -66.1 -8.1 -52.45 -8.4 -52.35 -15.55 -52.1 Q-21.2 -52.1 -26.45 -53.25 L-26.7 -53.3 -26.75 -53.3 -26.9 -53.3 -27.1 -53.35 -29.15 -53.9 -33.25 -55.25 -33.45 -55.35 -34.6 -55.8 -34.8 -55.9 Q-37.65 -57.15 -39.65 -58.35 L-40.65 -51.9 -39.55 -51.25 Q-37.3 -49.7 -35.2 -48.85 -29.05 -46.4 -16.55 -45.65 L-10.55 -45.4 -9.65 -45.4 -4.6 -45.35 Q7.0 -45.35 18.85 -48.35 L19.15 -48.4 Q23.1 -49.45 26.05 -50.45 L28.6 -51.4 29.2 -51.4 29.15 -51.55 27.4 -56.85 24.45 -55.2 Q17.9 -52.1 7.45 -52.1 L7.2 -52.1 M33.7 -38.0 L31.4 -44.85 31.35 -45.0 31.1 -45.65 Q28.1 -44.15 21.4 -42.05 13.45 -39.55 6.05 -38.5 L2.15 -38.05 1.85 -38.0 0.85 -37.9 -0.05 -37.85 -3.9 -37.75 -4.25 -37.75 -4.75 -37.75 -5.3 -37.75 -6.35 -37.75 -6.85 -37.75 -7.55 -37.75 -8.25 -37.8 -8.7 -37.8 -9.1 -37.8 -9.5 -37.8 -19.6 -38.5 -19.95 -38.55 -27.6 -39.75 -28.65 -39.95 -29.35 -40.1 -34.1 -41.4 -37.25 -42.5 Q-39.85 -43.55 -41.75 -44.65 L-42.8 -37.8 -42.8 -37.75 -43.65 -31.45 -43.7 -31.5 -43.7 -31.45 -44.35 -26.8 -45.25 -20.95 Q-48.15 -4.2 -50.95 1.65 L-50.9 1.65 -48.15 2.25 -47.85 2.3 -44.95 2.55 -44.85 2.65 -40.6 2.95 -40.5 2.9 -38.75 3.05 -37.45 3.1 -34.7 3.25 -34.65 3.25 -34.4 3.25 -34.15 3.25 -33.85 3.25 -33.45 3.3 -33.2 3.3 -25.05 3.55 -25.05 3.6 -18.15 3.75 -18.15 3.7 -0.55 3.95 0.85 3.95 5.2 4.0 6.25 4.0 20.3 4.0 27.95 2.35 28.4 2.2 33.25 0.6 35.6 -0.5 Q43.1 -4.55 44.0 -7.85 L44.0 -7.9 44.1 -8.75 43.9 -10.3 43.35 -12.55 Q41.95 -17.5 38.0 -27.7 L36.5 -31.5 34.15 -37.45 33.95 -37.15 33.7 -38.0 M-12.75 -126.8 L-22.6 -127.55 -20.95 -125.3 Q-16.65 -118.7 -16.15 -118.25 -15.6 -118.95 -13.1 -125.35 L-12.45 -126.7 -12.4 -126.8 -12.75 -126.8 M-14.5 -106.65 Q-15.4 -105.55 -15.9 -105.55 -16.45 -105.55 -24.1 -116.2 L-27.25 -120.6 Q-28.8 -110.9 -32.8 -90.15 L-32.75 -90.15 -39.0 -62.5 -39.0 -62.45 Q-35.45 -62.25 -27.15 -58.5 -14.5 -57.6 -10.8 -56.2 -12.15 -62.55 -12.45 -70.7 L-12.55 -87.75 Q-12.55 -92.7 -13.95 -106.35 L-14.0 -107.35 -14.5 -106.65 M-9.9 -54.15 L-10.25 -53.95 -9.0 -54.5 -9.9 -54.15" fill="#000000" fill-rule="evenodd" stroke="none"/>
      <path d="M4.6 -122.2 L2.45 -119.2 Q2.45 -122.4 -1.05 -127.35 L5.15 -128.1 6.25 -123.45 Q5.25 -123.05 4.6 -122.2 M2.85 -106.5 L8.75 -114.7 Q13.8 -97.95 25.6 -62.25 15.85 -57.25 9.8 -56.85 L2.15 -56.05 2.25 -86.3 Q2.55 -99.1 2.3 -107.05 L2.85 -106.5 M7.2 -52.1 L7.2 -51.65 Q7.2 -50.2 6.05 -49.15 4.95 -48.2 3.65 -48.2 0.2 -48.2 0.2 -51.5 L0.25 -52.15 1.1 -52.5 1.4 -52.65 1.5 -52.7 1.6 -52.75 Q3.3 -52.1 7.2 -52.1 M-2.35 -90.45 Q-5.3 -90.75 -5.3 -93.8 -5.3 -97.25 -2.4 -97.55 L-2.35 -90.45 M-8.9 -112.25 L-7.45 -112.65 Q-4.0 -112.65 -3.9 -109.0 -3.9 -107.55 -5.1 -106.5 -6.2 -105.55 -7.45 -105.55 L-8.4 -105.6 -8.85 -111.7 -8.9 -112.25 M-7.95 -73.1 L-7.45 -73.15 Q-4.0 -73.15 -3.9 -69.45 -3.9 -66.1 -7.45 -66.1 L-8.0 -66.1 -7.95 -70.7 -7.95 -71.9 -7.95 -72.15 -7.95 -72.6 -7.95 -73.1 M-26.45 -53.25 Q-26.6 -52.0 -27.65 -51.05 -28.75 -50.1 -30.0 -50.1 -33.6 -50.1 -33.6 -53.4 -33.6 -54.5 -33.25 -55.25 L-29.15 -53.9 -27.1 -53.35 -26.9 -53.3 -26.75 -53.3 -26.7 -53.3 -26.45 -53.25 M-16.55 -45.65 Q-16.2 -48.65 -13.05 -48.65 -10.05 -48.65 -9.65 -45.4 L-10.55 -45.4 -16.55 -45.65 M19.15 -48.4 Q19.0 -48.95 19.0 -49.6 19.0 -53.4 22.55 -53.4 25.75 -53.4 26.05 -50.45 23.1 -49.45 19.15 -48.4 M6.05 -38.5 Q7.2 -37.6 7.2 -35.6 7.2 -34.15 6.05 -33.1 4.95 -32.15 3.65 -32.15 0.2 -32.15 0.2 -35.5 0.2 -37.05 0.85 -37.9 L1.85 -38.0 2.15 -38.05 6.05 -38.5 M-28.65 -39.95 Q-28.35 -39.25 -28.35 -38.45 -28.35 -37.05 -29.55 -35.95 -30.7 -35.0 -31.9 -35.0 -34.65 -35.0 -35.25 -36.55 L-35.35 -38.35 Q-35.35 -40.5 -34.1 -41.4 L-29.35 -40.1 -28.65 -39.95 M-44.95 2.55 Q-45.8 1.7 -45.8 0.1 -45.8 -1.4 -44.65 -2.45 -43.55 -3.4 -42.25 -3.4 -38.7 -3.4 -38.7 0.0 -38.7 1.4 -39.9 2.45 L-40.5 2.9 -40.6 2.95 -44.85 2.65 -44.95 2.55 M-25.05 3.55 L-25.05 2.95 Q-25.05 -0.7 -21.6 -0.7 -19.45 -0.7 -18.55 1.1 L-18.05 2.85 -18.15 3.7 -18.15 3.75 -25.05 3.6 -25.05 3.55 M-0.55 3.95 L-0.55 3.9 Q-0.55 0.1 2.85 0.1 6.25 0.1 6.25 3.8 L6.25 4.0 5.2 4.0 0.85 3.95 -0.55 3.95 M28.4 2.2 Q26.6 1.6 26.6 -0.7 26.6 -4.35 30.0 -4.35 33.6 -4.35 33.6 -0.8 33.6 -0.05 33.25 0.6 L28.4 2.2 M43.9 -10.3 L43.9 -10.2 Q43.9 -8.75 42.75 -7.7 41.7 -6.75 40.45 -6.75 36.9 -6.75 36.9 -10.05 36.9 -13.85 40.45 -13.85 42.5 -13.85 43.35 -12.55 L43.9 -10.3 M36.5 -31.5 L35.25 -31.2 Q31.2 -31.2 31.2 -34.55 31.2 -37.4 33.7 -38.0 L33.95 -37.15 34.15 -37.45 36.5 -31.5 M22.1 -28.5 Q21.0 -27.55 19.7 -27.55 16.15 -27.55 16.15 -30.75 16.15 -34.55 19.7 -34.55 23.25 -34.55 23.25 -30.85 23.25 -29.55 22.1 -28.5 M0.5 -16.15 Q-0.45 -15.2 -1.75 -15.2 -5.3 -15.2 -5.3 -18.5 -5.3 -20.25 -4.1 -21.35 -3.05 -22.3 -1.75 -22.3 1.5 -22.3 1.5 -18.6 1.5 -17.15 0.5 -16.15 M14.45 -6.75 Q13.4 -5.8 12.2 -5.8 8.65 -5.8 8.65 -9.1 8.65 -12.9 12.2 -12.9 15.55 -12.9 15.65 -9.25 15.65 -7.8 14.45 -6.75 M24.7 -16.6 Q24.7 -18.4 25.9 -19.45 26.9 -20.4 28.1 -20.4 31.7 -20.4 31.7 -16.7 31.7 -13.4 28.1 -13.4 24.7 -13.4 24.7 -16.6 M-12.45 -126.7 L-13.1 -125.35 Q-15.6 -118.95 -16.15 -118.25 -16.65 -118.7 -20.95 -125.3 L-22.6 -127.55 -12.75 -126.8 -12.45 -126.7 M-13.95 -106.35 Q-12.55 -92.7 -12.55 -87.75 L-12.45 -70.7 Q-12.15 -62.55 -10.8 -56.2 -14.5 -57.6 -27.15 -58.5 -35.45 -62.25 -39.0 -62.45 L-39.0 -62.5 -32.75 -90.15 -32.8 -90.15 Q-28.8 -110.9 -27.25 -120.6 L-24.1 -116.2 Q-16.45 -105.55 -15.9 -105.55 -15.4 -105.55 -14.5 -106.65 L-13.95 -106.35 M-15.45 -27.55 Q-16.55 -26.6 -17.8 -26.6 -21.35 -26.6 -21.35 -29.8 -21.35 -33.6 -17.8 -33.6 -14.35 -33.6 -14.25 -29.9 -14.25 -28.55 -15.45 -27.55 M-36.9 -28.1 Q-36.9 -24.7 -40.35 -24.7 -43.9 -24.7 -43.9 -28.0 -43.9 -31.7 -40.35 -31.7 -36.9 -31.7 -36.9 -28.1 M-27.4 -13.05 Q-27.4 -11.6 -28.6 -10.55 -29.7 -9.6 -30.95 -9.6 -33.65 -9.6 -34.3 -11.1 L-34.4 -12.9 Q-34.4 -16.7 -30.95 -16.7 -28.8 -16.7 -27.9 -15.0 -27.4 -14.05 -27.4 -13.05 M-10.3 -3.05 Q-13.75 -3.05 -13.75 -6.25 -13.75 -10.05 -10.3 -10.05 -6.85 -10.05 -6.75 -6.4 -6.75 -3.05 -10.3 -3.05" fill="#ffffff" fill-rule="evenodd" stroke="none"/>
      <path d="M0.25 -52.15 L0.2 -51.5 Q0.2 -48.2 3.65 -48.2 4.95 -48.2 6.05 -49.15 7.2 -50.2 7.2 -51.65 L7.2 -52.1 7.45 -52.1 Q17.9 -52.1 24.45 -55.2 L27.4 -56.85 29.15 -51.55 28.6 -51.4 26.05 -50.45 Q25.75 -53.4 22.55 -53.4 19.0 -53.4 19.0 -49.6 19.0 -48.95 19.15 -48.4 L18.85 -48.35 Q7.0 -45.35 -4.6 -45.35 L-9.65 -45.4 Q-10.05 -48.65 -13.05 -48.65 -16.2 -48.65 -16.55 -45.65 -29.05 -46.4 -35.2 -48.85 -37.3 -49.7 -39.55 -51.25 L-40.65 -51.9 -39.65 -58.35 Q-37.65 -57.15 -34.8 -55.9 L-34.6 -55.8 -33.45 -55.35 -33.25 -55.25 Q-33.6 -54.5 -33.6 -53.4 -33.6 -50.1 -30.0 -50.1 -28.75 -50.1 -27.65 -51.05 -26.6 -52.0 -26.45 -53.25 -21.2 -52.1 -15.55 -52.1 L-8.4 -52.35 -8.1 -52.45 -8.0 -66.1 -7.45 -66.1 Q-3.9 -66.1 -3.9 -69.45 -4.0 -73.15 -7.45 -73.15 L-7.95 -73.1 -7.95 -87.6 Q-7.95 -97.95 -8.4 -105.6 L-7.45 -105.55 Q-6.2 -105.55 -5.1 -106.5 -3.9 -107.55 -3.9 -109.0 -4.0 -112.65 -7.45 -112.65 L-8.9 -112.25 -8.95 -112.65 -9.2 -114.75 -9.25 -115.15 -9.3 -115.5 -6.5 -121.1 -4.4 -117.55 -1.9 -113.5 -2.0 -112.75 -2.25 -108.0 -2.3 -106.65 -2.4 -103.55 -2.4 -97.55 Q-5.3 -97.25 -5.3 -93.8 -5.3 -90.75 -2.35 -90.45 L-2.25 -87.6 -2.25 -86.75 -2.25 -86.35 -2.25 -86.2 -2.15 -69.15 Q-1.75 -58.55 0.0 -52.1 L0.25 -52.15 M6.05 -38.5 Q13.45 -39.55 21.4 -42.05 28.1 -44.15 31.1 -45.65 L31.35 -45.0 31.4 -44.85 33.7 -38.0 Q31.2 -37.4 31.2 -34.55 31.2 -31.2 35.25 -31.2 L36.5 -31.5 38.0 -27.7 Q41.95 -17.5 43.35 -12.55 42.5 -13.85 40.45 -13.85 36.9 -13.85 36.9 -10.05 36.9 -6.75 40.45 -6.75 41.7 -6.75 42.75 -7.7 43.9 -8.75 43.9 -10.2 L43.9 -10.3 44.1 -8.75 44.0 -7.9 44.0 -7.85 Q43.1 -4.55 35.6 -0.5 L33.25 0.6 Q33.6 -0.05 33.6 -0.8 33.6 -4.35 30.0 -4.35 26.6 -4.35 26.6 -0.7 26.6 1.6 28.4 2.2 L27.95 2.35 20.3 4.0 6.25 4.0 6.25 3.8 Q6.25 0.1 2.85 0.1 -0.55 0.1 -0.55 3.9 L-0.55 3.95 -18.15 3.7 -18.05 2.85 -18.55 1.1 Q-19.45 -0.7 -21.6 -0.7 -25.05 -0.7 -25.05 2.95 L-25.05 3.55 -33.2 3.3 -33.45 3.3 -33.85 3.25 -34.15 3.25 -34.4 3.25 -34.65 3.25 -34.7 3.25 -37.45 3.1 -38.75 3.05 -40.5 2.9 -39.9 2.45 Q-38.7 1.4 -38.7 0.0 -38.7 -3.4 -42.25 -3.4 -43.55 -3.4 -44.65 -2.45 -45.8 -1.4 -45.8 0.1 -45.8 1.7 -44.95 2.55 L-47.85 2.3 -48.15 2.25 -50.9 1.65 -50.95 1.65 Q-48.15 -4.2 -45.25 -20.95 L-44.35 -26.8 -43.7 -31.45 -43.65 -31.45 -42.8 -37.75 -42.8 -37.8 -41.75 -44.65 Q-39.85 -43.55 -37.25 -42.5 L-34.1 -41.4 Q-35.35 -40.5 -35.35 -38.35 L-35.25 -36.55 Q-34.65 -35.0 -31.9 -35.0 -30.7 -35.0 -29.55 -35.95 -28.35 -37.05 -28.35 -38.45 -28.35 -39.25 -28.65 -39.95 L-27.6 -39.75 -19.95 -38.55 -19.6 -38.5 -9.5 -37.8 -9.1 -37.8 -8.7 -37.8 -8.25 -37.8 -7.55 -37.75 -6.85 -37.75 -6.35 -37.75 -5.3 -37.75 -4.75 -37.75 -4.25 -37.75 -3.9 -37.75 -0.05 -37.85 0.85 -37.9 Q0.2 -37.05 0.2 -35.5 0.2 -32.15 3.65 -32.15 4.95 -32.15 6.05 -33.1 7.2 -34.15 7.2 -35.6 7.2 -37.6 6.05 -38.5 M22.1 -28.5 Q23.25 -29.55 23.25 -30.85 23.25 -34.55 19.7 -34.55 16.15 -34.55 16.15 -30.75 16.15 -27.55 19.7 -27.55 21.0 -27.55 22.1 -28.5 M24.7 -16.6 Q24.7 -13.4 28.1 -13.4 31.7 -13.4 31.7 -16.7 31.7 -20.4 28.1 -20.4 26.9 -20.4 25.9 -19.45 24.7 -18.4 24.7 -16.6 M14.45 -6.75 Q15.65 -7.8 15.65 -9.25 15.55 -12.9 12.2 -12.9 8.65 -12.9 8.65 -9.1 8.65 -5.8 12.2 -5.8 13.4 -5.8 14.45 -6.75 M0.5 -16.15 Q1.5 -17.15 1.5 -18.6 1.5 -22.3 -1.75 -22.3 -3.05 -22.3 -4.1 -21.35 -5.3 -20.25 -5.3 -18.5 -5.3 -15.2 -1.75 -15.2 -0.45 -15.2 0.5 -16.15 M-15.45 -27.55 Q-14.25 -28.55 -14.25 -29.9 -14.35 -33.6 -17.8 -33.6 -21.35 -33.6 -21.35 -29.8 -21.35 -26.6 -17.8 -26.6 -16.55 -26.6 -15.45 -27.55 M-10.3 -3.05 Q-6.75 -3.05 -6.75 -6.4 -6.85 -10.05 -10.3 -10.05 -13.75 -10.05 -13.75 -6.25 -13.75 -3.05 -10.3 -3.05 M-27.4 -13.05 Q-27.4 -14.05 -27.9 -15.0 -28.8 -16.7 -30.95 -16.7 -34.4 -16.7 -34.4 -12.9 L-34.3 -11.1 Q-33.65 -9.6 -30.95 -9.6 -29.7 -9.6 -28.6 -10.55 -27.4 -11.6 -27.4 -13.05 M-36.9 -28.1 Q-36.9 -31.7 -40.35 -31.7 -43.9 -31.7 -43.9 -28.0 -43.9 -24.7 -40.35 -24.7 -36.9 -24.7 -36.9 -28.1" fill="#7566ff" fill-rule="evenodd" stroke="none"/>
    </g>
  </defs>
</svg>
