<?xml version="1.0" encoding="UTF-8" standalone="no"?>
<svg xmlns:xlink="http://www.w3.org/1999/xlink" height="342.0px" width="237.9px" xmlns="http://www.w3.org/2000/svg">
  <g transform="matrix(1, 0, 0, 1, 118.05, 273.9)">
    <use height="151.95" transform="matrix(1.0, 0.0, 0.0, 1.0, -60.75, -140.2)" width="112.35" xlink:href="#shape0"/>
  </g>
  <defs>
    <g id="shape0" transform="matrix(1, 0, 0, 1, 60.75, 140.2)">
      <path d="M23.9 -131.95 Q17.25 -130.2 10.85 -129.0 L16.65 -109.8 21.05 -94.8 21.05 -94.9 22.85 -89.0 Q26.55 -76.8 28.6 -71.25 31.4 -63.65 36.05 -54.15 L43.55 -39.05 Q51.6 -22.0 51.6 -8.65 51.6 -2.85 50.7 -0.45 49.2 3.6 44.15 6.0 32.15 11.75 -9.15 11.75 -43.85 11.75 -50.65 10.55 -52.85 10.2 -53.45 9.35 -54.15 8.4 -55.25 8.0 -60.75 6.0 -60.75 3.5 -60.75 -0.1 -57.7 -0.65 -57.05 -8.2 -45.75 -68.5 L-41.8 -89.0 -40.2 -97.0 Q-34.85 -123.55 -32.05 -131.9 L-32.05 -138.6 Q-19.9 -134.55 -2.0 -134.55 8.75 -134.55 24.3 -139.1 L27.95 -140.2 27.95 -133.05 23.9 -131.95 M1.3 -127.1 L1.55 -127.65 1.25 -127.6 -11.5 -126.8 -4.1 -121.9 Q-1.1 -121.9 1.3 -127.1 M1.15 -117.4 L1.85 -116.7 Q5.35 -112.9 5.9 -112.9 6.5 -112.9 8.0 -114.75 L8.35 -115.15 6.25 -122.7 3.3 -119.5 1.15 -117.4 M9.15 -107.0 Q7.65 -106.0 6.2 -106.05 L11.2 -59.15 17.2 -60.75 16.1 -66.05 Q14.65 -73.6 13.3 -84.65 L9.9 -102.7 9.15 -107.0 M3.15 -96.6 L1.9 -108.15 Q-0.05 -109.65 -2.45 -112.25 L-4.5 -109.9 Q-9.0 -105.25 -15.2 -105.2 L-21.15 -58.1 -1.1 -57.4 6.9 -58.25 6.35 -62.35 Q5.45 -70.0 4.8 -81.1 L3.15 -96.6 M25.15 -63.2 L16.6 -88.9 21.35 -62.0 25.15 -63.2 M38.0 -27.7 L34.15 -37.45 33.95 -37.15 26.95 -57.75 19.75 -55.2 Q7.0 -51.1 -0.8 -51.1 -23.2 -51.1 -35.0 -54.65 -38.1 -55.55 -39.95 -56.4 L-42.8 -37.8 -42.8 -37.75 -43.65 -31.45 -43.7 -31.5 -43.7 -31.45 -44.35 -26.8 -44.4 -26.6 -44.3 -26.6 Q-40.3 -26.65 -38.55 -28.45 -36.8 -30.3 -36.0 -30.3 -35.65 -30.3 -30.9 -24.55 -26.15 -18.8 -23.3 -18.8 -16.1 -18.8 -11.3 -23.0 L-8.25 -25.9 Q-6.75 -27.2 -5.4 -27.2 L-4.75 -27.15 -3.9 -27.2 3.45 -22.6 Q10.95 -18.0 12.7 -18.0 18.3 -18.0 18.8 -23.4 19.05 -26.55 19.3 -27.1 19.5 -27.65 19.85 -28.0 20.1 -31.1 22.7 -31.1 24.35 -31.1 25.0 -30.45 L25.85 -28.95 Q27.2 -26.8 33.6 -26.8 L38.1 -27.2 38.2 -27.25 38.0 -27.7 M23.1 -16.6 Q20.4 -11.9 14.5 -11.9 5.25 -11.9 -1.65 -18.0 L-4.45 -20.85 Q-5.9 -19.45 -8.4 -17.6 -15.1 -12.7 -21.05 -12.7 -27.0 -12.7 -31.65 -17.8 -36.35 -22.9 -40.3 -21.7 -44.3 -20.5 -45.3 -20.6 -48.15 -4.15 -50.95 1.65 L-50.9 1.65 -48.15 2.25 Q-36.05 4.0 20.3 4.0 30.75 2.15 35.6 -0.5 43.1 -4.55 44.0 -7.85 L44.0 -7.9 44.1 -8.75 Q44.1 -11.2 40.3 -21.55 37.55 -20.5 33.7 -20.5 28.15 -20.5 24.8 -21.65 24.45 -18.95 23.1 -16.6 M-26.25 -128.3 L-27.85 -119.55 Q-26.05 -117.25 -22.6 -114.35 -19.15 -111.5 -15.2 -111.5 -10.4 -111.5 -7.95 -115.6 L-7.5 -116.3 Q-11.25 -118.4 -17.4 -123.15 L-23.25 -127.7 -26.25 -128.3 M-26.4 -110.1 L-26.6 -110.3 -29.05 -113.05 -31.85 -97.0 -33.2 -89.0 -33.55 -86.6 -39.0 -62.5 -39.1 -61.7 -35.15 -61.05 -34.8 -60.9 -34.1 -66.4 Q-32.9 -74.0 -30.5 -84.9 L-27.65 -103.0 -26.4 -110.1 M-27.95 -119.0 L-28.9 -120.1 -27.95 -119.0 -28.0 -118.85 Q-27.9 -118.9 -27.95 -119.0 M-19.35 -105.75 Q-21.1 -106.25 -22.7 -107.2 L-30.7 -59.55 -30.65 -59.55 -25.5 -58.6 -25.1 -62.65 Q-24.25 -70.3 -22.25 -81.3 L-20.15 -99.5 -19.35 -105.75" fill="#000000" fill-rule="evenodd" stroke="none"/>
      <path d="M1.25 -127.6 L1.3 -127.1 Q-1.1 -121.9 -4.1 -121.9 L-11.5 -126.8 1.25 -127.6" fill="#fff1dd" fill-rule="evenodd" stroke="none"/>
      <path d="M9.15 -107.0 L9.9 -102.7 13.3 -84.65 Q14.65 -73.6 16.1 -66.05 L17.2 -60.75 11.2 -59.15 6.2 -106.05 Q7.65 -106.0 9.15 -107.0 M1.15 -117.4 L3.3 -119.5 6.25 -122.7 8.35 -115.15 8.0 -114.75 Q6.5 -112.9 5.9 -112.9 5.35 -112.9 1.85 -116.7 L1.15 -117.4 M-43.65 -31.45 L-42.8 -37.75 -42.8 -37.8 -39.95 -56.4 Q-38.1 -55.55 -35.0 -54.65 -23.2 -51.1 -0.8 -51.1 7.0 -51.1 19.75 -55.2 L26.95 -57.75 33.95 -37.15 34.15 -37.45 38.0 -27.7 38.1 -27.2 33.6 -26.8 Q27.2 -26.8 25.85 -28.95 L25.0 -30.45 Q24.35 -31.1 22.7 -31.1 20.1 -31.1 19.85 -28.0 19.5 -27.65 19.3 -27.1 19.05 -26.55 18.8 -23.4 18.3 -18.0 12.7 -18.0 10.95 -18.0 3.45 -22.6 L-3.9 -27.2 -4.75 -27.15 -5.4 -27.2 Q-6.75 -27.2 -8.25 -25.9 L-11.3 -23.0 Q-16.1 -18.8 -23.3 -18.8 -26.15 -18.8 -30.9 -24.55 -35.65 -30.3 -36.0 -30.3 -36.8 -30.3 -38.55 -28.45 -40.3 -26.65 -44.3 -26.6 L-44.35 -26.8 -43.7 -31.45 -43.65 -31.45 M-26.25 -128.3 L-23.25 -127.7 -17.4 -123.15 Q-11.25 -118.4 -7.5 -116.3 L-7.95 -115.6 Q-10.4 -111.5 -15.2 -111.5 -19.15 -111.5 -22.6 -114.35 -26.05 -117.25 -27.85 -119.55 L-26.25 -128.3 M-19.35 -105.75 L-20.15 -99.5 -22.25 -81.3 Q-24.25 -70.3 -25.1 -62.65 L-25.5 -58.6 -30.65 -59.55 -30.7 -59.55 -22.7 -107.2 Q-21.1 -106.25 -19.35 -105.75" fill="#fefefe" fill-rule="evenodd" stroke="none"/>
      <path d="M25.15 -63.2 L21.35 -62.0 16.6 -88.9 25.15 -63.2 M3.15 -96.6 L4.8 -81.1 Q5.45 -70.0 6.35 -62.35 L6.9 -58.25 -1.1 -57.4 -21.15 -58.1 -15.2 -105.2 Q-9.0 -105.25 -4.5 -109.9 L-2.45 -112.25 Q-0.05 -109.65 1.9 -108.15 L3.15 -96.6 M-44.35 -26.8 L-44.3 -26.6 -44.4 -26.6 -44.35 -26.8 M38.1 -27.2 L38.0 -27.7 38.2 -27.25 38.1 -27.2 M23.1 -16.6 Q24.45 -18.95 24.8 -21.65 28.15 -20.5 33.7 -20.5 37.55 -20.5 40.3 -21.55 44.1 -11.2 44.1 -8.75 L44.0 -7.9 44.0 -7.85 Q43.1 -4.55 35.6 -0.5 30.75 2.15 20.3 4.0 -36.05 4.0 -48.15 2.25 L-50.9 1.65 -50.95 1.65 Q-48.15 -4.15 -45.3 -20.6 -44.3 -20.5 -40.3 -21.7 -36.35 -22.9 -31.65 -17.8 -27.0 -12.7 -21.05 -12.7 -15.1 -12.7 -8.4 -17.6 -5.9 -19.45 -4.45 -20.85 L-1.65 -18.0 Q5.25 -11.9 14.5 -11.9 20.4 -11.9 23.1 -16.6 M-26.4 -110.1 L-27.65 -103.0 -30.5 -84.9 Q-32.9 -74.0 -34.1 -66.4 L-34.8 -60.9 -35.15 -61.05 -39.1 -61.7 -39.0 -62.5 -33.55 -86.6 -33.2 -89.0 -31.85 -97.0 -29.05 -113.05 -26.6 -110.3 -26.4 -110.1" fill="#7588fe" fill-rule="evenodd" stroke="none"/>
      <path d="M1.55 -110.55 Q1.55 -112.3 0.6 -113.5 -0.4 -114.75 -1.8 -114.75 -3.2 -114.75 -4.15 -113.5 -5.15 -112.3 -5.15 -110.55 L-5.1 -109.95 -5.0 -109.3 Q-4.8 -108.35 -4.15 -107.55 -3.2 -106.35 -1.8 -106.35 -0.4 -106.35 0.6 -107.55 1.55 -108.8 1.55 -110.55 M6.85 -110.55 Q6.85 -109.05 6.4 -107.75 15.0 -93.7 16.35 -87.35 L16.6 -87.0 16.5 -86.75 16.6 -85.3 Q16.6 -84.15 14.25 -84.15 L10.9 -81.35 Q7.1 -78.55 6.15 -78.55 L4.35 -79.05 3.6 -79.5 3.5 -79.8 2.0 -79.5 Q0.7 -79.5 -2.25 -90.15 L-2.4 -90.65 -3.0 -88.65 Q-6.05 -78.55 -8.95 -78.55 -16.1 -78.55 -20.2 -84.1 -22.3 -86.9 -22.95 -89.95 -22.95 -91.25 -17.2 -99.9 -13.3 -105.7 -10.45 -108.75 L-10.65 -110.55 Q-10.65 -114.15 -8.05 -116.7 -5.5 -119.3 -1.9 -119.3 1.7 -119.3 4.3 -116.7 6.85 -114.15 6.85 -110.55 M4.35 -83.55 Q6.2 -85.9 11.7 -88.1 L7.85 -95.9 4.05 -104.1 Q1.9 -102.15 -0.9 -101.85 -0.4 -101.1 -0.4 -100.65 L-0.45 -99.45 4.35 -85.55 4.35 -83.55 M-4.9 -102.3 L-7.7 -104.0 -11.15 -99.05 Q-17.35 -90.4 -17.35 -88.75 -17.35 -88.0 -14.3 -86.0 L-10.5 -83.55 Q-8.9 -86.15 -7.0 -93.55 -6.05 -97.4 -4.85 -100.1 L-5.0 -101.1 -4.9 -102.3" fill="#000000" fill-rule="evenodd" stroke="none"/>
      <path d="M1.55 -110.55 Q1.55 -108.8 0.6 -107.55 -0.4 -106.35 -1.8 -106.35 -3.2 -106.35 -4.15 -107.55 -4.8 -108.35 -5.0 -109.3 L-5.1 -109.95 -5.15 -110.55 Q-5.15 -112.3 -4.15 -113.5 -3.2 -114.75 -1.8 -114.75 -0.4 -114.75 0.6 -113.5 1.55 -112.3 1.55 -110.55 M-4.9 -102.3 L-5.0 -101.1 -4.85 -100.1 Q-6.05 -97.4 -7.0 -93.55 -8.9 -86.15 -10.5 -83.55 L-14.3 -86.0 Q-17.35 -88.0 -17.35 -88.75 -17.35 -90.4 -11.15 -99.05 L-7.7 -104.0 -4.9 -102.3 M4.35 -83.55 L4.35 -85.55 -0.45 -99.45 -0.4 -100.65 Q-0.4 -101.1 -0.9 -101.85 1.9 -102.15 4.05 -104.1 L7.85 -95.9 11.7 -88.1 Q6.2 -85.9 4.35 -83.55" fill="#fe0101" fill-rule="evenodd" stroke="none"/>
    </g>
  </defs>
</svg>
