<?xml version="1.0" encoding="UTF-8" standalone="no"?>
<svg xmlns:xlink="http://www.w3.org/1999/xlink" height="342.0px" width="237.9px" xmlns="http://www.w3.org/2000/svg">
  <g transform="matrix(1, 0, 0, 1, 118.05, 273.9)">
    <use height="151.95" transform="matrix(1.0, 0.0, 0.0, 1.0, -60.75, -140.2)" width="112.35" xlink:href="#shape0"/>
  </g>
  <defs>
    <g id="shape0" transform="matrix(1, 0, 0, 1, 60.75, 140.2)">
      <path d="M23.9 -131.95 Q17.25 -130.2 10.85 -129.0 L16.65 -109.8 21.05 -94.8 21.05 -94.9 22.85 -89.0 Q26.55 -76.8 28.6 -71.25 31.4 -63.65 36.05 -54.15 L43.55 -39.05 Q51.6 -22.0 51.6 -8.65 51.6 -2.85 50.7 -0.45 49.2 3.6 44.15 6.0 32.15 11.75 -9.15 11.75 -43.85 11.75 -50.65 10.55 -52.85 10.2 -53.45 9.35 -54.15 8.4 -55.25 8.0 -60.75 6.0 -60.75 3.5 -60.75 -0.1 -57.7 -0.65 -57.05 -8.2 -45.75 -68.5 L-41.8 -89.0 -40.2 -97.0 Q-34.85 -123.55 -32.05 -131.9 L-32.05 -138.6 Q-19.9 -134.55 -2.0 -134.55 8.75 -134.55 24.3 -139.1 L27.95 -140.2 27.95 -133.05 23.9 -131.95 M5.15 -128.1 Q-4.1 -126.8 -12.75 -126.8 L-15.5 -126.85 -13.35 -124.55 Q-9.8 -120.8 -3.7 -115.9 -0.8 -120.5 5.15 -127.7 L5.15 -128.1 M1.25 -46.4 L0.6 -107.95 Q2.5 -110.3 8.25 -115.45 L6.25 -122.65 2.25 -116.5 -3.55 -108.3 -3.5 -107.8 -3.5 -107.5 -4.45 -46.2 1.25 -46.3 1.3 -46.3 1.25 -46.4 M4.3 -105.4 L4.3 -46.35 18.8 -46.6 23.7 -47.6 Q24.2 -48.0 25.8 -48.8 28.2 -50.4 29.4 -50.55 L16.6 -89.0 14.0 -97.0 9.6 -110.95 7.95 -109.1 4.2 -105.55 4.3 -105.4 M30.95 -46.1 Q25.1 -41.9 -2.0 -41.9 -30.45 -41.9 -38.55 -45.0 -40.45 -45.7 -41.45 -46.7 L-41.95 -43.25 Q-41.05 -43.0 -40.65 -42.45 -39.2 -40.55 -38.55 -40.15 -32.9 -36.8 -4.3 -36.8 17.85 -36.8 26.5 -40.95 27.7 -41.55 30.95 -43.8 L31.6 -44.15 30.95 -46.1 M33.55 -38.35 L31.95 -37.45 Q22.3 -32.5 -4.0 -32.5 L-35.65 -33.75 -31.7 -19.5 Q-31.7 -17.9 -32.3 -17.4 -33.0 -16.8 -35.3 -16.8 -42.3 -16.8 -45.6 -19.0 -48.3 -3.9 -50.95 1.65 L-50.9 1.65 -48.15 2.25 Q-36.05 4.0 20.3 4.0 30.75 2.15 35.6 -0.5 43.1 -4.55 44.0 -7.85 L44.0 -7.9 44.1 -8.75 Q44.1 -11.85 38.0 -27.7 L34.15 -37.45 33.95 -37.15 33.55 -38.35 M-6.6 -109.5 Q-6.6 -111.1 -4.7 -114.3 -11.45 -115.75 -20.95 -127.35 L-25.95 -128.2 Q-23.15 -121.75 -20.15 -118.1 -15.0 -111.9 -6.85 -108.9 L-6.65 -108.8 -6.55 -109.0 -6.6 -109.5 M-27.2 -123.15 L-31.85 -97.0 -33.2 -89.0 -33.55 -86.6 -39.0 -62.5 -40.65 -52.05 -33.9 -49.05 Q-27.45 -46.0 -22.1 -46.0 L-8.05 -46.15 -8.05 -77.8 -8.2 -77.8 Q-8.75 -98.15 -7.6 -105.4 -18.85 -105.8 -27.2 -123.15 M-43.65 -31.45 L-43.7 -31.5 -43.7 -31.45 -44.35 -26.8 -44.85 -23.5 -42.75 -22.4 Q-40.25 -21.1 -37.0 -21.7 -38.8 -24.85 -38.8 -30.3 L-38.85 -34.25 Q-40.75 -34.65 -41.85 -35.1 L-43.0 -35.75 -43.65 -31.45" fill="#000000" fill-rule="evenodd" stroke="none"/>
      <path d="M5.15 -128.1 L5.15 -127.7 Q-0.8 -120.5 -3.7 -115.9 -9.8 -120.8 -13.35 -124.55 L-15.5 -126.85 -12.75 -126.8 Q-4.1 -126.8 5.15 -128.1" fill="#fff1dd" fill-rule="evenodd" stroke="none"/>
      <path d="M4.3 -105.4 L4.2 -105.55 7.95 -109.1 9.6 -110.95 14.0 -97.0 16.6 -89.0 29.4 -50.55 Q28.2 -50.4 25.8 -48.8 24.2 -48.0 23.7 -47.6 L18.8 -46.6 4.3 -46.35 4.3 -105.4 M33.55 -38.35 L33.95 -37.15 34.15 -37.45 38.0 -27.7 Q44.1 -11.85 44.1 -8.75 L44.0 -7.9 44.0 -7.85 Q43.1 -4.55 35.6 -0.5 30.75 2.15 20.3 4.0 -36.05 4.0 -48.15 2.25 L-50.9 1.65 -50.95 1.65 Q-48.3 -3.9 -45.6 -19.0 -42.3 -16.8 -35.3 -16.8 -33.0 -16.8 -32.3 -17.4 -31.7 -17.9 -31.7 -19.5 L-35.65 -33.75 -4.0 -32.5 Q22.3 -32.5 31.95 -37.45 L33.55 -38.35 M-27.2 -123.15 Q-18.85 -105.8 -7.6 -105.4 -8.75 -98.15 -8.2 -77.8 L-8.05 -77.8 -8.05 -46.15 -22.1 -46.0 Q-27.45 -46.0 -33.9 -49.05 L-40.65 -52.05 -39.0 -62.5 -33.55 -86.6 -33.2 -89.0 -31.85 -97.0 -27.2 -123.15" fill="#de4343" fill-rule="evenodd" stroke="none"/>
      <path d="M1.25 -46.3 L-4.45 -46.2 -3.5 -107.5 -3.5 -107.8 -3.55 -108.3 2.25 -116.5 6.25 -122.65 8.25 -115.45 Q2.5 -110.3 0.6 -107.95 L1.25 -46.4 1.25 -46.3 M30.95 -46.1 L31.6 -44.15 30.95 -43.8 Q27.7 -41.55 26.5 -40.95 17.85 -36.8 -4.3 -36.8 -32.9 -36.8 -38.55 -40.15 -39.2 -40.55 -40.65 -42.45 -41.05 -43.0 -41.95 -43.25 L-41.45 -46.7 Q-40.45 -45.7 -38.55 -45.0 -30.45 -41.9 -2.0 -41.9 25.1 -41.9 30.95 -46.1 M-6.85 -108.9 Q-15.0 -111.9 -20.15 -118.1 -23.15 -121.75 -25.95 -128.2 L-20.95 -127.35 Q-11.45 -115.75 -4.7 -114.3 -6.6 -111.1 -6.6 -109.5 L-6.85 -108.9 M-43.7 -31.45 L-43.65 -31.45 -43.0 -35.75 -41.85 -35.1 Q-40.75 -34.65 -38.85 -34.25 L-38.8 -30.3 Q-38.8 -24.85 -37.0 -21.7 -40.25 -21.1 -42.75 -22.4 L-44.85 -23.5 -44.35 -26.8 -43.7 -31.45" fill="#fcf1f1" fill-rule="evenodd" stroke="none"/>
    </g>
  </defs>
</svg>
