<?xml version="1.0" encoding="UTF-8" standalone="no"?>
<svg xmlns:xlink="http://www.w3.org/1999/xlink" height="342.0px" width="237.9px" xmlns="http://www.w3.org/2000/svg">
  <g transform="matrix(1, 0, 0, 1, 118.05, 273.9)">
    <use height="151.95" transform="matrix(1.0, 0.0, 0.0, 1.0, -60.75, -140.2)" width="112.35" xlink:href="#shape0"/>
  </g>
  <defs>
    <g id="shape0" transform="matrix(1, 0, 0, 1, 60.75, 140.2)">
      <path d="M27.95 -140.2 L27.95 -133.05 23.9 -131.95 Q17.25 -130.2 10.85 -129.0 L16.65 -109.8 21.05 -94.8 21.05 -94.9 22.85 -89.0 Q26.55 -76.8 28.6 -71.25 31.4 -63.65 36.05 -54.15 L43.55 -39.05 Q51.6 -22.0 51.6 -8.65 51.6 -2.85 50.7 -0.45 49.2 3.6 44.15 6.0 32.15 11.75 -9.15 11.75 -43.85 11.75 -50.65 10.55 -52.85 10.2 -53.45 9.35 -54.15 8.4 -55.25 8.0 -60.75 6.0 -60.75 3.5 -60.75 -0.1 -57.7 -0.65 -57.05 -8.2 -45.75 -68.5 L-41.8 -89.0 -40.2 -97.0 Q-34.85 -123.55 -32.05 -131.9 L-32.05 -138.6 Q-19.9 -134.55 -2.0 -134.55 8.75 -134.55 24.3 -139.1 L27.95 -140.2 M4.6 -128.0 L-12.75 -126.8 -20.5 -127.25 -15.4 -124.05 -6.85 -118.45 -5.1 -118.8 -3.25 -118.65 Q-1.35 -120.3 1.8 -124.45 L4.6 -128.0 M6.8 -118.8 Q7.45 -119.4 7.15 -119.35 6.85 -119.3 7.1 -119.4 L6.6 -121.25 6.2 -122.75 4.3 -120.4 Q2.4 -118.1 0.75 -116.55 L0.3 -115.15 Q1.25 -115.95 3.7 -117.1 L6.6 -118.7 6.8 -118.8 M2.7 -111.5 L2.7 -110.65 9.15 -98.2 7.55 -113.9 Q4.45 -112.85 2.65 -112.55 L2.7 -111.5 M14.2 -96.4 L14.0 -97.0 13.7 -97.95 13.75 -96.95 14.0 -92.9 13.95 -89.1 13.35 -54.85 Q16.4 -55.2 19.15 -56.3 L19.35 -78.75 19.5 -81.3 15.2 -93.45 14.2 -96.4 M4.95 -98.45 Q1.65 -104.85 0.8 -105.4 L-0.6 -104.45 -1.5 -100.4 Q-0.9 -93.05 3.0 -86.8 L3.9 -87.5 Q8.2 -90.6 8.2 -91.3 8.2 -92.1 4.95 -98.45 M8.55 -83.9 L10.2 -84.6 10.15 -86.7 Q7.6 -84.6 4.9 -83.3 L1.1 -82.6 5.0 -83.05 Q7.1 -83.4 8.55 -83.9 M-7.1 -82.35 L1.1 -82.6 Q0.35 -83.1 0.05 -83.7 L-2.35 -89.6 -3.5 -93.0 Q-4.9 -88.4 -7.25 -82.6 L-7.8 -82.7 Q-11.7 -82.7 -16.05 -87.8 -20.0 -92.35 -20.0 -94.9 -14.55 -104.45 -10.3 -108.35 -10.65 -109.4 -10.6 -110.5 L-10.6 -110.9 -24.75 -114.05 -21.1 -83.55 -20.15 -83.35 Q-16.35 -82.45 -9.65 -82.35 L-7.25 -82.35 -7.1 -82.35 M10.2 -81.15 Q4.8 -79.05 -6.55 -79.05 -17.9 -79.05 -20.75 -80.35 L-19.85 -73.3 Q-19.2 -72.95 -18.75 -72.85 -15.6 -72.1 -12.1 -71.85 L0.2 -72.4 Q9.05 -73.25 10.0 -74.4 L10.2 -81.15 M10.1 -70.7 Q3.8 -68.2 -6.85 -68.25 -17.55 -68.3 -19.45 -69.75 L-17.9 -54.95 -3.7 -54.1 9.9 -54.5 10.1 -70.7 M23.5 -53.1 Q14.75 -49.8 -4.0 -49.8 -26.15 -49.8 -40.2 -55.0 L-40.9 -48.8 Q-38.6 -47.9 -31.1 -45.8 -23.6 -43.75 -4.0 -43.8 15.6 -43.9 20.75 -45.55 25.85 -47.15 27.85 -48.05 29.85 -48.95 29.25 -50.8 L27.8 -55.35 Q26.3 -54.15 23.5 -53.1 M22.85 -57.7 L26.5 -59.35 Q24.9 -63.95 22.85 -71.85 L22.85 -57.7 M32.7 -41.0 L31.05 -45.8 29.05 -44.8 Q17.6 -39.6 -6.25 -39.8 -30.15 -40.05 -38.55 -43.35 L-41.7 -44.7 -41.25 -43.25 Q-38.15 -33.15 -34.65 -26.4 -21.85 -1.95 3.55 -1.95 18.95 -1.95 27.3 -18.25 32.4 -28.2 33.4 -39.15 L32.7 -41.0 M36.25 -32.15 L36.2 -32.35 36.1 -32.1 Q34.45 -26.1 32.1 -20.8 L31.9 -20.35 32.3 -20.7 Q35.4 -21.3 36.15 -23.0 L37.8 -27.85 37.85 -28.05 37.6 -28.75 36.4 -31.85 36.25 -32.1 36.25 -32.15 M39.3 -20.95 Q36.2 -16.2 32.55 -15.65 33.2 -13.9 33.6 -10.95 33.6 -7.5 31.65 -4.95 28.65 -0.95 21.65 -0.95 L18.2 -1.2 Q18.05 1.5 17.0 4.0 L20.3 4.0 Q30.75 2.15 35.6 -0.5 43.1 -4.55 44.0 -7.85 L44.0 -7.9 44.1 -8.75 Q44.1 -11.25 40.1 -22.2 L39.3 -20.95 M29.6 -8.6 Q30.1 -12.2 28.95 -14.8 24.9 -8.1 19.95 -4.15 21.4 -4.7 24.55 -4.15 29.05 -5.0 29.6 -8.6 M3.45 1.85 L4.15 2.4 5.95 3.65 6.55 4.0 6.6 4.0 12.85 4.0 Q13.7 3.05 13.9 1.1 L14.2 -0.6 Q9.3 1.6 3.65 1.6 L3.15 1.6 3.45 1.85 M-21.7 -117.85 Q-16.0 -116.1 -10.8 -115.55 L-17.3 -119.35 Q-22.9 -122.85 -26.75 -125.6 L-27.8 -119.9 -21.7 -117.85 M-6.45 -111.4 L-6.6 -110.4 Q-6.6 -109.15 -5.95 -108.65 -5.2 -108.3 -4.9 -108.0 L-2.5 -108.3 -2.3 -108.6 -2.15 -108.55 Q-1.15 -109.4 -0.9 -111.0 -0.65 -112.6 -2.9 -113.85 L-5.0 -113.9 -5.65 -113.4 -5.9 -113.25 -6.45 -111.4 M-8.55 -105.55 L-12.7 -98.95 Q-14.85 -95.35 -15.7 -94.5 -15.2 -92.2 -13.8 -90.6 -12.45 -89.0 -9.05 -87.5 -7.75 -91.3 -6.4 -96.6 -5.05 -101.95 -4.95 -104.0 -6.35 -104.15 -8.55 -105.55 M-32.25 -94.6 L-31.7 -89.75 -29.7 -70.0 -28.15 -56.8 -21.35 -55.45 Q-24.1 -79.85 -25.8 -93.85 -27.75 -110.15 -28.7 -114.95 L-31.85 -97.0 -32.25 -94.6 M-31.7 -57.65 Q-32.3 -65.65 -34.4 -82.95 L-39.0 -62.5 -39.45 -59.65 -31.7 -57.65 M-43.7 -31.45 L-44.0 -29.3 Q-44.1 -29.0 -43.4 -27.45 -42.75 -25.95 -40.1 -25.1 L-38.85 -24.95 Q-41.15 -28.85 -42.85 -33.05 L-43.25 -34.1 -43.3 -33.6 -43.4 -33.1 -43.65 -31.45 -43.7 -31.5 -43.7 -31.45 M-44.7 -24.4 L-45.25 -20.95 Q-48.15 -4.2 -50.95 1.65 L-50.9 1.65 -48.15 2.25 -20.85 3.65 -21.05 3.35 Q-23.6 -1.0 -23.6 -4.2 -36.9 -4.7 -38.7 -10.7 -39.35 -12.8 -38.6 -15.9 L-37.1 -20.6 Q-38.75 -20.05 -42.9 -23.0 L-44.7 -24.4 M-35.0 -14.0 Q-35.55 -11.65 -33.6 -10.35 -31.65 -9.15 -25.35 -8.95 -29.4 -12.3 -33.1 -16.75 L-33.95 -17.75 -35.0 -14.0 M-20.2 -2.8 Q-20.2 -0.8 -17.2 2.25 L-15.6 3.75 -9.85 3.85 -7.4 2.05 -5.65 0.7 Q-13.1 -0.85 -19.7 -4.85 L-20.2 -2.8 M-0.55 3.95 L-1.9 2.1 -3.85 3.9 -0.55 3.95" fill="#000000" fill-rule="evenodd" stroke="none"/>
      <path d="M4.6 -128.0 L1.8 -124.45 Q-1.35 -120.3 -3.25 -118.65 L-5.1 -118.8 -6.85 -118.45 -15.4 -124.05 -20.5 -127.25 -12.75 -126.8 4.6 -128.0" fill="#fff1dd" fill-rule="evenodd" stroke="none"/>
      <path d="M2.7 -111.5 L2.65 -112.55 Q4.45 -112.85 7.55 -113.9 L9.15 -98.2 2.7 -110.65 2.7 -111.5 M6.8 -118.8 L6.6 -118.7 3.7 -117.1 Q1.25 -115.95 0.3 -115.15 L0.75 -116.55 Q2.4 -118.1 4.3 -120.4 L6.2 -122.75 6.6 -121.25 7.1 -119.4 Q6.85 -119.3 7.15 -119.35 7.45 -119.4 6.8 -118.8 M-7.25 -82.6 Q-4.9 -88.4 -3.5 -93.0 L-2.35 -89.6 0.05 -83.7 Q0.35 -83.1 1.1 -82.6 L-7.1 -82.35 -7.25 -82.6 -7.25 -82.35 -9.65 -82.35 Q-16.35 -82.45 -20.15 -83.35 L-21.1 -83.55 -24.75 -114.05 -10.6 -110.9 -10.6 -110.5 Q-10.65 -109.4 -10.3 -108.35 -14.55 -104.45 -20.0 -94.9 -20.0 -92.35 -16.05 -87.8 -11.7 -82.7 -7.8 -82.7 L-7.25 -82.6 M8.55 -83.9 Q7.1 -83.4 5.0 -83.05 L1.1 -82.6 4.9 -83.3 Q7.6 -84.6 10.15 -86.7 L10.2 -84.6 8.55 -83.9 M10.1 -70.7 L9.9 -54.5 -3.7 -54.1 -17.9 -54.95 -19.45 -69.75 Q-17.55 -68.3 -6.85 -68.25 3.8 -68.2 10.1 -70.7 M32.7 -41.0 L33.4 -39.15 Q32.4 -28.2 27.3 -18.25 18.95 -1.95 3.55 -1.95 -21.85 -1.95 -34.65 -26.4 -38.15 -33.15 -41.25 -43.25 L-41.7 -44.7 -38.55 -43.35 Q-30.15 -40.05 -6.25 -39.8 17.6 -39.6 29.05 -44.8 L31.05 -45.8 32.7 -41.0 M22.85 -57.7 L22.85 -71.85 Q24.9 -63.95 26.5 -59.35 L22.85 -57.7 M36.1 -32.1 L36.25 -32.15 36.25 -32.1 36.4 -31.85 37.6 -28.75 37.85 -28.05 37.8 -27.85 36.15 -23.0 Q35.4 -21.3 32.3 -20.7 L32.1 -20.8 Q34.45 -26.1 36.1 -32.1 M3.65 1.6 Q9.3 1.6 14.2 -0.6 L13.9 1.1 Q13.7 3.05 12.85 4.0 L6.6 4.0 6.55 4.0 5.95 3.65 4.15 2.4 3.45 1.85 3.65 1.6 M29.6 -8.6 Q29.05 -5.0 24.55 -4.15 21.4 -4.7 19.95 -4.15 24.9 -8.1 28.95 -14.8 30.1 -12.2 29.6 -8.6 M-21.7 -117.85 L-27.8 -119.9 -26.75 -125.6 Q-22.9 -122.85 -17.3 -119.35 L-10.8 -115.55 Q-16.0 -116.1 -21.7 -117.85 M-31.7 -57.65 L-39.45 -59.65 -39.0 -62.5 -34.4 -82.95 Q-32.3 -65.65 -31.7 -57.65 M-43.7 -31.45 L-43.65 -31.45 -43.4 -33.1 -42.85 -33.05 Q-41.15 -28.85 -38.85 -24.95 L-40.1 -25.1 Q-42.75 -25.95 -43.4 -27.45 -44.1 -29.0 -44.0 -29.3 L-43.7 -31.45 M-20.2 -2.8 L-19.7 -4.85 Q-13.1 -0.85 -5.65 0.7 L-7.4 2.05 -9.85 3.85 -15.6 3.75 -17.2 2.25 Q-20.2 -0.8 -20.2 -2.8 M-35.0 -14.0 L-33.95 -17.75 -33.1 -16.75 Q-29.4 -12.3 -25.35 -8.95 -31.65 -9.15 -33.6 -10.35 -35.55 -11.65 -35.0 -14.0" fill="#ffffff" fill-rule="evenodd" stroke="none"/>
      <path d="M14.2 -96.4 L15.2 -93.45 19.5 -81.3 19.35 -78.75 19.15 -56.3 Q16.4 -55.2 13.35 -54.85 L13.95 -89.1 14.0 -92.9 13.75 -96.95 13.7 -97.95 14.0 -97.0 14.2 -96.4 M10.2 -81.15 L10.0 -74.4 Q9.05 -73.25 0.2 -72.4 L-12.1 -71.85 Q-15.6 -72.1 -18.75 -72.85 -19.2 -72.95 -19.85 -73.3 L-20.75 -80.35 Q-17.9 -79.05 -6.55 -79.05 4.8 -79.05 10.2 -81.15 M23.5 -53.1 Q26.3 -54.15 27.8 -55.35 L29.25 -50.8 Q29.85 -48.95 27.85 -48.05 25.85 -47.15 20.75 -45.55 15.6 -43.9 -4.0 -43.8 -23.6 -43.75 -31.1 -45.8 -38.6 -47.9 -40.9 -48.8 L-40.2 -55.0 Q-26.15 -49.8 -4.0 -49.8 14.75 -49.8 23.5 -53.1 M36.1 -32.1 L36.25 -32.15 36.1 -32.1 M32.1 -20.8 L32.3 -20.7 31.9 -20.35 32.1 -20.8 M39.3 -20.95 L40.1 -22.2 Q44.1 -11.25 44.1 -8.75 L44.0 -7.9 44.0 -7.85 Q43.1 -4.55 35.6 -0.5 30.75 2.15 20.3 4.0 L17.0 4.0 Q18.05 1.5 18.2 -1.2 L21.65 -0.95 Q28.65 -0.95 31.65 -4.95 33.6 -7.5 33.6 -10.95 33.2 -13.9 32.55 -15.65 36.2 -16.2 39.3 -20.95 M3.65 1.6 L3.45 1.85 3.15 1.6 3.65 1.6 M-32.25 -94.6 L-31.85 -97.0 -28.7 -114.95 Q-27.75 -110.15 -25.8 -93.85 -24.1 -79.85 -21.35 -55.45 L-28.15 -56.8 -29.7 -70.0 -31.7 -89.75 -32.25 -94.6 M-44.7 -24.4 L-42.9 -23.0 Q-38.75 -20.05 -37.1 -20.6 L-38.6 -15.9 Q-39.35 -12.8 -38.7 -10.7 -36.9 -4.7 -23.6 -4.2 -23.6 -1.0 -21.05 3.35 L-20.85 3.65 -48.15 2.25 -50.9 1.65 -50.95 1.65 Q-48.15 -4.2 -45.25 -20.95 L-44.7 -24.4 M-0.55 3.95 L-3.85 3.9 -1.9 2.1 -0.55 3.95" fill="#273daf" fill-rule="evenodd" stroke="none"/>
      <path d="M4.95 -98.45 Q8.2 -92.1 8.2 -91.3 8.2 -90.6 3.9 -87.5 L3.0 -86.8 Q-0.9 -93.05 -1.5 -100.4 L-0.6 -104.45 0.8 -105.4 Q1.65 -104.85 4.95 -98.45 M-8.55 -105.55 Q-6.35 -104.15 -4.95 -104.0 -5.05 -101.95 -6.4 -96.6 -7.75 -91.3 -9.05 -87.5 -12.45 -89.0 -13.8 -90.6 -15.2 -92.2 -15.7 -94.5 -14.85 -95.35 -12.7 -98.95 L-8.55 -105.55 M-6.45 -111.4 L-5.9 -113.25 -5.65 -113.4 -5.0 -113.9 -2.9 -113.85 Q-0.65 -112.6 -0.9 -111.0 -1.15 -109.4 -2.15 -108.55 L-2.3 -108.6 -2.5 -108.3 -4.9 -108.0 Q-5.2 -108.3 -5.95 -108.65 -6.6 -109.15 -6.6 -110.4 L-6.45 -111.4" fill="#bf0000" fill-rule="evenodd" stroke="none"/>
      <path d="M22.75 -130.8 Q27.25 -130.8 27.25 -129.25 27.25 -126.5 24.05 -123.2 22.05 -121.15 19.7 -116.65 L20.0 -116.55 Q27.05 -114.45 28.75 -110.55 21.6 -104.9 21.65 -103.75 21.45 -102.6 25.45 -99.3 28.85 -96.5 28.9 -93.8 28.85 -92.65 26.7 -90.4 24.1 -87.75 24.15 -86.25 24.05 -84.95 27.25 -82.4 29.9 -80.2 29.95 -78.3 29.9 -76.4 27.7 -73.1 25.15 -69.85 25.2 -69.5 25.15 -68.35 27.75 -66.15 L30.0 -64.25 Q28.3 -61.4 23.75 -58.65 L22.8 -58.1 22.3 -77.5 22.3 -77.6 Q20.8 -84.8 19.4 -88.95 L14.8 -101.85 Q12.6 -107.7 11.9 -111.25 11.9 -110.0 10.95 -115.95 L8.9 -128.3 10.35 -128.85 11.7 -129.15 15.95 -130.1 22.75 -130.8 M-46.7 -127.0 Q-46.5 -130.15 -43.15 -130.3 L-40.4 -130.4 Q-38.3 -130.65 -32.9 -129.55 -27.55 -128.5 -27.6 -128.1 -27.6 -126.7 -28.75 -122.5 L-29.45 -120.0 -29.5 -120.0 Q-33.85 -101.65 -33.85 -97.45 -33.85 -89.25 -31.75 -79.25 -29.7 -69.3 -29.0 -63.15 -28.3 -57.0 -28.5 -56.35 -29.6 -56.25 -33.5 -59.1 -37.4 -62.0 -35.05 -66.5 -32.75 -71.05 -32.75 -71.8 -32.75 -73.1 -37.45 -74.25 -42.2 -75.4 -42.2 -77.55 -42.2 -78.8 -39.5 -81.3 -36.85 -83.85 -36.85 -86.05 -36.85 -86.95 -40.95 -89.15 -45.7 -91.7 -46.5 -92.5 -43.9 -97.05 -38.5 -103.5 -38.5 -104.45 -43.05 -107.65 L-44.55 -108.75 -47.85 -110.95 Q-45.6 -113.8 -41.7 -115.25 L-40.55 -115.55 Q-42.75 -119.15 -44.85 -121.5 -46.95 -123.85 -46.7 -127.0" fill="#ffffff" fill-rule="evenodd" stroke="none"/>
      <path d="M30.5 -129.45 Q30.5 -126.95 28.25 -122.8 26.45 -119.55 24.65 -118.45 L26.8 -117.15 Q32.55 -113.35 32.45 -110.4 32.45 -107.75 30.85 -106.7 L30.85 -106.65 Q28.0 -104.8 26.85 -103.75 L30.75 -98.85 Q32.45 -96.6 32.45 -94.1 32.45 -91.2 31.95 -90.4 L31.95 -90.35 29.0 -86.7 29.8 -85.95 32.5 -82.2 Q36.05 -76.9 30.15 -69.45 30.9 -68.45 32.5 -67.35 34.05 -66.3 34.05 -64.6 34.1 -62.35 29.5 -58.1 24.85 -53.95 21.7 -54.05 L19.35 -54.45 Q18.25 -54.95 18.55 -55.85 L18.5 -55.85 Q18.75 -56.9 18.8 -60.2 L18.6 -74.55 Q18.35 -85.4 14.55 -93.45 L14.55 -93.4 Q10.7 -101.65 9.9 -105.4 L7.75 -116.2 Q6.35 -123.15 5.7 -124.8 4.8 -127.6 4.8 -128.2 4.8 -129.85 5.1 -130.35 6.05 -131.9 15.3 -132.85 19.7 -133.95 22.75 -133.95 30.35 -133.95 30.5 -129.45 M22.75 -130.8 L15.95 -130.1 11.7 -129.15 10.35 -128.85 8.9 -128.3 10.95 -115.95 Q11.9 -110.0 11.9 -111.25 12.6 -107.7 14.8 -101.85 L19.4 -88.95 Q20.8 -84.8 22.3 -77.6 L22.3 -77.5 22.8 -58.1 23.75 -58.65 Q28.3 -61.4 30.0 -64.25 L27.75 -66.15 Q25.15 -68.35 25.2 -69.5 25.15 -69.85 27.7 -73.1 29.9 -76.4 29.95 -78.3 29.9 -80.2 27.25 -82.4 24.05 -84.95 24.15 -86.25 24.1 -87.75 26.7 -90.4 28.85 -92.65 28.9 -93.8 28.85 -96.5 25.45 -99.3 21.45 -102.6 21.65 -103.75 21.6 -104.9 28.75 -110.55 27.05 -114.45 20.0 -116.55 L19.7 -116.65 Q22.05 -121.15 24.05 -123.2 27.25 -126.5 27.25 -129.25 27.25 -130.8 22.75 -130.8 M-48.8 -130.8 Q-46.8 -133.35 -41.1 -133.35 -35.2 -133.35 -26.5 -131.3 L-24.7 -130.95 -24.5 -128.75 Q-24.55 -127.65 -26.5 -117.25 L-31.05 -97.55 Q-31.05 -94.7 -28.2 -77.7 -25.35 -60.75 -25.35 -55.95 -25.35 -53.9 -27.35 -53.45 L-27.55 -53.4 -28.0 -53.35 -28.1 -53.35 -28.5 -53.35 -29.5 -53.5 Q-36.85 -54.85 -39.65 -63.7 -39.65 -65.35 -38.7 -67.2 L-36.85 -70.4 Q-40.3 -69.9 -43.1 -73.15 -45.35 -75.8 -45.35 -77.55 -45.35 -78.55 -43.8 -80.65 L-40.8 -84.8 -46.85 -88.45 Q-49.35 -90.3 -49.35 -92.45 -49.35 -95.35 -43.5 -103.8 L-48.0 -107.1 Q-51.7 -109.9 -51.7 -111.55 -51.7 -113.7 -47.9 -116.15 L-45.5 -117.4 Q-48.9 -119.25 -49.95 -126.15 -49.95 -129.35 -48.8 -130.8 M-46.7 -127.0 Q-46.95 -123.85 -44.85 -121.5 -42.75 -119.15 -40.55 -115.55 L-41.7 -115.25 Q-45.6 -113.8 -47.85 -110.95 L-44.55 -108.75 -43.05 -107.65 Q-38.5 -104.45 -38.5 -103.5 -43.9 -97.05 -46.5 -92.5 -45.7 -91.7 -40.95 -89.15 -36.85 -86.95 -36.85 -86.05 -36.85 -83.85 -39.5 -81.3 -42.2 -78.8 -42.2 -77.55 -42.2 -75.4 -37.45 -74.25 -32.75 -73.1 -32.75 -71.8 -32.75 -71.05 -35.05 -66.5 -37.4 -62.0 -33.5 -59.1 -29.6 -56.25 -28.5 -56.35 -28.3 -57.0 -29.0 -63.15 -29.7 -69.3 -31.75 -79.25 -33.85 -89.25 -33.85 -97.45 -33.85 -101.65 -29.5 -120.0 L-29.45 -120.0 -28.75 -122.5 Q-27.6 -126.7 -27.6 -128.1 -27.55 -128.5 -32.9 -129.55 -38.3 -130.65 -40.4 -130.4 L-43.15 -130.3 Q-46.5 -130.15 -46.7 -127.0 M-30.35 -54.15 L-30.3 -54.05 -30.35 -54.1 -30.35 -54.15" fill="#000000" fill-rule="evenodd" stroke="none"/>
    </g>
  </defs>
</svg>
