<?xml version="1.0" encoding="UTF-8" standalone="no"?>
<svg xmlns:xlink="http://www.w3.org/1999/xlink" height="342.0px" width="237.9px" xmlns="http://www.w3.org/2000/svg">
  <g transform="matrix(1, 0, 0, 1, 118.05, 273.9)">
    <use height="151.95" transform="matrix(1.0, 0.0, 0.0, 1.0, -60.75, -140.2)" width="112.35" xlink:href="#shape0"/>
  </g>
  <defs>
    <g id="shape0" transform="matrix(1, 0, 0, 1, 60.75, 140.2)">
      <path d="M27.95 -133.05 L23.9 -131.95 Q18.0 -130.4 12.3 -129.3 L12.3 -127.05 12.15 -124.8 16.65 -109.8 21.05 -94.8 21.05 -94.9 22.85 -89.0 24.05 -85.0 Q25.9 -79.05 27.3 -75.05 L28.6 -71.25 Q31.4 -63.65 36.05 -54.15 L43.55 -39.05 Q51.6 -22.0 51.6 -8.65 51.6 -2.85 50.7 -0.45 49.2 3.6 44.15 6.0 L44.05 6.05 43.95 6.1 23.3 10.5 21.9 10.6 18.3 10.9 -9.15 11.75 Q-43.85 11.75 -50.65 10.55 -52.85 10.2 -53.45 9.35 -54.15 8.4 -55.25 8.0 -60.75 6.0 -60.75 3.5 -60.75 -0.1 -57.7 -0.65 -57.05 -8.2 -45.75 -68.5 L-41.8 -89.0 -40.2 -97.0 Q-34.95 -123.0 -32.15 -131.55 L-32.25 -133.2 -32.05 -135.0 -32.05 -138.6 Q-19.9 -134.55 -2.0 -134.55 8.75 -134.55 24.3 -139.1 L27.95 -140.2 27.95 -133.05 M5.4 -126.15 L4.9 -124.75 4.3 -123.15 4.3 -123.1 4.05 -122.5 -1.35 -109.85 -1.85 -108.75 -2.0 -108.45 -2.55 -107.25 Q-7.45 -96.4 -9.9 -91.55 -9.9 -88.3 -11.35 -79.3 L-6.9 -87.05 2.1 -102.15 Q2.7 -108.25 4.2 -116.3 L5.15 -121.1 5.45 -122.55 5.85 -124.3 5.4 -126.15 M2.45 -90.45 L-2.5 -81.45 Q-11.6 -65.25 -13.5 -65.25 L-13.95 -65.3 -14.5 -62.75 Q-3.15 -62.85 8.1 -65.25 L9.8 -65.05 6.8 -74.9 Q3.65 -85.5 2.45 -90.45 M18.35 -83.65 L16.6 -89.0 14.0 -97.0 9.8 -110.25 Q7.65 -98.6 7.65 -93.9 7.65 -90.35 13.7 -72.45 L19.95 -54.6 Q23.55 -43.25 28.5 -35.25 29.8 -33.1 33.0 -31.2 33.5 -30.9 37.6 -28.75 L34.6 -36.35 Q27.1 -57.2 21.9 -72.8 L18.35 -83.65 M6.9 -52.05 L12.2 -52.25 13.55 -52.3 13.9 -52.35 13.5 -53.4 13.25 -54.2 11.8 -58.55 7.65 -57.85 7.65 -57.6 6.9 -52.05 M0.8 -56.9 L-5.45 -56.15 -6.1 -51.4 0.6 -51.8 0.8 -56.9 M38.05 -16.4 Q36.35 -17.3 34.5 -18.5 25.9 -24.15 21.75 -33.15 L16.5 -45.6 15.3 -45.3 9.7 -44.6 18.15 -31.35 Q18.15 -28.8 12.35 -23.45 6.6 -18.15 4.05 -18.15 L0.9 -18.75 Q0.25 -22.2 -0.85 -31.1 L-1.7 -35.95 -2.9 -30.0 Q-5.45 -18.15 -7.65 -18.15 -12.45 -18.15 -20.55 -29.1 -20.55 -33.4 -15.6 -41.45 L-13.8 -44.1 -19.5 -44.65 Q-30.25 -12.3 -46.35 -10.05 L-47.4 -9.95 Q-49.2 -2.05 -50.95 1.65 L-50.9 1.65 -48.15 2.25 -8.1 3.85 -6.35 3.9 -5.6 3.9 -4.85 3.9 -5.05 2.7 -5.1 2.5 -5.25 -3.75 -5.25 -6.4 -5.2 -11.1 Q-4.75 -15.75 -2.25 -15.75 1.65 -15.75 0.6 -3.9 L0.6 -0.15 0.5 3.95 5.15 4.0 6.6 4.0 7.05 4.0 12.3 4.0 20.3 4.0 23.9 3.3 32.55 0.9 35.6 -0.5 Q43.1 -4.55 44.0 -7.85 L44.0 -7.9 44.1 -8.75 Q44.1 -10.25 42.7 -14.7 L42.3 -14.7 Q40.3 -15.25 38.05 -16.4 M4.25 -40.6 L4.05 -40.8 4.05 -40.5 Q4.05 -35.7 6.45 -27.6 L8.65 -29.4 Q10.2 -30.7 10.2 -31.35 10.2 -33.2 4.25 -40.6 M-10.7 -126.8 Q-7.25 -122.35 -4.7 -118.0 L-0.15 -127.45 -10.7 -126.8 M-36.75 -72.55 L-38.9 -63.0 -39.0 -62.5 -42.8 -37.8 -42.8 -37.75 -43.65 -31.45 -43.7 -31.5 -44.35 -26.8 -45.25 -20.95 -45.25 -20.85 -41.35 -23.3 Q-28.2 -32.75 -24.0 -52.05 L-19.9 -69.65 Q-15.9 -87.6 -15.9 -91.8 -15.9 -94.55 -18.45 -99.85 L-24.05 -110.45 -28.05 -118.45 -31.85 -97.0 -33.2 -89.0 -33.55 -86.6 -34.6 -82.15 -34.9 -80.75 -36.75 -72.55 M-7.2 -112.6 L-18.75 -127.1 -23.85 -127.8 Q-19.8 -118.85 -12.85 -99.9 L-7.2 -112.6 M-17.6 -50.75 L-17.75 -50.2 -16.5 -50.45 -16.25 -50.5 -12.2 -50.95 -12.3 -52.65 -12.25 -55.85 -16.1 -56.2 -17.3 -51.85 -17.6 -50.75 M-8.25 -42.0 Q-8.55 -42.0 -10.8 -36.6 L-13.5 -29.7 Q-12.35 -27.95 -10.2 -27.6 -7.7 -36.7 -7.65 -42.0 L-8.25 -42.0" fill="#000000" fill-rule="evenodd" stroke="none"/>
      <path d="M2.45 -90.45 Q3.65 -85.5 6.8 -74.9 L9.8 -65.05 8.1 -65.25 Q-3.15 -62.85 -14.5 -62.75 L-13.95 -65.3 -13.5 -65.25 Q-11.6 -65.25 -2.5 -81.45 L2.45 -90.45 M5.4 -126.15 L5.85 -124.3 5.45 -122.55 5.15 -121.1 4.2 -116.3 Q2.7 -108.25 2.1 -102.15 L-6.9 -87.05 -11.35 -79.3 Q-9.9 -88.3 -9.9 -91.55 -7.45 -96.4 -2.55 -107.25 L-2.0 -108.45 -1.85 -108.75 -1.35 -109.85 4.05 -122.5 4.3 -123.1 4.3 -123.15 4.9 -124.75 5.4 -126.15 M21.9 -72.8 Q19.65 -73.0 18.05 -74.6 16.2 -76.45 16.2 -79.0 16.2 -81.55 18.05 -83.35 L18.35 -83.65 21.9 -72.8 M-46.35 -10.05 Q-30.25 -12.3 -19.5 -44.65 L-13.8 -44.1 -15.6 -41.45 Q-20.55 -33.4 -20.55 -29.1 -12.45 -18.15 -7.65 -18.15 -5.45 -18.15 -2.9 -30.0 L-1.7 -35.95 -0.85 -31.1 Q0.25 -22.2 0.9 -18.75 L4.05 -18.15 Q6.6 -18.15 12.35 -23.45 18.15 -28.8 18.15 -31.35 L9.7 -44.6 15.3 -45.3 16.5 -45.6 21.75 -33.15 Q25.9 -24.15 34.5 -18.5 36.35 -17.3 38.05 -16.4 L35.55 -9.6 25.2 -20.55 17.85 -0.45 9.3 -12.3 0.6 -0.15 0.6 -3.9 Q1.65 -15.75 -2.25 -15.75 -4.75 -15.75 -5.2 -11.1 L-5.25 -6.4 -11.5 -15.6 -18.45 -1.85 -26.45 -19.85 -40.8 -1.65 -46.35 -10.05 M-34.9 -80.75 Q-33.35 -81.85 -31.35 -81.85 -28.75 -81.85 -26.9 -80.0 -25.1 -78.2 -25.1 -75.65 -25.1 -73.1 -26.9 -71.25 -28.75 -69.45 -31.35 -69.45 -33.95 -69.45 -35.75 -71.25 L-36.75 -72.55 -34.9 -80.75 M-7.2 -112.6 L-12.85 -99.9 Q-19.8 -118.85 -23.85 -127.8 L-18.75 -127.1 -7.2 -112.6" fill="#ffffff" fill-rule="evenodd" stroke="none"/>
      <path d="M18.35 -83.65 L18.05 -83.35 Q16.2 -81.55 16.2 -79.0 16.2 -76.45 18.05 -74.6 19.65 -73.0 21.9 -72.8 27.1 -57.2 34.6 -36.35 L37.6 -28.75 Q33.5 -30.9 33.0 -31.2 29.8 -33.1 28.5 -35.25 23.55 -43.25 19.95 -54.6 L13.7 -72.45 Q7.65 -90.35 7.65 -93.9 7.65 -98.6 9.8 -110.25 L14.0 -97.0 16.6 -89.0 18.35 -83.65 M-46.35 -10.05 L-40.8 -1.65 -26.45 -19.85 -18.45 -1.85 -11.5 -15.6 -5.25 -6.4 -5.25 -3.75 -5.1 2.5 -5.05 2.7 -4.85 3.9 -5.6 3.9 -6.35 3.9 -8.1 3.85 -48.15 2.25 -50.9 1.65 -50.95 1.65 Q-49.2 -2.05 -47.4 -9.95 L-46.35 -10.05 M0.6 -0.15 L9.3 -12.3 17.85 -0.45 25.2 -20.55 35.55 -9.6 38.05 -16.4 Q40.3 -15.25 42.3 -14.7 L42.7 -14.7 Q44.1 -10.25 44.1 -8.75 L44.0 -7.9 44.0 -7.85 Q43.1 -4.55 35.6 -0.5 L32.55 0.9 23.9 3.3 20.3 4.0 12.3 4.0 7.05 4.0 6.6 4.0 5.15 4.0 0.5 3.95 0.6 -0.15 M-34.9 -80.75 L-34.6 -82.15 -33.55 -86.6 -33.2 -89.0 -31.85 -97.0 -28.05 -118.45 -24.05 -110.45 -18.45 -99.85 Q-15.9 -94.55 -15.9 -91.8 -15.9 -87.6 -19.9 -69.65 L-24.0 -52.05 Q-28.2 -32.75 -41.35 -23.3 L-45.25 -20.85 -45.25 -20.95 -44.35 -26.8 -43.7 -31.5 -43.65 -31.45 -42.8 -37.75 -42.8 -37.8 -39.0 -62.5 -38.9 -63.0 -36.75 -72.55 -35.75 -71.25 Q-33.95 -69.45 -31.35 -69.45 -28.75 -69.45 -26.9 -71.25 -25.1 -73.1 -25.1 -75.65 -25.1 -78.2 -26.9 -80.0 -28.75 -81.85 -31.35 -81.85 -33.35 -81.85 -34.9 -80.75" fill="#f40202" fill-rule="evenodd" stroke="none"/>
      <path d="M0.8 -56.9 L0.6 -51.8 -6.1 -51.4 -5.45 -56.15 0.8 -56.9 M6.9 -52.05 L7.65 -57.6 7.65 -57.85 11.8 -58.55 13.25 -54.2 13.5 -53.4 13.9 -52.35 13.55 -52.3 12.2 -52.25 6.9 -52.05 M4.25 -40.6 Q10.2 -33.2 10.2 -31.35 10.2 -30.7 8.65 -29.4 L6.45 -27.6 Q4.05 -35.7 4.05 -40.5 L4.25 -40.6 M-17.6 -50.75 L-17.3 -51.85 -16.1 -56.2 -12.25 -55.85 -12.3 -52.65 -12.2 -50.95 -16.25 -50.5 -16.5 -50.45 -17.75 -50.2 -17.6 -50.75 M-8.25 -42.0 L-7.65 -42.0 Q-7.7 -36.7 -10.2 -27.6 -12.35 -27.95 -13.5 -29.7 L-10.8 -36.6 Q-8.55 -42.0 -8.25 -42.0" fill="#423e3e" fill-rule="evenodd" stroke="none"/>
      <path d="M-10.7 -126.8 L-0.15 -127.45 -4.7 -118.0 Q-7.25 -122.35 -10.7 -126.8" fill="#fff1dd" fill-rule="evenodd" stroke="none"/>
    </g>
  </defs>
</svg>
