<?xml version="1.0" encoding="UTF-8" standalone="no"?>
<svg xmlns:xlink="http://www.w3.org/1999/xlink" height="342.0px" width="237.9px" xmlns="http://www.w3.org/2000/svg">
  <g transform="matrix(1, 0, 0, 1, 118.05, 273.9)">
    <use height="151.95" transform="matrix(1.0, 0.0, 0.0, 1.0, -60.75, -140.2)" width="112.35" xlink:href="#shape0"/>
  </g>
  <defs>
    <g id="shape0" transform="matrix(1, 0, 0, 1, 60.75, 140.2)">
      <path d="M2.95 -127.8 Q1.6 -126.3 0.55 -124.3 -2.95 -117.8 -4.6 -116.1 -9.9 -119.65 -18.1 -127.0 L-12.75 -126.8 2.95 -127.8" fill="#fff1dd" fill-rule="evenodd" stroke="none"/>
      <path d="M2.95 -127.8 L-12.75 -126.8 -18.1 -127.0 Q-9.9 -119.65 -4.6 -116.1 -2.95 -117.8 0.55 -124.3 1.6 -126.3 2.95 -127.8 M3.15 -118.05 L-2.45 -110.95 -2.5 -110.7 Q1.4 -100.9 7.95 -85.9 L21.1 -54.95 Q24.55 -57.85 26.7 -59.25 20.55 -76.85 16.6 -89.0 L14.0 -97.0 Q8.4 -114.45 6.35 -122.3 L3.15 -118.05 M27.95 -140.2 L27.95 -133.05 23.9 -131.95 Q17.25 -130.2 10.85 -129.0 L16.65 -109.8 21.05 -94.8 21.05 -94.9 22.85 -89.0 Q26.55 -76.8 28.6 -71.25 31.4 -63.65 36.05 -54.15 L43.55 -39.05 Q51.6 -22.0 51.6 -8.65 51.6 -2.85 50.7 -0.45 49.2 3.6 44.15 6.0 32.15 11.75 -9.15 11.75 -43.85 11.75 -50.65 10.55 -52.85 10.2 -53.45 9.35 -54.15 8.4 -55.25 8.0 -60.75 6.0 -60.75 3.5 -60.75 -0.1 -57.7 -0.65 -57.05 -8.2 -45.75 -68.5 L-41.8 -89.0 -40.2 -97.0 Q-34.85 -123.55 -32.05 -131.9 L-32.05 -138.6 Q-19.9 -134.55 -2.0 -134.55 8.75 -134.55 24.3 -139.1 L27.95 -140.2 M11.95 -54.75 Q5.7 -52.1 -3.3 -52.1 -13.7 -52.1 -17.85 -53.55 L-18.6 -50.95 -2.0 -48.8 Q7.2 -48.8 12.6 -51.4 L15.25 -52.85 13.8 -55.6 11.95 -54.75 M11.75 -60.35 L11.65 -60.6 7.75 -71.25 Q5.55 -77.35 4.35 -79.65 2.4 -83.4 -1.35 -93.05 -0.45 -81.75 0.35 -62.55 L0.25 -57.4 Q8.35 -57.75 10.75 -59.4 L11.75 -60.35 M39.35 -24.2 L38.0 -27.7 35.65 -33.75 36.25 -32.3 28.6 -53.9 26.9 -52.35 Q21.55 -47.5 21.1 -47.5 20.0 -47.5 18.8 -48.35 17.65 -47.6 15.85 -46.8 9.0 -43.7 -2.35 -43.7 -12.55 -43.7 -17.1 -45.2 -18.75 -45.75 -19.85 -46.55 L-20.15 -45.6 Q-24.95 -45.6 -32.35 -50.3 -37.95 -53.8 -39.9 -56.85 L-42.8 -37.8 -42.8 -37.75 -43.65 -31.45 -43.7 -31.5 -43.7 -31.45 -44.35 -26.8 -44.45 -26.25 -45.05 -22.1 -45.25 -20.95 -47.25 -10.7 -47.25 -10.65 -47.0 -10.65 Q-18.25 -6.5 -11.85 -6.5 22.65 -6.5 37.85 -13.45 L42.4 -15.65 41.75 -17.55 41.55 -18.15 40.75 -20.4 40.15 -22.1 39.35 -24.2 M44.1 -8.75 L43.55 -11.75 Q41.9 -9.9 34.2 -5.35 26.45 -0.8 -3.25 -0.65 -32.95 -0.5 -48.75 -4.6 -49.85 -0.65 -50.95 1.65 L-50.9 1.65 -48.15 2.25 Q-36.05 4.0 20.3 4.0 30.75 2.15 35.6 -0.5 43.1 -4.55 44.0 -7.85 L44.0 -7.9 44.1 -8.75 M-38.55 -60.65 Q-27.55 -53.75 -22.55 -52.1 -21.25 -56.2 -13.3 -89.55 -9.85 -103.95 -7.7 -110.55 -14.2 -114.0 -26.0 -128.25 L-26.25 -128.3 -31.85 -97.0 -33.2 -89.0 -33.55 -86.6 -39.0 -62.5 -39.25 -60.75 -39.3 -60.6 -38.55 -60.65 M-6.2 -95.65 L-16.2 -59.45 -16.05 -59.35 -15.5 -58.5 Q-13.95 -57.35 -3.9 -57.35 L-2.45 -57.35 Q-3.5 -62.0 -5.1 -81.4 L-6.2 -95.65" fill="#000000" fill-rule="evenodd" stroke="none"/>
      <path d="M3.15 -118.05 L6.35 -122.3 Q8.4 -114.45 14.0 -97.0 L16.6 -89.0 Q20.55 -76.85 26.7 -59.25 24.55 -57.85 21.1 -54.95 L7.95 -85.9 Q1.4 -100.9 -2.5 -110.7 L-2.45 -110.95 3.15 -118.05 M-39.25 -60.75 L-39.0 -62.5 -33.55 -86.6 -33.2 -89.0 -31.85 -97.0 -26.25 -128.3 -26.0 -128.25 Q-14.2 -114.0 -7.7 -110.55 -9.85 -103.95 -13.3 -89.55 -21.25 -56.2 -22.55 -52.1 -27.55 -53.75 -38.55 -60.65 L-39.25 -60.75 M44.1 -8.75 L44.0 -7.9 44.0 -7.85 Q43.1 -4.55 35.6 -0.5 30.75 2.15 20.3 4.0 -36.05 4.0 -48.15 2.25 L-50.9 1.65 -50.95 1.65 Q-49.85 -0.65 -48.75 -4.6 -32.95 -0.5 -3.25 -0.65 26.45 -0.8 34.2 -5.35 41.9 -9.9 43.55 -11.75 L44.1 -8.75" fill="#373737" fill-rule="evenodd" stroke="none"/>
      <path d="M11.95 -54.75 L13.8 -55.6 15.25 -52.85 12.6 -51.4 Q7.2 -48.8 -2.0 -48.8 L-18.6 -50.95 -17.85 -53.55 Q-13.7 -52.1 -3.3 -52.1 5.7 -52.1 11.95 -54.75" fill="#770000" fill-rule="evenodd" stroke="none"/>
      <path d="M11.75 -60.35 L10.75 -59.4 Q8.35 -57.75 0.25 -57.4 L0.35 -62.55 Q-0.45 -81.75 -1.35 -93.05 2.4 -83.4 4.35 -79.65 5.55 -77.35 7.75 -71.25 L11.65 -60.6 11.75 -60.35 M-6.2 -95.65 L-5.1 -81.4 Q-3.5 -62.0 -2.45 -57.35 L-3.9 -57.35 Q-13.95 -57.35 -15.5 -58.5 L-16.05 -59.35 -16.2 -59.45 -6.2 -95.65" fill="#ffffff" fill-rule="evenodd" stroke="none"/>
      <path d="M-43.65 -31.45 L-42.8 -37.75 -42.8 -37.8 -39.9 -56.85 Q-37.95 -53.8 -32.35 -50.3 -24.95 -45.6 -20.15 -45.6 L-19.85 -46.55 Q-18.75 -45.75 -17.1 -45.2 -12.55 -43.7 -2.35 -43.7 9.0 -43.7 15.85 -46.8 17.65 -47.6 18.8 -48.35 20.0 -47.5 21.1 -47.5 21.55 -47.5 26.9 -52.35 L28.6 -53.9 36.25 -32.3 35.65 -33.75 38.0 -27.7 39.35 -24.2 Q38.25 -23.8 38.25 -23.1 L38.3 -22.35 Q38.75 -22.0 39.5 -21.75 L40.15 -22.1 40.75 -20.4 Q40.45 -19.5 38.1 -19.5 36.6 -19.5 36.75 -22.6 36.9 -25.75 35.5 -25.75 34.25 -25.75 34.25 -22.35 33.95 -20.7 34.3 -19.4 35.05 -16.75 38.5 -16.75 40.3 -16.75 41.75 -17.55 L42.4 -15.65 37.85 -13.45 Q22.65 -6.5 -11.85 -6.5 -18.25 -6.5 -47.0 -10.65 L-47.25 -10.7 -45.25 -20.95 -45.05 -22.1 -44.0 -23.35 Q-41.4 -26.1 -37.35 -26.1 -35.25 -26.1 -35.25 -21.4 -35.25 -20.7 -36.0 -18.85 -36.75 -16.95 -36.75 -15.6 -36.65 -9.75 -33.0 -9.75 -31.6 -9.75 -29.5 -11.25 -27.25 -12.85 -27.25 -14.3 -27.25 -16.25 -28.5 -16.25 -29.75 -16.25 -29.75 -15.85 -30.0 -13.55 -33.25 -12.75 -34.25 -14.15 -34.25 -15.15 -34.25 -16.3 -33.5 -18.15 -32.75 -20.0 -32.75 -21.55 L-33.25 -25.2 Q-34.5 -28.75 -38.5 -28.75 -41.35 -28.75 -44.45 -26.25 L-44.35 -26.8 -43.7 -31.45 -43.65 -31.45 M22.0 -18.25 Q20.75 -17.85 20.75 -17.1 L20.8 -16.35 Q21.25 -16.0 22.0 -15.75 23.25 -16.3 23.25 -17.25 22.8 -17.9 22.0 -18.25 M31.25 -15.0 L32.25 -14.75 Q32.8 -14.75 33.75 -16.25 33.05 -17.25 32.25 -17.25 L31.05 -17.15 Q30.75 -16.95 30.75 -16.1 30.75 -15.4 31.25 -15.0 M2.5 -15.75 Q3.0 -15.85 3.55 -16.25 L3.75 -17.35 Q3.75 -18.75 2.5 -18.75 1.25 -18.75 1.25 -17.3 1.25 -16.85 2.5 -15.75 M17.8 -21.65 Q17.25 -18.45 17.25 -16.75 16.55 -11.25 21.75 -11.25 25.5 -11.25 27.55 -13.35 29.25 -15.1 29.25 -17.3 29.65 -20.75 26.5 -20.75 24.25 -20.75 24.25 -19.1 L24.3 -18.35 26.75 -17.25 Q25.05 -13.85 20.8 -13.85 19.75 -13.85 19.75 -16.85 19.75 -18.1 20.75 -23.05 21.1 -25.75 19.5 -25.75 18.55 -25.75 17.8 -21.65 M13.25 -15.05 Q13.25 -16.3 13.0 -16.0 L11.75 -16.25 7.8 -14.85 7.75 -15.1 8.1 -20.9 Q7.55 -25.25 3.0 -25.25 -0.95 -25.25 -2.85 -22.0 -4.25 -19.7 -4.25 -16.9 -4.25 -15.4 -4.05 -15.1 -3.65 -14.35 -1.35 -12.6 -2.55 -11.3 -4.15 -11.1 -5.25 -11.0 -5.25 -10.0 -5.25 -8.25 -3.25 -8.25 -2.4 -8.25 -0.65 -9.6 1.25 -11.1 1.25 -12.15 1.25 -14.15 -1.75 -17.25 -1.0 -22.6 4.05 -22.6 4.6 -22.6 4.7 -21.0 L4.85 -17.4 Q5.2 -12.25 8.5 -12.25 10.05 -12.25 11.55 -13.0 13.25 -13.85 13.25 -15.05 M14.25 -20.55 Q14.25 -21.8 14.0 -21.5 L12.5 -21.75 11.45 -21.6 Q10.75 -21.4 10.75 -20.6 L10.8 -19.85 Q11.55 -19.25 12.5 -19.25 13.75 -19.25 14.05 -19.6 L14.25 -20.55 M-42.75 -17.8 Q-42.75 -16.65 -41.5 -16.25 -40.5 -16.4 -39.75 -18.25 -40.45 -19.25 -41.25 -19.25 -42.75 -19.25 -42.75 -17.8 M-8.5 -10.75 L-7.35 -11.25 -7.25 -12.35 Q-7.25 -13.75 -8.5 -13.75 -9.75 -13.75 -9.75 -12.3 L-8.5 -10.75 M-16.0 -20.25 L-17.0 -19.75 Q-17.75 -19.2 -17.75 -18.6 L-17.6 -17.85 Q-17.0 -17.25 -16.0 -17.25 L-14.5 -17.5 -14.25 -18.5 -14.5 -19.45 Q-14.95 -20.25 -16.0 -20.25 M-20.75 -12.75 L-21.0 -14.6 Q-21.0 -16.8 -17.25 -22.85 -17.25 -24.25 -18.75 -24.25 -20.05 -24.25 -22.0 -19.75 -23.75 -15.75 -23.75 -14.5 -23.9 -9.75 -19.25 -9.75 -14.05 -9.75 -10.5 -14.35 -7.75 -18.0 -7.75 -20.75 -7.55 -23.25 -9.5 -23.25 L-10.75 -22.5 Q-10.65 -19.65 -11.8 -17.2 -14.0 -12.35 -20.1 -12.35 -21.35 -12.35 -20.75 -12.75 M-29.0 -20.75 L-27.85 -21.25 -27.75 -22.35 Q-27.75 -23.75 -29.0 -23.75 -30.25 -23.75 -30.25 -22.3 -30.25 -21.95 -29.0 -20.75" fill="#e60000" fill-rule="evenodd" stroke="none"/>
      <path d="M-44.45 -26.25 Q-41.35 -28.75 -38.5 -28.75 -34.5 -28.75 -33.25 -25.2 L-32.75 -21.55 Q-32.75 -20.0 -33.5 -18.15 -34.25 -16.3 -34.25 -15.15 -34.25 -14.15 -33.25 -12.75 -30.0 -13.55 -29.75 -15.85 -29.75 -16.25 -28.5 -16.25 -27.25 -16.25 -27.25 -14.3 -27.25 -12.85 -29.5 -11.25 -31.6 -9.75 -33.0 -9.75 -36.65 -9.75 -36.75 -15.6 -36.75 -16.95 -36.0 -18.85 -35.25 -20.7 -35.25 -21.4 -35.25 -26.1 -37.35 -26.1 -41.4 -26.1 -44.0 -23.35 L-45.05 -22.1 -44.45 -26.25 M41.75 -17.55 Q40.3 -16.75 38.5 -16.75 35.05 -16.75 34.3 -19.4 33.95 -20.7 34.25 -22.35 34.25 -25.75 35.5 -25.75 36.9 -25.75 36.75 -22.6 36.6 -19.5 38.1 -19.5 40.45 -19.5 40.75 -20.4 L41.55 -18.15 41.75 -17.55 M40.15 -22.1 L39.5 -21.75 Q38.75 -22.0 38.3 -22.35 L38.25 -23.1 Q38.25 -23.8 39.35 -24.2 L40.15 -22.1 M14.25 -20.55 L14.05 -19.6 Q13.75 -19.25 12.5 -19.25 11.55 -19.25 10.8 -19.85 L10.75 -20.6 Q10.75 -21.4 11.45 -21.6 L12.5 -21.75 14.0 -21.5 Q14.25 -21.8 14.25 -20.55 M13.25 -15.05 Q13.25 -13.85 11.55 -13.0 10.05 -12.25 8.5 -12.25 5.2 -12.25 4.85 -17.4 L4.7 -21.0 Q4.6 -22.6 4.05 -22.6 -1.0 -22.6 -1.75 -17.25 1.25 -14.15 1.25 -12.15 1.25 -11.1 -0.65 -9.6 -2.4 -8.25 -3.25 -8.25 -5.25 -8.25 -5.25 -10.0 -5.25 -11.0 -4.15 -11.1 -2.55 -11.3 -1.35 -12.6 -3.65 -14.35 -4.05 -15.1 -4.25 -15.4 -4.25 -16.9 -4.25 -19.7 -2.85 -22.0 -0.95 -25.25 3.0 -25.25 7.55 -25.25 8.1 -20.9 L7.75 -15.1 7.8 -14.85 11.75 -16.25 13.0 -16.0 Q13.25 -16.3 13.25 -15.05 M17.8 -21.65 Q18.55 -25.75 19.5 -25.75 21.1 -25.75 20.75 -23.05 19.75 -18.1 19.75 -16.85 19.75 -13.85 20.8 -13.85 25.05 -13.85 26.75 -17.25 L24.3 -18.35 24.25 -19.1 Q24.25 -20.75 26.5 -20.75 29.65 -20.75 29.25 -17.3 29.25 -15.1 27.55 -13.35 25.5 -11.25 21.75 -11.25 16.55 -11.25 17.25 -16.75 17.25 -18.45 17.8 -21.65 M2.5 -15.75 Q1.25 -16.85 1.25 -17.3 1.25 -18.75 2.5 -18.75 3.75 -18.75 3.75 -17.35 L3.55 -16.25 Q3.0 -15.85 2.5 -15.75 M31.25 -15.0 Q30.75 -15.4 30.75 -16.1 30.75 -16.95 31.05 -17.15 L32.25 -17.25 Q33.05 -17.25 33.75 -16.25 32.8 -14.75 32.25 -14.75 L31.25 -15.0 M22.0 -18.25 Q22.8 -17.9 23.25 -17.25 23.25 -16.3 22.0 -15.75 21.25 -16.0 20.8 -16.35 L20.75 -17.1 Q20.75 -17.85 22.0 -18.25 M-42.75 -17.8 Q-42.75 -19.25 -41.25 -19.25 -40.45 -19.25 -39.75 -18.25 -40.5 -16.4 -41.5 -16.25 -42.75 -16.65 -42.75 -17.8 M-29.0 -20.75 Q-30.25 -21.95 -30.25 -22.3 -30.25 -23.75 -29.0 -23.75 -27.75 -23.75 -27.75 -22.35 L-27.85 -21.25 -29.0 -20.75 M-20.75 -12.75 Q-21.35 -12.35 -20.1 -12.35 -14.0 -12.35 -11.8 -17.2 -10.65 -19.65 -10.75 -22.5 L-9.5 -23.25 Q-7.55 -23.25 -7.75 -20.75 -7.75 -18.0 -10.5 -14.35 -14.05 -9.75 -19.25 -9.75 -23.9 -9.75 -23.75 -14.5 -23.75 -15.75 -22.0 -19.75 -20.05 -24.25 -18.75 -24.25 -17.25 -24.25 -17.25 -22.85 -21.0 -16.8 -21.0 -14.6 L-20.75 -12.75 M-16.0 -20.25 Q-14.95 -20.25 -14.5 -19.45 L-14.25 -18.5 -14.5 -17.5 -16.0 -17.25 Q-17.0 -17.25 -17.6 -17.85 L-17.75 -18.6 Q-17.75 -19.2 -17.0 -19.75 L-16.0 -20.25 M-8.5 -10.75 L-9.75 -12.3 Q-9.75 -13.75 -8.5 -13.75 -7.25 -13.75 -7.25 -12.35 L-7.35 -11.25 -8.5 -10.75" fill="#770077" fill-rule="evenodd" stroke="none"/>
      <path d="M11.9 -116.85 Q10.9 -100.95 8.35 -100.95 4.9 -100.95 -0.2 -106.15 -3.35 -109.35 -5.2 -112.15 -6.45 -111.65 -12.2 -106.4 -17.55 -101.55 -18.65 -101.5 -21.9 -101.5 -23.6 -107.6 -24.5 -110.7 -24.7 -114.05 L-24.85 -115.5 Q-24.95 -116.75 -24.7 -117.6 -23.95 -120.35 -20.05 -120.35 -15.55 -120.35 -10.55 -118.15 L-5.55 -115.95 Q-5.15 -115.95 0.6 -119.5 6.35 -123.15 9.1 -123.15 11.45 -123.15 11.9 -120.1 L11.9 -116.85 M-1.4 -112.1 L1.1 -109.1 Q3.6 -106.45 6.65 -104.8 8.35 -107.8 9.2 -113.7 10.05 -119.8 8.35 -119.8 6.85 -119.8 2.2 -117.1 L1.15 -116.5 -2.95 -114.1 -1.4 -112.1 M-12.35 -115.7 L-13.1 -116.05 -20.8 -117.7 -21.0 -117.65 -21.1 -117.6 Q-22.55 -117.05 -22.65 -115.1 -22.75 -112.95 -21.15 -109.6 -19.8 -106.7 -18.35 -105.2 -15.4 -107.1 -12.25 -109.9 L-8.5 -113.55 -8.35 -113.7 -8.4 -113.7 Q-10.55 -114.9 -12.35 -115.7" fill="#000000" fill-rule="evenodd" stroke="none"/>
      <path d="M1.15 -116.5 L2.2 -117.1 Q6.85 -119.8 8.35 -119.8 10.05 -119.8 9.2 -113.7 8.35 -107.8 6.65 -104.8 3.6 -106.45 1.1 -109.1 L-1.4 -112.1 -0.85 -112.1 Q3.7 -112.1 5.0 -112.75 5.75 -113.15 5.8 -114.4 5.8 -116.5 1.15 -116.5 M-12.25 -109.9 Q-15.4 -107.1 -18.35 -105.2 -19.8 -106.7 -21.15 -109.6 -22.75 -112.95 -22.65 -115.1 -22.55 -117.05 -21.1 -117.6 L-21.0 -117.65 -20.8 -117.7 -13.1 -116.05 -12.35 -115.7 Q-13.8 -115.4 -15.25 -114.55 -17.55 -113.25 -17.55 -112.35 -17.8 -111.75 -17.4 -111.1 -16.6 -109.85 -13.35 -109.85 L-12.25 -109.9" fill="#e60000" fill-rule="evenodd" stroke="none"/>
      <path d="M1.15 -116.5 Q5.8 -116.5 5.8 -114.4 5.75 -113.15 5.0 -112.75 3.7 -112.1 -0.85 -112.1 L-1.4 -112.1 -2.95 -114.1 1.15 -116.5 M-12.25 -109.9 L-13.35 -109.85 Q-16.6 -109.85 -17.4 -111.1 -17.8 -111.75 -17.55 -112.35 -17.55 -113.25 -15.25 -114.55 -13.8 -115.4 -12.35 -115.7 -10.55 -114.9 -8.4 -113.7 L-8.35 -113.7 -8.5 -113.55 -12.25 -109.9" fill="#8f0101" fill-rule="evenodd" stroke="none"/>
    </g>
  </defs>
</svg>
