<?xml version="1.0" encoding="UTF-8" standalone="no"?>
<svg xmlns:xlink="http://www.w3.org/1999/xlink" height="342.0px" width="237.9px" xmlns="http://www.w3.org/2000/svg">
  <g transform="matrix(1, 0, 0, 1, 118.05, 273.9)">
    <use height="151.95" transform="matrix(1.0, 0.0, 0.0, 1.0, -60.75, -140.2)" width="112.35" xlink:href="#shape0"/>
  </g>
  <defs>
    <g id="shape0" transform="matrix(1, 0, 0, 1, 60.75, 140.2)">
      <path d="M27.95 -140.2 L27.95 -133.05 23.9 -131.95 16.8 -130.2 Q24.85 -125.05 28.75 -123.25 L41.05 -117.2 Q43.55 -115.45 43.55 -111.55 43.55 -109.45 41.05 -105.3 38.15 -100.5 33.7 -96.25 28.6 -91.45 22.95 -88.65 26.6 -76.75 28.6 -71.25 31.4 -63.65 36.05 -54.15 L43.55 -39.05 Q51.6 -22.0 51.6 -8.65 51.6 -2.85 50.7 -0.45 49.2 3.6 44.15 6.0 32.15 11.75 -9.15 11.75 -43.85 11.75 -50.65 10.55 -52.85 10.2 -53.45 9.35 -54.15 8.4 -55.25 8.0 -60.75 6.0 -60.75 3.5 -60.75 -0.1 -57.7 -0.65 -57.05 -8.2 -45.75 -68.5 L-41.8 -89.0 -41.8 -89.05 Q-45.35 -91.4 -48.4 -94.6 -52.1 -98.45 -54.45 -102.95 -56.3 -106.5 -56.3 -107.9 -37.95 -130.9 -32.05 -135.7 L-32.05 -138.6 Q-19.9 -134.55 -2.0 -134.55 8.75 -134.55 24.3 -139.1 L27.95 -140.2 M-3.0 -124.15 Q2.95 -124.45 5.6 -125.4 5.15 -127.25 5.15 -128.1 -4.1 -126.8 -12.75 -126.8 L-13.05 -126.8 -13.35 -126.8 -13.65 -126.8 -13.95 -126.8 -14.2 -126.8 -14.4 -126.8 -17.3 -126.95 -17.55 -126.95 -20.65 -127.3 -20.85 -127.3 -23.2 -127.7 -24.6 -127.95 -23.35 -127.0 -23.1 -126.85 -22.1 -126.3 -20.5 -125.75 -9.25 -124.25 -8.8 -124.25 -6.7 -124.15 -6.35 -124.15 -6.3 -124.1 -3.85 -124.15 -3.0 -124.15 -2.95 -124.15 -3.0 -124.15 M15.55 -123.05 L15.3 -123.2 13.9 -124.1 Q13.8 -123.2 12.9 -122.35 L11.5 -121.35 Q10.15 -120.6 8.0 -119.9 L7.05 -119.6 6.8 -119.5 6.75 -119.5 6.7 -119.45 6.6 -119.45 4.25 -118.85 3.6 -118.75 2.75 -118.6 2.75 -118.55 1.15 -118.3 -4.05 -117.85 5.2 -91.2 5.2 -91.15 5.65 -91.15 13.0 -92.05 12.8 -91.95 13.25 -92.05 13.3 -92.1 14.05 -92.3 14.3 -92.35 14.35 -92.4 14.65 -92.45 14.8 -92.5 17.6 -93.4 18.05 -93.55 20.75 -94.45 Q22.35 -95.05 25.0 -97.2 L26.45 -98.4 29.55 -101.3 30.85 -102.6 Q35.7 -107.65 37.45 -111.35 28.7 -115.65 21.15 -119.8 18.65 -121.25 16.2 -122.65 L15.55 -123.05 M1.25 -87.2 L-6.5 -103.9 -8.8 -93.15 Q-10.1 -88.45 -11.4 -87.0 L-11.45 -86.85 -13.35 -81.7 Q-20.55 -62.95 -23.05 -57.0 L-22.2 -56.7 -17.45 -55.55 -10.5 -54.15 Q-7.5 -53.6 2.5 -54.2 12.45 -54.85 14.9 -56.85 4.9 -78.45 3.1 -85.0 2.4 -85.25 2.0 -85.65 1.6 -86.1 1.5 -86.7 L1.45 -87.2 1.25 -87.2 M8.55 -84.45 Q14.6 -66.65 21.5 -53.95 28.4 -41.25 35.55 -35.6 23.4 -68.3 17.45 -86.4 14.55 -85.5 8.55 -84.45 M9.55 -50.45 L-4.4 -49.55 -19.25 -50.25 Q-24.05 -51.2 -25.4 -51.8 L-26.55 -49.4 -28.35 -45.8 Q-17.15 -42.3 -7.8 -42.3 10.65 -42.3 16.6 -44.9 17.8 -45.45 19.4 -46.7 L16.05 -52.2 Q13.4 -51.25 9.55 -50.45 M30.4 -33.0 Q26.3 -36.75 23.15 -41.0 L22.05 -40.8 19.4 -40.15 14.5 -38.8 Q12.25 -38.1 7.65 -37.85 L5.55 -37.75 Q0.6 -37.65 -6.5 -37.9 L-10.3 -38.05 -11.3 -38.1 -11.8 -38.1 Q-23.25 -38.7 -25.6 -39.65 L-28.05 -40.45 -30.65 -40.85 -30.9 -40.9 Q-38.55 -28.65 -44.75 -24.2 L-45.25 -20.95 Q-48.15 -4.2 -50.95 1.65 L-50.9 1.65 -48.15 2.25 -40.15 3.0 -38.3 3.1 -36.3 3.2 -31.65 3.4 -31.65 3.35 -30.0 3.45 -24.7 3.6 -23.45 3.6 -20.25 3.7 -20.15 3.7 -14.9 3.8 -13.3 3.8 -9.65 3.85 4.05 4.0 8.9 4.0 13.25 4.0 14.8 4.0 16.2 4.0 20.3 4.0 21.1 3.85 Q30.75 2.05 35.45 -0.4 L35.6 -0.5 37.9 -1.8 Q43.25 -5.1 44.0 -7.85 L44.0 -7.9 44.1 -8.75 44.1 -8.8 43.55 -11.85 43.35 -12.45 42.25 -16.0 38.7 -25.95 38.4 -26.65 36.6 -27.95 32.5 -31.15 30.4 -33.0 M-29.0 -123.0 Q-31.2 -124.35 -32.5 -125.8 L-34.25 -124.0 -38.35 -120.05 Q-49.8 -109.2 -49.8 -107.8 -49.8 -104.25 -47.05 -101.1 -45.9 -99.75 -44.15 -98.45 -42.5 -97.25 -40.4 -96.1 L-38.45 -95.0 Q-36.65 -93.95 -31.0 -91.7 L-28.95 -91.05 -27.45 -90.75 -27.25 -90.85 -22.0 -90.3 -21.4 -90.3 -17.1 -90.6 -16.25 -90.7 -9.35 -117.8 -14.5 -118.2 -20.7 -119.4 -24.2 -120.55 -27.4 -122.05 -28.0 -122.4 -29.0 -123.0 M-15.7 -84.3 L-15.75 -84.3 -15.7 -84.3 M-42.8 -37.15 L-44.25 -30.25 Q-38.3 -35.5 -31.9 -49.05 -25.5 -62.65 -22.5 -70.9 -19.55 -79.2 -19.1 -83.3 L-21.2 -83.3 Q-28.05 -83.3 -33.85 -85.25 L-39.0 -62.5 -42.8 -37.8 -42.8 -37.6 -42.85 -37.15 -42.8 -37.15" fill="#000000" fill-rule="evenodd" stroke="none"/>
      <path d="M-3.0 -124.15 L-3.85 -124.15 -6.3 -124.1 -6.35 -124.15 -6.7 -124.15 -8.8 -124.25 -9.25 -124.25 -20.5 -125.75 -22.1 -126.3 -23.1 -126.85 -23.35 -127.0 -24.6 -127.95 -23.2 -127.7 -20.85 -127.3 -20.65 -127.3 -17.55 -126.95 -17.3 -126.95 -14.4 -126.8 -14.2 -126.8 -13.95 -126.8 -13.65 -126.8 -13.35 -126.8 -13.05 -126.8 -12.75 -126.8 Q-4.1 -126.8 5.15 -128.1 5.15 -127.25 5.6 -125.4 2.95 -124.45 -3.0 -124.15 M15.55 -123.05 L16.2 -122.65 Q18.65 -121.25 21.15 -119.8 28.7 -115.65 37.45 -111.35 35.7 -107.65 30.85 -102.6 L30.9 -105.5 Q30.9 -110.3 23.05 -114.8 L17.65 -117.65 Q15.2 -118.95 15.2 -119.6 L15.3 -123.2 Q16.05 -122.1 15.55 -123.05 M26.45 -98.4 L25.0 -97.2 Q22.35 -95.05 20.75 -94.45 L18.05 -93.55 17.6 -93.4 17.6 -95.5 Q17.6 -100.75 11.7 -107.2 L7.65 -111.35 Q5.8 -113.25 5.8 -114.0 7.15 -117.75 6.8 -119.5 L7.05 -119.6 8.0 -119.9 Q10.15 -120.6 11.5 -121.35 L11.3 -119.5 Q11.3 -116.3 13.75 -114.85 15.15 -114.0 19.15 -113.15 23.0 -112.35 24.55 -111.25 27.0 -109.6 27.1 -106.75 27.2 -103.9 26.45 -98.55 L26.45 -98.4 M14.65 -92.45 L14.35 -92.4 14.3 -92.35 14.05 -92.3 13.3 -92.1 13.25 -92.05 12.8 -91.95 13.0 -92.05 5.65 -91.15 5.2 -91.2 -4.05 -117.85 1.15 -118.3 2.75 -118.55 Q1.9 -116.4 2.55 -112.95 3.15 -109.55 9.55 -102.7 15.95 -95.85 14.95 -93.2 L14.65 -92.45 M-47.05 -101.1 Q-49.8 -104.25 -49.8 -107.8 -49.8 -109.2 -38.35 -120.05 L-34.25 -124.0 -32.5 -125.8 Q-31.2 -124.35 -29.0 -123.0 -30.5 -121.95 -32.0 -120.0 -34.9 -116.15 -34.9 -113.3 -34.9 -108.4 -35.5 -106.8 -36.8 -103.25 -42.3 -102.2 L-45.85 -101.6 -47.05 -101.1 M-24.2 -120.55 L-20.7 -119.4 -20.8 -119.3 Q-21.6 -118.05 -21.6 -114.0 -21.6 -111.85 -20.4 -108.35 -19.2 -104.9 -20.25 -100.35 -21.35 -95.85 -25.9 -92.0 L-27.25 -90.85 -27.45 -90.75 -28.95 -91.05 -31.0 -91.7 Q-36.65 -93.95 -38.45 -95.0 L-40.4 -96.1 Q-42.5 -97.25 -44.15 -98.45 L-42.0 -98.4 Q-35.4 -98.4 -32.65 -103.25 -31.0 -106.15 -31.0 -109.7 -31.0 -116.1 -26.65 -119.15 L-24.2 -120.55 M-14.5 -118.2 L-9.35 -117.8 -16.25 -90.7 -17.1 -90.6 -21.4 -90.3 -22.0 -90.3 Q-20.25 -91.8 -18.6 -94.35 -15.3 -99.5 -15.3 -102.8 -15.3 -105.55 -16.45 -109.05 -17.6 -112.5 -17.6 -113.7 -17.6 -115.45 -14.9 -117.85 L-14.5 -118.2" fill="#2b3c80" fill-rule="evenodd" stroke="none"/>
      <path d="M15.3 -123.2 L15.55 -123.05 Q16.05 -122.1 15.3 -123.2" fill="#4d65c4" fill-rule="evenodd" stroke="none"/>
      <path d="M30.85 -102.6 L29.55 -101.3 26.45 -98.4 26.45 -98.55 Q27.2 -103.9 27.1 -106.75 27.0 -109.6 24.55 -111.25 23.0 -112.35 19.15 -113.15 15.15 -114.0 13.75 -114.85 11.3 -116.3 11.3 -119.5 L11.5 -121.35 12.9 -122.35 Q13.8 -123.2 13.9 -124.1 L15.3 -123.2 15.2 -119.6 Q15.2 -118.95 17.65 -117.65 L23.05 -114.8 Q30.9 -110.3 30.9 -105.5 L30.85 -102.6 M17.6 -93.4 L14.8 -92.5 14.65 -92.45 14.95 -93.2 Q15.95 -95.85 9.55 -102.7 3.15 -109.55 2.55 -112.95 1.9 -116.4 2.75 -118.55 L2.75 -118.6 3.6 -118.75 4.25 -118.85 6.6 -119.45 6.7 -119.45 6.75 -119.5 6.8 -119.5 Q7.15 -117.75 5.8 -114.0 5.8 -113.25 7.65 -111.35 L11.7 -107.2 Q17.6 -100.75 17.6 -95.5 L17.6 -93.4 M-47.05 -101.1 L-45.85 -101.6 -42.3 -102.2 Q-36.8 -103.25 -35.5 -106.8 -34.9 -108.4 -34.9 -113.3 -34.9 -116.15 -32.0 -120.0 -30.5 -121.95 -29.0 -123.0 L-28.0 -122.4 -27.4 -122.05 -24.2 -120.55 -26.65 -119.15 Q-31.0 -116.1 -31.0 -109.7 -31.0 -106.15 -32.65 -103.25 -35.4 -98.4 -42.0 -98.4 L-44.15 -98.45 Q-45.9 -99.75 -47.05 -101.1 M-20.7 -119.4 L-14.5 -118.2 -14.9 -117.85 Q-17.6 -115.45 -17.6 -113.7 -17.6 -112.5 -16.45 -109.05 -15.3 -105.55 -15.3 -102.8 -15.3 -99.5 -18.6 -94.35 -20.25 -91.8 -22.0 -90.3 L-27.25 -90.85 -25.9 -92.0 Q-21.35 -95.85 -20.25 -100.35 -19.2 -104.9 -20.4 -108.35 -21.6 -111.85 -21.6 -114.0 -21.6 -118.05 -20.8 -119.3 L-20.7 -119.4" fill="#3e57b9" fill-rule="evenodd" stroke="none"/>
      <path d="M1.25 -87.2 L1.45 -87.2 1.5 -86.7 Q1.6 -86.1 2.0 -85.65 2.4 -85.25 3.1 -85.0 4.9 -78.45 14.9 -56.85 12.45 -54.85 2.5 -54.2 -7.5 -53.6 -10.5 -54.15 L-17.45 -55.55 -22.2 -56.7 -23.05 -57.0 Q-20.55 -62.95 -13.35 -81.7 L-11.45 -86.85 -11.4 -87.0 Q-10.1 -88.45 -8.8 -93.15 L-6.5 -103.9 1.25 -87.2 M26.45 -30.4 L30.4 -33.0 32.5 -31.15 36.6 -27.95 38.4 -26.65 38.7 -25.95 Q33.9 -21.7 31.25 -18.55 L30.0 -21.65 28.8 -24.55 27.7 -27.3 27.7 -27.25 26.4 -30.35 26.45 -30.4 M23.85 -28.3 L24.1 -27.7 24.7 -26.05 25.15 -24.95 25.25 -24.7 26.55 -21.25 27.5 -18.85 27.7 -18.25 28.6 -16.05 28.85 -15.3 Q27.9 -13.65 27.9 -12.5 27.9 -11.75 28.8 -9.45 29.7 -7.2 29.7 -6.35 29.7 -4.55 23.4 1.65 L21.1 3.85 20.3 4.0 16.2 4.0 16.05 3.25 15.95 2.8 15.45 0.1 14.5 -4.75 Q17.45 -7.6 17.45 -9.5 17.45 -11.0 16.2 -15.05 16.2 -20.35 21.2 -25.75 L23.85 -28.3 M11.9 -2.55 L12.15 -1.05 12.75 1.95 13.25 3.95 13.25 4.0 8.9 4.0 4.05 4.0 Q5.15 2.35 10.6 -1.6 L11.9 -2.55 M5.55 -16.25 Q5.55 -15.0 3.75 -12.25 2.0 -9.65 1.4 -9.65 -1.2 -9.65 -3.2 -14.6 -3.2 -15.65 -2.0 -17.9 -0.75 -20.25 0.0 -20.25 1.3 -20.25 3.5 -18.45 5.55 -16.8 5.55 -16.25 M43.35 -12.45 Q41.15 -8.45 40.55 -8.45 39.85 -8.45 37.65 -10.25 35.55 -12.0 35.55 -12.3 35.55 -13.5 36.9 -15.45 38.2 -17.3 38.75 -17.3 39.9 -17.3 41.95 -16.2 L42.25 -16.0 43.35 -12.45 M-15.7 -84.3 L-15.75 -84.3 -15.7 -84.3 M-41.7 -22.05 Q-40.65 -22.05 -38.9 -19.9 -37.35 -18.0 -37.35 -17.6 -37.35 -16.6 -39.05 -13.65 -40.75 -10.8 -41.1 -10.8 -43.5 -10.8 -45.6 -16.05 -44.45 -22.05 -41.7 -22.05 M-12.55 -20.3 L-12.9 -20.25 Q-14.25 -20.25 -17.3 -26.7 -17.3 -27.95 -12.6 -31.6 L-12.75 -28.75 -12.75 -28.45 -12.55 -22.8 -12.55 -20.3 M-12.8 -11.5 L-13.15 0.55 -13.95 2.15 -14.9 3.8 -20.15 3.7 -20.25 3.7 -23.45 3.6 -23.25 2.55 Q-23.25 0.35 -27.3 -3.4 -31.4 -7.15 -31.4 -10.7 L-30.7 -13.6 -30.4 -14.35 Q-32.25 -13.05 -33.6 -10.65 -35.05 -8.05 -35.55 -5.4 -35.55 -2.7 -33.6 0.75 L-31.65 3.35 -31.65 3.4 -36.3 3.2 -36.75 2.35 -37.5 0.6 Q-35.7 -5.45 -33.15 -16.45 -30.2 -19.05 -26.15 -19.05 -20.2 -19.05 -15.45 -14.55 L-12.8 -11.5 M-9.65 -22.0 L-9.65 -26.1 -9.5 -26.25 -9.65 -26.4 -9.65 -31.95 -5.55 -25.4 Q-5.55 -25.15 -8.7 -22.75 L-9.65 -22.0" fill="#ffffff" fill-rule="evenodd" stroke="none"/>
      <path d="M8.55 -84.45 Q14.55 -85.5 17.45 -86.4 23.4 -68.3 35.55 -35.6 28.4 -41.25 21.5 -53.95 14.6 -66.65 8.55 -84.45 M-42.8 -37.6 L-42.8 -37.8 -39.0 -62.5 -33.85 -85.25 Q-28.05 -83.3 -21.2 -83.3 L-19.1 -83.3 Q-19.55 -79.2 -22.5 -70.9 -25.5 -62.65 -31.9 -49.05 -38.3 -35.5 -44.25 -30.25 L-42.8 -37.15 -42.8 -37.6" fill="#223066" fill-rule="evenodd" stroke="none"/>
      <path d="M9.55 -50.45 Q13.4 -51.25 16.05 -52.2 L19.4 -46.7 Q17.8 -45.45 16.6 -44.9 10.65 -42.3 -7.8 -42.3 -17.15 -42.3 -28.35 -45.8 L-26.55 -49.4 -25.4 -51.8 Q-24.05 -51.2 -19.25 -50.25 L-4.4 -49.55 9.55 -50.45" fill="#2b2b2b" fill-rule="evenodd" stroke="none"/>
      <path d="M26.45 -30.4 L25.75 -32.0 22.1 -40.65 22.05 -40.8 23.15 -41.0 Q26.3 -36.75 30.4 -33.0 L26.45 -30.4 M19.4 -40.15 L19.5 -39.95 19.75 -39.2 19.8 -39.05 23.65 -28.85 23.85 -28.3 21.2 -25.75 Q16.2 -20.35 16.2 -15.05 17.45 -11.0 17.45 -9.5 17.45 -7.6 14.5 -4.75 L14.2 -6.05 10.75 -23.25 10.7 -23.55 8.6 -33.45 8.6 -33.55 8.6 -33.6 8.25 -35.05 8.25 -35.15 8.2 -35.45 8.05 -36.1 8.0 -36.25 8.0 -36.3 7.7 -37.5 7.65 -37.85 Q12.25 -38.1 14.5 -38.8 L19.4 -40.15 M28.85 -15.3 L29.1 -14.7 34.65 -1.8 34.7 -1.7 34.75 -1.6 34.8 -1.55 34.9 -1.4 35.1 -1.0 35.2 -0.85 35.2 -0.8 35.45 -0.4 Q30.75 2.05 21.1 3.85 L23.4 1.65 Q29.7 -4.55 29.7 -6.35 29.7 -7.2 28.8 -9.45 27.9 -11.75 27.9 -12.5 27.9 -13.65 28.85 -15.3 M37.9 -1.8 L37.5 -2.8 37.2 -3.65 36.85 -4.45 31.85 -16.95 31.25 -18.55 Q33.9 -21.7 38.7 -25.95 L42.25 -16.0 41.95 -16.2 Q39.9 -17.3 38.75 -17.3 38.2 -17.3 36.9 -15.45 35.55 -13.5 35.55 -12.3 35.55 -12.0 37.65 -10.25 39.85 -8.45 40.55 -8.45 41.15 -8.45 43.35 -12.45 L43.55 -11.85 44.1 -8.8 44.1 -8.75 44.0 -7.9 44.0 -7.85 Q43.25 -5.1 37.9 -1.8 M5.55 -37.75 L5.55 -37.55 9.95 -14.85 Q11.05 -7.2 11.9 -2.55 L10.6 -1.6 Q5.15 2.35 4.05 4.0 L-9.65 3.85 -9.65 -22.0 -8.7 -22.75 Q-5.55 -25.15 -5.55 -25.4 L-9.65 -31.95 -9.65 -37.35 -10.3 -38.05 -6.5 -37.9 Q0.6 -37.65 5.55 -37.75 M5.55 -16.25 Q5.55 -16.8 3.5 -18.45 1.3 -20.25 0.0 -20.25 -0.75 -20.25 -2.0 -17.9 -3.2 -15.65 -3.2 -14.6 -1.2 -9.65 1.4 -9.65 2.0 -9.65 3.75 -12.25 5.55 -15.0 5.55 -16.25 M-41.7 -22.05 Q-44.45 -22.05 -45.6 -16.05 -43.5 -10.8 -41.1 -10.8 -40.75 -10.8 -39.05 -13.65 -37.35 -16.6 -37.35 -17.6 -37.35 -18.0 -38.9 -19.9 -40.65 -22.05 -41.7 -22.05 M-40.15 3.0 L-48.15 2.25 -50.9 1.65 -50.95 1.65 Q-48.15 -4.2 -45.25 -20.95 L-44.75 -24.2 Q-38.55 -28.65 -30.9 -40.9 L-30.65 -40.85 Q-33.25 -33.85 -36.6 -18.2 -40.25 -0.9 -40.25 2.3 L-40.15 3.0 M-28.05 -40.45 L-25.6 -39.65 Q-23.25 -38.7 -11.8 -38.1 -12.4 -37.2 -12.6 -31.6 -17.3 -27.95 -17.3 -26.7 -14.25 -20.25 -12.9 -20.25 L-12.55 -20.3 -12.6 -18.35 -12.8 -11.5 -15.45 -14.55 Q-20.2 -19.05 -26.15 -19.05 -30.2 -19.05 -33.15 -16.45 L-31.95 -21.75 Q-28.75 -36.05 -28.05 -40.45 M-13.15 0.55 L-13.2 2.1 -13.3 3.8 -14.9 3.8 -13.95 2.15 -13.15 0.55 M-9.65 -26.1 L-9.65 -26.4 -9.5 -26.25 -9.65 -26.1 M-31.65 3.35 L-33.6 0.75 Q-35.55 -2.7 -35.55 -5.4 -35.05 -8.05 -33.6 -10.65 -32.25 -13.05 -30.4 -14.35 L-30.7 -13.6 -31.4 -10.7 Q-31.4 -7.15 -27.3 -3.4 -23.25 0.35 -23.25 2.55 L-23.45 3.6 -24.7 3.6 -30.0 3.45 -31.65 3.35 M-38.3 3.1 L-38.2 2.8 -37.7 1.2 -37.5 0.6 -36.75 2.35 -36.3 3.2 -38.3 3.1" fill="#d20202" fill-rule="evenodd" stroke="none"/>
      <path d="M22.05 -40.8 L22.1 -40.65 25.75 -32.0 26.45 -30.4 26.4 -30.35 27.7 -27.25 27.7 -27.3 28.8 -24.55 30.0 -21.65 31.25 -18.55 31.85 -16.95 36.85 -4.45 37.2 -3.65 37.5 -2.8 37.9 -1.8 35.6 -0.5 35.45 -0.4 35.2 -0.8 35.2 -0.85 35.1 -1.0 34.9 -1.4 34.8 -1.55 34.75 -1.6 34.7 -1.7 34.65 -1.8 29.1 -14.7 28.85 -15.3 28.6 -16.05 27.7 -18.25 27.5 -18.85 26.55 -21.25 25.25 -24.7 25.15 -24.95 24.7 -26.05 24.1 -27.7 23.85 -28.3 23.65 -28.85 19.8 -39.05 19.75 -39.2 19.5 -39.95 19.4 -40.15 22.05 -40.8 M7.65 -37.85 L7.7 -37.5 8.0 -36.3 8.0 -36.25 8.05 -36.1 8.2 -35.45 8.25 -35.15 8.25 -35.05 8.6 -33.6 8.6 -33.55 8.6 -33.45 10.7 -23.55 10.75 -23.25 14.2 -6.05 14.5 -4.75 15.45 0.1 15.95 2.8 16.05 3.25 16.2 4.0 14.8 4.0 13.25 4.0 13.25 3.95 12.75 1.95 12.15 -1.05 11.9 -2.55 Q11.05 -7.2 9.95 -14.85 L5.55 -37.55 5.55 -37.75 7.65 -37.85 M-30.65 -40.85 L-28.05 -40.45 Q-28.75 -36.05 -31.95 -21.75 L-33.15 -16.45 Q-35.7 -5.45 -37.5 0.6 L-37.7 1.2 -38.2 2.8 -38.3 3.1 -40.15 3.0 -40.25 2.3 Q-40.25 -0.9 -36.6 -18.2 -33.25 -33.85 -30.65 -40.85 M-11.8 -38.1 L-11.3 -38.1 -10.3 -38.05 -9.65 -37.35 -9.65 -31.95 -9.65 -26.4 -9.65 -26.1 -9.65 -22.0 -9.65 3.85 -13.3 3.8 -13.2 2.1 -13.15 0.55 -12.8 -11.5 -12.6 -18.35 -12.55 -20.3 -12.55 -22.8 -12.75 -28.45 -12.75 -28.75 -12.6 -31.6 Q-12.4 -37.2 -11.8 -38.1" fill="#010101" fill-rule="evenodd" stroke="none"/>
      <path d="M0.35 -112.85 Q11.85 -104.95 15.3 -104.95 17.85 -104.95 19.25 -111.2 20.0 -114.4 20.2 -117.8 20.2 -120.15 18.1 -126.4 14.9 -126.3 7.6 -124.1 L1.35 -122.35 1.75 -119.95 1.75 -118.6 Q1.7 -115.75 0.15 -112.95 L0.1 -112.85 0.35 -112.85 M15.5 -131.2 Q22.4 -131.2 24.3 -124.6 24.85 -122.55 24.95 -120.05 L24.8 -118.0 Q24.8 -113.25 23.15 -107.9 20.7 -99.9 16.0 -99.9 10.15 -99.9 4.2 -104.05 -0.65 -107.35 -1.65 -110.5 -3.1 -109.1 -4.75 -109.05 L-6.5 -109.2 Q-8.75 -106.65 -13.85 -102.4 -22.5 -95.3 -23.2 -95.3 -30.95 -95.3 -34.3 -105.9 -36.0 -111.3 -36.15 -117.3 -36.2 -122.25 -35.75 -123.9 -34.55 -128.5 -30.2 -128.5 -20.45 -128.5 -13.6 -125.65 L-10.8 -124.4 Q-8.6 -126.6 -4.25 -126.6 L-1.65 -126.1 Q-0.15 -127.15 3.1 -128.5 9.65 -131.2 15.5 -131.2 M-23.2 -101.4 Q-22.15 -101.45 -16.45 -106.9 L-11.25 -111.6 -12.2 -113.1 Q-13.2 -115.15 -13.1 -117.4 L-12.95 -119.7 -15.6 -121.05 Q-20.4 -122.95 -29.25 -122.95 -32.3 -122.95 -31.45 -117.2 -29.6 -101.4 -23.2 -101.4 M-4.05 -121.55 L-5.9 -121.55 Q-7.2 -121.55 -7.9 -120.0 L-8.4 -118.15 Q-8.4 -116.65 -7.85 -116.05 L-6.4 -114.8 Q-2.85 -116.85 -2.85 -118.45 -2.85 -120.85 -4.05 -121.55" fill="#1a1a1a" fill-rule="evenodd" stroke="none"/>
      <path d="M0.15 -112.95 Q1.7 -115.75 1.75 -118.6 L1.75 -119.95 1.35 -122.35 7.6 -124.1 Q14.9 -126.3 18.1 -126.4 20.2 -120.15 20.2 -117.8 20.0 -114.4 19.25 -111.2 17.85 -104.95 15.3 -104.95 11.85 -104.95 0.35 -112.85 L0.15 -112.95 M-4.05 -121.55 Q-2.85 -120.85 -2.85 -118.45 -2.85 -116.85 -6.4 -114.8 L-7.85 -116.05 Q-8.4 -116.65 -8.4 -118.15 L-7.9 -120.0 Q-7.2 -121.55 -5.9 -121.55 L-4.05 -121.55 M-23.2 -101.4 Q-29.6 -101.4 -31.45 -117.2 -32.3 -122.95 -29.25 -122.95 -20.4 -122.95 -15.6 -121.05 L-12.95 -119.7 -13.1 -117.4 Q-13.2 -115.15 -12.2 -113.1 L-11.25 -111.6 -16.45 -106.9 Q-22.15 -101.45 -23.2 -101.4" fill="#d20202" fill-rule="evenodd" stroke="none"/>
    </g>
  </defs>
</svg>
