<?xml version="1.0" encoding="UTF-8" standalone="no"?>
<svg xmlns:xlink="http://www.w3.org/1999/xlink" height="842.55px" width="1337.95px" xmlns="http://www.w3.org/2000/svg">
  <g transform="matrix(1, 0, 0, 1, 407.45, 285.05)">
    <use height="4.5" transform="matrix(5.4867, 0.0, 0.0, 81.5667, 3.2875, 23.0167)" width="99.75" xlink:href="#shape0"/>
    <use height="418.5" transform="matrix(1.0, 0.0, 0.0, 1.0, -14.0, -12.5)" width="572.95" xlink:href="#shape1"/>
  </g>
  <defs>
    <g id="shape0" transform="matrix(1, 0, 0, 1, 49.85, -2.5)">
      <path d="M49.9 7.0 L-49.85 7.0 -49.85 2.5 49.9 2.5 49.9 7.0" fill="#ffffff" fill-rule="evenodd" stroke="none"/>
    </g>
    <g id="shape1" transform="matrix(1, 0, 0, 1, 14.0, 12.5)">
      <path d="M83.2 -3.6 L83.25 0.3 83.25 1.9 83.5 39.0 83.5 81.0 83.4 88.15 Q68.8 87.8 36.0 87.5 L-1.5 87.65 -3.5 87.65 -6.5 87.7 -6.5 86.55 -6.5 -1.25 -9.0 -1.35 -9.0 -4.25 -6.5 -4.25 -6.5 -6.0 -1.5 -6.0 -1.5 -4.3 37.5 -4.5 Q73.25 -4.15 83.2 -3.6 M501.35 10.7 Q501.3 11.5 499.65 11.5 498.6 11.5 497.3 8.2 L496.15 4.7 Q494.95 6.45 496.0 9.75 L496.0 12.65 Q495.95 13.55 494.3 13.55 493.0 13.55 491.4 9.95 490.1 6.9 490.1 6.15 490.1 5.75 492.7 3.45 495.4 1.0 496.35 1.0 499.2 1.0 500.45 4.05 L501.35 7.7 501.35 10.7 M488.05 26.95 Q488.05 24.1 485.2 19.5 481.5 13.55 480.65 11.2 L481.1 10.5 Q481.35 10.2 482.35 10.2 487.05 10.2 489.7 18.5 491.05 22.65 491.4 26.8 491.4 32.15 485.7 35.55 L484.5 35.1 Q484.05 34.75 484.05 33.7 L486.05 31.0 Q488.05 28.55 488.05 26.95 M503.05 31.25 L503.3 32.65 Q503.3 37.1 452.2 51.15 402.65 64.8 392.65 64.8 L390.7 64.55 Q390.05 63.85 390.05 63.05 390.05 61.9 396.5 60.85 L416.6 57.45 Q455.2 49.9 501.7 30.85 L503.05 31.25 M470.45 16.35 Q472.15 14.85 474.0 14.85 478.4 14.85 484.05 28.4 484.05 30.95 481.2 33.25 478.35 35.55 475.05 35.55 472.35 35.55 471.25 33.8 470.65 32.9 470.65 31.9 470.65 29.9 472.35 27.7 474.55 24.9 478.05 24.5 477.0 21.95 474.7 18.5 472.8 19.2 472.45 20.55 472.15 21.5 470.75 21.5 L468.85 21.2 Q468.7 21.0 468.7 19.4 468.7 17.85 470.45 16.35 M456.05 22.8 Q455.15 25.7 453.25 29.8 456.75 32.95 458.05 35.15 L457.65 36.15 Q457.25 36.85 456.35 36.85 455.6 36.85 451.6 33.25 L449.35 37.85 448.4 38.15 Q446.7 36.55 446.7 35.8 446.7 34.1 448.3 30.15 L444.65 26.55 445.05 25.15 446.35 24.85 Q447.2 24.85 449.7 26.85 452.15 21.5 454.0 21.5 455.15 21.5 456.05 22.8 M460.0 28.1 Q460.0 26.65 461.55 26.2 L467.0 24.85 468.4 25.15 Q468.7 25.4 468.7 26.45 468.7 27.5 466.35 28.85 464.0 30.2 462.05 30.2 L460.2 29.9 Q460.0 29.7 460.0 28.1 M448.05 40.7 Q448.05 42.9 445.4 42.9 439.85 42.9 438.1 37.7 437.55 36.05 437.45 34.1 L437.45 32.4 Q437.45 20.3 441.0 18.2 442.7 19.85 442.7 20.55 L440.7 32.25 Q440.7 41.2 447.65 39.2 L448.05 40.7 M476.5 28.6 Q475.25 28.6 474.4 31.5 L474.05 31.8 474.9 32.05 Q477.0 32.05 478.05 31.25 L479.7 29.55 479.9 29.05 476.5 28.6 M408.4 10.85 Q410.05 10.85 412.75 19.4 412.75 21.55 412.55 22.05 412.0 23.25 409.7 24.2 L408.0 22.3 Q408.0 21.5 408.7 20.7 409.4 19.9 409.4 19.05 409.4 18.35 408.05 16.35 406.7 14.3 406.7 13.8 L406.7 11.85 Q406.95 10.85 408.4 10.85 M422.05 35.4 L421.2 32.3 Q419.25 32.6 418.75 33.1 L417.7 34.2 Q416.05 33.65 416.05 31.35 416.05 29.75 416.55 29.35 417.2 28.8 419.65 28.8 423.9 28.8 425.4 34.55 426.15 37.4 426.05 40.45 426.05 46.2 421.65 46.2 416.05 46.2 416.05 40.7 L416.45 37.95 Q417.7 35.3 421.9 36.05 422.05 37.05 422.05 35.4 M423.35 27.05 Q423.35 25.55 426.05 25.55 431.3 25.55 433.85 31.5 435.15 34.45 435.4 37.6 435.4 38.55 433.65 41.7 431.75 45.15 430.35 46.2 L428.65 44.35 432.05 37.6 Q432.05 35.3 430.05 32.3 427.5 28.55 423.55 28.0 423.35 28.65 423.35 27.05 M412.75 28.4 L410.05 32.75 Q407.35 36.75 407.35 39.55 407.35 41.85 408.95 43.85 411.1 46.6 415.0 45.8 L415.4 47.1 Q415.4 49.55 412.3 49.55 408.45 49.55 405.9 45.1 404.05 41.85 404.05 40.05 404.05 37.65 406.1 32.55 408.35 26.85 410.35 26.85 411.55 26.85 412.4 27.7 L412.6 27.45 412.75 28.4 M419.4 41.8 Q419.9 42.55 421.25 42.55 L422.9 42.05 Q422.0 40.3 419.4 39.85 L419.4 41.8 M439.7 66.55 Q440.05 66.2 441.0 66.2 441.8 66.2 442.7 68.3 443.45 67.55 444.5 64.5 445.35 62.2 446.7 62.2 449.1 62.2 451.85 69.3 454.15 75.2 454.65 79.5 L454.35 80.35 Q454.05 80.8 453.05 80.8 450.7 80.8 449.0 75.7 L447.0 67.6 446.7 67.15 Q446.7 69.55 445.7 74.25 444.7 79.1 444.6 81.7 L443.05 82.2 Q442.2 81.0 441.25 77.45 440.25 73.75 439.4 72.35 L439.4 66.85 439.7 66.55 M462.05 57.0 Q462.05 61.25 463.45 66.85 L462.85 67.75 Q462.4 68.25 461.4 68.25 L459.55 67.8 458.7 56.85 Q458.7 52.3 461.05 51.55 462.05 52.8 462.05 57.0 M464.75 73.35 Q464.75 74.95 464.4 75.2 464.3 75.55 462.7 75.55 L460.9 75.2 Q460.65 75.05 460.65 73.45 460.65 72.3 462.7 71.55 L464.4 71.8 Q464.4 72.35 464.75 73.35 M385.0 18.85 Q385.5 17.45 388.05 15.6 L389.65 15.8 390.05 17.1 Q390.05 18.1 389.05 19.65 388.05 21.15 388.05 21.85 388.05 23.2 389.1 23.75 390.7 24.65 392.0 26.85 L391.95 28.35 389.65 28.8 Q385.55 28.8 384.8 25.85 L384.8 22.3 Q384.8 19.45 385.0 18.85 M399.9 17.2 Q398.75 18.1 398.2 21.15 397.6 24.15 395.65 25.55 393.4 24.95 393.4 20.35 393.4 19.95 395.95 16.9 398.7 13.55 400.05 13.55 404.1 13.55 404.7 21.1 L404.5 22.8 Q404.7 23.55 403.05 23.55 400.85 23.55 399.9 17.2 M381.2 23.85 Q382.0 24.7 382.0 25.35 L381.75 27.2 378.75 26.85 378.25 27.05 Q378.05 27.1 378.05 28.1 378.05 28.8 381.25 36.3 L384.35 35.55 385.7 35.8 Q386.1 36.05 386.1 37.1 386.1 38.4 383.75 39.55 L382.8 40.0 Q385.45 46.65 385.45 50.05 385.45 56.2 381.35 56.2 379.9 56.2 378.4 54.95 377.1 53.8 376.75 52.7 L381.55 52.55 Q382.0 51.45 382.0 50.05 382.0 47.1 379.35 40.8 L377.7 40.85 Q375.75 40.85 374.85 40.05 374.7 40.7 374.7 39.05 374.7 37.85 377.1 37.3 L377.75 37.15 Q374.7 30.15 374.7 28.0 374.7 26.15 376.0 24.5 377.3 22.8 378.7 22.8 380.2 22.8 381.2 23.85 M342.05 10.75 Q342.3 4.2 343.75 4.2 344.5 4.2 346.05 39.65 L347.4 75.3 347.15 80.85 Q346.95 85.8 347.25 88.55 346.6 89.5 345.35 89.5 L343.5 89.2 344.05 72.15 Q344.05 61.45 343.4 44.65 343.2 35.75 342.05 17.95 341.9 14.05 342.05 10.75 M304.6 16.25 Q304.75 16.9 303.1 16.9 301.25 16.9 299.9 14.1 L298.55 10.55 297.6 10.55 Q297.35 12.55 297.35 18.0 297.35 18.85 295.75 18.85 294.45 18.85 293.15 15.9 292.05 13.5 292.05 12.75 292.05 11.7 294.6 9.35 297.2 6.9 298.75 6.9 301.35 6.9 304.75 14.7 L304.6 16.25 M287.05 16.25 Q293.85 16.25 295.4 28.4 295.4 30.2 294.0 31.8 292.45 33.6 290.35 33.55 288.75 32.95 288.75 31.65 288.75 31.2 290.35 30.25 291.9 29.25 291.9 28.65 291.9 27.25 289.3 23.5 286.75 19.85 284.75 18.2 285.8 16.25 287.05 16.25 M285.1 32.15 Q283.1 32.15 282.1 28.05 L281.45 23.8 281.45 21.85 Q281.75 20.85 283.4 20.85 284.35 20.85 286.7 30.2 L286.65 31.2 286.3 31.85 Q286.1 32.15 285.1 32.15 M290.35 46.85 Q295.0 46.85 297.35 61.9 L297.25 63.7 Q297.35 64.15 295.75 64.15 293.15 64.15 292.1 58.35 290.7 50.9 290.35 50.35 289.1 54.9 288.6 60.2 288.75 60.85 287.1 60.85 285.65 60.85 284.1 55.95 282.75 51.65 282.75 49.55 L283.05 49.2 Q283.4 48.8 284.35 48.8 285.1 48.8 286.2 50.5 287.0 49.55 287.45 47.95 288.05 46.85 290.35 46.85 M300.35 42.25 Q304.65 42.25 304.7 45.2 304.75 46.8 303.75 49.55 305.65 49.55 306.8 50.85 305.0 53.5 302.05 53.5 L298.9 53.2 Q298.75 53.05 298.75 51.4 300.7 47.1 300.75 46.2 298.4 46.2 296.85 45.3 296.7 45.95 296.7 44.35 296.7 42.25 300.35 42.25 M313.75 35.8 Q313.75 36.4 314.1 37.1 314.1 37.75 272.1 48.15 L270.7 47.85 Q270.05 47.2 270.05 46.3 270.05 43.25 311.35 35.55 L313.75 35.8 M269.4 23.55 Q269.0 26.0 267.45 28.3 266.05 30.4 266.05 31.25 266.05 33.05 267.75 34.6 270.65 37.2 271.35 38.15 L271.25 39.7 Q270.7 40.2 269.1 40.2 264.9 40.2 263.4 35.7 L262.75 31.2 Q262.75 22.15 267.45 22.15 268.55 22.15 269.4 23.55 M250.05 23.95 Q250.05 28.15 248.1 30.55 247.1 31.85 244.9 32.2 242.1 32.7 241.2 33.2 238.25 34.85 235.35 34.85 232.55 34.85 231.4 31.25 L230.75 27.5 Q230.75 23.55 235.05 23.55 236.65 23.55 238.75 24.85 239.1 22.7 241.6 20.4 244.0 18.2 245.75 18.2 249.4 18.2 250.1 21.0 250.45 22.4 250.05 23.95 M246.1 21.85 L245.25 21.85 Q243.75 21.85 242.8 24.15 242.1 25.85 242.1 27.2 L242.1 27.35 Q247.55 27.6 246.75 24.2 246.75 22.75 246.1 21.85 M251.3 41.3 L251.35 39.3 251.2 38.8 Q239.6 45.05 235.3 47.85 L243.6 50.5 Q246.75 51.5 246.75 53.7 246.75 55.35 243.2 60.3 L238.75 66.7 238.6 67.15 Q240.15 66.8 247.45 63.9 255.2 60.85 258.75 59.85 257.7 56.85 257.4 55.3 258.1 54.15 259.1 54.15 262.25 54.15 262.75 60.5 262.75 61.6 251.8 66.2 240.7 70.85 237.4 70.85 234.05 70.85 233.4 69.9 L233.4 68.8 Q233.4 67.8 237.75 61.3 L242.75 54.0 Q231.4 52.5 231.4 48.4 231.4 46.0 241.8 39.55 251.5 33.55 252.75 33.55 253.65 33.55 254.8 34.85 L254.8 43.35 253.05 44.2 Q251.55 42.75 251.3 41.3 M274.7 31.5 Q273.7 31.5 272.9 30.7 272.75 31.35 272.75 29.7 272.75 28.0 278.4 26.2 L280.15 28.0 Q280.15 29.2 278.25 30.35 276.45 31.5 274.7 31.5 M263.4 73.35 Q263.4 78.55 265.4 82.35 L265.4 85.35 Q265.35 86.2 263.7 86.2 262.85 86.2 261.35 79.6 260.05 73.7 260.05 72.8 L260.2 69.85 262.1 69.55 263.7 69.85 Q264.1 70.85 263.4 73.35 M253.7 83.5 Q252.1 83.0 252.1 81.7 252.1 80.7 254.05 79.5 L257.05 77.55 258.75 79.35 Q258.75 81.05 257.35 81.75 255.25 82.6 253.7 83.5 M254.75 78.1 Q252.7 79.5 252.1 79.5 L250.7 79.2 Q250.05 78.5 250.05 77.65 250.05 76.8 252.6 75.4 254.9 74.15 255.45 74.15 256.4 74.15 257.4 75.55 256.95 76.6 254.75 78.1 M248.1 84.8 L247.7 85.7 Q247.4 86.2 246.4 86.2 244.45 86.2 243.4 82.8 L242.45 78.3 241.6 83.45 Q241.15 86.65 239.1 88.2 238.2 87.3 237.7 85.25 L237.4 83.35 Q237.4 81.75 238.3 79.15 239.35 76.15 239.6 73.85 L241.8 73.5 Q245.35 73.5 246.95 78.45 247.45 79.95 248.1 84.8 M235.5 31.0 Q237.05 31.0 239.25 30.05 L237.55 28.1 Q236.05 26.8 234.05 27.2 L234.25 29.65 Q234.5 31.0 235.5 31.0 M-3.1 91.05 L-3.35 91.2 -5.25 91.0 -3.5 91.05 -3.1 91.05" fill="#ffffff" fill-rule="evenodd" stroke="none"/>
      <path d="M83.2 -3.6 L83.2 -5.0 88.5 -5.0 88.5 -4.65 88.5 -0.55 Q88.45 36.3 87.85 91.45 43.85 92.0 -5.85 91.0 L-7.05 90.95 -7.85 90.95 -9.2 90.9 -12.3 90.85 -14.0 90.8 -14.0 87.7 -6.95 87.7 -6.5 87.7 -3.5 87.65 -1.5 87.65 36.0 87.5 Q68.8 87.8 83.4 88.15 L83.5 81.0 83.5 39.0 83.25 1.9 83.25 0.3 83.2 -3.6 M113.85 -4.75 L114.05 -8.0 117.1 -8.0 117.2 -4.5 117.25 -1.45 117.3 0.5 117.5 16.85 117.5 17.2 117.5 17.55 117.5 18.25 117.5 19.4 Q117.75 71.05 117.5 104.75 L117.5 118.1 117.35 205.5 117.35 209.5 555.15 209.5 556.95 209.5 556.95 214.5 555.15 214.5 552.95 214.5 513.45 214.5 513.35 214.5 513.45 214.55 527.3 259.65 530.85 259.5 Q540.4 259.5 546.7 265.55 548.7 267.45 549.9 269.2 551.7 268.05 554.45 266.6 L555.0 266.3 558.95 264.4 558.95 269.75 Q557.5 270.4 556.15 271.25 L554.5 272.7 Q551.05 275.5 549.85 275.5 L547.35 275.0 546.55 274.55 Q546.35 274.3 546.35 272.75 L546.4 272.55 545.9 272.15 542.45 269.25 Q537.0 265.0 531.25 265.0 L529.0 265.1 524.25 265.8 521.45 266.5 Q517.05 267.8 512.35 270.25 511.25 270.9 510.3 271.5 503.7 275.5 502.85 275.5 501.15 275.5 499.3 274.0 L496.3 271.5 495.25 270.75 Q490.5 267.55 482.85 266.5 L479.3 266.15 474.75 266.0 474.35 266.0 Q459.8 266.05 454.0 270.75 L450.65 274.0 Q449.0 275.5 446.85 275.5 443.75 275.5 441.9 273.85 L438.85 270.25 Q435.65 266.4 429.05 265.4 L424.05 265.0 423.75 265.0 Q418.5 265.0 414.1 266.5 411.55 267.35 409.3 268.75 L405.55 271.5 Q403.95 272.5 403.35 272.5 L403.05 272.5 402.95 272.65 Q402.45 273.5 400.85 273.5 399.95 273.5 396.6 271.55 L396.55 271.5 389.1 267.25 387.7 266.5 Q382.6 263.9 378.2 262.55 375.4 261.65 372.9 261.3 L369.25 261.0 Q364.95 261.0 356.7 267.75 348.45 274.5 344.85 274.5 344.25 274.5 334.65 270.25 332.25 269.2 329.95 268.4 326.25 267.1 322.9 266.5 L317.35 266.0 311.7 266.5 Q306.15 267.45 300.3 270.25 L297.6 271.5 Q290.75 274.5 287.0 274.5 283.85 274.5 281.65 273.75 L279.9 273.0 Q278.45 272.2 276.35 269.75 L275.05 268.45 272.4 266.5 Q269.45 265.0 264.35 265.0 258.35 265.0 251.05 268.25 L245.55 271.1 245.15 271.75 Q244.55 272.5 243.0 272.5 241.25 272.5 238.05 270.7 L231.35 266.75 229.1 265.55 Q226.25 264.1 223.45 263.15 217.3 261.0 211.35 261.0 198.9 261.0 190.45 266.5 L188.65 267.75 183.65 271.5 182.4 272.4 181.4 272.95 Q179.25 274.0 176.85 274.35 L174.5 274.5 Q172.8 274.5 170.45 273.35 L165.6 270.75 Q158.2 267.0 149.35 267.0 139.4 267.0 130.45 270.0 L127.05 271.25 126.1 271.75 Q118.65 275.5 117.5 275.5 L108.25 271.5 Q97.35 267.0 94.35 267.0 81.65 267.0 76.4 272.85 L75.35 274.2 Q74.05 276.15 73.35 278.5 L313.85 278.5 328.15 278.55 333.1 278.55 378.15 278.65 383.15 278.65 428.2 278.8 433.2 278.8 477.95 279.0 478.3 279.0 483.25 279.0 512.95 279.15 528.35 279.25 533.35 279.3 547.95 279.45 547.95 279.0 554.5 279.0 558.95 279.05 558.95 283.45 555.95 283.45 555.95 283.5 555.85 283.5 554.5 283.5 534.6 283.5 529.65 283.5 512.95 283.5 484.6 283.45 479.65 283.45 477.95 283.45 434.6 283.4 429.6 283.4 384.55 283.3 379.55 283.25 334.5 283.1 329.5 283.1 284.45 282.9 279.45 282.85 234.35 282.65 229.35 282.6 184.25 282.35 179.3 282.3 134.15 282.0 129.2 281.95 84.05 281.65 79.05 281.6 72.65 281.55 72.5 283.0 72.4 283.05 72.3 283.45 Q77.0 297.75 90.7 341.35 L92.0 345.5 93.6 350.5 97.0 361.0 Q102.8 378.8 108.0 393.0 L111.7 402.95 111.95 403.6 112.2 404.35 112.5 405.1 Q112.5 405.7 111.95 406.0 L108.5 406.0 107.75 404.5 Q104.4 397.85 102.5 393.0 98.0 381.75 91.25 361.0 L87.9 350.5 86.5 346.05 86.35 345.5 69.5 288.75 67.5 291.55 Q62.5 298.2 62.5 303.25 62.5 306.9 68.0 310.3 73.5 313.7 73.5 316.5 73.5 317.05 71.5 323.1 69.5 329.1 69.5 332.6 69.5 338.5 75.0 343.1 L77.85 345.5 78.8 346.35 Q80.5 348.15 80.5 350.1 L80.5 350.5 Q80.25 352.15 78.5 356.75 76.5 362.05 76.5 366.25 76.5 372.7 78.7 375.9 79.75 377.45 83.5 380.0 86.85 382.3 88.3 385.35 90.5 389.95 90.5 398.75 L90.5 398.85 90.5 398.95 90.5 399.05 90.5 399.15 90.6 399.85 91.1 401.9 91.85 403.6 92.35 404.5 93.15 405.95 93.2 406.0 85.55 406.0 85.5 405.55 85.4 404.5 Q85.1 400.3 85.7 395.3 L86.5 390.5 Q86.5 389.6 84.15 387.45 L79.0 382.6 Q71.5 374.9 71.5 367.0 L74.5 350.85 74.4 350.5 55.2 350.5 70.25 399.5 71.8 404.5 72.25 406.0 67.1 406.0 66.65 404.6 66.6 404.65 66.55 404.5 49.6 349.25 48.45 345.5 32.75 293.8 26.0 271.5 -5.4 271.5 -6.0 271.5 Q-8.5 270.65 -8.5 268.0 -6.0 266.75 -6.0 266.5 L-5.4 266.5 24.5 266.5 8.9 215.25 8.85 215.05 11.95 214.5 8.85 214.5 -3.25 214.5 -4.0 214.5 Q-6.5 213.65 -6.5 211.0 -4.0 209.75 -4.0 209.5 L112.5 209.5 Q112.3 205.05 112.15 187.4 112.7 168.45 112.5 159.25 L112.5 104.85 Q112.3 75.95 112.55 49.0 L112.65 40.3 113.65 -0.25 113.7 -1.5 113.8 -3.25 113.85 -4.75 M189.05 -4.5 Q189.45 -8.1 190.0 -8.5 191.6 -7.85 192.5 -6.5 L192.5 -4.5 192.5 110.0 194.0 108.75 365.35 108.5 Q520.65 108.95 536.15 109.6 536.45 100.45 536.35 96.0 L536.35 60.0 Q536.35 54.3 535.55 40.65 534.65 24.8 534.45 18.15 534.05 4.15 535.3 -3.55 536.4 -10.65 538.85 -12.5 540.45 -11.85 541.35 -10.5 L541.35 -3.45 541.35 131.25 538.85 132.5 538.2 130.75 535.85 131.25 Q367.3 131.5 192.5 129.55 L192.5 132.25 190.0 133.5 Q187.15 126.35 187.15 115.7 187.7 103.7 187.5 97.75 L187.5 62.5 Q187.5 8.4 189.05 -4.5 M558.95 302.85 L558.95 307.5 554.35 307.5 542.0 307.45 536.9 307.45 513.95 307.45 491.95 307.4 486.9 307.4 478.95 307.4 474.5 307.4 441.9 307.3 436.85 307.3 419.65 307.25 385.35 307.15 341.8 306.95 336.75 306.95 291.75 306.7 286.7 306.7 241.65 306.45 236.6 306.4 191.55 306.1 186.5 306.1 155.85 305.85 141.45 305.75 136.4 305.7 117.25 305.55 Q126.9 306.2 132.85 317.1 L134.55 317.3 140.0 317.55 144.9 317.0 Q149.05 316.15 153.25 314.25 156.9 312.55 158.9 310.2 160.35 308.5 161.5 308.5 L172.35 313.75 Q183.75 319.0 187.85 319.0 L190.4 318.85 Q193.3 318.45 194.95 317.05 L195.85 316.0 197.2 313.5 198.05 312.3 197.5 310.75 198.15 310.15 Q198.95 309.5 200.5 309.5 202.05 309.5 203.7 311.0 L207.3 314.25 Q213.3 319.0 224.85 319.0 234.2 319.0 239.2 314.9 L240.4 313.75 242.95 310.65 243.35 310.15 Q244.85 308.5 246.5 308.5 246.9 308.5 254.2 313.75 263.25 319.0 272.35 319.0 278.0 319.0 282.9 315.15 284.8 313.7 286.65 311.85 L286.5 311.25 287.35 310.9 287.8 310.7 287.9 310.65 288.0 310.5 288.25 310.6 289.5 310.5 Q290.75 310.5 292.6 312.15 L293.7 313.15 296.75 315.75 Q303.8 321.0 315.35 321.0 322.65 321.0 327.75 316.75 L331.05 313.85 Q332.65 312.5 334.0 312.5 335.1 312.5 336.9 313.65 L339.3 315.3 340.7 316.25 Q342.95 317.65 345.35 318.5 349.5 320.0 354.25 320.0 367.35 320.0 375.95 313.75 378.1 312.2 381.15 309.45 383.6 307.5 385.35 307.5 L386.7 309.9 388.3 312.1 391.6 315.25 395.15 317.7 Q404.15 323.0 418.35 323.0 430.75 323.0 436.9 317.35 L439.15 314.9 440.45 313.15 Q442.0 310.9 442.85 310.5 L442.9 310.55 444.55 311.15 444.95 311.55 Q446.25 311.75 447.85 312.85 L452.3 315.75 Q459.85 320.0 472.75 320.0 482.35 320.0 486.6 315.25 L488.55 312.85 489.2 312.0 Q490.55 310.5 492.35 310.5 L492.95 310.6 Q495.2 311.25 503.9 315.75 515.55 321.0 524.25 321.0 532.3 321.0 538.95 315.25 L539.2 315.05 543.05 311.3 543.15 311.25 Q544.95 309.5 545.85 309.5 547.5 309.5 554.35 313.65 L555.3 314.25 558.95 315.85 558.95 321.45 556.3 320.4 554.35 319.55 550.05 317.55 Q547.25 316.25 546.1 316.25 545.8 316.25 544.95 317.1 L544.15 317.85 541.0 320.85 540.3 321.4 Q533.6 326.5 524.35 326.5 520.5 326.5 506.65 321.75 L495.1 317.6 493.35 317.0 490.6 319.6 488.45 321.25 Q482.5 325.5 473.35 325.5 455.65 325.5 447.0 319.65 L445.3 318.35 444.0 317.1 440.85 320.4 437.65 322.75 Q429.0 328.5 418.85 328.5 405.95 328.5 397.4 325.15 394.05 323.8 391.4 322.0 L391.3 321.95 Q389.05 320.35 386.25 317.55 384.25 315.5 383.35 315.5 382.7 315.5 380.55 317.05 377.4 319.35 375.3 320.5 366.4 325.5 354.35 325.5 L347.25 324.65 Q344.35 323.95 341.55 322.7 L340.55 322.25 Q334.85 319.0 333.85 319.0 332.2 319.0 330.8 320.15 L328.15 322.75 Q323.9 326.5 315.5 326.5 304.4 326.5 296.35 321.75 294.75 320.8 293.25 319.65 291.15 318.0 289.6 316.2 L289.45 316.1 Q288.15 317.9 285.3 320.05 279.35 324.5 272.5 324.5 261.5 324.5 254.15 320.15 248.7 315.75 247.0 315.75 245.75 315.75 244.75 316.45 L243.85 317.1 241.05 320.15 240.85 320.35 Q236.1 324.5 225.5 324.5 210.7 324.5 202.8 318.0 L201.1 316.5 Q200.2 318.8 197.5 321.0 L196.4 321.85 Q194.3 323.3 191.95 324.0 L188.0 324.5 Q180.95 324.5 171.35 320.15 L161.75 315.75 Q161.05 315.75 155.1 319.15 150.95 321.5 146.5 322.2 L142.5 322.5 141.5 322.45 135.05 321.65 Q138.85 330.95 138.0 339.25 137.75 341.45 143.0 347.25 149.75 354.8 150.5 356.0 154.5 362.15 154.5 373.25 L154.25 379.6 Q153.75 382.0 150.75 387.25 160.95 397.7 163.4 401.9 L163.5 402.05 163.9 402.75 164.25 403.5 164.7 404.5 165.2 406.0 158.85 406.0 158.8 405.85 158.05 404.5 157.5 403.5 Q155.65 400.45 153.0 397.15 144.5 388.3 144.5 388.0 144.5 386.3 147.0 380.95 149.5 375.65 149.5 373.0 149.5 362.3 143.4 355.3 L137.85 349.05 Q134.5 344.95 132.5 340.0 137.15 332.8 129.85 323.05 126.6 318.75 115.85 309.1 L133.6 365.0 133.7 365.35 Q139.1 382.55 144.0 397.0 L144.2 397.55 146.25 403.55 146.45 404.1 147.1 406.0 141.35 406.0 141.2 405.65 140.85 404.5 140.55 403.75 140.5 403.55 138.25 397.0 Q134.35 385.5 129.5 370.05 L128.0 365.0 111.5 309.25 Q111.5 306.85 112.5 305.2 L112.5 304.0 Q115.0 302.75 115.0 302.5 L356.85 302.5 385.45 302.55 390.5 302.6 435.45 302.7 440.5 302.7 478.95 302.85 485.5 302.85 490.55 302.9 513.95 302.95 535.6 303.05 540.65 303.1 548.95 303.15 548.95 302.85 554.4 302.85 558.95 302.85 M21.8 404.5 L22.25 406.0 17.1 406.0 16.65 404.6 16.6 404.65 16.55 404.5 0.0 350.5 -5.5 350.5 -8.0 350.5 Q-10.5 349.65 -10.5 347.0 L-8.0 345.5 -5.5 345.5 -1.55 345.5 -5.5 332.5 -9.0 320.95 -9.0 304.35 -5.5 315.75 21.8 404.5 M537.25 127.35 Q536.0 121.9 535.95 114.35 L536.0 113.25 Q367.4 113.5 192.5 111.5 L192.5 126.75 363.85 126.5 Q536.1 127.0 536.85 127.75 L537.1 127.35 537.25 127.35 M463.45 214.5 L463.35 214.5 463.45 214.55 477.6 260.6 Q487.1 261.0 495.15 264.65 L499.1 266.5 507.55 266.5 511.5 264.15 Q517.0 261.45 522.6 260.35 L508.85 215.05 511.95 214.5 508.85 214.5 463.45 214.5 M458.85 215.05 L461.95 214.5 458.85 214.5 413.45 214.5 413.35 214.5 413.45 214.55 427.3 259.6 Q435.0 260.2 440.3 263.9 442.35 265.3 444.2 267.3 L446.35 269.75 448.1 267.8 Q449.8 266.0 452.25 264.65 459.35 260.8 472.65 260.55 L458.85 215.05 M408.85 215.05 L411.95 214.5 408.85 214.5 363.45 214.5 363.35 214.5 363.45 214.55 376.15 255.95 Q384.1 257.1 391.8 261.25 396.7 263.9 399.65 266.5 L403.2 266.5 407.9 263.8 Q415.35 260.05 422.4 259.6 L408.85 215.05 M358.85 215.05 L361.95 214.5 358.85 214.5 313.45 214.5 313.35 214.5 313.45 214.55 327.9 261.5 Q332.85 262.55 336.9 264.75 L341.55 267.65 Q343.6 269.0 344.75 269.0 345.5 269.0 347.95 266.9 L353.55 262.25 Q362.35 255.5 369.85 255.5 L371.15 255.55 358.85 215.05 M105.5 114.0 Q105.5 117.5 103.0 120.0 100.5 122.5 97.0 122.5 93.5 122.5 91.0 120.0 88.5 117.5 88.5 114.0 88.5 110.5 91.0 108.0 93.5 105.5 97.0 105.5 100.5 105.5 103.0 108.0 105.5 110.5 105.5 114.0 M100.2 110.8 Q98.85 109.5 97.0 109.5 95.15 109.5 93.8 110.8 92.5 112.15 92.5 114.0 92.5 115.85 93.8 117.2 95.15 118.5 97.0 118.5 98.85 118.5 100.2 117.2 101.5 115.85 101.5 114.0 101.5 112.15 100.2 110.8 M158.85 215.05 L161.95 214.5 158.85 214.5 113.45 214.5 113.45 214.55 113.9 216.0 113.9 216.05 128.9 264.75 Q138.4 261.5 149.0 261.5 159.85 261.5 167.55 265.4 171.4 267.3 173.75 269.25 L175.3 269.1 174.5 266.5 158.85 215.05 M108.85 215.05 L111.95 214.5 108.85 214.5 63.45 214.5 63.35 214.5 63.45 214.55 78.9 264.85 Q84.95 261.5 94.0 261.5 101.3 261.5 111.45 266.5 L124.5 266.5 109.2 216.3 108.85 215.05 M58.85 215.05 L61.95 214.5 58.85 214.5 13.45 214.5 13.35 214.5 13.45 214.55 29.4 266.5 30.9 271.5 30.95 271.5 53.65 345.5 70.75 345.5 69.5 344.0 Q64.5 338.05 64.5 333.25 L67.25 316.75 Q67.25 315.95 62.4 311.95 57.5 307.95 57.5 303.75 57.5 299.6 60.5 291.0 63.95 281.1 68.5 279.75 68.6 274.65 73.05 269.55 L74.85 267.7 74.5 266.5 59.15 216.05 58.85 215.05 M114.7 305.55 L114.7 305.65 115.3 305.55 114.7 305.55 M308.85 215.05 L311.95 214.5 308.85 214.5 263.45 214.5 263.35 214.5 263.45 214.55 278.75 264.4 281.3 266.5 295.1 266.5 298.35 264.75 Q306.65 260.5 317.5 260.5 L322.75 260.75 313.2 229.45 308.85 215.05 M258.85 215.05 L261.95 214.5 258.85 214.5 213.45 214.5 213.35 214.5 213.45 214.55 226.85 258.25 Q234.75 260.95 242.5 266.45 244.0 264.6 248.0 262.75 255.1 259.5 264.0 259.5 268.85 259.5 272.8 260.95 L272.3 259.25 258.85 215.05 M208.85 215.05 L211.95 214.5 208.85 214.5 163.45 214.5 163.35 214.5 163.45 214.55 179.4 266.5 180.75 266.5 186.9 262.4 Q197.75 255.5 211.0 255.5 216.3 255.5 221.5 256.7 L208.85 215.05" fill="#000000" fill-rule="evenodd" stroke="none"/>
      <path d="M-6.5 87.7 L-6.95 87.7 -6.5 86.55 -6.5 87.7 M-7.85 90.95 L-7.05 90.95 -5.85 91.0 Q43.85 92.0 87.85 91.45 88.45 36.3 88.5 -0.55 L88.5 -4.65 92.35 -5.05 100.5 -5.5 113.85 -4.75 113.8 -3.25 113.7 -1.5 113.65 -0.25 112.65 40.3 112.55 49.0 Q112.3 75.95 112.5 104.85 L112.5 159.25 Q112.7 168.45 112.15 187.4 112.3 205.05 112.5 209.5 L-4.0 209.5 Q-4.0 209.75 -6.5 211.0 -6.5 213.65 -4.0 214.5 L-3.25 214.5 -3.3 215.05 -7.95 214.95 Q-8.75 210.4 -8.8 204.45 -8.3 192.4 -8.5 187.25 L-8.5 153.5 Q-8.85 130.25 -8.5 119.0 L-8.8 101.65 Q-8.75 95.35 -7.85 90.95 M8.85 214.5 L11.95 214.5 8.85 215.05 8.85 214.5 M537.25 127.35 L537.1 127.35 536.85 127.75 Q536.1 127.0 363.85 126.5 L192.5 126.75 192.5 111.5 Q367.4 113.5 536.0 113.25 L535.95 114.35 Q536.0 121.9 537.25 127.35 M105.5 114.0 Q105.5 110.5 103.0 108.0 100.5 105.5 97.0 105.5 93.5 105.5 91.0 108.0 88.5 110.5 88.5 114.0 88.5 117.5 91.0 120.0 93.5 122.5 97.0 122.5 100.5 122.5 103.0 120.0 105.5 117.5 105.5 114.0 M108.85 214.5 L111.95 214.5 108.85 215.05 108.85 214.5 M63.45 214.55 L63.35 214.5 63.45 214.5 63.45 214.55 M58.85 214.5 L61.95 214.5 58.85 215.05 58.85 214.5 M13.45 214.55 L13.35 214.5 13.45 214.5 13.45 214.55 M-3.1 91.05 L-3.5 91.05 -5.25 91.0 -3.35 91.2 -3.1 91.05" fill="#996a00" fill-rule="evenodd" stroke="none"/>
      <path d="M117.2 -4.5 L189.05 -4.5 Q187.5 8.4 187.5 62.5 L187.5 97.75 Q187.7 103.7 187.15 115.7 187.15 126.35 190.0 133.5 L192.5 132.25 192.5 129.55 Q367.3 131.5 535.85 131.25 L538.2 130.75 538.85 132.5 541.35 131.25 541.35 -3.45 543.5 -3.4 543.65 -4.0 Q544.05 -4.5 545.85 -4.5 547.65 -4.5 548.05 -4.05 L548.3 -3.3 549.85 -3.5 552.6 -3.2 552.85 -6.5 553.65 -3.1 554.85 -3.0 Q555.35 -3.6 555.35 -1.1 555.35 0.5 554.35 1.05 555.6 9.8 555.65 21.65 555.7 31.45 555.35 50.25 555.75 69.0 555.35 106.85 L555.15 209.5 117.35 209.5 117.35 205.5 117.5 118.1 117.5 104.75 Q117.75 71.05 117.5 19.4 L117.5 18.25 117.5 17.55 117.5 17.2 117.5 16.85 117.3 0.5 117.25 -1.45 117.2 -4.5 M555.15 214.5 L555.1 219.75 553.45 220.35 552.95 214.5 555.15 214.5 M313.45 214.55 L313.35 214.5 313.45 214.5 313.45 214.55 M158.85 214.5 L161.95 214.5 158.85 215.05 158.85 214.5 M308.85 214.5 L311.95 214.5 308.85 215.05 308.85 214.5 M263.45 214.55 L263.35 214.5 263.45 214.5 263.45 214.55 M258.85 214.5 L261.95 214.5 258.85 215.05 258.85 214.5 M213.45 214.55 L213.35 214.5 213.45 214.5 213.45 214.55 M208.85 214.5 L211.95 214.5 208.85 215.05 208.85 214.5 M163.45 214.55 L163.35 214.5 163.45 214.5 163.45 214.55" fill="#ccffcc" fill-rule="evenodd" stroke="none"/>
      <path d="M192.5 -4.5 L330.35 -4.5 Q496.75 -4.1 535.3 -3.55 534.05 4.15 534.45 18.15 534.65 24.8 535.55 40.65 536.35 54.3 536.35 60.0 L536.35 96.0 Q536.45 100.45 536.15 109.6 520.65 108.95 365.35 108.5 L194.0 108.75 192.5 110.0 192.5 -4.5 M503.05 31.25 L501.7 30.85 Q455.2 49.9 416.6 57.45 L396.5 60.85 Q390.05 61.9 390.05 63.05 390.05 63.85 390.7 64.55 L392.65 64.8 Q402.65 64.8 452.2 51.15 503.3 37.1 503.3 32.65 L503.05 31.25 M488.05 26.95 Q488.05 28.55 486.05 31.0 L484.05 33.7 Q484.05 34.75 484.5 35.1 L485.7 35.55 Q491.4 32.15 491.4 26.8 491.05 22.65 489.7 18.5 487.05 10.2 482.35 10.2 481.35 10.2 481.1 10.5 L480.65 11.2 Q481.5 13.55 485.2 19.5 488.05 24.1 488.05 26.95 M501.35 10.7 L501.35 7.7 500.45 4.05 Q499.2 1.0 496.35 1.0 495.4 1.0 492.7 3.45 490.1 5.75 490.1 6.15 490.1 6.9 491.4 9.95 493.0 13.55 494.3 13.55 495.95 13.55 496.0 12.65 L496.0 9.75 Q494.95 6.45 496.15 4.7 L497.3 8.2 Q498.6 11.5 499.65 11.5 501.3 11.5 501.35 10.7 M342.05 10.75 Q341.9 14.05 342.05 17.95 343.2 35.75 343.4 44.65 344.05 61.45 344.05 72.15 L343.5 89.2 345.35 89.5 Q346.6 89.5 347.25 88.55 346.95 85.8 347.15 80.85 L347.4 75.3 346.05 39.65 Q344.5 4.2 343.75 4.2 342.3 4.2 342.05 10.75 M381.2 23.85 Q380.2 22.8 378.7 22.8 377.3 22.8 376.0 24.5 374.7 26.15 374.7 28.0 374.7 30.15 377.75 37.15 L377.1 37.3 Q374.7 37.85 374.7 39.05 374.7 40.7 374.85 40.05 375.75 40.85 377.7 40.85 L379.35 40.8 Q382.0 47.1 382.0 50.05 382.0 51.45 381.55 52.55 L376.75 52.7 Q377.1 53.8 378.4 54.95 379.9 56.2 381.35 56.2 385.45 56.2 385.45 50.05 385.45 46.65 382.8 40.0 L383.75 39.55 Q386.1 38.4 386.1 37.1 386.1 36.05 385.7 35.8 L384.35 35.55 381.25 36.3 Q378.05 28.8 378.05 28.1 378.05 27.1 378.25 27.05 L378.75 26.85 381.75 27.2 382.0 25.35 Q382.0 24.7 381.2 23.85 M399.9 17.2 Q400.85 23.55 403.05 23.55 404.7 23.55 404.5 22.8 L404.7 21.1 Q404.1 13.55 400.05 13.55 398.7 13.55 395.95 16.9 393.4 19.95 393.4 20.35 393.4 24.95 395.65 25.55 397.6 24.15 398.2 21.15 398.75 18.1 399.9 17.2 M385.0 18.85 Q384.8 19.45 384.8 22.3 L384.8 25.85 Q385.55 28.8 389.65 28.8 L391.95 28.35 392.0 26.85 Q390.7 24.65 389.1 23.75 388.05 23.2 388.05 21.85 388.05 21.15 389.05 19.65 390.05 18.1 390.05 17.1 L389.65 15.8 388.05 15.6 Q385.5 17.45 385.0 18.85 M464.75 73.35 Q464.4 72.35 464.4 71.8 L462.7 71.55 Q460.65 72.3 460.65 73.45 460.65 75.05 460.9 75.2 L462.7 75.55 Q464.3 75.55 464.4 75.2 464.75 74.95 464.75 73.35 M462.05 57.0 Q462.05 52.8 461.05 51.55 458.7 52.3 458.7 56.85 L459.55 67.8 461.4 68.25 Q462.4 68.25 462.85 67.75 L463.45 66.85 Q462.05 61.25 462.05 57.0 M439.7 66.55 L439.4 66.85 439.4 72.35 Q440.25 73.75 441.25 77.45 442.2 81.0 443.05 82.2 L444.6 81.7 Q444.7 79.1 445.7 74.25 446.7 69.55 446.7 67.15 L447.0 67.6 449.0 75.7 Q450.7 80.8 453.05 80.8 454.05 80.8 454.35 80.35 L454.65 79.5 Q454.15 75.2 451.85 69.3 449.1 62.2 446.7 62.2 445.35 62.2 444.5 64.5 443.45 67.55 442.7 68.3 441.8 66.2 441.0 66.2 440.05 66.2 439.7 66.55 M419.4 41.8 L419.4 39.85 Q422.0 40.3 422.9 42.05 L421.25 42.55 Q419.9 42.55 419.4 41.8 M412.75 28.4 L412.6 27.45 412.4 27.7 Q411.55 26.85 410.35 26.85 408.35 26.85 406.1 32.55 404.05 37.65 404.05 40.05 404.05 41.85 405.9 45.1 408.45 49.55 412.3 49.55 415.4 49.55 415.4 47.1 L415.0 45.8 Q411.1 46.6 408.95 43.85 407.35 41.85 407.35 39.55 407.35 36.75 410.05 32.75 L412.75 28.4 M423.35 27.05 Q423.35 28.65 423.55 28.0 427.5 28.55 430.05 32.3 432.05 35.3 432.05 37.6 L428.65 44.35 430.35 46.2 Q431.75 45.15 433.65 41.7 435.4 38.55 435.4 37.6 435.15 34.45 433.85 31.5 431.3 25.55 426.05 25.55 423.35 25.55 423.35 27.05 M422.05 35.4 Q422.05 37.05 421.9 36.05 417.7 35.3 416.45 37.95 L416.05 40.7 Q416.05 46.2 421.65 46.2 426.05 46.2 426.05 40.45 426.15 37.4 425.4 34.55 423.9 28.8 419.65 28.8 417.2 28.8 416.55 29.35 416.05 29.75 416.05 31.35 416.05 33.65 417.7 34.2 L418.75 33.1 Q419.25 32.6 421.2 32.3 L422.05 35.4 M408.4 10.85 Q406.95 10.85 406.7 11.85 L406.7 13.8 Q406.7 14.3 408.05 16.35 409.4 18.35 409.4 19.05 409.4 19.9 408.7 20.7 408.0 21.5 408.0 22.3 L409.7 24.2 Q412.0 23.25 412.55 22.05 412.75 21.55 412.75 19.4 410.05 10.85 408.4 10.85 M476.5 28.6 L479.9 29.05 479.7 29.55 478.05 31.25 Q477.0 32.05 474.9 32.05 L474.05 31.8 474.4 31.5 Q475.25 28.6 476.5 28.6 M448.05 40.7 L447.65 39.2 Q440.7 41.2 440.7 32.25 L442.7 20.55 Q442.7 19.85 441.0 18.2 437.45 20.3 437.45 32.4 L437.45 34.1 Q437.55 36.05 438.1 37.7 439.85 42.9 445.4 42.9 448.05 42.9 448.05 40.7 M460.0 28.1 Q460.0 29.7 460.2 29.9 L462.05 30.2 Q464.0 30.2 466.35 28.85 468.7 27.5 468.7 26.45 468.7 25.4 468.4 25.15 L467.0 24.85 461.55 26.2 Q460.0 26.65 460.0 28.1 M456.05 22.8 Q455.15 21.5 454.0 21.5 452.15 21.5 449.7 26.85 447.2 24.85 446.35 24.85 L445.05 25.15 444.65 26.55 448.3 30.15 Q446.7 34.1 446.7 35.8 446.7 36.55 448.4 38.15 L449.35 37.85 451.6 33.25 Q455.6 36.85 456.35 36.85 457.25 36.85 457.65 36.15 L458.05 35.15 Q456.75 32.95 453.25 29.8 455.15 25.7 456.05 22.8 M470.45 16.35 Q468.7 17.85 468.7 19.4 468.7 21.0 468.85 21.2 L470.75 21.5 Q472.15 21.5 472.45 20.55 472.8 19.2 474.7 18.5 477.0 21.95 478.05 24.5 474.55 24.9 472.35 27.7 470.65 29.9 470.65 31.9 470.65 32.9 471.25 33.8 472.35 35.55 475.05 35.55 478.35 35.55 481.2 33.25 484.05 30.95 484.05 28.4 478.4 14.85 474.0 14.85 472.15 14.85 470.45 16.35 M235.5 31.0 Q234.5 31.0 234.25 29.65 L234.05 27.2 Q236.05 26.8 237.55 28.1 L239.25 30.05 Q237.05 31.0 235.5 31.0 M248.1 84.8 Q247.45 79.95 246.95 78.45 245.35 73.5 241.8 73.5 L239.6 73.85 Q239.35 76.15 238.3 79.15 237.4 81.75 237.4 83.35 L237.7 85.25 Q238.2 87.3 239.1 88.2 241.15 86.65 241.6 83.45 L242.45 78.3 243.4 82.8 Q244.45 86.2 246.4 86.2 247.4 86.2 247.7 85.7 L248.1 84.8 M254.75 78.1 Q256.95 76.6 257.4 75.55 256.4 74.15 255.45 74.15 254.9 74.15 252.6 75.4 250.05 76.8 250.05 77.65 250.05 78.5 250.7 79.2 L252.1 79.5 Q252.7 79.5 254.75 78.1 M253.7 83.5 Q255.25 82.6 257.35 81.75 258.75 81.05 258.75 79.35 L257.05 77.55 254.05 79.5 Q252.1 80.7 252.1 81.7 252.1 83.0 253.7 83.5 M263.4 73.35 Q264.1 70.85 263.7 69.85 L262.1 69.55 260.2 69.85 260.05 72.8 Q260.05 73.7 261.35 79.6 262.85 86.2 263.7 86.2 265.35 86.2 265.4 85.35 L265.4 82.35 Q263.4 78.55 263.4 73.35 M274.7 31.5 Q276.45 31.5 278.25 30.35 280.15 29.2 280.15 28.0 L278.4 26.2 Q272.75 28.0 272.75 29.7 272.75 31.35 272.9 30.7 273.7 31.5 274.7 31.5 M251.3 41.3 Q251.55 42.75 253.05 44.2 L254.8 43.35 254.8 34.85 Q253.65 33.55 252.75 33.55 251.5 33.55 241.8 39.55 231.4 46.0 231.4 48.4 231.4 52.5 242.75 54.0 L237.75 61.3 Q233.4 67.8 233.4 68.8 L233.4 69.9 Q234.05 70.85 237.4 70.85 240.7 70.85 251.8 66.2 262.75 61.6 262.75 60.5 262.25 54.15 259.1 54.15 258.1 54.15 257.4 55.3 257.7 56.85 258.75 59.85 255.2 60.85 247.45 63.9 240.15 66.8 238.6 67.15 L238.75 66.7 243.2 60.3 Q246.75 55.35 246.75 53.7 246.75 51.5 243.6 50.5 L235.3 47.85 Q239.6 45.05 251.2 38.8 L251.35 39.3 251.3 41.3 M246.1 21.85 Q246.75 22.75 246.75 24.2 247.55 27.6 242.1 27.35 L242.1 27.2 Q242.1 25.85 242.8 24.15 243.75 21.85 245.25 21.85 L246.1 21.85 M250.05 23.95 Q250.45 22.4 250.1 21.0 249.4 18.2 245.75 18.2 244.0 18.2 241.6 20.4 239.1 22.7 238.75 24.85 236.65 23.55 235.05 23.55 230.75 23.55 230.75 27.5 L231.4 31.25 Q232.55 34.85 235.35 34.85 238.25 34.85 241.2 33.2 242.1 32.7 244.9 32.2 247.1 31.85 248.1 30.55 250.05 28.15 250.05 23.95 M269.4 23.55 Q268.55 22.15 267.45 22.15 262.75 22.15 262.75 31.2 L263.4 35.7 Q264.9 40.2 269.1 40.2 270.7 40.2 271.25 39.7 L271.35 38.15 Q270.65 37.2 267.75 34.6 266.05 33.05 266.05 31.25 266.05 30.4 267.45 28.3 269.0 26.0 269.4 23.55 M313.75 35.8 L311.35 35.55 Q270.05 43.25 270.05 46.3 270.05 47.2 270.7 47.85 L272.1 48.15 Q314.1 37.75 314.1 37.1 313.75 36.4 313.75 35.8 M300.35 42.25 Q296.7 42.25 296.7 44.35 296.7 45.95 296.85 45.3 298.4 46.2 300.75 46.2 300.7 47.1 298.75 51.4 298.75 53.05 298.9 53.2 L302.05 53.5 Q305.0 53.5 306.8 50.85 305.65 49.55 303.75 49.55 304.75 46.8 304.7 45.2 304.65 42.25 300.35 42.25 M290.35 46.85 Q288.05 46.85 287.45 47.95 287.0 49.55 286.2 50.5 285.1 48.8 284.35 48.8 283.4 48.8 283.05 49.2 L282.75 49.55 Q282.75 51.65 284.1 55.95 285.65 60.85 287.1 60.85 288.75 60.85 288.6 60.2 289.1 54.9 290.35 50.35 290.7 50.9 292.1 58.35 293.15 64.15 295.75 64.15 297.35 64.15 297.25 63.7 L297.35 61.9 Q295.0 46.85 290.35 46.85 M285.1 32.15 Q286.1 32.15 286.3 31.85 L286.65 31.2 286.7 30.2 Q284.35 20.85 283.4 20.85 281.75 20.85 281.45 21.85 L281.45 23.8 282.1 28.05 Q283.1 32.15 285.1 32.15 M287.05 16.25 Q285.8 16.25 284.75 18.2 286.75 19.85 289.3 23.5 291.9 27.25 291.9 28.65 291.9 29.25 290.35 30.25 288.75 31.2 288.75 31.65 288.75 32.95 290.35 33.55 292.45 33.6 294.0 31.8 295.4 30.2 295.4 28.4 293.85 16.25 287.05 16.25 M304.6 16.25 L304.75 14.7 Q301.35 6.9 298.75 6.9 297.2 6.9 294.6 9.35 292.05 11.7 292.05 12.75 292.05 13.5 293.15 15.9 294.45 18.85 295.75 18.85 297.35 18.85 297.35 18.0 297.35 12.55 297.6 10.55 L298.55 10.55 299.9 14.1 Q301.25 16.9 303.1 16.9 304.75 16.9 304.6 16.25" fill="#009100" fill-rule="evenodd" stroke="none"/>
      <path d="M100.2 110.8 Q101.5 112.15 101.5 114.0 101.5 115.85 100.2 117.2 98.85 118.5 97.0 118.5 95.15 118.5 93.8 117.2 92.5 115.85 92.5 114.0 92.5 112.15 93.8 110.8 95.15 109.5 97.0 109.5 98.85 109.5 100.2 110.8" fill="#765301" fill-rule="evenodd" stroke="none"/>
      <path d="M553.45 220.35 Q554.2 232.35 554.4 259.05 L554.45 266.6 Q551.7 268.05 549.9 269.2 548.7 267.45 546.7 265.55 540.4 259.5 530.85 259.5 L527.3 259.65 513.45 214.55 513.45 214.5 552.95 214.5 553.45 220.35 M85.4 404.5 L71.8 404.5 70.25 399.5 55.2 350.5 74.4 350.5 74.5 350.85 71.5 367.0 Q71.5 374.9 79.0 382.6 L84.15 387.45 Q86.5 389.6 86.5 390.5 L85.7 395.3 Q85.1 400.3 85.4 404.5 M66.55 404.5 L21.8 404.5 -5.5 315.75 -5.5 306.5 -5.4 271.5 26.0 271.5 32.75 293.8 48.45 345.5 49.6 349.25 66.55 404.5 M16.55 404.5 L-6.0 404.5 Q-8.5 403.65 -8.5 401.0 -6.0 399.75 -6.0 399.5 L-3.55 399.5 Q-5.75 391.0 -5.8 377.7 -5.3 361.15 -5.5 353.75 L-5.5 350.5 0.0 350.5 16.55 404.5 M-5.5 345.5 L-5.5 332.5 -1.55 345.5 -5.5 345.5 M-5.4 266.5 L-5.3 258.85 Q-4.9 233.65 -3.3 215.05 L-3.25 214.5 8.85 214.5 8.85 215.05 8.9 215.25 24.5 266.5 -5.4 266.5 M463.45 214.55 L463.45 214.5 508.85 214.5 508.85 215.05 522.6 260.35 Q517.0 261.45 511.5 264.15 L507.55 266.5 499.1 266.5 495.15 264.65 Q487.1 261.0 477.6 260.6 L463.45 214.55 M458.85 214.5 L458.85 215.05 472.65 260.55 Q459.35 260.8 452.25 264.65 449.8 266.0 448.1 267.8 L446.35 269.75 444.2 267.3 Q442.35 265.3 440.3 263.9 435.0 260.2 427.3 259.6 L413.45 214.55 413.45 214.5 458.85 214.5 M408.85 214.5 L408.85 215.05 422.4 259.6 Q415.35 260.05 407.9 263.8 L403.2 266.5 399.65 266.5 Q396.7 263.9 391.8 261.25 384.1 257.1 376.15 255.95 L363.45 214.55 363.45 214.5 408.85 214.5 M402.95 272.65 L403.05 272.5 403.35 272.5 402.95 272.65 M358.85 214.5 L358.85 215.05 371.15 255.55 369.85 255.5 Q362.35 255.5 353.55 262.25 L347.95 266.9 Q345.5 269.0 344.75 269.0 343.6 269.0 341.55 267.65 L336.9 264.75 Q332.85 262.55 327.9 261.5 L313.45 214.55 313.45 214.5 358.85 214.5 M158.85 214.5 L158.85 215.05 174.5 266.5 175.3 269.1 173.75 269.25 Q171.4 267.3 167.55 265.4 159.85 261.5 149.0 261.5 138.4 261.5 128.9 264.75 L113.9 216.05 113.9 216.0 113.45 214.55 113.45 214.5 158.85 214.5 M108.85 215.05 L109.2 216.3 124.5 266.5 111.45 266.5 Q101.3 261.5 94.0 261.5 84.95 261.5 78.9 264.85 L63.45 214.55 63.45 214.5 108.85 214.5 108.85 215.05 M58.85 215.05 L59.15 216.05 74.5 266.5 74.85 267.7 73.05 269.55 Q68.6 274.65 68.5 279.75 63.95 281.1 60.5 291.0 57.5 299.6 57.5 303.75 57.5 307.95 62.4 311.95 67.25 315.95 67.25 316.75 L64.5 333.25 Q64.5 338.05 69.5 344.0 L70.75 345.5 53.65 345.5 30.95 271.5 30.9 271.5 29.4 266.5 13.45 214.55 13.45 214.5 58.85 214.5 58.85 215.05 M72.5 283.0 L72.3 283.45 72.4 283.05 72.5 283.0 M114.7 305.55 L115.3 305.55 114.7 305.65 114.7 305.55 M308.85 215.05 L313.2 229.45 322.75 260.75 317.5 260.5 Q306.65 260.5 298.35 264.75 L295.1 266.5 281.3 266.5 278.75 264.4 263.45 214.55 263.45 214.5 308.85 214.5 308.85 215.05 M258.85 214.5 L258.85 215.05 272.3 259.25 272.8 260.95 Q268.85 259.5 264.0 259.5 255.1 259.5 248.0 262.75 244.0 264.6 242.5 266.45 234.75 260.95 226.85 258.25 L213.45 214.55 213.45 214.5 258.85 214.5 M208.85 214.5 L208.85 215.05 221.5 256.7 Q216.3 255.5 211.0 255.5 197.75 255.5 186.9 262.4 L180.75 266.5 179.4 266.5 163.45 214.55 163.45 214.5 208.85 214.5" fill="#c49c00" fill-rule="evenodd" stroke="none"/>
      <path d="M558.95 269.75 L558.95 279.05 554.5 279.0 547.95 279.0 547.95 279.45 533.35 279.3 528.35 279.25 512.95 279.15 483.25 279.0 478.3 279.0 477.95 279.0 433.2 278.8 428.2 278.8 383.15 278.65 378.15 278.65 333.1 278.55 328.15 278.55 313.85 278.5 73.35 278.5 Q74.05 276.15 75.35 274.2 L76.4 272.85 Q81.65 267.0 94.35 267.0 97.35 267.0 108.25 271.5 L117.5 275.5 Q118.65 275.5 126.1 271.75 L127.05 271.25 130.45 270.0 Q139.4 267.0 149.35 267.0 158.2 267.0 165.6 270.75 L170.45 273.35 Q172.8 274.5 174.5 274.5 L176.85 274.35 Q179.25 274.0 181.4 272.95 L182.4 272.4 183.65 271.5 188.65 267.75 190.45 266.5 Q198.9 261.0 211.35 261.0 217.3 261.0 223.45 263.15 226.25 264.1 229.1 265.55 L231.35 266.75 238.05 270.7 Q241.25 272.5 243.0 272.5 244.55 272.5 245.15 271.75 L245.55 271.1 251.05 268.25 Q258.35 265.0 264.35 265.0 269.45 265.0 272.4 266.5 L275.05 268.45 276.35 269.75 Q278.45 272.2 279.9 273.0 L281.65 273.75 Q283.85 274.5 287.0 274.5 290.75 274.5 297.6 271.5 L300.3 270.25 Q306.15 267.45 311.7 266.5 L317.35 266.0 322.9 266.5 Q326.25 267.1 329.95 268.4 332.25 269.2 334.65 270.25 344.25 274.5 344.85 274.5 348.45 274.5 356.7 267.75 364.95 261.0 369.25 261.0 L372.9 261.3 Q375.4 261.65 378.2 262.55 382.6 263.9 387.7 266.5 L389.1 267.25 396.55 271.5 396.6 271.55 Q399.95 273.5 400.85 273.5 402.45 273.5 402.95 272.65 L403.35 272.5 Q403.95 272.5 405.55 271.5 L409.3 268.75 Q411.55 267.35 414.1 266.5 418.5 265.0 423.75 265.0 L424.05 265.0 429.05 265.4 Q435.65 266.4 438.85 270.25 L441.9 273.85 Q443.75 275.5 446.85 275.5 449.0 275.5 450.65 274.0 L454.0 270.75 Q459.8 266.05 474.35 266.0 L474.75 266.0 479.3 266.15 482.85 266.5 Q490.5 267.55 495.25 270.75 L496.3 271.5 499.3 274.0 Q501.15 275.5 502.85 275.5 503.7 275.5 510.3 271.5 511.25 270.9 512.35 270.25 517.05 267.8 521.45 266.5 L524.25 265.8 529.0 265.1 531.25 265.0 Q537.0 265.0 542.45 269.25 L545.9 272.15 546.4 272.55 546.35 272.75 Q546.35 274.3 546.55 274.55 L547.35 275.0 549.85 275.5 Q551.05 275.5 554.5 272.7 L556.15 271.25 Q557.5 270.4 558.95 269.75 M558.95 307.5 L558.95 315.85 555.3 314.25 554.35 313.65 Q547.5 309.5 545.85 309.5 544.95 309.5 543.15 311.25 L543.05 311.3 539.2 315.05 538.95 315.25 Q532.3 321.0 524.25 321.0 515.55 321.0 503.9 315.75 495.2 311.25 492.95 310.6 L492.35 310.5 Q490.55 310.5 489.2 312.0 L488.55 312.85 486.6 315.25 Q482.35 320.0 472.75 320.0 459.85 320.0 452.3 315.75 L447.85 312.85 Q446.25 311.75 444.95 311.55 L444.55 311.15 442.9 310.55 442.85 310.5 Q442.0 310.9 440.45 313.15 L439.15 314.9 436.9 317.35 Q430.75 323.0 418.35 323.0 404.15 323.0 395.15 317.7 L391.6 315.25 388.3 312.1 386.7 309.9 385.35 307.5 Q383.6 307.5 381.15 309.45 378.1 312.2 375.95 313.75 367.35 320.0 354.25 320.0 349.5 320.0 345.35 318.5 342.95 317.65 340.7 316.25 L339.3 315.3 336.9 313.65 Q335.1 312.5 334.0 312.5 332.65 312.5 331.05 313.85 L327.75 316.75 Q322.65 321.0 315.35 321.0 303.8 321.0 296.75 315.75 L293.7 313.15 292.6 312.15 Q290.75 310.5 289.5 310.5 L288.25 310.6 288.0 310.5 287.9 310.65 287.8 310.7 287.35 310.9 286.5 311.25 286.65 311.85 Q284.8 313.7 282.9 315.15 278.0 319.0 272.35 319.0 263.25 319.0 254.2 313.75 246.9 308.5 246.5 308.5 244.85 308.5 243.35 310.15 L242.95 310.65 240.4 313.75 239.2 314.9 Q234.2 319.0 224.85 319.0 213.3 319.0 207.3 314.25 L203.7 311.0 Q202.05 309.5 200.5 309.5 198.95 309.5 198.15 310.15 L197.5 310.75 198.05 312.3 197.2 313.5 195.85 316.0 194.95 317.05 Q193.3 318.45 190.4 318.85 L187.85 319.0 Q183.75 319.0 172.35 313.75 L161.5 308.5 Q160.35 308.5 158.9 310.2 156.9 312.55 153.25 314.25 149.05 316.15 144.9 317.0 L140.0 317.55 134.55 317.3 132.85 317.1 Q126.9 306.2 117.25 305.55 L136.4 305.7 141.45 305.75 155.85 305.85 186.5 306.1 191.55 306.1 236.6 306.4 241.65 306.45 286.7 306.7 291.75 306.7 336.75 306.95 341.8 306.95 385.35 307.15 419.65 307.25 436.85 307.3 441.9 307.3 474.5 307.4 478.95 307.4 486.9 307.4 491.95 307.4 513.95 307.45 536.9 307.45 542.0 307.45 554.35 307.5 558.95 307.5 M158.85 406.0 L147.1 406.0 146.45 404.1 146.25 403.55 144.2 397.55 144.0 397.0 Q139.1 382.55 133.7 365.35 L133.6 365.0 115.85 309.1 Q126.6 318.75 129.85 323.05 137.15 332.8 132.5 340.0 134.5 344.95 137.85 349.05 L143.4 355.3 Q149.5 362.3 149.5 373.0 149.5 375.65 147.0 380.95 144.5 386.3 144.5 388.0 144.5 388.3 153.0 397.15 155.65 400.45 157.5 403.5 L158.05 404.5 158.8 405.85 158.85 406.0 M108.5 406.0 L93.2 406.0 93.15 405.95 92.35 404.5 91.85 403.6 91.1 401.9 90.6 399.85 90.5 399.15 90.5 399.05 90.5 398.95 90.5 398.85 90.5 398.75 Q90.5 389.95 88.3 385.35 86.85 382.3 83.5 380.0 79.75 377.45 78.7 375.9 76.5 372.7 76.5 366.25 76.5 362.05 78.5 356.75 80.25 352.15 80.5 350.5 L80.5 350.1 Q80.5 348.15 78.8 346.35 L77.85 345.5 75.0 343.1 Q69.5 338.5 69.5 332.6 69.5 329.1 71.5 323.1 73.5 317.05 73.5 316.5 73.5 313.7 68.0 310.3 62.5 306.9 62.5 303.25 62.5 298.2 67.5 291.55 L69.5 288.75 86.35 345.5 86.5 346.05 87.9 350.5 91.25 361.0 Q98.0 381.75 102.5 393.0 104.4 397.85 107.75 404.5 L108.5 406.0" fill="#d5d9ff" fill-rule="evenodd" stroke="none"/>
      <path d="M558.95 321.45 L558.95 406.0 165.2 406.0 164.7 404.5 164.25 403.5 163.9 402.75 163.5 402.05 163.4 401.9 Q160.95 397.7 150.75 387.25 153.75 382.0 154.25 379.6 L154.5 373.25 Q154.5 362.15 150.5 356.0 149.75 354.8 143.0 347.25 137.75 341.45 138.0 339.25 138.85 330.95 135.05 321.65 L141.5 322.45 142.5 322.5 146.5 322.2 Q150.95 321.5 155.1 319.15 161.05 315.75 161.75 315.75 L171.35 320.15 Q180.95 324.5 188.0 324.5 L191.95 324.0 Q194.3 323.3 196.4 321.85 L197.5 321.0 Q200.2 318.8 201.1 316.5 L202.8 318.0 Q210.7 324.5 225.5 324.5 236.1 324.5 240.85 320.35 L241.05 320.15 243.85 317.1 244.75 316.45 Q245.75 315.75 247.0 315.75 248.7 315.75 254.15 320.15 261.5 324.5 272.5 324.5 279.35 324.5 285.3 320.05 288.15 317.9 289.45 316.1 L289.6 316.2 Q291.15 318.0 293.25 319.65 294.75 320.8 296.35 321.75 304.4 326.5 315.5 326.5 323.9 326.5 328.15 322.75 L330.8 320.15 Q332.2 319.0 333.85 319.0 334.85 319.0 340.55 322.25 L341.55 322.7 Q344.35 323.95 347.25 324.65 L354.35 325.5 Q366.4 325.5 375.3 320.5 377.4 319.35 380.55 317.05 382.7 315.5 383.35 315.5 384.25 315.5 386.25 317.55 389.05 320.35 391.3 321.95 L391.4 322.0 Q394.05 323.8 397.4 325.15 405.95 328.5 418.85 328.5 429.0 328.5 437.65 322.75 L440.85 320.4 444.0 317.1 445.3 318.35 447.0 319.65 Q455.65 325.5 473.35 325.5 482.5 325.5 488.45 321.25 L490.6 319.6 493.35 317.0 495.1 317.6 506.65 321.75 Q520.5 326.5 524.35 326.5 533.6 326.5 540.3 321.4 L541.0 320.85 544.15 317.85 544.95 317.1 Q545.8 316.25 546.1 316.25 547.25 316.25 550.05 317.55 L554.35 319.55 556.3 320.4 558.95 321.45" fill="#e6ebff" fill-rule="evenodd" stroke="none"/>
      <path d="M558.95 283.45 L558.95 302.85 554.4 302.85 548.95 302.85 548.95 303.15 540.65 303.1 535.6 303.05 513.95 302.95 490.55 302.9 485.5 302.85 478.95 302.85 440.5 302.7 435.45 302.7 390.5 302.6 385.45 302.55 356.85 302.5 115.0 302.5 Q115.0 302.75 112.5 304.0 L112.5 305.2 Q111.5 306.85 111.5 309.25 L128.0 365.0 129.5 370.05 Q134.35 385.5 138.25 397.0 L140.5 403.55 140.55 403.75 140.85 404.5 141.2 405.65 141.35 406.0 111.95 406.0 Q112.5 405.7 112.5 405.1 L112.2 404.35 111.95 403.6 111.7 402.95 108.0 393.0 Q102.8 378.8 97.0 361.0 L93.6 350.5 92.0 345.5 90.7 341.35 Q77.0 297.75 72.3 283.45 L72.5 283.0 72.65 281.55 79.05 281.6 84.05 281.65 129.2 281.95 134.15 282.0 179.3 282.3 184.25 282.35 229.35 282.6 234.35 282.65 279.45 282.85 284.45 282.9 329.5 283.1 334.5 283.1 379.55 283.25 384.55 283.3 429.6 283.4 434.6 283.4 477.95 283.45 479.65 283.45 484.6 283.45 512.95 283.5 529.65 283.5 534.6 283.5 554.5 283.5 555.85 283.5 555.95 283.5 555.95 283.45 558.95 283.45" fill="#c4caff" fill-rule="evenodd" stroke="none"/>
    </g>
  </defs>
</svg>
