<?xml version="1.0" encoding="UTF-8" standalone="no"?>
<svg xmlns:xlink="http://www.w3.org/1999/xlink" height="842.55px" width="1337.95px" xmlns="http://www.w3.org/2000/svg">
  <g transform="matrix(1, 0, 0, 1, 407.45, 285.05)">
    <use height="4.5" transform="matrix(5.4867, 0.0, 0.0, 81.5667, 3.2875, 23.0167)" width="99.75" xlink:href="#shape0"/>
    <use height="413.0" transform="matrix(1.0, 0.0, 0.0, 1.0, -12.5, 0.0)" width="569.45" xlink:href="#shape1"/>
  </g>
  <defs>
    <g id="shape0" transform="matrix(1, 0, 0, 1, 49.85, -2.5)">
      <path d="M49.9 7.0 L-49.85 7.0 -49.85 2.5 49.9 2.5 49.9 7.0" fill="#ffffff" fill-rule="evenodd" stroke="none"/>
    </g>
    <g id="shape1" transform="matrix(1, 0, 0, 1, 12.5, 0.0)">
      <path d="M497.15 97.45 L492.35 61.3 Q486.25 19.5 478.85 19.5 444.1 19.5 406.85 27.55 394.95 30.1 384.6 33.1 376.35 35.5 376.35 35.75 376.35 37.4 377.05 37.9 L378.35 38.35 378.35 38.75 Q378.35 43.85 385.85 92.75 392.85 137.95 395.85 145.15 L394.35 146.5 Q397.95 149.5 402.85 149.5 409.75 149.5 456.9 140.5 489.95 134.15 500.0 131.5 501.15 131.5 501.7 131.05 L501.9 131.0 497.15 97.45 M458.85 214.55 L458.85 214.5 459.1 214.5 458.85 214.55 459.0 215.05 458.85 215.05 458.85 214.55 M408.85 214.55 L408.85 214.5 409.1 214.5 408.85 214.55 409.0 215.05 408.85 215.05 408.85 214.55 M550.05 209.0 L0.05 209.0 0.05 0.0 550.05 0.0 550.05 209.0 M8.85 214.5 L9.1 214.5 8.85 214.55 9.0 215.05 8.85 215.05 8.85 214.55 8.85 214.5 M508.85 215.05 L508.85 214.55 508.85 214.5 509.1 214.5 508.85 214.55 509.0 215.05 508.85 215.05 M358.85 214.55 L358.85 214.5 359.1 214.5 358.85 214.55 359.0 215.05 358.85 215.05 358.85 214.55 M322.35 35.0 Q322.95 33.55 322.9 32.35 322.9 30.15 319.9 28.5 310.7 23.5 274.35 23.5 L261.0 24.0 218.65 25.6 216.45 25.95 Q215.75 25.5 214.5 25.5 211.2 25.5 210.55 39.75 L210.5 56.6 Q210.5 70.5 211.5 97.5 211.7 103.9 211.5 118.2 211.85 130.85 215.0 138.5 L217.25 137.75 217.3 136.5 248.9 137.65 283.35 138.5 Q310.0 138.5 316.9 136.55 319.3 135.85 319.55 134.8 L319.35 133.25 Q319.35 131.3 319.05 130.95 318.7 130.55 317.35 130.5 317.45 107.1 319.85 80.85 322.35 53.65 322.35 35.0 M143.55 89.1 Q140.75 64.8 139.15 53.85 133.0 12.5 124.5 12.5 99.3 12.5 60.75 18.25 31.6 22.6 25.3 25.35 L25.0 24.5 Q22.5 26.1 22.5 32.0 26.65 57.05 31.5 81.9 41.25 131.5 45.0 131.5 L45.3 131.5 45.8 132.25 Q47.5 133.5 55.0 133.5 66.3 133.5 107.3 127.0 L141.75 121.0 144.5 121.5 Q146.1 121.5 146.75 120.8 L147.5 119.5 147.5 119.35 147.5 119.25 147.25 117.45 147.15 117.35 Q145.8 108.55 143.55 89.1 M158.85 214.55 L158.85 214.5 159.1 214.5 158.85 214.55 159.0 215.05 158.85 215.05 158.85 214.55 M108.85 214.55 L108.85 214.5 109.1 214.5 108.85 214.55 109.0 215.05 108.85 215.05 108.85 214.55 M58.85 214.55 L58.85 214.5 59.1 214.5 58.85 214.55 59.0 215.05 58.85 215.05 58.85 214.55 M308.85 214.55 L308.85 214.5 309.1 214.5 308.85 214.55 309.0 215.05 308.85 215.05 308.85 214.55 M258.85 214.55 L259.0 215.05 258.85 215.05 258.85 214.55 258.85 214.5 259.1 214.5 258.85 214.55 M208.85 214.55 L208.85 214.5 209.1 214.5 208.85 214.55 209.0 215.05 208.85 215.05 208.85 214.55" fill="#ccffcc" fill-rule="evenodd" stroke="none"/>
      <path d="M458.85 214.5 L458.85 214.55 458.85 215.05 474.5 266.5 476.0 271.5 482.75 293.8 498.3 345.0 469.0 345.0 Q466.75 337.9 460.85 329.85 L454.3 321.5 Q451.35 317.65 451.35 316.35 453.35 302.9 453.35 300.25 453.35 298.65 451.65 294.05 449.7 288.65 446.9 283.8 440.0 271.7 432.3 270.1 L432.35 266.7 Q432.85 264.9 432.4 263.3 431.6 260.45 427.65 260.2 L413.6 214.5 458.85 214.5 M408.85 214.5 L408.85 214.55 408.85 215.05 422.7 260.65 Q420.0 261.2 417.25 262.6 412.3 265.0 410.25 265.0 404.75 265.0 395.15 259.35 385.55 253.7 377.35 253.75 L375.65 253.8 363.6 214.5 408.85 214.5 M482.45 403.8 Q480.4 398.2 473.85 387.0 L464.35 371.45 Q464.35 370.9 467.35 364.5 470.35 358.0 470.35 353.35 L470.2 350.5 500.0 350.5 516.55 404.5 485.35 404.5 485.1 403.75 484.85 404.2 482.45 403.8 M521.95 404.5 L505.2 350.0 505.15 350.0 503.65 345.0 481.1 271.5 526.0 271.5 532.75 293.8 548.45 345.5 549.35 348.5 549.6 349.25 554.2 364.3 554.1 400.5 554.35 401.85 554.1 403.3 554.1 404.5 Q552.85 405.25 551.85 405.5 L551.6 404.5 521.95 404.5 M554.25 345.0 L553.65 345.0 530.95 271.0 530.9 271.0 529.4 266.0 513.6 214.5 552.95 214.5 Q554.15 224.45 554.4 259.05 L554.35 307.75 554.25 345.0 M-3.25 214.5 L8.85 214.5 8.85 214.55 8.85 215.05 21.0 255.05 Q16.55 253.7 13.5 253.75 1.85 253.75 -5.25 257.0 -4.8 232.6 -3.25 214.5 M455.55 380.85 L455.55 380.9 455.5 380.85 455.55 380.85 M508.85 215.05 L524.35 266.0 479.4 266.0 463.6 214.5 508.85 214.5 508.85 214.55 508.85 215.05 M358.85 214.5 L358.85 214.55 358.85 215.05 370.8 254.4 Q363.3 255.8 352.6 260.05 336.7 266.3 334.6 266.35 332.15 266.3 330.1 264.9 L328.7 263.65 313.6 214.5 358.85 214.5 M343.9 270.05 L343.9 271.05 341.25 271.05 343.9 270.05 M158.85 214.5 L158.85 214.55 158.85 215.05 170.0 251.7 166.75 252.45 Q162.55 253.6 156.1 256.7 149.5 259.8 145.65 260.95 139.0 262.85 130.75 262.85 L128.45 262.8 113.6 214.5 158.85 214.5 M108.85 214.5 L108.85 214.55 108.85 215.05 123.2 262.3 Q115.15 261.1 108.55 257.25 103.6 254.25 101.0 253.35 96.15 251.6 89.5 251.6 83.25 251.6 75.95 254.8 L63.6 214.5 108.85 214.5 M58.85 214.5 L58.85 214.55 58.85 215.05 71.6 256.95 Q70.35 257.55 69.15 258.3 63.3 261.8 60.6 262.9 55.7 265.0 50.75 265.0 44.45 265.0 32.15 259.35 29.2 258.0 26.65 257.0 L13.6 214.5 58.85 214.5 M308.85 214.5 L308.85 214.55 308.85 215.05 322.2 259.0 Q317.8 256.95 311.85 256.95 302.5 256.95 289.15 261.0 L284.75 262.35 Q279.9 259.2 276.7 257.2 L263.6 214.5 308.85 214.5 M258.85 214.55 L258.85 215.05 270.7 254.0 Q266.85 252.65 257.35 252.65 244.6 252.65 231.95 258.3 L227.65 260.35 213.6 214.5 258.85 214.5 258.85 214.55 M208.85 214.5 L208.85 214.55 208.85 215.05 223.2 262.3 Q219.35 263.9 216.75 263.95 212.2 263.9 208.35 261.85 206.7 260.9 201.9 257.25 193.2 250.5 182.35 250.55 L174.8 250.95 163.6 214.5 208.85 214.5 M278.25 304.95 L278.4 304.95 278.25 305.0 278.25 304.95 M227.2 305.0 L226.8 304.75 227.2 304.75 227.2 305.0 M164.9 304.7 L164.9 305.6 Q164.35 305.0 163.45 304.7 L164.9 304.7" fill="#c49c00" fill-rule="evenodd" stroke="none"/>
      <path d="M497.15 97.45 L501.9 131.0 501.7 131.05 Q501.15 131.5 500.0 131.5 489.95 134.15 456.9 140.5 409.75 149.5 402.85 149.5 397.95 149.5 394.35 146.5 L395.85 145.15 Q392.85 137.95 385.85 92.75 378.35 43.85 378.35 38.75 L378.35 38.35 377.05 37.9 Q376.35 37.4 376.35 35.75 376.35 35.5 384.6 33.1 394.95 30.1 406.85 27.55 444.1 19.5 478.85 19.5 486.25 19.5 492.35 61.3 L497.15 97.45 M489.25 113.85 Q489.25 115.75 484.75 115.75 482.25 115.75 481.75 115.0 L481.75 114.1 Q481.75 113.3 482.75 111.25 483.75 109.2 483.75 108.5 482.0 108.75 480.8 108.5 L480.75 107.1 Q480.75 105.75 483.25 105.75 487.3 105.75 486.25 109.35 486.25 110.9 485.3 113.0 L489.0 113.0 489.25 113.85 M489.2 90.8 L479.1 25.25 Q480.1 24.75 477.6 24.75 467.0 24.75 431.05 29.95 400.55 34.3 381.7 37.95 383.2 45.25 390.6 89.85 L399.35 143.35 Q406.75 145.6 424.85 140.45 442.95 135.2 465.55 132.4 L497.45 128.1 Q494.15 119.7 489.2 90.8 M465.5 28.0 L465.75 28.85 Q465.75 30.1 451.0 32.75 436.8 35.25 432.0 35.25 L430.65 35.05 435.75 63.65 435.75 65.55 Q435.4 66.75 433.5 66.75 431.25 66.75 428.9 65.15 426.7 63.6 426.25 62.05 426.9 61.25 427.5 61.25 428.4 61.25 430.35 62.65 432.3 64.0 433.25 64.0 429.25 41.35 429.25 37.1 L429.25 35.05 Q429.35 34.6 429.75 34.4 L429.75 33.85 Q429.75 32.7 445.55 30.25 L463.25 27.75 465.5 28.0 M456.8 36.05 L456.75 35.35 Q456.75 34.4 459.45 33.85 L466.0 32.75 467.5 33.0 467.75 34.1 467.5 35.5 465.75 35.55 463.55 36.05 Q464.8 38.3 465.75 44.65 L465.55 45.8 Q465.75 46.25 464.5 46.25 463.4 46.25 462.0 41.25 L460.9 36.55 459.0 36.75 Q457.5 36.75 456.8 36.05 M450.45 36.7 Q449.75 36.7 449.75 37.5 449.75 38.3 449.35 38.5 L449.3 38.55 450.3 41.05 450.7 40.65 Q452.75 38.95 453.0 38.0 L452.9 37.25 Q452.8 36.8 452.05 36.8 L450.45 36.7 M451.25 34.25 Q455.9 34.25 455.75 37.5 455.75 39.6 453.55 42.0 457.25 42.2 458.35 43.35 458.95 44.0 459.25 45.55 459.25 46.25 458.0 46.25 454.4 46.25 452.05 45.45 L452.25 45.8 452.25 48.05 Q452.25 48.75 451.0 48.75 450.05 48.75 448.3 44.25 446.75 40.2 446.75 39.6 446.75 38.6 447.35 38.15 446.75 37.6 446.75 36.75 446.75 34.25 451.25 34.25 M470.25 47.85 Q470.25 49.9 440.25 55.75 L438.75 55.5 Q438.25 55.0 438.25 54.35 438.25 53.85 452.0 50.35 465.95 46.75 468.75 46.75 469.2 46.75 470.0 47.3 L470.15 47.1 470.25 47.85 M423.5 46.0 L423.75 46.85 Q423.75 48.25 421.25 48.25 419.5 48.25 418.8 47.55 L418.75 46.85 Q418.75 45.85 421.25 45.75 L423.5 46.0 M440.55 42.55 L444.0 44.4 Q444.75 44.95 444.75 46.0 444.75 46.95 442.8 48.3 440.75 49.75 439.0 49.75 438.0 49.75 437.3 49.05 L437.25 48.35 Q437.25 47.95 438.3 47.75 439.85 47.5 441.55 46.05 442.75 46.05 440.15 45.4 L435.8 44.05 435.75 43.35 Q435.75 42.75 439.5 40.25 L439.75 39.5 Q437.5 39.7 437.3 40.25 437.1 40.75 436.5 40.75 434.25 40.75 434.25 38.85 434.25 36.75 439.25 36.75 442.8 36.75 442.75 39.35 442.75 39.7 440.55 42.55 M421.5 52.75 L420.25 52.5 Q419.75 52.0 419.75 51.35 419.75 49.25 423.5 49.25 424.2 49.25 424.75 50.25 424.4 50.95 423.25 51.85 422.1 52.75 421.5 52.75 M417.75 50.35 Q417.75 51.5 415.05 52.55 L415.0 52.75 Q418.25 53.6 419.05 54.2 419.75 54.75 419.75 56.25 419.75 57.55 418.75 58.8 417.6 60.25 416.0 60.25 L414.75 60.0 Q414.25 59.5 414.25 58.85 414.25 58.3 415.1 58.0 416.3 57.55 417.0 56.75 L417.05 56.3 413.4 54.9 Q412.25 54.4 412.25 53.0 412.25 49.45 416.0 49.25 L417.5 49.5 417.75 50.35 M406.5 50.85 Q406.85 50.25 407.75 50.25 409.15 50.25 411.05 54.05 412.75 57.5 412.75 59.05 412.75 59.75 411.5 59.75 410.6 59.75 409.5 57.6 L408.05 54.55 407.5 56.85 Q406.85 58.3 404.8 57.05 L404.75 57.05 Q404.75 57.8 405.25 59.85 L405.05 61.25 Q405.25 61.75 404.0 61.75 402.55 61.75 402.25 59.8 L401.75 57.0 401.75 52.05 403.5 51.75 Q404.7 51.75 405.25 52.75 L406.5 50.85 M417.95 84.2 Q419.35 80.75 420.5 80.25 421.75 80.8 421.75 82.0 L420.05 86.8 420.05 87.05 Q422.6 87.25 424.1 88.35 425.25 89.25 425.25 90.1 L425.05 91.25 Q425.25 91.75 424.0 91.75 L420.2 91.25 420.25 91.35 420.05 92.75 Q420.25 93.25 419.0 93.25 417.65 93.25 415.55 87.0 413.75 81.55 413.75 80.55 L413.75 79.05 Q413.9 78.25 415.0 78.25 L417.7 84.9 417.95 84.2 M413.5 92.0 L413.75 92.85 Q413.75 94.25 411.0 94.25 408.8 94.25 408.3 93.55 L408.25 92.85 Q408.25 91.9 411.0 91.75 L413.5 92.0 M405.25 93.85 Q405.25 94.4 404.55 94.9 406.75 103.0 406.75 103.6 L406.55 104.75 Q406.75 105.25 405.5 105.25 404.45 105.25 401.85 95.95 L398.7 96.55 400.75 104.75 400.5 105.35 Q400.25 105.75 399.5 105.75 398.6 105.75 395.85 97.55 L395.55 96.5 Q395.1 96.35 394.8 96.05 L394.75 95.35 395.0 94.85 393.25 89.35 Q393.25 88.15 394.5 87.25 396.5 89.85 397.85 93.8 L401.15 93.2 399.25 85.85 Q399.25 85.35 400.05 84.75 400.7 84.25 401.0 84.25 401.6 84.25 404.0 92.85 L405.0 93.0 405.25 93.85 M414.5 95.8 L414.65 95.6 414.75 96.35 Q414.75 97.55 410.25 99.25 L409.25 99.0 Q408.75 98.5 408.75 97.85 408.75 96.95 410.55 96.05 412.2 95.25 413.25 95.25 413.7 95.25 414.5 95.8 M421.3 96.55 L421.25 95.85 Q421.25 95.4 440.05 91.05 L459.0 86.75 460.1 86.95 460.25 88.1 Q437.15 97.25 423.5 97.25 422.0 97.25 421.3 96.55 M441.75 77.25 Q443.65 77.25 446.3 80.25 448.75 83.0 448.75 84.0 448.75 84.75 446.1 86.0 443.35 87.25 441.5 87.25 L439.3 87.0 439.25 84.85 Q439.25 82.9 439.75 80.55 440.45 77.25 441.75 77.25 M442.5 80.8 L441.8 84.5 445.05 83.5 Q445.0 82.7 444.05 81.7 443.1 80.75 442.5 80.8 M429.25 84.0 L430.75 83.65 429.25 82.0 429.25 84.0 M426.25 84.85 L426.25 84.1 Q426.25 82.6 426.75 79.6 427.3 76.25 427.75 76.25 429.3 76.25 436.75 87.5 L436.55 88.8 Q436.75 89.25 435.5 89.25 L432.45 85.6 431.0 86.25 429.1 86.95 428.5 91.75 427.5 92.25 Q426.55 91.35 426.35 87.1 L425.3 86.55 425.25 85.85 Q425.25 85.3 426.25 84.85 M440.0 97.25 Q441.75 97.25 441.75 104.55 L443.95 103.4 Q445.85 102.25 447.75 102.25 L449.5 102.5 449.75 103.35 Q449.75 104.05 441.25 107.75 440.0 107.75 439.25 103.9 L438.75 99.9 438.75 98.05 Q438.95 97.25 440.0 97.25 M462.5 59.15 L465.25 64.15 465.05 65.3 Q465.25 65.75 464.0 65.75 462.95 65.75 461.25 62.8 L459.55 59.5 Q459.2 63.25 457.0 63.25 455.95 63.25 455.35 62.7 454.4 61.85 453.75 61.55 L453.55 66.8 452.5 67.25 Q450.75 65.55 450.75 59.25 L450.8 58.3 Q451.65 57.75 452.25 57.75 453.75 57.75 454.95 58.85 L456.75 60.25 457.4 56.45 Q457.8 54.25 459.25 54.25 459.65 54.25 462.5 59.15 M452.65 73.8 L455.75 84.0 Q455.75 85.25 455.5 84.75 455.0 85.25 454.25 85.25 452.6 85.25 451.75 81.05 L451.25 76.65 451.25 74.5 451.35 74.1 Q449.8 74.55 448.0 75.25 446.75 74.85 446.75 73.85 446.75 72.6 449.0 72.1 L455.75 70.75 458.0 71.0 458.25 72.1 458.0 73.5 455.0 73.5 452.65 73.8 M395.6 40.85 L395.75 41.85 Q395.75 43.9 392.75 58.75 391.1 58.75 387.75 52.65 384.75 47.15 384.75 46.4 L385.0 45.5 386.25 45.25 Q387.1 45.25 391.55 53.25 391.9 48.95 392.35 46.1 393.15 40.75 394.5 40.75 L395.6 40.85 M400.65 51.1 L400.75 51.85 Q400.75 52.75 399.25 53.45 397.75 54.2 397.75 54.75 397.75 55.8 400.25 60.15 L400.05 61.3 Q400.0 61.75 398.75 61.75 396.8 61.75 395.8 58.4 L395.25 54.85 Q395.25 53.95 396.25 52.5 397.45 50.75 399.0 50.75 399.7 50.75 400.5 51.3 L400.65 51.1 M403.75 119.25 Q407.5 119.25 408.5 121.8 409.0 123.1 408.75 124.5 408.75 125.75 407.5 127.75 406.0 130.25 404.0 130.25 L404.45 131.8 Q406.15 137.15 406.75 138.05 406.2 139.25 405.0 139.25 L403.3 139.0 Q402.9 136.35 401.4 131.6 400.25 127.85 400.25 125.25 L400.2 123.6 400.0 123.75 Q398.75 123.35 398.75 122.35 398.75 119.25 403.75 119.25 M404.25 127.15 Q406.25 125.65 406.25 124.25 406.25 121.8 405.05 121.8 L402.65 121.95 Q403.55 122.55 402.75 125.35 402.75 125.95 403.3 127.9 L404.25 127.15 M472.8 115.5 L474.25 115.25 Q476.0 115.25 476.8 118.05 L477.05 118.25 Q477.75 115.55 477.75 111.55 L479.0 111.25 Q480.75 111.25 480.25 114.5 L479.75 119.35 Q479.05 123.25 478.0 123.25 476.95 123.25 474.75 120.0 472.75 117.05 472.75 116.6 L472.8 115.5 M472.75 119.75 Q472.75 122.6 469.5 124.45 466.2 126.3 466.05 130.8 466.0 131.25 464.75 131.25 L463.3 131.0 463.25 129.1 Q463.25 125.9 464.75 121.6 466.8 115.75 470.0 115.75 473.05 115.75 472.75 119.75 M469.25 118.75 Q467.8 121.5 467.75 122.05 L467.75 122.3 Q470.25 120.75 470.25 120.0 470.25 118.75 469.25 118.75 M455.5 109.25 Q457.15 109.25 457.75 116.0 L457.55 117.3 457.55 117.55 460.25 116.75 462.5 117.0 462.75 117.85 Q462.75 118.55 454.75 121.25 L453.75 121.0 Q453.25 120.5 453.25 119.85 453.25 119.0 457.0 117.75 L456.5 117.75 Q455.05 117.75 454.75 115.2 L454.25 111.8 454.25 109.55 455.5 109.25 M448.0 117.25 Q449.1 117.25 450.15 120.3 L451.5 120.5 451.75 121.35 Q451.75 122.0 450.8 122.45 L451.25 124.35 451.05 125.3 Q451.0 125.75 449.75 125.75 L448.3 125.5 448.0 123.65 447.25 123.75 446.25 123.5 Q445.75 123.0 445.75 122.35 445.75 121.5 447.3 120.8 L447.45 120.75 446.75 117.55 448.0 117.25 M459.25 121.25 Q461.9 121.25 461.25 124.25 461.25 127.0 459.8 127.8 L459.75 128.05 Q461.7 128.3 462.5 128.8 L462.65 128.6 462.75 129.35 Q462.75 129.9 461.65 130.1 459.35 130.5 456.5 131.75 455.25 131.35 455.25 130.35 455.25 129.85 458.75 124.75 L457.0 125.25 Q455.75 124.85 455.75 123.85 455.75 122.9 457.45 122.0 458.8 121.25 459.25 121.25 M432.5 120.75 Q435.65 120.75 437.25 129.75 437.25 131.6 435.8 133.3 433.8 135.75 430.0 135.75 427.05 135.75 425.95 134.3 L425.25 132.3 426.5 131.75 Q427.15 131.75 428.2 132.4 429.25 133.0 429.85 133.0 435.05 133.0 434.75 129.6 434.75 128.8 433.8 127.3 432.65 128.25 431.25 128.25 428.4 128.25 427.8 127.05 L427.75 126.05 Q427.7 127.3 426.5 128.25 L423.75 129.85 Q419.75 132.15 419.75 136.5 419.75 137.3 419.35 137.5 L418.5 137.75 Q416.75 136.75 416.75 135.6 416.75 132.5 418.25 128.5 420.4 122.75 424.25 122.75 427.6 122.75 427.75 126.0 L427.75 125.6 Q427.75 123.9 428.75 122.55 430.05 120.75 432.5 120.75 M437.75 120.25 Q438.8 120.25 441.0 122.65 441.7 119.15 443.0 117.75 444.25 118.65 444.25 121.85 L442.75 134.05 441.5 134.75 Q440.25 134.25 440.25 132.6 440.25 128.9 440.55 126.05 L438.55 124.15 436.25 121.4 Q436.25 120.55 436.55 120.35 L437.75 120.25 M425.05 126.05 L424.75 125.3 423.55 125.5 421.5 128.05 421.25 128.5 Q424.05 127.85 425.05 126.05 M410.75 127.55 L412.0 127.25 412.9 129.3 413.25 129.25 415.0 129.5 415.25 130.35 Q415.25 131.25 413.95 131.85 L414.25 132.65 414.05 133.8 Q414.25 134.25 413.0 134.25 411.95 134.25 411.35 133.0 L411.3 132.75 410.0 133.25 Q408.75 132.85 408.75 131.6 408.75 130.45 410.75 129.8 L410.75 127.55 M432.75 123.75 L431.5 123.75 Q430.65 123.75 430.5 125.25 L430.8 125.55 432.8 124.3 432.75 123.75 M458.85 214.55 L459.1 214.5 458.85 214.5 413.6 214.5 427.65 260.2 Q431.6 260.45 432.4 263.3 432.85 264.9 432.35 266.7 L432.3 270.1 Q440.0 271.7 446.9 283.8 449.7 288.65 451.65 294.05 453.35 298.65 453.35 300.25 453.35 302.9 451.35 316.35 451.35 317.65 454.3 321.5 L460.85 329.85 Q466.75 337.9 469.0 345.0 L498.3 345.0 482.75 293.8 476.0 271.5 474.5 266.5 458.85 215.05 459.0 215.05 458.85 214.55 M408.85 214.55 L409.1 214.5 408.85 214.5 363.6 214.5 375.65 253.8 377.35 253.75 Q385.55 253.7 395.15 259.35 404.75 265.0 410.25 265.0 412.3 265.0 417.25 262.6 420.0 261.2 422.7 260.65 L408.85 215.05 409.0 215.05 408.85 214.55 M427.1 266.1 Q420.75 265.9 417.55 268.4 415.25 270.1 412.7 270.65 L427.2 270.8 427.2 269.9 427.35 266.9 427.1 266.1 M478.35 407.65 Q478.35 406.65 477.5 404.5 L477.05 403.5 Q474.85 398.5 468.85 388.6 L465.15 382.45 Q459.35 372.7 459.35 371.85 459.35 369.3 460.3 366.7 461.05 364.7 462.35 362.65 465.35 358.0 465.35 352.95 L465.25 350.5 Q464.95 347.75 464.0 345.0 461.75 338.5 455.85 332.15 450.5 326.4 449.3 324.75 446.35 320.55 446.35 316.35 448.35 302.55 448.35 299.85 448.35 291.35 437.85 282.25 L433.25 278.55 430.65 276.5 429.85 276.75 453.9 357.8 455.4 363.15 455.45 363.15 467.25 403.2 468.1 406.0 468.5 407.45 470.15 413.0 464.6 413.0 463.0 407.35 462.2 404.5 461.8 403.1 457.25 387.05 455.5 380.85 455.55 380.9 455.55 380.85 425.35 276.25 400.2 276.25 388.95 276.15 382.5 276.15 377.4 276.15 332.5 276.05 327.35 276.0 282.4 275.85 277.3 275.85 266.95 275.8 232.35 275.6 227.25 275.6 216.95 275.5 216.95 275.8 182.35 275.6 177.25 275.6 132.25 275.3 127.15 275.3 82.15 275.0 82.0 275.0 82.0 274.9 77.05 274.9 32.0 274.5 26.9 274.45 -4.6 274.2 -5.45 274.2 -10.45 274.1 -10.5 274.1 -10.5 273.3 -10.5 272.5 -8.0 270.9 49.6 270.9 Q43.45 270.7 31.8 265.25 L28.75 263.9 Q25.65 262.5 23.0 261.6 17.25 259.6 13.6 259.65 -0.8 259.65 -5.1 262.8 L-5.35 263.0 -5.55 263.15 -7.5 265.45 Q-8.65 267.05 -10.0 267.7 L-10.6 267.45 -11.8 266.85 Q-12.5 266.15 -12.5 264.3 -12.5 261.75 -9.4 259.45 L-6.7 257.7 -6.55 257.65 -5.25 257.0 Q1.85 253.75 13.5 253.75 16.55 253.7 21.0 255.05 L8.85 215.05 9.0 215.05 8.85 214.55 9.1 214.5 8.85 214.5 -3.25 214.5 -4.0 214.5 Q-6.5 213.65 -6.5 211.0 L-6.45 211.0 -6.5 210.5 Q-4.0 209.25 -4.0 209.0 L0.05 209.0 550.05 209.0 556.95 209.0 556.95 214.5 552.95 214.5 513.6 214.5 529.4 266.0 530.9 271.0 530.95 271.0 553.65 345.0 554.25 345.0 555.95 345.0 555.95 350.5 555.35 350.5 555.95 352.55 555.95 370.0 554.2 364.3 549.6 349.25 549.35 348.5 548.45 345.5 532.75 293.8 526.0 271.5 481.1 271.5 503.65 345.0 505.15 350.0 505.2 350.0 521.95 404.5 522.25 405.5 522.1 405.5 522.25 406.0 517.1 406.0 516.65 404.6 516.6 404.65 516.55 404.5 500.0 350.5 470.2 350.5 470.35 353.35 Q470.35 358.0 467.35 364.5 464.35 370.9 464.35 371.45 L473.85 387.0 Q480.4 398.2 482.45 403.8 L482.7 404.5 Q483.3 406.35 483.35 407.55 L483.35 407.65 Q483.35 410.2 482.55 413.0 L476.7 413.0 Q478.35 409.95 478.35 407.65 M508.85 214.5 L463.6 214.5 479.4 266.0 524.35 266.0 508.85 215.05 509.0 215.05 508.85 214.55 509.1 214.5 508.85 214.5 M358.85 214.55 L359.1 214.5 358.85 214.5 313.6 214.5 328.7 263.65 330.1 264.9 Q332.15 266.3 334.6 266.35 336.7 266.3 352.6 260.05 363.3 255.8 370.8 254.4 L358.85 215.05 359.0 215.05 358.85 214.55 M343.9 270.05 L341.25 271.05 343.9 271.05 375.85 271.05 384.75 271.05 390.95 270.5 405.95 270.6 Q402.9 270.15 400.35 269.15 398.05 268.2 394.75 266.0 L393.6 265.25 Q389.5 262.4 387.0 261.4 382.8 259.65 377.45 259.65 L377.25 259.65 372.5 260.0 Q364.55 261.1 353.65 265.8 L343.9 270.05 M331.8 271.05 L330.8 270.65 Q328.1 269.5 325.25 267.4 L323.15 266.0 Q317.8 262.85 311.75 262.85 299.7 262.85 292.7 265.8 L292.3 266.0 288.2 267.85 Q285.85 268.75 283.35 268.75 278.3 268.75 277.35 267.25 L277.35 266.05 275.45 265.4 273.9 264.5 270.95 262.6 Q264.95 258.55 256.35 258.55 245.05 258.55 233.25 264.2 231.05 265.25 229.4 266.05 L224.9 268.05 Q220.35 269.8 216.35 269.85 210.85 269.8 206.7 267.75 205.55 267.15 203.95 266.0 L200.2 263.15 Q196.2 259.85 193.25 258.5 188.6 256.4 182.25 256.4 L176.55 256.75 171.75 257.5 Q164.05 259.0 155.45 262.6 147.9 265.75 144.25 266.85 137.65 268.75 130.85 268.75 L130.25 268.75 Q120.35 268.65 113.35 266.0 110.25 264.8 107.7 263.15 103.1 260.05 101.0 259.25 96.6 257.5 89.85 257.5 83.7 257.5 77.5 259.8 75.25 260.6 73.05 261.7 70.8 262.8 68.6 264.2 63.05 267.7 60.45 268.8 55.85 270.75 50.7 270.9 L256.85 270.9 266.95 270.95 275.85 270.95 330.95 271.05 331.8 271.05 M386.25 305.2 L343.85 305.1 341.4 305.1 336.2 305.1 291.35 305.0 288.45 305.0 291.8 306.45 295.85 308.2 Q308.4 313.25 312.25 313.25 315.45 313.25 326.25 309.25 331.95 307.15 336.5 306.15 L341.5 305.35 343.85 305.25 Q347.15 305.2 349.4 306.85 L352.95 310.3 Q357.85 315.4 367.35 315.4 373.2 315.4 384.95 308.7 L386.95 307.6 389.45 306.15 389.45 305.2 388.95 305.2 386.25 305.2 M-9.45 299.85 L215.85 299.85 234.6 299.9 239.85 299.9 266.95 299.95 284.65 300.0 289.85 300.0 334.65 300.0 339.85 300.0 384.65 299.95 388.95 299.9 389.8 299.9 403.45 299.4 412.9 335.25 414.4 340.6 414.45 340.6 Q426.15 379.95 432.7 402.95 L433.15 404.5 433.75 406.6 435.5 413.0 430.0 413.0 428.15 406.5 427.6 404.5 427.15 403.0 416.25 364.5 414.5 358.35 414.55 358.4 401.25 310.95 399.85 317.25 397.95 326.5 397.35 330.55 Q397.35 342.5 405.35 352.8 L406.45 354.2 410.85 359.7 Q413.35 363.3 413.35 366.35 L410.85 375.95 409.5 381.55 Q408.35 386.5 408.35 387.65 408.35 393.0 411.15 397.55 L415.5 403.1 416.15 403.9 416.5 404.35 417.35 405.35 417.9 406.0 418.05 406.2 419.55 408.2 422.55 413.0 415.1 413.0 Q413.25 410.95 411.45 408.2 L409.0 404.1 408.8 403.8 408.15 402.55 Q403.35 393.5 403.35 388.35 403.35 385.2 405.5 377.05 L406.65 372.3 Q407.6 368.15 407.6 366.65 407.6 364.85 405.2 361.05 L401.4 355.15 400.0 352.9 398.6 350.5 Q396.95 347.7 395.8 345.0 392.35 337.25 392.35 330.55 L392.45 325.65 Q392.7 318.0 393.8 312.95 394.25 310.7 394.9 309.0 L393.0 310.25 388.6 312.95 386.65 314.0 Q373.7 321.3 368.35 321.3 358.2 321.3 351.4 316.2 L347.1 312.75 Q345.0 311.1 343.25 311.15 L338.15 311.55 Q332.35 312.4 324.85 315.15 313.75 319.15 311.85 319.15 306.05 319.15 294.3 313.95 L294.1 313.85 287.95 310.8 283.6 308.7 Q281.0 308.7 278.15 310.7 L272.6 315.05 Q264.3 321.3 253.35 321.3 L246.2 320.7 240.5 319.25 Q236.3 317.8 232.45 315.4 225.05 309.5 223.85 309.5 222.45 309.5 220.1 311.0 L215.0 314.35 Q206.9 318.95 195.7 319.15 L194.85 319.15 190.45 319.1 Q174.55 318.6 167.65 314.5 166.4 313.75 163.55 311.25 161.85 309.8 160.1 309.8 158.45 309.75 154.15 311.75 L145.0 316.1 144.8 316.2 140.2 318.2 Q129.8 322.35 122.85 322.4 112.05 322.4 103.7 317.2 L98.55 313.55 Q96.2 311.9 95.0 311.95 L93.5 312.0 88.5 312.75 Q84.2 313.8 79.1 316.1 69.9 320.25 64.5 320.25 56.2 320.25 44.5 315.2 L41.95 314.1 38.4 312.35 33.1 309.85 Q28.95 307.9 27.35 307.9 26.45 307.9 16.3 314.6 6.2 321.3 0.0 321.3 L-2.55 320.8 -3.85 320.2 -4.2 320.0 -4.5 319.8 -4.7 319.7 -8.15 317.25 -9.0 316.55 -9.45 316.15 -9.55 316.1 -10.15 315.55 -10.7 315.0 -11.0 314.75 -11.0 308.05 -10.75 308.2 -10.25 308.6 -9.2 309.4 -9.1 309.5 -9.0 309.6 -6.8 311.5 -6.75 311.55 -5.5 312.65 -4.6 313.45 -2.5 315.05 -1.9 315.45 -1.55 315.65 -1.5 315.65 -1.3 315.7 -1.25 315.7 Q5.15 315.65 15.25 308.85 20.3 305.45 23.35 303.75 L-4.3 303.5 -4.5 303.5 -5.5 303.5 -9.4 303.45 -10.35 303.45 -11.0 303.45 -11.0 299.85 -9.5 299.85 -9.45 299.85 M291.5 35.75 L293.5 36.0 293.75 36.85 289.25 39.9 Q284.75 42.95 284.75 45.5 284.75 48.3 290.75 51.5 296.75 54.7 296.75 56.1 296.75 57.9 289.5 62.25 288.25 61.85 288.25 60.85 288.25 59.15 294.05 56.0 282.25 51.25 282.25 45.5 282.25 42.6 284.95 39.55 287.85 36.3 291.5 35.75 M322.35 35.0 Q322.35 53.65 319.85 80.85 317.45 107.1 317.35 130.5 318.7 130.55 319.05 130.95 319.35 131.3 319.35 133.25 L319.55 134.8 Q319.3 135.85 316.9 136.55 310.0 138.5 283.35 138.5 L248.9 137.65 217.3 136.5 217.25 137.75 215.0 138.5 Q211.85 130.85 211.5 118.2 211.7 103.9 211.5 97.5 210.5 70.5 210.5 56.6 L210.55 39.75 Q211.2 25.5 214.5 25.5 215.75 25.5 216.45 25.95 L218.65 25.6 261.0 24.0 274.35 23.5 Q310.7 23.5 319.9 28.5 322.9 30.15 322.9 32.35 322.95 33.55 322.35 35.0 M312.2 32.1 Q307.35 30.9 295.9 30.55 L224.5 30.5 216.95 30.0 Q215.9 35.45 215.6 42.15 L215.5 56.75 217.5 121.25 217.45 132.05 283.25 133.0 311.6 130.95 311.4 129.4 311.35 123.0 Q311.35 109.2 314.35 79.9 317.35 50.65 317.35 36.0 317.35 33.35 312.2 32.1 M252.5 47.25 Q253.05 47.25 256.05 52.3 L258.0 55.2 Q261.25 43.75 264.0 43.75 L265.1 43.95 265.25 45.1 261.1 57.15 260.85 57.85 262.0 58.3 262.15 58.1 262.25 58.85 Q262.25 60.65 260.25 60.75 L259.85 60.75 Q256.8 69.75 256.55 74.3 L255.5 74.75 Q254.25 74.4 254.25 71.85 254.25 69.35 257.0 58.8 255.75 57.45 254.4 55.15 251.25 50.0 251.25 47.55 L252.5 47.25 M277.75 41.5 L275.25 41.5 Q270.1 45.85 269.1 47.55 268.25 48.95 268.25 52.75 268.25 60.55 273.0 60.55 276.0 60.55 277.4 59.6 279.25 58.3 279.5 58.25 280.45 58.65 280.75 59.25 L277.75 62.15 Q276.05 63.25 272.5 63.25 267.7 63.25 266.25 58.0 L265.75 52.6 Q265.75 49.55 267.85 45.3 271.05 38.75 277.0 38.75 281.3 38.75 280.25 41.25 280.25 42.95 277.5 47.25 274.25 52.25 271.25 52.25 L269.3 52.0 269.25 50.6 Q269.25 49.25 270.85 49.3 272.95 49.4 274.25 47.05 L277.75 41.8 277.75 41.5 M272.0 71.3 Q274.45 66.75 278.25 66.75 282.4 66.75 282.25 69.55 282.25 72.15 279.95 74.95 277.0 78.45 272.25 78.75 272.7 81.65 272.9 82.05 274.4 84.55 279.55 84.55 281.4 84.55 281.9 83.55 282.6 82.25 284.0 81.75 L284.85 81.95 Q285.25 82.1 285.25 82.85 285.25 84.8 283.05 86.05 281.0 87.25 278.0 87.25 273.2 87.25 271.0 82.75 L269.75 78.25 Q269.75 76.75 270.6 74.5 L265.2 77.1 Q264.05 77.6 263.05 78.05 L269.25 90.25 268.0 91.25 Q266.75 89.7 262.6 81.7 L261.2 78.85 253.5 82.25 Q252.25 81.85 252.25 80.85 L260.2 76.85 Q258.25 72.75 258.25 71.8 258.25 69.75 260.25 69.75 L261.45 69.85 Q261.75 70.0 261.75 70.85 261.75 71.5 261.3 71.55 260.8 71.65 260.8 72.25 260.8 73.1 262.05 75.95 271.35 71.25 271.5 71.25 L272.0 71.3 M277.25 69.5 Q275.8 69.5 274.4 71.85 273.25 73.8 273.25 74.75 L274.5 76.0 Q278.6 74.75 279.55 70.0 L279.55 69.55 277.25 69.5 M244.25 64.6 Q244.25 68.75 242.3 72.3 239.95 76.65 235.3 78.1 L235.9 81.0 236.2 80.85 Q246.45 75.75 246.75 75.75 247.2 75.75 248.0 76.3 L248.15 76.1 248.25 76.85 Q248.25 77.9 239.3 82.8 L236.55 84.3 238.95 95.75 239.0 95.75 Q240.05 95.75 245.25 103.85 250.25 111.65 250.25 112.1 L250.0 113.5 248.75 113.75 239.0 99.9 Q238.45 102.7 236.7 105.8 233.1 112.15 232.0 115.5 L230.75 115.75 229.3 115.5 229.25 114.1 Q229.25 113.15 233.0 106.8 236.75 100.4 236.75 97.25 236.75 95.75 235.25 89.75 L234.35 85.4 Q229.55 87.75 228.0 87.75 226.5 87.75 225.8 87.05 L225.75 86.35 Q225.75 86.0 233.9 82.0 L233.75 79.05 233.7 78.45 230.25 78.75 Q224.95 78.75 223.3 73.7 L222.75 68.5 Q222.75 64.25 225.15 58.4 228.15 51.1 232.25 51.25 L234.0 51.5 234.25 52.35 Q234.25 53.3 232.7 53.85 230.45 54.65 229.0 56.25 L228.8 56.55 230.35 55.75 Q231.7 55.25 234.25 55.25 240.9 55.25 243.25 59.85 244.4 62.15 244.25 64.6 M259.25 92.5 L259.9 91.95 Q260.5 91.55 260.5 90.75 264.75 95.75 270.05 101.35 273.25 105.4 273.25 110.8 273.25 113.45 270.5 115.75 267.5 118.25 263.25 118.25 259.85 118.25 258.25 116.0 257.25 114.6 257.25 113.35 257.25 102.75 263.25 102.75 L265.5 103.0 265.75 103.85 Q265.75 104.65 263.25 105.85 260.55 107.1 260.25 108.5 259.75 110.5 259.75 113.35 259.75 114.15 261.0 114.85 262.3 115.55 264.0 115.55 266.4 115.55 268.75 113.5 270.75 111.75 270.75 110.8 270.75 104.5 265.0 99.4 L261.05 95.9 Q259.25 94.1 259.25 92.5 M287.8 64.35 Q289.75 61.75 295.5 61.75 299.25 61.75 299.25 62.85 299.25 63.2 294.25 65.2 289.25 67.2 289.25 69.0 289.25 71.0 290.65 75.0 292.05 79.0 293.25 80.5 291.75 82.25 291.25 82.25 288.85 82.25 287.55 75.55 L286.75 68.85 Q286.75 65.75 287.8 64.35 M301.25 90.0 Q301.25 97.7 299.4 106.3 L300.0 105.75 300.85 105.95 Q301.25 106.1 301.25 106.85 301.25 107.8 299.75 109.3 L298.4 110.45 Q295.9 119.65 292.0 125.25 290.75 124.0 290.75 123.6 L295.35 109.8 Q293.75 108.55 291.6 105.7 288.25 101.2 288.25 100.5 288.25 99.15 289.5 98.25 290.8 99.3 293.3 102.7 L296.4 106.75 296.8 105.5 297.25 95.35 Q297.4 88.25 300.0 88.25 301.25 88.25 301.25 90.0 M225.25 68.4 Q225.25 76.0 230.35 76.0 237.8 76.0 240.5 70.45 241.9 67.65 241.75 64.75 241.75 58.0 231.75 58.0 228.35 58.0 226.5 62.8 225.25 66.0 225.25 68.4 M284.25 105.5 Q284.25 114.25 279.5 114.25 276.4 114.25 274.75 110.05 L273.75 105.75 Q273.75 103.3 275.55 100.5 277.95 96.75 282.0 96.75 282.95 96.75 286.45 103.45 290.55 111.3 292.25 113.25 291.25 114.75 290.5 114.75 288.8 114.75 286.95 110.8 L284.25 105.5 M277.2 108.45 Q278.4 110.9 279.75 111.5 281.15 109.95 281.6 105.3 282.1 100.75 281.0 100.75 277.9 100.75 276.75 103.1 276.2 104.3 276.25 105.6 276.25 106.45 277.2 108.45 M122.55 33.8 Q122.75 34.25 121.5 34.25 120.95 34.25 120.55 33.65 L119.75 32.5 119.75 27.55 121.0 27.25 Q122.0 27.25 122.75 32.5 L122.55 33.8 M128.75 36.6 L128.55 37.45 127.15 37.6 Q122.95 37.9 116.5 39.8 L108.75 42.25 107.75 42.0 Q107.25 41.5 107.25 40.85 107.25 37.95 127.5 35.25 128.75 35.55 128.75 36.6 M122.75 46.75 Q124.1 46.75 124.75 52.35 L124.55 53.3 Q124.5 53.75 123.25 53.75 L121.8 53.5 Q121.25 49.1 121.25 47.85 121.25 47.0 121.55 46.85 L122.75 46.75 M122.5 46.25 Q121.25 45.0 121.25 44.6 121.25 43.65 121.4 43.45 L122.5 43.25 123.6 43.45 123.75 44.6 123.55 45.75 122.5 46.25 M115.25 24.6 L113.75 32.1 113.8 33.5 114.5 34.0 Q114.95 33.85 115.6 32.8 116.25 31.7 117.5 31.25 118.75 31.8 118.75 32.6 118.75 34.2 117.25 35.5 115.85 36.75 114.25 36.75 111.35 36.75 111.05 34.15 L111.25 30.8 Q108.7 30.85 107.95 29.3 L107.75 27.6 Q107.75 26.0 108.55 24.5 109.75 22.25 112.0 22.25 115.25 22.25 115.25 24.6 M119.55 23.35 L120.75 23.25 Q121.7 23.25 122.25 24.25 121.25 25.75 120.75 25.75 L119.75 25.5 Q119.25 25.0 119.25 24.35 119.25 23.5 119.55 23.35 M98.25 32.25 L97.25 32.0 97.25 27.5 96.75 27.0 Q95.55 27.6 90.05 31.0 90.7 32.15 95.15 34.1 99.25 35.85 99.25 36.6 L96.0 43.75 95.75 44.05 Q103.05 43.8 102.25 39.25 L103.5 38.75 Q105.1 38.75 104.75 42.0 104.75 44.3 104.05 45.0 102.4 46.75 96.25 46.75 93.75 46.75 93.25 45.55 L93.25 44.25 Q93.25 41.35 95.8 37.5 L89.6 34.45 Q87.25 33.15 87.25 30.6 87.25 29.85 91.6 27.05 95.95 24.25 97.25 24.25 100.6 24.25 99.75 29.0 99.75 32.25 98.25 32.25 M82.75 42.75 Q82.75 43.45 81.8 44.25 80.55 45.25 78.75 45.25 L78.75 45.5 83.0 45.25 Q84.25 45.55 84.25 46.6 84.25 48.75 80.25 48.75 76.85 48.75 76.25 46.45 L76.25 44.0 Q76.25 41.1 76.65 40.4 77.2 39.5 80.75 36.75 L82.5 37.0 82.75 37.85 Q82.75 38.35 79.35 41.95 L81.25 41.75 Q82.2 41.75 82.75 42.75 M84.75 46.85 Q84.75 43.25 86.75 43.25 92.3 43.25 91.75 46.9 91.75 50.75 88.25 50.75 85.45 50.75 84.85 48.9 L84.75 46.85 M87.3 47.05 L87.8 48.05 88.55 48.0 89.05 46.8 Q88.35 46.1 87.55 46.3 L87.3 47.05 M99.05 47.85 L100.25 47.75 Q101.2 47.75 101.75 48.75 100.75 50.25 100.25 50.25 L99.25 50.0 Q98.75 49.5 98.75 48.85 98.75 48.0 99.05 47.85 M111.75 25.0 L110.25 27.55 110.25 28.0 Q111.8 26.7 111.8 24.8 L111.75 25.0 M116.25 46.75 Q113.75 47.7 113.75 48.85 113.75 49.55 115.25 52.1 L115.05 53.25 Q115.25 53.75 114.0 53.75 112.15 53.75 111.5 51.25 L111.25 48.75 Q111.25 44.1 116.25 43.75 L118.5 44.0 118.75 44.85 Q118.75 45.75 116.25 46.75 M103.25 52.25 L103.25 55.55 102.0 56.25 Q100.75 55.0 100.75 53.75 L100.95 52.75 Q101.25 51.75 102.0 51.25 102.95 51.65 103.25 52.25 M92.25 56.6 L92.0 58.0 90.25 58.05 88.25 58.45 Q89.1 60.45 90.05 65.75 L93.75 64.75 95.5 65.0 95.75 66.1 95.5 67.5 93.35 67.5 90.05 68.7 90.0 68.75 89.0 69.25 88.9 69.1 86.5 69.75 Q85.5 69.75 84.8 69.05 L84.75 68.35 Q84.75 67.3 87.7 66.4 L87.1 64.6 Q85.9 60.75 85.8 58.9 L83.0 59.25 Q81.75 58.0 81.75 57.6 81.75 56.45 83.15 56.2 L90.25 55.25 92.0 55.5 92.25 56.6 M82.75 70.35 Q82.75 74.25 79.25 74.25 76.45 74.25 75.6 72.45 L75.25 70.5 Q75.25 69.25 75.8 67.8 76.6 65.75 78.0 65.75 81.6 65.75 82.5 67.75 L82.75 70.35 M99.75 71.6 Q99.75 73.0 96.75 73.65 L86.25 75.8 Q69.3 80.75 68.25 80.75 L66.75 80.5 Q66.25 80.0 66.25 79.35 66.25 78.0 83.0 73.75 96.4 70.25 98.25 70.25 99.75 70.25 99.75 71.6 M94.5 78.5 L94.75 79.35 Q94.75 79.95 92.5 81.15 90.25 82.3 90.25 83.25 90.25 84.1 91.75 86.6 L91.55 87.75 Q91.75 88.25 90.5 88.25 89.05 88.25 88.25 85.75 L87.75 83.25 Q87.75 79.35 92.75 78.25 L94.5 78.5 M84.85 84.05 L86.25 88.75 86.0 89.35 Q85.75 89.75 85.0 89.75 83.95 89.75 82.25 85.75 80.75 82.25 80.75 81.6 L79.65 82.15 Q80.65 84.0 82.25 88.5 82.25 89.75 82.0 89.25 81.5 89.75 80.75 89.75 79.5 89.75 78.25 85.9 L77.45 83.15 75.0 84.25 Q73.75 83.85 73.75 82.85 73.75 81.55 76.95 80.15 79.75 78.9 81.5 78.75 L83.0 79.0 83.25 79.85 82.8 80.4 Q83.8 81.0 84.85 84.05 M117.25 93.6 Q119.55 92.7 122.25 91.75 L124.0 92.0 124.25 92.85 Q124.25 94.65 115.35 97.45 L115.25 97.75 115.25 100.25 Q117.5 98.75 120.0 98.75 125.25 98.75 125.25 103.35 125.25 105.1 123.1 107.05 120.6 109.25 117.5 109.25 116.0 109.25 115.3 108.55 L115.25 107.85 Q115.25 107.5 119.0 106.05 122.75 104.65 122.75 103.35 122.75 101.5 119.6 101.5 117.75 101.5 116.0 102.9 L114.25 104.25 112.8 104.0 112.75 99.85 Q112.75 98.2 113.0 97.15 L112.75 96.35 Q112.75 95.4 117.25 93.6 M143.55 89.1 Q145.8 108.55 147.15 117.35 L147.25 117.45 147.5 119.25 147.5 119.35 147.5 119.5 146.75 120.8 Q146.1 121.5 144.5 121.5 L141.75 121.0 107.3 127.0 Q66.3 133.5 55.0 133.5 47.5 133.5 45.8 132.25 L45.3 131.5 45.0 131.5 Q41.25 131.5 31.5 81.9 26.65 57.05 22.5 32.0 22.5 26.1 25.0 24.5 L25.3 25.35 Q31.6 22.6 60.75 18.25 99.3 12.5 124.5 12.5 133.0 12.5 139.15 53.85 140.75 64.8 143.55 89.1 M91.1 22.15 L62.5 23.0 42.65 26.3 26.45 29.4 Q28.8 38.1 31.05 50.5 L35.5 76.75 Q36.15 80.55 42.1 104.25 47.5 125.8 47.5 128.5 L47.4 129.85 Q53.95 127.9 83.4 123.65 118.95 118.55 141.5 116.75 137.95 64.2 123.5 18.0 112.45 21.6 91.1 22.15 M45.25 37.1 Q45.25 40.0 44.35 45.6 43.3 52.15 43.05 55.8 43.0 56.25 41.75 56.25 39.25 56.25 32.75 39.4 L33.0 38.5 34.25 38.25 Q35.6 38.25 37.5 42.8 39.9 48.5 40.5 49.3 L40.75 49.3 Q40.9 45.65 41.35 42.35 42.2 35.75 43.75 35.75 45.25 35.75 45.25 37.1 M49.75 43.25 L52.0 43.5 52.25 44.35 Q52.25 45.75 49.75 45.75 48.0 45.75 47.3 45.05 L47.25 44.35 Q47.25 43.4 49.75 43.25 M50.5 47.75 L53.0 48.0 53.25 48.85 Q53.25 50.75 50.25 50.75 L47.8 50.5 47.75 49.1 Q47.75 48.0 48.5 47.8 L50.5 47.75 M60.25 40.8 Q60.5 39.75 61.75 39.75 62.05 39.75 62.85 43.4 63.75 43.9 63.75 44.6 L63.3 45.7 64.25 51.35 64.05 52.0 63.9 52.5 63.0 52.75 Q61.55 52.75 60.75 47.8 L60.75 47.5 Q59.15 48.25 58.0 48.25 L55.8 48.0 55.75 46.6 Q55.75 45.25 56.35 43.1 57.0 40.75 57.5 40.75 59.7 40.75 59.0 45.05 L60.4 44.35 60.25 42.75 60.25 40.8 M53.25 37.35 Q53.25 37.1 63.15 33.95 L61.75 31.3 Q60.75 28.8 60.75 28.0 L60.8 26.5 62.25 26.25 Q63.55 26.25 64.25 29.3 64.75 31.45 64.75 33.25 L64.55 33.5 Q76.05 29.75 78.0 29.75 L79.1 29.95 79.25 31.1 Q79.25 31.9 56.0 38.75 53.85 38.75 53.35 38.05 L53.25 37.35 M69.8 41.2 Q70.3 42.6 70.4 44.6 70.6 48.2 71.25 49.75 L71.0 50.35 Q70.75 50.75 70.0 50.75 68.2 50.75 67.8 47.3 L67.75 43.75 67.95 41.7 67.25 41.75 Q65.5 41.75 64.8 41.05 L64.75 40.35 71.75 37.75 Q72.2 37.75 73.0 38.3 L73.15 38.1 73.25 38.85 Q73.25 39.4 72.35 40.0 73.05 41.7 73.6 44.1 L74.75 49.25 73.5 50.25 Q70.75 47.7 70.75 42.25 L70.95 40.75 70.8 40.8 69.8 41.2 M38.25 71.4 Q38.25 70.3 40.5 69.3 42.85 68.25 45.75 68.25 50.4 68.25 50.25 74.1 50.25 74.6 48.25 77.5 52.7 79.4 53.95 81.1 54.75 82.25 54.75 84.85 54.75 87.2 52.75 89.0 50.8 90.75 48.25 90.75 46.25 90.75 46.25 88.55 L46.6 88.2 46.0 88.25 Q43.85 88.25 42.1 80.8 L41.9 79.65 41.8 79.55 41.75 78.85 40.75 73.3 40.75 72.9 40.0 73.25 38.25 71.4 M67.25 68.05 L67.3 68.25 Q69.05 66.6 69.15 62.45 69.25 58.4 70.5 57.25 71.05 58.5 72.15 65.7 73.0 71.35 75.75 74.25 74.75 75.75 74.25 75.75 71.6 75.75 70.75 73.15 L70.05 69.05 69.15 70.35 Q68.4 71.25 67.25 71.25 66.5 71.25 65.9 70.85 L65.25 73.5 64.5 73.75 Q63.25 72.5 63.25 66.85 63.25 65.55 63.75 63.0 64.3 60.25 64.75 60.25 66.5 60.25 66.35 64.25 67.25 65.2 67.25 68.05 M80.2 70.65 Q80.15 69.85 80.25 69.55 L78.65 69.8 Q78.3 69.95 77.75 71.0 78.25 71.0 78.8 71.55 80.05 71.35 80.2 70.65 M58.5 73.75 L61.0 74.0 61.25 74.85 Q61.25 76.75 56.5 76.75 56.0 76.75 55.3 76.05 L55.25 75.35 Q55.25 74.7 56.0 74.15 56.9 73.4 58.5 73.75 M46.55 70.8 Q45.6 70.8 42.6 72.1 L44.15 76.9 44.65 76.6 Q47.55 75.1 47.55 73.75 47.55 70.8 46.55 70.8 M56.8 80.55 L56.75 79.85 Q56.75 78.25 61.0 78.25 L61.8 78.4 62.0 78.8 62.15 78.6 62.25 79.35 Q62.25 81.25 59.0 81.25 57.5 81.25 56.8 80.55 M45.25 80.3 L47.25 86.75 47.05 87.75 47.1 87.8 Q48.3 86.85 50.25 86.25 52.25 85.6 52.25 84.65 52.25 81.9 50.25 81.0 48.85 80.4 45.25 80.3 M68.75 82.75 Q74.85 82.75 71.55 91.05 L71.5 91.25 77.0 89.25 77.85 89.45 Q78.25 89.6 78.25 90.35 78.25 91.65 68.75 95.25 L67.25 95.0 Q66.75 94.5 66.75 93.85 69.3 90.0 69.75 88.55 L69.75 85.55 69.55 85.3 Q68.1 85.95 67.35 86.75 66.85 87.25 66.25 87.25 L65.25 87.0 Q64.75 86.5 64.75 85.6 64.75 82.75 68.75 82.75 M73.25 105.75 Q74.25 105.75 74.95 106.5 78.1 104.65 79.5 104.25 80.45 104.65 80.75 105.25 80.05 106.35 76.1 109.0 L76.2 109.4 Q76.65 111.35 76.75 114.25 L75.5 115.25 Q74.0 114.4 72.85 111.15 L71.0 112.25 Q69.75 111.85 69.75 110.85 69.75 110.0 72.0 108.4 L71.75 107.1 71.8 106.3 Q72.65 105.75 73.25 105.75 M62.25 103.5 Q62.25 105.3 60.05 107.05 L60.0 107.25 Q66.75 108.9 66.75 113.35 66.75 115.25 64.8 117.3 62.5 119.75 59.25 119.75 56.85 119.75 56.3 119.05 L56.25 118.35 Q56.25 118.15 60.15 116.45 64.05 114.7 64.05 113.35 64.05 111.65 62.55 111.0 60.7 110.25 55.5 110.25 55.0 110.25 54.3 109.55 L54.25 108.85 Q54.25 108.45 55.95 107.2 L58.75 104.75 58.8 104.3 Q56.45 104.25 55.1 105.6 L53.5 107.25 Q52.25 106.0 52.25 105.6 52.25 104.1 54.9 102.7 57.5 101.35 59.25 101.75 L62.0 102.0 62.25 103.5 M105.15 104.1 L105.25 104.85 Q105.25 105.85 103.2 106.6 L98.5 108.25 Q97.25 107.85 97.25 106.6 97.25 106.25 100.25 105.0 103.25 103.75 104.0 103.75 L104.8 103.9 105.0 104.3 105.15 104.1 M104.0 99.5 L104.25 100.35 Q104.25 101.15 101.5 102.25 99.05 103.25 98.25 103.25 L96.8 103.0 96.75 101.6 Q96.75 100.5 97.95 100.2 L102.5 99.25 104.0 99.5 M82.0 101.05 Q81.75 101.15 81.75 99.9 81.75 97.75 87.5 97.75 91.85 97.75 90.75 103.15 L90.6 107.3 Q90.3 108.45 88.05 112.55 L88.0 112.8 94.0 111.75 96.5 112.0 96.75 112.85 Q96.75 113.35 85.25 116.75 L83.8 116.5 83.75 115.1 88.25 105.55 88.25 100.5 87.0 100.3 Q85.95 100.3 84.95 101.05 84.0 101.75 83.5 101.75 L82.0 101.05 M158.85 214.55 L159.1 214.5 158.85 214.5 113.6 214.5 128.45 262.8 130.75 262.85 Q139.0 262.85 145.65 260.95 149.5 259.8 156.1 256.7 162.55 253.6 166.75 252.45 L170.0 251.7 158.85 215.05 159.0 215.05 158.85 214.55 M108.85 214.55 L109.1 214.5 108.85 214.5 63.6 214.5 75.95 254.8 Q83.25 251.6 89.5 251.6 96.15 251.6 101.0 253.35 103.6 254.25 108.55 257.25 115.15 261.1 123.2 262.3 L108.85 215.05 109.0 215.05 108.85 214.55 M58.85 214.55 L59.1 214.5 58.85 214.5 13.6 214.5 26.65 257.0 Q29.2 258.0 32.15 259.35 44.45 265.0 50.75 265.0 55.7 265.0 60.6 262.9 63.3 261.8 69.15 258.3 70.35 257.55 71.6 256.95 L58.85 215.05 59.0 215.05 58.85 214.55 M79.2 310.3 Q83.4 308.2 86.85 307.25 89.55 306.45 91.8 306.35 L92.5 306.3 Q95.8 306.3 99.25 307.9 L105.4 311.4 Q114.0 316.45 122.75 316.5 129.85 316.45 138.7 313.35 L143.35 311.5 146.05 310.3 154.7 306.1 157.9 304.65 141.25 304.6 136.05 304.55 91.15 304.3 85.95 304.25 82.0 304.25 82.0 304.2 41.05 303.9 35.8 303.85 33.1 303.85 33.35 303.95 36.25 305.3 42.25 308.2 42.35 308.25 Q55.6 314.35 64.35 314.35 71.1 314.3 79.2 310.3 M308.85 214.55 L309.1 214.5 308.85 214.5 263.6 214.5 276.7 257.2 Q279.9 259.2 284.75 262.35 L289.15 261.0 Q302.5 256.95 311.85 256.95 317.8 256.95 322.2 259.0 L308.85 215.05 309.0 215.05 308.85 214.55 M258.85 215.05 L259.0 215.05 258.85 214.55 259.1 214.5 258.85 214.5 213.6 214.5 227.65 260.35 231.95 258.3 Q244.6 252.65 257.35 252.65 266.85 252.65 270.7 254.0 L258.85 215.05 M208.85 214.55 L209.1 214.5 208.85 214.5 163.6 214.5 174.8 250.95 182.35 250.55 Q193.2 250.5 201.9 257.25 206.7 260.9 208.35 261.85 212.2 263.9 216.75 263.95 219.35 263.9 223.2 262.3 L208.85 215.05 209.0 215.05 208.85 214.55 M278.25 304.95 L266.95 304.9 241.35 304.8 236.1 304.8 227.2 304.75 226.8 304.75 227.2 305.0 233.0 309.25 Q235.6 311.0 238.4 312.3 241.25 313.6 244.25 314.35 L252.85 315.4 Q261.45 315.4 271.45 309.25 276.2 306.2 278.25 305.0 L278.4 304.95 278.25 304.95 M164.9 305.6 L167.3 308.7 Q171.5 312.65 188.65 313.2 L193.9 313.25 194.0 313.25 Q206.65 313.25 214.7 308.2 L219.45 304.7 216.95 304.7 216.95 304.9 191.3 304.8 186.1 304.8 164.9 304.7 163.45 304.7 Q164.35 305.0 164.9 305.6" fill="#000000" fill-rule="evenodd" stroke="none"/>
      <path d="M427.1 266.1 L427.35 266.9 427.2 269.9 427.2 270.8 412.7 270.65 Q415.25 270.1 417.55 268.4 420.75 265.9 427.1 266.1 M468.5 407.45 L468.1 406.0 467.25 403.2 455.45 363.15 455.4 363.15 453.9 357.8 429.85 276.75 430.65 276.5 433.25 278.55 437.85 282.25 Q448.35 291.35 448.35 299.85 448.35 302.55 446.35 316.35 446.35 320.55 449.3 324.75 450.5 326.4 455.85 332.15 461.75 338.5 464.0 345.0 464.95 347.75 465.25 350.5 L465.35 352.95 Q465.35 358.0 462.35 362.65 461.05 364.7 460.3 366.7 459.35 369.3 459.35 371.85 459.35 372.7 465.15 382.45 L468.85 388.6 Q474.85 398.5 477.05 403.5 L477.5 404.5 Q478.35 406.65 478.35 407.65 L468.5 407.45 M-10.6 267.45 L-10.0 267.7 Q-8.65 267.05 -7.5 265.45 L-5.55 263.15 -5.35 263.0 -5.1 262.8 Q-0.8 259.65 13.6 259.65 17.25 259.6 23.0 261.6 25.65 262.5 28.75 263.9 L31.8 265.25 Q43.45 270.7 49.6 270.9 L-8.0 270.9 -10.5 272.5 -10.5 273.3 -10.6 270.3 -10.6 267.45 M343.9 271.05 L343.9 270.05 353.65 265.8 Q364.55 261.1 372.5 260.0 L377.25 259.65 377.45 259.65 Q382.8 259.65 387.0 261.4 389.5 262.4 393.6 265.25 L394.75 266.0 Q398.05 268.2 400.35 269.15 402.9 270.15 405.95 270.6 L390.95 270.5 384.75 271.05 375.85 271.05 343.9 271.05 M386.25 305.2 L388.95 305.2 389.45 305.2 389.45 306.15 386.95 307.6 384.95 308.7 Q373.2 315.4 367.35 315.4 357.85 315.4 352.95 310.3 L349.4 306.85 Q347.15 305.2 343.85 305.25 L341.5 305.35 336.5 306.15 Q331.95 307.15 326.25 309.25 315.45 313.25 312.25 313.25 308.4 313.25 295.85 308.2 L291.8 306.45 288.45 305.0 291.35 305.0 336.2 305.1 341.4 305.1 343.85 305.1 386.25 305.2 M331.8 271.05 L330.95 271.05 275.85 270.95 266.95 270.95 256.85 270.9 50.7 270.9 Q55.85 270.75 60.45 268.8 63.05 267.7 68.6 264.2 70.8 262.8 73.05 261.7 75.25 260.6 77.5 259.8 83.7 257.5 89.85 257.5 96.6 257.5 101.0 259.25 103.1 260.05 107.7 263.15 110.25 264.8 113.35 266.0 120.35 268.65 130.25 268.75 L130.85 268.75 Q137.65 268.75 144.25 266.85 147.9 265.75 155.45 262.6 164.05 259.0 171.75 257.5 L176.55 256.75 182.25 256.4 Q188.6 256.4 193.25 258.5 196.2 259.85 200.2 263.15 L203.95 266.0 Q205.55 267.15 206.7 267.75 210.85 269.8 216.35 269.85 220.35 269.8 224.9 268.05 L229.4 266.05 Q231.05 265.25 233.25 264.2 245.05 258.55 256.35 258.55 264.95 258.55 270.95 262.6 L273.9 264.5 275.45 265.4 277.35 266.05 277.35 267.25 Q278.3 268.75 283.35 268.75 285.85 268.75 288.2 267.85 L292.3 266.0 292.7 265.8 Q299.7 262.85 311.75 262.85 317.8 262.85 323.15 266.0 L325.25 267.4 Q328.1 269.5 330.8 270.65 L331.8 271.05 M-9.4 303.45 L-5.5 303.5 -4.5 303.5 -4.3 303.5 23.35 303.75 Q20.3 305.45 15.25 308.85 5.15 315.65 -1.25 315.7 L-1.3 315.7 -1.5 315.65 -1.55 315.65 -1.9 315.45 -2.5 315.05 -4.6 313.45 -5.5 312.65 -6.75 311.55 -6.8 311.5 -9.0 309.6 -9.1 309.5 -9.35 305.75 -9.4 303.45 M418.05 406.2 L417.9 406.0 417.35 405.35 416.5 404.35 416.15 403.9 415.5 403.1 411.15 397.55 Q408.35 393.0 408.35 387.65 408.35 386.5 409.5 381.55 L410.85 375.95 413.35 366.35 Q413.35 363.3 410.85 359.7 L406.45 354.2 405.35 352.8 Q397.35 342.5 397.35 330.55 L397.95 326.5 399.85 317.25 401.25 310.95 414.55 358.4 414.5 358.35 416.25 364.5 427.15 403.0 427.6 404.5 428.15 406.5 423.25 406.35 418.05 406.2 M79.2 310.3 Q71.1 314.3 64.35 314.35 55.6 314.35 42.35 308.25 L42.25 308.2 36.25 305.3 33.35 303.95 33.1 303.85 35.8 303.85 41.05 303.9 82.0 304.2 82.0 304.25 85.95 304.25 91.15 304.3 136.05 304.55 141.25 304.6 157.9 304.65 154.7 306.1 146.05 310.3 143.35 311.5 138.7 313.35 Q129.85 316.45 122.75 316.5 114.0 316.45 105.4 311.4 L99.25 307.9 Q95.8 306.3 92.5 306.3 L91.8 306.35 Q89.55 306.45 86.85 307.25 83.4 308.2 79.2 310.3 M227.2 304.75 L236.1 304.8 241.35 304.8 266.95 304.9 278.25 304.95 278.25 305.0 Q276.2 306.2 271.45 309.25 261.45 315.4 252.85 315.4 L244.25 314.35 Q241.25 313.6 238.4 312.3 235.6 311.0 233.0 309.25 L227.2 305.0 227.2 304.75 M164.9 304.7 L186.1 304.8 191.3 304.8 216.95 304.9 216.95 304.7 219.45 304.7 214.7 308.2 Q206.65 313.25 194.0 313.25 L193.9 313.25 188.65 313.2 Q171.5 312.65 167.3 308.7 L164.9 305.6 164.9 304.7" fill="#d5d9ff" fill-rule="evenodd" stroke="none"/>
      <path d="M483.35 407.55 Q483.3 406.35 482.7 404.5 L482.45 403.8 484.85 404.2 485.1 403.75 485.35 404.5 485.35 405.35 Q485.85 406.7 485.35 407.05 L483.35 407.55 M-6.55 257.65 L-6.7 257.7 -9.4 259.45 Q-8.55 256.95 -7.0 255.9 L-6.55 257.65 M-10.45 274.1 L-5.45 274.2 -4.6 274.2 26.9 274.45 32.0 274.5 77.05 274.9 82.0 274.9 82.0 275.0 82.15 275.0 127.15 275.3 132.25 275.3 177.25 275.6 182.35 275.6 216.95 275.8 216.95 275.5 227.25 275.6 232.35 275.6 266.95 275.8 277.3 275.85 282.4 275.85 327.35 276.0 332.5 276.05 377.4 276.15 382.5 276.15 388.95 276.15 400.2 276.25 425.35 276.25 455.55 380.85 455.5 380.85 457.25 387.05 461.8 403.1 462.2 404.5 463.0 407.35 433.75 406.6 433.15 404.5 432.7 402.95 Q426.15 379.95 414.45 340.6 L414.4 340.6 412.9 335.25 403.45 299.4 389.8 299.9 388.95 299.9 384.65 299.95 339.85 300.0 334.65 300.0 289.85 300.0 284.65 300.0 266.95 299.95 239.85 299.9 234.6 299.9 215.85 299.85 -9.45 299.85 -9.45 299.75 -9.5 288.85 -10.45 274.1 M-8.15 317.25 L-4.7 319.7 -4.75 321.6 Q-5.25 321.55 -7.0 322.4 L-8.15 317.25" fill="#c4caff" fill-rule="evenodd" stroke="none"/>
      <path d="M-9.45 299.85 L-9.5 299.85 -9.45 299.75 -9.45 299.85 M-10.35 303.45 L-9.4 303.45 -9.35 305.75 -9.1 309.5 -9.2 309.4 -10.25 308.6 -10.75 308.2 -10.35 303.45 M-10.7 315.0 L-10.15 315.55 -9.55 316.1 -9.45 316.15 -9.0 316.55 -8.15 317.25 -7.0 322.4 Q-5.25 321.55 -4.75 321.6 L-4.7 319.7 -4.5 319.8 -4.2 320.0 -3.85 320.2 -2.55 320.8 0.0 321.3 Q6.2 321.3 16.3 314.6 26.45 307.9 27.35 307.9 28.95 307.9 33.1 309.85 L38.4 312.35 41.95 314.1 44.5 315.2 Q56.2 320.25 64.5 320.25 69.9 320.25 79.1 316.1 84.2 313.8 88.5 312.75 L93.5 312.0 95.0 311.95 Q96.2 311.9 98.55 313.55 L103.7 317.2 Q112.05 322.4 122.85 322.4 129.8 322.35 140.2 318.2 L144.8 316.2 145.0 316.1 154.15 311.75 Q158.45 309.75 160.1 309.8 161.85 309.8 163.55 311.25 166.4 313.75 167.65 314.5 174.55 318.6 190.45 319.1 L194.85 319.15 195.7 319.15 Q206.9 318.95 215.0 314.35 L220.1 311.0 Q222.45 309.5 223.85 309.5 225.05 309.5 232.45 315.4 236.3 317.8 240.5 319.25 L246.2 320.7 253.35 321.3 Q264.3 321.3 272.6 315.05 L278.15 310.7 Q281.0 308.7 283.6 308.7 L287.95 310.8 294.1 313.85 294.3 313.95 Q306.05 319.15 311.85 319.15 313.75 319.15 324.85 315.15 332.35 312.4 338.15 311.55 L343.25 311.15 Q345.0 311.1 347.1 312.75 L351.4 316.2 Q358.2 321.3 368.35 321.3 373.7 321.3 386.65 314.0 L388.6 312.95 393.0 310.25 394.9 309.0 Q394.25 310.7 393.8 312.95 392.7 318.0 392.45 325.65 L392.35 330.55 Q392.35 337.25 395.8 345.0 396.95 347.7 398.6 350.5 L400.0 352.9 401.4 355.15 405.2 361.05 Q407.6 364.85 407.6 366.65 407.6 368.15 406.65 372.3 L405.5 377.05 Q403.35 385.2 403.35 388.35 403.35 393.5 408.15 402.55 L408.8 403.8 409.0 404.1 411.45 408.2 Q203.95 408.15 -5.75 406.1 L-5.75 407.4 Q-6.25 407.35 -8.0 408.2 L-9.65 406.05 -10.5 406.05 -10.5 404.65 -11.0 403.6 -11.0 362.25 Q-10.5 356.1 -10.5 352.15 -10.85 333.65 -10.5 324.0 L-10.7 315.0 M419.55 408.2 L418.05 406.2 423.25 406.35 Q423.05 407.25 422.5 407.65 L420.85 408.2 419.55 408.2" fill="#e6ebff" fill-rule="evenodd" stroke="none"/>
      <path d="M432.75 123.75 L432.8 124.3 430.8 125.55 430.5 125.25 Q430.65 123.75 431.5 123.75 L432.75 123.75 M410.75 127.55 L410.75 129.8 Q408.75 130.45 408.75 131.6 408.75 132.85 410.0 133.25 L411.3 132.75 411.35 133.0 Q411.95 134.25 413.0 134.25 414.25 134.25 414.05 133.8 L414.25 132.65 413.95 131.85 Q415.25 131.25 415.25 130.35 L415.0 129.5 413.25 129.25 412.9 129.3 412.0 127.25 410.75 127.55 M425.05 126.05 Q424.05 127.85 421.25 128.5 L421.5 128.05 423.55 125.5 424.75 125.3 425.05 126.05 M437.75 120.25 L436.55 120.35 Q436.25 120.55 436.25 121.4 L438.55 124.15 440.55 126.05 Q440.25 128.9 440.25 132.6 440.25 134.25 441.5 134.75 L442.75 134.05 444.25 121.85 Q444.25 118.65 443.0 117.75 441.7 119.15 441.0 122.65 438.8 120.25 437.75 120.25 M432.5 120.75 Q430.05 120.75 428.75 122.55 427.75 123.9 427.75 125.6 L427.75 126.0 Q427.6 122.75 424.25 122.75 420.4 122.75 418.25 128.5 416.75 132.5 416.75 135.6 416.75 136.75 418.5 137.75 L419.35 137.5 Q419.75 137.3 419.75 136.5 419.75 132.15 423.75 129.85 L426.5 128.25 Q427.7 127.3 427.75 126.05 L427.8 127.05 Q428.4 128.25 431.25 128.25 432.65 128.25 433.8 127.3 434.75 128.8 434.75 129.6 435.05 133.0 429.85 133.0 429.25 133.0 428.2 132.4 427.15 131.75 426.5 131.75 L425.25 132.3 425.95 134.3 Q427.05 135.75 430.0 135.75 433.8 135.75 435.8 133.3 437.25 131.6 437.25 129.75 435.65 120.75 432.5 120.75 M459.25 121.25 Q458.8 121.25 457.45 122.0 455.75 122.9 455.75 123.85 455.75 124.85 457.0 125.25 L458.75 124.75 Q455.25 129.85 455.25 130.35 455.25 131.35 456.5 131.75 459.35 130.5 461.65 130.1 462.75 129.9 462.75 129.35 L462.65 128.6 462.5 128.8 Q461.7 128.3 459.75 128.05 L459.8 127.8 Q461.25 127.0 461.25 124.25 461.9 121.25 459.25 121.25 M448.0 117.25 L446.75 117.55 447.45 120.75 447.3 120.8 Q445.75 121.5 445.75 122.35 445.75 123.0 446.25 123.5 L447.25 123.75 448.0 123.65 448.3 125.5 449.75 125.75 Q451.0 125.75 451.05 125.3 L451.25 124.35 450.8 122.45 Q451.75 122.0 451.75 121.35 L451.5 120.5 450.15 120.3 Q449.1 117.25 448.0 117.25 M455.5 109.25 L454.25 109.55 454.25 111.8 454.75 115.2 Q455.05 117.75 456.5 117.75 L457.0 117.75 Q453.25 119.0 453.25 119.85 453.25 120.5 453.75 121.0 L454.75 121.25 Q462.75 118.55 462.75 117.85 L462.5 117.0 460.25 116.75 457.55 117.55 457.55 117.3 457.75 116.0 Q457.15 109.25 455.5 109.25 M469.25 118.75 Q470.25 118.75 470.25 120.0 470.25 120.75 467.75 122.3 L467.75 122.05 Q467.8 121.5 469.25 118.75 M472.75 119.75 Q473.05 115.75 470.0 115.75 466.8 115.75 464.75 121.6 463.25 125.9 463.25 129.1 L463.3 131.0 464.75 131.25 Q466.0 131.25 466.05 130.8 466.2 126.3 469.5 124.45 472.75 122.6 472.75 119.75 M472.8 115.5 L472.75 116.6 Q472.75 117.05 474.75 120.0 476.95 123.25 478.0 123.25 479.05 123.25 479.75 119.35 L480.25 114.5 Q480.75 111.25 479.0 111.25 L477.75 111.55 Q477.75 115.55 477.05 118.25 L476.8 118.05 Q476.0 115.25 474.25 115.25 L472.8 115.5 M404.25 127.15 L403.3 127.9 Q402.75 125.95 402.75 125.35 403.55 122.55 402.65 121.95 L405.05 121.8 Q406.25 121.8 406.25 124.25 406.25 125.65 404.25 127.15 M403.75 119.25 Q398.75 119.25 398.75 122.35 398.75 123.35 400.0 123.75 L400.2 123.6 400.25 125.25 Q400.25 127.85 401.4 131.6 402.9 136.35 403.3 139.0 L405.0 139.25 Q406.2 139.25 406.75 138.05 406.15 137.15 404.45 131.8 L404.0 130.25 Q406.0 130.25 407.5 127.75 408.75 125.75 408.75 124.5 409.0 123.1 408.5 121.8 407.5 119.25 403.75 119.25 M400.65 51.1 L400.5 51.3 Q399.7 50.75 399.0 50.75 397.45 50.75 396.25 52.5 395.25 53.95 395.25 54.85 L395.8 58.4 Q396.8 61.75 398.75 61.75 400.0 61.75 400.05 61.3 L400.25 60.15 Q397.75 55.8 397.75 54.75 397.75 54.2 399.25 53.45 400.75 52.75 400.75 51.85 L400.65 51.1 M395.6 40.85 L394.5 40.75 Q393.15 40.75 392.35 46.1 391.9 48.95 391.55 53.25 387.1 45.25 386.25 45.25 L385.0 45.5 384.75 46.4 Q384.75 47.15 387.75 52.65 391.1 58.75 392.75 58.75 395.75 43.9 395.75 41.85 L395.6 40.85 M452.65 73.8 L455.0 73.5 458.0 73.5 458.25 72.1 458.0 71.0 455.75 70.75 449.0 72.1 Q446.75 72.6 446.75 73.85 446.75 74.85 448.0 75.25 449.8 74.55 451.35 74.1 L451.25 74.5 451.25 76.65 451.75 81.05 Q452.6 85.25 454.25 85.25 455.0 85.25 455.5 84.75 455.75 85.25 455.75 84.0 L452.65 73.8 M462.5 59.15 Q459.65 54.25 459.25 54.25 457.8 54.25 457.4 56.45 L456.75 60.25 454.95 58.85 Q453.75 57.75 452.25 57.75 451.65 57.75 450.8 58.3 L450.75 59.25 Q450.75 65.55 452.5 67.25 L453.55 66.8 453.75 61.55 Q454.4 61.85 455.35 62.7 455.95 63.25 457.0 63.25 459.2 63.25 459.55 59.5 L461.25 62.8 Q462.95 65.75 464.0 65.75 465.25 65.75 465.05 65.3 L465.25 64.15 462.5 59.15 M440.0 97.25 Q438.95 97.25 438.75 98.05 L438.75 99.9 439.25 103.9 Q440.0 107.75 441.25 107.75 449.75 104.05 449.75 103.35 L449.5 102.5 447.75 102.25 Q445.85 102.25 443.95 103.4 L441.75 104.55 Q441.75 97.25 440.0 97.25 M426.25 84.85 Q425.25 85.3 425.25 85.85 L425.3 86.55 426.35 87.1 Q426.55 91.35 427.5 92.25 L428.5 91.75 429.1 86.95 431.0 86.25 432.45 85.6 435.5 89.25 Q436.75 89.25 436.55 88.8 L436.75 87.5 Q429.3 76.25 427.75 76.25 427.3 76.25 426.75 79.6 426.25 82.6 426.25 84.1 L426.25 84.85 M429.25 84.0 L429.25 82.0 430.75 83.65 429.25 84.0 M442.5 80.8 Q443.1 80.75 444.05 81.7 445.0 82.7 445.05 83.5 L441.8 84.5 442.5 80.8 M441.75 77.25 Q440.45 77.25 439.75 80.55 439.25 82.9 439.25 84.85 L439.3 87.0 441.5 87.25 Q443.35 87.25 446.1 86.0 448.75 84.75 448.75 84.0 448.75 83.0 446.3 80.25 443.65 77.25 441.75 77.25 M421.3 96.55 Q422.0 97.25 423.5 97.25 437.15 97.25 460.25 88.1 L460.1 86.95 459.0 86.75 440.05 91.05 Q421.25 95.4 421.25 95.85 L421.3 96.55 M414.5 95.8 Q413.7 95.25 413.25 95.25 412.2 95.25 410.55 96.05 408.75 96.95 408.75 97.85 408.75 98.5 409.25 99.0 L410.25 99.25 Q414.75 97.55 414.75 96.35 L414.65 95.6 414.5 95.8 M405.25 93.85 L405.0 93.0 404.0 92.85 Q401.6 84.25 401.0 84.25 400.7 84.25 400.05 84.75 399.25 85.35 399.25 85.85 L401.15 93.2 397.85 93.8 Q396.5 89.85 394.5 87.25 393.25 88.15 393.25 89.35 L395.0 94.85 394.75 95.35 394.8 96.05 Q395.1 96.35 395.55 96.5 L395.85 97.55 Q398.6 105.75 399.5 105.75 400.25 105.75 400.5 105.35 L400.75 104.75 398.7 96.55 401.85 95.95 Q404.45 105.25 405.5 105.25 406.75 105.25 406.55 104.75 L406.75 103.6 Q406.75 103.0 404.55 94.9 405.25 94.4 405.25 93.85 M413.5 92.0 L411.0 91.75 Q408.25 91.9 408.25 92.85 L408.3 93.55 Q408.8 94.25 411.0 94.25 413.75 94.25 413.75 92.85 L413.5 92.0 M417.95 84.2 L417.7 84.9 415.0 78.25 Q413.9 78.25 413.75 79.05 L413.75 80.55 Q413.75 81.55 415.55 87.0 417.65 93.25 419.0 93.25 420.25 93.25 420.05 92.75 L420.25 91.35 420.2 91.25 424.0 91.75 Q425.25 91.75 425.05 91.25 L425.25 90.1 Q425.25 89.25 424.1 88.35 422.6 87.25 420.05 87.05 L420.05 86.8 421.75 82.0 Q421.75 80.8 420.5 80.25 419.35 80.75 417.95 84.2 M406.5 50.85 L405.25 52.75 Q404.7 51.75 403.5 51.75 L401.75 52.05 401.75 57.0 402.25 59.8 Q402.55 61.75 404.0 61.75 405.25 61.75 405.05 61.25 L405.25 59.85 Q404.75 57.8 404.75 57.05 L404.8 57.05 Q406.85 58.3 407.5 56.85 L408.05 54.55 409.5 57.6 Q410.6 59.75 411.5 59.75 412.75 59.75 412.75 59.05 412.75 57.5 411.05 54.05 409.15 50.25 407.75 50.25 406.85 50.25 406.5 50.85 M417.75 50.35 L417.5 49.5 416.0 49.25 Q412.25 49.45 412.25 53.0 412.25 54.4 413.4 54.9 L417.05 56.3 417.0 56.75 Q416.3 57.55 415.1 58.0 414.25 58.3 414.25 58.85 414.25 59.5 414.75 60.0 L416.0 60.25 Q417.6 60.25 418.75 58.8 419.75 57.55 419.75 56.25 419.75 54.75 419.05 54.2 418.25 53.6 415.0 52.75 L415.05 52.55 Q417.75 51.5 417.75 50.35 M421.5 52.75 Q422.1 52.75 423.25 51.85 424.4 50.95 424.75 50.25 424.2 49.25 423.5 49.25 419.75 49.25 419.75 51.35 419.75 52.0 420.25 52.5 L421.5 52.75 M440.55 42.55 Q442.75 39.7 442.75 39.35 442.8 36.75 439.25 36.75 434.25 36.75 434.25 38.85 434.25 40.75 436.5 40.75 437.1 40.75 437.3 40.25 437.5 39.7 439.75 39.5 L439.5 40.25 Q435.75 42.75 435.75 43.35 L435.8 44.05 440.15 45.4 Q442.75 46.05 441.55 46.05 439.85 47.5 438.3 47.75 437.25 47.95 437.25 48.35 L437.3 49.05 Q438.0 49.75 439.0 49.75 440.75 49.75 442.8 48.3 444.75 46.95 444.75 46.0 444.75 44.95 444.0 44.4 L440.55 42.55 M423.5 46.0 L421.25 45.75 Q418.75 45.85 418.75 46.85 L418.8 47.55 Q419.5 48.25 421.25 48.25 423.75 48.25 423.75 46.85 L423.5 46.0 M470.25 47.85 L470.15 47.1 470.0 47.3 Q469.2 46.75 468.75 46.75 465.95 46.75 452.0 50.35 438.25 53.85 438.25 54.35 438.25 55.0 438.75 55.5 L440.25 55.75 Q470.25 49.9 470.25 47.85 M451.25 34.25 Q446.75 34.25 446.75 36.75 446.75 37.6 447.35 38.15 446.75 38.6 446.75 39.6 446.75 40.2 448.3 44.25 450.05 48.75 451.0 48.75 452.25 48.75 452.25 48.05 L452.25 45.8 452.05 45.45 Q454.4 46.25 458.0 46.25 459.25 46.25 459.25 45.55 458.95 44.0 458.35 43.35 457.25 42.2 453.55 42.0 455.75 39.6 455.75 37.5 455.9 34.25 451.25 34.25 M450.45 36.7 L452.05 36.8 Q452.8 36.8 452.9 37.25 L453.0 38.0 Q452.75 38.95 450.7 40.65 L450.3 41.05 449.3 38.55 449.35 38.5 Q449.75 38.3 449.75 37.5 449.75 36.7 450.45 36.7 M456.8 36.05 Q457.5 36.75 459.0 36.75 L460.9 36.55 462.0 41.25 Q463.4 46.25 464.5 46.25 465.75 46.25 465.55 45.8 L465.75 44.65 Q464.8 38.3 463.55 36.05 L465.75 35.55 467.5 35.5 467.75 34.1 467.5 33.0 466.0 32.75 459.45 33.85 Q456.75 34.4 456.75 35.35 L456.8 36.05 M465.5 28.0 L463.25 27.75 445.55 30.25 Q429.75 32.7 429.75 33.85 L429.75 34.4 Q429.35 34.6 429.25 35.05 L429.25 37.1 Q429.25 41.35 433.25 64.0 432.3 64.0 430.35 62.65 428.4 61.25 427.5 61.25 426.9 61.25 426.25 62.05 426.7 63.6 428.9 65.15 431.25 66.75 433.5 66.75 435.4 66.75 435.75 65.55 L435.75 63.65 430.65 35.05 432.0 35.25 Q436.8 35.25 451.0 32.75 465.75 30.1 465.75 28.85 L465.5 28.0 M489.2 90.8 Q494.15 119.7 497.45 128.1 L465.55 132.4 Q442.95 135.2 424.85 140.45 406.75 145.6 399.35 143.35 L390.6 89.85 Q383.2 45.25 381.7 37.95 400.55 34.3 431.05 29.95 467.0 24.75 477.6 24.75 480.1 24.75 479.1 25.25 L489.2 90.8 M489.25 113.85 L489.0 113.0 485.3 113.0 Q486.25 110.9 486.25 109.35 487.3 105.75 483.25 105.75 480.75 105.75 480.75 107.1 L480.8 108.5 Q482.0 108.75 483.75 108.5 483.75 109.2 482.75 111.25 481.75 113.3 481.75 114.1 L481.75 115.0 Q482.25 115.75 484.75 115.75 489.25 115.75 489.25 113.85 M291.5 35.75 Q287.85 36.3 284.95 39.55 282.25 42.6 282.25 45.5 282.25 51.25 294.05 56.0 288.25 59.15 288.25 60.85 288.25 61.85 289.5 62.25 296.75 57.9 296.75 56.1 296.75 54.7 290.75 51.5 284.75 48.3 284.75 45.5 284.75 42.95 289.25 39.9 L293.75 36.85 293.5 36.0 291.5 35.75 M117.25 93.6 Q112.75 95.4 112.75 96.35 L113.0 97.15 Q112.75 98.2 112.75 99.85 L112.8 104.0 114.25 104.25 116.0 102.9 Q117.75 101.5 119.6 101.5 122.75 101.5 122.75 103.35 122.75 104.65 119.0 106.05 115.25 107.5 115.25 107.85 L115.3 108.55 Q116.0 109.25 117.5 109.25 120.6 109.25 123.1 107.05 125.25 105.1 125.25 103.35 125.25 98.75 120.0 98.75 117.5 98.75 115.25 100.25 L115.25 97.75 115.35 97.45 Q124.25 94.65 124.25 92.85 L124.0 92.0 122.25 91.75 Q119.55 92.7 117.25 93.6 M84.85 84.05 Q83.8 81.0 82.8 80.4 L83.25 79.85 83.0 79.0 81.5 78.75 Q79.75 78.9 76.95 80.15 73.75 81.55 73.75 82.85 73.75 83.85 75.0 84.25 L77.45 83.15 78.25 85.9 Q79.5 89.75 80.75 89.75 81.5 89.75 82.0 89.25 82.25 89.75 82.25 88.5 80.65 84.0 79.65 82.15 L80.75 81.6 Q80.75 82.25 82.25 85.75 83.95 89.75 85.0 89.75 85.75 89.75 86.0 89.35 L86.25 88.75 84.85 84.05 M94.5 78.5 L92.75 78.25 Q87.75 79.35 87.75 83.25 L88.25 85.75 Q89.05 88.25 90.5 88.25 91.75 88.25 91.55 87.75 L91.75 86.6 Q90.25 84.1 90.25 83.25 90.25 82.3 92.5 81.15 94.75 79.95 94.75 79.35 L94.5 78.5 M99.75 71.6 Q99.75 70.25 98.25 70.25 96.4 70.25 83.0 73.75 66.25 78.0 66.25 79.35 66.25 80.0 66.75 80.5 L68.25 80.75 Q69.3 80.75 86.25 75.8 L96.75 73.65 Q99.75 73.0 99.75 71.6 M82.75 70.35 L82.5 67.75 Q81.6 65.75 78.0 65.75 76.6 65.75 75.8 67.8 75.25 69.25 75.25 70.5 L75.6 72.45 Q76.45 74.25 79.25 74.25 82.75 74.25 82.75 70.35 M92.25 56.6 L92.0 55.5 90.25 55.25 83.15 56.2 Q81.75 56.45 81.75 57.6 81.75 58.0 83.0 59.25 L85.8 58.9 Q85.9 60.75 87.1 64.6 L87.7 66.4 Q84.75 67.3 84.75 68.35 L84.8 69.05 Q85.5 69.75 86.5 69.75 L88.9 69.1 89.0 69.25 90.0 68.75 90.05 68.7 93.35 67.5 95.5 67.5 95.75 66.1 95.5 65.0 93.75 64.75 90.05 65.75 Q89.1 60.45 88.25 58.45 L90.25 58.05 92.0 58.0 92.25 56.6 M103.25 52.25 Q102.95 51.65 102.0 51.25 101.25 51.75 100.95 52.75 L100.75 53.75 Q100.75 55.0 102.0 56.25 L103.25 55.55 103.25 52.25 M116.25 46.75 Q118.75 45.75 118.75 44.85 L118.5 44.0 116.25 43.75 Q111.25 44.1 111.25 48.75 L111.5 51.25 Q112.15 53.75 114.0 53.75 115.25 53.75 115.05 53.25 L115.25 52.1 Q113.75 49.55 113.75 48.85 113.75 47.7 116.25 46.75 M111.75 25.0 L111.8 24.8 Q111.8 26.7 110.25 28.0 L110.25 27.55 111.75 25.0 M99.05 47.85 Q98.75 48.0 98.75 48.85 98.75 49.5 99.25 50.0 L100.25 50.25 Q100.75 50.25 101.75 48.75 101.2 47.75 100.25 47.75 L99.05 47.85 M87.3 47.05 L87.55 46.3 Q88.35 46.1 89.05 46.8 L88.55 48.0 87.8 48.05 87.3 47.05 M84.75 46.85 L84.85 48.9 Q85.45 50.75 88.25 50.75 91.75 50.75 91.75 46.9 92.3 43.25 86.75 43.25 84.75 43.25 84.75 46.85 M82.75 42.75 Q82.2 41.75 81.25 41.75 L79.35 41.95 Q82.75 38.35 82.75 37.85 L82.5 37.0 80.75 36.75 Q77.2 39.5 76.65 40.4 76.25 41.1 76.25 44.0 L76.25 46.45 Q76.85 48.75 80.25 48.75 84.25 48.75 84.25 46.6 84.25 45.55 83.0 45.25 L78.75 45.5 78.75 45.25 Q80.55 45.25 81.8 44.25 82.75 43.45 82.75 42.75 M98.25 32.25 Q99.75 32.25 99.75 29.0 100.6 24.25 97.25 24.25 95.95 24.25 91.6 27.05 87.25 29.85 87.25 30.6 87.25 33.15 89.6 34.45 L95.8 37.5 Q93.25 41.35 93.25 44.25 L93.25 45.55 Q93.75 46.75 96.25 46.75 102.4 46.75 104.05 45.0 104.75 44.3 104.75 42.0 105.1 38.75 103.5 38.75 L102.25 39.25 Q103.05 43.8 95.75 44.05 L96.0 43.75 99.25 36.6 Q99.25 35.85 95.15 34.1 90.7 32.15 90.05 31.0 95.55 27.6 96.75 27.0 L97.25 27.5 97.25 32.0 98.25 32.25 M119.55 23.35 Q119.25 23.5 119.25 24.35 119.25 25.0 119.75 25.5 L120.75 25.75 Q121.25 25.75 122.25 24.25 121.7 23.25 120.75 23.25 L119.55 23.35 M115.25 24.6 Q115.25 22.25 112.0 22.25 109.75 22.25 108.55 24.5 107.75 26.0 107.75 27.6 L107.95 29.3 Q108.7 30.85 111.25 30.8 L111.05 34.15 Q111.35 36.75 114.25 36.75 115.85 36.75 117.25 35.5 118.75 34.2 118.75 32.6 118.75 31.8 117.5 31.25 116.25 31.7 115.6 32.8 114.95 33.85 114.5 34.0 L113.8 33.5 113.75 32.1 115.25 24.6 M122.5 46.25 L123.55 45.75 123.75 44.6 123.6 43.45 122.5 43.25 121.4 43.45 Q121.25 43.65 121.25 44.6 121.25 45.0 122.5 46.25 M122.75 46.75 L121.55 46.85 Q121.25 47.0 121.25 47.85 121.25 49.1 121.8 53.5 L123.25 53.75 Q124.5 53.75 124.55 53.3 L124.75 52.35 Q124.1 46.75 122.75 46.75 M128.75 36.6 Q128.75 35.55 127.5 35.25 107.25 37.95 107.25 40.85 107.25 41.5 107.75 42.0 L108.75 42.25 116.5 39.8 Q122.95 37.9 127.15 37.6 L128.55 37.45 128.75 36.6 M122.55 33.8 L122.75 32.5 Q122.0 27.25 121.0 27.25 L119.75 27.55 119.75 32.5 120.55 33.65 Q120.95 34.25 121.5 34.25 122.75 34.25 122.55 33.8 M277.2 108.45 Q276.25 106.45 276.25 105.6 276.2 104.3 276.75 103.1 277.9 100.75 281.0 100.75 282.1 100.75 281.6 105.3 281.15 109.95 279.75 111.5 278.4 110.9 277.2 108.45 M284.25 105.5 L286.95 110.8 Q288.8 114.75 290.5 114.75 291.25 114.75 292.25 113.25 290.55 111.3 286.45 103.45 282.95 96.75 282.0 96.75 277.95 96.75 275.55 100.5 273.75 103.3 273.75 105.75 L274.75 110.05 Q276.4 114.25 279.5 114.25 284.25 114.25 284.25 105.5 M225.25 68.4 Q225.25 66.0 226.5 62.8 228.35 58.0 231.75 58.0 241.75 58.0 241.75 64.75 241.9 67.65 240.5 70.45 237.8 76.0 230.35 76.0 225.25 76.0 225.25 68.4 M301.25 90.0 Q301.25 88.25 300.0 88.25 297.4 88.25 297.25 95.35 L296.8 105.5 296.4 106.75 293.3 102.7 Q290.8 99.3 289.5 98.25 288.25 99.15 288.25 100.5 288.25 101.2 291.6 105.7 293.75 108.55 295.35 109.8 L290.75 123.6 Q290.75 124.0 292.0 125.25 295.9 119.65 298.4 110.45 L299.75 109.3 Q301.25 107.8 301.25 106.85 301.25 106.1 300.85 105.95 L300.0 105.75 299.4 106.3 Q301.25 97.7 301.25 90.0 M287.8 64.35 Q286.75 65.75 286.75 68.85 L287.55 75.55 Q288.85 82.25 291.25 82.25 291.75 82.25 293.25 80.5 292.05 79.0 290.65 75.0 289.25 71.0 289.25 69.0 289.25 67.2 294.25 65.2 299.25 63.2 299.25 62.85 299.25 61.75 295.5 61.75 289.75 61.75 287.8 64.35 M259.25 92.5 Q259.25 94.1 261.05 95.9 L265.0 99.4 Q270.75 104.5 270.75 110.8 270.75 111.75 268.75 113.5 266.4 115.55 264.0 115.55 262.3 115.55 261.0 114.85 259.75 114.15 259.75 113.35 259.75 110.5 260.25 108.5 260.55 107.1 263.25 105.85 265.75 104.65 265.75 103.85 L265.5 103.0 263.25 102.75 Q257.25 102.75 257.25 113.35 257.25 114.6 258.25 116.0 259.85 118.25 263.25 118.25 267.5 118.25 270.5 115.75 273.25 113.45 273.25 110.8 273.25 105.4 270.05 101.35 264.75 95.75 260.5 90.75 260.5 91.55 259.9 91.95 L259.25 92.5 M244.25 64.6 Q244.4 62.15 243.25 59.85 240.9 55.25 234.25 55.25 231.7 55.25 230.35 55.75 L228.8 56.55 229.0 56.25 Q230.45 54.65 232.7 53.85 234.25 53.3 234.25 52.35 L234.0 51.5 232.25 51.25 Q228.15 51.1 225.15 58.4 222.75 64.25 222.75 68.5 L223.3 73.7 Q224.95 78.75 230.25 78.75 L233.7 78.45 233.75 79.05 233.9 82.0 Q225.75 86.0 225.75 86.35 L225.8 87.05 Q226.5 87.75 228.0 87.75 229.55 87.75 234.35 85.4 L235.25 89.75 Q236.75 95.75 236.75 97.25 236.75 100.4 233.0 106.8 229.25 113.15 229.25 114.1 L229.3 115.5 230.75 115.75 232.0 115.5 Q233.1 112.15 236.7 105.8 238.45 102.7 239.0 99.9 L248.75 113.75 250.0 113.5 250.25 112.1 Q250.25 111.65 245.25 103.85 240.05 95.75 239.0 95.75 L238.95 95.75 236.55 84.3 239.3 82.8 Q248.25 77.9 248.25 76.85 L248.15 76.1 248.0 76.3 Q247.2 75.75 246.75 75.75 246.45 75.75 236.2 80.85 L235.9 81.0 235.3 78.1 Q239.95 76.65 242.3 72.3 244.25 68.75 244.25 64.6 M277.25 69.5 L279.55 69.55 279.55 70.0 Q278.6 74.75 274.5 76.0 L273.25 74.75 Q273.25 73.8 274.4 71.85 275.8 69.5 277.25 69.5 M272.0 71.3 L271.5 71.25 Q271.35 71.25 262.05 75.95 260.8 73.1 260.8 72.25 260.8 71.65 261.3 71.55 261.75 71.5 261.75 70.85 261.75 70.0 261.45 69.85 L260.25 69.75 Q258.25 69.75 258.25 71.8 258.25 72.75 260.2 76.85 L252.25 80.85 Q252.25 81.85 253.5 82.25 L261.2 78.85 262.6 81.7 Q266.75 89.7 268.0 91.25 L269.25 90.25 263.05 78.05 Q264.05 77.6 265.2 77.1 L270.6 74.5 Q269.75 76.75 269.75 78.25 L271.0 82.75 Q273.2 87.25 278.0 87.25 281.0 87.25 283.05 86.05 285.25 84.8 285.25 82.85 285.25 82.1 284.85 81.95 L284.0 81.75 Q282.6 82.25 281.9 83.55 281.4 84.55 279.55 84.55 274.4 84.55 272.9 82.05 272.7 81.65 272.25 78.75 277.0 78.45 279.95 74.95 282.25 72.15 282.25 69.55 282.4 66.75 278.25 66.75 274.45 66.75 272.0 71.3 M277.75 41.5 L277.75 41.8 274.25 47.05 Q272.95 49.4 270.85 49.3 269.25 49.25 269.25 50.6 L269.3 52.0 271.25 52.25 Q274.25 52.25 277.5 47.25 280.25 42.95 280.25 41.25 281.3 38.75 277.0 38.75 271.05 38.75 267.85 45.3 265.75 49.55 265.75 52.6 L266.25 58.0 Q267.7 63.25 272.5 63.25 276.05 63.25 277.75 62.15 L280.75 59.25 Q280.45 58.65 279.5 58.25 279.25 58.3 277.4 59.6 276.0 60.55 273.0 60.55 268.25 60.55 268.25 52.75 268.25 48.95 269.1 47.55 270.1 45.85 275.25 41.5 L277.75 41.5 M252.5 47.25 L251.25 47.55 Q251.25 50.0 254.4 55.15 255.75 57.45 257.0 58.8 254.25 69.35 254.25 71.85 254.25 74.4 255.5 74.75 L256.55 74.3 Q256.8 69.75 259.85 60.75 L260.25 60.75 Q262.25 60.65 262.25 58.85 L262.15 58.1 262.0 58.3 260.85 57.85 261.1 57.15 265.25 45.1 265.1 43.95 264.0 43.75 Q261.25 43.75 258.0 55.2 L256.05 52.3 Q253.05 47.25 252.5 47.25 M312.2 32.1 Q317.35 33.35 317.35 36.0 317.35 50.65 314.35 79.9 311.35 109.2 311.35 123.0 L311.4 129.4 311.6 130.95 283.25 133.0 217.45 132.05 217.5 121.25 215.5 56.75 215.6 42.15 Q215.9 35.45 216.95 30.0 L224.5 30.5 295.9 30.55 Q307.35 30.9 312.2 32.1 M82.0 101.05 L83.5 101.75 Q84.0 101.75 84.95 101.05 85.95 100.3 87.0 100.3 L88.25 100.5 88.25 105.55 83.75 115.1 83.8 116.5 85.25 116.75 Q96.75 113.35 96.75 112.85 L96.5 112.0 94.0 111.75 88.0 112.8 88.05 112.55 Q90.3 108.45 90.6 107.3 L90.75 103.15 Q91.85 97.75 87.5 97.75 81.75 97.75 81.75 99.9 81.75 101.15 82.0 101.05 M104.0 99.5 L102.5 99.25 97.95 100.2 Q96.75 100.5 96.75 101.6 L96.8 103.0 98.25 103.25 Q99.05 103.25 101.5 102.25 104.25 101.15 104.25 100.35 L104.0 99.5 M105.15 104.1 L105.0 104.3 104.8 103.9 104.0 103.75 Q103.25 103.75 100.25 105.0 97.25 106.25 97.25 106.6 97.25 107.85 98.5 108.25 L103.2 106.6 Q105.25 105.85 105.25 104.85 L105.15 104.1 M62.25 103.5 L62.0 102.0 59.25 101.75 Q57.5 101.35 54.9 102.7 52.25 104.1 52.25 105.6 52.25 106.0 53.5 107.25 L55.1 105.6 Q56.45 104.25 58.8 104.3 L58.75 104.75 55.95 107.2 Q54.25 108.45 54.25 108.85 L54.3 109.55 Q55.0 110.25 55.5 110.25 60.7 110.25 62.55 111.0 64.05 111.65 64.05 113.35 64.05 114.7 60.15 116.45 56.25 118.15 56.25 118.35 L56.3 119.05 Q56.85 119.75 59.25 119.75 62.5 119.75 64.8 117.3 66.75 115.25 66.75 113.35 66.75 108.9 60.0 107.25 L60.05 107.05 Q62.25 105.3 62.25 103.5 M73.25 105.75 Q72.65 105.75 71.8 106.3 L71.75 107.1 72.0 108.4 Q69.75 110.0 69.75 110.85 69.75 111.85 71.0 112.25 L72.85 111.15 Q74.0 114.4 75.5 115.25 L76.75 114.25 Q76.65 111.35 76.2 109.4 L76.1 109.0 Q80.05 106.35 80.75 105.25 80.45 104.65 79.5 104.25 78.1 104.65 74.95 106.5 74.25 105.75 73.25 105.75 M68.75 82.75 Q64.75 82.75 64.75 85.6 64.75 86.5 65.25 87.0 L66.25 87.25 Q66.85 87.25 67.35 86.75 68.1 85.95 69.55 85.3 L69.75 85.55 69.75 88.55 Q69.3 90.0 66.75 93.85 66.75 94.5 67.25 95.0 L68.75 95.25 Q78.25 91.65 78.25 90.35 78.25 89.6 77.85 89.45 L77.0 89.25 71.5 91.25 71.55 91.05 Q74.85 82.75 68.75 82.75 M45.25 80.3 Q48.85 80.4 50.25 81.0 52.25 81.9 52.25 84.65 52.25 85.6 50.25 86.25 48.3 86.85 47.1 87.8 L47.05 87.75 47.25 86.75 45.25 80.3 M56.8 80.55 Q57.5 81.25 59.0 81.25 62.25 81.25 62.25 79.35 L62.15 78.6 62.0 78.8 61.8 78.4 61.0 78.25 Q56.75 78.25 56.75 79.85 L56.8 80.55 M46.55 70.8 Q47.55 70.8 47.55 73.75 47.55 75.1 44.65 76.6 L44.15 76.9 42.6 72.1 Q45.6 70.8 46.55 70.8 M58.5 73.75 Q56.9 73.4 56.0 74.15 55.25 74.7 55.25 75.35 L55.3 76.05 Q56.0 76.75 56.5 76.75 61.25 76.75 61.25 74.85 L61.0 74.0 58.5 73.75 M80.2 70.65 Q80.05 71.35 78.8 71.55 78.25 71.0 77.75 71.0 78.3 69.95 78.65 69.8 L80.25 69.55 Q80.15 69.85 80.2 70.65 M67.25 68.05 Q67.25 65.2 66.35 64.25 66.5 60.25 64.75 60.25 64.3 60.25 63.75 63.0 63.25 65.55 63.25 66.85 63.25 72.5 64.5 73.75 L65.25 73.5 65.9 70.85 Q66.5 71.25 67.25 71.25 68.4 71.25 69.15 70.35 L70.05 69.05 70.75 73.15 Q71.6 75.75 74.25 75.75 74.75 75.75 75.75 74.25 73.0 71.35 72.15 65.7 71.05 58.5 70.5 57.25 69.25 58.4 69.15 62.45 69.05 66.6 67.3 68.25 L67.25 68.05 M38.25 71.4 L40.0 73.25 40.75 72.9 40.75 73.3 41.75 78.85 41.8 79.55 41.9 79.65 42.1 80.8 Q43.85 88.25 46.0 88.25 L46.6 88.2 46.25 88.55 Q46.25 90.75 48.25 90.75 50.8 90.75 52.75 89.0 54.75 87.2 54.75 84.85 54.75 82.25 53.95 81.1 52.7 79.4 48.25 77.5 50.25 74.6 50.25 74.1 50.4 68.25 45.75 68.25 42.85 68.25 40.5 69.3 38.25 70.3 38.25 71.4 M69.8 41.2 L70.8 40.8 70.95 40.75 70.75 42.25 Q70.75 47.7 73.5 50.25 L74.75 49.25 73.6 44.1 Q73.05 41.7 72.35 40.0 73.25 39.4 73.25 38.85 L73.15 38.1 73.0 38.3 Q72.2 37.75 71.75 37.75 L64.75 40.35 64.8 41.05 Q65.5 41.75 67.25 41.75 L67.95 41.7 67.75 43.75 67.8 47.3 Q68.2 50.75 70.0 50.75 70.75 50.75 71.0 50.35 L71.25 49.75 Q70.6 48.2 70.4 44.6 70.3 42.6 69.8 41.2 M53.25 37.35 L53.35 38.05 Q53.85 38.75 56.0 38.75 79.25 31.9 79.25 31.1 L79.1 29.95 78.0 29.75 Q76.05 29.75 64.55 33.5 L64.75 33.25 Q64.75 31.45 64.25 29.3 63.55 26.25 62.25 26.25 L60.8 26.5 60.75 28.0 Q60.75 28.8 61.75 31.3 L63.15 33.95 Q53.25 37.1 53.25 37.35 M60.25 40.8 L60.25 42.75 60.4 44.35 59.0 45.05 Q59.7 40.75 57.5 40.75 57.0 40.75 56.35 43.1 55.75 45.25 55.75 46.6 L55.8 48.0 58.0 48.25 Q59.15 48.25 60.75 47.5 L60.75 47.8 Q61.55 52.75 63.0 52.75 L63.9 52.5 64.05 52.0 64.25 51.35 63.3 45.7 63.75 44.6 Q63.75 43.9 62.85 43.4 62.05 39.75 61.75 39.75 60.5 39.75 60.25 40.8 M50.5 47.75 L48.5 47.8 Q47.75 48.0 47.75 49.1 L47.8 50.5 50.25 50.75 Q53.25 50.75 53.25 48.85 L53.0 48.0 50.5 47.75 M49.75 43.25 Q47.25 43.4 47.25 44.35 L47.3 45.05 Q48.0 45.75 49.75 45.75 52.25 45.75 52.25 44.35 L52.0 43.5 49.75 43.25 M45.25 37.1 Q45.25 35.75 43.75 35.75 42.2 35.75 41.35 42.35 40.9 45.65 40.75 49.3 L40.5 49.3 Q39.9 48.5 37.5 42.8 35.6 38.25 34.25 38.25 L33.0 38.5 32.75 39.4 Q39.25 56.25 41.75 56.25 43.0 56.25 43.05 55.8 43.3 52.15 44.35 45.6 45.25 40.0 45.25 37.1 M91.1 22.15 Q112.45 21.6 123.5 18.0 137.95 64.2 141.5 116.75 118.95 118.55 83.4 123.65 53.95 127.9 47.4 129.85 L47.5 128.5 Q47.5 125.8 42.1 104.25 36.15 80.55 35.5 76.75 L31.05 50.5 Q28.8 38.1 26.45 29.4 L42.65 26.3 62.5 23.0 91.1 22.15" fill="#ffffff" fill-rule="evenodd" stroke="none"/>
    </g>
  </defs>
</svg>
