<?xml version="1.0" encoding="UTF-8" standalone="no"?>
<svg xmlns:xlink="http://www.w3.org/1999/xlink" height="842.55px" width="1337.95px" xmlns="http://www.w3.org/2000/svg">
  <g transform="matrix(1, 0, 0, 1, 407.45, 285.05)">
    <use height="4.5" transform="matrix(5.4867, 0.0, 0.0, 81.5667, 3.2875, 23.0167)" width="99.75" xlink:href="#shape0"/>
    <use height="405.85" transform="matrix(1.0, 0.0, 0.0, 1.0, -12.35, -4.5)" width="627.7" xlink:href="#shape1"/>
  </g>
  <defs>
    <g id="shape0" transform="matrix(1, 0, 0, 1, 49.85, -2.5)">
      <path d="M49.9 7.0 L-49.85 7.0 -49.85 2.5 49.9 2.5 49.9 7.0" fill="#ffffff" fill-rule="evenodd" stroke="none"/>
    </g>
    <g id="shape1" transform="matrix(1, 0, 0, 1, 12.35, 4.5)">
      <path d="M62.7 15.25 L63.0 29.4 Q63.05 44.05 62.5 71.25 L62.5 71.75 67.0 68.5 68.7 69.15 Q69.5 69.65 69.5 71.25 69.5 76.2 63.25 81.75 57.65 86.75 54.5 86.75 35.6 86.75 20.45 114.95 10.4 133.7 5.25 156.5 L3.0 157.5 Q0.25 150.35 0.3 138.25 0.8 124.55 0.5 118.0 L-1.5 79.0 Q0.5 51.25 0.5 37.75 0.0 24.95 0.05 15.9 0.15 5.75 1.15 1.55 L0.5 1.5 0.5 0.0 Q1.1 -1.0 2.0 -1.25 L2.4 -1.25 3.0 -1.5 3.1 -1.25 36.5 -1.5 56.5 -1.1 55.75 36.15 Q55.85 58.8 60.0 73.5 61.0 73.25 62.25 72.5 L62.5 34.25 Q62.8 23.15 62.7 15.25 M61.45 -0.95 L72.0 -0.25 Q72.5 -1.65 72.5 0.85 73.0 2.1 72.5 2.45 L66.55 3.0 62.05 2.95 61.45 -0.95" fill="#ffd5d5" fill-rule="evenodd" stroke="none"/>
      <path d="M72.35 177.65 Q100.45 164.5 106.5 164.5 112.4 164.5 114.0 165.55 114.5 165.85 114.5 166.85 114.5 167.8 112.35 167.2 L107.3 165.8 Q99.4 164.35 96.5 172.5 L96.5 190.5 Q95.5 203.2 95.5 214.85 95.5 240.35 101.0 265.1 103.9 278.05 104.8 284.05 106.5 295.45 106.5 308.6 106.5 324.2 105.7 328.35 103.05 341.8 101.25 356.25 98.55 376.55 98.5 380.25 98.5 381.4 99.55 385.45 100.05 389.6 97.45 392.5 89.55 401.35 52.5 401.35 L24.45 400.5 -2.25 399.1 -2.5 396.1 -2.5 317.75 -1.5 232.0 Q-1.35 222.05 10.8 212.9 14.85 209.9 23.45 204.6 L38.25 195.25 Q46.25 189.85 72.35 177.65" fill="#ffeeee" fill-rule="evenodd" stroke="none"/>
      <path d="M62.7 15.25 Q62.8 23.15 62.5 34.25 L62.25 72.5 Q61.0 73.25 60.0 73.5 55.85 58.8 55.75 36.15 L56.5 -1.1 56.5 -2.0 Q56.5 -3.8 57.05 -4.2 L59.5 -4.5 Q60.7 -4.5 61.45 -0.95 L62.05 2.95 Q62.55 7.6 62.7 15.25" fill="#000000" fill-rule="evenodd" stroke="none"/>
      <path d="M501.05 -1.0 L493.1 -0.3 Q476.25 1.65 470.9 6.7 468.05 9.4 468.4 13.15 468.6 15.15 469.35 17.75 L469.35 43.25 Q469.35 80.15 469.9 90.5 471.0 112.75 475.1 130.5 L459.35 130.65 459.35 127.7 Q461.95 127.2 463.3 123.8 L463.95 121.65 464.25 118.75 463.95 116.0 Q463.4 113.6 461.75 112.35 L459.35 110.9 459.35 78.5 459.0 78.0 459.35 77.25 459.2 75.3 459.35 73.85 Q459.35 72.35 459.0 72.25 L458.1 72.0 Q456.85 71.5 364.35 71.0 360.65 69.65 360.95 68.55 L361.3 67.9 Q361.5 67.65 361.05 67.55 L334.45 67.5 Q334.7 66.2 334.35 65.05 333.6 62.5 329.85 62.5 325.95 62.5 325.35 64.05 L325.35 67.5 322.85 67.5 322.05 67.5 Q321.3 61.8 319.4 56.3 314.6 42.5 305.35 42.5 295.5 42.5 292.65 46.75 291.35 48.65 291.35 53.85 L291.55 56.4 291.35 58.75 Q291.35 59.95 291.65 60.25 292.2 60.9 293.55 61.2 L293.85 61.5 294.25 61.35 296.85 61.5 300.8 61.25 Q302.35 60.8 302.35 58.85 302.35 56.3 301.35 53.5 300.35 50.7 298.65 48.95 302.25 47.75 309.1 47.75 310.25 47.75 314.35 61.15 L316.45 67.6 310.55 67.7 Q310.7 66.7 310.4 65.85 309.6 63.5 305.35 63.5 301.15 63.5 300.4 65.0 L300.35 67.9 293.85 68.0 174.75 68.3 Q176.05 67.1 177.35 66.8 L179.25 66.35 179.0 65.5 176.5 65.25 Q174.2 65.45 171.65 68.3 L60.5 68.7 60.5 -1.0 501.05 -1.0 M480.35 130.5 Q494.65 123.1 516.85 130.5 L515.1 130.75 508.7 130.7 Q494.05 127.0 483.2 130.5 L480.35 130.5 M516.35 130.75 Q540.35 128.25 551.25 131.1 L516.35 130.75 M559.35 131.15 L559.35 109.75 Q558.85 100.4 558.85 81.65 558.85 62.9 558.35 53.5 557.7 41.55 558.1 21.6 558.35 9.0 556.65 5.3 554.75 1.15 548.25 -0.3 L546.05 -0.7 542.95 -1.0 610.95 -1.0 610.95 131.85 Q600.95 131.55 559.35 131.15 M452.65 89.9 L452.85 89.55 452.85 90.0 452.65 89.9 M433.35 111.5 L432.6 111.6 432.55 111.3 433.35 111.5 M459.35 113.8 Q461.75 115.9 461.75 118.35 461.75 120.9 459.35 123.75 L459.35 113.8 M429.1 112.55 L428.85 112.5 429.1 112.5 429.1 112.55" fill="#ffd5d5" fill-rule="evenodd" stroke="none"/>
      <path d="M610.95 136.3 L610.95 399.0 61.0 399.0 61.0 228.25 61.5 228.0 Q63.1 225.1 83.4 196.65 99.8 173.65 101.35 169.0 L120.7 169.05 Q116.8 174.8 112.9 185.0 L105.4 204.05 Q102.6 210.15 97.5 222.5 90.65 238.95 90.6 241.2 90.55 242.85 90.65 243.3 90.05 245.3 90.45 248.2 90.35 251.75 90.5 252.7 90.85 255.35 92.75 257.0 L94.5 256.5 94.65 256.55 Q97.4 257.6 107.95 257.85 L109.85 257.9 Q109.25 261.95 109.0 269.1 108.6 277.7 108.55 288.2 108.25 302.25 108.3 306.25 108.5 314.7 109.5 320.65 L109.35 320.6 108.3 320.75 Q107.85 321.0 107.8 322.6 107.75 325.05 108.0 324.1 L110.25 324.35 110.25 324.4 110.45 324.35 155.65 326.05 204.55 327.45 Q310.95 329.8 315.7 327.55 316.3 327.25 317.35 326.7 L323.8 326.1 Q336.45 325.6 381.6 326.6 L437.05 328.6 Q545.95 331.3 546.95 331.75 550.7 333.05 562.45 333.35 L571.5 333.45 Q571.55 334.15 571.7 334.05 L574.4 334.6 Q583.15 334.75 591.4 290.45 591.9 287.35 591.4 285.75 590.55 268.05 589.3 250.65 587.5 225.5 585.9 218.0 L590.25 206.3 Q591.35 200.95 587.85 200.9 L587.3 202.25 Q586.2 186.0 584.85 177.45 L584.95 172.4 584.65 170.95 585.05 170.15 Q585.05 168.7 584.8 168.55 L584.55 168.3 582.9 168.0 582.6 167.75 582.4 167.9 581.6 167.75 581.4 167.75 581.3 167.75 548.6 167.4 Q558.0 140.35 556.05 136.45 L561.85 136.5 610.95 136.3 M474.35 135.0 Q474.05 135.15 473.8 135.4 469.75 138.4 466.5 142.85 461.6 149.55 459.0 158.7 457.75 163.1 457.4 166.5 L434.05 166.25 Q439.4 160.55 447.9 150.2 456.7 139.55 458.1 136.95 L459.35 136.25 459.35 134.5 474.35 135.0 M455.85 133.5 L455.9 133.5 455.9 133.55 455.85 133.5 M568.05 243.7 L568.9 243.95 568.0 243.8 568.05 243.7 M581.95 228.9 L581.6 228.9 581.9 228.1 581.95 228.9" fill="#ffeeee" fill-rule="evenodd" stroke="none"/>
      <path d="M475.1 130.5 Q471.0 112.75 469.9 90.5 469.35 80.15 469.35 43.25 L469.35 17.75 Q468.6 15.15 468.4 13.15 468.05 9.4 470.9 6.7 476.25 1.65 493.1 -0.3 L501.05 -1.0 518.35 -1.5 Q535.65 -1.5 542.95 -1.0 L546.05 -0.7 548.25 -0.3 Q554.75 1.15 556.65 5.3 558.35 9.0 558.1 21.6 557.7 41.55 558.35 53.5 558.85 62.9 558.85 81.65 558.85 100.4 559.35 109.75 L559.35 131.15 551.25 131.1 Q540.35 128.25 516.35 130.75 L515.1 130.75 516.85 130.5 Q494.65 123.1 480.35 130.5 L475.1 130.5 M538.45 106.1 Q538.35 105.5 537.15 105.0 533.4 103.5 519.85 103.5 518.05 103.5 517.65 104.0 517.35 104.4 517.35 106.35 L517.0 107.0 Q516.8 107.6 517.35 108.1 519.05 109.5 527.85 109.5 L536.85 109.25 Q538.35 108.95 538.35 106.85 L538.45 106.1 M550.85 70.0 L546.85 69.5 543.85 69.8 Q542.35 70.15 542.35 71.75 542.35 74.25 542.6 73.25 543.85 74.5 546.85 74.5 L549.85 74.25 Q551.35 73.75 551.35 71.85 L551.1 70.25 550.85 70.0 M496.9 53.25 Q498.35 52.95 498.35 50.85 498.35 49.8 497.9 49.55 495.9 48.5 487.85 48.5 L481.95 48.95 Q477.85 49.5 477.35 50.0 477.45 50.65 476.85 51.6 476.4 52.4 476.65 52.7 477.45 53.5 487.85 53.5 L496.9 53.25 M517.35 73.85 Q517.35 72.8 516.9 72.55 514.8 71.5 506.35 71.5 L500.2 71.95 Q495.85 72.5 495.35 73.0 495.45 73.7 494.85 74.7 494.3 75.55 494.6 75.8 L506.35 76.5 515.9 76.25 Q517.35 75.95 517.35 73.85 M514.35 33.75 Q514.35 36.25 514.6 35.25 L515.3 36.15 Q515.75 36.5 517.35 36.5 529.35 36.5 529.35 32.85 529.35 30.5 522.35 30.5 L516.4 31.05 Q514.35 31.7 514.35 33.75 M488.9 114.25 Q490.35 113.8 490.35 111.85 490.35 110.4 490.1 110.25 L489.85 110.0 485.35 109.5 481.9 109.8 Q480.35 110.15 480.35 111.75 480.35 114.25 480.6 113.25 481.85 114.5 485.35 114.5 L488.9 114.25" fill="#f0d2d2" fill-rule="evenodd" stroke="none"/>
      <path d="M514.35 33.75 Q514.35 31.7 516.4 31.05 L522.35 30.5 Q529.35 30.5 529.35 32.85 529.35 36.5 517.35 36.5 515.75 36.5 515.3 36.15 L514.6 35.25 Q514.35 36.25 514.35 33.75 M517.35 73.85 Q517.35 75.95 515.9 76.25 L506.35 76.5 494.6 75.8 Q494.3 75.55 494.85 74.7 495.45 73.7 495.35 73.0 495.85 72.5 500.2 71.95 L506.35 71.5 Q514.8 71.5 516.9 72.55 517.35 72.8 517.35 73.85 M496.9 53.25 L487.85 53.5 Q477.45 53.5 476.65 52.7 476.4 52.4 476.85 51.6 477.45 50.65 477.35 50.0 477.85 49.5 481.95 48.95 L487.85 48.5 Q495.9 48.5 497.9 49.55 498.35 49.8 498.35 50.85 498.35 52.95 496.9 53.25 M550.85 70.0 L551.1 70.25 551.35 71.85 Q551.35 73.75 549.85 74.25 L546.85 74.5 Q543.85 74.5 542.6 73.25 542.35 74.25 542.35 71.75 542.35 70.15 543.85 69.8 L546.85 69.5 550.85 70.0 M538.45 106.1 L538.35 106.85 Q538.35 108.95 536.85 109.25 L527.85 109.5 Q519.05 109.5 517.35 108.1 516.8 107.6 517.0 107.0 L517.35 106.35 Q517.35 104.4 517.65 104.0 518.05 103.5 519.85 103.5 533.4 103.5 537.15 105.0 538.35 105.5 538.45 106.1 M488.9 114.25 L485.35 114.5 Q481.85 114.5 480.6 113.25 480.35 114.25 480.35 111.75 480.35 110.15 481.9 109.8 L485.35 109.5 489.85 110.0 490.1 110.25 Q490.35 110.4 490.35 111.85 490.35 113.8 488.9 114.25" fill="#eecccc" fill-rule="evenodd" stroke="none"/>
      <path d="M556.05 136.45 Q558.0 140.35 548.6 167.4 L457.4 166.5 Q457.75 163.1 459.0 158.7 461.6 149.55 466.5 142.85 469.75 138.4 473.8 135.4 474.05 135.15 474.35 135.0 L508.55 135.65 556.05 136.45 M508.7 130.7 L484.35 130.5 483.2 130.5 Q494.05 127.0 508.7 130.7" fill="#f4dfdf" fill-rule="evenodd" stroke="none"/>
      <path d="M475.1 130.5 L480.35 130.5 483.2 130.5 484.35 130.5 508.7 130.7 515.1 130.75 516.35 130.75 551.25 131.1 559.35 131.15 Q600.95 131.55 610.95 131.85 L612.85 131.9 614.1 132.0 615.0 132.25 Q615.35 132.35 615.35 133.85 615.35 135.45 614.9 135.8 L613.85 136.25 610.95 136.3 561.85 136.5 556.05 136.45 508.55 135.65 474.35 135.0 459.35 134.5 459.35 136.25 458.1 136.95 Q456.7 139.55 447.9 150.2 439.4 160.55 434.05 166.25 L457.4 166.5 548.6 167.4 581.3 167.75 581.4 167.75 581.6 167.75 582.4 167.9 582.6 167.75 582.9 168.0 584.55 168.3 584.8 168.55 Q585.05 168.7 585.05 170.15 L584.65 170.95 584.95 172.4 584.85 177.45 Q586.2 186.0 587.3 202.25 L587.85 200.9 Q591.35 200.95 590.25 206.3 L585.9 218.0 Q587.5 225.5 589.3 250.65 590.55 268.05 591.4 285.75 591.9 287.35 591.4 290.45 583.15 334.75 574.4 334.6 L571.7 334.05 Q571.55 334.15 571.5 333.45 L562.45 333.35 Q550.7 333.05 546.95 331.75 545.95 331.3 437.05 328.6 L381.6 326.6 Q336.45 325.6 323.8 326.1 L317.35 326.7 Q316.3 327.25 315.7 327.55 310.95 329.8 204.55 327.45 L155.65 326.05 110.45 324.35 110.25 324.4 110.25 324.35 108.0 324.1 Q107.75 325.05 107.8 322.6 107.85 321.0 108.3 320.75 L109.35 320.6 109.5 320.65 Q108.5 314.7 108.3 306.25 108.25 302.25 108.55 288.2 108.6 277.7 109.0 269.1 109.25 261.95 109.85 257.9 L107.95 257.85 Q97.4 257.6 94.65 256.55 L94.5 256.5 92.75 257.0 Q90.85 255.35 90.5 252.7 90.35 251.75 90.45 248.2 90.05 245.3 90.65 243.3 90.55 242.85 90.6 241.2 90.65 238.95 97.5 222.5 102.6 210.15 105.4 204.05 L112.9 185.0 Q116.8 174.8 120.7 169.05 L101.35 169.0 Q99.8 173.65 83.4 196.65 63.1 225.1 61.5 228.0 L61.0 228.25 60.0 228.5 59.3 227.8 58.3 227.9 58.25 228.75 Q57.75 228.75 56.0 229.5 L55.65 228.0 54.55 228.0 -5.7 226.65 -5.75 227.5 -8.0 228.5 -8.55 226.55 -10.5 226.5 -10.5 225.0 Q-9.95 224.15 -9.25 223.85 -12.35 211.1 -12.35 193.35 -11.5 169.55 -11.5 158.6 L-11.55 153.75 -11.5 153.4 -11.5 153.35 Q-11.5 146.8 3.35 130.5 19.65 113.95 22.5 110.5 L40.3 88.15 Q49.25 77.0 56.5 70.3 56.55 69.15 56.95 69.0 L58.0 68.75 58.25 68.75 58.5 68.5 59.5 68.7 60.5 68.7 171.65 68.3 Q174.2 65.45 176.5 65.25 L179.0 65.5 179.25 66.35 177.35 66.8 Q176.05 67.1 174.75 68.3 L293.85 68.0 300.35 67.9 300.4 65.0 Q301.15 63.5 305.35 63.5 309.6 63.5 310.4 65.85 310.7 66.7 310.55 67.7 L316.45 67.6 314.35 61.15 Q310.25 47.75 309.1 47.75 302.25 47.75 298.65 48.95 300.35 50.7 301.35 53.5 302.35 56.3 302.35 58.85 302.35 60.8 300.8 61.25 L296.85 61.5 294.25 61.35 293.85 61.5 293.55 61.2 Q292.2 60.9 291.65 60.25 291.35 59.95 291.35 58.75 L291.55 56.4 291.35 53.85 Q291.35 48.65 292.65 46.75 295.5 42.5 305.35 42.5 314.6 42.5 319.4 56.3 321.3 61.8 322.05 67.5 L322.85 67.5 325.35 67.5 325.35 64.05 Q325.95 62.5 329.85 62.5 333.6 62.5 334.35 65.05 334.7 66.2 334.45 67.5 L361.05 67.55 Q361.5 67.65 361.3 67.9 L360.95 68.55 Q360.65 69.65 364.35 71.0 456.85 71.5 458.1 72.0 L459.0 72.25 Q459.35 72.35 459.35 73.85 L459.2 75.3 459.35 77.25 459.0 78.0 459.35 78.5 459.35 110.9 461.75 112.35 Q463.4 113.6 463.95 116.0 L464.25 118.75 463.95 121.65 463.3 123.8 Q461.95 127.2 459.35 127.7 L459.35 130.65 475.1 130.5 M579.25 173.9 L579.2 173.25 Q562.2 173.4 353.5 169.75 343.75 169.7 336.95 169.8 L322.0 170.3 306.85 169.5 300.4 169.3 Q281.75 168.8 252.0 168.5 215.8 168.1 163.2 168.05 L147.4 169.15 140.9 170.5 Q132.0 172.85 125.1 172.7 L123.95 172.6 Q122.5 179.5 111.05 206.7 99.3 234.45 96.9 241.45 120.05 240.0 244.45 240.15 L252.0 240.15 336.95 240.45 Q450.6 241.15 562.4 243.35 L562.4 243.1 Q562.45 241.0 567.8 225.15 573.65 207.8 574.25 205.1 L577.45 183.35 Q578.2 177.6 579.25 173.9 M432.25 92.25 L432.25 89.55 433.5 89.25 437.35 94.95 439.2 97.2 455.4 76.3 410.85 76.5 Q372.55 76.5 362.7 76.95 365.7 76.25 359.6 74.5 358.1 73.75 357.35 73.75 355.2 73.5 331.05 73.45 L329.85 73.5 328.65 73.45 322.15 73.45 322.1 73.75 Q322.35 74.5 319.85 74.5 319.45 74.5 318.85 73.45 L308.65 73.5 Q307.1 74.5 303.85 74.5 302.2 74.5 301.3 73.5 L291.85 73.5 171.6 73.5 Q170.7 75.75 169.25 75.75 L168.25 75.5 Q167.75 75.0 167.75 74.35 L167.95 73.5 60.05 73.5 Q56.8 78.15 46.35 90.35 29.0 110.6 25.25 116.25 22.7 120.1 15.35 125.45 8.0 130.85 5.0 135.25 L-2.05 146.8 -5.25 151.85 1.85 153.55 9.5 155.75 Q33.75 159.65 48.4 158.95 L54.2 158.55 61.0 149.95 Q70.2 138.45 75.45 133.05 L76.25 132.25 Q81.4 124.7 86.4 117.9 96.3 104.5 99.5 104.5 100.75 104.5 101.45 104.95 L104.55 104.7 Q120.95 103.65 189.0 103.0 L193.5 102.0 236.85 101.5 Q261.4 101.5 299.0 102.55 345.6 103.8 426.85 104.5 430.45 104.5 431.2 107.7 L438.1 98.65 Q434.45 95.1 432.25 92.25 M452.85 90.0 L452.85 89.55 452.65 89.9 Q448.35 97.4 444.75 102.3 L448.5 104.75 454.35 108.05 454.35 107.0 Q453.15 95.7 452.85 90.0 M334.35 78.85 L334.35 79.8 334.35 80.35 334.35 80.5 Q334.1 84.45 322.35 98.2 L322.2 99.45 320.95 99.85 320.35 100.5 317.6 100.0 317.55 100.0 277.75 98.7 275.85 100.5 274.05 99.9 Q273.5 99.5 273.4 98.5 L273.35 98.5 273.35 97.0 273.45 96.95 Q274.05 94.1 278.05 86.85 281.35 80.8 284.35 77.5 L284.35 77.0 Q284.55 76.8 285.25 76.6 286.55 75.25 287.85 74.5 L289.55 75.15 290.1 75.75 293.85 75.5 331.55 76.8 331.85 76.5 Q333.3 76.5 333.9 77.25 L334.0 77.25 Q334.35 77.35 334.35 78.85 M328.05 81.45 L317.35 81.5 291.15 80.05 291.3 81.25 291.35 86.85 291.25 95.5 297.85 95.5 Q311.9 95.5 318.15 96.05 319.7 93.3 324.45 86.5 L328.05 81.45 M455.9 133.5 L455.85 133.05 Q454.5 125.3 454.4 110.7 L446.5 106.25 443.6 103.75 Q437.5 111.5 433.35 111.5 L432.55 111.3 432.6 111.6 Q433.8 117.2 433.5 133.05 L433.35 138.25 433.25 159.1 439.75 150.8 Q450.55 137.5 455.85 133.5 L455.9 133.55 455.9 133.5 M459.35 113.8 L459.35 123.75 Q461.75 120.9 461.75 118.35 461.75 115.9 459.35 113.8 M428.85 112.5 Q427.3 112.5 426.4 111.4 L425.6 110.0 Q425.5 109.85 385.1 109.0 324.35 107.6 236.75 106.75 189.55 106.75 189.05 108.15 188.5 109.5 140.5 109.5 109.55 109.15 101.0 108.65 102.15 111.6 102.45 122.3 L102.6 133.05 102.5 137.25 102.3 164.75 123.0 164.0 264.85 163.5 Q411.05 164.4 429.5 164.9 L429.75 164.25 Q428.85 159.8 428.55 153.8 428.35 150.25 428.35 138.35 L428.3 133.05 Q428.2 127.2 428.35 122.25 428.55 115.95 429.1 112.55 L429.1 112.5 428.85 112.5 M425.2 269.05 Q434.6 268.1 471.85 267.75 L480.85 267.5 489.4 267.95 489.85 267.5 490.1 268.05 491.85 268.55 Q492.55 268.9 492.5 269.35 L492.35 269.85 Q492.35 270.25 490.95 270.6 492.4 275.5 495.15 287.3 499.35 305.1 499.35 308.85 L500.55 311.7 Q501.2 313.1 499.15 313.75 493.85 315.5 458.85 315.5 L438.05 315.15 423.1 314.7 423.1 314.75 420.85 315.5 420.45 314.55 418.6 314.25 Q418.35 315.25 418.35 312.75 414.7 312.05 419.55 311.5 418.8 308.35 418.55 304.25 418.35 301.45 418.35 291.75 418.35 282.1 418.55 279.3 418.75 275.8 419.35 273.15 418.55 272.75 418.8 272.35 L419.35 271.75 Q419.35 270.55 419.9 270.2 L420.2 270.05 420.85 268.5 421.35 269.65 425.2 269.05 M423.25 279.85 L423.35 291.85 423.2 311.2 Q431.9 310.65 452.55 310.35 449.85 305.1 450.05 295.6 451.35 280.6 451.35 274.35 L451.35 274.2 440.85 274.5 422.55 273.85 423.25 279.85 M440.35 291.75 Q440.35 290.15 441.25 289.8 L442.85 289.5 Q444.45 290.15 445.35 291.5 445.35 293.45 442.85 294.5 441.35 294.0 440.6 293.25 440.35 294.25 440.35 291.75 M473.55 259.4 Q478.35 258.75 479.3 258.0 480.25 257.2 480.95 257.1 484.6 256.6 527.1 257.55 L563.35 259.15 563.15 257.45 563.25 251.2 563.3 248.7 Q553.8 249.55 526.3 249.05 L336.95 245.65 252.0 244.4 Q191.6 243.55 172.8 243.75 170.95 243.85 170.35 244.4 169.7 245.05 167.8 245.35 160.5 246.5 125.5 245.75 L95.4 244.25 95.4 244.3 95.45 248.4 95.3 252.55 Q98.3 252.45 108.6 252.9 L111.1 253.0 Q111.4 252.4 111.85 252.45 112.25 252.45 112.55 253.05 170.75 255.45 246.1 257.15 257.75 257.0 466.8 260.75 468.5 260.75 473.55 259.4 M456.4 273.95 L456.2 273.95 456.4 274.45 457.35 277.75 457.35 310.25 Q472.9 310.05 494.35 310.0 494.3 308.4 490.8 292.95 487.35 277.6 487.35 273.6 487.35 272.35 487.6 271.25 L469.9 273.0 456.4 273.95 M462.25 290.8 L463.85 290.5 Q465.45 291.15 466.35 292.5 466.35 294.45 463.85 295.5 462.35 295.0 461.6 294.25 461.35 295.25 461.35 292.75 461.35 291.15 462.25 290.8 M358.55 269.0 L313.8 267.65 Q314.9 272.1 315.25 277.85 L315.3 279.7 Q318.2 279.5 338.35 279.5 342.25 279.5 351.25 279.85 L359.45 280.25 359.3 277.05 Q359.15 272.05 360.4 269.0 L358.55 269.0 M346.5 264.6 L362.8 265.55 362.85 265.5 363.15 265.65 Q364.0 265.85 364.05 266.15 L365.35 267.5 365.35 314.35 365.35 314.6 365.85 314.75 366.1 314.35 Q366.35 314.3 366.35 315.85 L366.25 317.45 Q365.55 318.0 361.45 318.0 L315.1 316.65 315.1 316.75 312.85 317.5 312.55 316.55 311.35 316.5 311.35 315.0 312.0 314.5 Q310.9 309.95 310.55 304.25 310.35 301.2 310.35 290.75 310.35 274.15 311.85 267.55 L310.35 267.5 310.35 266.0 311.85 264.75 312.75 264.7 312.85 264.5 312.9 264.7 Q317.05 264.5 336.85 264.5 L346.5 264.6 M312.9 263.65 L296.35 263.35 279.0 263.05 270.3 262.9 258.85 262.65 246.15 262.4 142.0 258.75 113.5 258.0 Q113.95 262.35 113.95 270.2 113.95 279.05 113.55 288.2 L112.65 320.7 Q300.9 324.3 302.65 324.1 L313.15 322.85 Q316.3 322.45 317.9 321.45 L332.2 320.5 381.7 321.35 549.05 327.3 571.15 328.9 Q569.25 318.7 568.0 294.1 566.95 272.85 567.0 263.45 L566.5 263.4 Q565.1 263.35 564.3 262.05 548.05 263.9 476.45 264.5 416.8 264.95 346.5 264.1 L336.85 264.0 312.9 263.65 M296.35 263.5 Q297.95 263.5 298.6 264.2 L299.35 265.5 299.35 314.1 300.0 314.25 Q300.35 314.35 300.35 315.85 L300.25 317.5 Q300.0 318.05 298.85 318.25 L285.35 318.5 250.4 317.65 216.75 316.25 Q216.5 315.5 216.5 314.0 L218.0 312.75 218.15 312.75 218.95 312.7 218.9 312.6 Q217.95 308.4 217.65 303.25 217.5 300.45 217.5 289.75 L217.5 275.5 Q218.0 263.5 220.5 263.5 L222.95 263.75 258.85 263.5 270.15 263.65 279.0 263.85 293.55 264.35 293.6 264.0 296.35 263.5 M315.85 301.75 Q316.85 301.5 339.35 301.5 343.25 301.5 352.25 301.85 L360.6 302.3 360.4 295.45 355.85 295.5 315.35 293.55 315.35 301.75 315.35 302.2 315.85 301.75 M359.7 284.0 L358.75 284.0 315.35 282.6 315.35 289.7 Q317.95 289.5 332.35 289.5 L360.3 290.65 359.7 284.0 M353.0 313.85 L361.9 314.25 Q361.2 310.95 360.8 306.0 L359.7 306.0 315.3 304.55 315.2 313.65 Q320.65 313.5 338.85 313.5 343.05 313.5 353.0 313.85 M568.9 243.95 L569.15 244.25 Q569.4 244.4 569.35 245.85 L569.25 247.3 568.0 247.95 568.3 250.0 569.3 247.3 Q574.05 235.0 585.85 205.8 L584.75 205.8 Q583.3 205.8 581.85 197.15 580.15 204.3 577.55 213.15 L568.05 243.7 568.0 243.8 568.9 243.95 M581.95 228.9 L581.9 228.1 581.6 228.9 Q572.45 251.85 570.8 259.5 L570.55 259.7 572.4 288.6 574.5 323.2 576.8 318.7 Q582.25 308.65 582.5 307.25 583.05 303.0 584.9 295.1 586.2 289.05 587.35 286.3 584.8 275.05 581.95 228.9 M286.35 86.75 L286.4 84.8 Q282.65 91.65 280.0 95.6 L287.25 95.55 Q286.35 92.45 286.35 86.75 M1.3 159.05 Q-3.45 157.95 -6.65 156.85 -5.85 162.45 -5.55 173.1 -5.25 184.45 -5.5 196.0 -5.5 213.05 -5.65 223.75 L25.0 223.5 Q30.05 223.5 43.15 223.85 L54.8 224.25 Q53.25 216.6 52.75 207.65 52.5 202.85 52.5 185.5 51.55 175.75 51.4 170.45 51.25 165.4 52.25 162.35 L36.5 162.5 Q16.05 162.5 1.3 159.05 M59.1 188.3 Q59.2 198.7 58.5 219.0 L58.5 223.15 61.0 219.1 Q69.3 206.2 97.55 167.55 L97.5 166.75 Q95.9 165.8 99.3 165.15 98.0 160.15 97.65 152.8 97.5 149.55 97.5 137.35 L97.5 133.05 97.55 121.25 Q97.7 115.35 98.2 111.95 L83.0 133.05 78.6 139.3 Q67.25 154.75 61.0 160.35 58.2 162.8 56.45 163.35 59.0 173.6 59.1 188.3 M120.65 274.0 Q120.95 268.35 122.05 264.4 L121.75 264.25 Q121.5 265.25 121.5 262.75 121.5 260.85 124.3 260.3 L142.0 259.5 200.5 264.85 200.45 266.5 Q200.2 267.05 198.95 267.25 L184.5 267.5 Q167.0 265.1 158.5 265.0 145.55 264.8 128.9 264.9 L125.5 264.85 125.5 309.75 162.0 309.5 Q167.7 309.5 183.15 309.85 L198.65 310.35 Q198.5 309.45 198.5 308.35 198.5 304.25 199.5 285.5 L199.1 274.15 Q199.1 269.4 200.55 266.55 201.15 265.35 202.0 264.5 203.95 268.05 204.4 274.8 L204.5 285.25 Q204.5 302.05 203.5 311.6 L203.5 311.85 203.75 312.8 Q203.9 313.25 203.55 313.45 203.45 313.5 203.3 313.6 L203.25 313.75 201.0 314.5 200.25 313.95 196.8 314.0 124.9 312.6 123.0 313.5 122.65 312.55 120.5 312.5 120.5 311.0 121.85 309.9 Q120.95 306.15 120.65 301.1 120.5 298.3 120.5 287.5 120.5 276.8 120.65 274.0 M291.95 268.0 L223.5 266.6 222.35 312.6 244.35 312.5 Q286.35 313.3 296.15 313.75 292.65 304.5 292.55 290.95 293.25 275.9 293.35 268.0 L291.95 268.0 M194.0 287.5 Q195.7 287.5 196.2 288.7 196.5 289.45 196.5 291.75 196.5 294.7 196.0 295.5 195.35 296.5 193.0 296.5 L189.75 296.0 Q189.5 294.75 189.5 292.25 189.5 287.5 194.0 287.5 M225.5 291.85 Q225.5 286.5 229.5 286.5 234.1 286.5 233.5 292.25 233.5 294.5 233.0 295.25 232.2 296.5 229.5 296.5 L225.75 296.0 Q225.5 294.5 225.5 291.85" fill="#000000" fill-rule="evenodd" stroke="none"/>
      <path d="M452.65 89.9 L452.85 90.0 Q453.15 95.7 454.35 107.0 L454.35 108.05 448.5 104.75 444.75 102.3 Q448.35 97.4 452.65 89.9 M433.35 111.5 Q437.5 111.5 443.6 103.75 L446.5 106.25 454.4 110.7 Q454.5 125.3 455.85 133.05 L455.9 133.5 455.85 133.5 Q450.55 137.5 439.75 150.8 L433.25 159.1 433.35 138.25 433.5 133.05 Q433.8 117.2 432.6 111.6 L433.35 111.5 M568.05 243.7 L577.55 213.15 Q580.15 204.3 581.85 197.15 583.3 205.8 584.75 205.8 L585.85 205.8 Q574.05 235.0 569.3 247.3 L568.3 250.0 568.0 247.95 569.25 247.3 569.35 245.85 Q569.4 244.4 569.15 244.25 L568.9 243.95 568.05 243.7 M581.6 228.9 L581.95 228.9 Q584.8 275.05 587.35 286.3 586.2 289.05 584.9 295.1 583.05 303.0 582.5 307.25 582.25 308.65 576.8 318.7 L574.5 323.2 572.4 288.6 570.55 259.7 570.8 259.5 Q572.45 251.85 581.6 228.9 M59.1 188.3 Q59.0 173.6 56.45 163.35 58.2 162.8 61.0 160.35 67.25 154.75 78.6 139.3 L83.0 133.05 98.2 111.95 Q97.7 115.35 97.55 121.25 L97.5 133.05 97.5 137.35 Q97.5 149.55 97.65 152.8 98.0 160.15 99.3 165.15 95.9 165.8 97.5 166.75 L97.55 167.55 Q69.3 206.2 61.0 219.1 L58.5 223.15 58.5 219.0 Q59.2 198.7 59.1 188.3" fill="#885f00" fill-rule="evenodd" stroke="none"/>
      <path d="M432.25 92.25 Q434.45 95.1 438.1 98.65 L431.2 107.7 Q430.45 104.5 426.85 104.5 345.6 103.8 299.0 102.55 261.4 101.5 236.85 101.5 L193.5 102.0 189.0 103.0 Q120.95 103.65 104.55 104.7 L101.45 104.95 Q100.75 104.5 99.5 104.5 96.3 104.5 86.4 117.9 81.4 124.7 76.25 132.25 L75.45 133.05 Q70.2 138.45 61.0 149.95 L54.2 158.55 48.4 158.95 Q33.75 159.65 9.5 155.75 L1.85 153.55 -5.25 151.85 -2.05 146.8 5.0 135.25 Q8.0 130.85 15.35 125.45 22.7 120.1 25.25 116.25 29.0 110.6 46.35 90.35 56.8 78.15 60.05 73.5 L167.95 73.5 167.75 74.35 Q167.75 75.0 168.25 75.5 L169.25 75.75 Q170.7 75.75 171.6 73.5 L291.85 73.5 301.3 73.5 Q302.2 74.5 303.85 74.5 307.1 74.5 308.65 73.5 L318.85 73.45 Q319.45 74.5 319.85 74.5 322.35 74.5 322.1 73.75 L322.15 73.45 328.65 73.45 329.85 73.5 331.05 73.45 Q355.2 73.5 357.35 73.75 358.1 73.75 359.6 74.5 365.7 76.25 362.7 76.95 372.55 76.5 410.85 76.5 L455.4 76.3 439.2 97.2 437.35 94.95 433.5 89.25 432.25 89.55 432.25 92.25 M334.35 78.85 Q334.35 77.35 334.0 77.25 L333.9 77.25 Q333.3 76.5 331.85 76.5 L331.55 76.8 293.85 75.5 290.1 75.75 289.55 75.15 287.85 74.5 Q286.55 75.25 285.25 76.6 284.55 76.8 284.35 77.0 L284.35 77.5 Q281.35 80.8 278.05 86.85 274.05 94.1 273.45 96.95 L273.35 97.0 273.35 98.5 273.4 98.5 Q273.5 99.5 274.05 99.9 L275.85 100.5 277.75 98.7 317.55 100.0 317.6 100.0 320.35 100.5 320.95 99.85 322.2 99.45 322.35 98.2 Q334.1 84.45 334.35 80.5 L334.35 80.35 334.35 79.8 334.35 78.85" fill="#eeeeee" fill-rule="evenodd" stroke="none"/>
      <path d="M429.1 112.55 Q428.55 115.95 428.35 122.25 428.2 127.2 428.3 133.05 L428.35 138.35 Q428.35 150.25 428.55 153.8 428.85 159.8 429.75 164.25 L429.5 164.9 Q411.05 164.4 264.85 163.5 L123.0 164.0 102.3 164.75 102.5 137.25 102.6 133.05 102.45 122.3 Q102.15 111.6 101.0 108.65 109.55 109.15 140.5 109.5 188.5 109.5 189.05 108.15 189.55 106.75 236.75 106.75 324.35 107.6 385.1 109.0 425.5 109.85 425.6 110.0 L426.4 111.4 Q427.3 112.5 428.85 112.5 L429.1 112.55 M440.35 291.75 Q440.35 294.25 440.6 293.25 441.35 294.0 442.85 294.5 445.35 293.45 445.35 291.5 444.45 290.15 442.85 289.5 L441.25 289.8 Q440.35 290.15 440.35 291.75 M423.25 279.85 L422.55 273.85 440.85 274.5 451.35 274.2 451.35 274.35 Q451.35 280.6 450.05 295.6 449.85 305.1 452.55 310.35 431.9 310.65 423.2 311.2 L423.35 291.85 423.25 279.85 M425.2 269.05 L421.35 269.65 420.85 268.5 420.2 270.05 419.9 270.2 Q419.35 270.55 419.35 271.75 L418.8 272.35 Q418.55 272.75 419.35 273.15 418.75 275.8 418.55 279.3 418.35 282.1 418.35 291.75 418.35 301.45 418.55 304.25 418.8 308.35 419.55 311.5 414.7 312.05 418.35 312.75 418.35 315.25 418.6 314.25 L420.45 314.55 420.85 315.5 423.1 314.75 423.1 314.7 438.05 315.15 458.85 315.5 Q493.85 315.5 499.15 313.75 501.2 313.1 500.55 311.7 L499.35 308.85 Q499.35 305.1 495.15 287.3 492.4 275.5 490.95 270.6 492.35 270.25 492.35 269.85 L492.5 269.35 Q492.55 268.9 491.85 268.55 L490.1 268.05 489.85 267.5 489.4 267.95 480.85 267.5 471.85 267.75 Q434.6 268.1 425.2 269.05 M456.4 274.45 L456.4 273.95 469.9 273.0 487.6 271.25 Q487.35 272.35 487.35 273.6 487.35 277.6 490.8 292.95 494.3 308.4 494.35 310.0 472.9 310.05 457.35 310.25 L457.35 277.75 456.4 274.45 M365.35 314.35 L365.35 267.5 364.05 266.15 Q364.0 265.85 363.15 265.65 L362.85 265.5 362.8 265.55 346.5 264.6 346.5 264.1 Q416.8 264.95 476.45 264.5 548.05 263.9 564.3 262.05 565.1 263.35 566.5 263.4 L567.0 263.45 Q566.95 272.85 568.0 294.1 569.25 318.7 571.15 328.9 L549.05 327.3 381.7 321.35 332.2 320.5 317.9 321.45 Q316.3 322.45 313.15 322.85 L302.65 324.1 Q300.9 324.3 112.65 320.7 L113.55 288.2 Q113.95 279.05 113.95 270.2 113.95 262.35 113.5 258.0 L142.0 258.75 246.15 262.4 258.85 262.65 258.85 263.5 222.95 263.75 220.5 263.5 Q218.0 263.5 217.5 275.5 L217.5 289.75 Q217.5 300.45 217.65 303.25 217.95 308.4 218.9 312.6 L218.15 312.75 218.0 312.75 216.5 314.0 Q216.5 315.5 216.75 316.25 L250.4 317.65 285.35 318.5 298.85 318.25 Q300.0 318.05 300.25 317.5 L300.35 315.85 Q300.35 314.35 300.0 314.25 L299.35 314.1 299.35 265.5 298.6 264.2 Q297.95 263.5 296.35 263.5 L296.35 263.35 312.9 263.65 312.85 264.5 312.75 264.7 311.85 264.75 310.35 266.0 310.35 267.5 311.85 267.55 Q310.35 274.15 310.35 290.75 310.35 301.2 310.55 304.25 310.9 309.95 312.0 314.5 L311.35 315.0 311.35 316.5 312.55 316.55 312.85 317.5 315.1 316.75 315.1 316.65 361.45 318.0 Q365.55 318.0 366.25 317.45 L366.35 315.85 Q366.35 314.3 366.1 314.35 L365.35 314.35 M358.55 269.0 L360.4 269.0 Q359.15 272.05 359.3 277.05 L359.45 280.25 351.25 279.85 Q342.25 279.5 338.35 279.5 318.2 279.5 315.3 279.7 L315.25 277.85 Q314.9 272.1 313.8 267.65 L358.55 269.0 M462.25 290.8 Q461.35 291.15 461.35 292.75 461.35 295.25 461.6 294.25 462.35 295.0 463.85 295.5 466.35 294.45 466.35 292.5 465.45 291.15 463.85 290.5 L462.25 290.8 M315.35 301.75 L315.35 293.55 355.85 295.5 360.4 295.45 360.6 302.3 352.25 301.85 Q343.25 301.5 339.35 301.5 316.85 301.5 315.85 301.75 L315.35 301.75 M1.3 159.05 Q16.05 162.5 36.5 162.5 L52.25 162.35 Q51.25 165.4 51.4 170.45 51.55 175.75 52.5 185.5 52.5 202.85 52.75 207.65 53.25 216.6 54.8 224.25 L43.15 223.85 Q30.05 223.5 25.0 223.5 L-5.65 223.75 Q-5.5 213.05 -5.5 196.0 -5.25 184.45 -5.55 173.1 -5.85 162.45 -6.65 156.85 -3.45 157.95 1.3 159.05 M120.65 274.0 Q120.5 276.8 120.5 287.5 120.5 298.3 120.65 301.1 120.95 306.15 121.85 309.9 L120.5 311.0 120.5 312.5 122.65 312.55 123.0 313.5 124.9 312.6 196.8 314.0 200.25 313.95 201.0 314.5 203.25 313.75 203.3 313.6 Q203.45 313.5 203.55 313.45 203.9 313.25 203.75 312.8 L203.5 311.85 203.5 311.6 Q204.5 302.05 204.5 285.25 L204.4 274.8 Q203.95 268.05 202.0 264.5 201.15 265.35 200.55 266.55 199.1 269.4 199.1 274.15 L199.5 285.5 Q198.5 304.25 198.5 308.35 198.5 309.45 198.65 310.35 L183.15 309.85 Q167.7 309.5 162.0 309.5 L125.5 309.75 125.5 264.85 128.9 264.9 Q145.55 264.8 158.5 265.0 167.0 265.1 184.5 267.5 L198.95 267.25 Q200.2 267.05 200.45 266.5 L200.5 264.85 142.0 259.5 124.3 260.3 Q121.5 260.85 121.5 262.75 121.5 265.25 121.75 264.25 L122.05 264.4 Q120.95 268.35 120.65 274.0 M225.5 291.85 Q225.5 294.5 225.75 296.0 L229.5 296.5 Q232.2 296.5 233.0 295.25 233.5 294.5 233.5 292.25 234.1 286.5 229.5 286.5 225.5 286.5 225.5 291.85 M194.0 287.5 Q189.5 287.5 189.5 292.25 189.5 294.75 189.75 296.0 L193.0 296.5 Q195.35 296.5 196.0 295.5 196.5 294.7 196.5 291.75 196.5 289.45 196.2 288.7 195.7 287.5 194.0 287.5 M291.95 268.0 L293.35 268.0 Q293.25 275.9 292.55 290.95 292.65 304.5 296.15 313.75 286.35 313.3 244.35 312.5 L222.35 312.6 223.5 266.6 291.95 268.0" fill="#b17c01" fill-rule="evenodd" stroke="none"/>
      <path d="M328.05 81.45 L324.45 86.5 Q319.7 93.3 318.15 96.05 311.9 95.5 297.85 95.5 L291.25 95.5 291.35 86.85 291.3 81.25 291.15 80.05 317.35 81.5 328.05 81.45 M286.35 86.75 Q286.35 92.45 287.25 95.55 L280.0 95.6 Q282.65 91.65 286.4 84.8 L286.35 86.75" fill="#d9d9d9" fill-rule="evenodd" stroke="none"/>
      <path d="M579.25 173.9 Q578.2 177.6 577.45 183.35 L574.25 205.1 Q573.65 207.8 567.8 225.15 562.45 241.0 562.4 243.1 L562.4 243.35 Q450.6 241.15 336.95 240.45 L252.0 240.15 244.45 240.15 Q120.05 240.0 96.9 241.45 99.3 234.45 111.05 206.7 122.5 179.5 123.95 172.6 L125.1 172.7 Q132.0 172.85 140.9 170.5 L147.4 169.15 163.2 168.05 Q215.8 168.1 252.0 168.5 281.75 168.8 300.4 169.3 L306.85 169.5 322.0 170.3 336.95 169.8 Q343.75 169.7 353.5 169.75 562.2 173.4 579.2 173.25 L579.25 173.9" fill="#bb8300" fill-rule="evenodd" stroke="none"/>
      <path d="M473.55 259.4 Q468.5 260.75 466.8 260.75 257.75 257.0 246.1 257.15 170.75 255.45 112.55 253.05 112.25 252.45 111.85 252.45 111.4 252.4 111.1 253.0 L108.6 252.9 Q98.3 252.45 95.3 252.55 L95.45 248.4 95.4 244.3 95.4 244.25 125.5 245.75 Q160.5 246.5 167.8 245.35 169.7 245.05 170.35 244.4 170.95 243.85 172.8 243.75 191.6 243.55 252.0 244.4 L336.95 245.65 526.3 249.05 Q553.8 249.55 563.3 248.7 L563.25 251.2 563.15 257.45 563.35 259.15 527.1 257.55 Q484.6 256.6 480.95 257.1 480.25 257.2 479.3 258.0 478.35 258.75 473.55 259.4 M456.4 273.95 L456.4 274.45 456.2 273.95 456.4 273.95 M365.35 314.35 L366.1 314.35 365.85 314.75 365.35 314.6 365.35 314.35 M312.85 264.5 L312.9 263.65 336.85 264.0 346.5 264.1 346.5 264.6 336.85 264.5 Q317.05 264.5 312.9 264.7 L312.85 264.5 M296.35 263.35 L296.35 263.5 293.6 264.0 293.55 264.35 279.0 263.85 270.15 263.65 258.85 263.5 258.85 262.65 270.3 262.9 279.0 263.05 296.35 263.35 M218.15 312.75 L218.9 312.6 218.95 312.7 218.15 312.75 M315.35 301.75 L315.85 301.75 315.35 302.2 315.35 301.75 M353.0 313.85 Q343.05 313.5 338.85 313.5 320.65 313.5 315.2 313.65 L315.3 304.55 359.7 306.0 360.8 306.0 Q361.2 310.95 361.9 314.25 L353.0 313.85 M359.7 284.0 L360.3 290.65 332.35 289.5 Q317.95 289.5 315.35 289.7 L315.35 282.6 358.75 284.0 359.7 284.0" fill="#996a00" fill-rule="evenodd" stroke="none"/>
      <path d="M178.05 93.1 L177.5 93.25 Q176.55 90.0 176.35 85.5 L176.25 77.65 Q176.15 73.25 176.3 69.4 176.6 62.6 177.7 61.85 L177.75 61.5 178.35 61.3 178.35 61.25 178.3 61.2 176.75 61.0 178.3 60.65 178.25 60.15 Q178.25 58.0 179.45 56.4 180.25 55.25 182.3 53.7 L182.25 53.5 182.75 53.35 183.5 52.75 184.5 53.0 184.6 53.05 185.15 53.0 188.7 52.75 194.95 53.3 Q195.15 53.35 195.25 53.5 L195.45 53.5 195.55 53.65 195.65 53.8 198.15 56.2 201.7 50.85 201.7 50.4 Q201.7 49.55 202.1 49.35 L202.95 49.25 203.45 49.25 Q206.05 49.25 207.6 51.0 208.7 52.25 208.7 53.25 208.7 54.15 206.05 57.4 L204.8 58.85 207.7 61.9 Q207.7 62.6 206.5 64.05 207.5 64.85 208.7 66.55 L209.35 65.65 Q215.45 57.25 215.7 57.25 219.05 57.25 221.7 61.5 221.7 63.8 218.2 66.25 L215.9 67.6 Q217.8 69.05 219.7 71.55 219.7 72.3 217.45 74.05 219.8 75.2 225.2 80.75 L225.1 80.95 225.45 81.0 225.55 81.15 225.7 81.95 225.6 82.7 225.65 83.05 225.7 85.7 225.65 88.8 225.7 89.65 225.6 90.0 225.55 90.4 225.2 90.55 Q224.15 91.75 220.8 94.15 L220.8 94.2 220.7 94.45 220.7 95.15 219.45 95.75 218.9 95.25 218.2 95.1 207.35 96.0 190.45 96.75 178.9 96.15 Q178.25 95.95 178.45 95.7 L178.75 95.4 178.75 95.0 181.2 94.7 207.95 93.5 213.7 93.25 217.85 93.4 218.2 92.85 218.2 91.2 Q218.35 87.85 215.8 86.15 210.4 82.85 206.5 80.1 L206.2 80.0 205.8 79.8 205.7 79.55 203.7 78.0 198.85 74.1 196.3 72.15 196.15 72.1 196.15 72.05 195.75 71.8 195.75 71.75 Q193.8 70.4 192.3 69.65 190.6 68.8 190.4 67.4 190.5 65.85 190.2 65.1 189.75 64.05 187.7 63.2 L183.25 63.25 179.25 63.2 178.65 92.75 178.05 93.1 M187.25 60.9 Q187.25 58.25 188.75 56.7 L190.65 55.25 188.7 55.25 184.45 55.25 183.0 57.95 181.35 60.35 183.0 60.25 Q184.2 60.25 185.7 60.8 L187.25 60.95 187.25 60.9 M188.75 62.35 Q190.8 63.6 193.25 65.65 193.65 63.85 196.5 58.95 195.25 58.45 194.3 57.15 L193.9 56.5 192.9 57.4 Q190.15 59.85 190.2 61.65 190.0 62.25 188.75 62.25 L188.75 62.35 M200.75 59.4 L199.8 60.85 195.25 67.35 196.95 68.85 199.9 66.1 Q204.05 62.55 204.05 61.9 204.05 61.35 203.05 60.7 L202.95 60.75 202.05 60.35 Q201.85 60.2 201.8 59.9 L201.4 59.7 200.75 59.4 M203.2 56.05 L205.7 53.4 204.2 52.35 Q204.05 53.5 202.85 55.85 L202.35 56.75 202.55 56.9 203.2 56.05 M213.0 66.1 Q218.5 63.8 218.8 61.65 217.95 60.75 216.7 60.75 216.25 60.75 214.5 63.15 213.0 65.1 212.65 65.9 L212.6 65.95 213.0 66.1 M214.1 76.5 L209.75 79.25 213.1 81.35 Q216.6 83.55 218.85 85.5 219.2 84.3 220.3 83.3 221.05 82.6 222.65 81.65 216.7 78.1 215.5 75.55 L214.1 76.5 M213.0 69.65 L211.45 68.75 210.95 68.75 Q210.4 68.75 207.75 72.5 L205.1 76.05 206.75 77.2 Q207.8 76.2 210.05 74.95 L216.45 71.25 Q216.05 71.25 213.0 69.65 M207.0 69.0 Q205.85 68.45 204.7 67.05 L204.2 66.4 199.1 70.75 203.3 74.65 Q203.85 73.4 207.0 69.0 M220.7 90.5 L220.7 90.55 220.7 90.5 223.3 88.7 223.3 88.5 223.2 86.35 220.7 88.0 220.7 90.5" fill="#000000" fill-rule="evenodd" stroke="none"/>
      <path d="M187.25 60.95 L185.7 60.8 Q184.2 60.25 183.0 60.25 L181.35 60.35 183.0 57.95 184.45 55.25 188.7 55.25 190.65 55.25 188.75 56.7 Q187.25 58.25 187.25 60.9 L187.25 60.95" fill="#996a00" fill-rule="evenodd" stroke="none"/>
      <path d="M188.75 62.25 Q190.0 62.25 190.2 61.65 190.15 59.85 192.9 57.4 L193.9 56.5 194.3 57.15 Q195.25 58.45 196.5 58.95 193.65 63.85 193.25 65.65 190.8 63.6 188.75 62.35 L188.75 62.25 M214.1 76.5 L215.5 75.55 Q216.7 78.1 222.65 81.65 221.05 82.6 220.3 83.3 219.2 84.3 218.85 85.5 216.6 83.55 213.1 81.35 L209.75 79.25 214.1 76.5 M207.0 69.0 Q203.85 73.4 203.3 74.65 L199.1 70.75 204.2 66.4 204.7 67.05 Q205.85 68.45 207.0 69.0 M220.7 90.5 L220.7 88.0 223.2 86.35 223.3 88.5 223.3 88.7 220.7 90.5" fill="#885f00" fill-rule="evenodd" stroke="none"/>
      <path d="M178.75 95.0 L178.05 93.1 178.65 92.75 179.25 63.2 183.25 63.25 187.7 63.2 Q189.75 64.05 190.2 65.1 190.5 65.85 190.4 67.4 190.6 68.8 192.3 69.65 193.8 70.4 195.75 71.75 L195.75 71.8 196.15 72.05 196.15 72.1 196.3 72.15 198.85 74.1 203.7 78.0 205.7 79.55 205.8 79.8 206.2 80.0 206.5 80.1 Q210.4 82.85 215.8 86.15 218.35 87.85 218.2 91.2 L218.2 92.85 217.85 93.4 213.7 93.25 207.95 93.5 181.2 94.7 178.75 95.0" fill="#bb8300" fill-rule="evenodd" stroke="none"/>
      <path d="M200.75 59.4 L201.4 59.7 201.8 59.9 Q201.85 60.2 202.05 60.35 L202.95 60.75 203.05 60.7 Q204.05 61.35 204.05 61.9 204.05 62.55 199.9 66.1 L196.95 68.85 195.25 67.35 199.8 60.85 200.75 59.4 M213.0 69.65 Q216.05 71.25 216.45 71.25 L210.05 74.95 Q207.8 76.2 206.75 77.2 L205.1 76.05 207.75 72.5 Q210.4 68.75 210.95 68.75 L211.45 68.75 213.0 69.65" fill="#e1e1e1" fill-rule="evenodd" stroke="none"/>
      <path d="M202.85 55.85 Q204.05 53.5 204.2 52.35 L205.7 53.4 203.2 56.05 202.85 55.85 M212.65 65.9 Q213.0 65.1 214.5 63.15 216.25 60.75 216.7 60.75 217.95 60.75 218.8 61.65 218.5 63.8 213.0 66.1 L212.65 65.9" fill="#9d9d9d" fill-rule="evenodd" stroke="none"/>
      <path d="M401.0 93.3 L400.5 93.5 Q399.25 92.35 399.25 89.5 399.25 85.4 400.9 83.15 L401.1 82.85 Q401.75 81.25 403.55 78.3 406.65 73.15 409.5 72.15 409.5 71.9 410.2 71.75 411.7 71.5 422.2 71.5 L433.0 71.85 Q433.3 71.5 433.95 71.5 434.45 71.5 434.9 72.2 L435.0 72.4 Q436.35 75.0 436.7 85.05 L436.75 87.95 Q436.75 89.1 436.2 89.75 435.45 90.8 428.95 94.5 L428.45 94.35 428.0 94.5 427.95 94.5 427.1 94.75 411.95 95.5 406.1 95.35 400.9 94.9 Q400.75 95.4 400.75 94.15 400.75 93.5 401.05 93.35 401.25 93.2 401.8 93.1 L403.7 92.8 427.15 92.0 427.1 91.15 427.2 86.7 Q426.85 81.15 420.45 81.15 L410.25 81.15 Q406.55 81.25 405.15 82.1 404.9 82.2 404.7 82.4 L404.15 83.3 403.3 84.55 403.0 85.5 401.75 92.9 401.0 93.3 M425.35 76.45 L425.2 76.7 425.05 77.5 423.5 77.75 409.7 77.0 409.7 76.25 413.25 75.75 417.45 75.5 424.95 76.05 425.35 76.45 M430.7 77.2 Q427.1 79.85 428.2 82.4 L428.7 83.15 Q429.6 84.65 429.45 86.6 L429.2 88.75 429.15 91.3 430.95 90.15 Q434.2 88.0 434.2 84.75 L432.9 75.65 430.7 77.2 M425.7 80.15 Q425.7 78.3 426.05 77.6 426.3 77.0 427.25 76.5 429.5 75.35 431.35 73.9 L410.95 74.5 410.5 74.05 408.9 75.35 Q406.05 77.85 405.8 79.7 409.15 78.5 414.2 78.5 421.75 78.5 425.6 80.4 L425.7 80.5 425.7 80.15 M407.2 84.0 L407.2 87.4 406.0 88.0 Q404.75 86.75 404.75 85.5 404.75 84.0 406.0 83.0 406.75 83.35 407.2 84.0 M409.25 89.95 Q409.4 89.5 409.2 89.25 409.45 89.0 411.25 88.75 L413.95 88.5 Q417.55 88.5 418.45 89.05 L418.7 89.7 Q418.7 90.7 417.95 90.9 L413.95 91.0 409.2 90.5 409.25 89.95 M433.2 82.45 L433.05 84.15 431.95 84.5 Q430.7 84.05 430.7 82.4 430.7 80.85 431.95 80.5 L432.95 81.25 433.2 82.45 M420.2 85.15 Q420.2 83.3 421.45 82.5 422.7 83.85 422.7 85.2 L422.55 87.65 421.45 88.0 Q420.2 86.8 420.2 85.15" fill="#000000" fill-rule="evenodd" stroke="none"/>
      <path d="M425.35 76.45 L424.95 76.05 417.45 75.5 413.25 75.75 409.7 76.25 409.7 77.0 423.5 77.75 425.05 77.5 425.2 76.7 425.35 76.45 M425.6 80.4 Q421.75 78.5 414.2 78.5 409.15 78.5 405.8 79.7 406.05 77.85 408.9 75.35 L410.5 74.05 410.95 74.5 431.35 73.9 Q429.5 75.35 427.25 76.5 426.3 77.0 426.05 77.6 425.7 78.3 425.7 80.15 L425.6 80.4" fill="#aeaeae" fill-rule="evenodd" stroke="none"/>
      <path d="M430.7 77.2 L432.9 75.65 434.2 84.75 Q434.2 88.0 430.95 90.15 L429.15 91.3 429.2 88.75 429.45 86.6 Q429.6 84.65 428.7 83.15 L428.2 82.4 Q427.1 79.85 430.7 77.2 M433.2 82.45 L432.95 81.25 431.95 80.5 Q430.7 80.85 430.7 82.4 430.7 84.05 431.95 84.5 L433.05 84.15 433.2 82.45" fill="#959595" fill-rule="evenodd" stroke="none"/>
      <path d="M401.75 92.9 L403.0 85.5 403.3 84.55 404.15 83.3 404.7 82.4 Q404.9 82.2 405.15 82.1 406.55 81.25 410.25 81.15 L420.45 81.15 Q426.85 81.15 427.2 86.7 L427.1 91.15 427.15 92.0 403.7 92.8 401.8 93.1 401.75 92.9 M409.25 89.95 L409.2 90.5 413.95 91.0 417.95 90.9 Q418.7 90.7 418.7 89.7 L418.45 89.05 Q417.55 88.5 413.95 88.5 L411.25 88.75 Q409.45 89.0 409.2 89.25 409.4 89.5 409.25 89.95 M407.2 84.0 Q406.75 83.35 406.0 83.0 404.75 84.0 404.75 85.5 404.75 86.75 406.0 88.0 L407.2 87.4 407.2 84.0 M420.2 85.15 Q420.2 86.8 421.45 88.0 L422.55 87.65 422.7 85.2 Q422.7 83.85 421.45 82.5 420.2 83.3 420.2 85.15" fill="#bbbbbb" fill-rule="evenodd" stroke="none"/>
      <path d="M401.05 93.35 L401.0 93.3 401.75 92.9 401.8 93.1 Q401.25 93.2 401.05 93.35" fill="#d9d9d9" fill-rule="evenodd" stroke="none"/>
      <path d="M168.85 50.65 L168.95 50.55 169.1 51.15 Q170.15 53.75 171.6 67.55 L173.05 84.05 173.1 84.7 172.9 85.45 172.8 85.8 172.75 85.85 Q172.0 87.4 169.6 90.25 166.1 94.5 164.85 94.5 L164.5 94.45 Q161.7 96.5 153.35 96.5 111.7 96.5 108.6 90.5 L108.6 61.65 108.8 61.35 Q109.05 61.05 109.65 61.0 L109.6 61.0 109.6 60.25 109.6 59.9 Q109.6 58.15 116.4 53.55 L122.6 49.6 Q122.7 48.9 123.1 48.75 L128.35 48.5 133.45 49.1 143.7 49.75 165.2 50.2 168.55 50.5 168.6 50.5 168.75 50.6 168.85 50.65 M158.6 64.7 L158.45 65.65 156.6 66.0 Q155.35 66.0 154.7 65.4 154.6 65.9 154.6 64.65 154.6 63.85 155.3 63.65 L156.6 63.5 158.35 63.75 158.45 63.9 158.6 64.7 M163.45 59.95 L163.6 60.7 163.35 61.65 163.1 61.75 Q164.75 66.95 165.25 73.8 165.6 78.1 165.6 88.45 L165.75 90.1 168.1 87.75 169.5 85.35 Q170.3 83.9 171.1 83.6 169.9 77.3 167.45 54.8 L165.9 56.85 163.4 59.9 163.2 60.1 163.35 60.15 163.45 59.95 M160.6 59.75 Q160.6 58.2 162.2 56.45 L165.6 52.75 133.25 51.5 Q133.5 51.1 132.55 51.05 131.35 50.95 124.45 51.2 L118.75 55.75 113.7 59.65 136.6 59.5 140.45 59.55 Q140.75 59.0 141.35 59.0 141.75 59.0 142.1 59.55 L160.6 59.9 160.6 59.75 M136.25 65.2 L136.45 65.25 Q137.45 65.5 137.35 65.8 L137.1 66.2 136.9 67.05 Q137.35 69.95 137.1 76.9 L137.0 87.5 Q137.9 87.65 138.05 87.85 L138.1 88.2 138.05 89.0 Q138.0 89.3 137.35 89.4 L129.85 89.5 Q119.95 89.5 117.2 88.5 L115.85 87.5 115.1 86.5 115.5 85.9 Q114.6 82.55 114.6 75.9 114.6 69.15 115.3 66.45 L115.2 66.4 115.1 65.25 117.65 64.75 120.85 64.5 135.6 65.1 135.85 65.0 136.25 65.2 M110.75 62.05 Q111.3 63.65 111.35 67.85 L111.1 78.9 111.1 87.9 110.95 89.75 Q111.35 90.9 114.2 91.65 120.6 93.35 141.95 93.7 140.25 87.9 140.0 79.3 L140.1 63.25 140.1 61.8 111.85 61.1 110.85 62.0 110.75 61.95 110.75 62.05 M151.55 70.15 L152.35 70.0 153.6 71.0 Q153.6 72.0 152.35 72.5 151.6 72.25 151.2 71.9 151.1 72.4 151.1 71.15 151.1 70.35 151.55 70.15 M147.35 70.0 L148.6 71.0 Q148.6 72.0 147.35 72.5 146.6 72.25 146.2 71.9 146.1 72.4 146.1 71.15 146.1 70.35 146.55 70.15 L147.35 70.0 M147.85 77.0 Q148.65 77.35 149.1 78.0 149.1 79.0 147.85 79.5 147.1 79.25 146.7 78.9 146.6 79.4 146.6 78.15 146.6 77.35 147.05 77.15 L147.85 77.0 M153.35 77.0 L154.6 78.0 Q154.6 79.0 153.35 79.5 152.6 79.25 152.2 78.9 152.1 79.4 152.1 78.15 152.1 77.35 152.55 77.15 L153.35 77.0 M134.8 67.5 L131.1 67.5 116.45 66.6 Q116.95 68.35 117.05 70.55 L117.1 75.95 117.0 85.05 Q117.9 85.15 119.1 85.75 120.6 86.5 121.85 86.5 L135.3 87.3 Q134.85 85.35 134.7 82.95 L134.6 76.95 134.6 70.4 134.8 67.5 M147.7 85.9 Q147.6 86.4 147.6 85.15 147.6 84.35 148.05 84.15 L148.85 84.0 Q149.65 84.35 150.1 85.0 150.1 86.0 148.85 86.5 L147.7 85.9 M152.6 88.5 Q155.6 88.5 155.6 89.7 L155.5 90.5 155.2 90.9 152.6 91.0 Q150.1 91.0 149.7 90.5 L149.6 89.25 Q150.35 88.5 152.6 88.5 M153.6 85.15 Q153.6 84.35 154.05 84.15 L154.85 84.0 Q155.65 84.35 156.1 85.0 156.1 86.0 154.85 86.5 154.1 86.25 153.7 85.9 153.6 86.4 153.6 85.15 M143.6 81.4 L143.5 93.7 152.85 93.75 Q161.45 93.75 163.05 91.4 163.6 90.6 163.4 89.5 L163.1 88.2 162.1 78.0 Q161.1 68.8 161.1 65.9 L161.3 61.9 142.85 61.8 Q143.4 64.6 143.6 70.15 143.8 75.75 143.6 81.4 M159.35 77.0 L160.6 78.0 Q160.6 79.0 159.35 79.5 158.6 79.25 158.2 78.9 158.1 79.4 158.1 78.15 158.1 77.35 158.55 77.15 L159.35 77.0 M160.1 71.0 Q160.1 72.0 158.85 72.5 158.1 72.25 157.7 71.9 157.6 72.4 157.6 71.15 157.6 70.35 158.05 70.15 L158.85 70.0 Q159.65 70.35 160.1 71.0 M160.85 86.5 L159.7 85.9 Q159.6 86.4 159.6 85.15 159.6 84.35 160.05 84.15 L160.85 84.0 Q161.65 84.35 162.1 85.0 162.1 86.0 160.85 86.5" fill="#000000" fill-rule="evenodd" stroke="none"/>
      <path d="M158.6 64.7 L158.45 63.9 158.35 63.75 156.6 63.5 155.3 63.65 Q154.6 63.85 154.6 64.65 154.6 65.9 154.7 65.4 155.35 66.0 156.6 66.0 L158.45 65.65 158.6 64.7 M153.35 77.0 L152.55 77.15 Q152.1 77.35 152.1 78.15 152.1 79.4 152.2 78.9 152.6 79.25 153.35 79.5 154.6 79.0 154.6 78.0 L153.35 77.0 M147.85 77.0 L147.05 77.15 Q146.6 77.35 146.6 78.15 146.6 79.4 146.7 78.9 147.1 79.25 147.85 79.5 149.1 79.0 149.1 78.0 148.65 77.35 147.85 77.0 M147.35 70.0 L146.55 70.15 Q146.1 70.35 146.1 71.15 146.1 72.4 146.2 71.9 146.6 72.25 147.35 72.5 148.6 72.0 148.6 71.0 L147.35 70.0 M151.55 70.15 Q151.1 70.35 151.1 71.15 151.1 72.4 151.2 71.9 151.6 72.25 152.35 72.5 153.6 72.0 153.6 71.0 L152.35 70.0 151.55 70.15 M160.85 86.5 Q162.1 86.0 162.1 85.0 161.65 84.35 160.85 84.0 L160.05 84.15 Q159.6 84.35 159.6 85.15 159.6 86.4 159.7 85.9 L160.85 86.5 M160.1 71.0 Q159.65 70.35 158.85 70.0 L158.05 70.15 Q157.6 70.35 157.6 71.15 157.6 72.4 157.7 71.9 158.1 72.25 158.85 72.5 160.1 72.0 160.1 71.0 M159.35 77.0 L158.55 77.15 Q158.1 77.35 158.1 78.15 158.1 79.4 158.2 78.9 158.6 79.25 159.35 79.5 160.6 79.0 160.6 78.0 L159.35 77.0 M143.6 81.4 Q143.8 75.75 143.6 70.15 143.4 64.6 142.85 61.8 L161.3 61.9 161.1 65.9 Q161.1 68.8 162.1 78.0 L163.1 88.2 163.4 89.5 Q163.6 90.6 163.05 91.4 161.45 93.75 152.85 93.75 L143.5 93.7 143.6 81.4 M153.6 85.15 Q153.6 86.4 153.7 85.9 154.1 86.25 154.85 86.5 156.1 86.0 156.1 85.0 155.65 84.35 154.85 84.0 L154.05 84.15 Q153.6 84.35 153.6 85.15 M152.6 88.5 Q150.35 88.5 149.6 89.25 L149.7 90.5 Q150.1 91.0 152.6 91.0 L155.2 90.9 155.5 90.5 155.6 89.7 Q155.6 88.5 152.6 88.5 M147.7 85.9 L148.85 86.5 Q150.1 86.0 150.1 85.0 149.65 84.35 148.85 84.0 L148.05 84.15 Q147.6 84.35 147.6 85.15 147.6 86.4 147.7 85.9" fill="#cccccc" fill-rule="evenodd" stroke="none"/>
      <path d="M160.6 59.75 L160.6 59.9 142.1 59.55 Q141.75 59.0 141.35 59.0 140.75 59.0 140.45 59.55 L136.6 59.5 113.7 59.65 118.75 55.75 124.45 51.2 Q131.35 50.95 132.55 51.05 133.5 51.1 133.25 51.5 L165.6 52.75 162.2 56.45 Q160.6 58.2 160.6 59.75" fill="#c4c4c4" fill-rule="evenodd" stroke="none"/>
      <path d="M163.4 59.9 L165.9 56.85 167.45 54.8 Q169.9 77.3 171.1 83.6 170.3 83.9 169.5 85.35 L168.1 87.75 165.75 90.1 165.6 88.45 Q165.6 78.1 165.25 73.8 164.75 66.95 163.1 61.75 L163.35 61.65 163.6 60.7 163.45 59.95 163.4 59.9" fill="#b7b7b7" fill-rule="evenodd" stroke="none"/>
      <path d="M110.85 62.0 L111.85 61.1 140.1 61.8 140.1 63.25 140.0 79.3 Q140.25 87.9 141.95 93.7 120.6 93.35 114.2 91.65 111.35 90.9 110.95 89.75 L111.1 87.9 111.1 78.9 111.35 67.85 Q111.3 63.65 110.75 62.05 L110.85 62.0 M136.25 65.2 L135.85 65.0 135.6 65.1 120.85 64.5 117.65 64.75 115.1 65.25 115.2 66.4 115.3 66.45 Q114.6 69.15 114.6 75.9 114.6 82.55 115.5 85.9 L115.1 86.5 115.85 87.5 117.2 88.5 Q119.95 89.5 129.85 89.5 L137.35 89.4 Q138.0 89.3 138.05 89.0 L138.1 88.2 138.05 87.85 Q137.9 87.65 137.0 87.5 L137.1 76.9 Q137.35 69.95 136.9 67.05 L137.1 66.2 137.35 65.8 Q137.45 65.5 136.45 65.25 L136.25 65.2" fill="#eeeeee" fill-rule="evenodd" stroke="none"/>
      <path d="M134.8 67.5 L134.6 70.4 134.6 76.95 134.7 82.95 Q134.85 85.35 135.3 87.3 L121.85 86.5 Q120.6 86.5 119.1 85.75 117.9 85.15 117.0 85.05 L117.1 75.95 117.05 70.55 Q116.95 68.35 116.45 66.6 L131.1 67.5 134.8 67.5" fill="#f0fcfd" fill-rule="evenodd" stroke="none"/>
      <path d="M365.8 138.3 L370.85 138.5 384.35 137.0 420.75 135.8 412.3 148.35 399.5 147.85 Q386.8 147.5 381.85 147.5 L357.4 147.6 359.3 146.05 Q364.3 141.55 365.8 138.3" fill="#ff7777" fill-rule="evenodd" stroke="none"/>
      <path d="M366.2 134.4 L379.1 132.95 404.35 131.5 423.35 132.15 423.85 131.5 Q425.55 131.5 426.05 132.5 L426.1 132.65 Q427.05 132.95 426.85 133.35 L426.35 133.85 426.55 134.6 Q428.8 137.95 429.35 151.3 429.75 160.2 429.35 169.25 L429.2 192.85 429.35 195.35 Q429.35 199.1 423.95 204.85 L420.0 209.15 420.15 209.35 Q420.2 209.85 419.05 210.15 L418.15 211.15 418.1 211.75 417.25 212.1 416.85 212.5 416.45 212.35 415.85 212.5 415.7 212.05 415.05 211.7 Q414.7 211.35 414.5 210.7 403.35 211.5 363.85 211.5 L353.9 211.05 352.85 211.5 352.65 210.85 350.6 210.25 Q349.85 209.85 350.0 209.35 L350.35 208.75 350.15 208.3 Q350.3 207.85 351.6 207.5 349.4 199.55 348.75 188.95 348.35 183.1 348.35 166.0 348.35 157.05 349.5 153.15 347.85 151.4 347.5 150.5 L347.35 150.5 347.35 149.0 347.6 148.8 Q348.7 145.85 354.75 140.65 L363.85 133.5 365.85 133.95 366.2 134.4 M365.8 138.3 Q364.3 141.55 359.3 146.05 L357.4 147.6 381.85 147.5 Q386.8 147.5 399.5 147.85 L412.3 148.35 420.75 135.8 384.35 137.0 370.85 138.5 365.8 138.3 M416.4 152.0 Q417.8 157.2 418.2 164.5 L418.35 181.35 418.25 202.25 420.45 199.25 425.6 192.75 Q422.55 182.6 422.15 167.4 L422.35 145.65 Q419.2 150.6 416.4 152.0 M410.55 152.0 L353.45 150.7 351.5 152.25 Q353.9 159.3 354.1 170.2 354.45 185.75 355.35 190.75 L355.35 193.1 359.75 191.7 Q366.45 189.65 367.75 189.5 L369.6 189.35 Q375.0 189.35 380.35 192.25 384.9 194.65 385.3 196.6 L385.35 196.6 Q386.7 196.6 386.35 201.05 386.35 203.95 385.8 205.55 L393.85 205.5 393.85 205.3 393.9 204.55 393.75 204.6 Q392.25 205.35 391.0 205.35 389.0 205.35 388.6 204.5 L388.6 203.6 Q388.6 202.55 389.5 201.15 L390.2 200.25 Q389.1 199.85 388.6 198.45 L388.35 196.5 Q388.35 195.5 388.85 193.65 L389.35 192.25 Q388.5 191.7 388.0 188.8 L387.6 185.2 387.65 183.25 Q388.1 181.6 390.35 181.6 394.2 181.6 394.85 185.1 L395.15 189.55 400.85 189.25 400.85 188.1 401.35 185.65 Q401.45 184.65 402.2 183.45 403.3 181.6 405.0 181.6 406.45 181.6 406.95 182.6 L407.35 184.0 407.35 191.85 Q407.85 191.85 411.25 197.25 L412.8 199.7 Q411.55 191.6 411.55 181.9 412.3 162.3 412.35 152.0 L412.3 152.0 410.55 152.0 M405.25 182.9 Q403.4 182.9 402.75 184.8 402.45 185.8 402.4 187.1 402.1 188.2 402.1 189.15 L402.0 190.25 395.1 190.85 394.6 190.85 394.5 190.85 394.45 190.8 393.9 190.5 393.85 190.15 393.95 189.85 Q393.5 188.6 393.25 186.15 392.95 182.9 391.5 182.9 L388.85 183.0 388.85 187.5 390.3 191.35 Q390.85 191.4 390.85 192.25 L390.25 194.0 Q389.6 195.25 389.6 196.35 389.6 197.65 392.5 199.4 L392.6 199.65 391.95 200.3 391.1 201.05 Q389.85 202.35 389.85 204.0 393.3 203.9 394.2 203.25 L394.35 203.15 394.5 202.85 Q395.1 203.05 395.1 203.55 L395.1 203.65 395.1 205.3 395.1 205.5 396.35 205.5 Q408.05 205.5 414.0 205.95 L413.3 202.6 406.8 193.1 406.75 193.1 406.6 192.8 Q405.9 191.2 406.0 186.95 406.1 182.9 405.25 182.9 M407.75 200.6 Q408.35 200.95 408.35 201.3 408.35 201.9 406.85 202.75 405.3 203.6 404.0 203.6 402.0 203.6 401.6 202.8 L401.6 201.95 Q401.6 199.35 403.1 199.35 403.6 199.35 403.85 199.85 L402.85 202.25 Q405.55 202.3 406.6 201.65 L407.75 200.6 M371.75 190.65 Q364.4 190.65 358.7 193.0 L355.35 194.65 355.35 202.95 356.75 202.85 Q358.6 202.85 359.95 203.45 L363.9 204.0 Q370.1 204.0 377.35 201.2 384.1 198.55 384.1 197.0 384.1 195.7 379.25 193.15 374.35 190.65 371.75 190.65 M391.75 194.65 L391.6 193.9 Q391.6 192.1 393.0 192.1 394.6 192.1 394.6 193.4 394.6 195.35 393.25 195.35 392.15 195.35 391.75 194.65 M384.75 198.35 Q383.25 200.05 378.25 202.15 370.75 205.35 363.85 205.35 L358.85 204.45 355.35 203.7 355.35 206.85 375.85 206.0 384.45 205.55 385.1 201.05 384.75 198.35 M403.5 191.6 Q405.1 191.6 405.1 193.05 405.1 194.35 403.75 194.35 402.6 194.35 402.35 193.75 L402.35 193.05 Q402.35 191.6 403.5 191.6" fill="#000000" fill-rule="evenodd" stroke="none"/>
      <path d="M410.55 152.0 L412.3 152.0 412.35 152.0 Q412.3 162.3 411.55 181.9 411.55 191.6 412.8 199.7 L411.25 197.25 Q407.85 191.85 407.35 191.85 L407.35 184.0 406.95 182.6 Q406.45 181.6 405.0 181.6 403.3 181.6 402.2 183.45 401.45 184.65 401.35 185.65 L400.85 188.1 400.85 189.25 395.15 189.55 394.85 185.1 Q394.2 181.6 390.35 181.6 388.1 181.6 387.65 183.25 L387.6 185.2 388.0 188.8 Q388.5 191.7 389.35 192.25 L388.85 193.65 Q388.35 195.5 388.35 196.5 L388.6 198.45 Q389.1 199.85 390.2 200.25 L389.5 201.15 Q388.6 202.55 388.6 203.6 L388.6 204.5 Q389.0 205.35 391.0 205.35 392.25 205.35 393.75 204.6 L393.9 204.55 393.85 205.3 393.85 205.5 385.8 205.55 Q386.35 203.95 386.35 201.05 386.7 196.6 385.35 196.6 L385.3 196.6 Q384.9 194.65 380.35 192.25 375.0 189.35 369.6 189.35 L367.75 189.5 Q366.45 189.65 359.75 191.7 L355.35 193.1 355.35 190.75 Q354.45 185.75 354.1 170.2 353.9 159.3 351.5 152.25 L353.45 150.7 410.55 152.0 M416.4 152.0 Q419.2 150.6 422.35 145.65 L422.15 167.4 Q422.55 182.6 425.6 192.75 L420.45 199.25 418.25 202.25 418.35 181.35 418.2 164.5 Q417.8 157.2 416.4 152.0 M405.85 155.25 Q405.85 154.7 405.25 154.35 404.1 155.5 402.95 158.15 L401.6 161.1 400.8 160.3 396.0 155.6 395.4 155.75 395.35 156.3 Q395.35 157.5 400.55 162.85 L397.75 166.7 Q395.1 170.45 395.1 171.15 395.1 171.7 395.75 171.85 397.4 169.25 401.75 164.05 L407.25 169.35 407.85 168.85 Q406.35 166.3 402.9 162.5 405.85 158.25 405.85 155.25 M379.0 180.9 L376.85 181.35 361.35 182.15 361.4 182.5 368.85 182.85 Q390.85 181.35 390.85 180.4 390.85 179.85 388.6 179.85 L387.0 180.0 379.0 180.9 M378.65 173.75 L378.35 173.5 378.35 173.1 Q379.1 172.25 379.6 172.75 L379.5 173.4 Q379.4 173.65 378.65 173.75 M377.1 173.15 L377.35 175.4 Q378.05 177.6 380.25 177.6 382.6 177.6 382.6 176.15 L382.5 175.75 381.85 175.6 Q381.9 176.25 379.4 176.25 L378.65 175.25 Q379.65 175.1 380.3 174.0 380.85 173.15 380.85 172.55 381.05 171.35 379.25 171.35 377.1 171.35 377.1 173.15 M369.1 172.9 L369.15 173.1 369.1 173.3 371.5 179.35 Q371.95 179.35 372.1 178.75 L371.75 176.6 371.85 176.6 373.5 176.85 375.35 178.1 376.1 177.5 Q376.0 177.05 373.25 175.0 374.1 174.4 374.1 173.25 374.8 171.6 372.1 171.6 L370.25 172.0 Q369.1 172.45 369.1 172.9 M372.85 172.9 L372.85 173.4 Q371.9 174.15 371.3 174.65 L370.8 173.45 372.85 172.9 M368.1 177.65 L368.0 177.25 367.35 177.1 Q366.15 177.9 365.35 177.9 364.4 177.9 364.1 177.0 367.35 176.0 367.35 174.3 367.9 173.1 364.85 173.1 362.85 173.1 362.85 176.0 362.85 176.95 363.15 177.75 363.8 179.35 365.35 179.35 L366.85 178.75 368.1 177.65 M364.5 174.5 L366.0 174.6 365.65 174.9 Q365.2 175.5 364.1 175.5 L364.1 175.0 364.5 174.5 M371.75 156.0 L371.1 155.85 363.1 156.95 Q356.35 158.2 356.35 159.9 356.35 160.45 357.0 160.6 358.1 159.8 362.6 158.85 L362.6 161.25 Q363.35 163.0 363.7 166.55 364.1 170.2 364.75 171.85 L365.25 171.65 365.35 169.85 Q364.55 159.55 363.45 158.7 L365.5 158.3 Q371.85 157.2 371.85 156.4 L371.75 156.0 M379.25 156.4 Q382.35 156.4 382.35 157.9 382.35 159.35 380.1 161.35 378.1 163.15 375.55 163.55 L374.3 157.45 Q377.2 156.4 379.25 156.4 M385.6 177.5 L385.6 177.25 Q385.6 176.0 386.0 176.0 387.15 176.0 387.65 176.5 L387.6 176.75 386.85 177.5 385.6 177.5 M387.1 174.05 L387.0 174.5 Q384.35 174.55 384.35 177.05 L384.35 178.0 Q384.65 178.85 386.35 178.85 387.25 178.85 388.6 177.85 L389.85 176.65 Q387.15 171.6 386.1 171.6 384.6 171.6 384.6 172.5 384.6 173.2 385.25 173.35 386.3 172.1 387.1 174.05 M384.25 169.6 L384.35 169.05 Q384.35 168.3 381.55 166.15 L378.4 163.85 Q379.85 163.8 381.8 161.25 383.6 158.95 383.6 157.9 384.05 155.1 379.5 155.1 L377.75 155.15 Q373.1 155.25 373.1 156.9 373.1 157.45 373.75 157.6 L374.1 157.5 Q373.6 158.0 373.6 159.05 L374.3 163.7 373.25 163.65 373.1 164.15 Q373.1 164.45 374.5 164.8 375.2 168.45 375.75 169.6 L376.35 169.25 376.35 167.6 375.85 165.05 Q378.8 165.6 380.35 166.75 L381.95 168.45 Q383.2 169.85 383.75 169.85 384.35 169.85 384.25 169.6 M390.75 170.1 Q390.1 170.1 390.1 171.0 392.65 178.35 392.75 178.35 393.2 178.35 393.35 177.75 391.4 170.1 390.75 170.1 M391.1 164.8 Q391.05 155.6 389.75 155.6 389.1 155.6 389.1 156.75 389.1 165.85 390.5 169.1 L391.0 168.85 391.1 164.8 M361.0 173.75 L359.85 173.6 Q358.2 173.65 357.05 175.05 356.1 176.2 356.1 177.15 L356.5 178.65 Q357.3 180.1 359.35 180.1 361.85 180.1 361.85 179.05 361.85 178.55 361.25 178.35 L358.25 178.45 Q357.35 177.9 357.35 177.1 357.35 176.4 359.25 175.35 L361.1 174.15 361.0 173.75" fill="#ff4444" fill-rule="evenodd" stroke="none"/>
      <path d="M405.85 155.25 Q405.85 158.25 402.9 162.5 406.35 166.3 407.85 168.85 L407.25 169.35 401.75 164.05 Q397.4 169.25 395.75 171.85 395.1 171.7 395.1 171.15 395.1 170.45 397.75 166.7 L400.55 162.85 Q395.35 157.5 395.35 156.3 L395.4 155.75 396.0 155.6 400.8 160.3 401.6 161.1 402.95 158.15 Q404.1 155.5 405.25 154.35 405.85 154.7 405.85 155.25 M391.1 164.8 L391.0 168.85 390.5 169.1 Q389.1 165.85 389.1 156.75 389.1 155.6 389.75 155.6 391.05 155.6 391.1 164.8 M390.75 170.1 Q391.4 170.1 393.35 177.75 393.2 178.35 392.75 178.35 392.65 178.35 390.1 171.0 390.1 170.1 390.75 170.1 M384.25 169.6 Q384.35 169.85 383.75 169.85 383.2 169.85 381.95 168.45 L380.35 166.75 Q378.8 165.6 375.85 165.05 L376.35 167.6 376.35 169.25 375.75 169.6 Q375.2 168.45 374.5 164.8 373.1 164.45 373.1 164.15 L373.25 163.65 374.3 163.7 373.6 159.05 Q373.6 158.0 374.1 157.5 L373.75 157.6 Q373.1 157.45 373.1 156.9 373.1 155.25 377.75 155.15 L379.5 155.1 Q384.05 155.1 383.6 157.9 383.6 158.95 381.8 161.25 379.85 163.8 378.4 163.85 L381.55 166.15 Q384.35 168.3 384.35 169.05 L384.25 169.6 M387.1 174.05 Q386.3 172.1 385.25 173.35 384.6 173.2 384.6 172.5 384.6 171.6 386.1 171.6 387.15 171.6 389.85 176.65 L388.6 177.85 Q387.25 178.85 386.35 178.85 384.65 178.85 384.35 178.0 L384.35 177.05 Q384.35 174.55 387.0 174.5 L387.1 174.05 M385.6 177.5 L386.85 177.5 387.6 176.75 387.65 176.5 Q387.15 176.0 386.0 176.0 385.6 176.0 385.6 177.25 L385.6 177.5 M379.25 156.4 Q377.2 156.4 374.3 157.45 L375.55 163.55 Q378.1 163.15 380.1 161.35 382.35 159.35 382.35 157.9 382.35 156.4 379.25 156.4 M371.75 156.0 L371.85 156.4 Q371.85 157.2 365.5 158.3 L363.45 158.7 Q364.55 159.55 365.35 169.85 L365.25 171.65 364.75 171.85 Q364.1 170.2 363.7 166.55 363.35 163.0 362.6 161.25 L362.6 158.85 Q358.1 159.8 357.0 160.6 356.35 160.45 356.35 159.9 356.35 158.2 363.1 156.95 L371.1 155.85 371.75 156.0 M364.5 174.5 L364.1 175.0 364.1 175.5 Q365.2 175.5 365.65 174.9 L366.0 174.6 364.5 174.5 M368.1 177.65 L366.85 178.75 365.35 179.35 Q363.8 179.35 363.15 177.75 362.85 176.95 362.85 176.0 362.85 173.1 364.85 173.1 367.9 173.1 367.35 174.3 367.35 176.0 364.1 177.0 364.4 177.9 365.35 177.9 366.15 177.9 367.35 177.1 L368.0 177.25 368.1 177.65 M372.85 172.9 L370.8 173.45 371.3 174.65 Q371.9 174.15 372.85 173.4 L372.85 172.9 M369.1 172.9 Q369.1 172.45 370.25 172.0 L372.1 171.6 Q374.8 171.6 374.1 173.25 374.1 174.4 373.25 175.0 376.0 177.05 376.1 177.5 L375.35 178.1 373.5 176.85 371.85 176.6 371.75 176.6 372.1 178.75 Q371.95 179.35 371.5 179.35 L369.1 173.3 369.15 173.1 369.1 172.9 M377.1 173.15 Q377.1 171.35 379.25 171.35 381.05 171.35 380.85 172.55 380.85 173.15 380.3 174.0 379.65 175.1 378.65 175.25 L379.4 176.25 Q381.9 176.25 381.85 175.6 L382.5 175.75 382.6 176.15 Q382.6 177.6 380.25 177.6 378.05 177.6 377.35 175.4 L377.1 173.15 M378.65 173.75 Q379.4 173.65 379.5 173.4 L379.6 172.75 Q379.1 172.25 378.35 173.1 L378.35 173.5 378.65 173.75 M379.0 180.9 L387.0 180.0 388.6 179.85 Q390.85 179.85 390.85 180.4 390.85 181.35 368.85 182.85 L361.4 182.5 361.35 182.15 376.85 181.35 379.0 180.9 M361.0 173.75 L361.1 174.15 359.25 175.35 Q357.35 176.4 357.35 177.1 357.35 177.9 358.25 178.45 L361.25 178.35 Q361.85 178.55 361.85 179.05 361.85 180.1 359.35 180.1 357.3 180.1 356.5 178.65 L356.1 177.15 Q356.1 176.2 357.05 175.05 358.2 173.65 359.85 173.6 L361.0 173.75" fill="#57ff44" fill-rule="evenodd" stroke="none"/>
      <path d="M407.75 200.6 L406.6 201.65 Q405.55 202.3 402.85 202.25 L403.85 199.85 Q403.6 199.35 403.1 199.35 401.6 199.35 401.6 201.95 L401.6 202.8 Q402.0 203.6 404.0 203.6 405.3 203.6 406.85 202.75 408.35 201.9 408.35 201.3 408.35 200.95 407.75 200.6 M405.25 182.9 Q406.1 182.9 406.0 186.95 405.9 191.2 406.6 192.8 L406.75 193.1 406.8 193.1 413.3 202.6 414.0 205.95 Q408.05 205.5 396.35 205.5 L395.1 205.5 395.1 205.3 395.1 203.65 395.1 203.55 Q395.1 203.05 394.5 202.85 L394.35 203.15 394.2 203.25 Q393.3 203.9 389.85 204.0 389.85 202.35 391.1 201.05 L391.95 200.3 392.6 199.65 392.5 199.4 Q389.6 197.65 389.6 196.35 389.6 195.25 390.25 194.0 L390.85 192.25 Q390.85 191.4 390.3 191.35 L388.85 187.5 388.85 183.0 391.5 182.9 Q392.95 182.9 393.25 186.15 393.5 188.6 393.95 189.85 L393.85 190.15 393.9 190.5 394.45 190.8 394.5 190.85 394.6 190.85 395.1 190.85 402.0 190.25 402.1 189.15 Q402.1 188.2 402.4 187.1 402.45 185.8 402.75 184.8 403.4 182.9 405.25 182.9 M391.75 194.65 Q392.15 195.35 393.25 195.35 394.6 195.35 394.6 193.4 394.6 192.1 393.0 192.1 391.6 192.1 391.6 193.9 L391.75 194.65 M403.5 191.6 Q402.35 191.6 402.35 193.05 L402.35 193.75 Q402.6 194.35 403.75 194.35 405.1 194.35 405.1 193.05 405.1 191.6 403.5 191.6" fill="#fff7f7" fill-rule="evenodd" stroke="none"/>
      <path d="M371.75 190.65 Q374.35 190.65 379.25 193.15 384.1 195.7 384.1 197.0 384.1 198.55 377.35 201.2 370.1 204.0 363.9 204.0 L359.95 203.45 Q358.6 202.85 356.75 202.85 L355.35 202.95 355.35 194.65 358.7 193.0 Q364.4 190.65 371.75 190.65" fill="#e9ffe6" fill-rule="evenodd" stroke="none"/>
      <path d="M384.75 198.35 L385.1 201.05 384.45 205.55 375.85 206.0 355.35 206.85 355.35 203.7 358.85 204.45 363.85 205.35 Q370.75 205.35 378.25 202.15 383.25 200.05 384.75 198.35" fill="#d9ffd5" fill-rule="evenodd" stroke="none"/>
      <path d="M514.35 146.5 Q552.75 146.5 564.15 155.75 567.85 158.8 568.45 162.7 568.75 164.75 568.35 167.0 568.35 167.85 569.15 169.9 569.4 171.7 567.35 172.9 L564.8 181.65 Q561.15 193.45 561.1 194.5 559.85 195.25 558.85 195.5 L558.6 195.2 Q555.85 197.1 548.9 199.25 535.35 203.5 517.85 203.5 498.55 203.5 484.9 199.5 474.85 196.6 472.85 193.2 469.0 191.7 466.5 182.15 L464.5 170.5 Q464.5 167.7 465.0 165.8 464.5 164.6 464.5 163.25 464.5 161.05 467.95 158.25 471.65 155.3 477.9 152.75 493.4 146.5 514.35 146.5 M479.15 168.25 Q487.9 171.25 497.35 171.25 559.35 171.0 560.85 170.5 L562.85 169.4 563.25 168.5 563.35 166.6 Q563.35 162.9 563.0 162.05 561.9 159.2 556.9 157.3 543.1 152.0 496.1 152.0 476.5 155.5 469.6 163.75 473.2 166.25 479.15 168.25 M468.7 169.8 Q471.9 181.9 477.35 190.5 L477.35 190.55 Q479.2 192.1 481.8 193.25 492.4 198.0 517.5 198.0 541.15 198.0 547.7 194.25 L551.15 191.65 Q552.95 190.55 556.4 190.5 L556.35 189.75 Q556.35 186.85 560.15 176.25 L560.7 174.85 Q550.75 176.5 528.85 176.5 491.9 176.5 477.15 173.0 471.75 171.7 468.7 169.8" fill="#000000" fill-rule="evenodd" stroke="none"/>
      <path d="M468.7 169.8 Q471.75 171.7 477.15 173.0 491.9 176.5 528.85 176.5 550.75 176.5 560.7 174.85 L560.15 176.25 Q556.35 186.85 556.35 189.75 L556.4 190.5 Q552.95 190.55 551.15 191.65 L547.7 194.25 Q541.15 198.0 517.5 198.0 492.4 198.0 481.8 193.25 479.2 192.1 477.35 190.55 L477.35 190.5 Q471.9 181.9 468.7 169.8" fill="#a2ffa2" fill-rule="evenodd" stroke="none"/>
      <path d="M479.15 168.25 Q473.2 166.25 469.6 163.75 476.5 155.5 496.1 152.0 543.1 152.0 556.9 157.3 561.9 159.2 563.0 162.05 563.35 162.9 563.35 166.6 L563.25 168.5 562.85 169.4 560.85 170.5 Q559.35 171.0 497.35 171.25 487.9 171.25 479.15 168.25" fill="#ddffdd" fill-rule="evenodd" stroke="none"/>
      <path d="M183.8 198.25 Q185.35 197.95 185.35 195.85 L185.5 195.1 Q185.45 194.5 184.1 194.0 180.0 192.5 164.85 192.5 163.05 192.5 162.65 193.0 162.35 193.4 162.35 195.35 L162.0 196.0 Q161.8 196.6 162.4 197.1 164.25 198.5 173.85 198.5 L183.8 198.25 M189.8 206.25 Q191.35 205.95 191.35 203.85 L191.5 203.35 Q191.55 202.9 190.85 202.55 188.7 201.5 179.85 201.5 L173.45 201.95 Q168.85 202.5 168.35 203.0 168.45 203.8 167.75 204.8 167.2 205.65 167.45 205.9 L179.85 206.5 189.8 206.25 M208.05 187.85 Q205.85 191.95 203.1 199.25 198.7 211.0 197.7 215.75 187.6 215.3 148.45 214.6 152.9 207.65 157.5 188.5 L157.5 188.45 159.35 188.5 Q195.4 188.5 208.05 187.85" fill="#c8c8c8" fill-rule="evenodd" stroke="none"/>
      <path d="M183.8 198.25 L173.85 198.5 Q164.25 198.5 162.4 197.1 161.8 196.6 162.0 196.0 L162.35 195.35 Q162.35 193.4 162.65 193.0 163.05 192.5 164.85 192.5 180.0 192.5 184.1 194.0 185.45 194.5 185.5 195.1 L185.35 195.85 Q185.35 197.95 183.8 198.25 M215.0 187.15 Q213.2 192.15 202.4 218.45 L202.65 219.5 Q202.65 219.95 201.7 220.15 L201.35 221.0 199.85 221.5 198.75 220.35 174.35 220.5 142.85 219.55 Q141.4 219.3 141.45 218.8 141.45 218.35 140.75 218.25 140.5 219.25 140.5 216.75 L140.5 216.45 140.5 215.75 Q145.5 207.25 149.5 199.25 150.15 198.0 151.75 191.05 152.5 187.65 153.5 185.7 L153.4 185.3 Q153.5 184.85 154.15 184.5 L155.0 183.5 155.45 184.0 Q158.5 183.1 165.85 183.0 165.85 182.5 189.35 182.5 204.95 182.5 211.5 183.1 212.2 182.5 212.85 182.5 214.6 182.5 215.05 183.3 L215.2 183.65 Q216.25 183.95 216.0 184.35 L215.35 184.85 Q215.35 185.4 216.15 186.35 216.2 186.85 215.0 187.15 M208.05 187.85 Q195.4 188.5 159.35 188.5 L157.5 188.45 157.5 188.5 Q152.9 207.65 148.45 214.6 187.6 215.3 197.7 215.75 198.7 211.0 203.1 199.25 205.85 191.95 208.05 187.85 M189.8 206.25 L179.85 206.5 167.45 205.9 Q167.2 205.65 167.75 204.8 168.45 203.8 168.35 203.0 168.85 202.5 173.45 201.95 L179.85 201.5 Q188.7 201.5 190.85 202.55 191.55 202.9 191.5 203.35 L191.35 203.85 Q191.35 205.95 189.8 206.25" fill="#000000" fill-rule="evenodd" stroke="none"/>
      <path d="M227.35 153.5 L228.7 153.7 228.35 154.25 215.8 162.8 Q207.55 168.45 205.85 171.15 L203.85 170.7 215.5 161.1 Q225.1 153.5 227.35 153.5" fill="#c4c4c4" fill-rule="evenodd" stroke="none"/>
      <path d="M236.35 153.25 Q236.35 154.5 211.7 172.7 L217.4 174.75 Q223.1 177.15 226.4 180.0 229.35 182.5 229.35 184.35 229.35 187.25 228.35 189.4 L228.35 201.25 228.0 201.45 Q224.7 208.5 190.85 208.5 165.6 208.5 152.9 202.55 148.4 200.45 146.1 197.9 144.35 195.95 144.35 194.6 L144.55 192.45 144.35 190.0 Q144.35 187.7 145.0 186.1 144.35 184.95 144.35 183.75 144.35 178.7 156.9 173.5 168.95 168.5 179.35 168.5 191.05 168.5 200.65 170.1 200.35 169.45 200.35 168.35 200.35 166.1 212.65 156.75 224.8 147.5 227.35 147.5 229.65 147.5 233.15 150.0 236.35 152.3 236.35 153.25 M227.35 153.5 Q225.1 153.5 215.5 161.1 L203.85 170.7 205.85 171.15 Q207.55 168.45 215.8 162.8 L228.35 154.25 228.7 153.7 227.35 153.5 M154.7 180.3 L153.15 181.1 154.85 180.65 Q161.15 179.25 183.85 177.0 L189.35 176.5 Q203.2 176.5 215.05 181.5 220.3 183.7 223.6 186.15 L224.35 184.0 Q221.15 183.0 218.2 180.85 215.0 178.55 212.55 177.6 203.05 174.0 171.1 174.0 168.3 174.0 159.7 177.95 156.85 179.25 154.7 180.3 M154.45 187.2 Q157.4 188.45 161.65 189.9 171.75 193.25 178.1 193.25 211.85 193.0 213.1 192.25 L214.85 191.5 219.35 190.45 213.2 187.65 Q200.1 181.75 194.1 181.75 170.4 181.75 160.05 184.65 157.75 185.3 154.75 186.6 L153.95 186.95 154.45 187.2 M150.2 193.3 Q152.7 196.0 154.8 197.25 164.25 203.0 190.75 203.0 218.7 203.0 221.5 200.25 L221.75 198.35 Q221.8 197.7 223.65 197.55 223.4 196.05 223.4 194.2 215.05 198.5 195.35 198.5 170.15 198.5 155.9 193.25 151.95 191.8 149.35 190.2 L149.35 192.5 150.2 193.3" fill="#000000" fill-rule="evenodd" stroke="none"/>
      <path d="M154.75 186.6 Q157.75 185.3 160.05 184.65 170.4 181.75 194.1 181.75 200.1 181.75 213.2 187.65 L219.35 190.45 214.85 191.5 213.1 192.25 Q211.85 193.0 178.1 193.25 171.75 193.25 161.65 189.9 157.4 188.45 154.45 187.2 L154.75 186.6" fill="#c8c8c8" fill-rule="evenodd" stroke="none"/>
      <path d="M154.85 180.65 L154.7 180.3 Q156.85 179.25 159.7 177.95 168.3 174.0 171.1 174.0 203.05 174.0 212.55 177.6 215.0 178.55 218.2 180.85 221.15 183.0 224.35 184.0 L223.6 186.15 Q220.3 183.7 215.05 181.5 203.2 176.5 189.35 176.5 L183.85 177.0 Q161.15 179.25 154.85 180.65" fill="#aeaeae" fill-rule="evenodd" stroke="none"/>
      <path d="M150.2 193.3 L149.35 192.5 149.35 190.2 Q151.95 191.8 155.9 193.25 170.15 198.5 195.35 198.5 215.05 198.5 223.4 194.2 223.4 196.05 223.65 197.55 221.8 197.7 221.75 198.35 L221.5 200.25 Q218.7 203.0 190.75 203.0 164.25 203.0 154.8 197.25 152.7 196.0 150.2 193.3" fill="#999999" fill-rule="evenodd" stroke="none"/>
    </g>
  </defs>
</svg>
