<?xml version="1.0" encoding="UTF-8" standalone="no"?>
<svg xmlns:xlink="http://www.w3.org/1999/xlink" height="842.55px" width="1337.95px" xmlns="http://www.w3.org/2000/svg">
  <g transform="matrix(1, 0, 0, 1, 407.45, 285.05)">
    <use height="4.5" transform="matrix(5.4867, 0.0, 0.0, 81.5667, 3.2875, 23.0167)" width="99.75" xlink:href="#shape0"/>
    <use height="483.5" transform="matrix(1.0, 0.0, 0.0, 1.0, -29.0, -23.0)" width="591.35" xlink:href="#shape1"/>
  </g>
  <defs>
    <g id="shape0" transform="matrix(1, 0, 0, 1, 49.85, -2.5)">
      <path d="M49.9 7.0 L-49.85 7.0 -49.85 2.5 49.9 2.5 49.9 7.0" fill="#ffffff" fill-rule="evenodd" stroke="none"/>
    </g>
    <g id="shape1" transform="matrix(1, 0, 0, 1, 29.0, 23.0)">
      <path d="M431.15 222.5 L429.8 225.0 424.4 235.0 419.1 245.0 416.25 250.55 415.9 251.1 414.3 254.0 413.8 255.0 413.75 255.0 413.15 256.2 408.6 264.65 408.4 265.0 403.1 275.0 400.1 280.85 397.95 285.0 397.15 286.55 397.0 286.9 392.9 295.0 387.85 305.0 382.85 315.0 378.1 324.45 368.65 324.25 358.75 324.1 358.55 324.1 352.8 324.05 348.8 324.0 338.85 323.9 328.9 323.85 318.95 323.75 309.0 323.7 299.0 323.65 289.05 323.6 279.05 323.55 275.0 323.5 269.05 323.5 259.05 323.55 249.05 323.55 239.05 323.6 229.3 323.6 280.8 222.5 431.15 222.5 M275.25 222.5 L275.1 222.8 274.6 222.55 274.5 222.5 274.6 222.5 275.25 222.5 M265.25 222.5 L255.1 241.85 252.8 246.0 Q246.25 257.95 239.1 271.85 L232.4 285.0 216.35 316.9 214.45 316.85 214.45 316.7 214.45 316.65 214.4 316.5 214.25 316.35 214.0 316.75 212.85 316.6 203.0 316.3 193.1 316.15 188.55 316.1 183.2 316.05 182.8 316.05 173.25 315.95 163.3 315.85 153.3 315.8 143.35 315.7 133.4 315.65 123.45 315.6 121.0 315.6 113.45 315.55 105.0 315.5 103.45 315.5 93.45 315.55 83.45 315.55 73.45 315.6 63.45 315.6 59.3 315.6 105.85 222.5 265.25 222.5 M91.45 222.5 L90.05 225.0 84.45 235.0 79.0 245.0 73.7 255.0 69.1 263.85 68.5 265.0 63.4 275.0 58.7 284.35 58.6 284.5 58.35 285.0 53.35 295.0 48.3 305.0 46.35 308.9 44.4 308.85 37.25 308.65 30.0 308.55 27.5 308.5 27.3 308.5 17.3 308.6 7.25 308.65 -0.65 308.75 -1.0 308.5 -1.0 222.5 91.45 222.5 M-1.0 318.55 L1.75 318.6 11.7 318.8 21.6 318.95 30.0 319.05 31.25 319.1 30.0 321.6 28.65 324.35 4.75 372.1 -1.0 383.5 -1.0 318.55 M-1.0 405.0 L4.05 405.0 4.1 404.95 42.7 327.75 46.7 327.85 56.6 328.0 66.5 328.2 76.45 328.35 86.35 328.5 96.25 328.6 106.2 328.75 116.15 328.85 121.0 328.9 126.1 328.95 136.05 329.05 146.0 329.1 155.95 329.15 165.95 329.2 175.9 329.25 176.2 329.25 181.95 329.3 185.9 329.3 195.9 329.3 200.15 329.3 197.3 335.0 192.3 345.0 187.3 355.0 182.3 365.0 177.3 375.0 174.75 380.1 172.35 385.0 167.2 395.0 162.45 404.0 161.9 405.0 178.05 405.0 212.7 335.75 222.25 335.95 232.15 336.1 242.05 336.25 252.0 336.4 261.9 336.55 271.85 336.7 281.75 336.8 291.7 336.9 301.65 337.0 311.6 337.1 321.6 337.15 331.55 337.2 341.5 337.25 346.2 337.25 351.5 337.3 351.95 337.3 361.5 337.3 361.65 337.3 335.75 389.1 328.2 404.0 327.65 405.0 343.55 405.0 373.7 344.75 377.35 344.85 387.25 345.0 391.0 345.05 393.45 345.1 397.15 345.2 407.1 345.35 417.0 345.5 426.95 345.6 436.85 345.75 446.8 345.85 456.75 345.95 466.7 346.05 476.65 346.1 486.6 346.15 496.6 346.2 506.55 346.25 507.2 346.25 512.95 346.3 516.55 346.3 521.65 346.3 517.3 355.0 512.45 364.65 512.3 365.0 507.3 375.0 502.3 385.0 497.3 395.0 495.75 398.1 492.85 404.0 492.3 405.0 508.05 405.0 533.7 353.75 542.35 353.95 549.95 354.05 549.95 412.0 -1.0 412.0 -1.0 405.0 M549.95 350.7 L549.8 350.7 549.95 350.6 549.95 350.7 M549.95 321.75 L549.9 321.4 549.95 321.25 549.95 321.75 M549.95 309.8 L538.1 333.4 533.7 333.3 523.8 333.15 519.55 333.1 513.85 333.05 513.8 333.05 503.9 332.95 493.95 332.85 484.0 332.8 474.0 332.7 464.05 332.65 454.05 332.6 444.1 332.55 436.0 332.5 434.15 332.5 424.1 332.55 414.1 332.55 404.1 332.6 394.1 332.6 390.3 332.6 390.75 331.7 390.3 332.6 446.3 222.5 549.95 222.5 549.95 309.8 M387.7 326.0 L387.8 326.05 387.75 326.1 387.35 325.9 387.7 326.0 M365.4 329.8 L365.4 329.55 365.45 329.55 365.75 329.55 371.1 329.7 371.15 329.7 371.1 329.95 365.6 329.8 365.4 329.8 M383.8 324.7 L384.05 324.25 384.25 324.35 384.0 324.75 383.8 324.7 M531.1 338.7 L531.1 338.95 530.6 338.95 525.4 338.8 525.45 338.55 530.7 338.7 531.1 338.7 M54.45 319.4 L54.4 319.9 54.4 319.4 54.45 319.4 M56.8 309.05 L56.75 309.1 56.35 308.9 56.8 309.05 M39.65 312.85 Q39.8 312.7 40.1 312.7 L40.1 312.95 39.6 312.95 39.65 312.85 M34.4 312.55 L34.45 312.55 34.85 312.85 34.4 312.8 34.4 312.55 M1.5 312.2 L1.5 311.7 1.5 312.2 M226.75 317.1 L226.35 316.9 226.8 317.05 226.75 317.1 M220.1 320.95 L220.15 320.95 219.65 321.95 219.6 321.95 220.1 320.95 M204.4 320.8 L204.45 320.55 210.1 320.7 210.1 320.95 204.4 320.8" fill="#443b50" fill-rule="evenodd" stroke="none"/>
      <path d="M77.0 217.5 L77.0 -16.95 502.05 -16.95 502.05 217.5 502.05 217.55 77.0 217.55 77.0 217.5" fill="url(#gradient0)" fill-rule="evenodd" stroke="none"/>
      <path d="M280.8 222.5 L229.3 323.6 239.05 323.6 249.05 323.55 259.05 323.55 269.05 323.5 275.0 323.5 279.05 323.55 289.05 323.6 299.0 323.65 309.0 323.7 318.95 323.75 328.9 323.85 338.85 323.9 348.8 324.0 352.8 324.05 358.55 324.1 358.75 324.1 368.65 324.25 378.1 324.45 382.85 315.0 387.85 305.0 392.9 295.0 397.0 286.9 397.15 286.55 397.95 285.0 400.1 280.85 403.1 275.0 408.4 265.0 408.6 264.65 413.15 256.2 413.75 255.0 413.8 255.0 414.3 254.0 415.9 251.1 416.25 250.55 419.1 245.0 424.4 235.0 429.8 225.0 431.15 222.5 446.3 222.5 390.3 332.6 390.75 331.7 390.3 332.6 394.1 332.6 404.1 332.6 414.1 332.55 424.1 332.55 434.15 332.5 436.0 332.5 444.1 332.55 454.05 332.6 464.05 332.65 474.0 332.7 484.0 332.8 493.95 332.85 503.9 332.95 513.8 333.05 513.85 333.05 519.55 333.1 523.8 333.15 533.7 333.3 538.1 333.4 549.95 309.8 550.95 307.85 550.95 319.25 549.95 321.25 549.9 321.4 549.95 321.75 550.0 321.85 Q550.45 324.35 550.5 328.65 L550.95 327.75 550.95 340.25 550.3 341.55 550.3 341.6 550.95 341.6 550.95 346.25 550.25 346.25 550.1 350.5 549.95 350.6 549.8 350.7 549.95 350.7 550.95 350.7 550.95 354.1 549.95 354.05 542.35 353.95 533.7 353.75 508.05 405.0 492.3 405.0 492.85 404.0 495.75 398.1 497.3 395.0 502.3 385.0 507.3 375.0 512.3 365.0 512.45 364.65 517.3 355.0 521.65 346.3 516.55 346.3 512.95 346.3 507.2 346.25 506.55 346.25 496.6 346.2 486.6 346.15 476.65 346.1 466.7 346.05 456.75 345.95 446.8 345.85 436.85 345.75 426.95 345.6 417.0 345.5 407.1 345.35 397.15 345.2 393.45 345.1 391.0 345.05 387.25 345.0 377.35 344.85 373.7 344.75 343.55 405.0 327.65 405.0 328.2 404.0 335.75 389.1 361.65 337.3 361.5 337.3 351.95 337.3 351.5 337.3 346.2 337.25 341.5 337.25 331.55 337.2 321.6 337.15 311.6 337.1 301.65 337.0 291.7 336.9 281.75 336.8 271.85 336.7 261.9 336.55 252.0 336.4 242.05 336.25 232.15 336.1 222.25 335.95 212.7 335.75 178.05 405.0 161.9 405.0 162.45 404.0 167.2 395.0 172.35 385.0 174.75 380.1 177.3 375.0 182.3 365.0 187.3 355.0 192.3 345.0 197.3 335.0 200.15 329.3 195.9 329.3 185.9 329.3 181.95 329.3 176.2 329.25 175.9 329.25 165.95 329.2 155.95 329.15 146.0 329.1 136.05 329.05 126.1 328.95 121.0 328.9 116.15 328.85 106.2 328.75 96.25 328.6 86.35 328.5 76.45 328.35 66.5 328.2 56.6 328.0 46.7 327.85 42.7 327.75 4.1 404.95 4.05 405.0 -1.0 405.0 -5.0 405.0 -5.0 391.15 -1.65 384.75 -1.0 383.5 4.75 372.1 28.65 324.35 30.0 321.6 31.25 319.1 30.0 319.05 21.6 318.95 11.7 318.8 1.75 318.6 -1.0 318.55 -1.65 318.55 -3.0 318.55 -3.0 315.75 -2.45 315.75 -3.0 315.2 -3.0 308.75 -2.8 308.75 -1.65 308.75 -1.0 308.5 -0.65 308.75 7.25 308.65 17.3 308.6 27.3 308.5 27.5 308.5 30.0 308.55 37.25 308.65 44.4 308.85 46.35 308.9 48.3 305.0 53.35 295.0 58.35 285.0 58.6 284.5 58.7 284.35 63.4 275.0 68.5 265.0 69.1 263.85 73.7 255.0 79.0 245.0 84.45 235.0 90.05 225.0 91.45 222.5 105.85 222.5 59.3 315.6 63.45 315.6 73.45 315.6 83.45 315.55 93.45 315.55 103.45 315.5 105.0 315.5 113.45 315.55 121.0 315.6 123.45 315.6 133.4 315.65 143.35 315.7 153.3 315.8 163.3 315.85 173.25 315.95 182.8 316.05 183.2 316.05 188.55 316.1 193.1 316.15 203.0 316.3 212.85 316.6 214.0 316.75 214.25 316.35 214.4 316.5 214.45 316.65 214.45 316.7 214.45 316.85 216.35 316.9 232.4 285.0 239.1 271.85 Q246.25 257.95 252.8 246.0 L255.1 241.85 265.25 222.5 274.5 222.5 274.6 222.55 275.1 222.8 275.25 222.5 280.8 222.5 M383.8 324.7 L384.0 324.75 384.25 324.35 384.05 324.25 383.8 324.7 M365.4 329.8 L365.6 329.8 371.1 329.95 371.15 329.7 371.1 329.7 365.75 329.55 365.45 329.55 365.4 329.55 365.4 329.8 M387.7 326.0 L387.35 325.9 387.75 326.1 387.8 326.05 387.7 326.0 M531.1 338.7 L530.7 338.7 525.45 338.55 525.4 338.8 530.6 338.95 531.1 338.95 531.1 338.7 M56.8 309.05 L56.35 308.9 56.75 309.1 56.8 309.05 M54.45 319.4 L54.4 319.4 54.4 319.9 54.45 319.4 M34.4 312.55 L34.4 312.8 34.85 312.85 34.45 312.55 34.4 312.55 M39.65 312.85 L39.6 312.95 40.1 312.95 40.1 312.7 Q39.8 312.7 39.65 312.85 M1.5 312.2 L1.5 311.7 1.5 312.2 M226.75 317.1 L226.8 317.05 226.35 316.9 226.75 317.1 M204.4 320.8 L210.1 320.95 210.1 320.7 204.45 320.55 204.4 320.8 M220.1 320.95 L219.6 321.95 219.65 321.95 220.15 320.95 220.1 320.95" fill="#2c3a49" fill-rule="evenodd" stroke="none"/>
      <path d="M502.05 217.5 L549.95 217.5 559.85 217.5 561.55 217.95 Q562.35 218.3 562.35 219.85 562.35 221.45 561.5 222.0 L559.85 222.5 549.95 222.5 446.3 222.5 431.15 222.5 280.8 222.5 275.25 222.5 274.6 222.5 274.5 222.5 265.25 222.5 105.85 222.5 91.45 222.5 -1.0 222.5 Q-3.5 221.65 -3.5 219.0 -1.0 217.75 -1.0 217.5 L77.0 217.5 77.0 217.55 502.05 217.55 502.05 217.5" fill="#000000" fill-rule="evenodd" stroke="none"/>
      <path d="M502.05 217.5 L502.05 -16.95 77.0 -16.95 77.0 217.5 -1.0 217.5 -1.0 -22.0 549.95 -22.0 549.95 217.5 502.05 217.5" fill="#820201" fill-rule="evenodd" stroke="none"/>
      <path d="M303.55 246.9 Q306.85 249.75 307.0 252.4 307.15 255.0 304.65 259.9 302.1 264.75 294.45 264.75 286.8 264.75 288.7 261.0 290.55 257.2 286.75 253.3 282.9 249.35 282.85 247.6 282.75 245.8 285.5 243.85 288.45 241.75 294.35 242.9 300.25 244.0 303.55 246.9 M275.75 267.25 Q284.6 267.25 287.75 272.0 285.75 272.1 283.9 273.3 280.15 275.6 280.75 281.75 L281.2 286.9 Q280.7 291.25 275.75 291.25 271.45 291.25 267.5 284.75 264.25 279.4 264.25 276.85 264.25 273.35 266.35 270.85 269.3 267.25 275.75 267.25 M279.45 263.9 Q277.25 262.5 274.6 262.5 268.9 262.5 265.3 265.25 L263.15 267.3 263.25 267.5 Q263.25 268.75 263.0 268.25 262.5 268.75 261.75 268.75 260.2 268.75 259.55 265.7 L259.25 262.5 Q259.25 258.9 261.6 254.55 264.95 248.25 271.0 248.25 278.55 248.25 282.3 254.55 284.75 258.6 284.75 262.1 L284.5 264.75 283.5 265.25 283.45 264.8 282.5 265.25 Q281.7 265.25 279.45 263.9 M314.75 256.7 Q317.15 257.1 319.5 265.25 321.8 273.4 318.2 278.5 316.85 279.75 315.0 279.75 304.15 279.75 299.75 275.75 297.25 273.45 297.25 270.5 297.25 268.2 300.8 267.5 304.3 266.75 306.75 264.75 309.15 262.75 310.75 259.5 312.35 256.25 314.75 256.7 M291.3 271.0 Q290.15 271.0 289.35 270.2 288.5 269.4 288.5 268.25 288.5 267.1 289.35 266.3 290.15 265.5 291.3 265.5 292.45 265.5 293.3 266.3 294.1 267.1 294.1 268.25 294.1 269.4 293.3 270.2 292.45 271.0 291.3 271.0 M300.65 283.3 L305.9 284.4 Q308.25 284.75 308.25 286.95 308.25 289.1 305.05 292.05 301.1 295.75 294.75 295.75 287.65 295.75 285.75 291.05 285.15 289.55 285.15 287.75 L285.25 286.0 Q285.25 283.35 287.1 279.05 289.35 273.75 292.25 273.75 295.05 273.75 296.4 278.15 297.75 282.55 300.65 283.3 M319.75 276.0 L319.05 277.4 Q320.4 274.5 319.75 276.0" fill="#887653" fill-rule="evenodd" stroke="none"/>
      <path d="M360.55 250.7 Q360.8 250.45 362.25 251.55 L365.5 254.35 367.0 256.0 366.05 253.9 Q365.05 251.6 364.6 249.85 364.15 248.1 364.5 247.95 364.85 247.8 365.75 249.35 L367.7 253.2 368.4 255.05 368.4 253.2 Q368.4 250.7 368.65 248.9 368.9 247.1 369.25 247.1 369.6 247.1 369.9 248.9 L370.15 253.2 370.15 255.05 370.85 253.2 372.65 249.3 Q373.6 247.75 373.95 247.9 374.25 248.05 373.85 249.8 L372.5 253.85 371.8 255.5 372.95 254.25 376.15 251.4 Q377.6 250.35 377.9 250.6 378.15 250.85 377.05 252.3 L374.25 255.5 373.1 256.6 374.7 255.9 Q376.95 254.9 378.7 254.45 L380.65 254.35 379.2 255.6 375.4 257.55 373.45 258.3 375.4 258.25 379.7 258.5 Q381.45 258.8 381.5 259.15 L381.4 259.3 Q381.3 259.6 379.65 259.85 L375.35 260.15 374.45 260.15 375.45 260.55 379.3 262.35 Q380.85 263.3 380.75 263.65 L380.6 263.75 378.75 263.6 374.65 262.25 372.55 261.35 374.25 262.95 377.15 266.15 Q378.2 267.6 377.95 267.9 377.7 268.1 376.25 267.05 L373.0 264.2 372.1 263.3 372.65 264.45 374.1 268.5 Q374.5 270.25 374.2 270.4 373.85 270.55 372.95 269.0 371.95 267.45 371.0 265.15 L370.2 263.2 370.25 265.4 370.0 269.7 Q369.7 271.45 369.4 271.45 L369.25 271.4 Q368.9 271.3 368.65 269.6 368.35 267.8 368.4 265.35 L368.4 264.2 368.0 265.2 366.15 269.1 Q365.2 270.65 364.9 270.5 L364.8 270.4 Q364.5 270.2 364.95 268.55 365.3 266.75 366.25 264.45 L367.0 262.8 365.6 264.25 362.4 267.1 Q360.9 268.15 360.65 267.95 L360.7 267.45 361.55 266.15 Q362.55 264.7 364.35 262.95 L365.6 261.7 364.1 262.4 360.05 263.85 358.15 263.95 358.4 263.5 Q358.7 263.2 359.6 262.65 361.15 261.7 363.45 260.7 L364.6 260.25 363.15 260.25 358.85 260.0 Q357.1 259.7 357.05 259.4 L357.05 259.3 Q357.05 258.95 358.85 258.7 L363.1 258.4 365.15 258.5 363.3 257.8 Q361.0 256.85 359.45 255.95 357.9 255.0 358.05 254.7 L358.05 254.6 359.9 254.75 Q361.65 255.1 364.0 256.05 L365.15 256.55 364.2 255.65 361.35 252.4 Q360.3 250.95 360.55 250.7" fill="#5f747b" fill-rule="evenodd" stroke="none"/>
      <path d="M437.45 258.6 Q437.45 260.55 436.0 262.6 L433.85 264.85 Q432.95 265.45 431.85 265.85 L433.85 268.75 Q434.95 270.25 435.6 270.65 436.75 271.3 432.8 271.55 430.45 271.7 428.5 270.8 427.25 270.2 426.15 269.1 L425.05 270.8 423.65 272.55 Q422.05 274.45 420.05 274.85 L419.15 270.1 Q418.85 268.9 419.65 267.45 420.4 266.0 421.85 264.1 L418.0 261.6 417.1 261.0 416.5 260.5 416.15 260.2 Q418.2 257.55 422.6 260.5 L423.3 261.0 424.8 262.2 424.45 261.0 424.15 260.0 423.35 256.05 423.3 255.55 423.3 254.55 423.35 254.55 Q426.3 255.1 427.7 257.35 428.95 259.45 428.9 261.0 L428.6 262.2 430.8 261.0 436.75 257.65 Q437.45 257.95 437.45 258.6 M426.35 266.8 Q426.95 266.8 427.45 266.35 427.85 265.9 427.85 265.3 427.85 264.65 427.45 264.2 426.95 263.75 426.35 263.75 425.7 263.75 425.3 264.2 424.8 264.65 424.8 265.3 424.8 265.9 425.3 266.35 425.7 266.8 426.35 266.8" fill="#887653" fill-rule="evenodd" stroke="none"/>
      <path d="M426.35 266.8 Q425.7 266.8 425.3 266.35 424.8 265.9 424.8 265.3 424.8 264.65 425.3 264.2 425.7 263.75 426.35 263.75 426.95 263.75 427.45 264.2 427.85 264.65 427.85 265.3 427.85 265.9 427.45 266.35 426.95 266.8 426.35 266.8" fill="#695841" fill-rule="evenodd" stroke="none"/>
      <path d="M125.6 256.0 Q128.9 258.85 129.05 261.5 129.2 264.1 126.7 269.0 124.15 273.85 116.5 273.85 108.85 273.85 110.75 270.1 112.6 266.3 108.8 262.4 104.95 258.45 104.9 256.7 104.8 254.9 107.55 252.95 110.5 250.85 116.4 252.0 122.3 253.1 125.6 256.0 M101.5 273.0 Q99.3 271.6 96.65 271.6 90.95 271.6 87.35 274.35 86.05 275.35 85.2 276.4 L85.3 276.6 Q85.3 277.85 85.05 277.35 84.55 277.85 83.8 277.85 82.25 277.85 81.6 274.8 L81.3 271.6 Q81.3 268.0 83.65 263.65 87.0 257.35 93.05 257.35 100.6 257.35 104.35 263.65 106.8 267.7 106.8 271.2 L106.55 273.85 105.55 274.35 105.5 273.9 Q104.95 274.35 104.55 274.35 103.75 274.35 101.5 273.0 M97.8 276.35 Q106.65 276.35 109.8 281.1 107.8 281.2 105.95 282.4 102.2 284.7 102.8 290.85 L103.25 296.0 Q102.75 300.35 97.8 300.35 93.5 300.35 89.55 293.85 86.3 288.5 86.3 285.95 86.3 282.45 88.4 279.95 91.35 276.35 97.8 276.35 M136.8 265.8 Q139.2 266.2 141.55 274.35 143.85 282.5 140.25 287.6 138.9 288.85 137.05 288.85 126.2 288.85 121.8 284.85 119.3 282.55 119.3 279.6 119.3 277.3 122.85 276.6 126.35 275.85 128.8 273.85 131.2 271.85 132.8 268.6 134.4 265.35 136.8 265.8 M113.35 280.1 Q112.2 280.1 111.4 279.3 110.55 278.5 110.55 277.35 110.55 276.2 111.4 275.4 112.2 274.6 113.35 274.6 114.5 274.6 115.35 275.4 116.15 276.2 116.15 277.35 116.15 278.5 115.35 279.3 114.5 280.1 113.35 280.1 M122.7 292.4 L127.95 293.5 Q130.3 293.85 130.3 296.05 130.3 298.2 127.1 301.15 123.15 304.85 116.8 304.85 109.7 304.85 107.8 300.15 107.2 298.65 107.2 296.85 L107.3 295.1 Q107.3 292.45 109.15 288.15 111.4 282.85 114.3 282.85 117.1 282.85 118.45 287.25 119.8 291.65 122.7 292.4 M141.8 285.1 L141.1 286.5 Q142.45 283.6 141.8 285.1" fill="#887653" fill-rule="evenodd" stroke="none"/>
      <path d="M527.35 309.1 Q529.85 311.25 529.95 313.25 530.05 315.2 528.2 318.9 526.25 322.55 520.45 322.55 514.7 322.55 516.1 319.75 517.5 316.85 514.65 313.9 511.75 310.95 511.7 309.6 511.6 308.25 513.7 306.75 515.95 305.2 520.4 306.05 524.85 306.9 527.35 309.1 M509.15 321.95 Q507.45 320.85 505.45 320.85 501.15 320.85 498.45 322.95 497.45 323.7 496.8 324.5 L496.9 324.65 Q496.9 325.6 496.7 325.2 496.3 325.6 495.75 325.6 494.6 325.6 494.1 323.3 L493.85 320.85 Q493.85 318.15 495.65 314.85 498.15 310.1 502.75 310.1 508.45 310.1 511.3 314.85 513.15 317.9 513.15 320.55 L512.95 322.55 512.2 322.95 512.15 322.6 Q511.75 322.95 511.45 322.95 510.85 322.95 509.15 321.95 M506.35 324.45 Q513.0 324.45 515.4 328.05 513.9 328.1 512.5 329.05 509.65 330.75 510.1 335.4 L510.45 339.3 Q510.05 342.6 506.35 342.6 503.1 342.6 500.1 337.7 497.65 333.65 497.65 331.7 497.65 329.05 499.25 327.2 501.45 324.45 506.35 324.45 M535.8 316.5 Q537.65 316.8 539.4 322.95 541.15 329.1 538.4 332.95 537.4 333.9 536.0 333.9 527.8 333.9 524.45 330.9 522.6 329.15 522.6 326.9 522.6 325.2 525.25 324.65 527.9 324.1 529.75 322.55 531.6 321.05 532.8 318.6 534.0 316.15 535.8 316.5 M518.1 327.3 Q517.2 327.3 516.6 326.7 515.95 326.1 515.95 325.2 515.95 324.35 516.6 323.75 517.2 323.15 518.1 323.15 518.95 323.15 519.6 323.75 520.2 324.35 520.2 325.2 520.2 326.1 519.6 326.7 518.95 327.3 518.1 327.3 M525.15 336.6 L529.1 337.4 Q530.9 337.7 530.9 339.35 530.9 340.95 528.5 343.2 525.5 346.0 520.7 346.0 515.35 346.0 513.9 342.45 513.45 341.3 513.45 339.95 L513.5 338.65 Q513.5 336.65 514.9 333.4 516.6 329.35 518.8 329.35 520.9 329.35 521.95 332.7 522.95 336.0 525.15 336.6 M539.6 331.05 L539.05 332.15 Q540.1 329.95 539.6 331.05" fill="#887653" fill-rule="evenodd" stroke="none"/>
      <path d="M360.55 250.7 Q360.8 250.45 362.25 251.55 L365.5 254.35 367.0 256.0 366.05 253.9 Q365.05 251.6 364.6 249.85 364.15 248.1 364.5 247.95 364.85 247.8 365.75 249.35 L367.7 253.2 368.4 255.05 368.4 253.2 Q368.4 250.7 368.65 248.9 368.9 247.1 369.25 247.1 369.6 247.1 369.9 248.9 L370.15 253.2 370.15 255.05 370.85 253.2 372.65 249.3 Q373.6 247.75 373.95 247.9 374.25 248.05 373.85 249.8 L372.5 253.85 371.8 255.5 372.95 254.25 376.15 251.4 Q377.6 250.35 377.9 250.6 378.15 250.85 377.05 252.3 L374.25 255.5 373.1 256.6 374.7 255.9 Q376.95 254.9 378.7 254.45 L380.65 254.35 379.2 255.6 375.4 257.55 373.45 258.3 375.4 258.25 379.7 258.5 Q381.45 258.8 381.5 259.15 L381.4 259.3 Q381.3 259.6 379.65 259.85 L375.35 260.15 374.45 260.15 375.45 260.55 379.3 262.35 Q380.85 263.3 380.75 263.65 L380.6 263.75 378.75 263.6 374.65 262.25 372.55 261.35 374.25 262.95 377.15 266.15 Q378.2 267.6 377.95 267.9 377.7 268.1 376.25 267.05 L373.0 264.2 372.1 263.3 372.65 264.45 374.1 268.5 Q374.5 270.25 374.2 270.4 373.85 270.55 372.95 269.0 371.95 267.45 371.0 265.15 L370.2 263.2 370.25 265.4 370.0 269.7 Q369.7 271.45 369.4 271.45 L369.25 271.4 Q368.9 271.3 368.65 269.6 368.35 267.8 368.4 265.35 L368.4 264.2 368.0 265.2 366.15 269.1 Q365.2 270.65 364.9 270.5 L364.8 270.4 Q364.5 270.2 364.95 268.55 365.3 266.75 366.25 264.45 L367.0 262.8 365.6 264.25 362.4 267.1 Q360.9 268.15 360.65 267.95 L360.7 267.45 361.55 266.15 Q362.55 264.7 364.35 262.95 L365.6 261.7 364.1 262.4 360.05 263.85 358.15 263.95 358.4 263.5 Q358.7 263.2 359.6 262.65 361.15 261.7 363.45 260.7 L364.6 260.25 363.15 260.25 358.85 260.0 Q357.1 259.7 357.05 259.4 L357.05 259.3 Q357.05 258.95 358.85 258.7 L363.1 258.4 365.15 258.5 363.3 257.8 Q361.0 256.85 359.45 255.95 357.9 255.0 358.05 254.7 L358.05 254.6 359.9 254.75 Q361.65 255.1 364.0 256.05 L365.15 256.55 364.2 255.65 361.35 252.4 Q360.3 250.95 360.55 250.7" fill="#5f747b" fill-rule="evenodd" stroke="none"/>
      <path d="M375.55 360.25 Q375.8 360.0 377.25 361.1 L380.5 363.9 382.0 365.55 381.05 363.45 Q380.05 361.15 379.6 359.4 379.15 357.65 379.5 357.5 379.85 357.35 380.75 358.9 L382.7 362.75 383.4 364.6 383.4 362.75 Q383.4 360.25 383.65 358.45 383.9 356.65 384.25 356.65 384.6 356.65 384.9 358.45 L385.15 362.75 385.15 364.6 385.85 362.75 387.65 358.85 Q388.6 357.3 388.95 357.45 389.25 357.6 388.85 359.35 L387.5 363.4 386.8 365.05 387.95 363.8 391.15 360.95 Q392.6 359.9 392.9 360.15 393.15 360.4 392.05 361.85 L389.25 365.05 388.1 366.15 389.7 365.45 Q391.95 364.45 393.7 364.0 L395.65 363.9 394.2 365.15 390.4 367.1 388.45 367.85 390.4 367.8 394.7 368.05 Q396.45 368.35 396.5 368.7 L396.4 368.85 394.65 369.4 390.35 369.7 389.45 369.7 390.45 370.1 Q392.75 371.0 394.3 371.9 395.85 372.85 395.75 373.2 L395.6 373.3 393.75 373.15 389.65 371.8 387.55 370.9 389.25 372.5 392.15 375.7 Q393.2 377.15 392.95 377.45 392.7 377.65 391.25 376.6 L388.0 373.75 387.1 372.85 387.65 374.0 389.1 378.05 Q389.5 379.8 389.2 379.95 388.85 380.1 387.95 378.55 386.95 377.0 386.0 374.7 L385.2 372.75 385.25 374.95 385.0 379.25 Q384.7 381.0 384.4 381.0 L384.25 380.95 Q383.9 380.85 383.65 379.15 383.35 377.35 383.4 374.9 L383.4 373.75 383.0 374.75 381.15 378.65 Q380.2 380.2 379.9 380.05 L379.8 379.95 Q379.5 379.75 379.95 378.1 380.3 376.3 381.25 374.0 L382.0 372.35 380.6 373.8 377.4 376.65 Q375.9 377.7 375.65 377.5 L375.7 377.0 376.55 375.7 Q377.55 374.25 379.35 372.5 L380.6 371.25 379.1 371.95 375.05 373.4 373.15 373.5 373.4 373.05 374.6 372.2 Q376.15 371.25 378.45 370.25 L379.6 369.8 378.15 369.8 373.85 369.55 Q372.1 369.25 372.05 368.95 L372.05 368.85 Q372.05 368.5 373.85 368.25 L378.1 367.95 380.15 368.05 378.3 367.35 Q376.0 366.4 374.45 365.5 372.9 364.55 373.05 364.25 L373.05 364.15 374.9 364.3 Q376.65 364.65 379.0 365.6 L380.15 366.1 379.2 365.2 376.35 361.95 Q375.3 360.5 375.55 360.25" fill="#5f747b" fill-rule="evenodd" stroke="none"/>
      <path d="M375.55 360.25 Q375.8 360.0 377.25 361.1 L380.5 363.9 382.0 365.55 381.05 363.45 Q380.05 361.15 379.6 359.4 379.15 357.65 379.5 357.5 379.85 357.35 380.75 358.9 L382.7 362.75 383.4 364.6 383.4 362.75 Q383.4 360.25 383.65 358.45 383.9 356.65 384.25 356.65 384.6 356.65 384.9 358.45 L385.15 362.75 385.15 364.6 385.85 362.75 387.65 358.85 Q388.6 357.3 388.95 357.45 389.25 357.6 388.85 359.35 L387.5 363.4 386.8 365.05 387.95 363.8 391.15 360.95 Q392.6 359.9 392.9 360.15 393.15 360.4 392.05 361.85 L389.25 365.05 388.1 366.15 389.7 365.45 Q391.95 364.45 393.7 364.0 L395.65 363.9 394.2 365.15 390.4 367.1 388.45 367.85 390.4 367.8 394.7 368.05 Q396.45 368.35 396.5 368.7 L396.4 368.85 394.65 369.4 390.35 369.7 389.45 369.7 390.45 370.1 Q392.75 371.0 394.3 371.9 395.85 372.85 395.75 373.2 L395.6 373.3 393.75 373.15 389.65 371.8 387.55 370.9 389.25 372.5 392.15 375.7 Q393.2 377.15 392.95 377.45 392.7 377.65 391.25 376.6 L388.0 373.75 387.1 372.85 387.65 374.0 389.1 378.05 Q389.5 379.8 389.2 379.95 388.85 380.1 387.95 378.55 386.95 377.0 386.0 374.7 L385.2 372.75 385.25 374.95 385.0 379.25 Q384.7 381.0 384.4 381.0 L384.25 380.95 Q383.9 380.85 383.65 379.15 383.35 377.35 383.4 374.9 L383.4 373.75 383.0 374.75 381.15 378.65 Q380.2 380.2 379.9 380.05 L379.8 379.95 Q379.5 379.75 379.95 378.1 380.3 376.3 381.25 374.0 L382.0 372.35 380.6 373.8 377.4 376.65 Q375.9 377.7 375.65 377.5 L375.7 377.0 376.55 375.7 Q377.55 374.25 379.35 372.5 L380.6 371.25 379.1 371.95 375.05 373.4 373.15 373.5 373.4 373.05 374.6 372.2 Q376.15 371.25 378.45 370.25 L379.6 369.8 378.15 369.8 373.85 369.55 Q372.1 369.25 372.05 368.95 L372.05 368.85 Q372.05 368.5 373.85 368.25 L378.1 367.95 380.15 368.05 378.3 367.35 Q376.0 366.4 374.45 365.5 372.9 364.55 373.05 364.25 L373.05 364.15 374.9 364.3 Q376.65 364.65 379.0 365.6 L380.15 366.1 379.2 365.2 376.35 361.95 Q375.3 360.5 375.55 360.25" fill="#5f747b" fill-rule="evenodd" stroke="none"/>
      <path d="M497.35 250.7 Q497.6 250.45 499.05 251.55 L502.3 254.35 503.8 256.0 502.85 253.9 Q501.85 251.6 501.4 249.85 500.95 248.1 501.3 247.95 501.65 247.8 502.55 249.35 503.5 250.9 504.5 253.2 L505.2 255.05 505.2 253.2 Q505.2 250.7 505.45 248.9 505.7 247.1 506.05 247.1 506.4 247.1 506.7 248.9 L506.95 253.2 506.95 255.05 507.65 253.2 509.45 249.3 Q510.4 247.75 510.75 247.9 511.05 248.05 510.65 249.8 L509.3 253.85 508.6 255.5 509.75 254.25 512.95 251.4 Q514.4 250.35 514.7 250.6 514.95 250.85 513.85 252.3 L511.05 255.5 509.9 256.6 511.5 255.9 Q513.75 254.9 515.5 254.45 L517.45 254.35 516.0 255.6 512.2 257.55 510.25 258.3 512.2 258.25 516.5 258.5 Q518.25 258.8 518.3 259.15 L518.2 259.3 516.45 259.85 512.15 260.15 511.25 260.15 512.25 260.55 516.1 262.35 Q517.65 263.3 517.55 263.65 L517.4 263.75 515.55 263.6 511.45 262.25 509.35 261.35 511.05 262.95 513.95 266.15 Q515.0 267.6 514.75 267.9 514.5 268.1 513.05 267.05 L509.8 264.2 508.9 263.3 509.45 264.45 510.9 268.5 Q511.3 270.25 511.0 270.4 510.65 270.55 509.75 269.0 508.75 267.45 507.8 265.15 L507.0 263.2 507.05 265.4 506.8 269.7 Q506.5 271.45 506.2 271.45 L506.05 271.4 Q505.7 271.3 505.45 269.6 505.15 267.8 505.2 265.35 L505.2 264.2 504.8 265.2 502.95 269.1 Q502.0 270.65 501.7 270.5 L501.6 270.4 Q501.3 270.2 501.75 268.55 502.1 266.75 503.05 264.45 L503.8 262.8 502.4 264.25 499.2 267.1 Q497.7 268.15 497.45 267.95 L497.5 267.45 498.35 266.15 Q499.35 264.7 501.15 262.95 L502.4 261.7 500.9 262.4 496.85 263.85 494.95 263.95 495.2 263.5 496.4 262.65 Q497.95 261.7 500.25 260.7 L501.4 260.25 499.95 260.25 495.65 260.0 Q493.9 259.7 493.85 259.4 L493.85 259.3 Q493.85 258.95 495.65 258.7 L499.9 258.4 501.95 258.5 500.1 257.8 Q497.8 256.85 496.25 255.95 494.7 255.0 494.85 254.7 L494.85 254.6 496.7 254.75 Q498.45 255.1 500.8 256.05 L501.95 256.55 501.0 255.65 498.15 252.4 Q497.1 250.95 497.35 250.7" fill="#5f747b" fill-rule="evenodd" stroke="none"/>
      <path d="M497.35 250.7 Q497.6 250.45 499.05 251.55 L502.3 254.35 503.8 256.0 502.85 253.9 Q501.85 251.6 501.4 249.85 500.95 248.1 501.3 247.95 501.65 247.8 502.55 249.35 503.5 250.9 504.5 253.2 L505.2 255.05 505.2 253.2 Q505.2 250.7 505.45 248.9 505.7 247.1 506.05 247.1 506.4 247.1 506.7 248.9 L506.95 253.2 506.95 255.05 507.65 253.2 509.45 249.3 Q510.4 247.75 510.75 247.9 511.05 248.05 510.65 249.8 L509.3 253.85 508.6 255.5 509.75 254.25 512.95 251.4 Q514.4 250.35 514.7 250.6 514.95 250.85 513.85 252.3 L511.05 255.5 509.9 256.6 511.5 255.9 Q513.75 254.9 515.5 254.45 L517.45 254.35 516.0 255.6 512.2 257.55 510.25 258.3 512.2 258.25 516.5 258.5 Q518.25 258.8 518.3 259.15 L518.2 259.3 516.45 259.85 512.15 260.15 511.25 260.15 512.25 260.55 516.1 262.35 Q517.65 263.3 517.55 263.65 L517.4 263.75 515.55 263.6 511.45 262.25 509.35 261.35 511.05 262.95 513.95 266.15 Q515.0 267.6 514.75 267.9 514.5 268.1 513.05 267.05 L509.8 264.2 508.9 263.3 509.45 264.45 510.9 268.5 Q511.3 270.25 511.0 270.4 510.65 270.55 509.75 269.0 508.75 267.45 507.8 265.15 L507.0 263.2 507.05 265.4 506.8 269.7 Q506.5 271.45 506.2 271.45 L506.05 271.4 Q505.7 271.3 505.45 269.6 505.15 267.8 505.2 265.35 L505.2 264.2 504.8 265.2 502.95 269.1 Q502.0 270.65 501.7 270.5 L501.6 270.4 Q501.3 270.2 501.75 268.55 502.1 266.75 503.05 264.45 L503.8 262.8 502.4 264.25 499.2 267.1 Q497.7 268.15 497.45 267.95 L497.5 267.45 498.35 266.15 Q499.35 264.7 501.15 262.95 L502.4 261.7 500.9 262.4 496.85 263.85 494.95 263.95 495.2 263.5 496.4 262.65 Q497.95 261.7 500.25 260.7 L501.4 260.25 499.95 260.25 495.65 260.0 Q493.9 259.7 493.85 259.4 L493.85 259.3 Q493.85 258.95 495.65 258.7 L499.9 258.4 501.95 258.5 500.1 257.8 Q497.8 256.85 496.25 255.95 494.7 255.0 494.85 254.7 L494.85 254.6 496.7 254.75 Q498.45 255.1 500.8 256.05 L501.95 256.55 501.0 255.65 498.15 252.4 Q497.1 250.95 497.35 250.7" fill="#5f747b" fill-rule="evenodd" stroke="none"/>
      <path d="M236.3 349.6 Q236.55 349.35 238.0 350.45 L241.25 353.25 242.75 354.9 241.8 352.8 Q240.8 350.5 240.35 348.75 239.9 347.0 240.25 346.85 240.6 346.7 241.5 348.25 L243.45 352.1 244.15 353.95 244.15 352.1 Q244.15 349.6 244.4 347.8 244.65 346.0 245.0 346.0 245.35 346.0 245.65 347.8 L245.9 352.1 245.9 353.95 246.6 352.1 Q247.5 349.75 248.4 348.2 249.35 346.65 249.7 346.8 250.0 346.95 249.6 348.7 L248.25 352.75 247.55 354.4 248.7 353.15 251.9 350.3 Q253.35 349.25 253.65 349.5 253.9 349.75 252.8 351.2 L250.0 354.4 248.85 355.5 250.45 354.8 Q252.7 353.8 254.45 353.35 L256.4 353.25 Q256.5 353.6 254.95 354.5 L251.15 356.45 249.2 357.2 251.15 357.15 255.45 357.4 Q257.2 357.7 257.25 358.05 L257.15 358.2 Q257.05 358.5 255.4 358.75 L251.1 359.05 250.2 359.05 251.2 359.45 255.05 361.25 Q256.6 362.2 256.5 362.55 L256.35 362.65 254.5 362.5 250.4 361.15 248.3 360.25 250.0 361.85 252.9 365.05 Q253.95 366.5 253.7 366.8 253.45 367.0 252.0 365.95 L248.75 363.1 247.85 362.2 248.4 363.35 249.85 367.4 Q250.25 369.15 249.95 369.3 249.6 369.45 248.7 367.9 247.7 366.35 246.75 364.05 L245.95 362.1 246.0 364.3 245.75 368.6 Q245.45 370.35 245.15 370.35 L245.0 370.3 Q244.65 370.2 244.4 368.5 244.1 366.7 244.15 364.25 L244.15 363.1 243.75 364.1 241.9 368.0 Q240.95 369.55 240.65 369.4 L240.55 369.3 Q240.25 369.1 240.7 367.45 241.05 365.65 242.0 363.35 L242.75 361.7 241.35 363.15 238.15 366.0 Q236.65 367.05 236.4 366.85 L236.45 366.35 237.3 365.05 Q238.3 363.6 240.1 361.85 L241.35 360.6 239.85 361.3 235.8 362.75 233.9 362.85 Q233.8 362.7 234.15 362.4 L235.35 361.55 Q236.9 360.6 239.2 359.6 L240.35 359.15 238.9 359.15 234.6 358.9 Q232.85 358.6 232.8 358.3 L232.8 358.2 Q232.8 357.85 234.6 357.6 L238.85 357.3 240.9 357.4 239.05 356.7 235.2 354.85 Q233.65 353.9 233.8 353.6 L233.8 353.5 235.65 353.65 Q237.4 354.0 239.75 354.95 L240.9 355.45 239.95 354.55 237.1 351.3 Q236.05 349.85 236.3 349.6" fill="#5f747b" fill-rule="evenodd" stroke="none"/>
      <path d="M207.15 289.7 Q207.3 289.55 208.25 290.3 L210.45 292.2 211.45 293.3 210.85 291.9 209.85 289.15 Q209.55 287.95 209.8 287.85 L210.65 288.8 211.95 291.4 212.4 292.65 212.4 291.4 212.6 288.5 Q212.75 287.3 213.0 287.3 213.2 287.3 213.4 288.5 L213.6 291.4 213.6 292.65 214.05 291.4 215.25 288.8 Q215.9 287.75 216.15 287.85 L216.1 289.1 215.15 291.85 214.7 292.95 215.45 292.1 217.65 290.2 Q218.6 289.5 218.8 289.65 L218.25 290.8 216.35 292.95 215.55 293.7 216.65 293.2 Q218.15 292.55 219.35 292.25 L220.65 292.2 219.7 293.0 Q218.65 293.65 217.1 294.35 L215.8 294.85 217.1 294.8 220.0 294.95 Q221.2 295.15 221.25 295.4 L221.15 295.5 Q221.1 295.7 220.0 295.9 L217.1 296.1 216.5 296.1 217.15 296.35 219.75 297.55 220.7 298.45 220.6 298.5 219.4 298.4 216.6 297.5 215.2 296.9 216.35 297.95 218.3 300.1 218.85 301.3 Q218.65 301.45 217.7 300.7 L215.5 298.8 214.9 298.2 215.25 298.95 216.25 301.7 216.3 303.0 Q216.1 303.1 215.45 302.05 L214.15 299.45 213.6 298.15 213.65 299.6 213.5 302.5 Q213.3 303.7 213.1 303.7 L213.0 303.65 Q212.75 303.6 212.6 302.45 L212.4 299.6 212.4 298.8 212.15 299.5 210.9 302.1 Q210.25 303.15 210.05 303.05 L210.0 303.0 Q209.8 302.85 210.1 301.75 210.35 300.5 210.95 298.95 L211.45 297.85 210.55 298.85 208.35 300.75 Q207.35 301.45 207.2 301.35 L207.25 301.0 Q207.35 300.7 207.8 300.1 208.5 299.15 209.7 297.95 L210.55 297.1 209.5 297.6 206.8 298.55 205.5 298.65 205.7 298.35 206.5 297.75 Q207.55 297.1 209.1 296.45 L209.85 296.15 208.9 296.15 206.0 296.0 Q204.8 295.8 204.8 295.6 L204.8 295.5 Q204.8 295.25 206.0 295.1 L208.85 294.9 210.25 294.95 209.0 294.5 206.4 293.25 Q205.35 292.6 205.45 292.4 L205.45 292.35 206.7 292.45 209.45 293.3 210.25 293.65 209.6 293.05 207.65 290.85 Q206.95 289.9 207.15 289.7" fill="#5f747b" fill-rule="evenodd" stroke="none"/>
      <path d="M151.3 246.1 Q151.55 245.85 153.0 246.95 154.45 248.0 156.25 249.75 L157.75 251.4 156.8 249.3 Q155.8 247.0 155.35 245.25 154.9 243.5 155.25 243.35 155.6 243.2 156.5 244.75 L158.45 248.6 159.15 250.45 159.15 248.6 Q159.15 246.1 159.4 244.3 159.65 242.5 160.0 242.5 160.35 242.5 160.65 244.3 L160.9 248.6 160.9 250.45 161.6 248.6 Q162.5 246.25 163.4 244.7 164.35 243.15 164.7 243.3 165.0 243.45 164.6 245.2 L163.25 249.25 162.55 250.9 163.7 249.65 166.9 246.8 Q168.35 245.75 168.65 246.0 168.9 246.25 167.8 247.7 L165.0 250.9 163.85 252.0 165.45 251.3 Q167.7 250.3 169.45 249.85 L171.4 249.75 Q171.5 250.1 169.95 251.0 L166.15 252.95 164.2 253.7 166.15 253.65 170.45 253.9 Q172.2 254.2 172.25 254.55 L172.15 254.7 Q172.05 255.0 170.4 255.25 L166.1 255.55 165.2 255.55 166.2 255.95 Q168.5 256.85 170.05 257.75 171.6 258.7 171.5 259.05 L171.35 259.15 169.5 259.0 165.4 257.65 163.3 256.75 165.0 258.35 167.9 261.55 Q168.95 263.0 168.7 263.3 168.45 263.5 167.0 262.45 L163.75 259.6 162.85 258.7 163.4 259.85 164.85 263.9 Q165.25 265.65 164.95 265.8 164.6 265.95 163.7 264.4 162.7 262.85 161.75 260.55 L160.95 258.6 161.0 260.8 160.75 265.1 Q160.45 266.85 160.15 266.85 L160.0 266.8 Q159.65 266.7 159.4 265.0 159.1 263.2 159.15 260.75 L159.15 259.6 158.75 260.6 156.9 264.5 Q155.95 266.05 155.65 265.9 L155.55 265.8 Q155.25 265.6 155.7 263.95 156.05 262.15 157.0 259.85 L157.75 258.2 156.35 259.65 153.15 262.5 Q151.65 263.55 151.4 263.35 L151.45 262.85 152.3 261.55 Q153.3 260.1 155.1 258.35 L156.35 257.1 154.85 257.8 150.8 259.25 148.9 259.35 149.15 258.9 150.35 258.05 Q151.9 257.1 154.2 256.1 L155.35 255.65 153.9 255.65 149.6 255.4 Q147.85 255.1 147.8 254.8 L147.8 254.7 Q147.8 254.35 149.6 254.1 L153.85 253.8 155.9 253.9 154.05 253.2 150.2 251.35 Q148.65 250.4 148.8 250.1 L148.8 250.0 150.65 250.15 Q152.4 250.5 154.75 251.45 L155.9 251.95 154.95 251.05 152.1 247.8 Q151.05 246.35 151.3 246.1" fill="#5f747b" fill-rule="evenodd" stroke="none"/>
      <path d="M151.3 246.1 Q151.55 245.85 153.0 246.95 154.45 248.0 156.25 249.75 L157.75 251.4 156.8 249.3 Q155.8 247.0 155.35 245.25 154.9 243.5 155.25 243.35 155.6 243.2 156.5 244.75 L158.45 248.6 159.15 250.45 159.15 248.6 Q159.15 246.1 159.4 244.3 159.65 242.5 160.0 242.5 160.35 242.5 160.65 244.3 L160.9 248.6 160.9 250.45 161.6 248.6 Q162.5 246.25 163.4 244.7 164.35 243.15 164.7 243.3 165.0 243.45 164.6 245.2 L163.25 249.25 162.55 250.9 163.7 249.65 166.9 246.8 Q168.35 245.75 168.65 246.0 168.9 246.25 167.8 247.7 L165.0 250.9 163.85 252.0 165.45 251.3 Q167.7 250.3 169.45 249.85 L171.4 249.75 Q171.5 250.1 169.95 251.0 L166.15 252.95 164.2 253.7 166.15 253.65 170.45 253.9 Q172.2 254.2 172.25 254.55 L172.15 254.7 Q172.05 255.0 170.4 255.25 L166.1 255.55 165.2 255.55 166.2 255.95 Q168.5 256.85 170.05 257.75 171.6 258.7 171.5 259.05 L171.35 259.15 169.5 259.0 165.4 257.65 163.3 256.75 165.0 258.35 167.9 261.55 Q168.95 263.0 168.7 263.3 168.45 263.5 167.0 262.45 L163.75 259.6 162.85 258.7 163.4 259.85 164.85 263.9 Q165.25 265.65 164.95 265.8 164.6 265.95 163.7 264.4 162.7 262.85 161.75 260.55 L160.95 258.6 161.0 260.8 160.75 265.1 Q160.45 266.85 160.15 266.85 L160.0 266.8 Q159.65 266.7 159.4 265.0 159.1 263.2 159.15 260.75 L159.15 259.6 158.75 260.6 156.9 264.5 Q155.95 266.05 155.65 265.9 L155.55 265.8 Q155.25 265.6 155.7 263.95 156.05 262.15 157.0 259.85 L157.75 258.2 156.35 259.65 153.15 262.5 Q151.65 263.55 151.4 263.35 L151.45 262.85 152.3 261.55 Q153.3 260.1 155.1 258.35 L156.35 257.1 154.85 257.8 150.8 259.25 148.9 259.35 149.15 258.9 150.35 258.05 Q151.9 257.1 154.2 256.1 L155.35 255.65 153.9 255.65 149.6 255.4 Q147.85 255.1 147.8 254.8 L147.8 254.7 Q147.8 254.35 149.6 254.1 L153.85 253.8 155.9 253.9 154.05 253.2 150.2 251.35 Q148.65 250.4 148.8 250.1 L148.8 250.0 150.65 250.15 Q152.4 250.5 154.75 251.45 L155.9 251.95 154.95 251.05 152.1 247.8 Q151.05 246.35 151.3 246.1" fill="#5f747b" fill-rule="evenodd" stroke="none"/>
      <path d="M190.7 381.15 Q190.8 381.05 191.55 381.6 L193.15 383.0 193.9 383.8 193.45 382.75 192.7 380.75 Q192.5 379.85 192.65 379.8 192.85 379.7 193.3 380.5 L194.25 382.4 194.6 383.35 194.6 382.4 Q194.6 381.15 194.75 380.25 194.85 379.35 195.05 379.35 195.2 379.35 195.35 380.25 L195.5 382.4 195.5 383.35 195.85 382.4 196.75 380.45 Q197.2 379.7 197.4 379.75 L197.35 380.7 196.65 382.75 196.3 383.55 196.9 382.95 198.5 381.5 Q199.2 381.0 199.35 381.1 L198.95 381.95 197.55 383.55 196.95 384.1 197.75 383.75 199.75 383.05 200.75 383.0 200.0 383.6 198.1 384.6 197.15 384.95 198.1 384.95 200.25 385.05 Q201.15 385.2 201.15 385.4 L201.1 385.45 200.25 385.75 198.1 385.9 197.65 385.9 198.15 386.1 200.05 387.0 200.8 387.65 200.7 387.7 199.8 387.6 197.75 386.95 196.7 386.5 197.55 387.3 199.0 388.9 199.4 389.75 Q199.25 389.85 198.55 389.35 L196.9 387.9 196.45 387.45 196.75 388.05 197.45 390.05 197.5 391.0 196.9 390.3 195.9 388.4 195.5 387.4 195.55 388.5 195.4 390.65 195.1 391.55 195.05 391.5 Q194.85 391.45 194.75 390.6 194.6 389.7 194.6 388.5 L194.6 387.9 194.4 388.4 193.5 390.35 192.85 391.05 192.8 391.0 Q192.65 390.9 192.9 390.1 193.05 389.2 193.55 388.05 L193.9 387.2 193.2 387.95 191.6 389.35 190.75 389.8 190.75 389.55 191.2 388.9 192.6 387.3 193.2 386.65 192.45 387.0 190.45 387.75 189.5 387.8 189.6 387.55 Q189.75 387.4 190.2 387.15 191.0 386.65 192.15 386.15 L192.7 385.95 192.0 385.95 189.85 385.8 Q188.95 385.65 188.95 385.5 L188.95 385.45 Q188.95 385.3 189.85 385.15 L191.95 385.0 193.0 385.05 192.05 384.7 190.15 383.8 189.45 383.15 189.45 383.1 190.35 383.2 192.4 383.85 193.0 384.1 192.5 383.65 191.1 382.0 Q190.55 381.3 190.7 381.15" fill="#5f747b" fill-rule="evenodd" stroke="none"/>
      <path d="M190.7 381.15 Q190.8 381.05 191.55 381.6 L193.15 383.0 193.9 383.8 193.45 382.75 192.7 380.75 Q192.5 379.85 192.65 379.8 192.85 379.7 193.3 380.5 L194.25 382.4 194.6 383.35 194.6 382.4 Q194.6 381.15 194.75 380.25 194.85 379.35 195.05 379.35 195.2 379.35 195.35 380.25 L195.5 382.4 195.5 383.35 195.85 382.4 196.75 380.45 Q197.2 379.7 197.4 379.75 L197.35 380.7 196.65 382.75 196.3 383.55 196.9 382.95 198.5 381.5 Q199.2 381.0 199.35 381.1 L198.95 381.95 197.55 383.55 196.95 384.1 197.75 383.75 199.75 383.05 200.75 383.0 200.0 383.6 198.1 384.6 197.15 384.95 198.1 384.95 200.25 385.05 Q201.15 385.2 201.15 385.4 L201.1 385.45 200.25 385.75 198.1 385.9 197.65 385.9 198.15 386.1 200.05 387.0 200.8 387.65 200.7 387.7 199.8 387.6 197.75 386.95 196.7 386.5 197.55 387.3 199.0 388.9 199.4 389.75 Q199.25 389.85 198.55 389.35 L196.9 387.9 196.45 387.45 196.75 388.05 197.45 390.05 197.5 391.0 196.9 390.3 195.9 388.4 195.5 387.4 195.55 388.5 195.4 390.65 195.1 391.55 195.05 391.5 Q194.85 391.45 194.75 390.6 194.6 389.7 194.6 388.5 L194.6 387.9 194.4 388.4 193.5 390.35 192.85 391.05 192.8 391.0 Q192.65 390.9 192.9 390.1 193.05 389.2 193.55 388.05 L193.9 387.2 193.2 387.95 191.6 389.35 190.75 389.8 190.75 389.55 191.2 388.9 192.6 387.3 193.2 386.65 192.45 387.0 190.45 387.75 189.5 387.8 189.6 387.55 Q189.75 387.4 190.2 387.15 191.0 386.65 192.15 386.15 L192.7 385.95 192.0 385.95 189.85 385.8 Q188.95 385.65 188.95 385.5 L188.95 385.45 Q188.95 385.3 189.85 385.15 L191.95 385.0 193.0 385.05 192.05 384.7 190.15 383.8 189.45 383.15 189.45 383.1 190.35 383.2 192.4 383.85 193.0 384.1 192.5 383.65 191.1 382.0 Q190.55 381.3 190.7 381.15" fill="#5f747b" fill-rule="evenodd" stroke="none"/>
      <path d="M43.5 249.05 Q43.5 251.0 42.05 253.05 L39.9 255.3 Q39.0 255.9 37.9 256.3 L39.9 259.2 41.65 261.1 Q42.8 261.75 38.85 262.0 36.5 262.15 34.55 261.25 33.3 260.65 32.2 259.55 L31.1 261.25 29.7 263.0 Q28.1 264.9 26.1 265.3 L25.2 260.55 Q24.9 259.35 25.7 257.9 26.45 256.45 27.9 254.55 L24.05 252.05 23.15 251.45 22.55 250.95 22.2 250.65 Q24.25 248.0 28.65 250.95 L29.35 251.45 30.85 252.65 30.5 251.45 30.2 250.45 29.4 246.5 29.35 246.0 29.35 245.0 29.4 245.0 Q32.35 245.55 33.75 247.8 35.0 249.9 34.95 251.45 L34.65 252.65 36.85 251.45 42.8 248.1 Q43.5 248.4 43.5 249.05 M32.4 257.25 Q33.0 257.25 33.5 256.8 33.9 256.35 33.9 255.75 33.9 255.1 33.5 254.65 33.0 254.2 32.4 254.2 31.75 254.2 31.35 254.65 30.85 255.1 30.85 255.75 30.85 256.35 31.35 256.8 31.75 257.25 32.4 257.25" fill="#887653" fill-rule="evenodd" stroke="none"/>
      <path d="M32.4 257.25 Q31.75 257.25 31.35 256.8 30.85 256.35 30.85 255.75 30.85 255.1 31.35 254.65 31.75 254.2 32.4 254.2 33.0 254.2 33.5 254.65 33.9 255.1 33.9 255.75 33.9 256.35 33.5 256.8 33.0 257.25 32.4 257.25" fill="#695841" fill-rule="evenodd" stroke="none"/>
      <path d="M6.8 278.45 Q7.05 278.2 8.5 279.3 L11.75 282.1 13.25 283.75 12.3 281.65 Q11.3 279.35 10.85 277.6 10.4 275.85 10.75 275.7 11.1 275.55 12.0 277.1 L13.95 280.95 14.65 282.8 14.65 280.95 Q14.65 278.45 14.9 276.65 15.15 274.85 15.5 274.85 15.85 274.85 16.15 276.65 L16.4 280.95 16.4 282.8 17.1 280.95 18.9 277.05 Q19.85 275.5 20.2 275.65 20.5 275.8 20.1 277.55 L18.75 281.6 18.05 283.25 19.2 282.0 22.4 279.15 Q23.85 278.1 24.15 278.35 24.4 278.6 23.3 280.05 L20.5 283.25 19.35 284.35 20.95 283.65 Q23.2 282.65 24.95 282.2 L26.9 282.1 25.45 283.35 21.65 285.3 19.7 286.05 21.65 286.0 25.95 286.25 Q27.7 286.55 27.75 286.9 L27.65 287.05 25.9 287.6 21.6 287.9 20.7 287.9 21.7 288.3 Q24.0 289.2 25.55 290.1 27.1 291.05 27.0 291.4 L26.85 291.5 25.0 291.35 Q23.25 290.95 20.9 290.0 L18.8 289.1 20.5 290.7 23.4 293.9 Q24.45 295.35 24.2 295.65 23.95 295.85 22.5 294.8 L19.25 291.95 18.35 291.05 18.9 292.2 20.35 296.25 Q20.75 298.0 20.45 298.15 20.1 298.3 19.2 296.75 18.2 295.2 17.25 292.9 L16.45 290.95 16.5 293.15 16.25 297.45 Q15.95 299.2 15.65 299.2 L15.5 299.15 Q15.15 299.05 14.9 297.35 14.6 295.55 14.65 293.1 L14.65 291.95 14.25 292.95 12.4 296.85 Q11.45 298.4 11.15 298.25 L11.05 298.15 Q10.75 297.95 11.2 296.3 11.55 294.5 12.5 292.2 L13.25 290.55 11.85 292.0 8.65 294.85 Q7.15 295.9 6.9 295.7 L6.95 295.2 7.8 293.9 10.6 290.7 11.85 289.45 10.35 290.15 6.3 291.6 4.4 291.7 Q4.3 291.55 4.65 291.25 L5.85 290.4 Q7.4 289.45 9.7 288.45 L10.85 288.0 9.4 288.0 5.1 287.75 Q3.35 287.45 3.3 287.15 L3.3 287.05 Q3.3 286.7 5.1 286.45 L9.35 286.15 11.4 286.25 9.55 285.55 Q7.25 284.6 5.7 283.7 4.15 282.75 4.3 282.45 L4.3 282.35 6.15 282.5 Q7.9 282.85 10.25 283.8 L11.4 284.3 10.45 283.4 7.6 280.15 Q6.55 278.7 6.8 278.45" fill="#5f747b" fill-rule="evenodd" stroke="none"/>
      <path d="M333.45 315.6 Q333.45 317.55 332.0 319.6 L329.85 321.85 Q328.95 322.45 327.85 322.85 L329.85 325.75 Q330.95 327.25 331.6 327.65 332.75 328.3 328.8 328.55 326.45 328.7 324.5 327.8 323.25 327.2 322.15 326.1 L321.05 327.8 319.65 329.55 Q318.05 331.45 316.05 331.85 L315.15 327.1 Q314.85 325.9 315.65 324.45 316.4 323.0 317.85 321.1 L314.0 318.6 313.1 318.0 312.5 317.5 312.15 317.2 Q314.2 314.55 318.6 317.5 L319.3 318.0 320.8 319.2 320.45 318.0 320.15 317.0 319.35 313.05 319.3 312.55 319.3 311.55 319.35 311.55 Q322.3 312.1 323.7 314.35 324.95 316.45 324.9 318.0 L324.6 319.2 326.8 318.0 332.75 314.65 Q333.45 314.95 333.45 315.6 M322.35 323.8 Q322.95 323.8 323.45 323.35 323.85 322.9 323.85 322.3 323.85 321.65 323.45 321.2 322.95 320.75 322.35 320.75 321.7 320.75 321.3 321.2 320.8 321.65 320.8 322.3 320.8 322.9 321.3 323.35 321.7 323.8 322.35 323.8" fill="#887653" fill-rule="evenodd" stroke="none"/>
      <path d="M322.35 323.8 Q321.7 323.8 321.3 323.35 320.8 322.9 320.8 322.3 320.8 321.65 321.3 321.2 321.7 320.75 322.35 320.75 322.95 320.75 323.45 321.2 323.85 321.65 323.85 322.3 323.85 322.9 323.45 323.35 322.95 323.8 322.35 323.8" fill="#695841" fill-rule="evenodd" stroke="none"/>
      <path d="M321.1 382.7 Q321.1 383.65 320.35 384.7 L319.25 385.8 318.3 386.3 319.25 387.75 320.15 388.7 Q320.75 389.0 318.75 389.15 L316.6 388.75 315.45 387.95 314.9 388.75 314.2 389.65 Q313.4 390.6 312.4 390.8 L311.9 388.45 Q311.8 387.85 312.2 387.1 L313.25 385.4 311.35 384.2 310.9 383.85 310.6 383.6 310.45 383.5 313.65 383.6 314.0 383.85 314.75 384.45 314.6 383.85 314.45 383.35 314.05 381.4 314.0 381.15 314.0 380.65 314.05 380.65 Q315.5 380.9 316.2 382.05 316.8 383.1 316.8 383.85 L316.65 384.45 317.75 383.85 320.75 382.2 Q321.1 382.35 321.1 382.7 M315.55 386.8 L316.05 386.55 316.3 386.0 316.05 385.5 315.55 385.25 Q315.2 385.25 315.0 385.5 314.75 385.7 314.75 386.0 314.75 386.35 315.0 386.55 315.2 386.8 315.55 386.8" fill="#887653" fill-rule="evenodd" stroke="none"/>
      <path d="M315.55 386.8 Q315.2 386.8 315.0 386.55 314.75 386.35 314.75 386.0 314.75 385.7 315.0 385.5 315.2 385.25 315.55 385.25 L316.05 385.5 316.3 386.0 316.05 386.55 315.55 386.8" fill="#695841" fill-rule="evenodd" stroke="none"/>
      <path d="M518.3 362.25 Q518.3 363.2 517.55 364.25 L516.45 365.35 515.5 365.85 516.45 367.3 517.35 368.25 Q517.95 368.55 515.95 368.7 L513.8 368.3 512.65 367.5 512.1 368.3 511.4 369.2 Q510.6 370.15 509.6 370.35 L509.1 368.0 Q509.0 367.4 509.4 366.65 509.75 365.95 510.45 364.95 L508.55 363.75 508.1 363.4 507.8 363.15 507.65 363.05 510.85 363.15 511.2 363.4 511.95 364.0 511.8 363.4 511.65 362.9 511.25 360.95 511.2 360.7 511.2 360.2 511.25 360.2 Q512.7 360.45 513.4 361.6 514.0 362.65 514.0 363.4 L513.85 364.0 514.95 363.4 517.95 361.75 518.3 362.25 M512.75 366.35 L513.25 366.1 513.5 365.55 513.25 365.05 512.75 364.8 Q512.4 364.8 512.2 365.05 511.95 365.25 511.95 365.55 511.95 365.9 512.2 366.1 L512.75 366.35" fill="#887653" fill-rule="evenodd" stroke="none"/>
      <path d="M512.75 366.35 L512.2 366.1 Q511.95 365.9 511.95 365.55 511.95 365.25 512.2 365.05 512.4 364.8 512.75 364.8 L513.25 365.05 513.5 365.55 513.25 366.1 512.75 366.35" fill="#695841" fill-rule="evenodd" stroke="none"/>
      <path d="M81.7 344.25 Q83.6 344.75 85.25 346.65 86.25 347.9 86.85 349.35 L87.25 351.5 90.6 350.35 92.9 349.1 Q93.8 348.15 93.0 352.05 92.55 354.35 91.15 356.0 90.3 357.1 88.95 357.85 L90.25 359.35 91.6 361.2 Q93.05 363.2 92.9 365.25 L88.1 364.9 Q86.85 364.85 85.65 363.7 L82.95 360.75 79.6 363.8 78.75 364.5 78.15 364.95 77.75 365.2 Q75.75 362.55 79.7 359.05 L80.35 358.5 81.9 357.35 80.65 357.4 79.65 357.45 75.55 357.15 75.1 357.1 74.15 356.85 74.15 356.8 Q75.45 354.05 78.0 353.35 L81.8 353.1 Q82.45 353.3 82.9 353.7 L82.3 351.25 80.65 344.65 Q81.1 344.05 81.7 344.25 M86.8 357.05 Q86.95 356.45 86.6 355.9 86.3 355.35 85.7 355.2 L84.55 355.35 Q84.0 355.65 83.85 356.25 83.7 356.9 84.0 357.45 84.3 358.0 84.9 358.15 L86.05 358.0 Q86.65 357.7 86.8 357.05" fill="#887653" fill-rule="evenodd" stroke="none"/>
      <path d="M86.8 357.05 Q86.65 357.7 86.05 358.0 L84.9 358.15 Q84.3 358.0 84.0 357.45 83.7 356.9 83.85 356.25 84.0 355.65 84.55 355.35 L85.7 355.2 Q86.3 355.35 86.6 355.9 86.95 356.45 86.8 357.05" fill="#695841" fill-rule="evenodd" stroke="none"/>
      <path d="M114.15 382.65 Q114.3 382.5 115.25 383.25 L117.45 385.15 118.45 386.25 117.85 384.85 116.85 382.1 Q116.55 380.9 116.8 380.8 117.0 380.7 117.65 381.75 L118.95 384.35 119.4 385.6 119.4 384.35 119.6 381.45 Q119.75 380.25 120.0 380.25 120.2 380.25 120.4 381.45 L120.6 384.35 120.6 385.6 121.05 384.35 122.25 381.75 Q122.9 380.7 123.15 380.8 L123.1 382.05 122.15 384.8 121.7 385.9 122.45 385.05 124.65 383.15 Q125.6 382.45 125.8 382.6 L125.25 383.75 123.35 385.9 122.55 386.65 123.65 386.15 Q125.15 385.5 126.35 385.2 L127.65 385.15 126.7 385.95 124.1 387.3 122.8 387.8 124.1 387.75 127.0 387.9 Q128.2 388.1 128.25 388.35 L128.15 388.45 Q128.1 388.65 127.0 388.85 L124.1 389.05 123.5 389.05 124.15 389.3 126.75 390.5 127.7 391.4 127.6 391.45 126.4 391.35 Q125.2 391.1 123.6 390.45 L122.2 389.85 123.35 390.9 125.3 393.05 125.85 394.25 Q125.65 394.4 124.7 393.65 L122.5 391.75 121.9 391.15 122.25 391.9 123.25 394.65 123.3 395.95 Q123.1 396.05 122.45 395.0 L121.15 392.4 120.6 391.1 120.65 392.55 120.5 395.45 Q120.3 396.65 120.1 396.65 L120.0 396.6 Q119.75 396.55 119.6 395.4 L119.4 392.55 119.4 391.75 119.15 392.45 117.9 395.05 Q117.25 396.1 117.05 396.0 L117.0 395.95 Q116.8 395.8 117.1 394.7 117.35 393.45 117.95 391.9 L118.45 390.8 117.55 391.8 115.35 393.7 Q114.35 394.4 114.2 394.3 L114.25 393.95 114.8 393.05 116.7 390.9 117.55 390.05 116.5 390.55 113.8 391.5 112.5 391.6 112.7 391.3 113.5 390.7 Q114.55 390.05 116.1 389.4 L116.85 389.1 115.9 389.1 113.0 388.95 Q111.8 388.75 111.8 388.55 L111.8 388.45 Q111.8 388.2 113.0 388.05 L115.85 387.85 117.25 387.9 116.0 387.45 113.4 386.2 Q112.35 385.55 112.45 385.35 L112.45 385.3 113.7 385.4 116.45 386.25 117.25 386.6 116.6 386.0 114.65 383.8 Q113.95 382.85 114.15 382.65" fill="#5f747b" fill-rule="evenodd" stroke="none"/>
      <path d="M502.95 41.5 Q490.0 29.5 477.35 29.5 468.55 29.5 460.45 33.8 444.6 21.5 424.35 21.5 407.25 21.5 392.2 26.6 385.85 19.5 373.9 13.5 350.0 1.5 321.0 1.5 308.05 1.5 287.5 10.0 282.85 11.95 279.2 13.75 260.1 -0.5 230.5 -0.5 L221.0 -0.25 Q194.0 2.95 174.7 12.05 172.45 13.1 170.45 14.2 161.6 9.5 150.0 9.5 115.45 9.5 94.0 21.3 83.85 26.85 79.0 33.55 L79.0 -23.0 502.95 -23.0 502.95 41.5" fill="#ffffff" fill-opacity="0.2509804" fill-rule="evenodd" stroke="none"/>
      <path d="M79.0 33.55 Q83.85 26.85 94.0 21.3 115.45 9.5 150.0 9.5 161.6 9.5 170.45 14.2 172.45 13.1 174.7 12.05 194.0 2.95 221.0 -0.25 L230.5 -0.5 Q260.1 -0.5 279.2 13.75 282.85 11.95 287.5 10.0 308.05 1.5 321.0 1.5 350.0 1.5 373.9 13.5 385.85 19.5 392.2 26.6 407.25 21.5 424.35 21.5 444.6 21.5 460.45 33.8 468.55 29.5 477.35 29.5 490.0 29.5 502.95 41.5 L502.95 47.6 502.15 47.6 499.1 45.3 498.95 45.55 501.95 47.65 502.95 48.35 502.95 92.6 Q498.9 91.45 490.0 90.75 475.0 89.5 465.55 96.9 454.75 93.45 443.4 91.15 430.45 88.5 422.35 88.5 405.95 88.5 391.9 94.3 389.5 95.25 387.55 96.3 382.9 92.8 377.35 89.5 345.75 70.5 310.0 70.5 L300.0 71.0 Q288.65 70.3 270.8 79.55 L263.95 83.5 Q250.3 78.5 231.0 78.5 204.4 78.5 178.0 88.3 169.55 91.45 163.6 94.9 147.75 86.5 134.0 86.5 118.6 86.5 102.5 93.0 84.5 100.2 79.0 107.65 L79.0 33.55 M455.85 36.45 L455.95 36.6 456.0 36.55 455.85 36.45" fill="#ffffff" fill-opacity="0.5019608" fill-rule="evenodd" stroke="none"/>
      <path d="M79.0 107.65 Q84.5 100.2 102.5 93.0 118.6 86.5 134.0 86.5 147.75 86.5 163.6 94.9 169.55 91.45 178.0 88.3 204.4 78.5 231.0 78.5 250.3 78.5 263.95 83.5 L270.8 79.55 Q288.65 70.3 300.0 71.0 L310.0 70.5 Q345.75 70.5 377.35 89.5 382.9 92.8 387.55 96.3 389.5 95.25 391.9 94.3 405.95 88.5 422.35 88.5 430.45 88.5 443.4 91.15 454.75 93.45 465.55 96.9 475.0 89.5 490.0 90.75 498.9 91.45 502.95 92.6 L502.95 164.0 Q489.1 154.5 469.85 154.5 L463.85 155.0 Q451.5 154.85 441.25 159.15 436.15 154.4 431.15 151.55 415.15 142.5 383.85 142.5 351.8 142.5 329.5 153.0 325.55 154.85 322.4 156.85 318.5 154.8 314.0 152.8 301.35 147.1 289.05 143.35 276.3 139.5 269.5 139.5 L256.0 140.0 Q234.45 141.55 204.15 155.2 191.85 160.75 183.75 165.95 L183.6 166.05 Q167.0 158.5 147.0 158.5 L135.0 159.0 Q115.75 159.9 95.65 173.35 80.45 183.5 79.0 186.6 L79.0 107.65 M270.5 86.3 L270.9 85.5 270.0 86.05 270.5 86.3 M258.6 87.2 L258.65 87.25 258.7 87.2 258.6 87.2" fill="#ffffff" fill-opacity="0.7529412" fill-rule="evenodd" stroke="none"/>
      <path d="M502.95 164.0 L502.95 170.75 502.9 170.75 502.95 170.8 502.95 217.5 79.0 217.5 79.0 187.85 79.5 187.85 79.0 187.6 79.0 186.6 Q80.45 183.5 95.65 173.35 115.75 159.9 135.0 159.0 L147.0 158.5 Q167.0 158.5 183.6 166.05 L183.75 165.95 Q191.85 160.75 204.15 155.2 234.45 141.55 256.0 140.0 L269.5 139.5 Q276.3 139.5 289.05 143.35 301.35 147.1 314.0 152.8 318.5 154.8 322.4 156.85 325.55 154.85 329.5 153.0 351.8 142.5 383.85 142.5 415.15 142.5 431.15 151.55 436.15 154.4 441.25 159.15 451.5 154.85 463.85 155.0 L469.85 154.5 Q489.1 154.5 502.95 164.0 M326.25 158.9 L326.1 158.65 326.0 158.75 326.25 158.9" fill="#ffffff" fill-rule="evenodd" stroke="none"/>
      <path d="M92.0 -17.0 L212.0 -17.0 212.0 220.5 92.0 220.5 92.0 166.0 210.5 166.0 210.5 139.0 92.0 139.0 92.0 56.0 210.5 56.0 210.5 29.0 92.0 29.0 92.0 -17.0 M222.0 -17.0 L352.0 -17.0 352.0 220.5 222.0 220.5 222.0 -17.0 M362.0 -17.0 L482.0 -17.0 482.0 29.0 363.55 29.0 363.55 56.0 482.0 56.0 482.0 139.0 363.55 139.0 363.55 166.0 482.0 166.0 482.0 220.5 362.0 220.5 362.0 -17.0 M462.55 41.85 L453.0 51.4 443.45 41.85 453.0 32.3 462.55 41.85 M402.55 41.85 L393.0 51.4 383.45 41.85 393.0 32.3 402.55 41.85 M351.0 29.0 L224.55 29.0 224.55 56.0 351.0 56.0 351.0 29.0 M393.0 161.4 L383.45 151.85 393.0 142.3 402.55 151.85 393.0 161.4 M351.0 139.0 L224.55 139.0 224.55 166.0 351.0 166.0 351.0 139.0 M453.0 161.4 L443.45 151.85 453.0 142.3 462.55 151.85 453.0 161.4 M317.0 32.3 L326.55 41.85 317.0 51.4 307.45 41.85 317.0 32.3 M257.0 32.3 L266.55 41.85 257.0 51.4 247.45 41.85 257.0 32.3 M181.0 32.3 L190.55 41.85 181.0 51.4 171.45 41.85 181.0 32.3 M181.0 161.4 L171.45 151.85 181.0 142.3 190.55 151.85 181.0 161.4 M257.0 161.4 L247.45 151.85 257.0 142.3 266.55 151.85 257.0 161.4 M307.45 151.85 L317.0 142.3 326.55 151.85 317.0 161.4 307.45 151.85 M121.0 32.3 L130.55 41.85 121.0 51.4 111.45 41.85 121.0 32.3 M111.45 151.85 L121.0 142.3 130.55 151.85 121.0 161.4 111.45 151.85" fill="#8c7237" fill-opacity="0.5019608" fill-rule="evenodd" stroke="none"/>
      <path d="M72.0 220.5 L72.0 -17.0 92.0 -17.0 92.0 29.0 91.55 29.0 92.0 54.95 91.55 56.0 92.0 56.0 92.0 139.0 91.55 166.0 92.0 166.0 92.0 220.5 72.0 220.5 M482.0 -17.0 L502.0 -17.0 502.0 220.5 482.0 220.5 482.0 166.0 482.5 166.0 482.0 139.0 482.0 56.0 482.5 56.0 482.0 29.0 482.0 -17.0" fill="#cf2f1f" fill-rule="evenodd" stroke="none"/>
      <path d="M212.0 -17.0 L222.0 -17.0 222.0 220.5 212.0 220.5 212.0 -17.0 M352.0 -17.0 L362.0 -17.0 362.0 220.5 352.0 220.5 352.0 -17.0" fill="#4c2417" fill-rule="evenodd" stroke="none"/>
      <path d="M482.0 223.0 L361.0 460.5 241.0 460.5 362.0 223.0 482.0 223.0 M212.0 223.0 L91.0 460.5 -29.0 460.5 92.0 223.0 212.0 223.0 M101.0 460.5 L222.0 223.0 352.0 223.0 231.0 460.5 101.0 460.5" fill="url(#gradient1)" fill-rule="evenodd" stroke="none"/>
      <path d="M482.0 29.0 L482.5 56.0 482.0 56.0 482.0 29.0 M482.0 139.0 L482.5 166.0 482.0 166.0 482.0 139.0 M92.0 56.0 L91.55 56.0 92.0 54.95 91.55 29.0 92.0 29.0 92.0 54.95 92.0 56.0 M92.0 166.0 L91.55 166.0 92.0 139.0 92.0 166.0" fill="#f3cb6c" fill-opacity="0.5019608" fill-rule="evenodd" stroke="none"/>
      <path d="M462.55 41.85 L453.0 32.3 443.45 41.85 453.0 51.4 462.55 41.85 M482.0 29.0 L482.0 56.0 363.55 56.0 363.55 29.0 482.0 29.0 M482.0 166.0 L363.55 166.0 363.55 139.0 482.0 139.0 482.0 166.0 M393.0 161.4 L402.55 151.85 393.0 142.3 383.45 151.85 393.0 161.4 M351.0 29.0 L351.0 56.0 224.55 56.0 224.55 29.0 351.0 29.0 M402.55 41.85 L393.0 32.3 383.45 41.85 393.0 51.4 402.55 41.85 M453.0 161.4 L462.55 151.85 453.0 142.3 443.45 151.85 453.0 161.4 M351.0 139.0 L351.0 166.0 224.55 166.0 224.55 139.0 351.0 139.0 M181.0 32.3 L171.45 41.85 181.0 51.4 190.55 41.85 181.0 32.3 M257.0 32.3 L247.45 41.85 257.0 51.4 266.55 41.85 257.0 32.3 M317.0 32.3 L307.45 41.85 317.0 51.4 326.55 41.85 317.0 32.3 M92.0 29.0 L210.5 29.0 210.5 56.0 92.0 56.0 92.0 54.95 92.0 29.0 M92.0 139.0 L210.5 139.0 210.5 166.0 92.0 166.0 92.0 139.0 M121.0 32.3 L111.45 41.85 121.0 51.4 130.55 41.85 121.0 32.3 M307.45 151.85 L317.0 161.4 326.55 151.85 317.0 142.3 307.45 151.85 M257.0 161.4 L266.55 151.85 257.0 142.3 247.45 151.85 257.0 161.4 M181.0 161.4 L190.55 151.85 181.0 142.3 171.45 151.85 181.0 161.4 M111.45 151.85 L121.0 161.4 130.55 151.85 121.0 142.3 111.45 151.85" fill="#f1c152" fill-opacity="0.7529412" fill-rule="evenodd" stroke="none"/>
      <path d="M72.0 220.5 L72.0 -17.0 92.0 -17.0 212.0 -17.0 222.0 -17.0 352.0 -17.0 362.0 -17.0 482.0 -17.0 502.0 -17.0 502.0 220.5 559.85 220.5 M482.0 56.0 L482.0 139.0 M482.0 166.0 L482.0 220.5 502.0 220.5 M482.0 56.0 L482.0 29.0 M482.0 166.0 L482.0 139.0 M362.0 220.5 L352.0 220.5 222.0 220.5 212.0 220.5 92.0 220.5 72.0 220.5 -1.0 220.5 M362.0 220.5 L482.0 220.5 M92.0 56.0 L92.0 139.0 92.0 166.0 92.0 220.5 M92.0 29.0 L92.0 -17.0 M92.0 56.0 L92.0 54.95 92.0 29.0 M352.0 -17.0 L352.0 220.5 M482.0 -17.0 L482.0 29.0 M362.0 -17.0 L362.0 220.5 M212.0 220.5 L212.0 -17.0 M222.0 -17.0 L222.0 220.5" fill="none" stroke="#000000" stroke-linecap="round" stroke-linejoin="round" stroke-width="5.0"/>
    </g>
    <linearGradient gradientTransform="matrix(0.0, 0.1242, -0.1456, 0.0, 289.5, 100.25)" gradientUnits="userSpaceOnUse" id="gradient0" spreadMethod="pad" x1="-819.2" x2="819.2">
      <stop offset="0.0" stop-color="#a2daff"/>
      <stop offset="1.0" stop-color="#387e9c"/>
    </linearGradient>
    <linearGradient gradientTransform="matrix(-0.0642, 0.126, -0.145, 0.0, 100.0, 329.0)" gradientUnits="userSpaceOnUse" id="gradient1" spreadMethod="pad" x1="-819.2" x2="819.2">
      <stop offset="0.0" stop-color="#fff5a2" stop-opacity="0.5019608"/>
      <stop offset="1.0" stop-color="#d5bf00" stop-opacity="0.0"/>
    </linearGradient>
  </defs>
</svg>
