<?xml version="1.0" encoding="UTF-8" standalone="no"?>
<svg xmlns:xlink="http://www.w3.org/1999/xlink" height="842.55px" width="1337.95px" xmlns="http://www.w3.org/2000/svg">
  <g transform="matrix(1, 0, 0, 1, 407.45, 285.05)">
    <use height="4.5" transform="matrix(5.4867, 0.0, 0.0, 81.5667, 3.2875, 23.0167)" width="99.75" xlink:href="#shape0"/>
    <use height="530.15" transform="matrix(0.8713, 0.0, 0.0, 0.8713, -7.786, -42.3248)" width="647.25" xlink:href="#sprite0"/>
  </g>
  <defs>
    <g id="shape0" transform="matrix(1, 0, 0, 1, 49.85, -2.5)">
      <path d="M49.9 7.0 L-49.85 7.0 -49.85 2.5 49.9 2.5 49.9 7.0" fill="#ffffff" fill-rule="evenodd" stroke="none"/>
    </g>
    <g id="sprite0" transform="matrix(1, 0, 0, 1, 280.3, 215.1)">
      <use height="530.15" transform="matrix(1.0, 0.0, 0.0, 1.0, -280.3, -215.1)" width="647.25" xlink:href="#shape1"/>
    </g>
    <g id="shape1" transform="matrix(1, 0, 0, 1, 280.3, 215.1)">
      <path d="M364.95 127.95 L-275.0 127.95 -275.0 -200.0 364.95 -200.0 364.95 127.95" fill="url(#gradient0)" fill-rule="evenodd" stroke="none"/>
      <path d="M364.95 127.95 L-275.0 127.95 -275.0 -200.0 364.95 -200.0 364.95 127.95" fill="none" stroke="#fe5f5f" stroke-linecap="round" stroke-linejoin="round" stroke-opacity="0.0" stroke-width="4.0"/>
      <path d="M58.55 -205.4 Q63.1 -207.25 68.0 -207.25 L83.3 -205.2 Q102.4 -205.2 115.6 -210.15 L124.1 -213.55 Q128.35 -215.1 132.1 -215.1 161.7 -215.1 161.7 -202.65 161.7 -183.45 122.2 -183.45 117.0 -183.45 104.75 -188.95 L93.3 -194.45 Q72.85 -188.7 70.25 -188.7 61.85 -188.7 59.35 -194.0 58.45 -195.9 58.45 -200.2 L54.85 -199.95 54.15 -200.2 Q54.05 -200.25 54.05 -201.65 54.05 -203.55 58.55 -205.4 M147.1 -161.05 Q148.0 -161.85 154.75 -164.85 160.05 -167.75 163.1 -168.6 L170.15 -169.25 181.4 -168.6 Q190.9 -168.15 202.3 -168.45 203.25 -168.45 218.8 -175.5 L234.4 -182.55 Q236.6 -182.55 247.6 -177.05 259.2 -171.25 261.25 -170.85 264.0 -170.3 269.85 -164.05 275.4 -158.1 277.8 -158.1 293.75 -158.1 299.25 -160.8 302.2 -162.25 304.05 -162.65 L315.5 -163.5 Q321.9 -163.5 325.05 -153.7 325.95 -150.95 327.65 -140.1 L339.7 -141.0 Q351.2 -141.0 355.05 -135.9 356.8 -133.55 356.8 -129.2 356.8 -117.95 353.95 -110.35 352.0 -105.25 348.2 -99.95 L348.25 -99.15 Q348.25 -94.55 335.65 -88.1 329.9 -85.15 324.85 -83.5 L324.75 -83.45 Q320.8 -80.15 319.55 -80.15 L313.7 -80.95 313.85 -80.95 317.7 -81.85 313.7 -81.6 311.35 -81.9 310.55 -81.6 309.0 -81.05 309.2 -80.95 Q308.4 -80.5 306.55 -80.3 303.0 -79.35 300.3 -79.35 297.1 -79.35 295.95 -81.25 L293.6 -82.1 Q288.65 -84.1 287.95 -84.1 L257.9 -72.3 Q256.3 -71.65 246.2 -71.1 L214.6 -68.9 Q211.15 -68.6 204.8 -66.3 199.0 -64.2 194.0 -64.2 189.4 -64.2 186.6 -67.15 184.45 -70.3 183.65 -70.7 179.95 -72.55 172.3 -71.4 164.35 -70.25 158.55 -72.75 156.6 -73.55 152.2 -79.0 148.45 -83.65 144.95 -83.65 142.7 -83.65 139.1 -81.8 L132.05 -77.75 Q121.9 -71.85 114.7 -71.85 104.5 -71.85 96.6 -84.1 93.3 -89.25 92.0 -94.55 90.65 -99.95 91.95 -103.45 60.4 -105.15 54.0 -110.55 L49.9 -115.55 Q47.6 -118.35 43.1 -120.35 L42.45 -119.1 41.25 -119.15 Q40.9 -119.2 40.9 -120.55 40.9 -126.15 45.95 -131.9 51.95 -138.8 61.7 -140.45 L102.2 -146.7 Q120.05 -149.1 131.45 -151.35 134.3 -151.9 139.7 -155.4 144.45 -158.5 147.1 -161.05 M46.0 -124.05 L46.05 -124.05 46.0 -124.05 M328.0 12.35 Q324.8 13.45 320.45 15.9 L312.8 20.1 Q302.55 25.05 288.15 25.05 284.6 25.05 283.0 22.4 L281.4 18.3 Q273.3 21.7 266.25 23.95 252.9 28.2 239.8 28.2 230.6 28.2 227.65 22.7 226.7 20.95 226.5 18.85 L226.5 16.95 226.55 8.5 Q226.75 4.7 227.8 2.55 230.15 -2.1 240.9 -4.1 237.35 -5.5 235.05 -6.65 L233.8 -7.35 231.7 -6.15 229.2 -8.6 Q229.2 -9.4 230.35 -10.15 L229.65 -11.3 231.0 -11.4 232.7 -11.2 234.2 -11.7 Q239.2 -13.1 245.2 -13.1 249.0 -13.1 258.95 -9.4 268.85 -5.7 274.1 -5.7 279.65 -5.7 287.6 -7.6 295.5 -9.5 303.35 -9.5 338.35 -9.5 338.35 4.0 338.35 7.8 335.65 10.05 L334.3 9.6 334.9 8.35 334.05 8.85 327.85 12.05 328.0 12.35 M239.8 -8.6 L239.3 -8.6 239.8 -8.3 239.8 -8.6 M296.05 -51.45 Q298.4 -53.05 304.35 -53.35 313.15 -54.95 325.85 -54.95 328.45 -54.95 339.25 -46.95 342.5 -45.4 350.6 -45.9 L354.55 -45.55 Q356.1 -44.75 356.1 -42.25 356.1 -41.15 337.3 -34.6 318.55 -28.05 315.5 -28.05 315.85 -31.4 312.95 -34.9 307.1 -41.8 289.5 -42.25 289.05 -42.0 289.05 -44.25 289.05 -48.3 295.4 -50.9 L296.05 -51.45 M311.9 -42.75 L311.95 -42.55 311.9 -42.75 M166.4 25.9 Q164.2 26.85 154.5 26.85 L151.5 26.75 152.95 27.95 152.75 28.8 151.0 29.1 Q146.25 29.1 143.35 26.45 L140.25 22.45 139.8 22.0 137.95 19.45 Q136.65 18.15 135.2 17.8 133.9 19.5 132.35 20.55 131.65 20.55 131.45 19.85 L132.85 17.6 Q130.0 17.8 125.8 19.85 124.45 19.65 124.25 18.95 126.55 18.35 128.9 17.25 130.6 16.65 133.5 16.55 L134.8 14.1 Q135.45 14.1 146.85 18.2 159.6 22.4 166.65 23.0 L167.8 24.15 Q167.65 25.4 166.4 25.9 M136.4 15.9 L136.0 16.65 136.85 16.85 136.4 15.9 M100.05 22.1 Q89.05 25.95 86.35 25.95 L78.35 24.15 69.9 23.3 60.8 23.0 Q56.65 24.6 54.4 24.6 L52.6 23.9 Q55.3 22.4 57.2 20.2 59.8 18.75 70.25 18.75 84.05 18.75 88.6 20.45 93.15 22.1 100.05 22.1 M-138.65 -208.15 Q-131.8 -204.25 -131.8 -203.2 -131.8 -200.65 -137.45 -197.15 -143.15 -193.7 -143.15 -190.95 -143.15 -189.0 -139.95 -185.85 -136.6 -182.55 -133.95 -182.55 -125.85 -182.55 -123.75 -184.65 L-122.25 -186.15 Q-121.1 -186.8 -118.55 -186.8 L-116.05 -186.35 -115.6 -184.35 Q-115.6 -183.5 -118.45 -179.45 -121.6 -175.05 -125.45 -170.7 -136.25 -158.55 -142.25 -158.55 -146.9 -158.55 -152.7 -165.65 L-157.8 -172.95 Q-159.5 -175.0 -167.45 -179.05 -176.5 -183.65 -178.6 -185.25 -181.6 -187.5 -197.85 -190.15 -215.4 -193.0 -216.75 -193.55 -220.55 -195.1 -226.75 -195.05 L-237.45 -194.45 Q-243.45 -194.2 -246.6 -195.35 -250.75 -196.85 -252.05 -201.2 -251.25 -202.3 -246.1 -202.1 L-246.1 -207.25 -245.0 -208.15 Q-242.05 -206.85 -241.6 -205.4 -241.3 -204.45 -241.15 -201.75 L-240.7 -200.85 Q-231.25 -205.2 -147.65 -212.1 -145.55 -212.1 -138.65 -208.15 M-229.1 -199.85 L-227.45 -200.3 Q-231.6 -200.3 -234.2 -199.4 L-234.4 -199.05 -229.1 -199.85 M-236.0 -101.4 L-244.5 -102.1 Q-251.5 -102.9 -252.85 -103.65 -253.2 -102.15 -256.5 -99.45 -259.85 -96.7 -261.5 -96.7 -261.95 -96.7 -269.0 -109.85 L-268.55 -111.75 -262.85 -111.45 Q-261.3 -112.2 -260.6 -112.65 L-259.7 -113.1 Q-263.05 -113.1 -264.7 -114.95 -265.85 -116.2 -265.85 -117.6 -265.85 -119.15 -264.85 -120.0 L-261.5 -122.45 Q-247.65 -116.95 -241.4 -117.65 L-235.9 -118.6 Q-232.2 -119.15 -227.45 -118.65 -222.35 -118.05 -222.35 -113.25 -222.35 -109.95 -228.35 -105.45 -233.75 -101.4 -236.0 -101.4" fill="url(#gradient1)" fill-rule="evenodd" stroke="none"/>
      <path d="M327.85 12.05 L328.1 12.3 328.0 12.35 327.85 12.05" fill="url(#gradient2)" fill-rule="evenodd" stroke="none"/>
      <path d="M216.65 -28.35 L217.3 -27.85 216.6 -28.3 216.65 -28.35" fill="url(#gradient3)" fill-rule="evenodd" stroke="none"/>
      <path d="M-179.45 -127.65 Q-179.45 -129.75 -169.55 -131.7 -161.45 -133.3 -158.0 -133.3 -150.3 -133.3 -147.0 -130.9 -143.65 -128.55 -139.2 -128.55 L-124.8 -130.15 Q-123.35 -130.15 -115.0 -134.75 -106.65 -139.35 -100.6 -139.35 -91.25 -139.35 -66.2 -122.7 -66.2 -115.55 -70.7 -108.65 -77.45 -98.3 -91.15 -98.3 -92.75 -98.3 -100.75 -100.3 -108.7 -102.35 -114.55 -102.35 -121.5 -102.35 -123.0 -97.4 L-124.1 -94.0 Q-124.95 -92.45 -127.05 -92.45 -138.6 -92.45 -155.8 -109.15 L-167.0 -120.65 Q-172.1 -125.85 -173.5 -125.85 L-175.2 -126.15 -175.2 -124.75 Q-175.2 -123.45 -175.4 -123.45 L-176.1 -123.4 Q-179.45 -125.4 -179.45 -127.65" fill="url(#gradient4)" fill-rule="evenodd" stroke="none"/>
      <path d="M-264.5 -16.05 L-263.55 -16.2 Q-263.1 -20.25 -256.4 -23.65 -250.0 -26.95 -244.7 -26.95 -240.6 -26.95 -236.2 -24.65 -231.75 -22.35 -226.95 -22.35 L-207.5 -24.15 Q-206.35 -24.15 -204.4 -23.25 -202.4 -22.35 -201.3 -22.35 -191.5 -22.35 -185.1 -25.3 -178.7 -28.3 -172.6 -28.3 -149.9 -28.3 -134.9 -17.4 -129.65 -13.6 -126.35 -9.15 -123.65 -5.55 -123.65 -3.8 -123.65 -1.45 -126.2 -0.3 -128.05 0.55 -133.4 1.45 -149.25 4.1 -159.1 8.15 -157.85 9.5 -143.85 13.85 -139.0 15.35 -135.5 16.75 -124.5 16.55 -121.75 18.5 -119.9 19.85 -117.65 20.3 L-104.2 21.2 -98.75 19.45 Q-93.55 17.6 -90.7 17.35 -101.4 26.35 -105.8 26.35 L-128.0 24.9 -151.0 23.45 Q-153.95 23.45 -156.55 22.35 L-162.05 19.6 -173.95 16.25 Q-185.55 18.6 -187.55 19.4 -192.5 21.2 -211.55 22.1 -215.15 22.1 -217.6 19.85 -218.8 18.75 -221.3 14.9 -223.55 11.45 -225.6 9.95 -228.7 7.7 -233.45 7.7 -235.5 7.7 -239.5 9.3 -243.5 10.85 -246.05 10.85 -250.7 10.85 -254.2 8.9 L-258.0 6.2 -258.0 4.1 -265.4 4.4 -268.1 3.95 Q-268.7 3.4 -268.7 1.15 -268.7 -0.05 -265.0 -2.75 -261.35 -5.45 -261.35 -7.15 -261.35 -8.1 -263.05 -10.85 -264.75 -13.65 -264.75 -14.25 L-264.5 -16.05 M-257.55 -1.2 L-257.55 -1.9 -257.75 -1.2 -257.55 -1.2 M-252.4 4.5 L-252.4 3.8 -253.85 3.9 -252.4 4.5" fill="url(#gradient5)" fill-rule="evenodd" stroke="none"/>
      <path d="M66.15 -61.4 Q70.5 -60.2 86.75 -56.8 L99.4 -54.0 100.9 -55.05 Q106.25 -58.5 110.8 -58.5 114.1 -58.5 116.9 -55.45 L119.5 -52.4 Q130.45 -52.4 140.2 -54.4 150.0 -56.45 158.75 -56.45 185.35 -56.45 200.05 -47.55 204.95 -44.55 207.85 -41.0 209.95 -38.35 209.95 -37.1 209.95 -32.1 202.45 -29.3 192.3 -26.4 187.0 -23.95 L186.35 -24.45 186.3 -24.4 Q183.55 -22.0 177.4 -18.45 166.85 -12.4 165.25 -11.1 162.85 -9.15 154.15 -4.65 145.25 0.0 143.55 0.0 L140.85 -0.2 140.65 -0.45 140.45 -0.4 Q133.8 1.6 114.85 1.6 86.45 1.6 73.0 -4.75 69.5 -6.4 66.0 -9.1 63.5 -11.1 62.35 -11.1 48.5 -11.1 41.9 -7.0 38.35 -4.8 36.55 -4.2 32.85 -2.9 26.45 -2.9 10.3 -2.9 -19.85 -11.7 L-46.8 -20.55 -68.4 -19.3 -78.85 -18.1 Q-85.8 -18.1 -88.25 -20.05 L-92.8 -19.9 Q-104.55 -19.9 -107.75 -24.6 -108.9 -26.25 -108.9 -31.35 -108.9 -32.8 -106.4 -35.2 L-106.2 -35.4 -106.3 -35.45 Q-113.5 -37.9 -115.1 -39.1 -116.55 -40.15 -116.55 -42.85 -116.55 -46.0 -112.4 -48.9 L-118.8 -48.15 Q-124.1 -48.15 -126.4 -50.15 -127.8 -51.4 -127.8 -52.85 -127.8 -56.7 -121.85 -62.6 -122.4 -63.55 -122.4 -64.65 -122.4 -69.3 -112.0 -77.7 -101.45 -86.25 -95.05 -86.25 -93.05 -86.25 -88.5 -84.05 L-78.5 -79.2 Q-67.15 -74.2 -55.15 -72.75 -54.25 -74.4 -49.7 -76.35 L-48.25 -78.65 Q-44.25 -83.75 -36.6 -83.75 -31.7 -83.75 -28.3 -81.6 L-24.2 -81.75 Q-16.55 -81.75 -8.35 -75.4 -3.8 -71.85 -2.45 -71.05 0.9 -69.05 4.05 -69.05 7.15 -69.05 21.05 -71.5 L35.9 -74.0 Q39.05 -74.0 51.05 -68.25 64.25 -61.9 66.15 -61.4 M164.15 -16.4 L163.95 -15.65 164.4 -16.0 164.15 -16.4 M161.75 -14.0 L160.1 -13.3 160.35 -13.0 161.75 -14.0 M-89.65 -22.8 L-89.9 -22.0 -89.5 -21.85 -89.65 -22.8" fill="url(#gradient6)" fill-rule="evenodd" stroke="none"/>
      <path d="M150.7 -0.5 Q193.25 42.05 193.25 102.1 193.25 162.15 150.7 204.65 108.25 247.15 48.2 247.15 -11.9 247.15 -54.4 204.65 -96.85 162.15 -96.85 102.1 -96.85 42.05 -54.4 -0.5 -11.9 -42.95 48.2 -42.95 108.25 -42.95 150.7 -0.5" fill="url(#gradient7)" fill-rule="evenodd" stroke="none"/>
      <path d="M256.45 76.7 Q277.6 55.8 307.95 46.0 317.05 50.65 330.0 45.75 346.2 40.75 364.95 50.0 L364.95 99.5 335.3 99.5 Q324.95 82.9 314.95 90.5 306.2 92.0 297.0 81.8 289.25 83.25 286.0 80.45 278.2 73.15 267.95 75.0 L256.45 76.7 M8.2 103.2 Q53.0 80.15 63.45 90.0 81.0 72.95 120.0 67.5 60.3 102.2 38.0 124.5 27.0 109.8 8.2 103.2" fill="#c7b2bb" fill-rule="evenodd" stroke="none"/>
      <path d="M267.95 75.0 Q278.2 73.15 286.0 80.45 289.25 83.25 297.0 81.8 306.2 92.0 314.95 90.5 324.95 82.9 335.3 99.5 L328.45 100.0 Q321.9 94.8 310.5 108.7 275.5 125.8 244.0 148.65 231.5 158.0 223.95 155.5 174.2 173.55 154.95 156.0 135.25 148.55 102.95 160.0 65.55 175.25 20.0 164.5 4.35 159.8 -16.5 167.35 -105.3 175.35 -134.85 149.0 -127.85 146.65 -125.5 145.5 L-76.6 119.8 -56.05 109.0 Q-48.7 107.25 -38.55 114.0 L-26.5 123.3 Q-2.7 125.45 3.95 120.0 L27.5 141.55 Q56.35 141.55 76.45 152.0 96.3 158.85 117.95 141.0 132.4 139.85 141.0 128.45 150.95 111.15 169.5 109.65 176.6 99.75 191.0 99.4 209.4 89.15 226.5 88.15 L267.95 75.0" fill="#6a648a" fill-rule="evenodd" stroke="none"/>
      <path d="M364.95 99.5 L364.95 315.05 -274.0 315.05 -274.0 115.6 Q-265.15 113.65 -243.0 116.1 -239.4 112.1 -227.5 108.95 -213.15 109.2 -196.25 118.5 L-193.0 121.0 -156.45 137.0 Q-140.3 147.05 -134.85 149.0 -105.3 175.35 -16.5 167.35 4.35 159.8 20.0 164.5 65.55 175.25 102.95 160.0 135.25 148.55 154.95 156.0 174.2 173.55 223.95 155.5 231.5 158.0 244.0 148.65 275.5 125.8 310.5 108.7 321.9 94.8 328.45 100.0 L335.3 99.5 364.95 99.5" fill="#515177" fill-rule="evenodd" stroke="none"/>
      <path d="M-212.8 59.1 Q-199.75 49.85 -191.0 49.2 L-164.0 37.0 -154.5 40.6 Q-135.05 38.55 -131.0 46.5 -122.4 49.9 -113.0 51.25 -99.1 45.1 -93.5 51.9 L-68.0 68.6 Q-55.25 82.0 -37.0 86.25 -15.1 82.75 4.45 102.0 L8.2 103.2 Q27.0 109.8 38.0 124.5 60.3 102.2 120.0 67.5 133.85 59.85 155.0 58.0 161.0 68.25 183.95 58.0 197.85 60.8 213.5 74.2 224.6 80.65 256.45 76.7 L267.95 75.0 226.5 88.15 Q209.4 89.15 191.0 99.4 176.6 99.75 169.5 109.65 150.95 111.15 141.0 128.45 132.4 139.85 117.95 141.0 96.3 158.85 76.45 152.0 56.35 141.55 27.5 141.55 L3.95 120.0 Q-2.7 125.45 -26.5 123.3 L-38.55 114.0 Q-48.7 107.25 -56.05 109.0 L-76.6 119.8 Q-88.35 118.5 -103.5 124.45 -118.35 119.2 -130.0 124.0 -135.55 118.9 -144.0 122.75 L-150.4 112.5 -163.5 105.0 Q-183.9 89.65 -194.5 66.0 -203.45 61.6 -212.8 59.1" fill="#9c85a2" fill-rule="evenodd" stroke="none"/>
      <path d="M-274.0 115.6 L-274.0 61.8 Q-239.65 51.85 -212.8 59.1 -203.45 61.6 -194.5 66.0 -183.9 89.65 -163.5 105.0 L-150.4 112.5 -144.0 122.75 Q-135.55 118.9 -130.0 124.0 -118.35 119.2 -103.5 124.45 -88.35 118.5 -76.6 119.8 L-125.5 145.5 Q-127.85 146.65 -134.85 149.0 -140.3 147.05 -156.45 137.0 L-193.0 121.0 -196.25 118.5 Q-213.15 109.2 -227.5 108.95 -239.4 112.1 -243.0 116.1 -265.15 113.65 -274.0 115.6" fill="#5c608d" fill-rule="evenodd" stroke="none"/>
      <path d="M364.95 50.0 L357.85 45.85 Q353.9 43.5 350.2 43.7 346.5 43.95 342.15 43.6 L334.15 44.0 Q330.5 44.75 329.5 45.8 328.55 46.85 319.5 49.35 310.5 51.9 309.2 47.6 307.95 43.3 302.2 45.95 296.5 48.65 294.35 48.15 292.2 47.7 289.6 54.1 287.0 60.55 282.55 62.65 278.1 64.75 273.0 65.1 267.95 65.5 266.5 70.0 265.1 74.5 263.5 72.85 262.1 71.45 257.9 75.35 L260.95 75.6 262.55 76.0 266.95 73.25 Q270.35 70.5 267.95 75.0 273.45 78.75 275.8 76.6 278.2 74.45 283.4 75.4 288.6 76.4 290.45 82.3 292.3 88.2 294.9 86.95 297.55 85.75 303.0 87.3 308.45 88.9 311.7 89.25 314.95 89.65 320.95 89.2 327.0 88.75 328.0 90.05 329.0 91.4 327.7 93.9 326.45 96.45 335.3 99.5 335.9 103.15 341.4 103.9 L348.45 104.8 354.9 105.15 Q359.85 105.4 364.95 99.5 M335.3 99.5 Q328.0 103.1 325.6 103.95 323.25 104.85 317.3 106.45 311.4 108.05 311.25 110.8 311.1 113.6 308.35 112.15 305.65 110.75 301.4 111.3 297.15 111.85 293.55 115.45 289.95 119.1 283.75 120.25 L274.45 122.35 Q271.3 123.35 271.65 127.5 272.05 131.7 266.95 133.8 261.85 135.9 259.25 137.55 L253.55 140.9 Q250.5 142.55 246.1 146.65 241.7 150.75 238.8 152.45 235.9 154.15 232.8 155.05 L225.15 157.65 Q220.55 159.35 216.9 157.6 213.25 155.85 209.2 159.55 205.2 163.25 204.15 160.45 203.1 157.7 197.75 162.0 192.45 166.35 188.0 166.65 183.6 166.95 177.7 164.1 171.85 161.25 169.95 161.85 168.05 162.45 162.8 160.6 157.6 158.75 155.35 159.7 153.1 160.7 146.2 156.8 139.35 152.95 136.0 153.65 L132.95 154.45 126.55 155.1 118.85 155.95 Q117.85 156.25 109.55 159.85 101.25 163.5 99.4 161.35 97.6 159.2 94.5 163.0 91.45 166.8 86.7 166.05 82.0 165.35 78.2 169.4 74.45 173.45 70.3 173.45 66.15 173.45 62.6 170.15 59.05 166.85 52.9 167.65 46.75 168.45 45.75 169.6 44.75 170.75 37.15 166.9 29.55 163.05 27.3 166.9 25.1 170.8 21.75 168.9 18.45 167.0 16.95 164.05 15.5 161.1 6.95 162.2 -1.6 163.3 -3.35 164.1 -5.1 164.9 -8.75 164.95 L-14.9 165.65 Q-17.45 166.3 -25.25 165.4 -33.05 164.5 -35.65 165.2 L-43.75 167.25 -50.85 168.95 -55.3 169.55 -64.55 170.6 Q-70.95 171.5 -72.55 167.4 -74.1 163.3 -78.6 165.05 -83.05 166.85 -85.0 165.8 -86.9 164.8 -92.75 164.95 -98.55 165.1 -102.85 164.05 -107.15 163.05 -111.75 163.85 -116.3 164.65 -119.75 160.95 -123.15 157.25 -125.7 156.1 -128.25 154.95 -129.6 154.5 -130.95 154.1 -134.85 149.0 -142.3 143.95 -144.2 144.15 -146.05 144.4 -147.05 140.9 -148.0 137.45 -151.7 136.45 -155.35 135.5 -160.3 131.8 -165.25 128.1 -170.45 130.35 -175.6 132.65 -175.9 129.7 -176.2 126.75 -181.75 122.5 -187.25 118.3 -190.1 119.75 -192.95 121.25 -199.0 116.85 -205.0 112.45 -207.25 110.35 -209.45 108.3 -213.0 109.3 -216.5 110.35 -217.55 108.95 -218.6 107.6 -225.4 107.6 -232.15 107.65 -236.9 111.0 -241.6 114.35 -246.65 114.65 -251.65 114.95 -255.5 114.6 -259.3 114.3 -260.0 115.9 -260.65 117.5 -263.8 117.45 L-275.5 116.0 M257.9 75.35 L256.45 76.7 Q253.1 76.25 248.45 76.55 243.8 76.9 239.75 75.8 L230.25 73.6 Q224.85 72.55 222.3 76.7 219.8 80.85 216.3 77.15 212.85 73.45 211.5 70.35 210.15 67.25 204.95 63.15 199.75 59.1 196.35 62.75 192.95 66.45 188.2 60.3 183.45 54.2 180.15 57.35 176.9 60.55 173.85 61.5 170.85 62.45 168.15 62.25 L159.45 60.85 Q153.45 59.65 148.8 61.45 144.15 63.25 141.6 60.25 139.05 57.3 135.2 60.85 131.4 64.4 127.55 63.45 123.7 62.5 120.0 67.5 114.85 75.1 109.55 74.25 104.3 73.45 103.75 74.25 L99.0 79.4 Q94.8 83.75 92.75 83.4 90.7 83.05 87.6 87.15 84.5 91.25 80.15 93.25 75.85 95.3 72.6 100.05 69.35 104.85 63.3 104.5 57.3 104.2 55.1 106.25 52.9 108.3 48.7 111.6 44.5 114.9 43.85 117.15 43.2 119.4 40.35 123.25 37.55 127.15 35.95 122.7 34.4 118.3 29.95 115.5 25.55 112.75 21.85 109.9 18.2 107.1 15.25 103.95 12.3 100.85 8.2 103.2 5.6 100.2 2.4 101.6 -0.75 103.05 -4.9 97.9 -9.0 92.75 -9.35 90.0 -9.65 87.3 -17.75 86.95 L-28.75 86.25 Q-31.65 85.9 -34.55 87.4 -37.45 88.95 -43.75 86.35 -50.05 83.75 -53.95 79.35 -57.8 74.95 -58.15 72.95 -58.5 70.95 -61.95 70.75 -65.35 70.6 -71.35 69.0 -77.3 67.4 -77.75 62.3 -78.2 57.2 -80.6 55.25 -82.95 53.35 -85.6 53.0 L-93.2 53.6 Q-98.1 54.55 -102.85 51.65 -107.6 48.75 -112.15 52.35 -116.65 56.0 -119.25 53.95 -121.85 51.9 -125.3 47.35 -128.75 42.8 -132.9 43.1 -137.0 43.45 -137.4 40.75 -137.8 38.05 -147.15 36.75 L-156.6 37.0 Q-156.75 38.55 -161.45 38.2 -166.1 37.85 -170.4 39.5 -174.7 41.15 -177.55 42.65 -180.4 44.15 -184.1 44.45 -187.75 44.75 -194.5 48.45 -201.2 52.15 -200.55 53.3 -199.85 54.45 -202.5 58.05 -204.65 61.05 -210.25 59.8 -206.15 61.05 -205.55 61.9 -204.75 63.05 -200.65 61.8 -196.55 60.55 -196.65 66.8 -196.7 73.1 -192.95 74.55 -189.2 76.05 -184.65 80.6 -180.1 85.15 -179.7 88.5 -179.3 91.9 -176.45 94.9 -173.6 97.95 -169.75 100.2 L-161.0 105.35 Q-156.15 108.25 -154.5 107.9 -152.85 107.6 -150.3 110.55 -147.7 113.55 -144.7 120.0 -141.7 126.5 -138.35 126.0 -135.0 125.5 -131.15 123.6 -127.3 121.75 -123.8 122.0 L-116.15 122.45 -105.5 121.6 -97.8 121.35 -95.25 123.5 Q-93.9 124.95 -88.85 122.35 -83.75 119.8 -76.6 119.8 -76.15 118.0 -73.7 118.4 -71.2 118.85 -65.1 114.7 -59.0 110.6 -52.55 108.65 -46.05 106.75 -44.8 109.15 -43.55 111.6 -40.25 113.75 -36.9 115.95 -33.35 117.8 -29.8 119.7 -26.4 123.25 -23.0 126.8 -18.95 128.1 -14.85 129.45 -11.25 124.65 -7.65 119.85 -3.8 118.7 0.05 117.6 5.0 120.6 10.0 123.6 11.4 125.55 L14.9 130.55 Q17.0 133.6 19.85 136.1 22.75 138.65 28.35 139.8 33.95 140.95 35.65 139.85 37.35 138.8 39.6 141.2 41.85 143.6 48.2 141.05 54.55 138.5 57.6 142.75 60.7 147.05 65.55 148.0 70.4 148.95 74.3 152.6 78.2 156.3 81.85 154.75 85.5 153.2 89.2 153.15 L95.65 152.6 103.6 150.65 Q108.8 149.25 110.25 145.25 111.7 141.25 116.45 140.25 121.2 139.3 123.25 138.4 L129.8 135.25 Q134.35 133.05 135.15 128.25 135.95 123.5 138.8 124.9 141.65 126.35 147.95 124.0 154.3 121.65 156.95 117.3 159.6 113.0 164.05 112.2 168.55 111.45 171.45 107.55 L176.85 100.4 Q179.35 97.1 183.05 98.3 186.75 99.55 191.05 99.85 195.4 100.2 200.05 94.05 204.75 87.9 207.65 88.85 210.55 89.8 213.65 87.0 216.8 84.25 220.35 88.85 223.95 93.5 229.05 92.35 234.15 91.25 239.15 88.3 244.15 85.35 244.35 84.55 244.6 83.8 249.55 81.25 254.5 78.7 259.0 77.35 L262.55 76.0 Q265.25 76.45 267.95 75.0 M8.2 103.2 Q12.15 97.6 15.0 97.25 L21.75 96.0 30.65 93.8 Q35.65 92.55 38.15 93.85 40.65 95.2 44.35 91.4 48.1 87.6 49.45 87.85 L55.3 87.5 Q59.85 86.9 62.0 86.0 L70.25 85.6 Q76.4 86.1 79.9 81.8 83.45 77.5 88.15 76.2 92.9 74.95 96.45 71.85 100.05 68.75 102.6 70.25 105.2 71.8 109.95 68.8 114.7 65.8 113.8 66.75 112.9 67.7 120.0 67.5 M-134.85 149.0 Q-135.55 148.0 -132.55 144.7 -129.55 141.4 -123.25 141.3 -116.95 141.2 -112.2 138.8 -107.45 136.4 -103.45 135.25 -99.4 134.15 -97.25 131.75 -95.1 129.35 -91.85 127.2 -88.55 125.05 -85.15 124.6 -81.75 124.2 -79.55 124.6 -77.3 125.05 -76.6 119.8 M-278.0 63.0 Q-279.65 57.0 -272.85 57.7 -266.0 58.4 -261.45 56.5 -256.9 54.65 -253.8 55.15 -250.7 55.7 -246.7 53.85 -242.7 52.0 -238.5 53.45 -234.25 54.95 -227.85 58.0 -221.45 61.1 -220.6 58.9 -219.75 56.75 -217.2 57.7 L-212.8 59.1 -210.25 59.8" fill="none" stroke="#fe5f5f" stroke-linecap="round" stroke-linejoin="round" stroke-opacity="0.0" stroke-width="4.0"/>
      <path d="M204.25 -81.35 Q255.8 -29.75 255.85 43.15 255.8 116.0 204.25 167.5 152.7 219.1 79.85 219.1 6.95 219.1 -44.6 167.5 -96.1 116.0 -96.1 43.15 -96.1 -29.75 -44.6 -81.35 6.95 -132.85 79.85 -132.8 152.7 -132.85 204.25 -81.35" fill="url(#gradient8)" fill-rule="evenodd" stroke="none"/>
    </g>
    <linearGradient gradientTransform="matrix(0.0, -0.1331, 0.2002, 0.0, 59.85, -107.0)" gradientUnits="userSpaceOnUse" id="gradient0" spreadMethod="pad" x1="-819.2" x2="819.2">
      <stop offset="0.0" stop-color="#ffe6e1"/>
      <stop offset="1.0" stop-color="#e6e9ff"/>
    </linearGradient>
    <linearGradient gradientTransform="matrix(0.0, 0.1928, -0.0722, 0.0, 88.3, -54.2)" gradientUnits="userSpaceOnUse" id="gradient1" spreadMethod="pad" x1="-819.2" x2="819.2">
      <stop offset="0.0" stop-color="#a66964" stop-opacity="0.21176471"/>
      <stop offset="1.0" stop-color="#a66964" stop-opacity="0.14117648"/>
    </linearGradient>
    <linearGradient gradientTransform="matrix(0.0683, 0.0, 0.0, 0.0252, 282.4, 7.55)" gradientUnits="userSpaceOnUse" id="gradient2" spreadMethod="pad" x1="-819.2" x2="819.2">
      <stop offset="0.0" stop-color="#a66964" stop-opacity="0.21176471"/>
      <stop offset="1.0" stop-color="#a66964" stop-opacity="0.14117648"/>
    </linearGradient>
    <linearGradient gradientTransform="matrix(0.2061, 0.0, 0.0, 0.0536, 71.35, -46.25)" gradientUnits="userSpaceOnUse" id="gradient3" spreadMethod="pad" x1="-819.2" x2="819.2">
      <stop offset="0.0" stop-color="#a66964" stop-opacity="0.21176471"/>
      <stop offset="1.0" stop-color="#a66964" stop-opacity="0.14117648"/>
    </linearGradient>
    <linearGradient gradientTransform="matrix(0.0, 0.1928, -0.0722, 0.0, 59.65, -55.35)" gradientUnits="userSpaceOnUse" id="gradient4" spreadMethod="pad" x1="-819.2" x2="819.2">
      <stop offset="0.0" stop-color="#a66964" stop-opacity="0.21176471"/>
      <stop offset="1.0" stop-color="#a66964" stop-opacity="0.14117648"/>
    </linearGradient>
    <linearGradient gradientTransform="matrix(0.0, 0.1928, -0.0722, 0.0, -17.3, -64.8)" gradientUnits="userSpaceOnUse" id="gradient5" spreadMethod="pad" x1="-819.2" x2="819.2">
      <stop offset="0.0" stop-color="#a66964" stop-opacity="0.21176471"/>
      <stop offset="1.0" stop-color="#a66964" stop-opacity="0.14117648"/>
    </linearGradient>
    <linearGradient gradientTransform="matrix(0.0, 0.1928, -0.0722, 0.0, 58.0, -50.3)" gradientUnits="userSpaceOnUse" id="gradient6" spreadMethod="pad" x1="-819.2" x2="819.2">
      <stop offset="0.0" stop-color="#a66964" stop-opacity="0.21176471"/>
      <stop offset="1.0" stop-color="#a66964" stop-opacity="0.14117648"/>
    </linearGradient>
    <radialGradient cx="0" cy="0" gradientTransform="matrix(0.1801, 0.0, 0.0, 0.1801, 48.2, 102.1)" gradientUnits="userSpaceOnUse" id="gradient7" r="819.2" spreadMethod="pad">
      <stop offset="0.0" stop-color="#fefdab"/>
      <stop offset="0.26666666666666666" stop-color="#fefdb5"/>
      <stop offset="1.0" stop-color="#ffffd9" stop-opacity="0.0"/>
    </radialGradient>
    <radialGradient cx="0" cy="0" gradientTransform="matrix(0.2825, 0.0, 0.0, 0.2825, 79.9, 43.1)" gradientUnits="userSpaceOnUse" id="gradient8" r="819.2" spreadMethod="pad">
      <stop offset="0.2196078431372549" stop-color="#fefdb5" stop-opacity="0.0"/>
      <stop offset="0.25098039215686274" stop-color="#fefdb5" stop-opacity="0.42352942"/>
      <stop offset="0.27058823529411763" stop-color="#fefdb5" stop-opacity="0.0"/>
      <stop offset="0.6313725490196078" stop-color="#fefdb5" stop-opacity="0.0"/>
      <stop offset="0.6509803921568628" stop-color="#fefdab" stop-opacity="0.19215687"/>
      <stop offset="0.6666666666666666" stop-color="#ffffd9" stop-opacity="0.0"/>
    </radialGradient>
  </defs>
</svg>
