<?xml version="1.0" encoding="UTF-8" standalone="no"?>
<svg xmlns:xlink="http://www.w3.org/1999/xlink" height="842.55px" width="1337.95px" xmlns="http://www.w3.org/2000/svg">
  <g transform="matrix(1, 0, 0, 1, 407.45, 285.05)">
    <use height="4.5" transform="matrix(5.4867, 0.0, 0.0, 81.5667, 3.2875, 23.0167)" width="99.75" xlink:href="#shape0"/>
    <use height="400.5" transform="matrix(1.0, 0.0, 0.0, 1.0, -0.5, -0.2)" width="553.05" xlink:href="#shape1"/>
  </g>
  <defs>
    <g id="shape0" transform="matrix(1, 0, 0, 1, 49.85, -2.5)">
      <path d="M49.9 7.0 L-49.85 7.0 -49.85 2.5 49.9 2.5 49.9 7.0" fill="#ffffff" fill-rule="evenodd" stroke="none"/>
    </g>
    <g id="shape1" transform="matrix(1, 0, 0, 1, 0.5, 0.2)">
      <path d="M0.0 275.65 Q2.6 269.6 19.9 262.7 30.65 258.45 47.0 253.3 61.3 247.6 83.75 244.8 L101.9 242.85 119.0 240.55 144.0 240.3 Q163.9 240.3 174.6 241.2 186.35 242.2 195.85 245.0 204.3 247.45 216.75 253.15 L233.35 261.05 Q237.4 257.85 258.05 254.35 271.55 252.05 291.85 249.55 L302.85 249.3 Q330.4 249.3 387.55 271.1 L403.05 277.2 Q403.85 276.45 405.5 275.7 408.2 274.5 410.85 274.3 L411.35 274.4 Q417.9 270.35 445.85 265.85 479.9 260.3 501.35 260.3 545.6 260.3 548.6 261.05 549.9 261.4 549.55 262.85 549.3 263.9 550.0 264.95 L551.35 266.3 550.55 267.75 Q552.45 271.1 552.55 277.75 552.7 285.1 551.35 298.55 L551.35 332.3 551.35 366.8 Q551.2 372.35 551.65 383.65 551.6 391.3 550.0 397.05 L549.05 399.8 548.85 400.3 529.2 399.95 35.55 399.6 Q19.05 399.3 2.0 399.3 0.65 398.85 0.0 398.1 L-0.5 397.3 -0.5 278.05 -0.5 277.8 Q-0.5 276.75 0.0 275.65 M409.95 280.05 L411.7 280.75 411.85 280.3 410.7 279.75 409.95 280.05 M291.65 331.3 L292.25 332.95 Q293.75 335.3 306.85 335.3 L316.9 335.05 Q318.35 334.75 318.35 332.65 318.35 332.25 317.4 332.85 315.8 333.95 314.05 334.35 307.35 335.9 296.85 329.3 290.85 325.3 286.85 325.3 283.25 325.3 278.8 328.55 274.35 331.85 274.35 334.55 274.35 336.1 274.55 336.35 L275.35 336.8 277.35 337.3 Q278.1 337.3 281.85 333.95 285.6 330.55 288.6 330.55 291.1 330.55 291.65 331.3 M75.0 307.05 Q76.5 306.8 76.5 304.65 76.5 303.75 74.2 303.3 L53.25 301.8 Q51.95 301.8 49.65 300.05 47.3 298.3 45.0 298.3 37.2 298.3 30.55 302.3 24.5 305.95 24.5 309.05 24.5 310.85 24.65 311.3 25.1 312.65 27.0 313.3 L28.5 312.8 Q28.8 310.05 30.75 307.95 34.5 303.8 44.5 303.8 47.55 303.8 48.1 304.35 48.4 304.7 48.4 305.55 49.25 307.3 63.0 307.3 L75.0 307.05 M479.35 324.15 Q479.35 325.85 480.05 326.5 L481.85 327.3 Q483.05 326.55 485.5 324.25 488.3 322.3 492.85 322.3 493.65 322.3 494.25 323.25 L495.45 325.3 Q497.55 328.3 502.85 328.3 507.1 328.3 522.35 331.3 L524.35 331.0 524.85 330.3 525.2 330.2 525.35 328.8 Q520.0 321.3 513.35 321.3 501.25 321.3 498.4 318.8 L496.9 317.1 Q496.0 316.3 493.85 316.3 490.0 316.3 484.65 319.3 479.35 322.2 479.35 324.15" fill="#ffffff" fill-rule="evenodd" stroke="none"/>
      <path d="M479.35 324.15 Q479.35 322.2 484.65 319.3 490.0 316.3 493.85 316.3 496.0 316.3 496.9 317.1 L498.4 318.8 Q501.25 321.3 513.35 321.3 520.0 321.3 525.35 328.8 L525.2 330.2 524.85 330.3 524.35 331.0 522.35 331.3 Q507.1 328.3 502.85 328.3 497.55 328.3 495.45 325.3 L494.25 323.25 Q493.65 322.3 492.85 322.3 488.3 322.3 485.5 324.25 483.05 326.55 481.85 327.3 L480.05 326.5 Q479.35 325.85 479.35 324.15 M75.0 307.05 L63.0 307.3 Q49.25 307.3 48.4 305.55 48.4 304.7 48.1 304.35 47.55 303.8 44.5 303.8 34.5 303.8 30.75 307.95 28.8 310.05 28.5 312.8 L27.0 313.3 Q25.1 312.65 24.65 311.3 24.5 310.85 24.5 309.05 24.5 305.95 30.55 302.3 37.2 298.3 45.0 298.3 47.3 298.3 49.65 300.05 51.95 301.8 53.25 301.8 L74.2 303.3 Q76.5 303.75 76.5 304.65 76.5 306.8 75.0 307.05 M291.65 331.3 Q291.1 330.55 288.6 330.55 285.6 330.55 281.85 333.95 278.1 337.3 277.35 337.3 L275.35 336.8 274.55 336.35 Q274.35 336.1 274.35 334.55 274.35 331.85 278.8 328.55 283.25 325.3 286.85 325.3 290.85 325.3 296.85 329.3 307.35 335.9 314.05 334.35 315.8 333.95 317.4 332.85 318.35 332.25 318.35 332.65 318.35 334.75 316.9 335.05 L306.85 335.3 Q293.75 335.3 292.25 332.95 L291.65 331.3" fill="#eef3ff" fill-rule="evenodd" stroke="none"/>
      <path d="M0.0 275.65 L0.0 -0.2 550.0 -0.2 550.0 264.95 Q549.3 263.9 549.55 262.85 549.9 261.4 548.6 261.05 545.6 260.3 501.35 260.3 479.9 260.3 445.85 265.85 417.9 270.35 411.35 274.4 L410.85 274.3 Q408.2 274.5 405.5 275.7 403.85 276.45 403.05 277.2 L387.55 271.1 Q330.4 249.3 302.85 249.3 L291.85 249.55 Q271.55 252.05 258.05 254.35 237.4 257.85 233.35 261.05 L216.75 253.15 Q204.3 247.45 195.85 245.0 186.35 242.2 174.6 241.2 163.9 240.3 144.0 240.3 L119.0 240.55 101.9 242.85 83.75 244.8 Q61.3 247.6 47.0 253.3 30.65 258.45 19.9 262.7 2.6 269.6 0.0 275.65 M550.0 397.05 L550.0 399.8 549.05 399.8 550.0 397.05 M35.55 399.6 L0.0 399.8 0.0 398.1 Q0.65 398.85 2.0 399.3 19.05 399.3 35.55 399.6 M409.95 280.05 L410.7 279.75 411.85 280.3 411.7 280.75 409.95 280.05" fill="url(#gradient0)" fill-rule="evenodd" stroke="none"/>
    </g>
    <linearGradient gradientTransform="matrix(0.0, 0.3749, -0.2186, 0.0, 275.0, 199.8)" gradientUnits="userSpaceOnUse" id="gradient0" spreadMethod="pad" x1="-819.2" x2="819.2">
      <stop offset="0.0" stop-color="#80a6ff"/>
      <stop offset="1.0" stop-color="#a3bffe"/>
    </linearGradient>
  </defs>
</svg>
