<?xml version="1.0" encoding="UTF-8" standalone="no"?>
<svg xmlns:xlink="http://www.w3.org/1999/xlink" height="842.55px" width="1337.95px" xmlns="http://www.w3.org/2000/svg">
  <g transform="matrix(1, 0, 0, 1, 407.45, 285.05)">
    <use height="4.5" transform="matrix(5.4867, 0.0, 0.0, 81.5667, 3.2875, 23.0167)" width="99.75" xlink:href="#shape0"/>
    <use height="407.0" transform="matrix(1.0, 0.0, 0.0, 1.0, -2.5, -3.5)" width="561.85" xlink:href="#shape1"/>
    <use height="47.0" transform="matrix(1.0, 0.0, 0.0, 1.0, 399.3, 136.5)" width="47.2" xlink:href="#sprite0"/>
    <use height="34.65" transform="matrix(1.0, 0.0, 0.0, 1.0, 395.1, 10.3)" width="41.0" xlink:href="#sprite1"/>
    <use height="39.6" transform="matrix(1.0, 0.0, 0.0, 1.0, 398.3, 73.9)" width="40.35" xlink:href="#sprite2"/>
    <use height="398.7" transform="matrix(0.7277, 0.0, 0.0, 0.7277, 23.5615, 24.2998)" width="486.7" xlink:href="#sprite3"/>
  </g>
  <defs>
    <g id="shape0" transform="matrix(1, 0, 0, 1, 49.85, -2.5)">
      <path d="M49.9 7.0 L-49.85 7.0 -49.85 2.5 49.9 2.5 49.9 7.0" fill="#ffffff" fill-rule="evenodd" stroke="none"/>
    </g>
    <g id="shape1" transform="matrix(1, 0, 0, 1, 2.5, 3.5)">
      <path d="M554.2 372.5 L556.85 372.5 558.55 372.95 Q559.35 373.3 559.35 374.85 559.35 376.45 558.5 377.0 L556.85 377.5 554.2 377.5 357.25 377.5 Q357.8 381.2 357.35 388.25 L357.25 398.35 357.1 402.5 356.75 402.75 355.3 403.4 354.85 403.5 354.8 403.4 Q353.7 401.55 353.1 398.35 352.35 394.4 352.35 388.35 352.15 383.1 352.35 379.75 L352.6 377.5 235.3 377.5 Q235.65 381.1 235.35 387.25 L235.35 387.55 235.35 387.8 235.35 388.7 235.2 398.7 235.1 401.5 233.3 402.4 232.85 402.5 232.8 402.35 Q232.05 401.1 231.55 399.3 230.35 394.95 230.35 387.35 L230.4 378.75 230.5 377.5 1.0 377.5 Q-0.45 377.0 -1.05 375.95 L-1.1 375.85 -1.3 375.3 -1.5 374.2 -1.5 374.0 -1.3 373.9 Q1.0 372.75 1.0 372.5 L554.2 372.5 M385.35 8.35 L385.35 363.15 Q385.35 365.15 384.35 366.0 383.85 366.35 275.05 366.1 147.15 365.75 31.5 364.45 L31.5 10.4 30.8 9.95 Q30.5 9.65 30.5 8.1 30.5 6.45 30.8 6.25 L31.5 6.0 207.85 5.5 Q384.1 6.0 384.85 6.8 L385.35 8.35 M359.15 28.25 L380.35 28.65 380.35 10.95 367.1 10.95 Q368.75 11.95 371.05 15.55 L371.1 15.65 Q373.9 13.95 375.85 13.5 L377.85 13.95 Q378.35 14.2 378.35 15.85 378.35 17.65 374.15 20.55 L375.35 22.5 Q373.7 25.5 372.35 25.5 370.2 25.5 368.45 23.95 L367.35 24.5 Q364.85 24.5 363.6 23.25 363.35 24.25 363.35 21.75 363.35 21.35 365.45 19.7 L365.4 19.6 Q363.35 15.35 363.35 13.35 363.35 11.4 363.65 11.0 L363.75 10.95 359.4 10.95 Q359.75 13.45 359.35 17.75 L359.1 27.5 357.65 28.25 359.15 28.25 M354.4 11.5 L354.5 10.95 354.4 10.95 342.85 10.95 334.9 10.95 331.9 10.95 332.3 13.25 332.35 18.85 332.2 28.05 356.65 28.25 Q354.35 25.3 354.35 17.85 L354.4 11.5 M342.85 11.5 Q350.8 11.5 352.35 14.8 353.15 16.45 352.35 18.35 L352.6 20.95 Q352.75 22.45 352.3 23.25 351.1 25.5 343.85 25.5 338.45 25.5 335.4 19.75 L333.35 13.75 Q333.35 12.1 334.9 11.8 L342.85 11.5 M347.35 17.0 L340.35 17.0 340.35 20.0 347.35 20.0 347.35 17.0 M328.0 10.95 L307.35 10.95 Q307.65 13.7 307.35 18.25 L307.2 27.9 328.4 28.0 Q327.35 24.9 327.35 18.75 327.35 13.75 328.0 10.95 M327.05 44.35 L326.35 44.85 326.25 46.45 Q325.6 47.0 321.4 47.0 317.75 47.05 270.35 45.5 L270.35 44.0 271.85 42.75 Q272.85 42.5 298.35 42.5 L325.9 43.55 Q327.45 43.9 327.05 44.35 M356.1 51.35 Q356.35 51.3 356.35 52.85 356.9 54.1 356.4 54.45 L350.2 55.0 281.35 53.5 281.35 52.0 282.85 50.75 318.85 50.5 355.85 51.75 356.1 51.35 M347.1 67.35 Q347.35 67.3 347.35 68.85 L347.25 70.45 Q346.55 71.0 342.45 71.0 338.8 71.05 292.35 69.5 L292.35 68.0 293.85 66.75 Q294.85 66.5 319.85 66.5 324.05 66.5 334.0 66.85 L346.85 67.75 347.1 67.35 M363.1 74.35 Q363.35 74.3 363.35 75.85 L363.3 77.45 358.05 78.0 Q354.15 78.05 302.35 76.5 L302.35 75.0 303.85 73.75 Q304.85 73.5 332.85 73.5 337.35 73.5 348.5 73.85 L362.85 74.75 363.1 74.35 M346.1 96.35 L345.35 96.85 345.25 98.45 340.2 99.0 Q336.35 99.05 286.35 97.5 L286.35 96.0 287.85 94.75 Q288.85 94.5 315.85 94.5 L344.85 95.55 Q346.45 95.9 346.1 96.35 M363.25 89.45 Q362.6 90.0 358.2 90.0 354.35 90.05 304.35 88.5 L304.35 87.0 305.85 85.75 Q306.85 85.5 333.85 85.5 L362.85 86.55 Q364.45 86.9 364.1 87.35 L363.35 87.85 363.25 89.45 M365.85 62.25 Q322.85 62.5 273.35 60.5 L273.35 59.0 274.85 57.75 320.35 57.5 Q366.1 58.0 366.85 58.75 L367.1 58.35 Q367.35 58.3 367.35 59.85 367.35 61.45 366.9 61.8 L365.85 62.25 M366.25 122.45 L361.4 123.0 Q357.7 123.05 310.35 121.5 L310.35 120.0 311.85 118.75 Q312.85 118.5 338.35 118.5 L365.85 119.55 Q367.4 119.9 367.05 120.35 L366.35 120.85 366.25 122.45 M343.85 109.75 L344.1 109.35 Q344.35 109.3 344.35 110.85 L344.2 112.45 Q343.55 113.0 339.8 113.0 L294.35 111.5 294.35 110.0 295.85 108.75 Q296.85 108.5 319.35 108.5 323.25 108.5 332.25 108.85 L343.85 109.75 M342.5 144.85 L356.85 145.75 357.1 145.35 Q357.35 145.3 357.35 146.85 L357.3 148.45 352.05 149.0 Q348.15 149.05 296.35 147.5 L296.35 146.0 297.85 144.75 Q298.85 144.5 326.85 144.5 331.35 144.5 342.5 144.85 M359.5 136.0 L311.35 134.5 311.35 133.0 312.85 131.75 Q313.85 131.5 337.85 131.5 341.95 131.5 351.5 131.85 L363.85 132.75 364.1 132.35 Q364.35 132.3 364.35 133.85 L364.2 135.45 Q363.5 136.0 359.5 136.0 M354.85 171.75 L355.1 171.35 Q355.35 171.3 355.35 172.85 L355.3 174.45 349.75 175.0 Q345.6 175.05 289.35 173.5 L289.35 172.0 290.85 170.75 Q291.85 170.5 322.35 170.5 327.15 170.5 339.25 170.85 L354.85 171.75 M355.75 158.85 L371.85 159.75 372.1 159.35 Q372.35 159.3 372.35 160.85 L372.35 162.45 366.65 163.0 Q362.4 163.05 304.35 161.5 L304.35 160.0 305.85 158.75 Q306.85 158.5 338.35 158.5 343.25 158.5 355.75 158.85 M349.85 210.5 Q351.45 211.15 352.35 212.5 352.35 214.45 349.85 215.5 348.35 215.0 347.6 214.25 347.35 215.25 347.35 212.75 347.35 211.15 348.25 210.8 L349.85 210.5 M346.85 229.1 Q347.7 227.8 348.85 227.5 351.35 230.15 351.35 231.0 351.35 233.55 345.65 236.8 339.1 240.5 331.35 240.5 322.3 240.5 317.25 236.15 313.65 233.0 313.35 229.5 L313.85 229.0 Q314.35 228.5 315.85 228.5 316.65 228.5 317.7 229.5 L320.05 231.75 Q323.95 235.0 330.35 235.0 341.4 235.0 344.95 231.65 L346.85 229.1 M360.35 245.0 L360.35 200.0 303.6 200.0 303.6 245.0 360.35 245.0 M351.85 282.75 L352.1 282.35 Q352.35 282.3 352.35 283.85 L352.25 285.45 346.95 286.0 Q342.95 286.05 290.35 284.5 L290.35 283.0 291.85 281.75 Q292.85 281.5 321.35 281.5 325.9 281.5 337.25 281.85 L351.85 282.75 M330.7 309.35 L330.35 309.85 Q330.35 311.2 330.05 311.45 329.45 312.0 326.6 312.0 L294.35 310.5 294.35 309.0 Q295.65 308.8 295.3 308.5 294.9 308.1 295.05 308.0 L312.35 307.5 Q326.65 307.5 329.85 308.55 330.9 308.9 330.7 309.35 M380.35 32.25 Q211.55 32.5 36.5 30.55 L36.5 361.05 380.35 360.8 380.35 32.25 M363.15 191.55 L363.15 253.4 301.25 253.4 301.25 191.55 363.15 191.55 M309.35 22.0 Q310.85 20.5 316.85 20.5 324.35 20.5 324.35 22.85 324.35 24.85 322.85 25.25 L316.85 25.5 Q310.1 25.5 309.45 24.45 309.85 22.95 309.35 22.0 M302.4 11.25 L302.45 10.95 302.4 10.95 36.5 10.95 36.5 27.75 208.35 27.5 303.4 27.85 Q302.35 24.65 302.35 18.35 L302.4 11.25 M83.5 34.5 L83.5 356.25 81.0 357.5 Q78.1 349.9 78.1 337.1 78.65 322.75 78.5 316.5 L78.5 195.0 Q78.5 130.55 78.65 113.6 79.1 66.85 81.0 32.5 82.6 33.15 83.5 34.5 M56.0 42.5 Q65.7 42.5 68.0 43.55 68.75 43.9 68.7 44.35 L68.5 44.85 Q68.5 46.95 67.0 47.25 L56.0 47.5 42.5 46.95 Q42.25 46.75 42.85 45.9 43.65 44.9 43.5 44.0 44.0 43.5 49.1 42.95 L56.0 42.5 M72.5 54.85 Q72.5 56.95 71.05 57.25 L61.0 57.5 48.65 56.9 Q48.4 56.65 48.95 55.8 49.65 54.8 49.5 54.0 50.0 53.5 54.6 52.95 L61.0 52.5 Q69.9 52.5 72.05 53.55 72.75 53.9 72.7 54.35 L72.5 54.85 M73.75 64.35 L73.5 64.85 73.4 66.5 Q73.15 67.05 72.0 67.25 L59.0 67.5 Q43.55 67.5 43.1 67.2 42.9 67.05 43.7 66.15 44.65 65.1 44.5 64.0 45.0 63.5 51.1 62.95 L59.0 62.5 Q70.35 62.5 73.0 63.55 73.85 63.9 73.75 64.35 M53.1 92.95 L60.0 92.5 Q69.7 92.5 72.0 93.55 72.75 93.9 72.7 94.35 L72.5 94.85 Q72.5 97.0 71.05 97.25 L60.0 97.5 46.5 96.95 Q46.25 96.75 46.85 95.9 47.65 94.9 47.5 94.0 48.0 93.5 53.1 92.95 M58.1 78.95 L64.0 78.5 Q72.05 78.5 74.05 79.55 74.5 79.8 74.5 80.85 74.5 82.95 73.0 83.25 L64.0 83.5 52.8 82.7 Q52.5 82.4 53.0 81.6 53.55 80.6 53.5 80.0 54.0 79.5 58.1 78.95 M69.05 113.55 Q69.5 113.85 69.5 114.85 69.5 116.9 68.05 117.25 L61.0 117.5 Q53.2 117.5 52.55 116.45 52.35 116.15 52.6 115.35 52.85 114.5 52.5 114.0 53.05 113.45 56.1 112.95 L61.0 112.5 Q67.4 112.5 69.05 113.55 M55.0 135.5 Q66.4 135.5 69.05 136.55 69.9 136.9 69.8 137.35 L69.5 137.85 69.4 139.5 Q69.2 140.05 68.05 140.25 L55.0 140.5 Q39.7 140.5 39.15 140.15 38.95 140.0 39.7 139.15 40.65 138.05 40.5 137.0 41.0 136.5 47.1 135.95 L55.0 135.5 M58.0 124.5 Q64.4 124.5 66.05 125.55 66.5 125.85 66.5 126.85 66.5 128.9 65.05 129.25 L58.0 129.5 Q50.2 129.5 49.55 128.45 49.35 128.15 49.6 127.35 49.85 126.5 49.5 126.0 50.05 125.45 53.1 124.95 L58.0 124.5 M66.5 154.85 Q66.5 156.9 65.05 157.25 L57.5 157.5 Q49.1 157.5 48.5 156.45 48.35 156.2 48.65 155.35 48.9 154.5 48.5 154.0 49.05 153.5 52.35 152.95 L57.5 152.5 Q64.3 152.5 66.05 153.55 66.5 153.85 66.5 154.85 M313.85 211.5 Q315.45 212.15 316.35 213.5 316.35 215.45 313.85 216.5 312.35 216.0 311.6 215.25 311.35 216.25 311.35 213.75 311.35 212.15 312.25 211.8 L313.85 211.5 M322.9 270.55 Q323.65 270.9 323.6 271.35 L323.35 271.85 Q323.35 274.0 321.9 274.25 L310.35 274.5 296.2 273.95 Q295.95 273.75 296.65 272.9 297.45 271.9 297.35 271.0 297.85 270.5 303.2 269.95 L310.35 269.5 Q320.55 269.5 322.9 270.55 M309.35 296.5 Q320.35 296.5 322.9 297.55 323.7 297.9 323.6 298.35 L323.35 298.85 323.25 300.5 Q323.0 301.05 321.9 301.25 L309.35 301.5 Q294.55 301.5 294.05 301.15 293.85 301.0 294.6 300.15 295.55 299.05 295.35 298.0 295.85 297.5 301.7 296.95 L309.35 296.5" fill="#000000" fill-rule="evenodd" stroke="none"/>
      <path d="M234.15 402.4 L233.9 402.8 232.85 403.25 Q128.4 403.5 -1.4 400.95 -2.05 399.2 -2.3 396.75 -2.5 394.95 -2.5 388.75 -2.5 382.6 -2.3 380.8 -2.0 377.75 -1.05 376.0 L-1.05 375.95 Q-0.45 377.0 1.0 377.5 L230.5 377.5 230.4 378.75 230.35 387.35 Q230.35 394.95 231.55 399.3 L231.35 400.75 Q231.35 403.25 231.6 402.25 L232.8 402.35 232.85 402.5 233.3 402.4 234.15 402.4 M0.0 403.5 L-0.85 402.2 2.25 402.75 0.0 403.5" fill="#17ce73" fill-rule="evenodd" stroke="none"/>
      <path d="M554.2 377.5 L554.15 382.4 554.15 389.5 554.1 399.6 553.35 399.9 553.35 400.75 Q553.35 401.75 552.1 403.0 L392.35 403.5 357.1 403.4 355.3 403.4 356.75 402.75 357.1 402.5 357.25 398.35 357.35 388.25 Q357.8 381.2 357.25 377.5 L554.2 377.5 M231.55 399.3 Q232.05 401.1 232.8 402.35 L231.6 402.25 Q231.35 403.25 231.35 400.75 L231.55 399.3" fill="#ddebff" fill-rule="evenodd" stroke="none"/>
      <path d="M354.8 403.4 L311.3 403.15 Q245.9 402.8 234.15 402.4 L233.3 402.4 235.1 401.5 235.2 398.7 235.35 388.7 235.35 387.8 235.35 387.55 235.35 387.25 Q235.65 381.1 235.3 377.5 L352.6 377.5 352.35 379.75 Q352.15 383.1 352.35 388.35 352.35 394.4 353.1 398.35 353.7 401.55 354.8 403.4 M302.4 10.95 L302.4 11.25 302.35 18.35 Q302.35 24.65 303.4 27.85 L208.35 27.5 36.5 27.75 36.5 10.95 302.4 10.95" fill="#c4dcff" fill-rule="evenodd" stroke="none"/>
      <path d="M354.4 10.95 L354.4 11.5 354.35 17.85 Q354.35 25.3 356.65 28.25 L332.2 28.05 332.35 18.85 332.3 13.25 331.9 10.95 334.9 10.95 334.9 11.8 Q333.35 12.1 333.35 13.75 L335.4 19.75 Q338.45 25.5 343.85 25.5 351.1 25.5 352.3 23.25 352.75 22.45 352.6 20.95 L352.35 18.35 Q353.15 16.45 352.35 14.8 350.8 11.5 342.85 11.5 L342.85 10.95 354.4 10.95 M347.35 17.0 L347.35 20.0 340.35 20.0 340.35 17.0 347.35 17.0 M328.0 10.95 Q327.35 13.75 327.35 18.75 327.35 24.9 328.4 28.0 L307.2 27.9 307.35 18.25 Q307.65 13.7 307.35 10.95 L328.0 10.95 M309.35 22.0 Q309.85 22.95 309.45 24.45 310.1 25.5 316.85 25.5 L322.85 25.25 Q324.35 24.85 324.35 22.85 324.35 20.5 316.85 20.5 310.85 20.5 309.35 22.0" fill="#a3c8fe" fill-rule="evenodd" stroke="none"/>
      <path d="M359.1 27.5 L359.35 17.75 Q359.75 13.45 359.4 10.95 L363.75 10.95 363.65 11.0 Q363.35 11.4 363.35 13.35 363.35 15.35 365.4 19.6 L365.45 19.7 Q363.35 21.35 363.35 21.75 363.35 24.25 363.6 23.25 364.85 24.5 367.35 24.5 L368.45 23.95 Q370.2 25.5 372.35 25.5 373.7 25.5 375.35 22.5 L374.15 20.55 Q378.35 17.65 378.35 15.85 378.35 14.2 377.85 13.95 L375.85 13.5 Q373.9 13.95 371.1 15.65 L371.05 15.55 Q368.75 11.95 367.1 10.95 L380.35 10.95 380.35 28.65 359.15 28.25 359.1 27.5" fill="#ffc4c4" fill-rule="evenodd" stroke="none"/>
      <path d="M-1.3 373.9 Q-1.8 368.8 -1.8 362.75 -1.3 346.05 -1.5 338.0 L-1.5 191.75 -1.5 183.75 -1.5 164.75 -1.3 93.8 Q-0.85 41.05 0.85 1.55 L0.85 1.5 0.0 1.5 Q-2.5 0.65 -2.5 -2.0 -1.75 -2.75 0.0 -3.5 L551.85 -3.5 Q554.6 5.95 554.65 21.25 L554.35 47.25 554.35 198.25 554.2 372.5 1.0 372.5 Q1.0 372.75 -1.3 373.9 M-1.05 376.0 L-1.1 375.85 -1.05 375.95 -1.05 376.0 M385.35 8.35 L384.85 6.8 Q384.1 6.0 207.85 5.5 L31.5 6.0 30.8 6.25 Q30.5 6.45 30.5 8.1 30.5 9.65 30.8 9.95 L31.5 10.4 31.5 364.45 Q147.15 365.75 275.05 366.1 383.85 366.35 384.35 366.0 385.35 365.15 385.35 363.15 L385.35 8.35" fill="#ffeeee" fill-rule="evenodd" stroke="none"/>
    </g>
    <g id="sprite0" transform="matrix(1, 0, 0, 1, 0.0, 0.0)">
      <use height="47.0" transform="matrix(1.0, 0.0, 0.0, 1.0, 0.0, 0.0)" width="47.2" xlink:href="#shape2"/>
    </g>
    <g id="shape2" transform="matrix(1, 0, 0, 1, 0.0, 0.0)">
      <path d="M4.4 10.2 Q5.65 8.15 7.1 6.5 12.8 -0.05 21.2 0.0 32.3 -0.05 38.85 6.5 40.6 8.2 42.0 10.4 47.1 18.1 47.2 28.0 44.95 47.05 25.4 47.0 0.0 47.1 0.0 22.6 0.0 17.5 4.4 10.2 M18.8 4.4 Q18.25 4.35 15.0 6.5 L13.6 7.4 Q8.3 10.95 7.4 13.6 5.05 20.85 4.0 22.8 4.0 26.9 6.6 33.2 10.55 42.9 17.8 43.0 34.25 42.95 36.4 41.8 37.7 41.15 37.2 39.0 L40.6 35.2 Q43.0 31.7 43.0 27.8 42.95 11.4 31.15 6.5 26.05 4.4 18.8 4.4 M29.2 22.6 L30.2 34.8 Q30.2 37.85 28.2 37.8 25.15 37.85 25.2 25.4 25.2 25.0 24.8 24.8 23.75 25.85 22.0 25.8 14.45 25.8 14.4 18.8 14.4 10.0 23.2 10.0 29.55 10.05 29.8 15.8 30.05 18.65 29.2 22.6 M19.2 16.6 Q18.55 17.9 18.6 19.0 18.6 21.6 21.0 21.6 25.2 21.6 24.8 15.0 23.5 14.35 22.2 14.4 20.15 14.4 19.2 16.6" fill="#2b6fb3" fill-rule="evenodd" stroke="none"/>
      <path d="M19.2 16.6 Q20.15 14.4 22.2 14.4 23.5 14.35 24.8 15.0 25.2 21.6 21.0 21.6 18.6 21.6 18.6 19.0 18.55 17.9 19.2 16.6 M29.2 22.6 Q30.05 18.65 29.8 15.8 29.55 10.05 23.2 10.0 14.4 10.0 14.4 18.8 14.45 25.8 22.0 25.8 23.75 25.85 24.8 24.8 25.2 25.0 25.2 25.4 25.15 37.85 28.2 37.8 30.2 37.85 30.2 34.8 L29.2 22.6 M18.8 4.4 Q26.05 4.4 31.15 6.5 42.95 11.4 43.0 27.8 43.0 31.7 40.6 35.2 L37.2 39.0 Q37.7 41.15 36.4 41.8 34.25 42.95 17.8 43.0 10.55 42.9 6.6 33.2 4.0 26.9 4.0 22.8 5.05 20.85 7.4 13.6 8.3 10.95 13.6 7.4 L15.0 6.5 Q18.25 4.35 18.8 4.4" fill="#ffffff" fill-rule="evenodd" stroke="none"/>
    </g>
    <g id="sprite1" transform="matrix(1, 0, 0, 1, 0.0, 0.0)">
      <use height="34.65" transform="matrix(1.0, 0.0, 0.0, 1.0, 0.0, 0.0)" width="41.0" xlink:href="#shape3"/>
    </g>
    <g id="shape3" transform="matrix(1, 0, 0, 1, 0.0, 0.0)">
      <path d="M32.2 4.4 L32.6 5.4 37.0 27.0 Q32.0 28.55 29.4 28.8 36.15 30.15 5.0 30.4 L4.8 18.2 Q4.85 7.7 6.0 6.6 7.7 5.05 23.0 4.2 32.2 4.2 32.2 4.4 M10.0 16.4 Q11.8 16.5 11.8 14.6 11.8 12.4 9.8 12.4 7.6 12.4 7.6 14.6 7.6 16.5 10.0 16.4 M16.4 22.8 Q15.05 21.0 12.2 21.0 9.8 21.0 9.8 23.2 9.9 26.95 19.4 27.0 29.0 27.0 29.0 20.4 29.0 17.55 27.0 17.6 26.15 17.6 24.2 20.2 22.15 22.8 16.4 22.8 M29.6 8.8 Q27.4 8.8 27.4 10.8 27.4 12.8 29.8 12.8 31.6 12.8 31.6 10.8 31.6 8.8 29.6 8.8" fill="#acccec" fill-rule="evenodd" stroke="none"/>
      <path d="M32.2 4.4 Q32.2 4.2 23.0 4.2 7.7 5.05 6.0 6.6 4.85 7.7 4.8 18.2 L5.0 30.4 Q36.15 30.15 29.4 28.8 32.0 28.55 37.0 27.0 L32.6 5.4 32.2 4.4 M38.8 13.8 Q41.0 21.3 41.0 27.0 41.0 35.3 4.2 34.6 0.45 34.7 0.2 28.2 L0.8 19.8 Q-0.05 9.05 0.0 4.4 0.05 0.0 28.8 0.0 36.7 0.05 38.2 5.6 38.85 8.4 38.8 13.8 M29.6 8.8 Q31.6 8.8 31.6 10.8 31.6 12.8 29.8 12.8 27.4 12.8 27.4 10.8 27.4 8.8 29.6 8.8 M16.4 22.8 Q22.15 22.8 24.2 20.2 26.15 17.6 27.0 17.6 29.0 17.55 29.0 20.4 29.0 27.0 19.4 27.0 9.9 26.95 9.8 23.2 9.8 21.0 12.2 21.0 15.05 21.0 16.4 22.8 M10.0 16.4 Q7.6 16.5 7.6 14.6 7.6 12.4 9.8 12.4 11.8 12.4 11.8 14.6 11.8 16.5 10.0 16.4" fill="#000000" fill-rule="evenodd" stroke="none"/>
    </g>
    <g id="sprite2" transform="matrix(1, 0, 0, 1, 0.0, 0.0)">
      <use height="39.6" transform="matrix(1.0, 0.0, 0.0, 1.0, 0.0, 0.0)" width="40.35" xlink:href="#shape4"/>
    </g>
    <g id="shape4" transform="matrix(1, 0, 0, 1, 0.0, 0.0)">
      <path d="M21.8 4.6 L19.2 12.4 Q19.2 14.3 21.4 18.2 23.6 22.15 23.6 27.2 23.6 33.15 22.4 35.2 38.65 33.8 36.0 19.4 36.05 4.5 22.0 4.2 L21.8 4.2 21.8 4.6 M8.0 12.4 Q4.25 18.1 4.2 22.0 4.25 25.45 7.8 29.8 12.2 35.35 18.8 35.4 L18.6 34.2 Q19.65 28.5 19.6 27.0 19.6 23.1 17.4 19.6 15.2 16.1 15.2 12.6 15.25 7.6 16.4 5.0 11.45 6.85 8.0 12.4 M40.0 19.4 Q40.05 39.6 23.0 39.6 0.1 39.6 0.0 21.8 0.05 16.7 5.4 9.0 11.05 0.0 22.6 0.0 42.8 0.05 40.0 19.4" fill="#000000" fill-rule="evenodd" stroke="none"/>
      <path d="M21.8 4.6 L22.0 4.2 Q36.05 4.5 36.0 19.4 38.65 33.8 22.4 35.2 23.6 33.15 23.6 27.2 23.6 22.15 21.4 18.2 19.2 14.3 19.2 12.4 L21.8 4.6 M12.6 22.2 Q12.6 24.2 10.8 24.2 8.6 24.2 8.6 22.2 8.6 20.0 10.6 20.0 12.6 20.0 12.6 22.2 M32.4 18.4 Q32.4 16.4 30.4 16.4 28.4 16.4 28.4 18.4 28.4 20.4 30.6 20.4 32.4 20.4 32.4 18.4" fill="#ffffff" fill-rule="evenodd" stroke="none"/>
      <path d="M22.0 4.2 L21.8 4.6 21.8 4.2 22.0 4.2" fill="#ffcccc" fill-rule="evenodd" stroke="none"/>
      <path d="M8.0 12.4 Q11.45 6.85 16.4 5.0 15.25 7.6 15.2 12.6 15.2 16.1 17.4 19.6 19.6 23.1 19.6 27.0 19.65 28.5 18.6 34.2 L18.8 35.4 Q12.2 35.35 7.8 29.8 4.25 25.45 4.2 22.0 4.25 18.1 8.0 12.4 M12.6 22.2 Q12.6 20.0 10.6 20.0 8.6 20.0 8.6 22.2 8.6 24.2 10.8 24.2 12.6 24.2 12.6 22.2 M32.4 18.4 Q32.4 20.4 30.6 20.4 28.4 20.4 28.4 18.4 28.4 16.4 30.4 16.4 32.4 16.4 32.4 18.4" fill="#fd1313" fill-rule="evenodd" stroke="none"/>
    </g>
    <g id="sprite3" transform="matrix(1, 0, 0, 1, 5.0, -10.1)">
      <use height="398.7" transform="matrix(1.0, 0.0, 0.0, 1.0, -5.0, 10.1)" width="486.7" xlink:href="#shape5"/>
      <use height="279.6" transform="matrix(1.0, 0.0, 0.0, 1.0, 8.45, 50.15)" width="462.5" xlink:href="#text0"/>
      <use height="32.5" transform="matrix(1.0, 0.0, 0.0, 1.0, 445.9, 13.2)" width="32.5" xlink:href="#sprite4"/>
      <use height="32.5" transform="matrix(11.3509, 0.0, 0.0, 1.0, -0.95, 11.95)" width="32.5" xlink:href="#sprite4"/>
    </g>
    <g id="shape5" transform="matrix(1, 0, 0, 1, 5.0, -10.1)">
      <path d="M481.7 14.0 L481.7 404.6 Q481.65 407.35 480.3 408.5 479.6 409.0 330.4 408.65 159.9 408.25 5.3 406.5 L-3.65 406.4 -3.65 16.85 -4.6 16.25 Q-5.0 15.8 -5.0 13.65 -5.0 11.45 -4.6 11.15 L-3.65 10.8 238.25 10.1 Q479.95 10.8 481.0 11.85 L481.7 14.0 M445.75 41.3 Q468.85 41.55 474.8 41.85 L474.8 17.55 456.65 17.55 Q458.9 19.0 462.05 23.9 L462.15 24.05 Q465.95 21.7 468.65 21.1 L471.4 21.7 Q472.05 22.05 472.05 24.3 472.05 26.75 466.35 30.75 L467.95 33.45 Q465.7 37.55 463.85 37.55 460.9 37.55 458.45 35.4 L457.0 36.2 Q453.55 36.2 451.85 34.5 451.5 35.85 451.5 32.4 451.5 31.9 454.4 29.6 L454.3 29.45 Q451.5 23.6 451.5 20.9 451.5 18.2 451.9 17.65 L452.0 17.55 446.1 17.55 Q446.6 20.95 446.0 26.9 L445.7 40.3 443.7 41.3 445.75 41.3 M439.25 18.35 L439.35 17.55 439.25 17.55 423.4 17.55 412.5 17.55 408.35 17.55 408.95 20.75 409.0 28.45 408.75 41.0 442.3 41.3 Q439.15 37.25 439.15 27.05 L439.25 18.35 M423.4 18.35 Q434.3 18.35 436.45 22.85 437.5 25.1 436.45 27.75 L436.75 31.3 Q436.95 33.35 436.35 34.5 434.7 37.55 424.75 37.55 417.35 37.55 413.15 29.65 L410.35 21.45 Q410.35 19.15 412.5 18.75 L423.4 18.35 M419.95 30.0 L429.55 30.0 429.55 25.9 419.95 25.9 419.95 30.0 M367.9 17.55 L3.25 17.55 3.25 40.65 238.9 40.3 369.25 40.8 Q367.85 36.4 367.85 27.75 L367.9 18.0 367.95 17.55 367.9 17.55 M377.45 32.75 Q379.5 30.7 387.75 30.7 398.0 30.7 398.0 33.9 398.0 36.65 395.95 37.2 L387.75 37.55 Q378.45 37.55 377.55 36.1 378.1 34.05 377.45 32.75 M374.45 40.8 L403.55 41.0 Q402.1 36.7 402.15 28.3 402.15 21.45 403.05 17.55 L374.65 17.55 Q375.1 21.35 374.7 27.6 L374.45 40.8 M474.8 327.95 L474.8 327.75 474.35 327.95 Q243.2 328.3 3.25 325.55 L3.25 401.75 474.8 401.4 474.8 327.95 M3.95 321.8 L239.1 321.45 Q461.15 322.1 474.8 323.05 L474.8 46.8 Q243.3 47.15 3.25 44.45 L3.25 321.8 3.25 322.05 3.95 321.8" fill="#000000" fill-rule="evenodd" stroke="none"/>
      <path d="M445.7 40.3 L446.0 26.9 Q446.6 20.95 446.1 17.55 L452.0 17.55 451.9 17.65 Q451.5 18.2 451.5 20.9 451.5 23.6 454.3 29.45 L454.4 29.6 Q451.5 31.9 451.5 32.4 451.5 35.85 451.85 34.5 453.55 36.2 457.0 36.2 L458.45 35.4 Q460.9 37.55 463.85 37.55 465.7 37.55 467.95 33.45 L466.35 30.75 Q472.05 26.75 472.05 24.3 472.05 22.05 471.4 21.7 L468.65 21.1 Q465.95 21.7 462.15 24.05 L462.05 23.9 Q458.9 19.0 456.65 17.55 L474.8 17.55 474.8 41.85 Q468.85 41.55 445.75 41.3 L445.7 40.3" fill="#ffc4c4" fill-rule="evenodd" stroke="none"/>
      <path d="M439.25 17.55 L439.25 18.35 439.15 27.05 Q439.15 37.25 442.3 41.3 L408.75 41.0 409.0 28.45 408.95 20.75 408.35 17.55 412.5 17.55 412.5 18.75 Q410.35 19.15 410.35 21.45 L413.15 29.65 Q417.35 37.55 424.75 37.55 434.7 37.55 436.35 34.5 436.95 33.35 436.75 31.3 L436.45 27.75 Q437.5 25.1 436.45 22.85 434.3 18.35 423.4 18.35 L423.4 17.55 439.25 17.55 M419.95 30.0 L419.95 25.9 429.55 25.9 429.55 30.0 419.95 30.0 M374.45 40.8 L374.7 27.6 Q375.1 21.35 374.65 17.55 L403.05 17.55 Q402.15 21.45 402.15 28.3 402.1 36.7 403.55 41.0 L374.45 40.8 M377.45 32.75 Q378.1 34.05 377.55 36.1 378.45 37.55 387.75 37.55 L395.95 37.2 Q398.0 36.65 398.0 33.9 398.0 30.7 387.75 30.7 379.5 30.7 377.45 32.75" fill="#a3c8fe" fill-rule="evenodd" stroke="none"/>
      <path d="M367.9 17.55 L367.9 18.0 367.85 27.75 Q367.85 36.4 369.25 40.8 L238.9 40.3 3.25 40.65 3.25 17.55 367.9 17.55" fill="#c4dcff" fill-rule="evenodd" stroke="none"/>
      <path d="M474.35 327.95 L474.8 327.95 474.8 401.4 3.25 401.75 3.25 325.55 Q243.2 328.3 474.35 327.95 M3.25 321.8 L3.25 44.45 Q243.3 47.15 474.8 46.8 L474.8 323.05 Q461.15 322.1 239.1 321.45 L3.95 321.8 3.25 321.8" fill="#ffffff" fill-rule="evenodd" stroke="none"/>
    </g>
    <g id="sprite4" transform="matrix(1, 0, 0, 1, 0.0, 0.0)">
      <use height="4.5" transform="matrix(0.3258, 0.0, 0.0, 7.2222, 0.0078, 0.0056)" width="99.75" xlink:href="#shape0"/>
    </g>
  </defs>
</svg>
