<?xml version="1.0" encoding="UTF-8" standalone="no"?>
<svg xmlns:xlink="http://www.w3.org/1999/xlink" height="842.55px" width="1337.95px" xmlns="http://www.w3.org/2000/svg">
  <g transform="matrix(1, 0, 0, 1, 407.45, 285.05)">
    <use height="4.5" transform="matrix(5.4867, 0.0, 0.0, 81.5667, 3.2875, 23.0167)" width="99.75" xlink:href="#shape0"/>
    <use height="466.1" transform="matrix(1.0, 0.0, 0.0, 1.0, -11.5, -25.5)" width="582.85" xlink:href="#shape1"/>
  </g>
  <defs>
    <g id="shape0" transform="matrix(1, 0, 0, 1, 49.85, -2.5)">
      <path d="M49.9 7.0 L-49.85 7.0 -49.85 2.5 49.9 2.5 49.9 7.0" fill="#ffffff" fill-rule="evenodd" stroke="none"/>
    </g>
    <g id="shape1" transform="matrix(1, 0, 0, 1, 11.5, 25.5)">
      <path d="M329.15 429.5 Q311.55 440.6 302.85 440.6 L302.8 440.6 302.7 440.6 302.65 440.6 302.55 440.6 302.5 440.6 272.9 429.85 272.1 429.5 260.7 424.5 255.3 422.1 Q214.2 403.6 207.75 403.6 194.0 403.6 184.2 406.2 178.25 407.8 169.6 412.0 160.85 416.2 155.25 417.75 145.75 420.35 132.5 420.35 111.1 420.35 91.5 413.85 83.95 411.35 79.05 408.6 L78.3 408.15 77.0 408.35 Q56.4 408.35 46.25 388.35 39.5 375.05 39.5 361.1 39.5 351.75 40.35 347.3 41.75 339.8 46.3 333.8 57.5 319.05 94.25 306.0 93.2 302.7 87.7 289.35 85.5 283.95 85.5 275.25 85.5 262.25 108.5 253.5 129.35 245.5 155.0 245.5 L162.55 246.05 Q163.35 243.4 177.5 238.25 193.45 232.5 204.5 232.5 210.4 232.5 217.35 236.5 221.8 239.1 229.6 245.4 237.9 252.05 241.4 254.25 247.85 258.25 252.85 258.25 L270.3 257.5 276.5 255.9 Q284.45 253.5 319.85 253.5 347.05 253.5 358.85 259.3 375.35 267.4 375.35 290.0 375.35 292.5 373.35 310.5 373.35 313.65 384.15 316.5 L407.85 322.35 Q423.4 326.75 431.55 332.75 442.35 340.7 442.35 352.5 442.35 361.1 435.8 369.0 431.3 374.4 421.35 381.7 409.55 390.35 406.9 392.8 400.35 398.9 400.35 404.5 400.35 406.6 394.4 414.6 387.95 423.35 384.35 423.35 377.35 423.35 367.8 419.75 358.15 416.15 354.9 410.85 L352.05 413.1 Q344.55 419.05 336.9 424.35 L336.7 424.5 329.15 429.5 M421.15 376.2 L427.4 370.95 430.5 367.75 Q437.35 360.0 437.35 352.35 437.35 341.8 426.55 335.25 418.95 330.6 402.85 326.7 L379.15 320.65 Q368.35 316.85 368.35 311.0 370.35 292.5 370.35 290.0 370.35 265.35 352.15 260.05 345.7 258.15 335.45 258.25 L319.1 258.75 Q281.8 258.75 275.2 261.15 273.15 262.3 271.55 262.75 L260.85 263.5 Q242.1 263.5 226.2 250.65 223.05 248.1 216.55 241.75 212.4 237.75 211.0 237.75 190.25 237.75 177.2 243.05 173.4 244.6 169.45 247.05 L165.0 249.5 163.6 248.95 Q161.3 250.3 152.95 251.35 L127.5 254.5 Q90.5 260.1 90.5 275.0 90.5 285.35 100.5 306.1 100.5 309.45 76.15 321.8 L58.45 330.7 58.15 330.85 51.9 333.95 51.25 334.25 Q46.7 340.8 45.3 348.45 44.5 352.75 44.5 361.6 44.5 375.95 50.15 384.1 56.95 393.8 75.35 402.9 L76.05 402.6 80.0 402.35 Q82.5 402.35 86.65 404.35 L95.0 408.75 Q107.2 415.1 116.5 415.1 152.8 415.1 170.8 406.75 175.3 404.65 182.6 400.95 189.2 398.35 198.0 398.35 217.1 398.35 258.3 417.25 L273.6 424.5 283.9 429.5 285.3 430.2 Q297.35 436.1 298.85 436.1 308.05 436.1 320.4 429.5 324.4 427.35 328.75 424.5 L334.2 420.75 347.85 410.15 Q353.85 405.35 354.85 405.35 L355.05 405.4 355.85 405.35 356.7 405.8 357.1 405.85 358.0 406.15 358.25 406.5 Q382.5 418.1 382.85 418.1 385.0 418.1 395.35 405.1 395.35 403.85 394.35 403.05 393.35 402.25 393.35 401.0 393.35 396.95 400.25 391.3 L400.35 391.25 401.65 390.25 415.0 380.75 Q415.2 380.6 415.35 380.5 L421.15 376.2" fill="#000000" fill-rule="evenodd" stroke="none"/>
      <path d="M58.45 330.7 L58.5 331.6 58.15 330.85 58.45 330.7" fill="#b7a048" fill-rule="evenodd" stroke="none"/>
      <path d="M382.35 336.6 Q382.35 347.55 381.25 353.95 379.95 361.6 379.05 369.2 L382.1 366.25 Q386.5 362.2 390.85 358.5 L393.05 358.75 Q393.35 359.0 393.35 360.85 393.35 362.5 385.95 370.35 378.6 378.2 375.85 379.5 L374.15 378.75 Q374.0 379.5 371.85 379.5 371.35 379.5 365.35 367.0 365.35 365.2 365.9 364.8 L368.35 364.5 Q371.6 364.5 373.45 371.2 374.05 364.4 379.85 324.5 383.1 324.5 382.35 336.6 M116.7 319.95 Q117.5 320.3 117.5 321.85 117.5 323.4 111.95 340.65 106.1 358.8 105.25 365.75 L103.0 366.5 Q101.65 366.05 101.05 365.2 L100.0 365.5 Q98.1 362.4 97.65 356.5 97.5 354.35 97.5 346.25 97.5 338.15 97.65 336.05 98.1 330.15 100.0 327.5 101.95 330.65 102.4 336.6 L102.5 346.35 102.5 352.5 Q104.05 347.0 106.9 338.95 113.05 321.5 115.0 319.5 L116.7 319.95 M191.75 257.75 L192.2 256.85 Q192.45 256.5 194.0 256.5 198.15 256.5 201.1 264.9 L201.45 265.85 206.0 247.5 Q209.35 247.5 208.5 256.25 208.5 260.45 206.75 268.3 205.15 275.4 203.5 277.05 L203.5 277.25 Q203.5 278.5 201.0 278.5 L200.15 277.1 199.75 277.0 Q199.55 277.2 199.55 275.9 197.25 271.4 191.5 259.25 191.5 258.5 191.75 257.75" fill="#13a840" fill-rule="evenodd" stroke="none"/>
      <path d="M58.45 330.7 L76.15 321.8 Q100.5 309.45 100.5 306.1 90.5 285.35 90.5 275.0 90.5 260.1 127.5 254.5 L152.95 251.35 Q161.3 250.3 163.6 248.95 L165.0 249.5 169.45 247.05 Q173.4 244.6 177.2 243.05 190.25 237.75 211.0 237.75 212.4 237.75 216.55 241.75 223.05 248.1 226.2 250.65 242.1 263.5 260.85 263.5 L271.55 262.75 Q273.15 262.3 275.2 261.15 281.8 258.75 319.1 258.75 L335.45 258.25 Q345.7 258.15 352.15 260.05 370.35 265.35 370.35 290.0 370.35 292.5 368.35 311.0 368.35 316.85 379.15 320.65 L402.85 326.7 Q418.95 330.6 426.55 335.25 437.35 341.8 437.35 352.35 437.35 360.0 430.5 367.75 L427.4 370.95 421.15 376.2 420.7 376.45 Q418.95 377.5 415.0 380.75 L401.65 390.25 400.1 390.9 400.25 391.3 Q393.35 396.95 393.35 401.0 393.35 402.25 394.35 403.05 395.35 403.85 395.35 405.1 385.0 418.1 382.85 418.1 382.5 418.1 358.25 406.5 L358.0 406.15 357.1 405.85 356.7 405.8 355.85 405.35 355.05 405.4 354.85 405.35 Q353.85 405.35 347.85 410.15 L334.2 420.75 328.75 424.5 Q324.4 427.35 320.4 429.5 308.05 436.1 298.85 436.1 297.35 436.1 285.3 430.2 L283.9 429.5 273.6 424.5 258.3 417.25 Q217.1 398.35 198.0 398.35 189.2 398.35 182.6 400.95 175.3 404.65 170.8 406.75 152.8 415.1 116.5 415.1 107.2 415.1 95.0 408.75 L86.65 404.35 Q82.5 402.35 80.0 402.35 L76.05 402.6 75.35 402.9 Q56.95 393.8 50.15 384.1 44.5 375.95 44.5 361.6 44.5 352.75 45.3 348.45 46.7 340.8 51.25 334.25 L51.7 334.4 51.9 333.95 58.15 330.85 58.5 331.6 58.45 330.7 M382.35 336.6 Q383.1 324.5 379.85 324.5 374.05 364.4 373.45 371.2 371.6 364.5 368.35 364.5 L365.9 364.8 Q365.35 365.2 365.35 367.0 371.35 379.5 371.85 379.5 374.0 379.5 374.15 378.75 L375.85 379.5 Q378.6 378.2 385.95 370.35 393.35 362.5 393.35 360.85 393.35 359.0 393.05 358.75 L390.85 358.5 Q386.5 362.2 382.1 366.25 L379.05 369.2 Q379.95 361.6 381.25 353.95 382.35 347.55 382.35 336.6 M394.85 387.5 L393.25 387.8 Q392.35 388.15 392.35 389.75 392.35 392.25 392.6 391.25 393.35 392.0 394.85 392.5 397.35 391.45 397.35 389.5 396.45 388.15 394.85 387.5 M372.85 391.5 L371.25 391.8 Q370.35 392.15 370.35 393.75 370.35 396.25 370.6 395.25 371.35 396.0 372.85 396.5 375.35 395.45 375.35 393.5 374.45 392.15 372.85 391.5 M58.55 367.25 Q58.6 367.8 58.75 367.25 59.5 368.0 61.0 368.5 63.5 367.45 63.5 365.5 62.6 364.15 61.0 363.5 L59.8 363.65 58.0 362.5 56.4 362.8 Q55.5 363.15 55.5 364.75 55.5 367.25 55.75 366.25 56.5 367.0 58.0 367.5 L58.55 367.25 M80.05 374.05 L79.0 373.5 77.4 373.8 Q76.5 374.15 76.5 375.75 76.5 378.25 76.75 377.25 77.5 378.0 79.0 378.5 L80.35 377.75 82.0 378.5 Q84.5 377.45 84.5 375.5 83.6 374.15 82.0 373.5 L80.4 373.8 80.05 374.05 M69.5 384.75 Q69.5 387.25 69.75 386.25 70.5 387.0 72.0 387.5 74.5 386.45 74.5 384.5 73.6 383.15 72.0 382.5 L70.4 382.8 Q69.5 383.15 69.5 384.75 M67.0 388.5 Q69.5 387.45 69.5 385.5 68.6 384.15 67.0 383.5 L65.4 383.8 Q64.5 384.15 64.5 385.75 64.5 388.25 64.75 387.25 65.5 388.0 67.0 388.5 M116.7 319.95 L115.0 319.5 Q113.05 321.5 106.9 338.95 104.05 347.0 102.5 352.5 L102.5 346.35 102.4 336.6 Q101.95 330.65 100.0 327.5 98.1 330.15 97.65 336.05 97.5 338.15 97.5 346.25 97.5 354.35 97.65 356.5 98.1 362.4 100.0 365.5 L101.05 365.2 Q101.65 366.05 103.0 366.5 L105.25 365.75 Q106.1 358.8 111.95 340.65 117.5 323.4 117.5 321.85 117.5 320.3 116.7 319.95 M134.5 388.5 Q133.6 387.15 132.0 386.5 L130.4 386.8 Q129.5 387.15 129.5 388.75 129.5 391.25 129.75 390.25 130.5 391.0 132.0 391.5 134.5 390.45 134.5 388.5 M135.0 395.5 L133.4 395.8 Q132.5 396.15 132.5 397.75 132.5 400.25 132.75 399.25 133.5 400.0 135.0 400.5 137.5 399.45 137.5 397.5 136.6 396.15 135.0 395.5 M191.75 257.75 Q191.5 258.5 191.5 259.25 197.25 271.4 199.55 275.9 199.55 277.2 199.75 277.0 L200.15 277.1 201.0 278.5 Q203.5 278.5 203.5 277.25 L203.5 277.05 Q205.15 275.4 206.75 268.3 208.5 260.45 208.5 256.25 209.35 247.5 206.0 247.5 L201.45 265.85 201.1 264.9 Q198.15 256.5 194.0 256.5 192.45 256.5 192.2 256.85 L191.75 257.75 M86.4 397.8 Q85.5 398.15 85.5 399.75 85.5 402.25 85.75 401.25 86.5 402.0 88.0 402.5 90.5 401.45 90.5 399.5 89.6 398.15 88.0 397.5 L86.4 397.8 M107.5 399.75 Q107.5 402.25 107.75 401.25 108.5 402.0 110.0 402.5 112.5 401.45 112.5 399.5 111.6 398.15 110.0 397.5 L108.4 397.8 Q107.5 398.15 107.5 399.75 M123.4 404.8 Q122.5 405.15 122.5 406.75 122.5 409.25 122.75 408.25 123.5 409.0 125.0 409.5 127.5 408.45 127.5 406.5 126.6 405.15 125.0 404.5 L123.4 404.8 M157.5 408.5 Q156.6 407.15 155.0 406.5 L153.4 406.8 Q152.5 407.15 152.5 408.75 152.5 411.25 152.75 410.25 153.5 411.0 155.0 411.5 157.5 410.45 157.5 408.5 M256.6 409.25 Q257.35 410.0 258.85 410.5 261.35 409.45 261.35 407.5 260.45 406.15 258.85 405.5 L257.25 405.8 Q256.35 406.15 256.35 407.75 256.35 410.25 256.6 409.25 M277.35 407.5 Q276.45 406.15 274.85 405.5 L273.25 405.8 Q272.35 406.15 272.35 407.75 272.35 410.25 272.6 409.25 273.35 410.0 274.85 410.5 277.35 409.45 277.35 407.5 M284.85 425.5 L286.5 424.5 Q287.35 423.65 287.35 422.5 286.45 421.15 284.85 420.5 L283.25 420.8 Q282.35 421.15 282.35 422.75 L282.45 424.5 282.5 424.55 282.6 424.35 282.6 424.25 282.9 424.5 Q283.6 425.1 284.85 425.5 M304.6 414.25 Q305.35 415.0 306.85 415.5 309.35 414.45 309.35 412.5 308.45 411.15 306.85 410.5 L305.25 410.8 Q304.35 411.15 304.35 412.75 304.35 415.25 304.6 414.25 M236.85 395.5 L235.25 395.8 Q234.35 396.15 234.35 397.75 234.35 400.25 234.6 399.25 235.35 400.0 236.85 400.5 239.35 399.45 239.35 397.5 238.45 396.15 236.85 395.5 M223.5 392.5 Q222.6 391.15 221.0 390.5 L219.4 390.8 Q218.5 391.15 218.5 392.75 218.5 395.25 218.75 394.25 219.5 395.0 221.0 395.5 223.5 394.45 223.5 392.5 M181.5 391.5 Q180.6 390.15 179.0 389.5 L177.4 389.8 Q176.5 390.15 176.5 391.75 176.5 394.25 176.75 393.25 177.5 394.0 179.0 394.5 181.5 393.45 181.5 391.5 M333.35 411.5 Q332.45 410.15 330.85 409.5 L329.25 409.8 Q328.35 410.15 328.35 411.75 328.35 414.25 328.6 413.25 329.35 414.0 330.85 414.5 333.35 413.45 333.35 411.5 M364.35 398.5 Q363.45 397.15 361.85 396.5 L360.25 396.8 Q359.35 397.15 359.35 398.75 359.35 401.25 359.6 400.25 360.35 401.0 361.85 401.5 364.35 400.45 364.35 398.5 M380.35 405.5 Q379.45 404.15 377.85 403.5 L376.25 403.8 Q375.35 404.15 375.35 405.75 375.35 408.25 375.6 407.25 376.35 408.0 377.85 408.5 380.35 407.45 380.35 405.5" fill="#ffffcc" fill-rule="evenodd" stroke="none"/>
      <path d="M59.8 363.65 L61.0 363.5 Q62.6 364.15 63.5 365.5 63.5 367.45 61.0 368.5 59.5 368.0 58.75 367.25 58.6 367.8 58.55 367.25 60.5 366.2 60.5 364.5 L59.8 363.65 M80.05 374.05 L80.4 373.8 82.0 373.5 Q83.6 374.15 84.5 375.5 84.5 377.45 82.0 378.5 L80.35 377.75 Q81.5 376.8 81.5 375.5 L80.05 374.05 M67.0 388.5 Q65.5 388.0 64.75 387.25 64.5 388.25 64.5 385.75 64.5 384.15 65.4 383.8 L67.0 383.5 Q68.6 384.15 69.5 385.5 69.5 387.45 67.0 388.5" fill="#ffff91" fill-rule="evenodd" stroke="none"/>
      <path d="M372.85 391.5 Q374.45 392.15 375.35 393.5 375.35 395.45 372.85 396.5 371.35 396.0 370.6 395.25 370.35 396.25 370.35 393.75 370.35 392.15 371.25 391.8 L372.85 391.5 M394.85 387.5 Q396.45 388.15 397.35 389.5 397.35 391.45 394.85 392.5 393.35 392.0 392.6 391.25 392.35 392.25 392.35 389.75 392.35 388.15 393.25 387.8 L394.85 387.5 M58.55 367.25 L58.0 367.5 Q56.5 367.0 55.75 366.25 55.5 367.25 55.5 364.75 55.5 363.15 56.4 362.8 L58.0 362.5 59.8 363.65 60.5 364.5 Q60.5 366.2 58.55 367.25 M80.35 377.75 L79.0 378.5 Q77.5 378.0 76.75 377.25 76.5 378.25 76.5 375.75 76.5 374.15 77.4 373.8 L79.0 373.5 80.05 374.05 81.5 375.5 Q81.5 376.8 80.35 377.75 M69.5 384.75 Q69.5 383.15 70.4 382.8 L72.0 382.5 Q73.6 383.15 74.5 384.5 74.5 386.45 72.0 387.5 70.5 387.0 69.75 386.25 69.5 387.25 69.5 384.75 M135.0 395.5 Q136.6 396.15 137.5 397.5 137.5 399.45 135.0 400.5 133.5 400.0 132.75 399.25 132.5 400.25 132.5 397.75 132.5 396.15 133.4 395.8 L135.0 395.5 M134.5 388.5 Q134.5 390.45 132.0 391.5 130.5 391.0 129.75 390.25 129.5 391.25 129.5 388.75 129.5 387.15 130.4 386.8 L132.0 386.5 Q133.6 387.15 134.5 388.5 M181.5 391.5 Q181.5 393.45 179.0 394.5 177.5 394.0 176.75 393.25 176.5 394.25 176.5 391.75 176.5 390.15 177.4 389.8 L179.0 389.5 Q180.6 390.15 181.5 391.5 M223.5 392.5 Q223.5 394.45 221.0 395.5 219.5 395.0 218.75 394.25 218.5 395.25 218.5 392.75 218.5 391.15 219.4 390.8 L221.0 390.5 Q222.6 391.15 223.5 392.5 M236.85 395.5 Q238.45 396.15 239.35 397.5 239.35 399.45 236.85 400.5 235.35 400.0 234.6 399.25 234.35 400.25 234.35 397.75 234.35 396.15 235.25 395.8 L236.85 395.5 M304.6 414.25 Q304.35 415.25 304.35 412.75 304.35 411.15 305.25 410.8 L306.85 410.5 Q308.45 411.15 309.35 412.5 309.35 414.45 306.85 415.5 305.35 415.0 304.6 414.25 M284.85 425.5 Q283.6 425.1 282.9 424.5 L282.6 424.25 282.6 424.35 282.5 424.55 282.45 424.5 282.35 422.75 Q282.35 421.15 283.25 420.8 L284.85 420.5 Q286.45 421.15 287.35 422.5 287.35 423.65 286.5 424.5 L284.85 425.5 M277.35 407.5 Q277.35 409.45 274.85 410.5 273.35 410.0 272.6 409.25 272.35 410.25 272.35 407.75 272.35 406.15 273.25 405.8 L274.85 405.5 Q276.45 406.15 277.35 407.5 M256.6 409.25 Q256.35 410.25 256.35 407.75 256.35 406.15 257.25 405.8 L258.85 405.5 Q260.45 406.15 261.35 407.5 261.35 409.45 258.85 410.5 257.35 410.0 256.6 409.25 M157.5 408.5 Q157.5 410.45 155.0 411.5 153.5 411.0 152.75 410.25 152.5 411.25 152.5 408.75 152.5 407.15 153.4 406.8 L155.0 406.5 Q156.6 407.15 157.5 408.5 M123.4 404.8 L125.0 404.5 Q126.6 405.15 127.5 406.5 127.5 408.45 125.0 409.5 123.5 409.0 122.75 408.25 122.5 409.25 122.5 406.75 122.5 405.15 123.4 404.8 M107.5 399.75 Q107.5 398.15 108.4 397.8 L110.0 397.5 Q111.6 398.15 112.5 399.5 112.5 401.45 110.0 402.5 108.5 402.0 107.75 401.25 107.5 402.25 107.5 399.75 M86.4 397.8 L88.0 397.5 Q89.6 398.15 90.5 399.5 90.5 401.45 88.0 402.5 86.5 402.0 85.75 401.25 85.5 402.25 85.5 399.75 85.5 398.15 86.4 397.8 M380.35 405.5 Q380.35 407.45 377.85 408.5 376.35 408.0 375.6 407.25 375.35 408.25 375.35 405.75 375.35 404.15 376.25 403.8 L377.85 403.5 Q379.45 404.15 380.35 405.5 M364.35 398.5 Q364.35 400.45 361.85 401.5 360.35 401.0 359.6 400.25 359.35 401.25 359.35 398.75 359.35 397.15 360.25 396.8 L361.85 396.5 Q363.45 397.15 364.35 398.5 M333.35 411.5 Q333.35 413.45 330.85 414.5 329.35 414.0 328.6 413.25 328.35 414.25 328.35 411.75 328.35 410.15 329.25 409.8 L330.85 409.5 Q332.45 410.15 333.35 411.5" fill="#ece6ce" fill-rule="evenodd" stroke="none"/>
      <path d="M-0.55 14.2 L-0.05 1.5 Q-2.5 0.6 -2.5 -2.0 -1.75 -2.75 0.0 -3.5 L551.85 -3.5 553.55 -3.05 553.6 -3.0 553.85 -3.5 Q555.9 -3.5 556.3 104.25 L556.35 114.25 Q554.0 114.05 551.55 112.4 548.8 110.5 542.85 110.5 534.95 110.5 529.15 115.25 524.35 119.2 524.35 122.35 524.35 124.05 525.05 124.7 L526.85 125.5 Q528.85 124.65 530.4 120.1 533.3 116.0 542.85 116.0 548.15 116.0 552.05 117.75 554.5 118.85 556.35 119.3 L556.35 212.1 556.3 312.45 555.75 312.75 Q553.65 314.0 549.35 314.0 544.1 314.0 541.35 310.75 538.6 307.5 533.85 307.5 528.05 307.5 518.9 312.25 510.35 316.65 510.35 318.35 510.35 320.05 511.05 320.7 511.4 321.0 512.85 321.5 515.45 319.9 519.65 316.05 524.4 313.0 533.35 313.0 535.6 313.0 537.05 314.0 L539.4 316.25 Q542.65 319.5 549.35 319.5 551.9 319.5 556.3 317.9 L556.1 424.6 557.55 424.95 Q558.35 425.3 558.35 426.85 558.35 428.45 557.5 429.0 L555.85 429.5 329.15 429.5 336.7 424.5 336.9 424.5 336.9 424.35 Q344.55 419.05 352.05 413.1 L354.9 410.85 Q358.15 416.15 367.8 419.75 377.35 423.35 384.35 423.35 387.95 423.35 394.4 414.6 400.35 406.6 400.35 404.5 400.35 398.9 406.9 392.8 409.55 390.35 421.35 381.7 431.3 374.4 435.8 369.0 442.35 361.1 442.35 352.5 442.35 340.7 431.55 332.75 423.4 326.75 407.85 322.35 L384.15 316.5 Q373.35 313.65 373.35 310.5 375.35 292.5 375.35 290.0 375.35 267.4 358.85 259.3 347.05 253.5 319.85 253.5 284.45 253.5 276.5 255.9 L270.3 257.5 252.85 258.25 Q247.85 258.25 241.4 254.25 237.9 252.05 229.6 245.4 221.8 239.1 217.35 236.5 210.4 232.5 204.5 232.5 193.45 232.5 177.5 238.25 163.35 243.4 162.55 246.05 L155.0 245.5 Q129.35 245.5 108.5 253.5 85.5 262.25 85.5 275.25 85.5 283.95 87.7 289.35 93.2 302.7 94.25 306.0 57.5 319.05 46.3 333.8 41.75 339.8 40.35 347.3 39.5 351.75 39.5 361.1 39.5 375.05 46.25 388.35 56.4 408.35 77.0 408.35 L78.3 408.15 79.05 408.6 Q83.95 411.35 91.5 413.85 111.1 420.35 132.5 420.35 145.75 420.35 155.25 417.75 160.85 416.2 169.6 412.0 178.25 407.8 184.2 406.2 194.0 403.6 207.75 403.6 214.2 403.6 255.3 422.1 L260.7 424.5 272.1 429.5 3.0 429.5 Q1.1 428.85 0.65 427.2 L0.0 427.35 Q-2.55 418.85 -2.95 406.95 1.15 403.75 9.5 403.75 L11.65 405.75 16.55 410.15 Q25.05 416.5 36.0 416.5 45.5 416.5 45.5 410.85 45.5 409.3 44.7 408.95 L43.0 408.5 Q41.5 408.85 41.45 409.4 L41.5 410.3 Q41.0 411.25 31.0 411.25 26.4 411.25 18.35 404.9 10.3 398.5 8.5 398.5 2.5 398.5 -3.05 401.25 L-3.05 400.6 Q-2.3 382.55 -2.5 373.75 L-2.5 213.1 Q-2.5 130.2 -2.3 105.95 -1.95 57.8 -0.7 19.75 0.65 19.0 1.85 19.0 3.2 19.0 3.75 20.0 L4.7 22.25 Q6.7 25.5 15.5 25.5 L23.05 25.25 Q24.5 24.9 24.5 22.85 24.5 22.1 23.25 22.45 L19.8 23.25 Q13.8 24.05 8.75 18.25 7.9 17.3 6.85 14.05 6.35 12.5 3.0 12.5 L-0.55 14.2 M427.3 246.05 Q423.65 242.5 418.85 242.5 411.6 242.5 400.85 247.75 390.35 252.9 390.35 256.0 390.35 258.65 392.85 259.5 L401.8 253.1 Q410.55 247.75 417.75 247.75 420.75 247.75 424.2 251.3 L431.05 259.15 Q441.3 270.5 454.35 270.5 466.3 270.5 473.35 267.45 476.05 266.25 482.35 261.5 481.45 260.15 479.85 259.5 477.6 260.15 475.15 261.35 L471.15 263.2 Q465.9 265.25 455.1 265.25 446.85 265.25 441.15 261.7 437.2 259.2 433.3 253.9 428.4 247.15 427.3 246.05 M345.1 145.75 Q334.4 139.5 328.35 139.5 321.3 139.5 315.15 142.0 309.35 144.35 309.35 146.75 309.35 148.4 310.05 148.9 L311.85 149.5 Q313.2 149.15 315.8 146.95 319.7 145.0 328.35 145.0 332.65 145.0 343.95 151.25 355.2 157.5 360.35 157.5 373.35 155.35 373.35 151.85 373.35 150.3 372.55 149.95 L370.85 149.5 Q362.1 152.0 360.6 152.0 355.8 152.0 345.1 145.75 M135.5 201.85 Q135.5 201.55 134.4 202.5 132.95 203.75 131.25 204.45 L134.05 204.25 Q135.5 204.0 135.5 201.85 M108.3 196.05 Q105.75 194.5 100.5 194.5 88.35 194.5 82.0 197.25 76.5 199.55 76.5 203.25 76.5 205.05 76.65 205.5 77.1 206.85 79.0 207.5 L80.5 207.0 Q83.7 203.8 85.7 202.8 91.9 199.75 103.75 199.75 105.65 199.75 106.55 202.15 109.7 204.5 122.45 204.5 117.3 203.05 111.0 198.5 109.7 196.95 108.3 196.05 M190.15 121.25 L189.25 121.0 Q173.2 121.7 169.65 115.7 L167.65 111.45 Q166.3 109.5 163.0 109.5 154.3 109.5 147.8 115.75 142.5 120.85 142.5 124.35 142.5 125.15 145.0 127.5 146.65 126.5 149.9 120.4 154.3 114.75 163.0 114.75 163.3 114.75 164.3 116.75 165.65 119.4 167.05 121.15 172.15 127.5 181.5 127.5 184.8 127.5 187.5 126.25 190.5 124.9 190.5 122.85 190.5 121.35 190.15 121.25 M3.0 424.5 L2.25 424.55 2.25 425.1 3.0 424.5" fill="#d5f2ff" fill-rule="evenodd" stroke="none"/>
      <path d="M556.35 114.25 L556.85 114.25 Q560.05 114.25 563.15 112.85 L568.85 110.5 570.55 110.95 Q571.35 111.3 571.35 112.85 571.35 115.0 558.35 119.5 L556.35 119.3 Q554.5 118.85 552.05 117.75 548.15 116.0 542.85 116.0 533.3 116.0 530.4 120.1 528.85 124.65 526.85 125.5 L525.05 124.7 Q524.35 124.05 524.35 122.35 524.35 119.2 529.15 115.25 534.95 110.5 542.85 110.5 548.8 110.5 551.55 112.4 554.0 114.05 556.35 114.25 M556.3 312.45 Q559.2 310.75 559.85 310.5 L561.55 310.95 Q562.35 311.3 562.35 312.85 562.35 315.6 556.6 317.75 L556.3 317.9 Q551.9 319.5 549.35 319.5 542.65 319.5 539.4 316.25 L537.05 314.0 Q535.6 313.0 533.35 313.0 524.4 313.0 519.65 316.05 515.45 319.9 512.85 321.5 511.4 321.0 511.05 320.7 510.35 320.05 510.35 318.35 510.35 316.65 518.9 312.25 528.05 307.5 533.85 307.5 538.6 307.5 541.35 310.75 544.1 314.0 549.35 314.0 553.65 314.0 555.75 312.75 L556.3 312.45 M-2.95 406.95 L-3.15 407.1 -5.7 409.7 Q-6.95 411.1 -8.0 411.5 L-9.8 410.9 Q-10.5 410.4 -10.5 408.75 -10.5 405.35 -4.45 402.0 L-3.05 401.25 Q2.5 398.5 8.5 398.5 10.3 398.5 18.35 404.9 26.4 411.25 31.0 411.25 41.0 411.25 41.5 410.3 L41.45 409.4 Q41.5 408.85 43.0 408.5 L44.7 408.95 Q45.5 409.3 45.5 410.85 45.5 416.5 36.0 416.5 25.05 416.5 16.55 410.15 L11.65 405.75 9.5 403.75 Q1.15 403.75 -2.95 406.95 M-0.7 19.75 Q-2.3 20.55 -4.1 22.25 -7.55 25.5 -8.5 25.5 L-10.5 25.0 -11.3 24.55 Q-11.5 24.3 -11.5 22.75 -11.5 19.7 -0.55 14.2 L3.0 12.5 Q6.35 12.5 6.85 14.05 7.9 17.3 8.75 18.25 13.8 24.05 19.8 23.25 L23.25 22.45 Q24.5 22.1 24.5 22.85 24.5 24.9 23.05 25.25 L15.5 25.5 Q6.7 25.5 4.7 22.25 L3.75 20.0 Q3.2 19.0 1.85 19.0 0.65 19.0 -0.7 19.75 M345.1 145.75 Q355.8 152.0 360.6 152.0 362.1 152.0 370.85 149.5 L372.55 149.95 Q373.35 150.3 373.35 151.85 373.35 155.35 360.35 157.5 355.2 157.5 343.95 151.25 332.65 145.0 328.35 145.0 319.7 145.0 315.8 146.95 313.2 149.15 311.85 149.5 L310.05 148.9 Q309.35 148.4 309.35 146.75 309.35 144.35 315.15 142.0 321.3 139.5 328.35 139.5 334.4 139.5 345.1 145.75 M427.3 246.05 Q428.4 247.15 433.3 253.9 437.2 259.2 441.15 261.7 446.85 265.25 455.1 265.25 465.9 265.25 471.15 263.2 L475.15 261.35 Q477.6 260.15 479.85 259.5 481.45 260.15 482.35 261.5 476.05 266.25 473.35 267.45 466.3 270.5 454.35 270.5 441.3 270.5 431.05 259.15 L424.2 251.3 Q420.75 247.75 417.75 247.75 410.55 247.75 401.8 253.1 L392.85 259.5 Q390.35 258.65 390.35 256.0 390.35 252.9 400.85 247.75 411.6 242.5 418.85 242.5 423.65 242.5 427.3 246.05 M190.15 121.25 Q190.5 121.35 190.5 122.85 190.5 124.9 187.5 126.25 184.8 127.5 181.5 127.5 172.15 127.5 167.05 121.15 165.65 119.4 164.3 116.75 163.3 114.75 163.0 114.75 154.3 114.75 149.9 120.4 146.65 126.5 145.0 127.5 142.5 125.15 142.5 124.35 142.5 120.85 147.8 115.75 154.3 109.5 163.0 109.5 166.3 109.5 167.65 111.45 L169.65 115.7 Q173.2 121.7 189.25 121.0 L190.15 121.25 M108.3 196.05 Q109.7 196.95 111.0 198.5 117.3 203.05 122.45 204.5 109.7 204.5 106.55 202.15 105.65 199.75 103.75 199.75 91.9 199.75 85.7 202.8 83.7 203.8 80.5 207.0 L79.0 207.5 Q77.1 206.85 76.65 205.5 76.5 205.05 76.5 203.25 76.5 199.55 82.0 197.25 88.35 194.5 100.5 194.5 105.75 194.5 108.3 196.05 M135.5 201.85 Q135.5 204.0 134.05 204.25 L131.25 204.45 Q132.95 203.75 134.4 202.5 135.5 201.55 135.5 201.85" fill="#ffffff" fill-rule="evenodd" stroke="none"/>
      <path d="M307.1 123.55 Q322.0 91.3 334.9 69.1 L332.1 69.25 322.5 70.15 Q305.2 73.2 285.6 86.75 269.4 97.95 259.85 109.25 237.75 134.8 235.5 154.25 235.5 155.5 233.0 155.5 230.35 155.5 226.35 143.65 L221.5 127.25 Q216.5 112.15 216.5 98.75 216.5 91.4 218.15 81.5 220.85 64.95 227.0 51.55 229.65 45.75 232.85 40.75 L229.7 41.25 Q217.1 43.8 205.0 53.5 202.5 52.1 202.5 47.35 202.5 24.3 215.95 6.5 240.2 -25.5 300.85 -25.5 333.85 -25.5 347.9 -12.75 361.35 -0.5 361.35 27.35 361.35 37.6 357.15 53.2 L357.3 53.35 Q358.6 49.7 361.8 43.45 366.4 34.35 367.85 32.5 379.4 17.0 395.35 13.7 401.65 12.4 411.45 12.3 L430.35 12.5 Q479.25 12.5 512.15 58.15 522.5 72.5 529.95 89.65 533.65 98.25 535.35 104.1 L535.1 106.75 Q535.35 107.5 532.85 107.5 525.6 98.5 522.35 97.0 517.6 94.85 509.35 92.9 L497.55 90.25 501.85 95.0 Q509.65 102.8 513.5 122.45 516.35 136.95 516.35 152.0 L515.1 163.85 Q513.5 176.5 511.4 187.3 504.8 220.5 496.35 220.5 L493.6 220.0 494.35 196.35 Q494.35 183.3 479.7 166.45 468.1 153.05 445.3 135.35 437.95 129.65 405.45 106.0 L391.25 95.4 391.35 97.1 Q391.35 121.5 373.35 121.5 359.95 121.5 354.35 111.0 353.35 109.15 352.7 107.05 L352.2 108.1 Q339.2 138.25 329.85 162.35 297.35 246.0 297.35 282.35 297.35 291.25 303.35 334.5 L302.6 335.8 Q301.95 336.5 300.35 336.5 L300.35 336.85 Q300.35 340.25 289.8 344.0 280.1 347.5 273.85 347.5 263.45 347.5 257.05 344.3 253.15 342.4 248.35 337.5 L249.35 335.95 Q247.85 334.65 247.4 330.4 L247.35 324.0 Q247.35 321.25 250.5 295.0 253.65 268.2 255.1 259.5 260.25 228.75 275.35 195.0 293.95 152.35 303.85 130.65 L305.4 127.25 307.1 123.55 M498.35 85.5 Q505.4 85.5 515.3 88.85 520.35 90.55 525.35 92.75 503.35 44.35 477.7 28.4 467.0 21.75 453.95 19.4 444.8 17.75 429.6 17.75 406.9 17.75 400.9 18.2 390.05 19.05 384.3 22.55 378.4 26.15 373.05 35.25 369.9 40.6 362.85 55.9 366.3 53.1 370.5 50.35 385.55 40.5 392.85 42.75 L406.85 42.5 Q440.1 42.5 471.55 66.15 481.7 73.8 491.55 83.9 L493.85 86.3 Q494.2 85.85 494.9 85.7 L498.35 85.5 M486.75 86.15 Q477.5 76.5 468.2 69.5 439.3 47.75 406.75 47.75 379.3 47.75 367.3 56.4 363.55 59.05 361.2 62.75 L359.35 65.95 359.35 67.25 Q368.4 67.3 370.65 68.75 371.35 69.15 371.35 71.0 371.35 72.6 370.55 73.65 L368.85 75.5 368.1 77.0 Q373.35 77.0 373.35 80.25 L373.15 81.7 375.05 81.95 374.35 81.25 375.1 80.1 Q375.75 79.5 377.35 79.5 378.0 79.5 412.3 104.5 449.45 131.6 464.1 143.75 484.5 160.65 493.6 176.8 503.8 194.85 498.35 209.75 501.1 203.65 506.3 179.8 511.35 156.75 511.35 152.0 511.35 137.65 508.55 123.7 504.7 104.7 497.1 97.25 491.6 91.15 486.75 86.15 M339.95 52.65 L338.1 38.75 Q337.9 35.8 337.3 33.45 336.15 29.05 332.65 25.75 322.0 15.75 290.5 15.75 247.9 15.75 230.55 56.25 221.8 76.7 221.5 99.0 L221.6 111.15 Q221.75 114.15 222.65 116.5 L225.7 124.1 Q228.55 131.6 232.0 143.25 247.65 108.1 279.45 85.65 292.55 76.4 305.9 71.3 318.4 66.5 327.85 66.5 334.35 66.5 335.25 68.3 L335.3 68.45 335.6 67.95 Q335.35 65.7 335.35 62.75 335.35 52.85 337.85 51.5 L339.7 52.9 340.05 53.4 339.95 52.65 M208.35 43.65 L221.05 40.0 Q229.6 37.5 231.0 37.5 L234.95 37.65 Q254.15 10.5 290.35 10.5 327.2 10.5 340.4 32.25 347.05 43.25 346.35 55.5 L346.25 61.3 349.7 57.3 Q351.45 55.2 352.75 54.05 L352.35 53.0 Q356.35 30.75 356.35 27.1 356.95 23.35 356.9 18.85 356.7 9.95 353.15 2.75 341.85 -20.0 300.85 -20.0 243.75 -20.0 220.45 11.0 213.05 20.8 209.95 32.65 208.4 38.7 208.25 43.25 L208.0 43.75 208.25 43.7 208.35 43.65 M364.2 72.75 Q352.8 71.6 352.45 67.95 352.3 66.85 353.3 64.5 354.35 61.95 354.35 60.75 348.35 69.5 346.35 69.5 344.85 69.5 343.15 68.65 L340.35 67.25 340.35 73.25 337.85 74.5 337.5 74.15 337.4 74.35 337.35 74.45 332.95 84.65 332.05 86.5 329.8 90.85 325.05 99.8 Q318.0 112.8 312.25 123.85 L309.2 129.8 Q301.05 145.55 295.85 156.75 L295.6 157.35 290.0 169.85 289.25 171.65 287.0 177.05 Q276.8 201.6 269.7 225.65 L268.25 230.55 Q259.95 259.85 256.3 288.3 L255.85 291.65 Q253.35 312.6 253.35 333.1 L253.25 334.75 Q254.3 335.05 255.1 335.7 L257.55 338.4 Q261.65 342.25 273.85 342.25 283.55 342.25 291.3 338.55 294.95 336.85 297.5 334.85 294.25 307.0 293.05 293.45 L292.65 288.55 292.35 282.35 Q292.35 264.55 299.2 237.25 L300.2 233.45 315.4 185.2 316.0 183.45 317.35 179.8 319.0 175.2 Q327.2 153.05 335.35 133.45 L336.8 130.1 Q344.1 112.7 351.45 97.4 L351.5 97.25 Q351.8 95.0 352.6 92.85 353.3 91.0 354.35 89.25 355.6 87.2 357.2 85.7 L359.65 80.9 359.35 80.25 Q359.35 78.9 361.25 76.8 L364.1 73.5 364.35 72.75 364.2 72.75 M365.55 87.0 L365.35 88.1 Q365.35 88.55 360.85 93.65 356.35 98.8 356.35 100.35 356.35 104.9 359.9 109.55 364.8 116.0 373.75 116.0 380.95 116.0 384.35 106.75 385.45 103.85 386.0 100.35 L386.35 97.25 Q386.35 94.15 382.55 91.05 377.0 86.55 366.2 86.75 L365.1 86.75 365.1 87.0 365.55 87.0" fill="#000000" fill-rule="evenodd" stroke="none"/>
      <path d="M366.2 86.75 Q377.0 86.55 382.55 91.05 386.35 94.15 386.35 97.25 L386.0 100.35 Q385.45 103.85 384.35 106.75 380.95 116.0 373.75 116.0 364.8 116.0 359.9 109.55 356.35 104.9 356.35 100.35 356.35 98.8 360.85 93.65 365.35 88.55 365.35 88.1 L365.55 87.0 366.2 86.75" fill="#453a10" fill-rule="evenodd" stroke="none"/>
      <path d="M337.85 74.5 L337.35 74.45 337.4 74.35 337.85 74.5 M329.8 90.85 Q332.0 91.9 337.3 93.95 346.4 97.5 349.85 97.5 L351.45 97.4 Q344.1 112.7 336.8 130.1 319.55 125.0 312.25 123.85 318.0 112.8 325.05 99.8 L329.8 90.85 M287.0 177.05 Q289.75 178.95 294.85 180.65 303.45 183.5 312.35 183.5 L316.0 183.45 315.4 185.2 300.2 233.45 Q296.1 230.45 283.4 227.85 L269.7 225.65 Q276.8 201.6 287.0 177.05 M293.05 293.45 Q294.25 307.0 297.5 334.85 294.95 336.85 291.3 338.55 283.55 342.25 273.85 342.25 261.65 342.25 257.55 338.4 L255.1 335.7 Q254.3 335.05 253.25 334.75 L253.35 333.1 Q253.35 312.6 255.85 291.65 L286.85 293.5 293.05 293.45" fill="#bda853" fill-rule="evenodd" stroke="none"/>
      <path d="M208.25 43.25 L208.35 43.65 208.25 43.7 208.25 43.25" fill="#e6ffef" fill-rule="evenodd" stroke="none"/>
      <path d="M335.25 68.3 Q334.35 66.5 327.85 66.5 318.4 66.5 305.9 71.3 292.55 76.4 279.45 85.65 247.65 108.1 232.0 143.25 228.55 131.6 225.7 124.1 L222.65 116.5 Q221.75 114.15 221.6 111.15 L221.5 99.0 Q221.8 76.7 230.55 56.25 247.9 15.75 290.5 15.75 322.0 15.75 332.65 25.75 336.15 29.05 337.3 33.45 337.9 35.8 338.1 38.75 L339.95 52.65 339.7 52.9 337.85 51.5 Q335.35 52.85 335.35 62.75 335.35 65.7 335.6 67.95 L335.25 68.3 M486.75 86.15 Q491.6 91.15 497.1 97.25 504.7 104.7 508.55 123.7 511.35 137.65 511.35 152.0 511.35 156.75 506.3 179.8 501.1 203.65 498.35 209.75 503.8 194.85 493.6 176.8 484.5 160.65 464.1 143.75 449.45 131.6 412.3 104.5 378.0 79.5 377.35 79.5 375.75 79.5 375.1 80.1 L374.35 81.25 375.05 81.95 373.15 81.7 373.35 80.25 Q373.35 77.0 368.1 77.0 L368.85 75.5 370.55 73.65 Q371.35 72.6 371.35 71.0 371.35 69.15 370.65 68.75 368.4 67.3 359.35 67.25 L359.35 65.95 361.2 62.75 Q363.55 59.05 367.3 56.4 379.3 47.75 406.75 47.75 439.3 47.75 468.2 69.5 477.5 76.5 486.75 86.15 M498.35 85.5 L494.9 85.7 Q494.2 85.85 493.85 86.3 L491.55 83.9 Q481.7 73.8 471.55 66.15 440.1 42.5 406.85 42.5 L392.85 42.75 Q385.55 40.5 370.5 50.35 366.3 53.1 362.85 55.9 369.9 40.6 373.05 35.25 378.4 26.15 384.3 22.55 390.05 19.05 400.9 18.2 406.9 17.75 429.6 17.75 444.8 17.75 453.95 19.4 467.0 21.75 477.7 28.4 503.35 44.35 525.35 92.75 520.35 90.55 515.3 88.85 505.4 85.5 498.35 85.5 M208.25 43.25 Q208.4 38.7 209.95 32.65 213.05 20.8 220.45 11.0 243.75 -20.0 300.85 -20.0 341.85 -20.0 353.15 2.75 356.7 9.95 356.9 18.85 356.95 23.35 356.35 27.1 356.35 30.75 352.35 53.0 L352.75 54.05 Q351.45 55.2 349.7 57.3 L346.25 61.3 346.35 55.5 Q347.05 43.25 340.4 32.25 327.2 10.5 290.35 10.5 254.15 10.5 234.95 37.65 L231.0 37.5 Q229.6 37.5 221.05 40.0 L208.35 43.65 208.25 43.25" fill="#13a840" fill-rule="evenodd" stroke="none"/>
      <path d="M305.4 127.25 L305.35 125.75 Q305.35 124.05 306.15 123.7 L307.1 123.55 305.4 127.25" fill="#9e8b3f" fill-rule="evenodd" stroke="none"/>
      <path d="M337.85 74.5 L340.35 73.25 340.35 67.25 343.15 68.65 Q344.85 69.5 346.35 69.5 348.35 69.5 354.35 60.75 354.35 61.95 353.3 64.5 352.3 66.85 352.45 67.95 352.8 71.6 364.2 72.75 L364.1 73.5 361.25 76.8 Q359.35 78.9 359.35 80.25 L359.65 80.9 357.2 85.7 Q355.6 87.2 354.35 89.25 353.3 91.0 352.6 92.85 351.8 95.0 351.5 97.25 L351.45 97.4 349.85 97.5 Q346.4 97.5 337.3 93.95 332.0 91.9 329.8 90.85 L332.05 86.5 332.95 84.65 337.35 74.45 337.85 74.5 M336.8 130.1 L335.35 133.45 Q327.2 153.05 319.0 175.2 L317.35 179.8 316.0 183.45 312.35 183.5 Q303.45 183.5 294.85 180.65 289.75 178.95 287.0 177.05 L289.25 171.65 290.0 169.85 295.6 157.35 295.85 156.75 Q301.05 145.55 309.2 129.8 L312.25 123.85 Q319.55 125.0 336.8 130.1 M300.2 233.45 L299.2 237.25 Q292.35 264.55 292.35 282.35 L292.65 288.55 293.05 293.45 286.85 293.5 255.85 291.65 256.3 288.3 Q259.95 259.85 268.25 230.55 L269.7 225.65 283.4 227.85 Q296.1 230.45 300.2 233.45" fill="#b7a048" fill-rule="evenodd" stroke="none"/>
    </g>
  </defs>
</svg>
