<?xml version="1.0" encoding="UTF-8" standalone="no"?>
<svg xmlns:xlink="http://www.w3.org/1999/xlink" height="842.55px" width="1337.95px" xmlns="http://www.w3.org/2000/svg">
  <g transform="matrix(1, 0, 0, 1, 407.45, 285.05)">
    <use height="4.5" transform="matrix(5.4867, 0.0, 0.0, 81.5667, 3.2875, 23.0167)" width="99.75" xlink:href="#shape0"/>
    <use height="400.0" transform="matrix(1.0, 0.0, 0.0, 1.0, -2.4, -0.2)" width="558.5" xlink:href="#shape1"/>
  </g>
  <defs>
    <g id="shape0" transform="matrix(1, 0, 0, 1, 49.85, -2.5)">
      <path d="M49.9 7.0 L-49.85 7.0 -49.85 2.5 49.9 2.5 49.9 7.0" fill="#ffffff" fill-rule="evenodd" stroke="none"/>
    </g>
    <g id="shape1" transform="matrix(1, 0, 0, 1, 2.4, 0.2)">
      <path d="M327.0 -0.2 L332.6 -0.2 336.9 10.2 337.0 10.45 337.1 10.7 341.8 22.05 342.8 24.4 Q354.75 53.2 354.75 54.8 L354.75 54.85 354.65 55.3 354.75 55.55 Q354.75 58.05 354.5 57.05 L353.8 57.95 352.25 58.3 351.75 58.3 Q347.85 58.3 332.95 51.3 326.25 48.15 322.55 45.9 322.05 47.25 320.65 48.85 319.3 55.9 299.5 105.8 294.65 118.1 291.7 134.95 L289.7 147.8 287.5 163.55 Q283.4 189.75 280.15 216.45 276.4 246.55 273.75 277.3 L274.25 277.35 282.5 278.85 Q283.5 276.35 284.75 273.9 290.25 263.2 298.85 258.35 305.95 254.3 315.25 254.3 322.45 254.3 327.3 250.85 330.4 248.7 334.35 243.3 338.45 237.7 340.95 235.75 345.35 232.3 351.75 232.3 L357.1 232.55 Q368.5 233.95 387.05 242.7 L399.0 248.5 Q404.4 251.05 405.75 251.05 407.0 251.05 408.6 249.7 L411.95 246.7 Q417.3 242.3 425.1 242.3 443.95 242.3 458.6 254.8 464.05 259.45 467.5 264.7 470.6 269.4 470.6 272.05 L470.45 274.3 470.4 274.45 Q478.15 275.75 484.3 288.55 486.6 293.35 488.25 298.85 489.6 303.3 489.6 304.65 489.6 310.6 478.6 316.6 L471.05 320.5 Q467.6 322.3 467.6 323.3 L470.1 331.3 Q472.6 338.9 472.6 343.55 472.6 346.7 469.65 350.55 466.1 355.3 459.35 359.1 452.0 363.25 442.05 365.75 427.55 369.3 407.6 369.3 L401.9 369.2 Q398.1 379.25 395.25 382.15 395.6 382.65 395.6 384.15 L395.85 384.8 Q396.0 385.4 395.55 385.9 394.2 387.3 387.1 387.3 380.3 387.3 378.1 386.05 376.6 385.2 376.6 383.05 376.6 381.35 377.1 380.95 377.3 380.75 379.1 380.3 L379.45 380.4 379.65 380.45 379.6 379.65 Q381.75 370.4 383.85 366.1 L379.6 366.3 Q373.05 366.3 368.4 364.55 363.8 362.8 362.1 362.8 L345.5 362.05 Q343.7 361.5 342.75 359.9 L342.75 365.15 Q342.75 373.35 341.35 377.8 L341.6 378.45 341.75 379.55 Q341.75 381.1 341.55 381.35 L340.75 381.8 338.85 382.3 338.75 382.3 331.85 377.45 330.25 379.3 328.0 378.55 327.15 373.65 326.75 373.05 326.8 372.15 325.3 365.5 Q322.75 354.4 322.75 353.8 L322.8 350.95 314.25 351.3 Q300.8 351.3 292.6 346.4 L280.25 346.45 Q281.75 351.15 281.75 361.65 281.75 366.15 281.05 372.9 280.6 377.1 280.0 379.8 280.75 380.15 280.75 381.55 280.75 383.45 278.25 384.35 272.65 386.3 254.75 386.3 L252.15 386.2 251.35 386.1 250.8 385.9 250.75 385.85 Q250.2 385.5 249.95 384.55 247.95 383.2 244.55 380.05 L240.75 376.1 238.75 375.05 238.75 352.55 Q239.4 351.3 239.4 346.7 L227.05 346.8 212.35 346.9 199.65 346.95 197.9 346.95 144.75 347.3 130.15 347.3 Q131.55 349.65 132.4 352.2 144.1 352.45 151.15 364.0 156.4 372.6 156.4 379.95 156.4 386.65 149.05 390.6 L145.75 392.1 Q140.15 394.2 131.15 395.6 L108.95 398.3 98.4 399.8 81.2 399.8 79.55 397.45 Q83.05 395.5 85.75 396.15 87.15 396.5 88.05 397.2 L93.7 396.9 94.05 396.45 94.35 396.8 Q104.4 395.7 122.5 391.55 L122.9 391.45 Q133.45 389.05 140.1 386.8 L140.35 386.7 Q151.4 382.85 151.4 379.45 151.4 371.85 144.9 364.45 133.7 352.0 128.7 354.35 127.3 355.55 127.2 355.4 L127.15 350.95 Q127.15 349.15 125.95 347.3 124.3 344.7 120.35 342.05 115.4 338.7 106.95 335.25 98.85 331.95 92.1 330.1 83.55 327.7 77.3 327.7 64.75 327.7 59.05 329.35 57.8 329.7 56.9 330.1 54.45 332.45 52.55 332.45 51.25 332.45 48.95 329.1 L47.65 327.1 46.2 324.75 Q44.15 321.7 43.3 321.7 L41.4 321.75 39.95 321.8 Q29.25 322.15 23.5 325.0 20.65 326.4 19.05 328.45 L18.1 329.8 Q16.65 332.4 16.95 335.75 17.1 337.45 17.55 339.2 L15.05 340.45 Q12.55 337.95 12.55 334.7 12.55 331.7 14.6 328.35 L12.25 328.3 4.6 328.1 0.6 328.0 0.15 327.95 0.15 325.25 2.7 325.2 17.0 325.05 17.75 324.2 Q24.9 316.45 37.05 316.45 L37.7 316.45 37.15 315.15 36.85 314.3 36.8 314.0 27.75 276.05 Q27.75 274.7 28.25 273.4 L6.1 273.35 0.15 273.35 0.15 269.2 0.5 269.2 1.7 269.15 3.0 269.1 3.6 269.1 6.1 269.05 Q28.9 268.6 92.25 268.3 L98.8 268.3 103.65 268.35 Q165.8 268.6 214.75 271.7 L214.75 199.65 Q208.0 200.3 191.75 200.3 167.4 200.3 141.2 197.55 124.1 195.75 118.5 194.2 L118.25 195.3 115.75 194.05 115.75 186.8 115.2 186.6 Q114.75 186.25 114.75 184.65 114.75 183.1 115.0 183.15 L115.25 183.55 115.9 183.4 Q117.75 171.45 120.35 156.3 119.1 159.1 116.25 160.5 113.95 161.6 110.25 162.05 105.05 194.9 104.75 213.55 104.55 222.5 105.05 240.5 105.05 254.35 102.95 264.35 L102.25 267.3 99.75 266.05 99.75 264.3 99.75 203.8 99.9 203.15 99.95 202.9 101.4 195.4 Q51.1 197.15 6.1 197.1 L0.15 197.05 -1.75 197.05 -2.4 196.75 -2.4 193.45 0.15 193.25 2.25 193.15 5.55 193.0 6.7 193.0 Q19.65 192.6 50.25 192.3 L101.95 192.55 102.3 190.6 105.95 162.3 104.75 162.3 Q91.3 162.3 88.95 160.8 88.1 160.25 88.35 159.2 L88.75 157.4 Q89.1 144.45 89.7 131.7 90.4 116.5 91.2 110.4 74.95 111.15 55.75 111.3 55.45 117.55 51.75 136.3 51.7 136.9 52.2 143.05 52.65 148.3 51.85 151.7 49.35 162.3 33.75 162.3 21.6 162.3 19.2 161.05 18.35 160.6 18.45 159.8 L18.75 158.4 Q18.75 157.1 24.25 132.7 27.8 116.95 29.65 111.0 L-0.25 109.0 -0.85 108.95 -0.85 103.4 -0.25 103.45 Q36.3 106.05 102.5 106.05 L109.5 105.75 Q109.4 89.95 109.75 79.85 110.3 63.05 113.15 55.8 L45.7 54.45 3.9 53.25 0.45 53.15 0.15 53.15 0.15 45.5 6.1 45.45 Q97.7 45.2 172.3 51.55 206.25 54.5 226.2 58.05 238.75 60.3 243.25 62.35 L243.25 62.3 243.4 62.4 Q245.75 63.5 245.75 64.55 L245.65 65.65 245.75 66.55 Q245.75 69.25 237.55 109.6 L229.95 147.8 225.75 170.05 Q219.75 204.35 219.75 221.8 219.75 230.35 220.2 247.65 220.15 261.7 217.65 271.85 L234.5 273.1 237.2 273.3 267.75 276.45 Q267.9 252.65 273.4 221.35 L274.8 213.4 Q281.15 176.8 282.75 161.05 L282.9 159.5 Q283.5 153.8 284.5 147.8 291.5 105.15 317.55 45.85 310.65 35.55 253.25 27.3 L223.0 21.8 Q205.3 19.05 202.5 19.05 L193.25 17.8 Q39.75 17.45 22.45 17.15 L20.25 17.05 19.2 16.7 Q18.75 16.25 18.75 14.65 18.75 13.1 19.0 13.15 L19.25 13.55 24.1 13.25 24.65 13.2 89.7 12.4 90.6 12.4 93.2 12.35 93.7 12.35 94.9 12.35 95.7 12.35 96.5 12.35 97.3 12.35 98.1 12.35 100.4 12.35 104.25 12.3 187.25 12.55 Q197.15 14.55 223.8 17.75 L268.7 23.65 Q311.1 30.2 320.25 39.4 L320.75 39.3 Q323.95 40.05 338.9 46.9 L349.25 51.85 Q338.75 29.2 327.0 -0.2 M294.4 -0.2 Q319.75 5.0 319.75 7.55 319.75 9.2 319.05 9.7 L317.25 10.3 268.6 -0.2 294.4 -0.2 M437.1 126.3 L434.6 125.05 435.2 121.6 Q435.5 118.25 434.05 115.65 429.55 107.55 408.85 107.55 407.75 107.55 404.5 112.95 401.25 118.3 399.6 118.3 397.7 118.3 395.25 115.95 390.1 113.55 374.85 113.55 363.65 113.55 345.2 121.1 325.0 129.35 325.0 136.8 L324.95 141.25 Q324.85 141.4 323.45 140.2 319.0 138.1 309.6 147.8 L307.25 150.3 Q300.75 157.7 300.75 165.3 300.75 170.75 329.25 177.3 347.6 181.5 357.8 182.65 L358.1 182.3 358.45 182.75 364.1 183.05 Q365.0 182.35 366.4 182.0 369.1 181.35 372.6 183.3 L369.65 187.4 Q368.6 188.9 368.6 189.9 368.6 191.55 369.85 193.35 371.65 195.95 376.1 198.8 381.2 202.05 387.8 203.65 388.0 203.3 388.1 203.3 389.85 203.3 390.3 204.15 L401.0 205.05 Q415.1 205.05 421.75 196.2 L422.85 194.55 420.25 192.35 417.75 189.75 Q413.6 184.75 413.6 179.8 413.6 178.5 416.1 170.9 L418.6 163.3 Q418.6 162.25 416.6 158.5 414.6 154.75 414.6 151.65 414.6 149.7 414.9 147.8 415.8 141.95 419.55 137.05 425.45 129.4 437.1 126.35 444.85 124.3 455.1 124.3 467.95 124.3 470.2 125.35 470.8 125.65 471.6 126.3 472.6 126.9 475.1 127.3 L476.05 125.2 Q476.7 123.35 477.85 122.2 481.65 118.3 493.1 118.3 501.65 118.3 508.2 121.25 513.2 123.5 514.85 126.05 517.15 129.6 523.45 131.95 530.9 134.75 533.1 136.55 L546.15 147.8 547.55 149.2 Q550.6 152.9 550.6 159.8 550.6 165.75 544.6 174.3 538.65 182.7 529.1 190.55 524.75 194.1 520.3 197.05 514.25 201.0 508.0 203.8 497.2 208.65 487.6 209.25 L487.6 210.2 Q486.85 216.3 483.1 216.3 480.6 216.3 480.85 215.55 L480.6 213.3 480.65 209.25 Q449.4 208.65 430.6 199.3 L427.65 197.75 425.7 200.15 Q416.75 210.3 401.1 210.3 395.5 210.3 390.2 209.05 L388.55 214.25 Q386.15 221.3 384.1 221.3 381.6 221.3 381.85 220.3 L381.6 217.65 Q381.6 217.2 384.55 210.35 L385.7 207.75 Q380.55 206.0 375.65 203.0 368.35 198.5 365.35 193.6 363.65 190.75 363.35 187.8 L361.1 187.2 Q362.35 190.0 363.3 193.85 L363.9 196.6 Q365.6 205.0 365.6 213.9 365.6 216.8 363.1 219.3 L360.6 218.05 Q361.05 215.4 358.45 204.25 L356.45 195.1 Q355.6 190.8 355.6 189.15 355.75 187.45 356.15 186.1 L343.2 184.15 321.0 181.45 Q309.0 179.6 303.1 176.45 295.75 172.5 295.75 165.8 295.75 158.45 301.0 149.85 L302.35 147.8 Q309.15 138.3 319.75 138.05 323.85 126.2 339.7 117.35 356.0 108.3 374.6 108.3 384.9 108.3 392.05 109.95 397.45 111.55 399.1 111.55 399.6 111.55 400.2 110.1 401.1 108.0 401.9 106.95 405.45 102.3 415.1 102.3 427.25 102.3 434.4 110.05 439.6 115.75 439.6 120.55 439.6 123.8 437.1 126.3 M425.8 190.05 Q427.75 187.3 430.1 187.3 431.65 187.3 432.1 187.9 L432.6 189.05 430.6 192.9 430.25 193.55 433.1 195.05 434.75 195.85 Q452.05 203.65 481.05 204.05 L481.05 203.8 Q481.95 198.25 485.1 196.3 487.6 197.9 487.6 203.8 L487.6 204.0 Q511.65 203.45 513.55 195.2 L513.55 191.85 513.45 189.05 Q513.35 186.3 516.6 186.3 520.25 186.3 519.6 190.3 545.6 179.3 545.6 159.9 545.6 153.3 538.35 147.8 L538.05 147.6 Q531.15 142.5 519.6 139.3 L519.25 142.15 Q518.85 143.55 517.1 145.3 L514.6 144.05 Q514.6 138.55 512.85 133.45 509.55 123.8 501.35 123.8 482.35 123.8 480.2 129.05 479.7 130.35 479.75 132.65 479.5 134.3 477.1 134.3 475.7 134.3 475.0 133.55 L473.2 131.95 Q469.35 129.55 455.1 129.55 432.65 129.55 424.1 139.55 420.95 143.2 420.0 147.8 419.6 149.75 419.6 151.9 419.6 154.2 422.6 158.05 L425.6 162.05 Q418.6 178.9 418.6 179.65 418.6 183.15 422.0 187.05 423.5 188.8 425.55 190.4 L425.8 190.05 M345.65 165.45 Q344.45 166.0 342.35 167.4 341.0 168.3 340.25 168.3 337.75 168.3 338.0 167.3 L337.75 165.05 Q337.75 160.65 348.2 158.6 354.8 157.3 362.1 157.3 378.75 157.3 387.1 161.6 394.6 165.4 394.6 172.05 L394.45 174.3 Q394.0 175.65 392.1 176.3 L389.85 175.55 389.05 170.45 Q388.5 167.8 386.65 166.35 381.9 162.55 362.6 162.55 351.65 162.55 345.65 165.45 M475.1 180.3 L470.6 179.85 Q468.6 179.1 468.6 176.65 468.6 175.2 468.85 175.05 L469.1 174.8 Q480.4 177.5 488.2 171.3 L493.5 166.6 Q496.25 164.3 498.6 164.3 499.85 164.3 503.35 165.55 506.85 166.8 508.1 166.8 514.9 166.8 516.15 163.55 516.55 161.95 516.9 161.3 517.45 160.3 519.1 160.3 520.8 160.3 521.3 161.35 521.6 162.05 521.6 164.3 L521.5 165.7 Q521.15 167.2 520.05 168.45 516.65 172.3 507.1 172.3 L498.0 171.75 Q497.8 171.6 497.95 171.05 498.1 170.45 497.6 170.05 497.3 170.25 495.9 172.0 L492.0 175.5 Q485.2 180.3 475.1 180.3 M441.65 290.35 L441.65 288.3 Q441.75 286.8 443.1 285.3 446.6 287.6 446.6 289.9 446.6 297.3 434.6 297.3 428.8 297.3 424.1 295.1 419.6 293.0 419.6 290.65 419.6 289.2 419.85 289.05 L420.1 288.8 422.6 288.3 Q423.85 288.3 424.5 288.85 L425.65 290.05 Q427.7 291.8 434.6 291.8 441.5 291.8 441.65 290.35 M465.85 275.55 Q465.4 272.75 462.6 268.15 459.6 263.3 455.3 258.85 444.35 247.55 433.85 247.55 415.85 247.55 411.35 252.45 L409.35 255.8 Q408.5 257.3 406.6 257.3 405.3 257.3 387.75 247.45 367.5 237.55 352.6 237.55 340.35 237.55 334.0 248.7 332.4 251.55 330.15 257.3 328.3 262.1 327.25 263.3 325.8 262.95 325.7 262.25 L325.7 261.1 Q325.15 259.8 315.6 259.8 307.35 259.8 300.95 263.7 294.1 267.8 289.45 276.35 L287.15 281.15 Q285.8 284.3 284.95 287.5 284.15 290.5 283.75 293.55 283.75 297.55 288.25 302.25 L292.3 306.5 295.75 310.3 294.35 311.25 Q288.25 315.25 286.75 318.05 285.75 319.95 285.75 325.9 L285.85 328.25 Q286.1 330.65 286.85 332.8 288.65 338.1 293.75 341.35 298.55 344.35 306.25 345.5 L306.85 345.6 316.85 346.3 320.35 346.5 Q324.05 346.75 325.6 347.4 L326.25 347.3 326.5 347.35 338.35 350.3 339.35 350.65 Q339.75 350.3 340.25 350.3 341.2 350.3 341.8 351.6 L341.95 351.7 Q342.55 350.3 344.25 350.3 346.1 350.3 346.6 351.65 L346.9 354.55 Q347.4 358.8 353.6 358.8 358.75 358.8 359.55 357.05 L360.1 355.85 Q360.6 355.3 362.1 355.3 363.4 355.3 363.85 356.0 L364.4 357.6 Q365.2 360.05 369.6 360.55 376.8 361.45 384.7 360.9 L387.05 361.15 387.4 361.65 393.6 361.3 396.9 361.5 Q397.4 360.3 399.1 360.3 L400.5 360.5 401.1 359.3 Q403.3 359.3 403.6 361.05 L403.7 362.05 Q411.4 363.4 426.35 362.15 L436.65 360.9 Q449.1 358.9 456.85 354.8 463.85 351.1 465.75 348.95 467.6 346.9 467.6 343.05 467.6 339.5 463.2 331.1 L456.6 319.3 Q457.3 318.6 462.05 317.75 L471.55 315.85 Q484.6 312.5 484.6 304.9 484.6 300.6 477.9 291.5 L465.6 276.3 465.95 275.6 465.85 275.55 M278.75 293.8 Q279.25 288.5 280.9 283.3 L262.9 282.7 261.5 282.6 255.95 282.1 255.55 282.05 Q263.0 292.7 271.75 320.05 271.75 323.4 269.25 324.3 L267.0 323.55 Q266.2 318.0 258.85 300.85 251.75 284.25 251.75 283.4 L251.95 281.65 243.8 280.45 242.25 280.2 240.85 279.9 240.4 279.85 237.3 279.15 234.25 278.4 230.0 277.05 209.35 275.9 216.25 294.05 Q223.75 314.15 223.75 315.8 L223.75 316.05 222.65 317.8 221.9 318.65 221.25 319.3 219.75 318.8 219.75 318.75 Q205.75 282.3 205.75 276.65 L205.8 275.75 195.25 275.3 192.75 274.55 Q192.1 274.35 172.2 274.15 174.7 280.1 177.0 296.8 177.1 297.65 181.5 308.35 L182.5 310.85 184.8 317.25 Q185.75 320.25 185.75 321.55 185.75 323.1 185.55 323.35 L184.75 323.8 182.75 324.3 Q180.25 324.3 179.75 323.05 L177.9 315.9 177.85 315.7 173.65 301.05 Q168.75 284.3 168.75 277.3 168.75 275.8 169.8 274.15 L132.35 273.85 Q134.25 278.65 137.7 292.55 141.15 306.35 142.25 312.3 L142.75 316.15 Q142.75 316.75 140.25 319.3 L138.75 318.8 138.35 317.7 136.6 312.45 Q134.3 305.0 131.55 293.15 127.85 277.1 127.75 273.85 L105.1 273.7 Q106.65 278.95 109.2 290.55 113.4 309.65 113.75 313.65 L113.75 314.15 Q113.75 314.75 111.25 317.3 L109.75 316.8 109.65 316.55 108.8 314.0 108.7 313.7 108.45 312.9 106.6 305.75 104.75 297.6 104.7 297.35 104.6 296.75 104.45 296.05 104.2 294.85 104.1 294.45 Q100.75 278.25 100.75 275.4 L100.6 273.7 93.15 273.65 66.9 273.55 Q68.25 276.4 68.9 281.35 L70.25 295.05 Q70.45 296.4 73.2 308.15 L73.3 308.6 74.4 313.35 74.55 313.95 74.7 314.7 75.3 317.55 75.75 320.2 75.75 320.25 75.75 320.3 75.75 320.4 75.75 320.45 75.75 320.55 Q75.75 322.1 75.55 322.35 L75.4 322.5 77.55 322.45 Q86.15 322.45 94.25 324.4 L104.25 324.55 134.1 325.85 164.5 326.8 280.9 328.15 280.75 325.65 Q280.75 319.2 281.1 318.3 281.6 317.0 287.75 308.8 280.15 301.0 279.25 299.6 278.7 298.75 278.65 297.55 L278.75 293.8 M354.55 317.05 Q349.3 314.8 348.75 314.8 347.5 314.8 342.0 316.05 L335.25 317.3 Q328.55 317.3 323.25 314.3 318.75 311.7 318.75 309.65 318.75 308.0 319.25 307.75 L321.25 307.3 Q324.2 307.25 324.9 308.0 325.35 308.4 325.65 309.6 327.1 312.05 340.25 312.05 341.0 312.05 344.35 310.7 347.7 309.3 348.75 309.3 350.9 309.3 352.0 310.05 L353.9 311.7 Q357.0 314.05 367.1 314.05 367.75 314.05 372.1 311.3 373.6 311.3 374.1 311.8 L374.6 312.3 Q374.6 314.5 372.85 316.3 369.9 319.3 363.1 319.3 359.85 319.3 354.55 317.05 M286.55 341.35 L285.7 340.3 Q283.05 336.85 281.8 332.85 L275.05 332.95 240.25 333.3 196.7 332.4 184.6 332.15 172.25 331.85 166.65 331.75 162.9 331.65 161.15 331.65 159.35 331.6 158.05 331.55 152.8 331.45 110.55 330.5 112.45 331.5 Q121.05 336.3 126.2 342.0 L237.05 341.5 237.8 341.5 237.9 341.5 241.65 341.5 247.15 341.45 247.95 341.45 268.15 341.4 286.55 341.35 M337.85 374.35 L337.75 365.05 Q337.35 359.35 337.65 355.9 L329.55 353.55 Q330.45 355.95 331.15 359.2 332.5 365.35 332.7 372.1 L337.55 374.35 337.85 374.55 337.85 374.4 337.85 374.35 M250.1 376.75 Q250.75 371.25 252.45 364.7 255.2 354.05 259.25 347.3 261.75 348.15 261.75 350.8 261.75 353.65 258.75 365.45 255.65 377.65 255.5 380.8 L275.75 379.6 275.75 378.55 Q276.85 374.3 276.7 361.2 276.6 351.8 278.4 346.45 L259.25 346.6 244.65 346.7 244.75 348.4 245.05 363.6 Q244.9 368.7 243.75 372.05 246.1 373.25 249.2 376.6 L250.05 377.5 250.1 376.75 M396.5 366.25 L393.6 366.3 390.0 366.3 383.4 381.2 390.8 381.8 390.6 379.65 Q390.6 379.4 396.65 367.85 396.4 367.45 396.45 366.85 L396.5 366.25 M51.7 111.3 L49.25 111.3 33.75 111.1 33.75 112.55 Q30.0 132.6 24.25 156.8 L43.75 157.05 47.15 132.1 Q48.85 119.6 51.7 111.3 M109.55 109.25 L94.75 110.25 94.75 153.8 Q93.75 155.3 93.75 156.8 L115.75 156.8 Q115.2 135.7 115.25 124.85 115.3 113.35 116.35 108.6 L114.65 108.8 109.55 109.25 M220.35 70.0 Q227.85 66.8 232.25 65.15 220.35 62.9 212.9 62.1 L165.25 57.3 122.35 56.0 121.7 56.0 Q121.25 64.45 118.45 78.4 115.2 94.75 114.8 105.2 L129.85 102.5 132.65 87.9 131.85 87.6 Q131.4 87.3 131.5 86.8 L131.75 85.65 Q131.75 84.1 132.0 84.15 L132.25 84.55 133.4 84.35 133.75 83.3 136.5 83.8 136.55 84.15 Q146.8 83.65 181.25 83.3 L188.45 83.35 220.35 70.0 M197.7 90.35 L197.75 91.65 Q197.75 95.85 197.05 103.25 L197.25 103.3 212.15 106.5 Q213.75 98.4 215.25 92.3 217.75 94.2 217.75 98.4 217.75 101.7 217.15 107.25 223.45 108.0 227.25 107.5 L229.6 106.95 Q231.45 98.8 233.6 91.25 L197.7 90.35 M199.8 83.4 L235.35 85.15 Q238.15 75.65 241.4 67.1 221.0 73.0 201.7 82.45 L199.8 83.4 M146.25 88.9 L140.7 88.7 136.7 88.45 Q136.5 93.4 135.55 101.15 L144.3 98.8 146.25 89.3 Q148.05 90.45 148.55 93.35 148.85 94.85 148.75 96.05 L148.7 97.5 Q157.15 94.95 166.5 91.65 L167.0 89.5 146.25 88.9 M171.55 97.0 L171.75 97.05 171.75 101.45 171.85 107.0 Q172.1 114.35 172.85 122.35 L173.35 127.35 174.05 133.45 174.7 138.35 175.5 143.8 184.5 140.7 Q192.95 137.5 193.7 135.75 L193.75 135.4 193.5 130.65 Q192.7 122.55 189.2 112.8 L188.25 110.3 187.15 107.4 185.1 102.1 184.45 100.45 Q182.75 95.5 182.75 92.3 L182.8 91.85 182.6 91.95 171.6 96.7 171.3 96.85 171.55 97.0 M168.45 89.55 L169.05 90.75 172.0 89.65 168.45 89.55 M186.55 90.05 Q189.35 96.05 191.3 101.4 192.8 93.7 193.85 90.25 L186.6 90.05 186.55 90.05 M166.95 117.75 L166.1 122.55 167.2 122.5 166.95 117.75 M160.05 122.75 L163.2 106.8 147.75 106.5 Q146.45 115.85 143.5 131.95 L153.75 131.3 158.35 131.8 159.25 126.9 152.65 126.45 Q148.85 126.05 148.45 125.5 148.2 125.15 148.75 124.65 148.75 123.1 149.0 123.15 L149.25 123.55 160.05 122.75 M157.8 101.3 L159.25 101.3 164.35 101.4 164.8 99.15 157.8 101.3 M167.7 127.2 L165.25 127.15 164.25 132.4 168.45 132.85 167.7 127.2 M142.75 135.85 L140.55 147.45 144.4 147.8 155.25 148.9 155.4 148.05 155.6 147.05 157.35 137.15 148.0 136.75 Q144.35 136.5 143.1 135.9 L142.8 135.75 142.75 135.85 M191.65 142.8 L190.85 147.8 189.95 153.15 Q198.65 154.5 203.5 155.7 L204.9 147.8 205.75 142.8 205.8 142.3 204.25 142.3 191.85 141.75 191.65 142.8 M183.2 147.8 L183.45 146.5 175.4 151.2 182.45 152.1 183.2 147.8 M161.2 147.8 L160.85 149.5 170.9 150.65 169.1 137.9 163.3 137.45 161.2 147.8 M138.35 105.7 L134.85 106.25 Q132.65 122.2 127.8 147.75 L129.35 147.65 134.6 147.4 137.4 132.65 142.75 106.35 138.35 105.7 M121.7 148.3 L121.75 148.15 121.8 147.8 121.9 147.15 125.6 126.1 125.75 125.25 125.85 124.65 126.4 121.45 129.0 107.15 128.45 107.2 119.85 108.25 Q120.55 111.5 120.75 118.3 120.95 125.0 120.75 133.65 L121.25 146.1 121.35 148.2 121.35 148.5 121.7 148.4 121.7 148.3 M129.0 167.15 L129.25 167.55 131.15 167.25 133.65 152.65 126.9 152.45 120.8 183.1 129.05 182.85 Q129.5 178.05 130.65 170.65 L128.65 170.25 Q128.1 169.9 128.75 168.65 128.75 167.1 129.0 167.15 M152.1 166.6 L154.45 153.4 139.5 152.85 136.7 167.0 Q142.25 166.75 152.1 166.6 M151.4 170.55 L135.9 170.8 133.45 182.75 149.3 182.45 151.4 170.55 M128.75 187.8 L128.8 187.1 128.75 187.1 119.95 187.1 119.25 190.55 123.75 190.3 128.85 190.6 128.75 188.05 128.75 187.8 M148.75 193.05 L148.75 186.95 132.55 187.1 131.75 191.0 134.55 191.6 Q140.1 193.0 143.25 193.05 L148.75 193.2 149.05 193.2 148.75 193.05 M207.65 131.2 L208.25 127.8 205.0 127.55 197.95 127.55 199.75 136.5 206.65 137.4 207.65 131.2 M209.1 122.65 L211.6 109.15 196.55 107.8 195.5 116.6 196.85 122.5 203.25 122.55 209.1 122.65 M223.95 123.5 Q225.35 123.7 226.05 124.25 227.55 116.1 229.3 108.45 L216.9 109.3 214.9 122.8 223.95 123.5 M161.25 182.3 L177.1 182.4 179.2 170.0 156.45 170.45 153.9 182.4 161.25 182.3 M190.9 159.3 L188.95 158.75 187.5 166.4 201.6 166.5 202.55 161.3 Q196.5 161.1 190.9 159.3 M180.4 163.2 L181.55 157.05 170.25 155.55 159.95 153.9 157.3 166.5 170.25 166.3 179.85 166.35 180.4 163.2 M152.9 186.9 L151.5 193.3 209.7 195.0 215.3 195.35 216.4 187.2 216.5 186.4 216.8 184.25 217.1 182.3 217.15 182.0 Q219.85 162.25 222.1 147.8 L222.15 147.3 223.1 141.5 224.9 130.6 224.95 130.2 225.45 127.55 217.25 128.3 214.0 128.2 212.2 138.2 Q217.75 139.1 217.75 139.55 L218.1 140.15 Q218.25 140.65 217.5 141.05 216.05 141.8 211.45 142.15 L211.15 143.5 211.1 143.8 210.35 147.8 208.45 157.3 Q209.75 157.95 209.75 158.55 209.75 159.75 209.45 160.05 208.95 160.6 207.7 160.95 L206.55 166.55 210.25 166.55 211.75 167.8 211.75 169.3 205.9 169.45 203.25 180.3 200.75 179.05 200.75 170.8 201.0 169.55 186.8 169.85 Q185.2 177.35 183.7 182.45 L206.25 182.55 207.75 183.8 207.75 185.3 182.45 186.2 Q180.8 190.8 179.25 192.3 178.25 192.05 177.0 191.3 176.8 189.4 176.75 186.35 L152.9 186.9 M0.15 210.95 L6.1 210.8 Q18.3 210.5 39.25 210.3 L88.25 210.55 89.75 211.8 89.75 213.3 80.75 213.65 78.95 213.7 6.1 215.1 0.15 215.1 -2.4 215.1 -2.4 211.0 0.15 210.95 M0.15 236.75 L3.05 236.65 3.35 236.65 6.1 236.6 21.75 236.3 56.25 236.55 57.75 237.8 57.75 239.3 6.1 240.55 0.15 240.7 -2.4 240.75 -2.4 236.8 0.15 236.75 M0.15 255.35 L3.85 255.3 4.2 255.3 4.75 255.3 5.0 255.3 5.25 255.3 6.1 255.3 24.15 255.85 23.7 256.35 Q23.3 256.65 24.75 256.8 L24.75 258.3 21.95 258.45 19.65 258.55 16.7 258.7 16.05 258.7 15.35 258.75 6.5 259.15 6.1 259.2 5.3 259.25 4.65 259.25 0.15 259.45 -2.4 259.55 -2.4 255.4 0.15 255.35 M37.9 252.25 Q37.75 252.15 37.75 250.65 L37.15 250.15 Q36.8 249.7 38.2 249.35 L62.75 248.3 Q85.25 248.3 86.25 248.55 L87.75 249.8 87.75 251.3 42.3 252.8 Q38.55 252.8 37.9 252.25 M87.75 224.8 L87.75 226.3 21.75 227.8 15.75 227.25 15.75 225.65 Q15.75 224.1 16.0 224.15 L16.25 224.55 33.35 223.65 Q46.65 223.3 51.75 223.3 L86.25 223.55 87.75 224.8 M62.1 278.3 L62.05 277.8 61.9 277.0 61.9 276.8 61.85 276.5 61.75 276.05 Q61.75 274.75 62.2 273.55 L31.6 273.45 Q34.25 280.45 38.15 296.0 41.15 308.2 42.2 314.25 L42.6 316.95 Q47.85 317.95 50.25 321.1 51.05 322.15 51.95 324.25 L52.15 324.7 58.3 324.65 60.1 324.1 Q65.1 322.95 71.7 322.6 L71.5 322.3 68.65 314.4 68.55 314.0 Q65.7 302.85 62.1 278.3 M3.25 275.3 Q5.2 276.85 6.1 280.75 6.5 282.6 6.7 285.0 7.55 296.25 7.75 297.05 8.55 300.7 11.35 310.35 13.75 318.6 13.75 319.55 13.75 321.1 13.55 321.35 L12.75 321.8 10.75 322.3 Q8.5 322.3 6.1 313.4 3.5 303.85 0.75 284.05 L0.85 279.55 Q1.3 276.9 3.25 275.3 M31.3 399.8 Q33.55 396.65 33.55 393.8 L30.25 385.1 26.55 376.2 29.55 372.2 Q32.55 368.35 32.55 366.05 32.55 358.95 28.05 353.7 24.5 349.55 18.55 347.1 11.15 344.1 0.15 343.75 L-0.2 343.75 -2.4 343.7 -2.4 338.45 0.15 338.5 Q8.5 338.75 15.05 340.5 L15.1 340.5 Q18.2 341.3 20.95 342.5 25.35 344.35 28.65 347.15 30.85 348.95 32.6 351.2 37.55 357.65 37.55 365.8 37.55 368.9 35.55 372.65 33.55 376.4 33.55 377.45 L36.05 385.05 36.3 385.85 Q38.55 392.7 38.55 393.95 38.55 396.85 37.1 399.8 L31.3 399.8" fill="#000000" fill-rule="evenodd" stroke="none"/>
      <path d="M327.0 -0.2 Q338.75 29.2 349.25 51.85 L338.9 46.9 Q323.95 40.05 320.75 39.3 L320.25 39.4 Q311.1 30.2 268.7 23.65 L223.8 17.75 Q197.15 14.55 187.25 12.55 L104.25 12.3 100.4 12.35 98.1 12.35 97.3 12.35 96.5 12.35 95.7 12.35 94.9 12.35 93.7 12.35 93.2 12.35 90.6 12.4 89.7 12.4 24.65 13.2 24.1 13.25 19.25 13.55 19.0 13.15 Q18.75 13.1 18.75 14.65 18.75 16.25 19.2 16.7 L20.25 17.05 22.45 17.15 21.75 17.3 12.65 16.1 6.1 15.05 0.15 13.95 0.15 -0.2 268.6 -0.2 317.25 10.3 319.05 9.7 Q319.75 9.2 319.75 7.55 319.75 5.0 294.4 -0.2 L327.0 -0.2" fill="#4d2e00" fill-rule="evenodd" stroke="none"/>
      <path d="M289.7 147.8 L291.7 134.95 Q294.65 118.1 299.5 105.8 319.3 55.9 320.65 48.85 322.05 47.25 322.55 45.9 326.25 48.15 332.95 51.3 347.85 58.3 351.75 58.3 L352.25 58.3 353.8 57.95 354.5 57.05 Q354.75 58.05 354.75 55.55 L354.65 55.3 354.75 54.85 354.75 54.8 Q354.75 53.2 342.8 24.4 L341.8 22.05 337.1 10.7 337.0 10.45 336.9 10.2 332.6 -0.2 556.1 -0.2 556.1 147.8 546.15 147.8 533.1 136.55 Q530.9 134.75 523.45 131.95 517.15 129.6 514.85 126.05 513.2 123.5 508.2 121.25 501.65 118.3 493.1 118.3 481.65 118.3 477.85 122.2 476.7 123.35 476.05 125.2 L475.1 127.3 Q472.6 126.9 471.6 126.3 470.8 125.65 470.2 125.35 467.95 124.3 455.1 124.3 444.85 124.3 437.1 126.35 L437.1 126.3 Q439.6 123.8 439.6 120.55 439.6 115.75 434.4 110.05 427.25 102.3 415.1 102.3 405.45 102.3 401.9 106.95 401.1 108.0 400.2 110.1 399.6 111.55 399.1 111.55 397.45 111.55 392.05 109.95 384.9 108.3 374.6 108.3 356.0 108.3 339.7 117.35 323.85 126.2 319.75 138.05 309.15 138.3 302.35 147.8 L289.7 147.8" fill="url(#gradient0)" fill-rule="evenodd" stroke="none"/>
      <path d="M15.05 340.45 L17.55 339.2 Q17.1 337.45 16.95 335.75 16.65 332.4 18.1 329.8 L19.05 328.45 Q20.65 326.4 23.5 325.0 29.25 322.15 39.95 321.8 L41.4 321.75 43.3 321.7 Q44.15 321.7 46.2 324.75 L47.65 327.1 48.95 329.1 Q51.25 332.45 52.55 332.45 54.45 332.45 56.9 330.1 57.8 329.7 59.05 329.35 64.75 327.7 77.3 327.7 83.55 327.7 92.1 330.1 98.85 331.95 106.95 335.25 115.4 338.7 120.35 342.05 124.3 344.7 125.95 347.3 127.15 349.15 127.15 350.95 L127.2 355.4 Q127.3 355.55 128.7 354.35 133.7 352.0 144.9 364.45 151.4 371.85 151.4 379.45 151.4 382.85 140.35 386.7 L140.1 386.8 Q133.45 389.05 122.9 391.45 L122.5 391.55 Q104.4 395.7 94.35 396.8 L94.05 396.45 93.7 396.9 88.05 397.2 Q87.15 396.5 85.75 396.15 83.05 395.5 79.55 397.45 L81.2 399.8 37.1 399.8 Q38.55 396.85 38.55 393.95 38.55 392.7 36.3 385.85 L36.05 385.05 33.55 377.45 Q33.55 376.4 35.55 372.65 37.55 368.9 37.55 365.8 37.55 357.65 32.6 351.2 30.85 348.95 28.65 347.15 25.35 344.35 20.95 342.5 18.2 341.3 15.1 340.5 L15.05 340.45 M437.1 126.35 Q425.45 129.4 419.55 137.05 415.8 141.95 414.9 147.8 414.6 149.7 414.6 151.65 414.6 154.75 416.6 158.5 418.6 162.25 418.6 163.3 L416.1 170.9 Q413.6 178.5 413.6 179.8 413.6 184.75 417.75 189.75 L420.25 192.35 422.85 194.55 421.75 196.2 Q415.1 205.05 401.0 205.05 L390.3 204.15 Q389.85 203.3 388.1 203.3 388.0 203.3 387.8 203.65 381.2 202.05 376.1 198.8 371.65 195.95 369.85 193.35 368.6 191.55 368.6 189.9 368.6 188.9 369.65 187.4 L372.6 183.3 Q369.1 181.35 366.4 182.0 365.0 182.35 364.1 183.05 L358.45 182.75 358.1 182.3 357.8 182.65 Q347.6 181.5 329.25 177.3 300.75 170.75 300.75 165.3 300.75 157.7 307.25 150.3 L309.6 147.8 Q319.0 138.1 323.45 140.2 324.85 141.4 324.95 141.25 L325.0 136.8 Q325.0 129.35 345.2 121.1 363.65 113.55 374.85 113.55 390.1 113.55 395.25 115.95 397.7 118.3 399.6 118.3 401.25 118.3 404.5 112.95 407.75 107.55 408.85 107.55 429.55 107.55 434.05 115.65 435.5 118.25 435.2 121.6 L434.6 125.05 437.1 126.3 437.1 126.35 M345.65 165.45 Q351.65 162.55 362.6 162.55 381.9 162.55 386.65 166.35 388.5 167.8 389.05 170.45 L389.85 175.55 392.1 176.3 Q394.0 175.65 394.45 174.3 L394.6 172.05 Q394.6 165.4 387.1 161.6 378.75 157.3 362.1 157.3 354.8 157.3 348.2 158.6 337.75 160.65 337.75 165.05 L338.0 167.3 Q337.75 168.3 340.25 168.3 341.0 168.3 342.35 167.4 344.45 166.0 345.65 165.45 M425.55 190.4 Q423.5 188.8 422.0 187.05 418.6 183.15 418.6 179.65 418.6 178.9 425.6 162.05 L422.6 158.05 Q419.6 154.2 419.6 151.9 419.6 149.75 420.0 147.8 420.95 143.2 424.1 139.55 432.65 129.55 455.1 129.55 469.35 129.55 473.2 131.95 L475.0 133.55 Q475.7 134.3 477.1 134.3 479.5 134.3 479.75 132.65 479.7 130.35 480.2 129.05 482.35 123.8 501.35 123.8 509.55 123.8 512.85 133.45 514.6 138.55 514.6 144.05 L517.1 145.3 Q518.85 143.55 519.25 142.15 L519.6 139.3 Q531.15 142.5 538.05 147.6 L538.35 147.8 Q545.6 153.3 545.6 159.9 545.6 179.3 519.6 190.3 520.25 186.3 516.6 186.3 513.35 186.3 513.45 189.05 L513.55 191.85 513.55 195.2 Q511.65 203.45 487.6 204.0 L487.6 203.8 Q487.6 197.9 485.1 196.3 481.95 198.25 481.05 203.8 L481.05 204.05 Q452.05 203.65 434.75 195.85 L433.1 195.05 430.25 193.55 430.6 192.9 432.6 189.05 432.1 187.9 Q431.65 187.3 430.1 187.3 427.75 187.3 425.8 190.05 L425.55 190.4 M475.1 180.3 Q485.2 180.3 492.0 175.5 L495.9 172.0 Q497.3 170.25 497.6 170.05 498.1 170.45 497.95 171.05 497.8 171.6 498.0 171.75 L507.1 172.3 Q516.65 172.3 520.05 168.45 521.15 167.2 521.5 165.7 L521.6 164.3 Q521.6 162.05 521.3 161.35 520.8 160.3 519.1 160.3 517.45 160.3 516.9 161.3 516.55 161.95 516.15 163.55 514.9 166.8 508.1 166.8 506.85 166.8 503.35 165.55 499.85 164.3 498.6 164.3 496.25 164.3 493.5 166.6 L488.2 171.3 Q480.4 177.5 469.1 174.8 L468.85 175.05 Q468.6 175.2 468.6 176.65 468.6 179.1 470.6 179.85 L475.1 180.3 M441.65 290.35 Q441.5 291.8 434.6 291.8 427.7 291.8 425.65 290.05 L424.5 288.85 Q423.85 288.3 422.6 288.3 L420.1 288.8 419.85 289.05 Q419.6 289.2 419.6 290.65 419.6 293.0 424.1 295.1 428.8 297.3 434.6 297.3 446.6 297.3 446.6 289.9 446.6 287.6 443.1 285.3 441.75 286.8 441.65 288.3 L441.65 290.35 M465.85 275.55 L465.6 276.3 477.9 291.5 Q484.6 300.6 484.6 304.9 484.6 312.5 471.55 315.85 L462.05 317.75 Q457.3 318.6 456.6 319.3 L463.2 331.1 Q467.6 339.5 467.6 343.05 467.6 346.9 465.75 348.95 463.85 351.1 456.85 354.8 449.1 358.9 436.65 360.9 L426.35 362.15 Q411.4 363.4 403.7 362.05 L403.6 361.05 Q403.3 359.3 401.1 359.3 L400.5 360.5 399.1 360.3 Q397.4 360.3 396.9 361.5 L393.6 361.3 387.4 361.65 387.05 361.15 384.7 360.9 Q376.8 361.45 369.6 360.55 365.2 360.05 364.4 357.6 L363.85 356.0 Q363.4 355.3 362.1 355.3 360.6 355.3 360.1 355.85 L359.55 357.05 Q358.75 358.8 353.6 358.8 347.4 358.8 346.9 354.55 L346.6 351.65 Q346.1 350.3 344.25 350.3 342.55 350.3 341.95 351.7 L341.8 351.6 Q341.2 350.3 340.25 350.3 339.75 350.3 339.35 350.65 L338.35 350.3 326.5 347.35 326.25 347.3 325.6 347.4 Q324.05 346.75 320.35 346.5 L316.85 346.3 306.85 345.6 306.25 345.5 Q298.55 344.35 293.75 341.35 288.65 338.1 286.85 332.8 286.1 330.65 285.85 328.25 L285.75 325.9 Q285.75 319.95 286.75 318.05 288.25 315.25 294.35 311.25 L295.75 310.3 292.3 306.5 288.25 302.25 Q283.75 297.55 283.75 293.55 284.15 290.5 284.95 287.5 285.8 284.3 287.15 281.15 L289.45 276.35 Q294.1 267.8 300.95 263.7 307.35 259.8 315.6 259.8 325.15 259.8 325.7 261.1 L325.7 262.25 Q325.8 262.95 327.25 263.3 328.3 262.1 330.15 257.3 332.4 251.55 334.0 248.7 340.35 237.55 352.6 237.55 367.5 237.55 387.75 247.45 405.3 257.3 406.6 257.3 408.5 257.3 409.35 255.8 L411.35 252.45 Q415.85 247.55 433.85 247.55 444.35 247.55 455.3 258.85 459.6 263.3 462.6 268.15 465.4 272.75 465.85 275.55 M354.55 317.05 Q359.85 319.3 363.1 319.3 369.9 319.3 372.85 316.3 374.6 314.5 374.6 312.3 L374.1 311.8 Q373.6 311.3 372.1 311.3 367.75 314.05 367.1 314.05 357.0 314.05 353.9 311.7 L352.0 310.05 Q350.9 309.3 348.75 309.3 347.7 309.3 344.35 310.7 341.0 312.05 340.25 312.05 327.1 312.05 325.65 309.6 325.35 308.4 324.9 308.0 324.2 307.25 321.25 307.3 L319.25 307.75 Q318.75 308.0 318.75 309.65 318.75 311.7 323.25 314.3 328.55 317.3 335.25 317.3 L342.0 316.05 Q347.5 314.8 348.75 314.8 349.3 314.8 354.55 317.05 M-2.4 343.7 L-0.2 343.75 0.15 343.75 Q11.15 344.1 18.55 347.1 24.5 349.55 28.05 353.7 32.55 358.95 32.55 366.05 32.55 368.35 29.55 372.2 L26.55 376.2 30.25 385.1 33.55 393.8 Q33.55 396.65 31.3 399.8 L-2.4 399.8 -2.4 343.7" fill="#00aa44" fill-rule="evenodd" stroke="none"/>
      <path d="M98.4 399.8 L108.95 398.3 131.15 395.6 Q140.15 394.2 145.75 392.1 L173.75 392.3 Q208.35 392.3 215.15 386.95 217.25 384.25 218.45 383.25 220.4 381.55 226.25 381.55 L242.7 384.95 252.1 386.6 Q263.45 388.3 272.25 388.3 285.55 388.3 290.5 385.35 291.8 384.6 293.3 383.05 293.65 382.65 294.05 382.35 L298.6 384.8 304.4 385.4 314.2 386.15 Q327.6 387.9 327.6 394.55 327.6 397.5 328.3 399.8 L98.4 399.8 M199.65 346.95 L212.35 346.9 227.05 346.8 Q229.75 348.45 229.75 349.8 229.75 352.45 227.25 353.3 225.4 352.85 223.75 350.2 220.85 347.8 212.35 347.8 210.4 347.8 201.35 354.05 192.25 360.3 188.25 360.3 185.45 360.3 183.2 359.05 180.75 357.7 180.75 355.65 180.75 354.2 181.0 354.05 L181.25 353.8 Q186.7 353.45 197.95 347.8 L198.3 347.65 199.65 346.95 M338.85 382.3 L340.75 381.8 341.55 381.35 Q341.75 381.1 341.75 379.55 L341.6 378.45 342.5 379.1 342.85 380.0 Q343.55 381.05 349.35 381.05 349.6 379.85 350.2 378.7 351.35 376.3 355.6 376.3 358.45 376.3 360.55 377.8 362.6 379.25 362.6 381.15 362.6 382.85 361.9 383.5 361.55 383.8 360.1 384.3 L358.2 382.75 Q357.05 381.85 354.85 381.55 L353.45 384.1 Q351.55 386.3 347.6 386.3 344.4 386.3 341.6 384.8 339.5 383.65 338.85 382.3 M442.05 365.75 Q452.0 363.25 459.35 359.1 466.1 355.3 469.65 350.55 472.6 346.7 472.6 343.55 472.6 338.9 470.1 331.3 L467.6 323.3 Q467.6 322.3 471.05 320.5 L478.6 316.6 Q489.6 310.6 489.6 304.65 489.6 303.3 488.25 298.85 486.6 293.35 484.3 288.55 478.15 275.75 470.4 274.45 L470.45 274.3 470.6 272.05 Q470.6 269.4 467.5 264.7 464.05 259.45 458.6 254.8 443.95 242.3 425.1 242.3 417.3 242.3 411.95 246.7 L408.6 249.7 Q407.0 251.05 405.75 251.05 404.4 251.05 399.0 248.5 L387.05 242.7 Q368.5 233.95 357.1 232.55 L351.75 232.3 Q345.35 232.3 340.95 235.75 338.45 237.7 334.35 243.3 330.4 248.7 327.3 250.85 322.45 254.3 315.25 254.3 305.95 254.3 298.85 258.35 295.9 252.4 290.6 246.8 282.6 238.35 280.75 228.05 280.6 227.3 281.35 223.3 282.05 219.85 281.05 217.8 L280.15 216.45 Q283.4 189.75 287.5 163.55 L289.7 147.8 302.35 147.8 301.0 149.85 Q295.75 158.45 295.75 165.8 295.75 172.5 303.1 176.45 309.0 179.6 321.0 181.45 L343.2 184.15 356.15 186.1 Q355.75 187.45 355.6 189.15 355.6 190.8 356.45 195.1 348.1 197.15 342.1 201.55 337.9 204.6 335.55 208.35 333.6 211.5 333.6 213.9 333.6 221.35 337.8 224.05 343.25 227.55 359.85 227.55 362.65 227.55 364.55 228.45 L367.9 230.45 Q373.25 233.3 386.6 233.3 398.65 233.3 400.8 231.55 402.0 230.55 402.75 230.35 L409.5 229.8 Q416.8 229.8 423.2 231.45 426.85 232.4 433.65 235.05 447.0 240.3 459.1 240.3 469.3 240.3 471.25 239.0 471.95 238.55 471.8 237.75 L471.6 236.4 Q471.85 233.2 506.1 235.3 511.8 235.65 513.15 233.35 513.6 232.55 513.6 228.65 513.6 225.8 510.85 223.05 513.2 220.55 521.9 214.75 527.6 210.95 527.6 207.3 527.6 205.45 524.85 201.9 522.9 199.4 520.3 197.05 524.75 194.1 529.1 190.55 538.65 182.7 544.6 174.3 550.6 165.75 550.6 159.8 550.6 152.9 547.55 149.2 L546.15 147.8 556.1 147.8 556.1 399.8 437.1 399.8 439.6 397.8 Q444.3 393.8 447.1 389.1 449.6 384.85 449.6 381.9 449.6 378.0 447.25 373.25 445.25 369.2 442.05 365.75 M450.1 220.3 Q448.45 219.9 447.75 218.3 447.15 216.8 444.85 216.55 L442.6 219.15 Q440.15 221.3 436.6 221.3 435.15 221.3 433.2 219.95 431.3 218.55 427.85 218.55 L426.4 219.95 Q424.85 221.3 424.1 221.3 422.5 221.3 422.0 220.45 L421.6 219.05 Q422.4 217.1 423.5 215.8 425.6 213.3 429.1 213.3 431.15 213.3 433.05 214.7 434.9 216.05 438.1 216.05 438.85 216.05 440.2 213.7 441.6 211.3 445.1 211.3 452.6 211.3 452.6 217.15 452.6 218.85 451.9 219.5 L450.1 220.3 M303.1 368.3 Q313.6 368.3 313.6 371.55 313.6 374.05 313.35 373.05 312.1 374.3 309.1 374.3 303.8 374.3 301.25 375.3 298.7 376.3 296.6 376.3 295.45 376.3 293.6 373.3 296.05 369.5 296.45 369.2 297.8 368.3 303.1 368.3 M393.6 391.3 Q394.5 389.9 397.8 387.6 401.05 385.3 402.1 385.3 413.2 385.3 415.35 383.3 L416.45 381.95 Q417.1 381.3 419.1 381.3 423.7 381.3 427.05 383.35 429.6 384.85 429.6 385.55 429.6 388.05 429.35 387.05 428.1 388.3 425.6 388.3 L422.05 388.1 Q419.6 388.3 417.85 390.3 414.1 394.65 398.1 394.3 395.55 394.3 394.85 393.45 394.35 392.2 393.6 391.3" fill="#02d255" fill-rule="evenodd" stroke="none"/>
      <path d="M22.45 17.15 Q39.75 17.45 193.25 17.8 L202.5 19.05 Q205.3 19.05 223.0 21.8 L253.25 27.3 Q310.65 35.55 317.55 45.85 291.5 105.15 284.5 147.8 283.5 153.8 282.9 159.5 L282.75 161.05 Q281.15 176.8 274.8 213.4 L273.4 221.35 Q267.9 252.65 267.75 276.45 L237.2 273.3 234.5 273.1 217.65 271.85 Q220.15 261.7 220.2 247.65 219.75 230.35 219.75 221.8 219.75 204.35 225.75 170.05 L229.95 147.8 237.55 109.6 Q245.75 69.25 245.75 66.55 L245.65 65.65 245.75 64.55 Q245.75 63.5 243.4 62.4 L243.25 62.3 243.25 62.35 Q238.75 60.3 226.2 58.05 206.25 54.5 172.3 51.55 97.7 45.2 6.1 45.45 L0.15 45.5 0.15 13.95 6.1 15.05 12.65 16.1 21.75 17.3 22.45 17.15" fill="#aa7700" fill-rule="evenodd" stroke="none"/>
      <path d="M145.75 392.1 L149.05 390.6 Q156.4 386.65 156.4 379.95 156.4 372.6 151.15 364.0 144.1 352.45 132.4 352.2 131.55 349.65 130.15 347.3 L144.75 347.3 197.9 346.95 198.3 347.65 197.95 347.8 Q186.7 353.45 181.25 353.8 L181.0 354.05 Q180.75 354.2 180.75 355.65 180.75 357.7 183.2 359.05 185.45 360.3 188.25 360.3 192.25 360.3 201.35 354.05 210.4 347.8 212.35 347.8 220.85 347.8 223.75 350.2 225.4 352.85 227.25 353.3 229.75 352.45 229.75 349.8 229.75 348.45 227.05 346.8 L239.4 346.7 Q239.4 351.3 238.75 352.55 L238.75 375.05 240.75 376.1 244.55 380.05 Q247.95 383.2 249.95 384.55 250.2 385.5 250.75 385.85 L250.8 385.9 251.35 386.1 252.15 386.2 254.75 386.3 Q272.65 386.3 278.25 384.35 280.75 383.45 280.75 381.55 280.75 380.15 280.0 379.8 280.6 377.1 281.05 372.9 281.75 366.15 281.75 361.65 281.75 351.15 280.25 346.45 L292.6 346.4 Q300.8 351.3 314.25 351.3 L322.8 350.95 322.75 353.8 Q322.75 354.4 325.3 365.5 L326.8 372.15 326.75 373.05 327.15 373.65 328.0 378.55 330.25 379.3 331.85 377.45 338.75 382.3 338.85 382.3 Q339.5 383.65 341.6 384.8 344.4 386.3 347.6 386.3 351.55 386.3 353.45 384.1 L354.85 381.55 Q357.05 381.85 358.2 382.75 L360.1 384.3 Q361.55 383.8 361.9 383.5 362.6 382.85 362.6 381.15 362.6 379.25 360.55 377.8 358.45 376.3 355.6 376.3 351.35 376.3 350.2 378.7 349.6 379.85 349.35 381.05 343.55 381.05 342.85 380.0 L342.5 379.1 341.6 378.45 341.35 377.8 Q342.75 373.35 342.75 365.15 L342.75 359.9 Q343.7 361.5 345.5 362.05 L362.1 362.8 Q363.8 362.8 368.4 364.55 373.05 366.3 379.6 366.3 L383.85 366.1 Q381.75 370.4 379.6 379.65 L379.45 380.4 379.1 380.3 Q377.3 380.75 377.1 380.95 376.6 381.35 376.6 383.05 376.6 385.2 378.1 386.05 380.3 387.3 387.1 387.3 394.2 387.3 395.55 385.9 396.0 385.4 395.85 384.8 L395.6 384.15 Q395.6 382.65 395.25 382.15 398.1 379.25 401.9 369.2 L407.6 369.3 Q427.55 369.3 442.05 365.75 445.25 369.2 447.25 373.25 449.6 378.0 449.6 381.9 449.6 384.85 447.1 389.1 444.3 393.8 439.6 397.8 L437.1 399.8 328.3 399.8 Q327.6 397.5 327.6 394.55 327.6 387.9 314.2 386.15 L304.4 385.4 298.6 384.8 294.05 382.35 Q293.65 382.65 293.3 383.05 291.8 384.6 290.5 385.35 285.55 388.3 272.25 388.3 263.45 388.3 252.1 386.6 L242.7 384.95 226.25 381.55 Q220.4 381.55 218.45 383.25 217.25 384.25 215.15 386.95 208.35 392.3 173.75 392.3 L145.75 392.1 M298.85 258.35 Q290.25 263.2 284.75 273.9 283.5 276.35 282.5 278.85 L274.25 277.35 273.75 277.3 Q276.4 246.55 280.15 216.45 L281.05 217.8 Q282.05 219.85 281.35 223.3 280.6 227.3 280.75 228.05 282.6 238.35 290.6 246.8 295.9 252.4 298.85 258.35 M356.45 195.1 L358.45 204.25 Q361.05 215.4 360.6 218.05 L363.1 219.3 Q365.6 216.8 365.6 213.9 365.6 205.0 363.9 196.6 L363.3 193.85 Q362.35 190.0 361.1 187.2 L363.35 187.8 Q363.65 190.75 365.35 193.6 368.35 198.5 375.65 203.0 380.55 206.0 385.7 207.75 L384.55 210.35 Q381.6 217.2 381.6 217.65 L381.85 220.3 Q381.6 221.3 384.1 221.3 386.15 221.3 388.55 214.25 L390.2 209.05 Q395.5 210.3 401.1 210.3 416.75 210.3 425.7 200.15 L427.65 197.75 430.6 199.3 Q449.4 208.65 480.65 209.25 L480.6 213.3 480.85 215.55 Q480.6 216.3 483.1 216.3 486.85 216.3 487.6 210.2 L487.6 209.25 Q497.2 208.65 508.0 203.8 514.25 201.0 520.3 197.05 522.9 199.4 524.85 201.9 527.6 205.45 527.6 207.3 527.6 210.95 521.9 214.75 513.2 220.55 510.85 223.05 513.6 225.8 513.6 228.65 513.6 232.55 513.15 233.35 511.8 235.65 506.1 235.3 471.85 233.2 471.6 236.4 L471.8 237.75 Q471.95 238.55 471.25 239.0 469.3 240.3 459.1 240.3 447.0 240.3 433.65 235.05 426.85 232.4 423.2 231.45 416.8 229.8 409.5 229.8 L402.75 230.35 Q402.0 230.55 400.8 231.55 398.65 233.3 386.6 233.3 373.25 233.3 367.9 230.45 L364.55 228.45 Q362.65 227.55 359.85 227.55 343.25 227.55 337.8 224.05 333.6 221.35 333.6 213.9 333.6 211.5 335.55 208.35 337.9 204.6 342.1 201.55 348.1 197.15 356.45 195.1 M450.1 220.3 L451.9 219.5 Q452.6 218.85 452.6 217.15 452.6 211.3 445.1 211.3 441.6 211.3 440.2 213.7 438.85 216.05 438.1 216.05 434.9 216.05 433.05 214.7 431.15 213.3 429.1 213.3 425.6 213.3 423.5 215.8 422.4 217.1 421.6 219.05 L422.0 220.45 Q422.5 221.3 424.1 221.3 424.85 221.3 426.4 219.95 L427.85 218.55 Q431.3 218.55 433.2 219.95 435.15 221.3 436.6 221.3 440.15 221.3 442.6 219.15 L444.85 216.55 Q447.15 216.8 447.75 218.3 448.45 219.9 450.1 220.3 M303.1 368.3 Q297.8 368.3 296.45 369.2 296.05 369.5 293.6 373.3 295.45 376.3 296.6 376.3 298.7 376.3 301.25 375.3 303.8 374.3 309.1 374.3 312.1 374.3 313.35 373.05 313.6 374.05 313.6 371.55 313.6 368.3 303.1 368.3 M393.6 391.3 Q394.35 392.2 394.85 393.45 395.55 394.3 398.1 394.3 414.1 394.65 417.85 390.3 419.6 388.3 422.05 388.1 L425.6 388.3 Q428.1 388.3 429.35 387.05 429.6 388.05 429.6 385.55 429.6 384.85 427.05 383.35 423.7 381.3 419.1 381.3 417.1 381.3 416.45 381.95 L415.35 383.3 Q413.2 385.3 402.1 385.3 401.05 385.3 397.8 387.6 394.5 389.9 393.6 391.3" fill="#02c14e" fill-rule="evenodd" stroke="none"/>
      <path d="M425.8 190.05 L425.55 190.4 425.8 190.05 M465.6 276.3 L465.85 275.55 465.95 275.6 465.6 276.3 M121.35 148.2 L121.7 148.3 121.7 148.4 121.35 148.5 121.35 148.2 M128.75 187.1 L128.8 187.1 128.75 187.8 128.75 187.1 M148.75 193.05 L149.05 193.2 148.75 193.2 148.75 193.05" fill="#a07001" fill-rule="evenodd" stroke="none"/>
      <path d="M0.15 273.35 L6.1 273.35 28.25 273.4 Q27.75 274.7 27.75 276.05 L36.8 314.0 36.85 314.3 37.15 315.15 37.7 316.45 37.05 316.45 Q24.9 316.45 17.75 324.2 L17.0 325.05 2.7 325.2 0.15 325.25 0.15 273.35 M0.15 327.95 L0.6 328.0 4.6 328.1 12.25 328.3 14.6 328.35 Q12.55 331.7 12.55 334.7 12.55 337.95 15.05 340.45 L15.1 340.5 15.05 340.5 Q8.5 338.75 0.15 338.5 L0.15 327.95 M278.75 293.8 L278.65 297.55 Q278.7 298.75 279.25 299.6 280.15 301.0 287.75 308.8 281.6 317.0 281.1 318.3 280.75 319.2 280.75 325.65 L280.9 328.15 164.5 326.8 134.1 325.85 104.25 324.55 94.25 324.4 Q86.15 322.45 77.55 322.45 L75.4 322.5 75.55 322.35 Q75.75 322.1 75.75 320.55 L75.75 320.45 75.75 320.4 75.75 320.3 75.75 320.25 75.75 320.2 75.3 317.55 74.7 314.7 74.55 313.95 74.4 313.35 73.3 308.6 73.2 308.15 Q70.45 296.4 70.25 295.05 L68.9 281.35 Q68.25 276.4 66.9 273.55 L93.15 273.65 100.6 273.7 100.75 275.4 Q100.75 278.25 104.1 294.45 L104.2 294.85 104.45 296.05 104.6 296.75 104.7 297.35 104.75 297.6 106.6 305.75 108.45 312.9 108.7 313.7 108.8 314.0 109.65 316.55 109.75 316.8 111.25 317.3 Q113.75 314.75 113.75 314.15 L113.75 313.65 Q113.4 309.65 109.2 290.55 106.65 278.95 105.1 273.7 L127.75 273.85 Q127.85 277.1 131.55 293.15 134.3 305.0 136.6 312.45 L138.35 317.7 138.75 318.8 140.25 319.3 Q142.75 316.75 142.75 316.15 L142.25 312.3 Q141.15 306.35 137.7 292.55 134.25 278.65 132.35 273.85 L169.8 274.15 Q168.75 275.8 168.75 277.3 168.75 284.3 173.65 301.05 L177.85 315.7 177.9 315.9 179.75 323.05 Q180.25 324.3 182.75 324.3 L184.75 323.8 185.55 323.35 Q185.75 323.1 185.75 321.55 185.75 320.25 184.8 317.25 L182.5 310.85 181.5 308.35 Q177.1 297.65 177.0 296.8 174.7 280.1 172.2 274.15 192.1 274.35 192.75 274.55 L195.25 275.3 205.8 275.75 205.75 276.65 Q205.75 282.3 219.75 318.75 L219.75 318.8 221.25 319.3 221.9 318.65 222.65 317.8 223.75 316.05 223.75 315.8 Q223.75 314.15 216.25 294.05 L209.35 275.9 230.0 277.05 234.25 278.4 237.3 279.15 240.4 279.85 240.85 279.9 242.25 280.2 243.8 280.45 251.95 281.65 251.75 283.4 Q251.75 284.25 258.85 300.85 266.2 318.0 267.0 323.55 L269.25 324.3 Q271.75 323.4 271.75 320.05 263.0 292.7 255.55 282.05 L255.95 282.1 261.5 282.6 262.9 282.7 280.9 283.3 Q279.25 288.5 278.75 293.8 M286.55 341.35 L268.15 341.4 247.95 341.45 247.15 341.45 241.65 341.5 237.9 341.5 237.8 341.5 237.05 341.5 126.2 342.0 Q121.05 336.3 112.45 331.5 L110.55 330.5 152.8 331.45 158.05 331.55 159.35 331.6 161.15 331.65 162.9 331.65 166.65 331.75 172.25 331.85 184.6 332.15 196.7 332.4 240.25 333.3 275.05 332.95 281.8 332.85 Q283.05 336.85 285.7 340.3 L286.55 341.35 M249.2 376.6 Q246.1 373.25 243.75 372.05 244.9 368.7 245.05 363.6 L244.75 348.4 244.65 346.7 259.25 346.6 278.4 346.45 Q276.6 351.8 276.7 361.2 276.85 374.3 275.75 378.55 L275.75 379.6 255.5 380.8 Q255.65 377.65 258.75 365.45 261.75 353.65 261.75 350.8 261.75 348.15 259.25 347.3 255.2 354.05 252.45 364.7 250.75 371.25 250.1 376.75 L249.2 376.6 M62.1 278.3 Q65.7 302.85 68.55 314.0 L68.65 314.4 71.5 322.3 71.7 322.6 Q65.1 322.95 60.1 324.1 L58.3 324.65 52.15 324.7 51.95 324.25 Q51.05 322.15 50.25 321.1 47.85 317.95 42.6 316.95 L42.2 314.25 Q41.15 308.2 38.15 296.0 34.25 280.45 31.6 273.45 L62.2 273.55 Q61.75 274.75 61.75 276.05 L61.85 276.5 61.9 276.8 61.9 277.0 62.05 277.8 62.1 278.3 M3.25 275.3 Q1.3 276.9 0.85 279.55 L0.75 284.05 Q3.5 303.85 6.1 313.4 8.5 322.3 10.75 322.3 L12.75 321.8 13.55 321.35 Q13.75 321.1 13.75 319.55 13.75 318.6 11.35 310.35 8.55 300.7 7.75 297.05 7.55 296.25 6.7 285.0 6.5 282.6 6.1 280.75 5.2 276.85 3.25 275.3" fill="#a96501" fill-rule="evenodd" stroke="none"/>
      <path d="M337.55 374.35 L332.7 372.1 Q332.5 365.35 331.15 359.2 330.45 355.95 329.55 353.55 L337.65 355.9 Q337.35 359.35 337.75 365.05 L337.85 374.35 337.55 374.35 M396.5 366.25 L396.45 366.85 Q396.4 367.45 396.65 367.85 390.6 379.4 390.6 379.65 L390.8 381.8 383.4 381.2 390.0 366.3 393.6 366.3 396.5 366.25" fill="#c48800" fill-rule="evenodd" stroke="none"/>
      <path d="M337.85 374.35 L337.85 374.4 337.55 374.35 337.85 374.35" fill="#aa4400" fill-rule="evenodd" stroke="none"/>
      <path d="M197.9 346.95 L199.65 346.95 198.3 347.65 197.9 346.95 M379.6 379.65 L379.65 380.45 379.45 380.4 379.6 379.65 M337.85 374.4 L337.85 374.55 337.55 374.35 337.85 374.4 M250.1 376.75 L250.05 377.5 249.2 376.6 250.1 376.75" fill="#996a00" fill-rule="evenodd" stroke="none"/>
      <path d="M0.15 53.15 L0.45 53.15 3.9 53.25 45.7 54.45 113.15 55.8 Q110.3 63.05 109.75 79.85 109.4 89.95 109.5 105.75 L102.5 106.05 Q36.3 106.05 -0.25 103.45 L-0.25 77.8 0.15 77.8 0.15 53.15 M-0.25 109.0 L29.65 111.0 Q27.8 116.95 24.25 132.7 18.75 157.1 18.75 158.4 L18.45 159.8 Q18.35 160.6 19.2 161.05 21.6 162.3 33.75 162.3 49.35 162.3 51.85 151.7 52.65 148.3 52.2 143.05 51.7 136.9 51.75 136.3 55.45 117.55 55.75 111.3 74.95 111.15 91.2 110.4 90.4 116.5 89.7 131.7 89.1 144.45 88.75 157.4 L88.35 159.2 Q88.1 160.25 88.95 160.8 91.3 162.3 104.75 162.3 L105.95 162.3 102.3 190.6 101.95 192.55 50.25 192.3 Q19.65 192.6 6.7 193.0 L5.55 193.0 2.25 193.15 0.15 193.25 0.15 190.8 -0.25 190.8 -0.25 109.0" fill="#5c3701" fill-rule="evenodd" stroke="none"/>
      <path d="M0.15 197.05 L6.1 197.1 Q51.1 197.15 101.4 195.4 L99.95 202.9 99.9 203.15 99.75 203.8 99.75 264.3 99.25 264.75 Q98.75 265.4 98.75 267.15 L98.8 268.3 92.25 268.3 Q28.9 268.6 6.1 269.05 L3.6 269.1 3.0 269.1 1.7 269.15 0.5 269.2 0.15 269.2 0.15 259.45 4.65 259.25 5.3 259.25 6.1 259.2 6.5 259.15 15.35 258.75 16.05 258.7 16.7 258.7 19.65 258.55 21.95 258.45 24.75 258.3 24.75 256.8 Q23.3 256.65 23.7 256.35 L24.15 255.85 6.1 255.3 5.25 255.3 5.0 255.3 4.75 255.3 4.2 255.3 3.85 255.3 0.15 255.35 0.15 240.7 6.1 240.55 57.75 239.3 57.75 237.8 56.25 236.55 21.75 236.3 6.1 236.6 3.35 236.65 3.05 236.65 0.15 236.75 0.15 215.1 6.1 215.1 78.95 213.7 80.75 213.65 89.75 213.3 89.75 211.8 88.25 210.55 39.25 210.3 Q18.3 210.5 6.1 210.8 L0.15 210.95 0.15 197.05 M87.75 224.8 L86.25 223.55 51.75 223.3 Q46.65 223.3 33.35 223.65 L16.25 224.55 16.0 224.15 Q15.75 224.1 15.75 225.65 L15.75 227.25 21.75 227.8 87.75 226.3 87.75 224.8 M37.9 252.25 Q38.55 252.8 42.3 252.8 L87.75 251.3 87.75 249.8 86.25 248.55 Q85.25 248.3 62.75 248.3 L38.2 249.35 Q36.8 249.7 37.15 250.15 L37.75 250.65 Q37.75 252.15 37.9 252.25" fill="#7d4b02" fill-rule="evenodd" stroke="none"/>
      <path d="M109.55 109.25 L114.65 108.8 116.35 108.6 Q115.3 113.35 115.25 124.85 115.2 135.7 115.75 156.8 L93.75 156.8 Q93.75 155.3 94.75 153.8 L94.75 110.25 109.55 109.25 M51.7 111.3 Q48.85 119.6 47.15 132.1 L43.75 157.05 24.25 156.8 Q30.0 132.6 33.75 112.55 L33.75 111.1 49.25 111.3 51.7 111.3 M171.55 97.0 L171.6 96.7 182.6 91.95 182.75 92.3 Q182.75 95.5 184.45 100.45 L185.1 102.1 187.15 107.4 188.25 110.3 189.2 112.8 Q192.7 122.55 193.5 130.65 L193.75 135.4 193.7 135.75 Q192.95 137.5 184.5 140.7 L175.5 143.8 174.7 138.35 174.05 133.45 173.35 127.35 172.85 122.35 Q172.1 114.35 171.85 107.0 L171.75 101.45 171.75 97.05 171.55 97.0" fill="#ffffff" fill-rule="evenodd" stroke="none"/>
      <path d="M99.75 264.3 L99.75 266.05 102.25 267.3 102.95 264.35 Q105.05 254.35 105.05 240.5 104.55 222.5 104.75 213.55 105.05 194.9 110.25 162.05 113.95 161.6 116.25 160.5 119.1 159.1 120.35 156.3 117.75 171.45 115.9 183.4 L115.25 183.55 115.0 183.15 Q114.75 183.1 114.75 184.65 114.75 186.25 115.2 186.6 L115.75 186.8 115.75 194.05 118.25 195.3 118.5 194.2 Q124.1 195.75 141.2 197.55 167.4 200.3 191.75 200.3 208.0 200.3 214.75 199.65 L214.75 271.7 Q165.8 268.6 103.65 268.35 L98.8 268.3 98.75 267.15 Q98.75 265.4 99.25 264.75 L99.75 264.3 M220.35 70.0 L188.45 83.35 181.25 83.3 Q146.8 83.65 136.55 84.15 L136.5 83.8 133.75 83.3 133.4 84.35 132.25 84.55 132.0 84.15 Q131.75 84.1 131.75 85.65 L131.5 86.8 Q131.4 87.3 131.85 87.6 L132.65 87.9 129.85 102.5 114.8 105.2 Q115.2 94.75 118.45 78.4 121.25 64.45 121.7 56.0 L122.35 56.0 165.25 57.3 212.9 62.1 Q220.35 62.9 232.25 65.15 227.85 66.8 220.35 70.0 M199.8 83.4 L201.7 82.45 Q221.0 73.0 241.4 67.1 238.15 75.65 235.35 85.15 L199.8 83.4 M121.35 148.2 L121.25 146.1 120.75 133.65 Q120.95 125.0 120.75 118.3 120.55 111.5 119.85 108.25 L128.45 107.2 129.0 107.15 126.4 121.45 125.85 124.65 125.75 125.25 125.6 126.1 121.9 147.15 121.8 147.8 121.75 148.15 121.7 148.3 121.35 148.2" fill="#aa5500" fill-rule="evenodd" stroke="none"/>
      <path d="M197.7 90.35 L233.6 91.25 Q231.45 98.8 229.6 106.95 L227.25 107.5 Q223.45 108.0 217.15 107.25 217.75 101.7 217.75 98.4 217.75 94.2 215.25 92.3 213.75 98.4 212.15 106.5 L197.25 103.3 197.05 103.25 Q197.75 95.85 197.75 91.65 L197.7 90.35 M146.25 88.9 L167.0 89.5 166.5 91.65 Q157.15 94.95 148.7 97.5 L148.75 96.05 Q148.85 94.85 148.55 93.35 148.05 90.45 146.25 89.3 L144.3 98.8 135.55 101.15 Q136.5 93.4 136.7 88.45 L140.7 88.7 146.25 88.9 M171.6 96.7 L171.55 97.0 171.3 96.85 171.6 96.7 M182.75 92.3 L182.6 91.95 182.8 91.85 182.75 92.3 M168.45 89.55 L172.0 89.65 169.05 90.75 168.45 89.55 M186.55 90.05 L186.6 90.05 193.85 90.25 Q192.8 93.7 191.3 101.4 189.35 96.05 186.55 90.05 M157.8 101.3 L164.8 99.15 164.35 101.4 159.25 101.3 157.8 101.3 M160.05 122.75 L149.25 123.55 149.0 123.15 Q148.75 123.1 148.75 124.65 148.2 125.15 148.45 125.5 148.85 126.05 152.65 126.45 L159.25 126.9 158.35 131.8 153.75 131.3 143.5 131.95 Q146.45 115.85 147.75 106.5 L163.2 106.8 160.05 122.75 M166.95 117.75 L167.2 122.5 166.1 122.55 166.95 117.75 M167.7 127.2 L168.45 132.85 164.25 132.4 165.25 127.15 167.7 127.2 M143.1 135.9 Q144.35 136.5 148.0 136.75 L157.35 137.15 155.6 147.05 155.4 148.05 155.25 148.9 144.4 147.8 140.55 147.45 142.75 135.85 143.1 135.9 M161.2 147.8 L163.3 137.45 169.1 137.9 170.9 150.65 160.85 149.5 161.2 147.8 M183.2 147.8 L182.45 152.1 175.4 151.2 183.45 146.5 183.2 147.8 M191.65 142.8 L191.85 141.75 204.25 142.3 205.8 142.3 205.75 142.8 204.9 147.8 203.5 155.7 Q198.65 154.5 189.95 153.15 L190.85 147.8 191.65 142.8 M138.35 105.7 L142.75 106.35 137.4 132.65 134.6 147.4 129.35 147.65 127.8 147.75 Q132.65 122.2 134.85 106.25 L138.35 105.7 M151.4 170.55 L149.3 182.45 133.45 182.75 135.9 170.8 151.4 170.55 M152.1 166.6 Q142.25 166.75 136.7 167.0 L139.5 152.85 154.45 153.4 152.1 166.6 M129.0 167.15 Q128.75 167.1 128.75 168.65 128.1 169.9 128.65 170.25 L130.65 170.65 Q129.5 178.05 129.05 182.85 L120.8 183.1 126.9 152.45 133.65 152.65 131.15 167.25 129.25 167.55 129.0 167.15 M128.75 187.8 L128.75 188.05 128.85 190.6 123.75 190.3 119.25 190.55 119.95 187.1 128.75 187.1 128.75 187.8 M148.75 193.2 L143.25 193.05 Q140.1 193.0 134.55 191.6 L131.75 191.0 132.55 187.1 148.75 186.95 148.75 193.05 148.75 193.2 M152.9 186.9 L176.75 186.35 Q176.8 189.4 177.0 191.3 178.25 192.05 179.25 192.3 180.8 190.8 182.45 186.2 L207.75 185.3 207.75 183.8 206.25 182.55 183.7 182.45 Q185.2 177.35 186.8 169.85 L201.0 169.55 200.75 170.8 200.75 179.05 203.25 180.3 205.9 169.45 211.75 169.3 211.75 167.8 210.25 166.55 206.55 166.55 207.7 160.95 Q208.95 160.6 209.45 160.05 209.75 159.75 209.75 158.55 209.75 157.95 208.45 157.3 L210.35 147.8 211.1 143.8 211.15 143.5 211.45 142.15 Q216.05 141.8 217.5 141.05 218.25 140.65 218.1 140.15 L217.75 139.55 Q217.75 139.1 212.2 138.2 L214.0 128.2 217.25 128.3 225.45 127.55 224.95 130.2 224.9 130.6 223.1 141.5 222.15 147.3 222.1 147.8 Q219.85 162.25 217.15 182.0 L217.1 182.3 216.8 184.25 216.5 186.4 216.4 187.2 215.3 195.35 209.7 195.0 151.5 193.3 152.9 186.9 M180.4 163.2 L179.85 166.35 170.25 166.3 157.3 166.5 159.95 153.9 170.25 155.55 181.55 157.05 180.4 163.2 M190.9 159.3 Q196.5 161.1 202.55 161.3 L201.6 166.5 187.5 166.4 188.95 158.75 190.9 159.3 M161.25 182.3 L153.9 182.4 156.45 170.45 179.2 170.0 177.1 182.4 161.25 182.3 M223.95 123.5 L214.9 122.8 216.9 109.3 229.3 108.45 Q227.55 116.1 226.05 124.25 225.35 123.7 223.95 123.5 M209.1 122.65 L203.25 122.55 196.85 122.5 195.5 116.6 196.55 107.8 211.6 109.15 209.1 122.65 M207.65 131.2 L206.65 137.4 199.75 136.5 197.95 127.55 205.0 127.55 208.25 127.8 207.65 131.2" fill="#653d01" fill-rule="evenodd" stroke="none"/>
      <path d="M142.75 135.85 L142.8 135.75 143.1 135.9 142.75 135.85" fill="url(#gradient1)" fill-rule="evenodd" stroke="none"/>
    </g>
    <linearGradient gradientTransform="matrix(-2.0E-4, 0.2454, -0.2438, -1.0E-4, 281.1, 199.8)" gradientUnits="userSpaceOnUse" id="gradient0" spreadMethod="pad" x1="-819.2" x2="819.2">
      <stop offset="0.0" stop-color="#aaddff"/>
      <stop offset="1.0" stop-color="#e6f0ff"/>
    </linearGradient>
    <linearGradient gradientTransform="matrix(-2.0E-4, 0.2454, -0.2438, -1.0E-4, 281.1, 199.8)" gradientUnits="userSpaceOnUse" id="gradient1" spreadMethod="pad" x1="-819.2" x2="819.2">
      <stop offset="0.0" stop-color="#0152a0"/>
      <stop offset="1.0" stop-color="#003366"/>
    </linearGradient>
  </defs>
</svg>
