<?xml version="1.0" encoding="UTF-8" standalone="no"?>
<svg xmlns:xlink="http://www.w3.org/1999/xlink" height="842.55px" width="1337.95px" xmlns="http://www.w3.org/2000/svg">
  <g transform="matrix(1, 0, 0, 1, 407.45, 285.05)">
    <use height="4.5" transform="matrix(5.4867, 0.0, 0.0, 81.5667, 3.2875, 23.0167)" width="99.75" xlink:href="#shape0"/>
    <use height="413.45" transform="matrix(1.0, 0.0, 0.0, 1.0, -13.0, -5.5)" width="570.95" xlink:href="#shape1"/>
    <use height="118.15" transform="matrix(1.0124, 0.0, 0.0, 1.0223, 369.8618, 106.1327)" width="143.2" xlink:href="#sprite0"/>
  </g>
  <defs>
    <g id="shape0" transform="matrix(1, 0, 0, 1, 49.85, -2.5)">
      <path d="M49.9 7.0 L-49.85 7.0 -49.85 2.5 49.9 2.5 49.9 7.0" fill="#ffffff" fill-rule="evenodd" stroke="none"/>
    </g>
    <g id="shape1" transform="matrix(1, 0, 0, 1, 13.0, 5.5)">
      <path d="M551.95 229.05 L-3.45 229.05 -3.45 -5.5 551.95 -5.5 551.95 229.05" fill="url(#gradient0)" fill-rule="evenodd" stroke="none"/>
      <path d="M99.2 165.5 L103.85 165.15 130.35 164.35 134.3 164.3 136.05 164.35 Q146.85 164.7 178.15 169.4 L180.15 169.7 184.7 170.35 211.2 173.75 212.65 173.9 216.9 174.2 222.15 174.45 Q235.0 174.45 261.15 170.5 L265.7 169.8 292.4 165.2 298.05 164.15 299.65 163.85 339.2 156.25 352.4 153.8 357.35 152.95 363.5 152.05 382.9 151.9 389.35 151.85 401.45 151.8 443.5 153.6 448.4 154.25 Q461.0 155.9 468.55 158.75 470.3 159.4 474.3 161.35 L480.3 164.35 482.9 165.65 Q492.0 170.3 501.9 173.15 L536.15 186.25 538.9 187.3 553.9 193.15 553.9 201.0 Q552.9 200.85 557.95 202.75 549.9 200.25 547.8 199.7 L542.45 198.0 538.65 196.55 538.15 196.35 534.55 194.85 Q515.5 185.75 503.35 180.6 491.85 175.7 480.15 172.0 L475.15 170.45 Q461.8 166.5 448.1 164.05 L443.45 163.25 Q422.55 159.85 400.85 159.85 395.05 159.85 389.25 160.0 L383.15 160.15 357.05 161.7 352.3 162.15 Q325.8 164.55 297.95 169.55 L292.95 170.5 289.05 171.25 274.6 174.15 265.5 176.05 261.1 176.9 250.5 179.0 Q232.05 182.5 222.4 182.55 213.7 182.55 184.45 178.4 L180.1 177.7 178.4 177.5 Q147.45 172.9 135.9 172.45 L133.55 172.35 131.3 172.35 Q116.45 172.4 103.6 172.85 L99.15 173.0 Q77.3 173.9 61.45 176.0 L56.15 176.75 54.6 177.0 Q40.35 179.35 34.6 182.0 L8.25 186.7 Q7.2 186.85 -0.85 192.55 L-4.25 194.95 -7.9 197.5 -8.85 198.15 -8.95 198.2 Q-14.0 198.15 -12.75 193.3 -12.75 188.8 0.35 183.6 12.85 178.55 34.35 174.2 66.05 167.7 99.2 165.5" fill="#000000" fill-rule="evenodd" stroke="none"/>
      <path d="M103.85 165.15 L105.5 111.75 118.65 93.9 130.05 112.1 129.9 117.9 129.85 119.25 129.55 132.35 129.55 134.05 129.5 141.85 129.5 143.85 130.35 164.35 103.85 165.15 M184.7 170.35 L186.5 111.75 199.6 93.9 211.05 112.1 210.9 117.9 210.85 119.25 210.55 132.35 210.55 134.05 210.5 141.85 210.5 143.5 211.15 163.45 211.15 163.7 211.2 163.95 211.2 164.25 211.25 164.5 211.25 164.75 211.3 165.25 211.35 165.45 211.55 167.6 Q211.95 171.0 212.5 173.3 L211.5 173.7 211.2 173.75 184.7 170.35 M265.7 169.8 L267.5 111.75 280.6 93.9 292.05 112.1 291.85 117.9 291.8 119.25 291.55 132.35 291.5 134.05 291.45 141.85 291.5 143.85 292.4 165.2 265.7 169.8 M357.35 152.95 L358.6 111.75 371.75 93.9 383.15 112.1 383.0 117.9 382.95 119.25 382.65 132.35 382.65 134.05 382.6 141.85 382.6 143.5 382.9 151.9 363.5 152.05 357.35 152.95 M448.4 154.25 L449.75 111.75 462.85 93.9 474.3 112.1 474.1 117.9 474.05 119.25 473.8 132.35 473.75 134.05 473.7 141.85 473.75 141.85 473.75 143.5 474.3 161.35 Q470.3 159.4 468.55 158.75 461.0 155.9 448.4 154.25 M538.9 187.3 L539.25 173.7 538.95 173.7 540.85 111.75 542.4 109.6 542.45 109.6 553.9 94.0 553.9 193.15 538.9 187.3 M534.8 134.05 L480.8 134.05 481.05 117.9 534.9 117.9 534.8 134.05 M389.65 134.05 L389.95 117.9 443.8 117.9 443.65 134.05 389.65 134.05 M352.55 134.05 L298.55 134.05 298.8 117.9 352.65 117.9 352.55 134.05 M217.55 134.05 L217.8 117.9 261.55 117.9 261.45 134.05 217.55 134.05 M180.45 134.05 L136.55 134.05 136.8 117.9 180.55 117.9 180.45 134.05 M83.0 118.7 L83.0 117.9 99.55 117.9 99.45 134.05 83.15 134.05 Q83.3 130.9 82.95 126.5 83.35 122.4 83.0 118.7" fill="#b38e00" fill-rule="evenodd" stroke="none"/>
      <path d="M99.2 165.5 L99.4 141.85 79.15 141.85 77.05 141.5 75.6 140.55 75.5 138.85 75.35 138.2 Q75.3 137.85 75.4 137.5 74.3 117.2 74.35 114.75 L74.35 114.4 74.35 114.25 Q74.35 111.75 78.15 110.1 L99.65 110.1 99.65 109.05 119.65 80.9 134.95 110.1 180.65 110.1 180.65 109.05 200.65 80.9 215.95 110.1 261.65 110.1 261.65 109.05 281.6 80.9 296.95 110.1 352.75 110.1 352.75 109.05 372.75 80.9 388.05 110.1 443.85 110.1 443.85 109.05 463.85 80.9 479.15 110.1 535.0 110.1 535.0 109.05 553.9 82.35 553.9 94.0 542.45 109.6 542.4 109.6 540.85 111.75 538.95 173.7 539.25 173.7 538.9 187.3 536.15 186.25 534.4 179.3 534.7 141.85 480.65 141.85 480.3 164.35 474.3 161.35 473.75 143.5 473.75 141.85 473.7 141.85 473.75 134.05 473.8 132.35 474.05 119.25 474.1 117.9 474.3 112.1 462.85 93.9 449.75 111.75 448.4 154.25 443.5 153.6 443.6 141.85 389.55 141.85 389.35 151.85 382.9 151.9 382.6 143.5 382.6 141.85 382.65 134.05 382.65 132.35 382.95 119.25 383.0 117.9 383.15 112.1 371.75 93.9 358.6 111.75 357.35 152.95 352.4 153.8 352.5 141.85 298.45 141.85 298.05 164.15 292.4 165.2 291.5 143.85 291.45 141.85 291.5 134.05 291.55 132.35 291.8 119.25 291.85 117.9 292.05 112.1 280.6 93.9 267.5 111.75 265.7 169.8 261.15 170.5 261.4 141.85 217.45 141.85 216.9 174.2 212.65 173.9 212.5 173.3 Q211.95 171.0 211.55 167.6 L211.35 165.45 211.3 165.25 211.25 164.75 211.25 164.5 211.2 164.25 211.2 163.95 211.15 163.7 211.15 163.45 210.5 143.5 210.5 141.85 210.55 134.05 210.55 132.35 210.85 119.25 210.9 117.9 211.05 112.1 199.6 93.9 186.5 111.75 184.7 170.35 180.15 169.7 180.4 141.85 136.45 141.85 136.05 164.35 134.3 164.3 130.35 164.35 129.5 143.85 129.5 141.85 129.55 134.05 129.55 132.35 129.85 119.25 129.9 117.9 130.05 112.1 118.65 93.9 105.5 111.75 103.85 165.15 99.2 165.5 M534.8 134.05 L534.9 117.9 481.05 117.9 480.8 134.05 534.8 134.05 M389.65 134.05 L443.65 134.05 443.8 117.9 389.95 117.9 389.65 134.05 M352.55 134.05 L352.65 117.9 298.8 117.9 298.55 134.05 352.55 134.05 M217.55 134.05 L261.45 134.05 261.55 117.9 217.8 117.9 217.55 134.05 M180.45 134.05 L180.55 117.9 136.8 117.9 136.55 134.05 180.45 134.05 M83.0 117.9 L82.9 117.9 83.0 118.7 Q83.35 122.4 82.95 126.5 83.3 130.9 83.15 134.05 L99.45 134.05 99.55 117.9 83.0 117.9" fill="#000100" fill-rule="evenodd" stroke="none"/>
      <path d="M557.95 202.75 Q553.2 213.25 553.55 245.35 553.85 271.75 553.55 298.5 554.45 375.45 552.05 396.5 L551.65 399.6 Q553.55 400.7 553.55 402.75 553.55 404.3 552.1 405.45 550.9 406.4 549.75 406.5 L187.25 406.5 Q183.85 401.55 181.2 396.5 171.0 377.25 171.0 356.45 171.0 348.4 172.55 338.55 174.05 328.7 174.05 319.75 174.05 307.1 173.4 301.1 172.35 292.35 169.3 285.15 162.85 270.25 138.6 246.65 128.3 236.5 110.7 226.65 87.7 213.7 82.45 209.9 70.95 201.6 64.8 186.15 63.45 182.7 61.65 176.55 L61.45 176.0 Q77.3 173.9 99.15 173.0 L103.6 172.85 Q116.45 172.4 131.3 172.35 L133.55 172.35 135.9 172.45 Q147.45 172.9 178.4 177.5 L180.1 177.7 184.45 178.4 Q213.7 182.55 222.4 182.55 232.05 182.5 250.5 179.0 L261.1 176.9 265.5 176.05 274.6 174.15 289.05 171.25 292.95 170.5 297.95 169.55 Q325.8 164.55 352.3 162.15 L357.05 161.7 383.15 160.15 389.25 160.0 Q395.05 159.85 400.85 159.85 422.55 159.85 443.45 163.25 L448.1 164.05 Q461.8 166.5 475.15 170.45 L480.15 172.0 Q491.85 175.7 503.35 180.6 515.5 185.75 534.55 194.85 L538.15 196.35 538.65 196.55 542.45 198.0 547.8 199.7 Q549.9 200.25 557.95 202.75 M465.75 196.6 L452.55 197.15 429.75 198.05 430.35 197.4 Q370.4 195.9 368.85 206.45 360.65 211.25 359.9 225.0 359.65 228.45 360.25 241.5 360.65 250.55 359.15 253.45 354.1 262.9 346.6 268.7 L334.3 276.3 Q327.75 280.3 324.95 285.45 321.2 292.4 321.2 305.4 321.2 313.95 324.55 324.65 326.45 330.85 331.35 344.1 332.6 347.75 332.95 354.1 L333.35 363.65 Q333.55 365.85 335.75 368.7 337.9 371.5 340.45 372.8 342.35 373.65 346.55 378.5 348.95 381.25 350.7 382.2 353.75 384.9 358.95 387.95 371.4 395.2 380.7 395.2 384.75 395.2 397.1 391.8 409.35 388.4 414.0 388.4 415.9 388.4 425.45 394.95 L428.55 396.5 Q439.4 401.45 452.05 401.45 466.7 401.45 471.35 396.5 472.95 394.8 473.4 392.55 479.45 390.25 489.05 378.05 500.9 362.85 500.9 354.55 500.9 350.25 499.65 346.1 497.5 339.05 496.85 335.75 516.65 325.35 522.75 312.3 525.1 307.1 525.8 300.6 526.2 296.9 526.2 288.85 526.2 273.45 519.65 262.1 516.35 256.85 515.15 254.35 513.05 250.15 513.05 245.85 513.05 242.7 514.6 238.2 516.1 233.65 516.1 228.65 515.2 222.35 512.85 216.2 508.65 205.5 502.15 204.1 499.8 202.0 494.4 200.55 489.2 199.05 481.75 198.25 478.2 196.6 465.75 196.6" fill="#9fe272" fill-rule="evenodd" stroke="none"/>
      <path d="M187.25 406.5 L187.7 407.2 188.3 407.95 176.8 407.95 176.0 406.5 Q173.05 401.15 171.35 396.5 L171.25 396.25 Q163.8 375.75 163.4 373.45 163.0 371.35 163.15 367.6 L163.4 356.75 Q163.4 345.6 164.95 336.6 166.45 327.65 166.45 319.65 166.45 289.8 149.2 268.25 137.15 253.1 111.3 237.2 L91.05 225.1 Q79.85 218.25 73.35 212.85 56.1 198.6 56.1 181.25 L56.15 176.75 61.45 176.0 61.65 176.55 Q63.45 182.7 64.8 186.15 70.95 201.6 82.45 209.9 87.7 213.7 110.7 226.65 128.3 236.5 138.6 246.65 162.85 270.25 169.3 285.15 172.35 292.35 173.4 301.1 174.05 307.1 174.05 319.75 174.05 328.7 172.55 338.55 171.0 348.4 171.0 356.45 171.0 377.25 181.2 396.5 183.85 401.55 187.25 406.5 M465.75 196.6 Q478.2 196.6 481.75 198.25 489.2 199.05 494.4 200.55 499.8 202.0 502.15 204.1 508.65 205.5 512.85 216.2 515.2 222.35 516.1 228.65 516.1 233.65 514.6 238.2 513.05 242.7 513.05 245.85 513.05 250.15 515.15 254.35 516.35 256.85 519.65 262.1 526.2 273.45 526.2 288.85 526.2 296.9 525.8 300.6 525.1 307.1 522.75 312.3 516.65 325.35 496.85 335.75 497.5 339.05 499.65 346.1 500.9 350.25 500.9 354.55 500.9 362.85 489.05 378.05 479.45 390.25 473.4 392.55 472.95 394.8 471.35 396.5 466.7 401.45 452.05 401.45 439.4 401.45 428.55 396.5 L425.45 394.95 Q415.9 388.4 414.0 388.4 409.35 388.4 397.1 391.8 384.75 395.2 380.7 395.2 371.4 395.2 358.95 387.95 353.75 384.9 350.7 382.2 348.95 381.25 346.55 378.5 342.35 373.65 340.45 372.8 337.9 371.5 335.75 368.7 333.55 365.85 333.35 363.65 L332.95 354.1 Q332.6 347.75 331.35 344.1 326.45 330.85 324.55 324.65 321.2 313.95 321.2 305.4 321.2 292.4 324.95 285.45 327.75 280.3 334.3 276.3 L346.6 268.7 Q354.1 262.9 359.15 253.45 360.65 250.55 360.25 241.5 359.65 228.45 359.9 225.0 360.65 211.25 368.85 206.45 370.4 195.9 430.35 197.4 L429.75 198.05 452.55 197.15 465.75 196.6 M478.1 203.9 Q468.5 204.75 425.85 203.5 425.0 204.95 424.7 206.05 L410.15 205.8 Q393.8 205.4 384.5 207.0 L384.5 207.9 Q384.5 208.2 382.3 208.65 379.5 209.2 377.55 210.55 370.55 215.35 370.3 231.25 370.1 245.1 366.5 256.3 365.05 260.85 357.5 267.9 L341.95 281.3 Q328.8 292.6 328.8 305.9 328.8 312.2 333.0 324.9 L338.95 342.3 Q339.9 345.75 340.35 351.15 L340.95 360.25 Q341.35 365.7 348.85 370.1 L351.7 371.8 Q354.05 372.1 356.45 374.1 L361.8 379.3 Q369.7 386.85 380.2 386.85 385.2 386.85 396.9 383.45 408.6 380.05 413.6 380.1 419.55 380.1 428.75 386.75 437.85 393.35 440.65 393.4 465.4 393.35 466.5 389.9 466.05 388.1 466.1 387.45 466.1 386.7 467.7 386.5 468.7 384.75 471.1 382.65 473.55 380.45 480.15 375.35 493.3 364.45 493.3 354.15 493.3 348.75 491.3 344.3 489.25 339.75 489.25 336.15 489.25 333.8 493.85 329.4 496.6 326.8 503.95 320.1 518.6 305.25 518.65 288.7 518.65 278.55 516.55 272.2 515.15 267.9 512.05 263.75 508.45 258.95 507.55 256.9 505.45 252.4 505.45 245.35 505.45 239.95 507.0 236.2 508.5 232.5 508.5 228.5 508.5 221.85 502.45 216.6 L498.3 212.8 497.05 211.05 495.6 210.0 492.8 207.3 Q487.55 203.8 482.7 201.0 L482.85 202.6 Q482.3 203.5 478.1 203.9 M443.75 297.0 Q466.5 303.4 466.5 303.85 466.45 307.65 461.15 307.65 451.7 307.6 438.35 303.2 425.0 298.75 418.4 298.8 417.1 298.75 413.75 300.1 410.3 301.4 409.05 301.4 405.85 301.35 405.25 299.15 L405.25 296.55 Q405.25 293.4 406.8 292.25 409.25 290.45 417.15 290.45 420.55 290.4 443.75 297.0 M414.7 254.1 Q409.3 250.55 408.8 250.55 396.75 250.55 396.5 252.55 396.4 253.0 396.65 253.85 396.35 254.45 393.85 254.45 L391.75 254.1 390.3 253.15 Q390.05 252.2 390.05 249.65 390.05 242.45 402.95 242.45 411.75 242.45 415.75 246.05 L418.75 248.45 Q420.7 249.5 423.95 249.55 428.6 249.5 430.0 248.1 431.35 246.65 432.3 246.65 436.75 246.65 436.1 251.45 436.1 257.6 427.75 257.6 421.35 257.55 414.7 254.1 M397.15 342.55 Q398.55 343.05 417.9 343.1 L419.3 344.1 Q419.9 344.9 419.9 346.6 419.9 349.1 417.45 350.1 414.25 351.4 405.5 351.4 394.65 351.4 389.6 347.4 L386.75 344.6 Q385.55 343.3 384.5 343.35 376.5 343.3 371.75 344.8 368.5 346.2 368.05 346.2 363.7 346.2 363.75 342.55 363.7 335.25 381.7 335.25 388.35 335.25 393.1 338.75 395.45 340.5 397.15 342.55 M147.25 291.25 Q147.75 291.75 147.75 293.4 147.7 295.6 145.7 296.7 L137.95 297.5 129.75 298.5 125.6 301.7 Q123.3 303.45 121.65 303.45 118.85 303.45 118.1 301.4 117.85 300.75 117.85 299.05 117.85 295.6 122.4 292.8 127.95 289.4 137.35 289.4 145.2 289.35 147.25 291.25 M71.8 244.05 Q73.75 244.6 74.0 245.65 L73.85 247.55 Q73.8 250.55 73.4 251.2 72.9 252.0 70.85 251.85 L50.55 250.55 Q39.8 250.55 37.15 255.65 L35.6 259.15 Q34.7 260.7 32.55 260.7 L30.5 260.35 29.05 259.4 Q28.75 258.45 28.8 255.9 28.75 253.1 32.9 248.5 38.15 242.45 45.25 242.45 66.75 242.45 71.8 244.05 M78.15 338.4 Q81.15 338.35 82.2 339.05 L83.15 340.45 Q84.05 342.55 91.3 342.55 94.9 342.55 95.1 346.6 95.1 348.75 92.55 350.1 90.15 351.4 86.75 351.4 81.5 351.4 79.6 349.35 L78.6 347.95 Q78.15 347.25 77.6 347.25 75.0 347.25 73.8 347.95 L70.8 349.5 Q64.2 351.65 38.4 351.7 25.45 351.7 19.85 354.7 16.4 357.65 14.35 357.65 L12.25 357.3 10.8 356.35 Q10.55 355.85 10.55 353.25 10.55 348.25 17.45 346.75 23.45 345.4 42.95 345.45 63.65 345.4 70.15 341.95 L73.5 339.5 Q75.25 338.4 78.15 338.4" fill="#665b00" fill-rule="evenodd" stroke="none"/>
      <path d="M176.0 406.5 L-4.9 406.5 -5.35 406.2 -5.9 406.5 Q-8.9 406.5 -9.9 396.5 -10.35 391.9 -10.4 385.25 -9.7 360.0 -9.7 352.2 L-9.7 298.5 Q-10.0 270.3 -9.7 243.55 -9.3 209.8 -7.9 197.5 L-4.25 194.95 -0.85 192.55 Q7.2 186.85 8.25 186.7 L34.6 182.0 Q40.35 179.35 54.6 177.0 L56.15 176.75 56.1 181.25 Q56.1 198.6 73.35 212.85 79.85 218.25 91.05 225.1 L111.3 237.2 Q137.15 253.1 149.2 268.25 166.45 289.8 166.45 319.65 166.45 327.65 164.95 336.6 163.4 345.6 163.4 356.75 L163.15 367.6 Q163.0 371.35 163.4 373.45 163.8 375.75 171.25 396.25 L171.35 396.5 Q173.05 401.15 176.0 406.5 M397.15 342.55 Q395.45 340.5 393.1 338.75 388.35 335.25 381.7 335.25 363.7 335.25 363.75 342.55 363.7 346.2 368.05 346.2 368.5 346.2 371.75 344.8 376.5 343.3 384.5 343.35 385.55 343.3 386.75 344.6 L389.6 347.4 Q394.65 351.4 405.5 351.4 414.25 351.4 417.45 350.1 419.9 349.1 419.9 346.6 419.9 344.9 419.3 344.1 L417.9 343.1 Q398.55 343.05 397.15 342.55 M414.7 254.1 Q421.35 257.55 427.75 257.6 436.1 257.6 436.1 251.45 436.75 246.65 432.3 246.65 431.35 246.65 430.0 248.1 428.6 249.5 423.95 249.55 420.7 249.5 418.75 248.45 L415.75 246.05 Q411.75 242.45 402.95 242.45 390.05 242.45 390.05 249.65 390.05 252.2 390.3 253.15 L391.75 254.1 393.85 254.45 Q396.35 254.45 396.65 253.85 396.4 253.0 396.5 252.55 396.75 250.55 408.8 250.55 409.3 250.55 414.7 254.1 M443.75 297.0 Q420.55 290.4 417.15 290.45 409.25 290.45 406.8 292.25 405.25 293.4 405.25 296.55 L405.25 299.15 Q405.85 301.35 409.05 301.4 410.3 301.4 413.75 300.1 417.1 298.75 418.4 298.8 425.0 298.75 438.35 303.2 451.7 307.6 461.15 307.65 466.45 307.65 466.5 303.85 466.5 303.4 443.75 297.0 M478.1 203.9 Q482.3 203.5 482.85 202.6 L482.7 201.0 Q487.55 203.8 492.8 207.3 L495.6 210.0 497.05 211.05 498.3 212.8 502.45 216.6 Q508.5 221.85 508.5 228.5 508.5 232.5 507.0 236.2 505.45 239.95 505.45 245.35 505.45 252.4 507.55 256.9 508.45 258.95 512.05 263.75 515.15 267.9 516.55 272.2 518.65 278.55 518.65 288.7 518.6 305.25 503.95 320.1 496.6 326.8 493.85 329.4 489.25 333.8 489.25 336.15 489.25 339.75 491.3 344.3 493.3 348.75 493.3 354.15 493.3 364.45 480.15 375.35 473.55 380.45 471.1 382.65 468.7 384.75 467.7 386.5 466.1 386.7 466.1 387.45 466.05 388.1 466.5 389.9 465.4 393.35 440.65 393.4 437.85 393.35 428.75 386.75 419.55 380.1 413.6 380.1 408.6 380.05 396.9 383.45 385.2 386.85 380.2 386.85 369.7 386.85 361.8 379.3 L356.45 374.1 Q354.05 372.1 351.7 371.8 L348.85 370.1 Q341.35 365.7 340.95 360.25 L340.35 351.15 Q339.9 345.75 338.95 342.3 L333.0 324.9 Q328.8 312.2 328.8 305.9 328.8 292.6 341.95 281.3 L357.5 267.9 Q365.05 260.85 366.5 256.3 370.1 245.1 370.3 231.25 370.55 215.35 377.55 210.55 379.5 209.2 382.3 208.65 384.5 208.2 384.5 207.9 L384.5 207.0 Q393.8 205.4 410.15 205.8 L424.7 206.05 Q425.0 204.95 425.85 203.5 468.5 204.75 478.1 203.9 M78.15 338.4 Q75.25 338.4 73.5 339.5 L70.15 341.95 Q63.65 345.4 42.95 345.45 23.45 345.4 17.45 346.75 10.55 348.25 10.55 353.25 10.55 355.85 10.8 356.35 L12.25 357.3 14.35 357.65 Q16.4 357.65 19.85 354.7 25.45 351.7 38.4 351.7 64.2 351.65 70.8 349.5 L73.8 347.95 Q75.0 347.25 77.6 347.25 78.15 347.25 78.6 347.95 L79.6 349.35 Q81.5 351.4 86.75 351.4 90.15 351.4 92.55 350.1 95.1 348.75 95.1 346.6 94.9 342.55 91.3 342.55 84.05 342.55 83.15 340.45 L82.2 339.05 Q81.15 338.35 78.15 338.4 M71.8 244.05 Q66.75 242.45 45.25 242.45 38.15 242.45 32.9 248.5 28.75 253.1 28.8 255.9 28.75 258.45 29.05 259.4 L30.5 260.35 32.55 260.7 Q34.7 260.7 35.6 259.15 L37.15 255.65 Q39.8 250.55 50.55 250.55 L70.85 251.85 Q72.9 252.0 73.4 251.2 73.8 250.55 73.85 247.55 L74.0 245.65 Q73.75 244.6 71.8 244.05 M147.25 291.25 Q145.2 289.35 137.35 289.4 127.95 289.4 122.4 292.8 117.85 295.6 117.85 299.05 117.85 300.75 118.1 301.4 118.85 303.45 121.65 303.45 123.3 303.45 125.6 301.7 L129.75 298.5 137.95 297.5 145.7 296.7 Q147.7 295.6 147.75 293.4 147.75 291.75 147.25 291.25" fill="#7e7201" fill-rule="evenodd" stroke="none"/>
    </g>
    <linearGradient gradientTransform="matrix(0.0, -0.1432, -0.3406, 0.0, 275.5, 111.75)" gradientUnits="userSpaceOnUse" id="gradient0" spreadMethod="pad" x1="-819.2" x2="819.2">
      <stop offset="0.0" stop-color="#80a6ff"/>
      <stop offset="1.0" stop-color="#2561b8"/>
    </linearGradient>
    <g id="sprite0" transform="matrix(1, 0, 0, 1, 71.6, 59.05)">
      <use height="118.15" transform="matrix(1.0, 0.0, 0.0, 1.0, -71.6, -59.05)" width="143.2" xlink:href="#shape2"/>
    </g>
    <g id="shape2" transform="matrix(1, 0, 0, 1, 71.6, 59.05)">
      <path d="M11.65 -52.7 L28.95 -53.3 Q32.2 -51.4 41.45 -42.5 50.65 -33.65 54.6 -20.5 58.55 -7.4 62.25 6.75 65.95 20.9 65.6 27.95 64.0 29.25 57.6 35.6 L54.9 38.3 Q55.3 32.95 54.85 24.35 54.5 2.95 46.1 -16.9 34.55 -44.3 11.65 -52.7 M-38.1 -19.55 Q-23.75 -19.25 -0.4 -23.15 L3.1 -22.65 3.35 -22.4 3.6 -20.8 Q3.6 -15.15 -41.75 -15.15 -43.3 -15.15 -43.55 -15.5 -43.6 -16.0 -44.0 -16.4 -44.25 -15.4 -44.25 -17.9 -44.25 -19.4 -43.3 -19.6 L-38.1 -19.55 M-33.75 1.35 Q-44.8 3.85 -47.25 3.85 -49.75 3.85 -51.0 2.6 -51.25 3.6 -51.25 1.1 -51.25 -1.4 -25.5 -5.9 -0.95 -10.15 8.6 -10.15 17.05 -10.15 19.15 -9.1 19.6 -8.85 19.6 -7.8 19.6 -6.5 18.85 -6.35 L15.55 -6.45 Q7.2 -6.9 -4.9 -3.9 -12.0 -2.4 -19.25 -1.65 L-33.75 1.35" fill="#a6a6a6" fill-rule="evenodd" stroke="none"/>
      <path d="M11.65 -52.7 Q34.55 -44.3 46.1 -16.9 54.5 2.95 54.85 24.35 55.3 32.95 54.9 38.3 L57.6 35.6 Q64.0 29.25 65.6 27.95 65.95 20.9 62.25 6.75 58.55 -7.4 54.6 -20.5 50.65 -33.65 41.45 -42.5 32.2 -51.4 28.95 -53.3 L11.65 -52.7 M45.45 -49.05 Q58.1 -34.65 61.6 -21.9 L67.75 -0.5 Q70.85 11.8 70.85 20.45 L71.5 30.25 71.6 30.45 71.5 30.85 71.35 31.05 Q70.1 32.95 62.1 40.2 52.25 49.1 51.1 48.85 L50.85 48.8 Q46.0 51.25 29.35 54.35 3.45 59.1 -23.25 59.1 -53.8 59.1 -61.7 56.1 L-62.25 56.1 Q-69.05 56.1 -70.95 37.8 -71.55 32.05 -71.6 25.15 L-71.5 19.2 Q-71.5 6.35 -71.1 0.95 -70.05 -13.9 -66.15 -25.0 -56.45 -52.6 -30.65 -55.65 -26.35 -56.7 12.5 -58.8 27.1 -59.6 33.0 -57.95 39.05 -56.4 45.45 -49.05 M-56.7 -30.6 Q-61.8 -22.8 -63.2 -9.25 -64.0 -1.75 -64.0 19.2 -64.0 23.9 -58.45 50.05 L-23.65 51.1 Q4.1 51.1 27.95 46.85 L49.1 42.6 50.2 42.7 48.75 32.15 Q46.25 13.05 42.45 -0.75 29.2 -48.65 -1.5 -48.65 -24.75 -48.65 -38.2 -44.0 -50.75 -39.7 -56.7 -30.6" fill="#000000" fill-rule="evenodd" stroke="none"/>
      <path d="M-56.7 -30.6 Q-50.75 -39.7 -38.2 -44.0 -24.75 -48.65 -1.5 -48.65 29.2 -48.65 42.45 -0.75 46.25 13.05 48.75 32.15 L50.2 42.7 49.1 42.6 27.95 46.85 Q4.1 51.1 -23.65 51.1 L-58.45 50.05 Q-64.0 23.9 -64.0 19.2 -64.0 -1.75 -63.2 -9.25 -61.8 -22.8 -56.7 -30.6 M-33.75 1.35 L-19.25 -1.65 Q-12.0 -2.4 -4.9 -3.9 7.2 -6.9 15.55 -6.45 L18.85 -6.35 Q19.6 -6.5 19.6 -7.8 19.6 -8.85 19.15 -9.1 17.05 -10.15 8.6 -10.15 -0.95 -10.15 -25.5 -5.9 -51.25 -1.4 -51.25 1.1 -51.25 3.6 -51.0 2.6 -49.75 3.85 -47.25 3.85 -44.8 3.85 -33.75 1.35 M-38.1 -19.55 L-43.3 -19.6 Q-44.25 -19.4 -44.25 -17.9 -44.25 -15.4 -44.0 -16.4 -43.6 -16.0 -43.55 -15.5 -43.3 -15.15 -41.75 -15.15 3.6 -15.15 3.6 -20.8 L3.35 -22.4 3.1 -22.65 -0.4 -23.15 Q-23.75 -19.25 -38.1 -19.55" fill="#c4c4c4" fill-rule="evenodd" stroke="none"/>
    </g>
  </defs>
</svg>
