<?xml version="1.0" encoding="UTF-8" standalone="no"?>
<svg xmlns:xlink="http://www.w3.org/1999/xlink" height="149.35px" width="236.25px" xmlns="http://www.w3.org/2000/svg">
  <g transform="matrix(1, 0, 0, 1, 155.3, 26.35)">
    <use height="140.55" transform="matrix(1.0, 0.0, 0.0, 1.0, -56.15, -17.55)" width="104.1" xlink:href="#shape0"/>
  </g>
  <defs>
    <g id="shape0" transform="matrix(1, 0, 0, 1, 56.15, 17.55)">
      <path d="M37.85 -4.7 Q39.0 -2.65 40.25 -1.7 L39.55 1.05 Q38.15 8.75 36.45 10.3 24.7 21.05 24.7 28.25 24.7 31.15 27.35 34.55 30.0 37.95 30.0 42.75 30.0 48.2 24.5 54.5 22.5 56.75 12.35 66.0 4.05 73.6 0.2 79.3 -5.3 87.55 -5.3 96.4 -5.3 97.4 -4.3 100.25 -2.9 104.3 -0.55 107.7 2.55 112.2 6.65 114.75 L0.95 115.5 Q-9.2 115.5 -20.15 106.5 -24.45 102.95 -27.25 99.2 -30.0 95.55 -30.0 93.45 -30.0 81.35 -20.2 70.1 L-13.5 62.25 Q-10.45 58.05 -10.45 54.25 -10.45 49.75 -16.45 46.35 L-29.7 40.5 Q-38.65 36.6 -43.0 32.05 -49.0 25.8 -49.0 16.35 -49.0 12.35 -45.75 4.55 L-44.0 0.4 Q-42.8 0.05 -42.25 -1.1 L-40.8 -4.75 Q-37.9 -10.05 -24.9 -10.05 -11.5 -10.05 -4.15 -7.45 3.15 -4.85 11.15 -4.85 15.5 -4.85 20.4 -6.6 25.3 -8.4 34.55 -8.4 35.85 -8.4 37.85 -4.7" fill="#ffffff" fill-opacity="0.5921569" fill-rule="evenodd" stroke="none"/>
      <path d="M37.85 -4.7 Q35.85 -8.4 34.55 -8.4 25.3 -8.4 20.4 -6.6 15.5 -4.85 11.15 -4.85 3.15 -4.85 -4.15 -7.45 -11.5 -10.05 -24.9 -10.05 -37.9 -10.05 -40.8 -4.75 L-42.25 -1.1 Q-42.8 0.05 -44.0 0.4 L-45.75 4.55 Q-49.0 12.35 -49.0 16.35 -49.0 25.8 -43.0 32.05 -38.65 36.6 -29.7 40.5 L-16.45 46.35 Q-10.45 49.75 -10.45 54.25 -10.45 58.05 -13.5 62.25 L-20.2 70.1 Q-30.0 81.35 -30.0 93.45 -30.0 95.55 -27.25 99.2 -24.45 102.95 -20.15 106.5 -9.2 115.5 0.95 115.5 L6.65 114.75 Q2.55 112.2 -0.55 107.7 -2.9 104.3 -4.3 100.25 -5.3 97.4 -5.3 96.4 -5.3 87.55 0.2 79.3 4.05 73.6 12.35 66.0 22.5 56.75 24.5 54.5 30.0 48.2 30.0 42.75 30.0 37.95 27.35 34.55 24.7 31.15 24.7 28.25 24.7 21.05 36.45 10.3 38.15 8.75 39.55 1.05 L40.25 -1.7 Q39.0 -2.65 37.85 -4.7 M20.25 -14.0 Q24.5 -15.65 30.95 -15.65 39.0 -15.65 43.2 -10.6 45.3 -8.1 45.8 -5.3 L45.8 -5.05 Q48.65 -3.95 47.7 1.4 47.7 9.4 39.7 17.9 35.7 21.9 34.2 23.6 31.7 26.35 31.7 28.1 L34.5 34.35 Q37.25 40.7 37.25 42.25 37.25 48.65 31.75 56.15 28.35 60.75 19.6 69.45 10.7 78.25 7.4 82.65 1.9 90.05 1.9 96.3 1.9 102.6 13.05 108.25 L20.7 111.9 Q24.2 113.65 24.2 114.8 24.2 117.6 21.25 118.15 19.65 119.1 16.9 120.2 9.65 123.0 0.95 123.0 -15.25 123.0 -27.6 109.9 -31.95 105.25 -34.8 99.95 -37.25 95.5 -37.25 93.55 -37.25 81.0 -27.75 68.3 L-21.2 60.2 Q-18.25 56.45 -18.25 54.7 -18.25 54.1 -24.15 50.85 -32.4 46.35 -37.2 43.05 -56.15 30.1 -56.15 16.6 -53.05 -0.2 -49.5 -5.15 -48.95 -8.75 -43.95 -12.3 -36.65 -17.55 -24.45 -17.55 -11.25 -17.55 -2.95 -14.95 5.35 -12.35 10.65 -12.35 16.0 -12.35 20.25 -14.0" fill="#000000" fill-opacity="0.5921569" fill-rule="evenodd" stroke="none"/>
    </g>
  </defs>
</svg>
