<?xml version="1.0" encoding="UTF-8" standalone="no"?>
<svg xmlns:xlink="http://www.w3.org/1999/xlink" height="278.95px" width="282.3px" xmlns="http://www.w3.org/2000/svg">
  <g transform="matrix(1, 0, 0, 1, 122.85, 260.35)">
    <use height="58.55" transform="matrix(1.0, 0.0, 0.0, 1.0, -52.0, -231.15)" width="138.65" xlink:href="#shape0"/>
  </g>
  <defs>
    <g id="shape0" transform="matrix(1, 0, 0, 1, 52.0, 231.15)">
      <path d="M55.0 -222.9 Q50.75 -222.9 50.3 -226.75 50.7 -228.4 53.5 -229.8 56.3 -231.2 71.5 -231.15 86.65 -231.15 86.65 -228.3 86.65 -226.8 72.9 -224.75 70.7 -224.45 70.5 -223.85 74.25 -191.65 71.15 -180.4 69.35 -174.8 65.6 -174.75 59.55 -177.5 58.6 -189.55 57.6 -201.65 59.5 -223.1 L55.0 -222.9 M-48.1 -214.25 Q-21.1 -217.65 -5.2 -214.7 L-5.05 -213.15 Q-5.05 -211.5 -24.3 -207.25 -25.85 -172.7 -29.55 -172.6 -34.0 -172.55 -36.25 -179.0 -37.2 -182.15 -38.35 -204.3 L-46.15 -202.95 Q-49.15 -202.95 -50.6 -204.4 -54.3 -208.15 -48.1 -214.25" fill="#000000" fill-rule="evenodd" stroke="none"/>
    </g>
  </defs>
</svg>
