<?xml version="1.0" encoding="UTF-8" standalone="no"?>
<svg xmlns:xlink="http://www.w3.org/1999/xlink" height="278.95px" width="282.3px" xmlns="http://www.w3.org/2000/svg">
  <g transform="matrix(1, 0, 0, 1, 122.85, 260.35)">
    <use height="51.15" transform="matrix(1.0, 0.0, 0.0, 1.0, -53.85, -232.65)" width="139.35" xlink:href="#shape0"/>
  </g>
  <defs>
    <g id="shape0" transform="matrix(1, 0, 0, 1, 53.85, 232.65)">
      <path d="M52.2 -200.95 Q47.7 -188.55 43.5 -188.55 L41.05 -188.95 39.3 -189.9 39.15 -192.6 Q39.15 -195.8 46.55 -213.8 54.3 -232.65 57.0 -232.65 64.8 -232.65 75.9 -215.95 79.45 -210.6 82.8 -204.35 L85.5 -198.9 Q85.5 -197.15 85.3 -196.9 L84.9 -195.9 Q84.15 -194.4 81.15 -194.4 79.1 -194.4 70.4 -205.7 60.6 -218.5 59.1 -219.75 57.7 -217.2 55.7 -211.25 L52.2 -200.95 M-36.45 -225.6 Q-28.95 -225.6 -6.15 -192.3 -6.15 -187.35 -10.5 -187.35 -12.6 -187.35 -22.05 -197.9 L-34.35 -211.8 -41.1 -194.95 Q-46.4 -181.5 -49.35 -181.5 -53.85 -181.5 -53.85 -186.45 -53.85 -189.65 -45.95 -207.6 -38.0 -225.6 -36.45 -225.6" fill="#000000" fill-rule="evenodd" stroke="none"/>
    </g>
  </defs>
</svg>
