<?xml version="1.0" encoding="UTF-8" standalone="no"?>
<svg xmlns:xlink="http://www.w3.org/1999/xlink" height="278.95px" width="282.3px" xmlns="http://www.w3.org/2000/svg">
  <g transform="matrix(1, 0, 0, 1, 122.85, 260.35)">
    <use height="61.55" transform="matrix(1.0, 0.0, 0.0, 1.0, -114.95, -222.9)" width="198.95" xlink:href="#shape0"/>
  </g>
  <defs>
    <g id="shape0" transform="matrix(1, 0, 0, 1, 114.95, 222.9)">
      <path d="M76.5 -202.6 Q78.1 -202.6 79.1 -204.0 80.0 -205.25 80.0 -206.85 80.0 -208.35 79.2 -209.6 78.3 -210.95 76.85 -211.05 L77.2 -215.05 Q80.15 -214.75 82.15 -212.3 84.0 -209.95 84.0 -206.85 84.0 -203.95 82.45 -201.75 80.8 -199.35 78.05 -198.75 83.85 -193.85 83.85 -186.2 83.85 -179.45 79.1 -174.6 74.35 -169.8 67.55 -169.8 60.8 -169.8 56.05 -174.6 51.3 -179.45 51.3 -186.2 51.3 -193.7 56.95 -198.65 L51.3 -198.65 51.3 -202.6 76.5 -202.6 M76.05 -195.1 Q72.5 -198.65 67.55 -198.65 62.6 -198.65 59.15 -195.1 55.6 -191.65 55.6 -186.65 55.6 -181.7 59.15 -178.2 62.6 -174.7 67.55 -174.7 72.5 -174.7 76.05 -178.2 79.5 -181.7 79.5 -186.65 79.5 -191.65 76.05 -195.1 M65.6 -189.0 Q66.4 -189.85 67.55 -189.85 68.75 -189.85 69.55 -189.0 70.4 -188.2 70.4 -187.05 70.4 -185.85 69.55 -185.05 68.75 -184.2 67.55 -184.2 66.4 -184.2 65.6 -185.05 64.75 -185.85 64.75 -187.05 64.75 -188.2 65.6 -189.0 M-113.7 -194.3 L-113.7 -195.1 -87.7 -195.1 -87.7 -221.15 -85.1 -221.15 -85.1 -220.75 -85.1 -192.55 -113.7 -192.55 -113.7 -194.3 M-81.85 -221.15 L-79.95 -221.15 -79.95 -195.1 -53.95 -195.1 -53.95 -193.3 -53.95 -192.55 -82.55 -192.55 -82.55 -221.15 -81.85 -221.15 M-53.95 -189.35 L-53.95 -187.4 -79.95 -187.4 -79.95 -161.35 -82.55 -161.35 -82.55 -163.35 -82.55 -189.95 -53.95 -189.95 -53.95 -189.35 M-85.1 -168.35 L-85.1 -161.35 -87.7 -161.35 -87.7 -187.4 -113.7 -187.4 -113.7 -189.95 -113.15 -189.95 -85.1 -189.95 -85.1 -168.35 M-46.45 -198.65 L-46.45 -202.6 -21.25 -202.6 Q-19.65 -202.6 -18.65 -204.0 -17.75 -205.25 -17.75 -206.85 -17.75 -208.35 -18.55 -209.6 -19.45 -210.95 -20.9 -211.05 L-20.55 -215.05 Q-17.6 -214.75 -15.6 -212.3 -13.75 -209.95 -13.75 -206.85 -13.75 -203.95 -15.3 -201.75 -16.95 -199.35 -19.7 -198.75 -13.9 -193.85 -13.9 -186.2 -13.9 -179.45 -18.65 -174.6 -23.4 -169.8 -30.2 -169.8 -36.95 -169.8 -41.7 -174.6 -46.45 -179.45 -46.45 -186.2 -46.45 -193.7 -40.8 -198.65 L-46.45 -198.65 M-27.35 -187.05 Q-27.35 -185.85 -28.2 -185.05 -29.0 -184.2 -30.2 -184.2 -31.35 -184.2 -32.15 -185.05 -33.0 -185.85 -33.0 -187.05 -33.0 -188.2 -32.15 -189.0 -31.35 -189.85 -30.2 -189.85 -29.0 -189.85 -28.2 -189.0 -27.35 -188.2 -27.35 -187.05 M-21.7 -178.2 Q-18.25 -181.7 -18.25 -186.65 -18.25 -191.65 -21.7 -195.1 -25.25 -198.65 -30.2 -198.65 -35.15 -198.65 -38.6 -195.1 -42.15 -191.65 -42.15 -186.65 -42.15 -181.7 -38.6 -178.2 -35.15 -174.7 -30.2 -174.7 -25.25 -174.7 -21.7 -178.2" fill="#000000" fill-rule="evenodd" stroke="none"/>
      <path d="M65.6 -189.0 Q64.75 -188.2 64.75 -187.05 64.75 -185.85 65.6 -185.05 66.4 -184.2 67.55 -184.2 68.75 -184.2 69.55 -185.05 70.4 -185.85 70.4 -187.05 70.4 -188.2 69.55 -189.0 68.75 -189.85 67.55 -189.85 66.4 -189.85 65.6 -189.0 M76.05 -195.1 Q79.5 -191.65 79.5 -186.65 79.5 -181.7 76.05 -178.2 72.5 -174.7 67.55 -174.7 62.6 -174.7 59.15 -178.2 55.6 -181.7 55.6 -186.65 55.6 -191.65 59.15 -195.1 62.6 -198.65 67.55 -198.65 72.5 -198.65 76.05 -195.1 M-85.1 -220.75 Q-84.4 -222.9 -83.4 -222.9 -82.5 -222.9 -81.85 -221.15 L-82.55 -221.15 -82.55 -192.55 -53.95 -192.55 -53.95 -193.3 Q-53.4 -194.7 -53.4 -191.85 L-53.1 -190.05 Q-53.15 -189.65 -53.95 -189.35 L-53.95 -189.95 -82.55 -189.95 -82.55 -163.35 -83.4 -162.9 Q-84.45 -165.3 -85.1 -168.35 L-85.1 -189.95 -113.15 -189.95 -114.3 -190.2 -114.45 -189.95 -114.6 -192.0 Q-114.6 -192.7 -114.95 -193.6 -114.9 -194.05 -113.7 -194.3 L-113.7 -192.55 -85.1 -192.55 -85.1 -220.75 M-21.7 -178.2 Q-25.25 -174.7 -30.2 -174.7 -35.15 -174.7 -38.6 -178.2 -42.15 -181.7 -42.15 -186.65 -42.15 -191.65 -38.6 -195.1 -35.15 -198.65 -30.2 -198.65 -25.25 -198.65 -21.7 -195.1 -18.25 -191.65 -18.25 -186.65 -18.25 -181.7 -21.7 -178.2 M-27.35 -187.05 Q-27.35 -188.2 -28.2 -189.0 -29.0 -189.85 -30.2 -189.85 -31.35 -189.85 -32.15 -189.0 -33.0 -188.2 -33.0 -187.05 -33.0 -185.85 -32.15 -185.05 -31.35 -184.2 -30.2 -184.2 -29.0 -184.2 -28.2 -185.05 -27.35 -185.85 -27.35 -187.05" fill="#ffffff" fill-rule="evenodd" stroke="none"/>
    </g>
  </defs>
</svg>
