<?xml version="1.0" encoding="UTF-8" standalone="no"?>
<svg xmlns:xlink="http://www.w3.org/1999/xlink" height="278.95px" width="282.3px" xmlns="http://www.w3.org/2000/svg">
  <g transform="matrix(1, 0, 0, 1, 122.85, 260.35)">
    <use height="40.2" transform="matrix(1.0, 0.0, 0.0, 1.0, -51.45, -214.8)" width="138.35" xlink:href="#shape0"/>
  </g>
  <defs>
    <g id="shape0" transform="matrix(1, 0, 0, 1, 51.45, 214.8)">
      <path d="M62.25 -208.0 L62.15 -207.35 62.1 -206.9 58.85 -191.15 58.3 -189.55 Q56.95 -186.2 55.35 -184.6 53.9 -183.1 52.7 -183.1 51.4 -183.1 50.8 -183.75 49.3 -185.2 48.55 -187.05 47.7 -189.15 47.7 -191.65 47.7 -199.6 53.1 -205.0 57.1 -209.0 62.5 -210.25 L62.25 -208.0 M-41.25 -205.0 Q-37.25 -209.0 -31.85 -210.25 -33.3 -197.35 -35.65 -190.6 -37.15 -186.4 -38.95 -184.6 -40.4 -183.1 -41.65 -183.1 -42.95 -183.1 -43.55 -183.75 L-45.15 -185.8 -45.2 -185.85 Q-46.55 -188.1 -46.65 -191.0 L-46.65 -191.15 -46.65 -191.25 -46.65 -191.4 -46.65 -191.5 -46.65 -191.65 Q-46.65 -199.6 -41.25 -205.0" fill="#01982e" fill-rule="evenodd" stroke="none"/>
      <path d="M67.85 -210.35 Q65.35 -195.65 62.65 -187.9 60.75 -182.4 58.75 -180.35 56.0 -177.7 53.1 -177.7 L51.8 -177.75 Q49.35 -178.1 47.9 -179.55 42.85 -184.6 42.85 -192.05 42.85 -201.25 49.35 -207.7 56.45 -214.85 66.65 -214.8 75.8 -214.85 81.05 -209.6 86.85 -203.8 86.9 -195.8 86.85 -187.25 81.5 -181.85 L81.35 -181.7 Q77.9 -178.35 71.2 -175.2 L70.65 -174.95 70.5 -175.1 66.25 -179.35 Q70.5 -180.7 73.7 -182.7 75.95 -184.1 77.7 -185.8 81.7 -189.8 81.7 -195.45 81.7 -202.1 77.35 -206.5 74.0 -209.8 67.85 -210.35 L67.3 -208.55 67.85 -210.35 M62.25 -208.0 L62.5 -210.25 Q57.1 -209.0 53.1 -205.0 47.7 -199.6 47.7 -191.65 47.7 -189.15 48.55 -187.05 49.3 -185.2 50.8 -183.75 51.4 -183.1 52.7 -183.1 53.9 -183.1 55.35 -184.6 56.95 -186.2 58.3 -189.55 L58.85 -191.15 62.1 -206.9 62.15 -207.35 62.25 -208.0 M-41.65 -177.7 Q-44.45 -177.8 -46.15 -179.3 L-46.45 -179.55 Q-51.45 -184.6 -51.45 -192.05 -51.45 -201.25 -45.0 -207.7 -37.9 -214.85 -27.7 -214.8 -18.5 -214.85 -13.25 -209.6 -7.45 -203.8 -7.45 -195.8 -7.45 -187.25 -12.85 -181.85 -16.45 -178.3 -23.7 -174.95 L-23.75 -175.05 -28.05 -179.35 Q-24.55 -180.5 -21.75 -182.0 -18.8 -183.65 -16.65 -185.8 -12.65 -189.8 -12.65 -195.45 -12.65 -202.1 -17.0 -206.5 -20.3 -209.8 -26.45 -210.35 -28.65 -197.15 -31.05 -189.5 -33.25 -182.75 -35.6 -180.35 -38.35 -177.7 -41.25 -177.7 L-41.65 -177.7 M-41.25 -205.0 Q-46.65 -199.6 -46.65 -191.65 L-46.65 -191.5 -46.65 -191.4 -46.65 -191.25 -46.65 -191.15 -46.65 -191.0 Q-46.55 -188.1 -45.2 -185.85 L-45.15 -185.8 -43.55 -183.75 Q-42.95 -183.1 -41.65 -183.1 -40.4 -183.1 -38.95 -184.6 -37.15 -186.4 -35.65 -190.6 -33.3 -197.35 -31.85 -210.25 -37.25 -209.0 -41.25 -205.0" fill="#000000" fill-rule="evenodd" stroke="none"/>
      <path d="M51.8 -177.75 L53.1 -177.7 Q56.0 -177.7 58.75 -180.35 60.75 -182.4 62.65 -187.9 65.35 -195.65 67.85 -210.35 74.0 -209.8 77.35 -206.5 81.7 -202.1 81.7 -195.45 81.7 -189.8 77.7 -185.8 75.95 -184.1 73.7 -182.7 70.5 -180.7 66.25 -179.35 L70.5 -175.1 Q59.8 -173.4 51.8 -177.75 M-41.65 -177.7 L-41.25 -177.7 Q-38.35 -177.7 -35.6 -180.35 -33.25 -182.75 -31.05 -189.5 -28.65 -197.15 -26.45 -210.35 -20.3 -209.8 -17.0 -206.5 -12.65 -202.1 -12.65 -195.45 -12.65 -189.8 -16.65 -185.8 -18.8 -183.65 -21.75 -182.0 -24.55 -180.5 -28.05 -179.35 L-23.75 -175.05 Q-32.0 -173.65 -41.65 -177.7" fill="#ffffff" fill-rule="evenodd" stroke="none"/>
    </g>
  </defs>
</svg>
