<?xml version="1.0" encoding="UTF-8" standalone="no"?>
<svg xmlns:xlink="http://www.w3.org/1999/xlink" height="228.25px" width="250.6px" xmlns="http://www.w3.org/2000/svg">
  <g transform="matrix(1, 0, 0, 1, 130.7, 221.95)">
    <use height="94.5" transform="matrix(1.0, 0.0, 0.0, 1.0, -66.1, -135.75)" width="115.85" xlink:href="#shape0"/>
    <use height="88.95" transform="matrix(1.0, 0.0, 0.0, 1.0, -65.1, -136.85)" width="114.45" xlink:href="#shape1"/>
  </g>
  <defs>
    <g id="shape0" transform="matrix(1, 0, 0, 1, 66.1, 135.75)">
      <path d="M32.75 -50.75 Q33.35 -51.6 34.55 -52.25 L35.75 -52.8 Q38.1 -53.75 42.1 -54.25 41.0 -59.35 32.35 -76.7 L29.0 -83.3 22.05 -96.7 22.3 -96.35 Q18.95 -103.05 16.8 -108.0 L15.3 -111.5 Q12.95 -117.1 10.3 -124.4 L10.2 -124.6 9.3 -126.05 8.75 -126.9 7.25 -130.6 Q9.7 -136.1 12.15 -130.6 37.1 -87.9 41.65 -76.7 46.1 -65.65 49.6 -54.4 L49.75 -50.9 Q49.7 -49.05 48.85 -48.0 46.65 -45.25 36.35 -45.25 32.1 -45.25 32.1 -48.75 32.1 -49.85 32.75 -50.75 M27.2 -101.45 L27.35 -102.0 27.2 -102.2 27.2 -101.8 27.2 -101.45 M25.15 -104.8 L25.0 -105.0 25.1 -104.8 25.15 -104.8 M-49.25 -49.7 Q-46.25 -49.3 -46.25 -45.5 -46.25 -43.15 -47.2 -42.5 -49.0 -41.25 -55.5 -41.25 -63.95 -41.25 -65.7 -45.1 -66.25 -46.35 -66.05 -47.85 L-65.75 -49.25 Q-65.75 -50.2 -63.65 -57.85 -61.2 -66.6 -58.5 -74.75 L-57.35 -78.15 Q-53.8 -88.55 -35.2 -131.25 L-32.0 -135.75 Q-28.25 -135.75 -28.25 -131.5 -28.25 -129.05 -32.3 -122.3 L-32.3 -121.9 -32.45 -121.25 Q-34.3 -114.8 -36.6 -108.4 -39.25 -101.05 -41.2 -97.75 L-41.2 -97.7 -47.3 -80.6 -49.4 -75.15 -49.8 -74.1 Q-57.05 -56.05 -58.25 -49.5 L-58.25 -49.0 -58.2 -49.0 -50.0 -49.75 -49.25 -49.7" fill="#000000" fill-rule="evenodd" stroke="none"/>
      <path d="M9.3 -126.05 L10.2 -124.6 10.3 -124.4 Q12.95 -117.1 15.3 -111.5 L16.8 -108.0 Q18.95 -103.05 22.3 -96.35 L22.05 -96.7 29.0 -83.3 32.35 -76.7 Q41.0 -59.35 42.1 -54.25 38.1 -53.75 35.75 -52.8 L34.55 -52.25 Q33.35 -51.6 32.75 -50.75 21.5 -86.15 16.4 -99.95 L16.05 -100.9 14.9 -107.55 11.85 -116.6 Q9.65 -123.05 9.3 -126.05 M-32.45 -121.25 L-32.25 -120.6 -32.3 -118.1 Q-32.3 -115.75 -37.8 -98.45 -40.75 -89.2 -42.65 -84.6 L-44.7 -74.1 -45.75 -68.5 -49.25 -49.7 -50.0 -49.75 -58.2 -49.0 -58.25 -49.5 Q-57.05 -56.05 -49.8 -74.1 L-49.4 -75.15 -47.3 -80.6 -41.2 -97.7 -41.2 -97.75 Q-39.25 -101.05 -36.6 -108.4 -34.3 -114.8 -32.45 -121.25" fill="#fff1dd" fill-rule="evenodd" stroke="none"/>
    </g>
    <g id="shape1" transform="matrix(1, 0, 0, 1, 65.1, 136.85)">
      <path d="M7.3 -135.4 Q7.6 -135.8 8.1 -135.8 8.65 -136.0 9.5 -135.45 L11.9 -132.95 Q14.65 -129.4 19.75 -120.85 29.8 -103.95 49.1 -67.3 L49.2 -67.05 Q50.1 -63.95 45.1 -61.0 36.45 -56.0 30.05 -55.5 22.95 -54.7 16.2 -84.55 9.7 -113.3 6.4 -123.7 4.7 -129.15 4.85 -131.85 5.0 -135.15 7.3 -135.4 M29.75 -63.2 Q36.2 -63.4 41.8 -67.3 38.2 -72.7 27.3 -94.8 18.1 -113.3 12.7 -121.85 16.05 -106.1 20.0 -91.3 20.35 -89.9 29.75 -63.2 M-33.3 -123.3 L-33.3 -123.35 -33.3 -123.3 -33.15 -124.4 -33.45 -123.85 Q-36.35 -118.9 -42.9 -102.75 -55.45 -72.1 -58.5 -66.15 -52.4 -59.7 -48.75 -56.5 -42.45 -76.0 -38.15 -98.2 L-33.3 -123.3 M-26.15 -133.6 L-28.85 -113.45 Q-31.05 -97.4 -36.7 -72.85 -42.55 -47.35 -48.3 -47.9 -53.65 -48.05 -64.9 -64.8 L-65.1 -65.25 -65.0 -65.7 Q-35.9 -135.9 -31.9 -136.65 -28.15 -137.55 -26.3 -134.2 L-26.15 -133.6" fill="#000000" fill-rule="evenodd" stroke="none"/>
      <path d="M29.75 -63.2 Q20.35 -89.9 20.0 -91.3 16.05 -106.1 12.7 -121.85 18.1 -113.3 27.3 -94.8 38.2 -72.7 41.8 -67.3 36.2 -63.4 29.75 -63.2 M-33.3 -123.3 L-38.15 -98.2 Q-42.45 -76.0 -48.75 -56.5 -52.4 -59.7 -58.5 -66.15 -55.45 -72.1 -42.9 -102.75 -36.35 -118.9 -33.45 -123.85 L-33.15 -124.4 -33.3 -123.3" fill="#4b4c7f" fill-rule="evenodd" stroke="none"/>
      <path d="M-33.3 -123.3 L-33.3 -123.35 -33.3 -123.3" fill="#ffffff" fill-rule="evenodd" stroke="none"/>
    </g>
  </defs>
</svg>
