<?xml version="1.0" encoding="UTF-8" standalone="no"?>
<svg xmlns:xlink="http://www.w3.org/1999/xlink" height="228.25px" width="250.6px" xmlns="http://www.w3.org/2000/svg">
  <g transform="matrix(1, 0, 0, 1, 130.7, 221.95)">
    <use height="94.4" transform="matrix(1.0, 0.0, 0.0, 1.0, -63.9, -135.8)" width="112.35" xlink:href="#shape0"/>
    <use height="56.2" transform="matrix(1.0, 0.0, 0.0, 1.0, -58.6, -137.75)" width="95.15" xlink:href="#shape1"/>
  </g>
  <defs>
    <g id="shape0" transform="matrix(1, 0, 0, 1, 63.9, 135.8)">
      <path d="M7.25 -129.85 Q9.7 -135.35 12.15 -129.85 36.55 -86.7 43.3 -70.0 L46.95 -59.75 Q47.9 -56.45 48.25 -54.05 49.35 -46.3 45.0 -44.45 39.6 -42.15 36.35 -44.5 29.85 -49.35 24.7 -59.75 20.45 -68.3 17.15 -80.65 9.8 -108.0 7.0 -127.0 7.0 -129.05 7.3 -129.6 L7.35 -129.6 7.25 -129.85 M25.15 -104.05 L25.0 -104.25 25.1 -104.05 25.15 -104.05 M27.35 -101.25 L27.2 -101.45 27.2 -101.05 27.2 -100.7 27.35 -101.25 M20.65 -105.45 Q16.15 -112.85 12.5 -119.9 14.55 -107.35 17.2 -95.3 19.85 -83.25 25.5 -69.7 27.8 -64.25 30.45 -59.75 34.25 -53.2 38.8 -48.85 41.55 -46.2 44.15 -50.25 45.6 -52.5 42.85 -59.75 41.5 -63.25 39.15 -67.95 31.9 -82.35 28.55 -90.2 25.15 -98.05 20.65 -105.45 M-35.2 -131.25 L-32.0 -135.75 Q-25.7 -137.35 -34.75 -82.05 -36.9 -70.1 -42.35 -50.95 -45.0 -41.8 -51.8 -41.4 -56.05 -41.2 -60.45 -44.0 -65.05 -46.9 -63.55 -58.25 L-58.5 -74.75 -57.35 -78.15 Q-53.8 -88.55 -35.2 -131.25 M-33.6 -122.8 Q-38.2 -114.05 -50.5 -80.95 -62.85 -47.95 -57.7 -47.1 -56.7 -45.75 -52.85 -46.45 -48.6 -47.25 -46.45 -52.25 -44.35 -57.25 -43.05 -63.05 -41.75 -68.9 -37.75 -92.45 -33.75 -116.0 -33.8 -118.35 L-33.8 -121.05 -33.6 -122.8" fill="#000000" fill-rule="evenodd" stroke="none"/>
      <path d="M20.65 -105.45 Q25.15 -98.05 28.55 -90.2 31.9 -82.35 39.15 -67.95 41.5 -63.25 42.85 -59.75 45.6 -52.5 44.15 -50.25 41.55 -46.2 38.8 -48.85 34.25 -53.2 30.45 -59.75 27.8 -64.25 25.5 -69.7 19.85 -83.25 17.2 -95.3 14.55 -107.35 12.5 -119.9 16.15 -112.85 20.65 -105.45 M-33.6 -122.8 L-33.8 -121.05 -33.8 -118.35 Q-33.75 -116.0 -37.75 -92.45 -41.75 -68.9 -43.05 -63.05 -44.35 -57.25 -46.45 -52.25 -48.6 -47.25 -52.85 -46.45 -56.7 -45.75 -57.7 -47.1 -62.85 -47.95 -50.5 -80.95 -38.2 -114.05 -33.6 -122.8" fill="#fff1dd" fill-rule="evenodd" stroke="none"/>
    </g>
    <g id="shape1" transform="matrix(1, 0, 0, 1, 58.6, 137.75)">
      <path d="M32.55 -101.65 Q37.3 -90.85 30.65 -89.7 28.65 -84.15 21.35 -85.2 12.85 -80.6 11.55 -89.0 1.8 -117.7 9.95 -132.3 29.0 -110.2 32.55 -101.65 27.65 -89.1 11.55 -89.0 27.65 -89.1 32.55 -101.65" fill="#002255" fill-rule="evenodd" stroke="none"/>
      <path d="M-54.6 -102.95 Q-51.05 -112.1 -32.0 -135.75 -23.85 -120.1 -33.6 -89.4 -49.7 -89.5 -54.6 -102.95 -49.7 -89.5 -33.6 -89.4 -34.9 -80.4 -43.4 -85.35 -50.7 -84.2 -52.7 -90.15 -59.35 -91.4 -54.6 -102.95" fill="#770000" fill-rule="evenodd" stroke="none"/>
      <path d="M32.55 -101.65 Q37.3 -90.85 30.65 -89.7 28.65 -84.15 21.35 -85.2 12.85 -80.6 11.55 -89.0 1.8 -117.7 9.95 -132.3 29.0 -110.2 32.55 -101.65 27.65 -89.1 11.55 -89.0 M-33.6 -89.4 Q-23.85 -120.1 -32.0 -135.75 -51.05 -112.1 -54.6 -102.95 -49.7 -89.5 -33.6 -89.4 -34.9 -80.4 -43.4 -85.35 -50.7 -84.2 -52.7 -90.15 -59.35 -91.4 -54.6 -102.95" fill="none" stroke="#000000" stroke-linecap="round" stroke-linejoin="round" stroke-width="4.0"/>
      <path d="M22.25 -107.95 L25.2 -99.75 18.15 -95.45 13.2 -100.7 22.25 -107.95" fill="none" stroke="#000000" stroke-linecap="round" stroke-linejoin="round" stroke-opacity="0.5019608" stroke-width="0.05"/>
      <path d="M18.9 -96.6 L19.0 -96.5 19.25 -95.55 19.1 -94.9 18.8 -94.5 Q18.35 -94.15 17.75 -94.15 17.15 -94.15 16.7 -94.6 L16.65 -94.7 16.6 -94.75 Q16.3 -95.15 16.35 -95.65 L16.5 -96.25 16.55 -96.35 16.85 -96.7 Q17.25 -97.1 17.85 -97.05 L18.9 -96.6" fill="#fdf9f4" fill-rule="evenodd" stroke="none"/>
      <path d="M18.9 -96.6 L19.0 -96.5 19.25 -95.55 19.1 -94.9 18.8 -94.5 Q18.35 -94.15 17.75 -94.15 17.15 -94.15 16.7 -94.6 L16.65 -94.7 16.6 -94.75 Q16.3 -95.15 16.35 -95.65 L16.5 -96.25 16.55 -96.35 16.85 -96.7 Q17.25 -97.1 17.85 -97.05 L18.9 -96.6" fill="none" stroke="#010101" stroke-linecap="round" stroke-linejoin="round" stroke-opacity="0.0" stroke-width="1.0"/>
      <path d="M14.3 -101.95 L14.4 -101.85 14.65 -100.9 14.5 -100.25 14.2 -99.85 Q13.75 -99.5 13.15 -99.5 12.55 -99.5 12.1 -99.95 L12.05 -100.05 12.0 -100.1 Q11.7 -100.5 11.75 -101.0 L11.9 -101.6 11.95 -101.7 12.25 -102.05 Q12.65 -102.45 13.25 -102.4 L14.3 -101.95" fill="#fdf9f4" fill-rule="evenodd" stroke="none"/>
      <path d="M14.3 -101.95 L14.4 -101.85 14.65 -100.9 14.5 -100.25 14.2 -99.85 Q13.75 -99.5 13.15 -99.5 12.55 -99.5 12.1 -99.95 L12.05 -100.05 12.0 -100.1 Q11.7 -100.5 11.75 -101.0 L11.9 -101.6 11.95 -101.7 12.25 -102.05 Q12.65 -102.45 13.25 -102.4 L14.3 -101.95" fill="none" stroke="#010101" stroke-linecap="round" stroke-linejoin="round" stroke-opacity="0.0" stroke-width="1.0"/>
      <path d="M26.35 -100.85 L26.45 -100.75 26.7 -99.8 26.55 -99.15 26.25 -98.75 Q25.8 -98.4 25.2 -98.4 24.6 -98.4 24.15 -98.85 L24.1 -98.95 24.05 -99.0 Q23.75 -99.4 23.8 -99.9 L23.95 -100.5 24.0 -100.6 24.3 -100.95 25.3 -101.3 Q25.95 -101.3 26.35 -100.85" fill="#fdf9f4" fill-rule="evenodd" stroke="none"/>
      <path d="M26.35 -100.85 L26.45 -100.75 26.7 -99.8 26.55 -99.15 26.25 -98.75 Q25.8 -98.4 25.2 -98.4 24.6 -98.4 24.15 -98.85 L24.1 -98.95 24.05 -99.0 Q23.75 -99.4 23.8 -99.9 L23.95 -100.5 24.0 -100.6 24.3 -100.95 25.3 -101.3 Q25.95 -101.3 26.35 -100.85" fill="none" stroke="#010101" stroke-linecap="round" stroke-linejoin="round" stroke-opacity="0.0" stroke-width="1.0"/>
      <path d="M23.15 -108.3 L23.25 -108.2 23.5 -107.25 23.35 -106.6 23.05 -106.2 Q22.6 -105.85 22.0 -105.85 21.4 -105.85 20.95 -106.3 L20.9 -106.4 20.85 -106.45 Q20.55 -106.85 20.6 -107.35 L20.75 -107.95 20.8 -108.05 21.1 -108.4 Q21.5 -108.8 22.1 -108.75 22.75 -108.75 23.15 -108.3" fill="#fdf9f4" fill-rule="evenodd" stroke="none"/>
      <path d="M23.15 -108.3 L23.25 -108.2 23.5 -107.25 23.35 -106.6 23.05 -106.2 Q22.6 -105.85 22.0 -105.85 21.4 -105.85 20.95 -106.3 L20.9 -106.4 20.85 -106.45 Q20.55 -106.85 20.6 -107.35 L20.75 -107.95 20.8 -108.05 21.1 -108.4 Q21.5 -108.8 22.1 -108.75 22.75 -108.75 23.15 -108.3" fill="none" stroke="#010101" stroke-linecap="round" stroke-linejoin="round" stroke-opacity="0.0" stroke-width="1.0"/>
    </g>
  </defs>
</svg>
