<?xml version="1.0" encoding="UTF-8" standalone="no"?>
<svg xmlns:xlink="http://www.w3.org/1999/xlink" height="228.25px" width="250.6px" xmlns="http://www.w3.org/2000/svg">
  <g transform="matrix(1, 0, 0, 1, 130.7, 221.95)">
    <use height="94.4" transform="matrix(1.0, 0.0, 0.0, 1.0, -63.9, -135.8)" width="112.35" xlink:href="#shape0"/>
    <use height="52.9" transform="matrix(1.0, 0.0, 0.0, 1.0, -68.75, -88.45)" width="120.85" xlink:href="#shape1"/>
  </g>
  <defs>
    <g id="shape0" transform="matrix(1, 0, 0, 1, 63.9, 135.8)">
      <path d="M7.3 -129.6 L7.35 -129.6 7.25 -129.85 Q9.7 -135.35 12.15 -129.85 36.55 -86.7 43.3 -70.0 L46.95 -59.75 Q47.9 -56.45 48.25 -54.05 49.35 -46.3 45.0 -44.45 39.6 -42.15 36.35 -44.5 29.85 -49.35 24.7 -59.75 20.45 -68.3 17.15 -80.65 9.8 -108.0 7.0 -127.0 7.0 -129.05 7.3 -129.6 M25.0 -104.25 L25.1 -104.05 25.15 -104.05 25.0 -104.25 M27.2 -100.7 L27.35 -101.25 27.2 -101.45 27.2 -101.05 27.2 -100.7 M20.65 -105.45 Q16.15 -112.85 12.5 -119.9 14.55 -107.35 17.2 -95.3 19.85 -83.25 25.5 -69.7 27.8 -64.25 30.45 -59.75 34.25 -53.2 38.8 -48.85 41.55 -46.2 44.15 -50.25 45.6 -52.5 42.85 -59.75 41.5 -63.25 39.15 -67.95 31.9 -82.35 28.55 -90.2 25.15 -98.05 20.65 -105.45 M-33.8 -121.05 L-33.6 -122.8 Q-38.2 -114.05 -50.5 -80.95 -62.85 -47.95 -57.7 -47.1 -56.7 -45.75 -52.85 -46.45 -48.6 -47.25 -46.45 -52.25 -44.35 -57.25 -43.05 -63.05 -41.75 -68.9 -37.75 -92.45 -33.75 -116.0 -33.8 -118.35 L-33.8 -121.05 M-35.2 -131.25 L-32.0 -135.75 Q-25.7 -137.35 -34.75 -82.05 -36.9 -70.1 -42.35 -50.95 -45.0 -41.8 -51.8 -41.4 -56.05 -41.2 -60.45 -44.0 -65.05 -46.9 -63.55 -58.25 L-58.5 -74.75 -57.35 -78.15 Q-53.8 -88.55 -35.2 -131.25" fill="#000000" fill-rule="evenodd" stroke="none"/>
      <path d="M20.65 -105.45 Q25.15 -98.05 28.55 -90.2 31.9 -82.35 39.15 -67.95 41.5 -63.25 42.85 -59.75 45.6 -52.5 44.15 -50.25 41.55 -46.2 38.8 -48.85 34.25 -53.2 30.45 -59.75 27.8 -64.25 25.5 -69.7 19.85 -83.25 17.2 -95.3 14.55 -107.35 12.5 -119.9 16.15 -112.85 20.65 -105.45 M-33.8 -121.05 L-33.8 -118.35 Q-33.75 -116.0 -37.75 -92.45 -41.75 -68.9 -43.05 -63.05 -44.35 -57.25 -46.45 -52.25 -48.6 -47.25 -52.85 -46.45 -56.7 -45.75 -57.7 -47.1 -62.85 -47.95 -50.5 -80.95 -38.2 -114.05 -33.6 -122.8 L-33.8 -121.05" fill="#fff1dd" fill-rule="evenodd" stroke="none"/>
    </g>
    <g id="shape1" transform="matrix(1, 0, 0, 1, 68.75, 88.45)">
      <path d="M45.0 -68.55 Q46.35 -67.95 48.5 -58.35 50.75 -48.5 48.95 -46.7 44.95 -42.7 39.4 -42.7 33.8 -42.7 29.85 -46.7 27.5 -49.0 26.55 -51.85 L28.25 -58.2 Q20.4 -63.5 19.4 -78.25 L39.55 -86.1 45.0 -68.55 M-56.2 -81.3 L-36.15 -75.15 -43.2 -53.4 Q-42.75 -48.4 -43.2 -47.05 -44.15 -44.2 -46.5 -41.9 -50.45 -37.9 -56.05 -37.9 -61.6 -37.9 -65.6 -41.9 -67.4 -43.7 -65.15 -53.55 -63.0 -63.15 -61.65 -63.75 L-56.2 -81.3 M-43.2 -47.05 L-43.2 -53.4 -43.2 -47.05" fill="#663300" fill-rule="evenodd" stroke="none"/>
      <path d="M45.0 -68.55 L39.55 -86.1 19.4 -78.25 Q20.4 -63.5 28.25 -58.2 L26.55 -51.85 Q27.5 -49.0 29.85 -46.7 33.8 -42.7 39.4 -42.7 44.95 -42.7 48.95 -46.7 50.75 -48.5 48.5 -58.35 46.35 -67.95 45.0 -68.55 M-56.2 -81.3 L-36.15 -75.15 -43.2 -53.4 Q-42.75 -48.4 -43.2 -47.05 -44.15 -44.2 -46.5 -41.9 -50.45 -37.9 -56.05 -37.9 -61.6 -37.9 -65.6 -41.9 -67.4 -43.7 -65.15 -53.55 -63.0 -63.15 -61.65 -63.75 L-56.2 -81.3 M-43.2 -53.4 L-43.2 -47.05" fill="none" stroke="#000000" stroke-linecap="round" stroke-linejoin="round" stroke-width="4.75"/>
    </g>
  </defs>
</svg>
