<?xml version="1.0" encoding="UTF-8" standalone="no"?>
<svg xmlns:xlink="http://www.w3.org/1999/xlink" height="228.25px" width="250.6px" xmlns="http://www.w3.org/2000/svg">
  <g transform="matrix(1, 0, 0, 1, 130.7, 221.95)">
    <use height="25.6" transform="matrix(1.0, 0.0, 0.0, 1.0, -124.55, -139.65)" width="226.45" xlink:href="#shape0"/>
    <use height="43.75" transform="matrix(1.0, 0.0, 0.0, 1.0, -108.7, -141.5)" width="194.4" xlink:href="#shape1"/>
  </g>
  <defs>
    <g id="shape0" transform="matrix(1, 0, 0, 1, 124.55, 139.65)">
      <path d="M101.9 -128.6 Q101.95 -122.75 98.55 -120.65 87.85 -114.2 70.9 -114.05 L28.3 -115.75 Q2.65 -117.6 7.8 -130.1 8.7 -130.55 10.5 -130.6 55.75 -136.3 74.6 -136.65 L77.65 -136.7 Q88.75 -136.65 94.25 -135.25 101.8 -133.35 101.9 -128.6 M91.5 -122.3 Q98.6 -124.95 96.3 -129.1 93.95 -133.3 77.95 -132.1 L72.55 -131.7 53.4 -130.75 Q44.85 -130.6 36.3 -129.2 27.7 -127.85 13.35 -127.45 10.8 -121.85 28.1 -120.2 L55.3 -119.0 74.8 -119.5 Q84.35 -119.65 91.5 -122.3 M39.0 -132.75 L39.25 -132.8 39.25 -132.85 39.0 -132.75 M42.85 -133.6 L43.15 -133.45 42.7 -133.8 42.45 -133.75 42.85 -133.6 M-32.95 -131.15 L-27.8 -129.25 Q-15.85 -117.8 -46.3 -116.1 -76.75 -114.5 -86.85 -115.15 L-109.5 -116.5 Q-122.15 -117.15 -123.75 -122.55 -125.35 -128.0 -123.8 -132.95 -122.2 -138.15 -110.8 -139.65 L-93.6 -139.05 -90.0 -138.8 -86.3 -138.5 -84.9 -138.35 Q-70.75 -136.85 -32.95 -131.15 M-34.5 -127.75 L-63.35 -131.1 -82.75 -133.2 -99.1 -134.0 Q-111.7 -134.3 -113.3 -133.7 -118.95 -131.65 -118.4 -127.9 -117.6 -122.4 -112.2 -121.6 L-100.85 -121.1 Q-96.95 -121.25 -85.7 -120.75 -74.5 -120.2 -56.05 -120.6 -37.65 -121.0 -33.95 -123.1 -30.25 -125.2 -30.55 -125.95 -30.9 -126.7 -34.5 -127.75" fill="#000000" fill-rule="evenodd" stroke="none"/>
      <path d="M91.5 -122.3 Q84.35 -119.65 74.8 -119.5 L55.3 -119.0 28.1 -120.2 Q10.8 -121.85 13.35 -127.45 27.7 -127.85 36.3 -129.2 44.85 -130.6 53.4 -130.75 L72.55 -131.7 77.95 -132.1 Q93.95 -133.3 96.3 -129.1 98.6 -124.95 91.5 -122.3 M-34.5 -127.75 Q-30.9 -126.7 -30.55 -125.95 -30.25 -125.2 -33.95 -123.1 -37.65 -121.0 -56.05 -120.6 -74.5 -120.2 -85.7 -120.75 -96.95 -121.25 -100.85 -121.1 L-112.2 -121.6 Q-117.6 -122.4 -118.4 -127.9 -118.95 -131.65 -113.3 -133.7 -111.7 -134.3 -99.1 -134.0 L-82.75 -133.2 -63.35 -131.1 -34.5 -127.75" fill="#fff1dd" fill-rule="evenodd" stroke="none"/>
    </g>
    <g id="shape1" transform="matrix(1, 0, 0, 1, 108.7, 141.5)">
      <path d="M32.55 -118.5 Q40.1 -124.65 34.9 -130.55 L79.9 -136.25 Q87.95 -113.25 76.3 -100.25 L32.55 -118.5 M76.85 -126.65 Q77.05 -128.95 76.1 -130.75 77.05 -128.95 76.85 -126.65 M76.3 -115.6 Q77.55 -118.05 77.05 -120.85 77.55 -118.05 76.3 -115.6 M73.4 -105.3 Q74.15 -106.45 75.15 -109.9 74.15 -106.45 73.4 -105.3 M-55.6 -117.0 L-101.55 -105.3 Q-111.25 -119.85 -100.8 -139.0 L-57.0 -132.15 Q-62.2 -124.2 -55.6 -117.0 M-99.55 -119.1 Q-100.45 -121.7 -99.5 -124.4 -100.45 -121.7 -99.55 -119.1 M-98.45 -130.75 Q-98.3 -133.0 -97.1 -134.65 -98.3 -133.0 -98.45 -130.75 M-96.3 -108.65 Q-98.0 -109.2 -98.45 -112.75 -98.0 -109.2 -96.3 -108.65" fill="#ffffff" fill-rule="evenodd" stroke="none"/>
      <path d="M32.55 -118.5 L76.3 -100.25 Q87.95 -113.25 79.9 -136.25 L34.9 -130.55 Q40.1 -124.65 32.55 -118.5 M-55.6 -117.0 L-101.55 -105.3 Q-111.25 -119.85 -100.8 -139.0 L-57.0 -132.15 Q-62.2 -124.2 -55.6 -117.0" fill="none" stroke="#000000" stroke-linecap="round" stroke-linejoin="round" stroke-width="5.0"/>
      <path d="M75.15 -109.9 Q74.15 -106.45 73.4 -105.3 M77.05 -120.85 Q77.55 -118.05 76.3 -115.6 M76.1 -130.75 Q77.05 -128.95 76.85 -126.65 M-98.45 -112.75 Q-98.0 -109.2 -96.3 -108.65 M-97.1 -134.65 Q-98.3 -133.0 -98.45 -130.75 M-99.5 -124.4 Q-100.45 -121.7 -99.55 -119.1" fill="none" stroke="#ff0000" stroke-linecap="round" stroke-linejoin="round" stroke-width="2.0"/>
    </g>
  </defs>
</svg>
