<?xml version="1.0" encoding="UTF-8" standalone="no"?>
<svg xmlns:xlink="http://www.w3.org/1999/xlink" height="228.25px" width="250.6px" xmlns="http://www.w3.org/2000/svg">
  <g transform="matrix(1, 0, 0, 1, 130.7, 221.95)">
    <use height="95.5" transform="matrix(1.0, 0.0, 0.0, 1.0, -69.75, -135.75)" width="127.35" xlink:href="#shape0"/>
  </g>
  <defs>
    <g id="shape0" transform="matrix(1, 0, 0, 1, 69.75, 135.75)">
      <path d="M47.85 -74.45 L48.35 -73.85 47.55 -73.35 47.65 -73.8 47.85 -74.45 M-44.25 -69.85 L-43.8 -69.95 -44.15 -69.0 -44.25 -69.65 -44.25 -69.85 M-48.0 -62.45 L-48.25 -62.35 -48.5 -62.3 -48.55 -62.3 -48.0 -62.45" fill="#ffffff" fill-rule="evenodd" stroke="none"/>
      <path d="M44.25 -78.65 Q37.15 -87.05 27.1 -99.9 L20.35 -108.7 30.95 -76.95 32.85 -71.1 34.6 -65.75 34.7 -65.5 35.5 -66.05 40.45 -69.05 47.55 -73.35 48.35 -73.85 47.85 -74.45 44.25 -78.65 M32.65 -55.85 L32.5 -55.85 31.9 -56.0 Q29.35 -56.6 29.25 -59.1 25.05 -66.4 18.25 -89.9 13.3 -106.95 9.25 -124.2 L9.3 -125.05 Q7.25 -128.8 7.25 -130.45 7.25 -135.35 11.0 -135.35 13.55 -135.35 21.85 -122.55 30.95 -107.9 33.75 -104.1 36.4 -100.5 48.15 -86.2 57.6 -74.65 57.6 -73.7 57.6 -71.55 45.9 -63.7 48.1 -60.05 50.6 -52.6 50.6 -44.85 40.35 -44.85 34.0 -44.85 32.5 -46.9 31.75 -47.9 32.25 -49.1 L32.45 -50.55 Q33.0 -51.35 34.5 -51.95 35.7 -52.5 37.6 -52.85 L42.35 -52.85 Q41.6 -55.2 39.65 -58.4 L39.1 -59.3 36.1 -57.45 Q35.4 -56.25 33.65 -55.95 L33.5 -55.85 33.0 -55.85 32.65 -55.85 M-48.7 -49.05 Q-47.25 -48.15 -47.25 -45.85 -47.25 -43.5 -50.25 -41.8 -53.0 -40.25 -56.0 -40.25 -63.75 -40.25 -66.0 -44.4 -67.15 -46.5 -66.75 -48.85 -66.75 -51.65 -64.5 -57.5 L-62.6 -61.5 -64.5 -64.3 Q-68.25 -70.35 -69.75 -76.6 -69.75 -78.7 -51.2 -107.0 -32.45 -135.75 -30.0 -135.75 L-28.15 -135.3 Q-27.6 -135.75 -27.0 -135.75 -24.7 -135.75 -23.75 -133.75 -23.25 -132.7 -23.25 -131.5 -23.25 -119.15 -31.25 -87.25 -37.15 -63.85 -41.4 -56.55 L-41.25 -55.85 Q-41.25 -53.65 -43.3 -52.75 -44.35 -52.25 -45.5 -52.25 L-48.35 -52.45 Q-52.6 -53.05 -56.25 -55.45 L-59.0 -49.25 -55.15 -49.1 -51.5 -49.75 Q-49.75 -49.75 -48.7 -49.05 M-43.8 -69.95 L-41.2 -77.15 Q-36.2 -92.4 -35.65 -96.8 L-33.4 -118.05 -43.85 -102.95 -56.6 -84.45 -59.55 -79.75 -59.9 -79.15 Q-61.5 -76.4 -61.5 -75.6 -61.5 -72.05 -55.6 -67.25 L-55.6 -67.3 -54.95 -66.75 -54.6 -66.5 -51.85 -64.5 -51.35 -64.2 -48.55 -62.3 -48.5 -62.3 -48.25 -62.35 -48.0 -62.45 Q-46.55 -63.25 -44.15 -69.0 L-43.8 -69.95" fill="#000000" fill-rule="evenodd" stroke="none"/>
      <path d="M30.95 -76.95 L41.95 -72.75 44.25 -78.65 47.85 -74.45 47.65 -73.8 47.55 -73.35 40.45 -69.05 35.5 -66.05 34.6 -65.75 32.85 -71.1 30.95 -76.95 M-56.6 -84.45 L-56.55 -83.8 -56.55 -79.55 -56.55 -75.65 -52.95 -75.75 -48.2 -75.5 -47.0 -75.75 Q-46.35 -75.75 -45.85 -75.0 L-45.15 -74.65 Q-44.85 -74.45 -44.85 -73.4 L-44.9 -72.8 -44.25 -69.85 -44.25 -69.65 -44.15 -69.0 Q-46.55 -63.25 -48.0 -62.45 L-48.55 -62.3 -51.35 -64.2 -51.85 -64.5 -54.6 -66.5 -54.95 -66.75 -55.6 -67.3 -55.6 -67.25 Q-61.5 -72.05 -61.5 -75.6 -61.5 -76.4 -59.9 -79.15 L-59.55 -79.75 -56.6 -84.45" fill="#fe7878" fill-rule="evenodd" stroke="none"/>
      <path d="M34.5 -51.95 Q33.05 -53.4 32.65 -55.85 L33.0 -55.85 33.5 -55.85 33.65 -55.95 Q35.4 -56.25 36.1 -57.45 L39.1 -59.3 39.65 -58.4 Q41.6 -55.2 42.35 -52.85 L37.6 -52.85 Q35.7 -52.5 34.5 -51.95 M-48.35 -52.45 Q-48.35 -50.2 -48.7 -49.05 -49.75 -49.75 -51.5 -49.75 L-55.15 -49.1 -59.0 -49.25 -56.25 -55.45 Q-52.6 -53.05 -48.35 -52.45" fill="#fff1dd" fill-rule="evenodd" stroke="none"/>
      <path d="M30.95 -76.95 L20.35 -108.7 27.1 -99.9 Q37.15 -87.05 44.25 -78.65 L41.95 -72.75 30.95 -76.95 M-56.6 -84.45 L-43.85 -102.95 -33.4 -118.05 -35.65 -96.8 Q-36.2 -92.4 -41.2 -77.15 L-43.8 -69.95 -44.25 -69.85 -44.9 -72.8 -44.85 -73.4 Q-44.85 -74.45 -45.15 -74.65 L-45.85 -75.0 Q-46.35 -75.75 -47.0 -75.75 L-48.2 -75.5 -52.95 -75.75 -56.55 -75.65 -56.55 -79.55 -56.55 -83.8 -56.6 -84.45" fill="#222222" fill-rule="evenodd" stroke="none"/>
    </g>
  </defs>
</svg>
