<?xml version="1.0" encoding="UTF-8" standalone="no"?>
<svg xmlns:xlink="http://www.w3.org/1999/xlink" height="228.25px" width="250.6px" xmlns="http://www.w3.org/2000/svg">
  <g transform="matrix(1, 0, 0, 1, 130.7, 221.95)">
    <use height="94.4" transform="matrix(1.0, 0.0, 0.0, 1.0, -63.9, -135.8)" width="112.35" xlink:href="#shape0"/>
    <use height="91.55" transform="matrix(1.0, 0.0, 0.0, 1.0, -59.2, -137.75)" width="103.85" xlink:href="#shape1"/>
  </g>
  <defs>
    <g id="shape0" transform="matrix(1, 0, 0, 1, 63.9, 135.8)">
      <path d="M7.35 -129.6 L7.25 -129.85 Q9.7 -135.35 12.15 -129.85 36.55 -86.7 43.3 -70.0 L46.95 -59.75 Q47.9 -56.45 48.25 -54.05 49.35 -46.3 45.0 -44.45 39.6 -42.15 36.35 -44.5 29.85 -49.35 24.7 -59.75 20.45 -68.3 17.15 -80.65 9.8 -108.0 7.0 -127.0 7.0 -129.05 7.3 -129.6 L7.35 -129.6 M25.15 -104.05 L25.0 -104.25 25.1 -104.05 25.15 -104.05 M27.2 -101.45 L27.2 -101.05 27.2 -100.7 27.35 -101.25 27.2 -101.45 M20.65 -105.45 Q16.15 -112.85 12.5 -119.9 14.55 -107.35 17.2 -95.3 19.85 -83.25 25.5 -69.7 27.8 -64.25 30.45 -59.75 34.25 -53.2 38.8 -48.85 41.55 -46.2 44.15 -50.25 45.6 -52.5 42.85 -59.75 41.5 -63.25 39.15 -67.95 31.9 -82.35 28.55 -90.2 25.15 -98.05 20.65 -105.45 M-35.2 -131.25 L-32.0 -135.75 Q-25.7 -137.35 -34.75 -82.05 -36.9 -70.1 -42.35 -50.95 -45.0 -41.8 -51.8 -41.4 -56.05 -41.2 -60.45 -44.0 -65.05 -46.9 -63.55 -58.25 L-58.5 -74.75 -57.35 -78.15 Q-53.8 -88.55 -35.2 -131.25 M-33.6 -122.8 Q-38.2 -114.05 -50.5 -80.95 -62.85 -47.95 -57.7 -47.1 -56.7 -45.75 -52.85 -46.45 -48.6 -47.25 -46.45 -52.25 -44.35 -57.25 -43.05 -63.05 -41.75 -68.9 -37.75 -92.45 -33.75 -116.0 -33.8 -118.35 L-33.8 -121.05 -33.6 -122.8" fill="#000000" fill-rule="evenodd" stroke="none"/>
      <path d="M20.65 -105.45 Q25.15 -98.05 28.55 -90.2 31.9 -82.35 39.15 -67.95 41.5 -63.25 42.85 -59.75 45.6 -52.5 44.15 -50.25 41.55 -46.2 38.8 -48.85 34.25 -53.2 30.45 -59.75 27.8 -64.25 25.5 -69.7 19.85 -83.25 17.2 -95.3 14.55 -107.35 12.5 -119.9 16.15 -112.85 20.65 -105.45 M-33.6 -122.8 L-33.8 -121.05 -33.8 -118.35 Q-33.75 -116.0 -37.75 -92.45 -41.75 -68.9 -43.05 -63.05 -44.35 -57.25 -46.45 -52.25 -48.6 -47.25 -52.85 -46.45 -56.7 -45.75 -57.7 -47.1 -62.85 -47.95 -50.5 -80.95 -38.2 -114.05 -33.6 -122.8" fill="#fff1dd" fill-rule="evenodd" stroke="none"/>
    </g>
    <g id="shape1" transform="matrix(1, 0, 0, 1, 59.2, 137.75)">
      <path d="M7.4 -125.3 Q8.2 -129.15 9.95 -132.3 L12.3 -130.3 Q37.65 -108.05 31.25 -98.85 L30.35 -97.4 Q29.0 -95.45 27.25 -93.9 23.8 -90.95 18.75 -89.8 L15.1 -89.2 14.0 -89.1 Q4.45 -111.5 7.4 -125.3 M-52.85 -99.15 L-52.85 -99.2 Q-58.05 -110.6 -32.0 -135.75 -30.3 -132.5 -29.4 -128.6 -26.5 -115.55 -32.7 -95.15 L-34.6 -89.4 -38.2 -89.75 Q-42.75 -90.4 -46.2 -92.4 -48.55 -93.8 -50.4 -95.8 -51.8 -97.3 -52.85 -99.15" fill="#57005a" fill-rule="evenodd" stroke="none"/>
      <path d="M12.3 -130.3 L9.95 -132.3 Q8.2 -129.15 7.4 -125.3 L7.0 -127.75 Q7.0 -129.8 7.3 -130.35 L7.35 -130.35 7.25 -130.6 Q9.7 -136.1 12.15 -130.6 L12.3 -130.3 M-32.0 -135.75 Q-29.6 -136.35 -29.4 -128.6 -30.3 -132.5 -32.0 -135.75" fill="#000000" fill-rule="evenodd" stroke="none"/>
      <path d="M22.65 -77.8 Q27.9 -77.2 33.15 -80.9 L36.75 -73.55 39.15 -68.7 Q46.35 -54.3 44.15 -51.0 41.55 -46.95 38.8 -49.6 31.15 -56.95 25.5 -70.45 L24.25 -73.55 22.65 -77.8 M-40.2 -78.1 Q-42.2 -66.85 -43.05 -63.05 -44.35 -57.25 -46.45 -52.25 -48.6 -47.25 -52.85 -46.45 -56.7 -45.75 -57.7 -47.1 -62.8 -47.9 -50.65 -80.5 L-50.5 -80.95 -50.25 -81.55 Q-46.05 -78.75 -40.2 -78.1" fill="#ffffff" fill-rule="evenodd" stroke="none"/>
      <path d="M7.4 -125.3 Q8.2 -129.15 9.95 -132.3 L12.3 -130.3 M7.4 -125.3 Q4.45 -111.5 14.0 -89.1 L15.1 -89.2 18.75 -89.8 Q23.8 -90.95 27.25 -93.9 29.0 -95.45 30.35 -97.4 L31.25 -98.85 Q37.65 -108.05 12.3 -130.3 M-52.85 -99.2 Q-58.05 -110.6 -32.0 -135.75 -30.3 -132.5 -29.4 -128.6 -26.5 -115.55 -32.7 -95.15 L-34.6 -89.4 -38.2 -89.75 Q-42.75 -90.4 -46.2 -92.4 -48.55 -93.8 -50.4 -95.8 -51.8 -97.3 -52.85 -99.15" fill="none" stroke="#000000" stroke-linecap="round" stroke-linejoin="round" stroke-width="4.0"/>
      <path d="M33.15 -80.9 L34.9 -82.3 M22.65 -77.8 L21.7 -77.95 M22.65 -77.8 Q27.9 -77.2 33.15 -80.9 M-40.2 -78.1 L-38.1 -77.95 M-40.2 -78.1 Q-46.05 -78.75 -50.25 -81.55" fill="none" stroke="#000000" stroke-linecap="round" stroke-linejoin="round" stroke-width="5.0"/>
    </g>
  </defs>
</svg>
