<?xml version="1.0" encoding="UTF-8" standalone="no"?>
<svg xmlns:xlink="http://www.w3.org/1999/xlink" height="228.25px" width="250.6px" xmlns="http://www.w3.org/2000/svg">
  <g transform="matrix(1, 0, 0, 1, 130.7, 221.95)">
    <use height="94.4" transform="matrix(1.0, 0.0, 0.0, 1.0, -63.9, -135.8)" width="112.35" xlink:href="#shape0"/>
    <use height="81.85" transform="matrix(1.0, 0.0, 0.0, 1.0, -63.6, -131.75)" width="110.25" xlink:href="#shape1"/>
  </g>
  <defs>
    <g id="shape0" transform="matrix(1, 0, 0, 1, 63.9, 135.8)">
      <path d="M7.35 -129.6 L7.25 -129.85 Q9.7 -135.35 12.15 -129.85 36.55 -86.7 43.3 -70.0 L46.95 -59.75 Q47.9 -56.45 48.25 -54.05 49.35 -46.3 45.0 -44.45 39.6 -42.15 36.35 -44.5 29.85 -49.35 24.7 -59.75 20.45 -68.3 17.15 -80.65 9.8 -108.0 7.0 -127.0 7.0 -129.05 7.3 -129.6 L7.35 -129.6 M25.15 -104.05 L25.0 -104.25 25.1 -104.05 25.15 -104.05 M27.2 -101.45 L27.2 -101.05 27.2 -100.7 27.35 -101.25 27.2 -101.45 M20.65 -105.45 Q16.15 -112.85 12.5 -119.9 14.55 -107.35 17.2 -95.3 19.85 -83.25 25.5 -69.7 27.8 -64.25 30.45 -59.75 34.25 -53.2 38.8 -48.85 41.55 -46.2 44.15 -50.25 45.6 -52.5 42.85 -59.75 41.5 -63.25 39.15 -67.95 31.9 -82.35 28.55 -90.2 25.15 -98.05 20.65 -105.45 M-35.2 -131.25 L-32.0 -135.75 Q-25.7 -137.35 -34.75 -82.05 -36.9 -70.1 -42.35 -50.95 -45.0 -41.8 -51.8 -41.4 -56.05 -41.2 -60.45 -44.0 -65.05 -46.9 -63.55 -58.25 L-58.5 -74.75 -57.35 -78.15 Q-53.8 -88.55 -35.2 -131.25 M-33.6 -122.8 Q-38.2 -114.05 -50.5 -80.95 -62.85 -47.95 -57.7 -47.1 -56.7 -45.75 -52.85 -46.45 -48.6 -47.25 -46.45 -52.25 -44.35 -57.25 -43.05 -63.05 -41.75 -68.9 -37.75 -92.45 -33.75 -116.0 -33.8 -118.35 L-33.8 -121.05 -33.6 -122.8" fill="#000000" fill-rule="evenodd" stroke="none"/>
      <path d="M20.65 -105.45 Q25.15 -98.05 28.55 -90.2 31.9 -82.35 39.15 -67.95 41.5 -63.25 42.85 -59.75 45.6 -52.5 44.15 -50.25 41.55 -46.2 38.8 -48.85 34.25 -53.2 30.45 -59.75 27.8 -64.25 25.5 -69.7 19.85 -83.25 17.2 -95.3 14.55 -107.35 12.5 -119.9 16.15 -112.85 20.65 -105.45 M-33.6 -122.8 L-33.8 -121.05 -33.8 -118.35 Q-33.75 -116.0 -37.75 -92.45 -41.75 -68.9 -43.05 -63.05 -44.35 -57.25 -46.45 -52.25 -48.6 -47.25 -52.85 -46.45 -56.7 -45.75 -57.7 -47.1 -62.85 -47.95 -50.5 -80.95 -38.2 -114.05 -33.6 -122.8" fill="#fff1dd" fill-rule="evenodd" stroke="none"/>
    </g>
    <g id="shape1" transform="matrix(1, 0, 0, 1, 63.6, 131.75)">
      <path d="M44.9 -62.55 Q40.15 -55.15 30.15 -54.05 L27.35 -58.9 Q36.8 -60.5 42.65 -68.6 L44.9 -62.55 M-59.15 -68.65 Q-51.8 -59.3 -42.15 -57.25 L-43.65 -51.65 Q-54.65 -52.85 -61.85 -63.1 L-59.15 -68.65" fill="#333333" fill-rule="evenodd" stroke="none"/>
      <path d="M44.9 -62.55 Q40.15 -55.15 30.15 -54.05 L27.35 -58.9 Q36.8 -60.5 42.65 -68.6 L44.9 -62.55 M-59.15 -68.65 Q-51.8 -59.3 -42.15 -57.25 L-43.65 -51.65 Q-54.65 -52.85 -61.85 -63.1 L-59.15 -68.65" fill="none" stroke="#000000" stroke-linecap="round" stroke-linejoin="round" stroke-width="3.5"/>
      <path d="M29.0 -123.0 L29.7 -123.2 35.2 -114.25 25.5 -113.9 25.2 -114.85 24.55 -114.8 25.2 -114.85 25.5 -113.9 28.45 -104.8 18.3 -106.9 18.3 -107.0 17.9 -107.05 17.2 -95.85 8.3 -101.25 8.35 -101.3 7.75 -101.65 Q13.75 -103.75 17.95 -107.55 L17.9 -107.45 17.6 -107.1 17.75 -107.1 17.9 -107.05 17.9 -107.45 18.0 -107.55 24.45 -114.8 24.55 -114.8 Q27.6 -118.3 29.0 -123.0 M17.8 -103.8 L18.15 -104.15 18.15 -103.75 17.8 -103.8 M12.25 -101.5 L15.15 -99.55 15.25 -102.95 15.05 -103.0 12.25 -101.5 M28.0 -116.3 L31.5 -116.25 29.7 -119.2 29.5 -119.1 28.0 -116.3 M21.95 -108.5 L25.35 -107.65 24.25 -110.9 24.05 -110.85 21.95 -108.5 M-27.9 -103.25 L-28.45 -102.8 -28.4 -102.75 -36.45 -96.2 -38.7 -107.2 -39.1 -107.05 -39.1 -106.95 -48.85 -103.5 -47.2 -112.9 -56.85 -111.9 -52.65 -121.55 -51.95 -121.45 Q-49.95 -116.95 -46.4 -113.95 L-46.3 -113.95 -38.85 -107.65 Q-34.2 -104.5 -27.9 -103.25 M-38.85 -107.65 L-38.8 -107.6 -38.7 -107.2 -38.6 -107.25 -38.4 -107.3 -38.8 -107.6 -38.85 -107.65 M-47.2 -112.9 L-47.05 -113.85 -46.4 -113.95 -47.05 -113.85 -47.2 -112.9 M-42.95 -108.05 L-45.35 -110.1 -45.55 -110.1 -46.15 -106.7 -42.95 -108.05 M-52.1 -117.55 L-53.45 -114.4 -50.05 -114.9 -51.9 -117.5 -52.1 -117.55 M-32.35 -102.5 Q-33.9 -102.9 -35.3 -103.6 L-35.55 -103.5 -34.95 -100.1 -32.35 -102.5 M-38.5 -103.85 L-38.6 -104.3 -38.2 -103.95 -38.5 -103.85" fill="#ffffff" fill-rule="evenodd" stroke="none"/>
      <path d="M29.0 -123.0 Q27.6 -118.3 24.55 -114.8 L24.45 -114.8 18.0 -107.55 17.95 -107.55 Q13.75 -103.75 7.75 -101.65 L6.2 -128.65 Q16.4 -124.95 29.0 -123.0 M-51.95 -121.45 Q-39.75 -125.15 -30.15 -130.25 L-27.9 -103.25 Q-34.2 -104.5 -38.85 -107.65 L-46.3 -113.95 -46.4 -113.95 Q-49.95 -116.95 -51.95 -121.45" fill="#d1b7af" fill-rule="evenodd" stroke="none"/>
      <path d="M-51.95 -121.45 Q-39.75 -125.15 -30.15 -130.25 L-27.9 -103.25" fill="none" stroke="#000000" stroke-linecap="round" stroke-linejoin="round" stroke-width="3.0"/>
      <path d="M-52.1 -117.55 L-51.9 -117.5 -50.05 -114.9 -53.45 -114.4 -52.1 -117.55" fill="none" stroke="#000000" stroke-linecap="round" stroke-linejoin="round" stroke-width="1.0"/>
      <path d="M25.5 -113.9 L35.2 -114.25 29.7 -123.2 29.0 -123.0 Q27.6 -118.3 24.55 -114.8 L25.2 -114.85 25.5 -113.9 28.45 -104.8 18.3 -106.9 18.3 -107.0 17.9 -107.05 17.2 -95.85 8.3 -101.25 8.35 -101.3 7.75 -101.65 M17.9 -107.05 L17.75 -107.1 17.6 -107.1 17.9 -107.45 17.95 -107.55 Q13.75 -103.75 7.75 -101.65 M18.0 -107.55 L17.9 -107.45 17.9 -107.05 M18.0 -107.55 L24.45 -114.8 24.55 -114.8 M17.75 -107.1 L17.9 -107.45 M-27.9 -103.25 L-28.45 -102.8 -28.4 -102.75 -36.45 -96.2 -38.7 -107.2 -39.1 -107.05 -39.1 -106.95 -48.85 -103.5 -47.2 -112.9 -56.85 -111.9 -52.65 -121.55 -51.95 -121.45 Q-49.95 -116.95 -46.4 -113.95 L-47.05 -113.85 -47.2 -112.9 M-27.9 -103.25 Q-34.2 -104.5 -38.85 -107.65 L-38.8 -107.6 -38.4 -107.3 -38.6 -107.25 -38.7 -107.2 -38.8 -107.6 -38.85 -107.65 -46.3 -113.95 -46.4 -113.95 M-38.6 -107.25 L-38.8 -107.6" fill="none" stroke="#000000" stroke-linecap="round" stroke-linejoin="round" stroke-width="2.0"/>
      <path d="M12.25 -101.5 L15.15 -99.55 15.25 -102.95 15.05 -103.0 12.25 -101.5 M28.0 -116.3 L31.5 -116.25 29.7 -119.2 29.5 -119.1 28.0 -116.3 M21.95 -108.5 L25.35 -107.65 24.25 -110.9 24.05 -110.85 21.95 -108.5 M-42.95 -108.05 L-46.15 -106.7 -45.55 -110.1 -45.35 -110.1 -42.95 -108.05 M-32.35 -102.5 L-34.95 -100.1 -35.55 -103.5 -35.3 -103.6 Q-33.9 -102.9 -32.35 -102.5" fill="none" stroke="#000000" stroke-linecap="round" stroke-linejoin="round" stroke-width="1.0"/>
      <path d="M7.75 -101.65 L6.2 -128.65 Q16.4 -124.95 29.0 -123.0" fill="none" stroke="#000000" stroke-linecap="round" stroke-linejoin="round" stroke-width="3.0"/>
    </g>
  </defs>
</svg>
