<?xml version="1.0" encoding="UTF-8" standalone="no"?>
<svg xmlns:xlink="http://www.w3.org/1999/xlink" height="228.25px" width="250.6px" xmlns="http://www.w3.org/2000/svg">
  <g transform="matrix(1, 0, 0, 1, 130.7, 221.95)">
    <use height="94.4" transform="matrix(1.0, 0.0, 0.0, 1.0, -63.9, -135.8)" width="112.35" xlink:href="#shape0"/>
    <use height="94.8" transform="matrix(1.0, 0.0, 0.0, 1.0, -70.35, -137.9)" width="123.75" xlink:href="#shape1"/>
  </g>
  <defs>
    <g id="shape0" transform="matrix(1, 0, 0, 1, 63.9, 135.8)">
      <path d="M7.35 -129.6 L7.25 -129.85 Q9.7 -135.35 12.15 -129.85 36.55 -86.7 43.3 -70.0 L46.95 -59.75 Q47.9 -56.45 48.25 -54.05 49.35 -46.3 45.0 -44.45 39.6 -42.15 36.35 -44.5 29.85 -49.35 24.7 -59.75 20.45 -68.3 17.15 -80.65 9.8 -108.0 7.0 -127.0 7.0 -129.05 7.3 -129.6 L7.35 -129.6 M25.15 -104.05 L25.0 -104.25 25.1 -104.05 25.15 -104.05 M27.2 -101.45 L27.2 -101.05 27.2 -100.7 27.35 -101.25 27.2 -101.45 M20.65 -105.45 Q16.15 -112.85 12.5 -119.9 14.55 -107.35 17.2 -95.3 19.85 -83.25 25.5 -69.7 27.8 -64.25 30.45 -59.75 34.25 -53.2 38.8 -48.85 41.55 -46.2 44.15 -50.25 45.6 -52.5 42.85 -59.75 41.5 -63.25 39.15 -67.95 31.9 -82.35 28.55 -90.2 25.15 -98.05 20.65 -105.45 M-35.2 -131.25 L-32.0 -135.75 Q-25.7 -137.35 -34.75 -82.05 -36.9 -70.1 -42.35 -50.95 -45.0 -41.8 -51.8 -41.4 -56.05 -41.2 -60.45 -44.0 -65.05 -46.9 -63.55 -58.25 L-58.5 -74.75 -57.35 -78.15 Q-53.8 -88.55 -35.2 -131.25 M-33.6 -122.8 Q-38.2 -114.05 -50.5 -80.95 -62.85 -47.95 -57.7 -47.1 -56.7 -45.75 -52.85 -46.45 -48.6 -47.25 -46.45 -52.25 -44.35 -57.25 -43.05 -63.05 -41.75 -68.9 -37.75 -92.45 -33.75 -116.0 -33.8 -118.35 L-33.8 -121.05 -33.6 -122.8" fill="#000000" fill-rule="evenodd" stroke="none"/>
      <path d="M20.65 -105.45 Q25.15 -98.05 28.55 -90.2 31.9 -82.35 39.15 -67.95 41.5 -63.25 42.85 -59.75 45.6 -52.5 44.15 -50.25 41.55 -46.2 38.8 -48.85 34.25 -53.2 30.45 -59.75 27.8 -64.25 25.5 -69.7 19.85 -83.25 17.2 -95.3 14.55 -107.35 12.5 -119.9 16.15 -112.85 20.65 -105.45 M-33.6 -122.8 L-33.8 -121.05 -33.8 -118.35 Q-33.75 -116.0 -37.75 -92.45 -41.75 -68.9 -43.05 -63.05 -44.35 -57.25 -46.45 -52.25 -48.6 -47.25 -52.85 -46.45 -56.7 -45.75 -57.7 -47.1 -62.85 -47.95 -50.5 -80.95 -38.2 -114.05 -33.6 -122.8" fill="#fff1dd" fill-rule="evenodd" stroke="none"/>
    </g>
    <g id="shape1" transform="matrix(1, 0, 0, 1, 70.35, 137.9)">
      <path d="M21.25 -55.95 Q18.4 -62.7 16.1 -69.05 L15.7 -70.2 Q12.95 -77.8 11.1 -84.75 L10.8 -85.9 10.65 -86.45 Q9.55 -90.45 8.8 -94.25 L8.75 -94.5 7.95 -99.05 7.65 -100.95 7.5 -102.15 Q6.4 -110.45 6.9 -117.5 L7.0 -118.85 Q7.2 -121.4 7.65 -123.7 8.45 -128.3 10.1 -132.25 L10.35 -132.9 50.9 -61.75 47.45 -58.7 44.2 -56.25 42.55 -55.1 39.5 -53.2 36.75 -51.7 Q34.3 -50.5 31.8 -49.55 28.4 -48.3 24.9 -47.55 L22.2 -53.7 22.05 -54.05 21.7 -54.8 21.4 -55.85 21.25 -55.95 M-44.75 -111.05 L-39.6 -121.7 -38.6 -123.7 -37.9 -125.1 -37.55 -125.85 -35.25 -130.3 Q-32.65 -135.2 -32.0 -135.4 -30.5 -132.35 -29.4 -128.8 -28.25 -124.8 -27.65 -120.2 L-27.5 -118.55 Q-26.75 -111.4 -27.4 -102.8 L-27.5 -101.4 -27.8 -98.55 -28.0 -96.95 -28.45 -93.55 -29.2 -88.75 -29.7 -86.05 -29.95 -84.75 Q-31.4 -77.7 -33.45 -69.9 L-33.8 -68.65 Q-35.6 -62.15 -37.85 -55.1 L-37.95 -54.8 -38.15 -54.15 -38.4 -53.5 -38.6 -52.9 -41.1 -45.6 -44.15 -46.55 Q-46.7 -47.4 -49.05 -48.35 -51.9 -49.55 -54.5 -50.9 L-57.35 -52.55 -58.9 -53.5 Q-61.45 -55.15 -63.7 -57.0 -65.9 -58.85 -67.85 -60.85 L-65.6 -65.75 -64.9 -67.35 -64.75 -67.65 -64.6 -67.95 -64.55 -68.15 -58.95 -80.35 -58.25 -81.9 -52.25 -94.95 -51.55 -96.5 -51.05 -97.6 -49.25 -101.45 -47.6 -104.95 -46.9 -106.45 -45.45 -109.6 -44.75 -111.05" fill="#21551c" fill-rule="evenodd" stroke="none"/>
      <path d="M21.4 -55.85 L21.7 -54.8 22.05 -54.05 22.2 -53.7 24.9 -47.55 Q28.4 -48.3 31.8 -49.55 34.3 -50.5 36.75 -51.7 L39.5 -53.2 42.55 -55.1 44.2 -56.25 47.45 -58.7 50.9 -61.75 10.35 -132.9 10.1 -132.25 Q8.45 -128.3 7.65 -123.7 7.2 -121.4 7.0 -118.85 L6.9 -117.5 Q6.4 -110.45 7.5 -102.15 L7.65 -100.95 7.95 -99.05 8.75 -94.5 8.8 -94.25 Q9.55 -90.45 10.65 -86.45 L10.8 -85.9 11.1 -84.75 Q12.95 -77.8 15.7 -70.2 L16.1 -69.05 Q18.4 -62.7 21.25 -55.95 M-44.75 -111.05 L-39.6 -121.7 -38.6 -123.7 -37.9 -125.1 -37.55 -125.85 -35.25 -130.3 Q-32.65 -135.2 -32.0 -135.4 -30.5 -132.35 -29.4 -128.8 -28.25 -124.8 -27.65 -120.2 L-27.5 -118.55 Q-26.75 -111.4 -27.4 -102.8 L-27.5 -101.4 -27.8 -98.55 -28.0 -96.95 -28.45 -93.55 -29.2 -88.75 -29.7 -86.05 -29.95 -84.75 Q-31.4 -77.7 -33.45 -69.9 L-33.8 -68.65 Q-35.6 -62.15 -37.85 -55.1 L-37.95 -54.8 -38.15 -54.15 -38.4 -53.5 -38.6 -52.9 -41.1 -45.6 -44.15 -46.55 Q-46.7 -47.4 -49.05 -48.35 -51.9 -49.55 -54.5 -50.9 L-57.35 -52.55 -58.9 -53.5 Q-61.45 -55.15 -63.7 -57.0 -65.9 -58.85 -67.85 -60.85 L-65.6 -65.75 -64.9 -67.35 -64.75 -67.65 -64.6 -67.95 -64.55 -68.15 -58.95 -80.35 -58.25 -81.9 -52.25 -94.95 -51.55 -96.5 -51.05 -97.6 -49.25 -101.45 -47.6 -104.95 -46.9 -106.45 -45.45 -109.6 -44.75 -111.05" fill="none" stroke="#000000" stroke-linecap="round" stroke-linejoin="round" stroke-width="5.0"/>
      <path d="M21.25 -55.95 L21.4 -55.85" fill="none" stroke="#000000" stroke-linecap="round" stroke-linejoin="round" stroke-width="3.0"/>
      <path d="M12.3 -111.45 L12.0 -111.45 11.45 -114.75 11.45 -116.75 11.85 -117.05 13.05 -116.6 14.1 -116.2 14.1 -116.45 14.7 -116.45 14.7 -116.15 14.1 -116.2 Q14.0 -114.35 12.9 -110.55 M17.3 -101.45 Q15.9 -106.35 15.9 -107.35 15.9 -109.0 16.7 -110.85 17.3 -110.25 18.6 -107.35 20.1 -104.1 19.95 -102.9 M17.0 -100.25 Q16.75 -100.6 15.55 -101.15 14.3 -101.75 13.65 -101.75 13.0 -101.75 12.05 -100.25 11.15 -98.95 11.15 -98.55 11.15 -97.05 14.4 -97.05 L16.5 -98.25 M19.1 -99.95 L19.65 -100.55 19.95 -100.55 19.95 -99.15 M21.15 -100.25 L21.45 -100.15 24.65 -99.75 24.95 -98.7 24.15 -97.35 M37.95 -70.55 Q39.3 -70.1 41.45 -67.95 L42.0 -67.95 42.0 -70.55 Q41.7 -70.55 41.7 -71.45 L41.45 -71.45 Q41.45 -70.4 40.55 -69.75 M38.85 -60.9 Q36.3 -62.1 35.4 -62.1 34.35 -62.1 34.1 -61.25 L34.1 -60.3 Q34.1 -59.5 35.0 -58.5 35.8 -57.6 36.3 -57.6 L40.85 -60.9 Q42.15 -61.65 41.7 -65.25 L42.0 -65.55 43.35 -64.05 Q44.2 -62.85 44.7 -62.9 L44.7 -62.4 43.2 -62.1 M31.2 -89.1 Q31.5 -88.8 31.5 -87.5 31.5 -85.65 29.7 -84.75 M26.15 -85.85 Q24.7 -86.05 24.45 -87.05 L24.35 -90.6 24.65 -95.25 24.95 -95.55 Q26.25 -94.95 26.95 -92.0 L27.6 -88.5 M17.9 -97.35 Q17.6 -97.05 17.6 -96.3 17.6 -94.75 19.1 -92.9 20.55 -91.2 21.45 -91.2 22.65 -91.2 22.65 -93.4 22.65 -94.65 21.75 -95.55 M27.6 -86.45 L27.9 -86.45 27.9 -85.25 28.2 -85.25 M30.6 -83.25 L30.3 -83.25 30.0 -82.95 31.35 -81.25 Q32.7 -79.7 33.35 -79.7 34.05 -79.7 34.25 -80.25 L34.65 -81.45 Q34.35 -81.45 34.35 -81.15 33.95 -81.2 32.9 -82.65 M23.85 -84.95 Q23.2 -87.35 21.3 -87.35 L19.35 -87.05 19.1 -87.05 Q19.05 -85.95 20.15 -84.9 L21.75 -83.55 Q22.15 -83.95 23.85 -84.95 M26.7 -83.25 Q25.55 -81.6 25.55 -79.85 25.55 -78.2 26.85 -78.2 L30.3 -78.5 Q28.65 -81.15 28.5 -82.35 M34.65 -79.7 L34.65 -79.1 Q34.75 -78.1 36.15 -76.6 L38.55 -74.4 36.15 -70.85 M34.65 -71.45 L34.35 -71.5 34.35 -70.55 M37.05 -69.75 L33.65 -69.85 Q31.55 -69.65 30.9 -68.25 30.2 -69.6 27.9 -72.35 L34.35 -71.5 34.65 -79.1 M36.15 -68.25 L36.2 -67.95 36.45 -65.85 36.65 -66.15 36.75 -67.05 M27.6 -66.45 Q25.5 -68.1 22.35 -69.75 22.25 -69.1 23.2 -66.0 24.15 -62.95 24.65 -62.1 27.05 -62.95 29.4 -65.25 L29.4 -58.2 27.3 -58.8 27.3 -60.6 M-40.55 -103.8 Q-41.95 -103.05 -42.3 -101.75 M-40.25 -105.6 L-41.7 -105.6 -44.1 -105.0 -44.1 -98.55 Q-43.55 -99.1 -41.35 -99.25 -39.45 -99.85 -39.65 -102.9 M-34.35 -123.2 Q-34.35 -121.2 -33.75 -118.2 M-35.25 -122.1 L-35.55 -122.1 Q-35.85 -121.8 -35.85 -120.0 -35.85 -117.5 -35.15 -117.25 -33.65 -117.1 -32.0 -116.45 L-32.0 -118.2 -32.5 -122.7 Q-32.95 -124.35 -34.65 -123.5 M-39.05 -105.3 L-38.75 -105.3 -38.5 -106.25 -39.15 -106.4 Q-39.65 -106.4 -39.65 -106.2 L-39.65 -110.6 -39.65 -114.45 Q-39.5 -114.95 -37.75 -114.95 -36.15 -114.95 -35.8 -114.45 -35.55 -114.0 -35.55 -112.05 -35.55 -110.7 -36.1 -109.55 L-37.35 -107.1 M-37.95 -108.5 L-38.25 -108.5 -38.5 -106.25 M-38.25 -105.3 Q-35.2 -101.05 -34.95 -99.75 -34.65 -100.1 -34.05 -101.7 L-33.45 -103.95 -34.05 -106.8 -35.85 -106.5 M-36.75 -105.9 L-35.25 -104.7 M-39.35 -87.6 L-39.05 -87.6 Q-39.05 -86.5 -38.25 -85.25 M-40.25 -89.4 L-40.25 -81.45 Q-39.6 -81.25 -37.9 -82.2 L-35.95 -82.95 Q-36.95 -84.6 -38.75 -89.4 L-39.35 -89.4 -39.35 -88.5 M-35.95 -82.95 L-35.55 -82.95 -35.55 -82.35 -35.95 -82.95 M-45.0 -94.1 L-45.0 -93.8 -45.0 -93.5 -45.6 -90.0 -45.6 -88.85 -45.3 -88.5 -45.6 -88.5 -45.6 -88.85 Q-46.35 -89.45 -48.45 -89.7 L-48.45 -92.9 Q-46.7 -95.1 -45.8 -95.25 L-47.3 -96.45 -47.3 -97.05 -45.3 -97.35 -45.0 -96.45 M-44.7 -94.4 L-44.7 -94.7 -45.3 -94.9 -45.8 -95.25 -45.7 -95.25 -45.3 -94.9 M-44.4 -96.15 Q-43.2 -95.55 -42.45 -95.55 -41.4 -96.15 -40.55 -96.15 L-39.65 -92.4 -43.2 -92.4 M-54.05 -69.45 Q-55.75 -66.05 -56.1 -65.85 L-57.9 -66.6 Q-58.5 -66.8 -58.5 -67.65 -58.5 -69.1 -57.35 -70.05 L-55.4 -71.35 Q-56.05 -71.75 -56.6 -72.95 L-57.6 -75.6 Q-55.75 -75.0 -54.05 -76.8 L-53.75 -76.8 -52.95 -72.05 -52.55 -71.9 Q-51.5 -72.45 -50.85 -73.2 -48.05 -67.5 -47.0 -66.45 -48.85 -66.6 -51.45 -64.4 -52.2 -65.25 -53.85 -70.5 L-54.1 -71.3 -54.65 -71.15 -55.4 -71.35 M-51.15 -85.25 Q-51.75 -83.65 -51.75 -82.65 -51.75 -82.05 -51.45 -81.75 M-50.25 -87.05 Q-52.15 -86.45 -54.95 -81.75 L-52.9 -80.35 Q-51.85 -79.5 -52.05 -78.2 -51.75 -78.2 -51.75 -77.9 -50.85 -79.35 -49.65 -79.4 -49.65 -83.85 -50.85 -85.25 M-48.45 -83.55 Q-42.9 -80.9 -42.9 -80.3 L-43.2 -75.0 Q-44.15 -74.95 -46.0 -76.8 -47.85 -78.65 -48.2 -79.95 M-57.0 -63.2 Q-58.55 -63.25 -61.85 -64.4 -62.6 -64.4 -63.2 -63.2 L-62.0 -62.6 M-42.3 -72.9 L-45.7 -73.45 Q-45.55 -72.75 -44.85 -72.15 L-43.5 -70.85 M-47.0 -74.1 L-47.3 -72.35 -45.6 -70.1 Q-43.75 -67.95 -43.2 -67.95 -42.1 -68.65 -41.4 -68.55 -41.4 -69.3 -42.3 -71.15 M-46.1 -73.5 L-45.7 -73.45 -45.8 -73.8 M-45.6 -63.2 L-45.55 -62.1 -43.8 -62.1 -43.2 -56.15 -45.8 -56.15 Q-46.4 -58.55 -46.4 -60.3 -46.4 -62.6 -46.1 -63.5 L-45.8 -63.5 M-52.55 -71.9 L-53.25 -71.6 -54.1 -71.3 M-54.95 -73.8 Q-54.35 -73.8 -54.35 -72.9 M-54.95 -70.55 L-56.4 -68.25 M-58.5 -62.1 Q-55.5 -57.05 -54.2 -57.05 -53.75 -57.05 -53.1 -57.7 -52.2 -58.6 -51.15 -59.1 L-50.85 -59.4 Q-51.35 -59.4 -52.95 -61.6 -54.45 -63.7 -55.85 -63.2 M-57.0 -62.6 L-54.95 -60.3 M-52.65 -71.45 Q-51.7 -70.65 -50.55 -68.85 M-45.3 -60.3 L-45.55 -62.1" fill="none" stroke="#ffffff" stroke-linecap="round" stroke-linejoin="round" stroke-opacity="0.2" stroke-width="1.0"/>
    </g>
  </defs>
</svg>
