<?xml version="1.0" encoding="UTF-8" standalone="no"?>
<svg xmlns:xlink="http://www.w3.org/1999/xlink" height="228.25px" width="250.6px" xmlns="http://www.w3.org/2000/svg">
  <g transform="matrix(1, 0, 0, 1, 130.7, 221.95)">
    <use height="94.4" transform="matrix(1.0, 0.0, 0.0, 1.0, -63.9, -135.8)" width="112.35" xlink:href="#shape0"/>
    <use height="130.9" transform="matrix(1.0, 0.0, 0.0, 1.0, -76.4, -137.95)" width="139.7" xlink:href="#shape1"/>
  </g>
  <defs>
    <g id="shape0" transform="matrix(1, 0, 0, 1, 63.9, 135.8)">
      <path d="M7.35 -129.6 L7.25 -129.85 Q9.7 -135.35 12.15 -129.85 36.55 -86.7 43.3 -70.0 L46.95 -59.75 Q47.9 -56.45 48.25 -54.05 49.35 -46.3 45.0 -44.45 39.6 -42.15 36.35 -44.5 29.85 -49.35 24.7 -59.75 20.45 -68.3 17.15 -80.65 9.8 -108.0 7.0 -127.0 7.0 -129.05 7.3 -129.6 L7.35 -129.6 M25.15 -104.05 L25.0 -104.25 25.1 -104.05 25.15 -104.05 M27.2 -101.45 L27.2 -101.05 27.2 -100.7 27.35 -101.25 27.2 -101.45 M20.65 -105.45 Q16.15 -112.85 12.5 -119.9 14.55 -107.35 17.2 -95.3 19.85 -83.25 25.5 -69.7 27.8 -64.25 30.45 -59.75 34.25 -53.2 38.8 -48.85 41.55 -46.2 44.15 -50.25 45.6 -52.5 42.85 -59.75 41.5 -63.25 39.15 -67.95 31.9 -82.35 28.55 -90.2 25.15 -98.05 20.65 -105.45 M-35.2 -131.25 L-32.0 -135.75 Q-25.7 -137.35 -34.75 -82.05 -36.9 -70.1 -42.35 -50.95 -45.0 -41.8 -51.8 -41.4 -56.05 -41.2 -60.45 -44.0 -65.05 -46.9 -63.55 -58.25 L-58.5 -74.75 -57.35 -78.15 Q-53.8 -88.55 -35.2 -131.25 M-33.6 -122.8 Q-38.2 -114.05 -50.5 -80.95 -62.85 -47.95 -57.7 -47.1 -56.7 -45.75 -52.85 -46.45 -48.6 -47.25 -46.45 -52.25 -44.35 -57.25 -43.05 -63.05 -41.75 -68.9 -37.75 -92.45 -33.75 -116.0 -33.8 -118.35 L-33.8 -121.05 -33.6 -122.8" fill="#000000" fill-rule="evenodd" stroke="none"/>
      <path d="M20.65 -105.45 Q25.15 -98.05 28.55 -90.2 31.9 -82.35 39.15 -67.95 41.5 -63.25 42.85 -59.75 45.6 -52.5 44.15 -50.25 41.55 -46.2 38.8 -48.85 34.25 -53.2 30.45 -59.75 27.8 -64.25 25.5 -69.7 19.85 -83.25 17.2 -95.3 14.55 -107.35 12.5 -119.9 16.15 -112.85 20.65 -105.45 M-33.6 -122.8 L-33.8 -121.05 -33.8 -118.35 Q-33.75 -116.0 -37.75 -92.45 -41.75 -68.9 -43.05 -63.05 -44.35 -57.25 -46.45 -52.25 -48.6 -47.25 -52.85 -46.45 -56.7 -45.75 -57.7 -47.1 -62.85 -47.95 -50.5 -80.95 -38.2 -114.05 -33.6 -122.8" fill="#fff1dd" fill-rule="evenodd" stroke="none"/>
    </g>
    <g id="shape1" transform="matrix(1, 0, 0, 1, 76.4, 137.95)">
      <path d="M18.15 -117.55 L18.5 -116.0 18.85 -116.15 60.8 -32.55 56.5 -28.25 52.5 -24.8 50.4 -23.15 46.65 -20.5 43.25 -18.4 Q40.2 -16.7 37.05 -15.35 32.85 -13.55 28.55 -12.5 L25.2 -21.15 24.95 -21.7 24.55 -22.75 24.1 -24.05 24.2 -24.25 24.0 -24.35 Q20.45 -33.9 17.6 -42.8 L17.1 -44.4 Q13.75 -55.15 11.4 -64.95 L11.05 -66.6 10.85 -67.35 Q9.5 -73.0 8.55 -78.3 L8.5 -78.65 7.5 -85.1 7.15 -87.75 6.95 -89.45 Q5.6 -101.15 6.2 -111.05 L6.3 -113.0 Q6.6 -116.55 7.15 -119.85 8.15 -126.3 10.15 -131.9 L10.5 -132.75 18.15 -117.55 M-46.55 -101.35 L-40.45 -116.25 -39.25 -119.05 -38.45 -121.05 -38.0 -122.05 -35.25 -128.25 Q-32.2 -135.15 -31.4 -135.45 -29.65 -131.15 -28.35 -126.2 -27.0 -120.6 -26.3 -114.1 L-26.1 -111.85 Q-25.2 -101.8 -25.95 -89.75 L-26.1 -87.8 -26.45 -83.8 -26.7 -81.55 -27.2 -76.75 -28.1 -70.05 -28.7 -66.3 -29.0 -64.45 Q-30.7 -54.55 -33.15 -43.6 L-33.55 -41.85 Q-35.7 -32.75 -38.4 -22.85 L-38.5 -22.45 -38.75 -21.5 -39.0 -20.65 -39.25 -19.8 -42.2 -9.55 -45.8 -10.9 -51.6 -13.45 Q-55.0 -15.1 -58.05 -17.0 L-61.45 -19.3 -63.35 -20.65 Q-66.3 -22.95 -69.0 -25.55 L-73.9 -30.95 -71.3 -37.8 -70.4 -40.05 -70.25 -40.45 -70.1 -40.9 -70.0 -41.2 -63.4 -58.3 -62.55 -60.5 -55.4 -78.75 -54.6 -80.9 -54.0 -82.45 -51.85 -87.85 -49.95 -92.8 -49.1 -94.85 -47.35 -99.25 -46.55 -101.35" fill="url(#gradient0)" fill-rule="evenodd" stroke="none"/>
      <path d="M18.15 -117.55 L18.85 -116.15 18.5 -116.0 18.15 -117.55" fill="#0099cc" fill-rule="evenodd" stroke="none"/>
      <path d="M18.85 -116.15 L18.15 -117.55 M18.85 -116.15 L60.8 -32.55 56.5 -28.25 52.5 -24.8 50.4 -23.15 46.65 -20.5 43.25 -18.4 Q40.2 -16.7 37.05 -15.35 32.85 -13.55 28.55 -12.5 L25.2 -21.15 24.95 -21.7 24.55 -22.75 24.1 -24.05 M24.0 -24.35 Q20.45 -33.9 17.6 -42.8 L17.1 -44.4 Q13.75 -55.15 11.4 -64.95 L11.05 -66.6 10.85 -67.35 Q9.5 -73.0 8.55 -78.3 L8.5 -78.65 7.5 -85.1 7.15 -87.75 6.95 -89.45 Q5.6 -101.15 6.2 -111.05 L6.3 -113.0 Q6.6 -116.55 7.15 -119.85 8.15 -126.3 10.15 -131.9 L10.5 -132.75 18.15 -117.55 M-46.55 -101.35 L-40.45 -116.25 -39.25 -119.05 -38.45 -121.05 -38.0 -122.05 -35.25 -128.25 Q-32.2 -135.15 -31.4 -135.45 -29.65 -131.15 -28.35 -126.2 -27.0 -120.6 -26.3 -114.1 L-26.1 -111.85 Q-25.2 -101.8 -25.95 -89.75 L-26.1 -87.8 -26.45 -83.8 -26.7 -81.55 -27.2 -76.75 -28.1 -70.05 -28.7 -66.3 -29.0 -64.45 Q-30.7 -54.55 -33.15 -43.6 L-33.55 -41.85 Q-35.7 -32.75 -38.4 -22.85 L-38.5 -22.45 -38.75 -21.5 -39.0 -20.65 -39.25 -19.8 -42.2 -9.55 -45.8 -10.9 -51.6 -13.45 Q-55.0 -15.1 -58.05 -17.0 L-61.45 -19.3 -63.35 -20.65 Q-66.3 -22.95 -69.0 -25.55 L-73.9 -30.95 -71.3 -37.8 -70.4 -40.05 -70.25 -40.45 -70.1 -40.9 -70.0 -41.2 -63.4 -58.3 -62.55 -60.5 -55.4 -78.75 -54.6 -80.9 -54.0 -82.45 -51.85 -87.85 -49.95 -92.8 -49.1 -94.85 -47.35 -99.25 -46.55 -101.35" fill="none" stroke="#000000" stroke-linecap="round" stroke-linejoin="round" stroke-width="5.0"/>
      <path d="M24.2 -24.25 L24.0 -24.35" fill="none" stroke="#000000" stroke-linecap="round" stroke-linejoin="round" stroke-width="3.0"/>
      <path d="M14.65 -114.85 L15.1 -114.05 Q15.4 -113.75 14.75 -114.25 L14.5 -114.45 Q13.05 -113.75 12.75 -111.35 12.4 -108.85 13.3 -106.45 13.8 -105.25 14.55 -104.35 14.4 -106.6 14.5 -108.8 14.6 -111.25 15.9 -113.0 L15.3 -107.6 Q15.0 -105.6 15.2 -103.7 L16.95 -102.55 15.3 -102.8 15.6 -101.25 Q16.4 -98.25 19.3 -97.25 15.15 -97.7 14.7 -102.2 L14.6 -103.15 Q13.15 -104.05 12.45 -106.25 11.6 -109.0 12.1 -111.75 12.5 -113.9 13.85 -115.25 14.45 -115.4 14.65 -114.85 M18.85 -87.7 L19.45 -87.35 Q19.85 -87.05 19.4 -86.9 L18.65 -86.75 18.3 -86.6 Q17.55 -84.7 17.45 -82.65 L17.4 -79.85 Q19.25 -82.2 21.5 -84.05 20.6 -82.0 18.1 -79.15 L17.5 -78.4 17.55 -77.55 Q17.85 -74.8 19.8 -72.9 17.2 -73.7 16.85 -76.8 L16.8 -77.45 Q15.5 -75.6 14.8 -73.4 13.75 -70.3 15.65 -67.8 12.9 -69.35 13.75 -72.75 14.6 -76.1 16.65 -78.85 L16.65 -82.35 Q16.75 -85.0 17.75 -87.35 L17.95 -87.4 18.45 -87.55 18.8 -87.65 18.85 -87.7 M24.2 -62.8 Q23.5 -59.85 24.5 -56.8 L24.75 -56.1 25.9 -61.7 Q26.65 -64.85 28.8 -67.0 L28.85 -67.0 Q27.9 -64.35 26.7 -60.1 25.95 -57.2 25.6 -54.2 26.3 -52.75 27.35 -51.5 29.2 -49.2 31.4 -47.55 27.6 -48.75 25.4 -52.6 L25.35 -51.95 Q25.05 -47.85 29.25 -46.95 23.2 -47.15 24.25 -53.35 L24.45 -54.55 Q23.65 -56.65 23.3 -58.85 22.9 -61.2 24.15 -62.75 L24.2 -62.8 M38.8 -43.5 Q38.85 -43.75 39.2 -43.7 38.45 -39.65 39.2 -35.5 L39.3 -34.95 40.1 -36.05 Q41.85 -38.1 44.3 -39.2 L44.35 -39.65 Q44.9 -42.5 46.25 -44.6 L45.15 -39.55 45.35 -39.65 46.15 -39.95 49.4 -39.8 50.2 -39.3 44.9 -38.25 Q44.35 -35.4 44.55 -32.45 L44.65 -31.35 45.5 -32.3 Q46.9 -33.9 48.4 -34.95 48.0 -33.2 46.3 -31.7 L44.85 -30.35 Q45.3 -28.65 46.3 -27.15 44.7 -28.0 44.0 -29.55 L43.2 -28.8 42.95 -28.5 43.3 -28.2 Q46.15 -25.6 49.85 -25.25 45.0 -25.05 42.2 -27.7 L40.45 -25.85 Q40.6 -27.3 41.5 -28.4 40.05 -30.1 39.2 -32.7 L38.0 -30.85 Q37.7 -31.0 37.95 -31.7 L38.2 -32.6 38.4 -33.25 38.8 -34.05 Q38.05 -37.15 38.25 -40.4 38.35 -42.0 38.8 -43.5 M42.7 -37.3 Q40.95 -35.65 39.7 -33.55 40.55 -31.15 42.3 -29.2 L42.5 -29.4 43.7 -30.45 Q43.4 -31.6 43.5 -33.05 43.65 -35.6 44.1 -38.05 43.3 -37.85 42.7 -37.3 M-33.6 -114.9 L-31.95 -117.4 Q-32.05 -115.1 -33.9 -113.45 -34.1 -112.2 -33.9 -110.85 -33.6 -108.4 -31.65 -106.8 -34.8 -107.85 -34.85 -111.45 L-34.8 -112.5 Q-35.8 -111.2 -36.0 -109.45 L-36.15 -105.05 Q-37.05 -106.4 -36.85 -108.8 -36.65 -111.15 -35.1 -113.0 L-34.75 -113.4 -33.9 -116.9 -32.35 -120.4 Q-32.4 -118.4 -33.35 -115.75 L-33.6 -114.9 M-39.45 -51.65 Q-39.95 -49.25 -39.85 -46.75 L-39.6 -45.0 -38.45 -44.2 -39.55 -44.65 -39.25 -43.75 -39.05 -43.65 -39.25 -43.65 -38.65 -42.35 Q-39.55 -43.0 -40.1 -43.9 -43.4 -45.0 -43.35 -49.8 L-43.35 -50.45 -44.3 -56.85 Q-44.6 -59.4 -44.05 -61.35 L-43.95 -61.4 -43.5 -55.0 -43.25 -53.2 -42.9 -57.1 Q-42.6 -59.5 -41.45 -61.5 L-41.4 -61.55 Q-41.6 -58.3 -42.1 -54.9 -42.5 -52.1 -42.3 -49.25 L-42.15 -48.75 Q-41.65 -47.3 -40.75 -46.2 L-40.8 -47.15 Q-40.65 -49.85 -39.95 -52.4 -39.4 -54.55 -38.45 -56.25 L-39.45 -51.65 M-52.4 -59.0 L-51.75 -58.8 -51.65 -58.75 Q-53.7 -58.45 -55.3 -57.05 L-55.75 -56.6 -55.75 -56.5 -54.9 -53.45 -54.65 -53.7 Q-52.65 -55.7 -50.25 -56.8 -51.4 -55.15 -53.3 -53.65 L-54.55 -52.55 -54.1 -51.5 -52.25 -47.4 Q-54.3 -48.9 -55.35 -51.85 L-56.2 -51.1 -55.55 -48.35 Q-56.5 -49.0 -57.1 -50.2 -58.4 -48.9 -59.0 -47.5 -59.45 -49.1 -58.1 -50.4 L-57.45 -51.0 Q-57.85 -51.95 -58.05 -53.2 L-58.15 -53.8 Q-59.35 -52.05 -59.65 -50.05 L-60.0 -49.45 Q-60.75 -50.25 -60.2 -51.35 L-58.6 -54.4 -58.3 -54.85 -58.45 -58.95 Q-58.4 -61.65 -56.4 -63.3 -57.45 -60.95 -57.55 -58.2 L-57.45 -55.9 -56.5 -56.9 -56.55 -57.7 Q-56.6 -60.1 -55.55 -61.8 -56.1 -59.65 -55.85 -57.4 L-54.35 -58.4 -52.95 -59.0 -52.4 -59.0 M-56.8 -53.0 L-56.45 -51.95 -55.65 -52.7 -56.4 -56.0 -57.3 -54.95 -56.8 -53.0 M-41.9 -46.7 Q-41.45 -45.4 -40.4 -44.5 L-40.65 -45.35 -41.9 -46.7 M-52.05 -38.85 L-51.1 -40.55 Q-50.05 -42.1 -48.65 -43.15 L-51.1 -38.4 -51.3 -38.05 -51.9 -36.75 Q-52.75 -34.8 -53.0 -32.6 -53.35 -30.0 -51.7 -27.7 -54.55 -29.2 -53.95 -32.8 -53.45 -36.0 -52.1 -38.85 L-52.05 -38.85 M-49.05 -31.15 L-48.7 -33.75 Q-48.4 -35.75 -46.9 -36.7 -47.55 -35.2 -47.85 -33.4 L-48.15 -29.95 -48.15 -29.85 -48.1 -28.95 -47.95 -26.55 Q-49.25 -26.9 -49.15 -29.55 L-49.15 -29.75 -49.05 -31.15" fill="#ffffff" fill-rule="evenodd" stroke="none"/>
      <path d="M43.3 -54.05 L42.8 -53.6 42.35 -53.2 39.6 -53.5 39.75 -52.5 Q41.25 -49.9 43.6 -48.0 41.75 -48.6 40.4 -49.8 L40.65 -49.1 Q41.7 -46.1 44.25 -44.6 40.05 -45.6 39.1 -50.7 L38.95 -51.5 Q38.2 -52.7 37.7 -54.25 L37.65 -54.35 Q35.4 -55.85 34.5 -59.15 33.75 -61.85 34.1 -64.7 34.3 -66.15 34.8 -67.1 34.7 -63.95 35.15 -60.75 35.55 -58.1 37.2 -56.2 36.7 -58.55 36.8 -60.95 36.9 -63.55 38.0 -65.45 37.55 -62.25 37.8 -58.8 37.9 -56.8 38.6 -54.9 L38.7 -54.85 38.8 -57.55 Q39.05 -60.3 40.65 -62.1 39.45 -59.05 39.45 -55.7 L39.5 -54.35 43.6 -54.45 43.3 -54.05 M-40.05 -87.05 L-39.7 -95.2 Q-39.3 -98.55 -38.1 -100.8 -38.25 -97.2 -38.85 -93.3 -39.4 -89.7 -38.95 -86.15 L-34.6 -85.95 Q-30.95 -86.95 -29.05 -90.25 -31.55 -82.55 -38.8 -85.3 -38.15 -81.85 -35.75 -79.4 -39.4 -81.2 -39.95 -85.75 L-40.1 -85.85 Q-42.95 -87.2 -43.15 -90.35 -43.4 -94.05 -42.3 -97.1 -43.05 -92.75 -41.25 -88.85 -40.75 -87.75 -40.05 -87.0 L-40.05 -87.05" fill="#fdea3e" fill-rule="evenodd" stroke="none"/>
      <path d="M23.6 -89.55 Q24.25 -86.55 25.95 -84.0 L25.95 -85.05 Q25.95 -88.45 27.5 -90.7 L26.9 -83.65 26.85 -82.75 27.05 -82.5 Q29.3 -79.75 31.0 -76.75 28.7 -78.4 26.85 -80.75 26.9 -78.55 27.3 -76.35 27.95 -73.05 29.55 -70.2 26.55 -72.65 26.2 -77.35 L26.0 -81.85 Q25.15 -83.05 24.4 -84.4 22.55 -87.85 22.1 -91.75 21.75 -95.1 23.1 -97.25 22.75 -93.45 23.6 -89.55 M-47.6 -78.15 Q-46.65 -81.3 -44.05 -83.0 -45.75 -80.6 -46.7 -77.5 -47.4 -75.3 -47.7 -73.05 L-47.45 -72.55 Q-45.85 -69.55 -44.05 -68.6 L-44.0 -68.15 -44.0 -67.9 -44.85 -67.65 Q-46.65 -69.65 -47.8 -72.05 L-47.9 -71.3 Q-48.1 -68.25 -46.7 -65.8 -49.35 -67.8 -48.95 -71.5 L-48.6 -73.85 -48.65 -73.95 Q-49.8 -76.95 -49.15 -80.2 -48.55 -83.15 -46.4 -84.75 -48.05 -82.15 -48.55 -78.85 -48.85 -76.9 -48.4 -75.0 L-47.6 -78.15 M-57.4 -42.9 L-59.1 -36.7 -60.35 -32.8 -59.6 -31.35 -56.65 -26.85 Q-59.3 -28.45 -60.85 -31.35 L-61.2 -30.5 Q-62.25 -27.6 -63.65 -25.25 -63.25 -28.5 -61.95 -31.5 L-61.45 -32.6 -61.65 -33.05 Q-62.85 -35.95 -63.05 -39.0 -63.2 -41.55 -62.4 -43.2 -62.2 -40.1 -61.65 -37.05 L-60.9 -34.15 -59.9 -37.6 Q-59.15 -40.85 -57.4 -42.9" fill="#fff06f" fill-rule="evenodd" stroke="none"/>
      <path d="M-51.1 -40.55 L-52.05 -38.85 -52.1 -39.5 Q-52.1 -41.85 -51.0 -42.85 L-51.1 -40.55 M-51.9 -36.75 L-51.3 -38.05 -51.1 -38.4 -51.05 -37.15 Q-50.9 -34.2 -49.4 -31.7 L-49.05 -31.15 -49.15 -29.75 Q-50.6 -31.25 -51.25 -33.5 L-51.9 -36.75 M-48.15 -29.95 L-45.8 -27.85 Q-47.1 -28.25 -48.1 -28.95 L-48.15 -29.85 -48.15 -29.95" fill="#fde82d" fill-rule="evenodd" stroke="none"/>
    </g>
    <linearGradient gradientTransform="matrix(0.0045, -0.0601, 0.997, 0.0744, 58.95, -54.75)" gradientUnits="userSpaceOnUse" id="gradient0" spreadMethod="pad" x1="-819.2" x2="819.2">
      <stop offset="0.0" stop-color="#82111e"/>
      <stop offset="1.0" stop-color="#e48184"/>
    </linearGradient>
  </defs>
</svg>
