<?xml version="1.0" encoding="UTF-8" standalone="no"?>
<svg xmlns:xlink="http://www.w3.org/1999/xlink" height="228.25px" width="250.6px" xmlns="http://www.w3.org/2000/svg">
  <g transform="matrix(1, 0, 0, 1, 130.7, 221.95)">
    <use height="95.5" transform="matrix(1.0, 0.0, 0.0, 1.0, -69.75, -135.75)" width="127.35" xlink:href="#shape0"/>
  </g>
  <defs>
    <g id="shape0" transform="matrix(1, 0, 0, 1, 69.75, 135.75)">
      <path d="M32.65 -55.85 L32.5 -55.85 31.9 -56.0 Q29.35 -56.6 29.25 -59.1 25.05 -66.4 18.25 -89.9 13.3 -106.95 9.25 -124.2 L9.3 -125.05 Q7.25 -128.8 7.25 -130.45 7.25 -135.35 11.0 -135.35 13.55 -135.35 21.85 -122.55 30.95 -107.9 33.75 -104.1 36.4 -100.5 48.15 -86.2 57.6 -74.65 57.6 -73.7 57.6 -71.55 45.9 -63.7 48.1 -60.05 50.6 -52.6 50.6 -44.85 40.35 -44.85 34.0 -44.85 32.5 -46.9 31.75 -47.9 32.25 -49.1 L32.45 -50.55 Q33.0 -51.35 34.5 -51.95 35.7 -52.5 37.6 -52.85 L42.35 -52.85 Q41.6 -55.2 39.65 -58.4 L39.1 -59.3 36.1 -57.45 Q35.4 -56.25 33.65 -55.95 L33.5 -55.85 33.0 -55.85 32.65 -55.85 M20.35 -108.7 L30.2 -79.3 33.05 -79.35 Q33.65 -80.1 34.05 -83.05 35.0 -85.0 38.6 -85.4 L27.1 -99.9 20.35 -108.7 M35.5 -66.05 L48.35 -73.85 45.7 -76.9 44.4 -77.1 Q42.6 -77.75 41.25 -75.3 40.8 -74.5 40.95 -73.3 L40.85 -71.9 Q40.2 -70.85 32.65 -71.75 L32.75 -71.5 33.1 -70.4 34.6 -65.75 34.7 -65.5 35.5 -66.05 M41.1 -82.35 Q36.5 -81.85 36.1 -79.35 L35.6 -77.2 Q34.95 -76.2 32.55 -76.2 L31.15 -76.35 31.7 -74.7 36.15 -74.7 Q37.7 -74.7 38.2 -75.55 L38.65 -77.45 Q39.05 -80.15 42.9 -80.25 L41.1 -82.35 M-48.7 -49.05 Q-47.25 -48.15 -47.25 -45.85 -47.25 -43.5 -50.25 -41.8 -53.0 -40.25 -56.0 -40.25 -63.75 -40.25 -66.0 -44.4 -67.15 -46.5 -66.75 -48.85 -66.75 -51.65 -64.5 -57.5 L-62.6 -61.5 -64.5 -64.3 Q-68.25 -70.35 -69.75 -76.6 -69.75 -78.7 -51.2 -107.0 -32.45 -135.75 -30.0 -135.75 L-28.15 -135.3 Q-27.6 -135.75 -27.0 -135.75 -24.7 -135.75 -23.75 -133.75 -23.25 -132.7 -23.25 -131.5 -23.25 -119.15 -31.25 -87.25 -37.15 -63.85 -41.4 -56.55 L-41.25 -55.85 Q-41.25 -53.65 -43.3 -52.75 -44.35 -52.25 -45.5 -52.25 L-48.35 -52.45 Q-52.6 -53.05 -56.25 -55.45 L-59.0 -49.25 -55.15 -49.1 -51.5 -49.75 Q-49.75 -49.75 -48.7 -49.05 M-43.85 -102.95 L-55.1 -86.75 -54.95 -86.75 Q-49.55 -86.75 -48.25 -84.4 L-47.9 -81.45 Q-44.65 -81.95 -42.1 -80.55 -41.15 -80.05 -40.5 -79.4 -36.15 -92.75 -35.65 -96.8 L-33.4 -118.05 -43.85 -102.95 M-53.7 -75.15 L-48.2 -76.2 Q-44.4 -76.2 -44.15 -72.8 L-44.2 -68.9 -42.6 -73.1 -42.65 -73.55 -42.35 -76.05 Q-42.45 -78.9 -51.3 -78.2 L-51.6 -83.55 Q-55.2 -83.35 -57.15 -83.6 L-58.15 -82.05 Q-53.15 -82.05 -52.95 -79.45 -53.75 -76.35 -53.75 -75.3 L-53.75 -75.15 -53.7 -75.15 M-60.05 -78.85 Q-61.5 -76.35 -61.5 -75.6 -61.5 -70.95 -51.35 -64.2 L-48.55 -62.3 Q-47.45 -62.15 -45.7 -65.55 -47.65 -65.85 -47.95 -68.65 L-47.9 -72.9 Q-57.7 -70.65 -58.15 -73.55 -58.4 -75.2 -56.7 -78.95 L-60.05 -78.85" fill="#000000" fill-rule="evenodd" stroke="none"/>
      <path d="M34.5 -51.95 Q33.05 -53.4 32.65 -55.85 L33.0 -55.85 33.5 -55.85 33.65 -55.95 Q35.4 -56.25 36.1 -57.45 L39.1 -59.3 39.65 -58.4 Q41.6 -55.2 42.35 -52.85 L37.6 -52.85 Q35.7 -52.5 34.5 -51.95 M-48.35 -52.45 Q-48.35 -50.2 -48.7 -49.05 -49.75 -49.75 -51.5 -49.75 L-55.15 -49.1 -59.0 -49.25 -56.25 -55.45 Q-52.6 -53.05 -48.35 -52.45" fill="#fff1dd" fill-rule="evenodd" stroke="none"/>
      <path d="M34.6 -65.75 L33.1 -70.4 32.75 -71.5 32.65 -71.75 Q40.2 -70.85 40.85 -71.9 L40.95 -73.3 Q40.8 -74.5 41.25 -75.3 42.6 -77.75 44.4 -77.1 L45.7 -76.9 48.35 -73.85 35.5 -66.05 34.6 -65.75 M20.35 -108.7 L27.1 -99.9 38.6 -85.4 Q35.0 -85.0 34.05 -83.05 33.65 -80.1 33.05 -79.35 L30.2 -79.3 20.35 -108.7 M-43.85 -102.95 L-33.4 -118.05 -35.65 -96.8 Q-36.15 -92.75 -40.5 -79.4 -41.15 -80.05 -42.1 -80.55 -44.65 -81.95 -47.9 -81.45 L-48.25 -84.4 Q-49.55 -86.75 -54.95 -86.75 L-55.1 -86.75 -43.85 -102.95 M-53.75 -75.3 L-53.7 -75.15 -53.75 -75.15 -53.75 -75.3 M-60.05 -78.85 L-56.7 -78.95 Q-58.4 -75.2 -58.15 -73.55 -57.7 -70.65 -47.9 -72.9 L-47.95 -68.65 Q-47.65 -65.85 -45.7 -65.55 -47.45 -62.15 -48.55 -62.3 L-51.35 -64.2 Q-61.5 -70.95 -61.5 -75.6 -61.5 -76.35 -60.05 -78.85" fill="#ffeeee" fill-rule="evenodd" stroke="none"/>
      <path d="M41.1 -82.35 L42.9 -80.25 Q39.05 -80.15 38.65 -77.45 L38.2 -75.55 Q37.7 -74.7 36.15 -74.7 L31.7 -74.7 31.15 -76.35 32.55 -76.2 Q34.95 -76.2 35.6 -77.2 L36.1 -79.35 Q36.5 -81.85 41.1 -82.35 M-53.75 -75.3 Q-53.75 -76.35 -52.95 -79.45 -53.15 -82.05 -58.15 -82.05 L-57.15 -83.6 Q-55.2 -83.35 -51.6 -83.55 L-51.3 -78.2 Q-42.45 -78.9 -42.35 -76.05 L-42.65 -73.55 -42.6 -73.1 -44.2 -68.9 -44.15 -72.8 Q-44.4 -76.2 -48.2 -76.2 L-53.7 -75.15 -53.75 -75.3" fill="#ff4d4d" fill-rule="evenodd" stroke="none"/>
    </g>
  </defs>
</svg>
