<?xml version="1.0" encoding="UTF-8" standalone="no"?>
<svg xmlns:xlink="http://www.w3.org/1999/xlink" height="228.25px" width="250.6px" xmlns="http://www.w3.org/2000/svg">
  <g transform="matrix(1, 0, 0, 1, 130.7, 221.95)">
    <use height="94.5" transform="matrix(1.0, 0.0, 0.0, 1.0, -66.1, -135.75)" width="115.85" xlink:href="#shape0"/>
  </g>
  <defs>
    <g id="shape0" transform="matrix(1, 0, 0, 1, 66.1, 135.75)">
      <path d="M12.05 -121.95 Q7.1 -128.9 7.1 -130.9 7.1 -135.75 10.85 -135.75 13.25 -135.75 24.65 -119.35 35.6 -103.55 35.6 -102.65 35.6 -100.75 33.55 -97.25 L32.6 -98.25 34.0 -96.7 38.0 -90.3 38.25 -89.85 38.5 -89.4 38.85 -88.7 38.85 -88.5 38.6 -87.65 37.55 -86.15 41.65 -76.7 Q46.1 -65.65 49.6 -54.4 L49.75 -50.9 Q49.7 -49.05 48.85 -48.0 46.65 -45.25 36.35 -45.25 32.1 -45.25 32.1 -48.75 32.1 -51.35 35.75 -52.8 38.1 -53.75 42.1 -54.25 41.0 -59.35 32.35 -76.7 L30.6 -80.3 31.0 -80.6 29.9 -79.85 27.15 -78.35 25.5 -77.75 25.4 -77.7 23.75 -77.5 Q20.45 -77.5 20.45 -80.8 L20.45 -80.85 20.45 -80.95 20.45 -81.05 Q20.65 -82.75 23.3 -84.3 L23.55 -84.45 25.35 -85.3 25.6 -85.45 25.7 -85.5 29.55 -87.45 Q30.7 -88.3 30.75 -89.0 L30.75 -89.1 Q30.75 -90.0 30.1 -91.2 L29.7 -91.85 Q25.9 -89.35 24.1 -88.55 L22.85 -88.25 22.0 -88.25 Q18.1 -88.6 18.1 -91.75 18.1 -93.0 19.95 -94.85 L20.05 -94.9 20.5 -95.35 22.75 -97.25 Q27.35 -100.85 27.35 -102.0 L25.75 -104.05 25.7 -104.05 23.15 -107.35 17.25 -114.95 12.05 -121.95 M-49.25 -49.7 Q-46.25 -49.3 -46.25 -45.5 -46.25 -43.15 -47.2 -42.5 -49.0 -41.25 -55.5 -41.25 -63.95 -41.25 -65.7 -45.1 -66.25 -46.35 -66.05 -47.85 L-65.75 -49.25 Q-65.75 -50.2 -63.65 -57.85 -61.2 -66.6 -58.5 -74.75 -56.35 -81.2 -54.4 -85.9 L-56.35 -90.0 Q-56.35 -92.6 -54.05 -97.3 L-51.8 -101.0 -52.0 -101.65 -52.75 -104.9 Q-52.75 -106.65 -32.0 -135.75 -28.25 -135.75 -28.25 -131.5 -28.25 -128.05 -36.35 -116.05 L-41.1 -109.15 -43.8 -105.4 -44.5 -104.5 Q-44.5 -101.35 -40.35 -96.75 L-40.3 -96.7 -40.25 -96.65 -40.15 -96.55 -39.95 -96.3 -39.65 -96.0 -39.55 -95.9 -39.35 -95.7 Q-34.25 -90.4 -34.25 -89.5 -34.25 -85.25 -38.0 -85.25 -39.9 -85.25 -41.6 -85.95 L-42.35 -86.3 -43.6 -87.45 -44.25 -88.2 -48.65 -93.4 -48.95 -92.85 -50.1 -90.2 -50.1 -90.15 -50.15 -90.0 Q-50.15 -89.0 -45.35 -85.4 L-45.25 -85.35 -44.3 -84.6 -42.9 -83.45 -42.6 -83.2 Q-40.35 -81.2 -40.35 -80.3 -40.35 -77.5 -44.05 -77.5 -46.1 -77.5 -48.0 -78.6 L-49.4 -75.15 Q-57.0 -56.25 -58.25 -49.5 L-58.25 -49.0 -58.2 -49.0 -50.0 -49.75 -49.25 -49.7" fill="#000000" fill-rule="evenodd" stroke="none"/>
      <path d="M23.55 -84.45 L23.15 -85.35 22.0 -88.25 22.85 -88.25 24.1 -88.55 Q25.9 -89.35 29.7 -91.85 L30.1 -91.2 Q30.75 -90.0 30.75 -89.1 L30.75 -89.0 Q30.7 -88.3 29.55 -87.45 L25.7 -85.5 25.6 -85.45 25.35 -85.3 23.55 -84.45 M19.95 -94.9 L18.5 -100.1 18.2 -101.15 18.15 -101.25 18.05 -101.65 15.65 -109.8 12.05 -121.95 17.25 -114.95 23.15 -107.35 25.7 -104.05 25.05 -103.55 25.75 -104.05 27.35 -102.0 Q27.35 -100.85 22.75 -97.25 L20.5 -95.35 20.05 -94.9 19.95 -94.9 M-42.6 -83.2 L-42.9 -83.45 -44.3 -84.6 -45.25 -85.35 -45.35 -85.4 Q-50.15 -89.0 -50.15 -90.0 L-50.1 -90.15 -50.1 -90.2 -48.95 -92.85 -48.65 -93.4 -44.25 -88.2 -43.6 -87.45 -42.35 -86.3 -41.6 -85.95 -41.8 -85.4 -42.6 -83.2 M-40.35 -96.75 Q-44.5 -101.35 -44.5 -104.5 L-43.8 -105.4 -41.1 -109.15 -36.35 -116.05 -36.2 -116.0 -36.45 -114.85 -38.2 -105.1 -38.05 -104.95 -38.0 -104.9 -38.35 -104.15 -40.15 -96.6 -40.25 -96.65 -40.0 -98.0 -40.2 -97.05 -40.25 -96.85 -40.35 -96.75" fill="#fbeaef" fill-rule="evenodd" stroke="none"/>
      <path d="M25.7 -104.05 L25.75 -104.05 25.05 -103.55 25.7 -104.05" fill="#b30000" fill-rule="evenodd" stroke="none"/>
      <path d="M33.55 -97.25 L34.0 -96.7 32.6 -98.25 33.55 -97.25 M29.9 -79.85 L31.0 -80.6 30.6 -80.3 29.9 -79.85" fill="#444444" fill-rule="evenodd" stroke="none"/>
      <path d="M35.75 -52.8 L35.05 -54.15 Q30.4 -63.65 27.6 -71.25 L25.4 -77.7 25.5 -77.75 27.15 -78.35 29.9 -79.85 30.6 -80.3 32.35 -76.7 Q41.0 -59.35 42.1 -54.25 38.1 -53.75 35.75 -52.8 M-49.25 -49.7 L-50.0 -49.75 -58.2 -49.0 -58.25 -49.5 Q-57.0 -56.25 -49.4 -75.15 L-48.0 -78.6 Q-46.1 -77.5 -44.05 -77.5 L-45.75 -68.5 -49.25 -49.7" fill="#fff1dd" fill-rule="evenodd" stroke="none"/>
      <path d="M19.95 -94.85 L19.95 -94.9 20.05 -94.9 19.95 -94.85 M-40.15 -96.55 L-40.25 -96.65 -40.15 -96.6 -40.15 -96.55 M-40.3 -96.7 L-40.35 -96.75 -40.25 -96.85 -40.3 -96.7" fill="#f8dce4" fill-rule="evenodd" stroke="none"/>
    </g>
  </defs>
</svg>
