<?xml version="1.0" encoding="UTF-8" standalone="no"?>
<svg xmlns:xlink="http://www.w3.org/1999/xlink" height="228.25px" width="250.6px" xmlns="http://www.w3.org/2000/svg">
  <g transform="matrix(1, 0, 0, 1, 130.7, 221.95)">
    <use height="122.85" transform="matrix(1.0, 0.0, 0.0, 1.0, -79.8, -137.8)" width="143.1" xlink:href="#shape0"/>
  </g>
  <defs>
    <g id="shape0" transform="matrix(1, 0, 0, 1, 79.8, 137.8)">
      <path d="M38.25 -30.65 L35.15 -35.2 Q32.45 -39.45 29.35 -47.0 26.2 -54.55 20.95 -75.35 15.65 -96.2 14.05 -113.75 L13.15 -122.55 Q22.95 -99.5 33.1 -81.65 40.45 -68.65 48.9 -55.6 L52.15 -50.6 52.85 -49.6 53.3 -48.9 Q49.05 -43.7 49.05 -41.85 L49.2 -40.5 50.85 -40.2 Q51.55 -40.2 54.1 -43.95 L55.35 -45.9 56.8 -43.7 55.9 -42.2 54.3 -39.7 50.2 -33.55 49.05 -31.75 44.55 -25.0 43.65 -25.05 Q42.35 -25.4 40.9 -27.2 L39.9 -28.5 40.05 -28.65 38.25 -30.65 M48.0 -37.6 L47.0 -37.85 Q45.85 -37.45 43.25 -33.9 40.8 -30.55 40.8 -30.15 40.8 -29.0 42.3 -28.5 43.45 -29.15 45.9 -32.15 48.45 -35.3 48.45 -36.5 48.45 -37.45 48.0 -37.6 M-71.25 -51.6 L-70.35 -53.3 -70.4 -53.35 -68.95 -55.9 -66.0 -61.1 -63.8 -64.85 Q-52.45 -84.1 -49.6 -89.7 -38.8 -111.0 -32.55 -125.6 -30.8 -126.5 -32.4 -106.15 -34.05 -85.85 -35.75 -74.8 -37.45 -63.8 -40.15 -50.05 L-41.85 -42.65 -41.85 -42.6 -41.9 -42.4 -42.5 -40.2 -45.2 -31.55 -45.4 -31.05 -46.6 -27.45 -46.8 -27.6 Q-48.95 -29.1 -50.25 -29.1 L-51.7 -28.9 Q-52.05 -28.65 -52.05 -27.6 -52.05 -27.2 -49.95 -25.5 -48.65 -24.5 -47.8 -24.05 L-48.55 -21.95 -48.8 -21.25 -50.4 -21.9 Q-53.6 -23.1 -56.0 -24.25 L-58.2 -25.45 -59.05 -25.95 -60.7 -27.1 -60.75 -27.2 -60.85 -27.3 -61.0 -27.4 -61.05 -27.45 -65.2 -31.4 -66.25 -32.55 Q-70.2 -36.9 -71.9 -41.0 -73.3 -44.3 -73.3 -47.4 L-72.85 -48.5 Q-69.4 -40.2 -67.65 -40.2 -66.75 -40.2 -66.45 -40.5 L-66.3 -40.8 -66.15 -42.15 -68.7 -47.35 Q-70.3 -50.35 -71.25 -51.6 M-53.85 -31.4 L-58.05 -35.2 Q-62.45 -39.05 -63.5 -39.05 -65.0 -39.05 -64.65 -38.75 L-64.95 -37.65 Q-57.8 -29.7 -55.25 -29.7 L-54.0 -30.05 -53.85 -31.4" fill="#ffffff" fill-rule="evenodd" stroke="none"/>
      <path d="M14.0 -132.8 L14.95 -131.2 Q17.55 -126.65 21.65 -117.9 L34.3 -89.9 Q35.8 -86.6 50.25 -66.0 63.3 -47.3 63.3 -44.4 63.3 -41.95 55.5 -29.9 47.4 -17.4 44.7 -17.4 43.05 -17.4 42.3 -18.3 34.75 -19.8 26.65 -39.6 21.9 -51.2 17.3 -71.7 9.75 -105.4 9.0 -125.5 L9.1 -135.6 Q9.8 -136.2 11.0 -136.2 11.9 -136.2 14.0 -132.8 M53.3 -48.9 L52.85 -49.6 52.15 -50.6 48.9 -55.6 Q40.45 -68.65 33.1 -81.65 22.95 -99.5 13.15 -122.55 L14.05 -113.75 Q15.65 -96.2 20.95 -75.35 26.2 -54.55 29.35 -47.0 32.45 -39.45 35.15 -35.2 L38.25 -30.65 39.9 -28.5 40.9 -27.2 Q42.35 -25.4 43.65 -25.05 L44.55 -25.0 49.05 -31.75 50.2 -33.55 54.3 -39.7 55.9 -42.2 56.8 -43.7 55.35 -45.9 53.3 -48.9 M-27.6 -116.9 Q-27.6 -110.85 -29.35 -94.7 -31.3 -76.3 -34.1 -59.55 -41.25 -16.6 -48.35 -14.95 -65.3 -21.3 -70.45 -28.45 -75.6 -35.6 -77.7 -40.95 -79.8 -46.35 -79.8 -47.4 -79.8 -49.0 -68.9 -67.95 -56.15 -90.15 -54.9 -92.7 -51.95 -98.55 -42.15 -119.65 -33.5 -137.8 -32.1 -137.8 -30.55 -137.8 -29.75 -136.75 -26.7 -134.75 -27.6 -116.9 M-46.6 -27.45 L-45.4 -31.05 -45.2 -31.55 -42.5 -40.2 -41.9 -42.4 -41.85 -42.6 -41.85 -42.65 -40.15 -50.05 Q-37.45 -63.8 -35.75 -74.8 -34.05 -85.85 -32.4 -106.15 -30.8 -126.5 -32.55 -125.6 -38.8 -111.0 -49.6 -89.7 -52.45 -84.1 -63.8 -64.85 L-66.0 -61.1 -68.95 -55.9 -70.4 -53.35 -70.35 -53.3 -71.25 -51.6 -72.85 -48.5 -73.3 -47.4 Q-73.3 -44.3 -71.9 -41.0 -70.2 -36.9 -66.25 -32.55 L-65.2 -31.4 -61.05 -27.45 -61.0 -27.4 -60.95 -27.35 -60.85 -27.3 -60.75 -27.2 -60.7 -27.1 -59.05 -25.95 -58.2 -25.45 -56.0 -24.25 Q-53.6 -23.1 -50.4 -21.9 L-48.8 -21.25 -48.55 -21.95 -47.8 -24.05 -46.95 -26.5 -46.6 -27.45" fill="#000000" fill-rule="evenodd" stroke="none"/>
      <path d="M55.35 -45.9 L54.1 -43.95 Q51.55 -40.2 50.85 -40.2 L49.2 -40.5 49.05 -41.85 Q49.05 -43.7 53.3 -48.9 L55.35 -45.9 M48.0 -37.6 Q48.45 -37.45 48.45 -36.5 48.45 -35.3 45.9 -32.15 43.45 -29.15 42.3 -28.5 40.8 -29.0 40.8 -30.15 40.8 -30.55 43.25 -33.9 45.85 -37.45 47.0 -37.85 L48.0 -37.6 M-71.25 -51.6 Q-70.3 -50.35 -68.7 -47.35 L-66.15 -42.15 -66.3 -40.8 -66.45 -40.5 Q-66.75 -40.2 -67.65 -40.2 -69.4 -40.2 -72.85 -48.5 L-71.25 -51.6 M-47.8 -24.05 Q-48.65 -24.5 -49.95 -25.5 -52.05 -27.2 -52.05 -27.6 -52.05 -28.65 -51.7 -28.9 L-50.25 -29.1 Q-48.95 -29.1 -46.8 -27.6 L-46.6 -27.45 -46.95 -26.5 -47.8 -24.05 M-53.85 -31.4 L-54.0 -30.05 -55.25 -29.7 Q-57.8 -29.7 -64.95 -37.65 L-64.65 -38.75 Q-65.0 -39.05 -63.5 -39.05 -62.45 -39.05 -58.05 -35.2 L-53.85 -31.4" fill="#1b3676" fill-rule="evenodd" stroke="none"/>
      <path d="M38.25 -30.65 L40.05 -28.65 39.9 -28.5 38.25 -30.65 M-61.0 -27.4 L-60.85 -27.3 -60.95 -27.35 -61.0 -27.4" fill="#f40202" fill-rule="evenodd" stroke="none"/>
    </g>
  </defs>
</svg>
