<?xml version="1.0" encoding="UTF-8" standalone="no"?>
<svg xmlns:xlink="http://www.w3.org/1999/xlink" height="228.25px" width="250.6px" xmlns="http://www.w3.org/2000/svg">
  <g transform="matrix(1, 0, 0, 1, 130.7, 221.95)">
    <use height="95.0" transform="matrix(1.0, 0.0, 0.0, 1.0, -65.75, -135.8)" width="115.5" xlink:href="#shape0"/>
  </g>
  <defs>
    <g id="shape0" transform="matrix(1, 0, 0, 1, 65.75, 135.8)">
      <path d="M32.2 -49.85 Q33.35 -51.6 34.55 -52.25 L38.9 -51.9 Q42.65 -51.25 42.1 -54.25 41.0 -59.35 32.35 -76.7 L20.25 -103.1 Q9.45 -126.95 10.1 -124.8 L9.3 -126.05 8.75 -126.9 7.25 -130.6 Q9.7 -136.1 12.15 -130.6 36.0 -88.45 41.0 -77.05 46.0 -65.7 49.6 -54.4 L49.75 -50.9 Q49.7 -49.05 47.05 -46.9 44.35 -44.8 37.95 -45.95 31.5 -47.15 31.8 -48.65 32.1 -50.1 32.2 -49.85 M27.35 -102.0 L27.2 -102.2 27.2 -101.8 27.2 -101.45 27.35 -102.0 M25.1 -104.8 L25.15 -104.8 25.0 -105.0 25.1 -104.8 M-31.3 -123.7 L-31.4 -123.4 -31.4 -123.35 -31.65 -122.85 -32.7 -120.35 -36.3 -110.75 -35.7 -112.5 Q-30.5 -126.85 -34.15 -116.9 -61.05 -56.25 -58.25 -49.5 L-58.25 -49.0 -58.2 -49.0 Q-54.65 -45.0 -49.25 -49.7 -46.25 -49.3 -46.6 -46.55 -47.0 -43.85 -48.0 -42.6 -49.05 -41.3 -55.45 -40.85 -61.9 -40.35 -63.75 -43.35 -65.6 -46.35 -65.65 -47.75 L-65.75 -49.25 Q-65.75 -50.2 -63.65 -57.85 -61.2 -66.6 -58.5 -74.75 L-57.35 -78.15 Q-53.8 -88.55 -35.2 -131.25 L-32.0 -135.75 Q-28.25 -135.75 -28.25 -131.5 L-28.5 -129.95 -29.3 -127.85 -29.6 -127.2 -29.65 -127.05 -30.55 -125.3 -30.65 -125.15 -30.7 -125.05 -31.1 -124.35 Q-30.75 -125.55 -31.35 -123.9 L-31.4 -123.85 -31.65 -123.4 -32.3 -122.3 -32.3 -121.9 -31.75 -122.9 -32.3 -121.45 -31.65 -122.95 -31.4 -123.5 -31.3 -123.7" fill="#000000" fill-rule="evenodd" stroke="none"/>
      <path d="M9.3 -126.05 L10.1 -124.8 Q9.45 -126.95 20.25 -103.1 L32.35 -76.7 Q41.0 -59.35 42.1 -54.25 42.65 -51.25 38.9 -51.9 L34.55 -52.25 Q33.35 -51.6 32.2 -49.85 L30.95 -54.15 29.45 -59.1 28.95 -60.8 26.2 -69.8 20.25 -88.8 Q9.65 -123.35 9.3 -126.05 M-31.1 -124.35 L-31.2 -124.05 -31.3 -123.7 -31.4 -123.5 -31.65 -122.95 -32.3 -121.45 -31.75 -122.9 -31.65 -123.2 -31.4 -123.85 -31.35 -123.9 Q-30.75 -125.55 -31.1 -124.35 M-31.4 -123.35 L-31.5 -123.15 -31.65 -122.7 Q-32.0 -121.6 -31.45 -123.05 L-30.55 -125.3 -29.65 -127.05 -29.6 -127.2 -29.3 -127.85 -28.5 -129.95 Q-27.55 -131.8 -29.7 -124.45 -32.3 -115.75 -37.8 -98.45 -40.75 -89.2 -42.65 -84.6 L-44.7 -74.1 -45.75 -68.5 -49.25 -49.7 Q-54.65 -45.0 -58.2 -49.0 L-58.25 -49.5 Q-61.05 -56.25 -34.15 -116.9 -30.5 -126.85 -35.7 -112.5 L-36.3 -110.75 -32.7 -120.35 -31.65 -122.85 -31.4 -123.35" fill="#fff1dd" fill-rule="evenodd" stroke="none"/>
      <path d="M11.7 -132.25 Q17.15 -131.0 24.6 -120.4 L35.1 -105.5 Q38.45 -100.75 38.4 -100.4 38.5 -98.35 30.45 -93.45 22.55 -88.7 19.15 -88.75 12.95 -88.65 7.45 -107.95 4.7 -117.45 3.15 -127.05 L3.15 -127.15 Q3.15 -130.6 4.4 -131.85 6.0 -133.65 11.7 -132.25 M21.85 -112.3 Q16.2 -120.0 10.85 -125.65 12.35 -115.2 13.65 -108.75 16.2 -96.25 19.8 -95.95 23.6 -95.75 26.05 -97.35 L30.5 -100.5 21.85 -112.3 M-56.45 -103.55 Q-56.45 -105.1 -45.45 -119.85 -34.5 -134.6 -30.05 -135.7 -25.65 -136.8 -23.55 -128.0 L-23.55 -127.95 -22.45 -119.3 Q-22.45 -116.0 -26.8 -101.05 -32.05 -83.2 -36.2 -83.35 -44.75 -83.3 -51.45 -92.65 -53.6 -95.65 -55.2 -99.15 -56.55 -102.0 -56.45 -103.55 M-49.6 -101.85 Q-49.5 -100.6 -44.35 -95.95 L-38.8 -91.3 Q-37.25 -93.85 -33.35 -104.2 -28.85 -116.4 -28.85 -119.7 -28.85 -122.2 -29.5 -127.1 -29.6 -127.9 -29.95 -128.0 -30.6 -128.0 -31.75 -127.05 -34.45 -124.9 -39.55 -118.05 -49.7 -104.55 -49.6 -101.85" fill="#000000" fill-rule="evenodd" stroke="none"/>
      <path d="M21.85 -112.3 L30.5 -100.5 26.05 -97.35 Q23.6 -95.75 19.8 -95.95 16.2 -96.25 13.65 -108.75 12.35 -115.2 10.85 -125.65 16.2 -120.0 21.85 -112.3 M-49.6 -101.85 Q-49.7 -104.55 -39.55 -118.05 -34.45 -124.9 -31.75 -127.05 -30.6 -128.0 -29.95 -128.0 -29.6 -127.9 -29.5 -127.1 -28.85 -122.2 -28.85 -119.7 -28.85 -116.4 -33.35 -104.2 -37.25 -93.85 -38.8 -91.3 L-44.35 -95.95 Q-49.5 -100.6 -49.6 -101.85" fill="#ffffff" fill-rule="evenodd" stroke="none"/>
    </g>
  </defs>
</svg>
